<?xml version="1.0" encoding="utf-8" standalone="no"?>
<!DOCTYPE svg PUBLIC "-//W3C//DTD SVG 1.1//EN"
  "http://www.w3.org/Graphics/SVG/1.1/DTD/svg11.dtd">
<svg xmlns:xlink="http://www.w3.org/1999/xlink" width="510.23622pt" height="255.11811pt" viewBox="0 0 510.23622 255.11811" xmlns="http://www.w3.org/2000/svg" version="1.1">
 <metadata>
  <rdf:RDF xmlns:dc="http://purl.org/dc/elements/1.1/" xmlns:cc="http://creativecommons.org/ns#" xmlns:rdf="http://www.w3.org/1999/02/22-rdf-syntax-ns#">
   <cc:Work>
    <dc:type rdf:resource="http://purl.org/dc/dcmitype/StillImage"/>
    <dc:date>2022-04-27T00:20:27.069646</dc:date>
    <dc:format>image/svg+xml</dc:format>
    <dc:creator>
     <cc:Agent>
      <dc:title>Matplotlib v3.5.1, https://matplotlib.org/</dc:title>
     </cc:Agent>
    </dc:creator>
   </cc:Work>
  </rdf:RDF>
 </metadata>
 <defs>
  <style type="text/css">*{stroke-linejoin: round; stroke-linecap: butt}</style>
 </defs>
 <g id="figure_1">
  <g id="patch_1">
   <path d="M 0 255.11811 
L 510.23622 255.11811 
L 510.23622 0 
L 0 0 
z
" style="fill: #ffffff"/>
  </g>
  <g id="axes_1">
   <g id="patch_2">
    <path d="M 47.22 213.89811 
L 500.51622 213.89811 
L 500.51622 24.32 
L 47.22 24.32 
z
" style="fill: #ffffff"/>
   </g>
   <g id="matplotlib.axis_1">
    <g id="xtick_1">
     <g id="text_1">
      <!-- 49 -->
      <g style="fill: #444444" transform="translate(74.593458 229.840141)scale(0.09 -0.09)">
       <defs>
        <path id="ArialMT-34" d="M 2069 0 
L 2069 1097 
L 81 1097 
L 81 1613 
L 2172 4581 
L 2631 4581 
L 2631 1613 
L 3250 1613 
L 3250 1097 
L 2631 1097 
L 2631 0 
L 2069 0 
z
M 2069 1613 
L 2069 3678 
L 634 1613 
L 2069 1613 
z
" transform="scale(0.015625)"/>
        <path id="ArialMT-39" d="M 350 1059 
L 891 1109 
Q 959 728 1153 556 
Q 1347 384 1650 384 
Q 1909 384 2104 503 
Q 2300 622 2425 820 
Q 2550 1019 2634 1356 
Q 2719 1694 2719 2044 
Q 2719 2081 2716 2156 
Q 2547 1888 2255 1720 
Q 1963 1553 1622 1553 
Q 1053 1553 659 1965 
Q 266 2378 266 3053 
Q 266 3750 677 4175 
Q 1088 4600 1706 4600 
Q 2153 4600 2523 4359 
Q 2894 4119 3086 3673 
Q 3278 3228 3278 2384 
Q 3278 1506 3087 986 
Q 2897 466 2520 194 
Q 2144 -78 1638 -78 
Q 1100 -78 759 220 
Q 419 519 350 1059 
z
M 2653 3081 
Q 2653 3566 2395 3850 
Q 2138 4134 1775 4134 
Q 1400 4134 1122 3828 
Q 844 3522 844 3034 
Q 844 2597 1108 2323 
Q 1372 2050 1759 2050 
Q 2150 2050 2401 2323 
Q 2653 2597 2653 3081 
z
" transform="scale(0.015625)"/>
       </defs>
       <use xlink:href="#ArialMT-34"/>
       <use xlink:href="#ArialMT-39" x="55.615234"/>
      </g>
     </g>
    </g>
    <g id="xtick_2">
     <g id="text_2">
      <!-- 17 -->
      <g style="fill: #444444" transform="translate(139.350061 229.840141)scale(0.09 -0.09)">
       <defs>
        <path id="ArialMT-31" d="M 2384 0 
L 1822 0 
L 1822 3584 
Q 1619 3391 1289 3197 
Q 959 3003 697 2906 
L 697 3450 
Q 1169 3672 1522 3987 
Q 1875 4303 2022 4600 
L 2384 4600 
L 2384 0 
z
" transform="scale(0.015625)"/>
        <path id="ArialMT-37" d="M 303 3981 
L 303 4522 
L 3269 4522 
L 3269 4084 
Q 2831 3619 2401 2847 
Q 1972 2075 1738 1259 
Q 1569 684 1522 0 
L 944 0 
Q 953 541 1156 1306 
Q 1359 2072 1739 2783 
Q 2119 3494 2547 3981 
L 303 3981 
z
" transform="scale(0.015625)"/>
       </defs>
       <use xlink:href="#ArialMT-31"/>
       <use xlink:href="#ArialMT-37" x="55.615234"/>
      </g>
     </g>
    </g>
    <g id="xtick_3">
     <g id="text_3">
      <!-- 69 -->
      <g style="fill: #444444" transform="translate(204.106664 229.840141)scale(0.09 -0.09)">
       <defs>
        <path id="ArialMT-36" d="M 3184 3459 
L 2625 3416 
Q 2550 3747 2413 3897 
Q 2184 4138 1850 4138 
Q 1581 4138 1378 3988 
Q 1113 3794 959 3422 
Q 806 3050 800 2363 
Q 1003 2672 1297 2822 
Q 1591 2972 1913 2972 
Q 2475 2972 2870 2558 
Q 3266 2144 3266 1488 
Q 3266 1056 3080 686 
Q 2894 316 2569 119 
Q 2244 -78 1831 -78 
Q 1128 -78 684 439 
Q 241 956 241 2144 
Q 241 3472 731 4075 
Q 1159 4600 1884 4600 
Q 2425 4600 2770 4297 
Q 3116 3994 3184 3459 
z
M 888 1484 
Q 888 1194 1011 928 
Q 1134 663 1356 523 
Q 1578 384 1822 384 
Q 2178 384 2434 671 
Q 2691 959 2691 1453 
Q 2691 1928 2437 2201 
Q 2184 2475 1800 2475 
Q 1419 2475 1153 2201 
Q 888 1928 888 1484 
z
" transform="scale(0.015625)"/>
       </defs>
       <use xlink:href="#ArialMT-36"/>
       <use xlink:href="#ArialMT-39" x="55.615234"/>
      </g>
     </g>
    </g>
    <g id="xtick_4">
     <g id="text_4">
      <!-- 15 -->
      <g style="fill: #444444" transform="translate(268.863266 229.840141)scale(0.09 -0.09)">
       <defs>
        <path id="ArialMT-35" d="M 266 1200 
L 856 1250 
Q 922 819 1161 601 
Q 1400 384 1738 384 
Q 2144 384 2425 690 
Q 2706 997 2706 1503 
Q 2706 1984 2436 2262 
Q 2166 2541 1728 2541 
Q 1456 2541 1237 2417 
Q 1019 2294 894 2097 
L 366 2166 
L 809 4519 
L 3088 4519 
L 3088 3981 
L 1259 3981 
L 1013 2750 
Q 1425 3038 1878 3038 
Q 2478 3038 2890 2622 
Q 3303 2206 3303 1553 
Q 3303 931 2941 478 
Q 2500 -78 1738 -78 
Q 1113 -78 717 272 
Q 322 622 266 1200 
z
" transform="scale(0.015625)"/>
       </defs>
       <use xlink:href="#ArialMT-31"/>
       <use xlink:href="#ArialMT-35" x="55.615234"/>
      </g>
     </g>
    </g>
    <g id="xtick_5">
     <g id="text_5">
      <!-- 5 -->
      <g style="fill: #444444" transform="translate(336.122291 229.840141)scale(0.09 -0.09)">
       <use xlink:href="#ArialMT-35"/>
      </g>
     </g>
    </g>
    <g id="xtick_6">
     <g id="text_6">
      <!-- 126 -->
      <g style="fill: #444444" transform="translate(395.87405 229.840141)scale(0.09 -0.09)">
       <defs>
        <path id="ArialMT-32" d="M 3222 541 
L 3222 0 
L 194 0 
Q 188 203 259 391 
Q 375 700 629 1000 
Q 884 1300 1366 1694 
Q 2113 2306 2375 2664 
Q 2638 3022 2638 3341 
Q 2638 3675 2398 3904 
Q 2159 4134 1775 4134 
Q 1369 4134 1125 3890 
Q 881 3647 878 3216 
L 300 3275 
Q 359 3922 746 4261 
Q 1134 4600 1788 4600 
Q 2447 4600 2831 4234 
Q 3216 3869 3216 3328 
Q 3216 3053 3103 2787 
Q 2991 2522 2730 2228 
Q 2469 1934 1863 1422 
Q 1356 997 1212 845 
Q 1069 694 975 541 
L 3222 541 
z
" transform="scale(0.015625)"/>
       </defs>
       <use xlink:href="#ArialMT-31"/>
       <use xlink:href="#ArialMT-32" x="55.615234"/>
       <use xlink:href="#ArialMT-36" x="111.230469"/>
      </g>
     </g>
    </g>
    <g id="xtick_7">
     <g id="text_7">
      <!-- 62 -->
      <g style="fill: #444444" transform="translate(463.133075 229.840141)scale(0.09 -0.09)">
       <use xlink:href="#ArialMT-36"/>
       <use xlink:href="#ArialMT-32" x="55.615234"/>
      </g>
     </g>
    </g>
    <g id="text_8">
     <!-- Patient -->
     <g style="fill: #444444" transform="translate(259.859048 242.070923)scale(0.09 -0.09)">
      <defs>
       <path id="ArialMT-50" d="M 494 0 
L 494 4581 
L 2222 4581 
Q 2678 4581 2919 4538 
Q 3256 4481 3484 4323 
Q 3713 4166 3852 3881 
Q 3991 3597 3991 3256 
Q 3991 2672 3619 2267 
Q 3247 1863 2275 1863 
L 1100 1863 
L 1100 0 
L 494 0 
z
M 1100 2403 
L 2284 2403 
Q 2872 2403 3119 2622 
Q 3366 2841 3366 3238 
Q 3366 3525 3220 3729 
Q 3075 3934 2838 4000 
Q 2684 4041 2272 4041 
L 1100 4041 
L 1100 2403 
z
" transform="scale(0.015625)"/>
       <path id="ArialMT-61" d="M 2588 409 
Q 2275 144 1986 34 
Q 1697 -75 1366 -75 
Q 819 -75 525 192 
Q 231 459 231 875 
Q 231 1119 342 1320 
Q 453 1522 633 1644 
Q 813 1766 1038 1828 
Q 1203 1872 1538 1913 
Q 2219 1994 2541 2106 
Q 2544 2222 2544 2253 
Q 2544 2597 2384 2738 
Q 2169 2928 1744 2928 
Q 1347 2928 1158 2789 
Q 969 2650 878 2297 
L 328 2372 
Q 403 2725 575 2942 
Q 747 3159 1072 3276 
Q 1397 3394 1825 3394 
Q 2250 3394 2515 3294 
Q 2781 3194 2906 3042 
Q 3031 2891 3081 2659 
Q 3109 2516 3109 2141 
L 3109 1391 
Q 3109 606 3145 398 
Q 3181 191 3288 0 
L 2700 0 
Q 2613 175 2588 409 
z
M 2541 1666 
Q 2234 1541 1622 1453 
Q 1275 1403 1131 1340 
Q 988 1278 909 1158 
Q 831 1038 831 891 
Q 831 666 1001 516 
Q 1172 366 1500 366 
Q 1825 366 2078 508 
Q 2331 650 2450 897 
Q 2541 1088 2541 1459 
L 2541 1666 
z
" transform="scale(0.015625)"/>
       <path id="ArialMT-74" d="M 1650 503 
L 1731 6 
Q 1494 -44 1306 -44 
Q 1000 -44 831 53 
Q 663 150 594 308 
Q 525 466 525 972 
L 525 2881 
L 113 2881 
L 113 3319 
L 525 3319 
L 525 4141 
L 1084 4478 
L 1084 3319 
L 1650 3319 
L 1650 2881 
L 1084 2881 
L 1084 941 
Q 1084 700 1114 631 
Q 1144 563 1211 522 
Q 1278 481 1403 481 
Q 1497 481 1650 503 
z
" transform="scale(0.015625)"/>
       <path id="ArialMT-69" d="M 425 3934 
L 425 4581 
L 988 4581 
L 988 3934 
L 425 3934 
z
M 425 0 
L 425 3319 
L 988 3319 
L 988 0 
L 425 0 
z
" transform="scale(0.015625)"/>
       <path id="ArialMT-65" d="M 2694 1069 
L 3275 997 
Q 3138 488 2766 206 
Q 2394 -75 1816 -75 
Q 1088 -75 661 373 
Q 234 822 234 1631 
Q 234 2469 665 2931 
Q 1097 3394 1784 3394 
Q 2450 3394 2872 2941 
Q 3294 2488 3294 1666 
Q 3294 1616 3291 1516 
L 816 1516 
Q 847 969 1125 678 
Q 1403 388 1819 388 
Q 2128 388 2347 550 
Q 2566 713 2694 1069 
z
M 847 1978 
L 2700 1978 
Q 2663 2397 2488 2606 
Q 2219 2931 1791 2931 
Q 1403 2931 1139 2672 
Q 875 2413 847 1978 
z
" transform="scale(0.015625)"/>
       <path id="ArialMT-6e" d="M 422 0 
L 422 3319 
L 928 3319 
L 928 2847 
Q 1294 3394 1984 3394 
Q 2284 3394 2536 3286 
Q 2788 3178 2913 3003 
Q 3038 2828 3088 2588 
Q 3119 2431 3119 2041 
L 3119 0 
L 2556 0 
L 2556 2019 
Q 2556 2363 2490 2533 
Q 2425 2703 2258 2804 
Q 2091 2906 1866 2906 
Q 1506 2906 1245 2678 
Q 984 2450 984 1813 
L 984 0 
L 422 0 
z
" transform="scale(0.015625)"/>
      </defs>
      <use xlink:href="#ArialMT-50"/>
      <use xlink:href="#ArialMT-61" x="66.699219"/>
      <use xlink:href="#ArialMT-74" x="122.314453"/>
      <use xlink:href="#ArialMT-69" x="150.097656"/>
      <use xlink:href="#ArialMT-65" x="172.314453"/>
      <use xlink:href="#ArialMT-6e" x="227.929688"/>
      <use xlink:href="#ArialMT-74" x="283.544922"/>
     </g>
    </g>
   </g>
   <g id="matplotlib.axis_2">
    <g id="ytick_1">
     <g id="text_9">
      <!-- 200 -->
      <g style="fill: #444444" transform="translate(22.705469 180.261785)scale(0.09 -0.09)">
       <defs>
        <path id="ArialMT-30" d="M 266 2259 
Q 266 3072 433 3567 
Q 600 4063 929 4331 
Q 1259 4600 1759 4600 
Q 2128 4600 2406 4451 
Q 2684 4303 2865 4023 
Q 3047 3744 3150 3342 
Q 3253 2941 3253 2259 
Q 3253 1453 3087 958 
Q 2922 463 2592 192 
Q 2263 -78 1759 -78 
Q 1097 -78 719 397 
Q 266 969 266 2259 
z
M 844 2259 
Q 844 1131 1108 757 
Q 1372 384 1759 384 
Q 2147 384 2411 759 
Q 2675 1134 2675 2259 
Q 2675 3391 2411 3762 
Q 2147 4134 1753 4134 
Q 1366 4134 1134 3806 
Q 844 3388 844 2259 
z
" transform="scale(0.015625)"/>
       </defs>
       <use xlink:href="#ArialMT-32"/>
       <use xlink:href="#ArialMT-30" x="55.615234"/>
       <use xlink:href="#ArialMT-30" x="111.230469"/>
      </g>
     </g>
    </g>
    <g id="ytick_2">
     <g id="text_10">
      <!-- 400 -->
      <g style="fill: #444444" transform="translate(22.705469 140.967127)scale(0.09 -0.09)">
       <use xlink:href="#ArialMT-34"/>
       <use xlink:href="#ArialMT-30" x="55.615234"/>
       <use xlink:href="#ArialMT-30" x="111.230469"/>
      </g>
     </g>
    </g>
    <g id="ytick_3">
     <g id="text_11">
      <!-- 600 -->
      <g style="fill: #444444" transform="translate(22.705469 101.672468)scale(0.09 -0.09)">
       <use xlink:href="#ArialMT-36"/>
       <use xlink:href="#ArialMT-30" x="55.615234"/>
       <use xlink:href="#ArialMT-30" x="111.230469"/>
      </g>
     </g>
    </g>
    <g id="ytick_4">
     <g id="text_12">
      <!-- 800 -->
      <g style="fill: #444444" transform="translate(22.705469 62.37781)scale(0.09 -0.09)">
       <defs>
        <path id="ArialMT-38" d="M 1131 2484 
Q 781 2613 612 2850 
Q 444 3088 444 3419 
Q 444 3919 803 4259 
Q 1163 4600 1759 4600 
Q 2359 4600 2725 4251 
Q 3091 3903 3091 3403 
Q 3091 3084 2923 2848 
Q 2756 2613 2416 2484 
Q 2838 2347 3058 2040 
Q 3278 1734 3278 1309 
Q 3278 722 2862 322 
Q 2447 -78 1769 -78 
Q 1091 -78 675 323 
Q 259 725 259 1325 
Q 259 1772 486 2073 
Q 713 2375 1131 2484 
z
M 1019 3438 
Q 1019 3113 1228 2906 
Q 1438 2700 1772 2700 
Q 2097 2700 2305 2904 
Q 2513 3109 2513 3406 
Q 2513 3716 2298 3927 
Q 2084 4138 1766 4138 
Q 1444 4138 1231 3931 
Q 1019 3725 1019 3438 
z
M 838 1322 
Q 838 1081 952 856 
Q 1066 631 1291 507 
Q 1516 384 1775 384 
Q 2178 384 2440 643 
Q 2703 903 2703 1303 
Q 2703 1709 2433 1975 
Q 2163 2241 1756 2241 
Q 1359 2241 1098 1978 
Q 838 1716 838 1322 
z
" transform="scale(0.015625)"/>
       </defs>
       <use xlink:href="#ArialMT-38"/>
       <use xlink:href="#ArialMT-30" x="55.615234"/>
       <use xlink:href="#ArialMT-30" x="111.230469"/>
      </g>
     </g>
    </g>
    <g id="text_13">
     <!-- Trimmed Means of M values (TMM) -->
     <g style="fill: #444444" transform="translate(16.81125 190.194993)rotate(-90)scale(0.09 -0.09)">
      <defs>
       <path id="ArialMT-54" d="M 1659 0 
L 1659 4041 
L 150 4041 
L 150 4581 
L 3781 4581 
L 3781 4041 
L 2266 4041 
L 2266 0 
L 1659 0 
z
" transform="scale(0.015625)"/>
       <path id="ArialMT-72" d="M 416 0 
L 416 3319 
L 922 3319 
L 922 2816 
Q 1116 3169 1280 3281 
Q 1444 3394 1641 3394 
Q 1925 3394 2219 3213 
L 2025 2691 
Q 1819 2813 1613 2813 
Q 1428 2813 1281 2702 
Q 1134 2591 1072 2394 
Q 978 2094 978 1738 
L 978 0 
L 416 0 
z
" transform="scale(0.015625)"/>
       <path id="ArialMT-6d" d="M 422 0 
L 422 3319 
L 925 3319 
L 925 2853 
Q 1081 3097 1340 3245 
Q 1600 3394 1931 3394 
Q 2300 3394 2536 3241 
Q 2772 3088 2869 2813 
Q 3263 3394 3894 3394 
Q 4388 3394 4653 3120 
Q 4919 2847 4919 2278 
L 4919 0 
L 4359 0 
L 4359 2091 
Q 4359 2428 4304 2576 
Q 4250 2725 4106 2815 
Q 3963 2906 3769 2906 
Q 3419 2906 3187 2673 
Q 2956 2441 2956 1928 
L 2956 0 
L 2394 0 
L 2394 2156 
Q 2394 2531 2256 2718 
Q 2119 2906 1806 2906 
Q 1569 2906 1367 2781 
Q 1166 2656 1075 2415 
Q 984 2175 984 1722 
L 984 0 
L 422 0 
z
" transform="scale(0.015625)"/>
       <path id="ArialMT-64" d="M 2575 0 
L 2575 419 
Q 2259 -75 1647 -75 
Q 1250 -75 917 144 
Q 584 363 401 755 
Q 219 1147 219 1656 
Q 219 2153 384 2558 
Q 550 2963 881 3178 
Q 1213 3394 1622 3394 
Q 1922 3394 2156 3267 
Q 2391 3141 2538 2938 
L 2538 4581 
L 3097 4581 
L 3097 0 
L 2575 0 
z
M 797 1656 
Q 797 1019 1065 703 
Q 1334 388 1700 388 
Q 2069 388 2326 689 
Q 2584 991 2584 1609 
Q 2584 2291 2321 2609 
Q 2059 2928 1675 2928 
Q 1300 2928 1048 2622 
Q 797 2316 797 1656 
z
" transform="scale(0.015625)"/>
       <path id="ArialMT-20" transform="scale(0.015625)"/>
       <path id="ArialMT-4d" d="M 475 0 
L 475 4581 
L 1388 4581 
L 2472 1338 
Q 2622 884 2691 659 
Q 2769 909 2934 1394 
L 4031 4581 
L 4847 4581 
L 4847 0 
L 4263 0 
L 4263 3834 
L 2931 0 
L 2384 0 
L 1059 3900 
L 1059 0 
L 475 0 
z
" transform="scale(0.015625)"/>
       <path id="ArialMT-73" d="M 197 991 
L 753 1078 
Q 800 744 1014 566 
Q 1228 388 1613 388 
Q 2000 388 2187 545 
Q 2375 703 2375 916 
Q 2375 1106 2209 1216 
Q 2094 1291 1634 1406 
Q 1016 1563 777 1677 
Q 538 1791 414 1992 
Q 291 2194 291 2438 
Q 291 2659 392 2848 
Q 494 3038 669 3163 
Q 800 3259 1026 3326 
Q 1253 3394 1513 3394 
Q 1903 3394 2198 3281 
Q 2494 3169 2634 2976 
Q 2775 2784 2828 2463 
L 2278 2388 
Q 2241 2644 2061 2787 
Q 1881 2931 1553 2931 
Q 1166 2931 1000 2803 
Q 834 2675 834 2503 
Q 834 2394 903 2306 
Q 972 2216 1119 2156 
Q 1203 2125 1616 2013 
Q 2213 1853 2448 1751 
Q 2684 1650 2818 1456 
Q 2953 1263 2953 975 
Q 2953 694 2789 445 
Q 2625 197 2315 61 
Q 2006 -75 1616 -75 
Q 969 -75 630 194 
Q 291 463 197 991 
z
" transform="scale(0.015625)"/>
       <path id="ArialMT-6f" d="M 213 1659 
Q 213 2581 725 3025 
Q 1153 3394 1769 3394 
Q 2453 3394 2887 2945 
Q 3322 2497 3322 1706 
Q 3322 1066 3130 698 
Q 2938 331 2570 128 
Q 2203 -75 1769 -75 
Q 1072 -75 642 372 
Q 213 819 213 1659 
z
M 791 1659 
Q 791 1022 1069 705 
Q 1347 388 1769 388 
Q 2188 388 2466 706 
Q 2744 1025 2744 1678 
Q 2744 2294 2464 2611 
Q 2184 2928 1769 2928 
Q 1347 2928 1069 2612 
Q 791 2297 791 1659 
z
" transform="scale(0.015625)"/>
       <path id="ArialMT-66" d="M 556 0 
L 556 2881 
L 59 2881 
L 59 3319 
L 556 3319 
L 556 3672 
Q 556 4006 616 4169 
Q 697 4388 901 4523 
Q 1106 4659 1475 4659 
Q 1713 4659 2000 4603 
L 1916 4113 
Q 1741 4144 1584 4144 
Q 1328 4144 1222 4034 
Q 1116 3925 1116 3625 
L 1116 3319 
L 1763 3319 
L 1763 2881 
L 1116 2881 
L 1116 0 
L 556 0 
z
" transform="scale(0.015625)"/>
       <path id="ArialMT-76" d="M 1344 0 
L 81 3319 
L 675 3319 
L 1388 1331 
Q 1503 1009 1600 663 
Q 1675 925 1809 1294 
L 2547 3319 
L 3125 3319 
L 1869 0 
L 1344 0 
z
" transform="scale(0.015625)"/>
       <path id="ArialMT-6c" d="M 409 0 
L 409 4581 
L 972 4581 
L 972 0 
L 409 0 
z
" transform="scale(0.015625)"/>
       <path id="ArialMT-75" d="M 2597 0 
L 2597 488 
Q 2209 -75 1544 -75 
Q 1250 -75 995 37 
Q 741 150 617 320 
Q 494 491 444 738 
Q 409 903 409 1263 
L 409 3319 
L 972 3319 
L 972 1478 
Q 972 1038 1006 884 
Q 1059 663 1231 536 
Q 1403 409 1656 409 
Q 1909 409 2131 539 
Q 2353 669 2445 892 
Q 2538 1116 2538 1541 
L 2538 3319 
L 3100 3319 
L 3100 0 
L 2597 0 
z
" transform="scale(0.015625)"/>
       <path id="ArialMT-28" d="M 1497 -1347 
Q 1031 -759 709 28 
Q 388 816 388 1659 
Q 388 2403 628 3084 
Q 909 3875 1497 4659 
L 1900 4659 
Q 1522 4009 1400 3731 
Q 1209 3300 1100 2831 
Q 966 2247 966 1656 
Q 966 153 1900 -1347 
L 1497 -1347 
z
" transform="scale(0.015625)"/>
       <path id="ArialMT-29" d="M 791 -1347 
L 388 -1347 
Q 1322 153 1322 1656 
Q 1322 2244 1188 2822 
Q 1081 3291 891 3722 
Q 769 4003 388 4659 
L 791 4659 
Q 1378 3875 1659 3084 
Q 1900 2403 1900 1659 
Q 1900 816 1576 28 
Q 1253 -759 791 -1347 
z
" transform="scale(0.015625)"/>
      </defs>
      <use xlink:href="#ArialMT-54"/>
      <use xlink:href="#ArialMT-72" x="57.333984"/>
      <use xlink:href="#ArialMT-69" x="90.634766"/>
      <use xlink:href="#ArialMT-6d" x="112.851562"/>
      <use xlink:href="#ArialMT-6d" x="196.152344"/>
      <use xlink:href="#ArialMT-65" x="279.453125"/>
      <use xlink:href="#ArialMT-64" x="335.068359"/>
      <use xlink:href="#ArialMT-20" x="390.683594"/>
      <use xlink:href="#ArialMT-4d" x="418.466797"/>
      <use xlink:href="#ArialMT-65" x="501.767578"/>
      <use xlink:href="#ArialMT-61" x="557.382812"/>
      <use xlink:href="#ArialMT-6e" x="612.998047"/>
      <use xlink:href="#ArialMT-73" x="668.613281"/>
      <use xlink:href="#ArialMT-20" x="718.613281"/>
      <use xlink:href="#ArialMT-6f" x="746.396484"/>
      <use xlink:href="#ArialMT-66" x="802.011719"/>
      <use xlink:href="#ArialMT-20" x="829.794922"/>
      <use xlink:href="#ArialMT-4d" x="857.578125"/>
      <use xlink:href="#ArialMT-20" x="940.878906"/>
      <use xlink:href="#ArialMT-76" x="968.662109"/>
      <use xlink:href="#ArialMT-61" x="1018.662109"/>
      <use xlink:href="#ArialMT-6c" x="1074.277344"/>
      <use xlink:href="#ArialMT-75" x="1096.494141"/>
      <use xlink:href="#ArialMT-65" x="1152.109375"/>
      <use xlink:href="#ArialMT-73" x="1207.724609"/>
      <use xlink:href="#ArialMT-20" x="1257.724609"/>
      <use xlink:href="#ArialMT-28" x="1285.507812"/>
      <use xlink:href="#ArialMT-54" x="1318.808594"/>
      <use xlink:href="#ArialMT-4d" x="1379.892578"/>
      <use xlink:href="#ArialMT-4d" x="1463.193359"/>
      <use xlink:href="#ArialMT-29" x="1546.494141"/>
     </g>
    </g>
   </g>
   <g id="PolyCollection_1">
    <defs>
     <path id="m275df2fe66" d="M 88.030598 -92.325119 
L 71.166005 -92.325119 
L 70.933615 -92.583974 
L 70.70699 -92.842829 
L 70.486833 -93.101684 
L 70.273827 -93.360538 
L 70.068636 -93.619393 
L 69.871896 -93.878248 
L 69.684214 -94.137102 
L 69.506162 -94.395957 
L 69.338272 -94.654812 
L 69.181036 -94.913667 
L 69.034898 -95.172521 
L 68.900253 -95.431376 
L 68.777443 -95.690231 
L 68.666755 -95.949086 
L 68.568417 -96.20794 
L 68.4826 -96.466795 
L 68.409412 -96.72565 
L 68.348898 -96.984504 
L 68.301042 -97.243359 
L 68.265764 -97.502214 
L 68.242921 -97.761069 
L 68.232309 -98.019923 
L 68.233665 -98.278778 
L 68.246667 -98.537633 
L 68.270935 -98.796487 
L 68.306041 -99.055342 
L 68.351504 -99.314197 
L 68.406798 -99.573052 
L 68.471357 -99.831906 
L 68.544578 -100.090761 
L 68.625825 -100.349616 
L 68.714438 -100.608471 
L 68.809734 -100.867325 
L 68.911016 -101.12618 
L 69.017576 -101.385035 
L 69.128704 -101.643889 
L 69.243689 -101.902744 
L 69.36183 -102.161599 
L 69.482438 -102.420454 
L 69.604844 -102.679308 
L 69.728401 -102.938163 
L 69.85249 -103.197018 
L 69.976526 -103.455872 
L 70.099961 -103.714727 
L 70.222287 -103.973582 
L 70.343039 -104.232437 
L 70.461798 -104.491291 
L 70.578196 -104.750146 
L 70.691911 -105.009001 
L 70.802673 -105.267855 
L 70.910265 -105.52671 
L 71.014519 -105.785565 
L 71.115319 -106.04442 
L 71.212596 -106.303274 
L 71.306331 -106.562129 
L 71.39655 -106.820984 
L 71.483322 -107.079839 
L 71.566757 -107.338693 
L 71.647001 -107.597548 
L 71.724236 -107.856403 
L 71.798671 -108.115257 
L 71.870546 -108.374112 
L 71.940121 -108.632967 
L 72.007675 -108.891822 
L 72.073503 -109.150676 
L 72.13791 -109.409531 
L 72.201209 -109.668386 
L 72.263716 -109.92724 
L 72.32575 -110.186095 
L 72.387623 -110.44495 
L 72.449644 -110.703805 
L 72.512111 -110.962659 
L 72.575313 -111.221514 
L 72.639523 -111.480369 
L 72.704999 -111.739223 
L 72.771983 -111.998078 
L 72.840698 -112.256933 
L 72.911345 -112.515788 
L 72.984106 -112.774642 
L 73.059142 -113.033497 
L 73.13659 -113.292352 
L 73.216569 -113.551207 
L 73.299172 -113.810061 
L 73.384471 -114.068916 
L 73.472518 -114.327771 
L 73.563344 -114.586625 
L 73.656957 -114.84548 
L 73.753348 -115.104335 
L 73.852488 -115.36319 
L 73.954329 -115.622044 
L 74.058807 -115.880899 
L 74.16584 -116.139754 
L 74.275332 -116.398608 
L 74.387172 -116.657463 
L 74.501233 -116.916318 
L 74.617379 -117.175173 
L 74.735459 -117.434027 
L 74.855313 -117.692882 
L 74.97677 -117.951737 
L 84.219833 -117.951737 
L 84.219833 -117.951737 
L 84.34129 -117.692882 
L 84.461144 -117.434027 
L 84.579224 -117.175173 
L 84.69537 -116.916318 
L 84.809431 -116.657463 
L 84.92127 -116.398608 
L 85.030762 -116.139754 
L 85.137796 -115.880899 
L 85.242274 -115.622044 
L 85.344115 -115.36319 
L 85.443255 -115.104335 
L 85.539646 -114.84548 
L 85.633259 -114.586625 
L 85.724085 -114.327771 
L 85.812132 -114.068916 
L 85.897431 -113.810061 
L 85.980034 -113.551207 
L 86.060012 -113.292352 
L 86.137461 -113.033497 
L 86.212497 -112.774642 
L 86.285258 -112.515788 
L 86.355905 -112.256933 
L 86.42462 -111.998078 
L 86.491604 -111.739223 
L 86.55708 -111.480369 
L 86.62129 -111.221514 
L 86.684492 -110.962659 
L 86.746959 -110.703805 
L 86.80898 -110.44495 
L 86.870853 -110.186095 
L 86.932886 -109.92724 
L 86.995394 -109.668386 
L 87.058693 -109.409531 
L 87.1231 -109.150676 
L 87.188928 -108.891822 
L 87.256482 -108.632967 
L 87.326057 -108.374112 
L 87.397932 -108.115257 
L 87.472367 -107.856403 
L 87.549602 -107.597548 
L 87.629846 -107.338693 
L 87.713281 -107.079839 
L 87.800053 -106.820984 
L 87.890272 -106.562129 
L 87.984007 -106.303274 
L 88.081284 -106.04442 
L 88.182084 -105.785565 
L 88.286338 -105.52671 
L 88.39393 -105.267855 
L 88.504692 -105.009001 
L 88.618407 -104.750146 
L 88.734805 -104.491291 
L 88.853564 -104.232437 
L 88.974316 -103.973582 
L 89.096642 -103.714727 
L 89.220077 -103.455872 
L 89.344113 -103.197018 
L 89.468202 -102.938163 
L 89.591759 -102.679308 
L 89.714165 -102.420454 
L 89.834773 -102.161599 
L 89.952914 -101.902744 
L 90.067899 -101.643889 
L 90.179027 -101.385035 
L 90.285587 -101.12618 
L 90.386868 -100.867325 
L 90.482165 -100.608471 
L 90.570778 -100.349616 
L 90.652025 -100.090761 
L 90.725246 -99.831906 
L 90.789805 -99.573052 
L 90.845099 -99.314197 
L 90.890562 -99.055342 
L 90.925668 -98.796487 
L 90.949936 -98.537633 
L 90.962938 -98.278778 
L 90.964294 -98.019923 
L 90.953682 -97.761069 
L 90.930839 -97.502214 
L 90.895561 -97.243359 
L 90.847705 -96.984504 
L 90.787191 -96.72565 
L 90.714003 -96.466795 
L 90.628186 -96.20794 
L 90.529848 -95.949086 
L 90.41916 -95.690231 
L 90.29635 -95.431376 
L 90.161705 -95.172521 
L 90.015567 -94.913667 
L 89.858331 -94.654812 
L 89.690441 -94.395957 
L 89.512389 -94.137102 
L 89.324707 -93.878248 
L 89.127967 -93.619393 
L 88.922776 -93.360538 
L 88.70977 -93.101684 
L 88.489613 -92.842829 
L 88.262988 -92.583974 
L 88.030598 -92.325119 
z
" style="stroke: #999999; stroke-width: 2"/>
    </defs>
    <g clip-path="url(#pa2774236a4)">
     <use xlink:href="#m275df2fe66" x="0" y="255.11811" style="fill: #ffffff; stroke: #999999; stroke-width: 2"/>
    </g>
   </g>
   <g id="PolyCollection_2">
    <defs>
     <path id="m5400b0684c" d="M 161.978076 -49.837187 
L 126.731732 -49.837187 
L 126.438269 -49.961457 
L 126.161095 -50.085726 
L 125.900168 -50.209996 
L 125.65531 -50.334266 
L 125.426211 -50.458535 
L 125.212438 -50.582805 
L 125.01344 -50.707075 
L 124.828559 -50.831344 
L 124.65704 -50.955614 
L 124.498043 -51.079884 
L 124.350659 -51.204153 
L 124.213922 -51.328423 
L 124.086826 -51.452693 
L 123.96834 -51.576963 
L 123.857425 -51.701232 
L 123.753054 -51.825502 
L 123.654221 -51.949772 
L 123.559966 -52.074041 
L 123.469384 -52.198311 
L 123.381644 -52.322581 
L 123.296002 -52.44685 
L 123.211809 -52.57112 
L 123.128531 -52.69539 
L 123.045749 -52.81966 
L 122.963175 -52.943929 
L 122.88065 -53.068199 
L 122.798154 -53.192469 
L 122.715804 -53.316738 
L 122.633854 -53.441008 
L 122.552694 -53.565278 
L 122.472843 -53.689547 
L 122.394944 -53.813817 
L 122.319755 -53.938087 
L 122.248138 -54.062357 
L 122.181047 -54.186626 
L 122.119516 -54.310896 
L 122.064641 -54.435166 
L 122.017567 -54.559435 
L 121.979471 -54.683705 
L 121.951542 -54.807975 
L 121.934967 -54.932244 
L 121.930912 -55.056514 
L 121.940503 -55.180784 
L 121.964812 -55.305053 
L 122.004838 -55.429323 
L 122.061493 -55.553593 
L 122.135588 -55.677863 
L 122.227821 -55.802132 
L 122.338764 -55.926402 
L 122.468852 -56.050672 
L 122.618382 -56.174941 
L 122.787499 -56.299211 
L 122.976199 -56.423481 
L 123.184322 -56.54775 
L 123.411557 -56.67202 
L 123.657441 -56.79629 
L 123.921365 -56.92056 
L 124.202581 -57.044829 
L 124.500206 -57.169099 
L 124.813238 -57.293369 
L 125.140562 -57.417638 
L 125.480967 -57.541908 
L 125.833154 -57.666178 
L 126.195758 -57.790447 
L 126.567354 -57.914717 
L 126.946483 -58.038987 
L 127.331661 -58.163257 
L 127.721396 -58.287526 
L 128.114205 -58.411796 
L 128.508632 -58.536066 
L 128.903257 -58.660335 
L 129.296714 -58.784605 
L 129.687702 -58.908875 
L 130.074998 -59.033144 
L 130.457468 -59.157414 
L 130.834072 -59.281684 
L 131.203878 -59.405953 
L 131.566061 -59.530223 
L 131.919912 -59.654493 
L 132.264839 -59.778763 
L 132.60037 -59.903032 
L 132.926148 -60.027302 
L 133.241933 -60.151572 
L 133.547599 -60.275841 
L 133.843125 -60.400111 
L 134.128592 -60.524381 
L 134.404178 -60.64865 
L 134.670145 -60.77292 
L 134.926833 -60.89719 
L 135.17465 -61.02146 
L 135.414063 -61.145729 
L 135.645587 -61.269999 
L 135.869773 -61.394269 
L 136.087199 -61.518538 
L 136.298464 -61.642808 
L 136.504168 -61.767078 
L 136.704912 -61.891347 
L 136.901286 -62.015617 
L 137.093859 -62.139887 
L 151.61595 -62.139887 
L 151.61595 -62.139887 
L 151.808523 -62.015617 
L 152.004897 -61.891347 
L 152.205641 -61.767078 
L 152.411345 -61.642808 
L 152.622609 -61.518538 
L 152.840036 -61.394269 
L 153.064222 -61.269999 
L 153.295745 -61.145729 
L 153.535159 -61.02146 
L 153.782976 -60.89719 
L 154.039664 -60.77292 
L 154.30563 -60.64865 
L 154.581216 -60.524381 
L 154.866684 -60.400111 
L 155.16221 -60.275841 
L 155.467876 -60.151572 
L 155.783661 -60.027302 
L 156.109439 -59.903032 
L 156.444969 -59.778763 
L 156.789897 -59.654493 
L 157.143748 -59.530223 
L 157.505931 -59.405953 
L 157.875736 -59.281684 
L 158.252341 -59.157414 
L 158.634811 -59.033144 
L 159.022107 -58.908875 
L 159.413095 -58.784605 
L 159.806552 -58.660335 
L 160.201176 -58.536066 
L 160.595603 -58.411796 
L 160.988413 -58.287526 
L 161.378148 -58.163257 
L 161.763325 -58.038987 
L 162.142454 -57.914717 
L 162.514051 -57.790447 
L 162.876654 -57.666178 
L 163.228842 -57.541908 
L 163.569247 -57.417638 
L 163.896571 -57.293369 
L 164.209603 -57.169099 
L 164.507228 -57.044829 
L 164.788443 -56.92056 
L 165.052367 -56.79629 
L 165.298251 -56.67202 
L 165.525486 -56.54775 
L 165.73361 -56.423481 
L 165.92231 -56.299211 
L 166.091427 -56.174941 
L 166.240957 -56.050672 
L 166.371045 -55.926402 
L 166.481987 -55.802132 
L 166.57422 -55.677863 
L 166.648316 -55.553593 
L 166.704971 -55.429323 
L 166.744997 -55.305053 
L 166.769306 -55.180784 
L 166.778897 -55.056514 
L 166.774842 -54.932244 
L 166.758267 -54.807975 
L 166.730338 -54.683705 
L 166.692242 -54.559435 
L 166.645168 -54.435166 
L 166.590293 -54.310896 
L 166.528762 -54.186626 
L 166.461671 -54.062357 
L 166.390054 -53.938087 
L 166.314865 -53.813817 
L 166.236966 -53.689547 
L 166.157115 -53.565278 
L 166.075954 -53.441008 
L 165.994004 -53.316738 
L 165.911654 -53.192469 
L 165.829158 -53.068199 
L 165.746634 -52.943929 
L 165.664059 -52.81966 
L 165.581278 -52.69539 
L 165.498 -52.57112 
L 165.413807 -52.44685 
L 165.328164 -52.322581 
L 165.240425 -52.198311 
L 165.149843 -52.074041 
L 165.055588 -51.949772 
L 164.956755 -51.825502 
L 164.852383 -51.701232 
L 164.741469 -51.576963 
L 164.622983 -51.452693 
L 164.495886 -51.328423 
L 164.359149 -51.204153 
L 164.211765 -51.079884 
L 164.052769 -50.955614 
L 163.881249 -50.831344 
L 163.696368 -50.707075 
L 163.497371 -50.582805 
L 163.283598 -50.458535 
L 163.054499 -50.334266 
L 162.809641 -50.209996 
L 162.548714 -50.085726 
L 162.27154 -49.961457 
L 161.978076 -49.837187 
z
" style="stroke: #999999; stroke-width: 2"/>
    </defs>
    <g clip-path="url(#pa2774236a4)">
     <use xlink:href="#m5400b0684c" x="0" y="255.11811" style="fill: #ffffff; stroke: #999999; stroke-width: 2"/>
    </g>
   </g>
   <g id="PolyCollection_3">
    <defs>
     <path id="m1008661ee1" d="M 210.885114 -70.740942 
L 207.3379 -70.740942 
L 207.287701 -71.304537 
L 207.236344 -71.868132 
L 207.183534 -72.431727 
L 207.128962 -72.995322 
L 207.072303 -73.558917 
L 207.013224 -74.122512 
L 206.95139 -74.686107 
L 206.886468 -75.249702 
L 206.818136 -75.813297 
L 206.746086 -76.376892 
L 206.670032 -76.940487 
L 206.589717 -77.504082 
L 206.504918 -78.067677 
L 206.415452 -78.631272 
L 206.321181 -79.194867 
L 206.222019 -79.758462 
L 206.117933 -80.322057 
L 206.008949 -80.885652 
L 205.895154 -81.449247 
L 205.776698 -82.012842 
L 205.653794 -82.576437 
L 205.526719 -83.140032 
L 205.395811 -83.703627 
L 205.261472 -84.267222 
L 205.124159 -84.830817 
L 204.984383 -85.394412 
L 204.842704 -85.958007 
L 204.699725 -86.521602 
L 204.556087 -87.085197 
L 204.412461 -87.648792 
L 204.269541 -88.212387 
L 204.128037 -88.775982 
L 203.988666 -89.339577 
L 203.852145 -89.903172 
L 203.719185 -90.466767 
L 203.590478 -91.030362 
L 203.466696 -91.593957 
L 203.348482 -92.157552 
L 203.23644 -92.721147 
L 203.131137 -93.284742 
L 203.033089 -93.848337 
L 202.942763 -94.411932 
L 202.860574 -94.975527 
L 202.786877 -95.539122 
L 202.721969 -96.102717 
L 202.666089 -96.666312 
L 202.619415 -97.229907 
L 202.582063 -97.793502 
L 202.554095 -98.357097 
L 202.535513 -98.920692 
L 202.526267 -99.484287 
L 202.526252 -100.047882 
L 202.535317 -100.611477 
L 202.553266 -101.175072 
L 202.57986 -101.738667 
L 202.614823 -102.302262 
L 202.657845 -102.865857 
L 202.708585 -103.429452 
L 202.766678 -103.993047 
L 202.831735 -104.556641 
L 202.903348 -105.120236 
L 202.981096 -105.683831 
L 203.064544 -106.247426 
L 203.153249 -106.811021 
L 203.246764 -107.374616 
L 203.344638 -107.938211 
L 203.446422 -108.501806 
L 203.551668 -109.065401 
L 203.659934 -109.628996 
L 203.770788 -110.192591 
L 203.883805 -110.756186 
L 203.998574 -111.319781 
L 204.114697 -111.883376 
L 204.231795 -112.446971 
L 204.349504 -113.010566 
L 204.467481 -113.574161 
L 204.585404 -114.137756 
L 204.702974 -114.701351 
L 204.819916 -115.264946 
L 204.93598 -115.828541 
L 205.050941 -116.392136 
L 205.164601 -116.955731 
L 205.276788 -117.519326 
L 205.387357 -118.082921 
L 205.49619 -118.646516 
L 205.603192 -119.210111 
L 205.708296 -119.773706 
L 205.811457 -120.337301 
L 205.912652 -120.900896 
L 206.011879 -121.464491 
L 206.109155 -122.028086 
L 206.204511 -122.591681 
L 206.297993 -123.155276 
L 206.38966 -123.718871 
L 206.479576 -124.282466 
L 206.567815 -124.846061 
L 206.654451 -125.409656 
L 206.739562 -125.973251 
L 206.823222 -126.536846 
L 211.399793 -126.536846 
L 211.399793 -126.536846 
L 211.483453 -125.973251 
L 211.568563 -125.409656 
L 211.6552 -124.846061 
L 211.743439 -124.282466 
L 211.833355 -123.718871 
L 211.925022 -123.155276 
L 212.018504 -122.591681 
L 212.11386 -122.028086 
L 212.211135 -121.464491 
L 212.310363 -120.900896 
L 212.411558 -120.337301 
L 212.514719 -119.773706 
L 212.619823 -119.210111 
L 212.726825 -118.646516 
L 212.835657 -118.082921 
L 212.946226 -117.519326 
L 213.058413 -116.955731 
L 213.172073 -116.392136 
L 213.287034 -115.828541 
L 213.403098 -115.264946 
L 213.520041 -114.701351 
L 213.637611 -114.137756 
L 213.755534 -113.574161 
L 213.873511 -113.010566 
L 213.99122 -112.446971 
L 214.108317 -111.883376 
L 214.224441 -111.319781 
L 214.33921 -110.756186 
L 214.452227 -110.192591 
L 214.56308 -109.628996 
L 214.671347 -109.065401 
L 214.776593 -108.501806 
L 214.878377 -107.938211 
L 214.976251 -107.374616 
L 215.069766 -106.811021 
L 215.158471 -106.247426 
L 215.241919 -105.683831 
L 215.319666 -105.120236 
L 215.39128 -104.556641 
L 215.456336 -103.993047 
L 215.514429 -103.429452 
L 215.56517 -102.865857 
L 215.608191 -102.302262 
L 215.643154 -101.738667 
L 215.669748 -101.175072 
L 215.687697 -100.611477 
L 215.696763 -100.047882 
L 215.696748 -99.484287 
L 215.687501 -98.920692 
L 215.668919 -98.357097 
L 215.640951 -97.793502 
L 215.6036 -97.229907 
L 215.556925 -96.666312 
L 215.501045 -96.102717 
L 215.436138 -95.539122 
L 215.362441 -94.975527 
L 215.280251 -94.411932 
L 215.189926 -93.848337 
L 215.091878 -93.284742 
L 214.986574 -92.721147 
L 214.874533 -92.157552 
L 214.756318 -91.593957 
L 214.632537 -91.030362 
L 214.50383 -90.466767 
L 214.370869 -89.903172 
L 214.234348 -89.339577 
L 214.094977 -88.775982 
L 213.953473 -88.212387 
L 213.810553 -87.648792 
L 213.666927 -87.085197 
L 213.52329 -86.521602 
L 213.380311 -85.958007 
L 213.238632 -85.394412 
L 213.098855 -84.830817 
L 212.961542 -84.267222 
L 212.827203 -83.703627 
L 212.696296 -83.140032 
L 212.569221 -82.576437 
L 212.446316 -82.012842 
L 212.32786 -81.449247 
L 212.214065 -80.885652 
L 212.105082 -80.322057 
L 212.000996 -79.758462 
L 211.901833 -79.194867 
L 211.807563 -78.631272 
L 211.718096 -78.067677 
L 211.633297 -77.504082 
L 211.552983 -76.940487 
L 211.476929 -76.376892 
L 211.404878 -75.813297 
L 211.336546 -75.249702 
L 211.271625 -74.686107 
L 211.20979 -74.122512 
L 211.150711 -73.558917 
L 211.094052 -72.995322 
L 211.03948 -72.431727 
L 210.986671 -71.868132 
L 210.935313 -71.304537 
L 210.885114 -70.740942 
z
" style="stroke: #999999; stroke-width: 2"/>
    </defs>
    <g clip-path="url(#pa2774236a4)">
     <use xlink:href="#m1008661ee1" x="0" y="255.11811" style="fill: #ffffff; stroke: #999999; stroke-width: 2"/>
    </g>
   </g>
   <g id="PolyCollection_4">
    <defs>
     <path id="ma9e75f4b53" d="M 275.103686 -145.188423 
L 272.632535 -145.188423 
L 272.585414 -145.966125 
L 272.536825 -146.743827 
L 272.48667 -147.521529 
L 272.434855 -148.299231 
L 272.381291 -149.076933 
L 272.325897 -149.854635 
L 272.268604 -150.632337 
L 272.209355 -151.410039 
L 272.148109 -152.187741 
L 272.084846 -152.965443 
L 272.019562 -153.743145 
L 271.952281 -154.520847 
L 271.883046 -155.298549 
L 271.81193 -156.076251 
L 271.739031 -156.853953 
L 271.664475 -157.631655 
L 271.588415 -158.409357 
L 271.511033 -159.187059 
L 271.432536 -159.964761 
L 271.353157 -160.742463 
L 271.273153 -161.520165 
L 271.192803 -162.297867 
L 271.112403 -163.075569 
L 271.032267 -163.853271 
L 270.952722 -164.630974 
L 270.874101 -165.408676 
L 270.796746 -166.186378 
L 270.720996 -166.96408 
L 270.647191 -167.741782 
L 270.575662 -168.519484 
L 270.506727 -169.297186 
L 270.44069 -170.074888 
L 270.377838 -170.85259 
L 270.318432 -171.630292 
L 270.262708 -172.407994 
L 270.210874 -173.185696 
L 270.163106 -173.963398 
L 270.119548 -174.7411 
L 270.080308 -175.518802 
L 270.045459 -176.296504 
L 270.015039 -177.074206 
L 269.989049 -177.851908 
L 269.967455 -178.62961 
L 269.950191 -179.407312 
L 269.937156 -180.185014 
L 269.928221 -180.962716 
L 269.923228 -181.740418 
L 269.921994 -182.51812 
L 269.924316 -183.295822 
L 269.92997 -184.073524 
L 269.938719 -184.851226 
L 269.950314 -185.628928 
L 269.964496 -186.40663 
L 269.981006 -187.184332 
L 269.999581 -187.962034 
L 270.019961 -188.739736 
L 270.041894 -189.517438 
L 270.065136 -190.29514 
L 270.089452 -191.072842 
L 270.114627 -191.850544 
L 270.140458 -192.628246 
L 270.166761 -193.405948 
L 270.193375 -194.18365 
L 270.220157 -194.961353 
L 270.246988 -195.739055 
L 270.273771 -196.516757 
L 270.300433 -197.294459 
L 270.326923 -198.072161 
L 270.353214 -198.849863 
L 270.379301 -199.627565 
L 270.4052 -200.405267 
L 270.430948 -201.182969 
L 270.4566 -201.960671 
L 270.48223 -202.738373 
L 270.507928 -203.516075 
L 270.533797 -204.293777 
L 270.559955 -205.071479 
L 270.586529 -205.849181 
L 270.613654 -206.626883 
L 270.641471 -207.404585 
L 270.670128 -208.182287 
L 270.699772 -208.959989 
L 270.730551 -209.737691 
L 270.76261 -210.515393 
L 270.796091 -211.293095 
L 270.831127 -212.070797 
L 270.867844 -212.848499 
L 270.906357 -213.626201 
L 270.94677 -214.403903 
L 270.98917 -215.181605 
L 271.03363 -215.959307 
L 271.080208 -216.737009 
L 271.128942 -217.514711 
L 271.17985 -218.292413 
L 271.232934 -219.070115 
L 271.288172 -219.847817 
L 271.345525 -220.625519 
L 271.404931 -221.403221 
L 271.466311 -222.180923 
L 276.269909 -222.180923 
L 276.269909 -222.180923 
L 276.331289 -221.403221 
L 276.390696 -220.625519 
L 276.448048 -219.847817 
L 276.503287 -219.070115 
L 276.55637 -218.292413 
L 276.607279 -217.514711 
L 276.656012 -216.737009 
L 276.70259 -215.959307 
L 276.747051 -215.181605 
L 276.789451 -214.403903 
L 276.829863 -213.626201 
L 276.868377 -212.848499 
L 276.905094 -212.070797 
L 276.94013 -211.293095 
L 276.97361 -210.515393 
L 277.00567 -209.737691 
L 277.036448 -208.959989 
L 277.066092 -208.182287 
L 277.094749 -207.404585 
L 277.122567 -206.626883 
L 277.149691 -205.849181 
L 277.176265 -205.071479 
L 277.202423 -204.293777 
L 277.228293 -203.516075 
L 277.253991 -202.738373 
L 277.279621 -201.960671 
L 277.305273 -201.182969 
L 277.33102 -200.405267 
L 277.356919 -199.627565 
L 277.383006 -198.849863 
L 277.409297 -198.072161 
L 277.435788 -197.294459 
L 277.462449 -196.516757 
L 277.489233 -195.739055 
L 277.516063 -194.961353 
L 277.542845 -194.18365 
L 277.569459 -193.405948 
L 277.595763 -192.628246 
L 277.621593 -191.850544 
L 277.646768 -191.072842 
L 277.671085 -190.29514 
L 277.694326 -189.517438 
L 277.716259 -188.739736 
L 277.736639 -187.962034 
L 277.755214 -187.184332 
L 277.771724 -186.40663 
L 277.785907 -185.628928 
L 277.797501 -184.851226 
L 277.80625 -184.073524 
L 277.811905 -183.295822 
L 277.814226 -182.51812 
L 277.812993 -181.740418 
L 277.808 -180.962716 
L 277.799064 -180.185014 
L 277.786029 -179.407312 
L 277.768765 -178.62961 
L 277.747171 -177.851908 
L 277.721181 -177.074206 
L 277.690761 -176.296504 
L 277.655912 -175.518802 
L 277.616672 -174.7411 
L 277.573114 -173.963398 
L 277.525347 -173.185696 
L 277.473513 -172.407994 
L 277.417789 -171.630292 
L 277.358383 -170.85259 
L 277.29553 -170.074888 
L 277.229494 -169.297186 
L 277.160559 -168.519484 
L 277.089029 -167.741782 
L 277.015224 -166.96408 
L 276.939475 -166.186378 
L 276.862119 -165.408676 
L 276.783499 -164.630974 
L 276.703953 -163.853271 
L 276.623817 -163.075569 
L 276.543418 -162.297867 
L 276.463067 -161.520165 
L 276.383063 -160.742463 
L 276.303684 -159.964761 
L 276.225187 -159.187059 
L 276.147805 -158.409357 
L 276.071745 -157.631655 
L 275.997189 -156.853953 
L 275.92429 -156.076251 
L 275.853174 -155.298549 
L 275.78394 -154.520847 
L 275.716658 -153.743145 
L 275.651375 -152.965443 
L 275.588111 -152.187741 
L 275.526866 -151.410039 
L 275.467617 -150.632337 
L 275.410324 -149.854635 
L 275.35493 -149.076933 
L 275.301366 -148.299231 
L 275.24955 -147.521529 
L 275.199395 -146.743827 
L 275.150806 -145.966125 
L 275.103686 -145.188423 
z
" style="stroke: #999999; stroke-width: 2"/>
    </defs>
    <g clip-path="url(#pa2774236a4)">
     <use xlink:href="#ma9e75f4b53" x="0" y="255.11811" style="fill: #ffffff; stroke: #999999; stroke-width: 2"/>
    </g>
   </g>
   <g id="PolyCollection_5">
    <defs>
     <path id="ma7f43882d5" d="M 350.244973 -71.72726 
L 327.004454 -71.72726 
L 326.788698 -71.894 
L 326.5798 -72.060739 
L 326.378036 -72.227479 
L 326.183651 -72.394219 
L 325.996859 -72.560958 
L 325.817841 -72.727698 
L 325.64675 -72.894437 
L 325.483706 -73.061177 
L 325.328797 -73.227916 
L 325.182081 -73.394656 
L 325.04359 -73.561396 
L 324.913322 -73.728135 
L 324.791251 -73.894875 
L 324.677327 -74.061614 
L 324.571472 -74.228354 
L 324.473587 -74.395093 
L 324.383554 -74.561833 
L 324.301234 -74.728573 
L 324.226474 -74.895312 
L 324.159103 -75.062052 
L 324.098941 -75.228791 
L 324.045796 -75.395531 
L 323.999467 -75.56227 
L 323.959749 -75.72901 
L 323.92643 -75.89575 
L 323.899298 -76.062489 
L 323.878139 -76.229229 
L 323.862742 -76.395968 
L 323.852896 -76.562708 
L 323.848396 -76.729448 
L 323.849044 -76.896187 
L 323.854645 -77.062927 
L 323.865014 -77.229666 
L 323.879974 -77.396406 
L 323.899357 -77.563145 
L 323.923004 -77.729885 
L 323.950767 -77.896625 
L 323.982508 -78.063364 
L 324.018098 -78.230104 
L 324.057419 -78.396843 
L 324.100361 -78.563583 
L 324.146827 -78.730322 
L 324.196725 -78.897062 
L 324.249974 -79.063802 
L 324.306501 -79.230541 
L 324.366237 -79.397281 
L 324.429124 -79.56402 
L 324.495106 -79.73076 
L 324.564134 -79.897499 
L 324.636162 -80.064239 
L 324.711148 -80.230979 
L 324.789053 -80.397718 
L 324.86984 -80.564458 
L 324.953474 -80.731197 
L 325.039918 -80.897937 
L 325.129138 -81.064676 
L 325.2211 -81.231416 
L 325.315767 -81.398156 
L 325.413104 -81.564895 
L 325.513074 -81.731635 
L 325.615637 -81.898374 
L 325.720755 -82.065114 
L 325.828385 -82.231854 
L 325.938486 -82.398593 
L 326.051013 -82.565333 
L 326.165924 -82.732072 
L 326.283172 -82.898812 
L 326.402711 -83.065551 
L 326.524496 -83.232291 
L 326.648482 -83.399031 
L 326.774622 -83.56577 
L 326.902872 -83.73251 
L 327.033188 -83.899249 
L 327.165528 -84.065989 
L 327.29985 -84.232728 
L 327.436115 -84.399468 
L 327.574285 -84.566208 
L 327.714325 -84.732947 
L 327.856199 -84.899687 
L 327.999877 -85.066426 
L 328.145326 -85.233166 
L 328.292518 -85.399905 
L 328.441425 -85.566645 
L 328.59202 -85.733385 
L 328.744276 -85.900124 
L 328.898167 -86.066864 
L 329.053665 -86.233603 
L 329.210744 -86.400343 
L 329.369373 -86.567082 
L 329.529521 -86.733822 
L 329.691152 -86.900562 
L 329.854231 -87.067301 
L 330.018713 -87.234041 
L 330.184552 -87.40078 
L 330.351696 -87.56752 
L 330.520087 -87.734259 
L 330.689659 -87.900999 
L 330.860341 -88.067739 
L 331.032053 -88.234478 
L 346.217373 -88.234478 
L 346.217373 -88.234478 
L 346.389086 -88.067739 
L 346.559767 -87.900999 
L 346.72934 -87.734259 
L 346.89773 -87.56752 
L 347.064874 -87.40078 
L 347.230714 -87.234041 
L 347.395196 -87.067301 
L 347.558274 -86.900562 
L 347.719906 -86.733822 
L 347.880053 -86.567082 
L 348.038682 -86.400343 
L 348.195761 -86.233603 
L 348.35126 -86.066864 
L 348.50515 -85.900124 
L 348.657406 -85.733385 
L 348.808001 -85.566645 
L 348.956908 -85.399905 
L 349.1041 -85.233166 
L 349.24955 -85.066426 
L 349.393227 -84.899687 
L 349.535102 -84.732947 
L 349.675141 -84.566208 
L 349.813311 -84.399468 
L 349.949576 -84.232728 
L 350.083899 -84.065989 
L 350.216238 -83.899249 
L 350.346554 -83.73251 
L 350.474804 -83.56577 
L 350.600944 -83.399031 
L 350.72493 -83.232291 
L 350.846715 -83.065551 
L 350.966255 -82.898812 
L 351.083502 -82.732072 
L 351.198413 -82.565333 
L 351.310941 -82.398593 
L 351.421041 -82.231854 
L 351.528672 -82.065114 
L 351.633789 -81.898374 
L 351.736353 -81.731635 
L 351.836322 -81.564895 
L 351.933659 -81.398156 
L 352.028327 -81.231416 
L 352.120288 -81.064676 
L 352.209509 -80.897937 
L 352.295953 -80.731197 
L 352.379586 -80.564458 
L 352.460373 -80.397718 
L 352.538278 -80.230979 
L 352.613265 -80.064239 
L 352.685293 -79.897499 
L 352.754321 -79.73076 
L 352.820303 -79.56402 
L 352.883189 -79.397281 
L 352.942926 -79.230541 
L 352.999452 -79.063802 
L 353.052701 -78.897062 
L 353.1026 -78.730322 
L 353.149065 -78.563583 
L 353.192008 -78.396843 
L 353.231328 -78.230104 
L 353.266918 -78.063364 
L 353.298659 -77.896625 
L 353.326422 -77.729885 
L 353.35007 -77.563145 
L 353.369453 -77.396406 
L 353.384413 -77.229666 
L 353.394782 -77.062927 
L 353.400383 -76.896187 
L 353.40103 -76.729448 
L 353.396531 -76.562708 
L 353.386685 -76.395968 
L 353.371287 -76.229229 
L 353.350129 -76.062489 
L 353.322996 -75.89575 
L 353.289678 -75.72901 
L 353.249959 -75.56227 
L 353.20363 -75.395531 
L 353.150485 -75.228791 
L 353.090323 -75.062052 
L 353.022952 -74.895312 
L 352.948192 -74.728573 
L 352.865872 -74.561833 
L 352.775839 -74.395093 
L 352.677955 -74.228354 
L 352.572099 -74.061614 
L 352.458175 -73.894875 
L 352.336105 -73.728135 
L 352.205837 -73.561396 
L 352.067345 -73.394656 
L 351.92063 -73.227916 
L 351.765721 -73.061177 
L 351.602676 -72.894437 
L 351.431585 -72.727698 
L 351.252568 -72.560958 
L 351.065775 -72.394219 
L 350.87139 -72.227479 
L 350.669626 -72.060739 
L 350.460728 -71.894 
L 350.244973 -71.72726 
z
" style="stroke: #999999; stroke-width: 2"/>
    </defs>
    <g clip-path="url(#pa2774236a4)">
     <use xlink:href="#ma7f43882d5" x="0" y="255.11811" style="fill: #ffffff; stroke: #999999; stroke-width: 2"/>
    </g>
   </g>
   <g id="PolyCollection_6">
    <defs>
     <path id="m103a809095" d="M 407.203612 -59.22397 
L 399.55902 -59.22397 
L 399.453977 -59.732408 
L 399.351014 -60.240845 
L 399.250429 -60.749282 
L 399.152515 -61.25772 
L 399.057561 -61.766157 
L 398.965849 -62.274595 
L 398.877653 -62.783032 
L 398.793236 -63.29147 
L 398.71285 -63.799907 
L 398.636733 -64.308345 
L 398.565107 -64.816782 
L 398.49818 -65.32522 
L 398.436138 -65.833657 
L 398.379149 -66.342095 
L 398.32736 -66.850532 
L 398.280897 -67.358969 
L 398.239858 -67.867407 
L 398.204322 -68.375844 
L 398.17434 -68.884282 
L 398.149938 -69.392719 
L 398.131115 -69.901157 
L 398.117844 -70.409594 
L 398.110072 -70.918032 
L 398.107719 -71.426469 
L 398.110679 -71.934907 
L 398.118819 -72.443344 
L 398.131983 -72.951782 
L 398.14999 -73.460219 
L 398.172635 -73.968656 
L 398.199694 -74.477094 
L 398.230918 -74.985531 
L 398.266045 -75.493969 
L 398.30479 -76.002406 
L 398.346857 -76.510844 
L 398.391935 -77.019281 
L 398.439703 -77.527719 
L 398.489829 -78.036156 
L 398.541978 -78.544594 
L 398.595807 -79.053031 
L 398.650974 -79.561468 
L 398.707135 -80.069906 
L 398.763952 -80.578343 
L 398.82109 -81.086781 
L 398.878222 -81.595218 
L 398.935033 -82.103656 
L 398.991217 -82.612093 
L 399.046486 -83.120531 
L 399.100564 -83.628968 
L 399.153196 -84.137406 
L 399.204148 -84.645843 
L 399.253204 -85.154281 
L 399.300172 -85.662718 
L 399.344887 -86.171155 
L 399.387204 -86.679593 
L 399.427006 -87.18803 
L 399.464204 -87.696468 
L 399.498734 -88.204905 
L 399.530557 -88.713343 
L 399.559665 -89.22178 
L 399.586072 -89.730218 
L 399.609822 -90.238655 
L 399.630981 -90.747093 
L 399.649642 -91.25553 
L 399.665919 -91.763968 
L 399.67995 -92.272405 
L 399.691892 -92.780842 
L 399.701923 -93.28928 
L 399.710236 -93.797717 
L 399.717042 -94.306155 
L 399.722563 -94.814592 
L 399.727036 -95.32303 
L 399.730703 -95.831467 
L 399.733817 -96.339905 
L 399.736635 -96.848342 
L 399.739417 -97.35678 
L 399.742424 -97.865217 
L 399.745913 -98.373654 
L 399.750143 -98.882092 
L 399.755362 -99.390529 
L 399.761814 -99.898967 
L 399.769731 -100.407404 
L 399.779337 -100.915842 
L 399.79084 -101.424279 
L 399.804434 -101.932717 
L 399.8203 -102.441154 
L 399.838599 -102.949592 
L 399.859474 -103.458029 
L 399.883051 -103.966467 
L 399.909435 -104.474904 
L 399.938711 -104.983341 
L 399.970942 -105.491779 
L 400.006172 -106.000216 
L 400.044423 -106.508654 
L 400.085696 -107.017091 
L 400.129973 -107.525529 
L 400.177213 -108.033966 
L 400.227358 -108.542404 
L 400.280332 -109.050841 
L 400.336038 -109.559279 
L 406.426594 -109.559279 
L 406.426594 -109.559279 
L 406.4823 -109.050841 
L 406.535274 -108.542404 
L 406.585419 -108.033966 
L 406.63266 -107.525529 
L 406.676936 -107.017091 
L 406.718209 -106.508654 
L 406.75646 -106.000216 
L 406.79169 -105.491779 
L 406.823921 -104.983341 
L 406.853197 -104.474904 
L 406.879581 -103.966467 
L 406.903158 -103.458029 
L 406.924034 -102.949592 
L 406.942332 -102.441154 
L 406.958198 -101.932717 
L 406.971793 -101.424279 
L 406.983295 -100.915842 
L 406.992901 -100.407404 
L 407.000818 -99.898967 
L 407.00727 -99.390529 
L 407.012489 -98.882092 
L 407.016719 -98.373654 
L 407.020209 -97.865217 
L 407.023215 -97.35678 
L 407.025997 -96.848342 
L 407.028815 -96.339905 
L 407.031929 -95.831467 
L 407.035597 -95.32303 
L 407.040069 -94.814592 
L 407.04559 -94.306155 
L 407.052396 -93.797717 
L 407.060709 -93.28928 
L 407.07074 -92.780842 
L 407.082682 -92.272405 
L 407.096713 -91.763968 
L 407.11299 -91.25553 
L 407.131651 -90.747093 
L 407.15281 -90.238655 
L 407.17656 -89.730218 
L 407.202967 -89.22178 
L 407.232075 -88.713343 
L 407.263898 -88.204905 
L 407.298428 -87.696468 
L 407.335626 -87.18803 
L 407.375429 -86.679593 
L 407.417746 -86.171155 
L 407.46246 -85.662718 
L 407.509429 -85.154281 
L 407.558484 -84.645843 
L 407.609436 -84.137406 
L 407.662068 -83.628968 
L 407.716147 -83.120531 
L 407.771415 -82.612093 
L 407.827599 -82.103656 
L 407.88441 -81.595218 
L 407.941542 -81.086781 
L 407.99868 -80.578343 
L 408.055497 -80.069906 
L 408.111658 -79.561468 
L 408.166825 -79.053031 
L 408.220654 -78.544594 
L 408.272803 -78.036156 
L 408.322929 -77.527719 
L 408.370697 -77.019281 
L 408.415775 -76.510844 
L 408.457842 -76.002406 
L 408.496588 -75.493969 
L 408.531714 -74.985531 
L 408.562939 -74.477094 
L 408.589997 -73.968656 
L 408.612642 -73.460219 
L 408.630649 -72.951782 
L 408.643813 -72.443344 
L 408.651954 -71.934907 
L 408.654913 -71.426469 
L 408.65256 -70.918032 
L 408.644788 -70.409594 
L 408.631517 -69.901157 
L 408.612694 -69.392719 
L 408.588292 -68.884282 
L 408.55831 -68.375844 
L 408.522774 -67.867407 
L 408.481736 -67.358969 
L 408.435272 -66.850532 
L 408.383483 -66.342095 
L 408.326494 -65.833657 
L 408.264452 -65.32522 
L 408.197525 -64.816782 
L 408.125899 -64.308345 
L 408.049782 -63.799907 
L 407.969396 -63.29147 
L 407.884979 -62.783032 
L 407.796783 -62.274595 
L 407.705071 -61.766157 
L 407.610117 -61.25772 
L 407.512203 -60.749282 
L 407.411618 -60.240845 
L 407.308655 -59.732408 
L 407.203612 -59.22397 
z
" style="stroke: #999999; stroke-width: 2"/>
    </defs>
    <g clip-path="url(#pa2774236a4)">
     <use xlink:href="#m103a809095" x="0" y="255.11811" style="fill: #ffffff; stroke: #999999; stroke-width: 2"/>
    </g>
   </g>
   <g id="PolyCollection_7">
    <defs>
     <path id="m7e6d9d3be6" d="M 488.599894 -72.1046 
L 447.675944 -72.1046 
L 447.377628 -72.185481 
L 447.094373 -72.266362 
L 446.826746 -72.347243 
L 446.575262 -72.428125 
L 446.340381 -72.509006 
L 446.122506 -72.589887 
L 445.921975 -72.670768 
L 445.739066 -72.751649 
L 445.57399 -72.832531 
L 445.426887 -72.913412 
L 445.297831 -72.994293 
L 445.186821 -73.075174 
L 445.093786 -73.156055 
L 445.01858 -73.236937 
L 444.960983 -73.317818 
L 444.920701 -73.398699 
L 444.897367 -73.47958 
L 444.89054 -73.560462 
L 444.899707 -73.641343 
L 444.924285 -73.722224 
L 444.96362 -73.803105 
L 445.016994 -73.883986 
L 445.083621 -73.964868 
L 445.162658 -74.045749 
L 445.2532 -74.12663 
L 445.354291 -74.207511 
L 445.464923 -74.288392 
L 445.584042 -74.369274 
L 445.710554 -74.450155 
L 445.843329 -74.531036 
L 445.981205 -74.611917 
L 446.122996 -74.692798 
L 446.267499 -74.77368 
L 446.413494 -74.854561 
L 446.559757 -74.935442 
L 446.705064 -75.016323 
L 446.848196 -75.097205 
L 446.98795 -75.178086 
L 447.12314 -75.258967 
L 447.25261 -75.339848 
L 447.375234 -75.420729 
L 447.48993 -75.501611 
L 447.595662 -75.582492 
L 447.691446 -75.663373 
L 447.77636 -75.744254 
L 447.849549 -75.825135 
L 447.910226 -75.906017 
L 447.957685 -75.986898 
L 447.991301 -76.067779 
L 448.010536 -76.14866 
L 448.014946 -76.229541 
L 448.00418 -76.310423 
L 447.977986 -76.391304 
L 447.936215 -76.472185 
L 447.87882 -76.553066 
L 447.805861 -76.633948 
L 447.717504 -76.714829 
L 447.614021 -76.79571 
L 447.495793 -76.876591 
L 447.363302 -76.957472 
L 447.217138 -77.038354 
L 447.057992 -77.119235 
L 446.88665 -77.200116 
L 446.703998 -77.280997 
L 446.51101 -77.361878 
L 446.308746 -77.44276 
L 446.098347 -77.523641 
L 445.881027 -77.604522 
L 445.658069 -77.685403 
L 445.430816 -77.766285 
L 445.200665 -77.847166 
L 444.969057 -77.928047 
L 444.737471 -78.008928 
L 444.507412 -78.089809 
L 444.280408 -78.170691 
L 444.057996 -78.251572 
L 443.841713 -78.332453 
L 443.63309 -78.413334 
L 443.43364 -78.494215 
L 443.244853 -78.575097 
L 443.068181 -78.655978 
L 442.905033 -78.736859 
L 442.756768 -78.81774 
L 442.624684 -78.898621 
L 442.51001 -78.979503 
L 442.413904 -79.060384 
L 442.337438 -79.141265 
L 442.2816 -79.222146 
L 442.247281 -79.303028 
L 442.235278 -79.383909 
L 442.246281 -79.46479 
L 442.280877 -79.545671 
L 442.339543 -79.626552 
L 442.422644 -79.707434 
L 442.530433 -79.788315 
L 442.66305 -79.869196 
L 442.82052 -79.950077 
L 443.002758 -80.030958 
L 443.209566 -80.11184 
L 493.066272 -80.11184 
L 493.066272 -80.11184 
L 493.27308 -80.030958 
L 493.455318 -79.950077 
L 493.612788 -79.869196 
L 493.745405 -79.788315 
L 493.853194 -79.707434 
L 493.936295 -79.626552 
L 493.994961 -79.545671 
L 494.029557 -79.46479 
L 494.04056 -79.383909 
L 494.028557 -79.303028 
L 493.994238 -79.222146 
L 493.9384 -79.141265 
L 493.861934 -79.060384 
L 493.765828 -78.979503 
L 493.651154 -78.898621 
L 493.51907 -78.81774 
L 493.370805 -78.736859 
L 493.207657 -78.655978 
L 493.030985 -78.575097 
L 492.842198 -78.494215 
L 492.642748 -78.413334 
L 492.434125 -78.332453 
L 492.217842 -78.251572 
L 491.99543 -78.170691 
L 491.768426 -78.089809 
L 491.538367 -78.008928 
L 491.306781 -77.928047 
L 491.075173 -77.847166 
L 490.845022 -77.766285 
L 490.617769 -77.685403 
L 490.394811 -77.604522 
L 490.177491 -77.523641 
L 489.967092 -77.44276 
L 489.764828 -77.361878 
L 489.57184 -77.280997 
L 489.389188 -77.200116 
L 489.217846 -77.119235 
L 489.0587 -77.038354 
L 488.912536 -76.957472 
L 488.780045 -76.876591 
L 488.661817 -76.79571 
L 488.558334 -76.714829 
L 488.469977 -76.633948 
L 488.397018 -76.553066 
L 488.339623 -76.472185 
L 488.297852 -76.391304 
L 488.271658 -76.310423 
L 488.260892 -76.229541 
L 488.265302 -76.14866 
L 488.284537 -76.067779 
L 488.318153 -75.986898 
L 488.365612 -75.906017 
L 488.426289 -75.825135 
L 488.499478 -75.744254 
L 488.584392 -75.663373 
L 488.680176 -75.582492 
L 488.785908 -75.501611 
L 488.900604 -75.420729 
L 489.023228 -75.339848 
L 489.152698 -75.258967 
L 489.287888 -75.178086 
L 489.427642 -75.097205 
L 489.570774 -75.016323 
L 489.716081 -74.935442 
L 489.862344 -74.854561 
L 490.008339 -74.77368 
L 490.152842 -74.692798 
L 490.294633 -74.611917 
L 490.432509 -74.531036 
L 490.565284 -74.450155 
L 490.691796 -74.369274 
L 490.810915 -74.288392 
L 490.921547 -74.207511 
L 491.022638 -74.12663 
L 491.11318 -74.045749 
L 491.192217 -73.964868 
L 491.258844 -73.883986 
L 491.312218 -73.803105 
L 491.351553 -73.722224 
L 491.376131 -73.641343 
L 491.385298 -73.560462 
L 491.378471 -73.47958 
L 491.355137 -73.398699 
L 491.314855 -73.317818 
L 491.257258 -73.236937 
L 491.182052 -73.156055 
L 491.089017 -73.075174 
L 490.978007 -72.994293 
L 490.848951 -72.913412 
L 490.701848 -72.832531 
L 490.536772 -72.751649 
L 490.353863 -72.670768 
L 490.153333 -72.589887 
L 489.935457 -72.509006 
L 489.700576 -72.428125 
L 489.449092 -72.347243 
L 489.181465 -72.266362 
L 488.89821 -72.185481 
L 488.599894 -72.1046 
z
" style="stroke: #999999; stroke-width: 2"/>
    </defs>
    <g clip-path="url(#pa2774236a4)">
     <use xlink:href="#m7e6d9d3be6" x="0" y="255.11811" style="fill: #ffffff; stroke: #999999; stroke-width: 2"/>
    </g>
   </g>
   <g id="PathCollection_1"/>
   <g id="PathCollection_2"/>
   <g id="patch_3">
    <path d="M 47.22 213.89811 
L 47.22 24.32 
" style="fill: none; stroke: #262626; stroke-width: 1.25; stroke-linejoin: miter; stroke-linecap: square"/>
   </g>
   <g id="patch_4">
    <path d="M 47.22 213.89811 
L 500.51622 213.89811 
" style="fill: none; stroke: #262626; stroke-width: 1.25; stroke-linejoin: miter; stroke-linecap: square"/>
   </g>
   <g id="PathCollection_3">
    <defs>
     <path id="C0_0_2c40e96efa" d="M 0 2.5 
C 0.663008 2.5 1.29895 2.236584 1.767767 1.767767 
C 2.236584 1.29895 2.5 0.663008 2.5 -0 
C 2.5 -0.663008 2.236584 -1.29895 1.767767 -1.767767 
C 1.29895 -2.236584 0.663008 -2.5 0 -2.5 
C -0.663008 -2.5 -1.29895 -2.236584 -1.767767 -1.767767 
C -2.236584 -1.29895 -2.5 -0.663008 -2.5 0 
C -2.5 0.663008 -2.236584 1.29895 -1.767767 1.767767 
C -1.29895 2.236584 -0.663008 2.5 0 2.5 
z
"/>
    </defs>
    <g clip-path="url(#pa2774236a4)">
     <use xlink:href="#C0_0_2c40e96efa" x="81.257339" y="137.166373" style="fill: #4c72b0; fill-opacity: 0.75"/>
    </g>
    <g clip-path="url(#pa2774236a4)">
     <use xlink:href="#C0_0_2c40e96efa" x="84.523041" y="155.419046" style="fill: #4c72b0; fill-opacity: 0.75"/>
    </g>
    <g clip-path="url(#pa2774236a4)">
     <use xlink:href="#C0_0_2c40e96efa" x="77.062418" y="143.379406" style="fill: #4c72b0; fill-opacity: 0.75"/>
    </g>
    <g clip-path="url(#pa2774236a4)">
     <use xlink:href="#C0_0_2c40e96efa" x="85.230711" y="146.465711" style="fill: #4c72b0; fill-opacity: 0.75"/>
    </g>
    <g clip-path="url(#pa2774236a4)">
     <use xlink:href="#C0_0_2c40e96efa" x="82.334997" y="162.792991" style="fill: #dd8452; fill-opacity: 0.75"/>
    </g>
    <g clip-path="url(#pa2774236a4)">
     <use xlink:href="#C0_0_2c40e96efa" x="78.304381" y="154.495044" style="fill: #dd8452; fill-opacity: 0.75"/>
    </g>
    <g clip-path="url(#pa2774236a4)">
     <use xlink:href="#C0_0_2c40e96efa" x="80.054564" y="160.078575" style="fill: #dd8452; fill-opacity: 0.75"/>
    </g>
    <g clip-path="url(#pa2774236a4)">
     <use xlink:href="#C0_0_2c40e96efa" x="80.348889" y="157.68418" style="fill: #dd8452; fill-opacity: 0.75"/>
    </g>
   </g>
   <g id="PathCollection_4">
    <defs>
     <path id="C1_0_2b8a766e4a" d="M 0 2.5 
C 0.663008 2.5 1.29895 2.236584 1.767767 1.767767 
C 2.236584 1.29895 2.5 0.663008 2.5 -0 
C 2.5 -0.663008 2.236584 -1.29895 1.767767 -1.767767 
C 1.29895 -2.236584 0.663008 -2.5 0 -2.5 
C -0.663008 -2.5 -1.29895 -2.236584 -1.767767 -1.767767 
C -2.236584 -1.29895 -2.5 -0.663008 -2.5 0 
C -2.5 0.663008 -2.236584 1.29895 -1.767767 1.767767 
C -1.29895 2.236584 -0.663008 2.5 0 2.5 
z
"/>
    </defs>
    <g clip-path="url(#pa2774236a4)">
     <use xlink:href="#C1_0_2b8a766e4a" x="145.514051" y="204.386575" style="fill: #4c72b0; fill-opacity: 0.75"/>
    </g>
    <g clip-path="url(#pa2774236a4)">
     <use xlink:href="#C1_0_2b8a766e4a" x="148.441349" y="198.343723" style="fill: #4c72b0; fill-opacity: 0.75"/>
    </g>
    <g clip-path="url(#pa2774236a4)">
     <use xlink:href="#C1_0_2b8a766e4a" x="149.706317" y="204.918471" style="fill: #4c72b0; fill-opacity: 0.75"/>
    </g>
    <g clip-path="url(#pa2774236a4)">
     <use xlink:href="#C1_0_2b8a766e4a" x="145.06089" y="205.280923" style="fill: #4c72b0; fill-opacity: 0.75"/>
    </g>
    <g clip-path="url(#pa2774236a4)">
     <use xlink:href="#C1_0_2b8a766e4a" x="138.524556" y="192.978223" style="fill: #dd8452; fill-opacity: 0.75"/>
    </g>
    <g clip-path="url(#pa2774236a4)">
     <use xlink:href="#C1_0_2b8a766e4a" x="138.349683" y="198.631256" style="fill: #dd8452; fill-opacity: 0.75"/>
    </g>
    <g clip-path="url(#pa2774236a4)">
     <use xlink:href="#C1_0_2b8a766e4a" x="148.783002" y="200.818282" style="fill: #dd8452; fill-opacity: 0.75"/>
    </g>
    <g clip-path="url(#pa2774236a4)">
     <use xlink:href="#C1_0_2b8a766e4a" x="138.634034" y="198.984448" style="fill: #dd8452; fill-opacity: 0.75"/>
    </g>
   </g>
   <g id="PathCollection_5">
    <defs>
     <path id="C2_0_3b1801a4d4" d="M 0 2.5 
C 0.663008 2.5 1.29895 2.236584 1.767767 1.767767 
C 2.236584 1.29895 2.5 0.663008 2.5 -0 
C 2.5 -0.663008 2.236584 -1.29895 1.767767 -1.767767 
C 1.29895 -2.236584 0.663008 -2.5 0 -2.5 
C -0.663008 -2.5 -1.29895 -2.236584 -1.767767 -1.767767 
C -2.236584 -1.29895 -2.5 -0.663008 -2.5 0 
C -2.5 0.663008 -2.236584 1.29895 -1.767767 1.767767 
C -1.29895 2.236584 -0.663008 2.5 0 2.5 
z
"/>
    </defs>
    <g clip-path="url(#pa2774236a4)">
     <use xlink:href="#C2_0_3b1801a4d4" x="204.06895" y="160.665966" style="fill: #4c72b0; fill-opacity: 0.75"/>
    </g>
    <g clip-path="url(#pa2774236a4)">
     <use xlink:href="#C2_0_3b1801a4d4" x="208.58007" y="153.341207" style="fill: #4c72b0; fill-opacity: 0.75"/>
    </g>
    <g clip-path="url(#pa2774236a4)">
     <use xlink:href="#C2_0_3b1801a4d4" x="207.991434" y="161.983434" style="fill: #4c72b0; fill-opacity: 0.75"/>
    </g>
    <g clip-path="url(#pa2774236a4)">
     <use xlink:href="#C2_0_3b1801a4d4" x="214.475813" y="128.581264" style="fill: #4c72b0; fill-opacity: 0.75"/>
    </g>
    <g clip-path="url(#pa2774236a4)">
     <use xlink:href="#C2_0_3b1801a4d4" x="207.937525" y="146.509809" style="fill: #dd8452; fill-opacity: 0.75"/>
    </g>
    <g clip-path="url(#pa2774236a4)">
     <use xlink:href="#C2_0_3b1801a4d4" x="211.097404" y="144.086111" style="fill: #dd8452; fill-opacity: 0.75"/>
    </g>
    <g clip-path="url(#pa2774236a4)">
     <use xlink:href="#C2_0_3b1801a4d4" x="213.24992" y="161.267707" style="fill: #dd8452; fill-opacity: 0.75"/>
    </g>
    <g clip-path="url(#pa2774236a4)">
     <use xlink:href="#C2_0_3b1801a4d4" x="211.051143" y="184.377168" style="fill: #dd8452; fill-opacity: 0.75"/>
    </g>
   </g>
   <g id="PathCollection_6">
    <defs>
     <path id="C3_0_8a8e7bbdb0" d="M 0 2.5 
C 0.663008 2.5 1.29895 2.236584 1.767767 1.767767 
C 2.236584 1.29895 2.5 0.663008 2.5 -0 
C 2.5 -0.663008 2.236584 -1.29895 1.767767 -1.767767 
C 1.29895 -2.236584 0.663008 -2.5 0 -2.5 
C -0.663008 -2.5 -1.29895 -2.236584 -1.767767 -1.767767 
C -2.236584 -1.29895 -2.5 -0.663008 -2.5 0 
C -2.5 0.663008 -2.236584 1.29895 -1.767767 1.767767 
C -1.29895 2.236584 -0.663008 2.5 0 2.5 
z
"/>
    </defs>
    <g clip-path="url(#pa2774236a4)">
     <use xlink:href="#C3_0_8a8e7bbdb0" x="271.772178" y="32.937187" style="fill: #4c72b0; fill-opacity: 0.75"/>
    </g>
    <g clip-path="url(#pa2774236a4)">
     <use xlink:href="#C3_0_8a8e7bbdb0" x="276.120262" y="34.811395" style="fill: #4c72b0; fill-opacity: 0.75"/>
    </g>
    <g clip-path="url(#pa2774236a4)">
     <use xlink:href="#C3_0_8a8e7bbdb0" x="269.474782" y="82.080596" style="fill: #4c72b0; fill-opacity: 0.75"/>
    </g>
    <g clip-path="url(#pa2774236a4)">
     <use xlink:href="#C3_0_8a8e7bbdb0" x="277.815342" y="77.667817" style="fill: #4c72b0; fill-opacity: 0.75"/>
    </g>
    <g clip-path="url(#pa2774236a4)">
     <use xlink:href="#C3_0_8a8e7bbdb0" x="276.78706" y="76.347506" style="fill: #4c72b0; fill-opacity: 0.75"/>
    </g>
    <g clip-path="url(#pa2774236a4)">
     <use xlink:href="#C3_0_8a8e7bbdb0" x="277.262442" y="62.788463" style="fill: #dd8452; fill-opacity: 0.75"/>
    </g>
    <g clip-path="url(#pa2774236a4)">
     <use xlink:href="#C3_0_8a8e7bbdb0" x="280.016781" y="55.714339" style="fill: #dd8452; fill-opacity: 0.75"/>
    </g>
    <g clip-path="url(#pa2774236a4)">
     <use xlink:href="#C3_0_8a8e7bbdb0" x="269.845129" y="46.626993" style="fill: #dd8452; fill-opacity: 0.75"/>
    </g>
    <g clip-path="url(#pa2774236a4)">
     <use xlink:href="#C3_0_8a8e7bbdb0" x="279.297146" y="109.929687" style="fill: #dd8452; fill-opacity: 0.75"/>
    </g>
    <g clip-path="url(#pa2774236a4)">
     <use xlink:href="#C3_0_8a8e7bbdb0" x="277.940036" y="83.925971" style="fill: #dd8452; fill-opacity: 0.75"/>
    </g>
   </g>
   <g id="PathCollection_7">
    <defs>
     <path id="C4_0_1cf3fac40c" d="M 0 2.5 
C 0.663008 2.5 1.29895 2.236584 1.767767 1.767767 
C 2.236584 1.29895 2.5 0.663008 2.5 -0 
C 2.5 -0.663008 2.236584 -1.29895 1.767767 -1.767767 
C 1.29895 -2.236584 0.663008 -2.5 0 -2.5 
C -0.663008 -2.5 -1.29895 -2.236584 -1.767767 -1.767767 
C -2.236584 -1.29895 -2.5 -0.663008 -2.5 0 
C -2.5 0.663008 -2.236584 1.29895 -1.767767 1.767767 
C -1.29895 2.236584 -0.663008 2.5 0 2.5 
z
"/>
    </defs>
    <g clip-path="url(#pa2774236a4)">
     <use xlink:href="#C4_0_1cf3fac40c" x="338.101871" y="178.243946" style="fill: #4c72b0; fill-opacity: 0.75"/>
    </g>
    <g clip-path="url(#pa2774236a4)">
     <use xlink:href="#C4_0_1cf3fac40c" x="334.261252" y="181.912367" style="fill: #4c72b0; fill-opacity: 0.75"/>
    </g>
    <g clip-path="url(#pa2774236a4)">
     <use xlink:href="#C4_0_1cf3fac40c" x="332.630437" y="183.39085" style="fill: #4c72b0; fill-opacity: 0.75"/>
    </g>
    <g clip-path="url(#pa2774236a4)">
     <use xlink:href="#C4_0_1cf3fac40c" x="342.993701" y="166.883632" style="fill: #dd8452; fill-opacity: 0.75"/>
    </g>
    <g clip-path="url(#pa2774236a4)">
     <use xlink:href="#C4_0_1cf3fac40c" x="339.76338" y="174.991102" style="fill: #dd8452; fill-opacity: 0.75"/>
    </g>
    <g clip-path="url(#pa2774236a4)">
     <use xlink:href="#C4_0_1cf3fac40c" x="340.130136" y="171.977885" style="fill: #dd8452; fill-opacity: 0.75"/>
    </g>
   </g>
   <g id="PathCollection_8">
    <defs>
     <path id="C5_0_a9173ca58e" d="M 0 2.5 
C 0.663008 2.5 1.29895 2.236584 1.767767 1.767767 
C 2.236584 1.29895 2.5 0.663008 2.5 -0 
C 2.5 -0.663008 2.236584 -1.29895 1.767767 -1.767767 
C 1.29895 -2.236584 0.663008 -2.5 0 -2.5 
C -0.663008 -2.5 -1.29895 -2.236584 -1.767767 -1.767767 
C -2.236584 -1.29895 -2.5 -0.663008 -2.5 0 
C -2.5 0.663008 -2.236584 1.29895 -1.767767 1.767767 
C -1.29895 2.236584 -0.663008 2.5 0 2.5 
z
"/>
    </defs>
    <g clip-path="url(#pa2774236a4)">
     <use xlink:href="#C5_0_a9173ca58e" x="399.368499" y="157.896491" style="fill: #4c72b0; fill-opacity: 0.75"/>
    </g>
    <g clip-path="url(#pa2774236a4)">
     <use xlink:href="#C5_0_a9173ca58e" x="405.564838" y="145.558832" style="fill: #4c72b0; fill-opacity: 0.75"/>
    </g>
    <g clip-path="url(#pa2774236a4)">
     <use xlink:href="#C5_0_a9173ca58e" x="407.850348" y="175.335075" style="fill: #4c72b0; fill-opacity: 0.75"/>
    </g>
    <g clip-path="url(#pa2774236a4)">
     <use xlink:href="#C5_0_a9173ca58e" x="400.524804" y="150.624901" style="fill: #4c72b0; fill-opacity: 0.75"/>
    </g>
    <g clip-path="url(#pa2774236a4)">
     <use xlink:href="#C5_0_a9173ca58e" x="405.751723" y="187.370764" style="fill: #dd8452; fill-opacity: 0.75"/>
    </g>
    <g clip-path="url(#pa2774236a4)">
     <use xlink:href="#C5_0_a9173ca58e" x="405.347889" y="182.463581" style="fill: #dd8452; fill-opacity: 0.75"/>
    </g>
    <g clip-path="url(#pa2774236a4)">
     <use xlink:href="#C5_0_a9173ca58e" x="404.330244" y="195.89414" style="fill: #dd8452; fill-opacity: 0.75"/>
    </g>
    <g clip-path="url(#pa2774236a4)">
     <use xlink:href="#C5_0_a9173ca58e" x="400.861897" y="184.758683" style="fill: #dd8452; fill-opacity: 0.75"/>
    </g>
   </g>
   <g id="PathCollection_9">
    <defs>
     <path id="C6_0_880e60cdc9" d="M 0 2.5 
C 0.663008 2.5 1.29895 2.236584 1.767767 1.767767 
C 2.236584 1.29895 2.5 0.663008 2.5 -0 
C 2.5 -0.663008 2.236584 -1.29895 1.767767 -1.767767 
C 1.29895 -2.236584 0.663008 -2.5 0 -2.5 
C -0.663008 -2.5 -1.29895 -2.236584 -1.767767 -1.767767 
C -2.236584 -1.29895 -2.5 -0.663008 -2.5 0 
C -2.5 0.663008 -2.236584 1.29895 -1.767767 1.767767 
C -1.29895 2.236584 -0.663008 2.5 0 2.5 
z
"/>
    </defs>
    <g clip-path="url(#pa2774236a4)">
     <use xlink:href="#C6_0_880e60cdc9" x="471.290333" y="175.607855" style="fill: #4c72b0; fill-opacity: 0.75"/>
    </g>
    <g clip-path="url(#pa2774236a4)">
     <use xlink:href="#C6_0_880e60cdc9" x="463.916339" y="175.719973" style="fill: #4c72b0; fill-opacity: 0.75"/>
    </g>
    <g clip-path="url(#pa2774236a4)">
     <use xlink:href="#C6_0_880e60cdc9" x="463.54864" y="175.006271" style="fill: #4c72b0; fill-opacity: 0.75"/>
    </g>
    <g clip-path="url(#pa2774236a4)">
     <use xlink:href="#C6_0_880e60cdc9" x="466.313826" y="175.517815" style="fill: #4c72b0; fill-opacity: 0.75"/>
    </g>
    <g clip-path="url(#pa2774236a4)">
     <use xlink:href="#C6_0_880e60cdc9" x="470.661357" y="180.692626" style="fill: #dd8452; fill-opacity: 0.75"/>
    </g>
    <g clip-path="url(#pa2774236a4)">
     <use xlink:href="#C6_0_880e60cdc9" x="474.40511" y="182.727967" style="fill: #dd8452; fill-opacity: 0.75"/>
    </g>
    <g clip-path="url(#pa2774236a4)">
     <use xlink:href="#C6_0_880e60cdc9" x="463.276198" y="180.899313" style="fill: #dd8452; fill-opacity: 0.75"/>
    </g>
    <g clip-path="url(#pa2774236a4)">
     <use xlink:href="#C6_0_880e60cdc9" x="465.773018" y="183.013511" style="fill: #dd8452; fill-opacity: 0.75"/>
    </g>
   </g>
   <g id="text_14">
    <!-- PTGS1, $p_{adj}$ &lt; .001 *** -->
    <g style="fill: #262626" transform="translate(47.22 18.32)scale(0.09 -0.09)">
     <defs>
      <path id="ArialMT-47" d="M 2638 1797 
L 2638 2334 
L 4578 2338 
L 4578 638 
Q 4131 281 3656 101 
Q 3181 -78 2681 -78 
Q 2006 -78 1454 211 
Q 903 500 622 1047 
Q 341 1594 341 2269 
Q 341 2938 620 3517 
Q 900 4097 1425 4378 
Q 1950 4659 2634 4659 
Q 3131 4659 3532 4498 
Q 3934 4338 4162 4050 
Q 4391 3763 4509 3300 
L 3963 3150 
Q 3859 3500 3706 3700 
Q 3553 3900 3268 4020 
Q 2984 4141 2638 4141 
Q 2222 4141 1919 4014 
Q 1616 3888 1430 3681 
Q 1244 3475 1141 3228 
Q 966 2803 966 2306 
Q 966 1694 1177 1281 
Q 1388 869 1791 669 
Q 2194 469 2647 469 
Q 3041 469 3416 620 
Q 3791 772 3984 944 
L 3984 1797 
L 2638 1797 
z
" transform="scale(0.015625)"/>
      <path id="ArialMT-53" d="M 288 1472 
L 859 1522 
Q 900 1178 1048 958 
Q 1197 738 1509 602 
Q 1822 466 2213 466 
Q 2559 466 2825 569 
Q 3091 672 3220 851 
Q 3350 1031 3350 1244 
Q 3350 1459 3225 1620 
Q 3100 1781 2813 1891 
Q 2628 1963 1997 2114 
Q 1366 2266 1113 2400 
Q 784 2572 623 2826 
Q 463 3081 463 3397 
Q 463 3744 659 4045 
Q 856 4347 1234 4503 
Q 1613 4659 2075 4659 
Q 2584 4659 2973 4495 
Q 3363 4331 3572 4012 
Q 3781 3694 3797 3291 
L 3216 3247 
Q 3169 3681 2898 3903 
Q 2628 4125 2100 4125 
Q 1550 4125 1298 3923 
Q 1047 3722 1047 3438 
Q 1047 3191 1225 3031 
Q 1400 2872 2139 2705 
Q 2878 2538 3153 2413 
Q 3553 2228 3743 1945 
Q 3934 1663 3934 1294 
Q 3934 928 3725 604 
Q 3516 281 3123 101 
Q 2731 -78 2241 -78 
Q 1619 -78 1198 103 
Q 778 284 539 648 
Q 300 1013 288 1472 
z
" transform="scale(0.015625)"/>
      <path id="ArialMT-2c" d="M 569 0 
L 569 641 
L 1209 641 
L 1209 0 
Q 1209 -353 1084 -570 
Q 959 -788 688 -906 
L 531 -666 
Q 709 -588 793 -436 
Q 878 -284 888 0 
L 569 0 
z
" transform="scale(0.015625)"/>
      <path id="DejaVuSans-Oblique-70" d="M 3175 2156 
Q 3175 2616 2975 2859 
Q 2775 3103 2400 3103 
Q 2144 3103 1911 2972 
Q 1678 2841 1497 2591 
Q 1319 2344 1212 1994 
Q 1106 1644 1106 1300 
Q 1106 863 1306 627 
Q 1506 391 1875 391 
Q 2147 391 2380 519 
Q 2613 647 2778 891 
Q 2956 1147 3065 1494 
Q 3175 1841 3175 2156 
z
M 1394 2969 
Q 1625 3272 1939 3428 
Q 2253 3584 2638 3584 
Q 3175 3584 3472 3232 
Q 3769 2881 3769 2247 
Q 3769 1728 3584 1258 
Q 3400 788 3053 416 
Q 2822 169 2531 39 
Q 2241 -91 1919 -91 
Q 1547 -91 1294 64 
Q 1041 219 916 525 
L 556 -1331 
L -19 -1331 
L 922 3500 
L 1497 3500 
L 1394 2969 
z
" transform="scale(0.015625)"/>
      <path id="DejaVuSans-Oblique-61" d="M 3438 1997 
L 3047 0 
L 2472 0 
L 2578 531 
Q 2325 219 2001 64 
Q 1678 -91 1281 -91 
Q 834 -91 548 182 
Q 263 456 263 884 
Q 263 1497 752 1853 
Q 1241 2209 2100 2209 
L 2900 2209 
L 2931 2363 
Q 2938 2388 2941 2417 
Q 2944 2447 2944 2509 
Q 2944 2788 2717 2942 
Q 2491 3097 2081 3097 
Q 1800 3097 1504 3025 
Q 1209 2953 897 2809 
L 997 3341 
Q 1322 3463 1633 3523 
Q 1944 3584 2234 3584 
Q 2853 3584 3176 3315 
Q 3500 3047 3500 2534 
Q 3500 2431 3484 2292 
Q 3469 2153 3438 1997 
z
M 2816 1759 
L 2241 1759 
Q 1534 1759 1195 1570 
Q 856 1381 856 984 
Q 856 709 1029 553 
Q 1203 397 1509 397 
Q 1978 397 2328 733 
Q 2678 1069 2791 1631 
L 2816 1759 
z
" transform="scale(0.015625)"/>
      <path id="DejaVuSans-Oblique-64" d="M 2675 525 
Q 2444 222 2128 65 
Q 1813 -91 1428 -91 
Q 903 -91 598 267 
Q 294 625 294 1247 
Q 294 1766 478 2236 
Q 663 2706 1013 3078 
Q 1244 3325 1534 3454 
Q 1825 3584 2144 3584 
Q 2481 3584 2739 3421 
Q 2997 3259 3138 2956 
L 3513 4863 
L 4091 4863 
L 3144 0 
L 2566 0 
L 2675 525 
z
M 891 1350 
Q 891 897 1095 644 
Q 1300 391 1663 391 
Q 1931 391 2161 520 
Q 2391 650 2566 903 
Q 2750 1166 2856 1509 
Q 2963 1853 2963 2188 
Q 2963 2622 2758 2865 
Q 2553 3109 2194 3109 
Q 1922 3109 1687 2981 
Q 1453 2853 1288 2613 
Q 1106 2353 998 2009 
Q 891 1666 891 1350 
z
" transform="scale(0.015625)"/>
      <path id="DejaVuSans-Oblique-6a" d="M 928 3500 
L 1503 3500 
L 813 -63 
L 809 -78 
Q 694 -675 544 -897 
Q 403 -1106 132 -1218 
Q -138 -1331 -506 -1331 
L -722 -1331 
L -628 -844 
L -481 -844 
Q -144 -844 -1 -703 
Q 141 -563 238 -63 
L 928 3500 
z
M 1197 4863 
L 1772 4863 
L 1631 4134 
L 1056 4134 
L 1197 4863 
z
" transform="scale(0.015625)"/>
      <path id="ArialMT-3c" d="M 350 2003 
L 350 2528 
L 3384 3809 
L 3384 3250 
L 978 2263 
L 3384 1266 
L 3384 706 
L 350 2003 
z
" transform="scale(0.015625)"/>
      <path id="ArialMT-2e" d="M 581 0 
L 581 641 
L 1222 641 
L 1222 0 
L 581 0 
z
" transform="scale(0.015625)"/>
      <path id="ArialMT-2a" d="M 200 3741 
L 344 4184 
Q 841 4009 1066 3881 
Q 1006 4447 1003 4659 
L 1456 4659 
Q 1447 4350 1384 3884 
Q 1706 4047 2122 4184 
L 2266 3741 
Q 1869 3609 1488 3566 
Q 1678 3400 2025 2975 
L 1650 2709 
Q 1469 2956 1222 3381 
Q 991 2941 816 2709 
L 447 2975 
Q 809 3422 966 3566 
Q 563 3644 200 3741 
z
" transform="scale(0.015625)"/>
     </defs>
     <use xlink:href="#ArialMT-50" transform="translate(0 0.203125)"/>
     <use xlink:href="#ArialMT-54" transform="translate(66.699219 0.203125)"/>
     <use xlink:href="#ArialMT-47" transform="translate(127.783203 0.203125)"/>
     <use xlink:href="#ArialMT-53" transform="translate(205.566406 0.203125)"/>
     <use xlink:href="#ArialMT-31" transform="translate(272.265625 0.203125)"/>
     <use xlink:href="#ArialMT-2c" transform="translate(327.880859 0.203125)"/>
     <use xlink:href="#ArialMT-20" transform="translate(355.664062 0.203125)"/>
     <use xlink:href="#DejaVuSans-Oblique-70" transform="translate(383.447266 0.203125)"/>
     <use xlink:href="#DejaVuSans-Oblique-61" transform="translate(446.923828 -16.203125)scale(0.7)"/>
     <use xlink:href="#DejaVuSans-Oblique-64" transform="translate(489.819336 -16.203125)scale(0.7)"/>
     <use xlink:href="#DejaVuSans-Oblique-6a" transform="translate(534.25293 -16.203125)scale(0.7)"/>
     <use xlink:href="#ArialMT-20" transform="translate(556.435547 0.203125)"/>
     <use xlink:href="#ArialMT-3c" transform="translate(584.21875 0.203125)"/>
     <use xlink:href="#ArialMT-20" transform="translate(642.617188 0.203125)"/>
     <use xlink:href="#ArialMT-2e" transform="translate(670.400391 0.203125)"/>
     <use xlink:href="#ArialMT-30" transform="translate(698.183594 0.203125)"/>
     <use xlink:href="#ArialMT-30" transform="translate(753.798828 0.203125)"/>
     <use xlink:href="#ArialMT-31" transform="translate(809.414062 0.203125)"/>
     <use xlink:href="#ArialMT-20" transform="translate(865.029297 0.203125)"/>
     <use xlink:href="#ArialMT-2a" transform="translate(892.8125 0.203125)"/>
     <use xlink:href="#ArialMT-2a" transform="translate(931.728516 0.203125)"/>
     <use xlink:href="#ArialMT-2a" transform="translate(970.644531 0.203125)"/>
    </g>
   </g>
   <g id="legend_1">
    <g id="patch_5">
     <path d="M 441.91497 69.712344 
L 494.21622 69.712344 
Q 496.01622 69.712344 496.01622 67.912344 
L 496.01622 30.62 
Q 496.01622 28.82 494.21622 28.82 
L 441.91497 28.82 
Q 440.11497 28.82 440.11497 30.62 
L 440.11497 67.912344 
Q 440.11497 69.712344 441.91497 69.712344 
z
" style="fill: #ffffff; opacity: 0.8; stroke: #cccccc; stroke-linejoin: miter"/>
    </g>
    <g id="text_15">
     <!-- Treatment -->
     <g style="fill: #262626" transform="translate(447.729111 38.862031)scale(0.09 -0.09)">
      <use xlink:href="#ArialMT-54"/>
      <use xlink:href="#ArialMT-72" x="57.333984"/>
      <use xlink:href="#ArialMT-65" x="90.634766"/>
      <use xlink:href="#ArialMT-61" x="146.25"/>
      <use xlink:href="#ArialMT-74" x="201.865234"/>
      <use xlink:href="#ArialMT-6d" x="229.648438"/>
      <use xlink:href="#ArialMT-65" x="312.949219"/>
      <use xlink:href="#ArialMT-6e" x="368.564453"/>
      <use xlink:href="#ArialMT-74" x="424.179688"/>
     </g>
    </g>
    <g id="PathCollection_10">
     <defs>
      <path id="m900859f50e" d="M 0 3.872983 
C 1.027127 3.872983 2.012324 3.464901 2.738613 2.738613 
C 3.464901 2.012324 3.872983 1.027127 3.872983 0 
C 3.872983 -1.027127 3.464901 -2.012324 2.738613 -2.738613 
C 2.012324 -3.464901 1.027127 -3.872983 0 -3.872983 
C -1.027127 -3.872983 -2.012324 -3.464901 -2.738613 -2.738613 
C -3.464901 -2.012324 -3.872983 -1.027127 -3.872983 0 
C -3.872983 1.027127 -3.464901 2.012324 -2.738613 2.738613 
C -2.012324 3.464901 -1.027127 3.872983 0 3.872983 
z
" style="stroke: #4c72b0"/>
     </defs>
     <g>
      <use xlink:href="#m900859f50e" x="452.71497" y="49.230313" style="fill: #4c72b0; stroke: #4c72b0"/>
     </g>
    </g>
    <g id="text_16">
     <!-- BEVA -->
     <g style="fill: #262626" transform="translate(468.91497 51.592813)scale(0.09 -0.09)">
      <defs>
       <path id="ArialMT-42" d="M 469 0 
L 469 4581 
L 2188 4581 
Q 2713 4581 3030 4442 
Q 3347 4303 3526 4014 
Q 3706 3725 3706 3409 
Q 3706 3116 3547 2856 
Q 3388 2597 3066 2438 
Q 3481 2316 3704 2022 
Q 3928 1728 3928 1328 
Q 3928 1006 3792 729 
Q 3656 453 3456 303 
Q 3256 153 2954 76 
Q 2653 0 2216 0 
L 469 0 
z
M 1075 2656 
L 2066 2656 
Q 2469 2656 2644 2709 
Q 2875 2778 2992 2937 
Q 3109 3097 3109 3338 
Q 3109 3566 3000 3739 
Q 2891 3913 2687 3977 
Q 2484 4041 1991 4041 
L 1075 4041 
L 1075 2656 
z
M 1075 541 
L 2216 541 
Q 2509 541 2628 563 
Q 2838 600 2978 687 
Q 3119 775 3209 942 
Q 3300 1109 3300 1328 
Q 3300 1584 3169 1773 
Q 3038 1963 2805 2039 
Q 2572 2116 2134 2116 
L 1075 2116 
L 1075 541 
z
" transform="scale(0.015625)"/>
       <path id="ArialMT-45" d="M 506 0 
L 506 4581 
L 3819 4581 
L 3819 4041 
L 1113 4041 
L 1113 2638 
L 3647 2638 
L 3647 2100 
L 1113 2100 
L 1113 541 
L 3925 541 
L 3925 0 
L 506 0 
z
" transform="scale(0.015625)"/>
       <path id="ArialMT-56" d="M 1803 0 
L 28 4581 
L 684 4581 
L 1875 1253 
Q 2019 853 2116 503 
Q 2222 878 2363 1253 
L 3600 4581 
L 4219 4581 
L 2425 0 
L 1803 0 
z
" transform="scale(0.015625)"/>
       <path id="ArialMT-41" d="M -9 0 
L 1750 4581 
L 2403 4581 
L 4278 0 
L 3588 0 
L 3053 1388 
L 1138 1388 
L 634 0 
L -9 0 
z
M 1313 1881 
L 2866 1881 
L 2388 3150 
Q 2169 3728 2063 4100 
Q 1975 3659 1816 3225 
L 1313 1881 
z
" transform="scale(0.015625)"/>
      </defs>
      <use xlink:href="#ArialMT-42"/>
      <use xlink:href="#ArialMT-45" x="66.699219"/>
      <use xlink:href="#ArialMT-56" x="133.398438"/>
      <use xlink:href="#ArialMT-41" x="192.722656"/>
     </g>
    </g>
    <g id="PathCollection_11">
     <defs>
      <path id="meafcd9358e" d="M 0 3.872983 
C 1.027127 3.872983 2.012324 3.464901 2.738613 2.738613 
C 3.464901 2.012324 3.872983 1.027127 3.872983 0 
C 3.872983 -1.027127 3.464901 -2.012324 2.738613 -2.738613 
C 2.012324 -3.464901 1.027127 -3.872983 0 -3.872983 
C -1.027127 -3.872983 -2.012324 -3.464901 -2.738613 -2.738613 
C -3.464901 -2.012324 -3.872983 -1.027127 -3.872983 0 
C -3.872983 1.027127 -3.464901 2.012324 -2.738613 2.738613 
C -2.012324 3.464901 -1.027127 3.872983 0 3.872983 
z
" style="stroke: #dd8452"/>
     </defs>
     <g>
      <use xlink:href="#meafcd9358e" x="452.71497" y="61.961094" style="fill: #dd8452; stroke: #dd8452"/>
     </g>
    </g>
    <g id="text_17">
     <!-- CTRL -->
     <g style="fill: #262626" transform="translate(468.91497 64.323594)scale(0.09 -0.09)">
      <defs>
       <path id="ArialMT-43" d="M 3763 1606 
L 4369 1453 
Q 4178 706 3683 314 
Q 3188 -78 2472 -78 
Q 1731 -78 1267 223 
Q 803 525 561 1097 
Q 319 1669 319 2325 
Q 319 3041 592 3573 
Q 866 4106 1370 4382 
Q 1875 4659 2481 4659 
Q 3169 4659 3637 4309 
Q 4106 3959 4291 3325 
L 3694 3184 
Q 3534 3684 3231 3912 
Q 2928 4141 2469 4141 
Q 1941 4141 1586 3887 
Q 1231 3634 1087 3207 
Q 944 2781 944 2328 
Q 944 1744 1114 1308 
Q 1284 872 1643 656 
Q 2003 441 2422 441 
Q 2931 441 3284 734 
Q 3638 1028 3763 1606 
z
" transform="scale(0.015625)"/>
       <path id="ArialMT-52" d="M 503 0 
L 503 4581 
L 2534 4581 
Q 3147 4581 3465 4457 
Q 3784 4334 3975 4021 
Q 4166 3709 4166 3331 
Q 4166 2844 3850 2509 
Q 3534 2175 2875 2084 
Q 3116 1969 3241 1856 
Q 3506 1613 3744 1247 
L 4541 0 
L 3778 0 
L 3172 953 
Q 2906 1366 2734 1584 
Q 2563 1803 2427 1890 
Q 2291 1978 2150 2013 
Q 2047 2034 1813 2034 
L 1109 2034 
L 1109 0 
L 503 0 
z
M 1109 2559 
L 2413 2559 
Q 2828 2559 3062 2645 
Q 3297 2731 3419 2920 
Q 3541 3109 3541 3331 
Q 3541 3656 3305 3865 
Q 3069 4075 2559 4075 
L 1109 4075 
L 1109 2559 
z
" transform="scale(0.015625)"/>
       <path id="ArialMT-4c" d="M 469 0 
L 469 4581 
L 1075 4581 
L 1075 541 
L 3331 541 
L 3331 0 
L 469 0 
z
" transform="scale(0.015625)"/>
      </defs>
      <use xlink:href="#ArialMT-43"/>
      <use xlink:href="#ArialMT-54" x="72.216797"/>
      <use xlink:href="#ArialMT-52" x="133.300781"/>
      <use xlink:href="#ArialMT-4c" x="205.517578"/>
     </g>
    </g>
   </g>
  </g>
 </g>
 <defs>
  <clipPath id="pa2774236a4">
   <rect x="47.22" y="24.32" width="453.29622" height="189.57811"/>
  </clipPath>
 </defs>
</svg>
