<?xml version="1.0" encoding="utf-8" standalone="no"?>
<!DOCTYPE svg PUBLIC "-//W3C//DTD SVG 1.1//EN"
  "http://www.w3.org/Graphics/SVG/1.1/DTD/svg11.dtd">
<svg xmlns:xlink="http://www.w3.org/1999/xlink" width="510.23622pt" height="255.11811pt" viewBox="0 0 510.23622 255.11811" xmlns="http://www.w3.org/2000/svg" version="1.1">
 <metadata>
  <rdf:RDF xmlns:dc="http://purl.org/dc/elements/1.1/" xmlns:cc="http://creativecommons.org/ns#" xmlns:rdf="http://www.w3.org/1999/02/22-rdf-syntax-ns#">
   <cc:Work>
    <dc:type rdf:resource="http://purl.org/dc/dcmitype/StillImage"/>
    <dc:date>2022-04-27T00:14:50.895437</dc:date>
    <dc:format>image/svg+xml</dc:format>
    <dc:creator>
     <cc:Agent>
      <dc:title>Matplotlib v3.5.1, https://matplotlib.org/</dc:title>
     </cc:Agent>
    </dc:creator>
   </cc:Work>
  </rdf:RDF>
 </metadata>
 <defs>
  <style type="text/css">*{stroke-linejoin: round; stroke-linecap: butt}</style>
 </defs>
 <g id="figure_1">
  <g id="patch_1">
   <path d="M 0 255.11811 
L 510.23622 255.11811 
L 510.23622 0 
L 0 0 
z
" style="fill: #ffffff"/>
  </g>
  <g id="axes_1">
   <g id="patch_2">
    <path d="M 47.22 213.89811 
L 500.51622 213.89811 
L 500.51622 24.32 
L 47.22 24.32 
z
" style="fill: #ffffff"/>
   </g>
   <g id="matplotlib.axis_1">
    <g id="xtick_1">
     <g id="text_1">
      <!-- 49 -->
      <g style="fill: #444444" transform="translate(74.593458 229.840141)scale(0.09 -0.09)">
       <defs>
        <path id="ArialMT-34" d="M 2069 0 
L 2069 1097 
L 81 1097 
L 81 1613 
L 2172 4581 
L 2631 4581 
L 2631 1613 
L 3250 1613 
L 3250 1097 
L 2631 1097 
L 2631 0 
L 2069 0 
z
M 2069 1613 
L 2069 3678 
L 634 1613 
L 2069 1613 
z
" transform="scale(0.015625)"/>
        <path id="ArialMT-39" d="M 350 1059 
L 891 1109 
Q 959 728 1153 556 
Q 1347 384 1650 384 
Q 1909 384 2104 503 
Q 2300 622 2425 820 
Q 2550 1019 2634 1356 
Q 2719 1694 2719 2044 
Q 2719 2081 2716 2156 
Q 2547 1888 2255 1720 
Q 1963 1553 1622 1553 
Q 1053 1553 659 1965 
Q 266 2378 266 3053 
Q 266 3750 677 4175 
Q 1088 4600 1706 4600 
Q 2153 4600 2523 4359 
Q 2894 4119 3086 3673 
Q 3278 3228 3278 2384 
Q 3278 1506 3087 986 
Q 2897 466 2520 194 
Q 2144 -78 1638 -78 
Q 1100 -78 759 220 
Q 419 519 350 1059 
z
M 2653 3081 
Q 2653 3566 2395 3850 
Q 2138 4134 1775 4134 
Q 1400 4134 1122 3828 
Q 844 3522 844 3034 
Q 844 2597 1108 2323 
Q 1372 2050 1759 2050 
Q 2150 2050 2401 2323 
Q 2653 2597 2653 3081 
z
" transform="scale(0.015625)"/>
       </defs>
       <use xlink:href="#ArialMT-34"/>
       <use xlink:href="#ArialMT-39" x="55.615234"/>
      </g>
     </g>
    </g>
    <g id="xtick_2">
     <g id="text_2">
      <!-- 17 -->
      <g style="fill: #444444" transform="translate(139.350061 229.840141)scale(0.09 -0.09)">
       <defs>
        <path id="ArialMT-31" d="M 2384 0 
L 1822 0 
L 1822 3584 
Q 1619 3391 1289 3197 
Q 959 3003 697 2906 
L 697 3450 
Q 1169 3672 1522 3987 
Q 1875 4303 2022 4600 
L 2384 4600 
L 2384 0 
z
" transform="scale(0.015625)"/>
        <path id="ArialMT-37" d="M 303 3981 
L 303 4522 
L 3269 4522 
L 3269 4084 
Q 2831 3619 2401 2847 
Q 1972 2075 1738 1259 
Q 1569 684 1522 0 
L 944 0 
Q 953 541 1156 1306 
Q 1359 2072 1739 2783 
Q 2119 3494 2547 3981 
L 303 3981 
z
" transform="scale(0.015625)"/>
       </defs>
       <use xlink:href="#ArialMT-31"/>
       <use xlink:href="#ArialMT-37" x="55.615234"/>
      </g>
     </g>
    </g>
    <g id="xtick_3">
     <g id="text_3">
      <!-- 69 -->
      <g style="fill: #444444" transform="translate(204.106664 229.840141)scale(0.09 -0.09)">
       <defs>
        <path id="ArialMT-36" d="M 3184 3459 
L 2625 3416 
Q 2550 3747 2413 3897 
Q 2184 4138 1850 4138 
Q 1581 4138 1378 3988 
Q 1113 3794 959 3422 
Q 806 3050 800 2363 
Q 1003 2672 1297 2822 
Q 1591 2972 1913 2972 
Q 2475 2972 2870 2558 
Q 3266 2144 3266 1488 
Q 3266 1056 3080 686 
Q 2894 316 2569 119 
Q 2244 -78 1831 -78 
Q 1128 -78 684 439 
Q 241 956 241 2144 
Q 241 3472 731 4075 
Q 1159 4600 1884 4600 
Q 2425 4600 2770 4297 
Q 3116 3994 3184 3459 
z
M 888 1484 
Q 888 1194 1011 928 
Q 1134 663 1356 523 
Q 1578 384 1822 384 
Q 2178 384 2434 671 
Q 2691 959 2691 1453 
Q 2691 1928 2437 2201 
Q 2184 2475 1800 2475 
Q 1419 2475 1153 2201 
Q 888 1928 888 1484 
z
" transform="scale(0.015625)"/>
       </defs>
       <use xlink:href="#ArialMT-36"/>
       <use xlink:href="#ArialMT-39" x="55.615234"/>
      </g>
     </g>
    </g>
    <g id="xtick_4">
     <g id="text_4">
      <!-- 15 -->
      <g style="fill: #444444" transform="translate(268.863266 229.840141)scale(0.09 -0.09)">
       <defs>
        <path id="ArialMT-35" d="M 266 1200 
L 856 1250 
Q 922 819 1161 601 
Q 1400 384 1738 384 
Q 2144 384 2425 690 
Q 2706 997 2706 1503 
Q 2706 1984 2436 2262 
Q 2166 2541 1728 2541 
Q 1456 2541 1237 2417 
Q 1019 2294 894 2097 
L 366 2166 
L 809 4519 
L 3088 4519 
L 3088 3981 
L 1259 3981 
L 1013 2750 
Q 1425 3038 1878 3038 
Q 2478 3038 2890 2622 
Q 3303 2206 3303 1553 
Q 3303 931 2941 478 
Q 2500 -78 1738 -78 
Q 1113 -78 717 272 
Q 322 622 266 1200 
z
" transform="scale(0.015625)"/>
       </defs>
       <use xlink:href="#ArialMT-31"/>
       <use xlink:href="#ArialMT-35" x="55.615234"/>
      </g>
     </g>
    </g>
    <g id="xtick_5">
     <g id="text_5">
      <!-- 5 -->
      <g style="fill: #444444" transform="translate(336.122291 229.840141)scale(0.09 -0.09)">
       <use xlink:href="#ArialMT-35"/>
      </g>
     </g>
    </g>
    <g id="xtick_6">
     <g id="text_6">
      <!-- 126 -->
      <g style="fill: #444444" transform="translate(395.87405 229.840141)scale(0.09 -0.09)">
       <defs>
        <path id="ArialMT-32" d="M 3222 541 
L 3222 0 
L 194 0 
Q 188 203 259 391 
Q 375 700 629 1000 
Q 884 1300 1366 1694 
Q 2113 2306 2375 2664 
Q 2638 3022 2638 3341 
Q 2638 3675 2398 3904 
Q 2159 4134 1775 4134 
Q 1369 4134 1125 3890 
Q 881 3647 878 3216 
L 300 3275 
Q 359 3922 746 4261 
Q 1134 4600 1788 4600 
Q 2447 4600 2831 4234 
Q 3216 3869 3216 3328 
Q 3216 3053 3103 2787 
Q 2991 2522 2730 2228 
Q 2469 1934 1863 1422 
Q 1356 997 1212 845 
Q 1069 694 975 541 
L 3222 541 
z
" transform="scale(0.015625)"/>
       </defs>
       <use xlink:href="#ArialMT-31"/>
       <use xlink:href="#ArialMT-32" x="55.615234"/>
       <use xlink:href="#ArialMT-36" x="111.230469"/>
      </g>
     </g>
    </g>
    <g id="xtick_7">
     <g id="text_7">
      <!-- 62 -->
      <g style="fill: #444444" transform="translate(463.133075 229.840141)scale(0.09 -0.09)">
       <use xlink:href="#ArialMT-36"/>
       <use xlink:href="#ArialMT-32" x="55.615234"/>
      </g>
     </g>
    </g>
    <g id="text_8">
     <!-- Patient -->
     <g style="fill: #444444" transform="translate(259.859048 242.070923)scale(0.09 -0.09)">
      <defs>
       <path id="ArialMT-50" d="M 494 0 
L 494 4581 
L 2222 4581 
Q 2678 4581 2919 4538 
Q 3256 4481 3484 4323 
Q 3713 4166 3852 3881 
Q 3991 3597 3991 3256 
Q 3991 2672 3619 2267 
Q 3247 1863 2275 1863 
L 1100 1863 
L 1100 0 
L 494 0 
z
M 1100 2403 
L 2284 2403 
Q 2872 2403 3119 2622 
Q 3366 2841 3366 3238 
Q 3366 3525 3220 3729 
Q 3075 3934 2838 4000 
Q 2684 4041 2272 4041 
L 1100 4041 
L 1100 2403 
z
" transform="scale(0.015625)"/>
       <path id="ArialMT-61" d="M 2588 409 
Q 2275 144 1986 34 
Q 1697 -75 1366 -75 
Q 819 -75 525 192 
Q 231 459 231 875 
Q 231 1119 342 1320 
Q 453 1522 633 1644 
Q 813 1766 1038 1828 
Q 1203 1872 1538 1913 
Q 2219 1994 2541 2106 
Q 2544 2222 2544 2253 
Q 2544 2597 2384 2738 
Q 2169 2928 1744 2928 
Q 1347 2928 1158 2789 
Q 969 2650 878 2297 
L 328 2372 
Q 403 2725 575 2942 
Q 747 3159 1072 3276 
Q 1397 3394 1825 3394 
Q 2250 3394 2515 3294 
Q 2781 3194 2906 3042 
Q 3031 2891 3081 2659 
Q 3109 2516 3109 2141 
L 3109 1391 
Q 3109 606 3145 398 
Q 3181 191 3288 0 
L 2700 0 
Q 2613 175 2588 409 
z
M 2541 1666 
Q 2234 1541 1622 1453 
Q 1275 1403 1131 1340 
Q 988 1278 909 1158 
Q 831 1038 831 891 
Q 831 666 1001 516 
Q 1172 366 1500 366 
Q 1825 366 2078 508 
Q 2331 650 2450 897 
Q 2541 1088 2541 1459 
L 2541 1666 
z
" transform="scale(0.015625)"/>
       <path id="ArialMT-74" d="M 1650 503 
L 1731 6 
Q 1494 -44 1306 -44 
Q 1000 -44 831 53 
Q 663 150 594 308 
Q 525 466 525 972 
L 525 2881 
L 113 2881 
L 113 3319 
L 525 3319 
L 525 4141 
L 1084 4478 
L 1084 3319 
L 1650 3319 
L 1650 2881 
L 1084 2881 
L 1084 941 
Q 1084 700 1114 631 
Q 1144 563 1211 522 
Q 1278 481 1403 481 
Q 1497 481 1650 503 
z
" transform="scale(0.015625)"/>
       <path id="ArialMT-69" d="M 425 3934 
L 425 4581 
L 988 4581 
L 988 3934 
L 425 3934 
z
M 425 0 
L 425 3319 
L 988 3319 
L 988 0 
L 425 0 
z
" transform="scale(0.015625)"/>
       <path id="ArialMT-65" d="M 2694 1069 
L 3275 997 
Q 3138 488 2766 206 
Q 2394 -75 1816 -75 
Q 1088 -75 661 373 
Q 234 822 234 1631 
Q 234 2469 665 2931 
Q 1097 3394 1784 3394 
Q 2450 3394 2872 2941 
Q 3294 2488 3294 1666 
Q 3294 1616 3291 1516 
L 816 1516 
Q 847 969 1125 678 
Q 1403 388 1819 388 
Q 2128 388 2347 550 
Q 2566 713 2694 1069 
z
M 847 1978 
L 2700 1978 
Q 2663 2397 2488 2606 
Q 2219 2931 1791 2931 
Q 1403 2931 1139 2672 
Q 875 2413 847 1978 
z
" transform="scale(0.015625)"/>
       <path id="ArialMT-6e" d="M 422 0 
L 422 3319 
L 928 3319 
L 928 2847 
Q 1294 3394 1984 3394 
Q 2284 3394 2536 3286 
Q 2788 3178 2913 3003 
Q 3038 2828 3088 2588 
Q 3119 2431 3119 2041 
L 3119 0 
L 2556 0 
L 2556 2019 
Q 2556 2363 2490 2533 
Q 2425 2703 2258 2804 
Q 2091 2906 1866 2906 
Q 1506 2906 1245 2678 
Q 984 2450 984 1813 
L 984 0 
L 422 0 
z
" transform="scale(0.015625)"/>
      </defs>
      <use xlink:href="#ArialMT-50"/>
      <use xlink:href="#ArialMT-61" x="66.699219"/>
      <use xlink:href="#ArialMT-74" x="122.314453"/>
      <use xlink:href="#ArialMT-69" x="150.097656"/>
      <use xlink:href="#ArialMT-65" x="172.314453"/>
      <use xlink:href="#ArialMT-6e" x="227.929688"/>
      <use xlink:href="#ArialMT-74" x="283.544922"/>
     </g>
    </g>
   </g>
   <g id="matplotlib.axis_2">
    <g id="ytick_1">
     <g id="text_9">
      <!-- 20 -->
      <g style="fill: #444444" transform="translate(27.710313 194.908116)scale(0.09 -0.09)">
       <defs>
        <path id="ArialMT-30" d="M 266 2259 
Q 266 3072 433 3567 
Q 600 4063 929 4331 
Q 1259 4600 1759 4600 
Q 2128 4600 2406 4451 
Q 2684 4303 2865 4023 
Q 3047 3744 3150 3342 
Q 3253 2941 3253 2259 
Q 3253 1453 3087 958 
Q 2922 463 2592 192 
Q 2263 -78 1759 -78 
Q 1097 -78 719 397 
Q 266 969 266 2259 
z
M 844 2259 
Q 844 1131 1108 757 
Q 1372 384 1759 384 
Q 2147 384 2411 759 
Q 2675 1134 2675 2259 
Q 2675 3391 2411 3762 
Q 2147 4134 1753 4134 
Q 1366 4134 1134 3806 
Q 844 3388 844 2259 
z
" transform="scale(0.015625)"/>
       </defs>
       <use xlink:href="#ArialMT-32"/>
       <use xlink:href="#ArialMT-30" x="55.615234"/>
      </g>
     </g>
    </g>
    <g id="ytick_2">
     <g id="text_10">
      <!-- 40 -->
      <g style="fill: #444444" transform="translate(27.710313 154.332314)scale(0.09 -0.09)">
       <use xlink:href="#ArialMT-34"/>
       <use xlink:href="#ArialMT-30" x="55.615234"/>
      </g>
     </g>
    </g>
    <g id="ytick_3">
     <g id="text_11">
      <!-- 60 -->
      <g style="fill: #444444" transform="translate(27.710313 113.756512)scale(0.09 -0.09)">
       <use xlink:href="#ArialMT-36"/>
       <use xlink:href="#ArialMT-30" x="55.615234"/>
      </g>
     </g>
    </g>
    <g id="ytick_4">
     <g id="text_12">
      <!-- 80 -->
      <g style="fill: #444444" transform="translate(27.710313 73.180709)scale(0.09 -0.09)">
       <defs>
        <path id="ArialMT-38" d="M 1131 2484 
Q 781 2613 612 2850 
Q 444 3088 444 3419 
Q 444 3919 803 4259 
Q 1163 4600 1759 4600 
Q 2359 4600 2725 4251 
Q 3091 3903 3091 3403 
Q 3091 3084 2923 2848 
Q 2756 2613 2416 2484 
Q 2838 2347 3058 2040 
Q 3278 1734 3278 1309 
Q 3278 722 2862 322 
Q 2447 -78 1769 -78 
Q 1091 -78 675 323 
Q 259 725 259 1325 
Q 259 1772 486 2073 
Q 713 2375 1131 2484 
z
M 1019 3438 
Q 1019 3113 1228 2906 
Q 1438 2700 1772 2700 
Q 2097 2700 2305 2904 
Q 2513 3109 2513 3406 
Q 2513 3716 2298 3927 
Q 2084 4138 1766 4138 
Q 1444 4138 1231 3931 
Q 1019 3725 1019 3438 
z
M 838 1322 
Q 838 1081 952 856 
Q 1066 631 1291 507 
Q 1516 384 1775 384 
Q 2178 384 2440 643 
Q 2703 903 2703 1303 
Q 2703 1709 2433 1975 
Q 2163 2241 1756 2241 
Q 1359 2241 1098 1978 
Q 838 1716 838 1322 
z
" transform="scale(0.015625)"/>
       </defs>
       <use xlink:href="#ArialMT-38"/>
       <use xlink:href="#ArialMT-30" x="55.615234"/>
      </g>
     </g>
    </g>
    <g id="ytick_5">
     <g id="text_13">
      <!-- 100 -->
      <g style="fill: #444444" transform="translate(22.705469 32.604907)scale(0.09 -0.09)">
       <use xlink:href="#ArialMT-31"/>
       <use xlink:href="#ArialMT-30" x="55.615234"/>
       <use xlink:href="#ArialMT-30" x="111.230469"/>
      </g>
     </g>
    </g>
    <g id="text_14">
     <!-- Trimmed Means of M values (TMM) -->
     <g style="fill: #444444" transform="translate(16.81125 190.194993)rotate(-90)scale(0.09 -0.09)">
      <defs>
       <path id="ArialMT-54" d="M 1659 0 
L 1659 4041 
L 150 4041 
L 150 4581 
L 3781 4581 
L 3781 4041 
L 2266 4041 
L 2266 0 
L 1659 0 
z
" transform="scale(0.015625)"/>
       <path id="ArialMT-72" d="M 416 0 
L 416 3319 
L 922 3319 
L 922 2816 
Q 1116 3169 1280 3281 
Q 1444 3394 1641 3394 
Q 1925 3394 2219 3213 
L 2025 2691 
Q 1819 2813 1613 2813 
Q 1428 2813 1281 2702 
Q 1134 2591 1072 2394 
Q 978 2094 978 1738 
L 978 0 
L 416 0 
z
" transform="scale(0.015625)"/>
       <path id="ArialMT-6d" d="M 422 0 
L 422 3319 
L 925 3319 
L 925 2853 
Q 1081 3097 1340 3245 
Q 1600 3394 1931 3394 
Q 2300 3394 2536 3241 
Q 2772 3088 2869 2813 
Q 3263 3394 3894 3394 
Q 4388 3394 4653 3120 
Q 4919 2847 4919 2278 
L 4919 0 
L 4359 0 
L 4359 2091 
Q 4359 2428 4304 2576 
Q 4250 2725 4106 2815 
Q 3963 2906 3769 2906 
Q 3419 2906 3187 2673 
Q 2956 2441 2956 1928 
L 2956 0 
L 2394 0 
L 2394 2156 
Q 2394 2531 2256 2718 
Q 2119 2906 1806 2906 
Q 1569 2906 1367 2781 
Q 1166 2656 1075 2415 
Q 984 2175 984 1722 
L 984 0 
L 422 0 
z
" transform="scale(0.015625)"/>
       <path id="ArialMT-64" d="M 2575 0 
L 2575 419 
Q 2259 -75 1647 -75 
Q 1250 -75 917 144 
Q 584 363 401 755 
Q 219 1147 219 1656 
Q 219 2153 384 2558 
Q 550 2963 881 3178 
Q 1213 3394 1622 3394 
Q 1922 3394 2156 3267 
Q 2391 3141 2538 2938 
L 2538 4581 
L 3097 4581 
L 3097 0 
L 2575 0 
z
M 797 1656 
Q 797 1019 1065 703 
Q 1334 388 1700 388 
Q 2069 388 2326 689 
Q 2584 991 2584 1609 
Q 2584 2291 2321 2609 
Q 2059 2928 1675 2928 
Q 1300 2928 1048 2622 
Q 797 2316 797 1656 
z
" transform="scale(0.015625)"/>
       <path id="ArialMT-20" transform="scale(0.015625)"/>
       <path id="ArialMT-4d" d="M 475 0 
L 475 4581 
L 1388 4581 
L 2472 1338 
Q 2622 884 2691 659 
Q 2769 909 2934 1394 
L 4031 4581 
L 4847 4581 
L 4847 0 
L 4263 0 
L 4263 3834 
L 2931 0 
L 2384 0 
L 1059 3900 
L 1059 0 
L 475 0 
z
" transform="scale(0.015625)"/>
       <path id="ArialMT-73" d="M 197 991 
L 753 1078 
Q 800 744 1014 566 
Q 1228 388 1613 388 
Q 2000 388 2187 545 
Q 2375 703 2375 916 
Q 2375 1106 2209 1216 
Q 2094 1291 1634 1406 
Q 1016 1563 777 1677 
Q 538 1791 414 1992 
Q 291 2194 291 2438 
Q 291 2659 392 2848 
Q 494 3038 669 3163 
Q 800 3259 1026 3326 
Q 1253 3394 1513 3394 
Q 1903 3394 2198 3281 
Q 2494 3169 2634 2976 
Q 2775 2784 2828 2463 
L 2278 2388 
Q 2241 2644 2061 2787 
Q 1881 2931 1553 2931 
Q 1166 2931 1000 2803 
Q 834 2675 834 2503 
Q 834 2394 903 2306 
Q 972 2216 1119 2156 
Q 1203 2125 1616 2013 
Q 2213 1853 2448 1751 
Q 2684 1650 2818 1456 
Q 2953 1263 2953 975 
Q 2953 694 2789 445 
Q 2625 197 2315 61 
Q 2006 -75 1616 -75 
Q 969 -75 630 194 
Q 291 463 197 991 
z
" transform="scale(0.015625)"/>
       <path id="ArialMT-6f" d="M 213 1659 
Q 213 2581 725 3025 
Q 1153 3394 1769 3394 
Q 2453 3394 2887 2945 
Q 3322 2497 3322 1706 
Q 3322 1066 3130 698 
Q 2938 331 2570 128 
Q 2203 -75 1769 -75 
Q 1072 -75 642 372 
Q 213 819 213 1659 
z
M 791 1659 
Q 791 1022 1069 705 
Q 1347 388 1769 388 
Q 2188 388 2466 706 
Q 2744 1025 2744 1678 
Q 2744 2294 2464 2611 
Q 2184 2928 1769 2928 
Q 1347 2928 1069 2612 
Q 791 2297 791 1659 
z
" transform="scale(0.015625)"/>
       <path id="ArialMT-66" d="M 556 0 
L 556 2881 
L 59 2881 
L 59 3319 
L 556 3319 
L 556 3672 
Q 556 4006 616 4169 
Q 697 4388 901 4523 
Q 1106 4659 1475 4659 
Q 1713 4659 2000 4603 
L 1916 4113 
Q 1741 4144 1584 4144 
Q 1328 4144 1222 4034 
Q 1116 3925 1116 3625 
L 1116 3319 
L 1763 3319 
L 1763 2881 
L 1116 2881 
L 1116 0 
L 556 0 
z
" transform="scale(0.015625)"/>
       <path id="ArialMT-76" d="M 1344 0 
L 81 3319 
L 675 3319 
L 1388 1331 
Q 1503 1009 1600 663 
Q 1675 925 1809 1294 
L 2547 3319 
L 3125 3319 
L 1869 0 
L 1344 0 
z
" transform="scale(0.015625)"/>
       <path id="ArialMT-6c" d="M 409 0 
L 409 4581 
L 972 4581 
L 972 0 
L 409 0 
z
" transform="scale(0.015625)"/>
       <path id="ArialMT-75" d="M 2597 0 
L 2597 488 
Q 2209 -75 1544 -75 
Q 1250 -75 995 37 
Q 741 150 617 320 
Q 494 491 444 738 
Q 409 903 409 1263 
L 409 3319 
L 972 3319 
L 972 1478 
Q 972 1038 1006 884 
Q 1059 663 1231 536 
Q 1403 409 1656 409 
Q 1909 409 2131 539 
Q 2353 669 2445 892 
Q 2538 1116 2538 1541 
L 2538 3319 
L 3100 3319 
L 3100 0 
L 2597 0 
z
" transform="scale(0.015625)"/>
       <path id="ArialMT-28" d="M 1497 -1347 
Q 1031 -759 709 28 
Q 388 816 388 1659 
Q 388 2403 628 3084 
Q 909 3875 1497 4659 
L 1900 4659 
Q 1522 4009 1400 3731 
Q 1209 3300 1100 2831 
Q 966 2247 966 1656 
Q 966 153 1900 -1347 
L 1497 -1347 
z
" transform="scale(0.015625)"/>
       <path id="ArialMT-29" d="M 791 -1347 
L 388 -1347 
Q 1322 153 1322 1656 
Q 1322 2244 1188 2822 
Q 1081 3291 891 3722 
Q 769 4003 388 4659 
L 791 4659 
Q 1378 3875 1659 3084 
Q 1900 2403 1900 1659 
Q 1900 816 1576 28 
Q 1253 -759 791 -1347 
z
" transform="scale(0.015625)"/>
      </defs>
      <use xlink:href="#ArialMT-54"/>
      <use xlink:href="#ArialMT-72" x="57.333984"/>
      <use xlink:href="#ArialMT-69" x="90.634766"/>
      <use xlink:href="#ArialMT-6d" x="112.851562"/>
      <use xlink:href="#ArialMT-6d" x="196.152344"/>
      <use xlink:href="#ArialMT-65" x="279.453125"/>
      <use xlink:href="#ArialMT-64" x="335.068359"/>
      <use xlink:href="#ArialMT-20" x="390.683594"/>
      <use xlink:href="#ArialMT-4d" x="418.466797"/>
      <use xlink:href="#ArialMT-65" x="501.767578"/>
      <use xlink:href="#ArialMT-61" x="557.382812"/>
      <use xlink:href="#ArialMT-6e" x="612.998047"/>
      <use xlink:href="#ArialMT-73" x="668.613281"/>
      <use xlink:href="#ArialMT-20" x="718.613281"/>
      <use xlink:href="#ArialMT-6f" x="746.396484"/>
      <use xlink:href="#ArialMT-66" x="802.011719"/>
      <use xlink:href="#ArialMT-20" x="829.794922"/>
      <use xlink:href="#ArialMT-4d" x="857.578125"/>
      <use xlink:href="#ArialMT-20" x="940.878906"/>
      <use xlink:href="#ArialMT-76" x="968.662109"/>
      <use xlink:href="#ArialMT-61" x="1018.662109"/>
      <use xlink:href="#ArialMT-6c" x="1074.277344"/>
      <use xlink:href="#ArialMT-75" x="1096.494141"/>
      <use xlink:href="#ArialMT-65" x="1152.109375"/>
      <use xlink:href="#ArialMT-73" x="1207.724609"/>
      <use xlink:href="#ArialMT-20" x="1257.724609"/>
      <use xlink:href="#ArialMT-28" x="1285.507812"/>
      <use xlink:href="#ArialMT-54" x="1318.808594"/>
      <use xlink:href="#ArialMT-4d" x="1379.892578"/>
      <use xlink:href="#ArialMT-4d" x="1463.193359"/>
      <use xlink:href="#ArialMT-29" x="1546.494141"/>
     </g>
    </g>
   </g>
   <g id="PolyCollection_1">
    <defs>
     <path id="m262dca24bf" d="M 89.928397 -49.837187 
L 69.268206 -49.837187 
L 69.078703 -50.226322 
L 68.898857 -50.615457 
L 68.729172 -51.004592 
L 68.570118 -51.393727 
L 68.422126 -51.782862 
L 68.285586 -52.171997 
L 68.160845 -52.561132 
L 68.048204 -52.950267 
L 67.947921 -53.339402 
L 67.860206 -53.728538 
L 67.785221 -54.117673 
L 67.723081 -54.506808 
L 67.673852 -54.895943 
L 67.637551 -55.285078 
L 67.61415 -55.674213 
L 67.603571 -56.063348 
L 67.605692 -56.452483 
L 67.620344 -56.841618 
L 67.647315 -57.230753 
L 67.68635 -57.619888 
L 67.737155 -58.009023 
L 67.799394 -58.398158 
L 67.872698 -58.787293 
L 67.95666 -59.176428 
L 68.050841 -59.565564 
L 68.154773 -59.954699 
L 68.26796 -60.343834 
L 68.389879 -60.732969 
L 68.519985 -61.122104 
L 68.657714 -61.511239 
L 68.802481 -61.900374 
L 68.953689 -62.289509 
L 69.110727 -62.678644 
L 69.272973 -63.067779 
L 69.439798 -63.456914 
L 69.61057 -63.846049 
L 69.784652 -64.235184 
L 69.96141 -64.624319 
L 70.140209 -65.013455 
L 70.320424 -65.40259 
L 70.501433 -65.791725 
L 70.682627 -66.18086 
L 70.863409 -66.569995 
L 71.043196 -66.95913 
L 71.221424 -67.348265 
L 71.397548 -67.7374 
L 71.571042 -68.126535 
L 71.741407 -68.51567 
L 71.90817 -68.904805 
L 72.070882 -69.29394 
L 72.229129 -69.683075 
L 72.382525 -70.07221 
L 72.530717 -70.461345 
L 72.673389 -70.850481 
L 72.810259 -71.239616 
L 72.941083 -71.628751 
L 73.065656 -72.017886 
L 73.183812 -72.407021 
L 73.295424 -72.796156 
L 73.400407 -73.185291 
L 73.498714 -73.574426 
L 73.590342 -73.963561 
L 73.675327 -74.352696 
L 73.753744 -74.741831 
L 73.82571 -75.130966 
L 73.891377 -75.520101 
L 73.950937 -75.909236 
L 74.004617 -76.298371 
L 74.052678 -76.687507 
L 74.095414 -77.076642 
L 74.133147 -77.465777 
L 74.16623 -77.854912 
L 74.195037 -78.244047 
L 74.219968 -78.633182 
L 74.241441 -79.022317 
L 74.259891 -79.411452 
L 74.275765 -79.800587 
L 74.289521 -80.189722 
L 74.301624 -80.578857 
L 74.312541 -80.967992 
L 74.32274 -81.357127 
L 74.332686 -81.746262 
L 74.342835 -82.135398 
L 74.353634 -82.524533 
L 74.365518 -82.913668 
L 74.378904 -83.302803 
L 74.39419 -83.691938 
L 74.411753 -84.081073 
L 74.431945 -84.470208 
L 74.455091 -84.859343 
L 74.481489 -85.248478 
L 74.511404 -85.637613 
L 74.545071 -86.026748 
L 74.582691 -86.415883 
L 74.624432 -86.805018 
L 74.670426 -87.194153 
L 74.720771 -87.583288 
L 74.775529 -87.972424 
L 74.834729 -88.361559 
L 84.361874 -88.361559 
L 84.361874 -88.361559 
L 84.421074 -87.972424 
L 84.475832 -87.583288 
L 84.526177 -87.194153 
L 84.572171 -86.805018 
L 84.613912 -86.415883 
L 84.651532 -86.026748 
L 84.685199 -85.637613 
L 84.715114 -85.248478 
L 84.741512 -84.859343 
L 84.764658 -84.470208 
L 84.78485 -84.081073 
L 84.802413 -83.691938 
L 84.817699 -83.302803 
L 84.831085 -82.913668 
L 84.842968 -82.524533 
L 84.853768 -82.135398 
L 84.863917 -81.746262 
L 84.873862 -81.357127 
L 84.884062 -80.967992 
L 84.894979 -80.578857 
L 84.907082 -80.189722 
L 84.920838 -79.800587 
L 84.936712 -79.411452 
L 84.955162 -79.022317 
L 84.976635 -78.633182 
L 85.001566 -78.244047 
L 85.030373 -77.854912 
L 85.063456 -77.465777 
L 85.101189 -77.076642 
L 85.143924 -76.687507 
L 85.191986 -76.298371 
L 85.245666 -75.909236 
L 85.305226 -75.520101 
L 85.370893 -75.130966 
L 85.442858 -74.741831 
L 85.521276 -74.352696 
L 85.60626 -73.963561 
L 85.697889 -73.574426 
L 85.796196 -73.185291 
L 85.901179 -72.796156 
L 86.012791 -72.407021 
L 86.130947 -72.017886 
L 86.25552 -71.628751 
L 86.386344 -71.239616 
L 86.523214 -70.850481 
L 86.665886 -70.461345 
L 86.814078 -70.07221 
L 86.967474 -69.683075 
L 87.12572 -69.29394 
L 87.288433 -68.904805 
L 87.455196 -68.51567 
L 87.625561 -68.126535 
L 87.799055 -67.7374 
L 87.975179 -67.348265 
L 88.153407 -66.95913 
L 88.333194 -66.569995 
L 88.513976 -66.18086 
L 88.69517 -65.791725 
L 88.876179 -65.40259 
L 89.056393 -65.013455 
L 89.235193 -64.624319 
L 89.41195 -64.235184 
L 89.586033 -63.846049 
L 89.756805 -63.456914 
L 89.92363 -63.067779 
L 90.085876 -62.678644 
L 90.242914 -62.289509 
L 90.394122 -61.900374 
L 90.538889 -61.511239 
L 90.676618 -61.122104 
L 90.806724 -60.732969 
L 90.928643 -60.343834 
L 91.04183 -59.954699 
L 91.145762 -59.565564 
L 91.239943 -59.176428 
L 91.323905 -58.787293 
L 91.397208 -58.398158 
L 91.459448 -58.009023 
L 91.510253 -57.619888 
L 91.549288 -57.230753 
L 91.576259 -56.841618 
L 91.590911 -56.452483 
L 91.593032 -56.063348 
L 91.582453 -55.674213 
L 91.559052 -55.285078 
L 91.522751 -54.895943 
L 91.473522 -54.506808 
L 91.411382 -54.117673 
L 91.336397 -53.728538 
L 91.248682 -53.339402 
L 91.148399 -52.950267 
L 91.035758 -52.561132 
L 90.911017 -52.171997 
L 90.774476 -51.782862 
L 90.626485 -51.393727 
L 90.467431 -51.004592 
L 90.297746 -50.615457 
L 90.1179 -50.226322 
L 89.928397 -49.837187 
z
" style="stroke: #999999; stroke-width: 2"/>
    </defs>
    <g clip-path="url(#p7f6e58759f)">
     <use xlink:href="#m262dca24bf" x="0" y="255.11811" style="fill: #ffffff; stroke: #999999; stroke-width: 2"/>
    </g>
   </g>
   <g id="PolyCollection_2">
    <defs>
     <path id="m9efcfae77f" d="M 154.267879 -54.957742 
L 134.44193 -54.957742 
L 134.137549 -55.146018 
L 133.832377 -55.334293 
L 133.526542 -55.522568 
L 133.220167 -55.710844 
L 132.913369 -55.899119 
L 132.606267 -56.087394 
L 132.298983 -56.275669 
L 131.99164 -56.463945 
L 131.684367 -56.65222 
L 131.3773 -56.840495 
L 131.070584 -57.02877 
L 130.76437 -57.217046 
L 130.458817 -57.405321 
L 130.15409 -57.593596 
L 129.850363 -57.781871 
L 129.547811 -57.970147 
L 129.246613 -58.158422 
L 128.946945 -58.346697 
L 128.648982 -58.534973 
L 128.352892 -58.723248 
L 128.058831 -58.911523 
L 127.766947 -59.099798 
L 127.477367 -59.288074 
L 127.190202 -59.476349 
L 126.905542 -59.664624 
L 126.623453 -59.852899 
L 126.343978 -60.041175 
L 126.067134 -60.22945 
L 125.792913 -60.417725 
L 125.521285 -60.606001 
L 125.252196 -60.794276 
L 124.985574 -60.982551 
L 124.721333 -61.170826 
L 124.459374 -61.359102 
L 124.199595 -61.547377 
L 123.941895 -61.735652 
L 123.686179 -61.923927 
L 123.43237 -62.112203 
L 123.180412 -62.300478 
L 122.930282 -62.488753 
L 122.681994 -62.677029 
L 122.435611 -62.865304 
L 122.19125 -63.053579 
L 121.949088 -63.241854 
L 121.709372 -63.43013 
L 121.47242 -63.618405 
L 121.238628 -63.80668 
L 121.008473 -63.994955 
L 120.782514 -64.183231 
L 120.561393 -64.371506 
L 120.345833 -64.559781 
L 120.136635 -64.748056 
L 119.934678 -64.936332 
L 119.740906 -65.124607 
L 119.556327 -65.312882 
L 119.382003 -65.501158 
L 119.219038 -65.689433 
L 119.068571 -65.877708 
L 118.931761 -66.065983 
L 118.809774 -66.254259 
L 118.703774 -66.442534 
L 118.614906 -66.630809 
L 118.544283 -66.819084 
L 118.492973 -67.00736 
L 118.461986 -67.195635 
L 118.452263 -67.38391 
L 118.46466 -67.572186 
L 118.499942 -67.760461 
L 118.558768 -67.948736 
L 118.641687 -68.137011 
L 118.74913 -68.325287 
L 118.881402 -68.513562 
L 119.03868 -68.701837 
L 119.221009 -68.890112 
L 119.428303 -69.078388 
L 119.660342 -69.266663 
L 119.916779 -69.454938 
L 120.197139 -69.643213 
L 120.500826 -69.831489 
L 120.827129 -70.019764 
L 121.175229 -70.208039 
L 121.544205 -70.396315 
L 121.933048 -70.58459 
L 122.340665 -70.772865 
L 122.765891 -70.96114 
L 123.207502 -71.149416 
L 123.66422 -71.337691 
L 124.134729 -71.525966 
L 124.617681 -71.714241 
L 125.111707 -71.902517 
L 125.615429 -72.090792 
L 126.127466 -72.279067 
L 126.646444 -72.467343 
L 127.171003 -72.655618 
L 127.699806 -72.843893 
L 128.231542 -73.032168 
L 128.764937 -73.220444 
L 129.298754 -73.408719 
L 129.831798 -73.596994 
L 158.878011 -73.596994 
L 158.878011 -73.596994 
L 159.411055 -73.408719 
L 159.944871 -73.220444 
L 160.478266 -73.032168 
L 161.010003 -72.843893 
L 161.538806 -72.655618 
L 162.063365 -72.467343 
L 162.582343 -72.279067 
L 163.09438 -72.090792 
L 163.598102 -71.902517 
L 164.092128 -71.714241 
L 164.57508 -71.525966 
L 165.045589 -71.337691 
L 165.502307 -71.149416 
L 165.943918 -70.96114 
L 166.369144 -70.772865 
L 166.776761 -70.58459 
L 167.165604 -70.396315 
L 167.53458 -70.208039 
L 167.88268 -70.019764 
L 168.208983 -69.831489 
L 168.51267 -69.643213 
L 168.79303 -69.454938 
L 169.049466 -69.266663 
L 169.281506 -69.078388 
L 169.488799 -68.890112 
L 169.671129 -68.701837 
L 169.828406 -68.513562 
L 169.960678 -68.325287 
L 170.068121 -68.137011 
L 170.151041 -67.948736 
L 170.209867 -67.760461 
L 170.245148 -67.572186 
L 170.257546 -67.38391 
L 170.247822 -67.195635 
L 170.216836 -67.00736 
L 170.165526 -66.819084 
L 170.094903 -66.630809 
L 170.006035 -66.442534 
L 169.900035 -66.254259 
L 169.778048 -66.065983 
L 169.641237 -65.877708 
L 169.49077 -65.689433 
L 169.327806 -65.501158 
L 169.153482 -65.312882 
L 168.968903 -65.124607 
L 168.775131 -64.936332 
L 168.573174 -64.748056 
L 168.363976 -64.559781 
L 168.148416 -64.371506 
L 167.927295 -64.183231 
L 167.701336 -63.994955 
L 167.471181 -63.80668 
L 167.237389 -63.618405 
L 167.000437 -63.43013 
L 166.76072 -63.241854 
L 166.518559 -63.053579 
L 166.274197 -62.865304 
L 166.027815 -62.677029 
L 165.779527 -62.488753 
L 165.529397 -62.300478 
L 165.277439 -62.112203 
L 165.02363 -61.923927 
L 164.767914 -61.735652 
L 164.510213 -61.547377 
L 164.250435 -61.359102 
L 163.988476 -61.170826 
L 163.724235 -60.982551 
L 163.457613 -60.794276 
L 163.188524 -60.606001 
L 162.916896 -60.417725 
L 162.642675 -60.22945 
L 162.365831 -60.041175 
L 162.086356 -59.852899 
L 161.804267 -59.664624 
L 161.519607 -59.476349 
L 161.232442 -59.288074 
L 160.942862 -59.099798 
L 160.650977 -58.911523 
L 160.356917 -58.723248 
L 160.060827 -58.534973 
L 159.762864 -58.346697 
L 159.463196 -58.158422 
L 159.161998 -57.970147 
L 158.859446 -57.781871 
L 158.555719 -57.593596 
L 158.250992 -57.405321 
L 157.945439 -57.217046 
L 157.639224 -57.02877 
L 157.332508 -56.840495 
L 157.025442 -56.65222 
L 156.718169 -56.463945 
L 156.410826 -56.275669 
L 156.103541 -56.087394 
L 155.79644 -55.899119 
L 155.489642 -55.710844 
L 155.183266 -55.522568 
L 154.877432 -55.334293 
L 154.57226 -55.146018 
L 154.267879 -54.957742 
z
" style="stroke: #999999; stroke-width: 2"/>
    </defs>
    <g clip-path="url(#p7f6e58759f)">
     <use xlink:href="#m9efcfae77f" x="0" y="255.11811" style="fill: #ffffff; stroke: #999999; stroke-width: 2"/>
    </g>
   </g>
   <g id="PolyCollection_3">
    <defs>
     <path id="m5012eebcb9" d="M 216.98718 -70.376926 
L 201.235834 -70.376926 
L 200.949451 -70.645914 
L 200.658503 -70.914903 
L 200.36317 -71.183891 
L 200.063669 -71.45288 
L 199.760256 -71.721868 
L 199.453229 -71.990857 
L 199.142931 -72.259845 
L 198.829755 -72.528834 
L 198.514143 -72.797822 
L 198.196593 -73.066811 
L 197.877654 -73.335799 
L 197.557934 -73.604788 
L 197.23809 -73.873777 
L 196.918837 -74.142765 
L 196.60094 -74.411754 
L 196.285213 -74.680742 
L 195.972513 -74.949731 
L 195.66374 -75.218719 
L 195.359827 -75.487708 
L 195.061736 -75.756696 
L 194.770452 -76.025685 
L 194.48697 -76.294673 
L 194.212294 -76.563662 
L 193.947421 -76.83265 
L 193.693337 -77.101639 
L 193.451005 -77.370627 
L 193.221353 -77.639616 
L 193.00527 -77.908604 
L 192.80359 -78.177593 
L 192.617088 -78.446581 
L 192.446467 -78.71557 
L 192.292351 -78.984558 
L 192.155278 -79.253547 
L 192.035692 -79.522535 
L 191.933939 -79.791524 
L 191.850258 -80.060512 
L 191.784781 -80.329501 
L 191.737529 -80.598489 
L 191.708411 -80.867478 
L 191.697223 -81.136466 
L 191.70365 -81.405455 
L 191.727268 -81.674443 
L 191.767548 -81.943432 
L 191.82386 -82.21242 
L 191.895481 -82.481409 
L 191.981602 -82.750397 
L 192.081333 -83.019386 
L 192.193716 -83.288375 
L 192.317734 -83.557363 
L 192.45232 -83.826352 
L 192.596368 -84.09534 
L 192.748746 -84.364329 
L 192.908309 -84.633317 
L 193.073907 -84.902306 
L 193.244396 -85.171294 
L 193.418655 -85.440283 
L 193.595593 -85.709271 
L 193.774159 -85.97826 
L 193.953355 -86.247248 
L 194.132241 -86.516237 
L 194.309949 -86.785225 
L 194.485684 -87.054214 
L 194.658737 -87.323202 
L 194.828485 -87.592191 
L 194.9944 -87.861179 
L 195.156048 -88.130168 
L 195.313094 -88.399156 
L 195.465303 -88.668145 
L 195.612538 -88.937133 
L 195.754759 -89.206122 
L 195.892022 -89.47511 
L 196.024476 -89.744099 
L 196.152355 -90.013087 
L 196.275977 -90.282076 
L 196.395735 -90.551064 
L 196.512092 -90.820053 
L 196.625572 -91.089041 
L 196.736752 -91.35803 
L 196.846254 -91.627018 
L 196.954737 -91.896007 
L 197.062885 -92.164996 
L 197.171401 -92.433984 
L 197.280996 -92.702973 
L 197.392378 -92.971961 
L 197.506248 -93.24095 
L 197.623284 -93.509938 
L 197.74414 -93.778927 
L 197.869432 -94.047915 
L 197.999736 -94.316904 
L 198.135576 -94.585892 
L 198.277421 -94.854881 
L 198.42568 -95.123869 
L 198.580694 -95.392858 
L 198.742736 -95.661846 
L 198.912008 -95.930835 
L 199.088637 -96.199823 
L 199.272674 -96.468812 
L 199.464095 -96.7378 
L 199.662803 -97.006789 
L 218.560212 -97.006789 
L 218.560212 -97.006789 
L 218.758919 -96.7378 
L 218.950341 -96.468812 
L 219.134377 -96.199823 
L 219.311006 -95.930835 
L 219.480279 -95.661846 
L 219.642321 -95.392858 
L 219.797335 -95.123869 
L 219.945593 -94.854881 
L 220.087438 -94.585892 
L 220.223278 -94.316904 
L 220.353582 -94.047915 
L 220.478875 -93.778927 
L 220.599731 -93.509938 
L 220.716767 -93.24095 
L 220.830636 -92.971961 
L 220.942019 -92.702973 
L 221.051613 -92.433984 
L 221.160129 -92.164996 
L 221.268278 -91.896007 
L 221.376761 -91.627018 
L 221.486263 -91.35803 
L 221.597443 -91.089041 
L 221.710922 -90.820053 
L 221.827279 -90.551064 
L 221.947038 -90.282076 
L 222.07066 -90.013087 
L 222.198539 -89.744099 
L 222.330992 -89.47511 
L 222.468256 -89.206122 
L 222.610477 -88.937133 
L 222.757711 -88.668145 
L 222.90992 -88.399156 
L 223.066967 -88.130168 
L 223.228615 -87.861179 
L 223.39453 -87.592191 
L 223.564278 -87.323202 
L 223.737331 -87.054214 
L 223.913066 -86.785225 
L 224.090773 -86.516237 
L 224.26966 -86.247248 
L 224.448855 -85.97826 
L 224.627421 -85.709271 
L 224.804359 -85.440283 
L 224.978619 -85.171294 
L 225.149108 -84.902306 
L 225.314705 -84.633317 
L 225.474268 -84.364329 
L 225.626647 -84.09534 
L 225.770695 -83.826352 
L 225.90528 -83.557363 
L 226.029298 -83.288375 
L 226.141682 -83.019386 
L 226.241413 -82.750397 
L 226.327533 -82.481409 
L 226.399155 -82.21242 
L 226.455467 -81.943432 
L 226.495746 -81.674443 
L 226.519364 -81.405455 
L 226.525791 -81.136466 
L 226.514604 -80.867478 
L 226.485486 -80.598489 
L 226.438234 -80.329501 
L 226.372757 -80.060512 
L 226.289076 -79.791524 
L 226.187322 -79.522535 
L 226.067737 -79.253547 
L 225.930664 -78.984558 
L 225.776548 -78.71557 
L 225.605926 -78.446581 
L 225.419424 -78.177593 
L 225.217745 -77.908604 
L 225.001662 -77.639616 
L 224.77201 -77.370627 
L 224.529677 -77.101639 
L 224.275593 -76.83265 
L 224.010721 -76.563662 
L 223.736044 -76.294673 
L 223.452563 -76.025685 
L 223.161278 -75.756696 
L 222.863188 -75.487708 
L 222.559275 -75.218719 
L 222.250502 -74.949731 
L 221.937802 -74.680742 
L 221.622074 -74.411754 
L 221.304177 -74.142765 
L 220.984925 -73.873777 
L 220.665081 -73.604788 
L 220.34536 -73.335799 
L 220.026422 -73.066811 
L 219.708872 -72.797822 
L 219.39326 -72.528834 
L 219.080083 -72.259845 
L 218.769785 -71.990857 
L 218.462758 -71.721868 
L 218.159345 -71.45288 
L 217.859845 -71.183891 
L 217.564512 -70.914903 
L 217.273563 -70.645914 
L 216.98718 -70.376926 
z
" style="stroke: #999999; stroke-width: 2"/>
    </defs>
    <g clip-path="url(#p7f6e58759f)">
     <use xlink:href="#m5012eebcb9" x="0" y="255.11811" style="fill: #ffffff; stroke: #999999; stroke-width: 2"/>
    </g>
   </g>
   <g id="PolyCollection_4">
    <defs>
     <path id="mf10a9782f7" d="M 276.773259 -87.446552 
L 270.962962 -87.446552 
L 270.864369 -88.15238 
L 270.766187 -88.858207 
L 270.668515 -89.564035 
L 270.57144 -90.269862 
L 270.475034 -90.97569 
L 270.379357 -91.681517 
L 270.284453 -92.387345 
L 270.190357 -93.093173 
L 270.097088 -93.799 
L 270.004658 -94.504828 
L 269.913067 -95.210655 
L 269.822307 -95.916483 
L 269.732363 -96.62231 
L 269.643214 -97.328138 
L 269.554836 -98.033965 
L 269.467204 -98.739793 
L 269.38029 -99.445621 
L 269.294068 -100.151448 
L 269.208516 -100.857276 
L 269.123615 -101.563103 
L 269.039352 -102.268931 
L 268.955722 -102.974758 
L 268.872727 -103.680586 
L 268.790379 -104.386413 
L 268.708698 -105.092241 
L 268.627715 -105.798069 
L 268.547474 -106.503896 
L 268.468025 -107.209724 
L 268.389431 -107.915551 
L 268.311766 -108.621379 
L 268.235112 -109.327206 
L 268.159558 -110.033034 
L 268.085204 -110.738861 
L 268.012155 -111.444689 
L 267.940522 -112.150517 
L 267.87042 -112.856344 
L 267.801968 -113.562172 
L 267.735286 -114.267999 
L 267.670496 -114.973827 
L 267.607719 -115.679654 
L 267.547077 -116.385482 
L 267.488686 -117.091309 
L 267.432664 -117.797137 
L 267.379123 -118.502965 
L 267.328173 -119.208792 
L 267.27992 -119.91462 
L 267.234468 -120.620447 
L 267.191916 -121.326275 
L 267.152363 -122.032102 
L 267.115904 -122.73793 
L 267.082635 -123.443757 
L 267.052648 -124.149585 
L 267.026038 -124.855413 
L 267.002901 -125.56124 
L 266.983334 -126.267068 
L 266.967437 -126.972895 
L 266.955312 -127.678723 
L 266.947065 -128.38455 
L 266.942805 -129.090378 
L 266.942643 -129.796205 
L 266.946696 -130.502033 
L 266.95508 -131.207861 
L 266.967913 -131.913688 
L 266.985313 -132.619516 
L 267.007396 -133.325343 
L 267.034276 -134.031171 
L 267.066061 -134.736998 
L 267.102852 -135.442826 
L 267.14474 -136.148653 
L 267.191805 -136.854481 
L 267.244113 -137.560309 
L 267.301714 -138.266136 
L 267.36464 -138.971964 
L 267.432903 -139.677791 
L 267.506493 -140.383619 
L 267.585376 -141.089446 
L 267.669494 -141.795274 
L 267.758764 -142.501102 
L 267.853077 -143.206929 
L 267.952296 -143.912757 
L 268.056261 -144.618584 
L 268.164784 -145.324412 
L 268.277655 -146.030239 
L 268.394638 -146.736067 
L 268.515479 -147.441894 
L 268.6399 -148.147722 
L 268.767608 -148.85355 
L 268.898294 -149.559377 
L 269.031636 -150.265205 
L 269.167301 -150.971032 
L 269.30495 -151.67686 
L 269.444236 -152.382687 
L 269.58481 -153.088515 
L 269.726325 -153.794342 
L 269.868433 -154.50017 
L 270.010792 -155.205998 
L 270.153066 -155.911825 
L 270.294927 -156.617653 
L 270.436059 -157.32348 
L 277.300161 -157.32348 
L 277.300161 -157.32348 
L 277.441293 -156.617653 
L 277.583155 -155.911825 
L 277.725429 -155.205998 
L 277.867788 -154.50017 
L 278.009895 -153.794342 
L 278.15141 -153.088515 
L 278.291985 -152.382687 
L 278.43127 -151.67686 
L 278.568919 -150.971032 
L 278.704585 -150.265205 
L 278.837927 -149.559377 
L 278.968613 -148.85355 
L 279.096321 -148.147722 
L 279.220742 -147.441894 
L 279.341582 -146.736067 
L 279.458565 -146.030239 
L 279.571436 -145.324412 
L 279.67996 -144.618584 
L 279.783924 -143.912757 
L 279.883144 -143.206929 
L 279.977456 -142.501102 
L 280.066726 -141.795274 
L 280.150844 -141.089446 
L 280.229727 -140.383619 
L 280.303317 -139.677791 
L 280.37158 -138.971964 
L 280.434507 -138.266136 
L 280.492108 -137.560309 
L 280.544416 -136.854481 
L 280.591481 -136.148653 
L 280.633369 -135.442826 
L 280.670159 -134.736998 
L 280.701944 -134.031171 
L 280.728824 -133.325343 
L 280.750908 -132.619516 
L 280.768308 -131.913688 
L 280.781141 -131.207861 
L 280.789524 -130.502033 
L 280.793577 -129.796205 
L 280.793416 -129.090378 
L 280.789156 -128.38455 
L 280.780909 -127.678723 
L 280.768784 -126.972895 
L 280.752886 -126.267068 
L 280.733319 -125.56124 
L 280.710183 -124.855413 
L 280.683573 -124.149585 
L 280.653586 -123.443757 
L 280.620316 -122.73793 
L 280.583857 -122.032102 
L 280.544304 -121.326275 
L 280.501753 -120.620447 
L 280.456301 -119.91462 
L 280.408048 -119.208792 
L 280.357098 -118.502965 
L 280.303557 -117.797137 
L 280.247534 -117.091309 
L 280.189144 -116.385482 
L 280.128501 -115.679654 
L 280.065725 -114.973827 
L 280.000935 -114.267999 
L 279.934253 -113.562172 
L 279.865801 -112.856344 
L 279.795699 -112.150517 
L 279.724065 -111.444689 
L 279.651016 -110.738861 
L 279.576662 -110.033034 
L 279.501109 -109.327206 
L 279.424454 -108.621379 
L 279.346789 -107.915551 
L 279.268196 -107.209724 
L 279.188747 -106.503896 
L 279.108505 -105.798069 
L 279.027523 -105.092241 
L 278.945842 -104.386413 
L 278.863493 -103.680586 
L 278.780498 -102.974758 
L 278.696868 -102.268931 
L 278.612606 -101.563103 
L 278.527705 -100.857276 
L 278.442153 -100.151448 
L 278.355931 -99.445621 
L 278.269017 -98.739793 
L 278.181384 -98.033965 
L 278.093007 -97.328138 
L 278.003858 -96.62231 
L 277.913914 -95.916483 
L 277.823153 -95.210655 
L 277.731562 -94.504828 
L 277.639132 -93.799 
L 277.545864 -93.093173 
L 277.451767 -92.387345 
L 277.356864 -91.681517 
L 277.261186 -90.97569 
L 277.16478 -90.269862 
L 277.067706 -89.564035 
L 276.970034 -88.858207 
L 276.871852 -88.15238 
L 276.773259 -87.446552 
z
" style="stroke: #999999; stroke-width: 2"/>
    </defs>
    <g clip-path="url(#p7f6e58759f)">
     <use xlink:href="#mf10a9782f7" x="0" y="255.11811" style="fill: #ffffff; stroke: #999999; stroke-width: 2"/>
    </g>
   </g>
   <g id="PolyCollection_5">
    <defs>
     <path id="mc6111d3fde" d="M 356.436146 -59.399639 
L 320.813281 -59.399639 
L 320.526598 -59.586685 
L 320.251559 -59.773731 
L 319.988465 -59.960777 
L 319.737569 -60.147823 
L 319.499073 -60.334869 
L 319.273132 -60.521915 
L 319.059849 -60.70896 
L 318.859283 -60.896006 
L 318.671445 -61.083052 
L 318.496302 -61.270098 
L 318.333782 -61.457144 
L 318.183771 -61.64419 
L 318.046122 -61.831235 
L 317.920651 -62.018281 
L 317.807148 -62.205327 
L 317.705375 -62.392373 
L 317.615072 -62.579419 
L 317.535958 -62.766465 
L 317.467737 -62.95351 
L 317.410103 -63.140556 
L 317.362739 -63.327602 
L 317.325324 -63.514648 
L 317.297534 -63.701694 
L 317.279047 -63.88874 
L 317.269546 -64.075785 
L 317.268719 -64.262831 
L 317.276264 -64.449877 
L 317.291891 -64.636923 
L 317.315322 -64.823969 
L 317.346293 -65.011015 
L 317.384556 -65.198061 
L 317.429881 -65.385106 
L 317.482052 -65.572152 
L 317.540872 -65.759198 
L 317.60616 -65.946244 
L 317.677753 -66.13329 
L 317.755501 -66.320336 
L 317.83927 -66.507381 
L 317.928939 -66.694427 
L 318.0244 -66.881473 
L 318.125554 -67.068519 
L 318.232311 -67.255565 
L 318.344587 -67.442611 
L 318.462304 -67.629656 
L 318.585384 -67.816702 
L 318.713754 -68.003748 
L 318.847335 -68.190794 
L 318.986049 -68.37784 
L 319.12981 -68.564886 
L 319.278528 -68.751931 
L 319.432103 -68.938977 
L 319.590427 -69.126023 
L 319.753381 -69.313069 
L 319.920835 -69.500115 
L 320.092648 -69.687161 
L 320.268666 -69.874206 
L 320.448723 -70.061252 
L 320.632641 -70.248298 
L 320.82023 -70.435344 
L 321.01129 -70.62239 
L 321.205611 -70.809436 
L 321.402973 -70.996482 
L 321.603148 -71.183527 
L 321.805903 -71.370573 
L 322.011 -71.557619 
L 322.218199 -71.744665 
L 322.427258 -71.931711 
L 322.637937 -72.118757 
L 322.849997 -72.305802 
L 323.063207 -72.492848 
L 323.277341 -72.679894 
L 323.492181 -72.86694 
L 323.707521 -73.053986 
L 323.923168 -73.241032 
L 324.13894 -73.428077 
L 324.354671 -73.615123 
L 324.570213 -73.802169 
L 324.785433 -73.989215 
L 325.000215 -74.176261 
L 325.214465 -74.363307 
L 325.428103 -74.550352 
L 325.64107 -74.737398 
L 325.853324 -74.924444 
L 326.064842 -75.11149 
L 326.275615 -75.298536 
L 326.485654 -75.485582 
L 326.69498 -75.672628 
L 326.90363 -75.859673 
L 327.111652 -76.046719 
L 327.319104 -76.233765 
L 327.526052 -76.420811 
L 327.732568 -76.607857 
L 327.938727 -76.794903 
L 328.144608 -76.981948 
L 328.350289 -77.168994 
L 328.555846 -77.35604 
L 328.761351 -77.543086 
L 328.966869 -77.730132 
L 329.17246 -77.917178 
L 348.076966 -77.917178 
L 348.076966 -77.917178 
L 348.282557 -77.730132 
L 348.488076 -77.543086 
L 348.69358 -77.35604 
L 348.899137 -77.168994 
L 349.104818 -76.981948 
L 349.310699 -76.794903 
L 349.516859 -76.607857 
L 349.723374 -76.420811 
L 349.930322 -76.233765 
L 350.137774 -76.046719 
L 350.345796 -75.859673 
L 350.554446 -75.672628 
L 350.763773 -75.485582 
L 350.973811 -75.298536 
L 351.184585 -75.11149 
L 351.396102 -74.924444 
L 351.608357 -74.737398 
L 351.821323 -74.550352 
L 352.034962 -74.363307 
L 352.249211 -74.176261 
L 352.463994 -73.989215 
L 352.679213 -73.802169 
L 352.894755 -73.615123 
L 353.110487 -73.428077 
L 353.326258 -73.241032 
L 353.541905 -73.053986 
L 353.757245 -72.86694 
L 353.972086 -72.679894 
L 354.186219 -72.492848 
L 354.399429 -72.305802 
L 354.611489 -72.118757 
L 354.822168 -71.931711 
L 355.031227 -71.744665 
L 355.238426 -71.557619 
L 355.443523 -71.370573 
L 355.646279 -71.183527 
L 355.846454 -70.996482 
L 356.043815 -70.809436 
L 356.238136 -70.62239 
L 356.429196 -70.435344 
L 356.616786 -70.248298 
L 356.800704 -70.061252 
L 356.98076 -69.874206 
L 357.156778 -69.687161 
L 357.328591 -69.500115 
L 357.496045 -69.313069 
L 357.658999 -69.126023 
L 357.817323 -68.938977 
L 357.970898 -68.751931 
L 358.119616 -68.564886 
L 358.263377 -68.37784 
L 358.402091 -68.190794 
L 358.535673 -68.003748 
L 358.664042 -67.816702 
L 358.787123 -67.629656 
L 358.904839 -67.442611 
L 359.017115 -67.255565 
L 359.123872 -67.068519 
L 359.225026 -66.881473 
L 359.320487 -66.694427 
L 359.410157 -66.507381 
L 359.493926 -66.320336 
L 359.571673 -66.13329 
L 359.643266 -65.946244 
L 359.708554 -65.759198 
L 359.767375 -65.572152 
L 359.819546 -65.385106 
L 359.86487 -65.198061 
L 359.903133 -65.011015 
L 359.934104 -64.823969 
L 359.957535 -64.636923 
L 359.973162 -64.449877 
L 359.980707 -64.262831 
L 359.979881 -64.075785 
L 359.970379 -63.88874 
L 359.951893 -63.701694 
L 359.924103 -63.514648 
L 359.886687 -63.327602 
L 359.839323 -63.140556 
L 359.781689 -62.95351 
L 359.713469 -62.766465 
L 359.634355 -62.579419 
L 359.544051 -62.392373 
L 359.442278 -62.205327 
L 359.328775 -62.018281 
L 359.203305 -61.831235 
L 359.065655 -61.64419 
L 358.915644 -61.457144 
L 358.753124 -61.270098 
L 358.577982 -61.083052 
L 358.390143 -60.896006 
L 358.189577 -60.70896 
L 357.976295 -60.521915 
L 357.750353 -60.334869 
L 357.511858 -60.147823 
L 357.260962 -59.960777 
L 356.997867 -59.773731 
L 356.722828 -59.586685 
L 356.436146 -59.399639 
z
" style="stroke: #999999; stroke-width: 2"/>
    </defs>
    <g clip-path="url(#p7f6e58759f)">
     <use xlink:href="#mc6111d3fde" x="0" y="255.11811" style="fill: #ffffff; stroke: #999999; stroke-width: 2"/>
    </g>
   </g>
   <g id="PolyCollection_6">
    <defs>
     <path id="m8f136b7e29" d="M 407.988167 -150.296664 
L 398.774465 -150.296664 
L 398.655466 -151.022768 
L 398.539562 -151.748872 
L 398.427082 -152.474975 
L 398.318347 -153.201079 
L 398.213663 -153.927183 
L 398.113322 -154.653286 
L 398.0176 -155.37939 
L 397.926756 -156.105493 
L 397.841027 -156.831597 
L 397.760632 -157.557701 
L 397.685766 -158.283804 
L 397.616601 -159.009908 
L 397.553285 -159.736012 
L 397.495939 -160.462115 
L 397.444661 -161.188219 
L 397.399521 -161.914322 
L 397.360564 -162.640426 
L 397.327806 -163.36653 
L 397.301239 -164.092633 
L 397.280829 -164.818737 
L 397.266516 -165.544841 
L 397.258216 -166.270944 
L 397.255819 -166.997048 
L 397.259195 -167.723151 
L 397.268191 -168.449255 
L 397.282634 -169.175359 
L 397.30233 -169.901462 
L 397.327071 -170.627566 
L 397.356631 -171.35367 
L 397.390768 -172.079773 
L 397.429232 -172.805877 
L 397.471756 -173.53198 
L 397.518068 -174.258084 
L 397.567887 -174.984188 
L 397.620925 -175.710291 
L 397.676892 -176.436395 
L 397.735494 -177.162499 
L 397.796434 -177.888602 
L 397.859419 -178.614706 
L 397.924156 -179.340809 
L 397.990354 -180.066913 
L 398.05773 -180.793017 
L 398.126003 -181.51912 
L 398.194901 -182.245224 
L 398.264161 -182.971328 
L 398.333528 -183.697431 
L 398.402755 -184.423535 
L 398.471611 -185.149638 
L 398.539871 -185.875742 
L 398.607327 -186.601846 
L 398.673782 -187.327949 
L 398.739052 -188.054053 
L 398.802971 -188.780157 
L 398.865382 -189.50626 
L 398.926149 -190.232364 
L 398.985148 -190.958467 
L 399.042272 -191.684571 
L 399.097431 -192.410675 
L 399.15055 -193.136778 
L 399.201572 -193.862882 
L 399.250456 -194.588986 
L 399.297178 -195.315089 
L 399.34173 -196.041193 
L 399.384122 -196.767297 
L 399.424379 -197.4934 
L 399.462544 -198.219504 
L 399.498675 -198.945607 
L 399.532846 -199.671711 
L 399.565144 -200.397815 
L 399.595674 -201.123918 
L 399.624552 -201.850022 
L 399.651908 -202.576126 
L 399.677883 -203.302229 
L 399.702631 -204.028333 
L 399.726315 -204.754436 
L 399.749107 -205.48054 
L 399.771186 -206.206644 
L 399.792737 -206.932747 
L 399.813952 -207.658851 
L 399.835024 -208.384955 
L 399.856149 -209.111058 
L 399.877524 -209.837162 
L 399.899343 -210.563265 
L 399.921799 -211.289369 
L 399.945078 -212.015473 
L 399.969363 -212.741576 
L 399.994828 -213.46768 
L 400.021637 -214.193784 
L 400.049946 -214.919887 
L 400.079897 -215.645991 
L 400.111621 -216.372094 
L 400.145232 -217.098198 
L 400.180832 -217.824302 
L 400.218505 -218.550405 
L 400.258321 -219.276509 
L 400.300328 -220.002613 
L 400.344561 -220.728716 
L 400.391035 -221.45482 
L 400.439748 -222.180923 
L 406.322884 -222.180923 
L 406.322884 -222.180923 
L 406.371597 -221.45482 
L 406.418071 -220.728716 
L 406.462304 -220.002613 
L 406.504312 -219.276509 
L 406.544127 -218.550405 
L 406.5818 -217.824302 
L 406.6174 -217.098198 
L 406.651012 -216.372094 
L 406.682735 -215.645991 
L 406.712686 -214.919887 
L 406.740995 -214.193784 
L 406.767804 -213.46768 
L 406.793269 -212.741576 
L 406.817554 -212.015473 
L 406.840834 -211.289369 
L 406.863289 -210.563265 
L 406.885108 -209.837162 
L 406.906483 -209.111058 
L 406.927608 -208.384955 
L 406.94868 -207.658851 
L 406.969895 -206.932747 
L 406.991447 -206.206644 
L 407.013525 -205.48054 
L 407.036317 -204.754436 
L 407.060001 -204.028333 
L 407.084749 -203.302229 
L 407.110724 -202.576126 
L 407.13808 -201.850022 
L 407.166958 -201.123918 
L 407.197488 -200.397815 
L 407.229786 -199.671711 
L 407.263957 -198.945607 
L 407.300088 -198.219504 
L 407.338253 -197.4934 
L 407.378511 -196.767297 
L 407.420902 -196.041193 
L 407.465454 -195.315089 
L 407.512176 -194.588986 
L 407.56106 -193.862882 
L 407.612082 -193.136778 
L 407.665201 -192.410675 
L 407.72036 -191.684571 
L 407.777484 -190.958467 
L 407.836483 -190.232364 
L 407.89725 -189.50626 
L 407.959662 -188.780157 
L 408.02358 -188.054053 
L 408.08885 -187.327949 
L 408.155305 -186.601846 
L 408.222761 -185.875742 
L 408.291022 -185.149638 
L 408.359877 -184.423535 
L 408.429105 -183.697431 
L 408.498471 -182.971328 
L 408.567731 -182.245224 
L 408.636629 -181.51912 
L 408.704902 -180.793017 
L 408.772278 -180.066913 
L 408.838476 -179.340809 
L 408.903213 -178.614706 
L 408.966198 -177.888602 
L 409.027138 -177.162499 
L 409.08574 -176.436395 
L 409.141707 -175.710291 
L 409.194745 -174.984188 
L 409.244564 -174.258084 
L 409.290876 -173.53198 
L 409.333401 -172.805877 
L 409.371864 -172.079773 
L 409.406001 -171.35367 
L 409.435561 -170.627566 
L 409.460302 -169.901462 
L 409.479999 -169.175359 
L 409.494441 -168.449255 
L 409.503437 -167.723151 
L 409.506813 -166.997048 
L 409.504416 -166.270944 
L 409.496116 -165.544841 
L 409.481803 -164.818737 
L 409.461393 -164.092633 
L 409.434826 -163.36653 
L 409.402069 -162.640426 
L 409.363111 -161.914322 
L 409.317971 -161.188219 
L 409.266693 -160.462115 
L 409.209348 -159.736012 
L 409.146031 -159.009908 
L 409.076866 -158.283804 
L 409.002 -157.557701 
L 408.921605 -156.831597 
L 408.835877 -156.105493 
L 408.745032 -155.37939 
L 408.64931 -154.653286 
L 408.548969 -153.927183 
L 408.444285 -153.201079 
L 408.33555 -152.474975 
L 408.223071 -151.748872 
L 408.107166 -151.022768 
L 407.988167 -150.296664 
z
" style="stroke: #999999; stroke-width: 2"/>
    </defs>
    <g clip-path="url(#p7f6e58759f)">
     <use xlink:href="#m8f136b7e29" x="0" y="255.11811" style="fill: #ffffff; stroke: #999999; stroke-width: 2"/>
    </g>
   </g>
   <g id="PolyCollection_7">
    <defs>
     <path id="mbe45f24e2f" d="M 476.499553 -78.621025 
L 459.776285 -78.621025 
L 459.616791 -78.950003 
L 459.461413 -79.27898 
L 459.310284 -79.607958 
L 459.16352 -79.936936 
L 459.021222 -80.265913 
L 458.883473 -80.594891 
L 458.750342 -80.923868 
L 458.621884 -81.252846 
L 458.49814 -81.581823 
L 458.379137 -81.910801 
L 458.264892 -82.239778 
L 458.155412 -82.568756 
L 458.050694 -82.897733 
L 457.950725 -83.226711 
L 457.855489 -83.555689 
L 457.764958 -83.884666 
L 457.679103 -84.213644 
L 457.597887 -84.542621 
L 457.521271 -84.871599 
L 457.449211 -85.200576 
L 457.381661 -85.529554 
L 457.318573 -85.858531 
L 457.259893 -86.187509 
L 457.20557 -86.516486 
L 457.155546 -86.845464 
L 457.109765 -87.174441 
L 457.068165 -87.503419 
L 457.030684 -87.832397 
L 456.997256 -88.161374 
L 456.967814 -88.490352 
L 456.942284 -88.819329 
L 456.920592 -89.148307 
L 456.902657 -89.477284 
L 456.888397 -89.806262 
L 456.877723 -90.135239 
L 456.870542 -90.464217 
L 456.866754 -90.793194 
L 456.866257 -91.122172 
L 456.868943 -91.451149 
L 456.874697 -91.780127 
L 456.883402 -92.109105 
L 456.894934 -92.438082 
L 456.909167 -92.76706 
L 456.925969 -93.096037 
L 456.945207 -93.425015 
L 456.966747 -93.753992 
L 456.99045 -94.08297 
L 457.01618 -94.411947 
L 457.043801 -94.740925 
L 457.073178 -95.069902 
L 457.10418 -95.39888 
L 457.136682 -95.727858 
L 457.170561 -96.056835 
L 457.205705 -96.385813 
L 457.242008 -96.71479 
L 457.279374 -97.043768 
L 457.31772 -97.372745 
L 457.356972 -97.701723 
L 457.397073 -98.0307 
L 457.437976 -98.359678 
L 457.479652 -98.688655 
L 457.522088 -99.017633 
L 457.565287 -99.34661 
L 457.609268 -99.675588 
L 457.654069 -100.004566 
L 457.699744 -100.333543 
L 457.746366 -100.662521 
L 457.794021 -100.991498 
L 457.842817 -101.320476 
L 457.892875 -101.649453 
L 457.944329 -101.978431 
L 457.997329 -102.307408 
L 458.052039 -102.636386 
L 458.108631 -102.965363 
L 458.167289 -103.294341 
L 458.228201 -103.623318 
L 458.291566 -103.952296 
L 458.357583 -104.281274 
L 458.426454 -104.610251 
L 458.49838 -104.939229 
L 458.57356 -105.268206 
L 458.652188 -105.597184 
L 458.73445 -105.926161 
L 458.820524 -106.255139 
L 458.910575 -106.584116 
L 459.004754 -106.913094 
L 459.103199 -107.242071 
L 459.206026 -107.571049 
L 459.313336 -107.900027 
L 459.425206 -108.229004 
L 459.541692 -108.557982 
L 459.662824 -108.886959 
L 459.788611 -109.215937 
L 459.919034 -109.544914 
L 460.054048 -109.873892 
L 460.193581 -110.202869 
L 460.337537 -110.531847 
L 460.485791 -110.860824 
L 460.638193 -111.189802 
L 475.637645 -111.189802 
L 475.637645 -111.189802 
L 475.790047 -110.860824 
L 475.938301 -110.531847 
L 476.082257 -110.202869 
L 476.22179 -109.873892 
L 476.356804 -109.544914 
L 476.487227 -109.215937 
L 476.613014 -108.886959 
L 476.734146 -108.557982 
L 476.850632 -108.229004 
L 476.962502 -107.900027 
L 477.069812 -107.571049 
L 477.172639 -107.242071 
L 477.271084 -106.913094 
L 477.365263 -106.584116 
L 477.455314 -106.255139 
L 477.541388 -105.926161 
L 477.62365 -105.597184 
L 477.702278 -105.268206 
L 477.777458 -104.939229 
L 477.849384 -104.610251 
L 477.918255 -104.281274 
L 477.984272 -103.952296 
L 478.047637 -103.623318 
L 478.108549 -103.294341 
L 478.167207 -102.965363 
L 478.223799 -102.636386 
L 478.278509 -102.307408 
L 478.331509 -101.978431 
L 478.382963 -101.649453 
L 478.433021 -101.320476 
L 478.481817 -100.991498 
L 478.529472 -100.662521 
L 478.576094 -100.333543 
L 478.621769 -100.004566 
L 478.66657 -99.675588 
L 478.710551 -99.34661 
L 478.75375 -99.017633 
L 478.796186 -98.688655 
L 478.837862 -98.359678 
L 478.878765 -98.0307 
L 478.918866 -97.701723 
L 478.958118 -97.372745 
L 478.996464 -97.043768 
L 479.03383 -96.71479 
L 479.070133 -96.385813 
L 479.105277 -96.056835 
L 479.139156 -95.727858 
L 479.171658 -95.39888 
L 479.20266 -95.069902 
L 479.232037 -94.740925 
L 479.259658 -94.411947 
L 479.285388 -94.08297 
L 479.309091 -93.753992 
L 479.330631 -93.425015 
L 479.349869 -93.096037 
L 479.366671 -92.76706 
L 479.380904 -92.438082 
L 479.392436 -92.109105 
L 479.401141 -91.780127 
L 479.406895 -91.451149 
L 479.409581 -91.122172 
L 479.409084 -90.793194 
L 479.405297 -90.464217 
L 479.398115 -90.135239 
L 479.387441 -89.806262 
L 479.373181 -89.477284 
L 479.355246 -89.148307 
L 479.333554 -88.819329 
L 479.308024 -88.490352 
L 479.278582 -88.161374 
L 479.245154 -87.832397 
L 479.207673 -87.503419 
L 479.166073 -87.174441 
L 479.120292 -86.845464 
L 479.070268 -86.516486 
L 479.015945 -86.187509 
L 478.957265 -85.858531 
L 478.894177 -85.529554 
L 478.826627 -85.200576 
L 478.754567 -84.871599 
L 478.677951 -84.542621 
L 478.596735 -84.213644 
L 478.51088 -83.884666 
L 478.420349 -83.555689 
L 478.325113 -83.226711 
L 478.225144 -82.897733 
L 478.120426 -82.568756 
L 478.010946 -82.239778 
L 477.896701 -81.910801 
L 477.777698 -81.581823 
L 477.653954 -81.252846 
L 477.525496 -80.923868 
L 477.392365 -80.594891 
L 477.254616 -80.265913 
L 477.112318 -79.936936 
L 476.965554 -79.607958 
L 476.814425 -79.27898 
L 476.659047 -78.950003 
L 476.499553 -78.621025 
z
" style="stroke: #999999; stroke-width: 2"/>
    </defs>
    <g clip-path="url(#p7f6e58759f)">
     <use xlink:href="#mbe45f24e2f" x="0" y="255.11811" style="fill: #ffffff; stroke: #999999; stroke-width: 2"/>
    </g>
   </g>
   <g id="PathCollection_1"/>
   <g id="PathCollection_2"/>
   <g id="patch_3">
    <path d="M 47.22 213.89811 
L 47.22 24.32 
" style="fill: none; stroke: #262626; stroke-width: 1.25; stroke-linejoin: miter; stroke-linecap: square"/>
   </g>
   <g id="patch_4">
    <path d="M 47.22 213.89811 
L 500.51622 213.89811 
" style="fill: none; stroke: #262626; stroke-width: 1.25; stroke-linejoin: miter; stroke-linecap: square"/>
   </g>
   <g id="PathCollection_3">
    <defs>
     <path id="C0_0_021d99df48" d="M 0 2.5 
C 0.663008 2.5 1.29895 2.236584 1.767767 1.767767 
C 2.236584 1.29895 2.5 0.663008 2.5 -0 
C 2.5 -0.663008 2.236584 -1.29895 1.767767 -1.767767 
C 1.29895 -2.236584 0.663008 -2.5 0 -2.5 
C -0.663008 -2.5 -1.29895 -2.236584 -1.767767 -1.767767 
C -2.236584 -1.29895 -2.5 -0.663008 -2.5 0 
C -2.5 0.663008 -2.236584 1.29895 -1.767767 1.767767 
C -1.29895 2.236584 -0.663008 2.5 0 2.5 
z
"/>
    </defs>
    <g clip-path="url(#p7f6e58759f)">
     <use xlink:href="#C0_0_021d99df48" x="85.968835" y="170.814171" style="fill: #4c72b0; fill-opacity: 0.75"/>
    </g>
    <g clip-path="url(#p7f6e58759f)">
     <use xlink:href="#C0_0_021d99df48" x="81.608039" y="192.430679" style="fill: #4c72b0; fill-opacity: 0.75"/>
    </g>
    <g clip-path="url(#p7f6e58759f)">
     <use xlink:href="#C0_0_021d99df48" x="74.408516" y="189.076899" style="fill: #4c72b0; fill-opacity: 0.75"/>
    </g>
    <g clip-path="url(#p7f6e58759f)">
     <use xlink:href="#C0_0_021d99df48" x="75.870724" y="166.756552" style="fill: #4c72b0; fill-opacity: 0.75"/>
    </g>
    <g clip-path="url(#p7f6e58759f)">
     <use xlink:href="#C0_0_021d99df48" x="75.672373" y="202.133742" style="fill: #dd8452; fill-opacity: 0.75"/>
    </g>
    <g clip-path="url(#p7f6e58759f)">
     <use xlink:href="#C0_0_021d99df48" x="78.690868" y="202.640757" style="fill: #dd8452; fill-opacity: 0.75"/>
    </g>
    <g clip-path="url(#p7f6e58759f)">
     <use xlink:href="#C0_0_021d99df48" x="79.852784" y="198.985802" style="fill: #dd8452; fill-opacity: 0.75"/>
    </g>
    <g clip-path="url(#p7f6e58759f)">
     <use xlink:href="#C0_0_021d99df48" x="74.365851" y="205.280923" style="fill: #dd8452; fill-opacity: 0.75"/>
    </g>
   </g>
   <g id="PathCollection_4">
    <defs>
     <path id="C1_0_f759421e70" d="M 0 2.5 
C 0.663008 2.5 1.29895 2.236584 1.767767 1.767767 
C 2.236584 1.29895 2.5 0.663008 2.5 -0 
C 2.5 -0.663008 2.236584 -1.29895 1.767767 -1.767767 
C 1.29895 -2.236584 0.663008 -2.5 0 -2.5 
C -0.663008 -2.5 -1.29895 -2.236584 -1.767767 -1.767767 
C -2.236584 -1.29895 -2.5 -0.663008 -2.5 0 
C -2.5 0.663008 -2.236584 1.29895 -1.767767 1.767767 
C -1.29895 2.236584 -0.663008 2.5 0 2.5 
z
"/>
    </defs>
    <g clip-path="url(#p7f6e58759f)">
     <use xlink:href="#C1_0_f759421e70" x="140.265152" y="194.598229" style="fill: #4c72b0; fill-opacity: 0.75"/>
    </g>
    <g clip-path="url(#p7f6e58759f)">
     <use xlink:href="#C1_0_f759421e70" x="149.729154" y="189.77056" style="fill: #4c72b0; fill-opacity: 0.75"/>
    </g>
    <g clip-path="url(#p7f6e58759f)">
     <use xlink:href="#C1_0_f759421e70" x="149.68176" y="200.160368" style="fill: #4c72b0; fill-opacity: 0.75"/>
    </g>
    <g clip-path="url(#p7f6e58759f)">
     <use xlink:href="#C1_0_f759421e70" x="137.99962" y="194.014474" style="fill: #4c72b0; fill-opacity: 0.75"/>
    </g>
    <g clip-path="url(#p7f6e58759f)">
     <use xlink:href="#C1_0_f759421e70" x="144.297982" y="187.541958" style="fill: #dd8452; fill-opacity: 0.75"/>
    </g>
    <g clip-path="url(#p7f6e58759f)">
     <use xlink:href="#C1_0_f759421e70" x="149.85646" y="185.47933" style="fill: #dd8452; fill-opacity: 0.75"/>
    </g>
    <g clip-path="url(#p7f6e58759f)">
     <use xlink:href="#C1_0_f759421e70" x="147.561625" y="186.422097" style="fill: #dd8452; fill-opacity: 0.75"/>
    </g>
    <g clip-path="url(#p7f6e58759f)">
     <use xlink:href="#C1_0_f759421e70" x="148.252554" y="181.521116" style="fill: #dd8452; fill-opacity: 0.75"/>
    </g>
   </g>
   <g id="PathCollection_5">
    <defs>
     <path id="C2_0_cf45bdc5ff" d="M 0 2.5 
C 0.663008 2.5 1.29895 2.236584 1.767767 1.767767 
C 2.236584 1.29895 2.5 0.663008 2.5 -0 
C 2.5 -0.663008 2.236584 -1.29895 1.767767 -1.767767 
C 1.29895 -2.236584 0.663008 -2.5 0 -2.5 
C -0.663008 -2.5 -1.29895 -2.236584 -1.767767 -1.767767 
C -2.236584 -1.29895 -2.5 -0.663008 -2.5 0 
C -2.5 0.663008 -2.236584 1.29895 -1.767767 1.767767 
C -1.29895 2.236584 -0.663008 2.5 0 2.5 
z
"/>
    </defs>
    <g clip-path="url(#p7f6e58759f)">
     <use xlink:href="#C2_0_cf45bdc5ff" x="203.245129" y="158.111321" style="fill: #4c72b0; fill-opacity: 0.75"/>
    </g>
    <g clip-path="url(#p7f6e58759f)">
     <use xlink:href="#C2_0_cf45bdc5ff" x="203.424729" y="177.347827" style="fill: #4c72b0; fill-opacity: 0.75"/>
    </g>
    <g clip-path="url(#p7f6e58759f)">
     <use xlink:href="#C2_0_cf45bdc5ff" x="215.583573" y="174.09546" style="fill: #4c72b0; fill-opacity: 0.75"/>
    </g>
    <g clip-path="url(#p7f6e58759f)">
     <use xlink:href="#C2_0_cf45bdc5ff" x="206.027883" y="175.001771" style="fill: #4c72b0; fill-opacity: 0.75"/>
    </g>
    <g clip-path="url(#p7f6e58759f)">
     <use xlink:href="#C2_0_cf45bdc5ff" x="207.673744" y="160.263726" style="fill: #dd8452; fill-opacity: 0.75"/>
    </g>
    <g clip-path="url(#p7f6e58759f)">
     <use xlink:href="#C2_0_cf45bdc5ff" x="205.036372" y="166.087049" style="fill: #dd8452; fill-opacity: 0.75"/>
    </g>
    <g clip-path="url(#p7f6e58759f)">
     <use xlink:href="#C2_0_cf45bdc5ff" x="208.752005" y="172.413818" style="fill: #dd8452; fill-opacity: 0.75"/>
    </g>
    <g clip-path="url(#p7f6e58759f)">
     <use xlink:href="#C2_0_cf45bdc5ff" x="212.550582" y="184.741184" style="fill: #dd8452; fill-opacity: 0.75"/>
    </g>
   </g>
   <g id="PathCollection_6">
    <defs>
     <path id="C3_0_4387677134" d="M 0 2.5 
C 0.663008 2.5 1.29895 2.236584 1.767767 1.767767 
C 2.236584 1.29895 2.5 0.663008 2.5 -0 
C 2.5 -0.663008 2.236584 -1.29895 1.767767 -1.767767 
C 1.29895 -2.236584 0.663008 -2.5 0 -2.5 
C -0.663008 -2.5 -1.29895 -2.236584 -1.767767 -1.767767 
C -2.236584 -1.29895 -2.5 -0.663008 -2.5 0 
C -2.5 0.663008 -2.236584 1.29895 -1.767767 1.767767 
C -1.29895 2.236584 -0.663008 2.5 0 2.5 
z
"/>
    </defs>
    <g clip-path="url(#p7f6e58759f)">
     <use xlink:href="#C3_0_4387677134" x="273.503578" y="113.870978" style="fill: #4c72b0; fill-opacity: 0.75"/>
    </g>
    <g clip-path="url(#p7f6e58759f)">
     <use xlink:href="#C3_0_4387677134" x="279.252859" y="116.366971" style="fill: #4c72b0; fill-opacity: 0.75"/>
    </g>
    <g clip-path="url(#p7f6e58759f)">
     <use xlink:href="#C3_0_4387677134" x="268.587549" y="97.79463" style="fill: #4c72b0; fill-opacity: 0.75"/>
    </g>
    <g clip-path="url(#p7f6e58759f)">
     <use xlink:href="#C3_0_4387677134" x="273.308449" y="132.379069" style="fill: #4c72b0; fill-opacity: 0.75"/>
    </g>
    <g clip-path="url(#p7f6e58759f)">
     <use xlink:href="#C3_0_4387677134" x="268.226528" y="112.936833" style="fill: #4c72b0; fill-opacity: 0.75"/>
    </g>
    <g clip-path="url(#p7f6e58759f)">
     <use xlink:href="#C3_0_4387677134" x="268.117195" y="137.675161" style="fill: #dd8452; fill-opacity: 0.75"/>
    </g>
    <g clip-path="url(#p7f6e58759f)">
     <use xlink:href="#C3_0_4387677134" x="268.367414" y="129.727016" style="fill: #dd8452; fill-opacity: 0.75"/>
    </g>
    <g clip-path="url(#p7f6e58759f)">
     <use xlink:href="#C3_0_4387677134" x="275.416123" y="146.974852" style="fill: #dd8452; fill-opacity: 0.75"/>
    </g>
    <g clip-path="url(#p7f6e58759f)">
     <use xlink:href="#C3_0_4387677134" x="279.910575" y="156.161509" style="fill: #dd8452; fill-opacity: 0.75"/>
    </g>
    <g clip-path="url(#p7f6e58759f)">
     <use xlink:href="#C3_0_4387677134" x="273.163935" y="167.671558" style="fill: #dd8452; fill-opacity: 0.75"/>
    </g>
   </g>
   <g id="PathCollection_7">
    <defs>
     <path id="C4_0_59a36e344d" d="M 0 2.5 
C 0.663008 2.5 1.29895 2.236584 1.767767 1.767767 
C 2.236584 1.29895 2.5 0.663008 2.5 -0 
C 2.5 -0.663008 2.236584 -1.29895 1.767767 -1.767767 
C 1.29895 -2.236584 0.663008 -2.5 0 -2.5 
C -0.663008 -2.5 -1.29895 -2.236584 -1.767767 -1.767767 
C -2.236584 -1.29895 -2.5 -0.663008 -2.5 0 
C -2.5 0.663008 -2.236584 1.29895 -1.767767 1.767767 
C -1.29895 2.236584 -0.663008 2.5 0 2.5 
z
"/>
    </defs>
    <g clip-path="url(#p7f6e58759f)">
     <use xlink:href="#C4_0_59a36e344d" x="335.025563" y="177.200933" style="fill: #4c72b0; fill-opacity: 0.75"/>
    </g>
    <g clip-path="url(#p7f6e58759f)">
     <use xlink:href="#C4_0_59a36e344d" x="340.082697" y="184.435312" style="fill: #4c72b0; fill-opacity: 0.75"/>
    </g>
    <g clip-path="url(#p7f6e58759f)">
     <use xlink:href="#C4_0_59a36e344d" x="342.54618" y="186.5841" style="fill: #4c72b0; fill-opacity: 0.75"/>
    </g>
    <g clip-path="url(#p7f6e58759f)">
     <use xlink:href="#C4_0_59a36e344d" x="343.653648" y="195.718471" style="fill: #dd8452; fill-opacity: 0.75"/>
    </g>
    <g clip-path="url(#p7f6e58759f)">
     <use xlink:href="#C4_0_59a36e344d" x="336.503979" y="195.041415" style="fill: #dd8452; fill-opacity: 0.75"/>
    </g>
    <g clip-path="url(#p7f6e58759f)">
     <use xlink:href="#C4_0_59a36e344d" x="342.754514" y="190.997168" style="fill: #dd8452; fill-opacity: 0.75"/>
    </g>
   </g>
   <g id="PathCollection_8">
    <defs>
     <path id="C5_0_669485ee3f" d="M 0 2.5 
C 0.663008 2.5 1.29895 2.236584 1.767767 1.767767 
C 2.236584 1.29895 2.5 0.663008 2.5 -0 
C 2.5 -0.663008 2.236584 -1.29895 1.767767 -1.767767 
C 1.29895 -2.236584 0.663008 -2.5 0 -2.5 
C -0.663008 -2.5 -1.29895 -2.236584 -1.767767 -1.767767 
C -2.236584 -1.29895 -2.5 -0.663008 -2.5 0 
C -2.5 0.663008 -2.236584 1.29895 -1.767767 1.767767 
C -1.29895 2.236584 -0.663008 2.5 0 2.5 
z
"/>
    </defs>
    <g clip-path="url(#p7f6e58759f)">
     <use xlink:href="#C5_0_669485ee3f" x="401.187424" y="93.561555" style="fill: #4c72b0; fill-opacity: 0.75"/>
    </g>
    <g clip-path="url(#p7f6e58759f)">
     <use xlink:href="#C5_0_669485ee3f" x="409.602259" y="91.578339" style="fill: #4c72b0; fill-opacity: 0.75"/>
    </g>
    <g clip-path="url(#p7f6e58759f)">
     <use xlink:href="#C5_0_669485ee3f" x="400.670224" y="89.366096" style="fill: #4c72b0; fill-opacity: 0.75"/>
    </g>
    <g clip-path="url(#p7f6e58759f)">
     <use xlink:href="#C5_0_669485ee3f" x="399.501035" y="104.821446" style="fill: #4c72b0; fill-opacity: 0.75"/>
    </g>
    <g clip-path="url(#p7f6e58759f)">
     <use xlink:href="#C5_0_669485ee3f" x="404.569078" y="62.703533" style="fill: #dd8452; fill-opacity: 0.75"/>
    </g>
    <g clip-path="url(#p7f6e58759f)">
     <use xlink:href="#C5_0_669485ee3f" x="404.012685" y="74.408911" style="fill: #dd8452; fill-opacity: 0.75"/>
    </g>
    <g clip-path="url(#p7f6e58759f)">
     <use xlink:href="#C5_0_669485ee3f" x="403.528712" y="39.171477" style="fill: #dd8452; fill-opacity: 0.75"/>
    </g>
    <g clip-path="url(#p7f6e58759f)">
     <use xlink:href="#C5_0_669485ee3f" x="398.857375" y="32.937187" style="fill: #dd8452; fill-opacity: 0.75"/>
    </g>
   </g>
   <g id="PathCollection_9">
    <defs>
     <path id="C6_0_ad9d7f86aa" d="M 0 2.5 
C 0.663008 2.5 1.29895 2.236584 1.767767 1.767767 
C 2.236584 1.29895 2.5 0.663008 2.5 -0 
C 2.5 -0.663008 2.236584 -1.29895 1.767767 -1.767767 
C 1.29895 -2.236584 0.663008 -2.5 0 -2.5 
C -0.663008 -2.5 -1.29895 -2.236584 -1.767767 -1.767767 
C -2.236584 -1.29895 -2.5 -0.663008 -2.5 0 
C -2.5 0.663008 -2.236584 1.29895 -1.767767 1.767767 
C -1.29895 2.236584 -0.663008 2.5 0 2.5 
z
"/>
    </defs>
    <g clip-path="url(#p7f6e58759f)">
     <use xlink:href="#C6_0_ad9d7f86aa" x="467.360309" y="166.571577" style="fill: #4c72b0; fill-opacity: 0.75"/>
    </g>
    <g clip-path="url(#p7f6e58759f)">
     <use xlink:href="#C6_0_ad9d7f86aa" x="462.510438" y="176.238635" style="fill: #4c72b0; fill-opacity: 0.75"/>
    </g>
    <g clip-path="url(#p7f6e58759f)">
     <use xlink:href="#C6_0_ad9d7f86aa" x="474.455184" y="176.497085" style="fill: #4c72b0; fill-opacity: 0.75"/>
    </g>
    <g clip-path="url(#p7f6e58759f)">
     <use xlink:href="#C6_0_ad9d7f86aa" x="469.548713" y="159.484116" style="fill: #4c72b0; fill-opacity: 0.75"/>
    </g>
    <g clip-path="url(#p7f6e58759f)">
     <use xlink:href="#C6_0_ad9d7f86aa" x="473.510055" y="153.41196" style="fill: #dd8452; fill-opacity: 0.75"/>
    </g>
    <g clip-path="url(#p7f6e58759f)">
     <use xlink:href="#C6_0_ad9d7f86aa" x="468.3689" y="146.63061" style="fill: #dd8452; fill-opacity: 0.75"/>
    </g>
    <g clip-path="url(#p7f6e58759f)">
     <use xlink:href="#C6_0_ad9d7f86aa" x="464.486082" y="143.928308" style="fill: #dd8452; fill-opacity: 0.75"/>
    </g>
    <g clip-path="url(#p7f6e58759f)">
     <use xlink:href="#C6_0_ad9d7f86aa" x="472.296287" y="165.025783" style="fill: #dd8452; fill-opacity: 0.75"/>
    </g>
   </g>
   <g id="text_15">
    <!-- HIGD1A, $p_{adj}$ &lt; .001 *** -->
    <g style="fill: #262626" transform="translate(47.22 18.32)scale(0.09 -0.09)">
     <defs>
      <path id="ArialMT-48" d="M 513 0 
L 513 4581 
L 1119 4581 
L 1119 2700 
L 3500 2700 
L 3500 4581 
L 4106 4581 
L 4106 0 
L 3500 0 
L 3500 2159 
L 1119 2159 
L 1119 0 
L 513 0 
z
" transform="scale(0.015625)"/>
      <path id="ArialMT-49" d="M 597 0 
L 597 4581 
L 1203 4581 
L 1203 0 
L 597 0 
z
" transform="scale(0.015625)"/>
      <path id="ArialMT-47" d="M 2638 1797 
L 2638 2334 
L 4578 2338 
L 4578 638 
Q 4131 281 3656 101 
Q 3181 -78 2681 -78 
Q 2006 -78 1454 211 
Q 903 500 622 1047 
Q 341 1594 341 2269 
Q 341 2938 620 3517 
Q 900 4097 1425 4378 
Q 1950 4659 2634 4659 
Q 3131 4659 3532 4498 
Q 3934 4338 4162 4050 
Q 4391 3763 4509 3300 
L 3963 3150 
Q 3859 3500 3706 3700 
Q 3553 3900 3268 4020 
Q 2984 4141 2638 4141 
Q 2222 4141 1919 4014 
Q 1616 3888 1430 3681 
Q 1244 3475 1141 3228 
Q 966 2803 966 2306 
Q 966 1694 1177 1281 
Q 1388 869 1791 669 
Q 2194 469 2647 469 
Q 3041 469 3416 620 
Q 3791 772 3984 944 
L 3984 1797 
L 2638 1797 
z
" transform="scale(0.015625)"/>
      <path id="ArialMT-44" d="M 494 0 
L 494 4581 
L 2072 4581 
Q 2606 4581 2888 4516 
Q 3281 4425 3559 4188 
Q 3922 3881 4101 3404 
Q 4281 2928 4281 2316 
Q 4281 1794 4159 1391 
Q 4038 988 3847 723 
Q 3656 459 3429 307 
Q 3203 156 2883 78 
Q 2563 0 2147 0 
L 494 0 
z
M 1100 541 
L 2078 541 
Q 2531 541 2789 625 
Q 3047 709 3200 863 
Q 3416 1078 3536 1442 
Q 3656 1806 3656 2325 
Q 3656 3044 3420 3430 
Q 3184 3816 2847 3947 
Q 2603 4041 2063 4041 
L 1100 4041 
L 1100 541 
z
" transform="scale(0.015625)"/>
      <path id="ArialMT-41" d="M -9 0 
L 1750 4581 
L 2403 4581 
L 4278 0 
L 3588 0 
L 3053 1388 
L 1138 1388 
L 634 0 
L -9 0 
z
M 1313 1881 
L 2866 1881 
L 2388 3150 
Q 2169 3728 2063 4100 
Q 1975 3659 1816 3225 
L 1313 1881 
z
" transform="scale(0.015625)"/>
      <path id="ArialMT-2c" d="M 569 0 
L 569 641 
L 1209 641 
L 1209 0 
Q 1209 -353 1084 -570 
Q 959 -788 688 -906 
L 531 -666 
Q 709 -588 793 -436 
Q 878 -284 888 0 
L 569 0 
z
" transform="scale(0.015625)"/>
      <path id="DejaVuSans-Oblique-70" d="M 3175 2156 
Q 3175 2616 2975 2859 
Q 2775 3103 2400 3103 
Q 2144 3103 1911 2972 
Q 1678 2841 1497 2591 
Q 1319 2344 1212 1994 
Q 1106 1644 1106 1300 
Q 1106 863 1306 627 
Q 1506 391 1875 391 
Q 2147 391 2380 519 
Q 2613 647 2778 891 
Q 2956 1147 3065 1494 
Q 3175 1841 3175 2156 
z
M 1394 2969 
Q 1625 3272 1939 3428 
Q 2253 3584 2638 3584 
Q 3175 3584 3472 3232 
Q 3769 2881 3769 2247 
Q 3769 1728 3584 1258 
Q 3400 788 3053 416 
Q 2822 169 2531 39 
Q 2241 -91 1919 -91 
Q 1547 -91 1294 64 
Q 1041 219 916 525 
L 556 -1331 
L -19 -1331 
L 922 3500 
L 1497 3500 
L 1394 2969 
z
" transform="scale(0.015625)"/>
      <path id="DejaVuSans-Oblique-61" d="M 3438 1997 
L 3047 0 
L 2472 0 
L 2578 531 
Q 2325 219 2001 64 
Q 1678 -91 1281 -91 
Q 834 -91 548 182 
Q 263 456 263 884 
Q 263 1497 752 1853 
Q 1241 2209 2100 2209 
L 2900 2209 
L 2931 2363 
Q 2938 2388 2941 2417 
Q 2944 2447 2944 2509 
Q 2944 2788 2717 2942 
Q 2491 3097 2081 3097 
Q 1800 3097 1504 3025 
Q 1209 2953 897 2809 
L 997 3341 
Q 1322 3463 1633 3523 
Q 1944 3584 2234 3584 
Q 2853 3584 3176 3315 
Q 3500 3047 3500 2534 
Q 3500 2431 3484 2292 
Q 3469 2153 3438 1997 
z
M 2816 1759 
L 2241 1759 
Q 1534 1759 1195 1570 
Q 856 1381 856 984 
Q 856 709 1029 553 
Q 1203 397 1509 397 
Q 1978 397 2328 733 
Q 2678 1069 2791 1631 
L 2816 1759 
z
" transform="scale(0.015625)"/>
      <path id="DejaVuSans-Oblique-64" d="M 2675 525 
Q 2444 222 2128 65 
Q 1813 -91 1428 -91 
Q 903 -91 598 267 
Q 294 625 294 1247 
Q 294 1766 478 2236 
Q 663 2706 1013 3078 
Q 1244 3325 1534 3454 
Q 1825 3584 2144 3584 
Q 2481 3584 2739 3421 
Q 2997 3259 3138 2956 
L 3513 4863 
L 4091 4863 
L 3144 0 
L 2566 0 
L 2675 525 
z
M 891 1350 
Q 891 897 1095 644 
Q 1300 391 1663 391 
Q 1931 391 2161 520 
Q 2391 650 2566 903 
Q 2750 1166 2856 1509 
Q 2963 1853 2963 2188 
Q 2963 2622 2758 2865 
Q 2553 3109 2194 3109 
Q 1922 3109 1687 2981 
Q 1453 2853 1288 2613 
Q 1106 2353 998 2009 
Q 891 1666 891 1350 
z
" transform="scale(0.015625)"/>
      <path id="DejaVuSans-Oblique-6a" d="M 928 3500 
L 1503 3500 
L 813 -63 
L 809 -78 
Q 694 -675 544 -897 
Q 403 -1106 132 -1218 
Q -138 -1331 -506 -1331 
L -722 -1331 
L -628 -844 
L -481 -844 
Q -144 -844 -1 -703 
Q 141 -563 238 -63 
L 928 3500 
z
M 1197 4863 
L 1772 4863 
L 1631 4134 
L 1056 4134 
L 1197 4863 
z
" transform="scale(0.015625)"/>
      <path id="ArialMT-3c" d="M 350 2003 
L 350 2528 
L 3384 3809 
L 3384 3250 
L 978 2263 
L 3384 1266 
L 3384 706 
L 350 2003 
z
" transform="scale(0.015625)"/>
      <path id="ArialMT-2e" d="M 581 0 
L 581 641 
L 1222 641 
L 1222 0 
L 581 0 
z
" transform="scale(0.015625)"/>
      <path id="ArialMT-2a" d="M 200 3741 
L 344 4184 
Q 841 4009 1066 3881 
Q 1006 4447 1003 4659 
L 1456 4659 
Q 1447 4350 1384 3884 
Q 1706 4047 2122 4184 
L 2266 3741 
Q 1869 3609 1488 3566 
Q 1678 3400 2025 2975 
L 1650 2709 
Q 1469 2956 1222 3381 
Q 991 2941 816 2709 
L 447 2975 
Q 809 3422 966 3566 
Q 563 3644 200 3741 
z
" transform="scale(0.015625)"/>
     </defs>
     <use xlink:href="#ArialMT-48" transform="translate(0 0.203125)"/>
     <use xlink:href="#ArialMT-49" transform="translate(72.216797 0.203125)"/>
     <use xlink:href="#ArialMT-47" transform="translate(100 0.203125)"/>
     <use xlink:href="#ArialMT-44" transform="translate(177.783203 0.203125)"/>
     <use xlink:href="#ArialMT-31" transform="translate(250 0.203125)"/>
     <use xlink:href="#ArialMT-41" transform="translate(305.615234 0.203125)"/>
     <use xlink:href="#ArialMT-2c" transform="translate(372.314453 0.203125)"/>
     <use xlink:href="#ArialMT-20" transform="translate(400.097656 0.203125)"/>
     <use xlink:href="#DejaVuSans-Oblique-70" transform="translate(427.880859 0.203125)"/>
     <use xlink:href="#DejaVuSans-Oblique-61" transform="translate(491.357422 -16.203125)scale(0.7)"/>
     <use xlink:href="#DejaVuSans-Oblique-64" transform="translate(534.25293 -16.203125)scale(0.7)"/>
     <use xlink:href="#DejaVuSans-Oblique-6a" transform="translate(578.686523 -16.203125)scale(0.7)"/>
     <use xlink:href="#ArialMT-20" transform="translate(600.869141 0.203125)"/>
     <use xlink:href="#ArialMT-3c" transform="translate(628.652344 0.203125)"/>
     <use xlink:href="#ArialMT-20" transform="translate(687.050781 0.203125)"/>
     <use xlink:href="#ArialMT-2e" transform="translate(714.833984 0.203125)"/>
     <use xlink:href="#ArialMT-30" transform="translate(742.617188 0.203125)"/>
     <use xlink:href="#ArialMT-30" transform="translate(798.232422 0.203125)"/>
     <use xlink:href="#ArialMT-31" transform="translate(853.847656 0.203125)"/>
     <use xlink:href="#ArialMT-20" transform="translate(909.462891 0.203125)"/>
     <use xlink:href="#ArialMT-2a" transform="translate(937.246094 0.203125)"/>
     <use xlink:href="#ArialMT-2a" transform="translate(976.162109 0.203125)"/>
     <use xlink:href="#ArialMT-2a" transform="translate(1015.078125 0.203125)"/>
    </g>
   </g>
   <g id="legend_1">
    <g id="patch_5">
     <path d="M 441.91497 69.712344 
L 494.21622 69.712344 
Q 496.01622 69.712344 496.01622 67.912344 
L 496.01622 30.62 
Q 496.01622 28.82 494.21622 28.82 
L 441.91497 28.82 
Q 440.11497 28.82 440.11497 30.62 
L 440.11497 67.912344 
Q 440.11497 69.712344 441.91497 69.712344 
z
" style="fill: #ffffff; opacity: 0.8; stroke: #cccccc; stroke-linejoin: miter"/>
    </g>
    <g id="text_16">
     <!-- Treatment -->
     <g style="fill: #262626" transform="translate(447.729111 38.862031)scale(0.09 -0.09)">
      <use xlink:href="#ArialMT-54"/>
      <use xlink:href="#ArialMT-72" x="57.333984"/>
      <use xlink:href="#ArialMT-65" x="90.634766"/>
      <use xlink:href="#ArialMT-61" x="146.25"/>
      <use xlink:href="#ArialMT-74" x="201.865234"/>
      <use xlink:href="#ArialMT-6d" x="229.648438"/>
      <use xlink:href="#ArialMT-65" x="312.949219"/>
      <use xlink:href="#ArialMT-6e" x="368.564453"/>
      <use xlink:href="#ArialMT-74" x="424.179688"/>
     </g>
    </g>
    <g id="PathCollection_10">
     <defs>
      <path id="mc0f7bf732a" d="M 0 3.872983 
C 1.027127 3.872983 2.012324 3.464901 2.738613 2.738613 
C 3.464901 2.012324 3.872983 1.027127 3.872983 0 
C 3.872983 -1.027127 3.464901 -2.012324 2.738613 -2.738613 
C 2.012324 -3.464901 1.027127 -3.872983 0 -3.872983 
C -1.027127 -3.872983 -2.012324 -3.464901 -2.738613 -2.738613 
C -3.464901 -2.012324 -3.872983 -1.027127 -3.872983 0 
C -3.872983 1.027127 -3.464901 2.012324 -2.738613 2.738613 
C -2.012324 3.464901 -1.027127 3.872983 0 3.872983 
z
" style="stroke: #4c72b0"/>
     </defs>
     <g>
      <use xlink:href="#mc0f7bf732a" x="452.71497" y="49.230313" style="fill: #4c72b0; stroke: #4c72b0"/>
     </g>
    </g>
    <g id="text_17">
     <!-- BEVA -->
     <g style="fill: #262626" transform="translate(468.91497 51.592813)scale(0.09 -0.09)">
      <defs>
       <path id="ArialMT-42" d="M 469 0 
L 469 4581 
L 2188 4581 
Q 2713 4581 3030 4442 
Q 3347 4303 3526 4014 
Q 3706 3725 3706 3409 
Q 3706 3116 3547 2856 
Q 3388 2597 3066 2438 
Q 3481 2316 3704 2022 
Q 3928 1728 3928 1328 
Q 3928 1006 3792 729 
Q 3656 453 3456 303 
Q 3256 153 2954 76 
Q 2653 0 2216 0 
L 469 0 
z
M 1075 2656 
L 2066 2656 
Q 2469 2656 2644 2709 
Q 2875 2778 2992 2937 
Q 3109 3097 3109 3338 
Q 3109 3566 3000 3739 
Q 2891 3913 2687 3977 
Q 2484 4041 1991 4041 
L 1075 4041 
L 1075 2656 
z
M 1075 541 
L 2216 541 
Q 2509 541 2628 563 
Q 2838 600 2978 687 
Q 3119 775 3209 942 
Q 3300 1109 3300 1328 
Q 3300 1584 3169 1773 
Q 3038 1963 2805 2039 
Q 2572 2116 2134 2116 
L 1075 2116 
L 1075 541 
z
" transform="scale(0.015625)"/>
       <path id="ArialMT-45" d="M 506 0 
L 506 4581 
L 3819 4581 
L 3819 4041 
L 1113 4041 
L 1113 2638 
L 3647 2638 
L 3647 2100 
L 1113 2100 
L 1113 541 
L 3925 541 
L 3925 0 
L 506 0 
z
" transform="scale(0.015625)"/>
       <path id="ArialMT-56" d="M 1803 0 
L 28 4581 
L 684 4581 
L 1875 1253 
Q 2019 853 2116 503 
Q 2222 878 2363 1253 
L 3600 4581 
L 4219 4581 
L 2425 0 
L 1803 0 
z
" transform="scale(0.015625)"/>
      </defs>
      <use xlink:href="#ArialMT-42"/>
      <use xlink:href="#ArialMT-45" x="66.699219"/>
      <use xlink:href="#ArialMT-56" x="133.398438"/>
      <use xlink:href="#ArialMT-41" x="192.722656"/>
     </g>
    </g>
    <g id="PathCollection_11">
     <defs>
      <path id="ma7e6afecdc" d="M 0 3.872983 
C 1.027127 3.872983 2.012324 3.464901 2.738613 2.738613 
C 3.464901 2.012324 3.872983 1.027127 3.872983 0 
C 3.872983 -1.027127 3.464901 -2.012324 2.738613 -2.738613 
C 2.012324 -3.464901 1.027127 -3.872983 0 -3.872983 
C -1.027127 -3.872983 -2.012324 -3.464901 -2.738613 -2.738613 
C -3.464901 -2.012324 -3.872983 -1.027127 -3.872983 0 
C -3.872983 1.027127 -3.464901 2.012324 -2.738613 2.738613 
C -2.012324 3.464901 -1.027127 3.872983 0 3.872983 
z
" style="stroke: #dd8452"/>
     </defs>
     <g>
      <use xlink:href="#ma7e6afecdc" x="452.71497" y="61.961094" style="fill: #dd8452; stroke: #dd8452"/>
     </g>
    </g>
    <g id="text_18">
     <!-- CTRL -->
     <g style="fill: #262626" transform="translate(468.91497 64.323594)scale(0.09 -0.09)">
      <defs>
       <path id="ArialMT-43" d="M 3763 1606 
L 4369 1453 
Q 4178 706 3683 314 
Q 3188 -78 2472 -78 
Q 1731 -78 1267 223 
Q 803 525 561 1097 
Q 319 1669 319 2325 
Q 319 3041 592 3573 
Q 866 4106 1370 4382 
Q 1875 4659 2481 4659 
Q 3169 4659 3637 4309 
Q 4106 3959 4291 3325 
L 3694 3184 
Q 3534 3684 3231 3912 
Q 2928 4141 2469 4141 
Q 1941 4141 1586 3887 
Q 1231 3634 1087 3207 
Q 944 2781 944 2328 
Q 944 1744 1114 1308 
Q 1284 872 1643 656 
Q 2003 441 2422 441 
Q 2931 441 3284 734 
Q 3638 1028 3763 1606 
z
" transform="scale(0.015625)"/>
       <path id="ArialMT-52" d="M 503 0 
L 503 4581 
L 2534 4581 
Q 3147 4581 3465 4457 
Q 3784 4334 3975 4021 
Q 4166 3709 4166 3331 
Q 4166 2844 3850 2509 
Q 3534 2175 2875 2084 
Q 3116 1969 3241 1856 
Q 3506 1613 3744 1247 
L 4541 0 
L 3778 0 
L 3172 953 
Q 2906 1366 2734 1584 
Q 2563 1803 2427 1890 
Q 2291 1978 2150 2013 
Q 2047 2034 1813 2034 
L 1109 2034 
L 1109 0 
L 503 0 
z
M 1109 2559 
L 2413 2559 
Q 2828 2559 3062 2645 
Q 3297 2731 3419 2920 
Q 3541 3109 3541 3331 
Q 3541 3656 3305 3865 
Q 3069 4075 2559 4075 
L 1109 4075 
L 1109 2559 
z
" transform="scale(0.015625)"/>
       <path id="ArialMT-4c" d="M 469 0 
L 469 4581 
L 1075 4581 
L 1075 541 
L 3331 541 
L 3331 0 
L 469 0 
z
" transform="scale(0.015625)"/>
      </defs>
      <use xlink:href="#ArialMT-43"/>
      <use xlink:href="#ArialMT-54" x="72.216797"/>
      <use xlink:href="#ArialMT-52" x="133.300781"/>
      <use xlink:href="#ArialMT-4c" x="205.517578"/>
     </g>
    </g>
   </g>
  </g>
 </g>
 <defs>
  <clipPath id="p7f6e58759f">
   <rect x="47.22" y="24.32" width="453.29622" height="189.57811"/>
  </clipPath>
 </defs>
</svg>
