<?xml version="1.0" encoding="utf-8" standalone="no"?>
<!DOCTYPE svg PUBLIC "-//W3C//DTD SVG 1.1//EN"
  "http://www.w3.org/Graphics/SVG/1.1/DTD/svg11.dtd">
<!-- Created with matplotlib (https://matplotlib.org/) -->
<svg height="246.509673pt" version="1.1" viewBox="0 0 560.900624 246.509673" width="560.900624pt" xmlns="http://www.w3.org/2000/svg" xmlns:xlink="http://www.w3.org/1999/xlink">
 <metadata>
  <rdf:RDF xmlns:cc="http://creativecommons.org/ns#" xmlns:dc="http://purl.org/dc/elements/1.1/" xmlns:rdf="http://www.w3.org/1999/02/22-rdf-syntax-ns#">
   <cc:Work>
    <dc:type rdf:resource="http://purl.org/dc/dcmitype/StillImage"/>
    <dc:date>2022-03-15T15:37:32.468733</dc:date>
    <dc:format>image/svg+xml</dc:format>
    <dc:creator>
     <cc:Agent>
      <dc:title>Matplotlib v3.3.4, https://matplotlib.org/</dc:title>
     </cc:Agent>
    </dc:creator>
   </cc:Work>
  </rdf:RDF>
 </metadata>
 <defs>
  <style type="text/css">*{stroke-linecap:butt;stroke-linejoin:round;}</style>
 </defs>
 <g id="figure_1">
  <g id="patch_1">
   <path d="M 0 246.509673 
L 560.900624 246.509673 
L 560.900624 0 
L 0 0 
z
" style="fill:#ffffff;"/>
  </g>
  <g id="axes_1">
   <g id="patch_2">
    <path d="M 46.660781 209.34811 
L 267.198891 209.34811 
L 267.198891 19.77 
L 46.660781 19.77 
z
" style="fill:#ffffff;"/>
   </g>
   <g id="matplotlib.axis_1">
    <g id="xtick_1">
     <g id="text_1">
      <!-- responsive -->
      <g style="fill:#444444;" transform="translate(80.034996 225.290141)scale(0.09 -0.09)">
       <defs>
        <path d="M 6.5 0 
L 6.5 51.859375 
L 14.40625 51.859375 
L 14.40625 44 
Q 17.4375 49.515625 20 51.265625 
Q 22.5625 53.03125 25.640625 53.03125 
Q 30.078125 53.03125 34.671875 50.203125 
L 31.640625 42.046875 
Q 28.421875 43.953125 25.203125 43.953125 
Q 22.3125 43.953125 20.015625 42.21875 
Q 17.71875 40.484375 16.75 37.40625 
Q 15.28125 32.71875 15.28125 27.15625 
L 15.28125 0 
z
" id="ArialMT-114"/>
        <path d="M 42.09375 16.703125 
L 51.171875 15.578125 
Q 49.03125 7.625 43.21875 3.21875 
Q 37.40625 -1.171875 28.375 -1.171875 
Q 17 -1.171875 10.328125 5.828125 
Q 3.65625 12.84375 3.65625 25.484375 
Q 3.65625 38.578125 10.390625 45.796875 
Q 17.140625 53.03125 27.875 53.03125 
Q 38.28125 53.03125 44.875 45.953125 
Q 51.46875 38.875 51.46875 26.03125 
Q 51.46875 25.25 51.421875 23.6875 
L 12.75 23.6875 
Q 13.234375 15.140625 17.578125 10.59375 
Q 21.921875 6.0625 28.421875 6.0625 
Q 33.25 6.0625 36.671875 8.59375 
Q 40.09375 11.140625 42.09375 16.703125 
z
M 13.234375 30.90625 
L 42.1875 30.90625 
Q 41.609375 37.453125 38.875 40.71875 
Q 34.671875 45.796875 27.984375 45.796875 
Q 21.921875 45.796875 17.796875 41.75 
Q 13.671875 37.703125 13.234375 30.90625 
z
" id="ArialMT-101"/>
        <path d="M 3.078125 15.484375 
L 11.765625 16.84375 
Q 12.5 11.625 15.84375 8.84375 
Q 19.1875 6.0625 25.203125 6.0625 
Q 31.25 6.0625 34.171875 8.515625 
Q 37.109375 10.984375 37.109375 14.3125 
Q 37.109375 17.28125 34.515625 19 
Q 32.71875 20.171875 25.53125 21.96875 
Q 15.875 24.421875 12.140625 26.203125 
Q 8.40625 27.984375 6.46875 31.125 
Q 4.546875 34.28125 4.546875 38.09375 
Q 4.546875 41.546875 6.125 44.5 
Q 7.71875 47.46875 10.453125 49.421875 
Q 12.5 50.921875 16.03125 51.96875 
Q 19.578125 53.03125 23.640625 53.03125 
Q 29.734375 53.03125 34.34375 51.265625 
Q 38.96875 49.515625 41.15625 46.5 
Q 43.359375 43.5 44.1875 38.484375 
L 35.59375 37.3125 
Q 35.015625 41.3125 32.203125 43.546875 
Q 29.390625 45.796875 24.265625 45.796875 
Q 18.21875 45.796875 15.625 43.796875 
Q 13.03125 41.796875 13.03125 39.109375 
Q 13.03125 37.40625 14.109375 36.03125 
Q 15.1875 34.625 17.484375 33.6875 
Q 18.796875 33.203125 25.25 31.453125 
Q 34.578125 28.953125 38.25 27.359375 
Q 41.9375 25.78125 44.03125 22.75 
Q 46.140625 19.734375 46.140625 15.234375 
Q 46.140625 10.84375 43.578125 6.953125 
Q 41.015625 3.078125 36.171875 0.953125 
Q 31.34375 -1.171875 25.25 -1.171875 
Q 15.140625 -1.171875 9.84375 3.03125 
Q 4.546875 7.234375 3.078125 15.484375 
z
" id="ArialMT-115"/>
        <path d="M 6.59375 -19.875 
L 6.59375 51.859375 
L 14.59375 51.859375 
L 14.59375 45.125 
Q 17.4375 49.078125 21 51.046875 
Q 24.5625 53.03125 29.640625 53.03125 
Q 36.28125 53.03125 41.359375 49.609375 
Q 46.4375 46.1875 49.015625 39.953125 
Q 51.609375 33.734375 51.609375 26.3125 
Q 51.609375 18.359375 48.75 11.984375 
Q 45.90625 5.609375 40.453125 2.21875 
Q 35.015625 -1.171875 29 -1.171875 
Q 24.609375 -1.171875 21.109375 0.6875 
Q 17.625 2.546875 15.375 5.375 
L 15.375 -19.875 
z
M 14.546875 25.640625 
Q 14.546875 15.625 18.59375 10.84375 
Q 22.65625 6.0625 28.421875 6.0625 
Q 34.28125 6.0625 38.453125 11.015625 
Q 42.625 15.96875 42.625 26.375 
Q 42.625 36.28125 38.546875 41.203125 
Q 34.46875 46.140625 28.8125 46.140625 
Q 23.1875 46.140625 18.859375 40.890625 
Q 14.546875 35.640625 14.546875 25.640625 
z
" id="ArialMT-112"/>
        <path d="M 3.328125 25.921875 
Q 3.328125 40.328125 11.328125 47.265625 
Q 18.015625 53.03125 27.640625 53.03125 
Q 38.328125 53.03125 45.109375 46.015625 
Q 51.90625 39.015625 51.90625 26.65625 
Q 51.90625 16.65625 48.90625 10.90625 
Q 45.90625 5.171875 40.15625 2 
Q 34.421875 -1.171875 27.640625 -1.171875 
Q 16.75 -1.171875 10.03125 5.8125 
Q 3.328125 12.796875 3.328125 25.921875 
z
M 12.359375 25.921875 
Q 12.359375 15.96875 16.703125 11.015625 
Q 21.046875 6.0625 27.640625 6.0625 
Q 34.1875 6.0625 38.53125 11.03125 
Q 42.875 16.015625 42.875 26.21875 
Q 42.875 35.84375 38.5 40.796875 
Q 34.125 45.75 27.640625 45.75 
Q 21.046875 45.75 16.703125 40.8125 
Q 12.359375 35.890625 12.359375 25.921875 
z
" id="ArialMT-111"/>
        <path d="M 6.59375 0 
L 6.59375 51.859375 
L 14.5 51.859375 
L 14.5 44.484375 
Q 20.21875 53.03125 31 53.03125 
Q 35.6875 53.03125 39.625 51.34375 
Q 43.5625 49.65625 45.515625 46.921875 
Q 47.46875 44.1875 48.25 40.4375 
Q 48.734375 37.984375 48.734375 31.890625 
L 48.734375 0 
L 39.9375 0 
L 39.9375 31.546875 
Q 39.9375 36.921875 38.90625 39.578125 
Q 37.890625 42.234375 35.28125 43.8125 
Q 32.671875 45.40625 29.15625 45.40625 
Q 23.53125 45.40625 19.453125 41.84375 
Q 15.375 38.28125 15.375 28.328125 
L 15.375 0 
z
" id="ArialMT-110"/>
        <path d="M 6.640625 61.46875 
L 6.640625 71.578125 
L 15.4375 71.578125 
L 15.4375 61.46875 
z
M 6.640625 0 
L 6.640625 51.859375 
L 15.4375 51.859375 
L 15.4375 0 
z
" id="ArialMT-105"/>
        <path d="M 21 0 
L 1.265625 51.859375 
L 10.546875 51.859375 
L 21.6875 20.796875 
Q 23.484375 15.765625 25 10.359375 
Q 26.171875 14.453125 28.265625 20.21875 
L 39.796875 51.859375 
L 48.828125 51.859375 
L 29.203125 0 
z
" id="ArialMT-118"/>
       </defs>
       <use xlink:href="#ArialMT-114"/>
       <use x="33.300781" xlink:href="#ArialMT-101"/>
       <use x="88.916016" xlink:href="#ArialMT-115"/>
       <use x="138.916016" xlink:href="#ArialMT-112"/>
       <use x="194.53125" xlink:href="#ArialMT-111"/>
       <use x="250.146484" xlink:href="#ArialMT-110"/>
       <use x="305.761719" xlink:href="#ArialMT-115"/>
       <use x="355.761719" xlink:href="#ArialMT-105"/>
       <use x="377.978516" xlink:href="#ArialMT-118"/>
       <use x="427.978516" xlink:href="#ArialMT-101"/>
      </g>
     </g>
    </g>
    <g id="xtick_2">
     <g id="text_2">
      <!-- resistant -->
      <g style="fill:#444444;" transform="translate(195.058583 225.290141)scale(0.09 -0.09)">
       <defs>
        <path d="M 25.78125 7.859375 
L 27.046875 0.09375 
Q 23.34375 -0.6875 20.40625 -0.6875 
Q 15.625 -0.6875 12.984375 0.828125 
Q 10.359375 2.34375 9.28125 4.8125 
Q 8.203125 7.28125 8.203125 15.1875 
L 8.203125 45.015625 
L 1.765625 45.015625 
L 1.765625 51.859375 
L 8.203125 51.859375 
L 8.203125 64.703125 
L 16.9375 69.96875 
L 16.9375 51.859375 
L 25.78125 51.859375 
L 25.78125 45.015625 
L 16.9375 45.015625 
L 16.9375 14.703125 
Q 16.9375 10.9375 17.40625 9.859375 
Q 17.875 8.796875 18.921875 8.15625 
Q 19.96875 7.515625 21.921875 7.515625 
Q 23.390625 7.515625 25.78125 7.859375 
z
" id="ArialMT-116"/>
        <path d="M 40.4375 6.390625 
Q 35.546875 2.25 31.03125 0.53125 
Q 26.515625 -1.171875 21.34375 -1.171875 
Q 12.796875 -1.171875 8.203125 3 
Q 3.609375 7.171875 3.609375 13.671875 
Q 3.609375 17.484375 5.34375 20.625 
Q 7.078125 23.78125 9.890625 25.6875 
Q 12.703125 27.59375 16.21875 28.5625 
Q 18.796875 29.25 24.03125 29.890625 
Q 34.671875 31.15625 39.703125 32.90625 
Q 39.75 34.71875 39.75 35.203125 
Q 39.75 40.578125 37.25 42.78125 
Q 33.890625 45.75 27.25 45.75 
Q 21.046875 45.75 18.09375 43.578125 
Q 15.140625 41.40625 13.71875 35.890625 
L 5.125 37.0625 
Q 6.296875 42.578125 8.984375 45.96875 
Q 11.671875 49.359375 16.75 51.1875 
Q 21.828125 53.03125 28.515625 53.03125 
Q 35.15625 53.03125 39.296875 51.46875 
Q 43.453125 49.90625 45.40625 47.53125 
Q 47.359375 45.171875 48.140625 41.546875 
Q 48.578125 39.3125 48.578125 33.453125 
L 48.578125 21.734375 
Q 48.578125 9.46875 49.140625 6.21875 
Q 49.703125 2.984375 51.375 0 
L 42.1875 0 
Q 40.828125 2.734375 40.4375 6.390625 
z
M 39.703125 26.03125 
Q 34.90625 24.078125 25.34375 22.703125 
Q 19.921875 21.921875 17.671875 20.9375 
Q 15.4375 19.96875 14.203125 18.09375 
Q 12.984375 16.21875 12.984375 13.921875 
Q 12.984375 10.40625 15.640625 8.0625 
Q 18.3125 5.71875 23.4375 5.71875 
Q 28.515625 5.71875 32.46875 7.9375 
Q 36.421875 10.15625 38.28125 14.015625 
Q 39.703125 17 39.703125 22.796875 
z
" id="ArialMT-97"/>
       </defs>
       <use xlink:href="#ArialMT-114"/>
       <use x="33.300781" xlink:href="#ArialMT-101"/>
       <use x="88.916016" xlink:href="#ArialMT-115"/>
       <use x="138.916016" xlink:href="#ArialMT-105"/>
       <use x="161.132812" xlink:href="#ArialMT-115"/>
       <use x="211.132812" xlink:href="#ArialMT-116"/>
       <use x="238.916016" xlink:href="#ArialMT-97"/>
       <use x="294.53125" xlink:href="#ArialMT-110"/>
       <use x="350.146484" xlink:href="#ArialMT-116"/>
      </g>
     </g>
    </g>
    <g id="text_3">
     <!-- Condition -->
     <g style="fill:#444444;" transform="translate(137.918039 237.520923)scale(0.09 -0.09)">
      <defs>
       <path d="M 58.796875 25.09375 
L 68.265625 22.703125 
Q 65.28125 11.03125 57.546875 4.90625 
Q 49.8125 -1.21875 38.625 -1.21875 
Q 27.046875 -1.21875 19.796875 3.484375 
Q 12.546875 8.203125 8.765625 17.140625 
Q 4.984375 26.078125 4.984375 36.328125 
Q 4.984375 47.515625 9.25 55.828125 
Q 13.53125 64.15625 21.40625 68.46875 
Q 29.296875 72.796875 38.765625 72.796875 
Q 49.515625 72.796875 56.828125 67.328125 
Q 64.15625 61.859375 67.046875 51.953125 
L 57.71875 49.75 
Q 55.21875 57.5625 50.484375 61.125 
Q 45.75 64.703125 38.578125 64.703125 
Q 30.328125 64.703125 24.78125 60.734375 
Q 19.234375 56.78125 16.984375 50.109375 
Q 14.75 43.453125 14.75 36.375 
Q 14.75 27.25 17.40625 20.4375 
Q 20.0625 13.625 25.671875 10.25 
Q 31.296875 6.890625 37.84375 6.890625 
Q 45.796875 6.890625 51.3125 11.46875 
Q 56.84375 16.0625 58.796875 25.09375 
z
" id="ArialMT-67"/>
       <path d="M 40.234375 0 
L 40.234375 6.546875 
Q 35.296875 -1.171875 25.734375 -1.171875 
Q 19.53125 -1.171875 14.328125 2.25 
Q 9.125 5.671875 6.265625 11.796875 
Q 3.421875 17.921875 3.421875 25.875 
Q 3.421875 33.640625 6 39.96875 
Q 8.59375 46.296875 13.765625 49.65625 
Q 18.953125 53.03125 25.34375 53.03125 
Q 30.03125 53.03125 33.6875 51.046875 
Q 37.359375 49.078125 39.65625 45.90625 
L 39.65625 71.578125 
L 48.390625 71.578125 
L 48.390625 0 
z
M 12.453125 25.875 
Q 12.453125 15.921875 16.640625 10.984375 
Q 20.84375 6.0625 26.5625 6.0625 
Q 32.328125 6.0625 36.34375 10.765625 
Q 40.375 15.484375 40.375 25.140625 
Q 40.375 35.796875 36.265625 40.765625 
Q 32.171875 45.75 26.171875 45.75 
Q 20.3125 45.75 16.375 40.96875 
Q 12.453125 36.1875 12.453125 25.875 
z
" id="ArialMT-100"/>
      </defs>
      <use xlink:href="#ArialMT-67"/>
      <use x="72.216797" xlink:href="#ArialMT-111"/>
      <use x="127.832031" xlink:href="#ArialMT-110"/>
      <use x="183.447266" xlink:href="#ArialMT-100"/>
      <use x="239.0625" xlink:href="#ArialMT-105"/>
      <use x="261.279297" xlink:href="#ArialMT-116"/>
      <use x="289.0625" xlink:href="#ArialMT-105"/>
      <use x="311.279297" xlink:href="#ArialMT-111"/>
      <use x="366.894531" xlink:href="#ArialMT-110"/>
     </g>
    </g>
   </g>
   <g id="matplotlib.axis_2">
    <g id="ytick_1">
     <g id="text_4">
      <!-- 0.0 -->
      <g style="fill:#444444;" transform="translate(24.650781 203.951939)scale(0.09 -0.09)">
       <defs>
        <path d="M 4.15625 35.296875 
Q 4.15625 48 6.765625 55.734375 
Q 9.375 63.484375 14.515625 67.671875 
Q 19.671875 71.875 27.484375 71.875 
Q 33.25 71.875 37.59375 69.546875 
Q 41.9375 67.234375 44.765625 62.859375 
Q 47.609375 58.5 49.21875 52.21875 
Q 50.828125 45.953125 50.828125 35.296875 
Q 50.828125 22.703125 48.234375 14.96875 
Q 45.65625 7.234375 40.5 3 
Q 35.359375 -1.21875 27.484375 -1.21875 
Q 17.140625 -1.21875 11.234375 6.203125 
Q 4.15625 15.140625 4.15625 35.296875 
z
M 13.1875 35.296875 
Q 13.1875 17.671875 17.3125 11.828125 
Q 21.4375 6 27.484375 6 
Q 33.546875 6 37.671875 11.859375 
Q 41.796875 17.71875 41.796875 35.296875 
Q 41.796875 52.984375 37.671875 58.78125 
Q 33.546875 64.59375 27.390625 64.59375 
Q 21.34375 64.59375 17.71875 59.46875 
Q 13.1875 52.9375 13.1875 35.296875 
z
" id="ArialMT-48"/>
        <path d="M 9.078125 0 
L 9.078125 10.015625 
L 19.09375 10.015625 
L 19.09375 0 
z
" id="ArialMT-46"/>
       </defs>
       <use xlink:href="#ArialMT-48"/>
       <use x="55.615234" xlink:href="#ArialMT-46"/>
       <use x="83.398438" xlink:href="#ArialMT-48"/>
      </g>
     </g>
    </g>
    <g id="ytick_2">
     <g id="text_5">
      <!-- 2.5 -->
      <g style="fill:#444444;" transform="translate(24.650781 180.307393)scale(0.09 -0.09)">
       <defs>
        <path d="M 50.34375 8.453125 
L 50.34375 0 
L 3.03125 0 
Q 2.9375 3.171875 4.046875 6.109375 
Q 5.859375 10.9375 9.828125 15.625 
Q 13.8125 20.3125 21.34375 26.46875 
Q 33.015625 36.03125 37.109375 41.625 
Q 41.21875 47.21875 41.21875 52.203125 
Q 41.21875 57.421875 37.46875 61 
Q 33.734375 64.59375 27.734375 64.59375 
Q 21.390625 64.59375 17.578125 60.78125 
Q 13.765625 56.984375 13.71875 50.25 
L 4.6875 51.171875 
Q 5.609375 61.28125 11.65625 66.578125 
Q 17.71875 71.875 27.9375 71.875 
Q 38.234375 71.875 44.234375 66.15625 
Q 50.25 60.453125 50.25 52 
Q 50.25 47.703125 48.484375 43.546875 
Q 46.734375 39.40625 42.65625 34.8125 
Q 38.578125 30.21875 29.109375 22.21875 
Q 21.1875 15.578125 18.9375 13.203125 
Q 16.703125 10.84375 15.234375 8.453125 
z
" id="ArialMT-50"/>
        <path d="M 4.15625 18.75 
L 13.375 19.53125 
Q 14.40625 12.796875 18.140625 9.390625 
Q 21.875 6 27.15625 6 
Q 33.5 6 37.890625 10.78125 
Q 42.28125 15.578125 42.28125 23.484375 
Q 42.28125 31 38.0625 35.34375 
Q 33.84375 39.703125 27 39.703125 
Q 22.75 39.703125 19.328125 37.765625 
Q 15.921875 35.84375 13.96875 32.765625 
L 5.71875 33.84375 
L 12.640625 70.609375 
L 48.25 70.609375 
L 48.25 62.203125 
L 19.671875 62.203125 
L 15.828125 42.96875 
Q 22.265625 47.46875 29.34375 47.46875 
Q 38.71875 47.46875 45.15625 40.96875 
Q 51.609375 34.46875 51.609375 24.265625 
Q 51.609375 14.546875 45.953125 7.46875 
Q 39.0625 -1.21875 27.15625 -1.21875 
Q 17.390625 -1.21875 11.203125 4.25 
Q 5.03125 9.71875 4.15625 18.75 
z
" id="ArialMT-53"/>
       </defs>
       <use xlink:href="#ArialMT-50"/>
       <use x="55.615234" xlink:href="#ArialMT-46"/>
       <use x="83.398438" xlink:href="#ArialMT-53"/>
      </g>
     </g>
    </g>
    <g id="ytick_3">
     <g id="text_6">
      <!-- 5.0 -->
      <g style="fill:#444444;" transform="translate(24.650781 156.662847)scale(0.09 -0.09)">
       <use xlink:href="#ArialMT-53"/>
       <use x="55.615234" xlink:href="#ArialMT-46"/>
       <use x="83.398438" xlink:href="#ArialMT-48"/>
      </g>
     </g>
    </g>
    <g id="ytick_4">
     <g id="text_7">
      <!-- 7.5 -->
      <g style="fill:#444444;" transform="translate(24.650781 133.018301)scale(0.09 -0.09)">
       <defs>
        <path d="M 4.734375 62.203125 
L 4.734375 70.65625 
L 51.078125 70.65625 
L 51.078125 63.8125 
Q 44.234375 56.546875 37.515625 44.484375 
Q 30.8125 32.421875 27.15625 19.671875 
Q 24.515625 10.6875 23.78125 0 
L 14.75 0 
Q 14.890625 8.453125 18.0625 20.40625 
Q 21.234375 32.375 27.171875 43.484375 
Q 33.109375 54.59375 39.796875 62.203125 
z
" id="ArialMT-55"/>
       </defs>
       <use xlink:href="#ArialMT-55"/>
       <use x="55.615234" xlink:href="#ArialMT-46"/>
       <use x="83.398438" xlink:href="#ArialMT-53"/>
      </g>
     </g>
    </g>
    <g id="ytick_5">
     <g id="text_8">
      <!-- 10.0 -->
      <g style="fill:#444444;" transform="translate(19.645938 109.373755)scale(0.09 -0.09)">
       <defs>
        <path d="M 37.25 0 
L 28.46875 0 
L 28.46875 56 
Q 25.296875 52.984375 20.140625 49.953125 
Q 14.984375 46.921875 10.890625 45.40625 
L 10.890625 53.90625 
Q 18.265625 57.375 23.78125 62.296875 
Q 29.296875 67.234375 31.59375 71.875 
L 37.25 71.875 
z
" id="ArialMT-49"/>
       </defs>
       <use xlink:href="#ArialMT-49"/>
       <use x="55.615234" xlink:href="#ArialMT-48"/>
       <use x="111.230469" xlink:href="#ArialMT-46"/>
       <use x="139.013672" xlink:href="#ArialMT-48"/>
      </g>
     </g>
    </g>
    <g id="ytick_6">
     <g id="text_9">
      <!-- 12.5 -->
      <g style="fill:#444444;" transform="translate(19.645938 85.729209)scale(0.09 -0.09)">
       <use xlink:href="#ArialMT-49"/>
       <use x="55.615234" xlink:href="#ArialMT-50"/>
       <use x="111.230469" xlink:href="#ArialMT-46"/>
       <use x="139.013672" xlink:href="#ArialMT-53"/>
      </g>
     </g>
    </g>
    <g id="ytick_7">
     <g id="text_10">
      <!-- 15.0 -->
      <g style="fill:#444444;" transform="translate(19.645938 62.084663)scale(0.09 -0.09)">
       <use xlink:href="#ArialMT-49"/>
       <use x="55.615234" xlink:href="#ArialMT-53"/>
       <use x="111.230469" xlink:href="#ArialMT-46"/>
       <use x="139.013672" xlink:href="#ArialMT-48"/>
      </g>
     </g>
    </g>
    <g id="ytick_8">
     <g id="text_11">
      <!-- 17.5 -->
      <g style="fill:#444444;" transform="translate(19.645938 38.440117)scale(0.09 -0.09)">
       <use xlink:href="#ArialMT-49"/>
       <use x="55.615234" xlink:href="#ArialMT-55"/>
       <use x="111.230469" xlink:href="#ArialMT-46"/>
       <use x="139.013672" xlink:href="#ArialMT-53"/>
      </g>
     </g>
    </g>
    <g id="text_12">
     <!-- Transcripts Per Million (TPM) -->
     <g style="fill:#444444;" transform="translate(13.751719 172.643508)rotate(-90)scale(0.09 -0.09)">
      <defs>
       <path d="M 25.921875 0 
L 25.921875 63.140625 
L 2.34375 63.140625 
L 2.34375 71.578125 
L 59.078125 71.578125 
L 59.078125 63.140625 
L 35.40625 63.140625 
L 35.40625 0 
z
" id="ArialMT-84"/>
       <path d="M 40.4375 19 
L 49.078125 17.875 
Q 47.65625 8.9375 41.8125 3.875 
Q 35.984375 -1.171875 27.484375 -1.171875 
Q 16.84375 -1.171875 10.375 5.78125 
Q 3.90625 12.75 3.90625 25.734375 
Q 3.90625 34.125 6.6875 40.421875 
Q 9.46875 46.734375 15.15625 49.875 
Q 20.84375 53.03125 27.546875 53.03125 
Q 35.984375 53.03125 41.359375 48.75 
Q 46.734375 44.484375 48.25 36.625 
L 39.703125 35.296875 
Q 38.484375 40.53125 35.375 43.15625 
Q 32.28125 45.796875 27.875 45.796875 
Q 21.234375 45.796875 17.078125 41.03125 
Q 12.9375 36.28125 12.9375 25.984375 
Q 12.9375 15.53125 16.9375 10.796875 
Q 20.953125 6.0625 27.390625 6.0625 
Q 32.5625 6.0625 36.03125 9.234375 
Q 39.5 12.40625 40.4375 19 
z
" id="ArialMT-99"/>
       <path id="ArialMT-32"/>
       <path d="M 7.71875 0 
L 7.71875 71.578125 
L 34.71875 71.578125 
Q 41.84375 71.578125 45.609375 70.90625 
Q 50.875 70.015625 54.4375 67.546875 
Q 58.015625 65.09375 60.1875 60.640625 
Q 62.359375 56.203125 62.359375 50.875 
Q 62.359375 41.75 56.546875 35.421875 
Q 50.734375 29.109375 35.546875 29.109375 
L 17.1875 29.109375 
L 17.1875 0 
z
M 17.1875 37.546875 
L 35.6875 37.546875 
Q 44.875 37.546875 48.734375 40.96875 
Q 52.59375 44.390625 52.59375 50.59375 
Q 52.59375 55.078125 50.3125 58.265625 
Q 48.046875 61.46875 44.34375 62.5 
Q 41.9375 63.140625 35.5 63.140625 
L 17.1875 63.140625 
z
" id="ArialMT-80"/>
       <path d="M 7.421875 0 
L 7.421875 71.578125 
L 21.6875 71.578125 
L 38.625 20.90625 
Q 40.96875 13.8125 42.046875 10.296875 
Q 43.265625 14.203125 45.84375 21.78125 
L 62.984375 71.578125 
L 75.734375 71.578125 
L 75.734375 0 
L 66.609375 0 
L 66.609375 59.90625 
L 45.796875 0 
L 37.25 0 
L 16.546875 60.9375 
L 16.546875 0 
z
" id="ArialMT-77"/>
       <path d="M 6.390625 0 
L 6.390625 71.578125 
L 15.1875 71.578125 
L 15.1875 0 
z
" id="ArialMT-108"/>
       <path d="M 23.390625 -21.046875 
Q 16.109375 -11.859375 11.078125 0.4375 
Q 6.0625 12.75 6.0625 25.921875 
Q 6.0625 37.546875 9.8125 48.1875 
Q 14.203125 60.546875 23.390625 72.796875 
L 29.6875 72.796875 
Q 23.78125 62.640625 21.875 58.296875 
Q 18.890625 51.5625 17.1875 44.234375 
Q 15.09375 35.109375 15.09375 25.875 
Q 15.09375 2.390625 29.6875 -21.046875 
z
" id="ArialMT-40"/>
       <path d="M 12.359375 -21.046875 
L 6.0625 -21.046875 
Q 20.65625 2.390625 20.65625 25.875 
Q 20.65625 35.0625 18.5625 44.09375 
Q 16.890625 51.421875 13.921875 58.15625 
Q 12.015625 62.546875 6.0625 72.796875 
L 12.359375 72.796875 
Q 21.53125 60.546875 25.921875 48.1875 
Q 29.6875 37.546875 29.6875 25.921875 
Q 29.6875 12.75 24.625 0.4375 
Q 19.578125 -11.859375 12.359375 -21.046875 
z
" id="ArialMT-41"/>
      </defs>
      <use xlink:href="#ArialMT-84"/>
      <use x="57.333984" xlink:href="#ArialMT-114"/>
      <use x="90.634766" xlink:href="#ArialMT-97"/>
      <use x="146.25" xlink:href="#ArialMT-110"/>
      <use x="201.865234" xlink:href="#ArialMT-115"/>
      <use x="251.865234" xlink:href="#ArialMT-99"/>
      <use x="301.865234" xlink:href="#ArialMT-114"/>
      <use x="335.166016" xlink:href="#ArialMT-105"/>
      <use x="357.382812" xlink:href="#ArialMT-112"/>
      <use x="412.998047" xlink:href="#ArialMT-116"/>
      <use x="440.78125" xlink:href="#ArialMT-115"/>
      <use x="490.78125" xlink:href="#ArialMT-32"/>
      <use x="518.564453" xlink:href="#ArialMT-80"/>
      <use x="585.263672" xlink:href="#ArialMT-101"/>
      <use x="640.878906" xlink:href="#ArialMT-114"/>
      <use x="674.179688" xlink:href="#ArialMT-32"/>
      <use x="701.962891" xlink:href="#ArialMT-77"/>
      <use x="785.263672" xlink:href="#ArialMT-105"/>
      <use x="807.480469" xlink:href="#ArialMT-108"/>
      <use x="829.697266" xlink:href="#ArialMT-108"/>
      <use x="851.914062" xlink:href="#ArialMT-105"/>
      <use x="874.130859" xlink:href="#ArialMT-111"/>
      <use x="929.746094" xlink:href="#ArialMT-110"/>
      <use x="985.361328" xlink:href="#ArialMT-32"/>
      <use x="1013.144531" xlink:href="#ArialMT-40"/>
      <use x="1046.445312" xlink:href="#ArialMT-84"/>
      <use x="1107.529297" xlink:href="#ArialMT-80"/>
      <use x="1174.228516" xlink:href="#ArialMT-77"/>
      <use x="1257.529297" xlink:href="#ArialMT-41"/>
     </g>
    </g>
   </g>
   <g id="PolyCollection_1">
    <defs>
     <path d="M 105.092144 -53.630099 
L 98.498473 -53.630099 
L 98.342997 -55.291639 
L 98.189262 -56.953178 
L 98.037948 -58.614717 
L 97.889726 -60.276256 
L 97.745254 -61.937796 
L 97.605169 -63.599335 
L 97.470089 -65.260874 
L 97.340603 -66.922413 
L 97.217275 -68.583952 
L 97.100634 -70.245492 
L 96.991178 -71.907031 
L 96.889368 -73.56857 
L 96.795628 -75.230109 
L 96.710344 -76.891648 
L 96.633857 -78.553188 
L 96.56647 -80.214727 
L 96.508439 -81.876266 
L 96.459974 -83.537805 
L 96.421238 -85.199345 
L 96.392344 -86.860884 
L 96.373352 -88.522423 
L 96.364271 -90.183962 
L 96.365055 -91.845501 
L 96.375599 -93.507041 
L 96.395747 -95.16858 
L 96.425282 -96.830119 
L 96.463931 -98.491658 
L 96.511368 -100.153198 
L 96.567212 -101.814737 
L 96.63103 -103.476276 
L 96.702344 -105.137815 
L 96.78063 -106.799354 
L 96.865327 -108.460894 
L 96.955843 -110.122433 
L 97.051559 -111.783972 
L 97.151837 -113.445511 
L 97.256026 -115.107051 
L 97.363473 -116.76859 
L 97.473529 -118.430129 
L 97.585553 -120.091668 
L 97.698924 -121.753207 
L 97.813046 -123.414747 
L 97.927351 -125.076286 
L 98.041309 -126.737825 
L 98.154428 -128.399364 
L 98.266262 -130.060904 
L 98.376407 -131.722443 
L 98.484507 -133.383982 
L 98.590251 -135.045521 
L 98.693376 -136.70706 
L 98.793659 -138.3686 
L 98.89092 -140.030139 
L 98.985016 -141.691678 
L 99.075837 -143.353217 
L 99.163303 -145.014757 
L 99.247357 -146.676296 
L 99.327963 -148.337835 
L 99.405101 -149.999374 
L 99.478762 -151.660913 
L 99.548948 -153.322453 
L 99.615661 -154.983992 
L 99.678912 -156.645531 
L 99.738711 -158.30707 
L 99.795067 -159.96861 
L 99.847994 -161.630149 
L 99.897506 -163.291688 
L 99.943619 -164.953227 
L 99.986358 -166.614766 
L 100.025753 -168.276306 
L 100.061848 -169.937845 
L 100.094699 -171.599384 
L 100.12438 -173.260923 
L 100.150987 -174.922463 
L 100.174637 -176.584002 
L 100.195474 -178.245541 
L 100.213668 -179.90708 
L 100.229419 -181.568619 
L 100.242953 -183.230159 
L 100.254525 -184.891698 
L 100.264414 -186.553237 
L 100.272925 -188.214776 
L 100.280382 -189.876316 
L 100.287125 -191.537855 
L 100.293505 -193.199394 
L 100.29988 -194.860933 
L 100.306608 -196.522472 
L 100.31404 -198.184012 
L 100.322517 -199.845551 
L 100.33236 -201.50709 
L 100.343868 -203.168629 
L 100.357309 -204.830169 
L 100.372918 -206.491708 
L 100.390889 -208.153247 
L 100.411378 -209.814786 
L 100.434494 -211.476325 
L 100.460299 -213.137865 
L 100.488811 -214.799404 
L 100.519999 -216.460943 
L 100.553788 -218.122482 
L 103.03683 -218.122482 
L 103.03683 -218.122482 
L 103.070619 -216.460943 
L 103.101807 -214.799404 
L 103.130318 -213.137865 
L 103.156124 -211.476325 
L 103.179239 -209.814786 
L 103.199728 -208.153247 
L 103.2177 -206.491708 
L 103.233308 -204.830169 
L 103.246749 -203.168629 
L 103.258257 -201.50709 
L 103.268101 -199.845551 
L 103.276577 -198.184012 
L 103.28401 -196.522472 
L 103.290738 -194.860933 
L 103.297113 -193.199394 
L 103.303493 -191.537855 
L 103.310236 -189.876316 
L 103.317693 -188.214776 
L 103.326204 -186.553237 
L 103.336093 -184.891698 
L 103.347664 -183.230159 
L 103.361198 -181.568619 
L 103.376949 -179.90708 
L 103.395144 -178.245541 
L 103.415981 -176.584002 
L 103.439631 -174.922463 
L 103.466238 -173.260923 
L 103.495919 -171.599384 
L 103.52877 -169.937845 
L 103.564864 -168.276306 
L 103.60426 -166.614766 
L 103.646998 -164.953227 
L 103.693112 -163.291688 
L 103.742623 -161.630149 
L 103.79555 -159.96861 
L 103.851907 -158.30707 
L 103.911705 -156.645531 
L 103.974956 -154.983992 
L 104.04167 -153.322453 
L 104.111855 -151.660913 
L 104.185517 -149.999374 
L 104.262655 -148.337835 
L 104.343261 -146.676296 
L 104.427315 -145.014757 
L 104.51478 -143.353217 
L 104.605601 -141.691678 
L 104.699698 -140.030139 
L 104.796959 -138.3686 
L 104.897242 -136.70706 
L 105.000366 -135.045521 
L 105.106111 -133.383982 
L 105.21421 -131.722443 
L 105.324355 -130.060904 
L 105.436189 -128.399364 
L 105.549309 -126.737825 
L 105.663267 -125.076286 
L 105.777572 -123.414747 
L 105.891693 -121.753207 
L 106.005065 -120.091668 
L 106.117089 -118.430129 
L 106.227144 -116.76859 
L 106.334592 -115.107051 
L 106.438781 -113.445511 
L 106.539058 -111.783972 
L 106.634774 -110.122433 
L 106.72529 -108.460894 
L 106.809988 -106.799354 
L 106.888274 -105.137815 
L 106.959587 -103.476276 
L 107.023406 -101.814737 
L 107.079249 -100.153198 
L 107.126686 -98.491658 
L 107.165336 -96.830119 
L 107.194871 -95.16858 
L 107.215018 -93.507041 
L 107.225563 -91.845501 
L 107.226346 -90.183962 
L 107.217265 -88.522423 
L 107.198274 -86.860884 
L 107.169379 -85.199345 
L 107.130644 -83.537805 
L 107.082179 -81.876266 
L 107.024148 -80.214727 
L 106.956761 -78.553188 
L 106.880274 -76.891648 
L 106.794989 -75.230109 
L 106.701249 -73.56857 
L 106.59944 -71.907031 
L 106.489983 -70.245492 
L 106.373343 -68.583952 
L 106.250014 -66.922413 
L 106.120529 -65.260874 
L 105.985448 -63.599335 
L 105.845364 -61.937796 
L 105.700891 -60.276256 
L 105.55267 -58.614717 
L 105.401356 -56.953178 
L 105.247621 -55.291639 
L 105.092144 -53.630099 
z
" id="mffe15e5954" style="stroke:#999999;stroke-width:2;"/>
    </defs>
    <g clip-path="url(#pd1b8974760)">
     <use style="fill:#ffffff;stroke:#999999;stroke-width:2;" x="0" xlink:href="#mffe15e5954" y="246.509673"/>
    </g>
   </g>
   <g id="PolyCollection_2">
    <defs>
     <path d="M 252.544949 -45.778749 
L 171.583779 -45.778749 
L 170.235431 -46.154698 
L 169.18546 -46.530647 
L 168.451225 -46.906595 
L 168.041611 -47.282544 
L 167.956742 -47.658492 
L 168.188071 -48.034441 
L 168.71886 -48.410389 
L 169.524992 -48.786338 
L 170.576085 -49.162287 
L 171.83683 -49.538235 
L 173.268481 -49.914184 
L 174.830413 -50.290132 
L 176.481677 -50.666081 
L 178.182463 -51.04203 
L 179.895425 -51.417978 
L 181.586802 -51.793927 
L 183.22731 -52.169875 
L 184.792775 -52.545824 
L 186.2645 -52.921773 
L 187.629383 -53.297721 
L 188.879788 -53.67367 
L 190.013213 -54.049618 
L 191.031773 -54.425567 
L 191.941548 -54.801515 
L 192.751839 -55.177464 
L 193.474359 -55.553413 
L 194.122425 -55.929361 
L 194.710159 -56.30531 
L 195.251753 -56.681258 
L 195.760819 -57.057207 
L 196.249841 -57.433156 
L 196.729747 -57.809104 
L 197.209612 -58.185053 
L 197.696483 -58.561001 
L 198.195326 -58.93695 
L 198.709089 -59.312899 
L 199.238848 -59.688847 
L 199.784036 -60.064796 
L 200.342723 -60.440744 
L 200.91192 -60.816693 
L 201.487905 -61.192641 
L 202.066527 -61.56859 
L 202.643496 -61.944539 
L 203.214625 -62.320487 
L 203.776032 -62.696436 
L 204.324285 -63.072384 
L 204.856504 -63.448333 
L 205.370395 -63.824282 
L 205.86426 -64.20023 
L 206.336954 -64.576179 
L 206.787825 -64.952127 
L 207.216626 -65.328076 
L 207.623423 -65.704025 
L 208.008507 -66.079973 
L 208.3723 -66.455922 
L 208.715289 -66.83187 
L 209.037965 -67.207819 
L 209.340783 -67.583767 
L 209.624143 -67.959716 
L 209.888384 -68.335665 
L 210.13379 -68.711613 
L 210.36061 -69.087562 
L 210.569078 -69.46351 
L 210.759438 -69.839459 
L 210.931966 -70.215408 
L 211.086984 -70.591356 
L 211.224873 -70.967305 
L 211.346069 -71.343253 
L 211.451061 -71.719202 
L 211.540374 -72.095151 
L 211.614554 -72.471099 
L 211.674143 -72.847048 
L 211.71966 -73.222996 
L 211.751583 -73.598945 
L 211.770333 -73.974893 
L 211.776274 -74.350842 
L 211.769708 -74.726791 
L 211.750895 -75.102739 
L 211.720072 -75.478688 
L 211.677488 -75.854636 
L 211.623441 -76.230585 
L 211.558326 -76.606534 
L 211.48268 -76.982482 
L 211.397229 -77.358431 
L 211.30293 -77.734379 
L 211.201 -78.110328 
L 211.09294 -78.486277 
L 210.980531 -78.862225 
L 210.865828 -79.238174 
L 210.751117 -79.614122 
L 210.638868 -79.990071 
L 210.531666 -80.366019 
L 210.432118 -80.741968 
L 210.342768 -81.117917 
L 210.265988 -81.493865 
L 210.203885 -81.869814 
L 210.158209 -82.245762 
L 210.130269 -82.621711 
L 210.120879 -82.99766 
L 214.007849 -82.99766 
L 214.007849 -82.99766 
L 213.998459 -82.621711 
L 213.970519 -82.245762 
L 213.924843 -81.869814 
L 213.86274 -81.493865 
L 213.78596 -81.117917 
L 213.69661 -80.741968 
L 213.597062 -80.366019 
L 213.489859 -79.990071 
L 213.377611 -79.614122 
L 213.2629 -79.238174 
L 213.148196 -78.862225 
L 213.035788 -78.486277 
L 212.927728 -78.110328 
L 212.825798 -77.734379 
L 212.731499 -77.358431 
L 212.646048 -76.982482 
L 212.570402 -76.606534 
L 212.505287 -76.230585 
L 212.45124 -75.854636 
L 212.408656 -75.478688 
L 212.377833 -75.102739 
L 212.35902 -74.726791 
L 212.352454 -74.350842 
L 212.358394 -73.974893 
L 212.377145 -73.598945 
L 212.409068 -73.222996 
L 212.454585 -72.847048 
L 212.514174 -72.471099 
L 212.588354 -72.095151 
L 212.677667 -71.719202 
L 212.782659 -71.343253 
L 212.903855 -70.967305 
L 213.041744 -70.591356 
L 213.196762 -70.215408 
L 213.36929 -69.839459 
L 213.55965 -69.46351 
L 213.768118 -69.087562 
L 213.994938 -68.711613 
L 214.240344 -68.335665 
L 214.504585 -67.959716 
L 214.787945 -67.583767 
L 215.090763 -67.207819 
L 215.413438 -66.83187 
L 215.756428 -66.455922 
L 216.120221 -66.079973 
L 216.505304 -65.704025 
L 216.912102 -65.328076 
L 217.340903 -64.952127 
L 217.791774 -64.576179 
L 218.264468 -64.20023 
L 218.758333 -63.824282 
L 219.272224 -63.448333 
L 219.804442 -63.072384 
L 220.352696 -62.696436 
L 220.914103 -62.320487 
L 221.485232 -61.944539 
L 222.0622 -61.56859 
L 222.640823 -61.192641 
L 223.216808 -60.816693 
L 223.786005 -60.440744 
L 224.344692 -60.064796 
L 224.88988 -59.688847 
L 225.419639 -59.312899 
L 225.933401 -58.93695 
L 226.432245 -58.561001 
L 226.919115 -58.185053 
L 227.398981 -57.809104 
L 227.878887 -57.433156 
L 228.367909 -57.057207 
L 228.876975 -56.681258 
L 229.418569 -56.30531 
L 230.006302 -55.929361 
L 230.654369 -55.553413 
L 231.376889 -55.177464 
L 232.187179 -54.801515 
L 233.096955 -54.425567 
L 234.115514 -54.049618 
L 235.24894 -53.67367 
L 236.499345 -53.297721 
L 237.864228 -52.921773 
L 239.335953 -52.545824 
L 240.901418 -52.169875 
L 242.541926 -51.793927 
L 244.233303 -51.417978 
L 245.946265 -51.04203 
L 247.647051 -50.666081 
L 249.298315 -50.290132 
L 250.860247 -49.914184 
L 252.291898 -49.538235 
L 253.552643 -49.162287 
L 254.603736 -48.786338 
L 255.409868 -48.410389 
L 255.940656 -48.034441 
L 256.171986 -47.658492 
L 256.087116 -47.282544 
L 255.677503 -46.906595 
L 254.943267 -46.530647 
L 253.893296 -46.154698 
L 252.544949 -45.778749 
z
" id="m46981ec3c7" style="stroke:#999999;stroke-width:2;"/>
    </defs>
    <g clip-path="url(#pd1b8974760)">
     <use style="fill:#ffffff;stroke:#999999;stroke-width:2;" x="0" xlink:href="#m46981ec3c7" y="246.509673"/>
    </g>
   </g>
   <g id="PathCollection_1"/>
   <g id="PathCollection_2"/>
   <g id="PathCollection_3"/>
   <g id="PathCollection_4"/>
   <g id="PathCollection_5"/>
   <g id="PathCollection_6"/>
   <g id="PathCollection_7"/>
   <g id="patch_3">
    <path d="M 46.660781 209.34811 
L 46.660781 19.77 
" style="fill:none;stroke:#262626;stroke-linecap:square;stroke-linejoin:miter;stroke-width:1.25;"/>
   </g>
   <g id="patch_4">
    <path d="M 46.660781 209.34811 
L 267.198891 209.34811 
" style="fill:none;stroke:#262626;stroke-linecap:square;stroke-linejoin:miter;stroke-width:1.25;"/>
   </g>
   <g id="PathCollection_8">
    <defs>
     <path d="M 0 2.5 
C 0.663008 2.5 1.29895 2.236584 1.767767 1.767767 
C 2.236584 1.29895 2.5 0.663008 2.5 -0 
C 2.5 -0.663008 2.236584 -1.29895 1.767767 -1.767767 
C 1.29895 -2.236584 0.663008 -2.5 0 -2.5 
C -0.663008 -2.5 -1.29895 -2.236584 -1.767767 -1.767767 
C -2.236584 -1.29895 -2.5 -0.663008 -2.5 0 
C -2.5 0.663008 -2.236584 1.29895 -1.767767 1.767767 
C -1.29895 2.236584 -0.663008 2.5 0 2.5 
z
" id="C0_0_3b671b1bfc"/>
    </defs>
    <g clip-path="url(#pd1b8974760)">
     <use style="fill:#4c72b0;fill-opacity:0.8;" x="100.01844" xlink:href="#C0_0_3b671b1bfc" y="173.568194"/>
    </g>
    <g clip-path="url(#pd1b8974760)">
     <use style="fill:#4c72b0;fill-opacity:0.8;" x="96.600158" xlink:href="#C0_0_3b671b1bfc" y="178.065949"/>
    </g>
    <g clip-path="url(#pd1b8974760)">
     <use style="fill:#4c72b0;fill-opacity:0.8;" x="94.238388" xlink:href="#C0_0_3b671b1bfc" y="180.12247"/>
    </g>
    <g clip-path="url(#pd1b8974760)">
     <use style="fill:#4c72b0;fill-opacity:0.8;" x="110.658938" xlink:href="#C0_0_3b671b1bfc" y="192.879573"/>
    </g>
    <g clip-path="url(#pd1b8974760)">
     <use style="fill:#4c72b0;fill-opacity:0.8;" x="99.556972" xlink:href="#C0_0_3b671b1bfc" y="180.652872"/>
    </g>
    <g clip-path="url(#pd1b8974760)">
     <use style="fill:#4c72b0;fill-opacity:0.8;" x="108.673195" xlink:href="#C0_0_3b671b1bfc" y="186.993391"/>
    </g>
    <g clip-path="url(#pd1b8974760)">
     <use style="fill:#8172b3;fill-opacity:0.8;" x="94.243632" xlink:href="#C0_0_3b671b1bfc" y="49.412368"/>
    </g>
    <g clip-path="url(#pd1b8974760)">
     <use style="fill:#8172b3;fill-opacity:0.8;" x="106.08606" xlink:href="#C0_0_3b671b1bfc" y="28.38719"/>
    </g>
    <g clip-path="url(#pd1b8974760)">
     <use style="fill:#8172b3;fill-opacity:0.8;" x="111.256173" xlink:href="#C0_0_3b671b1bfc" y="36.801995"/>
    </g>
    <g clip-path="url(#pd1b8974760)">
     <use style="fill:#8172b3;fill-opacity:0.8;" x="98.581204" xlink:href="#C0_0_3b671b1bfc" y="91.545873"/>
    </g>
    <g clip-path="url(#pd1b8974760)">
     <use style="fill:#8172b3;fill-opacity:0.8;" x="112.182917" xlink:href="#C0_0_3b671b1bfc" y="134.765979"/>
    </g>
    <g clip-path="url(#pd1b8974760)">
     <use style="fill:#8172b3;fill-opacity:0.8;" x="106.530971" xlink:href="#C0_0_3b671b1bfc" y="86.218048"/>
    </g>
    <g clip-path="url(#pd1b8974760)">
     <use style="fill:#8172b3;fill-opacity:0.8;" x="108.108522" xlink:href="#C0_0_3b671b1bfc" y="106.546748"/>
    </g>
    <g clip-path="url(#pd1b8974760)">
     <use style="fill:#8172b3;fill-opacity:0.8;" x="92.965524" xlink:href="#C0_0_3b671b1bfc" y="157.741176"/>
    </g>
    <g clip-path="url(#pd1b8974760)">
     <use style="fill:#da8bc3;fill-opacity:0.8;" x="92.962573" xlink:href="#C0_0_3b671b1bfc" y="151.658569"/>
    </g>
    <g clip-path="url(#pd1b8974760)">
     <use style="fill:#da8bc3;fill-opacity:0.8;" x="104.631172" xlink:href="#C0_0_3b671b1bfc" y="147.521473"/>
    </g>
    <g clip-path="url(#pd1b8974760)">
     <use style="fill:#da8bc3;fill-opacity:0.8;" x="108.279119" xlink:href="#C0_0_3b671b1bfc" y="157.771443"/>
    </g>
    <g clip-path="url(#pd1b8974760)">
     <use style="fill:#da8bc3;fill-opacity:0.8;" x="95.257327" xlink:href="#C0_0_3b671b1bfc" y="146.670423"/>
    </g>
    <g clip-path="url(#pd1b8974760)">
     <use style="fill:#da8bc3;fill-opacity:0.8;" x="93.055132" xlink:href="#C0_0_3b671b1bfc" y="143.900763"/>
    </g>
    <g clip-path="url(#pd1b8974760)">
     <use style="fill:#da8bc3;fill-opacity:0.8;" x="96.392208" xlink:href="#C0_0_3b671b1bfc" y="122.731398"/>
    </g>
    <g clip-path="url(#pd1b8974760)">
     <use style="fill:#da8bc3;fill-opacity:0.8;" x="110.570811" xlink:href="#C0_0_3b671b1bfc" y="127.72568"/>
    </g>
    <g clip-path="url(#pd1b8974760)">
     <use style="fill:#da8bc3;fill-opacity:0.8;" x="111.661343" xlink:href="#C0_0_3b671b1bfc" y="151.394444"/>
    </g>
   </g>
   <g id="PathCollection_9">
    <defs>
     <path d="M 0 2.5 
C 0.663008 2.5 1.29895 2.236584 1.767767 1.767767 
C 2.236584 1.29895 2.5 0.663008 2.5 -0 
C 2.5 -0.663008 2.236584 -1.29895 1.767767 -1.767767 
C 1.29895 -2.236584 0.663008 -2.5 0 -2.5 
C -0.663008 -2.5 -1.29895 -2.236584 -1.767767 -1.767767 
C -2.236584 -1.29895 -2.5 -0.663008 -2.5 0 
C -2.5 0.663008 -2.236584 1.29895 -1.767767 1.767767 
C -1.29895 2.236584 -0.663008 2.5 0 2.5 
z
" id="C1_0_29a6de84ba"/>
    </defs>
    <g clip-path="url(#pd1b8974760)">
     <use style="fill:#dd8452;fill-opacity:0.8;" x="210.083234" xlink:href="#C1_0_29a6de84ba" y="199.749906"/>
    </g>
    <g clip-path="url(#pd1b8974760)">
     <use style="fill:#dd8452;fill-opacity:0.8;" x="210.10032" xlink:href="#C1_0_29a6de84ba" y="198.418522"/>
    </g>
    <g clip-path="url(#pd1b8974760)">
     <use style="fill:#dd8452;fill-opacity:0.8;" x="219.531845" xlink:href="#C1_0_29a6de84ba" y="199.046118"/>
    </g>
    <g clip-path="url(#pd1b8974760)">
     <use style="fill:#dd8452;fill-opacity:0.8;" x="208.005603" xlink:href="#C1_0_29a6de84ba" y="199.954962"/>
    </g>
    <g clip-path="url(#pd1b8974760)">
     <use style="fill:#dd8452;fill-opacity:0.8;" x="219.884658" xlink:href="#C1_0_29a6de84ba" y="197.468778"/>
    </g>
    <g clip-path="url(#pd1b8974760)">
     <use style="fill:#dd8452;fill-opacity:0.8;" x="208.186741" xlink:href="#C1_0_29a6de84ba" y="195.235994"/>
    </g>
    <g clip-path="url(#pd1b8974760)">
     <use style="fill:#dd8452;fill-opacity:0.8;" x="206.024354" xlink:href="#C1_0_29a6de84ba" y="194.200978"/>
    </g>
    <g clip-path="url(#pd1b8974760)">
     <use style="fill:#dd8452;fill-opacity:0.8;" x="207.613864" xlink:href="#C1_0_29a6de84ba" y="194.864828"/>
    </g>
    <g clip-path="url(#pd1b8974760)">
     <use style="fill:#dd8452;fill-opacity:0.8;" x="218.860768" xlink:href="#C1_0_29a6de84ba" y="198.986827"/>
    </g>
    <g clip-path="url(#pd1b8974760)">
     <use style="fill:#dd8452;fill-opacity:0.8;" x="216.732225" xlink:href="#C1_0_29a6de84ba" y="188.970605"/>
    </g>
    <g clip-path="url(#pd1b8974760)">
     <use style="fill:#55a868;fill-opacity:0.8;" x="206.008651" xlink:href="#C1_0_29a6de84ba" y="200.582028"/>
    </g>
    <g clip-path="url(#pd1b8974760)">
     <use style="fill:#55a868;fill-opacity:0.8;" x="201.39761" xlink:href="#C1_0_29a6de84ba" y="200.591632"/>
    </g>
    <g clip-path="url(#pd1b8974760)">
     <use style="fill:#55a868;fill-opacity:0.8;" x="205.95129" xlink:href="#C1_0_29a6de84ba" y="200.730923"/>
    </g>
    <g clip-path="url(#pd1b8974760)">
     <use style="fill:#55a868;fill-opacity:0.8;" x="208.56721" xlink:href="#C1_0_29a6de84ba" y="200.517053"/>
    </g>
    <g clip-path="url(#pd1b8974760)">
     <use style="fill:#55a868;fill-opacity:0.8;" x="208.982669" xlink:href="#C1_0_29a6de84ba" y="200.436117"/>
    </g>
    <g clip-path="url(#pd1b8974760)">
     <use style="fill:#55a868;fill-opacity:0.8;" x="216.393381" xlink:href="#C1_0_29a6de84ba" y="200.447239"/>
    </g>
    <g clip-path="url(#pd1b8974760)">
     <use style="fill:#55a868;fill-opacity:0.8;" x="220.870428" xlink:href="#C1_0_29a6de84ba" y="199.163189"/>
    </g>
    <g clip-path="url(#pd1b8974760)">
     <use style="fill:#55a868;fill-opacity:0.8;" x="206.993822" xlink:href="#C1_0_29a6de84ba" y="196.824793"/>
    </g>
    <g clip-path="url(#pd1b8974760)">
     <use style="fill:#c44e52;fill-opacity:0.8;" x="212.228762" xlink:href="#C1_0_29a6de84ba" y="199.39075"/>
    </g>
    <g clip-path="url(#pd1b8974760)">
     <use style="fill:#c44e52;fill-opacity:0.8;" x="209.287034" xlink:href="#C1_0_29a6de84ba" y="199.244833"/>
    </g>
    <g clip-path="url(#pd1b8974760)">
     <use style="fill:#c44e52;fill-opacity:0.8;" x="220.610293" xlink:href="#C1_0_29a6de84ba" y="198.628027"/>
    </g>
    <g clip-path="url(#pd1b8974760)">
     <use style="fill:#c44e52;fill-opacity:0.8;" x="216.415009" xlink:href="#C1_0_29a6de84ba" y="200.155058"/>
    </g>
    <g clip-path="url(#pd1b8974760)">
     <use style="fill:#c44e52;fill-opacity:0.8;" x="220.654753" xlink:href="#C1_0_29a6de84ba" y="196.215967"/>
    </g>
    <g clip-path="url(#pd1b8974760)">
     <use style="fill:#c44e52;fill-opacity:0.8;" x="201.777845" xlink:href="#C1_0_29a6de84ba" y="198.9362"/>
    </g>
    <g clip-path="url(#pd1b8974760)">
     <use style="fill:#c44e52;fill-opacity:0.8;" x="216.555795" xlink:href="#C1_0_29a6de84ba" y="199.823009"/>
    </g>
    <g clip-path="url(#pd1b8974760)">
     <use style="fill:#c44e52;fill-opacity:0.8;" x="220.881473" xlink:href="#C1_0_29a6de84ba" y="200.730923"/>
    </g>
    <g clip-path="url(#pd1b8974760)">
     <use style="fill:#937860;fill-opacity:0.8;" x="222.737251" xlink:href="#C1_0_29a6de84ba" y="163.512013"/>
    </g>
    <g clip-path="url(#pd1b8974760)">
     <use style="fill:#937860;fill-opacity:0.8;" x="220.123313" xlink:href="#C1_0_29a6de84ba" y="189.732965"/>
    </g>
    <g clip-path="url(#pd1b8974760)">
     <use style="fill:#937860;fill-opacity:0.8;" x="207.76046" xlink:href="#C1_0_29a6de84ba" y="189.529184"/>
    </g>
    <g clip-path="url(#pd1b8974760)">
     <use style="fill:#937860;fill-opacity:0.8;" x="222.042256" xlink:href="#C1_0_29a6de84ba" y="188.668436"/>
    </g>
    <g clip-path="url(#pd1b8974760)">
     <use style="fill:#937860;fill-opacity:0.8;" x="217.693892" xlink:href="#C1_0_29a6de84ba" y="185.985796"/>
    </g>
    <g clip-path="url(#pd1b8974760)">
     <use style="fill:#937860;fill-opacity:0.8;" x="203.076264" xlink:href="#C1_0_29a6de84ba" y="185.346648"/>
    </g>
    <g clip-path="url(#pd1b8974760)">
     <use style="fill:#937860;fill-opacity:0.8;" x="216.715068" xlink:href="#C1_0_29a6de84ba" y="190.72609"/>
    </g>
    <g clip-path="url(#pd1b8974760)">
     <use style="fill:#937860;fill-opacity:0.8;" x="213.942024" xlink:href="#C1_0_29a6de84ba" y="181.012421"/>
    </g>
   </g>
   <g id="text_13">
    <!-- WDR49, $p_{adj}$ &lt; .001 *** -->
    <g style="fill:#262626;" transform="translate(46.660781 13.77)scale(0.09 -0.09)">
     <defs>
      <path d="M 20.21875 0 
L 1.21875 71.578125 
L 10.9375 71.578125 
L 21.828125 24.65625 
Q 23.578125 17.28125 24.859375 10.015625 
Q 27.59375 21.484375 28.078125 23.25 
L 41.703125 71.578125 
L 53.125 71.578125 
L 63.375 35.359375 
Q 67.234375 21.875 68.953125 10.015625 
Q 70.3125 16.796875 72.515625 25.59375 
L 83.734375 71.578125 
L 93.265625 71.578125 
L 73.640625 0 
L 64.5 0 
L 49.421875 54.546875 
Q 47.515625 61.375 47.171875 62.9375 
Q 46.046875 58.015625 45.0625 54.546875 
L 29.890625 0 
z
" id="ArialMT-87"/>
      <path d="M 7.71875 0 
L 7.71875 71.578125 
L 32.375 71.578125 
Q 40.71875 71.578125 45.125 70.5625 
Q 51.265625 69.140625 55.609375 65.4375 
Q 61.28125 60.640625 64.078125 53.1875 
Q 66.890625 45.75 66.890625 36.1875 
Q 66.890625 28.03125 64.984375 21.734375 
Q 63.09375 15.4375 60.109375 11.296875 
Q 57.125 7.171875 53.578125 4.796875 
Q 50.046875 2.4375 45.046875 1.21875 
Q 40.046875 0 33.546875 0 
z
M 17.1875 8.453125 
L 32.46875 8.453125 
Q 39.546875 8.453125 43.578125 9.765625 
Q 47.609375 11.078125 50 13.484375 
Q 53.375 16.84375 55.25 22.53125 
Q 57.125 28.21875 57.125 36.328125 
Q 57.125 47.5625 53.4375 53.59375 
Q 49.75 59.625 44.484375 61.671875 
Q 40.671875 63.140625 32.234375 63.140625 
L 17.1875 63.140625 
z
" id="ArialMT-68"/>
      <path d="M 7.859375 0 
L 7.859375 71.578125 
L 39.59375 71.578125 
Q 49.171875 71.578125 54.140625 69.640625 
Q 59.125 67.71875 62.109375 62.828125 
Q 65.09375 57.953125 65.09375 52.046875 
Q 65.09375 44.4375 60.15625 39.203125 
Q 55.21875 33.984375 44.921875 32.5625 
Q 48.6875 30.765625 50.640625 29 
Q 54.78125 25.203125 58.5 19.484375 
L 70.953125 0 
L 59.03125 0 
L 49.5625 14.890625 
Q 45.40625 21.34375 42.71875 24.75 
Q 40.046875 28.171875 37.921875 29.53125 
Q 35.796875 30.90625 33.59375 31.453125 
Q 31.984375 31.78125 28.328125 31.78125 
L 17.328125 31.78125 
L 17.328125 0 
z
M 17.328125 39.984375 
L 37.703125 39.984375 
Q 44.1875 39.984375 47.84375 41.328125 
Q 51.515625 42.671875 53.421875 45.625 
Q 55.328125 48.578125 55.328125 52.046875 
Q 55.328125 57.125 51.640625 60.390625 
Q 47.953125 63.671875 39.984375 63.671875 
L 17.328125 63.671875 
z
" id="ArialMT-82"/>
      <path d="M 32.328125 0 
L 32.328125 17.140625 
L 1.265625 17.140625 
L 1.265625 25.203125 
L 33.9375 71.578125 
L 41.109375 71.578125 
L 41.109375 25.203125 
L 50.78125 25.203125 
L 50.78125 17.140625 
L 41.109375 17.140625 
L 41.109375 0 
z
M 32.328125 25.203125 
L 32.328125 57.46875 
L 9.90625 25.203125 
z
" id="ArialMT-52"/>
      <path d="M 5.46875 16.546875 
L 13.921875 17.328125 
Q 14.984375 11.375 18.015625 8.6875 
Q 21.046875 6 25.78125 6 
Q 29.828125 6 32.875 7.859375 
Q 35.9375 9.71875 37.890625 12.8125 
Q 39.84375 15.921875 41.15625 21.1875 
Q 42.484375 26.46875 42.484375 31.9375 
Q 42.484375 32.515625 42.4375 33.6875 
Q 39.796875 29.5 35.234375 26.875 
Q 30.671875 24.265625 25.34375 24.265625 
Q 16.453125 24.265625 10.296875 30.703125 
Q 4.15625 37.15625 4.15625 47.703125 
Q 4.15625 58.59375 10.578125 65.234375 
Q 17 71.875 26.65625 71.875 
Q 33.640625 71.875 39.421875 68.109375 
Q 45.21875 64.359375 48.21875 57.390625 
Q 51.21875 50.4375 51.21875 37.25 
Q 51.21875 23.53125 48.234375 15.40625 
Q 45.265625 7.28125 39.375 3.03125 
Q 33.5 -1.21875 25.59375 -1.21875 
Q 17.1875 -1.21875 11.859375 3.4375 
Q 6.546875 8.109375 5.46875 16.546875 
z
M 41.453125 48.140625 
Q 41.453125 55.71875 37.421875 60.15625 
Q 33.40625 64.59375 27.734375 64.59375 
Q 21.875 64.59375 17.53125 59.8125 
Q 13.1875 55.03125 13.1875 47.40625 
Q 13.1875 40.578125 17.3125 36.296875 
Q 21.4375 32.03125 27.484375 32.03125 
Q 33.59375 32.03125 37.515625 36.296875 
Q 41.453125 40.578125 41.453125 48.140625 
z
" id="ArialMT-57"/>
      <path d="M 8.890625 0 
L 8.890625 10.015625 
L 18.890625 10.015625 
L 18.890625 0 
Q 18.890625 -5.515625 16.9375 -8.90625 
Q 14.984375 -12.3125 10.75 -14.15625 
L 8.296875 -10.40625 
Q 11.078125 -9.1875 12.390625 -6.8125 
Q 13.71875 -4.4375 13.875 0 
z
" id="ArialMT-44"/>
      <path d="M 49.609375 33.6875 
Q 49.609375 40.875 46.484375 44.671875 
Q 43.359375 48.484375 37.5 48.484375 
Q 33.5 48.484375 29.859375 46.4375 
Q 26.21875 44.390625 23.390625 40.484375 
Q 20.609375 36.625 18.9375 31.15625 
Q 17.28125 25.6875 17.28125 20.3125 
Q 17.28125 13.484375 20.40625 9.796875 
Q 23.53125 6.109375 29.296875 6.109375 
Q 33.546875 6.109375 37.1875 8.109375 
Q 40.828125 10.109375 43.40625 13.921875 
Q 46.1875 17.921875 47.890625 23.34375 
Q 49.609375 28.765625 49.609375 33.6875 
z
M 21.78125 46.390625 
Q 25.390625 51.125 30.296875 53.5625 
Q 35.203125 56 41.21875 56 
Q 49.609375 56 54.25 50.5 
Q 58.890625 45.015625 58.890625 35.109375 
Q 58.890625 27 56 19.65625 
Q 53.125 12.3125 47.703125 6.5 
Q 44.09375 2.640625 39.546875 0.609375 
Q 35.015625 -1.421875 29.984375 -1.421875 
Q 24.171875 -1.421875 20.21875 1 
Q 16.265625 3.421875 14.3125 8.203125 
L 8.6875 -20.796875 
L -0.296875 -20.796875 
L 14.40625 54.6875 
L 23.390625 54.6875 
z
" id="DejaVuSans-Oblique-112"/>
      <path d="M 53.71875 31.203125 
L 47.609375 0 
L 38.625 0 
L 40.28125 8.296875 
Q 36.328125 3.421875 31.265625 1 
Q 26.21875 -1.421875 20.015625 -1.421875 
Q 13.03125 -1.421875 8.5625 2.84375 
Q 4.109375 7.125 4.109375 13.8125 
Q 4.109375 23.390625 11.75 28.953125 
Q 19.390625 34.515625 32.8125 34.515625 
L 45.3125 34.515625 
L 45.796875 36.921875 
Q 45.90625 37.3125 45.953125 37.765625 
Q 46 38.234375 46 39.203125 
Q 46 43.5625 42.453125 45.96875 
Q 38.921875 48.390625 32.515625 48.390625 
Q 28.125 48.390625 23.5 47.265625 
Q 18.890625 46.140625 14.015625 43.890625 
L 15.578125 52.203125 
Q 20.65625 54.109375 25.515625 55.046875 
Q 30.375 56 34.90625 56 
Q 44.578125 56 49.625 51.796875 
Q 54.6875 47.609375 54.6875 39.59375 
Q 54.6875 37.984375 54.4375 35.8125 
Q 54.203125 33.640625 53.71875 31.203125 
z
M 44 27.484375 
L 35.015625 27.484375 
Q 23.96875 27.484375 18.671875 24.53125 
Q 13.375 21.578125 13.375 15.375 
Q 13.375 11.078125 16.078125 8.640625 
Q 18.796875 6.203125 23.578125 6.203125 
Q 30.90625 6.203125 36.375 11.453125 
Q 41.84375 16.703125 43.609375 25.484375 
z
" id="DejaVuSans-Oblique-97"/>
      <path d="M 41.796875 8.203125 
Q 38.1875 3.46875 33.25 1.015625 
Q 28.328125 -1.421875 22.3125 -1.421875 
Q 14.109375 -1.421875 9.34375 4.171875 
Q 4.59375 9.765625 4.59375 19.484375 
Q 4.59375 27.59375 7.46875 34.9375 
Q 10.359375 42.28125 15.828125 48.09375 
Q 19.4375 51.953125 23.96875 53.96875 
Q 28.515625 56 33.5 56 
Q 38.765625 56 42.796875 53.453125 
Q 46.828125 50.921875 49.03125 46.1875 
L 54.890625 75.984375 
L 63.921875 75.984375 
L 49.125 0 
L 40.09375 0 
z
M 13.921875 21.09375 
Q 13.921875 14.015625 17.109375 10.0625 
Q 20.3125 6.109375 25.984375 6.109375 
Q 30.171875 6.109375 33.765625 8.125 
Q 37.359375 10.15625 40.09375 14.109375 
Q 42.96875 18.21875 44.625 23.578125 
Q 46.296875 28.953125 46.296875 34.1875 
Q 46.296875 40.96875 43.09375 44.765625 
Q 39.890625 48.578125 34.28125 48.578125 
Q 30.03125 48.578125 26.359375 46.578125 
Q 22.703125 44.578125 20.125 40.828125 
Q 17.28125 36.765625 15.59375 31.390625 
Q 13.921875 26.03125 13.921875 21.09375 
z
" id="DejaVuSans-Oblique-100"/>
      <path d="M 14.5 54.6875 
L 23.484375 54.6875 
L 12.703125 -0.984375 
L 12.640625 -1.21875 
Q 10.84375 -10.546875 8.5 -14.015625 
Q 6.296875 -17.28125 2.0625 -19.03125 
Q -2.15625 -20.796875 -7.90625 -20.796875 
L -11.28125 -20.796875 
L -9.8125 -13.1875 
L -7.515625 -13.1875 
Q -2.25 -13.1875 -0.015625 -10.984375 
Q 2.203125 -8.796875 3.71875 -0.984375 
z
M 18.703125 75.984375 
L 27.6875 75.984375 
L 25.484375 64.59375 
L 16.5 64.59375 
z
" id="DejaVuSans-Oblique-106"/>
      <path d="M 5.46875 31.296875 
L 5.46875 39.5 
L 52.875 59.515625 
L 52.875 50.78125 
L 15.28125 35.359375 
L 52.875 19.78125 
L 52.875 11.03125 
z
" id="ArialMT-60"/>
      <path d="M 3.125 58.453125 
L 5.375 65.375 
Q 13.140625 62.640625 16.65625 60.640625 
Q 15.71875 69.484375 15.671875 72.796875 
L 22.75 72.796875 
Q 22.609375 67.96875 21.625 60.6875 
Q 26.65625 63.234375 33.15625 65.375 
L 35.40625 58.453125 
Q 29.203125 56.390625 23.25 55.71875 
Q 26.21875 53.125 31.640625 46.484375 
L 25.78125 42.328125 
Q 22.953125 46.1875 19.09375 52.828125 
Q 15.484375 45.953125 12.75 42.328125 
L 6.984375 46.484375 
Q 12.640625 53.46875 15.09375 55.71875 
Q 8.796875 56.9375 3.125 58.453125 
z
" id="ArialMT-42"/>
     </defs>
     <use transform="translate(0 0.203125)" xlink:href="#ArialMT-87"/>
     <use transform="translate(94.384766 0.203125)" xlink:href="#ArialMT-68"/>
     <use transform="translate(166.601562 0.203125)" xlink:href="#ArialMT-82"/>
     <use transform="translate(238.818359 0.203125)" xlink:href="#ArialMT-52"/>
     <use transform="translate(294.433594 0.203125)" xlink:href="#ArialMT-57"/>
     <use transform="translate(350.048828 0.203125)" xlink:href="#ArialMT-44"/>
     <use transform="translate(377.832031 0.203125)" xlink:href="#ArialMT-32"/>
     <use transform="translate(405.615234 0.203125)" xlink:href="#DejaVuSans-Oblique-112"/>
     <use transform="translate(469.091797 -16.203125)scale(0.7)" xlink:href="#DejaVuSans-Oblique-97"/>
     <use transform="translate(511.987305 -16.203125)scale(0.7)" xlink:href="#DejaVuSans-Oblique-100"/>
     <use transform="translate(556.420898 -16.203125)scale(0.7)" xlink:href="#DejaVuSans-Oblique-106"/>
     <use transform="translate(578.603516 0.203125)" xlink:href="#ArialMT-32"/>
     <use transform="translate(606.386719 0.203125)" xlink:href="#ArialMT-60"/>
     <use transform="translate(664.785156 0.203125)" xlink:href="#ArialMT-32"/>
     <use transform="translate(692.568359 0.203125)" xlink:href="#ArialMT-46"/>
     <use transform="translate(720.351562 0.203125)" xlink:href="#ArialMT-48"/>
     <use transform="translate(775.966797 0.203125)" xlink:href="#ArialMT-48"/>
     <use transform="translate(831.582031 0.203125)" xlink:href="#ArialMT-49"/>
     <use transform="translate(887.197266 0.203125)" xlink:href="#ArialMT-32"/>
     <use transform="translate(914.980469 0.203125)" xlink:href="#ArialMT-42"/>
     <use transform="translate(953.896484 0.203125)" xlink:href="#ArialMT-42"/>
     <use transform="translate(992.8125 0.203125)" xlink:href="#ArialMT-42"/>
    </g>
   </g>
  </g>
  <g id="axes_2">
   <g id="patch_5">
    <path d="M 276.918891 209.34811 
L 497.457002 209.34811 
L 497.457002 19.77 
L 276.918891 19.77 
z
" style="fill:#ffffff;"/>
   </g>
   <g id="matplotlib.axis_3">
    <g id="xtick_3">
     <g id="text_14">
      <!-- BEVA -->
      <g style="fill:#444444;" transform="translate(320.378732 225.290141)scale(0.09 -0.09)">
       <defs>
        <path d="M 7.328125 0 
L 7.328125 71.578125 
L 34.1875 71.578125 
Q 42.390625 71.578125 47.34375 69.40625 
Q 52.296875 67.234375 55.09375 62.71875 
Q 57.90625 58.203125 57.90625 53.265625 
Q 57.90625 48.6875 55.421875 44.625 
Q 52.9375 40.578125 47.90625 38.09375 
Q 54.390625 36.1875 57.875 31.59375 
Q 61.375 27 61.375 20.75 
Q 61.375 15.71875 59.25 11.390625 
Q 57.125 7.078125 54 4.734375 
Q 50.875 2.390625 46.15625 1.1875 
Q 41.453125 0 34.625 0 
z
M 16.796875 41.5 
L 32.28125 41.5 
Q 38.578125 41.5 41.3125 42.328125 
Q 44.921875 43.40625 46.75 45.890625 
Q 48.578125 48.390625 48.578125 52.15625 
Q 48.578125 55.71875 46.875 58.421875 
Q 45.171875 61.140625 41.984375 62.140625 
Q 38.8125 63.140625 31.109375 63.140625 
L 16.796875 63.140625 
z
M 16.796875 8.453125 
L 34.625 8.453125 
Q 39.203125 8.453125 41.0625 8.796875 
Q 44.34375 9.375 46.53125 10.734375 
Q 48.734375 12.109375 50.140625 14.71875 
Q 51.5625 17.328125 51.5625 20.75 
Q 51.5625 24.75 49.515625 27.703125 
Q 47.46875 30.671875 43.828125 31.859375 
Q 40.1875 33.0625 33.34375 33.0625 
L 16.796875 33.0625 
z
" id="ArialMT-66"/>
        <path d="M 7.90625 0 
L 7.90625 71.578125 
L 59.671875 71.578125 
L 59.671875 63.140625 
L 17.390625 63.140625 
L 17.390625 41.21875 
L 56.984375 41.21875 
L 56.984375 32.8125 
L 17.390625 32.8125 
L 17.390625 8.453125 
L 61.328125 8.453125 
L 61.328125 0 
z
" id="ArialMT-69"/>
        <path d="M 28.171875 0 
L 0.4375 71.578125 
L 10.6875 71.578125 
L 29.296875 19.578125 
Q 31.546875 13.328125 33.0625 7.859375 
Q 34.71875 13.71875 36.921875 19.578125 
L 56.25 71.578125 
L 65.921875 71.578125 
L 37.890625 0 
z
" id="ArialMT-86"/>
        <path d="M -0.140625 0 
L 27.34375 71.578125 
L 37.546875 71.578125 
L 66.84375 0 
L 56.0625 0 
L 47.703125 21.6875 
L 17.78125 21.6875 
L 9.90625 0 
z
M 20.515625 29.390625 
L 44.78125 29.390625 
L 37.3125 49.21875 
Q 33.890625 58.25 32.234375 64.0625 
Q 30.859375 57.171875 28.375 50.390625 
z
" id="ArialMT-65"/>
       </defs>
       <use xlink:href="#ArialMT-66"/>
       <use x="66.699219" xlink:href="#ArialMT-69"/>
       <use x="133.398438" xlink:href="#ArialMT-86"/>
       <use x="192.722656" xlink:href="#ArialMT-65"/>
      </g>
     </g>
    </g>
    <g id="xtick_4">
     <g id="text_15">
      <!-- CTRL -->
      <g style="fill:#444444;" transform="translate(430.571849 225.290141)scale(0.09 -0.09)">
       <defs>
        <path d="M 7.328125 0 
L 7.328125 71.578125 
L 16.796875 71.578125 
L 16.796875 8.453125 
L 52.046875 8.453125 
L 52.046875 0 
z
" id="ArialMT-76"/>
       </defs>
       <use xlink:href="#ArialMT-67"/>
       <use x="72.216797" xlink:href="#ArialMT-84"/>
       <use x="133.300781" xlink:href="#ArialMT-82"/>
       <use x="205.517578" xlink:href="#ArialMT-76"/>
      </g>
     </g>
    </g>
    <g id="text_16">
     <!-- Condition -->
     <g style="fill:#444444;" transform="translate(368.17615 237.520923)scale(0.09 -0.09)">
      <use xlink:href="#ArialMT-67"/>
      <use x="72.216797" xlink:href="#ArialMT-111"/>
      <use x="127.832031" xlink:href="#ArialMT-110"/>
      <use x="183.447266" xlink:href="#ArialMT-100"/>
      <use x="239.0625" xlink:href="#ArialMT-105"/>
      <use x="261.279297" xlink:href="#ArialMT-116"/>
      <use x="289.0625" xlink:href="#ArialMT-105"/>
      <use x="311.279297" xlink:href="#ArialMT-111"/>
      <use x="366.894531" xlink:href="#ArialMT-110"/>
     </g>
    </g>
   </g>
   <g id="matplotlib.axis_4">
    <g id="ytick_9"/>
    <g id="ytick_10"/>
    <g id="ytick_11"/>
    <g id="ytick_12"/>
    <g id="ytick_13"/>
    <g id="ytick_14"/>
    <g id="ytick_15"/>
    <g id="ytick_16"/>
   </g>
   <g id="PolyCollection_3">
    <defs>
     <path d="M 359.818809 -45.778749 
L 304.28803 -45.778749 
L 303.816422 -47.519595 
L 303.433703 -49.260441 
L 303.14204 -51.001287 
L 302.942569 -52.742133 
L 302.835398 -54.482978 
L 302.819632 -56.223824 
L 302.893418 -57.96467 
L 303.054008 -59.705516 
L 303.297839 -61.446362 
L 303.620621 -63.187208 
L 304.017446 -64.928053 
L 304.482893 -66.668899 
L 305.011143 -68.409745 
L 305.596092 -70.150591 
L 306.231466 -71.891437 
L 306.910924 -73.632283 
L 307.628158 -75.373128 
L 308.376983 -77.113974 
L 309.151414 -78.85482 
L 309.945729 -80.595666 
L 310.754525 -82.336512 
L 311.572752 -84.077357 
L 312.395744 -85.818203 
L 313.219227 -87.559049 
L 314.039327 -89.299895 
L 314.852562 -91.040741 
L 315.655825 -92.781587 
L 316.446364 -94.522432 
L 317.22176 -96.263278 
L 317.979893 -98.004124 
L 318.718916 -99.74497 
L 319.437228 -101.485816 
L 320.133439 -103.226662 
L 320.806354 -104.967507 
L 321.454943 -106.708353 
L 322.078328 -108.449199 
L 322.675764 -110.190045 
L 323.246634 -111.930891 
L 323.790436 -113.671736 
L 324.306783 -115.412582 
L 324.795397 -117.153428 
L 325.256115 -118.894274 
L 325.688886 -120.63512 
L 326.093774 -122.375966 
L 326.47096 -124.116811 
L 326.820743 -125.857657 
L 327.143535 -127.598503 
L 327.439865 -129.339349 
L 327.710368 -131.080195 
L 327.955782 -132.821041 
L 328.176936 -134.561886 
L 328.374739 -136.302732 
L 328.550168 -138.043578 
L 328.704253 -139.784424 
L 328.838059 -141.52527 
L 328.952674 -143.266115 
L 329.049191 -145.006961 
L 329.128692 -146.747807 
L 329.192237 -148.488653 
L 329.240851 -150.229499 
L 329.275513 -151.970345 
L 329.297151 -153.71119 
L 329.306636 -155.452036 
L 329.304783 -157.192882 
L 329.29235 -158.933728 
L 329.270045 -160.674574 
L 329.238531 -162.41542 
L 329.198436 -164.156265 
L 329.150364 -165.897111 
L 329.094909 -167.637957 
L 329.032665 -169.378803 
L 328.964242 -171.119649 
L 328.890278 -172.860494 
L 328.81145 -174.60134 
L 328.728484 -176.342186 
L 328.642165 -178.083032 
L 328.553339 -179.823878 
L 328.46292 -181.564724 
L 328.371884 -183.305569 
L 328.281269 -185.046415 
L 328.192168 -186.787261 
L 328.105715 -188.528107 
L 328.023076 -190.268953 
L 327.945434 -192.009799 
L 327.873965 -193.750644 
L 327.809825 -195.49149 
L 327.754129 -197.232336 
L 327.707928 -198.973182 
L 327.672189 -200.714028 
L 327.647776 -202.454873 
L 327.635435 -204.195719 
L 327.635773 -205.936565 
L 327.649246 -207.677411 
L 327.67615 -209.418257 
L 327.716616 -211.159103 
L 327.770598 -212.899948 
L 327.837881 -214.640794 
L 327.918083 -216.38164 
L 328.010657 -218.122486 
L 336.096181 -218.122486 
L 336.096181 -218.122486 
L 336.188755 -216.38164 
L 336.268957 -214.640794 
L 336.33624 -212.899948 
L 336.390222 -211.159103 
L 336.430688 -209.418257 
L 336.457593 -207.677411 
L 336.471065 -205.936565 
L 336.471403 -204.195719 
L 336.459062 -202.454873 
L 336.43465 -200.714028 
L 336.39891 -198.973182 
L 336.352709 -197.232336 
L 336.297013 -195.49149 
L 336.232874 -193.750644 
L 336.161404 -192.009799 
L 336.083762 -190.268953 
L 336.001123 -188.528107 
L 335.914671 -186.787261 
L 335.825569 -185.046415 
L 335.734954 -183.305569 
L 335.643918 -181.564724 
L 335.553499 -179.823878 
L 335.464673 -178.083032 
L 335.378354 -176.342186 
L 335.295388 -174.60134 
L 335.21656 -172.860494 
L 335.142596 -171.119649 
L 335.074173 -169.378803 
L 335.011929 -167.637957 
L 334.956474 -165.897111 
L 334.908402 -164.156265 
L 334.868307 -162.41542 
L 334.836793 -160.674574 
L 334.814488 -158.933728 
L 334.802055 -157.192882 
L 334.800202 -155.452036 
L 334.809687 -153.71119 
L 334.831325 -151.970345 
L 334.865987 -150.229499 
L 334.914601 -148.488653 
L 334.978146 -146.747807 
L 335.057647 -145.006961 
L 335.154164 -143.266115 
L 335.268779 -141.52527 
L 335.402585 -139.784424 
L 335.55667 -138.043578 
L 335.732099 -136.302732 
L 335.929902 -134.561886 
L 336.151056 -132.821041 
L 336.39647 -131.080195 
L 336.666973 -129.339349 
L 336.963303 -127.598503 
L 337.286096 -125.857657 
L 337.635878 -124.116811 
L 338.013064 -122.375966 
L 338.417952 -120.63512 
L 338.850723 -118.894274 
L 339.311441 -117.153428 
L 339.800055 -115.412582 
L 340.316402 -113.671736 
L 340.860204 -111.930891 
L 341.431074 -110.190045 
L 342.028511 -108.449199 
L 342.651895 -106.708353 
L 343.300484 -104.967507 
L 343.973399 -103.226662 
L 344.66961 -101.485816 
L 345.387922 -99.74497 
L 346.126945 -98.004124 
L 346.885078 -96.263278 
L 347.660474 -94.522432 
L 348.451013 -92.781587 
L 349.254276 -91.040741 
L 350.067511 -89.299895 
L 350.887611 -87.559049 
L 351.711094 -85.818203 
L 352.534086 -84.077357 
L 353.352313 -82.336512 
L 354.161109 -80.595666 
L 354.955424 -78.85482 
L 355.729855 -77.113974 
L 356.47868 -75.373128 
L 357.195915 -73.632283 
L 357.875372 -71.891437 
L 358.510746 -70.150591 
L 359.095695 -68.409745 
L 359.623945 -66.668899 
L 360.089392 -64.928053 
L 360.486217 -63.187208 
L 360.808999 -61.446362 
L 361.05283 -59.705516 
L 361.21342 -57.96467 
L 361.287207 -56.223824 
L 361.271441 -54.482978 
L 361.164269 -52.742133 
L 360.964798 -51.001287 
L 360.673135 -49.260441 
L 360.290416 -47.519595 
L 359.818809 -45.778749 
z
" id="mee8aa258e1" style="stroke:#999999;stroke-width:2;"/>
    </defs>
    <g clip-path="url(#p25cad3e930)">
     <use style="fill:#ffffff;stroke:#999999;stroke-width:2;" x="0" xlink:href="#mee8aa258e1" y="246.509673"/>
    </g>
   </g>
   <g id="PolyCollection_4">
    <defs>
     <path d="M 482.986152 -45.778749 
L 401.658796 -45.778749 
L 400.682069 -46.935445 
L 399.857007 -48.092141 
L 399.192223 -49.248837 
L 398.694328 -50.405532 
L 398.36779 -51.562228 
L 398.214852 -52.718924 
L 398.235482 -53.87562 
L 398.42738 -55.032315 
L 398.786029 -56.189011 
L 399.304794 -57.345707 
L 399.975059 -58.502403 
L 400.786412 -59.659098 
L 401.726851 -60.815794 
L 402.783032 -61.97249 
L 403.940525 -63.129186 
L 405.184098 -64.285881 
L 406.497996 -65.442577 
L 407.866227 -66.599273 
L 409.272842 -67.755968 
L 410.702199 -68.912664 
L 412.139211 -70.06936 
L 413.56957 -71.226056 
L 414.979942 -72.382751 
L 416.358134 -73.539447 
L 417.69323 -74.696143 
L 418.975683 -75.852839 
L 420.197389 -77.009534 
L 421.351717 -78.16623 
L 422.433505 -79.322926 
L 423.43904 -80.479622 
L 424.365997 -81.636317 
L 425.213363 -82.793013 
L 425.981344 -83.949709 
L 426.671245 -85.106405 
L 427.285354 -86.2631 
L 427.826808 -87.419796 
L 428.299456 -88.576492 
L 428.707729 -89.733188 
L 429.056504 -90.889883 
L 429.350979 -92.046579 
L 429.596558 -93.203275 
L 429.798736 -94.359971 
L 429.963009 -95.516666 
L 430.094783 -96.673362 
L 430.199303 -97.830058 
L 430.281592 -98.986754 
L 430.346401 -100.143449 
L 430.398173 -101.300145 
L 430.441013 -102.456841 
L 430.47867 -103.613537 
L 430.514528 -104.770232 
L 430.551601 -105.926928 
L 430.592533 -107.083624 
L 430.639611 -108.24032 
L 430.694766 -109.397015 
L 430.759595 -110.553711 
L 430.835369 -111.710407 
L 430.923052 -112.867103 
L 431.02332 -114.023798 
L 431.136573 -115.180494 
L 431.262962 -116.33719 
L 431.402401 -117.493886 
L 431.554587 -118.650581 
L 431.719025 -119.807277 
L 431.895044 -120.963973 
L 432.081819 -122.120669 
L 432.278394 -123.277364 
L 432.483704 -124.43406 
L 432.696597 -125.590756 
L 432.915859 -126.747452 
L 433.140236 -127.904147 
L 433.368459 -129.060843 
L 433.599265 -130.217539 
L 433.831421 -131.374234 
L 434.063745 -132.53093 
L 434.295125 -133.687626 
L 434.524539 -134.844322 
L 434.751065 -136.001017 
L 434.9739 -137.157713 
L 435.19237 -138.314409 
L 435.405932 -139.471105 
L 435.614184 -140.6278 
L 435.816862 -141.784496 
L 436.01384 -142.941192 
L 436.205123 -144.097888 
L 436.39084 -145.254583 
L 436.571234 -146.411279 
L 436.746644 -147.567975 
L 436.917494 -148.724671 
L 437.084274 -149.881366 
L 437.247521 -151.038062 
L 437.407802 -152.194758 
L 437.565693 -153.351454 
L 437.721759 -154.508149 
L 437.876537 -155.664845 
L 438.030521 -156.821541 
L 438.184143 -157.978237 
L 438.337763 -159.134932 
L 438.491657 -160.291628 
L 446.153291 -160.291628 
L 446.153291 -160.291628 
L 446.307186 -159.134932 
L 446.460806 -157.978237 
L 446.614428 -156.821541 
L 446.768411 -155.664845 
L 446.92319 -154.508149 
L 447.079255 -153.351454 
L 447.237146 -152.194758 
L 447.397427 -151.038062 
L 447.560675 -149.881366 
L 447.727455 -148.724671 
L 447.898305 -147.567975 
L 448.073714 -146.411279 
L 448.254108 -145.254583 
L 448.439826 -144.097888 
L 448.631109 -142.941192 
L 448.828086 -141.784496 
L 449.030764 -140.6278 
L 449.239016 -139.471105 
L 449.452578 -138.314409 
L 449.671048 -137.157713 
L 449.893884 -136.001017 
L 450.12041 -134.844322 
L 450.349823 -133.687626 
L 450.581203 -132.53093 
L 450.813528 -131.374234 
L 451.045684 -130.217539 
L 451.276489 -129.060843 
L 451.504712 -127.904147 
L 451.729089 -126.747452 
L 451.948351 -125.590756 
L 452.161244 -124.43406 
L 452.366554 -123.277364 
L 452.563129 -122.120669 
L 452.749904 -120.963973 
L 452.925923 -119.807277 
L 453.090361 -118.650581 
L 453.242548 -117.493886 
L 453.381986 -116.33719 
L 453.508375 -115.180494 
L 453.621629 -114.023798 
L 453.721896 -112.867103 
L 453.80958 -111.710407 
L 453.885354 -110.553711 
L 453.950182 -109.397015 
L 454.005338 -108.24032 
L 454.052415 -107.083624 
L 454.093348 -105.926928 
L 454.13042 -104.770232 
L 454.166278 -103.613537 
L 454.203935 -102.456841 
L 454.246775 -101.300145 
L 454.298547 -100.143449 
L 454.363357 -98.986754 
L 454.445645 -97.830058 
L 454.550165 -96.673362 
L 454.681939 -95.516666 
L 454.846212 -94.359971 
L 455.048391 -93.203275 
L 455.293969 -92.046579 
L 455.588445 -90.889883 
L 455.93722 -89.733188 
L 456.345492 -88.576492 
L 456.818141 -87.419796 
L 457.359594 -86.2631 
L 457.973704 -85.106405 
L 458.663605 -83.949709 
L 459.431585 -82.793013 
L 460.278951 -81.636317 
L 461.205908 -80.479622 
L 462.211443 -79.322926 
L 463.293232 -78.16623 
L 464.447559 -77.009534 
L 465.669266 -75.852839 
L 466.951719 -74.696143 
L 468.286814 -73.539447 
L 469.665007 -72.382751 
L 471.075378 -71.226056 
L 472.505737 -70.06936 
L 473.942749 -68.912664 
L 475.372106 -67.755968 
L 476.778721 -66.599273 
L 478.146952 -65.442577 
L 479.46085 -64.285881 
L 480.704423 -63.129186 
L 481.861917 -61.97249 
L 482.918097 -60.815794 
L 483.858536 -59.659098 
L 484.669889 -58.502403 
L 485.340155 -57.345707 
L 485.85892 -56.189011 
L 486.217569 -55.032315 
L 486.409466 -53.87562 
L 486.430096 -52.718924 
L 486.277158 -51.562228 
L 485.950621 -50.405532 
L 485.452725 -49.248837 
L 484.787941 -48.092141 
L 483.962879 -46.935445 
L 482.986152 -45.778749 
z
" id="mdf82a5a381" style="stroke:#999999;stroke-width:2;"/>
    </defs>
    <g clip-path="url(#p25cad3e930)">
     <use style="fill:#ffffff;stroke:#999999;stroke-width:2;" x="0" xlink:href="#mdf82a5a381" y="246.509673"/>
    </g>
   </g>
   <g id="PathCollection_10"/>
   <g id="PathCollection_11"/>
   <g id="PathCollection_12"/>
   <g id="PathCollection_13"/>
   <g id="PathCollection_14"/>
   <g id="PathCollection_15"/>
   <g id="PathCollection_16"/>
   <g id="patch_6">
    <path d="M 276.918891 209.34811 
L 276.918891 19.77 
" style="fill:none;stroke:#262626;stroke-linecap:square;stroke-linejoin:miter;stroke-width:1.25;"/>
   </g>
   <g id="patch_7">
    <path d="M 276.918891 209.34811 
L 497.457002 209.34811 
" style="fill:none;stroke:#262626;stroke-linecap:square;stroke-linejoin:miter;stroke-width:1.25;"/>
   </g>
   <g id="PathCollection_17">
    <defs>
     <path d="M 0 2.5 
C 0.663008 2.5 1.29895 2.236584 1.767767 1.767767 
C 2.236584 1.29895 2.5 0.663008 2.5 -0 
C 2.5 -0.663008 2.236584 -1.29895 1.767767 -1.767767 
C 1.29895 -2.236584 0.663008 -2.5 0 -2.5 
C -0.663008 -2.5 -1.29895 -2.236584 -1.767767 -1.767767 
C -2.236584 -1.29895 -2.5 -0.663008 -2.5 0 
C -2.5 0.663008 -2.236584 1.29895 -1.767767 1.767767 
C -1.29895 2.236584 -0.663008 2.5 0 2.5 
z
" id="C2_0_b0692adc8e"/>
    </defs>
    <g clip-path="url(#p25cad3e930)">
     <use style="fill:#4c72b0;fill-opacity:0.8;" x="333.123711" xlink:href="#C2_0_b0692adc8e" y="173.568193"/>
    </g>
    <g clip-path="url(#p25cad3e930)">
     <use style="fill:#4c72b0;fill-opacity:0.8;" x="337.902414" xlink:href="#C2_0_b0692adc8e" y="178.065949"/>
    </g>
    <g clip-path="url(#p25cad3e930)">
     <use style="fill:#4c72b0;fill-opacity:0.8;" x="342.470563" xlink:href="#C2_0_b0692adc8e" y="180.122469"/>
    </g>
    <g clip-path="url(#p25cad3e930)">
     <use style="fill:#dd8452;fill-opacity:0.8;" x="338.177317" xlink:href="#C2_0_b0692adc8e" y="199.749906"/>
    </g>
    <g clip-path="url(#p25cad3e930)">
     <use style="fill:#dd8452;fill-opacity:0.8;" x="326.728956" xlink:href="#C2_0_b0692adc8e" y="198.418522"/>
    </g>
    <g clip-path="url(#p25cad3e930)">
     <use style="fill:#dd8452;fill-opacity:0.8;" x="339.590566" xlink:href="#C2_0_b0692adc8e" y="199.046118"/>
    </g>
    <g clip-path="url(#p25cad3e930)">
     <use style="fill:#dd8452;fill-opacity:0.8;" x="330.559448" xlink:href="#C2_0_b0692adc8e" y="199.954962"/>
    </g>
    <g clip-path="url(#p25cad3e930)">
     <use style="fill:#dd8452;fill-opacity:0.8;" x="341.554389" xlink:href="#C2_0_b0692adc8e" y="197.468778"/>
    </g>
    <g clip-path="url(#p25cad3e930)">
     <use style="fill:#55a868;fill-opacity:0.8;" x="323.278995" xlink:href="#C2_0_b0692adc8e" y="200.582028"/>
    </g>
    <g clip-path="url(#p25cad3e930)">
     <use style="fill:#55a868;fill-opacity:0.8;" x="329.159033" xlink:href="#C2_0_b0692adc8e" y="200.591632"/>
    </g>
    <g clip-path="url(#p25cad3e930)">
     <use style="fill:#55a868;fill-opacity:0.8;" x="338.995211" xlink:href="#C2_0_b0692adc8e" y="200.730923"/>
    </g>
    <g clip-path="url(#p25cad3e930)">
     <use style="fill:#55a868;fill-opacity:0.8;" x="326.476245" xlink:href="#C2_0_b0692adc8e" y="200.517053"/>
    </g>
    <g clip-path="url(#p25cad3e930)">
     <use style="fill:#c44e52;fill-opacity:0.8;" x="339.626129" xlink:href="#C2_0_b0692adc8e" y="199.39075"/>
    </g>
    <g clip-path="url(#p25cad3e930)">
     <use style="fill:#c44e52;fill-opacity:0.8;" x="334.915169" xlink:href="#C2_0_b0692adc8e" y="199.244833"/>
    </g>
    <g clip-path="url(#p25cad3e930)">
     <use style="fill:#c44e52;fill-opacity:0.8;" x="332.685007" xlink:href="#C2_0_b0692adc8e" y="198.628027"/>
    </g>
    <g clip-path="url(#p25cad3e930)">
     <use style="fill:#c44e52;fill-opacity:0.8;" x="335.852679" xlink:href="#C2_0_b0692adc8e" y="200.155058"/>
    </g>
    <g clip-path="url(#p25cad3e930)">
     <use style="fill:#8172b3;fill-opacity:0.8;" x="329.062723" xlink:href="#C2_0_b0692adc8e" y="49.41237"/>
    </g>
    <g clip-path="url(#p25cad3e930)">
     <use style="fill:#8172b3;fill-opacity:0.8;" x="333.124846" xlink:href="#C2_0_b0692adc8e" y="28.387187"/>
    </g>
    <g clip-path="url(#p25cad3e930)">
     <use style="fill:#8172b3;fill-opacity:0.8;" x="327.114014" xlink:href="#C2_0_b0692adc8e" y="36.801991"/>
    </g>
    <g clip-path="url(#p25cad3e930)">
     <use style="fill:#8172b3;fill-opacity:0.8;" x="336.509256" xlink:href="#C2_0_b0692adc8e" y="91.545872"/>
    </g>
    <g clip-path="url(#p25cad3e930)">
     <use style="fill:#937860;fill-opacity:0.8;" x="331.449129" xlink:href="#C2_0_b0692adc8e" y="163.512013"/>
    </g>
    <g clip-path="url(#p25cad3e930)">
     <use style="fill:#937860;fill-opacity:0.8;" x="341.992868" xlink:href="#C2_0_b0692adc8e" y="189.732965"/>
    </g>
    <g clip-path="url(#p25cad3e930)">
     <use style="fill:#937860;fill-opacity:0.8;" x="331.500631" xlink:href="#C2_0_b0692adc8e" y="189.529184"/>
    </g>
    <g clip-path="url(#p25cad3e930)">
     <use style="fill:#937860;fill-opacity:0.8;" x="327.246809" xlink:href="#C2_0_b0692adc8e" y="188.668436"/>
    </g>
    <g clip-path="url(#p25cad3e930)">
     <use style="fill:#da8bc3;fill-opacity:0.8;" x="321.593108" xlink:href="#C2_0_b0692adc8e" y="151.658572"/>
    </g>
    <g clip-path="url(#p25cad3e930)">
     <use style="fill:#da8bc3;fill-opacity:0.8;" x="333.080956" xlink:href="#C2_0_b0692adc8e" y="147.521477"/>
    </g>
    <g clip-path="url(#p25cad3e930)">
     <use style="fill:#da8bc3;fill-opacity:0.8;" x="331.149438" xlink:href="#C2_0_b0692adc8e" y="157.771441"/>
    </g>
    <g clip-path="url(#p25cad3e930)">
     <use style="fill:#da8bc3;fill-opacity:0.8;" x="338.875046" xlink:href="#C2_0_b0692adc8e" y="146.670422"/>
    </g>
   </g>
   <g id="PathCollection_18">
    <defs>
     <path d="M 0 2.5 
C 0.663008 2.5 1.29895 2.236584 1.767767 1.767767 
C 2.236584 1.29895 2.5 0.663008 2.5 -0 
C 2.5 -0.663008 2.236584 -1.29895 1.767767 -1.767767 
C 1.29895 -2.236584 0.663008 -2.5 0 -2.5 
C -0.663008 -2.5 -1.29895 -2.236584 -1.767767 -1.767767 
C -2.236584 -1.29895 -2.5 -0.663008 -2.5 0 
C -2.5 0.663008 -2.236584 1.29895 -1.767767 1.767767 
C -1.29895 2.236584 -0.663008 2.5 0 2.5 
z
" id="C3_0_4c3a6b81b1"/>
    </defs>
    <g clip-path="url(#p25cad3e930)">
     <use style="fill:#4c72b0;fill-opacity:0.8;" x="444.631899" xlink:href="#C3_0_4c3a6b81b1" y="192.879573"/>
    </g>
    <g clip-path="url(#p25cad3e930)">
     <use style="fill:#4c72b0;fill-opacity:0.8;" x="453.149132" xlink:href="#C3_0_4c3a6b81b1" y="180.652873"/>
    </g>
    <g clip-path="url(#p25cad3e930)">
     <use style="fill:#4c72b0;fill-opacity:0.8;" x="436.220856" xlink:href="#C3_0_4c3a6b81b1" y="186.993391"/>
    </g>
    <g clip-path="url(#p25cad3e930)">
     <use style="fill:#dd8452;fill-opacity:0.8;" x="437.105936" xlink:href="#C3_0_4c3a6b81b1" y="195.235994"/>
    </g>
    <g clip-path="url(#p25cad3e930)">
     <use style="fill:#dd8452;fill-opacity:0.8;" x="453.300869" xlink:href="#C3_0_4c3a6b81b1" y="194.200978"/>
    </g>
    <g clip-path="url(#p25cad3e930)">
     <use style="fill:#dd8452;fill-opacity:0.8;" x="431.588878" xlink:href="#C3_0_4c3a6b81b1" y="194.864828"/>
    </g>
    <g clip-path="url(#p25cad3e930)">
     <use style="fill:#dd8452;fill-opacity:0.8;" x="435.646509" xlink:href="#C3_0_4c3a6b81b1" y="198.986827"/>
    </g>
    <g clip-path="url(#p25cad3e930)">
     <use style="fill:#dd8452;fill-opacity:0.8;" x="449.407788" xlink:href="#C3_0_4c3a6b81b1" y="188.970605"/>
    </g>
    <g clip-path="url(#p25cad3e930)">
     <use style="fill:#55a868;fill-opacity:0.8;" x="449.437891" xlink:href="#C3_0_4c3a6b81b1" y="200.436117"/>
    </g>
    <g clip-path="url(#p25cad3e930)">
     <use style="fill:#55a868;fill-opacity:0.8;" x="443.356072" xlink:href="#C3_0_4c3a6b81b1" y="200.447239"/>
    </g>
    <g clip-path="url(#p25cad3e930)">
     <use style="fill:#55a868;fill-opacity:0.8;" x="436.692028" xlink:href="#C3_0_4c3a6b81b1" y="199.163189"/>
    </g>
    <g clip-path="url(#p25cad3e930)">
     <use style="fill:#55a868;fill-opacity:0.8;" x="442.907744" xlink:href="#C3_0_4c3a6b81b1" y="196.824793"/>
    </g>
    <g clip-path="url(#p25cad3e930)">
     <use style="fill:#c44e52;fill-opacity:0.8;" x="448.808285" xlink:href="#C3_0_4c3a6b81b1" y="196.215967"/>
    </g>
    <g clip-path="url(#p25cad3e930)">
     <use style="fill:#c44e52;fill-opacity:0.8;" x="449.62998" xlink:href="#C3_0_4c3a6b81b1" y="198.9362"/>
    </g>
    <g clip-path="url(#p25cad3e930)">
     <use style="fill:#c44e52;fill-opacity:0.8;" x="445.794669" xlink:href="#C3_0_4c3a6b81b1" y="199.823009"/>
    </g>
    <g clip-path="url(#p25cad3e930)">
     <use style="fill:#c44e52;fill-opacity:0.8;" x="445.266418" xlink:href="#C3_0_4c3a6b81b1" y="200.730923"/>
    </g>
    <g clip-path="url(#p25cad3e930)">
     <use style="fill:#8172b3;fill-opacity:0.8;" x="448.265395" xlink:href="#C3_0_4c3a6b81b1" y="134.765975"/>
    </g>
    <g clip-path="url(#p25cad3e930)">
     <use style="fill:#8172b3;fill-opacity:0.8;" x="442.678204" xlink:href="#C3_0_4c3a6b81b1" y="86.218045"/>
    </g>
    <g clip-path="url(#p25cad3e930)">
     <use style="fill:#8172b3;fill-opacity:0.8;" x="449.660143" xlink:href="#C3_0_4c3a6b81b1" y="106.546743"/>
    </g>
    <g clip-path="url(#p25cad3e930)">
     <use style="fill:#8172b3;fill-opacity:0.8;" x="444.653853" xlink:href="#C3_0_4c3a6b81b1" y="157.741173"/>
    </g>
    <g clip-path="url(#p25cad3e930)">
     <use style="fill:#937860;fill-opacity:0.8;" x="436.055161" xlink:href="#C3_0_4c3a6b81b1" y="185.985797"/>
    </g>
    <g clip-path="url(#p25cad3e930)">
     <use style="fill:#937860;fill-opacity:0.8;" x="452.438152" xlink:href="#C3_0_4c3a6b81b1" y="185.346647"/>
    </g>
    <g clip-path="url(#p25cad3e930)">
     <use style="fill:#937860;fill-opacity:0.8;" x="435.059046" xlink:href="#C3_0_4c3a6b81b1" y="190.72609"/>
    </g>
    <g clip-path="url(#p25cad3e930)">
     <use style="fill:#937860;fill-opacity:0.8;" x="436.887864" xlink:href="#C3_0_4c3a6b81b1" y="181.012421"/>
    </g>
    <g clip-path="url(#p25cad3e930)">
     <use style="fill:#da8bc3;fill-opacity:0.8;" x="452.280657" xlink:href="#C3_0_4c3a6b81b1" y="143.900761"/>
    </g>
    <g clip-path="url(#p25cad3e930)">
     <use style="fill:#da8bc3;fill-opacity:0.8;" x="432.940717" xlink:href="#C3_0_4c3a6b81b1" y="122.7314"/>
    </g>
    <g clip-path="url(#p25cad3e930)">
     <use style="fill:#da8bc3;fill-opacity:0.8;" x="432.067213" xlink:href="#C3_0_4c3a6b81b1" y="127.725683"/>
    </g>
    <g clip-path="url(#p25cad3e930)">
     <use style="fill:#da8bc3;fill-opacity:0.8;" x="451.592629" xlink:href="#C3_0_4c3a6b81b1" y="151.394441"/>
    </g>
   </g>
   <g id="text_17">
    <!-- WDR49, $p_{adj}$ = .720 -->
    <g style="fill:#262626;" transform="translate(276.918891 13.77)scale(0.09 -0.09)">
     <defs>
      <path d="M 52.828125 42.09375 
L 5.5625 42.09375 
L 5.5625 50.296875 
L 52.828125 50.296875 
z
M 52.828125 20.359375 
L 5.5625 20.359375 
L 5.5625 28.5625 
L 52.828125 28.5625 
z
" id="ArialMT-61"/>
     </defs>
     <use transform="translate(0 0.125)" xlink:href="#ArialMT-87"/>
     <use transform="translate(94.384766 0.125)" xlink:href="#ArialMT-68"/>
     <use transform="translate(166.601562 0.125)" xlink:href="#ArialMT-82"/>
     <use transform="translate(238.818359 0.125)" xlink:href="#ArialMT-52"/>
     <use transform="translate(294.433594 0.125)" xlink:href="#ArialMT-57"/>
     <use transform="translate(350.048828 0.125)" xlink:href="#ArialMT-44"/>
     <use transform="translate(377.832031 0.125)" xlink:href="#ArialMT-32"/>
     <use transform="translate(405.615234 0.125)" xlink:href="#DejaVuSans-Oblique-112"/>
     <use transform="translate(469.091797 -16.28125)scale(0.7)" xlink:href="#DejaVuSans-Oblique-97"/>
     <use transform="translate(511.987305 -16.28125)scale(0.7)" xlink:href="#DejaVuSans-Oblique-100"/>
     <use transform="translate(556.420898 -16.28125)scale(0.7)" xlink:href="#DejaVuSans-Oblique-106"/>
     <use transform="translate(578.603516 0.125)" xlink:href="#ArialMT-32"/>
     <use transform="translate(606.386719 0.125)" xlink:href="#ArialMT-61"/>
     <use transform="translate(664.785156 0.125)" xlink:href="#ArialMT-32"/>
     <use transform="translate(692.568359 0.125)" xlink:href="#ArialMT-46"/>
     <use transform="translate(720.351562 0.125)" xlink:href="#ArialMT-55"/>
     <use transform="translate(774.216797 0.125)" xlink:href="#ArialMT-50"/>
     <use transform="translate(829.832031 0.125)" xlink:href="#ArialMT-48"/>
    </g>
   </g>
  </g>
  <g id="legend_1">
   <g id="patch_8">
    <path d="M 508.086093 175.28218 
L 551.900624 175.28218 
Q 553.700624 175.28218 553.700624 173.48218 
L 553.700624 72.53593 
Q 553.700624 70.73593 551.900624 70.73593 
L 508.086093 70.73593 
Q 506.286093 70.73593 506.286093 72.53593 
L 506.286093 173.48218 
Q 506.286093 175.28218 508.086093 175.28218 
z
" style="fill:#ffffff;opacity:0.8;stroke:#cccccc;stroke-linejoin:miter;"/>
   </g>
   <g id="text_18">
    <!-- Patient -->
    <g style="fill:#262626;" transform="translate(515.984296 80.777961)scale(0.09 -0.09)">
     <use xlink:href="#ArialMT-80"/>
     <use x="66.699219" xlink:href="#ArialMT-97"/>
     <use x="122.314453" xlink:href="#ArialMT-116"/>
     <use x="150.097656" xlink:href="#ArialMT-105"/>
     <use x="172.314453" xlink:href="#ArialMT-101"/>
     <use x="227.929688" xlink:href="#ArialMT-110"/>
     <use x="283.544922" xlink:href="#ArialMT-116"/>
    </g>
   </g>
   <g id="PathCollection_19">
    <defs>
     <path d="M 0 3.872983 
C 1.027127 3.872983 2.012324 3.464901 2.738613 2.738613 
C 3.464901 2.012324 3.872983 1.027127 3.872983 0 
C 3.872983 -1.027127 3.464901 -2.012324 2.738613 -2.738613 
C 2.012324 -3.464901 1.027127 -3.872983 0 -3.872983 
C -1.027127 -3.872983 -2.012324 -3.464901 -2.738613 -2.738613 
C -3.464901 -2.012324 -3.872983 -1.027127 -3.872983 0 
C -3.872983 1.027127 -3.464901 2.012324 -2.738613 2.738613 
C -2.012324 3.464901 -1.027127 3.872983 0 3.872983 
z
" id="mccd54fab65" style="stroke:#4c72b0;"/>
    </defs>
    <g>
     <use style="fill:#4c72b0;stroke:#4c72b0;" x="518.886093" xlink:href="#mccd54fab65" y="91.146243"/>
    </g>
   </g>
   <g id="text_19">
    <!-- 5 -->
    <g style="fill:#262626;" transform="translate(535.086093 93.508743)scale(0.09 -0.09)">
     <use xlink:href="#ArialMT-53"/>
    </g>
   </g>
   <g id="PathCollection_20">
    <defs>
     <path d="M 0 3.872983 
C 1.027127 3.872983 2.012324 3.464901 2.738613 2.738613 
C 3.464901 2.012324 3.872983 1.027127 3.872983 0 
C 3.872983 -1.027127 3.464901 -2.012324 2.738613 -2.738613 
C 2.012324 -3.464901 1.027127 -3.872983 0 -3.872983 
C -1.027127 -3.872983 -2.012324 -3.464901 -2.738613 -2.738613 
C -3.464901 -2.012324 -3.872983 -1.027127 -3.872983 0 
C -3.872983 1.027127 -3.464901 2.012324 -2.738613 2.738613 
C -2.012324 3.464901 -1.027127 3.872983 0 3.872983 
z
" id="mae05443434" style="stroke:#dd8452;"/>
    </defs>
    <g>
     <use style="fill:#dd8452;stroke:#dd8452;" x="518.886093" xlink:href="#mae05443434" y="103.877024"/>
    </g>
   </g>
   <g id="text_20">
    <!-- 15 -->
    <g style="fill:#262626;" transform="translate(535.086093 106.239524)scale(0.09 -0.09)">
     <use xlink:href="#ArialMT-49"/>
     <use x="55.615234" xlink:href="#ArialMT-53"/>
    </g>
   </g>
   <g id="PathCollection_21">
    <defs>
     <path d="M 0 3.872983 
C 1.027127 3.872983 2.012324 3.464901 2.738613 2.738613 
C 3.464901 2.012324 3.872983 1.027127 3.872983 0 
C 3.872983 -1.027127 3.464901 -2.012324 2.738613 -2.738613 
C 2.012324 -3.464901 1.027127 -3.872983 0 -3.872983 
C -1.027127 -3.872983 -2.012324 -3.464901 -2.738613 -2.738613 
C -3.464901 -2.012324 -3.872983 -1.027127 -3.872983 0 
C -3.872983 1.027127 -3.464901 2.012324 -2.738613 2.738613 
C -2.012324 3.464901 -1.027127 3.872983 0 3.872983 
z
" id="mf48fd14442" style="stroke:#55a868;"/>
    </defs>
    <g>
     <use style="fill:#55a868;stroke:#55a868;" x="518.886093" xlink:href="#mf48fd14442" y="116.607805"/>
    </g>
   </g>
   <g id="text_21">
    <!-- 17 -->
    <g style="fill:#262626;" transform="translate(535.086093 118.970305)scale(0.09 -0.09)">
     <use xlink:href="#ArialMT-49"/>
     <use x="55.615234" xlink:href="#ArialMT-55"/>
    </g>
   </g>
   <g id="PathCollection_22">
    <defs>
     <path d="M 0 3.872983 
C 1.027127 3.872983 2.012324 3.464901 2.738613 2.738613 
C 3.464901 2.012324 3.872983 1.027127 3.872983 0 
C 3.872983 -1.027127 3.464901 -2.012324 2.738613 -2.738613 
C 2.012324 -3.464901 1.027127 -3.872983 0 -3.872983 
C -1.027127 -3.872983 -2.012324 -3.464901 -2.738613 -2.738613 
C -3.464901 -2.012324 -3.872983 -1.027127 -3.872983 0 
C -3.872983 1.027127 -3.464901 2.012324 -2.738613 2.738613 
C -2.012324 3.464901 -1.027127 3.872983 0 3.872983 
z
" id="m8432672710" style="stroke:#c44e52;"/>
    </defs>
    <g>
     <use style="fill:#c44e52;stroke:#c44e52;" x="518.886093" xlink:href="#m8432672710" y="129.338586"/>
    </g>
   </g>
   <g id="text_22">
    <!-- 49 -->
    <g style="fill:#262626;" transform="translate(535.086093 131.701086)scale(0.09 -0.09)">
     <use xlink:href="#ArialMT-52"/>
     <use x="55.615234" xlink:href="#ArialMT-57"/>
    </g>
   </g>
   <g id="PathCollection_23">
    <defs>
     <path d="M 0 3.872983 
C 1.027127 3.872983 2.012324 3.464901 2.738613 2.738613 
C 3.464901 2.012324 3.872983 1.027127 3.872983 0 
C 3.872983 -1.027127 3.464901 -2.012324 2.738613 -2.738613 
C 2.012324 -3.464901 1.027127 -3.872983 0 -3.872983 
C -1.027127 -3.872983 -2.012324 -3.464901 -2.738613 -2.738613 
C -3.464901 -2.012324 -3.872983 -1.027127 -3.872983 0 
C -3.872983 1.027127 -3.464901 2.012324 -2.738613 2.738613 
C -2.012324 3.464901 -1.027127 3.872983 0 3.872983 
z
" id="mc8f998447b" style="stroke:#8172b3;"/>
    </defs>
    <g>
     <use style="fill:#8172b3;stroke:#8172b3;" x="518.886093" xlink:href="#mc8f998447b" y="142.069368"/>
    </g>
   </g>
   <g id="text_23">
    <!-- 62 -->
    <g style="fill:#262626;" transform="translate(535.086093 144.431868)scale(0.09 -0.09)">
     <defs>
      <path d="M 49.75 54.046875 
L 41.015625 53.375 
Q 39.84375 58.546875 37.703125 60.890625 
Q 34.125 64.65625 28.90625 64.65625 
Q 24.703125 64.65625 21.53125 62.3125 
Q 17.390625 59.28125 14.984375 53.46875 
Q 12.59375 47.65625 12.5 36.921875 
Q 15.671875 41.75 20.265625 44.09375 
Q 24.859375 46.4375 29.890625 46.4375 
Q 38.671875 46.4375 44.84375 39.96875 
Q 51.03125 33.5 51.03125 23.25 
Q 51.03125 16.5 48.125 10.71875 
Q 45.21875 4.9375 40.140625 1.859375 
Q 35.0625 -1.21875 28.609375 -1.21875 
Q 17.625 -1.21875 10.6875 6.859375 
Q 3.765625 14.9375 3.765625 33.5 
Q 3.765625 54.25 11.421875 63.671875 
Q 18.109375 71.875 29.4375 71.875 
Q 37.890625 71.875 43.28125 67.140625 
Q 48.6875 62.40625 49.75 54.046875 
z
M 13.875 23.1875 
Q 13.875 18.65625 15.796875 14.5 
Q 17.71875 10.359375 21.1875 8.171875 
Q 24.65625 6 28.46875 6 
Q 34.03125 6 38.03125 10.484375 
Q 42.046875 14.984375 42.046875 22.703125 
Q 42.046875 30.125 38.078125 34.390625 
Q 34.125 38.671875 28.125 38.671875 
Q 22.171875 38.671875 18.015625 34.390625 
Q 13.875 30.125 13.875 23.1875 
z
" id="ArialMT-54"/>
     </defs>
     <use xlink:href="#ArialMT-54"/>
     <use x="55.615234" xlink:href="#ArialMT-50"/>
    </g>
   </g>
   <g id="PathCollection_24">
    <defs>
     <path d="M 0 3.872983 
C 1.027127 3.872983 2.012324 3.464901 2.738613 2.738613 
C 3.464901 2.012324 3.872983 1.027127 3.872983 0 
C 3.872983 -1.027127 3.464901 -2.012324 2.738613 -2.738613 
C 2.012324 -3.464901 1.027127 -3.872983 0 -3.872983 
C -1.027127 -3.872983 -2.012324 -3.464901 -2.738613 -2.738613 
C -3.464901 -2.012324 -3.872983 -1.027127 -3.872983 0 
C -3.872983 1.027127 -3.464901 2.012324 -2.738613 2.738613 
C -2.012324 3.464901 -1.027127 3.872983 0 3.872983 
z
" id="md7cc5764de" style="stroke:#937860;"/>
    </defs>
    <g>
     <use style="fill:#937860;stroke:#937860;" x="518.886093" xlink:href="#md7cc5764de" y="154.800149"/>
    </g>
   </g>
   <g id="text_24">
    <!-- 69 -->
    <g style="fill:#262626;" transform="translate(535.086093 157.162649)scale(0.09 -0.09)">
     <use xlink:href="#ArialMT-54"/>
     <use x="55.615234" xlink:href="#ArialMT-57"/>
    </g>
   </g>
   <g id="PathCollection_25">
    <defs>
     <path d="M 0 3.872983 
C 1.027127 3.872983 2.012324 3.464901 2.738613 2.738613 
C 3.464901 2.012324 3.872983 1.027127 3.872983 0 
C 3.872983 -1.027127 3.464901 -2.012324 2.738613 -2.738613 
C 2.012324 -3.464901 1.027127 -3.872983 0 -3.872983 
C -1.027127 -3.872983 -2.012324 -3.464901 -2.738613 -2.738613 
C -3.464901 -2.012324 -3.872983 -1.027127 -3.872983 0 
C -3.872983 1.027127 -3.464901 2.012324 -2.738613 2.738613 
C -2.012324 3.464901 -1.027127 3.872983 0 3.872983 
z
" id="m0177dc692c" style="stroke:#da8bc3;"/>
    </defs>
    <g>
     <use style="fill:#da8bc3;stroke:#da8bc3;" x="518.886093" xlink:href="#m0177dc692c" y="167.53093"/>
    </g>
   </g>
   <g id="text_25">
    <!-- 126 -->
    <g style="fill:#262626;" transform="translate(535.086093 169.89343)scale(0.09 -0.09)">
     <use xlink:href="#ArialMT-49"/>
     <use x="55.615234" xlink:href="#ArialMT-50"/>
     <use x="111.230469" xlink:href="#ArialMT-54"/>
    </g>
   </g>
  </g>
 </g>
 <defs>
  <clipPath id="pd1b8974760">
   <rect height="189.57811" width="220.53811" x="46.660781" y="19.77"/>
  </clipPath>
  <clipPath id="p25cad3e930">
   <rect height="189.57811" width="220.53811" x="276.918891" y="19.77"/>
  </clipPath>
 </defs>
</svg>
