<?xml version="1.0" encoding="utf-8" standalone="no"?>
<!DOCTYPE svg PUBLIC "-//W3C//DTD SVG 1.1//EN"
  "http://www.w3.org/Graphics/SVG/1.1/DTD/svg11.dtd">
<svg xmlns:xlink="http://www.w3.org/1999/xlink" width="510.23622pt" height="255.11811pt" viewBox="0 0 510.23622 255.11811" xmlns="http://www.w3.org/2000/svg" version="1.1">
 <metadata>
  <rdf:RDF xmlns:dc="http://purl.org/dc/elements/1.1/" xmlns:cc="http://creativecommons.org/ns#" xmlns:rdf="http://www.w3.org/1999/02/22-rdf-syntax-ns#">
   <cc:Work>
    <dc:type rdf:resource="http://purl.org/dc/dcmitype/StillImage"/>
    <dc:date>2022-04-27T00:12:09.398739</dc:date>
    <dc:format>image/svg+xml</dc:format>
    <dc:creator>
     <cc:Agent>
      <dc:title>Matplotlib v3.5.1, https://matplotlib.org/</dc:title>
     </cc:Agent>
    </dc:creator>
   </cc:Work>
  </rdf:RDF>
 </metadata>
 <defs>
  <style type="text/css">*{stroke-linejoin: round; stroke-linecap: butt}</style>
 </defs>
 <g id="figure_1">
  <g id="patch_1">
   <path d="M 0 255.11811 
L 510.23622 255.11811 
L 510.23622 0 
L 0 0 
z
" style="fill: #ffffff"/>
  </g>
  <g id="axes_1">
   <g id="patch_2">
    <path d="M 52.22 213.89811 
L 500.51622 213.89811 
L 500.51622 24.32 
L 52.22 24.32 
z
" style="fill: #ffffff"/>
   </g>
   <g id="matplotlib.axis_1">
    <g id="xtick_1">
     <g id="text_1">
      <!-- 49 -->
      <g style="fill: #444444" transform="translate(79.236315 229.840141)scale(0.09 -0.09)">
       <defs>
        <path id="ArialMT-34" d="M 2069 0 
L 2069 1097 
L 81 1097 
L 81 1613 
L 2172 4581 
L 2631 4581 
L 2631 1613 
L 3250 1613 
L 3250 1097 
L 2631 1097 
L 2631 0 
L 2069 0 
z
M 2069 1613 
L 2069 3678 
L 634 1613 
L 2069 1613 
z
" transform="scale(0.015625)"/>
        <path id="ArialMT-39" d="M 350 1059 
L 891 1109 
Q 959 728 1153 556 
Q 1347 384 1650 384 
Q 1909 384 2104 503 
Q 2300 622 2425 820 
Q 2550 1019 2634 1356 
Q 2719 1694 2719 2044 
Q 2719 2081 2716 2156 
Q 2547 1888 2255 1720 
Q 1963 1553 1622 1553 
Q 1053 1553 659 1965 
Q 266 2378 266 3053 
Q 266 3750 677 4175 
Q 1088 4600 1706 4600 
Q 2153 4600 2523 4359 
Q 2894 4119 3086 3673 
Q 3278 3228 3278 2384 
Q 3278 1506 3087 986 
Q 2897 466 2520 194 
Q 2144 -78 1638 -78 
Q 1100 -78 759 220 
Q 419 519 350 1059 
z
M 2653 3081 
Q 2653 3566 2395 3850 
Q 2138 4134 1775 4134 
Q 1400 4134 1122 3828 
Q 844 3522 844 3034 
Q 844 2597 1108 2323 
Q 1372 2050 1759 2050 
Q 2150 2050 2401 2323 
Q 2653 2597 2653 3081 
z
" transform="scale(0.015625)"/>
       </defs>
       <use xlink:href="#ArialMT-34"/>
       <use xlink:href="#ArialMT-39" x="55.615234"/>
      </g>
     </g>
    </g>
    <g id="xtick_2">
     <g id="text_2">
      <!-- 17 -->
      <g style="fill: #444444" transform="translate(143.278632 229.840141)scale(0.09 -0.09)">
       <defs>
        <path id="ArialMT-31" d="M 2384 0 
L 1822 0 
L 1822 3584 
Q 1619 3391 1289 3197 
Q 959 3003 697 2906 
L 697 3450 
Q 1169 3672 1522 3987 
Q 1875 4303 2022 4600 
L 2384 4600 
L 2384 0 
z
" transform="scale(0.015625)"/>
        <path id="ArialMT-37" d="M 303 3981 
L 303 4522 
L 3269 4522 
L 3269 4084 
Q 2831 3619 2401 2847 
Q 1972 2075 1738 1259 
Q 1569 684 1522 0 
L 944 0 
Q 953 541 1156 1306 
Q 1359 2072 1739 2783 
Q 2119 3494 2547 3981 
L 303 3981 
z
" transform="scale(0.015625)"/>
       </defs>
       <use xlink:href="#ArialMT-31"/>
       <use xlink:href="#ArialMT-37" x="55.615234"/>
      </g>
     </g>
    </g>
    <g id="xtick_3">
     <g id="text_3">
      <!-- 69 -->
      <g style="fill: #444444" transform="translate(207.320949 229.840141)scale(0.09 -0.09)">
       <defs>
        <path id="ArialMT-36" d="M 3184 3459 
L 2625 3416 
Q 2550 3747 2413 3897 
Q 2184 4138 1850 4138 
Q 1581 4138 1378 3988 
Q 1113 3794 959 3422 
Q 806 3050 800 2363 
Q 1003 2672 1297 2822 
Q 1591 2972 1913 2972 
Q 2475 2972 2870 2558 
Q 3266 2144 3266 1488 
Q 3266 1056 3080 686 
Q 2894 316 2569 119 
Q 2244 -78 1831 -78 
Q 1128 -78 684 439 
Q 241 956 241 2144 
Q 241 3472 731 4075 
Q 1159 4600 1884 4600 
Q 2425 4600 2770 4297 
Q 3116 3994 3184 3459 
z
M 888 1484 
Q 888 1194 1011 928 
Q 1134 663 1356 523 
Q 1578 384 1822 384 
Q 2178 384 2434 671 
Q 2691 959 2691 1453 
Q 2691 1928 2437 2201 
Q 2184 2475 1800 2475 
Q 1419 2475 1153 2201 
Q 888 1928 888 1484 
z
" transform="scale(0.015625)"/>
       </defs>
       <use xlink:href="#ArialMT-36"/>
       <use xlink:href="#ArialMT-39" x="55.615234"/>
      </g>
     </g>
    </g>
    <g id="xtick_4">
     <g id="text_4">
      <!-- 15 -->
      <g style="fill: #444444" transform="translate(271.363266 229.840141)scale(0.09 -0.09)">
       <defs>
        <path id="ArialMT-35" d="M 266 1200 
L 856 1250 
Q 922 819 1161 601 
Q 1400 384 1738 384 
Q 2144 384 2425 690 
Q 2706 997 2706 1503 
Q 2706 1984 2436 2262 
Q 2166 2541 1728 2541 
Q 1456 2541 1237 2417 
Q 1019 2294 894 2097 
L 366 2166 
L 809 4519 
L 3088 4519 
L 3088 3981 
L 1259 3981 
L 1013 2750 
Q 1425 3038 1878 3038 
Q 2478 3038 2890 2622 
Q 3303 2206 3303 1553 
Q 3303 931 2941 478 
Q 2500 -78 1738 -78 
Q 1113 -78 717 272 
Q 322 622 266 1200 
z
" transform="scale(0.015625)"/>
       </defs>
       <use xlink:href="#ArialMT-31"/>
       <use xlink:href="#ArialMT-35" x="55.615234"/>
      </g>
     </g>
    </g>
    <g id="xtick_5">
     <g id="text_5">
      <!-- 5 -->
      <g style="fill: #444444" transform="translate(337.908006 229.840141)scale(0.09 -0.09)">
       <use xlink:href="#ArialMT-35"/>
      </g>
     </g>
    </g>
    <g id="xtick_6">
     <g id="text_6">
      <!-- 126 -->
      <g style="fill: #444444" transform="translate(396.945479 229.840141)scale(0.09 -0.09)">
       <defs>
        <path id="ArialMT-32" d="M 3222 541 
L 3222 0 
L 194 0 
Q 188 203 259 391 
Q 375 700 629 1000 
Q 884 1300 1366 1694 
Q 2113 2306 2375 2664 
Q 2638 3022 2638 3341 
Q 2638 3675 2398 3904 
Q 2159 4134 1775 4134 
Q 1369 4134 1125 3890 
Q 881 3647 878 3216 
L 300 3275 
Q 359 3922 746 4261 
Q 1134 4600 1788 4600 
Q 2447 4600 2831 4234 
Q 3216 3869 3216 3328 
Q 3216 3053 3103 2787 
Q 2991 2522 2730 2228 
Q 2469 1934 1863 1422 
Q 1356 997 1212 845 
Q 1069 694 975 541 
L 3222 541 
z
" transform="scale(0.015625)"/>
       </defs>
       <use xlink:href="#ArialMT-31"/>
       <use xlink:href="#ArialMT-32" x="55.615234"/>
       <use xlink:href="#ArialMT-36" x="111.230469"/>
      </g>
     </g>
    </g>
    <g id="xtick_7">
     <g id="text_7">
      <!-- 62 -->
      <g style="fill: #444444" transform="translate(463.490218 229.840141)scale(0.09 -0.09)">
       <use xlink:href="#ArialMT-36"/>
       <use xlink:href="#ArialMT-32" x="55.615234"/>
      </g>
     </g>
    </g>
    <g id="text_8">
     <!-- Patient -->
     <g style="fill: #444444" transform="translate(262.359048 242.070923)scale(0.09 -0.09)">
      <defs>
       <path id="ArialMT-50" d="M 494 0 
L 494 4581 
L 2222 4581 
Q 2678 4581 2919 4538 
Q 3256 4481 3484 4323 
Q 3713 4166 3852 3881 
Q 3991 3597 3991 3256 
Q 3991 2672 3619 2267 
Q 3247 1863 2275 1863 
L 1100 1863 
L 1100 0 
L 494 0 
z
M 1100 2403 
L 2284 2403 
Q 2872 2403 3119 2622 
Q 3366 2841 3366 3238 
Q 3366 3525 3220 3729 
Q 3075 3934 2838 4000 
Q 2684 4041 2272 4041 
L 1100 4041 
L 1100 2403 
z
" transform="scale(0.015625)"/>
       <path id="ArialMT-61" d="M 2588 409 
Q 2275 144 1986 34 
Q 1697 -75 1366 -75 
Q 819 -75 525 192 
Q 231 459 231 875 
Q 231 1119 342 1320 
Q 453 1522 633 1644 
Q 813 1766 1038 1828 
Q 1203 1872 1538 1913 
Q 2219 1994 2541 2106 
Q 2544 2222 2544 2253 
Q 2544 2597 2384 2738 
Q 2169 2928 1744 2928 
Q 1347 2928 1158 2789 
Q 969 2650 878 2297 
L 328 2372 
Q 403 2725 575 2942 
Q 747 3159 1072 3276 
Q 1397 3394 1825 3394 
Q 2250 3394 2515 3294 
Q 2781 3194 2906 3042 
Q 3031 2891 3081 2659 
Q 3109 2516 3109 2141 
L 3109 1391 
Q 3109 606 3145 398 
Q 3181 191 3288 0 
L 2700 0 
Q 2613 175 2588 409 
z
M 2541 1666 
Q 2234 1541 1622 1453 
Q 1275 1403 1131 1340 
Q 988 1278 909 1158 
Q 831 1038 831 891 
Q 831 666 1001 516 
Q 1172 366 1500 366 
Q 1825 366 2078 508 
Q 2331 650 2450 897 
Q 2541 1088 2541 1459 
L 2541 1666 
z
" transform="scale(0.015625)"/>
       <path id="ArialMT-74" d="M 1650 503 
L 1731 6 
Q 1494 -44 1306 -44 
Q 1000 -44 831 53 
Q 663 150 594 308 
Q 525 466 525 972 
L 525 2881 
L 113 2881 
L 113 3319 
L 525 3319 
L 525 4141 
L 1084 4478 
L 1084 3319 
L 1650 3319 
L 1650 2881 
L 1084 2881 
L 1084 941 
Q 1084 700 1114 631 
Q 1144 563 1211 522 
Q 1278 481 1403 481 
Q 1497 481 1650 503 
z
" transform="scale(0.015625)"/>
       <path id="ArialMT-69" d="M 425 3934 
L 425 4581 
L 988 4581 
L 988 3934 
L 425 3934 
z
M 425 0 
L 425 3319 
L 988 3319 
L 988 0 
L 425 0 
z
" transform="scale(0.015625)"/>
       <path id="ArialMT-65" d="M 2694 1069 
L 3275 997 
Q 3138 488 2766 206 
Q 2394 -75 1816 -75 
Q 1088 -75 661 373 
Q 234 822 234 1631 
Q 234 2469 665 2931 
Q 1097 3394 1784 3394 
Q 2450 3394 2872 2941 
Q 3294 2488 3294 1666 
Q 3294 1616 3291 1516 
L 816 1516 
Q 847 969 1125 678 
Q 1403 388 1819 388 
Q 2128 388 2347 550 
Q 2566 713 2694 1069 
z
M 847 1978 
L 2700 1978 
Q 2663 2397 2488 2606 
Q 2219 2931 1791 2931 
Q 1403 2931 1139 2672 
Q 875 2413 847 1978 
z
" transform="scale(0.015625)"/>
       <path id="ArialMT-6e" d="M 422 0 
L 422 3319 
L 928 3319 
L 928 2847 
Q 1294 3394 1984 3394 
Q 2284 3394 2536 3286 
Q 2788 3178 2913 3003 
Q 3038 2828 3088 2588 
Q 3119 2431 3119 2041 
L 3119 0 
L 2556 0 
L 2556 2019 
Q 2556 2363 2490 2533 
Q 2425 2703 2258 2804 
Q 2091 2906 1866 2906 
Q 1506 2906 1245 2678 
Q 984 2450 984 1813 
L 984 0 
L 422 0 
z
" transform="scale(0.015625)"/>
      </defs>
      <use xlink:href="#ArialMT-50"/>
      <use xlink:href="#ArialMT-61" x="66.699219"/>
      <use xlink:href="#ArialMT-74" x="122.314453"/>
      <use xlink:href="#ArialMT-69" x="150.097656"/>
      <use xlink:href="#ArialMT-65" x="172.314453"/>
      <use xlink:href="#ArialMT-6e" x="227.929688"/>
      <use xlink:href="#ArialMT-74" x="283.544922"/>
     </g>
    </g>
   </g>
   <g id="matplotlib.axis_2">
    <g id="ytick_1">
     <g id="text_9">
      <!-- 250 -->
      <g style="fill: #444444" transform="translate(27.705469 201.770747)scale(0.09 -0.09)">
       <defs>
        <path id="ArialMT-30" d="M 266 2259 
Q 266 3072 433 3567 
Q 600 4063 929 4331 
Q 1259 4600 1759 4600 
Q 2128 4600 2406 4451 
Q 2684 4303 2865 4023 
Q 3047 3744 3150 3342 
Q 3253 2941 3253 2259 
Q 3253 1453 3087 958 
Q 2922 463 2592 192 
Q 2263 -78 1759 -78 
Q 1097 -78 719 397 
Q 266 969 266 2259 
z
M 844 2259 
Q 844 1131 1108 757 
Q 1372 384 1759 384 
Q 2147 384 2411 759 
Q 2675 1134 2675 2259 
Q 2675 3391 2411 3762 
Q 2147 4134 1753 4134 
Q 1366 4134 1134 3806 
Q 844 3388 844 2259 
z
" transform="scale(0.015625)"/>
       </defs>
       <use xlink:href="#ArialMT-32"/>
       <use xlink:href="#ArialMT-35" x="55.615234"/>
       <use xlink:href="#ArialMT-30" x="111.230469"/>
      </g>
     </g>
    </g>
    <g id="ytick_2">
     <g id="text_10">
      <!-- 500 -->
      <g style="fill: #444444" transform="translate(27.705469 179.951426)scale(0.09 -0.09)">
       <use xlink:href="#ArialMT-35"/>
       <use xlink:href="#ArialMT-30" x="55.615234"/>
       <use xlink:href="#ArialMT-30" x="111.230469"/>
      </g>
     </g>
    </g>
    <g id="ytick_3">
     <g id="text_11">
      <!-- 750 -->
      <g style="fill: #444444" transform="translate(27.705469 158.132105)scale(0.09 -0.09)">
       <use xlink:href="#ArialMT-37"/>
       <use xlink:href="#ArialMT-35" x="55.615234"/>
       <use xlink:href="#ArialMT-30" x="111.230469"/>
      </g>
     </g>
    </g>
    <g id="ytick_4">
     <g id="text_12">
      <!-- 1000 -->
      <g style="fill: #444444" transform="translate(22.700625 136.312784)scale(0.09 -0.09)">
       <use xlink:href="#ArialMT-31"/>
       <use xlink:href="#ArialMT-30" x="55.615234"/>
       <use xlink:href="#ArialMT-30" x="111.230469"/>
       <use xlink:href="#ArialMT-30" x="166.845703"/>
      </g>
     </g>
    </g>
    <g id="ytick_5">
     <g id="text_13">
      <!-- 1250 -->
      <g style="fill: #444444" transform="translate(22.700625 114.493463)scale(0.09 -0.09)">
       <use xlink:href="#ArialMT-31"/>
       <use xlink:href="#ArialMT-32" x="55.615234"/>
       <use xlink:href="#ArialMT-35" x="111.230469"/>
       <use xlink:href="#ArialMT-30" x="166.845703"/>
      </g>
     </g>
    </g>
    <g id="ytick_6">
     <g id="text_14">
      <!-- 1500 -->
      <g style="fill: #444444" transform="translate(22.700625 92.674142)scale(0.09 -0.09)">
       <use xlink:href="#ArialMT-31"/>
       <use xlink:href="#ArialMT-35" x="55.615234"/>
       <use xlink:href="#ArialMT-30" x="111.230469"/>
       <use xlink:href="#ArialMT-30" x="166.845703"/>
      </g>
     </g>
    </g>
    <g id="ytick_7">
     <g id="text_15">
      <!-- 1750 -->
      <g style="fill: #444444" transform="translate(22.700625 70.854821)scale(0.09 -0.09)">
       <use xlink:href="#ArialMT-31"/>
       <use xlink:href="#ArialMT-37" x="55.615234"/>
       <use xlink:href="#ArialMT-35" x="111.230469"/>
       <use xlink:href="#ArialMT-30" x="166.845703"/>
      </g>
     </g>
    </g>
    <g id="ytick_8">
     <g id="text_16">
      <!-- 2000 -->
      <g style="fill: #444444" transform="translate(22.700625 49.0355)scale(0.09 -0.09)">
       <use xlink:href="#ArialMT-32"/>
       <use xlink:href="#ArialMT-30" x="55.615234"/>
       <use xlink:href="#ArialMT-30" x="111.230469"/>
       <use xlink:href="#ArialMT-30" x="166.845703"/>
      </g>
     </g>
    </g>
    <g id="text_17">
     <!-- Trimmed Means of M values (TMM) -->
     <g style="fill: #444444" transform="translate(16.806406 190.194993)rotate(-90)scale(0.09 -0.09)">
      <defs>
       <path id="ArialMT-54" d="M 1659 0 
L 1659 4041 
L 150 4041 
L 150 4581 
L 3781 4581 
L 3781 4041 
L 2266 4041 
L 2266 0 
L 1659 0 
z
" transform="scale(0.015625)"/>
       <path id="ArialMT-72" d="M 416 0 
L 416 3319 
L 922 3319 
L 922 2816 
Q 1116 3169 1280 3281 
Q 1444 3394 1641 3394 
Q 1925 3394 2219 3213 
L 2025 2691 
Q 1819 2813 1613 2813 
Q 1428 2813 1281 2702 
Q 1134 2591 1072 2394 
Q 978 2094 978 1738 
L 978 0 
L 416 0 
z
" transform="scale(0.015625)"/>
       <path id="ArialMT-6d" d="M 422 0 
L 422 3319 
L 925 3319 
L 925 2853 
Q 1081 3097 1340 3245 
Q 1600 3394 1931 3394 
Q 2300 3394 2536 3241 
Q 2772 3088 2869 2813 
Q 3263 3394 3894 3394 
Q 4388 3394 4653 3120 
Q 4919 2847 4919 2278 
L 4919 0 
L 4359 0 
L 4359 2091 
Q 4359 2428 4304 2576 
Q 4250 2725 4106 2815 
Q 3963 2906 3769 2906 
Q 3419 2906 3187 2673 
Q 2956 2441 2956 1928 
L 2956 0 
L 2394 0 
L 2394 2156 
Q 2394 2531 2256 2718 
Q 2119 2906 1806 2906 
Q 1569 2906 1367 2781 
Q 1166 2656 1075 2415 
Q 984 2175 984 1722 
L 984 0 
L 422 0 
z
" transform="scale(0.015625)"/>
       <path id="ArialMT-64" d="M 2575 0 
L 2575 419 
Q 2259 -75 1647 -75 
Q 1250 -75 917 144 
Q 584 363 401 755 
Q 219 1147 219 1656 
Q 219 2153 384 2558 
Q 550 2963 881 3178 
Q 1213 3394 1622 3394 
Q 1922 3394 2156 3267 
Q 2391 3141 2538 2938 
L 2538 4581 
L 3097 4581 
L 3097 0 
L 2575 0 
z
M 797 1656 
Q 797 1019 1065 703 
Q 1334 388 1700 388 
Q 2069 388 2326 689 
Q 2584 991 2584 1609 
Q 2584 2291 2321 2609 
Q 2059 2928 1675 2928 
Q 1300 2928 1048 2622 
Q 797 2316 797 1656 
z
" transform="scale(0.015625)"/>
       <path id="ArialMT-20" transform="scale(0.015625)"/>
       <path id="ArialMT-4d" d="M 475 0 
L 475 4581 
L 1388 4581 
L 2472 1338 
Q 2622 884 2691 659 
Q 2769 909 2934 1394 
L 4031 4581 
L 4847 4581 
L 4847 0 
L 4263 0 
L 4263 3834 
L 2931 0 
L 2384 0 
L 1059 3900 
L 1059 0 
L 475 0 
z
" transform="scale(0.015625)"/>
       <path id="ArialMT-73" d="M 197 991 
L 753 1078 
Q 800 744 1014 566 
Q 1228 388 1613 388 
Q 2000 388 2187 545 
Q 2375 703 2375 916 
Q 2375 1106 2209 1216 
Q 2094 1291 1634 1406 
Q 1016 1563 777 1677 
Q 538 1791 414 1992 
Q 291 2194 291 2438 
Q 291 2659 392 2848 
Q 494 3038 669 3163 
Q 800 3259 1026 3326 
Q 1253 3394 1513 3394 
Q 1903 3394 2198 3281 
Q 2494 3169 2634 2976 
Q 2775 2784 2828 2463 
L 2278 2388 
Q 2241 2644 2061 2787 
Q 1881 2931 1553 2931 
Q 1166 2931 1000 2803 
Q 834 2675 834 2503 
Q 834 2394 903 2306 
Q 972 2216 1119 2156 
Q 1203 2125 1616 2013 
Q 2213 1853 2448 1751 
Q 2684 1650 2818 1456 
Q 2953 1263 2953 975 
Q 2953 694 2789 445 
Q 2625 197 2315 61 
Q 2006 -75 1616 -75 
Q 969 -75 630 194 
Q 291 463 197 991 
z
" transform="scale(0.015625)"/>
       <path id="ArialMT-6f" d="M 213 1659 
Q 213 2581 725 3025 
Q 1153 3394 1769 3394 
Q 2453 3394 2887 2945 
Q 3322 2497 3322 1706 
Q 3322 1066 3130 698 
Q 2938 331 2570 128 
Q 2203 -75 1769 -75 
Q 1072 -75 642 372 
Q 213 819 213 1659 
z
M 791 1659 
Q 791 1022 1069 705 
Q 1347 388 1769 388 
Q 2188 388 2466 706 
Q 2744 1025 2744 1678 
Q 2744 2294 2464 2611 
Q 2184 2928 1769 2928 
Q 1347 2928 1069 2612 
Q 791 2297 791 1659 
z
" transform="scale(0.015625)"/>
       <path id="ArialMT-66" d="M 556 0 
L 556 2881 
L 59 2881 
L 59 3319 
L 556 3319 
L 556 3672 
Q 556 4006 616 4169 
Q 697 4388 901 4523 
Q 1106 4659 1475 4659 
Q 1713 4659 2000 4603 
L 1916 4113 
Q 1741 4144 1584 4144 
Q 1328 4144 1222 4034 
Q 1116 3925 1116 3625 
L 1116 3319 
L 1763 3319 
L 1763 2881 
L 1116 2881 
L 1116 0 
L 556 0 
z
" transform="scale(0.015625)"/>
       <path id="ArialMT-76" d="M 1344 0 
L 81 3319 
L 675 3319 
L 1388 1331 
Q 1503 1009 1600 663 
Q 1675 925 1809 1294 
L 2547 3319 
L 3125 3319 
L 1869 0 
L 1344 0 
z
" transform="scale(0.015625)"/>
       <path id="ArialMT-6c" d="M 409 0 
L 409 4581 
L 972 4581 
L 972 0 
L 409 0 
z
" transform="scale(0.015625)"/>
       <path id="ArialMT-75" d="M 2597 0 
L 2597 488 
Q 2209 -75 1544 -75 
Q 1250 -75 995 37 
Q 741 150 617 320 
Q 494 491 444 738 
Q 409 903 409 1263 
L 409 3319 
L 972 3319 
L 972 1478 
Q 972 1038 1006 884 
Q 1059 663 1231 536 
Q 1403 409 1656 409 
Q 1909 409 2131 539 
Q 2353 669 2445 892 
Q 2538 1116 2538 1541 
L 2538 3319 
L 3100 3319 
L 3100 0 
L 2597 0 
z
" transform="scale(0.015625)"/>
       <path id="ArialMT-28" d="M 1497 -1347 
Q 1031 -759 709 28 
Q 388 816 388 1659 
Q 388 2403 628 3084 
Q 909 3875 1497 4659 
L 1900 4659 
Q 1522 4009 1400 3731 
Q 1209 3300 1100 2831 
Q 966 2247 966 1656 
Q 966 153 1900 -1347 
L 1497 -1347 
z
" transform="scale(0.015625)"/>
       <path id="ArialMT-29" d="M 791 -1347 
L 388 -1347 
Q 1322 153 1322 1656 
Q 1322 2244 1188 2822 
Q 1081 3291 891 3722 
Q 769 4003 388 4659 
L 791 4659 
Q 1378 3875 1659 3084 
Q 1900 2403 1900 1659 
Q 1900 816 1576 28 
Q 1253 -759 791 -1347 
z
" transform="scale(0.015625)"/>
      </defs>
      <use xlink:href="#ArialMT-54"/>
      <use xlink:href="#ArialMT-72" x="57.333984"/>
      <use xlink:href="#ArialMT-69" x="90.634766"/>
      <use xlink:href="#ArialMT-6d" x="112.851562"/>
      <use xlink:href="#ArialMT-6d" x="196.152344"/>
      <use xlink:href="#ArialMT-65" x="279.453125"/>
      <use xlink:href="#ArialMT-64" x="335.068359"/>
      <use xlink:href="#ArialMT-20" x="390.683594"/>
      <use xlink:href="#ArialMT-4d" x="418.466797"/>
      <use xlink:href="#ArialMT-65" x="501.767578"/>
      <use xlink:href="#ArialMT-61" x="557.382812"/>
      <use xlink:href="#ArialMT-6e" x="612.998047"/>
      <use xlink:href="#ArialMT-73" x="668.613281"/>
      <use xlink:href="#ArialMT-20" x="718.613281"/>
      <use xlink:href="#ArialMT-6f" x="746.396484"/>
      <use xlink:href="#ArialMT-66" x="802.011719"/>
      <use xlink:href="#ArialMT-20" x="829.794922"/>
      <use xlink:href="#ArialMT-4d" x="857.578125"/>
      <use xlink:href="#ArialMT-20" x="940.878906"/>
      <use xlink:href="#ArialMT-76" x="968.662109"/>
      <use xlink:href="#ArialMT-61" x="1018.662109"/>
      <use xlink:href="#ArialMT-6c" x="1074.277344"/>
      <use xlink:href="#ArialMT-75" x="1096.494141"/>
      <use xlink:href="#ArialMT-65" x="1152.109375"/>
      <use xlink:href="#ArialMT-73" x="1207.724609"/>
      <use xlink:href="#ArialMT-20" x="1257.724609"/>
      <use xlink:href="#ArialMT-28" x="1285.507812"/>
      <use xlink:href="#ArialMT-54" x="1318.808594"/>
      <use xlink:href="#ArialMT-4d" x="1379.892578"/>
      <use xlink:href="#ArialMT-4d" x="1463.193359"/>
      <use xlink:href="#ArialMT-29" x="1546.494141"/>
     </g>
    </g>
   </g>
   <g id="PolyCollection_1">
    <defs>
     <path id="m30ccb25003" d="M 85.652675 -186.232181 
L 82.829642 -186.232181 
L 82.821345 -186.543362 
L 82.81509 -186.854542 
L 82.810698 -187.165723 
L 82.807958 -187.476903 
L 82.806625 -187.788083 
L 82.80642 -188.099264 
L 82.807033 -188.410444 
L 82.808127 -188.721625 
L 82.809335 -189.032805 
L 82.81027 -189.343986 
L 82.81052 -189.655166 
L 82.809657 -189.966347 
L 82.807239 -190.277527 
L 82.802813 -190.588707 
L 82.79592 -190.899888 
L 82.786099 -191.211068 
L 82.772891 -191.522249 
L 82.755842 -191.833429 
L 82.734511 -192.14461 
L 82.708471 -192.45579 
L 82.677316 -192.766971 
L 82.640662 -193.078151 
L 82.598155 -193.389331 
L 82.549471 -193.700512 
L 82.494324 -194.011692 
L 82.432467 -194.322873 
L 82.363694 -194.634053 
L 82.287846 -194.945234 
L 82.204812 -195.256414 
L 82.11453 -195.567595 
L 82.016994 -195.878775 
L 81.912246 -196.189955 
L 81.800386 -196.501136 
L 81.681568 -196.812316 
L 81.556 -197.123497 
L 81.423945 -197.434677 
L 81.285718 -197.745858 
L 81.141688 -198.057038 
L 80.992271 -198.368219 
L 80.837931 -198.679399 
L 80.679178 -198.990579 
L 80.516559 -199.30176 
L 80.350662 -199.61294 
L 80.182106 -199.924121 
L 80.01154 -200.235301 
L 79.839634 -200.546482 
L 79.667082 -200.857662 
L 79.494586 -201.168843 
L 79.322861 -201.480023 
L 79.152624 -201.791204 
L 78.98459 -202.102384 
L 78.819468 -202.413564 
L 78.657952 -202.724745 
L 78.500722 -203.035925 
L 78.348434 -203.347106 
L 78.20172 -203.658286 
L 78.061179 -203.969467 
L 77.927377 -204.280647 
L 77.800844 -204.591828 
L 77.682068 -204.903008 
L 77.571494 -205.214188 
L 77.469523 -205.525369 
L 77.37651 -205.836549 
L 77.292761 -206.14773 
L 77.218537 -206.45891 
L 77.154049 -206.770091 
L 77.099461 -207.081271 
L 77.054889 -207.392452 
L 77.020406 -207.703632 
L 76.996038 -208.014812 
L 76.98177 -208.325993 
L 76.977546 -208.637173 
L 76.983272 -208.948354 
L 76.998817 -209.259534 
L 77.024019 -209.570715 
L 77.058682 -209.881895 
L 77.102585 -210.193076 
L 77.155478 -210.504256 
L 77.21709 -210.815436 
L 77.287129 -211.126617 
L 77.365284 -211.437797 
L 77.451228 -211.748978 
L 77.544618 -212.060158 
L 77.645102 -212.371339 
L 77.752315 -212.682519 
L 77.865883 -212.9937 
L 77.985424 -213.30488 
L 78.11055 -213.61606 
L 78.240869 -213.927241 
L 78.375983 -214.238421 
L 78.515489 -214.549602 
L 78.658983 -214.860782 
L 78.806061 -215.171963 
L 78.956314 -215.483143 
L 79.109334 -215.794324 
L 79.264715 -216.105504 
L 79.422049 -216.416684 
L 79.580932 -216.727865 
L 79.740962 -217.039045 
L 88.741355 -217.039045 
L 88.741355 -217.039045 
L 88.901385 -216.727865 
L 89.060268 -216.416684 
L 89.217602 -216.105504 
L 89.372983 -215.794324 
L 89.526003 -215.483143 
L 89.676256 -215.171963 
L 89.823334 -214.860782 
L 89.966829 -214.549602 
L 90.106335 -214.238421 
L 90.241448 -213.927241 
L 90.371767 -213.61606 
L 90.496893 -213.30488 
L 90.616435 -212.9937 
L 90.730002 -212.682519 
L 90.837215 -212.371339 
L 90.937699 -212.060158 
L 91.03109 -211.748978 
L 91.117033 -211.437797 
L 91.195188 -211.126617 
L 91.265227 -210.815436 
L 91.326839 -210.504256 
L 91.379733 -210.193076 
L 91.423635 -209.881895 
L 91.458299 -209.570715 
L 91.4835 -209.259534 
L 91.499046 -208.948354 
L 91.504771 -208.637173 
L 91.500547 -208.325993 
L 91.486279 -208.014812 
L 91.461911 -207.703632 
L 91.427428 -207.392452 
L 91.382856 -207.081271 
L 91.328268 -206.770091 
L 91.26378 -206.45891 
L 91.189556 -206.14773 
L 91.105808 -205.836549 
L 91.012794 -205.525369 
L 90.910823 -205.214188 
L 90.800249 -204.903008 
L 90.681473 -204.591828 
L 90.55494 -204.280647 
L 90.421139 -203.969467 
L 90.280598 -203.658286 
L 90.133883 -203.347106 
L 89.981596 -203.035925 
L 89.824366 -202.724745 
L 89.66285 -202.413564 
L 89.497727 -202.102384 
L 89.329693 -201.791204 
L 89.159456 -201.480023 
L 88.987731 -201.168843 
L 88.815236 -200.857662 
L 88.642683 -200.546482 
L 88.470778 -200.235301 
L 88.300211 -199.924121 
L 88.131655 -199.61294 
L 87.965758 -199.30176 
L 87.80314 -198.990579 
L 87.644386 -198.679399 
L 87.490046 -198.368219 
L 87.340629 -198.057038 
L 87.196599 -197.745858 
L 87.058373 -197.434677 
L 86.926317 -197.123497 
L 86.800749 -196.812316 
L 86.681931 -196.501136 
L 86.570071 -196.189955 
L 86.465323 -195.878775 
L 86.367787 -195.567595 
L 86.277506 -195.256414 
L 86.194472 -194.945234 
L 86.118624 -194.634053 
L 86.049851 -194.322873 
L 85.987993 -194.011692 
L 85.932846 -193.700512 
L 85.884162 -193.389331 
L 85.841655 -193.078151 
L 85.805001 -192.766971 
L 85.773846 -192.45579 
L 85.747806 -192.14461 
L 85.726475 -191.833429 
L 85.709426 -191.522249 
L 85.696218 -191.211068 
L 85.686397 -190.899888 
L 85.679504 -190.588707 
L 85.675078 -190.277527 
L 85.67266 -189.966347 
L 85.671798 -189.655166 
L 85.672047 -189.343986 
L 85.672982 -189.032805 
L 85.674191 -188.721625 
L 85.675284 -188.410444 
L 85.675898 -188.099264 
L 85.675692 -187.788083 
L 85.674359 -187.476903 
L 85.671619 -187.165723 
L 85.667228 -186.854542 
L 85.660972 -186.543362 
L 85.652675 -186.232181 
z
" style="stroke: #999999; stroke-width: 2"/>
    </defs>
    <g clip-path="url(#p40475c3171)">
     <use xlink:href="#m30ccb25003" x="0" y="255.11811" style="fill: #ffffff; stroke: #999999; stroke-width: 2"/>
    </g>
   </g>
   <g id="PolyCollection_2">
    <defs>
     <path id="m54d7ee3a5b" d="M 149.906536 -188.821212 
L 146.660416 -188.821212 
L 146.619238 -189.158178 
L 146.577692 -189.495145 
L 146.535655 -189.832112 
L 146.492997 -190.169079 
L 146.449578 -190.506045 
L 146.405255 -190.843012 
L 146.359882 -191.179979 
L 146.313308 -191.516946 
L 146.265387 -191.853913 
L 146.215975 -192.190879 
L 146.164932 -192.527846 
L 146.112128 -192.864813 
L 146.057443 -193.20178 
L 146.000767 -193.538747 
L 145.942008 -193.875713 
L 145.881087 -194.21268 
L 145.817944 -194.549647 
L 145.752541 -194.886614 
L 145.684857 -195.22358 
L 145.614896 -195.560547 
L 145.542684 -195.897514 
L 145.46827 -196.234481 
L 145.391727 -196.571448 
L 145.31315 -196.908414 
L 145.23266 -197.245381 
L 145.150399 -197.582348 
L 145.06653 -197.919315 
L 144.981237 -198.256282 
L 144.894724 -198.593248 
L 144.807211 -198.930215 
L 144.718934 -199.267182 
L 144.630143 -199.604149 
L 144.541098 -199.941115 
L 144.452071 -200.278082 
L 144.363337 -200.615049 
L 144.275178 -200.952016 
L 144.187877 -201.288983 
L 144.101718 -201.625949 
L 144.016979 -201.962916 
L 143.933935 -202.299883 
L 143.852855 -202.63685 
L 143.773996 -202.973817 
L 143.697606 -203.310783 
L 143.623918 -203.64775 
L 143.553152 -203.984717 
L 143.485512 -204.321684 
L 143.421184 -204.65865 
L 143.360338 -204.995617 
L 143.303123 -205.332584 
L 143.249672 -205.669551 
L 143.200096 -206.006518 
L 143.154488 -206.343484 
L 143.112921 -206.680451 
L 143.075451 -207.017418 
L 143.042113 -207.354385 
L 143.012928 -207.691352 
L 142.987897 -208.028318 
L 142.967008 -208.365285 
L 142.950234 -208.702252 
L 142.937535 -209.039219 
L 142.928858 -209.376186 
L 142.924142 -209.713152 
L 142.923316 -210.050119 
L 142.926302 -210.387086 
L 142.933016 -210.724053 
L 142.943371 -211.061019 
L 142.957275 -211.397986 
L 142.974637 -211.734953 
L 142.995365 -212.07192 
L 143.019366 -212.408887 
L 143.046553 -212.745853 
L 143.07684 -213.08282 
L 143.110146 -213.419787 
L 143.146392 -213.756754 
L 143.185509 -214.093721 
L 143.227429 -214.430687 
L 143.272093 -214.767654 
L 143.319446 -215.104621 
L 143.369439 -215.441588 
L 143.422029 -215.778554 
L 143.477176 -216.115521 
L 143.534845 -216.452488 
L 143.595006 -216.789455 
L 143.657628 -217.126422 
L 143.722684 -217.463388 
L 143.790146 -217.800355 
L 143.859986 -218.137322 
L 143.932171 -218.474289 
L 144.006669 -218.811256 
L 144.08344 -219.148222 
L 144.162438 -219.485189 
L 144.243612 -219.822156 
L 144.326901 -220.159123 
L 144.412237 -220.496089 
L 144.499539 -220.833056 
L 144.588719 -221.170023 
L 144.679675 -221.50699 
L 144.772294 -221.843957 
L 144.866452 -222.180923 
L 151.700499 -222.180923 
L 151.700499 -222.180923 
L 151.794658 -221.843957 
L 151.887277 -221.50699 
L 151.978232 -221.170023 
L 152.067412 -220.833056 
L 152.154715 -220.496089 
L 152.24005 -220.159123 
L 152.32334 -219.822156 
L 152.404514 -219.485189 
L 152.483512 -219.148222 
L 152.560283 -218.811256 
L 152.63478 -218.474289 
L 152.706966 -218.137322 
L 152.776805 -217.800355 
L 152.844267 -217.463388 
L 152.909323 -217.126422 
L 152.971946 -216.789455 
L 153.032106 -216.452488 
L 153.089776 -216.115521 
L 153.144923 -215.778554 
L 153.197512 -215.441588 
L 153.247505 -215.104621 
L 153.294858 -214.767654 
L 153.339522 -214.430687 
L 153.381443 -214.093721 
L 153.420559 -213.756754 
L 153.456806 -213.419787 
L 153.490111 -213.08282 
L 153.520398 -212.745853 
L 153.547585 -212.408887 
L 153.571587 -212.07192 
L 153.592314 -211.734953 
L 153.609676 -211.397986 
L 153.623581 -211.061019 
L 153.633935 -210.724053 
L 153.64065 -210.387086 
L 153.643636 -210.050119 
L 153.64281 -209.713152 
L 153.638094 -209.376186 
L 153.629417 -209.039219 
L 153.616717 -208.702252 
L 153.599943 -208.365285 
L 153.579054 -208.028318 
L 153.554024 -207.691352 
L 153.524838 -207.354385 
L 153.491501 -207.017418 
L 153.45403 -206.680451 
L 153.412463 -206.343484 
L 153.366855 -206.006518 
L 153.317279 -205.669551 
L 153.263828 -205.332584 
L 153.206614 -204.995617 
L 153.145768 -204.65865 
L 153.08144 -204.321684 
L 153.0138 -203.984717 
L 152.943034 -203.64775 
L 152.869346 -203.310783 
L 152.792955 -202.973817 
L 152.714096 -202.63685 
L 152.633016 -202.299883 
L 152.549973 -201.962916 
L 152.465234 -201.625949 
L 152.379074 -201.288983 
L 152.291774 -200.952016 
L 152.203615 -200.615049 
L 152.114881 -200.278082 
L 152.025853 -199.941115 
L 151.936809 -199.604149 
L 151.848018 -199.267182 
L 151.759741 -198.930215 
L 151.672227 -198.593248 
L 151.585714 -198.256282 
L 151.500422 -197.919315 
L 151.416552 -197.582348 
L 151.334291 -197.245381 
L 151.253801 -196.908414 
L 151.175225 -196.571448 
L 151.098682 -196.234481 
L 151.024267 -195.897514 
L 150.952055 -195.560547 
L 150.882095 -195.22358 
L 150.814411 -194.886614 
L 150.749007 -194.549647 
L 150.685865 -194.21268 
L 150.624944 -193.875713 
L 150.566184 -193.538747 
L 150.509509 -193.20178 
L 150.454823 -192.864813 
L 150.40202 -192.527846 
L 150.350977 -192.190879 
L 150.301564 -191.853913 
L 150.253644 -191.516946 
L 150.20707 -191.179979 
L 150.161696 -190.843012 
L 150.117374 -190.506045 
L 150.073955 -190.169079 
L 150.031297 -189.832112 
L 149.98926 -189.495145 
L 149.947714 -189.158178 
L 149.906536 -188.821212 
z
" style="stroke: #999999; stroke-width: 2"/>
    </defs>
    <g clip-path="url(#p40475c3171)">
     <use xlink:href="#m54d7ee3a5b" x="0" y="255.11811" style="fill: #ffffff; stroke: #999999; stroke-width: 2"/>
    </g>
   </g>
   <g id="PolyCollection_3">
    <defs>
     <path id="m6597add5f8" d="M 215.244928 -67.823524 
L 209.406658 -67.823524 
L 209.363038 -67.990087 
L 209.3213 -68.15665 
L 209.281086 -68.323213 
L 209.241991 -68.489776 
L 209.203565 -68.65634 
L 209.165319 -68.822903 
L 209.126729 -68.989466 
L 209.087238 -69.156029 
L 209.046271 -69.322592 
L 209.003232 -69.489156 
L 208.957516 -69.655719 
L 208.908515 -69.822282 
L 208.855625 -69.988845 
L 208.798252 -70.155408 
L 208.735822 -70.321972 
L 208.667782 -70.488535 
L 208.593614 -70.655098 
L 208.512833 -70.821661 
L 208.424998 -70.988224 
L 208.329715 -71.154787 
L 208.226639 -71.321351 
L 208.115483 -71.487914 
L 207.996013 -71.654477 
L 207.868056 -71.82104 
L 207.731499 -71.987603 
L 207.586288 -72.154167 
L 207.432432 -72.32073 
L 207.269996 -72.487293 
L 207.099105 -72.653856 
L 206.91994 -72.820419 
L 206.732734 -72.986983 
L 206.537772 -73.153546 
L 206.335386 -73.320109 
L 206.125952 -73.486672 
L 205.909889 -73.653235 
L 205.687652 -73.819799 
L 205.459732 -73.986362 
L 205.226653 -74.152925 
L 204.988967 -74.319488 
L 204.747253 -74.486051 
L 204.502116 -74.652615 
L 204.254181 -74.819178 
L 204.004099 -74.985741 
L 203.752537 -75.152304 
L 203.500184 -75.318867 
L 203.247747 -75.485431 
L 202.995951 -75.651994 
L 202.745539 -75.818557 
L 202.497271 -75.98512 
L 202.251924 -76.151683 
L 202.01029 -76.318246 
L 201.773177 -76.48481 
L 201.541408 -76.651373 
L 201.315815 -76.817936 
L 201.097242 -76.984499 
L 200.886539 -77.151062 
L 200.684561 -77.317626 
L 200.492161 -77.484189 
L 200.31019 -77.650752 
L 200.139486 -77.817315 
L 199.980874 -77.983878 
L 199.835156 -78.150442 
L 199.703108 -78.317005 
L 199.585467 -78.483568 
L 199.482932 -78.650131 
L 199.396151 -78.816694 
L 199.325716 -78.983258 
L 199.272155 -79.149821 
L 199.235928 -79.316384 
L 199.217417 -79.482947 
L 199.216924 -79.64951 
L 199.234664 -79.816074 
L 199.270762 -79.982637 
L 199.325249 -80.1492 
L 199.398062 -80.315763 
L 199.489039 -80.482326 
L 199.597925 -80.64889 
L 199.724367 -80.815453 
L 199.867922 -80.982016 
L 200.028055 -81.148579 
L 200.204148 -81.315142 
L 200.395502 -81.481705 
L 200.601347 -81.648269 
L 200.820845 -81.814832 
L 201.053098 -81.981395 
L 201.297161 -82.147958 
L 201.552043 -82.314521 
L 201.816723 -82.481085 
L 202.090154 -82.647648 
L 202.371272 -82.814211 
L 202.659008 -82.980774 
L 202.952292 -83.147337 
L 203.250064 -83.313901 
L 203.551282 -83.480464 
L 203.854923 -83.647027 
L 204.159997 -83.81359 
L 204.465548 -83.980153 
L 204.77066 -84.146717 
L 205.07446 -84.31328 
L 219.577126 -84.31328 
L 219.577126 -84.31328 
L 219.880926 -84.146717 
L 220.186038 -83.980153 
L 220.491589 -83.81359 
L 220.796663 -83.647027 
L 221.100305 -83.480464 
L 221.401522 -83.313901 
L 221.699294 -83.147337 
L 221.992578 -82.980774 
L 222.280314 -82.814211 
L 222.561432 -82.647648 
L 222.834863 -82.481085 
L 223.099543 -82.314521 
L 223.354425 -82.147958 
L 223.598488 -81.981395 
L 223.830741 -81.814832 
L 224.050239 -81.648269 
L 224.256084 -81.481705 
L 224.447438 -81.315142 
L 224.623531 -81.148579 
L 224.783664 -80.982016 
L 224.927219 -80.815453 
L 225.053661 -80.64889 
L 225.162547 -80.482326 
L 225.253525 -80.315763 
L 225.326337 -80.1492 
L 225.380824 -79.982637 
L 225.416922 -79.816074 
L 225.434662 -79.64951 
L 225.434169 -79.482947 
L 225.415658 -79.316384 
L 225.379431 -79.149821 
L 225.32587 -78.983258 
L 225.255435 -78.816694 
L 225.168654 -78.650131 
L 225.066119 -78.483568 
L 224.948479 -78.317005 
L 224.81643 -78.150442 
L 224.670712 -77.983878 
L 224.5121 -77.817315 
L 224.341396 -77.650752 
L 224.159425 -77.484189 
L 223.967025 -77.317626 
L 223.765047 -77.151062 
L 223.554344 -76.984499 
L 223.335771 -76.817936 
L 223.110178 -76.651373 
L 222.878409 -76.48481 
L 222.641296 -76.318246 
L 222.399662 -76.151683 
L 222.154315 -75.98512 
L 221.906047 -75.818557 
L 221.655635 -75.651994 
L 221.403839 -75.485431 
L 221.151402 -75.318867 
L 220.899049 -75.152304 
L 220.647487 -74.985741 
L 220.397405 -74.819178 
L 220.14947 -74.652615 
L 219.904333 -74.486051 
L 219.662619 -74.319488 
L 219.424933 -74.152925 
L 219.191854 -73.986362 
L 218.963934 -73.819799 
L 218.741697 -73.653235 
L 218.525634 -73.486672 
L 218.3162 -73.320109 
L 218.113814 -73.153546 
L 217.918852 -72.986983 
L 217.731646 -72.820419 
L 217.552481 -72.653856 
L 217.38159 -72.487293 
L 217.219154 -72.32073 
L 217.065298 -72.154167 
L 216.920087 -71.987603 
L 216.78353 -71.82104 
L 216.655573 -71.654477 
L 216.536103 -71.487914 
L 216.424947 -71.321351 
L 216.321871 -71.154787 
L 216.226588 -70.988224 
L 216.138753 -70.821661 
L 216.057972 -70.655098 
L 215.983804 -70.488535 
L 215.915764 -70.321972 
L 215.853334 -70.155408 
L 215.795961 -69.988845 
L 215.743071 -69.822282 
L 215.69407 -69.655719 
L 215.648354 -69.489156 
L 215.605315 -69.322592 
L 215.564348 -69.156029 
L 215.524857 -68.989466 
L 215.486267 -68.822903 
L 215.448021 -68.65634 
L 215.409595 -68.489776 
L 215.3705 -68.323213 
L 215.330286 -68.15665 
L 215.288548 -67.990087 
L 215.244928 -67.823524 
z
" style="stroke: #999999; stroke-width: 2"/>
    </defs>
    <g clip-path="url(#p40475c3171)">
     <use xlink:href="#m6597add5f8" x="0" y="255.11811" style="fill: #ffffff; stroke: #999999; stroke-width: 2"/>
    </g>
   </g>
   <g id="PolyCollection_4">
    <defs>
     <path id="m16c61a5621" d="M 286.248557 -80.311087 
L 266.487663 -80.311087 
L 266.327796 -80.434016 
L 266.17803 -80.556944 
L 266.03872 -80.679873 
L 265.910173 -80.802802 
L 265.79264 -80.925731 
L 265.686318 -81.04866 
L 265.591348 -81.171589 
L 265.507814 -81.294517 
L 265.43574 -81.417446 
L 265.375095 -81.540375 
L 265.325789 -81.663304 
L 265.287675 -81.786233 
L 265.260555 -81.909162 
L 265.244172 -82.032091 
L 265.238222 -82.155019 
L 265.242352 -82.277948 
L 265.256162 -82.400877 
L 265.279212 -82.523806 
L 265.311021 -82.646735 
L 265.351076 -82.769664 
L 265.39883 -82.892592 
L 265.453712 -83.015521 
L 265.515127 -83.13845 
L 265.582465 -83.261379 
L 265.6551 -83.384308 
L 265.732398 -83.507237 
L 265.813721 -83.630166 
L 265.89843 -83.753094 
L 265.985892 -83.876023 
L 266.075481 -83.998952 
L 266.166583 -84.121881 
L 266.258602 -84.24481 
L 266.350958 -84.367739 
L 266.443096 -84.490668 
L 266.534486 -84.613596 
L 266.624625 -84.736525 
L 266.713041 -84.859454 
L 266.799295 -84.982383 
L 266.882981 -85.105312 
L 266.963727 -85.228241 
L 267.0412 -85.351169 
L 267.115103 -85.474098 
L 267.185175 -85.597027 
L 267.251194 -85.719956 
L 267.312976 -85.842885 
L 267.370373 -85.965814 
L 267.423274 -86.088743 
L 267.471606 -86.211671 
L 267.515328 -86.3346 
L 267.554436 -86.457529 
L 267.588956 -86.580458 
L 267.618949 -86.703387 
L 267.644503 -86.826316 
L 267.665738 -86.949244 
L 267.682798 -87.072173 
L 267.695856 -87.195102 
L 267.705107 -87.318031 
L 267.710771 -87.44096 
L 267.713089 -87.563889 
L 267.712319 -87.686818 
L 267.708741 -87.809746 
L 267.70265 -87.932675 
L 267.694355 -88.055604 
L 267.684182 -88.178533 
L 267.672467 -88.301462 
L 267.659559 -88.424391 
L 267.645813 -88.54732 
L 267.631596 -88.670248 
L 267.617279 -88.793177 
L 267.60324 -88.916106 
L 267.589859 -89.039035 
L 267.577519 -89.161964 
L 267.566604 -89.284893 
L 267.557496 -89.407821 
L 267.550574 -89.53075 
L 267.546216 -89.653679 
L 267.544788 -89.776608 
L 267.546655 -89.899537 
L 267.552167 -90.022466 
L 267.561664 -90.145395 
L 267.575476 -90.268323 
L 267.593913 -90.391252 
L 267.617271 -90.514181 
L 267.645828 -90.63711 
L 267.679838 -90.760039 
L 267.719538 -90.882968 
L 267.765136 -91.005896 
L 267.816818 -91.128825 
L 267.874741 -91.251754 
L 267.939037 -91.374683 
L 268.009805 -91.497612 
L 268.087116 -91.620541 
L 268.171009 -91.74347 
L 268.261492 -91.866398 
L 268.358539 -91.989327 
L 268.462094 -92.112256 
L 268.572068 -92.235185 
L 268.688337 -92.358114 
L 268.81075 -92.481043 
L 283.925471 -92.481043 
L 283.925471 -92.481043 
L 284.047883 -92.358114 
L 284.164153 -92.235185 
L 284.274126 -92.112256 
L 284.377681 -91.989327 
L 284.474729 -91.866398 
L 284.565211 -91.74347 
L 284.649104 -91.620541 
L 284.726415 -91.497612 
L 284.797183 -91.374683 
L 284.861479 -91.251754 
L 284.919403 -91.128825 
L 284.971085 -91.005896 
L 285.016683 -90.882968 
L 285.056382 -90.760039 
L 285.090393 -90.63711 
L 285.118949 -90.514181 
L 285.142308 -90.391252 
L 285.160745 -90.268323 
L 285.174556 -90.145395 
L 285.184054 -90.022466 
L 285.189566 -89.899537 
L 285.191432 -89.776608 
L 285.190005 -89.653679 
L 285.185646 -89.53075 
L 285.178725 -89.407821 
L 285.169617 -89.284893 
L 285.158701 -89.161964 
L 285.146362 -89.039035 
L 285.132981 -88.916106 
L 285.118941 -88.793177 
L 285.104625 -88.670248 
L 285.090407 -88.54732 
L 285.076662 -88.424391 
L 285.063753 -88.301462 
L 285.052038 -88.178533 
L 285.041865 -88.055604 
L 285.033571 -87.932675 
L 285.027479 -87.809746 
L 285.023901 -87.686818 
L 285.023132 -87.563889 
L 285.025449 -87.44096 
L 285.031113 -87.318031 
L 285.040365 -87.195102 
L 285.053423 -87.072173 
L 285.070483 -86.949244 
L 285.091717 -86.826316 
L 285.117271 -86.703387 
L 285.147264 -86.580458 
L 285.181784 -86.457529 
L 285.220892 -86.3346 
L 285.264614 -86.211671 
L 285.312946 -86.088743 
L 285.365848 -85.965814 
L 285.423245 -85.842885 
L 285.485026 -85.719956 
L 285.551046 -85.597027 
L 285.621118 -85.474098 
L 285.69502 -85.351169 
L 285.772493 -85.228241 
L 285.85324 -85.105312 
L 285.936925 -84.982383 
L 286.023179 -84.859454 
L 286.111596 -84.736525 
L 286.201735 -84.613596 
L 286.293124 -84.490668 
L 286.385263 -84.367739 
L 286.477619 -84.24481 
L 286.569637 -84.121881 
L 286.660739 -83.998952 
L 286.750328 -83.876023 
L 286.83779 -83.753094 
L 286.9225 -83.630166 
L 287.003822 -83.507237 
L 287.08112 -83.384308 
L 287.153755 -83.261379 
L 287.221093 -83.13845 
L 287.282509 -83.015521 
L 287.337391 -82.892592 
L 287.385145 -82.769664 
L 287.425199 -82.646735 
L 287.457009 -82.523806 
L 287.480058 -82.400877 
L 287.493869 -82.277948 
L 287.497998 -82.155019 
L 287.492049 -82.032091 
L 287.475666 -81.909162 
L 287.448545 -81.786233 
L 287.410432 -81.663304 
L 287.361126 -81.540375 
L 287.30048 -81.417446 
L 287.228407 -81.294517 
L 287.144872 -81.171589 
L 287.049902 -81.04866 
L 286.943581 -80.925731 
L 286.826048 -80.802802 
L 286.6975 -80.679873 
L 286.558191 -80.556944 
L 286.408424 -80.434016 
L 286.248557 -80.311087 
z
" style="stroke: #999999; stroke-width: 2"/>
    </defs>
    <g clip-path="url(#p40475c3171)">
     <use xlink:href="#m16c61a5621" x="0" y="255.11811" style="fill: #ffffff; stroke: #999999; stroke-width: 2"/>
    </g>
   </g>
   <g id="PolyCollection_5">
    <defs>
     <path id="mb58bbd99ff" d="M 348.37005 -51.960474 
L 332.450805 -51.960474 
L 332.321507 -52.033533 
L 332.194099 -52.106592 
L 332.068042 -52.179651 
L 331.942743 -52.252711 
L 331.817554 -52.32577 
L 331.691782 -52.398829 
L 331.564693 -52.471888 
L 331.435515 -52.544947 
L 331.303451 -52.618007 
L 331.167678 -52.691066 
L 331.027364 -52.764125 
L 330.88167 -52.837184 
L 330.729758 -52.910244 
L 330.570803 -52.983303 
L 330.404001 -53.056362 
L 330.228572 -53.129421 
L 330.043779 -53.202481 
L 329.848924 -53.27554 
L 329.643366 -53.348599 
L 329.426525 -53.421658 
L 329.197887 -53.494717 
L 328.957015 -53.567777 
L 328.703553 -53.640836 
L 328.437232 -53.713895 
L 328.157876 -53.786954 
L 327.865403 -53.860014 
L 327.559834 -53.933073 
L 327.241289 -54.006132 
L 326.909996 -54.079191 
L 326.566287 -54.152251 
L 326.210598 -54.22531 
L 325.843472 -54.298369 
L 325.465556 -54.371428 
L 325.077597 -54.444487 
L 324.680438 -54.517547 
L 324.27502 -54.590606 
L 323.86237 -54.663665 
L 323.443601 -54.736724 
L 323.019902 -54.809784 
L 322.592534 -54.882843 
L 322.162821 -54.955902 
L 321.732144 -55.028961 
L 321.301931 -55.102021 
L 320.87365 -55.17508 
L 320.448797 -55.248139 
L 320.028893 -55.321198 
L 319.615466 -55.394257 
L 319.210052 -55.467317 
L 318.814175 -55.540376 
L 318.429347 -55.613435 
L 318.057051 -55.686494 
L 317.698739 -55.759554 
L 317.355817 -55.832613 
L 317.029641 -55.905672 
L 316.721506 -55.978731 
L 316.432643 -56.05179 
L 316.164206 -56.12485 
L 315.91727 -56.197909 
L 315.692823 -56.270968 
L 315.491761 -56.344027 
L 315.314886 -56.417087 
L 315.162898 -56.490146 
L 315.036396 -56.563205 
L 314.935872 -56.636264 
L 314.861713 -56.709324 
L 314.814199 -56.782383 
L 314.793501 -56.855442 
L 314.799684 -56.928501 
L 314.832711 -57.00156 
L 314.892437 -57.07462 
L 314.978621 -57.147679 
L 315.090924 -57.220738 
L 315.228914 -57.293797 
L 315.392073 -57.366857 
L 315.579798 -57.439916 
L 315.791409 -57.512975 
L 316.026156 -57.586034 
L 316.283221 -57.659094 
L 316.561728 -57.732153 
L 316.860747 -57.805212 
L 317.179303 -57.878271 
L 317.516379 -57.95133 
L 317.870926 -58.02439 
L 318.241867 -58.097449 
L 318.628104 -58.170508 
L 319.028525 -58.243567 
L 319.442006 -58.316627 
L 319.867422 -58.389686 
L 320.303648 -58.462745 
L 320.749564 -58.535804 
L 321.204062 -58.608864 
L 321.666047 -58.681923 
L 322.134444 -58.754982 
L 322.608197 -58.828041 
L 323.086276 -58.9011 
L 323.567676 -58.97416 
L 324.051422 -59.047219 
L 324.53657 -59.120278 
L 325.022207 -59.193337 
L 355.798648 -59.193337 
L 355.798648 -59.193337 
L 356.284285 -59.120278 
L 356.769433 -59.047219 
L 357.253179 -58.97416 
L 357.734579 -58.9011 
L 358.212658 -58.828041 
L 358.686411 -58.754982 
L 359.154808 -58.681923 
L 359.616793 -58.608864 
L 360.071291 -58.535804 
L 360.517207 -58.462745 
L 360.953433 -58.389686 
L 361.378849 -58.316627 
L 361.79233 -58.243567 
L 362.192751 -58.170508 
L 362.578988 -58.097449 
L 362.949929 -58.02439 
L 363.304476 -57.95133 
L 363.641552 -57.878271 
L 363.960108 -57.805212 
L 364.259127 -57.732153 
L 364.537634 -57.659094 
L 364.794699 -57.586034 
L 365.029445 -57.512975 
L 365.241057 -57.439916 
L 365.428782 -57.366857 
L 365.591941 -57.293797 
L 365.729931 -57.220738 
L 365.842234 -57.147679 
L 365.928418 -57.07462 
L 365.988144 -57.00156 
L 366.02117 -56.928501 
L 366.027354 -56.855442 
L 366.006656 -56.782383 
L 365.959142 -56.709324 
L 365.884983 -56.636264 
L 365.784459 -56.563205 
L 365.657957 -56.490146 
L 365.505969 -56.417087 
L 365.329094 -56.344027 
L 365.128032 -56.270968 
L 364.903585 -56.197909 
L 364.656649 -56.12485 
L 364.388212 -56.05179 
L 364.099349 -55.978731 
L 363.791214 -55.905672 
L 363.465038 -55.832613 
L 363.122116 -55.759554 
L 362.763803 -55.686494 
L 362.391508 -55.613435 
L 362.00668 -55.540376 
L 361.610803 -55.467317 
L 361.205389 -55.394257 
L 360.791962 -55.321198 
L 360.372058 -55.248139 
L 359.947205 -55.17508 
L 359.518924 -55.102021 
L 359.088711 -55.028961 
L 358.658034 -54.955902 
L 358.228321 -54.882843 
L 357.800953 -54.809784 
L 357.377254 -54.736724 
L 356.958485 -54.663665 
L 356.545835 -54.590606 
L 356.140417 -54.517547 
L 355.743258 -54.444487 
L 355.355299 -54.371428 
L 354.977383 -54.298369 
L 354.610257 -54.22531 
L 354.254568 -54.152251 
L 353.910859 -54.079191 
L 353.579566 -54.006132 
L 353.261021 -53.933073 
L 352.955452 -53.860014 
L 352.662979 -53.786954 
L 352.383623 -53.713895 
L 352.117302 -53.640836 
L 351.86384 -53.567777 
L 351.622968 -53.494717 
L 351.39433 -53.421658 
L 351.177489 -53.348599 
L 350.971931 -53.27554 
L 350.777076 -53.202481 
L 350.592282 -53.129421 
L 350.416854 -53.056362 
L 350.250052 -52.983303 
L 350.091097 -52.910244 
L 349.939185 -52.837184 
L 349.793491 -52.764125 
L 349.653177 -52.691066 
L 349.517404 -52.618007 
L 349.385339 -52.544947 
L 349.256162 -52.471888 
L 349.129072 -52.398829 
L 349.003301 -52.32577 
L 348.878112 -52.252711 
L 348.752813 -52.179651 
L 348.626756 -52.106592 
L 348.499348 -52.033533 
L 348.37005 -51.960474 
z
" style="stroke: #999999; stroke-width: 2"/>
    </defs>
    <g clip-path="url(#p40475c3171)">
     <use xlink:href="#mb58bbd99ff" x="0" y="255.11811" style="fill: #ffffff; stroke: #999999; stroke-width: 2"/>
    </g>
   </g>
   <g id="PolyCollection_6">
    <defs>
     <path id="m4b76e27cfb" d="M 414.576948 -49.837187 
L 394.328541 -49.837187 
L 394.213934 -49.955576 
L 394.108424 -50.073965 
L 394.012208 -50.192354 
L 393.925446 -50.310743 
L 393.848263 -50.429132 
L 393.780745 -50.547521 
L 393.72294 -50.66591 
L 393.674859 -50.784298 
L 393.636473 -50.902687 
L 393.607715 -51.021076 
L 393.588481 -51.139465 
L 393.57863 -51.257854 
L 393.577981 -51.376243 
L 393.586322 -51.494632 
L 393.603404 -51.613021 
L 393.628946 -51.73141 
L 393.662635 -51.849799 
L 393.70413 -51.968188 
L 393.753059 -52.086577 
L 393.809028 -52.204966 
L 393.871618 -52.323355 
L 393.940389 -52.441744 
L 394.014883 -52.560133 
L 394.094623 -52.678522 
L 394.179122 -52.796911 
L 394.267879 -52.9153 
L 394.360385 -53.033689 
L 394.456127 -53.152078 
L 394.554587 -53.270467 
L 394.655244 -53.388856 
L 394.757583 -53.507245 
L 394.86109 -53.625633 
L 394.96526 -53.744022 
L 395.069595 -53.862411 
L 395.173609 -53.9808 
L 395.27683 -54.099189 
L 395.378802 -54.217578 
L 395.479084 -54.335967 
L 395.577258 -54.454356 
L 395.672924 -54.572745 
L 395.765708 -54.691134 
L 395.855256 -54.809523 
L 395.941243 -54.927912 
L 396.02337 -55.046301 
L 396.101365 -55.16469 
L 396.174985 -55.283079 
L 396.244016 -55.401468 
L 396.308276 -55.519857 
L 396.367611 -55.638246 
L 396.4219 -55.756635 
L 396.471053 -55.875024 
L 396.515009 -55.993413 
L 396.553742 -56.111802 
L 396.587252 -56.230191 
L 396.615575 -56.348579 
L 396.638773 -56.466968 
L 396.65694 -56.585357 
L 396.670198 -56.703746 
L 396.678698 -56.822135 
L 396.682617 -56.940524 
L 396.682158 -57.058913 
L 396.677551 -57.177302 
L 396.669047 -57.295691 
L 396.656922 -57.41408 
L 396.641472 -57.532469 
L 396.623011 -57.650858 
L 396.601873 -57.769247 
L 396.578406 -57.887636 
L 396.552975 -58.006025 
L 396.525954 -58.124414 
L 396.49773 -58.242803 
L 396.468699 -58.361192 
L 396.439262 -58.479581 
L 396.409824 -58.59797 
L 396.380796 -58.716359 
L 396.352585 -58.834748 
L 396.325599 -58.953137 
L 396.300242 -59.071526 
L 396.276913 -59.189914 
L 396.256 -59.308303 
L 396.237884 -59.426692 
L 396.222934 -59.545081 
L 396.211505 -59.66347 
L 396.203936 -59.781859 
L 396.200548 -59.900248 
L 396.201646 -60.018637 
L 396.207511 -60.137026 
L 396.218404 -60.255415 
L 396.234564 -60.373804 
L 396.256202 -60.492193 
L 396.283508 -60.610582 
L 396.316642 -60.728971 
L 396.355739 -60.84736 
L 396.400906 -60.965749 
L 396.452222 -61.084138 
L 396.509737 -61.202527 
L 396.573473 -61.320916 
L 396.643423 -61.439305 
L 396.719555 -61.557694 
L 412.185935 -61.557694 
L 412.185935 -61.557694 
L 412.262066 -61.439305 
L 412.332017 -61.320916 
L 412.395752 -61.202527 
L 412.453267 -61.084138 
L 412.504583 -60.965749 
L 412.54975 -60.84736 
L 412.588847 -60.728971 
L 412.621981 -60.610582 
L 412.649287 -60.492193 
L 412.670926 -60.373804 
L 412.687085 -60.255415 
L 412.697979 -60.137026 
L 412.703844 -60.018637 
L 412.704941 -59.900248 
L 412.701553 -59.781859 
L 412.693984 -59.66347 
L 412.682555 -59.545081 
L 412.667605 -59.426692 
L 412.64949 -59.308303 
L 412.628577 -59.189914 
L 412.605247 -59.071526 
L 412.57989 -58.953137 
L 412.552905 -58.834748 
L 412.524694 -58.716359 
L 412.495665 -58.59797 
L 412.466227 -58.479581 
L 412.43679 -58.361192 
L 412.407759 -58.242803 
L 412.379535 -58.124414 
L 412.352515 -58.006025 
L 412.327083 -57.887636 
L 412.303617 -57.769247 
L 412.282478 -57.650858 
L 412.264018 -57.532469 
L 412.248567 -57.41408 
L 412.236442 -57.295691 
L 412.227939 -57.177302 
L 412.223331 -57.058913 
L 412.222873 -56.940524 
L 412.226791 -56.822135 
L 412.235291 -56.703746 
L 412.248549 -56.585357 
L 412.266716 -56.466968 
L 412.289914 -56.348579 
L 412.318237 -56.230191 
L 412.351748 -56.111802 
L 412.39048 -55.993413 
L 412.434436 -55.875024 
L 412.483589 -55.756635 
L 412.537878 -55.638246 
L 412.597213 -55.519857 
L 412.661473 -55.401468 
L 412.730505 -55.283079 
L 412.804124 -55.16469 
L 412.882119 -55.046301 
L 412.964246 -54.927912 
L 413.050233 -54.809523 
L 413.139782 -54.691134 
L 413.232565 -54.572745 
L 413.328231 -54.454356 
L 413.426405 -54.335967 
L 413.526688 -54.217578 
L 413.628659 -54.099189 
L 413.73188 -53.9808 
L 413.835894 -53.862411 
L 413.940229 -53.744022 
L 414.044399 -53.625633 
L 414.147906 -53.507245 
L 414.250245 -53.388856 
L 414.350903 -53.270467 
L 414.449362 -53.152078 
L 414.545104 -53.033689 
L 414.637611 -52.9153 
L 414.726368 -52.796911 
L 414.810866 -52.678522 
L 414.890607 -52.560133 
L 414.9651 -52.441744 
L 415.033871 -52.323355 
L 415.096461 -52.204966 
L 415.15243 -52.086577 
L 415.20136 -51.968188 
L 415.242854 -51.849799 
L 415.276543 -51.73141 
L 415.302085 -51.613021 
L 415.319167 -51.494632 
L 415.327508 -51.376243 
L 415.32686 -51.257854 
L 415.317008 -51.139465 
L 415.297774 -51.021076 
L 415.269016 -50.902687 
L 415.23063 -50.784298 
L 415.182549 -50.66591 
L 415.124744 -50.547521 
L 415.057226 -50.429132 
L 414.980043 -50.310743 
L 414.893282 -50.192354 
L 414.797066 -50.073965 
L 414.691556 -49.955576 
L 414.576948 -49.837187 
z
" style="stroke: #999999; stroke-width: 2"/>
    </defs>
    <g clip-path="url(#p40475c3171)">
     <use xlink:href="#m4b76e27cfb" x="0" y="255.11811" style="fill: #ffffff; stroke: #999999; stroke-width: 2"/>
    </g>
   </g>
   <g id="PolyCollection_7">
    <defs>
     <path id="m8f5a908ed2" d="M 472.797956 -115.344178 
L 464.192168 -115.344178 
L 464.094237 -115.472014 
L 463.995777 -115.599849 
L 463.89598 -115.727685 
L 463.793958 -115.855521 
L 463.688752 -115.983356 
L 463.579341 -116.111192 
L 463.464659 -116.239027 
L 463.343605 -116.366863 
L 463.215062 -116.494699 
L 463.077908 -116.622534 
L 462.931039 -116.75037 
L 462.773383 -116.878206 
L 462.60392 -117.006041 
L 462.421696 -117.133877 
L 462.225845 -117.261712 
L 462.015606 -117.389548 
L 461.790333 -117.517384 
L 461.549517 -117.645219 
L 461.292797 -117.773055 
L 461.01997 -117.900891 
L 460.731005 -118.028726 
L 460.426045 -118.156562 
L 460.105422 -118.284397 
L 459.769652 -118.412233 
L 459.419439 -118.540069 
L 459.055678 -118.667904 
L 458.679444 -118.79574 
L 458.291993 -118.923575 
L 457.894749 -119.051411 
L 457.489295 -119.179247 
L 457.077362 -119.307082 
L 456.660811 -119.434918 
L 456.241621 -119.562754 
L 455.821866 -119.690589 
L 455.4037 -119.818425 
L 454.989338 -119.94626 
L 454.581028 -120.074096 
L 454.181038 -120.201932 
L 453.791629 -120.329767 
L 453.415035 -120.457603 
L 453.053441 -120.585439 
L 452.708963 -120.713274 
L 452.383628 -120.84111 
L 452.079353 -120.968945 
L 451.79793 -121.096781 
L 451.541007 -121.224617 
L 451.310076 -121.352452 
L 451.106456 -121.480288 
L 450.931286 -121.608124 
L 450.785511 -121.735959 
L 450.669879 -121.863795 
L 450.584934 -121.99163 
L 450.531011 -122.119466 
L 450.508237 -122.247302 
L 450.516532 -122.375137 
L 450.555613 -122.502973 
L 450.624993 -122.630809 
L 450.723998 -122.758644 
L 450.851765 -122.88648 
L 451.007261 -123.014315 
L 451.18929 -123.142151 
L 451.396509 -123.269987 
L 451.62744 -123.397822 
L 451.88049 -123.525658 
L 452.153965 -123.653493 
L 452.446085 -123.781329 
L 452.75501 -123.909165 
L 453.07885 -124.037 
L 453.41569 -124.164836 
L 453.763604 -124.292672 
L 454.120676 -124.420507 
L 454.485019 -124.548343 
L 454.854789 -124.676178 
L 455.228202 -124.804014 
L 455.603552 -124.93185 
L 455.979221 -125.059685 
L 456.353695 -125.187521 
L 456.725572 -125.315357 
L 457.093572 -125.443192 
L 457.456546 -125.571028 
L 457.813479 -125.698863 
L 458.163494 -125.826699 
L 458.505854 -125.954535 
L 458.839964 -126.08237 
L 459.165361 -126.210206 
L 459.481719 -126.338042 
L 459.788836 -126.465877 
L 460.08663 -126.593713 
L 460.375131 -126.721548 
L 460.654466 -126.849384 
L 460.924853 -126.97722 
L 461.186586 -127.105055 
L 461.440023 -127.232891 
L 461.685575 -127.360727 
L 461.923689 -127.488562 
L 462.15484 -127.616398 
L 462.379516 -127.744233 
L 462.598205 -127.872069 
L 462.811389 -127.999905 
L 474.178735 -127.999905 
L 474.178735 -127.999905 
L 474.391918 -127.872069 
L 474.610608 -127.744233 
L 474.835284 -127.616398 
L 475.066435 -127.488562 
L 475.304549 -127.360727 
L 475.5501 -127.232891 
L 475.803538 -127.105055 
L 476.065271 -126.97722 
L 476.335658 -126.849384 
L 476.614993 -126.721548 
L 476.903493 -126.593713 
L 477.201288 -126.465877 
L 477.508405 -126.338042 
L 477.824763 -126.210206 
L 478.15016 -126.08237 
L 478.484269 -125.954535 
L 478.82663 -125.826699 
L 479.176645 -125.698863 
L 479.533578 -125.571028 
L 479.896552 -125.443192 
L 480.264552 -125.315357 
L 480.636429 -125.187521 
L 481.010903 -125.059685 
L 481.386572 -124.93185 
L 481.761922 -124.804014 
L 482.135335 -124.676178 
L 482.505104 -124.548343 
L 482.869447 -124.420507 
L 483.22652 -124.292672 
L 483.574434 -124.164836 
L 483.911273 -124.037 
L 484.235114 -123.909165 
L 484.544038 -123.781329 
L 484.836159 -123.653493 
L 485.109633 -123.525658 
L 485.362684 -123.397822 
L 485.593615 -123.269987 
L 485.800834 -123.142151 
L 485.982863 -123.014315 
L 486.138359 -122.88648 
L 486.266126 -122.758644 
L 486.36513 -122.630809 
L 486.434511 -122.502973 
L 486.473591 -122.375137 
L 486.481887 -122.247302 
L 486.459113 -122.119466 
L 486.40519 -121.99163 
L 486.320244 -121.863795 
L 486.204613 -121.735959 
L 486.058838 -121.608124 
L 485.883668 -121.480288 
L 485.680048 -121.352452 
L 485.449117 -121.224617 
L 485.192194 -121.096781 
L 484.910771 -120.968945 
L 484.606496 -120.84111 
L 484.281161 -120.713274 
L 483.936683 -120.585439 
L 483.575089 -120.457603 
L 483.198494 -120.329767 
L 482.809085 -120.201932 
L 482.409095 -120.074096 
L 482.000786 -119.94626 
L 481.586423 -119.818425 
L 481.168258 -119.690589 
L 480.748503 -119.562754 
L 480.329312 -119.434918 
L 479.912762 -119.307082 
L 479.500828 -119.179247 
L 479.095375 -119.051411 
L 478.698131 -118.923575 
L 478.310679 -118.79574 
L 477.934446 -118.667904 
L 477.570684 -118.540069 
L 477.220472 -118.412233 
L 476.884701 -118.284397 
L 476.564078 -118.156562 
L 476.259119 -118.028726 
L 475.970153 -117.900891 
L 475.697327 -117.773055 
L 475.440606 -117.645219 
L 475.199791 -117.517384 
L 474.974518 -117.389548 
L 474.764278 -117.261712 
L 474.568428 -117.133877 
L 474.386204 -117.006041 
L 474.216741 -116.878206 
L 474.059085 -116.75037 
L 473.912216 -116.622534 
L 473.775062 -116.494699 
L 473.646518 -116.366863 
L 473.525465 -116.239027 
L 473.410783 -116.111192 
L 473.301372 -115.983356 
L 473.196165 -115.855521 
L 473.094143 -115.727685 
L 472.994347 -115.599849 
L 472.895887 -115.472014 
L 472.797956 -115.344178 
z
" style="stroke: #999999; stroke-width: 2"/>
    </defs>
    <g clip-path="url(#p40475c3171)">
     <use xlink:href="#m8f5a908ed2" x="0" y="255.11811" style="fill: #ffffff; stroke: #999999; stroke-width: 2"/>
    </g>
   </g>
   <g id="PathCollection_1"/>
   <g id="PathCollection_2"/>
   <g id="patch_3">
    <path d="M 52.22 213.89811 
L 52.22 24.32 
" style="fill: none; stroke: #262626; stroke-width: 1.25; stroke-linejoin: miter; stroke-linecap: square"/>
   </g>
   <g id="patch_4">
    <path d="M 52.22 213.89811 
L 500.51622 213.89811 
" style="fill: none; stroke: #262626; stroke-width: 1.25; stroke-linejoin: miter; stroke-linecap: square"/>
   </g>
   <g id="PathCollection_3">
    <defs>
     <path id="C0_0_bf0a8e60c9" d="M 0 2.5 
C 0.663008 2.5 1.29895 2.236584 1.767767 1.767767 
C 2.236584 1.29895 2.5 0.663008 2.5 -0 
C 2.5 -0.663008 2.236584 -1.29895 1.767767 -1.767767 
C 1.29895 -2.236584 0.663008 -2.5 0 -2.5 
C -0.663008 -2.5 -1.29895 -2.236584 -1.767767 -1.767767 
C -2.236584 -1.29895 -2.5 -0.663008 -2.5 0 
C -2.5 0.663008 -2.236584 1.29895 -1.767767 1.767767 
C -1.29895 2.236584 -0.663008 2.5 0 2.5 
z
"/>
    </defs>
    <g clip-path="url(#p40475c3171)">
     <use xlink:href="#C0_0_bf0a8e60c9" x="79.858226" y="38.079065" style="fill: #4c72b0; fill-opacity: 0.75"/>
    </g>
    <g clip-path="url(#p40475c3171)">
     <use xlink:href="#C0_0_bf0a8e60c9" x="89.213606" y="68.885929" style="fill: #4c72b0; fill-opacity: 0.75"/>
    </g>
    <g clip-path="url(#p40475c3171)">
     <use xlink:href="#C0_0_bf0a8e60c9" x="82.652299" y="47.350452" style="fill: #4c72b0; fill-opacity: 0.75"/>
    </g>
    <g clip-path="url(#p40475c3171)">
     <use xlink:href="#C0_0_bf0a8e60c9" x="83.89109" y="40.873027" style="fill: #4c72b0; fill-opacity: 0.75"/>
    </g>
    <g clip-path="url(#p40475c3171)">
     <use xlink:href="#C0_0_bf0a8e60c9" x="83.774552" y="47.609039" style="fill: #dd8452; fill-opacity: 0.75"/>
    </g>
    <g clip-path="url(#p40475c3171)">
     <use xlink:href="#C0_0_bf0a8e60c9" x="81.384944" y="51.909971" style="fill: #dd8452; fill-opacity: 0.75"/>
    </g>
    <g clip-path="url(#p40475c3171)">
     <use xlink:href="#C0_0_bf0a8e60c9" x="89.693025" y="44.213652" style="fill: #dd8452; fill-opacity: 0.75"/>
    </g>
    <g clip-path="url(#p40475c3171)">
     <use xlink:href="#C0_0_bf0a8e60c9" x="87.394324" y="51.360355" style="fill: #dd8452; fill-opacity: 0.75"/>
    </g>
   </g>
   <g id="PathCollection_4">
    <defs>
     <path id="C1_0_4169979945" d="M 0 2.5 
C 0.663008 2.5 1.29895 2.236584 1.767767 1.767767 
C 2.236584 1.29895 2.5 0.663008 2.5 -0 
C 2.5 -0.663008 2.236584 -1.29895 1.767767 -1.767767 
C 1.29895 -2.236584 0.663008 -2.5 0 -2.5 
C -0.663008 -2.5 -1.29895 -2.236584 -1.767767 -1.767767 
C -2.236584 -1.29895 -2.5 -0.663008 -2.5 0 
C -2.5 0.663008 -2.236584 1.29895 -1.767767 1.767767 
C -1.29895 2.236584 -0.663008 2.5 0 2.5 
z
"/>
    </defs>
    <g clip-path="url(#p40475c3171)">
     <use xlink:href="#C1_0_4169979945" x="142.563777" y="43.59315" style="fill: #4c72b0; fill-opacity: 0.75"/>
    </g>
    <g clip-path="url(#p40475c3171)">
     <use xlink:href="#C1_0_4169979945" x="150.359899" y="32.937187" style="fill: #4c72b0; fill-opacity: 0.75"/>
    </g>
    <g clip-path="url(#p40475c3171)">
     <use xlink:href="#C1_0_4169979945" x="148.828272" y="66.296899" style="fill: #4c72b0; fill-opacity: 0.75"/>
    </g>
    <g clip-path="url(#p40475c3171)">
     <use xlink:href="#C1_0_4169979945" x="150.189526" y="50.800681" style="fill: #4c72b0; fill-opacity: 0.75"/>
    </g>
    <g clip-path="url(#p40475c3171)">
     <use xlink:href="#C1_0_4169979945" x="143.81171" y="35.025558" style="fill: #dd8452; fill-opacity: 0.75"/>
    </g>
    <g clip-path="url(#p40475c3171)">
     <use xlink:href="#C1_0_4169979945" x="152.930491" y="41.746812" style="fill: #dd8452; fill-opacity: 0.75"/>
    </g>
    <g clip-path="url(#p40475c3171)">
     <use xlink:href="#C1_0_4169979945" x="151.061917" y="54.270092" style="fill: #dd8452; fill-opacity: 0.75"/>
    </g>
    <g clip-path="url(#p40475c3171)">
     <use xlink:href="#C1_0_4169979945" x="152.58584" y="48.06706" style="fill: #dd8452; fill-opacity: 0.75"/>
    </g>
   </g>
   <g id="PathCollection_5">
    <defs>
     <path id="C2_0_514fe77366" d="M 0 2.5 
C 0.663008 2.5 1.29895 2.236584 1.767767 1.767767 
C 2.236584 1.29895 2.5 0.663008 2.5 -0 
C 2.5 -0.663008 2.236584 -1.29895 1.767767 -1.767767 
C 1.29895 -2.236584 0.663008 -2.5 0 -2.5 
C -0.663008 -2.5 -1.29895 -2.236584 -1.767767 -1.767767 
C -2.236584 -1.29895 -2.5 -0.663008 -2.5 0 
C -2.5 0.663008 -2.236584 1.29895 -1.767767 1.767767 
C -1.29895 2.236584 -0.663008 2.5 0 2.5 
z
"/>
    </defs>
    <g clip-path="url(#p40475c3171)">
     <use xlink:href="#C2_0_514fe77366" x="213.14142" y="175.393618" style="fill: #4c72b0; fill-opacity: 0.75"/>
    </g>
    <g clip-path="url(#p40475c3171)">
     <use xlink:href="#C2_0_514fe77366" x="211.071321" y="170.80483" style="fill: #4c72b0; fill-opacity: 0.75"/>
    </g>
    <g clip-path="url(#p40475c3171)">
     <use xlink:href="#C2_0_514fe77366" x="206.34166" y="174.458902" style="fill: #4c72b0; fill-opacity: 0.75"/>
    </g>
    <g clip-path="url(#p40475c3171)">
     <use xlink:href="#C2_0_514fe77366" x="213.376339" y="174.382594" style="fill: #4c72b0; fill-opacity: 0.75"/>
    </g>
    <g clip-path="url(#p40475c3171)">
     <use xlink:href="#C2_0_514fe77366" x="211.447288" y="180.289485" style="fill: #dd8452; fill-opacity: 0.75"/>
    </g>
    <g clip-path="url(#p40475c3171)">
     <use xlink:href="#C2_0_514fe77366" x="208.500512" y="178.986212" style="fill: #dd8452; fill-opacity: 0.75"/>
    </g>
    <g clip-path="url(#p40475c3171)">
     <use xlink:href="#C2_0_514fe77366" x="217.166529" y="175.801008" style="fill: #dd8452; fill-opacity: 0.75"/>
    </g>
    <g clip-path="url(#p40475c3171)">
     <use xlink:href="#C2_0_514fe77366" x="215.064894" y="187.294587" style="fill: #dd8452; fill-opacity: 0.75"/>
    </g>
   </g>
   <g id="PathCollection_6">
    <defs>
     <path id="C3_0_ecc55cf22a" d="M 0 2.5 
C 0.663008 2.5 1.29895 2.236584 1.767767 1.767767 
C 2.236584 1.29895 2.5 0.663008 2.5 -0 
C 2.5 -0.663008 2.236584 -1.29895 1.767767 -1.767767 
C 1.29895 -2.236584 0.663008 -2.5 0 -2.5 
C -0.663008 -2.5 -1.29895 -2.236584 -1.767767 -1.767767 
C -2.236584 -1.29895 -2.5 -0.663008 -2.5 0 
C -2.5 0.663008 -2.236584 1.29895 -1.767767 1.767767 
C -1.29895 2.236584 -0.663008 2.5 0 2.5 
z
"/>
    </defs>
    <g clip-path="url(#p40475c3171)">
     <use xlink:href="#C3_0_ecc55cf22a" x="281.243124" y="168.162173" style="fill: #4c72b0; fill-opacity: 0.75"/>
    </g>
    <g clip-path="url(#p40475c3171)">
     <use xlink:href="#C3_0_ecc55cf22a" x="282.012902" y="167.072273" style="fill: #4c72b0; fill-opacity: 0.75"/>
    </g>
    <g clip-path="url(#p40475c3171)">
     <use xlink:href="#C3_0_ecc55cf22a" x="273.516608" y="173.361214" style="fill: #4c72b0; fill-opacity: 0.75"/>
    </g>
    <g clip-path="url(#p40475c3171)">
     <use xlink:href="#C3_0_ecc55cf22a" x="270.356882" y="162.977899" style="fill: #4c72b0; fill-opacity: 0.75"/>
    </g>
    <g clip-path="url(#p40475c3171)">
     <use xlink:href="#C3_0_ecc55cf22a" x="276.334691" y="162.637068" style="fill: #4c72b0; fill-opacity: 0.75"/>
    </g>
    <g clip-path="url(#p40475c3171)">
     <use xlink:href="#C3_0_ecc55cf22a" x="276.354092" y="174.807024" style="fill: #dd8452; fill-opacity: 0.75"/>
    </g>
    <g clip-path="url(#p40475c3171)">
     <use xlink:href="#C3_0_ecc55cf22a" x="280.173878" y="173.725038" style="fill: #dd8452; fill-opacity: 0.75"/>
    </g>
    <g clip-path="url(#p40475c3171)">
     <use xlink:href="#C3_0_ecc55cf22a" x="276.539944" y="171.612145" style="fill: #dd8452; fill-opacity: 0.75"/>
    </g>
    <g clip-path="url(#p40475c3171)">
     <use xlink:href="#C3_0_ecc55cf22a" x="281.775392" y="164.009185" style="fill: #dd8452; fill-opacity: 0.75"/>
    </g>
    <g clip-path="url(#p40475c3171)">
     <use xlink:href="#C3_0_ecc55cf22a" x="279.034167" y="174.148606" style="fill: #dd8452; fill-opacity: 0.75"/>
    </g>
   </g>
   <g id="PathCollection_7">
    <defs>
     <path id="C4_0_a71f409ae7" d="M 0 2.5 
C 0.663008 2.5 1.29895 2.236584 1.767767 1.767767 
C 2.236584 1.29895 2.5 0.663008 2.5 -0 
C 2.5 -0.663008 2.236584 -1.29895 1.767767 -1.767767 
C 1.29895 -2.236584 0.663008 -2.5 0 -2.5 
C -0.663008 -2.5 -1.29895 -2.236584 -1.767767 -1.767767 
C -2.236584 -1.29895 -2.5 -0.663008 -2.5 0 
C -2.5 0.663008 -2.236584 1.29895 -1.767767 1.767767 
C -1.29895 2.236584 -0.663008 2.5 0 2.5 
z
"/>
    </defs>
    <g clip-path="url(#p40475c3171)">
     <use xlink:href="#C4_0_a71f409ae7" x="337.139356" y="195.924773" style="fill: #4c72b0; fill-opacity: 0.75"/>
    </g>
    <g clip-path="url(#p40475c3171)">
     <use xlink:href="#C4_0_a71f409ae7" x="337.912695" y="203.157637" style="fill: #4c72b0; fill-opacity: 0.75"/>
    </g>
    <g clip-path="url(#p40475c3171)">
     <use xlink:href="#C4_0_a71f409ae7" x="337.139317" y="197.698309" style="fill: #4c72b0; fill-opacity: 0.75"/>
    </g>
    <g clip-path="url(#p40475c3171)">
     <use xlink:href="#C4_0_a71f409ae7" x="337.374332" y="198.058685" style="fill: #dd8452; fill-opacity: 0.75"/>
    </g>
    <g clip-path="url(#p40475c3171)">
     <use xlink:href="#C4_0_a71f409ae7" x="341.936756" y="198.77911" style="fill: #dd8452; fill-opacity: 0.75"/>
    </g>
    <g clip-path="url(#p40475c3171)">
     <use xlink:href="#C4_0_a71f409ae7" x="339.18791" y="199.909702" style="fill: #dd8452; fill-opacity: 0.75"/>
    </g>
   </g>
   <g id="PathCollection_8">
    <defs>
     <path id="C5_0_f2d56f5721" d="M 0 2.5 
C 0.663008 2.5 1.29895 2.236584 1.767767 1.767767 
C 2.236584 1.29895 2.5 0.663008 2.5 -0 
C 2.5 -0.663008 2.236584 -1.29895 1.767767 -1.767767 
C 1.29895 -2.236584 0.663008 -2.5 0 -2.5 
C -0.663008 -2.5 -1.29895 -2.236584 -1.767767 -1.767767 
C -2.236584 -1.29895 -2.5 -0.663008 -2.5 0 
C -2.5 0.663008 -2.236584 1.29895 -1.767767 1.767767 
C -1.29895 2.236584 -0.663008 2.5 0 2.5 
z
"/>
    </defs>
    <g clip-path="url(#p40475c3171)">
     <use xlink:href="#C5_0_f2d56f5721" x="406.334594" y="195.124302" style="fill: #4c72b0; fill-opacity: 0.75"/>
    </g>
    <g clip-path="url(#p40475c3171)">
     <use xlink:href="#C5_0_f2d56f5721" x="398.592946" y="193.745156" style="fill: #4c72b0; fill-opacity: 0.75"/>
    </g>
    <g clip-path="url(#p40475c3171)">
     <use xlink:href="#C5_0_f2d56f5721" x="408.151152" y="199.550298" style="fill: #4c72b0; fill-opacity: 0.75"/>
    </g>
    <g clip-path="url(#p40475c3171)">
     <use xlink:href="#C5_0_f2d56f5721" x="409.663331" y="193.560417" style="fill: #4c72b0; fill-opacity: 0.75"/>
    </g>
    <g clip-path="url(#p40475c3171)">
     <use xlink:href="#C5_0_f2d56f5721" x="409.127988" y="204.324411" style="fill: #dd8452; fill-opacity: 0.75"/>
    </g>
    <g clip-path="url(#p40475c3171)">
     <use xlink:href="#C5_0_f2d56f5721" x="407.801746" y="204.137308" style="fill: #dd8452; fill-opacity: 0.75"/>
    </g>
    <g clip-path="url(#p40475c3171)">
     <use xlink:href="#C5_0_f2d56f5721" x="403.660103" y="204.075879" style="fill: #dd8452; fill-opacity: 0.75"/>
    </g>
    <g clip-path="url(#p40475c3171)">
     <use xlink:href="#C5_0_f2d56f5721" x="402.722575" y="205.280923" style="fill: #dd8452; fill-opacity: 0.75"/>
    </g>
   </g>
   <g id="PathCollection_9">
    <defs>
     <path id="C6_0_609c666e14" d="M 0 2.5 
C 0.663008 2.5 1.29895 2.236584 1.767767 1.767767 
C 2.236584 1.29895 2.5 0.663008 2.5 -0 
C 2.5 -0.663008 2.236584 -1.29895 1.767767 -1.767767 
C 1.29895 -2.236584 0.663008 -2.5 0 -2.5 
C -0.663008 -2.5 -1.29895 -2.236584 -1.767767 -1.767767 
C -2.236584 -1.29895 -2.5 -0.663008 -2.5 0 
C -2.5 0.663008 -2.236584 1.29895 -1.767767 1.767767 
C -1.29895 2.236584 -0.663008 2.5 0 2.5 
z
"/>
    </defs>
    <g clip-path="url(#p40475c3171)">
     <use xlink:href="#C6_0_609c666e14" x="464.330714" y="131.603793" style="fill: #4c72b0; fill-opacity: 0.75"/>
    </g>
    <g clip-path="url(#p40475c3171)">
     <use xlink:href="#C6_0_609c666e14" x="468.388362" y="133.690753" style="fill: #4c72b0; fill-opacity: 0.75"/>
    </g>
    <g clip-path="url(#p40475c3171)">
     <use xlink:href="#C6_0_609c666e14" x="471.205575" y="135.000485" style="fill: #4c72b0; fill-opacity: 0.75"/>
    </g>
    <g clip-path="url(#p40475c3171)">
     <use xlink:href="#C6_0_609c666e14" x="465.395067" y="127.118206" style="fill: #4c72b0; fill-opacity: 0.75"/>
    </g>
    <g clip-path="url(#p40475c3171)">
     <use xlink:href="#C6_0_609c666e14" x="462.344045" y="133.699426" style="fill: #dd8452; fill-opacity: 0.75"/>
    </g>
    <g clip-path="url(#p40475c3171)">
     <use xlink:href="#C6_0_609c666e14" x="469.046779" y="130.713496" style="fill: #dd8452; fill-opacity: 0.75"/>
    </g>
    <g clip-path="url(#p40475c3171)">
     <use xlink:href="#C6_0_609c666e14" x="472.579988" y="132.54238" style="fill: #dd8452; fill-opacity: 0.75"/>
    </g>
    <g clip-path="url(#p40475c3171)">
     <use xlink:href="#C6_0_609c666e14" x="468.820524" y="139.773932" style="fill: #dd8452; fill-opacity: 0.75"/>
    </g>
   </g>
   <g id="text_18">
    <!-- TPM4, $p_{adj}$ &lt; .001 *** -->
    <g style="fill: #262626" transform="translate(52.22 18.32)scale(0.09 -0.09)">
     <defs>
      <path id="ArialMT-2c" d="M 569 0 
L 569 641 
L 1209 641 
L 1209 0 
Q 1209 -353 1084 -570 
Q 959 -788 688 -906 
L 531 -666 
Q 709 -588 793 -436 
Q 878 -284 888 0 
L 569 0 
z
" transform="scale(0.015625)"/>
      <path id="DejaVuSans-Oblique-70" d="M 3175 2156 
Q 3175 2616 2975 2859 
Q 2775 3103 2400 3103 
Q 2144 3103 1911 2972 
Q 1678 2841 1497 2591 
Q 1319 2344 1212 1994 
Q 1106 1644 1106 1300 
Q 1106 863 1306 627 
Q 1506 391 1875 391 
Q 2147 391 2380 519 
Q 2613 647 2778 891 
Q 2956 1147 3065 1494 
Q 3175 1841 3175 2156 
z
M 1394 2969 
Q 1625 3272 1939 3428 
Q 2253 3584 2638 3584 
Q 3175 3584 3472 3232 
Q 3769 2881 3769 2247 
Q 3769 1728 3584 1258 
Q 3400 788 3053 416 
Q 2822 169 2531 39 
Q 2241 -91 1919 -91 
Q 1547 -91 1294 64 
Q 1041 219 916 525 
L 556 -1331 
L -19 -1331 
L 922 3500 
L 1497 3500 
L 1394 2969 
z
" transform="scale(0.015625)"/>
      <path id="DejaVuSans-Oblique-61" d="M 3438 1997 
L 3047 0 
L 2472 0 
L 2578 531 
Q 2325 219 2001 64 
Q 1678 -91 1281 -91 
Q 834 -91 548 182 
Q 263 456 263 884 
Q 263 1497 752 1853 
Q 1241 2209 2100 2209 
L 2900 2209 
L 2931 2363 
Q 2938 2388 2941 2417 
Q 2944 2447 2944 2509 
Q 2944 2788 2717 2942 
Q 2491 3097 2081 3097 
Q 1800 3097 1504 3025 
Q 1209 2953 897 2809 
L 997 3341 
Q 1322 3463 1633 3523 
Q 1944 3584 2234 3584 
Q 2853 3584 3176 3315 
Q 3500 3047 3500 2534 
Q 3500 2431 3484 2292 
Q 3469 2153 3438 1997 
z
M 2816 1759 
L 2241 1759 
Q 1534 1759 1195 1570 
Q 856 1381 856 984 
Q 856 709 1029 553 
Q 1203 397 1509 397 
Q 1978 397 2328 733 
Q 2678 1069 2791 1631 
L 2816 1759 
z
" transform="scale(0.015625)"/>
      <path id="DejaVuSans-Oblique-64" d="M 2675 525 
Q 2444 222 2128 65 
Q 1813 -91 1428 -91 
Q 903 -91 598 267 
Q 294 625 294 1247 
Q 294 1766 478 2236 
Q 663 2706 1013 3078 
Q 1244 3325 1534 3454 
Q 1825 3584 2144 3584 
Q 2481 3584 2739 3421 
Q 2997 3259 3138 2956 
L 3513 4863 
L 4091 4863 
L 3144 0 
L 2566 0 
L 2675 525 
z
M 891 1350 
Q 891 897 1095 644 
Q 1300 391 1663 391 
Q 1931 391 2161 520 
Q 2391 650 2566 903 
Q 2750 1166 2856 1509 
Q 2963 1853 2963 2188 
Q 2963 2622 2758 2865 
Q 2553 3109 2194 3109 
Q 1922 3109 1687 2981 
Q 1453 2853 1288 2613 
Q 1106 2353 998 2009 
Q 891 1666 891 1350 
z
" transform="scale(0.015625)"/>
      <path id="DejaVuSans-Oblique-6a" d="M 928 3500 
L 1503 3500 
L 813 -63 
L 809 -78 
Q 694 -675 544 -897 
Q 403 -1106 132 -1218 
Q -138 -1331 -506 -1331 
L -722 -1331 
L -628 -844 
L -481 -844 
Q -144 -844 -1 -703 
Q 141 -563 238 -63 
L 928 3500 
z
M 1197 4863 
L 1772 4863 
L 1631 4134 
L 1056 4134 
L 1197 4863 
z
" transform="scale(0.015625)"/>
      <path id="ArialMT-3c" d="M 350 2003 
L 350 2528 
L 3384 3809 
L 3384 3250 
L 978 2263 
L 3384 1266 
L 3384 706 
L 350 2003 
z
" transform="scale(0.015625)"/>
      <path id="ArialMT-2e" d="M 581 0 
L 581 641 
L 1222 641 
L 1222 0 
L 581 0 
z
" transform="scale(0.015625)"/>
      <path id="ArialMT-2a" d="M 200 3741 
L 344 4184 
Q 841 4009 1066 3881 
Q 1006 4447 1003 4659 
L 1456 4659 
Q 1447 4350 1384 3884 
Q 1706 4047 2122 4184 
L 2266 3741 
Q 1869 3609 1488 3566 
Q 1678 3400 2025 2975 
L 1650 2709 
Q 1469 2956 1222 3381 
Q 991 2941 816 2709 
L 447 2975 
Q 809 3422 966 3566 
Q 563 3644 200 3741 
z
" transform="scale(0.015625)"/>
     </defs>
     <use xlink:href="#ArialMT-54" transform="translate(0 0.203125)"/>
     <use xlink:href="#ArialMT-50" transform="translate(61.083984 0.203125)"/>
     <use xlink:href="#ArialMT-4d" transform="translate(127.783203 0.203125)"/>
     <use xlink:href="#ArialMT-34" transform="translate(211.083984 0.203125)"/>
     <use xlink:href="#ArialMT-2c" transform="translate(266.699219 0.203125)"/>
     <use xlink:href="#ArialMT-20" transform="translate(294.482422 0.203125)"/>
     <use xlink:href="#DejaVuSans-Oblique-70" transform="translate(322.265625 0.203125)"/>
     <use xlink:href="#DejaVuSans-Oblique-61" transform="translate(385.742188 -16.203125)scale(0.7)"/>
     <use xlink:href="#DejaVuSans-Oblique-64" transform="translate(428.637695 -16.203125)scale(0.7)"/>
     <use xlink:href="#DejaVuSans-Oblique-6a" transform="translate(473.071289 -16.203125)scale(0.7)"/>
     <use xlink:href="#ArialMT-20" transform="translate(495.253906 0.203125)"/>
     <use xlink:href="#ArialMT-3c" transform="translate(523.037109 0.203125)"/>
     <use xlink:href="#ArialMT-20" transform="translate(581.435547 0.203125)"/>
     <use xlink:href="#ArialMT-2e" transform="translate(609.21875 0.203125)"/>
     <use xlink:href="#ArialMT-30" transform="translate(637.001953 0.203125)"/>
     <use xlink:href="#ArialMT-30" transform="translate(692.617188 0.203125)"/>
     <use xlink:href="#ArialMT-31" transform="translate(748.232422 0.203125)"/>
     <use xlink:href="#ArialMT-20" transform="translate(803.847656 0.203125)"/>
     <use xlink:href="#ArialMT-2a" transform="translate(831.630859 0.203125)"/>
     <use xlink:href="#ArialMT-2a" transform="translate(870.546875 0.203125)"/>
     <use xlink:href="#ArialMT-2a" transform="translate(909.462891 0.203125)"/>
    </g>
   </g>
   <g id="legend_1">
    <g id="patch_5">
     <path d="M 441.91497 69.712344 
L 494.21622 69.712344 
Q 496.01622 69.712344 496.01622 67.912344 
L 496.01622 30.62 
Q 496.01622 28.82 494.21622 28.82 
L 441.91497 28.82 
Q 440.11497 28.82 440.11497 30.62 
L 440.11497 67.912344 
Q 440.11497 69.712344 441.91497 69.712344 
z
" style="fill: #ffffff; opacity: 0.8; stroke: #cccccc; stroke-linejoin: miter"/>
    </g>
    <g id="text_19">
     <!-- Treatment -->
     <g style="fill: #262626" transform="translate(447.729111 38.862031)scale(0.09 -0.09)">
      <use xlink:href="#ArialMT-54"/>
      <use xlink:href="#ArialMT-72" x="57.333984"/>
      <use xlink:href="#ArialMT-65" x="90.634766"/>
      <use xlink:href="#ArialMT-61" x="146.25"/>
      <use xlink:href="#ArialMT-74" x="201.865234"/>
      <use xlink:href="#ArialMT-6d" x="229.648438"/>
      <use xlink:href="#ArialMT-65" x="312.949219"/>
      <use xlink:href="#ArialMT-6e" x="368.564453"/>
      <use xlink:href="#ArialMT-74" x="424.179688"/>
     </g>
    </g>
    <g id="PathCollection_10">
     <defs>
      <path id="m6a7f54a90d" d="M 0 3.872983 
C 1.027127 3.872983 2.012324 3.464901 2.738613 2.738613 
C 3.464901 2.012324 3.872983 1.027127 3.872983 0 
C 3.872983 -1.027127 3.464901 -2.012324 2.738613 -2.738613 
C 2.012324 -3.464901 1.027127 -3.872983 0 -3.872983 
C -1.027127 -3.872983 -2.012324 -3.464901 -2.738613 -2.738613 
C -3.464901 -2.012324 -3.872983 -1.027127 -3.872983 0 
C -3.872983 1.027127 -3.464901 2.012324 -2.738613 2.738613 
C -2.012324 3.464901 -1.027127 3.872983 0 3.872983 
z
" style="stroke: #4c72b0"/>
     </defs>
     <g>
      <use xlink:href="#m6a7f54a90d" x="452.71497" y="49.230313" style="fill: #4c72b0; stroke: #4c72b0"/>
     </g>
    </g>
    <g id="text_20">
     <!-- BEVA -->
     <g style="fill: #262626" transform="translate(468.91497 51.592813)scale(0.09 -0.09)">
      <defs>
       <path id="ArialMT-42" d="M 469 0 
L 469 4581 
L 2188 4581 
Q 2713 4581 3030 4442 
Q 3347 4303 3526 4014 
Q 3706 3725 3706 3409 
Q 3706 3116 3547 2856 
Q 3388 2597 3066 2438 
Q 3481 2316 3704 2022 
Q 3928 1728 3928 1328 
Q 3928 1006 3792 729 
Q 3656 453 3456 303 
Q 3256 153 2954 76 
Q 2653 0 2216 0 
L 469 0 
z
M 1075 2656 
L 2066 2656 
Q 2469 2656 2644 2709 
Q 2875 2778 2992 2937 
Q 3109 3097 3109 3338 
Q 3109 3566 3000 3739 
Q 2891 3913 2687 3977 
Q 2484 4041 1991 4041 
L 1075 4041 
L 1075 2656 
z
M 1075 541 
L 2216 541 
Q 2509 541 2628 563 
Q 2838 600 2978 687 
Q 3119 775 3209 942 
Q 3300 1109 3300 1328 
Q 3300 1584 3169 1773 
Q 3038 1963 2805 2039 
Q 2572 2116 2134 2116 
L 1075 2116 
L 1075 541 
z
" transform="scale(0.015625)"/>
       <path id="ArialMT-45" d="M 506 0 
L 506 4581 
L 3819 4581 
L 3819 4041 
L 1113 4041 
L 1113 2638 
L 3647 2638 
L 3647 2100 
L 1113 2100 
L 1113 541 
L 3925 541 
L 3925 0 
L 506 0 
z
" transform="scale(0.015625)"/>
       <path id="ArialMT-56" d="M 1803 0 
L 28 4581 
L 684 4581 
L 1875 1253 
Q 2019 853 2116 503 
Q 2222 878 2363 1253 
L 3600 4581 
L 4219 4581 
L 2425 0 
L 1803 0 
z
" transform="scale(0.015625)"/>
       <path id="ArialMT-41" d="M -9 0 
L 1750 4581 
L 2403 4581 
L 4278 0 
L 3588 0 
L 3053 1388 
L 1138 1388 
L 634 0 
L -9 0 
z
M 1313 1881 
L 2866 1881 
L 2388 3150 
Q 2169 3728 2063 4100 
Q 1975 3659 1816 3225 
L 1313 1881 
z
" transform="scale(0.015625)"/>
      </defs>
      <use xlink:href="#ArialMT-42"/>
      <use xlink:href="#ArialMT-45" x="66.699219"/>
      <use xlink:href="#ArialMT-56" x="133.398438"/>
      <use xlink:href="#ArialMT-41" x="192.722656"/>
     </g>
    </g>
    <g id="PathCollection_11">
     <defs>
      <path id="m8656634cc2" d="M 0 3.872983 
C 1.027127 3.872983 2.012324 3.464901 2.738613 2.738613 
C 3.464901 2.012324 3.872983 1.027127 3.872983 0 
C 3.872983 -1.027127 3.464901 -2.012324 2.738613 -2.738613 
C 2.012324 -3.464901 1.027127 -3.872983 0 -3.872983 
C -1.027127 -3.872983 -2.012324 -3.464901 -2.738613 -2.738613 
C -3.464901 -2.012324 -3.872983 -1.027127 -3.872983 0 
C -3.872983 1.027127 -3.464901 2.012324 -2.738613 2.738613 
C -2.012324 3.464901 -1.027127 3.872983 0 3.872983 
z
" style="stroke: #dd8452"/>
     </defs>
     <g>
      <use xlink:href="#m8656634cc2" x="452.71497" y="61.961094" style="fill: #dd8452; stroke: #dd8452"/>
     </g>
    </g>
    <g id="text_21">
     <!-- CTRL -->
     <g style="fill: #262626" transform="translate(468.91497 64.323594)scale(0.09 -0.09)">
      <defs>
       <path id="ArialMT-43" d="M 3763 1606 
L 4369 1453 
Q 4178 706 3683 314 
Q 3188 -78 2472 -78 
Q 1731 -78 1267 223 
Q 803 525 561 1097 
Q 319 1669 319 2325 
Q 319 3041 592 3573 
Q 866 4106 1370 4382 
Q 1875 4659 2481 4659 
Q 3169 4659 3637 4309 
Q 4106 3959 4291 3325 
L 3694 3184 
Q 3534 3684 3231 3912 
Q 2928 4141 2469 4141 
Q 1941 4141 1586 3887 
Q 1231 3634 1087 3207 
Q 944 2781 944 2328 
Q 944 1744 1114 1308 
Q 1284 872 1643 656 
Q 2003 441 2422 441 
Q 2931 441 3284 734 
Q 3638 1028 3763 1606 
z
" transform="scale(0.015625)"/>
       <path id="ArialMT-52" d="M 503 0 
L 503 4581 
L 2534 4581 
Q 3147 4581 3465 4457 
Q 3784 4334 3975 4021 
Q 4166 3709 4166 3331 
Q 4166 2844 3850 2509 
Q 3534 2175 2875 2084 
Q 3116 1969 3241 1856 
Q 3506 1613 3744 1247 
L 4541 0 
L 3778 0 
L 3172 953 
Q 2906 1366 2734 1584 
Q 2563 1803 2427 1890 
Q 2291 1978 2150 2013 
Q 2047 2034 1813 2034 
L 1109 2034 
L 1109 0 
L 503 0 
z
M 1109 2559 
L 2413 2559 
Q 2828 2559 3062 2645 
Q 3297 2731 3419 2920 
Q 3541 3109 3541 3331 
Q 3541 3656 3305 3865 
Q 3069 4075 2559 4075 
L 1109 4075 
L 1109 2559 
z
" transform="scale(0.015625)"/>
       <path id="ArialMT-4c" d="M 469 0 
L 469 4581 
L 1075 4581 
L 1075 541 
L 3331 541 
L 3331 0 
L 469 0 
z
" transform="scale(0.015625)"/>
      </defs>
      <use xlink:href="#ArialMT-43"/>
      <use xlink:href="#ArialMT-54" x="72.216797"/>
      <use xlink:href="#ArialMT-52" x="133.300781"/>
      <use xlink:href="#ArialMT-4c" x="205.517578"/>
     </g>
    </g>
   </g>
  </g>
 </g>
 <defs>
  <clipPath id="p40475c3171">
   <rect x="52.22" y="24.32" width="448.29622" height="189.57811"/>
  </clipPath>
 </defs>
</svg>
