<?xml version="1.0" encoding="utf-8" standalone="no"?>
<!DOCTYPE svg PUBLIC "-//W3C//DTD SVG 1.1//EN"
  "http://www.w3.org/Graphics/SVG/1.1/DTD/svg11.dtd">
<svg xmlns:xlink="http://www.w3.org/1999/xlink" width="510.23622pt" height="255.11811pt" viewBox="0 0 510.23622 255.11811" xmlns="http://www.w3.org/2000/svg" version="1.1">
 <metadata>
  <rdf:RDF xmlns:dc="http://purl.org/dc/elements/1.1/" xmlns:cc="http://creativecommons.org/ns#" xmlns:rdf="http://www.w3.org/1999/02/22-rdf-syntax-ns#">
   <cc:Work>
    <dc:type rdf:resource="http://purl.org/dc/dcmitype/StillImage"/>
    <dc:date>2022-04-27T00:13:18.558148</dc:date>
    <dc:format>image/svg+xml</dc:format>
    <dc:creator>
     <cc:Agent>
      <dc:title>Matplotlib v3.5.1, https://matplotlib.org/</dc:title>
     </cc:Agent>
    </dc:creator>
   </cc:Work>
  </rdf:RDF>
 </metadata>
 <defs>
  <style type="text/css">*{stroke-linejoin: round; stroke-linecap: butt}</style>
 </defs>
 <g id="figure_1">
  <g id="patch_1">
   <path d="M 0 255.11811 
L 510.23622 255.11811 
L 510.23622 0 
L 0 0 
z
" style="fill: #ffffff"/>
  </g>
  <g id="axes_1">
   <g id="patch_2">
    <path d="M 47.22 213.89811 
L 500.51622 213.89811 
L 500.51622 24.32 
L 47.22 24.32 
z
" style="fill: #ffffff"/>
   </g>
   <g id="matplotlib.axis_1">
    <g id="xtick_1">
     <g id="text_1">
      <!-- 49 -->
      <g style="fill: #444444" transform="translate(74.593458 229.840141)scale(0.09 -0.09)">
       <defs>
        <path id="ArialMT-34" d="M 2069 0 
L 2069 1097 
L 81 1097 
L 81 1613 
L 2172 4581 
L 2631 4581 
L 2631 1613 
L 3250 1613 
L 3250 1097 
L 2631 1097 
L 2631 0 
L 2069 0 
z
M 2069 1613 
L 2069 3678 
L 634 1613 
L 2069 1613 
z
" transform="scale(0.015625)"/>
        <path id="ArialMT-39" d="M 350 1059 
L 891 1109 
Q 959 728 1153 556 
Q 1347 384 1650 384 
Q 1909 384 2104 503 
Q 2300 622 2425 820 
Q 2550 1019 2634 1356 
Q 2719 1694 2719 2044 
Q 2719 2081 2716 2156 
Q 2547 1888 2255 1720 
Q 1963 1553 1622 1553 
Q 1053 1553 659 1965 
Q 266 2378 266 3053 
Q 266 3750 677 4175 
Q 1088 4600 1706 4600 
Q 2153 4600 2523 4359 
Q 2894 4119 3086 3673 
Q 3278 3228 3278 2384 
Q 3278 1506 3087 986 
Q 2897 466 2520 194 
Q 2144 -78 1638 -78 
Q 1100 -78 759 220 
Q 419 519 350 1059 
z
M 2653 3081 
Q 2653 3566 2395 3850 
Q 2138 4134 1775 4134 
Q 1400 4134 1122 3828 
Q 844 3522 844 3034 
Q 844 2597 1108 2323 
Q 1372 2050 1759 2050 
Q 2150 2050 2401 2323 
Q 2653 2597 2653 3081 
z
" transform="scale(0.015625)"/>
       </defs>
       <use xlink:href="#ArialMT-34"/>
       <use xlink:href="#ArialMT-39" x="55.615234"/>
      </g>
     </g>
    </g>
    <g id="xtick_2">
     <g id="text_2">
      <!-- 17 -->
      <g style="fill: #444444" transform="translate(139.350061 229.840141)scale(0.09 -0.09)">
       <defs>
        <path id="ArialMT-31" d="M 2384 0 
L 1822 0 
L 1822 3584 
Q 1619 3391 1289 3197 
Q 959 3003 697 2906 
L 697 3450 
Q 1169 3672 1522 3987 
Q 1875 4303 2022 4600 
L 2384 4600 
L 2384 0 
z
" transform="scale(0.015625)"/>
        <path id="ArialMT-37" d="M 303 3981 
L 303 4522 
L 3269 4522 
L 3269 4084 
Q 2831 3619 2401 2847 
Q 1972 2075 1738 1259 
Q 1569 684 1522 0 
L 944 0 
Q 953 541 1156 1306 
Q 1359 2072 1739 2783 
Q 2119 3494 2547 3981 
L 303 3981 
z
" transform="scale(0.015625)"/>
       </defs>
       <use xlink:href="#ArialMT-31"/>
       <use xlink:href="#ArialMT-37" x="55.615234"/>
      </g>
     </g>
    </g>
    <g id="xtick_3">
     <g id="text_3">
      <!-- 69 -->
      <g style="fill: #444444" transform="translate(204.106664 229.840141)scale(0.09 -0.09)">
       <defs>
        <path id="ArialMT-36" d="M 3184 3459 
L 2625 3416 
Q 2550 3747 2413 3897 
Q 2184 4138 1850 4138 
Q 1581 4138 1378 3988 
Q 1113 3794 959 3422 
Q 806 3050 800 2363 
Q 1003 2672 1297 2822 
Q 1591 2972 1913 2972 
Q 2475 2972 2870 2558 
Q 3266 2144 3266 1488 
Q 3266 1056 3080 686 
Q 2894 316 2569 119 
Q 2244 -78 1831 -78 
Q 1128 -78 684 439 
Q 241 956 241 2144 
Q 241 3472 731 4075 
Q 1159 4600 1884 4600 
Q 2425 4600 2770 4297 
Q 3116 3994 3184 3459 
z
M 888 1484 
Q 888 1194 1011 928 
Q 1134 663 1356 523 
Q 1578 384 1822 384 
Q 2178 384 2434 671 
Q 2691 959 2691 1453 
Q 2691 1928 2437 2201 
Q 2184 2475 1800 2475 
Q 1419 2475 1153 2201 
Q 888 1928 888 1484 
z
" transform="scale(0.015625)"/>
       </defs>
       <use xlink:href="#ArialMT-36"/>
       <use xlink:href="#ArialMT-39" x="55.615234"/>
      </g>
     </g>
    </g>
    <g id="xtick_4">
     <g id="text_4">
      <!-- 15 -->
      <g style="fill: #444444" transform="translate(268.863266 229.840141)scale(0.09 -0.09)">
       <defs>
        <path id="ArialMT-35" d="M 266 1200 
L 856 1250 
Q 922 819 1161 601 
Q 1400 384 1738 384 
Q 2144 384 2425 690 
Q 2706 997 2706 1503 
Q 2706 1984 2436 2262 
Q 2166 2541 1728 2541 
Q 1456 2541 1237 2417 
Q 1019 2294 894 2097 
L 366 2166 
L 809 4519 
L 3088 4519 
L 3088 3981 
L 1259 3981 
L 1013 2750 
Q 1425 3038 1878 3038 
Q 2478 3038 2890 2622 
Q 3303 2206 3303 1553 
Q 3303 931 2941 478 
Q 2500 -78 1738 -78 
Q 1113 -78 717 272 
Q 322 622 266 1200 
z
" transform="scale(0.015625)"/>
       </defs>
       <use xlink:href="#ArialMT-31"/>
       <use xlink:href="#ArialMT-35" x="55.615234"/>
      </g>
     </g>
    </g>
    <g id="xtick_5">
     <g id="text_5">
      <!-- 5 -->
      <g style="fill: #444444" transform="translate(336.122291 229.840141)scale(0.09 -0.09)">
       <use xlink:href="#ArialMT-35"/>
      </g>
     </g>
    </g>
    <g id="xtick_6">
     <g id="text_6">
      <!-- 126 -->
      <g style="fill: #444444" transform="translate(395.87405 229.840141)scale(0.09 -0.09)">
       <defs>
        <path id="ArialMT-32" d="M 3222 541 
L 3222 0 
L 194 0 
Q 188 203 259 391 
Q 375 700 629 1000 
Q 884 1300 1366 1694 
Q 2113 2306 2375 2664 
Q 2638 3022 2638 3341 
Q 2638 3675 2398 3904 
Q 2159 4134 1775 4134 
Q 1369 4134 1125 3890 
Q 881 3647 878 3216 
L 300 3275 
Q 359 3922 746 4261 
Q 1134 4600 1788 4600 
Q 2447 4600 2831 4234 
Q 3216 3869 3216 3328 
Q 3216 3053 3103 2787 
Q 2991 2522 2730 2228 
Q 2469 1934 1863 1422 
Q 1356 997 1212 845 
Q 1069 694 975 541 
L 3222 541 
z
" transform="scale(0.015625)"/>
       </defs>
       <use xlink:href="#ArialMT-31"/>
       <use xlink:href="#ArialMT-32" x="55.615234"/>
       <use xlink:href="#ArialMT-36" x="111.230469"/>
      </g>
     </g>
    </g>
    <g id="xtick_7">
     <g id="text_7">
      <!-- 62 -->
      <g style="fill: #444444" transform="translate(463.133075 229.840141)scale(0.09 -0.09)">
       <use xlink:href="#ArialMT-36"/>
       <use xlink:href="#ArialMT-32" x="55.615234"/>
      </g>
     </g>
    </g>
    <g id="text_8">
     <!-- Patient -->
     <g style="fill: #444444" transform="translate(259.859048 242.070923)scale(0.09 -0.09)">
      <defs>
       <path id="ArialMT-50" d="M 494 0 
L 494 4581 
L 2222 4581 
Q 2678 4581 2919 4538 
Q 3256 4481 3484 4323 
Q 3713 4166 3852 3881 
Q 3991 3597 3991 3256 
Q 3991 2672 3619 2267 
Q 3247 1863 2275 1863 
L 1100 1863 
L 1100 0 
L 494 0 
z
M 1100 2403 
L 2284 2403 
Q 2872 2403 3119 2622 
Q 3366 2841 3366 3238 
Q 3366 3525 3220 3729 
Q 3075 3934 2838 4000 
Q 2684 4041 2272 4041 
L 1100 4041 
L 1100 2403 
z
" transform="scale(0.015625)"/>
       <path id="ArialMT-61" d="M 2588 409 
Q 2275 144 1986 34 
Q 1697 -75 1366 -75 
Q 819 -75 525 192 
Q 231 459 231 875 
Q 231 1119 342 1320 
Q 453 1522 633 1644 
Q 813 1766 1038 1828 
Q 1203 1872 1538 1913 
Q 2219 1994 2541 2106 
Q 2544 2222 2544 2253 
Q 2544 2597 2384 2738 
Q 2169 2928 1744 2928 
Q 1347 2928 1158 2789 
Q 969 2650 878 2297 
L 328 2372 
Q 403 2725 575 2942 
Q 747 3159 1072 3276 
Q 1397 3394 1825 3394 
Q 2250 3394 2515 3294 
Q 2781 3194 2906 3042 
Q 3031 2891 3081 2659 
Q 3109 2516 3109 2141 
L 3109 1391 
Q 3109 606 3145 398 
Q 3181 191 3288 0 
L 2700 0 
Q 2613 175 2588 409 
z
M 2541 1666 
Q 2234 1541 1622 1453 
Q 1275 1403 1131 1340 
Q 988 1278 909 1158 
Q 831 1038 831 891 
Q 831 666 1001 516 
Q 1172 366 1500 366 
Q 1825 366 2078 508 
Q 2331 650 2450 897 
Q 2541 1088 2541 1459 
L 2541 1666 
z
" transform="scale(0.015625)"/>
       <path id="ArialMT-74" d="M 1650 503 
L 1731 6 
Q 1494 -44 1306 -44 
Q 1000 -44 831 53 
Q 663 150 594 308 
Q 525 466 525 972 
L 525 2881 
L 113 2881 
L 113 3319 
L 525 3319 
L 525 4141 
L 1084 4478 
L 1084 3319 
L 1650 3319 
L 1650 2881 
L 1084 2881 
L 1084 941 
Q 1084 700 1114 631 
Q 1144 563 1211 522 
Q 1278 481 1403 481 
Q 1497 481 1650 503 
z
" transform="scale(0.015625)"/>
       <path id="ArialMT-69" d="M 425 3934 
L 425 4581 
L 988 4581 
L 988 3934 
L 425 3934 
z
M 425 0 
L 425 3319 
L 988 3319 
L 988 0 
L 425 0 
z
" transform="scale(0.015625)"/>
       <path id="ArialMT-65" d="M 2694 1069 
L 3275 997 
Q 3138 488 2766 206 
Q 2394 -75 1816 -75 
Q 1088 -75 661 373 
Q 234 822 234 1631 
Q 234 2469 665 2931 
Q 1097 3394 1784 3394 
Q 2450 3394 2872 2941 
Q 3294 2488 3294 1666 
Q 3294 1616 3291 1516 
L 816 1516 
Q 847 969 1125 678 
Q 1403 388 1819 388 
Q 2128 388 2347 550 
Q 2566 713 2694 1069 
z
M 847 1978 
L 2700 1978 
Q 2663 2397 2488 2606 
Q 2219 2931 1791 2931 
Q 1403 2931 1139 2672 
Q 875 2413 847 1978 
z
" transform="scale(0.015625)"/>
       <path id="ArialMT-6e" d="M 422 0 
L 422 3319 
L 928 3319 
L 928 2847 
Q 1294 3394 1984 3394 
Q 2284 3394 2536 3286 
Q 2788 3178 2913 3003 
Q 3038 2828 3088 2588 
Q 3119 2431 3119 2041 
L 3119 0 
L 2556 0 
L 2556 2019 
Q 2556 2363 2490 2533 
Q 2425 2703 2258 2804 
Q 2091 2906 1866 2906 
Q 1506 2906 1245 2678 
Q 984 2450 984 1813 
L 984 0 
L 422 0 
z
" transform="scale(0.015625)"/>
      </defs>
      <use xlink:href="#ArialMT-50"/>
      <use xlink:href="#ArialMT-61" x="66.699219"/>
      <use xlink:href="#ArialMT-74" x="122.314453"/>
      <use xlink:href="#ArialMT-69" x="150.097656"/>
      <use xlink:href="#ArialMT-65" x="172.314453"/>
      <use xlink:href="#ArialMT-6e" x="227.929688"/>
      <use xlink:href="#ArialMT-74" x="283.544922"/>
     </g>
    </g>
   </g>
   <g id="matplotlib.axis_2">
    <g id="ytick_1">
     <g id="text_9">
      <!-- 0 -->
      <g style="fill: #444444" transform="translate(32.715156 211.048799)scale(0.09 -0.09)">
       <defs>
        <path id="ArialMT-30" d="M 266 2259 
Q 266 3072 433 3567 
Q 600 4063 929 4331 
Q 1259 4600 1759 4600 
Q 2128 4600 2406 4451 
Q 2684 4303 2865 4023 
Q 3047 3744 3150 3342 
Q 3253 2941 3253 2259 
Q 3253 1453 3087 958 
Q 2922 463 2592 192 
Q 2263 -78 1759 -78 
Q 1097 -78 719 397 
Q 266 969 266 2259 
z
M 844 2259 
Q 844 1131 1108 757 
Q 1372 384 1759 384 
Q 2147 384 2411 759 
Q 2675 1134 2675 2259 
Q 2675 3391 2411 3762 
Q 2147 4134 1753 4134 
Q 1366 4134 1134 3806 
Q 844 3388 844 2259 
z
" transform="scale(0.015625)"/>
       </defs>
       <use xlink:href="#ArialMT-30"/>
      </g>
     </g>
    </g>
    <g id="ytick_2">
     <g id="text_10">
      <!-- 50 -->
      <g style="fill: #444444" transform="translate(27.710313 175.277193)scale(0.09 -0.09)">
       <use xlink:href="#ArialMT-35"/>
       <use xlink:href="#ArialMT-30" x="55.615234"/>
      </g>
     </g>
    </g>
    <g id="ytick_3">
     <g id="text_11">
      <!-- 100 -->
      <g style="fill: #444444" transform="translate(22.705469 139.505588)scale(0.09 -0.09)">
       <use xlink:href="#ArialMT-31"/>
       <use xlink:href="#ArialMT-30" x="55.615234"/>
       <use xlink:href="#ArialMT-30" x="111.230469"/>
      </g>
     </g>
    </g>
    <g id="ytick_4">
     <g id="text_12">
      <!-- 150 -->
      <g style="fill: #444444" transform="translate(22.705469 103.733983)scale(0.09 -0.09)">
       <use xlink:href="#ArialMT-31"/>
       <use xlink:href="#ArialMT-35" x="55.615234"/>
       <use xlink:href="#ArialMT-30" x="111.230469"/>
      </g>
     </g>
    </g>
    <g id="ytick_5">
     <g id="text_13">
      <!-- 200 -->
      <g style="fill: #444444" transform="translate(22.705469 67.962378)scale(0.09 -0.09)">
       <use xlink:href="#ArialMT-32"/>
       <use xlink:href="#ArialMT-30" x="55.615234"/>
       <use xlink:href="#ArialMT-30" x="111.230469"/>
      </g>
     </g>
    </g>
    <g id="ytick_6">
     <g id="text_14">
      <!-- 250 -->
      <g style="fill: #444444" transform="translate(22.705469 32.190773)scale(0.09 -0.09)">
       <use xlink:href="#ArialMT-32"/>
       <use xlink:href="#ArialMT-35" x="55.615234"/>
       <use xlink:href="#ArialMT-30" x="111.230469"/>
      </g>
     </g>
    </g>
    <g id="text_15">
     <!-- Trimmed Means of M values (TMM) -->
     <g style="fill: #444444" transform="translate(16.81125 190.194993)rotate(-90)scale(0.09 -0.09)">
      <defs>
       <path id="ArialMT-54" d="M 1659 0 
L 1659 4041 
L 150 4041 
L 150 4581 
L 3781 4581 
L 3781 4041 
L 2266 4041 
L 2266 0 
L 1659 0 
z
" transform="scale(0.015625)"/>
       <path id="ArialMT-72" d="M 416 0 
L 416 3319 
L 922 3319 
L 922 2816 
Q 1116 3169 1280 3281 
Q 1444 3394 1641 3394 
Q 1925 3394 2219 3213 
L 2025 2691 
Q 1819 2813 1613 2813 
Q 1428 2813 1281 2702 
Q 1134 2591 1072 2394 
Q 978 2094 978 1738 
L 978 0 
L 416 0 
z
" transform="scale(0.015625)"/>
       <path id="ArialMT-6d" d="M 422 0 
L 422 3319 
L 925 3319 
L 925 2853 
Q 1081 3097 1340 3245 
Q 1600 3394 1931 3394 
Q 2300 3394 2536 3241 
Q 2772 3088 2869 2813 
Q 3263 3394 3894 3394 
Q 4388 3394 4653 3120 
Q 4919 2847 4919 2278 
L 4919 0 
L 4359 0 
L 4359 2091 
Q 4359 2428 4304 2576 
Q 4250 2725 4106 2815 
Q 3963 2906 3769 2906 
Q 3419 2906 3187 2673 
Q 2956 2441 2956 1928 
L 2956 0 
L 2394 0 
L 2394 2156 
Q 2394 2531 2256 2718 
Q 2119 2906 1806 2906 
Q 1569 2906 1367 2781 
Q 1166 2656 1075 2415 
Q 984 2175 984 1722 
L 984 0 
L 422 0 
z
" transform="scale(0.015625)"/>
       <path id="ArialMT-64" d="M 2575 0 
L 2575 419 
Q 2259 -75 1647 -75 
Q 1250 -75 917 144 
Q 584 363 401 755 
Q 219 1147 219 1656 
Q 219 2153 384 2558 
Q 550 2963 881 3178 
Q 1213 3394 1622 3394 
Q 1922 3394 2156 3267 
Q 2391 3141 2538 2938 
L 2538 4581 
L 3097 4581 
L 3097 0 
L 2575 0 
z
M 797 1656 
Q 797 1019 1065 703 
Q 1334 388 1700 388 
Q 2069 388 2326 689 
Q 2584 991 2584 1609 
Q 2584 2291 2321 2609 
Q 2059 2928 1675 2928 
Q 1300 2928 1048 2622 
Q 797 2316 797 1656 
z
" transform="scale(0.015625)"/>
       <path id="ArialMT-20" transform="scale(0.015625)"/>
       <path id="ArialMT-4d" d="M 475 0 
L 475 4581 
L 1388 4581 
L 2472 1338 
Q 2622 884 2691 659 
Q 2769 909 2934 1394 
L 4031 4581 
L 4847 4581 
L 4847 0 
L 4263 0 
L 4263 3834 
L 2931 0 
L 2384 0 
L 1059 3900 
L 1059 0 
L 475 0 
z
" transform="scale(0.015625)"/>
       <path id="ArialMT-73" d="M 197 991 
L 753 1078 
Q 800 744 1014 566 
Q 1228 388 1613 388 
Q 2000 388 2187 545 
Q 2375 703 2375 916 
Q 2375 1106 2209 1216 
Q 2094 1291 1634 1406 
Q 1016 1563 777 1677 
Q 538 1791 414 1992 
Q 291 2194 291 2438 
Q 291 2659 392 2848 
Q 494 3038 669 3163 
Q 800 3259 1026 3326 
Q 1253 3394 1513 3394 
Q 1903 3394 2198 3281 
Q 2494 3169 2634 2976 
Q 2775 2784 2828 2463 
L 2278 2388 
Q 2241 2644 2061 2787 
Q 1881 2931 1553 2931 
Q 1166 2931 1000 2803 
Q 834 2675 834 2503 
Q 834 2394 903 2306 
Q 972 2216 1119 2156 
Q 1203 2125 1616 2013 
Q 2213 1853 2448 1751 
Q 2684 1650 2818 1456 
Q 2953 1263 2953 975 
Q 2953 694 2789 445 
Q 2625 197 2315 61 
Q 2006 -75 1616 -75 
Q 969 -75 630 194 
Q 291 463 197 991 
z
" transform="scale(0.015625)"/>
       <path id="ArialMT-6f" d="M 213 1659 
Q 213 2581 725 3025 
Q 1153 3394 1769 3394 
Q 2453 3394 2887 2945 
Q 3322 2497 3322 1706 
Q 3322 1066 3130 698 
Q 2938 331 2570 128 
Q 2203 -75 1769 -75 
Q 1072 -75 642 372 
Q 213 819 213 1659 
z
M 791 1659 
Q 791 1022 1069 705 
Q 1347 388 1769 388 
Q 2188 388 2466 706 
Q 2744 1025 2744 1678 
Q 2744 2294 2464 2611 
Q 2184 2928 1769 2928 
Q 1347 2928 1069 2612 
Q 791 2297 791 1659 
z
" transform="scale(0.015625)"/>
       <path id="ArialMT-66" d="M 556 0 
L 556 2881 
L 59 2881 
L 59 3319 
L 556 3319 
L 556 3672 
Q 556 4006 616 4169 
Q 697 4388 901 4523 
Q 1106 4659 1475 4659 
Q 1713 4659 2000 4603 
L 1916 4113 
Q 1741 4144 1584 4144 
Q 1328 4144 1222 4034 
Q 1116 3925 1116 3625 
L 1116 3319 
L 1763 3319 
L 1763 2881 
L 1116 2881 
L 1116 0 
L 556 0 
z
" transform="scale(0.015625)"/>
       <path id="ArialMT-76" d="M 1344 0 
L 81 3319 
L 675 3319 
L 1388 1331 
Q 1503 1009 1600 663 
Q 1675 925 1809 1294 
L 2547 3319 
L 3125 3319 
L 1869 0 
L 1344 0 
z
" transform="scale(0.015625)"/>
       <path id="ArialMT-6c" d="M 409 0 
L 409 4581 
L 972 4581 
L 972 0 
L 409 0 
z
" transform="scale(0.015625)"/>
       <path id="ArialMT-75" d="M 2597 0 
L 2597 488 
Q 2209 -75 1544 -75 
Q 1250 -75 995 37 
Q 741 150 617 320 
Q 494 491 444 738 
Q 409 903 409 1263 
L 409 3319 
L 972 3319 
L 972 1478 
Q 972 1038 1006 884 
Q 1059 663 1231 536 
Q 1403 409 1656 409 
Q 1909 409 2131 539 
Q 2353 669 2445 892 
Q 2538 1116 2538 1541 
L 2538 3319 
L 3100 3319 
L 3100 0 
L 2597 0 
z
" transform="scale(0.015625)"/>
       <path id="ArialMT-28" d="M 1497 -1347 
Q 1031 -759 709 28 
Q 388 816 388 1659 
Q 388 2403 628 3084 
Q 909 3875 1497 4659 
L 1900 4659 
Q 1522 4009 1400 3731 
Q 1209 3300 1100 2831 
Q 966 2247 966 1656 
Q 966 153 1900 -1347 
L 1497 -1347 
z
" transform="scale(0.015625)"/>
       <path id="ArialMT-29" d="M 791 -1347 
L 388 -1347 
Q 1322 153 1322 1656 
Q 1322 2244 1188 2822 
Q 1081 3291 891 3722 
Q 769 4003 388 4659 
L 791 4659 
Q 1378 3875 1659 3084 
Q 1900 2403 1900 1659 
Q 1900 816 1576 28 
Q 1253 -759 791 -1347 
z
" transform="scale(0.015625)"/>
      </defs>
      <use xlink:href="#ArialMT-54"/>
      <use xlink:href="#ArialMT-72" x="57.333984"/>
      <use xlink:href="#ArialMT-69" x="90.634766"/>
      <use xlink:href="#ArialMT-6d" x="112.851562"/>
      <use xlink:href="#ArialMT-6d" x="196.152344"/>
      <use xlink:href="#ArialMT-65" x="279.453125"/>
      <use xlink:href="#ArialMT-64" x="335.068359"/>
      <use xlink:href="#ArialMT-20" x="390.683594"/>
      <use xlink:href="#ArialMT-4d" x="418.466797"/>
      <use xlink:href="#ArialMT-65" x="501.767578"/>
      <use xlink:href="#ArialMT-61" x="557.382812"/>
      <use xlink:href="#ArialMT-6e" x="612.998047"/>
      <use xlink:href="#ArialMT-73" x="668.613281"/>
      <use xlink:href="#ArialMT-20" x="718.613281"/>
      <use xlink:href="#ArialMT-6f" x="746.396484"/>
      <use xlink:href="#ArialMT-66" x="802.011719"/>
      <use xlink:href="#ArialMT-20" x="829.794922"/>
      <use xlink:href="#ArialMT-4d" x="857.578125"/>
      <use xlink:href="#ArialMT-20" x="940.878906"/>
      <use xlink:href="#ArialMT-76" x="968.662109"/>
      <use xlink:href="#ArialMT-61" x="1018.662109"/>
      <use xlink:href="#ArialMT-6c" x="1074.277344"/>
      <use xlink:href="#ArialMT-75" x="1096.494141"/>
      <use xlink:href="#ArialMT-65" x="1152.109375"/>
      <use xlink:href="#ArialMT-73" x="1207.724609"/>
      <use xlink:href="#ArialMT-20" x="1257.724609"/>
      <use xlink:href="#ArialMT-28" x="1285.507812"/>
      <use xlink:href="#ArialMT-54" x="1318.808594"/>
      <use xlink:href="#ArialMT-4d" x="1379.892578"/>
      <use xlink:href="#ArialMT-4d" x="1463.193359"/>
      <use xlink:href="#ArialMT-29" x="1546.494141"/>
     </g>
    </g>
   </g>
   <g id="PolyCollection_1">
    <defs>
     <path id="mac4220dd68" d="M 91.079969 -116.187731 
L 68.116634 -116.187731 
L 67.935839 -116.328901 
L 67.761385 -116.470072 
L 67.592581 -116.611242 
L 67.428637 -116.752412 
L 67.26868 -116.893583 
L 67.111759 -117.034753 
L 66.956859 -117.175923 
L 66.802916 -117.317094 
L 66.648827 -117.458264 
L 66.493471 -117.599434 
L 66.33572 -117.740605 
L 66.174457 -117.881775 
L 66.008594 -118.022946 
L 65.837088 -118.164116 
L 65.658953 -118.305286 
L 65.473284 -118.446457 
L 65.279266 -118.587627 
L 65.07619 -118.728797 
L 64.863466 -118.869968 
L 64.640637 -119.011138 
L 64.407385 -119.152308 
L 64.163544 -119.293479 
L 63.909102 -119.434649 
L 63.644212 -119.575819 
L 63.369188 -119.71699 
L 63.084512 -119.85816 
L 62.790826 -119.99933 
L 62.488936 -120.140501 
L 62.1798 -120.281671 
L 61.864525 -120.422841 
L 61.544355 -120.564012 
L 61.22066 -120.705182 
L 60.894925 -120.846352 
L 60.568737 -120.987523 
L 60.243764 -121.128693 
L 59.921746 -121.269863 
L 59.60447 -121.411034 
L 59.293759 -121.552204 
L 58.991451 -121.693374 
L 58.699379 -121.834545 
L 58.419357 -121.975715 
L 58.153156 -122.116885 
L 57.902494 -122.258056 
L 57.669012 -122.399226 
L 57.454266 -122.540396 
L 57.259703 -122.681567 
L 57.086658 -122.822737 
L 56.936335 -122.963907 
L 56.809799 -123.105078 
L 56.707967 -123.246248 
L 56.6316 -123.387418 
L 56.581303 -123.528589 
L 56.557512 -123.669759 
L 56.560501 -123.810929 
L 56.590378 -123.9521 
L 56.647086 -124.09327 
L 56.730409 -124.23444 
L 56.839976 -124.375611 
L 56.975264 -124.516781 
L 57.135612 -124.657951 
L 57.320226 -124.799122 
L 57.528187 -124.940292 
L 57.758468 -125.081462 
L 58.009941 -125.222633 
L 58.281391 -125.363803 
L 58.571528 -125.504973 
L 58.879003 -125.646144 
L 59.202418 -125.787314 
L 59.540342 -125.928484 
L 59.891321 -126.069655 
L 60.253896 -126.210825 
L 60.626609 -126.351995 
L 61.008023 -126.493166 
L 61.396726 -126.634336 
L 61.791344 -126.775506 
L 62.190552 -126.916677 
L 62.593081 -127.057847 
L 62.997727 -127.199017 
L 63.403357 -127.340188 
L 63.808913 -127.481358 
L 64.213417 -127.622528 
L 64.615976 -127.763699 
L 65.015782 -127.904869 
L 65.412114 -128.04604 
L 65.804337 -128.18721 
L 66.191901 -128.32838 
L 66.574338 -128.469551 
L 66.951262 -128.610721 
L 67.32236 -128.751891 
L 67.687395 -128.893062 
L 68.046192 -129.034232 
L 68.398639 -129.175402 
L 68.744678 -129.316573 
L 69.084299 -129.457743 
L 69.417533 -129.598913 
L 69.744448 -129.740084 
L 70.065139 -129.881254 
L 70.379723 -130.022424 
L 70.688332 -130.163595 
L 88.50827 -130.163595 
L 88.50827 -130.163595 
L 88.81688 -130.022424 
L 89.131464 -129.881254 
L 89.452154 -129.740084 
L 89.779069 -129.598913 
L 90.112304 -129.457743 
L 90.451925 -129.316573 
L 90.797964 -129.175402 
L 91.150411 -129.034232 
L 91.509208 -128.893062 
L 91.874242 -128.751891 
L 92.245341 -128.610721 
L 92.622265 -128.469551 
L 93.004702 -128.32838 
L 93.392266 -128.18721 
L 93.784488 -128.04604 
L 94.180821 -127.904869 
L 94.580627 -127.763699 
L 94.983186 -127.622528 
L 95.38769 -127.481358 
L 95.793246 -127.340188 
L 96.198876 -127.199017 
L 96.603522 -127.057847 
L 97.006051 -126.916677 
L 97.405259 -126.775506 
L 97.799877 -126.634336 
L 98.18858 -126.493166 
L 98.569993 -126.351995 
L 98.942707 -126.210825 
L 99.305282 -126.069655 
L 99.656261 -125.928484 
L 99.994185 -125.787314 
L 100.3176 -125.646144 
L 100.625075 -125.504973 
L 100.915212 -125.363803 
L 101.186662 -125.222633 
L 101.438135 -125.081462 
L 101.668416 -124.940292 
L 101.876377 -124.799122 
L 102.060991 -124.657951 
L 102.221339 -124.516781 
L 102.356627 -124.375611 
L 102.466194 -124.23444 
L 102.549517 -124.09327 
L 102.606225 -123.9521 
L 102.636102 -123.810929 
L 102.639091 -123.669759 
L 102.6153 -123.528589 
L 102.565002 -123.387418 
L 102.488636 -123.246248 
L 102.386804 -123.105078 
L 102.260268 -122.963907 
L 102.109945 -122.822737 
L 101.9369 -122.681567 
L 101.742337 -122.540396 
L 101.52759 -122.399226 
L 101.294109 -122.258056 
L 101.043447 -122.116885 
L 100.777246 -121.975715 
L 100.497223 -121.834545 
L 100.205152 -121.693374 
L 99.902844 -121.552204 
L 99.592133 -121.411034 
L 99.274857 -121.269863 
L 98.952838 -121.128693 
L 98.627866 -120.987523 
L 98.301678 -120.846352 
L 97.975943 -120.705182 
L 97.652248 -120.564012 
L 97.332078 -120.422841 
L 97.016802 -120.281671 
L 96.707667 -120.140501 
L 96.405777 -119.99933 
L 96.112091 -119.85816 
L 95.827415 -119.71699 
L 95.552391 -119.575819 
L 95.287501 -119.434649 
L 95.033059 -119.293479 
L 94.789218 -119.152308 
L 94.555966 -119.011138 
L 94.333137 -118.869968 
L 94.120413 -118.728797 
L 93.917337 -118.587627 
L 93.723319 -118.446457 
L 93.53765 -118.305286 
L 93.359515 -118.164116 
L 93.188008 -118.022946 
L 93.022146 -117.881775 
L 92.860883 -117.740605 
L 92.703132 -117.599434 
L 92.547776 -117.458264 
L 92.393687 -117.317094 
L 92.239744 -117.175923 
L 92.084844 -117.034753 
L 91.927923 -116.893583 
L 91.767966 -116.752412 
L 91.604022 -116.611242 
L 91.435218 -116.470072 
L 91.260764 -116.328901 
L 91.079969 -116.187731 
z
" style="stroke: #999999; stroke-width: 2"/>
    </defs>
    <g clip-path="url(#p0d804ab6e7)">
     <use xlink:href="#mac4220dd68" x="0" y="255.11811" style="fill: #ffffff; stroke: #999999; stroke-width: 2"/>
    </g>
   </g>
   <g id="PolyCollection_2">
    <defs>
     <path id="md1b66e41a1" d="M 152.581807 -73.617508 
L 136.128002 -73.617508 
L 135.904203 -73.88625 
L 135.684628 -74.154992 
L 135.469851 -74.423734 
L 135.260443 -74.692476 
L 135.056963 -74.961218 
L 134.859959 -75.22996 
L 134.669961 -75.498702 
L 134.487484 -75.767444 
L 134.313021 -76.036186 
L 134.147044 -76.304928 
L 133.989999 -76.57367 
L 133.842306 -76.842412 
L 133.704355 -77.111154 
L 133.576507 -77.379896 
L 133.459088 -77.648638 
L 133.352394 -77.91738 
L 133.256682 -78.186122 
L 133.172174 -78.454864 
L 133.099054 -78.723606 
L 133.037468 -78.992348 
L 132.987522 -79.261091 
L 132.949283 -79.529833 
L 132.922777 -79.798575 
L 132.907991 -80.067317 
L 132.90487 -80.336059 
L 132.91332 -80.604801 
L 132.933205 -80.873543 
L 132.964351 -81.142285 
L 133.006546 -81.411027 
L 133.059537 -81.679769 
L 133.123035 -81.948511 
L 133.196714 -82.217253 
L 133.280215 -82.485995 
L 133.373143 -82.754737 
L 133.47507 -83.023479 
L 133.585541 -83.292221 
L 133.704068 -83.560963 
L 133.830138 -83.829705 
L 133.963214 -84.098447 
L 134.102735 -84.367189 
L 134.24812 -84.635931 
L 134.398771 -84.904673 
L 134.554074 -85.173415 
L 134.713404 -85.442157 
L 134.876124 -85.710899 
L 135.041594 -85.979641 
L 135.209168 -86.248383 
L 135.378201 -86.517125 
L 135.54805 -86.785868 
L 135.718079 -87.05461 
L 135.887663 -87.323352 
L 136.056187 -87.592094 
L 136.223057 -87.860836 
L 136.387693 -88.129578 
L 136.549544 -88.39832 
L 136.708081 -88.667062 
L 136.862807 -88.935804 
L 137.013256 -89.204546 
L 137.158998 -89.473288 
L 137.299641 -89.74203 
L 137.434833 -90.010772 
L 137.564266 -90.279514 
L 137.687676 -90.548256 
L 137.804844 -90.816998 
L 137.9156 -91.08574 
L 138.019824 -91.354482 
L 138.117443 -91.623224 
L 138.208434 -91.891966 
L 138.292825 -92.160708 
L 138.370694 -92.42945 
L 138.442163 -92.698192 
L 138.507407 -92.966934 
L 138.566642 -93.235676 
L 138.62013 -93.504418 
L 138.668173 -93.77316 
L 138.711112 -94.041902 
L 138.749324 -94.310645 
L 138.783217 -94.579387 
L 138.813228 -94.848129 
L 138.839819 -95.116871 
L 138.863473 -95.385613 
L 138.884688 -95.654355 
L 138.903975 -95.923097 
L 138.921853 -96.191839 
L 138.938843 -96.460581 
L 138.955465 -96.729323 
L 138.972233 -96.998065 
L 138.989653 -97.266807 
L 139.008213 -97.535549 
L 139.028385 -97.804291 
L 139.050619 -98.073033 
L 139.075337 -98.341775 
L 139.102934 -98.610517 
L 139.133772 -98.879259 
L 139.168178 -99.148001 
L 139.206443 -99.416743 
L 139.248819 -99.685485 
L 139.295516 -99.954227 
L 139.346704 -100.222969 
L 149.363105 -100.222969 
L 149.363105 -100.222969 
L 149.414293 -99.954227 
L 149.46099 -99.685485 
L 149.503365 -99.416743 
L 149.54163 -99.148001 
L 149.576037 -98.879259 
L 149.606875 -98.610517 
L 149.634472 -98.341775 
L 149.65919 -98.073033 
L 149.681423 -97.804291 
L 149.701596 -97.535549 
L 149.720156 -97.266807 
L 149.737575 -96.998065 
L 149.754344 -96.729323 
L 149.770966 -96.460581 
L 149.787956 -96.191839 
L 149.805833 -95.923097 
L 149.825121 -95.654355 
L 149.846336 -95.385613 
L 149.869989 -95.116871 
L 149.896581 -94.848129 
L 149.926592 -94.579387 
L 149.960485 -94.310645 
L 149.998697 -94.041902 
L 150.041636 -93.77316 
L 150.089679 -93.504418 
L 150.143167 -93.235676 
L 150.202402 -92.966934 
L 150.267645 -92.698192 
L 150.339115 -92.42945 
L 150.416983 -92.160708 
L 150.501375 -91.891966 
L 150.592366 -91.623224 
L 150.689985 -91.354482 
L 150.794208 -91.08574 
L 150.904965 -90.816998 
L 151.022133 -90.548256 
L 151.145543 -90.279514 
L 151.274976 -90.010772 
L 151.410168 -89.74203 
L 151.550811 -89.473288 
L 151.696553 -89.204546 
L 151.847002 -88.935804 
L 152.001728 -88.667062 
L 152.160265 -88.39832 
L 152.322115 -88.129578 
L 152.486752 -87.860836 
L 152.653621 -87.592094 
L 152.822146 -87.323352 
L 152.99173 -87.05461 
L 153.161759 -86.785868 
L 153.331608 -86.517125 
L 153.500641 -86.248383 
L 153.668215 -85.979641 
L 153.833685 -85.710899 
L 153.996405 -85.442157 
L 154.155735 -85.173415 
L 154.311038 -84.904673 
L 154.461689 -84.635931 
L 154.607074 -84.367189 
L 154.746595 -84.098447 
L 154.879671 -83.829705 
L 155.005741 -83.560963 
L 155.124268 -83.292221 
L 155.234738 -83.023479 
L 155.336666 -82.754737 
L 155.429594 -82.485995 
L 155.513094 -82.217253 
L 155.586774 -81.948511 
L 155.650272 -81.679769 
L 155.703263 -81.411027 
L 155.745457 -81.142285 
L 155.776604 -80.873543 
L 155.796489 -80.604801 
L 155.804939 -80.336059 
L 155.801818 -80.067317 
L 155.787031 -79.798575 
L 155.760526 -79.529833 
L 155.722287 -79.261091 
L 155.672341 -78.992348 
L 155.610755 -78.723606 
L 155.537635 -78.454864 
L 155.453127 -78.186122 
L 155.357415 -77.91738 
L 155.25072 -77.648638 
L 155.133302 -77.379896 
L 155.005454 -77.111154 
L 154.867503 -76.842412 
L 154.71981 -76.57367 
L 154.562765 -76.304928 
L 154.396788 -76.036186 
L 154.222325 -75.767444 
L 154.039848 -75.498702 
L 153.84985 -75.22996 
L 153.652845 -74.961218 
L 153.449366 -74.692476 
L 153.239958 -74.423734 
L 153.025181 -74.154992 
L 152.805605 -73.88625 
L 152.581807 -73.617508 
z
" style="stroke: #999999; stroke-width: 2"/>
    </defs>
    <g clip-path="url(#p0d804ab6e7)">
     <use xlink:href="#md1b66e41a1" x="0" y="255.11811" style="fill: #ffffff; stroke: #999999; stroke-width: 2"/>
    </g>
   </g>
   <g id="PolyCollection_3">
    <defs>
     <path id="m725dd2f726" d="M 216.661208 -91.560821 
L 201.561806 -91.560821 
L 201.454706 -92.035608 
L 201.35824 -92.510395 
L 201.272735 -92.985182 
L 201.198463 -93.45997 
L 201.135635 -93.934757 
L 201.084407 -94.409544 
L 201.044874 -94.884331 
L 201.017074 -95.359118 
L 201.000985 -95.833905 
L 200.996528 -96.308692 
L 201.003569 -96.783479 
L 201.021918 -97.258266 
L 201.051335 -97.733054 
L 201.09153 -98.207841 
L 201.14217 -98.682628 
L 201.202878 -99.157415 
L 201.273237 -99.632202 
L 201.3528 -100.106989 
L 201.441087 -100.581776 
L 201.537592 -101.056563 
L 201.641789 -101.53135 
L 201.753134 -102.006138 
L 201.87107 -102.480925 
L 201.995032 -102.955712 
L 202.12445 -103.430499 
L 202.258755 -103.905286 
L 202.397378 -104.380073 
L 202.539759 -104.85486 
L 202.685349 -105.329647 
L 202.833607 -105.804434 
L 202.984013 -106.279222 
L 203.13606 -106.754009 
L 203.289263 -107.228796 
L 203.443159 -107.703583 
L 203.597303 -108.17837 
L 203.751279 -108.653157 
L 203.904691 -109.127944 
L 204.057168 -109.602731 
L 204.208364 -110.077518 
L 204.357958 -110.552305 
L 204.505651 -111.027093 
L 204.651169 -111.50188 
L 204.794259 -111.976667 
L 204.93469 -112.451454 
L 205.072252 -112.926241 
L 205.206753 -113.401028 
L 205.338023 -113.875815 
L 205.465905 -114.350602 
L 205.590261 -114.825389 
L 205.710967 -115.300177 
L 205.827913 -115.774964 
L 205.941003 -116.249751 
L 206.050152 -116.724538 
L 206.155289 -117.199325 
L 206.256351 -117.674112 
L 206.353287 -118.148899 
L 206.446057 -118.623686 
L 206.534629 -119.098473 
L 206.618982 -119.573261 
L 206.699105 -120.048048 
L 206.774996 -120.522835 
L 206.846664 -120.997622 
L 206.914126 -121.472409 
L 206.977413 -121.947196 
L 207.036564 -122.421983 
L 207.091631 -122.89677 
L 207.142676 -123.371557 
L 207.189775 -123.846345 
L 207.233013 -124.321132 
L 207.272492 -124.795919 
L 207.308323 -125.270706 
L 207.34063 -125.745493 
L 207.369552 -126.22028 
L 207.395237 -126.695067 
L 207.417848 -127.169854 
L 207.437559 -127.644641 
L 207.454553 -128.119429 
L 207.469027 -128.594216 
L 207.481185 -129.069003 
L 207.49124 -129.54379 
L 207.499412 -130.018577 
L 207.505929 -130.493364 
L 207.511021 -130.968151 
L 207.514923 -131.442938 
L 207.517872 -131.917725 
L 207.520103 -132.392512 
L 207.521851 -132.8673 
L 207.523349 -133.342087 
L 207.524821 -133.816874 
L 207.526488 -134.291661 
L 207.528561 -134.766448 
L 207.531242 -135.241235 
L 207.534721 -135.716022 
L 207.539175 -136.190809 
L 207.544766 -136.665596 
L 207.551645 -137.140384 
L 207.559941 -137.615171 
L 207.56977 -138.089958 
L 207.581229 -138.564745 
L 210.641785 -138.564745 
L 210.641785 -138.564745 
L 210.653245 -138.089958 
L 210.663074 -137.615171 
L 210.67137 -137.140384 
L 210.678248 -136.665596 
L 210.68384 -136.190809 
L 210.688294 -135.716022 
L 210.691772 -135.241235 
L 210.694453 -134.766448 
L 210.696527 -134.291661 
L 210.698194 -133.816874 
L 210.699666 -133.342087 
L 210.701163 -132.8673 
L 210.702912 -132.392512 
L 210.705143 -131.917725 
L 210.708091 -131.442938 
L 210.711994 -130.968151 
L 210.717086 -130.493364 
L 210.723602 -130.018577 
L 210.731775 -129.54379 
L 210.74183 -129.069003 
L 210.753988 -128.594216 
L 210.768461 -128.119429 
L 210.785456 -127.644641 
L 210.805167 -127.169854 
L 210.827778 -126.695067 
L 210.853463 -126.22028 
L 210.882384 -125.745493 
L 210.914692 -125.270706 
L 210.950522 -124.795919 
L 210.990001 -124.321132 
L 211.03324 -123.846345 
L 211.080338 -123.371557 
L 211.131384 -122.89677 
L 211.18645 -122.421983 
L 211.245601 -121.947196 
L 211.308888 -121.472409 
L 211.376351 -120.997622 
L 211.448018 -120.522835 
L 211.52391 -120.048048 
L 211.604033 -119.573261 
L 211.688386 -119.098473 
L 211.776958 -118.623686 
L 211.869728 -118.148899 
L 211.966664 -117.674112 
L 212.067726 -117.199325 
L 212.172862 -116.724538 
L 212.282012 -116.249751 
L 212.395102 -115.774964 
L 212.512048 -115.300177 
L 212.632753 -114.825389 
L 212.757109 -114.350602 
L 212.884992 -113.875815 
L 213.016261 -113.401028 
L 213.150763 -112.926241 
L 213.288325 -112.451454 
L 213.428756 -111.976667 
L 213.571846 -111.50188 
L 213.717363 -111.027093 
L 213.865057 -110.552305 
L 214.014651 -110.077518 
L 214.165847 -109.602731 
L 214.318324 -109.127944 
L 214.471736 -108.653157 
L 214.625711 -108.17837 
L 214.779856 -107.703583 
L 214.933751 -107.228796 
L 215.086955 -106.754009 
L 215.239002 -106.279222 
L 215.389407 -105.804434 
L 215.537666 -105.329647 
L 215.683255 -104.85486 
L 215.825637 -104.380073 
L 215.96426 -103.905286 
L 216.098564 -103.430499 
L 216.227983 -102.955712 
L 216.351945 -102.480925 
L 216.469881 -102.006138 
L 216.581226 -101.53135 
L 216.685423 -101.056563 
L 216.781928 -100.581776 
L 216.870214 -100.106989 
L 216.949777 -99.632202 
L 217.020137 -99.157415 
L 217.080844 -98.682628 
L 217.131484 -98.207841 
L 217.17168 -97.733054 
L 217.201097 -97.258266 
L 217.219446 -96.783479 
L 217.226486 -96.308692 
L 217.22203 -95.833905 
L 217.205941 -95.359118 
L 217.178141 -94.884331 
L 217.138608 -94.409544 
L 217.08738 -93.934757 
L 217.024552 -93.45997 
L 216.950279 -92.985182 
L 216.864775 -92.510395 
L 216.768309 -92.035608 
L 216.661208 -91.560821 
z
" style="stroke: #999999; stroke-width: 2"/>
    </defs>
    <g clip-path="url(#p0d804ab6e7)">
     <use xlink:href="#m725dd2f726" x="0" y="255.11811" style="fill: #ffffff; stroke: #999999; stroke-width: 2"/>
    </g>
   </g>
   <g id="PolyCollection_4">
    <defs>
     <path id="m5bbb49179c" d="M 292.64009 -49.837187 
L 255.096131 -49.837187 
L 254.854799 -49.945766 
L 254.638594 -50.054346 
L 254.447686 -50.162925 
L 254.282046 -50.271504 
L 254.141444 -50.380084 
L 254.02545 -50.488663 
L 253.933428 -50.597242 
L 253.864546 -50.705822 
L 253.817781 -50.814401 
L 253.79192 -50.92298 
L 253.785576 -51.03156 
L 253.797197 -51.140139 
L 253.825079 -51.248718 
L 253.867379 -51.357298 
L 253.922137 -51.465877 
L 253.987287 -51.574457 
L 254.060682 -51.683036 
L 254.140112 -51.791615 
L 254.223326 -51.900195 
L 254.308052 -52.008774 
L 254.392023 -52.117353 
L 254.472996 -52.225933 
L 254.548776 -52.334512 
L 254.61724 -52.443091 
L 254.676355 -52.551671 
L 254.724202 -52.66025 
L 254.758995 -52.768829 
L 254.7791 -52.877409 
L 254.783052 -52.985988 
L 254.769569 -53.094568 
L 254.73757 -53.203147 
L 254.686181 -53.311726 
L 254.614752 -53.420306 
L 254.522858 -53.528885 
L 254.410307 -53.637464 
L 254.277145 -53.746044 
L 254.12365 -53.854623 
L 253.950339 -53.963202 
L 253.757954 -54.071782 
L 253.547464 -54.180361 
L 253.320051 -54.28894 
L 253.077097 -54.39752 
L 252.820177 -54.506099 
L 252.551039 -54.614678 
L 252.271587 -54.723258 
L 251.983867 -54.831837 
L 251.690041 -54.940417 
L 251.392371 -55.048996 
L 251.093195 -55.157575 
L 250.794906 -55.266155 
L 250.499927 -55.374734 
L 250.210691 -55.483313 
L 249.929616 -55.591893 
L 249.659085 -55.700472 
L 249.401423 -55.809051 
L 249.158875 -55.917631 
L 248.933592 -56.02621 
L 248.727604 -56.134789 
L 248.542813 -56.243369 
L 248.38097 -56.351948 
L 248.243666 -56.460528 
L 248.132321 -56.569107 
L 248.048173 -56.677686 
L 247.99227 -56.786266 
L 247.965469 -56.894845 
L 247.968428 -57.003424 
L 248.001609 -57.112004 
L 248.065276 -57.220583 
L 248.159503 -57.329162 
L 248.284172 -57.437742 
L 248.438984 -57.546321 
L 248.623469 -57.6549 
L 248.83699 -57.76348 
L 249.078759 -57.872059 
L 249.347846 -57.980639 
L 249.643192 -58.089218 
L 249.963623 -58.197797 
L 250.307866 -58.306377 
L 250.67456 -58.414956 
L 251.062271 -58.523535 
L 251.469507 -58.632115 
L 251.894733 -58.740694 
L 252.336381 -58.849273 
L 252.792867 -58.957853 
L 253.262601 -59.066432 
L 253.744001 -59.175011 
L 254.235499 -59.283591 
L 254.735556 -59.39217 
L 255.242667 -59.50075 
L 255.755371 -59.609329 
L 256.272257 -59.717908 
L 256.791969 -59.826488 
L 257.31321 -59.935067 
L 257.834748 -60.043646 
L 258.355418 -60.152226 
L 258.874122 -60.260805 
L 259.389832 -60.369384 
L 259.901587 -60.477964 
L 260.408497 -60.586543 
L 287.327723 -60.586543 
L 287.327723 -60.586543 
L 287.834634 -60.477964 
L 288.346389 -60.369384 
L 288.862098 -60.260805 
L 289.380802 -60.152226 
L 289.901472 -60.043646 
L 290.423011 -59.935067 
L 290.944252 -59.826488 
L 291.463963 -59.717908 
L 291.980849 -59.609329 
L 292.493553 -59.50075 
L 293.000664 -59.39217 
L 293.500721 -59.283591 
L 293.992219 -59.175011 
L 294.473619 -59.066432 
L 294.943354 -58.957853 
L 295.39984 -58.849273 
L 295.841488 -58.740694 
L 296.266713 -58.632115 
L 296.673949 -58.523535 
L 297.06166 -58.414956 
L 297.428354 -58.306377 
L 297.772597 -58.197797 
L 298.093029 -58.089218 
L 298.388375 -57.980639 
L 298.657461 -57.872059 
L 298.89923 -57.76348 
L 299.112751 -57.6549 
L 299.297236 -57.546321 
L 299.452049 -57.437742 
L 299.576718 -57.329162 
L 299.670944 -57.220583 
L 299.734612 -57.112004 
L 299.767792 -57.003424 
L 299.770751 -56.894845 
L 299.74395 -56.786266 
L 299.688047 -56.677686 
L 299.603899 -56.569107 
L 299.492554 -56.460528 
L 299.355251 -56.351948 
L 299.193408 -56.243369 
L 299.008616 -56.134789 
L 298.802629 -56.02621 
L 298.577345 -55.917631 
L 298.334798 -55.809051 
L 298.077135 -55.700472 
L 297.806604 -55.591893 
L 297.52553 -55.483313 
L 297.236294 -55.374734 
L 296.941315 -55.266155 
L 296.643025 -55.157575 
L 296.343849 -55.048996 
L 296.04618 -54.940417 
L 295.752354 -54.831837 
L 295.464633 -54.723258 
L 295.185182 -54.614678 
L 294.916043 -54.506099 
L 294.659123 -54.39752 
L 294.41617 -54.28894 
L 294.188756 -54.180361 
L 293.978266 -54.071782 
L 293.785882 -53.963202 
L 293.61257 -53.854623 
L 293.459076 -53.746044 
L 293.325913 -53.637464 
L 293.213362 -53.528885 
L 293.121468 -53.420306 
L 293.050039 -53.311726 
L 292.998651 -53.203147 
L 292.966651 -53.094568 
L 292.953168 -52.985988 
L 292.95712 -52.877409 
L 292.977225 -52.768829 
L 293.012019 -52.66025 
L 293.059866 -52.551671 
L 293.118981 -52.443091 
L 293.187444 -52.334512 
L 293.263225 -52.225933 
L 293.344197 -52.117353 
L 293.428168 -52.008774 
L 293.512894 -51.900195 
L 293.596108 -51.791615 
L 293.675538 -51.683036 
L 293.748934 -51.574457 
L 293.814084 -51.465877 
L 293.868841 -51.357298 
L 293.911142 -51.248718 
L 293.939023 -51.140139 
L 293.950644 -51.03156 
L 293.944301 -50.92298 
L 293.91844 -50.814401 
L 293.871674 -50.705822 
L 293.802793 -50.597242 
L 293.710771 -50.488663 
L 293.594776 -50.380084 
L 293.454175 -50.271504 
L 293.288535 -50.162925 
L 293.097626 -50.054346 
L 292.881421 -49.945766 
L 292.64009 -49.837187 
z
" style="stroke: #999999; stroke-width: 2"/>
    </defs>
    <g clip-path="url(#p0d804ab6e7)">
     <use xlink:href="#m5bbb49179c" x="0" y="255.11811" style="fill: #ffffff; stroke: #999999; stroke-width: 2"/>
    </g>
   </g>
   <g id="PolyCollection_5">
    <defs>
     <path id="m292eb94485" d="M 344.205296 -157.774114 
L 333.04413 -157.774114 
L 332.891454 -158.199882 
L 332.741031 -158.62565 
L 332.593209 -159.051418 
L 332.448336 -159.477186 
L 332.306758 -159.902954 
L 332.168818 -160.328722 
L 332.034857 -160.75449 
L 331.905208 -161.180258 
L 331.780199 -161.606026 
L 331.660152 -162.031794 
L 331.545378 -162.457562 
L 331.436181 -162.883331 
L 331.332853 -163.309099 
L 331.235674 -163.734867 
L 331.144914 -164.160635 
L 331.060825 -164.586403 
L 330.983647 -165.012171 
L 330.913602 -165.437939 
L 330.850897 -165.863707 
L 330.795718 -166.289475 
L 330.748235 -166.715243 
L 330.708594 -167.141011 
L 330.676923 -167.566779 
L 330.653326 -167.992548 
L 330.637883 -168.418316 
L 330.630652 -168.844084 
L 330.631665 -169.269852 
L 330.640928 -169.69562 
L 330.658422 -170.121388 
L 330.684101 -170.547156 
L 330.71789 -170.972924 
L 330.759688 -171.398692 
L 330.809367 -171.82446 
L 330.86677 -172.250228 
L 330.931711 -172.675997 
L 331.003981 -173.101765 
L 331.083338 -173.527533 
L 331.169519 -173.953301 
L 331.262232 -174.379069 
L 331.361161 -174.804837 
L 331.465967 -175.230605 
L 331.576288 -175.656373 
L 331.691741 -176.082141 
L 331.811925 -176.507909 
L 331.936421 -176.933677 
L 332.064793 -177.359445 
L 332.196594 -177.785214 
L 332.331366 -178.210982 
L 332.468642 -178.63675 
L 332.607948 -179.062518 
L 332.748808 -179.488286 
L 332.890744 -179.914054 
L 333.033281 -180.339822 
L 333.175949 -180.76559 
L 333.318285 -181.191358 
L 333.459835 -181.617126 
L 333.60016 -182.042894 
L 333.738836 -182.468662 
L 333.875457 -182.894431 
L 334.009637 -183.320199 
L 334.141012 -183.745967 
L 334.269246 -184.171735 
L 334.394026 -184.597503 
L 334.515071 -185.023271 
L 334.632128 -185.449039 
L 334.744975 -185.874807 
L 334.853426 -186.300575 
L 334.957323 -186.726343 
L 335.056545 -187.152111 
L 335.151005 -187.577879 
L 335.24065 -188.003648 
L 335.325458 -188.429416 
L 335.405444 -188.855184 
L 335.480653 -189.280952 
L 335.551161 -189.70672 
L 335.617075 -190.132488 
L 335.678531 -190.558256 
L 335.735689 -190.984024 
L 335.788736 -191.409792 
L 335.837881 -191.83556 
L 335.883352 -192.261328 
L 335.925397 -192.687096 
L 335.964277 -193.112865 
L 336.000267 -193.538633 
L 336.033651 -193.964401 
L 336.064722 -194.390169 
L 336.093775 -194.815937 
L 336.121109 -195.241705 
L 336.147021 -195.667473 
L 336.171805 -196.093241 
L 336.19575 -196.519009 
L 336.219136 -196.944777 
L 336.242234 -197.370545 
L 336.265299 -197.796314 
L 336.288576 -198.222082 
L 336.312292 -198.64785 
L 336.336657 -199.073618 
L 336.361862 -199.499386 
L 336.388079 -199.925154 
L 340.861348 -199.925154 
L 340.861348 -199.925154 
L 340.887564 -199.499386 
L 340.912769 -199.073618 
L 340.937134 -198.64785 
L 340.96085 -198.222082 
L 340.984127 -197.796314 
L 341.007193 -197.370545 
L 341.03029 -196.944777 
L 341.053676 -196.519009 
L 341.077621 -196.093241 
L 341.102406 -195.667473 
L 341.128318 -195.241705 
L 341.155651 -194.815937 
L 341.184704 -194.390169 
L 341.215775 -193.964401 
L 341.249159 -193.538633 
L 341.285149 -193.112865 
L 341.324029 -192.687096 
L 341.366074 -192.261328 
L 341.411545 -191.83556 
L 341.46069 -191.409792 
L 341.513737 -190.984024 
L 341.570896 -190.558256 
L 341.632351 -190.132488 
L 341.698265 -189.70672 
L 341.768774 -189.280952 
L 341.843982 -188.855184 
L 341.923968 -188.429416 
L 342.008777 -188.003648 
L 342.098421 -187.577879 
L 342.192881 -187.152111 
L 342.292104 -186.726343 
L 342.396001 -186.300575 
L 342.504451 -185.874807 
L 342.617299 -185.449039 
L 342.734355 -185.023271 
L 342.8554 -184.597503 
L 342.980181 -184.171735 
L 343.108414 -183.745967 
L 343.23979 -183.320199 
L 343.373969 -182.894431 
L 343.51059 -182.468662 
L 343.649266 -182.042894 
L 343.789591 -181.617126 
L 343.931142 -181.191358 
L 344.073477 -180.76559 
L 344.216145 -180.339822 
L 344.358682 -179.914054 
L 344.500619 -179.488286 
L 344.641478 -179.062518 
L 344.780784 -178.63675 
L 344.91806 -178.210982 
L 345.052832 -177.785214 
L 345.184634 -177.359445 
L 345.313006 -176.933677 
L 345.437501 -176.507909 
L 345.557685 -176.082141 
L 345.673138 -175.656373 
L 345.783459 -175.230605 
L 345.888265 -174.804837 
L 345.987194 -174.379069 
L 346.079907 -173.953301 
L 346.166088 -173.527533 
L 346.245446 -173.101765 
L 346.317715 -172.675997 
L 346.382657 -172.250228 
L 346.440059 -171.82446 
L 346.489738 -171.398692 
L 346.531536 -170.972924 
L 346.565325 -170.547156 
L 346.591004 -170.121388 
L 346.608498 -169.69562 
L 346.617761 -169.269852 
L 346.618774 -168.844084 
L 346.611543 -168.418316 
L 346.596101 -167.992548 
L 346.572503 -167.566779 
L 346.540832 -167.141011 
L 346.501191 -166.715243 
L 346.453708 -166.289475 
L 346.39853 -165.863707 
L 346.335824 -165.437939 
L 346.26578 -165.012171 
L 346.188602 -164.586403 
L 346.104513 -164.160635 
L 346.013752 -163.734867 
L 345.916574 -163.309099 
L 345.813246 -162.883331 
L 345.704049 -162.457562 
L 345.589275 -162.031794 
L 345.469227 -161.606026 
L 345.344218 -161.180258 
L 345.214569 -160.75449 
L 345.080608 -160.328722 
L 344.942669 -159.902954 
L 344.801091 -159.477186 
L 344.656218 -159.051418 
L 344.508396 -158.62565 
L 344.357972 -158.199882 
L 344.205296 -157.774114 
z
" style="stroke: #999999; stroke-width: 2"/>
    </defs>
    <g clip-path="url(#p0d804ab6e7)">
     <use xlink:href="#m292eb94485" x="0" y="255.11811" style="fill: #ffffff; stroke: #999999; stroke-width: 2"/>
    </g>
   </g>
   <g id="PolyCollection_6">
    <defs>
     <path id="m1f59454ba6" d="M 409.849609 -75.936219 
L 396.913023 -75.936219 
L 396.879905 -76.273224 
L 396.853383 -76.610229 
L 396.83342 -76.947234 
L 396.819949 -77.284239 
L 396.812874 -77.621245 
L 396.812065 -77.95825 
L 396.817365 -78.295255 
L 396.828585 -78.63226 
L 396.845511 -78.969265 
L 396.8679 -79.30627 
L 396.895482 -79.643275 
L 396.927966 -79.980281 
L 396.965035 -80.317286 
L 397.006354 -80.654291 
L 397.051568 -80.991296 
L 397.100305 -81.328301 
L 397.15218 -81.665306 
L 397.206795 -82.002312 
L 397.263743 -82.339317 
L 397.322608 -82.676322 
L 397.382973 -83.013327 
L 397.444414 -83.350332 
L 397.506511 -83.687337 
L 397.568847 -84.024342 
L 397.631008 -84.361348 
L 397.69259 -84.698353 
L 397.753198 -85.035358 
L 397.812451 -85.372363 
L 397.869981 -85.709368 
L 397.92544 -86.046373 
L 397.978495 -86.383378 
L 398.028838 -86.720384 
L 398.076181 -87.057389 
L 398.120259 -87.394394 
L 398.160837 -87.731399 
L 398.197701 -88.068404 
L 398.230671 -88.405409 
L 398.259589 -88.742414 
L 398.284333 -89.07942 
L 398.304805 -89.416425 
L 398.32094 -89.75343 
L 398.332703 -90.090435 
L 398.34009 -90.42744 
L 398.343123 -90.764445 
L 398.341858 -91.10145 
L 398.336377 -91.438456 
L 398.32679 -91.775461 
L 398.313235 -92.112466 
L 398.295876 -92.449471 
L 398.2749 -92.786476 
L 398.250517 -93.123481 
L 398.222963 -93.460486 
L 398.192488 -93.797492 
L 398.159364 -94.134497 
L 398.12388 -94.471502 
L 398.086338 -94.808507 
L 398.047053 -95.145512 
L 398.006352 -95.482517 
L 397.96457 -95.819523 
L 397.922048 -96.156528 
L 397.879134 -96.493533 
L 397.836177 -96.830538 
L 397.793527 -97.167543 
L 397.751533 -97.504548 
L 397.71054 -97.841553 
L 397.670891 -98.178559 
L 397.632917 -98.515564 
L 397.596946 -98.852569 
L 397.563291 -99.189574 
L 397.532255 -99.526579 
L 397.504129 -99.863584 
L 397.479186 -100.200589 
L 397.457687 -100.537595 
L 397.439872 -100.8746 
L 397.425965 -101.211605 
L 397.41617 -101.54861 
L 397.410671 -101.885615 
L 397.409633 -102.22262 
L 397.413198 -102.559625 
L 397.421486 -102.896631 
L 397.434598 -103.233636 
L 397.45261 -103.570641 
L 397.475577 -103.907646 
L 397.503533 -104.244651 
L 397.53649 -104.581656 
L 397.574438 -104.918661 
L 397.617346 -105.255667 
L 397.665163 -105.592672 
L 397.717818 -105.929677 
L 397.775222 -106.266682 
L 397.837267 -106.603687 
L 397.903826 -106.940692 
L 397.974759 -107.277697 
L 398.049909 -107.614703 
L 398.129104 -107.951708 
L 398.21216 -108.288713 
L 398.29888 -108.625718 
L 398.389058 -108.962723 
L 398.482476 -109.299728 
L 408.280156 -109.299728 
L 408.280156 -109.299728 
L 408.373575 -108.962723 
L 408.463752 -108.625718 
L 408.550472 -108.288713 
L 408.633528 -107.951708 
L 408.712723 -107.614703 
L 408.787873 -107.277697 
L 408.858806 -106.940692 
L 408.925366 -106.603687 
L 408.98741 -106.266682 
L 409.044814 -105.929677 
L 409.09747 -105.592672 
L 409.145287 -105.255667 
L 409.188194 -104.918661 
L 409.226142 -104.581656 
L 409.259099 -104.244651 
L 409.287055 -103.907646 
L 409.310023 -103.570641 
L 409.328034 -103.233636 
L 409.341146 -102.896631 
L 409.349434 -102.559625 
L 409.352999 -102.22262 
L 409.351961 -101.885615 
L 409.346462 -101.54861 
L 409.336667 -101.211605 
L 409.32276 -100.8746 
L 409.304945 -100.537595 
L 409.283446 -100.200589 
L 409.258503 -99.863584 
L 409.230377 -99.526579 
L 409.199341 -99.189574 
L 409.165686 -98.852569 
L 409.129715 -98.515564 
L 409.091742 -98.178559 
L 409.052092 -97.841553 
L 409.0111 -97.504548 
L 408.969106 -97.167543 
L 408.926455 -96.830538 
L 408.883498 -96.493533 
L 408.840584 -96.156528 
L 408.798063 -95.819523 
L 408.75628 -95.482517 
L 408.715579 -95.145512 
L 408.676294 -94.808507 
L 408.638752 -94.471502 
L 408.603268 -94.134497 
L 408.570145 -93.797492 
L 408.53967 -93.460486 
L 408.512115 -93.123481 
L 408.487733 -92.786476 
L 408.466756 -92.449471 
L 408.449397 -92.112466 
L 408.435842 -91.775461 
L 408.426255 -91.438456 
L 408.420774 -91.10145 
L 408.419509 -90.764445 
L 408.422543 -90.42744 
L 408.429929 -90.090435 
L 408.441692 -89.75343 
L 408.457828 -89.416425 
L 408.4783 -89.07942 
L 408.503043 -88.742414 
L 408.531962 -88.405409 
L 408.564931 -88.068404 
L 408.601796 -87.731399 
L 408.642373 -87.394394 
L 408.686452 -87.057389 
L 408.733794 -86.720384 
L 408.784137 -86.383378 
L 408.837192 -86.046373 
L 408.892651 -85.709368 
L 408.950182 -85.372363 
L 409.009434 -85.035358 
L 409.070042 -84.698353 
L 409.131624 -84.361348 
L 409.193785 -84.024342 
L 409.256121 -83.687337 
L 409.318218 -83.350332 
L 409.37966 -83.013327 
L 409.440024 -82.676322 
L 409.498889 -82.339317 
L 409.555837 -82.002312 
L 409.610452 -81.665306 
L 409.662327 -81.328301 
L 409.711065 -80.991296 
L 409.756278 -80.654291 
L 409.797597 -80.317286 
L 409.834667 -79.980281 
L 409.86715 -79.643275 
L 409.894732 -79.30627 
L 409.917121 -78.969265 
L 409.934047 -78.63226 
L 409.945267 -78.295255 
L 409.950567 -77.95825 
L 409.949758 -77.621245 
L 409.942683 -77.284239 
L 409.929213 -76.947234 
L 409.90925 -76.610229 
L 409.882727 -76.273224 
L 409.849609 -75.936219 
z
" style="stroke: #999999; stroke-width: 2"/>
    </defs>
    <g clip-path="url(#p0d804ab6e7)">
     <use xlink:href="#m1f59454ba6" x="0" y="255.11811" style="fill: #ffffff; stroke: #999999; stroke-width: 2"/>
    </g>
   </g>
   <g id="PolyCollection_7">
    <defs>
     <path id="m24ce873246" d="M 470.411891 -186.511558 
L 465.863947 -186.511558 
L 465.84113 -186.871854 
L 465.820413 -187.232151 
L 465.801439 -187.592447 
L 465.783794 -187.952744 
L 465.767014 -188.313041 
L 465.750583 -188.673337 
L 465.733942 -189.033634 
L 465.716488 -189.393931 
L 465.697584 -189.754227 
L 465.676562 -190.114524 
L 465.652729 -190.47482 
L 465.625375 -190.835117 
L 465.593783 -191.195414 
L 465.557229 -191.55571 
L 465.515001 -191.916007 
L 465.466396 -192.276304 
L 465.410739 -192.6366 
L 465.347384 -192.996897 
L 465.275726 -193.357193 
L 465.195207 -193.71749 
L 465.105327 -194.077787 
L 465.00565 -194.438083 
L 464.89581 -194.79838 
L 464.775521 -195.158677 
L 464.644578 -195.518973 
L 464.502867 -195.87927 
L 464.350365 -196.239566 
L 464.187146 -196.599863 
L 464.013381 -196.96016 
L 463.829343 -197.320456 
L 463.635402 -197.680753 
L 463.432028 -198.04105 
L 463.219785 -198.401346 
L 462.999331 -198.761643 
L 462.771413 -199.121939 
L 462.53686 -199.482236 
L 462.296574 -199.842533 
L 462.05153 -200.202829 
L 461.80276 -200.563126 
L 461.551346 -200.923423 
L 461.298413 -201.283719 
L 461.045114 -201.644016 
L 460.792622 -202.004312 
L 460.542119 -202.364609 
L 460.294782 -202.724906 
L 460.051777 -203.085202 
L 459.814242 -203.445499 
L 459.583282 -203.805796 
L 459.359955 -204.166092 
L 459.145264 -204.526389 
L 458.940149 -204.886685 
L 458.745479 -205.246982 
L 458.562045 -205.607279 
L 458.390557 -205.967575 
L 458.231633 -206.327872 
L 458.085803 -206.688169 
L 457.953506 -207.048465 
L 457.835083 -207.408762 
L 457.730786 -207.769058 
L 457.640774 -208.129355 
L 457.565118 -208.489652 
L 457.503805 -208.849948 
L 457.456742 -209.210245 
L 457.42376 -209.570542 
L 457.404624 -209.930838 
L 457.399039 -210.291135 
L 457.406654 -210.651431 
L 457.427072 -211.011728 
L 457.45986 -211.372025 
L 457.504551 -211.732321 
L 457.560657 -212.092618 
L 457.627674 -212.452915 
L 457.705087 -212.813211 
L 457.792381 -213.173508 
L 457.889044 -213.533804 
L 457.99457 -213.894101 
L 458.108467 -214.254398 
L 458.230259 -214.614694 
L 458.359491 -214.974991 
L 458.495727 -215.335288 
L 458.638553 -215.695584 
L 458.787579 -216.055881 
L 458.942437 -216.416177 
L 459.102782 -216.776474 
L 459.268287 -217.136771 
L 459.438644 -217.497067 
L 459.61356 -217.857364 
L 459.792758 -218.217661 
L 459.975966 -218.577957 
L 460.162923 -218.938254 
L 460.353369 -219.29855 
L 460.547045 -219.658847 
L 460.743692 -220.019144 
L 460.943043 -220.37944 
L 461.144824 -220.739737 
L 461.348752 -221.100034 
L 461.554534 -221.46033 
L 461.761861 -221.820627 
L 461.970413 -222.180923 
L 474.305425 -222.180923 
L 474.305425 -222.180923 
L 474.513977 -221.820627 
L 474.721304 -221.46033 
L 474.927086 -221.100034 
L 475.131014 -220.739737 
L 475.332795 -220.37944 
L 475.532146 -220.019144 
L 475.728793 -219.658847 
L 475.922469 -219.29855 
L 476.112915 -218.938254 
L 476.299872 -218.577957 
L 476.48308 -218.217661 
L 476.662278 -217.857364 
L 476.837194 -217.497067 
L 477.007551 -217.136771 
L 477.173056 -216.776474 
L 477.333401 -216.416177 
L 477.488259 -216.055881 
L 477.637285 -215.695584 
L 477.780111 -215.335288 
L 477.916347 -214.974991 
L 478.045579 -214.614694 
L 478.167371 -214.254398 
L 478.281268 -213.894101 
L 478.386794 -213.533804 
L 478.483457 -213.173508 
L 478.570751 -212.813211 
L 478.648165 -212.452915 
L 478.715181 -212.092618 
L 478.771287 -211.732321 
L 478.815978 -211.372025 
L 478.848766 -211.011728 
L 478.869184 -210.651431 
L 478.876799 -210.291135 
L 478.871214 -209.930838 
L 478.852078 -209.570542 
L 478.819096 -209.210245 
L 478.772033 -208.849948 
L 478.71072 -208.489652 
L 478.635064 -208.129355 
L 478.545052 -207.769058 
L 478.440755 -207.408762 
L 478.322332 -207.048465 
L 478.190035 -206.688169 
L 478.044205 -206.327872 
L 477.885281 -205.967575 
L 477.713793 -205.607279 
L 477.530359 -205.246982 
L 477.33569 -204.886685 
L 477.130575 -204.526389 
L 476.915883 -204.166092 
L 476.692556 -203.805796 
L 476.461596 -203.445499 
L 476.224061 -203.085202 
L 475.981056 -202.724906 
L 475.733719 -202.364609 
L 475.483216 -202.004312 
L 475.230724 -201.644016 
L 474.977425 -201.283719 
L 474.724492 -200.923423 
L 474.473078 -200.563126 
L 474.224308 -200.202829 
L 473.979264 -199.842533 
L 473.738978 -199.482236 
L 473.504425 -199.121939 
L 473.276507 -198.761643 
L 473.056053 -198.401346 
L 472.84381 -198.04105 
L 472.640436 -197.680753 
L 472.446495 -197.320456 
L 472.262457 -196.96016 
L 472.088692 -196.599863 
L 471.925473 -196.239566 
L 471.772971 -195.87927 
L 471.63126 -195.518973 
L 471.500317 -195.158677 
L 471.380028 -194.79838 
L 471.270188 -194.438083 
L 471.170511 -194.077787 
L 471.080631 -193.71749 
L 471.000112 -193.357193 
L 470.928454 -192.996897 
L 470.865099 -192.6366 
L 470.809442 -192.276304 
L 470.760837 -191.916007 
L 470.718609 -191.55571 
L 470.682056 -191.195414 
L 470.650463 -190.835117 
L 470.623109 -190.47482 
L 470.599276 -190.114524 
L 470.578254 -189.754227 
L 470.55935 -189.393931 
L 470.541896 -189.033634 
L 470.525255 -188.673337 
L 470.508824 -188.313041 
L 470.492044 -187.952744 
L 470.474399 -187.592447 
L 470.455425 -187.232151 
L 470.434708 -186.871854 
L 470.411891 -186.511558 
z
" style="stroke: #999999; stroke-width: 2"/>
    </defs>
    <g clip-path="url(#p0d804ab6e7)">
     <use xlink:href="#m24ce873246" x="0" y="255.11811" style="fill: #ffffff; stroke: #999999; stroke-width: 2"/>
    </g>
   </g>
   <g id="PathCollection_1"/>
   <g id="PathCollection_2"/>
   <g id="patch_3">
    <path d="M 47.22 213.89811 
L 47.22 24.32 
" style="fill: none; stroke: #262626; stroke-width: 1.25; stroke-linejoin: miter; stroke-linecap: square"/>
   </g>
   <g id="patch_4">
    <path d="M 47.22 213.89811 
L 500.51622 213.89811 
" style="fill: none; stroke: #262626; stroke-width: 1.25; stroke-linejoin: miter; stroke-linecap: square"/>
   </g>
   <g id="PathCollection_3">
    <defs>
     <path id="C0_0_ac993c806c" d="M 0 2.5 
C 0.663008 2.5 1.29895 2.236584 1.767767 1.767767 
C 2.236584 1.29895 2.5 0.663008 2.5 -0 
C 2.5 -0.663008 2.236584 -1.29895 1.767767 -1.767767 
C 1.29895 -2.236584 0.663008 -2.5 0 -2.5 
C -0.663008 -2.5 -1.29895 -2.236584 -1.767767 -1.767767 
C -2.236584 -1.29895 -2.5 -0.663008 -2.5 0 
C -2.5 0.663008 -2.236584 1.29895 -1.767767 1.767767 
C -1.29895 2.236584 -0.663008 2.5 0 2.5 
z
"/>
    </defs>
    <g clip-path="url(#p0d804ab6e7)">
     <use xlink:href="#C0_0_ac993c806c" x="74.955828" y="138.742001" style="fill: #4c72b0; fill-opacity: 0.75"/>
    </g>
    <g clip-path="url(#p0d804ab6e7)">
     <use xlink:href="#C0_0_ac993c806c" x="79.998832" y="138.930379" style="fill: #4c72b0; fill-opacity: 0.75"/>
    </g>
    <g clip-path="url(#p0d804ab6e7)">
     <use xlink:href="#C0_0_ac993c806c" x="75.741399" y="129.685498" style="fill: #4c72b0; fill-opacity: 0.75"/>
    </g>
    <g clip-path="url(#p0d804ab6e7)">
     <use xlink:href="#C0_0_ac993c806c" x="75.345898" y="132.320383" style="fill: #4c72b0; fill-opacity: 0.75"/>
    </g>
    <g clip-path="url(#p0d804ab6e7)">
     <use xlink:href="#C0_0_ac993c806c" x="84.817324" y="132.485189" style="fill: #dd8452; fill-opacity: 0.75"/>
    </g>
    <g clip-path="url(#p0d804ab6e7)">
     <use xlink:href="#C0_0_ac993c806c" x="77.367711" y="129.413075" style="fill: #dd8452; fill-opacity: 0.75"/>
    </g>
    <g clip-path="url(#p0d804ab6e7)">
     <use xlink:href="#C0_0_ac993c806c" x="76.322996" y="124.954516" style="fill: #dd8452; fill-opacity: 0.75"/>
    </g>
    <g clip-path="url(#p0d804ab6e7)">
     <use xlink:href="#C0_0_ac993c806c" x="82.187848" y="132.550734" style="fill: #dd8452; fill-opacity: 0.75"/>
    </g>
   </g>
   <g id="PathCollection_4">
    <defs>
     <path id="C1_0_cb5c6169cb" d="M 0 2.5 
C 0.663008 2.5 1.29895 2.236584 1.767767 1.767767 
C 2.236584 1.29895 2.5 0.663008 2.5 -0 
C 2.5 -0.663008 2.236584 -1.29895 1.767767 -1.767767 
C 1.29895 -2.236584 0.663008 -2.5 0 -2.5 
C -0.663008 -2.5 -1.29895 -2.236584 -1.767767 -1.767767 
C -2.236584 -1.29895 -2.5 -0.663008 -2.5 0 
C -2.5 0.663008 -2.236584 1.29895 -1.767767 1.767767 
C -1.29895 2.236584 -0.663008 2.5 0 2.5 
z
"/>
    </defs>
    <g clip-path="url(#p0d804ab6e7)">
     <use xlink:href="#C1_0_cb5c6169cb" x="149.180742" y="177.645441" style="fill: #4c72b0; fill-opacity: 0.75"/>
    </g>
    <g clip-path="url(#p0d804ab6e7)">
     <use xlink:href="#C1_0_cb5c6169cb" x="139.085802" y="181.500602" style="fill: #4c72b0; fill-opacity: 0.75"/>
    </g>
    <g clip-path="url(#p0d804ab6e7)">
     <use xlink:href="#C1_0_cb5c6169cb" x="149.028899" y="154.895141" style="fill: #4c72b0; fill-opacity: 0.75"/>
    </g>
    <g clip-path="url(#p0d804ab6e7)">
     <use xlink:href="#C1_0_cb5c6169cb" x="149.450499" y="155.90806" style="fill: #4c72b0; fill-opacity: 0.75"/>
    </g>
    <g clip-path="url(#p0d804ab6e7)">
     <use xlink:href="#C1_0_cb5c6169cb" x="146.806224" y="174.57968" style="fill: #dd8452; fill-opacity: 0.75"/>
    </g>
    <g clip-path="url(#p0d804ab6e7)">
     <use xlink:href="#C1_0_cb5c6169cb" x="150.158039" y="170.17461" style="fill: #dd8452; fill-opacity: 0.75"/>
    </g>
    <g clip-path="url(#p0d804ab6e7)">
     <use xlink:href="#C1_0_cb5c6169cb" x="141.870529" y="169.098438" style="fill: #dd8452; fill-opacity: 0.75"/>
    </g>
    <g clip-path="url(#p0d804ab6e7)">
     <use xlink:href="#C1_0_cb5c6169cb" x="146.15371" y="176.641842" style="fill: #dd8452; fill-opacity: 0.75"/>
    </g>
   </g>
   <g id="PathCollection_5">
    <defs>
     <path id="C2_0_c60377399f" d="M 0 2.5 
C 0.663008 2.5 1.29895 2.236584 1.767767 1.767767 
C 2.236584 1.29895 2.5 0.663008 2.5 -0 
C 2.5 -0.663008 2.236584 -1.29895 1.767767 -1.767767 
C 1.29895 -2.236584 0.663008 -2.5 0 -2.5 
C -0.663008 -2.5 -1.29895 -2.236584 -1.767767 -1.767767 
C -2.236584 -1.29895 -2.5 -0.663008 -2.5 0 
C -2.5 0.663008 -2.236584 1.29895 -1.767767 1.767767 
C -1.29895 2.236584 -0.663008 2.5 0 2.5 
z
"/>
    </defs>
    <g clip-path="url(#p0d804ab6e7)">
     <use xlink:href="#C2_0_c60377399f" x="205.761389" y="140.752519" style="fill: #4c72b0; fill-opacity: 0.75"/>
    </g>
    <g clip-path="url(#p0d804ab6e7)">
     <use xlink:href="#C2_0_c60377399f" x="206.245542" y="155.536876" style="fill: #4c72b0; fill-opacity: 0.75"/>
    </g>
    <g clip-path="url(#p0d804ab6e7)">
     <use xlink:href="#C2_0_c60377399f" x="203.827694" y="163.311104" style="fill: #4c72b0; fill-opacity: 0.75"/>
    </g>
    <g clip-path="url(#p0d804ab6e7)">
     <use xlink:href="#C2_0_c60377399f" x="209.592685" y="116.553365" style="fill: #4c72b0; fill-opacity: 0.75"/>
    </g>
    <g clip-path="url(#p0d804ab6e7)">
     <use xlink:href="#C2_0_c60377399f" x="203.724819" y="160.13569" style="fill: #dd8452; fill-opacity: 0.75"/>
    </g>
    <g clip-path="url(#p0d804ab6e7)">
     <use xlink:href="#C2_0_c60377399f" x="206.1241" y="151.702652" style="fill: #dd8452; fill-opacity: 0.75"/>
    </g>
    <g clip-path="url(#p0d804ab6e7)">
     <use xlink:href="#C2_0_c60377399f" x="214.124828" y="163.557289" style="fill: #dd8452; fill-opacity: 0.75"/>
    </g>
    <g clip-path="url(#p0d804ab6e7)">
     <use xlink:href="#C2_0_c60377399f" x="213.649164" y="162.724337" style="fill: #dd8452; fill-opacity: 0.75"/>
    </g>
   </g>
   <g id="PathCollection_6">
    <defs>
     <path id="C3_0_ca9d2a14c0" d="M 0 2.5 
C 0.663008 2.5 1.29895 2.236584 1.767767 1.767767 
C 2.236584 1.29895 2.5 0.663008 2.5 -0 
C 2.5 -0.663008 2.236584 -1.29895 1.767767 -1.767767 
C 1.29895 -2.236584 0.663008 -2.5 0 -2.5 
C -0.663008 -2.5 -1.29895 -2.236584 -1.767767 -1.767767 
C -2.236584 -1.29895 -2.5 -0.663008 -2.5 0 
C -2.5 0.663008 -2.236584 1.29895 -1.767767 1.767767 
C -1.29895 2.236584 -0.663008 2.5 0 2.5 
z
"/>
    </defs>
    <g clip-path="url(#p0d804ab6e7)">
     <use xlink:href="#C3_0_ca9d2a14c0" x="271.879431" y="198.801762" style="fill: #4c72b0; fill-opacity: 0.75"/>
    </g>
    <g clip-path="url(#p0d804ab6e7)">
     <use xlink:href="#C3_0_ca9d2a14c0" x="279.682452" y="194.531567" style="fill: #4c72b0; fill-opacity: 0.75"/>
    </g>
    <g clip-path="url(#p0d804ab6e7)">
     <use xlink:href="#C3_0_ca9d2a14c0" x="279.299179" y="198.027656" style="fill: #4c72b0; fill-opacity: 0.75"/>
    </g>
    <g clip-path="url(#p0d804ab6e7)">
     <use xlink:href="#C3_0_ca9d2a14c0" x="276.942977" y="198.396484" style="fill: #4c72b0; fill-opacity: 0.75"/>
    </g>
    <g clip-path="url(#p0d804ab6e7)">
     <use xlink:href="#C3_0_ca9d2a14c0" x="280.333959" y="196.717419" style="fill: #4c72b0; fill-opacity: 0.75"/>
    </g>
    <g clip-path="url(#p0d804ab6e7)">
     <use xlink:href="#C3_0_ca9d2a14c0" x="275.494284" y="205.010742" style="fill: #dd8452; fill-opacity: 0.75"/>
    </g>
    <g clip-path="url(#p0d804ab6e7)">
     <use xlink:href="#C3_0_ca9d2a14c0" x="275.869058" y="205.280923" style="fill: #dd8452; fill-opacity: 0.75"/>
    </g>
    <g clip-path="url(#p0d804ab6e7)">
     <use xlink:href="#C3_0_ca9d2a14c0" x="277.455709" y="204.800269" style="fill: #dd8452; fill-opacity: 0.75"/>
    </g>
    <g clip-path="url(#p0d804ab6e7)">
     <use xlink:href="#C3_0_ca9d2a14c0" x="278.181866" y="199.002666" style="fill: #dd8452; fill-opacity: 0.75"/>
    </g>
    <g clip-path="url(#p0d804ab6e7)">
     <use xlink:href="#C3_0_ca9d2a14c0" x="279.702832" y="203.315264" style="fill: #dd8452; fill-opacity: 0.75"/>
    </g>
   </g>
   <g id="PathCollection_7">
    <defs>
     <path id="C4_0_f8528147ab" d="M 0 2.5 
C 0.663008 2.5 1.29895 2.236584 1.767767 1.767767 
C 2.236584 1.29895 2.5 0.663008 2.5 -0 
C 2.5 -0.663008 2.236584 -1.29895 1.767767 -1.767767 
C 1.29895 -2.236584 0.663008 -2.5 0 -2.5 
C -0.663008 -2.5 -1.29895 -2.236584 -1.767767 -1.767767 
C -2.236584 -1.29895 -2.5 -0.663008 -2.5 0 
C -2.5 0.663008 -2.236584 1.29895 -1.767767 1.767767 
C -1.29895 2.236584 -0.663008 2.5 0 2.5 
z
"/>
    </defs>
    <g clip-path="url(#p0d804ab6e7)">
     <use xlink:href="#C4_0_f8528147ab" x="333.036777" y="55.192956" style="fill: #4c72b0; fill-opacity: 0.75"/>
    </g>
    <g clip-path="url(#p0d804ab6e7)">
     <use xlink:href="#C4_0_f8528147ab" x="334.277128" y="86.34492" style="fill: #4c72b0; fill-opacity: 0.75"/>
    </g>
    <g clip-path="url(#p0d804ab6e7)">
     <use xlink:href="#C4_0_f8528147ab" x="332.271341" y="78.072291" style="fill: #4c72b0; fill-opacity: 0.75"/>
    </g>
    <g clip-path="url(#p0d804ab6e7)">
     <use xlink:href="#C4_0_f8528147ab" x="335.473283" y="91.066189" style="fill: #dd8452; fill-opacity: 0.75"/>
    </g>
    <g clip-path="url(#p0d804ab6e7)">
     <use xlink:href="#C4_0_f8528147ab" x="335.408042" y="80.93059" style="fill: #dd8452; fill-opacity: 0.75"/>
    </g>
    <g clip-path="url(#p0d804ab6e7)">
     <use xlink:href="#C4_0_f8528147ab" x="336.16633" y="97.343997" style="fill: #dd8452; fill-opacity: 0.75"/>
    </g>
   </g>
   <g id="PathCollection_8">
    <defs>
     <path id="C5_0_fe4ef68905" d="M 0 2.5 
C 0.663008 2.5 1.29895 2.236584 1.767767 1.767767 
C 2.236584 1.29895 2.5 0.663008 2.5 -0 
C 2.5 -0.663008 2.236584 -1.29895 1.767767 -1.767767 
C 1.29895 -2.236584 0.663008 -2.5 0 -2.5 
C -0.663008 -2.5 -1.29895 -2.236584 -1.767767 -1.767767 
C -2.236584 -1.29895 -2.5 -0.663008 -2.5 0 
C -2.5 0.663008 -2.236584 1.29895 -1.767767 1.767767 
C -1.29895 2.236584 -0.663008 2.5 0 2.5 
z
"/>
    </defs>
    <g clip-path="url(#p0d804ab6e7)">
     <use xlink:href="#C5_0_fe4ef68905" x="407.740317" y="157.149319" style="fill: #4c72b0; fill-opacity: 0.75"/>
    </g>
    <g clip-path="url(#p0d804ab6e7)">
     <use xlink:href="#C5_0_fe4ef68905" x="405.229248" y="151.463885" style="fill: #4c72b0; fill-opacity: 0.75"/>
    </g>
    <g clip-path="url(#p0d804ab6e7)">
     <use xlink:href="#C5_0_fe4ef68905" x="396.908523" y="153.088214" style="fill: #4c72b0; fill-opacity: 0.75"/>
    </g>
    <g clip-path="url(#p0d804ab6e7)">
     <use xlink:href="#C5_0_fe4ef68905" x="399.940999" y="145.818382" style="fill: #4c72b0; fill-opacity: 0.75"/>
    </g>
    <g clip-path="url(#p0d804ab6e7)">
     <use xlink:href="#C5_0_fe4ef68905" x="408.254714" y="177.851792" style="fill: #dd8452; fill-opacity: 0.75"/>
    </g>
    <g clip-path="url(#p0d804ab6e7)">
     <use xlink:href="#C5_0_fe4ef68905" x="397.817593" y="179.181891" style="fill: #dd8452; fill-opacity: 0.75"/>
    </g>
    <g clip-path="url(#p0d804ab6e7)">
     <use xlink:href="#C5_0_fe4ef68905" x="399.416183" y="178.484189" style="fill: #dd8452; fill-opacity: 0.75"/>
    </g>
    <g clip-path="url(#p0d804ab6e7)">
     <use xlink:href="#C5_0_fe4ef68905" x="400.5996" y="177.590995" style="fill: #dd8452; fill-opacity: 0.75"/>
    </g>
   </g>
   <g id="PathCollection_9">
    <defs>
     <path id="C6_0_34f0c4f90e" d="M 0 2.5 
C 0.663008 2.5 1.29895 2.236584 1.767767 1.767767 
C 2.236584 1.29895 2.5 0.663008 2.5 -0 
C 2.5 -0.663008 2.236584 -1.29895 1.767767 -1.767767 
C 1.29895 -2.236584 0.663008 -2.5 0 -2.5 
C -0.663008 -2.5 -1.29895 -2.236584 -1.767767 -1.767767 
C -2.236584 -1.29895 -2.5 -0.663008 -2.5 0 
C -2.5 0.663008 -2.236584 1.29895 -1.767767 1.767767 
C -1.29895 2.236584 -0.663008 2.5 0 2.5 
z
"/>
    </defs>
    <g clip-path="url(#p0d804ab6e7)">
     <use xlink:href="#C6_0_34f0c4f90e" x="471.185713" y="68.606553" style="fill: #4c72b0; fill-opacity: 0.75"/>
    </g>
    <g clip-path="url(#p0d804ab6e7)">
     <use xlink:href="#C6_0_34f0c4f90e" x="467.403977" y="48.730412" style="fill: #4c72b0; fill-opacity: 0.75"/>
    </g>
    <g clip-path="url(#p0d804ab6e7)">
     <use xlink:href="#C6_0_34f0c4f90e" x="469.990068" y="36.331998" style="fill: #4c72b0; fill-opacity: 0.75"/>
    </g>
    <g clip-path="url(#p0d804ab6e7)">
     <use xlink:href="#C6_0_34f0c4f90e" x="463.187846" y="49.338989" style="fill: #4c72b0; fill-opacity: 0.75"/>
    </g>
    <g clip-path="url(#p0d804ab6e7)">
     <use xlink:href="#C6_0_34f0c4f90e" x="471.584755" y="49.49275" style="fill: #dd8452; fill-opacity: 0.75"/>
    </g>
    <g clip-path="url(#p0d804ab6e7)">
     <use xlink:href="#C6_0_34f0c4f90e" x="468.086635" y="32.937187" style="fill: #dd8452; fill-opacity: 0.75"/>
    </g>
    <g clip-path="url(#p0d804ab6e7)">
     <use xlink:href="#C6_0_34f0c4f90e" x="469.687329" y="44.56095" style="fill: #dd8452; fill-opacity: 0.75"/>
    </g>
    <g clip-path="url(#p0d804ab6e7)">
     <use xlink:href="#C6_0_34f0c4f90e" x="473.881656" y="40.951144" style="fill: #dd8452; fill-opacity: 0.75"/>
    </g>
   </g>
   <g id="text_16">
    <!-- LAMC2, $p_{adj}$ &lt; .001 *** -->
    <g style="fill: #262626" transform="translate(47.22 18.32)scale(0.09 -0.09)">
     <defs>
      <path id="ArialMT-4c" d="M 469 0 
L 469 4581 
L 1075 4581 
L 1075 541 
L 3331 541 
L 3331 0 
L 469 0 
z
" transform="scale(0.015625)"/>
      <path id="ArialMT-41" d="M -9 0 
L 1750 4581 
L 2403 4581 
L 4278 0 
L 3588 0 
L 3053 1388 
L 1138 1388 
L 634 0 
L -9 0 
z
M 1313 1881 
L 2866 1881 
L 2388 3150 
Q 2169 3728 2063 4100 
Q 1975 3659 1816 3225 
L 1313 1881 
z
" transform="scale(0.015625)"/>
      <path id="ArialMT-43" d="M 3763 1606 
L 4369 1453 
Q 4178 706 3683 314 
Q 3188 -78 2472 -78 
Q 1731 -78 1267 223 
Q 803 525 561 1097 
Q 319 1669 319 2325 
Q 319 3041 592 3573 
Q 866 4106 1370 4382 
Q 1875 4659 2481 4659 
Q 3169 4659 3637 4309 
Q 4106 3959 4291 3325 
L 3694 3184 
Q 3534 3684 3231 3912 
Q 2928 4141 2469 4141 
Q 1941 4141 1586 3887 
Q 1231 3634 1087 3207 
Q 944 2781 944 2328 
Q 944 1744 1114 1308 
Q 1284 872 1643 656 
Q 2003 441 2422 441 
Q 2931 441 3284 734 
Q 3638 1028 3763 1606 
z
" transform="scale(0.015625)"/>
      <path id="ArialMT-2c" d="M 569 0 
L 569 641 
L 1209 641 
L 1209 0 
Q 1209 -353 1084 -570 
Q 959 -788 688 -906 
L 531 -666 
Q 709 -588 793 -436 
Q 878 -284 888 0 
L 569 0 
z
" transform="scale(0.015625)"/>
      <path id="DejaVuSans-Oblique-70" d="M 3175 2156 
Q 3175 2616 2975 2859 
Q 2775 3103 2400 3103 
Q 2144 3103 1911 2972 
Q 1678 2841 1497 2591 
Q 1319 2344 1212 1994 
Q 1106 1644 1106 1300 
Q 1106 863 1306 627 
Q 1506 391 1875 391 
Q 2147 391 2380 519 
Q 2613 647 2778 891 
Q 2956 1147 3065 1494 
Q 3175 1841 3175 2156 
z
M 1394 2969 
Q 1625 3272 1939 3428 
Q 2253 3584 2638 3584 
Q 3175 3584 3472 3232 
Q 3769 2881 3769 2247 
Q 3769 1728 3584 1258 
Q 3400 788 3053 416 
Q 2822 169 2531 39 
Q 2241 -91 1919 -91 
Q 1547 -91 1294 64 
Q 1041 219 916 525 
L 556 -1331 
L -19 -1331 
L 922 3500 
L 1497 3500 
L 1394 2969 
z
" transform="scale(0.015625)"/>
      <path id="DejaVuSans-Oblique-61" d="M 3438 1997 
L 3047 0 
L 2472 0 
L 2578 531 
Q 2325 219 2001 64 
Q 1678 -91 1281 -91 
Q 834 -91 548 182 
Q 263 456 263 884 
Q 263 1497 752 1853 
Q 1241 2209 2100 2209 
L 2900 2209 
L 2931 2363 
Q 2938 2388 2941 2417 
Q 2944 2447 2944 2509 
Q 2944 2788 2717 2942 
Q 2491 3097 2081 3097 
Q 1800 3097 1504 3025 
Q 1209 2953 897 2809 
L 997 3341 
Q 1322 3463 1633 3523 
Q 1944 3584 2234 3584 
Q 2853 3584 3176 3315 
Q 3500 3047 3500 2534 
Q 3500 2431 3484 2292 
Q 3469 2153 3438 1997 
z
M 2816 1759 
L 2241 1759 
Q 1534 1759 1195 1570 
Q 856 1381 856 984 
Q 856 709 1029 553 
Q 1203 397 1509 397 
Q 1978 397 2328 733 
Q 2678 1069 2791 1631 
L 2816 1759 
z
" transform="scale(0.015625)"/>
      <path id="DejaVuSans-Oblique-64" d="M 2675 525 
Q 2444 222 2128 65 
Q 1813 -91 1428 -91 
Q 903 -91 598 267 
Q 294 625 294 1247 
Q 294 1766 478 2236 
Q 663 2706 1013 3078 
Q 1244 3325 1534 3454 
Q 1825 3584 2144 3584 
Q 2481 3584 2739 3421 
Q 2997 3259 3138 2956 
L 3513 4863 
L 4091 4863 
L 3144 0 
L 2566 0 
L 2675 525 
z
M 891 1350 
Q 891 897 1095 644 
Q 1300 391 1663 391 
Q 1931 391 2161 520 
Q 2391 650 2566 903 
Q 2750 1166 2856 1509 
Q 2963 1853 2963 2188 
Q 2963 2622 2758 2865 
Q 2553 3109 2194 3109 
Q 1922 3109 1687 2981 
Q 1453 2853 1288 2613 
Q 1106 2353 998 2009 
Q 891 1666 891 1350 
z
" transform="scale(0.015625)"/>
      <path id="DejaVuSans-Oblique-6a" d="M 928 3500 
L 1503 3500 
L 813 -63 
L 809 -78 
Q 694 -675 544 -897 
Q 403 -1106 132 -1218 
Q -138 -1331 -506 -1331 
L -722 -1331 
L -628 -844 
L -481 -844 
Q -144 -844 -1 -703 
Q 141 -563 238 -63 
L 928 3500 
z
M 1197 4863 
L 1772 4863 
L 1631 4134 
L 1056 4134 
L 1197 4863 
z
" transform="scale(0.015625)"/>
      <path id="ArialMT-3c" d="M 350 2003 
L 350 2528 
L 3384 3809 
L 3384 3250 
L 978 2263 
L 3384 1266 
L 3384 706 
L 350 2003 
z
" transform="scale(0.015625)"/>
      <path id="ArialMT-2e" d="M 581 0 
L 581 641 
L 1222 641 
L 1222 0 
L 581 0 
z
" transform="scale(0.015625)"/>
      <path id="ArialMT-2a" d="M 200 3741 
L 344 4184 
Q 841 4009 1066 3881 
Q 1006 4447 1003 4659 
L 1456 4659 
Q 1447 4350 1384 3884 
Q 1706 4047 2122 4184 
L 2266 3741 
Q 1869 3609 1488 3566 
Q 1678 3400 2025 2975 
L 1650 2709 
Q 1469 2956 1222 3381 
Q 991 2941 816 2709 
L 447 2975 
Q 809 3422 966 3566 
Q 563 3644 200 3741 
z
" transform="scale(0.015625)"/>
     </defs>
     <use xlink:href="#ArialMT-4c" transform="translate(0 0.203125)"/>
     <use xlink:href="#ArialMT-41" transform="translate(55.615234 0.203125)"/>
     <use xlink:href="#ArialMT-4d" transform="translate(122.314453 0.203125)"/>
     <use xlink:href="#ArialMT-43" transform="translate(205.615234 0.203125)"/>
     <use xlink:href="#ArialMT-32" transform="translate(277.832031 0.203125)"/>
     <use xlink:href="#ArialMT-2c" transform="translate(333.447266 0.203125)"/>
     <use xlink:href="#ArialMT-20" transform="translate(361.230469 0.203125)"/>
     <use xlink:href="#DejaVuSans-Oblique-70" transform="translate(389.013672 0.203125)"/>
     <use xlink:href="#DejaVuSans-Oblique-61" transform="translate(452.490234 -16.203125)scale(0.7)"/>
     <use xlink:href="#DejaVuSans-Oblique-64" transform="translate(495.385742 -16.203125)scale(0.7)"/>
     <use xlink:href="#DejaVuSans-Oblique-6a" transform="translate(539.819336 -16.203125)scale(0.7)"/>
     <use xlink:href="#ArialMT-20" transform="translate(562.001953 0.203125)"/>
     <use xlink:href="#ArialMT-3c" transform="translate(589.785156 0.203125)"/>
     <use xlink:href="#ArialMT-20" transform="translate(648.183594 0.203125)"/>
     <use xlink:href="#ArialMT-2e" transform="translate(675.966797 0.203125)"/>
     <use xlink:href="#ArialMT-30" transform="translate(703.75 0.203125)"/>
     <use xlink:href="#ArialMT-30" transform="translate(759.365234 0.203125)"/>
     <use xlink:href="#ArialMT-31" transform="translate(814.980469 0.203125)"/>
     <use xlink:href="#ArialMT-20" transform="translate(870.595703 0.203125)"/>
     <use xlink:href="#ArialMT-2a" transform="translate(898.378906 0.203125)"/>
     <use xlink:href="#ArialMT-2a" transform="translate(937.294922 0.203125)"/>
     <use xlink:href="#ArialMT-2a" transform="translate(976.210938 0.203125)"/>
    </g>
   </g>
   <g id="legend_1">
    <g id="patch_5">
     <path d="M 53.52 69.712344 
L 105.82125 69.712344 
Q 107.62125 69.712344 107.62125 67.912344 
L 107.62125 30.62 
Q 107.62125 28.82 105.82125 28.82 
L 53.52 28.82 
Q 51.72 28.82 51.72 30.62 
L 51.72 67.912344 
Q 51.72 69.712344 53.52 69.712344 
z
" style="fill: #ffffff; opacity: 0.8; stroke: #cccccc; stroke-linejoin: miter"/>
    </g>
    <g id="text_17">
     <!-- Treatment -->
     <g style="fill: #262626" transform="translate(59.334141 38.862031)scale(0.09 -0.09)">
      <use xlink:href="#ArialMT-54"/>
      <use xlink:href="#ArialMT-72" x="57.333984"/>
      <use xlink:href="#ArialMT-65" x="90.634766"/>
      <use xlink:href="#ArialMT-61" x="146.25"/>
      <use xlink:href="#ArialMT-74" x="201.865234"/>
      <use xlink:href="#ArialMT-6d" x="229.648438"/>
      <use xlink:href="#ArialMT-65" x="312.949219"/>
      <use xlink:href="#ArialMT-6e" x="368.564453"/>
      <use xlink:href="#ArialMT-74" x="424.179688"/>
     </g>
    </g>
    <g id="PathCollection_10">
     <defs>
      <path id="m5a67aada73" d="M 0 3.872983 
C 1.027127 3.872983 2.012324 3.464901 2.738613 2.738613 
C 3.464901 2.012324 3.872983 1.027127 3.872983 0 
C 3.872983 -1.027127 3.464901 -2.012324 2.738613 -2.738613 
C 2.012324 -3.464901 1.027127 -3.872983 0 -3.872983 
C -1.027127 -3.872983 -2.012324 -3.464901 -2.738613 -2.738613 
C -3.464901 -2.012324 -3.872983 -1.027127 -3.872983 0 
C -3.872983 1.027127 -3.464901 2.012324 -2.738613 2.738613 
C -2.012324 3.464901 -1.027127 3.872983 0 3.872983 
z
" style="stroke: #4c72b0"/>
     </defs>
     <g>
      <use xlink:href="#m5a67aada73" x="64.32" y="49.230313" style="fill: #4c72b0; stroke: #4c72b0"/>
     </g>
    </g>
    <g id="text_18">
     <!-- BEVA -->
     <g style="fill: #262626" transform="translate(80.52 51.592813)scale(0.09 -0.09)">
      <defs>
       <path id="ArialMT-42" d="M 469 0 
L 469 4581 
L 2188 4581 
Q 2713 4581 3030 4442 
Q 3347 4303 3526 4014 
Q 3706 3725 3706 3409 
Q 3706 3116 3547 2856 
Q 3388 2597 3066 2438 
Q 3481 2316 3704 2022 
Q 3928 1728 3928 1328 
Q 3928 1006 3792 729 
Q 3656 453 3456 303 
Q 3256 153 2954 76 
Q 2653 0 2216 0 
L 469 0 
z
M 1075 2656 
L 2066 2656 
Q 2469 2656 2644 2709 
Q 2875 2778 2992 2937 
Q 3109 3097 3109 3338 
Q 3109 3566 3000 3739 
Q 2891 3913 2687 3977 
Q 2484 4041 1991 4041 
L 1075 4041 
L 1075 2656 
z
M 1075 541 
L 2216 541 
Q 2509 541 2628 563 
Q 2838 600 2978 687 
Q 3119 775 3209 942 
Q 3300 1109 3300 1328 
Q 3300 1584 3169 1773 
Q 3038 1963 2805 2039 
Q 2572 2116 2134 2116 
L 1075 2116 
L 1075 541 
z
" transform="scale(0.015625)"/>
       <path id="ArialMT-45" d="M 506 0 
L 506 4581 
L 3819 4581 
L 3819 4041 
L 1113 4041 
L 1113 2638 
L 3647 2638 
L 3647 2100 
L 1113 2100 
L 1113 541 
L 3925 541 
L 3925 0 
L 506 0 
z
" transform="scale(0.015625)"/>
       <path id="ArialMT-56" d="M 1803 0 
L 28 4581 
L 684 4581 
L 1875 1253 
Q 2019 853 2116 503 
Q 2222 878 2363 1253 
L 3600 4581 
L 4219 4581 
L 2425 0 
L 1803 0 
z
" transform="scale(0.015625)"/>
      </defs>
      <use xlink:href="#ArialMT-42"/>
      <use xlink:href="#ArialMT-45" x="66.699219"/>
      <use xlink:href="#ArialMT-56" x="133.398438"/>
      <use xlink:href="#ArialMT-41" x="192.722656"/>
     </g>
    </g>
    <g id="PathCollection_11">
     <defs>
      <path id="m6d87779a7e" d="M 0 3.872983 
C 1.027127 3.872983 2.012324 3.464901 2.738613 2.738613 
C 3.464901 2.012324 3.872983 1.027127 3.872983 0 
C 3.872983 -1.027127 3.464901 -2.012324 2.738613 -2.738613 
C 2.012324 -3.464901 1.027127 -3.872983 0 -3.872983 
C -1.027127 -3.872983 -2.012324 -3.464901 -2.738613 -2.738613 
C -3.464901 -2.012324 -3.872983 -1.027127 -3.872983 0 
C -3.872983 1.027127 -3.464901 2.012324 -2.738613 2.738613 
C -2.012324 3.464901 -1.027127 3.872983 0 3.872983 
z
" style="stroke: #dd8452"/>
     </defs>
     <g>
      <use xlink:href="#m6d87779a7e" x="64.32" y="61.961094" style="fill: #dd8452; stroke: #dd8452"/>
     </g>
    </g>
    <g id="text_19">
     <!-- CTRL -->
     <g style="fill: #262626" transform="translate(80.52 64.323594)scale(0.09 -0.09)">
      <defs>
       <path id="ArialMT-52" d="M 503 0 
L 503 4581 
L 2534 4581 
Q 3147 4581 3465 4457 
Q 3784 4334 3975 4021 
Q 4166 3709 4166 3331 
Q 4166 2844 3850 2509 
Q 3534 2175 2875 2084 
Q 3116 1969 3241 1856 
Q 3506 1613 3744 1247 
L 4541 0 
L 3778 0 
L 3172 953 
Q 2906 1366 2734 1584 
Q 2563 1803 2427 1890 
Q 2291 1978 2150 2013 
Q 2047 2034 1813 2034 
L 1109 2034 
L 1109 0 
L 503 0 
z
M 1109 2559 
L 2413 2559 
Q 2828 2559 3062 2645 
Q 3297 2731 3419 2920 
Q 3541 3109 3541 3331 
Q 3541 3656 3305 3865 
Q 3069 4075 2559 4075 
L 1109 4075 
L 1109 2559 
z
" transform="scale(0.015625)"/>
      </defs>
      <use xlink:href="#ArialMT-43"/>
      <use xlink:href="#ArialMT-54" x="72.216797"/>
      <use xlink:href="#ArialMT-52" x="133.300781"/>
      <use xlink:href="#ArialMT-4c" x="205.517578"/>
     </g>
    </g>
   </g>
  </g>
 </g>
 <defs>
  <clipPath id="p0d804ab6e7">
   <rect x="47.22" y="24.32" width="453.29622" height="189.57811"/>
  </clipPath>
 </defs>
</svg>
