<?xml version="1.0" encoding="utf-8" standalone="no"?>
<!DOCTYPE svg PUBLIC "-//W3C//DTD SVG 1.1//EN"
  "http://www.w3.org/Graphics/SVG/1.1/DTD/svg11.dtd">
<svg xmlns:xlink="http://www.w3.org/1999/xlink" width="510.23622pt" height="255.11811pt" viewBox="0 0 510.23622 255.11811" xmlns="http://www.w3.org/2000/svg" version="1.1">
 <metadata>
  <rdf:RDF xmlns:dc="http://purl.org/dc/elements/1.1/" xmlns:cc="http://creativecommons.org/ns#" xmlns:rdf="http://www.w3.org/1999/02/22-rdf-syntax-ns#">
   <cc:Work>
    <dc:type rdf:resource="http://purl.org/dc/dcmitype/StillImage"/>
    <dc:date>2022-04-27T00:18:33.846299</dc:date>
    <dc:format>image/svg+xml</dc:format>
    <dc:creator>
     <cc:Agent>
      <dc:title>Matplotlib v3.5.1, https://matplotlib.org/</dc:title>
     </cc:Agent>
    </dc:creator>
   </cc:Work>
  </rdf:RDF>
 </metadata>
 <defs>
  <style type="text/css">*{stroke-linejoin: round; stroke-linecap: butt}</style>
 </defs>
 <g id="figure_1">
  <g id="patch_1">
   <path d="M 0 255.11811 
L 510.23622 255.11811 
L 510.23622 0 
L 0 0 
z
" style="fill: #ffffff"/>
  </g>
  <g id="axes_1">
   <g id="patch_2">
    <path d="M 52.22 213.89811 
L 500.51622 213.89811 
L 500.51622 24.32 
L 52.22 24.32 
z
" style="fill: #ffffff"/>
   </g>
   <g id="matplotlib.axis_1">
    <g id="xtick_1">
     <g id="text_1">
      <!-- 49 -->
      <g style="fill: #444444" transform="translate(79.236315 229.840141)scale(0.09 -0.09)">
       <defs>
        <path id="ArialMT-34" d="M 2069 0 
L 2069 1097 
L 81 1097 
L 81 1613 
L 2172 4581 
L 2631 4581 
L 2631 1613 
L 3250 1613 
L 3250 1097 
L 2631 1097 
L 2631 0 
L 2069 0 
z
M 2069 1613 
L 2069 3678 
L 634 1613 
L 2069 1613 
z
" transform="scale(0.015625)"/>
        <path id="ArialMT-39" d="M 350 1059 
L 891 1109 
Q 959 728 1153 556 
Q 1347 384 1650 384 
Q 1909 384 2104 503 
Q 2300 622 2425 820 
Q 2550 1019 2634 1356 
Q 2719 1694 2719 2044 
Q 2719 2081 2716 2156 
Q 2547 1888 2255 1720 
Q 1963 1553 1622 1553 
Q 1053 1553 659 1965 
Q 266 2378 266 3053 
Q 266 3750 677 4175 
Q 1088 4600 1706 4600 
Q 2153 4600 2523 4359 
Q 2894 4119 3086 3673 
Q 3278 3228 3278 2384 
Q 3278 1506 3087 986 
Q 2897 466 2520 194 
Q 2144 -78 1638 -78 
Q 1100 -78 759 220 
Q 419 519 350 1059 
z
M 2653 3081 
Q 2653 3566 2395 3850 
Q 2138 4134 1775 4134 
Q 1400 4134 1122 3828 
Q 844 3522 844 3034 
Q 844 2597 1108 2323 
Q 1372 2050 1759 2050 
Q 2150 2050 2401 2323 
Q 2653 2597 2653 3081 
z
" transform="scale(0.015625)"/>
       </defs>
       <use xlink:href="#ArialMT-34"/>
       <use xlink:href="#ArialMT-39" x="55.615234"/>
      </g>
     </g>
    </g>
    <g id="xtick_2">
     <g id="text_2">
      <!-- 17 -->
      <g style="fill: #444444" transform="translate(143.278632 229.840141)scale(0.09 -0.09)">
       <defs>
        <path id="ArialMT-31" d="M 2384 0 
L 1822 0 
L 1822 3584 
Q 1619 3391 1289 3197 
Q 959 3003 697 2906 
L 697 3450 
Q 1169 3672 1522 3987 
Q 1875 4303 2022 4600 
L 2384 4600 
L 2384 0 
z
" transform="scale(0.015625)"/>
        <path id="ArialMT-37" d="M 303 3981 
L 303 4522 
L 3269 4522 
L 3269 4084 
Q 2831 3619 2401 2847 
Q 1972 2075 1738 1259 
Q 1569 684 1522 0 
L 944 0 
Q 953 541 1156 1306 
Q 1359 2072 1739 2783 
Q 2119 3494 2547 3981 
L 303 3981 
z
" transform="scale(0.015625)"/>
       </defs>
       <use xlink:href="#ArialMT-31"/>
       <use xlink:href="#ArialMT-37" x="55.615234"/>
      </g>
     </g>
    </g>
    <g id="xtick_3">
     <g id="text_3">
      <!-- 69 -->
      <g style="fill: #444444" transform="translate(207.320949 229.840141)scale(0.09 -0.09)">
       <defs>
        <path id="ArialMT-36" d="M 3184 3459 
L 2625 3416 
Q 2550 3747 2413 3897 
Q 2184 4138 1850 4138 
Q 1581 4138 1378 3988 
Q 1113 3794 959 3422 
Q 806 3050 800 2363 
Q 1003 2672 1297 2822 
Q 1591 2972 1913 2972 
Q 2475 2972 2870 2558 
Q 3266 2144 3266 1488 
Q 3266 1056 3080 686 
Q 2894 316 2569 119 
Q 2244 -78 1831 -78 
Q 1128 -78 684 439 
Q 241 956 241 2144 
Q 241 3472 731 4075 
Q 1159 4600 1884 4600 
Q 2425 4600 2770 4297 
Q 3116 3994 3184 3459 
z
M 888 1484 
Q 888 1194 1011 928 
Q 1134 663 1356 523 
Q 1578 384 1822 384 
Q 2178 384 2434 671 
Q 2691 959 2691 1453 
Q 2691 1928 2437 2201 
Q 2184 2475 1800 2475 
Q 1419 2475 1153 2201 
Q 888 1928 888 1484 
z
" transform="scale(0.015625)"/>
       </defs>
       <use xlink:href="#ArialMT-36"/>
       <use xlink:href="#ArialMT-39" x="55.615234"/>
      </g>
     </g>
    </g>
    <g id="xtick_4">
     <g id="text_4">
      <!-- 15 -->
      <g style="fill: #444444" transform="translate(271.363266 229.840141)scale(0.09 -0.09)">
       <defs>
        <path id="ArialMT-35" d="M 266 1200 
L 856 1250 
Q 922 819 1161 601 
Q 1400 384 1738 384 
Q 2144 384 2425 690 
Q 2706 997 2706 1503 
Q 2706 1984 2436 2262 
Q 2166 2541 1728 2541 
Q 1456 2541 1237 2417 
Q 1019 2294 894 2097 
L 366 2166 
L 809 4519 
L 3088 4519 
L 3088 3981 
L 1259 3981 
L 1013 2750 
Q 1425 3038 1878 3038 
Q 2478 3038 2890 2622 
Q 3303 2206 3303 1553 
Q 3303 931 2941 478 
Q 2500 -78 1738 -78 
Q 1113 -78 717 272 
Q 322 622 266 1200 
z
" transform="scale(0.015625)"/>
       </defs>
       <use xlink:href="#ArialMT-31"/>
       <use xlink:href="#ArialMT-35" x="55.615234"/>
      </g>
     </g>
    </g>
    <g id="xtick_5">
     <g id="text_5">
      <!-- 5 -->
      <g style="fill: #444444" transform="translate(337.908006 229.840141)scale(0.09 -0.09)">
       <use xlink:href="#ArialMT-35"/>
      </g>
     </g>
    </g>
    <g id="xtick_6">
     <g id="text_6">
      <!-- 126 -->
      <g style="fill: #444444" transform="translate(396.945479 229.840141)scale(0.09 -0.09)">
       <defs>
        <path id="ArialMT-32" d="M 3222 541 
L 3222 0 
L 194 0 
Q 188 203 259 391 
Q 375 700 629 1000 
Q 884 1300 1366 1694 
Q 2113 2306 2375 2664 
Q 2638 3022 2638 3341 
Q 2638 3675 2398 3904 
Q 2159 4134 1775 4134 
Q 1369 4134 1125 3890 
Q 881 3647 878 3216 
L 300 3275 
Q 359 3922 746 4261 
Q 1134 4600 1788 4600 
Q 2447 4600 2831 4234 
Q 3216 3869 3216 3328 
Q 3216 3053 3103 2787 
Q 2991 2522 2730 2228 
Q 2469 1934 1863 1422 
Q 1356 997 1212 845 
Q 1069 694 975 541 
L 3222 541 
z
" transform="scale(0.015625)"/>
       </defs>
       <use xlink:href="#ArialMT-31"/>
       <use xlink:href="#ArialMT-32" x="55.615234"/>
       <use xlink:href="#ArialMT-36" x="111.230469"/>
      </g>
     </g>
    </g>
    <g id="xtick_7">
     <g id="text_7">
      <!-- 62 -->
      <g style="fill: #444444" transform="translate(463.490218 229.840141)scale(0.09 -0.09)">
       <use xlink:href="#ArialMT-36"/>
       <use xlink:href="#ArialMT-32" x="55.615234"/>
      </g>
     </g>
    </g>
    <g id="text_8">
     <!-- Patient -->
     <g style="fill: #444444" transform="translate(262.359048 242.070923)scale(0.09 -0.09)">
      <defs>
       <path id="ArialMT-50" d="M 494 0 
L 494 4581 
L 2222 4581 
Q 2678 4581 2919 4538 
Q 3256 4481 3484 4323 
Q 3713 4166 3852 3881 
Q 3991 3597 3991 3256 
Q 3991 2672 3619 2267 
Q 3247 1863 2275 1863 
L 1100 1863 
L 1100 0 
L 494 0 
z
M 1100 2403 
L 2284 2403 
Q 2872 2403 3119 2622 
Q 3366 2841 3366 3238 
Q 3366 3525 3220 3729 
Q 3075 3934 2838 4000 
Q 2684 4041 2272 4041 
L 1100 4041 
L 1100 2403 
z
" transform="scale(0.015625)"/>
       <path id="ArialMT-61" d="M 2588 409 
Q 2275 144 1986 34 
Q 1697 -75 1366 -75 
Q 819 -75 525 192 
Q 231 459 231 875 
Q 231 1119 342 1320 
Q 453 1522 633 1644 
Q 813 1766 1038 1828 
Q 1203 1872 1538 1913 
Q 2219 1994 2541 2106 
Q 2544 2222 2544 2253 
Q 2544 2597 2384 2738 
Q 2169 2928 1744 2928 
Q 1347 2928 1158 2789 
Q 969 2650 878 2297 
L 328 2372 
Q 403 2725 575 2942 
Q 747 3159 1072 3276 
Q 1397 3394 1825 3394 
Q 2250 3394 2515 3294 
Q 2781 3194 2906 3042 
Q 3031 2891 3081 2659 
Q 3109 2516 3109 2141 
L 3109 1391 
Q 3109 606 3145 398 
Q 3181 191 3288 0 
L 2700 0 
Q 2613 175 2588 409 
z
M 2541 1666 
Q 2234 1541 1622 1453 
Q 1275 1403 1131 1340 
Q 988 1278 909 1158 
Q 831 1038 831 891 
Q 831 666 1001 516 
Q 1172 366 1500 366 
Q 1825 366 2078 508 
Q 2331 650 2450 897 
Q 2541 1088 2541 1459 
L 2541 1666 
z
" transform="scale(0.015625)"/>
       <path id="ArialMT-74" d="M 1650 503 
L 1731 6 
Q 1494 -44 1306 -44 
Q 1000 -44 831 53 
Q 663 150 594 308 
Q 525 466 525 972 
L 525 2881 
L 113 2881 
L 113 3319 
L 525 3319 
L 525 4141 
L 1084 4478 
L 1084 3319 
L 1650 3319 
L 1650 2881 
L 1084 2881 
L 1084 941 
Q 1084 700 1114 631 
Q 1144 563 1211 522 
Q 1278 481 1403 481 
Q 1497 481 1650 503 
z
" transform="scale(0.015625)"/>
       <path id="ArialMT-69" d="M 425 3934 
L 425 4581 
L 988 4581 
L 988 3934 
L 425 3934 
z
M 425 0 
L 425 3319 
L 988 3319 
L 988 0 
L 425 0 
z
" transform="scale(0.015625)"/>
       <path id="ArialMT-65" d="M 2694 1069 
L 3275 997 
Q 3138 488 2766 206 
Q 2394 -75 1816 -75 
Q 1088 -75 661 373 
Q 234 822 234 1631 
Q 234 2469 665 2931 
Q 1097 3394 1784 3394 
Q 2450 3394 2872 2941 
Q 3294 2488 3294 1666 
Q 3294 1616 3291 1516 
L 816 1516 
Q 847 969 1125 678 
Q 1403 388 1819 388 
Q 2128 388 2347 550 
Q 2566 713 2694 1069 
z
M 847 1978 
L 2700 1978 
Q 2663 2397 2488 2606 
Q 2219 2931 1791 2931 
Q 1403 2931 1139 2672 
Q 875 2413 847 1978 
z
" transform="scale(0.015625)"/>
       <path id="ArialMT-6e" d="M 422 0 
L 422 3319 
L 928 3319 
L 928 2847 
Q 1294 3394 1984 3394 
Q 2284 3394 2536 3286 
Q 2788 3178 2913 3003 
Q 3038 2828 3088 2588 
Q 3119 2431 3119 2041 
L 3119 0 
L 2556 0 
L 2556 2019 
Q 2556 2363 2490 2533 
Q 2425 2703 2258 2804 
Q 2091 2906 1866 2906 
Q 1506 2906 1245 2678 
Q 984 2450 984 1813 
L 984 0 
L 422 0 
z
" transform="scale(0.015625)"/>
      </defs>
      <use xlink:href="#ArialMT-50"/>
      <use xlink:href="#ArialMT-61" x="66.699219"/>
      <use xlink:href="#ArialMT-74" x="122.314453"/>
      <use xlink:href="#ArialMT-69" x="150.097656"/>
      <use xlink:href="#ArialMT-65" x="172.314453"/>
      <use xlink:href="#ArialMT-6e" x="227.929688"/>
      <use xlink:href="#ArialMT-74" x="283.544922"/>
     </g>
    </g>
   </g>
   <g id="matplotlib.axis_2">
    <g id="ytick_1">
     <g id="text_9">
      <!-- 0 -->
      <g style="fill: #444444" transform="translate(37.715156 214.923141)scale(0.09 -0.09)">
       <defs>
        <path id="ArialMT-30" d="M 266 2259 
Q 266 3072 433 3567 
Q 600 4063 929 4331 
Q 1259 4600 1759 4600 
Q 2128 4600 2406 4451 
Q 2684 4303 2865 4023 
Q 3047 3744 3150 3342 
Q 3253 2941 3253 2259 
Q 3253 1453 3087 958 
Q 2922 463 2592 192 
Q 2263 -78 1759 -78 
Q 1097 -78 719 397 
Q 266 969 266 2259 
z
M 844 2259 
Q 844 1131 1108 757 
Q 1372 384 1759 384 
Q 2147 384 2411 759 
Q 2675 1134 2675 2259 
Q 2675 3391 2411 3762 
Q 2147 4134 1753 4134 
Q 1366 4134 1134 3806 
Q 844 3388 844 2259 
z
" transform="scale(0.015625)"/>
       </defs>
       <use xlink:href="#ArialMT-30"/>
      </g>
     </g>
    </g>
    <g id="ytick_2">
     <g id="text_10">
      <!-- 250 -->
      <g style="fill: #444444" transform="translate(27.705469 190.630646)scale(0.09 -0.09)">
       <use xlink:href="#ArialMT-32"/>
       <use xlink:href="#ArialMT-35" x="55.615234"/>
       <use xlink:href="#ArialMT-30" x="111.230469"/>
      </g>
     </g>
    </g>
    <g id="ytick_3">
     <g id="text_11">
      <!-- 500 -->
      <g style="fill: #444444" transform="translate(27.705469 166.33815)scale(0.09 -0.09)">
       <use xlink:href="#ArialMT-35"/>
       <use xlink:href="#ArialMT-30" x="55.615234"/>
       <use xlink:href="#ArialMT-30" x="111.230469"/>
      </g>
     </g>
    </g>
    <g id="ytick_4">
     <g id="text_12">
      <!-- 750 -->
      <g style="fill: #444444" transform="translate(27.705469 142.045655)scale(0.09 -0.09)">
       <use xlink:href="#ArialMT-37"/>
       <use xlink:href="#ArialMT-35" x="55.615234"/>
       <use xlink:href="#ArialMT-30" x="111.230469"/>
      </g>
     </g>
    </g>
    <g id="ytick_5">
     <g id="text_13">
      <!-- 1000 -->
      <g style="fill: #444444" transform="translate(22.700625 117.753159)scale(0.09 -0.09)">
       <use xlink:href="#ArialMT-31"/>
       <use xlink:href="#ArialMT-30" x="55.615234"/>
       <use xlink:href="#ArialMT-30" x="111.230469"/>
       <use xlink:href="#ArialMT-30" x="166.845703"/>
      </g>
     </g>
    </g>
    <g id="ytick_6">
     <g id="text_14">
      <!-- 1250 -->
      <g style="fill: #444444" transform="translate(22.700625 93.460664)scale(0.09 -0.09)">
       <use xlink:href="#ArialMT-31"/>
       <use xlink:href="#ArialMT-32" x="55.615234"/>
       <use xlink:href="#ArialMT-35" x="111.230469"/>
       <use xlink:href="#ArialMT-30" x="166.845703"/>
      </g>
     </g>
    </g>
    <g id="ytick_7">
     <g id="text_15">
      <!-- 1500 -->
      <g style="fill: #444444" transform="translate(22.700625 69.168169)scale(0.09 -0.09)">
       <use xlink:href="#ArialMT-31"/>
       <use xlink:href="#ArialMT-35" x="55.615234"/>
       <use xlink:href="#ArialMT-30" x="111.230469"/>
       <use xlink:href="#ArialMT-30" x="166.845703"/>
      </g>
     </g>
    </g>
    <g id="ytick_8">
     <g id="text_16">
      <!-- 1750 -->
      <g style="fill: #444444" transform="translate(22.700625 44.875673)scale(0.09 -0.09)">
       <use xlink:href="#ArialMT-31"/>
       <use xlink:href="#ArialMT-37" x="55.615234"/>
       <use xlink:href="#ArialMT-35" x="111.230469"/>
       <use xlink:href="#ArialMT-30" x="166.845703"/>
      </g>
     </g>
    </g>
    <g id="text_17">
     <!-- Trimmed Means of M values (TMM) -->
     <g style="fill: #444444" transform="translate(16.806406 190.194993)rotate(-90)scale(0.09 -0.09)">
      <defs>
       <path id="ArialMT-54" d="M 1659 0 
L 1659 4041 
L 150 4041 
L 150 4581 
L 3781 4581 
L 3781 4041 
L 2266 4041 
L 2266 0 
L 1659 0 
z
" transform="scale(0.015625)"/>
       <path id="ArialMT-72" d="M 416 0 
L 416 3319 
L 922 3319 
L 922 2816 
Q 1116 3169 1280 3281 
Q 1444 3394 1641 3394 
Q 1925 3394 2219 3213 
L 2025 2691 
Q 1819 2813 1613 2813 
Q 1428 2813 1281 2702 
Q 1134 2591 1072 2394 
Q 978 2094 978 1738 
L 978 0 
L 416 0 
z
" transform="scale(0.015625)"/>
       <path id="ArialMT-6d" d="M 422 0 
L 422 3319 
L 925 3319 
L 925 2853 
Q 1081 3097 1340 3245 
Q 1600 3394 1931 3394 
Q 2300 3394 2536 3241 
Q 2772 3088 2869 2813 
Q 3263 3394 3894 3394 
Q 4388 3394 4653 3120 
Q 4919 2847 4919 2278 
L 4919 0 
L 4359 0 
L 4359 2091 
Q 4359 2428 4304 2576 
Q 4250 2725 4106 2815 
Q 3963 2906 3769 2906 
Q 3419 2906 3187 2673 
Q 2956 2441 2956 1928 
L 2956 0 
L 2394 0 
L 2394 2156 
Q 2394 2531 2256 2718 
Q 2119 2906 1806 2906 
Q 1569 2906 1367 2781 
Q 1166 2656 1075 2415 
Q 984 2175 984 1722 
L 984 0 
L 422 0 
z
" transform="scale(0.015625)"/>
       <path id="ArialMT-64" d="M 2575 0 
L 2575 419 
Q 2259 -75 1647 -75 
Q 1250 -75 917 144 
Q 584 363 401 755 
Q 219 1147 219 1656 
Q 219 2153 384 2558 
Q 550 2963 881 3178 
Q 1213 3394 1622 3394 
Q 1922 3394 2156 3267 
Q 2391 3141 2538 2938 
L 2538 4581 
L 3097 4581 
L 3097 0 
L 2575 0 
z
M 797 1656 
Q 797 1019 1065 703 
Q 1334 388 1700 388 
Q 2069 388 2326 689 
Q 2584 991 2584 1609 
Q 2584 2291 2321 2609 
Q 2059 2928 1675 2928 
Q 1300 2928 1048 2622 
Q 797 2316 797 1656 
z
" transform="scale(0.015625)"/>
       <path id="ArialMT-20" transform="scale(0.015625)"/>
       <path id="ArialMT-4d" d="M 475 0 
L 475 4581 
L 1388 4581 
L 2472 1338 
Q 2622 884 2691 659 
Q 2769 909 2934 1394 
L 4031 4581 
L 4847 4581 
L 4847 0 
L 4263 0 
L 4263 3834 
L 2931 0 
L 2384 0 
L 1059 3900 
L 1059 0 
L 475 0 
z
" transform="scale(0.015625)"/>
       <path id="ArialMT-73" d="M 197 991 
L 753 1078 
Q 800 744 1014 566 
Q 1228 388 1613 388 
Q 2000 388 2187 545 
Q 2375 703 2375 916 
Q 2375 1106 2209 1216 
Q 2094 1291 1634 1406 
Q 1016 1563 777 1677 
Q 538 1791 414 1992 
Q 291 2194 291 2438 
Q 291 2659 392 2848 
Q 494 3038 669 3163 
Q 800 3259 1026 3326 
Q 1253 3394 1513 3394 
Q 1903 3394 2198 3281 
Q 2494 3169 2634 2976 
Q 2775 2784 2828 2463 
L 2278 2388 
Q 2241 2644 2061 2787 
Q 1881 2931 1553 2931 
Q 1166 2931 1000 2803 
Q 834 2675 834 2503 
Q 834 2394 903 2306 
Q 972 2216 1119 2156 
Q 1203 2125 1616 2013 
Q 2213 1853 2448 1751 
Q 2684 1650 2818 1456 
Q 2953 1263 2953 975 
Q 2953 694 2789 445 
Q 2625 197 2315 61 
Q 2006 -75 1616 -75 
Q 969 -75 630 194 
Q 291 463 197 991 
z
" transform="scale(0.015625)"/>
       <path id="ArialMT-6f" d="M 213 1659 
Q 213 2581 725 3025 
Q 1153 3394 1769 3394 
Q 2453 3394 2887 2945 
Q 3322 2497 3322 1706 
Q 3322 1066 3130 698 
Q 2938 331 2570 128 
Q 2203 -75 1769 -75 
Q 1072 -75 642 372 
Q 213 819 213 1659 
z
M 791 1659 
Q 791 1022 1069 705 
Q 1347 388 1769 388 
Q 2188 388 2466 706 
Q 2744 1025 2744 1678 
Q 2744 2294 2464 2611 
Q 2184 2928 1769 2928 
Q 1347 2928 1069 2612 
Q 791 2297 791 1659 
z
" transform="scale(0.015625)"/>
       <path id="ArialMT-66" d="M 556 0 
L 556 2881 
L 59 2881 
L 59 3319 
L 556 3319 
L 556 3672 
Q 556 4006 616 4169 
Q 697 4388 901 4523 
Q 1106 4659 1475 4659 
Q 1713 4659 2000 4603 
L 1916 4113 
Q 1741 4144 1584 4144 
Q 1328 4144 1222 4034 
Q 1116 3925 1116 3625 
L 1116 3319 
L 1763 3319 
L 1763 2881 
L 1116 2881 
L 1116 0 
L 556 0 
z
" transform="scale(0.015625)"/>
       <path id="ArialMT-76" d="M 1344 0 
L 81 3319 
L 675 3319 
L 1388 1331 
Q 1503 1009 1600 663 
Q 1675 925 1809 1294 
L 2547 3319 
L 3125 3319 
L 1869 0 
L 1344 0 
z
" transform="scale(0.015625)"/>
       <path id="ArialMT-6c" d="M 409 0 
L 409 4581 
L 972 4581 
L 972 0 
L 409 0 
z
" transform="scale(0.015625)"/>
       <path id="ArialMT-75" d="M 2597 0 
L 2597 488 
Q 2209 -75 1544 -75 
Q 1250 -75 995 37 
Q 741 150 617 320 
Q 494 491 444 738 
Q 409 903 409 1263 
L 409 3319 
L 972 3319 
L 972 1478 
Q 972 1038 1006 884 
Q 1059 663 1231 536 
Q 1403 409 1656 409 
Q 1909 409 2131 539 
Q 2353 669 2445 892 
Q 2538 1116 2538 1541 
L 2538 3319 
L 3100 3319 
L 3100 0 
L 2597 0 
z
" transform="scale(0.015625)"/>
       <path id="ArialMT-28" d="M 1497 -1347 
Q 1031 -759 709 28 
Q 388 816 388 1659 
Q 388 2403 628 3084 
Q 909 3875 1497 4659 
L 1900 4659 
Q 1522 4009 1400 3731 
Q 1209 3300 1100 2831 
Q 966 2247 966 1656 
Q 966 153 1900 -1347 
L 1497 -1347 
z
" transform="scale(0.015625)"/>
       <path id="ArialMT-29" d="M 791 -1347 
L 388 -1347 
Q 1322 153 1322 1656 
Q 1322 2244 1188 2822 
Q 1081 3291 891 3722 
Q 769 4003 388 4659 
L 791 4659 
Q 1378 3875 1659 3084 
Q 1900 2403 1900 1659 
Q 1900 816 1576 28 
Q 1253 -759 791 -1347 
z
" transform="scale(0.015625)"/>
      </defs>
      <use xlink:href="#ArialMT-54"/>
      <use xlink:href="#ArialMT-72" x="57.333984"/>
      <use xlink:href="#ArialMT-69" x="90.634766"/>
      <use xlink:href="#ArialMT-6d" x="112.851562"/>
      <use xlink:href="#ArialMT-6d" x="196.152344"/>
      <use xlink:href="#ArialMT-65" x="279.453125"/>
      <use xlink:href="#ArialMT-64" x="335.068359"/>
      <use xlink:href="#ArialMT-20" x="390.683594"/>
      <use xlink:href="#ArialMT-4d" x="418.466797"/>
      <use xlink:href="#ArialMT-65" x="501.767578"/>
      <use xlink:href="#ArialMT-61" x="557.382812"/>
      <use xlink:href="#ArialMT-6e" x="612.998047"/>
      <use xlink:href="#ArialMT-73" x="668.613281"/>
      <use xlink:href="#ArialMT-20" x="718.613281"/>
      <use xlink:href="#ArialMT-6f" x="746.396484"/>
      <use xlink:href="#ArialMT-66" x="802.011719"/>
      <use xlink:href="#ArialMT-20" x="829.794922"/>
      <use xlink:href="#ArialMT-4d" x="857.578125"/>
      <use xlink:href="#ArialMT-20" x="940.878906"/>
      <use xlink:href="#ArialMT-76" x="968.662109"/>
      <use xlink:href="#ArialMT-61" x="1018.662109"/>
      <use xlink:href="#ArialMT-6c" x="1074.277344"/>
      <use xlink:href="#ArialMT-75" x="1096.494141"/>
      <use xlink:href="#ArialMT-65" x="1152.109375"/>
      <use xlink:href="#ArialMT-73" x="1207.724609"/>
      <use xlink:href="#ArialMT-20" x="1257.724609"/>
      <use xlink:href="#ArialMT-28" x="1285.507812"/>
      <use xlink:href="#ArialMT-54" x="1318.808594"/>
      <use xlink:href="#ArialMT-4d" x="1379.892578"/>
      <use xlink:href="#ArialMT-4d" x="1463.193359"/>
      <use xlink:href="#ArialMT-29" x="1546.494141"/>
     </g>
    </g>
   </g>
   <g id="PolyCollection_1">
    <defs>
     <path id="md155010694" d="M 89.649085 -135.871153 
L 78.833232 -135.871153 
L 78.737334 -136.414179 
L 78.646263 -136.957205 
L 78.56024 -137.500231 
L 78.479465 -138.043258 
L 78.404115 -138.586284 
L 78.334343 -139.12931 
L 78.270273 -139.672336 
L 78.212006 -140.215362 
L 78.159614 -140.758389 
L 78.11314 -141.301415 
L 78.0726 -141.844441 
L 78.037982 -142.387467 
L 78.009244 -142.930494 
L 77.986318 -143.47352 
L 77.969108 -144.016546 
L 77.957489 -144.559572 
L 77.951313 -145.102599 
L 77.950406 -145.645625 
L 77.954569 -146.188651 
L 77.963583 -146.731677 
L 77.977208 -147.274704 
L 77.995185 -147.81773 
L 78.017236 -148.360756 
L 78.043072 -148.903782 
L 78.072387 -149.446809 
L 78.104868 -149.989835 
L 78.14019 -150.532861 
L 78.178023 -151.075887 
L 78.218033 -151.618913 
L 78.259885 -152.16194 
L 78.303243 -152.704966 
L 78.347774 -153.247992 
L 78.393149 -153.791018 
L 78.439046 -154.334045 
L 78.485154 -154.877071 
L 78.53117 -155.420097 
L 78.576804 -155.963123 
L 78.62178 -156.50615 
L 78.66584 -157.049176 
L 78.70874 -157.592202 
L 78.750256 -158.135228 
L 78.790183 -158.678255 
L 78.828336 -159.221281 
L 78.864553 -159.764307 
L 78.898691 -160.307333 
L 78.930631 -160.85036 
L 78.960276 -161.393386 
L 78.987553 -161.936412 
L 79.012411 -162.479438 
L 79.03482 -163.022464 
L 79.054775 -163.565491 
L 79.072292 -164.108517 
L 79.087407 -164.651543 
L 79.100179 -165.194569 
L 79.110686 -165.737596 
L 79.119024 -166.280622 
L 79.125308 -166.823648 
L 79.129672 -167.366674 
L 79.132263 -167.909701 
L 79.133245 -168.452727 
L 79.132794 -168.995753 
L 79.131098 -169.538779 
L 79.128359 -170.081806 
L 79.124784 -170.624832 
L 79.120592 -171.167858 
L 79.116007 -171.710884 
L 79.111258 -172.25391 
L 79.106578 -172.796937 
L 79.102202 -173.339963 
L 79.098369 -173.882989 
L 79.095312 -174.426015 
L 79.093268 -174.969042 
L 79.092466 -175.512068 
L 79.093133 -176.055094 
L 79.09549 -176.59812 
L 79.099751 -177.141147 
L 79.10612 -177.684173 
L 79.114793 -178.227199 
L 79.125956 -178.770225 
L 79.139782 -179.313252 
L 79.156432 -179.856278 
L 79.176053 -180.399304 
L 79.19878 -180.94233 
L 79.224731 -181.485357 
L 79.254008 -182.028383 
L 79.286699 -182.571409 
L 79.322873 -183.114435 
L 79.362584 -183.657461 
L 79.405867 -184.200488 
L 79.452743 -184.743514 
L 79.50321 -185.28654 
L 79.557255 -185.829566 
L 79.614843 -186.372593 
L 79.675923 -186.915619 
L 79.74043 -187.458645 
L 79.808279 -188.001671 
L 79.879372 -188.544698 
L 79.953596 -189.087724 
L 80.030821 -189.63075 
L 88.451496 -189.63075 
L 88.451496 -189.63075 
L 88.528722 -189.087724 
L 88.602945 -188.544698 
L 88.674038 -188.001671 
L 88.741887 -187.458645 
L 88.806394 -186.915619 
L 88.867475 -186.372593 
L 88.925062 -185.829566 
L 88.979107 -185.28654 
L 89.029575 -184.743514 
L 89.07645 -184.200488 
L 89.119734 -183.657461 
L 89.159444 -183.114435 
L 89.195618 -182.571409 
L 89.228309 -182.028383 
L 89.257586 -181.485357 
L 89.283537 -180.94233 
L 89.306264 -180.399304 
L 89.325885 -179.856278 
L 89.342535 -179.313252 
L 89.356361 -178.770225 
L 89.367524 -178.227199 
L 89.376197 -177.684173 
L 89.382566 -177.141147 
L 89.386827 -176.59812 
L 89.389184 -176.055094 
L 89.389851 -175.512068 
L 89.38905 -174.969042 
L 89.387005 -174.426015 
L 89.383949 -173.882989 
L 89.380115 -173.339963 
L 89.37574 -172.796937 
L 89.37106 -172.25391 
L 89.36631 -171.710884 
L 89.361725 -171.167858 
L 89.357533 -170.624832 
L 89.353958 -170.081806 
L 89.351219 -169.538779 
L 89.349523 -168.995753 
L 89.349072 -168.452727 
L 89.350054 -167.909701 
L 89.352645 -167.366674 
L 89.357009 -166.823648 
L 89.363293 -166.280622 
L 89.371631 -165.737596 
L 89.382138 -165.194569 
L 89.39491 -164.651543 
L 89.410025 -164.108517 
L 89.427542 -163.565491 
L 89.447497 -163.022464 
L 89.469906 -162.479438 
L 89.494764 -161.936412 
L 89.522041 -161.393386 
L 89.551687 -160.85036 
L 89.583627 -160.307333 
L 89.617764 -159.764307 
L 89.653981 -159.221281 
L 89.692134 -158.678255 
L 89.732061 -158.135228 
L 89.773577 -157.592202 
L 89.816477 -157.049176 
L 89.860537 -156.50615 
L 89.905514 -155.963123 
L 89.951148 -155.420097 
L 89.997163 -154.877071 
L 90.043271 -154.334045 
L 90.089169 -153.791018 
L 90.134543 -153.247992 
L 90.179074 -152.704966 
L 90.222432 -152.16194 
L 90.264284 -151.618913 
L 90.304294 -151.075887 
L 90.342128 -150.532861 
L 90.377449 -149.989835 
L 90.40993 -149.446809 
L 90.439245 -148.903782 
L 90.465081 -148.360756 
L 90.487132 -147.81773 
L 90.505109 -147.274704 
L 90.518734 -146.731677 
L 90.527748 -146.188651 
L 90.531912 -145.645625 
L 90.531004 -145.102599 
L 90.524828 -144.559572 
L 90.513209 -144.016546 
L 90.495999 -143.47352 
L 90.473073 -142.930494 
L 90.444336 -142.387467 
L 90.409717 -141.844441 
L 90.369178 -141.301415 
L 90.322704 -140.758389 
L 90.270311 -140.215362 
L 90.212044 -139.672336 
L 90.147974 -139.12931 
L 90.078202 -138.586284 
L 90.002852 -138.043258 
L 89.922078 -137.500231 
L 89.836055 -136.957205 
L 89.744983 -136.414179 
L 89.649085 -135.871153 
z
" style="stroke: #999999; stroke-width: 2"/>
    </defs>
    <g clip-path="url(#pb748a5e731)">
     <use xlink:href="#md155010694" x="0" y="255.11811" style="fill: #ffffff; stroke: #999999; stroke-width: 2"/>
    </g>
   </g>
   <g id="PolyCollection_2">
    <defs>
     <path id="m559f8ceb08" d="M 166.374056 -71.84171 
L 130.192895 -71.84171 
L 129.810303 -71.985876 
L 129.442344 -72.130042 
L 129.089682 -72.274208 
L 128.752886 -72.418374 
L 128.432423 -72.562539 
L 128.128656 -72.706705 
L 127.841842 -72.850871 
L 127.572131 -72.995037 
L 127.31956 -73.139203 
L 127.084059 -73.283368 
L 126.86545 -73.427534 
L 126.663447 -73.5717 
L 126.477662 -73.715866 
L 126.307606 -73.860032 
L 126.152696 -74.004198 
L 126.012259 -74.148363 
L 125.885539 -74.292529 
L 125.771704 -74.436695 
L 125.669855 -74.580861 
L 125.579032 -74.725027 
L 125.498226 -74.869192 
L 125.426387 -75.013358 
L 125.362434 -75.157524 
L 125.305266 -75.30169 
L 125.253771 -75.445856 
L 125.206841 -75.590022 
L 125.163377 -75.734187 
L 125.122305 -75.878353 
L 125.082582 -76.022519 
L 125.043212 -76.166685 
L 125.003251 -76.310851 
L 124.961819 -76.455016 
L 124.918111 -76.599182 
L 124.871402 -76.743348 
L 124.821057 -76.887514 
L 124.766537 -77.03168 
L 124.707407 -77.175845 
L 124.64334 -77.320011 
L 124.57412 -77.464177 
L 124.49965 -77.608343 
L 124.419948 -77.752509 
L 124.335151 -77.896675 
L 124.245515 -78.04084 
L 124.151412 -78.185006 
L 124.053329 -78.329172 
L 123.951864 -78.473338 
L 123.847717 -78.617504 
L 123.741692 -78.761669 
L 123.63468 -78.905835 
L 123.527659 -79.050001 
L 123.421679 -79.194167 
L 123.317855 -79.338333 
L 123.217356 -79.482499 
L 123.121392 -79.626664 
L 123.031204 -79.77083 
L 122.948052 -79.914996 
L 122.8732 -80.059162 
L 122.807906 -80.203328 
L 122.75341 -80.347493 
L 122.710917 -80.491659 
L 122.681594 -80.635825 
L 122.666549 -80.779991 
L 122.666828 -80.924157 
L 122.683402 -81.068323 
L 122.717156 -81.212488 
L 122.768885 -81.356654 
L 122.839285 -81.50082 
L 122.928946 -81.644986 
L 123.038352 -81.789152 
L 123.16787 -81.933317 
L 123.317755 -82.077483 
L 123.488146 -82.221649 
L 123.679066 -82.365815 
L 123.890422 -82.509981 
L 124.122013 -82.654146 
L 124.373527 -82.798312 
L 124.644551 -82.942478 
L 124.934571 -83.086644 
L 125.242985 -83.23081 
L 125.569104 -83.374976 
L 125.912163 -83.519141 
L 126.271327 -83.663307 
L 126.6457 -83.807473 
L 127.034334 -83.951639 
L 127.436239 -84.095805 
L 127.850385 -84.23997 
L 128.27572 -84.384136 
L 128.71117 -84.528302 
L 129.15565 -84.672468 
L 129.608074 -84.816634 
L 130.067356 -84.9608 
L 130.532421 -85.104965 
L 131.002211 -85.249131 
L 131.475687 -85.393297 
L 131.951837 -85.537463 
L 132.429676 -85.681629 
L 132.908255 -85.825794 
L 133.386659 -85.96996 
L 133.864011 -86.114126 
L 162.702941 -86.114126 
L 162.702941 -86.114126 
L 163.180293 -85.96996 
L 163.658697 -85.825794 
L 164.137275 -85.681629 
L 164.615115 -85.537463 
L 165.091264 -85.393297 
L 165.56474 -85.249131 
L 166.03453 -85.104965 
L 166.499596 -84.9608 
L 166.958878 -84.816634 
L 167.411301 -84.672468 
L 167.855782 -84.528302 
L 168.291231 -84.384136 
L 168.716566 -84.23997 
L 169.130713 -84.095805 
L 169.532617 -83.951639 
L 169.921252 -83.807473 
L 170.295625 -83.663307 
L 170.654789 -83.519141 
L 170.997847 -83.374976 
L 171.323966 -83.23081 
L 171.63238 -83.086644 
L 171.922401 -82.942478 
L 172.193424 -82.798312 
L 172.444938 -82.654146 
L 172.676529 -82.509981 
L 172.887886 -82.365815 
L 173.078805 -82.221649 
L 173.249196 -82.077483 
L 173.399082 -81.933317 
L 173.5286 -81.789152 
L 173.638005 -81.644986 
L 173.727667 -81.50082 
L 173.798067 -81.356654 
L 173.849796 -81.212488 
L 173.88355 -81.068323 
L 173.900123 -80.924157 
L 173.900403 -80.779991 
L 173.885358 -80.635825 
L 173.856034 -80.491659 
L 173.813542 -80.347493 
L 173.759045 -80.203328 
L 173.693751 -80.059162 
L 173.6189 -79.914996 
L 173.535747 -79.77083 
L 173.44556 -79.626664 
L 173.349596 -79.482499 
L 173.249097 -79.338333 
L 173.145273 -79.194167 
L 173.039292 -79.050001 
L 172.932271 -78.905835 
L 172.82526 -78.761669 
L 172.719234 -78.617504 
L 172.615088 -78.473338 
L 172.513623 -78.329172 
L 172.41554 -78.185006 
L 172.321437 -78.04084 
L 172.231801 -77.896675 
L 172.147003 -77.752509 
L 172.067301 -77.608343 
L 171.992831 -77.464177 
L 171.923612 -77.320011 
L 171.859545 -77.175845 
L 171.800415 -77.03168 
L 171.745895 -76.887514 
L 171.695549 -76.743348 
L 171.64884 -76.599182 
L 171.605132 -76.455016 
L 171.563701 -76.310851 
L 171.52374 -76.166685 
L 171.48437 -76.022519 
L 171.444647 -75.878353 
L 171.403574 -75.734187 
L 171.36011 -75.590022 
L 171.31318 -75.445856 
L 171.261686 -75.30169 
L 171.204517 -75.157524 
L 171.140564 -75.013358 
L 171.068725 -74.869192 
L 170.98792 -74.725027 
L 170.897097 -74.580861 
L 170.795248 -74.436695 
L 170.681413 -74.292529 
L 170.554692 -74.148363 
L 170.414255 -74.004198 
L 170.259345 -73.860032 
L 170.089289 -73.715866 
L 169.903504 -73.5717 
L 169.701502 -73.427534 
L 169.482893 -73.283368 
L 169.247392 -73.139203 
L 168.994821 -72.995037 
L 168.725109 -72.850871 
L 168.438296 -72.706705 
L 168.134529 -72.562539 
L 167.814066 -72.418374 
L 167.477269 -72.274208 
L 167.124608 -72.130042 
L 166.756649 -71.985876 
L 166.374056 -71.84171 
z
" style="stroke: #999999; stroke-width: 2"/>
    </defs>
    <g clip-path="url(#pb748a5e731)">
     <use xlink:href="#m559f8ceb08" x="0" y="255.11811" style="fill: #ffffff; stroke: #999999; stroke-width: 2"/>
    </g>
   </g>
   <g id="PolyCollection_3">
    <defs>
     <path id="m1626e60808" d="M 214.802213 -66.512514 
L 209.849373 -66.512514 
L 209.771222 -67.311335 
L 209.692851 -68.110155 
L 209.614283 -68.908976 
L 209.535536 -69.707797 
L 209.456624 -70.506618 
L 209.37756 -71.305438 
L 209.298353 -72.104259 
L 209.219015 -72.90308 
L 209.139557 -73.701901 
L 209.059993 -74.500721 
L 208.98034 -75.299542 
L 208.900621 -76.098363 
L 208.820867 -76.897184 
L 208.741115 -77.696004 
L 208.661412 -78.494825 
L 208.581815 -79.293646 
L 208.502392 -80.092466 
L 208.423224 -80.891287 
L 208.344402 -81.690108 
L 208.266033 -82.488929 
L 208.188235 -83.287749 
L 208.111138 -84.08657 
L 208.034886 -84.885391 
L 207.959634 -85.684212 
L 207.885546 -86.483032 
L 207.812799 -87.281853 
L 207.741574 -88.080674 
L 207.672061 -88.879495 
L 207.604454 -89.678315 
L 207.53895 -90.477136 
L 207.475746 -91.275957 
L 207.415036 -92.074778 
L 207.357013 -92.873598 
L 207.301861 -93.672419 
L 207.249758 -94.47124 
L 207.20087 -95.27006 
L 207.155351 -96.068881 
L 207.11334 -96.867702 
L 207.074961 -97.666523 
L 207.040319 -98.465343 
L 207.009501 -99.264164 
L 206.982574 -100.062985 
L 206.959586 -100.861806 
L 206.940562 -101.660626 
L 206.925508 -102.459447 
L 206.914409 -103.258268 
L 206.907231 -104.057089 
L 206.90392 -104.855909 
L 206.904405 -105.65473 
L 206.908599 -106.453551 
L 206.916399 -107.252371 
L 206.927692 -108.051192 
L 206.942351 -108.850013 
L 206.960242 -109.648834 
L 206.981225 -110.447654 
L 207.005154 -111.246475 
L 207.031882 -112.045296 
L 207.061261 -112.844117 
L 207.093146 -113.642937 
L 207.127395 -114.441758 
L 207.163872 -115.240579 
L 207.202448 -116.0394 
L 207.243002 -116.83822 
L 207.285422 -117.637041 
L 207.329608 -118.435862 
L 207.375469 -119.234683 
L 207.422926 -120.033503 
L 207.471913 -120.832324 
L 207.522371 -121.631145 
L 207.574256 -122.429965 
L 207.627532 -123.228786 
L 207.682174 -124.027607 
L 207.738164 -124.826428 
L 207.795491 -125.625248 
L 207.854153 -126.424069 
L 207.914151 -127.22289 
L 207.975489 -128.021711 
L 208.038177 -128.820531 
L 208.102221 -129.619352 
L 208.16763 -130.418173 
L 208.234411 -131.216994 
L 208.302569 -132.015814 
L 208.372102 -132.814635 
L 208.443006 -133.613456 
L 208.51527 -134.412277 
L 208.588876 -135.211097 
L 208.663801 -136.009918 
L 208.74001 -136.808739 
L 208.817464 -137.607559 
L 208.896112 -138.40638 
L 208.975896 -139.205201 
L 209.05675 -140.004022 
L 209.138597 -140.802842 
L 209.221354 -141.601663 
L 209.304928 -142.400484 
L 209.389219 -143.199305 
L 209.47412 -143.998125 
L 209.559517 -144.796946 
L 209.645291 -145.595767 
L 215.006295 -145.595767 
L 215.006295 -145.595767 
L 215.092069 -144.796946 
L 215.177466 -143.998125 
L 215.262367 -143.199305 
L 215.346658 -142.400484 
L 215.430232 -141.601663 
L 215.512989 -140.802842 
L 215.594836 -140.004022 
L 215.67569 -139.205201 
L 215.755474 -138.40638 
L 215.834122 -137.607559 
L 215.911576 -136.808739 
L 215.987785 -136.009918 
L 216.06271 -135.211097 
L 216.136316 -134.412277 
L 216.208581 -133.613456 
L 216.279484 -132.814635 
L 216.349018 -132.015814 
L 216.417175 -131.216994 
L 216.483956 -130.418173 
L 216.549365 -129.619352 
L 216.613409 -128.820531 
L 216.676097 -128.021711 
L 216.737435 -127.22289 
L 216.797433 -126.424069 
L 216.856095 -125.625248 
L 216.913422 -124.826428 
L 216.969412 -124.027607 
L 217.024054 -123.228786 
L 217.07733 -122.429965 
L 217.129215 -121.631145 
L 217.179673 -120.832324 
L 217.22866 -120.033503 
L 217.276117 -119.234683 
L 217.321978 -118.435862 
L 217.366164 -117.637041 
L 217.408584 -116.83822 
L 217.449138 -116.0394 
L 217.487714 -115.240579 
L 217.524191 -114.441758 
L 217.55844 -113.642937 
L 217.590325 -112.844117 
L 217.619704 -112.045296 
L 217.646432 -111.246475 
L 217.670361 -110.447654 
L 217.691344 -109.648834 
L 217.709235 -108.850013 
L 217.723894 -108.051192 
L 217.735187 -107.252371 
L 217.742987 -106.453551 
L 217.747181 -105.65473 
L 217.747666 -104.855909 
L 217.744355 -104.057089 
L 217.737177 -103.258268 
L 217.726078 -102.459447 
L 217.711024 -101.660626 
L 217.692 -100.861806 
L 217.669012 -100.062985 
L 217.642085 -99.264164 
L 217.611267 -98.465343 
L 217.576625 -97.666523 
L 217.538246 -96.867702 
L 217.496235 -96.068881 
L 217.450716 -95.27006 
L 217.401828 -94.47124 
L 217.349725 -93.672419 
L 217.294573 -92.873598 
L 217.23655 -92.074778 
L 217.17584 -91.275957 
L 217.112636 -90.477136 
L 217.047132 -89.678315 
L 216.979525 -88.879495 
L 216.910012 -88.080674 
L 216.838787 -87.281853 
L 216.76604 -86.483032 
L 216.691952 -85.684212 
L 216.6167 -84.885391 
L 216.540448 -84.08657 
L 216.463351 -83.287749 
L 216.385553 -82.488929 
L 216.307184 -81.690108 
L 216.228362 -80.891287 
L 216.149194 -80.092466 
L 216.069771 -79.293646 
L 215.990174 -78.494825 
L 215.910471 -77.696004 
L 215.830719 -76.897184 
L 215.750965 -76.098363 
L 215.671246 -75.299542 
L 215.591593 -74.500721 
L 215.512029 -73.701901 
L 215.432571 -72.90308 
L 215.353233 -72.104259 
L 215.274026 -71.305438 
L 215.194962 -70.506618 
L 215.11605 -69.707797 
L 215.037303 -68.908976 
L 214.958735 -68.110155 
L 214.880364 -67.311335 
L 214.802213 -66.512514 
z
" style="stroke: #999999; stroke-width: 2"/>
    </defs>
    <g clip-path="url(#pb748a5e731)">
     <use xlink:href="#m1626e60808" x="0" y="255.11811" style="fill: #ffffff; stroke: #999999; stroke-width: 2"/>
    </g>
   </g>
   <g id="PolyCollection_4">
    <defs>
     <path id="m8acc1618fc" d="M 291.303238 -49.837187 
L 261.432982 -49.837187 
L 261.166032 -50.0434 
L 260.918147 -50.249613 
L 260.690008 -50.455826 
L 260.482169 -50.662039 
L 260.29505 -50.868253 
L 260.12893 -51.074466 
L 259.983946 -51.280679 
L 259.860088 -51.486892 
L 259.757202 -51.693105 
L 259.674989 -51.899318 
L 259.613007 -52.105532 
L 259.570673 -52.311745 
L 259.547271 -52.517958 
L 259.541957 -52.724171 
L 259.553766 -52.930384 
L 259.581621 -53.136597 
L 259.624342 -53.342811 
L 259.680657 -53.549024 
L 259.749216 -53.755237 
L 259.828599 -53.96145 
L 259.917332 -54.167663 
L 260.013899 -54.373876 
L 260.116757 -54.58009 
L 260.224348 -54.786303 
L 260.335114 -54.992516 
L 260.447513 -55.198729 
L 260.560028 -55.404942 
L 260.671185 -55.611155 
L 260.779562 -55.817369 
L 260.883807 -56.023582 
L 260.982641 -56.229795 
L 261.074876 -56.436008 
L 261.159424 -56.642221 
L 261.235301 -56.848434 
L 261.301641 -57.054648 
L 261.3577 -57.260861 
L 261.40286 -57.467074 
L 261.436638 -57.673287 
L 261.458683 -57.8795 
L 261.468785 -58.085713 
L 261.46687 -58.291927 
L 261.453 -58.49814 
L 261.427377 -58.704353 
L 261.390332 -58.910566 
L 261.342327 -59.116779 
L 261.283945 -59.322992 
L 261.215889 -59.529206 
L 261.13897 -59.735419 
L 261.054101 -59.941632 
L 260.962288 -60.147845 
L 260.864618 -60.354058 
L 260.762252 -60.560271 
L 260.656413 -60.766485 
L 260.54837 -60.972698 
L 260.439435 -61.178911 
L 260.330944 -61.385124 
L 260.224246 -61.591337 
L 260.120693 -61.79755 
L 260.021629 -62.003764 
L 259.928374 -62.209977 
L 259.842217 -62.41619 
L 259.764403 -62.622403 
L 259.696125 -62.828616 
L 259.63851 -63.034829 
L 259.592617 -63.241043 
L 259.559422 -63.447256 
L 259.539817 -63.653469 
L 259.5346 -63.859682 
L 259.544471 -64.065895 
L 259.570029 -64.272108 
L 259.611767 -64.478322 
L 259.670073 -64.684535 
L 259.745226 -64.890748 
L 259.837399 -65.096961 
L 259.946656 -65.303174 
L 260.07296 -65.509387 
L 260.21617 -65.715601 
L 260.376048 -65.921814 
L 260.552264 -66.128027 
L 260.744399 -66.33424 
L 260.951951 -66.540453 
L 261.174344 -66.746666 
L 261.410931 -66.95288 
L 261.661006 -67.159093 
L 261.923804 -67.365306 
L 262.198515 -67.571519 
L 262.484289 -67.777732 
L 262.780241 -67.983945 
L 263.085464 -68.190159 
L 263.399029 -68.396372 
L 263.719997 -68.602585 
L 264.047426 -68.808798 
L 264.380371 -69.015011 
L 264.717898 -69.221224 
L 265.059082 -69.427438 
L 265.403018 -69.633651 
L 265.74882 -69.839864 
L 266.095629 -70.046077 
L 266.442615 -70.25229 
L 286.293606 -70.25229 
L 286.293606 -70.25229 
L 286.640591 -70.046077 
L 286.9874 -69.839864 
L 287.333203 -69.633651 
L 287.677138 -69.427438 
L 288.018323 -69.221224 
L 288.355849 -69.015011 
L 288.688795 -68.808798 
L 289.016223 -68.602585 
L 289.337192 -68.396372 
L 289.650757 -68.190159 
L 289.955979 -67.983945 
L 290.251931 -67.777732 
L 290.537705 -67.571519 
L 290.812416 -67.365306 
L 291.075214 -67.159093 
L 291.325289 -66.95288 
L 291.561877 -66.746666 
L 291.78427 -66.540453 
L 291.991822 -66.33424 
L 292.183956 -66.128027 
L 292.360172 -65.921814 
L 292.52005 -65.715601 
L 292.66326 -65.509387 
L 292.789564 -65.303174 
L 292.898822 -65.096961 
L 292.990994 -64.890748 
L 293.066148 -64.684535 
L 293.124454 -64.478322 
L 293.166192 -64.272108 
L 293.19175 -64.065895 
L 293.20162 -63.859682 
L 293.196403 -63.653469 
L 293.176798 -63.447256 
L 293.143604 -63.241043 
L 293.09771 -63.034829 
L 293.040096 -62.828616 
L 292.971817 -62.622403 
L 292.894004 -62.41619 
L 292.807847 -62.209977 
L 292.714592 -62.003764 
L 292.615527 -61.79755 
L 292.511975 -61.591337 
L 292.405277 -61.385124 
L 292.296785 -61.178911 
L 292.18785 -60.972698 
L 292.079808 -60.766485 
L 291.973968 -60.560271 
L 291.871602 -60.354058 
L 291.773933 -60.147845 
L 291.682119 -59.941632 
L 291.59725 -59.735419 
L 291.520331 -59.529206 
L 291.452275 -59.322992 
L 291.393894 -59.116779 
L 291.345888 -58.910566 
L 291.308843 -58.704353 
L 291.28322 -58.49814 
L 291.269351 -58.291927 
L 291.267435 -58.085713 
L 291.277537 -57.8795 
L 291.299583 -57.673287 
L 291.33336 -57.467074 
L 291.378521 -57.260861 
L 291.434579 -57.054648 
L 291.50092 -56.848434 
L 291.576797 -56.642221 
L 291.661344 -56.436008 
L 291.75358 -56.229795 
L 291.852414 -56.023582 
L 291.956658 -55.817369 
L 292.065036 -55.611155 
L 292.176193 -55.404942 
L 292.288708 -55.198729 
L 292.401107 -54.992516 
L 292.511873 -54.786303 
L 292.619464 -54.58009 
L 292.722321 -54.373876 
L 292.818888 -54.167663 
L 292.907621 -53.96145 
L 292.987004 -53.755237 
L 293.055563 -53.549024 
L 293.111879 -53.342811 
L 293.1546 -53.136597 
L 293.182454 -52.930384 
L 293.194264 -52.724171 
L 293.18895 -52.517958 
L 293.165548 -52.311745 
L 293.123214 -52.105532 
L 293.061231 -51.899318 
L 292.979018 -51.693105 
L 292.876132 -51.486892 
L 292.752275 -51.280679 
L 292.60729 -51.074466 
L 292.44117 -50.868253 
L 292.254051 -50.662039 
L 292.046213 -50.455826 
L 291.818074 -50.249613 
L 291.570188 -50.0434 
L 291.303238 -49.837187 
z
" style="stroke: #999999; stroke-width: 2"/>
    </defs>
    <g clip-path="url(#pb748a5e731)">
     <use xlink:href="#m8acc1618fc" x="0" y="255.11811" style="fill: #ffffff; stroke: #999999; stroke-width: 2"/>
    </g>
   </g>
   <g id="PolyCollection_5">
    <defs>
     <path id="m42b66d382d" d="M 343.285147 -75.289992 
L 337.535708 -75.289992 
L 337.46044 -76.236628 
L 337.386092 -77.183263 
L 337.312811 -78.129899 
L 337.240749 -79.076534 
L 337.170054 -80.02317 
L 337.100874 -80.969806 
L 337.033355 -81.916441 
L 336.967642 -82.863077 
L 336.903875 -83.809713 
L 336.842193 -84.756348 
L 336.782729 -85.702984 
L 336.725612 -86.649619 
L 336.670966 -87.596255 
L 336.618909 -88.542891 
L 336.569553 -89.489526 
L 336.523001 -90.436162 
L 336.47935 -91.382797 
L 336.438688 -92.329433 
L 336.401095 -93.276069 
L 336.366641 -94.222704 
L 336.335385 -95.16934 
L 336.307378 -96.115976 
L 336.282658 -97.062611 
L 336.261255 -98.009247 
L 336.243183 -98.955882 
L 336.22845 -99.902518 
L 336.217047 -100.849154 
L 336.208957 -101.795789 
L 336.20415 -102.742425 
L 336.202583 -103.68906 
L 336.204203 -104.635696 
L 336.208945 -105.582332 
L 336.216732 -106.528967 
L 336.227478 -107.475603 
L 336.241086 -108.422239 
L 336.257449 -109.368874 
L 336.276451 -110.31551 
L 336.297968 -111.262145 
L 336.321868 -112.208781 
L 336.348012 -113.155417 
L 336.376256 -114.102052 
L 336.40645 -115.048688 
L 336.43844 -115.995323 
L 336.472071 -116.941959 
L 336.507183 -117.888595 
L 336.543617 -118.83523 
L 336.581214 -119.781866 
L 336.619815 -120.728502 
L 336.659265 -121.675137 
L 336.69941 -122.621773 
L 336.740102 -123.568408 
L 336.781197 -124.515044 
L 336.822559 -125.46168 
L 336.864055 -126.408315 
L 336.905564 -127.354951 
L 336.94697 -128.301587 
L 336.988168 -129.248222 
L 337.02906 -130.194858 
L 337.069561 -131.141493 
L 337.109593 -132.088129 
L 337.149092 -133.034765 
L 337.188002 -133.9814 
L 337.226278 -134.928036 
L 337.263887 -135.874671 
L 337.300806 -136.821307 
L 337.337023 -137.767943 
L 337.372534 -138.714578 
L 337.407348 -139.661214 
L 337.441481 -140.60785 
L 337.474959 -141.554485 
L 337.507816 -142.501121 
L 337.540094 -143.447756 
L 337.571841 -144.394392 
L 337.603113 -145.341028 
L 337.633969 -146.287663 
L 337.664476 -147.234299 
L 337.694703 -148.180934 
L 337.724722 -149.12757 
L 337.754607 -150.074206 
L 337.784435 -151.020841 
L 337.814282 -151.967477 
L 337.844225 -152.914113 
L 337.87434 -153.860748 
L 337.904701 -154.807384 
L 337.935378 -155.754019 
L 337.96644 -156.700655 
L 337.997952 -157.647291 
L 338.029975 -158.593926 
L 338.062562 -159.540562 
L 338.095765 -160.487197 
L 338.129627 -161.433833 
L 338.164186 -162.380469 
L 338.199473 -163.327104 
L 338.235514 -164.27374 
L 338.272326 -165.220376 
L 338.30992 -166.167011 
L 338.348298 -167.113647 
L 338.387458 -168.060282 
L 338.427389 -169.006918 
L 342.393466 -169.006918 
L 342.393466 -169.006918 
L 342.433397 -168.060282 
L 342.472557 -167.113647 
L 342.510935 -166.167011 
L 342.548529 -165.220376 
L 342.585341 -164.27374 
L 342.621382 -163.327104 
L 342.656669 -162.380469 
L 342.691228 -161.433833 
L 342.72509 -160.487197 
L 342.758293 -159.540562 
L 342.79088 -158.593926 
L 342.822902 -157.647291 
L 342.854415 -156.700655 
L 342.885477 -155.754019 
L 342.916154 -154.807384 
L 342.946515 -153.860748 
L 342.976629 -152.914113 
L 343.006573 -151.967477 
L 343.03642 -151.020841 
L 343.066248 -150.074206 
L 343.096133 -149.12757 
L 343.126152 -148.180934 
L 343.156379 -147.234299 
L 343.186886 -146.287663 
L 343.217742 -145.341028 
L 343.249014 -144.394392 
L 343.280761 -143.447756 
L 343.313039 -142.501121 
L 343.345896 -141.554485 
L 343.379374 -140.60785 
L 343.413507 -139.661214 
L 343.448321 -138.714578 
L 343.483832 -137.767943 
L 343.520049 -136.821307 
L 343.556968 -135.874671 
L 343.594577 -134.928036 
L 343.632853 -133.9814 
L 343.671763 -133.034765 
L 343.711262 -132.088129 
L 343.751294 -131.141493 
L 343.791795 -130.194858 
L 343.832687 -129.248222 
L 343.873885 -128.301587 
L 343.915291 -127.354951 
L 343.956799 -126.408315 
L 343.998296 -125.46168 
L 344.039657 -124.515044 
L 344.080753 -123.568408 
L 344.121445 -122.621773 
L 344.16159 -121.675137 
L 344.20104 -120.728502 
L 344.239641 -119.781866 
L 344.277238 -118.83523 
L 344.313672 -117.888595 
L 344.348784 -116.941959 
L 344.382415 -115.995323 
L 344.414405 -115.048688 
L 344.444599 -114.102052 
L 344.472843 -113.155417 
L 344.498987 -112.208781 
L 344.522887 -111.262145 
L 344.544404 -110.31551 
L 344.563406 -109.368874 
L 344.579769 -108.422239 
L 344.593377 -107.475603 
L 344.604123 -106.528967 
L 344.61191 -105.582332 
L 344.616652 -104.635696 
L 344.618272 -103.68906 
L 344.616705 -102.742425 
L 344.611897 -101.795789 
L 344.603808 -100.849154 
L 344.592405 -99.902518 
L 344.577671 -98.955882 
L 344.5596 -98.009247 
L 344.538196 -97.062611 
L 344.513477 -96.115976 
L 344.48547 -95.16934 
L 344.454214 -94.222704 
L 344.41976 -93.276069 
L 344.382167 -92.329433 
L 344.341505 -91.382797 
L 344.297854 -90.436162 
L 344.251302 -89.489526 
L 344.201946 -88.542891 
L 344.149889 -87.596255 
L 344.095243 -86.649619 
L 344.038126 -85.702984 
L 343.978662 -84.756348 
L 343.91698 -83.809713 
L 343.853213 -82.863077 
L 343.7875 -81.916441 
L 343.719981 -80.969806 
L 343.650801 -80.02317 
L 343.580106 -79.076534 
L 343.508044 -78.129899 
L 343.434763 -77.183263 
L 343.360415 -76.236628 
L 343.285147 -75.289992 
z
" style="stroke: #999999; stroke-width: 2"/>
    </defs>
    <g clip-path="url(#pb748a5e731)">
     <use xlink:href="#m42b66d382d" x="0" y="255.11811" style="fill: #ffffff; stroke: #999999; stroke-width: 2"/>
    </g>
   </g>
   <g id="PolyCollection_6">
    <defs>
     <path id="m77c0ccd58f" d="M 408.086901 -68.432707 
L 400.818588 -68.432707 
L 400.688908 -69.039029 
L 400.558174 -69.645351 
L 400.426612 -70.251673 
L 400.294467 -70.857995 
L 400.161998 -71.464317 
L 400.029483 -72.070639 
L 399.897213 -72.67696 
L 399.765494 -73.283282 
L 399.634648 -73.889604 
L 399.505007 -74.495926 
L 399.376917 -75.102248 
L 399.250731 -75.70857 
L 399.126813 -76.314892 
L 399.005531 -76.921214 
L 398.887257 -77.527535 
L 398.772364 -78.133857 
L 398.661225 -78.740179 
L 398.554208 -79.346501 
L 398.451675 -79.952823 
L 398.353977 -80.559145 
L 398.261455 -81.165467 
L 398.174431 -81.771788 
L 398.09321 -82.37811 
L 398.018076 -82.984432 
L 397.949289 -83.590754 
L 397.88708 -84.197076 
L 397.831652 -84.803398 
L 397.783177 -85.40972 
L 397.741791 -86.016042 
L 397.707596 -86.622363 
L 397.680657 -87.228685 
L 397.660999 -87.835007 
L 397.648609 -88.441329 
L 397.643436 -89.047651 
L 397.645385 -89.653973 
L 397.654327 -90.260295 
L 397.670091 -90.866616 
L 397.692468 -91.472938 
L 397.721215 -92.07926 
L 397.756054 -92.685582 
L 397.796673 -93.291904 
L 397.842732 -93.898226 
L 397.893864 -94.504548 
L 397.949678 -95.11087 
L 398.00976 -95.717191 
L 398.073682 -96.323513 
L 398.141001 -96.929835 
L 398.211262 -97.536157 
L 398.284008 -98.142479 
L 398.358775 -98.748801 
L 398.435105 -99.355123 
L 398.512542 -99.961445 
L 398.590639 -100.567766 
L 398.668964 -101.174088 
L 398.747099 -101.78041 
L 398.824646 -102.386732 
L 398.901229 -102.993054 
L 398.976496 -103.599376 
L 399.050124 -104.205698 
L 399.12182 -104.812019 
L 399.19132 -105.418341 
L 399.258396 -106.024663 
L 399.322854 -106.630985 
L 399.384535 -107.237307 
L 399.443314 -107.843629 
L 399.499106 -108.449951 
L 399.55186 -109.056273 
L 399.601562 -109.662594 
L 399.648231 -110.268916 
L 399.691923 -110.875238 
L 399.732725 -111.48156 
L 399.770756 -112.087882 
L 399.806165 -112.694204 
L 399.839128 -113.300526 
L 399.869847 -113.906847 
L 399.898546 -114.513169 
L 399.92547 -115.119491 
L 399.950882 -115.725813 
L 399.975059 -116.332135 
L 399.998291 -116.938457 
L 400.020878 -117.544779 
L 400.043123 -118.151101 
L 400.065336 -118.757422 
L 400.087823 -119.363744 
L 400.110891 -119.970066 
L 400.134839 -120.576388 
L 400.159959 -121.18271 
L 400.186531 -121.789032 
L 400.214823 -122.395354 
L 400.245086 -123.001676 
L 400.277552 -123.607997 
L 400.312436 -124.214319 
L 400.349929 -124.820641 
L 400.390199 -125.426963 
L 400.433389 -126.033285 
L 400.479618 -126.639607 
L 400.528978 -127.245929 
L 400.581533 -127.85225 
L 400.63732 -128.458572 
L 408.268169 -128.458572 
L 408.268169 -128.458572 
L 408.323957 -127.85225 
L 408.376511 -127.245929 
L 408.425871 -126.639607 
L 408.4721 -126.033285 
L 408.515291 -125.426963 
L 408.55556 -124.820641 
L 408.593053 -124.214319 
L 408.627937 -123.607997 
L 408.660404 -123.001676 
L 408.690666 -122.395354 
L 408.718958 -121.789032 
L 408.745531 -121.18271 
L 408.770651 -120.576388 
L 408.794599 -119.970066 
L 408.817667 -119.363744 
L 408.840154 -118.757422 
L 408.862366 -118.151101 
L 408.884611 -117.544779 
L 408.907198 -116.938457 
L 408.93043 -116.332135 
L 408.954608 -115.725813 
L 408.98002 -115.119491 
L 409.006944 -114.513169 
L 409.035642 -113.906847 
L 409.066361 -113.300526 
L 409.099324 -112.694204 
L 409.134733 -112.087882 
L 409.172764 -111.48156 
L 409.213566 -110.875238 
L 409.257258 -110.268916 
L 409.303927 -109.662594 
L 409.353629 -109.056273 
L 409.406383 -108.449951 
L 409.462175 -107.843629 
L 409.520955 -107.237307 
L 409.582635 -106.630985 
L 409.647093 -106.024663 
L 409.714169 -105.418341 
L 409.78367 -104.812019 
L 409.855365 -104.205698 
L 409.928994 -103.599376 
L 410.004261 -102.993054 
L 410.080843 -102.386732 
L 410.15839 -101.78041 
L 410.236525 -101.174088 
L 410.31485 -100.567766 
L 410.392948 -99.961445 
L 410.470384 -99.355123 
L 410.546714 -98.748801 
L 410.621482 -98.142479 
L 410.694227 -97.536157 
L 410.764489 -96.929835 
L 410.831807 -96.323513 
L 410.895729 -95.717191 
L 410.955812 -95.11087 
L 411.011625 -94.504548 
L 411.062757 -93.898226 
L 411.108817 -93.291904 
L 411.149436 -92.685582 
L 411.184274 -92.07926 
L 411.213021 -91.472938 
L 411.235399 -90.866616 
L 411.251162 -90.260295 
L 411.260104 -89.653973 
L 411.262054 -89.047651 
L 411.25688 -88.441329 
L 411.24449 -87.835007 
L 411.224832 -87.228685 
L 411.197893 -86.622363 
L 411.163698 -86.016042 
L 411.122312 -85.40972 
L 411.073837 -84.803398 
L 411.018409 -84.197076 
L 410.9562 -83.590754 
L 410.887413 -82.984432 
L 410.812279 -82.37811 
L 410.731059 -81.771788 
L 410.644034 -81.165467 
L 410.551512 -80.559145 
L 410.453814 -79.952823 
L 410.351281 -79.346501 
L 410.244265 -78.740179 
L 410.133126 -78.133857 
L 410.018233 -77.527535 
L 409.899958 -76.921214 
L 409.778676 -76.314892 
L 409.654758 -75.70857 
L 409.528572 -75.102248 
L 409.400482 -74.495926 
L 409.270841 -73.889604 
L 409.139995 -73.283282 
L 409.008276 -72.67696 
L 408.876006 -72.070639 
L 408.743491 -71.464317 
L 408.611023 -70.857995 
L 408.478878 -70.251673 
L 408.347316 -69.645351 
L 408.216581 -69.039029 
L 408.086901 -68.432707 
z
" style="stroke: #999999; stroke-width: 2"/>
    </defs>
    <g clip-path="url(#pb748a5e731)">
     <use xlink:href="#m77c0ccd58f" x="0" y="255.11811" style="fill: #ffffff; stroke: #999999; stroke-width: 2"/>
    </g>
   </g>
   <g id="PolyCollection_7">
    <defs>
     <path id="m5bbb70f3a3" d="M 469.383414 -88.74124 
L 467.60671 -88.74124 
L 467.600379 -90.089116 
L 467.595485 -91.436991 
L 467.591892 -92.784867 
L 467.589439 -94.132742 
L 467.587934 -95.480618 
L 467.587162 -96.828494 
L 467.586883 -98.176369 
L 467.586834 -99.524245 
L 467.586729 -100.87212 
L 467.586267 -102.219996 
L 467.585128 -103.567871 
L 467.582981 -104.915747 
L 467.579484 -106.263623 
L 467.574287 -107.611498 
L 467.567037 -108.959374 
L 467.55738 -110.307249 
L 467.544964 -111.655125 
L 467.529443 -113.003001 
L 467.510483 -114.350876 
L 467.487759 -115.698752 
L 467.460964 -117.046627 
L 467.42981 -118.394503 
L 467.394031 -119.742379 
L 467.353389 -121.090254 
L 467.30767 -122.43813 
L 467.256694 -123.786005 
L 467.200316 -125.133881 
L 467.138424 -126.481756 
L 467.070948 -127.829632 
L 466.997858 -129.177508 
L 466.919166 -130.525383 
L 466.83493 -131.873259 
L 466.745254 -133.221134 
L 466.65029 -134.56901 
L 466.550238 -135.916886 
L 466.445347 -137.264761 
L 466.335916 -138.612637 
L 466.222293 -139.960512 
L 466.104874 -141.308388 
L 465.984105 -142.656264 
L 465.860475 -144.004139 
L 465.734521 -145.352015 
L 465.606819 -146.69989 
L 465.477982 -148.047766 
L 465.348662 -149.395642 
L 465.219538 -150.743517 
L 465.091314 -152.091393 
L 464.964717 -153.439268 
L 464.840484 -154.787144 
L 464.719362 -156.135019 
L 464.602098 -157.482895 
L 464.489433 -158.830771 
L 464.382092 -160.178646 
L 464.28078 -161.526522 
L 464.186172 -162.874397 
L 464.098906 -164.222273 
L 464.019578 -165.570149 
L 463.948728 -166.918024 
L 463.886843 -168.2659 
L 463.834344 -169.613775 
L 463.791582 -170.961651 
L 463.758836 -172.309527 
L 463.736306 -173.657402 
L 463.724114 -175.005278 
L 463.7223 -176.353153 
L 463.730821 -177.701029 
L 463.749553 -179.048905 
L 463.778294 -180.39678 
L 463.816764 -181.744656 
L 463.864609 -183.092531 
L 463.921411 -184.440407 
L 463.986688 -185.788282 
L 464.059903 -187.136158 
L 464.14047 -188.484034 
L 464.227767 -189.831909 
L 464.321137 -191.179785 
L 464.419903 -192.52766 
L 464.52337 -193.875536 
L 464.630842 -195.223412 
L 464.741624 -196.571287 
L 464.85503 -197.919163 
L 464.970397 -199.267038 
L 465.087083 -200.614914 
L 465.20448 -201.96279 
L 465.322017 -203.310665 
L 465.439164 -204.658541 
L 465.555436 -206.006416 
L 465.670394 -207.354292 
L 465.783652 -208.702168 
L 465.894872 -210.050043 
L 466.003765 -211.397919 
L 466.110093 -212.745794 
L 466.213664 -214.09367 
L 466.31433 -215.441545 
L 466.411987 -216.789421 
L 466.506569 -218.137297 
L 466.598042 -219.485172 
L 466.686406 -220.833048 
L 466.771685 -222.180923 
L 470.218439 -222.180923 
L 470.218439 -222.180923 
L 470.303718 -220.833048 
L 470.392082 -219.485172 
L 470.483555 -218.137297 
L 470.578136 -216.789421 
L 470.675794 -215.441545 
L 470.77646 -214.09367 
L 470.880031 -212.745794 
L 470.986358 -211.397919 
L 471.095252 -210.050043 
L 471.206471 -208.702168 
L 471.319729 -207.354292 
L 471.434688 -206.006416 
L 471.55096 -204.658541 
L 471.668106 -203.310665 
L 471.785643 -201.96279 
L 471.903041 -200.614914 
L 472.019727 -199.267038 
L 472.135093 -197.919163 
L 472.2485 -196.571287 
L 472.359281 -195.223412 
L 472.466754 -193.875536 
L 472.570221 -192.52766 
L 472.668986 -191.179785 
L 472.762356 -189.831909 
L 472.849653 -188.484034 
L 472.930221 -187.136158 
L 473.003436 -185.788282 
L 473.068712 -184.440407 
L 473.125514 -183.092531 
L 473.17336 -181.744656 
L 473.21183 -180.39678 
L 473.24057 -179.048905 
L 473.259303 -177.701029 
L 473.267823 -176.353153 
L 473.266009 -175.005278 
L 473.253818 -173.657402 
L 473.231288 -172.309527 
L 473.198542 -170.961651 
L 473.15578 -169.613775 
L 473.103281 -168.2659 
L 473.041396 -166.918024 
L 472.970546 -165.570149 
L 472.891217 -164.222273 
L 472.803952 -162.874397 
L 472.709344 -161.526522 
L 472.608032 -160.178646 
L 472.500691 -158.830771 
L 472.388026 -157.482895 
L 472.270762 -156.135019 
L 472.14964 -154.787144 
L 472.025407 -153.439268 
L 471.89881 -152.091393 
L 471.770586 -150.743517 
L 471.641462 -149.395642 
L 471.512141 -148.047766 
L 471.383305 -146.69989 
L 471.255603 -145.352015 
L 471.129648 -144.004139 
L 471.006019 -142.656264 
L 470.88525 -141.308388 
L 470.767831 -139.960512 
L 470.654208 -138.612637 
L 470.544776 -137.264761 
L 470.439885 -135.916886 
L 470.339833 -134.56901 
L 470.244869 -133.221134 
L 470.155194 -131.873259 
L 470.070958 -130.525383 
L 469.992266 -129.177508 
L 469.919176 -127.829632 
L 469.8517 -126.481756 
L 469.789808 -125.133881 
L 469.73343 -123.786005 
L 469.682454 -122.43813 
L 469.636735 -121.090254 
L 469.596092 -119.742379 
L 469.560314 -118.394503 
L 469.52916 -117.046627 
L 469.502365 -115.698752 
L 469.479641 -114.350876 
L 469.46068 -113.003001 
L 469.44516 -111.655125 
L 469.432744 -110.307249 
L 469.423087 -108.959374 
L 469.415836 -107.611498 
L 469.41064 -106.263623 
L 469.407142 -104.915747 
L 469.404996 -103.567871 
L 469.403857 -102.219996 
L 469.403395 -100.87212 
L 469.40329 -99.524245 
L 469.40324 -98.176369 
L 469.402961 -96.828494 
L 469.40219 -95.480618 
L 469.400685 -94.132742 
L 469.398231 -92.784867 
L 469.394639 -91.436991 
L 469.389745 -90.089116 
L 469.383414 -88.74124 
z
" style="stroke: #999999; stroke-width: 2"/>
    </defs>
    <g clip-path="url(#pb748a5e731)">
     <use xlink:href="#m5bbb70f3a3" x="0" y="255.11811" style="fill: #ffffff; stroke: #999999; stroke-width: 2"/>
    </g>
   </g>
   <g id="PathCollection_1"/>
   <g id="PathCollection_2"/>
   <g id="patch_3">
    <path d="M 52.22 213.89811 
L 52.22 24.32 
" style="fill: none; stroke: #262626; stroke-width: 1.25; stroke-linejoin: miter; stroke-linecap: square"/>
   </g>
   <g id="patch_4">
    <path d="M 52.22 213.89811 
L 500.51622 213.89811 
" style="fill: none; stroke: #262626; stroke-width: 1.25; stroke-linejoin: miter; stroke-linecap: square"/>
   </g>
   <g id="PathCollection_3">
    <defs>
     <path id="C0_0_9aa1f03cd4" d="M 0 2.5 
C 0.663008 2.5 1.29895 2.236584 1.767767 1.767767 
C 2.236584 1.29895 2.5 0.663008 2.5 -0 
C 2.5 -0.663008 2.236584 -1.29895 1.767767 -1.767767 
C 1.29895 -2.236584 0.663008 -2.5 0 -2.5 
C -0.663008 -2.5 -1.29895 -2.236584 -1.767767 -1.767767 
C -2.236584 -1.29895 -2.5 -0.663008 -2.5 0 
C -2.5 0.663008 -2.236584 1.29895 -1.767767 1.767767 
C -1.29895 2.236584 -0.663008 2.5 0 2.5 
z
"/>
    </defs>
    <g clip-path="url(#pb748a5e731)">
     <use xlink:href="#C0_0_9aa1f03cd4" x="83.1069" y="65.48736" style="fill: #4c72b0; fill-opacity: 0.75"/>
    </g>
    <g clip-path="url(#pb748a5e731)">
     <use xlink:href="#C0_0_9aa1f03cd4" x="80.699081" y="109.665815" style="fill: #4c72b0; fill-opacity: 0.75"/>
    </g>
    <g clip-path="url(#pb748a5e731)">
     <use xlink:href="#C0_0_9aa1f03cd4" x="83.72242" y="115.194907" style="fill: #4c72b0; fill-opacity: 0.75"/>
    </g>
    <g clip-path="url(#pb748a5e731)">
     <use xlink:href="#C0_0_9aa1f03cd4" x="85.3425" y="119.246958" style="fill: #4c72b0; fill-opacity: 0.75"/>
    </g>
    <g clip-path="url(#pb748a5e731)">
     <use xlink:href="#C0_0_9aa1f03cd4" x="78.394825" y="70.067083" style="fill: #dd8452; fill-opacity: 0.75"/>
    </g>
    <g clip-path="url(#pb748a5e731)">
     <use xlink:href="#C0_0_9aa1f03cd4" x="88.204206" y="79.009192" style="fill: #dd8452; fill-opacity: 0.75"/>
    </g>
    <g clip-path="url(#pb748a5e731)">
     <use xlink:href="#C0_0_9aa1f03cd4" x="89.084749" y="90.002863" style="fill: #dd8452; fill-opacity: 0.75"/>
    </g>
    <g clip-path="url(#pb748a5e731)">
     <use xlink:href="#C0_0_9aa1f03cd4" x="83.509408" y="108.083787" style="fill: #dd8452; fill-opacity: 0.75"/>
    </g>
   </g>
   <g id="PathCollection_4">
    <defs>
     <path id="C1_0_026a2bd2ff" d="M 0 2.5 
C 0.663008 2.5 1.29895 2.236584 1.767767 1.767767 
C 2.236584 1.29895 2.5 0.663008 2.5 -0 
C 2.5 -0.663008 2.236584 -1.29895 1.767767 -1.767767 
C 1.29895 -2.236584 0.663008 -2.5 0 -2.5 
C -0.663008 -2.5 -1.29895 -2.236584 -1.767767 -1.767767 
C -2.236584 -1.29895 -2.5 -0.663008 -2.5 0 
C -2.5 0.663008 -2.236584 1.29895 -1.767767 1.767767 
C -1.29895 2.236584 -0.663008 2.5 0 2.5 
z
"/>
    </defs>
    <g clip-path="url(#pb748a5e731)">
     <use xlink:href="#C1_0_026a2bd2ff" x="146.836449" y="180.089114" style="fill: #4c72b0; fill-opacity: 0.75"/>
    </g>
    <g clip-path="url(#pb748a5e731)">
     <use xlink:href="#C1_0_026a2bd2ff" x="144.274973" y="183.2764" style="fill: #4c72b0; fill-opacity: 0.75"/>
    </g>
    <g clip-path="url(#pb748a5e731)">
     <use xlink:href="#C1_0_026a2bd2ff" x="142.697905" y="182.241694" style="fill: #4c72b0; fill-opacity: 0.75"/>
    </g>
    <g clip-path="url(#pb748a5e731)">
     <use xlink:href="#C1_0_026a2bd2ff" x="152.829659" y="177.70914" style="fill: #4c72b0; fill-opacity: 0.75"/>
    </g>
    <g clip-path="url(#pb748a5e731)">
     <use xlink:href="#C1_0_026a2bd2ff" x="148.215079" y="173.067993" style="fill: #dd8452; fill-opacity: 0.75"/>
    </g>
    <g clip-path="url(#pb748a5e731)">
     <use xlink:href="#C1_0_026a2bd2ff" x="149.254447" y="173.420626" style="fill: #dd8452; fill-opacity: 0.75"/>
    </g>
    <g clip-path="url(#pb748a5e731)">
     <use xlink:href="#C1_0_026a2bd2ff" x="150.028898" y="173.752312" style="fill: #dd8452; fill-opacity: 0.75"/>
    </g>
    <g clip-path="url(#pb748a5e731)">
     <use xlink:href="#C1_0_026a2bd2ff" x="146.655573" y="169.003984" style="fill: #dd8452; fill-opacity: 0.75"/>
    </g>
   </g>
   <g id="PathCollection_5">
    <defs>
     <path id="C2_0_16bdb85a9c" d="M 0 2.5 
C 0.663008 2.5 1.29895 2.236584 1.767767 1.767767 
C 2.236584 1.29895 2.5 0.663008 2.5 -0 
C 2.5 -0.663008 2.236584 -1.29895 1.767767 -1.767767 
C 1.29895 -2.236584 0.663008 -2.5 0 -2.5 
C -0.663008 -2.5 -1.29895 -2.236584 -1.767767 -1.767767 
C -2.236584 -1.29895 -2.5 -0.663008 -2.5 0 
C -2.5 0.663008 -2.236584 1.29895 -1.767767 1.767767 
C -1.29895 2.236584 -0.663008 2.5 0 2.5 
z
"/>
    </defs>
    <g clip-path="url(#pb748a5e731)">
     <use xlink:href="#C2_0_16bdb85a9c" x="215.923467" y="109.522343" style="fill: #4c72b0; fill-opacity: 0.75"/>
    </g>
    <g clip-path="url(#pb748a5e731)">
     <use xlink:href="#C2_0_16bdb85a9c" x="207.526993" y="188.605596" style="fill: #4c72b0; fill-opacity: 0.75"/>
    </g>
    <g clip-path="url(#pb748a5e731)">
     <use xlink:href="#C2_0_16bdb85a9c" x="207.857053" y="152.782662" style="fill: #4c72b0; fill-opacity: 0.75"/>
    </g>
    <g clip-path="url(#pb748a5e731)">
     <use xlink:href="#C2_0_16bdb85a9c" x="216.07123" y="172.784662" style="fill: #4c72b0; fill-opacity: 0.75"/>
    </g>
    <g clip-path="url(#pb748a5e731)">
     <use xlink:href="#C2_0_16bdb85a9c" x="207.624566" y="126.92677" style="fill: #dd8452; fill-opacity: 0.75"/>
    </g>
    <g clip-path="url(#pb748a5e731)">
     <use xlink:href="#C2_0_16bdb85a9c" x="210.074208" y="156.084938" style="fill: #dd8452; fill-opacity: 0.75"/>
    </g>
    <g clip-path="url(#pb748a5e731)">
     <use xlink:href="#C2_0_16bdb85a9c" x="217.756409" y="150.896182" style="fill: #dd8452; fill-opacity: 0.75"/>
    </g>
    <g clip-path="url(#pb748a5e731)">
     <use xlink:href="#C2_0_16bdb85a9c" x="210.419366" y="130.592522" style="fill: #dd8452; fill-opacity: 0.75"/>
    </g>
   </g>
   <g id="PathCollection_6">
    <defs>
     <path id="C3_0_800191d52c" d="M 0 2.5 
C 0.663008 2.5 1.29895 2.236584 1.767767 1.767767 
C 2.236584 1.29895 2.5 0.663008 2.5 -0 
C 2.5 -0.663008 2.236584 -1.29895 1.767767 -1.767767 
C 1.29895 -2.236584 0.663008 -2.5 0 -2.5 
C -0.663008 -2.5 -1.29895 -2.236584 -1.767767 -1.767767 
C -2.236584 -1.29895 -2.5 -0.663008 -2.5 0 
C -2.5 0.663008 -2.236584 1.29895 -1.767767 1.767767 
C -1.29895 2.236584 -0.663008 2.5 0 2.5 
z
"/>
    </defs>
    <g clip-path="url(#pb748a5e731)">
     <use xlink:href="#C3_0_800191d52c" x="274.208377" y="190.932585" style="fill: #4c72b0; fill-opacity: 0.75"/>
    </g>
    <g clip-path="url(#pb748a5e731)">
     <use xlink:href="#C3_0_800191d52c" x="271.275264" y="189.315974" style="fill: #4c72b0; fill-opacity: 0.75"/>
    </g>
    <g clip-path="url(#pb748a5e731)">
     <use xlink:href="#C3_0_800191d52c" x="277.900849" y="193.006666" style="fill: #4c72b0; fill-opacity: 0.75"/>
    </g>
    <g clip-path="url(#pb748a5e731)">
     <use xlink:href="#C3_0_800191d52c" x="275.854335" y="203.179828" style="fill: #4c72b0; fill-opacity: 0.75"/>
    </g>
    <g clip-path="url(#pb748a5e731)">
     <use xlink:href="#C3_0_800191d52c" x="277.193959" y="184.86582" style="fill: #4c72b0; fill-opacity: 0.75"/>
    </g>
    <g clip-path="url(#pb748a5e731)">
     <use xlink:href="#C3_0_800191d52c" x="271.51357" y="205.280923" style="fill: #dd8452; fill-opacity: 0.75"/>
    </g>
    <g clip-path="url(#pb748a5e731)">
     <use xlink:href="#C3_0_800191d52c" x="280.501203" y="203.512236" style="fill: #dd8452; fill-opacity: 0.75"/>
    </g>
    <g clip-path="url(#pb748a5e731)">
     <use xlink:href="#C3_0_800191d52c" x="280.83447" y="198.224606" style="fill: #dd8452; fill-opacity: 0.75"/>
    </g>
    <g clip-path="url(#pb748a5e731)">
     <use xlink:href="#C3_0_800191d52c" x="276.376204" y="190.682561" style="fill: #dd8452; fill-opacity: 0.75"/>
    </g>
    <g clip-path="url(#pb748a5e731)">
     <use xlink:href="#C3_0_800191d52c" x="270.888142" y="203.588626" style="fill: #dd8452; fill-opacity: 0.75"/>
    </g>
   </g>
   <g id="PathCollection_7">
    <defs>
     <path id="C4_0_ca50f4de6d" d="M 0 2.5 
C 0.663008 2.5 1.29895 2.236584 1.767767 1.767767 
C 2.236584 1.29895 2.5 0.663008 2.5 -0 
C 2.5 -0.663008 2.236584 -1.29895 1.767767 -1.767767 
C 1.29895 -2.236584 0.663008 -2.5 0 -2.5 
C -0.663008 -2.5 -1.29895 -2.236584 -1.767767 -1.767767 
C -2.236584 -1.29895 -2.5 -0.663008 -2.5 0 
C -2.5 0.663008 -2.236584 1.29895 -1.767767 1.767767 
C -1.29895 2.236584 -0.663008 2.5 0 2.5 
z
"/>
    </defs>
    <g clip-path="url(#pb748a5e731)">
     <use xlink:href="#C4_0_ca50f4de6d" x="335.669397" y="148.231064" style="fill: #4c72b0; fill-opacity: 0.75"/>
    </g>
    <g clip-path="url(#pb748a5e731)">
     <use xlink:href="#C4_0_ca50f4de6d" x="339.401846" y="86.111192" style="fill: #4c72b0; fill-opacity: 0.75"/>
    </g>
    <g clip-path="url(#pb748a5e731)">
     <use xlink:href="#C4_0_ca50f4de6d" x="346.63874" y="110.734669" style="fill: #4c72b0; fill-opacity: 0.75"/>
    </g>
    <g clip-path="url(#pb748a5e731)">
     <use xlink:href="#C4_0_ca50f4de6d" x="335.216025" y="161.019347" style="fill: #dd8452; fill-opacity: 0.75"/>
    </g>
    <g clip-path="url(#pb748a5e731)">
     <use xlink:href="#C4_0_ca50f4de6d" x="339.999289" y="179.828118" style="fill: #dd8452; fill-opacity: 0.75"/>
    </g>
    <g clip-path="url(#pb748a5e731)">
     <use xlink:href="#C4_0_ca50f4de6d" x="343.112719" y="142.173019" style="fill: #dd8452; fill-opacity: 0.75"/>
    </g>
   </g>
   <g id="PathCollection_8">
    <defs>
     <path id="C5_0_2b6505b57f" d="M 0 2.5 
C 0.663008 2.5 1.29895 2.236584 1.767767 1.767767 
C 2.236584 1.29895 2.5 0.663008 2.5 -0 
C 2.5 -0.663008 2.236584 -1.29895 1.767767 -1.767767 
C 1.29895 -2.236584 0.663008 -2.5 0 -2.5 
C -0.663008 -2.5 -1.29895 -2.236584 -1.767767 -1.767767 
C -2.236584 -1.29895 -2.5 -0.663008 -2.5 0 
C -2.5 0.663008 -2.236584 1.29895 -1.767767 1.767767 
C -1.29895 2.236584 -0.663008 2.5 0 2.5 
z
"/>
    </defs>
    <g clip-path="url(#pb748a5e731)">
     <use xlink:href="#C5_0_2b6505b57f" x="398.534835" y="143.8598" style="fill: #4c72b0; fill-opacity: 0.75"/>
    </g>
    <g clip-path="url(#pb748a5e731)">
     <use xlink:href="#C5_0_2b6505b57f" x="407.865705" y="126.659538" style="fill: #4c72b0; fill-opacity: 0.75"/>
    </g>
    <g clip-path="url(#pb748a5e731)">
     <use xlink:href="#C5_0_2b6505b57f" x="399.234375" y="160.990797" style="fill: #4c72b0; fill-opacity: 0.75"/>
    </g>
    <g clip-path="url(#pb748a5e731)">
     <use xlink:href="#C5_0_2b6505b57f" x="408.142712" y="127.635101" style="fill: #4c72b0; fill-opacity: 0.75"/>
    </g>
    <g clip-path="url(#pb748a5e731)">
     <use xlink:href="#C5_0_2b6505b57f" x="399.977899" y="166.955096" style="fill: #dd8452; fill-opacity: 0.75"/>
    </g>
    <g clip-path="url(#pb748a5e731)">
     <use xlink:href="#C5_0_2b6505b57f" x="407.109846" y="167.613362" style="fill: #dd8452; fill-opacity: 0.75"/>
    </g>
    <g clip-path="url(#pb748a5e731)">
     <use xlink:href="#C5_0_2b6505b57f" x="405.36118" y="186.685403" style="fill: #dd8452; fill-opacity: 0.75"/>
    </g>
    <g clip-path="url(#pb748a5e731)">
     <use xlink:href="#C5_0_2b6505b57f" x="399.759046" y="169.23935" style="fill: #dd8452; fill-opacity: 0.75"/>
    </g>
   </g>
   <g id="PathCollection_9">
    <defs>
     <path id="C6_0_3f802cfc14" d="M 0 2.5 
C 0.663008 2.5 1.29895 2.236584 1.767767 1.767767 
C 2.236584 1.29895 2.5 0.663008 2.5 -0 
C 2.5 -0.663008 2.236584 -1.29895 1.767767 -1.767767 
C 1.29895 -2.236584 0.663008 -2.5 0 -2.5 
C -0.663008 -2.5 -1.29895 -2.236584 -1.767767 -1.767767 
C -2.236584 -1.29895 -2.5 -0.663008 -2.5 0 
C -2.5 0.663008 -2.236584 1.29895 -1.767767 1.767767 
C -1.29895 2.236584 -0.663008 2.5 0 2.5 
z
"/>
    </defs>
    <g clip-path="url(#pb748a5e731)">
     <use xlink:href="#C6_0_3f802cfc14" x="464.031911" y="32.937187" style="fill: #4c72b0; fill-opacity: 0.75"/>
    </g>
    <g clip-path="url(#pb748a5e731)">
     <use xlink:href="#C6_0_3f802cfc14" x="468.517875" y="73.143748" style="fill: #4c72b0; fill-opacity: 0.75"/>
    </g>
    <g clip-path="url(#pb748a5e731)">
     <use xlink:href="#C6_0_3f802cfc14" x="464.892837" y="84.817666" style="fill: #4c72b0; fill-opacity: 0.75"/>
    </g>
    <g clip-path="url(#pb748a5e731)">
     <use xlink:href="#C6_0_3f802cfc14" x="470.459163" y="104.703875" style="fill: #4c72b0; fill-opacity: 0.75"/>
    </g>
    <g clip-path="url(#pb748a5e731)">
     <use xlink:href="#C6_0_3f802cfc14" x="470.919317" y="77.003113" style="fill: #dd8452; fill-opacity: 0.75"/>
    </g>
    <g clip-path="url(#pb748a5e731)">
     <use xlink:href="#C6_0_3f802cfc14" x="472.096196" y="73.297379" style="fill: #dd8452; fill-opacity: 0.75"/>
    </g>
    <g clip-path="url(#pb748a5e731)">
     <use xlink:href="#C6_0_3f802cfc14" x="464.231762" y="80.546322" style="fill: #dd8452; fill-opacity: 0.75"/>
    </g>
    <g clip-path="url(#pb748a5e731)">
     <use xlink:href="#C6_0_3f802cfc14" x="466.090781" y="166.37687" style="fill: #dd8452; fill-opacity: 0.75"/>
    </g>
   </g>
   <g id="text_18">
    <!-- SLC2A1, $p_{adj}$ &lt; .001 *** -->
    <g style="fill: #262626" transform="translate(52.22 18.32)scale(0.09 -0.09)">
     <defs>
      <path id="ArialMT-53" d="M 288 1472 
L 859 1522 
Q 900 1178 1048 958 
Q 1197 738 1509 602 
Q 1822 466 2213 466 
Q 2559 466 2825 569 
Q 3091 672 3220 851 
Q 3350 1031 3350 1244 
Q 3350 1459 3225 1620 
Q 3100 1781 2813 1891 
Q 2628 1963 1997 2114 
Q 1366 2266 1113 2400 
Q 784 2572 623 2826 
Q 463 3081 463 3397 
Q 463 3744 659 4045 
Q 856 4347 1234 4503 
Q 1613 4659 2075 4659 
Q 2584 4659 2973 4495 
Q 3363 4331 3572 4012 
Q 3781 3694 3797 3291 
L 3216 3247 
Q 3169 3681 2898 3903 
Q 2628 4125 2100 4125 
Q 1550 4125 1298 3923 
Q 1047 3722 1047 3438 
Q 1047 3191 1225 3031 
Q 1400 2872 2139 2705 
Q 2878 2538 3153 2413 
Q 3553 2228 3743 1945 
Q 3934 1663 3934 1294 
Q 3934 928 3725 604 
Q 3516 281 3123 101 
Q 2731 -78 2241 -78 
Q 1619 -78 1198 103 
Q 778 284 539 648 
Q 300 1013 288 1472 
z
" transform="scale(0.015625)"/>
      <path id="ArialMT-4c" d="M 469 0 
L 469 4581 
L 1075 4581 
L 1075 541 
L 3331 541 
L 3331 0 
L 469 0 
z
" transform="scale(0.015625)"/>
      <path id="ArialMT-43" d="M 3763 1606 
L 4369 1453 
Q 4178 706 3683 314 
Q 3188 -78 2472 -78 
Q 1731 -78 1267 223 
Q 803 525 561 1097 
Q 319 1669 319 2325 
Q 319 3041 592 3573 
Q 866 4106 1370 4382 
Q 1875 4659 2481 4659 
Q 3169 4659 3637 4309 
Q 4106 3959 4291 3325 
L 3694 3184 
Q 3534 3684 3231 3912 
Q 2928 4141 2469 4141 
Q 1941 4141 1586 3887 
Q 1231 3634 1087 3207 
Q 944 2781 944 2328 
Q 944 1744 1114 1308 
Q 1284 872 1643 656 
Q 2003 441 2422 441 
Q 2931 441 3284 734 
Q 3638 1028 3763 1606 
z
" transform="scale(0.015625)"/>
      <path id="ArialMT-41" d="M -9 0 
L 1750 4581 
L 2403 4581 
L 4278 0 
L 3588 0 
L 3053 1388 
L 1138 1388 
L 634 0 
L -9 0 
z
M 1313 1881 
L 2866 1881 
L 2388 3150 
Q 2169 3728 2063 4100 
Q 1975 3659 1816 3225 
L 1313 1881 
z
" transform="scale(0.015625)"/>
      <path id="ArialMT-2c" d="M 569 0 
L 569 641 
L 1209 641 
L 1209 0 
Q 1209 -353 1084 -570 
Q 959 -788 688 -906 
L 531 -666 
Q 709 -588 793 -436 
Q 878 -284 888 0 
L 569 0 
z
" transform="scale(0.015625)"/>
      <path id="DejaVuSans-Oblique-70" d="M 3175 2156 
Q 3175 2616 2975 2859 
Q 2775 3103 2400 3103 
Q 2144 3103 1911 2972 
Q 1678 2841 1497 2591 
Q 1319 2344 1212 1994 
Q 1106 1644 1106 1300 
Q 1106 863 1306 627 
Q 1506 391 1875 391 
Q 2147 391 2380 519 
Q 2613 647 2778 891 
Q 2956 1147 3065 1494 
Q 3175 1841 3175 2156 
z
M 1394 2969 
Q 1625 3272 1939 3428 
Q 2253 3584 2638 3584 
Q 3175 3584 3472 3232 
Q 3769 2881 3769 2247 
Q 3769 1728 3584 1258 
Q 3400 788 3053 416 
Q 2822 169 2531 39 
Q 2241 -91 1919 -91 
Q 1547 -91 1294 64 
Q 1041 219 916 525 
L 556 -1331 
L -19 -1331 
L 922 3500 
L 1497 3500 
L 1394 2969 
z
" transform="scale(0.015625)"/>
      <path id="DejaVuSans-Oblique-61" d="M 3438 1997 
L 3047 0 
L 2472 0 
L 2578 531 
Q 2325 219 2001 64 
Q 1678 -91 1281 -91 
Q 834 -91 548 182 
Q 263 456 263 884 
Q 263 1497 752 1853 
Q 1241 2209 2100 2209 
L 2900 2209 
L 2931 2363 
Q 2938 2388 2941 2417 
Q 2944 2447 2944 2509 
Q 2944 2788 2717 2942 
Q 2491 3097 2081 3097 
Q 1800 3097 1504 3025 
Q 1209 2953 897 2809 
L 997 3341 
Q 1322 3463 1633 3523 
Q 1944 3584 2234 3584 
Q 2853 3584 3176 3315 
Q 3500 3047 3500 2534 
Q 3500 2431 3484 2292 
Q 3469 2153 3438 1997 
z
M 2816 1759 
L 2241 1759 
Q 1534 1759 1195 1570 
Q 856 1381 856 984 
Q 856 709 1029 553 
Q 1203 397 1509 397 
Q 1978 397 2328 733 
Q 2678 1069 2791 1631 
L 2816 1759 
z
" transform="scale(0.015625)"/>
      <path id="DejaVuSans-Oblique-64" d="M 2675 525 
Q 2444 222 2128 65 
Q 1813 -91 1428 -91 
Q 903 -91 598 267 
Q 294 625 294 1247 
Q 294 1766 478 2236 
Q 663 2706 1013 3078 
Q 1244 3325 1534 3454 
Q 1825 3584 2144 3584 
Q 2481 3584 2739 3421 
Q 2997 3259 3138 2956 
L 3513 4863 
L 4091 4863 
L 3144 0 
L 2566 0 
L 2675 525 
z
M 891 1350 
Q 891 897 1095 644 
Q 1300 391 1663 391 
Q 1931 391 2161 520 
Q 2391 650 2566 903 
Q 2750 1166 2856 1509 
Q 2963 1853 2963 2188 
Q 2963 2622 2758 2865 
Q 2553 3109 2194 3109 
Q 1922 3109 1687 2981 
Q 1453 2853 1288 2613 
Q 1106 2353 998 2009 
Q 891 1666 891 1350 
z
" transform="scale(0.015625)"/>
      <path id="DejaVuSans-Oblique-6a" d="M 928 3500 
L 1503 3500 
L 813 -63 
L 809 -78 
Q 694 -675 544 -897 
Q 403 -1106 132 -1218 
Q -138 -1331 -506 -1331 
L -722 -1331 
L -628 -844 
L -481 -844 
Q -144 -844 -1 -703 
Q 141 -563 238 -63 
L 928 3500 
z
M 1197 4863 
L 1772 4863 
L 1631 4134 
L 1056 4134 
L 1197 4863 
z
" transform="scale(0.015625)"/>
      <path id="ArialMT-3c" d="M 350 2003 
L 350 2528 
L 3384 3809 
L 3384 3250 
L 978 2263 
L 3384 1266 
L 3384 706 
L 350 2003 
z
" transform="scale(0.015625)"/>
      <path id="ArialMT-2e" d="M 581 0 
L 581 641 
L 1222 641 
L 1222 0 
L 581 0 
z
" transform="scale(0.015625)"/>
      <path id="ArialMT-2a" d="M 200 3741 
L 344 4184 
Q 841 4009 1066 3881 
Q 1006 4447 1003 4659 
L 1456 4659 
Q 1447 4350 1384 3884 
Q 1706 4047 2122 4184 
L 2266 3741 
Q 1869 3609 1488 3566 
Q 1678 3400 2025 2975 
L 1650 2709 
Q 1469 2956 1222 3381 
Q 991 2941 816 2709 
L 447 2975 
Q 809 3422 966 3566 
Q 563 3644 200 3741 
z
" transform="scale(0.015625)"/>
     </defs>
     <use xlink:href="#ArialMT-53" transform="translate(0 0.203125)"/>
     <use xlink:href="#ArialMT-4c" transform="translate(66.699219 0.203125)"/>
     <use xlink:href="#ArialMT-43" transform="translate(122.314453 0.203125)"/>
     <use xlink:href="#ArialMT-32" transform="translate(194.53125 0.203125)"/>
     <use xlink:href="#ArialMT-41" transform="translate(250.146484 0.203125)"/>
     <use xlink:href="#ArialMT-31" transform="translate(316.845703 0.203125)"/>
     <use xlink:href="#ArialMT-2c" transform="translate(372.460938 0.203125)"/>
     <use xlink:href="#ArialMT-20" transform="translate(400.244141 0.203125)"/>
     <use xlink:href="#DejaVuSans-Oblique-70" transform="translate(428.027344 0.203125)"/>
     <use xlink:href="#DejaVuSans-Oblique-61" transform="translate(491.503906 -16.203125)scale(0.7)"/>
     <use xlink:href="#DejaVuSans-Oblique-64" transform="translate(534.399414 -16.203125)scale(0.7)"/>
     <use xlink:href="#DejaVuSans-Oblique-6a" transform="translate(578.833008 -16.203125)scale(0.7)"/>
     <use xlink:href="#ArialMT-20" transform="translate(601.015625 0.203125)"/>
     <use xlink:href="#ArialMT-3c" transform="translate(628.798828 0.203125)"/>
     <use xlink:href="#ArialMT-20" transform="translate(687.197266 0.203125)"/>
     <use xlink:href="#ArialMT-2e" transform="translate(714.980469 0.203125)"/>
     <use xlink:href="#ArialMT-30" transform="translate(742.763672 0.203125)"/>
     <use xlink:href="#ArialMT-30" transform="translate(798.378906 0.203125)"/>
     <use xlink:href="#ArialMT-31" transform="translate(853.994141 0.203125)"/>
     <use xlink:href="#ArialMT-20" transform="translate(909.609375 0.203125)"/>
     <use xlink:href="#ArialMT-2a" transform="translate(937.392578 0.203125)"/>
     <use xlink:href="#ArialMT-2a" transform="translate(976.308594 0.203125)"/>
     <use xlink:href="#ArialMT-2a" transform="translate(1015.224609 0.203125)"/>
    </g>
   </g>
   <g id="legend_1">
    <g id="patch_5">
     <path d="M 58.52 209.39811 
L 110.82125 209.39811 
Q 112.62125 209.39811 112.62125 207.59811 
L 112.62125 170.305766 
Q 112.62125 168.505766 110.82125 168.505766 
L 58.52 168.505766 
Q 56.72 168.505766 56.72 170.305766 
L 56.72 207.59811 
Q 56.72 209.39811 58.52 209.39811 
z
" style="fill: #ffffff; opacity: 0.8; stroke: #cccccc; stroke-linejoin: miter"/>
    </g>
    <g id="text_19">
     <!-- Treatment -->
     <g style="fill: #262626" transform="translate(64.334141 178.547798)scale(0.09 -0.09)">
      <use xlink:href="#ArialMT-54"/>
      <use xlink:href="#ArialMT-72" x="57.333984"/>
      <use xlink:href="#ArialMT-65" x="90.634766"/>
      <use xlink:href="#ArialMT-61" x="146.25"/>
      <use xlink:href="#ArialMT-74" x="201.865234"/>
      <use xlink:href="#ArialMT-6d" x="229.648438"/>
      <use xlink:href="#ArialMT-65" x="312.949219"/>
      <use xlink:href="#ArialMT-6e" x="368.564453"/>
      <use xlink:href="#ArialMT-74" x="424.179688"/>
     </g>
    </g>
    <g id="PathCollection_10">
     <defs>
      <path id="m272ff05c94" d="M 0 3.872983 
C 1.027127 3.872983 2.012324 3.464901 2.738613 2.738613 
C 3.464901 2.012324 3.872983 1.027127 3.872983 0 
C 3.872983 -1.027127 3.464901 -2.012324 2.738613 -2.738613 
C 2.012324 -3.464901 1.027127 -3.872983 0 -3.872983 
C -1.027127 -3.872983 -2.012324 -3.464901 -2.738613 -2.738613 
C -3.464901 -2.012324 -3.872983 -1.027127 -3.872983 0 
C -3.872983 1.027127 -3.464901 2.012324 -2.738613 2.738613 
C -2.012324 3.464901 -1.027127 3.872983 0 3.872983 
z
" style="stroke: #4c72b0"/>
     </defs>
     <g>
      <use xlink:href="#m272ff05c94" x="69.32" y="188.916079" style="fill: #4c72b0; stroke: #4c72b0"/>
     </g>
    </g>
    <g id="text_20">
     <!-- BEVA -->
     <g style="fill: #262626" transform="translate(85.52 191.278579)scale(0.09 -0.09)">
      <defs>
       <path id="ArialMT-42" d="M 469 0 
L 469 4581 
L 2188 4581 
Q 2713 4581 3030 4442 
Q 3347 4303 3526 4014 
Q 3706 3725 3706 3409 
Q 3706 3116 3547 2856 
Q 3388 2597 3066 2438 
Q 3481 2316 3704 2022 
Q 3928 1728 3928 1328 
Q 3928 1006 3792 729 
Q 3656 453 3456 303 
Q 3256 153 2954 76 
Q 2653 0 2216 0 
L 469 0 
z
M 1075 2656 
L 2066 2656 
Q 2469 2656 2644 2709 
Q 2875 2778 2992 2937 
Q 3109 3097 3109 3338 
Q 3109 3566 3000 3739 
Q 2891 3913 2687 3977 
Q 2484 4041 1991 4041 
L 1075 4041 
L 1075 2656 
z
M 1075 541 
L 2216 541 
Q 2509 541 2628 563 
Q 2838 600 2978 687 
Q 3119 775 3209 942 
Q 3300 1109 3300 1328 
Q 3300 1584 3169 1773 
Q 3038 1963 2805 2039 
Q 2572 2116 2134 2116 
L 1075 2116 
L 1075 541 
z
" transform="scale(0.015625)"/>
       <path id="ArialMT-45" d="M 506 0 
L 506 4581 
L 3819 4581 
L 3819 4041 
L 1113 4041 
L 1113 2638 
L 3647 2638 
L 3647 2100 
L 1113 2100 
L 1113 541 
L 3925 541 
L 3925 0 
L 506 0 
z
" transform="scale(0.015625)"/>
       <path id="ArialMT-56" d="M 1803 0 
L 28 4581 
L 684 4581 
L 1875 1253 
Q 2019 853 2116 503 
Q 2222 878 2363 1253 
L 3600 4581 
L 4219 4581 
L 2425 0 
L 1803 0 
z
" transform="scale(0.015625)"/>
      </defs>
      <use xlink:href="#ArialMT-42"/>
      <use xlink:href="#ArialMT-45" x="66.699219"/>
      <use xlink:href="#ArialMT-56" x="133.398438"/>
      <use xlink:href="#ArialMT-41" x="192.722656"/>
     </g>
    </g>
    <g id="PathCollection_11">
     <defs>
      <path id="m5372578326" d="M 0 3.872983 
C 1.027127 3.872983 2.012324 3.464901 2.738613 2.738613 
C 3.464901 2.012324 3.872983 1.027127 3.872983 0 
C 3.872983 -1.027127 3.464901 -2.012324 2.738613 -2.738613 
C 2.012324 -3.464901 1.027127 -3.872983 0 -3.872983 
C -1.027127 -3.872983 -2.012324 -3.464901 -2.738613 -2.738613 
C -3.464901 -2.012324 -3.872983 -1.027127 -3.872983 0 
C -3.872983 1.027127 -3.464901 2.012324 -2.738613 2.738613 
C -2.012324 3.464901 -1.027127 3.872983 0 3.872983 
z
" style="stroke: #dd8452"/>
     </defs>
     <g>
      <use xlink:href="#m5372578326" x="69.32" y="201.64686" style="fill: #dd8452; stroke: #dd8452"/>
     </g>
    </g>
    <g id="text_21">
     <!-- CTRL -->
     <g style="fill: #262626" transform="translate(85.52 204.00936)scale(0.09 -0.09)">
      <defs>
       <path id="ArialMT-52" d="M 503 0 
L 503 4581 
L 2534 4581 
Q 3147 4581 3465 4457 
Q 3784 4334 3975 4021 
Q 4166 3709 4166 3331 
Q 4166 2844 3850 2509 
Q 3534 2175 2875 2084 
Q 3116 1969 3241 1856 
Q 3506 1613 3744 1247 
L 4541 0 
L 3778 0 
L 3172 953 
Q 2906 1366 2734 1584 
Q 2563 1803 2427 1890 
Q 2291 1978 2150 2013 
Q 2047 2034 1813 2034 
L 1109 2034 
L 1109 0 
L 503 0 
z
M 1109 2559 
L 2413 2559 
Q 2828 2559 3062 2645 
Q 3297 2731 3419 2920 
Q 3541 3109 3541 3331 
Q 3541 3656 3305 3865 
Q 3069 4075 2559 4075 
L 1109 4075 
L 1109 2559 
z
" transform="scale(0.015625)"/>
      </defs>
      <use xlink:href="#ArialMT-43"/>
      <use xlink:href="#ArialMT-54" x="72.216797"/>
      <use xlink:href="#ArialMT-52" x="133.300781"/>
      <use xlink:href="#ArialMT-4c" x="205.517578"/>
     </g>
    </g>
   </g>
  </g>
 </g>
 <defs>
  <clipPath id="pb748a5e731">
   <rect x="52.22" y="24.32" width="448.29622" height="189.57811"/>
  </clipPath>
 </defs>
</svg>
