<?xml version="1.0" encoding="utf-8" standalone="no"?>
<!DOCTYPE svg PUBLIC "-//W3C//DTD SVG 1.1//EN"
  "http://www.w3.org/Graphics/SVG/1.1/DTD/svg11.dtd">
<svg xmlns:xlink="http://www.w3.org/1999/xlink" width="510.23622pt" height="255.11811pt" viewBox="0 0 510.23622 255.11811" xmlns="http://www.w3.org/2000/svg" version="1.1">
 <metadata>
  <rdf:RDF xmlns:dc="http://purl.org/dc/elements/1.1/" xmlns:cc="http://creativecommons.org/ns#" xmlns:rdf="http://www.w3.org/1999/02/22-rdf-syntax-ns#">
   <cc:Work>
    <dc:type rdf:resource="http://purl.org/dc/dcmitype/StillImage"/>
    <dc:date>2022-04-27T00:17:28.191492</dc:date>
    <dc:format>image/svg+xml</dc:format>
    <dc:creator>
     <cc:Agent>
      <dc:title>Matplotlib v3.5.1, https://matplotlib.org/</dc:title>
     </cc:Agent>
    </dc:creator>
   </cc:Work>
  </rdf:RDF>
 </metadata>
 <defs>
  <style type="text/css">*{stroke-linejoin: round; stroke-linecap: butt}</style>
 </defs>
 <g id="figure_1">
  <g id="patch_1">
   <path d="M 0 255.11811 
L 510.23622 255.11811 
L 510.23622 0 
L 0 0 
z
" style="fill: #ffffff"/>
  </g>
  <g id="axes_1">
   <g id="patch_2">
    <path d="M 47.22 213.89811 
L 500.51622 213.89811 
L 500.51622 24.32 
L 47.22 24.32 
z
" style="fill: #ffffff"/>
   </g>
   <g id="matplotlib.axis_1">
    <g id="xtick_1">
     <g id="text_1">
      <!-- 49 -->
      <g style="fill: #444444" transform="translate(74.593458 229.840141)scale(0.09 -0.09)">
       <defs>
        <path id="ArialMT-34" d="M 2069 0 
L 2069 1097 
L 81 1097 
L 81 1613 
L 2172 4581 
L 2631 4581 
L 2631 1613 
L 3250 1613 
L 3250 1097 
L 2631 1097 
L 2631 0 
L 2069 0 
z
M 2069 1613 
L 2069 3678 
L 634 1613 
L 2069 1613 
z
" transform="scale(0.015625)"/>
        <path id="ArialMT-39" d="M 350 1059 
L 891 1109 
Q 959 728 1153 556 
Q 1347 384 1650 384 
Q 1909 384 2104 503 
Q 2300 622 2425 820 
Q 2550 1019 2634 1356 
Q 2719 1694 2719 2044 
Q 2719 2081 2716 2156 
Q 2547 1888 2255 1720 
Q 1963 1553 1622 1553 
Q 1053 1553 659 1965 
Q 266 2378 266 3053 
Q 266 3750 677 4175 
Q 1088 4600 1706 4600 
Q 2153 4600 2523 4359 
Q 2894 4119 3086 3673 
Q 3278 3228 3278 2384 
Q 3278 1506 3087 986 
Q 2897 466 2520 194 
Q 2144 -78 1638 -78 
Q 1100 -78 759 220 
Q 419 519 350 1059 
z
M 2653 3081 
Q 2653 3566 2395 3850 
Q 2138 4134 1775 4134 
Q 1400 4134 1122 3828 
Q 844 3522 844 3034 
Q 844 2597 1108 2323 
Q 1372 2050 1759 2050 
Q 2150 2050 2401 2323 
Q 2653 2597 2653 3081 
z
" transform="scale(0.015625)"/>
       </defs>
       <use xlink:href="#ArialMT-34"/>
       <use xlink:href="#ArialMT-39" x="55.615234"/>
      </g>
     </g>
    </g>
    <g id="xtick_2">
     <g id="text_2">
      <!-- 17 -->
      <g style="fill: #444444" transform="translate(139.350061 229.840141)scale(0.09 -0.09)">
       <defs>
        <path id="ArialMT-31" d="M 2384 0 
L 1822 0 
L 1822 3584 
Q 1619 3391 1289 3197 
Q 959 3003 697 2906 
L 697 3450 
Q 1169 3672 1522 3987 
Q 1875 4303 2022 4600 
L 2384 4600 
L 2384 0 
z
" transform="scale(0.015625)"/>
        <path id="ArialMT-37" d="M 303 3981 
L 303 4522 
L 3269 4522 
L 3269 4084 
Q 2831 3619 2401 2847 
Q 1972 2075 1738 1259 
Q 1569 684 1522 0 
L 944 0 
Q 953 541 1156 1306 
Q 1359 2072 1739 2783 
Q 2119 3494 2547 3981 
L 303 3981 
z
" transform="scale(0.015625)"/>
       </defs>
       <use xlink:href="#ArialMT-31"/>
       <use xlink:href="#ArialMT-37" x="55.615234"/>
      </g>
     </g>
    </g>
    <g id="xtick_3">
     <g id="text_3">
      <!-- 69 -->
      <g style="fill: #444444" transform="translate(204.106664 229.840141)scale(0.09 -0.09)">
       <defs>
        <path id="ArialMT-36" d="M 3184 3459 
L 2625 3416 
Q 2550 3747 2413 3897 
Q 2184 4138 1850 4138 
Q 1581 4138 1378 3988 
Q 1113 3794 959 3422 
Q 806 3050 800 2363 
Q 1003 2672 1297 2822 
Q 1591 2972 1913 2972 
Q 2475 2972 2870 2558 
Q 3266 2144 3266 1488 
Q 3266 1056 3080 686 
Q 2894 316 2569 119 
Q 2244 -78 1831 -78 
Q 1128 -78 684 439 
Q 241 956 241 2144 
Q 241 3472 731 4075 
Q 1159 4600 1884 4600 
Q 2425 4600 2770 4297 
Q 3116 3994 3184 3459 
z
M 888 1484 
Q 888 1194 1011 928 
Q 1134 663 1356 523 
Q 1578 384 1822 384 
Q 2178 384 2434 671 
Q 2691 959 2691 1453 
Q 2691 1928 2437 2201 
Q 2184 2475 1800 2475 
Q 1419 2475 1153 2201 
Q 888 1928 888 1484 
z
" transform="scale(0.015625)"/>
       </defs>
       <use xlink:href="#ArialMT-36"/>
       <use xlink:href="#ArialMT-39" x="55.615234"/>
      </g>
     </g>
    </g>
    <g id="xtick_4">
     <g id="text_4">
      <!-- 15 -->
      <g style="fill: #444444" transform="translate(268.863266 229.840141)scale(0.09 -0.09)">
       <defs>
        <path id="ArialMT-35" d="M 266 1200 
L 856 1250 
Q 922 819 1161 601 
Q 1400 384 1738 384 
Q 2144 384 2425 690 
Q 2706 997 2706 1503 
Q 2706 1984 2436 2262 
Q 2166 2541 1728 2541 
Q 1456 2541 1237 2417 
Q 1019 2294 894 2097 
L 366 2166 
L 809 4519 
L 3088 4519 
L 3088 3981 
L 1259 3981 
L 1013 2750 
Q 1425 3038 1878 3038 
Q 2478 3038 2890 2622 
Q 3303 2206 3303 1553 
Q 3303 931 2941 478 
Q 2500 -78 1738 -78 
Q 1113 -78 717 272 
Q 322 622 266 1200 
z
" transform="scale(0.015625)"/>
       </defs>
       <use xlink:href="#ArialMT-31"/>
       <use xlink:href="#ArialMT-35" x="55.615234"/>
      </g>
     </g>
    </g>
    <g id="xtick_5">
     <g id="text_5">
      <!-- 5 -->
      <g style="fill: #444444" transform="translate(336.122291 229.840141)scale(0.09 -0.09)">
       <use xlink:href="#ArialMT-35"/>
      </g>
     </g>
    </g>
    <g id="xtick_6">
     <g id="text_6">
      <!-- 126 -->
      <g style="fill: #444444" transform="translate(395.87405 229.840141)scale(0.09 -0.09)">
       <defs>
        <path id="ArialMT-32" d="M 3222 541 
L 3222 0 
L 194 0 
Q 188 203 259 391 
Q 375 700 629 1000 
Q 884 1300 1366 1694 
Q 2113 2306 2375 2664 
Q 2638 3022 2638 3341 
Q 2638 3675 2398 3904 
Q 2159 4134 1775 4134 
Q 1369 4134 1125 3890 
Q 881 3647 878 3216 
L 300 3275 
Q 359 3922 746 4261 
Q 1134 4600 1788 4600 
Q 2447 4600 2831 4234 
Q 3216 3869 3216 3328 
Q 3216 3053 3103 2787 
Q 2991 2522 2730 2228 
Q 2469 1934 1863 1422 
Q 1356 997 1212 845 
Q 1069 694 975 541 
L 3222 541 
z
" transform="scale(0.015625)"/>
       </defs>
       <use xlink:href="#ArialMT-31"/>
       <use xlink:href="#ArialMT-32" x="55.615234"/>
       <use xlink:href="#ArialMT-36" x="111.230469"/>
      </g>
     </g>
    </g>
    <g id="xtick_7">
     <g id="text_7">
      <!-- 62 -->
      <g style="fill: #444444" transform="translate(463.133075 229.840141)scale(0.09 -0.09)">
       <use xlink:href="#ArialMT-36"/>
       <use xlink:href="#ArialMT-32" x="55.615234"/>
      </g>
     </g>
    </g>
    <g id="text_8">
     <!-- Patient -->
     <g style="fill: #444444" transform="translate(259.859048 242.070923)scale(0.09 -0.09)">
      <defs>
       <path id="ArialMT-50" d="M 494 0 
L 494 4581 
L 2222 4581 
Q 2678 4581 2919 4538 
Q 3256 4481 3484 4323 
Q 3713 4166 3852 3881 
Q 3991 3597 3991 3256 
Q 3991 2672 3619 2267 
Q 3247 1863 2275 1863 
L 1100 1863 
L 1100 0 
L 494 0 
z
M 1100 2403 
L 2284 2403 
Q 2872 2403 3119 2622 
Q 3366 2841 3366 3238 
Q 3366 3525 3220 3729 
Q 3075 3934 2838 4000 
Q 2684 4041 2272 4041 
L 1100 4041 
L 1100 2403 
z
" transform="scale(0.015625)"/>
       <path id="ArialMT-61" d="M 2588 409 
Q 2275 144 1986 34 
Q 1697 -75 1366 -75 
Q 819 -75 525 192 
Q 231 459 231 875 
Q 231 1119 342 1320 
Q 453 1522 633 1644 
Q 813 1766 1038 1828 
Q 1203 1872 1538 1913 
Q 2219 1994 2541 2106 
Q 2544 2222 2544 2253 
Q 2544 2597 2384 2738 
Q 2169 2928 1744 2928 
Q 1347 2928 1158 2789 
Q 969 2650 878 2297 
L 328 2372 
Q 403 2725 575 2942 
Q 747 3159 1072 3276 
Q 1397 3394 1825 3394 
Q 2250 3394 2515 3294 
Q 2781 3194 2906 3042 
Q 3031 2891 3081 2659 
Q 3109 2516 3109 2141 
L 3109 1391 
Q 3109 606 3145 398 
Q 3181 191 3288 0 
L 2700 0 
Q 2613 175 2588 409 
z
M 2541 1666 
Q 2234 1541 1622 1453 
Q 1275 1403 1131 1340 
Q 988 1278 909 1158 
Q 831 1038 831 891 
Q 831 666 1001 516 
Q 1172 366 1500 366 
Q 1825 366 2078 508 
Q 2331 650 2450 897 
Q 2541 1088 2541 1459 
L 2541 1666 
z
" transform="scale(0.015625)"/>
       <path id="ArialMT-74" d="M 1650 503 
L 1731 6 
Q 1494 -44 1306 -44 
Q 1000 -44 831 53 
Q 663 150 594 308 
Q 525 466 525 972 
L 525 2881 
L 113 2881 
L 113 3319 
L 525 3319 
L 525 4141 
L 1084 4478 
L 1084 3319 
L 1650 3319 
L 1650 2881 
L 1084 2881 
L 1084 941 
Q 1084 700 1114 631 
Q 1144 563 1211 522 
Q 1278 481 1403 481 
Q 1497 481 1650 503 
z
" transform="scale(0.015625)"/>
       <path id="ArialMT-69" d="M 425 3934 
L 425 4581 
L 988 4581 
L 988 3934 
L 425 3934 
z
M 425 0 
L 425 3319 
L 988 3319 
L 988 0 
L 425 0 
z
" transform="scale(0.015625)"/>
       <path id="ArialMT-65" d="M 2694 1069 
L 3275 997 
Q 3138 488 2766 206 
Q 2394 -75 1816 -75 
Q 1088 -75 661 373 
Q 234 822 234 1631 
Q 234 2469 665 2931 
Q 1097 3394 1784 3394 
Q 2450 3394 2872 2941 
Q 3294 2488 3294 1666 
Q 3294 1616 3291 1516 
L 816 1516 
Q 847 969 1125 678 
Q 1403 388 1819 388 
Q 2128 388 2347 550 
Q 2566 713 2694 1069 
z
M 847 1978 
L 2700 1978 
Q 2663 2397 2488 2606 
Q 2219 2931 1791 2931 
Q 1403 2931 1139 2672 
Q 875 2413 847 1978 
z
" transform="scale(0.015625)"/>
       <path id="ArialMT-6e" d="M 422 0 
L 422 3319 
L 928 3319 
L 928 2847 
Q 1294 3394 1984 3394 
Q 2284 3394 2536 3286 
Q 2788 3178 2913 3003 
Q 3038 2828 3088 2588 
Q 3119 2431 3119 2041 
L 3119 0 
L 2556 0 
L 2556 2019 
Q 2556 2363 2490 2533 
Q 2425 2703 2258 2804 
Q 2091 2906 1866 2906 
Q 1506 2906 1245 2678 
Q 984 2450 984 1813 
L 984 0 
L 422 0 
z
" transform="scale(0.015625)"/>
      </defs>
      <use xlink:href="#ArialMT-50"/>
      <use xlink:href="#ArialMT-61" x="66.699219"/>
      <use xlink:href="#ArialMT-74" x="122.314453"/>
      <use xlink:href="#ArialMT-69" x="150.097656"/>
      <use xlink:href="#ArialMT-65" x="172.314453"/>
      <use xlink:href="#ArialMT-6e" x="227.929688"/>
      <use xlink:href="#ArialMT-74" x="283.544922"/>
     </g>
    </g>
   </g>
   <g id="matplotlib.axis_2">
    <g id="ytick_1">
     <g id="text_9">
      <!-- 50 -->
      <g style="fill: #444444" transform="translate(27.710313 198.201275)scale(0.09 -0.09)">
       <defs>
        <path id="ArialMT-30" d="M 266 2259 
Q 266 3072 433 3567 
Q 600 4063 929 4331 
Q 1259 4600 1759 4600 
Q 2128 4600 2406 4451 
Q 2684 4303 2865 4023 
Q 3047 3744 3150 3342 
Q 3253 2941 3253 2259 
Q 3253 1453 3087 958 
Q 2922 463 2592 192 
Q 2263 -78 1759 -78 
Q 1097 -78 719 397 
Q 266 969 266 2259 
z
M 844 2259 
Q 844 1131 1108 757 
Q 1372 384 1759 384 
Q 2147 384 2411 759 
Q 2675 1134 2675 2259 
Q 2675 3391 2411 3762 
Q 2147 4134 1753 4134 
Q 1366 4134 1134 3806 
Q 844 3388 844 2259 
z
" transform="scale(0.015625)"/>
       </defs>
       <use xlink:href="#ArialMT-35"/>
       <use xlink:href="#ArialMT-30" x="55.615234"/>
      </g>
     </g>
    </g>
    <g id="ytick_2">
     <g id="text_10">
      <!-- 100 -->
      <g style="fill: #444444" transform="translate(22.705469 172.35582)scale(0.09 -0.09)">
       <use xlink:href="#ArialMT-31"/>
       <use xlink:href="#ArialMT-30" x="55.615234"/>
       <use xlink:href="#ArialMT-30" x="111.230469"/>
      </g>
     </g>
    </g>
    <g id="ytick_3">
     <g id="text_11">
      <!-- 150 -->
      <g style="fill: #444444" transform="translate(22.705469 146.510364)scale(0.09 -0.09)">
       <use xlink:href="#ArialMT-31"/>
       <use xlink:href="#ArialMT-35" x="55.615234"/>
       <use xlink:href="#ArialMT-30" x="111.230469"/>
      </g>
     </g>
    </g>
    <g id="ytick_4">
     <g id="text_12">
      <!-- 200 -->
      <g style="fill: #444444" transform="translate(22.705469 120.664909)scale(0.09 -0.09)">
       <use xlink:href="#ArialMT-32"/>
       <use xlink:href="#ArialMT-30" x="55.615234"/>
       <use xlink:href="#ArialMT-30" x="111.230469"/>
      </g>
     </g>
    </g>
    <g id="ytick_5">
     <g id="text_13">
      <!-- 250 -->
      <g style="fill: #444444" transform="translate(22.705469 94.819454)scale(0.09 -0.09)">
       <use xlink:href="#ArialMT-32"/>
       <use xlink:href="#ArialMT-35" x="55.615234"/>
       <use xlink:href="#ArialMT-30" x="111.230469"/>
      </g>
     </g>
    </g>
    <g id="ytick_6">
     <g id="text_14">
      <!-- 300 -->
      <g style="fill: #444444" transform="translate(22.705469 68.973998)scale(0.09 -0.09)">
       <defs>
        <path id="ArialMT-33" d="M 269 1209 
L 831 1284 
Q 928 806 1161 595 
Q 1394 384 1728 384 
Q 2125 384 2398 659 
Q 2672 934 2672 1341 
Q 2672 1728 2419 1979 
Q 2166 2231 1775 2231 
Q 1616 2231 1378 2169 
L 1441 2663 
Q 1497 2656 1531 2656 
Q 1891 2656 2178 2843 
Q 2466 3031 2466 3422 
Q 2466 3731 2256 3934 
Q 2047 4138 1716 4138 
Q 1388 4138 1169 3931 
Q 950 3725 888 3313 
L 325 3413 
Q 428 3978 793 4289 
Q 1159 4600 1703 4600 
Q 2078 4600 2393 4439 
Q 2709 4278 2876 4000 
Q 3044 3722 3044 3409 
Q 3044 3113 2884 2869 
Q 2725 2625 2413 2481 
Q 2819 2388 3044 2092 
Q 3269 1797 3269 1353 
Q 3269 753 2831 336 
Q 2394 -81 1725 -81 
Q 1122 -81 723 278 
Q 325 638 269 1209 
z
" transform="scale(0.015625)"/>
       </defs>
       <use xlink:href="#ArialMT-33"/>
       <use xlink:href="#ArialMT-30" x="55.615234"/>
       <use xlink:href="#ArialMT-30" x="111.230469"/>
      </g>
     </g>
    </g>
    <g id="ytick_7">
     <g id="text_15">
      <!-- 350 -->
      <g style="fill: #444444" transform="translate(22.705469 43.128543)scale(0.09 -0.09)">
       <use xlink:href="#ArialMT-33"/>
       <use xlink:href="#ArialMT-35" x="55.615234"/>
       <use xlink:href="#ArialMT-30" x="111.230469"/>
      </g>
     </g>
    </g>
    <g id="text_16">
     <!-- Trimmed Means of M values (TMM) -->
     <g style="fill: #444444" transform="translate(16.81125 190.194993)rotate(-90)scale(0.09 -0.09)">
      <defs>
       <path id="ArialMT-54" d="M 1659 0 
L 1659 4041 
L 150 4041 
L 150 4581 
L 3781 4581 
L 3781 4041 
L 2266 4041 
L 2266 0 
L 1659 0 
z
" transform="scale(0.015625)"/>
       <path id="ArialMT-72" d="M 416 0 
L 416 3319 
L 922 3319 
L 922 2816 
Q 1116 3169 1280 3281 
Q 1444 3394 1641 3394 
Q 1925 3394 2219 3213 
L 2025 2691 
Q 1819 2813 1613 2813 
Q 1428 2813 1281 2702 
Q 1134 2591 1072 2394 
Q 978 2094 978 1738 
L 978 0 
L 416 0 
z
" transform="scale(0.015625)"/>
       <path id="ArialMT-6d" d="M 422 0 
L 422 3319 
L 925 3319 
L 925 2853 
Q 1081 3097 1340 3245 
Q 1600 3394 1931 3394 
Q 2300 3394 2536 3241 
Q 2772 3088 2869 2813 
Q 3263 3394 3894 3394 
Q 4388 3394 4653 3120 
Q 4919 2847 4919 2278 
L 4919 0 
L 4359 0 
L 4359 2091 
Q 4359 2428 4304 2576 
Q 4250 2725 4106 2815 
Q 3963 2906 3769 2906 
Q 3419 2906 3187 2673 
Q 2956 2441 2956 1928 
L 2956 0 
L 2394 0 
L 2394 2156 
Q 2394 2531 2256 2718 
Q 2119 2906 1806 2906 
Q 1569 2906 1367 2781 
Q 1166 2656 1075 2415 
Q 984 2175 984 1722 
L 984 0 
L 422 0 
z
" transform="scale(0.015625)"/>
       <path id="ArialMT-64" d="M 2575 0 
L 2575 419 
Q 2259 -75 1647 -75 
Q 1250 -75 917 144 
Q 584 363 401 755 
Q 219 1147 219 1656 
Q 219 2153 384 2558 
Q 550 2963 881 3178 
Q 1213 3394 1622 3394 
Q 1922 3394 2156 3267 
Q 2391 3141 2538 2938 
L 2538 4581 
L 3097 4581 
L 3097 0 
L 2575 0 
z
M 797 1656 
Q 797 1019 1065 703 
Q 1334 388 1700 388 
Q 2069 388 2326 689 
Q 2584 991 2584 1609 
Q 2584 2291 2321 2609 
Q 2059 2928 1675 2928 
Q 1300 2928 1048 2622 
Q 797 2316 797 1656 
z
" transform="scale(0.015625)"/>
       <path id="ArialMT-20" transform="scale(0.015625)"/>
       <path id="ArialMT-4d" d="M 475 0 
L 475 4581 
L 1388 4581 
L 2472 1338 
Q 2622 884 2691 659 
Q 2769 909 2934 1394 
L 4031 4581 
L 4847 4581 
L 4847 0 
L 4263 0 
L 4263 3834 
L 2931 0 
L 2384 0 
L 1059 3900 
L 1059 0 
L 475 0 
z
" transform="scale(0.015625)"/>
       <path id="ArialMT-73" d="M 197 991 
L 753 1078 
Q 800 744 1014 566 
Q 1228 388 1613 388 
Q 2000 388 2187 545 
Q 2375 703 2375 916 
Q 2375 1106 2209 1216 
Q 2094 1291 1634 1406 
Q 1016 1563 777 1677 
Q 538 1791 414 1992 
Q 291 2194 291 2438 
Q 291 2659 392 2848 
Q 494 3038 669 3163 
Q 800 3259 1026 3326 
Q 1253 3394 1513 3394 
Q 1903 3394 2198 3281 
Q 2494 3169 2634 2976 
Q 2775 2784 2828 2463 
L 2278 2388 
Q 2241 2644 2061 2787 
Q 1881 2931 1553 2931 
Q 1166 2931 1000 2803 
Q 834 2675 834 2503 
Q 834 2394 903 2306 
Q 972 2216 1119 2156 
Q 1203 2125 1616 2013 
Q 2213 1853 2448 1751 
Q 2684 1650 2818 1456 
Q 2953 1263 2953 975 
Q 2953 694 2789 445 
Q 2625 197 2315 61 
Q 2006 -75 1616 -75 
Q 969 -75 630 194 
Q 291 463 197 991 
z
" transform="scale(0.015625)"/>
       <path id="ArialMT-6f" d="M 213 1659 
Q 213 2581 725 3025 
Q 1153 3394 1769 3394 
Q 2453 3394 2887 2945 
Q 3322 2497 3322 1706 
Q 3322 1066 3130 698 
Q 2938 331 2570 128 
Q 2203 -75 1769 -75 
Q 1072 -75 642 372 
Q 213 819 213 1659 
z
M 791 1659 
Q 791 1022 1069 705 
Q 1347 388 1769 388 
Q 2188 388 2466 706 
Q 2744 1025 2744 1678 
Q 2744 2294 2464 2611 
Q 2184 2928 1769 2928 
Q 1347 2928 1069 2612 
Q 791 2297 791 1659 
z
" transform="scale(0.015625)"/>
       <path id="ArialMT-66" d="M 556 0 
L 556 2881 
L 59 2881 
L 59 3319 
L 556 3319 
L 556 3672 
Q 556 4006 616 4169 
Q 697 4388 901 4523 
Q 1106 4659 1475 4659 
Q 1713 4659 2000 4603 
L 1916 4113 
Q 1741 4144 1584 4144 
Q 1328 4144 1222 4034 
Q 1116 3925 1116 3625 
L 1116 3319 
L 1763 3319 
L 1763 2881 
L 1116 2881 
L 1116 0 
L 556 0 
z
" transform="scale(0.015625)"/>
       <path id="ArialMT-76" d="M 1344 0 
L 81 3319 
L 675 3319 
L 1388 1331 
Q 1503 1009 1600 663 
Q 1675 925 1809 1294 
L 2547 3319 
L 3125 3319 
L 1869 0 
L 1344 0 
z
" transform="scale(0.015625)"/>
       <path id="ArialMT-6c" d="M 409 0 
L 409 4581 
L 972 4581 
L 972 0 
L 409 0 
z
" transform="scale(0.015625)"/>
       <path id="ArialMT-75" d="M 2597 0 
L 2597 488 
Q 2209 -75 1544 -75 
Q 1250 -75 995 37 
Q 741 150 617 320 
Q 494 491 444 738 
Q 409 903 409 1263 
L 409 3319 
L 972 3319 
L 972 1478 
Q 972 1038 1006 884 
Q 1059 663 1231 536 
Q 1403 409 1656 409 
Q 1909 409 2131 539 
Q 2353 669 2445 892 
Q 2538 1116 2538 1541 
L 2538 3319 
L 3100 3319 
L 3100 0 
L 2597 0 
z
" transform="scale(0.015625)"/>
       <path id="ArialMT-28" d="M 1497 -1347 
Q 1031 -759 709 28 
Q 388 816 388 1659 
Q 388 2403 628 3084 
Q 909 3875 1497 4659 
L 1900 4659 
Q 1522 4009 1400 3731 
Q 1209 3300 1100 2831 
Q 966 2247 966 1656 
Q 966 153 1900 -1347 
L 1497 -1347 
z
" transform="scale(0.015625)"/>
       <path id="ArialMT-29" d="M 791 -1347 
L 388 -1347 
Q 1322 153 1322 1656 
Q 1322 2244 1188 2822 
Q 1081 3291 891 3722 
Q 769 4003 388 4659 
L 791 4659 
Q 1378 3875 1659 3084 
Q 1900 2403 1900 1659 
Q 1900 816 1576 28 
Q 1253 -759 791 -1347 
z
" transform="scale(0.015625)"/>
      </defs>
      <use xlink:href="#ArialMT-54"/>
      <use xlink:href="#ArialMT-72" x="57.333984"/>
      <use xlink:href="#ArialMT-69" x="90.634766"/>
      <use xlink:href="#ArialMT-6d" x="112.851562"/>
      <use xlink:href="#ArialMT-6d" x="196.152344"/>
      <use xlink:href="#ArialMT-65" x="279.453125"/>
      <use xlink:href="#ArialMT-64" x="335.068359"/>
      <use xlink:href="#ArialMT-20" x="390.683594"/>
      <use xlink:href="#ArialMT-4d" x="418.466797"/>
      <use xlink:href="#ArialMT-65" x="501.767578"/>
      <use xlink:href="#ArialMT-61" x="557.382812"/>
      <use xlink:href="#ArialMT-6e" x="612.998047"/>
      <use xlink:href="#ArialMT-73" x="668.613281"/>
      <use xlink:href="#ArialMT-20" x="718.613281"/>
      <use xlink:href="#ArialMT-6f" x="746.396484"/>
      <use xlink:href="#ArialMT-66" x="802.011719"/>
      <use xlink:href="#ArialMT-20" x="829.794922"/>
      <use xlink:href="#ArialMT-4d" x="857.578125"/>
      <use xlink:href="#ArialMT-20" x="940.878906"/>
      <use xlink:href="#ArialMT-76" x="968.662109"/>
      <use xlink:href="#ArialMT-61" x="1018.662109"/>
      <use xlink:href="#ArialMT-6c" x="1074.277344"/>
      <use xlink:href="#ArialMT-75" x="1096.494141"/>
      <use xlink:href="#ArialMT-65" x="1152.109375"/>
      <use xlink:href="#ArialMT-73" x="1207.724609"/>
      <use xlink:href="#ArialMT-20" x="1257.724609"/>
      <use xlink:href="#ArialMT-28" x="1285.507812"/>
      <use xlink:href="#ArialMT-54" x="1318.808594"/>
      <use xlink:href="#ArialMT-4d" x="1379.892578"/>
      <use xlink:href="#ArialMT-4d" x="1463.193359"/>
      <use xlink:href="#ArialMT-29" x="1546.494141"/>
     </g>
    </g>
   </g>
   <g id="PolyCollection_1">
    <defs>
     <path id="m9d81f025b2" d="M 84.965645 -74.733102 
L 74.230958 -74.733102 
L 74.132064 -74.994082 
L 74.037961 -75.255063 
L 73.948887 -75.516043 
L 73.865064 -75.777023 
L 73.786692 -76.038003 
L 73.713948 -76.298984 
L 73.646988 -76.559964 
L 73.585946 -76.820944 
L 73.53093 -77.081925 
L 73.482024 -77.342905 
L 73.439289 -77.603885 
L 73.40276 -77.864865 
L 73.372449 -78.125846 
L 73.34834 -78.386826 
L 73.330398 -78.647806 
L 73.31856 -78.908787 
L 73.312742 -79.169767 
L 73.312838 -79.430747 
L 73.31872 -79.691728 
L 73.330239 -79.952708 
L 73.34723 -80.213688 
L 73.369505 -80.474668 
L 73.396863 -80.735649 
L 73.429087 -80.996629 
L 73.465945 -81.257609 
L 73.507193 -81.51859 
L 73.552576 -81.77957 
L 73.60183 -82.04055 
L 73.654681 -82.30153 
L 73.710852 -82.562511 
L 73.770057 -82.823491 
L 73.832011 -83.084471 
L 73.896423 -83.345452 
L 73.963005 -83.606432 
L 74.031467 -83.867412 
L 74.101524 -84.128392 
L 74.172892 -84.389373 
L 74.245295 -84.650353 
L 74.318461 -84.911333 
L 74.392126 -85.172314 
L 74.466035 -85.433294 
L 74.539941 -85.694274 
L 74.613608 -85.955254 
L 74.686812 -86.216235 
L 74.75934 -86.477215 
L 74.830993 -86.738195 
L 74.901583 -86.999176 
L 74.970939 -87.260156 
L 75.038901 -87.521136 
L 75.105328 -87.782117 
L 75.17009 -88.043097 
L 75.233076 -88.304077 
L 75.294188 -88.565057 
L 75.353346 -88.826038 
L 75.410485 -89.087018 
L 75.465556 -89.347998 
L 75.518525 -89.608979 
L 75.569375 -89.869959 
L 75.618104 -90.130939 
L 75.664725 -90.391919 
L 75.709265 -90.6529 
L 75.751767 -90.91388 
L 75.792288 -91.17486 
L 75.830896 -91.435841 
L 75.867675 -91.696821 
L 75.902717 -91.957801 
L 75.936129 -92.218781 
L 75.968026 -92.479762 
L 75.998533 -92.740742 
L 76.027784 -93.001722 
L 76.055922 -93.262703 
L 76.083092 -93.523683 
L 76.10945 -93.784663 
L 76.135153 -94.045643 
L 76.160362 -94.306624 
L 76.185239 -94.567604 
L 76.209949 -94.828584 
L 76.234656 -95.089565 
L 76.259521 -95.350545 
L 76.284704 -95.611525 
L 76.310361 -95.872506 
L 76.336642 -96.133486 
L 76.363692 -96.394466 
L 76.39165 -96.655446 
L 76.420643 -96.916427 
L 76.450794 -97.177407 
L 76.482212 -97.438387 
L 76.514998 -97.699368 
L 76.549241 -97.960348 
L 76.585018 -98.221328 
L 76.622394 -98.482308 
L 76.66142 -98.743289 
L 76.702134 -99.004269 
L 76.744564 -99.265249 
L 76.788719 -99.52623 
L 76.8346 -99.78721 
L 76.882191 -100.04819 
L 76.931465 -100.30917 
L 76.982381 -100.570151 
L 82.214222 -100.570151 
L 82.214222 -100.570151 
L 82.265138 -100.30917 
L 82.314412 -100.04819 
L 82.362003 -99.78721 
L 82.407884 -99.52623 
L 82.452039 -99.265249 
L 82.494468 -99.004269 
L 82.535183 -98.743289 
L 82.574209 -98.482308 
L 82.611585 -98.221328 
L 82.647362 -97.960348 
L 82.681605 -97.699368 
L 82.714391 -97.438387 
L 82.745809 -97.177407 
L 82.77596 -96.916427 
L 82.804953 -96.655446 
L 82.832911 -96.394466 
L 82.859961 -96.133486 
L 82.886242 -95.872506 
L 82.911899 -95.611525 
L 82.937082 -95.350545 
L 82.961947 -95.089565 
L 82.986654 -94.828584 
L 83.011364 -94.567604 
L 83.036241 -94.306624 
L 83.06145 -94.045643 
L 83.087153 -93.784663 
L 83.11351 -93.523683 
L 83.140681 -93.262703 
L 83.168819 -93.001722 
L 83.19807 -92.740742 
L 83.228577 -92.479762 
L 83.260474 -92.218781 
L 83.293886 -91.957801 
L 83.328928 -91.696821 
L 83.365706 -91.435841 
L 83.404315 -91.17486 
L 83.444836 -90.91388 
L 83.487338 -90.6529 
L 83.531878 -90.391919 
L 83.578499 -90.130939 
L 83.627228 -89.869959 
L 83.678078 -89.608979 
L 83.731047 -89.347998 
L 83.786118 -89.087018 
L 83.843256 -88.826038 
L 83.902415 -88.565057 
L 83.963527 -88.304077 
L 84.026513 -88.043097 
L 84.091275 -87.782117 
L 84.157702 -87.521136 
L 84.225664 -87.260156 
L 84.29502 -86.999176 
L 84.36561 -86.738195 
L 84.437263 -86.477215 
L 84.509791 -86.216235 
L 84.582995 -85.955254 
L 84.656662 -85.694274 
L 84.730568 -85.433294 
L 84.804476 -85.172314 
L 84.878142 -84.911333 
L 84.951308 -84.650353 
L 85.023711 -84.389373 
L 85.095079 -84.128392 
L 85.165136 -83.867412 
L 85.233598 -83.606432 
L 85.30018 -83.345452 
L 85.364592 -83.084471 
L 85.426546 -82.823491 
L 85.485751 -82.562511 
L 85.541922 -82.30153 
L 85.594773 -82.04055 
L 85.644027 -81.77957 
L 85.68941 -81.51859 
L 85.730658 -81.257609 
L 85.767516 -80.996629 
L 85.79974 -80.735649 
L 85.827098 -80.474668 
L 85.849373 -80.213688 
L 85.866364 -79.952708 
L 85.877883 -79.691728 
L 85.883765 -79.430747 
L 85.883861 -79.169767 
L 85.878043 -78.908787 
L 85.866205 -78.647806 
L 85.848262 -78.386826 
L 85.824154 -78.125846 
L 85.793843 -77.864865 
L 85.757314 -77.603885 
L 85.714579 -77.342905 
L 85.665673 -77.081925 
L 85.610657 -76.820944 
L 85.549615 -76.559964 
L 85.482655 -76.298984 
L 85.409911 -76.038003 
L 85.331538 -75.777023 
L 85.247716 -75.516043 
L 85.158642 -75.255063 
L 85.064539 -74.994082 
L 84.965645 -74.733102 
z
" style="stroke: #999999; stroke-width: 2"/>
    </defs>
    <g clip-path="url(#p3a98dccd08)">
     <use xlink:href="#m9d81f025b2" x="0" y="255.11811" style="fill: #ffffff; stroke: #999999; stroke-width: 2"/>
    </g>
   </g>
   <g id="PolyCollection_2">
    <defs>
     <path id="m4ce9b9b6fa" d="M 148.596286 -49.837187 
L 140.113522 -49.837187 
L 139.998358 -49.978621 
L 139.88243 -50.120054 
L 139.765571 -50.261488 
L 139.64759 -50.402922 
L 139.528282 -50.544355 
L 139.407431 -50.685789 
L 139.284805 -50.827223 
L 139.160168 -50.968656 
L 139.033279 -51.11009 
L 138.903896 -51.251524 
L 138.77178 -51.392958 
L 138.636699 -51.534391 
L 138.498431 -51.675825 
L 138.35677 -51.817259 
L 138.211529 -51.958692 
L 138.062543 -52.100126 
L 137.909674 -52.24156 
L 137.752815 -52.382994 
L 137.591893 -52.524427 
L 137.426869 -52.665861 
L 137.25775 -52.807295 
L 137.08458 -52.948728 
L 136.907452 -53.090162 
L 136.726505 -53.231596 
L 136.541926 -53.37303 
L 136.353953 -53.514463 
L 136.162871 -53.655897 
L 135.969018 -53.797331 
L 135.77278 -53.938764 
L 135.574593 -54.080198 
L 135.374937 -54.221632 
L 135.174339 -54.363065 
L 134.973367 -54.504499 
L 134.772626 -54.645933 
L 134.572758 -54.787367 
L 134.374433 -54.9288 
L 134.178347 -55.070234 
L 133.985216 -55.211668 
L 133.795772 -55.353101 
L 133.610754 -55.494535 
L 133.430902 -55.635969 
L 133.256955 -55.777403 
L 133.089638 -55.918836 
L 132.92966 -56.06027 
L 132.777705 -56.201704 
L 132.634427 -56.343137 
L 132.500443 -56.484571 
L 132.376324 -56.626005 
L 132.262596 -56.767438 
L 132.159727 -56.908872 
L 132.068126 -57.050306 
L 131.988142 -57.19174 
L 131.920052 -57.333173 
L 131.864067 -57.474607 
L 131.820323 -57.616041 
L 131.788884 -57.757474 
L 131.769742 -57.898908 
L 131.762812 -58.040342 
L 131.767941 -58.181776 
L 131.784904 -58.323209 
L 131.81341 -58.464643 
L 131.853107 -58.606077 
L 131.903584 -58.74751 
L 131.964377 -58.888944 
L 132.034977 -59.030378 
L 132.114834 -59.171811 
L 132.203367 -59.313245 
L 132.299967 -59.454679 
L 132.404011 -59.596113 
L 132.514863 -59.737546 
L 132.631886 -59.87898 
L 132.75445 -60.020414 
L 132.881936 -60.161847 
L 133.013747 -60.303281 
L 133.149311 -60.444715 
L 133.28809 -60.586149 
L 133.429583 -60.727582 
L 133.573335 -60.869016 
L 133.718933 -61.01045 
L 133.866019 -61.151883 
L 134.014282 -61.293317 
L 134.163468 -61.434751 
L 134.313374 -61.576185 
L 134.46385 -61.717618 
L 134.614799 -61.859052 
L 134.76617 -62.000486 
L 134.91796 -62.141919 
L 135.070206 -62.283353 
L 135.222983 -62.424787 
L 135.3764 -62.56622 
L 135.530588 -62.707654 
L 135.685704 -62.849088 
L 135.841917 -62.990522 
L 135.999404 -63.131955 
L 136.158345 -63.273389 
L 136.318919 -63.414823 
L 136.481291 -63.556256 
L 136.645615 -63.69769 
L 136.812022 -63.839124 
L 151.897787 -63.839124 
L 151.897787 -63.839124 
L 152.064194 -63.69769 
L 152.228518 -63.556256 
L 152.39089 -63.414823 
L 152.551463 -63.273389 
L 152.710405 -63.131955 
L 152.867892 -62.990522 
L 153.024104 -62.849088 
L 153.17922 -62.707654 
L 153.333409 -62.56622 
L 153.486825 -62.424787 
L 153.639603 -62.283353 
L 153.791849 -62.141919 
L 153.943639 -62.000486 
L 154.09501 -61.859052 
L 154.245959 -61.717618 
L 154.396435 -61.576185 
L 154.546341 -61.434751 
L 154.695527 -61.293317 
L 154.84379 -61.151883 
L 154.990875 -61.01045 
L 155.136474 -60.869016 
L 155.280225 -60.727582 
L 155.421719 -60.586149 
L 155.560498 -60.444715 
L 155.696062 -60.303281 
L 155.827873 -60.161847 
L 155.955359 -60.020414 
L 156.077923 -59.87898 
L 156.194946 -59.737546 
L 156.305798 -59.596113 
L 156.409842 -59.454679 
L 156.506442 -59.313245 
L 156.594975 -59.171811 
L 156.674832 -59.030378 
L 156.745432 -58.888944 
L 156.806225 -58.74751 
L 156.856702 -58.606077 
L 156.896399 -58.464643 
L 156.924905 -58.323209 
L 156.941868 -58.181776 
L 156.946997 -58.040342 
L 156.940067 -57.898908 
L 156.920924 -57.757474 
L 156.889486 -57.616041 
L 156.845742 -57.474607 
L 156.789756 -57.333173 
L 156.721667 -57.19174 
L 156.641682 -57.050306 
L 156.550082 -56.908872 
L 156.447213 -56.767438 
L 156.333484 -56.626005 
L 156.209366 -56.484571 
L 156.075382 -56.343137 
L 155.932104 -56.201704 
L 155.780149 -56.06027 
L 155.620171 -55.918836 
L 155.452854 -55.777403 
L 155.278907 -55.635969 
L 155.099055 -55.494535 
L 154.914037 -55.353101 
L 154.724593 -55.211668 
L 154.531462 -55.070234 
L 154.335376 -54.9288 
L 154.137051 -54.787367 
L 153.937182 -54.645933 
L 153.736442 -54.504499 
L 153.535469 -54.363065 
L 153.334872 -54.221632 
L 153.135216 -54.080198 
L 152.937029 -53.938764 
L 152.740791 -53.797331 
L 152.546938 -53.655897 
L 152.355856 -53.514463 
L 152.167882 -53.37303 
L 151.983303 -53.231596 
L 151.802356 -53.090162 
L 151.625229 -52.948728 
L 151.452059 -52.807295 
L 151.282939 -52.665861 
L 151.117916 -52.524427 
L 150.956993 -52.382994 
L 150.800135 -52.24156 
L 150.647266 -52.100126 
L 150.49828 -51.958692 
L 150.353039 -51.817259 
L 150.211378 -51.675825 
L 150.07311 -51.534391 
L 149.938029 -51.392958 
L 149.805912 -51.251524 
L 149.676529 -51.11009 
L 149.54964 -50.968656 
L 149.425004 -50.827223 
L 149.302378 -50.685789 
L 149.181526 -50.544355 
L 149.062219 -50.402922 
L 148.944238 -50.261488 
L 148.827378 -50.120054 
L 148.711451 -49.978621 
L 148.596286 -49.837187 
z
" style="stroke: #999999; stroke-width: 2"/>
    </defs>
    <g clip-path="url(#p3a98dccd08)">
     <use xlink:href="#m4ce9b9b6fa" x="0" y="255.11811" style="fill: #ffffff; stroke: #999999; stroke-width: 2"/>
    </g>
   </g>
   <g id="PolyCollection_3">
    <defs>
     <path id="mbebae029d5" d="M 211.065892 -137.196729 
L 207.157123 -137.196729 
L 207.099808 -138.055155 
L 207.044131 -138.913581 
L 206.990281 -139.772007 
L 206.938441 -140.630434 
L 206.888786 -141.48886 
L 206.841483 -142.347286 
L 206.796691 -143.205712 
L 206.754554 -144.064139 
L 206.715211 -144.922565 
L 206.678786 -145.780991 
L 206.645392 -146.639417 
L 206.61513 -147.497843 
L 206.588088 -148.35627 
L 206.564342 -149.214696 
L 206.543955 -150.073122 
L 206.526978 -150.931548 
L 206.513449 -151.789974 
L 206.503392 -152.648401 
L 206.496821 -153.506827 
L 206.493738 -154.365253 
L 206.494131 -155.223679 
L 206.49798 -156.082105 
L 206.50525 -156.940532 
L 206.515899 -157.798958 
L 206.529872 -158.657384 
L 206.547107 -159.51581 
L 206.567528 -160.374236 
L 206.591054 -161.232663 
L 206.617593 -162.091089 
L 206.647044 -162.949515 
L 206.6793 -163.807941 
L 206.714244 -164.666368 
L 206.751751 -165.524794 
L 206.791691 -166.38322 
L 206.833926 -167.241646 
L 206.87831 -168.100072 
L 206.924693 -168.958499 
L 206.972918 -169.816925 
L 207.022824 -170.675351 
L 207.074243 -171.533777 
L 207.127004 -172.392203 
L 207.180931 -173.25063 
L 207.235848 -174.109056 
L 207.291571 -174.967482 
L 207.347919 -175.825908 
L 207.404707 -176.684334 
L 207.46175 -177.542761 
L 207.518865 -178.401187 
L 207.575867 -179.259613 
L 207.632576 -180.118039 
L 207.688814 -180.976465 
L 207.744406 -181.834892 
L 207.799184 -182.693318 
L 207.852982 -183.551744 
L 207.905645 -184.41017 
L 207.957023 -185.268596 
L 208.006974 -186.127023 
L 208.055366 -186.985449 
L 208.102078 -187.843875 
L 208.146998 -188.702301 
L 208.190027 -189.560728 
L 208.231076 -190.419154 
L 208.270071 -191.27758 
L 208.306949 -192.136006 
L 208.34166 -192.994432 
L 208.37417 -193.852859 
L 208.404455 -194.711285 
L 208.432508 -195.569711 
L 208.458334 -196.428137 
L 208.48195 -197.286563 
L 208.50339 -198.14499 
L 208.522697 -199.003416 
L 208.539929 -199.861842 
L 208.555152 -200.720268 
L 208.568448 -201.578694 
L 208.579906 -202.437121 
L 208.589625 -203.295547 
L 208.597713 -204.153973 
L 208.604285 -205.012399 
L 208.609463 -205.870825 
L 208.613374 -206.729252 
L 208.616151 -207.587678 
L 208.617928 -208.446104 
L 208.618841 -209.30453 
L 208.61903 -210.162957 
L 208.618631 -211.021383 
L 208.617781 -211.879809 
L 208.616614 -212.738235 
L 208.615259 -213.596661 
L 208.613842 -214.455088 
L 208.612483 -215.313514 
L 208.611295 -216.17194 
L 208.610385 -217.030366 
L 208.60985 -217.888792 
L 208.60978 -218.747219 
L 208.610254 -219.605645 
L 208.611344 -220.464071 
L 208.61311 -221.322497 
L 208.615601 -222.180923 
L 209.607414 -222.180923 
L 209.607414 -222.180923 
L 209.609905 -221.322497 
L 209.611671 -220.464071 
L 209.61276 -219.605645 
L 209.613235 -218.747219 
L 209.613165 -217.888792 
L 209.61263 -217.030366 
L 209.611719 -216.17194 
L 209.610532 -215.313514 
L 209.609173 -214.455088 
L 209.607756 -213.596661 
L 209.606401 -212.738235 
L 209.605233 -211.879809 
L 209.604383 -211.021383 
L 209.603985 -210.162957 
L 209.604173 -209.30453 
L 209.605087 -208.446104 
L 209.606864 -207.587678 
L 209.60964 -206.729252 
L 209.613552 -205.870825 
L 209.61873 -205.012399 
L 209.625302 -204.153973 
L 209.633389 -203.295547 
L 209.643108 -202.437121 
L 209.654566 -201.578694 
L 209.667862 -200.720268 
L 209.683086 -199.861842 
L 209.700317 -199.003416 
L 209.719625 -198.14499 
L 209.741064 -197.286563 
L 209.764681 -196.428137 
L 209.790507 -195.569711 
L 209.81856 -194.711285 
L 209.848845 -193.852859 
L 209.881354 -192.994432 
L 209.916066 -192.136006 
L 209.952943 -191.27758 
L 209.991938 -190.419154 
L 210.032988 -189.560728 
L 210.076016 -188.702301 
L 210.120937 -187.843875 
L 210.167649 -186.985449 
L 210.216041 -186.127023 
L 210.265992 -185.268596 
L 210.317369 -184.41017 
L 210.370032 -183.551744 
L 210.423831 -182.693318 
L 210.478608 -181.834892 
L 210.534201 -180.976465 
L 210.590439 -180.118039 
L 210.647148 -179.259613 
L 210.70415 -178.401187 
L 210.761265 -177.542761 
L 210.818308 -176.684334 
L 210.875096 -175.825908 
L 210.931444 -174.967482 
L 210.987167 -174.109056 
L 211.042083 -173.25063 
L 211.096011 -172.392203 
L 211.148772 -171.533777 
L 211.200191 -170.675351 
L 211.250096 -169.816925 
L 211.298322 -168.958499 
L 211.344705 -168.100072 
L 211.389089 -167.241646 
L 211.431323 -166.38322 
L 211.471263 -165.524794 
L 211.508771 -164.666368 
L 211.543714 -163.807941 
L 211.57597 -162.949515 
L 211.605422 -162.091089 
L 211.631961 -161.232663 
L 211.655487 -160.374236 
L 211.675908 -159.51581 
L 211.693142 -158.657384 
L 211.707116 -157.798958 
L 211.717764 -156.940532 
L 211.725035 -156.082105 
L 211.728883 -155.223679 
L 211.729277 -154.365253 
L 211.726193 -153.506827 
L 211.719622 -152.648401 
L 211.709566 -151.789974 
L 211.696036 -150.931548 
L 211.679059 -150.073122 
L 211.658673 -149.214696 
L 211.634927 -148.35627 
L 211.607885 -147.497843 
L 211.577623 -146.639417 
L 211.544229 -145.780991 
L 211.507803 -144.922565 
L 211.46846 -144.064139 
L 211.426324 -143.205712 
L 211.381531 -142.347286 
L 211.334229 -141.48886 
L 211.284574 -140.630434 
L 211.232734 -139.772007 
L 211.178884 -138.913581 
L 211.123207 -138.055155 
L 211.065892 -137.196729 
z
" style="stroke: #999999; stroke-width: 2"/>
    </defs>
    <g clip-path="url(#p3a98dccd08)">
     <use xlink:href="#mbebae029d5" x="0" y="255.11811" style="fill: #ffffff; stroke: #999999; stroke-width: 2"/>
    </g>
   </g>
   <g id="PolyCollection_4">
    <defs>
     <path id="m74879119e3" d="M 275.706298 -98.958117 
L 272.029922 -98.958117 
L 272.002363 -99.755358 
L 271.977114 -100.552598 
L 271.954262 -101.349838 
L 271.93388 -102.147079 
L 271.916033 -102.944319 
L 271.90077 -103.741559 
L 271.888129 -104.5388 
L 271.878133 -105.33604 
L 271.870793 -106.13328 
L 271.866105 -106.930521 
L 271.864051 -107.727761 
L 271.8646 -108.525001 
L 271.867706 -109.322242 
L 271.87331 -110.119482 
L 271.88134 -110.916722 
L 271.891712 -111.713963 
L 271.904329 -112.511203 
L 271.919083 -113.308443 
L 271.935855 -114.105684 
L 271.954517 -114.902924 
L 271.97493 -115.700164 
L 271.996949 -116.497405 
L 272.020421 -117.294645 
L 272.045187 -118.091885 
L 272.071085 -118.889126 
L 272.097947 -119.686366 
L 272.125604 -120.483606 
L 272.153884 -121.280847 
L 272.182616 -122.078087 
L 272.21163 -122.875327 
L 272.240758 -123.672568 
L 272.269836 -124.469808 
L 272.298702 -125.267048 
L 272.327201 -126.064289 
L 272.355186 -126.861529 
L 272.382514 -127.658769 
L 272.409051 -128.45601 
L 272.434674 -129.25325 
L 272.459268 -130.05049 
L 272.482727 -130.847731 
L 272.504959 -131.644971 
L 272.52588 -132.442211 
L 272.54542 -133.239452 
L 272.56352 -134.036692 
L 272.580133 -134.833932 
L 272.595224 -135.631173 
L 272.608771 -136.428413 
L 272.620764 -137.225653 
L 272.631204 -138.022894 
L 272.640104 -138.820134 
L 272.647491 -139.617374 
L 272.653398 -140.414615 
L 272.657874 -141.211855 
L 272.660973 -142.009095 
L 272.662761 -142.806336 
L 272.663314 -143.603576 
L 272.662713 -144.400816 
L 272.661048 -145.198057 
L 272.658415 -145.995297 
L 272.654916 -146.792537 
L 272.650658 -147.589778 
L 272.645751 -148.387018 
L 272.64031 -149.184258 
L 272.634451 -149.981499 
L 272.62829 -150.778739 
L 272.621947 -151.575979 
L 272.61554 -152.37322 
L 272.609185 -153.17046 
L 272.602997 -153.9677 
L 272.59709 -154.764941 
L 272.591571 -155.562181 
L 272.586547 -156.359421 
L 272.582119 -157.156662 
L 272.57838 -157.953902 
L 272.575422 -158.751142 
L 272.573327 -159.548383 
L 272.572172 -160.345623 
L 272.572028 -161.142863 
L 272.572957 -161.940104 
L 272.575014 -162.737344 
L 272.578246 -163.534584 
L 272.582692 -164.331825 
L 272.588384 -165.129065 
L 272.595345 -165.926305 
L 272.60359 -166.723546 
L 272.613128 -167.520786 
L 272.623958 -168.318026 
L 272.636071 -169.115267 
L 272.649455 -169.912507 
L 272.664085 -170.709747 
L 272.679934 -171.506988 
L 272.696967 -172.304228 
L 272.715142 -173.101468 
L 272.734413 -173.898709 
L 272.754729 -174.695949 
L 272.776032 -175.493189 
L 272.798263 -176.29043 
L 272.821358 -177.08767 
L 272.845248 -177.88491 
L 274.890972 -177.88491 
L 274.890972 -177.88491 
L 274.914863 -177.08767 
L 274.937957 -176.29043 
L 274.960188 -175.493189 
L 274.981492 -174.695949 
L 275.001807 -173.898709 
L 275.021078 -173.101468 
L 275.039254 -172.304228 
L 275.056286 -171.506988 
L 275.072135 -170.709747 
L 275.086766 -169.912507 
L 275.100149 -169.115267 
L 275.112263 -168.318026 
L 275.123093 -167.520786 
L 275.13263 -166.723546 
L 275.140876 -165.926305 
L 275.147837 -165.129065 
L 275.153529 -164.331825 
L 275.157975 -163.534584 
L 275.161206 -162.737344 
L 275.163263 -161.940104 
L 275.164192 -161.142863 
L 275.164048 -160.345623 
L 275.162894 -159.548383 
L 275.160799 -158.751142 
L 275.157841 -157.953902 
L 275.154102 -157.156662 
L 275.149673 -156.359421 
L 275.144649 -155.562181 
L 275.139131 -154.764941 
L 275.133223 -153.9677 
L 275.127035 -153.17046 
L 275.12068 -152.37322 
L 275.114273 -151.575979 
L 275.10793 -150.778739 
L 275.10177 -149.981499 
L 275.09591 -149.184258 
L 275.090469 -148.387018 
L 275.085563 -147.589778 
L 275.081305 -146.792537 
L 275.077806 -145.995297 
L 275.075173 -145.198057 
L 275.073508 -144.400816 
L 275.072907 -143.603576 
L 275.073459 -142.806336 
L 275.075248 -142.009095 
L 275.078347 -141.211855 
L 275.082822 -140.414615 
L 275.08873 -139.617374 
L 275.096116 -138.820134 
L 275.105017 -138.022894 
L 275.115457 -137.225653 
L 275.12745 -136.428413 
L 275.140997 -135.631173 
L 275.156088 -134.833932 
L 275.172701 -134.036692 
L 275.190801 -133.239452 
L 275.210341 -132.442211 
L 275.231262 -131.644971 
L 275.253493 -130.847731 
L 275.276953 -130.05049 
L 275.301546 -129.25325 
L 275.327169 -128.45601 
L 275.353707 -127.658769 
L 275.381035 -126.861529 
L 275.409019 -126.064289 
L 275.437519 -125.267048 
L 275.466385 -124.469808 
L 275.495462 -123.672568 
L 275.52459 -122.875327 
L 275.553605 -122.078087 
L 275.582337 -121.280847 
L 275.610617 -120.483606 
L 275.638273 -119.686366 
L 275.665135 -118.889126 
L 275.691033 -118.091885 
L 275.7158 -117.294645 
L 275.739272 -116.497405 
L 275.761291 -115.700164 
L 275.781704 -114.902924 
L 275.800365 -114.105684 
L 275.817137 -113.308443 
L 275.831891 -112.511203 
L 275.844508 -111.713963 
L 275.85488 -110.916722 
L 275.862911 -110.119482 
L 275.868515 -109.322242 
L 275.87162 -108.525001 
L 275.872169 -107.727761 
L 275.870115 -106.930521 
L 275.865427 -106.13328 
L 275.858087 -105.33604 
L 275.848092 -104.5388 
L 275.835451 -103.741559 
L 275.820188 -102.944319 
L 275.80234 -102.147079 
L 275.781959 -101.349838 
L 275.759106 -100.552598 
L 275.733857 -99.755358 
L 275.706298 -98.958117 
z
" style="stroke: #999999; stroke-width: 2"/>
    </defs>
    <g clip-path="url(#p3a98dccd08)">
     <use xlink:href="#m74879119e3" x="0" y="255.11811" style="fill: #ffffff; stroke: #999999; stroke-width: 2"/>
    </g>
   </g>
   <g id="PolyCollection_5">
    <defs>
     <path id="m952dbcba7b" d="M 359.070696 -52.556618 
L 318.17873 -52.556618 
L 317.922138 -52.603537 
L 317.676136 -52.650455 
L 317.440729 -52.697374 
L 317.215878 -52.744293 
L 317.001501 -52.791212 
L 316.79747 -52.838131 
L 316.60362 -52.88505 
L 316.419745 -52.931969 
L 316.245604 -52.978888 
L 316.080922 -53.025807 
L 315.925391 -53.072725 
L 315.778677 -53.119644 
L 315.64042 -53.166563 
L 315.510239 -53.213482 
L 315.387734 -53.260401 
L 315.272488 -53.30732 
L 315.164074 -53.354239 
L 315.062056 -53.401158 
L 314.965993 -53.448077 
L 314.875442 -53.494995 
L 314.789962 -53.541914 
L 314.709115 -53.588833 
L 314.632472 -53.635752 
L 314.559614 -53.682671 
L 314.490135 -53.72959 
L 314.423645 -53.776509 
L 314.35977 -53.823428 
L 314.29816 -53.870346 
L 314.238482 -53.917265 
L 314.18043 -53.964184 
L 314.123722 -54.011103 
L 314.068102 -54.058022 
L 314.01334 -54.104941 
L 313.959236 -54.15186 
L 313.905617 -54.198779 
L 313.852339 -54.245698 
L 313.799287 -54.292616 
L 313.746374 -54.339535 
L 313.693543 -54.386454 
L 313.640764 -54.433373 
L 313.588034 -54.480292 
L 313.535379 -54.527211 
L 313.48285 -54.57413 
L 313.430523 -54.621049 
L 313.378498 -54.667968 
L 313.3269 -54.714886 
L 313.275874 -54.761805 
L 313.225588 -54.808724 
L 313.176229 -54.855643 
L 313.128002 -54.902562 
L 313.081133 -54.949481 
L 313.03586 -54.9964 
L 312.992439 -55.043319 
L 312.95114 -55.090238 
L 312.912245 -55.137156 
L 312.876048 -55.184075 
L 312.842857 -55.230994 
L 312.812984 -55.277913 
L 312.786755 -55.324832 
L 312.764501 -55.371751 
L 312.74656 -55.41867 
L 312.733275 -55.465589 
L 312.724995 -55.512508 
L 312.722072 -55.559426 
L 312.724859 -55.606345 
L 312.733713 -55.653264 
L 312.748988 -55.700183 
L 312.771039 -55.747102 
L 312.800219 -55.794021 
L 312.836876 -55.84094 
L 312.881354 -55.887859 
L 312.933992 -55.934777 
L 312.995121 -55.981696 
L 313.065061 -56.028615 
L 313.144125 -56.075534 
L 313.232612 -56.122453 
L 313.330809 -56.169372 
L 313.438985 -56.216291 
L 313.557396 -56.26321 
L 313.686277 -56.310129 
L 313.825845 -56.357047 
L 313.976294 -56.403966 
L 314.137796 -56.450885 
L 314.310497 -56.497804 
L 314.494517 -56.544723 
L 314.689951 -56.591642 
L 314.89686 -56.638561 
L 315.115279 -56.68548 
L 315.345209 -56.732399 
L 315.58662 -56.779317 
L 315.839448 -56.826236 
L 316.103595 -56.873155 
L 316.378928 -56.920074 
L 316.665279 -56.966993 
L 316.962445 -57.013912 
L 317.270187 -57.060831 
L 317.588231 -57.10775 
L 317.916269 -57.154669 
L 318.253958 -57.201587 
L 358.995468 -57.201587 
L 358.995468 -57.201587 
L 359.333157 -57.154669 
L 359.661195 -57.10775 
L 359.979239 -57.060831 
L 360.286981 -57.013912 
L 360.584147 -56.966993 
L 360.870498 -56.920074 
L 361.145831 -56.873155 
L 361.409978 -56.826236 
L 361.662806 -56.779317 
L 361.904217 -56.732399 
L 362.134148 -56.68548 
L 362.352567 -56.638561 
L 362.559476 -56.591642 
L 362.754909 -56.544723 
L 362.938929 -56.497804 
L 363.11163 -56.450885 
L 363.273132 -56.403966 
L 363.423581 -56.357047 
L 363.563149 -56.310129 
L 363.69203 -56.26321 
L 363.810441 -56.216291 
L 363.918618 -56.169372 
L 364.016814 -56.122453 
L 364.105301 -56.075534 
L 364.184365 -56.028615 
L 364.254306 -55.981696 
L 364.315434 -55.934777 
L 364.368072 -55.887859 
L 364.412551 -55.84094 
L 364.449208 -55.794021 
L 364.478387 -55.747102 
L 364.500438 -55.700183 
L 364.515713 -55.653264 
L 364.524567 -55.606345 
L 364.527354 -55.559426 
L 364.524431 -55.512508 
L 364.516151 -55.465589 
L 364.502867 -55.41867 
L 364.484925 -55.371751 
L 364.462671 -55.324832 
L 364.436442 -55.277913 
L 364.40657 -55.230994 
L 364.373378 -55.184075 
L 364.337182 -55.137156 
L 364.298287 -55.090238 
L 364.256988 -55.043319 
L 364.213567 -54.9964 
L 364.168294 -54.949481 
L 364.121424 -54.902562 
L 364.073198 -54.855643 
L 364.023838 -54.808724 
L 363.973552 -54.761805 
L 363.922527 -54.714886 
L 363.870928 -54.667968 
L 363.818903 -54.621049 
L 363.766576 -54.57413 
L 363.714047 -54.527211 
L 363.661392 -54.480292 
L 363.608663 -54.433373 
L 363.555883 -54.386454 
L 363.503052 -54.339535 
L 363.450139 -54.292616 
L 363.397087 -54.245698 
L 363.343809 -54.198779 
L 363.29019 -54.15186 
L 363.236086 -54.104941 
L 363.181324 -54.058022 
L 363.125704 -54.011103 
L 363.068996 -53.964184 
L 363.010944 -53.917265 
L 362.951266 -53.870346 
L 362.889656 -53.823428 
L 362.825782 -53.776509 
L 362.759291 -53.72959 
L 362.689812 -53.682671 
L 362.616955 -53.635752 
L 362.540312 -53.588833 
L 362.459465 -53.541914 
L 362.373984 -53.494995 
L 362.283433 -53.448077 
L 362.187371 -53.401158 
L 362.085353 -53.354239 
L 361.976939 -53.30732 
L 361.861693 -53.260401 
L 361.739187 -53.213482 
L 361.609006 -53.166563 
L 361.470749 -53.119644 
L 361.324036 -53.072725 
L 361.168505 -53.025807 
L 361.003822 -52.978888 
L 360.829681 -52.931969 
L 360.645806 -52.88505 
L 360.451956 -52.838131 
L 360.247926 -52.791212 
L 360.033548 -52.744293 
L 359.808697 -52.697374 
L 359.57329 -52.650455 
L 359.327288 -52.603537 
L 359.070696 -52.556618 
z
" style="stroke: #999999; stroke-width: 2"/>
    </defs>
    <g clip-path="url(#p3a98dccd08)">
     <use xlink:href="#m952dbcba7b" x="0" y="255.11811" style="fill: #ffffff; stroke: #999999; stroke-width: 2"/>
    </g>
   </g>
   <g id="PolyCollection_6">
    <defs>
     <path id="m927d2ac8f9" d="M 406.959791 -148.507148 
L 399.802841 -148.507148 
L 399.655548 -148.72308 
L 399.504035 -148.939011 
L 399.348233 -149.154943 
L 399.188102 -149.370875 
L 399.023636 -149.586806 
L 398.854869 -149.802738 
L 398.681881 -150.01867 
L 398.5048 -150.234601 
L 398.323812 -150.450533 
L 398.139156 -150.666464 
L 397.951138 -150.882396 
L 397.760123 -151.098328 
L 397.566543 -151.314259 
L 397.370894 -151.530191 
L 397.173735 -151.746123 
L 396.975689 -151.962054 
L 396.777434 -152.177986 
L 396.579704 -152.393918 
L 396.383283 -152.609849 
L 396.188993 -152.825781 
L 395.997692 -153.041713 
L 395.810265 -153.257644 
L 395.627611 -153.473576 
L 395.450634 -153.689508 
L 395.280238 -153.905439 
L 395.117309 -154.121371 
L 394.962707 -154.337302 
L 394.817258 -154.553234 
L 394.681738 -154.769166 
L 394.556868 -154.985097 
L 394.443303 -155.201029 
L 394.341624 -155.416961 
L 394.252327 -155.632892 
L 394.175823 -155.848824 
L 394.112428 -156.064756 
L 394.06236 -156.280687 
L 394.02574 -156.496619 
L 394.002585 -156.712551 
L 393.992815 -156.928482 
L 393.99625 -157.144414 
L 394.012617 -157.360346 
L 394.041552 -157.576277 
L 394.082605 -157.792209 
L 394.135252 -158.00814 
L 394.198897 -158.224072 
L 394.272883 -158.440004 
L 394.356503 -158.655935 
L 394.449005 -158.871867 
L 394.549606 -159.087799 
L 394.657502 -159.30373 
L 394.771874 -159.519662 
L 394.891901 -159.735594 
L 395.016771 -159.951525 
L 395.145682 -160.167457 
L 395.27786 -160.383389 
L 395.412558 -160.59932 
L 395.549069 -160.815252 
L 395.686724 -161.031184 
L 395.824906 -161.247115 
L 395.963046 -161.463047 
L 396.100628 -161.678978 
L 396.237195 -161.89491 
L 396.372342 -162.110842 
L 396.505722 -162.326773 
L 396.637046 -162.542705 
L 396.766077 -162.758637 
L 396.892631 -162.974568 
L 397.016574 -163.1905 
L 397.137821 -163.406432 
L 397.256328 -163.622363 
L 397.372093 -163.838295 
L 397.48515 -164.054227 
L 397.595568 -164.270158 
L 397.703442 -164.48609 
L 397.808894 -164.702022 
L 397.912066 -164.917953 
L 398.013119 -165.133885 
L 398.112228 -165.349816 
L 398.209578 -165.565748 
L 398.305362 -165.78168 
L 398.399779 -165.997611 
L 398.493029 -166.213543 
L 398.585311 -166.429475 
L 398.676821 -166.645406 
L 398.767751 -166.861338 
L 398.858286 -167.07727 
L 398.948601 -167.293201 
L 399.038861 -167.509133 
L 399.12922 -167.725065 
L 399.219817 -167.940996 
L 399.310777 -168.156928 
L 399.402211 -168.37286 
L 399.49421 -168.588791 
L 399.586851 -168.804723 
L 399.680191 -169.020654 
L 399.774269 -169.236586 
L 399.869105 -169.452518 
L 399.964701 -169.668449 
L 400.061038 -169.884381 
L 406.701595 -169.884381 
L 406.701595 -169.884381 
L 406.797931 -169.668449 
L 406.893527 -169.452518 
L 406.988363 -169.236586 
L 407.082441 -169.020654 
L 407.175781 -168.804723 
L 407.268422 -168.588791 
L 407.360422 -168.37286 
L 407.451855 -168.156928 
L 407.542815 -167.940996 
L 407.633412 -167.725065 
L 407.723771 -167.509133 
L 407.814031 -167.293201 
L 407.904346 -167.07727 
L 407.994881 -166.861338 
L 408.085811 -166.645406 
L 408.177321 -166.429475 
L 408.269603 -166.213543 
L 408.362853 -165.997611 
L 408.45727 -165.78168 
L 408.553054 -165.565748 
L 408.650405 -165.349816 
L 408.749513 -165.133885 
L 408.850566 -164.917953 
L 408.953739 -164.702022 
L 409.05919 -164.48609 
L 409.167064 -164.270158 
L 409.277482 -164.054227 
L 409.39054 -163.838295 
L 409.506305 -163.622363 
L 409.624811 -163.406432 
L 409.746058 -163.1905 
L 409.870001 -162.974568 
L 409.996555 -162.758637 
L 410.125586 -162.542705 
L 410.25691 -162.326773 
L 410.390291 -162.110842 
L 410.525437 -161.89491 
L 410.662004 -161.678978 
L 410.799587 -161.463047 
L 410.937726 -161.247115 
L 411.075908 -161.031184 
L 411.213564 -160.815252 
L 411.350074 -160.59932 
L 411.484772 -160.383389 
L 411.61695 -160.167457 
L 411.745861 -159.951525 
L 411.870731 -159.735594 
L 411.990759 -159.519662 
L 412.105131 -159.30373 
L 412.213026 -159.087799 
L 412.313628 -158.871867 
L 412.406129 -158.655935 
L 412.489749 -158.440004 
L 412.563735 -158.224072 
L 412.62738 -158.00814 
L 412.680027 -157.792209 
L 412.721081 -157.576277 
L 412.750015 -157.360346 
L 412.766382 -157.144414 
L 412.769817 -156.928482 
L 412.760047 -156.712551 
L 412.736892 -156.496619 
L 412.700272 -156.280687 
L 412.650204 -156.064756 
L 412.586809 -155.848824 
L 412.510305 -155.632892 
L 412.421008 -155.416961 
L 412.319329 -155.201029 
L 412.205764 -154.985097 
L 412.080894 -154.769166 
L 411.945374 -154.553234 
L 411.799925 -154.337302 
L 411.645323 -154.121371 
L 411.482394 -153.905439 
L 411.311998 -153.689508 
L 411.135022 -153.473576 
L 410.952367 -153.257644 
L 410.76494 -153.041713 
L 410.573639 -152.825781 
L 410.37935 -152.609849 
L 410.182928 -152.393918 
L 409.985199 -152.177986 
L 409.786944 -151.962054 
L 409.588897 -151.746123 
L 409.391738 -151.530191 
L 409.196089 -151.314259 
L 409.002509 -151.098328 
L 408.811494 -150.882396 
L 408.623476 -150.666464 
L 408.438821 -150.450533 
L 408.257832 -150.234601 
L 408.080751 -150.01867 
L 407.907763 -149.802738 
L 407.738996 -149.586806 
L 407.57453 -149.370875 
L 407.414399 -149.154943 
L 407.258597 -148.939011 
L 407.107084 -148.72308 
L 406.959791 -148.507148 
z
" style="stroke: #999999; stroke-width: 2"/>
    </defs>
    <g clip-path="url(#p3a98dccd08)">
     <use xlink:href="#m927d2ac8f9" x="0" y="255.11811" style="fill: #ffffff; stroke: #999999; stroke-width: 2"/>
    </g>
   </g>
   <g id="PolyCollection_7">
    <defs>
     <path id="mced92c30d1" d="M 471.332172 -74.758039 
L 464.943666 -74.758039 
L 464.91685 -75.118278 
L 464.892943 -75.478517 
L 464.871962 -75.838756 
L 464.853912 -76.198996 
L 464.838782 -76.559235 
L 464.826551 -76.919474 
L 464.817186 -77.279713 
L 464.810638 -77.639952 
L 464.806848 -78.000192 
L 464.805744 -78.360431 
L 464.807243 -78.72067 
L 464.811249 -79.080909 
L 464.817658 -79.441148 
L 464.826353 -79.801388 
L 464.837208 -80.161627 
L 464.85009 -80.521866 
L 464.864855 -80.882105 
L 464.881354 -81.242344 
L 464.899431 -81.602584 
L 464.918924 -81.962823 
L 464.939667 -82.323062 
L 464.96149 -82.683301 
L 464.98422 -83.04354 
L 465.007684 -83.40378 
L 465.031705 -83.764019 
L 465.05611 -84.124258 
L 465.080725 -84.484497 
L 465.105379 -84.844736 
L 465.129905 -85.204976 
L 465.154139 -85.565215 
L 465.177922 -85.925454 
L 465.201102 -86.285693 
L 465.223533 -86.645932 
L 465.245077 -87.006172 
L 465.265604 -87.366411 
L 465.284993 -87.72665 
L 465.303133 -88.086889 
L 465.319921 -88.447128 
L 465.335268 -88.807368 
L 465.349094 -89.167607 
L 465.361331 -89.527846 
L 465.371921 -89.888085 
L 465.380821 -90.248324 
L 465.387997 -90.608564 
L 465.39343 -90.968803 
L 465.397111 -91.329042 
L 465.399044 -91.689281 
L 465.399244 -92.04952 
L 465.397739 -92.40976 
L 465.394569 -92.769999 
L 465.389783 -93.130238 
L 465.383443 -93.490477 
L 465.37562 -93.850716 
L 465.366396 -94.210956 
L 465.355863 -94.571195 
L 465.344119 -94.931434 
L 465.331273 -95.291673 
L 465.317441 -95.651912 
L 465.302744 -96.012152 
L 465.287313 -96.372391 
L 465.271281 -96.73263 
L 465.254787 -97.092869 
L 465.237973 -97.453108 
L 465.220986 -97.813348 
L 465.203974 -98.173587 
L 465.187086 -98.533826 
L 465.170473 -98.894065 
L 465.154286 -99.254304 
L 465.138672 -99.614544 
L 465.123781 -99.974783 
L 465.109757 -100.335022 
L 465.096742 -100.695261 
L 465.084875 -101.0555 
L 465.074289 -101.41574 
L 465.065113 -101.775979 
L 465.057468 -102.136218 
L 465.051472 -102.496457 
L 465.047232 -102.856696 
L 465.04485 -103.216936 
L 465.04442 -103.577175 
L 465.046027 -103.937414 
L 465.049747 -104.297653 
L 465.055647 -104.657892 
L 465.063785 -105.018132 
L 465.074209 -105.378371 
L 465.086958 -105.73861 
L 465.10206 -106.098849 
L 465.119535 -106.459088 
L 465.139391 -106.819328 
L 465.161627 -107.179567 
L 465.186232 -107.539806 
L 465.213186 -107.900045 
L 465.24246 -108.260284 
L 465.274014 -108.620524 
L 465.307801 -108.980763 
L 465.343763 -109.341002 
L 465.381838 -109.701241 
L 465.421952 -110.06148 
L 465.464025 -110.42172 
L 470.811813 -110.42172 
L 470.811813 -110.42172 
L 470.853886 -110.06148 
L 470.894 -109.701241 
L 470.932075 -109.341002 
L 470.968037 -108.980763 
L 471.001824 -108.620524 
L 471.033378 -108.260284 
L 471.062652 -107.900045 
L 471.089606 -107.539806 
L 471.114211 -107.179567 
L 471.136447 -106.819328 
L 471.156303 -106.459088 
L 471.173778 -106.098849 
L 471.18888 -105.73861 
L 471.201629 -105.378371 
L 471.212053 -105.018132 
L 471.220191 -104.657892 
L 471.226091 -104.297653 
L 471.229811 -103.937414 
L 471.231418 -103.577175 
L 471.230988 -103.216936 
L 471.228606 -102.856696 
L 471.224366 -102.496457 
L 471.21837 -102.136218 
L 471.210725 -101.775979 
L 471.201549 -101.41574 
L 471.190963 -101.0555 
L 471.179096 -100.695261 
L 471.166081 -100.335022 
L 471.152057 -99.974783 
L 471.137166 -99.614544 
L 471.121552 -99.254304 
L 471.105365 -98.894065 
L 471.088752 -98.533826 
L 471.071864 -98.173587 
L 471.054852 -97.813348 
L 471.037865 -97.453108 
L 471.021051 -97.092869 
L 471.004557 -96.73263 
L 470.988525 -96.372391 
L 470.973094 -96.012152 
L 470.958397 -95.651912 
L 470.944565 -95.291673 
L 470.931719 -94.931434 
L 470.919975 -94.571195 
L 470.909442 -94.210956 
L 470.900218 -93.850716 
L 470.892395 -93.490477 
L 470.886055 -93.130238 
L 470.881269 -92.769999 
L 470.878099 -92.40976 
L 470.876594 -92.04952 
L 470.876794 -91.689281 
L 470.878727 -91.329042 
L 470.882408 -90.968803 
L 470.887841 -90.608564 
L 470.895017 -90.248324 
L 470.903917 -89.888085 
L 470.914507 -89.527846 
L 470.926744 -89.167607 
L 470.94057 -88.807368 
L 470.955917 -88.447128 
L 470.972705 -88.086889 
L 470.990845 -87.72665 
L 471.010234 -87.366411 
L 471.030761 -87.006172 
L 471.052305 -86.645932 
L 471.074736 -86.285693 
L 471.097916 -85.925454 
L 471.121699 -85.565215 
L 471.145933 -85.204976 
L 471.170459 -84.844736 
L 471.195113 -84.484497 
L 471.219728 -84.124258 
L 471.244133 -83.764019 
L 471.268154 -83.40378 
L 471.291618 -83.04354 
L 471.314348 -82.683301 
L 471.336171 -82.323062 
L 471.356914 -81.962823 
L 471.376407 -81.602584 
L 471.394484 -81.242344 
L 471.410983 -80.882105 
L 471.425748 -80.521866 
L 471.43863 -80.161627 
L 471.449485 -79.801388 
L 471.45818 -79.441148 
L 471.464589 -79.080909 
L 471.468595 -78.72067 
L 471.470094 -78.360431 
L 471.46899 -78.000192 
L 471.4652 -77.639952 
L 471.458652 -77.279713 
L 471.449287 -76.919474 
L 471.437056 -76.559235 
L 471.421927 -76.198996 
L 471.403876 -75.838756 
L 471.382895 -75.478517 
L 471.358988 -75.118278 
L 471.332172 -74.758039 
z
" style="stroke: #999999; stroke-width: 2"/>
    </defs>
    <g clip-path="url(#p3a98dccd08)">
     <use xlink:href="#mced92c30d1" x="0" y="255.11811" style="fill: #ffffff; stroke: #999999; stroke-width: 2"/>
    </g>
   </g>
   <g id="PathCollection_1"/>
   <g id="PathCollection_2"/>
   <g id="patch_3">
    <path d="M 47.22 213.89811 
L 47.22 24.32 
" style="fill: none; stroke: #262626; stroke-width: 1.25; stroke-linejoin: miter; stroke-linecap: square"/>
   </g>
   <g id="patch_4">
    <path d="M 47.22 213.89811 
L 500.51622 213.89811 
" style="fill: none; stroke: #262626; stroke-width: 1.25; stroke-linejoin: miter; stroke-linecap: square"/>
   </g>
   <g id="PathCollection_3">
    <defs>
     <path id="C0_0_b368391abc" d="M 0 2.5 
C 0.663008 2.5 1.29895 2.236584 1.767767 1.767767 
C 2.236584 1.29895 2.5 0.663008 2.5 -0 
C 2.5 -0.663008 2.236584 -1.29895 1.767767 -1.767767 
C 1.29895 -2.236584 0.663008 -2.5 0 -2.5 
C -0.663008 -2.5 -1.29895 -2.236584 -1.767767 -1.767767 
C -2.236584 -1.29895 -2.5 -0.663008 -2.5 0 
C -2.5 0.663008 -2.236584 1.29895 -1.767767 1.767767 
C -1.29895 2.236584 -0.663008 2.5 0 2.5 
z
"/>
    </defs>
    <g clip-path="url(#p3a98dccd08)">
     <use xlink:href="#C0_0_b368391abc" x="83.828455" y="180.385008" style="fill: #4c72b0; fill-opacity: 0.75"/>
    </g>
    <g clip-path="url(#p3a98dccd08)">
     <use xlink:href="#C0_0_b368391abc" x="80.25645" y="166.660898" style="fill: #4c72b0; fill-opacity: 0.75"/>
    </g>
    <g clip-path="url(#p3a98dccd08)">
     <use xlink:href="#C0_0_b368391abc" x="83.811511" y="154.547959" style="fill: #4c72b0; fill-opacity: 0.75"/>
    </g>
    <g clip-path="url(#p3a98dccd08)">
     <use xlink:href="#C0_0_b368391abc" x="77.480268" y="159.012024" style="fill: #4c72b0; fill-opacity: 0.75"/>
    </g>
    <g clip-path="url(#p3a98dccd08)">
     <use xlink:href="#C0_0_b368391abc" x="73.279012" y="171.796879" style="fill: #dd8452; fill-opacity: 0.75"/>
    </g>
    <g clip-path="url(#p3a98dccd08)">
     <use xlink:href="#C0_0_b368391abc" x="75.991824" y="175.744324" style="fill: #dd8452; fill-opacity: 0.75"/>
    </g>
    <g clip-path="url(#p3a98dccd08)">
     <use xlink:href="#C0_0_b368391abc" x="75.946987" y="176.026792" style="fill: #dd8452; fill-opacity: 0.75"/>
    </g>
    <g clip-path="url(#p3a98dccd08)">
     <use xlink:href="#C0_0_b368391abc" x="78.62246" y="180.344144" style="fill: #dd8452; fill-opacity: 0.75"/>
    </g>
   </g>
   <g id="PathCollection_4">
    <defs>
     <path id="C1_0_99ce2c90ed" d="M 0 2.5 
C 0.663008 2.5 1.29895 2.236584 1.767767 1.767767 
C 2.236584 1.29895 2.5 0.663008 2.5 -0 
C 2.5 -0.663008 2.236584 -1.29895 1.767767 -1.767767 
C 1.29895 -2.236584 0.663008 -2.5 0 -2.5 
C -0.663008 -2.5 -1.29895 -2.236584 -1.767767 -1.767767 
C -2.236584 -1.29895 -2.5 -0.663008 -2.5 0 
C -2.5 0.663008 -2.236584 1.29895 -1.767767 1.767767 
C -1.29895 2.236584 -0.663008 2.5 0 2.5 
z
"/>
    </defs>
    <g clip-path="url(#p3a98dccd08)">
     <use xlink:href="#C1_0_99ce2c90ed" x="142.999405" y="191.308313" style="fill: #4c72b0; fill-opacity: 0.75"/>
    </g>
    <g clip-path="url(#p3a98dccd08)">
     <use xlink:href="#C1_0_99ce2c90ed" x="139.349666" y="191.278986" style="fill: #4c72b0; fill-opacity: 0.75"/>
    </g>
    <g clip-path="url(#p3a98dccd08)">
     <use xlink:href="#C1_0_99ce2c90ed" x="139.085873" y="197.153188" style="fill: #4c72b0; fill-opacity: 0.75"/>
    </g>
    <g clip-path="url(#p3a98dccd08)">
     <use xlink:href="#C1_0_99ce2c90ed" x="150.360491" y="196.880372" style="fill: #4c72b0; fill-opacity: 0.75"/>
    </g>
    <g clip-path="url(#p3a98dccd08)">
     <use xlink:href="#C1_0_99ce2c90ed" x="143.430389" y="198.524031" style="fill: #dd8452; fill-opacity: 0.75"/>
    </g>
    <g clip-path="url(#p3a98dccd08)">
     <use xlink:href="#C1_0_99ce2c90ed" x="146.025213" y="195.822355" style="fill: #dd8452; fill-opacity: 0.75"/>
    </g>
    <g clip-path="url(#p3a98dccd08)">
     <use xlink:href="#C1_0_99ce2c90ed" x="139.073309" y="201.089293" style="fill: #dd8452; fill-opacity: 0.75"/>
    </g>
    <g clip-path="url(#p3a98dccd08)">
     <use xlink:href="#C1_0_99ce2c90ed" x="146.938936" y="205.280923" style="fill: #dd8452; fill-opacity: 0.75"/>
    </g>
   </g>
   <g id="PathCollection_5">
    <defs>
     <path id="C2_0_34b7397704" d="M 0 2.5 
C 0.663008 2.5 1.29895 2.236584 1.767767 1.767767 
C 2.236584 1.29895 2.5 0.663008 2.5 -0 
C 2.5 -0.663008 2.236584 -1.29895 1.767767 -1.767767 
C 1.29895 -2.236584 0.663008 -2.5 0 -2.5 
C -0.663008 -2.5 -1.29895 -2.236584 -1.767767 -1.767767 
C -2.236584 -1.29895 -2.5 -0.663008 -2.5 0 
C -2.5 0.663008 -2.236584 1.29895 -1.767767 1.767767 
C -1.29895 2.236584 -0.663008 2.5 0 2.5 
z
"/>
    </defs>
    <g clip-path="url(#p3a98dccd08)">
     <use xlink:href="#C2_0_34b7397704" x="208.720048" y="32.937187" style="fill: #4c72b0; fill-opacity: 0.75"/>
    </g>
    <g clip-path="url(#p3a98dccd08)">
     <use xlink:href="#C2_0_34b7397704" x="212.950473" y="105.764235" style="fill: #4c72b0; fill-opacity: 0.75"/>
    </g>
    <g clip-path="url(#p3a98dccd08)">
     <use xlink:href="#C2_0_34b7397704" x="210.729716" y="112.548084" style="fill: #4c72b0; fill-opacity: 0.75"/>
    </g>
    <g clip-path="url(#p3a98dccd08)">
     <use xlink:href="#C2_0_34b7397704" x="214.805876" y="86.647583" style="fill: #4c72b0; fill-opacity: 0.75"/>
    </g>
    <g clip-path="url(#p3a98dccd08)">
     <use xlink:href="#C2_0_34b7397704" x="215.527542" y="92.572058" style="fill: #dd8452; fill-opacity: 0.75"/>
    </g>
    <g clip-path="url(#p3a98dccd08)">
     <use xlink:href="#C2_0_34b7397704" x="209.298139" y="79.937162" style="fill: #dd8452; fill-opacity: 0.75"/>
    </g>
    <g clip-path="url(#p3a98dccd08)">
     <use xlink:href="#C2_0_34b7397704" x="210.595318" y="117.921381" style="fill: #dd8452; fill-opacity: 0.75"/>
    </g>
    <g clip-path="url(#p3a98dccd08)">
     <use xlink:href="#C2_0_34b7397704" x="208.069374" y="102.852358" style="fill: #dd8452; fill-opacity: 0.75"/>
    </g>
   </g>
   <g id="PathCollection_6">
    <defs>
     <path id="C3_0_2baa90dce8" d="M 0 2.5 
C 0.663008 2.5 1.29895 2.236584 1.767767 1.767767 
C 2.236584 1.29895 2.5 0.663008 2.5 -0 
C 2.5 -0.663008 2.236584 -1.29895 1.767767 -1.767767 
C 1.29895 -2.236584 0.663008 -2.5 0 -2.5 
C -0.663008 -2.5 -1.29895 -2.236584 -1.767767 -1.767767 
C -2.236584 -1.29895 -2.5 -0.663008 -2.5 0 
C -2.5 0.663008 -2.236584 1.29895 -1.767767 1.767767 
C -1.29895 2.236584 -0.663008 2.5 0 2.5 
z
"/>
    </defs>
    <g clip-path="url(#p3a98dccd08)">
     <use xlink:href="#C3_0_2baa90dce8" x="269.874064" y="153.672727" style="fill: #4c72b0; fill-opacity: 0.75"/>
    </g>
    <g clip-path="url(#p3a98dccd08)">
     <use xlink:href="#C3_0_2baa90dce8" x="275.981557" y="143.263497" style="fill: #4c72b0; fill-opacity: 0.75"/>
    </g>
    <g clip-path="url(#p3a98dccd08)">
     <use xlink:href="#C3_0_2baa90dce8" x="270.854297" y="146.266965" style="fill: #4c72b0; fill-opacity: 0.75"/>
    </g>
    <g clip-path="url(#p3a98dccd08)">
     <use xlink:href="#C3_0_2baa90dce8" x="279.929537" y="156.159993" style="fill: #4c72b0; fill-opacity: 0.75"/>
    </g>
    <g clip-path="url(#p3a98dccd08)">
     <use xlink:href="#C3_0_2baa90dce8" x="279.560114" y="152.44627" style="fill: #4c72b0; fill-opacity: 0.75"/>
    </g>
    <g clip-path="url(#p3a98dccd08)">
     <use xlink:href="#C3_0_2baa90dce8" x="267.58131" y="89.560434" style="fill: #dd8452; fill-opacity: 0.75"/>
    </g>
    <g clip-path="url(#p3a98dccd08)">
     <use xlink:href="#C3_0_2baa90dce8" x="269.205632" y="103.730634" style="fill: #dd8452; fill-opacity: 0.75"/>
    </g>
    <g clip-path="url(#p3a98dccd08)">
     <use xlink:href="#C3_0_2baa90dce8" x="273.667959" y="77.2332" style="fill: #dd8452; fill-opacity: 0.75"/>
    </g>
    <g clip-path="url(#p3a98dccd08)">
     <use xlink:href="#C3_0_2baa90dce8" x="276.433303" y="136.398194" style="fill: #dd8452; fill-opacity: 0.75"/>
    </g>
    <g clip-path="url(#p3a98dccd08)">
     <use xlink:href="#C3_0_2baa90dce8" x="273.224576" y="93.112973" style="fill: #dd8452; fill-opacity: 0.75"/>
    </g>
   </g>
   <g id="PathCollection_7">
    <defs>
     <path id="C4_0_c9f3db202f" d="M 0 2.5 
C 0.663008 2.5 1.29895 2.236584 1.767767 1.767767 
C 2.236584 1.29895 2.5 0.663008 2.5 -0 
C 2.5 -0.663008 2.236584 -1.29895 1.767767 -1.767767 
C 1.29895 -2.236584 0.663008 -2.5 0 -2.5 
C -0.663008 -2.5 -1.29895 -2.236584 -1.767767 -1.767767 
C -2.236584 -1.29895 -2.5 -0.663008 -2.5 0 
C -2.5 0.663008 -2.236584 1.29895 -1.767767 1.767767 
C -1.29895 2.236584 -0.663008 2.5 0 2.5 
z
"/>
    </defs>
    <g clip-path="url(#p3a98dccd08)">
     <use xlink:href="#C4_0_c9f3db202f" x="332.409746" y="200.575061" style="fill: #4c72b0; fill-opacity: 0.75"/>
    </g>
    <g clip-path="url(#p3a98dccd08)">
     <use xlink:href="#C4_0_c9f3db202f" x="337.631101" y="202.561493" style="fill: #4c72b0; fill-opacity: 0.75"/>
    </g>
    <g clip-path="url(#p3a98dccd08)">
     <use xlink:href="#C4_0_c9f3db202f" x="342.926312" y="197.916523" style="fill: #4c72b0; fill-opacity: 0.75"/>
    </g>
    <g clip-path="url(#p3a98dccd08)">
     <use xlink:href="#C4_0_c9f3db202f" x="334.828835" y="199.797758" style="fill: #dd8452; fill-opacity: 0.75"/>
    </g>
    <g clip-path="url(#p3a98dccd08)">
     <use xlink:href="#C4_0_c9f3db202f" x="339.661944" y="202.39963" style="fill: #dd8452; fill-opacity: 0.75"/>
    </g>
    <g clip-path="url(#p3a98dccd08)">
     <use xlink:href="#C4_0_c9f3db202f" x="334.562871" y="198.441139" style="fill: #dd8452; fill-opacity: 0.75"/>
    </g>
   </g>
   <g id="PathCollection_8">
    <defs>
     <path id="C5_0_2d9248b5a3" d="M 0 2.5 
C 0.663008 2.5 1.29895 2.236584 1.767767 1.767767 
C 2.236584 1.29895 2.5 0.663008 2.5 -0 
C 2.5 -0.663008 2.236584 -1.29895 1.767767 -1.767767 
C 1.29895 -2.236584 0.663008 -2.5 0 -2.5 
C -0.663008 -2.5 -1.29895 -2.236584 -1.767767 -1.767767 
C -2.236584 -1.29895 -2.5 -0.663008 -2.5 0 
C -2.5 0.663008 -2.236584 1.29895 -1.767767 1.767767 
C -1.29895 2.236584 -0.663008 2.5 0 2.5 
z
"/>
    </defs>
    <g clip-path="url(#p3a98dccd08)">
     <use xlink:href="#C5_0_2d9248b5a3" x="402.527669" y="98.274683" style="fill: #4c72b0; fill-opacity: 0.75"/>
    </g>
    <g clip-path="url(#p3a98dccd08)">
     <use xlink:href="#C5_0_2d9248b5a3" x="399.357398" y="106.610962" style="fill: #4c72b0; fill-opacity: 0.75"/>
    </g>
    <g clip-path="url(#p3a98dccd08)">
     <use xlink:href="#C5_0_2d9248b5a3" x="398.561772" y="93.427705" style="fill: #4c72b0; fill-opacity: 0.75"/>
    </g>
    <g clip-path="url(#p3a98dccd08)">
     <use xlink:href="#C5_0_2d9248b5a3" x="397.858717" y="99.045273" style="fill: #4c72b0; fill-opacity: 0.75"/>
    </g>
    <g clip-path="url(#p3a98dccd08)">
     <use xlink:href="#C5_0_2d9248b5a3" x="408.681057" y="85.233729" style="fill: #dd8452; fill-opacity: 0.75"/>
    </g>
    <g clip-path="url(#p3a98dccd08)">
     <use xlink:href="#C5_0_2d9248b5a3" x="400.267798" y="99.234408" style="fill: #dd8452; fill-opacity: 0.75"/>
    </g>
    <g clip-path="url(#p3a98dccd08)">
     <use xlink:href="#C5_0_2d9248b5a3" x="397.120532" y="90.247807" style="fill: #dd8452; fill-opacity: 0.75"/>
    </g>
    <g clip-path="url(#p3a98dccd08)">
     <use xlink:href="#C5_0_2d9248b5a3" x="397.969477" y="99.083976" style="fill: #dd8452; fill-opacity: 0.75"/>
    </g>
   </g>
   <g id="PathCollection_9">
    <defs>
     <path id="C6_0_5faf986153" d="M 0 2.5 
C 0.663008 2.5 1.29895 2.236584 1.767767 1.767767 
C 2.236584 1.29895 2.5 0.663008 2.5 -0 
C 2.5 -0.663008 2.236584 -1.29895 1.767767 -1.767767 
C 1.29895 -2.236584 0.663008 -2.5 0 -2.5 
C -0.663008 -2.5 -1.29895 -2.236584 -1.767767 -1.767767 
C -2.236584 -1.29895 -2.5 -0.663008 -2.5 0 
C -2.5 0.663008 -2.236584 1.29895 -1.767767 1.767767 
C -1.29895 2.236584 -0.663008 2.5 0 2.5 
z
"/>
    </defs>
    <g clip-path="url(#p3a98dccd08)">
     <use xlink:href="#C6_0_5faf986153" x="467.961759" y="151.477644" style="fill: #4c72b0; fill-opacity: 0.75"/>
    </g>
    <g clip-path="url(#p3a98dccd08)">
     <use xlink:href="#C6_0_5faf986153" x="468.006784" y="144.696391" style="fill: #4c72b0; fill-opacity: 0.75"/>
    </g>
    <g clip-path="url(#p3a98dccd08)">
     <use xlink:href="#C6_0_5faf986153" x="468.04977" y="147.719482" style="fill: #4c72b0; fill-opacity: 0.75"/>
    </g>
    <g clip-path="url(#p3a98dccd08)">
     <use xlink:href="#C6_0_5faf986153" x="467.894583" y="157.644872" style="fill: #4c72b0; fill-opacity: 0.75"/>
    </g>
    <g clip-path="url(#p3a98dccd08)">
     <use xlink:href="#C6_0_5faf986153" x="473.89344" y="172.839098" style="fill: #dd8452; fill-opacity: 0.75"/>
    </g>
    <g clip-path="url(#p3a98dccd08)">
     <use xlink:href="#C6_0_5faf986153" x="462.980936" y="180.130793" style="fill: #dd8452; fill-opacity: 0.75"/>
    </g>
    <g clip-path="url(#p3a98dccd08)">
     <use xlink:href="#C6_0_5faf986153" x="474.192725" y="180.360072" style="fill: #dd8452; fill-opacity: 0.75"/>
    </g>
    <g clip-path="url(#p3a98dccd08)">
     <use xlink:href="#C6_0_5faf986153" x="463.913092" y="179.139951" style="fill: #dd8452; fill-opacity: 0.75"/>
    </g>
   </g>
   <g id="text_17">
    <!-- SRGAP3, $p_{adj}$ &lt; .001 *** -->
    <g style="fill: #262626" transform="translate(47.22 18.32)scale(0.09 -0.09)">
     <defs>
      <path id="ArialMT-53" d="M 288 1472 
L 859 1522 
Q 900 1178 1048 958 
Q 1197 738 1509 602 
Q 1822 466 2213 466 
Q 2559 466 2825 569 
Q 3091 672 3220 851 
Q 3350 1031 3350 1244 
Q 3350 1459 3225 1620 
Q 3100 1781 2813 1891 
Q 2628 1963 1997 2114 
Q 1366 2266 1113 2400 
Q 784 2572 623 2826 
Q 463 3081 463 3397 
Q 463 3744 659 4045 
Q 856 4347 1234 4503 
Q 1613 4659 2075 4659 
Q 2584 4659 2973 4495 
Q 3363 4331 3572 4012 
Q 3781 3694 3797 3291 
L 3216 3247 
Q 3169 3681 2898 3903 
Q 2628 4125 2100 4125 
Q 1550 4125 1298 3923 
Q 1047 3722 1047 3438 
Q 1047 3191 1225 3031 
Q 1400 2872 2139 2705 
Q 2878 2538 3153 2413 
Q 3553 2228 3743 1945 
Q 3934 1663 3934 1294 
Q 3934 928 3725 604 
Q 3516 281 3123 101 
Q 2731 -78 2241 -78 
Q 1619 -78 1198 103 
Q 778 284 539 648 
Q 300 1013 288 1472 
z
" transform="scale(0.015625)"/>
      <path id="ArialMT-52" d="M 503 0 
L 503 4581 
L 2534 4581 
Q 3147 4581 3465 4457 
Q 3784 4334 3975 4021 
Q 4166 3709 4166 3331 
Q 4166 2844 3850 2509 
Q 3534 2175 2875 2084 
Q 3116 1969 3241 1856 
Q 3506 1613 3744 1247 
L 4541 0 
L 3778 0 
L 3172 953 
Q 2906 1366 2734 1584 
Q 2563 1803 2427 1890 
Q 2291 1978 2150 2013 
Q 2047 2034 1813 2034 
L 1109 2034 
L 1109 0 
L 503 0 
z
M 1109 2559 
L 2413 2559 
Q 2828 2559 3062 2645 
Q 3297 2731 3419 2920 
Q 3541 3109 3541 3331 
Q 3541 3656 3305 3865 
Q 3069 4075 2559 4075 
L 1109 4075 
L 1109 2559 
z
" transform="scale(0.015625)"/>
      <path id="ArialMT-47" d="M 2638 1797 
L 2638 2334 
L 4578 2338 
L 4578 638 
Q 4131 281 3656 101 
Q 3181 -78 2681 -78 
Q 2006 -78 1454 211 
Q 903 500 622 1047 
Q 341 1594 341 2269 
Q 341 2938 620 3517 
Q 900 4097 1425 4378 
Q 1950 4659 2634 4659 
Q 3131 4659 3532 4498 
Q 3934 4338 4162 4050 
Q 4391 3763 4509 3300 
L 3963 3150 
Q 3859 3500 3706 3700 
Q 3553 3900 3268 4020 
Q 2984 4141 2638 4141 
Q 2222 4141 1919 4014 
Q 1616 3888 1430 3681 
Q 1244 3475 1141 3228 
Q 966 2803 966 2306 
Q 966 1694 1177 1281 
Q 1388 869 1791 669 
Q 2194 469 2647 469 
Q 3041 469 3416 620 
Q 3791 772 3984 944 
L 3984 1797 
L 2638 1797 
z
" transform="scale(0.015625)"/>
      <path id="ArialMT-41" d="M -9 0 
L 1750 4581 
L 2403 4581 
L 4278 0 
L 3588 0 
L 3053 1388 
L 1138 1388 
L 634 0 
L -9 0 
z
M 1313 1881 
L 2866 1881 
L 2388 3150 
Q 2169 3728 2063 4100 
Q 1975 3659 1816 3225 
L 1313 1881 
z
" transform="scale(0.015625)"/>
      <path id="ArialMT-2c" d="M 569 0 
L 569 641 
L 1209 641 
L 1209 0 
Q 1209 -353 1084 -570 
Q 959 -788 688 -906 
L 531 -666 
Q 709 -588 793 -436 
Q 878 -284 888 0 
L 569 0 
z
" transform="scale(0.015625)"/>
      <path id="DejaVuSans-Oblique-70" d="M 3175 2156 
Q 3175 2616 2975 2859 
Q 2775 3103 2400 3103 
Q 2144 3103 1911 2972 
Q 1678 2841 1497 2591 
Q 1319 2344 1212 1994 
Q 1106 1644 1106 1300 
Q 1106 863 1306 627 
Q 1506 391 1875 391 
Q 2147 391 2380 519 
Q 2613 647 2778 891 
Q 2956 1147 3065 1494 
Q 3175 1841 3175 2156 
z
M 1394 2969 
Q 1625 3272 1939 3428 
Q 2253 3584 2638 3584 
Q 3175 3584 3472 3232 
Q 3769 2881 3769 2247 
Q 3769 1728 3584 1258 
Q 3400 788 3053 416 
Q 2822 169 2531 39 
Q 2241 -91 1919 -91 
Q 1547 -91 1294 64 
Q 1041 219 916 525 
L 556 -1331 
L -19 -1331 
L 922 3500 
L 1497 3500 
L 1394 2969 
z
" transform="scale(0.015625)"/>
      <path id="DejaVuSans-Oblique-61" d="M 3438 1997 
L 3047 0 
L 2472 0 
L 2578 531 
Q 2325 219 2001 64 
Q 1678 -91 1281 -91 
Q 834 -91 548 182 
Q 263 456 263 884 
Q 263 1497 752 1853 
Q 1241 2209 2100 2209 
L 2900 2209 
L 2931 2363 
Q 2938 2388 2941 2417 
Q 2944 2447 2944 2509 
Q 2944 2788 2717 2942 
Q 2491 3097 2081 3097 
Q 1800 3097 1504 3025 
Q 1209 2953 897 2809 
L 997 3341 
Q 1322 3463 1633 3523 
Q 1944 3584 2234 3584 
Q 2853 3584 3176 3315 
Q 3500 3047 3500 2534 
Q 3500 2431 3484 2292 
Q 3469 2153 3438 1997 
z
M 2816 1759 
L 2241 1759 
Q 1534 1759 1195 1570 
Q 856 1381 856 984 
Q 856 709 1029 553 
Q 1203 397 1509 397 
Q 1978 397 2328 733 
Q 2678 1069 2791 1631 
L 2816 1759 
z
" transform="scale(0.015625)"/>
      <path id="DejaVuSans-Oblique-64" d="M 2675 525 
Q 2444 222 2128 65 
Q 1813 -91 1428 -91 
Q 903 -91 598 267 
Q 294 625 294 1247 
Q 294 1766 478 2236 
Q 663 2706 1013 3078 
Q 1244 3325 1534 3454 
Q 1825 3584 2144 3584 
Q 2481 3584 2739 3421 
Q 2997 3259 3138 2956 
L 3513 4863 
L 4091 4863 
L 3144 0 
L 2566 0 
L 2675 525 
z
M 891 1350 
Q 891 897 1095 644 
Q 1300 391 1663 391 
Q 1931 391 2161 520 
Q 2391 650 2566 903 
Q 2750 1166 2856 1509 
Q 2963 1853 2963 2188 
Q 2963 2622 2758 2865 
Q 2553 3109 2194 3109 
Q 1922 3109 1687 2981 
Q 1453 2853 1288 2613 
Q 1106 2353 998 2009 
Q 891 1666 891 1350 
z
" transform="scale(0.015625)"/>
      <path id="DejaVuSans-Oblique-6a" d="M 928 3500 
L 1503 3500 
L 813 -63 
L 809 -78 
Q 694 -675 544 -897 
Q 403 -1106 132 -1218 
Q -138 -1331 -506 -1331 
L -722 -1331 
L -628 -844 
L -481 -844 
Q -144 -844 -1 -703 
Q 141 -563 238 -63 
L 928 3500 
z
M 1197 4863 
L 1772 4863 
L 1631 4134 
L 1056 4134 
L 1197 4863 
z
" transform="scale(0.015625)"/>
      <path id="ArialMT-3c" d="M 350 2003 
L 350 2528 
L 3384 3809 
L 3384 3250 
L 978 2263 
L 3384 1266 
L 3384 706 
L 350 2003 
z
" transform="scale(0.015625)"/>
      <path id="ArialMT-2e" d="M 581 0 
L 581 641 
L 1222 641 
L 1222 0 
L 581 0 
z
" transform="scale(0.015625)"/>
      <path id="ArialMT-2a" d="M 200 3741 
L 344 4184 
Q 841 4009 1066 3881 
Q 1006 4447 1003 4659 
L 1456 4659 
Q 1447 4350 1384 3884 
Q 1706 4047 2122 4184 
L 2266 3741 
Q 1869 3609 1488 3566 
Q 1678 3400 2025 2975 
L 1650 2709 
Q 1469 2956 1222 3381 
Q 991 2941 816 2709 
L 447 2975 
Q 809 3422 966 3566 
Q 563 3644 200 3741 
z
" transform="scale(0.015625)"/>
     </defs>
     <use xlink:href="#ArialMT-53" transform="translate(0 0.203125)"/>
     <use xlink:href="#ArialMT-52" transform="translate(66.699219 0.203125)"/>
     <use xlink:href="#ArialMT-47" transform="translate(138.916016 0.203125)"/>
     <use xlink:href="#ArialMT-41" transform="translate(216.699219 0.203125)"/>
     <use xlink:href="#ArialMT-50" transform="translate(283.398438 0.203125)"/>
     <use xlink:href="#ArialMT-33" transform="translate(350.097656 0.203125)"/>
     <use xlink:href="#ArialMT-2c" transform="translate(405.712891 0.203125)"/>
     <use xlink:href="#ArialMT-20" transform="translate(433.496094 0.203125)"/>
     <use xlink:href="#DejaVuSans-Oblique-70" transform="translate(461.279297 0.203125)"/>
     <use xlink:href="#DejaVuSans-Oblique-61" transform="translate(524.755859 -16.203125)scale(0.7)"/>
     <use xlink:href="#DejaVuSans-Oblique-64" transform="translate(567.651367 -16.203125)scale(0.7)"/>
     <use xlink:href="#DejaVuSans-Oblique-6a" transform="translate(612.084961 -16.203125)scale(0.7)"/>
     <use xlink:href="#ArialMT-20" transform="translate(634.267578 0.203125)"/>
     <use xlink:href="#ArialMT-3c" transform="translate(662.050781 0.203125)"/>
     <use xlink:href="#ArialMT-20" transform="translate(720.449219 0.203125)"/>
     <use xlink:href="#ArialMT-2e" transform="translate(748.232422 0.203125)"/>
     <use xlink:href="#ArialMT-30" transform="translate(776.015625 0.203125)"/>
     <use xlink:href="#ArialMT-30" transform="translate(831.630859 0.203125)"/>
     <use xlink:href="#ArialMT-31" transform="translate(887.246094 0.203125)"/>
     <use xlink:href="#ArialMT-20" transform="translate(942.861328 0.203125)"/>
     <use xlink:href="#ArialMT-2a" transform="translate(970.644531 0.203125)"/>
     <use xlink:href="#ArialMT-2a" transform="translate(1009.560547 0.203125)"/>
     <use xlink:href="#ArialMT-2a" transform="translate(1048.476562 0.203125)"/>
    </g>
   </g>
   <g id="legend_1">
    <g id="patch_5">
     <path d="M 441.91497 69.712344 
L 494.21622 69.712344 
Q 496.01622 69.712344 496.01622 67.912344 
L 496.01622 30.62 
Q 496.01622 28.82 494.21622 28.82 
L 441.91497 28.82 
Q 440.11497 28.82 440.11497 30.62 
L 440.11497 67.912344 
Q 440.11497 69.712344 441.91497 69.712344 
z
" style="fill: #ffffff; opacity: 0.8; stroke: #cccccc; stroke-linejoin: miter"/>
    </g>
    <g id="text_18">
     <!-- Treatment -->
     <g style="fill: #262626" transform="translate(447.729111 38.862031)scale(0.09 -0.09)">
      <use xlink:href="#ArialMT-54"/>
      <use xlink:href="#ArialMT-72" x="57.333984"/>
      <use xlink:href="#ArialMT-65" x="90.634766"/>
      <use xlink:href="#ArialMT-61" x="146.25"/>
      <use xlink:href="#ArialMT-74" x="201.865234"/>
      <use xlink:href="#ArialMT-6d" x="229.648438"/>
      <use xlink:href="#ArialMT-65" x="312.949219"/>
      <use xlink:href="#ArialMT-6e" x="368.564453"/>
      <use xlink:href="#ArialMT-74" x="424.179688"/>
     </g>
    </g>
    <g id="PathCollection_10">
     <defs>
      <path id="me6e7ce5395" d="M 0 3.872983 
C 1.027127 3.872983 2.012324 3.464901 2.738613 2.738613 
C 3.464901 2.012324 3.872983 1.027127 3.872983 0 
C 3.872983 -1.027127 3.464901 -2.012324 2.738613 -2.738613 
C 2.012324 -3.464901 1.027127 -3.872983 0 -3.872983 
C -1.027127 -3.872983 -2.012324 -3.464901 -2.738613 -2.738613 
C -3.464901 -2.012324 -3.872983 -1.027127 -3.872983 0 
C -3.872983 1.027127 -3.464901 2.012324 -2.738613 2.738613 
C -2.012324 3.464901 -1.027127 3.872983 0 3.872983 
z
" style="stroke: #4c72b0"/>
     </defs>
     <g>
      <use xlink:href="#me6e7ce5395" x="452.71497" y="49.230313" style="fill: #4c72b0; stroke: #4c72b0"/>
     </g>
    </g>
    <g id="text_19">
     <!-- BEVA -->
     <g style="fill: #262626" transform="translate(468.91497 51.592813)scale(0.09 -0.09)">
      <defs>
       <path id="ArialMT-42" d="M 469 0 
L 469 4581 
L 2188 4581 
Q 2713 4581 3030 4442 
Q 3347 4303 3526 4014 
Q 3706 3725 3706 3409 
Q 3706 3116 3547 2856 
Q 3388 2597 3066 2438 
Q 3481 2316 3704 2022 
Q 3928 1728 3928 1328 
Q 3928 1006 3792 729 
Q 3656 453 3456 303 
Q 3256 153 2954 76 
Q 2653 0 2216 0 
L 469 0 
z
M 1075 2656 
L 2066 2656 
Q 2469 2656 2644 2709 
Q 2875 2778 2992 2937 
Q 3109 3097 3109 3338 
Q 3109 3566 3000 3739 
Q 2891 3913 2687 3977 
Q 2484 4041 1991 4041 
L 1075 4041 
L 1075 2656 
z
M 1075 541 
L 2216 541 
Q 2509 541 2628 563 
Q 2838 600 2978 687 
Q 3119 775 3209 942 
Q 3300 1109 3300 1328 
Q 3300 1584 3169 1773 
Q 3038 1963 2805 2039 
Q 2572 2116 2134 2116 
L 1075 2116 
L 1075 541 
z
" transform="scale(0.015625)"/>
       <path id="ArialMT-45" d="M 506 0 
L 506 4581 
L 3819 4581 
L 3819 4041 
L 1113 4041 
L 1113 2638 
L 3647 2638 
L 3647 2100 
L 1113 2100 
L 1113 541 
L 3925 541 
L 3925 0 
L 506 0 
z
" transform="scale(0.015625)"/>
       <path id="ArialMT-56" d="M 1803 0 
L 28 4581 
L 684 4581 
L 1875 1253 
Q 2019 853 2116 503 
Q 2222 878 2363 1253 
L 3600 4581 
L 4219 4581 
L 2425 0 
L 1803 0 
z
" transform="scale(0.015625)"/>
      </defs>
      <use xlink:href="#ArialMT-42"/>
      <use xlink:href="#ArialMT-45" x="66.699219"/>
      <use xlink:href="#ArialMT-56" x="133.398438"/>
      <use xlink:href="#ArialMT-41" x="192.722656"/>
     </g>
    </g>
    <g id="PathCollection_11">
     <defs>
      <path id="md076904a47" d="M 0 3.872983 
C 1.027127 3.872983 2.012324 3.464901 2.738613 2.738613 
C 3.464901 2.012324 3.872983 1.027127 3.872983 0 
C 3.872983 -1.027127 3.464901 -2.012324 2.738613 -2.738613 
C 2.012324 -3.464901 1.027127 -3.872983 0 -3.872983 
C -1.027127 -3.872983 -2.012324 -3.464901 -2.738613 -2.738613 
C -3.464901 -2.012324 -3.872983 -1.027127 -3.872983 0 
C -3.872983 1.027127 -3.464901 2.012324 -2.738613 2.738613 
C -2.012324 3.464901 -1.027127 3.872983 0 3.872983 
z
" style="stroke: #dd8452"/>
     </defs>
     <g>
      <use xlink:href="#md076904a47" x="452.71497" y="61.961094" style="fill: #dd8452; stroke: #dd8452"/>
     </g>
    </g>
    <g id="text_20">
     <!-- CTRL -->
     <g style="fill: #262626" transform="translate(468.91497 64.323594)scale(0.09 -0.09)">
      <defs>
       <path id="ArialMT-43" d="M 3763 1606 
L 4369 1453 
Q 4178 706 3683 314 
Q 3188 -78 2472 -78 
Q 1731 -78 1267 223 
Q 803 525 561 1097 
Q 319 1669 319 2325 
Q 319 3041 592 3573 
Q 866 4106 1370 4382 
Q 1875 4659 2481 4659 
Q 3169 4659 3637 4309 
Q 4106 3959 4291 3325 
L 3694 3184 
Q 3534 3684 3231 3912 
Q 2928 4141 2469 4141 
Q 1941 4141 1586 3887 
Q 1231 3634 1087 3207 
Q 944 2781 944 2328 
Q 944 1744 1114 1308 
Q 1284 872 1643 656 
Q 2003 441 2422 441 
Q 2931 441 3284 734 
Q 3638 1028 3763 1606 
z
" transform="scale(0.015625)"/>
       <path id="ArialMT-4c" d="M 469 0 
L 469 4581 
L 1075 4581 
L 1075 541 
L 3331 541 
L 3331 0 
L 469 0 
z
" transform="scale(0.015625)"/>
      </defs>
      <use xlink:href="#ArialMT-43"/>
      <use xlink:href="#ArialMT-54" x="72.216797"/>
      <use xlink:href="#ArialMT-52" x="133.300781"/>
      <use xlink:href="#ArialMT-4c" x="205.517578"/>
     </g>
    </g>
   </g>
  </g>
 </g>
 <defs>
  <clipPath id="p3a98dccd08">
   <rect x="47.22" y="24.32" width="453.29622" height="189.57811"/>
  </clipPath>
 </defs>
</svg>
