<?xml version="1.0" encoding="utf-8" standalone="no"?>
<!DOCTYPE svg PUBLIC "-//W3C//DTD SVG 1.1//EN"
  "http://www.w3.org/Graphics/SVG/1.1/DTD/svg11.dtd">
<svg xmlns:xlink="http://www.w3.org/1999/xlink" width="510.23622pt" height="255.11811pt" viewBox="0 0 510.23622 255.11811" xmlns="http://www.w3.org/2000/svg" version="1.1">
 <metadata>
  <rdf:RDF xmlns:dc="http://purl.org/dc/elements/1.1/" xmlns:cc="http://creativecommons.org/ns#" xmlns:rdf="http://www.w3.org/1999/02/22-rdf-syntax-ns#">
   <cc:Work>
    <dc:type rdf:resource="http://purl.org/dc/dcmitype/StillImage"/>
    <dc:date>2022-04-27T00:15:09.160491</dc:date>
    <dc:format>image/svg+xml</dc:format>
    <dc:creator>
     <cc:Agent>
      <dc:title>Matplotlib v3.5.1, https://matplotlib.org/</dc:title>
     </cc:Agent>
    </dc:creator>
   </cc:Work>
  </rdf:RDF>
 </metadata>
 <defs>
  <style type="text/css">*{stroke-linejoin: round; stroke-linecap: butt}</style>
 </defs>
 <g id="figure_1">
  <g id="patch_1">
   <path d="M 0 255.11811 
L 510.23622 255.11811 
L 510.23622 0 
L 0 0 
z
" style="fill: #ffffff"/>
  </g>
  <g id="axes_1">
   <g id="patch_2">
    <path d="M 47.22 213.89811 
L 500.51622 213.89811 
L 500.51622 24.32 
L 47.22 24.32 
z
" style="fill: #ffffff"/>
   </g>
   <g id="matplotlib.axis_1">
    <g id="xtick_1">
     <g id="text_1">
      <!-- 49 -->
      <g style="fill: #444444" transform="translate(74.593458 229.840141)scale(0.09 -0.09)">
       <defs>
        <path id="ArialMT-34" d="M 2069 0 
L 2069 1097 
L 81 1097 
L 81 1613 
L 2172 4581 
L 2631 4581 
L 2631 1613 
L 3250 1613 
L 3250 1097 
L 2631 1097 
L 2631 0 
L 2069 0 
z
M 2069 1613 
L 2069 3678 
L 634 1613 
L 2069 1613 
z
" transform="scale(0.015625)"/>
        <path id="ArialMT-39" d="M 350 1059 
L 891 1109 
Q 959 728 1153 556 
Q 1347 384 1650 384 
Q 1909 384 2104 503 
Q 2300 622 2425 820 
Q 2550 1019 2634 1356 
Q 2719 1694 2719 2044 
Q 2719 2081 2716 2156 
Q 2547 1888 2255 1720 
Q 1963 1553 1622 1553 
Q 1053 1553 659 1965 
Q 266 2378 266 3053 
Q 266 3750 677 4175 
Q 1088 4600 1706 4600 
Q 2153 4600 2523 4359 
Q 2894 4119 3086 3673 
Q 3278 3228 3278 2384 
Q 3278 1506 3087 986 
Q 2897 466 2520 194 
Q 2144 -78 1638 -78 
Q 1100 -78 759 220 
Q 419 519 350 1059 
z
M 2653 3081 
Q 2653 3566 2395 3850 
Q 2138 4134 1775 4134 
Q 1400 4134 1122 3828 
Q 844 3522 844 3034 
Q 844 2597 1108 2323 
Q 1372 2050 1759 2050 
Q 2150 2050 2401 2323 
Q 2653 2597 2653 3081 
z
" transform="scale(0.015625)"/>
       </defs>
       <use xlink:href="#ArialMT-34"/>
       <use xlink:href="#ArialMT-39" x="55.615234"/>
      </g>
     </g>
    </g>
    <g id="xtick_2">
     <g id="text_2">
      <!-- 17 -->
      <g style="fill: #444444" transform="translate(139.350061 229.840141)scale(0.09 -0.09)">
       <defs>
        <path id="ArialMT-31" d="M 2384 0 
L 1822 0 
L 1822 3584 
Q 1619 3391 1289 3197 
Q 959 3003 697 2906 
L 697 3450 
Q 1169 3672 1522 3987 
Q 1875 4303 2022 4600 
L 2384 4600 
L 2384 0 
z
" transform="scale(0.015625)"/>
        <path id="ArialMT-37" d="M 303 3981 
L 303 4522 
L 3269 4522 
L 3269 4084 
Q 2831 3619 2401 2847 
Q 1972 2075 1738 1259 
Q 1569 684 1522 0 
L 944 0 
Q 953 541 1156 1306 
Q 1359 2072 1739 2783 
Q 2119 3494 2547 3981 
L 303 3981 
z
" transform="scale(0.015625)"/>
       </defs>
       <use xlink:href="#ArialMT-31"/>
       <use xlink:href="#ArialMT-37" x="55.615234"/>
      </g>
     </g>
    </g>
    <g id="xtick_3">
     <g id="text_3">
      <!-- 69 -->
      <g style="fill: #444444" transform="translate(204.106664 229.840141)scale(0.09 -0.09)">
       <defs>
        <path id="ArialMT-36" d="M 3184 3459 
L 2625 3416 
Q 2550 3747 2413 3897 
Q 2184 4138 1850 4138 
Q 1581 4138 1378 3988 
Q 1113 3794 959 3422 
Q 806 3050 800 2363 
Q 1003 2672 1297 2822 
Q 1591 2972 1913 2972 
Q 2475 2972 2870 2558 
Q 3266 2144 3266 1488 
Q 3266 1056 3080 686 
Q 2894 316 2569 119 
Q 2244 -78 1831 -78 
Q 1128 -78 684 439 
Q 241 956 241 2144 
Q 241 3472 731 4075 
Q 1159 4600 1884 4600 
Q 2425 4600 2770 4297 
Q 3116 3994 3184 3459 
z
M 888 1484 
Q 888 1194 1011 928 
Q 1134 663 1356 523 
Q 1578 384 1822 384 
Q 2178 384 2434 671 
Q 2691 959 2691 1453 
Q 2691 1928 2437 2201 
Q 2184 2475 1800 2475 
Q 1419 2475 1153 2201 
Q 888 1928 888 1484 
z
" transform="scale(0.015625)"/>
       </defs>
       <use xlink:href="#ArialMT-36"/>
       <use xlink:href="#ArialMT-39" x="55.615234"/>
      </g>
     </g>
    </g>
    <g id="xtick_4">
     <g id="text_4">
      <!-- 15 -->
      <g style="fill: #444444" transform="translate(268.863266 229.840141)scale(0.09 -0.09)">
       <defs>
        <path id="ArialMT-35" d="M 266 1200 
L 856 1250 
Q 922 819 1161 601 
Q 1400 384 1738 384 
Q 2144 384 2425 690 
Q 2706 997 2706 1503 
Q 2706 1984 2436 2262 
Q 2166 2541 1728 2541 
Q 1456 2541 1237 2417 
Q 1019 2294 894 2097 
L 366 2166 
L 809 4519 
L 3088 4519 
L 3088 3981 
L 1259 3981 
L 1013 2750 
Q 1425 3038 1878 3038 
Q 2478 3038 2890 2622 
Q 3303 2206 3303 1553 
Q 3303 931 2941 478 
Q 2500 -78 1738 -78 
Q 1113 -78 717 272 
Q 322 622 266 1200 
z
" transform="scale(0.015625)"/>
       </defs>
       <use xlink:href="#ArialMT-31"/>
       <use xlink:href="#ArialMT-35" x="55.615234"/>
      </g>
     </g>
    </g>
    <g id="xtick_5">
     <g id="text_5">
      <!-- 5 -->
      <g style="fill: #444444" transform="translate(336.122291 229.840141)scale(0.09 -0.09)">
       <use xlink:href="#ArialMT-35"/>
      </g>
     </g>
    </g>
    <g id="xtick_6">
     <g id="text_6">
      <!-- 126 -->
      <g style="fill: #444444" transform="translate(395.87405 229.840141)scale(0.09 -0.09)">
       <defs>
        <path id="ArialMT-32" d="M 3222 541 
L 3222 0 
L 194 0 
Q 188 203 259 391 
Q 375 700 629 1000 
Q 884 1300 1366 1694 
Q 2113 2306 2375 2664 
Q 2638 3022 2638 3341 
Q 2638 3675 2398 3904 
Q 2159 4134 1775 4134 
Q 1369 4134 1125 3890 
Q 881 3647 878 3216 
L 300 3275 
Q 359 3922 746 4261 
Q 1134 4600 1788 4600 
Q 2447 4600 2831 4234 
Q 3216 3869 3216 3328 
Q 3216 3053 3103 2787 
Q 2991 2522 2730 2228 
Q 2469 1934 1863 1422 
Q 1356 997 1212 845 
Q 1069 694 975 541 
L 3222 541 
z
" transform="scale(0.015625)"/>
       </defs>
       <use xlink:href="#ArialMT-31"/>
       <use xlink:href="#ArialMT-32" x="55.615234"/>
       <use xlink:href="#ArialMT-36" x="111.230469"/>
      </g>
     </g>
    </g>
    <g id="xtick_7">
     <g id="text_7">
      <!-- 62 -->
      <g style="fill: #444444" transform="translate(463.133075 229.840141)scale(0.09 -0.09)">
       <use xlink:href="#ArialMT-36"/>
       <use xlink:href="#ArialMT-32" x="55.615234"/>
      </g>
     </g>
    </g>
    <g id="text_8">
     <!-- Patient -->
     <g style="fill: #444444" transform="translate(259.859048 242.070923)scale(0.09 -0.09)">
      <defs>
       <path id="ArialMT-50" d="M 494 0 
L 494 4581 
L 2222 4581 
Q 2678 4581 2919 4538 
Q 3256 4481 3484 4323 
Q 3713 4166 3852 3881 
Q 3991 3597 3991 3256 
Q 3991 2672 3619 2267 
Q 3247 1863 2275 1863 
L 1100 1863 
L 1100 0 
L 494 0 
z
M 1100 2403 
L 2284 2403 
Q 2872 2403 3119 2622 
Q 3366 2841 3366 3238 
Q 3366 3525 3220 3729 
Q 3075 3934 2838 4000 
Q 2684 4041 2272 4041 
L 1100 4041 
L 1100 2403 
z
" transform="scale(0.015625)"/>
       <path id="ArialMT-61" d="M 2588 409 
Q 2275 144 1986 34 
Q 1697 -75 1366 -75 
Q 819 -75 525 192 
Q 231 459 231 875 
Q 231 1119 342 1320 
Q 453 1522 633 1644 
Q 813 1766 1038 1828 
Q 1203 1872 1538 1913 
Q 2219 1994 2541 2106 
Q 2544 2222 2544 2253 
Q 2544 2597 2384 2738 
Q 2169 2928 1744 2928 
Q 1347 2928 1158 2789 
Q 969 2650 878 2297 
L 328 2372 
Q 403 2725 575 2942 
Q 747 3159 1072 3276 
Q 1397 3394 1825 3394 
Q 2250 3394 2515 3294 
Q 2781 3194 2906 3042 
Q 3031 2891 3081 2659 
Q 3109 2516 3109 2141 
L 3109 1391 
Q 3109 606 3145 398 
Q 3181 191 3288 0 
L 2700 0 
Q 2613 175 2588 409 
z
M 2541 1666 
Q 2234 1541 1622 1453 
Q 1275 1403 1131 1340 
Q 988 1278 909 1158 
Q 831 1038 831 891 
Q 831 666 1001 516 
Q 1172 366 1500 366 
Q 1825 366 2078 508 
Q 2331 650 2450 897 
Q 2541 1088 2541 1459 
L 2541 1666 
z
" transform="scale(0.015625)"/>
       <path id="ArialMT-74" d="M 1650 503 
L 1731 6 
Q 1494 -44 1306 -44 
Q 1000 -44 831 53 
Q 663 150 594 308 
Q 525 466 525 972 
L 525 2881 
L 113 2881 
L 113 3319 
L 525 3319 
L 525 4141 
L 1084 4478 
L 1084 3319 
L 1650 3319 
L 1650 2881 
L 1084 2881 
L 1084 941 
Q 1084 700 1114 631 
Q 1144 563 1211 522 
Q 1278 481 1403 481 
Q 1497 481 1650 503 
z
" transform="scale(0.015625)"/>
       <path id="ArialMT-69" d="M 425 3934 
L 425 4581 
L 988 4581 
L 988 3934 
L 425 3934 
z
M 425 0 
L 425 3319 
L 988 3319 
L 988 0 
L 425 0 
z
" transform="scale(0.015625)"/>
       <path id="ArialMT-65" d="M 2694 1069 
L 3275 997 
Q 3138 488 2766 206 
Q 2394 -75 1816 -75 
Q 1088 -75 661 373 
Q 234 822 234 1631 
Q 234 2469 665 2931 
Q 1097 3394 1784 3394 
Q 2450 3394 2872 2941 
Q 3294 2488 3294 1666 
Q 3294 1616 3291 1516 
L 816 1516 
Q 847 969 1125 678 
Q 1403 388 1819 388 
Q 2128 388 2347 550 
Q 2566 713 2694 1069 
z
M 847 1978 
L 2700 1978 
Q 2663 2397 2488 2606 
Q 2219 2931 1791 2931 
Q 1403 2931 1139 2672 
Q 875 2413 847 1978 
z
" transform="scale(0.015625)"/>
       <path id="ArialMT-6e" d="M 422 0 
L 422 3319 
L 928 3319 
L 928 2847 
Q 1294 3394 1984 3394 
Q 2284 3394 2536 3286 
Q 2788 3178 2913 3003 
Q 3038 2828 3088 2588 
Q 3119 2431 3119 2041 
L 3119 0 
L 2556 0 
L 2556 2019 
Q 2556 2363 2490 2533 
Q 2425 2703 2258 2804 
Q 2091 2906 1866 2906 
Q 1506 2906 1245 2678 
Q 984 2450 984 1813 
L 984 0 
L 422 0 
z
" transform="scale(0.015625)"/>
      </defs>
      <use xlink:href="#ArialMT-50"/>
      <use xlink:href="#ArialMT-61" x="66.699219"/>
      <use xlink:href="#ArialMT-74" x="122.314453"/>
      <use xlink:href="#ArialMT-69" x="150.097656"/>
      <use xlink:href="#ArialMT-65" x="172.314453"/>
      <use xlink:href="#ArialMT-6e" x="227.929688"/>
      <use xlink:href="#ArialMT-74" x="283.544922"/>
     </g>
    </g>
   </g>
   <g id="matplotlib.axis_2">
    <g id="ytick_1">
     <g id="text_9">
      <!-- 50 -->
      <g style="fill: #444444" transform="translate(27.710313 198.426628)scale(0.09 -0.09)">
       <defs>
        <path id="ArialMT-30" d="M 266 2259 
Q 266 3072 433 3567 
Q 600 4063 929 4331 
Q 1259 4600 1759 4600 
Q 2128 4600 2406 4451 
Q 2684 4303 2865 4023 
Q 3047 3744 3150 3342 
Q 3253 2941 3253 2259 
Q 3253 1453 3087 958 
Q 2922 463 2592 192 
Q 2263 -78 1759 -78 
Q 1097 -78 719 397 
Q 266 969 266 2259 
z
M 844 2259 
Q 844 1131 1108 757 
Q 1372 384 1759 384 
Q 2147 384 2411 759 
Q 2675 1134 2675 2259 
Q 2675 3391 2411 3762 
Q 2147 4134 1753 4134 
Q 1366 4134 1134 3806 
Q 844 3388 844 2259 
z
" transform="scale(0.015625)"/>
       </defs>
       <use xlink:href="#ArialMT-35"/>
       <use xlink:href="#ArialMT-30" x="55.615234"/>
      </g>
     </g>
    </g>
    <g id="ytick_2">
     <g id="text_10">
      <!-- 100 -->
      <g style="fill: #444444" transform="translate(22.705469 160.327638)scale(0.09 -0.09)">
       <use xlink:href="#ArialMT-31"/>
       <use xlink:href="#ArialMT-30" x="55.615234"/>
       <use xlink:href="#ArialMT-30" x="111.230469"/>
      </g>
     </g>
    </g>
    <g id="ytick_3">
     <g id="text_11">
      <!-- 150 -->
      <g style="fill: #444444" transform="translate(22.705469 122.228647)scale(0.09 -0.09)">
       <use xlink:href="#ArialMT-31"/>
       <use xlink:href="#ArialMT-35" x="55.615234"/>
       <use xlink:href="#ArialMT-30" x="111.230469"/>
      </g>
     </g>
    </g>
    <g id="ytick_4">
     <g id="text_12">
      <!-- 200 -->
      <g style="fill: #444444" transform="translate(22.705469 84.129657)scale(0.09 -0.09)">
       <use xlink:href="#ArialMT-32"/>
       <use xlink:href="#ArialMT-30" x="55.615234"/>
       <use xlink:href="#ArialMT-30" x="111.230469"/>
      </g>
     </g>
    </g>
    <g id="ytick_5">
     <g id="text_13">
      <!-- 250 -->
      <g style="fill: #444444" transform="translate(22.705469 46.030667)scale(0.09 -0.09)">
       <use xlink:href="#ArialMT-32"/>
       <use xlink:href="#ArialMT-35" x="55.615234"/>
       <use xlink:href="#ArialMT-30" x="111.230469"/>
      </g>
     </g>
    </g>
    <g id="text_14">
     <!-- Trimmed Means of M values (TMM) -->
     <g style="fill: #444444" transform="translate(16.81125 190.194993)rotate(-90)scale(0.09 -0.09)">
      <defs>
       <path id="ArialMT-54" d="M 1659 0 
L 1659 4041 
L 150 4041 
L 150 4581 
L 3781 4581 
L 3781 4041 
L 2266 4041 
L 2266 0 
L 1659 0 
z
" transform="scale(0.015625)"/>
       <path id="ArialMT-72" d="M 416 0 
L 416 3319 
L 922 3319 
L 922 2816 
Q 1116 3169 1280 3281 
Q 1444 3394 1641 3394 
Q 1925 3394 2219 3213 
L 2025 2691 
Q 1819 2813 1613 2813 
Q 1428 2813 1281 2702 
Q 1134 2591 1072 2394 
Q 978 2094 978 1738 
L 978 0 
L 416 0 
z
" transform="scale(0.015625)"/>
       <path id="ArialMT-6d" d="M 422 0 
L 422 3319 
L 925 3319 
L 925 2853 
Q 1081 3097 1340 3245 
Q 1600 3394 1931 3394 
Q 2300 3394 2536 3241 
Q 2772 3088 2869 2813 
Q 3263 3394 3894 3394 
Q 4388 3394 4653 3120 
Q 4919 2847 4919 2278 
L 4919 0 
L 4359 0 
L 4359 2091 
Q 4359 2428 4304 2576 
Q 4250 2725 4106 2815 
Q 3963 2906 3769 2906 
Q 3419 2906 3187 2673 
Q 2956 2441 2956 1928 
L 2956 0 
L 2394 0 
L 2394 2156 
Q 2394 2531 2256 2718 
Q 2119 2906 1806 2906 
Q 1569 2906 1367 2781 
Q 1166 2656 1075 2415 
Q 984 2175 984 1722 
L 984 0 
L 422 0 
z
" transform="scale(0.015625)"/>
       <path id="ArialMT-64" d="M 2575 0 
L 2575 419 
Q 2259 -75 1647 -75 
Q 1250 -75 917 144 
Q 584 363 401 755 
Q 219 1147 219 1656 
Q 219 2153 384 2558 
Q 550 2963 881 3178 
Q 1213 3394 1622 3394 
Q 1922 3394 2156 3267 
Q 2391 3141 2538 2938 
L 2538 4581 
L 3097 4581 
L 3097 0 
L 2575 0 
z
M 797 1656 
Q 797 1019 1065 703 
Q 1334 388 1700 388 
Q 2069 388 2326 689 
Q 2584 991 2584 1609 
Q 2584 2291 2321 2609 
Q 2059 2928 1675 2928 
Q 1300 2928 1048 2622 
Q 797 2316 797 1656 
z
" transform="scale(0.015625)"/>
       <path id="ArialMT-20" transform="scale(0.015625)"/>
       <path id="ArialMT-4d" d="M 475 0 
L 475 4581 
L 1388 4581 
L 2472 1338 
Q 2622 884 2691 659 
Q 2769 909 2934 1394 
L 4031 4581 
L 4847 4581 
L 4847 0 
L 4263 0 
L 4263 3834 
L 2931 0 
L 2384 0 
L 1059 3900 
L 1059 0 
L 475 0 
z
" transform="scale(0.015625)"/>
       <path id="ArialMT-73" d="M 197 991 
L 753 1078 
Q 800 744 1014 566 
Q 1228 388 1613 388 
Q 2000 388 2187 545 
Q 2375 703 2375 916 
Q 2375 1106 2209 1216 
Q 2094 1291 1634 1406 
Q 1016 1563 777 1677 
Q 538 1791 414 1992 
Q 291 2194 291 2438 
Q 291 2659 392 2848 
Q 494 3038 669 3163 
Q 800 3259 1026 3326 
Q 1253 3394 1513 3394 
Q 1903 3394 2198 3281 
Q 2494 3169 2634 2976 
Q 2775 2784 2828 2463 
L 2278 2388 
Q 2241 2644 2061 2787 
Q 1881 2931 1553 2931 
Q 1166 2931 1000 2803 
Q 834 2675 834 2503 
Q 834 2394 903 2306 
Q 972 2216 1119 2156 
Q 1203 2125 1616 2013 
Q 2213 1853 2448 1751 
Q 2684 1650 2818 1456 
Q 2953 1263 2953 975 
Q 2953 694 2789 445 
Q 2625 197 2315 61 
Q 2006 -75 1616 -75 
Q 969 -75 630 194 
Q 291 463 197 991 
z
" transform="scale(0.015625)"/>
       <path id="ArialMT-6f" d="M 213 1659 
Q 213 2581 725 3025 
Q 1153 3394 1769 3394 
Q 2453 3394 2887 2945 
Q 3322 2497 3322 1706 
Q 3322 1066 3130 698 
Q 2938 331 2570 128 
Q 2203 -75 1769 -75 
Q 1072 -75 642 372 
Q 213 819 213 1659 
z
M 791 1659 
Q 791 1022 1069 705 
Q 1347 388 1769 388 
Q 2188 388 2466 706 
Q 2744 1025 2744 1678 
Q 2744 2294 2464 2611 
Q 2184 2928 1769 2928 
Q 1347 2928 1069 2612 
Q 791 2297 791 1659 
z
" transform="scale(0.015625)"/>
       <path id="ArialMT-66" d="M 556 0 
L 556 2881 
L 59 2881 
L 59 3319 
L 556 3319 
L 556 3672 
Q 556 4006 616 4169 
Q 697 4388 901 4523 
Q 1106 4659 1475 4659 
Q 1713 4659 2000 4603 
L 1916 4113 
Q 1741 4144 1584 4144 
Q 1328 4144 1222 4034 
Q 1116 3925 1116 3625 
L 1116 3319 
L 1763 3319 
L 1763 2881 
L 1116 2881 
L 1116 0 
L 556 0 
z
" transform="scale(0.015625)"/>
       <path id="ArialMT-76" d="M 1344 0 
L 81 3319 
L 675 3319 
L 1388 1331 
Q 1503 1009 1600 663 
Q 1675 925 1809 1294 
L 2547 3319 
L 3125 3319 
L 1869 0 
L 1344 0 
z
" transform="scale(0.015625)"/>
       <path id="ArialMT-6c" d="M 409 0 
L 409 4581 
L 972 4581 
L 972 0 
L 409 0 
z
" transform="scale(0.015625)"/>
       <path id="ArialMT-75" d="M 2597 0 
L 2597 488 
Q 2209 -75 1544 -75 
Q 1250 -75 995 37 
Q 741 150 617 320 
Q 494 491 444 738 
Q 409 903 409 1263 
L 409 3319 
L 972 3319 
L 972 1478 
Q 972 1038 1006 884 
Q 1059 663 1231 536 
Q 1403 409 1656 409 
Q 1909 409 2131 539 
Q 2353 669 2445 892 
Q 2538 1116 2538 1541 
L 2538 3319 
L 3100 3319 
L 3100 0 
L 2597 0 
z
" transform="scale(0.015625)"/>
       <path id="ArialMT-28" d="M 1497 -1347 
Q 1031 -759 709 28 
Q 388 816 388 1659 
Q 388 2403 628 3084 
Q 909 3875 1497 4659 
L 1900 4659 
Q 1522 4009 1400 3731 
Q 1209 3300 1100 2831 
Q 966 2247 966 1656 
Q 966 153 1900 -1347 
L 1497 -1347 
z
" transform="scale(0.015625)"/>
       <path id="ArialMT-29" d="M 791 -1347 
L 388 -1347 
Q 1322 153 1322 1656 
Q 1322 2244 1188 2822 
Q 1081 3291 891 3722 
Q 769 4003 388 4659 
L 791 4659 
Q 1378 3875 1659 3084 
Q 1900 2403 1900 1659 
Q 1900 816 1576 28 
Q 1253 -759 791 -1347 
z
" transform="scale(0.015625)"/>
      </defs>
      <use xlink:href="#ArialMT-54"/>
      <use xlink:href="#ArialMT-72" x="57.333984"/>
      <use xlink:href="#ArialMT-69" x="90.634766"/>
      <use xlink:href="#ArialMT-6d" x="112.851562"/>
      <use xlink:href="#ArialMT-6d" x="196.152344"/>
      <use xlink:href="#ArialMT-65" x="279.453125"/>
      <use xlink:href="#ArialMT-64" x="335.068359"/>
      <use xlink:href="#ArialMT-20" x="390.683594"/>
      <use xlink:href="#ArialMT-4d" x="418.466797"/>
      <use xlink:href="#ArialMT-65" x="501.767578"/>
      <use xlink:href="#ArialMT-61" x="557.382812"/>
      <use xlink:href="#ArialMT-6e" x="612.998047"/>
      <use xlink:href="#ArialMT-73" x="668.613281"/>
      <use xlink:href="#ArialMT-20" x="718.613281"/>
      <use xlink:href="#ArialMT-6f" x="746.396484"/>
      <use xlink:href="#ArialMT-66" x="802.011719"/>
      <use xlink:href="#ArialMT-20" x="829.794922"/>
      <use xlink:href="#ArialMT-4d" x="857.578125"/>
      <use xlink:href="#ArialMT-20" x="940.878906"/>
      <use xlink:href="#ArialMT-76" x="968.662109"/>
      <use xlink:href="#ArialMT-61" x="1018.662109"/>
      <use xlink:href="#ArialMT-6c" x="1074.277344"/>
      <use xlink:href="#ArialMT-75" x="1096.494141"/>
      <use xlink:href="#ArialMT-65" x="1152.109375"/>
      <use xlink:href="#ArialMT-73" x="1207.724609"/>
      <use xlink:href="#ArialMT-20" x="1257.724609"/>
      <use xlink:href="#ArialMT-28" x="1285.507812"/>
      <use xlink:href="#ArialMT-54" x="1318.808594"/>
      <use xlink:href="#ArialMT-4d" x="1379.892578"/>
      <use xlink:href="#ArialMT-4d" x="1463.193359"/>
      <use xlink:href="#ArialMT-29" x="1546.494141"/>
     </g>
    </g>
   </g>
   <g id="PolyCollection_1">
    <defs>
     <path id="mc2e85eb6fe" d="M 97.534488 -79.294784 
L 61.662114 -79.294784 
L 61.2275 -79.723215 
L 60.808357 -80.151646 
L 60.405735 -80.580078 
L 60.020579 -81.008509 
L 59.653728 -81.43694 
L 59.305905 -81.865372 
L 58.977712 -82.293803 
L 58.669627 -82.722234 
L 58.382001 -83.150665 
L 58.115058 -83.579097 
L 57.868892 -84.007528 
L 57.643469 -84.435959 
L 57.438634 -84.864391 
L 57.25411 -85.292822 
L 57.089506 -85.721253 
L 56.944325 -86.149684 
L 56.817968 -86.578116 
L 56.709747 -87.006547 
L 56.618893 -87.434978 
L 56.544567 -87.86341 
L 56.485872 -88.291841 
L 56.441863 -88.720272 
L 56.411562 -89.148704 
L 56.393971 -89.577135 
L 56.38808 -90.005566 
L 56.392883 -90.433997 
L 56.407391 -90.862429 
L 56.43064 -91.29086 
L 56.461706 -91.719291 
L 56.499711 -92.147723 
L 56.543837 -92.576154 
L 56.593329 -93.004585 
L 56.647508 -93.433016 
L 56.705772 -93.861448 
L 56.767603 -94.289879 
L 56.832569 -94.71831 
L 56.90033 -95.146742 
L 56.970631 -95.575173 
L 57.043309 -96.003604 
L 57.118288 -96.432035 
L 57.195573 -96.860467 
L 57.275249 -97.288898 
L 57.357476 -97.717329 
L 57.442478 -98.145761 
L 57.530539 -98.574192 
L 57.621997 -99.002623 
L 57.717229 -99.431055 
L 57.816646 -99.859486 
L 57.920683 -100.287917 
L 58.029791 -100.716348 
L 58.144422 -101.14478 
L 58.265027 -101.573211 
L 58.392039 -102.001642 
L 58.525871 -102.430074 
L 58.666907 -102.858505 
L 58.815489 -103.286936 
L 58.971917 -103.715367 
L 59.136443 -104.143799 
L 59.30926 -104.57223 
L 59.490507 -105.000661 
L 59.680259 -105.429093 
L 59.878532 -105.857524 
L 60.085277 -106.285955 
L 60.300384 -106.714386 
L 60.523682 -107.142818 
L 60.754942 -107.571249 
L 60.993882 -107.99968 
L 61.240168 -108.428112 
L 61.493422 -108.856543 
L 61.753225 -109.284974 
L 62.019124 -109.713405 
L 62.29064 -110.141837 
L 62.567271 -110.570268 
L 62.848502 -110.998699 
L 63.133807 -111.427131 
L 63.422662 -111.855562 
L 63.714546 -112.283993 
L 64.008949 -112.712425 
L 64.305375 -113.140856 
L 64.603352 -113.569287 
L 64.902431 -113.997718 
L 65.202192 -114.42615 
L 65.502247 -114.854581 
L 65.802241 -115.283012 
L 66.101855 -115.711444 
L 66.400807 -116.139875 
L 66.698849 -116.568306 
L 66.995769 -116.996737 
L 67.291391 -117.425169 
L 67.585568 -117.8536 
L 67.878185 -118.282031 
L 68.169154 -118.710463 
L 68.458408 -119.138894 
L 68.745901 -119.567325 
L 69.031606 -119.995756 
L 69.315504 -120.424188 
L 69.597585 -120.852619 
L 69.877845 -121.28105 
L 70.15628 -121.709482 
L 89.040323 -121.709482 
L 89.040323 -121.709482 
L 89.318758 -121.28105 
L 89.599018 -120.852619 
L 89.881099 -120.424188 
L 90.164997 -119.995756 
L 90.450701 -119.567325 
L 90.738195 -119.138894 
L 91.027449 -118.710463 
L 91.318418 -118.282031 
L 91.611035 -117.8536 
L 91.905212 -117.425169 
L 92.200834 -116.996737 
L 92.497754 -116.568306 
L 92.795796 -116.139875 
L 93.094748 -115.711444 
L 93.394362 -115.283012 
L 93.694356 -114.854581 
L 93.994411 -114.42615 
L 94.294172 -113.997718 
L 94.593251 -113.569287 
L 94.891228 -113.140856 
L 95.187654 -112.712425 
L 95.482057 -112.283993 
L 95.773941 -111.855562 
L 96.062796 -111.427131 
L 96.348101 -110.998699 
L 96.629331 -110.570268 
L 96.905963 -110.141837 
L 97.177479 -109.713405 
L 97.443378 -109.284974 
L 97.703181 -108.856543 
L 97.956435 -108.428112 
L 98.202721 -107.99968 
L 98.441661 -107.571249 
L 98.672921 -107.142818 
L 98.896219 -106.714386 
L 99.111326 -106.285955 
L 99.318071 -105.857524 
L 99.516344 -105.429093 
L 99.706096 -105.000661 
L 99.887343 -104.57223 
L 100.06016 -104.143799 
L 100.224686 -103.715367 
L 100.381114 -103.286936 
L 100.529696 -102.858505 
L 100.670732 -102.430074 
L 100.804564 -102.001642 
L 100.931576 -101.573211 
L 101.052181 -101.14478 
L 101.166812 -100.716348 
L 101.27592 -100.287917 
L 101.379957 -99.859486 
L 101.479374 -99.431055 
L 101.574606 -99.002623 
L 101.666064 -98.574192 
L 101.754125 -98.145761 
L 101.839127 -97.717329 
L 101.921354 -97.288898 
L 102.00103 -96.860467 
L 102.078315 -96.432035 
L 102.153294 -96.003604 
L 102.225972 -95.575173 
L 102.296273 -95.146742 
L 102.364034 -94.71831 
L 102.429 -94.289879 
L 102.490831 -93.861448 
L 102.549095 -93.433016 
L 102.603273 -93.004585 
L 102.652766 -92.576154 
L 102.696892 -92.147723 
L 102.734897 -91.719291 
L 102.765963 -91.29086 
L 102.789212 -90.862429 
L 102.80372 -90.433997 
L 102.808523 -90.005566 
L 102.802632 -89.577135 
L 102.785041 -89.148704 
L 102.75474 -88.720272 
L 102.710731 -88.291841 
L 102.652036 -87.86341 
L 102.57771 -87.434978 
L 102.486856 -87.006547 
L 102.378635 -86.578116 
L 102.252278 -86.149684 
L 102.107097 -85.721253 
L 101.942493 -85.292822 
L 101.757969 -84.864391 
L 101.553134 -84.435959 
L 101.327711 -84.007528 
L 101.081545 -83.579097 
L 100.814601 -83.150665 
L 100.526976 -82.722234 
L 100.218891 -82.293803 
L 99.890698 -81.865372 
L 99.542875 -81.43694 
L 99.176024 -81.008509 
L 98.790868 -80.580078 
L 98.388246 -80.151646 
L 97.969103 -79.723215 
L 97.534488 -79.294784 
z
" style="stroke: #999999; stroke-width: 2"/>
    </defs>
    <g clip-path="url(#pa7484a74c3)">
     <use xlink:href="#mc2e85eb6fe" x="0" y="255.11811" style="fill: #ffffff; stroke: #999999; stroke-width: 2"/>
    </g>
   </g>
   <g id="PolyCollection_2">
    <defs>
     <path id="m32a2d2e2fe" d="M 158.429449 -49.837187 
L 130.28036 -49.837187 
L 129.957199 -50.354915 
L 129.644473 -50.872642 
L 129.343066 -51.39037 
L 129.053826 -51.908098 
L 128.777557 -52.425825 
L 128.51502 -52.943553 
L 128.266922 -53.461281 
L 128.033916 -53.979008 
L 127.816593 -54.496736 
L 127.61548 -55.014464 
L 127.431035 -55.532191 
L 127.263647 -56.049919 
L 127.113627 -56.567647 
L 126.981213 -57.085374 
L 126.86656 -57.603102 
L 126.769748 -58.12083 
L 126.690772 -58.638557 
L 126.629548 -59.156285 
L 126.58591 -59.674013 
L 126.559613 -60.19174 
L 126.550331 -60.709468 
L 126.557662 -61.227196 
L 126.581128 -61.744923 
L 126.620181 -62.262651 
L 126.674203 -62.780379 
L 126.74251 -63.298106 
L 126.824357 -63.815834 
L 126.918946 -64.333562 
L 127.025423 -64.851289 
L 127.142891 -65.369017 
L 127.270412 -65.886745 
L 127.407013 -66.404472 
L 127.551693 -66.9222 
L 127.703429 -67.439928 
L 127.861182 -67.957655 
L 128.023902 -68.475383 
L 128.19054 -68.993111 
L 128.360048 -69.510839 
L 128.53139 -70.028566 
L 128.703545 -70.546294 
L 128.875517 -71.064022 
L 129.04634 -71.581749 
L 129.21508 -72.099477 
L 129.380848 -72.617205 
L 129.542799 -73.134932 
L 129.700142 -73.65266 
L 129.852139 -74.170388 
L 129.998115 -74.688115 
L 130.137461 -75.205843 
L 130.269635 -75.723571 
L 130.394165 -76.241298 
L 130.510656 -76.759026 
L 130.618788 -77.276754 
L 130.718318 -77.794481 
L 130.809082 -78.312209 
L 130.890998 -78.829937 
L 130.96406 -79.347664 
L 131.028342 -79.865392 
L 131.083996 -80.38312 
L 131.131251 -80.900847 
L 131.170408 -81.418575 
L 131.201839 -81.936303 
L 131.225988 -82.45403 
L 131.243358 -82.971758 
L 131.254516 -83.489486 
L 131.260082 -84.007213 
L 131.260731 -84.524941 
L 131.257179 -85.042669 
L 131.250185 -85.560396 
L 131.240539 -86.078124 
L 131.229063 -86.595852 
L 131.216597 -87.113579 
L 131.203999 -87.631307 
L 131.192134 -88.149035 
L 131.181868 -88.666763 
L 131.174067 -89.18449 
L 131.169581 -89.702218 
L 131.169245 -90.219946 
L 131.173872 -90.737673 
L 131.184244 -91.255401 
L 131.201107 -91.773129 
L 131.225168 -92.290856 
L 131.257088 -92.808584 
L 131.297478 -93.326312 
L 131.346893 -93.844039 
L 131.405833 -94.361767 
L 131.474735 -94.879495 
L 131.55397 -95.397222 
L 131.643845 -95.91495 
L 131.744598 -96.432678 
L 131.856399 -96.950405 
L 131.979347 -97.468133 
L 132.113472 -97.985861 
L 132.258735 -98.503588 
L 132.415028 -99.021316 
L 132.582177 -99.539044 
L 132.759944 -100.056771 
L 132.94803 -100.574499 
L 133.146075 -101.092227 
L 155.563734 -101.092227 
L 155.563734 -101.092227 
L 155.761779 -100.574499 
L 155.949865 -100.056771 
L 156.127632 -99.539044 
L 156.294781 -99.021316 
L 156.451074 -98.503588 
L 156.596336 -97.985861 
L 156.730461 -97.468133 
L 156.853409 -96.950405 
L 156.965211 -96.432678 
L 157.065964 -95.91495 
L 157.155839 -95.397222 
L 157.235074 -94.879495 
L 157.303975 -94.361767 
L 157.362915 -93.844039 
L 157.412331 -93.326312 
L 157.452721 -92.808584 
L 157.484641 -92.290856 
L 157.508702 -91.773129 
L 157.525565 -91.255401 
L 157.535936 -90.737673 
L 157.540563 -90.219946 
L 157.540228 -89.702218 
L 157.535742 -89.18449 
L 157.52794 -88.666763 
L 157.517675 -88.149035 
L 157.50581 -87.631307 
L 157.493211 -87.113579 
L 157.480746 -86.595852 
L 157.46927 -86.078124 
L 157.459624 -85.560396 
L 157.45263 -85.042669 
L 157.449078 -84.524941 
L 157.449726 -84.007213 
L 157.455293 -83.489486 
L 157.466451 -82.971758 
L 157.483821 -82.45403 
L 157.507969 -81.936303 
L 157.539401 -81.418575 
L 157.578558 -80.900847 
L 157.625812 -80.38312 
L 157.681467 -79.865392 
L 157.745749 -79.347664 
L 157.818811 -78.829937 
L 157.900726 -78.312209 
L 157.991491 -77.794481 
L 158.091021 -77.276754 
L 158.199153 -76.759026 
L 158.315644 -76.241298 
L 158.440174 -75.723571 
L 158.572348 -75.205843 
L 158.711694 -74.688115 
L 158.85767 -74.170388 
L 159.009667 -73.65266 
L 159.167009 -73.134932 
L 159.328961 -72.617205 
L 159.494729 -72.099477 
L 159.663469 -71.581749 
L 159.834291 -71.064022 
L 160.006264 -70.546294 
L 160.178419 -70.028566 
L 160.34976 -69.510839 
L 160.519268 -68.993111 
L 160.685906 -68.475383 
L 160.848627 -67.957655 
L 161.006379 -67.439928 
L 161.158115 -66.9222 
L 161.302796 -66.404472 
L 161.439397 -65.886745 
L 161.566918 -65.369017 
L 161.684386 -64.851289 
L 161.790863 -64.333562 
L 161.885451 -63.815834 
L 161.967299 -63.298106 
L 162.035606 -62.780379 
L 162.089627 -62.262651 
L 162.12868 -61.744923 
L 162.152147 -61.227196 
L 162.159478 -60.709468 
L 162.150196 -60.19174 
L 162.123898 -59.674013 
L 162.080261 -59.156285 
L 162.019037 -58.638557 
L 161.940061 -58.12083 
L 161.843248 -57.603102 
L 161.728596 -57.085374 
L 161.596182 -56.567647 
L 161.446162 -56.049919 
L 161.278774 -55.532191 
L 161.094329 -55.014464 
L 160.893216 -54.496736 
L 160.675893 -53.979008 
L 160.442887 -53.461281 
L 160.194789 -52.943553 
L 159.932252 -52.425825 
L 159.655983 -51.908098 
L 159.366742 -51.39037 
L 159.065336 -50.872642 
L 158.75261 -50.354915 
L 158.429449 -49.837187 
z
" style="stroke: #999999; stroke-width: 2"/>
    </defs>
    <g clip-path="url(#pa7484a74c3)">
     <use xlink:href="#m32a2d2e2fe" x="0" y="255.11811" style="fill: #ffffff; stroke: #999999; stroke-width: 2"/>
    </g>
   </g>
   <g id="PolyCollection_3">
    <defs>
     <path id="m8b32ceeda8" d="M 217.246267 -155.159982 
L 200.976748 -155.159982 
L 200.60542 -155.836961 
L 200.221446 -156.51394 
L 199.824334 -157.190919 
L 199.413645 -157.867899 
L 198.989013 -158.544878 
L 198.550169 -159.221857 
L 198.09696 -159.898836 
L 197.629374 -160.575815 
L 197.147559 -161.252795 
L 196.651842 -161.929774 
L 196.142754 -162.606753 
L 195.62104 -163.283732 
L 195.087678 -163.960711 
L 194.543889 -164.637691 
L 193.991146 -165.31467 
L 193.431175 -165.991649 
L 192.865961 -166.668628 
L 192.29774 -167.345607 
L 191.72899 -168.022587 
L 191.16242 -168.699566 
L 190.600952 -169.376545 
L 190.047696 -170.053524 
L 189.505926 -170.730504 
L 188.979048 -171.407483 
L 188.470565 -172.084462 
L 187.98404 -172.761441 
L 187.523052 -173.43842 
L 187.09116 -174.1154 
L 186.691852 -174.792379 
L 186.328504 -175.469358 
L 186.004331 -176.146337 
L 185.72235 -176.823316 
L 185.485328 -177.500296 
L 185.295749 -178.177275 
L 185.155773 -178.854254 
L 185.067203 -179.531233 
L 185.031458 -180.208212 
L 185.049543 -180.885192 
L 185.122035 -181.562171 
L 185.249068 -182.23915 
L 185.430326 -182.916129 
L 185.665039 -183.593109 
L 185.951991 -184.270088 
L 186.28953 -184.947067 
L 186.675584 -185.624046 
L 187.107684 -186.301025 
L 187.582992 -186.978005 
L 188.09833 -187.654984 
L 188.650224 -188.331963 
L 189.234935 -189.008942 
L 189.848508 -189.685921 
L 190.486815 -190.362901 
L 191.145603 -191.03988 
L 191.820538 -191.716859 
L 192.507255 -192.393838 
L 193.201403 -193.070817 
L 193.898692 -193.747797 
L 194.594934 -194.424776 
L 195.286083 -195.101755 
L 195.968274 -195.778734 
L 196.637858 -196.455713 
L 197.291429 -197.132693 
L 197.925853 -197.809672 
L 198.538288 -198.486651 
L 199.126202 -199.16363 
L 199.687388 -199.84061 
L 200.219973 -200.517589 
L 200.722418 -201.194568 
L 201.193525 -201.871547 
L 201.632433 -202.548526 
L 202.038608 -203.225506 
L 202.411837 -203.902485 
L 202.752211 -204.579464 
L 203.060116 -205.256443 
L 203.336211 -205.933422 
L 203.581407 -206.610402 
L 203.796851 -207.287381 
L 203.983898 -207.96436 
L 204.14409 -208.641339 
L 204.279131 -209.318318 
L 204.390862 -209.995298 
L 204.481236 -210.672277 
L 204.552292 -211.349256 
L 204.606131 -212.026235 
L 204.644893 -212.703214 
L 204.670729 -213.380194 
L 204.685781 -214.057173 
L 204.692163 -214.734152 
L 204.691934 -215.411131 
L 204.687084 -216.088111 
L 204.679512 -216.76509 
L 204.671016 -217.442069 
L 204.663272 -218.119048 
L 204.657826 -218.796027 
L 204.656082 -219.473007 
L 204.659293 -220.149986 
L 204.668554 -220.826965 
L 204.684801 -221.503944 
L 204.708804 -222.180923 
L 213.514211 -222.180923 
L 213.514211 -222.180923 
L 213.538214 -221.503944 
L 213.554461 -220.826965 
L 213.563722 -220.149986 
L 213.566933 -219.473007 
L 213.565188 -218.796027 
L 213.559742 -218.119048 
L 213.551998 -217.442069 
L 213.543502 -216.76509 
L 213.535931 -216.088111 
L 213.53108 -215.411131 
L 213.530851 -214.734152 
L 213.537233 -214.057173 
L 213.552286 -213.380194 
L 213.578122 -212.703214 
L 213.616883 -212.026235 
L 213.670723 -211.349256 
L 213.741779 -210.672277 
L 213.832153 -209.995298 
L 213.943884 -209.318318 
L 214.078925 -208.641339 
L 214.239116 -207.96436 
L 214.426163 -207.287381 
L 214.641607 -206.610402 
L 214.886804 -205.933422 
L 215.162898 -205.256443 
L 215.470804 -204.579464 
L 215.811178 -203.902485 
L 216.184406 -203.225506 
L 216.590581 -202.548526 
L 217.029489 -201.871547 
L 217.500597 -201.194568 
L 218.003042 -200.517589 
L 218.535626 -199.84061 
L 219.096813 -199.16363 
L 219.684727 -198.486651 
L 220.297162 -197.809672 
L 220.931585 -197.132693 
L 221.585156 -196.455713 
L 222.25474 -195.778734 
L 222.936932 -195.101755 
L 223.628081 -194.424776 
L 224.324322 -193.747797 
L 225.021611 -193.070817 
L 225.71576 -192.393838 
L 226.402477 -191.716859 
L 227.077411 -191.03988 
L 227.736199 -190.362901 
L 228.374507 -189.685921 
L 228.98808 -189.008942 
L 229.572791 -188.331963 
L 230.124684 -187.654984 
L 230.640023 -186.978005 
L 231.11533 -186.301025 
L 231.54743 -185.624046 
L 231.933484 -184.947067 
L 232.271024 -184.270088 
L 232.557976 -183.593109 
L 232.792689 -182.916129 
L 232.973946 -182.23915 
L 233.10098 -181.562171 
L 233.173472 -180.885192 
L 233.191557 -180.208212 
L 233.155811 -179.531233 
L 233.067242 -178.854254 
L 232.927266 -178.177275 
L 232.737687 -177.500296 
L 232.500665 -176.823316 
L 232.218683 -176.146337 
L 231.894511 -175.469358 
L 231.531162 -174.792379 
L 231.131854 -174.1154 
L 230.699962 -173.43842 
L 230.238975 -172.761441 
L 229.752449 -172.084462 
L 229.243966 -171.407483 
L 228.717088 -170.730504 
L 228.175319 -170.053524 
L 227.622063 -169.376545 
L 227.060595 -168.699566 
L 226.494025 -168.022587 
L 225.925275 -167.345607 
L 225.357053 -166.668628 
L 224.791839 -165.991649 
L 224.231869 -165.31467 
L 223.679125 -164.637691 
L 223.135336 -163.960711 
L 222.601975 -163.283732 
L 222.080261 -162.606753 
L 221.571173 -161.929774 
L 221.075456 -161.252795 
L 220.59364 -160.575815 
L 220.126054 -159.898836 
L 219.672846 -159.221857 
L 219.234002 -158.544878 
L 218.80937 -157.867899 
L 218.39868 -157.190919 
L 218.001569 -156.51394 
L 217.617595 -155.836961 
L 217.246267 -155.159982 
z
" style="stroke: #999999; stroke-width: 2"/>
    </defs>
    <g clip-path="url(#pa7484a74c3)">
     <use xlink:href="#m8b32ceeda8" x="0" y="255.11811" style="fill: #ffffff; stroke: #999999; stroke-width: 2"/>
    </g>
   </g>
   <g id="PolyCollection_4">
    <defs>
     <path id="ma7f59334a2" d="M 288.377895 -92.98895 
L 259.358325 -92.98895 
L 259.048856 -93.460976 
L 258.755111 -93.933002 
L 258.477803 -94.405029 
L 258.217527 -94.877055 
L 257.974757 -95.349082 
L 257.749837 -95.821108 
L 257.542983 -96.293135 
L 257.354273 -96.765161 
L 257.183654 -97.237188 
L 257.030935 -97.709214 
L 256.895796 -98.18124 
L 256.777783 -98.653267 
L 256.676319 -99.125293 
L 256.590708 -99.59732 
L 256.520142 -100.069346 
L 256.463707 -100.541373 
L 256.420397 -101.013399 
L 256.38912 -101.485425 
L 256.368712 -101.957452 
L 256.357947 -102.429478 
L 256.355554 -102.901505 
L 256.360223 -103.373531 
L 256.370624 -103.845558 
L 256.38542 -104.317584 
L 256.403277 -104.78961 
L 256.422881 -105.261637 
L 256.44295 -105.733663 
L 256.462247 -106.20569 
L 256.479591 -106.677716 
L 256.49387 -107.149743 
L 256.504051 -107.621769 
L 256.50919 -108.093795 
L 256.508439 -108.565822 
L 256.501057 -109.037848 
L 256.486413 -109.509875 
L 256.463995 -109.981901 
L 256.43341 -110.453928 
L 256.394392 -110.925954 
L 256.346797 -111.39798 
L 256.290609 -111.870007 
L 256.225936 -112.342033 
L 256.153012 -112.81406 
L 256.072186 -113.286086 
L 255.983925 -113.758113 
L 255.888805 -114.230139 
L 255.787507 -114.702165 
L 255.680807 -115.174192 
L 255.569568 -115.646218 
L 255.454735 -116.118245 
L 255.337321 -116.590271 
L 255.218401 -117.062298 
L 255.099099 -117.534324 
L 254.980579 -118.00635 
L 254.864034 -118.478377 
L 254.750675 -118.950403 
L 254.641722 -119.42243 
L 254.53839 -119.894456 
L 254.441881 -120.366483 
L 254.353375 -120.838509 
L 254.27402 -121.310536 
L 254.204919 -121.782562 
L 254.147127 -122.254588 
L 254.101641 -122.726615 
L 254.06939 -123.198641 
L 254.051235 -123.670668 
L 254.047956 -124.142694 
L 254.060251 -124.614721 
L 254.088733 -125.086747 
L 254.133925 -125.558773 
L 254.196255 -126.0308 
L 254.27606 -126.502826 
L 254.373581 -126.974853 
L 254.488965 -127.446879 
L 254.622265 -127.918906 
L 254.773442 -128.390932 
L 254.942364 -128.862958 
L 255.128817 -129.334985 
L 255.332497 -129.807011 
L 255.553025 -130.279038 
L 255.789944 -130.751064 
L 256.042725 -131.223091 
L 256.310776 -131.695117 
L 256.593441 -132.167143 
L 256.890013 -132.63917 
L 257.199733 -133.111196 
L 257.521799 -133.583223 
L 257.855374 -134.055249 
L 258.199585 -134.527276 
L 258.553538 -134.999302 
L 258.916315 -135.471328 
L 259.286984 -135.943355 
L 259.664604 -136.415381 
L 260.04823 -136.887408 
L 260.436917 -137.359434 
L 260.829722 -137.831461 
L 261.225716 -138.303487 
L 261.62398 -138.775513 
L 262.023612 -139.24754 
L 262.423731 -139.719566 
L 285.31249 -139.719566 
L 285.31249 -139.719566 
L 285.712609 -139.24754 
L 286.112241 -138.775513 
L 286.510504 -138.303487 
L 286.906498 -137.831461 
L 287.299304 -137.359434 
L 287.68799 -136.887408 
L 288.071616 -136.415381 
L 288.449237 -135.943355 
L 288.819906 -135.471328 
L 289.182682 -134.999302 
L 289.536635 -134.527276 
L 289.880847 -134.055249 
L 290.214421 -133.583223 
L 290.536488 -133.111196 
L 290.846208 -132.63917 
L 291.142779 -132.167143 
L 291.425445 -131.695117 
L 291.693495 -131.223091 
L 291.946276 -130.751064 
L 292.183195 -130.279038 
L 292.403723 -129.807011 
L 292.607404 -129.334985 
L 292.793856 -128.862958 
L 292.962779 -128.390932 
L 293.113955 -127.918906 
L 293.247255 -127.446879 
L 293.362639 -126.974853 
L 293.460161 -126.502826 
L 293.539966 -126.0308 
L 293.602296 -125.558773 
L 293.647487 -125.086747 
L 293.675969 -124.614721 
L 293.688265 -124.142694 
L 293.684986 -123.670668 
L 293.66683 -123.198641 
L 293.63458 -122.726615 
L 293.589093 -122.254588 
L 293.531302 -121.782562 
L 293.462201 -121.310536 
L 293.382845 -120.838509 
L 293.29434 -120.366483 
L 293.197831 -119.894456 
L 293.094499 -119.42243 
L 292.985545 -118.950403 
L 292.872186 -118.478377 
L 292.755642 -118.00635 
L 292.637122 -117.534324 
L 292.51782 -117.062298 
L 292.3989 -116.590271 
L 292.281486 -116.118245 
L 292.166653 -115.646218 
L 292.055414 -115.174192 
L 291.948713 -114.702165 
L 291.847415 -114.230139 
L 291.752296 -113.758113 
L 291.664035 -113.286086 
L 291.583209 -112.81406 
L 291.510284 -112.342033 
L 291.445612 -111.870007 
L 291.389424 -111.39798 
L 291.341829 -110.925954 
L 291.30281 -110.453928 
L 291.272226 -109.981901 
L 291.249807 -109.509875 
L 291.235164 -109.037848 
L 291.227781 -108.565822 
L 291.227031 -108.093795 
L 291.232169 -107.621769 
L 291.24235 -107.149743 
L 291.25663 -106.677716 
L 291.273974 -106.20569 
L 291.293271 -105.733663 
L 291.31334 -105.261637 
L 291.332944 -104.78961 
L 291.350801 -104.317584 
L 291.365596 -103.845558 
L 291.375997 -103.373531 
L 291.380666 -102.901505 
L 291.378273 -102.429478 
L 291.367509 -101.957452 
L 291.347101 -101.485425 
L 291.315823 -101.013399 
L 291.272513 -100.541373 
L 291.216078 -100.069346 
L 291.145512 -99.59732 
L 291.059901 -99.125293 
L 290.958438 -98.653267 
L 290.840425 -98.18124 
L 290.705285 -97.709214 
L 290.552567 -97.237188 
L 290.381947 -96.765161 
L 290.193238 -96.293135 
L 289.986383 -95.821108 
L 289.761464 -95.349082 
L 289.518693 -94.877055 
L 289.258417 -94.405029 
L 288.981109 -93.933002 
L 288.687364 -93.460976 
L 288.377895 -92.98895 
z
" style="stroke: #999999; stroke-width: 2"/>
    </defs>
    <g clip-path="url(#pa7484a74c3)">
     <use xlink:href="#ma7f59334a2" x="0" y="255.11811" style="fill: #ffffff; stroke: #999999; stroke-width: 2"/>
    </g>
   </g>
   <g id="PolyCollection_5">
    <defs>
     <path id="mb8ba836fa5" d="M 347.809537 -102.736679 
L 329.43989 -102.736679 
L 329.242582 -103.18455 
L 329.045294 -103.632421 
L 328.847642 -104.080292 
L 328.649211 -104.528163 
L 328.449554 -104.976034 
L 328.248197 -105.423905 
L 328.044648 -105.871776 
L 327.838398 -106.319647 
L 327.628933 -106.767518 
L 327.415734 -107.215389 
L 327.198288 -107.663261 
L 326.976095 -108.111132 
L 326.748672 -108.559003 
L 326.515561 -109.006874 
L 326.276338 -109.454745 
L 326.030617 -109.902616 
L 325.778057 -110.350487 
L 325.518368 -110.798358 
L 325.25132 -111.246229 
L 324.976741 -111.6941 
L 324.69453 -112.141971 
L 324.404653 -112.589842 
L 324.107154 -113.037713 
L 323.802153 -113.485584 
L 323.48985 -113.933455 
L 323.170525 -114.381326 
L 322.84454 -114.829197 
L 322.512337 -115.277069 
L 322.174442 -115.72494 
L 321.831456 -116.172811 
L 321.484057 -116.620682 
L 321.132997 -117.068553 
L 320.779096 -117.516424 
L 320.423239 -117.964295 
L 320.06637 -118.412166 
L 319.709486 -118.860037 
L 319.353633 -119.307908 
L 318.999894 -119.755779 
L 318.649389 -120.20365 
L 318.30326 -120.651521 
L 317.962671 -121.099392 
L 317.628792 -121.547263 
L 317.302797 -121.995134 
L 316.985855 -122.443005 
L 316.679118 -122.890876 
L 316.383719 -123.338748 
L 316.100758 -123.786619 
L 315.831302 -124.23449 
L 315.57637 -124.682361 
L 315.336933 -125.130232 
L 315.113903 -125.578103 
L 314.908131 -126.025974 
L 314.720398 -126.473845 
L 314.551415 -126.921716 
L 314.401816 -127.369587 
L 314.272155 -127.817458 
L 314.162904 -128.265329 
L 314.074453 -128.7132 
L 314.007106 -129.161071 
L 313.961082 -129.608942 
L 313.936516 -130.056813 
L 313.933458 -130.504684 
L 313.951878 -130.952556 
L 313.991663 -131.400427 
L 314.052628 -131.848298 
L 314.134509 -132.296169 
L 314.236976 -132.74404 
L 314.359632 -133.191911 
L 314.502022 -133.639782 
L 314.663631 -134.087653 
L 314.843898 -134.535524 
L 315.042213 -134.983395 
L 315.257928 -135.431266 
L 315.490361 -135.879137 
L 315.738802 -136.327008 
L 316.002516 -136.774879 
L 316.28075 -137.22275 
L 316.57274 -137.670621 
L 316.87771 -138.118492 
L 317.194884 -138.566363 
L 317.523483 -139.014235 
L 317.862734 -139.462106 
L 318.211871 -139.909977 
L 318.570138 -140.357848 
L 318.936791 -140.805719 
L 319.311104 -141.25359 
L 319.692363 -141.701461 
L 320.079876 -142.149332 
L 320.472969 -142.597203 
L 320.870986 -143.045074 
L 321.273292 -143.492945 
L 321.679272 -143.940816 
L 322.088328 -144.388687 
L 322.499883 -144.836558 
L 322.913378 -145.284429 
L 323.328269 -145.7323 
L 323.74403 -146.180171 
L 324.160148 -146.628043 
L 324.576126 -147.075914 
L 352.6733 -147.075914 
L 352.6733 -147.075914 
L 353.089278 -146.628043 
L 353.505396 -146.180171 
L 353.921157 -145.7323 
L 354.336048 -145.284429 
L 354.749543 -144.836558 
L 355.161098 -144.388687 
L 355.570155 -143.940816 
L 355.976134 -143.492945 
L 356.37844 -143.045074 
L 356.776457 -142.597203 
L 357.16955 -142.149332 
L 357.557063 -141.701461 
L 357.938323 -141.25359 
L 358.312635 -140.805719 
L 358.679288 -140.357848 
L 359.037555 -139.909977 
L 359.386692 -139.462106 
L 359.725944 -139.014235 
L 360.054543 -138.566363 
L 360.371716 -138.118492 
L 360.676687 -137.670621 
L 360.968676 -137.22275 
L 361.24691 -136.774879 
L 361.510624 -136.327008 
L 361.759065 -135.879137 
L 361.991498 -135.431266 
L 362.207214 -134.983395 
L 362.405529 -134.535524 
L 362.585795 -134.087653 
L 362.747404 -133.639782 
L 362.889794 -133.191911 
L 363.012451 -132.74404 
L 363.114918 -132.296169 
L 363.196799 -131.848298 
L 363.257763 -131.400427 
L 363.297549 -130.952556 
L 363.315968 -130.504684 
L 363.31291 -130.056813 
L 363.288344 -129.608942 
L 363.24232 -129.161071 
L 363.174973 -128.7132 
L 363.086522 -128.265329 
L 362.977272 -127.817458 
L 362.84761 -127.369587 
L 362.698011 -126.921716 
L 362.529028 -126.473845 
L 362.341296 -126.025974 
L 362.135523 -125.578103 
L 361.912493 -125.130232 
L 361.673056 -124.682361 
L 361.418124 -124.23449 
L 361.148668 -123.786619 
L 360.865708 -123.338748 
L 360.570308 -122.890876 
L 360.263571 -122.443005 
L 359.946629 -121.995134 
L 359.620634 -121.547263 
L 359.286756 -121.099392 
L 358.946166 -120.651521 
L 358.600038 -120.20365 
L 358.249532 -119.755779 
L 357.895794 -119.307908 
L 357.53994 -118.860037 
L 357.183056 -118.412166 
L 356.826187 -117.964295 
L 356.47033 -117.516424 
L 356.116429 -117.068553 
L 355.765369 -116.620682 
L 355.41797 -116.172811 
L 355.074984 -115.72494 
L 354.737089 -115.277069 
L 354.404887 -114.829197 
L 354.078901 -114.381326 
L 353.759576 -113.933455 
L 353.447273 -113.485584 
L 353.142272 -113.037713 
L 352.844773 -112.589842 
L 352.554897 -112.141971 
L 352.272685 -111.6941 
L 351.998106 -111.246229 
L 351.731058 -110.798358 
L 351.47137 -110.350487 
L 351.21881 -109.902616 
L 350.973088 -109.454745 
L 350.733865 -109.006874 
L 350.500755 -108.559003 
L 350.273331 -108.111132 
L 350.051138 -107.663261 
L 349.833692 -107.215389 
L 349.620493 -106.767518 
L 349.411028 -106.319647 
L 349.204779 -105.871776 
L 349.001229 -105.423905 
L 348.799873 -104.976034 
L 348.600215 -104.528163 
L 348.401784 -104.080292 
L 348.204133 -103.632421 
L 348.006844 -103.18455 
L 347.809537 -102.736679 
z
" style="stroke: #999999; stroke-width: 2"/>
    </defs>
    <g clip-path="url(#pa7484a74c3)">
     <use xlink:href="#mb8ba836fa5" x="0" y="255.11811" style="fill: #ffffff; stroke: #999999; stroke-width: 2"/>
    </g>
   </g>
   <g id="PolyCollection_6">
    <defs>
     <path id="m013c78a246" d="M 421.095989 -82.494327 
L 385.666643 -82.494327 
L 385.165583 -82.897655 
L 384.671414 -83.300983 
L 384.185304 -83.704311 
L 383.708415 -84.107638 
L 383.241896 -84.510966 
L 382.786879 -84.914294 
L 382.344474 -85.317622 
L 381.915764 -85.720949 
L 381.501803 -86.124277 
L 381.103605 -86.527605 
L 380.722148 -86.930933 
L 380.358363 -87.334261 
L 380.013134 -87.737588 
L 379.687294 -88.140916 
L 379.381619 -88.544244 
L 379.096828 -88.947572 
L 378.833576 -89.350899 
L 378.592456 -89.754227 
L 378.373994 -90.157555 
L 378.178646 -90.560883 
L 378.006798 -90.964211 
L 377.858762 -91.367538 
L 377.734778 -91.770866 
L 377.635009 -92.174194 
L 377.559542 -92.577522 
L 377.508388 -92.980849 
L 377.481481 -93.384177 
L 377.478675 -93.787505 
L 377.49975 -94.190833 
L 377.544407 -94.594161 
L 377.612271 -94.997488 
L 377.702893 -95.400816 
L 377.815747 -95.804144 
L 377.950235 -96.207472 
L 378.10569 -96.610799 
L 378.281371 -97.014127 
L 378.476474 -97.417455 
L 378.690129 -97.820783 
L 378.921402 -98.224111 
L 379.169305 -98.627438 
L 379.43279 -99.030766 
L 379.710761 -99.434094 
L 380.002073 -99.837422 
L 380.305539 -100.240749 
L 380.619936 -100.644077 
L 380.944004 -101.047405 
L 381.276461 -101.450733 
L 381.616001 -101.854061 
L 381.961303 -102.257388 
L 382.311037 -102.660716 
L 382.663873 -103.064044 
L 383.018485 -103.467372 
L 383.373559 -103.870699 
L 383.727801 -104.274027 
L 384.079943 -104.677355 
L 384.428752 -105.080683 
L 384.773037 -105.484011 
L 385.111657 -105.887338 
L 385.443524 -106.290666 
L 385.767617 -106.693994 
L 386.082985 -107.097322 
L 386.388751 -107.500649 
L 386.684123 -107.903977 
L 386.968397 -108.307305 
L 387.24096 -108.710633 
L 387.5013 -109.113961 
L 387.749004 -109.517288 
L 387.983764 -109.920616 
L 388.205377 -110.323944 
L 388.413749 -110.727272 
L 388.608895 -111.130599 
L 388.790936 -111.533927 
L 388.9601 -111.937255 
L 389.116718 -112.340583 
L 389.261225 -112.743911 
L 389.39415 -113.147238 
L 389.516114 -113.550566 
L 389.627827 -113.953894 
L 389.730076 -114.357222 
L 389.823721 -114.76055 
L 389.909686 -115.163877 
L 389.988951 -115.567205 
L 390.062544 -115.970533 
L 390.131529 -116.373861 
L 390.196996 -116.777188 
L 390.260056 -117.180516 
L 390.321823 -117.583844 
L 390.383411 -117.987172 
L 390.44592 -118.3905 
L 390.510427 -118.793827 
L 390.577977 -119.197155 
L 390.649571 -119.600483 
L 390.726162 -120.003811 
L 390.808644 -120.407138 
L 390.897845 -120.810466 
L 390.994519 -121.213794 
L 391.099344 -121.617122 
L 391.212911 -122.02045 
L 391.335727 -122.423777 
L 415.426905 -122.423777 
L 415.426905 -122.423777 
L 415.549721 -122.02045 
L 415.663288 -121.617122 
L 415.768113 -121.213794 
L 415.864787 -120.810466 
L 415.953988 -120.407138 
L 416.03647 -120.003811 
L 416.113061 -119.600483 
L 416.184655 -119.197155 
L 416.252205 -118.793827 
L 416.316712 -118.3905 
L 416.379221 -117.987172 
L 416.440809 -117.583844 
L 416.502577 -117.180516 
L 416.565636 -116.777188 
L 416.631104 -116.373861 
L 416.700088 -115.970533 
L 416.773681 -115.567205 
L 416.852947 -115.163877 
L 416.938912 -114.76055 
L 417.032556 -114.357222 
L 417.134805 -113.953894 
L 417.246518 -113.550566 
L 417.368482 -113.147238 
L 417.501407 -112.743911 
L 417.645914 -112.340583 
L 417.802532 -111.937255 
L 417.971696 -111.533927 
L 418.153737 -111.130599 
L 418.348883 -110.727272 
L 418.557255 -110.323944 
L 418.778869 -109.920616 
L 419.013628 -109.517288 
L 419.261332 -109.113961 
L 419.521672 -108.710633 
L 419.794236 -108.307305 
L 420.078509 -107.903977 
L 420.373881 -107.500649 
L 420.679647 -107.097322 
L 420.995015 -106.693994 
L 421.319108 -106.290666 
L 421.650976 -105.887338 
L 421.989595 -105.484011 
L 422.33388 -105.080683 
L 422.68269 -104.677355 
L 423.034832 -104.274027 
L 423.389073 -103.870699 
L 423.744147 -103.467372 
L 424.098759 -103.064044 
L 424.451595 -102.660716 
L 424.80133 -102.257388 
L 425.146631 -101.854061 
L 425.486171 -101.450733 
L 425.818628 -101.047405 
L 426.142697 -100.644077 
L 426.457093 -100.240749 
L 426.76056 -99.837422 
L 427.051872 -99.434094 
L 427.329842 -99.030766 
L 427.593327 -98.627438 
L 427.84123 -98.224111 
L 428.072503 -97.820783 
L 428.286158 -97.417455 
L 428.481261 -97.014127 
L 428.656942 -96.610799 
L 428.812397 -96.207472 
L 428.946885 -95.804144 
L 429.059739 -95.400816 
L 429.150361 -94.997488 
L 429.218225 -94.594161 
L 429.262882 -94.190833 
L 429.283957 -93.787505 
L 429.281152 -93.384177 
L 429.254244 -92.980849 
L 429.20309 -92.577522 
L 429.127623 -92.174194 
L 429.027854 -91.770866 
L 428.90387 -91.367538 
L 428.755834 -90.964211 
L 428.583986 -90.560883 
L 428.388638 -90.157555 
L 428.170176 -89.754227 
L 427.929056 -89.350899 
L 427.665805 -88.947572 
L 427.381013 -88.544244 
L 427.075338 -88.140916 
L 426.749498 -87.737588 
L 426.404269 -87.334261 
L 426.040484 -86.930933 
L 425.659027 -86.527605 
L 425.26083 -86.124277 
L 424.846868 -85.720949 
L 424.418159 -85.317622 
L 423.975754 -84.914294 
L 423.520736 -84.510966 
L 423.054217 -84.107638 
L 422.577328 -83.704311 
L 422.091218 -83.300983 
L 421.597049 -82.897655 
L 421.095989 -82.494327 
z
" style="stroke: #999999; stroke-width: 2"/>
    </defs>
    <g clip-path="url(#pa7484a74c3)">
     <use xlink:href="#m013c78a246" x="0" y="255.11811" style="fill: #ffffff; stroke: #999999; stroke-width: 2"/>
    </g>
   </g>
   <g id="PolyCollection_7">
    <defs>
     <path id="m64312525ea" d="M 471.74119 -110.359846 
L 464.534648 -110.359846 
L 464.472714 -111.302545 
L 464.413825 -112.245243 
L 464.358069 -113.187941 
L 464.305514 -114.13064 
L 464.256209 -115.073338 
L 464.210181 -116.016036 
L 464.167439 -116.958734 
L 464.127967 -117.901433 
L 464.091727 -118.844131 
L 464.058659 -119.786829 
L 464.028677 -120.729528 
L 464.001672 -121.672226 
L 463.977508 -122.614924 
L 463.956027 -123.557623 
L 463.937042 -124.500321 
L 463.920343 -125.443019 
L 463.905691 -126.385718 
L 463.892824 -127.328416 
L 463.881455 -128.271114 
L 463.871269 -129.213813 
L 463.86193 -130.156511 
L 463.853076 -131.099209 
L 463.844323 -132.041907 
L 463.835265 -132.984606 
L 463.825478 -133.927304 
L 463.814515 -134.870002 
L 463.801915 -135.812701 
L 463.787203 -136.755399 
L 463.769889 -137.698097 
L 463.749473 -138.640796 
L 463.725449 -139.583494 
L 463.697306 -140.526192 
L 463.664532 -141.468891 
L 463.626616 -142.411589 
L 463.583054 -143.354287 
L 463.533352 -144.296985 
L 463.477027 -145.239684 
L 463.413616 -146.182382 
L 463.342678 -147.12508 
L 463.263797 -148.067779 
L 463.176587 -149.010477 
L 463.080698 -149.953175 
L 462.975818 -150.895874 
L 462.86168 -151.838572 
L 462.738063 -152.78127 
L 462.604797 -153.723969 
L 462.461768 -154.666667 
L 462.30892 -155.609365 
L 462.146259 -156.552064 
L 461.973856 -157.494762 
L 461.791848 -158.43746 
L 461.60044 -159.380158 
L 461.399911 -160.322857 
L 461.190607 -161.265555 
L 460.972949 -162.208253 
L 460.747429 -163.150952 
L 460.514609 -164.09365 
L 460.275124 -165.036348 
L 460.029674 -165.979047 
L 459.779026 -166.921745 
L 459.52401 -167.864443 
L 459.265514 -168.807142 
L 459.004481 -169.74984 
L 458.741904 -170.692538 
L 458.47882 -171.635236 
L 458.216306 -172.577935 
L 457.95547 -173.520633 
L 457.697445 -174.463331 
L 457.443386 -175.40603 
L 457.194457 -176.348728 
L 456.951824 -177.291426 
L 456.716652 -178.234125 
L 456.490093 -179.176823 
L 456.273279 -180.119521 
L 456.067314 -181.06222 
L 455.873268 -182.004918 
L 455.692166 -182.947616 
L 455.524984 -183.890315 
L 455.37264 -184.833013 
L 455.23599 -185.775711 
L 455.115817 -186.718409 
L 455.012829 -187.661108 
L 454.927655 -188.603806 
L 454.860836 -189.546504 
L 454.812825 -190.489203 
L 454.783983 -191.431901 
L 454.774576 -192.374599 
L 454.784773 -193.317298 
L 454.814644 -194.259996 
L 454.864165 -195.202694 
L 454.933212 -196.145393 
L 455.021566 -197.088091 
L 455.128914 -198.030789 
L 455.254853 -198.973488 
L 455.398889 -199.916186 
L 455.56045 -200.858884 
L 455.738879 -201.801582 
L 455.93345 -202.744281 
L 456.143367 -203.686979 
L 480.132471 -203.686979 
L 480.132471 -203.686979 
L 480.342388 -202.744281 
L 480.536959 -201.801582 
L 480.715388 -200.858884 
L 480.876949 -199.916186 
L 481.020985 -198.973488 
L 481.146924 -198.030789 
L 481.254272 -197.088091 
L 481.342626 -196.145393 
L 481.411673 -195.202694 
L 481.461194 -194.259996 
L 481.491065 -193.317298 
L 481.501262 -192.374599 
L 481.491855 -191.431901 
L 481.463013 -190.489203 
L 481.415002 -189.546504 
L 481.348183 -188.603806 
L 481.263009 -187.661108 
L 481.160021 -186.718409 
L 481.039848 -185.775711 
L 480.903198 -184.833013 
L 480.750854 -183.890315 
L 480.583672 -182.947616 
L 480.40257 -182.004918 
L 480.208524 -181.06222 
L 480.002559 -180.119521 
L 479.785745 -179.176823 
L 479.559186 -178.234125 
L 479.324014 -177.291426 
L 479.081381 -176.348728 
L 478.832452 -175.40603 
L 478.578393 -174.463331 
L 478.320368 -173.520633 
L 478.059532 -172.577935 
L 477.797018 -171.635236 
L 477.533934 -170.692538 
L 477.271357 -169.74984 
L 477.010324 -168.807142 
L 476.751828 -167.864443 
L 476.496812 -166.921745 
L 476.246164 -165.979047 
L 476.000714 -165.036348 
L 475.761229 -164.09365 
L 475.528409 -163.150952 
L 475.302889 -162.208253 
L 475.085231 -161.265555 
L 474.875927 -160.322857 
L 474.675398 -159.380158 
L 474.48399 -158.43746 
L 474.301982 -157.494762 
L 474.129579 -156.552064 
L 473.966918 -155.609365 
L 473.81407 -154.666667 
L 473.671041 -153.723969 
L 473.537775 -152.78127 
L 473.414158 -151.838572 
L 473.30002 -150.895874 
L 473.19514 -149.953175 
L 473.099251 -149.010477 
L 473.012041 -148.067779 
L 472.93316 -147.12508 
L 472.862222 -146.182382 
L 472.798811 -145.239684 
L 472.742486 -144.296985 
L 472.692784 -143.354287 
L 472.649222 -142.411589 
L 472.611306 -141.468891 
L 472.578532 -140.526192 
L 472.550389 -139.583494 
L 472.526365 -138.640796 
L 472.505949 -137.698097 
L 472.488635 -136.755399 
L 472.473923 -135.812701 
L 472.461323 -134.870002 
L 472.45036 -133.927304 
L 472.440573 -132.984606 
L 472.431515 -132.041907 
L 472.422762 -131.099209 
L 472.413908 -130.156511 
L 472.404569 -129.213813 
L 472.394383 -128.271114 
L 472.383014 -127.328416 
L 472.370147 -126.385718 
L 472.355495 -125.443019 
L 472.338796 -124.500321 
L 472.319811 -123.557623 
L 472.29833 -122.614924 
L 472.274166 -121.672226 
L 472.247161 -120.729528 
L 472.217179 -119.786829 
L 472.184111 -118.844131 
L 472.147871 -117.901433 
L 472.108399 -116.958734 
L 472.065657 -116.016036 
L 472.019629 -115.073338 
L 471.970324 -114.13064 
L 471.917769 -113.187941 
L 471.862013 -112.245243 
L 471.803124 -111.302545 
L 471.74119 -110.359846 
z
" style="stroke: #999999; stroke-width: 2"/>
    </defs>
    <g clip-path="url(#pa7484a74c3)">
     <use xlink:href="#m64312525ea" x="0" y="255.11811" style="fill: #ffffff; stroke: #999999; stroke-width: 2"/>
    </g>
   </g>
   <g id="PathCollection_1"/>
   <g id="PathCollection_2"/>
   <g id="patch_3">
    <path d="M 47.22 213.89811 
L 47.22 24.32 
" style="fill: none; stroke: #262626; stroke-width: 1.25; stroke-linejoin: miter; stroke-linecap: square"/>
   </g>
   <g id="patch_4">
    <path d="M 47.22 213.89811 
L 500.51622 213.89811 
" style="fill: none; stroke: #262626; stroke-width: 1.25; stroke-linejoin: miter; stroke-linecap: square"/>
   </g>
   <g id="PathCollection_3">
    <defs>
     <path id="C0_0_a68aaa802e" d="M 0 2.5 
C 0.663008 2.5 1.29895 2.236584 1.767767 1.767767 
C 2.236584 1.29895 2.5 0.663008 2.5 -0 
C 2.5 -0.663008 2.236584 -1.29895 1.767767 -1.767767 
C 1.29895 -2.236584 0.663008 -2.5 0 -2.5 
C -0.663008 -2.5 -1.29895 -2.236584 -1.767767 -1.767767 
C -2.236584 -1.29895 -2.5 -0.663008 -2.5 0 
C -2.5 0.663008 -2.236584 1.29895 -1.767767 1.767767 
C -1.29895 2.236584 -0.663008 2.5 0 2.5 
z
"/>
    </defs>
    <g clip-path="url(#pa7484a74c3)">
     <use xlink:href="#C0_0_a68aaa802e" x="85.352953" y="133.408629" style="fill: #4c72b0; fill-opacity: 0.75"/>
    </g>
    <g clip-path="url(#pa7484a74c3)">
     <use xlink:href="#C0_0_a68aaa802e" x="85.341655" y="145.742729" style="fill: #4c72b0; fill-opacity: 0.75"/>
    </g>
    <g clip-path="url(#pa7484a74c3)">
     <use xlink:href="#C0_0_a68aaa802e" x="83.224997" y="153.855444" style="fill: #4c72b0; fill-opacity: 0.75"/>
    </g>
    <g clip-path="url(#pa7484a74c3)">
     <use xlink:href="#C0_0_a68aaa802e" x="78.521382" y="151.453308" style="fill: #4c72b0; fill-opacity: 0.75"/>
    </g>
    <g clip-path="url(#pa7484a74c3)">
     <use xlink:href="#C0_0_a68aaa802e" x="73.82879" y="170.653548" style="fill: #dd8452; fill-opacity: 0.75"/>
    </g>
    <g clip-path="url(#pa7484a74c3)">
     <use xlink:href="#C0_0_a68aaa802e" x="74.06191" y="163.340354" style="fill: #dd8452; fill-opacity: 0.75"/>
    </g>
    <g clip-path="url(#pa7484a74c3)">
     <use xlink:href="#C0_0_a68aaa802e" x="79.588008" y="170.373847" style="fill: #dd8452; fill-opacity: 0.75"/>
    </g>
    <g clip-path="url(#pa7484a74c3)">
     <use xlink:href="#C0_0_a68aaa802e" x="73.755015" y="175.823326" style="fill: #dd8452; fill-opacity: 0.75"/>
    </g>
   </g>
   <g id="PathCollection_4">
    <defs>
     <path id="C1_0_0d7936d045" d="M 0 2.5 
C 0.663008 2.5 1.29895 2.236584 1.767767 1.767767 
C 2.236584 1.29895 2.5 0.663008 2.5 -0 
C 2.5 -0.663008 2.236584 -1.29895 1.767767 -1.767767 
C 1.29895 -2.236584 0.663008 -2.5 0 -2.5 
C -0.663008 -2.5 -1.29895 -2.236584 -1.767767 -1.767767 
C -2.236584 -1.29895 -2.5 -0.663008 -2.5 0 
C -2.5 0.663008 -2.236584 1.29895 -1.767767 1.767767 
C -1.29895 2.236584 -0.663008 2.5 0 2.5 
z
"/>
    </defs>
    <g clip-path="url(#pa7484a74c3)">
     <use xlink:href="#C1_0_0d7936d045" x="148.613481" y="198.670742" style="fill: #4c72b0; fill-opacity: 0.75"/>
    </g>
    <g clip-path="url(#pa7484a74c3)">
     <use xlink:href="#C1_0_0d7936d045" x="142.608761" y="194.193931" style="fill: #4c72b0; fill-opacity: 0.75"/>
    </g>
    <g clip-path="url(#pa7484a74c3)">
     <use xlink:href="#C1_0_0d7936d045" x="144.447149" y="205.280923" style="fill: #4c72b0; fill-opacity: 0.75"/>
    </g>
    <g clip-path="url(#pa7484a74c3)">
     <use xlink:href="#C1_0_0d7936d045" x="150.709565" y="194.014101" style="fill: #4c72b0; fill-opacity: 0.75"/>
    </g>
    <g clip-path="url(#pa7484a74c3)">
     <use xlink:href="#C1_0_0d7936d045" x="138.571733" y="164.204708" style="fill: #dd8452; fill-opacity: 0.75"/>
    </g>
    <g clip-path="url(#pa7484a74c3)">
     <use xlink:href="#C1_0_0d7936d045" x="147.931832" y="154.025884" style="fill: #dd8452; fill-opacity: 0.75"/>
    </g>
    <g clip-path="url(#pa7484a74c3)">
     <use xlink:href="#C1_0_0d7936d045" x="142.50021" y="181.972306" style="fill: #dd8452; fill-opacity: 0.75"/>
    </g>
    <g clip-path="url(#pa7484a74c3)">
     <use xlink:href="#C1_0_0d7936d045" x="149.201456" y="159.750684" style="fill: #dd8452; fill-opacity: 0.75"/>
    </g>
   </g>
   <g id="PathCollection_5">
    <defs>
     <path id="C2_0_2f969a237f" d="M 0 2.5 
C 0.663008 2.5 1.29895 2.236584 1.767767 1.767767 
C 2.236584 1.29895 2.5 0.663008 2.5 -0 
C 2.5 -0.663008 2.236584 -1.29895 1.767767 -1.767767 
C 1.29895 -2.236584 0.663008 -2.5 0 -2.5 
C -0.663008 -2.5 -1.29895 -2.236584 -1.767767 -1.767767 
C -2.236584 -1.29895 -2.5 -0.663008 -2.5 0 
C -2.5 0.663008 -2.236584 1.29895 -1.767767 1.767767 
C -1.29895 2.236584 -0.663008 2.5 0 2.5 
z
"/>
    </defs>
    <g clip-path="url(#pa7484a74c3)">
     <use xlink:href="#C2_0_2f969a237f" x="207.165902" y="32.937187" style="fill: #4c72b0; fill-opacity: 0.75"/>
    </g>
    <g clip-path="url(#pa7484a74c3)">
     <use xlink:href="#C2_0_2f969a237f" x="206.87902" y="68.049713" style="fill: #4c72b0; fill-opacity: 0.75"/>
    </g>
    <g clip-path="url(#pa7484a74c3)">
     <use xlink:href="#C2_0_2f969a237f" x="203.592782" y="83.673382" style="fill: #4c72b0; fill-opacity: 0.75"/>
    </g>
    <g clip-path="url(#pa7484a74c3)">
     <use xlink:href="#C2_0_2f969a237f" x="208.036964" y="99.958128" style="fill: #4c72b0; fill-opacity: 0.75"/>
    </g>
    <g clip-path="url(#pa7484a74c3)">
     <use xlink:href="#C2_0_2f969a237f" x="214.232341" y="71.673428" style="fill: #dd8452; fill-opacity: 0.75"/>
    </g>
    <g clip-path="url(#pa7484a74c3)">
     <use xlink:href="#C2_0_2f969a237f" x="210.08998" y="71.946665" style="fill: #dd8452; fill-opacity: 0.75"/>
    </g>
    <g clip-path="url(#pa7484a74c3)">
     <use xlink:href="#C2_0_2f969a237f" x="209.109764" y="77.419158" style="fill: #dd8452; fill-opacity: 0.75"/>
    </g>
    <g clip-path="url(#pa7484a74c3)">
     <use xlink:href="#C2_0_2f969a237f" x="215.183266" y="73.863619" style="fill: #dd8452; fill-opacity: 0.75"/>
    </g>
   </g>
   <g id="PathCollection_6">
    <defs>
     <path id="C3_0_3b312b52fb" d="M 0 2.5 
C 0.663008 2.5 1.29895 2.236584 1.767767 1.767767 
C 2.236584 1.29895 2.5 0.663008 2.5 -0 
C 2.5 -0.663008 2.236584 -1.29895 1.767767 -1.767767 
C 1.29895 -2.236584 0.663008 -2.5 0 -2.5 
C -0.663008 -2.5 -1.29895 -2.236584 -1.767767 -1.767767 
C -2.236584 -1.29895 -2.5 -0.663008 -2.5 0 
C -2.5 0.663008 -2.236584 1.29895 -1.767767 1.767767 
C -1.29895 2.236584 -0.663008 2.5 0 2.5 
z
"/>
    </defs>
    <g clip-path="url(#pa7484a74c3)">
     <use xlink:href="#C3_0_3b312b52fb" x="272.658705" y="159.367753" style="fill: #4c72b0; fill-opacity: 0.75"/>
    </g>
    <g clip-path="url(#pa7484a74c3)">
     <use xlink:href="#C3_0_3b312b52fb" x="274.518657" y="151.316098" style="fill: #4c72b0; fill-opacity: 0.75"/>
    </g>
    <g clip-path="url(#pa7484a74c3)">
     <use xlink:href="#C3_0_3b312b52fb" x="272.388043" y="130.062467" style="fill: #4c72b0; fill-opacity: 0.75"/>
    </g>
    <g clip-path="url(#pa7484a74c3)">
     <use xlink:href="#C3_0_3b312b52fb" x="277.959254" y="162.129161" style="fill: #4c72b0; fill-opacity: 0.75"/>
    </g>
    <g clip-path="url(#pa7484a74c3)">
     <use xlink:href="#C3_0_3b312b52fb" x="273.188499" y="156.368948" style="fill: #4c72b0; fill-opacity: 0.75"/>
    </g>
    <g clip-path="url(#pa7484a74c3)">
     <use xlink:href="#C3_0_3b312b52fb" x="272.969121" y="140.555441" style="fill: #dd8452; fill-opacity: 0.75"/>
    </g>
    <g clip-path="url(#pa7484a74c3)">
     <use xlink:href="#C3_0_3b312b52fb" x="277.496904" y="123.77049" style="fill: #dd8452; fill-opacity: 0.75"/>
    </g>
    <g clip-path="url(#pa7484a74c3)">
     <use xlink:href="#C3_0_3b312b52fb" x="278.297196" y="115.398544" style="fill: #dd8452; fill-opacity: 0.75"/>
    </g>
    <g clip-path="url(#pa7484a74c3)">
     <use xlink:href="#C3_0_3b312b52fb" x="271.685405" y="134.868297" style="fill: #dd8452; fill-opacity: 0.75"/>
    </g>
    <g clip-path="url(#pa7484a74c3)">
     <use xlink:href="#C3_0_3b312b52fb" x="269.001925" y="127.615861" style="fill: #dd8452; fill-opacity: 0.75"/>
    </g>
   </g>
   <g id="PathCollection_7">
    <defs>
     <path id="C4_0_9bb848c9fa" d="M 0 2.5 
C 0.663008 2.5 1.29895 2.236584 1.767767 1.767767 
C 2.236584 1.29895 2.5 0.663008 2.5 -0 
C 2.5 -0.663008 2.236584 -1.29895 1.767767 -1.767767 
C 1.29895 -2.236584 0.663008 -2.5 0 -2.5 
C -0.663008 -2.5 -1.29895 -2.236584 -1.767767 -1.767767 
C -2.236584 -1.29895 -2.5 -0.663008 -2.5 0 
C -2.5 0.663008 -2.236584 1.29895 -1.767767 1.767767 
C -1.29895 2.236584 -0.663008 2.5 0 2.5 
z
"/>
    </defs>
    <g clip-path="url(#pa7484a74c3)">
     <use xlink:href="#C4_0_9bb848c9fa" x="338.749448" y="125.99152" style="fill: #4c72b0; fill-opacity: 0.75"/>
    </g>
    <g clip-path="url(#pa7484a74c3)">
     <use xlink:href="#C4_0_9bb848c9fa" x="344.458798" y="118.322673" style="fill: #4c72b0; fill-opacity: 0.75"/>
    </g>
    <g clip-path="url(#pa7484a74c3)">
     <use xlink:href="#C4_0_9bb848c9fa" x="340.731254" y="135.604569" style="fill: #4c72b0; fill-opacity: 0.75"/>
    </g>
    <g clip-path="url(#pa7484a74c3)">
     <use xlink:href="#C4_0_9bb848c9fa" x="335.989334" y="126.402455" style="fill: #dd8452; fill-opacity: 0.75"/>
    </g>
    <g clip-path="url(#pa7484a74c3)">
     <use xlink:href="#C4_0_9bb848c9fa" x="337.830859" y="152.381431" style="fill: #dd8452; fill-opacity: 0.75"/>
    </g>
    <g clip-path="url(#pa7484a74c3)">
     <use xlink:href="#C4_0_9bb848c9fa" x="335.115333" y="108.042197" style="fill: #dd8452; fill-opacity: 0.75"/>
    </g>
   </g>
   <g id="PathCollection_8">
    <defs>
     <path id="C5_0_cc50e57ba0" d="M 0 2.5 
C 0.663008 2.5 1.29895 2.236584 1.767767 1.767767 
C 2.236584 1.29895 2.5 0.663008 2.5 -0 
C 2.5 -0.663008 2.236584 -1.29895 1.767767 -1.767767 
C 1.29895 -2.236584 0.663008 -2.5 0 -2.5 
C -0.663008 -2.5 -1.29895 -2.236584 -1.767767 -1.767767 
C -2.236584 -1.29895 -2.5 -0.663008 -2.5 0 
C -2.5 0.663008 -2.236584 1.29895 -1.767767 1.767767 
C -1.29895 2.236584 -0.663008 2.5 0 2.5 
z
"/>
    </defs>
    <g clip-path="url(#pa7484a74c3)">
     <use xlink:href="#C5_0_cc50e57ba0" x="402.479584" y="152.937686" style="fill: #4c72b0; fill-opacity: 0.75"/>
    </g>
    <g clip-path="url(#pa7484a74c3)">
     <use xlink:href="#C5_0_cc50e57ba0" x="406.132048" y="132.694333" style="fill: #4c72b0; fill-opacity: 0.75"/>
    </g>
    <g clip-path="url(#pa7484a74c3)">
     <use xlink:href="#C5_0_cc50e57ba0" x="409.697601" y="153.799036" style="fill: #4c72b0; fill-opacity: 0.75"/>
    </g>
    <g clip-path="url(#pa7484a74c3)">
     <use xlink:href="#C5_0_cc50e57ba0" x="404.617029" y="133.17512" style="fill: #4c72b0; fill-opacity: 0.75"/>
    </g>
    <g clip-path="url(#pa7484a74c3)">
     <use xlink:href="#C5_0_cc50e57ba0" x="404.242937" y="164.130953" style="fill: #dd8452; fill-opacity: 0.75"/>
    </g>
    <g clip-path="url(#pa7484a74c3)">
     <use xlink:href="#C5_0_cc50e57ba0" x="403.584031" y="161.049554" style="fill: #dd8452; fill-opacity: 0.75"/>
    </g>
    <g clip-path="url(#pa7484a74c3)">
     <use xlink:href="#C5_0_cc50e57ba0" x="397.537085" y="172.623783" style="fill: #dd8452; fill-opacity: 0.75"/>
    </g>
    <g clip-path="url(#pa7484a74c3)">
     <use xlink:href="#C5_0_cc50e57ba0" x="409.73298" y="166.426024" style="fill: #dd8452; fill-opacity: 0.75"/>
    </g>
   </g>
   <g id="PathCollection_9">
    <defs>
     <path id="C6_0_ad357dc1f7" d="M 0 2.5 
C 0.663008 2.5 1.29895 2.236584 1.767767 1.767767 
C 2.236584 1.29895 2.5 0.663008 2.5 -0 
C 2.5 -0.663008 2.236584 -1.29895 1.767767 -1.767767 
C 1.29895 -2.236584 0.663008 -2.5 0 -2.5 
C -0.663008 -2.5 -1.29895 -2.236584 -1.767767 -1.767767 
C -2.236584 -1.29895 -2.5 -0.663008 -2.5 0 
C -2.5 0.663008 -2.236584 1.29895 -1.767767 1.767767 
C -1.29895 2.236584 -0.663008 2.5 0 2.5 
z
"/>
    </defs>
    <g clip-path="url(#pa7484a74c3)">
     <use xlink:href="#C6_0_ad357dc1f7" x="472.790134" y="64.051595" style="fill: #4c72b0; fill-opacity: 0.75"/>
    </g>
    <g clip-path="url(#pa7484a74c3)">
     <use xlink:href="#C6_0_ad357dc1f7" x="463.580144" y="53.597293" style="fill: #4c72b0; fill-opacity: 0.75"/>
    </g>
    <g clip-path="url(#pa7484a74c3)">
     <use xlink:href="#C6_0_ad357dc1f7" x="465.640545" y="71.793202" style="fill: #4c72b0; fill-opacity: 0.75"/>
    </g>
    <g clip-path="url(#pa7484a74c3)">
     <use xlink:href="#C6_0_ad357dc1f7" x="474.28235" y="51.431131" style="fill: #4c72b0; fill-opacity: 0.75"/>
    </g>
    <g clip-path="url(#pa7484a74c3)">
     <use xlink:href="#C6_0_ad357dc1f7" x="471.21202" y="118.991478" style="fill: #dd8452; fill-opacity: 0.75"/>
    </g>
    <g clip-path="url(#pa7484a74c3)">
     <use xlink:href="#C6_0_ad357dc1f7" x="470.514798" y="60.072224" style="fill: #dd8452; fill-opacity: 0.75"/>
    </g>
    <g clip-path="url(#pa7484a74c3)">
     <use xlink:href="#C6_0_ad357dc1f7" x="463.024318" y="72.708672" style="fill: #dd8452; fill-opacity: 0.75"/>
    </g>
    <g clip-path="url(#pa7484a74c3)">
     <use xlink:href="#C6_0_ad357dc1f7" x="472.530713" y="144.758264" style="fill: #dd8452; fill-opacity: 0.75"/>
    </g>
   </g>
   <g id="text_15">
    <!-- ARRDC3, $p_{adj}$ &lt; .001 *** -->
    <g style="fill: #262626" transform="translate(47.22 18.32)scale(0.09 -0.09)">
     <defs>
      <path id="ArialMT-41" d="M -9 0 
L 1750 4581 
L 2403 4581 
L 4278 0 
L 3588 0 
L 3053 1388 
L 1138 1388 
L 634 0 
L -9 0 
z
M 1313 1881 
L 2866 1881 
L 2388 3150 
Q 2169 3728 2063 4100 
Q 1975 3659 1816 3225 
L 1313 1881 
z
" transform="scale(0.015625)"/>
      <path id="ArialMT-52" d="M 503 0 
L 503 4581 
L 2534 4581 
Q 3147 4581 3465 4457 
Q 3784 4334 3975 4021 
Q 4166 3709 4166 3331 
Q 4166 2844 3850 2509 
Q 3534 2175 2875 2084 
Q 3116 1969 3241 1856 
Q 3506 1613 3744 1247 
L 4541 0 
L 3778 0 
L 3172 953 
Q 2906 1366 2734 1584 
Q 2563 1803 2427 1890 
Q 2291 1978 2150 2013 
Q 2047 2034 1813 2034 
L 1109 2034 
L 1109 0 
L 503 0 
z
M 1109 2559 
L 2413 2559 
Q 2828 2559 3062 2645 
Q 3297 2731 3419 2920 
Q 3541 3109 3541 3331 
Q 3541 3656 3305 3865 
Q 3069 4075 2559 4075 
L 1109 4075 
L 1109 2559 
z
" transform="scale(0.015625)"/>
      <path id="ArialMT-44" d="M 494 0 
L 494 4581 
L 2072 4581 
Q 2606 4581 2888 4516 
Q 3281 4425 3559 4188 
Q 3922 3881 4101 3404 
Q 4281 2928 4281 2316 
Q 4281 1794 4159 1391 
Q 4038 988 3847 723 
Q 3656 459 3429 307 
Q 3203 156 2883 78 
Q 2563 0 2147 0 
L 494 0 
z
M 1100 541 
L 2078 541 
Q 2531 541 2789 625 
Q 3047 709 3200 863 
Q 3416 1078 3536 1442 
Q 3656 1806 3656 2325 
Q 3656 3044 3420 3430 
Q 3184 3816 2847 3947 
Q 2603 4041 2063 4041 
L 1100 4041 
L 1100 541 
z
" transform="scale(0.015625)"/>
      <path id="ArialMT-43" d="M 3763 1606 
L 4369 1453 
Q 4178 706 3683 314 
Q 3188 -78 2472 -78 
Q 1731 -78 1267 223 
Q 803 525 561 1097 
Q 319 1669 319 2325 
Q 319 3041 592 3573 
Q 866 4106 1370 4382 
Q 1875 4659 2481 4659 
Q 3169 4659 3637 4309 
Q 4106 3959 4291 3325 
L 3694 3184 
Q 3534 3684 3231 3912 
Q 2928 4141 2469 4141 
Q 1941 4141 1586 3887 
Q 1231 3634 1087 3207 
Q 944 2781 944 2328 
Q 944 1744 1114 1308 
Q 1284 872 1643 656 
Q 2003 441 2422 441 
Q 2931 441 3284 734 
Q 3638 1028 3763 1606 
z
" transform="scale(0.015625)"/>
      <path id="ArialMT-33" d="M 269 1209 
L 831 1284 
Q 928 806 1161 595 
Q 1394 384 1728 384 
Q 2125 384 2398 659 
Q 2672 934 2672 1341 
Q 2672 1728 2419 1979 
Q 2166 2231 1775 2231 
Q 1616 2231 1378 2169 
L 1441 2663 
Q 1497 2656 1531 2656 
Q 1891 2656 2178 2843 
Q 2466 3031 2466 3422 
Q 2466 3731 2256 3934 
Q 2047 4138 1716 4138 
Q 1388 4138 1169 3931 
Q 950 3725 888 3313 
L 325 3413 
Q 428 3978 793 4289 
Q 1159 4600 1703 4600 
Q 2078 4600 2393 4439 
Q 2709 4278 2876 4000 
Q 3044 3722 3044 3409 
Q 3044 3113 2884 2869 
Q 2725 2625 2413 2481 
Q 2819 2388 3044 2092 
Q 3269 1797 3269 1353 
Q 3269 753 2831 336 
Q 2394 -81 1725 -81 
Q 1122 -81 723 278 
Q 325 638 269 1209 
z
" transform="scale(0.015625)"/>
      <path id="ArialMT-2c" d="M 569 0 
L 569 641 
L 1209 641 
L 1209 0 
Q 1209 -353 1084 -570 
Q 959 -788 688 -906 
L 531 -666 
Q 709 -588 793 -436 
Q 878 -284 888 0 
L 569 0 
z
" transform="scale(0.015625)"/>
      <path id="DejaVuSans-Oblique-70" d="M 3175 2156 
Q 3175 2616 2975 2859 
Q 2775 3103 2400 3103 
Q 2144 3103 1911 2972 
Q 1678 2841 1497 2591 
Q 1319 2344 1212 1994 
Q 1106 1644 1106 1300 
Q 1106 863 1306 627 
Q 1506 391 1875 391 
Q 2147 391 2380 519 
Q 2613 647 2778 891 
Q 2956 1147 3065 1494 
Q 3175 1841 3175 2156 
z
M 1394 2969 
Q 1625 3272 1939 3428 
Q 2253 3584 2638 3584 
Q 3175 3584 3472 3232 
Q 3769 2881 3769 2247 
Q 3769 1728 3584 1258 
Q 3400 788 3053 416 
Q 2822 169 2531 39 
Q 2241 -91 1919 -91 
Q 1547 -91 1294 64 
Q 1041 219 916 525 
L 556 -1331 
L -19 -1331 
L 922 3500 
L 1497 3500 
L 1394 2969 
z
" transform="scale(0.015625)"/>
      <path id="DejaVuSans-Oblique-61" d="M 3438 1997 
L 3047 0 
L 2472 0 
L 2578 531 
Q 2325 219 2001 64 
Q 1678 -91 1281 -91 
Q 834 -91 548 182 
Q 263 456 263 884 
Q 263 1497 752 1853 
Q 1241 2209 2100 2209 
L 2900 2209 
L 2931 2363 
Q 2938 2388 2941 2417 
Q 2944 2447 2944 2509 
Q 2944 2788 2717 2942 
Q 2491 3097 2081 3097 
Q 1800 3097 1504 3025 
Q 1209 2953 897 2809 
L 997 3341 
Q 1322 3463 1633 3523 
Q 1944 3584 2234 3584 
Q 2853 3584 3176 3315 
Q 3500 3047 3500 2534 
Q 3500 2431 3484 2292 
Q 3469 2153 3438 1997 
z
M 2816 1759 
L 2241 1759 
Q 1534 1759 1195 1570 
Q 856 1381 856 984 
Q 856 709 1029 553 
Q 1203 397 1509 397 
Q 1978 397 2328 733 
Q 2678 1069 2791 1631 
L 2816 1759 
z
" transform="scale(0.015625)"/>
      <path id="DejaVuSans-Oblique-64" d="M 2675 525 
Q 2444 222 2128 65 
Q 1813 -91 1428 -91 
Q 903 -91 598 267 
Q 294 625 294 1247 
Q 294 1766 478 2236 
Q 663 2706 1013 3078 
Q 1244 3325 1534 3454 
Q 1825 3584 2144 3584 
Q 2481 3584 2739 3421 
Q 2997 3259 3138 2956 
L 3513 4863 
L 4091 4863 
L 3144 0 
L 2566 0 
L 2675 525 
z
M 891 1350 
Q 891 897 1095 644 
Q 1300 391 1663 391 
Q 1931 391 2161 520 
Q 2391 650 2566 903 
Q 2750 1166 2856 1509 
Q 2963 1853 2963 2188 
Q 2963 2622 2758 2865 
Q 2553 3109 2194 3109 
Q 1922 3109 1687 2981 
Q 1453 2853 1288 2613 
Q 1106 2353 998 2009 
Q 891 1666 891 1350 
z
" transform="scale(0.015625)"/>
      <path id="DejaVuSans-Oblique-6a" d="M 928 3500 
L 1503 3500 
L 813 -63 
L 809 -78 
Q 694 -675 544 -897 
Q 403 -1106 132 -1218 
Q -138 -1331 -506 -1331 
L -722 -1331 
L -628 -844 
L -481 -844 
Q -144 -844 -1 -703 
Q 141 -563 238 -63 
L 928 3500 
z
M 1197 4863 
L 1772 4863 
L 1631 4134 
L 1056 4134 
L 1197 4863 
z
" transform="scale(0.015625)"/>
      <path id="ArialMT-3c" d="M 350 2003 
L 350 2528 
L 3384 3809 
L 3384 3250 
L 978 2263 
L 3384 1266 
L 3384 706 
L 350 2003 
z
" transform="scale(0.015625)"/>
      <path id="ArialMT-2e" d="M 581 0 
L 581 641 
L 1222 641 
L 1222 0 
L 581 0 
z
" transform="scale(0.015625)"/>
      <path id="ArialMT-2a" d="M 200 3741 
L 344 4184 
Q 841 4009 1066 3881 
Q 1006 4447 1003 4659 
L 1456 4659 
Q 1447 4350 1384 3884 
Q 1706 4047 2122 4184 
L 2266 3741 
Q 1869 3609 1488 3566 
Q 1678 3400 2025 2975 
L 1650 2709 
Q 1469 2956 1222 3381 
Q 991 2941 816 2709 
L 447 2975 
Q 809 3422 966 3566 
Q 563 3644 200 3741 
z
" transform="scale(0.015625)"/>
     </defs>
     <use xlink:href="#ArialMT-41" transform="translate(0 0.203125)"/>
     <use xlink:href="#ArialMT-52" transform="translate(66.699219 0.203125)"/>
     <use xlink:href="#ArialMT-52" transform="translate(138.916016 0.203125)"/>
     <use xlink:href="#ArialMT-44" transform="translate(211.132812 0.203125)"/>
     <use xlink:href="#ArialMT-43" transform="translate(283.349609 0.203125)"/>
     <use xlink:href="#ArialMT-33" transform="translate(355.566406 0.203125)"/>
     <use xlink:href="#ArialMT-2c" transform="translate(411.181641 0.203125)"/>
     <use xlink:href="#ArialMT-20" transform="translate(438.964844 0.203125)"/>
     <use xlink:href="#DejaVuSans-Oblique-70" transform="translate(466.748047 0.203125)"/>
     <use xlink:href="#DejaVuSans-Oblique-61" transform="translate(530.224609 -16.203125)scale(0.7)"/>
     <use xlink:href="#DejaVuSans-Oblique-64" transform="translate(573.120117 -16.203125)scale(0.7)"/>
     <use xlink:href="#DejaVuSans-Oblique-6a" transform="translate(617.553711 -16.203125)scale(0.7)"/>
     <use xlink:href="#ArialMT-20" transform="translate(639.736328 0.203125)"/>
     <use xlink:href="#ArialMT-3c" transform="translate(667.519531 0.203125)"/>
     <use xlink:href="#ArialMT-20" transform="translate(725.917969 0.203125)"/>
     <use xlink:href="#ArialMT-2e" transform="translate(753.701172 0.203125)"/>
     <use xlink:href="#ArialMT-30" transform="translate(781.484375 0.203125)"/>
     <use xlink:href="#ArialMT-30" transform="translate(837.099609 0.203125)"/>
     <use xlink:href="#ArialMT-31" transform="translate(892.714844 0.203125)"/>
     <use xlink:href="#ArialMT-20" transform="translate(948.330078 0.203125)"/>
     <use xlink:href="#ArialMT-2a" transform="translate(976.113281 0.203125)"/>
     <use xlink:href="#ArialMT-2a" transform="translate(1015.029297 0.203125)"/>
     <use xlink:href="#ArialMT-2a" transform="translate(1053.945312 0.203125)"/>
    </g>
   </g>
   <g id="legend_1">
    <g id="patch_5">
     <path d="M 53.52 69.712344 
L 105.82125 69.712344 
Q 107.62125 69.712344 107.62125 67.912344 
L 107.62125 30.62 
Q 107.62125 28.82 105.82125 28.82 
L 53.52 28.82 
Q 51.72 28.82 51.72 30.62 
L 51.72 67.912344 
Q 51.72 69.712344 53.52 69.712344 
z
" style="fill: #ffffff; opacity: 0.8; stroke: #cccccc; stroke-linejoin: miter"/>
    </g>
    <g id="text_16">
     <!-- Treatment -->
     <g style="fill: #262626" transform="translate(59.334141 38.862031)scale(0.09 -0.09)">
      <use xlink:href="#ArialMT-54"/>
      <use xlink:href="#ArialMT-72" x="57.333984"/>
      <use xlink:href="#ArialMT-65" x="90.634766"/>
      <use xlink:href="#ArialMT-61" x="146.25"/>
      <use xlink:href="#ArialMT-74" x="201.865234"/>
      <use xlink:href="#ArialMT-6d" x="229.648438"/>
      <use xlink:href="#ArialMT-65" x="312.949219"/>
      <use xlink:href="#ArialMT-6e" x="368.564453"/>
      <use xlink:href="#ArialMT-74" x="424.179688"/>
     </g>
    </g>
    <g id="PathCollection_10">
     <defs>
      <path id="m98e6577ab8" d="M 0 3.872983 
C 1.027127 3.872983 2.012324 3.464901 2.738613 2.738613 
C 3.464901 2.012324 3.872983 1.027127 3.872983 0 
C 3.872983 -1.027127 3.464901 -2.012324 2.738613 -2.738613 
C 2.012324 -3.464901 1.027127 -3.872983 0 -3.872983 
C -1.027127 -3.872983 -2.012324 -3.464901 -2.738613 -2.738613 
C -3.464901 -2.012324 -3.872983 -1.027127 -3.872983 0 
C -3.872983 1.027127 -3.464901 2.012324 -2.738613 2.738613 
C -2.012324 3.464901 -1.027127 3.872983 0 3.872983 
z
" style="stroke: #4c72b0"/>
     </defs>
     <g>
      <use xlink:href="#m98e6577ab8" x="64.32" y="49.230313" style="fill: #4c72b0; stroke: #4c72b0"/>
     </g>
    </g>
    <g id="text_17">
     <!-- BEVA -->
     <g style="fill: #262626" transform="translate(80.52 51.592813)scale(0.09 -0.09)">
      <defs>
       <path id="ArialMT-42" d="M 469 0 
L 469 4581 
L 2188 4581 
Q 2713 4581 3030 4442 
Q 3347 4303 3526 4014 
Q 3706 3725 3706 3409 
Q 3706 3116 3547 2856 
Q 3388 2597 3066 2438 
Q 3481 2316 3704 2022 
Q 3928 1728 3928 1328 
Q 3928 1006 3792 729 
Q 3656 453 3456 303 
Q 3256 153 2954 76 
Q 2653 0 2216 0 
L 469 0 
z
M 1075 2656 
L 2066 2656 
Q 2469 2656 2644 2709 
Q 2875 2778 2992 2937 
Q 3109 3097 3109 3338 
Q 3109 3566 3000 3739 
Q 2891 3913 2687 3977 
Q 2484 4041 1991 4041 
L 1075 4041 
L 1075 2656 
z
M 1075 541 
L 2216 541 
Q 2509 541 2628 563 
Q 2838 600 2978 687 
Q 3119 775 3209 942 
Q 3300 1109 3300 1328 
Q 3300 1584 3169 1773 
Q 3038 1963 2805 2039 
Q 2572 2116 2134 2116 
L 1075 2116 
L 1075 541 
z
" transform="scale(0.015625)"/>
       <path id="ArialMT-45" d="M 506 0 
L 506 4581 
L 3819 4581 
L 3819 4041 
L 1113 4041 
L 1113 2638 
L 3647 2638 
L 3647 2100 
L 1113 2100 
L 1113 541 
L 3925 541 
L 3925 0 
L 506 0 
z
" transform="scale(0.015625)"/>
       <path id="ArialMT-56" d="M 1803 0 
L 28 4581 
L 684 4581 
L 1875 1253 
Q 2019 853 2116 503 
Q 2222 878 2363 1253 
L 3600 4581 
L 4219 4581 
L 2425 0 
L 1803 0 
z
" transform="scale(0.015625)"/>
      </defs>
      <use xlink:href="#ArialMT-42"/>
      <use xlink:href="#ArialMT-45" x="66.699219"/>
      <use xlink:href="#ArialMT-56" x="133.398438"/>
      <use xlink:href="#ArialMT-41" x="192.722656"/>
     </g>
    </g>
    <g id="PathCollection_11">
     <defs>
      <path id="m13c0d83456" d="M 0 3.872983 
C 1.027127 3.872983 2.012324 3.464901 2.738613 2.738613 
C 3.464901 2.012324 3.872983 1.027127 3.872983 0 
C 3.872983 -1.027127 3.464901 -2.012324 2.738613 -2.738613 
C 2.012324 -3.464901 1.027127 -3.872983 0 -3.872983 
C -1.027127 -3.872983 -2.012324 -3.464901 -2.738613 -2.738613 
C -3.464901 -2.012324 -3.872983 -1.027127 -3.872983 0 
C -3.872983 1.027127 -3.464901 2.012324 -2.738613 2.738613 
C -2.012324 3.464901 -1.027127 3.872983 0 3.872983 
z
" style="stroke: #dd8452"/>
     </defs>
     <g>
      <use xlink:href="#m13c0d83456" x="64.32" y="61.961094" style="fill: #dd8452; stroke: #dd8452"/>
     </g>
    </g>
    <g id="text_18">
     <!-- CTRL -->
     <g style="fill: #262626" transform="translate(80.52 64.323594)scale(0.09 -0.09)">
      <defs>
       <path id="ArialMT-4c" d="M 469 0 
L 469 4581 
L 1075 4581 
L 1075 541 
L 3331 541 
L 3331 0 
L 469 0 
z
" transform="scale(0.015625)"/>
      </defs>
      <use xlink:href="#ArialMT-43"/>
      <use xlink:href="#ArialMT-54" x="72.216797"/>
      <use xlink:href="#ArialMT-52" x="133.300781"/>
      <use xlink:href="#ArialMT-4c" x="205.517578"/>
     </g>
    </g>
   </g>
  </g>
 </g>
 <defs>
  <clipPath id="pa7484a74c3">
   <rect x="47.22" y="24.32" width="453.29622" height="189.57811"/>
  </clipPath>
 </defs>
</svg>
