<?xml version="1.0" encoding="utf-8" standalone="no"?>
<!DOCTYPE svg PUBLIC "-//W3C//DTD SVG 1.1//EN"
  "http://www.w3.org/Graphics/SVG/1.1/DTD/svg11.dtd">
<svg xmlns:xlink="http://www.w3.org/1999/xlink" width="510.23622pt" height="255.11811pt" viewBox="0 0 510.23622 255.11811" xmlns="http://www.w3.org/2000/svg" version="1.1">
 <metadata>
  <rdf:RDF xmlns:dc="http://purl.org/dc/elements/1.1/" xmlns:cc="http://creativecommons.org/ns#" xmlns:rdf="http://www.w3.org/1999/02/22-rdf-syntax-ns#">
   <cc:Work>
    <dc:type rdf:resource="http://purl.org/dc/dcmitype/StillImage"/>
    <dc:date>2022-04-27T00:18:40.032246</dc:date>
    <dc:format>image/svg+xml</dc:format>
    <dc:creator>
     <cc:Agent>
      <dc:title>Matplotlib v3.5.1, https://matplotlib.org/</dc:title>
     </cc:Agent>
    </dc:creator>
   </cc:Work>
  </rdf:RDF>
 </metadata>
 <defs>
  <style type="text/css">*{stroke-linejoin: round; stroke-linecap: butt}</style>
 </defs>
 <g id="figure_1">
  <g id="patch_1">
   <path d="M 0 255.11811 
L 510.23622 255.11811 
L 510.23622 0 
L 0 0 
z
" style="fill: #ffffff"/>
  </g>
  <g id="axes_1">
   <g id="patch_2">
    <path d="M 47.22 213.89811 
L 500.51622 213.89811 
L 500.51622 24.32 
L 47.22 24.32 
z
" style="fill: #ffffff"/>
   </g>
   <g id="matplotlib.axis_1">
    <g id="xtick_1">
     <g id="text_1">
      <!-- 49 -->
      <g style="fill: #444444" transform="translate(74.593458 229.840141)scale(0.09 -0.09)">
       <defs>
        <path id="ArialMT-34" d="M 2069 0 
L 2069 1097 
L 81 1097 
L 81 1613 
L 2172 4581 
L 2631 4581 
L 2631 1613 
L 3250 1613 
L 3250 1097 
L 2631 1097 
L 2631 0 
L 2069 0 
z
M 2069 1613 
L 2069 3678 
L 634 1613 
L 2069 1613 
z
" transform="scale(0.015625)"/>
        <path id="ArialMT-39" d="M 350 1059 
L 891 1109 
Q 959 728 1153 556 
Q 1347 384 1650 384 
Q 1909 384 2104 503 
Q 2300 622 2425 820 
Q 2550 1019 2634 1356 
Q 2719 1694 2719 2044 
Q 2719 2081 2716 2156 
Q 2547 1888 2255 1720 
Q 1963 1553 1622 1553 
Q 1053 1553 659 1965 
Q 266 2378 266 3053 
Q 266 3750 677 4175 
Q 1088 4600 1706 4600 
Q 2153 4600 2523 4359 
Q 2894 4119 3086 3673 
Q 3278 3228 3278 2384 
Q 3278 1506 3087 986 
Q 2897 466 2520 194 
Q 2144 -78 1638 -78 
Q 1100 -78 759 220 
Q 419 519 350 1059 
z
M 2653 3081 
Q 2653 3566 2395 3850 
Q 2138 4134 1775 4134 
Q 1400 4134 1122 3828 
Q 844 3522 844 3034 
Q 844 2597 1108 2323 
Q 1372 2050 1759 2050 
Q 2150 2050 2401 2323 
Q 2653 2597 2653 3081 
z
" transform="scale(0.015625)"/>
       </defs>
       <use xlink:href="#ArialMT-34"/>
       <use xlink:href="#ArialMT-39" x="55.615234"/>
      </g>
     </g>
    </g>
    <g id="xtick_2">
     <g id="text_2">
      <!-- 17 -->
      <g style="fill: #444444" transform="translate(139.350061 229.840141)scale(0.09 -0.09)">
       <defs>
        <path id="ArialMT-31" d="M 2384 0 
L 1822 0 
L 1822 3584 
Q 1619 3391 1289 3197 
Q 959 3003 697 2906 
L 697 3450 
Q 1169 3672 1522 3987 
Q 1875 4303 2022 4600 
L 2384 4600 
L 2384 0 
z
" transform="scale(0.015625)"/>
        <path id="ArialMT-37" d="M 303 3981 
L 303 4522 
L 3269 4522 
L 3269 4084 
Q 2831 3619 2401 2847 
Q 1972 2075 1738 1259 
Q 1569 684 1522 0 
L 944 0 
Q 953 541 1156 1306 
Q 1359 2072 1739 2783 
Q 2119 3494 2547 3981 
L 303 3981 
z
" transform="scale(0.015625)"/>
       </defs>
       <use xlink:href="#ArialMT-31"/>
       <use xlink:href="#ArialMT-37" x="55.615234"/>
      </g>
     </g>
    </g>
    <g id="xtick_3">
     <g id="text_3">
      <!-- 69 -->
      <g style="fill: #444444" transform="translate(204.106664 229.840141)scale(0.09 -0.09)">
       <defs>
        <path id="ArialMT-36" d="M 3184 3459 
L 2625 3416 
Q 2550 3747 2413 3897 
Q 2184 4138 1850 4138 
Q 1581 4138 1378 3988 
Q 1113 3794 959 3422 
Q 806 3050 800 2363 
Q 1003 2672 1297 2822 
Q 1591 2972 1913 2972 
Q 2475 2972 2870 2558 
Q 3266 2144 3266 1488 
Q 3266 1056 3080 686 
Q 2894 316 2569 119 
Q 2244 -78 1831 -78 
Q 1128 -78 684 439 
Q 241 956 241 2144 
Q 241 3472 731 4075 
Q 1159 4600 1884 4600 
Q 2425 4600 2770 4297 
Q 3116 3994 3184 3459 
z
M 888 1484 
Q 888 1194 1011 928 
Q 1134 663 1356 523 
Q 1578 384 1822 384 
Q 2178 384 2434 671 
Q 2691 959 2691 1453 
Q 2691 1928 2437 2201 
Q 2184 2475 1800 2475 
Q 1419 2475 1153 2201 
Q 888 1928 888 1484 
z
" transform="scale(0.015625)"/>
       </defs>
       <use xlink:href="#ArialMT-36"/>
       <use xlink:href="#ArialMT-39" x="55.615234"/>
      </g>
     </g>
    </g>
    <g id="xtick_4">
     <g id="text_4">
      <!-- 15 -->
      <g style="fill: #444444" transform="translate(268.863266 229.840141)scale(0.09 -0.09)">
       <defs>
        <path id="ArialMT-35" d="M 266 1200 
L 856 1250 
Q 922 819 1161 601 
Q 1400 384 1738 384 
Q 2144 384 2425 690 
Q 2706 997 2706 1503 
Q 2706 1984 2436 2262 
Q 2166 2541 1728 2541 
Q 1456 2541 1237 2417 
Q 1019 2294 894 2097 
L 366 2166 
L 809 4519 
L 3088 4519 
L 3088 3981 
L 1259 3981 
L 1013 2750 
Q 1425 3038 1878 3038 
Q 2478 3038 2890 2622 
Q 3303 2206 3303 1553 
Q 3303 931 2941 478 
Q 2500 -78 1738 -78 
Q 1113 -78 717 272 
Q 322 622 266 1200 
z
" transform="scale(0.015625)"/>
       </defs>
       <use xlink:href="#ArialMT-31"/>
       <use xlink:href="#ArialMT-35" x="55.615234"/>
      </g>
     </g>
    </g>
    <g id="xtick_5">
     <g id="text_5">
      <!-- 5 -->
      <g style="fill: #444444" transform="translate(336.122291 229.840141)scale(0.09 -0.09)">
       <use xlink:href="#ArialMT-35"/>
      </g>
     </g>
    </g>
    <g id="xtick_6">
     <g id="text_6">
      <!-- 126 -->
      <g style="fill: #444444" transform="translate(395.87405 229.840141)scale(0.09 -0.09)">
       <defs>
        <path id="ArialMT-32" d="M 3222 541 
L 3222 0 
L 194 0 
Q 188 203 259 391 
Q 375 700 629 1000 
Q 884 1300 1366 1694 
Q 2113 2306 2375 2664 
Q 2638 3022 2638 3341 
Q 2638 3675 2398 3904 
Q 2159 4134 1775 4134 
Q 1369 4134 1125 3890 
Q 881 3647 878 3216 
L 300 3275 
Q 359 3922 746 4261 
Q 1134 4600 1788 4600 
Q 2447 4600 2831 4234 
Q 3216 3869 3216 3328 
Q 3216 3053 3103 2787 
Q 2991 2522 2730 2228 
Q 2469 1934 1863 1422 
Q 1356 997 1212 845 
Q 1069 694 975 541 
L 3222 541 
z
" transform="scale(0.015625)"/>
       </defs>
       <use xlink:href="#ArialMT-31"/>
       <use xlink:href="#ArialMT-32" x="55.615234"/>
       <use xlink:href="#ArialMT-36" x="111.230469"/>
      </g>
     </g>
    </g>
    <g id="xtick_7">
     <g id="text_7">
      <!-- 62 -->
      <g style="fill: #444444" transform="translate(463.133075 229.840141)scale(0.09 -0.09)">
       <use xlink:href="#ArialMT-36"/>
       <use xlink:href="#ArialMT-32" x="55.615234"/>
      </g>
     </g>
    </g>
    <g id="text_8">
     <!-- Patient -->
     <g style="fill: #444444" transform="translate(259.859048 242.070923)scale(0.09 -0.09)">
      <defs>
       <path id="ArialMT-50" d="M 494 0 
L 494 4581 
L 2222 4581 
Q 2678 4581 2919 4538 
Q 3256 4481 3484 4323 
Q 3713 4166 3852 3881 
Q 3991 3597 3991 3256 
Q 3991 2672 3619 2267 
Q 3247 1863 2275 1863 
L 1100 1863 
L 1100 0 
L 494 0 
z
M 1100 2403 
L 2284 2403 
Q 2872 2403 3119 2622 
Q 3366 2841 3366 3238 
Q 3366 3525 3220 3729 
Q 3075 3934 2838 4000 
Q 2684 4041 2272 4041 
L 1100 4041 
L 1100 2403 
z
" transform="scale(0.015625)"/>
       <path id="ArialMT-61" d="M 2588 409 
Q 2275 144 1986 34 
Q 1697 -75 1366 -75 
Q 819 -75 525 192 
Q 231 459 231 875 
Q 231 1119 342 1320 
Q 453 1522 633 1644 
Q 813 1766 1038 1828 
Q 1203 1872 1538 1913 
Q 2219 1994 2541 2106 
Q 2544 2222 2544 2253 
Q 2544 2597 2384 2738 
Q 2169 2928 1744 2928 
Q 1347 2928 1158 2789 
Q 969 2650 878 2297 
L 328 2372 
Q 403 2725 575 2942 
Q 747 3159 1072 3276 
Q 1397 3394 1825 3394 
Q 2250 3394 2515 3294 
Q 2781 3194 2906 3042 
Q 3031 2891 3081 2659 
Q 3109 2516 3109 2141 
L 3109 1391 
Q 3109 606 3145 398 
Q 3181 191 3288 0 
L 2700 0 
Q 2613 175 2588 409 
z
M 2541 1666 
Q 2234 1541 1622 1453 
Q 1275 1403 1131 1340 
Q 988 1278 909 1158 
Q 831 1038 831 891 
Q 831 666 1001 516 
Q 1172 366 1500 366 
Q 1825 366 2078 508 
Q 2331 650 2450 897 
Q 2541 1088 2541 1459 
L 2541 1666 
z
" transform="scale(0.015625)"/>
       <path id="ArialMT-74" d="M 1650 503 
L 1731 6 
Q 1494 -44 1306 -44 
Q 1000 -44 831 53 
Q 663 150 594 308 
Q 525 466 525 972 
L 525 2881 
L 113 2881 
L 113 3319 
L 525 3319 
L 525 4141 
L 1084 4478 
L 1084 3319 
L 1650 3319 
L 1650 2881 
L 1084 2881 
L 1084 941 
Q 1084 700 1114 631 
Q 1144 563 1211 522 
Q 1278 481 1403 481 
Q 1497 481 1650 503 
z
" transform="scale(0.015625)"/>
       <path id="ArialMT-69" d="M 425 3934 
L 425 4581 
L 988 4581 
L 988 3934 
L 425 3934 
z
M 425 0 
L 425 3319 
L 988 3319 
L 988 0 
L 425 0 
z
" transform="scale(0.015625)"/>
       <path id="ArialMT-65" d="M 2694 1069 
L 3275 997 
Q 3138 488 2766 206 
Q 2394 -75 1816 -75 
Q 1088 -75 661 373 
Q 234 822 234 1631 
Q 234 2469 665 2931 
Q 1097 3394 1784 3394 
Q 2450 3394 2872 2941 
Q 3294 2488 3294 1666 
Q 3294 1616 3291 1516 
L 816 1516 
Q 847 969 1125 678 
Q 1403 388 1819 388 
Q 2128 388 2347 550 
Q 2566 713 2694 1069 
z
M 847 1978 
L 2700 1978 
Q 2663 2397 2488 2606 
Q 2219 2931 1791 2931 
Q 1403 2931 1139 2672 
Q 875 2413 847 1978 
z
" transform="scale(0.015625)"/>
       <path id="ArialMT-6e" d="M 422 0 
L 422 3319 
L 928 3319 
L 928 2847 
Q 1294 3394 1984 3394 
Q 2284 3394 2536 3286 
Q 2788 3178 2913 3003 
Q 3038 2828 3088 2588 
Q 3119 2431 3119 2041 
L 3119 0 
L 2556 0 
L 2556 2019 
Q 2556 2363 2490 2533 
Q 2425 2703 2258 2804 
Q 2091 2906 1866 2906 
Q 1506 2906 1245 2678 
Q 984 2450 984 1813 
L 984 0 
L 422 0 
z
" transform="scale(0.015625)"/>
      </defs>
      <use xlink:href="#ArialMT-50"/>
      <use xlink:href="#ArialMT-61" x="66.699219"/>
      <use xlink:href="#ArialMT-74" x="122.314453"/>
      <use xlink:href="#ArialMT-69" x="150.097656"/>
      <use xlink:href="#ArialMT-65" x="172.314453"/>
      <use xlink:href="#ArialMT-6e" x="227.929688"/>
      <use xlink:href="#ArialMT-74" x="283.544922"/>
     </g>
    </g>
   </g>
   <g id="matplotlib.axis_2">
    <g id="ytick_1">
     <g id="text_9">
      <!-- 200 -->
      <g style="fill: #444444" transform="translate(22.705469 186.707361)scale(0.09 -0.09)">
       <defs>
        <path id="ArialMT-30" d="M 266 2259 
Q 266 3072 433 3567 
Q 600 4063 929 4331 
Q 1259 4600 1759 4600 
Q 2128 4600 2406 4451 
Q 2684 4303 2865 4023 
Q 3047 3744 3150 3342 
Q 3253 2941 3253 2259 
Q 3253 1453 3087 958 
Q 2922 463 2592 192 
Q 2263 -78 1759 -78 
Q 1097 -78 719 397 
Q 266 969 266 2259 
z
M 844 2259 
Q 844 1131 1108 757 
Q 1372 384 1759 384 
Q 2147 384 2411 759 
Q 2675 1134 2675 2259 
Q 2675 3391 2411 3762 
Q 2147 4134 1753 4134 
Q 1366 4134 1134 3806 
Q 844 3388 844 2259 
z
" transform="scale(0.015625)"/>
       </defs>
       <use xlink:href="#ArialMT-32"/>
       <use xlink:href="#ArialMT-30" x="55.615234"/>
       <use xlink:href="#ArialMT-30" x="111.230469"/>
      </g>
     </g>
    </g>
    <g id="ytick_2">
     <g id="text_10">
      <!-- 400 -->
      <g style="fill: #444444" transform="translate(22.705469 145.468462)scale(0.09 -0.09)">
       <use xlink:href="#ArialMT-34"/>
       <use xlink:href="#ArialMT-30" x="55.615234"/>
       <use xlink:href="#ArialMT-30" x="111.230469"/>
      </g>
     </g>
    </g>
    <g id="ytick_3">
     <g id="text_11">
      <!-- 600 -->
      <g style="fill: #444444" transform="translate(22.705469 104.229563)scale(0.09 -0.09)">
       <use xlink:href="#ArialMT-36"/>
       <use xlink:href="#ArialMT-30" x="55.615234"/>
       <use xlink:href="#ArialMT-30" x="111.230469"/>
      </g>
     </g>
    </g>
    <g id="ytick_4">
     <g id="text_12">
      <!-- 800 -->
      <g style="fill: #444444" transform="translate(22.705469 62.990665)scale(0.09 -0.09)">
       <defs>
        <path id="ArialMT-38" d="M 1131 2484 
Q 781 2613 612 2850 
Q 444 3088 444 3419 
Q 444 3919 803 4259 
Q 1163 4600 1759 4600 
Q 2359 4600 2725 4251 
Q 3091 3903 3091 3403 
Q 3091 3084 2923 2848 
Q 2756 2613 2416 2484 
Q 2838 2347 3058 2040 
Q 3278 1734 3278 1309 
Q 3278 722 2862 322 
Q 2447 -78 1769 -78 
Q 1091 -78 675 323 
Q 259 725 259 1325 
Q 259 1772 486 2073 
Q 713 2375 1131 2484 
z
M 1019 3438 
Q 1019 3113 1228 2906 
Q 1438 2700 1772 2700 
Q 2097 2700 2305 2904 
Q 2513 3109 2513 3406 
Q 2513 3716 2298 3927 
Q 2084 4138 1766 4138 
Q 1444 4138 1231 3931 
Q 1019 3725 1019 3438 
z
M 838 1322 
Q 838 1081 952 856 
Q 1066 631 1291 507 
Q 1516 384 1775 384 
Q 2178 384 2440 643 
Q 2703 903 2703 1303 
Q 2703 1709 2433 1975 
Q 2163 2241 1756 2241 
Q 1359 2241 1098 1978 
Q 838 1716 838 1322 
z
" transform="scale(0.015625)"/>
       </defs>
       <use xlink:href="#ArialMT-38"/>
       <use xlink:href="#ArialMT-30" x="55.615234"/>
       <use xlink:href="#ArialMT-30" x="111.230469"/>
      </g>
     </g>
    </g>
    <g id="text_13">
     <!-- Trimmed Means of M values (TMM) -->
     <g style="fill: #444444" transform="translate(16.81125 190.194993)rotate(-90)scale(0.09 -0.09)">
      <defs>
       <path id="ArialMT-54" d="M 1659 0 
L 1659 4041 
L 150 4041 
L 150 4581 
L 3781 4581 
L 3781 4041 
L 2266 4041 
L 2266 0 
L 1659 0 
z
" transform="scale(0.015625)"/>
       <path id="ArialMT-72" d="M 416 0 
L 416 3319 
L 922 3319 
L 922 2816 
Q 1116 3169 1280 3281 
Q 1444 3394 1641 3394 
Q 1925 3394 2219 3213 
L 2025 2691 
Q 1819 2813 1613 2813 
Q 1428 2813 1281 2702 
Q 1134 2591 1072 2394 
Q 978 2094 978 1738 
L 978 0 
L 416 0 
z
" transform="scale(0.015625)"/>
       <path id="ArialMT-6d" d="M 422 0 
L 422 3319 
L 925 3319 
L 925 2853 
Q 1081 3097 1340 3245 
Q 1600 3394 1931 3394 
Q 2300 3394 2536 3241 
Q 2772 3088 2869 2813 
Q 3263 3394 3894 3394 
Q 4388 3394 4653 3120 
Q 4919 2847 4919 2278 
L 4919 0 
L 4359 0 
L 4359 2091 
Q 4359 2428 4304 2576 
Q 4250 2725 4106 2815 
Q 3963 2906 3769 2906 
Q 3419 2906 3187 2673 
Q 2956 2441 2956 1928 
L 2956 0 
L 2394 0 
L 2394 2156 
Q 2394 2531 2256 2718 
Q 2119 2906 1806 2906 
Q 1569 2906 1367 2781 
Q 1166 2656 1075 2415 
Q 984 2175 984 1722 
L 984 0 
L 422 0 
z
" transform="scale(0.015625)"/>
       <path id="ArialMT-64" d="M 2575 0 
L 2575 419 
Q 2259 -75 1647 -75 
Q 1250 -75 917 144 
Q 584 363 401 755 
Q 219 1147 219 1656 
Q 219 2153 384 2558 
Q 550 2963 881 3178 
Q 1213 3394 1622 3394 
Q 1922 3394 2156 3267 
Q 2391 3141 2538 2938 
L 2538 4581 
L 3097 4581 
L 3097 0 
L 2575 0 
z
M 797 1656 
Q 797 1019 1065 703 
Q 1334 388 1700 388 
Q 2069 388 2326 689 
Q 2584 991 2584 1609 
Q 2584 2291 2321 2609 
Q 2059 2928 1675 2928 
Q 1300 2928 1048 2622 
Q 797 2316 797 1656 
z
" transform="scale(0.015625)"/>
       <path id="ArialMT-20" transform="scale(0.015625)"/>
       <path id="ArialMT-4d" d="M 475 0 
L 475 4581 
L 1388 4581 
L 2472 1338 
Q 2622 884 2691 659 
Q 2769 909 2934 1394 
L 4031 4581 
L 4847 4581 
L 4847 0 
L 4263 0 
L 4263 3834 
L 2931 0 
L 2384 0 
L 1059 3900 
L 1059 0 
L 475 0 
z
" transform="scale(0.015625)"/>
       <path id="ArialMT-73" d="M 197 991 
L 753 1078 
Q 800 744 1014 566 
Q 1228 388 1613 388 
Q 2000 388 2187 545 
Q 2375 703 2375 916 
Q 2375 1106 2209 1216 
Q 2094 1291 1634 1406 
Q 1016 1563 777 1677 
Q 538 1791 414 1992 
Q 291 2194 291 2438 
Q 291 2659 392 2848 
Q 494 3038 669 3163 
Q 800 3259 1026 3326 
Q 1253 3394 1513 3394 
Q 1903 3394 2198 3281 
Q 2494 3169 2634 2976 
Q 2775 2784 2828 2463 
L 2278 2388 
Q 2241 2644 2061 2787 
Q 1881 2931 1553 2931 
Q 1166 2931 1000 2803 
Q 834 2675 834 2503 
Q 834 2394 903 2306 
Q 972 2216 1119 2156 
Q 1203 2125 1616 2013 
Q 2213 1853 2448 1751 
Q 2684 1650 2818 1456 
Q 2953 1263 2953 975 
Q 2953 694 2789 445 
Q 2625 197 2315 61 
Q 2006 -75 1616 -75 
Q 969 -75 630 194 
Q 291 463 197 991 
z
" transform="scale(0.015625)"/>
       <path id="ArialMT-6f" d="M 213 1659 
Q 213 2581 725 3025 
Q 1153 3394 1769 3394 
Q 2453 3394 2887 2945 
Q 3322 2497 3322 1706 
Q 3322 1066 3130 698 
Q 2938 331 2570 128 
Q 2203 -75 1769 -75 
Q 1072 -75 642 372 
Q 213 819 213 1659 
z
M 791 1659 
Q 791 1022 1069 705 
Q 1347 388 1769 388 
Q 2188 388 2466 706 
Q 2744 1025 2744 1678 
Q 2744 2294 2464 2611 
Q 2184 2928 1769 2928 
Q 1347 2928 1069 2612 
Q 791 2297 791 1659 
z
" transform="scale(0.015625)"/>
       <path id="ArialMT-66" d="M 556 0 
L 556 2881 
L 59 2881 
L 59 3319 
L 556 3319 
L 556 3672 
Q 556 4006 616 4169 
Q 697 4388 901 4523 
Q 1106 4659 1475 4659 
Q 1713 4659 2000 4603 
L 1916 4113 
Q 1741 4144 1584 4144 
Q 1328 4144 1222 4034 
Q 1116 3925 1116 3625 
L 1116 3319 
L 1763 3319 
L 1763 2881 
L 1116 2881 
L 1116 0 
L 556 0 
z
" transform="scale(0.015625)"/>
       <path id="ArialMT-76" d="M 1344 0 
L 81 3319 
L 675 3319 
L 1388 1331 
Q 1503 1009 1600 663 
Q 1675 925 1809 1294 
L 2547 3319 
L 3125 3319 
L 1869 0 
L 1344 0 
z
" transform="scale(0.015625)"/>
       <path id="ArialMT-6c" d="M 409 0 
L 409 4581 
L 972 4581 
L 972 0 
L 409 0 
z
" transform="scale(0.015625)"/>
       <path id="ArialMT-75" d="M 2597 0 
L 2597 488 
Q 2209 -75 1544 -75 
Q 1250 -75 995 37 
Q 741 150 617 320 
Q 494 491 444 738 
Q 409 903 409 1263 
L 409 3319 
L 972 3319 
L 972 1478 
Q 972 1038 1006 884 
Q 1059 663 1231 536 
Q 1403 409 1656 409 
Q 1909 409 2131 539 
Q 2353 669 2445 892 
Q 2538 1116 2538 1541 
L 2538 3319 
L 3100 3319 
L 3100 0 
L 2597 0 
z
" transform="scale(0.015625)"/>
       <path id="ArialMT-28" d="M 1497 -1347 
Q 1031 -759 709 28 
Q 388 816 388 1659 
Q 388 2403 628 3084 
Q 909 3875 1497 4659 
L 1900 4659 
Q 1522 4009 1400 3731 
Q 1209 3300 1100 2831 
Q 966 2247 966 1656 
Q 966 153 1900 -1347 
L 1497 -1347 
z
" transform="scale(0.015625)"/>
       <path id="ArialMT-29" d="M 791 -1347 
L 388 -1347 
Q 1322 153 1322 1656 
Q 1322 2244 1188 2822 
Q 1081 3291 891 3722 
Q 769 4003 388 4659 
L 791 4659 
Q 1378 3875 1659 3084 
Q 1900 2403 1900 1659 
Q 1900 816 1576 28 
Q 1253 -759 791 -1347 
z
" transform="scale(0.015625)"/>
      </defs>
      <use xlink:href="#ArialMT-54"/>
      <use xlink:href="#ArialMT-72" x="57.333984"/>
      <use xlink:href="#ArialMT-69" x="90.634766"/>
      <use xlink:href="#ArialMT-6d" x="112.851562"/>
      <use xlink:href="#ArialMT-6d" x="196.152344"/>
      <use xlink:href="#ArialMT-65" x="279.453125"/>
      <use xlink:href="#ArialMT-64" x="335.068359"/>
      <use xlink:href="#ArialMT-20" x="390.683594"/>
      <use xlink:href="#ArialMT-4d" x="418.466797"/>
      <use xlink:href="#ArialMT-65" x="501.767578"/>
      <use xlink:href="#ArialMT-61" x="557.382812"/>
      <use xlink:href="#ArialMT-6e" x="612.998047"/>
      <use xlink:href="#ArialMT-73" x="668.613281"/>
      <use xlink:href="#ArialMT-20" x="718.613281"/>
      <use xlink:href="#ArialMT-6f" x="746.396484"/>
      <use xlink:href="#ArialMT-66" x="802.011719"/>
      <use xlink:href="#ArialMT-20" x="829.794922"/>
      <use xlink:href="#ArialMT-4d" x="857.578125"/>
      <use xlink:href="#ArialMT-20" x="940.878906"/>
      <use xlink:href="#ArialMT-76" x="968.662109"/>
      <use xlink:href="#ArialMT-61" x="1018.662109"/>
      <use xlink:href="#ArialMT-6c" x="1074.277344"/>
      <use xlink:href="#ArialMT-75" x="1096.494141"/>
      <use xlink:href="#ArialMT-65" x="1152.109375"/>
      <use xlink:href="#ArialMT-73" x="1207.724609"/>
      <use xlink:href="#ArialMT-20" x="1257.724609"/>
      <use xlink:href="#ArialMT-28" x="1285.507812"/>
      <use xlink:href="#ArialMT-54" x="1318.808594"/>
      <use xlink:href="#ArialMT-4d" x="1379.892578"/>
      <use xlink:href="#ArialMT-4d" x="1463.193359"/>
      <use xlink:href="#ArialMT-29" x="1546.494141"/>
     </g>
    </g>
   </g>
   <g id="PolyCollection_1">
    <defs>
     <path id="mb4b0880c95" d="M 82.521895 -89.473499 
L 76.674708 -89.473499 
L 76.588907 -89.67833 
L 76.502642 -89.883162 
L 76.415891 -90.087993 
L 76.328633 -90.292825 
L 76.240844 -90.497656 
L 76.1525 -90.702488 
L 76.063579 -90.907319 
L 75.974064 -91.112151 
L 75.883939 -91.316982 
L 75.793198 -91.521814 
L 75.701838 -91.726645 
L 75.609865 -91.931477 
L 75.517294 -92.136308 
L 75.424148 -92.34114 
L 75.330462 -92.545971 
L 75.236278 -92.750803 
L 75.141647 -92.955634 
L 75.046633 -93.160466 
L 74.951306 -93.365297 
L 74.855745 -93.570129 
L 74.760035 -93.77496 
L 74.664271 -93.979792 
L 74.568549 -94.184623 
L 74.472971 -94.389455 
L 74.377641 -94.594286 
L 74.282666 -94.799118 
L 74.188149 -95.003949 
L 74.094196 -95.208781 
L 74.000908 -95.413612 
L 73.908381 -95.618444 
L 73.816708 -95.823275 
L 73.725976 -96.028107 
L 73.636264 -96.232938 
L 73.547646 -96.43777 
L 73.460188 -96.642601 
L 73.373949 -96.847433 
L 73.288982 -97.052264 
L 73.205331 -97.257096 
L 73.123038 -97.461927 
L 73.042137 -97.666759 
L 72.962661 -97.87159 
L 72.88464 -98.076422 
L 72.808101 -98.281253 
L 72.733075 -98.486085 
L 72.659594 -98.690917 
L 72.587692 -98.895748 
L 72.517411 -99.10058 
L 72.448801 -99.305411 
L 72.381917 -99.510243 
L 72.316828 -99.715074 
L 72.253611 -99.919906 
L 72.19236 -100.124737 
L 72.133177 -100.329569 
L 72.076182 -100.5344 
L 72.021508 -100.739232 
L 71.969301 -100.944063 
L 71.919724 -101.148895 
L 71.872952 -101.353726 
L 71.829174 -101.558558 
L 71.788589 -101.763389 
L 71.75141 -101.968221 
L 71.717857 -102.173052 
L 71.688159 -102.377884 
L 71.662549 -102.582715 
L 71.641266 -102.787547 
L 71.624547 -102.992378 
L 71.612632 -103.19721 
L 71.605754 -103.402041 
L 71.604142 -103.606873 
L 71.608018 -103.811704 
L 71.617589 -104.016536 
L 71.633054 -104.221367 
L 71.654592 -104.426199 
L 71.682367 -104.63103 
L 71.716523 -104.835862 
L 71.757182 -105.040693 
L 71.804443 -105.245525 
L 71.858379 -105.450356 
L 71.919039 -105.655188 
L 71.986443 -105.860019 
L 72.060585 -106.064851 
L 72.141428 -106.269682 
L 72.228908 -106.474514 
L 72.322931 -106.679345 
L 72.423375 -106.884177 
L 72.530089 -107.089008 
L 72.642893 -107.29384 
L 72.761581 -107.498671 
L 72.885921 -107.703503 
L 73.015655 -107.908334 
L 73.150503 -108.113166 
L 73.290161 -108.317998 
L 73.434306 -108.522829 
L 73.582597 -108.727661 
L 73.734674 -108.932492 
L 73.890165 -109.137324 
L 74.048684 -109.342155 
L 74.209836 -109.546987 
L 74.373217 -109.751818 
L 84.823385 -109.751818 
L 84.823385 -109.751818 
L 84.986767 -109.546987 
L 85.147919 -109.342155 
L 85.306438 -109.137324 
L 85.461929 -108.932492 
L 85.614006 -108.727661 
L 85.762297 -108.522829 
L 85.906442 -108.317998 
L 86.0461 -108.113166 
L 86.180948 -107.908334 
L 86.310682 -107.703503 
L 86.435022 -107.498671 
L 86.55371 -107.29384 
L 86.666514 -107.089008 
L 86.773228 -106.884177 
L 86.873671 -106.679345 
L 86.967695 -106.474514 
L 87.055175 -106.269682 
L 87.136018 -106.064851 
L 87.210159 -105.860019 
L 87.277564 -105.655188 
L 87.338224 -105.450356 
L 87.39216 -105.245525 
L 87.439421 -105.040693 
L 87.48008 -104.835862 
L 87.514236 -104.63103 
L 87.542011 -104.426199 
L 87.563549 -104.221367 
L 87.579013 -104.016536 
L 87.588585 -103.811704 
L 87.59246 -103.606873 
L 87.590849 -103.402041 
L 87.583971 -103.19721 
L 87.572056 -102.992378 
L 87.555337 -102.787547 
L 87.534054 -102.582715 
L 87.508444 -102.377884 
L 87.478746 -102.173052 
L 87.445193 -101.968221 
L 87.408014 -101.763389 
L 87.367429 -101.558558 
L 87.323651 -101.353726 
L 87.276879 -101.148895 
L 87.227302 -100.944063 
L 87.175095 -100.739232 
L 87.120421 -100.5344 
L 87.063426 -100.329569 
L 87.004243 -100.124737 
L 86.942992 -99.919906 
L 86.879775 -99.715074 
L 86.814686 -99.510243 
L 86.747802 -99.305411 
L 86.679192 -99.10058 
L 86.608911 -98.895748 
L 86.537009 -98.690917 
L 86.463528 -98.486085 
L 86.388502 -98.281253 
L 86.311963 -98.076422 
L 86.233942 -97.87159 
L 86.154466 -97.666759 
L 86.073565 -97.461927 
L 85.991272 -97.257096 
L 85.907621 -97.052264 
L 85.822654 -96.847433 
L 85.736415 -96.642601 
L 85.648957 -96.43777 
L 85.560339 -96.232938 
L 85.470627 -96.028107 
L 85.379895 -95.823275 
L 85.288222 -95.618444 
L 85.195695 -95.413612 
L 85.102406 -95.208781 
L 85.008454 -95.003949 
L 84.913937 -94.799118 
L 84.818962 -94.594286 
L 84.723632 -94.389455 
L 84.628054 -94.184623 
L 84.532332 -93.979792 
L 84.436568 -93.77496 
L 84.340858 -93.570129 
L 84.245297 -93.365297 
L 84.14997 -93.160466 
L 84.054956 -92.955634 
L 83.960325 -92.750803 
L 83.866141 -92.545971 
L 83.772455 -92.34114 
L 83.679309 -92.136308 
L 83.586738 -91.931477 
L 83.494765 -91.726645 
L 83.403405 -91.521814 
L 83.312664 -91.316982 
L 83.222539 -91.112151 
L 83.133024 -90.907319 
L 83.044103 -90.702488 
L 82.955759 -90.497656 
L 82.86797 -90.292825 
L 82.780711 -90.087993 
L 82.693961 -89.883162 
L 82.607696 -89.67833 
L 82.521895 -89.473499 
z
" style="stroke: #999999; stroke-width: 2"/>
    </defs>
    <g clip-path="url(#p5f4dfce4b3)">
     <use xlink:href="#mb4b0880c95" x="0" y="255.11811" style="fill: #ffffff; stroke: #999999; stroke-width: 2"/>
    </g>
   </g>
   <g id="PolyCollection_2">
    <defs>
     <path id="mb629804596" d="M 155.127078 -53.213311 
L 133.582731 -53.213311 
L 133.246931 -53.269647 
L 132.906419 -53.325982 
L 132.561091 -53.382317 
L 132.210851 -53.438653 
L 131.855621 -53.494988 
L 131.495347 -53.551324 
L 131.130008 -53.607659 
L 130.759616 -53.663995 
L 130.384229 -53.72033 
L 130.003952 -53.776665 
L 129.618945 -53.833001 
L 129.229429 -53.889336 
L 128.835688 -53.945672 
L 128.438076 -54.002007 
L 128.037018 -54.058343 
L 127.63301 -54.114678 
L 127.226627 -54.171013 
L 126.818517 -54.227349 
L 126.409401 -54.283684 
L 126.000075 -54.34002 
L 125.591402 -54.396355 
L 125.18431 -54.452691 
L 124.779786 -54.509026 
L 124.378872 -54.565361 
L 123.982651 -54.621697 
L 123.592246 -54.678032 
L 123.208805 -54.734368 
L 122.833492 -54.790703 
L 122.467478 -54.847038 
L 122.111927 -54.903374 
L 121.767985 -54.959709 
L 121.436768 -55.016045 
L 121.119348 -55.07238 
L 120.816744 -55.128716 
L 120.529906 -55.185051 
L 120.259708 -55.241386 
L 120.006933 -55.297722 
L 119.772266 -55.354057 
L 119.556281 -55.410393 
L 119.359437 -55.466728 
L 119.182071 -55.523064 
L 119.024388 -55.579399 
L 118.886464 -55.635734 
L 118.768236 -55.69207 
L 118.669508 -55.748405 
L 118.589948 -55.804741 
L 118.529094 -55.861076 
L 118.486356 -55.917412 
L 118.46102 -55.973747 
L 118.452263 -56.030082 
L 118.459157 -56.086418 
L 118.480679 -56.142753 
L 118.51573 -56.199089 
L 118.56314 -56.255424 
L 118.62169 -56.31176 
L 118.690123 -56.368095 
L 118.767162 -56.42443 
L 118.851526 -56.480766 
L 118.941946 -56.537101 
L 119.037186 -56.593437 
L 119.136053 -56.649772 
L 119.237418 -56.706108 
L 119.340229 -56.762443 
L 119.443529 -56.818778 
L 119.546463 -56.875114 
L 119.648295 -56.931449 
L 119.748416 -56.987785 
L 119.846357 -57.04412 
L 119.941786 -57.100455 
L 120.034524 -57.156791 
L 120.124542 -57.213126 
L 120.21196 -57.269462 
L 120.297051 -57.325797 
L 120.380232 -57.382133 
L 120.462063 -57.438468 
L 120.543238 -57.494803 
L 120.62457 -57.551139 
L 120.706991 -57.607474 
L 120.791527 -57.66381 
L 120.879293 -57.720145 
L 120.971471 -57.776481 
L 121.069299 -57.832816 
L 121.174048 -57.889151 
L 121.287008 -57.945487 
L 121.40947 -58.001822 
L 121.542704 -58.058158 
L 121.687947 -58.114493 
L 121.84638 -58.170829 
L 122.019115 -58.227164 
L 122.207177 -58.283499 
L 122.411492 -58.339835 
L 122.63287 -58.39617 
L 122.871997 -58.452506 
L 123.129425 -58.508841 
L 123.40556 -58.565177 
L 123.70066 -58.621512 
L 124.014829 -58.677847 
L 124.348012 -58.734183 
L 124.699999 -58.790518 
L 164.00981 -58.790518 
L 164.00981 -58.790518 
L 164.361797 -58.734183 
L 164.69498 -58.677847 
L 165.009148 -58.621512 
L 165.304249 -58.565177 
L 165.580384 -58.508841 
L 165.837812 -58.452506 
L 166.076939 -58.39617 
L 166.298317 -58.339835 
L 166.502631 -58.283499 
L 166.690694 -58.227164 
L 166.863428 -58.170829 
L 167.021862 -58.114493 
L 167.167105 -58.058158 
L 167.300339 -58.001822 
L 167.422801 -57.945487 
L 167.535761 -57.889151 
L 167.64051 -57.832816 
L 167.738338 -57.776481 
L 167.830516 -57.720145 
L 167.918282 -57.66381 
L 168.002818 -57.607474 
L 168.085238 -57.551139 
L 168.166571 -57.494803 
L 168.247745 -57.438468 
L 168.329577 -57.382133 
L 168.412758 -57.325797 
L 168.497849 -57.269462 
L 168.585267 -57.213126 
L 168.675284 -57.156791 
L 168.768023 -57.100455 
L 168.863452 -57.04412 
L 168.961392 -56.987785 
L 169.061514 -56.931449 
L 169.163346 -56.875114 
L 169.26628 -56.818778 
L 169.369579 -56.762443 
L 169.472391 -56.706108 
L 169.573756 -56.649772 
L 169.672623 -56.593437 
L 169.767862 -56.537101 
L 169.858283 -56.480766 
L 169.942647 -56.42443 
L 170.019686 -56.368095 
L 170.088119 -56.31176 
L 170.146669 -56.255424 
L 170.194079 -56.199089 
L 170.22913 -56.142753 
L 170.250652 -56.086418 
L 170.257546 -56.030082 
L 170.248789 -55.973747 
L 170.223453 -55.917412 
L 170.180714 -55.861076 
L 170.119861 -55.804741 
L 170.040301 -55.748405 
L 169.941573 -55.69207 
L 169.823345 -55.635734 
L 169.68542 -55.579399 
L 169.527738 -55.523064 
L 169.350372 -55.466728 
L 169.153528 -55.410393 
L 168.937543 -55.354057 
L 168.702875 -55.297722 
L 168.450101 -55.241386 
L 168.179903 -55.185051 
L 167.893065 -55.128716 
L 167.590461 -55.07238 
L 167.273041 -55.016045 
L 166.941824 -54.959709 
L 166.597882 -54.903374 
L 166.242331 -54.847038 
L 165.876317 -54.790703 
L 165.501004 -54.734368 
L 165.117563 -54.678032 
L 164.727158 -54.621697 
L 164.330937 -54.565361 
L 163.930022 -54.509026 
L 163.525499 -54.452691 
L 163.118407 -54.396355 
L 162.709734 -54.34002 
L 162.300407 -54.283684 
L 161.891292 -54.227349 
L 161.483181 -54.171013 
L 161.076798 -54.114678 
L 160.672791 -54.058343 
L 160.271732 -54.002007 
L 159.874121 -53.945672 
L 159.48038 -53.889336 
L 159.090864 -53.833001 
L 158.705857 -53.776665 
L 158.32558 -53.72033 
L 157.950192 -53.663995 
L 157.579801 -53.607659 
L 157.214461 -53.551324 
L 156.854188 -53.494988 
L 156.498958 -53.438653 
L 156.148718 -53.382317 
L 155.803389 -53.325982 
L 155.462878 -53.269647 
L 155.127078 -53.213311 
z
" style="stroke: #999999; stroke-width: 2"/>
    </defs>
    <g clip-path="url(#p5f4dfce4b3)">
     <use xlink:href="#mb629804596" x="0" y="255.11811" style="fill: #ffffff; stroke: #999999; stroke-width: 2"/>
    </g>
   </g>
   <g id="PolyCollection_3">
    <defs>
     <path id="m084db61ae3" d="M 214.765217 -83.465698 
L 203.457797 -83.465698 
L 203.23616 -83.628938 
L 203.012746 -83.792178 
L 202.787847 -83.955418 
L 202.561762 -84.118657 
L 202.334795 -84.281897 
L 202.107262 -84.445137 
L 201.879483 -84.608377 
L 201.651788 -84.771617 
L 201.424516 -84.934857 
L 201.198013 -85.098097 
L 200.972636 -85.261337 
L 200.74875 -85.424577 
L 200.52673 -85.587817 
L 200.306959 -85.751057 
L 200.089834 -85.914297 
L 199.875758 -86.077537 
L 199.665146 -86.240777 
L 199.458423 -86.404017 
L 199.256027 -86.567257 
L 199.058402 -86.730496 
L 198.866007 -86.893736 
L 198.67931 -87.056976 
L 198.498788 -87.220216 
L 198.32493 -87.383456 
L 198.158233 -87.546696 
L 197.999203 -87.709936 
L 197.848355 -87.873176 
L 197.706209 -88.036416 
L 197.573291 -88.199656 
L 197.450128 -88.362896 
L 197.337248 -88.526136 
L 197.235179 -88.689376 
L 197.14444 -88.852616 
L 197.065542 -89.015856 
L 196.998982 -89.179096 
L 196.94524 -89.342335 
L 196.904771 -89.505575 
L 196.878001 -89.668815 
L 196.865323 -89.832055 
L 196.867087 -89.995295 
L 196.883598 -90.158535 
L 196.915108 -90.321775 
L 196.961806 -90.485015 
L 197.02382 -90.648255 
L 197.101204 -90.811495 
L 197.193935 -90.974735 
L 197.30191 -91.137975 
L 197.424938 -91.301215 
L 197.562742 -91.464455 
L 197.714952 -91.627695 
L 197.881104 -91.790935 
L 198.060644 -91.954174 
L 198.252923 -92.117414 
L 198.457206 -92.280654 
L 198.672669 -92.443894 
L 198.898409 -92.607134 
L 199.133447 -92.770374 
L 199.376736 -92.933614 
L 199.62717 -93.096854 
L 199.883596 -93.260094 
L 200.144819 -93.423334 
L 200.409616 -93.586574 
L 200.67675 -93.749814 
L 200.94498 -93.913054 
L 201.213073 -94.076294 
L 201.479817 -94.239534 
L 201.744036 -94.402774 
L 202.004599 -94.566013 
L 202.260433 -94.729253 
L 202.510533 -94.892493 
L 202.753973 -95.055733 
L 202.989916 -95.218973 
L 203.217619 -95.382213 
L 203.43644 -95.545453 
L 203.645846 -95.708693 
L 203.845412 -95.871933 
L 204.034828 -96.035173 
L 204.213894 -96.198413 
L 204.382523 -96.361653 
L 204.54074 -96.524893 
L 204.68867 -96.688133 
L 204.826544 -96.851373 
L 204.954681 -97.014613 
L 205.073491 -97.177852 
L 205.183457 -97.341092 
L 205.285132 -97.504332 
L 205.379127 -97.667572 
L 205.466099 -97.830812 
L 205.546742 -97.994052 
L 205.621775 -98.157292 
L 205.691932 -98.320532 
L 205.757951 -98.483772 
L 205.820561 -98.647012 
L 205.880478 -98.810252 
L 205.938389 -98.973492 
L 205.99495 -99.136732 
L 206.050773 -99.299972 
L 206.106424 -99.463212 
L 206.162413 -99.626452 
L 212.060601 -99.626452 
L 212.060601 -99.626452 
L 212.116591 -99.463212 
L 212.172242 -99.299972 
L 212.228065 -99.136732 
L 212.284625 -98.973492 
L 212.342537 -98.810252 
L 212.402453 -98.647012 
L 212.465064 -98.483772 
L 212.531082 -98.320532 
L 212.60124 -98.157292 
L 212.676273 -97.994052 
L 212.756916 -97.830812 
L 212.843888 -97.667572 
L 212.937883 -97.504332 
L 213.039558 -97.341092 
L 213.149524 -97.177852 
L 213.268333 -97.014613 
L 213.396471 -96.851373 
L 213.534344 -96.688133 
L 213.682275 -96.524893 
L 213.840491 -96.361653 
L 214.009121 -96.198413 
L 214.188187 -96.035173 
L 214.377602 -95.871933 
L 214.577169 -95.708693 
L 214.786574 -95.545453 
L 215.005396 -95.382213 
L 215.233098 -95.218973 
L 215.469041 -95.055733 
L 215.712482 -94.892493 
L 215.962582 -94.729253 
L 216.218416 -94.566013 
L 216.478978 -94.402774 
L 216.743198 -94.239534 
L 217.009942 -94.076294 
L 217.278035 -93.913054 
L 217.546264 -93.749814 
L 217.813399 -93.586574 
L 218.078196 -93.423334 
L 218.339418 -93.260094 
L 218.595844 -93.096854 
L 218.846279 -92.933614 
L 219.089568 -92.770374 
L 219.324606 -92.607134 
L 219.550345 -92.443894 
L 219.765809 -92.280654 
L 219.970091 -92.117414 
L 220.162371 -91.954174 
L 220.34191 -91.790935 
L 220.508063 -91.627695 
L 220.660272 -91.464455 
L 220.798076 -91.301215 
L 220.921105 -91.137975 
L 221.02908 -90.974735 
L 221.121811 -90.811495 
L 221.199194 -90.648255 
L 221.261208 -90.485015 
L 221.307907 -90.321775 
L 221.339416 -90.158535 
L 221.355928 -89.995295 
L 221.357692 -89.832055 
L 221.345014 -89.668815 
L 221.318244 -89.505575 
L 221.277775 -89.342335 
L 221.224032 -89.179096 
L 221.157473 -89.015856 
L 221.078575 -88.852616 
L 220.987836 -88.689376 
L 220.885766 -88.526136 
L 220.772887 -88.362896 
L 220.649724 -88.199656 
L 220.516805 -88.036416 
L 220.374659 -87.873176 
L 220.223811 -87.709936 
L 220.064782 -87.546696 
L 219.898085 -87.383456 
L 219.724227 -87.220216 
L 219.543705 -87.056976 
L 219.357007 -86.893736 
L 219.164612 -86.730496 
L 218.966988 -86.567257 
L 218.764591 -86.404017 
L 218.557869 -86.240777 
L 218.347257 -86.077537 
L 218.133181 -85.914297 
L 217.916055 -85.751057 
L 217.696285 -85.587817 
L 217.474265 -85.424577 
L 217.250379 -85.261337 
L 217.025002 -85.098097 
L 216.798499 -84.934857 
L 216.571227 -84.771617 
L 216.343532 -84.608377 
L 216.115753 -84.445137 
L 215.888219 -84.281897 
L 215.661253 -84.118657 
L 215.435167 -83.955418 
L 215.210269 -83.792178 
L 214.986855 -83.628938 
L 214.765217 -83.465698 
z
" style="stroke: #999999; stroke-width: 2"/>
    </defs>
    <g clip-path="url(#p5f4dfce4b3)">
     <use xlink:href="#m084db61ae3" x="0" y="255.11811" style="fill: #ffffff; stroke: #999999; stroke-width: 2"/>
    </g>
   </g>
   <g id="PolyCollection_4">
    <defs>
     <path id="meee1527a4a" d="M 274.709925 -64.732744 
L 273.026296 -64.732744 
L 273.002668 -66.32313 
L 272.979991 -67.913515 
L 272.958306 -69.503901 
L 272.937639 -71.094287 
L 272.918004 -72.684672 
L 272.899402 -74.275058 
L 272.881821 -75.865444 
L 272.865235 -77.455829 
L 272.849609 -79.046215 
L 272.834895 -80.636601 
L 272.821038 -82.226986 
L 272.807974 -83.817372 
L 272.795636 -85.407758 
L 272.78395 -86.998143 
L 272.772842 -88.588529 
L 272.76224 -90.178915 
L 272.752073 -91.7693 
L 272.742274 -93.359686 
L 272.732786 -94.950072 
L 272.723559 -96.540457 
L 272.714553 -98.130843 
L 272.705743 -99.721228 
L 272.697115 -101.311614 
L 272.688669 -102.902 
L 272.680424 -104.492385 
L 272.672411 -106.082771 
L 272.664678 -107.673157 
L 272.657287 -109.263542 
L 272.650315 -110.853928 
L 272.643852 -112.444314 
L 272.638 -114.034699 
L 272.632869 -115.625085 
L 272.62858 -117.215471 
L 272.625256 -118.805856 
L 272.623025 -120.396242 
L 272.622015 -121.986628 
L 272.622351 -123.577013 
L 272.624155 -125.167399 
L 272.627539 -126.757784 
L 272.632607 -128.34817 
L 272.639448 -129.938556 
L 272.64814 -131.528941 
L 272.65874 -133.119327 
L 272.671291 -134.709713 
L 272.685814 -136.300098 
L 272.702309 -137.890484 
L 272.720758 -139.48087 
L 272.741119 -141.071255 
L 272.763329 -142.661641 
L 272.787308 -144.252027 
L 272.812951 -145.842412 
L 272.840139 -147.432798 
L 272.868735 -149.023184 
L 272.898586 -150.613569 
L 272.929527 -152.203955 
L 272.961381 -153.794341 
L 272.993966 -155.384726 
L 273.027089 -156.975112 
L 273.060558 -158.565497 
L 273.094178 -160.155883 
L 273.127756 -161.746269 
L 273.161102 -163.336654 
L 273.194034 -164.92704 
L 273.226377 -166.517426 
L 273.257966 -168.107811 
L 273.28865 -169.698197 
L 273.318289 -171.288583 
L 273.346758 -172.878968 
L 273.37395 -174.469354 
L 273.399772 -176.05974 
L 273.424149 -177.650125 
L 273.447023 -179.240511 
L 273.468353 -180.830897 
L 273.488115 -182.421282 
L 273.506301 -184.011668 
L 273.522922 -185.602053 
L 273.537999 -187.192439 
L 273.551572 -188.782825 
L 273.563691 -190.37321 
L 273.574419 -191.963596 
L 273.58383 -193.553982 
L 273.592005 -195.144367 
L 273.599035 -196.734753 
L 273.605017 -198.325139 
L 273.610053 -199.915524 
L 273.614247 -201.50591 
L 273.617705 -203.096296 
L 273.620537 -204.686681 
L 273.622847 -206.277067 
L 273.624742 -207.867453 
L 273.626323 -209.457838 
L 273.627687 -211.048224 
L 273.628928 -212.63861 
L 273.630131 -214.228995 
L 273.631377 -215.819381 
L 273.632738 -217.409766 
L 273.634279 -219.000152 
L 273.636056 -220.590538 
L 273.638119 -222.180923 
L 274.098102 -222.180923 
L 274.098102 -222.180923 
L 274.100164 -220.590538 
L 274.101942 -219.000152 
L 274.103483 -217.409766 
L 274.104844 -215.819381 
L 274.10609 -214.228995 
L 274.107293 -212.63861 
L 274.108533 -211.048224 
L 274.109898 -209.457838 
L 274.111479 -207.867453 
L 274.113373 -206.277067 
L 274.115684 -204.686681 
L 274.118515 -203.096296 
L 274.121974 -201.50591 
L 274.126167 -199.915524 
L 274.131203 -198.325139 
L 274.137185 -196.734753 
L 274.144216 -195.144367 
L 274.152391 -193.553982 
L 274.161801 -191.963596 
L 274.172529 -190.37321 
L 274.184648 -188.782825 
L 274.198221 -187.192439 
L 274.213299 -185.602053 
L 274.229919 -184.011668 
L 274.248106 -182.421282 
L 274.267868 -180.830897 
L 274.289198 -179.240511 
L 274.312071 -177.650125 
L 274.336448 -176.05974 
L 274.36227 -174.469354 
L 274.389462 -172.878968 
L 274.417932 -171.288583 
L 274.447571 -169.698197 
L 274.478254 -168.107811 
L 274.509844 -166.517426 
L 274.542187 -164.92704 
L 274.575119 -163.336654 
L 274.608465 -161.746269 
L 274.642042 -160.155883 
L 274.675662 -158.565497 
L 274.709131 -156.975112 
L 274.742255 -155.384726 
L 274.774839 -153.794341 
L 274.806694 -152.203955 
L 274.837635 -150.613569 
L 274.867486 -149.023184 
L 274.896081 -147.432798 
L 274.923269 -145.842412 
L 274.948913 -144.252027 
L 274.972891 -142.661641 
L 274.995102 -141.071255 
L 275.015463 -139.48087 
L 275.033911 -137.890484 
L 275.050407 -136.300098 
L 275.064929 -134.709713 
L 275.07748 -133.119327 
L 275.088081 -131.528941 
L 275.096772 -129.938556 
L 275.103614 -128.34817 
L 275.108681 -126.757784 
L 275.112066 -125.167399 
L 275.113869 -123.577013 
L 275.114206 -121.986628 
L 275.113196 -120.396242 
L 275.110965 -118.805856 
L 275.107641 -117.215471 
L 275.103351 -115.625085 
L 275.098221 -114.034699 
L 275.092368 -112.444314 
L 275.085905 -110.853928 
L 275.078933 -109.263542 
L 275.071542 -107.673157 
L 275.063809 -106.082771 
L 275.055796 -104.492385 
L 275.047551 -102.902 
L 275.039106 -101.311614 
L 275.030478 -99.721228 
L 275.021667 -98.130843 
L 275.012662 -96.540457 
L 275.003434 -94.950072 
L 274.993946 -93.359686 
L 274.984148 -91.7693 
L 274.97398 -90.178915 
L 274.963378 -88.588529 
L 274.952271 -86.998143 
L 274.940585 -85.407758 
L 274.928246 -83.817372 
L 274.915183 -82.226986 
L 274.901326 -80.636601 
L 274.886612 -79.046215 
L 274.870985 -77.455829 
L 274.8544 -75.865444 
L 274.836818 -74.275058 
L 274.818216 -72.684672 
L 274.798582 -71.094287 
L 274.777915 -69.503901 
L 274.756229 -67.913515 
L 274.733552 -66.32313 
L 274.709925 -64.732744 
z
" style="stroke: #999999; stroke-width: 2"/>
    </defs>
    <g clip-path="url(#p5f4dfce4b3)">
     <use xlink:href="#meee1527a4a" x="0" y="255.11811" style="fill: #ffffff; stroke: #999999; stroke-width: 2"/>
    </g>
   </g>
   <g id="PolyCollection_5">
    <defs>
     <path id="m64a0312fe4" d="M 341.744106 -141.987998 
L 335.50532 -141.987998 
L 335.472492 -142.262295 
L 335.441294 -142.536592 
L 335.411685 -142.810889 
L 335.383611 -143.085186 
L 335.357012 -143.359483 
L 335.331818 -143.63378 
L 335.307952 -143.908077 
L 335.285332 -144.182374 
L 335.263867 -144.456672 
L 335.243463 -144.730969 
L 335.224021 -145.005266 
L 335.205435 -145.279563 
L 335.187601 -145.55386 
L 335.17041 -145.828157 
L 335.153751 -146.102454 
L 335.137514 -146.376751 
L 335.121591 -146.651048 
L 335.105874 -146.925345 
L 335.090256 -147.199642 
L 335.074635 -147.473939 
L 335.058913 -147.748236 
L 335.042997 -148.022533 
L 335.026799 -148.29683 
L 335.010237 -148.571127 
L 334.993238 -148.845424 
L 334.975733 -149.119721 
L 334.957665 -149.394019 
L 334.938983 -149.668316 
L 334.919646 -149.942613 
L 334.899621 -150.21691 
L 334.878886 -150.491207 
L 334.857427 -150.765504 
L 334.835242 -151.039801 
L 334.812336 -151.314098 
L 334.788726 -151.588395 
L 334.764437 -151.862692 
L 334.739503 -152.136989 
L 334.713968 -152.411286 
L 334.687884 -152.685583 
L 334.661312 -152.95988 
L 334.63432 -153.234177 
L 334.606983 -153.508474 
L 334.579384 -153.782771 
L 334.551611 -154.057069 
L 334.523758 -154.331366 
L 334.495924 -154.605663 
L 334.468212 -154.87996 
L 334.440729 -155.154257 
L 334.413585 -155.428554 
L 334.386892 -155.702851 
L 334.360762 -155.977148 
L 334.335312 -156.251445 
L 334.310655 -156.525742 
L 334.286905 -156.800039 
L 334.264178 -157.074336 
L 334.242584 -157.348633 
L 334.222234 -157.62293 
L 334.203235 -157.897227 
L 334.185692 -158.171524 
L 334.169705 -158.445821 
L 334.155372 -158.720118 
L 334.142786 -158.994416 
L 334.132034 -159.268713 
L 334.1232 -159.54301 
L 334.116363 -159.817307 
L 334.111594 -160.091604 
L 334.108962 -160.365901 
L 334.108527 -160.640198 
L 334.110347 -160.914495 
L 334.114469 -161.188792 
L 334.120938 -161.463089 
L 334.129791 -161.737386 
L 334.14106 -162.011683 
L 334.154771 -162.28598 
L 334.170942 -162.560277 
L 334.189587 -162.834574 
L 334.210714 -163.108871 
L 334.234323 -163.383168 
L 334.26041 -163.657465 
L 334.288964 -163.931763 
L 334.31997 -164.20606 
L 334.353406 -164.480357 
L 334.389245 -164.754654 
L 334.427454 -165.028951 
L 334.467996 -165.303248 
L 334.510827 -165.577545 
L 334.555899 -165.851842 
L 334.60316 -166.126139 
L 334.652553 -166.400436 
L 334.704014 -166.674733 
L 334.757477 -166.94903 
L 334.812872 -167.223327 
L 334.870123 -167.497624 
L 334.929152 -167.771921 
L 334.989875 -168.046218 
L 335.052207 -168.320515 
L 335.116059 -168.594813 
L 335.181336 -168.86911 
L 335.247945 -169.143407 
L 342.001482 -169.143407 
L 342.001482 -169.143407 
L 342.06809 -168.86911 
L 342.133368 -168.594813 
L 342.197219 -168.320515 
L 342.259551 -168.046218 
L 342.320274 -167.771921 
L 342.379303 -167.497624 
L 342.436554 -167.223327 
L 342.491949 -166.94903 
L 342.545413 -166.674733 
L 342.596874 -166.400436 
L 342.646266 -166.126139 
L 342.693527 -165.851842 
L 342.7386 -165.577545 
L 342.781431 -165.303248 
L 342.821972 -165.028951 
L 342.860181 -164.754654 
L 342.89602 -164.480357 
L 342.929456 -164.20606 
L 342.960462 -163.931763 
L 342.989017 -163.657465 
L 343.015104 -163.383168 
L 343.038712 -163.108871 
L 343.059839 -162.834574 
L 343.078484 -162.560277 
L 343.094655 -162.28598 
L 343.108366 -162.011683 
L 343.119635 -161.737386 
L 343.128489 -161.463089 
L 343.134958 -161.188792 
L 343.13908 -160.914495 
L 343.140899 -160.640198 
L 343.140464 -160.365901 
L 343.137832 -160.091604 
L 343.133064 -159.817307 
L 343.126226 -159.54301 
L 343.117393 -159.268713 
L 343.106641 -158.994416 
L 343.094054 -158.720118 
L 343.079721 -158.445821 
L 343.063735 -158.171524 
L 343.046191 -157.897227 
L 343.027192 -157.62293 
L 343.006842 -157.348633 
L 342.985248 -157.074336 
L 342.962521 -156.800039 
L 342.938772 -156.525742 
L 342.914115 -156.251445 
L 342.888664 -155.977148 
L 342.862535 -155.702851 
L 342.835841 -155.428554 
L 342.808697 -155.154257 
L 342.781214 -154.87996 
L 342.753502 -154.605663 
L 342.725668 -154.331366 
L 342.697816 -154.057069 
L 342.670043 -153.782771 
L 342.642443 -153.508474 
L 342.615107 -153.234177 
L 342.588114 -152.95988 
L 342.561542 -152.685583 
L 342.535459 -152.411286 
L 342.509923 -152.136989 
L 342.484989 -151.862692 
L 342.4607 -151.588395 
L 342.43709 -151.314098 
L 342.414184 -151.039801 
L 342.391999 -150.765504 
L 342.370541 -150.491207 
L 342.349805 -150.21691 
L 342.32978 -149.942613 
L 342.310443 -149.668316 
L 342.291761 -149.394019 
L 342.273693 -149.119721 
L 342.256188 -148.845424 
L 342.239189 -148.571127 
L 342.222627 -148.29683 
L 342.206429 -148.022533 
L 342.190513 -147.748236 
L 342.174792 -147.473939 
L 342.159171 -147.199642 
L 342.143553 -146.925345 
L 342.127835 -146.651048 
L 342.111912 -146.376751 
L 342.095676 -146.102454 
L 342.079017 -145.828157 
L 342.061825 -145.55386 
L 342.043991 -145.279563 
L 342.025406 -145.005266 
L 342.005963 -144.730969 
L 341.985559 -144.456672 
L 341.964094 -144.182374 
L 341.941474 -143.908077 
L 341.917609 -143.63378 
L 341.892414 -143.359483 
L 341.865815 -143.085186 
L 341.837741 -142.810889 
L 341.808132 -142.536592 
L 341.776935 -142.262295 
L 341.744106 -141.987998 
z
" style="stroke: #999999; stroke-width: 2"/>
    </defs>
    <g clip-path="url(#p5f4dfce4b3)">
     <use xlink:href="#m64a0312fe4" x="0" y="255.11811" style="fill: #ffffff; stroke: #999999; stroke-width: 2"/>
    </g>
   </g>
   <g id="PolyCollection_6">
    <defs>
     <path id="me2bd165eca" d="M 412.973003 -49.837187 
L 393.789629 -49.837187 
L 393.705637 -49.941826 
L 393.629395 -50.046466 
L 393.560903 -50.151105 
L 393.500131 -50.255745 
L 393.447012 -50.360384 
L 393.401444 -50.465024 
L 393.363296 -50.569663 
L 393.332401 -50.674303 
L 393.308562 -50.778942 
L 393.291551 -50.883582 
L 393.281113 -50.988222 
L 393.276963 -51.092861 
L 393.278791 -51.197501 
L 393.286265 -51.30214 
L 393.299028 -51.40678 
L 393.316705 -51.511419 
L 393.338904 -51.616059 
L 393.365216 -51.720698 
L 393.39522 -51.825338 
L 393.428485 -51.929977 
L 393.464571 -52.034617 
L 393.503033 -52.139256 
L 393.543424 -52.243896 
L 393.585295 -52.348535 
L 393.628202 -52.453175 
L 393.671701 -52.557814 
L 393.715361 -52.662454 
L 393.758756 -52.767093 
L 393.801475 -52.871733 
L 393.843119 -52.976372 
L 393.883306 -53.081012 
L 393.921673 -53.185651 
L 393.957876 -53.290291 
L 393.991595 -53.39493 
L 394.022531 -53.49957 
L 394.050412 -53.604209 
L 394.074991 -53.708849 
L 394.096052 -53.813488 
L 394.113403 -53.918128 
L 394.126884 -54.022767 
L 394.136366 -54.127407 
L 394.141748 -54.232046 
L 394.142964 -54.336686 
L 394.139975 -54.441326 
L 394.132776 -54.545965 
L 394.121393 -54.650605 
L 394.105881 -54.755244 
L 394.086326 -54.859884 
L 394.062846 -54.964523 
L 394.035585 -55.069163 
L 394.004716 -55.173802 
L 393.970438 -55.278442 
L 393.932978 -55.383081 
L 393.892586 -55.487721 
L 393.849534 -55.59236 
L 393.804117 -55.697 
L 393.75665 -55.801639 
L 393.707464 -55.906279 
L 393.656909 -56.010918 
L 393.605348 -56.115558 
L 393.553156 -56.220197 
L 393.50072 -56.324837 
L 393.448434 -56.429476 
L 393.3967 -56.534116 
L 393.345923 -56.638755 
L 393.296512 -56.743395 
L 393.248874 -56.848034 
L 393.203417 -56.952674 
L 393.160542 -57.057313 
L 393.120648 -57.161953 
L 393.084123 -57.266592 
L 393.051346 -57.371232 
L 393.022687 -57.475871 
L 392.998499 -57.580511 
L 392.979123 -57.685151 
L 392.964881 -57.78979 
L 392.956079 -57.89443 
L 392.953002 -57.999069 
L 392.955914 -58.103709 
L 392.965059 -58.208348 
L 392.980656 -58.312988 
L 393.0029 -58.417627 
L 393.031961 -58.522267 
L 393.067983 -58.626906 
L 393.111086 -58.731546 
L 393.161361 -58.836185 
L 393.218872 -58.940825 
L 393.283656 -59.045464 
L 393.355724 -59.150104 
L 393.435059 -59.254743 
L 393.521616 -59.359383 
L 393.615325 -59.464022 
L 393.716089 -59.568662 
L 393.823785 -59.673301 
L 393.938268 -59.777941 
L 394.059365 -59.88258 
L 394.186883 -59.98722 
L 394.320606 -60.091859 
L 394.460297 -60.196499 
L 412.302336 -60.196499 
L 412.302336 -60.196499 
L 412.442026 -60.091859 
L 412.575749 -59.98722 
L 412.703267 -59.88258 
L 412.824364 -59.777941 
L 412.938847 -59.673301 
L 413.046544 -59.568662 
L 413.147308 -59.464022 
L 413.241016 -59.359383 
L 413.327573 -59.254743 
L 413.406908 -59.150104 
L 413.478976 -59.045464 
L 413.543761 -58.940825 
L 413.601271 -58.836185 
L 413.651546 -58.731546 
L 413.694649 -58.626906 
L 413.730672 -58.522267 
L 413.759732 -58.417627 
L 413.781976 -58.312988 
L 413.797573 -58.208348 
L 413.806718 -58.103709 
L 413.809631 -57.999069 
L 413.806554 -57.89443 
L 413.797751 -57.78979 
L 413.783509 -57.685151 
L 413.764133 -57.580511 
L 413.739945 -57.475871 
L 413.711286 -57.371232 
L 413.678509 -57.266592 
L 413.641984 -57.161953 
L 413.60209 -57.057313 
L 413.559216 -56.952674 
L 413.513758 -56.848034 
L 413.466121 -56.743395 
L 413.416709 -56.638755 
L 413.365932 -56.534116 
L 413.314198 -56.429476 
L 413.261912 -56.324837 
L 413.209476 -56.220197 
L 413.157284 -56.115558 
L 413.105723 -56.010918 
L 413.055168 -55.906279 
L 413.005982 -55.801639 
L 412.958515 -55.697 
L 412.913098 -55.59236 
L 412.870046 -55.487721 
L 412.829654 -55.383081 
L 412.792194 -55.278442 
L 412.757917 -55.173802 
L 412.727047 -55.069163 
L 412.699786 -54.964523 
L 412.676306 -54.859884 
L 412.656752 -54.755244 
L 412.641239 -54.650605 
L 412.629856 -54.545965 
L 412.622657 -54.441326 
L 412.619668 -54.336686 
L 412.620884 -54.232046 
L 412.626266 -54.127407 
L 412.635748 -54.022767 
L 412.649229 -53.918128 
L 412.66658 -53.813488 
L 412.687641 -53.708849 
L 412.712221 -53.604209 
L 412.740102 -53.49957 
L 412.771038 -53.39493 
L 412.804756 -53.290291 
L 412.84096 -53.185651 
L 412.879326 -53.081012 
L 412.919514 -52.976372 
L 412.961157 -52.871733 
L 413.003876 -52.767093 
L 413.047271 -52.662454 
L 413.090931 -52.557814 
L 413.134431 -52.453175 
L 413.177337 -52.348535 
L 413.219208 -52.243896 
L 413.259599 -52.139256 
L 413.298061 -52.034617 
L 413.334147 -51.929977 
L 413.367412 -51.825338 
L 413.397416 -51.720698 
L 413.423728 -51.616059 
L 413.445927 -51.511419 
L 413.463604 -51.40678 
L 413.476368 -51.30214 
L 413.483841 -51.197501 
L 413.485669 -51.092861 
L 413.481519 -50.988222 
L 413.471081 -50.883582 
L 413.45407 -50.778942 
L 413.430231 -50.674303 
L 413.399336 -50.569663 
L 413.361188 -50.465024 
L 413.315621 -50.360384 
L 413.262501 -50.255745 
L 413.201729 -50.151105 
L 413.133238 -50.046466 
L 413.056995 -49.941826 
L 412.973003 -49.837187 
z
" style="stroke: #999999; stroke-width: 2"/>
    </defs>
    <g clip-path="url(#p5f4dfce4b3)">
     <use xlink:href="#me2bd165eca" x="0" y="255.11811" style="fill: #ffffff; stroke: #999999; stroke-width: 2"/>
    </g>
   </g>
   <g id="PolyCollection_7">
    <defs>
     <path id="m2d199e0a26" d="M 469.143742 -142.810211 
L 467.132097 -142.810211 
L 467.111613 -143.267418 
L 467.091132 -143.724624 
L 467.070565 -144.181831 
L 467.049815 -144.639037 
L 467.028782 -145.096244 
L 467.007356 -145.553451 
L 466.985427 -146.010657 
L 466.962881 -146.467864 
L 466.939605 -146.92507 
L 466.915485 -147.382277 
L 466.890409 -147.839484 
L 466.864272 -148.29669 
L 466.83697 -148.753897 
L 466.80841 -149.211104 
L 466.778506 -149.66831 
L 466.747182 -150.125517 
L 466.714373 -150.582723 
L 466.680028 -151.03993 
L 466.644107 -151.497137 
L 466.606586 -151.954343 
L 466.567457 -152.41155 
L 466.526724 -152.868756 
L 466.48441 -153.325963 
L 466.440551 -153.78317 
L 466.395202 -154.240376 
L 466.348428 -154.697583 
L 466.300314 -155.15479 
L 466.250954 -155.611996 
L 466.200456 -156.069203 
L 466.14894 -156.526409 
L 466.096534 -156.983616 
L 466.043376 -157.440823 
L 465.98961 -157.898029 
L 465.935385 -158.355236 
L 465.880851 -158.812442 
L 465.826161 -159.269649 
L 465.771468 -159.726856 
L 465.71692 -160.184062 
L 465.662663 -160.641269 
L 465.608836 -161.098476 
L 465.555571 -161.555682 
L 465.50299 -162.012889 
L 465.451206 -162.470095 
L 465.400322 -162.927302 
L 465.350428 -163.384509 
L 465.301601 -163.841715 
L 465.253908 -164.298922 
L 465.2074 -164.756128 
L 465.16212 -165.213335 
L 465.118096 -165.670542 
L 465.075347 -166.127748 
L 465.033879 -166.584955 
L 464.993693 -167.042162 
L 464.95478 -167.499368 
L 464.917126 -167.956575 
L 464.880711 -168.413781 
L 464.845516 -168.870988 
L 464.811516 -169.328195 
L 464.778692 -169.785401 
L 464.747026 -170.242608 
L 464.716504 -170.699815 
L 464.68712 -171.157021 
L 464.658874 -171.614228 
L 464.631777 -172.071434 
L 464.605852 -172.528641 
L 464.58113 -172.985848 
L 464.557657 -173.443054 
L 464.535493 -173.900261 
L 464.51471 -174.357467 
L 464.495392 -174.814674 
L 464.47764 -175.271881 
L 464.461563 -175.729087 
L 464.447285 -176.186294 
L 464.434939 -176.643501 
L 464.424667 -177.100707 
L 464.416618 -177.557914 
L 464.410949 -178.01512 
L 464.407818 -178.472327 
L 464.407384 -178.929534 
L 464.409808 -179.38674 
L 464.415245 -179.843947 
L 464.423846 -180.301153 
L 464.435752 -180.75836 
L 464.451097 -181.215567 
L 464.469998 -181.672773 
L 464.492561 -182.12998 
L 464.518873 -182.587187 
L 464.549003 -183.044393 
L 464.582999 -183.5016 
L 464.620889 -183.958806 
L 464.662676 -184.416013 
L 464.708343 -184.87322 
L 464.757846 -185.330426 
L 464.811117 -185.787633 
L 464.868065 -186.244839 
L 464.928575 -186.702046 
L 464.992509 -187.159253 
L 465.059706 -187.616459 
L 465.129984 -188.073666 
L 471.145854 -188.073666 
L 471.145854 -188.073666 
L 471.216132 -187.616459 
L 471.283329 -187.159253 
L 471.347263 -186.702046 
L 471.407773 -186.244839 
L 471.464721 -185.787633 
L 471.517992 -185.330426 
L 471.567495 -184.87322 
L 471.613162 -184.416013 
L 471.654949 -183.958806 
L 471.692839 -183.5016 
L 471.726835 -183.044393 
L 471.756965 -182.587187 
L 471.783277 -182.12998 
L 471.80584 -181.672773 
L 471.824741 -181.215567 
L 471.840086 -180.75836 
L 471.851992 -180.301153 
L 471.860593 -179.843947 
L 471.86603 -179.38674 
L 471.868454 -178.929534 
L 471.86802 -178.472327 
L 471.864889 -178.01512 
L 471.85922 -177.557914 
L 471.851171 -177.100707 
L 471.840899 -176.643501 
L 471.828553 -176.186294 
L 471.814275 -175.729087 
L 471.798198 -175.271881 
L 471.780446 -174.814674 
L 471.761128 -174.357467 
L 471.740345 -173.900261 
L 471.718181 -173.443054 
L 471.694708 -172.985848 
L 471.669986 -172.528641 
L 471.644061 -172.071434 
L 471.616964 -171.614228 
L 471.588718 -171.157021 
L 471.559334 -170.699815 
L 471.528812 -170.242608 
L 471.497146 -169.785401 
L 471.464322 -169.328195 
L 471.430323 -168.870988 
L 471.395127 -168.413781 
L 471.358712 -167.956575 
L 471.321058 -167.499368 
L 471.282145 -167.042162 
L 471.241959 -166.584955 
L 471.200491 -166.127748 
L 471.157742 -165.670542 
L 471.113718 -165.213335 
L 471.068438 -164.756128 
L 471.02193 -164.298922 
L 470.974237 -163.841715 
L 470.92541 -163.384509 
L 470.875516 -162.927302 
L 470.824632 -162.470095 
L 470.772848 -162.012889 
L 470.720267 -161.555682 
L 470.667002 -161.098476 
L 470.613175 -160.641269 
L 470.558918 -160.184062 
L 470.50437 -159.726856 
L 470.449677 -159.269649 
L 470.394988 -158.812442 
L 470.340453 -158.355236 
L 470.286228 -157.898029 
L 470.232462 -157.440823 
L 470.179304 -156.983616 
L 470.126898 -156.526409 
L 470.075382 -156.069203 
L 470.024884 -155.611996 
L 469.975524 -155.15479 
L 469.92741 -154.697583 
L 469.880636 -154.240376 
L 469.835287 -153.78317 
L 469.791428 -153.325963 
L 469.749114 -152.868756 
L 469.708381 -152.41155 
L 469.669252 -151.954343 
L 469.631731 -151.497137 
L 469.59581 -151.03993 
L 469.561465 -150.582723 
L 469.528656 -150.125517 
L 469.497332 -149.66831 
L 469.467428 -149.211104 
L 469.438868 -148.753897 
L 469.411566 -148.29669 
L 469.385429 -147.839484 
L 469.360353 -147.382277 
L 469.336233 -146.92507 
L 469.312957 -146.467864 
L 469.290411 -146.010657 
L 469.268482 -145.553451 
L 469.247057 -145.096244 
L 469.226023 -144.639037 
L 469.205273 -144.181831 
L 469.184706 -143.724624 
L 469.164225 -143.267418 
L 469.143742 -142.810211 
z
" style="stroke: #999999; stroke-width: 2"/>
    </defs>
    <g clip-path="url(#p5f4dfce4b3)">
     <use xlink:href="#m2d199e0a26" x="0" y="255.11811" style="fill: #ffffff; stroke: #999999; stroke-width: 2"/>
    </g>
   </g>
   <g id="PathCollection_1"/>
   <g id="PathCollection_2"/>
   <g id="patch_3">
    <path d="M 47.22 213.89811 
L 47.22 24.32 
" style="fill: none; stroke: #262626; stroke-width: 1.25; stroke-linejoin: miter; stroke-linecap: square"/>
   </g>
   <g id="patch_4">
    <path d="M 47.22 213.89811 
L 500.51622 213.89811 
" style="fill: none; stroke: #262626; stroke-width: 1.25; stroke-linejoin: miter; stroke-linecap: square"/>
   </g>
   <g id="PathCollection_3">
    <defs>
     <path id="C0_0_16bba557ef" d="M 0 2.5 
C 0.663008 2.5 1.29895 2.236584 1.767767 1.767767 
C 2.236584 1.29895 2.5 0.663008 2.5 -0 
C 2.5 -0.663008 2.236584 -1.29895 1.767767 -1.767767 
C 1.29895 -2.236584 0.663008 -2.5 0 -2.5 
C -0.663008 -2.5 -1.29895 -2.236584 -1.767767 -1.767767 
C -2.236584 -1.29895 -2.5 -0.663008 -2.5 0 
C -2.5 0.663008 -2.236584 1.29895 -1.767767 1.767767 
C -1.29895 2.236584 -0.663008 2.5 0 2.5 
z
"/>
    </defs>
    <g clip-path="url(#p5f4dfce4b3)">
     <use xlink:href="#C0_0_16bba557ef" x="85.222667" y="165.644612" style="fill: #4c72b0; fill-opacity: 0.75"/>
    </g>
    <g clip-path="url(#p5f4dfce4b3)">
     <use xlink:href="#C0_0_16bba557ef" x="73.279516" y="154.163632" style="fill: #4c72b0; fill-opacity: 0.75"/>
    </g>
    <g clip-path="url(#p5f4dfce4b3)">
     <use xlink:href="#C0_0_16bba557ef" x="84.908116" y="159.214006" style="fill: #4c72b0; fill-opacity: 0.75"/>
    </g>
    <g clip-path="url(#p5f4dfce4b3)">
     <use xlink:href="#C0_0_16bba557ef" x="80.133893" y="158.185262" style="fill: #4c72b0; fill-opacity: 0.75"/>
    </g>
    <g clip-path="url(#p5f4dfce4b3)">
     <use xlink:href="#C0_0_16bba557ef" x="82.917132" y="145.366292" style="fill: #dd8452; fill-opacity: 0.75"/>
    </g>
    <g clip-path="url(#p5f4dfce4b3)">
     <use xlink:href="#C0_0_16bba557ef" x="76.230402" y="151.63175" style="fill: #dd8452; fill-opacity: 0.75"/>
    </g>
    <g clip-path="url(#p5f4dfce4b3)">
     <use xlink:href="#C0_0_16bba557ef" x="75.870364" y="148.034023" style="fill: #dd8452; fill-opacity: 0.75"/>
    </g>
    <g clip-path="url(#p5f4dfce4b3)">
     <use xlink:href="#C0_0_16bba557ef" x="76.885992" y="150.188841" style="fill: #dd8452; fill-opacity: 0.75"/>
    </g>
   </g>
   <g id="PathCollection_4">
    <defs>
     <path id="C1_0_2e67f7c586" d="M 0 2.5 
C 0.663008 2.5 1.29895 2.236584 1.767767 1.767767 
C 2.236584 1.29895 2.5 0.663008 2.5 -0 
C 2.5 -0.663008 2.236584 -1.29895 1.767767 -1.767767 
C 1.29895 -2.236584 0.663008 -2.5 0 -2.5 
C -0.663008 -2.5 -1.29895 -2.236584 -1.767767 -1.767767 
C -2.236584 -1.29895 -2.5 -0.663008 -2.5 0 
C -2.5 0.663008 -2.236584 1.29895 -1.767767 1.767767 
C -1.29895 2.236584 -0.663008 2.5 0 2.5 
z
"/>
    </defs>
    <g clip-path="url(#p5f4dfce4b3)">
     <use xlink:href="#C1_0_2e67f7c586" x="141.211016" y="198.879511" style="fill: #4c72b0; fill-opacity: 0.75"/>
    </g>
    <g clip-path="url(#p5f4dfce4b3)">
     <use xlink:href="#C1_0_2e67f7c586" x="148.510413" y="196.73585" style="fill: #4c72b0; fill-opacity: 0.75"/>
    </g>
    <g clip-path="url(#p5f4dfce4b3)">
     <use xlink:href="#C1_0_2e67f7c586" x="139.607638" y="196.852964" style="fill: #4c72b0; fill-opacity: 0.75"/>
    </g>
    <g clip-path="url(#p5f4dfce4b3)">
     <use xlink:href="#C1_0_2e67f7c586" x="140.764005" y="198.957673" style="fill: #4c72b0; fill-opacity: 0.75"/>
    </g>
    <g clip-path="url(#p5f4dfce4b3)">
     <use xlink:href="#C1_0_2e67f7c586" x="144.717219" y="196.327592" style="fill: #dd8452; fill-opacity: 0.75"/>
    </g>
    <g clip-path="url(#p5f4dfce4b3)">
     <use xlink:href="#C1_0_2e67f7c586" x="139.13162" y="199.65898" style="fill: #dd8452; fill-opacity: 0.75"/>
    </g>
    <g clip-path="url(#p5f4dfce4b3)">
     <use xlink:href="#C1_0_2e67f7c586" x="139.466178" y="201.904799" style="fill: #dd8452; fill-opacity: 0.75"/>
    </g>
    <g clip-path="url(#p5f4dfce4b3)">
     <use xlink:href="#C1_0_2e67f7c586" x="146.988669" y="200.155338" style="fill: #dd8452; fill-opacity: 0.75"/>
    </g>
   </g>
   <g id="PathCollection_5">
    <defs>
     <path id="C2_0_7ba875f4a8" d="M 0 2.5 
C 0.663008 2.5 1.29895 2.236584 1.767767 1.767767 
C 2.236584 1.29895 2.5 0.663008 2.5 -0 
C 2.5 -0.663008 2.236584 -1.29895 1.767767 -1.767767 
C 1.29895 -2.236584 0.663008 -2.5 0 -2.5 
C -0.663008 -2.5 -1.29895 -2.236584 -1.767767 -1.767767 
C -2.236584 -1.29895 -2.5 -0.663008 -2.5 0 
C -2.5 0.663008 -2.236584 1.29895 -1.767767 1.767767 
C -1.29895 2.236584 -0.663008 2.5 0 2.5 
z
"/>
    </defs>
    <g clip-path="url(#p5f4dfce4b3)">
     <use xlink:href="#C2_0_7ba875f4a8" x="209.80017" y="163.314461" style="fill: #4c72b0; fill-opacity: 0.75"/>
    </g>
    <g clip-path="url(#p5f4dfce4b3)">
     <use xlink:href="#C2_0_7ba875f4a8" x="211.568793" y="162.52241" style="fill: #4c72b0; fill-opacity: 0.75"/>
    </g>
    <g clip-path="url(#p5f4dfce4b3)">
     <use xlink:href="#C2_0_7ba875f4a8" x="205.276848" y="163.517703" style="fill: #4c72b0; fill-opacity: 0.75"/>
    </g>
    <g clip-path="url(#p5f4dfce4b3)">
     <use xlink:href="#C2_0_7ba875f4a8" x="214.85667" y="171.652413" style="fill: #4c72b0; fill-opacity: 0.75"/>
    </g>
    <g clip-path="url(#p5f4dfce4b3)">
     <use xlink:href="#C2_0_7ba875f4a8" x="207.186664" y="168.173646" style="fill: #dd8452; fill-opacity: 0.75"/>
    </g>
    <g clip-path="url(#p5f4dfce4b3)">
     <use xlink:href="#C2_0_7ba875f4a8" x="207.925092" y="165.694183" style="fill: #dd8452; fill-opacity: 0.75"/>
    </g>
    <g clip-path="url(#p5f4dfce4b3)">
     <use xlink:href="#C2_0_7ba875f4a8" x="214.36368" y="167.684948" style="fill: #dd8452; fill-opacity: 0.75"/>
    </g>
    <g clip-path="url(#p5f4dfce4b3)">
     <use xlink:href="#C2_0_7ba875f4a8" x="203.655285" y="155.491659" style="fill: #dd8452; fill-opacity: 0.75"/>
    </g>
   </g>
   <g id="PathCollection_6">
    <defs>
     <path id="C3_0_8e6aaa735c" d="M 0 2.5 
C 0.663008 2.5 1.29895 2.236584 1.767767 1.767767 
C 2.236584 1.29895 2.5 0.663008 2.5 -0 
C 2.5 -0.663008 2.236584 -1.29895 1.767767 -1.767767 
C 1.29895 -2.236584 0.663008 -2.5 0 -2.5 
C -0.663008 -2.5 -1.29895 -2.236584 -1.767767 -1.767767 
C -2.236584 -1.29895 -2.5 -0.663008 -2.5 0 
C -2.5 0.663008 -2.236584 1.29895 -1.767767 1.767767 
C -1.29895 2.236584 -0.663008 2.5 0 2.5 
z
"/>
    </defs>
    <g clip-path="url(#p5f4dfce4b3)">
     <use xlink:href="#C3_0_8e6aaa735c" x="278.692282" y="172.466492" style="fill: #4c72b0; fill-opacity: 0.75"/>
    </g>
    <g clip-path="url(#p5f4dfce4b3)">
     <use xlink:href="#C3_0_8e6aaa735c" x="276.128213" y="169.850845" style="fill: #4c72b0; fill-opacity: 0.75"/>
    </g>
    <g clip-path="url(#p5f4dfce4b3)">
     <use xlink:href="#C3_0_8e6aaa735c" x="267.811161" y="190.385366" style="fill: #4c72b0; fill-opacity: 0.75"/>
    </g>
    <g clip-path="url(#p5f4dfce4b3)">
     <use xlink:href="#C3_0_8e6aaa735c" x="276.958732" y="122.487939" style="fill: #4c72b0; fill-opacity: 0.75"/>
    </g>
    <g clip-path="url(#p5f4dfce4b3)">
     <use xlink:href="#C3_0_8e6aaa735c" x="276.979787" y="182.321156" style="fill: #4c72b0; fill-opacity: 0.75"/>
    </g>
    <g clip-path="url(#p5f4dfce4b3)">
     <use xlink:href="#C3_0_8e6aaa735c" x="276.742058" y="120.002082" style="fill: #dd8452; fill-opacity: 0.75"/>
    </g>
    <g clip-path="url(#p5f4dfce4b3)">
     <use xlink:href="#C3_0_8e6aaa735c" x="277.197293" y="129.15664" style="fill: #dd8452; fill-opacity: 0.75"/>
    </g>
    <g clip-path="url(#p5f4dfce4b3)">
     <use xlink:href="#C3_0_8e6aaa735c" x="269.004732" y="119.650778" style="fill: #dd8452; fill-opacity: 0.75"/>
    </g>
    <g clip-path="url(#p5f4dfce4b3)">
     <use xlink:href="#C3_0_8e6aaa735c" x="279.017726" y="112.245417" style="fill: #dd8452; fill-opacity: 0.75"/>
    </g>
    <g clip-path="url(#p5f4dfce4b3)">
     <use xlink:href="#C3_0_8e6aaa735c" x="279.418636" y="32.937187" style="fill: #dd8452; fill-opacity: 0.75"/>
    </g>
   </g>
   <g id="PathCollection_7">
    <defs>
     <path id="C4_0_47023ce14f" d="M 0 2.5 
C 0.663008 2.5 1.29895 2.236584 1.767767 1.767767 
C 2.236584 1.29895 2.5 0.663008 2.5 -0 
C 2.5 -0.663008 2.236584 -1.29895 1.767767 -1.767767 
C 1.29895 -2.236584 0.663008 -2.5 0 -2.5 
C -0.663008 -2.5 -1.29895 -2.236584 -1.767767 -1.767767 
C -2.236584 -1.29895 -2.5 -0.663008 -2.5 0 
C -2.5 0.663008 -2.236584 1.29895 -1.767767 1.767767 
C -1.29895 2.236584 -0.663008 2.5 0 2.5 
z
"/>
    </defs>
    <g clip-path="url(#p5f4dfce4b3)">
     <use xlink:href="#C4_0_47023ce14f" x="335.29557" y="113.130112" style="fill: #4c72b0; fill-opacity: 0.75"/>
    </g>
    <g clip-path="url(#p5f4dfce4b3)">
     <use xlink:href="#C4_0_47023ce14f" x="334.228734" y="112.54125" style="fill: #4c72b0; fill-opacity: 0.75"/>
    </g>
    <g clip-path="url(#p5f4dfce4b3)">
     <use xlink:href="#C4_0_47023ce14f" x="337.744826" y="85.974704" style="fill: #4c72b0; fill-opacity: 0.75"/>
    </g>
    <g clip-path="url(#p5f4dfce4b3)">
     <use xlink:href="#C4_0_47023ce14f" x="332.711416" y="98.306545" style="fill: #dd8452; fill-opacity: 0.75"/>
    </g>
    <g clip-path="url(#p5f4dfce4b3)">
     <use xlink:href="#C4_0_47023ce14f" x="344.464655" y="97.500438" style="fill: #dd8452; fill-opacity: 0.75"/>
    </g>
    <g clip-path="url(#p5f4dfce4b3)">
     <use xlink:href="#C4_0_47023ce14f" x="338.002247" y="90.074137" style="fill: #dd8452; fill-opacity: 0.75"/>
    </g>
   </g>
   <g id="PathCollection_8">
    <defs>
     <path id="C5_0_3f8b3dba70" d="M 0 2.5 
C 0.663008 2.5 1.29895 2.236584 1.767767 1.767767 
C 2.236584 1.29895 2.5 0.663008 2.5 -0 
C 2.5 -0.663008 2.236584 -1.29895 1.767767 -1.767767 
C 1.29895 -2.236584 0.663008 -2.5 0 -2.5 
C -0.663008 -2.5 -1.29895 -2.236584 -1.767767 -1.767767 
C -2.236584 -1.29895 -2.5 -0.663008 -2.5 0 
C -2.5 0.663008 -2.236584 1.29895 -1.767767 1.767767 
C -1.29895 2.236584 -0.663008 2.5 0 2.5 
z
"/>
    </defs>
    <g clip-path="url(#p5f4dfce4b3)">
     <use xlink:href="#C5_0_3f8b3dba70" x="406.484074" y="197.649446" style="fill: #4c72b0; fill-opacity: 0.75"/>
    </g>
    <g clip-path="url(#p5f4dfce4b3)">
     <use xlink:href="#C5_0_3f8b3dba70" x="401.09155" y="195.254908" style="fill: #4c72b0; fill-opacity: 0.75"/>
    </g>
    <g clip-path="url(#p5f4dfce4b3)">
     <use xlink:href="#C5_0_3f8b3dba70" x="406.280714" y="197.878202" style="fill: #4c72b0; fill-opacity: 0.75"/>
    </g>
    <g clip-path="url(#p5f4dfce4b3)">
     <use xlink:href="#C5_0_3f8b3dba70" x="407.684177" y="194.921611" style="fill: #4c72b0; fill-opacity: 0.75"/>
    </g>
    <g clip-path="url(#p5f4dfce4b3)">
     <use xlink:href="#C5_0_3f8b3dba70" x="409.155649" y="201.801195" style="fill: #dd8452; fill-opacity: 0.75"/>
    </g>
    <g clip-path="url(#p5f4dfce4b3)">
     <use xlink:href="#C5_0_3f8b3dba70" x="406.469692" y="205.280923" style="fill: #dd8452; fill-opacity: 0.75"/>
    </g>
    <g clip-path="url(#p5f4dfce4b3)">
     <use xlink:href="#C5_0_3f8b3dba70" x="399.71619" y="205.279145" style="fill: #dd8452; fill-opacity: 0.75"/>
    </g>
    <g clip-path="url(#p5f4dfce4b3)">
     <use xlink:href="#C5_0_3f8b3dba70" x="407.091565" y="204.932502" style="fill: #dd8452; fill-opacity: 0.75"/>
    </g>
   </g>
   <g id="PathCollection_9">
    <defs>
     <path id="C6_0_2b15faece9" d="M 0 2.5 
C 0.663008 2.5 1.29895 2.236584 1.767767 1.767767 
C 2.236584 1.29895 2.5 0.663008 2.5 -0 
C 2.5 -0.663008 2.236584 -1.29895 1.767767 -1.767767 
C 1.29895 -2.236584 0.663008 -2.5 0 -2.5 
C -0.663008 -2.5 -1.29895 -2.236584 -1.767767 -1.767767 
C -2.236584 -1.29895 -2.5 -0.663008 -2.5 0 
C -2.5 0.663008 -2.236584 1.29895 -1.767767 1.767767 
C -1.29895 2.236584 -0.663008 2.5 0 2.5 
z
"/>
    </defs>
    <g clip-path="url(#p5f4dfce4b3)">
     <use xlink:href="#C6_0_2b15faece9" x="466.351113" y="73.46488" style="fill: #4c72b0; fill-opacity: 0.75"/>
    </g>
    <g clip-path="url(#p5f4dfce4b3)">
     <use xlink:href="#C6_0_2b15faece9" x="465.483603" y="70.278186" style="fill: #4c72b0; fill-opacity: 0.75"/>
    </g>
    <g clip-path="url(#p5f4dfce4b3)">
     <use xlink:href="#C6_0_2b15faece9" x="465.303312" y="74.605648" style="fill: #4c72b0; fill-opacity: 0.75"/>
    </g>
    <g clip-path="url(#p5f4dfce4b3)">
     <use xlink:href="#C6_0_2b15faece9" x="470.902744" y="67.044444" style="fill: #4c72b0; fill-opacity: 0.75"/>
    </g>
    <g clip-path="url(#p5f4dfce4b3)">
     <use xlink:href="#C6_0_2b15faece9" x="469.654106" y="90.187241" style="fill: #dd8452; fill-opacity: 0.75"/>
    </g>
    <g clip-path="url(#p5f4dfce4b3)">
     <use xlink:href="#C6_0_2b15faece9" x="464.086628" y="112.307899" style="fill: #dd8452; fill-opacity: 0.75"/>
    </g>
    <g clip-path="url(#p5f4dfce4b3)">
     <use xlink:href="#C6_0_2b15faece9" x="465.124568" y="92.828632" style="fill: #dd8452; fill-opacity: 0.75"/>
    </g>
    <g clip-path="url(#p5f4dfce4b3)">
     <use xlink:href="#C6_0_2b15faece9" x="462.977868" y="85.927398" style="fill: #dd8452; fill-opacity: 0.75"/>
    </g>
   </g>
   <g id="text_14">
    <!-- CELSR1, $p_{adj}$ &lt; .001 *** -->
    <g style="fill: #262626" transform="translate(47.22 18.32)scale(0.09 -0.09)">
     <defs>
      <path id="ArialMT-43" d="M 3763 1606 
L 4369 1453 
Q 4178 706 3683 314 
Q 3188 -78 2472 -78 
Q 1731 -78 1267 223 
Q 803 525 561 1097 
Q 319 1669 319 2325 
Q 319 3041 592 3573 
Q 866 4106 1370 4382 
Q 1875 4659 2481 4659 
Q 3169 4659 3637 4309 
Q 4106 3959 4291 3325 
L 3694 3184 
Q 3534 3684 3231 3912 
Q 2928 4141 2469 4141 
Q 1941 4141 1586 3887 
Q 1231 3634 1087 3207 
Q 944 2781 944 2328 
Q 944 1744 1114 1308 
Q 1284 872 1643 656 
Q 2003 441 2422 441 
Q 2931 441 3284 734 
Q 3638 1028 3763 1606 
z
" transform="scale(0.015625)"/>
      <path id="ArialMT-45" d="M 506 0 
L 506 4581 
L 3819 4581 
L 3819 4041 
L 1113 4041 
L 1113 2638 
L 3647 2638 
L 3647 2100 
L 1113 2100 
L 1113 541 
L 3925 541 
L 3925 0 
L 506 0 
z
" transform="scale(0.015625)"/>
      <path id="ArialMT-4c" d="M 469 0 
L 469 4581 
L 1075 4581 
L 1075 541 
L 3331 541 
L 3331 0 
L 469 0 
z
" transform="scale(0.015625)"/>
      <path id="ArialMT-53" d="M 288 1472 
L 859 1522 
Q 900 1178 1048 958 
Q 1197 738 1509 602 
Q 1822 466 2213 466 
Q 2559 466 2825 569 
Q 3091 672 3220 851 
Q 3350 1031 3350 1244 
Q 3350 1459 3225 1620 
Q 3100 1781 2813 1891 
Q 2628 1963 1997 2114 
Q 1366 2266 1113 2400 
Q 784 2572 623 2826 
Q 463 3081 463 3397 
Q 463 3744 659 4045 
Q 856 4347 1234 4503 
Q 1613 4659 2075 4659 
Q 2584 4659 2973 4495 
Q 3363 4331 3572 4012 
Q 3781 3694 3797 3291 
L 3216 3247 
Q 3169 3681 2898 3903 
Q 2628 4125 2100 4125 
Q 1550 4125 1298 3923 
Q 1047 3722 1047 3438 
Q 1047 3191 1225 3031 
Q 1400 2872 2139 2705 
Q 2878 2538 3153 2413 
Q 3553 2228 3743 1945 
Q 3934 1663 3934 1294 
Q 3934 928 3725 604 
Q 3516 281 3123 101 
Q 2731 -78 2241 -78 
Q 1619 -78 1198 103 
Q 778 284 539 648 
Q 300 1013 288 1472 
z
" transform="scale(0.015625)"/>
      <path id="ArialMT-52" d="M 503 0 
L 503 4581 
L 2534 4581 
Q 3147 4581 3465 4457 
Q 3784 4334 3975 4021 
Q 4166 3709 4166 3331 
Q 4166 2844 3850 2509 
Q 3534 2175 2875 2084 
Q 3116 1969 3241 1856 
Q 3506 1613 3744 1247 
L 4541 0 
L 3778 0 
L 3172 953 
Q 2906 1366 2734 1584 
Q 2563 1803 2427 1890 
Q 2291 1978 2150 2013 
Q 2047 2034 1813 2034 
L 1109 2034 
L 1109 0 
L 503 0 
z
M 1109 2559 
L 2413 2559 
Q 2828 2559 3062 2645 
Q 3297 2731 3419 2920 
Q 3541 3109 3541 3331 
Q 3541 3656 3305 3865 
Q 3069 4075 2559 4075 
L 1109 4075 
L 1109 2559 
z
" transform="scale(0.015625)"/>
      <path id="ArialMT-2c" d="M 569 0 
L 569 641 
L 1209 641 
L 1209 0 
Q 1209 -353 1084 -570 
Q 959 -788 688 -906 
L 531 -666 
Q 709 -588 793 -436 
Q 878 -284 888 0 
L 569 0 
z
" transform="scale(0.015625)"/>
      <path id="DejaVuSans-Oblique-70" d="M 3175 2156 
Q 3175 2616 2975 2859 
Q 2775 3103 2400 3103 
Q 2144 3103 1911 2972 
Q 1678 2841 1497 2591 
Q 1319 2344 1212 1994 
Q 1106 1644 1106 1300 
Q 1106 863 1306 627 
Q 1506 391 1875 391 
Q 2147 391 2380 519 
Q 2613 647 2778 891 
Q 2956 1147 3065 1494 
Q 3175 1841 3175 2156 
z
M 1394 2969 
Q 1625 3272 1939 3428 
Q 2253 3584 2638 3584 
Q 3175 3584 3472 3232 
Q 3769 2881 3769 2247 
Q 3769 1728 3584 1258 
Q 3400 788 3053 416 
Q 2822 169 2531 39 
Q 2241 -91 1919 -91 
Q 1547 -91 1294 64 
Q 1041 219 916 525 
L 556 -1331 
L -19 -1331 
L 922 3500 
L 1497 3500 
L 1394 2969 
z
" transform="scale(0.015625)"/>
      <path id="DejaVuSans-Oblique-61" d="M 3438 1997 
L 3047 0 
L 2472 0 
L 2578 531 
Q 2325 219 2001 64 
Q 1678 -91 1281 -91 
Q 834 -91 548 182 
Q 263 456 263 884 
Q 263 1497 752 1853 
Q 1241 2209 2100 2209 
L 2900 2209 
L 2931 2363 
Q 2938 2388 2941 2417 
Q 2944 2447 2944 2509 
Q 2944 2788 2717 2942 
Q 2491 3097 2081 3097 
Q 1800 3097 1504 3025 
Q 1209 2953 897 2809 
L 997 3341 
Q 1322 3463 1633 3523 
Q 1944 3584 2234 3584 
Q 2853 3584 3176 3315 
Q 3500 3047 3500 2534 
Q 3500 2431 3484 2292 
Q 3469 2153 3438 1997 
z
M 2816 1759 
L 2241 1759 
Q 1534 1759 1195 1570 
Q 856 1381 856 984 
Q 856 709 1029 553 
Q 1203 397 1509 397 
Q 1978 397 2328 733 
Q 2678 1069 2791 1631 
L 2816 1759 
z
" transform="scale(0.015625)"/>
      <path id="DejaVuSans-Oblique-64" d="M 2675 525 
Q 2444 222 2128 65 
Q 1813 -91 1428 -91 
Q 903 -91 598 267 
Q 294 625 294 1247 
Q 294 1766 478 2236 
Q 663 2706 1013 3078 
Q 1244 3325 1534 3454 
Q 1825 3584 2144 3584 
Q 2481 3584 2739 3421 
Q 2997 3259 3138 2956 
L 3513 4863 
L 4091 4863 
L 3144 0 
L 2566 0 
L 2675 525 
z
M 891 1350 
Q 891 897 1095 644 
Q 1300 391 1663 391 
Q 1931 391 2161 520 
Q 2391 650 2566 903 
Q 2750 1166 2856 1509 
Q 2963 1853 2963 2188 
Q 2963 2622 2758 2865 
Q 2553 3109 2194 3109 
Q 1922 3109 1687 2981 
Q 1453 2853 1288 2613 
Q 1106 2353 998 2009 
Q 891 1666 891 1350 
z
" transform="scale(0.015625)"/>
      <path id="DejaVuSans-Oblique-6a" d="M 928 3500 
L 1503 3500 
L 813 -63 
L 809 -78 
Q 694 -675 544 -897 
Q 403 -1106 132 -1218 
Q -138 -1331 -506 -1331 
L -722 -1331 
L -628 -844 
L -481 -844 
Q -144 -844 -1 -703 
Q 141 -563 238 -63 
L 928 3500 
z
M 1197 4863 
L 1772 4863 
L 1631 4134 
L 1056 4134 
L 1197 4863 
z
" transform="scale(0.015625)"/>
      <path id="ArialMT-3c" d="M 350 2003 
L 350 2528 
L 3384 3809 
L 3384 3250 
L 978 2263 
L 3384 1266 
L 3384 706 
L 350 2003 
z
" transform="scale(0.015625)"/>
      <path id="ArialMT-2e" d="M 581 0 
L 581 641 
L 1222 641 
L 1222 0 
L 581 0 
z
" transform="scale(0.015625)"/>
      <path id="ArialMT-2a" d="M 200 3741 
L 344 4184 
Q 841 4009 1066 3881 
Q 1006 4447 1003 4659 
L 1456 4659 
Q 1447 4350 1384 3884 
Q 1706 4047 2122 4184 
L 2266 3741 
Q 1869 3609 1488 3566 
Q 1678 3400 2025 2975 
L 1650 2709 
Q 1469 2956 1222 3381 
Q 991 2941 816 2709 
L 447 2975 
Q 809 3422 966 3566 
Q 563 3644 200 3741 
z
" transform="scale(0.015625)"/>
     </defs>
     <use xlink:href="#ArialMT-43" transform="translate(0 0.203125)"/>
     <use xlink:href="#ArialMT-45" transform="translate(72.216797 0.203125)"/>
     <use xlink:href="#ArialMT-4c" transform="translate(138.916016 0.203125)"/>
     <use xlink:href="#ArialMT-53" transform="translate(194.53125 0.203125)"/>
     <use xlink:href="#ArialMT-52" transform="translate(261.230469 0.203125)"/>
     <use xlink:href="#ArialMT-31" transform="translate(333.447266 0.203125)"/>
     <use xlink:href="#ArialMT-2c" transform="translate(389.0625 0.203125)"/>
     <use xlink:href="#ArialMT-20" transform="translate(416.845703 0.203125)"/>
     <use xlink:href="#DejaVuSans-Oblique-70" transform="translate(444.628906 0.203125)"/>
     <use xlink:href="#DejaVuSans-Oblique-61" transform="translate(508.105469 -16.203125)scale(0.7)"/>
     <use xlink:href="#DejaVuSans-Oblique-64" transform="translate(551.000977 -16.203125)scale(0.7)"/>
     <use xlink:href="#DejaVuSans-Oblique-6a" transform="translate(595.43457 -16.203125)scale(0.7)"/>
     <use xlink:href="#ArialMT-20" transform="translate(617.617188 0.203125)"/>
     <use xlink:href="#ArialMT-3c" transform="translate(645.400391 0.203125)"/>
     <use xlink:href="#ArialMT-20" transform="translate(703.798828 0.203125)"/>
     <use xlink:href="#ArialMT-2e" transform="translate(731.582031 0.203125)"/>
     <use xlink:href="#ArialMT-30" transform="translate(759.365234 0.203125)"/>
     <use xlink:href="#ArialMT-30" transform="translate(814.980469 0.203125)"/>
     <use xlink:href="#ArialMT-31" transform="translate(870.595703 0.203125)"/>
     <use xlink:href="#ArialMT-20" transform="translate(926.210938 0.203125)"/>
     <use xlink:href="#ArialMT-2a" transform="translate(953.994141 0.203125)"/>
     <use xlink:href="#ArialMT-2a" transform="translate(992.910156 0.203125)"/>
     <use xlink:href="#ArialMT-2a" transform="translate(1031.826172 0.203125)"/>
    </g>
   </g>
   <g id="legend_1">
    <g id="patch_5">
     <path d="M 53.52 69.712344 
L 105.82125 69.712344 
Q 107.62125 69.712344 107.62125 67.912344 
L 107.62125 30.62 
Q 107.62125 28.82 105.82125 28.82 
L 53.52 28.82 
Q 51.72 28.82 51.72 30.62 
L 51.72 67.912344 
Q 51.72 69.712344 53.52 69.712344 
z
" style="fill: #ffffff; opacity: 0.8; stroke: #cccccc; stroke-linejoin: miter"/>
    </g>
    <g id="text_15">
     <!-- Treatment -->
     <g style="fill: #262626" transform="translate(59.334141 38.862031)scale(0.09 -0.09)">
      <use xlink:href="#ArialMT-54"/>
      <use xlink:href="#ArialMT-72" x="57.333984"/>
      <use xlink:href="#ArialMT-65" x="90.634766"/>
      <use xlink:href="#ArialMT-61" x="146.25"/>
      <use xlink:href="#ArialMT-74" x="201.865234"/>
      <use xlink:href="#ArialMT-6d" x="229.648438"/>
      <use xlink:href="#ArialMT-65" x="312.949219"/>
      <use xlink:href="#ArialMT-6e" x="368.564453"/>
      <use xlink:href="#ArialMT-74" x="424.179688"/>
     </g>
    </g>
    <g id="PathCollection_10">
     <defs>
      <path id="m3660b67076" d="M 0 3.872983 
C 1.027127 3.872983 2.012324 3.464901 2.738613 2.738613 
C 3.464901 2.012324 3.872983 1.027127 3.872983 0 
C 3.872983 -1.027127 3.464901 -2.012324 2.738613 -2.738613 
C 2.012324 -3.464901 1.027127 -3.872983 0 -3.872983 
C -1.027127 -3.872983 -2.012324 -3.464901 -2.738613 -2.738613 
C -3.464901 -2.012324 -3.872983 -1.027127 -3.872983 0 
C -3.872983 1.027127 -3.464901 2.012324 -2.738613 2.738613 
C -2.012324 3.464901 -1.027127 3.872983 0 3.872983 
z
" style="stroke: #4c72b0"/>
     </defs>
     <g>
      <use xlink:href="#m3660b67076" x="64.32" y="49.230313" style="fill: #4c72b0; stroke: #4c72b0"/>
     </g>
    </g>
    <g id="text_16">
     <!-- BEVA -->
     <g style="fill: #262626" transform="translate(80.52 51.592813)scale(0.09 -0.09)">
      <defs>
       <path id="ArialMT-42" d="M 469 0 
L 469 4581 
L 2188 4581 
Q 2713 4581 3030 4442 
Q 3347 4303 3526 4014 
Q 3706 3725 3706 3409 
Q 3706 3116 3547 2856 
Q 3388 2597 3066 2438 
Q 3481 2316 3704 2022 
Q 3928 1728 3928 1328 
Q 3928 1006 3792 729 
Q 3656 453 3456 303 
Q 3256 153 2954 76 
Q 2653 0 2216 0 
L 469 0 
z
M 1075 2656 
L 2066 2656 
Q 2469 2656 2644 2709 
Q 2875 2778 2992 2937 
Q 3109 3097 3109 3338 
Q 3109 3566 3000 3739 
Q 2891 3913 2687 3977 
Q 2484 4041 1991 4041 
L 1075 4041 
L 1075 2656 
z
M 1075 541 
L 2216 541 
Q 2509 541 2628 563 
Q 2838 600 2978 687 
Q 3119 775 3209 942 
Q 3300 1109 3300 1328 
Q 3300 1584 3169 1773 
Q 3038 1963 2805 2039 
Q 2572 2116 2134 2116 
L 1075 2116 
L 1075 541 
z
" transform="scale(0.015625)"/>
       <path id="ArialMT-56" d="M 1803 0 
L 28 4581 
L 684 4581 
L 1875 1253 
Q 2019 853 2116 503 
Q 2222 878 2363 1253 
L 3600 4581 
L 4219 4581 
L 2425 0 
L 1803 0 
z
" transform="scale(0.015625)"/>
       <path id="ArialMT-41" d="M -9 0 
L 1750 4581 
L 2403 4581 
L 4278 0 
L 3588 0 
L 3053 1388 
L 1138 1388 
L 634 0 
L -9 0 
z
M 1313 1881 
L 2866 1881 
L 2388 3150 
Q 2169 3728 2063 4100 
Q 1975 3659 1816 3225 
L 1313 1881 
z
" transform="scale(0.015625)"/>
      </defs>
      <use xlink:href="#ArialMT-42"/>
      <use xlink:href="#ArialMT-45" x="66.699219"/>
      <use xlink:href="#ArialMT-56" x="133.398438"/>
      <use xlink:href="#ArialMT-41" x="192.722656"/>
     </g>
    </g>
    <g id="PathCollection_11">
     <defs>
      <path id="mb60234e2b4" d="M 0 3.872983 
C 1.027127 3.872983 2.012324 3.464901 2.738613 2.738613 
C 3.464901 2.012324 3.872983 1.027127 3.872983 0 
C 3.872983 -1.027127 3.464901 -2.012324 2.738613 -2.738613 
C 2.012324 -3.464901 1.027127 -3.872983 0 -3.872983 
C -1.027127 -3.872983 -2.012324 -3.464901 -2.738613 -2.738613 
C -3.464901 -2.012324 -3.872983 -1.027127 -3.872983 0 
C -3.872983 1.027127 -3.464901 2.012324 -2.738613 2.738613 
C -2.012324 3.464901 -1.027127 3.872983 0 3.872983 
z
" style="stroke: #dd8452"/>
     </defs>
     <g>
      <use xlink:href="#mb60234e2b4" x="64.32" y="61.961094" style="fill: #dd8452; stroke: #dd8452"/>
     </g>
    </g>
    <g id="text_17">
     <!-- CTRL -->
     <g style="fill: #262626" transform="translate(80.52 64.323594)scale(0.09 -0.09)">
      <use xlink:href="#ArialMT-43"/>
      <use xlink:href="#ArialMT-54" x="72.216797"/>
      <use xlink:href="#ArialMT-52" x="133.300781"/>
      <use xlink:href="#ArialMT-4c" x="205.517578"/>
     </g>
    </g>
   </g>
  </g>
 </g>
 <defs>
  <clipPath id="p5f4dfce4b3">
   <rect x="47.22" y="24.32" width="453.29622" height="189.57811"/>
  </clipPath>
 </defs>
</svg>
