<?xml version="1.0" encoding="utf-8" standalone="no"?>
<!DOCTYPE svg PUBLIC "-//W3C//DTD SVG 1.1//EN"
  "http://www.w3.org/Graphics/SVG/1.1/DTD/svg11.dtd">
<svg xmlns:xlink="http://www.w3.org/1999/xlink" width="510.23622pt" height="255.11811pt" viewBox="0 0 510.23622 255.11811" xmlns="http://www.w3.org/2000/svg" version="1.1">
 <metadata>
  <rdf:RDF xmlns:dc="http://purl.org/dc/elements/1.1/" xmlns:cc="http://creativecommons.org/ns#" xmlns:rdf="http://www.w3.org/1999/02/22-rdf-syntax-ns#">
   <cc:Work>
    <dc:type rdf:resource="http://purl.org/dc/dcmitype/StillImage"/>
    <dc:date>2022-04-27T00:12:28.137442</dc:date>
    <dc:format>image/svg+xml</dc:format>
    <dc:creator>
     <cc:Agent>
      <dc:title>Matplotlib v3.5.1, https://matplotlib.org/</dc:title>
     </cc:Agent>
    </dc:creator>
   </cc:Work>
  </rdf:RDF>
 </metadata>
 <defs>
  <style type="text/css">*{stroke-linejoin: round; stroke-linecap: butt}</style>
 </defs>
 <g id="figure_1">
  <g id="patch_1">
   <path d="M 0 255.11811 
L 510.23622 255.11811 
L 510.23622 0 
L 0 0 
z
" style="fill: #ffffff"/>
  </g>
  <g id="axes_1">
   <g id="patch_2">
    <path d="M 47.22 213.89811 
L 500.51622 213.89811 
L 500.51622 24.32 
L 47.22 24.32 
z
" style="fill: #ffffff"/>
   </g>
   <g id="matplotlib.axis_1">
    <g id="xtick_1">
     <g id="text_1">
      <!-- 49 -->
      <g style="fill: #444444" transform="translate(74.593458 229.840141)scale(0.09 -0.09)">
       <defs>
        <path id="ArialMT-34" d="M 2069 0 
L 2069 1097 
L 81 1097 
L 81 1613 
L 2172 4581 
L 2631 4581 
L 2631 1613 
L 3250 1613 
L 3250 1097 
L 2631 1097 
L 2631 0 
L 2069 0 
z
M 2069 1613 
L 2069 3678 
L 634 1613 
L 2069 1613 
z
" transform="scale(0.015625)"/>
        <path id="ArialMT-39" d="M 350 1059 
L 891 1109 
Q 959 728 1153 556 
Q 1347 384 1650 384 
Q 1909 384 2104 503 
Q 2300 622 2425 820 
Q 2550 1019 2634 1356 
Q 2719 1694 2719 2044 
Q 2719 2081 2716 2156 
Q 2547 1888 2255 1720 
Q 1963 1553 1622 1553 
Q 1053 1553 659 1965 
Q 266 2378 266 3053 
Q 266 3750 677 4175 
Q 1088 4600 1706 4600 
Q 2153 4600 2523 4359 
Q 2894 4119 3086 3673 
Q 3278 3228 3278 2384 
Q 3278 1506 3087 986 
Q 2897 466 2520 194 
Q 2144 -78 1638 -78 
Q 1100 -78 759 220 
Q 419 519 350 1059 
z
M 2653 3081 
Q 2653 3566 2395 3850 
Q 2138 4134 1775 4134 
Q 1400 4134 1122 3828 
Q 844 3522 844 3034 
Q 844 2597 1108 2323 
Q 1372 2050 1759 2050 
Q 2150 2050 2401 2323 
Q 2653 2597 2653 3081 
z
" transform="scale(0.015625)"/>
       </defs>
       <use xlink:href="#ArialMT-34"/>
       <use xlink:href="#ArialMT-39" x="55.615234"/>
      </g>
     </g>
    </g>
    <g id="xtick_2">
     <g id="text_2">
      <!-- 17 -->
      <g style="fill: #444444" transform="translate(139.350061 229.840141)scale(0.09 -0.09)">
       <defs>
        <path id="ArialMT-31" d="M 2384 0 
L 1822 0 
L 1822 3584 
Q 1619 3391 1289 3197 
Q 959 3003 697 2906 
L 697 3450 
Q 1169 3672 1522 3987 
Q 1875 4303 2022 4600 
L 2384 4600 
L 2384 0 
z
" transform="scale(0.015625)"/>
        <path id="ArialMT-37" d="M 303 3981 
L 303 4522 
L 3269 4522 
L 3269 4084 
Q 2831 3619 2401 2847 
Q 1972 2075 1738 1259 
Q 1569 684 1522 0 
L 944 0 
Q 953 541 1156 1306 
Q 1359 2072 1739 2783 
Q 2119 3494 2547 3981 
L 303 3981 
z
" transform="scale(0.015625)"/>
       </defs>
       <use xlink:href="#ArialMT-31"/>
       <use xlink:href="#ArialMT-37" x="55.615234"/>
      </g>
     </g>
    </g>
    <g id="xtick_3">
     <g id="text_3">
      <!-- 69 -->
      <g style="fill: #444444" transform="translate(204.106664 229.840141)scale(0.09 -0.09)">
       <defs>
        <path id="ArialMT-36" d="M 3184 3459 
L 2625 3416 
Q 2550 3747 2413 3897 
Q 2184 4138 1850 4138 
Q 1581 4138 1378 3988 
Q 1113 3794 959 3422 
Q 806 3050 800 2363 
Q 1003 2672 1297 2822 
Q 1591 2972 1913 2972 
Q 2475 2972 2870 2558 
Q 3266 2144 3266 1488 
Q 3266 1056 3080 686 
Q 2894 316 2569 119 
Q 2244 -78 1831 -78 
Q 1128 -78 684 439 
Q 241 956 241 2144 
Q 241 3472 731 4075 
Q 1159 4600 1884 4600 
Q 2425 4600 2770 4297 
Q 3116 3994 3184 3459 
z
M 888 1484 
Q 888 1194 1011 928 
Q 1134 663 1356 523 
Q 1578 384 1822 384 
Q 2178 384 2434 671 
Q 2691 959 2691 1453 
Q 2691 1928 2437 2201 
Q 2184 2475 1800 2475 
Q 1419 2475 1153 2201 
Q 888 1928 888 1484 
z
" transform="scale(0.015625)"/>
       </defs>
       <use xlink:href="#ArialMT-36"/>
       <use xlink:href="#ArialMT-39" x="55.615234"/>
      </g>
     </g>
    </g>
    <g id="xtick_4">
     <g id="text_4">
      <!-- 15 -->
      <g style="fill: #444444" transform="translate(268.863266 229.840141)scale(0.09 -0.09)">
       <defs>
        <path id="ArialMT-35" d="M 266 1200 
L 856 1250 
Q 922 819 1161 601 
Q 1400 384 1738 384 
Q 2144 384 2425 690 
Q 2706 997 2706 1503 
Q 2706 1984 2436 2262 
Q 2166 2541 1728 2541 
Q 1456 2541 1237 2417 
Q 1019 2294 894 2097 
L 366 2166 
L 809 4519 
L 3088 4519 
L 3088 3981 
L 1259 3981 
L 1013 2750 
Q 1425 3038 1878 3038 
Q 2478 3038 2890 2622 
Q 3303 2206 3303 1553 
Q 3303 931 2941 478 
Q 2500 -78 1738 -78 
Q 1113 -78 717 272 
Q 322 622 266 1200 
z
" transform="scale(0.015625)"/>
       </defs>
       <use xlink:href="#ArialMT-31"/>
       <use xlink:href="#ArialMT-35" x="55.615234"/>
      </g>
     </g>
    </g>
    <g id="xtick_5">
     <g id="text_5">
      <!-- 5 -->
      <g style="fill: #444444" transform="translate(336.122291 229.840141)scale(0.09 -0.09)">
       <use xlink:href="#ArialMT-35"/>
      </g>
     </g>
    </g>
    <g id="xtick_6">
     <g id="text_6">
      <!-- 126 -->
      <g style="fill: #444444" transform="translate(395.87405 229.840141)scale(0.09 -0.09)">
       <defs>
        <path id="ArialMT-32" d="M 3222 541 
L 3222 0 
L 194 0 
Q 188 203 259 391 
Q 375 700 629 1000 
Q 884 1300 1366 1694 
Q 2113 2306 2375 2664 
Q 2638 3022 2638 3341 
Q 2638 3675 2398 3904 
Q 2159 4134 1775 4134 
Q 1369 4134 1125 3890 
Q 881 3647 878 3216 
L 300 3275 
Q 359 3922 746 4261 
Q 1134 4600 1788 4600 
Q 2447 4600 2831 4234 
Q 3216 3869 3216 3328 
Q 3216 3053 3103 2787 
Q 2991 2522 2730 2228 
Q 2469 1934 1863 1422 
Q 1356 997 1212 845 
Q 1069 694 975 541 
L 3222 541 
z
" transform="scale(0.015625)"/>
       </defs>
       <use xlink:href="#ArialMT-31"/>
       <use xlink:href="#ArialMT-32" x="55.615234"/>
       <use xlink:href="#ArialMT-36" x="111.230469"/>
      </g>
     </g>
    </g>
    <g id="xtick_7">
     <g id="text_7">
      <!-- 62 -->
      <g style="fill: #444444" transform="translate(463.133075 229.840141)scale(0.09 -0.09)">
       <use xlink:href="#ArialMT-36"/>
       <use xlink:href="#ArialMT-32" x="55.615234"/>
      </g>
     </g>
    </g>
    <g id="text_8">
     <!-- Patient -->
     <g style="fill: #444444" transform="translate(259.859048 242.070923)scale(0.09 -0.09)">
      <defs>
       <path id="ArialMT-50" d="M 494 0 
L 494 4581 
L 2222 4581 
Q 2678 4581 2919 4538 
Q 3256 4481 3484 4323 
Q 3713 4166 3852 3881 
Q 3991 3597 3991 3256 
Q 3991 2672 3619 2267 
Q 3247 1863 2275 1863 
L 1100 1863 
L 1100 0 
L 494 0 
z
M 1100 2403 
L 2284 2403 
Q 2872 2403 3119 2622 
Q 3366 2841 3366 3238 
Q 3366 3525 3220 3729 
Q 3075 3934 2838 4000 
Q 2684 4041 2272 4041 
L 1100 4041 
L 1100 2403 
z
" transform="scale(0.015625)"/>
       <path id="ArialMT-61" d="M 2588 409 
Q 2275 144 1986 34 
Q 1697 -75 1366 -75 
Q 819 -75 525 192 
Q 231 459 231 875 
Q 231 1119 342 1320 
Q 453 1522 633 1644 
Q 813 1766 1038 1828 
Q 1203 1872 1538 1913 
Q 2219 1994 2541 2106 
Q 2544 2222 2544 2253 
Q 2544 2597 2384 2738 
Q 2169 2928 1744 2928 
Q 1347 2928 1158 2789 
Q 969 2650 878 2297 
L 328 2372 
Q 403 2725 575 2942 
Q 747 3159 1072 3276 
Q 1397 3394 1825 3394 
Q 2250 3394 2515 3294 
Q 2781 3194 2906 3042 
Q 3031 2891 3081 2659 
Q 3109 2516 3109 2141 
L 3109 1391 
Q 3109 606 3145 398 
Q 3181 191 3288 0 
L 2700 0 
Q 2613 175 2588 409 
z
M 2541 1666 
Q 2234 1541 1622 1453 
Q 1275 1403 1131 1340 
Q 988 1278 909 1158 
Q 831 1038 831 891 
Q 831 666 1001 516 
Q 1172 366 1500 366 
Q 1825 366 2078 508 
Q 2331 650 2450 897 
Q 2541 1088 2541 1459 
L 2541 1666 
z
" transform="scale(0.015625)"/>
       <path id="ArialMT-74" d="M 1650 503 
L 1731 6 
Q 1494 -44 1306 -44 
Q 1000 -44 831 53 
Q 663 150 594 308 
Q 525 466 525 972 
L 525 2881 
L 113 2881 
L 113 3319 
L 525 3319 
L 525 4141 
L 1084 4478 
L 1084 3319 
L 1650 3319 
L 1650 2881 
L 1084 2881 
L 1084 941 
Q 1084 700 1114 631 
Q 1144 563 1211 522 
Q 1278 481 1403 481 
Q 1497 481 1650 503 
z
" transform="scale(0.015625)"/>
       <path id="ArialMT-69" d="M 425 3934 
L 425 4581 
L 988 4581 
L 988 3934 
L 425 3934 
z
M 425 0 
L 425 3319 
L 988 3319 
L 988 0 
L 425 0 
z
" transform="scale(0.015625)"/>
       <path id="ArialMT-65" d="M 2694 1069 
L 3275 997 
Q 3138 488 2766 206 
Q 2394 -75 1816 -75 
Q 1088 -75 661 373 
Q 234 822 234 1631 
Q 234 2469 665 2931 
Q 1097 3394 1784 3394 
Q 2450 3394 2872 2941 
Q 3294 2488 3294 1666 
Q 3294 1616 3291 1516 
L 816 1516 
Q 847 969 1125 678 
Q 1403 388 1819 388 
Q 2128 388 2347 550 
Q 2566 713 2694 1069 
z
M 847 1978 
L 2700 1978 
Q 2663 2397 2488 2606 
Q 2219 2931 1791 2931 
Q 1403 2931 1139 2672 
Q 875 2413 847 1978 
z
" transform="scale(0.015625)"/>
       <path id="ArialMT-6e" d="M 422 0 
L 422 3319 
L 928 3319 
L 928 2847 
Q 1294 3394 1984 3394 
Q 2284 3394 2536 3286 
Q 2788 3178 2913 3003 
Q 3038 2828 3088 2588 
Q 3119 2431 3119 2041 
L 3119 0 
L 2556 0 
L 2556 2019 
Q 2556 2363 2490 2533 
Q 2425 2703 2258 2804 
Q 2091 2906 1866 2906 
Q 1506 2906 1245 2678 
Q 984 2450 984 1813 
L 984 0 
L 422 0 
z
" transform="scale(0.015625)"/>
      </defs>
      <use xlink:href="#ArialMT-50"/>
      <use xlink:href="#ArialMT-61" x="66.699219"/>
      <use xlink:href="#ArialMT-74" x="122.314453"/>
      <use xlink:href="#ArialMT-69" x="150.097656"/>
      <use xlink:href="#ArialMT-65" x="172.314453"/>
      <use xlink:href="#ArialMT-6e" x="227.929688"/>
      <use xlink:href="#ArialMT-74" x="283.544922"/>
     </g>
    </g>
   </g>
   <g id="matplotlib.axis_2">
    <g id="ytick_1">
     <g id="text_9">
      <!-- 0 -->
      <g style="fill: #444444" transform="translate(32.715156 212.236808)scale(0.09 -0.09)">
       <defs>
        <path id="ArialMT-30" d="M 266 2259 
Q 266 3072 433 3567 
Q 600 4063 929 4331 
Q 1259 4600 1759 4600 
Q 2128 4600 2406 4451 
Q 2684 4303 2865 4023 
Q 3047 3744 3150 3342 
Q 3253 2941 3253 2259 
Q 3253 1453 3087 958 
Q 2922 463 2592 192 
Q 2263 -78 1759 -78 
Q 1097 -78 719 397 
Q 266 969 266 2259 
z
M 844 2259 
Q 844 1131 1108 757 
Q 1372 384 1759 384 
Q 2147 384 2411 759 
Q 2675 1134 2675 2259 
Q 2675 3391 2411 3762 
Q 2147 4134 1753 4134 
Q 1366 4134 1134 3806 
Q 844 3388 844 2259 
z
" transform="scale(0.015625)"/>
       </defs>
       <use xlink:href="#ArialMT-30"/>
      </g>
     </g>
    </g>
    <g id="ytick_2">
     <g id="text_10">
      <!-- 20 -->
      <g style="fill: #444444" transform="translate(27.710313 178.201372)scale(0.09 -0.09)">
       <use xlink:href="#ArialMT-32"/>
       <use xlink:href="#ArialMT-30" x="55.615234"/>
      </g>
     </g>
    </g>
    <g id="ytick_3">
     <g id="text_11">
      <!-- 40 -->
      <g style="fill: #444444" transform="translate(27.710313 144.165937)scale(0.09 -0.09)">
       <use xlink:href="#ArialMT-34"/>
       <use xlink:href="#ArialMT-30" x="55.615234"/>
      </g>
     </g>
    </g>
    <g id="ytick_4">
     <g id="text_12">
      <!-- 60 -->
      <g style="fill: #444444" transform="translate(27.710313 110.130501)scale(0.09 -0.09)">
       <use xlink:href="#ArialMT-36"/>
       <use xlink:href="#ArialMT-30" x="55.615234"/>
      </g>
     </g>
    </g>
    <g id="ytick_5">
     <g id="text_13">
      <!-- 80 -->
      <g style="fill: #444444" transform="translate(27.710313 76.095066)scale(0.09 -0.09)">
       <defs>
        <path id="ArialMT-38" d="M 1131 2484 
Q 781 2613 612 2850 
Q 444 3088 444 3419 
Q 444 3919 803 4259 
Q 1163 4600 1759 4600 
Q 2359 4600 2725 4251 
Q 3091 3903 3091 3403 
Q 3091 3084 2923 2848 
Q 2756 2613 2416 2484 
Q 2838 2347 3058 2040 
Q 3278 1734 3278 1309 
Q 3278 722 2862 322 
Q 2447 -78 1769 -78 
Q 1091 -78 675 323 
Q 259 725 259 1325 
Q 259 1772 486 2073 
Q 713 2375 1131 2484 
z
M 1019 3438 
Q 1019 3113 1228 2906 
Q 1438 2700 1772 2700 
Q 2097 2700 2305 2904 
Q 2513 3109 2513 3406 
Q 2513 3716 2298 3927 
Q 2084 4138 1766 4138 
Q 1444 4138 1231 3931 
Q 1019 3725 1019 3438 
z
M 838 1322 
Q 838 1081 952 856 
Q 1066 631 1291 507 
Q 1516 384 1775 384 
Q 2178 384 2440 643 
Q 2703 903 2703 1303 
Q 2703 1709 2433 1975 
Q 2163 2241 1756 2241 
Q 1359 2241 1098 1978 
Q 838 1716 838 1322 
z
" transform="scale(0.015625)"/>
       </defs>
       <use xlink:href="#ArialMT-38"/>
       <use xlink:href="#ArialMT-30" x="55.615234"/>
      </g>
     </g>
    </g>
    <g id="ytick_6">
     <g id="text_14">
      <!-- 100 -->
      <g style="fill: #444444" transform="translate(22.705469 42.05963)scale(0.09 -0.09)">
       <use xlink:href="#ArialMT-31"/>
       <use xlink:href="#ArialMT-30" x="55.615234"/>
       <use xlink:href="#ArialMT-30" x="111.230469"/>
      </g>
     </g>
    </g>
    <g id="text_15">
     <!-- Trimmed Means of M values (TMM) -->
     <g style="fill: #444444" transform="translate(16.81125 190.194993)rotate(-90)scale(0.09 -0.09)">
      <defs>
       <path id="ArialMT-54" d="M 1659 0 
L 1659 4041 
L 150 4041 
L 150 4581 
L 3781 4581 
L 3781 4041 
L 2266 4041 
L 2266 0 
L 1659 0 
z
" transform="scale(0.015625)"/>
       <path id="ArialMT-72" d="M 416 0 
L 416 3319 
L 922 3319 
L 922 2816 
Q 1116 3169 1280 3281 
Q 1444 3394 1641 3394 
Q 1925 3394 2219 3213 
L 2025 2691 
Q 1819 2813 1613 2813 
Q 1428 2813 1281 2702 
Q 1134 2591 1072 2394 
Q 978 2094 978 1738 
L 978 0 
L 416 0 
z
" transform="scale(0.015625)"/>
       <path id="ArialMT-6d" d="M 422 0 
L 422 3319 
L 925 3319 
L 925 2853 
Q 1081 3097 1340 3245 
Q 1600 3394 1931 3394 
Q 2300 3394 2536 3241 
Q 2772 3088 2869 2813 
Q 3263 3394 3894 3394 
Q 4388 3394 4653 3120 
Q 4919 2847 4919 2278 
L 4919 0 
L 4359 0 
L 4359 2091 
Q 4359 2428 4304 2576 
Q 4250 2725 4106 2815 
Q 3963 2906 3769 2906 
Q 3419 2906 3187 2673 
Q 2956 2441 2956 1928 
L 2956 0 
L 2394 0 
L 2394 2156 
Q 2394 2531 2256 2718 
Q 2119 2906 1806 2906 
Q 1569 2906 1367 2781 
Q 1166 2656 1075 2415 
Q 984 2175 984 1722 
L 984 0 
L 422 0 
z
" transform="scale(0.015625)"/>
       <path id="ArialMT-64" d="M 2575 0 
L 2575 419 
Q 2259 -75 1647 -75 
Q 1250 -75 917 144 
Q 584 363 401 755 
Q 219 1147 219 1656 
Q 219 2153 384 2558 
Q 550 2963 881 3178 
Q 1213 3394 1622 3394 
Q 1922 3394 2156 3267 
Q 2391 3141 2538 2938 
L 2538 4581 
L 3097 4581 
L 3097 0 
L 2575 0 
z
M 797 1656 
Q 797 1019 1065 703 
Q 1334 388 1700 388 
Q 2069 388 2326 689 
Q 2584 991 2584 1609 
Q 2584 2291 2321 2609 
Q 2059 2928 1675 2928 
Q 1300 2928 1048 2622 
Q 797 2316 797 1656 
z
" transform="scale(0.015625)"/>
       <path id="ArialMT-20" transform="scale(0.015625)"/>
       <path id="ArialMT-4d" d="M 475 0 
L 475 4581 
L 1388 4581 
L 2472 1338 
Q 2622 884 2691 659 
Q 2769 909 2934 1394 
L 4031 4581 
L 4847 4581 
L 4847 0 
L 4263 0 
L 4263 3834 
L 2931 0 
L 2384 0 
L 1059 3900 
L 1059 0 
L 475 0 
z
" transform="scale(0.015625)"/>
       <path id="ArialMT-73" d="M 197 991 
L 753 1078 
Q 800 744 1014 566 
Q 1228 388 1613 388 
Q 2000 388 2187 545 
Q 2375 703 2375 916 
Q 2375 1106 2209 1216 
Q 2094 1291 1634 1406 
Q 1016 1563 777 1677 
Q 538 1791 414 1992 
Q 291 2194 291 2438 
Q 291 2659 392 2848 
Q 494 3038 669 3163 
Q 800 3259 1026 3326 
Q 1253 3394 1513 3394 
Q 1903 3394 2198 3281 
Q 2494 3169 2634 2976 
Q 2775 2784 2828 2463 
L 2278 2388 
Q 2241 2644 2061 2787 
Q 1881 2931 1553 2931 
Q 1166 2931 1000 2803 
Q 834 2675 834 2503 
Q 834 2394 903 2306 
Q 972 2216 1119 2156 
Q 1203 2125 1616 2013 
Q 2213 1853 2448 1751 
Q 2684 1650 2818 1456 
Q 2953 1263 2953 975 
Q 2953 694 2789 445 
Q 2625 197 2315 61 
Q 2006 -75 1616 -75 
Q 969 -75 630 194 
Q 291 463 197 991 
z
" transform="scale(0.015625)"/>
       <path id="ArialMT-6f" d="M 213 1659 
Q 213 2581 725 3025 
Q 1153 3394 1769 3394 
Q 2453 3394 2887 2945 
Q 3322 2497 3322 1706 
Q 3322 1066 3130 698 
Q 2938 331 2570 128 
Q 2203 -75 1769 -75 
Q 1072 -75 642 372 
Q 213 819 213 1659 
z
M 791 1659 
Q 791 1022 1069 705 
Q 1347 388 1769 388 
Q 2188 388 2466 706 
Q 2744 1025 2744 1678 
Q 2744 2294 2464 2611 
Q 2184 2928 1769 2928 
Q 1347 2928 1069 2612 
Q 791 2297 791 1659 
z
" transform="scale(0.015625)"/>
       <path id="ArialMT-66" d="M 556 0 
L 556 2881 
L 59 2881 
L 59 3319 
L 556 3319 
L 556 3672 
Q 556 4006 616 4169 
Q 697 4388 901 4523 
Q 1106 4659 1475 4659 
Q 1713 4659 2000 4603 
L 1916 4113 
Q 1741 4144 1584 4144 
Q 1328 4144 1222 4034 
Q 1116 3925 1116 3625 
L 1116 3319 
L 1763 3319 
L 1763 2881 
L 1116 2881 
L 1116 0 
L 556 0 
z
" transform="scale(0.015625)"/>
       <path id="ArialMT-76" d="M 1344 0 
L 81 3319 
L 675 3319 
L 1388 1331 
Q 1503 1009 1600 663 
Q 1675 925 1809 1294 
L 2547 3319 
L 3125 3319 
L 1869 0 
L 1344 0 
z
" transform="scale(0.015625)"/>
       <path id="ArialMT-6c" d="M 409 0 
L 409 4581 
L 972 4581 
L 972 0 
L 409 0 
z
" transform="scale(0.015625)"/>
       <path id="ArialMT-75" d="M 2597 0 
L 2597 488 
Q 2209 -75 1544 -75 
Q 1250 -75 995 37 
Q 741 150 617 320 
Q 494 491 444 738 
Q 409 903 409 1263 
L 409 3319 
L 972 3319 
L 972 1478 
Q 972 1038 1006 884 
Q 1059 663 1231 536 
Q 1403 409 1656 409 
Q 1909 409 2131 539 
Q 2353 669 2445 892 
Q 2538 1116 2538 1541 
L 2538 3319 
L 3100 3319 
L 3100 0 
L 2597 0 
z
" transform="scale(0.015625)"/>
       <path id="ArialMT-28" d="M 1497 -1347 
Q 1031 -759 709 28 
Q 388 816 388 1659 
Q 388 2403 628 3084 
Q 909 3875 1497 4659 
L 1900 4659 
Q 1522 4009 1400 3731 
Q 1209 3300 1100 2831 
Q 966 2247 966 1656 
Q 966 153 1900 -1347 
L 1497 -1347 
z
" transform="scale(0.015625)"/>
       <path id="ArialMT-29" d="M 791 -1347 
L 388 -1347 
Q 1322 153 1322 1656 
Q 1322 2244 1188 2822 
Q 1081 3291 891 3722 
Q 769 4003 388 4659 
L 791 4659 
Q 1378 3875 1659 3084 
Q 1900 2403 1900 1659 
Q 1900 816 1576 28 
Q 1253 -759 791 -1347 
z
" transform="scale(0.015625)"/>
      </defs>
      <use xlink:href="#ArialMT-54"/>
      <use xlink:href="#ArialMT-72" x="57.333984"/>
      <use xlink:href="#ArialMT-69" x="90.634766"/>
      <use xlink:href="#ArialMT-6d" x="112.851562"/>
      <use xlink:href="#ArialMT-6d" x="196.152344"/>
      <use xlink:href="#ArialMT-65" x="279.453125"/>
      <use xlink:href="#ArialMT-64" x="335.068359"/>
      <use xlink:href="#ArialMT-20" x="390.683594"/>
      <use xlink:href="#ArialMT-4d" x="418.466797"/>
      <use xlink:href="#ArialMT-65" x="501.767578"/>
      <use xlink:href="#ArialMT-61" x="557.382812"/>
      <use xlink:href="#ArialMT-6e" x="612.998047"/>
      <use xlink:href="#ArialMT-73" x="668.613281"/>
      <use xlink:href="#ArialMT-20" x="718.613281"/>
      <use xlink:href="#ArialMT-6f" x="746.396484"/>
      <use xlink:href="#ArialMT-66" x="802.011719"/>
      <use xlink:href="#ArialMT-20" x="829.794922"/>
      <use xlink:href="#ArialMT-4d" x="857.578125"/>
      <use xlink:href="#ArialMT-20" x="940.878906"/>
      <use xlink:href="#ArialMT-76" x="968.662109"/>
      <use xlink:href="#ArialMT-61" x="1018.662109"/>
      <use xlink:href="#ArialMT-6c" x="1074.277344"/>
      <use xlink:href="#ArialMT-75" x="1096.494141"/>
      <use xlink:href="#ArialMT-65" x="1152.109375"/>
      <use xlink:href="#ArialMT-73" x="1207.724609"/>
      <use xlink:href="#ArialMT-20" x="1257.724609"/>
      <use xlink:href="#ArialMT-28" x="1285.507812"/>
      <use xlink:href="#ArialMT-54" x="1318.808594"/>
      <use xlink:href="#ArialMT-4d" x="1379.892578"/>
      <use xlink:href="#ArialMT-4d" x="1463.193359"/>
      <use xlink:href="#ArialMT-29" x="1546.494141"/>
     </g>
    </g>
   </g>
   <g id="PolyCollection_1">
    <defs>
     <path id="m3958805b78" d="M 82.841159 -138.097917 
L 76.355443 -138.097917 
L 76.255153 -138.94724 
L 76.154873 -139.796563 
L 76.054715 -140.645887 
L 75.95479 -141.49521 
L 75.855205 -142.344533 
L 75.756068 -143.193857 
L 75.657485 -144.04318 
L 75.55956 -144.892503 
L 75.462398 -145.741826 
L 75.3661 -146.59115 
L 75.270768 -147.440473 
L 75.1765 -148.289796 
L 75.083398 -149.13912 
L 74.991557 -149.988443 
L 74.901074 -150.837766 
L 74.812046 -151.68709 
L 74.724566 -152.536413 
L 74.638726 -153.385736 
L 74.554619 -154.235059 
L 74.472334 -155.084383 
L 74.391959 -155.933706 
L 74.31358 -156.783029 
L 74.237282 -157.632353 
L 74.163147 -158.481676 
L 74.091253 -159.330999 
L 74.021676 -160.180323 
L 73.954491 -161.029646 
L 73.889767 -161.878969 
L 73.827569 -162.728292 
L 73.767959 -163.577616 
L 73.710996 -164.426939 
L 73.656731 -165.276262 
L 73.605213 -166.125586 
L 73.556484 -166.974909 
L 73.510582 -167.824232 
L 73.467536 -168.673556 
L 73.427373 -169.522879 
L 73.39011 -170.372202 
L 73.355762 -171.221525 
L 73.324332 -172.070849 
L 73.295821 -172.920172 
L 73.27022 -173.769495 
L 73.247516 -174.618819 
L 73.227687 -175.468142 
L 73.210707 -176.317465 
L 73.19654 -177.166789 
L 73.185147 -178.016112 
L 73.176483 -178.865435 
L 73.170496 -179.714758 
L 73.167129 -180.564082 
L 73.166322 -181.413405 
L 73.168011 -182.262728 
L 73.172127 -183.112052 
L 73.178599 -183.961375 
L 73.187357 -184.810698 
L 73.198325 -185.660022 
L 73.211431 -186.509345 
L 73.226603 -187.358668 
L 73.243769 -188.207991 
L 73.26286 -189.057315 
L 73.283812 -189.906638 
L 73.306564 -190.755961 
L 73.331061 -191.605285 
L 73.357254 -192.454608 
L 73.385101 -193.303931 
L 73.414566 -194.153255 
L 73.445624 -195.002578 
L 73.478256 -195.851901 
L 73.512455 -196.701224 
L 73.54822 -197.550548 
L 73.585563 -198.399871 
L 73.624502 -199.249194 
L 73.665067 -200.098518 
L 73.707295 -200.947841 
L 73.751234 -201.797164 
L 73.796938 -202.646488 
L 73.844467 -203.495811 
L 73.89389 -204.345134 
L 73.945279 -205.194457 
L 73.998709 -206.043781 
L 74.054259 -206.893104 
L 74.112009 -207.742427 
L 74.172036 -208.591751 
L 74.234419 -209.441074 
L 74.299228 -210.290397 
L 74.366532 -211.139721 
L 74.43639 -211.989044 
L 74.508853 -212.838367 
L 74.583964 -213.68769 
L 74.66175 -214.537014 
L 74.742228 -215.386337 
L 74.825401 -216.23566 
L 74.911255 -217.084984 
L 74.99976 -217.934307 
L 75.09087 -218.78363 
L 75.184522 -219.632954 
L 75.280633 -220.482277 
L 75.379105 -221.3316 
L 75.47982 -222.180923 
L 83.716783 -222.180923 
L 83.716783 -222.180923 
L 83.817498 -221.3316 
L 83.91597 -220.482277 
L 84.012081 -219.632954 
L 84.105733 -218.78363 
L 84.196843 -217.934307 
L 84.285348 -217.084984 
L 84.371202 -216.23566 
L 84.454375 -215.386337 
L 84.534853 -214.537014 
L 84.612639 -213.68769 
L 84.68775 -212.838367 
L 84.760213 -211.989044 
L 84.830071 -211.139721 
L 84.897375 -210.290397 
L 84.962184 -209.441074 
L 85.024567 -208.591751 
L 85.084594 -207.742427 
L 85.142344 -206.893104 
L 85.197894 -206.043781 
L 85.251324 -205.194457 
L 85.302713 -204.345134 
L 85.352136 -203.495811 
L 85.399665 -202.646488 
L 85.445369 -201.797164 
L 85.489308 -200.947841 
L 85.531536 -200.098518 
L 85.572101 -199.249194 
L 85.61104 -198.399871 
L 85.648383 -197.550548 
L 85.684148 -196.701224 
L 85.718346 -195.851901 
L 85.750979 -195.002578 
L 85.782037 -194.153255 
L 85.811502 -193.303931 
L 85.839349 -192.454608 
L 85.865542 -191.605285 
L 85.890039 -190.755961 
L 85.912791 -189.906638 
L 85.933743 -189.057315 
L 85.952834 -188.207991 
L 85.97 -187.358668 
L 85.985171 -186.509345 
L 85.998278 -185.660022 
L 86.009246 -184.810698 
L 86.018004 -183.961375 
L 86.024476 -183.112052 
L 86.028592 -182.262728 
L 86.030281 -181.413405 
L 86.029474 -180.564082 
L 86.026107 -179.714758 
L 86.02012 -178.865435 
L 86.011456 -178.016112 
L 86.000063 -177.166789 
L 85.985896 -176.317465 
L 85.968916 -175.468142 
L 85.949087 -174.618819 
L 85.926383 -173.769495 
L 85.900782 -172.920172 
L 85.872271 -172.070849 
L 85.840841 -171.221525 
L 85.806493 -170.372202 
L 85.76923 -169.522879 
L 85.729067 -168.673556 
L 85.686021 -167.824232 
L 85.640119 -166.974909 
L 85.59139 -166.125586 
L 85.539872 -165.276262 
L 85.485607 -164.426939 
L 85.428644 -163.577616 
L 85.369034 -162.728292 
L 85.306836 -161.878969 
L 85.242112 -161.029646 
L 85.174926 -160.180323 
L 85.10535 -159.330999 
L 85.033456 -158.481676 
L 84.959321 -157.632353 
L 84.883023 -156.783029 
L 84.804644 -155.933706 
L 84.724269 -155.084383 
L 84.641984 -154.235059 
L 84.557877 -153.385736 
L 84.472037 -152.536413 
L 84.384557 -151.68709 
L 84.295528 -150.837766 
L 84.205046 -149.988443 
L 84.113205 -149.13912 
L 84.020103 -148.289796 
L 83.925835 -147.440473 
L 83.830503 -146.59115 
L 83.734205 -145.741826 
L 83.637042 -144.892503 
L 83.539118 -144.04318 
L 83.440535 -143.193857 
L 83.341398 -142.344533 
L 83.241813 -141.49521 
L 83.141888 -140.645887 
L 83.04173 -139.796563 
L 82.94145 -138.94724 
L 82.841159 -138.097917 
z
" style="stroke: #999999; stroke-width: 2"/>
    </defs>
    <g clip-path="url(#p9ce98979dd)">
     <use xlink:href="#m3958805b78" x="0" y="255.11811" style="fill: #ffffff; stroke: #999999; stroke-width: 2"/>
    </g>
   </g>
   <g id="PolyCollection_2">
    <defs>
     <path id="m6cf98453c5" d="M 151.886203 -57.86607 
L 136.823605 -57.86607 
L 136.598551 -58.333985 
L 136.377088 -58.8019 
L 136.15964 -59.269815 
L 135.946594 -59.737729 
L 135.738298 -60.205644 
L 135.53506 -60.673559 
L 135.337146 -61.141473 
L 135.144777 -61.609388 
L 134.958127 -62.077303 
L 134.777326 -62.545217 
L 134.602458 -63.013132 
L 134.433562 -63.481047 
L 134.270633 -63.948961 
L 134.113628 -64.416876 
L 133.962462 -64.884791 
L 133.817019 -65.352705 
L 133.677151 -65.82062 
L 133.542683 -66.288535 
L 133.413419 -66.756449 
L 133.289148 -67.224364 
L 133.169648 -67.692279 
L 133.05469 -68.160193 
L 132.944049 -68.628108 
L 132.837505 -69.096023 
L 132.73485 -69.563937 
L 132.635896 -70.031852 
L 132.540477 -70.499767 
L 132.448454 -70.967681 
L 132.359721 -71.435596 
L 132.274209 -71.903511 
L 132.191887 -72.371425 
L 132.112768 -72.83934 
L 132.036905 -73.307255 
L 131.964397 -73.77517 
L 131.89539 -74.243084 
L 131.830069 -74.710999 
L 131.768664 -75.178914 
L 131.711446 -75.646828 
L 131.658718 -76.114743 
L 131.610821 -76.582658 
L 131.56812 -77.050572 
L 131.531005 -77.518487 
L 131.499882 -77.986402 
L 131.475169 -78.454316 
L 131.457288 -78.922231 
L 131.446657 -79.390146 
L 131.443688 -79.85806 
L 131.448775 -80.325975 
L 131.46229 -80.79389 
L 131.484575 -81.261804 
L 131.515938 -81.729719 
L 131.556644 -82.197634 
L 131.606914 -82.665548 
L 131.666917 -83.133463 
L 131.736768 -83.601378 
L 131.816523 -84.069292 
L 131.906179 -84.537207 
L 132.005671 -85.005122 
L 132.114873 -85.473036 
L 132.233597 -85.940951 
L 132.361593 -86.408866 
L 132.498555 -86.876781 
L 132.644119 -87.344695 
L 132.797871 -87.81261 
L 132.959349 -88.280525 
L 133.128048 -88.748439 
L 133.303426 -89.216354 
L 133.484909 -89.684269 
L 133.671899 -90.152183 
L 133.86378 -90.620098 
L 134.059924 -91.088013 
L 134.259697 -91.555927 
L 134.462469 -92.023842 
L 134.667616 -92.491757 
L 134.874531 -92.959671 
L 135.082625 -93.427586 
L 135.291336 -93.895501 
L 135.500133 -94.363415 
L 135.708519 -94.83133 
L 135.916036 -95.299245 
L 136.122269 -95.767159 
L 136.326844 -96.235074 
L 136.529436 -96.702989 
L 136.729762 -97.170903 
L 136.92759 -97.638818 
L 137.122729 -98.106733 
L 137.315035 -98.574647 
L 137.504405 -99.042562 
L 137.690776 -99.510477 
L 137.874123 -99.978391 
L 138.054453 -100.446306 
L 138.231801 -100.914221 
L 138.40623 -101.382136 
L 138.577824 -101.85005 
L 138.74668 -102.317965 
L 138.912912 -102.78588 
L 139.076637 -103.253794 
L 139.237981 -103.721709 
L 139.397064 -104.189624 
L 149.312745 -104.189624 
L 149.312745 -104.189624 
L 149.471828 -103.721709 
L 149.633171 -103.253794 
L 149.796897 -102.78588 
L 149.963129 -102.317965 
L 150.131985 -101.85005 
L 150.303578 -101.382136 
L 150.478008 -100.914221 
L 150.655356 -100.446306 
L 150.835686 -99.978391 
L 151.019033 -99.510477 
L 151.205404 -99.042562 
L 151.394774 -98.574647 
L 151.58708 -98.106733 
L 151.782219 -97.638818 
L 151.980046 -97.170903 
L 152.180373 -96.702989 
L 152.382965 -96.235074 
L 152.58754 -95.767159 
L 152.793773 -95.299245 
L 153.00129 -94.83133 
L 153.209676 -94.363415 
L 153.418473 -93.895501 
L 153.627184 -93.427586 
L 153.835278 -92.959671 
L 154.042193 -92.491757 
L 154.24734 -92.023842 
L 154.450112 -91.555927 
L 154.649885 -91.088013 
L 154.846029 -90.620098 
L 155.03791 -90.152183 
L 155.2249 -89.684269 
L 155.406383 -89.216354 
L 155.581761 -88.748439 
L 155.750459 -88.280525 
L 155.911937 -87.81261 
L 156.06569 -87.344695 
L 156.211254 -86.876781 
L 156.348216 -86.408866 
L 156.476212 -85.940951 
L 156.594935 -85.473036 
L 156.704137 -85.005122 
L 156.80363 -84.537207 
L 156.893286 -84.069292 
L 156.973041 -83.601378 
L 157.042891 -83.133463 
L 157.102894 -82.665548 
L 157.153165 -82.197634 
L 157.193871 -81.729719 
L 157.225234 -81.261804 
L 157.247519 -80.79389 
L 157.261034 -80.325975 
L 157.266121 -79.85806 
L 157.263152 -79.390146 
L 157.252521 -78.922231 
L 157.23464 -78.454316 
L 157.209927 -77.986402 
L 157.178804 -77.518487 
L 157.141689 -77.050572 
L 157.098988 -76.582658 
L 157.051091 -76.114743 
L 156.998363 -75.646828 
L 156.941144 -75.178914 
L 156.87974 -74.710999 
L 156.814419 -74.243084 
L 156.745411 -73.77517 
L 156.672904 -73.307255 
L 156.597041 -72.83934 
L 156.517921 -72.371425 
L 156.4356 -71.903511 
L 156.350088 -71.435596 
L 156.261355 -70.967681 
L 156.169332 -70.499767 
L 156.073912 -70.031852 
L 155.974959 -69.563937 
L 155.872304 -69.096023 
L 155.76576 -68.628108 
L 155.655119 -68.160193 
L 155.540161 -67.692279 
L 155.420661 -67.224364 
L 155.29639 -66.756449 
L 155.167126 -66.288535 
L 155.032658 -65.82062 
L 154.892789 -65.352705 
L 154.747347 -64.884791 
L 154.596181 -64.416876 
L 154.439176 -63.948961 
L 154.276247 -63.481047 
L 154.107351 -63.013132 
L 153.932482 -62.545217 
L 153.751681 -62.077303 
L 153.565032 -61.609388 
L 153.372662 -61.141473 
L 153.174749 -60.673559 
L 152.971511 -60.205644 
L 152.763215 -59.737729 
L 152.550169 -59.269815 
L 152.332721 -58.8019 
L 152.111258 -58.333985 
L 151.886203 -57.86607 
z
" style="stroke: #999999; stroke-width: 2"/>
    </defs>
    <g clip-path="url(#p9ce98979dd)">
     <use xlink:href="#m6cf98453c5" x="0" y="255.11811" style="fill: #ffffff; stroke: #999999; stroke-width: 2"/>
    </g>
   </g>
   <g id="PolyCollection_3">
    <defs>
     <path id="m4fc9346b63" d="M 229.044705 -49.837187 
L 189.17831 -49.837187 
L 188.646446 -50.089966 
L 188.132966 -50.342745 
L 187.63949 -50.595524 
L 187.167529 -50.848303 
L 186.718471 -51.101082 
L 186.293576 -51.353861 
L 185.893958 -51.606639 
L 185.520586 -51.859418 
L 185.174271 -52.112197 
L 184.855669 -52.364976 
L 184.565269 -52.617755 
L 184.3034 -52.870534 
L 184.070231 -53.123313 
L 183.865771 -53.376092 
L 183.689876 -53.628871 
L 183.542253 -53.88165 
L 183.422473 -54.134429 
L 183.329975 -54.387208 
L 183.26408 -54.639987 
L 183.224004 -54.892766 
L 183.208866 -55.145545 
L 183.217707 -55.398324 
L 183.249502 -55.651103 
L 183.303173 -55.903882 
L 183.377607 -56.156661 
L 183.471667 -56.40944 
L 183.584208 -56.662218 
L 183.714089 -56.914997 
L 183.860188 -57.167776 
L 184.021412 -57.420555 
L 184.196706 -57.673334 
L 184.385064 -57.926113 
L 184.585537 -58.178892 
L 184.79724 -58.431671 
L 185.019352 -58.68445 
L 185.251124 -58.937229 
L 185.491878 -59.190008 
L 185.74101 -59.442787 
L 185.997982 -59.695566 
L 186.262324 -59.948345 
L 186.53363 -60.201124 
L 186.811547 -60.453903 
L 187.095774 -60.706682 
L 187.386051 -60.959461 
L 187.682154 -61.21224 
L 187.98388 -61.465019 
L 188.291045 -61.717798 
L 188.603472 -61.970576 
L 188.920979 -62.223355 
L 189.243375 -62.476134 
L 189.570452 -62.728913 
L 189.901972 -62.981692 
L 190.237668 -63.234471 
L 190.57723 -63.48725 
L 190.92031 -63.740029 
L 191.266511 -63.992808 
L 191.615391 -64.245587 
L 191.966456 -64.498366 
L 192.319168 -64.751145 
L 192.672942 -65.003924 
L 193.027152 -65.256703 
L 193.381133 -65.509482 
L 193.734192 -65.762261 
L 194.085608 -66.01504 
L 194.434644 -66.267819 
L 194.780556 -66.520598 
L 195.122599 -66.773377 
L 195.460037 -67.026155 
L 195.792155 -67.278934 
L 196.118265 -67.531713 
L 196.437718 -67.784492 
L 196.749911 -68.037271 
L 197.054298 -68.29005 
L 197.350394 -68.542829 
L 197.637784 -68.795608 
L 197.916131 -69.048387 
L 198.185176 -69.301166 
L 198.444745 -69.553945 
L 198.694749 -69.806724 
L 198.935189 -70.059503 
L 199.166149 -70.312282 
L 199.387802 -70.565061 
L 199.600402 -70.81784 
L 199.804281 -71.070619 
L 199.999845 -71.323398 
L 200.187565 -71.576177 
L 200.367975 -71.828956 
L 200.541657 -72.081734 
L 200.709237 -72.334513 
L 200.871375 -72.587292 
L 201.028755 -72.840071 
L 201.182074 -73.09285 
L 201.332036 -73.345629 
L 201.479336 -73.598408 
L 201.624658 -73.851187 
L 201.768659 -74.103966 
L 201.911967 -74.356745 
L 202.055167 -74.609524 
L 202.1988 -74.862303 
L 216.024214 -74.862303 
L 216.024214 -74.862303 
L 216.167848 -74.609524 
L 216.311048 -74.356745 
L 216.454356 -74.103966 
L 216.598357 -73.851187 
L 216.743678 -73.598408 
L 216.890979 -73.345629 
L 217.04094 -73.09285 
L 217.19426 -72.840071 
L 217.35164 -72.587292 
L 217.513778 -72.334513 
L 217.681358 -72.081734 
L 217.85504 -71.828956 
L 218.035449 -71.576177 
L 218.22317 -71.323398 
L 218.418734 -71.070619 
L 218.622613 -70.81784 
L 218.835213 -70.565061 
L 219.056866 -70.312282 
L 219.287826 -70.059503 
L 219.528265 -69.806724 
L 219.77827 -69.553945 
L 220.037838 -69.301166 
L 220.306883 -69.048387 
L 220.58523 -68.795608 
L 220.872621 -68.542829 
L 221.168717 -68.29005 
L 221.473104 -68.037271 
L 221.785297 -67.784492 
L 222.10475 -67.531713 
L 222.43086 -67.278934 
L 222.762977 -67.026155 
L 223.100416 -66.773377 
L 223.442458 -66.520598 
L 223.78837 -66.267819 
L 224.137407 -66.01504 
L 224.488823 -65.762261 
L 224.841881 -65.509482 
L 225.195863 -65.256703 
L 225.550073 -65.003924 
L 225.903847 -64.751145 
L 226.256559 -64.498366 
L 226.607624 -64.245587 
L 226.956503 -63.992808 
L 227.302705 -63.740029 
L 227.645785 -63.48725 
L 227.985347 -63.234471 
L 228.321042 -62.981692 
L 228.652563 -62.728913 
L 228.979639 -62.476134 
L 229.302036 -62.223355 
L 229.619543 -61.970576 
L 229.931969 -61.717798 
L 230.239135 -61.465019 
L 230.540861 -61.21224 
L 230.836963 -60.959461 
L 231.127241 -60.706682 
L 231.411468 -60.453903 
L 231.689385 -60.201124 
L 231.96069 -59.948345 
L 232.225033 -59.695566 
L 232.482005 -59.442787 
L 232.731136 -59.190008 
L 232.971891 -58.937229 
L 233.203663 -58.68445 
L 233.425775 -58.431671 
L 233.637477 -58.178892 
L 233.837951 -57.926113 
L 234.026309 -57.673334 
L 234.201603 -57.420555 
L 234.362826 -57.167776 
L 234.508926 -56.914997 
L 234.638807 -56.662218 
L 234.751348 -56.40944 
L 234.845408 -56.156661 
L 234.919841 -55.903882 
L 234.973512 -55.651103 
L 235.005307 -55.398324 
L 235.014148 -55.145545 
L 234.999011 -54.892766 
L 234.958934 -54.639987 
L 234.89304 -54.387208 
L 234.800542 -54.134429 
L 234.680762 -53.88165 
L 234.533139 -53.628871 
L 234.357243 -53.376092 
L 234.152783 -53.123313 
L 233.919614 -52.870534 
L 233.657746 -52.617755 
L 233.367346 -52.364976 
L 233.048743 -52.112197 
L 232.702429 -51.859418 
L 232.329057 -51.606639 
L 231.929439 -51.353861 
L 231.504543 -51.101082 
L 231.055486 -50.848303 
L 230.583524 -50.595524 
L 230.090048 -50.342745 
L 229.576568 -50.089966 
L 229.044705 -49.837187 
z
" style="stroke: #999999; stroke-width: 2"/>
    </defs>
    <g clip-path="url(#p9ce98979dd)">
     <use xlink:href="#m4fc9346b63" x="0" y="255.11811" style="fill: #ffffff; stroke: #999999; stroke-width: 2"/>
    </g>
   </g>
   <g id="PolyCollection_4">
    <defs>
     <path id="m992a79f38c" d="M 285.350337 -50.3686 
L 262.385883 -50.3686 
L 262.163028 -50.673778 
L 261.950349 -50.978955 
L 261.748202 -51.284133 
L 261.556877 -51.58931 
L 261.376587 -51.894488 
L 261.207473 -52.199665 
L 261.049597 -52.504842 
L 260.902946 -52.81002 
L 260.767426 -53.115197 
L 260.64287 -53.420375 
L 260.529032 -53.725552 
L 260.425594 -54.03073 
L 260.332166 -54.335907 
L 260.248294 -54.641085 
L 260.173456 -54.946262 
L 260.107078 -55.251439 
L 260.048529 -55.556617 
L 259.997134 -55.861794 
L 259.952178 -56.166972 
L 259.912916 -56.472149 
L 259.878576 -56.777327 
L 259.848369 -57.082504 
L 259.8215 -57.387682 
L 259.797171 -57.692859 
L 259.774594 -57.998036 
L 259.752995 -58.303214 
L 259.731625 -58.608391 
L 259.70977 -58.913569 
L 259.68675 -59.218746 
L 259.661936 -59.523924 
L 259.634751 -59.829101 
L 259.604676 -60.134279 
L 259.571259 -60.439456 
L 259.534114 -60.744633 
L 259.492931 -61.049811 
L 259.447473 -61.354988 
L 259.397583 -61.660166 
L 259.343182 -61.965343 
L 259.28427 -62.270521 
L 259.220927 -62.575698 
L 259.153309 -62.880876 
L 259.081648 -63.186053 
L 259.006246 -63.49123 
L 258.927474 -63.796408 
L 258.845766 -64.101585 
L 258.761613 -64.406763 
L 258.675557 -64.71194 
L 258.588186 -65.017118 
L 258.500127 -65.322295 
L 258.412038 -65.627473 
L 258.3246 -65.93265 
L 258.238512 -66.237827 
L 258.154482 -66.543005 
L 258.073221 -66.848182 
L 257.995434 -67.15336 
L 257.921816 -67.458537 
L 257.853044 -67.763715 
L 257.78977 -68.068892 
L 257.732618 -68.37407 
L 257.68218 -68.679247 
L 257.639009 -68.984424 
L 257.603615 -69.289602 
L 257.576468 -69.594779 
L 257.557989 -69.899957 
L 257.548552 -70.205134 
L 257.548483 -70.510312 
L 257.558061 -70.815489 
L 257.577515 -71.120667 
L 257.607029 -71.425844 
L 257.64674 -71.731021 
L 257.696742 -72.036199 
L 257.757089 -72.341376 
L 257.827795 -72.646554 
L 257.908838 -72.951731 
L 258.000164 -73.256909 
L 258.101689 -73.562086 
L 258.213301 -73.867264 
L 258.334866 -74.172441 
L 258.466226 -74.477618 
L 258.607206 -74.782796 
L 258.757616 -75.087973 
L 258.917251 -75.393151 
L 259.085893 -75.698328 
L 259.263316 -76.003506 
L 259.44928 -76.308683 
L 259.643543 -76.613861 
L 259.84585 -76.919038 
L 260.055941 -77.224215 
L 260.273548 -77.529393 
L 260.498396 -77.83457 
L 260.7302 -78.139748 
L 260.968668 -78.444925 
L 261.213499 -78.750103 
L 261.46438 -79.05528 
L 261.720987 -79.360458 
L 261.982985 -79.665635 
L 262.250027 -79.970812 
L 262.521748 -80.27599 
L 262.797775 -80.581167 
L 284.938445 -80.581167 
L 284.938445 -80.581167 
L 285.214472 -80.27599 
L 285.486194 -79.970812 
L 285.753235 -79.665635 
L 286.015233 -79.360458 
L 286.271841 -79.05528 
L 286.522721 -78.750103 
L 286.767552 -78.444925 
L 287.006021 -78.139748 
L 287.237825 -77.83457 
L 287.462672 -77.529393 
L 287.680279 -77.224215 
L 287.89037 -76.919038 
L 288.092677 -76.613861 
L 288.28694 -76.308683 
L 288.472905 -76.003506 
L 288.650327 -75.698328 
L 288.818969 -75.393151 
L 288.978604 -75.087973 
L 289.129014 -74.782796 
L 289.269995 -74.477618 
L 289.401355 -74.172441 
L 289.522919 -73.867264 
L 289.634531 -73.562086 
L 289.736056 -73.256909 
L 289.827382 -72.951731 
L 289.908425 -72.646554 
L 289.979131 -72.341376 
L 290.039478 -72.036199 
L 290.089481 -71.731021 
L 290.129192 -71.425844 
L 290.158705 -71.120667 
L 290.17816 -70.815489 
L 290.187738 -70.510312 
L 290.187669 -70.205134 
L 290.178232 -69.899957 
L 290.159752 -69.594779 
L 290.132605 -69.289602 
L 290.097212 -68.984424 
L 290.05404 -68.679247 
L 290.003602 -68.37407 
L 289.946451 -68.068892 
L 289.883177 -67.763715 
L 289.814404 -67.458537 
L 289.740786 -67.15336 
L 289.663 -66.848182 
L 289.581739 -66.543005 
L 289.497709 -66.237827 
L 289.411621 -65.93265 
L 289.324183 -65.627473 
L 289.236093 -65.322295 
L 289.148034 -65.017118 
L 289.060663 -64.71194 
L 288.974607 -64.406763 
L 288.890454 -64.101585 
L 288.808746 -63.796408 
L 288.729975 -63.49123 
L 288.654573 -63.186053 
L 288.582912 -62.880876 
L 288.515294 -62.575698 
L 288.451951 -62.270521 
L 288.393039 -61.965343 
L 288.338637 -61.660166 
L 288.288747 -61.354988 
L 288.243289 -61.049811 
L 288.202106 -60.744633 
L 288.164962 -60.439456 
L 288.131544 -60.134279 
L 288.10147 -59.829101 
L 288.074285 -59.523924 
L 288.049471 -59.218746 
L 288.026451 -58.913569 
L 288.004595 -58.608391 
L 287.983226 -58.303214 
L 287.961627 -57.998036 
L 287.939049 -57.692859 
L 287.91472 -57.387682 
L 287.887851 -57.082504 
L 287.857645 -56.777327 
L 287.823304 -56.472149 
L 287.784042 -56.166972 
L 287.739087 -55.861794 
L 287.687692 -55.556617 
L 287.629143 -55.251439 
L 287.562764 -54.946262 
L 287.487927 -54.641085 
L 287.404054 -54.335907 
L 287.310627 -54.03073 
L 287.207189 -53.725552 
L 287.093351 -53.420375 
L 286.968794 -53.115197 
L 286.833275 -52.81002 
L 286.686623 -52.504842 
L 286.528748 -52.199665 
L 286.359633 -51.894488 
L 286.179344 -51.58931 
L 285.988018 -51.284133 
L 285.785872 -50.978955 
L 285.573192 -50.673778 
L 285.350337 -50.3686 
z
" style="stroke: #999999; stroke-width: 2"/>
    </defs>
    <g clip-path="url(#p9ce98979dd)">
     <use xlink:href="#m992a79f38c" x="0" y="255.11811" style="fill: #ffffff; stroke: #999999; stroke-width: 2"/>
    </g>
   </g>
   <g id="PolyCollection_5">
    <defs>
     <path id="m8a42d6e77c" d="M 340.705727 -64.856351 
L 336.5437 -64.856351 
L 336.491914 -66.126345 
L 336.440049 -67.396338 
L 336.388062 -68.666332 
L 336.335902 -69.936325 
L 336.283514 -71.206319 
L 336.230839 -72.476312 
L 336.177813 -73.746306 
L 336.124373 -75.016299 
L 336.07045 -76.286293 
L 336.015981 -77.556286 
L 335.960899 -78.82628 
L 335.905144 -80.096273 
L 335.848656 -81.366267 
L 335.791383 -82.63626 
L 335.733279 -83.906254 
L 335.674306 -85.176247 
L 335.614434 -86.446241 
L 335.553644 -87.716234 
L 335.49193 -88.986227 
L 335.429297 -90.256221 
L 335.365763 -91.526214 
L 335.301362 -92.796208 
L 335.236141 -94.066201 
L 335.170166 -95.336195 
L 335.103515 -96.606188 
L 335.036284 -97.876182 
L 334.968587 -99.146175 
L 334.900552 -100.416169 
L 334.832323 -101.686162 
L 334.764062 -102.956156 
L 334.695944 -104.226149 
L 334.628157 -105.496143 
L 334.560905 -106.766136 
L 334.494402 -108.03613 
L 334.428874 -109.306123 
L 334.364554 -110.576117 
L 334.301684 -111.84611 
L 334.240512 -113.116104 
L 334.181289 -114.386097 
L 334.124269 -115.65609 
L 334.069704 -116.926084 
L 334.017844 -118.196077 
L 333.968937 -119.466071 
L 333.923222 -120.736064 
L 333.880929 -122.006058 
L 333.842279 -123.276051 
L 333.807479 -124.546045 
L 333.776721 -125.816038 
L 333.75018 -127.086032 
L 333.728015 -128.356025 
L 333.710361 -129.626019 
L 333.697335 -130.896012 
L 333.689032 -132.166006 
L 333.685519 -133.435999 
L 333.686845 -134.705993 
L 333.693029 -135.975986 
L 333.704068 -137.24598 
L 333.719934 -138.515973 
L 333.740572 -139.785966 
L 333.765907 -141.05596 
L 333.795837 -142.325953 
L 333.830239 -143.595947 
L 333.868969 -144.86594 
L 333.911862 -146.135934 
L 333.958737 -147.405927 
L 334.009394 -148.675921 
L 334.063621 -149.945914 
L 334.121193 -151.215908 
L 334.181873 -152.485901 
L 334.245419 -153.755895 
L 334.311581 -155.025888 
L 334.380105 -156.295882 
L 334.450739 -157.565875 
L 334.523229 -158.835869 
L 334.597325 -160.105862 
L 334.672783 -161.375856 
L 334.749363 -162.645849 
L 334.826838 -163.915842 
L 334.904988 -165.185836 
L 334.983605 -166.455829 
L 335.062497 -167.725823 
L 335.141481 -168.995816 
L 335.220391 -170.26581 
L 335.299077 -171.535803 
L 335.377403 -172.805797 
L 335.45525 -174.07579 
L 335.532511 -175.345784 
L 335.609098 -176.615777 
L 335.684936 -177.885771 
L 335.759964 -179.155764 
L 335.834134 -180.425758 
L 335.90741 -181.695751 
L 335.979768 -182.965745 
L 336.051193 -184.235738 
L 336.121681 -185.505732 
L 336.191232 -186.775725 
L 336.259855 -188.045718 
L 336.327563 -189.315712 
L 336.394373 -190.585705 
L 340.855053 -190.585705 
L 340.855053 -190.585705 
L 340.921863 -189.315712 
L 340.989572 -188.045718 
L 341.058195 -186.775725 
L 341.127746 -185.505732 
L 341.198233 -184.235738 
L 341.269658 -182.965745 
L 341.342016 -181.695751 
L 341.415293 -180.425758 
L 341.489462 -179.155764 
L 341.56449 -177.885771 
L 341.640328 -176.615777 
L 341.716915 -175.345784 
L 341.794177 -174.07579 
L 341.872023 -172.805797 
L 341.950349 -171.535803 
L 342.029035 -170.26581 
L 342.107946 -168.995816 
L 342.18693 -167.725823 
L 342.265821 -166.455829 
L 342.344439 -165.185836 
L 342.422588 -163.915842 
L 342.500063 -162.645849 
L 342.576644 -161.375856 
L 342.652101 -160.105862 
L 342.726197 -158.835869 
L 342.798687 -157.565875 
L 342.869321 -156.295882 
L 342.937846 -155.025888 
L 343.004007 -153.755895 
L 343.067553 -152.485901 
L 343.128233 -151.215908 
L 343.185805 -149.945914 
L 343.240032 -148.675921 
L 343.290689 -147.405927 
L 343.337564 -146.135934 
L 343.380457 -144.86594 
L 343.419187 -143.595947 
L 343.453589 -142.325953 
L 343.483519 -141.05596 
L 343.508854 -139.785966 
L 343.529493 -138.515973 
L 343.545358 -137.24598 
L 343.556398 -135.975986 
L 343.562582 -134.705993 
L 343.563907 -133.435999 
L 343.560395 -132.166006 
L 343.552091 -130.896012 
L 343.539065 -129.626019 
L 343.521412 -128.356025 
L 343.499246 -127.086032 
L 343.472706 -125.816038 
L 343.441947 -124.546045 
L 343.407147 -123.276051 
L 343.368497 -122.006058 
L 343.326204 -120.736064 
L 343.280489 -119.466071 
L 343.231582 -118.196077 
L 343.179723 -116.926084 
L 343.125157 -115.65609 
L 343.068137 -114.386097 
L 343.008914 -113.116104 
L 342.947742 -111.84611 
L 342.884873 -110.576117 
L 342.820553 -109.306123 
L 342.755024 -108.03613 
L 342.688521 -106.766136 
L 342.621269 -105.496143 
L 342.553483 -104.226149 
L 342.485364 -102.956156 
L 342.417103 -101.686162 
L 342.348875 -100.416169 
L 342.280839 -99.146175 
L 342.213142 -97.876182 
L 342.145912 -96.606188 
L 342.079261 -95.336195 
L 342.013285 -94.066201 
L 341.948065 -92.796208 
L 341.883664 -91.526214 
L 341.82013 -90.256221 
L 341.757496 -88.986227 
L 341.695782 -87.716234 
L 341.634993 -86.446241 
L 341.575121 -85.176247 
L 341.516147 -83.906254 
L 341.458043 -82.63626 
L 341.40077 -81.366267 
L 341.344282 -80.096273 
L 341.288527 -78.82628 
L 341.233445 -77.556286 
L 341.178976 -76.286293 
L 341.125054 -75.016299 
L 341.071613 -73.746306 
L 341.018588 -72.476312 
L 340.965912 -71.206319 
L 340.913524 -69.936325 
L 340.861365 -68.666332 
L 340.809377 -67.396338 
L 340.757513 -66.126345 
L 340.705727 -64.856351 
z
" style="stroke: #999999; stroke-width: 2"/>
    </defs>
    <g clip-path="url(#p9ce98979dd)">
     <use xlink:href="#m8a42d6e77c" x="0" y="255.11811" style="fill: #ffffff; stroke: #999999; stroke-width: 2"/>
    </g>
   </g>
   <g id="PolyCollection_6">
    <defs>
     <path id="m81c814b021" d="M 415.670902 -55.206473 
L 391.091731 -55.206473 
L 390.850153 -55.646772 
L 390.620873 -56.087072 
L 390.404684 -56.527371 
L 390.202333 -56.967671 
L 390.014519 -57.40797 
L 389.841886 -57.84827 
L 389.685021 -58.288569 
L 389.544451 -58.728869 
L 389.420636 -59.169168 
L 389.313966 -59.609468 
L 389.224764 -60.049767 
L 389.153278 -60.490067 
L 389.099681 -60.930366 
L 389.064071 -61.370666 
L 389.046469 -61.810965 
L 389.04682 -62.251265 
L 389.064991 -62.691564 
L 389.100777 -63.131864 
L 389.153896 -63.572163 
L 389.223994 -64.012463 
L 389.310649 -64.452762 
L 389.41337 -64.893061 
L 389.531602 -65.333361 
L 389.664729 -65.77366 
L 389.812081 -66.21396 
L 389.972932 -66.654259 
L 390.146508 -67.094559 
L 390.331993 -67.534858 
L 390.528531 -67.975158 
L 390.735233 -68.415457 
L 390.951179 -68.855757 
L 391.175429 -69.296056 
L 391.40702 -69.736356 
L 391.64498 -70.176655 
L 391.888325 -70.616955 
L 392.136073 -71.057254 
L 392.387238 -71.497554 
L 392.640846 -71.937853 
L 392.895931 -72.378153 
L 393.151547 -72.818452 
L 393.406764 -73.258752 
L 393.660682 -73.699051 
L 393.912425 -74.139351 
L 394.161152 -74.57965 
L 394.406058 -75.01995 
L 394.646376 -75.460249 
L 394.881381 -75.900549 
L 395.110394 -76.340848 
L 395.332782 -76.781148 
L 395.547961 -77.221447 
L 395.755399 -77.661747 
L 395.954616 -78.102046 
L 396.145185 -78.542346 
L 396.326735 -78.982645 
L 396.498951 -79.422945 
L 396.661573 -79.863244 
L 396.814398 -80.303544 
L 396.957278 -80.743843 
L 397.090122 -81.184143 
L 397.212894 -81.624442 
L 397.325614 -82.064742 
L 397.428352 -82.505041 
L 397.521234 -82.945341 
L 397.604434 -83.38564 
L 397.678176 -83.82594 
L 397.742731 -84.266239 
L 397.798415 -84.706539 
L 397.845586 -85.146838 
L 397.884641 -85.587138 
L 397.916016 -86.027437 
L 397.940178 -86.467736 
L 397.957628 -86.908036 
L 397.968894 -87.348335 
L 397.974527 -87.788635 
L 397.9751 -88.228934 
L 397.971203 -88.669234 
L 397.963438 -89.109533 
L 397.95242 -89.549833 
L 397.938768 -89.990132 
L 397.923101 -90.430432 
L 397.906041 -90.870731 
L 397.888202 -91.311031 
L 397.870189 -91.75133 
L 397.852593 -92.19163 
L 397.835993 -92.631929 
L 397.820943 -93.072229 
L 397.807979 -93.512528 
L 397.797609 -93.952828 
L 397.790311 -94.393127 
L 397.786533 -94.833427 
L 397.786691 -95.273726 
L 397.791162 -95.714026 
L 397.800287 -96.154325 
L 397.814369 -96.594625 
L 397.833667 -97.034924 
L 397.858403 -97.475224 
L 397.888753 -97.915523 
L 397.924854 -98.355823 
L 397.966798 -98.796122 
L 408.795834 -98.796122 
L 408.795834 -98.796122 
L 408.837778 -98.355823 
L 408.873879 -97.915523 
L 408.904229 -97.475224 
L 408.928965 -97.034924 
L 408.948263 -96.594625 
L 408.962345 -96.154325 
L 408.97147 -95.714026 
L 408.975941 -95.273726 
L 408.976099 -94.833427 
L 408.972322 -94.393127 
L 408.965024 -93.952828 
L 408.954653 -93.512528 
L 408.941689 -93.072229 
L 408.92664 -92.631929 
L 408.910039 -92.19163 
L 408.892444 -91.75133 
L 408.87443 -91.311031 
L 408.856591 -90.870731 
L 408.839531 -90.430432 
L 408.823865 -89.990132 
L 408.810212 -89.549833 
L 408.799194 -89.109533 
L 408.791429 -88.669234 
L 408.787532 -88.228934 
L 408.788105 -87.788635 
L 408.793738 -87.348335 
L 408.805004 -86.908036 
L 408.822454 -86.467736 
L 408.846617 -86.027437 
L 408.877991 -85.587138 
L 408.917046 -85.146838 
L 408.964217 -84.706539 
L 409.019901 -84.266239 
L 409.084456 -83.82594 
L 409.158198 -83.38564 
L 409.241398 -82.945341 
L 409.33428 -82.505041 
L 409.437018 -82.064742 
L 409.549738 -81.624442 
L 409.67251 -81.184143 
L 409.805354 -80.743843 
L 409.948234 -80.303544 
L 410.101059 -79.863244 
L 410.263681 -79.422945 
L 410.435897 -78.982645 
L 410.617447 -78.542346 
L 410.808017 -78.102046 
L 411.007233 -77.661747 
L 411.214671 -77.221447 
L 411.42985 -76.781148 
L 411.652238 -76.340848 
L 411.881251 -75.900549 
L 412.116256 -75.460249 
L 412.356574 -75.01995 
L 412.60148 -74.57965 
L 412.850207 -74.139351 
L 413.10195 -73.699051 
L 413.355868 -73.258752 
L 413.611086 -72.818452 
L 413.866701 -72.378153 
L 414.121787 -71.937853 
L 414.375394 -71.497554 
L 414.62656 -71.057254 
L 414.874307 -70.616955 
L 415.117653 -70.176655 
L 415.355612 -69.736356 
L 415.587203 -69.296056 
L 415.811453 -68.855757 
L 416.027399 -68.415457 
L 416.234101 -67.975158 
L 416.430639 -67.534858 
L 416.616124 -67.094559 
L 416.789701 -66.654259 
L 416.950551 -66.21396 
L 417.097903 -65.77366 
L 417.231031 -65.333361 
L 417.349263 -64.893061 
L 417.451983 -64.452762 
L 417.538638 -64.012463 
L 417.608736 -63.572163 
L 417.661855 -63.131864 
L 417.697641 -62.691564 
L 417.715813 -62.251265 
L 417.716163 -61.810965 
L 417.698561 -61.370666 
L 417.662951 -60.930366 
L 417.609354 -60.490067 
L 417.537868 -60.049767 
L 417.448666 -59.609468 
L 417.341997 -59.169168 
L 417.218181 -58.728869 
L 417.077611 -58.288569 
L 416.920746 -57.84827 
L 416.748113 -57.40797 
L 416.560299 -56.967671 
L 416.357948 -56.527371 
L 416.141759 -56.087072 
L 415.912479 -55.646772 
L 415.670902 -55.206473 
z
" style="stroke: #999999; stroke-width: 2"/>
    </defs>
    <g clip-path="url(#p9ce98979dd)">
     <use xlink:href="#m81c814b021" x="0" y="255.11811" style="fill: #ffffff; stroke: #999999; stroke-width: 2"/>
    </g>
   </g>
   <g id="PolyCollection_7">
    <defs>
     <path id="m4e5015ea4e" d="M 469.839287 -75.197167 
L 466.436551 -75.197167 
L 466.416968 -76.168318 
L 466.3992 -77.139469 
L 466.38309 -78.110619 
L 466.368451 -79.08177 
L 466.355071 -80.052921 
L 466.34271 -81.024072 
L 466.331107 -81.995222 
L 466.319979 -82.966373 
L 466.309026 -83.937524 
L 466.29793 -84.908675 
L 466.286361 -85.879825 
L 466.273981 -86.850976 
L 466.260442 -87.822127 
L 466.245393 -88.793277 
L 466.228484 -89.764428 
L 466.209363 -90.735579 
L 466.187685 -91.70673 
L 466.163112 -92.67788 
L 466.135312 -93.649031 
L 466.10397 -94.620182 
L 466.068779 -95.591332 
L 466.029451 -96.562483 
L 465.985713 -97.533634 
L 465.93731 -98.504785 
L 465.884008 -99.475935 
L 465.825592 -100.447086 
L 465.761868 -101.418237 
L 465.692664 -102.389387 
L 465.617831 -103.360538 
L 465.537244 -104.331689 
L 465.450801 -105.30284 
L 465.358425 -106.27399 
L 465.260063 -107.245141 
L 465.15569 -108.216292 
L 465.045307 -109.187443 
L 464.928945 -110.158593 
L 464.80666 -111.129744 
L 464.678544 -112.100895 
L 464.544715 -113.072045 
L 464.405328 -114.043196 
L 464.260572 -115.014347 
L 464.110671 -115.985498 
L 463.955887 -116.956648 
L 463.796521 -117.927799 
L 463.632915 -118.89895 
L 463.46545 -119.8701 
L 463.294551 -120.841251 
L 463.120684 -121.812402 
L 462.944358 -122.783553 
L 462.766123 -123.754703 
L 462.58657 -124.725854 
L 462.406332 -125.697005 
L 462.226075 -126.668155 
L 462.046505 -127.639306 
L 461.868355 -128.610457 
L 461.692389 -129.581608 
L 461.519392 -130.552758 
L 461.350169 -131.523909 
L 461.185535 -132.49506 
L 461.026315 -133.466211 
L 460.873332 -134.437361 
L 460.7274 -135.408512 
L 460.589323 -136.379663 
L 460.459881 -137.350813 
L 460.339826 -138.321964 
L 460.229874 -139.293115 
L 460.130699 -140.264266 
L 460.042922 -141.235416 
L 459.967113 -142.206567 
L 459.903776 -143.177718 
L 459.853348 -144.148868 
L 459.816196 -145.120019 
L 459.792609 -146.09117 
L 459.782797 -147.062321 
L 459.786891 -148.033471 
L 459.804938 -149.004622 
L 459.836901 -149.975773 
L 459.882664 -150.946923 
L 459.942026 -151.918074 
L 460.014712 -152.889225 
L 460.100368 -153.860376 
L 460.19857 -154.831526 
L 460.308828 -155.802677 
L 460.430588 -156.773828 
L 460.563243 -157.744979 
L 460.706135 -158.716129 
L 460.858563 -159.68728 
L 461.01979 -160.658431 
L 461.189048 -161.629581 
L 461.365551 -162.600732 
L 461.548492 -163.571883 
L 461.737059 -164.543034 
L 461.930438 -165.514184 
L 462.127816 -166.485335 
L 462.328392 -167.456486 
L 462.531381 -168.427636 
L 462.736018 -169.398787 
L 462.941562 -170.369938 
L 463.147302 -171.341089 
L 473.128536 -171.341089 
L 473.128536 -171.341089 
L 473.334276 -170.369938 
L 473.53982 -169.398787 
L 473.744457 -168.427636 
L 473.947446 -167.456486 
L 474.148022 -166.485335 
L 474.3454 -165.514184 
L 474.538779 -164.543034 
L 474.727346 -163.571883 
L 474.910287 -162.600732 
L 475.08679 -161.629581 
L 475.256048 -160.658431 
L 475.417275 -159.68728 
L 475.569703 -158.716129 
L 475.712595 -157.744979 
L 475.84525 -156.773828 
L 475.96701 -155.802677 
L 476.077268 -154.831526 
L 476.17547 -153.860376 
L 476.261126 -152.889225 
L 476.333812 -151.918074 
L 476.393174 -150.946923 
L 476.438937 -149.975773 
L 476.4709 -149.004622 
L 476.488947 -148.033471 
L 476.493041 -147.062321 
L 476.483229 -146.09117 
L 476.459642 -145.120019 
L 476.42249 -144.148868 
L 476.372062 -143.177718 
L 476.308725 -142.206567 
L 476.232916 -141.235416 
L 476.145139 -140.264266 
L 476.045964 -139.293115 
L 475.936012 -138.321964 
L 475.815957 -137.350813 
L 475.686515 -136.379663 
L 475.548438 -135.408512 
L 475.402506 -134.437361 
L 475.249523 -133.466211 
L 475.090303 -132.49506 
L 474.925669 -131.523909 
L 474.756446 -130.552758 
L 474.583449 -129.581608 
L 474.407483 -128.610457 
L 474.229333 -127.639306 
L 474.049763 -126.668155 
L 473.869506 -125.697005 
L 473.689268 -124.725854 
L 473.509715 -123.754703 
L 473.33148 -122.783553 
L 473.155154 -121.812402 
L 472.981287 -120.841251 
L 472.810388 -119.8701 
L 472.642923 -118.89895 
L 472.479317 -117.927799 
L 472.319951 -116.956648 
L 472.165168 -115.985498 
L 472.015266 -115.014347 
L 471.87051 -114.043196 
L 471.731123 -113.072045 
L 471.597294 -112.100895 
L 471.469178 -111.129744 
L 471.346893 -110.158593 
L 471.230531 -109.187443 
L 471.120148 -108.216292 
L 471.015775 -107.245141 
L 470.917413 -106.27399 
L 470.825037 -105.30284 
L 470.738594 -104.331689 
L 470.658007 -103.360538 
L 470.583174 -102.389387 
L 470.51397 -101.418237 
L 470.450246 -100.447086 
L 470.39183 -99.475935 
L 470.338528 -98.504785 
L 470.290126 -97.533634 
L 470.246387 -96.562483 
L 470.207059 -95.591332 
L 470.171868 -94.620182 
L 470.140526 -93.649031 
L 470.112726 -92.67788 
L 470.088153 -91.70673 
L 470.066475 -90.735579 
L 470.047354 -89.764428 
L 470.030445 -88.793277 
L 470.015396 -87.822127 
L 470.001857 -86.850976 
L 469.989477 -85.879825 
L 469.977908 -84.908675 
L 469.966812 -83.937524 
L 469.955859 -82.966373 
L 469.944731 -81.995222 
L 469.933128 -81.024072 
L 469.920767 -80.052921 
L 469.907387 -79.08177 
L 469.892748 -78.110619 
L 469.876638 -77.139469 
L 469.85887 -76.168318 
L 469.839287 -75.197167 
z
" style="stroke: #999999; stroke-width: 2"/>
    </defs>
    <g clip-path="url(#p9ce98979dd)">
     <use xlink:href="#m4e5015ea4e" x="0" y="255.11811" style="fill: #ffffff; stroke: #999999; stroke-width: 2"/>
    </g>
   </g>
   <g id="PathCollection_1"/>
   <g id="PathCollection_2"/>
   <g id="patch_3">
    <path d="M 47.22 213.89811 
L 47.22 24.32 
" style="fill: none; stroke: #262626; stroke-width: 1.25; stroke-linejoin: miter; stroke-linecap: square"/>
   </g>
   <g id="patch_4">
    <path d="M 47.22 213.89811 
L 500.51622 213.89811 
" style="fill: none; stroke: #262626; stroke-width: 1.25; stroke-linejoin: miter; stroke-linecap: square"/>
   </g>
   <g id="PathCollection_3">
    <defs>
     <path id="C0_0_8dcae2d0cf" d="M 0 2.5 
C 0.663008 2.5 1.29895 2.236584 1.767767 1.767767 
C 2.236584 1.29895 2.5 0.663008 2.5 -0 
C 2.5 -0.663008 2.236584 -1.29895 1.767767 -1.767767 
C 1.29895 -2.236584 0.663008 -2.5 0 -2.5 
C -0.663008 -2.5 -1.29895 -2.236584 -1.767767 -1.767767 
C -2.236584 -1.29895 -2.5 -0.663008 -2.5 0 
C -2.5 0.663008 -2.236584 1.29895 -1.767767 1.767767 
C -1.29895 2.236584 -0.663008 2.5 0 2.5 
z
"/>
    </defs>
    <g clip-path="url(#p9ce98979dd)">
     <use xlink:href="#C0_0_8dcae2d0cf" x="74.47163" y="56.095937" style="fill: #4c72b0; fill-opacity: 0.75"/>
    </g>
    <g clip-path="url(#p9ce98979dd)">
     <use xlink:href="#C0_0_8dcae2d0cf" x="82.004891" y="117.020193" style="fill: #4c72b0; fill-opacity: 0.75"/>
    </g>
    <g clip-path="url(#p9ce98979dd)">
     <use xlink:href="#C0_0_8dcae2d0cf" x="84.545584" y="89.920227" style="fill: #4c72b0; fill-opacity: 0.75"/>
    </g>
    <g clip-path="url(#p9ce98979dd)">
     <use xlink:href="#C0_0_8dcae2d0cf" x="84.020878" y="97.598787" style="fill: #4c72b0; fill-opacity: 0.75"/>
    </g>
    <g clip-path="url(#p9ce98979dd)">
     <use xlink:href="#C0_0_8dcae2d0cf" x="74.221485" y="32.937187" style="fill: #dd8452; fill-opacity: 0.75"/>
    </g>
    <g clip-path="url(#p9ce98979dd)">
     <use xlink:href="#C0_0_8dcae2d0cf" x="83.824512" y="40.253682" style="fill: #dd8452; fill-opacity: 0.75"/>
    </g>
    <g clip-path="url(#p9ce98979dd)">
     <use xlink:href="#C0_0_8dcae2d0cf" x="84.312533" y="69.298897" style="fill: #dd8452; fill-opacity: 0.75"/>
    </g>
    <g clip-path="url(#p9ce98979dd)">
     <use xlink:href="#C0_0_8dcae2d0cf" x="80.435107" y="75.445259" style="fill: #dd8452; fill-opacity: 0.75"/>
    </g>
   </g>
   <g id="PathCollection_4">
    <defs>
     <path id="C1_0_ffd8d22b9a" d="M 0 2.5 
C 0.663008 2.5 1.29895 2.236584 1.767767 1.767767 
C 2.236584 1.29895 2.5 0.663008 2.5 -0 
C 2.5 -0.663008 2.236584 -1.29895 1.767767 -1.767767 
C 1.29895 -2.236584 0.663008 -2.5 0 -2.5 
C -0.663008 -2.5 -1.29895 -2.236584 -1.767767 -1.767767 
C -2.236584 -1.29895 -2.5 -0.663008 -2.5 0 
C -2.5 0.663008 -2.236584 1.29895 -1.767767 1.767767 
C -1.29895 2.236584 -0.663008 2.5 0 2.5 
z
"/>
    </defs>
    <g clip-path="url(#p9ce98979dd)">
     <use xlink:href="#C1_0_ffd8d22b9a" x="142.81098" y="187.227138" style="fill: #4c72b0; fill-opacity: 0.75"/>
    </g>
    <g clip-path="url(#p9ce98979dd)">
     <use xlink:href="#C1_0_ffd8d22b9a" x="145.356028" y="175.899337" style="fill: #4c72b0; fill-opacity: 0.75"/>
    </g>
    <g clip-path="url(#p9ce98979dd)">
     <use xlink:href="#C1_0_ffd8d22b9a" x="146.370494" y="197.25204" style="fill: #4c72b0; fill-opacity: 0.75"/>
    </g>
    <g clip-path="url(#p9ce98979dd)">
     <use xlink:href="#C1_0_ffd8d22b9a" x="148.24438" y="189.682534" style="fill: #4c72b0; fill-opacity: 0.75"/>
    </g>
    <g clip-path="url(#p9ce98979dd)">
     <use xlink:href="#C1_0_ffd8d22b9a" x="150.390102" y="164.770365" style="fill: #dd8452; fill-opacity: 0.75"/>
    </g>
    <g clip-path="url(#p9ce98979dd)">
     <use xlink:href="#C1_0_ffd8d22b9a" x="149.142181" y="150.928487" style="fill: #dd8452; fill-opacity: 0.75"/>
    </g>
    <g clip-path="url(#p9ce98979dd)">
     <use xlink:href="#C1_0_ffd8d22b9a" x="146.127371" y="174.391389" style="fill: #dd8452; fill-opacity: 0.75"/>
    </g>
    <g clip-path="url(#p9ce98979dd)">
     <use xlink:href="#C1_0_ffd8d22b9a" x="146.893615" y="168.986514" style="fill: #dd8452; fill-opacity: 0.75"/>
    </g>
   </g>
   <g id="PathCollection_5">
    <defs>
     <path id="C2_0_1468a584e4" d="M 0 2.5 
C 0.663008 2.5 1.29895 2.236584 1.767767 1.767767 
C 2.236584 1.29895 2.5 0.663008 2.5 -0 
C 2.5 -0.663008 2.236584 -1.29895 1.767767 -1.767767 
C 1.29895 -2.236584 0.663008 -2.5 0 -2.5 
C -0.663008 -2.5 -1.29895 -2.236584 -1.767767 -1.767767 
C -2.236584 -1.29895 -2.5 -0.663008 -2.5 0 
C -2.5 0.663008 -2.236584 1.29895 -1.767767 1.767767 
C -1.29895 2.236584 -0.663008 2.5 0 2.5 
z
"/>
    </defs>
    <g clip-path="url(#p9ce98979dd)">
     <use xlink:href="#C2_0_1468a584e4" x="206.428044" y="180.255807" style="fill: #4c72b0; fill-opacity: 0.75"/>
    </g>
    <g clip-path="url(#p9ce98979dd)">
     <use xlink:href="#C2_0_1468a584e4" x="206.647898" y="205.280923" style="fill: #4c72b0; fill-opacity: 0.75"/>
    </g>
    <g clip-path="url(#p9ce98979dd)">
     <use xlink:href="#C2_0_1468a584e4" x="210.275898" y="201.865314" style="fill: #4c72b0; fill-opacity: 0.75"/>
    </g>
    <g clip-path="url(#p9ce98979dd)">
     <use xlink:href="#C2_0_1468a584e4" x="207.082744" y="200.363694" style="fill: #4c72b0; fill-opacity: 0.75"/>
    </g>
    <g clip-path="url(#p9ce98979dd)">
     <use xlink:href="#C2_0_1468a584e4" x="209.265685" y="191.90856" style="fill: #dd8452; fill-opacity: 0.75"/>
    </g>
    <g clip-path="url(#p9ce98979dd)">
     <use xlink:href="#C2_0_1468a584e4" x="205.30652" y="196.104669" style="fill: #dd8452; fill-opacity: 0.75"/>
    </g>
    <g clip-path="url(#p9ce98979dd)">
     <use xlink:href="#C2_0_1468a584e4" x="212.479465" y="202.590797" style="fill: #dd8452; fill-opacity: 0.75"/>
    </g>
    <g clip-path="url(#p9ce98979dd)">
     <use xlink:href="#C2_0_1468a584e4" x="215.547855" y="190.64086" style="fill: #dd8452; fill-opacity: 0.75"/>
    </g>
   </g>
   <g id="PathCollection_6">
    <defs>
     <path id="C3_0_dade836dd3" d="M 0 2.5 
C 0.663008 2.5 1.29895 2.236584 1.767767 1.767767 
C 2.236584 1.29895 2.5 0.663008 2.5 -0 
C 2.5 -0.663008 2.236584 -1.29895 1.767767 -1.767767 
C 1.29895 -2.236584 0.663008 -2.5 0 -2.5 
C -0.663008 -2.5 -1.29895 -2.236584 -1.767767 -1.767767 
C -2.236584 -1.29895 -2.5 -0.663008 -2.5 0 
C -2.5 0.663008 -2.236584 1.29895 -1.767767 1.767767 
C -1.29895 2.236584 -0.663008 2.5 0 2.5 
z
"/>
    </defs>
    <g clip-path="url(#p9ce98979dd)">
     <use xlink:href="#C3_0_dade836dd3" x="272.658187" y="186.385398" style="fill: #4c72b0; fill-opacity: 0.75"/>
    </g>
    <g clip-path="url(#p9ce98979dd)">
     <use xlink:href="#C3_0_dade836dd3" x="274.836866" y="174.536943" style="fill: #4c72b0; fill-opacity: 0.75"/>
    </g>
    <g clip-path="url(#p9ce98979dd)">
     <use xlink:href="#C3_0_dade836dd3" x="273.828005" y="181.287734" style="fill: #4c72b0; fill-opacity: 0.75"/>
    </g>
    <g clip-path="url(#p9ce98979dd)">
     <use xlink:href="#C3_0_dade836dd3" x="272.21904" y="187.22288" style="fill: #4c72b0; fill-opacity: 0.75"/>
    </g>
    <g clip-path="url(#p9ce98979dd)">
     <use xlink:href="#C3_0_dade836dd3" x="277.60544" y="175.388379" style="fill: #4c72b0; fill-opacity: 0.75"/>
    </g>
    <g clip-path="url(#p9ce98979dd)">
     <use xlink:href="#C3_0_dade836dd3" x="278.414511" y="204.257259" style="fill: #dd8452; fill-opacity: 0.75"/>
    </g>
    <g clip-path="url(#p9ce98979dd)">
     <use xlink:href="#C3_0_dade836dd3" x="277.032241" y="204.74951" style="fill: #dd8452; fill-opacity: 0.75"/>
    </g>
    <g clip-path="url(#p9ce98979dd)">
     <use xlink:href="#C3_0_dade836dd3" x="267.754413" y="198.308396" style="fill: #dd8452; fill-opacity: 0.75"/>
    </g>
    <g clip-path="url(#p9ce98979dd)">
     <use xlink:href="#C3_0_dade836dd3" x="268.149335" y="186.401706" style="fill: #dd8452; fill-opacity: 0.75"/>
    </g>
    <g clip-path="url(#p9ce98979dd)">
     <use xlink:href="#C3_0_dade836dd3" x="272.205576" y="198.384257" style="fill: #dd8452; fill-opacity: 0.75"/>
    </g>
   </g>
   <g id="PathCollection_7">
    <defs>
     <path id="C4_0_6998557d86" d="M 0 2.5 
C 0.663008 2.5 1.29895 2.236584 1.767767 1.767767 
C 2.236584 1.29895 2.5 0.663008 2.5 -0 
C 2.5 -0.663008 2.236584 -1.29895 1.767767 -1.767767 
C 1.29895 -2.236584 0.663008 -2.5 0 -2.5 
C -0.663008 -2.5 -1.29895 -2.236584 -1.767767 -1.767767 
C -2.236584 -1.29895 -2.5 -0.663008 -2.5 0 
C -2.5 0.663008 -2.236584 1.29895 -1.767767 1.767767 
C -1.29895 2.236584 -0.663008 2.5 0 2.5 
z
"/>
    </defs>
    <g clip-path="url(#p9ce98979dd)">
     <use xlink:href="#C4_0_6998557d86" x="335.118315" y="122.767348" style="fill: #4c72b0; fill-opacity: 0.75"/>
    </g>
    <g clip-path="url(#p9ce98979dd)">
     <use xlink:href="#C4_0_6998557d86" x="334.129819" y="64.532405" style="fill: #4c72b0; fill-opacity: 0.75"/>
    </g>
    <g clip-path="url(#p9ce98979dd)">
     <use xlink:href="#C4_0_6998557d86" x="343.801381" y="108.386168" style="fill: #4c72b0; fill-opacity: 0.75"/>
    </g>
    <g clip-path="url(#p9ce98979dd)">
     <use xlink:href="#C4_0_6998557d86" x="344.291579" y="151.411191" style="fill: #dd8452; fill-opacity: 0.75"/>
    </g>
    <g clip-path="url(#p9ce98979dd)">
     <use xlink:href="#C4_0_6998557d86" x="339.770504" y="190.261759" style="fill: #dd8452; fill-opacity: 0.75"/>
    </g>
    <g clip-path="url(#p9ce98979dd)">
     <use xlink:href="#C4_0_6998557d86" x="340.090614" y="118.267824" style="fill: #dd8452; fill-opacity: 0.75"/>
    </g>
   </g>
   <g id="PathCollection_8">
    <defs>
     <path id="C5_0_dfd2bba159" d="M 0 2.5 
C 0.663008 2.5 1.29895 2.236584 1.767767 1.767767 
C 2.236584 1.29895 2.5 0.663008 2.5 -0 
C 2.5 -0.663008 2.236584 -1.29895 1.767767 -1.767767 
C 1.29895 -2.236584 0.663008 -2.5 0 -2.5 
C -0.663008 -2.5 -1.29895 -2.236584 -1.767767 -1.767767 
C -2.236584 -1.29895 -2.5 -0.663008 -2.5 0 
C -2.5 0.663008 -2.236584 1.29895 -1.767767 1.767767 
C -1.29895 2.236584 -0.663008 2.5 0 2.5 
z
"/>
    </defs>
    <g clip-path="url(#p9ce98979dd)">
     <use xlink:href="#C5_0_dfd2bba159" x="403.289676" y="182.159237" style="fill: #4c72b0; fill-opacity: 0.75"/>
    </g>
    <g clip-path="url(#p9ce98979dd)">
     <use xlink:href="#C5_0_dfd2bba159" x="402.864796" y="158.819133" style="fill: #4c72b0; fill-opacity: 0.75"/>
    </g>
    <g clip-path="url(#p9ce98979dd)">
     <use xlink:href="#C5_0_dfd2bba159" x="406.705828" y="192.993438" style="fill: #4c72b0; fill-opacity: 0.75"/>
    </g>
    <g clip-path="url(#p9ce98979dd)">
     <use xlink:href="#C5_0_dfd2bba159" x="404.745973" y="156.321988" style="fill: #4c72b0; fill-opacity: 0.75"/>
    </g>
    <g clip-path="url(#p9ce98979dd)">
     <use xlink:href="#C5_0_dfd2bba159" x="397.735935" y="194.113889" style="fill: #dd8452; fill-opacity: 0.75"/>
    </g>
    <g clip-path="url(#p9ce98979dd)">
     <use xlink:href="#C5_0_dfd2bba159" x="398.579" y="193.444016" style="fill: #dd8452; fill-opacity: 0.75"/>
    </g>
    <g clip-path="url(#p9ce98979dd)">
     <use xlink:href="#C5_0_dfd2bba159" x="396.91191" y="199.911638" style="fill: #dd8452; fill-opacity: 0.75"/>
    </g>
    <g clip-path="url(#p9ce98979dd)">
     <use xlink:href="#C5_0_dfd2bba159" x="408.36194" y="193.448869" style="fill: #dd8452; fill-opacity: 0.75"/>
    </g>
   </g>
   <g id="PathCollection_9">
    <defs>
     <path id="C6_0_63cc23324f" d="M 0 2.5 
C 0.663008 2.5 1.29895 2.236584 1.767767 1.767767 
C 2.236584 1.29895 2.5 0.663008 2.5 -0 
C 2.5 -0.663008 2.236584 -1.29895 1.767767 -1.767767 
C 1.29895 -2.236584 0.663008 -2.5 0 -2.5 
C -0.663008 -2.5 -1.29895 -2.236584 -1.767767 -1.767767 
C -2.236584 -1.29895 -2.5 -0.663008 -2.5 0 
C -2.5 0.663008 -2.236584 1.29895 -1.767767 1.767767 
C -1.29895 2.236584 -0.663008 2.5 0 2.5 
z
"/>
    </defs>
    <g clip-path="url(#p9ce98979dd)">
     <use xlink:href="#C6_0_63cc23324f" x="470.977797" y="108.069978" style="fill: #4c72b0; fill-opacity: 0.75"/>
    </g>
    <g clip-path="url(#p9ce98979dd)">
     <use xlink:href="#C6_0_63cc23324f" x="472.633648" y="101.266814" style="fill: #4c72b0; fill-opacity: 0.75"/>
    </g>
    <g clip-path="url(#p9ce98979dd)">
     <use xlink:href="#C6_0_63cc23324f" x="474.281907" y="83.777022" style="fill: #4c72b0; fill-opacity: 0.75"/>
    </g>
    <g clip-path="url(#p9ce98979dd)">
     <use xlink:href="#C6_0_63cc23324f" x="464.27288" y="117.090405" style="fill: #4c72b0; fill-opacity: 0.75"/>
    </g>
    <g clip-path="url(#p9ce98979dd)">
     <use xlink:href="#C6_0_63cc23324f" x="465.538175" y="139.482893" style="fill: #dd8452; fill-opacity: 0.75"/>
    </g>
    <g clip-path="url(#p9ce98979dd)">
     <use xlink:href="#C6_0_63cc23324f" x="472.403463" y="103.881288" style="fill: #dd8452; fill-opacity: 0.75"/>
    </g>
    <g clip-path="url(#p9ce98979dd)">
     <use xlink:href="#C6_0_63cc23324f" x="464.383838" y="112.305612" style="fill: #dd8452; fill-opacity: 0.75"/>
    </g>
    <g clip-path="url(#p9ce98979dd)">
     <use xlink:href="#C6_0_63cc23324f" x="466.34149" y="179.920943" style="fill: #dd8452; fill-opacity: 0.75"/>
    </g>
   </g>
   <g id="text_16">
    <!-- ADM, $p_{adj}$ &lt; .001 *** -->
    <g style="fill: #262626" transform="translate(47.22 18.32)scale(0.09 -0.09)">
     <defs>
      <path id="ArialMT-41" d="M -9 0 
L 1750 4581 
L 2403 4581 
L 4278 0 
L 3588 0 
L 3053 1388 
L 1138 1388 
L 634 0 
L -9 0 
z
M 1313 1881 
L 2866 1881 
L 2388 3150 
Q 2169 3728 2063 4100 
Q 1975 3659 1816 3225 
L 1313 1881 
z
" transform="scale(0.015625)"/>
      <path id="ArialMT-44" d="M 494 0 
L 494 4581 
L 2072 4581 
Q 2606 4581 2888 4516 
Q 3281 4425 3559 4188 
Q 3922 3881 4101 3404 
Q 4281 2928 4281 2316 
Q 4281 1794 4159 1391 
Q 4038 988 3847 723 
Q 3656 459 3429 307 
Q 3203 156 2883 78 
Q 2563 0 2147 0 
L 494 0 
z
M 1100 541 
L 2078 541 
Q 2531 541 2789 625 
Q 3047 709 3200 863 
Q 3416 1078 3536 1442 
Q 3656 1806 3656 2325 
Q 3656 3044 3420 3430 
Q 3184 3816 2847 3947 
Q 2603 4041 2063 4041 
L 1100 4041 
L 1100 541 
z
" transform="scale(0.015625)"/>
      <path id="ArialMT-2c" d="M 569 0 
L 569 641 
L 1209 641 
L 1209 0 
Q 1209 -353 1084 -570 
Q 959 -788 688 -906 
L 531 -666 
Q 709 -588 793 -436 
Q 878 -284 888 0 
L 569 0 
z
" transform="scale(0.015625)"/>
      <path id="DejaVuSans-Oblique-70" d="M 3175 2156 
Q 3175 2616 2975 2859 
Q 2775 3103 2400 3103 
Q 2144 3103 1911 2972 
Q 1678 2841 1497 2591 
Q 1319 2344 1212 1994 
Q 1106 1644 1106 1300 
Q 1106 863 1306 627 
Q 1506 391 1875 391 
Q 2147 391 2380 519 
Q 2613 647 2778 891 
Q 2956 1147 3065 1494 
Q 3175 1841 3175 2156 
z
M 1394 2969 
Q 1625 3272 1939 3428 
Q 2253 3584 2638 3584 
Q 3175 3584 3472 3232 
Q 3769 2881 3769 2247 
Q 3769 1728 3584 1258 
Q 3400 788 3053 416 
Q 2822 169 2531 39 
Q 2241 -91 1919 -91 
Q 1547 -91 1294 64 
Q 1041 219 916 525 
L 556 -1331 
L -19 -1331 
L 922 3500 
L 1497 3500 
L 1394 2969 
z
" transform="scale(0.015625)"/>
      <path id="DejaVuSans-Oblique-61" d="M 3438 1997 
L 3047 0 
L 2472 0 
L 2578 531 
Q 2325 219 2001 64 
Q 1678 -91 1281 -91 
Q 834 -91 548 182 
Q 263 456 263 884 
Q 263 1497 752 1853 
Q 1241 2209 2100 2209 
L 2900 2209 
L 2931 2363 
Q 2938 2388 2941 2417 
Q 2944 2447 2944 2509 
Q 2944 2788 2717 2942 
Q 2491 3097 2081 3097 
Q 1800 3097 1504 3025 
Q 1209 2953 897 2809 
L 997 3341 
Q 1322 3463 1633 3523 
Q 1944 3584 2234 3584 
Q 2853 3584 3176 3315 
Q 3500 3047 3500 2534 
Q 3500 2431 3484 2292 
Q 3469 2153 3438 1997 
z
M 2816 1759 
L 2241 1759 
Q 1534 1759 1195 1570 
Q 856 1381 856 984 
Q 856 709 1029 553 
Q 1203 397 1509 397 
Q 1978 397 2328 733 
Q 2678 1069 2791 1631 
L 2816 1759 
z
" transform="scale(0.015625)"/>
      <path id="DejaVuSans-Oblique-64" d="M 2675 525 
Q 2444 222 2128 65 
Q 1813 -91 1428 -91 
Q 903 -91 598 267 
Q 294 625 294 1247 
Q 294 1766 478 2236 
Q 663 2706 1013 3078 
Q 1244 3325 1534 3454 
Q 1825 3584 2144 3584 
Q 2481 3584 2739 3421 
Q 2997 3259 3138 2956 
L 3513 4863 
L 4091 4863 
L 3144 0 
L 2566 0 
L 2675 525 
z
M 891 1350 
Q 891 897 1095 644 
Q 1300 391 1663 391 
Q 1931 391 2161 520 
Q 2391 650 2566 903 
Q 2750 1166 2856 1509 
Q 2963 1853 2963 2188 
Q 2963 2622 2758 2865 
Q 2553 3109 2194 3109 
Q 1922 3109 1687 2981 
Q 1453 2853 1288 2613 
Q 1106 2353 998 2009 
Q 891 1666 891 1350 
z
" transform="scale(0.015625)"/>
      <path id="DejaVuSans-Oblique-6a" d="M 928 3500 
L 1503 3500 
L 813 -63 
L 809 -78 
Q 694 -675 544 -897 
Q 403 -1106 132 -1218 
Q -138 -1331 -506 -1331 
L -722 -1331 
L -628 -844 
L -481 -844 
Q -144 -844 -1 -703 
Q 141 -563 238 -63 
L 928 3500 
z
M 1197 4863 
L 1772 4863 
L 1631 4134 
L 1056 4134 
L 1197 4863 
z
" transform="scale(0.015625)"/>
      <path id="ArialMT-3c" d="M 350 2003 
L 350 2528 
L 3384 3809 
L 3384 3250 
L 978 2263 
L 3384 1266 
L 3384 706 
L 350 2003 
z
" transform="scale(0.015625)"/>
      <path id="ArialMT-2e" d="M 581 0 
L 581 641 
L 1222 641 
L 1222 0 
L 581 0 
z
" transform="scale(0.015625)"/>
      <path id="ArialMT-2a" d="M 200 3741 
L 344 4184 
Q 841 4009 1066 3881 
Q 1006 4447 1003 4659 
L 1456 4659 
Q 1447 4350 1384 3884 
Q 1706 4047 2122 4184 
L 2266 3741 
Q 1869 3609 1488 3566 
Q 1678 3400 2025 2975 
L 1650 2709 
Q 1469 2956 1222 3381 
Q 991 2941 816 2709 
L 447 2975 
Q 809 3422 966 3566 
Q 563 3644 200 3741 
z
" transform="scale(0.015625)"/>
     </defs>
     <use xlink:href="#ArialMT-41" transform="translate(0 0.203125)"/>
     <use xlink:href="#ArialMT-44" transform="translate(66.699219 0.203125)"/>
     <use xlink:href="#ArialMT-4d" transform="translate(138.916016 0.203125)"/>
     <use xlink:href="#ArialMT-2c" transform="translate(222.216797 0.203125)"/>
     <use xlink:href="#ArialMT-20" transform="translate(250 0.203125)"/>
     <use xlink:href="#DejaVuSans-Oblique-70" transform="translate(277.783203 0.203125)"/>
     <use xlink:href="#DejaVuSans-Oblique-61" transform="translate(341.259766 -16.203125)scale(0.7)"/>
     <use xlink:href="#DejaVuSans-Oblique-64" transform="translate(384.155273 -16.203125)scale(0.7)"/>
     <use xlink:href="#DejaVuSans-Oblique-6a" transform="translate(428.588867 -16.203125)scale(0.7)"/>
     <use xlink:href="#ArialMT-20" transform="translate(450.771484 0.203125)"/>
     <use xlink:href="#ArialMT-3c" transform="translate(478.554688 0.203125)"/>
     <use xlink:href="#ArialMT-20" transform="translate(536.953125 0.203125)"/>
     <use xlink:href="#ArialMT-2e" transform="translate(564.736328 0.203125)"/>
     <use xlink:href="#ArialMT-30" transform="translate(592.519531 0.203125)"/>
     <use xlink:href="#ArialMT-30" transform="translate(648.134766 0.203125)"/>
     <use xlink:href="#ArialMT-31" transform="translate(703.75 0.203125)"/>
     <use xlink:href="#ArialMT-20" transform="translate(759.365234 0.203125)"/>
     <use xlink:href="#ArialMT-2a" transform="translate(787.148438 0.203125)"/>
     <use xlink:href="#ArialMT-2a" transform="translate(826.064453 0.203125)"/>
     <use xlink:href="#ArialMT-2a" transform="translate(864.980469 0.203125)"/>
    </g>
   </g>
   <g id="legend_1">
    <g id="patch_5">
     <path d="M 441.91497 69.712344 
L 494.21622 69.712344 
Q 496.01622 69.712344 496.01622 67.912344 
L 496.01622 30.62 
Q 496.01622 28.82 494.21622 28.82 
L 441.91497 28.82 
Q 440.11497 28.82 440.11497 30.62 
L 440.11497 67.912344 
Q 440.11497 69.712344 441.91497 69.712344 
z
" style="fill: #ffffff; opacity: 0.8; stroke: #cccccc; stroke-linejoin: miter"/>
    </g>
    <g id="text_17">
     <!-- Treatment -->
     <g style="fill: #262626" transform="translate(447.729111 38.862031)scale(0.09 -0.09)">
      <use xlink:href="#ArialMT-54"/>
      <use xlink:href="#ArialMT-72" x="57.333984"/>
      <use xlink:href="#ArialMT-65" x="90.634766"/>
      <use xlink:href="#ArialMT-61" x="146.25"/>
      <use xlink:href="#ArialMT-74" x="201.865234"/>
      <use xlink:href="#ArialMT-6d" x="229.648438"/>
      <use xlink:href="#ArialMT-65" x="312.949219"/>
      <use xlink:href="#ArialMT-6e" x="368.564453"/>
      <use xlink:href="#ArialMT-74" x="424.179688"/>
     </g>
    </g>
    <g id="PathCollection_10">
     <defs>
      <path id="m7e16efa10c" d="M 0 3.872983 
C 1.027127 3.872983 2.012324 3.464901 2.738613 2.738613 
C 3.464901 2.012324 3.872983 1.027127 3.872983 0 
C 3.872983 -1.027127 3.464901 -2.012324 2.738613 -2.738613 
C 2.012324 -3.464901 1.027127 -3.872983 0 -3.872983 
C -1.027127 -3.872983 -2.012324 -3.464901 -2.738613 -2.738613 
C -3.464901 -2.012324 -3.872983 -1.027127 -3.872983 0 
C -3.872983 1.027127 -3.464901 2.012324 -2.738613 2.738613 
C -2.012324 3.464901 -1.027127 3.872983 0 3.872983 
z
" style="stroke: #4c72b0"/>
     </defs>
     <g>
      <use xlink:href="#m7e16efa10c" x="452.71497" y="49.230313" style="fill: #4c72b0; stroke: #4c72b0"/>
     </g>
    </g>
    <g id="text_18">
     <!-- BEVA -->
     <g style="fill: #262626" transform="translate(468.91497 51.592813)scale(0.09 -0.09)">
      <defs>
       <path id="ArialMT-42" d="M 469 0 
L 469 4581 
L 2188 4581 
Q 2713 4581 3030 4442 
Q 3347 4303 3526 4014 
Q 3706 3725 3706 3409 
Q 3706 3116 3547 2856 
Q 3388 2597 3066 2438 
Q 3481 2316 3704 2022 
Q 3928 1728 3928 1328 
Q 3928 1006 3792 729 
Q 3656 453 3456 303 
Q 3256 153 2954 76 
Q 2653 0 2216 0 
L 469 0 
z
M 1075 2656 
L 2066 2656 
Q 2469 2656 2644 2709 
Q 2875 2778 2992 2937 
Q 3109 3097 3109 3338 
Q 3109 3566 3000 3739 
Q 2891 3913 2687 3977 
Q 2484 4041 1991 4041 
L 1075 4041 
L 1075 2656 
z
M 1075 541 
L 2216 541 
Q 2509 541 2628 563 
Q 2838 600 2978 687 
Q 3119 775 3209 942 
Q 3300 1109 3300 1328 
Q 3300 1584 3169 1773 
Q 3038 1963 2805 2039 
Q 2572 2116 2134 2116 
L 1075 2116 
L 1075 541 
z
" transform="scale(0.015625)"/>
       <path id="ArialMT-45" d="M 506 0 
L 506 4581 
L 3819 4581 
L 3819 4041 
L 1113 4041 
L 1113 2638 
L 3647 2638 
L 3647 2100 
L 1113 2100 
L 1113 541 
L 3925 541 
L 3925 0 
L 506 0 
z
" transform="scale(0.015625)"/>
       <path id="ArialMT-56" d="M 1803 0 
L 28 4581 
L 684 4581 
L 1875 1253 
Q 2019 853 2116 503 
Q 2222 878 2363 1253 
L 3600 4581 
L 4219 4581 
L 2425 0 
L 1803 0 
z
" transform="scale(0.015625)"/>
      </defs>
      <use xlink:href="#ArialMT-42"/>
      <use xlink:href="#ArialMT-45" x="66.699219"/>
      <use xlink:href="#ArialMT-56" x="133.398438"/>
      <use xlink:href="#ArialMT-41" x="192.722656"/>
     </g>
    </g>
    <g id="PathCollection_11">
     <defs>
      <path id="mbaeb362fbc" d="M 0 3.872983 
C 1.027127 3.872983 2.012324 3.464901 2.738613 2.738613 
C 3.464901 2.012324 3.872983 1.027127 3.872983 0 
C 3.872983 -1.027127 3.464901 -2.012324 2.738613 -2.738613 
C 2.012324 -3.464901 1.027127 -3.872983 0 -3.872983 
C -1.027127 -3.872983 -2.012324 -3.464901 -2.738613 -2.738613 
C -3.464901 -2.012324 -3.872983 -1.027127 -3.872983 0 
C -3.872983 1.027127 -3.464901 2.012324 -2.738613 2.738613 
C -2.012324 3.464901 -1.027127 3.872983 0 3.872983 
z
" style="stroke: #dd8452"/>
     </defs>
     <g>
      <use xlink:href="#mbaeb362fbc" x="452.71497" y="61.961094" style="fill: #dd8452; stroke: #dd8452"/>
     </g>
    </g>
    <g id="text_19">
     <!-- CTRL -->
     <g style="fill: #262626" transform="translate(468.91497 64.323594)scale(0.09 -0.09)">
      <defs>
       <path id="ArialMT-43" d="M 3763 1606 
L 4369 1453 
Q 4178 706 3683 314 
Q 3188 -78 2472 -78 
Q 1731 -78 1267 223 
Q 803 525 561 1097 
Q 319 1669 319 2325 
Q 319 3041 592 3573 
Q 866 4106 1370 4382 
Q 1875 4659 2481 4659 
Q 3169 4659 3637 4309 
Q 4106 3959 4291 3325 
L 3694 3184 
Q 3534 3684 3231 3912 
Q 2928 4141 2469 4141 
Q 1941 4141 1586 3887 
Q 1231 3634 1087 3207 
Q 944 2781 944 2328 
Q 944 1744 1114 1308 
Q 1284 872 1643 656 
Q 2003 441 2422 441 
Q 2931 441 3284 734 
Q 3638 1028 3763 1606 
z
" transform="scale(0.015625)"/>
       <path id="ArialMT-52" d="M 503 0 
L 503 4581 
L 2534 4581 
Q 3147 4581 3465 4457 
Q 3784 4334 3975 4021 
Q 4166 3709 4166 3331 
Q 4166 2844 3850 2509 
Q 3534 2175 2875 2084 
Q 3116 1969 3241 1856 
Q 3506 1613 3744 1247 
L 4541 0 
L 3778 0 
L 3172 953 
Q 2906 1366 2734 1584 
Q 2563 1803 2427 1890 
Q 2291 1978 2150 2013 
Q 2047 2034 1813 2034 
L 1109 2034 
L 1109 0 
L 503 0 
z
M 1109 2559 
L 2413 2559 
Q 2828 2559 3062 2645 
Q 3297 2731 3419 2920 
Q 3541 3109 3541 3331 
Q 3541 3656 3305 3865 
Q 3069 4075 2559 4075 
L 1109 4075 
L 1109 2559 
z
" transform="scale(0.015625)"/>
       <path id="ArialMT-4c" d="M 469 0 
L 469 4581 
L 1075 4581 
L 1075 541 
L 3331 541 
L 3331 0 
L 469 0 
z
" transform="scale(0.015625)"/>
      </defs>
      <use xlink:href="#ArialMT-43"/>
      <use xlink:href="#ArialMT-54" x="72.216797"/>
      <use xlink:href="#ArialMT-52" x="133.300781"/>
      <use xlink:href="#ArialMT-4c" x="205.517578"/>
     </g>
    </g>
   </g>
  </g>
 </g>
 <defs>
  <clipPath id="p9ce98979dd">
   <rect x="47.22" y="24.32" width="453.29622" height="189.57811"/>
  </clipPath>
 </defs>
</svg>
