<?xml version="1.0" encoding="utf-8" standalone="no"?>
<!DOCTYPE svg PUBLIC "-//W3C//DTD SVG 1.1//EN"
  "http://www.w3.org/Graphics/SVG/1.1/DTD/svg11.dtd">
<svg xmlns:xlink="http://www.w3.org/1999/xlink" width="510.23622pt" height="255.11811pt" viewBox="0 0 510.23622 255.11811" xmlns="http://www.w3.org/2000/svg" version="1.1">
 <metadata>
  <rdf:RDF xmlns:dc="http://purl.org/dc/elements/1.1/" xmlns:cc="http://creativecommons.org/ns#" xmlns:rdf="http://www.w3.org/1999/02/22-rdf-syntax-ns#">
   <cc:Work>
    <dc:type rdf:resource="http://purl.org/dc/dcmitype/StillImage"/>
    <dc:date>2022-04-27T00:16:28.388186</dc:date>
    <dc:format>image/svg+xml</dc:format>
    <dc:creator>
     <cc:Agent>
      <dc:title>Matplotlib v3.5.1, https://matplotlib.org/</dc:title>
     </cc:Agent>
    </dc:creator>
   </cc:Work>
  </rdf:RDF>
 </metadata>
 <defs>
  <style type="text/css">*{stroke-linejoin: round; stroke-linecap: butt}</style>
 </defs>
 <g id="figure_1">
  <g id="patch_1">
   <path d="M 0 255.11811 
L 510.23622 255.11811 
L 510.23622 0 
L 0 0 
z
" style="fill: #ffffff"/>
  </g>
  <g id="axes_1">
   <g id="patch_2">
    <path d="M 47.22 213.89811 
L 500.51622 213.89811 
L 500.51622 24.32 
L 47.22 24.32 
z
" style="fill: #ffffff"/>
   </g>
   <g id="matplotlib.axis_1">
    <g id="xtick_1">
     <g id="text_1">
      <!-- 49 -->
      <g style="fill: #444444" transform="translate(74.593458 229.840141)scale(0.09 -0.09)">
       <defs>
        <path id="ArialMT-34" d="M 2069 0 
L 2069 1097 
L 81 1097 
L 81 1613 
L 2172 4581 
L 2631 4581 
L 2631 1613 
L 3250 1613 
L 3250 1097 
L 2631 1097 
L 2631 0 
L 2069 0 
z
M 2069 1613 
L 2069 3678 
L 634 1613 
L 2069 1613 
z
" transform="scale(0.015625)"/>
        <path id="ArialMT-39" d="M 350 1059 
L 891 1109 
Q 959 728 1153 556 
Q 1347 384 1650 384 
Q 1909 384 2104 503 
Q 2300 622 2425 820 
Q 2550 1019 2634 1356 
Q 2719 1694 2719 2044 
Q 2719 2081 2716 2156 
Q 2547 1888 2255 1720 
Q 1963 1553 1622 1553 
Q 1053 1553 659 1965 
Q 266 2378 266 3053 
Q 266 3750 677 4175 
Q 1088 4600 1706 4600 
Q 2153 4600 2523 4359 
Q 2894 4119 3086 3673 
Q 3278 3228 3278 2384 
Q 3278 1506 3087 986 
Q 2897 466 2520 194 
Q 2144 -78 1638 -78 
Q 1100 -78 759 220 
Q 419 519 350 1059 
z
M 2653 3081 
Q 2653 3566 2395 3850 
Q 2138 4134 1775 4134 
Q 1400 4134 1122 3828 
Q 844 3522 844 3034 
Q 844 2597 1108 2323 
Q 1372 2050 1759 2050 
Q 2150 2050 2401 2323 
Q 2653 2597 2653 3081 
z
" transform="scale(0.015625)"/>
       </defs>
       <use xlink:href="#ArialMT-34"/>
       <use xlink:href="#ArialMT-39" x="55.615234"/>
      </g>
     </g>
    </g>
    <g id="xtick_2">
     <g id="text_2">
      <!-- 17 -->
      <g style="fill: #444444" transform="translate(139.350061 229.840141)scale(0.09 -0.09)">
       <defs>
        <path id="ArialMT-31" d="M 2384 0 
L 1822 0 
L 1822 3584 
Q 1619 3391 1289 3197 
Q 959 3003 697 2906 
L 697 3450 
Q 1169 3672 1522 3987 
Q 1875 4303 2022 4600 
L 2384 4600 
L 2384 0 
z
" transform="scale(0.015625)"/>
        <path id="ArialMT-37" d="M 303 3981 
L 303 4522 
L 3269 4522 
L 3269 4084 
Q 2831 3619 2401 2847 
Q 1972 2075 1738 1259 
Q 1569 684 1522 0 
L 944 0 
Q 953 541 1156 1306 
Q 1359 2072 1739 2783 
Q 2119 3494 2547 3981 
L 303 3981 
z
" transform="scale(0.015625)"/>
       </defs>
       <use xlink:href="#ArialMT-31"/>
       <use xlink:href="#ArialMT-37" x="55.615234"/>
      </g>
     </g>
    </g>
    <g id="xtick_3">
     <g id="text_3">
      <!-- 69 -->
      <g style="fill: #444444" transform="translate(204.106664 229.840141)scale(0.09 -0.09)">
       <defs>
        <path id="ArialMT-36" d="M 3184 3459 
L 2625 3416 
Q 2550 3747 2413 3897 
Q 2184 4138 1850 4138 
Q 1581 4138 1378 3988 
Q 1113 3794 959 3422 
Q 806 3050 800 2363 
Q 1003 2672 1297 2822 
Q 1591 2972 1913 2972 
Q 2475 2972 2870 2558 
Q 3266 2144 3266 1488 
Q 3266 1056 3080 686 
Q 2894 316 2569 119 
Q 2244 -78 1831 -78 
Q 1128 -78 684 439 
Q 241 956 241 2144 
Q 241 3472 731 4075 
Q 1159 4600 1884 4600 
Q 2425 4600 2770 4297 
Q 3116 3994 3184 3459 
z
M 888 1484 
Q 888 1194 1011 928 
Q 1134 663 1356 523 
Q 1578 384 1822 384 
Q 2178 384 2434 671 
Q 2691 959 2691 1453 
Q 2691 1928 2437 2201 
Q 2184 2475 1800 2475 
Q 1419 2475 1153 2201 
Q 888 1928 888 1484 
z
" transform="scale(0.015625)"/>
       </defs>
       <use xlink:href="#ArialMT-36"/>
       <use xlink:href="#ArialMT-39" x="55.615234"/>
      </g>
     </g>
    </g>
    <g id="xtick_4">
     <g id="text_4">
      <!-- 15 -->
      <g style="fill: #444444" transform="translate(268.863266 229.840141)scale(0.09 -0.09)">
       <defs>
        <path id="ArialMT-35" d="M 266 1200 
L 856 1250 
Q 922 819 1161 601 
Q 1400 384 1738 384 
Q 2144 384 2425 690 
Q 2706 997 2706 1503 
Q 2706 1984 2436 2262 
Q 2166 2541 1728 2541 
Q 1456 2541 1237 2417 
Q 1019 2294 894 2097 
L 366 2166 
L 809 4519 
L 3088 4519 
L 3088 3981 
L 1259 3981 
L 1013 2750 
Q 1425 3038 1878 3038 
Q 2478 3038 2890 2622 
Q 3303 2206 3303 1553 
Q 3303 931 2941 478 
Q 2500 -78 1738 -78 
Q 1113 -78 717 272 
Q 322 622 266 1200 
z
" transform="scale(0.015625)"/>
       </defs>
       <use xlink:href="#ArialMT-31"/>
       <use xlink:href="#ArialMT-35" x="55.615234"/>
      </g>
     </g>
    </g>
    <g id="xtick_5">
     <g id="text_5">
      <!-- 5 -->
      <g style="fill: #444444" transform="translate(336.122291 229.840141)scale(0.09 -0.09)">
       <use xlink:href="#ArialMT-35"/>
      </g>
     </g>
    </g>
    <g id="xtick_6">
     <g id="text_6">
      <!-- 126 -->
      <g style="fill: #444444" transform="translate(395.87405 229.840141)scale(0.09 -0.09)">
       <defs>
        <path id="ArialMT-32" d="M 3222 541 
L 3222 0 
L 194 0 
Q 188 203 259 391 
Q 375 700 629 1000 
Q 884 1300 1366 1694 
Q 2113 2306 2375 2664 
Q 2638 3022 2638 3341 
Q 2638 3675 2398 3904 
Q 2159 4134 1775 4134 
Q 1369 4134 1125 3890 
Q 881 3647 878 3216 
L 300 3275 
Q 359 3922 746 4261 
Q 1134 4600 1788 4600 
Q 2447 4600 2831 4234 
Q 3216 3869 3216 3328 
Q 3216 3053 3103 2787 
Q 2991 2522 2730 2228 
Q 2469 1934 1863 1422 
Q 1356 997 1212 845 
Q 1069 694 975 541 
L 3222 541 
z
" transform="scale(0.015625)"/>
       </defs>
       <use xlink:href="#ArialMT-31"/>
       <use xlink:href="#ArialMT-32" x="55.615234"/>
       <use xlink:href="#ArialMT-36" x="111.230469"/>
      </g>
     </g>
    </g>
    <g id="xtick_7">
     <g id="text_7">
      <!-- 62 -->
      <g style="fill: #444444" transform="translate(463.133075 229.840141)scale(0.09 -0.09)">
       <use xlink:href="#ArialMT-36"/>
       <use xlink:href="#ArialMT-32" x="55.615234"/>
      </g>
     </g>
    </g>
    <g id="text_8">
     <!-- Patient -->
     <g style="fill: #444444" transform="translate(259.859048 242.070923)scale(0.09 -0.09)">
      <defs>
       <path id="ArialMT-50" d="M 494 0 
L 494 4581 
L 2222 4581 
Q 2678 4581 2919 4538 
Q 3256 4481 3484 4323 
Q 3713 4166 3852 3881 
Q 3991 3597 3991 3256 
Q 3991 2672 3619 2267 
Q 3247 1863 2275 1863 
L 1100 1863 
L 1100 0 
L 494 0 
z
M 1100 2403 
L 2284 2403 
Q 2872 2403 3119 2622 
Q 3366 2841 3366 3238 
Q 3366 3525 3220 3729 
Q 3075 3934 2838 4000 
Q 2684 4041 2272 4041 
L 1100 4041 
L 1100 2403 
z
" transform="scale(0.015625)"/>
       <path id="ArialMT-61" d="M 2588 409 
Q 2275 144 1986 34 
Q 1697 -75 1366 -75 
Q 819 -75 525 192 
Q 231 459 231 875 
Q 231 1119 342 1320 
Q 453 1522 633 1644 
Q 813 1766 1038 1828 
Q 1203 1872 1538 1913 
Q 2219 1994 2541 2106 
Q 2544 2222 2544 2253 
Q 2544 2597 2384 2738 
Q 2169 2928 1744 2928 
Q 1347 2928 1158 2789 
Q 969 2650 878 2297 
L 328 2372 
Q 403 2725 575 2942 
Q 747 3159 1072 3276 
Q 1397 3394 1825 3394 
Q 2250 3394 2515 3294 
Q 2781 3194 2906 3042 
Q 3031 2891 3081 2659 
Q 3109 2516 3109 2141 
L 3109 1391 
Q 3109 606 3145 398 
Q 3181 191 3288 0 
L 2700 0 
Q 2613 175 2588 409 
z
M 2541 1666 
Q 2234 1541 1622 1453 
Q 1275 1403 1131 1340 
Q 988 1278 909 1158 
Q 831 1038 831 891 
Q 831 666 1001 516 
Q 1172 366 1500 366 
Q 1825 366 2078 508 
Q 2331 650 2450 897 
Q 2541 1088 2541 1459 
L 2541 1666 
z
" transform="scale(0.015625)"/>
       <path id="ArialMT-74" d="M 1650 503 
L 1731 6 
Q 1494 -44 1306 -44 
Q 1000 -44 831 53 
Q 663 150 594 308 
Q 525 466 525 972 
L 525 2881 
L 113 2881 
L 113 3319 
L 525 3319 
L 525 4141 
L 1084 4478 
L 1084 3319 
L 1650 3319 
L 1650 2881 
L 1084 2881 
L 1084 941 
Q 1084 700 1114 631 
Q 1144 563 1211 522 
Q 1278 481 1403 481 
Q 1497 481 1650 503 
z
" transform="scale(0.015625)"/>
       <path id="ArialMT-69" d="M 425 3934 
L 425 4581 
L 988 4581 
L 988 3934 
L 425 3934 
z
M 425 0 
L 425 3319 
L 988 3319 
L 988 0 
L 425 0 
z
" transform="scale(0.015625)"/>
       <path id="ArialMT-65" d="M 2694 1069 
L 3275 997 
Q 3138 488 2766 206 
Q 2394 -75 1816 -75 
Q 1088 -75 661 373 
Q 234 822 234 1631 
Q 234 2469 665 2931 
Q 1097 3394 1784 3394 
Q 2450 3394 2872 2941 
Q 3294 2488 3294 1666 
Q 3294 1616 3291 1516 
L 816 1516 
Q 847 969 1125 678 
Q 1403 388 1819 388 
Q 2128 388 2347 550 
Q 2566 713 2694 1069 
z
M 847 1978 
L 2700 1978 
Q 2663 2397 2488 2606 
Q 2219 2931 1791 2931 
Q 1403 2931 1139 2672 
Q 875 2413 847 1978 
z
" transform="scale(0.015625)"/>
       <path id="ArialMT-6e" d="M 422 0 
L 422 3319 
L 928 3319 
L 928 2847 
Q 1294 3394 1984 3394 
Q 2284 3394 2536 3286 
Q 2788 3178 2913 3003 
Q 3038 2828 3088 2588 
Q 3119 2431 3119 2041 
L 3119 0 
L 2556 0 
L 2556 2019 
Q 2556 2363 2490 2533 
Q 2425 2703 2258 2804 
Q 2091 2906 1866 2906 
Q 1506 2906 1245 2678 
Q 984 2450 984 1813 
L 984 0 
L 422 0 
z
" transform="scale(0.015625)"/>
      </defs>
      <use xlink:href="#ArialMT-50"/>
      <use xlink:href="#ArialMT-61" x="66.699219"/>
      <use xlink:href="#ArialMT-74" x="122.314453"/>
      <use xlink:href="#ArialMT-69" x="150.097656"/>
      <use xlink:href="#ArialMT-65" x="172.314453"/>
      <use xlink:href="#ArialMT-6e" x="227.929688"/>
      <use xlink:href="#ArialMT-74" x="283.544922"/>
     </g>
    </g>
   </g>
   <g id="matplotlib.axis_2">
    <g id="ytick_1">
     <g id="text_9">
      <!-- 0 -->
      <g style="fill: #444444" transform="translate(32.715156 213.177673)scale(0.09 -0.09)">
       <defs>
        <path id="ArialMT-30" d="M 266 2259 
Q 266 3072 433 3567 
Q 600 4063 929 4331 
Q 1259 4600 1759 4600 
Q 2128 4600 2406 4451 
Q 2684 4303 2865 4023 
Q 3047 3744 3150 3342 
Q 3253 2941 3253 2259 
Q 3253 1453 3087 958 
Q 2922 463 2592 192 
Q 2263 -78 1759 -78 
Q 1097 -78 719 397 
Q 266 969 266 2259 
z
M 844 2259 
Q 844 1131 1108 757 
Q 1372 384 1759 384 
Q 2147 384 2411 759 
Q 2675 1134 2675 2259 
Q 2675 3391 2411 3762 
Q 2147 4134 1753 4134 
Q 1366 4134 1134 3806 
Q 844 3388 844 2259 
z
" transform="scale(0.015625)"/>
       </defs>
       <use xlink:href="#ArialMT-30"/>
      </g>
     </g>
    </g>
    <g id="ytick_2">
     <g id="text_10">
      <!-- 100 -->
      <g style="fill: #444444" transform="translate(22.705469 186.917399)scale(0.09 -0.09)">
       <use xlink:href="#ArialMT-31"/>
       <use xlink:href="#ArialMT-30" x="55.615234"/>
       <use xlink:href="#ArialMT-30" x="111.230469"/>
      </g>
     </g>
    </g>
    <g id="ytick_3">
     <g id="text_11">
      <!-- 200 -->
      <g style="fill: #444444" transform="translate(22.705469 160.657125)scale(0.09 -0.09)">
       <use xlink:href="#ArialMT-32"/>
       <use xlink:href="#ArialMT-30" x="55.615234"/>
       <use xlink:href="#ArialMT-30" x="111.230469"/>
      </g>
     </g>
    </g>
    <g id="ytick_4">
     <g id="text_12">
      <!-- 300 -->
      <g style="fill: #444444" transform="translate(22.705469 134.396851)scale(0.09 -0.09)">
       <defs>
        <path id="ArialMT-33" d="M 269 1209 
L 831 1284 
Q 928 806 1161 595 
Q 1394 384 1728 384 
Q 2125 384 2398 659 
Q 2672 934 2672 1341 
Q 2672 1728 2419 1979 
Q 2166 2231 1775 2231 
Q 1616 2231 1378 2169 
L 1441 2663 
Q 1497 2656 1531 2656 
Q 1891 2656 2178 2843 
Q 2466 3031 2466 3422 
Q 2466 3731 2256 3934 
Q 2047 4138 1716 4138 
Q 1388 4138 1169 3931 
Q 950 3725 888 3313 
L 325 3413 
Q 428 3978 793 4289 
Q 1159 4600 1703 4600 
Q 2078 4600 2393 4439 
Q 2709 4278 2876 4000 
Q 3044 3722 3044 3409 
Q 3044 3113 2884 2869 
Q 2725 2625 2413 2481 
Q 2819 2388 3044 2092 
Q 3269 1797 3269 1353 
Q 3269 753 2831 336 
Q 2394 -81 1725 -81 
Q 1122 -81 723 278 
Q 325 638 269 1209 
z
" transform="scale(0.015625)"/>
       </defs>
       <use xlink:href="#ArialMT-33"/>
       <use xlink:href="#ArialMT-30" x="55.615234"/>
       <use xlink:href="#ArialMT-30" x="111.230469"/>
      </g>
     </g>
    </g>
    <g id="ytick_5">
     <g id="text_13">
      <!-- 400 -->
      <g style="fill: #444444" transform="translate(22.705469 108.136577)scale(0.09 -0.09)">
       <use xlink:href="#ArialMT-34"/>
       <use xlink:href="#ArialMT-30" x="55.615234"/>
       <use xlink:href="#ArialMT-30" x="111.230469"/>
      </g>
     </g>
    </g>
    <g id="ytick_6">
     <g id="text_14">
      <!-- 500 -->
      <g style="fill: #444444" transform="translate(22.705469 81.876303)scale(0.09 -0.09)">
       <use xlink:href="#ArialMT-35"/>
       <use xlink:href="#ArialMT-30" x="55.615234"/>
       <use xlink:href="#ArialMT-30" x="111.230469"/>
      </g>
     </g>
    </g>
    <g id="ytick_7">
     <g id="text_15">
      <!-- 600 -->
      <g style="fill: #444444" transform="translate(22.705469 55.616029)scale(0.09 -0.09)">
       <use xlink:href="#ArialMT-36"/>
       <use xlink:href="#ArialMT-30" x="55.615234"/>
       <use xlink:href="#ArialMT-30" x="111.230469"/>
      </g>
     </g>
    </g>
    <g id="ytick_8">
     <g id="text_16">
      <!-- 700 -->
      <g style="fill: #444444" transform="translate(22.705469 29.355755)scale(0.09 -0.09)">
       <use xlink:href="#ArialMT-37"/>
       <use xlink:href="#ArialMT-30" x="55.615234"/>
       <use xlink:href="#ArialMT-30" x="111.230469"/>
      </g>
     </g>
    </g>
    <g id="text_17">
     <!-- Trimmed Means of M values (TMM) -->
     <g style="fill: #444444" transform="translate(16.81125 190.194993)rotate(-90)scale(0.09 -0.09)">
      <defs>
       <path id="ArialMT-54" d="M 1659 0 
L 1659 4041 
L 150 4041 
L 150 4581 
L 3781 4581 
L 3781 4041 
L 2266 4041 
L 2266 0 
L 1659 0 
z
" transform="scale(0.015625)"/>
       <path id="ArialMT-72" d="M 416 0 
L 416 3319 
L 922 3319 
L 922 2816 
Q 1116 3169 1280 3281 
Q 1444 3394 1641 3394 
Q 1925 3394 2219 3213 
L 2025 2691 
Q 1819 2813 1613 2813 
Q 1428 2813 1281 2702 
Q 1134 2591 1072 2394 
Q 978 2094 978 1738 
L 978 0 
L 416 0 
z
" transform="scale(0.015625)"/>
       <path id="ArialMT-6d" d="M 422 0 
L 422 3319 
L 925 3319 
L 925 2853 
Q 1081 3097 1340 3245 
Q 1600 3394 1931 3394 
Q 2300 3394 2536 3241 
Q 2772 3088 2869 2813 
Q 3263 3394 3894 3394 
Q 4388 3394 4653 3120 
Q 4919 2847 4919 2278 
L 4919 0 
L 4359 0 
L 4359 2091 
Q 4359 2428 4304 2576 
Q 4250 2725 4106 2815 
Q 3963 2906 3769 2906 
Q 3419 2906 3187 2673 
Q 2956 2441 2956 1928 
L 2956 0 
L 2394 0 
L 2394 2156 
Q 2394 2531 2256 2718 
Q 2119 2906 1806 2906 
Q 1569 2906 1367 2781 
Q 1166 2656 1075 2415 
Q 984 2175 984 1722 
L 984 0 
L 422 0 
z
" transform="scale(0.015625)"/>
       <path id="ArialMT-64" d="M 2575 0 
L 2575 419 
Q 2259 -75 1647 -75 
Q 1250 -75 917 144 
Q 584 363 401 755 
Q 219 1147 219 1656 
Q 219 2153 384 2558 
Q 550 2963 881 3178 
Q 1213 3394 1622 3394 
Q 1922 3394 2156 3267 
Q 2391 3141 2538 2938 
L 2538 4581 
L 3097 4581 
L 3097 0 
L 2575 0 
z
M 797 1656 
Q 797 1019 1065 703 
Q 1334 388 1700 388 
Q 2069 388 2326 689 
Q 2584 991 2584 1609 
Q 2584 2291 2321 2609 
Q 2059 2928 1675 2928 
Q 1300 2928 1048 2622 
Q 797 2316 797 1656 
z
" transform="scale(0.015625)"/>
       <path id="ArialMT-20" transform="scale(0.015625)"/>
       <path id="ArialMT-4d" d="M 475 0 
L 475 4581 
L 1388 4581 
L 2472 1338 
Q 2622 884 2691 659 
Q 2769 909 2934 1394 
L 4031 4581 
L 4847 4581 
L 4847 0 
L 4263 0 
L 4263 3834 
L 2931 0 
L 2384 0 
L 1059 3900 
L 1059 0 
L 475 0 
z
" transform="scale(0.015625)"/>
       <path id="ArialMT-73" d="M 197 991 
L 753 1078 
Q 800 744 1014 566 
Q 1228 388 1613 388 
Q 2000 388 2187 545 
Q 2375 703 2375 916 
Q 2375 1106 2209 1216 
Q 2094 1291 1634 1406 
Q 1016 1563 777 1677 
Q 538 1791 414 1992 
Q 291 2194 291 2438 
Q 291 2659 392 2848 
Q 494 3038 669 3163 
Q 800 3259 1026 3326 
Q 1253 3394 1513 3394 
Q 1903 3394 2198 3281 
Q 2494 3169 2634 2976 
Q 2775 2784 2828 2463 
L 2278 2388 
Q 2241 2644 2061 2787 
Q 1881 2931 1553 2931 
Q 1166 2931 1000 2803 
Q 834 2675 834 2503 
Q 834 2394 903 2306 
Q 972 2216 1119 2156 
Q 1203 2125 1616 2013 
Q 2213 1853 2448 1751 
Q 2684 1650 2818 1456 
Q 2953 1263 2953 975 
Q 2953 694 2789 445 
Q 2625 197 2315 61 
Q 2006 -75 1616 -75 
Q 969 -75 630 194 
Q 291 463 197 991 
z
" transform="scale(0.015625)"/>
       <path id="ArialMT-6f" d="M 213 1659 
Q 213 2581 725 3025 
Q 1153 3394 1769 3394 
Q 2453 3394 2887 2945 
Q 3322 2497 3322 1706 
Q 3322 1066 3130 698 
Q 2938 331 2570 128 
Q 2203 -75 1769 -75 
Q 1072 -75 642 372 
Q 213 819 213 1659 
z
M 791 1659 
Q 791 1022 1069 705 
Q 1347 388 1769 388 
Q 2188 388 2466 706 
Q 2744 1025 2744 1678 
Q 2744 2294 2464 2611 
Q 2184 2928 1769 2928 
Q 1347 2928 1069 2612 
Q 791 2297 791 1659 
z
" transform="scale(0.015625)"/>
       <path id="ArialMT-66" d="M 556 0 
L 556 2881 
L 59 2881 
L 59 3319 
L 556 3319 
L 556 3672 
Q 556 4006 616 4169 
Q 697 4388 901 4523 
Q 1106 4659 1475 4659 
Q 1713 4659 2000 4603 
L 1916 4113 
Q 1741 4144 1584 4144 
Q 1328 4144 1222 4034 
Q 1116 3925 1116 3625 
L 1116 3319 
L 1763 3319 
L 1763 2881 
L 1116 2881 
L 1116 0 
L 556 0 
z
" transform="scale(0.015625)"/>
       <path id="ArialMT-76" d="M 1344 0 
L 81 3319 
L 675 3319 
L 1388 1331 
Q 1503 1009 1600 663 
Q 1675 925 1809 1294 
L 2547 3319 
L 3125 3319 
L 1869 0 
L 1344 0 
z
" transform="scale(0.015625)"/>
       <path id="ArialMT-6c" d="M 409 0 
L 409 4581 
L 972 4581 
L 972 0 
L 409 0 
z
" transform="scale(0.015625)"/>
       <path id="ArialMT-75" d="M 2597 0 
L 2597 488 
Q 2209 -75 1544 -75 
Q 1250 -75 995 37 
Q 741 150 617 320 
Q 494 491 444 738 
Q 409 903 409 1263 
L 409 3319 
L 972 3319 
L 972 1478 
Q 972 1038 1006 884 
Q 1059 663 1231 536 
Q 1403 409 1656 409 
Q 1909 409 2131 539 
Q 2353 669 2445 892 
Q 2538 1116 2538 1541 
L 2538 3319 
L 3100 3319 
L 3100 0 
L 2597 0 
z
" transform="scale(0.015625)"/>
       <path id="ArialMT-28" d="M 1497 -1347 
Q 1031 -759 709 28 
Q 388 816 388 1659 
Q 388 2403 628 3084 
Q 909 3875 1497 4659 
L 1900 4659 
Q 1522 4009 1400 3731 
Q 1209 3300 1100 2831 
Q 966 2247 966 1656 
Q 966 153 1900 -1347 
L 1497 -1347 
z
" transform="scale(0.015625)"/>
       <path id="ArialMT-29" d="M 791 -1347 
L 388 -1347 
Q 1322 153 1322 1656 
Q 1322 2244 1188 2822 
Q 1081 3291 891 3722 
Q 769 4003 388 4659 
L 791 4659 
Q 1378 3875 1659 3084 
Q 1900 2403 1900 1659 
Q 1900 816 1576 28 
Q 1253 -759 791 -1347 
z
" transform="scale(0.015625)"/>
      </defs>
      <use xlink:href="#ArialMT-54"/>
      <use xlink:href="#ArialMT-72" x="57.333984"/>
      <use xlink:href="#ArialMT-69" x="90.634766"/>
      <use xlink:href="#ArialMT-6d" x="112.851562"/>
      <use xlink:href="#ArialMT-6d" x="196.152344"/>
      <use xlink:href="#ArialMT-65" x="279.453125"/>
      <use xlink:href="#ArialMT-64" x="335.068359"/>
      <use xlink:href="#ArialMT-20" x="390.683594"/>
      <use xlink:href="#ArialMT-4d" x="418.466797"/>
      <use xlink:href="#ArialMT-65" x="501.767578"/>
      <use xlink:href="#ArialMT-61" x="557.382812"/>
      <use xlink:href="#ArialMT-6e" x="612.998047"/>
      <use xlink:href="#ArialMT-73" x="668.613281"/>
      <use xlink:href="#ArialMT-20" x="718.613281"/>
      <use xlink:href="#ArialMT-6f" x="746.396484"/>
      <use xlink:href="#ArialMT-66" x="802.011719"/>
      <use xlink:href="#ArialMT-20" x="829.794922"/>
      <use xlink:href="#ArialMT-4d" x="857.578125"/>
      <use xlink:href="#ArialMT-20" x="940.878906"/>
      <use xlink:href="#ArialMT-76" x="968.662109"/>
      <use xlink:href="#ArialMT-61" x="1018.662109"/>
      <use xlink:href="#ArialMT-6c" x="1074.277344"/>
      <use xlink:href="#ArialMT-75" x="1096.494141"/>
      <use xlink:href="#ArialMT-65" x="1152.109375"/>
      <use xlink:href="#ArialMT-73" x="1207.724609"/>
      <use xlink:href="#ArialMT-20" x="1257.724609"/>
      <use xlink:href="#ArialMT-28" x="1285.507812"/>
      <use xlink:href="#ArialMT-54" x="1318.808594"/>
      <use xlink:href="#ArialMT-4d" x="1379.892578"/>
      <use xlink:href="#ArialMT-4d" x="1463.193359"/>
      <use xlink:href="#ArialMT-29" x="1546.494141"/>
     </g>
    </g>
   </g>
   <g id="PolyCollection_1">
    <defs>
     <path id="m731e9d4251" d="M 81.48051 -95.623614 
L 77.716092 -95.623614 
L 77.673936 -95.95067 
L 77.633058 -96.277726 
L 77.593436 -96.604782 
L 77.555029 -96.931838 
L 77.517775 -97.258894 
L 77.481594 -97.58595 
L 77.446381 -97.913006 
L 77.412016 -98.240062 
L 77.378356 -98.567118 
L 77.345238 -98.894174 
L 77.312483 -99.22123 
L 77.279891 -99.548286 
L 77.247246 -99.875343 
L 77.214317 -100.202399 
L 77.180857 -100.529455 
L 77.146608 -100.856511 
L 77.111299 -101.183567 
L 77.074651 -101.510623 
L 77.036378 -101.837679 
L 76.996189 -102.164735 
L 76.953791 -102.491791 
L 76.908892 -102.818847 
L 76.861206 -103.145903 
L 76.810453 -103.472959 
L 76.756364 -103.800015 
L 76.698683 -104.127071 
L 76.637175 -104.454127 
L 76.571626 -104.781183 
L 76.501847 -105.108239 
L 76.42768 -105.435295 
L 76.349001 -105.762351 
L 76.26572 -106.089407 
L 76.177793 -106.416463 
L 76.085216 -106.743519 
L 75.988033 -107.070575 
L 75.886339 -107.397631 
L 75.78028 -107.724687 
L 75.670056 -108.051743 
L 75.555919 -108.378799 
L 75.438179 -108.705855 
L 75.317199 -109.032911 
L 75.193397 -109.359967 
L 75.067242 -109.687023 
L 74.939254 -110.014079 
L 74.809998 -110.341135 
L 74.680083 -110.668191 
L 74.550155 -110.995247 
L 74.420895 -111.322303 
L 74.29301 -111.649359 
L 74.167226 -111.976415 
L 74.044285 -112.303471 
L 73.924934 -112.630527 
L 73.809921 -112.957583 
L 73.699983 -113.284639 
L 73.595841 -113.611695 
L 73.498192 -113.938751 
L 73.407703 -114.265807 
L 73.324997 -114.592863 
L 73.250657 -114.919919 
L 73.18521 -115.246975 
L 73.129126 -115.574031 
L 73.082811 -115.901087 
L 73.046605 -116.228143 
L 73.020779 -116.555199 
L 73.005526 -116.882255 
L 73.00097 -117.209311 
L 73.007156 -117.536367 
L 73.024055 -117.863423 
L 73.051567 -118.190479 
L 73.089517 -118.517535 
L 73.137664 -118.844592 
L 73.195703 -119.171648 
L 73.263268 -119.498704 
L 73.33994 -119.82576 
L 73.425249 -120.152816 
L 73.518685 -120.479872 
L 73.619701 -120.806928 
L 73.72772 -121.133984 
L 73.842144 -121.46104 
L 73.962357 -121.788096 
L 74.087736 -122.115152 
L 74.217655 -122.442208 
L 74.351491 -122.769264 
L 74.488629 -123.09632 
L 74.628473 -123.423376 
L 74.77044 -123.750432 
L 74.913976 -124.077488 
L 75.05855 -124.404544 
L 75.203664 -124.7316 
L 75.348849 -125.058656 
L 75.493673 -125.385712 
L 75.637738 -125.712768 
L 75.780679 -126.039824 
L 75.922171 -126.36688 
L 76.061919 -126.693936 
L 76.199666 -127.020992 
L 76.335186 -127.348048 
L 76.468282 -127.675104 
L 76.598788 -128.00216 
L 82.597815 -128.00216 
L 82.597815 -128.00216 
L 82.728321 -127.675104 
L 82.861417 -127.348048 
L 82.996937 -127.020992 
L 83.134684 -126.693936 
L 83.274432 -126.36688 
L 83.415924 -126.039824 
L 83.558865 -125.712768 
L 83.70293 -125.385712 
L 83.847754 -125.058656 
L 83.992939 -124.7316 
L 84.138053 -124.404544 
L 84.282627 -124.077488 
L 84.426163 -123.750432 
L 84.56813 -123.423376 
L 84.707973 -123.09632 
L 84.845112 -122.769264 
L 84.978948 -122.442208 
L 85.108867 -122.115152 
L 85.234246 -121.788096 
L 85.354459 -121.46104 
L 85.468883 -121.133984 
L 85.576902 -120.806928 
L 85.677918 -120.479872 
L 85.771354 -120.152816 
L 85.856663 -119.82576 
L 85.933335 -119.498704 
L 86.0009 -119.171648 
L 86.058939 -118.844592 
L 86.107086 -118.517535 
L 86.145036 -118.190479 
L 86.172548 -117.863423 
L 86.189447 -117.536367 
L 86.195633 -117.209311 
L 86.191077 -116.882255 
L 86.175824 -116.555199 
L 86.149997 -116.228143 
L 86.113792 -115.901087 
L 86.067477 -115.574031 
L 86.011393 -115.246975 
L 85.945946 -114.919919 
L 85.871605 -114.592863 
L 85.7889 -114.265807 
L 85.698411 -113.938751 
L 85.600762 -113.611695 
L 85.49662 -113.284639 
L 85.386682 -112.957583 
L 85.271669 -112.630527 
L 85.152318 -112.303471 
L 85.029377 -111.976415 
L 84.903593 -111.649359 
L 84.775708 -111.322303 
L 84.646448 -110.995247 
L 84.51652 -110.668191 
L 84.386605 -110.341135 
L 84.257349 -110.014079 
L 84.129361 -109.687023 
L 84.003206 -109.359967 
L 83.879404 -109.032911 
L 83.758424 -108.705855 
L 83.640684 -108.378799 
L 83.526547 -108.051743 
L 83.416323 -107.724687 
L 83.310264 -107.397631 
L 83.20857 -107.070575 
L 83.111387 -106.743519 
L 83.01881 -106.416463 
L 82.930883 -106.089407 
L 82.847602 -105.762351 
L 82.768922 -105.435295 
L 82.694756 -105.108239 
L 82.624977 -104.781183 
L 82.559428 -104.454127 
L 82.49792 -104.127071 
L 82.440239 -103.800015 
L 82.38615 -103.472959 
L 82.335396 -103.145903 
L 82.287711 -102.818847 
L 82.242812 -102.491791 
L 82.200414 -102.164735 
L 82.160225 -101.837679 
L 82.121952 -101.510623 
L 82.085304 -101.183567 
L 82.049995 -100.856511 
L 82.015746 -100.529455 
L 81.982286 -100.202399 
L 81.949357 -99.875343 
L 81.916712 -99.548286 
L 81.88412 -99.22123 
L 81.851365 -98.894174 
L 81.818247 -98.567118 
L 81.784587 -98.240062 
L 81.750222 -97.913006 
L 81.715009 -97.58595 
L 81.678828 -97.258894 
L 81.641574 -96.931838 
L 81.603167 -96.604782 
L 81.563545 -96.277726 
L 81.522666 -95.95067 
L 81.48051 -95.623614 
z
" style="stroke: #999999; stroke-width: 2"/>
    </defs>
    <g clip-path="url(#p89aed56725)">
     <use xlink:href="#m731e9d4251" x="0" y="255.11811" style="fill: #ffffff; stroke: #999999; stroke-width: 2"/>
    </g>
   </g>
   <g id="PolyCollection_2">
    <defs>
     <path id="m069f278573" d="M 163.498877 -49.837187 
L 125.210931 -49.837187 
L 124.614062 -49.925966 
L 124.033628 -50.014745 
L 123.471872 -50.103524 
L 122.930975 -50.192303 
L 122.413043 -50.281083 
L 121.920087 -50.369862 
L 121.454015 -50.458641 
L 121.016615 -50.54742 
L 120.609544 -50.636199 
L 120.23432 -50.724978 
L 119.892308 -50.813758 
L 119.584716 -50.902537 
L 119.312586 -50.991316 
L 119.076793 -51.080095 
L 118.878039 -51.168874 
L 118.716851 -51.257653 
L 118.593582 -51.346433 
L 118.508415 -51.435212 
L 118.46136 -51.523991 
L 118.452263 -51.61277 
L 118.480809 -51.701549 
L 118.546529 -51.790328 
L 118.648805 -51.879107 
L 118.786881 -51.967887 
L 118.959871 -52.056666 
L 119.166764 -52.145445 
L 119.40644 -52.234224 
L 119.677671 -52.323003 
L 119.97914 -52.411782 
L 120.30944 -52.500562 
L 120.667093 -52.589341 
L 121.050552 -52.67812 
L 121.458213 -52.766899 
L 121.888423 -52.855678 
L 122.339487 -52.944457 
L 122.809675 -53.033237 
L 123.29723 -53.122016 
L 123.800376 -53.210795 
L 124.317319 -53.299574 
L 124.84626 -53.388353 
L 125.385394 -53.477132 
L 125.932921 -53.565912 
L 126.487046 -53.654691 
L 127.045986 -53.74347 
L 127.607975 -53.832249 
L 128.171271 -53.921028 
L 128.734154 -54.009807 
L 129.294938 -54.098586 
L 129.851973 -54.187366 
L 130.40365 -54.276145 
L 130.948404 -54.364924 
L 131.484725 -54.453703 
L 132.011157 -54.542482 
L 132.526308 -54.631261 
L 133.028852 -54.720041 
L 133.517539 -54.80882 
L 133.991197 -54.897599 
L 134.448736 -54.986378 
L 134.88916 -55.075157 
L 135.311565 -55.163936 
L 135.715148 -55.252716 
L 136.09921 -55.341495 
L 136.463159 -55.430274 
L 136.806517 -55.519053 
L 137.128918 -55.607832 
L 137.430116 -55.696611 
L 137.709981 -55.78539 
L 137.968503 -55.87417 
L 138.205793 -55.962949 
L 138.422077 -56.051728 
L 138.6177 -56.140507 
L 138.79312 -56.229286 
L 138.948907 -56.318065 
L 139.085735 -56.406845 
L 139.204378 -56.495624 
L 139.305707 -56.584403 
L 139.390678 -56.673182 
L 139.460328 -56.761961 
L 139.515763 -56.85074 
L 139.558151 -56.93952 
L 139.588715 -57.028299 
L 139.608716 -57.117078 
L 139.619449 -57.205857 
L 139.622227 -57.294636 
L 139.618374 -57.383415 
L 139.609213 -57.472195 
L 139.596053 -57.560974 
L 139.580179 -57.649753 
L 139.562845 -57.738532 
L 139.545259 -57.827311 
L 139.528575 -57.91609 
L 139.513887 -58.004869 
L 139.502215 -58.093649 
L 139.494504 -58.182428 
L 139.491615 -58.271207 
L 139.494315 -58.359986 
L 139.503282 -58.448765 
L 139.519093 -58.537544 
L 139.542226 -58.626324 
L 149.167583 -58.626324 
L 149.167583 -58.626324 
L 149.190716 -58.537544 
L 149.206526 -58.448765 
L 149.215493 -58.359986 
L 149.218194 -58.271207 
L 149.215304 -58.182428 
L 149.207594 -58.093649 
L 149.195922 -58.004869 
L 149.181233 -57.91609 
L 149.16455 -57.827311 
L 149.146963 -57.738532 
L 149.129629 -57.649753 
L 149.113756 -57.560974 
L 149.100596 -57.472195 
L 149.091435 -57.383415 
L 149.087582 -57.294636 
L 149.09036 -57.205857 
L 149.101092 -57.117078 
L 149.121094 -57.028299 
L 149.151657 -56.93952 
L 149.194046 -56.85074 
L 149.249481 -56.761961 
L 149.31913 -56.673182 
L 149.404102 -56.584403 
L 149.505431 -56.495624 
L 149.624074 -56.406845 
L 149.760902 -56.318065 
L 149.916689 -56.229286 
L 150.092109 -56.140507 
L 150.287732 -56.051728 
L 150.504016 -55.962949 
L 150.741305 -55.87417 
L 150.999828 -55.78539 
L 151.279693 -55.696611 
L 151.58089 -55.607832 
L 151.903292 -55.519053 
L 152.24665 -55.430274 
L 152.610599 -55.341495 
L 152.99466 -55.252716 
L 153.398243 -55.163936 
L 153.820648 -55.075157 
L 154.261072 -54.986378 
L 154.718612 -54.897599 
L 155.192269 -54.80882 
L 155.680957 -54.720041 
L 156.183501 -54.631261 
L 156.698652 -54.542482 
L 157.225084 -54.453703 
L 157.761404 -54.364924 
L 158.306159 -54.276145 
L 158.857835 -54.187366 
L 159.414871 -54.098586 
L 159.975655 -54.009807 
L 160.538538 -53.921028 
L 161.101833 -53.832249 
L 161.663823 -53.74347 
L 162.222763 -53.654691 
L 162.776888 -53.565912 
L 163.324414 -53.477132 
L 163.863549 -53.388353 
L 164.39249 -53.299574 
L 164.909433 -53.210795 
L 165.412578 -53.122016 
L 165.900134 -53.033237 
L 166.370322 -52.944457 
L 166.821385 -52.855678 
L 167.251596 -52.766899 
L 167.659257 -52.67812 
L 168.042716 -52.589341 
L 168.400369 -52.500562 
L 168.730669 -52.411782 
L 169.032137 -52.323003 
L 169.303369 -52.234224 
L 169.543044 -52.145445 
L 169.749938 -52.056666 
L 169.922928 -51.967887 
L 170.061004 -51.879107 
L 170.16328 -51.790328 
L 170.229 -51.701549 
L 170.257546 -51.61277 
L 170.248449 -51.523991 
L 170.201394 -51.435212 
L 170.116226 -51.346433 
L 169.992958 -51.257653 
L 169.83177 -51.168874 
L 169.633015 -51.080095 
L 169.397223 -50.991316 
L 169.125093 -50.902537 
L 168.817501 -50.813758 
L 168.475489 -50.724978 
L 168.100264 -50.636199 
L 167.693194 -50.54742 
L 167.255794 -50.458641 
L 166.789722 -50.369862 
L 166.296766 -50.281083 
L 165.778833 -50.192303 
L 165.237937 -50.103524 
L 164.676181 -50.014745 
L 164.095747 -49.925966 
L 163.498877 -49.837187 
z
" style="stroke: #999999; stroke-width: 2"/>
    </defs>
    <g clip-path="url(#p89aed56725)">
     <use xlink:href="#m069f278573" x="0" y="255.11811" style="fill: #ffffff; stroke: #999999; stroke-width: 2"/>
    </g>
   </g>
   <g id="PolyCollection_3">
    <defs>
     <path id="m7ae9024a77" d="M 214.599853 -198.924529 
L 203.623162 -198.924529 
L 203.461129 -199.159442 
L 203.302254 -199.394355 
L 203.147015 -199.629268 
L 202.995888 -199.864181 
L 202.849338 -200.099094 
L 202.70782 -200.334007 
L 202.571772 -200.56892 
L 202.441618 -200.803833 
L 202.31776 -201.038746 
L 202.200578 -201.273659 
L 202.090424 -201.508572 
L 201.987627 -201.743485 
L 201.892482 -201.978399 
L 201.805252 -202.213312 
L 201.726166 -202.448225 
L 201.655418 -202.683138 
L 201.593163 -202.918051 
L 201.539516 -203.152964 
L 201.494554 -203.387877 
L 201.458312 -203.62279 
L 201.430784 -203.857703 
L 201.411924 -204.092616 
L 201.401642 -204.327529 
L 201.399812 -204.562442 
L 201.406267 -204.797356 
L 201.4208 -205.032269 
L 201.443171 -205.267182 
L 201.473103 -205.502095 
L 201.510289 -205.737008 
L 201.554391 -205.971921 
L 201.605045 -206.206834 
L 201.661862 -206.441747 
L 201.724435 -206.67666 
L 201.792337 -206.911573 
L 201.865129 -207.146486 
L 201.942361 -207.381399 
L 202.023576 -207.616312 
L 202.108316 -207.851226 
L 202.19612 -208.086139 
L 202.286536 -208.321052 
L 202.379114 -208.555965 
L 202.47342 -208.790878 
L 202.569029 -209.025791 
L 202.665535 -209.260704 
L 202.76255 -209.495617 
L 202.859708 -209.73053 
L 202.956666 -209.965443 
L 203.053106 -210.200356 
L 203.148735 -210.435269 
L 203.24329 -210.670183 
L 203.336533 -210.905096 
L 203.428257 -211.140009 
L 203.518282 -211.374922 
L 203.606459 -211.609835 
L 203.692663 -211.844748 
L 203.7768 -212.079661 
L 203.858801 -212.314574 
L 203.938622 -212.549487 
L 204.016244 -212.7844 
L 204.091669 -213.019313 
L 204.164922 -213.254226 
L 204.236046 -213.489139 
L 204.305102 -213.724053 
L 204.372167 -213.958966 
L 204.43733 -214.193879 
L 204.500696 -214.428792 
L 204.562378 -214.663705 
L 204.622498 -214.898618 
L 204.681185 -215.133531 
L 204.738574 -215.368444 
L 204.794805 -215.603357 
L 204.85002 -215.83827 
L 204.904361 -216.073183 
L 204.957972 -216.308096 
L 205.010996 -216.543009 
L 205.063574 -216.777923 
L 205.115843 -217.012836 
L 205.167938 -217.247749 
L 205.219989 -217.482662 
L 205.27212 -217.717575 
L 205.324453 -217.952488 
L 205.3771 -218.187401 
L 205.430167 -218.422314 
L 205.483754 -218.657227 
L 205.537954 -218.89214 
L 205.592851 -219.127053 
L 205.648521 -219.361966 
L 205.70503 -219.59688 
L 205.762438 -219.831793 
L 205.820795 -220.066706 
L 205.88014 -220.301619 
L 205.940503 -220.536532 
L 206.001905 -220.771445 
L 206.064357 -221.006358 
L 206.127859 -221.241271 
L 206.192401 -221.476184 
L 206.257963 -221.711097 
L 206.324516 -221.94601 
L 206.392018 -222.180923 
L 211.830996 -222.180923 
L 211.830996 -222.180923 
L 211.898499 -221.94601 
L 211.965051 -221.711097 
L 212.030614 -221.476184 
L 212.095156 -221.241271 
L 212.158658 -221.006358 
L 212.22111 -220.771445 
L 212.282512 -220.536532 
L 212.342875 -220.301619 
L 212.40222 -220.066706 
L 212.460576 -219.831793 
L 212.517984 -219.59688 
L 212.574494 -219.361966 
L 212.630164 -219.127053 
L 212.68506 -218.89214 
L 212.73926 -218.657227 
L 212.792848 -218.422314 
L 212.845915 -218.187401 
L 212.898562 -217.952488 
L 212.950894 -217.717575 
L 213.003026 -217.482662 
L 213.055077 -217.247749 
L 213.107172 -217.012836 
L 213.159441 -216.777923 
L 213.212018 -216.543009 
L 213.265042 -216.308096 
L 213.318654 -216.073183 
L 213.372995 -215.83827 
L 213.428209 -215.603357 
L 213.48444 -215.368444 
L 213.54183 -215.133531 
L 213.600517 -214.898618 
L 213.660637 -214.663705 
L 213.722318 -214.428792 
L 213.785684 -214.193879 
L 213.850848 -213.958966 
L 213.917912 -213.724053 
L 213.986968 -213.489139 
L 214.058092 -213.254226 
L 214.131345 -213.019313 
L 214.206771 -212.7844 
L 214.284393 -212.549487 
L 214.364214 -212.314574 
L 214.446215 -212.079661 
L 214.530352 -211.844748 
L 214.616556 -211.609835 
L 214.704732 -211.374922 
L 214.794758 -211.140009 
L 214.886482 -210.905096 
L 214.979725 -210.670183 
L 215.07428 -210.435269 
L 215.169909 -210.200356 
L 215.266348 -209.965443 
L 215.363306 -209.73053 
L 215.460465 -209.495617 
L 215.55748 -209.260704 
L 215.653986 -209.025791 
L 215.749595 -208.790878 
L 215.8439 -208.555965 
L 215.936479 -208.321052 
L 216.026894 -208.086139 
L 216.114699 -207.851226 
L 216.199438 -207.616312 
L 216.280654 -207.381399 
L 216.357885 -207.146486 
L 216.430677 -206.911573 
L 216.498579 -206.67666 
L 216.561152 -206.441747 
L 216.61797 -206.206834 
L 216.668624 -205.971921 
L 216.712726 -205.737008 
L 216.749912 -205.502095 
L 216.779844 -205.267182 
L 216.802215 -205.032269 
L 216.816748 -204.797356 
L 216.823202 -204.562442 
L 216.821372 -204.327529 
L 216.811091 -204.092616 
L 216.79223 -203.857703 
L 216.764702 -203.62279 
L 216.72846 -203.387877 
L 216.683498 -203.152964 
L 216.629852 -202.918051 
L 216.567596 -202.683138 
L 216.496848 -202.448225 
L 216.417763 -202.213312 
L 216.330533 -201.978399 
L 216.235388 -201.743485 
L 216.13259 -201.508572 
L 216.022437 -201.273659 
L 215.905254 -201.038746 
L 215.781396 -200.803833 
L 215.651242 -200.56892 
L 215.515195 -200.334007 
L 215.373677 -200.099094 
L 215.227127 -199.864181 
L 215.076 -199.629268 
L 214.920761 -199.394355 
L 214.761885 -199.159442 
L 214.599853 -198.924529 
z
" style="stroke: #999999; stroke-width: 2"/>
    </defs>
    <g clip-path="url(#p89aed56725)">
     <use xlink:href="#m7ae9024a77" x="0" y="255.11811" style="fill: #ffffff; stroke: #999999; stroke-width: 2"/>
    </g>
   </g>
   <g id="PolyCollection_4">
    <defs>
     <path id="ma3a2988732" d="M 276.533523 -64.766196 
L 271.202698 -64.766196 
L 271.121906 -65.079193 
L 271.042619 -65.39219 
L 270.96496 -65.705188 
L 270.889027 -66.018185 
L 270.814897 -66.331182 
L 270.74262 -66.64418 
L 270.67222 -66.957177 
L 270.603692 -67.270174 
L 270.537006 -67.583172 
L 270.472104 -67.896169 
L 270.408904 -68.209166 
L 270.347296 -68.522164 
L 270.287149 -68.835161 
L 270.228308 -69.148158 
L 270.170601 -69.461156 
L 270.113838 -69.774153 
L 270.057817 -70.08715 
L 270.002326 -70.400148 
L 269.947147 -70.713145 
L 269.89206 -71.026142 
L 269.836846 -71.33914 
L 269.781295 -71.652137 
L 269.725205 -71.965134 
L 269.668394 -72.278132 
L 269.610694 -72.591129 
L 269.551965 -72.904126 
L 269.492093 -73.217124 
L 269.430996 -73.530121 
L 269.368626 -73.843118 
L 269.304973 -74.156116 
L 269.240067 -74.469113 
L 269.173978 -74.78211 
L 269.10682 -75.095108 
L 269.038749 -75.408105 
L 268.969964 -75.721102 
L 268.900705 -76.0341 
L 268.831253 -76.347097 
L 268.761926 -76.660094 
L 268.693076 -76.973092 
L 268.625086 -77.286089 
L 268.558366 -77.599086 
L 268.493347 -77.912083 
L 268.430475 -78.225081 
L 268.370208 -78.538078 
L 268.313006 -78.851075 
L 268.259329 -79.164073 
L 268.209627 -79.47707 
L 268.164337 -79.790067 
L 268.123871 -80.103065 
L 268.088619 -80.416062 
L 268.058933 -80.729059 
L 268.03513 -81.042057 
L 268.017484 -81.355054 
L 268.006222 -81.668051 
L 268.001519 -81.981049 
L 268.003501 -82.294046 
L 268.012236 -82.607043 
L 268.027738 -82.920041 
L 268.049967 -83.233038 
L 268.078828 -83.546035 
L 268.114171 -83.859033 
L 268.155799 -84.17203 
L 268.203467 -84.485027 
L 268.256886 -84.798025 
L 268.315732 -85.111022 
L 268.379645 -85.424019 
L 268.448239 -85.737017 
L 268.521107 -86.050014 
L 268.597826 -86.363011 
L 268.677965 -86.676009 
L 268.761089 -86.989006 
L 268.846768 -87.302003 
L 268.934579 -87.615001 
L 269.024115 -87.927998 
L 269.114989 -88.240995 
L 269.206836 -88.553993 
L 269.299321 -88.86699 
L 269.392139 -89.179987 
L 269.485019 -89.492985 
L 269.577723 -89.805982 
L 269.670053 -90.118979 
L 269.761845 -90.431977 
L 269.85297 -90.744974 
L 269.943336 -91.057971 
L 270.032884 -91.370968 
L 270.121585 -91.683966 
L 270.209436 -91.996963 
L 270.296463 -92.30996 
L 270.382709 -92.622958 
L 270.468236 -92.935955 
L 270.55312 -93.248952 
L 270.637446 -93.56195 
L 270.721301 -93.874947 
L 270.804779 -94.187944 
L 270.887966 -94.500942 
L 270.970947 -94.813939 
L 271.053795 -95.126936 
L 271.136573 -95.439934 
L 271.219328 -95.752931 
L 276.516893 -95.752931 
L 276.516893 -95.752931 
L 276.599648 -95.439934 
L 276.682425 -95.126936 
L 276.765273 -94.813939 
L 276.848254 -94.500942 
L 276.931442 -94.187944 
L 277.014919 -93.874947 
L 277.098775 -93.56195 
L 277.1831 -93.248952 
L 277.267984 -92.935955 
L 277.353512 -92.622958 
L 277.439758 -92.30996 
L 277.526784 -91.996963 
L 277.614636 -91.683966 
L 277.703336 -91.370968 
L 277.792884 -91.057971 
L 277.883251 -90.744974 
L 277.974376 -90.431977 
L 278.066167 -90.118979 
L 278.158497 -89.805982 
L 278.251202 -89.492985 
L 278.344081 -89.179987 
L 278.436899 -88.86699 
L 278.529384 -88.553993 
L 278.621232 -88.240995 
L 278.712105 -87.927998 
L 278.801642 -87.615001 
L 278.889453 -87.302003 
L 278.975131 -86.989006 
L 279.058255 -86.676009 
L 279.138394 -86.363011 
L 279.215113 -86.050014 
L 279.287981 -85.737017 
L 279.356576 -85.424019 
L 279.420489 -85.111022 
L 279.479334 -84.798025 
L 279.532754 -84.485027 
L 279.580422 -84.17203 
L 279.62205 -83.859033 
L 279.657393 -83.546035 
L 279.686253 -83.233038 
L 279.708482 -82.920041 
L 279.723985 -82.607043 
L 279.73272 -82.294046 
L 279.734701 -81.981049 
L 279.729999 -81.668051 
L 279.718736 -81.355054 
L 279.70109 -81.042057 
L 279.677288 -80.729059 
L 279.647602 -80.416062 
L 279.612349 -80.103065 
L 279.571884 -79.790067 
L 279.526593 -79.47707 
L 279.476891 -79.164073 
L 279.423214 -78.851075 
L 279.366013 -78.538078 
L 279.305745 -78.225081 
L 279.242873 -77.912083 
L 279.177854 -77.599086 
L 279.111134 -77.286089 
L 279.043144 -76.973092 
L 278.974295 -76.660094 
L 278.904967 -76.347097 
L 278.835515 -76.0341 
L 278.766256 -75.721102 
L 278.697471 -75.408105 
L 278.6294 -75.095108 
L 278.562242 -74.78211 
L 278.496153 -74.469113 
L 278.431247 -74.156116 
L 278.367594 -73.843118 
L 278.305224 -73.530121 
L 278.244127 -73.217124 
L 278.184255 -72.904126 
L 278.125526 -72.591129 
L 278.067827 -72.278132 
L 278.011015 -71.965134 
L 277.954926 -71.652137 
L 277.899375 -71.33914 
L 277.844161 -71.026142 
L 277.789073 -70.713145 
L 277.733894 -70.400148 
L 277.678403 -70.08715 
L 277.622383 -69.774153 
L 277.56562 -69.461156 
L 277.507913 -69.148158 
L 277.449072 -68.835161 
L 277.388924 -68.522164 
L 277.327316 -68.209166 
L 277.264116 -67.896169 
L 277.199215 -67.583172 
L 277.132529 -67.270174 
L 277.064001 -66.957177 
L 276.9936 -66.64418 
L 276.921323 -66.331182 
L 276.847193 -66.018185 
L 276.771261 -65.705188 
L 276.693601 -65.39219 
L 276.614314 -65.079193 
L 276.533523 -64.766196 
z
" style="stroke: #999999; stroke-width: 2"/>
    </defs>
    <g clip-path="url(#p89aed56725)">
     <use xlink:href="#ma3a2988732" x="0" y="255.11811" style="fill: #ffffff; stroke: #999999; stroke-width: 2"/>
    </g>
   </g>
   <g id="PolyCollection_5">
    <defs>
     <path id="m9eadc76b57" d="M 343.538045 -53.583186 
L 333.711381 -53.583186 
L 333.593179 -53.773127 
L 333.476508 -53.963067 
L 333.361491 -54.153008 
L 333.248238 -54.342949 
L 333.13685 -54.53289 
L 333.027419 -54.72283 
L 332.920024 -54.912771 
L 332.814735 -55.102712 
L 332.711611 -55.292652 
L 332.610703 -55.482593 
L 332.512049 -55.672534 
L 332.415681 -55.862475 
L 332.321622 -56.052415 
L 332.229885 -56.242356 
L 332.140478 -56.432297 
L 332.053402 -56.622237 
L 331.968652 -56.812178 
L 331.88622 -57.002119 
L 331.806093 -57.19206 
L 331.728255 -57.382 
L 331.65269 -57.571941 
L 331.579381 -57.761882 
L 331.508308 -57.951822 
L 331.439458 -58.141763 
L 331.372816 -58.331704 
L 331.308371 -58.521645 
L 331.246117 -58.711585 
L 331.186052 -58.901526 
L 331.12818 -59.091467 
L 331.072509 -59.281408 
L 331.019057 -59.471348 
L 330.967846 -59.661289 
L 330.918907 -59.85123 
L 330.872277 -60.04117 
L 330.828002 -60.231111 
L 330.786133 -60.421052 
L 330.746732 -60.610993 
L 330.709865 -60.800933 
L 330.675605 -60.990874 
L 330.644031 -61.180815 
L 330.615229 -61.370755 
L 330.589287 -61.560696 
L 330.566298 -61.750637 
L 330.546358 -61.940578 
L 330.529565 -62.130518 
L 330.516015 -62.320459 
L 330.505806 -62.5104 
L 330.499036 -62.70034 
L 330.495795 -62.890281 
L 330.496174 -63.080222 
L 330.500256 -63.270163 
L 330.508119 -63.460103 
L 330.519834 -63.650044 
L 330.535461 -63.839985 
L 330.555053 -64.029925 
L 330.578653 -64.219866 
L 330.606291 -64.409807 
L 330.637987 -64.599748 
L 330.673749 -64.789688 
L 330.71357 -64.979629 
L 330.757433 -65.16957 
L 330.805307 -65.359511 
L 330.857148 -65.549451 
L 330.912898 -65.739392 
L 330.972489 -65.929333 
L 331.03584 -66.119273 
L 331.102857 -66.309214 
L 331.173437 -66.499155 
L 331.247467 -66.689096 
L 331.324824 -66.879036 
L 331.405377 -67.068977 
L 331.488988 -67.258918 
L 331.575514 -67.448858 
L 331.664805 -67.638799 
L 331.756709 -67.82874 
L 331.851071 -68.018681 
L 331.947734 -68.208621 
L 332.046541 -68.398562 
L 332.147335 -68.588503 
L 332.249962 -68.778443 
L 332.354269 -68.968384 
L 332.460107 -69.158325 
L 332.56733 -69.348266 
L 332.675799 -69.538206 
L 332.785377 -69.728147 
L 332.895935 -69.918088 
L 333.00735 -70.108028 
L 333.119502 -70.297969 
L 333.232281 -70.48791 
L 333.345579 -70.677851 
L 333.459297 -70.867791 
L 333.573339 -71.057732 
L 333.687617 -71.247673 
L 333.802044 -71.437614 
L 333.916542 -71.627554 
L 334.031032 -71.817495 
L 334.145441 -72.007436 
L 334.259699 -72.197376 
L 334.373737 -72.387317 
L 342.875689 -72.387317 
L 342.875689 -72.387317 
L 342.989727 -72.197376 
L 343.103985 -72.007436 
L 343.218395 -71.817495 
L 343.332885 -71.627554 
L 343.447382 -71.437614 
L 343.56181 -71.247673 
L 343.676087 -71.057732 
L 343.79013 -70.867791 
L 343.903847 -70.677851 
L 344.017145 -70.48791 
L 344.129924 -70.297969 
L 344.242076 -70.108028 
L 344.353491 -69.918088 
L 344.464049 -69.728147 
L 344.573628 -69.538206 
L 344.682096 -69.348266 
L 344.78932 -69.158325 
L 344.895157 -68.968384 
L 344.999464 -68.778443 
L 345.102091 -68.588503 
L 345.202885 -68.398562 
L 345.301692 -68.208621 
L 345.398355 -68.018681 
L 345.492717 -67.82874 
L 345.584621 -67.638799 
L 345.673913 -67.448858 
L 345.760438 -67.258918 
L 345.844049 -67.068977 
L 345.924602 -66.879036 
L 346.001959 -66.689096 
L 346.075989 -66.499155 
L 346.146569 -66.309214 
L 346.213586 -66.119273 
L 346.276937 -65.929333 
L 346.336528 -65.739392 
L 346.392279 -65.549451 
L 346.444119 -65.359511 
L 346.491993 -65.16957 
L 346.535856 -64.979629 
L 346.575678 -64.789688 
L 346.611439 -64.599748 
L 346.643135 -64.409807 
L 346.670773 -64.219866 
L 346.694373 -64.029925 
L 346.713965 -63.839985 
L 346.729593 -63.650044 
L 346.741307 -63.460103 
L 346.74917 -63.270163 
L 346.753252 -63.080222 
L 346.753631 -62.890281 
L 346.750391 -62.70034 
L 346.74362 -62.5104 
L 346.733412 -62.320459 
L 346.719862 -62.130518 
L 346.703068 -61.940578 
L 346.683128 -61.750637 
L 346.660139 -61.560696 
L 346.634197 -61.370755 
L 346.605395 -61.180815 
L 346.573822 -60.990874 
L 346.539562 -60.800933 
L 346.502694 -60.610993 
L 346.463293 -60.421052 
L 346.421425 -60.231111 
L 346.377149 -60.04117 
L 346.330519 -59.85123 
L 346.28158 -59.661289 
L 346.230369 -59.471348 
L 346.176917 -59.281408 
L 346.121247 -59.091467 
L 346.063374 -58.901526 
L 346.003309 -58.711585 
L 345.941055 -58.521645 
L 345.876611 -58.331704 
L 345.809968 -58.141763 
L 345.741118 -57.951822 
L 345.670046 -57.761882 
L 345.596736 -57.571941 
L 345.521171 -57.382 
L 345.443333 -57.19206 
L 345.363206 -57.002119 
L 345.280774 -56.812178 
L 345.196025 -56.622237 
L 345.108949 -56.432297 
L 345.019542 -56.242356 
L 344.927805 -56.052415 
L 344.833745 -55.862475 
L 344.737377 -55.672534 
L 344.638724 -55.482593 
L 344.537815 -55.292652 
L 344.434691 -55.102712 
L 344.329402 -54.912771 
L 344.222007 -54.72283 
L 344.112576 -54.53289 
L 344.001189 -54.342949 
L 343.887936 -54.153008 
L 343.772918 -53.963067 
L 343.656247 -53.773127 
L 343.538045 -53.583186 
z
" style="stroke: #999999; stroke-width: 2"/>
    </defs>
    <g clip-path="url(#p89aed56725)">
     <use xlink:href="#m9eadc76b57" x="0" y="255.11811" style="fill: #ffffff; stroke: #999999; stroke-width: 2"/>
    </g>
   </g>
   <g id="PolyCollection_6">
    <defs>
     <path id="m975d522985" d="M 406.566157 -88.734689 
L 400.196476 -88.734689 
L 400.126327 -89.072025 
L 400.058503 -89.409362 
L 399.993182 -89.746699 
L 399.930536 -90.084035 
L 399.870727 -90.421372 
L 399.813905 -90.758709 
L 399.760206 -91.096045 
L 399.709757 -91.433382 
L 399.662666 -91.770719 
L 399.61903 -92.108056 
L 399.578927 -92.445392 
L 399.542422 -92.782729 
L 399.50956 -93.120066 
L 399.48037 -93.457402 
L 399.454864 -93.794739 
L 399.433035 -94.132076 
L 399.41486 -94.469412 
L 399.400296 -94.806749 
L 399.389284 -95.144086 
L 399.381748 -95.481423 
L 399.377596 -95.818759 
L 399.376719 -96.156096 
L 399.378992 -96.493433 
L 399.384278 -96.830769 
L 399.392424 -97.168106 
L 399.403268 -97.505443 
L 399.416633 -97.84278 
L 399.432335 -98.180116 
L 399.45018 -98.517453 
L 399.469967 -98.85479 
L 399.491489 -99.192126 
L 399.514535 -99.529463 
L 399.53889 -99.8668 
L 399.56434 -100.204136 
L 399.590667 -100.541473 
L 399.617657 -100.87881 
L 399.6451 -101.216147 
L 399.672788 -101.553483 
L 399.700519 -101.89082 
L 399.728099 -102.228157 
L 399.755341 -102.565493 
L 399.782068 -102.90283 
L 399.808113 -103.240167 
L 399.83332 -103.577504 
L 399.857546 -103.91484 
L 399.880661 -104.252177 
L 399.902549 -104.589514 
L 399.923105 -104.92685 
L 399.942243 -105.264187 
L 399.95989 -105.601524 
L 399.975988 -105.93886 
L 399.990495 -106.276197 
L 400.003385 -106.613534 
L 400.014645 -106.950871 
L 400.02428 -107.288207 
L 400.032307 -107.625544 
L 400.038762 -107.962881 
L 400.043689 -108.300217 
L 400.047151 -108.637554 
L 400.04922 -108.974891 
L 400.049983 -109.312228 
L 400.049537 -109.649564 
L 400.04799 -109.986901 
L 400.04546 -110.324238 
L 400.042074 -110.661574 
L 400.037967 -110.998911 
L 400.033281 -111.336248 
L 400.028164 -111.673584 
L 400.02277 -112.010921 
L 400.017255 -112.348258 
L 400.011782 -112.685595 
L 400.006511 -113.022931 
L 400.001607 -113.360268 
L 399.997234 -113.697605 
L 399.993554 -114.034941 
L 399.990728 -114.372278 
L 399.988914 -114.709615 
L 399.988266 -115.046952 
L 399.988933 -115.384288 
L 399.991059 -115.721625 
L 399.99478 -116.058962 
L 400.000228 -116.396298 
L 400.007523 -116.733635 
L 400.01678 -117.070972 
L 400.028101 -117.408308 
L 400.041582 -117.745645 
L 400.057305 -118.082982 
L 400.075343 -118.420319 
L 400.095758 -118.757655 
L 400.118599 -119.094992 
L 400.143904 -119.432329 
L 400.171699 -119.769665 
L 400.201997 -120.107002 
L 400.2348 -120.444339 
L 400.270096 -120.781676 
L 400.307863 -121.119012 
L 400.348066 -121.456349 
L 400.390657 -121.793686 
L 400.435578 -122.131022 
L 406.327054 -122.131022 
L 406.327054 -122.131022 
L 406.371975 -121.793686 
L 406.414566 -121.456349 
L 406.454769 -121.119012 
L 406.492536 -120.781676 
L 406.527832 -120.444339 
L 406.560635 -120.107002 
L 406.590934 -119.769665 
L 406.618729 -119.432329 
L 406.644034 -119.094992 
L 406.666875 -118.757655 
L 406.687289 -118.420319 
L 406.705328 -118.082982 
L 406.72105 -117.745645 
L 406.734531 -117.408308 
L 406.745852 -117.070972 
L 406.755109 -116.733635 
L 406.762404 -116.396298 
L 406.767852 -116.058962 
L 406.771573 -115.721625 
L 406.773699 -115.384288 
L 406.774366 -115.046952 
L 406.773718 -114.709615 
L 406.771904 -114.372278 
L 406.769078 -114.034941 
L 406.765398 -113.697605 
L 406.761025 -113.360268 
L 406.756121 -113.022931 
L 406.750851 -112.685595 
L 406.745377 -112.348258 
L 406.739863 -112.010921 
L 406.734468 -111.673584 
L 406.729351 -111.336248 
L 406.724665 -110.998911 
L 406.720558 -110.661574 
L 406.717172 -110.324238 
L 406.714642 -109.986901 
L 406.713095 -109.649564 
L 406.712649 -109.312228 
L 406.713412 -108.974891 
L 406.715481 -108.637554 
L 406.718943 -108.300217 
L 406.723871 -107.962881 
L 406.730325 -107.625544 
L 406.738353 -107.288207 
L 406.747987 -106.950871 
L 406.759248 -106.613534 
L 406.772137 -106.276197 
L 406.786644 -105.93886 
L 406.802742 -105.601524 
L 406.820389 -105.264187 
L 406.839527 -104.92685 
L 406.860084 -104.589514 
L 406.881971 -104.252177 
L 406.905086 -103.91484 
L 406.929312 -103.577504 
L 406.95452 -103.240167 
L 406.980564 -102.90283 
L 407.007291 -102.565493 
L 407.034533 -102.228157 
L 407.062113 -101.89082 
L 407.089844 -101.553483 
L 407.117532 -101.216147 
L 407.144975 -100.87881 
L 407.171966 -100.541473 
L 407.198293 -100.204136 
L 407.223742 -99.8668 
L 407.248097 -99.529463 
L 407.271143 -99.192126 
L 407.292665 -98.85479 
L 407.312452 -98.517453 
L 407.330297 -98.180116 
L 407.345999 -97.84278 
L 407.359365 -97.505443 
L 407.370208 -97.168106 
L 407.378355 -96.830769 
L 407.38364 -96.493433 
L 407.385914 -96.156096 
L 407.385036 -95.818759 
L 407.380884 -95.481423 
L 407.373348 -95.144086 
L 407.362337 -94.806749 
L 407.347773 -94.469412 
L 407.329597 -94.132076 
L 407.307768 -93.794739 
L 407.282262 -93.457402 
L 407.253072 -93.120066 
L 407.22021 -92.782729 
L 407.183705 -92.445392 
L 407.143603 -92.108056 
L 407.099966 -91.770719 
L 407.052876 -91.433382 
L 407.002426 -91.096045 
L 406.948728 -90.758709 
L 406.891905 -90.421372 
L 406.832096 -90.084035 
L 406.76945 -89.746699 
L 406.70413 -89.409362 
L 406.636305 -89.072025 
L 406.566157 -88.734689 
z
" style="stroke: #999999; stroke-width: 2"/>
    </defs>
    <g clip-path="url(#p89aed56725)">
     <use xlink:href="#m975d522985" x="0" y="255.11811" style="fill: #ffffff; stroke: #999999; stroke-width: 2"/>
    </g>
   </g>
   <g id="PolyCollection_7">
    <defs>
     <path id="m252d1924f2" d="M 468.8897 -136.907128 
L 467.386138 -136.907128 
L 467.368544 -137.578043 
L 467.350791 -138.248958 
L 467.332829 -138.919873 
L 467.314607 -139.590788 
L 467.296071 -140.261703 
L 467.277164 -140.932618 
L 467.257831 -141.603533 
L 467.238014 -142.274448 
L 467.217658 -142.945364 
L 467.196708 -143.616279 
L 467.175112 -144.287194 
L 467.152822 -144.958109 
L 467.129792 -145.629024 
L 467.105982 -146.299939 
L 467.081358 -146.970854 
L 467.055893 -147.641769 
L 467.029564 -148.312684 
L 467.002358 -148.983599 
L 466.974269 -149.654515 
L 466.9453 -150.32543 
L 466.915461 -150.996345 
L 466.884772 -151.66726 
L 466.853263 -152.338175 
L 466.820969 -153.00909 
L 466.787937 -153.680005 
L 466.754222 -154.35092 
L 466.719886 -155.021835 
L 466.684997 -155.692751 
L 466.649633 -156.363666 
L 466.613876 -157.034581 
L 466.577815 -157.705496 
L 466.541541 -158.376411 
L 466.505152 -159.047326 
L 466.468746 -159.718241 
L 466.432423 -160.389156 
L 466.396286 -161.060071 
L 466.360435 -161.730986 
L 466.32497 -162.401902 
L 466.289988 -163.072817 
L 466.255585 -163.743732 
L 466.221848 -164.414647 
L 466.188865 -165.085562 
L 466.156713 -165.756477 
L 466.125466 -166.427392 
L 466.095189 -167.098307 
L 466.06594 -167.769222 
L 466.037769 -168.440138 
L 466.010718 -169.111053 
L 465.984822 -169.781968 
L 465.960104 -170.452883 
L 465.936582 -171.123798 
L 465.914264 -171.794713 
L 465.893153 -172.465628 
L 465.873241 -173.136543 
L 465.854517 -173.807458 
L 465.836961 -174.478373 
L 465.82055 -175.149289 
L 465.805254 -175.820204 
L 465.791042 -176.491119 
L 465.777879 -177.162034 
L 465.765728 -177.832949 
L 465.754552 -178.503864 
L 465.744315 -179.174779 
L 465.73498 -179.845694 
L 465.726514 -180.516609 
L 465.718887 -181.187525 
L 465.712073 -181.85844 
L 465.70605 -182.529355 
L 465.700802 -183.20027 
L 465.696319 -183.871185 
L 465.692598 -184.5421 
L 465.689643 -185.213015 
L 465.687464 -185.88393 
L 465.686081 -186.554845 
L 465.685519 -187.22576 
L 465.685811 -187.896676 
L 465.686998 -188.567591 
L 465.689127 -189.238506 
L 465.69225 -189.909421 
L 465.696427 -190.580336 
L 465.70172 -191.251251 
L 465.708196 -191.922166 
L 465.715927 -192.593081 
L 465.724983 -193.263996 
L 465.735438 -193.934911 
L 465.747364 -194.605827 
L 465.760832 -195.276742 
L 465.775911 -195.947657 
L 465.792664 -196.618572 
L 465.811152 -197.289487 
L 465.831427 -197.960402 
L 465.853536 -198.631317 
L 465.877516 -199.302232 
L 465.903396 -199.973147 
L 465.931195 -200.644063 
L 465.960922 -201.314978 
L 465.992573 -201.985893 
L 466.026134 -202.656808 
L 466.061579 -203.327723 
L 470.214259 -203.327723 
L 470.214259 -203.327723 
L 470.249704 -202.656808 
L 470.283265 -201.985893 
L 470.314916 -201.314978 
L 470.344643 -200.644063 
L 470.372442 -199.973147 
L 470.398322 -199.302232 
L 470.422302 -198.631317 
L 470.444411 -197.960402 
L 470.464686 -197.289487 
L 470.483174 -196.618572 
L 470.499927 -195.947657 
L 470.515006 -195.276742 
L 470.528474 -194.605827 
L 470.5404 -193.934911 
L 470.550855 -193.263996 
L 470.559911 -192.593081 
L 470.567642 -191.922166 
L 470.574118 -191.251251 
L 470.579411 -190.580336 
L 470.583588 -189.909421 
L 470.586711 -189.238506 
L 470.58884 -188.567591 
L 470.590027 -187.896676 
L 470.590319 -187.22576 
L 470.589757 -186.554845 
L 470.588374 -185.88393 
L 470.586195 -185.213015 
L 470.58324 -184.5421 
L 470.579519 -183.871185 
L 470.575036 -183.20027 
L 470.569788 -182.529355 
L 470.563765 -181.85844 
L 470.556951 -181.187525 
L 470.549324 -180.516609 
L 470.540858 -179.845694 
L 470.531523 -179.174779 
L 470.521286 -178.503864 
L 470.51011 -177.832949 
L 470.497959 -177.162034 
L 470.484796 -176.491119 
L 470.470584 -175.820204 
L 470.455288 -175.149289 
L 470.438877 -174.478373 
L 470.421321 -173.807458 
L 470.402597 -173.136543 
L 470.382685 -172.465628 
L 470.361574 -171.794713 
L 470.339256 -171.123798 
L 470.315734 -170.452883 
L 470.291016 -169.781968 
L 470.26512 -169.111053 
L 470.238069 -168.440138 
L 470.209898 -167.769222 
L 470.180649 -167.098307 
L 470.150372 -166.427392 
L 470.119125 -165.756477 
L 470.086973 -165.085562 
L 470.05399 -164.414647 
L 470.020253 -163.743732 
L 469.98585 -163.072817 
L 469.950868 -162.401902 
L 469.915403 -161.730986 
L 469.879552 -161.060071 
L 469.843415 -160.389156 
L 469.807092 -159.718241 
L 469.770686 -159.047326 
L 469.734297 -158.376411 
L 469.698023 -157.705496 
L 469.661962 -157.034581 
L 469.626205 -156.363666 
L 469.590841 -155.692751 
L 469.555952 -155.021835 
L 469.521616 -154.35092 
L 469.487901 -153.680005 
L 469.454869 -153.00909 
L 469.422575 -152.338175 
L 469.391066 -151.66726 
L 469.360377 -150.996345 
L 469.330538 -150.32543 
L 469.301569 -149.654515 
L 469.27348 -148.983599 
L 469.246274 -148.312684 
L 469.219945 -147.641769 
L 469.19448 -146.970854 
L 469.169856 -146.299939 
L 469.146046 -145.629024 
L 469.123016 -144.958109 
L 469.100726 -144.287194 
L 469.07913 -143.616279 
L 469.05818 -142.945364 
L 469.037824 -142.274448 
L 469.018007 -141.603533 
L 468.998674 -140.932618 
L 468.979767 -140.261703 
L 468.961231 -139.590788 
L 468.943009 -138.919873 
L 468.925047 -138.248958 
L 468.907294 -137.578043 
L 468.8897 -136.907128 
z
" style="stroke: #999999; stroke-width: 2"/>
    </defs>
    <g clip-path="url(#p89aed56725)">
     <use xlink:href="#m252d1924f2" x="0" y="255.11811" style="fill: #ffffff; stroke: #999999; stroke-width: 2"/>
    </g>
   </g>
   <g id="PathCollection_1"/>
   <g id="PathCollection_2"/>
   <g id="patch_3">
    <path d="M 47.22 213.89811 
L 47.22 24.32 
" style="fill: none; stroke: #262626; stroke-width: 1.25; stroke-linejoin: miter; stroke-linecap: square"/>
   </g>
   <g id="patch_4">
    <path d="M 47.22 213.89811 
L 500.51622 213.89811 
" style="fill: none; stroke: #262626; stroke-width: 1.25; stroke-linejoin: miter; stroke-linecap: square"/>
   </g>
   <g id="PathCollection_3">
    <defs>
     <path id="C0_0_039b86442e" d="M 0 2.5 
C 0.663008 2.5 1.29895 2.236584 1.767767 1.767767 
C 2.236584 1.29895 2.5 0.663008 2.5 -0 
C 2.5 -0.663008 2.236584 -1.29895 1.767767 -1.767767 
C 1.29895 -2.236584 0.663008 -2.5 0 -2.5 
C -0.663008 -2.5 -1.29895 -2.236584 -1.767767 -1.767767 
C -2.236584 -1.29895 -2.5 -0.663008 -2.5 0 
C -2.5 0.663008 -2.236584 1.29895 -1.767767 1.767767 
C -1.29895 2.236584 -0.663008 2.5 0 2.5 
z
"/>
    </defs>
    <g clip-path="url(#p89aed56725)">
     <use xlink:href="#C0_0_039b86442e" x="80.387014" y="159.494496" style="fill: #4c72b0; fill-opacity: 0.75"/>
    </g>
    <g clip-path="url(#p89aed56725)">
     <use xlink:href="#C0_0_039b86442e" x="85.661119" y="140.749859" style="fill: #4c72b0; fill-opacity: 0.75"/>
    </g>
    <g clip-path="url(#p89aed56725)">
     <use xlink:href="#C0_0_039b86442e" x="82.409381" y="134.717068" style="fill: #4c72b0; fill-opacity: 0.75"/>
    </g>
    <g clip-path="url(#p89aed56725)">
     <use xlink:href="#C0_0_039b86442e" x="74.561969" y="127.11595" style="fill: #4c72b0; fill-opacity: 0.75"/>
    </g>
    <g clip-path="url(#p89aed56725)">
     <use xlink:href="#C0_0_039b86442e" x="81.780835" y="139.659523" style="fill: #dd8452; fill-opacity: 0.75"/>
    </g>
    <g clip-path="url(#p89aed56725)">
     <use xlink:href="#C0_0_039b86442e" x="74.667768" y="151.014956" style="fill: #dd8452; fill-opacity: 0.75"/>
    </g>
    <g clip-path="url(#p89aed56725)">
     <use xlink:href="#C0_0_039b86442e" x="74.344089" y="137.872998" style="fill: #dd8452; fill-opacity: 0.75"/>
    </g>
    <g clip-path="url(#p89aed56725)">
     <use xlink:href="#C0_0_039b86442e" x="76.738132" y="137.495951" style="fill: #dd8452; fill-opacity: 0.75"/>
    </g>
   </g>
   <g id="PathCollection_4">
    <defs>
     <path id="C1_0_04cca83a6b" d="M 0 2.5 
C 0.663008 2.5 1.29895 2.236584 1.767767 1.767767 
C 2.236584 1.29895 2.5 0.663008 2.5 -0 
C 2.5 -0.663008 2.236584 -1.29895 1.767767 -1.767767 
C 1.29895 -2.236584 0.663008 -2.5 0 -2.5 
C -0.663008 -2.5 -1.29895 -2.236584 -1.767767 -1.767767 
C -2.236584 -1.29895 -2.5 -0.663008 -2.5 0 
C -2.5 0.663008 -2.236584 1.29895 -1.767767 1.767767 
C -1.29895 2.236584 -0.663008 2.5 0 2.5 
z
"/>
    </defs>
    <g clip-path="url(#p89aed56725)">
     <use xlink:href="#C1_0_04cca83a6b" x="146.509012" y="201.366141" style="fill: #4c72b0; fill-opacity: 0.75"/>
    </g>
    <g clip-path="url(#p89aed56725)">
     <use xlink:href="#C1_0_04cca83a6b" x="145.236652" y="196.491787" style="fill: #4c72b0; fill-opacity: 0.75"/>
    </g>
    <g clip-path="url(#p89aed56725)">
     <use xlink:href="#C1_0_04cca83a6b" x="140.04049" y="203.631538" style="fill: #4c72b0; fill-opacity: 0.75"/>
    </g>
    <g clip-path="url(#p89aed56725)">
     <use xlink:href="#C1_0_04cca83a6b" x="142.537605" y="203.989974" style="fill: #4c72b0; fill-opacity: 0.75"/>
    </g>
    <g clip-path="url(#p89aed56725)">
     <use xlink:href="#C1_0_04cca83a6b" x="141.320331" y="203.211543" style="fill: #dd8452; fill-opacity: 0.75"/>
    </g>
    <g clip-path="url(#p89aed56725)">
     <use xlink:href="#C1_0_04cca83a6b" x="146.743301" y="201.871903" style="fill: #dd8452; fill-opacity: 0.75"/>
    </g>
    <g clip-path="url(#p89aed56725)">
     <use xlink:href="#C1_0_04cca83a6b" x="144.435307" y="204.476367" style="fill: #dd8452; fill-opacity: 0.75"/>
    </g>
    <g clip-path="url(#p89aed56725)">
     <use xlink:href="#C1_0_04cca83a6b" x="148.860546" y="205.280923" style="fill: #dd8452; fill-opacity: 0.75"/>
    </g>
   </g>
   <g id="PathCollection_5">
    <defs>
     <path id="C2_0_cc51d20723" d="M 0 2.5 
C 0.663008 2.5 1.29895 2.236584 1.767767 1.767767 
C 2.236584 1.29895 2.5 0.663008 2.5 -0 
C 2.5 -0.663008 2.236584 -1.29895 1.767767 -1.767767 
C 1.29895 -2.236584 0.663008 -2.5 0 -2.5 
C -0.663008 -2.5 -1.29895 -2.236584 -1.767767 -1.767767 
C -2.236584 -1.29895 -2.5 -0.663008 -2.5 0 
C -2.5 0.663008 -2.236584 1.29895 -1.767767 1.767767 
C -1.29895 2.236584 -0.663008 2.5 0 2.5 
z
"/>
    </defs>
    <g clip-path="url(#p89aed56725)">
     <use xlink:href="#C2_0_cc51d20723" x="203.439562" y="43.162097" style="fill: #4c72b0; fill-opacity: 0.75"/>
    </g>
    <g clip-path="url(#p89aed56725)">
     <use xlink:href="#C2_0_cc51d20723" x="213.422234" y="38.873173" style="fill: #4c72b0; fill-opacity: 0.75"/>
    </g>
    <g clip-path="url(#p89aed56725)">
     <use xlink:href="#C2_0_cc51d20723" x="204.774216" y="53.971578" style="fill: #4c72b0; fill-opacity: 0.75"/>
    </g>
    <g clip-path="url(#p89aed56725)">
     <use xlink:href="#C2_0_cc51d20723" x="212.005172" y="56.193582" style="fill: #4c72b0; fill-opacity: 0.75"/>
    </g>
    <g clip-path="url(#p89aed56725)">
     <use xlink:href="#C2_0_cc51d20723" x="206.077705" y="50.486297" style="fill: #dd8452; fill-opacity: 0.75"/>
    </g>
    <g clip-path="url(#p89aed56725)">
     <use xlink:href="#C2_0_cc51d20723" x="208.080231" y="32.937187" style="fill: #dd8452; fill-opacity: 0.75"/>
    </g>
    <g clip-path="url(#p89aed56725)">
     <use xlink:href="#C2_0_cc51d20723" x="203.648161" y="49.577048" style="fill: #dd8452; fill-opacity: 0.75"/>
    </g>
    <g clip-path="url(#p89aed56725)">
     <use xlink:href="#C2_0_cc51d20723" x="210.703465" y="49.547314" style="fill: #dd8452; fill-opacity: 0.75"/>
    </g>
   </g>
   <g id="PathCollection_6">
    <defs>
     <path id="C3_0_186b19818c" d="M 0 2.5 
C 0.663008 2.5 1.29895 2.236584 1.767767 1.767767 
C 2.236584 1.29895 2.5 0.663008 2.5 -0 
C 2.5 -0.663008 2.236584 -1.29895 1.767767 -1.767767 
C 1.29895 -2.236584 0.663008 -2.5 0 -2.5 
C -0.663008 -2.5 -1.29895 -2.236584 -1.767767 -1.767767 
C -2.236584 -1.29895 -2.5 -0.663008 -2.5 0 
C -2.5 0.663008 -2.236584 1.29895 -1.767767 1.767767 
C -1.29895 2.236584 -0.663008 2.5 0 2.5 
z
"/>
    </defs>
    <g clip-path="url(#p89aed56725)">
     <use xlink:href="#C3_0_186b19818c" x="274.751672" y="176.800637" style="fill: #4c72b0; fill-opacity: 0.75"/>
    </g>
    <g clip-path="url(#p89aed56725)">
     <use xlink:href="#C3_0_186b19818c" x="279.313913" y="183.180916" style="fill: #4c72b0; fill-opacity: 0.75"/>
    </g>
    <g clip-path="url(#p89aed56725)">
     <use xlink:href="#C3_0_186b19818c" x="274.601215" y="186.177383" style="fill: #4c72b0; fill-opacity: 0.75"/>
    </g>
    <g clip-path="url(#p89aed56725)">
     <use xlink:href="#C3_0_186b19818c" x="276.581183" y="172.201812" style="fill: #4c72b0; fill-opacity: 0.75"/>
    </g>
    <g clip-path="url(#p89aed56725)">
     <use xlink:href="#C3_0_186b19818c" x="280.096587" y="190.351914" style="fill: #4c72b0; fill-opacity: 0.75"/>
    </g>
    <g clip-path="url(#p89aed56725)">
     <use xlink:href="#C3_0_186b19818c" x="279.336411" y="159.365179" style="fill: #dd8452; fill-opacity: 0.75"/>
    </g>
    <g clip-path="url(#p89aed56725)">
     <use xlink:href="#C3_0_186b19818c" x="274.852205" y="173.642852" style="fill: #dd8452; fill-opacity: 0.75"/>
    </g>
    <g clip-path="url(#p89aed56725)">
     <use xlink:href="#C3_0_186b19818c" x="276.728091" y="170.755383" style="fill: #dd8452; fill-opacity: 0.75"/>
    </g>
    <g clip-path="url(#p89aed56725)">
     <use xlink:href="#C3_0_186b19818c" x="277.364999" y="171.453148" style="fill: #dd8452; fill-opacity: 0.75"/>
    </g>
    <g clip-path="url(#p89aed56725)">
     <use xlink:href="#C3_0_186b19818c" x="268.926404" y="162.238247" style="fill: #dd8452; fill-opacity: 0.75"/>
    </g>
   </g>
   <g id="PathCollection_7">
    <defs>
     <path id="C4_0_df8277e58b" d="M 0 2.5 
C 0.663008 2.5 1.29895 2.236584 1.767767 1.767767 
C 2.236584 1.29895 2.5 0.663008 2.5 -0 
C 2.5 -0.663008 2.236584 -1.29895 1.767767 -1.767767 
C 1.29895 -2.236584 0.663008 -2.5 0 -2.5 
C -0.663008 -2.5 -1.29895 -2.236584 -1.767767 -1.767767 
C -2.236584 -1.29895 -2.5 -0.663008 -2.5 0 
C -2.5 0.663008 -2.236584 1.29895 -1.767767 1.767767 
C -1.29895 2.236584 -0.663008 2.5 0 2.5 
z
"/>
    </defs>
    <g clip-path="url(#p89aed56725)">
     <use xlink:href="#C4_0_df8277e58b" x="337.575677" y="197.592659" style="fill: #4c72b0; fill-opacity: 0.75"/>
    </g>
    <g clip-path="url(#p89aed56725)">
     <use xlink:href="#C4_0_df8277e58b" x="340.191922" y="201.534924" style="fill: #4c72b0; fill-opacity: 0.75"/>
    </g>
    <g clip-path="url(#p89aed56725)">
     <use xlink:href="#C4_0_df8277e58b" x="338.542166" y="194.008258" style="fill: #4c72b0; fill-opacity: 0.75"/>
    </g>
    <g clip-path="url(#p89aed56725)">
     <use xlink:href="#C4_0_df8277e58b" x="338.66928" y="189.035655" style="fill: #dd8452; fill-opacity: 0.75"/>
    </g>
    <g clip-path="url(#p89aed56725)">
     <use xlink:href="#C4_0_df8277e58b" x="336.289825" y="182.730793" style="fill: #dd8452; fill-opacity: 0.75"/>
    </g>
    <g clip-path="url(#p89aed56725)">
     <use xlink:href="#C4_0_df8277e58b" x="344.177092" y="189.906984" style="fill: #dd8452; fill-opacity: 0.75"/>
    </g>
   </g>
   <g id="PathCollection_8">
    <defs>
     <path id="C5_0_e8b7525698" d="M 0 2.5 
C 0.663008 2.5 1.29895 2.236584 1.767767 1.767767 
C 2.236584 1.29895 2.5 0.663008 2.5 -0 
C 2.5 -0.663008 2.236584 -1.29895 1.767767 -1.767767 
C 1.29895 -2.236584 0.663008 -2.5 0 -2.5 
C -0.663008 -2.5 -1.29895 -2.236584 -1.767767 -1.767767 
C -2.236584 -1.29895 -2.5 -0.663008 -2.5 0 
C -2.5 0.663008 -2.236584 1.29895 -1.767767 1.767767 
C -1.29895 2.236584 -0.663008 2.5 0 2.5 
z
"/>
    </defs>
    <g clip-path="url(#p89aed56725)">
     <use xlink:href="#C5_0_e8b7525698" x="409.54879" y="132.987088" style="fill: #4c72b0; fill-opacity: 0.75"/>
    </g>
    <g clip-path="url(#p89aed56725)">
     <use xlink:href="#C5_0_e8b7525698" x="402.696389" y="140.173002" style="fill: #4c72b0; fill-opacity: 0.75"/>
    </g>
    <g clip-path="url(#p89aed56725)">
     <use xlink:href="#C5_0_e8b7525698" x="409.114286" y="146.361963" style="fill: #4c72b0; fill-opacity: 0.75"/>
    </g>
    <g clip-path="url(#p89aed56725)">
     <use xlink:href="#C5_0_e8b7525698" x="406.136155" y="133.659508" style="fill: #4c72b0; fill-opacity: 0.75"/>
    </g>
    <g clip-path="url(#p89aed56725)">
     <use xlink:href="#C5_0_e8b7525698" x="404.88364" y="160.851437" style="fill: #dd8452; fill-opacity: 0.75"/>
    </g>
    <g clip-path="url(#p89aed56725)">
     <use xlink:href="#C5_0_e8b7525698" x="402.311856" y="159.664068" style="fill: #dd8452; fill-opacity: 0.75"/>
    </g>
    <g clip-path="url(#p89aed56725)">
     <use xlink:href="#C5_0_e8b7525698" x="399.660947" y="158.310792" style="fill: #dd8452; fill-opacity: 0.75"/>
    </g>
    <g clip-path="url(#p89aed56725)">
     <use xlink:href="#C5_0_e8b7525698" x="401.912787" y="166.383422" style="fill: #dd8452; fill-opacity: 0.75"/>
    </g>
   </g>
   <g id="PathCollection_9">
    <defs>
     <path id="C6_0_9973185df0" d="M 0 2.5 
C 0.663008 2.5 1.29895 2.236584 1.767767 1.767767 
C 2.236584 1.29895 2.5 0.663008 2.5 -0 
C 2.5 -0.663008 2.236584 -1.29895 1.767767 -1.767767 
C 1.29895 -2.236584 0.663008 -2.5 0 -2.5 
C -0.663008 -2.5 -1.29895 -2.236584 -1.767767 -1.767767 
C -2.236584 -1.29895 -2.5 -0.663008 -2.5 0 
C -2.5 0.663008 -2.236584 1.29895 -1.767767 1.767767 
C -1.29895 2.236584 -0.663008 2.5 0 2.5 
z
"/>
    </defs>
    <g clip-path="url(#p89aed56725)">
     <use xlink:href="#C6_0_9973185df0" x="461.935369" y="51.790387" style="fill: #4c72b0; fill-opacity: 0.75"/>
    </g>
    <g clip-path="url(#p89aed56725)">
     <use xlink:href="#C6_0_9973185df0" x="471.675455" y="52.63372" style="fill: #4c72b0; fill-opacity: 0.75"/>
    </g>
    <g clip-path="url(#p89aed56725)">
     <use xlink:href="#C6_0_9973185df0" x="473.739852" y="55.377762" style="fill: #4c72b0; fill-opacity: 0.75"/>
    </g>
    <g clip-path="url(#p89aed56725)">
     <use xlink:href="#C6_0_9973185df0" x="462.992458" y="70.890477" style="fill: #4c72b0; fill-opacity: 0.75"/>
    </g>
    <g clip-path="url(#p89aed56725)">
     <use xlink:href="#C6_0_9973185df0" x="462.514169" y="77.948928" style="fill: #dd8452; fill-opacity: 0.75"/>
    </g>
    <g clip-path="url(#p89aed56725)">
     <use xlink:href="#C6_0_9973185df0" x="467.355006" y="118.210983" style="fill: #dd8452; fill-opacity: 0.75"/>
    </g>
    <g clip-path="url(#p89aed56725)">
     <use xlink:href="#C6_0_9973185df0" x="474.424009" y="88.668041" style="fill: #dd8452; fill-opacity: 0.75"/>
    </g>
    <g clip-path="url(#p89aed56725)">
     <use xlink:href="#C6_0_9973185df0" x="466.899991" y="89.550719" style="fill: #dd8452; fill-opacity: 0.75"/>
    </g>
   </g>
   <g id="text_18">
    <!-- ENSG00000285417, $p_{adj}$ &lt; .001 *** -->
    <g style="fill: #262626" transform="translate(47.22 18.32)scale(0.09 -0.09)">
     <defs>
      <path id="ArialMT-45" d="M 506 0 
L 506 4581 
L 3819 4581 
L 3819 4041 
L 1113 4041 
L 1113 2638 
L 3647 2638 
L 3647 2100 
L 1113 2100 
L 1113 541 
L 3925 541 
L 3925 0 
L 506 0 
z
" transform="scale(0.015625)"/>
      <path id="ArialMT-4e" d="M 488 0 
L 488 4581 
L 1109 4581 
L 3516 984 
L 3516 4581 
L 4097 4581 
L 4097 0 
L 3475 0 
L 1069 3600 
L 1069 0 
L 488 0 
z
" transform="scale(0.015625)"/>
      <path id="ArialMT-53" d="M 288 1472 
L 859 1522 
Q 900 1178 1048 958 
Q 1197 738 1509 602 
Q 1822 466 2213 466 
Q 2559 466 2825 569 
Q 3091 672 3220 851 
Q 3350 1031 3350 1244 
Q 3350 1459 3225 1620 
Q 3100 1781 2813 1891 
Q 2628 1963 1997 2114 
Q 1366 2266 1113 2400 
Q 784 2572 623 2826 
Q 463 3081 463 3397 
Q 463 3744 659 4045 
Q 856 4347 1234 4503 
Q 1613 4659 2075 4659 
Q 2584 4659 2973 4495 
Q 3363 4331 3572 4012 
Q 3781 3694 3797 3291 
L 3216 3247 
Q 3169 3681 2898 3903 
Q 2628 4125 2100 4125 
Q 1550 4125 1298 3923 
Q 1047 3722 1047 3438 
Q 1047 3191 1225 3031 
Q 1400 2872 2139 2705 
Q 2878 2538 3153 2413 
Q 3553 2228 3743 1945 
Q 3934 1663 3934 1294 
Q 3934 928 3725 604 
Q 3516 281 3123 101 
Q 2731 -78 2241 -78 
Q 1619 -78 1198 103 
Q 778 284 539 648 
Q 300 1013 288 1472 
z
" transform="scale(0.015625)"/>
      <path id="ArialMT-47" d="M 2638 1797 
L 2638 2334 
L 4578 2338 
L 4578 638 
Q 4131 281 3656 101 
Q 3181 -78 2681 -78 
Q 2006 -78 1454 211 
Q 903 500 622 1047 
Q 341 1594 341 2269 
Q 341 2938 620 3517 
Q 900 4097 1425 4378 
Q 1950 4659 2634 4659 
Q 3131 4659 3532 4498 
Q 3934 4338 4162 4050 
Q 4391 3763 4509 3300 
L 3963 3150 
Q 3859 3500 3706 3700 
Q 3553 3900 3268 4020 
Q 2984 4141 2638 4141 
Q 2222 4141 1919 4014 
Q 1616 3888 1430 3681 
Q 1244 3475 1141 3228 
Q 966 2803 966 2306 
Q 966 1694 1177 1281 
Q 1388 869 1791 669 
Q 2194 469 2647 469 
Q 3041 469 3416 620 
Q 3791 772 3984 944 
L 3984 1797 
L 2638 1797 
z
" transform="scale(0.015625)"/>
      <path id="ArialMT-38" d="M 1131 2484 
Q 781 2613 612 2850 
Q 444 3088 444 3419 
Q 444 3919 803 4259 
Q 1163 4600 1759 4600 
Q 2359 4600 2725 4251 
Q 3091 3903 3091 3403 
Q 3091 3084 2923 2848 
Q 2756 2613 2416 2484 
Q 2838 2347 3058 2040 
Q 3278 1734 3278 1309 
Q 3278 722 2862 322 
Q 2447 -78 1769 -78 
Q 1091 -78 675 323 
Q 259 725 259 1325 
Q 259 1772 486 2073 
Q 713 2375 1131 2484 
z
M 1019 3438 
Q 1019 3113 1228 2906 
Q 1438 2700 1772 2700 
Q 2097 2700 2305 2904 
Q 2513 3109 2513 3406 
Q 2513 3716 2298 3927 
Q 2084 4138 1766 4138 
Q 1444 4138 1231 3931 
Q 1019 3725 1019 3438 
z
M 838 1322 
Q 838 1081 952 856 
Q 1066 631 1291 507 
Q 1516 384 1775 384 
Q 2178 384 2440 643 
Q 2703 903 2703 1303 
Q 2703 1709 2433 1975 
Q 2163 2241 1756 2241 
Q 1359 2241 1098 1978 
Q 838 1716 838 1322 
z
" transform="scale(0.015625)"/>
      <path id="ArialMT-2c" d="M 569 0 
L 569 641 
L 1209 641 
L 1209 0 
Q 1209 -353 1084 -570 
Q 959 -788 688 -906 
L 531 -666 
Q 709 -588 793 -436 
Q 878 -284 888 0 
L 569 0 
z
" transform="scale(0.015625)"/>
      <path id="DejaVuSans-Oblique-70" d="M 3175 2156 
Q 3175 2616 2975 2859 
Q 2775 3103 2400 3103 
Q 2144 3103 1911 2972 
Q 1678 2841 1497 2591 
Q 1319 2344 1212 1994 
Q 1106 1644 1106 1300 
Q 1106 863 1306 627 
Q 1506 391 1875 391 
Q 2147 391 2380 519 
Q 2613 647 2778 891 
Q 2956 1147 3065 1494 
Q 3175 1841 3175 2156 
z
M 1394 2969 
Q 1625 3272 1939 3428 
Q 2253 3584 2638 3584 
Q 3175 3584 3472 3232 
Q 3769 2881 3769 2247 
Q 3769 1728 3584 1258 
Q 3400 788 3053 416 
Q 2822 169 2531 39 
Q 2241 -91 1919 -91 
Q 1547 -91 1294 64 
Q 1041 219 916 525 
L 556 -1331 
L -19 -1331 
L 922 3500 
L 1497 3500 
L 1394 2969 
z
" transform="scale(0.015625)"/>
      <path id="DejaVuSans-Oblique-61" d="M 3438 1997 
L 3047 0 
L 2472 0 
L 2578 531 
Q 2325 219 2001 64 
Q 1678 -91 1281 -91 
Q 834 -91 548 182 
Q 263 456 263 884 
Q 263 1497 752 1853 
Q 1241 2209 2100 2209 
L 2900 2209 
L 2931 2363 
Q 2938 2388 2941 2417 
Q 2944 2447 2944 2509 
Q 2944 2788 2717 2942 
Q 2491 3097 2081 3097 
Q 1800 3097 1504 3025 
Q 1209 2953 897 2809 
L 997 3341 
Q 1322 3463 1633 3523 
Q 1944 3584 2234 3584 
Q 2853 3584 3176 3315 
Q 3500 3047 3500 2534 
Q 3500 2431 3484 2292 
Q 3469 2153 3438 1997 
z
M 2816 1759 
L 2241 1759 
Q 1534 1759 1195 1570 
Q 856 1381 856 984 
Q 856 709 1029 553 
Q 1203 397 1509 397 
Q 1978 397 2328 733 
Q 2678 1069 2791 1631 
L 2816 1759 
z
" transform="scale(0.015625)"/>
      <path id="DejaVuSans-Oblique-64" d="M 2675 525 
Q 2444 222 2128 65 
Q 1813 -91 1428 -91 
Q 903 -91 598 267 
Q 294 625 294 1247 
Q 294 1766 478 2236 
Q 663 2706 1013 3078 
Q 1244 3325 1534 3454 
Q 1825 3584 2144 3584 
Q 2481 3584 2739 3421 
Q 2997 3259 3138 2956 
L 3513 4863 
L 4091 4863 
L 3144 0 
L 2566 0 
L 2675 525 
z
M 891 1350 
Q 891 897 1095 644 
Q 1300 391 1663 391 
Q 1931 391 2161 520 
Q 2391 650 2566 903 
Q 2750 1166 2856 1509 
Q 2963 1853 2963 2188 
Q 2963 2622 2758 2865 
Q 2553 3109 2194 3109 
Q 1922 3109 1687 2981 
Q 1453 2853 1288 2613 
Q 1106 2353 998 2009 
Q 891 1666 891 1350 
z
" transform="scale(0.015625)"/>
      <path id="DejaVuSans-Oblique-6a" d="M 928 3500 
L 1503 3500 
L 813 -63 
L 809 -78 
Q 694 -675 544 -897 
Q 403 -1106 132 -1218 
Q -138 -1331 -506 -1331 
L -722 -1331 
L -628 -844 
L -481 -844 
Q -144 -844 -1 -703 
Q 141 -563 238 -63 
L 928 3500 
z
M 1197 4863 
L 1772 4863 
L 1631 4134 
L 1056 4134 
L 1197 4863 
z
" transform="scale(0.015625)"/>
      <path id="ArialMT-3c" d="M 350 2003 
L 350 2528 
L 3384 3809 
L 3384 3250 
L 978 2263 
L 3384 1266 
L 3384 706 
L 350 2003 
z
" transform="scale(0.015625)"/>
      <path id="ArialMT-2e" d="M 581 0 
L 581 641 
L 1222 641 
L 1222 0 
L 581 0 
z
" transform="scale(0.015625)"/>
      <path id="ArialMT-2a" d="M 200 3741 
L 344 4184 
Q 841 4009 1066 3881 
Q 1006 4447 1003 4659 
L 1456 4659 
Q 1447 4350 1384 3884 
Q 1706 4047 2122 4184 
L 2266 3741 
Q 1869 3609 1488 3566 
Q 1678 3400 2025 2975 
L 1650 2709 
Q 1469 2956 1222 3381 
Q 991 2941 816 2709 
L 447 2975 
Q 809 3422 966 3566 
Q 563 3644 200 3741 
z
" transform="scale(0.015625)"/>
     </defs>
     <use xlink:href="#ArialMT-45" transform="translate(0 0.203125)"/>
     <use xlink:href="#ArialMT-4e" transform="translate(66.699219 0.203125)"/>
     <use xlink:href="#ArialMT-53" transform="translate(138.916016 0.203125)"/>
     <use xlink:href="#ArialMT-47" transform="translate(205.615234 0.203125)"/>
     <use xlink:href="#ArialMT-30" transform="translate(283.398438 0.203125)"/>
     <use xlink:href="#ArialMT-30" transform="translate(339.013672 0.203125)"/>
     <use xlink:href="#ArialMT-30" transform="translate(394.628906 0.203125)"/>
     <use xlink:href="#ArialMT-30" transform="translate(450.244141 0.203125)"/>
     <use xlink:href="#ArialMT-30" transform="translate(505.859375 0.203125)"/>
     <use xlink:href="#ArialMT-32" transform="translate(561.474609 0.203125)"/>
     <use xlink:href="#ArialMT-38" transform="translate(617.089844 0.203125)"/>
     <use xlink:href="#ArialMT-35" transform="translate(672.705078 0.203125)"/>
     <use xlink:href="#ArialMT-34" transform="translate(728.320312 0.203125)"/>
     <use xlink:href="#ArialMT-31" transform="translate(783.935547 0.203125)"/>
     <use xlink:href="#ArialMT-37" transform="translate(839.550781 0.203125)"/>
     <use xlink:href="#ArialMT-2c" transform="translate(895.166016 0.203125)"/>
     <use xlink:href="#ArialMT-20" transform="translate(922.949219 0.203125)"/>
     <use xlink:href="#DejaVuSans-Oblique-70" transform="translate(950.732422 0.203125)"/>
     <use xlink:href="#DejaVuSans-Oblique-61" transform="translate(1014.208984 -16.203125)scale(0.7)"/>
     <use xlink:href="#DejaVuSans-Oblique-64" transform="translate(1057.104492 -16.203125)scale(0.7)"/>
     <use xlink:href="#DejaVuSans-Oblique-6a" transform="translate(1101.538086 -16.203125)scale(0.7)"/>
     <use xlink:href="#ArialMT-20" transform="translate(1123.720703 0.203125)"/>
     <use xlink:href="#ArialMT-3c" transform="translate(1151.503906 0.203125)"/>
     <use xlink:href="#ArialMT-20" transform="translate(1209.902344 0.203125)"/>
     <use xlink:href="#ArialMT-2e" transform="translate(1237.685547 0.203125)"/>
     <use xlink:href="#ArialMT-30" transform="translate(1265.46875 0.203125)"/>
     <use xlink:href="#ArialMT-30" transform="translate(1321.083984 0.203125)"/>
     <use xlink:href="#ArialMT-31" transform="translate(1376.699219 0.203125)"/>
     <use xlink:href="#ArialMT-20" transform="translate(1432.314453 0.203125)"/>
     <use xlink:href="#ArialMT-2a" transform="translate(1460.097656 0.203125)"/>
     <use xlink:href="#ArialMT-2a" transform="translate(1499.013672 0.203125)"/>
     <use xlink:href="#ArialMT-2a" transform="translate(1537.929688 0.203125)"/>
    </g>
   </g>
   <g id="legend_1">
    <g id="patch_5">
     <path d="M 53.52 69.712344 
L 105.82125 69.712344 
Q 107.62125 69.712344 107.62125 67.912344 
L 107.62125 30.62 
Q 107.62125 28.82 105.82125 28.82 
L 53.52 28.82 
Q 51.72 28.82 51.72 30.62 
L 51.72 67.912344 
Q 51.72 69.712344 53.52 69.712344 
z
" style="fill: #ffffff; opacity: 0.8; stroke: #cccccc; stroke-linejoin: miter"/>
    </g>
    <g id="text_19">
     <!-- Treatment -->
     <g style="fill: #262626" transform="translate(59.334141 38.862031)scale(0.09 -0.09)">
      <use xlink:href="#ArialMT-54"/>
      <use xlink:href="#ArialMT-72" x="57.333984"/>
      <use xlink:href="#ArialMT-65" x="90.634766"/>
      <use xlink:href="#ArialMT-61" x="146.25"/>
      <use xlink:href="#ArialMT-74" x="201.865234"/>
      <use xlink:href="#ArialMT-6d" x="229.648438"/>
      <use xlink:href="#ArialMT-65" x="312.949219"/>
      <use xlink:href="#ArialMT-6e" x="368.564453"/>
      <use xlink:href="#ArialMT-74" x="424.179688"/>
     </g>
    </g>
    <g id="PathCollection_10">
     <defs>
      <path id="m3e7dcf08a8" d="M 0 3.872983 
C 1.027127 3.872983 2.012324 3.464901 2.738613 2.738613 
C 3.464901 2.012324 3.872983 1.027127 3.872983 0 
C 3.872983 -1.027127 3.464901 -2.012324 2.738613 -2.738613 
C 2.012324 -3.464901 1.027127 -3.872983 0 -3.872983 
C -1.027127 -3.872983 -2.012324 -3.464901 -2.738613 -2.738613 
C -3.464901 -2.012324 -3.872983 -1.027127 -3.872983 0 
C -3.872983 1.027127 -3.464901 2.012324 -2.738613 2.738613 
C -2.012324 3.464901 -1.027127 3.872983 0 3.872983 
z
" style="stroke: #4c72b0"/>
     </defs>
     <g>
      <use xlink:href="#m3e7dcf08a8" x="64.32" y="49.230313" style="fill: #4c72b0; stroke: #4c72b0"/>
     </g>
    </g>
    <g id="text_20">
     <!-- BEVA -->
     <g style="fill: #262626" transform="translate(80.52 51.592813)scale(0.09 -0.09)">
      <defs>
       <path id="ArialMT-42" d="M 469 0 
L 469 4581 
L 2188 4581 
Q 2713 4581 3030 4442 
Q 3347 4303 3526 4014 
Q 3706 3725 3706 3409 
Q 3706 3116 3547 2856 
Q 3388 2597 3066 2438 
Q 3481 2316 3704 2022 
Q 3928 1728 3928 1328 
Q 3928 1006 3792 729 
Q 3656 453 3456 303 
Q 3256 153 2954 76 
Q 2653 0 2216 0 
L 469 0 
z
M 1075 2656 
L 2066 2656 
Q 2469 2656 2644 2709 
Q 2875 2778 2992 2937 
Q 3109 3097 3109 3338 
Q 3109 3566 3000 3739 
Q 2891 3913 2687 3977 
Q 2484 4041 1991 4041 
L 1075 4041 
L 1075 2656 
z
M 1075 541 
L 2216 541 
Q 2509 541 2628 563 
Q 2838 600 2978 687 
Q 3119 775 3209 942 
Q 3300 1109 3300 1328 
Q 3300 1584 3169 1773 
Q 3038 1963 2805 2039 
Q 2572 2116 2134 2116 
L 1075 2116 
L 1075 541 
z
" transform="scale(0.015625)"/>
       <path id="ArialMT-56" d="M 1803 0 
L 28 4581 
L 684 4581 
L 1875 1253 
Q 2019 853 2116 503 
Q 2222 878 2363 1253 
L 3600 4581 
L 4219 4581 
L 2425 0 
L 1803 0 
z
" transform="scale(0.015625)"/>
       <path id="ArialMT-41" d="M -9 0 
L 1750 4581 
L 2403 4581 
L 4278 0 
L 3588 0 
L 3053 1388 
L 1138 1388 
L 634 0 
L -9 0 
z
M 1313 1881 
L 2866 1881 
L 2388 3150 
Q 2169 3728 2063 4100 
Q 1975 3659 1816 3225 
L 1313 1881 
z
" transform="scale(0.015625)"/>
      </defs>
      <use xlink:href="#ArialMT-42"/>
      <use xlink:href="#ArialMT-45" x="66.699219"/>
      <use xlink:href="#ArialMT-56" x="133.398438"/>
      <use xlink:href="#ArialMT-41" x="192.722656"/>
     </g>
    </g>
    <g id="PathCollection_11">
     <defs>
      <path id="med0ae1b16c" d="M 0 3.872983 
C 1.027127 3.872983 2.012324 3.464901 2.738613 2.738613 
C 3.464901 2.012324 3.872983 1.027127 3.872983 0 
C 3.872983 -1.027127 3.464901 -2.012324 2.738613 -2.738613 
C 2.012324 -3.464901 1.027127 -3.872983 0 -3.872983 
C -1.027127 -3.872983 -2.012324 -3.464901 -2.738613 -2.738613 
C -3.464901 -2.012324 -3.872983 -1.027127 -3.872983 0 
C -3.872983 1.027127 -3.464901 2.012324 -2.738613 2.738613 
C -2.012324 3.464901 -1.027127 3.872983 0 3.872983 
z
" style="stroke: #dd8452"/>
     </defs>
     <g>
      <use xlink:href="#med0ae1b16c" x="64.32" y="61.961094" style="fill: #dd8452; stroke: #dd8452"/>
     </g>
    </g>
    <g id="text_21">
     <!-- CTRL -->
     <g style="fill: #262626" transform="translate(80.52 64.323594)scale(0.09 -0.09)">
      <defs>
       <path id="ArialMT-43" d="M 3763 1606 
L 4369 1453 
Q 4178 706 3683 314 
Q 3188 -78 2472 -78 
Q 1731 -78 1267 223 
Q 803 525 561 1097 
Q 319 1669 319 2325 
Q 319 3041 592 3573 
Q 866 4106 1370 4382 
Q 1875 4659 2481 4659 
Q 3169 4659 3637 4309 
Q 4106 3959 4291 3325 
L 3694 3184 
Q 3534 3684 3231 3912 
Q 2928 4141 2469 4141 
Q 1941 4141 1586 3887 
Q 1231 3634 1087 3207 
Q 944 2781 944 2328 
Q 944 1744 1114 1308 
Q 1284 872 1643 656 
Q 2003 441 2422 441 
Q 2931 441 3284 734 
Q 3638 1028 3763 1606 
z
" transform="scale(0.015625)"/>
       <path id="ArialMT-52" d="M 503 0 
L 503 4581 
L 2534 4581 
Q 3147 4581 3465 4457 
Q 3784 4334 3975 4021 
Q 4166 3709 4166 3331 
Q 4166 2844 3850 2509 
Q 3534 2175 2875 2084 
Q 3116 1969 3241 1856 
Q 3506 1613 3744 1247 
L 4541 0 
L 3778 0 
L 3172 953 
Q 2906 1366 2734 1584 
Q 2563 1803 2427 1890 
Q 2291 1978 2150 2013 
Q 2047 2034 1813 2034 
L 1109 2034 
L 1109 0 
L 503 0 
z
M 1109 2559 
L 2413 2559 
Q 2828 2559 3062 2645 
Q 3297 2731 3419 2920 
Q 3541 3109 3541 3331 
Q 3541 3656 3305 3865 
Q 3069 4075 2559 4075 
L 1109 4075 
L 1109 2559 
z
" transform="scale(0.015625)"/>
       <path id="ArialMT-4c" d="M 469 0 
L 469 4581 
L 1075 4581 
L 1075 541 
L 3331 541 
L 3331 0 
L 469 0 
z
" transform="scale(0.015625)"/>
      </defs>
      <use xlink:href="#ArialMT-43"/>
      <use xlink:href="#ArialMT-54" x="72.216797"/>
      <use xlink:href="#ArialMT-52" x="133.300781"/>
      <use xlink:href="#ArialMT-4c" x="205.517578"/>
     </g>
    </g>
   </g>
  </g>
 </g>
 <defs>
  <clipPath id="p89aed56725">
   <rect x="47.22" y="24.32" width="453.29622" height="189.57811"/>
  </clipPath>
 </defs>
</svg>
