<?xml version="1.0" encoding="utf-8" standalone="no"?>
<!DOCTYPE svg PUBLIC "-//W3C//DTD SVG 1.1//EN"
  "http://www.w3.org/Graphics/SVG/1.1/DTD/svg11.dtd">
<!-- Created with matplotlib (https://matplotlib.org/) -->
<svg height="246.509673pt" version="1.1" viewBox="0 0 560.895468 246.509673" width="560.895468pt" xmlns="http://www.w3.org/2000/svg" xmlns:xlink="http://www.w3.org/1999/xlink">
 <metadata>
  <rdf:RDF xmlns:cc="http://creativecommons.org/ns#" xmlns:dc="http://purl.org/dc/elements/1.1/" xmlns:rdf="http://www.w3.org/1999/02/22-rdf-syntax-ns#">
   <cc:Work>
    <dc:type rdf:resource="http://purl.org/dc/dcmitype/StillImage"/>
    <dc:date>2022-03-15T15:39:16.176626</dc:date>
    <dc:format>image/svg+xml</dc:format>
    <dc:creator>
     <cc:Agent>
      <dc:title>Matplotlib v3.3.4, https://matplotlib.org/</dc:title>
     </cc:Agent>
    </dc:creator>
   </cc:Work>
  </rdf:RDF>
 </metadata>
 <defs>
  <style type="text/css">*{stroke-linecap:butt;stroke-linejoin:round;}</style>
 </defs>
 <g id="figure_1">
  <g id="patch_1">
   <path d="M 0 246.509673 
L 560.895468 246.509673 
L 560.895468 0 
L 0 0 
z
" style="fill:#ffffff;"/>
  </g>
  <g id="axes_1">
   <g id="patch_2">
    <path d="M 39.155625 209.34811 
L 263.443735 209.34811 
L 263.443735 19.77 
L 39.155625 19.77 
z
" style="fill:#ffffff;"/>
   </g>
   <g id="matplotlib.axis_1">
    <g id="xtick_1">
     <g id="text_1">
      <!-- responsive -->
      <g style="fill:#444444;" transform="translate(73.46734 225.290141)scale(0.09 -0.09)">
       <defs>
        <path d="M 6.5 0 
L 6.5 51.859375 
L 14.40625 51.859375 
L 14.40625 44 
Q 17.4375 49.515625 20 51.265625 
Q 22.5625 53.03125 25.640625 53.03125 
Q 30.078125 53.03125 34.671875 50.203125 
L 31.640625 42.046875 
Q 28.421875 43.953125 25.203125 43.953125 
Q 22.3125 43.953125 20.015625 42.21875 
Q 17.71875 40.484375 16.75 37.40625 
Q 15.28125 32.71875 15.28125 27.15625 
L 15.28125 0 
z
" id="ArialMT-114"/>
        <path d="M 42.09375 16.703125 
L 51.171875 15.578125 
Q 49.03125 7.625 43.21875 3.21875 
Q 37.40625 -1.171875 28.375 -1.171875 
Q 17 -1.171875 10.328125 5.828125 
Q 3.65625 12.84375 3.65625 25.484375 
Q 3.65625 38.578125 10.390625 45.796875 
Q 17.140625 53.03125 27.875 53.03125 
Q 38.28125 53.03125 44.875 45.953125 
Q 51.46875 38.875 51.46875 26.03125 
Q 51.46875 25.25 51.421875 23.6875 
L 12.75 23.6875 
Q 13.234375 15.140625 17.578125 10.59375 
Q 21.921875 6.0625 28.421875 6.0625 
Q 33.25 6.0625 36.671875 8.59375 
Q 40.09375 11.140625 42.09375 16.703125 
z
M 13.234375 30.90625 
L 42.1875 30.90625 
Q 41.609375 37.453125 38.875 40.71875 
Q 34.671875 45.796875 27.984375 45.796875 
Q 21.921875 45.796875 17.796875 41.75 
Q 13.671875 37.703125 13.234375 30.90625 
z
" id="ArialMT-101"/>
        <path d="M 3.078125 15.484375 
L 11.765625 16.84375 
Q 12.5 11.625 15.84375 8.84375 
Q 19.1875 6.0625 25.203125 6.0625 
Q 31.25 6.0625 34.171875 8.515625 
Q 37.109375 10.984375 37.109375 14.3125 
Q 37.109375 17.28125 34.515625 19 
Q 32.71875 20.171875 25.53125 21.96875 
Q 15.875 24.421875 12.140625 26.203125 
Q 8.40625 27.984375 6.46875 31.125 
Q 4.546875 34.28125 4.546875 38.09375 
Q 4.546875 41.546875 6.125 44.5 
Q 7.71875 47.46875 10.453125 49.421875 
Q 12.5 50.921875 16.03125 51.96875 
Q 19.578125 53.03125 23.640625 53.03125 
Q 29.734375 53.03125 34.34375 51.265625 
Q 38.96875 49.515625 41.15625 46.5 
Q 43.359375 43.5 44.1875 38.484375 
L 35.59375 37.3125 
Q 35.015625 41.3125 32.203125 43.546875 
Q 29.390625 45.796875 24.265625 45.796875 
Q 18.21875 45.796875 15.625 43.796875 
Q 13.03125 41.796875 13.03125 39.109375 
Q 13.03125 37.40625 14.109375 36.03125 
Q 15.1875 34.625 17.484375 33.6875 
Q 18.796875 33.203125 25.25 31.453125 
Q 34.578125 28.953125 38.25 27.359375 
Q 41.9375 25.78125 44.03125 22.75 
Q 46.140625 19.734375 46.140625 15.234375 
Q 46.140625 10.84375 43.578125 6.953125 
Q 41.015625 3.078125 36.171875 0.953125 
Q 31.34375 -1.171875 25.25 -1.171875 
Q 15.140625 -1.171875 9.84375 3.03125 
Q 4.546875 7.234375 3.078125 15.484375 
z
" id="ArialMT-115"/>
        <path d="M 6.59375 -19.875 
L 6.59375 51.859375 
L 14.59375 51.859375 
L 14.59375 45.125 
Q 17.4375 49.078125 21 51.046875 
Q 24.5625 53.03125 29.640625 53.03125 
Q 36.28125 53.03125 41.359375 49.609375 
Q 46.4375 46.1875 49.015625 39.953125 
Q 51.609375 33.734375 51.609375 26.3125 
Q 51.609375 18.359375 48.75 11.984375 
Q 45.90625 5.609375 40.453125 2.21875 
Q 35.015625 -1.171875 29 -1.171875 
Q 24.609375 -1.171875 21.109375 0.6875 
Q 17.625 2.546875 15.375 5.375 
L 15.375 -19.875 
z
M 14.546875 25.640625 
Q 14.546875 15.625 18.59375 10.84375 
Q 22.65625 6.0625 28.421875 6.0625 
Q 34.28125 6.0625 38.453125 11.015625 
Q 42.625 15.96875 42.625 26.375 
Q 42.625 36.28125 38.546875 41.203125 
Q 34.46875 46.140625 28.8125 46.140625 
Q 23.1875 46.140625 18.859375 40.890625 
Q 14.546875 35.640625 14.546875 25.640625 
z
" id="ArialMT-112"/>
        <path d="M 3.328125 25.921875 
Q 3.328125 40.328125 11.328125 47.265625 
Q 18.015625 53.03125 27.640625 53.03125 
Q 38.328125 53.03125 45.109375 46.015625 
Q 51.90625 39.015625 51.90625 26.65625 
Q 51.90625 16.65625 48.90625 10.90625 
Q 45.90625 5.171875 40.15625 2 
Q 34.421875 -1.171875 27.640625 -1.171875 
Q 16.75 -1.171875 10.03125 5.8125 
Q 3.328125 12.796875 3.328125 25.921875 
z
M 12.359375 25.921875 
Q 12.359375 15.96875 16.703125 11.015625 
Q 21.046875 6.0625 27.640625 6.0625 
Q 34.1875 6.0625 38.53125 11.03125 
Q 42.875 16.015625 42.875 26.21875 
Q 42.875 35.84375 38.5 40.796875 
Q 34.125 45.75 27.640625 45.75 
Q 21.046875 45.75 16.703125 40.8125 
Q 12.359375 35.890625 12.359375 25.921875 
z
" id="ArialMT-111"/>
        <path d="M 6.59375 0 
L 6.59375 51.859375 
L 14.5 51.859375 
L 14.5 44.484375 
Q 20.21875 53.03125 31 53.03125 
Q 35.6875 53.03125 39.625 51.34375 
Q 43.5625 49.65625 45.515625 46.921875 
Q 47.46875 44.1875 48.25 40.4375 
Q 48.734375 37.984375 48.734375 31.890625 
L 48.734375 0 
L 39.9375 0 
L 39.9375 31.546875 
Q 39.9375 36.921875 38.90625 39.578125 
Q 37.890625 42.234375 35.28125 43.8125 
Q 32.671875 45.40625 29.15625 45.40625 
Q 23.53125 45.40625 19.453125 41.84375 
Q 15.375 38.28125 15.375 28.328125 
L 15.375 0 
z
" id="ArialMT-110"/>
        <path d="M 6.640625 61.46875 
L 6.640625 71.578125 
L 15.4375 71.578125 
L 15.4375 61.46875 
z
M 6.640625 0 
L 6.640625 51.859375 
L 15.4375 51.859375 
L 15.4375 0 
z
" id="ArialMT-105"/>
        <path d="M 21 0 
L 1.265625 51.859375 
L 10.546875 51.859375 
L 21.6875 20.796875 
Q 23.484375 15.765625 25 10.359375 
Q 26.171875 14.453125 28.265625 20.21875 
L 39.796875 51.859375 
L 48.828125 51.859375 
L 29.203125 0 
z
" id="ArialMT-118"/>
       </defs>
       <use xlink:href="#ArialMT-114"/>
       <use x="33.300781" xlink:href="#ArialMT-101"/>
       <use x="88.916016" xlink:href="#ArialMT-115"/>
       <use x="138.916016" xlink:href="#ArialMT-112"/>
       <use x="194.53125" xlink:href="#ArialMT-111"/>
       <use x="250.146484" xlink:href="#ArialMT-110"/>
       <use x="305.761719" xlink:href="#ArialMT-115"/>
       <use x="355.761719" xlink:href="#ArialMT-105"/>
       <use x="377.978516" xlink:href="#ArialMT-118"/>
       <use x="427.978516" xlink:href="#ArialMT-101"/>
      </g>
     </g>
    </g>
    <g id="xtick_2">
     <g id="text_2">
      <!-- resistant -->
      <g style="fill:#444444;" transform="translate(190.365926 225.290141)scale(0.09 -0.09)">
       <defs>
        <path d="M 25.78125 7.859375 
L 27.046875 0.09375 
Q 23.34375 -0.6875 20.40625 -0.6875 
Q 15.625 -0.6875 12.984375 0.828125 
Q 10.359375 2.34375 9.28125 4.8125 
Q 8.203125 7.28125 8.203125 15.1875 
L 8.203125 45.015625 
L 1.765625 45.015625 
L 1.765625 51.859375 
L 8.203125 51.859375 
L 8.203125 64.703125 
L 16.9375 69.96875 
L 16.9375 51.859375 
L 25.78125 51.859375 
L 25.78125 45.015625 
L 16.9375 45.015625 
L 16.9375 14.703125 
Q 16.9375 10.9375 17.40625 9.859375 
Q 17.875 8.796875 18.921875 8.15625 
Q 19.96875 7.515625 21.921875 7.515625 
Q 23.390625 7.515625 25.78125 7.859375 
z
" id="ArialMT-116"/>
        <path d="M 40.4375 6.390625 
Q 35.546875 2.25 31.03125 0.53125 
Q 26.515625 -1.171875 21.34375 -1.171875 
Q 12.796875 -1.171875 8.203125 3 
Q 3.609375 7.171875 3.609375 13.671875 
Q 3.609375 17.484375 5.34375 20.625 
Q 7.078125 23.78125 9.890625 25.6875 
Q 12.703125 27.59375 16.21875 28.5625 
Q 18.796875 29.25 24.03125 29.890625 
Q 34.671875 31.15625 39.703125 32.90625 
Q 39.75 34.71875 39.75 35.203125 
Q 39.75 40.578125 37.25 42.78125 
Q 33.890625 45.75 27.25 45.75 
Q 21.046875 45.75 18.09375 43.578125 
Q 15.140625 41.40625 13.71875 35.890625 
L 5.125 37.0625 
Q 6.296875 42.578125 8.984375 45.96875 
Q 11.671875 49.359375 16.75 51.1875 
Q 21.828125 53.03125 28.515625 53.03125 
Q 35.15625 53.03125 39.296875 51.46875 
Q 43.453125 49.90625 45.40625 47.53125 
Q 47.359375 45.171875 48.140625 41.546875 
Q 48.578125 39.3125 48.578125 33.453125 
L 48.578125 21.734375 
Q 48.578125 9.46875 49.140625 6.21875 
Q 49.703125 2.984375 51.375 0 
L 42.1875 0 
Q 40.828125 2.734375 40.4375 6.390625 
z
M 39.703125 26.03125 
Q 34.90625 24.078125 25.34375 22.703125 
Q 19.921875 21.921875 17.671875 20.9375 
Q 15.4375 19.96875 14.203125 18.09375 
Q 12.984375 16.21875 12.984375 13.921875 
Q 12.984375 10.40625 15.640625 8.0625 
Q 18.3125 5.71875 23.4375 5.71875 
Q 28.515625 5.71875 32.46875 7.9375 
Q 36.421875 10.15625 38.28125 14.015625 
Q 39.703125 17 39.703125 22.796875 
z
" id="ArialMT-97"/>
       </defs>
       <use xlink:href="#ArialMT-114"/>
       <use x="33.300781" xlink:href="#ArialMT-101"/>
       <use x="88.916016" xlink:href="#ArialMT-115"/>
       <use x="138.916016" xlink:href="#ArialMT-105"/>
       <use x="161.132812" xlink:href="#ArialMT-115"/>
       <use x="211.132812" xlink:href="#ArialMT-116"/>
       <use x="238.916016" xlink:href="#ArialMT-97"/>
       <use x="294.53125" xlink:href="#ArialMT-110"/>
       <use x="350.146484" xlink:href="#ArialMT-116"/>
      </g>
     </g>
    </g>
    <g id="text_3">
     <!-- Condition -->
     <g style="fill:#444444;" transform="translate(132.287883 237.520923)scale(0.09 -0.09)">
      <defs>
       <path d="M 58.796875 25.09375 
L 68.265625 22.703125 
Q 65.28125 11.03125 57.546875 4.90625 
Q 49.8125 -1.21875 38.625 -1.21875 
Q 27.046875 -1.21875 19.796875 3.484375 
Q 12.546875 8.203125 8.765625 17.140625 
Q 4.984375 26.078125 4.984375 36.328125 
Q 4.984375 47.515625 9.25 55.828125 
Q 13.53125 64.15625 21.40625 68.46875 
Q 29.296875 72.796875 38.765625 72.796875 
Q 49.515625 72.796875 56.828125 67.328125 
Q 64.15625 61.859375 67.046875 51.953125 
L 57.71875 49.75 
Q 55.21875 57.5625 50.484375 61.125 
Q 45.75 64.703125 38.578125 64.703125 
Q 30.328125 64.703125 24.78125 60.734375 
Q 19.234375 56.78125 16.984375 50.109375 
Q 14.75 43.453125 14.75 36.375 
Q 14.75 27.25 17.40625 20.4375 
Q 20.0625 13.625 25.671875 10.25 
Q 31.296875 6.890625 37.84375 6.890625 
Q 45.796875 6.890625 51.3125 11.46875 
Q 56.84375 16.0625 58.796875 25.09375 
z
" id="ArialMT-67"/>
       <path d="M 40.234375 0 
L 40.234375 6.546875 
Q 35.296875 -1.171875 25.734375 -1.171875 
Q 19.53125 -1.171875 14.328125 2.25 
Q 9.125 5.671875 6.265625 11.796875 
Q 3.421875 17.921875 3.421875 25.875 
Q 3.421875 33.640625 6 39.96875 
Q 8.59375 46.296875 13.765625 49.65625 
Q 18.953125 53.03125 25.34375 53.03125 
Q 30.03125 53.03125 33.6875 51.046875 
Q 37.359375 49.078125 39.65625 45.90625 
L 39.65625 71.578125 
L 48.390625 71.578125 
L 48.390625 0 
z
M 12.453125 25.875 
Q 12.453125 15.921875 16.640625 10.984375 
Q 20.84375 6.0625 26.5625 6.0625 
Q 32.328125 6.0625 36.34375 10.765625 
Q 40.375 15.484375 40.375 25.140625 
Q 40.375 35.796875 36.265625 40.765625 
Q 32.171875 45.75 26.171875 45.75 
Q 20.3125 45.75 16.375 40.96875 
Q 12.453125 36.1875 12.453125 25.875 
z
" id="ArialMT-100"/>
      </defs>
      <use xlink:href="#ArialMT-67"/>
      <use x="72.216797" xlink:href="#ArialMT-111"/>
      <use x="127.832031" xlink:href="#ArialMT-110"/>
      <use x="183.447266" xlink:href="#ArialMT-100"/>
      <use x="239.0625" xlink:href="#ArialMT-105"/>
      <use x="261.279297" xlink:href="#ArialMT-116"/>
      <use x="289.0625" xlink:href="#ArialMT-105"/>
      <use x="311.279297" xlink:href="#ArialMT-111"/>
      <use x="366.894531" xlink:href="#ArialMT-110"/>
     </g>
    </g>
   </g>
   <g id="matplotlib.axis_2">
    <g id="ytick_1">
     <g id="text_4">
      <!-- 0 -->
      <g style="fill:#444444;" transform="translate(24.650781 206.093071)scale(0.09 -0.09)">
       <defs>
        <path d="M 4.15625 35.296875 
Q 4.15625 48 6.765625 55.734375 
Q 9.375 63.484375 14.515625 67.671875 
Q 19.671875 71.875 27.484375 71.875 
Q 33.25 71.875 37.59375 69.546875 
Q 41.9375 67.234375 44.765625 62.859375 
Q 47.609375 58.5 49.21875 52.21875 
Q 50.828125 45.953125 50.828125 35.296875 
Q 50.828125 22.703125 48.234375 14.96875 
Q 45.65625 7.234375 40.5 3 
Q 35.359375 -1.21875 27.484375 -1.21875 
Q 17.140625 -1.21875 11.234375 6.203125 
Q 4.15625 15.140625 4.15625 35.296875 
z
M 13.1875 35.296875 
Q 13.1875 17.671875 17.3125 11.828125 
Q 21.4375 6 27.484375 6 
Q 33.546875 6 37.671875 11.859375 
Q 41.796875 17.71875 41.796875 35.296875 
Q 41.796875 52.984375 37.671875 58.78125 
Q 33.546875 64.59375 27.390625 64.59375 
Q 21.34375 64.59375 17.71875 59.46875 
Q 13.1875 52.9375 13.1875 35.296875 
z
" id="ArialMT-48"/>
       </defs>
       <use xlink:href="#ArialMT-48"/>
      </g>
     </g>
    </g>
    <g id="ytick_2">
     <g id="text_5">
      <!-- 2 -->
      <g style="fill:#444444;" transform="translate(24.650781 175.641776)scale(0.09 -0.09)">
       <defs>
        <path d="M 50.34375 8.453125 
L 50.34375 0 
L 3.03125 0 
Q 2.9375 3.171875 4.046875 6.109375 
Q 5.859375 10.9375 9.828125 15.625 
Q 13.8125 20.3125 21.34375 26.46875 
Q 33.015625 36.03125 37.109375 41.625 
Q 41.21875 47.21875 41.21875 52.203125 
Q 41.21875 57.421875 37.46875 61 
Q 33.734375 64.59375 27.734375 64.59375 
Q 21.390625 64.59375 17.578125 60.78125 
Q 13.765625 56.984375 13.71875 50.25 
L 4.6875 51.171875 
Q 5.609375 61.28125 11.65625 66.578125 
Q 17.71875 71.875 27.9375 71.875 
Q 38.234375 71.875 44.234375 66.15625 
Q 50.25 60.453125 50.25 52 
Q 50.25 47.703125 48.484375 43.546875 
Q 46.734375 39.40625 42.65625 34.8125 
Q 38.578125 30.21875 29.109375 22.21875 
Q 21.1875 15.578125 18.9375 13.203125 
Q 16.703125 10.84375 15.234375 8.453125 
z
" id="ArialMT-50"/>
       </defs>
       <use xlink:href="#ArialMT-50"/>
      </g>
     </g>
    </g>
    <g id="ytick_3">
     <g id="text_6">
      <!-- 4 -->
      <g style="fill:#444444;" transform="translate(24.650781 145.19048)scale(0.09 -0.09)">
       <defs>
        <path d="M 32.328125 0 
L 32.328125 17.140625 
L 1.265625 17.140625 
L 1.265625 25.203125 
L 33.9375 71.578125 
L 41.109375 71.578125 
L 41.109375 25.203125 
L 50.78125 25.203125 
L 50.78125 17.140625 
L 41.109375 17.140625 
L 41.109375 0 
z
M 32.328125 25.203125 
L 32.328125 57.46875 
L 9.90625 25.203125 
z
" id="ArialMT-52"/>
       </defs>
       <use xlink:href="#ArialMT-52"/>
      </g>
     </g>
    </g>
    <g id="ytick_4">
     <g id="text_7">
      <!-- 6 -->
      <g style="fill:#444444;" transform="translate(24.650781 114.739185)scale(0.09 -0.09)">
       <defs>
        <path d="M 49.75 54.046875 
L 41.015625 53.375 
Q 39.84375 58.546875 37.703125 60.890625 
Q 34.125 64.65625 28.90625 64.65625 
Q 24.703125 64.65625 21.53125 62.3125 
Q 17.390625 59.28125 14.984375 53.46875 
Q 12.59375 47.65625 12.5 36.921875 
Q 15.671875 41.75 20.265625 44.09375 
Q 24.859375 46.4375 29.890625 46.4375 
Q 38.671875 46.4375 44.84375 39.96875 
Q 51.03125 33.5 51.03125 23.25 
Q 51.03125 16.5 48.125 10.71875 
Q 45.21875 4.9375 40.140625 1.859375 
Q 35.0625 -1.21875 28.609375 -1.21875 
Q 17.625 -1.21875 10.6875 6.859375 
Q 3.765625 14.9375 3.765625 33.5 
Q 3.765625 54.25 11.421875 63.671875 
Q 18.109375 71.875 29.4375 71.875 
Q 37.890625 71.875 43.28125 67.140625 
Q 48.6875 62.40625 49.75 54.046875 
z
M 13.875 23.1875 
Q 13.875 18.65625 15.796875 14.5 
Q 17.71875 10.359375 21.1875 8.171875 
Q 24.65625 6 28.46875 6 
Q 34.03125 6 38.03125 10.484375 
Q 42.046875 14.984375 42.046875 22.703125 
Q 42.046875 30.125 38.078125 34.390625 
Q 34.125 38.671875 28.125 38.671875 
Q 22.171875 38.671875 18.015625 34.390625 
Q 13.875 30.125 13.875 23.1875 
z
" id="ArialMT-54"/>
       </defs>
       <use xlink:href="#ArialMT-54"/>
      </g>
     </g>
    </g>
    <g id="ytick_5">
     <g id="text_8">
      <!-- 8 -->
      <g style="fill:#444444;" transform="translate(24.650781 84.28789)scale(0.09 -0.09)">
       <defs>
        <path d="M 17.671875 38.8125 
Q 12.203125 40.828125 9.5625 44.53125 
Q 6.9375 48.25 6.9375 53.421875 
Q 6.9375 61.234375 12.546875 66.546875 
Q 18.171875 71.875 27.484375 71.875 
Q 36.859375 71.875 42.578125 66.421875 
Q 48.296875 60.984375 48.296875 53.171875 
Q 48.296875 48.1875 45.671875 44.5 
Q 43.0625 40.828125 37.75 38.8125 
Q 44.34375 36.671875 47.78125 31.875 
Q 51.21875 27.09375 51.21875 20.453125 
Q 51.21875 11.28125 44.71875 5.03125 
Q 38.234375 -1.21875 27.640625 -1.21875 
Q 17.046875 -1.21875 10.546875 5.046875 
Q 4.046875 11.328125 4.046875 20.703125 
Q 4.046875 27.6875 7.59375 32.390625 
Q 11.140625 37.109375 17.671875 38.8125 
z
M 15.921875 53.71875 
Q 15.921875 48.640625 19.1875 45.40625 
Q 22.46875 42.1875 27.6875 42.1875 
Q 32.765625 42.1875 36.015625 45.375 
Q 39.265625 48.578125 39.265625 53.21875 
Q 39.265625 58.0625 35.90625 61.359375 
Q 32.5625 64.65625 27.59375 64.65625 
Q 22.5625 64.65625 19.234375 61.421875 
Q 15.921875 58.203125 15.921875 53.71875 
z
M 13.09375 20.65625 
Q 13.09375 16.890625 14.875 13.375 
Q 16.65625 9.859375 20.171875 7.921875 
Q 23.6875 6 27.734375 6 
Q 34.03125 6 38.125 10.046875 
Q 42.234375 14.109375 42.234375 20.359375 
Q 42.234375 26.703125 38.015625 30.859375 
Q 33.796875 35.015625 27.4375 35.015625 
Q 21.234375 35.015625 17.15625 30.90625 
Q 13.09375 26.8125 13.09375 20.65625 
z
" id="ArialMT-56"/>
       </defs>
       <use xlink:href="#ArialMT-56"/>
      </g>
     </g>
    </g>
    <g id="ytick_6">
     <g id="text_9">
      <!-- 10 -->
      <g style="fill:#444444;" transform="translate(19.645938 53.836594)scale(0.09 -0.09)">
       <defs>
        <path d="M 37.25 0 
L 28.46875 0 
L 28.46875 56 
Q 25.296875 52.984375 20.140625 49.953125 
Q 14.984375 46.921875 10.890625 45.40625 
L 10.890625 53.90625 
Q 18.265625 57.375 23.78125 62.296875 
Q 29.296875 67.234375 31.59375 71.875 
L 37.25 71.875 
z
" id="ArialMT-49"/>
       </defs>
       <use xlink:href="#ArialMT-49"/>
       <use x="55.615234" xlink:href="#ArialMT-48"/>
      </g>
     </g>
    </g>
    <g id="ytick_7">
     <g id="text_10">
      <!-- 12 -->
      <g style="fill:#444444;" transform="translate(19.645938 23.385299)scale(0.09 -0.09)">
       <use xlink:href="#ArialMT-49"/>
       <use x="55.615234" xlink:href="#ArialMT-50"/>
      </g>
     </g>
    </g>
    <g id="text_11">
     <!-- Transcripts Per Million (TPM) -->
     <g style="fill:#444444;" transform="translate(13.751719 172.643508)rotate(-90)scale(0.09 -0.09)">
      <defs>
       <path d="M 25.921875 0 
L 25.921875 63.140625 
L 2.34375 63.140625 
L 2.34375 71.578125 
L 59.078125 71.578125 
L 59.078125 63.140625 
L 35.40625 63.140625 
L 35.40625 0 
z
" id="ArialMT-84"/>
       <path d="M 40.4375 19 
L 49.078125 17.875 
Q 47.65625 8.9375 41.8125 3.875 
Q 35.984375 -1.171875 27.484375 -1.171875 
Q 16.84375 -1.171875 10.375 5.78125 
Q 3.90625 12.75 3.90625 25.734375 
Q 3.90625 34.125 6.6875 40.421875 
Q 9.46875 46.734375 15.15625 49.875 
Q 20.84375 53.03125 27.546875 53.03125 
Q 35.984375 53.03125 41.359375 48.75 
Q 46.734375 44.484375 48.25 36.625 
L 39.703125 35.296875 
Q 38.484375 40.53125 35.375 43.15625 
Q 32.28125 45.796875 27.875 45.796875 
Q 21.234375 45.796875 17.078125 41.03125 
Q 12.9375 36.28125 12.9375 25.984375 
Q 12.9375 15.53125 16.9375 10.796875 
Q 20.953125 6.0625 27.390625 6.0625 
Q 32.5625 6.0625 36.03125 9.234375 
Q 39.5 12.40625 40.4375 19 
z
" id="ArialMT-99"/>
       <path id="ArialMT-32"/>
       <path d="M 7.71875 0 
L 7.71875 71.578125 
L 34.71875 71.578125 
Q 41.84375 71.578125 45.609375 70.90625 
Q 50.875 70.015625 54.4375 67.546875 
Q 58.015625 65.09375 60.1875 60.640625 
Q 62.359375 56.203125 62.359375 50.875 
Q 62.359375 41.75 56.546875 35.421875 
Q 50.734375 29.109375 35.546875 29.109375 
L 17.1875 29.109375 
L 17.1875 0 
z
M 17.1875 37.546875 
L 35.6875 37.546875 
Q 44.875 37.546875 48.734375 40.96875 
Q 52.59375 44.390625 52.59375 50.59375 
Q 52.59375 55.078125 50.3125 58.265625 
Q 48.046875 61.46875 44.34375 62.5 
Q 41.9375 63.140625 35.5 63.140625 
L 17.1875 63.140625 
z
" id="ArialMT-80"/>
       <path d="M 7.421875 0 
L 7.421875 71.578125 
L 21.6875 71.578125 
L 38.625 20.90625 
Q 40.96875 13.8125 42.046875 10.296875 
Q 43.265625 14.203125 45.84375 21.78125 
L 62.984375 71.578125 
L 75.734375 71.578125 
L 75.734375 0 
L 66.609375 0 
L 66.609375 59.90625 
L 45.796875 0 
L 37.25 0 
L 16.546875 60.9375 
L 16.546875 0 
z
" id="ArialMT-77"/>
       <path d="M 6.390625 0 
L 6.390625 71.578125 
L 15.1875 71.578125 
L 15.1875 0 
z
" id="ArialMT-108"/>
       <path d="M 23.390625 -21.046875 
Q 16.109375 -11.859375 11.078125 0.4375 
Q 6.0625 12.75 6.0625 25.921875 
Q 6.0625 37.546875 9.8125 48.1875 
Q 14.203125 60.546875 23.390625 72.796875 
L 29.6875 72.796875 
Q 23.78125 62.640625 21.875 58.296875 
Q 18.890625 51.5625 17.1875 44.234375 
Q 15.09375 35.109375 15.09375 25.875 
Q 15.09375 2.390625 29.6875 -21.046875 
z
" id="ArialMT-40"/>
       <path d="M 12.359375 -21.046875 
L 6.0625 -21.046875 
Q 20.65625 2.390625 20.65625 25.875 
Q 20.65625 35.0625 18.5625 44.09375 
Q 16.890625 51.421875 13.921875 58.15625 
Q 12.015625 62.546875 6.0625 72.796875 
L 12.359375 72.796875 
Q 21.53125 60.546875 25.921875 48.1875 
Q 29.6875 37.546875 29.6875 25.921875 
Q 29.6875 12.75 24.625 0.4375 
Q 19.578125 -11.859375 12.359375 -21.046875 
z
" id="ArialMT-41"/>
      </defs>
      <use xlink:href="#ArialMT-84"/>
      <use x="57.333984" xlink:href="#ArialMT-114"/>
      <use x="90.634766" xlink:href="#ArialMT-97"/>
      <use x="146.25" xlink:href="#ArialMT-110"/>
      <use x="201.865234" xlink:href="#ArialMT-115"/>
      <use x="251.865234" xlink:href="#ArialMT-99"/>
      <use x="301.865234" xlink:href="#ArialMT-114"/>
      <use x="335.166016" xlink:href="#ArialMT-105"/>
      <use x="357.382812" xlink:href="#ArialMT-112"/>
      <use x="412.998047" xlink:href="#ArialMT-116"/>
      <use x="440.78125" xlink:href="#ArialMT-115"/>
      <use x="490.78125" xlink:href="#ArialMT-32"/>
      <use x="518.564453" xlink:href="#ArialMT-80"/>
      <use x="585.263672" xlink:href="#ArialMT-101"/>
      <use x="640.878906" xlink:href="#ArialMT-114"/>
      <use x="674.179688" xlink:href="#ArialMT-32"/>
      <use x="701.962891" xlink:href="#ArialMT-77"/>
      <use x="785.263672" xlink:href="#ArialMT-105"/>
      <use x="807.480469" xlink:href="#ArialMT-108"/>
      <use x="829.697266" xlink:href="#ArialMT-108"/>
      <use x="851.914062" xlink:href="#ArialMT-105"/>
      <use x="874.130859" xlink:href="#ArialMT-111"/>
      <use x="929.746094" xlink:href="#ArialMT-110"/>
      <use x="985.361328" xlink:href="#ArialMT-32"/>
      <use x="1013.144531" xlink:href="#ArialMT-40"/>
      <use x="1046.445312" xlink:href="#ArialMT-84"/>
      <use x="1107.529297" xlink:href="#ArialMT-80"/>
      <use x="1174.228516" xlink:href="#ArialMT-77"/>
      <use x="1257.529297" xlink:href="#ArialMT-41"/>
     </g>
    </g>
   </g>
   <g id="PolyCollection_1">
    <defs>
     <path d="M 103.483558 -64.609479 
L 86.971747 -64.609479 
L 86.867252 -66.160115 
L 86.782762 -67.710752 
L 86.718595 -69.261388 
L 86.674867 -70.812025 
L 86.651482 -72.362661 
L 86.648132 -73.913298 
L 86.664298 -75.463934 
L 86.699248 -77.01457 
L 86.752048 -78.565207 
L 86.821565 -80.115843 
L 86.906479 -81.66648 
L 87.0053 -83.217116 
L 87.116375 -84.767753 
L 87.237914 -86.318389 
L 87.368001 -87.869025 
L 87.50462 -89.419662 
L 87.645671 -90.970298 
L 87.788999 -92.520935 
L 87.932407 -94.071571 
L 88.073688 -95.622208 
L 88.210639 -97.172844 
L 88.341092 -98.72348 
L 88.462924 -100.274117 
L 88.57409 -101.824753 
L 88.672632 -103.37539 
L 88.7567 -104.926026 
L 88.824572 -106.476663 
L 88.874664 -108.027299 
L 88.905545 -109.577936 
L 88.915947 -111.128572 
L 88.904777 -112.679208 
L 88.871125 -114.229845 
L 88.814264 -115.780481 
L 88.733663 -117.331118 
L 88.62898 -118.881754 
L 88.500073 -120.432391 
L 88.346989 -121.983027 
L 88.169969 -123.533663 
L 87.969441 -125.0843 
L 87.746016 -126.634936 
L 87.50048 -128.185573 
L 87.233789 -129.736209 
L 86.947058 -131.286846 
L 86.641551 -132.837482 
L 86.318675 -134.388118 
L 85.979962 -135.938755 
L 85.627061 -137.489391 
L 85.261725 -139.040028 
L 84.885796 -140.590664 
L 84.501195 -142.141301 
L 84.1099 -143.691937 
L 83.713943 -145.242573 
L 83.315384 -146.79321 
L 82.916306 -148.343846 
L 82.518794 -149.894483 
L 82.124925 -151.445119 
L 81.736752 -152.995756 
L 81.356291 -154.546392 
L 80.985511 -156.097029 
L 80.626317 -157.647665 
L 80.280541 -159.198301 
L 79.949936 -160.748938 
L 79.636158 -162.299574 
L 79.340764 -163.850211 
L 79.065202 -165.400847 
L 78.810808 -166.951484 
L 78.578794 -168.50212 
L 78.370252 -170.052756 
L 78.186145 -171.603393 
L 78.027308 -173.154029 
L 77.894446 -174.704666 
L 77.788134 -176.255302 
L 77.70882 -177.805939 
L 77.65682 -179.356575 
L 77.632329 -180.907211 
L 77.635418 -182.457848 
L 77.666039 -184.008484 
L 77.724026 -185.559121 
L 77.809104 -187.109757 
L 77.920888 -188.660394 
L 78.058892 -190.21103 
L 78.222529 -191.761667 
L 78.411117 -193.312303 
L 78.623886 -194.862939 
L 78.859977 -196.413576 
L 79.118453 -197.964212 
L 79.398298 -199.514849 
L 79.698426 -201.065485 
L 80.017685 -202.616122 
L 80.354857 -204.166758 
L 80.708672 -205.717394 
L 81.077806 -207.268031 
L 81.46089 -208.818667 
L 81.856516 -210.369304 
L 82.263243 -211.91994 
L 82.679602 -213.470577 
L 83.104108 -215.021213 
L 83.535261 -216.571849 
L 83.97156 -218.122486 
L 106.483746 -218.122486 
L 106.483746 -218.122486 
L 106.920044 -216.571849 
L 107.351197 -215.021213 
L 107.775703 -213.470577 
L 108.192062 -211.91994 
L 108.598789 -210.369304 
L 108.994415 -208.818667 
L 109.377499 -207.268031 
L 109.746633 -205.717394 
L 110.100448 -204.166758 
L 110.43762 -202.616122 
L 110.756879 -201.065485 
L 111.057007 -199.514849 
L 111.336853 -197.964212 
L 111.595328 -196.413576 
L 111.831419 -194.862939 
L 112.044188 -193.312303 
L 112.232776 -191.761667 
L 112.396413 -190.21103 
L 112.534417 -188.660394 
L 112.646202 -187.109757 
L 112.731279 -185.559121 
L 112.789267 -184.008484 
L 112.819887 -182.457848 
L 112.822976 -180.907211 
L 112.798485 -179.356575 
L 112.746486 -177.805939 
L 112.667171 -176.255302 
L 112.560859 -174.704666 
L 112.427997 -173.154029 
L 112.26916 -171.603393 
L 112.085053 -170.052756 
L 111.876511 -168.50212 
L 111.644497 -166.951484 
L 111.390103 -165.400847 
L 111.114542 -163.850211 
L 110.819147 -162.299574 
L 110.505369 -160.748938 
L 110.174764 -159.198301 
L 109.828989 -157.647665 
L 109.469794 -156.097029 
L 109.099014 -154.546392 
L 108.718554 -152.995756 
L 108.330381 -151.445119 
L 107.936511 -149.894483 
L 107.539 -148.343846 
L 107.139921 -146.79321 
L 106.741363 -145.242573 
L 106.345405 -143.691937 
L 105.954111 -142.141301 
L 105.569509 -140.590664 
L 105.19358 -139.040028 
L 104.828244 -137.489391 
L 104.475343 -135.938755 
L 104.13663 -134.388118 
L 103.813754 -132.837482 
L 103.508247 -131.286846 
L 103.221516 -129.736209 
L 102.954825 -128.185573 
L 102.709289 -126.634936 
L 102.485864 -125.0843 
L 102.285336 -123.533663 
L 102.108317 -121.983027 
L 101.955233 -120.432391 
L 101.826325 -118.881754 
L 101.721643 -117.331118 
L 101.641041 -115.780481 
L 101.58418 -114.229845 
L 101.550528 -112.679208 
L 101.539358 -111.128572 
L 101.549761 -109.577936 
L 101.580641 -108.027299 
L 101.630733 -106.476663 
L 101.698605 -104.926026 
L 101.782673 -103.37539 
L 101.881215 -101.824753 
L 101.992381 -100.274117 
L 102.114214 -98.72348 
L 102.244666 -97.172844 
L 102.381618 -95.622208 
L 102.522898 -94.071571 
L 102.666306 -92.520935 
L 102.809634 -90.970298 
L 102.950686 -89.419662 
L 103.087304 -87.869025 
L 103.217391 -86.318389 
L 103.33893 -84.767753 
L 103.450005 -83.217116 
L 103.548826 -81.66648 
L 103.63374 -80.115843 
L 103.703257 -78.565207 
L 103.756057 -77.01457 
L 103.791007 -75.463934 
L 103.807173 -73.913298 
L 103.803823 -72.362661 
L 103.780438 -70.812025 
L 103.73671 -69.261388 
L 103.672543 -67.710752 
L 103.588053 -66.160115 
L 103.483558 -64.609479 
z
" id="m2cc5338d86" style="stroke:#999999;stroke-width:2;"/>
    </defs>
    <g clip-path="url(#pc906c369ff)">
     <use style="fill:#ffffff;stroke:#999999;stroke-width:2;" x="0" xlink:href="#m2cc5338d86" y="246.509673"/>
    </g>
   </g>
   <g id="PolyCollection_2">
    <defs>
     <path d="M 223.299026 -45.778749 
L 191.444389 -45.778749 
L 189.954755 -46.87761 
L 188.409352 -47.97647 
L 186.812607 -49.07533 
L 185.169631 -50.17419 
L 183.486492 -51.273051 
L 181.770526 -52.371911 
L 180.030671 -53.470771 
L 178.27777 -54.569631 
L 176.524825 -55.668491 
L 174.787139 -56.767352 
L 173.082333 -57.866212 
L 171.430182 -58.965072 
L 169.852276 -60.063932 
L 168.371477 -61.162793 
L 167.011203 -62.261653 
L 165.794556 -63.360513 
L 164.743336 -64.459373 
L 163.87701 -65.558234 
L 163.211689 -66.657094 
L 162.759195 -67.755954 
L 162.526284 -68.854814 
L 162.514086 -69.953675 
L 162.717823 -71.052535 
L 163.126826 -72.151395 
L 163.724867 -73.250255 
L 164.490803 -74.349116 
L 165.399487 -75.447976 
L 166.422902 -76.546836 
L 167.531453 -77.645696 
L 168.695321 -78.744557 
L 169.885811 -79.843417 
L 171.076605 -80.942277 
L 172.244839 -82.041137 
L 173.371957 -83.139997 
L 174.444279 -84.238858 
L 175.453276 -85.337718 
L 176.395541 -86.436578 
L 177.272479 -87.535438 
L 178.089743 -88.634299 
L 178.856477 -89.733159 
L 179.584427 -90.832019 
L 180.28697 -91.930879 
L 180.978141 -93.02974 
L 181.671716 -94.1286 
L 182.380391 -95.22746 
L 183.11511 -96.32632 
L 183.884556 -97.425181 
L 184.694825 -98.524041 
L 185.549281 -99.622901 
L 186.448576 -100.721761 
L 187.390818 -101.820622 
L 188.371853 -102.919482 
L 189.385635 -104.018342 
L 190.424648 -105.117202 
L 191.48035 -106.216063 
L 192.543608 -107.314923 
L 193.605102 -108.413783 
L 194.655686 -109.512643 
L 195.686688 -110.611503 
L 196.690142 -111.710364 
L 197.658958 -112.809224 
L 198.587031 -113.908084 
L 199.469293 -115.006944 
L 200.301717 -116.105805 
L 201.081289 -117.204665 
L 201.805941 -118.303525 
L 202.474475 -119.402385 
L 203.086471 -120.501246 
L 203.642179 -121.600106 
L 204.142425 -122.698966 
L 204.588506 -123.797826 
L 204.982093 -124.896687 
L 205.32514 -125.995547 
L 205.619802 -127.094407 
L 205.868366 -128.193267 
L 206.073184 -129.292128 
L 206.236632 -130.390988 
L 206.361079 -131.489848 
L 206.448867 -132.588708 
L 206.502318 -133.687569 
L 206.523751 -134.786429 
L 206.515513 -135.885289 
L 206.480025 -136.984149 
L 206.419831 -138.083009 
L 206.33765 -139.18187 
L 206.236425 -140.28073 
L 206.119356 -141.37959 
L 205.989918 -142.47845 
L 205.85186 -143.577311 
L 205.709166 -144.676171 
L 205.566003 -145.775031 
L 205.426627 -146.873891 
L 205.295275 -147.972752 
L 205.176031 -149.071612 
L 205.072689 -150.170472 
L 204.988604 -151.269332 
L 204.926562 -152.368193 
L 204.888661 -153.467053 
L 204.876224 -154.565913 
L 209.867191 -154.565913 
L 209.867191 -154.565913 
L 209.854754 -153.467053 
L 209.816853 -152.368193 
L 209.754811 -151.269332 
L 209.670726 -150.170472 
L 209.567384 -149.071612 
L 209.448141 -147.972752 
L 209.316788 -146.873891 
L 209.177412 -145.775031 
L 209.034249 -144.676171 
L 208.891556 -143.577311 
L 208.753497 -142.47845 
L 208.62406 -141.37959 
L 208.50699 -140.28073 
L 208.405765 -139.18187 
L 208.323585 -138.083009 
L 208.263391 -136.984149 
L 208.227902 -135.885289 
L 208.219664 -134.786429 
L 208.241097 -133.687569 
L 208.294548 -132.588708 
L 208.382336 -131.489848 
L 208.506783 -130.390988 
L 208.670232 -129.292128 
L 208.87505 -128.193267 
L 209.123613 -127.094407 
L 209.418276 -125.995547 
L 209.761322 -124.896687 
L 210.154909 -123.797826 
L 210.60099 -122.698966 
L 211.101237 -121.600106 
L 211.656945 -120.501246 
L 212.26894 -119.402385 
L 212.937475 -118.303525 
L 213.662126 -117.204665 
L 214.441698 -116.105805 
L 215.274123 -115.006944 
L 216.156384 -113.908084 
L 217.084457 -112.809224 
L 218.053273 -111.710364 
L 219.056727 -110.611503 
L 220.087729 -109.512643 
L 221.138314 -108.413783 
L 222.199808 -107.314923 
L 223.263065 -106.216063 
L 224.318767 -105.117202 
L 225.35778 -104.018342 
L 226.371562 -102.919482 
L 227.352597 -101.820622 
L 228.294839 -100.721761 
L 229.194135 -99.622901 
L 230.04859 -98.524041 
L 230.858859 -97.425181 
L 231.628305 -96.32632 
L 232.363024 -95.22746 
L 233.0717 -94.1286 
L 233.765275 -93.02974 
L 234.456446 -91.930879 
L 235.158988 -90.832019 
L 235.886938 -89.733159 
L 236.653673 -88.634299 
L 237.470936 -87.535438 
L 238.347874 -86.436578 
L 239.29014 -85.337718 
L 240.299137 -84.238858 
L 241.371458 -83.139997 
L 242.498576 -82.041137 
L 243.666811 -80.942277 
L 244.857604 -79.843417 
L 246.048095 -78.744557 
L 247.211962 -77.645696 
L 248.320513 -76.546836 
L 249.343929 -75.447976 
L 250.252612 -74.349116 
L 251.018548 -73.250255 
L 251.616589 -72.151395 
L 252.025592 -71.052535 
L 252.22933 -69.953675 
L 252.217132 -68.854814 
L 251.98422 -67.755954 
L 251.531726 -66.657094 
L 250.866405 -65.558234 
L 250.00008 -64.459373 
L 248.94886 -63.360513 
L 247.732212 -62.261653 
L 246.371938 -61.162793 
L 244.891139 -60.063932 
L 243.313233 -58.965072 
L 241.661083 -57.866212 
L 239.956277 -56.767352 
L 238.218591 -55.668491 
L 236.465645 -54.569631 
L 234.712744 -53.470771 
L 232.972889 -52.371911 
L 231.256924 -51.273051 
L 229.573784 -50.17419 
L 227.930809 -49.07533 
L 226.334064 -47.97647 
L 224.78866 -46.87761 
L 223.299026 -45.778749 
z
" id="m17071a327b" style="stroke:#999999;stroke-width:2;"/>
    </defs>
    <g clip-path="url(#pc906c369ff)">
     <use style="fill:#ffffff;stroke:#999999;stroke-width:2;" x="0" xlink:href="#m17071a327b" y="246.509673"/>
    </g>
   </g>
   <g id="PathCollection_1"/>
   <g id="PathCollection_2"/>
   <g id="PathCollection_3"/>
   <g id="PathCollection_4"/>
   <g id="PathCollection_5"/>
   <g id="PathCollection_6"/>
   <g id="PathCollection_7"/>
   <g id="patch_3">
    <path d="M 39.155625 209.34811 
L 39.155625 19.77 
" style="fill:none;stroke:#262626;stroke-linecap:square;stroke-linejoin:miter;stroke-width:1.25;"/>
   </g>
   <g id="patch_4">
    <path d="M 39.155625 209.34811 
L 263.443735 209.34811 
" style="fill:none;stroke:#262626;stroke-linecap:square;stroke-linejoin:miter;stroke-width:1.25;"/>
   </g>
   <g id="PathCollection_8">
    <defs>
     <path d="M 0 2.5 
C 0.663008 2.5 1.29895 2.236584 1.767767 1.767767 
C 2.236584 1.29895 2.5 0.663008 2.5 -0 
C 2.5 -0.663008 2.236584 -1.29895 1.767767 -1.767767 
C 1.29895 -2.236584 0.663008 -2.5 0 -2.5 
C -0.663008 -2.5 -1.29895 -2.236584 -1.767767 -1.767767 
C -2.236584 -1.29895 -2.5 -0.663008 -2.5 0 
C -2.5 0.663008 -2.236584 1.29895 -1.767767 1.767767 
C -1.29895 2.236584 -0.663008 2.5 0 2.5 
z
" id="C0_0_13723a2a37"/>
    </defs>
    <g clip-path="url(#pc906c369ff)">
     <use style="fill:#4c72b0;fill-opacity:0.8;" x="94.211904" xlink:href="#C0_0_13723a2a37" y="173.272528"/>
    </g>
    <g clip-path="url(#pc906c369ff)">
     <use style="fill:#4c72b0;fill-opacity:0.8;" x="99.876958" xlink:href="#C0_0_13723a2a37" y="176.020573"/>
    </g>
    <g clip-path="url(#pc906c369ff)">
     <use style="fill:#4c72b0;fill-opacity:0.8;" x="89.744443" xlink:href="#C0_0_13723a2a37" y="165.07086"/>
    </g>
    <g clip-path="url(#pc906c369ff)">
     <use style="fill:#4c72b0;fill-opacity:0.8;" x="87.692922" xlink:href="#C0_0_13723a2a37" y="176.858716"/>
    </g>
    <g clip-path="url(#pc906c369ff)">
     <use style="fill:#4c72b0;fill-opacity:0.8;" x="96.295577" xlink:href="#C0_0_13723a2a37" y="176.283192"/>
    </g>
    <g clip-path="url(#pc906c369ff)">
     <use style="fill:#4c72b0;fill-opacity:0.8;" x="88.444173" xlink:href="#C0_0_13723a2a37" y="181.900194"/>
    </g>
    <g clip-path="url(#pc906c369ff)">
     <use style="fill:#8172b3;fill-opacity:0.8;" x="105.90897" xlink:href="#C0_0_13723a2a37" y="75.511436"/>
    </g>
    <g clip-path="url(#pc906c369ff)">
     <use style="fill:#8172b3;fill-opacity:0.8;" x="95.302941" xlink:href="#C0_0_13723a2a37" y="42.436211"/>
    </g>
    <g clip-path="url(#pc906c369ff)">
     <use style="fill:#8172b3;fill-opacity:0.8;" x="95.726969" xlink:href="#C0_0_13723a2a37" y="28.387187"/>
    </g>
    <g clip-path="url(#pc906c369ff)">
     <use style="fill:#8172b3;fill-opacity:0.8;" x="92.242266" xlink:href="#C0_0_13723a2a37" y="51.818156"/>
    </g>
    <g clip-path="url(#pc906c369ff)">
     <use style="fill:#8172b3;fill-opacity:0.8;" x="105.105812" xlink:href="#C0_0_13723a2a37" y="32.686806"/>
    </g>
    <g clip-path="url(#pc906c369ff)">
     <use style="fill:#8172b3;fill-opacity:0.8;" x="101.578581" xlink:href="#C0_0_13723a2a37" y="44.598648"/>
    </g>
    <g clip-path="url(#pc906c369ff)">
     <use style="fill:#8172b3;fill-opacity:0.8;" x="88.090421" xlink:href="#C0_0_13723a2a37" y="40.522128"/>
    </g>
    <g clip-path="url(#pc906c369ff)">
     <use style="fill:#8172b3;fill-opacity:0.8;" x="105.244099" xlink:href="#C0_0_13723a2a37" y="57.385374"/>
    </g>
    <g clip-path="url(#pc906c369ff)">
     <use style="fill:#da8bc3;fill-opacity:0.8;" x="93.515059" xlink:href="#C0_0_13723a2a37" y="65.500805"/>
    </g>
    <g clip-path="url(#pc906c369ff)">
     <use style="fill:#da8bc3;fill-opacity:0.8;" x="101.319154" xlink:href="#C0_0_13723a2a37" y="75.857677"/>
    </g>
    <g clip-path="url(#pc906c369ff)">
     <use style="fill:#da8bc3;fill-opacity:0.8;" x="84.708526" xlink:href="#C0_0_13723a2a37" y="95.064718"/>
    </g>
    <g clip-path="url(#pc906c369ff)">
     <use style="fill:#da8bc3;fill-opacity:0.8;" x="97.752472" xlink:href="#C0_0_13723a2a37" y="72.907406"/>
    </g>
    <g clip-path="url(#pc906c369ff)">
     <use style="fill:#da8bc3;fill-opacity:0.8;" x="86.742291" xlink:href="#C0_0_13723a2a37" y="80.876664"/>
    </g>
    <g clip-path="url(#pc906c369ff)">
     <use style="fill:#da8bc3;fill-opacity:0.8;" x="93.006671" xlink:href="#C0_0_13723a2a37" y="108.076924"/>
    </g>
    <g clip-path="url(#pc906c369ff)">
     <use style="fill:#da8bc3;fill-opacity:0.8;" x="94.843033" xlink:href="#C0_0_13723a2a37" y="82.421319"/>
    </g>
    <g clip-path="url(#pc906c369ff)">
     <use style="fill:#da8bc3;fill-opacity:0.8;" x="104.668846" xlink:href="#C0_0_13723a2a37" y="81.641236"/>
    </g>
   </g>
   <g id="PathCollection_9">
    <defs>
     <path d="M 0 2.5 
C 0.663008 2.5 1.29895 2.236584 1.767767 1.767767 
C 2.236584 1.29895 2.5 0.663008 2.5 -0 
C 2.5 -0.663008 2.236584 -1.29895 1.767767 -1.767767 
C 1.29895 -2.236584 0.663008 -2.5 0 -2.5 
C -0.663008 -2.5 -1.29895 -2.236584 -1.767767 -1.767767 
C -2.236584 -1.29895 -2.5 -0.663008 -2.5 0 
C -2.5 0.663008 -2.236584 1.29895 -1.767767 1.767767 
C -1.29895 2.236584 -0.663008 2.5 0 2.5 
z
" id="C1_0_def905fd9a"/>
    </defs>
    <g clip-path="url(#pc906c369ff)">
     <use style="fill:#dd8452;fill-opacity:0.8;" x="218.063999" xlink:href="#C1_0_def905fd9a" y="180.095327"/>
    </g>
    <g clip-path="url(#pc906c369ff)">
     <use style="fill:#dd8452;fill-opacity:0.8;" x="205.99154" xlink:href="#C1_0_def905fd9a" y="180.763832"/>
    </g>
    <g clip-path="url(#pc906c369ff)">
     <use style="fill:#dd8452;fill-opacity:0.8;" x="212.455779" xlink:href="#C1_0_def905fd9a" y="187.698245"/>
    </g>
    <g clip-path="url(#pc906c369ff)">
     <use style="fill:#dd8452;fill-opacity:0.8;" x="213.493681" xlink:href="#C1_0_def905fd9a" y="168.942605"/>
    </g>
    <g clip-path="url(#pc906c369ff)">
     <use style="fill:#dd8452;fill-opacity:0.8;" x="198.892669" xlink:href="#C1_0_def905fd9a" y="174.270052"/>
    </g>
    <g clip-path="url(#pc906c369ff)">
     <use style="fill:#dd8452;fill-opacity:0.8;" x="213.920994" xlink:href="#C1_0_def905fd9a" y="185.353851"/>
    </g>
    <g clip-path="url(#pc906c369ff)">
     <use style="fill:#dd8452;fill-opacity:0.8;" x="199.876014" xlink:href="#C1_0_def905fd9a" y="177.109058"/>
    </g>
    <g clip-path="url(#pc906c369ff)">
     <use style="fill:#dd8452;fill-opacity:0.8;" x="198.34969" xlink:href="#C1_0_def905fd9a" y="169.921976"/>
    </g>
    <g clip-path="url(#pc906c369ff)">
     <use style="fill:#dd8452;fill-opacity:0.8;" x="214.8995" xlink:href="#C1_0_def905fd9a" y="174.74218"/>
    </g>
    <g clip-path="url(#pc906c369ff)">
     <use style="fill:#dd8452;fill-opacity:0.8;" x="212.390059" xlink:href="#C1_0_def905fd9a" y="179.280853"/>
    </g>
    <g clip-path="url(#pc906c369ff)">
     <use style="fill:#55a868;fill-opacity:0.8;" x="207.989244" xlink:href="#C1_0_def905fd9a" y="144.810088"/>
    </g>
    <g clip-path="url(#pc906c369ff)">
     <use style="fill:#55a868;fill-opacity:0.8;" x="213.327387" xlink:href="#C1_0_def905fd9a" y="154.13423"/>
    </g>
    <g clip-path="url(#pc906c369ff)">
     <use style="fill:#55a868;fill-opacity:0.8;" x="202.9162" xlink:href="#C1_0_def905fd9a" y="141.68171"/>
    </g>
    <g clip-path="url(#pc906c369ff)">
     <use style="fill:#55a868;fill-opacity:0.8;" x="210.891123" xlink:href="#C1_0_def905fd9a" y="151.706406"/>
    </g>
    <g clip-path="url(#pc906c369ff)">
     <use style="fill:#55a868;fill-opacity:0.8;" x="211.60542" xlink:href="#C1_0_def905fd9a" y="176.883402"/>
    </g>
    <g clip-path="url(#pc906c369ff)">
     <use style="fill:#55a868;fill-opacity:0.8;" x="209.647717" xlink:href="#C1_0_def905fd9a" y="179.599143"/>
    </g>
    <g clip-path="url(#pc906c369ff)">
     <use style="fill:#55a868;fill-opacity:0.8;" x="213.186752" xlink:href="#C1_0_def905fd9a" y="147.721309"/>
    </g>
    <g clip-path="url(#pc906c369ff)">
     <use style="fill:#55a868;fill-opacity:0.8;" x="214.196781" xlink:href="#C1_0_def905fd9a" y="171.415362"/>
    </g>
    <g clip-path="url(#pc906c369ff)">
     <use style="fill:#c44e52;fill-opacity:0.8;" x="203.150443" xlink:href="#C1_0_def905fd9a" y="200.730923"/>
    </g>
    <g clip-path="url(#pc906c369ff)">
     <use style="fill:#c44e52;fill-opacity:0.8;" x="198.214807" xlink:href="#C1_0_def905fd9a" y="175.976377"/>
    </g>
    <g clip-path="url(#pc906c369ff)">
     <use style="fill:#c44e52;fill-opacity:0.8;" x="214.881928" xlink:href="#C1_0_def905fd9a" y="193.930156"/>
    </g>
    <g clip-path="url(#pc906c369ff)">
     <use style="fill:#c44e52;fill-opacity:0.8;" x="210.078947" xlink:href="#C1_0_def905fd9a" y="177.222349"/>
    </g>
    <g clip-path="url(#pc906c369ff)">
     <use style="fill:#c44e52;fill-opacity:0.8;" x="201.316472" xlink:href="#C1_0_def905fd9a" y="181.87954"/>
    </g>
    <g clip-path="url(#pc906c369ff)">
     <use style="fill:#c44e52;fill-opacity:0.8;" x="216.324117" xlink:href="#C1_0_def905fd9a" y="198.753267"/>
    </g>
    <g clip-path="url(#pc906c369ff)">
     <use style="fill:#c44e52;fill-opacity:0.8;" x="206.300521" xlink:href="#C1_0_def905fd9a" y="193.980404"/>
    </g>
    <g clip-path="url(#pc906c369ff)">
     <use style="fill:#c44e52;fill-opacity:0.8;" x="211.019234" xlink:href="#C1_0_def905fd9a" y="189.627325"/>
    </g>
    <g clip-path="url(#pc906c369ff)">
     <use style="fill:#937860;fill-opacity:0.8;" x="216.773215" xlink:href="#C1_0_def905fd9a" y="156.233419"/>
    </g>
    <g clip-path="url(#pc906c369ff)">
     <use style="fill:#937860;fill-opacity:0.8;" x="198.139534" xlink:href="#C1_0_def905fd9a" y="156.860658"/>
    </g>
    <g clip-path="url(#pc906c369ff)">
     <use style="fill:#937860;fill-opacity:0.8;" x="208.919307" xlink:href="#C1_0_def905fd9a" y="133.741855"/>
    </g>
    <g clip-path="url(#pc906c369ff)">
     <use style="fill:#937860;fill-opacity:0.8;" x="205.609486" xlink:href="#C1_0_def905fd9a" y="172.760284"/>
    </g>
    <g clip-path="url(#pc906c369ff)">
     <use style="fill:#937860;fill-opacity:0.8;" x="203.841337" xlink:href="#C1_0_def905fd9a" y="157.032915"/>
    </g>
    <g clip-path="url(#pc906c369ff)">
     <use style="fill:#937860;fill-opacity:0.8;" x="199.489091" xlink:href="#C1_0_def905fd9a" y="165.918523"/>
    </g>
    <g clip-path="url(#pc906c369ff)">
     <use style="fill:#937860;fill-opacity:0.8;" x="212.954316" xlink:href="#C1_0_def905fd9a" y="148.284219"/>
    </g>
    <g clip-path="url(#pc906c369ff)">
     <use style="fill:#937860;fill-opacity:0.8;" x="210.069098" xlink:href="#C1_0_def905fd9a" y="91.94376"/>
    </g>
   </g>
   <g id="text_12">
    <!-- PWP2, $p_{adj}$ &lt; .001 *** -->
    <g style="fill:#262626;" transform="translate(39.155625 13.77)scale(0.09 -0.09)">
     <defs>
      <path d="M 20.21875 0 
L 1.21875 71.578125 
L 10.9375 71.578125 
L 21.828125 24.65625 
Q 23.578125 17.28125 24.859375 10.015625 
Q 27.59375 21.484375 28.078125 23.25 
L 41.703125 71.578125 
L 53.125 71.578125 
L 63.375 35.359375 
Q 67.234375 21.875 68.953125 10.015625 
Q 70.3125 16.796875 72.515625 25.59375 
L 83.734375 71.578125 
L 93.265625 71.578125 
L 73.640625 0 
L 64.5 0 
L 49.421875 54.546875 
Q 47.515625 61.375 47.171875 62.9375 
Q 46.046875 58.015625 45.0625 54.546875 
L 29.890625 0 
z
" id="ArialMT-87"/>
      <path d="M 8.890625 0 
L 8.890625 10.015625 
L 18.890625 10.015625 
L 18.890625 0 
Q 18.890625 -5.515625 16.9375 -8.90625 
Q 14.984375 -12.3125 10.75 -14.15625 
L 8.296875 -10.40625 
Q 11.078125 -9.1875 12.390625 -6.8125 
Q 13.71875 -4.4375 13.875 0 
z
" id="ArialMT-44"/>
      <path d="M 49.609375 33.6875 
Q 49.609375 40.875 46.484375 44.671875 
Q 43.359375 48.484375 37.5 48.484375 
Q 33.5 48.484375 29.859375 46.4375 
Q 26.21875 44.390625 23.390625 40.484375 
Q 20.609375 36.625 18.9375 31.15625 
Q 17.28125 25.6875 17.28125 20.3125 
Q 17.28125 13.484375 20.40625 9.796875 
Q 23.53125 6.109375 29.296875 6.109375 
Q 33.546875 6.109375 37.1875 8.109375 
Q 40.828125 10.109375 43.40625 13.921875 
Q 46.1875 17.921875 47.890625 23.34375 
Q 49.609375 28.765625 49.609375 33.6875 
z
M 21.78125 46.390625 
Q 25.390625 51.125 30.296875 53.5625 
Q 35.203125 56 41.21875 56 
Q 49.609375 56 54.25 50.5 
Q 58.890625 45.015625 58.890625 35.109375 
Q 58.890625 27 56 19.65625 
Q 53.125 12.3125 47.703125 6.5 
Q 44.09375 2.640625 39.546875 0.609375 
Q 35.015625 -1.421875 29.984375 -1.421875 
Q 24.171875 -1.421875 20.21875 1 
Q 16.265625 3.421875 14.3125 8.203125 
L 8.6875 -20.796875 
L -0.296875 -20.796875 
L 14.40625 54.6875 
L 23.390625 54.6875 
z
" id="DejaVuSans-Oblique-112"/>
      <path d="M 53.71875 31.203125 
L 47.609375 0 
L 38.625 0 
L 40.28125 8.296875 
Q 36.328125 3.421875 31.265625 1 
Q 26.21875 -1.421875 20.015625 -1.421875 
Q 13.03125 -1.421875 8.5625 2.84375 
Q 4.109375 7.125 4.109375 13.8125 
Q 4.109375 23.390625 11.75 28.953125 
Q 19.390625 34.515625 32.8125 34.515625 
L 45.3125 34.515625 
L 45.796875 36.921875 
Q 45.90625 37.3125 45.953125 37.765625 
Q 46 38.234375 46 39.203125 
Q 46 43.5625 42.453125 45.96875 
Q 38.921875 48.390625 32.515625 48.390625 
Q 28.125 48.390625 23.5 47.265625 
Q 18.890625 46.140625 14.015625 43.890625 
L 15.578125 52.203125 
Q 20.65625 54.109375 25.515625 55.046875 
Q 30.375 56 34.90625 56 
Q 44.578125 56 49.625 51.796875 
Q 54.6875 47.609375 54.6875 39.59375 
Q 54.6875 37.984375 54.4375 35.8125 
Q 54.203125 33.640625 53.71875 31.203125 
z
M 44 27.484375 
L 35.015625 27.484375 
Q 23.96875 27.484375 18.671875 24.53125 
Q 13.375 21.578125 13.375 15.375 
Q 13.375 11.078125 16.078125 8.640625 
Q 18.796875 6.203125 23.578125 6.203125 
Q 30.90625 6.203125 36.375 11.453125 
Q 41.84375 16.703125 43.609375 25.484375 
z
" id="DejaVuSans-Oblique-97"/>
      <path d="M 41.796875 8.203125 
Q 38.1875 3.46875 33.25 1.015625 
Q 28.328125 -1.421875 22.3125 -1.421875 
Q 14.109375 -1.421875 9.34375 4.171875 
Q 4.59375 9.765625 4.59375 19.484375 
Q 4.59375 27.59375 7.46875 34.9375 
Q 10.359375 42.28125 15.828125 48.09375 
Q 19.4375 51.953125 23.96875 53.96875 
Q 28.515625 56 33.5 56 
Q 38.765625 56 42.796875 53.453125 
Q 46.828125 50.921875 49.03125 46.1875 
L 54.890625 75.984375 
L 63.921875 75.984375 
L 49.125 0 
L 40.09375 0 
z
M 13.921875 21.09375 
Q 13.921875 14.015625 17.109375 10.0625 
Q 20.3125 6.109375 25.984375 6.109375 
Q 30.171875 6.109375 33.765625 8.125 
Q 37.359375 10.15625 40.09375 14.109375 
Q 42.96875 18.21875 44.625 23.578125 
Q 46.296875 28.953125 46.296875 34.1875 
Q 46.296875 40.96875 43.09375 44.765625 
Q 39.890625 48.578125 34.28125 48.578125 
Q 30.03125 48.578125 26.359375 46.578125 
Q 22.703125 44.578125 20.125 40.828125 
Q 17.28125 36.765625 15.59375 31.390625 
Q 13.921875 26.03125 13.921875 21.09375 
z
" id="DejaVuSans-Oblique-100"/>
      <path d="M 14.5 54.6875 
L 23.484375 54.6875 
L 12.703125 -0.984375 
L 12.640625 -1.21875 
Q 10.84375 -10.546875 8.5 -14.015625 
Q 6.296875 -17.28125 2.0625 -19.03125 
Q -2.15625 -20.796875 -7.90625 -20.796875 
L -11.28125 -20.796875 
L -9.8125 -13.1875 
L -7.515625 -13.1875 
Q -2.25 -13.1875 -0.015625 -10.984375 
Q 2.203125 -8.796875 3.71875 -0.984375 
z
M 18.703125 75.984375 
L 27.6875 75.984375 
L 25.484375 64.59375 
L 16.5 64.59375 
z
" id="DejaVuSans-Oblique-106"/>
      <path d="M 5.46875 31.296875 
L 5.46875 39.5 
L 52.875 59.515625 
L 52.875 50.78125 
L 15.28125 35.359375 
L 52.875 19.78125 
L 52.875 11.03125 
z
" id="ArialMT-60"/>
      <path d="M 9.078125 0 
L 9.078125 10.015625 
L 19.09375 10.015625 
L 19.09375 0 
z
" id="ArialMT-46"/>
      <path d="M 3.125 58.453125 
L 5.375 65.375 
Q 13.140625 62.640625 16.65625 60.640625 
Q 15.71875 69.484375 15.671875 72.796875 
L 22.75 72.796875 
Q 22.609375 67.96875 21.625 60.6875 
Q 26.65625 63.234375 33.15625 65.375 
L 35.40625 58.453125 
Q 29.203125 56.390625 23.25 55.71875 
Q 26.21875 53.125 31.640625 46.484375 
L 25.78125 42.328125 
Q 22.953125 46.1875 19.09375 52.828125 
Q 15.484375 45.953125 12.75 42.328125 
L 6.984375 46.484375 
Q 12.640625 53.46875 15.09375 55.71875 
Q 8.796875 56.9375 3.125 58.453125 
z
" id="ArialMT-42"/>
     </defs>
     <use transform="translate(0 0.203125)" xlink:href="#ArialMT-80"/>
     <use transform="translate(66.699219 0.203125)" xlink:href="#ArialMT-87"/>
     <use transform="translate(161.083984 0.203125)" xlink:href="#ArialMT-80"/>
     <use transform="translate(227.783203 0.203125)" xlink:href="#ArialMT-50"/>
     <use transform="translate(283.398438 0.203125)" xlink:href="#ArialMT-44"/>
     <use transform="translate(311.181641 0.203125)" xlink:href="#ArialMT-32"/>
     <use transform="translate(338.964844 0.203125)" xlink:href="#DejaVuSans-Oblique-112"/>
     <use transform="translate(402.441406 -16.203125)scale(0.7)" xlink:href="#DejaVuSans-Oblique-97"/>
     <use transform="translate(445.336914 -16.203125)scale(0.7)" xlink:href="#DejaVuSans-Oblique-100"/>
     <use transform="translate(489.770508 -16.203125)scale(0.7)" xlink:href="#DejaVuSans-Oblique-106"/>
     <use transform="translate(511.953125 0.203125)" xlink:href="#ArialMT-32"/>
     <use transform="translate(539.736328 0.203125)" xlink:href="#ArialMT-60"/>
     <use transform="translate(598.134766 0.203125)" xlink:href="#ArialMT-32"/>
     <use transform="translate(625.917969 0.203125)" xlink:href="#ArialMT-46"/>
     <use transform="translate(653.701172 0.203125)" xlink:href="#ArialMT-48"/>
     <use transform="translate(709.316406 0.203125)" xlink:href="#ArialMT-48"/>
     <use transform="translate(764.931641 0.203125)" xlink:href="#ArialMT-49"/>
     <use transform="translate(820.546875 0.203125)" xlink:href="#ArialMT-32"/>
     <use transform="translate(848.330078 0.203125)" xlink:href="#ArialMT-42"/>
     <use transform="translate(887.246094 0.203125)" xlink:href="#ArialMT-42"/>
     <use transform="translate(926.162109 0.203125)" xlink:href="#ArialMT-42"/>
    </g>
   </g>
  </g>
  <g id="axes_2">
   <g id="patch_5">
    <path d="M 273.163735 209.34811 
L 497.451845 209.34811 
L 497.451845 19.77 
L 273.163735 19.77 
z
" style="fill:#ffffff;"/>
   </g>
   <g id="matplotlib.axis_3">
    <g id="xtick_3">
     <g id="text_13">
      <!-- BEVA -->
      <g style="fill:#444444;" transform="translate(317.561075 225.290141)scale(0.09 -0.09)">
       <defs>
        <path d="M 7.328125 0 
L 7.328125 71.578125 
L 34.1875 71.578125 
Q 42.390625 71.578125 47.34375 69.40625 
Q 52.296875 67.234375 55.09375 62.71875 
Q 57.90625 58.203125 57.90625 53.265625 
Q 57.90625 48.6875 55.421875 44.625 
Q 52.9375 40.578125 47.90625 38.09375 
Q 54.390625 36.1875 57.875 31.59375 
Q 61.375 27 61.375 20.75 
Q 61.375 15.71875 59.25 11.390625 
Q 57.125 7.078125 54 4.734375 
Q 50.875 2.390625 46.15625 1.1875 
Q 41.453125 0 34.625 0 
z
M 16.796875 41.5 
L 32.28125 41.5 
Q 38.578125 41.5 41.3125 42.328125 
Q 44.921875 43.40625 46.75 45.890625 
Q 48.578125 48.390625 48.578125 52.15625 
Q 48.578125 55.71875 46.875 58.421875 
Q 45.171875 61.140625 41.984375 62.140625 
Q 38.8125 63.140625 31.109375 63.140625 
L 16.796875 63.140625 
z
M 16.796875 8.453125 
L 34.625 8.453125 
Q 39.203125 8.453125 41.0625 8.796875 
Q 44.34375 9.375 46.53125 10.734375 
Q 48.734375 12.109375 50.140625 14.71875 
Q 51.5625 17.328125 51.5625 20.75 
Q 51.5625 24.75 49.515625 27.703125 
Q 47.46875 30.671875 43.828125 31.859375 
Q 40.1875 33.0625 33.34375 33.0625 
L 16.796875 33.0625 
z
" id="ArialMT-66"/>
        <path d="M 7.90625 0 
L 7.90625 71.578125 
L 59.671875 71.578125 
L 59.671875 63.140625 
L 17.390625 63.140625 
L 17.390625 41.21875 
L 56.984375 41.21875 
L 56.984375 32.8125 
L 17.390625 32.8125 
L 17.390625 8.453125 
L 61.328125 8.453125 
L 61.328125 0 
z
" id="ArialMT-69"/>
        <path d="M 28.171875 0 
L 0.4375 71.578125 
L 10.6875 71.578125 
L 29.296875 19.578125 
Q 31.546875 13.328125 33.0625 7.859375 
Q 34.71875 13.71875 36.921875 19.578125 
L 56.25 71.578125 
L 65.921875 71.578125 
L 37.890625 0 
z
" id="ArialMT-86"/>
        <path d="M -0.140625 0 
L 27.34375 71.578125 
L 37.546875 71.578125 
L 66.84375 0 
L 56.0625 0 
L 47.703125 21.6875 
L 17.78125 21.6875 
L 9.90625 0 
z
M 20.515625 29.390625 
L 44.78125 29.390625 
L 37.3125 49.21875 
Q 33.890625 58.25 32.234375 64.0625 
Q 30.859375 57.171875 28.375 50.390625 
z
" id="ArialMT-65"/>
       </defs>
       <use xlink:href="#ArialMT-66"/>
       <use x="66.699219" xlink:href="#ArialMT-69"/>
       <use x="133.398438" xlink:href="#ArialMT-86"/>
       <use x="192.722656" xlink:href="#ArialMT-65"/>
      </g>
     </g>
    </g>
    <g id="xtick_4">
     <g id="text_14">
      <!-- CTRL -->
      <g style="fill:#444444;" transform="translate(429.629193 225.290141)scale(0.09 -0.09)">
       <defs>
        <path d="M 7.859375 0 
L 7.859375 71.578125 
L 39.59375 71.578125 
Q 49.171875 71.578125 54.140625 69.640625 
Q 59.125 67.71875 62.109375 62.828125 
Q 65.09375 57.953125 65.09375 52.046875 
Q 65.09375 44.4375 60.15625 39.203125 
Q 55.21875 33.984375 44.921875 32.5625 
Q 48.6875 30.765625 50.640625 29 
Q 54.78125 25.203125 58.5 19.484375 
L 70.953125 0 
L 59.03125 0 
L 49.5625 14.890625 
Q 45.40625 21.34375 42.71875 24.75 
Q 40.046875 28.171875 37.921875 29.53125 
Q 35.796875 30.90625 33.59375 31.453125 
Q 31.984375 31.78125 28.328125 31.78125 
L 17.328125 31.78125 
L 17.328125 0 
z
M 17.328125 39.984375 
L 37.703125 39.984375 
Q 44.1875 39.984375 47.84375 41.328125 
Q 51.515625 42.671875 53.421875 45.625 
Q 55.328125 48.578125 55.328125 52.046875 
Q 55.328125 57.125 51.640625 60.390625 
Q 47.953125 63.671875 39.984375 63.671875 
L 17.328125 63.671875 
z
" id="ArialMT-82"/>
        <path d="M 7.328125 0 
L 7.328125 71.578125 
L 16.796875 71.578125 
L 16.796875 8.453125 
L 52.046875 8.453125 
L 52.046875 0 
z
" id="ArialMT-76"/>
       </defs>
       <use xlink:href="#ArialMT-67"/>
       <use x="72.216797" xlink:href="#ArialMT-84"/>
       <use x="133.300781" xlink:href="#ArialMT-82"/>
       <use x="205.517578" xlink:href="#ArialMT-76"/>
      </g>
     </g>
    </g>
    <g id="text_15">
     <!-- Condition -->
     <g style="fill:#444444;" transform="translate(366.295993 237.520923)scale(0.09 -0.09)">
      <use xlink:href="#ArialMT-67"/>
      <use x="72.216797" xlink:href="#ArialMT-111"/>
      <use x="127.832031" xlink:href="#ArialMT-110"/>
      <use x="183.447266" xlink:href="#ArialMT-100"/>
      <use x="239.0625" xlink:href="#ArialMT-105"/>
      <use x="261.279297" xlink:href="#ArialMT-116"/>
      <use x="289.0625" xlink:href="#ArialMT-105"/>
      <use x="311.279297" xlink:href="#ArialMT-111"/>
      <use x="366.894531" xlink:href="#ArialMT-110"/>
     </g>
    </g>
   </g>
   <g id="matplotlib.axis_4">
    <g id="ytick_8"/>
    <g id="ytick_9"/>
    <g id="ytick_10"/>
    <g id="ytick_11"/>
    <g id="ytick_12"/>
    <g id="ytick_13"/>
    <g id="ytick_14"/>
   </g>
   <g id="PolyCollection_3">
    <defs>
     <path d="M 356.349076 -45.778749 
L 302.12245 -45.778749 
L 300.601285 -47.519595 
L 299.091737 -49.260441 
L 297.603947 -51.001287 
L 296.148281 -52.742133 
L 294.73521 -54.482978 
L 293.375172 -56.223824 
L 292.078442 -57.96467 
L 290.854991 -59.705516 
L 289.714354 -61.446362 
L 288.665495 -63.187208 
L 287.716685 -64.928053 
L 286.875388 -66.668899 
L 286.148154 -68.409745 
L 285.540528 -70.150591 
L 285.056979 -71.891437 
L 284.700833 -73.632283 
L 284.47424 -75.373128 
L 284.378141 -77.113974 
L 284.412264 -78.85482 
L 284.575136 -80.595666 
L 284.86411 -82.336512 
L 285.275403 -84.077357 
L 285.804161 -85.818203 
L 286.444523 -87.559049 
L 287.189708 -89.299895 
L 288.032104 -91.040741 
L 288.963365 -92.781587 
L 289.974524 -94.522432 
L 291.056094 -96.263278 
L 292.198185 -98.004124 
L 293.390618 -99.74497 
L 294.623032 -101.485816 
L 295.884999 -103.226662 
L 297.166131 -104.967507 
L 298.45618 -106.708353 
L 299.745139 -108.449199 
L 301.023334 -110.190045 
L 302.281507 -111.930891 
L 303.5109 -113.671736 
L 304.703321 -115.412582 
L 305.851212 -117.153428 
L 306.947706 -118.894274 
L 307.98667 -120.63512 
L 308.962752 -122.375966 
L 309.871405 -124.116811 
L 310.708914 -125.857657 
L 311.472412 -127.598503 
L 312.159882 -129.339349 
L 312.770154 -131.080195 
L 313.302895 -132.821041 
L 313.758592 -134.561886 
L 314.138517 -136.302732 
L 314.444695 -138.043578 
L 314.679862 -139.784424 
L 314.84741 -141.52527 
L 314.951331 -143.266115 
L 314.996156 -145.006961 
L 314.986884 -146.747807 
L 314.92891 -148.488653 
L 314.827951 -150.229499 
L 314.689963 -151.970345 
L 314.521069 -153.71119 
L 314.327473 -155.452036 
L 314.115385 -157.192882 
L 313.890946 -158.933728 
L 313.660153 -160.674574 
L 313.428792 -162.41542 
L 313.202376 -164.156265 
L 312.986089 -165.897111 
L 312.784736 -167.637957 
L 312.602702 -169.378803 
L 312.443919 -171.119649 
L 312.31184 -172.860494 
L 312.209426 -174.60134 
L 312.139131 -176.342186 
L 312.102909 -178.083032 
L 312.102217 -179.823878 
L 312.138031 -181.564724 
L 312.210866 -183.305569 
L 312.3208 -185.046415 
L 312.467509 -186.787261 
L 312.650295 -188.528107 
L 312.868125 -190.268953 
L 313.119667 -192.009799 
L 313.40333 -193.750644 
L 313.717301 -195.49149 
L 314.05958 -197.232336 
L 314.428019 -198.973182 
L 314.820352 -200.714028 
L 315.234227 -202.454873 
L 315.667235 -204.195719 
L 316.116932 -205.936565 
L 316.580868 -207.677411 
L 317.056601 -209.418257 
L 317.541716 -211.159103 
L 318.033843 -212.899948 
L 318.530666 -214.640794 
L 319.029939 -216.38164 
L 319.529493 -218.122486 
L 338.942033 -218.122486 
L 338.942033 -218.122486 
L 339.441587 -216.38164 
L 339.94086 -214.640794 
L 340.437683 -212.899948 
L 340.92981 -211.159103 
L 341.414925 -209.418257 
L 341.890657 -207.677411 
L 342.354593 -205.936565 
L 342.804291 -204.195719 
L 343.237298 -202.454873 
L 343.651173 -200.714028 
L 344.043506 -198.973182 
L 344.411945 -197.232336 
L 344.754225 -195.49149 
L 345.068196 -193.750644 
L 345.351859 -192.009799 
L 345.603401 -190.268953 
L 345.82123 -188.528107 
L 346.004016 -186.787261 
L 346.150725 -185.046415 
L 346.26066 -183.305569 
L 346.333494 -181.564724 
L 346.369308 -179.823878 
L 346.368616 -178.083032 
L 346.332394 -176.342186 
L 346.2621 -174.60134 
L 346.159685 -172.860494 
L 346.027607 -171.119649 
L 345.868824 -169.378803 
L 345.68679 -167.637957 
L 345.485437 -165.897111 
L 345.26915 -164.156265 
L 345.042734 -162.41542 
L 344.811373 -160.674574 
L 344.580579 -158.933728 
L 344.35614 -157.192882 
L 344.144053 -155.452036 
L 343.950457 -153.71119 
L 343.781562 -151.970345 
L 343.643575 -150.229499 
L 343.542615 -148.488653 
L 343.484641 -146.747807 
L 343.475369 -145.006961 
L 343.520194 -143.266115 
L 343.624116 -141.52527 
L 343.791663 -139.784424 
L 344.02683 -138.043578 
L 344.333009 -136.302732 
L 344.712933 -134.561886 
L 345.16863 -132.821041 
L 345.701372 -131.080195 
L 346.311644 -129.339349 
L 346.999113 -127.598503 
L 347.762611 -125.857657 
L 348.600121 -124.116811 
L 349.508774 -122.375966 
L 350.484855 -120.63512 
L 351.52382 -118.894274 
L 352.620313 -117.153428 
L 353.768205 -115.412582 
L 354.960626 -113.671736 
L 356.190018 -111.930891 
L 357.448192 -110.190045 
L 358.726386 -108.449199 
L 360.015346 -106.708353 
L 361.305395 -104.967507 
L 362.586527 -103.226662 
L 363.848494 -101.485816 
L 365.080908 -99.74497 
L 366.27334 -98.004124 
L 367.415432 -96.263278 
L 368.497002 -94.522432 
L 369.50816 -92.781587 
L 370.439422 -91.040741 
L 371.281817 -89.299895 
L 372.027002 -87.559049 
L 372.667365 -85.818203 
L 373.196123 -84.077357 
L 373.607416 -82.336512 
L 373.896389 -80.595666 
L 374.059262 -78.85482 
L 374.093385 -77.113974 
L 373.997285 -75.373128 
L 373.770692 -73.632283 
L 373.414547 -71.891437 
L 372.930997 -70.150591 
L 372.323372 -68.409745 
L 371.596137 -66.668899 
L 370.75484 -64.928053 
L 369.806031 -63.187208 
L 368.757172 -61.446362 
L 367.616534 -59.705516 
L 366.393083 -57.96467 
L 365.096353 -56.223824 
L 363.736316 -54.482978 
L 362.323244 -52.742133 
L 360.867579 -51.001287 
L 359.379788 -49.260441 
L 357.870241 -47.519595 
L 356.349076 -45.778749 
z
" id="mc1c0ffdac8" style="stroke:#999999;stroke-width:2;"/>
    </defs>
    <g clip-path="url(#p77b9571e8a)">
     <use style="fill:#ffffff;stroke:#999999;stroke-width:2;" x="0" xlink:href="#mc1c0ffdac8" y="246.509673"/>
    </g>
   </g>
   <g id="PolyCollection_4">
    <defs>
     <path d="M 474.967183 -47.756406 
L 407.792453 -47.756406 
L 406.419418 -49.433845 
L 405.104027 -51.111284 
L 403.856484 -52.788723 
L 402.686648 -54.466162 
L 401.603893 -56.143601 
L 400.616978 -57.82104 
L 399.733912 -59.498479 
L 398.961839 -61.175918 
L 398.306927 -62.853357 
L 397.774274 -64.530796 
L 397.367832 -66.208235 
L 397.090344 -67.885674 
L 396.943299 -69.563113 
L 396.926916 -71.240552 
L 397.040133 -72.917991 
L 397.280629 -74.59543 
L 397.644856 -76.272869 
L 398.128097 -77.950308 
L 398.724534 -79.627747 
L 399.427335 -81.305186 
L 400.228758 -82.982625 
L 401.120258 -84.660064 
L 402.092611 -86.337503 
L 403.136043 -88.014942 
L 404.240357 -89.692381 
L 405.395075 -91.36982 
L 406.589565 -93.047259 
L 407.813176 -94.724698 
L 409.055363 -96.402137 
L 410.305807 -98.079576 
L 411.554529 -99.757015 
L 412.791987 -101.434454 
L 414.009176 -103.111893 
L 415.197702 -104.789332 
L 416.349852 -106.466771 
L 417.458652 -108.14421 
L 418.51791 -109.821649 
L 419.522248 -111.499088 
L 420.46712 -113.176527 
L 421.348826 -114.853966 
L 422.164502 -116.531405 
L 422.912115 -118.208844 
L 423.590437 -119.886283 
L 424.199015 -121.563722 
L 424.738136 -123.241161 
L 425.208779 -124.9186 
L 425.612568 -126.596039 
L 425.951716 -128.273478 
L 426.228964 -129.950917 
L 426.447523 -131.628356 
L 426.611006 -133.305795 
L 426.723364 -134.983234 
L 426.788822 -136.660673 
L 426.81181 -138.338112 
L 426.796902 -140.015551 
L 426.748751 -141.69299 
L 426.672031 -143.370429 
L 426.57138 -145.047868 
L 426.451347 -146.725307 
L 426.316345 -148.402746 
L 426.170609 -150.080185 
L 426.018156 -151.757624 
L 425.862759 -153.435063 
L 425.707915 -155.112502 
L 425.55683 -156.789941 
L 425.412408 -158.46738 
L 425.27724 -160.144819 
L 425.153606 -161.822258 
L 425.04348 -163.499697 
L 424.948541 -165.177136 
L 424.870183 -166.854575 
L 424.809538 -168.532014 
L 424.767499 -170.209453 
L 424.744738 -171.886892 
L 424.741735 -173.564331 
L 424.758803 -175.24177 
L 424.796118 -176.919209 
L 424.853735 -178.596648 
L 424.931619 -180.274087 
L 425.029663 -181.951526 
L 425.147705 -183.628964 
L 425.285544 -185.306403 
L 425.442949 -186.983842 
L 425.61967 -188.661281 
L 425.815436 -190.33872 
L 426.029961 -192.016159 
L 426.262938 -193.693598 
L 426.514032 -195.371037 
L 426.782876 -197.048476 
L 427.069055 -198.725915 
L 427.3721 -200.403354 
L 427.691474 -202.080793 
L 428.026563 -203.758232 
L 428.376663 -205.435671 
L 428.740972 -207.11311 
L 429.118584 -208.790549 
L 429.508484 -210.467988 
L 429.909548 -212.145427 
L 430.320539 -213.822866 
L 452.439096 -213.822866 
L 452.439096 -213.822866 
L 452.850088 -212.145427 
L 453.251151 -210.467988 
L 453.641052 -208.790549 
L 454.018664 -207.11311 
L 454.382973 -205.435671 
L 454.733072 -203.758232 
L 455.068162 -202.080793 
L 455.387536 -200.403354 
L 455.690581 -198.725915 
L 455.97676 -197.048476 
L 456.245604 -195.371037 
L 456.496698 -193.693598 
L 456.729675 -192.016159 
L 456.9442 -190.33872 
L 457.139966 -188.661281 
L 457.316687 -186.983842 
L 457.474092 -185.306403 
L 457.611931 -183.628964 
L 457.729973 -181.951526 
L 457.828017 -180.274087 
L 457.905901 -178.596648 
L 457.963518 -176.919209 
L 458.000832 -175.24177 
L 458.017901 -173.564331 
L 458.014898 -171.886892 
L 457.992137 -170.209453 
L 457.950097 -168.532014 
L 457.889453 -166.854575 
L 457.811095 -165.177136 
L 457.716155 -163.499697 
L 457.60603 -161.822258 
L 457.482396 -160.144819 
L 457.347228 -158.46738 
L 457.202806 -156.789941 
L 457.051721 -155.112502 
L 456.896877 -153.435063 
L 456.741479 -151.757624 
L 456.589027 -150.080185 
L 456.443291 -148.402746 
L 456.308289 -146.725307 
L 456.188256 -145.047868 
L 456.087605 -143.370429 
L 456.010885 -141.69299 
L 455.962734 -140.015551 
L 455.947826 -138.338112 
L 455.970814 -136.660673 
L 456.036272 -134.983234 
L 456.14863 -133.305795 
L 456.312113 -131.628356 
L 456.530672 -129.950917 
L 456.80792 -128.273478 
L 457.147068 -126.596039 
L 457.550857 -124.9186 
L 458.0215 -123.241161 
L 458.560621 -121.563722 
L 459.169199 -119.886283 
L 459.84752 -118.208844 
L 460.595134 -116.531405 
L 461.41081 -114.853966 
L 462.292516 -113.176527 
L 463.237388 -111.499088 
L 464.241726 -109.821649 
L 465.300984 -108.14421 
L 466.409784 -106.466771 
L 467.561934 -104.789332 
L 468.750459 -103.111893 
L 469.967649 -101.434454 
L 471.205107 -99.757015 
L 472.453828 -98.079576 
L 473.704273 -96.402137 
L 474.946459 -94.724698 
L 476.17007 -93.047259 
L 477.364561 -91.36982 
L 478.519279 -89.692381 
L 479.623593 -88.014942 
L 480.667025 -86.337503 
L 481.639378 -84.660064 
L 482.530878 -82.982625 
L 483.332301 -81.305186 
L 484.035102 -79.627747 
L 484.631539 -77.950308 
L 485.11478 -76.272869 
L 485.479007 -74.59543 
L 485.719503 -72.917991 
L 485.83272 -71.240552 
L 485.816337 -69.563113 
L 485.669292 -67.885674 
L 485.391803 -66.208235 
L 484.985361 -64.530796 
L 484.452709 -62.853357 
L 483.797796 -61.175918 
L 483.025723 -59.498479 
L 482.142658 -57.82104 
L 481.155743 -56.143601 
L 480.072988 -54.466162 
L 478.903152 -52.788723 
L 477.655609 -51.111284 
L 476.340218 -49.433845 
L 474.967183 -47.756406 
z
" id="m86da46c84c" style="stroke:#999999;stroke-width:2;"/>
    </defs>
    <g clip-path="url(#p77b9571e8a)">
     <use style="fill:#ffffff;stroke:#999999;stroke-width:2;" x="0" xlink:href="#m86da46c84c" y="246.509673"/>
    </g>
   </g>
   <g id="PathCollection_10"/>
   <g id="PathCollection_11"/>
   <g id="PathCollection_12"/>
   <g id="PathCollection_13"/>
   <g id="PathCollection_14"/>
   <g id="PathCollection_15"/>
   <g id="PathCollection_16"/>
   <g id="patch_6">
    <path d="M 273.163735 209.34811 
L 273.163735 19.77 
" style="fill:none;stroke:#262626;stroke-linecap:square;stroke-linejoin:miter;stroke-width:1.25;"/>
   </g>
   <g id="patch_7">
    <path d="M 273.163735 209.34811 
L 497.451845 209.34811 
" style="fill:none;stroke:#262626;stroke-linecap:square;stroke-linejoin:miter;stroke-width:1.25;"/>
   </g>
   <g id="PathCollection_17">
    <defs>
     <path d="M 0 2.5 
C 0.663008 2.5 1.29895 2.236584 1.767767 1.767767 
C 2.236584 1.29895 2.5 0.663008 2.5 -0 
C 2.5 -0.663008 2.236584 -1.29895 1.767767 -1.767767 
C 1.29895 -2.236584 0.663008 -2.5 0 -2.5 
C -0.663008 -2.5 -1.29895 -2.236584 -1.767767 -1.767767 
C -2.236584 -1.29895 -2.5 -0.663008 -2.5 0 
C -2.5 0.663008 -2.236584 1.29895 -1.767767 1.767767 
C -1.29895 2.236584 -0.663008 2.5 0 2.5 
z
" id="C2_0_ccefd60351"/>
    </defs>
    <g clip-path="url(#p77b9571e8a)">
     <use style="fill:#4c72b0;fill-opacity:0.8;" x="318.611207" xlink:href="#C2_0_ccefd60351" y="173.272528"/>
    </g>
    <g clip-path="url(#p77b9571e8a)">
     <use style="fill:#4c72b0;fill-opacity:0.8;" x="327.705523" xlink:href="#C2_0_ccefd60351" y="176.020573"/>
    </g>
    <g clip-path="url(#p77b9571e8a)">
     <use style="fill:#4c72b0;fill-opacity:0.8;" x="337.936321" xlink:href="#C2_0_ccefd60351" y="165.07086"/>
    </g>
    <g clip-path="url(#p77b9571e8a)">
     <use style="fill:#dd8452;fill-opacity:0.8;" x="339.178829" xlink:href="#C2_0_ccefd60351" y="180.095327"/>
    </g>
    <g clip-path="url(#p77b9571e8a)">
     <use style="fill:#dd8452;fill-opacity:0.8;" x="319.984159" xlink:href="#C2_0_ccefd60351" y="180.763832"/>
    </g>
    <g clip-path="url(#p77b9571e8a)">
     <use style="fill:#dd8452;fill-opacity:0.8;" x="324.569056" xlink:href="#C2_0_ccefd60351" y="187.698245"/>
    </g>
    <g clip-path="url(#p77b9571e8a)">
     <use style="fill:#dd8452;fill-opacity:0.8;" x="338.013847" xlink:href="#C2_0_ccefd60351" y="168.942605"/>
    </g>
    <g clip-path="url(#p77b9571e8a)">
     <use style="fill:#dd8452;fill-opacity:0.8;" x="327.317912" xlink:href="#C2_0_ccefd60351" y="174.270052"/>
    </g>
    <g clip-path="url(#p77b9571e8a)">
     <use style="fill:#55a868;fill-opacity:0.8;" x="323.715179" xlink:href="#C2_0_ccefd60351" y="144.810088"/>
    </g>
    <g clip-path="url(#p77b9571e8a)">
     <use style="fill:#55a868;fill-opacity:0.8;" x="325.200025" xlink:href="#C2_0_ccefd60351" y="154.13423"/>
    </g>
    <g clip-path="url(#p77b9571e8a)">
     <use style="fill:#55a868;fill-opacity:0.8;" x="333.261731" xlink:href="#C2_0_ccefd60351" y="141.68171"/>
    </g>
    <g clip-path="url(#p77b9571e8a)">
     <use style="fill:#55a868;fill-opacity:0.8;" x="328.378399" xlink:href="#C2_0_ccefd60351" y="151.706406"/>
    </g>
    <g clip-path="url(#p77b9571e8a)">
     <use style="fill:#c44e52;fill-opacity:0.8;" x="328.096865" xlink:href="#C2_0_ccefd60351" y="200.730923"/>
    </g>
    <g clip-path="url(#p77b9571e8a)">
     <use style="fill:#c44e52;fill-opacity:0.8;" x="338.294804" xlink:href="#C2_0_ccefd60351" y="175.976377"/>
    </g>
    <g clip-path="url(#p77b9571e8a)">
     <use style="fill:#c44e52;fill-opacity:0.8;" x="338.311301" xlink:href="#C2_0_ccefd60351" y="193.930156"/>
    </g>
    <g clip-path="url(#p77b9571e8a)">
     <use style="fill:#c44e52;fill-opacity:0.8;" x="329.3243" xlink:href="#C2_0_ccefd60351" y="177.222349"/>
    </g>
    <g clip-path="url(#p77b9571e8a)">
     <use style="fill:#8172b3;fill-opacity:0.8;" x="328.280181" xlink:href="#C2_0_ccefd60351" y="75.511436"/>
    </g>
    <g clip-path="url(#p77b9571e8a)">
     <use style="fill:#8172b3;fill-opacity:0.8;" x="332.168311" xlink:href="#C2_0_ccefd60351" y="42.436211"/>
    </g>
    <g clip-path="url(#p77b9571e8a)">
     <use style="fill:#8172b3;fill-opacity:0.8;" x="334.345628" xlink:href="#C2_0_ccefd60351" y="28.387187"/>
    </g>
    <g clip-path="url(#p77b9571e8a)">
     <use style="fill:#8172b3;fill-opacity:0.8;" x="328.79809" xlink:href="#C2_0_ccefd60351" y="51.818156"/>
    </g>
    <g clip-path="url(#p77b9571e8a)">
     <use style="fill:#937860;fill-opacity:0.8;" x="339.001737" xlink:href="#C2_0_ccefd60351" y="156.233419"/>
    </g>
    <g clip-path="url(#p77b9571e8a)">
     <use style="fill:#937860;fill-opacity:0.8;" x="332.788423" xlink:href="#C2_0_ccefd60351" y="156.860658"/>
    </g>
    <g clip-path="url(#p77b9571e8a)">
     <use style="fill:#937860;fill-opacity:0.8;" x="328.444957" xlink:href="#C2_0_ccefd60351" y="133.741855"/>
    </g>
    <g clip-path="url(#p77b9571e8a)">
     <use style="fill:#937860;fill-opacity:0.8;" x="333.265164" xlink:href="#C2_0_ccefd60351" y="172.760284"/>
    </g>
    <g clip-path="url(#p77b9571e8a)">
     <use style="fill:#da8bc3;fill-opacity:0.8;" x="331.476349" xlink:href="#C2_0_ccefd60351" y="65.500805"/>
    </g>
    <g clip-path="url(#p77b9571e8a)">
     <use style="fill:#da8bc3;fill-opacity:0.8;" x="336.920488" xlink:href="#C2_0_ccefd60351" y="75.857677"/>
    </g>
    <g clip-path="url(#p77b9571e8a)">
     <use style="fill:#da8bc3;fill-opacity:0.8;" x="332.331339" xlink:href="#C2_0_ccefd60351" y="95.064718"/>
    </g>
    <g clip-path="url(#p77b9571e8a)">
     <use style="fill:#da8bc3;fill-opacity:0.8;" x="338.11025" xlink:href="#C2_0_ccefd60351" y="72.907406"/>
    </g>
   </g>
   <g id="PathCollection_18">
    <defs>
     <path d="M 0 2.5 
C 0.663008 2.5 1.29895 2.236584 1.767767 1.767767 
C 2.236584 1.29895 2.5 0.663008 2.5 -0 
C 2.5 -0.663008 2.236584 -1.29895 1.767767 -1.767767 
C 1.29895 -2.236584 0.663008 -2.5 0 -2.5 
C -0.663008 -2.5 -1.29895 -2.236584 -1.767767 -1.767767 
C -2.236584 -1.29895 -2.5 -0.663008 -2.5 0 
C -2.5 0.663008 -2.236584 1.29895 -1.767767 1.767767 
C -1.29895 2.236584 -0.663008 2.5 0 2.5 
z
" id="C3_0_7fdb761962"/>
    </defs>
    <g clip-path="url(#p77b9571e8a)">
     <use style="fill:#4c72b0;fill-opacity:0.8;" x="441.32322" xlink:href="#C3_0_7fdb761962" y="176.858716"/>
    </g>
    <g clip-path="url(#p77b9571e8a)">
     <use style="fill:#4c72b0;fill-opacity:0.8;" x="450.472641" xlink:href="#C3_0_7fdb761962" y="176.283192"/>
    </g>
    <g clip-path="url(#p77b9571e8a)">
     <use style="fill:#4c72b0;fill-opacity:0.8;" x="434.246981" xlink:href="#C3_0_7fdb761962" y="181.900194"/>
    </g>
    <g clip-path="url(#p77b9571e8a)">
     <use style="fill:#dd8452;fill-opacity:0.8;" x="449.803058" xlink:href="#C3_0_7fdb761962" y="185.353851"/>
    </g>
    <g clip-path="url(#p77b9571e8a)">
     <use style="fill:#dd8452;fill-opacity:0.8;" x="438.271056" xlink:href="#C3_0_7fdb761962" y="177.109058"/>
    </g>
    <g clip-path="url(#p77b9571e8a)">
     <use style="fill:#dd8452;fill-opacity:0.8;" x="444.128901" xlink:href="#C3_0_7fdb761962" y="169.921976"/>
    </g>
    <g clip-path="url(#p77b9571e8a)">
     <use style="fill:#dd8452;fill-opacity:0.8;" x="441.141529" xlink:href="#C3_0_7fdb761962" y="174.74218"/>
    </g>
    <g clip-path="url(#p77b9571e8a)">
     <use style="fill:#dd8452;fill-opacity:0.8;" x="443.159623" xlink:href="#C3_0_7fdb761962" y="179.280853"/>
    </g>
    <g clip-path="url(#p77b9571e8a)">
     <use style="fill:#55a868;fill-opacity:0.8;" x="440.246787" xlink:href="#C3_0_7fdb761962" y="176.883402"/>
    </g>
    <g clip-path="url(#p77b9571e8a)">
     <use style="fill:#55a868;fill-opacity:0.8;" x="432.054928" xlink:href="#C3_0_7fdb761962" y="179.599143"/>
    </g>
    <g clip-path="url(#p77b9571e8a)">
     <use style="fill:#55a868;fill-opacity:0.8;" x="444.466028" xlink:href="#C3_0_7fdb761962" y="147.721309"/>
    </g>
    <g clip-path="url(#p77b9571e8a)">
     <use style="fill:#55a868;fill-opacity:0.8;" x="445.515022" xlink:href="#C3_0_7fdb761962" y="171.415362"/>
    </g>
    <g clip-path="url(#p77b9571e8a)">
     <use style="fill:#c44e52;fill-opacity:0.8;" x="438.255489" xlink:href="#C3_0_7fdb761962" y="181.87954"/>
    </g>
    <g clip-path="url(#p77b9571e8a)">
     <use style="fill:#c44e52;fill-opacity:0.8;" x="431.744323" xlink:href="#C3_0_7fdb761962" y="198.753267"/>
    </g>
    <g clip-path="url(#p77b9571e8a)">
     <use style="fill:#c44e52;fill-opacity:0.8;" x="451.330711" xlink:href="#C3_0_7fdb761962" y="193.980404"/>
    </g>
    <g clip-path="url(#p77b9571e8a)">
     <use style="fill:#c44e52;fill-opacity:0.8;" x="435.773928" xlink:href="#C3_0_7fdb761962" y="189.627325"/>
    </g>
    <g clip-path="url(#p77b9571e8a)">
     <use style="fill:#8172b3;fill-opacity:0.8;" x="432.920907" xlink:href="#C3_0_7fdb761962" y="32.686806"/>
    </g>
    <g clip-path="url(#p77b9571e8a)">
     <use style="fill:#8172b3;fill-opacity:0.8;" x="433.105838" xlink:href="#C3_0_7fdb761962" y="44.598648"/>
    </g>
    <g clip-path="url(#p77b9571e8a)">
     <use style="fill:#8172b3;fill-opacity:0.8;" x="434.893604" xlink:href="#C3_0_7fdb761962" y="40.522128"/>
    </g>
    <g clip-path="url(#p77b9571e8a)">
     <use style="fill:#8172b3;fill-opacity:0.8;" x="433.467955" xlink:href="#C3_0_7fdb761962" y="57.385374"/>
    </g>
    <g clip-path="url(#p77b9571e8a)">
     <use style="fill:#937860;fill-opacity:0.8;" x="440.828886" xlink:href="#C3_0_7fdb761962" y="157.032915"/>
    </g>
    <g clip-path="url(#p77b9571e8a)">
     <use style="fill:#937860;fill-opacity:0.8;" x="452.081269" xlink:href="#C3_0_7fdb761962" y="165.918523"/>
    </g>
    <g clip-path="url(#p77b9571e8a)">
     <use style="fill:#937860;fill-opacity:0.8;" x="442.026972" xlink:href="#C3_0_7fdb761962" y="148.284219"/>
    </g>
    <g clip-path="url(#p77b9571e8a)">
     <use style="fill:#937860;fill-opacity:0.8;" x="434.415207" xlink:href="#C3_0_7fdb761962" y="91.94376"/>
    </g>
    <g clip-path="url(#p77b9571e8a)">
     <use style="fill:#da8bc3;fill-opacity:0.8;" x="444.152046" xlink:href="#C3_0_7fdb761962" y="80.876664"/>
    </g>
    <g clip-path="url(#p77b9571e8a)">
     <use style="fill:#da8bc3;fill-opacity:0.8;" x="439.832154" xlink:href="#C3_0_7fdb761962" y="108.076924"/>
    </g>
    <g clip-path="url(#p77b9571e8a)">
     <use style="fill:#da8bc3;fill-opacity:0.8;" x="430.380342" xlink:href="#C3_0_7fdb761962" y="82.421319"/>
    </g>
    <g clip-path="url(#p77b9571e8a)">
     <use style="fill:#da8bc3;fill-opacity:0.8;" x="450.927671" xlink:href="#C3_0_7fdb761962" y="81.641236"/>
    </g>
   </g>
   <g id="text_16">
    <!-- PWP2, $p_{adj}$ = .797 -->
    <g style="fill:#262626;" transform="translate(273.163735 13.77)scale(0.09 -0.09)">
     <defs>
      <path d="M 52.828125 42.09375 
L 5.5625 42.09375 
L 5.5625 50.296875 
L 52.828125 50.296875 
z
M 52.828125 20.359375 
L 5.5625 20.359375 
L 5.5625 28.5625 
L 52.828125 28.5625 
z
" id="ArialMT-61"/>
      <path d="M 4.734375 62.203125 
L 4.734375 70.65625 
L 51.078125 70.65625 
L 51.078125 63.8125 
Q 44.234375 56.546875 37.515625 44.484375 
Q 30.8125 32.421875 27.15625 19.671875 
Q 24.515625 10.6875 23.78125 0 
L 14.75 0 
Q 14.890625 8.453125 18.0625 20.40625 
Q 21.234375 32.375 27.171875 43.484375 
Q 33.109375 54.59375 39.796875 62.203125 
z
" id="ArialMT-55"/>
      <path d="M 5.46875 16.546875 
L 13.921875 17.328125 
Q 14.984375 11.375 18.015625 8.6875 
Q 21.046875 6 25.78125 6 
Q 29.828125 6 32.875 7.859375 
Q 35.9375 9.71875 37.890625 12.8125 
Q 39.84375 15.921875 41.15625 21.1875 
Q 42.484375 26.46875 42.484375 31.9375 
Q 42.484375 32.515625 42.4375 33.6875 
Q 39.796875 29.5 35.234375 26.875 
Q 30.671875 24.265625 25.34375 24.265625 
Q 16.453125 24.265625 10.296875 30.703125 
Q 4.15625 37.15625 4.15625 47.703125 
Q 4.15625 58.59375 10.578125 65.234375 
Q 17 71.875 26.65625 71.875 
Q 33.640625 71.875 39.421875 68.109375 
Q 45.21875 64.359375 48.21875 57.390625 
Q 51.21875 50.4375 51.21875 37.25 
Q 51.21875 23.53125 48.234375 15.40625 
Q 45.265625 7.28125 39.375 3.03125 
Q 33.5 -1.21875 25.59375 -1.21875 
Q 17.1875 -1.21875 11.859375 3.4375 
Q 6.546875 8.109375 5.46875 16.546875 
z
M 41.453125 48.140625 
Q 41.453125 55.71875 37.421875 60.15625 
Q 33.40625 64.59375 27.734375 64.59375 
Q 21.875 64.59375 17.53125 59.8125 
Q 13.1875 55.03125 13.1875 47.40625 
Q 13.1875 40.578125 17.3125 36.296875 
Q 21.4375 32.03125 27.484375 32.03125 
Q 33.59375 32.03125 37.515625 36.296875 
Q 41.453125 40.578125 41.453125 48.140625 
z
" id="ArialMT-57"/>
     </defs>
     <use transform="translate(0 0.125)" xlink:href="#ArialMT-80"/>
     <use transform="translate(66.699219 0.125)" xlink:href="#ArialMT-87"/>
     <use transform="translate(161.083984 0.125)" xlink:href="#ArialMT-80"/>
     <use transform="translate(227.783203 0.125)" xlink:href="#ArialMT-50"/>
     <use transform="translate(283.398438 0.125)" xlink:href="#ArialMT-44"/>
     <use transform="translate(311.181641 0.125)" xlink:href="#ArialMT-32"/>
     <use transform="translate(338.964844 0.125)" xlink:href="#DejaVuSans-Oblique-112"/>
     <use transform="translate(402.441406 -16.28125)scale(0.7)" xlink:href="#DejaVuSans-Oblique-97"/>
     <use transform="translate(445.336914 -16.28125)scale(0.7)" xlink:href="#DejaVuSans-Oblique-100"/>
     <use transform="translate(489.770508 -16.28125)scale(0.7)" xlink:href="#DejaVuSans-Oblique-106"/>
     <use transform="translate(511.953125 0.125)" xlink:href="#ArialMT-32"/>
     <use transform="translate(539.736328 0.125)" xlink:href="#ArialMT-61"/>
     <use transform="translate(598.134766 0.125)" xlink:href="#ArialMT-32"/>
     <use transform="translate(625.917969 0.125)" xlink:href="#ArialMT-46"/>
     <use transform="translate(653.701172 0.125)" xlink:href="#ArialMT-55"/>
     <use transform="translate(709.316406 0.125)" xlink:href="#ArialMT-57"/>
     <use transform="translate(764.931641 0.125)" xlink:href="#ArialMT-55"/>
    </g>
   </g>
  </g>
  <g id="legend_1">
   <g id="patch_8">
    <path d="M 508.080936 175.28218 
L 551.895468 175.28218 
Q 553.695468 175.28218 553.695468 173.48218 
L 553.695468 72.53593 
Q 553.695468 70.73593 551.895468 70.73593 
L 508.080936 70.73593 
Q 506.280936 70.73593 506.280936 72.53593 
L 506.280936 173.48218 
Q 506.280936 175.28218 508.080936 175.28218 
z
" style="fill:#ffffff;opacity:0.8;stroke:#cccccc;stroke-linejoin:miter;"/>
   </g>
   <g id="text_17">
    <!-- Patient -->
    <g style="fill:#262626;" transform="translate(515.979139 80.777961)scale(0.09 -0.09)">
     <use xlink:href="#ArialMT-80"/>
     <use x="66.699219" xlink:href="#ArialMT-97"/>
     <use x="122.314453" xlink:href="#ArialMT-116"/>
     <use x="150.097656" xlink:href="#ArialMT-105"/>
     <use x="172.314453" xlink:href="#ArialMT-101"/>
     <use x="227.929688" xlink:href="#ArialMT-110"/>
     <use x="283.544922" xlink:href="#ArialMT-116"/>
    </g>
   </g>
   <g id="PathCollection_19">
    <defs>
     <path d="M 0 3.872983 
C 1.027127 3.872983 2.012324 3.464901 2.738613 2.738613 
C 3.464901 2.012324 3.872983 1.027127 3.872983 0 
C 3.872983 -1.027127 3.464901 -2.012324 2.738613 -2.738613 
C 2.012324 -3.464901 1.027127 -3.872983 0 -3.872983 
C -1.027127 -3.872983 -2.012324 -3.464901 -2.738613 -2.738613 
C -3.464901 -2.012324 -3.872983 -1.027127 -3.872983 0 
C -3.872983 1.027127 -3.464901 2.012324 -2.738613 2.738613 
C -2.012324 3.464901 -1.027127 3.872983 0 3.872983 
z
" id="m1519eb6746" style="stroke:#4c72b0;"/>
    </defs>
    <g>
     <use style="fill:#4c72b0;stroke:#4c72b0;" x="518.880936" xlink:href="#m1519eb6746" y="91.146243"/>
    </g>
   </g>
   <g id="text_18">
    <!-- 5 -->
    <g style="fill:#262626;" transform="translate(535.080936 93.508743)scale(0.09 -0.09)">
     <defs>
      <path d="M 4.15625 18.75 
L 13.375 19.53125 
Q 14.40625 12.796875 18.140625 9.390625 
Q 21.875 6 27.15625 6 
Q 33.5 6 37.890625 10.78125 
Q 42.28125 15.578125 42.28125 23.484375 
Q 42.28125 31 38.0625 35.34375 
Q 33.84375 39.703125 27 39.703125 
Q 22.75 39.703125 19.328125 37.765625 
Q 15.921875 35.84375 13.96875 32.765625 
L 5.71875 33.84375 
L 12.640625 70.609375 
L 48.25 70.609375 
L 48.25 62.203125 
L 19.671875 62.203125 
L 15.828125 42.96875 
Q 22.265625 47.46875 29.34375 47.46875 
Q 38.71875 47.46875 45.15625 40.96875 
Q 51.609375 34.46875 51.609375 24.265625 
Q 51.609375 14.546875 45.953125 7.46875 
Q 39.0625 -1.21875 27.15625 -1.21875 
Q 17.390625 -1.21875 11.203125 4.25 
Q 5.03125 9.71875 4.15625 18.75 
z
" id="ArialMT-53"/>
     </defs>
     <use xlink:href="#ArialMT-53"/>
    </g>
   </g>
   <g id="PathCollection_20">
    <defs>
     <path d="M 0 3.872983 
C 1.027127 3.872983 2.012324 3.464901 2.738613 2.738613 
C 3.464901 2.012324 3.872983 1.027127 3.872983 0 
C 3.872983 -1.027127 3.464901 -2.012324 2.738613 -2.738613 
C 2.012324 -3.464901 1.027127 -3.872983 0 -3.872983 
C -1.027127 -3.872983 -2.012324 -3.464901 -2.738613 -2.738613 
C -3.464901 -2.012324 -3.872983 -1.027127 -3.872983 0 
C -3.872983 1.027127 -3.464901 2.012324 -2.738613 2.738613 
C -2.012324 3.464901 -1.027127 3.872983 0 3.872983 
z
" id="mb8fc3de979" style="stroke:#dd8452;"/>
    </defs>
    <g>
     <use style="fill:#dd8452;stroke:#dd8452;" x="518.880936" xlink:href="#mb8fc3de979" y="103.877024"/>
    </g>
   </g>
   <g id="text_19">
    <!-- 15 -->
    <g style="fill:#262626;" transform="translate(535.080936 106.239524)scale(0.09 -0.09)">
     <use xlink:href="#ArialMT-49"/>
     <use x="55.615234" xlink:href="#ArialMT-53"/>
    </g>
   </g>
   <g id="PathCollection_21">
    <defs>
     <path d="M 0 3.872983 
C 1.027127 3.872983 2.012324 3.464901 2.738613 2.738613 
C 3.464901 2.012324 3.872983 1.027127 3.872983 0 
C 3.872983 -1.027127 3.464901 -2.012324 2.738613 -2.738613 
C 2.012324 -3.464901 1.027127 -3.872983 0 -3.872983 
C -1.027127 -3.872983 -2.012324 -3.464901 -2.738613 -2.738613 
C -3.464901 -2.012324 -3.872983 -1.027127 -3.872983 0 
C -3.872983 1.027127 -3.464901 2.012324 -2.738613 2.738613 
C -2.012324 3.464901 -1.027127 3.872983 0 3.872983 
z
" id="m85995b6e4d" style="stroke:#55a868;"/>
    </defs>
    <g>
     <use style="fill:#55a868;stroke:#55a868;" x="518.880936" xlink:href="#m85995b6e4d" y="116.607805"/>
    </g>
   </g>
   <g id="text_20">
    <!-- 17 -->
    <g style="fill:#262626;" transform="translate(535.080936 118.970305)scale(0.09 -0.09)">
     <use xlink:href="#ArialMT-49"/>
     <use x="55.615234" xlink:href="#ArialMT-55"/>
    </g>
   </g>
   <g id="PathCollection_22">
    <defs>
     <path d="M 0 3.872983 
C 1.027127 3.872983 2.012324 3.464901 2.738613 2.738613 
C 3.464901 2.012324 3.872983 1.027127 3.872983 0 
C 3.872983 -1.027127 3.464901 -2.012324 2.738613 -2.738613 
C 2.012324 -3.464901 1.027127 -3.872983 0 -3.872983 
C -1.027127 -3.872983 -2.012324 -3.464901 -2.738613 -2.738613 
C -3.464901 -2.012324 -3.872983 -1.027127 -3.872983 0 
C -3.872983 1.027127 -3.464901 2.012324 -2.738613 2.738613 
C -2.012324 3.464901 -1.027127 3.872983 0 3.872983 
z
" id="ma1eb8830c7" style="stroke:#c44e52;"/>
    </defs>
    <g>
     <use style="fill:#c44e52;stroke:#c44e52;" x="518.880936" xlink:href="#ma1eb8830c7" y="129.338586"/>
    </g>
   </g>
   <g id="text_21">
    <!-- 49 -->
    <g style="fill:#262626;" transform="translate(535.080936 131.701086)scale(0.09 -0.09)">
     <use xlink:href="#ArialMT-52"/>
     <use x="55.615234" xlink:href="#ArialMT-57"/>
    </g>
   </g>
   <g id="PathCollection_23">
    <defs>
     <path d="M 0 3.872983 
C 1.027127 3.872983 2.012324 3.464901 2.738613 2.738613 
C 3.464901 2.012324 3.872983 1.027127 3.872983 0 
C 3.872983 -1.027127 3.464901 -2.012324 2.738613 -2.738613 
C 2.012324 -3.464901 1.027127 -3.872983 0 -3.872983 
C -1.027127 -3.872983 -2.012324 -3.464901 -2.738613 -2.738613 
C -3.464901 -2.012324 -3.872983 -1.027127 -3.872983 0 
C -3.872983 1.027127 -3.464901 2.012324 -2.738613 2.738613 
C -2.012324 3.464901 -1.027127 3.872983 0 3.872983 
z
" id="m90181cc4ab" style="stroke:#8172b3;"/>
    </defs>
    <g>
     <use style="fill:#8172b3;stroke:#8172b3;" x="518.880936" xlink:href="#m90181cc4ab" y="142.069368"/>
    </g>
   </g>
   <g id="text_22">
    <!-- 62 -->
    <g style="fill:#262626;" transform="translate(535.080936 144.431868)scale(0.09 -0.09)">
     <use xlink:href="#ArialMT-54"/>
     <use x="55.615234" xlink:href="#ArialMT-50"/>
    </g>
   </g>
   <g id="PathCollection_24">
    <defs>
     <path d="M 0 3.872983 
C 1.027127 3.872983 2.012324 3.464901 2.738613 2.738613 
C 3.464901 2.012324 3.872983 1.027127 3.872983 0 
C 3.872983 -1.027127 3.464901 -2.012324 2.738613 -2.738613 
C 2.012324 -3.464901 1.027127 -3.872983 0 -3.872983 
C -1.027127 -3.872983 -2.012324 -3.464901 -2.738613 -2.738613 
C -3.464901 -2.012324 -3.872983 -1.027127 -3.872983 0 
C -3.872983 1.027127 -3.464901 2.012324 -2.738613 2.738613 
C -2.012324 3.464901 -1.027127 3.872983 0 3.872983 
z
" id="macaf578e17" style="stroke:#937860;"/>
    </defs>
    <g>
     <use style="fill:#937860;stroke:#937860;" x="518.880936" xlink:href="#macaf578e17" y="154.800149"/>
    </g>
   </g>
   <g id="text_23">
    <!-- 69 -->
    <g style="fill:#262626;" transform="translate(535.080936 157.162649)scale(0.09 -0.09)">
     <use xlink:href="#ArialMT-54"/>
     <use x="55.615234" xlink:href="#ArialMT-57"/>
    </g>
   </g>
   <g id="PathCollection_25">
    <defs>
     <path d="M 0 3.872983 
C 1.027127 3.872983 2.012324 3.464901 2.738613 2.738613 
C 3.464901 2.012324 3.872983 1.027127 3.872983 0 
C 3.872983 -1.027127 3.464901 -2.012324 2.738613 -2.738613 
C 2.012324 -3.464901 1.027127 -3.872983 0 -3.872983 
C -1.027127 -3.872983 -2.012324 -3.464901 -2.738613 -2.738613 
C -3.464901 -2.012324 -3.872983 -1.027127 -3.872983 0 
C -3.872983 1.027127 -3.464901 2.012324 -2.738613 2.738613 
C -2.012324 3.464901 -1.027127 3.872983 0 3.872983 
z
" id="med9c16c456" style="stroke:#da8bc3;"/>
    </defs>
    <g>
     <use style="fill:#da8bc3;stroke:#da8bc3;" x="518.880936" xlink:href="#med9c16c456" y="167.53093"/>
    </g>
   </g>
   <g id="text_24">
    <!-- 126 -->
    <g style="fill:#262626;" transform="translate(535.080936 169.89343)scale(0.09 -0.09)">
     <use xlink:href="#ArialMT-49"/>
     <use x="55.615234" xlink:href="#ArialMT-50"/>
     <use x="111.230469" xlink:href="#ArialMT-54"/>
    </g>
   </g>
  </g>
 </g>
 <defs>
  <clipPath id="pc906c369ff">
   <rect height="189.57811" width="224.28811" x="39.155625" y="19.77"/>
  </clipPath>
  <clipPath id="p77b9571e8a">
   <rect height="189.57811" width="224.28811" x="273.163735" y="19.77"/>
  </clipPath>
 </defs>
</svg>
