<?xml version="1.0" encoding="utf-8" standalone="no"?>
<!DOCTYPE svg PUBLIC "-//W3C//DTD SVG 1.1//EN"
  "http://www.w3.org/Graphics/SVG/1.1/DTD/svg11.dtd">
<!-- Created with matplotlib (https://matplotlib.org/) -->
<svg height="246.509673pt" version="1.1" viewBox="0 0 560.900624 246.509673" width="560.900624pt" xmlns="http://www.w3.org/2000/svg" xmlns:xlink="http://www.w3.org/1999/xlink">
 <metadata>
  <rdf:RDF xmlns:cc="http://creativecommons.org/ns#" xmlns:dc="http://purl.org/dc/elements/1.1/" xmlns:rdf="http://www.w3.org/1999/02/22-rdf-syntax-ns#">
   <cc:Work>
    <dc:type rdf:resource="http://purl.org/dc/dcmitype/StillImage"/>
    <dc:date>2022-03-15T15:38:56.153965</dc:date>
    <dc:format>image/svg+xml</dc:format>
    <dc:creator>
     <cc:Agent>
      <dc:title>Matplotlib v3.3.4, https://matplotlib.org/</dc:title>
     </cc:Agent>
    </dc:creator>
   </cc:Work>
  </rdf:RDF>
 </metadata>
 <defs>
  <style type="text/css">*{stroke-linecap:butt;stroke-linejoin:round;}</style>
 </defs>
 <g id="figure_1">
  <g id="patch_1">
   <path d="M 0 246.509673 
L 560.900624 246.509673 
L 560.900624 0 
L 0 0 
z
" style="fill:#ffffff;"/>
  </g>
  <g id="axes_1">
   <g id="patch_2">
    <path d="M 46.660781 209.34811 
L 267.198891 209.34811 
L 267.198891 19.77 
L 46.660781 19.77 
z
" style="fill:#ffffff;"/>
   </g>
   <g id="matplotlib.axis_1">
    <g id="xtick_1">
     <g id="text_1">
      <!-- responsive -->
      <g style="fill:#444444;" transform="translate(80.034996 225.290141)scale(0.09 -0.09)">
       <defs>
        <path d="M 6.5 0 
L 6.5 51.859375 
L 14.40625 51.859375 
L 14.40625 44 
Q 17.4375 49.515625 20 51.265625 
Q 22.5625 53.03125 25.640625 53.03125 
Q 30.078125 53.03125 34.671875 50.203125 
L 31.640625 42.046875 
Q 28.421875 43.953125 25.203125 43.953125 
Q 22.3125 43.953125 20.015625 42.21875 
Q 17.71875 40.484375 16.75 37.40625 
Q 15.28125 32.71875 15.28125 27.15625 
L 15.28125 0 
z
" id="ArialMT-114"/>
        <path d="M 42.09375 16.703125 
L 51.171875 15.578125 
Q 49.03125 7.625 43.21875 3.21875 
Q 37.40625 -1.171875 28.375 -1.171875 
Q 17 -1.171875 10.328125 5.828125 
Q 3.65625 12.84375 3.65625 25.484375 
Q 3.65625 38.578125 10.390625 45.796875 
Q 17.140625 53.03125 27.875 53.03125 
Q 38.28125 53.03125 44.875 45.953125 
Q 51.46875 38.875 51.46875 26.03125 
Q 51.46875 25.25 51.421875 23.6875 
L 12.75 23.6875 
Q 13.234375 15.140625 17.578125 10.59375 
Q 21.921875 6.0625 28.421875 6.0625 
Q 33.25 6.0625 36.671875 8.59375 
Q 40.09375 11.140625 42.09375 16.703125 
z
M 13.234375 30.90625 
L 42.1875 30.90625 
Q 41.609375 37.453125 38.875 40.71875 
Q 34.671875 45.796875 27.984375 45.796875 
Q 21.921875 45.796875 17.796875 41.75 
Q 13.671875 37.703125 13.234375 30.90625 
z
" id="ArialMT-101"/>
        <path d="M 3.078125 15.484375 
L 11.765625 16.84375 
Q 12.5 11.625 15.84375 8.84375 
Q 19.1875 6.0625 25.203125 6.0625 
Q 31.25 6.0625 34.171875 8.515625 
Q 37.109375 10.984375 37.109375 14.3125 
Q 37.109375 17.28125 34.515625 19 
Q 32.71875 20.171875 25.53125 21.96875 
Q 15.875 24.421875 12.140625 26.203125 
Q 8.40625 27.984375 6.46875 31.125 
Q 4.546875 34.28125 4.546875 38.09375 
Q 4.546875 41.546875 6.125 44.5 
Q 7.71875 47.46875 10.453125 49.421875 
Q 12.5 50.921875 16.03125 51.96875 
Q 19.578125 53.03125 23.640625 53.03125 
Q 29.734375 53.03125 34.34375 51.265625 
Q 38.96875 49.515625 41.15625 46.5 
Q 43.359375 43.5 44.1875 38.484375 
L 35.59375 37.3125 
Q 35.015625 41.3125 32.203125 43.546875 
Q 29.390625 45.796875 24.265625 45.796875 
Q 18.21875 45.796875 15.625 43.796875 
Q 13.03125 41.796875 13.03125 39.109375 
Q 13.03125 37.40625 14.109375 36.03125 
Q 15.1875 34.625 17.484375 33.6875 
Q 18.796875 33.203125 25.25 31.453125 
Q 34.578125 28.953125 38.25 27.359375 
Q 41.9375 25.78125 44.03125 22.75 
Q 46.140625 19.734375 46.140625 15.234375 
Q 46.140625 10.84375 43.578125 6.953125 
Q 41.015625 3.078125 36.171875 0.953125 
Q 31.34375 -1.171875 25.25 -1.171875 
Q 15.140625 -1.171875 9.84375 3.03125 
Q 4.546875 7.234375 3.078125 15.484375 
z
" id="ArialMT-115"/>
        <path d="M 6.59375 -19.875 
L 6.59375 51.859375 
L 14.59375 51.859375 
L 14.59375 45.125 
Q 17.4375 49.078125 21 51.046875 
Q 24.5625 53.03125 29.640625 53.03125 
Q 36.28125 53.03125 41.359375 49.609375 
Q 46.4375 46.1875 49.015625 39.953125 
Q 51.609375 33.734375 51.609375 26.3125 
Q 51.609375 18.359375 48.75 11.984375 
Q 45.90625 5.609375 40.453125 2.21875 
Q 35.015625 -1.171875 29 -1.171875 
Q 24.609375 -1.171875 21.109375 0.6875 
Q 17.625 2.546875 15.375 5.375 
L 15.375 -19.875 
z
M 14.546875 25.640625 
Q 14.546875 15.625 18.59375 10.84375 
Q 22.65625 6.0625 28.421875 6.0625 
Q 34.28125 6.0625 38.453125 11.015625 
Q 42.625 15.96875 42.625 26.375 
Q 42.625 36.28125 38.546875 41.203125 
Q 34.46875 46.140625 28.8125 46.140625 
Q 23.1875 46.140625 18.859375 40.890625 
Q 14.546875 35.640625 14.546875 25.640625 
z
" id="ArialMT-112"/>
        <path d="M 3.328125 25.921875 
Q 3.328125 40.328125 11.328125 47.265625 
Q 18.015625 53.03125 27.640625 53.03125 
Q 38.328125 53.03125 45.109375 46.015625 
Q 51.90625 39.015625 51.90625 26.65625 
Q 51.90625 16.65625 48.90625 10.90625 
Q 45.90625 5.171875 40.15625 2 
Q 34.421875 -1.171875 27.640625 -1.171875 
Q 16.75 -1.171875 10.03125 5.8125 
Q 3.328125 12.796875 3.328125 25.921875 
z
M 12.359375 25.921875 
Q 12.359375 15.96875 16.703125 11.015625 
Q 21.046875 6.0625 27.640625 6.0625 
Q 34.1875 6.0625 38.53125 11.03125 
Q 42.875 16.015625 42.875 26.21875 
Q 42.875 35.84375 38.5 40.796875 
Q 34.125 45.75 27.640625 45.75 
Q 21.046875 45.75 16.703125 40.8125 
Q 12.359375 35.890625 12.359375 25.921875 
z
" id="ArialMT-111"/>
        <path d="M 6.59375 0 
L 6.59375 51.859375 
L 14.5 51.859375 
L 14.5 44.484375 
Q 20.21875 53.03125 31 53.03125 
Q 35.6875 53.03125 39.625 51.34375 
Q 43.5625 49.65625 45.515625 46.921875 
Q 47.46875 44.1875 48.25 40.4375 
Q 48.734375 37.984375 48.734375 31.890625 
L 48.734375 0 
L 39.9375 0 
L 39.9375 31.546875 
Q 39.9375 36.921875 38.90625 39.578125 
Q 37.890625 42.234375 35.28125 43.8125 
Q 32.671875 45.40625 29.15625 45.40625 
Q 23.53125 45.40625 19.453125 41.84375 
Q 15.375 38.28125 15.375 28.328125 
L 15.375 0 
z
" id="ArialMT-110"/>
        <path d="M 6.640625 61.46875 
L 6.640625 71.578125 
L 15.4375 71.578125 
L 15.4375 61.46875 
z
M 6.640625 0 
L 6.640625 51.859375 
L 15.4375 51.859375 
L 15.4375 0 
z
" id="ArialMT-105"/>
        <path d="M 21 0 
L 1.265625 51.859375 
L 10.546875 51.859375 
L 21.6875 20.796875 
Q 23.484375 15.765625 25 10.359375 
Q 26.171875 14.453125 28.265625 20.21875 
L 39.796875 51.859375 
L 48.828125 51.859375 
L 29.203125 0 
z
" id="ArialMT-118"/>
       </defs>
       <use xlink:href="#ArialMT-114"/>
       <use x="33.300781" xlink:href="#ArialMT-101"/>
       <use x="88.916016" xlink:href="#ArialMT-115"/>
       <use x="138.916016" xlink:href="#ArialMT-112"/>
       <use x="194.53125" xlink:href="#ArialMT-111"/>
       <use x="250.146484" xlink:href="#ArialMT-110"/>
       <use x="305.761719" xlink:href="#ArialMT-115"/>
       <use x="355.761719" xlink:href="#ArialMT-105"/>
       <use x="377.978516" xlink:href="#ArialMT-118"/>
       <use x="427.978516" xlink:href="#ArialMT-101"/>
      </g>
     </g>
    </g>
    <g id="xtick_2">
     <g id="text_2">
      <!-- resistant -->
      <g style="fill:#444444;" transform="translate(195.058583 225.290141)scale(0.09 -0.09)">
       <defs>
        <path d="M 25.78125 7.859375 
L 27.046875 0.09375 
Q 23.34375 -0.6875 20.40625 -0.6875 
Q 15.625 -0.6875 12.984375 0.828125 
Q 10.359375 2.34375 9.28125 4.8125 
Q 8.203125 7.28125 8.203125 15.1875 
L 8.203125 45.015625 
L 1.765625 45.015625 
L 1.765625 51.859375 
L 8.203125 51.859375 
L 8.203125 64.703125 
L 16.9375 69.96875 
L 16.9375 51.859375 
L 25.78125 51.859375 
L 25.78125 45.015625 
L 16.9375 45.015625 
L 16.9375 14.703125 
Q 16.9375 10.9375 17.40625 9.859375 
Q 17.875 8.796875 18.921875 8.15625 
Q 19.96875 7.515625 21.921875 7.515625 
Q 23.390625 7.515625 25.78125 7.859375 
z
" id="ArialMT-116"/>
        <path d="M 40.4375 6.390625 
Q 35.546875 2.25 31.03125 0.53125 
Q 26.515625 -1.171875 21.34375 -1.171875 
Q 12.796875 -1.171875 8.203125 3 
Q 3.609375 7.171875 3.609375 13.671875 
Q 3.609375 17.484375 5.34375 20.625 
Q 7.078125 23.78125 9.890625 25.6875 
Q 12.703125 27.59375 16.21875 28.5625 
Q 18.796875 29.25 24.03125 29.890625 
Q 34.671875 31.15625 39.703125 32.90625 
Q 39.75 34.71875 39.75 35.203125 
Q 39.75 40.578125 37.25 42.78125 
Q 33.890625 45.75 27.25 45.75 
Q 21.046875 45.75 18.09375 43.578125 
Q 15.140625 41.40625 13.71875 35.890625 
L 5.125 37.0625 
Q 6.296875 42.578125 8.984375 45.96875 
Q 11.671875 49.359375 16.75 51.1875 
Q 21.828125 53.03125 28.515625 53.03125 
Q 35.15625 53.03125 39.296875 51.46875 
Q 43.453125 49.90625 45.40625 47.53125 
Q 47.359375 45.171875 48.140625 41.546875 
Q 48.578125 39.3125 48.578125 33.453125 
L 48.578125 21.734375 
Q 48.578125 9.46875 49.140625 6.21875 
Q 49.703125 2.984375 51.375 0 
L 42.1875 0 
Q 40.828125 2.734375 40.4375 6.390625 
z
M 39.703125 26.03125 
Q 34.90625 24.078125 25.34375 22.703125 
Q 19.921875 21.921875 17.671875 20.9375 
Q 15.4375 19.96875 14.203125 18.09375 
Q 12.984375 16.21875 12.984375 13.921875 
Q 12.984375 10.40625 15.640625 8.0625 
Q 18.3125 5.71875 23.4375 5.71875 
Q 28.515625 5.71875 32.46875 7.9375 
Q 36.421875 10.15625 38.28125 14.015625 
Q 39.703125 17 39.703125 22.796875 
z
" id="ArialMT-97"/>
       </defs>
       <use xlink:href="#ArialMT-114"/>
       <use x="33.300781" xlink:href="#ArialMT-101"/>
       <use x="88.916016" xlink:href="#ArialMT-115"/>
       <use x="138.916016" xlink:href="#ArialMT-105"/>
       <use x="161.132812" xlink:href="#ArialMT-115"/>
       <use x="211.132812" xlink:href="#ArialMT-116"/>
       <use x="238.916016" xlink:href="#ArialMT-97"/>
       <use x="294.53125" xlink:href="#ArialMT-110"/>
       <use x="350.146484" xlink:href="#ArialMT-116"/>
      </g>
     </g>
    </g>
    <g id="text_3">
     <!-- Condition -->
     <g style="fill:#444444;" transform="translate(137.918039 237.520923)scale(0.09 -0.09)">
      <defs>
       <path d="M 58.796875 25.09375 
L 68.265625 22.703125 
Q 65.28125 11.03125 57.546875 4.90625 
Q 49.8125 -1.21875 38.625 -1.21875 
Q 27.046875 -1.21875 19.796875 3.484375 
Q 12.546875 8.203125 8.765625 17.140625 
Q 4.984375 26.078125 4.984375 36.328125 
Q 4.984375 47.515625 9.25 55.828125 
Q 13.53125 64.15625 21.40625 68.46875 
Q 29.296875 72.796875 38.765625 72.796875 
Q 49.515625 72.796875 56.828125 67.328125 
Q 64.15625 61.859375 67.046875 51.953125 
L 57.71875 49.75 
Q 55.21875 57.5625 50.484375 61.125 
Q 45.75 64.703125 38.578125 64.703125 
Q 30.328125 64.703125 24.78125 60.734375 
Q 19.234375 56.78125 16.984375 50.109375 
Q 14.75 43.453125 14.75 36.375 
Q 14.75 27.25 17.40625 20.4375 
Q 20.0625 13.625 25.671875 10.25 
Q 31.296875 6.890625 37.84375 6.890625 
Q 45.796875 6.890625 51.3125 11.46875 
Q 56.84375 16.0625 58.796875 25.09375 
z
" id="ArialMT-67"/>
       <path d="M 40.234375 0 
L 40.234375 6.546875 
Q 35.296875 -1.171875 25.734375 -1.171875 
Q 19.53125 -1.171875 14.328125 2.25 
Q 9.125 5.671875 6.265625 11.796875 
Q 3.421875 17.921875 3.421875 25.875 
Q 3.421875 33.640625 6 39.96875 
Q 8.59375 46.296875 13.765625 49.65625 
Q 18.953125 53.03125 25.34375 53.03125 
Q 30.03125 53.03125 33.6875 51.046875 
Q 37.359375 49.078125 39.65625 45.90625 
L 39.65625 71.578125 
L 48.390625 71.578125 
L 48.390625 0 
z
M 12.453125 25.875 
Q 12.453125 15.921875 16.640625 10.984375 
Q 20.84375 6.0625 26.5625 6.0625 
Q 32.328125 6.0625 36.34375 10.765625 
Q 40.375 15.484375 40.375 25.140625 
Q 40.375 35.796875 36.265625 40.765625 
Q 32.171875 45.75 26.171875 45.75 
Q 20.3125 45.75 16.375 40.96875 
Q 12.453125 36.1875 12.453125 25.875 
z
" id="ArialMT-100"/>
      </defs>
      <use xlink:href="#ArialMT-67"/>
      <use x="72.216797" xlink:href="#ArialMT-111"/>
      <use x="127.832031" xlink:href="#ArialMT-110"/>
      <use x="183.447266" xlink:href="#ArialMT-100"/>
      <use x="239.0625" xlink:href="#ArialMT-105"/>
      <use x="261.279297" xlink:href="#ArialMT-116"/>
      <use x="289.0625" xlink:href="#ArialMT-105"/>
      <use x="311.279297" xlink:href="#ArialMT-111"/>
      <use x="366.894531" xlink:href="#ArialMT-110"/>
     </g>
    </g>
   </g>
   <g id="matplotlib.axis_2">
    <g id="ytick_1">
     <g id="text_4">
      <!-- 0.0 -->
      <g style="fill:#444444;" transform="translate(24.650781 206.882403)scale(0.09 -0.09)">
       <defs>
        <path d="M 4.15625 35.296875 
Q 4.15625 48 6.765625 55.734375 
Q 9.375 63.484375 14.515625 67.671875 
Q 19.671875 71.875 27.484375 71.875 
Q 33.25 71.875 37.59375 69.546875 
Q 41.9375 67.234375 44.765625 62.859375 
Q 47.609375 58.5 49.21875 52.21875 
Q 50.828125 45.953125 50.828125 35.296875 
Q 50.828125 22.703125 48.234375 14.96875 
Q 45.65625 7.234375 40.5 3 
Q 35.359375 -1.21875 27.484375 -1.21875 
Q 17.140625 -1.21875 11.234375 6.203125 
Q 4.15625 15.140625 4.15625 35.296875 
z
M 13.1875 35.296875 
Q 13.1875 17.671875 17.3125 11.828125 
Q 21.4375 6 27.484375 6 
Q 33.546875 6 37.671875 11.859375 
Q 41.796875 17.71875 41.796875 35.296875 
Q 41.796875 52.984375 37.671875 58.78125 
Q 33.546875 64.59375 27.390625 64.59375 
Q 21.34375 64.59375 17.71875 59.46875 
Q 13.1875 52.9375 13.1875 35.296875 
z
" id="ArialMT-48"/>
        <path d="M 9.078125 0 
L 9.078125 10.015625 
L 19.09375 10.015625 
L 19.09375 0 
z
" id="ArialMT-46"/>
       </defs>
       <use xlink:href="#ArialMT-48"/>
       <use x="55.615234" xlink:href="#ArialMT-46"/>
       <use x="83.398438" xlink:href="#ArialMT-48"/>
      </g>
     </g>
    </g>
    <g id="ytick_2">
     <g id="text_5">
      <!-- 2.5 -->
      <g style="fill:#444444;" transform="translate(24.650781 180.718995)scale(0.09 -0.09)">
       <defs>
        <path d="M 50.34375 8.453125 
L 50.34375 0 
L 3.03125 0 
Q 2.9375 3.171875 4.046875 6.109375 
Q 5.859375 10.9375 9.828125 15.625 
Q 13.8125 20.3125 21.34375 26.46875 
Q 33.015625 36.03125 37.109375 41.625 
Q 41.21875 47.21875 41.21875 52.203125 
Q 41.21875 57.421875 37.46875 61 
Q 33.734375 64.59375 27.734375 64.59375 
Q 21.390625 64.59375 17.578125 60.78125 
Q 13.765625 56.984375 13.71875 50.25 
L 4.6875 51.171875 
Q 5.609375 61.28125 11.65625 66.578125 
Q 17.71875 71.875 27.9375 71.875 
Q 38.234375 71.875 44.234375 66.15625 
Q 50.25 60.453125 50.25 52 
Q 50.25 47.703125 48.484375 43.546875 
Q 46.734375 39.40625 42.65625 34.8125 
Q 38.578125 30.21875 29.109375 22.21875 
Q 21.1875 15.578125 18.9375 13.203125 
Q 16.703125 10.84375 15.234375 8.453125 
z
" id="ArialMT-50"/>
        <path d="M 4.15625 18.75 
L 13.375 19.53125 
Q 14.40625 12.796875 18.140625 9.390625 
Q 21.875 6 27.15625 6 
Q 33.5 6 37.890625 10.78125 
Q 42.28125 15.578125 42.28125 23.484375 
Q 42.28125 31 38.0625 35.34375 
Q 33.84375 39.703125 27 39.703125 
Q 22.75 39.703125 19.328125 37.765625 
Q 15.921875 35.84375 13.96875 32.765625 
L 5.71875 33.84375 
L 12.640625 70.609375 
L 48.25 70.609375 
L 48.25 62.203125 
L 19.671875 62.203125 
L 15.828125 42.96875 
Q 22.265625 47.46875 29.34375 47.46875 
Q 38.71875 47.46875 45.15625 40.96875 
Q 51.609375 34.46875 51.609375 24.265625 
Q 51.609375 14.546875 45.953125 7.46875 
Q 39.0625 -1.21875 27.15625 -1.21875 
Q 17.390625 -1.21875 11.203125 4.25 
Q 5.03125 9.71875 4.15625 18.75 
z
" id="ArialMT-53"/>
       </defs>
       <use xlink:href="#ArialMT-50"/>
       <use x="55.615234" xlink:href="#ArialMT-46"/>
       <use x="83.398438" xlink:href="#ArialMT-53"/>
      </g>
     </g>
    </g>
    <g id="ytick_3">
     <g id="text_6">
      <!-- 5.0 -->
      <g style="fill:#444444;" transform="translate(24.650781 154.555588)scale(0.09 -0.09)">
       <use xlink:href="#ArialMT-53"/>
       <use x="55.615234" xlink:href="#ArialMT-46"/>
       <use x="83.398438" xlink:href="#ArialMT-48"/>
      </g>
     </g>
    </g>
    <g id="ytick_4">
     <g id="text_7">
      <!-- 7.5 -->
      <g style="fill:#444444;" transform="translate(24.650781 128.392181)scale(0.09 -0.09)">
       <defs>
        <path d="M 4.734375 62.203125 
L 4.734375 70.65625 
L 51.078125 70.65625 
L 51.078125 63.8125 
Q 44.234375 56.546875 37.515625 44.484375 
Q 30.8125 32.421875 27.15625 19.671875 
Q 24.515625 10.6875 23.78125 0 
L 14.75 0 
Q 14.890625 8.453125 18.0625 20.40625 
Q 21.234375 32.375 27.171875 43.484375 
Q 33.109375 54.59375 39.796875 62.203125 
z
" id="ArialMT-55"/>
       </defs>
       <use xlink:href="#ArialMT-55"/>
       <use x="55.615234" xlink:href="#ArialMT-46"/>
       <use x="83.398438" xlink:href="#ArialMT-53"/>
      </g>
     </g>
    </g>
    <g id="ytick_5">
     <g id="text_8">
      <!-- 10.0 -->
      <g style="fill:#444444;" transform="translate(19.645938 102.228773)scale(0.09 -0.09)">
       <defs>
        <path d="M 37.25 0 
L 28.46875 0 
L 28.46875 56 
Q 25.296875 52.984375 20.140625 49.953125 
Q 14.984375 46.921875 10.890625 45.40625 
L 10.890625 53.90625 
Q 18.265625 57.375 23.78125 62.296875 
Q 29.296875 67.234375 31.59375 71.875 
L 37.25 71.875 
z
" id="ArialMT-49"/>
       </defs>
       <use xlink:href="#ArialMT-49"/>
       <use x="55.615234" xlink:href="#ArialMT-48"/>
       <use x="111.230469" xlink:href="#ArialMT-46"/>
       <use x="139.013672" xlink:href="#ArialMT-48"/>
      </g>
     </g>
    </g>
    <g id="ytick_6">
     <g id="text_9">
      <!-- 12.5 -->
      <g style="fill:#444444;" transform="translate(19.645938 76.065366)scale(0.09 -0.09)">
       <use xlink:href="#ArialMT-49"/>
       <use x="55.615234" xlink:href="#ArialMT-50"/>
       <use x="111.230469" xlink:href="#ArialMT-46"/>
       <use x="139.013672" xlink:href="#ArialMT-53"/>
      </g>
     </g>
    </g>
    <g id="ytick_7">
     <g id="text_10">
      <!-- 15.0 -->
      <g style="fill:#444444;" transform="translate(19.645938 49.901958)scale(0.09 -0.09)">
       <use xlink:href="#ArialMT-49"/>
       <use x="55.615234" xlink:href="#ArialMT-53"/>
       <use x="111.230469" xlink:href="#ArialMT-46"/>
       <use x="139.013672" xlink:href="#ArialMT-48"/>
      </g>
     </g>
    </g>
    <g id="ytick_8">
     <g id="text_11">
      <!-- 17.5 -->
      <g style="fill:#444444;" transform="translate(19.645938 23.738551)scale(0.09 -0.09)">
       <use xlink:href="#ArialMT-49"/>
       <use x="55.615234" xlink:href="#ArialMT-55"/>
       <use x="111.230469" xlink:href="#ArialMT-46"/>
       <use x="139.013672" xlink:href="#ArialMT-53"/>
      </g>
     </g>
    </g>
    <g id="text_12">
     <!-- Transcripts Per Million (TPM) -->
     <g style="fill:#444444;" transform="translate(13.751719 172.643508)rotate(-90)scale(0.09 -0.09)">
      <defs>
       <path d="M 25.921875 0 
L 25.921875 63.140625 
L 2.34375 63.140625 
L 2.34375 71.578125 
L 59.078125 71.578125 
L 59.078125 63.140625 
L 35.40625 63.140625 
L 35.40625 0 
z
" id="ArialMT-84"/>
       <path d="M 40.4375 19 
L 49.078125 17.875 
Q 47.65625 8.9375 41.8125 3.875 
Q 35.984375 -1.171875 27.484375 -1.171875 
Q 16.84375 -1.171875 10.375 5.78125 
Q 3.90625 12.75 3.90625 25.734375 
Q 3.90625 34.125 6.6875 40.421875 
Q 9.46875 46.734375 15.15625 49.875 
Q 20.84375 53.03125 27.546875 53.03125 
Q 35.984375 53.03125 41.359375 48.75 
Q 46.734375 44.484375 48.25 36.625 
L 39.703125 35.296875 
Q 38.484375 40.53125 35.375 43.15625 
Q 32.28125 45.796875 27.875 45.796875 
Q 21.234375 45.796875 17.078125 41.03125 
Q 12.9375 36.28125 12.9375 25.984375 
Q 12.9375 15.53125 16.9375 10.796875 
Q 20.953125 6.0625 27.390625 6.0625 
Q 32.5625 6.0625 36.03125 9.234375 
Q 39.5 12.40625 40.4375 19 
z
" id="ArialMT-99"/>
       <path id="ArialMT-32"/>
       <path d="M 7.71875 0 
L 7.71875 71.578125 
L 34.71875 71.578125 
Q 41.84375 71.578125 45.609375 70.90625 
Q 50.875 70.015625 54.4375 67.546875 
Q 58.015625 65.09375 60.1875 60.640625 
Q 62.359375 56.203125 62.359375 50.875 
Q 62.359375 41.75 56.546875 35.421875 
Q 50.734375 29.109375 35.546875 29.109375 
L 17.1875 29.109375 
L 17.1875 0 
z
M 17.1875 37.546875 
L 35.6875 37.546875 
Q 44.875 37.546875 48.734375 40.96875 
Q 52.59375 44.390625 52.59375 50.59375 
Q 52.59375 55.078125 50.3125 58.265625 
Q 48.046875 61.46875 44.34375 62.5 
Q 41.9375 63.140625 35.5 63.140625 
L 17.1875 63.140625 
z
" id="ArialMT-80"/>
       <path d="M 7.421875 0 
L 7.421875 71.578125 
L 21.6875 71.578125 
L 38.625 20.90625 
Q 40.96875 13.8125 42.046875 10.296875 
Q 43.265625 14.203125 45.84375 21.78125 
L 62.984375 71.578125 
L 75.734375 71.578125 
L 75.734375 0 
L 66.609375 0 
L 66.609375 59.90625 
L 45.796875 0 
L 37.25 0 
L 16.546875 60.9375 
L 16.546875 0 
z
" id="ArialMT-77"/>
       <path d="M 6.390625 0 
L 6.390625 71.578125 
L 15.1875 71.578125 
L 15.1875 0 
z
" id="ArialMT-108"/>
       <path d="M 23.390625 -21.046875 
Q 16.109375 -11.859375 11.078125 0.4375 
Q 6.0625 12.75 6.0625 25.921875 
Q 6.0625 37.546875 9.8125 48.1875 
Q 14.203125 60.546875 23.390625 72.796875 
L 29.6875 72.796875 
Q 23.78125 62.640625 21.875 58.296875 
Q 18.890625 51.5625 17.1875 44.234375 
Q 15.09375 35.109375 15.09375 25.875 
Q 15.09375 2.390625 29.6875 -21.046875 
z
" id="ArialMT-40"/>
       <path d="M 12.359375 -21.046875 
L 6.0625 -21.046875 
Q 20.65625 2.390625 20.65625 25.875 
Q 20.65625 35.0625 18.5625 44.09375 
Q 16.890625 51.421875 13.921875 58.15625 
Q 12.015625 62.546875 6.0625 72.796875 
L 12.359375 72.796875 
Q 21.53125 60.546875 25.921875 48.1875 
Q 29.6875 37.546875 29.6875 25.921875 
Q 29.6875 12.75 24.625 0.4375 
Q 19.578125 -11.859375 12.359375 -21.046875 
z
" id="ArialMT-41"/>
      </defs>
      <use xlink:href="#ArialMT-84"/>
      <use x="57.333984" xlink:href="#ArialMT-114"/>
      <use x="90.634766" xlink:href="#ArialMT-97"/>
      <use x="146.25" xlink:href="#ArialMT-110"/>
      <use x="201.865234" xlink:href="#ArialMT-115"/>
      <use x="251.865234" xlink:href="#ArialMT-99"/>
      <use x="301.865234" xlink:href="#ArialMT-114"/>
      <use x="335.166016" xlink:href="#ArialMT-105"/>
      <use x="357.382812" xlink:href="#ArialMT-112"/>
      <use x="412.998047" xlink:href="#ArialMT-116"/>
      <use x="440.78125" xlink:href="#ArialMT-115"/>
      <use x="490.78125" xlink:href="#ArialMT-32"/>
      <use x="518.564453" xlink:href="#ArialMT-80"/>
      <use x="585.263672" xlink:href="#ArialMT-101"/>
      <use x="640.878906" xlink:href="#ArialMT-114"/>
      <use x="674.179688" xlink:href="#ArialMT-32"/>
      <use x="701.962891" xlink:href="#ArialMT-77"/>
      <use x="785.263672" xlink:href="#ArialMT-105"/>
      <use x="807.480469" xlink:href="#ArialMT-108"/>
      <use x="829.697266" xlink:href="#ArialMT-108"/>
      <use x="851.914062" xlink:href="#ArialMT-105"/>
      <use x="874.130859" xlink:href="#ArialMT-111"/>
      <use x="929.746094" xlink:href="#ArialMT-110"/>
      <use x="985.361328" xlink:href="#ArialMT-32"/>
      <use x="1013.144531" xlink:href="#ArialMT-40"/>
      <use x="1046.445312" xlink:href="#ArialMT-84"/>
      <use x="1107.529297" xlink:href="#ArialMT-80"/>
      <use x="1174.228516" xlink:href="#ArialMT-77"/>
      <use x="1257.529297" xlink:href="#ArialMT-41"/>
     </g>
    </g>
   </g>
   <g id="PolyCollection_1">
    <defs>
     <path d="M 107.796216 -68.070385 
L 95.794402 -68.070385 
L 95.676194 -69.586063 
L 95.56817 -71.101741 
L 95.470683 -72.617418 
L 95.384007 -74.133096 
L 95.308329 -75.648774 
L 95.24375 -77.164452 
L 95.190284 -78.68013 
L 95.147864 -80.195807 
L 95.116336 -81.711485 
L 95.095471 -83.227163 
L 95.084964 -84.742841 
L 95.084441 -86.258519 
L 95.093463 -87.774196 
L 95.111534 -89.289874 
L 95.138108 -90.805552 
L 95.172592 -92.32123 
L 95.214358 -93.836907 
L 95.26275 -95.352585 
L 95.317086 -96.868263 
L 95.376671 -98.383941 
L 95.440802 -99.899619 
L 95.508771 -101.415296 
L 95.579879 -102.930974 
L 95.653433 -104.446652 
L 95.728758 -105.96233 
L 95.805198 -107.478008 
L 95.882124 -108.993685 
L 95.958932 -110.509363 
L 96.035054 -112.025041 
L 96.109954 -113.540719 
L 96.183135 -115.056396 
L 96.254139 -116.572074 
L 96.32255 -118.087752 
L 96.387993 -119.60343 
L 96.450136 -121.119108 
L 96.508693 -122.634785 
L 96.563421 -124.150463 
L 96.61412 -125.666141 
L 96.660636 -127.181819 
L 96.702857 -128.697497 
L 96.740715 -130.213174 
L 96.774182 -131.728852 
L 96.803274 -133.24453 
L 96.828043 -134.760208 
L 96.848583 -136.275885 
L 96.86502 -137.791563 
L 96.877517 -139.307241 
L 96.88627 -140.822919 
L 96.891503 -142.338597 
L 96.893469 -143.854274 
L 96.892446 -145.369952 
L 96.888734 -146.88563 
L 96.882651 -148.401308 
L 96.874534 -149.916986 
L 96.864732 -151.432663 
L 96.853602 -152.948341 
L 96.841511 -154.464019 
L 96.828829 -155.979697 
L 96.815925 -157.495374 
L 96.803167 -159.011052 
L 96.790917 -160.52673 
L 96.779528 -162.042408 
L 96.769345 -163.558086 
L 96.760697 -165.073763 
L 96.753898 -166.589441 
L 96.749247 -168.105119 
L 96.747021 -169.620797 
L 96.74748 -171.136475 
L 96.750859 -172.652152 
L 96.757376 -174.16783 
L 96.767221 -175.683508 
L 96.780566 -177.199186 
L 96.797558 -178.714863 
L 96.818321 -180.230541 
L 96.842959 -181.746219 
L 96.871554 -183.261897 
L 96.904165 -184.777575 
L 96.940835 -186.293252 
L 96.981585 -187.80893 
L 97.026421 -189.324608 
L 97.075328 -190.840286 
L 97.128278 -192.355964 
L 97.185227 -193.871641 
L 97.246117 -195.387319 
L 97.310875 -196.902997 
L 97.379416 -198.418675 
L 97.451642 -199.934352 
L 97.527443 -201.45003 
L 97.606697 -202.965708 
L 97.689271 -204.481386 
L 97.775021 -205.997064 
L 97.863789 -207.512741 
L 97.95541 -209.028419 
L 98.049706 -210.544097 
L 98.146487 -212.059775 
L 98.245555 -213.575453 
L 98.346699 -215.09113 
L 98.4497 -216.606808 
L 98.55433 -218.122486 
L 105.036288 -218.122486 
L 105.036288 -218.122486 
L 105.140917 -216.606808 
L 105.243919 -215.09113 
L 105.345063 -213.575453 
L 105.444131 -212.059775 
L 105.540912 -210.544097 
L 105.635207 -209.028419 
L 105.726828 -207.512741 
L 105.815597 -205.997064 
L 105.901346 -204.481386 
L 105.98392 -202.965708 
L 106.063175 -201.45003 
L 106.138976 -199.934352 
L 106.211202 -198.418675 
L 106.279743 -196.902997 
L 106.344501 -195.387319 
L 106.40539 -193.871641 
L 106.46234 -192.355964 
L 106.51529 -190.840286 
L 106.564197 -189.324608 
L 106.609032 -187.80893 
L 106.649783 -186.293252 
L 106.686452 -184.777575 
L 106.719064 -183.261897 
L 106.747658 -181.746219 
L 106.772296 -180.230541 
L 106.79306 -178.714863 
L 106.810051 -177.199186 
L 106.823396 -175.683508 
L 106.833242 -174.16783 
L 106.839758 -172.652152 
L 106.843138 -171.136475 
L 106.843596 -169.620797 
L 106.841371 -168.105119 
L 106.836719 -166.589441 
L 106.829921 -165.073763 
L 106.821272 -163.558086 
L 106.811089 -162.042408 
L 106.799701 -160.52673 
L 106.787451 -159.011052 
L 106.774693 -157.495374 
L 106.761789 -155.979697 
L 106.749106 -154.464019 
L 106.737016 -152.948341 
L 106.725886 -151.432663 
L 106.716083 -149.916986 
L 106.707966 -148.401308 
L 106.701884 -146.88563 
L 106.698171 -145.369952 
L 106.697148 -143.854274 
L 106.699115 -142.338597 
L 106.704348 -140.822919 
L 106.713101 -139.307241 
L 106.725598 -137.791563 
L 106.742035 -136.275885 
L 106.762574 -134.760208 
L 106.787344 -133.24453 
L 106.816436 -131.728852 
L 106.849903 -130.213174 
L 106.887761 -128.697497 
L 106.929982 -127.181819 
L 106.976497 -125.666141 
L 107.027197 -124.150463 
L 107.081924 -122.634785 
L 107.140481 -121.119108 
L 107.202625 -119.60343 
L 107.268068 -118.087752 
L 107.336478 -116.572074 
L 107.407482 -115.056396 
L 107.480664 -113.540719 
L 107.555564 -112.025041 
L 107.631685 -110.509363 
L 107.708494 -108.993685 
L 107.785419 -107.478008 
L 107.86186 -105.96233 
L 107.937185 -104.446652 
L 108.010739 -102.930974 
L 108.081846 -101.415296 
L 108.149816 -99.899619 
L 108.213946 -98.383941 
L 108.273532 -96.868263 
L 108.327868 -95.352585 
L 108.376259 -93.836907 
L 108.418026 -92.32123 
L 108.45251 -90.805552 
L 108.479083 -89.289874 
L 108.497154 -87.774196 
L 108.506177 -86.258519 
L 108.505653 -84.742841 
L 108.495147 -83.227163 
L 108.474282 -81.711485 
L 108.442754 -80.195807 
L 108.400333 -78.68013 
L 108.346868 -77.164452 
L 108.282288 -75.648774 
L 108.20661 -74.133096 
L 108.119935 -72.617418 
L 108.022448 -71.101741 
L 107.914423 -69.586063 
L 107.796216 -68.070385 
z
" id="m36803f2e8b" style="stroke:#999999;stroke-width:2;"/>
    </defs>
    <g clip-path="url(#p7a7c657577)">
     <use style="fill:#ffffff;stroke:#999999;stroke-width:2;" x="0" xlink:href="#m36803f2e8b" y="246.509673"/>
    </g>
   </g>
   <g id="PolyCollection_2">
    <defs>
     <path d="M 247.211531 -45.778749 
L 176.917197 -45.778749 
L 175.478598 -46.102539 
L 174.138618 -46.426328 
L 172.909533 -46.750117 
L 171.802122 -47.073907 
L 170.825422 -47.397696 
L 169.986531 -47.721485 
L 169.290452 -48.045275 
L 168.73999 -48.369064 
L 168.335704 -48.692853 
L 168.075909 -49.016643 
L 167.956742 -49.340432 
L 167.972271 -49.664221 
L 168.114662 -49.988011 
L 168.37439 -50.3118 
L 168.740478 -50.635589 
L 169.200778 -50.959378 
L 169.742262 -51.283168 
L 170.351337 -51.606957 
L 171.014148 -51.930746 
L 171.716889 -52.254536 
L 172.446091 -52.578325 
L 173.188892 -52.902114 
L 173.933276 -53.225904 
L 174.66828 -53.549693 
L 175.384167 -53.873482 
L 176.072549 -54.197272 
L 176.72648 -54.521061 
L 177.340501 -54.84485 
L 177.910648 -55.16864 
L 178.434419 -55.492429 
L 178.910712 -55.816218 
L 179.339732 -56.140008 
L 179.722867 -56.463797 
L 180.06255 -56.787586 
L 180.362105 -57.111376 
L 180.625579 -57.435165 
L 180.857579 -57.758954 
L 181.063094 -58.082744 
L 181.247337 -58.406533 
L 181.415587 -58.730322 
L 181.573046 -59.054112 
L 181.72471 -59.377901 
L 181.87526 -59.70169 
L 182.028969 -60.025479 
L 182.18963 -60.349269 
L 182.360508 -60.673058 
L 182.544307 -60.996847 
L 182.743158 -61.320637 
L 182.95863 -61.644426 
L 183.191749 -61.968215 
L 183.443039 -62.292005 
L 183.712572 -62.615794 
L 184.000023 -62.939583 
L 184.304742 -63.263373 
L 184.625819 -63.587162 
L 184.962154 -63.910951 
L 185.31253 -64.234741 
L 185.675676 -64.55853 
L 186.050328 -64.882319 
L 186.435276 -65.206109 
L 186.829416 -65.529898 
L 187.231776 -65.853687 
L 187.641543 -66.177477 
L 188.058075 -66.501266 
L 188.480904 -66.825055 
L 188.909732 -67.148845 
L 189.344414 -67.472634 
L 189.78494 -67.796423 
L 190.231405 -68.120213 
L 190.683982 -68.444002 
L 191.142886 -68.767791 
L 191.608343 -69.09158 
L 192.080554 -69.41537 
L 192.55967 -69.739159 
L 193.045758 -70.062948 
L 193.538783 -70.386738 
L 194.038587 -70.710527 
L 194.544881 -71.034316 
L 195.057234 -71.358106 
L 195.575075 -71.681895 
L 196.097696 -72.005684 
L 196.624264 -72.329474 
L 197.153836 -72.653263 
L 197.685373 -72.977052 
L 198.217761 -73.300842 
L 198.749836 -73.624631 
L 199.280403 -73.94842 
L 199.80826 -74.27221 
L 200.332218 -74.595999 
L 200.851121 -74.919788 
L 201.36386 -75.243578 
L 201.869391 -75.567367 
L 202.36674 -75.891156 
L 202.855014 -76.214946 
L 203.333401 -76.538735 
L 203.801177 -76.862524 
L 204.257695 -77.186314 
L 204.702388 -77.510103 
L 205.134763 -77.833892 
L 218.993965 -77.833892 
L 218.993965 -77.833892 
L 219.42634 -77.510103 
L 219.871033 -77.186314 
L 220.327551 -76.862524 
L 220.795326 -76.538735 
L 221.273714 -76.214946 
L 221.761988 -75.891156 
L 222.259337 -75.567367 
L 222.764868 -75.243578 
L 223.277607 -74.919788 
L 223.79651 -74.595999 
L 224.320468 -74.27221 
L 224.848325 -73.94842 
L 225.378892 -73.624631 
L 225.910967 -73.300842 
L 226.443355 -72.977052 
L 226.974891 -72.653263 
L 227.504463 -72.329474 
L 228.031032 -72.005684 
L 228.553653 -71.681895 
L 229.071494 -71.358106 
L 229.583846 -71.034316 
L 230.09014 -70.710527 
L 230.589945 -70.386738 
L 231.08297 -70.062948 
L 231.569058 -69.739159 
L 232.048173 -69.41537 
L 232.520385 -69.09158 
L 232.985842 -68.767791 
L 233.444746 -68.444002 
L 233.897322 -68.120213 
L 234.343788 -67.796423 
L 234.784314 -67.472634 
L 235.218996 -67.148845 
L 235.647824 -66.825055 
L 236.070653 -66.501266 
L 236.487185 -66.177477 
L 236.896952 -65.853687 
L 237.299312 -65.529898 
L 237.693452 -65.206109 
L 238.0784 -64.882319 
L 238.453051 -64.55853 
L 238.816198 -64.234741 
L 239.166574 -63.910951 
L 239.502909 -63.587162 
L 239.823986 -63.263373 
L 240.128705 -62.939583 
L 240.416156 -62.615794 
L 240.685689 -62.292005 
L 240.936979 -61.968215 
L 241.170098 -61.644426 
L 241.38557 -61.320637 
L 241.584421 -60.996847 
L 241.768219 -60.673058 
L 241.939097 -60.349269 
L 242.099759 -60.025479 
L 242.253468 -59.70169 
L 242.404018 -59.377901 
L 242.555682 -59.054112 
L 242.713141 -58.730322 
L 242.881391 -58.406533 
L 243.065634 -58.082744 
L 243.271149 -57.758954 
L 243.503149 -57.435165 
L 243.766623 -57.111376 
L 244.066178 -56.787586 
L 244.405861 -56.463797 
L 244.788995 -56.140008 
L 245.218015 -55.816218 
L 245.694309 -55.492429 
L 246.21808 -55.16864 
L 246.788227 -54.84485 
L 247.402248 -54.521061 
L 248.056179 -54.197272 
L 248.744561 -53.873482 
L 249.460447 -53.549693 
L 250.195452 -53.225904 
L 250.939836 -52.902114 
L 251.682637 -52.578325 
L 252.411839 -52.254536 
L 253.11458 -51.930746 
L 253.777391 -51.606957 
L 254.386466 -51.283168 
L 254.92795 -50.959378 
L 255.38825 -50.635589 
L 255.754338 -50.3118 
L 256.014065 -49.988011 
L 256.156457 -49.664221 
L 256.171986 -49.340432 
L 256.052818 -49.016643 
L 255.793024 -48.692853 
L 255.388738 -48.369064 
L 254.838276 -48.045275 
L 254.142197 -47.721485 
L 253.303305 -47.397696 
L 252.326606 -47.073907 
L 251.219195 -46.750117 
L 249.99011 -46.426328 
L 248.650129 -46.102539 
L 247.211531 -45.778749 
z
" id="md4528d1df8" style="stroke:#999999;stroke-width:2;"/>
    </defs>
    <g clip-path="url(#p7a7c657577)">
     <use style="fill:#ffffff;stroke:#999999;stroke-width:2;" x="0" xlink:href="#md4528d1df8" y="246.509673"/>
    </g>
   </g>
   <g id="PathCollection_1"/>
   <g id="PathCollection_2"/>
   <g id="PathCollection_3"/>
   <g id="PathCollection_4"/>
   <g id="PathCollection_5"/>
   <g id="PathCollection_6"/>
   <g id="PathCollection_7"/>
   <g id="patch_3">
    <path d="M 46.660781 209.34811 
L 46.660781 19.77 
" style="fill:none;stroke:#262626;stroke-linecap:square;stroke-linejoin:miter;stroke-width:1.25;"/>
   </g>
   <g id="patch_4">
    <path d="M 46.660781 209.34811 
L 267.198891 209.34811 
" style="fill:none;stroke:#262626;stroke-linecap:square;stroke-linejoin:miter;stroke-width:1.25;"/>
   </g>
   <g id="PathCollection_8">
    <defs>
     <path d="M 0 2.5 
C 0.663008 2.5 1.29895 2.236584 1.767767 1.767767 
C 2.236584 1.29895 2.5 0.663008 2.5 -0 
C 2.5 -0.663008 2.236584 -1.29895 1.767767 -1.767767 
C 1.29895 -2.236584 0.663008 -2.5 0 -2.5 
C -0.663008 -2.5 -1.29895 -2.236584 -1.767767 -1.767767 
C -2.236584 -1.29895 -2.5 -0.663008 -2.5 0 
C -2.5 0.663008 -2.236584 1.29895 -1.767767 1.767767 
C -1.29895 2.236584 -0.663008 2.5 0 2.5 
z
" id="C0_0_436ac86dcf"/>
    </defs>
    <g clip-path="url(#p7a7c657577)">
     <use style="fill:#4c72b0;fill-opacity:0.8;" x="112.363237" xlink:href="#C0_0_436ac86dcf" y="66.394001"/>
    </g>
    <g clip-path="url(#p7a7c657577)">
     <use style="fill:#4c72b0;fill-opacity:0.8;" x="90.881493" xlink:href="#C0_0_436ac86dcf" y="59.61043"/>
    </g>
    <g clip-path="url(#p7a7c657577)">
     <use style="fill:#4c72b0;fill-opacity:0.8;" x="100.85134" xlink:href="#C0_0_436ac86dcf" y="63.234326"/>
    </g>
    <g clip-path="url(#p7a7c657577)">
     <use style="fill:#4c72b0;fill-opacity:0.8;" x="110.60272" xlink:href="#C0_0_436ac86dcf" y="38.153665"/>
    </g>
    <g clip-path="url(#p7a7c657577)">
     <use style="fill:#4c72b0;fill-opacity:0.8;" x="104.008955" xlink:href="#C0_0_436ac86dcf" y="28.482843"/>
    </g>
    <g clip-path="url(#p7a7c657577)">
     <use style="fill:#4c72b0;fill-opacity:0.8;" x="94.587712" xlink:href="#C0_0_436ac86dcf" y="28.387187"/>
    </g>
    <g clip-path="url(#p7a7c657577)">
     <use style="fill:#8172b3;fill-opacity:0.8;" x="101.789386" xlink:href="#C0_0_436ac86dcf" y="76.564261"/>
    </g>
    <g clip-path="url(#p7a7c657577)">
     <use style="fill:#8172b3;fill-opacity:0.8;" x="95.643423" xlink:href="#C0_0_436ac86dcf" y="85.873903"/>
    </g>
    <g clip-path="url(#p7a7c657577)">
     <use style="fill:#8172b3;fill-opacity:0.8;" x="94.590281" xlink:href="#C0_0_436ac86dcf" y="101.605836"/>
    </g>
    <g clip-path="url(#p7a7c657577)">
     <use style="fill:#8172b3;fill-opacity:0.8;" x="112.415969" xlink:href="#C0_0_436ac86dcf" y="94.247136"/>
    </g>
    <g clip-path="url(#p7a7c657577)">
     <use style="fill:#8172b3;fill-opacity:0.8;" x="107.514317" xlink:href="#C0_0_436ac86dcf" y="134.765515"/>
    </g>
    <g clip-path="url(#p7a7c657577)">
     <use style="fill:#8172b3;fill-opacity:0.8;" x="110.149516" xlink:href="#C0_0_436ac86dcf" y="142.009077"/>
    </g>
    <g clip-path="url(#p7a7c657577)">
     <use style="fill:#8172b3;fill-opacity:0.8;" x="107.333959" xlink:href="#C0_0_436ac86dcf" y="127.282975"/>
    </g>
    <g clip-path="url(#p7a7c657577)">
     <use style="fill:#8172b3;fill-opacity:0.8;" x="107.232099" xlink:href="#C0_0_436ac86dcf" y="134.141704"/>
    </g>
    <g clip-path="url(#p7a7c657577)">
     <use style="fill:#da8bc3;fill-opacity:0.8;" x="94.982865" xlink:href="#C0_0_436ac86dcf" y="166.723082"/>
    </g>
    <g clip-path="url(#p7a7c657577)">
     <use style="fill:#da8bc3;fill-opacity:0.8;" x="96.665777" xlink:href="#C0_0_436ac86dcf" y="172.104425"/>
    </g>
    <g clip-path="url(#p7a7c657577)">
     <use style="fill:#da8bc3;fill-opacity:0.8;" x="109.529814" xlink:href="#C0_0_436ac86dcf" y="178.406756"/>
    </g>
    <g clip-path="url(#p7a7c657577)">
     <use style="fill:#da8bc3;fill-opacity:0.8;" x="99.98745" xlink:href="#C0_0_436ac86dcf" y="167.615991"/>
    </g>
    <g clip-path="url(#p7a7c657577)">
     <use style="fill:#da8bc3;fill-opacity:0.8;" x="111.478528" xlink:href="#C0_0_436ac86dcf" y="169.271136"/>
    </g>
    <g clip-path="url(#p7a7c657577)">
     <use style="fill:#da8bc3;fill-opacity:0.8;" x="101.367943" xlink:href="#C0_0_436ac86dcf" y="178.439288"/>
    </g>
    <g clip-path="url(#p7a7c657577)">
     <use style="fill:#da8bc3;fill-opacity:0.8;" x="107.708607" xlink:href="#C0_0_436ac86dcf" y="172.283585"/>
    </g>
    <g clip-path="url(#p7a7c657577)">
     <use style="fill:#da8bc3;fill-opacity:0.8;" x="98.502252" xlink:href="#C0_0_436ac86dcf" y="176.548765"/>
    </g>
   </g>
   <g id="PathCollection_9">
    <defs>
     <path d="M 0 2.5 
C 0.663008 2.5 1.29895 2.236584 1.767767 1.767767 
C 2.236584 1.29895 2.5 0.663008 2.5 -0 
C 2.5 -0.663008 2.236584 -1.29895 1.767767 -1.767767 
C 1.29895 -2.236584 0.663008 -2.5 0 -2.5 
C -0.663008 -2.5 -1.29895 -2.236584 -1.767767 -1.767767 
C -2.236584 -1.29895 -2.5 -0.663008 -2.5 0 
C -2.5 0.663008 -2.236584 1.29895 -1.767767 1.767767 
C -1.29895 2.236584 -0.663008 2.5 0 2.5 
z
" id="C1_0_437662d1d8"/>
    </defs>
    <g clip-path="url(#p7a7c657577)">
     <use style="fill:#dd8452;fill-opacity:0.8;" x="218.498715" xlink:href="#C1_0_437662d1d8" y="191.897125"/>
    </g>
    <g clip-path="url(#p7a7c657577)">
     <use style="fill:#dd8452;fill-opacity:0.8;" x="206.132659" xlink:href="#C1_0_437662d1d8" y="186.967778"/>
    </g>
    <g clip-path="url(#p7a7c657577)">
     <use style="fill:#dd8452;fill-opacity:0.8;" x="202.275687" xlink:href="#C1_0_437662d1d8" y="189.011762"/>
    </g>
    <g clip-path="url(#p7a7c657577)">
     <use style="fill:#dd8452;fill-opacity:0.8;" x="207.134154" xlink:href="#C1_0_437662d1d8" y="183.012616"/>
    </g>
    <g clip-path="url(#p7a7c657577)">
     <use style="fill:#dd8452;fill-opacity:0.8;" x="221.262804" xlink:href="#C1_0_437662d1d8" y="189.252963"/>
    </g>
    <g clip-path="url(#p7a7c657577)">
     <use style="fill:#dd8452;fill-opacity:0.8;" x="222.288011" xlink:href="#C1_0_437662d1d8" y="181.931715"/>
    </g>
    <g clip-path="url(#p7a7c657577)">
     <use style="fill:#dd8452;fill-opacity:0.8;" x="211.996808" xlink:href="#C1_0_437662d1d8" y="185.90771"/>
    </g>
    <g clip-path="url(#p7a7c657577)">
     <use style="fill:#dd8452;fill-opacity:0.8;" x="218.504433" xlink:href="#C1_0_437662d1d8" y="185.74612"/>
    </g>
    <g clip-path="url(#p7a7c657577)">
     <use style="fill:#dd8452;fill-opacity:0.8;" x="202.122307" xlink:href="#C1_0_437662d1d8" y="184.982235"/>
    </g>
    <g clip-path="url(#p7a7c657577)">
     <use style="fill:#dd8452;fill-opacity:0.8;" x="220.29187" xlink:href="#C1_0_437662d1d8" y="173.081379"/>
    </g>
    <g clip-path="url(#p7a7c657577)">
     <use style="fill:#55a868;fill-opacity:0.8;" x="201.134107" xlink:href="#C1_0_437662d1d8" y="193.715382"/>
    </g>
    <g clip-path="url(#p7a7c657577)">
     <use style="fill:#55a868;fill-opacity:0.8;" x="207.938242" xlink:href="#C1_0_437662d1d8" y="196.169174"/>
    </g>
    <g clip-path="url(#p7a7c657577)">
     <use style="fill:#55a868;fill-opacity:0.8;" x="214.817215" xlink:href="#C1_0_437662d1d8" y="197.594877"/>
    </g>
    <g clip-path="url(#p7a7c657577)">
     <use style="fill:#55a868;fill-opacity:0.8;" x="210.962667" xlink:href="#C1_0_437662d1d8" y="198.247303"/>
    </g>
    <g clip-path="url(#p7a7c657577)">
     <use style="fill:#55a868;fill-opacity:0.8;" x="220.117972" xlink:href="#C1_0_437662d1d8" y="198.434801"/>
    </g>
    <g clip-path="url(#p7a7c657577)">
     <use style="fill:#55a868;fill-opacity:0.8;" x="206.369047" xlink:href="#C1_0_437662d1d8" y="199.342624"/>
    </g>
    <g clip-path="url(#p7a7c657577)">
     <use style="fill:#55a868;fill-opacity:0.8;" x="212.862213" xlink:href="#C1_0_437662d1d8" y="198.345216"/>
    </g>
    <g clip-path="url(#p7a7c657577)">
     <use style="fill:#55a868;fill-opacity:0.8;" x="204.016639" xlink:href="#C1_0_437662d1d8" y="198.747612"/>
    </g>
    <g clip-path="url(#p7a7c657577)">
     <use style="fill:#c44e52;fill-opacity:0.8;" x="219.865676" xlink:href="#C1_0_437662d1d8" y="190.306858"/>
    </g>
    <g clip-path="url(#p7a7c657577)">
     <use style="fill:#c44e52;fill-opacity:0.8;" x="222.718368" xlink:href="#C1_0_437662d1d8" y="185.11252"/>
    </g>
    <g clip-path="url(#p7a7c657577)">
     <use style="fill:#c44e52;fill-opacity:0.8;" x="222.855853" xlink:href="#C1_0_437662d1d8" y="179.706347"/>
    </g>
    <g clip-path="url(#p7a7c657577)">
     <use style="fill:#c44e52;fill-opacity:0.8;" x="201.139691" xlink:href="#C1_0_437662d1d8" y="179.005535"/>
    </g>
    <g clip-path="url(#p7a7c657577)">
     <use style="fill:#c44e52;fill-opacity:0.8;" x="203.808496" xlink:href="#C1_0_437662d1d8" y="168.675781"/>
    </g>
    <g clip-path="url(#p7a7c657577)">
     <use style="fill:#c44e52;fill-opacity:0.8;" x="210.965953" xlink:href="#C1_0_437662d1d8" y="175.219151"/>
    </g>
    <g clip-path="url(#p7a7c657577)">
     <use style="fill:#c44e52;fill-opacity:0.8;" x="218.920013" xlink:href="#C1_0_437662d1d8" y="178.353848"/>
    </g>
    <g clip-path="url(#p7a7c657577)">
     <use style="fill:#c44e52;fill-opacity:0.8;" x="201.556935" xlink:href="#C1_0_437662d1d8" y="175.526454"/>
    </g>
    <g clip-path="url(#p7a7c657577)">
     <use style="fill:#937860;fill-opacity:0.8;" x="204.398605" xlink:href="#C1_0_437662d1d8" y="197.604219"/>
    </g>
    <g clip-path="url(#p7a7c657577)">
     <use style="fill:#937860;fill-opacity:0.8;" x="222.09886" xlink:href="#C1_0_437662d1d8" y="196.80024"/>
    </g>
    <g clip-path="url(#p7a7c657577)">
     <use style="fill:#937860;fill-opacity:0.8;" x="202.876582" xlink:href="#C1_0_437662d1d8" y="198.677433"/>
    </g>
    <g clip-path="url(#p7a7c657577)">
     <use style="fill:#937860;fill-opacity:0.8;" x="218.201879" xlink:href="#C1_0_437662d1d8" y="200.730923"/>
    </g>
    <g clip-path="url(#p7a7c657577)">
     <use style="fill:#937860;fill-opacity:0.8;" x="207.043752" xlink:href="#C1_0_437662d1d8" y="199.286412"/>
    </g>
    <g clip-path="url(#p7a7c657577)">
     <use style="fill:#937860;fill-opacity:0.8;" x="209.572531" xlink:href="#C1_0_437662d1d8" y="199.552632"/>
    </g>
    <g clip-path="url(#p7a7c657577)">
     <use style="fill:#937860;fill-opacity:0.8;" x="215.131498" xlink:href="#C1_0_437662d1d8" y="197.328873"/>
    </g>
    <g clip-path="url(#p7a7c657577)">
     <use style="fill:#937860;fill-opacity:0.8;" x="207.497468" xlink:href="#C1_0_437662d1d8" y="194.361789"/>
    </g>
   </g>
   <g id="text_13">
    <!-- LINC00923, $p_{adj}$ &lt; .001 *** -->
    <g style="fill:#262626;" transform="translate(46.660781 13.77)scale(0.09 -0.09)">
     <defs>
      <path d="M 7.328125 0 
L 7.328125 71.578125 
L 16.796875 71.578125 
L 16.796875 8.453125 
L 52.046875 8.453125 
L 52.046875 0 
z
" id="ArialMT-76"/>
      <path d="M 9.328125 0 
L 9.328125 71.578125 
L 18.796875 71.578125 
L 18.796875 0 
z
" id="ArialMT-73"/>
      <path d="M 7.625 0 
L 7.625 71.578125 
L 17.328125 71.578125 
L 54.9375 15.375 
L 54.9375 71.578125 
L 64.015625 71.578125 
L 64.015625 0 
L 54.296875 0 
L 16.703125 56.25 
L 16.703125 0 
z
" id="ArialMT-78"/>
      <path d="M 5.46875 16.546875 
L 13.921875 17.328125 
Q 14.984375 11.375 18.015625 8.6875 
Q 21.046875 6 25.78125 6 
Q 29.828125 6 32.875 7.859375 
Q 35.9375 9.71875 37.890625 12.8125 
Q 39.84375 15.921875 41.15625 21.1875 
Q 42.484375 26.46875 42.484375 31.9375 
Q 42.484375 32.515625 42.4375 33.6875 
Q 39.796875 29.5 35.234375 26.875 
Q 30.671875 24.265625 25.34375 24.265625 
Q 16.453125 24.265625 10.296875 30.703125 
Q 4.15625 37.15625 4.15625 47.703125 
Q 4.15625 58.59375 10.578125 65.234375 
Q 17 71.875 26.65625 71.875 
Q 33.640625 71.875 39.421875 68.109375 
Q 45.21875 64.359375 48.21875 57.390625 
Q 51.21875 50.4375 51.21875 37.25 
Q 51.21875 23.53125 48.234375 15.40625 
Q 45.265625 7.28125 39.375 3.03125 
Q 33.5 -1.21875 25.59375 -1.21875 
Q 17.1875 -1.21875 11.859375 3.4375 
Q 6.546875 8.109375 5.46875 16.546875 
z
M 41.453125 48.140625 
Q 41.453125 55.71875 37.421875 60.15625 
Q 33.40625 64.59375 27.734375 64.59375 
Q 21.875 64.59375 17.53125 59.8125 
Q 13.1875 55.03125 13.1875 47.40625 
Q 13.1875 40.578125 17.3125 36.296875 
Q 21.4375 32.03125 27.484375 32.03125 
Q 33.59375 32.03125 37.515625 36.296875 
Q 41.453125 40.578125 41.453125 48.140625 
z
" id="ArialMT-57"/>
      <path d="M 4.203125 18.890625 
L 12.984375 20.0625 
Q 14.5 12.59375 18.140625 9.296875 
Q 21.78125 6 27 6 
Q 33.203125 6 37.46875 10.296875 
Q 41.75 14.59375 41.75 20.953125 
Q 41.75 27 37.796875 30.921875 
Q 33.84375 34.859375 27.734375 34.859375 
Q 25.25 34.859375 21.53125 33.890625 
L 22.515625 41.609375 
Q 23.390625 41.5 23.921875 41.5 
Q 29.546875 41.5 34.03125 44.421875 
Q 38.53125 47.359375 38.53125 53.46875 
Q 38.53125 58.296875 35.25 61.46875 
Q 31.984375 64.65625 26.8125 64.65625 
Q 21.6875 64.65625 18.265625 61.421875 
Q 14.84375 58.203125 13.875 51.765625 
L 5.078125 53.328125 
Q 6.6875 62.15625 12.390625 67.015625 
Q 18.109375 71.875 26.609375 71.875 
Q 32.46875 71.875 37.390625 69.359375 
Q 42.328125 66.84375 44.9375 62.5 
Q 47.5625 58.15625 47.5625 53.265625 
Q 47.5625 48.640625 45.0625 44.828125 
Q 42.578125 41.015625 37.703125 38.765625 
Q 44.046875 37.3125 47.5625 32.6875 
Q 51.078125 28.078125 51.078125 21.140625 
Q 51.078125 11.765625 44.234375 5.25 
Q 37.40625 -1.265625 26.953125 -1.265625 
Q 17.53125 -1.265625 11.296875 4.34375 
Q 5.078125 9.96875 4.203125 18.890625 
z
" id="ArialMT-51"/>
      <path d="M 8.890625 0 
L 8.890625 10.015625 
L 18.890625 10.015625 
L 18.890625 0 
Q 18.890625 -5.515625 16.9375 -8.90625 
Q 14.984375 -12.3125 10.75 -14.15625 
L 8.296875 -10.40625 
Q 11.078125 -9.1875 12.390625 -6.8125 
Q 13.71875 -4.4375 13.875 0 
z
" id="ArialMT-44"/>
      <path d="M 49.609375 33.6875 
Q 49.609375 40.875 46.484375 44.671875 
Q 43.359375 48.484375 37.5 48.484375 
Q 33.5 48.484375 29.859375 46.4375 
Q 26.21875 44.390625 23.390625 40.484375 
Q 20.609375 36.625 18.9375 31.15625 
Q 17.28125 25.6875 17.28125 20.3125 
Q 17.28125 13.484375 20.40625 9.796875 
Q 23.53125 6.109375 29.296875 6.109375 
Q 33.546875 6.109375 37.1875 8.109375 
Q 40.828125 10.109375 43.40625 13.921875 
Q 46.1875 17.921875 47.890625 23.34375 
Q 49.609375 28.765625 49.609375 33.6875 
z
M 21.78125 46.390625 
Q 25.390625 51.125 30.296875 53.5625 
Q 35.203125 56 41.21875 56 
Q 49.609375 56 54.25 50.5 
Q 58.890625 45.015625 58.890625 35.109375 
Q 58.890625 27 56 19.65625 
Q 53.125 12.3125 47.703125 6.5 
Q 44.09375 2.640625 39.546875 0.609375 
Q 35.015625 -1.421875 29.984375 -1.421875 
Q 24.171875 -1.421875 20.21875 1 
Q 16.265625 3.421875 14.3125 8.203125 
L 8.6875 -20.796875 
L -0.296875 -20.796875 
L 14.40625 54.6875 
L 23.390625 54.6875 
z
" id="DejaVuSans-Oblique-112"/>
      <path d="M 53.71875 31.203125 
L 47.609375 0 
L 38.625 0 
L 40.28125 8.296875 
Q 36.328125 3.421875 31.265625 1 
Q 26.21875 -1.421875 20.015625 -1.421875 
Q 13.03125 -1.421875 8.5625 2.84375 
Q 4.109375 7.125 4.109375 13.8125 
Q 4.109375 23.390625 11.75 28.953125 
Q 19.390625 34.515625 32.8125 34.515625 
L 45.3125 34.515625 
L 45.796875 36.921875 
Q 45.90625 37.3125 45.953125 37.765625 
Q 46 38.234375 46 39.203125 
Q 46 43.5625 42.453125 45.96875 
Q 38.921875 48.390625 32.515625 48.390625 
Q 28.125 48.390625 23.5 47.265625 
Q 18.890625 46.140625 14.015625 43.890625 
L 15.578125 52.203125 
Q 20.65625 54.109375 25.515625 55.046875 
Q 30.375 56 34.90625 56 
Q 44.578125 56 49.625 51.796875 
Q 54.6875 47.609375 54.6875 39.59375 
Q 54.6875 37.984375 54.4375 35.8125 
Q 54.203125 33.640625 53.71875 31.203125 
z
M 44 27.484375 
L 35.015625 27.484375 
Q 23.96875 27.484375 18.671875 24.53125 
Q 13.375 21.578125 13.375 15.375 
Q 13.375 11.078125 16.078125 8.640625 
Q 18.796875 6.203125 23.578125 6.203125 
Q 30.90625 6.203125 36.375 11.453125 
Q 41.84375 16.703125 43.609375 25.484375 
z
" id="DejaVuSans-Oblique-97"/>
      <path d="M 41.796875 8.203125 
Q 38.1875 3.46875 33.25 1.015625 
Q 28.328125 -1.421875 22.3125 -1.421875 
Q 14.109375 -1.421875 9.34375 4.171875 
Q 4.59375 9.765625 4.59375 19.484375 
Q 4.59375 27.59375 7.46875 34.9375 
Q 10.359375 42.28125 15.828125 48.09375 
Q 19.4375 51.953125 23.96875 53.96875 
Q 28.515625 56 33.5 56 
Q 38.765625 56 42.796875 53.453125 
Q 46.828125 50.921875 49.03125 46.1875 
L 54.890625 75.984375 
L 63.921875 75.984375 
L 49.125 0 
L 40.09375 0 
z
M 13.921875 21.09375 
Q 13.921875 14.015625 17.109375 10.0625 
Q 20.3125 6.109375 25.984375 6.109375 
Q 30.171875 6.109375 33.765625 8.125 
Q 37.359375 10.15625 40.09375 14.109375 
Q 42.96875 18.21875 44.625 23.578125 
Q 46.296875 28.953125 46.296875 34.1875 
Q 46.296875 40.96875 43.09375 44.765625 
Q 39.890625 48.578125 34.28125 48.578125 
Q 30.03125 48.578125 26.359375 46.578125 
Q 22.703125 44.578125 20.125 40.828125 
Q 17.28125 36.765625 15.59375 31.390625 
Q 13.921875 26.03125 13.921875 21.09375 
z
" id="DejaVuSans-Oblique-100"/>
      <path d="M 14.5 54.6875 
L 23.484375 54.6875 
L 12.703125 -0.984375 
L 12.640625 -1.21875 
Q 10.84375 -10.546875 8.5 -14.015625 
Q 6.296875 -17.28125 2.0625 -19.03125 
Q -2.15625 -20.796875 -7.90625 -20.796875 
L -11.28125 -20.796875 
L -9.8125 -13.1875 
L -7.515625 -13.1875 
Q -2.25 -13.1875 -0.015625 -10.984375 
Q 2.203125 -8.796875 3.71875 -0.984375 
z
M 18.703125 75.984375 
L 27.6875 75.984375 
L 25.484375 64.59375 
L 16.5 64.59375 
z
" id="DejaVuSans-Oblique-106"/>
      <path d="M 5.46875 31.296875 
L 5.46875 39.5 
L 52.875 59.515625 
L 52.875 50.78125 
L 15.28125 35.359375 
L 52.875 19.78125 
L 52.875 11.03125 
z
" id="ArialMT-60"/>
      <path d="M 3.125 58.453125 
L 5.375 65.375 
Q 13.140625 62.640625 16.65625 60.640625 
Q 15.71875 69.484375 15.671875 72.796875 
L 22.75 72.796875 
Q 22.609375 67.96875 21.625 60.6875 
Q 26.65625 63.234375 33.15625 65.375 
L 35.40625 58.453125 
Q 29.203125 56.390625 23.25 55.71875 
Q 26.21875 53.125 31.640625 46.484375 
L 25.78125 42.328125 
Q 22.953125 46.1875 19.09375 52.828125 
Q 15.484375 45.953125 12.75 42.328125 
L 6.984375 46.484375 
Q 12.640625 53.46875 15.09375 55.71875 
Q 8.796875 56.9375 3.125 58.453125 
z
" id="ArialMT-42"/>
     </defs>
     <use transform="translate(0 0.203125)" xlink:href="#ArialMT-76"/>
     <use transform="translate(55.615234 0.203125)" xlink:href="#ArialMT-73"/>
     <use transform="translate(83.398438 0.203125)" xlink:href="#ArialMT-78"/>
     <use transform="translate(155.615234 0.203125)" xlink:href="#ArialMT-67"/>
     <use transform="translate(227.832031 0.203125)" xlink:href="#ArialMT-48"/>
     <use transform="translate(283.447266 0.203125)" xlink:href="#ArialMT-48"/>
     <use transform="translate(339.0625 0.203125)" xlink:href="#ArialMT-57"/>
     <use transform="translate(394.677734 0.203125)" xlink:href="#ArialMT-50"/>
     <use transform="translate(450.292969 0.203125)" xlink:href="#ArialMT-51"/>
     <use transform="translate(505.908203 0.203125)" xlink:href="#ArialMT-44"/>
     <use transform="translate(533.691406 0.203125)" xlink:href="#ArialMT-32"/>
     <use transform="translate(561.474609 0.203125)" xlink:href="#DejaVuSans-Oblique-112"/>
     <use transform="translate(624.951172 -16.203125)scale(0.7)" xlink:href="#DejaVuSans-Oblique-97"/>
     <use transform="translate(667.84668 -16.203125)scale(0.7)" xlink:href="#DejaVuSans-Oblique-100"/>
     <use transform="translate(712.280273 -16.203125)scale(0.7)" xlink:href="#DejaVuSans-Oblique-106"/>
     <use transform="translate(734.462891 0.203125)" xlink:href="#ArialMT-32"/>
     <use transform="translate(762.246094 0.203125)" xlink:href="#ArialMT-60"/>
     <use transform="translate(820.644531 0.203125)" xlink:href="#ArialMT-32"/>
     <use transform="translate(848.427734 0.203125)" xlink:href="#ArialMT-46"/>
     <use transform="translate(876.210938 0.203125)" xlink:href="#ArialMT-48"/>
     <use transform="translate(931.826172 0.203125)" xlink:href="#ArialMT-48"/>
     <use transform="translate(987.441406 0.203125)" xlink:href="#ArialMT-49"/>
     <use transform="translate(1043.056641 0.203125)" xlink:href="#ArialMT-32"/>
     <use transform="translate(1070.839844 0.203125)" xlink:href="#ArialMT-42"/>
     <use transform="translate(1109.755859 0.203125)" xlink:href="#ArialMT-42"/>
     <use transform="translate(1148.671875 0.203125)" xlink:href="#ArialMT-42"/>
    </g>
   </g>
  </g>
  <g id="axes_2">
   <g id="patch_5">
    <path d="M 276.918891 209.34811 
L 497.457002 209.34811 
L 497.457002 19.77 
L 276.918891 19.77 
z
" style="fill:#ffffff;"/>
   </g>
   <g id="matplotlib.axis_3">
    <g id="xtick_3">
     <g id="text_14">
      <!-- BEVA -->
      <g style="fill:#444444;" transform="translate(320.378732 225.290141)scale(0.09 -0.09)">
       <defs>
        <path d="M 7.328125 0 
L 7.328125 71.578125 
L 34.1875 71.578125 
Q 42.390625 71.578125 47.34375 69.40625 
Q 52.296875 67.234375 55.09375 62.71875 
Q 57.90625 58.203125 57.90625 53.265625 
Q 57.90625 48.6875 55.421875 44.625 
Q 52.9375 40.578125 47.90625 38.09375 
Q 54.390625 36.1875 57.875 31.59375 
Q 61.375 27 61.375 20.75 
Q 61.375 15.71875 59.25 11.390625 
Q 57.125 7.078125 54 4.734375 
Q 50.875 2.390625 46.15625 1.1875 
Q 41.453125 0 34.625 0 
z
M 16.796875 41.5 
L 32.28125 41.5 
Q 38.578125 41.5 41.3125 42.328125 
Q 44.921875 43.40625 46.75 45.890625 
Q 48.578125 48.390625 48.578125 52.15625 
Q 48.578125 55.71875 46.875 58.421875 
Q 45.171875 61.140625 41.984375 62.140625 
Q 38.8125 63.140625 31.109375 63.140625 
L 16.796875 63.140625 
z
M 16.796875 8.453125 
L 34.625 8.453125 
Q 39.203125 8.453125 41.0625 8.796875 
Q 44.34375 9.375 46.53125 10.734375 
Q 48.734375 12.109375 50.140625 14.71875 
Q 51.5625 17.328125 51.5625 20.75 
Q 51.5625 24.75 49.515625 27.703125 
Q 47.46875 30.671875 43.828125 31.859375 
Q 40.1875 33.0625 33.34375 33.0625 
L 16.796875 33.0625 
z
" id="ArialMT-66"/>
        <path d="M 7.90625 0 
L 7.90625 71.578125 
L 59.671875 71.578125 
L 59.671875 63.140625 
L 17.390625 63.140625 
L 17.390625 41.21875 
L 56.984375 41.21875 
L 56.984375 32.8125 
L 17.390625 32.8125 
L 17.390625 8.453125 
L 61.328125 8.453125 
L 61.328125 0 
z
" id="ArialMT-69"/>
        <path d="M 28.171875 0 
L 0.4375 71.578125 
L 10.6875 71.578125 
L 29.296875 19.578125 
Q 31.546875 13.328125 33.0625 7.859375 
Q 34.71875 13.71875 36.921875 19.578125 
L 56.25 71.578125 
L 65.921875 71.578125 
L 37.890625 0 
z
" id="ArialMT-86"/>
        <path d="M -0.140625 0 
L 27.34375 71.578125 
L 37.546875 71.578125 
L 66.84375 0 
L 56.0625 0 
L 47.703125 21.6875 
L 17.78125 21.6875 
L 9.90625 0 
z
M 20.515625 29.390625 
L 44.78125 29.390625 
L 37.3125 49.21875 
Q 33.890625 58.25 32.234375 64.0625 
Q 30.859375 57.171875 28.375 50.390625 
z
" id="ArialMT-65"/>
       </defs>
       <use xlink:href="#ArialMT-66"/>
       <use x="66.699219" xlink:href="#ArialMT-69"/>
       <use x="133.398438" xlink:href="#ArialMT-86"/>
       <use x="192.722656" xlink:href="#ArialMT-65"/>
      </g>
     </g>
    </g>
    <g id="xtick_4">
     <g id="text_15">
      <!-- CTRL -->
      <g style="fill:#444444;" transform="translate(430.571849 225.290141)scale(0.09 -0.09)">
       <defs>
        <path d="M 7.859375 0 
L 7.859375 71.578125 
L 39.59375 71.578125 
Q 49.171875 71.578125 54.140625 69.640625 
Q 59.125 67.71875 62.109375 62.828125 
Q 65.09375 57.953125 65.09375 52.046875 
Q 65.09375 44.4375 60.15625 39.203125 
Q 55.21875 33.984375 44.921875 32.5625 
Q 48.6875 30.765625 50.640625 29 
Q 54.78125 25.203125 58.5 19.484375 
L 70.953125 0 
L 59.03125 0 
L 49.5625 14.890625 
Q 45.40625 21.34375 42.71875 24.75 
Q 40.046875 28.171875 37.921875 29.53125 
Q 35.796875 30.90625 33.59375 31.453125 
Q 31.984375 31.78125 28.328125 31.78125 
L 17.328125 31.78125 
L 17.328125 0 
z
M 17.328125 39.984375 
L 37.703125 39.984375 
Q 44.1875 39.984375 47.84375 41.328125 
Q 51.515625 42.671875 53.421875 45.625 
Q 55.328125 48.578125 55.328125 52.046875 
Q 55.328125 57.125 51.640625 60.390625 
Q 47.953125 63.671875 39.984375 63.671875 
L 17.328125 63.671875 
z
" id="ArialMT-82"/>
       </defs>
       <use xlink:href="#ArialMT-67"/>
       <use x="72.216797" xlink:href="#ArialMT-84"/>
       <use x="133.300781" xlink:href="#ArialMT-82"/>
       <use x="205.517578" xlink:href="#ArialMT-76"/>
      </g>
     </g>
    </g>
    <g id="text_16">
     <!-- Condition -->
     <g style="fill:#444444;" transform="translate(368.17615 237.520923)scale(0.09 -0.09)">
      <use xlink:href="#ArialMT-67"/>
      <use x="72.216797" xlink:href="#ArialMT-111"/>
      <use x="127.832031" xlink:href="#ArialMT-110"/>
      <use x="183.447266" xlink:href="#ArialMT-100"/>
      <use x="239.0625" xlink:href="#ArialMT-105"/>
      <use x="261.279297" xlink:href="#ArialMT-116"/>
      <use x="289.0625" xlink:href="#ArialMT-105"/>
      <use x="311.279297" xlink:href="#ArialMT-111"/>
      <use x="366.894531" xlink:href="#ArialMT-110"/>
     </g>
    </g>
   </g>
   <g id="matplotlib.axis_4">
    <g id="ytick_9"/>
    <g id="ytick_10"/>
    <g id="ytick_11"/>
    <g id="ytick_12"/>
    <g id="ytick_13"/>
    <g id="ytick_14"/>
    <g id="ytick_15"/>
    <g id="ytick_16"/>
   </g>
   <g id="PolyCollection_3">
    <defs>
     <path d="M 371.468283 -45.778749 
L 292.638555 -45.778749 
L 291.733029 -47.204209 
L 290.919364 -48.629669 
L 290.203601 -50.055128 
L 289.591067 -51.480588 
L 289.086307 -52.906047 
L 288.693028 -54.331507 
L 288.414052 -55.756967 
L 288.251282 -57.182426 
L 288.20568 -58.607886 
L 288.277254 -60.033345 
L 288.465064 -61.458805 
L 288.767234 -62.884265 
L 289.180981 -64.309724 
L 289.702651 -65.735184 
L 290.32777 -67.160643 
L 291.0511 -68.586103 
L 291.86671 -70.011563 
L 292.768046 -71.437022 
L 293.748011 -72.862482 
L 294.799055 -74.287941 
L 295.913256 -75.713401 
L 297.082413 -77.13886 
L 298.298136 -78.56432 
L 299.551933 -79.98978 
L 300.835296 -81.415239 
L 302.139783 -82.840699 
L 303.457097 -84.266158 
L 304.77916 -85.691618 
L 306.098175 -87.117078 
L 307.406688 -88.542537 
L 308.697641 -89.967997 
L 309.964414 -91.393456 
L 311.200864 -92.818916 
L 312.401351 -94.244376 
L 313.560764 -95.669835 
L 314.674533 -97.095295 
L 315.738636 -98.520754 
L 316.749603 -99.946214 
L 317.704506 -101.371673 
L 318.600956 -102.797133 
L 319.437083 -104.222593 
L 320.211517 -105.648052 
L 320.923372 -107.073512 
L 321.572212 -108.498971 
L 322.158033 -109.924431 
L 322.681228 -111.349891 
L 323.142561 -112.77535 
L 323.543134 -114.20081 
L 323.884362 -115.626269 
L 324.167936 -117.051729 
L 324.3958 -118.477189 
L 324.57012 -119.902648 
L 324.693257 -121.328108 
L 324.767739 -122.753567 
L 324.796244 -124.179027 
L 324.781566 -125.604487 
L 324.726603 -127.029946 
L 324.634331 -128.455406 
L 324.507789 -129.880865 
L 324.350058 -131.306325 
L 324.164249 -132.731784 
L 323.953485 -134.157244 
L 323.720889 -135.582704 
L 323.46957 -137.008163 
L 323.202613 -138.433623 
L 322.923066 -139.859082 
L 322.633932 -141.284542 
L 322.338156 -142.710002 
L 322.038617 -144.135461 
L 321.738123 -145.560921 
L 321.439395 -146.98638 
L 321.145067 -148.41184 
L 320.85767 -149.8373 
L 320.579632 -151.262759 
L 320.313264 -152.688219 
L 320.060755 -154.113678 
L 319.824168 -155.539138 
L 319.605428 -156.964597 
L 319.406315 -158.390057 
L 319.228461 -159.815517 
L 319.073344 -161.240976 
L 318.942276 -162.666436 
L 318.836402 -164.091895 
L 318.756694 -165.517355 
L 318.703948 -166.942815 
L 318.678777 -168.368274 
L 318.681607 -169.793734 
L 318.712682 -171.219193 
L 318.772055 -172.644653 
L 318.859591 -174.070113 
L 318.974972 -175.495572 
L 319.117693 -176.921032 
L 319.287073 -178.346491 
L 319.482254 -179.771951 
L 319.702215 -181.19741 
L 319.945776 -182.62287 
L 320.211609 -184.04833 
L 320.498253 -185.473789 
L 320.804123 -186.899249 
L 343.302715 -186.899249 
L 343.302715 -186.899249 
L 343.608585 -185.473789 
L 343.895229 -184.04833 
L 344.161062 -182.62287 
L 344.404623 -181.19741 
L 344.624584 -179.771951 
L 344.819765 -178.346491 
L 344.989145 -176.921032 
L 345.131866 -175.495572 
L 345.247247 -174.070113 
L 345.334784 -172.644653 
L 345.394156 -171.219193 
L 345.425231 -169.793734 
L 345.428061 -168.368274 
L 345.40289 -166.942815 
L 345.350144 -165.517355 
L 345.270436 -164.091895 
L 345.164563 -162.666436 
L 345.033494 -161.240976 
L 344.878377 -159.815517 
L 344.700524 -158.390057 
L 344.501411 -156.964597 
L 344.28267 -155.539138 
L 344.046083 -154.113678 
L 343.793575 -152.688219 
L 343.527206 -151.262759 
L 343.249168 -149.8373 
L 342.961771 -148.41184 
L 342.667443 -146.98638 
L 342.368715 -145.560921 
L 342.068221 -144.135461 
L 341.768682 -142.710002 
L 341.472906 -141.284542 
L 341.183772 -139.859082 
L 340.904225 -138.433623 
L 340.637268 -137.008163 
L 340.385949 -135.582704 
L 340.153353 -134.157244 
L 339.942589 -132.731784 
L 339.75678 -131.306325 
L 339.59905 -129.880865 
L 339.472507 -128.455406 
L 339.380235 -127.029946 
L 339.325272 -125.604487 
L 339.310594 -124.179027 
L 339.339099 -122.753567 
L 339.413581 -121.328108 
L 339.536718 -119.902648 
L 339.711038 -118.477189 
L 339.938902 -117.051729 
L 340.222476 -115.626269 
L 340.563704 -114.20081 
L 340.964278 -112.77535 
L 341.42561 -111.349891 
L 341.948805 -109.924431 
L 342.534626 -108.498971 
L 343.183466 -107.073512 
L 343.895321 -105.648052 
L 344.669755 -104.222593 
L 345.505882 -102.797133 
L 346.402332 -101.371673 
L 347.357235 -99.946214 
L 348.368202 -98.520754 
L 349.432305 -97.095295 
L 350.546074 -95.669835 
L 351.705487 -94.244376 
L 352.905974 -92.818916 
L 354.142424 -91.393456 
L 355.409197 -89.967997 
L 356.70015 -88.542537 
L 358.008663 -87.117078 
L 359.327678 -85.691618 
L 360.649741 -84.266158 
L 361.967056 -82.840699 
L 363.271542 -81.415239 
L 364.554905 -79.98978 
L 365.808702 -78.56432 
L 367.024425 -77.13886 
L 368.193582 -75.713401 
L 369.307783 -74.287941 
L 370.358827 -72.862482 
L 371.338792 -71.437022 
L 372.240128 -70.011563 
L 373.055738 -68.586103 
L 373.779068 -67.160643 
L 374.404187 -65.735184 
L 374.925857 -64.309724 
L 375.339604 -62.884265 
L 375.641774 -61.458805 
L 375.829584 -60.033345 
L 375.901158 -58.607886 
L 375.855556 -57.182426 
L 375.692786 -55.756967 
L 375.41381 -54.331507 
L 375.020531 -52.906047 
L 374.515771 -51.480588 
L 373.903237 -50.055128 
L 373.187474 -48.629669 
L 372.373809 -47.204209 
L 371.468283 -45.778749 
z
" id="m20794a36e8" style="stroke:#999999;stroke-width:2;"/>
    </defs>
    <g clip-path="url(#pe8b9cb2036)">
     <use style="fill:#ffffff;stroke:#999999;stroke-width:2;" x="0" xlink:href="#m20794a36e8" y="246.509673"/>
    </g>
   </g>
   <g id="PolyCollection_4">
    <defs>
     <path d="M 480.298802 -46.95704 
L 404.346146 -46.95704 
L 403.176082 -48.685984 
L 402.111227 -50.414928 
L 401.160779 -52.143872 
L 400.332795 -53.872816 
L 399.634055 -55.60176 
L 399.069947 -57.330704 
L 398.644384 -59.059647 
L 398.359739 -60.788591 
L 398.216817 -62.517535 
L 398.214852 -64.246479 
L 398.351539 -65.975423 
L 398.62309 -67.704367 
L 399.02432 -69.433311 
L 399.548763 -71.162254 
L 400.188807 -72.891198 
L 400.935848 -74.620142 
L 401.780461 -76.349086 
L 402.712585 -78.07803 
L 403.721711 -79.806974 
L 404.797073 -81.535917 
L 405.927838 -83.264861 
L 407.103285 -84.993805 
L 408.312975 -86.722749 
L 409.546907 -88.451693 
L 410.795652 -90.180637 
L 412.050467 -91.909581 
L 413.303386 -93.638524 
L 414.547287 -95.367468 
L 415.775935 -97.096412 
L 416.983996 -98.825356 
L 418.167034 -100.5543 
L 419.321485 -102.283244 
L 420.444609 -104.012188 
L 421.534426 -105.741131 
L 422.589646 -107.470075 
L 423.609577 -109.199019 
L 424.594041 -110.927963 
L 425.543273 -112.656907 
L 426.45783 -114.385851 
L 427.338502 -116.114794 
L 428.186223 -117.843738 
L 429.001996 -119.572682 
L 429.786829 -121.301626 
L 430.541673 -123.03057 
L 431.267378 -124.759514 
L 431.964665 -126.488458 
L 432.634095 -128.217401 
L 433.276066 -129.946345 
L 433.890805 -131.675289 
L 434.478378 -133.404233 
L 435.038702 -135.133177 
L 435.571564 -136.862121 
L 436.076643 -138.591064 
L 436.553539 -140.320008 
L 437.001794 -142.048952 
L 437.420922 -143.777896 
L 437.810434 -145.50684 
L 438.16986 -147.235784 
L 438.498773 -148.964728 
L 438.796803 -150.693671 
L 439.063658 -152.422615 
L 439.299133 -154.151559 
L 439.503125 -155.880503 
L 439.675639 -157.609447 
L 439.816794 -159.338391 
L 439.926833 -161.067335 
L 440.006125 -162.796278 
L 440.055174 -164.525222 
L 440.07462 -166.254166 
L 440.065243 -167.98311 
L 440.027976 -169.712054 
L 439.963903 -171.440998 
L 439.874267 -173.169941 
L 439.760477 -174.898885 
L 439.62411 -176.627829 
L 439.466916 -178.356773 
L 439.290819 -180.085717 
L 439.097915 -181.814661 
L 438.890468 -183.543605 
L 438.670904 -185.272548 
L 438.441797 -187.001492 
L 438.205854 -188.730436 
L 437.965897 -190.45938 
L 437.724832 -192.188324 
L 437.485625 -193.917268 
L 437.251265 -195.646211 
L 437.024728 -197.375155 
L 436.808939 -199.104099 
L 436.606724 -200.833043 
L 436.420775 -202.561987 
L 436.253602 -204.290931 
L 436.107493 -206.019875 
L 435.984475 -207.748818 
L 435.886282 -209.477762 
L 435.814317 -211.206706 
L 435.769636 -212.93565 
L 435.752925 -214.664594 
L 435.764489 -216.393538 
L 435.804253 -218.122482 
L 448.840696 -218.122482 
L 448.840696 -218.122482 
L 448.880459 -216.393538 
L 448.892024 -214.664594 
L 448.875313 -212.93565 
L 448.830632 -211.206706 
L 448.758667 -209.477762 
L 448.660473 -207.748818 
L 448.537456 -206.019875 
L 448.391347 -204.290931 
L 448.224173 -202.561987 
L 448.038224 -200.833043 
L 447.83601 -199.104099 
L 447.62022 -197.375155 
L 447.393683 -195.646211 
L 447.159323 -193.917268 
L 446.920116 -192.188324 
L 446.679051 -190.45938 
L 446.439094 -188.730436 
L 446.203152 -187.001492 
L 445.974045 -185.272548 
L 445.75448 -183.543605 
L 445.547033 -181.814661 
L 445.354129 -180.085717 
L 445.178032 -178.356773 
L 445.020838 -176.627829 
L 444.884471 -174.898885 
L 444.770681 -173.169941 
L 444.681045 -171.440998 
L 444.616972 -169.712054 
L 444.579705 -167.98311 
L 444.570329 -166.254166 
L 444.589774 -164.525222 
L 444.638823 -162.796278 
L 444.718116 -161.067335 
L 444.828155 -159.338391 
L 444.96931 -157.609447 
L 445.141823 -155.880503 
L 445.345815 -154.151559 
L 445.581291 -152.422615 
L 445.848146 -150.693671 
L 446.146176 -148.964728 
L 446.475088 -147.235784 
L 446.834515 -145.50684 
L 447.224027 -143.777896 
L 447.643155 -142.048952 
L 448.09141 -140.320008 
L 448.568305 -138.591064 
L 449.073385 -136.862121 
L 449.606246 -135.133177 
L 450.16657 -133.404233 
L 450.754143 -131.675289 
L 451.368882 -129.946345 
L 452.010853 -128.217401 
L 452.680284 -126.488458 
L 453.37757 -124.759514 
L 454.103275 -123.03057 
L 454.858119 -121.301626 
L 455.642952 -119.572682 
L 456.458726 -117.843738 
L 457.306447 -116.114794 
L 458.187118 -114.385851 
L 459.101676 -112.656907 
L 460.050907 -110.927963 
L 461.035371 -109.199019 
L 462.055303 -107.470075 
L 463.110522 -105.741131 
L 464.20034 -104.012188 
L 465.323463 -102.283244 
L 466.477914 -100.5543 
L 467.660953 -98.825356 
L 468.869014 -97.096412 
L 470.097661 -95.367468 
L 471.341563 -93.638524 
L 472.594482 -91.909581 
L 473.849297 -90.180637 
L 475.098041 -88.451693 
L 476.331974 -86.722749 
L 477.541664 -84.993805 
L 478.71711 -83.264861 
L 479.847875 -81.535917 
L 480.923237 -79.806974 
L 481.932363 -78.07803 
L 482.864488 -76.349086 
L 483.7091 -74.620142 
L 484.456141 -72.891198 
L 485.096185 -71.162254 
L 485.620629 -69.433311 
L 486.021859 -67.704367 
L 486.293409 -65.975423 
L 486.430096 -64.246479 
L 486.428132 -62.517535 
L 486.28521 -60.788591 
L 486.000565 -59.059647 
L 485.575001 -57.330704 
L 485.010894 -55.60176 
L 484.312153 -53.872816 
L 483.484169 -52.143872 
L 482.533721 -50.414928 
L 481.468866 -48.685984 
L 480.298802 -46.95704 
z
" id="m07cbd71f2b" style="stroke:#999999;stroke-width:2;"/>
    </defs>
    <g clip-path="url(#pe8b9cb2036)">
     <use style="fill:#ffffff;stroke:#999999;stroke-width:2;" x="0" xlink:href="#m07cbd71f2b" y="246.509673"/>
    </g>
   </g>
   <g id="PathCollection_10"/>
   <g id="PathCollection_11"/>
   <g id="PathCollection_12"/>
   <g id="PathCollection_13"/>
   <g id="PathCollection_14"/>
   <g id="PathCollection_15"/>
   <g id="PathCollection_16"/>
   <g id="patch_6">
    <path d="M 276.918891 209.34811 
L 276.918891 19.77 
" style="fill:none;stroke:#262626;stroke-linecap:square;stroke-linejoin:miter;stroke-width:1.25;"/>
   </g>
   <g id="patch_7">
    <path d="M 276.918891 209.34811 
L 497.457002 209.34811 
" style="fill:none;stroke:#262626;stroke-linecap:square;stroke-linejoin:miter;stroke-width:1.25;"/>
   </g>
   <g id="PathCollection_17">
    <defs>
     <path d="M 0 2.5 
C 0.663008 2.5 1.29895 2.236584 1.767767 1.767767 
C 2.236584 1.29895 2.5 0.663008 2.5 -0 
C 2.5 -0.663008 2.236584 -1.29895 1.767767 -1.767767 
C 1.29895 -2.236584 0.663008 -2.5 0 -2.5 
C -0.663008 -2.5 -1.29895 -2.236584 -1.767767 -1.767767 
C -2.236584 -1.29895 -2.5 -0.663008 -2.5 0 
C -2.5 0.663008 -2.236584 1.29895 -1.767767 1.767767 
C -1.29895 2.236584 -0.663008 2.5 0 2.5 
z
" id="C2_0_a98c021d66"/>
    </defs>
    <g clip-path="url(#pe8b9cb2036)">
     <use style="fill:#4c72b0;fill-opacity:0.8;" x="333.394375" xlink:href="#C2_0_a98c021d66" y="66.394001"/>
    </g>
    <g clip-path="url(#pe8b9cb2036)">
     <use style="fill:#4c72b0;fill-opacity:0.8;" x="322.60795" xlink:href="#C2_0_a98c021d66" y="59.610424"/>
    </g>
    <g clip-path="url(#pe8b9cb2036)">
     <use style="fill:#4c72b0;fill-opacity:0.8;" x="336.254301" xlink:href="#C2_0_a98c021d66" y="63.234329"/>
    </g>
    <g clip-path="url(#pe8b9cb2036)">
     <use style="fill:#dd8452;fill-opacity:0.8;" x="332.229785" xlink:href="#C2_0_a98c021d66" y="191.897126"/>
    </g>
    <g clip-path="url(#pe8b9cb2036)">
     <use style="fill:#dd8452;fill-opacity:0.8;" x="329.271156" xlink:href="#C2_0_a98c021d66" y="186.967778"/>
    </g>
    <g clip-path="url(#pe8b9cb2036)">
     <use style="fill:#dd8452;fill-opacity:0.8;" x="336.939755" xlink:href="#C2_0_a98c021d66" y="189.011761"/>
    </g>
    <g clip-path="url(#pe8b9cb2036)">
     <use style="fill:#dd8452;fill-opacity:0.8;" x="324.027184" xlink:href="#C2_0_a98c021d66" y="183.012616"/>
    </g>
    <g clip-path="url(#pe8b9cb2036)">
     <use style="fill:#dd8452;fill-opacity:0.8;" x="338.33924" xlink:href="#C2_0_a98c021d66" y="189.252963"/>
    </g>
    <g clip-path="url(#pe8b9cb2036)">
     <use style="fill:#55a868;fill-opacity:0.8;" x="336.698858" xlink:href="#C2_0_a98c021d66" y="193.715382"/>
    </g>
    <g clip-path="url(#pe8b9cb2036)">
     <use style="fill:#55a868;fill-opacity:0.8;" x="338.668296" xlink:href="#C2_0_a98c021d66" y="196.169174"/>
    </g>
    <g clip-path="url(#pe8b9cb2036)">
     <use style="fill:#55a868;fill-opacity:0.8;" x="326.370029" xlink:href="#C2_0_a98c021d66" y="197.594877"/>
    </g>
    <g clip-path="url(#pe8b9cb2036)">
     <use style="fill:#55a868;fill-opacity:0.8;" x="332.417226" xlink:href="#C2_0_a98c021d66" y="198.247303"/>
    </g>
    <g clip-path="url(#pe8b9cb2036)">
     <use style="fill:#c44e52;fill-opacity:0.8;" x="326.533747" xlink:href="#C2_0_a98c021d66" y="190.306858"/>
    </g>
    <g clip-path="url(#pe8b9cb2036)">
     <use style="fill:#c44e52;fill-opacity:0.8;" x="333.638192" xlink:href="#C2_0_a98c021d66" y="185.11252"/>
    </g>
    <g clip-path="url(#pe8b9cb2036)">
     <use style="fill:#c44e52;fill-opacity:0.8;" x="332.303307" xlink:href="#C2_0_a98c021d66" y="179.706346"/>
    </g>
    <g clip-path="url(#pe8b9cb2036)">
     <use style="fill:#c44e52;fill-opacity:0.8;" x="327.912085" xlink:href="#C2_0_a98c021d66" y="179.005534"/>
    </g>
    <g clip-path="url(#pe8b9cb2036)">
     <use style="fill:#8172b3;fill-opacity:0.8;" x="321.070258" xlink:href="#C2_0_a98c021d66" y="76.564262"/>
    </g>
    <g clip-path="url(#pe8b9cb2036)">
     <use style="fill:#8172b3;fill-opacity:0.8;" x="331.793816" xlink:href="#C2_0_a98c021d66" y="85.873902"/>
    </g>
    <g clip-path="url(#pe8b9cb2036)">
     <use style="fill:#8172b3;fill-opacity:0.8;" x="321.730509" xlink:href="#C2_0_a98c021d66" y="101.605826"/>
    </g>
    <g clip-path="url(#pe8b9cb2036)">
     <use style="fill:#8172b3;fill-opacity:0.8;" x="323.362958" xlink:href="#C2_0_a98c021d66" y="94.247128"/>
    </g>
    <g clip-path="url(#pe8b9cb2036)">
     <use style="fill:#937860;fill-opacity:0.8;" x="324.657727" xlink:href="#C2_0_a98c021d66" y="197.604218"/>
    </g>
    <g clip-path="url(#pe8b9cb2036)">
     <use style="fill:#937860;fill-opacity:0.8;" x="328.679426" xlink:href="#C2_0_a98c021d66" y="196.80024"/>
    </g>
    <g clip-path="url(#pe8b9cb2036)">
     <use style="fill:#937860;fill-opacity:0.8;" x="322.707255" xlink:href="#C2_0_a98c021d66" y="198.677433"/>
    </g>
    <g clip-path="url(#pe8b9cb2036)">
     <use style="fill:#937860;fill-opacity:0.8;" x="335.146729" xlink:href="#C2_0_a98c021d66" y="200.730923"/>
    </g>
    <g clip-path="url(#pe8b9cb2036)">
     <use style="fill:#da8bc3;fill-opacity:0.8;" x="325.953441" xlink:href="#C2_0_a98c021d66" y="166.723083"/>
    </g>
    <g clip-path="url(#pe8b9cb2036)">
     <use style="fill:#da8bc3;fill-opacity:0.8;" x="326.256466" xlink:href="#C2_0_a98c021d66" y="172.104425"/>
    </g>
    <g clip-path="url(#pe8b9cb2036)">
     <use style="fill:#da8bc3;fill-opacity:0.8;" x="335.166855" xlink:href="#C2_0_a98c021d66" y="178.406757"/>
    </g>
    <g clip-path="url(#pe8b9cb2036)">
     <use style="fill:#da8bc3;fill-opacity:0.8;" x="340.066547" xlink:href="#C2_0_a98c021d66" y="167.615992"/>
    </g>
   </g>
   <g id="PathCollection_18">
    <defs>
     <path d="M 0 2.5 
C 0.663008 2.5 1.29895 2.236584 1.767767 1.767767 
C 2.236584 1.29895 2.5 0.663008 2.5 -0 
C 2.5 -0.663008 2.236584 -1.29895 1.767767 -1.767767 
C 1.29895 -2.236584 0.663008 -2.5 0 -2.5 
C -0.663008 -2.5 -1.29895 -2.236584 -1.767767 -1.767767 
C -2.236584 -1.29895 -2.5 -0.663008 -2.5 0 
C -2.5 0.663008 -2.236584 1.29895 -1.767767 1.767767 
C -1.29895 2.236584 -0.663008 2.5 0 2.5 
z
" id="C3_0_fa236699c9"/>
    </defs>
    <g clip-path="url(#pe8b9cb2036)">
     <use style="fill:#4c72b0;fill-opacity:0.8;" x="442.433454" xlink:href="#C3_0_fa236699c9" y="38.153666"/>
    </g>
    <g clip-path="url(#pe8b9cb2036)">
     <use style="fill:#4c72b0;fill-opacity:0.8;" x="438.87667" xlink:href="#C3_0_fa236699c9" y="28.48285"/>
    </g>
    <g clip-path="url(#pe8b9cb2036)">
     <use style="fill:#4c72b0;fill-opacity:0.8;" x="434.387558" xlink:href="#C3_0_fa236699c9" y="28.387191"/>
    </g>
    <g clip-path="url(#pe8b9cb2036)">
     <use style="fill:#dd8452;fill-opacity:0.8;" x="438.599423" xlink:href="#C3_0_fa236699c9" y="181.931715"/>
    </g>
    <g clip-path="url(#pe8b9cb2036)">
     <use style="fill:#dd8452;fill-opacity:0.8;" x="449.382787" xlink:href="#C3_0_fa236699c9" y="185.90771"/>
    </g>
    <g clip-path="url(#pe8b9cb2036)">
     <use style="fill:#dd8452;fill-opacity:0.8;" x="448.936644" xlink:href="#C3_0_fa236699c9" y="185.74612"/>
    </g>
    <g clip-path="url(#pe8b9cb2036)">
     <use style="fill:#dd8452;fill-opacity:0.8;" x="443.802987" xlink:href="#C3_0_fa236699c9" y="184.982235"/>
    </g>
    <g clip-path="url(#pe8b9cb2036)">
     <use style="fill:#dd8452;fill-opacity:0.8;" x="442.013447" xlink:href="#C3_0_fa236699c9" y="173.081379"/>
    </g>
    <g clip-path="url(#pe8b9cb2036)">
     <use style="fill:#55a868;fill-opacity:0.8;" x="448.64364" xlink:href="#C3_0_fa236699c9" y="198.434802"/>
    </g>
    <g clip-path="url(#pe8b9cb2036)">
     <use style="fill:#55a868;fill-opacity:0.8;" x="442.925907" xlink:href="#C3_0_fa236699c9" y="199.342625"/>
    </g>
    <g clip-path="url(#pe8b9cb2036)">
     <use style="fill:#55a868;fill-opacity:0.8;" x="444.38847" xlink:href="#C3_0_fa236699c9" y="198.345215"/>
    </g>
    <g clip-path="url(#pe8b9cb2036)">
     <use style="fill:#55a868;fill-opacity:0.8;" x="450.032133" xlink:href="#C3_0_fa236699c9" y="198.747613"/>
    </g>
    <g clip-path="url(#pe8b9cb2036)">
     <use style="fill:#c44e52;fill-opacity:0.8;" x="441.570891" xlink:href="#C3_0_fa236699c9" y="168.675781"/>
    </g>
    <g clip-path="url(#pe8b9cb2036)">
     <use style="fill:#c44e52;fill-opacity:0.8;" x="433.210138" xlink:href="#C3_0_fa236699c9" y="175.21915"/>
    </g>
    <g clip-path="url(#pe8b9cb2036)">
     <use style="fill:#c44e52;fill-opacity:0.8;" x="448.942467" xlink:href="#C3_0_fa236699c9" y="178.353848"/>
    </g>
    <g clip-path="url(#pe8b9cb2036)">
     <use style="fill:#c44e52;fill-opacity:0.8;" x="450.524471" xlink:href="#C3_0_fa236699c9" y="175.526454"/>
    </g>
    <g clip-path="url(#pe8b9cb2036)">
     <use style="fill:#8172b3;fill-opacity:0.8;" x="445.115753" xlink:href="#C3_0_fa236699c9" y="134.765509"/>
    </g>
    <g clip-path="url(#pe8b9cb2036)">
     <use style="fill:#8172b3;fill-opacity:0.8;" x="441.942529" xlink:href="#C3_0_fa236699c9" y="142.009074"/>
    </g>
    <g clip-path="url(#pe8b9cb2036)">
     <use style="fill:#8172b3;fill-opacity:0.8;" x="445.32047" xlink:href="#C3_0_fa236699c9" y="127.282974"/>
    </g>
    <g clip-path="url(#pe8b9cb2036)">
     <use style="fill:#8172b3;fill-opacity:0.8;" x="433.878519" xlink:href="#C3_0_fa236699c9" y="134.141709"/>
    </g>
    <g clip-path="url(#pe8b9cb2036)">
     <use style="fill:#937860;fill-opacity:0.8;" x="444.156863" xlink:href="#C3_0_fa236699c9" y="199.286412"/>
    </g>
    <g clip-path="url(#pe8b9cb2036)">
     <use style="fill:#937860;fill-opacity:0.8;" x="439.217242" xlink:href="#C3_0_fa236699c9" y="199.552632"/>
    </g>
    <g clip-path="url(#pe8b9cb2036)">
     <use style="fill:#937860;fill-opacity:0.8;" x="445.28784" xlink:href="#C3_0_fa236699c9" y="197.328873"/>
    </g>
    <g clip-path="url(#pe8b9cb2036)">
     <use style="fill:#937860;fill-opacity:0.8;" x="452.101067" xlink:href="#C3_0_fa236699c9" y="194.361789"/>
    </g>
    <g clip-path="url(#pe8b9cb2036)">
     <use style="fill:#da8bc3;fill-opacity:0.8;" x="445.853997" xlink:href="#C3_0_fa236699c9" y="169.271136"/>
    </g>
    <g clip-path="url(#pe8b9cb2036)">
     <use style="fill:#da8bc3;fill-opacity:0.8;" x="445.746667" xlink:href="#C3_0_fa236699c9" y="178.439289"/>
    </g>
    <g clip-path="url(#pe8b9cb2036)">
     <use style="fill:#da8bc3;fill-opacity:0.8;" x="438.017002" xlink:href="#C3_0_fa236699c9" y="172.283585"/>
    </g>
    <g clip-path="url(#pe8b9cb2036)">
     <use style="fill:#da8bc3;fill-opacity:0.8;" x="446.498171" xlink:href="#C3_0_fa236699c9" y="176.548763"/>
    </g>
   </g>
   <g id="text_17">
    <!-- LINC00923, $p_{adj}$ = .588 -->
    <g style="fill:#262626;" transform="translate(276.918891 13.77)scale(0.09 -0.09)">
     <defs>
      <path d="M 52.828125 42.09375 
L 5.5625 42.09375 
L 5.5625 50.296875 
L 52.828125 50.296875 
z
M 52.828125 20.359375 
L 5.5625 20.359375 
L 5.5625 28.5625 
L 52.828125 28.5625 
z
" id="ArialMT-61"/>
      <path d="M 17.671875 38.8125 
Q 12.203125 40.828125 9.5625 44.53125 
Q 6.9375 48.25 6.9375 53.421875 
Q 6.9375 61.234375 12.546875 66.546875 
Q 18.171875 71.875 27.484375 71.875 
Q 36.859375 71.875 42.578125 66.421875 
Q 48.296875 60.984375 48.296875 53.171875 
Q 48.296875 48.1875 45.671875 44.5 
Q 43.0625 40.828125 37.75 38.8125 
Q 44.34375 36.671875 47.78125 31.875 
Q 51.21875 27.09375 51.21875 20.453125 
Q 51.21875 11.28125 44.71875 5.03125 
Q 38.234375 -1.21875 27.640625 -1.21875 
Q 17.046875 -1.21875 10.546875 5.046875 
Q 4.046875 11.328125 4.046875 20.703125 
Q 4.046875 27.6875 7.59375 32.390625 
Q 11.140625 37.109375 17.671875 38.8125 
z
M 15.921875 53.71875 
Q 15.921875 48.640625 19.1875 45.40625 
Q 22.46875 42.1875 27.6875 42.1875 
Q 32.765625 42.1875 36.015625 45.375 
Q 39.265625 48.578125 39.265625 53.21875 
Q 39.265625 58.0625 35.90625 61.359375 
Q 32.5625 64.65625 27.59375 64.65625 
Q 22.5625 64.65625 19.234375 61.421875 
Q 15.921875 58.203125 15.921875 53.71875 
z
M 13.09375 20.65625 
Q 13.09375 16.890625 14.875 13.375 
Q 16.65625 9.859375 20.171875 7.921875 
Q 23.6875 6 27.734375 6 
Q 34.03125 6 38.125 10.046875 
Q 42.234375 14.109375 42.234375 20.359375 
Q 42.234375 26.703125 38.015625 30.859375 
Q 33.796875 35.015625 27.4375 35.015625 
Q 21.234375 35.015625 17.15625 30.90625 
Q 13.09375 26.8125 13.09375 20.65625 
z
" id="ArialMT-56"/>
     </defs>
     <use transform="translate(0 0.203125)" xlink:href="#ArialMT-76"/>
     <use transform="translate(55.615234 0.203125)" xlink:href="#ArialMT-73"/>
     <use transform="translate(83.398438 0.203125)" xlink:href="#ArialMT-78"/>
     <use transform="translate(155.615234 0.203125)" xlink:href="#ArialMT-67"/>
     <use transform="translate(227.832031 0.203125)" xlink:href="#ArialMT-48"/>
     <use transform="translate(283.447266 0.203125)" xlink:href="#ArialMT-48"/>
     <use transform="translate(339.0625 0.203125)" xlink:href="#ArialMT-57"/>
     <use transform="translate(394.677734 0.203125)" xlink:href="#ArialMT-50"/>
     <use transform="translate(450.292969 0.203125)" xlink:href="#ArialMT-51"/>
     <use transform="translate(505.908203 0.203125)" xlink:href="#ArialMT-44"/>
     <use transform="translate(533.691406 0.203125)" xlink:href="#ArialMT-32"/>
     <use transform="translate(561.474609 0.203125)" xlink:href="#DejaVuSans-Oblique-112"/>
     <use transform="translate(624.951172 -16.203125)scale(0.7)" xlink:href="#DejaVuSans-Oblique-97"/>
     <use transform="translate(667.84668 -16.203125)scale(0.7)" xlink:href="#DejaVuSans-Oblique-100"/>
     <use transform="translate(712.280273 -16.203125)scale(0.7)" xlink:href="#DejaVuSans-Oblique-106"/>
     <use transform="translate(734.462891 0.203125)" xlink:href="#ArialMT-32"/>
     <use transform="translate(762.246094 0.203125)" xlink:href="#ArialMT-61"/>
     <use transform="translate(820.644531 0.203125)" xlink:href="#ArialMT-32"/>
     <use transform="translate(848.427734 0.203125)" xlink:href="#ArialMT-46"/>
     <use transform="translate(876.210938 0.203125)" xlink:href="#ArialMT-53"/>
     <use transform="translate(931.826172 0.203125)" xlink:href="#ArialMT-56"/>
     <use transform="translate(987.441406 0.203125)" xlink:href="#ArialMT-56"/>
    </g>
   </g>
  </g>
  <g id="legend_1">
   <g id="patch_8">
    <path d="M 508.086093 175.28218 
L 551.900624 175.28218 
Q 553.700624 175.28218 553.700624 173.48218 
L 553.700624 72.53593 
Q 553.700624 70.73593 551.900624 70.73593 
L 508.086093 70.73593 
Q 506.286093 70.73593 506.286093 72.53593 
L 506.286093 173.48218 
Q 506.286093 175.28218 508.086093 175.28218 
z
" style="fill:#ffffff;opacity:0.8;stroke:#cccccc;stroke-linejoin:miter;"/>
   </g>
   <g id="text_18">
    <!-- Patient -->
    <g style="fill:#262626;" transform="translate(515.984296 80.777961)scale(0.09 -0.09)">
     <use xlink:href="#ArialMT-80"/>
     <use x="66.699219" xlink:href="#ArialMT-97"/>
     <use x="122.314453" xlink:href="#ArialMT-116"/>
     <use x="150.097656" xlink:href="#ArialMT-105"/>
     <use x="172.314453" xlink:href="#ArialMT-101"/>
     <use x="227.929688" xlink:href="#ArialMT-110"/>
     <use x="283.544922" xlink:href="#ArialMT-116"/>
    </g>
   </g>
   <g id="PathCollection_19">
    <defs>
     <path d="M 0 3.872983 
C 1.027127 3.872983 2.012324 3.464901 2.738613 2.738613 
C 3.464901 2.012324 3.872983 1.027127 3.872983 0 
C 3.872983 -1.027127 3.464901 -2.012324 2.738613 -2.738613 
C 2.012324 -3.464901 1.027127 -3.872983 0 -3.872983 
C -1.027127 -3.872983 -2.012324 -3.464901 -2.738613 -2.738613 
C -3.464901 -2.012324 -3.872983 -1.027127 -3.872983 0 
C -3.872983 1.027127 -3.464901 2.012324 -2.738613 2.738613 
C -2.012324 3.464901 -1.027127 3.872983 0 3.872983 
z
" id="m63dc434ad4" style="stroke:#4c72b0;"/>
    </defs>
    <g>
     <use style="fill:#4c72b0;stroke:#4c72b0;" x="518.886093" xlink:href="#m63dc434ad4" y="91.146243"/>
    </g>
   </g>
   <g id="text_19">
    <!-- 5 -->
    <g style="fill:#262626;" transform="translate(535.086093 93.508743)scale(0.09 -0.09)">
     <use xlink:href="#ArialMT-53"/>
    </g>
   </g>
   <g id="PathCollection_20">
    <defs>
     <path d="M 0 3.872983 
C 1.027127 3.872983 2.012324 3.464901 2.738613 2.738613 
C 3.464901 2.012324 3.872983 1.027127 3.872983 0 
C 3.872983 -1.027127 3.464901 -2.012324 2.738613 -2.738613 
C 2.012324 -3.464901 1.027127 -3.872983 0 -3.872983 
C -1.027127 -3.872983 -2.012324 -3.464901 -2.738613 -2.738613 
C -3.464901 -2.012324 -3.872983 -1.027127 -3.872983 0 
C -3.872983 1.027127 -3.464901 2.012324 -2.738613 2.738613 
C -2.012324 3.464901 -1.027127 3.872983 0 3.872983 
z
" id="m553001a1a0" style="stroke:#dd8452;"/>
    </defs>
    <g>
     <use style="fill:#dd8452;stroke:#dd8452;" x="518.886093" xlink:href="#m553001a1a0" y="103.877024"/>
    </g>
   </g>
   <g id="text_20">
    <!-- 15 -->
    <g style="fill:#262626;" transform="translate(535.086093 106.239524)scale(0.09 -0.09)">
     <use xlink:href="#ArialMT-49"/>
     <use x="55.615234" xlink:href="#ArialMT-53"/>
    </g>
   </g>
   <g id="PathCollection_21">
    <defs>
     <path d="M 0 3.872983 
C 1.027127 3.872983 2.012324 3.464901 2.738613 2.738613 
C 3.464901 2.012324 3.872983 1.027127 3.872983 0 
C 3.872983 -1.027127 3.464901 -2.012324 2.738613 -2.738613 
C 2.012324 -3.464901 1.027127 -3.872983 0 -3.872983 
C -1.027127 -3.872983 -2.012324 -3.464901 -2.738613 -2.738613 
C -3.464901 -2.012324 -3.872983 -1.027127 -3.872983 0 
C -3.872983 1.027127 -3.464901 2.012324 -2.738613 2.738613 
C -2.012324 3.464901 -1.027127 3.872983 0 3.872983 
z
" id="me9d34da556" style="stroke:#55a868;"/>
    </defs>
    <g>
     <use style="fill:#55a868;stroke:#55a868;" x="518.886093" xlink:href="#me9d34da556" y="116.607805"/>
    </g>
   </g>
   <g id="text_21">
    <!-- 17 -->
    <g style="fill:#262626;" transform="translate(535.086093 118.970305)scale(0.09 -0.09)">
     <use xlink:href="#ArialMT-49"/>
     <use x="55.615234" xlink:href="#ArialMT-55"/>
    </g>
   </g>
   <g id="PathCollection_22">
    <defs>
     <path d="M 0 3.872983 
C 1.027127 3.872983 2.012324 3.464901 2.738613 2.738613 
C 3.464901 2.012324 3.872983 1.027127 3.872983 0 
C 3.872983 -1.027127 3.464901 -2.012324 2.738613 -2.738613 
C 2.012324 -3.464901 1.027127 -3.872983 0 -3.872983 
C -1.027127 -3.872983 -2.012324 -3.464901 -2.738613 -2.738613 
C -3.464901 -2.012324 -3.872983 -1.027127 -3.872983 0 
C -3.872983 1.027127 -3.464901 2.012324 -2.738613 2.738613 
C -2.012324 3.464901 -1.027127 3.872983 0 3.872983 
z
" id="m564745e899" style="stroke:#c44e52;"/>
    </defs>
    <g>
     <use style="fill:#c44e52;stroke:#c44e52;" x="518.886093" xlink:href="#m564745e899" y="129.338586"/>
    </g>
   </g>
   <g id="text_22">
    <!-- 49 -->
    <g style="fill:#262626;" transform="translate(535.086093 131.701086)scale(0.09 -0.09)">
     <defs>
      <path d="M 32.328125 0 
L 32.328125 17.140625 
L 1.265625 17.140625 
L 1.265625 25.203125 
L 33.9375 71.578125 
L 41.109375 71.578125 
L 41.109375 25.203125 
L 50.78125 25.203125 
L 50.78125 17.140625 
L 41.109375 17.140625 
L 41.109375 0 
z
M 32.328125 25.203125 
L 32.328125 57.46875 
L 9.90625 25.203125 
z
" id="ArialMT-52"/>
     </defs>
     <use xlink:href="#ArialMT-52"/>
     <use x="55.615234" xlink:href="#ArialMT-57"/>
    </g>
   </g>
   <g id="PathCollection_23">
    <defs>
     <path d="M 0 3.872983 
C 1.027127 3.872983 2.012324 3.464901 2.738613 2.738613 
C 3.464901 2.012324 3.872983 1.027127 3.872983 0 
C 3.872983 -1.027127 3.464901 -2.012324 2.738613 -2.738613 
C 2.012324 -3.464901 1.027127 -3.872983 0 -3.872983 
C -1.027127 -3.872983 -2.012324 -3.464901 -2.738613 -2.738613 
C -3.464901 -2.012324 -3.872983 -1.027127 -3.872983 0 
C -3.872983 1.027127 -3.464901 2.012324 -2.738613 2.738613 
C -2.012324 3.464901 -1.027127 3.872983 0 3.872983 
z
" id="m74619d48e1" style="stroke:#8172b3;"/>
    </defs>
    <g>
     <use style="fill:#8172b3;stroke:#8172b3;" x="518.886093" xlink:href="#m74619d48e1" y="142.069368"/>
    </g>
   </g>
   <g id="text_23">
    <!-- 62 -->
    <g style="fill:#262626;" transform="translate(535.086093 144.431868)scale(0.09 -0.09)">
     <defs>
      <path d="M 49.75 54.046875 
L 41.015625 53.375 
Q 39.84375 58.546875 37.703125 60.890625 
Q 34.125 64.65625 28.90625 64.65625 
Q 24.703125 64.65625 21.53125 62.3125 
Q 17.390625 59.28125 14.984375 53.46875 
Q 12.59375 47.65625 12.5 36.921875 
Q 15.671875 41.75 20.265625 44.09375 
Q 24.859375 46.4375 29.890625 46.4375 
Q 38.671875 46.4375 44.84375 39.96875 
Q 51.03125 33.5 51.03125 23.25 
Q 51.03125 16.5 48.125 10.71875 
Q 45.21875 4.9375 40.140625 1.859375 
Q 35.0625 -1.21875 28.609375 -1.21875 
Q 17.625 -1.21875 10.6875 6.859375 
Q 3.765625 14.9375 3.765625 33.5 
Q 3.765625 54.25 11.421875 63.671875 
Q 18.109375 71.875 29.4375 71.875 
Q 37.890625 71.875 43.28125 67.140625 
Q 48.6875 62.40625 49.75 54.046875 
z
M 13.875 23.1875 
Q 13.875 18.65625 15.796875 14.5 
Q 17.71875 10.359375 21.1875 8.171875 
Q 24.65625 6 28.46875 6 
Q 34.03125 6 38.03125 10.484375 
Q 42.046875 14.984375 42.046875 22.703125 
Q 42.046875 30.125 38.078125 34.390625 
Q 34.125 38.671875 28.125 38.671875 
Q 22.171875 38.671875 18.015625 34.390625 
Q 13.875 30.125 13.875 23.1875 
z
" id="ArialMT-54"/>
     </defs>
     <use xlink:href="#ArialMT-54"/>
     <use x="55.615234" xlink:href="#ArialMT-50"/>
    </g>
   </g>
   <g id="PathCollection_24">
    <defs>
     <path d="M 0 3.872983 
C 1.027127 3.872983 2.012324 3.464901 2.738613 2.738613 
C 3.464901 2.012324 3.872983 1.027127 3.872983 0 
C 3.872983 -1.027127 3.464901 -2.012324 2.738613 -2.738613 
C 2.012324 -3.464901 1.027127 -3.872983 0 -3.872983 
C -1.027127 -3.872983 -2.012324 -3.464901 -2.738613 -2.738613 
C -3.464901 -2.012324 -3.872983 -1.027127 -3.872983 0 
C -3.872983 1.027127 -3.464901 2.012324 -2.738613 2.738613 
C -2.012324 3.464901 -1.027127 3.872983 0 3.872983 
z
" id="m375a7e948b" style="stroke:#937860;"/>
    </defs>
    <g>
     <use style="fill:#937860;stroke:#937860;" x="518.886093" xlink:href="#m375a7e948b" y="154.800149"/>
    </g>
   </g>
   <g id="text_24">
    <!-- 69 -->
    <g style="fill:#262626;" transform="translate(535.086093 157.162649)scale(0.09 -0.09)">
     <use xlink:href="#ArialMT-54"/>
     <use x="55.615234" xlink:href="#ArialMT-57"/>
    </g>
   </g>
   <g id="PathCollection_25">
    <defs>
     <path d="M 0 3.872983 
C 1.027127 3.872983 2.012324 3.464901 2.738613 2.738613 
C 3.464901 2.012324 3.872983 1.027127 3.872983 0 
C 3.872983 -1.027127 3.464901 -2.012324 2.738613 -2.738613 
C 2.012324 -3.464901 1.027127 -3.872983 0 -3.872983 
C -1.027127 -3.872983 -2.012324 -3.464901 -2.738613 -2.738613 
C -3.464901 -2.012324 -3.872983 -1.027127 -3.872983 0 
C -3.872983 1.027127 -3.464901 2.012324 -2.738613 2.738613 
C -2.012324 3.464901 -1.027127 3.872983 0 3.872983 
z
" id="m542bbae34f" style="stroke:#da8bc3;"/>
    </defs>
    <g>
     <use style="fill:#da8bc3;stroke:#da8bc3;" x="518.886093" xlink:href="#m542bbae34f" y="167.53093"/>
    </g>
   </g>
   <g id="text_25">
    <!-- 126 -->
    <g style="fill:#262626;" transform="translate(535.086093 169.89343)scale(0.09 -0.09)">
     <use xlink:href="#ArialMT-49"/>
     <use x="55.615234" xlink:href="#ArialMT-50"/>
     <use x="111.230469" xlink:href="#ArialMT-54"/>
    </g>
   </g>
  </g>
 </g>
 <defs>
  <clipPath id="p7a7c657577">
   <rect height="189.57811" width="220.53811" x="46.660781" y="19.77"/>
  </clipPath>
  <clipPath id="pe8b9cb2036">
   <rect height="189.57811" width="220.53811" x="276.918891" y="19.77"/>
  </clipPath>
 </defs>
</svg>
