<?xml version="1.0" encoding="utf-8" standalone="no"?>
<!DOCTYPE svg PUBLIC "-//W3C//DTD SVG 1.1//EN"
  "http://www.w3.org/Graphics/SVG/1.1/DTD/svg11.dtd">
<svg xmlns:xlink="http://www.w3.org/1999/xlink" width="510.23622pt" height="255.11811pt" viewBox="0 0 510.23622 255.11811" xmlns="http://www.w3.org/2000/svg" version="1.1">
 <metadata>
  <rdf:RDF xmlns:dc="http://purl.org/dc/elements/1.1/" xmlns:cc="http://creativecommons.org/ns#" xmlns:rdf="http://www.w3.org/1999/02/22-rdf-syntax-ns#">
   <cc:Work>
    <dc:type rdf:resource="http://purl.org/dc/dcmitype/StillImage"/>
    <dc:date>2022-04-27T00:16:45.065626</dc:date>
    <dc:format>image/svg+xml</dc:format>
    <dc:creator>
     <cc:Agent>
      <dc:title>Matplotlib v3.5.1, https://matplotlib.org/</dc:title>
     </cc:Agent>
    </dc:creator>
   </cc:Work>
  </rdf:RDF>
 </metadata>
 <defs>
  <style type="text/css">*{stroke-linejoin: round; stroke-linecap: butt}</style>
 </defs>
 <g id="figure_1">
  <g id="patch_1">
   <path d="M 0 255.11811 
L 510.23622 255.11811 
L 510.23622 0 
L 0 0 
z
" style="fill: #ffffff"/>
  </g>
  <g id="axes_1">
   <g id="patch_2">
    <path d="M 52.22 213.89811 
L 500.51622 213.89811 
L 500.51622 24.32 
L 52.22 24.32 
z
" style="fill: #ffffff"/>
   </g>
   <g id="matplotlib.axis_1">
    <g id="xtick_1">
     <g id="text_1">
      <!-- 49 -->
      <g style="fill: #444444" transform="translate(79.236315 229.840141)scale(0.09 -0.09)">
       <defs>
        <path id="ArialMT-34" d="M 2069 0 
L 2069 1097 
L 81 1097 
L 81 1613 
L 2172 4581 
L 2631 4581 
L 2631 1613 
L 3250 1613 
L 3250 1097 
L 2631 1097 
L 2631 0 
L 2069 0 
z
M 2069 1613 
L 2069 3678 
L 634 1613 
L 2069 1613 
z
" transform="scale(0.015625)"/>
        <path id="ArialMT-39" d="M 350 1059 
L 891 1109 
Q 959 728 1153 556 
Q 1347 384 1650 384 
Q 1909 384 2104 503 
Q 2300 622 2425 820 
Q 2550 1019 2634 1356 
Q 2719 1694 2719 2044 
Q 2719 2081 2716 2156 
Q 2547 1888 2255 1720 
Q 1963 1553 1622 1553 
Q 1053 1553 659 1965 
Q 266 2378 266 3053 
Q 266 3750 677 4175 
Q 1088 4600 1706 4600 
Q 2153 4600 2523 4359 
Q 2894 4119 3086 3673 
Q 3278 3228 3278 2384 
Q 3278 1506 3087 986 
Q 2897 466 2520 194 
Q 2144 -78 1638 -78 
Q 1100 -78 759 220 
Q 419 519 350 1059 
z
M 2653 3081 
Q 2653 3566 2395 3850 
Q 2138 4134 1775 4134 
Q 1400 4134 1122 3828 
Q 844 3522 844 3034 
Q 844 2597 1108 2323 
Q 1372 2050 1759 2050 
Q 2150 2050 2401 2323 
Q 2653 2597 2653 3081 
z
" transform="scale(0.015625)"/>
       </defs>
       <use xlink:href="#ArialMT-34"/>
       <use xlink:href="#ArialMT-39" x="55.615234"/>
      </g>
     </g>
    </g>
    <g id="xtick_2">
     <g id="text_2">
      <!-- 17 -->
      <g style="fill: #444444" transform="translate(143.278632 229.840141)scale(0.09 -0.09)">
       <defs>
        <path id="ArialMT-31" d="M 2384 0 
L 1822 0 
L 1822 3584 
Q 1619 3391 1289 3197 
Q 959 3003 697 2906 
L 697 3450 
Q 1169 3672 1522 3987 
Q 1875 4303 2022 4600 
L 2384 4600 
L 2384 0 
z
" transform="scale(0.015625)"/>
        <path id="ArialMT-37" d="M 303 3981 
L 303 4522 
L 3269 4522 
L 3269 4084 
Q 2831 3619 2401 2847 
Q 1972 2075 1738 1259 
Q 1569 684 1522 0 
L 944 0 
Q 953 541 1156 1306 
Q 1359 2072 1739 2783 
Q 2119 3494 2547 3981 
L 303 3981 
z
" transform="scale(0.015625)"/>
       </defs>
       <use xlink:href="#ArialMT-31"/>
       <use xlink:href="#ArialMT-37" x="55.615234"/>
      </g>
     </g>
    </g>
    <g id="xtick_3">
     <g id="text_3">
      <!-- 69 -->
      <g style="fill: #444444" transform="translate(207.320949 229.840141)scale(0.09 -0.09)">
       <defs>
        <path id="ArialMT-36" d="M 3184 3459 
L 2625 3416 
Q 2550 3747 2413 3897 
Q 2184 4138 1850 4138 
Q 1581 4138 1378 3988 
Q 1113 3794 959 3422 
Q 806 3050 800 2363 
Q 1003 2672 1297 2822 
Q 1591 2972 1913 2972 
Q 2475 2972 2870 2558 
Q 3266 2144 3266 1488 
Q 3266 1056 3080 686 
Q 2894 316 2569 119 
Q 2244 -78 1831 -78 
Q 1128 -78 684 439 
Q 241 956 241 2144 
Q 241 3472 731 4075 
Q 1159 4600 1884 4600 
Q 2425 4600 2770 4297 
Q 3116 3994 3184 3459 
z
M 888 1484 
Q 888 1194 1011 928 
Q 1134 663 1356 523 
Q 1578 384 1822 384 
Q 2178 384 2434 671 
Q 2691 959 2691 1453 
Q 2691 1928 2437 2201 
Q 2184 2475 1800 2475 
Q 1419 2475 1153 2201 
Q 888 1928 888 1484 
z
" transform="scale(0.015625)"/>
       </defs>
       <use xlink:href="#ArialMT-36"/>
       <use xlink:href="#ArialMT-39" x="55.615234"/>
      </g>
     </g>
    </g>
    <g id="xtick_4">
     <g id="text_4">
      <!-- 15 -->
      <g style="fill: #444444" transform="translate(271.363266 229.840141)scale(0.09 -0.09)">
       <defs>
        <path id="ArialMT-35" d="M 266 1200 
L 856 1250 
Q 922 819 1161 601 
Q 1400 384 1738 384 
Q 2144 384 2425 690 
Q 2706 997 2706 1503 
Q 2706 1984 2436 2262 
Q 2166 2541 1728 2541 
Q 1456 2541 1237 2417 
Q 1019 2294 894 2097 
L 366 2166 
L 809 4519 
L 3088 4519 
L 3088 3981 
L 1259 3981 
L 1013 2750 
Q 1425 3038 1878 3038 
Q 2478 3038 2890 2622 
Q 3303 2206 3303 1553 
Q 3303 931 2941 478 
Q 2500 -78 1738 -78 
Q 1113 -78 717 272 
Q 322 622 266 1200 
z
" transform="scale(0.015625)"/>
       </defs>
       <use xlink:href="#ArialMT-31"/>
       <use xlink:href="#ArialMT-35" x="55.615234"/>
      </g>
     </g>
    </g>
    <g id="xtick_5">
     <g id="text_5">
      <!-- 5 -->
      <g style="fill: #444444" transform="translate(337.908006 229.840141)scale(0.09 -0.09)">
       <use xlink:href="#ArialMT-35"/>
      </g>
     </g>
    </g>
    <g id="xtick_6">
     <g id="text_6">
      <!-- 126 -->
      <g style="fill: #444444" transform="translate(396.945479 229.840141)scale(0.09 -0.09)">
       <defs>
        <path id="ArialMT-32" d="M 3222 541 
L 3222 0 
L 194 0 
Q 188 203 259 391 
Q 375 700 629 1000 
Q 884 1300 1366 1694 
Q 2113 2306 2375 2664 
Q 2638 3022 2638 3341 
Q 2638 3675 2398 3904 
Q 2159 4134 1775 4134 
Q 1369 4134 1125 3890 
Q 881 3647 878 3216 
L 300 3275 
Q 359 3922 746 4261 
Q 1134 4600 1788 4600 
Q 2447 4600 2831 4234 
Q 3216 3869 3216 3328 
Q 3216 3053 3103 2787 
Q 2991 2522 2730 2228 
Q 2469 1934 1863 1422 
Q 1356 997 1212 845 
Q 1069 694 975 541 
L 3222 541 
z
" transform="scale(0.015625)"/>
       </defs>
       <use xlink:href="#ArialMT-31"/>
       <use xlink:href="#ArialMT-32" x="55.615234"/>
       <use xlink:href="#ArialMT-36" x="111.230469"/>
      </g>
     </g>
    </g>
    <g id="xtick_7">
     <g id="text_7">
      <!-- 62 -->
      <g style="fill: #444444" transform="translate(463.490218 229.840141)scale(0.09 -0.09)">
       <use xlink:href="#ArialMT-36"/>
       <use xlink:href="#ArialMT-32" x="55.615234"/>
      </g>
     </g>
    </g>
    <g id="text_8">
     <!-- Patient -->
     <g style="fill: #444444" transform="translate(262.359048 242.070923)scale(0.09 -0.09)">
      <defs>
       <path id="ArialMT-50" d="M 494 0 
L 494 4581 
L 2222 4581 
Q 2678 4581 2919 4538 
Q 3256 4481 3484 4323 
Q 3713 4166 3852 3881 
Q 3991 3597 3991 3256 
Q 3991 2672 3619 2267 
Q 3247 1863 2275 1863 
L 1100 1863 
L 1100 0 
L 494 0 
z
M 1100 2403 
L 2284 2403 
Q 2872 2403 3119 2622 
Q 3366 2841 3366 3238 
Q 3366 3525 3220 3729 
Q 3075 3934 2838 4000 
Q 2684 4041 2272 4041 
L 1100 4041 
L 1100 2403 
z
" transform="scale(0.015625)"/>
       <path id="ArialMT-61" d="M 2588 409 
Q 2275 144 1986 34 
Q 1697 -75 1366 -75 
Q 819 -75 525 192 
Q 231 459 231 875 
Q 231 1119 342 1320 
Q 453 1522 633 1644 
Q 813 1766 1038 1828 
Q 1203 1872 1538 1913 
Q 2219 1994 2541 2106 
Q 2544 2222 2544 2253 
Q 2544 2597 2384 2738 
Q 2169 2928 1744 2928 
Q 1347 2928 1158 2789 
Q 969 2650 878 2297 
L 328 2372 
Q 403 2725 575 2942 
Q 747 3159 1072 3276 
Q 1397 3394 1825 3394 
Q 2250 3394 2515 3294 
Q 2781 3194 2906 3042 
Q 3031 2891 3081 2659 
Q 3109 2516 3109 2141 
L 3109 1391 
Q 3109 606 3145 398 
Q 3181 191 3288 0 
L 2700 0 
Q 2613 175 2588 409 
z
M 2541 1666 
Q 2234 1541 1622 1453 
Q 1275 1403 1131 1340 
Q 988 1278 909 1158 
Q 831 1038 831 891 
Q 831 666 1001 516 
Q 1172 366 1500 366 
Q 1825 366 2078 508 
Q 2331 650 2450 897 
Q 2541 1088 2541 1459 
L 2541 1666 
z
" transform="scale(0.015625)"/>
       <path id="ArialMT-74" d="M 1650 503 
L 1731 6 
Q 1494 -44 1306 -44 
Q 1000 -44 831 53 
Q 663 150 594 308 
Q 525 466 525 972 
L 525 2881 
L 113 2881 
L 113 3319 
L 525 3319 
L 525 4141 
L 1084 4478 
L 1084 3319 
L 1650 3319 
L 1650 2881 
L 1084 2881 
L 1084 941 
Q 1084 700 1114 631 
Q 1144 563 1211 522 
Q 1278 481 1403 481 
Q 1497 481 1650 503 
z
" transform="scale(0.015625)"/>
       <path id="ArialMT-69" d="M 425 3934 
L 425 4581 
L 988 4581 
L 988 3934 
L 425 3934 
z
M 425 0 
L 425 3319 
L 988 3319 
L 988 0 
L 425 0 
z
" transform="scale(0.015625)"/>
       <path id="ArialMT-65" d="M 2694 1069 
L 3275 997 
Q 3138 488 2766 206 
Q 2394 -75 1816 -75 
Q 1088 -75 661 373 
Q 234 822 234 1631 
Q 234 2469 665 2931 
Q 1097 3394 1784 3394 
Q 2450 3394 2872 2941 
Q 3294 2488 3294 1666 
Q 3294 1616 3291 1516 
L 816 1516 
Q 847 969 1125 678 
Q 1403 388 1819 388 
Q 2128 388 2347 550 
Q 2566 713 2694 1069 
z
M 847 1978 
L 2700 1978 
Q 2663 2397 2488 2606 
Q 2219 2931 1791 2931 
Q 1403 2931 1139 2672 
Q 875 2413 847 1978 
z
" transform="scale(0.015625)"/>
       <path id="ArialMT-6e" d="M 422 0 
L 422 3319 
L 928 3319 
L 928 2847 
Q 1294 3394 1984 3394 
Q 2284 3394 2536 3286 
Q 2788 3178 2913 3003 
Q 3038 2828 3088 2588 
Q 3119 2431 3119 2041 
L 3119 0 
L 2556 0 
L 2556 2019 
Q 2556 2363 2490 2533 
Q 2425 2703 2258 2804 
Q 2091 2906 1866 2906 
Q 1506 2906 1245 2678 
Q 984 2450 984 1813 
L 984 0 
L 422 0 
z
" transform="scale(0.015625)"/>
      </defs>
      <use xlink:href="#ArialMT-50"/>
      <use xlink:href="#ArialMT-61" x="66.699219"/>
      <use xlink:href="#ArialMT-74" x="122.314453"/>
      <use xlink:href="#ArialMT-69" x="150.097656"/>
      <use xlink:href="#ArialMT-65" x="172.314453"/>
      <use xlink:href="#ArialMT-6e" x="227.929688"/>
      <use xlink:href="#ArialMT-74" x="283.544922"/>
     </g>
    </g>
   </g>
   <g id="matplotlib.axis_2">
    <g id="ytick_1">
     <g id="text_9">
      <!-- 500 -->
      <g style="fill: #444444" transform="translate(27.705469 200.187737)scale(0.09 -0.09)">
       <defs>
        <path id="ArialMT-30" d="M 266 2259 
Q 266 3072 433 3567 
Q 600 4063 929 4331 
Q 1259 4600 1759 4600 
Q 2128 4600 2406 4451 
Q 2684 4303 2865 4023 
Q 3047 3744 3150 3342 
Q 3253 2941 3253 2259 
Q 3253 1453 3087 958 
Q 2922 463 2592 192 
Q 2263 -78 1759 -78 
Q 1097 -78 719 397 
Q 266 969 266 2259 
z
M 844 2259 
Q 844 1131 1108 757 
Q 1372 384 1759 384 
Q 2147 384 2411 759 
Q 2675 1134 2675 2259 
Q 2675 3391 2411 3762 
Q 2147 4134 1753 4134 
Q 1366 4134 1134 3806 
Q 844 3388 844 2259 
z
" transform="scale(0.015625)"/>
       </defs>
       <use xlink:href="#ArialMT-35"/>
       <use xlink:href="#ArialMT-30" x="55.615234"/>
       <use xlink:href="#ArialMT-30" x="111.230469"/>
      </g>
     </g>
    </g>
    <g id="ytick_2">
     <g id="text_10">
      <!-- 1000 -->
      <g style="fill: #444444" transform="translate(22.700625 161.08599)scale(0.09 -0.09)">
       <use xlink:href="#ArialMT-31"/>
       <use xlink:href="#ArialMT-30" x="55.615234"/>
       <use xlink:href="#ArialMT-30" x="111.230469"/>
       <use xlink:href="#ArialMT-30" x="166.845703"/>
      </g>
     </g>
    </g>
    <g id="ytick_3">
     <g id="text_11">
      <!-- 1500 -->
      <g style="fill: #444444" transform="translate(22.700625 121.984243)scale(0.09 -0.09)">
       <use xlink:href="#ArialMT-31"/>
       <use xlink:href="#ArialMT-35" x="55.615234"/>
       <use xlink:href="#ArialMT-30" x="111.230469"/>
       <use xlink:href="#ArialMT-30" x="166.845703"/>
      </g>
     </g>
    </g>
    <g id="ytick_4">
     <g id="text_12">
      <!-- 2000 -->
      <g style="fill: #444444" transform="translate(22.700625 82.882496)scale(0.09 -0.09)">
       <use xlink:href="#ArialMT-32"/>
       <use xlink:href="#ArialMT-30" x="55.615234"/>
       <use xlink:href="#ArialMT-30" x="111.230469"/>
       <use xlink:href="#ArialMT-30" x="166.845703"/>
      </g>
     </g>
    </g>
    <g id="ytick_5">
     <g id="text_13">
      <!-- 2500 -->
      <g style="fill: #444444" transform="translate(22.700625 43.780749)scale(0.09 -0.09)">
       <use xlink:href="#ArialMT-32"/>
       <use xlink:href="#ArialMT-35" x="55.615234"/>
       <use xlink:href="#ArialMT-30" x="111.230469"/>
       <use xlink:href="#ArialMT-30" x="166.845703"/>
      </g>
     </g>
    </g>
    <g id="text_14">
     <!-- Trimmed Means of M values (TMM) -->
     <g style="fill: #444444" transform="translate(16.806406 190.194993)rotate(-90)scale(0.09 -0.09)">
      <defs>
       <path id="ArialMT-54" d="M 1659 0 
L 1659 4041 
L 150 4041 
L 150 4581 
L 3781 4581 
L 3781 4041 
L 2266 4041 
L 2266 0 
L 1659 0 
z
" transform="scale(0.015625)"/>
       <path id="ArialMT-72" d="M 416 0 
L 416 3319 
L 922 3319 
L 922 2816 
Q 1116 3169 1280 3281 
Q 1444 3394 1641 3394 
Q 1925 3394 2219 3213 
L 2025 2691 
Q 1819 2813 1613 2813 
Q 1428 2813 1281 2702 
Q 1134 2591 1072 2394 
Q 978 2094 978 1738 
L 978 0 
L 416 0 
z
" transform="scale(0.015625)"/>
       <path id="ArialMT-6d" d="M 422 0 
L 422 3319 
L 925 3319 
L 925 2853 
Q 1081 3097 1340 3245 
Q 1600 3394 1931 3394 
Q 2300 3394 2536 3241 
Q 2772 3088 2869 2813 
Q 3263 3394 3894 3394 
Q 4388 3394 4653 3120 
Q 4919 2847 4919 2278 
L 4919 0 
L 4359 0 
L 4359 2091 
Q 4359 2428 4304 2576 
Q 4250 2725 4106 2815 
Q 3963 2906 3769 2906 
Q 3419 2906 3187 2673 
Q 2956 2441 2956 1928 
L 2956 0 
L 2394 0 
L 2394 2156 
Q 2394 2531 2256 2718 
Q 2119 2906 1806 2906 
Q 1569 2906 1367 2781 
Q 1166 2656 1075 2415 
Q 984 2175 984 1722 
L 984 0 
L 422 0 
z
" transform="scale(0.015625)"/>
       <path id="ArialMT-64" d="M 2575 0 
L 2575 419 
Q 2259 -75 1647 -75 
Q 1250 -75 917 144 
Q 584 363 401 755 
Q 219 1147 219 1656 
Q 219 2153 384 2558 
Q 550 2963 881 3178 
Q 1213 3394 1622 3394 
Q 1922 3394 2156 3267 
Q 2391 3141 2538 2938 
L 2538 4581 
L 3097 4581 
L 3097 0 
L 2575 0 
z
M 797 1656 
Q 797 1019 1065 703 
Q 1334 388 1700 388 
Q 2069 388 2326 689 
Q 2584 991 2584 1609 
Q 2584 2291 2321 2609 
Q 2059 2928 1675 2928 
Q 1300 2928 1048 2622 
Q 797 2316 797 1656 
z
" transform="scale(0.015625)"/>
       <path id="ArialMT-20" transform="scale(0.015625)"/>
       <path id="ArialMT-4d" d="M 475 0 
L 475 4581 
L 1388 4581 
L 2472 1338 
Q 2622 884 2691 659 
Q 2769 909 2934 1394 
L 4031 4581 
L 4847 4581 
L 4847 0 
L 4263 0 
L 4263 3834 
L 2931 0 
L 2384 0 
L 1059 3900 
L 1059 0 
L 475 0 
z
" transform="scale(0.015625)"/>
       <path id="ArialMT-73" d="M 197 991 
L 753 1078 
Q 800 744 1014 566 
Q 1228 388 1613 388 
Q 2000 388 2187 545 
Q 2375 703 2375 916 
Q 2375 1106 2209 1216 
Q 2094 1291 1634 1406 
Q 1016 1563 777 1677 
Q 538 1791 414 1992 
Q 291 2194 291 2438 
Q 291 2659 392 2848 
Q 494 3038 669 3163 
Q 800 3259 1026 3326 
Q 1253 3394 1513 3394 
Q 1903 3394 2198 3281 
Q 2494 3169 2634 2976 
Q 2775 2784 2828 2463 
L 2278 2388 
Q 2241 2644 2061 2787 
Q 1881 2931 1553 2931 
Q 1166 2931 1000 2803 
Q 834 2675 834 2503 
Q 834 2394 903 2306 
Q 972 2216 1119 2156 
Q 1203 2125 1616 2013 
Q 2213 1853 2448 1751 
Q 2684 1650 2818 1456 
Q 2953 1263 2953 975 
Q 2953 694 2789 445 
Q 2625 197 2315 61 
Q 2006 -75 1616 -75 
Q 969 -75 630 194 
Q 291 463 197 991 
z
" transform="scale(0.015625)"/>
       <path id="ArialMT-6f" d="M 213 1659 
Q 213 2581 725 3025 
Q 1153 3394 1769 3394 
Q 2453 3394 2887 2945 
Q 3322 2497 3322 1706 
Q 3322 1066 3130 698 
Q 2938 331 2570 128 
Q 2203 -75 1769 -75 
Q 1072 -75 642 372 
Q 213 819 213 1659 
z
M 791 1659 
Q 791 1022 1069 705 
Q 1347 388 1769 388 
Q 2188 388 2466 706 
Q 2744 1025 2744 1678 
Q 2744 2294 2464 2611 
Q 2184 2928 1769 2928 
Q 1347 2928 1069 2612 
Q 791 2297 791 1659 
z
" transform="scale(0.015625)"/>
       <path id="ArialMT-66" d="M 556 0 
L 556 2881 
L 59 2881 
L 59 3319 
L 556 3319 
L 556 3672 
Q 556 4006 616 4169 
Q 697 4388 901 4523 
Q 1106 4659 1475 4659 
Q 1713 4659 2000 4603 
L 1916 4113 
Q 1741 4144 1584 4144 
Q 1328 4144 1222 4034 
Q 1116 3925 1116 3625 
L 1116 3319 
L 1763 3319 
L 1763 2881 
L 1116 2881 
L 1116 0 
L 556 0 
z
" transform="scale(0.015625)"/>
       <path id="ArialMT-76" d="M 1344 0 
L 81 3319 
L 675 3319 
L 1388 1331 
Q 1503 1009 1600 663 
Q 1675 925 1809 1294 
L 2547 3319 
L 3125 3319 
L 1869 0 
L 1344 0 
z
" transform="scale(0.015625)"/>
       <path id="ArialMT-6c" d="M 409 0 
L 409 4581 
L 972 4581 
L 972 0 
L 409 0 
z
" transform="scale(0.015625)"/>
       <path id="ArialMT-75" d="M 2597 0 
L 2597 488 
Q 2209 -75 1544 -75 
Q 1250 -75 995 37 
Q 741 150 617 320 
Q 494 491 444 738 
Q 409 903 409 1263 
L 409 3319 
L 972 3319 
L 972 1478 
Q 972 1038 1006 884 
Q 1059 663 1231 536 
Q 1403 409 1656 409 
Q 1909 409 2131 539 
Q 2353 669 2445 892 
Q 2538 1116 2538 1541 
L 2538 3319 
L 3100 3319 
L 3100 0 
L 2597 0 
z
" transform="scale(0.015625)"/>
       <path id="ArialMT-28" d="M 1497 -1347 
Q 1031 -759 709 28 
Q 388 816 388 1659 
Q 388 2403 628 3084 
Q 909 3875 1497 4659 
L 1900 4659 
Q 1522 4009 1400 3731 
Q 1209 3300 1100 2831 
Q 966 2247 966 1656 
Q 966 153 1900 -1347 
L 1497 -1347 
z
" transform="scale(0.015625)"/>
       <path id="ArialMT-29" d="M 791 -1347 
L 388 -1347 
Q 1322 153 1322 1656 
Q 1322 2244 1188 2822 
Q 1081 3291 891 3722 
Q 769 4003 388 4659 
L 791 4659 
Q 1378 3875 1659 3084 
Q 1900 2403 1900 1659 
Q 1900 816 1576 28 
Q 1253 -759 791 -1347 
z
" transform="scale(0.015625)"/>
      </defs>
      <use xlink:href="#ArialMT-54"/>
      <use xlink:href="#ArialMT-72" x="57.333984"/>
      <use xlink:href="#ArialMT-69" x="90.634766"/>
      <use xlink:href="#ArialMT-6d" x="112.851562"/>
      <use xlink:href="#ArialMT-6d" x="196.152344"/>
      <use xlink:href="#ArialMT-65" x="279.453125"/>
      <use xlink:href="#ArialMT-64" x="335.068359"/>
      <use xlink:href="#ArialMT-20" x="390.683594"/>
      <use xlink:href="#ArialMT-4d" x="418.466797"/>
      <use xlink:href="#ArialMT-65" x="501.767578"/>
      <use xlink:href="#ArialMT-61" x="557.382812"/>
      <use xlink:href="#ArialMT-6e" x="612.998047"/>
      <use xlink:href="#ArialMT-73" x="668.613281"/>
      <use xlink:href="#ArialMT-20" x="718.613281"/>
      <use xlink:href="#ArialMT-6f" x="746.396484"/>
      <use xlink:href="#ArialMT-66" x="802.011719"/>
      <use xlink:href="#ArialMT-20" x="829.794922"/>
      <use xlink:href="#ArialMT-4d" x="857.578125"/>
      <use xlink:href="#ArialMT-20" x="940.878906"/>
      <use xlink:href="#ArialMT-76" x="968.662109"/>
      <use xlink:href="#ArialMT-61" x="1018.662109"/>
      <use xlink:href="#ArialMT-6c" x="1074.277344"/>
      <use xlink:href="#ArialMT-75" x="1096.494141"/>
      <use xlink:href="#ArialMT-65" x="1152.109375"/>
      <use xlink:href="#ArialMT-73" x="1207.724609"/>
      <use xlink:href="#ArialMT-20" x="1257.724609"/>
      <use xlink:href="#ArialMT-28" x="1285.507812"/>
      <use xlink:href="#ArialMT-54" x="1318.808594"/>
      <use xlink:href="#ArialMT-4d" x="1379.892578"/>
      <use xlink:href="#ArialMT-4d" x="1463.193359"/>
      <use xlink:href="#ArialMT-29" x="1546.494141"/>
     </g>
    </g>
   </g>
   <g id="PolyCollection_1">
    <defs>
     <path id="m775474adb0" d="M 87.087884 -176.206019 
L 81.394433 -176.206019 
L 81.364051 -176.670412 
L 81.33615 -177.134805 
L 81.310734 -177.599198 
L 81.287798 -178.063591 
L 81.26732 -178.527984 
L 81.24927 -178.992377 
L 81.233603 -179.45677 
L 81.220264 -179.921163 
L 81.209186 -180.385556 
L 81.200292 -180.849949 
L 81.193495 -181.314342 
L 81.188696 -181.778735 
L 81.185791 -182.243128 
L 81.184667 -182.707521 
L 81.185203 -183.171914 
L 81.187271 -183.636307 
L 81.190741 -184.1007 
L 81.195475 -184.565093 
L 81.201335 -185.029486 
L 81.208178 -185.493879 
L 81.21586 -185.958272 
L 81.224238 -186.422665 
L 81.233168 -186.887058 
L 81.242508 -187.351451 
L 81.252119 -187.815844 
L 81.261864 -188.280237 
L 81.271611 -188.74463 
L 81.281232 -189.209023 
L 81.290607 -189.673416 
L 81.299618 -190.137808 
L 81.308159 -190.602201 
L 81.316129 -191.066594 
L 81.323434 -191.530987 
L 81.329992 -191.99538 
L 81.335727 -192.459773 
L 81.340573 -192.924166 
L 81.344476 -193.388559 
L 81.347389 -193.852952 
L 81.349276 -194.317345 
L 81.350112 -194.781738 
L 81.349882 -195.246131 
L 81.34858 -195.710524 
L 81.346211 -196.174917 
L 81.34279 -196.63931 
L 81.338342 -197.103703 
L 81.332901 -197.568096 
L 81.326509 -198.032489 
L 81.319221 -198.496882 
L 81.311096 -198.961275 
L 81.302202 -199.425668 
L 81.292618 -199.890061 
L 81.282426 -200.354454 
L 81.271716 -200.818847 
L 81.260586 -201.28324 
L 81.249136 -201.747633 
L 81.237473 -202.212026 
L 81.225709 -202.676419 
L 81.213957 -203.140812 
L 81.202336 -203.605205 
L 81.190964 -204.069598 
L 81.179964 -204.533991 
L 81.169456 -204.998384 
L 81.159565 -205.462776 
L 81.150411 -205.927169 
L 81.142116 -206.391562 
L 81.134799 -206.855955 
L 81.128577 -207.320348 
L 81.123563 -207.784741 
L 81.119868 -208.249134 
L 81.117596 -208.713527 
L 81.11685 -209.17792 
L 81.117723 -209.642313 
L 81.120307 -210.106706 
L 81.124684 -210.571099 
L 81.13093 -211.035492 
L 81.139114 -211.499885 
L 81.149298 -211.964278 
L 81.161535 -212.428671 
L 81.175871 -212.893064 
L 81.192341 -213.357457 
L 81.210975 -213.82185 
L 81.23179 -214.286243 
L 81.254798 -214.750636 
L 81.28 -215.215029 
L 81.307388 -215.679422 
L 81.336945 -216.143815 
L 81.368647 -216.608208 
L 81.402459 -217.072601 
L 81.438339 -217.536994 
L 81.476236 -218.001387 
L 81.516092 -218.46578 
L 81.557842 -218.930173 
L 81.601411 -219.394566 
L 81.64672 -219.858959 
L 81.693684 -220.323352 
L 81.742208 -220.787744 
L 81.792197 -221.252137 
L 81.843549 -221.71653 
L 81.896156 -222.180923 
L 86.586162 -222.180923 
L 86.586162 -222.180923 
L 86.638768 -221.71653 
L 86.69012 -221.252137 
L 86.740109 -220.787744 
L 86.788634 -220.323352 
L 86.835597 -219.858959 
L 86.880906 -219.394566 
L 86.924475 -218.930173 
L 86.966225 -218.46578 
L 87.006081 -218.001387 
L 87.043979 -217.536994 
L 87.079858 -217.072601 
L 87.11367 -216.608208 
L 87.145372 -216.143815 
L 87.174929 -215.679422 
L 87.202317 -215.215029 
L 87.227519 -214.750636 
L 87.250527 -214.286243 
L 87.271342 -213.82185 
L 87.289976 -213.357457 
L 87.306446 -212.893064 
L 87.320782 -212.428671 
L 87.333019 -211.964278 
L 87.343203 -211.499885 
L 87.351387 -211.035492 
L 87.357634 -210.571099 
L 87.36201 -210.106706 
L 87.364594 -209.642313 
L 87.365468 -209.17792 
L 87.364721 -208.713527 
L 87.362449 -208.249134 
L 87.358754 -207.784741 
L 87.35374 -207.320348 
L 87.347518 -206.855955 
L 87.340201 -206.391562 
L 87.331906 -205.927169 
L 87.322752 -205.462776 
L 87.312861 -204.998384 
L 87.302354 -204.533991 
L 87.291353 -204.069598 
L 87.279981 -203.605205 
L 87.26836 -203.140812 
L 87.256608 -202.676419 
L 87.244844 -202.212026 
L 87.233181 -201.747633 
L 87.221731 -201.28324 
L 87.210601 -200.818847 
L 87.199891 -200.354454 
L 87.189699 -199.890061 
L 87.180115 -199.425668 
L 87.171222 -198.961275 
L 87.163096 -198.496882 
L 87.155808 -198.032489 
L 87.149417 -197.568096 
L 87.143975 -197.103703 
L 87.139527 -196.63931 
L 87.136106 -196.174917 
L 87.133738 -195.710524 
L 87.132436 -195.246131 
L 87.132205 -194.781738 
L 87.133041 -194.317345 
L 87.134929 -193.852952 
L 87.137841 -193.388559 
L 87.141744 -192.924166 
L 87.146591 -192.459773 
L 87.152325 -191.99538 
L 87.158883 -191.530987 
L 87.166188 -191.066594 
L 87.174158 -190.602201 
L 87.182699 -190.137808 
L 87.191711 -189.673416 
L 87.201085 -189.209023 
L 87.210706 -188.74463 
L 87.220453 -188.280237 
L 87.230198 -187.815844 
L 87.239809 -187.351451 
L 87.249149 -186.887058 
L 87.258079 -186.422665 
L 87.266457 -185.958272 
L 87.27414 -185.493879 
L 87.280982 -185.029486 
L 87.286842 -184.565093 
L 87.291576 -184.1007 
L 87.295046 -183.636307 
L 87.297115 -183.171914 
L 87.29765 -182.707521 
L 87.296526 -182.243128 
L 87.293621 -181.778735 
L 87.288823 -181.314342 
L 87.282025 -180.849949 
L 87.273131 -180.385556 
L 87.262053 -179.921163 
L 87.248714 -179.45677 
L 87.233047 -178.992377 
L 87.214997 -178.527984 
L 87.194519 -178.063591 
L 87.171583 -177.599198 
L 87.146167 -177.134805 
L 87.118266 -176.670412 
L 87.087884 -176.206019 
z
" style="stroke: #999999; stroke-width: 2"/>
    </defs>
    <g clip-path="url(#pe7848c380c)">
     <use xlink:href="#m775474adb0" x="0" y="255.11811" style="fill: #ffffff; stroke: #999999; stroke-width: 2"/>
    </g>
   </g>
   <g id="PolyCollection_2">
    <defs>
     <path id="m552186c38a" d="M 164.796726 -64.565069 
L 131.770225 -64.565069 
L 131.412461 -64.65329 
L 131.070012 -64.74151 
L 130.743664 -64.829731 
L 130.434103 -64.917952 
L 130.14191 -65.006173 
L 129.867553 -65.094394 
L 129.61139 -65.182615 
L 129.373659 -65.270836 
L 129.154482 -65.359057 
L 128.953862 -65.447278 
L 128.771688 -65.535499 
L 128.60773 -65.62372 
L 128.461651 -65.711941 
L 128.333005 -65.800162 
L 128.221247 -65.888383 
L 128.125739 -65.976604 
L 128.045757 -66.064825 
L 127.9805 -66.153046 
L 127.9291 -66.241267 
L 127.890635 -66.329487 
L 127.864136 -66.417708 
L 127.8486 -66.505929 
L 127.843003 -66.59415 
L 127.84631 -66.682371 
L 127.857491 -66.770592 
L 127.875528 -66.858813 
L 127.899429 -66.947034 
L 127.92824 -67.035255 
L 127.961054 -67.123476 
L 127.997023 -67.211697 
L 128.035366 -67.299918 
L 128.075376 -67.388139 
L 128.11643 -67.47636 
L 128.157992 -67.564581 
L 128.19962 -67.652802 
L 128.240968 -67.741023 
L 128.281791 -67.829244 
L 128.321942 -67.917465 
L 128.361372 -68.005685 
L 128.400132 -68.093906 
L 128.438365 -68.182127 
L 128.476305 -68.270348 
L 128.514269 -68.358569 
L 128.552653 -68.44679 
L 128.591919 -68.535011 
L 128.632595 -68.623232 
L 128.675256 -68.711453 
L 128.720523 -68.799674 
L 128.769046 -68.887895 
L 128.821497 -68.976116 
L 128.878557 -69.064337 
L 128.940908 -69.152558 
L 129.009221 -69.240779 
L 129.084144 -69.329 
L 129.166296 -69.417221 
L 129.256257 -69.505442 
L 129.354555 -69.593663 
L 129.461667 -69.681883 
L 129.578006 -69.770104 
L 129.703916 -69.858325 
L 129.839672 -69.946546 
L 129.985473 -70.034767 
L 130.141441 -70.122988 
L 130.307619 -70.211209 
L 130.483976 -70.29943 
L 130.670402 -70.387651 
L 130.866713 -70.475872 
L 131.072658 -70.564093 
L 131.287917 -70.652314 
L 131.512111 -70.740535 
L 131.744807 -70.828756 
L 131.985521 -70.916977 
L 132.233731 -71.005198 
L 132.488879 -71.093419 
L 132.750379 -71.18164 
L 133.017628 -71.269861 
L 133.290011 -71.358081 
L 133.566905 -71.446302 
L 133.847694 -71.534523 
L 134.131766 -71.622744 
L 134.418529 -71.710965 
L 134.707406 -71.799186 
L 134.997849 -71.887407 
L 135.289337 -71.975628 
L 135.581381 -72.063849 
L 135.87353 -72.15207 
L 136.165367 -72.240291 
L 136.456514 -72.328512 
L 136.746633 -72.416733 
L 137.035423 -72.504954 
L 137.32262 -72.593175 
L 137.607995 -72.681396 
L 137.891355 -72.769617 
L 138.172535 -72.857838 
L 138.451399 -72.946059 
L 138.727838 -73.034279 
L 139.00176 -73.1225 
L 139.273095 -73.210721 
L 139.541785 -73.298942 
L 157.025166 -73.298942 
L 157.025166 -73.298942 
L 157.293856 -73.210721 
L 157.565191 -73.1225 
L 157.839114 -73.034279 
L 158.115553 -72.946059 
L 158.394417 -72.857838 
L 158.675597 -72.769617 
L 158.958956 -72.681396 
L 159.244332 -72.593175 
L 159.531528 -72.504954 
L 159.820318 -72.416733 
L 160.110437 -72.328512 
L 160.401585 -72.240291 
L 160.693422 -72.15207 
L 160.985571 -72.063849 
L 161.277615 -71.975628 
L 161.569103 -71.887407 
L 161.859545 -71.799186 
L 162.148423 -71.710965 
L 162.435185 -71.622744 
L 162.719258 -71.534523 
L 163.000047 -71.446302 
L 163.276941 -71.358081 
L 163.549323 -71.269861 
L 163.816572 -71.18164 
L 164.078073 -71.093419 
L 164.33322 -71.005198 
L 164.58143 -70.916977 
L 164.822145 -70.828756 
L 165.05484 -70.740535 
L 165.279035 -70.652314 
L 165.494294 -70.564093 
L 165.700238 -70.475872 
L 165.89655 -70.387651 
L 166.082975 -70.29943 
L 166.259332 -70.211209 
L 166.425511 -70.122988 
L 166.581479 -70.034767 
L 166.727279 -69.946546 
L 166.863035 -69.858325 
L 166.988946 -69.770104 
L 167.105284 -69.681883 
L 167.212396 -69.593663 
L 167.310695 -69.505442 
L 167.400655 -69.417221 
L 167.482808 -69.329 
L 167.557731 -69.240779 
L 167.626044 -69.152558 
L 167.688395 -69.064337 
L 167.745455 -68.976116 
L 167.797906 -68.887895 
L 167.846429 -68.799674 
L 167.891695 -68.711453 
L 167.934357 -68.623232 
L 167.975032 -68.535011 
L 168.014299 -68.44679 
L 168.052682 -68.358569 
L 168.090646 -68.270348 
L 168.128586 -68.182127 
L 168.16682 -68.093906 
L 168.20558 -68.005685 
L 168.24501 -67.917465 
L 168.28516 -67.829244 
L 168.325983 -67.741023 
L 168.367332 -67.652802 
L 168.40896 -67.564581 
L 168.450522 -67.47636 
L 168.491575 -67.388139 
L 168.531585 -67.299918 
L 168.569928 -67.211697 
L 168.605898 -67.123476 
L 168.638712 -67.035255 
L 168.667523 -66.947034 
L 168.691424 -66.858813 
L 168.70946 -66.770592 
L 168.720641 -66.682371 
L 168.723949 -66.59415 
L 168.718352 -66.505929 
L 168.702816 -66.417708 
L 168.676316 -66.329487 
L 168.637851 -66.241267 
L 168.586452 -66.153046 
L 168.521195 -66.064825 
L 168.441212 -65.976604 
L 168.345705 -65.888383 
L 168.233947 -65.800162 
L 168.105301 -65.711941 
L 167.959222 -65.62372 
L 167.795264 -65.535499 
L 167.613089 -65.447278 
L 167.41247 -65.359057 
L 167.193293 -65.270836 
L 166.955562 -65.182615 
L 166.699398 -65.094394 
L 166.425042 -65.006173 
L 166.132848 -64.917952 
L 165.823287 -64.829731 
L 165.49694 -64.74151 
L 165.154491 -64.65329 
L 164.796726 -64.565069 
z
" style="stroke: #999999; stroke-width: 2"/>
    </defs>
    <g clip-path="url(#pe7848c380c)">
     <use xlink:href="#m552186c38a" x="0" y="255.11811" style="fill: #ffffff; stroke: #999999; stroke-width: 2"/>
    </g>
   </g>
   <g id="PolyCollection_3">
    <defs>
     <path id="mf46c930633" d="M 215.92104 -64.104773 
L 208.730546 -64.104773 
L 208.684455 -64.247005 
L 208.640213 -64.389238 
L 208.597463 -64.53147 
L 208.555806 -64.673702 
L 208.514798 -64.815934 
L 208.473963 -64.958167 
L 208.432789 -65.100399 
L 208.390734 -65.242631 
L 208.347233 -65.384863 
L 208.301703 -65.527096 
L 208.253546 -65.669328 
L 208.202157 -65.81156 
L 208.146928 -65.953792 
L 208.08726 -66.096025 
L 208.022561 -66.238257 
L 207.952259 -66.380489 
L 207.875806 -66.522721 
L 207.792684 -66.664954 
L 207.702411 -66.807186 
L 207.604549 -66.949418 
L 207.498704 -67.09165 
L 207.384538 -67.233883 
L 207.261766 -67.376115 
L 207.130166 -67.518347 
L 206.989578 -67.66058 
L 206.839909 -67.802812 
L 206.681131 -67.945044 
L 206.513286 -68.087276 
L 206.336486 -68.229509 
L 206.15091 -68.371741 
L 205.956801 -68.513973 
L 205.754471 -68.656205 
L 205.544289 -68.798438 
L 205.326687 -68.94067 
L 205.102146 -69.082902 
L 204.871199 -69.225134 
L 204.63442 -69.367367 
L 204.392425 -69.509599 
L 204.145856 -69.651831 
L 203.895385 -69.794063 
L 203.6417 -69.936296 
L 203.385501 -70.078528 
L 203.127494 -70.22076 
L 202.868383 -70.362992 
L 202.608864 -70.505225 
L 202.349619 -70.647457 
L 202.091313 -70.789689 
L 201.834582 -70.931921 
L 201.580038 -71.074154 
L 201.328257 -71.216386 
L 201.07978 -71.358618 
L 200.83511 -71.50085 
L 200.594709 -71.643083 
L 200.359001 -71.785315 
L 200.128367 -71.927547 
L 199.903148 -72.069779 
L 199.68365 -72.212012 
L 199.470142 -72.354244 
L 199.262858 -72.496476 
L 199.062007 -72.638708 
L 198.867771 -72.780941 
L 198.680315 -72.923173 
L 198.499785 -73.065405 
L 198.32632 -73.207637 
L 198.160055 -73.34987 
L 198.001126 -73.492102 
L 197.849673 -73.634334 
L 197.70585 -73.776567 
L 197.569825 -73.918799 
L 197.441787 -74.061031 
L 197.321948 -74.203263 
L 197.210545 -74.345496 
L 197.107845 -74.487728 
L 197.014142 -74.62996 
L 196.929764 -74.772192 
L 196.855064 -74.914425 
L 196.790424 -75.056657 
L 196.736253 -75.198889 
L 196.692979 -75.341121 
L 196.661052 -75.483354 
L 196.640931 -75.625586 
L 196.633085 -75.767818 
L 196.637983 -75.91005 
L 196.656088 -76.052283 
L 196.68785 -76.194515 
L 196.7337 -76.336747 
L 196.794037 -76.478979 
L 196.869228 -76.621212 
L 196.959594 -76.763444 
L 197.065404 -76.905676 
L 197.186873 -77.047908 
L 197.324146 -77.190141 
L 197.477302 -77.332373 
L 197.646342 -77.474605 
L 197.831188 -77.616837 
L 198.031679 -77.75907 
L 198.247569 -77.901302 
L 198.478523 -78.043534 
L 198.724121 -78.185766 
L 225.927465 -78.185766 
L 225.927465 -78.185766 
L 226.173063 -78.043534 
L 226.404017 -77.901302 
L 226.619907 -77.75907 
L 226.820398 -77.616837 
L 227.005244 -77.474605 
L 227.174284 -77.332373 
L 227.32744 -77.190141 
L 227.464713 -77.047908 
L 227.586182 -76.905676 
L 227.691992 -76.763444 
L 227.782358 -76.621212 
L 227.857549 -76.478979 
L 227.917886 -76.336747 
L 227.963736 -76.194515 
L 227.995498 -76.052283 
L 228.013603 -75.91005 
L 228.018501 -75.767818 
L 228.010655 -75.625586 
L 227.990534 -75.483354 
L 227.958607 -75.341121 
L 227.915334 -75.198889 
L 227.861162 -75.056657 
L 227.796522 -74.914425 
L 227.721822 -74.772192 
L 227.637444 -74.62996 
L 227.543741 -74.487728 
L 227.441041 -74.345496 
L 227.329638 -74.203263 
L 227.209799 -74.061031 
L 227.081761 -73.918799 
L 226.945736 -73.776567 
L 226.801913 -73.634334 
L 226.65046 -73.492102 
L 226.491531 -73.34987 
L 226.325266 -73.207637 
L 226.151801 -73.065405 
L 225.971271 -72.923173 
L 225.783815 -72.780941 
L 225.589579 -72.638708 
L 225.388728 -72.496476 
L 225.181445 -72.354244 
L 224.967936 -72.212012 
L 224.748438 -72.069779 
L 224.523219 -71.927547 
L 224.292585 -71.785315 
L 224.056877 -71.643083 
L 223.816476 -71.50085 
L 223.571806 -71.358618 
L 223.323329 -71.216386 
L 223.071548 -71.074154 
L 222.817004 -70.931921 
L 222.560273 -70.789689 
L 222.301967 -70.647457 
L 222.042722 -70.505225 
L 221.783203 -70.362992 
L 221.524092 -70.22076 
L 221.266085 -70.078528 
L 221.009886 -69.936296 
L 220.756201 -69.794063 
L 220.50573 -69.651831 
L 220.259161 -69.509599 
L 220.017166 -69.367367 
L 219.780388 -69.225134 
L 219.54944 -69.082902 
L 219.324899 -68.94067 
L 219.107297 -68.798438 
L 218.897115 -68.656205 
L 218.694785 -68.513973 
L 218.500676 -68.371741 
L 218.3151 -68.229509 
L 218.1383 -68.087276 
L 217.970455 -67.945044 
L 217.811677 -67.802812 
L 217.662008 -67.66058 
L 217.52142 -67.518347 
L 217.38982 -67.376115 
L 217.267048 -67.233883 
L 217.152882 -67.09165 
L 217.047037 -66.949418 
L 216.949175 -66.807186 
L 216.858903 -66.664954 
L 216.77578 -66.522721 
L 216.699327 -66.380489 
L 216.629025 -66.238257 
L 216.564326 -66.096025 
L 216.504658 -65.953792 
L 216.449429 -65.81156 
L 216.39804 -65.669328 
L 216.349883 -65.527096 
L 216.304353 -65.384863 
L 216.260852 -65.242631 
L 216.218798 -65.100399 
L 216.177623 -64.958167 
L 216.136788 -64.815934 
L 216.09578 -64.673702 
L 216.054123 -64.53147 
L 216.011373 -64.389238 
L 215.967131 -64.247005 
L 215.92104 -64.104773 
z
" style="stroke: #999999; stroke-width: 2"/>
    </defs>
    <g clip-path="url(#pe7848c380c)">
     <use xlink:href="#mf46c930633" x="0" y="255.11811" style="fill: #ffffff; stroke: #999999; stroke-width: 2"/>
    </g>
   </g>
   <g id="PolyCollection_4">
    <defs>
     <path id="m2d4db13720" d="M 277.662625 -107.047406 
L 275.073595 -107.047406 
L 275.025774 -107.975534 
L 274.978058 -108.903663 
L 274.930591 -109.831791 
L 274.883524 -110.759919 
L 274.837011 -111.688047 
L 274.79121 -112.616176 
L 274.746281 -113.544304 
L 274.702389 -114.472432 
L 274.659696 -115.40056 
L 274.618365 -116.328688 
L 274.578559 -117.256817 
L 274.540435 -118.184945 
L 274.504148 -119.113073 
L 274.469848 -120.041201 
L 274.437677 -120.969329 
L 274.407768 -121.897458 
L 274.380246 -122.825586 
L 274.355227 -123.753714 
L 274.332811 -124.681842 
L 274.313088 -125.609971 
L 274.296133 -126.538099 
L 274.282006 -127.466227 
L 274.27075 -128.394355 
L 274.262394 -129.322483 
L 274.256945 -130.250612 
L 274.254398 -131.17874 
L 274.254725 -132.106868 
L 274.257883 -133.034996 
L 274.26381 -133.963124 
L 274.272425 -134.891253 
L 274.283632 -135.819381 
L 274.297315 -136.747509 
L 274.313345 -137.675637 
L 274.331575 -138.603766 
L 274.351848 -139.531894 
L 274.373989 -140.460022 
L 274.397816 -141.38815 
L 274.423135 -142.316278 
L 274.449744 -143.244407 
L 274.477434 -144.172535 
L 274.505993 -145.100663 
L 274.535203 -146.028791 
L 274.564848 -146.956919 
L 274.59471 -147.885048 
L 274.624577 -148.813176 
L 274.654238 -149.741304 
L 274.68349 -150.669432 
L 274.712139 -151.597561 
L 274.739998 -152.525689 
L 274.766894 -153.453817 
L 274.792664 -154.381945 
L 274.817162 -155.310073 
L 274.840255 -156.238202 
L 274.861826 -157.16633 
L 274.881776 -158.094458 
L 274.900023 -159.022586 
L 274.916503 -159.950714 
L 274.931172 -160.878843 
L 274.944001 -161.806971 
L 274.954984 -162.735099 
L 274.964131 -163.663227 
L 274.97147 -164.591356 
L 274.977046 -165.519484 
L 274.980923 -166.447612 
L 274.983178 -167.37574 
L 274.983906 -168.303868 
L 274.983214 -169.231997 
L 274.981222 -170.160125 
L 274.978062 -171.088253 
L 274.973876 -172.016381 
L 274.968814 -172.944509 
L 274.963035 -173.872638 
L 274.956701 -174.800766 
L 274.949981 -175.728894 
L 274.943045 -176.657022 
L 274.936064 -177.585151 
L 274.929209 -178.513279 
L 274.922648 -179.441407 
L 274.916548 -180.369535 
L 274.911069 -181.297663 
L 274.906365 -182.225792 
L 274.902585 -183.15392 
L 274.899866 -184.082048 
L 274.898338 -185.010176 
L 274.89812 -185.938304 
L 274.899318 -186.866433 
L 274.90203 -187.794561 
L 274.906336 -188.722689 
L 274.912307 -189.650817 
L 274.919999 -190.578946 
L 274.929454 -191.507074 
L 274.940701 -192.435202 
L 274.953755 -193.36333 
L 274.968617 -194.291458 
L 274.985275 -195.219587 
L 275.003704 -196.147715 
L 275.023867 -197.075843 
L 275.045714 -198.003971 
L 275.069185 -198.932099 
L 277.667036 -198.932099 
L 277.667036 -198.932099 
L 277.690506 -198.003971 
L 277.712353 -197.075843 
L 277.732516 -196.147715 
L 277.750946 -195.219587 
L 277.767604 -194.291458 
L 277.782466 -193.36333 
L 277.79552 -192.435202 
L 277.806767 -191.507074 
L 277.816222 -190.578946 
L 277.823914 -189.650817 
L 277.829885 -188.722689 
L 277.834191 -187.794561 
L 277.836902 -186.866433 
L 277.838101 -185.938304 
L 277.837882 -185.010176 
L 277.836354 -184.082048 
L 277.833636 -183.15392 
L 277.829855 -182.225792 
L 277.825152 -181.297663 
L 277.819673 -180.369535 
L 277.813572 -179.441407 
L 277.807012 -178.513279 
L 277.800157 -177.585151 
L 277.793175 -176.657022 
L 277.786239 -175.728894 
L 277.779519 -174.800766 
L 277.773186 -173.872638 
L 277.767406 -172.944509 
L 277.762345 -172.016381 
L 277.758159 -171.088253 
L 277.754999 -170.160125 
L 277.753007 -169.231997 
L 277.752314 -168.303868 
L 277.753042 -167.37574 
L 277.755298 -166.447612 
L 277.759174 -165.519484 
L 277.764751 -164.591356 
L 277.772089 -163.663227 
L 277.781236 -162.735099 
L 277.792219 -161.806971 
L 277.805049 -160.878843 
L 277.819717 -159.950714 
L 277.836198 -159.022586 
L 277.854445 -158.094458 
L 277.874394 -157.16633 
L 277.895965 -156.238202 
L 277.919058 -155.310073 
L 277.943556 -154.381945 
L 277.969327 -153.453817 
L 277.996223 -152.525689 
L 278.024082 -151.597561 
L 278.05273 -150.669432 
L 278.081983 -149.741304 
L 278.111644 -148.813176 
L 278.14151 -147.885048 
L 278.171373 -146.956919 
L 278.201018 -146.028791 
L 278.230228 -145.100663 
L 278.258786 -144.172535 
L 278.286476 -143.244407 
L 278.313085 -142.316278 
L 278.338404 -141.38815 
L 278.362231 -140.460022 
L 278.384373 -139.531894 
L 278.404645 -138.603766 
L 278.422876 -137.675637 
L 278.438906 -136.747509 
L 278.452589 -135.819381 
L 278.463795 -134.891253 
L 278.47241 -133.963124 
L 278.478337 -133.034996 
L 278.481495 -132.106868 
L 278.481822 -131.17874 
L 278.479275 -130.250612 
L 278.473827 -129.322483 
L 278.46547 -128.394355 
L 278.454214 -127.466227 
L 278.440087 -126.538099 
L 278.423132 -125.609971 
L 278.403409 -124.681842 
L 278.380994 -123.753714 
L 278.355974 -122.825586 
L 278.328453 -121.897458 
L 278.298544 -120.969329 
L 278.266372 -120.041201 
L 278.232072 -119.113073 
L 278.195785 -118.184945 
L 278.157662 -117.256817 
L 278.117855 -116.328688 
L 278.076525 -115.40056 
L 278.033831 -114.472432 
L 277.989939 -113.544304 
L 277.945011 -112.616176 
L 277.89921 -111.688047 
L 277.852696 -110.759919 
L 277.805629 -109.831791 
L 277.758162 -108.903663 
L 277.710446 -107.975534 
L 277.662625 -107.047406 
z
" style="stroke: #999999; stroke-width: 2"/>
    </defs>
    <g clip-path="url(#pe7848c380c)">
     <use xlink:href="#m2d4db13720" x="0" y="255.11811" style="fill: #ffffff; stroke: #999999; stroke-width: 2"/>
    </g>
   </g>
   <g id="PolyCollection_5">
    <defs>
     <path id="m1ac7a76ac5" d="M 360.825395 -49.837187 
L 319.99546 -49.837187 
L 319.550995 -49.923803 
L 319.120405 -50.010419 
L 318.704798 -50.097035 
L 318.305254 -50.18365 
L 317.922817 -50.270266 
L 317.558494 -50.356882 
L 317.21325 -50.443498 
L 316.888003 -50.530114 
L 316.583621 -50.61673 
L 316.30092 -50.703346 
L 316.04066 -50.789962 
L 315.803541 -50.876578 
L 315.590202 -50.963194 
L 315.401213 -51.049809 
L 315.237082 -51.136425 
L 315.098242 -51.223041 
L 314.985057 -51.309657 
L 314.897817 -51.396273 
L 314.836733 -51.482889 
L 314.801942 -51.569505 
L 314.793501 -51.656121 
L 314.811387 -51.742737 
L 314.855499 -51.829353 
L 314.925653 -51.915969 
L 315.021584 -52.002584 
L 315.142947 -52.0892 
L 315.289318 -52.175816 
L 315.46019 -52.262432 
L 315.654982 -52.349048 
L 315.873032 -52.435664 
L 316.113605 -52.52228 
L 316.375892 -52.608896 
L 316.659016 -52.695512 
L 316.962029 -52.782128 
L 317.28392 -52.868743 
L 317.62362 -52.955359 
L 317.98 -53.041975 
L 318.351882 -53.128591 
L 318.738037 -53.215207 
L 319.137197 -53.301823 
L 319.548056 -53.388439 
L 319.969276 -53.475055 
L 320.399494 -53.561671 
L 320.83733 -53.648287 
L 321.281387 -53.734903 
L 321.730266 -53.821518 
L 322.182564 -53.908134 
L 322.636889 -53.99475 
L 323.09186 -54.081366 
L 323.546117 -54.167982 
L 323.998328 -54.254598 
L 324.447194 -54.341214 
L 324.891456 -54.42783 
L 325.329903 -54.514446 
L 325.761375 -54.601062 
L 326.18477 -54.687677 
L 326.599051 -54.774293 
L 327.003248 -54.860909 
L 327.396465 -54.947525 
L 327.777883 -55.034141 
L 328.146766 -55.120757 
L 328.502459 -55.207373 
L 328.844396 -55.293989 
L 329.172099 -55.380605 
L 329.485181 -55.467221 
L 329.783347 -55.553837 
L 330.066391 -55.640452 
L 330.334201 -55.727068 
L 330.586753 -55.813684 
L 330.824113 -55.9003 
L 331.046434 -55.986916 
L 331.253952 -56.073532 
L 331.446983 -56.160148 
L 331.625921 -56.246764 
L 331.791233 -56.33338 
L 331.943452 -56.419996 
L 332.083176 -56.506611 
L 332.211058 -56.593227 
L 332.327804 -56.679843 
L 332.434164 -56.766459 
L 332.530927 -56.853075 
L 332.618914 -56.939691 
L 332.698972 -57.026307 
L 332.771967 -57.112923 
L 332.838776 -57.199539 
L 332.900281 -57.286155 
L 332.957364 -57.37277 
L 333.010897 -57.459386 
L 333.06174 -57.546002 
L 333.110731 -57.632618 
L 333.158682 -57.719234 
L 333.206374 -57.80585 
L 333.254553 -57.892466 
L 333.303921 -57.979082 
L 333.355136 -58.065698 
L 333.408809 -58.152314 
L 333.465495 -58.23893 
L 333.525697 -58.325545 
L 333.589861 -58.412161 
L 347.230994 -58.412161 
L 347.230994 -58.412161 
L 347.295158 -58.325545 
L 347.35536 -58.23893 
L 347.412046 -58.152314 
L 347.465719 -58.065698 
L 347.516934 -57.979082 
L 347.566302 -57.892466 
L 347.614481 -57.80585 
L 347.662173 -57.719234 
L 347.710124 -57.632618 
L 347.759115 -57.546002 
L 347.809958 -57.459386 
L 347.863491 -57.37277 
L 347.920574 -57.286155 
L 347.982079 -57.199539 
L 348.048888 -57.112923 
L 348.121882 -57.026307 
L 348.201941 -56.939691 
L 348.289928 -56.853075 
L 348.386691 -56.766459 
L 348.493051 -56.679843 
L 348.609797 -56.593227 
L 348.737679 -56.506611 
L 348.877403 -56.419996 
L 349.029622 -56.33338 
L 349.194934 -56.246764 
L 349.373872 -56.160148 
L 349.566903 -56.073532 
L 349.774421 -55.986916 
L 349.996742 -55.9003 
L 350.234102 -55.813684 
L 350.486654 -55.727068 
L 350.754464 -55.640452 
L 351.037508 -55.553837 
L 351.335674 -55.467221 
L 351.648756 -55.380605 
L 351.976459 -55.293989 
L 352.318396 -55.207373 
L 352.674089 -55.120757 
L 353.042972 -55.034141 
L 353.42439 -54.947525 
L 353.817607 -54.860909 
L 354.221804 -54.774293 
L 354.636085 -54.687677 
L 355.05948 -54.601062 
L 355.490952 -54.514446 
L 355.929399 -54.42783 
L 356.373661 -54.341214 
L 356.822527 -54.254598 
L 357.274738 -54.167982 
L 357.728995 -54.081366 
L 358.183966 -53.99475 
L 358.638291 -53.908134 
L 359.090589 -53.821518 
L 359.539467 -53.734903 
L 359.983525 -53.648287 
L 360.42136 -53.561671 
L 360.851579 -53.475055 
L 361.272799 -53.388439 
L 361.683658 -53.301823 
L 362.082818 -53.215207 
L 362.468973 -53.128591 
L 362.840854 -53.041975 
L 363.197235 -52.955359 
L 363.536934 -52.868743 
L 363.858826 -52.782128 
L 364.161839 -52.695512 
L 364.444962 -52.608896 
L 364.70725 -52.52228 
L 364.947823 -52.435664 
L 365.165873 -52.349048 
L 365.360665 -52.262432 
L 365.531537 -52.175816 
L 365.677908 -52.0892 
L 365.799271 -52.002584 
L 365.895202 -51.915969 
L 365.965356 -51.829353 
L 366.009468 -51.742737 
L 366.027354 -51.656121 
L 366.018913 -51.569505 
L 365.984122 -51.482889 
L 365.923038 -51.396273 
L 365.835798 -51.309657 
L 365.722613 -51.223041 
L 365.583773 -51.136425 
L 365.419642 -51.049809 
L 365.230653 -50.963194 
L 365.017313 -50.876578 
L 364.780195 -50.789962 
L 364.519935 -50.703346 
L 364.237234 -50.61673 
L 363.932852 -50.530114 
L 363.607605 -50.443498 
L 363.26236 -50.356882 
L 362.898038 -50.270266 
L 362.515601 -50.18365 
L 362.116057 -50.097035 
L 361.70045 -50.010419 
L 361.269859 -49.923803 
L 360.825395 -49.837187 
z
" style="stroke: #999999; stroke-width: 2"/>
    </defs>
    <g clip-path="url(#pe7848c380c)">
     <use xlink:href="#m1ac7a76ac5" x="0" y="255.11811" style="fill: #ffffff; stroke: #999999; stroke-width: 2"/>
    </g>
   </g>
   <g id="PolyCollection_6">
    <defs>
     <path id="m0a36893109" d="M 407.211026 -89.390836 
L 401.694463 -89.390836 
L 401.659657 -89.853202 
L 401.627405 -90.315568 
L 401.597782 -90.777934 
L 401.570857 -91.240299 
L 401.546683 -91.702665 
L 401.525307 -92.165031 
L 401.50676 -92.627397 
L 401.491064 -93.089763 
L 401.478227 -93.552128 
L 401.468244 -94.014494 
L 401.4611 -94.47686 
L 401.456766 -94.939226 
L 401.455198 -95.401591 
L 401.456343 -95.863957 
L 401.460133 -96.326323 
L 401.46649 -96.788689 
L 401.475322 -97.251054 
L 401.486526 -97.71342 
L 401.49999 -98.175786 
L 401.515589 -98.638152 
L 401.533188 -99.100517 
L 401.552646 -99.562883 
L 401.573809 -100.025249 
L 401.596519 -100.487615 
L 401.62061 -100.94998 
L 401.645908 -101.412346 
L 401.672237 -101.874712 
L 401.699414 -102.337078 
L 401.727256 -102.799443 
L 401.755575 -103.261809 
L 401.784183 -103.724175 
L 401.812893 -104.186541 
L 401.841516 -104.648906 
L 401.869868 -105.111272 
L 401.897767 -105.573638 
L 401.925034 -106.036004 
L 401.951496 -106.498369 
L 401.976986 -106.960735 
L 402.001345 -107.423101 
L 402.024419 -107.885467 
L 402.046064 -108.347832 
L 402.066148 -108.810198 
L 402.084544 -109.272564 
L 402.101141 -109.73493 
L 402.115837 -110.197295 
L 402.128543 -110.659661 
L 402.139181 -111.122027 
L 402.147687 -111.584393 
L 402.154012 -112.046758 
L 402.158119 -112.509124 
L 402.159984 -112.97149 
L 402.159599 -113.433856 
L 402.156969 -113.896221 
L 402.152112 -114.358587 
L 402.145063 -114.820953 
L 402.135866 -115.283319 
L 402.124584 -115.745684 
L 402.111287 -116.20805 
L 402.096063 -116.670416 
L 402.079009 -117.132782 
L 402.060233 -117.595147 
L 402.039858 -118.057513 
L 402.018013 -118.519879 
L 401.994838 -118.982245 
L 401.970482 -119.44461 
L 401.945103 -119.906976 
L 401.918863 -120.369342 
L 401.891933 -120.831708 
L 401.864489 -121.294073 
L 401.836709 -121.756439 
L 401.808776 -122.218805 
L 401.780874 -122.681171 
L 401.75319 -123.143536 
L 401.72591 -123.605902 
L 401.699219 -124.068268 
L 401.6733 -124.530634 
L 401.648334 -124.992999 
L 401.624497 -125.455365 
L 401.601962 -125.917731 
L 401.580895 -126.380097 
L 401.561455 -126.842462 
L 401.543795 -127.304828 
L 401.528059 -127.767194 
L 401.514384 -128.22956 
L 401.502893 -128.691925 
L 401.493705 -129.154291 
L 401.486922 -129.616657 
L 401.482641 -130.079023 
L 401.480942 -130.541388 
L 401.481897 -131.003754 
L 401.485564 -131.46612 
L 401.491989 -131.928486 
L 401.501205 -132.390851 
L 401.513235 -132.853217 
L 401.528086 -133.315583 
L 401.545755 -133.777949 
L 401.566226 -134.240314 
L 401.589471 -134.70268 
L 401.615452 -135.165046 
L 407.290038 -135.165046 
L 407.290038 -135.165046 
L 407.316018 -134.70268 
L 407.339263 -134.240314 
L 407.359735 -133.777949 
L 407.377404 -133.315583 
L 407.392255 -132.853217 
L 407.404284 -132.390851 
L 407.413501 -131.928486 
L 407.419926 -131.46612 
L 407.423592 -131.003754 
L 407.424547 -130.541388 
L 407.422849 -130.079023 
L 407.418567 -129.616657 
L 407.411785 -129.154291 
L 407.402596 -128.691925 
L 407.391106 -128.22956 
L 407.37743 -127.767194 
L 407.361694 -127.304828 
L 407.344035 -126.842462 
L 407.324595 -126.380097 
L 407.303527 -125.917731 
L 407.280992 -125.455365 
L 407.257156 -124.992999 
L 407.23219 -124.530634 
L 407.206271 -124.068268 
L 407.179579 -123.605902 
L 407.152299 -123.143536 
L 407.124615 -122.681171 
L 407.096714 -122.218805 
L 407.068781 -121.756439 
L 407.041 -121.294073 
L 407.013556 -120.831708 
L 406.986626 -120.369342 
L 406.960387 -119.906976 
L 406.935007 -119.44461 
L 406.910652 -118.982245 
L 406.887477 -118.519879 
L 406.865631 -118.057513 
L 406.845256 -117.595147 
L 406.826481 -117.132782 
L 406.809426 -116.670416 
L 406.794202 -116.20805 
L 406.780906 -115.745684 
L 406.769623 -115.283319 
L 406.760427 -114.820953 
L 406.753377 -114.358587 
L 406.748521 -113.896221 
L 406.74589 -113.433856 
L 406.745505 -112.97149 
L 406.747371 -112.509124 
L 406.751477 -112.046758 
L 406.757802 -111.584393 
L 406.766309 -111.122027 
L 406.776947 -110.659661 
L 406.789652 -110.197295 
L 406.804348 -109.73493 
L 406.820945 -109.272564 
L 406.839342 -108.810198 
L 406.859425 -108.347832 
L 406.881071 -107.885467 
L 406.904145 -107.423101 
L 406.928503 -106.960735 
L 406.953993 -106.498369 
L 406.980456 -106.036004 
L 407.007723 -105.573638 
L 407.035621 -105.111272 
L 407.063973 -104.648906 
L 407.092596 -104.186541 
L 407.121306 -103.724175 
L 407.149914 -103.261809 
L 407.178233 -102.799443 
L 407.206075 -102.337078 
L 407.233253 -101.874712 
L 407.259581 -101.412346 
L 407.28488 -100.94998 
L 407.30897 -100.487615 
L 407.33168 -100.025249 
L 407.352844 -99.562883 
L 407.372301 -99.100517 
L 407.389901 -98.638152 
L 407.405499 -98.175786 
L 407.418963 -97.71342 
L 407.430168 -97.251054 
L 407.438999 -96.788689 
L 407.445356 -96.326323 
L 407.449147 -95.863957 
L 407.450291 -95.401591 
L 407.448724 -94.939226 
L 407.444389 -94.47686 
L 407.437245 -94.014494 
L 407.427263 -93.552128 
L 407.414425 -93.089763 
L 407.398729 -92.627397 
L 407.380182 -92.165031 
L 407.358806 -91.702665 
L 407.334633 -91.240299 
L 407.307707 -90.777934 
L 407.278085 -90.315568 
L 407.245832 -89.853202 
L 407.211026 -89.390836 
z
" style="stroke: #999999; stroke-width: 2"/>
    </defs>
    <g clip-path="url(#pe7848c380c)">
     <use xlink:href="#m0a36893109" x="0" y="255.11811" style="fill: #ffffff; stroke: #999999; stroke-width: 2"/>
    </g>
   </g>
   <g id="PolyCollection_7">
    <defs>
     <path id="ma3a3a1d4f0" d="M 473.924064 -76.937697 
L 463.06606 -76.937697 
L 462.973812 -77.066716 
L 462.886937 -77.195735 
L 462.805585 -77.324754 
L 462.729871 -77.453773 
L 462.659872 -77.582791 
L 462.59562 -77.71181 
L 462.537107 -77.840829 
L 462.484278 -77.969848 
L 462.437034 -78.098866 
L 462.395224 -78.227885 
L 462.358654 -78.356904 
L 462.327077 -78.485923 
L 462.300198 -78.614941 
L 462.277674 -78.74396 
L 462.25911 -78.872979 
L 462.244065 -79.001998 
L 462.232049 -79.131017 
L 462.222528 -79.260035 
L 462.214922 -79.389054 
L 462.208611 -79.518073 
L 462.202933 -79.647092 
L 462.197193 -79.77611 
L 462.190659 -79.905129 
L 462.182574 -80.034148 
L 462.172153 -80.163167 
L 462.158592 -80.292185 
L 462.14107 -80.421204 
L 462.118757 -80.550223 
L 462.090818 -80.679242 
L 462.056419 -80.808261 
L 462.014734 -80.937279 
L 461.96495 -81.066298 
L 461.906273 -81.195317 
L 461.837939 -81.324336 
L 461.759215 -81.453354 
L 461.66941 -81.582373 
L 461.56788 -81.711392 
L 461.454037 -81.840411 
L 461.327351 -81.969429 
L 461.187361 -82.098448 
L 461.033678 -82.227467 
L 460.865995 -82.356486 
L 460.684088 -82.485505 
L 460.487821 -82.614523 
L 460.277156 -82.743542 
L 460.052149 -82.872561 
L 459.812961 -83.00158 
L 459.559854 -83.130598 
L 459.293197 -83.259617 
L 459.013465 -83.388636 
L 458.721241 -83.517655 
L 458.417213 -83.646673 
L 458.102174 -83.775692 
L 457.777021 -83.904711 
L 457.442747 -84.03373 
L 457.100445 -84.162749 
L 456.751293 -84.291767 
L 456.396556 -84.420786 
L 456.037577 -84.549805 
L 455.675768 -84.678824 
L 455.312606 -84.807842 
L 454.949618 -84.936861 
L 454.588377 -85.06588 
L 454.230492 -85.194899 
L 453.877594 -85.323917 
L 453.531328 -85.452936 
L 453.193342 -85.581955 
L 452.865277 -85.710974 
L 452.548753 -85.839993 
L 452.24536 -85.969011 
L 451.956647 -86.09803 
L 451.684111 -86.227049 
L 451.429184 -86.356068 
L 451.19323 -86.485086 
L 450.977529 -86.614105 
L 450.783268 -86.743124 
L 450.611539 -86.872143 
L 450.463324 -87.001161 
L 450.339494 -87.13018 
L 450.240801 -87.259199 
L 450.167873 -87.388218 
L 450.12121 -87.517237 
L 450.101181 -87.646255 
L 450.108024 -87.775274 
L 450.141842 -87.904293 
L 450.202606 -88.033312 
L 450.290153 -88.16233 
L 450.404193 -88.291349 
L 450.544305 -88.420368 
L 450.709948 -88.549387 
L 450.900461 -88.678405 
L 451.115072 -88.807424 
L 451.3529 -88.936443 
L 451.612969 -89.065462 
L 451.894207 -89.194481 
L 452.195462 -89.323499 
L 452.515507 -89.452518 
L 452.853047 -89.581537 
L 453.206734 -89.710556 
L 483.78339 -89.710556 
L 483.78339 -89.710556 
L 484.137077 -89.581537 
L 484.474617 -89.452518 
L 484.794661 -89.323499 
L 485.095917 -89.194481 
L 485.377155 -89.065462 
L 485.637223 -88.936443 
L 485.875052 -88.807424 
L 486.089663 -88.678405 
L 486.280176 -88.549387 
L 486.445819 -88.420368 
L 486.585931 -88.291349 
L 486.69997 -88.16233 
L 486.787518 -88.033312 
L 486.848282 -87.904293 
L 486.8821 -87.775274 
L 486.888942 -87.646255 
L 486.868914 -87.517237 
L 486.82225 -87.388218 
L 486.749322 -87.259199 
L 486.65063 -87.13018 
L 486.5268 -87.001161 
L 486.378585 -86.872143 
L 486.206856 -86.743124 
L 486.012595 -86.614105 
L 485.796893 -86.485086 
L 485.560939 -86.356068 
L 485.306013 -86.227049 
L 485.033476 -86.09803 
L 484.744763 -85.969011 
L 484.44137 -85.839993 
L 484.124846 -85.710974 
L 483.796781 -85.581955 
L 483.458796 -85.452936 
L 483.11253 -85.323917 
L 482.759632 -85.194899 
L 482.401746 -85.06588 
L 482.040506 -84.936861 
L 481.677518 -84.807842 
L 481.314355 -84.678824 
L 480.952547 -84.549805 
L 480.593568 -84.420786 
L 480.238831 -84.291767 
L 479.889679 -84.162749 
L 479.547376 -84.03373 
L 479.213103 -83.904711 
L 478.88795 -83.775692 
L 478.572911 -83.646673 
L 478.268883 -83.517655 
L 477.976658 -83.388636 
L 477.696927 -83.259617 
L 477.43027 -83.130598 
L 477.177163 -83.00158 
L 476.937974 -82.872561 
L 476.712968 -82.743542 
L 476.502302 -82.614523 
L 476.306036 -82.485505 
L 476.124128 -82.356486 
L 475.956445 -82.227467 
L 475.802763 -82.098448 
L 475.662773 -81.969429 
L 475.536087 -81.840411 
L 475.422243 -81.711392 
L 475.320714 -81.582373 
L 475.230909 -81.453354 
L 475.152185 -81.324336 
L 475.083851 -81.195317 
L 475.025174 -81.066298 
L 474.975389 -80.937279 
L 474.933704 -80.808261 
L 474.899306 -80.679242 
L 474.871367 -80.550223 
L 474.849054 -80.421204 
L 474.831532 -80.292185 
L 474.817971 -80.163167 
L 474.80755 -80.034148 
L 474.799465 -79.905129 
L 474.792931 -79.77611 
L 474.787191 -79.647092 
L 474.781513 -79.518073 
L 474.775202 -79.389054 
L 474.767596 -79.260035 
L 474.758075 -79.131017 
L 474.746059 -79.001998 
L 474.731014 -78.872979 
L 474.71245 -78.74396 
L 474.689925 -78.614941 
L 474.663047 -78.485923 
L 474.63147 -78.356904 
L 474.5949 -78.227885 
L 474.55309 -78.098866 
L 474.505845 -77.969848 
L 474.453017 -77.840829 
L 474.394504 -77.71181 
L 474.330252 -77.582791 
L 474.260252 -77.453773 
L 474.184539 -77.324754 
L 474.103187 -77.195735 
L 474.016311 -77.066716 
L 473.924064 -76.937697 
z
" style="stroke: #999999; stroke-width: 2"/>
    </defs>
    <g clip-path="url(#pe7848c380c)">
     <use xlink:href="#ma3a3a1d4f0" x="0" y="255.11811" style="fill: #ffffff; stroke: #999999; stroke-width: 2"/>
    </g>
   </g>
   <g id="PathCollection_1"/>
   <g id="PathCollection_2"/>
   <g id="patch_3">
    <path d="M 52.22 213.89811 
L 52.22 24.32 
" style="fill: none; stroke: #262626; stroke-width: 1.25; stroke-linejoin: miter; stroke-linecap: square"/>
   </g>
   <g id="patch_4">
    <path d="M 52.22 213.89811 
L 500.51622 213.89811 
" style="fill: none; stroke: #262626; stroke-width: 1.25; stroke-linejoin: miter; stroke-linecap: square"/>
   </g>
   <g id="PathCollection_3">
    <defs>
     <path id="C0_0_17a9b3b7c1" d="M 0 2.5 
C 0.663008 2.5 1.29895 2.236584 1.767767 1.767767 
C 2.236584 1.29895 2.5 0.663008 2.5 -0 
C 2.5 -0.663008 2.236584 -1.29895 1.767767 -1.767767 
C 1.29895 -2.236584 0.663008 -2.5 0 -2.5 
C -0.663008 -2.5 -1.29895 -2.236584 -1.767767 -1.767767 
C -2.236584 -1.29895 -2.5 -0.663008 -2.5 0 
C -2.5 0.663008 -2.236584 1.29895 -1.767767 1.767767 
C -1.29895 2.236584 -0.663008 2.5 0 2.5 
z
"/>
    </defs>
    <g clip-path="url(#pe7848c380c)">
     <use xlink:href="#C0_0_17a9b3b7c1" x="82.46215" y="76.424562" style="fill: #4c72b0; fill-opacity: 0.75"/>
    </g>
    <g clip-path="url(#pe7848c380c)">
     <use xlink:href="#C0_0_17a9b3b7c1" x="90.25379" y="40.964063" style="fill: #4c72b0; fill-opacity: 0.75"/>
    </g>
    <g clip-path="url(#pe7848c380c)">
     <use xlink:href="#C0_0_17a9b3b7c1" x="83.660282" y="42.94547" style="fill: #4c72b0; fill-opacity: 0.75"/>
    </g>
    <g clip-path="url(#pe7848c380c)">
     <use xlink:href="#C0_0_17a9b3b7c1" x="87.352688" y="32.937187" style="fill: #4c72b0; fill-opacity: 0.75"/>
    </g>
    <g clip-path="url(#pe7848c380c)">
     <use xlink:href="#C0_0_17a9b3b7c1" x="81.739399" y="51.726213" style="fill: #dd8452; fill-opacity: 0.75"/>
    </g>
    <g clip-path="url(#pe7848c380c)">
     <use xlink:href="#C0_0_17a9b3b7c1" x="80.233091" y="78.682195" style="fill: #dd8452; fill-opacity: 0.75"/>
    </g>
    <g clip-path="url(#pe7848c380c)">
     <use xlink:href="#C0_0_17a9b3b7c1" x="79.690524" y="62.716473" style="fill: #dd8452; fill-opacity: 0.75"/>
    </g>
    <g clip-path="url(#pe7848c380c)">
     <use xlink:href="#C0_0_17a9b3b7c1" x="81.896678" y="78.912091" style="fill: #dd8452; fill-opacity: 0.75"/>
    </g>
   </g>
   <g id="PathCollection_4">
    <defs>
     <path id="C1_0_80243a723a" d="M 0 2.5 
C 0.663008 2.5 1.29895 2.236584 1.767767 1.767767 
C 2.236584 1.29895 2.5 0.663008 2.5 -0 
C 2.5 -0.663008 2.236584 -1.29895 1.767767 -1.767767 
C 1.29895 -2.236584 0.663008 -2.5 0 -2.5 
C -0.663008 -2.5 -1.29895 -2.236584 -1.767767 -1.767767 
C -2.236584 -1.29895 -2.5 -0.663008 -2.5 0 
C -2.5 0.663008 -2.236584 1.29895 -1.767767 1.767767 
C -1.29895 2.236584 -0.663008 2.5 0 2.5 
z
"/>
    </defs>
    <g clip-path="url(#pe7848c380c)">
     <use xlink:href="#C1_0_80243a723a" x="145.509715" y="185.513876" style="fill: #4c72b0; fill-opacity: 0.75"/>
    </g>
    <g clip-path="url(#pe7848c380c)">
     <use xlink:href="#C1_0_80243a723a" x="144.876901" y="184.516694" style="fill: #4c72b0; fill-opacity: 0.75"/>
    </g>
    <g clip-path="url(#pe7848c380c)">
     <use xlink:href="#C1_0_80243a723a" x="145.660087" y="190.553042" style="fill: #4c72b0; fill-opacity: 0.75"/>
    </g>
    <g clip-path="url(#pe7848c380c)">
     <use xlink:href="#C1_0_80243a723a" x="145.59857" y="188.142295" style="fill: #4c72b0; fill-opacity: 0.75"/>
    </g>
    <g clip-path="url(#pe7848c380c)">
     <use xlink:href="#C1_0_80243a723a" x="150.841363" y="189.976297" style="fill: #dd8452; fill-opacity: 0.75"/>
    </g>
    <g clip-path="url(#pe7848c380c)">
     <use xlink:href="#C1_0_80243a723a" x="148.174525" y="185.617214" style="fill: #dd8452; fill-opacity: 0.75"/>
    </g>
    <g clip-path="url(#pe7848c380c)">
     <use xlink:href="#C1_0_80243a723a" x="142.978029" y="189.13611" style="fill: #dd8452; fill-opacity: 0.75"/>
    </g>
    <g clip-path="url(#pe7848c380c)">
     <use xlink:href="#C1_0_80243a723a" x="143.83576" y="181.819168" style="fill: #dd8452; fill-opacity: 0.75"/>
    </g>
   </g>
   <g id="PathCollection_5">
    <defs>
     <path id="C2_0_e86356da07" d="M 0 2.5 
C 0.663008 2.5 1.29895 2.236584 1.767767 1.767767 
C 2.236584 1.29895 2.5 0.663008 2.5 -0 
C 2.5 -0.663008 2.236584 -1.29895 1.767767 -1.767767 
C 1.29895 -2.236584 0.663008 -2.5 0 -2.5 
C -0.663008 -2.5 -1.29895 -2.236584 -1.767767 -1.767767 
C -2.236584 -1.29895 -2.5 -0.663008 -2.5 0 
C -2.5 0.663008 -2.236584 1.29895 -1.767767 1.767767 
C -1.29895 2.236584 -0.663008 2.5 0 2.5 
z
"/>
    </defs>
    <g clip-path="url(#pe7848c380c)">
     <use xlink:href="#C2_0_e86356da07" x="212.492997" y="177.244956" style="fill: #4c72b0; fill-opacity: 0.75"/>
    </g>
    <g clip-path="url(#pe7848c380c)">
     <use xlink:href="#C2_0_e86356da07" x="216.022926" y="182.768699" style="fill: #4c72b0; fill-opacity: 0.75"/>
    </g>
    <g clip-path="url(#pe7848c380c)">
     <use xlink:href="#C2_0_e86356da07" x="206.31881" y="177.593192" style="fill: #4c72b0; fill-opacity: 0.75"/>
    </g>
    <g clip-path="url(#pe7848c380c)">
     <use xlink:href="#C2_0_e86356da07" x="212.423989" y="191.013337" style="fill: #4c72b0; fill-opacity: 0.75"/>
    </g>
    <g clip-path="url(#pe7848c380c)">
     <use xlink:href="#C2_0_e86356da07" x="218.173118" y="184.051644" style="fill: #dd8452; fill-opacity: 0.75"/>
    </g>
    <g clip-path="url(#pe7848c380c)">
     <use xlink:href="#C2_0_e86356da07" x="218.675751" y="178.980609" style="fill: #dd8452; fill-opacity: 0.75"/>
    </g>
    <g clip-path="url(#pe7848c380c)">
     <use xlink:href="#C2_0_e86356da07" x="210.321428" y="176.932344" style="fill: #dd8452; fill-opacity: 0.75"/>
    </g>
    <g clip-path="url(#pe7848c380c)">
     <use xlink:href="#C2_0_e86356da07" x="216.349255" y="182.067434" style="fill: #dd8452; fill-opacity: 0.75"/>
    </g>
   </g>
   <g id="PathCollection_6">
    <defs>
     <path id="C3_0_3ce261312a" d="M 0 2.5 
C 0.663008 2.5 1.29895 2.236584 1.767767 1.767767 
C 2.236584 1.29895 2.5 0.663008 2.5 -0 
C 2.5 -0.663008 2.236584 -1.29895 1.767767 -1.767767 
C 1.29895 -2.236584 0.663008 -2.5 0 -2.5 
C -0.663008 -2.5 -1.29895 -2.236584 -1.767767 -1.767767 
C -2.236584 -1.29895 -2.5 -0.663008 -2.5 0 
C -2.5 0.663008 -2.236584 1.29895 -1.767767 1.767767 
C -1.29895 2.236584 -0.663008 2.5 0 2.5 
z
"/>
    </defs>
    <g clip-path="url(#pe7848c380c)">
     <use xlink:href="#C3_0_3ce261312a" x="275.005987" y="68.208138" style="fill: #4c72b0; fill-opacity: 0.75"/>
    </g>
    <g clip-path="url(#pe7848c380c)">
     <use xlink:href="#C3_0_3ce261312a" x="274.128948" y="60.806439" style="fill: #4c72b0; fill-opacity: 0.75"/>
    </g>
    <g clip-path="url(#pe7848c380c)">
     <use xlink:href="#C3_0_3ce261312a" x="275.910004" y="79.46725" style="fill: #4c72b0; fill-opacity: 0.75"/>
    </g>
    <g clip-path="url(#pe7848c380c)">
     <use xlink:href="#C3_0_3ce261312a" x="279.448802" y="117.553582" style="fill: #4c72b0; fill-opacity: 0.75"/>
    </g>
    <g clip-path="url(#pe7848c380c)">
     <use xlink:href="#C3_0_3ce261312a" x="272.191633" y="56.186011" style="fill: #4c72b0; fill-opacity: 0.75"/>
    </g>
    <g clip-path="url(#pe7848c380c)">
     <use xlink:href="#C3_0_3ce261312a" x="272.698751" y="125.932445" style="fill: #dd8452; fill-opacity: 0.75"/>
    </g>
    <g clip-path="url(#pe7848c380c)">
     <use xlink:href="#C3_0_3ce261312a" x="280.544873" y="128.956648" style="fill: #dd8452; fill-opacity: 0.75"/>
    </g>
    <g clip-path="url(#pe7848c380c)">
     <use xlink:href="#C3_0_3ce261312a" x="278.928711" y="117.245068" style="fill: #dd8452; fill-opacity: 0.75"/>
    </g>
    <g clip-path="url(#pe7848c380c)">
     <use xlink:href="#C3_0_3ce261312a" x="271.51823" y="122.895285" style="fill: #dd8452; fill-opacity: 0.75"/>
    </g>
    <g clip-path="url(#pe7848c380c)">
     <use xlink:href="#C3_0_3ce261312a" x="276.101411" y="148.070704" style="fill: #dd8452; fill-opacity: 0.75"/>
    </g>
   </g>
   <g id="PathCollection_7">
    <defs>
     <path id="C4_0_a9b4e34bde" d="M 0 2.5 
C 0.663008 2.5 1.29895 2.236584 1.767767 1.767767 
C 2.236584 1.29895 2.5 0.663008 2.5 -0 
C 2.5 -0.663008 2.236584 -1.29895 1.767767 -1.767767 
C 1.29895 -2.236584 0.663008 -2.5 0 -2.5 
C -0.663008 -2.5 -1.29895 -2.236584 -1.767767 -1.767767 
C -2.236584 -1.29895 -2.5 -0.663008 -2.5 0 
C -2.5 0.663008 -2.236584 1.29895 -1.767767 1.767767 
C -1.29895 2.236584 -0.663008 2.5 0 2.5 
z
"/>
    </defs>
    <g clip-path="url(#pe7848c380c)">
     <use xlink:href="#C4_0_a9b4e34bde" x="341.803426" y="196.705949" style="fill: #4c72b0; fill-opacity: 0.75"/>
    </g>
    <g clip-path="url(#pe7848c380c)">
     <use xlink:href="#C4_0_a9b4e34bde" x="346.526533" y="201.581202" style="fill: #4c72b0; fill-opacity: 0.75"/>
    </g>
    <g clip-path="url(#pe7848c380c)">
     <use xlink:href="#C4_0_a9b4e34bde" x="335.854471" y="203.00761" style="fill: #4c72b0; fill-opacity: 0.75"/>
    </g>
    <g clip-path="url(#pe7848c380c)">
     <use xlink:href="#C4_0_a9b4e34bde" x="346.51458" y="205.280923" style="fill: #dd8452; fill-opacity: 0.75"/>
    </g>
    <g clip-path="url(#pe7848c380c)">
     <use xlink:href="#C4_0_a9b4e34bde" x="344.322754" y="204.777931" style="fill: #dd8452; fill-opacity: 0.75"/>
    </g>
    <g clip-path="url(#pe7848c380c)">
     <use xlink:href="#C4_0_a9b4e34bde" x="338.116497" y="202.897748" style="fill: #dd8452; fill-opacity: 0.75"/>
    </g>
   </g>
   <g id="PathCollection_8">
    <defs>
     <path id="C5_0_e3455ef90e" d="M 0 2.5 
C 0.663008 2.5 1.29895 2.236584 1.767767 1.767767 
C 2.236584 1.29895 2.5 0.663008 2.5 -0 
C 2.5 -0.663008 2.236584 -1.29895 1.767767 -1.767767 
C 1.29895 -2.236584 0.663008 -2.5 0 -2.5 
C -0.663008 -2.5 -1.29895 -2.236584 -1.767767 -1.767767 
C -2.236584 -1.29895 -2.5 -0.663008 -2.5 0 
C -2.5 0.663008 -2.236584 1.29895 -1.767767 1.767767 
C -1.29895 2.236584 -0.663008 2.5 0 2.5 
z
"/>
    </defs>
    <g clip-path="url(#pe7848c380c)">
     <use xlink:href="#C5_0_e3455ef90e" x="402.004222" y="128.728612" style="fill: #4c72b0; fill-opacity: 0.75"/>
    </g>
    <g clip-path="url(#pe7848c380c)">
     <use xlink:href="#C5_0_e3455ef90e" x="403.122686" y="122.77372" style="fill: #4c72b0; fill-opacity: 0.75"/>
    </g>
    <g clip-path="url(#pe7848c380c)">
     <use xlink:href="#C5_0_e3455ef90e" x="408.531151" y="119.953064" style="fill: #4c72b0; fill-opacity: 0.75"/>
    </g>
    <g clip-path="url(#pe7848c380c)">
     <use xlink:href="#C5_0_e3455ef90e" x="405.563959" y="122.620222" style="fill: #4c72b0; fill-opacity: 0.75"/>
    </g>
    <g clip-path="url(#pe7848c380c)">
     <use xlink:href="#C5_0_e3455ef90e" x="406.690012" y="158.581544" style="fill: #dd8452; fill-opacity: 0.75"/>
    </g>
    <g clip-path="url(#pe7848c380c)">
     <use xlink:href="#C5_0_e3455ef90e" x="406.428784" y="159.951793" style="fill: #dd8452; fill-opacity: 0.75"/>
    </g>
    <g clip-path="url(#pe7848c380c)">
     <use xlink:href="#C5_0_e3455ef90e" x="407.509741" y="159.215198" style="fill: #dd8452; fill-opacity: 0.75"/>
    </g>
    <g clip-path="url(#pe7848c380c)">
     <use xlink:href="#C5_0_e3455ef90e" x="407.805837" y="165.727274" style="fill: #dd8452; fill-opacity: 0.75"/>
    </g>
   </g>
   <g id="PathCollection_9">
    <defs>
     <path id="C6_0_b58e002598" d="M 0 2.5 
C 0.663008 2.5 1.29895 2.236584 1.767767 1.767767 
C 2.236584 1.29895 2.5 0.663008 2.5 -0 
C 2.5 -0.663008 2.236584 -1.29895 1.767767 -1.767767 
C 1.29895 -2.236584 0.663008 -2.5 0 -2.5 
C -0.663008 -2.5 -1.29895 -2.236584 -1.767767 -1.767767 
C -2.236584 -1.29895 -2.5 -0.663008 -2.5 0 
C -2.5 0.663008 -2.236584 1.29895 -1.767767 1.767767 
C -1.29895 2.236584 -0.663008 2.5 0 2.5 
z
"/>
    </defs>
    <g clip-path="url(#pe7848c380c)">
     <use xlink:href="#C6_0_b58e002598" x="474.259551" y="168.687899" style="fill: #4c72b0; fill-opacity: 0.75"/>
    </g>
    <g clip-path="url(#pe7848c380c)">
     <use xlink:href="#C6_0_b58e002598" x="465.286895" y="166.949102" style="fill: #4c72b0; fill-opacity: 0.75"/>
    </g>
    <g clip-path="url(#pe7848c380c)">
     <use xlink:href="#C6_0_b58e002598" x="462.108315" y="165.407555" style="fill: #4c72b0; fill-opacity: 0.75"/>
    </g>
    <g clip-path="url(#pe7848c380c)">
     <use xlink:href="#C6_0_b58e002598" x="466.192469" y="166.29141" style="fill: #4c72b0; fill-opacity: 0.75"/>
    </g>
    <g clip-path="url(#pe7848c380c)">
     <use xlink:href="#C6_0_b58e002598" x="466.539288" y="175.246367" style="fill: #dd8452; fill-opacity: 0.75"/>
    </g>
    <g clip-path="url(#pe7848c380c)">
     <use xlink:href="#C6_0_b58e002598" x="471.430749" y="178.180413" style="fill: #dd8452; fill-opacity: 0.75"/>
    </g>
    <g clip-path="url(#pe7848c380c)">
     <use xlink:href="#C6_0_b58e002598" x="466.003232" y="168.775026" style="fill: #dd8452; fill-opacity: 0.75"/>
    </g>
    <g clip-path="url(#pe7848c380c)">
     <use xlink:href="#C6_0_b58e002598" x="466.493394" y="167.978705" style="fill: #dd8452; fill-opacity: 0.75"/>
    </g>
   </g>
   <g id="text_15">
    <!-- ITGB8, $p_{adj}$ &lt; .001 *** -->
    <g style="fill: #262626" transform="translate(52.22 18.32)scale(0.09 -0.09)">
     <defs>
      <path id="ArialMT-49" d="M 597 0 
L 597 4581 
L 1203 4581 
L 1203 0 
L 597 0 
z
" transform="scale(0.015625)"/>
      <path id="ArialMT-47" d="M 2638 1797 
L 2638 2334 
L 4578 2338 
L 4578 638 
Q 4131 281 3656 101 
Q 3181 -78 2681 -78 
Q 2006 -78 1454 211 
Q 903 500 622 1047 
Q 341 1594 341 2269 
Q 341 2938 620 3517 
Q 900 4097 1425 4378 
Q 1950 4659 2634 4659 
Q 3131 4659 3532 4498 
Q 3934 4338 4162 4050 
Q 4391 3763 4509 3300 
L 3963 3150 
Q 3859 3500 3706 3700 
Q 3553 3900 3268 4020 
Q 2984 4141 2638 4141 
Q 2222 4141 1919 4014 
Q 1616 3888 1430 3681 
Q 1244 3475 1141 3228 
Q 966 2803 966 2306 
Q 966 1694 1177 1281 
Q 1388 869 1791 669 
Q 2194 469 2647 469 
Q 3041 469 3416 620 
Q 3791 772 3984 944 
L 3984 1797 
L 2638 1797 
z
" transform="scale(0.015625)"/>
      <path id="ArialMT-42" d="M 469 0 
L 469 4581 
L 2188 4581 
Q 2713 4581 3030 4442 
Q 3347 4303 3526 4014 
Q 3706 3725 3706 3409 
Q 3706 3116 3547 2856 
Q 3388 2597 3066 2438 
Q 3481 2316 3704 2022 
Q 3928 1728 3928 1328 
Q 3928 1006 3792 729 
Q 3656 453 3456 303 
Q 3256 153 2954 76 
Q 2653 0 2216 0 
L 469 0 
z
M 1075 2656 
L 2066 2656 
Q 2469 2656 2644 2709 
Q 2875 2778 2992 2937 
Q 3109 3097 3109 3338 
Q 3109 3566 3000 3739 
Q 2891 3913 2687 3977 
Q 2484 4041 1991 4041 
L 1075 4041 
L 1075 2656 
z
M 1075 541 
L 2216 541 
Q 2509 541 2628 563 
Q 2838 600 2978 687 
Q 3119 775 3209 942 
Q 3300 1109 3300 1328 
Q 3300 1584 3169 1773 
Q 3038 1963 2805 2039 
Q 2572 2116 2134 2116 
L 1075 2116 
L 1075 541 
z
" transform="scale(0.015625)"/>
      <path id="ArialMT-38" d="M 1131 2484 
Q 781 2613 612 2850 
Q 444 3088 444 3419 
Q 444 3919 803 4259 
Q 1163 4600 1759 4600 
Q 2359 4600 2725 4251 
Q 3091 3903 3091 3403 
Q 3091 3084 2923 2848 
Q 2756 2613 2416 2484 
Q 2838 2347 3058 2040 
Q 3278 1734 3278 1309 
Q 3278 722 2862 322 
Q 2447 -78 1769 -78 
Q 1091 -78 675 323 
Q 259 725 259 1325 
Q 259 1772 486 2073 
Q 713 2375 1131 2484 
z
M 1019 3438 
Q 1019 3113 1228 2906 
Q 1438 2700 1772 2700 
Q 2097 2700 2305 2904 
Q 2513 3109 2513 3406 
Q 2513 3716 2298 3927 
Q 2084 4138 1766 4138 
Q 1444 4138 1231 3931 
Q 1019 3725 1019 3438 
z
M 838 1322 
Q 838 1081 952 856 
Q 1066 631 1291 507 
Q 1516 384 1775 384 
Q 2178 384 2440 643 
Q 2703 903 2703 1303 
Q 2703 1709 2433 1975 
Q 2163 2241 1756 2241 
Q 1359 2241 1098 1978 
Q 838 1716 838 1322 
z
" transform="scale(0.015625)"/>
      <path id="ArialMT-2c" d="M 569 0 
L 569 641 
L 1209 641 
L 1209 0 
Q 1209 -353 1084 -570 
Q 959 -788 688 -906 
L 531 -666 
Q 709 -588 793 -436 
Q 878 -284 888 0 
L 569 0 
z
" transform="scale(0.015625)"/>
      <path id="DejaVuSans-Oblique-70" d="M 3175 2156 
Q 3175 2616 2975 2859 
Q 2775 3103 2400 3103 
Q 2144 3103 1911 2972 
Q 1678 2841 1497 2591 
Q 1319 2344 1212 1994 
Q 1106 1644 1106 1300 
Q 1106 863 1306 627 
Q 1506 391 1875 391 
Q 2147 391 2380 519 
Q 2613 647 2778 891 
Q 2956 1147 3065 1494 
Q 3175 1841 3175 2156 
z
M 1394 2969 
Q 1625 3272 1939 3428 
Q 2253 3584 2638 3584 
Q 3175 3584 3472 3232 
Q 3769 2881 3769 2247 
Q 3769 1728 3584 1258 
Q 3400 788 3053 416 
Q 2822 169 2531 39 
Q 2241 -91 1919 -91 
Q 1547 -91 1294 64 
Q 1041 219 916 525 
L 556 -1331 
L -19 -1331 
L 922 3500 
L 1497 3500 
L 1394 2969 
z
" transform="scale(0.015625)"/>
      <path id="DejaVuSans-Oblique-61" d="M 3438 1997 
L 3047 0 
L 2472 0 
L 2578 531 
Q 2325 219 2001 64 
Q 1678 -91 1281 -91 
Q 834 -91 548 182 
Q 263 456 263 884 
Q 263 1497 752 1853 
Q 1241 2209 2100 2209 
L 2900 2209 
L 2931 2363 
Q 2938 2388 2941 2417 
Q 2944 2447 2944 2509 
Q 2944 2788 2717 2942 
Q 2491 3097 2081 3097 
Q 1800 3097 1504 3025 
Q 1209 2953 897 2809 
L 997 3341 
Q 1322 3463 1633 3523 
Q 1944 3584 2234 3584 
Q 2853 3584 3176 3315 
Q 3500 3047 3500 2534 
Q 3500 2431 3484 2292 
Q 3469 2153 3438 1997 
z
M 2816 1759 
L 2241 1759 
Q 1534 1759 1195 1570 
Q 856 1381 856 984 
Q 856 709 1029 553 
Q 1203 397 1509 397 
Q 1978 397 2328 733 
Q 2678 1069 2791 1631 
L 2816 1759 
z
" transform="scale(0.015625)"/>
      <path id="DejaVuSans-Oblique-64" d="M 2675 525 
Q 2444 222 2128 65 
Q 1813 -91 1428 -91 
Q 903 -91 598 267 
Q 294 625 294 1247 
Q 294 1766 478 2236 
Q 663 2706 1013 3078 
Q 1244 3325 1534 3454 
Q 1825 3584 2144 3584 
Q 2481 3584 2739 3421 
Q 2997 3259 3138 2956 
L 3513 4863 
L 4091 4863 
L 3144 0 
L 2566 0 
L 2675 525 
z
M 891 1350 
Q 891 897 1095 644 
Q 1300 391 1663 391 
Q 1931 391 2161 520 
Q 2391 650 2566 903 
Q 2750 1166 2856 1509 
Q 2963 1853 2963 2188 
Q 2963 2622 2758 2865 
Q 2553 3109 2194 3109 
Q 1922 3109 1687 2981 
Q 1453 2853 1288 2613 
Q 1106 2353 998 2009 
Q 891 1666 891 1350 
z
" transform="scale(0.015625)"/>
      <path id="DejaVuSans-Oblique-6a" d="M 928 3500 
L 1503 3500 
L 813 -63 
L 809 -78 
Q 694 -675 544 -897 
Q 403 -1106 132 -1218 
Q -138 -1331 -506 -1331 
L -722 -1331 
L -628 -844 
L -481 -844 
Q -144 -844 -1 -703 
Q 141 -563 238 -63 
L 928 3500 
z
M 1197 4863 
L 1772 4863 
L 1631 4134 
L 1056 4134 
L 1197 4863 
z
" transform="scale(0.015625)"/>
      <path id="ArialMT-3c" d="M 350 2003 
L 350 2528 
L 3384 3809 
L 3384 3250 
L 978 2263 
L 3384 1266 
L 3384 706 
L 350 2003 
z
" transform="scale(0.015625)"/>
      <path id="ArialMT-2e" d="M 581 0 
L 581 641 
L 1222 641 
L 1222 0 
L 581 0 
z
" transform="scale(0.015625)"/>
      <path id="ArialMT-2a" d="M 200 3741 
L 344 4184 
Q 841 4009 1066 3881 
Q 1006 4447 1003 4659 
L 1456 4659 
Q 1447 4350 1384 3884 
Q 1706 4047 2122 4184 
L 2266 3741 
Q 1869 3609 1488 3566 
Q 1678 3400 2025 2975 
L 1650 2709 
Q 1469 2956 1222 3381 
Q 991 2941 816 2709 
L 447 2975 
Q 809 3422 966 3566 
Q 563 3644 200 3741 
z
" transform="scale(0.015625)"/>
     </defs>
     <use xlink:href="#ArialMT-49" transform="translate(0 0.203125)"/>
     <use xlink:href="#ArialMT-54" transform="translate(27.783203 0.203125)"/>
     <use xlink:href="#ArialMT-47" transform="translate(88.867188 0.203125)"/>
     <use xlink:href="#ArialMT-42" transform="translate(166.650391 0.203125)"/>
     <use xlink:href="#ArialMT-38" transform="translate(233.349609 0.203125)"/>
     <use xlink:href="#ArialMT-2c" transform="translate(288.964844 0.203125)"/>
     <use xlink:href="#ArialMT-20" transform="translate(316.748047 0.203125)"/>
     <use xlink:href="#DejaVuSans-Oblique-70" transform="translate(344.53125 0.203125)"/>
     <use xlink:href="#DejaVuSans-Oblique-61" transform="translate(408.007812 -16.203125)scale(0.7)"/>
     <use xlink:href="#DejaVuSans-Oblique-64" transform="translate(450.90332 -16.203125)scale(0.7)"/>
     <use xlink:href="#DejaVuSans-Oblique-6a" transform="translate(495.336914 -16.203125)scale(0.7)"/>
     <use xlink:href="#ArialMT-20" transform="translate(517.519531 0.203125)"/>
     <use xlink:href="#ArialMT-3c" transform="translate(545.302734 0.203125)"/>
     <use xlink:href="#ArialMT-20" transform="translate(603.701172 0.203125)"/>
     <use xlink:href="#ArialMT-2e" transform="translate(631.484375 0.203125)"/>
     <use xlink:href="#ArialMT-30" transform="translate(659.267578 0.203125)"/>
     <use xlink:href="#ArialMT-30" transform="translate(714.882812 0.203125)"/>
     <use xlink:href="#ArialMT-31" transform="translate(770.498047 0.203125)"/>
     <use xlink:href="#ArialMT-20" transform="translate(826.113281 0.203125)"/>
     <use xlink:href="#ArialMT-2a" transform="translate(853.896484 0.203125)"/>
     <use xlink:href="#ArialMT-2a" transform="translate(892.8125 0.203125)"/>
     <use xlink:href="#ArialMT-2a" transform="translate(931.728516 0.203125)"/>
    </g>
   </g>
   <g id="legend_1">
    <g id="patch_5">
     <path d="M 441.91497 69.712344 
L 494.21622 69.712344 
Q 496.01622 69.712344 496.01622 67.912344 
L 496.01622 30.62 
Q 496.01622 28.82 494.21622 28.82 
L 441.91497 28.82 
Q 440.11497 28.82 440.11497 30.62 
L 440.11497 67.912344 
Q 440.11497 69.712344 441.91497 69.712344 
z
" style="fill: #ffffff; opacity: 0.8; stroke: #cccccc; stroke-linejoin: miter"/>
    </g>
    <g id="text_16">
     <!-- Treatment -->
     <g style="fill: #262626" transform="translate(447.729111 38.862031)scale(0.09 -0.09)">
      <use xlink:href="#ArialMT-54"/>
      <use xlink:href="#ArialMT-72" x="57.333984"/>
      <use xlink:href="#ArialMT-65" x="90.634766"/>
      <use xlink:href="#ArialMT-61" x="146.25"/>
      <use xlink:href="#ArialMT-74" x="201.865234"/>
      <use xlink:href="#ArialMT-6d" x="229.648438"/>
      <use xlink:href="#ArialMT-65" x="312.949219"/>
      <use xlink:href="#ArialMT-6e" x="368.564453"/>
      <use xlink:href="#ArialMT-74" x="424.179688"/>
     </g>
    </g>
    <g id="PathCollection_10">
     <defs>
      <path id="mc02c40bbac" d="M 0 3.872983 
C 1.027127 3.872983 2.012324 3.464901 2.738613 2.738613 
C 3.464901 2.012324 3.872983 1.027127 3.872983 0 
C 3.872983 -1.027127 3.464901 -2.012324 2.738613 -2.738613 
C 2.012324 -3.464901 1.027127 -3.872983 0 -3.872983 
C -1.027127 -3.872983 -2.012324 -3.464901 -2.738613 -2.738613 
C -3.464901 -2.012324 -3.872983 -1.027127 -3.872983 0 
C -3.872983 1.027127 -3.464901 2.012324 -2.738613 2.738613 
C -2.012324 3.464901 -1.027127 3.872983 0 3.872983 
z
" style="stroke: #4c72b0"/>
     </defs>
     <g>
      <use xlink:href="#mc02c40bbac" x="452.71497" y="49.230313" style="fill: #4c72b0; stroke: #4c72b0"/>
     </g>
    </g>
    <g id="text_17">
     <!-- BEVA -->
     <g style="fill: #262626" transform="translate(468.91497 51.592813)scale(0.09 -0.09)">
      <defs>
       <path id="ArialMT-45" d="M 506 0 
L 506 4581 
L 3819 4581 
L 3819 4041 
L 1113 4041 
L 1113 2638 
L 3647 2638 
L 3647 2100 
L 1113 2100 
L 1113 541 
L 3925 541 
L 3925 0 
L 506 0 
z
" transform="scale(0.015625)"/>
       <path id="ArialMT-56" d="M 1803 0 
L 28 4581 
L 684 4581 
L 1875 1253 
Q 2019 853 2116 503 
Q 2222 878 2363 1253 
L 3600 4581 
L 4219 4581 
L 2425 0 
L 1803 0 
z
" transform="scale(0.015625)"/>
       <path id="ArialMT-41" d="M -9 0 
L 1750 4581 
L 2403 4581 
L 4278 0 
L 3588 0 
L 3053 1388 
L 1138 1388 
L 634 0 
L -9 0 
z
M 1313 1881 
L 2866 1881 
L 2388 3150 
Q 2169 3728 2063 4100 
Q 1975 3659 1816 3225 
L 1313 1881 
z
" transform="scale(0.015625)"/>
      </defs>
      <use xlink:href="#ArialMT-42"/>
      <use xlink:href="#ArialMT-45" x="66.699219"/>
      <use xlink:href="#ArialMT-56" x="133.398438"/>
      <use xlink:href="#ArialMT-41" x="192.722656"/>
     </g>
    </g>
    <g id="PathCollection_11">
     <defs>
      <path id="m0451235c69" d="M 0 3.872983 
C 1.027127 3.872983 2.012324 3.464901 2.738613 2.738613 
C 3.464901 2.012324 3.872983 1.027127 3.872983 0 
C 3.872983 -1.027127 3.464901 -2.012324 2.738613 -2.738613 
C 2.012324 -3.464901 1.027127 -3.872983 0 -3.872983 
C -1.027127 -3.872983 -2.012324 -3.464901 -2.738613 -2.738613 
C -3.464901 -2.012324 -3.872983 -1.027127 -3.872983 0 
C -3.872983 1.027127 -3.464901 2.012324 -2.738613 2.738613 
C -2.012324 3.464901 -1.027127 3.872983 0 3.872983 
z
" style="stroke: #dd8452"/>
     </defs>
     <g>
      <use xlink:href="#m0451235c69" x="452.71497" y="61.961094" style="fill: #dd8452; stroke: #dd8452"/>
     </g>
    </g>
    <g id="text_18">
     <!-- CTRL -->
     <g style="fill: #262626" transform="translate(468.91497 64.323594)scale(0.09 -0.09)">
      <defs>
       <path id="ArialMT-43" d="M 3763 1606 
L 4369 1453 
Q 4178 706 3683 314 
Q 3188 -78 2472 -78 
Q 1731 -78 1267 223 
Q 803 525 561 1097 
Q 319 1669 319 2325 
Q 319 3041 592 3573 
Q 866 4106 1370 4382 
Q 1875 4659 2481 4659 
Q 3169 4659 3637 4309 
Q 4106 3959 4291 3325 
L 3694 3184 
Q 3534 3684 3231 3912 
Q 2928 4141 2469 4141 
Q 1941 4141 1586 3887 
Q 1231 3634 1087 3207 
Q 944 2781 944 2328 
Q 944 1744 1114 1308 
Q 1284 872 1643 656 
Q 2003 441 2422 441 
Q 2931 441 3284 734 
Q 3638 1028 3763 1606 
z
" transform="scale(0.015625)"/>
       <path id="ArialMT-52" d="M 503 0 
L 503 4581 
L 2534 4581 
Q 3147 4581 3465 4457 
Q 3784 4334 3975 4021 
Q 4166 3709 4166 3331 
Q 4166 2844 3850 2509 
Q 3534 2175 2875 2084 
Q 3116 1969 3241 1856 
Q 3506 1613 3744 1247 
L 4541 0 
L 3778 0 
L 3172 953 
Q 2906 1366 2734 1584 
Q 2563 1803 2427 1890 
Q 2291 1978 2150 2013 
Q 2047 2034 1813 2034 
L 1109 2034 
L 1109 0 
L 503 0 
z
M 1109 2559 
L 2413 2559 
Q 2828 2559 3062 2645 
Q 3297 2731 3419 2920 
Q 3541 3109 3541 3331 
Q 3541 3656 3305 3865 
Q 3069 4075 2559 4075 
L 1109 4075 
L 1109 2559 
z
" transform="scale(0.015625)"/>
       <path id="ArialMT-4c" d="M 469 0 
L 469 4581 
L 1075 4581 
L 1075 541 
L 3331 541 
L 3331 0 
L 469 0 
z
" transform="scale(0.015625)"/>
      </defs>
      <use xlink:href="#ArialMT-43"/>
      <use xlink:href="#ArialMT-54" x="72.216797"/>
      <use xlink:href="#ArialMT-52" x="133.300781"/>
      <use xlink:href="#ArialMT-4c" x="205.517578"/>
     </g>
    </g>
   </g>
  </g>
 </g>
 <defs>
  <clipPath id="pe7848c380c">
   <rect x="52.22" y="24.32" width="448.29622" height="189.57811"/>
  </clipPath>
 </defs>
</svg>
