<?xml version="1.0" encoding="utf-8" standalone="no"?>
<!DOCTYPE svg PUBLIC "-//W3C//DTD SVG 1.1//EN"
  "http://www.w3.org/Graphics/SVG/1.1/DTD/svg11.dtd">
<svg xmlns:xlink="http://www.w3.org/1999/xlink" width="510.23622pt" height="255.11811pt" viewBox="0 0 510.23622 255.11811" xmlns="http://www.w3.org/2000/svg" version="1.1">
 <metadata>
  <rdf:RDF xmlns:dc="http://purl.org/dc/elements/1.1/" xmlns:cc="http://creativecommons.org/ns#" xmlns:rdf="http://www.w3.org/1999/02/22-rdf-syntax-ns#">
   <cc:Work>
    <dc:type rdf:resource="http://purl.org/dc/dcmitype/StillImage"/>
    <dc:date>2022-04-27T00:14:58.370780</dc:date>
    <dc:format>image/svg+xml</dc:format>
    <dc:creator>
     <cc:Agent>
      <dc:title>Matplotlib v3.5.1, https://matplotlib.org/</dc:title>
     </cc:Agent>
    </dc:creator>
   </cc:Work>
  </rdf:RDF>
 </metadata>
 <defs>
  <style type="text/css">*{stroke-linejoin: round; stroke-linecap: butt}</style>
 </defs>
 <g id="figure_1">
  <g id="patch_1">
   <path d="M 0 255.11811 
L 510.23622 255.11811 
L 510.23622 0 
L 0 0 
z
" style="fill: #ffffff"/>
  </g>
  <g id="axes_1">
   <g id="patch_2">
    <path d="M 47.22 213.89811 
L 500.51622 213.89811 
L 500.51622 24.32 
L 47.22 24.32 
z
" style="fill: #ffffff"/>
   </g>
   <g id="matplotlib.axis_1">
    <g id="xtick_1">
     <g id="text_1">
      <!-- 49 -->
      <g style="fill: #444444" transform="translate(74.593458 229.840141)scale(0.09 -0.09)">
       <defs>
        <path id="ArialMT-34" d="M 2069 0 
L 2069 1097 
L 81 1097 
L 81 1613 
L 2172 4581 
L 2631 4581 
L 2631 1613 
L 3250 1613 
L 3250 1097 
L 2631 1097 
L 2631 0 
L 2069 0 
z
M 2069 1613 
L 2069 3678 
L 634 1613 
L 2069 1613 
z
" transform="scale(0.015625)"/>
        <path id="ArialMT-39" d="M 350 1059 
L 891 1109 
Q 959 728 1153 556 
Q 1347 384 1650 384 
Q 1909 384 2104 503 
Q 2300 622 2425 820 
Q 2550 1019 2634 1356 
Q 2719 1694 2719 2044 
Q 2719 2081 2716 2156 
Q 2547 1888 2255 1720 
Q 1963 1553 1622 1553 
Q 1053 1553 659 1965 
Q 266 2378 266 3053 
Q 266 3750 677 4175 
Q 1088 4600 1706 4600 
Q 2153 4600 2523 4359 
Q 2894 4119 3086 3673 
Q 3278 3228 3278 2384 
Q 3278 1506 3087 986 
Q 2897 466 2520 194 
Q 2144 -78 1638 -78 
Q 1100 -78 759 220 
Q 419 519 350 1059 
z
M 2653 3081 
Q 2653 3566 2395 3850 
Q 2138 4134 1775 4134 
Q 1400 4134 1122 3828 
Q 844 3522 844 3034 
Q 844 2597 1108 2323 
Q 1372 2050 1759 2050 
Q 2150 2050 2401 2323 
Q 2653 2597 2653 3081 
z
" transform="scale(0.015625)"/>
       </defs>
       <use xlink:href="#ArialMT-34"/>
       <use xlink:href="#ArialMT-39" x="55.615234"/>
      </g>
     </g>
    </g>
    <g id="xtick_2">
     <g id="text_2">
      <!-- 17 -->
      <g style="fill: #444444" transform="translate(139.350061 229.840141)scale(0.09 -0.09)">
       <defs>
        <path id="ArialMT-31" d="M 2384 0 
L 1822 0 
L 1822 3584 
Q 1619 3391 1289 3197 
Q 959 3003 697 2906 
L 697 3450 
Q 1169 3672 1522 3987 
Q 1875 4303 2022 4600 
L 2384 4600 
L 2384 0 
z
" transform="scale(0.015625)"/>
        <path id="ArialMT-37" d="M 303 3981 
L 303 4522 
L 3269 4522 
L 3269 4084 
Q 2831 3619 2401 2847 
Q 1972 2075 1738 1259 
Q 1569 684 1522 0 
L 944 0 
Q 953 541 1156 1306 
Q 1359 2072 1739 2783 
Q 2119 3494 2547 3981 
L 303 3981 
z
" transform="scale(0.015625)"/>
       </defs>
       <use xlink:href="#ArialMT-31"/>
       <use xlink:href="#ArialMT-37" x="55.615234"/>
      </g>
     </g>
    </g>
    <g id="xtick_3">
     <g id="text_3">
      <!-- 69 -->
      <g style="fill: #444444" transform="translate(204.106664 229.840141)scale(0.09 -0.09)">
       <defs>
        <path id="ArialMT-36" d="M 3184 3459 
L 2625 3416 
Q 2550 3747 2413 3897 
Q 2184 4138 1850 4138 
Q 1581 4138 1378 3988 
Q 1113 3794 959 3422 
Q 806 3050 800 2363 
Q 1003 2672 1297 2822 
Q 1591 2972 1913 2972 
Q 2475 2972 2870 2558 
Q 3266 2144 3266 1488 
Q 3266 1056 3080 686 
Q 2894 316 2569 119 
Q 2244 -78 1831 -78 
Q 1128 -78 684 439 
Q 241 956 241 2144 
Q 241 3472 731 4075 
Q 1159 4600 1884 4600 
Q 2425 4600 2770 4297 
Q 3116 3994 3184 3459 
z
M 888 1484 
Q 888 1194 1011 928 
Q 1134 663 1356 523 
Q 1578 384 1822 384 
Q 2178 384 2434 671 
Q 2691 959 2691 1453 
Q 2691 1928 2437 2201 
Q 2184 2475 1800 2475 
Q 1419 2475 1153 2201 
Q 888 1928 888 1484 
z
" transform="scale(0.015625)"/>
       </defs>
       <use xlink:href="#ArialMT-36"/>
       <use xlink:href="#ArialMT-39" x="55.615234"/>
      </g>
     </g>
    </g>
    <g id="xtick_4">
     <g id="text_4">
      <!-- 15 -->
      <g style="fill: #444444" transform="translate(268.863266 229.840141)scale(0.09 -0.09)">
       <defs>
        <path id="ArialMT-35" d="M 266 1200 
L 856 1250 
Q 922 819 1161 601 
Q 1400 384 1738 384 
Q 2144 384 2425 690 
Q 2706 997 2706 1503 
Q 2706 1984 2436 2262 
Q 2166 2541 1728 2541 
Q 1456 2541 1237 2417 
Q 1019 2294 894 2097 
L 366 2166 
L 809 4519 
L 3088 4519 
L 3088 3981 
L 1259 3981 
L 1013 2750 
Q 1425 3038 1878 3038 
Q 2478 3038 2890 2622 
Q 3303 2206 3303 1553 
Q 3303 931 2941 478 
Q 2500 -78 1738 -78 
Q 1113 -78 717 272 
Q 322 622 266 1200 
z
" transform="scale(0.015625)"/>
       </defs>
       <use xlink:href="#ArialMT-31"/>
       <use xlink:href="#ArialMT-35" x="55.615234"/>
      </g>
     </g>
    </g>
    <g id="xtick_5">
     <g id="text_5">
      <!-- 5 -->
      <g style="fill: #444444" transform="translate(336.122291 229.840141)scale(0.09 -0.09)">
       <use xlink:href="#ArialMT-35"/>
      </g>
     </g>
    </g>
    <g id="xtick_6">
     <g id="text_6">
      <!-- 126 -->
      <g style="fill: #444444" transform="translate(395.87405 229.840141)scale(0.09 -0.09)">
       <defs>
        <path id="ArialMT-32" d="M 3222 541 
L 3222 0 
L 194 0 
Q 188 203 259 391 
Q 375 700 629 1000 
Q 884 1300 1366 1694 
Q 2113 2306 2375 2664 
Q 2638 3022 2638 3341 
Q 2638 3675 2398 3904 
Q 2159 4134 1775 4134 
Q 1369 4134 1125 3890 
Q 881 3647 878 3216 
L 300 3275 
Q 359 3922 746 4261 
Q 1134 4600 1788 4600 
Q 2447 4600 2831 4234 
Q 3216 3869 3216 3328 
Q 3216 3053 3103 2787 
Q 2991 2522 2730 2228 
Q 2469 1934 1863 1422 
Q 1356 997 1212 845 
Q 1069 694 975 541 
L 3222 541 
z
" transform="scale(0.015625)"/>
       </defs>
       <use xlink:href="#ArialMT-31"/>
       <use xlink:href="#ArialMT-32" x="55.615234"/>
       <use xlink:href="#ArialMT-36" x="111.230469"/>
      </g>
     </g>
    </g>
    <g id="xtick_7">
     <g id="text_7">
      <!-- 62 -->
      <g style="fill: #444444" transform="translate(463.133075 229.840141)scale(0.09 -0.09)">
       <use xlink:href="#ArialMT-36"/>
       <use xlink:href="#ArialMT-32" x="55.615234"/>
      </g>
     </g>
    </g>
    <g id="text_8">
     <!-- Patient -->
     <g style="fill: #444444" transform="translate(259.859048 242.070923)scale(0.09 -0.09)">
      <defs>
       <path id="ArialMT-50" d="M 494 0 
L 494 4581 
L 2222 4581 
Q 2678 4581 2919 4538 
Q 3256 4481 3484 4323 
Q 3713 4166 3852 3881 
Q 3991 3597 3991 3256 
Q 3991 2672 3619 2267 
Q 3247 1863 2275 1863 
L 1100 1863 
L 1100 0 
L 494 0 
z
M 1100 2403 
L 2284 2403 
Q 2872 2403 3119 2622 
Q 3366 2841 3366 3238 
Q 3366 3525 3220 3729 
Q 3075 3934 2838 4000 
Q 2684 4041 2272 4041 
L 1100 4041 
L 1100 2403 
z
" transform="scale(0.015625)"/>
       <path id="ArialMT-61" d="M 2588 409 
Q 2275 144 1986 34 
Q 1697 -75 1366 -75 
Q 819 -75 525 192 
Q 231 459 231 875 
Q 231 1119 342 1320 
Q 453 1522 633 1644 
Q 813 1766 1038 1828 
Q 1203 1872 1538 1913 
Q 2219 1994 2541 2106 
Q 2544 2222 2544 2253 
Q 2544 2597 2384 2738 
Q 2169 2928 1744 2928 
Q 1347 2928 1158 2789 
Q 969 2650 878 2297 
L 328 2372 
Q 403 2725 575 2942 
Q 747 3159 1072 3276 
Q 1397 3394 1825 3394 
Q 2250 3394 2515 3294 
Q 2781 3194 2906 3042 
Q 3031 2891 3081 2659 
Q 3109 2516 3109 2141 
L 3109 1391 
Q 3109 606 3145 398 
Q 3181 191 3288 0 
L 2700 0 
Q 2613 175 2588 409 
z
M 2541 1666 
Q 2234 1541 1622 1453 
Q 1275 1403 1131 1340 
Q 988 1278 909 1158 
Q 831 1038 831 891 
Q 831 666 1001 516 
Q 1172 366 1500 366 
Q 1825 366 2078 508 
Q 2331 650 2450 897 
Q 2541 1088 2541 1459 
L 2541 1666 
z
" transform="scale(0.015625)"/>
       <path id="ArialMT-74" d="M 1650 503 
L 1731 6 
Q 1494 -44 1306 -44 
Q 1000 -44 831 53 
Q 663 150 594 308 
Q 525 466 525 972 
L 525 2881 
L 113 2881 
L 113 3319 
L 525 3319 
L 525 4141 
L 1084 4478 
L 1084 3319 
L 1650 3319 
L 1650 2881 
L 1084 2881 
L 1084 941 
Q 1084 700 1114 631 
Q 1144 563 1211 522 
Q 1278 481 1403 481 
Q 1497 481 1650 503 
z
" transform="scale(0.015625)"/>
       <path id="ArialMT-69" d="M 425 3934 
L 425 4581 
L 988 4581 
L 988 3934 
L 425 3934 
z
M 425 0 
L 425 3319 
L 988 3319 
L 988 0 
L 425 0 
z
" transform="scale(0.015625)"/>
       <path id="ArialMT-65" d="M 2694 1069 
L 3275 997 
Q 3138 488 2766 206 
Q 2394 -75 1816 -75 
Q 1088 -75 661 373 
Q 234 822 234 1631 
Q 234 2469 665 2931 
Q 1097 3394 1784 3394 
Q 2450 3394 2872 2941 
Q 3294 2488 3294 1666 
Q 3294 1616 3291 1516 
L 816 1516 
Q 847 969 1125 678 
Q 1403 388 1819 388 
Q 2128 388 2347 550 
Q 2566 713 2694 1069 
z
M 847 1978 
L 2700 1978 
Q 2663 2397 2488 2606 
Q 2219 2931 1791 2931 
Q 1403 2931 1139 2672 
Q 875 2413 847 1978 
z
" transform="scale(0.015625)"/>
       <path id="ArialMT-6e" d="M 422 0 
L 422 3319 
L 928 3319 
L 928 2847 
Q 1294 3394 1984 3394 
Q 2284 3394 2536 3286 
Q 2788 3178 2913 3003 
Q 3038 2828 3088 2588 
Q 3119 2431 3119 2041 
L 3119 0 
L 2556 0 
L 2556 2019 
Q 2556 2363 2490 2533 
Q 2425 2703 2258 2804 
Q 2091 2906 1866 2906 
Q 1506 2906 1245 2678 
Q 984 2450 984 1813 
L 984 0 
L 422 0 
z
" transform="scale(0.015625)"/>
      </defs>
      <use xlink:href="#ArialMT-50"/>
      <use xlink:href="#ArialMT-61" x="66.699219"/>
      <use xlink:href="#ArialMT-74" x="122.314453"/>
      <use xlink:href="#ArialMT-69" x="150.097656"/>
      <use xlink:href="#ArialMT-65" x="172.314453"/>
      <use xlink:href="#ArialMT-6e" x="227.929688"/>
      <use xlink:href="#ArialMT-74" x="283.544922"/>
     </g>
    </g>
   </g>
   <g id="matplotlib.axis_2">
    <g id="ytick_1">
     <g id="text_9">
      <!-- 100 -->
      <g style="fill: #444444" transform="translate(22.705469 200.660033)scale(0.09 -0.09)">
       <defs>
        <path id="ArialMT-30" d="M 266 2259 
Q 266 3072 433 3567 
Q 600 4063 929 4331 
Q 1259 4600 1759 4600 
Q 2128 4600 2406 4451 
Q 2684 4303 2865 4023 
Q 3047 3744 3150 3342 
Q 3253 2941 3253 2259 
Q 3253 1453 3087 958 
Q 2922 463 2592 192 
Q 2263 -78 1759 -78 
Q 1097 -78 719 397 
Q 266 969 266 2259 
z
M 844 2259 
Q 844 1131 1108 757 
Q 1372 384 1759 384 
Q 2147 384 2411 759 
Q 2675 1134 2675 2259 
Q 2675 3391 2411 3762 
Q 2147 4134 1753 4134 
Q 1366 4134 1134 3806 
Q 844 3388 844 2259 
z
" transform="scale(0.015625)"/>
       </defs>
       <use xlink:href="#ArialMT-31"/>
       <use xlink:href="#ArialMT-30" x="55.615234"/>
       <use xlink:href="#ArialMT-30" x="111.230469"/>
      </g>
     </g>
    </g>
    <g id="ytick_2">
     <g id="text_10">
      <!-- 200 -->
      <g style="fill: #444444" transform="translate(22.705469 177.555716)scale(0.09 -0.09)">
       <use xlink:href="#ArialMT-32"/>
       <use xlink:href="#ArialMT-30" x="55.615234"/>
       <use xlink:href="#ArialMT-30" x="111.230469"/>
      </g>
     </g>
    </g>
    <g id="ytick_3">
     <g id="text_11">
      <!-- 300 -->
      <g style="fill: #444444" transform="translate(22.705469 154.451399)scale(0.09 -0.09)">
       <defs>
        <path id="ArialMT-33" d="M 269 1209 
L 831 1284 
Q 928 806 1161 595 
Q 1394 384 1728 384 
Q 2125 384 2398 659 
Q 2672 934 2672 1341 
Q 2672 1728 2419 1979 
Q 2166 2231 1775 2231 
Q 1616 2231 1378 2169 
L 1441 2663 
Q 1497 2656 1531 2656 
Q 1891 2656 2178 2843 
Q 2466 3031 2466 3422 
Q 2466 3731 2256 3934 
Q 2047 4138 1716 4138 
Q 1388 4138 1169 3931 
Q 950 3725 888 3313 
L 325 3413 
Q 428 3978 793 4289 
Q 1159 4600 1703 4600 
Q 2078 4600 2393 4439 
Q 2709 4278 2876 4000 
Q 3044 3722 3044 3409 
Q 3044 3113 2884 2869 
Q 2725 2625 2413 2481 
Q 2819 2388 3044 2092 
Q 3269 1797 3269 1353 
Q 3269 753 2831 336 
Q 2394 -81 1725 -81 
Q 1122 -81 723 278 
Q 325 638 269 1209 
z
" transform="scale(0.015625)"/>
       </defs>
       <use xlink:href="#ArialMT-33"/>
       <use xlink:href="#ArialMT-30" x="55.615234"/>
       <use xlink:href="#ArialMT-30" x="111.230469"/>
      </g>
     </g>
    </g>
    <g id="ytick_4">
     <g id="text_12">
      <!-- 400 -->
      <g style="fill: #444444" transform="translate(22.705469 131.347082)scale(0.09 -0.09)">
       <use xlink:href="#ArialMT-34"/>
       <use xlink:href="#ArialMT-30" x="55.615234"/>
       <use xlink:href="#ArialMT-30" x="111.230469"/>
      </g>
     </g>
    </g>
    <g id="ytick_5">
     <g id="text_13">
      <!-- 500 -->
      <g style="fill: #444444" transform="translate(22.705469 108.242765)scale(0.09 -0.09)">
       <use xlink:href="#ArialMT-35"/>
       <use xlink:href="#ArialMT-30" x="55.615234"/>
       <use xlink:href="#ArialMT-30" x="111.230469"/>
      </g>
     </g>
    </g>
    <g id="ytick_6">
     <g id="text_14">
      <!-- 600 -->
      <g style="fill: #444444" transform="translate(22.705469 85.138448)scale(0.09 -0.09)">
       <use xlink:href="#ArialMT-36"/>
       <use xlink:href="#ArialMT-30" x="55.615234"/>
       <use xlink:href="#ArialMT-30" x="111.230469"/>
      </g>
     </g>
    </g>
    <g id="ytick_7">
     <g id="text_15">
      <!-- 700 -->
      <g style="fill: #444444" transform="translate(22.705469 62.034131)scale(0.09 -0.09)">
       <use xlink:href="#ArialMT-37"/>
       <use xlink:href="#ArialMT-30" x="55.615234"/>
       <use xlink:href="#ArialMT-30" x="111.230469"/>
      </g>
     </g>
    </g>
    <g id="ytick_8">
     <g id="text_16">
      <!-- 800 -->
      <g style="fill: #444444" transform="translate(22.705469 38.929814)scale(0.09 -0.09)">
       <defs>
        <path id="ArialMT-38" d="M 1131 2484 
Q 781 2613 612 2850 
Q 444 3088 444 3419 
Q 444 3919 803 4259 
Q 1163 4600 1759 4600 
Q 2359 4600 2725 4251 
Q 3091 3903 3091 3403 
Q 3091 3084 2923 2848 
Q 2756 2613 2416 2484 
Q 2838 2347 3058 2040 
Q 3278 1734 3278 1309 
Q 3278 722 2862 322 
Q 2447 -78 1769 -78 
Q 1091 -78 675 323 
Q 259 725 259 1325 
Q 259 1772 486 2073 
Q 713 2375 1131 2484 
z
M 1019 3438 
Q 1019 3113 1228 2906 
Q 1438 2700 1772 2700 
Q 2097 2700 2305 2904 
Q 2513 3109 2513 3406 
Q 2513 3716 2298 3927 
Q 2084 4138 1766 4138 
Q 1444 4138 1231 3931 
Q 1019 3725 1019 3438 
z
M 838 1322 
Q 838 1081 952 856 
Q 1066 631 1291 507 
Q 1516 384 1775 384 
Q 2178 384 2440 643 
Q 2703 903 2703 1303 
Q 2703 1709 2433 1975 
Q 2163 2241 1756 2241 
Q 1359 2241 1098 1978 
Q 838 1716 838 1322 
z
" transform="scale(0.015625)"/>
       </defs>
       <use xlink:href="#ArialMT-38"/>
       <use xlink:href="#ArialMT-30" x="55.615234"/>
       <use xlink:href="#ArialMT-30" x="111.230469"/>
      </g>
     </g>
    </g>
    <g id="text_17">
     <!-- Trimmed Means of M values (TMM) -->
     <g style="fill: #444444" transform="translate(16.81125 190.194993)rotate(-90)scale(0.09 -0.09)">
      <defs>
       <path id="ArialMT-54" d="M 1659 0 
L 1659 4041 
L 150 4041 
L 150 4581 
L 3781 4581 
L 3781 4041 
L 2266 4041 
L 2266 0 
L 1659 0 
z
" transform="scale(0.015625)"/>
       <path id="ArialMT-72" d="M 416 0 
L 416 3319 
L 922 3319 
L 922 2816 
Q 1116 3169 1280 3281 
Q 1444 3394 1641 3394 
Q 1925 3394 2219 3213 
L 2025 2691 
Q 1819 2813 1613 2813 
Q 1428 2813 1281 2702 
Q 1134 2591 1072 2394 
Q 978 2094 978 1738 
L 978 0 
L 416 0 
z
" transform="scale(0.015625)"/>
       <path id="ArialMT-6d" d="M 422 0 
L 422 3319 
L 925 3319 
L 925 2853 
Q 1081 3097 1340 3245 
Q 1600 3394 1931 3394 
Q 2300 3394 2536 3241 
Q 2772 3088 2869 2813 
Q 3263 3394 3894 3394 
Q 4388 3394 4653 3120 
Q 4919 2847 4919 2278 
L 4919 0 
L 4359 0 
L 4359 2091 
Q 4359 2428 4304 2576 
Q 4250 2725 4106 2815 
Q 3963 2906 3769 2906 
Q 3419 2906 3187 2673 
Q 2956 2441 2956 1928 
L 2956 0 
L 2394 0 
L 2394 2156 
Q 2394 2531 2256 2718 
Q 2119 2906 1806 2906 
Q 1569 2906 1367 2781 
Q 1166 2656 1075 2415 
Q 984 2175 984 1722 
L 984 0 
L 422 0 
z
" transform="scale(0.015625)"/>
       <path id="ArialMT-64" d="M 2575 0 
L 2575 419 
Q 2259 -75 1647 -75 
Q 1250 -75 917 144 
Q 584 363 401 755 
Q 219 1147 219 1656 
Q 219 2153 384 2558 
Q 550 2963 881 3178 
Q 1213 3394 1622 3394 
Q 1922 3394 2156 3267 
Q 2391 3141 2538 2938 
L 2538 4581 
L 3097 4581 
L 3097 0 
L 2575 0 
z
M 797 1656 
Q 797 1019 1065 703 
Q 1334 388 1700 388 
Q 2069 388 2326 689 
Q 2584 991 2584 1609 
Q 2584 2291 2321 2609 
Q 2059 2928 1675 2928 
Q 1300 2928 1048 2622 
Q 797 2316 797 1656 
z
" transform="scale(0.015625)"/>
       <path id="ArialMT-20" transform="scale(0.015625)"/>
       <path id="ArialMT-4d" d="M 475 0 
L 475 4581 
L 1388 4581 
L 2472 1338 
Q 2622 884 2691 659 
Q 2769 909 2934 1394 
L 4031 4581 
L 4847 4581 
L 4847 0 
L 4263 0 
L 4263 3834 
L 2931 0 
L 2384 0 
L 1059 3900 
L 1059 0 
L 475 0 
z
" transform="scale(0.015625)"/>
       <path id="ArialMT-73" d="M 197 991 
L 753 1078 
Q 800 744 1014 566 
Q 1228 388 1613 388 
Q 2000 388 2187 545 
Q 2375 703 2375 916 
Q 2375 1106 2209 1216 
Q 2094 1291 1634 1406 
Q 1016 1563 777 1677 
Q 538 1791 414 1992 
Q 291 2194 291 2438 
Q 291 2659 392 2848 
Q 494 3038 669 3163 
Q 800 3259 1026 3326 
Q 1253 3394 1513 3394 
Q 1903 3394 2198 3281 
Q 2494 3169 2634 2976 
Q 2775 2784 2828 2463 
L 2278 2388 
Q 2241 2644 2061 2787 
Q 1881 2931 1553 2931 
Q 1166 2931 1000 2803 
Q 834 2675 834 2503 
Q 834 2394 903 2306 
Q 972 2216 1119 2156 
Q 1203 2125 1616 2013 
Q 2213 1853 2448 1751 
Q 2684 1650 2818 1456 
Q 2953 1263 2953 975 
Q 2953 694 2789 445 
Q 2625 197 2315 61 
Q 2006 -75 1616 -75 
Q 969 -75 630 194 
Q 291 463 197 991 
z
" transform="scale(0.015625)"/>
       <path id="ArialMT-6f" d="M 213 1659 
Q 213 2581 725 3025 
Q 1153 3394 1769 3394 
Q 2453 3394 2887 2945 
Q 3322 2497 3322 1706 
Q 3322 1066 3130 698 
Q 2938 331 2570 128 
Q 2203 -75 1769 -75 
Q 1072 -75 642 372 
Q 213 819 213 1659 
z
M 791 1659 
Q 791 1022 1069 705 
Q 1347 388 1769 388 
Q 2188 388 2466 706 
Q 2744 1025 2744 1678 
Q 2744 2294 2464 2611 
Q 2184 2928 1769 2928 
Q 1347 2928 1069 2612 
Q 791 2297 791 1659 
z
" transform="scale(0.015625)"/>
       <path id="ArialMT-66" d="M 556 0 
L 556 2881 
L 59 2881 
L 59 3319 
L 556 3319 
L 556 3672 
Q 556 4006 616 4169 
Q 697 4388 901 4523 
Q 1106 4659 1475 4659 
Q 1713 4659 2000 4603 
L 1916 4113 
Q 1741 4144 1584 4144 
Q 1328 4144 1222 4034 
Q 1116 3925 1116 3625 
L 1116 3319 
L 1763 3319 
L 1763 2881 
L 1116 2881 
L 1116 0 
L 556 0 
z
" transform="scale(0.015625)"/>
       <path id="ArialMT-76" d="M 1344 0 
L 81 3319 
L 675 3319 
L 1388 1331 
Q 1503 1009 1600 663 
Q 1675 925 1809 1294 
L 2547 3319 
L 3125 3319 
L 1869 0 
L 1344 0 
z
" transform="scale(0.015625)"/>
       <path id="ArialMT-6c" d="M 409 0 
L 409 4581 
L 972 4581 
L 972 0 
L 409 0 
z
" transform="scale(0.015625)"/>
       <path id="ArialMT-75" d="M 2597 0 
L 2597 488 
Q 2209 -75 1544 -75 
Q 1250 -75 995 37 
Q 741 150 617 320 
Q 494 491 444 738 
Q 409 903 409 1263 
L 409 3319 
L 972 3319 
L 972 1478 
Q 972 1038 1006 884 
Q 1059 663 1231 536 
Q 1403 409 1656 409 
Q 1909 409 2131 539 
Q 2353 669 2445 892 
Q 2538 1116 2538 1541 
L 2538 3319 
L 3100 3319 
L 3100 0 
L 2597 0 
z
" transform="scale(0.015625)"/>
       <path id="ArialMT-28" d="M 1497 -1347 
Q 1031 -759 709 28 
Q 388 816 388 1659 
Q 388 2403 628 3084 
Q 909 3875 1497 4659 
L 1900 4659 
Q 1522 4009 1400 3731 
Q 1209 3300 1100 2831 
Q 966 2247 966 1656 
Q 966 153 1900 -1347 
L 1497 -1347 
z
" transform="scale(0.015625)"/>
       <path id="ArialMT-29" d="M 791 -1347 
L 388 -1347 
Q 1322 153 1322 1656 
Q 1322 2244 1188 2822 
Q 1081 3291 891 3722 
Q 769 4003 388 4659 
L 791 4659 
Q 1378 3875 1659 3084 
Q 1900 2403 1900 1659 
Q 1900 816 1576 28 
Q 1253 -759 791 -1347 
z
" transform="scale(0.015625)"/>
      </defs>
      <use xlink:href="#ArialMT-54"/>
      <use xlink:href="#ArialMT-72" x="57.333984"/>
      <use xlink:href="#ArialMT-69" x="90.634766"/>
      <use xlink:href="#ArialMT-6d" x="112.851562"/>
      <use xlink:href="#ArialMT-6d" x="196.152344"/>
      <use xlink:href="#ArialMT-65" x="279.453125"/>
      <use xlink:href="#ArialMT-64" x="335.068359"/>
      <use xlink:href="#ArialMT-20" x="390.683594"/>
      <use xlink:href="#ArialMT-4d" x="418.466797"/>
      <use xlink:href="#ArialMT-65" x="501.767578"/>
      <use xlink:href="#ArialMT-61" x="557.382812"/>
      <use xlink:href="#ArialMT-6e" x="612.998047"/>
      <use xlink:href="#ArialMT-73" x="668.613281"/>
      <use xlink:href="#ArialMT-20" x="718.613281"/>
      <use xlink:href="#ArialMT-6f" x="746.396484"/>
      <use xlink:href="#ArialMT-66" x="802.011719"/>
      <use xlink:href="#ArialMT-20" x="829.794922"/>
      <use xlink:href="#ArialMT-4d" x="857.578125"/>
      <use xlink:href="#ArialMT-20" x="940.878906"/>
      <use xlink:href="#ArialMT-76" x="968.662109"/>
      <use xlink:href="#ArialMT-61" x="1018.662109"/>
      <use xlink:href="#ArialMT-6c" x="1074.277344"/>
      <use xlink:href="#ArialMT-75" x="1096.494141"/>
      <use xlink:href="#ArialMT-65" x="1152.109375"/>
      <use xlink:href="#ArialMT-73" x="1207.724609"/>
      <use xlink:href="#ArialMT-20" x="1257.724609"/>
      <use xlink:href="#ArialMT-28" x="1285.507812"/>
      <use xlink:href="#ArialMT-54" x="1318.808594"/>
      <use xlink:href="#ArialMT-4d" x="1379.892578"/>
      <use xlink:href="#ArialMT-4d" x="1463.193359"/>
      <use xlink:href="#ArialMT-29" x="1546.494141"/>
     </g>
    </g>
   </g>
   <g id="PolyCollection_1">
    <defs>
     <path id="ma61162d474" d="M 83.291935 -98.201809 
L 75.904668 -98.201809 
L 75.790353 -98.968648 
L 75.676435 -99.735487 
L 75.563131 -100.502325 
L 75.450665 -101.269164 
L 75.33926 -102.036003 
L 75.229146 -102.802842 
L 75.12055 -103.56968 
L 75.013701 -104.336519 
L 74.908827 -105.103358 
L 74.806156 -105.870197 
L 74.705913 -106.637035 
L 74.608318 -107.403874 
L 74.513587 -108.170713 
L 74.421932 -108.937552 
L 74.333556 -109.704391 
L 74.248655 -110.471229 
L 74.167418 -111.238068 
L 74.09002 -112.004907 
L 74.016628 -112.771746 
L 73.947395 -113.538584 
L 73.882463 -114.305423 
L 73.821957 -115.072262 
L 73.765988 -115.839101 
L 73.714652 -116.605939 
L 73.668027 -117.372778 
L 73.626175 -118.139617 
L 73.589139 -118.906456 
L 73.556945 -119.673294 
L 73.529598 -120.440133 
L 73.507086 -121.206972 
L 73.489378 -121.973811 
L 73.476423 -122.740649 
L 73.468151 -123.507488 
L 73.464475 -124.274327 
L 73.465289 -125.041166 
L 73.470469 -125.808004 
L 73.479874 -126.574843 
L 73.493348 -127.341682 
L 73.51072 -128.108521 
L 73.531804 -128.87536 
L 73.556401 -129.642198 
L 73.584301 -130.409037 
L 73.615284 -131.175876 
L 73.64912 -131.942715 
L 73.685572 -132.709553 
L 73.724398 -133.476392 
L 73.765351 -134.243231 
L 73.808182 -135.01007 
L 73.852641 -135.776908 
L 73.898477 -136.543747 
L 73.945445 -137.310586 
L 73.993301 -138.077425 
L 74.041808 -138.844263 
L 74.090736 -139.611102 
L 74.139864 -140.377941 
L 74.188982 -141.14478 
L 74.237891 -141.911618 
L 74.286404 -142.678457 
L 74.334351 -143.445296 
L 74.381575 -144.212135 
L 74.427937 -144.978973 
L 74.473314 -145.745812 
L 74.517602 -146.512651 
L 74.560715 -147.27949 
L 74.602588 -148.046329 
L 74.643173 -148.813167 
L 74.682443 -149.580006 
L 74.720392 -150.346845 
L 74.757032 -151.113684 
L 74.792394 -151.880522 
L 74.82653 -152.647361 
L 74.859509 -153.4142 
L 74.891418 -154.181039 
L 74.922361 -154.947877 
L 74.952458 -155.714716 
L 74.981842 -156.481555 
L 75.010662 -157.248394 
L 75.039076 -158.015232 
L 75.067256 -158.782071 
L 75.095378 -159.54891 
L 75.12363 -160.315749 
L 75.152201 -161.082587 
L 75.181287 -161.849426 
L 75.211084 -162.616265 
L 75.241785 -163.383104 
L 75.273586 -164.149942 
L 75.306675 -164.916781 
L 75.341235 -165.68362 
L 75.377441 -166.450459 
L 75.415458 -167.217298 
L 75.455441 -167.984136 
L 75.497531 -168.750975 
L 75.541855 -169.517814 
L 75.588523 -170.284653 
L 75.63763 -171.051491 
L 75.689253 -171.81833 
L 75.74345 -172.585169 
L 75.800259 -173.352008 
L 75.859698 -174.118846 
L 83.336905 -174.118846 
L 83.336905 -174.118846 
L 83.396344 -173.352008 
L 83.453153 -172.585169 
L 83.507349 -171.81833 
L 83.558973 -171.051491 
L 83.60808 -170.284653 
L 83.654748 -169.517814 
L 83.699072 -168.750975 
L 83.741162 -167.984136 
L 83.781145 -167.217298 
L 83.819162 -166.450459 
L 83.855368 -165.68362 
L 83.889928 -164.916781 
L 83.923017 -164.149942 
L 83.954818 -163.383104 
L 83.985519 -162.616265 
L 84.015316 -161.849426 
L 84.044401 -161.082587 
L 84.072973 -160.315749 
L 84.101225 -159.54891 
L 84.129347 -158.782071 
L 84.157527 -158.015232 
L 84.185941 -157.248394 
L 84.214761 -156.481555 
L 84.244145 -155.714716 
L 84.274242 -154.947877 
L 84.305185 -154.181039 
L 84.337094 -153.4142 
L 84.370073 -152.647361 
L 84.404209 -151.880522 
L 84.439571 -151.113684 
L 84.476211 -150.346845 
L 84.51416 -149.580006 
L 84.55343 -148.813167 
L 84.594015 -148.046329 
L 84.635888 -147.27949 
L 84.679001 -146.512651 
L 84.723289 -145.745812 
L 84.768666 -144.978973 
L 84.815028 -144.212135 
L 84.862252 -143.445296 
L 84.910199 -142.678457 
L 84.958712 -141.911618 
L 85.007621 -141.14478 
L 85.056739 -140.377941 
L 85.105867 -139.611102 
L 85.154795 -138.844263 
L 85.203302 -138.077425 
L 85.251158 -137.310586 
L 85.298126 -136.543747 
L 85.343962 -135.776908 
L 85.388421 -135.01007 
L 85.431252 -134.243231 
L 85.472205 -133.476392 
L 85.511031 -132.709553 
L 85.547483 -131.942715 
L 85.581319 -131.175876 
L 85.612302 -130.409037 
L 85.640202 -129.642198 
L 85.664799 -128.87536 
L 85.685883 -128.108521 
L 85.703254 -127.341682 
L 85.716729 -126.574843 
L 85.726134 -125.808004 
L 85.731314 -125.041166 
L 85.732128 -124.274327 
L 85.728452 -123.507488 
L 85.72018 -122.740649 
L 85.707225 -121.973811 
L 85.689516 -121.206972 
L 85.667005 -120.440133 
L 85.639658 -119.673294 
L 85.607463 -118.906456 
L 85.570428 -118.139617 
L 85.528576 -117.372778 
L 85.481951 -116.605939 
L 85.430615 -115.839101 
L 85.374646 -115.072262 
L 85.31414 -114.305423 
L 85.249207 -113.538584 
L 85.179975 -112.771746 
L 85.106583 -112.004907 
L 85.029185 -111.238068 
L 84.947948 -110.471229 
L 84.863047 -109.704391 
L 84.774671 -108.937552 
L 84.683016 -108.170713 
L 84.588285 -107.403874 
L 84.49069 -106.637035 
L 84.390446 -105.870197 
L 84.287776 -105.103358 
L 84.182902 -104.336519 
L 84.076053 -103.56968 
L 83.967457 -102.802842 
L 83.857343 -102.036003 
L 83.745938 -101.269164 
L 83.633472 -100.502325 
L 83.520168 -99.735487 
L 83.40625 -98.968648 
L 83.291935 -98.201809 
z
" style="stroke: #999999; stroke-width: 2"/>
    </defs>
    <g clip-path="url(#p6118e2023f)">
     <use xlink:href="#ma61162d474" x="0" y="255.11811" style="fill: #ffffff; stroke: #999999; stroke-width: 2"/>
    </g>
   </g>
   <g id="PolyCollection_2">
    <defs>
     <path id="mf55e22485e" d="M 151.267867 -60.350764 
L 137.441942 -60.350764 
L 137.291883 -60.587751 
L 137.142582 -60.824738 
L 136.993322 -61.061725 
L 136.843308 -61.298712 
L 136.691674 -61.535699 
L 136.537489 -61.772686 
L 136.379771 -62.009673 
L 136.217495 -62.24666 
L 136.04961 -62.483647 
L 135.875046 -62.720634 
L 135.692732 -62.957621 
L 135.501606 -63.194608 
L 135.300636 -63.431595 
L 135.088827 -63.668582 
L 134.865238 -63.905569 
L 134.628998 -64.142556 
L 134.379315 -64.379543 
L 134.115495 -64.61653 
L 133.836945 -64.853517 
L 133.543193 -65.090504 
L 133.23389 -65.327491 
L 132.908822 -65.564478 
L 132.567919 -65.801465 
L 132.211255 -66.038452 
L 131.839055 -66.275439 
L 131.451696 -66.512426 
L 131.049711 -66.749413 
L 130.633782 -66.9864 
L 130.20474 -67.223387 
L 129.763563 -67.460374 
L 129.311366 -67.697361 
L 128.849394 -67.934348 
L 128.379015 -68.171335 
L 127.901707 -68.408322 
L 127.419047 -68.645309 
L 126.932702 -68.882296 
L 126.444409 -69.119283 
L 125.955963 -69.35627 
L 125.469206 -69.593257 
L 124.986006 -69.830244 
L 124.508243 -70.067231 
L 124.037795 -70.304218 
L 123.57652 -70.541205 
L 123.126243 -70.778192 
L 122.688739 -71.015179 
L 122.265722 -71.252166 
L 121.858829 -71.489153 
L 121.469611 -71.72614 
L 121.099519 -71.963127 
L 120.749897 -72.200114 
L 120.421974 -72.437101 
L 120.116854 -72.674088 
L 119.835516 -72.911075 
L 119.578807 -73.148062 
L 119.347444 -73.385049 
L 119.142009 -73.622036 
L 118.962952 -73.859023 
L 118.810597 -74.09601 
L 118.685142 -74.332997 
L 118.586667 -74.569984 
L 118.515137 -74.806971 
L 118.470414 -75.043958 
L 118.452263 -75.280945 
L 118.460359 -75.517932 
L 118.494299 -75.754919 
L 118.553608 -75.991906 
L 118.637754 -76.228893 
L 118.746149 -76.46588 
L 118.878166 -76.702867 
L 119.033142 -76.939854 
L 119.210388 -77.176841 
L 119.409197 -77.413828 
L 119.628849 -77.650815 
L 119.868614 -77.887802 
L 120.127762 -78.124789 
L 120.405564 -78.361776 
L 120.701292 -78.598763 
L 121.014224 -78.83575 
L 121.343646 -79.072736 
L 121.688848 -79.309723 
L 122.049126 -79.54671 
L 122.423779 -79.783697 
L 122.81211 -80.020684 
L 123.213421 -80.257671 
L 123.627011 -80.494658 
L 124.052174 -80.731645 
L 124.488197 -80.968632 
L 124.934354 -81.205619 
L 125.389907 -81.442606 
L 125.854102 -81.679593 
L 126.326168 -81.91658 
L 126.805315 -82.153567 
L 127.290731 -82.390554 
L 127.781587 -82.627541 
L 128.27703 -82.864528 
L 128.776192 -83.101515 
L 129.278183 -83.338502 
L 129.782098 -83.575489 
L 130.287022 -83.812476 
L 158.422787 -83.812476 
L 158.422787 -83.812476 
L 158.92771 -83.575489 
L 159.431626 -83.338502 
L 159.933617 -83.101515 
L 160.432778 -82.864528 
L 160.928222 -82.627541 
L 161.419078 -82.390554 
L 161.904494 -82.153567 
L 162.383641 -81.91658 
L 162.855707 -81.679593 
L 163.319902 -81.442606 
L 163.775455 -81.205619 
L 164.221612 -80.968632 
L 164.657635 -80.731645 
L 165.082798 -80.494658 
L 165.496388 -80.257671 
L 165.897699 -80.020684 
L 166.28603 -79.783697 
L 166.660683 -79.54671 
L 167.02096 -79.309723 
L 167.366162 -79.072736 
L 167.695584 -78.83575 
L 168.008517 -78.598763 
L 168.304245 -78.361776 
L 168.582047 -78.124789 
L 168.841195 -77.887802 
L 169.08096 -77.650815 
L 169.300611 -77.413828 
L 169.499421 -77.176841 
L 169.676667 -76.939854 
L 169.831643 -76.702867 
L 169.96366 -76.46588 
L 170.072055 -76.228893 
L 170.1562 -75.991906 
L 170.21551 -75.754919 
L 170.24945 -75.517932 
L 170.257546 -75.280945 
L 170.239394 -75.043958 
L 170.194672 -74.806971 
L 170.123142 -74.569984 
L 170.024667 -74.332997 
L 169.899212 -74.09601 
L 169.746857 -73.859023 
L 169.5678 -73.622036 
L 169.362365 -73.385049 
L 169.131001 -73.148062 
L 168.874293 -72.911075 
L 168.592955 -72.674088 
L 168.287835 -72.437101 
L 167.959911 -72.200114 
L 167.610289 -71.963127 
L 167.240198 -71.72614 
L 166.850979 -71.489153 
L 166.444087 -71.252166 
L 166.02107 -71.015179 
L 165.583566 -70.778192 
L 165.133289 -70.541205 
L 164.672014 -70.304218 
L 164.201565 -70.067231 
L 163.723802 -69.830244 
L 163.240602 -69.593257 
L 162.753845 -69.35627 
L 162.2654 -69.119283 
L 161.777107 -68.882296 
L 161.290761 -68.645309 
L 160.808102 -68.408322 
L 160.330794 -68.171335 
L 159.860414 -67.934348 
L 159.398442 -67.697361 
L 158.946245 -67.460374 
L 158.505069 -67.223387 
L 158.076027 -66.9864 
L 157.660098 -66.749413 
L 157.258113 -66.512426 
L 156.870754 -66.275439 
L 156.498554 -66.038452 
L 156.141889 -65.801465 
L 155.800986 -65.564478 
L 155.475919 -65.327491 
L 155.166616 -65.090504 
L 154.872863 -64.853517 
L 154.594314 -64.61653 
L 154.330493 -64.379543 
L 154.080811 -64.142556 
L 153.844571 -63.905569 
L 153.620982 -63.668582 
L 153.409173 -63.431595 
L 153.208202 -63.194608 
L 153.017077 -62.957621 
L 152.834763 -62.720634 
L 152.660199 -62.483647 
L 152.492313 -62.24666 
L 152.330038 -62.009673 
L 152.17232 -61.772686 
L 152.018135 -61.535699 
L 151.8665 -61.298712 
L 151.716487 -61.061725 
L 151.567227 -60.824738 
L 151.417926 -60.587751 
L 151.267867 -60.350764 
z
" style="stroke: #999999; stroke-width: 2"/>
    </defs>
    <g clip-path="url(#p6118e2023f)">
     <use xlink:href="#mf55e22485e" x="0" y="255.11811" style="fill: #ffffff; stroke: #999999; stroke-width: 2"/>
    </g>
   </g>
   <g id="PolyCollection_3">
    <defs>
     <path id="m90255ff112" d="M 213.782857 -69.023673 
L 204.440158 -69.023673 
L 204.373125 -69.807748 
L 204.310472 -70.591823 
L 204.252229 -71.375898 
L 204.198401 -72.159973 
L 204.148962 -72.944048 
L 204.103862 -73.728123 
L 204.063022 -74.512198 
L 204.026337 -75.296273 
L 203.993681 -76.080348 
L 203.964901 -76.864423 
L 203.939827 -77.648498 
L 203.918266 -78.432573 
L 203.900012 -79.216648 
L 203.88484 -80.000723 
L 203.872518 -80.784799 
L 203.8628 -81.568874 
L 203.855435 -82.352949 
L 203.850166 -83.137024 
L 203.846736 -83.921099 
L 203.844888 -84.705174 
L 203.844369 -85.489249 
L 203.844931 -86.273324 
L 203.846335 -87.057399 
L 203.848352 -87.841474 
L 203.850767 -88.625549 
L 203.853378 -89.409624 
L 203.856003 -90.193699 
L 203.858474 -90.977774 
L 203.860644 -91.761849 
L 203.862387 -92.545924 
L 203.863599 -93.33 
L 203.864197 -94.114075 
L 203.864119 -94.89815 
L 203.863328 -95.682225 
L 203.861808 -96.4663 
L 203.859565 -97.250375 
L 203.856626 -98.03445 
L 203.85304 -98.818525 
L 203.848874 -99.6026 
L 203.844213 -100.386675 
L 203.83916 -101.17075 
L 203.833833 -101.954825 
L 203.828364 -102.7389 
L 203.822897 -103.522975 
L 203.817585 -104.30705 
L 203.81259 -105.091125 
L 203.808082 -105.8752 
L 203.804233 -106.659276 
L 203.801218 -107.443351 
L 203.799215 -108.227426 
L 203.798397 -109.011501 
L 203.798938 -109.795576 
L 203.801004 -110.579651 
L 203.804757 -111.363726 
L 203.810351 -112.147801 
L 203.817931 -112.931876 
L 203.82763 -113.715951 
L 203.839574 -114.500026 
L 203.853873 -115.284101 
L 203.870626 -116.068176 
L 203.88992 -116.852251 
L 203.911826 -117.636326 
L 203.936403 -118.420401 
L 203.963694 -119.204477 
L 203.993731 -119.988552 
L 204.02653 -120.772627 
L 204.062094 -121.556702 
L 204.100414 -122.340777 
L 204.141469 -123.124852 
L 204.185223 -123.908927 
L 204.231634 -124.693002 
L 204.280646 -125.477077 
L 204.332194 -126.261152 
L 204.386207 -127.045227 
L 204.442604 -127.829302 
L 204.501298 -128.613377 
L 204.562196 -129.397452 
L 204.6252 -130.181527 
L 204.690209 -130.965602 
L 204.757117 -131.749677 
L 204.825818 -132.533753 
L 204.896201 -133.317828 
L 204.968157 -134.101903 
L 205.041575 -134.885978 
L 205.116344 -135.670053 
L 205.192354 -136.454128 
L 205.269495 -137.238203 
L 205.347661 -138.022278 
L 205.426743 -138.806353 
L 205.506639 -139.590428 
L 205.587245 -140.374503 
L 205.668459 -141.158578 
L 205.750185 -141.942653 
L 205.832323 -142.726728 
L 205.914781 -143.510803 
L 205.997464 -144.294878 
L 206.080281 -145.078953 
L 206.163143 -145.863029 
L 206.245962 -146.647104 
L 211.977052 -146.647104 
L 211.977052 -146.647104 
L 212.059871 -145.863029 
L 212.142734 -145.078953 
L 212.225551 -144.294878 
L 212.308234 -143.510803 
L 212.390691 -142.726728 
L 212.47283 -141.942653 
L 212.554555 -141.158578 
L 212.63577 -140.374503 
L 212.716376 -139.590428 
L 212.796271 -138.806353 
L 212.875354 -138.022278 
L 212.95352 -137.238203 
L 213.030661 -136.454128 
L 213.106671 -135.670053 
L 213.18144 -134.885978 
L 213.254857 -134.101903 
L 213.326813 -133.317828 
L 213.397197 -132.533753 
L 213.465897 -131.749677 
L 213.532806 -130.965602 
L 213.597815 -130.181527 
L 213.660819 -129.397452 
L 213.721717 -128.613377 
L 213.780411 -127.829302 
L 213.836807 -127.045227 
L 213.89082 -126.261152 
L 213.942369 -125.477077 
L 213.991381 -124.693002 
L 214.037791 -123.908927 
L 214.081546 -123.124852 
L 214.1226 -122.340777 
L 214.16092 -121.556702 
L 214.196485 -120.772627 
L 214.229283 -119.988552 
L 214.25932 -119.204477 
L 214.286612 -118.420401 
L 214.311188 -117.636326 
L 214.333094 -116.852251 
L 214.352388 -116.068176 
L 214.369142 -115.284101 
L 214.383441 -114.500026 
L 214.395384 -113.715951 
L 214.405084 -112.931876 
L 214.412663 -112.147801 
L 214.418257 -111.363726 
L 214.42201 -110.579651 
L 214.424077 -109.795576 
L 214.424617 -109.011501 
L 214.4238 -108.227426 
L 214.421796 -107.443351 
L 214.418782 -106.659276 
L 214.414933 -105.8752 
L 214.410424 -105.091125 
L 214.40543 -104.30705 
L 214.400118 -103.522975 
L 214.39465 -102.7389 
L 214.389181 -101.954825 
L 214.383855 -101.17075 
L 214.378802 -100.386675 
L 214.374141 -99.6026 
L 214.369975 -98.818525 
L 214.366388 -98.03445 
L 214.36345 -97.250375 
L 214.361207 -96.4663 
L 214.359687 -95.682225 
L 214.358896 -94.89815 
L 214.358818 -94.114075 
L 214.359415 -93.33 
L 214.360627 -92.545924 
L 214.362371 -91.761849 
L 214.364541 -90.977774 
L 214.367012 -90.193699 
L 214.369636 -89.409624 
L 214.372248 -88.625549 
L 214.374663 -87.841474 
L 214.37668 -87.057399 
L 214.378084 -86.273324 
L 214.378645 -85.489249 
L 214.378126 -84.705174 
L 214.376278 -83.921099 
L 214.372849 -83.137024 
L 214.36758 -82.352949 
L 214.360215 -81.568874 
L 214.350496 -80.784799 
L 214.338174 -80.000723 
L 214.323003 -79.216648 
L 214.304749 -78.432573 
L 214.283188 -77.648498 
L 214.258113 -76.864423 
L 214.229334 -76.080348 
L 214.196677 -75.296273 
L 214.159993 -74.512198 
L 214.119152 -73.728123 
L 214.074052 -72.944048 
L 214.024614 -72.159973 
L 213.970786 -71.375898 
L 213.912543 -70.591823 
L 213.84989 -69.807748 
L 213.782857 -69.023673 
z
" style="stroke: #999999; stroke-width: 2"/>
    </defs>
    <g clip-path="url(#p6118e2023f)">
     <use xlink:href="#m90255ff112" x="0" y="255.11811" style="fill: #ffffff; stroke: #999999; stroke-width: 2"/>
    </g>
   </g>
   <g id="PolyCollection_4">
    <defs>
     <path id="m0e6a9d8f16" d="M 277.267818 -83.332926 
L 270.468403 -83.332926 
L 270.370335 -84.542569 
L 270.275576 -85.752213 
L 270.184515 -86.961856 
L 270.097528 -88.1715 
L 270.014973 -89.381143 
L 269.937189 -90.590787 
L 269.86449 -91.80043 
L 269.797165 -93.010074 
L 269.735473 -94.219717 
L 269.679642 -95.429361 
L 269.629863 -96.639004 
L 269.586295 -97.848648 
L 269.549056 -99.058291 
L 269.518226 -100.267935 
L 269.493843 -101.477578 
L 269.475907 -102.687221 
L 269.464375 -103.896865 
L 269.459161 -105.106508 
L 269.460142 -106.316152 
L 269.467152 -107.525795 
L 269.47999 -108.735439 
L 269.498415 -109.945082 
L 269.522154 -111.154726 
L 269.550902 -112.364369 
L 269.584323 -113.574013 
L 269.622056 -114.783656 
L 269.663717 -115.9933 
L 269.708903 -117.202943 
L 269.757195 -118.412587 
L 269.808161 -119.62223 
L 269.861365 -120.831874 
L 269.916363 -122.041517 
L 269.972713 -123.25116 
L 270.029979 -124.460804 
L 270.087731 -125.670447 
L 270.145551 -126.880091 
L 270.203038 -128.089734 
L 270.25981 -129.299378 
L 270.315505 -130.509021 
L 270.369788 -131.718665 
L 270.422352 -132.928308 
L 270.47292 -134.137952 
L 270.521244 -135.347595 
L 270.567113 -136.557239 
L 270.61035 -137.766882 
L 270.650811 -138.976526 
L 270.688391 -140.186169 
L 270.723018 -141.395812 
L 270.754658 -142.605456 
L 270.783311 -143.815099 
L 270.809008 -145.024743 
L 270.831817 -146.234386 
L 270.851834 -147.44403 
L 270.869183 -148.653673 
L 270.884017 -149.863317 
L 270.896511 -151.07296 
L 270.906861 -152.282604 
L 270.915285 -153.492247 
L 270.922014 -154.701891 
L 270.927292 -155.911534 
L 270.931375 -157.121178 
L 270.934525 -158.330821 
L 270.937008 -159.540465 
L 270.939091 -160.750108 
L 270.941042 -161.959751 
L 270.943123 -163.169395 
L 270.94559 -164.379038 
L 270.94869 -165.588682 
L 270.95266 -166.798325 
L 270.957723 -168.007969 
L 270.964091 -169.217612 
L 270.971957 -170.427256 
L 270.981497 -171.636899 
L 270.992872 -172.846543 
L 271.006222 -174.056186 
L 271.021668 -175.26583 
L 271.039311 -176.475473 
L 271.059236 -177.685117 
L 271.081504 -178.89476 
L 271.106159 -180.104404 
L 271.133227 -181.314047 
L 271.162714 -182.52369 
L 271.19461 -183.733334 
L 271.228888 -184.942977 
L 271.265505 -186.152621 
L 271.304404 -187.362264 
L 271.345515 -188.571908 
L 271.388754 -189.781551 
L 271.434026 -190.991195 
L 271.481228 -192.200838 
L 271.530245 -193.410482 
L 271.580956 -194.620125 
L 271.633233 -195.829769 
L 271.686942 -197.039412 
L 271.741945 -198.249056 
L 271.7981 -199.458699 
L 271.855262 -200.668342 
L 271.913285 -201.877986 
L 271.972022 -203.087629 
L 275.764198 -203.087629 
L 275.764198 -203.087629 
L 275.822936 -201.877986 
L 275.880959 -200.668342 
L 275.938121 -199.458699 
L 275.994276 -198.249056 
L 276.049278 -197.039412 
L 276.102987 -195.829769 
L 276.155264 -194.620125 
L 276.205976 -193.410482 
L 276.254993 -192.200838 
L 276.302194 -190.991195 
L 276.347467 -189.781551 
L 276.390706 -188.571908 
L 276.431816 -187.362264 
L 276.470716 -186.152621 
L 276.507333 -184.942977 
L 276.541611 -183.733334 
L 276.573507 -182.52369 
L 276.602994 -181.314047 
L 276.630061 -180.104404 
L 276.654717 -178.89476 
L 276.676985 -177.685117 
L 276.696909 -176.475473 
L 276.714553 -175.26583 
L 276.729999 -174.056186 
L 276.743348 -172.846543 
L 276.754723 -171.636899 
L 276.764264 -170.427256 
L 276.772129 -169.217612 
L 276.778497 -168.007969 
L 276.783561 -166.798325 
L 276.787531 -165.588682 
L 276.790631 -164.379038 
L 276.793097 -163.169395 
L 276.795178 -161.959751 
L 276.797129 -160.750108 
L 276.799213 -159.540465 
L 276.801696 -158.330821 
L 276.804845 -157.121178 
L 276.808929 -155.911534 
L 276.814207 -154.701891 
L 276.820936 -153.492247 
L 276.829359 -152.282604 
L 276.83971 -151.07296 
L 276.852204 -149.863317 
L 276.867037 -148.653673 
L 276.884387 -147.44403 
L 276.904403 -146.234386 
L 276.927212 -145.024743 
L 276.95291 -143.815099 
L 276.981562 -142.605456 
L 277.013202 -141.395812 
L 277.047829 -140.186169 
L 277.085409 -138.976526 
L 277.125871 -137.766882 
L 277.169107 -136.557239 
L 277.214976 -135.347595 
L 277.263301 -134.137952 
L 277.313868 -132.928308 
L 277.366432 -131.718665 
L 277.420716 -130.509021 
L 277.476411 -129.299378 
L 277.533182 -128.089734 
L 277.590669 -126.880091 
L 277.64849 -125.670447 
L 277.706241 -124.460804 
L 277.763507 -123.25116 
L 277.819858 -122.041517 
L 277.874856 -120.831874 
L 277.928059 -119.62223 
L 277.979026 -118.412587 
L 278.027317 -117.202943 
L 278.072503 -115.9933 
L 278.114164 -114.783656 
L 278.151898 -113.574013 
L 278.185319 -112.364369 
L 278.214066 -111.154726 
L 278.237806 -109.945082 
L 278.256231 -108.735439 
L 278.269068 -107.525795 
L 278.276079 -106.316152 
L 278.277059 -105.106508 
L 278.271846 -103.896865 
L 278.260313 -102.687221 
L 278.242377 -101.477578 
L 278.217995 -100.267935 
L 278.187165 -99.058291 
L 278.149926 -97.848648 
L 278.106357 -96.639004 
L 278.056579 -95.429361 
L 278.000747 -94.219717 
L 277.939055 -93.010074 
L 277.87173 -91.80043 
L 277.799031 -90.590787 
L 277.721247 -89.381143 
L 277.638692 -88.1715 
L 277.551705 -86.961856 
L 277.460644 -85.752213 
L 277.365885 -84.542569 
L 277.267818 -83.332926 
z
" style="stroke: #999999; stroke-width: 2"/>
    </defs>
    <g clip-path="url(#p6118e2023f)">
     <use xlink:href="#m0e6a9d8f16" x="0" y="255.11811" style="fill: #ffffff; stroke: #999999; stroke-width: 2"/>
    </g>
   </g>
   <g id="PolyCollection_5">
    <defs>
     <path id="m3f39c7f851" d="M 346.625009 -90.505054 
L 330.624417 -90.505054 
L 330.410668 -90.945404 
L 330.199275 -91.385755 
L 329.990604 -91.826106 
L 329.785018 -92.266457 
L 329.582877 -92.706808 
L 329.384535 -93.147159 
L 329.190344 -93.58751 
L 329.000648 -94.027861 
L 328.815787 -94.468212 
L 328.636096 -94.908563 
L 328.4619 -95.348914 
L 328.293521 -95.789265 
L 328.131269 -96.229616 
L 327.975448 -96.669967 
L 327.826355 -97.110318 
L 327.684275 -97.550668 
L 327.549484 -97.991019 
L 327.422247 -98.43137 
L 327.302819 -98.871721 
L 327.191442 -99.312072 
L 327.088344 -99.752423 
L 326.99374 -100.192774 
L 326.907832 -100.633125 
L 326.830803 -101.073476 
L 326.762821 -101.513827 
L 326.704037 -101.954178 
L 326.654579 -102.394529 
L 326.61456 -102.83488 
L 326.584068 -103.275231 
L 326.563171 -103.715582 
L 326.551912 -104.155932 
L 326.550309 -104.596283 
L 326.558358 -105.036634 
L 326.576025 -105.476985 
L 326.60325 -105.917336 
L 326.639948 -106.357687 
L 326.686002 -106.798038 
L 326.741268 -107.238389 
L 326.805574 -107.67874 
L 326.878718 -108.119091 
L 326.96047 -108.559442 
L 327.050571 -108.999793 
L 327.148736 -109.440144 
L 327.25465 -109.880495 
L 327.367975 -110.320846 
L 327.488346 -110.761196 
L 327.615376 -111.201547 
L 327.748656 -111.641898 
L 327.887755 -112.082249 
L 328.032227 -112.5226 
L 328.181608 -112.962951 
L 328.335422 -113.403302 
L 328.493182 -113.843653 
L 328.654392 -114.284004 
L 328.81855 -114.724355 
L 328.985155 -115.164706 
L 329.153701 -115.605057 
L 329.323691 -116.045408 
L 329.494629 -116.485759 
L 329.666032 -116.92611 
L 329.837429 -117.366461 
L 330.008361 -117.806811 
L 330.178392 -118.247162 
L 330.347102 -118.687513 
L 330.514096 -119.127864 
L 330.679006 -119.568215 
L 330.841488 -120.008566 
L 331.001231 -120.448917 
L 331.157954 -120.889268 
L 331.311407 -121.329619 
L 331.461377 -121.76997 
L 331.607682 -122.210321 
L 331.750178 -122.650672 
L 331.888756 -123.091023 
L 332.023341 -123.531374 
L 332.153895 -123.971725 
L 332.280413 -124.412075 
L 332.402923 -124.852426 
L 332.521487 -125.292777 
L 332.636197 -125.733128 
L 332.747172 -126.173479 
L 332.85456 -126.61383 
L 332.958533 -127.054181 
L 333.059284 -127.494532 
L 333.157027 -127.934883 
L 333.251992 -128.375234 
L 333.344421 -128.815585 
L 333.434571 -129.255936 
L 333.522702 -129.696287 
L 333.609081 -130.136638 
L 333.693979 -130.576989 
L 333.777661 -131.017339 
L 333.860392 -131.45769 
L 333.942429 -131.898041 
L 334.024017 -132.338392 
L 334.105393 -132.778743 
L 334.186778 -133.219094 
L 334.268375 -133.659445 
L 334.350372 -134.099796 
L 342.899054 -134.099796 
L 342.899054 -134.099796 
L 342.981051 -133.659445 
L 343.062649 -133.219094 
L 343.144033 -132.778743 
L 343.225409 -132.338392 
L 343.306998 -131.898041 
L 343.389034 -131.45769 
L 343.471765 -131.017339 
L 343.555447 -130.576989 
L 343.640345 -130.136638 
L 343.726725 -129.696287 
L 343.814856 -129.255936 
L 343.905005 -128.815585 
L 343.997435 -128.375234 
L 344.092399 -127.934883 
L 344.190142 -127.494532 
L 344.290893 -127.054181 
L 344.394866 -126.61383 
L 344.502254 -126.173479 
L 344.613229 -125.733128 
L 344.727939 -125.292777 
L 344.846503 -124.852426 
L 344.969014 -124.412075 
L 345.095531 -123.971725 
L 345.226085 -123.531374 
L 345.36067 -123.091023 
L 345.499248 -122.650672 
L 345.641745 -122.210321 
L 345.78805 -121.76997 
L 345.938019 -121.329619 
L 346.091472 -120.889268 
L 346.248195 -120.448917 
L 346.407938 -120.008566 
L 346.570421 -119.568215 
L 346.73533 -119.127864 
L 346.902324 -118.687513 
L 347.071034 -118.247162 
L 347.241065 -117.806811 
L 347.411998 -117.366461 
L 347.583394 -116.92611 
L 347.754797 -116.485759 
L 347.925736 -116.045408 
L 348.095725 -115.605057 
L 348.264272 -115.164706 
L 348.430876 -114.724355 
L 348.595035 -114.284004 
L 348.756245 -113.843653 
L 348.914004 -113.403302 
L 349.067819 -112.962951 
L 349.2172 -112.5226 
L 349.361672 -112.082249 
L 349.500771 -111.641898 
L 349.63405 -111.201547 
L 349.76108 -110.761196 
L 349.881451 -110.320846 
L 349.994776 -109.880495 
L 350.100691 -109.440144 
L 350.198855 -108.999793 
L 350.288957 -108.559442 
L 350.370709 -108.119091 
L 350.443853 -107.67874 
L 350.508159 -107.238389 
L 350.563425 -106.798038 
L 350.609479 -106.357687 
L 350.646176 -105.917336 
L 350.673402 -105.476985 
L 350.691068 -105.036634 
L 350.699117 -104.596283 
L 350.697515 -104.155932 
L 350.686255 -103.715582 
L 350.665358 -103.275231 
L 350.634866 -102.83488 
L 350.594847 -102.394529 
L 350.54539 -101.954178 
L 350.486605 -101.513827 
L 350.418623 -101.073476 
L 350.341594 -100.633125 
L 350.255686 -100.192774 
L 350.161083 -99.752423 
L 350.057985 -99.312072 
L 349.946607 -98.871721 
L 349.827179 -98.43137 
L 349.699942 -97.991019 
L 349.565151 -97.550668 
L 349.423071 -97.110318 
L 349.273978 -96.669967 
L 349.118158 -96.229616 
L 348.955906 -95.789265 
L 348.787526 -95.348914 
L 348.61333 -94.908563 
L 348.433639 -94.468212 
L 348.248779 -94.027861 
L 348.059083 -93.58751 
L 347.864891 -93.147159 
L 347.666549 -92.706808 
L 347.464408 -92.266457 
L 347.258822 -91.826106 
L 347.050152 -91.385755 
L 346.838759 -90.945404 
L 346.625009 -90.505054 
z
" style="stroke: #999999; stroke-width: 2"/>
    </defs>
    <g clip-path="url(#p6118e2023f)">
     <use xlink:href="#m3f39c7f851" x="0" y="255.11811" style="fill: #ffffff; stroke: #999999; stroke-width: 2"/>
    </g>
   </g>
   <g id="PolyCollection_6">
    <defs>
     <path id="m78c715054d" d="M 425.576372 -49.837187 
L 381.186261 -49.837187 
L 380.973412 -50.074024 
L 380.789793 -50.310861 
L 380.635784 -50.547698 
L 380.51161 -50.784535 
L 380.417344 -51.021372 
L 380.352904 -51.258208 
L 380.318055 -51.495045 
L 380.312409 -51.731882 
L 380.335433 -51.968719 
L 380.386452 -52.205556 
L 380.464655 -52.442393 
L 380.569102 -52.67923 
L 380.698735 -52.916067 
L 380.852384 -53.152904 
L 381.028779 -53.389741 
L 381.226561 -53.626578 
L 381.444295 -53.863415 
L 381.680479 -54.100252 
L 381.933556 -54.337089 
L 382.201933 -54.573926 
L 382.483986 -54.810763 
L 382.778076 -55.0476 
L 383.082563 -55.284436 
L 383.395814 -55.521273 
L 383.716219 -55.75811 
L 384.042201 -55.994947 
L 384.372223 -56.231784 
L 384.704804 -56.468621 
L 385.038523 -56.705458 
L 385.372029 -56.942295 
L 385.704047 -57.179132 
L 386.033387 -57.415969 
L 386.358946 -57.652806 
L 386.679714 -57.889643 
L 386.994777 -58.12648 
L 387.303316 -58.363317 
L 387.604614 -58.600154 
L 387.89805 -58.836991 
L 388.183104 -59.073828 
L 388.459348 -59.310664 
L 388.726452 -59.547501 
L 388.984173 -59.784338 
L 389.232357 -60.021175 
L 389.470929 -60.258012 
L 389.699895 -60.494849 
L 389.919327 -60.731686 
L 390.129368 -60.968523 
L 390.330216 -61.20536 
L 390.522126 -61.442197 
L 390.705397 -61.679034 
L 390.880371 -61.915871 
L 391.047424 -62.152708 
L 391.206959 -62.389545 
L 391.359403 -62.626382 
L 391.505199 -62.863219 
L 391.644803 -63.100056 
L 391.778676 -63.336892 
L 391.907282 -63.573729 
L 392.031083 -63.810566 
L 392.150535 -64.047403 
L 392.266086 -64.28424 
L 392.378169 -64.521077 
L 392.487207 -64.757914 
L 392.593604 -64.994751 
L 392.697747 -65.231588 
L 392.800004 -65.468425 
L 392.900725 -65.705262 
L 393.000238 -65.942099 
L 393.098853 -66.178936 
L 393.196858 -66.415773 
L 393.294522 -66.65261 
L 393.392098 -66.889447 
L 393.489818 -67.126284 
L 393.587897 -67.36312 
L 393.686537 -67.599957 
L 393.785921 -67.836794 
L 393.886221 -68.073631 
L 393.987594 -68.310468 
L 394.090187 -68.547305 
L 394.194135 -68.784142 
L 394.299563 -69.020979 
L 394.406585 -69.257816 
L 394.515309 -69.494653 
L 394.625831 -69.73149 
L 394.738243 -69.968327 
L 394.852625 -70.205164 
L 394.969052 -70.442001 
L 395.087588 -70.678838 
L 395.208291 -70.915675 
L 395.33121 -71.152512 
L 395.456384 -71.389348 
L 395.583843 -71.626185 
L 395.713606 -71.863022 
L 395.845682 -72.099859 
L 395.980067 -72.336696 
L 396.116748 -72.573533 
L 396.255695 -72.81037 
L 396.396869 -73.047207 
L 396.540214 -73.284044 
L 410.222418 -73.284044 
L 410.222418 -73.284044 
L 410.365763 -73.047207 
L 410.506937 -72.81037 
L 410.645885 -72.573533 
L 410.782565 -72.336696 
L 410.916951 -72.099859 
L 411.049026 -71.863022 
L 411.178789 -71.626185 
L 411.306248 -71.389348 
L 411.431422 -71.152512 
L 411.554341 -70.915675 
L 411.675044 -70.678838 
L 411.79358 -70.442001 
L 411.910007 -70.205164 
L 412.024389 -69.968327 
L 412.136801 -69.73149 
L 412.247324 -69.494653 
L 412.356047 -69.257816 
L 412.463069 -69.020979 
L 412.568497 -68.784142 
L 412.672445 -68.547305 
L 412.775038 -68.310468 
L 412.876411 -68.073631 
L 412.976711 -67.836794 
L 413.076095 -67.599957 
L 413.174735 -67.36312 
L 413.272815 -67.126284 
L 413.370534 -66.889447 
L 413.46811 -66.65261 
L 413.565775 -66.415773 
L 413.663779 -66.178936 
L 413.762394 -65.942099 
L 413.861907 -65.705262 
L 413.962628 -65.468425 
L 414.064885 -65.231588 
L 414.169028 -64.994751 
L 414.275425 -64.757914 
L 414.384463 -64.521077 
L 414.496546 -64.28424 
L 414.612097 -64.047403 
L 414.731549 -63.810566 
L 414.85535 -63.573729 
L 414.983956 -63.336892 
L 415.117829 -63.100056 
L 415.257433 -62.863219 
L 415.403229 -62.626382 
L 415.555673 -62.389545 
L 415.715208 -62.152708 
L 415.882261 -61.915871 
L 416.057235 -61.679034 
L 416.240506 -61.442197 
L 416.432416 -61.20536 
L 416.633265 -60.968523 
L 416.843305 -60.731686 
L 417.062738 -60.494849 
L 417.291703 -60.258012 
L 417.530275 -60.021175 
L 417.778459 -59.784338 
L 418.03618 -59.547501 
L 418.303284 -59.310664 
L 418.579529 -59.073828 
L 418.864582 -58.836991 
L 419.158019 -58.600154 
L 419.459316 -58.363317 
L 419.767856 -58.12648 
L 420.082918 -57.889643 
L 420.403686 -57.652806 
L 420.729245 -57.415969 
L 421.058585 -57.179132 
L 421.390603 -56.942295 
L 421.724109 -56.705458 
L 422.057828 -56.468621 
L 422.390409 -56.231784 
L 422.720431 -55.994947 
L 423.046413 -55.75811 
L 423.366818 -55.521273 
L 423.68007 -55.284436 
L 423.984556 -55.0476 
L 424.278646 -54.810763 
L 424.560699 -54.573926 
L 424.829076 -54.337089 
L 425.082154 -54.100252 
L 425.318337 -53.863415 
L 425.536071 -53.626578 
L 425.733853 -53.389741 
L 425.910248 -53.152904 
L 426.063897 -52.916067 
L 426.19353 -52.67923 
L 426.297977 -52.442393 
L 426.37618 -52.205556 
L 426.427199 -51.968719 
L 426.450223 -51.731882 
L 426.444577 -51.495045 
L 426.409728 -51.258208 
L 426.345288 -51.021372 
L 426.251022 -50.784535 
L 426.126849 -50.547698 
L 425.972839 -50.310861 
L 425.78922 -50.074024 
L 425.576372 -49.837187 
z
" style="stroke: #999999; stroke-width: 2"/>
    </defs>
    <g clip-path="url(#p6118e2023f)">
     <use xlink:href="#m78c715054d" x="0" y="255.11811" style="fill: #ffffff; stroke: #999999; stroke-width: 2"/>
    </g>
   </g>
   <g id="PolyCollection_7">
    <defs>
     <path id="mb051f0db4b" d="M 475.314223 -165.34834 
L 460.961615 -165.34834 
L 460.764102 -165.922406 
L 460.571075 -166.496473 
L 460.383108 -167.070539 
L 460.200765 -167.644606 
L 460.024599 -168.218672 
L 459.855146 -168.792739 
L 459.692927 -169.366805 
L 459.53844 -169.940872 
L 459.39216 -170.514938 
L 459.254536 -171.089005 
L 459.12599 -171.663071 
L 459.00691 -172.237138 
L 458.897653 -172.811204 
L 458.798542 -173.385271 
L 458.70986 -173.959337 
L 458.631854 -174.533404 
L 458.564731 -175.10747 
L 458.508655 -175.681537 
L 458.463748 -176.255603 
L 458.43009 -176.82967 
L 458.407716 -177.403736 
L 458.396618 -177.977803 
L 458.396741 -178.551869 
L 458.407989 -179.125936 
L 458.430218 -179.700002 
L 458.463244 -180.274069 
L 458.506838 -180.848135 
L 458.560728 -181.422202 
L 458.624605 -181.996268 
L 458.698116 -182.570335 
L 458.780873 -183.144401 
L 458.872451 -183.718468 
L 458.972393 -184.292534 
L 459.080207 -184.866601 
L 459.195374 -185.440667 
L 459.317349 -186.014734 
L 459.445561 -186.5888 
L 459.57942 -187.162867 
L 459.718319 -187.736933 
L 459.861633 -188.311 
L 460.008731 -188.885066 
L 460.15897 -189.459133 
L 460.311706 -190.033199 
L 460.466294 -190.607266 
L 460.622091 -191.181332 
L 460.778464 -191.755399 
L 460.934788 -192.329465 
L 461.090454 -192.903532 
L 461.24487 -193.477598 
L 461.397466 -194.051665 
L 461.547698 -194.625731 
L 461.695048 -195.199798 
L 461.839032 -195.773864 
L 461.979197 -196.347931 
L 462.115129 -196.921997 
L 462.246453 -197.496064 
L 462.372835 -198.07013 
L 462.493983 -198.644197 
L 462.609651 -199.218263 
L 462.71964 -199.79233 
L 462.823796 -200.366396 
L 462.922011 -200.940463 
L 463.014228 -201.514529 
L 463.100434 -202.088596 
L 463.180663 -202.662662 
L 463.254996 -203.236729 
L 463.323557 -203.810795 
L 463.386512 -204.384862 
L 463.444069 -204.958928 
L 463.496472 -205.532995 
L 463.544003 -206.107061 
L 463.586974 -206.681128 
L 463.625728 -207.255194 
L 463.660633 -207.829261 
L 463.69208 -208.403327 
L 463.720479 -208.977394 
L 463.746254 -209.55146 
L 463.76984 -210.125527 
L 463.79168 -210.699593 
L 463.812218 -211.27366 
L 463.8319 -211.847726 
L 463.851165 -212.421793 
L 463.870444 -212.995859 
L 463.890156 -213.569926 
L 463.910706 -214.143992 
L 463.932477 -214.718059 
L 463.955834 -215.292125 
L 463.981115 -215.866192 
L 464.008632 -216.440258 
L 464.038669 -217.014325 
L 464.071477 -217.588391 
L 464.107278 -218.162458 
L 464.146258 -218.736524 
L 464.18857 -219.310591 
L 464.234332 -219.884657 
L 464.283626 -220.458724 
L 464.336502 -221.03279 
L 464.392975 -221.606857 
L 464.453025 -222.180923 
L 471.822813 -222.180923 
L 471.822813 -222.180923 
L 471.882863 -221.606857 
L 471.939336 -221.03279 
L 471.992212 -220.458724 
L 472.041506 -219.884657 
L 472.087268 -219.310591 
L 472.12958 -218.736524 
L 472.16856 -218.162458 
L 472.204361 -217.588391 
L 472.237169 -217.014325 
L 472.267206 -216.440258 
L 472.294723 -215.866192 
L 472.320004 -215.292125 
L 472.343361 -214.718059 
L 472.365132 -214.143992 
L 472.385682 -213.569926 
L 472.405394 -212.995859 
L 472.424673 -212.421793 
L 472.443938 -211.847726 
L 472.46362 -211.27366 
L 472.484158 -210.699593 
L 472.505998 -210.125527 
L 472.529584 -209.55146 
L 472.555359 -208.977394 
L 472.583758 -208.403327 
L 472.615205 -207.829261 
L 472.65011 -207.255194 
L 472.688864 -206.681128 
L 472.731835 -206.107061 
L 472.779366 -205.532995 
L 472.831769 -204.958928 
L 472.889326 -204.384862 
L 472.952281 -203.810795 
L 473.020842 -203.236729 
L 473.095175 -202.662662 
L 473.175404 -202.088596 
L 473.26161 -201.514529 
L 473.353827 -200.940463 
L 473.452042 -200.366396 
L 473.556198 -199.79233 
L 473.666187 -199.218263 
L 473.781855 -198.644197 
L 473.903004 -198.07013 
L 474.029385 -197.496064 
L 474.160709 -196.921997 
L 474.296641 -196.347931 
L 474.436806 -195.773864 
L 474.58079 -195.199798 
L 474.72814 -194.625731 
L 474.878372 -194.051665 
L 475.030968 -193.477598 
L 475.185384 -192.903532 
L 475.34105 -192.329465 
L 475.497374 -191.755399 
L 475.653747 -191.181332 
L 475.809544 -190.607266 
L 475.964132 -190.033199 
L 476.116868 -189.459133 
L 476.267107 -188.885066 
L 476.414205 -188.311 
L 476.557519 -187.736933 
L 476.696418 -187.162867 
L 476.830277 -186.5888 
L 476.958489 -186.014734 
L 477.080464 -185.440667 
L 477.195631 -184.866601 
L 477.303445 -184.292534 
L 477.403387 -183.718468 
L 477.494965 -183.144401 
L 477.577722 -182.570335 
L 477.651233 -181.996268 
L 477.71511 -181.422202 
L 477.769 -180.848135 
L 477.812594 -180.274069 
L 477.84562 -179.700002 
L 477.867849 -179.125936 
L 477.879097 -178.551869 
L 477.87922 -177.977803 
L 477.868122 -177.403736 
L 477.845748 -176.82967 
L 477.81209 -176.255603 
L 477.767183 -175.681537 
L 477.711107 -175.10747 
L 477.643984 -174.533404 
L 477.565978 -173.959337 
L 477.477296 -173.385271 
L 477.378185 -172.811204 
L 477.268928 -172.237138 
L 477.149848 -171.663071 
L 477.021302 -171.089005 
L 476.883678 -170.514938 
L 476.737398 -169.940872 
L 476.582911 -169.366805 
L 476.420692 -168.792739 
L 476.251239 -168.218672 
L 476.075073 -167.644606 
L 475.89273 -167.070539 
L 475.704763 -166.496473 
L 475.511736 -165.922406 
L 475.314223 -165.34834 
z
" style="stroke: #999999; stroke-width: 2"/>
    </defs>
    <g clip-path="url(#p6118e2023f)">
     <use xlink:href="#mb051f0db4b" x="0" y="255.11811" style="fill: #ffffff; stroke: #999999; stroke-width: 2"/>
    </g>
   </g>
   <g id="PathCollection_1"/>
   <g id="PathCollection_2"/>
   <g id="patch_3">
    <path d="M 47.22 213.89811 
L 47.22 24.32 
" style="fill: none; stroke: #262626; stroke-width: 1.25; stroke-linejoin: miter; stroke-linecap: square"/>
   </g>
   <g id="patch_4">
    <path d="M 47.22 213.89811 
L 500.51622 213.89811 
" style="fill: none; stroke: #262626; stroke-width: 1.25; stroke-linejoin: miter; stroke-linecap: square"/>
   </g>
   <g id="PathCollection_3">
    <defs>
     <path id="C0_0_a8d966e3fe" d="M 0 2.5 
C 0.663008 2.5 1.29895 2.236584 1.767767 1.767767 
C 2.236584 1.29895 2.5 0.663008 2.5 -0 
C 2.5 -0.663008 2.236584 -1.29895 1.767767 -1.767767 
C 1.29895 -2.236584 0.663008 -2.5 0 -2.5 
C -0.663008 -2.5 -1.29895 -2.236584 -1.767767 -1.767767 
C -2.236584 -1.29895 -2.5 -0.663008 -2.5 0 
C -2.5 0.663008 -2.236584 1.29895 -1.767767 1.767767 
C -1.29895 2.236584 -0.663008 2.5 0 2.5 
z
"/>
    </defs>
    <g clip-path="url(#p6118e2023f)">
     <use xlink:href="#C0_0_a8d966e3fe" x="82.418458" y="82.082656" style="fill: #4c72b0; fill-opacity: 0.75"/>
    </g>
    <g clip-path="url(#p6118e2023f)">
     <use xlink:href="#C0_0_a8d966e3fe" x="81.985672" y="80.999264" style="fill: #4c72b0; fill-opacity: 0.75"/>
    </g>
    <g clip-path="url(#p6118e2023f)">
     <use xlink:href="#C0_0_a8d966e3fe" x="79.98644" y="103.162946" style="fill: #4c72b0; fill-opacity: 0.75"/>
    </g>
    <g clip-path="url(#p6118e2023f)">
     <use xlink:href="#C0_0_a8d966e3fe" x="84.099262" y="118.293666" style="fill: #4c72b0; fill-opacity: 0.75"/>
    </g>
    <g clip-path="url(#p6118e2023f)">
     <use xlink:href="#C0_0_a8d966e3fe" x="81.093043" y="156.916301" style="fill: #dd8452; fill-opacity: 0.75"/>
    </g>
    <g clip-path="url(#p6118e2023f)">
     <use xlink:href="#C0_0_a8d966e3fe" x="74.8528" y="134.735792" style="fill: #dd8452; fill-opacity: 0.75"/>
    </g>
    <g clip-path="url(#p6118e2023f)">
     <use xlink:href="#C0_0_a8d966e3fe" x="85.56066" y="141.277761" style="fill: #dd8452; fill-opacity: 0.75"/>
    </g>
    <g clip-path="url(#p6118e2023f)">
     <use xlink:href="#C0_0_a8d966e3fe" x="75.125786" y="129.569244" style="fill: #dd8452; fill-opacity: 0.75"/>
    </g>
   </g>
   <g id="PathCollection_4">
    <defs>
     <path id="C1_0_df08b0bf89" d="M 0 2.5 
C 0.663008 2.5 1.29895 2.236584 1.767767 1.767767 
C 2.236584 1.29895 2.5 0.663008 2.5 -0 
C 2.5 -0.663008 2.236584 -1.29895 1.767767 -1.767767 
C 1.29895 -2.236584 0.663008 -2.5 0 -2.5 
C -0.663008 -2.5 -1.29895 -2.236584 -1.767767 -1.767767 
C -2.236584 -1.29895 -2.5 -0.663008 -2.5 0 
C -2.5 0.663008 -2.236584 1.29895 -1.767767 1.767767 
C -1.29895 2.236584 -0.663008 2.5 0 2.5 
z
"/>
    </defs>
    <g clip-path="url(#p6118e2023f)">
     <use xlink:href="#C1_0_df08b0bf89" x="146.781231" y="186.391333" style="fill: #4c72b0; fill-opacity: 0.75"/>
    </g>
    <g clip-path="url(#p6118e2023f)">
     <use xlink:href="#C1_0_df08b0bf89" x="148.308068" y="194.767346" style="fill: #4c72b0; fill-opacity: 0.75"/>
    </g>
    <g clip-path="url(#p6118e2023f)">
     <use xlink:href="#C1_0_df08b0bf89" x="144.348345" y="182.17501" style="fill: #4c72b0; fill-opacity: 0.75"/>
    </g>
    <g clip-path="url(#p6118e2023f)">
     <use xlink:href="#C1_0_df08b0bf89" x="139.57734" y="171.305634" style="fill: #4c72b0; fill-opacity: 0.75"/>
    </g>
    <g clip-path="url(#p6118e2023f)">
     <use xlink:href="#C1_0_df08b0bf89" x="144.720502" y="175.94037" style="fill: #dd8452; fill-opacity: 0.75"/>
    </g>
    <g clip-path="url(#p6118e2023f)">
     <use xlink:href="#C1_0_df08b0bf89" x="143.467004" y="181.393008" style="fill: #dd8452; fill-opacity: 0.75"/>
    </g>
    <g clip-path="url(#p6118e2023f)">
     <use xlink:href="#C1_0_df08b0bf89" x="138.632748" y="180.942809" style="fill: #dd8452; fill-opacity: 0.75"/>
    </g>
    <g clip-path="url(#p6118e2023f)">
     <use xlink:href="#C1_0_df08b0bf89" x="146.471558" y="175.635447" style="fill: #dd8452; fill-opacity: 0.75"/>
    </g>
   </g>
   <g id="PathCollection_5">
    <defs>
     <path id="C2_0_96ff2bda96" d="M 0 2.5 
C 0.663008 2.5 1.29895 2.236584 1.767767 1.767767 
C 2.236584 1.29895 2.5 0.663008 2.5 -0 
C 2.5 -0.663008 2.236584 -1.29895 1.767767 -1.767767 
C 1.29895 -2.236584 0.663008 -2.5 0 -2.5 
C -0.663008 -2.5 -1.29895 -2.236584 -1.767767 -1.767767 
C -2.236584 -1.29895 -2.5 -0.663008 -2.5 0 
C -2.5 0.663008 -2.236584 1.29895 -1.767767 1.767767 
C -1.29895 2.236584 -0.663008 2.5 0 2.5 
z
"/>
    </defs>
    <g clip-path="url(#p6118e2023f)">
     <use xlink:href="#C2_0_96ff2bda96" x="209.796957" y="108.471007" style="fill: #4c72b0; fill-opacity: 0.75"/>
    </g>
    <g clip-path="url(#p6118e2023f)">
     <use xlink:href="#C2_0_96ff2bda96" x="215.32911" y="158.819198" style="fill: #4c72b0; fill-opacity: 0.75"/>
    </g>
    <g clip-path="url(#p6118e2023f)">
     <use xlink:href="#C2_0_96ff2bda96" x="203.118253" y="186.094438" style="fill: #4c72b0; fill-opacity: 0.75"/>
    </g>
    <g clip-path="url(#p6118e2023f)">
     <use xlink:href="#C2_0_96ff2bda96" x="209.76317" y="126.910622" style="fill: #4c72b0; fill-opacity: 0.75"/>
    </g>
    <g clip-path="url(#p6118e2023f)">
     <use xlink:href="#C2_0_96ff2bda96" x="204.442839" y="141.258739" style="fill: #dd8452; fill-opacity: 0.75"/>
    </g>
    <g clip-path="url(#p6118e2023f)">
     <use xlink:href="#C2_0_96ff2bda96" x="206.729639" y="140.959531" style="fill: #dd8452; fill-opacity: 0.75"/>
    </g>
    <g clip-path="url(#p6118e2023f)">
     <use xlink:href="#C2_0_96ff2bda96" x="206.679858" y="180.905546" style="fill: #dd8452; fill-opacity: 0.75"/>
    </g>
    <g clip-path="url(#p6118e2023f)">
     <use xlink:href="#C2_0_96ff2bda96" x="205.998512" y="183.283849" style="fill: #dd8452; fill-opacity: 0.75"/>
    </g>
   </g>
   <g id="PathCollection_6">
    <defs>
     <path id="C3_0_cd695f9d5e" d="M 0 2.5 
C 0.663008 2.5 1.29895 2.236584 1.767767 1.767767 
C 2.236584 1.29895 2.5 0.663008 2.5 -0 
C 2.5 -0.663008 2.236584 -1.29895 1.767767 -1.767767 
C 1.29895 -2.236584 0.663008 -2.5 0 -2.5 
C -0.663008 -2.5 -1.29895 -2.236584 -1.767767 -1.767767 
C -2.236584 -1.29895 -2.5 -0.663008 -2.5 0 
C -2.5 0.663008 -2.236584 1.29895 -1.767767 1.767767 
C -1.29895 2.236584 -0.663008 2.5 0 2.5 
z
"/>
    </defs>
    <g clip-path="url(#p6118e2023f)">
     <use xlink:href="#C3_0_cd695f9d5e" x="274.451629" y="156.314632" style="fill: #4c72b0; fill-opacity: 0.75"/>
    </g>
    <g clip-path="url(#p6118e2023f)">
     <use xlink:href="#C3_0_cd695f9d5e" x="278.322753" y="171.785184" style="fill: #4c72b0; fill-opacity: 0.75"/>
    </g>
    <g clip-path="url(#p6118e2023f)">
     <use xlink:href="#C3_0_cd695f9d5e" x="273.07848" y="152.881658" style="fill: #4c72b0; fill-opacity: 0.75"/>
    </g>
    <g clip-path="url(#p6118e2023f)">
     <use xlink:href="#C3_0_cd695f9d5e" x="273.855386" y="145.64241" style="fill: #4c72b0; fill-opacity: 0.75"/>
    </g>
    <g clip-path="url(#p6118e2023f)">
     <use xlink:href="#C3_0_cd695f9d5e" x="275.644752" y="153.301028" style="fill: #4c72b0; fill-opacity: 0.75"/>
    </g>
    <g clip-path="url(#p6118e2023f)">
     <use xlink:href="#C3_0_cd695f9d5e" x="277.895645" y="93.891526" style="fill: #dd8452; fill-opacity: 0.75"/>
    </g>
    <g clip-path="url(#p6118e2023f)">
     <use xlink:href="#C3_0_cd695f9d5e" x="267.992032" y="73.688629" style="fill: #dd8452; fill-opacity: 0.75"/>
    </g>
    <g clip-path="url(#p6118e2023f)">
     <use xlink:href="#C3_0_cd695f9d5e" x="267.432304" y="87.214325" style="fill: #dd8452; fill-opacity: 0.75"/>
    </g>
    <g clip-path="url(#p6118e2023f)">
     <use xlink:href="#C3_0_cd695f9d5e" x="267.584451" y="52.030481" style="fill: #dd8452; fill-opacity: 0.75"/>
    </g>
    <g clip-path="url(#p6118e2023f)">
     <use xlink:href="#C3_0_cd695f9d5e" x="276.494833" y="131.177216" style="fill: #dd8452; fill-opacity: 0.75"/>
    </g>
   </g>
   <g id="PathCollection_7">
    <defs>
     <path id="C4_0_2b948c70ba" d="M 0 2.5 
C 0.663008 2.5 1.29895 2.236584 1.767767 1.767767 
C 2.236584 1.29895 2.5 0.663008 2.5 -0 
C 2.5 -0.663008 2.236584 -1.29895 1.767767 -1.767767 
C 1.29895 -2.236584 0.663008 -2.5 0 -2.5 
C -0.663008 -2.5 -1.29895 -2.236584 -1.767767 -1.767767 
C -2.236584 -1.29895 -2.5 -0.663008 -2.5 0 
C -2.5 0.663008 -2.236584 1.29895 -1.767767 1.767767 
C -1.29895 2.236584 -0.663008 2.5 0 2.5 
z
"/>
    </defs>
    <g clip-path="url(#p6118e2023f)">
     <use xlink:href="#C4_0_2b948c70ba" x="343.192043" y="121.018314" style="fill: #4c72b0; fill-opacity: 0.75"/>
    </g>
    <g clip-path="url(#p6118e2023f)">
     <use xlink:href="#C4_0_2b948c70ba" x="340.972415" y="138.816636" style="fill: #4c72b0; fill-opacity: 0.75"/>
    </g>
    <g clip-path="url(#p6118e2023f)">
     <use xlink:href="#C4_0_2b948c70ba" x="342.041428" y="147.852166" style="fill: #4c72b0; fill-opacity: 0.75"/>
    </g>
    <g clip-path="url(#p6118e2023f)">
     <use xlink:href="#C4_0_2b948c70ba" x="342.296113" y="148.857685" style="fill: #dd8452; fill-opacity: 0.75"/>
    </g>
    <g clip-path="url(#p6118e2023f)">
     <use xlink:href="#C4_0_2b948c70ba" x="338.410837" y="164.613057" style="fill: #dd8452; fill-opacity: 0.75"/>
    </g>
    <g clip-path="url(#p6118e2023f)">
     <use xlink:href="#C4_0_2b948c70ba" x="340.274207" y="157.548864" style="fill: #dd8452; fill-opacity: 0.75"/>
    </g>
   </g>
   <g id="PathCollection_8">
    <defs>
     <path id="C5_0_67e6e693e3" d="M 0 2.5 
C 0.663008 2.5 1.29895 2.236584 1.767767 1.767767 
C 2.236584 1.29895 2.5 0.663008 2.5 -0 
C 2.5 -0.663008 2.236584 -1.29895 1.767767 -1.767767 
C 1.29895 -2.236584 0.663008 -2.5 0 -2.5 
C -0.663008 -2.5 -1.29895 -2.236584 -1.767767 -1.767767 
C -2.236584 -1.29895 -2.5 -0.663008 -2.5 0 
C -2.5 0.663008 -2.236584 1.29895 -1.767767 1.767767 
C -1.29895 2.236584 -0.663008 2.5 0 2.5 
z
"/>
    </defs>
    <g clip-path="url(#p6118e2023f)">
     <use xlink:href="#C5_0_67e6e693e3" x="405.38315" y="194.143077" style="fill: #4c72b0; fill-opacity: 0.75"/>
    </g>
    <g clip-path="url(#p6118e2023f)">
     <use xlink:href="#C5_0_67e6e693e3" x="407.194266" y="181.834066" style="fill: #4c72b0; fill-opacity: 0.75"/>
    </g>
    <g clip-path="url(#p6118e2023f)">
     <use xlink:href="#C5_0_67e6e693e3" x="400.833431" y="202.5765" style="fill: #4c72b0; fill-opacity: 0.75"/>
    </g>
    <g clip-path="url(#p6118e2023f)">
     <use xlink:href="#C5_0_67e6e693e3" x="401.616904" y="189.347029" style="fill: #4c72b0; fill-opacity: 0.75"/>
    </g>
    <g clip-path="url(#p6118e2023f)">
     <use xlink:href="#C5_0_67e6e693e3" x="402.928909" y="205.100615" style="fill: #dd8452; fill-opacity: 0.75"/>
    </g>
    <g clip-path="url(#p6118e2023f)">
     <use xlink:href="#C5_0_67e6e693e3" x="400.82079" y="203.307184" style="fill: #dd8452; fill-opacity: 0.75"/>
    </g>
    <g clip-path="url(#p6118e2023f)">
     <use xlink:href="#C5_0_67e6e693e3" x="399.857356" y="204.557258" style="fill: #dd8452; fill-opacity: 0.75"/>
    </g>
    <g clip-path="url(#p6118e2023f)">
     <use xlink:href="#C5_0_67e6e693e3" x="409.327834" y="205.280923" style="fill: #dd8452; fill-opacity: 0.75"/>
    </g>
   </g>
   <g id="PathCollection_9">
    <defs>
     <path id="C6_0_01b3bb615f" d="M 0 2.5 
C 0.663008 2.5 1.29895 2.236584 1.767767 1.767767 
C 2.236584 1.29895 2.5 0.663008 2.5 -0 
C 2.5 -0.663008 2.236584 -1.29895 1.767767 -1.767767 
C 1.29895 -2.236584 0.663008 -2.5 0 -2.5 
C -0.663008 -2.5 -1.29895 -2.236584 -1.767767 -1.767767 
C -2.236584 -1.29895 -2.5 -0.663008 -2.5 0 
C -2.5 0.663008 -2.236584 1.29895 -1.767767 1.767767 
C -1.29895 2.236584 -0.663008 2.5 0 2.5 
z
"/>
    </defs>
    <g clip-path="url(#p6118e2023f)">
     <use xlink:href="#C6_0_01b3bb615f" x="465.470949" y="32.937187" style="fill: #4c72b0; fill-opacity: 0.75"/>
    </g>
    <g clip-path="url(#p6118e2023f)">
     <use xlink:href="#C6_0_01b3bb615f" x="468.54339" y="65.441619" style="fill: #4c72b0; fill-opacity: 0.75"/>
    </g>
    <g clip-path="url(#p6118e2023f)">
     <use xlink:href="#C6_0_01b3bb615f" x="471.687702" y="68.664874" style="fill: #4c72b0; fill-opacity: 0.75"/>
    </g>
    <g clip-path="url(#p6118e2023f)">
     <use xlink:href="#C6_0_01b3bb615f" x="473.881424" y="89.769771" style="fill: #4c72b0; fill-opacity: 0.75"/>
    </g>
    <g clip-path="url(#p6118e2023f)">
     <use xlink:href="#C6_0_01b3bb615f" x="463.90938" y="83.881526" style="fill: #dd8452; fill-opacity: 0.75"/>
    </g>
    <g clip-path="url(#p6118e2023f)">
     <use xlink:href="#C6_0_01b3bb615f" x="465.034915" y="76.780617" style="fill: #dd8452; fill-opacity: 0.75"/>
    </g>
    <g clip-path="url(#p6118e2023f)">
     <use xlink:href="#C6_0_01b3bb615f" x="467.677607" y="78.67782" style="fill: #dd8452; fill-opacity: 0.75"/>
    </g>
    <g clip-path="url(#p6118e2023f)">
     <use xlink:href="#C6_0_01b3bb615f" x="467.903608" y="41.342558" style="fill: #dd8452; fill-opacity: 0.75"/>
    </g>
   </g>
   <g id="text_18">
    <!-- CLU, $p_{adj}$ &lt; .001 *** -->
    <g style="fill: #262626" transform="translate(47.22 18.32)scale(0.09 -0.09)">
     <defs>
      <path id="ArialMT-43" d="M 3763 1606 
L 4369 1453 
Q 4178 706 3683 314 
Q 3188 -78 2472 -78 
Q 1731 -78 1267 223 
Q 803 525 561 1097 
Q 319 1669 319 2325 
Q 319 3041 592 3573 
Q 866 4106 1370 4382 
Q 1875 4659 2481 4659 
Q 3169 4659 3637 4309 
Q 4106 3959 4291 3325 
L 3694 3184 
Q 3534 3684 3231 3912 
Q 2928 4141 2469 4141 
Q 1941 4141 1586 3887 
Q 1231 3634 1087 3207 
Q 944 2781 944 2328 
Q 944 1744 1114 1308 
Q 1284 872 1643 656 
Q 2003 441 2422 441 
Q 2931 441 3284 734 
Q 3638 1028 3763 1606 
z
" transform="scale(0.015625)"/>
      <path id="ArialMT-4c" d="M 469 0 
L 469 4581 
L 1075 4581 
L 1075 541 
L 3331 541 
L 3331 0 
L 469 0 
z
" transform="scale(0.015625)"/>
      <path id="ArialMT-55" d="M 3500 4581 
L 4106 4581 
L 4106 1934 
Q 4106 1244 3950 837 
Q 3794 431 3386 176 
Q 2978 -78 2316 -78 
Q 1672 -78 1262 144 
Q 853 366 678 786 
Q 503 1206 503 1934 
L 503 4581 
L 1109 4581 
L 1109 1938 
Q 1109 1341 1220 1058 
Q 1331 775 1601 622 
Q 1872 469 2263 469 
Q 2931 469 3215 772 
Q 3500 1075 3500 1938 
L 3500 4581 
z
" transform="scale(0.015625)"/>
      <path id="ArialMT-2c" d="M 569 0 
L 569 641 
L 1209 641 
L 1209 0 
Q 1209 -353 1084 -570 
Q 959 -788 688 -906 
L 531 -666 
Q 709 -588 793 -436 
Q 878 -284 888 0 
L 569 0 
z
" transform="scale(0.015625)"/>
      <path id="DejaVuSans-Oblique-70" d="M 3175 2156 
Q 3175 2616 2975 2859 
Q 2775 3103 2400 3103 
Q 2144 3103 1911 2972 
Q 1678 2841 1497 2591 
Q 1319 2344 1212 1994 
Q 1106 1644 1106 1300 
Q 1106 863 1306 627 
Q 1506 391 1875 391 
Q 2147 391 2380 519 
Q 2613 647 2778 891 
Q 2956 1147 3065 1494 
Q 3175 1841 3175 2156 
z
M 1394 2969 
Q 1625 3272 1939 3428 
Q 2253 3584 2638 3584 
Q 3175 3584 3472 3232 
Q 3769 2881 3769 2247 
Q 3769 1728 3584 1258 
Q 3400 788 3053 416 
Q 2822 169 2531 39 
Q 2241 -91 1919 -91 
Q 1547 -91 1294 64 
Q 1041 219 916 525 
L 556 -1331 
L -19 -1331 
L 922 3500 
L 1497 3500 
L 1394 2969 
z
" transform="scale(0.015625)"/>
      <path id="DejaVuSans-Oblique-61" d="M 3438 1997 
L 3047 0 
L 2472 0 
L 2578 531 
Q 2325 219 2001 64 
Q 1678 -91 1281 -91 
Q 834 -91 548 182 
Q 263 456 263 884 
Q 263 1497 752 1853 
Q 1241 2209 2100 2209 
L 2900 2209 
L 2931 2363 
Q 2938 2388 2941 2417 
Q 2944 2447 2944 2509 
Q 2944 2788 2717 2942 
Q 2491 3097 2081 3097 
Q 1800 3097 1504 3025 
Q 1209 2953 897 2809 
L 997 3341 
Q 1322 3463 1633 3523 
Q 1944 3584 2234 3584 
Q 2853 3584 3176 3315 
Q 3500 3047 3500 2534 
Q 3500 2431 3484 2292 
Q 3469 2153 3438 1997 
z
M 2816 1759 
L 2241 1759 
Q 1534 1759 1195 1570 
Q 856 1381 856 984 
Q 856 709 1029 553 
Q 1203 397 1509 397 
Q 1978 397 2328 733 
Q 2678 1069 2791 1631 
L 2816 1759 
z
" transform="scale(0.015625)"/>
      <path id="DejaVuSans-Oblique-64" d="M 2675 525 
Q 2444 222 2128 65 
Q 1813 -91 1428 -91 
Q 903 -91 598 267 
Q 294 625 294 1247 
Q 294 1766 478 2236 
Q 663 2706 1013 3078 
Q 1244 3325 1534 3454 
Q 1825 3584 2144 3584 
Q 2481 3584 2739 3421 
Q 2997 3259 3138 2956 
L 3513 4863 
L 4091 4863 
L 3144 0 
L 2566 0 
L 2675 525 
z
M 891 1350 
Q 891 897 1095 644 
Q 1300 391 1663 391 
Q 1931 391 2161 520 
Q 2391 650 2566 903 
Q 2750 1166 2856 1509 
Q 2963 1853 2963 2188 
Q 2963 2622 2758 2865 
Q 2553 3109 2194 3109 
Q 1922 3109 1687 2981 
Q 1453 2853 1288 2613 
Q 1106 2353 998 2009 
Q 891 1666 891 1350 
z
" transform="scale(0.015625)"/>
      <path id="DejaVuSans-Oblique-6a" d="M 928 3500 
L 1503 3500 
L 813 -63 
L 809 -78 
Q 694 -675 544 -897 
Q 403 -1106 132 -1218 
Q -138 -1331 -506 -1331 
L -722 -1331 
L -628 -844 
L -481 -844 
Q -144 -844 -1 -703 
Q 141 -563 238 -63 
L 928 3500 
z
M 1197 4863 
L 1772 4863 
L 1631 4134 
L 1056 4134 
L 1197 4863 
z
" transform="scale(0.015625)"/>
      <path id="ArialMT-3c" d="M 350 2003 
L 350 2528 
L 3384 3809 
L 3384 3250 
L 978 2263 
L 3384 1266 
L 3384 706 
L 350 2003 
z
" transform="scale(0.015625)"/>
      <path id="ArialMT-2e" d="M 581 0 
L 581 641 
L 1222 641 
L 1222 0 
L 581 0 
z
" transform="scale(0.015625)"/>
      <path id="ArialMT-2a" d="M 200 3741 
L 344 4184 
Q 841 4009 1066 3881 
Q 1006 4447 1003 4659 
L 1456 4659 
Q 1447 4350 1384 3884 
Q 1706 4047 2122 4184 
L 2266 3741 
Q 1869 3609 1488 3566 
Q 1678 3400 2025 2975 
L 1650 2709 
Q 1469 2956 1222 3381 
Q 991 2941 816 2709 
L 447 2975 
Q 809 3422 966 3566 
Q 563 3644 200 3741 
z
" transform="scale(0.015625)"/>
     </defs>
     <use xlink:href="#ArialMT-43" transform="translate(0 0.203125)"/>
     <use xlink:href="#ArialMT-4c" transform="translate(72.216797 0.203125)"/>
     <use xlink:href="#ArialMT-55" transform="translate(127.832031 0.203125)"/>
     <use xlink:href="#ArialMT-2c" transform="translate(200.048828 0.203125)"/>
     <use xlink:href="#ArialMT-20" transform="translate(227.832031 0.203125)"/>
     <use xlink:href="#DejaVuSans-Oblique-70" transform="translate(255.615234 0.203125)"/>
     <use xlink:href="#DejaVuSans-Oblique-61" transform="translate(319.091797 -16.203125)scale(0.7)"/>
     <use xlink:href="#DejaVuSans-Oblique-64" transform="translate(361.987305 -16.203125)scale(0.7)"/>
     <use xlink:href="#DejaVuSans-Oblique-6a" transform="translate(406.420898 -16.203125)scale(0.7)"/>
     <use xlink:href="#ArialMT-20" transform="translate(428.603516 0.203125)"/>
     <use xlink:href="#ArialMT-3c" transform="translate(456.386719 0.203125)"/>
     <use xlink:href="#ArialMT-20" transform="translate(514.785156 0.203125)"/>
     <use xlink:href="#ArialMT-2e" transform="translate(542.568359 0.203125)"/>
     <use xlink:href="#ArialMT-30" transform="translate(570.351562 0.203125)"/>
     <use xlink:href="#ArialMT-30" transform="translate(625.966797 0.203125)"/>
     <use xlink:href="#ArialMT-31" transform="translate(681.582031 0.203125)"/>
     <use xlink:href="#ArialMT-20" transform="translate(737.197266 0.203125)"/>
     <use xlink:href="#ArialMT-2a" transform="translate(764.980469 0.203125)"/>
     <use xlink:href="#ArialMT-2a" transform="translate(803.896484 0.203125)"/>
     <use xlink:href="#ArialMT-2a" transform="translate(842.8125 0.203125)"/>
    </g>
   </g>
   <g id="legend_1">
    <g id="patch_5">
     <path d="M 53.52 69.712344 
L 105.82125 69.712344 
Q 107.62125 69.712344 107.62125 67.912344 
L 107.62125 30.62 
Q 107.62125 28.82 105.82125 28.82 
L 53.52 28.82 
Q 51.72 28.82 51.72 30.62 
L 51.72 67.912344 
Q 51.72 69.712344 53.52 69.712344 
z
" style="fill: #ffffff; opacity: 0.8; stroke: #cccccc; stroke-linejoin: miter"/>
    </g>
    <g id="text_19">
     <!-- Treatment -->
     <g style="fill: #262626" transform="translate(59.334141 38.862031)scale(0.09 -0.09)">
      <use xlink:href="#ArialMT-54"/>
      <use xlink:href="#ArialMT-72" x="57.333984"/>
      <use xlink:href="#ArialMT-65" x="90.634766"/>
      <use xlink:href="#ArialMT-61" x="146.25"/>
      <use xlink:href="#ArialMT-74" x="201.865234"/>
      <use xlink:href="#ArialMT-6d" x="229.648438"/>
      <use xlink:href="#ArialMT-65" x="312.949219"/>
      <use xlink:href="#ArialMT-6e" x="368.564453"/>
      <use xlink:href="#ArialMT-74" x="424.179688"/>
     </g>
    </g>
    <g id="PathCollection_10">
     <defs>
      <path id="m40fa58111a" d="M 0 3.872983 
C 1.027127 3.872983 2.012324 3.464901 2.738613 2.738613 
C 3.464901 2.012324 3.872983 1.027127 3.872983 0 
C 3.872983 -1.027127 3.464901 -2.012324 2.738613 -2.738613 
C 2.012324 -3.464901 1.027127 -3.872983 0 -3.872983 
C -1.027127 -3.872983 -2.012324 -3.464901 -2.738613 -2.738613 
C -3.464901 -2.012324 -3.872983 -1.027127 -3.872983 0 
C -3.872983 1.027127 -3.464901 2.012324 -2.738613 2.738613 
C -2.012324 3.464901 -1.027127 3.872983 0 3.872983 
z
" style="stroke: #4c72b0"/>
     </defs>
     <g>
      <use xlink:href="#m40fa58111a" x="64.32" y="49.230313" style="fill: #4c72b0; stroke: #4c72b0"/>
     </g>
    </g>
    <g id="text_20">
     <!-- BEVA -->
     <g style="fill: #262626" transform="translate(80.52 51.592813)scale(0.09 -0.09)">
      <defs>
       <path id="ArialMT-42" d="M 469 0 
L 469 4581 
L 2188 4581 
Q 2713 4581 3030 4442 
Q 3347 4303 3526 4014 
Q 3706 3725 3706 3409 
Q 3706 3116 3547 2856 
Q 3388 2597 3066 2438 
Q 3481 2316 3704 2022 
Q 3928 1728 3928 1328 
Q 3928 1006 3792 729 
Q 3656 453 3456 303 
Q 3256 153 2954 76 
Q 2653 0 2216 0 
L 469 0 
z
M 1075 2656 
L 2066 2656 
Q 2469 2656 2644 2709 
Q 2875 2778 2992 2937 
Q 3109 3097 3109 3338 
Q 3109 3566 3000 3739 
Q 2891 3913 2687 3977 
Q 2484 4041 1991 4041 
L 1075 4041 
L 1075 2656 
z
M 1075 541 
L 2216 541 
Q 2509 541 2628 563 
Q 2838 600 2978 687 
Q 3119 775 3209 942 
Q 3300 1109 3300 1328 
Q 3300 1584 3169 1773 
Q 3038 1963 2805 2039 
Q 2572 2116 2134 2116 
L 1075 2116 
L 1075 541 
z
" transform="scale(0.015625)"/>
       <path id="ArialMT-45" d="M 506 0 
L 506 4581 
L 3819 4581 
L 3819 4041 
L 1113 4041 
L 1113 2638 
L 3647 2638 
L 3647 2100 
L 1113 2100 
L 1113 541 
L 3925 541 
L 3925 0 
L 506 0 
z
" transform="scale(0.015625)"/>
       <path id="ArialMT-56" d="M 1803 0 
L 28 4581 
L 684 4581 
L 1875 1253 
Q 2019 853 2116 503 
Q 2222 878 2363 1253 
L 3600 4581 
L 4219 4581 
L 2425 0 
L 1803 0 
z
" transform="scale(0.015625)"/>
       <path id="ArialMT-41" d="M -9 0 
L 1750 4581 
L 2403 4581 
L 4278 0 
L 3588 0 
L 3053 1388 
L 1138 1388 
L 634 0 
L -9 0 
z
M 1313 1881 
L 2866 1881 
L 2388 3150 
Q 2169 3728 2063 4100 
Q 1975 3659 1816 3225 
L 1313 1881 
z
" transform="scale(0.015625)"/>
      </defs>
      <use xlink:href="#ArialMT-42"/>
      <use xlink:href="#ArialMT-45" x="66.699219"/>
      <use xlink:href="#ArialMT-56" x="133.398438"/>
      <use xlink:href="#ArialMT-41" x="192.722656"/>
     </g>
    </g>
    <g id="PathCollection_11">
     <defs>
      <path id="mbaf73e04ce" d="M 0 3.872983 
C 1.027127 3.872983 2.012324 3.464901 2.738613 2.738613 
C 3.464901 2.012324 3.872983 1.027127 3.872983 0 
C 3.872983 -1.027127 3.464901 -2.012324 2.738613 -2.738613 
C 2.012324 -3.464901 1.027127 -3.872983 0 -3.872983 
C -1.027127 -3.872983 -2.012324 -3.464901 -2.738613 -2.738613 
C -3.464901 -2.012324 -3.872983 -1.027127 -3.872983 0 
C -3.872983 1.027127 -3.464901 2.012324 -2.738613 2.738613 
C -2.012324 3.464901 -1.027127 3.872983 0 3.872983 
z
" style="stroke: #dd8452"/>
     </defs>
     <g>
      <use xlink:href="#mbaf73e04ce" x="64.32" y="61.961094" style="fill: #dd8452; stroke: #dd8452"/>
     </g>
    </g>
    <g id="text_21">
     <!-- CTRL -->
     <g style="fill: #262626" transform="translate(80.52 64.323594)scale(0.09 -0.09)">
      <defs>
       <path id="ArialMT-52" d="M 503 0 
L 503 4581 
L 2534 4581 
Q 3147 4581 3465 4457 
Q 3784 4334 3975 4021 
Q 4166 3709 4166 3331 
Q 4166 2844 3850 2509 
Q 3534 2175 2875 2084 
Q 3116 1969 3241 1856 
Q 3506 1613 3744 1247 
L 4541 0 
L 3778 0 
L 3172 953 
Q 2906 1366 2734 1584 
Q 2563 1803 2427 1890 
Q 2291 1978 2150 2013 
Q 2047 2034 1813 2034 
L 1109 2034 
L 1109 0 
L 503 0 
z
M 1109 2559 
L 2413 2559 
Q 2828 2559 3062 2645 
Q 3297 2731 3419 2920 
Q 3541 3109 3541 3331 
Q 3541 3656 3305 3865 
Q 3069 4075 2559 4075 
L 1109 4075 
L 1109 2559 
z
" transform="scale(0.015625)"/>
      </defs>
      <use xlink:href="#ArialMT-43"/>
      <use xlink:href="#ArialMT-54" x="72.216797"/>
      <use xlink:href="#ArialMT-52" x="133.300781"/>
      <use xlink:href="#ArialMT-4c" x="205.517578"/>
     </g>
    </g>
   </g>
  </g>
 </g>
 <defs>
  <clipPath id="p6118e2023f">
   <rect x="47.22" y="24.32" width="453.29622" height="189.57811"/>
  </clipPath>
 </defs>
</svg>
