<?xml version="1.0" encoding="utf-8" standalone="no"?>
<!DOCTYPE svg PUBLIC "-//W3C//DTD SVG 1.1//EN"
  "http://www.w3.org/Graphics/SVG/1.1/DTD/svg11.dtd">
<svg xmlns:xlink="http://www.w3.org/1999/xlink" width="510.23622pt" height="255.11811pt" viewBox="0 0 510.23622 255.11811" xmlns="http://www.w3.org/2000/svg" version="1.1">
 <metadata>
  <rdf:RDF xmlns:dc="http://purl.org/dc/elements/1.1/" xmlns:cc="http://creativecommons.org/ns#" xmlns:rdf="http://www.w3.org/1999/02/22-rdf-syntax-ns#">
   <cc:Work>
    <dc:type rdf:resource="http://purl.org/dc/dcmitype/StillImage"/>
    <dc:date>2022-04-27T00:16:41.007746</dc:date>
    <dc:format>image/svg+xml</dc:format>
    <dc:creator>
     <cc:Agent>
      <dc:title>Matplotlib v3.5.1, https://matplotlib.org/</dc:title>
     </cc:Agent>
    </dc:creator>
   </cc:Work>
  </rdf:RDF>
 </metadata>
 <defs>
  <style type="text/css">*{stroke-linejoin: round; stroke-linecap: butt}</style>
 </defs>
 <g id="figure_1">
  <g id="patch_1">
   <path d="M 0 255.11811 
L 510.23622 255.11811 
L 510.23622 0 
L 0 0 
z
" style="fill: #ffffff"/>
  </g>
  <g id="axes_1">
   <g id="patch_2">
    <path d="M 42.22 213.89811 
L 500.51622 213.89811 
L 500.51622 24.32 
L 42.22 24.32 
z
" style="fill: #ffffff"/>
   </g>
   <g id="matplotlib.axis_1">
    <g id="xtick_1">
     <g id="text_1">
      <!-- 49 -->
      <g style="fill: #444444" transform="translate(69.950601 229.840141)scale(0.09 -0.09)">
       <defs>
        <path id="ArialMT-34" d="M 2069 0 
L 2069 1097 
L 81 1097 
L 81 1613 
L 2172 4581 
L 2631 4581 
L 2631 1613 
L 3250 1613 
L 3250 1097 
L 2631 1097 
L 2631 0 
L 2069 0 
z
M 2069 1613 
L 2069 3678 
L 634 1613 
L 2069 1613 
z
" transform="scale(0.015625)"/>
        <path id="ArialMT-39" d="M 350 1059 
L 891 1109 
Q 959 728 1153 556 
Q 1347 384 1650 384 
Q 1909 384 2104 503 
Q 2300 622 2425 820 
Q 2550 1019 2634 1356 
Q 2719 1694 2719 2044 
Q 2719 2081 2716 2156 
Q 2547 1888 2255 1720 
Q 1963 1553 1622 1553 
Q 1053 1553 659 1965 
Q 266 2378 266 3053 
Q 266 3750 677 4175 
Q 1088 4600 1706 4600 
Q 2153 4600 2523 4359 
Q 2894 4119 3086 3673 
Q 3278 3228 3278 2384 
Q 3278 1506 3087 986 
Q 2897 466 2520 194 
Q 2144 -78 1638 -78 
Q 1100 -78 759 220 
Q 419 519 350 1059 
z
M 2653 3081 
Q 2653 3566 2395 3850 
Q 2138 4134 1775 4134 
Q 1400 4134 1122 3828 
Q 844 3522 844 3034 
Q 844 2597 1108 2323 
Q 1372 2050 1759 2050 
Q 2150 2050 2401 2323 
Q 2653 2597 2653 3081 
z
" transform="scale(0.015625)"/>
       </defs>
       <use xlink:href="#ArialMT-34"/>
       <use xlink:href="#ArialMT-39" x="55.615234"/>
      </g>
     </g>
    </g>
    <g id="xtick_2">
     <g id="text_2">
      <!-- 17 -->
      <g style="fill: #444444" transform="translate(135.421489 229.840141)scale(0.09 -0.09)">
       <defs>
        <path id="ArialMT-31" d="M 2384 0 
L 1822 0 
L 1822 3584 
Q 1619 3391 1289 3197 
Q 959 3003 697 2906 
L 697 3450 
Q 1169 3672 1522 3987 
Q 1875 4303 2022 4600 
L 2384 4600 
L 2384 0 
z
" transform="scale(0.015625)"/>
        <path id="ArialMT-37" d="M 303 3981 
L 303 4522 
L 3269 4522 
L 3269 4084 
Q 2831 3619 2401 2847 
Q 1972 2075 1738 1259 
Q 1569 684 1522 0 
L 944 0 
Q 953 541 1156 1306 
Q 1359 2072 1739 2783 
Q 2119 3494 2547 3981 
L 303 3981 
z
" transform="scale(0.015625)"/>
       </defs>
       <use xlink:href="#ArialMT-31"/>
       <use xlink:href="#ArialMT-37" x="55.615234"/>
      </g>
     </g>
    </g>
    <g id="xtick_3">
     <g id="text_3">
      <!-- 69 -->
      <g style="fill: #444444" transform="translate(200.892378 229.840141)scale(0.09 -0.09)">
       <defs>
        <path id="ArialMT-36" d="M 3184 3459 
L 2625 3416 
Q 2550 3747 2413 3897 
Q 2184 4138 1850 4138 
Q 1581 4138 1378 3988 
Q 1113 3794 959 3422 
Q 806 3050 800 2363 
Q 1003 2672 1297 2822 
Q 1591 2972 1913 2972 
Q 2475 2972 2870 2558 
Q 3266 2144 3266 1488 
Q 3266 1056 3080 686 
Q 2894 316 2569 119 
Q 2244 -78 1831 -78 
Q 1128 -78 684 439 
Q 241 956 241 2144 
Q 241 3472 731 4075 
Q 1159 4600 1884 4600 
Q 2425 4600 2770 4297 
Q 3116 3994 3184 3459 
z
M 888 1484 
Q 888 1194 1011 928 
Q 1134 663 1356 523 
Q 1578 384 1822 384 
Q 2178 384 2434 671 
Q 2691 959 2691 1453 
Q 2691 1928 2437 2201 
Q 2184 2475 1800 2475 
Q 1419 2475 1153 2201 
Q 888 1928 888 1484 
z
" transform="scale(0.015625)"/>
       </defs>
       <use xlink:href="#ArialMT-36"/>
       <use xlink:href="#ArialMT-39" x="55.615234"/>
      </g>
     </g>
    </g>
    <g id="xtick_4">
     <g id="text_4">
      <!-- 15 -->
      <g style="fill: #444444" transform="translate(266.363266 229.840141)scale(0.09 -0.09)">
       <defs>
        <path id="ArialMT-35" d="M 266 1200 
L 856 1250 
Q 922 819 1161 601 
Q 1400 384 1738 384 
Q 2144 384 2425 690 
Q 2706 997 2706 1503 
Q 2706 1984 2436 2262 
Q 2166 2541 1728 2541 
Q 1456 2541 1237 2417 
Q 1019 2294 894 2097 
L 366 2166 
L 809 4519 
L 3088 4519 
L 3088 3981 
L 1259 3981 
L 1013 2750 
Q 1425 3038 1878 3038 
Q 2478 3038 2890 2622 
Q 3303 2206 3303 1553 
Q 3303 931 2941 478 
Q 2500 -78 1738 -78 
Q 1113 -78 717 272 
Q 322 622 266 1200 
z
" transform="scale(0.015625)"/>
       </defs>
       <use xlink:href="#ArialMT-31"/>
       <use xlink:href="#ArialMT-35" x="55.615234"/>
      </g>
     </g>
    </g>
    <g id="xtick_5">
     <g id="text_5">
      <!-- 5 -->
      <g style="fill: #444444" transform="translate(334.336577 229.840141)scale(0.09 -0.09)">
       <use xlink:href="#ArialMT-35"/>
      </g>
     </g>
    </g>
    <g id="xtick_6">
     <g id="text_6">
      <!-- 126 -->
      <g style="fill: #444444" transform="translate(394.802622 229.840141)scale(0.09 -0.09)">
       <defs>
        <path id="ArialMT-32" d="M 3222 541 
L 3222 0 
L 194 0 
Q 188 203 259 391 
Q 375 700 629 1000 
Q 884 1300 1366 1694 
Q 2113 2306 2375 2664 
Q 2638 3022 2638 3341 
Q 2638 3675 2398 3904 
Q 2159 4134 1775 4134 
Q 1369 4134 1125 3890 
Q 881 3647 878 3216 
L 300 3275 
Q 359 3922 746 4261 
Q 1134 4600 1788 4600 
Q 2447 4600 2831 4234 
Q 3216 3869 3216 3328 
Q 3216 3053 3103 2787 
Q 2991 2522 2730 2228 
Q 2469 1934 1863 1422 
Q 1356 997 1212 845 
Q 1069 694 975 541 
L 3222 541 
z
" transform="scale(0.015625)"/>
       </defs>
       <use xlink:href="#ArialMT-31"/>
       <use xlink:href="#ArialMT-32" x="55.615234"/>
       <use xlink:href="#ArialMT-36" x="111.230469"/>
      </g>
     </g>
    </g>
    <g id="xtick_7">
     <g id="text_7">
      <!-- 62 -->
      <g style="fill: #444444" transform="translate(462.775932 229.840141)scale(0.09 -0.09)">
       <use xlink:href="#ArialMT-36"/>
       <use xlink:href="#ArialMT-32" x="55.615234"/>
      </g>
     </g>
    </g>
    <g id="text_8">
     <!-- Patient -->
     <g style="fill: #444444" transform="translate(257.359048 242.070923)scale(0.09 -0.09)">
      <defs>
       <path id="ArialMT-50" d="M 494 0 
L 494 4581 
L 2222 4581 
Q 2678 4581 2919 4538 
Q 3256 4481 3484 4323 
Q 3713 4166 3852 3881 
Q 3991 3597 3991 3256 
Q 3991 2672 3619 2267 
Q 3247 1863 2275 1863 
L 1100 1863 
L 1100 0 
L 494 0 
z
M 1100 2403 
L 2284 2403 
Q 2872 2403 3119 2622 
Q 3366 2841 3366 3238 
Q 3366 3525 3220 3729 
Q 3075 3934 2838 4000 
Q 2684 4041 2272 4041 
L 1100 4041 
L 1100 2403 
z
" transform="scale(0.015625)"/>
       <path id="ArialMT-61" d="M 2588 409 
Q 2275 144 1986 34 
Q 1697 -75 1366 -75 
Q 819 -75 525 192 
Q 231 459 231 875 
Q 231 1119 342 1320 
Q 453 1522 633 1644 
Q 813 1766 1038 1828 
Q 1203 1872 1538 1913 
Q 2219 1994 2541 2106 
Q 2544 2222 2544 2253 
Q 2544 2597 2384 2738 
Q 2169 2928 1744 2928 
Q 1347 2928 1158 2789 
Q 969 2650 878 2297 
L 328 2372 
Q 403 2725 575 2942 
Q 747 3159 1072 3276 
Q 1397 3394 1825 3394 
Q 2250 3394 2515 3294 
Q 2781 3194 2906 3042 
Q 3031 2891 3081 2659 
Q 3109 2516 3109 2141 
L 3109 1391 
Q 3109 606 3145 398 
Q 3181 191 3288 0 
L 2700 0 
Q 2613 175 2588 409 
z
M 2541 1666 
Q 2234 1541 1622 1453 
Q 1275 1403 1131 1340 
Q 988 1278 909 1158 
Q 831 1038 831 891 
Q 831 666 1001 516 
Q 1172 366 1500 366 
Q 1825 366 2078 508 
Q 2331 650 2450 897 
Q 2541 1088 2541 1459 
L 2541 1666 
z
" transform="scale(0.015625)"/>
       <path id="ArialMT-74" d="M 1650 503 
L 1731 6 
Q 1494 -44 1306 -44 
Q 1000 -44 831 53 
Q 663 150 594 308 
Q 525 466 525 972 
L 525 2881 
L 113 2881 
L 113 3319 
L 525 3319 
L 525 4141 
L 1084 4478 
L 1084 3319 
L 1650 3319 
L 1650 2881 
L 1084 2881 
L 1084 941 
Q 1084 700 1114 631 
Q 1144 563 1211 522 
Q 1278 481 1403 481 
Q 1497 481 1650 503 
z
" transform="scale(0.015625)"/>
       <path id="ArialMT-69" d="M 425 3934 
L 425 4581 
L 988 4581 
L 988 3934 
L 425 3934 
z
M 425 0 
L 425 3319 
L 988 3319 
L 988 0 
L 425 0 
z
" transform="scale(0.015625)"/>
       <path id="ArialMT-65" d="M 2694 1069 
L 3275 997 
Q 3138 488 2766 206 
Q 2394 -75 1816 -75 
Q 1088 -75 661 373 
Q 234 822 234 1631 
Q 234 2469 665 2931 
Q 1097 3394 1784 3394 
Q 2450 3394 2872 2941 
Q 3294 2488 3294 1666 
Q 3294 1616 3291 1516 
L 816 1516 
Q 847 969 1125 678 
Q 1403 388 1819 388 
Q 2128 388 2347 550 
Q 2566 713 2694 1069 
z
M 847 1978 
L 2700 1978 
Q 2663 2397 2488 2606 
Q 2219 2931 1791 2931 
Q 1403 2931 1139 2672 
Q 875 2413 847 1978 
z
" transform="scale(0.015625)"/>
       <path id="ArialMT-6e" d="M 422 0 
L 422 3319 
L 928 3319 
L 928 2847 
Q 1294 3394 1984 3394 
Q 2284 3394 2536 3286 
Q 2788 3178 2913 3003 
Q 3038 2828 3088 2588 
Q 3119 2431 3119 2041 
L 3119 0 
L 2556 0 
L 2556 2019 
Q 2556 2363 2490 2533 
Q 2425 2703 2258 2804 
Q 2091 2906 1866 2906 
Q 1506 2906 1245 2678 
Q 984 2450 984 1813 
L 984 0 
L 422 0 
z
" transform="scale(0.015625)"/>
      </defs>
      <use xlink:href="#ArialMT-50"/>
      <use xlink:href="#ArialMT-61" x="66.699219"/>
      <use xlink:href="#ArialMT-74" x="122.314453"/>
      <use xlink:href="#ArialMT-69" x="150.097656"/>
      <use xlink:href="#ArialMT-65" x="172.314453"/>
      <use xlink:href="#ArialMT-6e" x="227.929688"/>
      <use xlink:href="#ArialMT-74" x="283.544922"/>
     </g>
    </g>
   </g>
   <g id="matplotlib.axis_2">
    <g id="ytick_1">
     <g id="text_9">
      <!-- 10 -->
      <g style="fill: #444444" transform="translate(22.710313 202.040631)scale(0.09 -0.09)">
       <defs>
        <path id="ArialMT-30" d="M 266 2259 
Q 266 3072 433 3567 
Q 600 4063 929 4331 
Q 1259 4600 1759 4600 
Q 2128 4600 2406 4451 
Q 2684 4303 2865 4023 
Q 3047 3744 3150 3342 
Q 3253 2941 3253 2259 
Q 3253 1453 3087 958 
Q 2922 463 2592 192 
Q 2263 -78 1759 -78 
Q 1097 -78 719 397 
Q 266 969 266 2259 
z
M 844 2259 
Q 844 1131 1108 757 
Q 1372 384 1759 384 
Q 2147 384 2411 759 
Q 2675 1134 2675 2259 
Q 2675 3391 2411 3762 
Q 2147 4134 1753 4134 
Q 1366 4134 1134 3806 
Q 844 3388 844 2259 
z
" transform="scale(0.015625)"/>
       </defs>
       <use xlink:href="#ArialMT-31"/>
       <use xlink:href="#ArialMT-30" x="55.615234"/>
      </g>
     </g>
    </g>
    <g id="ytick_2">
     <g id="text_10">
      <!-- 20 -->
      <g style="fill: #444444" transform="translate(22.710313 178.418022)scale(0.09 -0.09)">
       <use xlink:href="#ArialMT-32"/>
       <use xlink:href="#ArialMT-30" x="55.615234"/>
      </g>
     </g>
    </g>
    <g id="ytick_3">
     <g id="text_11">
      <!-- 30 -->
      <g style="fill: #444444" transform="translate(22.710313 154.795413)scale(0.09 -0.09)">
       <defs>
        <path id="ArialMT-33" d="M 269 1209 
L 831 1284 
Q 928 806 1161 595 
Q 1394 384 1728 384 
Q 2125 384 2398 659 
Q 2672 934 2672 1341 
Q 2672 1728 2419 1979 
Q 2166 2231 1775 2231 
Q 1616 2231 1378 2169 
L 1441 2663 
Q 1497 2656 1531 2656 
Q 1891 2656 2178 2843 
Q 2466 3031 2466 3422 
Q 2466 3731 2256 3934 
Q 2047 4138 1716 4138 
Q 1388 4138 1169 3931 
Q 950 3725 888 3313 
L 325 3413 
Q 428 3978 793 4289 
Q 1159 4600 1703 4600 
Q 2078 4600 2393 4439 
Q 2709 4278 2876 4000 
Q 3044 3722 3044 3409 
Q 3044 3113 2884 2869 
Q 2725 2625 2413 2481 
Q 2819 2388 3044 2092 
Q 3269 1797 3269 1353 
Q 3269 753 2831 336 
Q 2394 -81 1725 -81 
Q 1122 -81 723 278 
Q 325 638 269 1209 
z
" transform="scale(0.015625)"/>
       </defs>
       <use xlink:href="#ArialMT-33"/>
       <use xlink:href="#ArialMT-30" x="55.615234"/>
      </g>
     </g>
    </g>
    <g id="ytick_4">
     <g id="text_12">
      <!-- 40 -->
      <g style="fill: #444444" transform="translate(22.710313 131.172805)scale(0.09 -0.09)">
       <use xlink:href="#ArialMT-34"/>
       <use xlink:href="#ArialMT-30" x="55.615234"/>
      </g>
     </g>
    </g>
    <g id="ytick_5">
     <g id="text_13">
      <!-- 50 -->
      <g style="fill: #444444" transform="translate(22.710313 107.550196)scale(0.09 -0.09)">
       <use xlink:href="#ArialMT-35"/>
       <use xlink:href="#ArialMT-30" x="55.615234"/>
      </g>
     </g>
    </g>
    <g id="ytick_6">
     <g id="text_14">
      <!-- 60 -->
      <g style="fill: #444444" transform="translate(22.710313 83.927587)scale(0.09 -0.09)">
       <use xlink:href="#ArialMT-36"/>
       <use xlink:href="#ArialMT-30" x="55.615234"/>
      </g>
     </g>
    </g>
    <g id="ytick_7">
     <g id="text_15">
      <!-- 70 -->
      <g style="fill: #444444" transform="translate(22.710313 60.304978)scale(0.09 -0.09)">
       <use xlink:href="#ArialMT-37"/>
       <use xlink:href="#ArialMT-30" x="55.615234"/>
      </g>
     </g>
    </g>
    <g id="ytick_8">
     <g id="text_16">
      <!-- 80 -->
      <g style="fill: #444444" transform="translate(22.710313 36.68237)scale(0.09 -0.09)">
       <defs>
        <path id="ArialMT-38" d="M 1131 2484 
Q 781 2613 612 2850 
Q 444 3088 444 3419 
Q 444 3919 803 4259 
Q 1163 4600 1759 4600 
Q 2359 4600 2725 4251 
Q 3091 3903 3091 3403 
Q 3091 3084 2923 2848 
Q 2756 2613 2416 2484 
Q 2838 2347 3058 2040 
Q 3278 1734 3278 1309 
Q 3278 722 2862 322 
Q 2447 -78 1769 -78 
Q 1091 -78 675 323 
Q 259 725 259 1325 
Q 259 1772 486 2073 
Q 713 2375 1131 2484 
z
M 1019 3438 
Q 1019 3113 1228 2906 
Q 1438 2700 1772 2700 
Q 2097 2700 2305 2904 
Q 2513 3109 2513 3406 
Q 2513 3716 2298 3927 
Q 2084 4138 1766 4138 
Q 1444 4138 1231 3931 
Q 1019 3725 1019 3438 
z
M 838 1322 
Q 838 1081 952 856 
Q 1066 631 1291 507 
Q 1516 384 1775 384 
Q 2178 384 2440 643 
Q 2703 903 2703 1303 
Q 2703 1709 2433 1975 
Q 2163 2241 1756 2241 
Q 1359 2241 1098 1978 
Q 838 1716 838 1322 
z
" transform="scale(0.015625)"/>
       </defs>
       <use xlink:href="#ArialMT-38"/>
       <use xlink:href="#ArialMT-30" x="55.615234"/>
      </g>
     </g>
    </g>
    <g id="text_17">
     <!-- Trimmed Means of M values (TMM) -->
     <g style="fill: #444444" transform="translate(16.816094 190.194993)rotate(-90)scale(0.09 -0.09)">
      <defs>
       <path id="ArialMT-54" d="M 1659 0 
L 1659 4041 
L 150 4041 
L 150 4581 
L 3781 4581 
L 3781 4041 
L 2266 4041 
L 2266 0 
L 1659 0 
z
" transform="scale(0.015625)"/>
       <path id="ArialMT-72" d="M 416 0 
L 416 3319 
L 922 3319 
L 922 2816 
Q 1116 3169 1280 3281 
Q 1444 3394 1641 3394 
Q 1925 3394 2219 3213 
L 2025 2691 
Q 1819 2813 1613 2813 
Q 1428 2813 1281 2702 
Q 1134 2591 1072 2394 
Q 978 2094 978 1738 
L 978 0 
L 416 0 
z
" transform="scale(0.015625)"/>
       <path id="ArialMT-6d" d="M 422 0 
L 422 3319 
L 925 3319 
L 925 2853 
Q 1081 3097 1340 3245 
Q 1600 3394 1931 3394 
Q 2300 3394 2536 3241 
Q 2772 3088 2869 2813 
Q 3263 3394 3894 3394 
Q 4388 3394 4653 3120 
Q 4919 2847 4919 2278 
L 4919 0 
L 4359 0 
L 4359 2091 
Q 4359 2428 4304 2576 
Q 4250 2725 4106 2815 
Q 3963 2906 3769 2906 
Q 3419 2906 3187 2673 
Q 2956 2441 2956 1928 
L 2956 0 
L 2394 0 
L 2394 2156 
Q 2394 2531 2256 2718 
Q 2119 2906 1806 2906 
Q 1569 2906 1367 2781 
Q 1166 2656 1075 2415 
Q 984 2175 984 1722 
L 984 0 
L 422 0 
z
" transform="scale(0.015625)"/>
       <path id="ArialMT-64" d="M 2575 0 
L 2575 419 
Q 2259 -75 1647 -75 
Q 1250 -75 917 144 
Q 584 363 401 755 
Q 219 1147 219 1656 
Q 219 2153 384 2558 
Q 550 2963 881 3178 
Q 1213 3394 1622 3394 
Q 1922 3394 2156 3267 
Q 2391 3141 2538 2938 
L 2538 4581 
L 3097 4581 
L 3097 0 
L 2575 0 
z
M 797 1656 
Q 797 1019 1065 703 
Q 1334 388 1700 388 
Q 2069 388 2326 689 
Q 2584 991 2584 1609 
Q 2584 2291 2321 2609 
Q 2059 2928 1675 2928 
Q 1300 2928 1048 2622 
Q 797 2316 797 1656 
z
" transform="scale(0.015625)"/>
       <path id="ArialMT-20" transform="scale(0.015625)"/>
       <path id="ArialMT-4d" d="M 475 0 
L 475 4581 
L 1388 4581 
L 2472 1338 
Q 2622 884 2691 659 
Q 2769 909 2934 1394 
L 4031 4581 
L 4847 4581 
L 4847 0 
L 4263 0 
L 4263 3834 
L 2931 0 
L 2384 0 
L 1059 3900 
L 1059 0 
L 475 0 
z
" transform="scale(0.015625)"/>
       <path id="ArialMT-73" d="M 197 991 
L 753 1078 
Q 800 744 1014 566 
Q 1228 388 1613 388 
Q 2000 388 2187 545 
Q 2375 703 2375 916 
Q 2375 1106 2209 1216 
Q 2094 1291 1634 1406 
Q 1016 1563 777 1677 
Q 538 1791 414 1992 
Q 291 2194 291 2438 
Q 291 2659 392 2848 
Q 494 3038 669 3163 
Q 800 3259 1026 3326 
Q 1253 3394 1513 3394 
Q 1903 3394 2198 3281 
Q 2494 3169 2634 2976 
Q 2775 2784 2828 2463 
L 2278 2388 
Q 2241 2644 2061 2787 
Q 1881 2931 1553 2931 
Q 1166 2931 1000 2803 
Q 834 2675 834 2503 
Q 834 2394 903 2306 
Q 972 2216 1119 2156 
Q 1203 2125 1616 2013 
Q 2213 1853 2448 1751 
Q 2684 1650 2818 1456 
Q 2953 1263 2953 975 
Q 2953 694 2789 445 
Q 2625 197 2315 61 
Q 2006 -75 1616 -75 
Q 969 -75 630 194 
Q 291 463 197 991 
z
" transform="scale(0.015625)"/>
       <path id="ArialMT-6f" d="M 213 1659 
Q 213 2581 725 3025 
Q 1153 3394 1769 3394 
Q 2453 3394 2887 2945 
Q 3322 2497 3322 1706 
Q 3322 1066 3130 698 
Q 2938 331 2570 128 
Q 2203 -75 1769 -75 
Q 1072 -75 642 372 
Q 213 819 213 1659 
z
M 791 1659 
Q 791 1022 1069 705 
Q 1347 388 1769 388 
Q 2188 388 2466 706 
Q 2744 1025 2744 1678 
Q 2744 2294 2464 2611 
Q 2184 2928 1769 2928 
Q 1347 2928 1069 2612 
Q 791 2297 791 1659 
z
" transform="scale(0.015625)"/>
       <path id="ArialMT-66" d="M 556 0 
L 556 2881 
L 59 2881 
L 59 3319 
L 556 3319 
L 556 3672 
Q 556 4006 616 4169 
Q 697 4388 901 4523 
Q 1106 4659 1475 4659 
Q 1713 4659 2000 4603 
L 1916 4113 
Q 1741 4144 1584 4144 
Q 1328 4144 1222 4034 
Q 1116 3925 1116 3625 
L 1116 3319 
L 1763 3319 
L 1763 2881 
L 1116 2881 
L 1116 0 
L 556 0 
z
" transform="scale(0.015625)"/>
       <path id="ArialMT-76" d="M 1344 0 
L 81 3319 
L 675 3319 
L 1388 1331 
Q 1503 1009 1600 663 
Q 1675 925 1809 1294 
L 2547 3319 
L 3125 3319 
L 1869 0 
L 1344 0 
z
" transform="scale(0.015625)"/>
       <path id="ArialMT-6c" d="M 409 0 
L 409 4581 
L 972 4581 
L 972 0 
L 409 0 
z
" transform="scale(0.015625)"/>
       <path id="ArialMT-75" d="M 2597 0 
L 2597 488 
Q 2209 -75 1544 -75 
Q 1250 -75 995 37 
Q 741 150 617 320 
Q 494 491 444 738 
Q 409 903 409 1263 
L 409 3319 
L 972 3319 
L 972 1478 
Q 972 1038 1006 884 
Q 1059 663 1231 536 
Q 1403 409 1656 409 
Q 1909 409 2131 539 
Q 2353 669 2445 892 
Q 2538 1116 2538 1541 
L 2538 3319 
L 3100 3319 
L 3100 0 
L 2597 0 
z
" transform="scale(0.015625)"/>
       <path id="ArialMT-28" d="M 1497 -1347 
Q 1031 -759 709 28 
Q 388 816 388 1659 
Q 388 2403 628 3084 
Q 909 3875 1497 4659 
L 1900 4659 
Q 1522 4009 1400 3731 
Q 1209 3300 1100 2831 
Q 966 2247 966 1656 
Q 966 153 1900 -1347 
L 1497 -1347 
z
" transform="scale(0.015625)"/>
       <path id="ArialMT-29" d="M 791 -1347 
L 388 -1347 
Q 1322 153 1322 1656 
Q 1322 2244 1188 2822 
Q 1081 3291 891 3722 
Q 769 4003 388 4659 
L 791 4659 
Q 1378 3875 1659 3084 
Q 1900 2403 1900 1659 
Q 1900 816 1576 28 
Q 1253 -759 791 -1347 
z
" transform="scale(0.015625)"/>
      </defs>
      <use xlink:href="#ArialMT-54"/>
      <use xlink:href="#ArialMT-72" x="57.333984"/>
      <use xlink:href="#ArialMT-69" x="90.634766"/>
      <use xlink:href="#ArialMT-6d" x="112.851562"/>
      <use xlink:href="#ArialMT-6d" x="196.152344"/>
      <use xlink:href="#ArialMT-65" x="279.453125"/>
      <use xlink:href="#ArialMT-64" x="335.068359"/>
      <use xlink:href="#ArialMT-20" x="390.683594"/>
      <use xlink:href="#ArialMT-4d" x="418.466797"/>
      <use xlink:href="#ArialMT-65" x="501.767578"/>
      <use xlink:href="#ArialMT-61" x="557.382812"/>
      <use xlink:href="#ArialMT-6e" x="612.998047"/>
      <use xlink:href="#ArialMT-73" x="668.613281"/>
      <use xlink:href="#ArialMT-20" x="718.613281"/>
      <use xlink:href="#ArialMT-6f" x="746.396484"/>
      <use xlink:href="#ArialMT-66" x="802.011719"/>
      <use xlink:href="#ArialMT-20" x="829.794922"/>
      <use xlink:href="#ArialMT-4d" x="857.578125"/>
      <use xlink:href="#ArialMT-20" x="940.878906"/>
      <use xlink:href="#ArialMT-76" x="968.662109"/>
      <use xlink:href="#ArialMT-61" x="1018.662109"/>
      <use xlink:href="#ArialMT-6c" x="1074.277344"/>
      <use xlink:href="#ArialMT-75" x="1096.494141"/>
      <use xlink:href="#ArialMT-65" x="1152.109375"/>
      <use xlink:href="#ArialMT-73" x="1207.724609"/>
      <use xlink:href="#ArialMT-20" x="1257.724609"/>
      <use xlink:href="#ArialMT-28" x="1285.507812"/>
      <use xlink:href="#ArialMT-54" x="1318.808594"/>
      <use xlink:href="#ArialMT-4d" x="1379.892578"/>
      <use xlink:href="#ArialMT-4d" x="1463.193359"/>
      <use xlink:href="#ArialMT-29" x="1546.494141"/>
     </g>
    </g>
   </g>
   <g id="PolyCollection_1">
    <defs>
     <path id="mf594027465" d="M 78.829357 -109.752689 
L 71.081532 -109.752689 
L 70.965757 -110.888328 
L 70.852056 -112.023967 
L 70.740807 -113.159606 
L 70.63239 -114.295244 
L 70.527183 -115.430883 
L 70.425561 -116.566522 
L 70.327888 -117.702161 
L 70.234521 -118.837799 
L 70.145805 -119.973438 
L 70.062067 -121.109077 
L 69.98362 -122.244715 
L 69.910753 -123.380354 
L 69.843735 -124.515993 
L 69.782807 -125.651632 
L 69.728184 -126.78727 
L 69.68005 -127.922909 
L 69.638559 -129.058548 
L 69.603829 -130.194187 
L 69.575946 -131.329825 
L 69.554956 -132.465464 
L 69.540873 -133.601103 
L 69.533667 -134.736741 
L 69.533275 -135.87238 
L 69.539593 -137.008019 
L 69.55248 -138.143658 
L 69.571758 -139.279296 
L 69.597212 -140.414935 
L 69.628593 -141.550574 
L 69.665618 -142.686213 
L 69.707974 -143.821851 
L 69.755318 -144.95749 
L 69.807279 -146.093129 
L 69.863465 -147.228767 
L 69.923463 -148.364406 
L 69.98684 -149.500045 
L 70.053152 -150.635684 
L 70.121943 -151.771322 
L 70.192749 -152.906961 
L 70.265105 -154.0426 
L 70.338546 -155.178239 
L 70.412608 -156.313877 
L 70.48684 -157.449516 
L 70.560799 -158.585155 
L 70.634057 -159.720793 
L 70.706205 -160.856432 
L 70.776855 -161.992071 
L 70.845644 -163.12771 
L 70.912234 -164.263348 
L 70.976318 -165.398987 
L 71.037619 -166.534626 
L 71.095893 -167.670265 
L 71.150932 -168.805903 
L 71.202561 -169.941542 
L 71.250645 -171.077181 
L 71.295082 -172.212819 
L 71.33581 -173.348458 
L 71.372803 -174.484097 
L 71.40607 -175.619736 
L 71.435656 -176.755374 
L 71.461641 -177.891013 
L 71.484137 -179.026652 
L 71.503286 -180.162291 
L 71.519261 -181.297929 
L 71.532261 -182.433568 
L 71.542509 -183.569207 
L 71.55025 -184.704845 
L 71.55575 -185.840484 
L 71.559288 -186.976123 
L 71.561161 -188.111762 
L 71.561672 -189.2474 
L 71.561137 -190.383039 
L 71.559873 -191.518678 
L 71.5582 -192.654317 
L 71.556438 -193.789955 
L 71.554902 -194.925594 
L 71.553904 -196.061233 
L 71.553744 -197.196871 
L 71.554713 -198.33251 
L 71.557087 -199.468149 
L 71.561128 -200.603788 
L 71.567082 -201.739426 
L 71.575174 -202.875065 
L 71.585611 -204.010704 
L 71.598578 -205.146343 
L 71.614238 -206.281981 
L 71.63273 -207.41762 
L 71.654171 -208.553259 
L 71.678653 -209.688897 
L 71.706245 -210.824536 
L 71.736992 -211.960175 
L 71.770913 -213.095814 
L 71.808008 -214.231452 
L 71.848252 -215.367091 
L 71.891597 -216.50273 
L 71.937977 -217.638368 
L 71.987306 -218.774007 
L 72.039477 -219.909646 
L 72.094368 -221.045285 
L 72.151841 -222.180923 
L 77.759048 -222.180923 
L 77.759048 -222.180923 
L 77.816521 -221.045285 
L 77.871412 -219.909646 
L 77.923583 -218.774007 
L 77.972911 -217.638368 
L 78.019292 -216.50273 
L 78.062637 -215.367091 
L 78.10288 -214.231452 
L 78.139975 -213.095814 
L 78.173897 -211.960175 
L 78.204643 -210.824536 
L 78.232235 -209.688897 
L 78.256718 -208.553259 
L 78.278159 -207.41762 
L 78.296651 -206.281981 
L 78.312311 -205.146343 
L 78.325278 -204.010704 
L 78.335715 -202.875065 
L 78.343807 -201.739426 
L 78.349761 -200.603788 
L 78.353802 -199.468149 
L 78.356176 -198.33251 
L 78.357144 -197.196871 
L 78.356984 -196.061233 
L 78.355986 -194.925594 
L 78.354451 -193.789955 
L 78.352689 -192.654317 
L 78.351016 -191.518678 
L 78.349752 -190.383039 
L 78.349216 -189.2474 
L 78.349728 -188.111762 
L 78.3516 -186.976123 
L 78.355139 -185.840484 
L 78.360638 -184.704845 
L 78.36838 -183.569207 
L 78.378628 -182.433568 
L 78.391627 -181.297929 
L 78.407603 -180.162291 
L 78.426752 -179.026652 
L 78.449248 -177.891013 
L 78.475233 -176.755374 
L 78.504819 -175.619736 
L 78.538086 -174.484097 
L 78.575078 -173.348458 
L 78.615807 -172.212819 
L 78.660244 -171.077181 
L 78.708327 -169.941542 
L 78.759957 -168.805903 
L 78.814996 -167.670265 
L 78.87327 -166.534626 
L 78.93457 -165.398987 
L 78.998654 -164.263348 
L 79.065244 -163.12771 
L 79.134033 -161.992071 
L 79.204684 -160.856432 
L 79.276832 -159.720793 
L 79.35009 -158.585155 
L 79.424049 -157.449516 
L 79.49828 -156.313877 
L 79.572343 -155.178239 
L 79.645783 -154.0426 
L 79.718139 -152.906961 
L 79.788946 -151.771322 
L 79.857736 -150.635684 
L 79.924048 -149.500045 
L 79.987426 -148.364406 
L 80.047423 -147.228767 
L 80.10361 -146.093129 
L 80.155571 -144.95749 
L 80.202914 -143.821851 
L 80.24527 -142.686213 
L 80.282296 -141.550574 
L 80.313677 -140.414935 
L 80.339131 -139.279296 
L 80.358409 -138.143658 
L 80.371296 -137.008019 
L 80.377614 -135.87238 
L 80.377222 -134.736741 
L 80.370016 -133.601103 
L 80.355932 -132.465464 
L 80.334943 -131.329825 
L 80.30706 -130.194187 
L 80.27233 -129.058548 
L 80.230839 -127.922909 
L 80.182705 -126.78727 
L 80.128082 -125.651632 
L 80.067154 -124.515993 
L 80.000135 -123.380354 
L 79.927269 -122.244715 
L 79.848821 -121.109077 
L 79.765084 -119.973438 
L 79.676368 -118.837799 
L 79.583001 -117.702161 
L 79.485328 -116.566522 
L 79.383705 -115.430883 
L 79.278499 -114.295244 
L 79.170082 -113.159606 
L 79.058833 -112.023967 
L 78.945131 -110.888328 
L 78.829357 -109.752689 
z
" style="stroke: #999999; stroke-width: 2"/>
    </defs>
    <g clip-path="url(#pd85343c614)">
     <use xlink:href="#mf594027465" x="0" y="255.11811" style="fill: #ffffff; stroke: #999999; stroke-width: 2"/>
    </g>
   </g>
   <g id="PolyCollection_2">
    <defs>
     <path id="m9685b1d844" d="M 149.89042 -91.805318 
L 130.962246 -91.805318 
L 130.761106 -92.107498 
L 130.565311 -92.409679 
L 130.375108 -92.711859 
L 130.19071 -93.014039 
L 130.012297 -93.31622 
L 129.840011 -93.6184 
L 129.673963 -93.92058 
L 129.514225 -94.22276 
L 129.360835 -94.524941 
L 129.213796 -94.827121 
L 129.073075 -95.129301 
L 128.938604 -95.431482 
L 128.810283 -95.733662 
L 128.687977 -96.035842 
L 128.571523 -96.338022 
L 128.460726 -96.640203 
L 128.355362 -96.942383 
L 128.25518 -97.244563 
L 128.159906 -97.546744 
L 128.06924 -97.848924 
L 127.982861 -98.151104 
L 127.90043 -98.453285 
L 127.821587 -98.755465 
L 127.74596 -99.057645 
L 127.67316 -99.359825 
L 127.602787 -99.662006 
L 127.534432 -99.964186 
L 127.467678 -100.266366 
L 127.402101 -100.568547 
L 127.337275 -100.870727 
L 127.272772 -101.172907 
L 127.208163 -101.475087 
L 127.143023 -101.777268 
L 127.076931 -102.079448 
L 127.009473 -102.381628 
L 126.940246 -102.683809 
L 126.868856 -102.985989 
L 126.794923 -103.288169 
L 126.718087 -103.59035 
L 126.638002 -103.89253 
L 126.554347 -104.19471 
L 126.466823 -104.49689 
L 126.375162 -104.799071 
L 126.27912 -105.101251 
L 126.178491 -105.403431 
L 126.0731 -105.705612 
L 125.962815 -106.007792 
L 125.84754 -106.309972 
L 125.727226 -106.612152 
L 125.601871 -106.914333 
L 125.47152 -107.216513 
L 125.33627 -107.518693 
L 125.196271 -107.820874 
L 125.051729 -108.123054 
L 124.902906 -108.425234 
L 124.750124 -108.727415 
L 124.59376 -109.029595 
L 124.434253 -109.331775 
L 124.272101 -109.633955 
L 124.10786 -109.936136 
L 123.942142 -110.238316 
L 123.775617 -110.540496 
L 123.609008 -110.842677 
L 123.443088 -111.144857 
L 123.278677 -111.447037 
L 123.116641 -111.749217 
L 122.957881 -112.051398 
L 122.803336 -112.353578 
L 122.65397 -112.655758 
L 122.510772 -112.957939 
L 122.374743 -113.260119 
L 122.246898 -113.562299 
L 122.128248 -113.86448 
L 122.019804 -114.16666 
L 121.922558 -114.46884 
L 121.837483 -114.77102 
L 121.765525 -115.073201 
L 121.70759 -115.375381 
L 121.664541 -115.677561 
L 121.637187 -115.979742 
L 121.626281 -116.281922 
L 121.632507 -116.584102 
L 121.656479 -116.886282 
L 121.698731 -117.188463 
L 121.759715 -117.490643 
L 121.839794 -117.792823 
L 121.93924 -118.095004 
L 122.058229 -118.397184 
L 122.196841 -118.699364 
L 122.355058 -119.001545 
L 122.532759 -119.303725 
L 122.729727 -119.605905 
L 122.945646 -119.908085 
L 123.180104 -120.210266 
L 123.432593 -120.512446 
L 123.702518 -120.814626 
L 123.989195 -121.116807 
L 124.291862 -121.418987 
L 124.609678 -121.721167 
L 156.242988 -121.721167 
L 156.242988 -121.721167 
L 156.560804 -121.418987 
L 156.863471 -121.116807 
L 157.150148 -120.814626 
L 157.420073 -120.512446 
L 157.672562 -120.210266 
L 157.90702 -119.908085 
L 158.122939 -119.605905 
L 158.319907 -119.303725 
L 158.497608 -119.001545 
L 158.655824 -118.699364 
L 158.794437 -118.397184 
L 158.913426 -118.095004 
L 159.012872 -117.792823 
L 159.092951 -117.490643 
L 159.153935 -117.188463 
L 159.196187 -116.886282 
L 159.220159 -116.584102 
L 159.226385 -116.281922 
L 159.215479 -115.979742 
L 159.188125 -115.677561 
L 159.145076 -115.375381 
L 159.087141 -115.073201 
L 159.015182 -114.77102 
L 158.930108 -114.46884 
L 158.832862 -114.16666 
L 158.724417 -113.86448 
L 158.605768 -113.562299 
L 158.477923 -113.260119 
L 158.341894 -112.957939 
L 158.198696 -112.655758 
L 158.04933 -112.353578 
L 157.894785 -112.051398 
L 157.736025 -111.749217 
L 157.573989 -111.447037 
L 157.409578 -111.144857 
L 157.243658 -110.842677 
L 157.077048 -110.540496 
L 156.910524 -110.238316 
L 156.744806 -109.936136 
L 156.580565 -109.633955 
L 156.418413 -109.331775 
L 156.258906 -109.029595 
L 156.102542 -108.727415 
L 155.94976 -108.425234 
L 155.800937 -108.123054 
L 155.656395 -107.820874 
L 155.516396 -107.518693 
L 155.381146 -107.216513 
L 155.250795 -106.914333 
L 155.12544 -106.612152 
L 155.005126 -106.309972 
L 154.889851 -106.007792 
L 154.779566 -105.705612 
L 154.674175 -105.403431 
L 154.573546 -105.101251 
L 154.477504 -104.799071 
L 154.385842 -104.49689 
L 154.298319 -104.19471 
L 154.214664 -103.89253 
L 154.134579 -103.59035 
L 154.057742 -103.288169 
L 153.98381 -102.985989 
L 153.91242 -102.683809 
L 153.843192 -102.381628 
L 153.775735 -102.079448 
L 153.709643 -101.777268 
L 153.644503 -101.475087 
L 153.579894 -101.172907 
L 153.51539 -100.870727 
L 153.450565 -100.568547 
L 153.384988 -100.266366 
L 153.318234 -99.964186 
L 153.249879 -99.662006 
L 153.179506 -99.359825 
L 153.106706 -99.057645 
L 153.031079 -98.755465 
L 152.952236 -98.453285 
L 152.869805 -98.151104 
L 152.783426 -97.848924 
L 152.69276 -97.546744 
L 152.597486 -97.244563 
L 152.497304 -96.942383 
L 152.39194 -96.640203 
L 152.281142 -96.338022 
L 152.164688 -96.035842 
L 152.042383 -95.733662 
L 151.914062 -95.431482 
L 151.779591 -95.129301 
L 151.63887 -94.827121 
L 151.491831 -94.524941 
L 151.338441 -94.22276 
L 151.178703 -93.92058 
L 151.012655 -93.6184 
L 150.840369 -93.31622 
L 150.661955 -93.014039 
L 150.477558 -92.711859 
L 150.287355 -92.409679 
L 150.09156 -92.107498 
L 149.89042 -91.805318 
z
" style="stroke: #999999; stroke-width: 2"/>
    </defs>
    <g clip-path="url(#pd85343c614)">
     <use xlink:href="#m9685b1d844" x="0" y="255.11811" style="fill: #ffffff; stroke: #999999; stroke-width: 2"/>
    </g>
   </g>
   <g id="PolyCollection_3">
    <defs>
     <path id="m5d73b2d743" d="M 212.970672 -80.749785 
L 198.823771 -80.749785 
L 198.576181 -81.190488 
L 198.326398 -81.631192 
L 198.074673 -82.071896 
L 197.821275 -82.5126 
L 197.56649 -82.953304 
L 197.310624 -83.394008 
L 197.054005 -83.834711 
L 196.796981 -84.275415 
L 196.539927 -84.716119 
L 196.283238 -85.156823 
L 196.027336 -85.597527 
L 195.772669 -86.03823 
L 195.519707 -86.478934 
L 195.268948 -86.919638 
L 195.020909 -87.360342 
L 194.776134 -87.801046 
L 194.535183 -88.241749 
L 194.298638 -88.682453 
L 194.067094 -89.123157 
L 193.841161 -89.563861 
L 193.621456 -90.004565 
L 193.408604 -90.445269 
L 193.203228 -90.885972 
L 193.005952 -91.326676 
L 192.817388 -91.76738 
L 192.638137 -92.208084 
L 192.468783 -92.648788 
L 192.309884 -93.089491 
L 192.161974 -93.530195 
L 192.025549 -93.970899 
L 191.901069 -94.411603 
L 191.788948 -94.852307 
L 191.689555 -95.29301 
L 191.603204 -95.733714 
L 191.530153 -96.174418 
L 191.4706 -96.615122 
L 191.424679 -97.055826 
L 191.392458 -97.496529 
L 191.37394 -97.937233 
L 191.369056 -98.377937 
L 191.377668 -98.818641 
L 191.399569 -99.259345 
L 191.434483 -99.700049 
L 191.482066 -100.140752 
L 191.541908 -100.581456 
L 191.613538 -101.02216 
L 191.696424 -101.462864 
L 191.78998 -101.903568 
L 191.893569 -102.344271 
L 192.006511 -102.784975 
L 192.128083 -103.225679 
L 192.257532 -103.666383 
L 192.394076 -104.107087 
L 192.536916 -104.54779 
L 192.685238 -104.988494 
L 192.838224 -105.429198 
L 192.995059 -105.869902 
L 193.154936 -106.310606 
L 193.317067 -106.75131 
L 193.480686 -107.192013 
L 193.64506 -107.632717 
L 193.809492 -108.073421 
L 193.97333 -108.514125 
L 194.135972 -108.954829 
L 194.296868 -109.395532 
L 194.455531 -109.836236 
L 194.611534 -110.27694 
L 194.764517 -110.717644 
L 194.914189 -111.158348 
L 195.060329 -111.599051 
L 195.202786 -112.039755 
L 195.341483 -112.480459 
L 195.476408 -112.921163 
L 195.607622 -113.361867 
L 195.735249 -113.80257 
L 195.859477 -114.243274 
L 195.980552 -114.683978 
L 196.098775 -115.124682 
L 196.214494 -115.565386 
L 196.328101 -116.00609 
L 196.440026 -116.446793 
L 196.550726 -116.887497 
L 196.660686 -117.328201 
L 196.770401 -117.768905 
L 196.88038 -118.209609 
L 196.991131 -118.650312 
L 197.103156 -119.091016 
L 197.216945 -119.53172 
L 197.332968 -119.972424 
L 197.45167 -120.413128 
L 197.573463 -120.853831 
L 197.698721 -121.294535 
L 197.827777 -121.735239 
L 197.960917 -122.175943 
L 198.098376 -122.616647 
L 198.240337 -123.057351 
L 198.386924 -123.498054 
L 198.53821 -123.938758 
L 198.694205 -124.379462 
L 213.100239 -124.379462 
L 213.100239 -124.379462 
L 213.256234 -123.938758 
L 213.407519 -123.498054 
L 213.554107 -123.057351 
L 213.696067 -122.616647 
L 213.833526 -122.175943 
L 213.966666 -121.735239 
L 214.095722 -121.294535 
L 214.22098 -120.853831 
L 214.342773 -120.413128 
L 214.461475 -119.972424 
L 214.577498 -119.53172 
L 214.691287 -119.091016 
L 214.803312 -118.650312 
L 214.914063 -118.209609 
L 215.024042 -117.768905 
L 215.133758 -117.328201 
L 215.243717 -116.887497 
L 215.354418 -116.446793 
L 215.466342 -116.00609 
L 215.57995 -115.565386 
L 215.695668 -115.124682 
L 215.813891 -114.683978 
L 215.934966 -114.243274 
L 216.059194 -113.80257 
L 216.186821 -113.361867 
L 216.318035 -112.921163 
L 216.45296 -112.480459 
L 216.591657 -112.039755 
L 216.734115 -111.599051 
L 216.880254 -111.158348 
L 217.029926 -110.717644 
L 217.182909 -110.27694 
L 217.338912 -109.836236 
L 217.497575 -109.395532 
L 217.658471 -108.954829 
L 217.821113 -108.514125 
L 217.984951 -108.073421 
L 218.149383 -107.632717 
L 218.313757 -107.192013 
L 218.477376 -106.75131 
L 218.639507 -106.310606 
L 218.799384 -105.869902 
L 218.956219 -105.429198 
L 219.109206 -104.988494 
L 219.257527 -104.54779 
L 219.400367 -104.107087 
L 219.536911 -103.666383 
L 219.66636 -103.225679 
L 219.787932 -102.784975 
L 219.900874 -102.344271 
L 220.004463 -101.903568 
L 220.09802 -101.462864 
L 220.180906 -101.02216 
L 220.252535 -100.581456 
L 220.312377 -100.140752 
L 220.35996 -99.700049 
L 220.394874 -99.259345 
L 220.416775 -98.818641 
L 220.425387 -98.377937 
L 220.420503 -97.937233 
L 220.401985 -97.496529 
L 220.369765 -97.055826 
L 220.323844 -96.615122 
L 220.26429 -96.174418 
L 220.191239 -95.733714 
L 220.104888 -95.29301 
L 220.005495 -94.852307 
L 219.893375 -94.411603 
L 219.768894 -93.970899 
L 219.632469 -93.530195 
L 219.484559 -93.089491 
L 219.325661 -92.648788 
L 219.156306 -92.208084 
L 218.977056 -91.76738 
L 218.788491 -91.326676 
L 218.591215 -90.885972 
L 218.385839 -90.445269 
L 218.172987 -90.004565 
L 217.953282 -89.563861 
L 217.727349 -89.123157 
L 217.495806 -88.682453 
L 217.25926 -88.241749 
L 217.01831 -87.801046 
L 216.773534 -87.360342 
L 216.525496 -86.919638 
L 216.274736 -86.478934 
L 216.021774 -86.03823 
L 215.767107 -85.597527 
L 215.511206 -85.156823 
L 215.254516 -84.716119 
L 214.997462 -84.275415 
L 214.740438 -83.834711 
L 214.483819 -83.394008 
L 214.227953 -82.953304 
L 213.973168 -82.5126 
L 213.71977 -82.071896 
L 213.468045 -81.631192 
L 213.218262 -81.190488 
L 212.970672 -80.749785 
z
" style="stroke: #999999; stroke-width: 2"/>
    </defs>
    <g clip-path="url(#pd85343c614)">
     <use xlink:href="#m5d73b2d743" x="0" y="255.11811" style="fill: #ffffff; stroke: #999999; stroke-width: 2"/>
    </g>
   </g>
   <g id="PolyCollection_4">
    <defs>
     <path id="m7c1295c04f" d="M 277.091912 -76.665575 
L 265.644309 -76.665575 
L 265.364779 -77.183938 
L 265.077134 -77.702302 
L 264.781168 -78.220666 
L 264.476702 -78.739029 
L 264.163593 -79.257393 
L 263.841751 -79.775757 
L 263.511144 -80.294121 
L 263.171821 -80.812484 
L 262.823914 -81.330848 
L 262.467652 -81.849212 
L 262.103372 -82.367576 
L 261.731526 -82.885939 
L 261.352683 -83.404303 
L 260.967541 -83.922667 
L 260.576923 -84.44103 
L 260.181781 -84.959394 
L 259.783191 -85.477758 
L 259.382353 -85.996122 
L 258.980582 -86.514485 
L 258.579302 -87.032849 
L 258.180037 -87.551213 
L 257.784399 -88.069577 
L 257.39408 -88.58794 
L 257.010831 -89.106304 
L 256.636458 -89.624668 
L 256.2728 -90.143031 
L 255.921718 -90.661395 
L 255.585079 -91.179759 
L 255.26474 -91.698123 
L 254.962535 -92.216486 
L 254.680259 -92.73485 
L 254.419651 -93.253214 
L 254.182385 -93.771578 
L 253.97005 -94.289941 
L 253.784143 -94.808305 
L 253.626051 -95.326669 
L 253.497038 -95.845032 
L 253.398239 -96.363396 
L 253.330643 -96.88176 
L 253.295081 -97.400124 
L 253.292222 -97.918487 
L 253.322556 -98.436851 
L 253.386391 -98.955215 
L 253.48384 -99.473579 
L 253.614819 -99.991942 
L 253.779037 -100.510306 
L 253.975994 -101.02867 
L 254.204979 -101.547033 
L 254.465067 -102.065397 
L 254.755121 -102.583761 
L 255.073795 -103.102125 
L 255.419541 -103.620488 
L 255.790613 -104.138852 
L 256.185083 -104.657216 
L 256.600846 -105.17558 
L 257.035644 -105.693943 
L 257.487076 -106.212307 
L 257.952624 -106.730671 
L 258.429669 -107.249034 
L 258.915521 -107.767398 
L 259.407439 -108.285762 
L 259.902663 -108.804126 
L 260.398437 -109.322489 
L 260.89204 -109.840853 
L 261.380813 -110.359217 
L 261.862188 -110.877581 
L 262.333713 -111.395944 
L 262.79308 -111.914308 
L 263.238148 -112.432672 
L 263.666965 -112.951035 
L 264.077788 -113.469399 
L 264.469099 -113.987763 
L 264.839621 -114.506127 
L 265.188323 -115.02449 
L 265.514434 -115.542854 
L 265.817442 -116.061218 
L 266.097094 -116.579582 
L 266.353395 -117.097945 
L 266.586596 -117.616309 
L 266.797189 -118.134673 
L 266.985888 -118.653036 
L 267.153615 -119.1714 
L 267.301481 -119.689764 
L 267.430763 -120.208128 
L 267.542881 -120.726491 
L 267.639374 -121.244855 
L 267.721872 -121.763219 
L 267.79207 -122.281583 
L 267.851704 -122.799946 
L 267.90252 -123.31831 
L 267.94625 -123.836674 
L 267.984589 -124.355037 
L 268.01917 -124.873401 
L 268.051543 -125.391765 
L 268.083156 -125.910129 
L 268.115338 -126.428492 
L 268.149286 -126.946856 
L 268.186052 -127.46522 
L 268.226537 -127.983584 
L 274.509683 -127.983584 
L 274.509683 -127.983584 
L 274.550168 -127.46522 
L 274.586934 -126.946856 
L 274.620882 -126.428492 
L 274.653064 -125.910129 
L 274.684677 -125.391765 
L 274.71705 -124.873401 
L 274.751632 -124.355037 
L 274.789971 -123.836674 
L 274.833701 -123.31831 
L 274.884516 -122.799946 
L 274.94415 -122.281583 
L 275.014349 -121.763219 
L 275.096847 -121.244855 
L 275.193339 -120.726491 
L 275.305458 -120.208128 
L 275.43474 -119.689764 
L 275.582606 -119.1714 
L 275.750333 -118.653036 
L 275.939031 -118.134673 
L 276.149624 -117.616309 
L 276.382825 -117.097945 
L 276.639126 -116.579582 
L 276.918779 -116.061218 
L 277.221787 -115.542854 
L 277.547898 -115.02449 
L 277.8966 -114.506127 
L 278.267121 -113.987763 
L 278.658432 -113.469399 
L 279.069255 -112.951035 
L 279.498072 -112.432672 
L 279.94314 -111.914308 
L 280.402507 -111.395944 
L 280.874032 -110.877581 
L 281.355407 -110.359217 
L 281.84418 -109.840853 
L 282.337783 -109.322489 
L 282.833557 -108.804126 
L 283.328781 -108.285762 
L 283.8207 -107.767398 
L 284.306551 -107.249034 
L 284.783597 -106.730671 
L 285.249144 -106.212307 
L 285.700577 -105.693943 
L 286.135374 -105.17558 
L 286.551138 -104.657216 
L 286.945607 -104.138852 
L 287.316679 -103.620488 
L 287.662425 -103.102125 
L 287.9811 -102.583761 
L 288.271153 -102.065397 
L 288.531241 -101.547033 
L 288.760226 -101.02867 
L 288.957184 -100.510306 
L 289.121402 -99.991942 
L 289.25238 -99.473579 
L 289.34983 -98.955215 
L 289.413664 -98.436851 
L 289.443998 -97.918487 
L 289.441139 -97.400124 
L 289.405578 -96.88176 
L 289.337981 -96.363396 
L 289.239182 -95.845032 
L 289.11017 -95.326669 
L 288.952077 -94.808305 
L 288.76617 -94.289941 
L 288.553836 -93.771578 
L 288.316569 -93.253214 
L 288.055961 -92.73485 
L 287.773685 -92.216486 
L 287.47148 -91.698123 
L 287.151142 -91.179759 
L 286.814503 -90.661395 
L 286.463421 -90.143031 
L 286.099763 -89.624668 
L 285.725389 -89.106304 
L 285.342141 -88.58794 
L 284.951821 -88.069577 
L 284.556184 -87.551213 
L 284.156919 -87.032849 
L 283.755639 -86.514485 
L 283.353867 -85.996122 
L 282.953029 -85.477758 
L 282.55444 -84.959394 
L 282.159297 -84.44103 
L 281.76868 -83.922667 
L 281.383538 -83.404303 
L 281.004695 -82.885939 
L 280.632848 -82.367576 
L 280.268568 -81.849212 
L 279.912306 -81.330848 
L 279.564399 -80.812484 
L 279.225076 -80.294121 
L 278.89447 -79.775757 
L 278.572627 -79.257393 
L 278.259518 -78.739029 
L 277.955052 -78.220666 
L 277.659087 -77.702302 
L 277.371442 -77.183938 
L 277.091912 -76.665575 
z
" style="stroke: #999999; stroke-width: 2"/>
    </defs>
    <g clip-path="url(#pd85343c614)">
     <use xlink:href="#m7c1295c04f" x="0" y="255.11811" style="fill: #ffffff; stroke: #999999; stroke-width: 2"/>
    </g>
   </g>
   <g id="PolyCollection_5">
    <defs>
     <path id="mbedb3b3def" d="M 343.07444 -49.837187 
L 330.603558 -49.837187 
L 330.549485 -50.54856 
L 330.500488 -51.259932 
L 330.456568 -51.971305 
L 330.417704 -52.682678 
L 330.383851 -53.39405 
L 330.354942 -54.105423 
L 330.330891 -54.816796 
L 330.311586 -55.528168 
L 330.296898 -56.239541 
L 330.286677 -56.950914 
L 330.280756 -57.662286 
L 330.27895 -58.373659 
L 330.281056 -59.085032 
L 330.28686 -59.796405 
L 330.296133 -60.507777 
L 330.308634 -61.21915 
L 330.324113 -61.930523 
L 330.342313 -62.641895 
L 330.36297 -63.353268 
L 330.385815 -64.064641 
L 330.410578 -64.776013 
L 330.436988 -65.487386 
L 330.464775 -66.198759 
L 330.493671 -66.910132 
L 330.523417 -67.621504 
L 330.553755 -68.332877 
L 330.584441 -69.04425 
L 330.615237 -69.755622 
L 330.645917 -70.466995 
L 330.676271 -71.178368 
L 330.706099 -71.88974 
L 330.735219 -72.601113 
L 330.763464 -73.312486 
L 330.790685 -74.023859 
L 330.816751 -74.735231 
L 330.841548 -75.446604 
L 330.864983 -76.157977 
L 330.886982 -76.869349 
L 330.907487 -77.580722 
L 330.926465 -78.292095 
L 330.943897 -79.003467 
L 330.959787 -79.71484 
L 330.974154 -80.426213 
L 330.987036 -81.137585 
L 330.99849 -81.848958 
L 331.008586 -82.560331 
L 331.017412 -83.271704 
L 331.025069 -83.983076 
L 331.031671 -84.694449 
L 331.037346 -85.405822 
L 331.042231 -86.117194 
L 331.046472 -86.828567 
L 331.050225 -87.53994 
L 331.053651 -88.251312 
L 331.056919 -88.962685 
L 331.060199 -89.674058 
L 331.063665 -90.385431 
L 331.067495 -91.096803 
L 331.071862 -91.808176 
L 331.076941 -92.519549 
L 331.082905 -93.230921 
L 331.089923 -93.942294 
L 331.098157 -94.653667 
L 331.107767 -95.365039 
L 331.118903 -96.076412 
L 331.131711 -96.787785 
L 331.146325 -97.499158 
L 331.162873 -98.21053 
L 331.181473 -98.921903 
L 331.202231 -99.633276 
L 331.225245 -100.344648 
L 331.250601 -101.056021 
L 331.278373 -101.767394 
L 331.308625 -102.478766 
L 331.34141 -103.190139 
L 331.376769 -103.901512 
L 331.414732 -104.612884 
L 331.455317 -105.324257 
L 331.498533 -106.03563 
L 331.544377 -106.747003 
L 331.592836 -107.458375 
L 331.643886 -108.169748 
L 331.697495 -108.881121 
L 331.753621 -109.592493 
L 331.812214 -110.303866 
L 331.873214 -111.015239 
L 331.936557 -111.726611 
L 332.002166 -112.437984 
L 332.069964 -113.149357 
L 332.139862 -113.86073 
L 332.211769 -114.572102 
L 332.285589 -115.283475 
L 332.361218 -115.994848 
L 332.438553 -116.70622 
L 332.517483 -117.417593 
L 332.597896 -118.128966 
L 332.679678 -118.840338 
L 332.762713 -119.551711 
L 332.84688 -120.263084 
L 340.831118 -120.263084 
L 340.831118 -120.263084 
L 340.915285 -119.551711 
L 340.998319 -118.840338 
L 341.080102 -118.128966 
L 341.160515 -117.417593 
L 341.239445 -116.70622 
L 341.316779 -115.994848 
L 341.392409 -115.283475 
L 341.466228 -114.572102 
L 341.538136 -113.86073 
L 341.608034 -113.149357 
L 341.675831 -112.437984 
L 341.741441 -111.726611 
L 341.804783 -111.015239 
L 341.865784 -110.303866 
L 341.924377 -109.592493 
L 341.980503 -108.881121 
L 342.034112 -108.169748 
L 342.085162 -107.458375 
L 342.133621 -106.747003 
L 342.179465 -106.03563 
L 342.222681 -105.324257 
L 342.263266 -104.612884 
L 342.301229 -103.901512 
L 342.336588 -103.190139 
L 342.369373 -102.478766 
L 342.399625 -101.767394 
L 342.427397 -101.056021 
L 342.452753 -100.344648 
L 342.475766 -99.633276 
L 342.496525 -98.921903 
L 342.515124 -98.21053 
L 342.531673 -97.499158 
L 342.546287 -96.787785 
L 342.559095 -96.076412 
L 342.570231 -95.365039 
L 342.579841 -94.653667 
L 342.588075 -93.942294 
L 342.595092 -93.230921 
L 342.601057 -92.519549 
L 342.606136 -91.808176 
L 342.610503 -91.096803 
L 342.614332 -90.385431 
L 342.617799 -89.674058 
L 342.621079 -88.962685 
L 342.624347 -88.251312 
L 342.627773 -87.53994 
L 342.631526 -86.828567 
L 342.635767 -86.117194 
L 342.640652 -85.405822 
L 342.646327 -84.694449 
L 342.652929 -83.983076 
L 342.660586 -83.271704 
L 342.669412 -82.560331 
L 342.679508 -81.848958 
L 342.690962 -81.137585 
L 342.703844 -80.426213 
L 342.718211 -79.71484 
L 342.7341 -79.003467 
L 342.751533 -78.292095 
L 342.77051 -77.580722 
L 342.791016 -76.869349 
L 342.813014 -76.157977 
L 342.836449 -75.446604 
L 342.861247 -74.735231 
L 342.887312 -74.023859 
L 342.914533 -73.312486 
L 342.942779 -72.601113 
L 342.971899 -71.88974 
L 343.001727 -71.178368 
L 343.03208 -70.466995 
L 343.062761 -69.755622 
L 343.093557 -69.04425 
L 343.124242 -68.332877 
L 343.154581 -67.621504 
L 343.184326 -66.910132 
L 343.213223 -66.198759 
L 343.24101 -65.487386 
L 343.267419 -64.776013 
L 343.292182 -64.064641 
L 343.315028 -63.353268 
L 343.335684 -62.641895 
L 343.353885 -61.930523 
L 343.369364 -61.21915 
L 343.381865 -60.507777 
L 343.391137 -59.796405 
L 343.396941 -59.085032 
L 343.399048 -58.373659 
L 343.397241 -57.662286 
L 343.391321 -56.950914 
L 343.3811 -56.239541 
L 343.366412 -55.528168 
L 343.347107 -54.816796 
L 343.323055 -54.105423 
L 343.294147 -53.39405 
L 343.260294 -52.682678 
L 343.221429 -51.971305 
L 343.17751 -51.259932 
L 343.128513 -50.54856 
L 343.07444 -49.837187 
z
" style="stroke: #999999; stroke-width: 2"/>
    </defs>
    <g clip-path="url(#pd85343c614)">
     <use xlink:href="#mbedb3b3def" x="0" y="255.11811" style="fill: #ffffff; stroke: #999999; stroke-width: 2"/>
    </g>
   </g>
   <g id="PolyCollection_6">
    <defs>
     <path id="me13b93c3c3" d="M 422.561672 -59.618421 
L 382.058103 -59.618421 
L 381.536547 -59.85303 
L 381.032878 -60.087639 
L 380.548642 -60.322248 
L 380.085283 -60.556857 
L 379.644127 -60.791466 
L 379.226376 -61.026075 
L 378.833097 -61.260683 
L 378.46521 -61.495292 
L 378.123485 -61.729901 
L 377.808532 -61.96451 
L 377.520802 -62.199119 
L 377.260582 -62.433728 
L 377.027994 -62.668337 
L 376.822997 -62.902946 
L 376.645389 -63.137555 
L 376.494816 -63.372163 
L 376.370771 -63.606772 
L 376.27261 -63.841381 
L 376.199556 -64.07599 
L 376.150711 -64.310599 
L 376.12507 -64.545208 
L 376.121532 -64.779817 
L 376.138916 -65.014426 
L 376.175973 -65.249035 
L 376.231404 -65.483644 
L 376.303871 -65.718252 
L 376.392018 -65.952861 
L 376.494481 -66.18747 
L 376.609905 -66.422079 
L 376.736958 -66.656688 
L 376.874344 -66.891297 
L 377.020813 -67.125906 
L 377.175178 -67.360515 
L 377.336318 -67.595124 
L 377.503189 -67.829732 
L 377.674834 -68.064341 
L 377.850385 -68.29895 
L 378.029066 -68.533559 
L 378.210201 -68.768168 
L 378.393209 -69.002777 
L 378.577606 -69.237386 
L 378.763002 -69.471995 
L 378.949101 -69.706604 
L 379.135692 -69.941212 
L 379.322646 -70.175821 
L 379.509908 -70.41043 
L 379.697492 -70.645039 
L 379.885472 -70.879648 
L 380.073973 -71.114257 
L 380.263161 -71.348866 
L 380.45324 -71.583475 
L 380.644435 -71.818084 
L 380.836993 -72.052693 
L 381.031165 -72.287301 
L 381.227207 -72.52191 
L 381.425366 -72.756519 
L 381.625881 -72.991128 
L 381.828968 -73.225737 
L 382.034823 -73.460346 
L 382.243617 -73.694955 
L 382.455489 -73.929564 
L 382.670546 -74.164173 
L 382.888863 -74.398781 
L 383.110483 -74.63339 
L 383.335412 -74.867999 
L 383.563629 -75.102608 
L 383.79508 -75.337217 
L 384.029682 -75.571826 
L 384.267332 -75.806435 
L 384.507901 -76.041044 
L 384.751245 -76.275653 
L 384.997205 -76.510262 
L 385.245612 -76.74487 
L 385.496292 -76.979479 
L 385.749067 -77.214088 
L 386.003762 -77.448697 
L 386.260205 -77.683306 
L 386.518235 -77.917915 
L 386.777697 -78.152524 
L 387.038454 -78.387133 
L 387.300378 -78.621742 
L 387.563361 -78.85635 
L 387.827309 -79.090959 
L 388.092146 -79.325568 
L 388.357811 -79.560177 
L 388.624258 -79.794786 
L 388.891457 -80.029395 
L 389.159388 -80.264004 
L 389.428042 -80.498613 
L 389.69742 -80.733222 
L 389.967524 -80.96783 
L 390.238361 -81.202439 
L 390.509937 -81.437048 
L 390.782254 -81.671657 
L 391.055306 -81.906266 
L 391.329078 -82.140875 
L 391.603542 -82.375484 
L 391.878656 -82.610093 
L 392.154358 -82.844702 
L 412.465417 -82.844702 
L 412.465417 -82.844702 
L 412.741119 -82.610093 
L 413.016233 -82.375484 
L 413.290697 -82.140875 
L 413.564469 -81.906266 
L 413.837521 -81.671657 
L 414.109838 -81.437048 
L 414.381414 -81.202439 
L 414.652251 -80.96783 
L 414.922355 -80.733222 
L 415.191733 -80.498613 
L 415.460387 -80.264004 
L 415.728318 -80.029395 
L 415.995517 -79.794786 
L 416.261964 -79.560177 
L 416.527629 -79.325568 
L 416.792466 -79.090959 
L 417.056414 -78.85635 
L 417.319397 -78.621742 
L 417.581322 -78.387133 
L 417.842078 -78.152524 
L 418.10154 -77.917915 
L 418.35957 -77.683306 
L 418.616013 -77.448697 
L 418.870708 -77.214088 
L 419.123483 -76.979479 
L 419.374163 -76.74487 
L 419.62257 -76.510262 
L 419.86853 -76.275653 
L 420.111874 -76.041044 
L 420.352443 -75.806435 
L 420.590093 -75.571826 
L 420.824696 -75.337217 
L 421.056146 -75.102608 
L 421.284363 -74.867999 
L 421.509292 -74.63339 
L 421.730912 -74.398781 
L 421.949229 -74.164173 
L 422.164286 -73.929564 
L 422.376158 -73.694955 
L 422.584952 -73.460346 
L 422.790807 -73.225737 
L 422.993894 -72.991128 
L 423.194409 -72.756519 
L 423.392568 -72.52191 
L 423.58861 -72.287301 
L 423.782782 -72.052693 
L 423.97534 -71.818084 
L 424.166535 -71.583475 
L 424.356614 -71.348866 
L 424.545802 -71.114257 
L 424.734303 -70.879648 
L 424.922283 -70.645039 
L 425.109867 -70.41043 
L 425.297129 -70.175821 
L 425.484083 -69.941212 
L 425.670674 -69.706604 
L 425.856773 -69.471995 
L 426.042169 -69.237386 
L 426.226566 -69.002777 
L 426.409574 -68.768168 
L 426.590709 -68.533559 
L 426.76939 -68.29895 
L 426.944941 -68.064341 
L 427.116586 -67.829732 
L 427.283457 -67.595124 
L 427.444597 -67.360515 
L 427.598962 -67.125906 
L 427.745431 -66.891297 
L 427.882817 -66.656688 
L 428.00987 -66.422079 
L 428.125294 -66.18747 
L 428.227757 -65.952861 
L 428.315904 -65.718252 
L 428.388371 -65.483644 
L 428.443802 -65.249035 
L 428.480859 -65.014426 
L 428.498243 -64.779817 
L 428.494705 -64.545208 
L 428.469064 -64.310599 
L 428.420219 -64.07599 
L 428.347165 -63.841381 
L 428.249004 -63.606772 
L 428.124959 -63.372163 
L 427.974386 -63.137555 
L 427.796778 -62.902946 
L 427.591781 -62.668337 
L 427.359193 -62.433728 
L 427.098973 -62.199119 
L 426.811243 -61.96451 
L 426.49629 -61.729901 
L 426.154565 -61.495292 
L 425.786678 -61.260683 
L 425.393399 -61.026075 
L 424.975648 -60.791466 
L 424.534492 -60.556857 
L 424.071133 -60.322248 
L 423.586897 -60.087639 
L 423.083228 -59.85303 
L 422.561672 -59.618421 
z
" style="stroke: #999999; stroke-width: 2"/>
    </defs>
    <g clip-path="url(#pd85343c614)">
     <use xlink:href="#me13b93c3c3" x="0" y="255.11811" style="fill: #ffffff; stroke: #999999; stroke-width: 2"/>
    </g>
   </g>
   <g id="PolyCollection_7">
    <defs>
     <path id="ma16d99df1b" d="M 470.412178 -129.480654 
L 465.149375 -129.480654 
L 465.070693 -130.378998 
L 464.991194 -131.277343 
L 464.910839 -132.175688 
L 464.829588 -133.074033 
L 464.7474 -133.972378 
L 464.664235 -134.870722 
L 464.580058 -135.769067 
L 464.494836 -136.667412 
L 464.408545 -137.565757 
L 464.321168 -138.464102 
L 464.232696 -139.362446 
L 464.143135 -140.260791 
L 464.0525 -141.159136 
L 463.960821 -142.057481 
L 463.868146 -142.955826 
L 463.774535 -143.854171 
L 463.680067 -144.752515 
L 463.584841 -145.65086 
L 463.48897 -146.549205 
L 463.392587 -147.44755 
L 463.295844 -148.345895 
L 463.19891 -149.244239 
L 463.101969 -150.142584 
L 463.005223 -151.040929 
L 462.908888 -151.939274 
L 462.813193 -152.837619 
L 462.718378 -153.735963 
L 462.624692 -154.634308 
L 462.532393 -155.532653 
L 462.44174 -156.430998 
L 462.352997 -157.329343 
L 462.266426 -158.227687 
L 462.182287 -159.126032 
L 462.100831 -160.024377 
L 462.022302 -160.922722 
L 461.946932 -161.821067 
L 461.874938 -162.719412 
L 461.80652 -163.617756 
L 461.741859 -164.516101 
L 461.681113 -165.414446 
L 461.624417 -166.312791 
L 461.571882 -167.211136 
L 461.523589 -168.10948 
L 461.479596 -169.007825 
L 461.439929 -169.90617 
L 461.404586 -170.804515 
L 461.373537 -171.70286 
L 461.346725 -172.601204 
L 461.324063 -173.499549 
L 461.305442 -174.397894 
L 461.290726 -175.296239 
L 461.279757 -176.194584 
L 461.272361 -177.092928 
L 461.268342 -177.991273 
L 461.267493 -178.889618 
L 461.269597 -179.787963 
L 461.274426 -180.686308 
L 461.281751 -181.584653 
L 461.291342 -182.482997 
L 461.302972 -183.381342 
L 461.31642 -184.279687 
L 461.331477 -185.178032 
L 461.347947 -186.076377 
L 461.365649 -186.974721 
L 461.384424 -187.873066 
L 461.404134 -188.771411 
L 461.424666 -189.669756 
L 461.445933 -190.568101 
L 461.467876 -191.466445 
L 461.490466 -192.36479 
L 461.5137 -193.263135 
L 461.537608 -194.16148 
L 461.562248 -195.059825 
L 461.587706 -195.958169 
L 461.614096 -196.856514 
L 461.641555 -197.754859 
L 461.670246 -198.653204 
L 461.70035 -199.551549 
L 461.732068 -200.449894 
L 461.765614 -201.348238 
L 461.801213 -202.246583 
L 461.839098 -203.144928 
L 461.879505 -204.043273 
L 461.922671 -204.941618 
L 461.968827 -205.839962 
L 462.018197 -206.738307 
L 462.070994 -207.636652 
L 462.127414 -208.534997 
L 462.187636 -209.433342 
L 462.251815 -210.331686 
L 462.320083 -211.230031 
L 462.392544 -212.128376 
L 462.469272 -213.026721 
L 462.550311 -213.925066 
L 462.63567 -214.82341 
L 462.725327 -215.721755 
L 462.819225 -216.6201 
L 462.917273 -217.518445 
L 463.019347 -218.41679 
L 472.542205 -218.41679 
L 472.542205 -218.41679 
L 472.644279 -217.518445 
L 472.742327 -216.6201 
L 472.836226 -215.721755 
L 472.925883 -214.82341 
L 473.011242 -213.925066 
L 473.09228 -213.026721 
L 473.169008 -212.128376 
L 473.241469 -211.230031 
L 473.309737 -210.331686 
L 473.373916 -209.433342 
L 473.434138 -208.534997 
L 473.490558 -207.636652 
L 473.543355 -206.738307 
L 473.592726 -205.839962 
L 473.638882 -204.941618 
L 473.682047 -204.043273 
L 473.722454 -203.144928 
L 473.760339 -202.246583 
L 473.795938 -201.348238 
L 473.829484 -200.449894 
L 473.861202 -199.551549 
L 473.891307 -198.653204 
L 473.919997 -197.754859 
L 473.947457 -196.856514 
L 473.973846 -195.958169 
L 473.999304 -195.059825 
L 474.023944 -194.16148 
L 474.047853 -193.263135 
L 474.071087 -192.36479 
L 474.093676 -191.466445 
L 474.115619 -190.568101 
L 474.136886 -189.669756 
L 474.157418 -188.771411 
L 474.177128 -187.873066 
L 474.195904 -186.974721 
L 474.213606 -186.076377 
L 474.230075 -185.178032 
L 474.245132 -184.279687 
L 474.258581 -183.381342 
L 474.27021 -182.482997 
L 474.279801 -181.584653 
L 474.287126 -180.686308 
L 474.291956 -179.787963 
L 474.294059 -178.889618 
L 474.29321 -177.991273 
L 474.289191 -177.092928 
L 474.281795 -176.194584 
L 474.270827 -175.296239 
L 474.256111 -174.397894 
L 474.237489 -173.499549 
L 474.214828 -172.601204 
L 474.188015 -171.70286 
L 474.156966 -170.804515 
L 474.121623 -169.90617 
L 474.081956 -169.007825 
L 474.037963 -168.10948 
L 473.989671 -167.211136 
L 473.937135 -166.312791 
L 473.88044 -165.414446 
L 473.819694 -164.516101 
L 473.755032 -163.617756 
L 473.686614 -162.719412 
L 473.61462 -161.821067 
L 473.53925 -160.922722 
L 473.460721 -160.024377 
L 473.379265 -159.126032 
L 473.295126 -158.227687 
L 473.208555 -157.329343 
L 473.119812 -156.430998 
L 473.02916 -155.532653 
L 472.93686 -154.634308 
L 472.843174 -153.735963 
L 472.748359 -152.837619 
L 472.652664 -151.939274 
L 472.556329 -151.040929 
L 472.459584 -150.142584 
L 472.362643 -149.244239 
L 472.265708 -148.345895 
L 472.168965 -147.44755 
L 472.072583 -146.549205 
L 471.976711 -145.65086 
L 471.881485 -144.752515 
L 471.787018 -143.854171 
L 471.693407 -142.955826 
L 471.600731 -142.057481 
L 471.509053 -141.159136 
L 471.418418 -140.260791 
L 471.328856 -139.362446 
L 471.240385 -138.464102 
L 471.153007 -137.565757 
L 471.066716 -136.667412 
L 470.981495 -135.769067 
L 470.897317 -134.870722 
L 470.814152 -133.972378 
L 470.731964 -133.074033 
L 470.650713 -132.175688 
L 470.570358 -131.277343 
L 470.49086 -130.378998 
L 470.412178 -129.480654 
z
" style="stroke: #999999; stroke-width: 2"/>
    </defs>
    <g clip-path="url(#pd85343c614)">
     <use xlink:href="#ma16d99df1b" x="0" y="255.11811" style="fill: #ffffff; stroke: #999999; stroke-width: 2"/>
    </g>
   </g>
   <g id="PathCollection_1"/>
   <g id="PathCollection_2"/>
   <g id="patch_3">
    <path d="M 42.22 213.89811 
L 42.22 24.32 
" style="fill: none; stroke: #262626; stroke-width: 1.25; stroke-linejoin: miter; stroke-linecap: square"/>
   </g>
   <g id="patch_4">
    <path d="M 42.22 213.89811 
L 500.51622 213.89811 
" style="fill: none; stroke: #262626; stroke-width: 1.25; stroke-linejoin: miter; stroke-linecap: square"/>
   </g>
   <g id="PathCollection_3">
    <defs>
     <path id="C0_0_69b05caeeb" d="M 0 2.5 
C 0.663008 2.5 1.29895 2.236584 1.767767 1.767767 
C 2.236584 1.29895 2.5 0.663008 2.5 -0 
C 2.5 -0.663008 2.236584 -1.29895 1.767767 -1.767767 
C 1.29895 -2.236584 0.663008 -2.5 0 -2.5 
C -0.663008 -2.5 -1.29895 -2.236584 -1.767767 -1.767767 
C -2.236584 -1.29895 -2.5 -0.663008 -2.5 0 
C -2.5 0.663008 -2.236584 1.29895 -1.767767 1.767767 
C -1.29895 2.236584 -0.663008 2.5 0 2.5 
z
"/>
    </defs>
    <g clip-path="url(#pd85343c614)">
     <use xlink:href="#C0_0_69b05caeeb" x="76.374204" y="49.686115" style="fill: #4c72b0; fill-opacity: 0.75"/>
    </g>
    <g clip-path="url(#pd85343c614)">
     <use xlink:href="#C0_0_69b05caeeb" x="73.120178" y="32.937187" style="fill: #4c72b0; fill-opacity: 0.75"/>
    </g>
    <g clip-path="url(#pd85343c614)">
     <use xlink:href="#C0_0_69b05caeeb" x="77.835771" y="60.86282" style="fill: #4c72b0; fill-opacity: 0.75"/>
    </g>
    <g clip-path="url(#pd85343c614)">
     <use xlink:href="#C0_0_69b05caeeb" x="80.43021" y="119.124269" style="fill: #4c72b0; fill-opacity: 0.75"/>
    </g>
    <g clip-path="url(#pd85343c614)">
     <use xlink:href="#C0_0_69b05caeeb" x="76.821846" y="145.365421" style="fill: #dd8452; fill-opacity: 0.75"/>
    </g>
    <g clip-path="url(#pd85343c614)">
     <use xlink:href="#C0_0_69b05caeeb" x="71.746502" y="118.853134" style="fill: #dd8452; fill-opacity: 0.75"/>
    </g>
    <g clip-path="url(#pd85343c614)">
     <use xlink:href="#C0_0_69b05caeeb" x="69.508539" y="121.072132" style="fill: #dd8452; fill-opacity: 0.75"/>
    </g>
    <g clip-path="url(#pd85343c614)">
     <use xlink:href="#C0_0_69b05caeeb" x="71.151195" y="111.607214" style="fill: #dd8452; fill-opacity: 0.75"/>
    </g>
   </g>
   <g id="PathCollection_4">
    <defs>
     <path id="C1_0_d8018c90c9" d="M 0 2.5 
C 0.663008 2.5 1.29895 2.236584 1.767767 1.767767 
C 2.236584 1.29895 2.5 0.663008 2.5 -0 
C 2.5 -0.663008 2.236584 -1.29895 1.767767 -1.767767 
C 1.29895 -2.236584 0.663008 -2.5 0 -2.5 
C -0.663008 -2.5 -1.29895 -2.236584 -1.767767 -1.767767 
C -2.236584 -1.29895 -2.5 -0.663008 -2.5 0 
C -2.5 0.663008 -2.236584 1.29895 -1.767767 1.767767 
C -1.29895 2.236584 -0.663008 2.5 0 2.5 
z
"/>
    </defs>
    <g clip-path="url(#pd85343c614)">
     <use xlink:href="#C1_0_d8018c90c9" x="144.414135" y="163.312792" style="fill: #4c72b0; fill-opacity: 0.75"/>
    </g>
    <g clip-path="url(#pd85343c614)">
     <use xlink:href="#C1_0_d8018c90c9" x="136.171302" y="159.061845" style="fill: #4c72b0; fill-opacity: 0.75"/>
    </g>
    <g clip-path="url(#pd85343c614)">
     <use xlink:href="#C1_0_d8018c90c9" x="136.901476" y="152.021333" style="fill: #4c72b0; fill-opacity: 0.75"/>
    </g>
    <g clip-path="url(#pd85343c614)">
     <use xlink:href="#C1_0_d8018c90c9" x="139.530664" y="147.13709" style="fill: #4c72b0; fill-opacity: 0.75"/>
    </g>
    <g clip-path="url(#pd85343c614)">
     <use xlink:href="#C1_0_d8018c90c9" x="146.533585" y="137.881354" style="fill: #dd8452; fill-opacity: 0.75"/>
    </g>
    <g clip-path="url(#pd85343c614)">
     <use xlink:href="#C1_0_d8018c90c9" x="135.53107" y="137.498286" style="fill: #dd8452; fill-opacity: 0.75"/>
    </g>
    <g clip-path="url(#pd85343c614)">
     <use xlink:href="#C1_0_d8018c90c9" x="146.406498" y="137.436598" style="fill: #dd8452; fill-opacity: 0.75"/>
    </g>
    <g clip-path="url(#pd85343c614)">
     <use xlink:href="#C1_0_d8018c90c9" x="145.606905" y="133.396943" style="fill: #dd8452; fill-opacity: 0.75"/>
    </g>
   </g>
   <g id="PathCollection_5">
    <defs>
     <path id="C2_0_774c566978" d="M 0 2.5 
C 0.663008 2.5 1.29895 2.236584 1.767767 1.767767 
C 2.236584 1.29895 2.5 0.663008 2.5 -0 
C 2.5 -0.663008 2.236584 -1.29895 1.767767 -1.767767 
C 1.29895 -2.236584 0.663008 -2.5 0 -2.5 
C -0.663008 -2.5 -1.29895 -2.236584 -1.767767 -1.767767 
C -2.236584 -1.29895 -2.5 -0.663008 -2.5 0 
C -2.5 0.663008 -2.236584 1.29895 -1.767767 1.767767 
C -1.29895 2.236584 -0.663008 2.5 0 2.5 
z
"/>
    </defs>
    <g clip-path="url(#pd85343c614)">
     <use xlink:href="#C2_0_774c566978" x="211.229305" y="135.151871" style="fill: #4c72b0; fill-opacity: 0.75"/>
    </g>
    <g clip-path="url(#pd85343c614)">
     <use xlink:href="#C2_0_774c566978" x="203.293002" y="174.368326" style="fill: #4c72b0; fill-opacity: 0.75"/>
    </g>
    <g clip-path="url(#pd85343c614)">
     <use xlink:href="#C2_0_774c566978" x="203.889498" y="164.493587" style="fill: #4c72b0; fill-opacity: 0.75"/>
    </g>
    <g clip-path="url(#pd85343c614)">
     <use xlink:href="#C2_0_774c566978" x="203.403643" y="130.738648" style="fill: #4c72b0; fill-opacity: 0.75"/>
    </g>
    <g clip-path="url(#pd85343c614)">
     <use xlink:href="#C2_0_774c566978" x="202.31671" y="147.123885" style="fill: #dd8452; fill-opacity: 0.75"/>
    </g>
    <g clip-path="url(#pd85343c614)">
     <use xlink:href="#C2_0_774c566978" x="210.383865" y="156.605688" style="fill: #dd8452; fill-opacity: 0.75"/>
    </g>
    <g clip-path="url(#pd85343c614)">
     <use xlink:href="#C2_0_774c566978" x="199.826045" y="159.709316" style="fill: #dd8452; fill-opacity: 0.75"/>
    </g>
    <g clip-path="url(#pd85343c614)">
     <use xlink:href="#C2_0_774c566978" x="210.589958" y="153.327613" style="fill: #dd8452; fill-opacity: 0.75"/>
    </g>
   </g>
   <g id="PathCollection_6">
    <defs>
     <path id="C3_0_c4e457e8de" d="M 0 2.5 
C 0.663008 2.5 1.29895 2.236584 1.767767 1.767767 
C 2.236584 1.29895 2.5 0.663008 2.5 -0 
C 2.5 -0.663008 2.236584 -1.29895 1.767767 -1.767767 
C 1.29895 -2.236584 0.663008 -2.5 0 -2.5 
C -0.663008 -2.5 -1.29895 -2.236584 -1.767767 -1.767767 
C -2.236584 -1.29895 -2.5 -0.663008 -2.5 0 
C -2.5 0.663008 -2.236584 1.29895 -1.767767 1.767767 
C -1.29895 2.236584 -0.663008 2.5 0 2.5 
z
"/>
    </defs>
    <g clip-path="url(#pd85343c614)">
     <use xlink:href="#C3_0_c4e457e8de" x="276.871789" y="148.913529" style="fill: #4c72b0; fill-opacity: 0.75"/>
    </g>
    <g clip-path="url(#pd85343c614)">
     <use xlink:href="#C3_0_c4e457e8de" x="277.409425" y="152.99019" style="fill: #4c72b0; fill-opacity: 0.75"/>
    </g>
    <g clip-path="url(#pd85343c614)">
     <use xlink:href="#C3_0_c4e457e8de" x="276.538649" y="149.43644" style="fill: #4c72b0; fill-opacity: 0.75"/>
    </g>
    <g clip-path="url(#pd85343c614)">
     <use xlink:href="#C3_0_c4e457e8de" x="275.50935" y="167.532584" style="fill: #4c72b0; fill-opacity: 0.75"/>
    </g>
    <g clip-path="url(#pd85343c614)">
     <use xlink:href="#C3_0_c4e457e8de" x="269.233681" y="127.134527" style="fill: #4c72b0; fill-opacity: 0.75"/>
    </g>
    <g clip-path="url(#pd85343c614)">
     <use xlink:href="#C3_0_c4e457e8de" x="267.27936" y="164.880816" style="fill: #dd8452; fill-opacity: 0.75"/>
    </g>
    <g clip-path="url(#pd85343c614)">
     <use xlink:href="#C3_0_c4e457e8de" x="271.890595" y="156.706859" style="fill: #dd8452; fill-opacity: 0.75"/>
    </g>
    <g clip-path="url(#pd85343c614)">
     <use xlink:href="#C3_0_c4e457e8de" x="269.281726" y="157.728398" style="fill: #dd8452; fill-opacity: 0.75"/>
    </g>
    <g clip-path="url(#pd85343c614)">
     <use xlink:href="#C3_0_c4e457e8de" x="266.256977" y="161.249582" style="fill: #dd8452; fill-opacity: 0.75"/>
    </g>
    <g clip-path="url(#pd85343c614)">
     <use xlink:href="#C3_0_c4e457e8de" x="269.233643" y="178.452536" style="fill: #dd8452; fill-opacity: 0.75"/>
    </g>
   </g>
   <g id="PathCollection_7">
    <defs>
     <path id="C4_0_354513fd95" d="M 0 2.5 
C 0.663008 2.5 1.29895 2.236584 1.767767 1.767767 
C 2.236584 1.29895 2.5 0.663008 2.5 -0 
C 2.5 -0.663008 2.236584 -1.29895 1.767767 -1.767767 
C 1.29895 -2.236584 0.663008 -2.5 0 -2.5 
C -0.663008 -2.5 -1.29895 -2.236584 -1.767767 -1.767767 
C -2.236584 -1.29895 -2.5 -0.663008 -2.5 0 
C -2.5 0.663008 -2.236584 1.29895 -1.767767 1.767767 
C -1.29895 2.236584 -0.663008 2.5 0 2.5 
z
"/>
    </defs>
    <g clip-path="url(#pd85343c614)">
     <use xlink:href="#C4_0_354513fd95" x="334.969086" y="158.747883" style="fill: #4c72b0; fill-opacity: 0.75"/>
    </g>
    <g clip-path="url(#pd85343c614)">
     <use xlink:href="#C4_0_354513fd95" x="330.926299" y="134.855026" style="fill: #4c72b0; fill-opacity: 0.75"/>
    </g>
    <g clip-path="url(#pd85343c614)">
     <use xlink:href="#C4_0_354513fd95" x="331.891312" y="160.437386" style="fill: #4c72b0; fill-opacity: 0.75"/>
    </g>
    <g clip-path="url(#pd85343c614)">
     <use xlink:href="#C4_0_354513fd95" x="332.482694" y="203.736825" style="fill: #dd8452; fill-opacity: 0.75"/>
    </g>
    <g clip-path="url(#pd85343c614)">
     <use xlink:href="#C4_0_354513fd95" x="343.162471" y="205.280923" style="fill: #dd8452; fill-opacity: 0.75"/>
    </g>
    <g clip-path="url(#pd85343c614)">
     <use xlink:href="#C4_0_354513fd95" x="332.500535" y="197.502066" style="fill: #dd8452; fill-opacity: 0.75"/>
    </g>
   </g>
   <g id="PathCollection_8">
    <defs>
     <path id="C5_0_ba503e78a7" d="M 0 2.5 
C 0.663008 2.5 1.29895 2.236584 1.767767 1.767767 
C 2.236584 1.29895 2.5 0.663008 2.5 -0 
C 2.5 -0.663008 2.236584 -1.29895 1.767767 -1.767767 
C 1.29895 -2.236584 0.663008 -2.5 0 -2.5 
C -0.663008 -2.5 -1.29895 -2.236584 -1.767767 -1.767767 
C -2.236584 -1.29895 -2.5 -0.663008 -2.5 0 
C -2.5 0.663008 -2.236584 1.29895 -1.767767 1.767767 
C -1.29895 2.236584 -0.663008 2.5 0 2.5 
z
"/>
    </defs>
    <g clip-path="url(#pd85343c614)">
     <use xlink:href="#C5_0_ba503e78a7" x="402.814771" y="183.170077" style="fill: #4c72b0; fill-opacity: 0.75"/>
    </g>
    <g clip-path="url(#pd85343c614)">
     <use xlink:href="#C5_0_ba503e78a7" x="407.887358" y="172.273409" style="fill: #4c72b0; fill-opacity: 0.75"/>
    </g>
    <g clip-path="url(#pd85343c614)">
     <use xlink:href="#C5_0_ba503e78a7" x="402.305419" y="183.731751" style="fill: #4c72b0; fill-opacity: 0.75"/>
    </g>
    <g clip-path="url(#pd85343c614)">
     <use xlink:href="#C5_0_ba503e78a7" x="397.605828" y="178.375212" style="fill: #4c72b0; fill-opacity: 0.75"/>
    </g>
    <g clip-path="url(#pd85343c614)">
     <use xlink:href="#C5_0_ba503e78a7" x="398.934697" y="192.199342" style="fill: #dd8452; fill-opacity: 0.75"/>
    </g>
    <g clip-path="url(#pd85343c614)">
     <use xlink:href="#C5_0_ba503e78a7" x="403.527115" y="191.326961" style="fill: #dd8452; fill-opacity: 0.75"/>
    </g>
    <g clip-path="url(#pd85343c614)">
     <use xlink:href="#C5_0_ba503e78a7" x="397.52714" y="191.389725" style="fill: #dd8452; fill-opacity: 0.75"/>
    </g>
    <g clip-path="url(#pd85343c614)">
     <use xlink:href="#C5_0_ba503e78a7" x="408.028108" y="195.499689" style="fill: #dd8452; fill-opacity: 0.75"/>
    </g>
   </g>
   <g id="PathCollection_9">
    <defs>
     <path id="C6_0_2f8806b24c" d="M 0 2.5 
C 0.663008 2.5 1.29895 2.236584 1.767767 1.767767 
C 2.236584 1.29895 2.5 0.663008 2.5 -0 
C 2.5 -0.663008 2.236584 -1.29895 1.767767 -1.767767 
C 1.29895 -2.236584 0.663008 -2.5 0 -2.5 
C -0.663008 -2.5 -1.29895 -2.236584 -1.767767 -1.767767 
C -2.236584 -1.29895 -2.5 -0.663008 -2.5 0 
C -2.5 0.663008 -2.236584 1.29895 -1.767767 1.767767 
C -1.29895 2.236584 -0.663008 2.5 0 2.5 
z
"/>
    </defs>
    <g clip-path="url(#pd85343c614)">
     <use xlink:href="#C6_0_2f8806b24c" x="470.621325" y="36.701321" style="fill: #4c72b0; fill-opacity: 0.75"/>
    </g>
    <g clip-path="url(#pd85343c614)">
     <use xlink:href="#C6_0_2f8806b24c" x="466.637846" y="43.508892" style="fill: #4c72b0; fill-opacity: 0.75"/>
    </g>
    <g clip-path="url(#pd85343c614)">
     <use xlink:href="#C6_0_2f8806b24c" x="472.526164" y="49.453563" style="fill: #4c72b0; fill-opacity: 0.75"/>
    </g>
    <g clip-path="url(#pd85343c614)">
     <use xlink:href="#C6_0_2f8806b24c" x="467.727737" y="99.874252" style="fill: #4c72b0; fill-opacity: 0.75"/>
    </g>
    <g clip-path="url(#pd85343c614)">
     <use xlink:href="#C6_0_2f8806b24c" x="466.218061" y="85.901874" style="fill: #dd8452; fill-opacity: 0.75"/>
    </g>
    <g clip-path="url(#pd85343c614)">
     <use xlink:href="#C6_0_2f8806b24c" x="471.950856" y="73.834037" style="fill: #dd8452; fill-opacity: 0.75"/>
    </g>
    <g clip-path="url(#pd85343c614)">
     <use xlink:href="#C6_0_2f8806b24c" x="463.308009" y="81.445316" style="fill: #dd8452; fill-opacity: 0.75"/>
    </g>
    <g clip-path="url(#pd85343c614)">
     <use xlink:href="#C6_0_2f8806b24c" x="467.805614" y="125.637457" style="fill: #dd8452; fill-opacity: 0.75"/>
    </g>
   </g>
   <g id="text_18">
    <!-- CASP4, $p_{adj}$ &lt; .001 *** -->
    <g style="fill: #262626" transform="translate(42.22 18.32)scale(0.09 -0.09)">
     <defs>
      <path id="ArialMT-43" d="M 3763 1606 
L 4369 1453 
Q 4178 706 3683 314 
Q 3188 -78 2472 -78 
Q 1731 -78 1267 223 
Q 803 525 561 1097 
Q 319 1669 319 2325 
Q 319 3041 592 3573 
Q 866 4106 1370 4382 
Q 1875 4659 2481 4659 
Q 3169 4659 3637 4309 
Q 4106 3959 4291 3325 
L 3694 3184 
Q 3534 3684 3231 3912 
Q 2928 4141 2469 4141 
Q 1941 4141 1586 3887 
Q 1231 3634 1087 3207 
Q 944 2781 944 2328 
Q 944 1744 1114 1308 
Q 1284 872 1643 656 
Q 2003 441 2422 441 
Q 2931 441 3284 734 
Q 3638 1028 3763 1606 
z
" transform="scale(0.015625)"/>
      <path id="ArialMT-41" d="M -9 0 
L 1750 4581 
L 2403 4581 
L 4278 0 
L 3588 0 
L 3053 1388 
L 1138 1388 
L 634 0 
L -9 0 
z
M 1313 1881 
L 2866 1881 
L 2388 3150 
Q 2169 3728 2063 4100 
Q 1975 3659 1816 3225 
L 1313 1881 
z
" transform="scale(0.015625)"/>
      <path id="ArialMT-53" d="M 288 1472 
L 859 1522 
Q 900 1178 1048 958 
Q 1197 738 1509 602 
Q 1822 466 2213 466 
Q 2559 466 2825 569 
Q 3091 672 3220 851 
Q 3350 1031 3350 1244 
Q 3350 1459 3225 1620 
Q 3100 1781 2813 1891 
Q 2628 1963 1997 2114 
Q 1366 2266 1113 2400 
Q 784 2572 623 2826 
Q 463 3081 463 3397 
Q 463 3744 659 4045 
Q 856 4347 1234 4503 
Q 1613 4659 2075 4659 
Q 2584 4659 2973 4495 
Q 3363 4331 3572 4012 
Q 3781 3694 3797 3291 
L 3216 3247 
Q 3169 3681 2898 3903 
Q 2628 4125 2100 4125 
Q 1550 4125 1298 3923 
Q 1047 3722 1047 3438 
Q 1047 3191 1225 3031 
Q 1400 2872 2139 2705 
Q 2878 2538 3153 2413 
Q 3553 2228 3743 1945 
Q 3934 1663 3934 1294 
Q 3934 928 3725 604 
Q 3516 281 3123 101 
Q 2731 -78 2241 -78 
Q 1619 -78 1198 103 
Q 778 284 539 648 
Q 300 1013 288 1472 
z
" transform="scale(0.015625)"/>
      <path id="ArialMT-2c" d="M 569 0 
L 569 641 
L 1209 641 
L 1209 0 
Q 1209 -353 1084 -570 
Q 959 -788 688 -906 
L 531 -666 
Q 709 -588 793 -436 
Q 878 -284 888 0 
L 569 0 
z
" transform="scale(0.015625)"/>
      <path id="DejaVuSans-Oblique-70" d="M 3175 2156 
Q 3175 2616 2975 2859 
Q 2775 3103 2400 3103 
Q 2144 3103 1911 2972 
Q 1678 2841 1497 2591 
Q 1319 2344 1212 1994 
Q 1106 1644 1106 1300 
Q 1106 863 1306 627 
Q 1506 391 1875 391 
Q 2147 391 2380 519 
Q 2613 647 2778 891 
Q 2956 1147 3065 1494 
Q 3175 1841 3175 2156 
z
M 1394 2969 
Q 1625 3272 1939 3428 
Q 2253 3584 2638 3584 
Q 3175 3584 3472 3232 
Q 3769 2881 3769 2247 
Q 3769 1728 3584 1258 
Q 3400 788 3053 416 
Q 2822 169 2531 39 
Q 2241 -91 1919 -91 
Q 1547 -91 1294 64 
Q 1041 219 916 525 
L 556 -1331 
L -19 -1331 
L 922 3500 
L 1497 3500 
L 1394 2969 
z
" transform="scale(0.015625)"/>
      <path id="DejaVuSans-Oblique-61" d="M 3438 1997 
L 3047 0 
L 2472 0 
L 2578 531 
Q 2325 219 2001 64 
Q 1678 -91 1281 -91 
Q 834 -91 548 182 
Q 263 456 263 884 
Q 263 1497 752 1853 
Q 1241 2209 2100 2209 
L 2900 2209 
L 2931 2363 
Q 2938 2388 2941 2417 
Q 2944 2447 2944 2509 
Q 2944 2788 2717 2942 
Q 2491 3097 2081 3097 
Q 1800 3097 1504 3025 
Q 1209 2953 897 2809 
L 997 3341 
Q 1322 3463 1633 3523 
Q 1944 3584 2234 3584 
Q 2853 3584 3176 3315 
Q 3500 3047 3500 2534 
Q 3500 2431 3484 2292 
Q 3469 2153 3438 1997 
z
M 2816 1759 
L 2241 1759 
Q 1534 1759 1195 1570 
Q 856 1381 856 984 
Q 856 709 1029 553 
Q 1203 397 1509 397 
Q 1978 397 2328 733 
Q 2678 1069 2791 1631 
L 2816 1759 
z
" transform="scale(0.015625)"/>
      <path id="DejaVuSans-Oblique-64" d="M 2675 525 
Q 2444 222 2128 65 
Q 1813 -91 1428 -91 
Q 903 -91 598 267 
Q 294 625 294 1247 
Q 294 1766 478 2236 
Q 663 2706 1013 3078 
Q 1244 3325 1534 3454 
Q 1825 3584 2144 3584 
Q 2481 3584 2739 3421 
Q 2997 3259 3138 2956 
L 3513 4863 
L 4091 4863 
L 3144 0 
L 2566 0 
L 2675 525 
z
M 891 1350 
Q 891 897 1095 644 
Q 1300 391 1663 391 
Q 1931 391 2161 520 
Q 2391 650 2566 903 
Q 2750 1166 2856 1509 
Q 2963 1853 2963 2188 
Q 2963 2622 2758 2865 
Q 2553 3109 2194 3109 
Q 1922 3109 1687 2981 
Q 1453 2853 1288 2613 
Q 1106 2353 998 2009 
Q 891 1666 891 1350 
z
" transform="scale(0.015625)"/>
      <path id="DejaVuSans-Oblique-6a" d="M 928 3500 
L 1503 3500 
L 813 -63 
L 809 -78 
Q 694 -675 544 -897 
Q 403 -1106 132 -1218 
Q -138 -1331 -506 -1331 
L -722 -1331 
L -628 -844 
L -481 -844 
Q -144 -844 -1 -703 
Q 141 -563 238 -63 
L 928 3500 
z
M 1197 4863 
L 1772 4863 
L 1631 4134 
L 1056 4134 
L 1197 4863 
z
" transform="scale(0.015625)"/>
      <path id="ArialMT-3c" d="M 350 2003 
L 350 2528 
L 3384 3809 
L 3384 3250 
L 978 2263 
L 3384 1266 
L 3384 706 
L 350 2003 
z
" transform="scale(0.015625)"/>
      <path id="ArialMT-2e" d="M 581 0 
L 581 641 
L 1222 641 
L 1222 0 
L 581 0 
z
" transform="scale(0.015625)"/>
      <path id="ArialMT-2a" d="M 200 3741 
L 344 4184 
Q 841 4009 1066 3881 
Q 1006 4447 1003 4659 
L 1456 4659 
Q 1447 4350 1384 3884 
Q 1706 4047 2122 4184 
L 2266 3741 
Q 1869 3609 1488 3566 
Q 1678 3400 2025 2975 
L 1650 2709 
Q 1469 2956 1222 3381 
Q 991 2941 816 2709 
L 447 2975 
Q 809 3422 966 3566 
Q 563 3644 200 3741 
z
" transform="scale(0.015625)"/>
     </defs>
     <use xlink:href="#ArialMT-43" transform="translate(0 0.203125)"/>
     <use xlink:href="#ArialMT-41" transform="translate(72.216797 0.203125)"/>
     <use xlink:href="#ArialMT-53" transform="translate(138.916016 0.203125)"/>
     <use xlink:href="#ArialMT-50" transform="translate(205.615234 0.203125)"/>
     <use xlink:href="#ArialMT-34" transform="translate(272.314453 0.203125)"/>
     <use xlink:href="#ArialMT-2c" transform="translate(327.929688 0.203125)"/>
     <use xlink:href="#ArialMT-20" transform="translate(355.712891 0.203125)"/>
     <use xlink:href="#DejaVuSans-Oblique-70" transform="translate(383.496094 0.203125)"/>
     <use xlink:href="#DejaVuSans-Oblique-61" transform="translate(446.972656 -16.203125)scale(0.7)"/>
     <use xlink:href="#DejaVuSans-Oblique-64" transform="translate(489.868164 -16.203125)scale(0.7)"/>
     <use xlink:href="#DejaVuSans-Oblique-6a" transform="translate(534.301758 -16.203125)scale(0.7)"/>
     <use xlink:href="#ArialMT-20" transform="translate(556.484375 0.203125)"/>
     <use xlink:href="#ArialMT-3c" transform="translate(584.267578 0.203125)"/>
     <use xlink:href="#ArialMT-20" transform="translate(642.666016 0.203125)"/>
     <use xlink:href="#ArialMT-2e" transform="translate(670.449219 0.203125)"/>
     <use xlink:href="#ArialMT-30" transform="translate(698.232422 0.203125)"/>
     <use xlink:href="#ArialMT-30" transform="translate(753.847656 0.203125)"/>
     <use xlink:href="#ArialMT-31" transform="translate(809.462891 0.203125)"/>
     <use xlink:href="#ArialMT-20" transform="translate(865.078125 0.203125)"/>
     <use xlink:href="#ArialMT-2a" transform="translate(892.861328 0.203125)"/>
     <use xlink:href="#ArialMT-2a" transform="translate(931.777344 0.203125)"/>
     <use xlink:href="#ArialMT-2a" transform="translate(970.693359 0.203125)"/>
    </g>
   </g>
   <g id="legend_1">
    <g id="patch_5">
     <path d="M 48.52 209.39811 
L 100.82125 209.39811 
Q 102.62125 209.39811 102.62125 207.59811 
L 102.62125 170.305766 
Q 102.62125 168.505766 100.82125 168.505766 
L 48.52 168.505766 
Q 46.72 168.505766 46.72 170.305766 
L 46.72 207.59811 
Q 46.72 209.39811 48.52 209.39811 
z
" style="fill: #ffffff; opacity: 0.8; stroke: #cccccc; stroke-linejoin: miter"/>
    </g>
    <g id="text_19">
     <!-- Treatment -->
     <g style="fill: #262626" transform="translate(54.334141 178.547798)scale(0.09 -0.09)">
      <use xlink:href="#ArialMT-54"/>
      <use xlink:href="#ArialMT-72" x="57.333984"/>
      <use xlink:href="#ArialMT-65" x="90.634766"/>
      <use xlink:href="#ArialMT-61" x="146.25"/>
      <use xlink:href="#ArialMT-74" x="201.865234"/>
      <use xlink:href="#ArialMT-6d" x="229.648438"/>
      <use xlink:href="#ArialMT-65" x="312.949219"/>
      <use xlink:href="#ArialMT-6e" x="368.564453"/>
      <use xlink:href="#ArialMT-74" x="424.179688"/>
     </g>
    </g>
    <g id="PathCollection_10">
     <defs>
      <path id="m0e866afb7f" d="M 0 3.872983 
C 1.027127 3.872983 2.012324 3.464901 2.738613 2.738613 
C 3.464901 2.012324 3.872983 1.027127 3.872983 0 
C 3.872983 -1.027127 3.464901 -2.012324 2.738613 -2.738613 
C 2.012324 -3.464901 1.027127 -3.872983 0 -3.872983 
C -1.027127 -3.872983 -2.012324 -3.464901 -2.738613 -2.738613 
C -3.464901 -2.012324 -3.872983 -1.027127 -3.872983 0 
C -3.872983 1.027127 -3.464901 2.012324 -2.738613 2.738613 
C -2.012324 3.464901 -1.027127 3.872983 0 3.872983 
z
" style="stroke: #4c72b0"/>
     </defs>
     <g>
      <use xlink:href="#m0e866afb7f" x="59.32" y="188.916079" style="fill: #4c72b0; stroke: #4c72b0"/>
     </g>
    </g>
    <g id="text_20">
     <!-- BEVA -->
     <g style="fill: #262626" transform="translate(75.52 191.278579)scale(0.09 -0.09)">
      <defs>
       <path id="ArialMT-42" d="M 469 0 
L 469 4581 
L 2188 4581 
Q 2713 4581 3030 4442 
Q 3347 4303 3526 4014 
Q 3706 3725 3706 3409 
Q 3706 3116 3547 2856 
Q 3388 2597 3066 2438 
Q 3481 2316 3704 2022 
Q 3928 1728 3928 1328 
Q 3928 1006 3792 729 
Q 3656 453 3456 303 
Q 3256 153 2954 76 
Q 2653 0 2216 0 
L 469 0 
z
M 1075 2656 
L 2066 2656 
Q 2469 2656 2644 2709 
Q 2875 2778 2992 2937 
Q 3109 3097 3109 3338 
Q 3109 3566 3000 3739 
Q 2891 3913 2687 3977 
Q 2484 4041 1991 4041 
L 1075 4041 
L 1075 2656 
z
M 1075 541 
L 2216 541 
Q 2509 541 2628 563 
Q 2838 600 2978 687 
Q 3119 775 3209 942 
Q 3300 1109 3300 1328 
Q 3300 1584 3169 1773 
Q 3038 1963 2805 2039 
Q 2572 2116 2134 2116 
L 1075 2116 
L 1075 541 
z
" transform="scale(0.015625)"/>
       <path id="ArialMT-45" d="M 506 0 
L 506 4581 
L 3819 4581 
L 3819 4041 
L 1113 4041 
L 1113 2638 
L 3647 2638 
L 3647 2100 
L 1113 2100 
L 1113 541 
L 3925 541 
L 3925 0 
L 506 0 
z
" transform="scale(0.015625)"/>
       <path id="ArialMT-56" d="M 1803 0 
L 28 4581 
L 684 4581 
L 1875 1253 
Q 2019 853 2116 503 
Q 2222 878 2363 1253 
L 3600 4581 
L 4219 4581 
L 2425 0 
L 1803 0 
z
" transform="scale(0.015625)"/>
      </defs>
      <use xlink:href="#ArialMT-42"/>
      <use xlink:href="#ArialMT-45" x="66.699219"/>
      <use xlink:href="#ArialMT-56" x="133.398438"/>
      <use xlink:href="#ArialMT-41" x="192.722656"/>
     </g>
    </g>
    <g id="PathCollection_11">
     <defs>
      <path id="m41b409fdcd" d="M 0 3.872983 
C 1.027127 3.872983 2.012324 3.464901 2.738613 2.738613 
C 3.464901 2.012324 3.872983 1.027127 3.872983 0 
C 3.872983 -1.027127 3.464901 -2.012324 2.738613 -2.738613 
C 2.012324 -3.464901 1.027127 -3.872983 0 -3.872983 
C -1.027127 -3.872983 -2.012324 -3.464901 -2.738613 -2.738613 
C -3.464901 -2.012324 -3.872983 -1.027127 -3.872983 0 
C -3.872983 1.027127 -3.464901 2.012324 -2.738613 2.738613 
C -2.012324 3.464901 -1.027127 3.872983 0 3.872983 
z
" style="stroke: #dd8452"/>
     </defs>
     <g>
      <use xlink:href="#m41b409fdcd" x="59.32" y="201.64686" style="fill: #dd8452; stroke: #dd8452"/>
     </g>
    </g>
    <g id="text_21">
     <!-- CTRL -->
     <g style="fill: #262626" transform="translate(75.52 204.00936)scale(0.09 -0.09)">
      <defs>
       <path id="ArialMT-52" d="M 503 0 
L 503 4581 
L 2534 4581 
Q 3147 4581 3465 4457 
Q 3784 4334 3975 4021 
Q 4166 3709 4166 3331 
Q 4166 2844 3850 2509 
Q 3534 2175 2875 2084 
Q 3116 1969 3241 1856 
Q 3506 1613 3744 1247 
L 4541 0 
L 3778 0 
L 3172 953 
Q 2906 1366 2734 1584 
Q 2563 1803 2427 1890 
Q 2291 1978 2150 2013 
Q 2047 2034 1813 2034 
L 1109 2034 
L 1109 0 
L 503 0 
z
M 1109 2559 
L 2413 2559 
Q 2828 2559 3062 2645 
Q 3297 2731 3419 2920 
Q 3541 3109 3541 3331 
Q 3541 3656 3305 3865 
Q 3069 4075 2559 4075 
L 1109 4075 
L 1109 2559 
z
" transform="scale(0.015625)"/>
       <path id="ArialMT-4c" d="M 469 0 
L 469 4581 
L 1075 4581 
L 1075 541 
L 3331 541 
L 3331 0 
L 469 0 
z
" transform="scale(0.015625)"/>
      </defs>
      <use xlink:href="#ArialMT-43"/>
      <use xlink:href="#ArialMT-54" x="72.216797"/>
      <use xlink:href="#ArialMT-52" x="133.300781"/>
      <use xlink:href="#ArialMT-4c" x="205.517578"/>
     </g>
    </g>
   </g>
  </g>
 </g>
 <defs>
  <clipPath id="pd85343c614">
   <rect x="42.22" y="24.32" width="458.29622" height="189.57811"/>
  </clipPath>
 </defs>
</svg>
