<?xml version="1.0" encoding="utf-8" standalone="no"?>
<!DOCTYPE svg PUBLIC "-//W3C//DTD SVG 1.1//EN"
  "http://www.w3.org/Graphics/SVG/1.1/DTD/svg11.dtd">
<svg xmlns:xlink="http://www.w3.org/1999/xlink" width="560.905155pt" height="246.509673pt" viewBox="0 0 560.905155 246.509673" xmlns="http://www.w3.org/2000/svg" version="1.1">
 <metadata>
  <rdf:RDF xmlns:dc="http://purl.org/dc/elements/1.1/" xmlns:cc="http://creativecommons.org/ns#" xmlns:rdf="http://www.w3.org/1999/02/22-rdf-syntax-ns#">
   <cc:Work>
    <dc:type rdf:resource="http://purl.org/dc/dcmitype/StillImage"/>
    <dc:date>2022-04-18T21:14:00.209263</dc:date>
    <dc:format>image/svg+xml</dc:format>
    <dc:creator>
     <cc:Agent>
      <dc:title>Matplotlib v3.5.1, https://matplotlib.org/</dc:title>
     </cc:Agent>
    </dc:creator>
   </cc:Work>
  </rdf:RDF>
 </metadata>
 <defs>
  <style type="text/css">*{stroke-linejoin: round; stroke-linecap: butt}</style>
 </defs>
 <g id="figure_1">
  <g id="patch_1">
   <path d="M 0 246.509673 
L 560.905155 246.509673 
L 560.905155 0 
L 0 0 
z
" style="fill: #ffffff"/>
  </g>
  <g id="axes_1">
   <g id="patch_2">
    <path d="M 49.165313 209.34811 
L 268.453423 209.34811 
L 268.453423 19.77 
L 49.165313 19.77 
z
" style="fill: #ffffff"/>
   </g>
   <g id="matplotlib.axis_1">
    <g id="xtick_1">
     <g id="text_1">
      <!-- responsive -->
      <g style="fill: #444444" transform="translate(82.227028 225.290141)scale(0.09 -0.09)">
       <defs>
        <path id="ArialMT-72" d="M 416 0 
L 416 3319 
L 922 3319 
L 922 2816 
Q 1116 3169 1280 3281 
Q 1444 3394 1641 3394 
Q 1925 3394 2219 3213 
L 2025 2691 
Q 1819 2813 1613 2813 
Q 1428 2813 1281 2702 
Q 1134 2591 1072 2394 
Q 978 2094 978 1738 
L 978 0 
L 416 0 
z
" transform="scale(0.015625)"/>
        <path id="ArialMT-65" d="M 2694 1069 
L 3275 997 
Q 3138 488 2766 206 
Q 2394 -75 1816 -75 
Q 1088 -75 661 373 
Q 234 822 234 1631 
Q 234 2469 665 2931 
Q 1097 3394 1784 3394 
Q 2450 3394 2872 2941 
Q 3294 2488 3294 1666 
Q 3294 1616 3291 1516 
L 816 1516 
Q 847 969 1125 678 
Q 1403 388 1819 388 
Q 2128 388 2347 550 
Q 2566 713 2694 1069 
z
M 847 1978 
L 2700 1978 
Q 2663 2397 2488 2606 
Q 2219 2931 1791 2931 
Q 1403 2931 1139 2672 
Q 875 2413 847 1978 
z
" transform="scale(0.015625)"/>
        <path id="ArialMT-73" d="M 197 991 
L 753 1078 
Q 800 744 1014 566 
Q 1228 388 1613 388 
Q 2000 388 2187 545 
Q 2375 703 2375 916 
Q 2375 1106 2209 1216 
Q 2094 1291 1634 1406 
Q 1016 1563 777 1677 
Q 538 1791 414 1992 
Q 291 2194 291 2438 
Q 291 2659 392 2848 
Q 494 3038 669 3163 
Q 800 3259 1026 3326 
Q 1253 3394 1513 3394 
Q 1903 3394 2198 3281 
Q 2494 3169 2634 2976 
Q 2775 2784 2828 2463 
L 2278 2388 
Q 2241 2644 2061 2787 
Q 1881 2931 1553 2931 
Q 1166 2931 1000 2803 
Q 834 2675 834 2503 
Q 834 2394 903 2306 
Q 972 2216 1119 2156 
Q 1203 2125 1616 2013 
Q 2213 1853 2448 1751 
Q 2684 1650 2818 1456 
Q 2953 1263 2953 975 
Q 2953 694 2789 445 
Q 2625 197 2315 61 
Q 2006 -75 1616 -75 
Q 969 -75 630 194 
Q 291 463 197 991 
z
" transform="scale(0.015625)"/>
        <path id="ArialMT-70" d="M 422 -1272 
L 422 3319 
L 934 3319 
L 934 2888 
Q 1116 3141 1344 3267 
Q 1572 3394 1897 3394 
Q 2322 3394 2647 3175 
Q 2972 2956 3137 2557 
Q 3303 2159 3303 1684 
Q 3303 1175 3120 767 
Q 2938 359 2589 142 
Q 2241 -75 1856 -75 
Q 1575 -75 1351 44 
Q 1128 163 984 344 
L 984 -1272 
L 422 -1272 
z
M 931 1641 
Q 931 1000 1190 694 
Q 1450 388 1819 388 
Q 2194 388 2461 705 
Q 2728 1022 2728 1688 
Q 2728 2322 2467 2637 
Q 2206 2953 1844 2953 
Q 1484 2953 1207 2617 
Q 931 2281 931 1641 
z
" transform="scale(0.015625)"/>
        <path id="ArialMT-6f" d="M 213 1659 
Q 213 2581 725 3025 
Q 1153 3394 1769 3394 
Q 2453 3394 2887 2945 
Q 3322 2497 3322 1706 
Q 3322 1066 3130 698 
Q 2938 331 2570 128 
Q 2203 -75 1769 -75 
Q 1072 -75 642 372 
Q 213 819 213 1659 
z
M 791 1659 
Q 791 1022 1069 705 
Q 1347 388 1769 388 
Q 2188 388 2466 706 
Q 2744 1025 2744 1678 
Q 2744 2294 2464 2611 
Q 2184 2928 1769 2928 
Q 1347 2928 1069 2612 
Q 791 2297 791 1659 
z
" transform="scale(0.015625)"/>
        <path id="ArialMT-6e" d="M 422 0 
L 422 3319 
L 928 3319 
L 928 2847 
Q 1294 3394 1984 3394 
Q 2284 3394 2536 3286 
Q 2788 3178 2913 3003 
Q 3038 2828 3088 2588 
Q 3119 2431 3119 2041 
L 3119 0 
L 2556 0 
L 2556 2019 
Q 2556 2363 2490 2533 
Q 2425 2703 2258 2804 
Q 2091 2906 1866 2906 
Q 1506 2906 1245 2678 
Q 984 2450 984 1813 
L 984 0 
L 422 0 
z
" transform="scale(0.015625)"/>
        <path id="ArialMT-69" d="M 425 3934 
L 425 4581 
L 988 4581 
L 988 3934 
L 425 3934 
z
M 425 0 
L 425 3319 
L 988 3319 
L 988 0 
L 425 0 
z
" transform="scale(0.015625)"/>
        <path id="ArialMT-76" d="M 1344 0 
L 81 3319 
L 675 3319 
L 1388 1331 
Q 1503 1009 1600 663 
Q 1675 925 1809 1294 
L 2547 3319 
L 3125 3319 
L 1869 0 
L 1344 0 
z
" transform="scale(0.015625)"/>
       </defs>
       <use xlink:href="#ArialMT-72"/>
       <use xlink:href="#ArialMT-65" x="33.300781"/>
       <use xlink:href="#ArialMT-73" x="88.916016"/>
       <use xlink:href="#ArialMT-70" x="138.916016"/>
       <use xlink:href="#ArialMT-6f" x="194.53125"/>
       <use xlink:href="#ArialMT-6e" x="250.146484"/>
       <use xlink:href="#ArialMT-73" x="305.761719"/>
       <use xlink:href="#ArialMT-69" x="355.761719"/>
       <use xlink:href="#ArialMT-76" x="377.978516"/>
       <use xlink:href="#ArialMT-65" x="427.978516"/>
      </g>
     </g>
    </g>
    <g id="xtick_2">
     <g id="text_2">
      <!-- resistant -->
      <g style="fill: #444444" transform="translate(196.625614 225.290141)scale(0.09 -0.09)">
       <defs>
        <path id="ArialMT-74" d="M 1650 503 
L 1731 6 
Q 1494 -44 1306 -44 
Q 1000 -44 831 53 
Q 663 150 594 308 
Q 525 466 525 972 
L 525 2881 
L 113 2881 
L 113 3319 
L 525 3319 
L 525 4141 
L 1084 4478 
L 1084 3319 
L 1650 3319 
L 1650 2881 
L 1084 2881 
L 1084 941 
Q 1084 700 1114 631 
Q 1144 563 1211 522 
Q 1278 481 1403 481 
Q 1497 481 1650 503 
z
" transform="scale(0.015625)"/>
        <path id="ArialMT-61" d="M 2588 409 
Q 2275 144 1986 34 
Q 1697 -75 1366 -75 
Q 819 -75 525 192 
Q 231 459 231 875 
Q 231 1119 342 1320 
Q 453 1522 633 1644 
Q 813 1766 1038 1828 
Q 1203 1872 1538 1913 
Q 2219 1994 2541 2106 
Q 2544 2222 2544 2253 
Q 2544 2597 2384 2738 
Q 2169 2928 1744 2928 
Q 1347 2928 1158 2789 
Q 969 2650 878 2297 
L 328 2372 
Q 403 2725 575 2942 
Q 747 3159 1072 3276 
Q 1397 3394 1825 3394 
Q 2250 3394 2515 3294 
Q 2781 3194 2906 3042 
Q 3031 2891 3081 2659 
Q 3109 2516 3109 2141 
L 3109 1391 
Q 3109 606 3145 398 
Q 3181 191 3288 0 
L 2700 0 
Q 2613 175 2588 409 
z
M 2541 1666 
Q 2234 1541 1622 1453 
Q 1275 1403 1131 1340 
Q 988 1278 909 1158 
Q 831 1038 831 891 
Q 831 666 1001 516 
Q 1172 366 1500 366 
Q 1825 366 2078 508 
Q 2331 650 2450 897 
Q 2541 1088 2541 1459 
L 2541 1666 
z
" transform="scale(0.015625)"/>
       </defs>
       <use xlink:href="#ArialMT-72"/>
       <use xlink:href="#ArialMT-65" x="33.300781"/>
       <use xlink:href="#ArialMT-73" x="88.916016"/>
       <use xlink:href="#ArialMT-69" x="138.916016"/>
       <use xlink:href="#ArialMT-73" x="161.132812"/>
       <use xlink:href="#ArialMT-74" x="211.132812"/>
       <use xlink:href="#ArialMT-61" x="238.916016"/>
       <use xlink:href="#ArialMT-6e" x="294.53125"/>
       <use xlink:href="#ArialMT-74" x="350.146484"/>
      </g>
     </g>
    </g>
    <g id="text_3">
     <!-- Condition -->
     <g style="fill: #444444" transform="translate(139.797571 237.520923)scale(0.09 -0.09)">
      <defs>
       <path id="ArialMT-43" d="M 3763 1606 
L 4369 1453 
Q 4178 706 3683 314 
Q 3188 -78 2472 -78 
Q 1731 -78 1267 223 
Q 803 525 561 1097 
Q 319 1669 319 2325 
Q 319 3041 592 3573 
Q 866 4106 1370 4382 
Q 1875 4659 2481 4659 
Q 3169 4659 3637 4309 
Q 4106 3959 4291 3325 
L 3694 3184 
Q 3534 3684 3231 3912 
Q 2928 4141 2469 4141 
Q 1941 4141 1586 3887 
Q 1231 3634 1087 3207 
Q 944 2781 944 2328 
Q 944 1744 1114 1308 
Q 1284 872 1643 656 
Q 2003 441 2422 441 
Q 2931 441 3284 734 
Q 3638 1028 3763 1606 
z
" transform="scale(0.015625)"/>
       <path id="ArialMT-64" d="M 2575 0 
L 2575 419 
Q 2259 -75 1647 -75 
Q 1250 -75 917 144 
Q 584 363 401 755 
Q 219 1147 219 1656 
Q 219 2153 384 2558 
Q 550 2963 881 3178 
Q 1213 3394 1622 3394 
Q 1922 3394 2156 3267 
Q 2391 3141 2538 2938 
L 2538 4581 
L 3097 4581 
L 3097 0 
L 2575 0 
z
M 797 1656 
Q 797 1019 1065 703 
Q 1334 388 1700 388 
Q 2069 388 2326 689 
Q 2584 991 2584 1609 
Q 2584 2291 2321 2609 
Q 2059 2928 1675 2928 
Q 1300 2928 1048 2622 
Q 797 2316 797 1656 
z
" transform="scale(0.015625)"/>
      </defs>
      <use xlink:href="#ArialMT-43"/>
      <use xlink:href="#ArialMT-6f" x="72.216797"/>
      <use xlink:href="#ArialMT-6e" x="127.832031"/>
      <use xlink:href="#ArialMT-64" x="183.447266"/>
      <use xlink:href="#ArialMT-69" x="239.0625"/>
      <use xlink:href="#ArialMT-74" x="261.279297"/>
      <use xlink:href="#ArialMT-69" x="289.0625"/>
      <use xlink:href="#ArialMT-6f" x="311.279297"/>
      <use xlink:href="#ArialMT-6e" x="366.894531"/>
     </g>
    </g>
   </g>
   <g id="matplotlib.axis_2">
    <g id="ytick_1">
     <g id="text_4">
      <!-- 0 -->
      <g style="fill: #444444" transform="translate(34.660469 203.951939)scale(0.09 -0.09)">
       <defs>
        <path id="ArialMT-30" d="M 266 2259 
Q 266 3072 433 3567 
Q 600 4063 929 4331 
Q 1259 4600 1759 4600 
Q 2128 4600 2406 4451 
Q 2684 4303 2865 4023 
Q 3047 3744 3150 3342 
Q 3253 2941 3253 2259 
Q 3253 1453 3087 958 
Q 2922 463 2592 192 
Q 2263 -78 1759 -78 
Q 1097 -78 719 397 
Q 266 969 266 2259 
z
M 844 2259 
Q 844 1131 1108 757 
Q 1372 384 1759 384 
Q 2147 384 2411 759 
Q 2675 1134 2675 2259 
Q 2675 3391 2411 3762 
Q 2147 4134 1753 4134 
Q 1366 4134 1134 3806 
Q 844 3388 844 2259 
z
" transform="scale(0.015625)"/>
       </defs>
       <use xlink:href="#ArialMT-30"/>
      </g>
     </g>
    </g>
    <g id="ytick_2">
     <g id="text_5">
      <!-- 200 -->
      <g style="fill: #444444" transform="translate(24.650781 177.202713)scale(0.09 -0.09)">
       <defs>
        <path id="ArialMT-32" d="M 3222 541 
L 3222 0 
L 194 0 
Q 188 203 259 391 
Q 375 700 629 1000 
Q 884 1300 1366 1694 
Q 2113 2306 2375 2664 
Q 2638 3022 2638 3341 
Q 2638 3675 2398 3904 
Q 2159 4134 1775 4134 
Q 1369 4134 1125 3890 
Q 881 3647 878 3216 
L 300 3275 
Q 359 3922 746 4261 
Q 1134 4600 1788 4600 
Q 2447 4600 2831 4234 
Q 3216 3869 3216 3328 
Q 3216 3053 3103 2787 
Q 2991 2522 2730 2228 
Q 2469 1934 1863 1422 
Q 1356 997 1212 845 
Q 1069 694 975 541 
L 3222 541 
z
" transform="scale(0.015625)"/>
       </defs>
       <use xlink:href="#ArialMT-32"/>
       <use xlink:href="#ArialMT-30" x="55.615234"/>
       <use xlink:href="#ArialMT-30" x="111.230469"/>
      </g>
     </g>
    </g>
    <g id="ytick_3">
     <g id="text_6">
      <!-- 400 -->
      <g style="fill: #444444" transform="translate(24.650781 150.453488)scale(0.09 -0.09)">
       <defs>
        <path id="ArialMT-34" d="M 2069 0 
L 2069 1097 
L 81 1097 
L 81 1613 
L 2172 4581 
L 2631 4581 
L 2631 1613 
L 3250 1613 
L 3250 1097 
L 2631 1097 
L 2631 0 
L 2069 0 
z
M 2069 1613 
L 2069 3678 
L 634 1613 
L 2069 1613 
z
" transform="scale(0.015625)"/>
       </defs>
       <use xlink:href="#ArialMT-34"/>
       <use xlink:href="#ArialMT-30" x="55.615234"/>
       <use xlink:href="#ArialMT-30" x="111.230469"/>
      </g>
     </g>
    </g>
    <g id="ytick_4">
     <g id="text_7">
      <!-- 600 -->
      <g style="fill: #444444" transform="translate(24.650781 123.704262)scale(0.09 -0.09)">
       <defs>
        <path id="ArialMT-36" d="M 3184 3459 
L 2625 3416 
Q 2550 3747 2413 3897 
Q 2184 4138 1850 4138 
Q 1581 4138 1378 3988 
Q 1113 3794 959 3422 
Q 806 3050 800 2363 
Q 1003 2672 1297 2822 
Q 1591 2972 1913 2972 
Q 2475 2972 2870 2558 
Q 3266 2144 3266 1488 
Q 3266 1056 3080 686 
Q 2894 316 2569 119 
Q 2244 -78 1831 -78 
Q 1128 -78 684 439 
Q 241 956 241 2144 
Q 241 3472 731 4075 
Q 1159 4600 1884 4600 
Q 2425 4600 2770 4297 
Q 3116 3994 3184 3459 
z
M 888 1484 
Q 888 1194 1011 928 
Q 1134 663 1356 523 
Q 1578 384 1822 384 
Q 2178 384 2434 671 
Q 2691 959 2691 1453 
Q 2691 1928 2437 2201 
Q 2184 2475 1800 2475 
Q 1419 2475 1153 2201 
Q 888 1928 888 1484 
z
" transform="scale(0.015625)"/>
       </defs>
       <use xlink:href="#ArialMT-36"/>
       <use xlink:href="#ArialMT-30" x="55.615234"/>
       <use xlink:href="#ArialMT-30" x="111.230469"/>
      </g>
     </g>
    </g>
    <g id="ytick_5">
     <g id="text_8">
      <!-- 800 -->
      <g style="fill: #444444" transform="translate(24.650781 96.955036)scale(0.09 -0.09)">
       <defs>
        <path id="ArialMT-38" d="M 1131 2484 
Q 781 2613 612 2850 
Q 444 3088 444 3419 
Q 444 3919 803 4259 
Q 1163 4600 1759 4600 
Q 2359 4600 2725 4251 
Q 3091 3903 3091 3403 
Q 3091 3084 2923 2848 
Q 2756 2613 2416 2484 
Q 2838 2347 3058 2040 
Q 3278 1734 3278 1309 
Q 3278 722 2862 322 
Q 2447 -78 1769 -78 
Q 1091 -78 675 323 
Q 259 725 259 1325 
Q 259 1772 486 2073 
Q 713 2375 1131 2484 
z
M 1019 3438 
Q 1019 3113 1228 2906 
Q 1438 2700 1772 2700 
Q 2097 2700 2305 2904 
Q 2513 3109 2513 3406 
Q 2513 3716 2298 3927 
Q 2084 4138 1766 4138 
Q 1444 4138 1231 3931 
Q 1019 3725 1019 3438 
z
M 838 1322 
Q 838 1081 952 856 
Q 1066 631 1291 507 
Q 1516 384 1775 384 
Q 2178 384 2440 643 
Q 2703 903 2703 1303 
Q 2703 1709 2433 1975 
Q 2163 2241 1756 2241 
Q 1359 2241 1098 1978 
Q 838 1716 838 1322 
z
" transform="scale(0.015625)"/>
       </defs>
       <use xlink:href="#ArialMT-38"/>
       <use xlink:href="#ArialMT-30" x="55.615234"/>
       <use xlink:href="#ArialMT-30" x="111.230469"/>
      </g>
     </g>
    </g>
    <g id="ytick_6">
     <g id="text_9">
      <!-- 1000 -->
      <g style="fill: #444444" transform="translate(19.645938 70.20581)scale(0.09 -0.09)">
       <defs>
        <path id="ArialMT-31" d="M 2384 0 
L 1822 0 
L 1822 3584 
Q 1619 3391 1289 3197 
Q 959 3003 697 2906 
L 697 3450 
Q 1169 3672 1522 3987 
Q 1875 4303 2022 4600 
L 2384 4600 
L 2384 0 
z
" transform="scale(0.015625)"/>
       </defs>
       <use xlink:href="#ArialMT-31"/>
       <use xlink:href="#ArialMT-30" x="55.615234"/>
       <use xlink:href="#ArialMT-30" x="111.230469"/>
       <use xlink:href="#ArialMT-30" x="166.845703"/>
      </g>
     </g>
    </g>
    <g id="ytick_7">
     <g id="text_10">
      <!-- 1200 -->
      <g style="fill: #444444" transform="translate(19.645938 43.456585)scale(0.09 -0.09)">
       <use xlink:href="#ArialMT-31"/>
       <use xlink:href="#ArialMT-32" x="55.615234"/>
       <use xlink:href="#ArialMT-30" x="111.230469"/>
       <use xlink:href="#ArialMT-30" x="166.845703"/>
      </g>
     </g>
    </g>
    <g id="text_11">
     <!-- Trimmed Means of M values (TMM) -->
     <g style="fill: #444444" transform="translate(13.751719 185.644993)rotate(-90)scale(0.09 -0.09)">
      <defs>
       <path id="ArialMT-54" d="M 1659 0 
L 1659 4041 
L 150 4041 
L 150 4581 
L 3781 4581 
L 3781 4041 
L 2266 4041 
L 2266 0 
L 1659 0 
z
" transform="scale(0.015625)"/>
       <path id="ArialMT-6d" d="M 422 0 
L 422 3319 
L 925 3319 
L 925 2853 
Q 1081 3097 1340 3245 
Q 1600 3394 1931 3394 
Q 2300 3394 2536 3241 
Q 2772 3088 2869 2813 
Q 3263 3394 3894 3394 
Q 4388 3394 4653 3120 
Q 4919 2847 4919 2278 
L 4919 0 
L 4359 0 
L 4359 2091 
Q 4359 2428 4304 2576 
Q 4250 2725 4106 2815 
Q 3963 2906 3769 2906 
Q 3419 2906 3187 2673 
Q 2956 2441 2956 1928 
L 2956 0 
L 2394 0 
L 2394 2156 
Q 2394 2531 2256 2718 
Q 2119 2906 1806 2906 
Q 1569 2906 1367 2781 
Q 1166 2656 1075 2415 
Q 984 2175 984 1722 
L 984 0 
L 422 0 
z
" transform="scale(0.015625)"/>
       <path id="ArialMT-20" transform="scale(0.015625)"/>
       <path id="ArialMT-4d" d="M 475 0 
L 475 4581 
L 1388 4581 
L 2472 1338 
Q 2622 884 2691 659 
Q 2769 909 2934 1394 
L 4031 4581 
L 4847 4581 
L 4847 0 
L 4263 0 
L 4263 3834 
L 2931 0 
L 2384 0 
L 1059 3900 
L 1059 0 
L 475 0 
z
" transform="scale(0.015625)"/>
       <path id="ArialMT-66" d="M 556 0 
L 556 2881 
L 59 2881 
L 59 3319 
L 556 3319 
L 556 3672 
Q 556 4006 616 4169 
Q 697 4388 901 4523 
Q 1106 4659 1475 4659 
Q 1713 4659 2000 4603 
L 1916 4113 
Q 1741 4144 1584 4144 
Q 1328 4144 1222 4034 
Q 1116 3925 1116 3625 
L 1116 3319 
L 1763 3319 
L 1763 2881 
L 1116 2881 
L 1116 0 
L 556 0 
z
" transform="scale(0.015625)"/>
       <path id="ArialMT-6c" d="M 409 0 
L 409 4581 
L 972 4581 
L 972 0 
L 409 0 
z
" transform="scale(0.015625)"/>
       <path id="ArialMT-75" d="M 2597 0 
L 2597 488 
Q 2209 -75 1544 -75 
Q 1250 -75 995 37 
Q 741 150 617 320 
Q 494 491 444 738 
Q 409 903 409 1263 
L 409 3319 
L 972 3319 
L 972 1478 
Q 972 1038 1006 884 
Q 1059 663 1231 536 
Q 1403 409 1656 409 
Q 1909 409 2131 539 
Q 2353 669 2445 892 
Q 2538 1116 2538 1541 
L 2538 3319 
L 3100 3319 
L 3100 0 
L 2597 0 
z
" transform="scale(0.015625)"/>
       <path id="ArialMT-28" d="M 1497 -1347 
Q 1031 -759 709 28 
Q 388 816 388 1659 
Q 388 2403 628 3084 
Q 909 3875 1497 4659 
L 1900 4659 
Q 1522 4009 1400 3731 
Q 1209 3300 1100 2831 
Q 966 2247 966 1656 
Q 966 153 1900 -1347 
L 1497 -1347 
z
" transform="scale(0.015625)"/>
       <path id="ArialMT-29" d="M 791 -1347 
L 388 -1347 
Q 1322 153 1322 1656 
Q 1322 2244 1188 2822 
Q 1081 3291 891 3722 
Q 769 4003 388 4659 
L 791 4659 
Q 1378 3875 1659 3084 
Q 1900 2403 1900 1659 
Q 1900 816 1576 28 
Q 1253 -759 791 -1347 
z
" transform="scale(0.015625)"/>
      </defs>
      <use xlink:href="#ArialMT-54"/>
      <use xlink:href="#ArialMT-72" x="57.333984"/>
      <use xlink:href="#ArialMT-69" x="90.634766"/>
      <use xlink:href="#ArialMT-6d" x="112.851562"/>
      <use xlink:href="#ArialMT-6d" x="196.152344"/>
      <use xlink:href="#ArialMT-65" x="279.453125"/>
      <use xlink:href="#ArialMT-64" x="335.068359"/>
      <use xlink:href="#ArialMT-20" x="390.683594"/>
      <use xlink:href="#ArialMT-4d" x="418.466797"/>
      <use xlink:href="#ArialMT-65" x="501.767578"/>
      <use xlink:href="#ArialMT-61" x="557.382812"/>
      <use xlink:href="#ArialMT-6e" x="612.998047"/>
      <use xlink:href="#ArialMT-73" x="668.613281"/>
      <use xlink:href="#ArialMT-20" x="718.613281"/>
      <use xlink:href="#ArialMT-6f" x="746.396484"/>
      <use xlink:href="#ArialMT-66" x="802.011719"/>
      <use xlink:href="#ArialMT-20" x="829.794922"/>
      <use xlink:href="#ArialMT-4d" x="857.578125"/>
      <use xlink:href="#ArialMT-20" x="940.878906"/>
      <use xlink:href="#ArialMT-76" x="968.662109"/>
      <use xlink:href="#ArialMT-61" x="1018.662109"/>
      <use xlink:href="#ArialMT-6c" x="1074.277344"/>
      <use xlink:href="#ArialMT-75" x="1096.494141"/>
      <use xlink:href="#ArialMT-65" x="1152.109375"/>
      <use xlink:href="#ArialMT-73" x="1207.724609"/>
      <use xlink:href="#ArialMT-20" x="1257.724609"/>
      <use xlink:href="#ArialMT-28" x="1285.507812"/>
      <use xlink:href="#ArialMT-54" x="1318.808594"/>
      <use xlink:href="#ArialMT-4d" x="1379.892578"/>
      <use xlink:href="#ArialMT-4d" x="1463.193359"/>
      <use xlink:href="#ArialMT-29" x="1546.494141"/>
     </g>
    </g>
   </g>
   <g id="PolyCollection_1">
    <defs>
     <path id="m7406ba22c2" d="M 106.947603 -59.108269 
L 101.027077 -59.108269 
L 101.006329 -60.714474 
L 100.990654 -62.320678 
L 100.979942 -63.926882 
L 100.974038 -65.533086 
L 100.972742 -67.13929 
L 100.975814 -68.745495 
L 100.982975 -70.351699 
L 100.993912 -71.957903 
L 101.008281 -73.564107 
L 101.025708 -75.170312 
L 101.0458 -76.776516 
L 101.068146 -78.38272 
L 101.092322 -79.988924 
L 101.117898 -81.595128 
L 101.144443 -83.201333 
L 101.171528 -84.807537 
L 101.198733 -86.413741 
L 101.225655 -88.019945 
L 101.251905 -89.626149 
L 101.27712 -91.232354 
L 101.300963 -92.838558 
L 101.323127 -94.444762 
L 101.343341 -96.050966 
L 101.361365 -97.65717 
L 101.377 -99.263375 
L 101.390087 -100.869579 
L 101.400503 -102.475783 
L 101.408167 -104.081987 
L 101.413037 -105.688191 
L 101.415109 -107.294396 
L 101.414414 -108.9006 
L 101.41102 -110.506804 
L 101.405025 -112.113008 
L 101.396555 -113.719212 
L 101.385764 -115.325417 
L 101.372826 -116.931621 
L 101.357935 -118.537825 
L 101.341298 -120.144029 
L 101.323134 -121.750234 
L 101.303668 -123.356438 
L 101.283129 -124.962642 
L 101.261743 -126.568846 
L 101.239735 -128.17505 
L 101.217322 -129.781255 
L 101.19471 -131.387459 
L 101.172095 -132.993663 
L 101.149654 -134.599867 
L 101.127554 -136.206071 
L 101.10594 -137.812276 
L 101.08494 -139.41848 
L 101.064665 -141.024684 
L 101.045205 -142.630888 
L 101.026634 -144.237092 
L 101.009008 -145.843297 
L 100.992366 -147.449501 
L 100.976735 -149.055705 
L 100.962125 -150.661909 
L 100.94854 -152.268113 
L 100.935971 -153.874318 
L 100.924406 -155.480522 
L 100.913827 -157.086726 
L 100.904213 -158.69293 
L 100.895547 -160.299134 
L 100.88781 -161.905339 
L 100.880992 -163.511543 
L 100.875087 -165.117747 
L 100.870099 -166.723951 
L 100.866039 -168.330156 
L 100.86293 -169.93636 
L 100.860808 -171.542564 
L 100.859719 -173.148768 
L 100.859722 -174.754972 
L 100.860887 -176.361177 
L 100.863296 -177.967381 
L 100.867043 -179.573585 
L 100.872229 -181.179789 
L 100.878966 -182.785993 
L 100.88737 -184.392198 
L 100.897565 -185.998402 
L 100.909673 -187.604606 
L 100.923822 -189.21081 
L 100.940135 -190.817014 
L 100.958733 -192.423219 
L 100.979731 -194.029423 
L 101.003234 -195.635627 
L 101.029338 -197.241831 
L 101.058128 -198.848035 
L 101.089671 -200.45424 
L 101.124023 -202.060444 
L 101.161218 -203.666648 
L 101.201273 -205.272852 
L 101.244187 -206.879056 
L 101.289937 -208.485261 
L 101.338479 -210.091465 
L 101.389748 -211.697669 
L 101.443659 -213.303873 
L 101.500107 -214.910077 
L 101.558966 -216.516282 
L 101.620092 -218.122486 
L 106.354588 -218.122486 
L 106.354588 -218.122486 
L 106.415714 -216.516282 
L 106.474573 -214.910077 
L 106.531021 -213.303873 
L 106.584932 -211.697669 
L 106.636201 -210.091465 
L 106.684743 -208.485261 
L 106.730493 -206.879056 
L 106.773407 -205.272852 
L 106.813463 -203.666648 
L 106.850657 -202.060444 
L 106.885009 -200.45424 
L 106.916553 -198.848035 
L 106.945342 -197.241831 
L 106.971446 -195.635627 
L 106.994949 -194.029423 
L 107.015947 -192.423219 
L 107.034545 -190.817014 
L 107.050858 -189.21081 
L 107.065007 -187.604606 
L 107.077116 -185.998402 
L 107.08731 -184.392198 
L 107.095714 -182.785993 
L 107.102451 -181.179789 
L 107.107637 -179.573585 
L 107.111384 -177.967381 
L 107.113794 -176.361177 
L 107.114958 -174.754972 
L 107.114961 -173.148768 
L 107.113872 -171.542564 
L 107.11175 -169.93636 
L 107.108641 -168.330156 
L 107.104581 -166.723951 
L 107.099593 -165.117747 
L 107.093688 -163.511543 
L 107.08687 -161.905339 
L 107.079134 -160.299134 
L 107.070467 -158.69293 
L 107.060853 -157.086726 
L 107.050274 -155.480522 
L 107.038709 -153.874318 
L 107.02614 -152.268113 
L 107.012555 -150.661909 
L 106.997946 -149.055705 
L 106.982314 -147.449501 
L 106.965672 -145.843297 
L 106.948046 -144.237092 
L 106.929475 -142.630888 
L 106.910015 -141.024684 
L 106.88974 -139.41848 
L 106.86874 -137.812276 
L 106.847126 -136.206071 
L 106.825026 -134.599867 
L 106.802586 -132.993663 
L 106.77997 -131.387459 
L 106.757358 -129.781255 
L 106.734945 -128.17505 
L 106.712937 -126.568846 
L 106.691551 -124.962642 
L 106.671012 -123.356438 
L 106.651546 -121.750234 
L 106.633382 -120.144029 
L 106.616745 -118.537825 
L 106.601854 -116.931621 
L 106.588916 -115.325417 
L 106.578125 -113.719212 
L 106.569655 -112.113008 
L 106.56366 -110.506804 
L 106.560266 -108.9006 
L 106.559571 -107.294396 
L 106.561643 -105.688191 
L 106.566513 -104.081987 
L 106.574177 -102.475783 
L 106.584593 -100.869579 
L 106.59768 -99.263375 
L 106.613315 -97.65717 
L 106.63134 -96.050966 
L 106.651553 -94.444762 
L 106.673717 -92.838558 
L 106.69756 -91.232354 
L 106.722775 -89.626149 
L 106.749025 -88.019945 
L 106.775947 -86.413741 
L 106.803152 -84.807537 
L 106.830237 -83.201333 
L 106.856782 -81.595128 
L 106.882358 -79.988924 
L 106.906534 -78.38272 
L 106.92888 -76.776516 
L 106.948972 -75.170312 
L 106.9664 -73.564107 
L 106.980768 -71.957903 
L 106.991705 -70.351699 
L 106.998866 -68.745495 
L 107.001939 -67.13929 
L 107.000642 -65.533086 
L 106.994738 -63.926882 
L 106.984026 -62.320678 
L 106.968351 -60.714474 
L 106.947603 -59.108269 
z
" style="stroke: #999999; stroke-width: 2"/>
    </defs>
    <g clip-path="url(#pfa3b21bfce)">
     <use xlink:href="#m7406ba22c2" x="0" y="246.509673" style="fill: #ffffff; stroke: #999999; stroke-width: 2"/>
    </g>
   </g>
   <g id="PolyCollection_2">
    <defs>
     <path id="m497c6e7a76" d="M 239.749107 -45.778749 
L 187.513683 -45.778749 
L 187.200156 -45.966735 
L 186.968038 -46.154721 
L 186.809693 -46.342707 
L 186.715517 -46.530693 
L 186.674198 -46.718679 
L 186.673048 -46.906665 
L 186.698371 -47.094651 
L 186.735886 -47.282637 
L 186.771156 -47.470623 
L 186.790042 -47.658609 
L 186.779133 -47.846595 
L 186.726162 -48.034581 
L 186.620376 -48.222567 
L 186.452854 -48.410553 
L 186.216762 -48.598539 
L 185.907529 -48.786526 
L 185.52295 -48.974512 
L 185.063195 -49.162498 
L 184.530747 -49.350484 
L 183.930253 -49.53847 
L 183.268308 -49.726456 
L 182.553175 -49.914442 
L 181.794455 -50.102428 
L 181.002719 -50.290414 
L 180.189121 -50.4784 
L 179.365011 -50.666386 
L 178.541545 -50.854372 
L 177.729335 -51.042358 
L 176.938129 -51.230344 
L 176.176547 -51.41833 
L 175.451869 -51.606316 
L 174.769903 -51.794302 
L 174.134905 -51.982288 
L 173.549588 -52.170274 
L 173.015182 -52.35826 
L 172.531566 -52.546246 
L 172.097451 -52.734232 
L 171.710602 -52.922218 
L 171.368102 -53.110204 
L 171.066619 -53.29819 
L 170.802692 -53.486176 
L 170.573002 -53.674162 
L 170.374623 -53.862148 
L 170.205243 -54.050134 
L 170.063341 -54.23812 
L 169.948323 -54.426106 
L 169.860598 -54.614092 
L 169.801603 -54.802078 
L 169.773773 -54.990064 
L 169.780466 -55.17805 
L 169.825829 -55.366036 
L 169.914639 -55.554022 
L 170.052104 -55.742008 
L 170.243646 -55.929994 
L 170.494672 -56.11798 
L 170.810344 -56.305966 
L 171.195357 -56.493952 
L 171.65373 -56.681938 
L 172.188628 -56.869924 
L 172.802208 -57.05791 
L 173.495505 -57.245896 
L 174.26835 -57.433882 
L 175.119339 -57.621868 
L 176.045824 -57.809854 
L 177.043957 -57.99784 
L 178.108761 -58.185826 
L 179.23423 -58.373812 
L 180.413459 -58.561798 
L 181.63879 -58.749784 
L 182.901976 -58.93777 
L 184.194348 -59.125756 
L 185.506993 -59.313742 
L 186.830924 -59.501728 
L 188.157248 -59.689714 
L 189.47732 -59.8777 
L 190.782884 -60.065686 
L 192.066204 -60.253672 
L 193.320171 -60.441658 
L 194.538391 -60.629644 
L 195.715257 -60.81763 
L 196.845998 -61.005616 
L 197.926713 -61.193602 
L 198.95438 -61.381588 
L 199.926852 -61.569574 
L 200.842835 -61.75756 
L 201.70185 -61.945546 
L 202.504183 -62.133532 
L 203.250822 -62.321518 
L 203.943384 -62.509504 
L 204.584036 -62.69749 
L 205.175409 -62.885476 
L 205.720504 -63.073462 
L 206.222603 -63.261448 
L 206.68518 -63.449434 
L 207.111803 -63.63742 
L 207.506059 -63.825406 
L 207.871469 -64.013392 
L 208.211421 -64.201378 
L 208.529104 -64.389364 
L 218.733687 -64.389364 
L 218.733687 -64.389364 
L 219.05137 -64.201378 
L 219.391321 -64.013392 
L 219.756731 -63.825406 
L 220.150987 -63.63742 
L 220.577611 -63.449434 
L 221.040187 -63.261448 
L 221.542287 -63.073462 
L 222.087382 -62.885476 
L 222.678754 -62.69749 
L 223.319406 -62.509504 
L 224.011969 -62.321518 
L 224.758607 -62.133532 
L 225.56094 -61.945546 
L 226.419955 -61.75756 
L 227.335938 -61.569574 
L 228.30841 -61.381588 
L 229.336078 -61.193602 
L 230.416793 -61.005616 
L 231.547534 -60.81763 
L 232.724399 -60.629644 
L 233.942619 -60.441658 
L 235.196586 -60.253672 
L 236.479906 -60.065686 
L 237.785471 -59.8777 
L 239.105542 -59.689714 
L 240.431866 -59.501728 
L 241.755798 -59.313742 
L 243.068443 -59.125756 
L 244.360815 -58.93777 
L 245.624 -58.749784 
L 246.849331 -58.561798 
L 248.02856 -58.373812 
L 249.15403 -58.185826 
L 250.218833 -57.99784 
L 251.216967 -57.809854 
L 252.143452 -57.621868 
L 252.99444 -57.433882 
L 253.767286 -57.245896 
L 254.460582 -57.05791 
L 255.074162 -56.869924 
L 255.60906 -56.681938 
L 256.067433 -56.493952 
L 256.452446 -56.305966 
L 256.768119 -56.11798 
L 257.019145 -55.929994 
L 257.210687 -55.742008 
L 257.348152 -55.554022 
L 257.436962 -55.366036 
L 257.482325 -55.17805 
L 257.489017 -54.990064 
L 257.461188 -54.802078 
L 257.402192 -54.614092 
L 257.314467 -54.426106 
L 257.199449 -54.23812 
L 257.057548 -54.050134 
L 256.888167 -53.862148 
L 256.689788 -53.674162 
L 256.460098 -53.486176 
L 256.196171 -53.29819 
L 255.894688 -53.110204 
L 255.552188 -52.922218 
L 255.16534 -52.734232 
L 254.731224 -52.546246 
L 254.247608 -52.35826 
L 253.713202 -52.170274 
L 253.127885 -51.982288 
L 252.492888 -51.794302 
L 251.810921 -51.606316 
L 251.086244 -51.41833 
L 250.324661 -51.230344 
L 249.533456 -51.042358 
L 248.721246 -50.854372 
L 247.89778 -50.666386 
L 247.073669 -50.4784 
L 246.260072 -50.290414 
L 245.468335 -50.102428 
L 244.709615 -49.914442 
L 243.994482 -49.726456 
L 243.332538 -49.53847 
L 242.732044 -49.350484 
L 242.199595 -49.162498 
L 241.73984 -48.974512 
L 241.355261 -48.786526 
L 241.046029 -48.598539 
L 240.809937 -48.410553 
L 240.642415 -48.222567 
L 240.536628 -48.034581 
L 240.483657 -47.846595 
L 240.472748 -47.658609 
L 240.491634 -47.470623 
L 240.526904 -47.282637 
L 240.564419 -47.094651 
L 240.589742 -46.906665 
L 240.588592 -46.718679 
L 240.547274 -46.530693 
L 240.453097 -46.342707 
L 240.294752 -46.154721 
L 240.062634 -45.966735 
L 239.749107 -45.778749 
z
" style="stroke: #999999; stroke-width: 2"/>
    </defs>
    <g clip-path="url(#pfa3b21bfce)">
     <use xlink:href="#m497c6e7a76" x="0" y="246.509673" style="fill: #ffffff; stroke: #999999; stroke-width: 2"/>
    </g>
   </g>
   <g id="PathCollection_1"/>
   <g id="PathCollection_2"/>
   <g id="PathCollection_3"/>
   <g id="PathCollection_4"/>
   <g id="PathCollection_5"/>
   <g id="PathCollection_6"/>
   <g id="PathCollection_7"/>
   <g id="patch_3">
    <path d="M 49.165313 209.34811 
L 49.165313 19.77 
" style="fill: none; stroke: #262626; stroke-width: 1.25; stroke-linejoin: miter; stroke-linecap: square"/>
   </g>
   <g id="patch_4">
    <path d="M 49.165313 209.34811 
L 268.453423 209.34811 
" style="fill: none; stroke: #262626; stroke-width: 1.25; stroke-linejoin: miter; stroke-linecap: square"/>
   </g>
   <g id="PathCollection_8">
    <defs>
     <path id="C0_0_1d32a7487a" d="M 0 2.5 
C 0.663008 2.5 1.29895 2.236584 1.767767 1.767767 
C 2.236584 1.29895 2.5 0.663008 2.5 -0 
C 2.5 -0.663008 2.236584 -1.29895 1.767767 -1.767767 
C 1.29895 -2.236584 0.663008 -2.5 0 -2.5 
C -0.663008 -2.5 -1.29895 -2.236584 -1.767767 -1.767767 
C -2.236584 -1.29895 -2.5 -0.663008 -2.5 0 
C -2.5 0.663008 -2.236584 1.29895 -1.767767 1.767767 
C -1.29895 2.236584 -0.663008 2.5 0 2.5 
z
"/>
    </defs>
    <g clip-path="url(#pfa3b21bfce)">
     <use xlink:href="#C0_0_1d32a7487a" x="109.247568" y="184.312438" style="fill: #da8bc3; fill-opacity: 0.8"/>
    </g>
    <g clip-path="url(#pfa3b21bfce)">
     <use xlink:href="#C0_0_1d32a7487a" x="94.206792" y="184.434198" style="fill: #da8bc3; fill-opacity: 0.8"/>
    </g>
    <g clip-path="url(#pfa3b21bfce)">
     <use xlink:href="#C0_0_1d32a7487a" x="99.943684" y="186.488834" style="fill: #da8bc3; fill-opacity: 0.8"/>
    </g>
    <g clip-path="url(#pfa3b21bfce)">
     <use xlink:href="#C0_0_1d32a7487a" x="98.803156" y="184.157132" style="fill: #da8bc3; fill-opacity: 0.8"/>
    </g>
    <g clip-path="url(#pfa3b21bfce)">
     <use xlink:href="#C0_0_1d32a7487a" x="105.279649" y="186.313616" style="fill: #da8bc3; fill-opacity: 0.8"/>
    </g>
    <g clip-path="url(#pfa3b21bfce)">
     <use xlink:href="#C0_0_1d32a7487a" x="98.954465" y="187.401403" style="fill: #da8bc3; fill-opacity: 0.8"/>
    </g>
    <g clip-path="url(#pfa3b21bfce)">
     <use xlink:href="#C0_0_1d32a7487a" x="106.409039" y="185.228071" style="fill: #da8bc3; fill-opacity: 0.8"/>
    </g>
    <g clip-path="url(#pfa3b21bfce)">
     <use xlink:href="#C0_0_1d32a7487a" x="107.12678" y="187.19565" style="fill: #da8bc3; fill-opacity: 0.8"/>
    </g>
    <g clip-path="url(#pfa3b21bfce)">
     <use xlink:href="#C0_0_1d32a7487a" x="104.141854" y="54.871675" style="fill: #4c72b0; fill-opacity: 0.8"/>
    </g>
    <g clip-path="url(#pfa3b21bfce)">
     <use xlink:href="#C0_0_1d32a7487a" x="98.851153" y="65.769404" style="fill: #4c72b0; fill-opacity: 0.8"/>
    </g>
    <g clip-path="url(#pfa3b21bfce)">
     <use xlink:href="#C0_0_1d32a7487a" x="95.071783" y="44.125749" style="fill: #4c72b0; fill-opacity: 0.8"/>
    </g>
    <g clip-path="url(#pfa3b21bfce)">
     <use xlink:href="#C0_0_1d32a7487a" x="107.650831" y="28.387187" style="fill: #4c72b0; fill-opacity: 0.8"/>
    </g>
    <g clip-path="url(#pfa3b21bfce)">
     <use xlink:href="#C0_0_1d32a7487a" x="105.605164" y="40.682726" style="fill: #4c72b0; fill-opacity: 0.8"/>
    </g>
    <g clip-path="url(#pfa3b21bfce)">
     <use xlink:href="#C0_0_1d32a7487a" x="106.224135" y="28.388038" style="fill: #4c72b0; fill-opacity: 0.8"/>
    </g>
    <g clip-path="url(#pfa3b21bfce)">
     <use xlink:href="#C0_0_1d32a7487a" x="108.777331" y="115.038465" style="fill: #8172b3; fill-opacity: 0.8"/>
    </g>
    <g clip-path="url(#pfa3b21bfce)">
     <use xlink:href="#C0_0_1d32a7487a" x="108.621865" y="105.330927" style="fill: #8172b3; fill-opacity: 0.8"/>
    </g>
    <g clip-path="url(#pfa3b21bfce)">
     <use xlink:href="#C0_0_1d32a7487a" x="105.669618" y="112.957278" style="fill: #8172b3; fill-opacity: 0.8"/>
    </g>
    <g clip-path="url(#pfa3b21bfce)">
     <use xlink:href="#C0_0_1d32a7487a" x="106.9288" y="73.635915" style="fill: #8172b3; fill-opacity: 0.8"/>
    </g>
    <g clip-path="url(#pfa3b21bfce)">
     <use xlink:href="#C0_0_1d32a7487a" x="104.926403" y="97.63889" style="fill: #8172b3; fill-opacity: 0.8"/>
    </g>
    <g clip-path="url(#pfa3b21bfce)">
     <use xlink:href="#C0_0_1d32a7487a" x="100.702049" y="118.432531" style="fill: #8172b3; fill-opacity: 0.8"/>
    </g>
    <g clip-path="url(#pfa3b21bfce)">
     <use xlink:href="#C0_0_1d32a7487a" x="100.667131" y="108.232063" style="fill: #8172b3; fill-opacity: 0.8"/>
    </g>
    <g clip-path="url(#pfa3b21bfce)">
     <use xlink:href="#C0_0_1d32a7487a" x="114.83539" y="42.031724" style="fill: #8172b3; fill-opacity: 0.8"/>
    </g>
   </g>
   <g id="PathCollection_9">
    <defs>
     <path id="C1_0_f0d8bc5028" d="M 0 2.5 
C 0.663008 2.5 1.29895 2.236584 1.767767 1.767767 
C 2.236584 1.29895 2.5 0.663008 2.5 -0 
C 2.5 -0.663008 2.236584 -1.29895 1.767767 -1.767767 
C 1.29895 -2.236584 0.663008 -2.5 0 -2.5 
C -0.663008 -2.5 -1.29895 -2.236584 -1.767767 -1.767767 
C -2.236584 -1.29895 -2.5 -0.663008 -2.5 0 
C -2.5 0.663008 -2.236584 1.29895 -1.767767 1.767767 
C -1.29895 2.236584 -0.663008 2.5 0 2.5 
z
"/>
    </defs>
    <g clip-path="url(#pfa3b21bfce)">
     <use xlink:href="#C1_0_f0d8bc5028" x="210.766755" y="194.417962" style="fill: #dd8452; fill-opacity: 0.8"/>
    </g>
    <g clip-path="url(#pfa3b21bfce)">
     <use xlink:href="#C1_0_f0d8bc5028" x="223.201938" y="193.735774" style="fill: #dd8452; fill-opacity: 0.8"/>
    </g>
    <g clip-path="url(#pfa3b21bfce)">
     <use xlink:href="#C1_0_f0d8bc5028" x="223.980366" y="195.228254" style="fill: #dd8452; fill-opacity: 0.8"/>
    </g>
    <g clip-path="url(#pfa3b21bfce)">
     <use xlink:href="#C1_0_f0d8bc5028" x="211.664516" y="194.707496" style="fill: #dd8452; fill-opacity: 0.8"/>
    </g>
    <g clip-path="url(#pfa3b21bfce)">
     <use xlink:href="#C1_0_f0d8bc5028" x="219.51499" y="194.099634" style="fill: #dd8452; fill-opacity: 0.8"/>
    </g>
    <g clip-path="url(#pfa3b21bfce)">
     <use xlink:href="#C1_0_f0d8bc5028" x="214.855872" y="195.27381" style="fill: #dd8452; fill-opacity: 0.8"/>
    </g>
    <g clip-path="url(#pfa3b21bfce)">
     <use xlink:href="#C1_0_f0d8bc5028" x="217.584261" y="195.956296" style="fill: #dd8452; fill-opacity: 0.8"/>
    </g>
    <g clip-path="url(#pfa3b21bfce)">
     <use xlink:href="#C1_0_f0d8bc5028" x="211.423934" y="195.190305" style="fill: #dd8452; fill-opacity: 0.8"/>
    </g>
    <g clip-path="url(#pfa3b21bfce)">
     <use xlink:href="#C1_0_f0d8bc5028" x="203.958714" y="194.769119" style="fill: #dd8452; fill-opacity: 0.8"/>
    </g>
    <g clip-path="url(#pfa3b21bfce)">
     <use xlink:href="#C1_0_f0d8bc5028" x="214.377492" y="194.359804" style="fill: #dd8452; fill-opacity: 0.8"/>
    </g>
    <g clip-path="url(#pfa3b21bfce)">
     <use xlink:href="#C1_0_f0d8bc5028" x="203.867587" y="190.139605" style="fill: #55a868; fill-opacity: 0.8"/>
    </g>
    <g clip-path="url(#pfa3b21bfce)">
     <use xlink:href="#C1_0_f0d8bc5028" x="217.834269" y="188.568453" style="fill: #55a868; fill-opacity: 0.8"/>
    </g>
    <g clip-path="url(#pfa3b21bfce)">
     <use xlink:href="#C1_0_f0d8bc5028" x="219.857314" y="190.467083" style="fill: #55a868; fill-opacity: 0.8"/>
    </g>
    <g clip-path="url(#pfa3b21bfce)">
     <use xlink:href="#C1_0_f0d8bc5028" x="222.849985" y="191.214745" style="fill: #55a868; fill-opacity: 0.8"/>
    </g>
    <g clip-path="url(#pfa3b21bfce)">
     <use xlink:href="#C1_0_f0d8bc5028" x="223.530068" y="190.055294" style="fill: #55a868; fill-opacity: 0.8"/>
    </g>
    <g clip-path="url(#pfa3b21bfce)">
     <use xlink:href="#C1_0_f0d8bc5028" x="208.627832" y="190.900659" style="fill: #55a868; fill-opacity: 0.8"/>
    </g>
    <g clip-path="url(#pfa3b21bfce)">
     <use xlink:href="#C1_0_f0d8bc5028" x="217.274551" y="191.343096" style="fill: #55a868; fill-opacity: 0.8"/>
    </g>
    <g clip-path="url(#pfa3b21bfce)">
     <use xlink:href="#C1_0_f0d8bc5028" x="216.235729" y="192.320372" style="fill: #55a868; fill-opacity: 0.8"/>
    </g>
    <g clip-path="url(#pfa3b21bfce)">
     <use xlink:href="#C1_0_f0d8bc5028" x="212.027276" y="200.730923" style="fill: #c44e52; fill-opacity: 0.8"/>
    </g>
    <g clip-path="url(#pfa3b21bfce)">
     <use xlink:href="#C1_0_f0d8bc5028" x="209.319679" y="200.724982" style="fill: #c44e52; fill-opacity: 0.8"/>
    </g>
    <g clip-path="url(#pfa3b21bfce)">
     <use xlink:href="#C1_0_f0d8bc5028" x="220.473359" y="200.719781" style="fill: #c44e52; fill-opacity: 0.8"/>
    </g>
    <g clip-path="url(#pfa3b21bfce)">
     <use xlink:href="#C1_0_f0d8bc5028" x="205.559427" y="200.671111" style="fill: #c44e52; fill-opacity: 0.8"/>
    </g>
    <g clip-path="url(#pfa3b21bfce)">
     <use xlink:href="#C1_0_f0d8bc5028" x="206.496413" y="200.730923" style="fill: #c44e52; fill-opacity: 0.8"/>
    </g>
    <g clip-path="url(#pfa3b21bfce)">
     <use xlink:href="#C1_0_f0d8bc5028" x="203.964248" y="200.72437" style="fill: #c44e52; fill-opacity: 0.8"/>
    </g>
    <g clip-path="url(#pfa3b21bfce)">
     <use xlink:href="#C1_0_f0d8bc5028" x="208.751185" y="200.730923" style="fill: #c44e52; fill-opacity: 0.8"/>
    </g>
    <g clip-path="url(#pfa3b21bfce)">
     <use xlink:href="#C1_0_f0d8bc5028" x="220.706345" y="200.730923" style="fill: #c44e52; fill-opacity: 0.8"/>
    </g>
    <g clip-path="url(#pfa3b21bfce)">
     <use xlink:href="#C1_0_f0d8bc5028" x="211.486206" y="189.617719" style="fill: #937860; fill-opacity: 0.8"/>
    </g>
    <g clip-path="url(#pfa3b21bfce)">
     <use xlink:href="#C1_0_f0d8bc5028" x="214.594784" y="188.135739" style="fill: #937860; fill-opacity: 0.8"/>
    </g>
    <g clip-path="url(#pfa3b21bfce)">
     <use xlink:href="#C1_0_f0d8bc5028" x="212.702065" y="186.061791" style="fill: #937860; fill-opacity: 0.8"/>
    </g>
    <g clip-path="url(#pfa3b21bfce)">
     <use xlink:href="#C1_0_f0d8bc5028" x="205.721509" y="188.618237" style="fill: #937860; fill-opacity: 0.8"/>
    </g>
    <g clip-path="url(#pfa3b21bfce)">
     <use xlink:href="#C1_0_f0d8bc5028" x="210.040676" y="189.384189" style="fill: #937860; fill-opacity: 0.8"/>
    </g>
    <g clip-path="url(#pfa3b21bfce)">
     <use xlink:href="#C1_0_f0d8bc5028" x="207.430105" y="188.775238" style="fill: #937860; fill-opacity: 0.8"/>
    </g>
    <g clip-path="url(#pfa3b21bfce)">
     <use xlink:href="#C1_0_f0d8bc5028" x="208.809451" y="186.617858" style="fill: #937860; fill-opacity: 0.8"/>
    </g>
    <g clip-path="url(#pfa3b21bfce)">
     <use xlink:href="#C1_0_f0d8bc5028" x="204.31316" y="182.120308" style="fill: #937860; fill-opacity: 0.8"/>
    </g>
   </g>
   <g id="text_12">
    <!-- ATP11A, $p_{adj}$ &lt; .001 *** -->
    <g style="fill: #262626" transform="translate(49.165313 13.77)scale(0.09 -0.09)">
     <defs>
      <path id="ArialMT-41" d="M -9 0 
L 1750 4581 
L 2403 4581 
L 4278 0 
L 3588 0 
L 3053 1388 
L 1138 1388 
L 634 0 
L -9 0 
z
M 1313 1881 
L 2866 1881 
L 2388 3150 
Q 2169 3728 2063 4100 
Q 1975 3659 1816 3225 
L 1313 1881 
z
" transform="scale(0.015625)"/>
      <path id="ArialMT-50" d="M 494 0 
L 494 4581 
L 2222 4581 
Q 2678 4581 2919 4538 
Q 3256 4481 3484 4323 
Q 3713 4166 3852 3881 
Q 3991 3597 3991 3256 
Q 3991 2672 3619 2267 
Q 3247 1863 2275 1863 
L 1100 1863 
L 1100 0 
L 494 0 
z
M 1100 2403 
L 2284 2403 
Q 2872 2403 3119 2622 
Q 3366 2841 3366 3238 
Q 3366 3525 3220 3729 
Q 3075 3934 2838 4000 
Q 2684 4041 2272 4041 
L 1100 4041 
L 1100 2403 
z
" transform="scale(0.015625)"/>
      <path id="ArialMT-2c" d="M 569 0 
L 569 641 
L 1209 641 
L 1209 0 
Q 1209 -353 1084 -570 
Q 959 -788 688 -906 
L 531 -666 
Q 709 -588 793 -436 
Q 878 -284 888 0 
L 569 0 
z
" transform="scale(0.015625)"/>
      <path id="DejaVuSans-Oblique-70" d="M 3175 2156 
Q 3175 2616 2975 2859 
Q 2775 3103 2400 3103 
Q 2144 3103 1911 2972 
Q 1678 2841 1497 2591 
Q 1319 2344 1212 1994 
Q 1106 1644 1106 1300 
Q 1106 863 1306 627 
Q 1506 391 1875 391 
Q 2147 391 2380 519 
Q 2613 647 2778 891 
Q 2956 1147 3065 1494 
Q 3175 1841 3175 2156 
z
M 1394 2969 
Q 1625 3272 1939 3428 
Q 2253 3584 2638 3584 
Q 3175 3584 3472 3232 
Q 3769 2881 3769 2247 
Q 3769 1728 3584 1258 
Q 3400 788 3053 416 
Q 2822 169 2531 39 
Q 2241 -91 1919 -91 
Q 1547 -91 1294 64 
Q 1041 219 916 525 
L 556 -1331 
L -19 -1331 
L 922 3500 
L 1497 3500 
L 1394 2969 
z
" transform="scale(0.015625)"/>
      <path id="DejaVuSans-Oblique-61" d="M 3438 1997 
L 3047 0 
L 2472 0 
L 2578 531 
Q 2325 219 2001 64 
Q 1678 -91 1281 -91 
Q 834 -91 548 182 
Q 263 456 263 884 
Q 263 1497 752 1853 
Q 1241 2209 2100 2209 
L 2900 2209 
L 2931 2363 
Q 2938 2388 2941 2417 
Q 2944 2447 2944 2509 
Q 2944 2788 2717 2942 
Q 2491 3097 2081 3097 
Q 1800 3097 1504 3025 
Q 1209 2953 897 2809 
L 997 3341 
Q 1322 3463 1633 3523 
Q 1944 3584 2234 3584 
Q 2853 3584 3176 3315 
Q 3500 3047 3500 2534 
Q 3500 2431 3484 2292 
Q 3469 2153 3438 1997 
z
M 2816 1759 
L 2241 1759 
Q 1534 1759 1195 1570 
Q 856 1381 856 984 
Q 856 709 1029 553 
Q 1203 397 1509 397 
Q 1978 397 2328 733 
Q 2678 1069 2791 1631 
L 2816 1759 
z
" transform="scale(0.015625)"/>
      <path id="DejaVuSans-Oblique-64" d="M 2675 525 
Q 2444 222 2128 65 
Q 1813 -91 1428 -91 
Q 903 -91 598 267 
Q 294 625 294 1247 
Q 294 1766 478 2236 
Q 663 2706 1013 3078 
Q 1244 3325 1534 3454 
Q 1825 3584 2144 3584 
Q 2481 3584 2739 3421 
Q 2997 3259 3138 2956 
L 3513 4863 
L 4091 4863 
L 3144 0 
L 2566 0 
L 2675 525 
z
M 891 1350 
Q 891 897 1095 644 
Q 1300 391 1663 391 
Q 1931 391 2161 520 
Q 2391 650 2566 903 
Q 2750 1166 2856 1509 
Q 2963 1853 2963 2188 
Q 2963 2622 2758 2865 
Q 2553 3109 2194 3109 
Q 1922 3109 1687 2981 
Q 1453 2853 1288 2613 
Q 1106 2353 998 2009 
Q 891 1666 891 1350 
z
" transform="scale(0.015625)"/>
      <path id="DejaVuSans-Oblique-6a" d="M 928 3500 
L 1503 3500 
L 813 -63 
L 809 -78 
Q 694 -675 544 -897 
Q 403 -1106 132 -1218 
Q -138 -1331 -506 -1331 
L -722 -1331 
L -628 -844 
L -481 -844 
Q -144 -844 -1 -703 
Q 141 -563 238 -63 
L 928 3500 
z
M 1197 4863 
L 1772 4863 
L 1631 4134 
L 1056 4134 
L 1197 4863 
z
" transform="scale(0.015625)"/>
      <path id="ArialMT-3c" d="M 350 2003 
L 350 2528 
L 3384 3809 
L 3384 3250 
L 978 2263 
L 3384 1266 
L 3384 706 
L 350 2003 
z
" transform="scale(0.015625)"/>
      <path id="ArialMT-2e" d="M 581 0 
L 581 641 
L 1222 641 
L 1222 0 
L 581 0 
z
" transform="scale(0.015625)"/>
      <path id="ArialMT-2a" d="M 200 3741 
L 344 4184 
Q 841 4009 1066 3881 
Q 1006 4447 1003 4659 
L 1456 4659 
Q 1447 4350 1384 3884 
Q 1706 4047 2122 4184 
L 2266 3741 
Q 1869 3609 1488 3566 
Q 1678 3400 2025 2975 
L 1650 2709 
Q 1469 2956 1222 3381 
Q 991 2941 816 2709 
L 447 2975 
Q 809 3422 966 3566 
Q 563 3644 200 3741 
z
" transform="scale(0.015625)"/>
     </defs>
     <use xlink:href="#ArialMT-41" transform="translate(0 0.203125)"/>
     <use xlink:href="#ArialMT-54" transform="translate(66.699219 0.203125)"/>
     <use xlink:href="#ArialMT-50" transform="translate(127.783203 0.203125)"/>
     <use xlink:href="#ArialMT-31" transform="translate(194.482422 0.203125)"/>
     <use xlink:href="#ArialMT-31" transform="translate(250.097656 0.203125)"/>
     <use xlink:href="#ArialMT-41" transform="translate(305.712891 0.203125)"/>
     <use xlink:href="#ArialMT-2c" transform="translate(372.412109 0.203125)"/>
     <use xlink:href="#ArialMT-20" transform="translate(400.195312 0.203125)"/>
     <use xlink:href="#DejaVuSans-Oblique-70" transform="translate(427.978516 0.203125)"/>
     <use xlink:href="#DejaVuSans-Oblique-61" transform="translate(491.455078 -16.203125)scale(0.7)"/>
     <use xlink:href="#DejaVuSans-Oblique-64" transform="translate(534.350586 -16.203125)scale(0.7)"/>
     <use xlink:href="#DejaVuSans-Oblique-6a" transform="translate(578.78418 -16.203125)scale(0.7)"/>
     <use xlink:href="#ArialMT-20" transform="translate(600.966797 0.203125)"/>
     <use xlink:href="#ArialMT-3c" transform="translate(628.75 0.203125)"/>
     <use xlink:href="#ArialMT-20" transform="translate(687.148438 0.203125)"/>
     <use xlink:href="#ArialMT-2e" transform="translate(714.931641 0.203125)"/>
     <use xlink:href="#ArialMT-30" transform="translate(742.714844 0.203125)"/>
     <use xlink:href="#ArialMT-30" transform="translate(798.330078 0.203125)"/>
     <use xlink:href="#ArialMT-31" transform="translate(853.945312 0.203125)"/>
     <use xlink:href="#ArialMT-20" transform="translate(909.560547 0.203125)"/>
     <use xlink:href="#ArialMT-2a" transform="translate(937.34375 0.203125)"/>
     <use xlink:href="#ArialMT-2a" transform="translate(976.259766 0.203125)"/>
     <use xlink:href="#ArialMT-2a" transform="translate(1015.175781 0.203125)"/>
    </g>
   </g>
  </g>
  <g id="axes_2">
   <g id="patch_5">
    <path d="M 278.173423 209.34811 
L 497.461533 209.34811 
L 497.461533 19.77 
L 278.173423 19.77 
z
" style="fill: #ffffff"/>
   </g>
   <g id="matplotlib.axis_3">
    <g id="xtick_3">
     <g id="text_13">
      <!-- BEVA -->
      <g style="fill: #444444" transform="translate(321.320763 225.290141)scale(0.09 -0.09)">
       <defs>
        <path id="ArialMT-42" d="M 469 0 
L 469 4581 
L 2188 4581 
Q 2713 4581 3030 4442 
Q 3347 4303 3526 4014 
Q 3706 3725 3706 3409 
Q 3706 3116 3547 2856 
Q 3388 2597 3066 2438 
Q 3481 2316 3704 2022 
Q 3928 1728 3928 1328 
Q 3928 1006 3792 729 
Q 3656 453 3456 303 
Q 3256 153 2954 76 
Q 2653 0 2216 0 
L 469 0 
z
M 1075 2656 
L 2066 2656 
Q 2469 2656 2644 2709 
Q 2875 2778 2992 2937 
Q 3109 3097 3109 3338 
Q 3109 3566 3000 3739 
Q 2891 3913 2687 3977 
Q 2484 4041 1991 4041 
L 1075 4041 
L 1075 2656 
z
M 1075 541 
L 2216 541 
Q 2509 541 2628 563 
Q 2838 600 2978 687 
Q 3119 775 3209 942 
Q 3300 1109 3300 1328 
Q 3300 1584 3169 1773 
Q 3038 1963 2805 2039 
Q 2572 2116 2134 2116 
L 1075 2116 
L 1075 541 
z
" transform="scale(0.015625)"/>
        <path id="ArialMT-45" d="M 506 0 
L 506 4581 
L 3819 4581 
L 3819 4041 
L 1113 4041 
L 1113 2638 
L 3647 2638 
L 3647 2100 
L 1113 2100 
L 1113 541 
L 3925 541 
L 3925 0 
L 506 0 
z
" transform="scale(0.015625)"/>
        <path id="ArialMT-56" d="M 1803 0 
L 28 4581 
L 684 4581 
L 1875 1253 
Q 2019 853 2116 503 
Q 2222 878 2363 1253 
L 3600 4581 
L 4219 4581 
L 2425 0 
L 1803 0 
z
" transform="scale(0.015625)"/>
       </defs>
       <use xlink:href="#ArialMT-42"/>
       <use xlink:href="#ArialMT-45" x="66.699219"/>
       <use xlink:href="#ArialMT-56" x="133.398438"/>
       <use xlink:href="#ArialMT-41" x="192.722656"/>
      </g>
     </g>
    </g>
    <g id="xtick_4">
     <g id="text_14">
      <!-- CTRL -->
      <g style="fill: #444444" transform="translate(430.88888 225.290141)scale(0.09 -0.09)">
       <defs>
        <path id="ArialMT-52" d="M 503 0 
L 503 4581 
L 2534 4581 
Q 3147 4581 3465 4457 
Q 3784 4334 3975 4021 
Q 4166 3709 4166 3331 
Q 4166 2844 3850 2509 
Q 3534 2175 2875 2084 
Q 3116 1969 3241 1856 
Q 3506 1613 3744 1247 
L 4541 0 
L 3778 0 
L 3172 953 
Q 2906 1366 2734 1584 
Q 2563 1803 2427 1890 
Q 2291 1978 2150 2013 
Q 2047 2034 1813 2034 
L 1109 2034 
L 1109 0 
L 503 0 
z
M 1109 2559 
L 2413 2559 
Q 2828 2559 3062 2645 
Q 3297 2731 3419 2920 
Q 3541 3109 3541 3331 
Q 3541 3656 3305 3865 
Q 3069 4075 2559 4075 
L 1109 4075 
L 1109 2559 
z
" transform="scale(0.015625)"/>
        <path id="ArialMT-4c" d="M 469 0 
L 469 4581 
L 1075 4581 
L 1075 541 
L 3331 541 
L 3331 0 
L 469 0 
z
" transform="scale(0.015625)"/>
       </defs>
       <use xlink:href="#ArialMT-43"/>
       <use xlink:href="#ArialMT-54" x="72.216797"/>
       <use xlink:href="#ArialMT-52" x="133.300781"/>
       <use xlink:href="#ArialMT-4c" x="205.517578"/>
      </g>
     </g>
    </g>
    <g id="text_15">
     <!-- Condition -->
     <g style="fill: #444444" transform="translate(368.805681 237.520923)scale(0.09 -0.09)">
      <use xlink:href="#ArialMT-43"/>
      <use xlink:href="#ArialMT-6f" x="72.216797"/>
      <use xlink:href="#ArialMT-6e" x="127.832031"/>
      <use xlink:href="#ArialMT-64" x="183.447266"/>
      <use xlink:href="#ArialMT-69" x="239.0625"/>
      <use xlink:href="#ArialMT-74" x="261.279297"/>
      <use xlink:href="#ArialMT-69" x="289.0625"/>
      <use xlink:href="#ArialMT-6f" x="311.279297"/>
      <use xlink:href="#ArialMT-6e" x="366.894531"/>
     </g>
    </g>
   </g>
   <g id="matplotlib.axis_4">
    <g id="ytick_8"/>
    <g id="ytick_9"/>
    <g id="ytick_10"/>
    <g id="ytick_11"/>
    <g id="ytick_12"/>
    <g id="ytick_13"/>
    <g id="ytick_14"/>
   </g>
   <g id="PolyCollection_3">
    <defs>
     <path id="m463f16aa3d" d="M 374.382628 -45.778749 
L 291.608273 -45.778749 
L 290.83844 -47.36062 
L 290.204827 -48.94249 
L 289.713819 -50.524361 
L 289.370338 -52.106231 
L 289.177757 -53.688102 
L 289.137828 -55.269972 
L 289.250653 -56.851842 
L 289.51467 -58.433713 
L 289.926678 -60.015583 
L 290.481882 -61.597454 
L 291.173976 -63.179324 
L 291.99524 -64.761195 
L 292.936668 -66.343065 
L 293.988115 -67.924936 
L 295.138459 -69.506806 
L 296.375777 -71.088677 
L 297.687531 -72.670547 
L 299.06076 -74.252417 
L 300.482275 -75.834288 
L 301.938844 -77.416158 
L 303.41738 -78.998029 
L 304.905117 -80.579899 
L 306.389768 -82.16177 
L 307.859676 -83.74364 
L 309.303941 -85.325511 
L 310.712534 -86.907381 
L 312.076385 -88.489252 
L 313.387456 -90.071122 
L 314.638788 -91.652992 
L 315.824533 -93.234863 
L 316.939963 -94.816733 
L 317.981461 -96.398604 
L 318.946494 -97.980474 
L 319.833576 -99.562345 
L 320.642208 -101.144215 
L 321.372816 -102.726086 
L 322.02667 -104.307956 
L 322.605808 -105.889827 
L 323.112937 -107.471697 
L 323.551349 -109.053567 
L 323.924821 -110.635438 
L 324.237522 -112.217308 
L 324.493918 -113.799179 
L 324.698684 -115.381049 
L 324.856617 -116.96292 
L 324.972553 -118.54479 
L 325.051294 -120.126661 
L 325.097539 -121.708531 
L 325.115824 -123.290402 
L 325.110467 -124.872272 
L 325.085527 -126.454142 
L 325.044768 -128.036013 
L 324.991625 -129.617883 
L 324.929194 -131.199754 
L 324.860216 -132.781624 
L 324.787072 -134.363495 
L 324.711791 -135.945365 
L 324.636061 -137.527236 
L 324.561242 -139.109106 
L 324.488393 -140.690976 
L 324.418297 -142.272847 
L 324.351493 -143.854717 
L 324.28831 -145.436588 
L 324.228902 -147.018458 
L 324.173285 -148.600329 
L 324.121377 -150.182199 
L 324.073031 -151.76407 
L 324.028069 -153.34594 
L 323.98632 -154.927811 
L 323.947641 -156.509681 
L 323.911949 -158.091551 
L 323.879238 -159.673422 
L 323.849595 -161.255292 
L 323.823217 -162.837163 
L 323.800411 -164.419033 
L 323.781598 -166.000904 
L 323.767312 -167.582774 
L 323.758188 -169.164645 
L 323.754955 -170.746515 
L 323.758416 -172.328386 
L 323.769435 -173.910256 
L 323.78891 -175.492126 
L 323.817754 -177.073997 
L 323.856874 -178.655867 
L 323.90714 -180.237738 
L 323.96937 -181.819608 
L 324.044298 -183.401479 
L 324.132565 -184.983349 
L 324.234687 -186.56522 
L 324.351051 -188.14709 
L 324.481894 -189.728961 
L 324.627296 -191.310831 
L 324.787173 -192.892701 
L 324.961276 -194.474572 
L 325.149188 -196.056442 
L 325.350331 -197.638313 
L 325.563972 -199.220183 
L 325.789235 -200.802054 
L 326.025111 -202.383924 
L 339.96579 -202.383924 
L 339.96579 -202.383924 
L 340.201665 -200.802054 
L 340.426928 -199.220183 
L 340.64057 -197.638313 
L 340.841713 -196.056442 
L 341.029625 -194.474572 
L 341.203727 -192.892701 
L 341.363605 -191.310831 
L 341.509007 -189.728961 
L 341.639849 -188.14709 
L 341.756213 -186.56522 
L 341.858336 -184.983349 
L 341.946602 -183.401479 
L 342.021531 -181.819608 
L 342.08376 -180.237738 
L 342.134027 -178.655867 
L 342.173146 -177.073997 
L 342.201991 -175.492126 
L 342.221466 -173.910256 
L 342.232484 -172.328386 
L 342.235946 -170.746515 
L 342.232713 -169.164645 
L 342.223589 -167.582774 
L 342.209302 -166.000904 
L 342.19049 -164.419033 
L 342.167683 -162.837163 
L 342.141305 -161.255292 
L 342.111663 -159.673422 
L 342.078951 -158.091551 
L 342.043259 -156.509681 
L 342.00458 -154.927811 
L 341.962831 -153.34594 
L 341.91787 -151.76407 
L 341.869523 -150.182199 
L 341.817616 -148.600329 
L 341.761999 -147.018458 
L 341.702591 -145.436588 
L 341.639407 -143.854717 
L 341.572603 -142.272847 
L 341.502508 -140.690976 
L 341.429659 -139.109106 
L 341.35484 -137.527236 
L 341.27911 -135.945365 
L 341.203829 -134.363495 
L 341.130685 -132.781624 
L 341.061706 -131.199754 
L 340.999276 -129.617883 
L 340.946133 -128.036013 
L 340.905373 -126.454142 
L 340.880434 -124.872272 
L 340.875077 -123.290402 
L 340.893362 -121.708531 
L 340.939607 -120.126661 
L 341.018348 -118.54479 
L 341.134284 -116.96292 
L 341.292217 -115.381049 
L 341.496983 -113.799179 
L 341.753379 -112.217308 
L 342.066079 -110.635438 
L 342.439551 -109.053567 
L 342.877963 -107.471697 
L 343.385093 -105.889827 
L 343.96423 -104.307956 
L 344.618085 -102.726086 
L 345.348692 -101.144215 
L 346.157325 -99.562345 
L 347.044406 -97.980474 
L 348.00944 -96.398604 
L 349.050937 -94.816733 
L 350.166367 -93.234863 
L 351.352112 -91.652992 
L 352.603444 -90.071122 
L 353.914515 -88.489252 
L 355.278366 -86.907381 
L 356.68696 -85.325511 
L 358.131225 -83.74364 
L 359.601133 -82.16177 
L 361.085784 -80.579899 
L 362.57352 -78.998029 
L 364.052057 -77.416158 
L 365.508626 -75.834288 
L 366.93014 -74.252417 
L 368.30337 -72.670547 
L 369.615124 -71.088677 
L 370.852442 -69.506806 
L 372.002785 -67.924936 
L 373.054233 -66.343065 
L 373.995661 -64.761195 
L 374.816925 -63.179324 
L 375.509019 -61.597454 
L 376.064223 -60.015583 
L 376.47623 -58.433713 
L 376.740247 -56.851842 
L 376.853072 -55.269972 
L 376.813144 -53.688102 
L 376.620562 -52.106231 
L 376.277082 -50.524361 
L 375.786074 -48.94249 
L 375.152461 -47.36062 
L 374.382628 -45.778749 
z
" style="stroke: #999999; stroke-width: 2"/>
    </defs>
    <g clip-path="url(#pe288569385)">
     <use xlink:href="#m463f16aa3d" x="0" y="246.509673" style="fill: #ffffff; stroke: #999999; stroke-width: 2"/>
    </g>
   </g>
   <g id="PolyCollection_4">
    <defs>
     <path id="m28a19fde86" d="M 479.210955 -45.778749 
L 406.068056 -45.778749 
L 405.535085 -47.519595 
L 405.113285 -49.260441 
L 404.806316 -51.001287 
L 404.616726 -52.742133 
L 404.545908 -54.482978 
L 404.594078 -56.223824 
L 404.760261 -57.96467 
L 405.04231 -59.705516 
L 405.436931 -61.446362 
L 405.939738 -63.187208 
L 406.545317 -64.928053 
L 407.247307 -66.668899 
L 408.038501 -68.409745 
L 408.910951 -70.150591 
L 409.856091 -71.891437 
L 410.864861 -73.632283 
L 411.927838 -75.373128 
L 413.035371 -77.113974 
L 414.177715 -78.85482 
L 415.345164 -80.595666 
L 416.52817 -82.336512 
L 417.717472 -84.077357 
L 418.904197 -85.818203 
L 420.079965 -87.559049 
L 421.236973 -89.299895 
L 422.36807 -91.040741 
L 423.466818 -92.781587 
L 424.527536 -94.522432 
L 425.545331 -96.263278 
L 426.51612 -98.004124 
L 427.436624 -99.74497 
L 428.30437 -101.485816 
L 429.117659 -103.226662 
L 429.87554 -104.967507 
L 430.577763 -106.708353 
L 431.224733 -108.449199 
L 431.817446 -110.190045 
L 432.357433 -111.930891 
L 432.846685 -113.671736 
L 433.287587 -115.412582 
L 433.682848 -117.153428 
L 434.035426 -118.894274 
L 434.34846 -120.63512 
L 434.625202 -122.375966 
L 434.868953 -124.116811 
L 435.083002 -125.857657 
L 435.270573 -127.598503 
L 435.434772 -129.339349 
L 435.578549 -131.080195 
L 435.704654 -132.821041 
L 435.815611 -134.561886 
L 435.913694 -136.302732 
L 436.00091 -138.043578 
L 436.078985 -139.784424 
L 436.149363 -141.52527 
L 436.21321 -143.266115 
L 436.271417 -145.006961 
L 436.324613 -146.747807 
L 436.373189 -148.488653 
L 436.417311 -150.229499 
L 436.456952 -151.970345 
L 436.491918 -153.71119 
L 436.521877 -155.452036 
L 436.546395 -157.192882 
L 436.564964 -158.933728 
L 436.577041 -160.674574 
L 436.582075 -162.41542 
L 436.579545 -164.156265 
L 436.568985 -165.897111 
L 436.550012 -167.637957 
L 436.522355 -169.378803 
L 436.485872 -171.119649 
L 436.440573 -172.860494 
L 436.386627 -174.60134 
L 436.32438 -176.342186 
L 436.254353 -178.083032 
L 436.177249 -179.823878 
L 436.093946 -181.564724 
L 436.00549 -183.305569 
L 435.913084 -185.046415 
L 435.818073 -186.787261 
L 435.721923 -188.528107 
L 435.6262 -190.268953 
L 435.532545 -192.009799 
L 435.442649 -193.750644 
L 435.358225 -195.49149 
L 435.280975 -197.232336 
L 435.212569 -198.973182 
L 435.154607 -200.714028 
L 435.1086 -202.454873 
L 435.075941 -204.195719 
L 435.05788 -205.936565 
L 435.055504 -207.677411 
L 435.06972 -209.418257 
L 435.101241 -211.159103 
L 435.150572 -212.899948 
L 435.218004 -214.640794 
L 435.303614 -216.38164 
L 435.407261 -218.122486 
L 449.87175 -218.122486 
L 449.87175 -218.122486 
L 449.975397 -216.38164 
L 450.061007 -214.640794 
L 450.128439 -212.899948 
L 450.17777 -211.159103 
L 450.20929 -209.418257 
L 450.223507 -207.677411 
L 450.221131 -205.936565 
L 450.20307 -204.195719 
L 450.170411 -202.454873 
L 450.124404 -200.714028 
L 450.066442 -198.973182 
L 449.998035 -197.232336 
L 449.920786 -195.49149 
L 449.836361 -193.750644 
L 449.746466 -192.009799 
L 449.652811 -190.268953 
L 449.557088 -188.528107 
L 449.460938 -186.787261 
L 449.365927 -185.046415 
L 449.273521 -183.305569 
L 449.185065 -181.564724 
L 449.101762 -179.823878 
L 449.024658 -178.083032 
L 448.954631 -176.342186 
L 448.892384 -174.60134 
L 448.838438 -172.860494 
L 448.793138 -171.119649 
L 448.756656 -169.378803 
L 448.728999 -167.637957 
L 448.710026 -165.897111 
L 448.699466 -164.156265 
L 448.696936 -162.41542 
L 448.70197 -160.674574 
L 448.714047 -158.933728 
L 448.732616 -157.192882 
L 448.757134 -155.452036 
L 448.787093 -153.71119 
L 448.822059 -151.970345 
L 448.8617 -150.229499 
L 448.905822 -148.488653 
L 448.954398 -146.747807 
L 449.007594 -145.006961 
L 449.0658 -143.266115 
L 449.129647 -141.52527 
L 449.200026 -139.784424 
L 449.278101 -138.043578 
L 449.365316 -136.302732 
L 449.4634 -134.561886 
L 449.574357 -132.821041 
L 449.700462 -131.080195 
L 449.844239 -129.339349 
L 450.008438 -127.598503 
L 450.196009 -125.857657 
L 450.410058 -124.116811 
L 450.653809 -122.375966 
L 450.930551 -120.63512 
L 451.243585 -118.894274 
L 451.596162 -117.153428 
L 451.991423 -115.412582 
L 452.432326 -113.671736 
L 452.921578 -111.930891 
L 453.461564 -110.190045 
L 454.054278 -108.449199 
L 454.701248 -106.708353 
L 455.403471 -104.967507 
L 456.161352 -103.226662 
L 456.974641 -101.485816 
L 457.842386 -99.74497 
L 458.762891 -98.004124 
L 459.733679 -96.263278 
L 460.751475 -94.522432 
L 461.812193 -92.781587 
L 462.910941 -91.040741 
L 464.042038 -89.299895 
L 465.199046 -87.559049 
L 466.374814 -85.818203 
L 467.561539 -84.077357 
L 468.75084 -82.336512 
L 469.933847 -80.595666 
L 471.101295 -78.85482 
L 472.24364 -77.113974 
L 473.351173 -75.373128 
L 474.41415 -73.632283 
L 475.422919 -71.891437 
L 476.36806 -70.150591 
L 477.24051 -68.409745 
L 478.031704 -66.668899 
L 478.733694 -64.928053 
L 479.339272 -63.187208 
L 479.84208 -61.446362 
L 480.236701 -59.705516 
L 480.51875 -57.96467 
L 480.684933 -56.223824 
L 480.733103 -54.482978 
L 480.662285 -52.742133 
L 480.472695 -51.001287 
L 480.165726 -49.260441 
L 479.743926 -47.519595 
L 479.210955 -45.778749 
z
" style="stroke: #999999; stroke-width: 2"/>
    </defs>
    <g clip-path="url(#pe288569385)">
     <use xlink:href="#m28a19fde86" x="0" y="246.509673" style="fill: #ffffff; stroke: #999999; stroke-width: 2"/>
    </g>
   </g>
   <g id="PathCollection_10"/>
   <g id="PathCollection_11"/>
   <g id="PathCollection_12"/>
   <g id="PathCollection_13"/>
   <g id="PathCollection_14"/>
   <g id="PathCollection_15"/>
   <g id="PathCollection_16"/>
   <g id="patch_6">
    <path d="M 278.173423 209.34811 
L 278.173423 19.77 
" style="fill: none; stroke: #262626; stroke-width: 1.25; stroke-linejoin: miter; stroke-linecap: square"/>
   </g>
   <g id="patch_7">
    <path d="M 278.173423 209.34811 
L 497.461533 209.34811 
" style="fill: none; stroke: #262626; stroke-width: 1.25; stroke-linejoin: miter; stroke-linecap: square"/>
   </g>
   <g id="PathCollection_17">
    <defs>
     <path id="C2_0_402c7cf4af" d="M 0 2.5 
C 0.663008 2.5 1.29895 2.236584 1.767767 1.767767 
C 2.236584 1.29895 2.5 0.663008 2.5 -0 
C 2.5 -0.663008 2.236584 -1.29895 1.767767 -1.767767 
C 1.29895 -2.236584 0.663008 -2.5 0 -2.5 
C -0.663008 -2.5 -1.29895 -2.236584 -1.767767 -1.767767 
C -2.236584 -1.29895 -2.5 -0.663008 -2.5 0 
C -2.5 0.663008 -2.236584 1.29895 -1.767767 1.767767 
C -1.29895 2.236584 -0.663008 2.5 0 2.5 
z
"/>
    </defs>
    <g clip-path="url(#pe288569385)">
     <use xlink:href="#C2_0_402c7cf4af" x="328.963544" y="184.312438" style="fill: #da8bc3; fill-opacity: 0.8"/>
    </g>
    <g clip-path="url(#pe288569385)">
     <use xlink:href="#C2_0_402c7cf4af" x="324.00368" y="184.434198" style="fill: #da8bc3; fill-opacity: 0.8"/>
    </g>
    <g clip-path="url(#pe288569385)">
     <use xlink:href="#C2_0_402c7cf4af" x="333.436001" y="186.488834" style="fill: #da8bc3; fill-opacity: 0.8"/>
    </g>
    <g clip-path="url(#pe288569385)">
     <use xlink:href="#C2_0_402c7cf4af" x="340.022573" y="184.157132" style="fill: #da8bc3; fill-opacity: 0.8"/>
    </g>
    <g clip-path="url(#pe288569385)">
     <use xlink:href="#C2_0_402c7cf4af" x="334.374572" y="194.417962" style="fill: #dd8452; fill-opacity: 0.8"/>
    </g>
    <g clip-path="url(#pe288569385)">
     <use xlink:href="#C2_0_402c7cf4af" x="334.025423" y="193.735774" style="fill: #dd8452; fill-opacity: 0.8"/>
    </g>
    <g clip-path="url(#pe288569385)">
     <use xlink:href="#C2_0_402c7cf4af" x="341.000345" y="195.228254" style="fill: #dd8452; fill-opacity: 0.8"/>
    </g>
    <g clip-path="url(#pe288569385)">
     <use xlink:href="#C2_0_402c7cf4af" x="324.702777" y="194.707496" style="fill: #dd8452; fill-opacity: 0.8"/>
    </g>
    <g clip-path="url(#pe288569385)">
     <use xlink:href="#C2_0_402c7cf4af" x="341.077674" y="194.099634" style="fill: #dd8452; fill-opacity: 0.8"/>
    </g>
    <g clip-path="url(#pe288569385)">
     <use xlink:href="#C2_0_402c7cf4af" x="327.600431" y="190.139605" style="fill: #55a868; fill-opacity: 0.8"/>
    </g>
    <g clip-path="url(#pe288569385)">
     <use xlink:href="#C2_0_402c7cf4af" x="328.07489" y="188.568453" style="fill: #55a868; fill-opacity: 0.8"/>
    </g>
    <g clip-path="url(#pe288569385)">
     <use xlink:href="#C2_0_402c7cf4af" x="338.023426" y="190.467083" style="fill: #55a868; fill-opacity: 0.8"/>
    </g>
    <g clip-path="url(#pe288569385)">
     <use xlink:href="#C2_0_402c7cf4af" x="326.877411" y="191.214745" style="fill: #55a868; fill-opacity: 0.8"/>
    </g>
    <g clip-path="url(#pe288569385)">
     <use xlink:href="#C2_0_402c7cf4af" x="322.659165" y="200.730923" style="fill: #c44e52; fill-opacity: 0.8"/>
    </g>
    <g clip-path="url(#pe288569385)">
     <use xlink:href="#C2_0_402c7cf4af" x="329.424549" y="200.724982" style="fill: #c44e52; fill-opacity: 0.8"/>
    </g>
    <g clip-path="url(#pe288569385)">
     <use xlink:href="#C2_0_402c7cf4af" x="322.882293" y="200.719781" style="fill: #c44e52; fill-opacity: 0.8"/>
    </g>
    <g clip-path="url(#pe288569385)">
     <use xlink:href="#C2_0_402c7cf4af" x="343.902104" y="200.671111" style="fill: #c44e52; fill-opacity: 0.8"/>
    </g>
    <g clip-path="url(#pe288569385)">
     <use xlink:href="#C2_0_402c7cf4af" x="330.546979" y="54.871675" style="fill: #4c72b0; fill-opacity: 0.8"/>
    </g>
    <g clip-path="url(#pe288569385)">
     <use xlink:href="#C2_0_402c7cf4af" x="331.375712" y="65.769404" style="fill: #4c72b0; fill-opacity: 0.8"/>
    </g>
    <g clip-path="url(#pe288569385)">
     <use xlink:href="#C2_0_402c7cf4af" x="328.106275" y="44.125749" style="fill: #4c72b0; fill-opacity: 0.8"/>
    </g>
    <g clip-path="url(#pe288569385)">
     <use xlink:href="#C2_0_402c7cf4af" x="324.521844" y="115.038465" style="fill: #8172b3; fill-opacity: 0.8"/>
    </g>
    <g clip-path="url(#pe288569385)">
     <use xlink:href="#C2_0_402c7cf4af" x="327.077584" y="105.330927" style="fill: #8172b3; fill-opacity: 0.8"/>
    </g>
    <g clip-path="url(#pe288569385)">
     <use xlink:href="#C2_0_402c7cf4af" x="336.083802" y="112.957278" style="fill: #8172b3; fill-opacity: 0.8"/>
    </g>
    <g clip-path="url(#pe288569385)">
     <use xlink:href="#C2_0_402c7cf4af" x="324.65613" y="73.635915" style="fill: #8172b3; fill-opacity: 0.8"/>
    </g>
    <g clip-path="url(#pe288569385)">
     <use xlink:href="#C2_0_402c7cf4af" x="326.011142" y="189.617719" style="fill: #937860; fill-opacity: 0.8"/>
    </g>
    <g clip-path="url(#pe288569385)">
     <use xlink:href="#C2_0_402c7cf4af" x="333.060609" y="188.135739" style="fill: #937860; fill-opacity: 0.8"/>
    </g>
    <g clip-path="url(#pe288569385)">
     <use xlink:href="#C2_0_402c7cf4af" x="343.295479" y="186.061791" style="fill: #937860; fill-opacity: 0.8"/>
    </g>
    <g clip-path="url(#pe288569385)">
     <use xlink:href="#C2_0_402c7cf4af" x="333.140567" y="188.618237" style="fill: #937860; fill-opacity: 0.8"/>
    </g>
   </g>
   <g id="PathCollection_18">
    <defs>
     <path id="C3_0_ad1590b5cd" d="M 0 2.5 
C 0.663008 2.5 1.29895 2.236584 1.767767 1.767767 
C 2.236584 1.29895 2.5 0.663008 2.5 -0 
C 2.5 -0.663008 2.236584 -1.29895 1.767767 -1.767767 
C 1.29895 -2.236584 0.663008 -2.5 0 -2.5 
C -0.663008 -2.5 -1.29895 -2.236584 -1.767767 -1.767767 
C -2.236584 -1.29895 -2.5 -0.663008 -2.5 0 
C -2.5 0.663008 -2.236584 1.29895 -1.767767 1.767767 
C -1.29895 2.236584 -0.663008 2.5 0 2.5 
z
"/>
    </defs>
    <g clip-path="url(#pe288569385)">
     <use xlink:href="#C3_0_ad1590b5cd" x="448.129442" y="186.313616" style="fill: #da8bc3; fill-opacity: 0.8"/>
    </g>
    <g clip-path="url(#pe288569385)">
     <use xlink:href="#C3_0_ad1590b5cd" x="440.309575" y="187.401403" style="fill: #da8bc3; fill-opacity: 0.8"/>
    </g>
    <g clip-path="url(#pe288569385)">
     <use xlink:href="#C3_0_ad1590b5cd" x="443.308963" y="185.228071" style="fill: #da8bc3; fill-opacity: 0.8"/>
    </g>
    <g clip-path="url(#pe288569385)">
     <use xlink:href="#C3_0_ad1590b5cd" x="452.325734" y="187.19565" style="fill: #da8bc3; fill-opacity: 0.8"/>
    </g>
    <g clip-path="url(#pe288569385)">
     <use xlink:href="#C3_0_ad1590b5cd" x="446.046042" y="195.27381" style="fill: #dd8452; fill-opacity: 0.8"/>
    </g>
    <g clip-path="url(#pe288569385)">
     <use xlink:href="#C3_0_ad1590b5cd" x="437.039349" y="195.956296" style="fill: #dd8452; fill-opacity: 0.8"/>
    </g>
    <g clip-path="url(#pe288569385)">
     <use xlink:href="#C3_0_ad1590b5cd" x="450.995012" y="195.190305" style="fill: #dd8452; fill-opacity: 0.8"/>
    </g>
    <g clip-path="url(#pe288569385)">
     <use xlink:href="#C3_0_ad1590b5cd" x="440.365784" y="194.769119" style="fill: #dd8452; fill-opacity: 0.8"/>
    </g>
    <g clip-path="url(#pe288569385)">
     <use xlink:href="#C3_0_ad1590b5cd" x="447.677616" y="194.359804" style="fill: #dd8452; fill-opacity: 0.8"/>
    </g>
    <g clip-path="url(#pe288569385)">
     <use xlink:href="#C3_0_ad1590b5cd" x="451.560396" y="190.055294" style="fill: #55a868; fill-opacity: 0.8"/>
    </g>
    <g clip-path="url(#pe288569385)">
     <use xlink:href="#C3_0_ad1590b5cd" x="432.549934" y="190.900659" style="fill: #55a868; fill-opacity: 0.8"/>
    </g>
    <g clip-path="url(#pe288569385)">
     <use xlink:href="#C3_0_ad1590b5cd" x="435.496032" y="191.343096" style="fill: #55a868; fill-opacity: 0.8"/>
    </g>
    <g clip-path="url(#pe288569385)">
     <use xlink:href="#C3_0_ad1590b5cd" x="437.788772" y="192.320372" style="fill: #55a868; fill-opacity: 0.8"/>
    </g>
    <g clip-path="url(#pe288569385)">
     <use xlink:href="#C3_0_ad1590b5cd" x="448.268216" y="200.730923" style="fill: #c44e52; fill-opacity: 0.8"/>
    </g>
    <g clip-path="url(#pe288569385)">
     <use xlink:href="#C3_0_ad1590b5cd" x="432.721743" y="200.72437" style="fill: #c44e52; fill-opacity: 0.8"/>
    </g>
    <g clip-path="url(#pe288569385)">
     <use xlink:href="#C3_0_ad1590b5cd" x="449.669107" y="200.730923" style="fill: #c44e52; fill-opacity: 0.8"/>
    </g>
    <g clip-path="url(#pe288569385)">
     <use xlink:href="#C3_0_ad1590b5cd" x="443.486506" y="200.730923" style="fill: #c44e52; fill-opacity: 0.8"/>
    </g>
    <g clip-path="url(#pe288569385)">
     <use xlink:href="#C3_0_ad1590b5cd" x="445.263433" y="28.387187" style="fill: #4c72b0; fill-opacity: 0.8"/>
    </g>
    <g clip-path="url(#pe288569385)">
     <use xlink:href="#C3_0_ad1590b5cd" x="451.550692" y="40.682726" style="fill: #4c72b0; fill-opacity: 0.8"/>
    </g>
    <g clip-path="url(#pe288569385)">
     <use xlink:href="#C3_0_ad1590b5cd" x="446.956651" y="28.388038" style="fill: #4c72b0; fill-opacity: 0.8"/>
    </g>
    <g clip-path="url(#pe288569385)">
     <use xlink:href="#C3_0_ad1590b5cd" x="445.43395" y="97.63889" style="fill: #8172b3; fill-opacity: 0.8"/>
    </g>
    <g clip-path="url(#pe288569385)">
     <use xlink:href="#C3_0_ad1590b5cd" x="440.99842" y="118.432531" style="fill: #8172b3; fill-opacity: 0.8"/>
    </g>
    <g clip-path="url(#pe288569385)">
     <use xlink:href="#C3_0_ad1590b5cd" x="443.248665" y="108.232063" style="fill: #8172b3; fill-opacity: 0.8"/>
    </g>
    <g clip-path="url(#pe288569385)">
     <use xlink:href="#C3_0_ad1590b5cd" x="442.965413" y="42.031724" style="fill: #8172b3; fill-opacity: 0.8"/>
    </g>
    <g clip-path="url(#pe288569385)">
     <use xlink:href="#C3_0_ad1590b5cd" x="439.619775" y="189.384189" style="fill: #937860; fill-opacity: 0.8"/>
    </g>
    <g clip-path="url(#pe288569385)">
     <use xlink:href="#C3_0_ad1590b5cd" x="433.238771" y="188.775238" style="fill: #937860; fill-opacity: 0.8"/>
    </g>
    <g clip-path="url(#pe288569385)">
     <use xlink:href="#C3_0_ad1590b5cd" x="453.042955" y="186.617858" style="fill: #937860; fill-opacity: 0.8"/>
    </g>
    <g clip-path="url(#pe288569385)">
     <use xlink:href="#C3_0_ad1590b5cd" x="432.939051" y="182.120308" style="fill: #937860; fill-opacity: 0.8"/>
    </g>
   </g>
   <g id="text_16">
    <!-- ATP11A, $p_{adj}$ = .860 -->
    <g style="fill: #262626" transform="translate(278.173423 13.77)scale(0.09 -0.09)">
     <defs>
      <path id="ArialMT-3d" d="M 3381 2694 
L 356 2694 
L 356 3219 
L 3381 3219 
L 3381 2694 
z
M 3381 1303 
L 356 1303 
L 356 1828 
L 3381 1828 
L 3381 1303 
z
" transform="scale(0.015625)"/>
     </defs>
     <use xlink:href="#ArialMT-41" transform="translate(0 0.125)"/>
     <use xlink:href="#ArialMT-54" transform="translate(66.699219 0.125)"/>
     <use xlink:href="#ArialMT-50" transform="translate(127.783203 0.125)"/>
     <use xlink:href="#ArialMT-31" transform="translate(194.482422 0.125)"/>
     <use xlink:href="#ArialMT-31" transform="translate(250.097656 0.125)"/>
     <use xlink:href="#ArialMT-41" transform="translate(305.712891 0.125)"/>
     <use xlink:href="#ArialMT-2c" transform="translate(372.412109 0.125)"/>
     <use xlink:href="#ArialMT-20" transform="translate(400.195312 0.125)"/>
     <use xlink:href="#DejaVuSans-Oblique-70" transform="translate(427.978516 0.125)"/>
     <use xlink:href="#DejaVuSans-Oblique-61" transform="translate(491.455078 -16.28125)scale(0.7)"/>
     <use xlink:href="#DejaVuSans-Oblique-64" transform="translate(534.350586 -16.28125)scale(0.7)"/>
     <use xlink:href="#DejaVuSans-Oblique-6a" transform="translate(578.78418 -16.28125)scale(0.7)"/>
     <use xlink:href="#ArialMT-20" transform="translate(600.966797 0.125)"/>
     <use xlink:href="#ArialMT-3d" transform="translate(628.75 0.125)"/>
     <use xlink:href="#ArialMT-20" transform="translate(687.148438 0.125)"/>
     <use xlink:href="#ArialMT-2e" transform="translate(714.931641 0.125)"/>
     <use xlink:href="#ArialMT-38" transform="translate(742.714844 0.125)"/>
     <use xlink:href="#ArialMT-36" transform="translate(798.330078 0.125)"/>
     <use xlink:href="#ArialMT-30" transform="translate(853.945312 0.125)"/>
    </g>
   </g>
  </g>
  <g id="legend_1">
   <g id="patch_8">
    <path d="M 508.090624 175.28218 
L 551.905155 175.28218 
Q 553.705155 175.28218 553.705155 173.48218 
L 553.705155 72.53593 
Q 553.705155 70.73593 551.905155 70.73593 
L 508.090624 70.73593 
Q 506.290624 70.73593 506.290624 72.53593 
L 506.290624 173.48218 
Q 506.290624 175.28218 508.090624 175.28218 
z
" style="fill: #ffffff; opacity: 0.8; stroke: #cccccc; stroke-linejoin: miter"/>
   </g>
   <g id="text_17">
    <!-- Patient -->
    <g style="fill: #262626" transform="translate(515.988827 80.777961)scale(0.09 -0.09)">
     <use xlink:href="#ArialMT-50"/>
     <use xlink:href="#ArialMT-61" x="66.699219"/>
     <use xlink:href="#ArialMT-74" x="122.314453"/>
     <use xlink:href="#ArialMT-69" x="150.097656"/>
     <use xlink:href="#ArialMT-65" x="172.314453"/>
     <use xlink:href="#ArialMT-6e" x="227.929688"/>
     <use xlink:href="#ArialMT-74" x="283.544922"/>
    </g>
   </g>
   <g id="PathCollection_19">
    <defs>
     <path id="m015c209eef" d="M 0 3.872983 
C 1.027127 3.872983 2.012324 3.464901 2.738613 2.738613 
C 3.464901 2.012324 3.872983 1.027127 3.872983 0 
C 3.872983 -1.027127 3.464901 -2.012324 2.738613 -2.738613 
C 2.012324 -3.464901 1.027127 -3.872983 0 -3.872983 
C -1.027127 -3.872983 -2.012324 -3.464901 -2.738613 -2.738613 
C -3.464901 -2.012324 -3.872983 -1.027127 -3.872983 0 
C -3.872983 1.027127 -3.464901 2.012324 -2.738613 2.738613 
C -2.012324 3.464901 -1.027127 3.872983 0 3.872983 
z
" style="stroke: #4c72b0"/>
    </defs>
    <g>
     <use xlink:href="#m015c209eef" x="518.890624" y="91.146243" style="fill: #4c72b0; stroke: #4c72b0"/>
    </g>
   </g>
   <g id="text_18">
    <!-- 5 -->
    <g style="fill: #262626" transform="translate(535.090624 93.508743)scale(0.09 -0.09)">
     <defs>
      <path id="ArialMT-35" d="M 266 1200 
L 856 1250 
Q 922 819 1161 601 
Q 1400 384 1738 384 
Q 2144 384 2425 690 
Q 2706 997 2706 1503 
Q 2706 1984 2436 2262 
Q 2166 2541 1728 2541 
Q 1456 2541 1237 2417 
Q 1019 2294 894 2097 
L 366 2166 
L 809 4519 
L 3088 4519 
L 3088 3981 
L 1259 3981 
L 1013 2750 
Q 1425 3038 1878 3038 
Q 2478 3038 2890 2622 
Q 3303 2206 3303 1553 
Q 3303 931 2941 478 
Q 2500 -78 1738 -78 
Q 1113 -78 717 272 
Q 322 622 266 1200 
z
" transform="scale(0.015625)"/>
     </defs>
     <use xlink:href="#ArialMT-35"/>
    </g>
   </g>
   <g id="PathCollection_20">
    <defs>
     <path id="m6729b98fad" d="M 0 3.872983 
C 1.027127 3.872983 2.012324 3.464901 2.738613 2.738613 
C 3.464901 2.012324 3.872983 1.027127 3.872983 0 
C 3.872983 -1.027127 3.464901 -2.012324 2.738613 -2.738613 
C 2.012324 -3.464901 1.027127 -3.872983 0 -3.872983 
C -1.027127 -3.872983 -2.012324 -3.464901 -2.738613 -2.738613 
C -3.464901 -2.012324 -3.872983 -1.027127 -3.872983 0 
C -3.872983 1.027127 -3.464901 2.012324 -2.738613 2.738613 
C -2.012324 3.464901 -1.027127 3.872983 0 3.872983 
z
" style="stroke: #dd8452"/>
    </defs>
    <g>
     <use xlink:href="#m6729b98fad" x="518.890624" y="103.877024" style="fill: #dd8452; stroke: #dd8452"/>
    </g>
   </g>
   <g id="text_19">
    <!-- 15 -->
    <g style="fill: #262626" transform="translate(535.090624 106.239524)scale(0.09 -0.09)">
     <use xlink:href="#ArialMT-31"/>
     <use xlink:href="#ArialMT-35" x="55.615234"/>
    </g>
   </g>
   <g id="PathCollection_21">
    <defs>
     <path id="m730887e2f6" d="M 0 3.872983 
C 1.027127 3.872983 2.012324 3.464901 2.738613 2.738613 
C 3.464901 2.012324 3.872983 1.027127 3.872983 0 
C 3.872983 -1.027127 3.464901 -2.012324 2.738613 -2.738613 
C 2.012324 -3.464901 1.027127 -3.872983 0 -3.872983 
C -1.027127 -3.872983 -2.012324 -3.464901 -2.738613 -2.738613 
C -3.464901 -2.012324 -3.872983 -1.027127 -3.872983 0 
C -3.872983 1.027127 -3.464901 2.012324 -2.738613 2.738613 
C -2.012324 3.464901 -1.027127 3.872983 0 3.872983 
z
" style="stroke: #55a868"/>
    </defs>
    <g>
     <use xlink:href="#m730887e2f6" x="518.890624" y="116.607805" style="fill: #55a868; stroke: #55a868"/>
    </g>
   </g>
   <g id="text_20">
    <!-- 17 -->
    <g style="fill: #262626" transform="translate(535.090624 118.970305)scale(0.09 -0.09)">
     <defs>
      <path id="ArialMT-37" d="M 303 3981 
L 303 4522 
L 3269 4522 
L 3269 4084 
Q 2831 3619 2401 2847 
Q 1972 2075 1738 1259 
Q 1569 684 1522 0 
L 944 0 
Q 953 541 1156 1306 
Q 1359 2072 1739 2783 
Q 2119 3494 2547 3981 
L 303 3981 
z
" transform="scale(0.015625)"/>
     </defs>
     <use xlink:href="#ArialMT-31"/>
     <use xlink:href="#ArialMT-37" x="55.615234"/>
    </g>
   </g>
   <g id="PathCollection_22">
    <defs>
     <path id="me2ab36ae38" d="M 0 3.872983 
C 1.027127 3.872983 2.012324 3.464901 2.738613 2.738613 
C 3.464901 2.012324 3.872983 1.027127 3.872983 0 
C 3.872983 -1.027127 3.464901 -2.012324 2.738613 -2.738613 
C 2.012324 -3.464901 1.027127 -3.872983 0 -3.872983 
C -1.027127 -3.872983 -2.012324 -3.464901 -2.738613 -2.738613 
C -3.464901 -2.012324 -3.872983 -1.027127 -3.872983 0 
C -3.872983 1.027127 -3.464901 2.012324 -2.738613 2.738613 
C -2.012324 3.464901 -1.027127 3.872983 0 3.872983 
z
" style="stroke: #c44e52"/>
    </defs>
    <g>
     <use xlink:href="#me2ab36ae38" x="518.890624" y="129.338586" style="fill: #c44e52; stroke: #c44e52"/>
    </g>
   </g>
   <g id="text_21">
    <!-- 49 -->
    <g style="fill: #262626" transform="translate(535.090624 131.701086)scale(0.09 -0.09)">
     <defs>
      <path id="ArialMT-39" d="M 350 1059 
L 891 1109 
Q 959 728 1153 556 
Q 1347 384 1650 384 
Q 1909 384 2104 503 
Q 2300 622 2425 820 
Q 2550 1019 2634 1356 
Q 2719 1694 2719 2044 
Q 2719 2081 2716 2156 
Q 2547 1888 2255 1720 
Q 1963 1553 1622 1553 
Q 1053 1553 659 1965 
Q 266 2378 266 3053 
Q 266 3750 677 4175 
Q 1088 4600 1706 4600 
Q 2153 4600 2523 4359 
Q 2894 4119 3086 3673 
Q 3278 3228 3278 2384 
Q 3278 1506 3087 986 
Q 2897 466 2520 194 
Q 2144 -78 1638 -78 
Q 1100 -78 759 220 
Q 419 519 350 1059 
z
M 2653 3081 
Q 2653 3566 2395 3850 
Q 2138 4134 1775 4134 
Q 1400 4134 1122 3828 
Q 844 3522 844 3034 
Q 844 2597 1108 2323 
Q 1372 2050 1759 2050 
Q 2150 2050 2401 2323 
Q 2653 2597 2653 3081 
z
" transform="scale(0.015625)"/>
     </defs>
     <use xlink:href="#ArialMT-34"/>
     <use xlink:href="#ArialMT-39" x="55.615234"/>
    </g>
   </g>
   <g id="PathCollection_23">
    <defs>
     <path id="m102cbaa8a9" d="M 0 3.872983 
C 1.027127 3.872983 2.012324 3.464901 2.738613 2.738613 
C 3.464901 2.012324 3.872983 1.027127 3.872983 0 
C 3.872983 -1.027127 3.464901 -2.012324 2.738613 -2.738613 
C 2.012324 -3.464901 1.027127 -3.872983 0 -3.872983 
C -1.027127 -3.872983 -2.012324 -3.464901 -2.738613 -2.738613 
C -3.464901 -2.012324 -3.872983 -1.027127 -3.872983 0 
C -3.872983 1.027127 -3.464901 2.012324 -2.738613 2.738613 
C -2.012324 3.464901 -1.027127 3.872983 0 3.872983 
z
" style="stroke: #8172b3"/>
    </defs>
    <g>
     <use xlink:href="#m102cbaa8a9" x="518.890624" y="142.069368" style="fill: #8172b3; stroke: #8172b3"/>
    </g>
   </g>
   <g id="text_22">
    <!-- 62 -->
    <g style="fill: #262626" transform="translate(535.090624 144.431868)scale(0.09 -0.09)">
     <use xlink:href="#ArialMT-36"/>
     <use xlink:href="#ArialMT-32" x="55.615234"/>
    </g>
   </g>
   <g id="PathCollection_24">
    <defs>
     <path id="mec2e56b3bf" d="M 0 3.872983 
C 1.027127 3.872983 2.012324 3.464901 2.738613 2.738613 
C 3.464901 2.012324 3.872983 1.027127 3.872983 0 
C 3.872983 -1.027127 3.464901 -2.012324 2.738613 -2.738613 
C 2.012324 -3.464901 1.027127 -3.872983 0 -3.872983 
C -1.027127 -3.872983 -2.012324 -3.464901 -2.738613 -2.738613 
C -3.464901 -2.012324 -3.872983 -1.027127 -3.872983 0 
C -3.872983 1.027127 -3.464901 2.012324 -2.738613 2.738613 
C -2.012324 3.464901 -1.027127 3.872983 0 3.872983 
z
" style="stroke: #937860"/>
    </defs>
    <g>
     <use xlink:href="#mec2e56b3bf" x="518.890624" y="154.800149" style="fill: #937860; stroke: #937860"/>
    </g>
   </g>
   <g id="text_23">
    <!-- 69 -->
    <g style="fill: #262626" transform="translate(535.090624 157.162649)scale(0.09 -0.09)">
     <use xlink:href="#ArialMT-36"/>
     <use xlink:href="#ArialMT-39" x="55.615234"/>
    </g>
   </g>
   <g id="PathCollection_25">
    <defs>
     <path id="ma824f886c6" d="M 0 3.872983 
C 1.027127 3.872983 2.012324 3.464901 2.738613 2.738613 
C 3.464901 2.012324 3.872983 1.027127 3.872983 0 
C 3.872983 -1.027127 3.464901 -2.012324 2.738613 -2.738613 
C 2.012324 -3.464901 1.027127 -3.872983 0 -3.872983 
C -1.027127 -3.872983 -2.012324 -3.464901 -2.738613 -2.738613 
C -3.464901 -2.012324 -3.872983 -1.027127 -3.872983 0 
C -3.872983 1.027127 -3.464901 2.012324 -2.738613 2.738613 
C -2.012324 3.464901 -1.027127 3.872983 0 3.872983 
z
" style="stroke: #da8bc3"/>
    </defs>
    <g>
     <use xlink:href="#ma824f886c6" x="518.890624" y="167.53093" style="fill: #da8bc3; stroke: #da8bc3"/>
    </g>
   </g>
   <g id="text_24">
    <!-- 126 -->
    <g style="fill: #262626" transform="translate(535.090624 169.89343)scale(0.09 -0.09)">
     <use xlink:href="#ArialMT-31"/>
     <use xlink:href="#ArialMT-32" x="55.615234"/>
     <use xlink:href="#ArialMT-36" x="111.230469"/>
    </g>
   </g>
  </g>
 </g>
 <defs>
  <clipPath id="pfa3b21bfce">
   <rect x="49.165313" y="19.77" width="219.28811" height="189.57811"/>
  </clipPath>
  <clipPath id="pe288569385">
   <rect x="278.173423" y="19.77" width="219.28811" height="189.57811"/>
  </clipPath>
 </defs>
</svg>
