<?xml version="1.0" encoding="utf-8" standalone="no"?>
<!DOCTYPE svg PUBLIC "-//W3C//DTD SVG 1.1//EN"
  "http://www.w3.org/Graphics/SVG/1.1/DTD/svg11.dtd">
<!-- Created with matplotlib (https://matplotlib.org/) -->
<svg height="246.509673pt" version="1.1" viewBox="0 0 560.900311 246.509673" width="560.900311pt" xmlns="http://www.w3.org/2000/svg" xmlns:xlink="http://www.w3.org/1999/xlink">
 <metadata>
  <rdf:RDF xmlns:cc="http://creativecommons.org/ns#" xmlns:dc="http://purl.org/dc/elements/1.1/" xmlns:rdf="http://www.w3.org/1999/02/22-rdf-syntax-ns#">
   <cc:Work>
    <dc:type rdf:resource="http://purl.org/dc/dcmitype/StillImage"/>
    <dc:date>2022-03-15T15:39:34.575745</dc:date>
    <dc:format>image/svg+xml</dc:format>
    <dc:creator>
     <cc:Agent>
      <dc:title>Matplotlib v3.3.4, https://matplotlib.org/</dc:title>
     </cc:Agent>
    </dc:creator>
   </cc:Work>
  </rdf:RDF>
 </metadata>
 <defs>
  <style type="text/css">*{stroke-linecap:butt;stroke-linejoin:round;}</style>
 </defs>
 <g id="figure_1">
  <g id="patch_1">
   <path d="M 0 246.509673 
L 560.900311 246.509673 
L 560.900311 0 
L 0 0 
z
" style="fill:#ffffff;"/>
  </g>
  <g id="axes_1">
   <g id="patch_2">
    <path d="M 44.160469 209.34811 
L 265.948579 209.34811 
L 265.948579 19.77 
L 44.160469 19.77 
z
" style="fill:#ffffff;"/>
   </g>
   <g id="matplotlib.axis_1">
    <g id="xtick_1">
     <g id="text_1">
      <!-- responsive -->
      <g style="fill:#444444;" transform="translate(77.847184 225.290141)scale(0.09 -0.09)">
       <defs>
        <path d="M 6.5 0 
L 6.5 51.859375 
L 14.40625 51.859375 
L 14.40625 44 
Q 17.4375 49.515625 20 51.265625 
Q 22.5625 53.03125 25.640625 53.03125 
Q 30.078125 53.03125 34.671875 50.203125 
L 31.640625 42.046875 
Q 28.421875 43.953125 25.203125 43.953125 
Q 22.3125 43.953125 20.015625 42.21875 
Q 17.71875 40.484375 16.75 37.40625 
Q 15.28125 32.71875 15.28125 27.15625 
L 15.28125 0 
z
" id="ArialMT-114"/>
        <path d="M 42.09375 16.703125 
L 51.171875 15.578125 
Q 49.03125 7.625 43.21875 3.21875 
Q 37.40625 -1.171875 28.375 -1.171875 
Q 17 -1.171875 10.328125 5.828125 
Q 3.65625 12.84375 3.65625 25.484375 
Q 3.65625 38.578125 10.390625 45.796875 
Q 17.140625 53.03125 27.875 53.03125 
Q 38.28125 53.03125 44.875 45.953125 
Q 51.46875 38.875 51.46875 26.03125 
Q 51.46875 25.25 51.421875 23.6875 
L 12.75 23.6875 
Q 13.234375 15.140625 17.578125 10.59375 
Q 21.921875 6.0625 28.421875 6.0625 
Q 33.25 6.0625 36.671875 8.59375 
Q 40.09375 11.140625 42.09375 16.703125 
z
M 13.234375 30.90625 
L 42.1875 30.90625 
Q 41.609375 37.453125 38.875 40.71875 
Q 34.671875 45.796875 27.984375 45.796875 
Q 21.921875 45.796875 17.796875 41.75 
Q 13.671875 37.703125 13.234375 30.90625 
z
" id="ArialMT-101"/>
        <path d="M 3.078125 15.484375 
L 11.765625 16.84375 
Q 12.5 11.625 15.84375 8.84375 
Q 19.1875 6.0625 25.203125 6.0625 
Q 31.25 6.0625 34.171875 8.515625 
Q 37.109375 10.984375 37.109375 14.3125 
Q 37.109375 17.28125 34.515625 19 
Q 32.71875 20.171875 25.53125 21.96875 
Q 15.875 24.421875 12.140625 26.203125 
Q 8.40625 27.984375 6.46875 31.125 
Q 4.546875 34.28125 4.546875 38.09375 
Q 4.546875 41.546875 6.125 44.5 
Q 7.71875 47.46875 10.453125 49.421875 
Q 12.5 50.921875 16.03125 51.96875 
Q 19.578125 53.03125 23.640625 53.03125 
Q 29.734375 53.03125 34.34375 51.265625 
Q 38.96875 49.515625 41.15625 46.5 
Q 43.359375 43.5 44.1875 38.484375 
L 35.59375 37.3125 
Q 35.015625 41.3125 32.203125 43.546875 
Q 29.390625 45.796875 24.265625 45.796875 
Q 18.21875 45.796875 15.625 43.796875 
Q 13.03125 41.796875 13.03125 39.109375 
Q 13.03125 37.40625 14.109375 36.03125 
Q 15.1875 34.625 17.484375 33.6875 
Q 18.796875 33.203125 25.25 31.453125 
Q 34.578125 28.953125 38.25 27.359375 
Q 41.9375 25.78125 44.03125 22.75 
Q 46.140625 19.734375 46.140625 15.234375 
Q 46.140625 10.84375 43.578125 6.953125 
Q 41.015625 3.078125 36.171875 0.953125 
Q 31.34375 -1.171875 25.25 -1.171875 
Q 15.140625 -1.171875 9.84375 3.03125 
Q 4.546875 7.234375 3.078125 15.484375 
z
" id="ArialMT-115"/>
        <path d="M 6.59375 -19.875 
L 6.59375 51.859375 
L 14.59375 51.859375 
L 14.59375 45.125 
Q 17.4375 49.078125 21 51.046875 
Q 24.5625 53.03125 29.640625 53.03125 
Q 36.28125 53.03125 41.359375 49.609375 
Q 46.4375 46.1875 49.015625 39.953125 
Q 51.609375 33.734375 51.609375 26.3125 
Q 51.609375 18.359375 48.75 11.984375 
Q 45.90625 5.609375 40.453125 2.21875 
Q 35.015625 -1.171875 29 -1.171875 
Q 24.609375 -1.171875 21.109375 0.6875 
Q 17.625 2.546875 15.375 5.375 
L 15.375 -19.875 
z
M 14.546875 25.640625 
Q 14.546875 15.625 18.59375 10.84375 
Q 22.65625 6.0625 28.421875 6.0625 
Q 34.28125 6.0625 38.453125 11.015625 
Q 42.625 15.96875 42.625 26.375 
Q 42.625 36.28125 38.546875 41.203125 
Q 34.46875 46.140625 28.8125 46.140625 
Q 23.1875 46.140625 18.859375 40.890625 
Q 14.546875 35.640625 14.546875 25.640625 
z
" id="ArialMT-112"/>
        <path d="M 3.328125 25.921875 
Q 3.328125 40.328125 11.328125 47.265625 
Q 18.015625 53.03125 27.640625 53.03125 
Q 38.328125 53.03125 45.109375 46.015625 
Q 51.90625 39.015625 51.90625 26.65625 
Q 51.90625 16.65625 48.90625 10.90625 
Q 45.90625 5.171875 40.15625 2 
Q 34.421875 -1.171875 27.640625 -1.171875 
Q 16.75 -1.171875 10.03125 5.8125 
Q 3.328125 12.796875 3.328125 25.921875 
z
M 12.359375 25.921875 
Q 12.359375 15.96875 16.703125 11.015625 
Q 21.046875 6.0625 27.640625 6.0625 
Q 34.1875 6.0625 38.53125 11.03125 
Q 42.875 16.015625 42.875 26.21875 
Q 42.875 35.84375 38.5 40.796875 
Q 34.125 45.75 27.640625 45.75 
Q 21.046875 45.75 16.703125 40.8125 
Q 12.359375 35.890625 12.359375 25.921875 
z
" id="ArialMT-111"/>
        <path d="M 6.59375 0 
L 6.59375 51.859375 
L 14.5 51.859375 
L 14.5 44.484375 
Q 20.21875 53.03125 31 53.03125 
Q 35.6875 53.03125 39.625 51.34375 
Q 43.5625 49.65625 45.515625 46.921875 
Q 47.46875 44.1875 48.25 40.4375 
Q 48.734375 37.984375 48.734375 31.890625 
L 48.734375 0 
L 39.9375 0 
L 39.9375 31.546875 
Q 39.9375 36.921875 38.90625 39.578125 
Q 37.890625 42.234375 35.28125 43.8125 
Q 32.671875 45.40625 29.15625 45.40625 
Q 23.53125 45.40625 19.453125 41.84375 
Q 15.375 38.28125 15.375 28.328125 
L 15.375 0 
z
" id="ArialMT-110"/>
        <path d="M 6.640625 61.46875 
L 6.640625 71.578125 
L 15.4375 71.578125 
L 15.4375 61.46875 
z
M 6.640625 0 
L 6.640625 51.859375 
L 15.4375 51.859375 
L 15.4375 0 
z
" id="ArialMT-105"/>
        <path d="M 21 0 
L 1.265625 51.859375 
L 10.546875 51.859375 
L 21.6875 20.796875 
Q 23.484375 15.765625 25 10.359375 
Q 26.171875 14.453125 28.265625 20.21875 
L 39.796875 51.859375 
L 48.828125 51.859375 
L 29.203125 0 
z
" id="ArialMT-118"/>
       </defs>
       <use xlink:href="#ArialMT-114"/>
       <use x="33.300781" xlink:href="#ArialMT-101"/>
       <use x="88.916016" xlink:href="#ArialMT-115"/>
       <use x="138.916016" xlink:href="#ArialMT-112"/>
       <use x="194.53125" xlink:href="#ArialMT-111"/>
       <use x="250.146484" xlink:href="#ArialMT-110"/>
       <use x="305.761719" xlink:href="#ArialMT-115"/>
       <use x="355.761719" xlink:href="#ArialMT-105"/>
       <use x="377.978516" xlink:href="#ArialMT-118"/>
       <use x="427.978516" xlink:href="#ArialMT-101"/>
      </g>
     </g>
    </g>
    <g id="xtick_2">
     <g id="text_2">
      <!-- resistant -->
      <g style="fill:#444444;" transform="translate(193.49577 225.290141)scale(0.09 -0.09)">
       <defs>
        <path d="M 25.78125 7.859375 
L 27.046875 0.09375 
Q 23.34375 -0.6875 20.40625 -0.6875 
Q 15.625 -0.6875 12.984375 0.828125 
Q 10.359375 2.34375 9.28125 4.8125 
Q 8.203125 7.28125 8.203125 15.1875 
L 8.203125 45.015625 
L 1.765625 45.015625 
L 1.765625 51.859375 
L 8.203125 51.859375 
L 8.203125 64.703125 
L 16.9375 69.96875 
L 16.9375 51.859375 
L 25.78125 51.859375 
L 25.78125 45.015625 
L 16.9375 45.015625 
L 16.9375 14.703125 
Q 16.9375 10.9375 17.40625 9.859375 
Q 17.875 8.796875 18.921875 8.15625 
Q 19.96875 7.515625 21.921875 7.515625 
Q 23.390625 7.515625 25.78125 7.859375 
z
" id="ArialMT-116"/>
        <path d="M 40.4375 6.390625 
Q 35.546875 2.25 31.03125 0.53125 
Q 26.515625 -1.171875 21.34375 -1.171875 
Q 12.796875 -1.171875 8.203125 3 
Q 3.609375 7.171875 3.609375 13.671875 
Q 3.609375 17.484375 5.34375 20.625 
Q 7.078125 23.78125 9.890625 25.6875 
Q 12.703125 27.59375 16.21875 28.5625 
Q 18.796875 29.25 24.03125 29.890625 
Q 34.671875 31.15625 39.703125 32.90625 
Q 39.75 34.71875 39.75 35.203125 
Q 39.75 40.578125 37.25 42.78125 
Q 33.890625 45.75 27.25 45.75 
Q 21.046875 45.75 18.09375 43.578125 
Q 15.140625 41.40625 13.71875 35.890625 
L 5.125 37.0625 
Q 6.296875 42.578125 8.984375 45.96875 
Q 11.671875 49.359375 16.75 51.1875 
Q 21.828125 53.03125 28.515625 53.03125 
Q 35.15625 53.03125 39.296875 51.46875 
Q 43.453125 49.90625 45.40625 47.53125 
Q 47.359375 45.171875 48.140625 41.546875 
Q 48.578125 39.3125 48.578125 33.453125 
L 48.578125 21.734375 
Q 48.578125 9.46875 49.140625 6.21875 
Q 49.703125 2.984375 51.375 0 
L 42.1875 0 
Q 40.828125 2.734375 40.4375 6.390625 
z
M 39.703125 26.03125 
Q 34.90625 24.078125 25.34375 22.703125 
Q 19.921875 21.921875 17.671875 20.9375 
Q 15.4375 19.96875 14.203125 18.09375 
Q 12.984375 16.21875 12.984375 13.921875 
Q 12.984375 10.40625 15.640625 8.0625 
Q 18.3125 5.71875 23.4375 5.71875 
Q 28.515625 5.71875 32.46875 7.9375 
Q 36.421875 10.15625 38.28125 14.015625 
Q 39.703125 17 39.703125 22.796875 
z
" id="ArialMT-97"/>
       </defs>
       <use xlink:href="#ArialMT-114"/>
       <use x="33.300781" xlink:href="#ArialMT-101"/>
       <use x="88.916016" xlink:href="#ArialMT-115"/>
       <use x="138.916016" xlink:href="#ArialMT-105"/>
       <use x="161.132812" xlink:href="#ArialMT-115"/>
       <use x="211.132812" xlink:href="#ArialMT-116"/>
       <use x="238.916016" xlink:href="#ArialMT-97"/>
       <use x="294.53125" xlink:href="#ArialMT-110"/>
       <use x="350.146484" xlink:href="#ArialMT-116"/>
      </g>
     </g>
    </g>
    <g id="text_3">
     <!-- Condition -->
     <g style="fill:#444444;" transform="translate(136.042727 237.520923)scale(0.09 -0.09)">
      <defs>
       <path d="M 58.796875 25.09375 
L 68.265625 22.703125 
Q 65.28125 11.03125 57.546875 4.90625 
Q 49.8125 -1.21875 38.625 -1.21875 
Q 27.046875 -1.21875 19.796875 3.484375 
Q 12.546875 8.203125 8.765625 17.140625 
Q 4.984375 26.078125 4.984375 36.328125 
Q 4.984375 47.515625 9.25 55.828125 
Q 13.53125 64.15625 21.40625 68.46875 
Q 29.296875 72.796875 38.765625 72.796875 
Q 49.515625 72.796875 56.828125 67.328125 
Q 64.15625 61.859375 67.046875 51.953125 
L 57.71875 49.75 
Q 55.21875 57.5625 50.484375 61.125 
Q 45.75 64.703125 38.578125 64.703125 
Q 30.328125 64.703125 24.78125 60.734375 
Q 19.234375 56.78125 16.984375 50.109375 
Q 14.75 43.453125 14.75 36.375 
Q 14.75 27.25 17.40625 20.4375 
Q 20.0625 13.625 25.671875 10.25 
Q 31.296875 6.890625 37.84375 6.890625 
Q 45.796875 6.890625 51.3125 11.46875 
Q 56.84375 16.0625 58.796875 25.09375 
z
" id="ArialMT-67"/>
       <path d="M 40.234375 0 
L 40.234375 6.546875 
Q 35.296875 -1.171875 25.734375 -1.171875 
Q 19.53125 -1.171875 14.328125 2.25 
Q 9.125 5.671875 6.265625 11.796875 
Q 3.421875 17.921875 3.421875 25.875 
Q 3.421875 33.640625 6 39.96875 
Q 8.59375 46.296875 13.765625 49.65625 
Q 18.953125 53.03125 25.34375 53.03125 
Q 30.03125 53.03125 33.6875 51.046875 
Q 37.359375 49.078125 39.65625 45.90625 
L 39.65625 71.578125 
L 48.390625 71.578125 
L 48.390625 0 
z
M 12.453125 25.875 
Q 12.453125 15.921875 16.640625 10.984375 
Q 20.84375 6.0625 26.5625 6.0625 
Q 32.328125 6.0625 36.34375 10.765625 
Q 40.375 15.484375 40.375 25.140625 
Q 40.375 35.796875 36.265625 40.765625 
Q 32.171875 45.75 26.171875 45.75 
Q 20.3125 45.75 16.375 40.96875 
Q 12.453125 36.1875 12.453125 25.875 
z
" id="ArialMT-100"/>
      </defs>
      <use xlink:href="#ArialMT-67"/>
      <use x="72.216797" xlink:href="#ArialMT-111"/>
      <use x="127.832031" xlink:href="#ArialMT-110"/>
      <use x="183.447266" xlink:href="#ArialMT-100"/>
      <use x="239.0625" xlink:href="#ArialMT-105"/>
      <use x="261.279297" xlink:href="#ArialMT-116"/>
      <use x="289.0625" xlink:href="#ArialMT-105"/>
      <use x="311.279297" xlink:href="#ArialMT-111"/>
      <use x="366.894531" xlink:href="#ArialMT-110"/>
     </g>
    </g>
   </g>
   <g id="matplotlib.axis_2">
    <g id="ytick_1">
     <g id="text_4">
      <!-- 0 -->
      <g style="fill:#444444;" transform="translate(29.655625 203.958834)scale(0.09 -0.09)">
       <defs>
        <path d="M 4.15625 35.296875 
Q 4.15625 48 6.765625 55.734375 
Q 9.375 63.484375 14.515625 67.671875 
Q 19.671875 71.875 27.484375 71.875 
Q 33.25 71.875 37.59375 69.546875 
Q 41.9375 67.234375 44.765625 62.859375 
Q 47.609375 58.5 49.21875 52.21875 
Q 50.828125 45.953125 50.828125 35.296875 
Q 50.828125 22.703125 48.234375 14.96875 
Q 45.65625 7.234375 40.5 3 
Q 35.359375 -1.21875 27.484375 -1.21875 
Q 17.140625 -1.21875 11.234375 6.203125 
Q 4.15625 15.140625 4.15625 35.296875 
z
M 13.1875 35.296875 
Q 13.1875 17.671875 17.3125 11.828125 
Q 21.4375 6 27.484375 6 
Q 33.546875 6 37.671875 11.859375 
Q 41.796875 17.71875 41.796875 35.296875 
Q 41.796875 52.984375 37.671875 58.78125 
Q 33.546875 64.59375 27.390625 64.59375 
Q 21.34375 64.59375 17.71875 59.46875 
Q 13.1875 52.9375 13.1875 35.296875 
z
" id="ArialMT-48"/>
       </defs>
       <use xlink:href="#ArialMT-48"/>
      </g>
     </g>
    </g>
    <g id="ytick_2">
     <g id="text_5">
      <!-- 25 -->
      <g style="fill:#444444;" transform="translate(24.650781 182.510053)scale(0.09 -0.09)">
       <defs>
        <path d="M 50.34375 8.453125 
L 50.34375 0 
L 3.03125 0 
Q 2.9375 3.171875 4.046875 6.109375 
Q 5.859375 10.9375 9.828125 15.625 
Q 13.8125 20.3125 21.34375 26.46875 
Q 33.015625 36.03125 37.109375 41.625 
Q 41.21875 47.21875 41.21875 52.203125 
Q 41.21875 57.421875 37.46875 61 
Q 33.734375 64.59375 27.734375 64.59375 
Q 21.390625 64.59375 17.578125 60.78125 
Q 13.765625 56.984375 13.71875 50.25 
L 4.6875 51.171875 
Q 5.609375 61.28125 11.65625 66.578125 
Q 17.71875 71.875 27.9375 71.875 
Q 38.234375 71.875 44.234375 66.15625 
Q 50.25 60.453125 50.25 52 
Q 50.25 47.703125 48.484375 43.546875 
Q 46.734375 39.40625 42.65625 34.8125 
Q 38.578125 30.21875 29.109375 22.21875 
Q 21.1875 15.578125 18.9375 13.203125 
Q 16.703125 10.84375 15.234375 8.453125 
z
" id="ArialMT-50"/>
        <path d="M 4.15625 18.75 
L 13.375 19.53125 
Q 14.40625 12.796875 18.140625 9.390625 
Q 21.875 6 27.15625 6 
Q 33.5 6 37.890625 10.78125 
Q 42.28125 15.578125 42.28125 23.484375 
Q 42.28125 31 38.0625 35.34375 
Q 33.84375 39.703125 27 39.703125 
Q 22.75 39.703125 19.328125 37.765625 
Q 15.921875 35.84375 13.96875 32.765625 
L 5.71875 33.84375 
L 12.640625 70.609375 
L 48.25 70.609375 
L 48.25 62.203125 
L 19.671875 62.203125 
L 15.828125 42.96875 
Q 22.265625 47.46875 29.34375 47.46875 
Q 38.71875 47.46875 45.15625 40.96875 
Q 51.609375 34.46875 51.609375 24.265625 
Q 51.609375 14.546875 45.953125 7.46875 
Q 39.0625 -1.21875 27.15625 -1.21875 
Q 17.390625 -1.21875 11.203125 4.25 
Q 5.03125 9.71875 4.15625 18.75 
z
" id="ArialMT-53"/>
       </defs>
       <use xlink:href="#ArialMT-50"/>
       <use x="55.615234" xlink:href="#ArialMT-53"/>
      </g>
     </g>
    </g>
    <g id="ytick_3">
     <g id="text_6">
      <!-- 50 -->
      <g style="fill:#444444;" transform="translate(24.650781 161.061271)scale(0.09 -0.09)">
       <use xlink:href="#ArialMT-53"/>
       <use x="55.615234" xlink:href="#ArialMT-48"/>
      </g>
     </g>
    </g>
    <g id="ytick_4">
     <g id="text_7">
      <!-- 75 -->
      <g style="fill:#444444;" transform="translate(24.650781 139.61249)scale(0.09 -0.09)">
       <defs>
        <path d="M 4.734375 62.203125 
L 4.734375 70.65625 
L 51.078125 70.65625 
L 51.078125 63.8125 
Q 44.234375 56.546875 37.515625 44.484375 
Q 30.8125 32.421875 27.15625 19.671875 
Q 24.515625 10.6875 23.78125 0 
L 14.75 0 
Q 14.890625 8.453125 18.0625 20.40625 
Q 21.234375 32.375 27.171875 43.484375 
Q 33.109375 54.59375 39.796875 62.203125 
z
" id="ArialMT-55"/>
       </defs>
       <use xlink:href="#ArialMT-55"/>
       <use x="55.615234" xlink:href="#ArialMT-53"/>
      </g>
     </g>
    </g>
    <g id="ytick_5">
     <g id="text_8">
      <!-- 100 -->
      <g style="fill:#444444;" transform="translate(19.645938 118.163708)scale(0.09 -0.09)">
       <defs>
        <path d="M 37.25 0 
L 28.46875 0 
L 28.46875 56 
Q 25.296875 52.984375 20.140625 49.953125 
Q 14.984375 46.921875 10.890625 45.40625 
L 10.890625 53.90625 
Q 18.265625 57.375 23.78125 62.296875 
Q 29.296875 67.234375 31.59375 71.875 
L 37.25 71.875 
z
" id="ArialMT-49"/>
       </defs>
       <use xlink:href="#ArialMT-49"/>
       <use x="55.615234" xlink:href="#ArialMT-48"/>
       <use x="111.230469" xlink:href="#ArialMT-48"/>
      </g>
     </g>
    </g>
    <g id="ytick_6">
     <g id="text_9">
      <!-- 125 -->
      <g style="fill:#444444;" transform="translate(19.645938 96.714927)scale(0.09 -0.09)">
       <use xlink:href="#ArialMT-49"/>
       <use x="55.615234" xlink:href="#ArialMT-50"/>
       <use x="111.230469" xlink:href="#ArialMT-53"/>
      </g>
     </g>
    </g>
    <g id="ytick_7">
     <g id="text_10">
      <!-- 150 -->
      <g style="fill:#444444;" transform="translate(19.645938 75.266145)scale(0.09 -0.09)">
       <use xlink:href="#ArialMT-49"/>
       <use x="55.615234" xlink:href="#ArialMT-53"/>
       <use x="111.230469" xlink:href="#ArialMT-48"/>
      </g>
     </g>
    </g>
    <g id="ytick_8">
     <g id="text_11">
      <!-- 175 -->
      <g style="fill:#444444;" transform="translate(19.645938 53.817364)scale(0.09 -0.09)">
       <use xlink:href="#ArialMT-49"/>
       <use x="55.615234" xlink:href="#ArialMT-55"/>
       <use x="111.230469" xlink:href="#ArialMT-53"/>
      </g>
     </g>
    </g>
    <g id="ytick_9">
     <g id="text_12">
      <!-- 200 -->
      <g style="fill:#444444;" transform="translate(19.645938 32.368583)scale(0.09 -0.09)">
       <use xlink:href="#ArialMT-50"/>
       <use x="55.615234" xlink:href="#ArialMT-48"/>
       <use x="111.230469" xlink:href="#ArialMT-48"/>
      </g>
     </g>
    </g>
    <g id="text_13">
     <!-- Transcripts Per Million (TPM) -->
     <g style="fill:#444444;" transform="translate(13.751719 172.643508)rotate(-90)scale(0.09 -0.09)">
      <defs>
       <path d="M 25.921875 0 
L 25.921875 63.140625 
L 2.34375 63.140625 
L 2.34375 71.578125 
L 59.078125 71.578125 
L 59.078125 63.140625 
L 35.40625 63.140625 
L 35.40625 0 
z
" id="ArialMT-84"/>
       <path d="M 40.4375 19 
L 49.078125 17.875 
Q 47.65625 8.9375 41.8125 3.875 
Q 35.984375 -1.171875 27.484375 -1.171875 
Q 16.84375 -1.171875 10.375 5.78125 
Q 3.90625 12.75 3.90625 25.734375 
Q 3.90625 34.125 6.6875 40.421875 
Q 9.46875 46.734375 15.15625 49.875 
Q 20.84375 53.03125 27.546875 53.03125 
Q 35.984375 53.03125 41.359375 48.75 
Q 46.734375 44.484375 48.25 36.625 
L 39.703125 35.296875 
Q 38.484375 40.53125 35.375 43.15625 
Q 32.28125 45.796875 27.875 45.796875 
Q 21.234375 45.796875 17.078125 41.03125 
Q 12.9375 36.28125 12.9375 25.984375 
Q 12.9375 15.53125 16.9375 10.796875 
Q 20.953125 6.0625 27.390625 6.0625 
Q 32.5625 6.0625 36.03125 9.234375 
Q 39.5 12.40625 40.4375 19 
z
" id="ArialMT-99"/>
       <path id="ArialMT-32"/>
       <path d="M 7.71875 0 
L 7.71875 71.578125 
L 34.71875 71.578125 
Q 41.84375 71.578125 45.609375 70.90625 
Q 50.875 70.015625 54.4375 67.546875 
Q 58.015625 65.09375 60.1875 60.640625 
Q 62.359375 56.203125 62.359375 50.875 
Q 62.359375 41.75 56.546875 35.421875 
Q 50.734375 29.109375 35.546875 29.109375 
L 17.1875 29.109375 
L 17.1875 0 
z
M 17.1875 37.546875 
L 35.6875 37.546875 
Q 44.875 37.546875 48.734375 40.96875 
Q 52.59375 44.390625 52.59375 50.59375 
Q 52.59375 55.078125 50.3125 58.265625 
Q 48.046875 61.46875 44.34375 62.5 
Q 41.9375 63.140625 35.5 63.140625 
L 17.1875 63.140625 
z
" id="ArialMT-80"/>
       <path d="M 7.421875 0 
L 7.421875 71.578125 
L 21.6875 71.578125 
L 38.625 20.90625 
Q 40.96875 13.8125 42.046875 10.296875 
Q 43.265625 14.203125 45.84375 21.78125 
L 62.984375 71.578125 
L 75.734375 71.578125 
L 75.734375 0 
L 66.609375 0 
L 66.609375 59.90625 
L 45.796875 0 
L 37.25 0 
L 16.546875 60.9375 
L 16.546875 0 
z
" id="ArialMT-77"/>
       <path d="M 6.390625 0 
L 6.390625 71.578125 
L 15.1875 71.578125 
L 15.1875 0 
z
" id="ArialMT-108"/>
       <path d="M 23.390625 -21.046875 
Q 16.109375 -11.859375 11.078125 0.4375 
Q 6.0625 12.75 6.0625 25.921875 
Q 6.0625 37.546875 9.8125 48.1875 
Q 14.203125 60.546875 23.390625 72.796875 
L 29.6875 72.796875 
Q 23.78125 62.640625 21.875 58.296875 
Q 18.890625 51.5625 17.1875 44.234375 
Q 15.09375 35.109375 15.09375 25.875 
Q 15.09375 2.390625 29.6875 -21.046875 
z
" id="ArialMT-40"/>
       <path d="M 12.359375 -21.046875 
L 6.0625 -21.046875 
Q 20.65625 2.390625 20.65625 25.875 
Q 20.65625 35.0625 18.5625 44.09375 
Q 16.890625 51.421875 13.921875 58.15625 
Q 12.015625 62.546875 6.0625 72.796875 
L 12.359375 72.796875 
Q 21.53125 60.546875 25.921875 48.1875 
Q 29.6875 37.546875 29.6875 25.921875 
Q 29.6875 12.75 24.625 0.4375 
Q 19.578125 -11.859375 12.359375 -21.046875 
z
" id="ArialMT-41"/>
      </defs>
      <use xlink:href="#ArialMT-84"/>
      <use x="57.333984" xlink:href="#ArialMT-114"/>
      <use x="90.634766" xlink:href="#ArialMT-97"/>
      <use x="146.25" xlink:href="#ArialMT-110"/>
      <use x="201.865234" xlink:href="#ArialMT-115"/>
      <use x="251.865234" xlink:href="#ArialMT-99"/>
      <use x="301.865234" xlink:href="#ArialMT-114"/>
      <use x="335.166016" xlink:href="#ArialMT-105"/>
      <use x="357.382812" xlink:href="#ArialMT-112"/>
      <use x="412.998047" xlink:href="#ArialMT-116"/>
      <use x="440.78125" xlink:href="#ArialMT-115"/>
      <use x="490.78125" xlink:href="#ArialMT-32"/>
      <use x="518.564453" xlink:href="#ArialMT-80"/>
      <use x="585.263672" xlink:href="#ArialMT-101"/>
      <use x="640.878906" xlink:href="#ArialMT-114"/>
      <use x="674.179688" xlink:href="#ArialMT-32"/>
      <use x="701.962891" xlink:href="#ArialMT-77"/>
      <use x="785.263672" xlink:href="#ArialMT-105"/>
      <use x="807.480469" xlink:href="#ArialMT-108"/>
      <use x="829.697266" xlink:href="#ArialMT-108"/>
      <use x="851.914062" xlink:href="#ArialMT-105"/>
      <use x="874.130859" xlink:href="#ArialMT-111"/>
      <use x="929.746094" xlink:href="#ArialMT-110"/>
      <use x="985.361328" xlink:href="#ArialMT-32"/>
      <use x="1013.144531" xlink:href="#ArialMT-40"/>
      <use x="1046.445312" xlink:href="#ArialMT-84"/>
      <use x="1107.529297" xlink:href="#ArialMT-80"/>
      <use x="1174.228516" xlink:href="#ArialMT-77"/>
      <use x="1257.529297" xlink:href="#ArialMT-41"/>
     </g>
    </g>
   </g>
   <g id="PolyCollection_1">
    <defs>
     <path d="M 102.410674 -58.506038 
L 96.804319 -58.506038 
L 96.774919 -60.118326 
L 96.750359 -61.730613 
L 96.730571 -63.3429 
L 96.715442 -64.955188 
L 96.704815 -66.567475 
L 96.698493 -68.179762 
L 96.696241 -69.79205 
L 96.697788 -71.404337 
L 96.702832 -73.016624 
L 96.711046 -74.628912 
L 96.722082 -76.241199 
L 96.735574 -77.853486 
L 96.751149 -79.465774 
L 96.768423 -81.078061 
L 96.787017 -82.690348 
L 96.806555 -84.302636 
L 96.826672 -85.914923 
L 96.847018 -87.52721 
L 96.867262 -89.139498 
L 96.887099 -90.751785 
L 96.906249 -92.364072 
L 96.924464 -93.97636 
L 96.941526 -95.588647 
L 96.957254 -97.200935 
L 96.9715 -98.813222 
L 96.984153 -100.425509 
L 96.995137 -102.037797 
L 97.004408 -103.650084 
L 97.01196 -105.262371 
L 97.017812 -106.874659 
L 97.022016 -108.486946 
L 97.024647 -110.099233 
L 97.025804 -111.711521 
L 97.025601 -113.323808 
L 97.024171 -114.936095 
L 97.021656 -116.548383 
L 97.018206 -118.16067 
L 97.013974 -119.772957 
L 97.009113 -121.385245 
L 97.003772 -122.997532 
L 96.998095 -124.609819 
L 96.992215 -126.222107 
L 96.986255 -127.834394 
L 96.980323 -129.446681 
L 96.974511 -131.058969 
L 96.968899 -132.671256 
L 96.963545 -134.283543 
L 96.958495 -135.895831 
L 96.953777 -137.508118 
L 96.949404 -139.120405 
L 96.945374 -140.732693 
L 96.941674 -142.34498 
L 96.938282 -143.957268 
L 96.935164 -145.569555 
L 96.932284 -147.181842 
L 96.929602 -148.79413 
L 96.927075 -150.406417 
L 96.924666 -152.018704 
L 96.922339 -153.630992 
L 96.920067 -155.243279 
L 96.917832 -156.855566 
L 96.915625 -158.467854 
L 96.913453 -160.080141 
L 96.911335 -161.692428 
L 96.909307 -163.304716 
L 96.907418 -164.917003 
L 96.905737 -166.52929 
L 96.904346 -168.141578 
L 96.903343 -169.753865 
L 96.902844 -171.366152 
L 96.902974 -172.97844 
L 96.903874 -174.590727 
L 96.905692 -176.203014 
L 96.908587 -177.815302 
L 96.912722 -179.427589 
L 96.918264 -181.039876 
L 96.925383 -182.652164 
L 96.934244 -184.264451 
L 96.945011 -185.876738 
L 96.957837 -187.489026 
L 96.972871 -189.101313 
L 96.990246 -190.713601 
L 97.010083 -192.325888 
L 97.032486 -193.938175 
L 97.057543 -195.550463 
L 97.08532 -197.16275 
L 97.115864 -198.775037 
L 97.149201 -200.387325 
L 97.185334 -201.999612 
L 97.224243 -203.611899 
L 97.265887 -205.224187 
L 97.3102 -206.836474 
L 97.357098 -208.448761 
L 97.406472 -210.061049 
L 97.458198 -211.673336 
L 97.512128 -213.285623 
L 97.568102 -214.897911 
L 97.625942 -216.510198 
L 97.685459 -218.122485 
L 101.529534 -218.122485 
L 101.529534 -218.122485 
L 101.58905 -216.510198 
L 101.64689 -214.897911 
L 101.702864 -213.285623 
L 101.756795 -211.673336 
L 101.80852 -210.061049 
L 101.857895 -208.448761 
L 101.904792 -206.836474 
L 101.949106 -205.224187 
L 101.990749 -203.611899 
L 102.029659 -201.999612 
L 102.065791 -200.387325 
L 102.099129 -198.775037 
L 102.129673 -197.16275 
L 102.15745 -195.550463 
L 102.182506 -193.938175 
L 102.20491 -192.325888 
L 102.224747 -190.713601 
L 102.242122 -189.101313 
L 102.257155 -187.489026 
L 102.269982 -185.876738 
L 102.280748 -184.264451 
L 102.28961 -182.652164 
L 102.296728 -181.039876 
L 102.302271 -179.427589 
L 102.306406 -177.815302 
L 102.309301 -176.203014 
L 102.311119 -174.590727 
L 102.312018 -172.97844 
L 102.312149 -171.366152 
L 102.311649 -169.753865 
L 102.310647 -168.141578 
L 102.309256 -166.52929 
L 102.307574 -164.917003 
L 102.305686 -163.304716 
L 102.303657 -161.692428 
L 102.301539 -160.080141 
L 102.299367 -158.467854 
L 102.297161 -156.855566 
L 102.294925 -155.243279 
L 102.292653 -153.630992 
L 102.290327 -152.018704 
L 102.287917 -150.406417 
L 102.285391 -148.79413 
L 102.282708 -147.181842 
L 102.279828 -145.569555 
L 102.276711 -143.957268 
L 102.273318 -142.34498 
L 102.269619 -140.732693 
L 102.265589 -139.120405 
L 102.261215 -137.508118 
L 102.256497 -135.895831 
L 102.251447 -134.283543 
L 102.246094 -132.671256 
L 102.240481 -131.058969 
L 102.23467 -129.446681 
L 102.228738 -127.834394 
L 102.222777 -126.222107 
L 102.216898 -124.609819 
L 102.211221 -122.997532 
L 102.20588 -121.385245 
L 102.201019 -119.772957 
L 102.196787 -118.16067 
L 102.193336 -116.548383 
L 102.190821 -114.936095 
L 102.189392 -113.323808 
L 102.189189 -111.711521 
L 102.190345 -110.099233 
L 102.192976 -108.486946 
L 102.197181 -106.874659 
L 102.203033 -105.262371 
L 102.210584 -103.650084 
L 102.219856 -102.037797 
L 102.230839 -100.425509 
L 102.243492 -98.813222 
L 102.257738 -97.200935 
L 102.273466 -95.588647 
L 102.290529 -93.97636 
L 102.308743 -92.364072 
L 102.327893 -90.751785 
L 102.34773 -89.139498 
L 102.367975 -87.52721 
L 102.388321 -85.914923 
L 102.408437 -84.302636 
L 102.427975 -82.690348 
L 102.44657 -81.078061 
L 102.463844 -79.465774 
L 102.479418 -77.853486 
L 102.492911 -76.241199 
L 102.503947 -74.628912 
L 102.512161 -73.016624 
L 102.517205 -71.404337 
L 102.518751 -69.79205 
L 102.516499 -68.179762 
L 102.510178 -66.567475 
L 102.499551 -64.955188 
L 102.484422 -63.3429 
L 102.464634 -61.730613 
L 102.440073 -60.118326 
L 102.410674 -58.506038 
z
" id="mac63cb818d" style="stroke:#999999;stroke-width:2;"/>
    </defs>
    <g clip-path="url(#p4cc2fcd68c)">
     <use style="fill:#ffffff;stroke:#999999;stroke-width:2;" x="0" xlink:href="#mac63cb818d" y="246.509673"/>
    </g>
   </g>
   <g id="PolyCollection_2">
    <defs>
     <path d="M 234.126858 -45.778749 
L 186.876245 -45.778749 
L 186.24963 -45.988686 
L 185.692494 -46.198623 
L 185.199454 -46.40856 
L 184.762809 -46.618496 
L 184.372793 -46.828433 
L 184.017924 -47.03837 
L 183.685426 -47.248307 
L 183.361714 -47.458244 
L 183.032917 -47.66818 
L 182.685427 -47.878117 
L 182.30643 -48.088054 
L 181.884425 -48.297991 
L 181.40968 -48.507928 
L 180.874633 -48.717864 
L 180.2742 -48.927801 
L 179.605998 -49.137738 
L 178.870454 -49.347675 
L 178.070827 -49.557611 
L 177.213113 -49.767548 
L 176.305864 -49.977485 
L 175.359916 -50.187422 
L 174.388056 -50.397359 
L 173.404618 -50.607295 
L 172.425052 -50.817232 
L 171.465471 -51.027169 
L 170.542183 -51.237106 
L 169.671251 -51.447043 
L 168.868066 -51.656979 
L 168.14697 -51.866916 
L 167.520923 -52.076853 
L 167.001227 -52.28679 
L 166.597316 -52.496726 
L 166.316608 -52.706663 
L 166.164416 -52.9166 
L 166.143929 -53.126537 
L 166.256242 -53.336474 
L 166.500439 -53.54641 
L 166.873721 -53.756347 
L 167.371565 -53.966284 
L 167.987918 -54.176221 
L 168.715403 -54.386158 
L 169.54554 -54.596094 
L 170.468972 -54.806031 
L 171.475686 -55.015968 
L 172.555233 -55.225905 
L 173.696924 -55.435841 
L 174.890027 -55.645778 
L 176.123928 -55.855715 
L 177.388286 -56.065652 
L 178.67316 -56.275589 
L 179.969115 -56.485525 
L 181.267314 -56.695462 
L 182.559579 -56.905399 
L 183.838445 -57.115336 
L 185.097191 -57.325273 
L 186.329853 -57.535209 
L 187.531227 -57.745146 
L 188.696859 -57.955083 
L 189.82302 -58.16502 
L 190.906674 -58.374956 
L 191.945439 -58.584893 
L 192.937541 -58.79483 
L 193.881759 -59.004767 
L 194.777369 -59.214704 
L 195.624095 -59.42464 
L 196.422044 -59.634577 
L 197.171657 -59.844514 
L 197.873657 -60.054451 
L 198.529002 -60.264387 
L 199.138848 -60.474324 
L 199.704513 -60.684261 
L 200.227451 -60.894198 
L 200.709238 -61.104135 
L 201.151553 -61.314071 
L 201.556178 -61.524008 
L 201.924993 -61.733945 
L 202.259981 -61.943882 
L 202.563229 -62.153819 
L 202.836935 -62.363755 
L 203.083407 -62.573692 
L 203.305064 -62.783629 
L 203.504429 -62.993566 
L 203.684119 -63.203502 
L 203.846828 -63.413439 
L 203.995302 -63.623376 
L 204.132313 -63.833313 
L 204.260619 -64.04325 
L 204.38293 -64.253186 
L 204.501864 -64.463123 
L 204.619904 -64.67306 
L 204.739352 -64.882997 
L 204.862294 -65.092934 
L 204.990555 -65.30287 
L 205.125671 -65.512807 
L 205.268861 -65.722744 
L 205.421007 -65.932681 
L 205.582649 -66.142617 
L 205.753978 -66.352554 
L 205.934844 -66.562491 
L 215.068259 -66.562491 
L 215.068259 -66.562491 
L 215.249125 -66.352554 
L 215.420453 -66.142617 
L 215.582095 -65.932681 
L 215.734242 -65.722744 
L 215.877432 -65.512807 
L 216.012548 -65.30287 
L 216.140809 -65.092934 
L 216.26375 -64.882997 
L 216.383199 -64.67306 
L 216.501239 -64.463123 
L 216.620173 -64.253186 
L 216.742484 -64.04325 
L 216.87079 -63.833313 
L 217.007801 -63.623376 
L 217.156275 -63.413439 
L 217.318984 -63.203502 
L 217.498674 -62.993566 
L 217.698039 -62.783629 
L 217.919696 -62.573692 
L 218.166168 -62.363755 
L 218.439874 -62.153819 
L 218.743122 -61.943882 
L 219.07811 -61.733945 
L 219.446925 -61.524008 
L 219.85155 -61.314071 
L 220.293865 -61.104135 
L 220.775651 -60.894198 
L 221.29859 -60.684261 
L 221.864255 -60.474324 
L 222.474101 -60.264387 
L 223.129446 -60.054451 
L 223.831446 -59.844514 
L 224.581059 -59.634577 
L 225.379008 -59.42464 
L 226.225733 -59.214704 
L 227.121344 -59.004767 
L 228.065561 -58.79483 
L 229.057663 -58.584893 
L 230.096429 -58.374956 
L 231.180083 -58.16502 
L 232.306244 -57.955083 
L 233.471875 -57.745146 
L 234.67325 -57.535209 
L 235.905912 -57.325273 
L 237.164658 -57.115336 
L 238.443524 -56.905399 
L 239.735789 -56.695462 
L 241.033988 -56.485525 
L 242.329943 -56.275589 
L 243.614817 -56.065652 
L 244.879175 -55.855715 
L 246.113076 -55.645778 
L 247.306179 -55.435841 
L 248.44787 -55.225905 
L 249.527417 -55.015968 
L 250.534131 -54.806031 
L 251.457562 -54.596094 
L 252.287699 -54.386158 
L 253.015184 -54.176221 
L 253.631538 -53.966284 
L 254.129382 -53.756347 
L 254.502663 -53.54641 
L 254.74686 -53.336474 
L 254.859173 -53.126537 
L 254.838687 -52.9166 
L 254.686495 -52.706663 
L 254.405787 -52.496726 
L 254.001876 -52.28679 
L 253.48218 -52.076853 
L 252.856133 -51.866916 
L 252.135037 -51.656979 
L 251.331852 -51.447043 
L 250.46092 -51.237106 
L 249.537632 -51.027169 
L 248.578051 -50.817232 
L 247.598485 -50.607295 
L 246.615047 -50.397359 
L 245.643186 -50.187422 
L 244.697239 -49.977485 
L 243.78999 -49.767548 
L 242.932276 -49.557611 
L 242.132649 -49.347675 
L 241.397105 -49.137738 
L 240.728902 -48.927801 
L 240.12847 -48.717864 
L 239.593423 -48.507928 
L 239.118678 -48.297991 
L 238.696673 -48.088054 
L 238.317676 -47.878117 
L 237.970186 -47.66818 
L 237.641389 -47.458244 
L 237.317677 -47.248307 
L 236.985179 -47.03837 
L 236.63031 -46.828433 
L 236.240294 -46.618496 
L 235.803649 -46.40856 
L 235.310609 -46.198623 
L 234.753473 -45.988686 
L 234.126858 -45.778749 
z
" id="mf9e527160d" style="stroke:#999999;stroke-width:2;"/>
    </defs>
    <g clip-path="url(#p4cc2fcd68c)">
     <use style="fill:#ffffff;stroke:#999999;stroke-width:2;" x="0" xlink:href="#mf9e527160d" y="246.509673"/>
    </g>
   </g>
   <g id="PathCollection_1"/>
   <g id="PathCollection_2"/>
   <g id="PathCollection_3"/>
   <g id="PathCollection_4"/>
   <g id="PathCollection_5"/>
   <g id="PathCollection_6"/>
   <g id="PathCollection_7"/>
   <g id="patch_3">
    <path d="M 44.160469 209.34811 
L 44.160469 19.77 
" style="fill:none;stroke:#262626;stroke-linecap:square;stroke-linejoin:miter;stroke-width:1.25;"/>
   </g>
   <g id="patch_4">
    <path d="M 44.160469 209.34811 
L 265.948579 209.34811 
" style="fill:none;stroke:#262626;stroke-linecap:square;stroke-linejoin:miter;stroke-width:1.25;"/>
   </g>
   <g id="PathCollection_8">
    <defs>
     <path d="M 0 2.5 
C 0.663008 2.5 1.29895 2.236584 1.767767 1.767767 
C 2.236584 1.29895 2.5 0.663008 2.5 -0 
C 2.5 -0.663008 2.236584 -1.29895 1.767767 -1.767767 
C 1.29895 -2.236584 0.663008 -2.5 0 -2.5 
C -0.663008 -2.5 -1.29895 -2.236584 -1.767767 -1.767767 
C -2.236584 -1.29895 -2.5 -0.663008 -2.5 0 
C -2.5 0.663008 -2.236584 1.29895 -1.767767 1.767767 
C -1.29895 2.236584 -0.663008 2.5 0 2.5 
z
" id="C0_0_73dca87ac5"/>
    </defs>
    <g clip-path="url(#p4cc2fcd68c)">
     <use style="fill:#4c72b0;fill-opacity:0.8;" x="108.38883" xlink:href="#C0_0_73dca87ac5" y="63.915711"/>
    </g>
    <g clip-path="url(#p4cc2fcd68c)">
     <use style="fill:#4c72b0;fill-opacity:0.8;" x="104.698439" xlink:href="#C0_0_73dca87ac5" y="61.48354"/>
    </g>
    <g clip-path="url(#p4cc2fcd68c)">
     <use style="fill:#4c72b0;fill-opacity:0.8;" x="95.694621" xlink:href="#C0_0_73dca87ac5" y="48.850942"/>
    </g>
    <g clip-path="url(#p4cc2fcd68c)">
     <use style="fill:#4c72b0;fill-opacity:0.8;" x="109.141721" xlink:href="#C0_0_73dca87ac5" y="29.849686"/>
    </g>
    <g clip-path="url(#p4cc2fcd68c)">
     <use style="fill:#4c72b0;fill-opacity:0.8;" x="101.364582" xlink:href="#C0_0_73dca87ac5" y="47.205573"/>
    </g>
    <g clip-path="url(#p4cc2fcd68c)">
     <use style="fill:#4c72b0;fill-opacity:0.8;" x="89.553901" xlink:href="#C0_0_73dca87ac5" y="28.387187"/>
    </g>
    <g clip-path="url(#p4cc2fcd68c)">
     <use style="fill:#8172b3;fill-opacity:0.8;" x="91.451636" xlink:href="#C0_0_73dca87ac5" y="115.934932"/>
    </g>
    <g clip-path="url(#p4cc2fcd68c)">
     <use style="fill:#8172b3;fill-opacity:0.8;" x="97.892664" xlink:href="#C0_0_73dca87ac5" y="109.690172"/>
    </g>
    <g clip-path="url(#p4cc2fcd68c)">
     <use style="fill:#8172b3;fill-opacity:0.8;" x="106.576633" xlink:href="#C0_0_73dca87ac5" y="114.264174"/>
    </g>
    <g clip-path="url(#p4cc2fcd68c)">
     <use style="fill:#8172b3;fill-opacity:0.8;" x="108.179419" xlink:href="#C0_0_73dca87ac5" y="80.734372"/>
    </g>
    <g clip-path="url(#p4cc2fcd68c)">
     <use style="fill:#8172b3;fill-opacity:0.8;" x="110.658648" xlink:href="#C0_0_73dca87ac5" y="114.633543"/>
    </g>
    <g clip-path="url(#p4cc2fcd68c)">
     <use style="fill:#8172b3;fill-opacity:0.8;" x="96.413719" xlink:href="#C0_0_73dca87ac5" y="133.794537"/>
    </g>
    <g clip-path="url(#p4cc2fcd68c)">
     <use style="fill:#8172b3;fill-opacity:0.8;" x="91.161791" xlink:href="#C0_0_73dca87ac5" y="120.183119"/>
    </g>
    <g clip-path="url(#p4cc2fcd68c)">
     <use style="fill:#8172b3;fill-opacity:0.8;" x="89.054232" xlink:href="#C0_0_73dca87ac5" y="55.053142"/>
    </g>
    <g clip-path="url(#p4cc2fcd68c)">
     <use style="fill:#da8bc3;fill-opacity:0.8;" x="92.408108" xlink:href="#C0_0_73dca87ac5" y="185.349253"/>
    </g>
    <g clip-path="url(#p4cc2fcd68c)">
     <use style="fill:#da8bc3;fill-opacity:0.8;" x="101.438687" xlink:href="#C0_0_73dca87ac5" y="184.506321"/>
    </g>
    <g clip-path="url(#p4cc2fcd68c)">
     <use style="fill:#da8bc3;fill-opacity:0.8;" x="99.28424" xlink:href="#C0_0_73dca87ac5" y="185.676403"/>
    </g>
    <g clip-path="url(#p4cc2fcd68c)">
     <use style="fill:#da8bc3;fill-opacity:0.8;" x="106.509281" xlink:href="#C0_0_73dca87ac5" y="181.886894"/>
    </g>
    <g clip-path="url(#p4cc2fcd68c)">
     <use style="fill:#da8bc3;fill-opacity:0.8;" x="99.936394" xlink:href="#C0_0_73dca87ac5" y="185.620635"/>
    </g>
    <g clip-path="url(#p4cc2fcd68c)">
     <use style="fill:#da8bc3;fill-opacity:0.8;" x="108.626406" xlink:href="#C0_0_73dca87ac5" y="188.003634"/>
    </g>
    <g clip-path="url(#p4cc2fcd68c)">
     <use style="fill:#da8bc3;fill-opacity:0.8;" x="101.718954" xlink:href="#C0_0_73dca87ac5" y="183.932856"/>
    </g>
    <g clip-path="url(#p4cc2fcd68c)">
     <use style="fill:#da8bc3;fill-opacity:0.8;" x="100.711759" xlink:href="#C0_0_73dca87ac5" y="187.644349"/>
    </g>
   </g>
   <g id="PathCollection_9">
    <defs>
     <path d="M 0 2.5 
C 0.663008 2.5 1.29895 2.236584 1.767767 1.767767 
C 2.236584 1.29895 2.5 0.663008 2.5 -0 
C 2.5 -0.663008 2.236584 -1.29895 1.767767 -1.767767 
C 1.29895 -2.236584 0.663008 -2.5 0 -2.5 
C -0.663008 -2.5 -1.29895 -2.236584 -1.767767 -1.767767 
C -2.236584 -1.29895 -2.5 -0.663008 -2.5 0 
C -2.5 0.663008 -2.236584 1.29895 -1.767767 1.767767 
C -1.29895 2.236584 -0.663008 2.5 0 2.5 
z
" id="C1_0_c0f1075a61"/>
    </defs>
    <g clip-path="url(#p4cc2fcd68c)">
     <use style="fill:#dd8452;fill-opacity:0.8;" x="210.33818" xlink:href="#C1_0_c0f1075a61" y="195.142427"/>
    </g>
    <g clip-path="url(#p4cc2fcd68c)">
     <use style="fill:#dd8452;fill-opacity:0.8;" x="207.999499" xlink:href="#C1_0_c0f1075a61" y="193.708115"/>
    </g>
    <g clip-path="url(#p4cc2fcd68c)">
     <use style="fill:#dd8452;fill-opacity:0.8;" x="219.994436" xlink:href="#C1_0_c0f1075a61" y="195.617376"/>
    </g>
    <g clip-path="url(#p4cc2fcd68c)">
     <use style="fill:#dd8452;fill-opacity:0.8;" x="199.441235" xlink:href="#C1_0_c0f1075a61" y="194.835385"/>
    </g>
    <g clip-path="url(#p4cc2fcd68c)">
     <use style="fill:#dd8452;fill-opacity:0.8;" x="206.235446" xlink:href="#C1_0_c0f1075a61" y="194.652341"/>
    </g>
    <g clip-path="url(#p4cc2fcd68c)">
     <use style="fill:#dd8452;fill-opacity:0.8;" x="203.667331" xlink:href="#C1_0_c0f1075a61" y="195.077016"/>
    </g>
    <g clip-path="url(#p4cc2fcd68c)">
     <use style="fill:#dd8452;fill-opacity:0.8;" x="217.939016" xlink:href="#C1_0_c0f1075a61" y="196.631974"/>
    </g>
    <g clip-path="url(#p4cc2fcd68c)">
     <use style="fill:#dd8452;fill-opacity:0.8;" x="213.728345" xlink:href="#C1_0_c0f1075a61" y="195.867205"/>
    </g>
    <g clip-path="url(#p4cc2fcd68c)">
     <use style="fill:#dd8452;fill-opacity:0.8;" x="221.153237" xlink:href="#C1_0_c0f1075a61" y="192.709583"/>
    </g>
    <g clip-path="url(#p4cc2fcd68c)">
     <use style="fill:#dd8452;fill-opacity:0.8;" x="205.858652" xlink:href="#C1_0_c0f1075a61" y="192.500372"/>
    </g>
    <g clip-path="url(#p4cc2fcd68c)">
     <use style="fill:#55a868;fill-opacity:0.8;" x="213.152095" xlink:href="#C1_0_c0f1075a61" y="190.965379"/>
    </g>
    <g clip-path="url(#p4cc2fcd68c)">
     <use style="fill:#55a868;fill-opacity:0.8;" x="218.834623" xlink:href="#C1_0_c0f1075a61" y="189.535013"/>
    </g>
    <g clip-path="url(#p4cc2fcd68c)">
     <use style="fill:#55a868;fill-opacity:0.8;" x="201.074633" xlink:href="#C1_0_c0f1075a61" y="192.884149"/>
    </g>
    <g clip-path="url(#p4cc2fcd68c)">
     <use style="fill:#55a868;fill-opacity:0.8;" x="209.755481" xlink:href="#C1_0_c0f1075a61" y="192.608221"/>
    </g>
    <g clip-path="url(#p4cc2fcd68c)">
     <use style="fill:#55a868;fill-opacity:0.8;" x="204.934964" xlink:href="#C1_0_c0f1075a61" y="192.633829"/>
    </g>
    <g clip-path="url(#p4cc2fcd68c)">
     <use style="fill:#55a868;fill-opacity:0.8;" x="210.320664" xlink:href="#C1_0_c0f1075a61" y="193.684598"/>
    </g>
    <g clip-path="url(#p4cc2fcd68c)">
     <use style="fill:#55a868;fill-opacity:0.8;" x="200.860552" xlink:href="#C1_0_c0f1075a61" y="193.196062"/>
    </g>
    <g clip-path="url(#p4cc2fcd68c)">
     <use style="fill:#55a868;fill-opacity:0.8;" x="199.827837" xlink:href="#C1_0_c0f1075a61" y="194.738263"/>
    </g>
    <g clip-path="url(#p4cc2fcd68c)">
     <use style="fill:#c44e52;fill-opacity:0.8;" x="221.303681" xlink:href="#C1_0_c0f1075a61" y="200.371024"/>
    </g>
    <g clip-path="url(#p4cc2fcd68c)">
     <use style="fill:#c44e52;fill-opacity:0.8;" x="218.037637" xlink:href="#C1_0_c0f1075a61" y="200.110033"/>
    </g>
    <g clip-path="url(#p4cc2fcd68c)">
     <use style="fill:#c44e52;fill-opacity:0.8;" x="215.007605" xlink:href="#C1_0_c0f1075a61" y="200.632423"/>
    </g>
    <g clip-path="url(#p4cc2fcd68c)">
     <use style="fill:#c44e52;fill-opacity:0.8;" x="211.411474" xlink:href="#C1_0_c0f1075a61" y="200.281077"/>
    </g>
    <g clip-path="url(#p4cc2fcd68c)">
     <use style="fill:#c44e52;fill-opacity:0.8;" x="214.532106" xlink:href="#C1_0_c0f1075a61" y="200.543681"/>
    </g>
    <g clip-path="url(#p4cc2fcd68c)">
     <use style="fill:#c44e52;fill-opacity:0.8;" x="218.858034" xlink:href="#C1_0_c0f1075a61" y="200.730923"/>
    </g>
    <g clip-path="url(#p4cc2fcd68c)">
     <use style="fill:#c44e52;fill-opacity:0.8;" x="212.876728" xlink:href="#C1_0_c0f1075a61" y="200.309102"/>
    </g>
    <g clip-path="url(#p4cc2fcd68c)">
     <use style="fill:#c44e52;fill-opacity:0.8;" x="216.101576" xlink:href="#C1_0_c0f1075a61" y="200.549859"/>
    </g>
    <g clip-path="url(#p4cc2fcd68c)">
     <use style="fill:#937860;fill-opacity:0.8;" x="207.200723" xlink:href="#C1_0_c0f1075a61" y="188.922691"/>
    </g>
    <g clip-path="url(#p4cc2fcd68c)">
     <use style="fill:#937860;fill-opacity:0.8;" x="207.896517" xlink:href="#C1_0_c0f1075a61" y="185.716234"/>
    </g>
    <g clip-path="url(#p4cc2fcd68c)">
     <use style="fill:#937860;fill-opacity:0.8;" x="207.37675" xlink:href="#C1_0_c0f1075a61" y="182.41521"/>
    </g>
    <g clip-path="url(#p4cc2fcd68c)">
     <use style="fill:#937860;fill-opacity:0.8;" x="205.990622" xlink:href="#C1_0_c0f1075a61" y="190.652385"/>
    </g>
    <g clip-path="url(#p4cc2fcd68c)">
     <use style="fill:#937860;fill-opacity:0.8;" x="200.610469" xlink:href="#C1_0_c0f1075a61" y="191.340626"/>
    </g>
    <g clip-path="url(#p4cc2fcd68c)">
     <use style="fill:#937860;fill-opacity:0.8;" x="208.63172" xlink:href="#C1_0_c0f1075a61" y="189.91178"/>
    </g>
    <g clip-path="url(#p4cc2fcd68c)">
     <use style="fill:#937860;fill-opacity:0.8;" x="217.401153" xlink:href="#C1_0_c0f1075a61" y="187.003676"/>
    </g>
    <g clip-path="url(#p4cc2fcd68c)">
     <use style="fill:#937860;fill-opacity:0.8;" x="216.974927" xlink:href="#C1_0_c0f1075a61" y="179.947182"/>
    </g>
   </g>
   <g id="text_14">
    <!-- ATP11A, $p_{adj}$ &lt; .001 *** -->
    <g style="fill:#262626;" transform="translate(44.160469 13.77)scale(0.09 -0.09)">
     <defs>
      <path d="M -0.140625 0 
L 27.34375 71.578125 
L 37.546875 71.578125 
L 66.84375 0 
L 56.0625 0 
L 47.703125 21.6875 
L 17.78125 21.6875 
L 9.90625 0 
z
M 20.515625 29.390625 
L 44.78125 29.390625 
L 37.3125 49.21875 
Q 33.890625 58.25 32.234375 64.0625 
Q 30.859375 57.171875 28.375 50.390625 
z
" id="ArialMT-65"/>
      <path d="M 8.890625 0 
L 8.890625 10.015625 
L 18.890625 10.015625 
L 18.890625 0 
Q 18.890625 -5.515625 16.9375 -8.90625 
Q 14.984375 -12.3125 10.75 -14.15625 
L 8.296875 -10.40625 
Q 11.078125 -9.1875 12.390625 -6.8125 
Q 13.71875 -4.4375 13.875 0 
z
" id="ArialMT-44"/>
      <path d="M 49.609375 33.6875 
Q 49.609375 40.875 46.484375 44.671875 
Q 43.359375 48.484375 37.5 48.484375 
Q 33.5 48.484375 29.859375 46.4375 
Q 26.21875 44.390625 23.390625 40.484375 
Q 20.609375 36.625 18.9375 31.15625 
Q 17.28125 25.6875 17.28125 20.3125 
Q 17.28125 13.484375 20.40625 9.796875 
Q 23.53125 6.109375 29.296875 6.109375 
Q 33.546875 6.109375 37.1875 8.109375 
Q 40.828125 10.109375 43.40625 13.921875 
Q 46.1875 17.921875 47.890625 23.34375 
Q 49.609375 28.765625 49.609375 33.6875 
z
M 21.78125 46.390625 
Q 25.390625 51.125 30.296875 53.5625 
Q 35.203125 56 41.21875 56 
Q 49.609375 56 54.25 50.5 
Q 58.890625 45.015625 58.890625 35.109375 
Q 58.890625 27 56 19.65625 
Q 53.125 12.3125 47.703125 6.5 
Q 44.09375 2.640625 39.546875 0.609375 
Q 35.015625 -1.421875 29.984375 -1.421875 
Q 24.171875 -1.421875 20.21875 1 
Q 16.265625 3.421875 14.3125 8.203125 
L 8.6875 -20.796875 
L -0.296875 -20.796875 
L 14.40625 54.6875 
L 23.390625 54.6875 
z
" id="DejaVuSans-Oblique-112"/>
      <path d="M 53.71875 31.203125 
L 47.609375 0 
L 38.625 0 
L 40.28125 8.296875 
Q 36.328125 3.421875 31.265625 1 
Q 26.21875 -1.421875 20.015625 -1.421875 
Q 13.03125 -1.421875 8.5625 2.84375 
Q 4.109375 7.125 4.109375 13.8125 
Q 4.109375 23.390625 11.75 28.953125 
Q 19.390625 34.515625 32.8125 34.515625 
L 45.3125 34.515625 
L 45.796875 36.921875 
Q 45.90625 37.3125 45.953125 37.765625 
Q 46 38.234375 46 39.203125 
Q 46 43.5625 42.453125 45.96875 
Q 38.921875 48.390625 32.515625 48.390625 
Q 28.125 48.390625 23.5 47.265625 
Q 18.890625 46.140625 14.015625 43.890625 
L 15.578125 52.203125 
Q 20.65625 54.109375 25.515625 55.046875 
Q 30.375 56 34.90625 56 
Q 44.578125 56 49.625 51.796875 
Q 54.6875 47.609375 54.6875 39.59375 
Q 54.6875 37.984375 54.4375 35.8125 
Q 54.203125 33.640625 53.71875 31.203125 
z
M 44 27.484375 
L 35.015625 27.484375 
Q 23.96875 27.484375 18.671875 24.53125 
Q 13.375 21.578125 13.375 15.375 
Q 13.375 11.078125 16.078125 8.640625 
Q 18.796875 6.203125 23.578125 6.203125 
Q 30.90625 6.203125 36.375 11.453125 
Q 41.84375 16.703125 43.609375 25.484375 
z
" id="DejaVuSans-Oblique-97"/>
      <path d="M 41.796875 8.203125 
Q 38.1875 3.46875 33.25 1.015625 
Q 28.328125 -1.421875 22.3125 -1.421875 
Q 14.109375 -1.421875 9.34375 4.171875 
Q 4.59375 9.765625 4.59375 19.484375 
Q 4.59375 27.59375 7.46875 34.9375 
Q 10.359375 42.28125 15.828125 48.09375 
Q 19.4375 51.953125 23.96875 53.96875 
Q 28.515625 56 33.5 56 
Q 38.765625 56 42.796875 53.453125 
Q 46.828125 50.921875 49.03125 46.1875 
L 54.890625 75.984375 
L 63.921875 75.984375 
L 49.125 0 
L 40.09375 0 
z
M 13.921875 21.09375 
Q 13.921875 14.015625 17.109375 10.0625 
Q 20.3125 6.109375 25.984375 6.109375 
Q 30.171875 6.109375 33.765625 8.125 
Q 37.359375 10.15625 40.09375 14.109375 
Q 42.96875 18.21875 44.625 23.578125 
Q 46.296875 28.953125 46.296875 34.1875 
Q 46.296875 40.96875 43.09375 44.765625 
Q 39.890625 48.578125 34.28125 48.578125 
Q 30.03125 48.578125 26.359375 46.578125 
Q 22.703125 44.578125 20.125 40.828125 
Q 17.28125 36.765625 15.59375 31.390625 
Q 13.921875 26.03125 13.921875 21.09375 
z
" id="DejaVuSans-Oblique-100"/>
      <path d="M 14.5 54.6875 
L 23.484375 54.6875 
L 12.703125 -0.984375 
L 12.640625 -1.21875 
Q 10.84375 -10.546875 8.5 -14.015625 
Q 6.296875 -17.28125 2.0625 -19.03125 
Q -2.15625 -20.796875 -7.90625 -20.796875 
L -11.28125 -20.796875 
L -9.8125 -13.1875 
L -7.515625 -13.1875 
Q -2.25 -13.1875 -0.015625 -10.984375 
Q 2.203125 -8.796875 3.71875 -0.984375 
z
M 18.703125 75.984375 
L 27.6875 75.984375 
L 25.484375 64.59375 
L 16.5 64.59375 
z
" id="DejaVuSans-Oblique-106"/>
      <path d="M 5.46875 31.296875 
L 5.46875 39.5 
L 52.875 59.515625 
L 52.875 50.78125 
L 15.28125 35.359375 
L 52.875 19.78125 
L 52.875 11.03125 
z
" id="ArialMT-60"/>
      <path d="M 9.078125 0 
L 9.078125 10.015625 
L 19.09375 10.015625 
L 19.09375 0 
z
" id="ArialMT-46"/>
      <path d="M 3.125 58.453125 
L 5.375 65.375 
Q 13.140625 62.640625 16.65625 60.640625 
Q 15.71875 69.484375 15.671875 72.796875 
L 22.75 72.796875 
Q 22.609375 67.96875 21.625 60.6875 
Q 26.65625 63.234375 33.15625 65.375 
L 35.40625 58.453125 
Q 29.203125 56.390625 23.25 55.71875 
Q 26.21875 53.125 31.640625 46.484375 
L 25.78125 42.328125 
Q 22.953125 46.1875 19.09375 52.828125 
Q 15.484375 45.953125 12.75 42.328125 
L 6.984375 46.484375 
Q 12.640625 53.46875 15.09375 55.71875 
Q 8.796875 56.9375 3.125 58.453125 
z
" id="ArialMT-42"/>
     </defs>
     <use transform="translate(0 0.203125)" xlink:href="#ArialMT-65"/>
     <use transform="translate(66.699219 0.203125)" xlink:href="#ArialMT-84"/>
     <use transform="translate(127.783203 0.203125)" xlink:href="#ArialMT-80"/>
     <use transform="translate(194.482422 0.203125)" xlink:href="#ArialMT-49"/>
     <use transform="translate(250.097656 0.203125)" xlink:href="#ArialMT-49"/>
     <use transform="translate(305.712891 0.203125)" xlink:href="#ArialMT-65"/>
     <use transform="translate(372.412109 0.203125)" xlink:href="#ArialMT-44"/>
     <use transform="translate(400.195312 0.203125)" xlink:href="#ArialMT-32"/>
     <use transform="translate(427.978516 0.203125)" xlink:href="#DejaVuSans-Oblique-112"/>
     <use transform="translate(491.455078 -16.203125)scale(0.7)" xlink:href="#DejaVuSans-Oblique-97"/>
     <use transform="translate(534.350586 -16.203125)scale(0.7)" xlink:href="#DejaVuSans-Oblique-100"/>
     <use transform="translate(578.78418 -16.203125)scale(0.7)" xlink:href="#DejaVuSans-Oblique-106"/>
     <use transform="translate(600.966797 0.203125)" xlink:href="#ArialMT-32"/>
     <use transform="translate(628.75 0.203125)" xlink:href="#ArialMT-60"/>
     <use transform="translate(687.148438 0.203125)" xlink:href="#ArialMT-32"/>
     <use transform="translate(714.931641 0.203125)" xlink:href="#ArialMT-46"/>
     <use transform="translate(742.714844 0.203125)" xlink:href="#ArialMT-48"/>
     <use transform="translate(798.330078 0.203125)" xlink:href="#ArialMT-48"/>
     <use transform="translate(853.945312 0.203125)" xlink:href="#ArialMT-49"/>
     <use transform="translate(909.560547 0.203125)" xlink:href="#ArialMT-32"/>
     <use transform="translate(937.34375 0.203125)" xlink:href="#ArialMT-42"/>
     <use transform="translate(976.259766 0.203125)" xlink:href="#ArialMT-42"/>
     <use transform="translate(1015.175781 0.203125)" xlink:href="#ArialMT-42"/>
    </g>
   </g>
  </g>
  <g id="axes_2">
   <g id="patch_5">
    <path d="M 275.668579 209.34811 
L 497.456689 209.34811 
L 497.456689 19.77 
L 275.668579 19.77 
z
" style="fill:#ffffff;"/>
   </g>
   <g id="matplotlib.axis_3">
    <g id="xtick_3">
     <g id="text_15">
      <!-- BEVA -->
      <g style="fill:#444444;" transform="translate(319.440919 225.290141)scale(0.09 -0.09)">
       <defs>
        <path d="M 7.328125 0 
L 7.328125 71.578125 
L 34.1875 71.578125 
Q 42.390625 71.578125 47.34375 69.40625 
Q 52.296875 67.234375 55.09375 62.71875 
Q 57.90625 58.203125 57.90625 53.265625 
Q 57.90625 48.6875 55.421875 44.625 
Q 52.9375 40.578125 47.90625 38.09375 
Q 54.390625 36.1875 57.875 31.59375 
Q 61.375 27 61.375 20.75 
Q 61.375 15.71875 59.25 11.390625 
Q 57.125 7.078125 54 4.734375 
Q 50.875 2.390625 46.15625 1.1875 
Q 41.453125 0 34.625 0 
z
M 16.796875 41.5 
L 32.28125 41.5 
Q 38.578125 41.5 41.3125 42.328125 
Q 44.921875 43.40625 46.75 45.890625 
Q 48.578125 48.390625 48.578125 52.15625 
Q 48.578125 55.71875 46.875 58.421875 
Q 45.171875 61.140625 41.984375 62.140625 
Q 38.8125 63.140625 31.109375 63.140625 
L 16.796875 63.140625 
z
M 16.796875 8.453125 
L 34.625 8.453125 
Q 39.203125 8.453125 41.0625 8.796875 
Q 44.34375 9.375 46.53125 10.734375 
Q 48.734375 12.109375 50.140625 14.71875 
Q 51.5625 17.328125 51.5625 20.75 
Q 51.5625 24.75 49.515625 27.703125 
Q 47.46875 30.671875 43.828125 31.859375 
Q 40.1875 33.0625 33.34375 33.0625 
L 16.796875 33.0625 
z
" id="ArialMT-66"/>
        <path d="M 7.90625 0 
L 7.90625 71.578125 
L 59.671875 71.578125 
L 59.671875 63.140625 
L 17.390625 63.140625 
L 17.390625 41.21875 
L 56.984375 41.21875 
L 56.984375 32.8125 
L 17.390625 32.8125 
L 17.390625 8.453125 
L 61.328125 8.453125 
L 61.328125 0 
z
" id="ArialMT-69"/>
        <path d="M 28.171875 0 
L 0.4375 71.578125 
L 10.6875 71.578125 
L 29.296875 19.578125 
Q 31.546875 13.328125 33.0625 7.859375 
Q 34.71875 13.71875 36.921875 19.578125 
L 56.25 71.578125 
L 65.921875 71.578125 
L 37.890625 0 
z
" id="ArialMT-86"/>
       </defs>
       <use xlink:href="#ArialMT-66"/>
       <use x="66.699219" xlink:href="#ArialMT-69"/>
       <use x="133.398438" xlink:href="#ArialMT-86"/>
       <use x="192.722656" xlink:href="#ArialMT-65"/>
      </g>
     </g>
    </g>
    <g id="xtick_4">
     <g id="text_16">
      <!-- CTRL -->
      <g style="fill:#444444;" transform="translate(430.259037 225.290141)scale(0.09 -0.09)">
       <defs>
        <path d="M 7.859375 0 
L 7.859375 71.578125 
L 39.59375 71.578125 
Q 49.171875 71.578125 54.140625 69.640625 
Q 59.125 67.71875 62.109375 62.828125 
Q 65.09375 57.953125 65.09375 52.046875 
Q 65.09375 44.4375 60.15625 39.203125 
Q 55.21875 33.984375 44.921875 32.5625 
Q 48.6875 30.765625 50.640625 29 
Q 54.78125 25.203125 58.5 19.484375 
L 70.953125 0 
L 59.03125 0 
L 49.5625 14.890625 
Q 45.40625 21.34375 42.71875 24.75 
Q 40.046875 28.171875 37.921875 29.53125 
Q 35.796875 30.90625 33.59375 31.453125 
Q 31.984375 31.78125 28.328125 31.78125 
L 17.328125 31.78125 
L 17.328125 0 
z
M 17.328125 39.984375 
L 37.703125 39.984375 
Q 44.1875 39.984375 47.84375 41.328125 
Q 51.515625 42.671875 53.421875 45.625 
Q 55.328125 48.578125 55.328125 52.046875 
Q 55.328125 57.125 51.640625 60.390625 
Q 47.953125 63.671875 39.984375 63.671875 
L 17.328125 63.671875 
z
" id="ArialMT-82"/>
        <path d="M 7.328125 0 
L 7.328125 71.578125 
L 16.796875 71.578125 
L 16.796875 8.453125 
L 52.046875 8.453125 
L 52.046875 0 
z
" id="ArialMT-76"/>
       </defs>
       <use xlink:href="#ArialMT-67"/>
       <use x="72.216797" xlink:href="#ArialMT-84"/>
       <use x="133.300781" xlink:href="#ArialMT-82"/>
       <use x="205.517578" xlink:href="#ArialMT-76"/>
      </g>
     </g>
    </g>
    <g id="text_17">
     <!-- Condition -->
     <g style="fill:#444444;" transform="translate(367.550837 237.520923)scale(0.09 -0.09)">
      <use xlink:href="#ArialMT-67"/>
      <use x="72.216797" xlink:href="#ArialMT-111"/>
      <use x="127.832031" xlink:href="#ArialMT-110"/>
      <use x="183.447266" xlink:href="#ArialMT-100"/>
      <use x="239.0625" xlink:href="#ArialMT-105"/>
      <use x="261.279297" xlink:href="#ArialMT-116"/>
      <use x="289.0625" xlink:href="#ArialMT-105"/>
      <use x="311.279297" xlink:href="#ArialMT-111"/>
      <use x="366.894531" xlink:href="#ArialMT-110"/>
     </g>
    </g>
   </g>
   <g id="matplotlib.axis_4">
    <g id="ytick_10"/>
    <g id="ytick_11"/>
    <g id="ytick_12"/>
    <g id="ytick_13"/>
    <g id="ytick_14"/>
    <g id="ytick_15"/>
    <g id="ytick_16"/>
    <g id="ytick_17"/>
    <g id="ytick_18"/>
   </g>
   <g id="PolyCollection_3">
    <defs>
     <path d="M 372.908939 -45.87725 
L 289.322274 -45.87725 
L 288.537425 -47.410396 
L 287.888448 -48.943542 
L 287.381786 -50.476688 
L 287.02244 -52.009835 
L 286.813882 -53.542981 
L 286.757984 -55.076127 
L 286.854988 -56.609274 
L 287.103489 -58.14242 
L 287.500456 -59.675566 
L 288.041282 -61.208712 
L 288.719852 -62.741859 
L 289.528642 -64.275005 
L 290.458845 -65.808151 
L 291.500505 -67.341297 
L 292.642682 -68.874444 
L 293.873619 -70.40759 
L 295.180925 -71.940736 
L 296.551761 -73.473883 
L 297.973031 -75.007029 
L 299.431566 -76.540175 
L 300.914308 -78.073321 
L 302.408483 -79.606468 
L 303.901762 -81.139614 
L 305.382405 -82.67276 
L 306.839397 -84.205907 
L 308.262557 -85.739053 
L 309.642635 -87.272199 
L 310.97138 -88.805345 
L 312.241602 -90.338492 
L 313.447198 -91.871638 
L 314.583173 -93.404784 
L 315.645635 -94.93793 
L 316.631775 -96.471077 
L 317.539828 -98.004223 
L 318.369031 -99.537369 
L 319.119557 -101.070516 
L 319.792446 -102.603662 
L 320.389524 -104.136808 
L 320.913319 -105.669954 
L 321.366974 -107.203101 
L 321.75415 -108.736247 
L 322.078937 -110.269393 
L 322.345761 -111.80254 
L 322.55929 -113.335686 
L 322.724353 -114.868832 
L 322.845852 -116.401978 
L 322.92869 -117.935125 
L 322.977693 -119.468271 
L 322.997553 -121.001417 
L 322.992765 -122.534563 
L 322.967582 -124.06771 
L 322.925973 -125.600856 
L 322.87159 -127.134002 
L 322.807741 -128.667149 
L 322.737378 -130.200295 
L 322.663085 -131.733441 
L 322.587079 -133.266587 
L 322.511218 -134.799734 
L 322.437008 -136.33288 
L 322.365629 -137.866026 
L 322.297956 -139.399173 
L 322.234589 -140.932319 
L 322.175884 -142.465465 
L 322.121993 -143.998611 
L 322.072895 -145.531758 
L 322.028442 -147.064904 
L 321.988388 -148.59805 
L 321.952438 -150.131196 
L 321.920273 -151.664343 
L 321.89159 -153.197489 
L 321.866129 -154.730635 
L 321.843699 -156.263782 
L 321.8242 -157.796928 
L 321.807642 -159.330074 
L 321.794151 -160.86322 
L 321.783981 -162.396367 
L 321.777511 -163.929513 
L 321.775246 -165.462659 
L 321.777803 -166.995806 
L 321.785905 -168.528952 
L 321.800357 -170.062098 
L 321.822033 -171.595244 
L 321.85185 -173.128391 
L 321.890743 -174.661537 
L 321.939646 -176.194683 
L 321.999457 -177.727829 
L 322.071023 -179.260976 
L 322.155108 -180.794122 
L 322.252375 -182.327268 
L 322.363362 -183.860415 
L 322.48847 -185.393561 
L 322.627945 -186.926707 
L 322.781869 -188.459853 
L 322.950151 -189.993 
L 323.132527 -191.526146 
L 323.328559 -193.059292 
L 323.537639 -194.592439 
L 323.758998 -196.125585 
L 323.991717 -197.658731 
L 338.239497 -197.658731 
L 338.239497 -197.658731 
L 338.472215 -196.125585 
L 338.693574 -194.592439 
L 338.902654 -193.059292 
L 339.098686 -191.526146 
L 339.281062 -189.993 
L 339.449344 -188.459853 
L 339.603268 -186.926707 
L 339.742743 -185.393561 
L 339.867851 -183.860415 
L 339.978838 -182.327268 
L 340.076105 -180.794122 
L 340.16019 -179.260976 
L 340.231756 -177.727829 
L 340.291568 -176.194683 
L 340.34047 -174.661537 
L 340.379364 -173.128391 
L 340.40918 -171.595244 
L 340.430856 -170.062098 
L 340.445308 -168.528952 
L 340.45341 -166.995806 
L 340.455967 -165.462659 
L 340.453702 -163.929513 
L 340.447232 -162.396367 
L 340.437062 -160.86322 
L 340.423571 -159.330074 
L 340.407013 -157.796928 
L 340.387514 -156.263782 
L 340.365084 -154.730635 
L 340.339623 -153.197489 
L 340.31094 -151.664343 
L 340.278775 -150.131196 
L 340.242825 -148.59805 
L 340.202772 -147.064904 
L 340.158318 -145.531758 
L 340.10922 -143.998611 
L 340.055329 -142.465465 
L 339.996624 -140.932319 
L 339.933257 -139.399173 
L 339.865584 -137.866026 
L 339.794205 -136.33288 
L 339.719995 -134.799734 
L 339.644134 -133.266587 
L 339.568128 -131.733441 
L 339.493836 -130.200295 
L 339.423472 -128.667149 
L 339.359623 -127.134002 
L 339.30524 -125.600856 
L 339.263631 -124.06771 
L 339.238448 -122.534563 
L 339.233661 -121.001417 
L 339.25352 -119.468271 
L 339.302523 -117.935125 
L 339.385361 -116.401978 
L 339.50686 -114.868832 
L 339.671923 -113.335686 
L 339.885452 -111.80254 
L 340.152276 -110.269393 
L 340.477063 -108.736247 
L 340.864239 -107.203101 
L 341.317894 -105.669954 
L 341.841689 -104.136808 
L 342.438767 -102.603662 
L 343.111656 -101.070516 
L 343.862182 -99.537369 
L 344.691385 -98.004223 
L 345.599439 -96.471077 
L 346.585578 -94.93793 
L 347.64804 -93.404784 
L 348.784015 -91.871638 
L 349.989611 -90.338492 
L 351.259833 -88.805345 
L 352.588578 -87.272199 
L 353.968656 -85.739053 
L 355.391816 -84.205907 
L 356.848808 -82.67276 
L 358.329451 -81.139614 
L 359.82273 -79.606468 
L 361.316905 -78.073321 
L 362.799648 -76.540175 
L 364.258183 -75.007029 
L 365.679452 -73.473883 
L 367.050288 -71.940736 
L 368.357594 -70.40759 
L 369.588531 -68.874444 
L 370.730708 -67.341297 
L 371.772368 -65.808151 
L 372.702571 -64.275005 
L 373.511361 -62.741859 
L 374.189931 -61.208712 
L 374.730757 -59.675566 
L 375.127724 -58.14242 
L 375.376225 -56.609274 
L 375.473229 -55.076127 
L 375.417331 -53.542981 
L 375.208773 -52.009835 
L 374.849427 -50.476688 
L 374.342765 -48.943542 
L 373.693789 -47.410396 
L 372.908939 -45.87725 
z
" id="m3b368547ff" style="stroke:#999999;stroke-width:2;"/>
    </defs>
    <g clip-path="url(#pc7ad58c9b3)">
     <use style="fill:#ffffff;stroke:#999999;stroke-width:2;" x="0" xlink:href="#m3b368547ff" y="246.509673"/>
    </g>
   </g>
   <g id="PolyCollection_4">
    <defs>
     <path d="M 479.850194 -45.778749 
L 404.169129 -45.778749 
L 403.576855 -47.519595 
L 403.108581 -49.260441 
L 402.768436 -51.001287 
L 402.559174 -52.742133 
L 402.482129 -54.482978 
L 402.537184 -56.223824 
L 402.722776 -57.96467 
L 403.035923 -59.705516 
L 403.472271 -61.446362 
L 404.026176 -63.187208 
L 404.690804 -64.928053 
L 405.458245 -66.668899 
L 406.319656 -68.409745 
L 407.265408 -70.150591 
L 408.285252 -71.891437 
L 409.368487 -73.632283 
L 410.504133 -75.373128 
L 411.681105 -77.113974 
L 412.888381 -78.85482 
L 414.115162 -80.595666 
L 415.351025 -82.336512 
L 416.58606 -84.077357 
L 417.810993 -85.818203 
L 419.017287 -87.559049 
L 420.19723 -89.299895 
L 421.344001 -91.040741 
L 422.451713 -92.781587 
L 423.51544 -94.522432 
L 424.531221 -96.263278 
L 425.49605 -98.004124 
L 426.407843 -99.74497 
L 427.265394 -101.485816 
L 428.068315 -103.226662 
L 428.816969 -104.967507 
L 429.512387 -106.708353 
L 430.156184 -108.449199 
L 430.750467 -110.190045 
L 431.297743 -111.930891 
L 431.800829 -113.671736 
L 432.262754 -115.412582 
L 432.686681 -117.153428 
L 433.075817 -118.894274 
L 433.433344 -120.63512 
L 433.762345 -122.375966 
L 434.065754 -124.116811 
L 434.346297 -125.857657 
L 434.606461 -127.598503 
L 434.848455 -129.339349 
L 435.074196 -131.080195 
L 435.285295 -132.821041 
L 435.483051 -134.561886 
L 435.668465 -136.302732 
L 435.842242 -138.043578 
L 436.004819 -139.784424 
L 436.156387 -141.52527 
L 436.29692 -143.266115 
L 436.426209 -145.006961 
L 436.543897 -146.747807 
L 436.649521 -148.488653 
L 436.742543 -150.229499 
L 436.822395 -151.970345 
L 436.888512 -153.71119 
L 436.940371 -155.452036 
L 436.977519 -157.192882 
L 436.999606 -158.933728 
L 437.006413 -160.674574 
L 436.99787 -162.41542 
L 436.974076 -164.156265 
L 436.935312 -165.897111 
L 436.882053 -167.637957 
L 436.814968 -169.378803 
L 436.734922 -171.119649 
L 436.64297 -172.860494 
L 436.540353 -174.60134 
L 436.428479 -176.342186 
L 436.30891 -178.083032 
L 436.183344 -179.823878 
L 436.05359 -181.564724 
L 435.921547 -183.305569 
L 435.789177 -185.046415 
L 435.658474 -186.787261 
L 435.531444 -188.528107 
L 435.41007 -190.268953 
L 435.296287 -192.009799 
L 435.191954 -193.750644 
L 435.098829 -195.49149 
L 435.018546 -197.232336 
L 434.95259 -198.973182 
L 434.90228 -200.714028 
L 434.868751 -202.454873 
L 434.85294 -204.195719 
L 434.855576 -205.936565 
L 434.877171 -207.677411 
L 434.918018 -209.418257 
L 434.978189 -211.159103 
L 435.057538 -212.899948 
L 435.155708 -214.640794 
L 435.272138 -216.38164 
L 435.406075 -218.122486 
L 448.613248 -218.122486 
L 448.613248 -218.122486 
L 448.747186 -216.38164 
L 448.863615 -214.640794 
L 448.961785 -212.899948 
L 449.041134 -211.159103 
L 449.101305 -209.418257 
L 449.142152 -207.677411 
L 449.163747 -205.936565 
L 449.166383 -204.195719 
L 449.150572 -202.454873 
L 449.117043 -200.714028 
L 449.066733 -198.973182 
L 449.000778 -197.232336 
L 448.920495 -195.49149 
L 448.82737 -193.750644 
L 448.723037 -192.009799 
L 448.609253 -190.268953 
L 448.487879 -188.528107 
L 448.360849 -186.787261 
L 448.230147 -185.046415 
L 448.097776 -183.305569 
L 447.965733 -181.564724 
L 447.83598 -179.823878 
L 447.710413 -178.083032 
L 447.590844 -176.342186 
L 447.47897 -174.60134 
L 447.376353 -172.860494 
L 447.284402 -171.119649 
L 447.204355 -169.378803 
L 447.13727 -167.637957 
L 447.084011 -165.897111 
L 447.045248 -164.156265 
L 447.021453 -162.41542 
L 447.01291 -160.674574 
L 447.019717 -158.933728 
L 447.041805 -157.192882 
L 447.078953 -155.452036 
L 447.130811 -153.71119 
L 447.196929 -151.970345 
L 447.276781 -150.229499 
L 447.369803 -148.488653 
L 447.475426 -146.747807 
L 447.593115 -145.006961 
L 447.722403 -143.266115 
L 447.862936 -141.52527 
L 448.014504 -139.784424 
L 448.177082 -138.043578 
L 448.350859 -136.302732 
L 448.536272 -134.561886 
L 448.734029 -132.821041 
L 448.945127 -131.080195 
L 449.170868 -129.339349 
L 449.412862 -127.598503 
L 449.673026 -125.857657 
L 449.95357 -124.116811 
L 450.256978 -122.375966 
L 450.58598 -120.63512 
L 450.943506 -118.894274 
L 451.332642 -117.153428 
L 451.756569 -115.412582 
L 452.218495 -113.671736 
L 452.72158 -111.930891 
L 453.268857 -110.190045 
L 453.863139 -108.449199 
L 454.506936 -106.708353 
L 455.202354 -104.967507 
L 455.951008 -103.226662 
L 456.75393 -101.485816 
L 457.61148 -99.74497 
L 458.523273 -98.004124 
L 459.488102 -96.263278 
L 460.503884 -94.522432 
L 461.56761 -92.781587 
L 462.675322 -91.040741 
L 463.822093 -89.299895 
L 465.002036 -87.559049 
L 466.20833 -85.818203 
L 467.433263 -84.077357 
L 468.668298 -82.336512 
L 469.904161 -80.595666 
L 471.130942 -78.85482 
L 472.338218 -77.113974 
L 473.51519 -75.373128 
L 474.650837 -73.632283 
L 475.734072 -71.891437 
L 476.753916 -70.150591 
L 477.699668 -68.409745 
L 478.561078 -66.668899 
L 479.328519 -64.928053 
L 479.993147 -63.187208 
L 480.547053 -61.446362 
L 480.983401 -59.705516 
L 481.296547 -57.96467 
L 481.482139 -56.223824 
L 481.537194 -54.482978 
L 481.460149 -52.742133 
L 481.250887 -51.001287 
L 480.910742 -49.260441 
L 480.442469 -47.519595 
L 479.850194 -45.778749 
z
" id="mf8d34a328d" style="stroke:#999999;stroke-width:2;"/>
    </defs>
    <g clip-path="url(#pc7ad58c9b3)">
     <use style="fill:#ffffff;stroke:#999999;stroke-width:2;" x="0" xlink:href="#mf8d34a328d" y="246.509673"/>
    </g>
   </g>
   <g id="PathCollection_10"/>
   <g id="PathCollection_11"/>
   <g id="PathCollection_12"/>
   <g id="PathCollection_13"/>
   <g id="PathCollection_14"/>
   <g id="PathCollection_15"/>
   <g id="PathCollection_16"/>
   <g id="patch_6">
    <path d="M 275.668579 209.34811 
L 275.668579 19.77 
" style="fill:none;stroke:#262626;stroke-linecap:square;stroke-linejoin:miter;stroke-width:1.25;"/>
   </g>
   <g id="patch_7">
    <path d="M 275.668579 209.34811 
L 497.456689 209.34811 
" style="fill:none;stroke:#262626;stroke-linecap:square;stroke-linejoin:miter;stroke-width:1.25;"/>
   </g>
   <g id="PathCollection_17">
    <defs>
     <path d="M 0 2.5 
C 0.663008 2.5 1.29895 2.236584 1.767767 1.767767 
C 2.236584 1.29895 2.5 0.663008 2.5 -0 
C 2.5 -0.663008 2.236584 -1.29895 1.767767 -1.767767 
C 1.29895 -2.236584 0.663008 -2.5 0 -2.5 
C -0.663008 -2.5 -1.29895 -2.236584 -1.767767 -1.767767 
C -2.236584 -1.29895 -2.5 -0.663008 -2.5 0 
C -2.5 0.663008 -2.236584 1.29895 -1.767767 1.767767 
C -1.29895 2.236584 -0.663008 2.5 0 2.5 
z
" id="C2_0_d66f4fd425"/>
    </defs>
    <g clip-path="url(#pc7ad58c9b3)">
     <use style="fill:#4c72b0;fill-opacity:0.8;" x="325.94517" xlink:href="#C2_0_d66f4fd425" y="63.915711"/>
    </g>
    <g clip-path="url(#pc7ad58c9b3)">
     <use style="fill:#4c72b0;fill-opacity:0.8;" x="334.953606" xlink:href="#C2_0_d66f4fd425" y="61.48354"/>
    </g>
    <g clip-path="url(#pc7ad58c9b3)">
     <use style="fill:#4c72b0;fill-opacity:0.8;" x="325.640128" xlink:href="#C2_0_d66f4fd425" y="48.850942"/>
    </g>
    <g clip-path="url(#pc7ad58c9b3)">
     <use style="fill:#dd8452;fill-opacity:0.8;" x="339.795507" xlink:href="#C2_0_d66f4fd425" y="195.142427"/>
    </g>
    <g clip-path="url(#pc7ad58c9b3)">
     <use style="fill:#dd8452;fill-opacity:0.8;" x="335.448563" xlink:href="#C2_0_d66f4fd425" y="193.708115"/>
    </g>
    <g clip-path="url(#pc7ad58c9b3)">
     <use style="fill:#dd8452;fill-opacity:0.8;" x="329.868883" xlink:href="#C2_0_d66f4fd425" y="195.617376"/>
    </g>
    <g clip-path="url(#pc7ad58c9b3)">
     <use style="fill:#dd8452;fill-opacity:0.8;" x="320.333505" xlink:href="#C2_0_d66f4fd425" y="194.835385"/>
    </g>
    <g clip-path="url(#pc7ad58c9b3)">
     <use style="fill:#dd8452;fill-opacity:0.8;" x="334.649036" xlink:href="#C2_0_d66f4fd425" y="194.652341"/>
    </g>
    <g clip-path="url(#pc7ad58c9b3)">
     <use style="fill:#55a868;fill-opacity:0.8;" x="339.858221" xlink:href="#C2_0_d66f4fd425" y="190.965379"/>
    </g>
    <g clip-path="url(#pc7ad58c9b3)">
     <use style="fill:#55a868;fill-opacity:0.8;" x="323.876235" xlink:href="#C2_0_d66f4fd425" y="189.535013"/>
    </g>
    <g clip-path="url(#pc7ad58c9b3)">
     <use style="fill:#55a868;fill-opacity:0.8;" x="326.399589" xlink:href="#C2_0_d66f4fd425" y="192.88415"/>
    </g>
    <g clip-path="url(#pc7ad58c9b3)">
     <use style="fill:#55a868;fill-opacity:0.8;" x="340.36066" xlink:href="#C2_0_d66f4fd425" y="192.608221"/>
    </g>
    <g clip-path="url(#pc7ad58c9b3)">
     <use style="fill:#c44e52;fill-opacity:0.8;" x="329.451131" xlink:href="#C2_0_d66f4fd425" y="200.371024"/>
    </g>
    <g clip-path="url(#pc7ad58c9b3)">
     <use style="fill:#c44e52;fill-opacity:0.8;" x="333.764802" xlink:href="#C2_0_d66f4fd425" y="200.110033"/>
    </g>
    <g clip-path="url(#pc7ad58c9b3)">
     <use style="fill:#c44e52;fill-opacity:0.8;" x="337.941543" xlink:href="#C2_0_d66f4fd425" y="200.632423"/>
    </g>
    <g clip-path="url(#pc7ad58c9b3)">
     <use style="fill:#c44e52;fill-opacity:0.8;" x="331.920768" xlink:href="#C2_0_d66f4fd425" y="200.281077"/>
    </g>
    <g clip-path="url(#pc7ad58c9b3)">
     <use style="fill:#8172b3;fill-opacity:0.8;" x="323.027717" xlink:href="#C2_0_d66f4fd425" y="115.934932"/>
    </g>
    <g clip-path="url(#pc7ad58c9b3)">
     <use style="fill:#8172b3;fill-opacity:0.8;" x="336.816251" xlink:href="#C2_0_d66f4fd425" y="109.690172"/>
    </g>
    <g clip-path="url(#pc7ad58c9b3)">
     <use style="fill:#8172b3;fill-opacity:0.8;" x="339.443531" xlink:href="#C2_0_d66f4fd425" y="114.264174"/>
    </g>
    <g clip-path="url(#pc7ad58c9b3)">
     <use style="fill:#8172b3;fill-opacity:0.8;" x="330.244386" xlink:href="#C2_0_d66f4fd425" y="80.734373"/>
    </g>
    <g clip-path="url(#pc7ad58c9b3)">
     <use style="fill:#937860;fill-opacity:0.8;" x="324.212308" xlink:href="#C2_0_d66f4fd425" y="188.922691"/>
    </g>
    <g clip-path="url(#pc7ad58c9b3)">
     <use style="fill:#937860;fill-opacity:0.8;" x="322.170472" xlink:href="#C2_0_d66f4fd425" y="185.716234"/>
    </g>
    <g clip-path="url(#pc7ad58c9b3)">
     <use style="fill:#937860;fill-opacity:0.8;" x="339.614201" xlink:href="#C2_0_d66f4fd425" y="182.41521"/>
    </g>
    <g clip-path="url(#pc7ad58c9b3)">
     <use style="fill:#937860;fill-opacity:0.8;" x="337.835886" xlink:href="#C2_0_d66f4fd425" y="190.652385"/>
    </g>
    <g clip-path="url(#pc7ad58c9b3)">
     <use style="fill:#da8bc3;fill-opacity:0.8;" x="323.819307" xlink:href="#C2_0_d66f4fd425" y="185.349254"/>
    </g>
    <g clip-path="url(#pc7ad58c9b3)">
     <use style="fill:#da8bc3;fill-opacity:0.8;" x="329.04924" xlink:href="#C2_0_d66f4fd425" y="184.50632"/>
    </g>
    <g clip-path="url(#pc7ad58c9b3)">
     <use style="fill:#da8bc3;fill-opacity:0.8;" x="325.604759" xlink:href="#C2_0_d66f4fd425" y="185.676403"/>
    </g>
    <g clip-path="url(#pc7ad58c9b3)">
     <use style="fill:#da8bc3;fill-opacity:0.8;" x="340.071711" xlink:href="#C2_0_d66f4fd425" y="181.886893"/>
    </g>
   </g>
   <g id="PathCollection_18">
    <defs>
     <path d="M 0 2.5 
C 0.663008 2.5 1.29895 2.236584 1.767767 1.767767 
C 2.236584 1.29895 2.5 0.663008 2.5 -0 
C 2.5 -0.663008 2.236584 -1.29895 1.767767 -1.767767 
C 1.29895 -2.236584 0.663008 -2.5 0 -2.5 
C -0.663008 -2.5 -1.29895 -2.236584 -1.767767 -1.767767 
C -2.236584 -1.29895 -2.5 -0.663008 -2.5 0 
C -2.5 0.663008 -2.236584 1.29895 -1.767767 1.767767 
C -1.29895 2.236584 -0.663008 2.5 0 2.5 
z
" id="C3_0_b4fcb0df03"/>
    </defs>
    <g clip-path="url(#pc7ad58c9b3)">
     <use style="fill:#4c72b0;fill-opacity:0.8;" x="449.856593" xlink:href="#C3_0_b4fcb0df03" y="29.849686"/>
    </g>
    <g clip-path="url(#pc7ad58c9b3)">
     <use style="fill:#4c72b0;fill-opacity:0.8;" x="440.755335" xlink:href="#C3_0_b4fcb0df03" y="47.205572"/>
    </g>
    <g clip-path="url(#pc7ad58c9b3)">
     <use style="fill:#4c72b0;fill-opacity:0.8;" x="442.458219" xlink:href="#C3_0_b4fcb0df03" y="28.387187"/>
    </g>
    <g clip-path="url(#pc7ad58c9b3)">
     <use style="fill:#dd8452;fill-opacity:0.8;" x="433.374595" xlink:href="#C3_0_b4fcb0df03" y="195.077016"/>
    </g>
    <g clip-path="url(#pc7ad58c9b3)">
     <use style="fill:#dd8452;fill-opacity:0.8;" x="439.140263" xlink:href="#C3_0_b4fcb0df03" y="196.631974"/>
    </g>
    <g clip-path="url(#pc7ad58c9b3)">
     <use style="fill:#dd8452;fill-opacity:0.8;" x="447.208913" xlink:href="#C3_0_b4fcb0df03" y="195.867205"/>
    </g>
    <g clip-path="url(#pc7ad58c9b3)">
     <use style="fill:#dd8452;fill-opacity:0.8;" x="447.644887" xlink:href="#C3_0_b4fcb0df03" y="192.709583"/>
    </g>
    <g clip-path="url(#pc7ad58c9b3)">
     <use style="fill:#dd8452;fill-opacity:0.8;" x="431.401658" xlink:href="#C3_0_b4fcb0df03" y="192.500372"/>
    </g>
    <g clip-path="url(#pc7ad58c9b3)">
     <use style="fill:#55a868;fill-opacity:0.8;" x="438.430738" xlink:href="#C3_0_b4fcb0df03" y="192.633829"/>
    </g>
    <g clip-path="url(#pc7ad58c9b3)">
     <use style="fill:#55a868;fill-opacity:0.8;" x="438.031336" xlink:href="#C3_0_b4fcb0df03" y="193.684598"/>
    </g>
    <g clip-path="url(#pc7ad58c9b3)">
     <use style="fill:#55a868;fill-opacity:0.8;" x="449.549656" xlink:href="#C3_0_b4fcb0df03" y="193.196062"/>
    </g>
    <g clip-path="url(#pc7ad58c9b3)">
     <use style="fill:#55a868;fill-opacity:0.8;" x="447.104541" xlink:href="#C3_0_b4fcb0df03" y="194.738263"/>
    </g>
    <g clip-path="url(#pc7ad58c9b3)">
     <use style="fill:#c44e52;fill-opacity:0.8;" x="438.148301" xlink:href="#C3_0_b4fcb0df03" y="200.543681"/>
    </g>
    <g clip-path="url(#pc7ad58c9b3)">
     <use style="fill:#c44e52;fill-opacity:0.8;" x="452.627851" xlink:href="#C3_0_b4fcb0df03" y="200.730923"/>
    </g>
    <g clip-path="url(#pc7ad58c9b3)">
     <use style="fill:#c44e52;fill-opacity:0.8;" x="441.227592" xlink:href="#C3_0_b4fcb0df03" y="200.309102"/>
    </g>
    <g clip-path="url(#pc7ad58c9b3)">
     <use style="fill:#c44e52;fill-opacity:0.8;" x="438.509217" xlink:href="#C3_0_b4fcb0df03" y="200.549859"/>
    </g>
    <g clip-path="url(#pc7ad58c9b3)">
     <use style="fill:#8172b3;fill-opacity:0.8;" x="439.580095" xlink:href="#C3_0_b4fcb0df03" y="114.633543"/>
    </g>
    <g clip-path="url(#pc7ad58c9b3)">
     <use style="fill:#8172b3;fill-opacity:0.8;" x="447.138624" xlink:href="#C3_0_b4fcb0df03" y="133.794538"/>
    </g>
    <g clip-path="url(#pc7ad58c9b3)">
     <use style="fill:#8172b3;fill-opacity:0.8;" x="452.922853" xlink:href="#C3_0_b4fcb0df03" y="120.183118"/>
    </g>
    <g clip-path="url(#pc7ad58c9b3)">
     <use style="fill:#8172b3;fill-opacity:0.8;" x="444.55433" xlink:href="#C3_0_b4fcb0df03" y="55.053138"/>
    </g>
    <g clip-path="url(#pc7ad58c9b3)">
     <use style="fill:#937860;fill-opacity:0.8;" x="441.600702" xlink:href="#C3_0_b4fcb0df03" y="191.340626"/>
    </g>
    <g clip-path="url(#pc7ad58c9b3)">
     <use style="fill:#937860;fill-opacity:0.8;" x="441.438728" xlink:href="#C3_0_b4fcb0df03" y="189.91178"/>
    </g>
    <g clip-path="url(#pc7ad58c9b3)">
     <use style="fill:#937860;fill-opacity:0.8;" x="441.726937" xlink:href="#C3_0_b4fcb0df03" y="187.003676"/>
    </g>
    <g clip-path="url(#pc7ad58c9b3)">
     <use style="fill:#937860;fill-opacity:0.8;" x="437.302131" xlink:href="#C3_0_b4fcb0df03" y="179.947182"/>
    </g>
    <g clip-path="url(#pc7ad58c9b3)">
     <use style="fill:#da8bc3;fill-opacity:0.8;" x="436.381876" xlink:href="#C3_0_b4fcb0df03" y="185.620635"/>
    </g>
    <g clip-path="url(#pc7ad58c9b3)">
     <use style="fill:#da8bc3;fill-opacity:0.8;" x="452.747568" xlink:href="#C3_0_b4fcb0df03" y="188.003634"/>
    </g>
    <g clip-path="url(#pc7ad58c9b3)">
     <use style="fill:#da8bc3;fill-opacity:0.8;" x="442.418611" xlink:href="#C3_0_b4fcb0df03" y="183.932856"/>
    </g>
    <g clip-path="url(#pc7ad58c9b3)">
     <use style="fill:#da8bc3;fill-opacity:0.8;" x="439.933204" xlink:href="#C3_0_b4fcb0df03" y="187.644349"/>
    </g>
   </g>
   <g id="text_18">
    <!-- ATP11A, $p_{adj}$ = .860 -->
    <g style="fill:#262626;" transform="translate(275.668579 13.77)scale(0.09 -0.09)">
     <defs>
      <path d="M 52.828125 42.09375 
L 5.5625 42.09375 
L 5.5625 50.296875 
L 52.828125 50.296875 
z
M 52.828125 20.359375 
L 5.5625 20.359375 
L 5.5625 28.5625 
L 52.828125 28.5625 
z
" id="ArialMT-61"/>
      <path d="M 17.671875 38.8125 
Q 12.203125 40.828125 9.5625 44.53125 
Q 6.9375 48.25 6.9375 53.421875 
Q 6.9375 61.234375 12.546875 66.546875 
Q 18.171875 71.875 27.484375 71.875 
Q 36.859375 71.875 42.578125 66.421875 
Q 48.296875 60.984375 48.296875 53.171875 
Q 48.296875 48.1875 45.671875 44.5 
Q 43.0625 40.828125 37.75 38.8125 
Q 44.34375 36.671875 47.78125 31.875 
Q 51.21875 27.09375 51.21875 20.453125 
Q 51.21875 11.28125 44.71875 5.03125 
Q 38.234375 -1.21875 27.640625 -1.21875 
Q 17.046875 -1.21875 10.546875 5.046875 
Q 4.046875 11.328125 4.046875 20.703125 
Q 4.046875 27.6875 7.59375 32.390625 
Q 11.140625 37.109375 17.671875 38.8125 
z
M 15.921875 53.71875 
Q 15.921875 48.640625 19.1875 45.40625 
Q 22.46875 42.1875 27.6875 42.1875 
Q 32.765625 42.1875 36.015625 45.375 
Q 39.265625 48.578125 39.265625 53.21875 
Q 39.265625 58.0625 35.90625 61.359375 
Q 32.5625 64.65625 27.59375 64.65625 
Q 22.5625 64.65625 19.234375 61.421875 
Q 15.921875 58.203125 15.921875 53.71875 
z
M 13.09375 20.65625 
Q 13.09375 16.890625 14.875 13.375 
Q 16.65625 9.859375 20.171875 7.921875 
Q 23.6875 6 27.734375 6 
Q 34.03125 6 38.125 10.046875 
Q 42.234375 14.109375 42.234375 20.359375 
Q 42.234375 26.703125 38.015625 30.859375 
Q 33.796875 35.015625 27.4375 35.015625 
Q 21.234375 35.015625 17.15625 30.90625 
Q 13.09375 26.8125 13.09375 20.65625 
z
" id="ArialMT-56"/>
      <path d="M 49.75 54.046875 
L 41.015625 53.375 
Q 39.84375 58.546875 37.703125 60.890625 
Q 34.125 64.65625 28.90625 64.65625 
Q 24.703125 64.65625 21.53125 62.3125 
Q 17.390625 59.28125 14.984375 53.46875 
Q 12.59375 47.65625 12.5 36.921875 
Q 15.671875 41.75 20.265625 44.09375 
Q 24.859375 46.4375 29.890625 46.4375 
Q 38.671875 46.4375 44.84375 39.96875 
Q 51.03125 33.5 51.03125 23.25 
Q 51.03125 16.5 48.125 10.71875 
Q 45.21875 4.9375 40.140625 1.859375 
Q 35.0625 -1.21875 28.609375 -1.21875 
Q 17.625 -1.21875 10.6875 6.859375 
Q 3.765625 14.9375 3.765625 33.5 
Q 3.765625 54.25 11.421875 63.671875 
Q 18.109375 71.875 29.4375 71.875 
Q 37.890625 71.875 43.28125 67.140625 
Q 48.6875 62.40625 49.75 54.046875 
z
M 13.875 23.1875 
Q 13.875 18.65625 15.796875 14.5 
Q 17.71875 10.359375 21.1875 8.171875 
Q 24.65625 6 28.46875 6 
Q 34.03125 6 38.03125 10.484375 
Q 42.046875 14.984375 42.046875 22.703125 
Q 42.046875 30.125 38.078125 34.390625 
Q 34.125 38.671875 28.125 38.671875 
Q 22.171875 38.671875 18.015625 34.390625 
Q 13.875 30.125 13.875 23.1875 
z
" id="ArialMT-54"/>
     </defs>
     <use transform="translate(0 0.125)" xlink:href="#ArialMT-65"/>
     <use transform="translate(66.699219 0.125)" xlink:href="#ArialMT-84"/>
     <use transform="translate(127.783203 0.125)" xlink:href="#ArialMT-80"/>
     <use transform="translate(194.482422 0.125)" xlink:href="#ArialMT-49"/>
     <use transform="translate(250.097656 0.125)" xlink:href="#ArialMT-49"/>
     <use transform="translate(305.712891 0.125)" xlink:href="#ArialMT-65"/>
     <use transform="translate(372.412109 0.125)" xlink:href="#ArialMT-44"/>
     <use transform="translate(400.195312 0.125)" xlink:href="#ArialMT-32"/>
     <use transform="translate(427.978516 0.125)" xlink:href="#DejaVuSans-Oblique-112"/>
     <use transform="translate(491.455078 -16.28125)scale(0.7)" xlink:href="#DejaVuSans-Oblique-97"/>
     <use transform="translate(534.350586 -16.28125)scale(0.7)" xlink:href="#DejaVuSans-Oblique-100"/>
     <use transform="translate(578.78418 -16.28125)scale(0.7)" xlink:href="#DejaVuSans-Oblique-106"/>
     <use transform="translate(600.966797 0.125)" xlink:href="#ArialMT-32"/>
     <use transform="translate(628.75 0.125)" xlink:href="#ArialMT-61"/>
     <use transform="translate(687.148438 0.125)" xlink:href="#ArialMT-32"/>
     <use transform="translate(714.931641 0.125)" xlink:href="#ArialMT-46"/>
     <use transform="translate(742.714844 0.125)" xlink:href="#ArialMT-56"/>
     <use transform="translate(798.330078 0.125)" xlink:href="#ArialMT-54"/>
     <use transform="translate(853.945312 0.125)" xlink:href="#ArialMT-48"/>
    </g>
   </g>
  </g>
  <g id="legend_1">
   <g id="patch_8">
    <path d="M 508.08578 175.28218 
L 551.900311 175.28218 
Q 553.700311 175.28218 553.700311 173.48218 
L 553.700311 72.53593 
Q 553.700311 70.73593 551.900311 70.73593 
L 508.08578 70.73593 
Q 506.28578 70.73593 506.28578 72.53593 
L 506.28578 173.48218 
Q 506.28578 175.28218 508.08578 175.28218 
z
" style="fill:#ffffff;opacity:0.8;stroke:#cccccc;stroke-linejoin:miter;"/>
   </g>
   <g id="text_19">
    <!-- Patient -->
    <g style="fill:#262626;" transform="translate(515.983983 80.777961)scale(0.09 -0.09)">
     <use xlink:href="#ArialMT-80"/>
     <use x="66.699219" xlink:href="#ArialMT-97"/>
     <use x="122.314453" xlink:href="#ArialMT-116"/>
     <use x="150.097656" xlink:href="#ArialMT-105"/>
     <use x="172.314453" xlink:href="#ArialMT-101"/>
     <use x="227.929688" xlink:href="#ArialMT-110"/>
     <use x="283.544922" xlink:href="#ArialMT-116"/>
    </g>
   </g>
   <g id="PathCollection_19">
    <defs>
     <path d="M 0 3.872983 
C 1.027127 3.872983 2.012324 3.464901 2.738613 2.738613 
C 3.464901 2.012324 3.872983 1.027127 3.872983 0 
C 3.872983 -1.027127 3.464901 -2.012324 2.738613 -2.738613 
C 2.012324 -3.464901 1.027127 -3.872983 0 -3.872983 
C -1.027127 -3.872983 -2.012324 -3.464901 -2.738613 -2.738613 
C -3.464901 -2.012324 -3.872983 -1.027127 -3.872983 0 
C -3.872983 1.027127 -3.464901 2.012324 -2.738613 2.738613 
C -2.012324 3.464901 -1.027127 3.872983 0 3.872983 
z
" id="m526798a51d" style="stroke:#4c72b0;"/>
    </defs>
    <g>
     <use style="fill:#4c72b0;stroke:#4c72b0;" x="518.88578" xlink:href="#m526798a51d" y="91.146243"/>
    </g>
   </g>
   <g id="text_20">
    <!-- 5 -->
    <g style="fill:#262626;" transform="translate(535.08578 93.508743)scale(0.09 -0.09)">
     <use xlink:href="#ArialMT-53"/>
    </g>
   </g>
   <g id="PathCollection_20">
    <defs>
     <path d="M 0 3.872983 
C 1.027127 3.872983 2.012324 3.464901 2.738613 2.738613 
C 3.464901 2.012324 3.872983 1.027127 3.872983 0 
C 3.872983 -1.027127 3.464901 -2.012324 2.738613 -2.738613 
C 2.012324 -3.464901 1.027127 -3.872983 0 -3.872983 
C -1.027127 -3.872983 -2.012324 -3.464901 -2.738613 -2.738613 
C -3.464901 -2.012324 -3.872983 -1.027127 -3.872983 0 
C -3.872983 1.027127 -3.464901 2.012324 -2.738613 2.738613 
C -2.012324 3.464901 -1.027127 3.872983 0 3.872983 
z
" id="m369ef6a926" style="stroke:#dd8452;"/>
    </defs>
    <g>
     <use style="fill:#dd8452;stroke:#dd8452;" x="518.88578" xlink:href="#m369ef6a926" y="103.877024"/>
    </g>
   </g>
   <g id="text_21">
    <!-- 15 -->
    <g style="fill:#262626;" transform="translate(535.08578 106.239524)scale(0.09 -0.09)">
     <use xlink:href="#ArialMT-49"/>
     <use x="55.615234" xlink:href="#ArialMT-53"/>
    </g>
   </g>
   <g id="PathCollection_21">
    <defs>
     <path d="M 0 3.872983 
C 1.027127 3.872983 2.012324 3.464901 2.738613 2.738613 
C 3.464901 2.012324 3.872983 1.027127 3.872983 0 
C 3.872983 -1.027127 3.464901 -2.012324 2.738613 -2.738613 
C 2.012324 -3.464901 1.027127 -3.872983 0 -3.872983 
C -1.027127 -3.872983 -2.012324 -3.464901 -2.738613 -2.738613 
C -3.464901 -2.012324 -3.872983 -1.027127 -3.872983 0 
C -3.872983 1.027127 -3.464901 2.012324 -2.738613 2.738613 
C -2.012324 3.464901 -1.027127 3.872983 0 3.872983 
z
" id="m79ff350950" style="stroke:#55a868;"/>
    </defs>
    <g>
     <use style="fill:#55a868;stroke:#55a868;" x="518.88578" xlink:href="#m79ff350950" y="116.607805"/>
    </g>
   </g>
   <g id="text_22">
    <!-- 17 -->
    <g style="fill:#262626;" transform="translate(535.08578 118.970305)scale(0.09 -0.09)">
     <use xlink:href="#ArialMT-49"/>
     <use x="55.615234" xlink:href="#ArialMT-55"/>
    </g>
   </g>
   <g id="PathCollection_22">
    <defs>
     <path d="M 0 3.872983 
C 1.027127 3.872983 2.012324 3.464901 2.738613 2.738613 
C 3.464901 2.012324 3.872983 1.027127 3.872983 0 
C 3.872983 -1.027127 3.464901 -2.012324 2.738613 -2.738613 
C 2.012324 -3.464901 1.027127 -3.872983 0 -3.872983 
C -1.027127 -3.872983 -2.012324 -3.464901 -2.738613 -2.738613 
C -3.464901 -2.012324 -3.872983 -1.027127 -3.872983 0 
C -3.872983 1.027127 -3.464901 2.012324 -2.738613 2.738613 
C -2.012324 3.464901 -1.027127 3.872983 0 3.872983 
z
" id="mc74478f0c5" style="stroke:#c44e52;"/>
    </defs>
    <g>
     <use style="fill:#c44e52;stroke:#c44e52;" x="518.88578" xlink:href="#mc74478f0c5" y="129.338586"/>
    </g>
   </g>
   <g id="text_23">
    <!-- 49 -->
    <g style="fill:#262626;" transform="translate(535.08578 131.701086)scale(0.09 -0.09)">
     <defs>
      <path d="M 32.328125 0 
L 32.328125 17.140625 
L 1.265625 17.140625 
L 1.265625 25.203125 
L 33.9375 71.578125 
L 41.109375 71.578125 
L 41.109375 25.203125 
L 50.78125 25.203125 
L 50.78125 17.140625 
L 41.109375 17.140625 
L 41.109375 0 
z
M 32.328125 25.203125 
L 32.328125 57.46875 
L 9.90625 25.203125 
z
" id="ArialMT-52"/>
      <path d="M 5.46875 16.546875 
L 13.921875 17.328125 
Q 14.984375 11.375 18.015625 8.6875 
Q 21.046875 6 25.78125 6 
Q 29.828125 6 32.875 7.859375 
Q 35.9375 9.71875 37.890625 12.8125 
Q 39.84375 15.921875 41.15625 21.1875 
Q 42.484375 26.46875 42.484375 31.9375 
Q 42.484375 32.515625 42.4375 33.6875 
Q 39.796875 29.5 35.234375 26.875 
Q 30.671875 24.265625 25.34375 24.265625 
Q 16.453125 24.265625 10.296875 30.703125 
Q 4.15625 37.15625 4.15625 47.703125 
Q 4.15625 58.59375 10.578125 65.234375 
Q 17 71.875 26.65625 71.875 
Q 33.640625 71.875 39.421875 68.109375 
Q 45.21875 64.359375 48.21875 57.390625 
Q 51.21875 50.4375 51.21875 37.25 
Q 51.21875 23.53125 48.234375 15.40625 
Q 45.265625 7.28125 39.375 3.03125 
Q 33.5 -1.21875 25.59375 -1.21875 
Q 17.1875 -1.21875 11.859375 3.4375 
Q 6.546875 8.109375 5.46875 16.546875 
z
M 41.453125 48.140625 
Q 41.453125 55.71875 37.421875 60.15625 
Q 33.40625 64.59375 27.734375 64.59375 
Q 21.875 64.59375 17.53125 59.8125 
Q 13.1875 55.03125 13.1875 47.40625 
Q 13.1875 40.578125 17.3125 36.296875 
Q 21.4375 32.03125 27.484375 32.03125 
Q 33.59375 32.03125 37.515625 36.296875 
Q 41.453125 40.578125 41.453125 48.140625 
z
" id="ArialMT-57"/>
     </defs>
     <use xlink:href="#ArialMT-52"/>
     <use x="55.615234" xlink:href="#ArialMT-57"/>
    </g>
   </g>
   <g id="PathCollection_23">
    <defs>
     <path d="M 0 3.872983 
C 1.027127 3.872983 2.012324 3.464901 2.738613 2.738613 
C 3.464901 2.012324 3.872983 1.027127 3.872983 0 
C 3.872983 -1.027127 3.464901 -2.012324 2.738613 -2.738613 
C 2.012324 -3.464901 1.027127 -3.872983 0 -3.872983 
C -1.027127 -3.872983 -2.012324 -3.464901 -2.738613 -2.738613 
C -3.464901 -2.012324 -3.872983 -1.027127 -3.872983 0 
C -3.872983 1.027127 -3.464901 2.012324 -2.738613 2.738613 
C -2.012324 3.464901 -1.027127 3.872983 0 3.872983 
z
" id="mc27257e6d9" style="stroke:#8172b3;"/>
    </defs>
    <g>
     <use style="fill:#8172b3;stroke:#8172b3;" x="518.88578" xlink:href="#mc27257e6d9" y="142.069368"/>
    </g>
   </g>
   <g id="text_24">
    <!-- 62 -->
    <g style="fill:#262626;" transform="translate(535.08578 144.431868)scale(0.09 -0.09)">
     <use xlink:href="#ArialMT-54"/>
     <use x="55.615234" xlink:href="#ArialMT-50"/>
    </g>
   </g>
   <g id="PathCollection_24">
    <defs>
     <path d="M 0 3.872983 
C 1.027127 3.872983 2.012324 3.464901 2.738613 2.738613 
C 3.464901 2.012324 3.872983 1.027127 3.872983 0 
C 3.872983 -1.027127 3.464901 -2.012324 2.738613 -2.738613 
C 2.012324 -3.464901 1.027127 -3.872983 0 -3.872983 
C -1.027127 -3.872983 -2.012324 -3.464901 -2.738613 -2.738613 
C -3.464901 -2.012324 -3.872983 -1.027127 -3.872983 0 
C -3.872983 1.027127 -3.464901 2.012324 -2.738613 2.738613 
C -2.012324 3.464901 -1.027127 3.872983 0 3.872983 
z
" id="m3c51fbcab7" style="stroke:#937860;"/>
    </defs>
    <g>
     <use style="fill:#937860;stroke:#937860;" x="518.88578" xlink:href="#m3c51fbcab7" y="154.800149"/>
    </g>
   </g>
   <g id="text_25">
    <!-- 69 -->
    <g style="fill:#262626;" transform="translate(535.08578 157.162649)scale(0.09 -0.09)">
     <use xlink:href="#ArialMT-54"/>
     <use x="55.615234" xlink:href="#ArialMT-57"/>
    </g>
   </g>
   <g id="PathCollection_25">
    <defs>
     <path d="M 0 3.872983 
C 1.027127 3.872983 2.012324 3.464901 2.738613 2.738613 
C 3.464901 2.012324 3.872983 1.027127 3.872983 0 
C 3.872983 -1.027127 3.464901 -2.012324 2.738613 -2.738613 
C 2.012324 -3.464901 1.027127 -3.872983 0 -3.872983 
C -1.027127 -3.872983 -2.012324 -3.464901 -2.738613 -2.738613 
C -3.464901 -2.012324 -3.872983 -1.027127 -3.872983 0 
C -3.872983 1.027127 -3.464901 2.012324 -2.738613 2.738613 
C -2.012324 3.464901 -1.027127 3.872983 0 3.872983 
z
" id="m4a8b24cba1" style="stroke:#da8bc3;"/>
    </defs>
    <g>
     <use style="fill:#da8bc3;stroke:#da8bc3;" x="518.88578" xlink:href="#m4a8b24cba1" y="167.53093"/>
    </g>
   </g>
   <g id="text_26">
    <!-- 126 -->
    <g style="fill:#262626;" transform="translate(535.08578 169.89343)scale(0.09 -0.09)">
     <use xlink:href="#ArialMT-49"/>
     <use x="55.615234" xlink:href="#ArialMT-50"/>
     <use x="111.230469" xlink:href="#ArialMT-54"/>
    </g>
   </g>
  </g>
 </g>
 <defs>
  <clipPath id="p4cc2fcd68c">
   <rect height="189.57811" width="221.78811" x="44.160469" y="19.77"/>
  </clipPath>
  <clipPath id="pc7ad58c9b3">
   <rect height="189.57811" width="221.78811" x="275.668579" y="19.77"/>
  </clipPath>
 </defs>
</svg>
