<?xml version="1.0" encoding="utf-8" standalone="no"?>
<!DOCTYPE svg PUBLIC "-//W3C//DTD SVG 1.1//EN"
  "http://www.w3.org/Graphics/SVG/1.1/DTD/svg11.dtd">
<svg xmlns:xlink="http://www.w3.org/1999/xlink" width="510.23622pt" height="255.11811pt" viewBox="0 0 510.23622 255.11811" xmlns="http://www.w3.org/2000/svg" version="1.1">
 <metadata>
  <rdf:RDF xmlns:dc="http://purl.org/dc/elements/1.1/" xmlns:cc="http://creativecommons.org/ns#" xmlns:rdf="http://www.w3.org/1999/02/22-rdf-syntax-ns#">
   <cc:Work>
    <dc:type rdf:resource="http://purl.org/dc/dcmitype/StillImage"/>
    <dc:date>2022-04-27T00:19:01.503669</dc:date>
    <dc:format>image/svg+xml</dc:format>
    <dc:creator>
     <cc:Agent>
      <dc:title>Matplotlib v3.5.1, https://matplotlib.org/</dc:title>
     </cc:Agent>
    </dc:creator>
   </cc:Work>
  </rdf:RDF>
 </metadata>
 <defs>
  <style type="text/css">*{stroke-linejoin: round; stroke-linecap: butt}</style>
 </defs>
 <g id="figure_1">
  <g id="patch_1">
   <path d="M 0 255.11811 
L 510.23622 255.11811 
L 510.23622 0 
L 0 0 
z
" style="fill: #ffffff"/>
  </g>
  <g id="axes_1">
   <g id="patch_2">
    <path d="M 47.22 213.89811 
L 500.51622 213.89811 
L 500.51622 24.32 
L 47.22 24.32 
z
" style="fill: #ffffff"/>
   </g>
   <g id="matplotlib.axis_1">
    <g id="xtick_1">
     <g id="text_1">
      <!-- 49 -->
      <g style="fill: #444444" transform="translate(74.593458 229.840141)scale(0.09 -0.09)">
       <defs>
        <path id="ArialMT-34" d="M 2069 0 
L 2069 1097 
L 81 1097 
L 81 1613 
L 2172 4581 
L 2631 4581 
L 2631 1613 
L 3250 1613 
L 3250 1097 
L 2631 1097 
L 2631 0 
L 2069 0 
z
M 2069 1613 
L 2069 3678 
L 634 1613 
L 2069 1613 
z
" transform="scale(0.015625)"/>
        <path id="ArialMT-39" d="M 350 1059 
L 891 1109 
Q 959 728 1153 556 
Q 1347 384 1650 384 
Q 1909 384 2104 503 
Q 2300 622 2425 820 
Q 2550 1019 2634 1356 
Q 2719 1694 2719 2044 
Q 2719 2081 2716 2156 
Q 2547 1888 2255 1720 
Q 1963 1553 1622 1553 
Q 1053 1553 659 1965 
Q 266 2378 266 3053 
Q 266 3750 677 4175 
Q 1088 4600 1706 4600 
Q 2153 4600 2523 4359 
Q 2894 4119 3086 3673 
Q 3278 3228 3278 2384 
Q 3278 1506 3087 986 
Q 2897 466 2520 194 
Q 2144 -78 1638 -78 
Q 1100 -78 759 220 
Q 419 519 350 1059 
z
M 2653 3081 
Q 2653 3566 2395 3850 
Q 2138 4134 1775 4134 
Q 1400 4134 1122 3828 
Q 844 3522 844 3034 
Q 844 2597 1108 2323 
Q 1372 2050 1759 2050 
Q 2150 2050 2401 2323 
Q 2653 2597 2653 3081 
z
" transform="scale(0.015625)"/>
       </defs>
       <use xlink:href="#ArialMT-34"/>
       <use xlink:href="#ArialMT-39" x="55.615234"/>
      </g>
     </g>
    </g>
    <g id="xtick_2">
     <g id="text_2">
      <!-- 17 -->
      <g style="fill: #444444" transform="translate(139.350061 229.840141)scale(0.09 -0.09)">
       <defs>
        <path id="ArialMT-31" d="M 2384 0 
L 1822 0 
L 1822 3584 
Q 1619 3391 1289 3197 
Q 959 3003 697 2906 
L 697 3450 
Q 1169 3672 1522 3987 
Q 1875 4303 2022 4600 
L 2384 4600 
L 2384 0 
z
" transform="scale(0.015625)"/>
        <path id="ArialMT-37" d="M 303 3981 
L 303 4522 
L 3269 4522 
L 3269 4084 
Q 2831 3619 2401 2847 
Q 1972 2075 1738 1259 
Q 1569 684 1522 0 
L 944 0 
Q 953 541 1156 1306 
Q 1359 2072 1739 2783 
Q 2119 3494 2547 3981 
L 303 3981 
z
" transform="scale(0.015625)"/>
       </defs>
       <use xlink:href="#ArialMT-31"/>
       <use xlink:href="#ArialMT-37" x="55.615234"/>
      </g>
     </g>
    </g>
    <g id="xtick_3">
     <g id="text_3">
      <!-- 69 -->
      <g style="fill: #444444" transform="translate(204.106664 229.840141)scale(0.09 -0.09)">
       <defs>
        <path id="ArialMT-36" d="M 3184 3459 
L 2625 3416 
Q 2550 3747 2413 3897 
Q 2184 4138 1850 4138 
Q 1581 4138 1378 3988 
Q 1113 3794 959 3422 
Q 806 3050 800 2363 
Q 1003 2672 1297 2822 
Q 1591 2972 1913 2972 
Q 2475 2972 2870 2558 
Q 3266 2144 3266 1488 
Q 3266 1056 3080 686 
Q 2894 316 2569 119 
Q 2244 -78 1831 -78 
Q 1128 -78 684 439 
Q 241 956 241 2144 
Q 241 3472 731 4075 
Q 1159 4600 1884 4600 
Q 2425 4600 2770 4297 
Q 3116 3994 3184 3459 
z
M 888 1484 
Q 888 1194 1011 928 
Q 1134 663 1356 523 
Q 1578 384 1822 384 
Q 2178 384 2434 671 
Q 2691 959 2691 1453 
Q 2691 1928 2437 2201 
Q 2184 2475 1800 2475 
Q 1419 2475 1153 2201 
Q 888 1928 888 1484 
z
" transform="scale(0.015625)"/>
       </defs>
       <use xlink:href="#ArialMT-36"/>
       <use xlink:href="#ArialMT-39" x="55.615234"/>
      </g>
     </g>
    </g>
    <g id="xtick_4">
     <g id="text_4">
      <!-- 15 -->
      <g style="fill: #444444" transform="translate(268.863266 229.840141)scale(0.09 -0.09)">
       <defs>
        <path id="ArialMT-35" d="M 266 1200 
L 856 1250 
Q 922 819 1161 601 
Q 1400 384 1738 384 
Q 2144 384 2425 690 
Q 2706 997 2706 1503 
Q 2706 1984 2436 2262 
Q 2166 2541 1728 2541 
Q 1456 2541 1237 2417 
Q 1019 2294 894 2097 
L 366 2166 
L 809 4519 
L 3088 4519 
L 3088 3981 
L 1259 3981 
L 1013 2750 
Q 1425 3038 1878 3038 
Q 2478 3038 2890 2622 
Q 3303 2206 3303 1553 
Q 3303 931 2941 478 
Q 2500 -78 1738 -78 
Q 1113 -78 717 272 
Q 322 622 266 1200 
z
" transform="scale(0.015625)"/>
       </defs>
       <use xlink:href="#ArialMT-31"/>
       <use xlink:href="#ArialMT-35" x="55.615234"/>
      </g>
     </g>
    </g>
    <g id="xtick_5">
     <g id="text_5">
      <!-- 5 -->
      <g style="fill: #444444" transform="translate(336.122291 229.840141)scale(0.09 -0.09)">
       <use xlink:href="#ArialMT-35"/>
      </g>
     </g>
    </g>
    <g id="xtick_6">
     <g id="text_6">
      <!-- 126 -->
      <g style="fill: #444444" transform="translate(395.87405 229.840141)scale(0.09 -0.09)">
       <defs>
        <path id="ArialMT-32" d="M 3222 541 
L 3222 0 
L 194 0 
Q 188 203 259 391 
Q 375 700 629 1000 
Q 884 1300 1366 1694 
Q 2113 2306 2375 2664 
Q 2638 3022 2638 3341 
Q 2638 3675 2398 3904 
Q 2159 4134 1775 4134 
Q 1369 4134 1125 3890 
Q 881 3647 878 3216 
L 300 3275 
Q 359 3922 746 4261 
Q 1134 4600 1788 4600 
Q 2447 4600 2831 4234 
Q 3216 3869 3216 3328 
Q 3216 3053 3103 2787 
Q 2991 2522 2730 2228 
Q 2469 1934 1863 1422 
Q 1356 997 1212 845 
Q 1069 694 975 541 
L 3222 541 
z
" transform="scale(0.015625)"/>
       </defs>
       <use xlink:href="#ArialMT-31"/>
       <use xlink:href="#ArialMT-32" x="55.615234"/>
       <use xlink:href="#ArialMT-36" x="111.230469"/>
      </g>
     </g>
    </g>
    <g id="xtick_7">
     <g id="text_7">
      <!-- 62 -->
      <g style="fill: #444444" transform="translate(463.133075 229.840141)scale(0.09 -0.09)">
       <use xlink:href="#ArialMT-36"/>
       <use xlink:href="#ArialMT-32" x="55.615234"/>
      </g>
     </g>
    </g>
    <g id="text_8">
     <!-- Patient -->
     <g style="fill: #444444" transform="translate(259.859048 242.070923)scale(0.09 -0.09)">
      <defs>
       <path id="ArialMT-50" d="M 494 0 
L 494 4581 
L 2222 4581 
Q 2678 4581 2919 4538 
Q 3256 4481 3484 4323 
Q 3713 4166 3852 3881 
Q 3991 3597 3991 3256 
Q 3991 2672 3619 2267 
Q 3247 1863 2275 1863 
L 1100 1863 
L 1100 0 
L 494 0 
z
M 1100 2403 
L 2284 2403 
Q 2872 2403 3119 2622 
Q 3366 2841 3366 3238 
Q 3366 3525 3220 3729 
Q 3075 3934 2838 4000 
Q 2684 4041 2272 4041 
L 1100 4041 
L 1100 2403 
z
" transform="scale(0.015625)"/>
       <path id="ArialMT-61" d="M 2588 409 
Q 2275 144 1986 34 
Q 1697 -75 1366 -75 
Q 819 -75 525 192 
Q 231 459 231 875 
Q 231 1119 342 1320 
Q 453 1522 633 1644 
Q 813 1766 1038 1828 
Q 1203 1872 1538 1913 
Q 2219 1994 2541 2106 
Q 2544 2222 2544 2253 
Q 2544 2597 2384 2738 
Q 2169 2928 1744 2928 
Q 1347 2928 1158 2789 
Q 969 2650 878 2297 
L 328 2372 
Q 403 2725 575 2942 
Q 747 3159 1072 3276 
Q 1397 3394 1825 3394 
Q 2250 3394 2515 3294 
Q 2781 3194 2906 3042 
Q 3031 2891 3081 2659 
Q 3109 2516 3109 2141 
L 3109 1391 
Q 3109 606 3145 398 
Q 3181 191 3288 0 
L 2700 0 
Q 2613 175 2588 409 
z
M 2541 1666 
Q 2234 1541 1622 1453 
Q 1275 1403 1131 1340 
Q 988 1278 909 1158 
Q 831 1038 831 891 
Q 831 666 1001 516 
Q 1172 366 1500 366 
Q 1825 366 2078 508 
Q 2331 650 2450 897 
Q 2541 1088 2541 1459 
L 2541 1666 
z
" transform="scale(0.015625)"/>
       <path id="ArialMT-74" d="M 1650 503 
L 1731 6 
Q 1494 -44 1306 -44 
Q 1000 -44 831 53 
Q 663 150 594 308 
Q 525 466 525 972 
L 525 2881 
L 113 2881 
L 113 3319 
L 525 3319 
L 525 4141 
L 1084 4478 
L 1084 3319 
L 1650 3319 
L 1650 2881 
L 1084 2881 
L 1084 941 
Q 1084 700 1114 631 
Q 1144 563 1211 522 
Q 1278 481 1403 481 
Q 1497 481 1650 503 
z
" transform="scale(0.015625)"/>
       <path id="ArialMT-69" d="M 425 3934 
L 425 4581 
L 988 4581 
L 988 3934 
L 425 3934 
z
M 425 0 
L 425 3319 
L 988 3319 
L 988 0 
L 425 0 
z
" transform="scale(0.015625)"/>
       <path id="ArialMT-65" d="M 2694 1069 
L 3275 997 
Q 3138 488 2766 206 
Q 2394 -75 1816 -75 
Q 1088 -75 661 373 
Q 234 822 234 1631 
Q 234 2469 665 2931 
Q 1097 3394 1784 3394 
Q 2450 3394 2872 2941 
Q 3294 2488 3294 1666 
Q 3294 1616 3291 1516 
L 816 1516 
Q 847 969 1125 678 
Q 1403 388 1819 388 
Q 2128 388 2347 550 
Q 2566 713 2694 1069 
z
M 847 1978 
L 2700 1978 
Q 2663 2397 2488 2606 
Q 2219 2931 1791 2931 
Q 1403 2931 1139 2672 
Q 875 2413 847 1978 
z
" transform="scale(0.015625)"/>
       <path id="ArialMT-6e" d="M 422 0 
L 422 3319 
L 928 3319 
L 928 2847 
Q 1294 3394 1984 3394 
Q 2284 3394 2536 3286 
Q 2788 3178 2913 3003 
Q 3038 2828 3088 2588 
Q 3119 2431 3119 2041 
L 3119 0 
L 2556 0 
L 2556 2019 
Q 2556 2363 2490 2533 
Q 2425 2703 2258 2804 
Q 2091 2906 1866 2906 
Q 1506 2906 1245 2678 
Q 984 2450 984 1813 
L 984 0 
L 422 0 
z
" transform="scale(0.015625)"/>
      </defs>
      <use xlink:href="#ArialMT-50"/>
      <use xlink:href="#ArialMT-61" x="66.699219"/>
      <use xlink:href="#ArialMT-74" x="122.314453"/>
      <use xlink:href="#ArialMT-69" x="150.097656"/>
      <use xlink:href="#ArialMT-65" x="172.314453"/>
      <use xlink:href="#ArialMT-6e" x="227.929688"/>
      <use xlink:href="#ArialMT-74" x="283.544922"/>
     </g>
    </g>
   </g>
   <g id="matplotlib.axis_2">
    <g id="ytick_1">
     <g id="text_9">
      <!-- 20 -->
      <g style="fill: #444444" transform="translate(27.710313 215.515136)scale(0.09 -0.09)">
       <defs>
        <path id="ArialMT-30" d="M 266 2259 
Q 266 3072 433 3567 
Q 600 4063 929 4331 
Q 1259 4600 1759 4600 
Q 2128 4600 2406 4451 
Q 2684 4303 2865 4023 
Q 3047 3744 3150 3342 
Q 3253 2941 3253 2259 
Q 3253 1453 3087 958 
Q 2922 463 2592 192 
Q 2263 -78 1759 -78 
Q 1097 -78 719 397 
Q 266 969 266 2259 
z
M 844 2259 
Q 844 1131 1108 757 
Q 1372 384 1759 384 
Q 2147 384 2411 759 
Q 2675 1134 2675 2259 
Q 2675 3391 2411 3762 
Q 2147 4134 1753 4134 
Q 1366 4134 1134 3806 
Q 844 3388 844 2259 
z
" transform="scale(0.015625)"/>
       </defs>
       <use xlink:href="#ArialMT-32"/>
       <use xlink:href="#ArialMT-30" x="55.615234"/>
      </g>
     </g>
    </g>
    <g id="ytick_2">
     <g id="text_10">
      <!-- 40 -->
      <g style="fill: #444444" transform="translate(27.710313 189.524928)scale(0.09 -0.09)">
       <use xlink:href="#ArialMT-34"/>
       <use xlink:href="#ArialMT-30" x="55.615234"/>
      </g>
     </g>
    </g>
    <g id="ytick_3">
     <g id="text_11">
      <!-- 60 -->
      <g style="fill: #444444" transform="translate(27.710313 163.53472)scale(0.09 -0.09)">
       <use xlink:href="#ArialMT-36"/>
       <use xlink:href="#ArialMT-30" x="55.615234"/>
      </g>
     </g>
    </g>
    <g id="ytick_4">
     <g id="text_12">
      <!-- 80 -->
      <g style="fill: #444444" transform="translate(27.710313 137.544512)scale(0.09 -0.09)">
       <defs>
        <path id="ArialMT-38" d="M 1131 2484 
Q 781 2613 612 2850 
Q 444 3088 444 3419 
Q 444 3919 803 4259 
Q 1163 4600 1759 4600 
Q 2359 4600 2725 4251 
Q 3091 3903 3091 3403 
Q 3091 3084 2923 2848 
Q 2756 2613 2416 2484 
Q 2838 2347 3058 2040 
Q 3278 1734 3278 1309 
Q 3278 722 2862 322 
Q 2447 -78 1769 -78 
Q 1091 -78 675 323 
Q 259 725 259 1325 
Q 259 1772 486 2073 
Q 713 2375 1131 2484 
z
M 1019 3438 
Q 1019 3113 1228 2906 
Q 1438 2700 1772 2700 
Q 2097 2700 2305 2904 
Q 2513 3109 2513 3406 
Q 2513 3716 2298 3927 
Q 2084 4138 1766 4138 
Q 1444 4138 1231 3931 
Q 1019 3725 1019 3438 
z
M 838 1322 
Q 838 1081 952 856 
Q 1066 631 1291 507 
Q 1516 384 1775 384 
Q 2178 384 2440 643 
Q 2703 903 2703 1303 
Q 2703 1709 2433 1975 
Q 2163 2241 1756 2241 
Q 1359 2241 1098 1978 
Q 838 1716 838 1322 
z
" transform="scale(0.015625)"/>
       </defs>
       <use xlink:href="#ArialMT-38"/>
       <use xlink:href="#ArialMT-30" x="55.615234"/>
      </g>
     </g>
    </g>
    <g id="ytick_5">
     <g id="text_13">
      <!-- 100 -->
      <g style="fill: #444444" transform="translate(22.705469 111.554304)scale(0.09 -0.09)">
       <use xlink:href="#ArialMT-31"/>
       <use xlink:href="#ArialMT-30" x="55.615234"/>
       <use xlink:href="#ArialMT-30" x="111.230469"/>
      </g>
     </g>
    </g>
    <g id="ytick_6">
     <g id="text_14">
      <!-- 120 -->
      <g style="fill: #444444" transform="translate(22.705469 85.564096)scale(0.09 -0.09)">
       <use xlink:href="#ArialMT-31"/>
       <use xlink:href="#ArialMT-32" x="55.615234"/>
       <use xlink:href="#ArialMT-30" x="111.230469"/>
      </g>
     </g>
    </g>
    <g id="ytick_7">
     <g id="text_15">
      <!-- 140 -->
      <g style="fill: #444444" transform="translate(22.705469 59.573888)scale(0.09 -0.09)">
       <use xlink:href="#ArialMT-31"/>
       <use xlink:href="#ArialMT-34" x="55.615234"/>
       <use xlink:href="#ArialMT-30" x="111.230469"/>
      </g>
     </g>
    </g>
    <g id="ytick_8">
     <g id="text_16">
      <!-- 160 -->
      <g style="fill: #444444" transform="translate(22.705469 33.58368)scale(0.09 -0.09)">
       <use xlink:href="#ArialMT-31"/>
       <use xlink:href="#ArialMT-36" x="55.615234"/>
       <use xlink:href="#ArialMT-30" x="111.230469"/>
      </g>
     </g>
    </g>
    <g id="text_17">
     <!-- Trimmed Means of M values (TMM) -->
     <g style="fill: #444444" transform="translate(16.81125 190.194993)rotate(-90)scale(0.09 -0.09)">
      <defs>
       <path id="ArialMT-54" d="M 1659 0 
L 1659 4041 
L 150 4041 
L 150 4581 
L 3781 4581 
L 3781 4041 
L 2266 4041 
L 2266 0 
L 1659 0 
z
" transform="scale(0.015625)"/>
       <path id="ArialMT-72" d="M 416 0 
L 416 3319 
L 922 3319 
L 922 2816 
Q 1116 3169 1280 3281 
Q 1444 3394 1641 3394 
Q 1925 3394 2219 3213 
L 2025 2691 
Q 1819 2813 1613 2813 
Q 1428 2813 1281 2702 
Q 1134 2591 1072 2394 
Q 978 2094 978 1738 
L 978 0 
L 416 0 
z
" transform="scale(0.015625)"/>
       <path id="ArialMT-6d" d="M 422 0 
L 422 3319 
L 925 3319 
L 925 2853 
Q 1081 3097 1340 3245 
Q 1600 3394 1931 3394 
Q 2300 3394 2536 3241 
Q 2772 3088 2869 2813 
Q 3263 3394 3894 3394 
Q 4388 3394 4653 3120 
Q 4919 2847 4919 2278 
L 4919 0 
L 4359 0 
L 4359 2091 
Q 4359 2428 4304 2576 
Q 4250 2725 4106 2815 
Q 3963 2906 3769 2906 
Q 3419 2906 3187 2673 
Q 2956 2441 2956 1928 
L 2956 0 
L 2394 0 
L 2394 2156 
Q 2394 2531 2256 2718 
Q 2119 2906 1806 2906 
Q 1569 2906 1367 2781 
Q 1166 2656 1075 2415 
Q 984 2175 984 1722 
L 984 0 
L 422 0 
z
" transform="scale(0.015625)"/>
       <path id="ArialMT-64" d="M 2575 0 
L 2575 419 
Q 2259 -75 1647 -75 
Q 1250 -75 917 144 
Q 584 363 401 755 
Q 219 1147 219 1656 
Q 219 2153 384 2558 
Q 550 2963 881 3178 
Q 1213 3394 1622 3394 
Q 1922 3394 2156 3267 
Q 2391 3141 2538 2938 
L 2538 4581 
L 3097 4581 
L 3097 0 
L 2575 0 
z
M 797 1656 
Q 797 1019 1065 703 
Q 1334 388 1700 388 
Q 2069 388 2326 689 
Q 2584 991 2584 1609 
Q 2584 2291 2321 2609 
Q 2059 2928 1675 2928 
Q 1300 2928 1048 2622 
Q 797 2316 797 1656 
z
" transform="scale(0.015625)"/>
       <path id="ArialMT-20" transform="scale(0.015625)"/>
       <path id="ArialMT-4d" d="M 475 0 
L 475 4581 
L 1388 4581 
L 2472 1338 
Q 2622 884 2691 659 
Q 2769 909 2934 1394 
L 4031 4581 
L 4847 4581 
L 4847 0 
L 4263 0 
L 4263 3834 
L 2931 0 
L 2384 0 
L 1059 3900 
L 1059 0 
L 475 0 
z
" transform="scale(0.015625)"/>
       <path id="ArialMT-73" d="M 197 991 
L 753 1078 
Q 800 744 1014 566 
Q 1228 388 1613 388 
Q 2000 388 2187 545 
Q 2375 703 2375 916 
Q 2375 1106 2209 1216 
Q 2094 1291 1634 1406 
Q 1016 1563 777 1677 
Q 538 1791 414 1992 
Q 291 2194 291 2438 
Q 291 2659 392 2848 
Q 494 3038 669 3163 
Q 800 3259 1026 3326 
Q 1253 3394 1513 3394 
Q 1903 3394 2198 3281 
Q 2494 3169 2634 2976 
Q 2775 2784 2828 2463 
L 2278 2388 
Q 2241 2644 2061 2787 
Q 1881 2931 1553 2931 
Q 1166 2931 1000 2803 
Q 834 2675 834 2503 
Q 834 2394 903 2306 
Q 972 2216 1119 2156 
Q 1203 2125 1616 2013 
Q 2213 1853 2448 1751 
Q 2684 1650 2818 1456 
Q 2953 1263 2953 975 
Q 2953 694 2789 445 
Q 2625 197 2315 61 
Q 2006 -75 1616 -75 
Q 969 -75 630 194 
Q 291 463 197 991 
z
" transform="scale(0.015625)"/>
       <path id="ArialMT-6f" d="M 213 1659 
Q 213 2581 725 3025 
Q 1153 3394 1769 3394 
Q 2453 3394 2887 2945 
Q 3322 2497 3322 1706 
Q 3322 1066 3130 698 
Q 2938 331 2570 128 
Q 2203 -75 1769 -75 
Q 1072 -75 642 372 
Q 213 819 213 1659 
z
M 791 1659 
Q 791 1022 1069 705 
Q 1347 388 1769 388 
Q 2188 388 2466 706 
Q 2744 1025 2744 1678 
Q 2744 2294 2464 2611 
Q 2184 2928 1769 2928 
Q 1347 2928 1069 2612 
Q 791 2297 791 1659 
z
" transform="scale(0.015625)"/>
       <path id="ArialMT-66" d="M 556 0 
L 556 2881 
L 59 2881 
L 59 3319 
L 556 3319 
L 556 3672 
Q 556 4006 616 4169 
Q 697 4388 901 4523 
Q 1106 4659 1475 4659 
Q 1713 4659 2000 4603 
L 1916 4113 
Q 1741 4144 1584 4144 
Q 1328 4144 1222 4034 
Q 1116 3925 1116 3625 
L 1116 3319 
L 1763 3319 
L 1763 2881 
L 1116 2881 
L 1116 0 
L 556 0 
z
" transform="scale(0.015625)"/>
       <path id="ArialMT-76" d="M 1344 0 
L 81 3319 
L 675 3319 
L 1388 1331 
Q 1503 1009 1600 663 
Q 1675 925 1809 1294 
L 2547 3319 
L 3125 3319 
L 1869 0 
L 1344 0 
z
" transform="scale(0.015625)"/>
       <path id="ArialMT-6c" d="M 409 0 
L 409 4581 
L 972 4581 
L 972 0 
L 409 0 
z
" transform="scale(0.015625)"/>
       <path id="ArialMT-75" d="M 2597 0 
L 2597 488 
Q 2209 -75 1544 -75 
Q 1250 -75 995 37 
Q 741 150 617 320 
Q 494 491 444 738 
Q 409 903 409 1263 
L 409 3319 
L 972 3319 
L 972 1478 
Q 972 1038 1006 884 
Q 1059 663 1231 536 
Q 1403 409 1656 409 
Q 1909 409 2131 539 
Q 2353 669 2445 892 
Q 2538 1116 2538 1541 
L 2538 3319 
L 3100 3319 
L 3100 0 
L 2597 0 
z
" transform="scale(0.015625)"/>
       <path id="ArialMT-28" d="M 1497 -1347 
Q 1031 -759 709 28 
Q 388 816 388 1659 
Q 388 2403 628 3084 
Q 909 3875 1497 4659 
L 1900 4659 
Q 1522 4009 1400 3731 
Q 1209 3300 1100 2831 
Q 966 2247 966 1656 
Q 966 153 1900 -1347 
L 1497 -1347 
z
" transform="scale(0.015625)"/>
       <path id="ArialMT-29" d="M 791 -1347 
L 388 -1347 
Q 1322 153 1322 1656 
Q 1322 2244 1188 2822 
Q 1081 3291 891 3722 
Q 769 4003 388 4659 
L 791 4659 
Q 1378 3875 1659 3084 
Q 1900 2403 1900 1659 
Q 1900 816 1576 28 
Q 1253 -759 791 -1347 
z
" transform="scale(0.015625)"/>
      </defs>
      <use xlink:href="#ArialMT-54"/>
      <use xlink:href="#ArialMT-72" x="57.333984"/>
      <use xlink:href="#ArialMT-69" x="90.634766"/>
      <use xlink:href="#ArialMT-6d" x="112.851562"/>
      <use xlink:href="#ArialMT-6d" x="196.152344"/>
      <use xlink:href="#ArialMT-65" x="279.453125"/>
      <use xlink:href="#ArialMT-64" x="335.068359"/>
      <use xlink:href="#ArialMT-20" x="390.683594"/>
      <use xlink:href="#ArialMT-4d" x="418.466797"/>
      <use xlink:href="#ArialMT-65" x="501.767578"/>
      <use xlink:href="#ArialMT-61" x="557.382812"/>
      <use xlink:href="#ArialMT-6e" x="612.998047"/>
      <use xlink:href="#ArialMT-73" x="668.613281"/>
      <use xlink:href="#ArialMT-20" x="718.613281"/>
      <use xlink:href="#ArialMT-6f" x="746.396484"/>
      <use xlink:href="#ArialMT-66" x="802.011719"/>
      <use xlink:href="#ArialMT-20" x="829.794922"/>
      <use xlink:href="#ArialMT-4d" x="857.578125"/>
      <use xlink:href="#ArialMT-20" x="940.878906"/>
      <use xlink:href="#ArialMT-76" x="968.662109"/>
      <use xlink:href="#ArialMT-61" x="1018.662109"/>
      <use xlink:href="#ArialMT-6c" x="1074.277344"/>
      <use xlink:href="#ArialMT-75" x="1096.494141"/>
      <use xlink:href="#ArialMT-65" x="1152.109375"/>
      <use xlink:href="#ArialMT-73" x="1207.724609"/>
      <use xlink:href="#ArialMT-20" x="1257.724609"/>
      <use xlink:href="#ArialMT-28" x="1285.507812"/>
      <use xlink:href="#ArialMT-54" x="1318.808594"/>
      <use xlink:href="#ArialMT-4d" x="1379.892578"/>
      <use xlink:href="#ArialMT-4d" x="1463.193359"/>
      <use xlink:href="#ArialMT-29" x="1546.494141"/>
     </g>
    </g>
   </g>
   <g id="PolyCollection_1">
    <defs>
     <path id="mccdbdf7577" d="M 86.753652 -89.132419 
L 72.442951 -89.132419 
L 72.299525 -89.585176 
L 72.161556 -90.037934 
L 72.029284 -90.490691 
L 71.902914 -90.943448 
L 71.782618 -91.396205 
L 71.668534 -91.848962 
L 71.560761 -92.301719 
L 71.459365 -92.754476 
L 71.364372 -93.207233 
L 71.275773 -93.65999 
L 71.193524 -94.112747 
L 71.117545 -94.565505 
L 71.047721 -95.018262 
L 70.983907 -95.471019 
L 70.925926 -95.923776 
L 70.873573 -96.376533 
L 70.826618 -96.82929 
L 70.784804 -97.282047 
L 70.747858 -97.734804 
L 70.715486 -98.187561 
L 70.687381 -98.640319 
L 70.663223 -99.093076 
L 70.642685 -99.545833 
L 70.625434 -99.99859 
L 70.611135 -100.451347 
L 70.599457 -100.904104 
L 70.590069 -101.356861 
L 70.58265 -101.809618 
L 70.576891 -102.262375 
L 70.572492 -102.715132 
L 70.56917 -103.16789 
L 70.566662 -103.620647 
L 70.56472 -104.073404 
L 70.563122 -104.526161 
L 70.561665 -104.978918 
L 70.560171 -105.431675 
L 70.558489 -105.884432 
L 70.556489 -106.337189 
L 70.554071 -106.789946 
L 70.551157 -107.242703 
L 70.547696 -107.695461 
L 70.543662 -108.148218 
L 70.539053 -108.600975 
L 70.53389 -109.053732 
L 70.528214 -109.506489 
L 70.52209 -109.959246 
L 70.515599 -110.412003 
L 70.508842 -110.86476 
L 70.501933 -111.317517 
L 70.495003 -111.770274 
L 70.488194 -112.223032 
L 70.481656 -112.675789 
L 70.475553 -113.128546 
L 70.47005 -113.581303 
L 70.46532 -114.03406 
L 70.461542 -114.486817 
L 70.458891 -114.939574 
L 70.457548 -115.392331 
L 70.457691 -115.845088 
L 70.459496 -116.297846 
L 70.463137 -116.750603 
L 70.468783 -117.20336 
L 70.476599 -117.656117 
L 70.486745 -118.108874 
L 70.499376 -118.561631 
L 70.514638 -119.014388 
L 70.532675 -119.467145 
L 70.55362 -119.919902 
L 70.577602 -120.372659 
L 70.604743 -120.825417 
L 70.635157 -121.278174 
L 70.668953 -121.730931 
L 70.706232 -122.183688 
L 70.747088 -122.636445 
L 70.791611 -123.089202 
L 70.839882 -123.541959 
L 70.891976 -123.994716 
L 70.947962 -124.447473 
L 71.007904 -124.90023 
L 71.071855 -125.352988 
L 71.139865 -125.805745 
L 71.211975 -126.258502 
L 71.288218 -126.711259 
L 71.368619 -127.164016 
L 71.453196 -127.616773 
L 71.541956 -128.06953 
L 71.634897 -128.522287 
L 71.732007 -128.975044 
L 71.833263 -129.427801 
L 71.93863 -129.880559 
L 72.048062 -130.333316 
L 72.161499 -130.786073 
L 72.278869 -131.23883 
L 72.400086 -131.691587 
L 72.525049 -132.144344 
L 72.653644 -132.597101 
L 72.785741 -133.049858 
L 72.921197 -133.502615 
L 73.059852 -133.955373 
L 86.136751 -133.955373 
L 86.136751 -133.955373 
L 86.275406 -133.502615 
L 86.410862 -133.049858 
L 86.542959 -132.597101 
L 86.671554 -132.144344 
L 86.796517 -131.691587 
L 86.917734 -131.23883 
L 87.035104 -130.786073 
L 87.148541 -130.333316 
L 87.257973 -129.880559 
L 87.36334 -129.427801 
L 87.464596 -128.975044 
L 87.561706 -128.522287 
L 87.654647 -128.06953 
L 87.743407 -127.616773 
L 87.827984 -127.164016 
L 87.908385 -126.711259 
L 87.984628 -126.258502 
L 88.056738 -125.805745 
L 88.124748 -125.352988 
L 88.188699 -124.90023 
L 88.248641 -124.447473 
L 88.304627 -123.994716 
L 88.356721 -123.541959 
L 88.404992 -123.089202 
L 88.449515 -122.636445 
L 88.490371 -122.183688 
L 88.52765 -121.730931 
L 88.561445 -121.278174 
L 88.59186 -120.825417 
L 88.619001 -120.372659 
L 88.642983 -119.919902 
L 88.663928 -119.467145 
L 88.681965 -119.014388 
L 88.697227 -118.561631 
L 88.709858 -118.108874 
L 88.720004 -117.656117 
L 88.72782 -117.20336 
L 88.733466 -116.750603 
L 88.737107 -116.297846 
L 88.738912 -115.845088 
L 88.739055 -115.392331 
L 88.737712 -114.939574 
L 88.735061 -114.486817 
L 88.731282 -114.03406 
L 88.726553 -113.581303 
L 88.72105 -113.128546 
L 88.714946 -112.675789 
L 88.708409 -112.223032 
L 88.7016 -111.770274 
L 88.69467 -111.317517 
L 88.687761 -110.86476 
L 88.681004 -110.412003 
L 88.674513 -109.959246 
L 88.668389 -109.506489 
L 88.662713 -109.053732 
L 88.65755 -108.600975 
L 88.65294 -108.148218 
L 88.648907 -107.695461 
L 88.645446 -107.242703 
L 88.642532 -106.789946 
L 88.640114 -106.337189 
L 88.638114 -105.884432 
L 88.636431 -105.431675 
L 88.634938 -104.978918 
L 88.633481 -104.526161 
L 88.631883 -104.073404 
L 88.629941 -103.620647 
L 88.627433 -103.16789 
L 88.624111 -102.715132 
L 88.619712 -102.262375 
L 88.613952 -101.809618 
L 88.606534 -101.356861 
L 88.597146 -100.904104 
L 88.585467 -100.451347 
L 88.571169 -99.99859 
L 88.553918 -99.545833 
L 88.53338 -99.093076 
L 88.509222 -98.640319 
L 88.481117 -98.187561 
L 88.448745 -97.734804 
L 88.411799 -97.282047 
L 88.369985 -96.82929 
L 88.32303 -96.376533 
L 88.270677 -95.923776 
L 88.212696 -95.471019 
L 88.148882 -95.018262 
L 88.079058 -94.565505 
L 88.003079 -94.112747 
L 87.92083 -93.65999 
L 87.832231 -93.207233 
L 87.737238 -92.754476 
L 87.635842 -92.301719 
L 87.528069 -91.848962 
L 87.413985 -91.396205 
L 87.293689 -90.943448 
L 87.167319 -90.490691 
L 87.035047 -90.037934 
L 86.897078 -89.585176 
L 86.753652 -89.132419 
z
" style="stroke: #999999; stroke-width: 2"/>
    </defs>
    <g clip-path="url(#p960e320d0c)">
     <use xlink:href="#mccdbdf7577" x="0" y="255.11811" style="fill: #ffffff; stroke: #999999; stroke-width: 2"/>
    </g>
   </g>
   <g id="PolyCollection_2">
    <defs>
     <path id="mde91d3fca3" d="M 150.132908 -171.251835 
L 138.576901 -171.251835 
L 138.387361 -171.766271 
L 138.19853 -172.280706 
L 138.010759 -172.795141 
L 137.824401 -173.309576 
L 137.639808 -173.824012 
L 137.457332 -174.338447 
L 137.277323 -174.852882 
L 137.100127 -175.367317 
L 136.926085 -175.881752 
L 136.755532 -176.396188 
L 136.588797 -176.910623 
L 136.426199 -177.425058 
L 136.268045 -177.939493 
L 136.114632 -178.453929 
L 135.966242 -178.968364 
L 135.823143 -179.482799 
L 135.685585 -179.997234 
L 135.553799 -180.51167 
L 135.427996 -181.026105 
L 135.308366 -181.54054 
L 135.195076 -182.054975 
L 135.088267 -182.569411 
L 134.988057 -183.083846 
L 134.894534 -183.598281 
L 134.807762 -184.112716 
L 134.727776 -184.627151 
L 134.654581 -185.141587 
L 134.588158 -185.656022 
L 134.528457 -186.170457 
L 134.475402 -186.684892 
L 134.42889 -187.199328 
L 134.388794 -187.713763 
L 134.354963 -188.228198 
L 134.327223 -188.742633 
L 134.305384 -189.257069 
L 134.289234 -189.771504 
L 134.278549 -190.285939 
L 134.273094 -190.800374 
L 134.272622 -191.314809 
L 134.276882 -191.829245 
L 134.285622 -192.34368 
L 134.298585 -192.858115 
L 134.315523 -193.37255 
L 134.336191 -193.886986 
L 134.360355 -194.401421 
L 134.387791 -194.915856 
L 134.418293 -195.430291 
L 134.451669 -195.944727 
L 134.487746 -196.459162 
L 134.526373 -196.973597 
L 134.567419 -197.488032 
L 134.610776 -198.002467 
L 134.656359 -198.516903 
L 134.704107 -199.031338 
L 134.75398 -199.545773 
L 134.80596 -200.060208 
L 134.860053 -200.574644 
L 134.916282 -201.089079 
L 134.974687 -201.603514 
L 135.035327 -202.117949 
L 135.098273 -202.632385 
L 135.163607 -203.14682 
L 135.231421 -203.661255 
L 135.301814 -204.17569 
L 135.374886 -204.690126 
L 135.45074 -205.204561 
L 135.529478 -205.718996 
L 135.611196 -206.233431 
L 135.695984 -206.747866 
L 135.783925 -207.262302 
L 135.87509 -207.776737 
L 135.969539 -208.291172 
L 136.067316 -208.805607 
L 136.168454 -209.320043 
L 136.272965 -209.834478 
L 136.38085 -210.348913 
L 136.49209 -210.863348 
L 136.606649 -211.377784 
L 136.724475 -211.892219 
L 136.845501 -212.406654 
L 136.969641 -212.921089 
L 137.096796 -213.435524 
L 137.226853 -213.94996 
L 137.359684 -214.464395 
L 137.495151 -214.97883 
L 137.633104 -215.493265 
L 137.773382 -216.007701 
L 137.915818 -216.522136 
L 138.060235 -217.036571 
L 138.206451 -217.551006 
L 138.354279 -218.065442 
L 138.503526 -218.579877 
L 138.653997 -219.094312 
L 138.805494 -219.608747 
L 138.957818 -220.123182 
L 139.110767 -220.637618 
L 139.26414 -221.152053 
L 139.417735 -221.666488 
L 139.57135 -222.180923 
L 149.138458 -222.180923 
L 149.138458 -222.180923 
L 149.292074 -221.666488 
L 149.445669 -221.152053 
L 149.599042 -220.637618 
L 149.751991 -220.123182 
L 149.904315 -219.608747 
L 150.055812 -219.094312 
L 150.206283 -218.579877 
L 150.35553 -218.065442 
L 150.503358 -217.551006 
L 150.649574 -217.036571 
L 150.793991 -216.522136 
L 150.936427 -216.007701 
L 151.076705 -215.493265 
L 151.214658 -214.97883 
L 151.350125 -214.464395 
L 151.482956 -213.94996 
L 151.613013 -213.435524 
L 151.740168 -212.921089 
L 151.864308 -212.406654 
L 151.985333 -211.892219 
L 152.10316 -211.377784 
L 152.217719 -210.863348 
L 152.328959 -210.348913 
L 152.436843 -209.834478 
L 152.541355 -209.320043 
L 152.642492 -208.805607 
L 152.74027 -208.291172 
L 152.834719 -207.776737 
L 152.925884 -207.262302 
L 153.013825 -206.747866 
L 153.098613 -206.233431 
L 153.180331 -205.718996 
L 153.259068 -205.204561 
L 153.334923 -204.690126 
L 153.407995 -204.17569 
L 153.478388 -203.661255 
L 153.546202 -203.14682 
L 153.611536 -202.632385 
L 153.674482 -202.117949 
L 153.735122 -201.603514 
L 153.793527 -201.089079 
L 153.849756 -200.574644 
L 153.903848 -200.060208 
L 153.955829 -199.545773 
L 154.005702 -199.031338 
L 154.05345 -198.516903 
L 154.099033 -198.002467 
L 154.14239 -197.488032 
L 154.183436 -196.973597 
L 154.222063 -196.459162 
L 154.25814 -195.944727 
L 154.291516 -195.430291 
L 154.322018 -194.915856 
L 154.349454 -194.401421 
L 154.373618 -193.886986 
L 154.394286 -193.37255 
L 154.411224 -192.858115 
L 154.424187 -192.34368 
L 154.432926 -191.829245 
L 154.437187 -191.314809 
L 154.436715 -190.800374 
L 154.43126 -190.285939 
L 154.420575 -189.771504 
L 154.404425 -189.257069 
L 154.382585 -188.742633 
L 154.354846 -188.228198 
L 154.321015 -187.713763 
L 154.280919 -187.199328 
L 154.234407 -186.684892 
L 154.181352 -186.170457 
L 154.121651 -185.656022 
L 154.055227 -185.141587 
L 153.982033 -184.627151 
L 153.902047 -184.112716 
L 153.815275 -183.598281 
L 153.721752 -183.083846 
L 153.621541 -182.569411 
L 153.514733 -182.054975 
L 153.401442 -181.54054 
L 153.281813 -181.026105 
L 153.15601 -180.51167 
L 153.024224 -179.997234 
L 152.886666 -179.482799 
L 152.743567 -178.968364 
L 152.595177 -178.453929 
L 152.441764 -177.939493 
L 152.28361 -177.425058 
L 152.121011 -176.910623 
L 151.954276 -176.396188 
L 151.783724 -175.881752 
L 151.609682 -175.367317 
L 151.432485 -174.852882 
L 151.252476 -174.338447 
L 151.070001 -173.824012 
L 150.885408 -173.309576 
L 150.69905 -172.795141 
L 150.511279 -172.280706 
L 150.322448 -171.766271 
L 150.132908 -171.251835 
z
" style="stroke: #999999; stroke-width: 2"/>
    </defs>
    <g clip-path="url(#p960e320d0c)">
     <use xlink:href="#mde91d3fca3" x="0" y="255.11811" style="fill: #ffffff; stroke: #999999; stroke-width: 2"/>
    </g>
   </g>
   <g id="PolyCollection_3">
    <defs>
     <path id="m11a62e937e" d="M 217.155991 -66.910374 
L 201.067023 -66.910374 
L 200.94543 -67.396256 
L 200.832153 -67.882138 
L 200.727457 -68.36802 
L 200.63157 -68.853902 
L 200.544671 -69.339784 
L 200.466896 -69.825665 
L 200.398334 -70.311547 
L 200.339027 -70.797429 
L 200.288969 -71.283311 
L 200.248104 -71.769193 
L 200.216331 -72.255075 
L 200.1935 -72.740957 
L 200.179415 -73.226838 
L 200.173836 -73.71272 
L 200.17648 -74.198602 
L 200.187022 -74.684484 
L 200.205099 -75.170366 
L 200.230312 -75.656248 
L 200.262229 -76.14213 
L 200.300388 -76.628012 
L 200.3443 -77.113893 
L 200.393455 -77.599775 
L 200.447323 -78.085657 
L 200.505359 -78.571539 
L 200.567005 -79.057421 
L 200.631699 -79.543303 
L 200.698873 -80.029185 
L 200.767963 -80.515066 
L 200.838407 -81.000948 
L 200.909654 -81.48683 
L 200.981164 -81.972712 
L 201.052414 -82.458594 
L 201.122901 -82.944476 
L 201.192145 -83.430358 
L 201.259691 -83.91624 
L 201.325114 -84.402121 
L 201.38802 -84.888003 
L 201.448049 -85.373885 
L 201.504876 -85.859767 
L 201.558215 -86.345649 
L 201.607816 -86.831531 
L 201.653472 -87.317413 
L 201.695015 -87.803294 
L 201.732316 -88.289176 
L 201.765292 -88.775058 
L 201.793897 -89.26094 
L 201.818127 -89.746822 
L 201.838018 -90.232704 
L 201.853645 -90.718586 
L 201.865119 -91.204467 
L 201.87259 -91.690349 
L 201.876241 -92.176231 
L 201.876287 -92.662113 
L 201.872973 -93.147995 
L 201.866574 -93.633877 
L 201.85739 -94.119759 
L 201.845744 -94.605641 
L 201.83198 -95.091522 
L 201.816459 -95.577404 
L 201.799558 -96.063286 
L 201.781667 -96.549168 
L 201.763184 -97.03505 
L 201.744515 -97.520932 
L 201.726068 -98.006814 
L 201.708254 -98.492695 
L 201.691482 -98.978577 
L 201.676156 -99.464459 
L 201.662673 -99.950341 
L 201.651421 -100.436223 
L 201.642778 -100.922105 
L 201.637104 -101.407987 
L 201.634746 -101.893869 
L 201.636033 -102.37975 
L 201.641271 -102.865632 
L 201.650749 -103.351514 
L 201.664728 -103.837396 
L 201.683449 -104.323278 
L 201.707125 -104.80916 
L 201.735942 -105.295042 
L 201.770061 -105.780923 
L 201.809614 -106.266805 
L 201.854704 -106.752687 
L 201.905407 -107.238569 
L 201.96177 -107.724451 
L 202.023809 -108.210333 
L 202.091517 -108.696215 
L 202.164854 -109.182097 
L 202.243757 -109.667978 
L 202.328134 -110.15386 
L 202.417869 -110.639742 
L 202.512822 -111.125624 
L 202.612828 -111.611506 
L 202.717702 -112.097388 
L 202.827238 -112.58327 
L 202.941209 -113.069151 
L 203.059374 -113.555033 
L 203.181473 -114.040915 
L 203.307234 -114.526797 
L 203.436371 -115.012679 
L 214.786644 -115.012679 
L 214.786644 -115.012679 
L 214.915781 -114.526797 
L 215.041541 -114.040915 
L 215.163641 -113.555033 
L 215.281805 -113.069151 
L 215.395777 -112.58327 
L 215.505312 -112.097388 
L 215.610186 -111.611506 
L 215.710193 -111.125624 
L 215.805145 -110.639742 
L 215.894881 -110.15386 
L 215.979258 -109.667978 
L 216.05816 -109.182097 
L 216.131498 -108.696215 
L 216.199205 -108.210333 
L 216.261245 -107.724451 
L 216.317607 -107.238569 
L 216.36831 -106.752687 
L 216.413401 -106.266805 
L 216.452953 -105.780923 
L 216.487073 -105.295042 
L 216.51589 -104.80916 
L 216.539566 -104.323278 
L 216.558286 -103.837396 
L 216.572266 -103.351514 
L 216.581743 -102.865632 
L 216.586982 -102.37975 
L 216.588268 -101.893869 
L 216.585911 -101.407987 
L 216.580237 -100.922105 
L 216.571593 -100.436223 
L 216.560342 -99.950341 
L 216.546859 -99.464459 
L 216.531533 -98.978577 
L 216.514761 -98.492695 
L 216.496947 -98.006814 
L 216.4785 -97.520932 
L 216.45983 -97.03505 
L 216.441347 -96.549168 
L 216.423456 -96.063286 
L 216.406555 -95.577404 
L 216.391035 -95.091522 
L 216.37727 -94.605641 
L 216.365624 -94.119759 
L 216.35644 -93.633877 
L 216.350042 -93.147995 
L 216.346728 -92.662113 
L 216.346774 -92.176231 
L 216.350424 -91.690349 
L 216.357895 -91.204467 
L 216.36937 -90.718586 
L 216.384997 -90.232704 
L 216.404888 -89.746822 
L 216.429118 -89.26094 
L 216.457723 -88.775058 
L 216.490698 -88.289176 
L 216.528 -87.803294 
L 216.569542 -87.317413 
L 216.615198 -86.831531 
L 216.6648 -86.345649 
L 216.718139 -85.859767 
L 216.774966 -85.373885 
L 216.834995 -84.888003 
L 216.897901 -84.402121 
L 216.963324 -83.91624 
L 217.03087 -83.430358 
L 217.100114 -82.944476 
L 217.170601 -82.458594 
L 217.241851 -81.972712 
L 217.313361 -81.48683 
L 217.384607 -81.000948 
L 217.455052 -80.515066 
L 217.524141 -80.029185 
L 217.591316 -79.543303 
L 217.65601 -79.057421 
L 217.717656 -78.571539 
L 217.775691 -78.085657 
L 217.829559 -77.599775 
L 217.878714 -77.113893 
L 217.922627 -76.628012 
L 217.960786 -76.14213 
L 217.992703 -75.656248 
L 218.017916 -75.170366 
L 218.035993 -74.684484 
L 218.046535 -74.198602 
L 218.049179 -73.71272 
L 218.0436 -73.226838 
L 218.029515 -72.740957 
L 218.006684 -72.255075 
L 217.974911 -71.769193 
L 217.934046 -71.283311 
L 217.883987 -70.797429 
L 217.82468 -70.311547 
L 217.756119 -69.825665 
L 217.678344 -69.339784 
L 217.591445 -68.853902 
L 217.495557 -68.36802 
L 217.390862 -67.882138 
L 217.277584 -67.396256 
L 217.155991 -66.910374 
z
" style="stroke: #999999; stroke-width: 2"/>
    </defs>
    <g clip-path="url(#p960e320d0c)">
     <use xlink:href="#m11a62e937e" x="0" y="255.11811" style="fill: #ffffff; stroke: #999999; stroke-width: 2"/>
    </g>
   </g>
   <g id="PolyCollection_4">
    <defs>
     <path id="mbacd892356" d="M 285.487694 -49.837187 
L 262.248527 -49.837187 
L 261.841799 -50.070967 
L 261.437727 -50.304747 
L 261.036859 -50.538527 
L 260.639688 -50.772308 
L 260.246645 -51.006088 
L 259.858106 -51.239868 
L 259.474391 -51.473648 
L 259.095762 -51.707428 
L 258.722431 -51.941208 
L 258.354558 -52.174989 
L 257.992256 -52.408769 
L 257.635597 -52.642549 
L 257.284612 -52.876329 
L 256.939298 -53.110109 
L 256.599622 -53.343889 
L 256.265522 -53.57767 
L 255.936915 -53.81145 
L 255.613701 -54.04523 
L 255.295761 -54.27901 
L 254.982969 -54.51279 
L 254.675191 -54.74657 
L 254.372286 -54.980351 
L 254.074117 -55.214131 
L 253.78055 -55.447911 
L 253.491456 -55.681691 
L 253.206721 -55.915471 
L 252.926245 -56.149251 
L 252.64995 -56.383032 
L 252.377785 -56.616812 
L 252.109731 -56.850592 
L 251.845804 -57.084372 
L 251.586068 -57.318152 
L 251.330637 -57.551933 
L 251.079682 -57.785713 
L 250.833438 -58.019493 
L 250.592214 -58.253273 
L 250.356393 -58.487053 
L 250.126444 -58.720833 
L 249.902922 -58.954614 
L 249.686475 -59.188394 
L 249.477846 -59.422174 
L 249.277869 -59.655954 
L 249.087476 -59.889734 
L 248.907687 -60.123514 
L 248.73961 -60.357295 
L 248.584429 -60.591075 
L 248.443399 -60.824855 
L 248.317828 -61.058635 
L 248.209068 -61.292415 
L 248.118496 -61.526195 
L 248.047498 -61.759976 
L 247.997445 -61.993756 
L 247.969675 -62.227536 
L 247.965469 -62.461316 
L 247.986031 -62.695096 
L 248.032463 -62.928877 
L 248.105743 -63.162657 
L 248.206704 -63.396437 
L 248.336015 -63.630217 
L 248.494164 -63.863997 
L 248.68144 -64.097777 
L 248.897923 -64.331558 
L 249.143473 -64.565338 
L 249.417725 -64.799118 
L 249.720089 -65.032898 
L 250.049748 -65.266678 
L 250.405665 -65.500458 
L 250.786593 -65.734239 
L 251.19109 -65.968019 
L 251.617529 -66.201799 
L 252.064125 -66.435579 
L 252.528955 -66.669359 
L 253.00998 -66.903139 
L 253.505075 -67.13692 
L 254.012055 -67.3707 
L 254.528704 -67.60448 
L 255.052802 -67.83826 
L 255.582157 -68.07204 
L 256.114627 -68.30582 
L 256.64815 -68.539601 
L 257.180763 -68.773381 
L 257.710627 -69.007161 
L 258.236041 -69.240941 
L 258.755461 -69.474721 
L 259.267507 -69.708502 
L 259.770977 -69.942282 
L 260.264845 -70.176062 
L 260.748265 -70.409842 
L 261.220571 -70.643622 
L 261.681267 -70.877402 
L 262.130024 -71.111183 
L 262.566662 -71.344963 
L 262.991146 -71.578743 
L 263.403561 -71.812523 
L 263.804105 -72.046303 
L 264.193066 -72.280083 
L 264.570806 -72.513864 
L 264.937743 -72.747644 
L 265.294335 -72.981424 
L 282.441885 -72.981424 
L 282.441885 -72.981424 
L 282.798477 -72.747644 
L 283.165415 -72.513864 
L 283.543155 -72.280083 
L 283.932115 -72.046303 
L 284.332659 -71.812523 
L 284.745075 -71.578743 
L 285.169558 -71.344963 
L 285.606197 -71.111183 
L 286.054953 -70.877402 
L 286.51565 -70.643622 
L 286.987956 -70.409842 
L 287.471376 -70.176062 
L 287.965243 -69.942282 
L 288.468713 -69.708502 
L 288.98076 -69.474721 
L 289.500179 -69.240941 
L 290.025594 -69.007161 
L 290.555457 -68.773381 
L 291.08807 -68.539601 
L 291.621593 -68.30582 
L 292.154064 -68.07204 
L 292.683418 -67.83826 
L 293.207517 -67.60448 
L 293.724165 -67.3707 
L 294.231145 -67.13692 
L 294.72624 -66.903139 
L 295.207265 -66.669359 
L 295.672095 -66.435579 
L 296.118692 -66.201799 
L 296.545131 -65.968019 
L 296.949627 -65.734239 
L 297.330556 -65.500458 
L 297.686472 -65.266678 
L 298.016131 -65.032898 
L 298.318495 -64.799118 
L 298.592748 -64.565338 
L 298.838298 -64.331558 
L 299.05478 -64.097777 
L 299.242056 -63.863997 
L 299.400205 -63.630217 
L 299.529517 -63.396437 
L 299.630478 -63.162657 
L 299.703757 -62.928877 
L 299.750189 -62.695096 
L 299.770751 -62.461316 
L 299.766546 -62.227536 
L 299.738775 -61.993756 
L 299.688722 -61.759976 
L 299.617724 -61.526195 
L 299.527153 -61.292415 
L 299.418393 -61.058635 
L 299.292822 -60.824855 
L 299.151791 -60.591075 
L 298.99661 -60.357295 
L 298.828533 -60.123514 
L 298.648745 -59.889734 
L 298.458352 -59.655954 
L 298.258375 -59.422174 
L 298.049745 -59.188394 
L 297.833298 -58.954614 
L 297.609777 -58.720833 
L 297.379828 -58.487053 
L 297.144007 -58.253273 
L 296.902782 -58.019493 
L 296.656539 -57.785713 
L 296.405583 -57.551933 
L 296.150152 -57.318152 
L 295.890416 -57.084372 
L 295.62649 -56.850592 
L 295.358435 -56.616812 
L 295.08627 -56.383032 
L 294.809976 -56.149251 
L 294.5295 -55.915471 
L 294.244764 -55.681691 
L 293.955671 -55.447911 
L 293.662103 -55.214131 
L 293.363934 -54.980351 
L 293.06103 -54.74657 
L 292.753251 -54.51279 
L 292.440459 -54.27901 
L 292.12252 -54.04523 
L 291.799305 -53.81145 
L 291.470699 -53.57767 
L 291.136599 -53.343889 
L 290.796922 -53.110109 
L 290.451609 -52.876329 
L 290.100624 -52.642549 
L 289.743965 -52.408769 
L 289.381663 -52.174989 
L 289.013789 -51.941208 
L 288.640458 -51.707428 
L 288.26183 -51.473648 
L 287.878114 -51.239868 
L 287.489576 -51.006088 
L 287.096533 -50.772308 
L 286.699361 -50.538527 
L 286.298494 -50.304747 
L 285.894422 -50.070967 
L 285.487694 -49.837187 
z
" style="stroke: #999999; stroke-width: 2"/>
    </defs>
    <g clip-path="url(#p960e320d0c)">
     <use xlink:href="#mbacd892356" x="0" y="255.11811" style="fill: #ffffff; stroke: #999999; stroke-width: 2"/>
    </g>
   </g>
   <g id="PolyCollection_5">
    <defs>
     <path id="md14c29592f" d="M 346.689889 -84.270602 
L 330.559538 -84.270602 
L 330.418711 -84.515682 
L 330.281166 -84.760761 
L 330.146838 -85.00584 
L 330.015634 -85.250919 
L 329.887432 -85.495998 
L 329.762078 -85.741078 
L 329.639388 -85.986157 
L 329.519153 -86.231236 
L 329.401133 -86.476315 
L 329.285063 -86.721394 
L 329.170654 -86.966474 
L 329.05759 -87.211553 
L 328.945536 -87.456632 
L 328.834135 -87.701711 
L 328.723011 -87.94679 
L 328.611773 -88.19187 
L 328.500012 -88.436949 
L 328.38731 -88.682028 
L 328.273235 -88.927107 
L 328.15735 -89.172186 
L 328.039211 -89.417266 
L 327.918372 -89.662345 
L 327.794385 -89.907424 
L 327.666806 -90.152503 
L 327.535196 -90.397582 
L 327.399125 -90.642662 
L 327.258174 -90.887741 
L 327.111938 -91.13282 
L 326.960032 -91.377899 
L 326.802089 -91.622978 
L 326.637769 -91.868058 
L 326.466759 -92.113137 
L 326.288779 -92.358216 
L 326.10358 -92.603295 
L 325.910956 -92.848374 
L 325.710739 -93.093454 
L 325.502806 -93.338533 
L 325.287085 -93.583612 
L 325.063552 -93.828691 
L 324.832238 -94.07377 
L 324.59323 -94.31885 
L 324.346676 -94.563929 
L 324.092783 -94.809008 
L 323.831821 -95.054087 
L 323.564127 -95.299166 
L 323.2901 -95.544246 
L 323.010207 -95.789325 
L 322.724983 -96.034404 
L 322.435025 -96.279483 
L 322.140999 -96.524562 
L 321.843632 -96.769642 
L 321.543716 -97.014721 
L 321.242099 -97.2598 
L 320.939689 -97.504879 
L 320.637445 -97.749958 
L 320.336376 -97.995037 
L 320.037533 -98.240117 
L 319.742008 -98.485196 
L 319.450927 -98.730275 
L 319.165442 -98.975354 
L 318.886727 -99.220433 
L 318.615969 -99.465513 
L 318.354362 -99.710592 
L 318.103101 -99.955671 
L 317.863372 -100.20075 
L 317.636346 -100.445829 
L 317.42317 -100.690909 
L 317.224961 -100.935988 
L 317.042796 -101.181067 
L 316.877708 -101.426146 
L 316.730676 -101.671225 
L 316.602618 -101.916305 
L 316.494388 -102.161384 
L 316.406765 -102.406463 
L 316.34045 -102.651542 
L 316.296063 -102.896621 
L 316.274135 -103.141701 
L 316.275106 -103.38678 
L 316.29932 -103.631859 
L 316.347026 -103.876938 
L 316.418374 -104.122017 
L 316.513413 -104.367097 
L 316.632093 -104.612176 
L 316.774263 -104.857255 
L 316.939676 -105.102334 
L 317.127986 -105.347413 
L 317.338754 -105.592493 
L 317.571449 -105.837572 
L 317.825454 -106.082651 
L 318.100068 -106.32773 
L 318.394512 -106.572809 
L 318.707934 -106.817889 
L 319.039416 -107.062968 
L 319.387976 -107.308047 
L 319.75258 -107.553126 
L 320.132145 -107.798205 
L 320.525546 -108.043285 
L 320.931622 -108.288364 
L 321.349187 -108.533443 
L 355.900239 -108.533443 
L 355.900239 -108.533443 
L 356.317804 -108.288364 
L 356.72388 -108.043285 
L 357.117281 -107.798205 
L 357.496846 -107.553126 
L 357.86145 -107.308047 
L 358.210011 -107.062968 
L 358.541492 -106.817889 
L 358.854915 -106.572809 
L 359.149358 -106.32773 
L 359.423972 -106.082651 
L 359.677977 -105.837572 
L 359.910672 -105.592493 
L 360.12144 -105.347413 
L 360.30975 -105.102334 
L 360.475163 -104.857255 
L 360.617334 -104.612176 
L 360.736014 -104.367097 
L 360.831052 -104.122017 
L 360.9024 -103.876938 
L 360.950106 -103.631859 
L 360.974321 -103.38678 
L 360.975291 -103.141701 
L 360.953363 -102.896621 
L 360.908976 -102.651542 
L 360.842662 -102.406463 
L 360.755038 -102.161384 
L 360.646808 -101.916305 
L 360.51875 -101.671225 
L 360.371718 -101.426146 
L 360.20663 -101.181067 
L 360.024465 -100.935988 
L 359.826256 -100.690909 
L 359.61308 -100.445829 
L 359.386054 -100.20075 
L 359.146325 -99.955671 
L 358.895064 -99.710592 
L 358.633458 -99.465513 
L 358.362699 -99.220433 
L 358.083984 -98.975354 
L 357.798499 -98.730275 
L 357.507418 -98.485196 
L 357.211894 -98.240117 
L 356.913051 -97.995037 
L 356.611981 -97.749958 
L 356.309737 -97.504879 
L 356.007327 -97.2598 
L 355.705711 -97.014721 
L 355.405794 -96.769642 
L 355.108428 -96.524562 
L 354.814401 -96.279483 
L 354.524444 -96.034404 
L 354.239219 -95.789325 
L 353.959327 -95.544246 
L 353.6853 -95.299166 
L 353.417605 -95.054087 
L 353.156644 -94.809008 
L 352.90275 -94.563929 
L 352.656196 -94.31885 
L 352.417189 -94.07377 
L 352.185874 -93.828691 
L 351.962341 -93.583612 
L 351.74662 -93.338533 
L 351.538688 -93.093454 
L 351.33847 -92.848374 
L 351.145846 -92.603295 
L 350.960648 -92.358216 
L 350.782667 -92.113137 
L 350.611658 -91.868058 
L 350.447338 -91.622978 
L 350.289395 -91.377899 
L 350.137488 -91.13282 
L 349.991252 -90.887741 
L 349.850301 -90.642662 
L 349.71423 -90.397582 
L 349.582621 -90.152503 
L 349.455042 -89.907424 
L 349.331055 -89.662345 
L 349.210215 -89.417266 
L 349.092076 -89.172186 
L 348.976191 -88.927107 
L 348.862116 -88.682028 
L 348.749414 -88.436949 
L 348.637653 -88.19187 
L 348.526415 -87.94679 
L 348.415291 -87.701711 
L 348.30389 -87.456632 
L 348.191836 -87.211553 
L 348.078773 -86.966474 
L 347.964363 -86.721394 
L 347.848293 -86.476315 
L 347.730273 -86.231236 
L 347.610038 -85.986157 
L 347.487349 -85.741078 
L 347.361994 -85.495998 
L 347.233792 -85.250919 
L 347.102589 -85.00584 
L 346.968261 -84.760761 
L 346.830715 -84.515682 
L 346.689889 -84.270602 
z
" style="stroke: #999999; stroke-width: 2"/>
    </defs>
    <g clip-path="url(#p960e320d0c)">
     <use xlink:href="#md14c29592f" x="0" y="255.11811" style="fill: #ffffff; stroke: #999999; stroke-width: 2"/>
    </g>
   </g>
   <g id="PolyCollection_6">
    <defs>
     <path id="m2367ceb829" d="M 410.689416 -108.320428 
L 396.073216 -108.320428 
L 395.954241 -108.876773 
L 395.841424 -109.433119 
L 395.734972 -109.989464 
L 395.63506 -110.54581 
L 395.541839 -111.102155 
L 395.45543 -111.658501 
L 395.375926 -112.214846 
L 395.303392 -112.771192 
L 395.237862 -113.327537 
L 395.179345 -113.883883 
L 395.127822 -114.440229 
L 395.083248 -114.996574 
L 395.045553 -115.55292 
L 395.01464 -116.109265 
L 394.990394 -116.665611 
L 394.972676 -117.221956 
L 394.961327 -117.778302 
L 394.956171 -118.334647 
L 394.957016 -118.890993 
L 394.963656 -119.447338 
L 394.97587 -120.003684 
L 394.993429 -120.560029 
L 395.016093 -121.116375 
L 395.043616 -121.67272 
L 395.075746 -122.229066 
L 395.112226 -122.785411 
L 395.152798 -123.341757 
L 395.197203 -123.898102 
L 395.245181 -124.454448 
L 395.296475 -125.010793 
L 395.35083 -125.567139 
L 395.407995 -126.123484 
L 395.467723 -126.67983 
L 395.529772 -127.236176 
L 395.593907 -127.792521 
L 395.659898 -128.348867 
L 395.727521 -128.905212 
L 395.79656 -129.461558 
L 395.866807 -130.017903 
L 395.938058 -130.574249 
L 396.010119 -131.130594 
L 396.082802 -131.68694 
L 396.155926 -132.243285 
L 396.229318 -132.799631 
L 396.30281 -133.355976 
L 396.376242 -133.912322 
L 396.44946 -134.468667 
L 396.522319 -135.025013 
L 396.594677 -135.581358 
L 396.666402 -136.137704 
L 396.737368 -136.694049 
L 396.807454 -137.250395 
L 396.876549 -137.80674 
L 396.944548 -138.363086 
L 397.011354 -138.919431 
L 397.076878 -139.475777 
L 397.14104 -140.032123 
L 397.203769 -140.588468 
L 397.265003 -141.144814 
L 397.324691 -141.701159 
L 397.382792 -142.257505 
L 397.439277 -142.81385 
L 397.494127 -143.370196 
L 397.547336 -143.926541 
L 397.598912 -144.482887 
L 397.648873 -145.039232 
L 397.697253 -145.595578 
L 397.744098 -146.151923 
L 397.789467 -146.708269 
L 397.833434 -147.264614 
L 397.876085 -147.82096 
L 397.917521 -148.377305 
L 397.957853 -148.933651 
L 397.997208 -149.489996 
L 398.035721 -150.046342 
L 398.073539 -150.602687 
L 398.11082 -151.159033 
L 398.14773 -151.715378 
L 398.184442 -152.271724 
L 398.221136 -152.82807 
L 398.257996 -153.384415 
L 398.295211 -153.940761 
L 398.332971 -154.497106 
L 398.371466 -155.053452 
L 398.410884 -155.609797 
L 398.451411 -156.166143 
L 398.493227 -156.722488 
L 398.536508 -157.278834 
L 398.581419 -157.835179 
L 398.628116 -158.391525 
L 398.676744 -158.94787 
L 398.727436 -159.504216 
L 398.780311 -160.060561 
L 398.835471 -160.616907 
L 398.893005 -161.173252 
L 398.952982 -161.729598 
L 399.015454 -162.285943 
L 399.080456 -162.842289 
L 399.148004 -163.398634 
L 407.614629 -163.398634 
L 407.614629 -163.398634 
L 407.682176 -162.842289 
L 407.747178 -162.285943 
L 407.809651 -161.729598 
L 407.869628 -161.173252 
L 407.927161 -160.616907 
L 407.982322 -160.060561 
L 408.035196 -159.504216 
L 408.085888 -158.94787 
L 408.134517 -158.391525 
L 408.181213 -157.835179 
L 408.226124 -157.278834 
L 408.269405 -156.722488 
L 408.311221 -156.166143 
L 408.351748 -155.609797 
L 408.391166 -155.053452 
L 408.429661 -154.497106 
L 408.467421 -153.940761 
L 408.504636 -153.384415 
L 408.541496 -152.82807 
L 408.57819 -152.271724 
L 408.614902 -151.715378 
L 408.651812 -151.159033 
L 408.689093 -150.602687 
L 408.726912 -150.046342 
L 408.765424 -149.489996 
L 408.804779 -148.933651 
L 408.845112 -148.377305 
L 408.886547 -147.82096 
L 408.929199 -147.264614 
L 408.973165 -146.708269 
L 409.018534 -146.151923 
L 409.065379 -145.595578 
L 409.113759 -145.039232 
L 409.16372 -144.482887 
L 409.215296 -143.926541 
L 409.268505 -143.370196 
L 409.323355 -142.81385 
L 409.37984 -142.257505 
L 409.437941 -141.701159 
L 409.497629 -141.144814 
L 409.558864 -140.588468 
L 409.621593 -140.032123 
L 409.685755 -139.475777 
L 409.751279 -138.919431 
L 409.818084 -138.363086 
L 409.886083 -137.80674 
L 409.955178 -137.250395 
L 410.025265 -136.694049 
L 410.09623 -136.137704 
L 410.167955 -135.581358 
L 410.240314 -135.025013 
L 410.313172 -134.468667 
L 410.386391 -133.912322 
L 410.459822 -133.355976 
L 410.533314 -132.799631 
L 410.606706 -132.243285 
L 410.67983 -131.68694 
L 410.752513 -131.130594 
L 410.824574 -130.574249 
L 410.895826 -130.017903 
L 410.966072 -129.461558 
L 411.035111 -128.905212 
L 411.102734 -128.348867 
L 411.168725 -127.792521 
L 411.23286 -127.236176 
L 411.294909 -126.67983 
L 411.354637 -126.123484 
L 411.411802 -125.567139 
L 411.466157 -125.010793 
L 411.517451 -124.454448 
L 411.56543 -123.898102 
L 411.609834 -123.341757 
L 411.650406 -122.785411 
L 411.686886 -122.229066 
L 411.719016 -121.67272 
L 411.746539 -121.116375 
L 411.769203 -120.560029 
L 411.786762 -120.003684 
L 411.798976 -119.447338 
L 411.805616 -118.890993 
L 411.806461 -118.334647 
L 411.801305 -117.778302 
L 411.789956 -117.221956 
L 411.772238 -116.665611 
L 411.747992 -116.109265 
L 411.71708 -115.55292 
L 411.679384 -114.996574 
L 411.63481 -114.440229 
L 411.583287 -113.883883 
L 411.52477 -113.327537 
L 411.459241 -112.771192 
L 411.386706 -112.214846 
L 411.307202 -111.658501 
L 411.220793 -111.102155 
L 411.127572 -110.54581 
L 411.027661 -109.989464 
L 410.921208 -109.433119 
L 410.808391 -108.876773 
L 410.689416 -108.320428 
z
" style="stroke: #999999; stroke-width: 2"/>
    </defs>
    <g clip-path="url(#p960e320d0c)">
     <use xlink:href="#m2367ceb829" x="0" y="255.11811" style="fill: #ffffff; stroke: #999999; stroke-width: 2"/>
    </g>
   </g>
   <g id="PolyCollection_7">
    <defs>
     <path id="mb197903d81" d="M 472.740539 -84.468419 
L 463.535299 -84.468419 
L 463.419817 -85.02142 
L 463.305817 -85.574422 
L 463.193371 -86.127423 
L 463.082536 -86.680424 
L 462.973352 -87.233426 
L 462.865842 -87.786427 
L 462.760016 -88.339429 
L 462.655868 -88.89243 
L 462.553377 -89.445431 
L 462.452513 -89.998433 
L 462.353231 -90.551434 
L 462.255481 -91.104435 
L 462.159203 -91.657437 
L 462.06433 -92.210438 
L 461.970792 -92.763439 
L 461.878519 -93.316441 
L 461.787438 -93.869442 
L 461.697479 -94.422443 
L 461.608577 -94.975445 
L 461.52067 -95.528446 
L 461.433707 -96.081447 
L 461.347643 -96.634449 
L 461.262447 -97.18745 
L 461.178097 -97.740451 
L 461.094588 -98.293453 
L 461.011926 -98.846454 
L 460.930135 -99.399455 
L 460.849251 -99.952457 
L 460.76933 -100.505458 
L 460.69044 -101.058459 
L 460.612669 -101.611461 
L 460.536115 -102.164462 
L 460.460895 -102.717463 
L 460.387136 -103.270465 
L 460.314979 -103.823466 
L 460.244573 -104.376467 
L 460.176081 -104.929469 
L 460.109667 -105.48247 
L 460.045505 -106.035471 
L 459.98377 -106.588473 
L 459.924639 -107.141474 
L 459.868287 -107.694475 
L 459.814889 -108.247477 
L 459.764611 -108.800478 
L 459.717613 -109.353479 
L 459.674049 -109.906481 
L 459.634057 -110.459482 
L 459.597767 -111.012483 
L 459.565293 -111.565485 
L 459.536733 -112.118486 
L 459.512172 -112.671487 
L 459.491676 -113.224489 
L 459.475293 -113.77749 
L 459.463055 -114.330491 
L 459.454975 -114.883493 
L 459.451051 -115.436494 
L 459.451263 -115.989496 
L 459.455576 -116.542497 
L 459.463938 -117.095498 
L 459.476286 -117.6485 
L 459.492545 -118.201501 
L 459.51263 -118.754502 
L 459.536444 -119.307504 
L 459.563889 -119.860505 
L 459.594858 -120.413506 
L 459.629244 -120.966508 
L 459.666937 -121.519509 
L 459.70783 -122.07251 
L 459.75182 -122.625512 
L 459.798807 -123.178513 
L 459.848698 -123.731514 
L 459.90141 -124.284516 
L 459.956867 -124.837517 
L 460.015006 -125.390518 
L 460.075772 -125.94352 
L 460.139125 -126.496521 
L 460.205035 -127.049522 
L 460.273486 -127.602524 
L 460.344473 -128.155525 
L 460.418001 -128.708526 
L 460.494087 -129.261528 
L 460.572759 -129.814529 
L 460.65405 -130.36753 
L 460.738002 -130.920532 
L 460.824661 -131.473533 
L 460.914078 -132.026534 
L 461.006304 -132.579536 
L 461.101388 -133.132537 
L 461.19938 -133.685538 
L 461.300322 -134.23854 
L 461.404249 -134.791541 
L 461.511188 -135.344542 
L 461.621156 -135.897544 
L 461.734155 -136.450545 
L 461.850173 -137.003546 
L 461.969183 -137.556548 
L 462.091139 -138.109549 
L 462.215979 -138.66255 
L 462.343619 -139.215552 
L 473.932219 -139.215552 
L 473.932219 -139.215552 
L 474.059859 -138.66255 
L 474.184699 -138.109549 
L 474.306655 -137.556548 
L 474.425665 -137.003546 
L 474.541683 -136.450545 
L 474.654682 -135.897544 
L 474.76465 -135.344542 
L 474.871589 -134.791541 
L 474.975516 -134.23854 
L 475.076458 -133.685538 
L 475.17445 -133.132537 
L 475.269534 -132.579536 
L 475.36176 -132.026534 
L 475.451177 -131.473533 
L 475.537836 -130.920532 
L 475.621788 -130.36753 
L 475.703079 -129.814529 
L 475.781751 -129.261528 
L 475.857837 -128.708526 
L 475.931365 -128.155525 
L 476.002352 -127.602524 
L 476.070803 -127.049522 
L 476.136713 -126.496521 
L 476.200066 -125.94352 
L 476.260832 -125.390518 
L 476.318971 -124.837517 
L 476.374428 -124.284516 
L 476.42714 -123.731514 
L 476.477031 -123.178513 
L 476.524018 -122.625512 
L 476.568008 -122.07251 
L 476.608901 -121.519509 
L 476.646594 -120.966508 
L 476.68098 -120.413506 
L 476.711949 -119.860505 
L 476.739394 -119.307504 
L 476.763208 -118.754502 
L 476.783293 -118.201501 
L 476.799552 -117.6485 
L 476.8119 -117.095498 
L 476.820262 -116.542497 
L 476.824575 -115.989496 
L 476.824787 -115.436494 
L 476.820863 -114.883493 
L 476.812783 -114.330491 
L 476.800545 -113.77749 
L 476.784162 -113.224489 
L 476.763666 -112.671487 
L 476.739105 -112.118486 
L 476.710545 -111.565485 
L 476.678071 -111.012483 
L 476.641781 -110.459482 
L 476.601789 -109.906481 
L 476.558225 -109.353479 
L 476.511227 -108.800478 
L 476.460949 -108.247477 
L 476.407551 -107.694475 
L 476.351199 -107.141474 
L 476.292068 -106.588473 
L 476.230333 -106.035471 
L 476.166171 -105.48247 
L 476.099757 -104.929469 
L 476.031265 -104.376467 
L 475.960859 -103.823466 
L 475.888702 -103.270465 
L 475.814943 -102.717463 
L 475.739723 -102.164462 
L 475.663169 -101.611461 
L 475.585398 -101.058459 
L 475.506508 -100.505458 
L 475.426587 -99.952457 
L 475.345703 -99.399455 
L 475.263912 -98.846454 
L 475.18125 -98.293453 
L 475.097741 -97.740451 
L 475.013391 -97.18745 
L 474.928195 -96.634449 
L 474.842131 -96.081447 
L 474.755168 -95.528446 
L 474.667261 -94.975445 
L 474.578359 -94.422443 
L 474.4884 -93.869442 
L 474.397319 -93.316441 
L 474.305046 -92.763439 
L 474.211508 -92.210438 
L 474.116635 -91.657437 
L 474.020357 -91.104435 
L 473.922607 -90.551434 
L 473.823325 -89.998433 
L 473.722461 -89.445431 
L 473.61997 -88.89243 
L 473.515822 -88.339429 
L 473.409996 -87.786427 
L 473.302486 -87.233426 
L 473.193302 -86.680424 
L 473.082467 -86.127423 
L 472.970021 -85.574422 
L 472.856021 -85.02142 
L 472.740539 -84.468419 
z
" style="stroke: #999999; stroke-width: 2"/>
    </defs>
    <g clip-path="url(#p960e320d0c)">
     <use xlink:href="#mb197903d81" x="0" y="255.11811" style="fill: #ffffff; stroke: #999999; stroke-width: 2"/>
    </g>
   </g>
   <g id="PathCollection_1"/>
   <g id="PathCollection_2"/>
   <g id="patch_3">
    <path d="M 47.22 213.89811 
L 47.22 24.32 
" style="fill: none; stroke: #262626; stroke-width: 1.25; stroke-linejoin: miter; stroke-linecap: square"/>
   </g>
   <g id="patch_4">
    <path d="M 47.22 213.89811 
L 500.51622 213.89811 
" style="fill: none; stroke: #262626; stroke-width: 1.25; stroke-linejoin: miter; stroke-linecap: square"/>
   </g>
   <g id="PathCollection_3">
    <defs>
     <path id="C0_0_3539fd7ac1" d="M 0 2.5 
C 0.663008 2.5 1.29895 2.236584 1.767767 1.767767 
C 2.236584 1.29895 2.5 0.663008 2.5 -0 
C 2.5 -0.663008 2.236584 -1.29895 1.767767 -1.767767 
C 1.29895 -2.236584 0.663008 -2.5 0 -2.5 
C -0.663008 -2.5 -1.29895 -2.236584 -1.767767 -1.767767 
C -2.236584 -1.29895 -2.5 -0.663008 -2.5 0 
C -2.5 0.663008 -2.236584 1.29895 -1.767767 1.767767 
C -1.29895 2.236584 -0.663008 2.5 0 2.5 
z
"/>
    </defs>
    <g clip-path="url(#p960e320d0c)">
     <use xlink:href="#C0_0_3539fd7ac1" x="81.229956" y="138.020308" style="fill: #4c72b0; fill-opacity: 0.75"/>
    </g>
    <g clip-path="url(#p960e320d0c)">
     <use xlink:href="#C0_0_3539fd7ac1" x="79.954207" y="121.162738" style="fill: #4c72b0; fill-opacity: 0.75"/>
    </g>
    <g clip-path="url(#p960e320d0c)">
     <use xlink:href="#C0_0_3539fd7ac1" x="74.827328" y="124.063" style="fill: #4c72b0; fill-opacity: 0.75"/>
    </g>
    <g clip-path="url(#p960e320d0c)">
     <use xlink:href="#C0_0_3539fd7ac1" x="75.353758" y="136.466706" style="fill: #4c72b0; fill-opacity: 0.75"/>
    </g>
    <g clip-path="url(#p960e320d0c)">
     <use xlink:href="#C0_0_3539fd7ac1" x="76.150399" y="160.173607" style="fill: #dd8452; fill-opacity: 0.75"/>
    </g>
    <g clip-path="url(#p960e320d0c)">
     <use xlink:href="#C0_0_3539fd7ac1" x="75.73883" y="146.597832" style="fill: #dd8452; fill-opacity: 0.75"/>
    </g>
    <g clip-path="url(#p960e320d0c)">
     <use xlink:href="#C0_0_3539fd7ac1" x="78.085133" y="165.985691" style="fill: #dd8452; fill-opacity: 0.75"/>
    </g>
    <g clip-path="url(#p960e320d0c)">
     <use xlink:href="#C0_0_3539fd7ac1" x="80.433235" y="159.576335" style="fill: #dd8452; fill-opacity: 0.75"/>
    </g>
   </g>
   <g id="PathCollection_4">
    <defs>
     <path id="C1_0_0aa4030c7e" d="M 0 2.5 
C 0.663008 2.5 1.29895 2.236584 1.767767 1.767767 
C 2.236584 1.29895 2.5 0.663008 2.5 -0 
C 2.5 -0.663008 2.236584 -1.29895 1.767767 -1.767767 
C 1.29895 -2.236584 0.663008 -2.5 0 -2.5 
C -0.663008 -2.5 -1.29895 -2.236584 -1.767767 -1.767767 
C -2.236584 -1.29895 -2.5 -0.663008 -2.5 0 
C -2.5 0.663008 -2.236584 1.29895 -1.767767 1.767767 
C -1.29895 2.236584 -0.663008 2.5 0 2.5 
z
"/>
    </defs>
    <g clip-path="url(#p960e320d0c)">
     <use xlink:href="#C1_0_0aa4030c7e" x="138.652247" y="67.741794" style="fill: #4c72b0; fill-opacity: 0.75"/>
    </g>
    <g clip-path="url(#p960e320d0c)">
     <use xlink:href="#C1_0_0aa4030c7e" x="144.026191" y="83.866275" style="fill: #4c72b0; fill-opacity: 0.75"/>
    </g>
    <g clip-path="url(#p960e320d0c)">
     <use xlink:href="#C1_0_0aa4030c7e" x="148.578113" y="32.937187" style="fill: #4c72b0; fill-opacity: 0.75"/>
    </g>
    <g clip-path="url(#p960e320d0c)">
     <use xlink:href="#C1_0_0aa4030c7e" x="143.017315" y="47.315933" style="fill: #4c72b0; fill-opacity: 0.75"/>
    </g>
    <g clip-path="url(#p960e320d0c)">
     <use xlink:href="#C1_0_0aa4030c7e" x="140.964034" y="66.330826" style="fill: #dd8452; fill-opacity: 0.75"/>
    </g>
    <g clip-path="url(#p960e320d0c)">
     <use xlink:href="#C1_0_0aa4030c7e" x="145.688459" y="74.852255" style="fill: #dd8452; fill-opacity: 0.75"/>
    </g>
    <g clip-path="url(#p960e320d0c)">
     <use xlink:href="#C1_0_0aa4030c7e" x="150.547166" y="46.611636" style="fill: #dd8452; fill-opacity: 0.75"/>
    </g>
    <g clip-path="url(#p960e320d0c)">
     <use xlink:href="#C1_0_0aa4030c7e" x="147.789465" y="57.512005" style="fill: #dd8452; fill-opacity: 0.75"/>
    </g>
   </g>
   <g id="PathCollection_5">
    <defs>
     <path id="C2_0_e860fbc747" d="M 0 2.5 
C 0.663008 2.5 1.29895 2.236584 1.767767 1.767767 
C 2.236584 1.29895 2.5 0.663008 2.5 -0 
C 2.5 -0.663008 2.236584 -1.29895 1.767767 -1.767767 
C 1.29895 -2.236584 0.663008 -2.5 0 -2.5 
C -0.663008 -2.5 -1.29895 -2.236584 -1.767767 -1.767767 
C -2.236584 -1.29895 -2.5 -0.663008 -2.5 0 
C -2.5 0.663008 -2.236584 1.29895 -1.767767 1.767767 
C -1.29895 2.236584 -0.663008 2.5 0 2.5 
z
"/>
    </defs>
    <g clip-path="url(#p960e320d0c)">
     <use xlink:href="#C2_0_e860fbc747" x="213.724698" y="182.246987" style="fill: #4c72b0; fill-opacity: 0.75"/>
    </g>
    <g clip-path="url(#p960e320d0c)">
     <use xlink:href="#C2_0_e860fbc747" x="207.623219" y="140.105431" style="fill: #4c72b0; fill-opacity: 0.75"/>
    </g>
    <g clip-path="url(#p960e320d0c)">
     <use xlink:href="#C2_0_e860fbc747" x="204.472503" y="150.117146" style="fill: #4c72b0; fill-opacity: 0.75"/>
    </g>
    <g clip-path="url(#p960e320d0c)">
     <use xlink:href="#C2_0_e860fbc747" x="204.154905" y="150.109561" style="fill: #4c72b0; fill-opacity: 0.75"/>
    </g>
    <g clip-path="url(#p960e320d0c)">
     <use xlink:href="#C2_0_e860fbc747" x="206.976887" y="188.207736" style="fill: #dd8452; fill-opacity: 0.75"/>
    </g>
    <g clip-path="url(#p960e320d0c)">
     <use xlink:href="#C2_0_e860fbc747" x="205.008357" y="185.098209" style="fill: #dd8452; fill-opacity: 0.75"/>
    </g>
    <g clip-path="url(#p960e320d0c)">
     <use xlink:href="#C2_0_e860fbc747" x="210.947956" y="162.195601" style="fill: #dd8452; fill-opacity: 0.75"/>
    </g>
    <g clip-path="url(#p960e320d0c)">
     <use xlink:href="#C2_0_e860fbc747" x="213.134313" y="179.555701" style="fill: #dd8452; fill-opacity: 0.75"/>
    </g>
   </g>
   <g id="PathCollection_6">
    <defs>
     <path id="C3_0_8995e8dbea" d="M 0 2.5 
C 0.663008 2.5 1.29895 2.236584 1.767767 1.767767 
C 2.236584 1.29895 2.5 0.663008 2.5 -0 
C 2.5 -0.663008 2.236584 -1.29895 1.767767 -1.767767 
C 1.29895 -2.236584 0.663008 -2.5 0 -2.5 
C -0.663008 -2.5 -1.29895 -2.236584 -1.767767 -1.767767 
C -2.236584 -1.29895 -2.5 -0.663008 -2.5 0 
C -2.5 0.663008 -2.236584 1.29895 -1.767767 1.767767 
C -1.29895 2.236584 -0.663008 2.5 0 2.5 
z
"/>
    </defs>
    <g clip-path="url(#p960e320d0c)">
     <use xlink:href="#C3_0_8995e8dbea" x="277.29535" y="182.136686" style="fill: #4c72b0; fill-opacity: 0.75"/>
    </g>
    <g clip-path="url(#p960e320d0c)">
     <use xlink:href="#C3_0_8995e8dbea" x="270.15621" y="190.905671" style="fill: #4c72b0; fill-opacity: 0.75"/>
    </g>
    <g clip-path="url(#p960e320d0c)">
     <use xlink:href="#C3_0_8995e8dbea" x="272.58518" y="191.502196" style="fill: #4c72b0; fill-opacity: 0.75"/>
    </g>
    <g clip-path="url(#p960e320d0c)">
     <use xlink:href="#C3_0_8995e8dbea" x="278.231558" y="205.280923" style="fill: #4c72b0; fill-opacity: 0.75"/>
    </g>
    <g clip-path="url(#p960e320d0c)">
     <use xlink:href="#C3_0_8995e8dbea" x="272.707348" y="190.413456" style="fill: #4c72b0; fill-opacity: 0.75"/>
    </g>
    <g clip-path="url(#p960e320d0c)">
     <use xlink:href="#C3_0_8995e8dbea" x="276.105828" y="202.392069" style="fill: #dd8452; fill-opacity: 0.75"/>
    </g>
    <g clip-path="url(#p960e320d0c)">
     <use xlink:href="#C3_0_8995e8dbea" x="270.644967" y="197.626649" style="fill: #dd8452; fill-opacity: 0.75"/>
    </g>
    <g clip-path="url(#p960e320d0c)">
     <use xlink:href="#C3_0_8995e8dbea" x="279.68764" y="198.487674" style="fill: #dd8452; fill-opacity: 0.75"/>
    </g>
    <g clip-path="url(#p960e320d0c)">
     <use xlink:href="#C3_0_8995e8dbea" x="269.953775" y="188.445798" style="fill: #dd8452; fill-opacity: 0.75"/>
    </g>
    <g clip-path="url(#p960e320d0c)">
     <use xlink:href="#C3_0_8995e8dbea" x="272.635724" y="195.037839" style="fill: #dd8452; fill-opacity: 0.75"/>
    </g>
   </g>
   <g id="PathCollection_7">
    <defs>
     <path id="C4_0_d7829a7554" d="M 0 2.5 
C 0.663008 2.5 1.29895 2.236584 1.767767 1.767767 
C 2.236584 1.29895 2.5 0.663008 2.5 -0 
C 2.5 -0.663008 2.236584 -1.29895 1.767767 -1.767767 
C 1.29895 -2.236584 0.663008 -2.5 0 -2.5 
C -0.663008 -2.5 -1.29895 -2.236584 -1.767767 -1.767767 
C -2.236584 -1.29895 -2.5 -0.663008 -2.5 0 
C -2.5 0.663008 -2.236584 1.29895 -1.767767 1.767767 
C -1.29895 2.236584 -0.663008 2.5 0 2.5 
z
"/>
    </defs>
    <g clip-path="url(#p960e320d0c)">
     <use xlink:href="#C4_0_d7829a7554" x="335.507093" y="146.584667" style="fill: #4c72b0; fill-opacity: 0.75"/>
    </g>
    <g clip-path="url(#p960e320d0c)">
     <use xlink:href="#C4_0_d7829a7554" x="334.925469" y="162.244617" style="fill: #4c72b0; fill-opacity: 0.75"/>
    </g>
    <g clip-path="url(#p960e320d0c)">
     <use xlink:href="#C4_0_d7829a7554" x="343.832382" y="151.123735" style="fill: #4c72b0; fill-opacity: 0.75"/>
    </g>
    <g clip-path="url(#p960e320d0c)">
     <use xlink:href="#C4_0_d7829a7554" x="343.894138" y="152.664553" style="fill: #dd8452; fill-opacity: 0.75"/>
    </g>
    <g clip-path="url(#p960e320d0c)">
     <use xlink:href="#C4_0_d7829a7554" x="339.139434" y="152.7584" style="fill: #dd8452; fill-opacity: 0.75"/>
    </g>
    <g clip-path="url(#p960e320d0c)">
     <use xlink:href="#C4_0_d7829a7554" x="344.069177" y="170.847508" style="fill: #dd8452; fill-opacity: 0.75"/>
    </g>
   </g>
   <g id="PathCollection_8">
    <defs>
     <path id="C5_0_3731754f71" d="M 0 2.5 
C 0.663008 2.5 1.29895 2.236584 1.767767 1.767767 
C 2.236584 1.29895 2.5 0.663008 2.5 -0 
C 2.5 -0.663008 2.236584 -1.29895 1.767767 -1.767767 
C 1.29895 -2.236584 0.663008 -2.5 0 -2.5 
C -0.663008 -2.5 -1.29895 -2.236584 -1.767767 -1.767767 
C -2.236584 -1.29895 -2.5 -0.663008 -2.5 0 
C -2.5 0.663008 -2.236584 1.29895 -1.767767 1.767767 
C -1.29895 2.236584 -0.663008 2.5 0 2.5 
z
"/>
    </defs>
    <g clip-path="url(#p960e320d0c)">
     <use xlink:href="#C5_0_3731754f71" x="407.198337" y="120.322713" style="fill: #4c72b0; fill-opacity: 0.75"/>
    </g>
    <g clip-path="url(#p960e320d0c)">
     <use xlink:href="#C5_0_3731754f71" x="407.13134" y="91.719476" style="fill: #4c72b0; fill-opacity: 0.75"/>
    </g>
    <g clip-path="url(#p960e320d0c)">
     <use xlink:href="#C5_0_3731754f71" x="408.810166" y="118.257208" style="fill: #4c72b0; fill-opacity: 0.75"/>
    </g>
    <g clip-path="url(#p960e320d0c)">
     <use xlink:href="#C5_0_3731754f71" x="406.705286" y="96.296434" style="fill: #4c72b0; fill-opacity: 0.75"/>
    </g>
    <g clip-path="url(#p960e320d0c)">
     <use xlink:href="#C5_0_3731754f71" x="397.888331" y="140.983074" style="fill: #dd8452; fill-opacity: 0.75"/>
    </g>
    <g clip-path="url(#p960e320d0c)">
     <use xlink:href="#C5_0_3731754f71" x="404.099916" y="134.598264" style="fill: #dd8452; fill-opacity: 0.75"/>
    </g>
    <g clip-path="url(#p960e320d0c)">
     <use xlink:href="#C5_0_3731754f71" x="408.102063" y="145.456803" style="fill: #dd8452; fill-opacity: 0.75"/>
    </g>
    <g clip-path="url(#p960e320d0c)">
     <use xlink:href="#C5_0_3731754f71" x="400.784821" y="146.797682" style="fill: #dd8452; fill-opacity: 0.75"/>
    </g>
   </g>
   <g id="PathCollection_9">
    <defs>
     <path id="C6_0_7e151e989e" d="M 0 2.5 
C 0.663008 2.5 1.29895 2.236584 1.767767 1.767767 
C 2.236584 1.29895 2.5 0.663008 2.5 -0 
C 2.5 -0.663008 2.236584 -1.29895 1.767767 -1.767767 
C 1.29895 -2.236584 0.663008 -2.5 0 -2.5 
C -0.663008 -2.5 -1.29895 -2.236584 -1.767767 -1.767767 
C -2.236584 -1.29895 -2.5 -0.663008 -2.5 0 
C -2.5 0.663008 -2.236584 1.29895 -1.767767 1.767767 
C -1.29895 2.236584 -0.663008 2.5 0 2.5 
z
"/>
    </defs>
    <g clip-path="url(#p960e320d0c)">
     <use xlink:href="#C6_0_7e151e989e" x="471.497089" y="162.378331" style="fill: #4c72b0; fill-opacity: 0.75"/>
    </g>
    <g clip-path="url(#p960e320d0c)">
     <use xlink:href="#C6_0_7e151e989e" x="466.731905" y="170.649691" style="fill: #4c72b0; fill-opacity: 0.75"/>
    </g>
    <g clip-path="url(#p960e320d0c)">
     <use xlink:href="#C6_0_7e151e989e" x="466.682943" y="149.995422" style="fill: #4c72b0; fill-opacity: 0.75"/>
    </g>
    <g clip-path="url(#p960e320d0c)">
     <use xlink:href="#C6_0_7e151e989e" x="464.096004" y="141.333782" style="fill: #4c72b0; fill-opacity: 0.75"/>
    </g>
    <g clip-path="url(#p960e320d0c)">
     <use xlink:href="#C6_0_7e151e989e" x="464.680479" y="115.902558" style="fill: #dd8452; fill-opacity: 0.75"/>
    </g>
    <g clip-path="url(#p960e320d0c)">
     <use xlink:href="#C6_0_7e151e989e" x="469.069098" y="131.100463" style="fill: #dd8452; fill-opacity: 0.75"/>
    </g>
    <g clip-path="url(#p960e320d0c)">
     <use xlink:href="#C6_0_7e151e989e" x="470.809734" y="140.412547" style="fill: #dd8452; fill-opacity: 0.75"/>
    </g>
    <g clip-path="url(#p960e320d0c)">
     <use xlink:href="#C6_0_7e151e989e" x="463.626295" y="118.446727" style="fill: #dd8452; fill-opacity: 0.75"/>
    </g>
   </g>
   <g id="text_18">
    <!-- TNFRSF12A, $p_{adj}$ &lt; .001 *** -->
    <g style="fill: #262626" transform="translate(47.22 18.32)scale(0.09 -0.09)">
     <defs>
      <path id="ArialMT-4e" d="M 488 0 
L 488 4581 
L 1109 4581 
L 3516 984 
L 3516 4581 
L 4097 4581 
L 4097 0 
L 3475 0 
L 1069 3600 
L 1069 0 
L 488 0 
z
" transform="scale(0.015625)"/>
      <path id="ArialMT-46" d="M 525 0 
L 525 4581 
L 3616 4581 
L 3616 4041 
L 1131 4041 
L 1131 2622 
L 3281 2622 
L 3281 2081 
L 1131 2081 
L 1131 0 
L 525 0 
z
" transform="scale(0.015625)"/>
      <path id="ArialMT-52" d="M 503 0 
L 503 4581 
L 2534 4581 
Q 3147 4581 3465 4457 
Q 3784 4334 3975 4021 
Q 4166 3709 4166 3331 
Q 4166 2844 3850 2509 
Q 3534 2175 2875 2084 
Q 3116 1969 3241 1856 
Q 3506 1613 3744 1247 
L 4541 0 
L 3778 0 
L 3172 953 
Q 2906 1366 2734 1584 
Q 2563 1803 2427 1890 
Q 2291 1978 2150 2013 
Q 2047 2034 1813 2034 
L 1109 2034 
L 1109 0 
L 503 0 
z
M 1109 2559 
L 2413 2559 
Q 2828 2559 3062 2645 
Q 3297 2731 3419 2920 
Q 3541 3109 3541 3331 
Q 3541 3656 3305 3865 
Q 3069 4075 2559 4075 
L 1109 4075 
L 1109 2559 
z
" transform="scale(0.015625)"/>
      <path id="ArialMT-53" d="M 288 1472 
L 859 1522 
Q 900 1178 1048 958 
Q 1197 738 1509 602 
Q 1822 466 2213 466 
Q 2559 466 2825 569 
Q 3091 672 3220 851 
Q 3350 1031 3350 1244 
Q 3350 1459 3225 1620 
Q 3100 1781 2813 1891 
Q 2628 1963 1997 2114 
Q 1366 2266 1113 2400 
Q 784 2572 623 2826 
Q 463 3081 463 3397 
Q 463 3744 659 4045 
Q 856 4347 1234 4503 
Q 1613 4659 2075 4659 
Q 2584 4659 2973 4495 
Q 3363 4331 3572 4012 
Q 3781 3694 3797 3291 
L 3216 3247 
Q 3169 3681 2898 3903 
Q 2628 4125 2100 4125 
Q 1550 4125 1298 3923 
Q 1047 3722 1047 3438 
Q 1047 3191 1225 3031 
Q 1400 2872 2139 2705 
Q 2878 2538 3153 2413 
Q 3553 2228 3743 1945 
Q 3934 1663 3934 1294 
Q 3934 928 3725 604 
Q 3516 281 3123 101 
Q 2731 -78 2241 -78 
Q 1619 -78 1198 103 
Q 778 284 539 648 
Q 300 1013 288 1472 
z
" transform="scale(0.015625)"/>
      <path id="ArialMT-41" d="M -9 0 
L 1750 4581 
L 2403 4581 
L 4278 0 
L 3588 0 
L 3053 1388 
L 1138 1388 
L 634 0 
L -9 0 
z
M 1313 1881 
L 2866 1881 
L 2388 3150 
Q 2169 3728 2063 4100 
Q 1975 3659 1816 3225 
L 1313 1881 
z
" transform="scale(0.015625)"/>
      <path id="ArialMT-2c" d="M 569 0 
L 569 641 
L 1209 641 
L 1209 0 
Q 1209 -353 1084 -570 
Q 959 -788 688 -906 
L 531 -666 
Q 709 -588 793 -436 
Q 878 -284 888 0 
L 569 0 
z
" transform="scale(0.015625)"/>
      <path id="DejaVuSans-Oblique-70" d="M 3175 2156 
Q 3175 2616 2975 2859 
Q 2775 3103 2400 3103 
Q 2144 3103 1911 2972 
Q 1678 2841 1497 2591 
Q 1319 2344 1212 1994 
Q 1106 1644 1106 1300 
Q 1106 863 1306 627 
Q 1506 391 1875 391 
Q 2147 391 2380 519 
Q 2613 647 2778 891 
Q 2956 1147 3065 1494 
Q 3175 1841 3175 2156 
z
M 1394 2969 
Q 1625 3272 1939 3428 
Q 2253 3584 2638 3584 
Q 3175 3584 3472 3232 
Q 3769 2881 3769 2247 
Q 3769 1728 3584 1258 
Q 3400 788 3053 416 
Q 2822 169 2531 39 
Q 2241 -91 1919 -91 
Q 1547 -91 1294 64 
Q 1041 219 916 525 
L 556 -1331 
L -19 -1331 
L 922 3500 
L 1497 3500 
L 1394 2969 
z
" transform="scale(0.015625)"/>
      <path id="DejaVuSans-Oblique-61" d="M 3438 1997 
L 3047 0 
L 2472 0 
L 2578 531 
Q 2325 219 2001 64 
Q 1678 -91 1281 -91 
Q 834 -91 548 182 
Q 263 456 263 884 
Q 263 1497 752 1853 
Q 1241 2209 2100 2209 
L 2900 2209 
L 2931 2363 
Q 2938 2388 2941 2417 
Q 2944 2447 2944 2509 
Q 2944 2788 2717 2942 
Q 2491 3097 2081 3097 
Q 1800 3097 1504 3025 
Q 1209 2953 897 2809 
L 997 3341 
Q 1322 3463 1633 3523 
Q 1944 3584 2234 3584 
Q 2853 3584 3176 3315 
Q 3500 3047 3500 2534 
Q 3500 2431 3484 2292 
Q 3469 2153 3438 1997 
z
M 2816 1759 
L 2241 1759 
Q 1534 1759 1195 1570 
Q 856 1381 856 984 
Q 856 709 1029 553 
Q 1203 397 1509 397 
Q 1978 397 2328 733 
Q 2678 1069 2791 1631 
L 2816 1759 
z
" transform="scale(0.015625)"/>
      <path id="DejaVuSans-Oblique-64" d="M 2675 525 
Q 2444 222 2128 65 
Q 1813 -91 1428 -91 
Q 903 -91 598 267 
Q 294 625 294 1247 
Q 294 1766 478 2236 
Q 663 2706 1013 3078 
Q 1244 3325 1534 3454 
Q 1825 3584 2144 3584 
Q 2481 3584 2739 3421 
Q 2997 3259 3138 2956 
L 3513 4863 
L 4091 4863 
L 3144 0 
L 2566 0 
L 2675 525 
z
M 891 1350 
Q 891 897 1095 644 
Q 1300 391 1663 391 
Q 1931 391 2161 520 
Q 2391 650 2566 903 
Q 2750 1166 2856 1509 
Q 2963 1853 2963 2188 
Q 2963 2622 2758 2865 
Q 2553 3109 2194 3109 
Q 1922 3109 1687 2981 
Q 1453 2853 1288 2613 
Q 1106 2353 998 2009 
Q 891 1666 891 1350 
z
" transform="scale(0.015625)"/>
      <path id="DejaVuSans-Oblique-6a" d="M 928 3500 
L 1503 3500 
L 813 -63 
L 809 -78 
Q 694 -675 544 -897 
Q 403 -1106 132 -1218 
Q -138 -1331 -506 -1331 
L -722 -1331 
L -628 -844 
L -481 -844 
Q -144 -844 -1 -703 
Q 141 -563 238 -63 
L 928 3500 
z
M 1197 4863 
L 1772 4863 
L 1631 4134 
L 1056 4134 
L 1197 4863 
z
" transform="scale(0.015625)"/>
      <path id="ArialMT-3c" d="M 350 2003 
L 350 2528 
L 3384 3809 
L 3384 3250 
L 978 2263 
L 3384 1266 
L 3384 706 
L 350 2003 
z
" transform="scale(0.015625)"/>
      <path id="ArialMT-2e" d="M 581 0 
L 581 641 
L 1222 641 
L 1222 0 
L 581 0 
z
" transform="scale(0.015625)"/>
      <path id="ArialMT-2a" d="M 200 3741 
L 344 4184 
Q 841 4009 1066 3881 
Q 1006 4447 1003 4659 
L 1456 4659 
Q 1447 4350 1384 3884 
Q 1706 4047 2122 4184 
L 2266 3741 
Q 1869 3609 1488 3566 
Q 1678 3400 2025 2975 
L 1650 2709 
Q 1469 2956 1222 3381 
Q 991 2941 816 2709 
L 447 2975 
Q 809 3422 966 3566 
Q 563 3644 200 3741 
z
" transform="scale(0.015625)"/>
     </defs>
     <use xlink:href="#ArialMT-54" transform="translate(0 0.203125)"/>
     <use xlink:href="#ArialMT-4e" transform="translate(61.083984 0.203125)"/>
     <use xlink:href="#ArialMT-46" transform="translate(133.300781 0.203125)"/>
     <use xlink:href="#ArialMT-52" transform="translate(194.384766 0.203125)"/>
     <use xlink:href="#ArialMT-53" transform="translate(266.601562 0.203125)"/>
     <use xlink:href="#ArialMT-46" transform="translate(333.300781 0.203125)"/>
     <use xlink:href="#ArialMT-31" transform="translate(394.384766 0.203125)"/>
     <use xlink:href="#ArialMT-32" transform="translate(450 0.203125)"/>
     <use xlink:href="#ArialMT-41" transform="translate(505.615234 0.203125)"/>
     <use xlink:href="#ArialMT-2c" transform="translate(572.314453 0.203125)"/>
     <use xlink:href="#ArialMT-20" transform="translate(600.097656 0.203125)"/>
     <use xlink:href="#DejaVuSans-Oblique-70" transform="translate(627.880859 0.203125)"/>
     <use xlink:href="#DejaVuSans-Oblique-61" transform="translate(691.357422 -16.203125)scale(0.7)"/>
     <use xlink:href="#DejaVuSans-Oblique-64" transform="translate(734.25293 -16.203125)scale(0.7)"/>
     <use xlink:href="#DejaVuSans-Oblique-6a" transform="translate(778.686523 -16.203125)scale(0.7)"/>
     <use xlink:href="#ArialMT-20" transform="translate(800.869141 0.203125)"/>
     <use xlink:href="#ArialMT-3c" transform="translate(828.652344 0.203125)"/>
     <use xlink:href="#ArialMT-20" transform="translate(887.050781 0.203125)"/>
     <use xlink:href="#ArialMT-2e" transform="translate(914.833984 0.203125)"/>
     <use xlink:href="#ArialMT-30" transform="translate(942.617188 0.203125)"/>
     <use xlink:href="#ArialMT-30" transform="translate(998.232422 0.203125)"/>
     <use xlink:href="#ArialMT-31" transform="translate(1053.847656 0.203125)"/>
     <use xlink:href="#ArialMT-20" transform="translate(1109.462891 0.203125)"/>
     <use xlink:href="#ArialMT-2a" transform="translate(1137.246094 0.203125)"/>
     <use xlink:href="#ArialMT-2a" transform="translate(1176.162109 0.203125)"/>
     <use xlink:href="#ArialMT-2a" transform="translate(1215.078125 0.203125)"/>
    </g>
   </g>
   <g id="legend_1">
    <g id="patch_5">
     <path d="M 441.91497 69.712344 
L 494.21622 69.712344 
Q 496.01622 69.712344 496.01622 67.912344 
L 496.01622 30.62 
Q 496.01622 28.82 494.21622 28.82 
L 441.91497 28.82 
Q 440.11497 28.82 440.11497 30.62 
L 440.11497 67.912344 
Q 440.11497 69.712344 441.91497 69.712344 
z
" style="fill: #ffffff; opacity: 0.8; stroke: #cccccc; stroke-linejoin: miter"/>
    </g>
    <g id="text_19">
     <!-- Treatment -->
     <g style="fill: #262626" transform="translate(447.729111 38.862031)scale(0.09 -0.09)">
      <use xlink:href="#ArialMT-54"/>
      <use xlink:href="#ArialMT-72" x="57.333984"/>
      <use xlink:href="#ArialMT-65" x="90.634766"/>
      <use xlink:href="#ArialMT-61" x="146.25"/>
      <use xlink:href="#ArialMT-74" x="201.865234"/>
      <use xlink:href="#ArialMT-6d" x="229.648438"/>
      <use xlink:href="#ArialMT-65" x="312.949219"/>
      <use xlink:href="#ArialMT-6e" x="368.564453"/>
      <use xlink:href="#ArialMT-74" x="424.179688"/>
     </g>
    </g>
    <g id="PathCollection_10">
     <defs>
      <path id="me229d6218d" d="M 0 3.872983 
C 1.027127 3.872983 2.012324 3.464901 2.738613 2.738613 
C 3.464901 2.012324 3.872983 1.027127 3.872983 0 
C 3.872983 -1.027127 3.464901 -2.012324 2.738613 -2.738613 
C 2.012324 -3.464901 1.027127 -3.872983 0 -3.872983 
C -1.027127 -3.872983 -2.012324 -3.464901 -2.738613 -2.738613 
C -3.464901 -2.012324 -3.872983 -1.027127 -3.872983 0 
C -3.872983 1.027127 -3.464901 2.012324 -2.738613 2.738613 
C -2.012324 3.464901 -1.027127 3.872983 0 3.872983 
z
" style="stroke: #4c72b0"/>
     </defs>
     <g>
      <use xlink:href="#me229d6218d" x="452.71497" y="49.230313" style="fill: #4c72b0; stroke: #4c72b0"/>
     </g>
    </g>
    <g id="text_20">
     <!-- BEVA -->
     <g style="fill: #262626" transform="translate(468.91497 51.592813)scale(0.09 -0.09)">
      <defs>
       <path id="ArialMT-42" d="M 469 0 
L 469 4581 
L 2188 4581 
Q 2713 4581 3030 4442 
Q 3347 4303 3526 4014 
Q 3706 3725 3706 3409 
Q 3706 3116 3547 2856 
Q 3388 2597 3066 2438 
Q 3481 2316 3704 2022 
Q 3928 1728 3928 1328 
Q 3928 1006 3792 729 
Q 3656 453 3456 303 
Q 3256 153 2954 76 
Q 2653 0 2216 0 
L 469 0 
z
M 1075 2656 
L 2066 2656 
Q 2469 2656 2644 2709 
Q 2875 2778 2992 2937 
Q 3109 3097 3109 3338 
Q 3109 3566 3000 3739 
Q 2891 3913 2687 3977 
Q 2484 4041 1991 4041 
L 1075 4041 
L 1075 2656 
z
M 1075 541 
L 2216 541 
Q 2509 541 2628 563 
Q 2838 600 2978 687 
Q 3119 775 3209 942 
Q 3300 1109 3300 1328 
Q 3300 1584 3169 1773 
Q 3038 1963 2805 2039 
Q 2572 2116 2134 2116 
L 1075 2116 
L 1075 541 
z
" transform="scale(0.015625)"/>
       <path id="ArialMT-45" d="M 506 0 
L 506 4581 
L 3819 4581 
L 3819 4041 
L 1113 4041 
L 1113 2638 
L 3647 2638 
L 3647 2100 
L 1113 2100 
L 1113 541 
L 3925 541 
L 3925 0 
L 506 0 
z
" transform="scale(0.015625)"/>
       <path id="ArialMT-56" d="M 1803 0 
L 28 4581 
L 684 4581 
L 1875 1253 
Q 2019 853 2116 503 
Q 2222 878 2363 1253 
L 3600 4581 
L 4219 4581 
L 2425 0 
L 1803 0 
z
" transform="scale(0.015625)"/>
      </defs>
      <use xlink:href="#ArialMT-42"/>
      <use xlink:href="#ArialMT-45" x="66.699219"/>
      <use xlink:href="#ArialMT-56" x="133.398438"/>
      <use xlink:href="#ArialMT-41" x="192.722656"/>
     </g>
    </g>
    <g id="PathCollection_11">
     <defs>
      <path id="mc64d2a7628" d="M 0 3.872983 
C 1.027127 3.872983 2.012324 3.464901 2.738613 2.738613 
C 3.464901 2.012324 3.872983 1.027127 3.872983 0 
C 3.872983 -1.027127 3.464901 -2.012324 2.738613 -2.738613 
C 2.012324 -3.464901 1.027127 -3.872983 0 -3.872983 
C -1.027127 -3.872983 -2.012324 -3.464901 -2.738613 -2.738613 
C -3.464901 -2.012324 -3.872983 -1.027127 -3.872983 0 
C -3.872983 1.027127 -3.464901 2.012324 -2.738613 2.738613 
C -2.012324 3.464901 -1.027127 3.872983 0 3.872983 
z
" style="stroke: #dd8452"/>
     </defs>
     <g>
      <use xlink:href="#mc64d2a7628" x="452.71497" y="61.961094" style="fill: #dd8452; stroke: #dd8452"/>
     </g>
    </g>
    <g id="text_21">
     <!-- CTRL -->
     <g style="fill: #262626" transform="translate(468.91497 64.323594)scale(0.09 -0.09)">
      <defs>
       <path id="ArialMT-43" d="M 3763 1606 
L 4369 1453 
Q 4178 706 3683 314 
Q 3188 -78 2472 -78 
Q 1731 -78 1267 223 
Q 803 525 561 1097 
Q 319 1669 319 2325 
Q 319 3041 592 3573 
Q 866 4106 1370 4382 
Q 1875 4659 2481 4659 
Q 3169 4659 3637 4309 
Q 4106 3959 4291 3325 
L 3694 3184 
Q 3534 3684 3231 3912 
Q 2928 4141 2469 4141 
Q 1941 4141 1586 3887 
Q 1231 3634 1087 3207 
Q 944 2781 944 2328 
Q 944 1744 1114 1308 
Q 1284 872 1643 656 
Q 2003 441 2422 441 
Q 2931 441 3284 734 
Q 3638 1028 3763 1606 
z
" transform="scale(0.015625)"/>
       <path id="ArialMT-4c" d="M 469 0 
L 469 4581 
L 1075 4581 
L 1075 541 
L 3331 541 
L 3331 0 
L 469 0 
z
" transform="scale(0.015625)"/>
      </defs>
      <use xlink:href="#ArialMT-43"/>
      <use xlink:href="#ArialMT-54" x="72.216797"/>
      <use xlink:href="#ArialMT-52" x="133.300781"/>
      <use xlink:href="#ArialMT-4c" x="205.517578"/>
     </g>
    </g>
   </g>
  </g>
 </g>
 <defs>
  <clipPath id="p960e320d0c">
   <rect x="47.22" y="24.32" width="453.29622" height="189.57811"/>
  </clipPath>
 </defs>
</svg>
