<?xml version="1.0" encoding="utf-8" standalone="no"?>
<!DOCTYPE svg PUBLIC "-//W3C//DTD SVG 1.1//EN"
  "http://www.w3.org/Graphics/SVG/1.1/DTD/svg11.dtd">
<svg xmlns:xlink="http://www.w3.org/1999/xlink" width="510.23622pt" height="255.11811pt" viewBox="0 0 510.23622 255.11811" xmlns="http://www.w3.org/2000/svg" version="1.1">
 <metadata>
  <rdf:RDF xmlns:dc="http://purl.org/dc/elements/1.1/" xmlns:cc="http://creativecommons.org/ns#" xmlns:rdf="http://www.w3.org/1999/02/22-rdf-syntax-ns#">
   <cc:Work>
    <dc:type rdf:resource="http://purl.org/dc/dcmitype/StillImage"/>
    <dc:date>2022-04-27T00:18:25.911666</dc:date>
    <dc:format>image/svg+xml</dc:format>
    <dc:creator>
     <cc:Agent>
      <dc:title>Matplotlib v3.5.1, https://matplotlib.org/</dc:title>
     </cc:Agent>
    </dc:creator>
   </cc:Work>
  </rdf:RDF>
 </metadata>
 <defs>
  <style type="text/css">*{stroke-linejoin: round; stroke-linecap: butt}</style>
 </defs>
 <g id="figure_1">
  <g id="patch_1">
   <path d="M 0 255.11811 
L 510.23622 255.11811 
L 510.23622 0 
L 0 0 
z
" style="fill: #ffffff"/>
  </g>
  <g id="axes_1">
   <g id="patch_2">
    <path d="M 52.22 213.89811 
L 500.51622 213.89811 
L 500.51622 24.32 
L 52.22 24.32 
z
" style="fill: #ffffff"/>
   </g>
   <g id="matplotlib.axis_1">
    <g id="xtick_1">
     <g id="text_1">
      <!-- 49 -->
      <g style="fill: #444444" transform="translate(79.236315 229.840141)scale(0.09 -0.09)">
       <defs>
        <path id="ArialMT-34" d="M 2069 0 
L 2069 1097 
L 81 1097 
L 81 1613 
L 2172 4581 
L 2631 4581 
L 2631 1613 
L 3250 1613 
L 3250 1097 
L 2631 1097 
L 2631 0 
L 2069 0 
z
M 2069 1613 
L 2069 3678 
L 634 1613 
L 2069 1613 
z
" transform="scale(0.015625)"/>
        <path id="ArialMT-39" d="M 350 1059 
L 891 1109 
Q 959 728 1153 556 
Q 1347 384 1650 384 
Q 1909 384 2104 503 
Q 2300 622 2425 820 
Q 2550 1019 2634 1356 
Q 2719 1694 2719 2044 
Q 2719 2081 2716 2156 
Q 2547 1888 2255 1720 
Q 1963 1553 1622 1553 
Q 1053 1553 659 1965 
Q 266 2378 266 3053 
Q 266 3750 677 4175 
Q 1088 4600 1706 4600 
Q 2153 4600 2523 4359 
Q 2894 4119 3086 3673 
Q 3278 3228 3278 2384 
Q 3278 1506 3087 986 
Q 2897 466 2520 194 
Q 2144 -78 1638 -78 
Q 1100 -78 759 220 
Q 419 519 350 1059 
z
M 2653 3081 
Q 2653 3566 2395 3850 
Q 2138 4134 1775 4134 
Q 1400 4134 1122 3828 
Q 844 3522 844 3034 
Q 844 2597 1108 2323 
Q 1372 2050 1759 2050 
Q 2150 2050 2401 2323 
Q 2653 2597 2653 3081 
z
" transform="scale(0.015625)"/>
       </defs>
       <use xlink:href="#ArialMT-34"/>
       <use xlink:href="#ArialMT-39" x="55.615234"/>
      </g>
     </g>
    </g>
    <g id="xtick_2">
     <g id="text_2">
      <!-- 17 -->
      <g style="fill: #444444" transform="translate(143.278632 229.840141)scale(0.09 -0.09)">
       <defs>
        <path id="ArialMT-31" d="M 2384 0 
L 1822 0 
L 1822 3584 
Q 1619 3391 1289 3197 
Q 959 3003 697 2906 
L 697 3450 
Q 1169 3672 1522 3987 
Q 1875 4303 2022 4600 
L 2384 4600 
L 2384 0 
z
" transform="scale(0.015625)"/>
        <path id="ArialMT-37" d="M 303 3981 
L 303 4522 
L 3269 4522 
L 3269 4084 
Q 2831 3619 2401 2847 
Q 1972 2075 1738 1259 
Q 1569 684 1522 0 
L 944 0 
Q 953 541 1156 1306 
Q 1359 2072 1739 2783 
Q 2119 3494 2547 3981 
L 303 3981 
z
" transform="scale(0.015625)"/>
       </defs>
       <use xlink:href="#ArialMT-31"/>
       <use xlink:href="#ArialMT-37" x="55.615234"/>
      </g>
     </g>
    </g>
    <g id="xtick_3">
     <g id="text_3">
      <!-- 69 -->
      <g style="fill: #444444" transform="translate(207.320949 229.840141)scale(0.09 -0.09)">
       <defs>
        <path id="ArialMT-36" d="M 3184 3459 
L 2625 3416 
Q 2550 3747 2413 3897 
Q 2184 4138 1850 4138 
Q 1581 4138 1378 3988 
Q 1113 3794 959 3422 
Q 806 3050 800 2363 
Q 1003 2672 1297 2822 
Q 1591 2972 1913 2972 
Q 2475 2972 2870 2558 
Q 3266 2144 3266 1488 
Q 3266 1056 3080 686 
Q 2894 316 2569 119 
Q 2244 -78 1831 -78 
Q 1128 -78 684 439 
Q 241 956 241 2144 
Q 241 3472 731 4075 
Q 1159 4600 1884 4600 
Q 2425 4600 2770 4297 
Q 3116 3994 3184 3459 
z
M 888 1484 
Q 888 1194 1011 928 
Q 1134 663 1356 523 
Q 1578 384 1822 384 
Q 2178 384 2434 671 
Q 2691 959 2691 1453 
Q 2691 1928 2437 2201 
Q 2184 2475 1800 2475 
Q 1419 2475 1153 2201 
Q 888 1928 888 1484 
z
" transform="scale(0.015625)"/>
       </defs>
       <use xlink:href="#ArialMT-36"/>
       <use xlink:href="#ArialMT-39" x="55.615234"/>
      </g>
     </g>
    </g>
    <g id="xtick_4">
     <g id="text_4">
      <!-- 15 -->
      <g style="fill: #444444" transform="translate(271.363266 229.840141)scale(0.09 -0.09)">
       <defs>
        <path id="ArialMT-35" d="M 266 1200 
L 856 1250 
Q 922 819 1161 601 
Q 1400 384 1738 384 
Q 2144 384 2425 690 
Q 2706 997 2706 1503 
Q 2706 1984 2436 2262 
Q 2166 2541 1728 2541 
Q 1456 2541 1237 2417 
Q 1019 2294 894 2097 
L 366 2166 
L 809 4519 
L 3088 4519 
L 3088 3981 
L 1259 3981 
L 1013 2750 
Q 1425 3038 1878 3038 
Q 2478 3038 2890 2622 
Q 3303 2206 3303 1553 
Q 3303 931 2941 478 
Q 2500 -78 1738 -78 
Q 1113 -78 717 272 
Q 322 622 266 1200 
z
" transform="scale(0.015625)"/>
       </defs>
       <use xlink:href="#ArialMT-31"/>
       <use xlink:href="#ArialMT-35" x="55.615234"/>
      </g>
     </g>
    </g>
    <g id="xtick_5">
     <g id="text_5">
      <!-- 5 -->
      <g style="fill: #444444" transform="translate(337.908006 229.840141)scale(0.09 -0.09)">
       <use xlink:href="#ArialMT-35"/>
      </g>
     </g>
    </g>
    <g id="xtick_6">
     <g id="text_6">
      <!-- 126 -->
      <g style="fill: #444444" transform="translate(396.945479 229.840141)scale(0.09 -0.09)">
       <defs>
        <path id="ArialMT-32" d="M 3222 541 
L 3222 0 
L 194 0 
Q 188 203 259 391 
Q 375 700 629 1000 
Q 884 1300 1366 1694 
Q 2113 2306 2375 2664 
Q 2638 3022 2638 3341 
Q 2638 3675 2398 3904 
Q 2159 4134 1775 4134 
Q 1369 4134 1125 3890 
Q 881 3647 878 3216 
L 300 3275 
Q 359 3922 746 4261 
Q 1134 4600 1788 4600 
Q 2447 4600 2831 4234 
Q 3216 3869 3216 3328 
Q 3216 3053 3103 2787 
Q 2991 2522 2730 2228 
Q 2469 1934 1863 1422 
Q 1356 997 1212 845 
Q 1069 694 975 541 
L 3222 541 
z
" transform="scale(0.015625)"/>
       </defs>
       <use xlink:href="#ArialMT-31"/>
       <use xlink:href="#ArialMT-32" x="55.615234"/>
       <use xlink:href="#ArialMT-36" x="111.230469"/>
      </g>
     </g>
    </g>
    <g id="xtick_7">
     <g id="text_7">
      <!-- 62 -->
      <g style="fill: #444444" transform="translate(463.490218 229.840141)scale(0.09 -0.09)">
       <use xlink:href="#ArialMT-36"/>
       <use xlink:href="#ArialMT-32" x="55.615234"/>
      </g>
     </g>
    </g>
    <g id="text_8">
     <!-- Patient -->
     <g style="fill: #444444" transform="translate(262.359048 242.070923)scale(0.09 -0.09)">
      <defs>
       <path id="ArialMT-50" d="M 494 0 
L 494 4581 
L 2222 4581 
Q 2678 4581 2919 4538 
Q 3256 4481 3484 4323 
Q 3713 4166 3852 3881 
Q 3991 3597 3991 3256 
Q 3991 2672 3619 2267 
Q 3247 1863 2275 1863 
L 1100 1863 
L 1100 0 
L 494 0 
z
M 1100 2403 
L 2284 2403 
Q 2872 2403 3119 2622 
Q 3366 2841 3366 3238 
Q 3366 3525 3220 3729 
Q 3075 3934 2838 4000 
Q 2684 4041 2272 4041 
L 1100 4041 
L 1100 2403 
z
" transform="scale(0.015625)"/>
       <path id="ArialMT-61" d="M 2588 409 
Q 2275 144 1986 34 
Q 1697 -75 1366 -75 
Q 819 -75 525 192 
Q 231 459 231 875 
Q 231 1119 342 1320 
Q 453 1522 633 1644 
Q 813 1766 1038 1828 
Q 1203 1872 1538 1913 
Q 2219 1994 2541 2106 
Q 2544 2222 2544 2253 
Q 2544 2597 2384 2738 
Q 2169 2928 1744 2928 
Q 1347 2928 1158 2789 
Q 969 2650 878 2297 
L 328 2372 
Q 403 2725 575 2942 
Q 747 3159 1072 3276 
Q 1397 3394 1825 3394 
Q 2250 3394 2515 3294 
Q 2781 3194 2906 3042 
Q 3031 2891 3081 2659 
Q 3109 2516 3109 2141 
L 3109 1391 
Q 3109 606 3145 398 
Q 3181 191 3288 0 
L 2700 0 
Q 2613 175 2588 409 
z
M 2541 1666 
Q 2234 1541 1622 1453 
Q 1275 1403 1131 1340 
Q 988 1278 909 1158 
Q 831 1038 831 891 
Q 831 666 1001 516 
Q 1172 366 1500 366 
Q 1825 366 2078 508 
Q 2331 650 2450 897 
Q 2541 1088 2541 1459 
L 2541 1666 
z
" transform="scale(0.015625)"/>
       <path id="ArialMT-74" d="M 1650 503 
L 1731 6 
Q 1494 -44 1306 -44 
Q 1000 -44 831 53 
Q 663 150 594 308 
Q 525 466 525 972 
L 525 2881 
L 113 2881 
L 113 3319 
L 525 3319 
L 525 4141 
L 1084 4478 
L 1084 3319 
L 1650 3319 
L 1650 2881 
L 1084 2881 
L 1084 941 
Q 1084 700 1114 631 
Q 1144 563 1211 522 
Q 1278 481 1403 481 
Q 1497 481 1650 503 
z
" transform="scale(0.015625)"/>
       <path id="ArialMT-69" d="M 425 3934 
L 425 4581 
L 988 4581 
L 988 3934 
L 425 3934 
z
M 425 0 
L 425 3319 
L 988 3319 
L 988 0 
L 425 0 
z
" transform="scale(0.015625)"/>
       <path id="ArialMT-65" d="M 2694 1069 
L 3275 997 
Q 3138 488 2766 206 
Q 2394 -75 1816 -75 
Q 1088 -75 661 373 
Q 234 822 234 1631 
Q 234 2469 665 2931 
Q 1097 3394 1784 3394 
Q 2450 3394 2872 2941 
Q 3294 2488 3294 1666 
Q 3294 1616 3291 1516 
L 816 1516 
Q 847 969 1125 678 
Q 1403 388 1819 388 
Q 2128 388 2347 550 
Q 2566 713 2694 1069 
z
M 847 1978 
L 2700 1978 
Q 2663 2397 2488 2606 
Q 2219 2931 1791 2931 
Q 1403 2931 1139 2672 
Q 875 2413 847 1978 
z
" transform="scale(0.015625)"/>
       <path id="ArialMT-6e" d="M 422 0 
L 422 3319 
L 928 3319 
L 928 2847 
Q 1294 3394 1984 3394 
Q 2284 3394 2536 3286 
Q 2788 3178 2913 3003 
Q 3038 2828 3088 2588 
Q 3119 2431 3119 2041 
L 3119 0 
L 2556 0 
L 2556 2019 
Q 2556 2363 2490 2533 
Q 2425 2703 2258 2804 
Q 2091 2906 1866 2906 
Q 1506 2906 1245 2678 
Q 984 2450 984 1813 
L 984 0 
L 422 0 
z
" transform="scale(0.015625)"/>
      </defs>
      <use xlink:href="#ArialMT-50"/>
      <use xlink:href="#ArialMT-61" x="66.699219"/>
      <use xlink:href="#ArialMT-74" x="122.314453"/>
      <use xlink:href="#ArialMT-69" x="150.097656"/>
      <use xlink:href="#ArialMT-65" x="172.314453"/>
      <use xlink:href="#ArialMT-6e" x="227.929688"/>
      <use xlink:href="#ArialMT-74" x="283.544922"/>
     </g>
    </g>
   </g>
   <g id="matplotlib.axis_2">
    <g id="ytick_1">
     <g id="text_9">
      <!-- 0 -->
      <g style="fill: #444444" transform="translate(37.715156 215.201501)scale(0.09 -0.09)">
       <defs>
        <path id="ArialMT-30" d="M 266 2259 
Q 266 3072 433 3567 
Q 600 4063 929 4331 
Q 1259 4600 1759 4600 
Q 2128 4600 2406 4451 
Q 2684 4303 2865 4023 
Q 3047 3744 3150 3342 
Q 3253 2941 3253 2259 
Q 3253 1453 3087 958 
Q 2922 463 2592 192 
Q 2263 -78 1759 -78 
Q 1097 -78 719 397 
Q 266 969 266 2259 
z
M 844 2259 
Q 844 1131 1108 757 
Q 1372 384 1759 384 
Q 2147 384 2411 759 
Q 2675 1134 2675 2259 
Q 2675 3391 2411 3762 
Q 2147 4134 1753 4134 
Q 1366 4134 1134 3806 
Q 844 3388 844 2259 
z
" transform="scale(0.015625)"/>
       </defs>
       <use xlink:href="#ArialMT-30"/>
      </g>
     </g>
    </g>
    <g id="ytick_2">
     <g id="text_10">
      <!-- 200 -->
      <g style="fill: #444444" transform="translate(27.705469 183.210602)scale(0.09 -0.09)">
       <use xlink:href="#ArialMT-32"/>
       <use xlink:href="#ArialMT-30" x="55.615234"/>
       <use xlink:href="#ArialMT-30" x="111.230469"/>
      </g>
     </g>
    </g>
    <g id="ytick_3">
     <g id="text_11">
      <!-- 400 -->
      <g style="fill: #444444" transform="translate(27.705469 151.219702)scale(0.09 -0.09)">
       <use xlink:href="#ArialMT-34"/>
       <use xlink:href="#ArialMT-30" x="55.615234"/>
       <use xlink:href="#ArialMT-30" x="111.230469"/>
      </g>
     </g>
    </g>
    <g id="ytick_4">
     <g id="text_12">
      <!-- 600 -->
      <g style="fill: #444444" transform="translate(27.705469 119.228802)scale(0.09 -0.09)">
       <use xlink:href="#ArialMT-36"/>
       <use xlink:href="#ArialMT-30" x="55.615234"/>
       <use xlink:href="#ArialMT-30" x="111.230469"/>
      </g>
     </g>
    </g>
    <g id="ytick_5">
     <g id="text_13">
      <!-- 800 -->
      <g style="fill: #444444" transform="translate(27.705469 87.237903)scale(0.09 -0.09)">
       <defs>
        <path id="ArialMT-38" d="M 1131 2484 
Q 781 2613 612 2850 
Q 444 3088 444 3419 
Q 444 3919 803 4259 
Q 1163 4600 1759 4600 
Q 2359 4600 2725 4251 
Q 3091 3903 3091 3403 
Q 3091 3084 2923 2848 
Q 2756 2613 2416 2484 
Q 2838 2347 3058 2040 
Q 3278 1734 3278 1309 
Q 3278 722 2862 322 
Q 2447 -78 1769 -78 
Q 1091 -78 675 323 
Q 259 725 259 1325 
Q 259 1772 486 2073 
Q 713 2375 1131 2484 
z
M 1019 3438 
Q 1019 3113 1228 2906 
Q 1438 2700 1772 2700 
Q 2097 2700 2305 2904 
Q 2513 3109 2513 3406 
Q 2513 3716 2298 3927 
Q 2084 4138 1766 4138 
Q 1444 4138 1231 3931 
Q 1019 3725 1019 3438 
z
M 838 1322 
Q 838 1081 952 856 
Q 1066 631 1291 507 
Q 1516 384 1775 384 
Q 2178 384 2440 643 
Q 2703 903 2703 1303 
Q 2703 1709 2433 1975 
Q 2163 2241 1756 2241 
Q 1359 2241 1098 1978 
Q 838 1716 838 1322 
z
" transform="scale(0.015625)"/>
       </defs>
       <use xlink:href="#ArialMT-38"/>
       <use xlink:href="#ArialMT-30" x="55.615234"/>
       <use xlink:href="#ArialMT-30" x="111.230469"/>
      </g>
     </g>
    </g>
    <g id="ytick_6">
     <g id="text_14">
      <!-- 1000 -->
      <g style="fill: #444444" transform="translate(22.700625 55.247003)scale(0.09 -0.09)">
       <use xlink:href="#ArialMT-31"/>
       <use xlink:href="#ArialMT-30" x="55.615234"/>
       <use xlink:href="#ArialMT-30" x="111.230469"/>
       <use xlink:href="#ArialMT-30" x="166.845703"/>
      </g>
     </g>
    </g>
    <g id="text_15">
     <!-- Trimmed Means of M values (TMM) -->
     <g style="fill: #444444" transform="translate(16.806406 190.194993)rotate(-90)scale(0.09 -0.09)">
      <defs>
       <path id="ArialMT-54" d="M 1659 0 
L 1659 4041 
L 150 4041 
L 150 4581 
L 3781 4581 
L 3781 4041 
L 2266 4041 
L 2266 0 
L 1659 0 
z
" transform="scale(0.015625)"/>
       <path id="ArialMT-72" d="M 416 0 
L 416 3319 
L 922 3319 
L 922 2816 
Q 1116 3169 1280 3281 
Q 1444 3394 1641 3394 
Q 1925 3394 2219 3213 
L 2025 2691 
Q 1819 2813 1613 2813 
Q 1428 2813 1281 2702 
Q 1134 2591 1072 2394 
Q 978 2094 978 1738 
L 978 0 
L 416 0 
z
" transform="scale(0.015625)"/>
       <path id="ArialMT-6d" d="M 422 0 
L 422 3319 
L 925 3319 
L 925 2853 
Q 1081 3097 1340 3245 
Q 1600 3394 1931 3394 
Q 2300 3394 2536 3241 
Q 2772 3088 2869 2813 
Q 3263 3394 3894 3394 
Q 4388 3394 4653 3120 
Q 4919 2847 4919 2278 
L 4919 0 
L 4359 0 
L 4359 2091 
Q 4359 2428 4304 2576 
Q 4250 2725 4106 2815 
Q 3963 2906 3769 2906 
Q 3419 2906 3187 2673 
Q 2956 2441 2956 1928 
L 2956 0 
L 2394 0 
L 2394 2156 
Q 2394 2531 2256 2718 
Q 2119 2906 1806 2906 
Q 1569 2906 1367 2781 
Q 1166 2656 1075 2415 
Q 984 2175 984 1722 
L 984 0 
L 422 0 
z
" transform="scale(0.015625)"/>
       <path id="ArialMT-64" d="M 2575 0 
L 2575 419 
Q 2259 -75 1647 -75 
Q 1250 -75 917 144 
Q 584 363 401 755 
Q 219 1147 219 1656 
Q 219 2153 384 2558 
Q 550 2963 881 3178 
Q 1213 3394 1622 3394 
Q 1922 3394 2156 3267 
Q 2391 3141 2538 2938 
L 2538 4581 
L 3097 4581 
L 3097 0 
L 2575 0 
z
M 797 1656 
Q 797 1019 1065 703 
Q 1334 388 1700 388 
Q 2069 388 2326 689 
Q 2584 991 2584 1609 
Q 2584 2291 2321 2609 
Q 2059 2928 1675 2928 
Q 1300 2928 1048 2622 
Q 797 2316 797 1656 
z
" transform="scale(0.015625)"/>
       <path id="ArialMT-20" transform="scale(0.015625)"/>
       <path id="ArialMT-4d" d="M 475 0 
L 475 4581 
L 1388 4581 
L 2472 1338 
Q 2622 884 2691 659 
Q 2769 909 2934 1394 
L 4031 4581 
L 4847 4581 
L 4847 0 
L 4263 0 
L 4263 3834 
L 2931 0 
L 2384 0 
L 1059 3900 
L 1059 0 
L 475 0 
z
" transform="scale(0.015625)"/>
       <path id="ArialMT-73" d="M 197 991 
L 753 1078 
Q 800 744 1014 566 
Q 1228 388 1613 388 
Q 2000 388 2187 545 
Q 2375 703 2375 916 
Q 2375 1106 2209 1216 
Q 2094 1291 1634 1406 
Q 1016 1563 777 1677 
Q 538 1791 414 1992 
Q 291 2194 291 2438 
Q 291 2659 392 2848 
Q 494 3038 669 3163 
Q 800 3259 1026 3326 
Q 1253 3394 1513 3394 
Q 1903 3394 2198 3281 
Q 2494 3169 2634 2976 
Q 2775 2784 2828 2463 
L 2278 2388 
Q 2241 2644 2061 2787 
Q 1881 2931 1553 2931 
Q 1166 2931 1000 2803 
Q 834 2675 834 2503 
Q 834 2394 903 2306 
Q 972 2216 1119 2156 
Q 1203 2125 1616 2013 
Q 2213 1853 2448 1751 
Q 2684 1650 2818 1456 
Q 2953 1263 2953 975 
Q 2953 694 2789 445 
Q 2625 197 2315 61 
Q 2006 -75 1616 -75 
Q 969 -75 630 194 
Q 291 463 197 991 
z
" transform="scale(0.015625)"/>
       <path id="ArialMT-6f" d="M 213 1659 
Q 213 2581 725 3025 
Q 1153 3394 1769 3394 
Q 2453 3394 2887 2945 
Q 3322 2497 3322 1706 
Q 3322 1066 3130 698 
Q 2938 331 2570 128 
Q 2203 -75 1769 -75 
Q 1072 -75 642 372 
Q 213 819 213 1659 
z
M 791 1659 
Q 791 1022 1069 705 
Q 1347 388 1769 388 
Q 2188 388 2466 706 
Q 2744 1025 2744 1678 
Q 2744 2294 2464 2611 
Q 2184 2928 1769 2928 
Q 1347 2928 1069 2612 
Q 791 2297 791 1659 
z
" transform="scale(0.015625)"/>
       <path id="ArialMT-66" d="M 556 0 
L 556 2881 
L 59 2881 
L 59 3319 
L 556 3319 
L 556 3672 
Q 556 4006 616 4169 
Q 697 4388 901 4523 
Q 1106 4659 1475 4659 
Q 1713 4659 2000 4603 
L 1916 4113 
Q 1741 4144 1584 4144 
Q 1328 4144 1222 4034 
Q 1116 3925 1116 3625 
L 1116 3319 
L 1763 3319 
L 1763 2881 
L 1116 2881 
L 1116 0 
L 556 0 
z
" transform="scale(0.015625)"/>
       <path id="ArialMT-76" d="M 1344 0 
L 81 3319 
L 675 3319 
L 1388 1331 
Q 1503 1009 1600 663 
Q 1675 925 1809 1294 
L 2547 3319 
L 3125 3319 
L 1869 0 
L 1344 0 
z
" transform="scale(0.015625)"/>
       <path id="ArialMT-6c" d="M 409 0 
L 409 4581 
L 972 4581 
L 972 0 
L 409 0 
z
" transform="scale(0.015625)"/>
       <path id="ArialMT-75" d="M 2597 0 
L 2597 488 
Q 2209 -75 1544 -75 
Q 1250 -75 995 37 
Q 741 150 617 320 
Q 494 491 444 738 
Q 409 903 409 1263 
L 409 3319 
L 972 3319 
L 972 1478 
Q 972 1038 1006 884 
Q 1059 663 1231 536 
Q 1403 409 1656 409 
Q 1909 409 2131 539 
Q 2353 669 2445 892 
Q 2538 1116 2538 1541 
L 2538 3319 
L 3100 3319 
L 3100 0 
L 2597 0 
z
" transform="scale(0.015625)"/>
       <path id="ArialMT-28" d="M 1497 -1347 
Q 1031 -759 709 28 
Q 388 816 388 1659 
Q 388 2403 628 3084 
Q 909 3875 1497 4659 
L 1900 4659 
Q 1522 4009 1400 3731 
Q 1209 3300 1100 2831 
Q 966 2247 966 1656 
Q 966 153 1900 -1347 
L 1497 -1347 
z
" transform="scale(0.015625)"/>
       <path id="ArialMT-29" d="M 791 -1347 
L 388 -1347 
Q 1322 153 1322 1656 
Q 1322 2244 1188 2822 
Q 1081 3291 891 3722 
Q 769 4003 388 4659 
L 791 4659 
Q 1378 3875 1659 3084 
Q 1900 2403 1900 1659 
Q 1900 816 1576 28 
Q 1253 -759 791 -1347 
z
" transform="scale(0.015625)"/>
      </defs>
      <use xlink:href="#ArialMT-54"/>
      <use xlink:href="#ArialMT-72" x="57.333984"/>
      <use xlink:href="#ArialMT-69" x="90.634766"/>
      <use xlink:href="#ArialMT-6d" x="112.851562"/>
      <use xlink:href="#ArialMT-6d" x="196.152344"/>
      <use xlink:href="#ArialMT-65" x="279.453125"/>
      <use xlink:href="#ArialMT-64" x="335.068359"/>
      <use xlink:href="#ArialMT-20" x="390.683594"/>
      <use xlink:href="#ArialMT-4d" x="418.466797"/>
      <use xlink:href="#ArialMT-65" x="501.767578"/>
      <use xlink:href="#ArialMT-61" x="557.382812"/>
      <use xlink:href="#ArialMT-6e" x="612.998047"/>
      <use xlink:href="#ArialMT-73" x="668.613281"/>
      <use xlink:href="#ArialMT-20" x="718.613281"/>
      <use xlink:href="#ArialMT-6f" x="746.396484"/>
      <use xlink:href="#ArialMT-66" x="802.011719"/>
      <use xlink:href="#ArialMT-20" x="829.794922"/>
      <use xlink:href="#ArialMT-4d" x="857.578125"/>
      <use xlink:href="#ArialMT-20" x="940.878906"/>
      <use xlink:href="#ArialMT-76" x="968.662109"/>
      <use xlink:href="#ArialMT-61" x="1018.662109"/>
      <use xlink:href="#ArialMT-6c" x="1074.277344"/>
      <use xlink:href="#ArialMT-75" x="1096.494141"/>
      <use xlink:href="#ArialMT-65" x="1152.109375"/>
      <use xlink:href="#ArialMT-73" x="1207.724609"/>
      <use xlink:href="#ArialMT-20" x="1257.724609"/>
      <use xlink:href="#ArialMT-28" x="1285.507812"/>
      <use xlink:href="#ArialMT-54" x="1318.808594"/>
      <use xlink:href="#ArialMT-4d" x="1379.892578"/>
      <use xlink:href="#ArialMT-4d" x="1463.193359"/>
      <use xlink:href="#ArialMT-29" x="1546.494141"/>
     </g>
    </g>
   </g>
   <g id="PolyCollection_1">
    <defs>
     <path id="m56a1e211ce" d="M 86.655249 -114.669958 
L 81.827068 -114.669958 
L 81.777443 -115.463527 
L 81.730585 -116.257097 
L 81.686612 -117.050667 
L 81.645627 -117.844236 
L 81.607708 -118.637806 
L 81.572914 -119.431376 
L 81.541283 -120.224945 
L 81.512828 -121.018515 
L 81.487542 -121.812084 
L 81.465397 -122.605654 
L 81.446343 -123.399224 
L 81.43031 -124.192793 
L 81.41721 -124.986363 
L 81.406937 -125.779933 
L 81.399368 -126.573502 
L 81.394369 -127.367072 
L 81.391791 -128.160642 
L 81.391475 -128.954211 
L 81.393257 -129.747781 
L 81.396964 -130.541351 
L 81.402422 -131.33492 
L 81.409455 -132.12849 
L 81.417891 -132.922059 
L 81.427557 -133.715629 
L 81.438292 -134.509199 
L 81.449937 -135.302768 
L 81.462347 -136.096338 
L 81.475387 -136.889908 
L 81.488936 -137.683477 
L 81.502885 -138.477047 
L 81.517144 -139.270617 
L 81.531635 -140.064186 
L 81.546299 -140.857756 
L 81.561093 -141.651325 
L 81.575991 -142.444895 
L 81.590983 -143.238465 
L 81.606073 -144.032034 
L 81.621283 -144.825604 
L 81.636645 -145.619174 
L 81.652206 -146.412743 
L 81.668021 -147.206313 
L 81.684158 -147.999883 
L 81.700688 -148.793452 
L 81.717691 -149.587022 
L 81.735247 -150.380592 
L 81.753441 -151.174161 
L 81.772356 -151.967731 
L 81.792072 -152.7613 
L 81.812665 -153.55487 
L 81.834207 -154.34844 
L 81.856761 -155.142009 
L 81.88038 -155.935579 
L 81.90511 -156.729149 
L 81.930982 -157.522718 
L 81.958019 -158.316288 
L 81.986227 -159.109858 
L 82.015603 -159.903427 
L 82.046129 -160.696997 
L 82.077773 -161.490567 
L 82.110491 -162.284136 
L 82.144228 -163.077706 
L 82.178916 -163.871275 
L 82.214477 -164.664845 
L 82.250823 -165.458415 
L 82.287857 -166.251984 
L 82.325477 -167.045554 
L 82.363574 -167.839124 
L 82.402036 -168.632693 
L 82.440747 -169.426263 
L 82.479591 -170.219833 
L 82.518452 -171.013402 
L 82.557218 -171.806972 
L 82.595779 -172.600542 
L 82.63403 -173.394111 
L 82.671871 -174.187681 
L 82.709212 -174.98125 
L 82.745971 -175.77482 
L 82.782071 -176.56839 
L 82.817451 -177.361959 
L 82.852055 -178.155529 
L 82.885842 -178.949099 
L 82.918777 -179.742668 
L 82.950841 -180.536238 
L 82.982022 -181.329808 
L 83.012318 -182.123377 
L 83.04174 -182.916947 
L 83.070306 -183.710517 
L 83.098043 -184.504086 
L 83.124984 -185.297656 
L 83.151172 -186.091225 
L 83.176652 -186.884795 
L 83.201477 -187.678365 
L 83.225702 -188.471934 
L 83.249385 -189.265504 
L 83.272584 -190.059074 
L 83.295359 -190.852643 
L 83.31777 -191.646213 
L 83.339875 -192.439783 
L 83.361727 -193.233352 
L 85.12059 -193.233352 
L 85.12059 -193.233352 
L 85.142443 -192.439783 
L 85.164547 -191.646213 
L 85.186958 -190.852643 
L 85.209733 -190.059074 
L 85.232932 -189.265504 
L 85.256615 -188.471934 
L 85.28084 -187.678365 
L 85.305665 -186.884795 
L 85.331145 -186.091225 
L 85.357333 -185.297656 
L 85.384274 -184.504086 
L 85.412011 -183.710517 
L 85.440577 -182.916947 
L 85.469999 -182.123377 
L 85.500296 -181.329808 
L 85.531476 -180.536238 
L 85.56354 -179.742668 
L 85.596475 -178.949099 
L 85.630262 -178.155529 
L 85.664866 -177.361959 
L 85.700246 -176.56839 
L 85.736347 -175.77482 
L 85.773105 -174.98125 
L 85.810446 -174.187681 
L 85.848288 -173.394111 
L 85.886538 -172.600542 
L 85.925099 -171.806972 
L 85.963865 -171.013402 
L 86.002727 -170.219833 
L 86.041571 -169.426263 
L 86.080281 -168.632693 
L 86.118743 -167.839124 
L 86.15684 -167.045554 
L 86.19446 -166.251984 
L 86.231495 -165.458415 
L 86.26784 -164.664845 
L 86.303401 -163.871275 
L 86.338089 -163.077706 
L 86.371826 -162.284136 
L 86.404545 -161.490567 
L 86.436189 -160.696997 
L 86.466714 -159.903427 
L 86.49609 -159.109858 
L 86.524299 -158.316288 
L 86.551335 -157.522718 
L 86.577208 -156.729149 
L 86.601937 -155.935579 
L 86.625556 -155.142009 
L 86.64811 -154.34844 
L 86.669652 -153.55487 
L 86.690245 -152.7613 
L 86.709961 -151.967731 
L 86.728876 -151.174161 
L 86.74707 -150.380592 
L 86.764626 -149.587022 
L 86.781629 -148.793452 
L 86.798159 -147.999883 
L 86.814296 -147.206313 
L 86.830112 -146.412743 
L 86.845672 -145.619174 
L 86.861034 -144.825604 
L 86.876244 -144.032034 
L 86.891335 -143.238465 
L 86.906326 -142.444895 
L 86.921224 -141.651325 
L 86.936019 -140.857756 
L 86.950683 -140.064186 
L 86.965174 -139.270617 
L 86.979432 -138.477047 
L 86.993382 -137.683477 
L 87.00693 -136.889908 
L 87.01997 -136.096338 
L 87.03238 -135.302768 
L 87.044026 -134.509199 
L 87.05476 -133.715629 
L 87.064427 -132.922059 
L 87.072862 -132.12849 
L 87.079895 -131.33492 
L 87.085353 -130.541351 
L 87.08906 -129.747781 
L 87.090842 -128.954211 
L 87.090526 -128.160642 
L 87.087948 -127.367072 
L 87.082949 -126.573502 
L 87.075381 -125.779933 
L 87.065107 -124.986363 
L 87.052007 -124.192793 
L 87.035974 -123.399224 
L 87.01692 -122.605654 
L 86.994775 -121.812084 
L 86.969489 -121.018515 
L 86.941034 -120.224945 
L 86.909403 -119.431376 
L 86.874609 -118.637806 
L 86.836691 -117.844236 
L 86.795705 -117.050667 
L 86.751733 -116.257097 
L 86.704874 -115.463527 
L 86.655249 -114.669958 
z
" style="stroke: #999999; stroke-width: 2"/>
    </defs>
    <g clip-path="url(#p2381bcd781)">
     <use xlink:href="#m56a1e211ce" x="0" y="255.11811" style="fill: #ffffff; stroke: #999999; stroke-width: 2"/>
    </g>
   </g>
   <g id="PolyCollection_2">
    <defs>
     <path id="mf829dbcaa9" d="M 154.973779 -71.399003 
L 141.593173 -71.399003 
L 141.355229 -71.570495 
L 141.114552 -71.741987 
L 140.871282 -71.913479 
L 140.625574 -72.08497 
L 140.377599 -72.256462 
L 140.127551 -72.427954 
L 139.875645 -72.599446 
L 139.622123 -72.770937 
L 139.367258 -72.942429 
L 139.111356 -73.113921 
L 138.854758 -73.285413 
L 138.597844 -73.456905 
L 138.341033 -73.628396 
L 138.084788 -73.799888 
L 137.829613 -73.97138 
L 137.576053 -74.142872 
L 137.324701 -74.314363 
L 137.076186 -74.485855 
L 136.831181 -74.657347 
L 136.590395 -74.828839 
L 136.354569 -75.00033 
L 136.124477 -75.171822 
L 135.900916 -75.343314 
L 135.684702 -75.514806 
L 135.476666 -75.686298 
L 135.277642 -75.857789 
L 135.088465 -76.029281 
L 134.909959 -76.200773 
L 134.742931 -76.372265 
L 134.588161 -76.543756 
L 134.446394 -76.715248 
L 134.318332 -76.88674 
L 134.204623 -77.058232 
L 134.105855 -77.229724 
L 134.022546 -77.401215 
L 133.95514 -77.572707 
L 133.903996 -77.744199 
L 133.869384 -77.915691 
L 133.85148 -78.087182 
L 133.85036 -78.258674 
L 133.866001 -78.430166 
L 133.898272 -78.601658 
L 133.946941 -78.773149 
L 134.011669 -78.944641 
L 134.092014 -79.116133 
L 134.187436 -79.287625 
L 134.297298 -79.459117 
L 134.42087 -79.630608 
L 134.557341 -79.8021 
L 134.70582 -79.973592 
L 134.865351 -80.145084 
L 135.034913 -80.316575 
L 135.213442 -80.488067 
L 135.399831 -80.659559 
L 135.592947 -80.831051 
L 135.79164 -81.002542 
L 135.994758 -81.174034 
L 136.201153 -81.345526 
L 136.409698 -81.517018 
L 136.619296 -81.68851 
L 136.828889 -81.860001 
L 137.037472 -82.031493 
L 137.244101 -82.202985 
L 137.4479 -82.374477 
L 137.648071 -82.545968 
L 137.843901 -82.71746 
L 138.034765 -82.888952 
L 138.220133 -83.060444 
L 138.399574 -83.231936 
L 138.572753 -83.403427 
L 138.739437 -83.574919 
L 138.899495 -83.746411 
L 139.052889 -83.917903 
L 139.199681 -84.089394 
L 139.34002 -84.260886 
L 139.474144 -84.432378 
L 139.602369 -84.60387 
L 139.725083 -84.775361 
L 139.842743 -84.946853 
L 139.955859 -85.118345 
L 140.064991 -85.289837 
L 140.170737 -85.461329 
L 140.273726 -85.63282 
L 140.374604 -85.804312 
L 140.474031 -85.975804 
L 140.572664 -86.147296 
L 140.671156 -86.318787 
L 140.770139 -86.490279 
L 140.870222 -86.661771 
L 140.971981 -86.833263 
L 141.07595 -87.004754 
L 141.182619 -87.176246 
L 141.292426 -87.347738 
L 141.405751 -87.51923 
L 141.522916 -87.690722 
L 141.644178 -87.862213 
L 141.769731 -88.033705 
L 141.899703 -88.205197 
L 142.034156 -88.376689 
L 154.532796 -88.376689 
L 154.532796 -88.376689 
L 154.667248 -88.205197 
L 154.79722 -88.033705 
L 154.922774 -87.862213 
L 155.044036 -87.690722 
L 155.161201 -87.51923 
L 155.274526 -87.347738 
L 155.384333 -87.176246 
L 155.491002 -87.004754 
L 155.594971 -86.833263 
L 155.696729 -86.661771 
L 155.796812 -86.490279 
L 155.895796 -86.318787 
L 155.994287 -86.147296 
L 156.092921 -85.975804 
L 156.192348 -85.804312 
L 156.293226 -85.63282 
L 156.396215 -85.461329 
L 156.501961 -85.289837 
L 156.611093 -85.118345 
L 156.724208 -84.946853 
L 156.841868 -84.775361 
L 156.964583 -84.60387 
L 157.092808 -84.432378 
L 157.226931 -84.260886 
L 157.367271 -84.089394 
L 157.514063 -83.917903 
L 157.667457 -83.746411 
L 157.827514 -83.574919 
L 157.994199 -83.403427 
L 158.167378 -83.231936 
L 158.346818 -83.060444 
L 158.532187 -82.888952 
L 158.723051 -82.71746 
L 158.918881 -82.545968 
L 159.119052 -82.374477 
L 159.322851 -82.202985 
L 159.52948 -82.031493 
L 159.738063 -81.860001 
L 159.947656 -81.68851 
L 160.157253 -81.517018 
L 160.365798 -81.345526 
L 160.572194 -81.174034 
L 160.775311 -81.002542 
L 160.974005 -80.831051 
L 161.167121 -80.659559 
L 161.353509 -80.488067 
L 161.532038 -80.316575 
L 161.701601 -80.145084 
L 161.861131 -79.973592 
L 162.009611 -79.8021 
L 162.146082 -79.630608 
L 162.269654 -79.459117 
L 162.379515 -79.287625 
L 162.474938 -79.116133 
L 162.555283 -78.944641 
L 162.620011 -78.773149 
L 162.668679 -78.601658 
L 162.700951 -78.430166 
L 162.716591 -78.258674 
L 162.715472 -78.087182 
L 162.697567 -77.915691 
L 162.662955 -77.744199 
L 162.611811 -77.572707 
L 162.544405 -77.401215 
L 162.461097 -77.229724 
L 162.362329 -77.058232 
L 162.24862 -76.88674 
L 162.120557 -76.715248 
L 161.978791 -76.543756 
L 161.824021 -76.372265 
L 161.656993 -76.200773 
L 161.478487 -76.029281 
L 161.28931 -75.857789 
L 161.090286 -75.686298 
L 160.882249 -75.514806 
L 160.666036 -75.343314 
L 160.442475 -75.171822 
L 160.212383 -75.00033 
L 159.976557 -74.828839 
L 159.73577 -74.657347 
L 159.490765 -74.485855 
L 159.242251 -74.314363 
L 158.990898 -74.142872 
L 158.737339 -73.97138 
L 158.482163 -73.799888 
L 158.225918 -73.628396 
L 157.969108 -73.456905 
L 157.712194 -73.285413 
L 157.455596 -73.113921 
L 157.199694 -72.942429 
L 156.944829 -72.770937 
L 156.691307 -72.599446 
L 156.439401 -72.427954 
L 156.189352 -72.256462 
L 155.941378 -72.08497 
L 155.69567 -71.913479 
L 155.4524 -71.741987 
L 155.211723 -71.570495 
L 154.973779 -71.399003 
z
" style="stroke: #999999; stroke-width: 2"/>
    </defs>
    <g clip-path="url(#p2381bcd781)">
     <use xlink:href="#mf829dbcaa9" x="0" y="255.11811" style="fill: #ffffff; stroke: #999999; stroke-width: 2"/>
    </g>
   </g>
   <g id="PolyCollection_3">
    <defs>
     <path id="ma7ca973ab3" d="M 232.993153 -67.381433 
L 191.658434 -67.381433 
L 191.064077 -67.521052 
L 190.496028 -67.660672 
L 189.957362 -67.800291 
L 189.451066 -67.939911 
L 188.980015 -68.07953 
L 188.546943 -68.21915 
L 188.154418 -68.358769 
L 187.804816 -68.498389 
L 187.500299 -68.638008 
L 187.242794 -68.777628 
L 187.033967 -68.917247 
L 186.875212 -69.056867 
L 186.76763 -69.196486 
L 186.71202 -69.336106 
L 186.708866 -69.475725 
L 186.758332 -69.615345 
L 186.860259 -69.754964 
L 187.014159 -69.894584 
L 187.219228 -70.034203 
L 187.474342 -70.173823 
L 187.778072 -70.313442 
L 188.128696 -70.453062 
L 188.524213 -70.592681 
L 188.962363 -70.732301 
L 189.440646 -70.87192 
L 189.956348 -71.01154 
L 190.506562 -71.151159 
L 191.088217 -71.290779 
L 191.698109 -71.430398 
L 192.332922 -71.570018 
L 192.989265 -71.709637 
L 193.663698 -71.849257 
L 194.352758 -71.988876 
L 195.052996 -72.128496 
L 195.760996 -72.268115 
L 196.473405 -72.407735 
L 197.186958 -72.547354 
L 197.8985 -72.686974 
L 198.605007 -72.826593 
L 199.303604 -72.966213 
L 199.991584 -73.105832 
L 200.666416 -73.245452 
L 201.325761 -73.385071 
L 201.967481 -73.524691 
L 202.58964 -73.66431 
L 203.190515 -73.80393 
L 203.76859 -73.943549 
L 204.322561 -74.083169 
L 204.851331 -74.222788 
L 205.354002 -74.362408 
L 205.829876 -74.502027 
L 206.27844 -74.641647 
L 206.699362 -74.781266 
L 207.092479 -74.920886 
L 207.457786 -75.060505 
L 207.795425 -75.200125 
L 208.105673 -75.339744 
L 208.388934 -75.479364 
L 208.645722 -75.618983 
L 208.876653 -75.758603 
L 209.082433 -75.898222 
L 209.263848 -76.037842 
L 209.421752 -76.177461 
L 209.557062 -76.317081 
L 209.670745 -76.4567 
L 209.763812 -76.59632 
L 209.837312 -76.735939 
L 209.892321 -76.875559 
L 209.929944 -77.015178 
L 209.951301 -77.154797 
L 209.957529 -77.294417 
L 209.949775 -77.434036 
L 209.929192 -77.573656 
L 209.896939 -77.713275 
L 209.854171 -77.852895 
L 209.802046 -77.992514 
L 209.741711 -78.132134 
L 209.674309 -78.271753 
L 209.600969 -78.411373 
L 209.522807 -78.550992 
L 209.440923 -78.690612 
L 209.356396 -78.830231 
L 209.270279 -78.969851 
L 209.1836 -79.10947 
L 209.097355 -79.24909 
L 209.012505 -79.388709 
L 208.92997 -79.528329 
L 208.85063 -79.667948 
L 208.775314 -79.807568 
L 208.704801 -79.947187 
L 208.639814 -80.086807 
L 208.581016 -80.226426 
L 208.529007 -80.366046 
L 208.48432 -80.505665 
L 208.447421 -80.645285 
L 208.418702 -80.784904 
L 208.398482 -80.924524 
L 208.387005 -81.064143 
L 208.38444 -81.203763 
L 216.267146 -81.203763 
L 216.267146 -81.203763 
L 216.264582 -81.064143 
L 216.253104 -80.924524 
L 216.232884 -80.784904 
L 216.204165 -80.645285 
L 216.167266 -80.505665 
L 216.122579 -80.366046 
L 216.07057 -80.226426 
L 216.011772 -80.086807 
L 215.946785 -79.947187 
L 215.876272 -79.807568 
L 215.800956 -79.667948 
L 215.721616 -79.528329 
L 215.639081 -79.388709 
L 215.554231 -79.24909 
L 215.467986 -79.10947 
L 215.381307 -78.969851 
L 215.29519 -78.830231 
L 215.210663 -78.690612 
L 215.128779 -78.550992 
L 215.050617 -78.411373 
L 214.977277 -78.271753 
L 214.909875 -78.132134 
L 214.84954 -77.992514 
L 214.797415 -77.852895 
L 214.754647 -77.713275 
L 214.722394 -77.573656 
L 214.701812 -77.434036 
L 214.694057 -77.294417 
L 214.700285 -77.154797 
L 214.721642 -77.015178 
L 214.759265 -76.875559 
L 214.814274 -76.735939 
L 214.887774 -76.59632 
L 214.980841 -76.4567 
L 215.094524 -76.317081 
L 215.229834 -76.177461 
L 215.387738 -76.037842 
L 215.569153 -75.898222 
L 215.774933 -75.758603 
L 216.005864 -75.618983 
L 216.262652 -75.479364 
L 216.545913 -75.339744 
L 216.856162 -75.200125 
L 217.1938 -75.060505 
L 217.559107 -74.920886 
L 217.952224 -74.781266 
L 218.373146 -74.641647 
L 218.82171 -74.502027 
L 219.297584 -74.362408 
L 219.800256 -74.222788 
L 220.329025 -74.083169 
L 220.882996 -73.943549 
L 221.461071 -73.80393 
L 222.061946 -73.66431 
L 222.684105 -73.524691 
L 223.325825 -73.385071 
L 223.98517 -73.245452 
L 224.660002 -73.105832 
L 225.347982 -72.966213 
L 226.046579 -72.826593 
L 226.753087 -72.686974 
L 227.464629 -72.547354 
L 228.178181 -72.407735 
L 228.89059 -72.268115 
L 229.59859 -72.128496 
L 230.298828 -71.988876 
L 230.987888 -71.849257 
L 231.662321 -71.709637 
L 232.318664 -71.570018 
L 232.953477 -71.430398 
L 233.563369 -71.290779 
L 234.145024 -71.151159 
L 234.695238 -71.01154 
L 235.21094 -70.87192 
L 235.689223 -70.732301 
L 236.127373 -70.592681 
L 236.52289 -70.453062 
L 236.873514 -70.313442 
L 237.177244 -70.173823 
L 237.432358 -70.034203 
L 237.637427 -69.894584 
L 237.791327 -69.754964 
L 237.893254 -69.615345 
L 237.94272 -69.475725 
L 237.939566 -69.336106 
L 237.883956 -69.196486 
L 237.776374 -69.056867 
L 237.617619 -68.917247 
L 237.408792 -68.777628 
L 237.151287 -68.638008 
L 236.84677 -68.498389 
L 236.497169 -68.358769 
L 236.104643 -68.21915 
L 235.671571 -68.07953 
L 235.20052 -67.939911 
L 234.694224 -67.800291 
L 234.155558 -67.660672 
L 233.587509 -67.521052 
L 232.993153 -67.381433 
z
" style="stroke: #999999; stroke-width: 2"/>
    </defs>
    <g clip-path="url(#p2381bcd781)">
     <use xlink:href="#ma7ca973ab3" x="0" y="255.11811" style="fill: #ffffff; stroke: #999999; stroke-width: 2"/>
    </g>
   </g>
   <g id="PolyCollection_4">
    <defs>
     <path id="mdab1ed22ff" d="M 285.044644 -49.837187 
L 267.691576 -49.837187 
L 267.426469 -49.980741 
L 267.164658 -50.124295 
L 266.906269 -50.26785 
L 266.651369 -50.411404 
L 266.399972 -50.554958 
L 266.152042 -50.698512 
L 265.9075 -50.842067 
L 265.66623 -50.985621 
L 265.428088 -51.129175 
L 265.192908 -51.272729 
L 264.960509 -51.416284 
L 264.730707 -51.559838 
L 264.503319 -51.703392 
L 264.278172 -51.846946 
L 264.055109 -51.990501 
L 263.833999 -52.134055 
L 263.614737 -52.277609 
L 263.397251 -52.421163 
L 263.181509 -52.564718 
L 262.967516 -52.708272 
L 262.755319 -52.851826 
L 262.545006 -52.99538 
L 262.336707 -53.138935 
L 262.130594 -53.282489 
L 261.926875 -53.426043 
L 261.725796 -53.569597 
L 261.527637 -53.713152 
L 261.332707 -53.856706 
L 261.141343 -54.00026 
L 260.953907 -54.143814 
L 260.770782 -54.287369 
L 260.592368 -54.430923 
L 260.419084 -54.574477 
L 260.251359 -54.718031 
L 260.08964 -54.861586 
L 259.934382 -55.00514 
L 259.786053 -55.148694 
L 259.645131 -55.292248 
L 259.512105 -55.435803 
L 259.387477 -55.579357 
L 259.271759 -55.722911 
L 259.165475 -55.866465 
L 259.069162 -56.01002 
L 258.983367 -56.153574 
L 258.908648 -56.297128 
L 258.84557 -56.440682 
L 258.794705 -56.584237 
L 258.756627 -56.727791 
L 258.731908 -56.871345 
L 258.72111 -57.014899 
L 258.724784 -57.158454 
L 258.743456 -57.302008 
L 258.777625 -57.445562 
L 258.827749 -57.589116 
L 258.894238 -57.732671 
L 258.977445 -57.876225 
L 259.077656 -58.019779 
L 259.195078 -58.163334 
L 259.329832 -58.306888 
L 259.481946 -58.450442 
L 259.651345 -58.593996 
L 259.837846 -58.737551 
L 260.041154 -58.881105 
L 260.260857 -59.024659 
L 260.49643 -59.168213 
L 260.747228 -59.311768 
L 261.012496 -59.455322 
L 261.291371 -59.598876 
L 261.58289 -59.74243 
L 261.885996 -59.885985 
L 262.199553 -60.029539 
L 262.522356 -60.173093 
L 262.853144 -60.316647 
L 263.190617 -60.460202 
L 263.533449 -60.603756 
L 263.880307 -60.74731 
L 264.229865 -60.890864 
L 264.580819 -61.034419 
L 264.931907 -61.177973 
L 265.281919 -61.321527 
L 265.629713 -61.465081 
L 265.974225 -61.608636 
L 266.314483 -61.75219 
L 266.649611 -61.895744 
L 266.978839 -62.039298 
L 267.301506 -62.182853 
L 267.617063 -62.326407 
L 267.925074 -62.469961 
L 268.225211 -62.613515 
L 268.517256 -62.75707 
L 268.801089 -62.900624 
L 269.076688 -63.044178 
L 269.344112 -63.187732 
L 269.603501 -63.331287 
L 269.855058 -63.474841 
L 270.099043 -63.618395 
L 270.335758 -63.761949 
L 270.565537 -63.905504 
L 270.788737 -64.049058 
L 281.947484 -64.049058 
L 281.947484 -64.049058 
L 282.170683 -63.905504 
L 282.400463 -63.761949 
L 282.637177 -63.618395 
L 282.881162 -63.474841 
L 283.132719 -63.331287 
L 283.392108 -63.187732 
L 283.659533 -63.044178 
L 283.935131 -62.900624 
L 284.218964 -62.75707 
L 284.511009 -62.613515 
L 284.811147 -62.469961 
L 285.119157 -62.326407 
L 285.434715 -62.182853 
L 285.757382 -62.039298 
L 286.086609 -61.895744 
L 286.421737 -61.75219 
L 286.761995 -61.608636 
L 287.106507 -61.465081 
L 287.454301 -61.321527 
L 287.804313 -61.177973 
L 288.155402 -61.034419 
L 288.506356 -60.890864 
L 288.855913 -60.74731 
L 289.202771 -60.603756 
L 289.545603 -60.460202 
L 289.883076 -60.316647 
L 290.213864 -60.173093 
L 290.536667 -60.029539 
L 290.850224 -59.885985 
L 291.15333 -59.74243 
L 291.444849 -59.598876 
L 291.723724 -59.455322 
L 291.988993 -59.311768 
L 292.239791 -59.168213 
L 292.475363 -59.024659 
L 292.695067 -58.881105 
L 292.898374 -58.737551 
L 293.084875 -58.593996 
L 293.254274 -58.450442 
L 293.406388 -58.306888 
L 293.541143 -58.163334 
L 293.658564 -58.019779 
L 293.758775 -57.876225 
L 293.841983 -57.732671 
L 293.908472 -57.589116 
L 293.958596 -57.445562 
L 293.992764 -57.302008 
L 294.011437 -57.158454 
L 294.01511 -57.014899 
L 294.004313 -56.871345 
L 293.979593 -56.727791 
L 293.941515 -56.584237 
L 293.890651 -56.440682 
L 293.827573 -56.297128 
L 293.752854 -56.153574 
L 293.667059 -56.01002 
L 293.570746 -55.866465 
L 293.464462 -55.722911 
L 293.348744 -55.579357 
L 293.224116 -55.435803 
L 293.09109 -55.292248 
L 292.950167 -55.148694 
L 292.801838 -55.00514 
L 292.64658 -54.861586 
L 292.484861 -54.718031 
L 292.317137 -54.574477 
L 292.143852 -54.430923 
L 291.965439 -54.287369 
L 291.782313 -54.143814 
L 291.594877 -54.00026 
L 291.403514 -53.856706 
L 291.208584 -53.713152 
L 291.010424 -53.569597 
L 290.809346 -53.426043 
L 290.605627 -53.282489 
L 290.399513 -53.138935 
L 290.191215 -52.99538 
L 289.980901 -52.851826 
L 289.768704 -52.708272 
L 289.554711 -52.564718 
L 289.338969 -52.421163 
L 289.121484 -52.277609 
L 288.902222 -52.134055 
L 288.681111 -51.990501 
L 288.458049 -51.846946 
L 288.232902 -51.703392 
L 288.005513 -51.559838 
L 287.775711 -51.416284 
L 287.543313 -51.272729 
L 287.308132 -51.129175 
L 287.06999 -50.985621 
L 286.828721 -50.842067 
L 286.584179 -50.698512 
L 286.336248 -50.554958 
L 286.084851 -50.411404 
L 285.829952 -50.26785 
L 285.571563 -50.124295 
L 285.309752 -49.980741 
L 285.044644 -49.837187 
z
" style="stroke: #999999; stroke-width: 2"/>
    </defs>
    <g clip-path="url(#p2381bcd781)">
     <use xlink:href="#mdab1ed22ff" x="0" y="255.11811" style="fill: #ffffff; stroke: #999999; stroke-width: 2"/>
    </g>
   </g>
   <g id="PolyCollection_5">
    <defs>
     <path id="m17f3a13cdc" d="M 350.531331 -87.472172 
L 330.289524 -87.472172 
L 330.121638 -87.634254 
L 329.961464 -87.796337 
L 329.80929 -87.958419 
L 329.665369 -88.120501 
L 329.52992 -88.282583 
L 329.403127 -88.444666 
L 329.285135 -88.606748 
L 329.176054 -88.76883 
L 329.075953 -88.930912 
L 328.984868 -89.092994 
L 328.902794 -89.255077 
L 328.829692 -89.417159 
L 328.765484 -89.579241 
L 328.71006 -89.741323 
L 328.663276 -89.903406 
L 328.624956 -90.065488 
L 328.594892 -90.22757 
L 328.57285 -90.389652 
L 328.558569 -90.551734 
L 328.551766 -90.713817 
L 328.552134 -90.875899 
L 328.55935 -91.037981 
L 328.573073 -91.200063 
L 328.59295 -91.362146 
L 328.618617 -91.524228 
L 328.649702 -91.68631 
L 328.685829 -91.848392 
L 328.726619 -92.010474 
L 328.771692 -92.172557 
L 328.820674 -92.334639 
L 328.873193 -92.496721 
L 328.928888 -92.658803 
L 328.987405 -92.820886 
L 329.048403 -92.982968 
L 329.111556 -93.14505 
L 329.176552 -93.307132 
L 329.243096 -93.469214 
L 329.310911 -93.631297 
L 329.379741 -93.793379 
L 329.449347 -93.955461 
L 329.519516 -94.117543 
L 329.59005 -94.279626 
L 329.660777 -94.441708 
L 329.731544 -94.60379 
L 329.802223 -94.765872 
L 329.872703 -94.927955 
L 329.942896 -95.090037 
L 330.012735 -95.252119 
L 330.082171 -95.414201 
L 330.151173 -95.576283 
L 330.21973 -95.738366 
L 330.287846 -95.900448 
L 330.355541 -96.06253 
L 330.422848 -96.224612 
L 330.489815 -96.386695 
L 330.556502 -96.548777 
L 330.622978 -96.710859 
L 330.689323 -96.872941 
L 330.755623 -97.035023 
L 330.821972 -97.197106 
L 330.888471 -97.359188 
L 330.955223 -97.52127 
L 331.022337 -97.683352 
L 331.089923 -97.845435 
L 331.158091 -98.007517 
L 331.226954 -98.169599 
L 331.296623 -98.331681 
L 331.367209 -98.493763 
L 331.438819 -98.655846 
L 331.511559 -98.817928 
L 331.585532 -98.98001 
L 331.660835 -99.142092 
L 331.737563 -99.304175 
L 331.815806 -99.466257 
L 331.895647 -99.628339 
L 331.977166 -99.790421 
L 332.060436 -99.952503 
L 332.145523 -100.114586 
L 332.232488 -100.276668 
L 332.321386 -100.43875 
L 332.412263 -100.600832 
L 332.505161 -100.762915 
L 332.600112 -100.924997 
L 332.697143 -101.087079 
L 332.796273 -101.249161 
L 332.897513 -101.411243 
L 333.000867 -101.573326 
L 333.106331 -101.735408 
L 333.213894 -101.89749 
L 333.323536 -102.059572 
L 333.435229 -102.221655 
L 333.548938 -102.383737 
L 333.66462 -102.545819 
L 333.782222 -102.707901 
L 333.901684 -102.869984 
L 334.02294 -103.032066 
L 334.145913 -103.194148 
L 334.270519 -103.35623 
L 334.396666 -103.518312 
L 346.424188 -103.518312 
L 346.424188 -103.518312 
L 346.550336 -103.35623 
L 346.674942 -103.194148 
L 346.797915 -103.032066 
L 346.919171 -102.869984 
L 347.038633 -102.707901 
L 347.156235 -102.545819 
L 347.271917 -102.383737 
L 347.385626 -102.221655 
L 347.497319 -102.059572 
L 347.606961 -101.89749 
L 347.714524 -101.735408 
L 347.819988 -101.573326 
L 347.923342 -101.411243 
L 348.024582 -101.249161 
L 348.123712 -101.087079 
L 348.220743 -100.924997 
L 348.315694 -100.762915 
L 348.408592 -100.600832 
L 348.499469 -100.43875 
L 348.588367 -100.276668 
L 348.675332 -100.114586 
L 348.760419 -99.952503 
L 348.843688 -99.790421 
L 348.925207 -99.628339 
L 349.005049 -99.466257 
L 349.083292 -99.304175 
L 349.16002 -99.142092 
L 349.235323 -98.98001 
L 349.309296 -98.817928 
L 349.382036 -98.655846 
L 349.453646 -98.493763 
L 349.524232 -98.331681 
L 349.593901 -98.169599 
L 349.662764 -98.007517 
L 349.730932 -97.845435 
L 349.798518 -97.683352 
L 349.865632 -97.52127 
L 349.932384 -97.359188 
L 349.998883 -97.197106 
L 350.065232 -97.035023 
L 350.131532 -96.872941 
L 350.197876 -96.710859 
L 350.264353 -96.548777 
L 350.331039 -96.386695 
L 350.398007 -96.224612 
L 350.465314 -96.06253 
L 350.533009 -95.900448 
L 350.601125 -95.738366 
L 350.669682 -95.576283 
L 350.738684 -95.414201 
L 350.80812 -95.252119 
L 350.877958 -95.090037 
L 350.948152 -94.927955 
L 351.018632 -94.765872 
L 351.089311 -94.60379 
L 351.160078 -94.441708 
L 351.230805 -94.279626 
L 351.301339 -94.117543 
L 351.371507 -93.955461 
L 351.441114 -93.793379 
L 351.509944 -93.631297 
L 351.577759 -93.469214 
L 351.644303 -93.307132 
L 351.709299 -93.14505 
L 351.772452 -92.982968 
L 351.83345 -92.820886 
L 351.891967 -92.658803 
L 351.947662 -92.496721 
L 352.000181 -92.334639 
L 352.049163 -92.172557 
L 352.094236 -92.010474 
L 352.135026 -91.848392 
L 352.171153 -91.68631 
L 352.202238 -91.524228 
L 352.227905 -91.362146 
L 352.247782 -91.200063 
L 352.261505 -91.037981 
L 352.268721 -90.875899 
L 352.269089 -90.713817 
L 352.262286 -90.551734 
L 352.248005 -90.389652 
L 352.225963 -90.22757 
L 352.195899 -90.065488 
L 352.157578 -89.903406 
L 352.110794 -89.741323 
L 352.055371 -89.579241 
L 351.991163 -89.417159 
L 351.918061 -89.255077 
L 351.835987 -89.092994 
L 351.744902 -88.930912 
L 351.644801 -88.76883 
L 351.53572 -88.606748 
L 351.417728 -88.444666 
L 351.290935 -88.282583 
L 351.155486 -88.120501 
L 351.011565 -87.958419 
L 350.859391 -87.796337 
L 350.699217 -87.634254 
L 350.531331 -87.472172 
z
" style="stroke: #999999; stroke-width: 2"/>
    </defs>
    <g clip-path="url(#p2381bcd781)">
     <use xlink:href="#m17f3a13cdc" x="0" y="255.11811" style="fill: #ffffff; stroke: #999999; stroke-width: 2"/>
    </g>
   </g>
   <g id="PolyCollection_6">
    <defs>
     <path id="m812ff68a7b" d="M 405.881525 -117.01865 
L 403.023964 -117.01865 
L 403.015054 -118.080895 
L 403.007436 -119.14314 
L 403.001112 -120.205385 
L 402.996078 -121.26763 
L 402.992325 -122.329876 
L 402.989838 -123.392121 
L 402.988599 -124.454366 
L 402.988582 -125.516611 
L 402.989758 -126.578856 
L 402.992091 -127.641102 
L 402.995541 -128.703347 
L 403.000065 -129.765592 
L 403.005613 -130.827837 
L 403.012132 -131.890082 
L 403.019566 -132.952327 
L 403.027854 -134.014573 
L 403.036932 -135.076818 
L 403.046733 -136.139063 
L 403.057188 -137.201308 
L 403.068225 -138.263553 
L 403.07977 -139.325799 
L 403.091748 -140.388044 
L 403.104083 -141.450289 
L 403.116698 -142.512534 
L 403.129516 -143.574779 
L 403.14246 -144.637025 
L 403.155452 -145.69927 
L 403.168418 -146.761515 
L 403.181283 -147.82376 
L 403.193973 -148.886005 
L 403.206418 -149.948251 
L 403.21855 -151.010496 
L 403.230304 -152.072741 
L 403.241615 -153.134986 
L 403.252426 -154.197231 
L 403.262681 -155.259476 
L 403.272327 -156.321722 
L 403.281318 -157.383967 
L 403.289611 -158.446212 
L 403.297166 -159.508457 
L 403.303949 -160.570702 
L 403.309933 -161.632948 
L 403.315092 -162.695193 
L 403.319408 -163.757438 
L 403.322867 -164.819683 
L 403.32546 -165.881928 
L 403.327184 -166.944174 
L 403.328039 -168.006419 
L 403.328033 -169.068664 
L 403.327178 -170.130909 
L 403.325489 -171.193154 
L 403.322988 -172.255399 
L 403.319701 -173.317645 
L 403.315659 -174.37989 
L 403.310895 -175.442135 
L 403.30545 -176.50438 
L 403.299365 -177.566625 
L 403.292686 -178.628871 
L 403.285464 -179.691116 
L 403.27775 -180.753361 
L 403.269601 -181.815606 
L 403.261074 -182.877851 
L 403.252229 -183.940097 
L 403.243129 -185.002342 
L 403.233837 -186.064587 
L 403.224418 -187.126832 
L 403.214938 -188.189077 
L 403.205462 -189.251323 
L 403.196059 -190.313568 
L 403.186794 -191.375813 
L 403.177735 -192.438058 
L 403.168945 -193.500303 
L 403.160492 -194.562548 
L 403.152436 -195.624794 
L 403.144841 -196.687039 
L 403.137767 -197.749284 
L 403.131271 -198.811529 
L 403.125408 -199.873774 
L 403.120232 -200.93602 
L 403.115793 -201.998265 
L 403.112137 -203.06051 
L 403.109309 -204.122755 
L 403.107348 -205.185 
L 403.106291 -206.247246 
L 403.106171 -207.309491 
L 403.107017 -208.371736 
L 403.108855 -209.433981 
L 403.111705 -210.496226 
L 403.115585 -211.558472 
L 403.120507 -212.620717 
L 403.12648 -213.682962 
L 403.133509 -214.745207 
L 403.141594 -215.807452 
L 403.150733 -216.869697 
L 403.160916 -217.931943 
L 403.172133 -218.994188 
L 403.184368 -220.056433 
L 403.197603 -221.118678 
L 403.211815 -222.180923 
L 405.693675 -222.180923 
L 405.693675 -222.180923 
L 405.707886 -221.118678 
L 405.721121 -220.056433 
L 405.733356 -218.994188 
L 405.744573 -217.931943 
L 405.754757 -216.869697 
L 405.763895 -215.807452 
L 405.77198 -214.745207 
L 405.779009 -213.682962 
L 405.784983 -212.620717 
L 405.789905 -211.558472 
L 405.793784 -210.496226 
L 405.796634 -209.433981 
L 405.798472 -208.371736 
L 405.799318 -207.309491 
L 405.799199 -206.247246 
L 405.798142 -205.185 
L 405.796181 -204.122755 
L 405.793352 -203.06051 
L 405.789696 -201.998265 
L 405.785257 -200.93602 
L 405.780081 -199.873774 
L 405.774219 -198.811529 
L 405.767722 -197.749284 
L 405.760648 -196.687039 
L 405.753053 -195.624794 
L 405.744998 -194.562548 
L 405.736544 -193.500303 
L 405.727755 -192.438058 
L 405.718695 -191.375813 
L 405.70943 -190.313568 
L 405.700027 -189.251323 
L 405.690552 -188.189077 
L 405.681071 -187.126832 
L 405.671652 -186.064587 
L 405.66236 -185.002342 
L 405.65326 -183.940097 
L 405.644415 -182.877851 
L 405.635888 -181.815606 
L 405.627739 -180.753361 
L 405.620026 -179.691116 
L 405.612803 -178.628871 
L 405.606125 -177.566625 
L 405.600039 -176.50438 
L 405.594594 -175.442135 
L 405.589831 -174.37989 
L 405.585788 -173.317645 
L 405.582501 -172.255399 
L 405.580001 -171.193154 
L 405.578312 -170.130909 
L 405.577456 -169.068664 
L 405.57745 -168.006419 
L 405.578306 -166.944174 
L 405.580029 -165.881928 
L 405.582622 -164.819683 
L 405.586081 -163.757438 
L 405.590397 -162.695193 
L 405.595556 -161.632948 
L 405.60154 -160.570702 
L 405.608324 -159.508457 
L 405.615879 -158.446212 
L 405.624171 -157.383967 
L 405.633162 -156.321722 
L 405.642809 -155.259476 
L 405.653063 -154.197231 
L 405.663874 -153.134986 
L 405.675186 -152.072741 
L 405.686939 -151.010496 
L 405.699071 -149.948251 
L 405.711516 -148.886005 
L 405.724207 -147.82376 
L 405.737071 -146.761515 
L 405.750037 -145.69927 
L 405.763029 -144.637025 
L 405.775973 -143.574779 
L 405.788791 -142.512534 
L 405.801406 -141.450289 
L 405.813741 -140.388044 
L 405.82572 -139.325799 
L 405.837265 -138.263553 
L 405.848301 -137.201308 
L 405.858756 -136.139063 
L 405.868557 -135.076818 
L 405.877635 -134.014573 
L 405.885923 -132.952327 
L 405.893357 -131.890082 
L 405.899876 -130.827837 
L 405.905424 -129.765592 
L 405.909948 -128.703347 
L 405.913399 -127.641102 
L 405.915731 -126.578856 
L 405.916907 -125.516611 
L 405.91689 -124.454366 
L 405.915651 -123.392121 
L 405.913164 -122.329876 
L 405.909411 -121.26763 
L 405.904377 -120.205385 
L 405.898053 -119.14314 
L 405.890435 -118.080895 
L 405.881525 -117.01865 
z
" style="stroke: #999999; stroke-width: 2"/>
    </defs>
    <g clip-path="url(#p2381bcd781)">
     <use xlink:href="#m812ff68a7b" x="0" y="255.11811" style="fill: #ffffff; stroke: #999999; stroke-width: 2"/>
    </g>
   </g>
   <g id="PolyCollection_7">
    <defs>
     <path id="m2d00981bef" d="M 475.376043 -87.121007 
L 461.614081 -87.121007 
L 461.328858 -87.271983 
L 461.03499 -87.422958 
L 460.732338 -87.573933 
L 460.420821 -87.724908 
L 460.100421 -87.875884 
L 459.771192 -88.026859 
L 459.433274 -88.177834 
L 459.086899 -88.32881 
L 458.732401 -88.479785 
L 458.370223 -88.63076 
L 458.000924 -88.781736 
L 457.625184 -88.932711 
L 457.243808 -89.083686 
L 456.857729 -89.234662 
L 456.468009 -89.385637 
L 456.075835 -89.536612 
L 455.682518 -89.687588 
L 455.289486 -89.838563 
L 454.89828 -89.989538 
L 454.510539 -90.140514 
L 454.127992 -90.291489 
L 453.752444 -90.442464 
L 453.385762 -90.59344 
L 453.029852 -90.744415 
L 452.68665 -90.89539 
L 452.358094 -91.046366 
L 452.046107 -91.197341 
L 451.752576 -91.348316 
L 451.479329 -91.499292 
L 451.228115 -91.650267 
L 451.000579 -91.801242 
L 450.798246 -91.952218 
L 450.622497 -92.103193 
L 450.474552 -92.254168 
L 450.355452 -92.405144 
L 450.266046 -92.556119 
L 450.206974 -92.707094 
L 450.178661 -92.85807 
L 450.181304 -93.009045 
L 450.214868 -93.16002 
L 450.279087 -93.310996 
L 450.373457 -93.461971 
L 450.497246 -93.612946 
L 450.649494 -93.763922 
L 450.829028 -93.914897 
L 451.034467 -94.065872 
L 451.26424 -94.216848 
L 451.516601 -94.367823 
L 451.78965 -94.518798 
L 452.081349 -94.669774 
L 452.389548 -94.820749 
L 452.712004 -94.971724 
L 453.046411 -95.1227 
L 453.390419 -95.273675 
L 453.741663 -95.42465 
L 454.097787 -95.575626 
L 454.456466 -95.726601 
L 454.815434 -95.877576 
L 455.172506 -96.028552 
L 455.525595 -96.179527 
L 455.872737 -96.330502 
L 456.212108 -96.481478 
L 456.542038 -96.632453 
L 456.861028 -96.783428 
L 457.167756 -96.934404 
L 457.461092 -97.085379 
L 457.740103 -97.236354 
L 458.004054 -97.38733 
L 458.252411 -97.538305 
L 458.484844 -97.68928 
L 458.701216 -97.840255 
L 458.901585 -97.991231 
L 459.086191 -98.142206 
L 459.255448 -98.293181 
L 459.409934 -98.444157 
L 459.550375 -98.595132 
L 459.677631 -98.746107 
L 459.792684 -98.897083 
L 459.896617 -99.048058 
L 459.990599 -99.199033 
L 460.075866 -99.350009 
L 460.153705 -99.500984 
L 460.225435 -99.651959 
L 460.29239 -99.802935 
L 460.355902 -99.95391 
L 460.417284 -100.104885 
L 460.477816 -100.255861 
L 460.538728 -100.406836 
L 460.60119 -100.557811 
L 460.666298 -100.708787 
L 460.735063 -100.859762 
L 460.808404 -101.010737 
L 460.887139 -101.161713 
L 460.971978 -101.312688 
L 461.063522 -101.463663 
L 461.162256 -101.614639 
L 461.268552 -101.765614 
L 461.382664 -101.916589 
L 461.504734 -102.067565 
L 475.48539 -102.067565 
L 475.48539 -102.067565 
L 475.60746 -101.916589 
L 475.721572 -101.765614 
L 475.827867 -101.614639 
L 475.926602 -101.463663 
L 476.018146 -101.312688 
L 476.102985 -101.161713 
L 476.18172 -101.010737 
L 476.255061 -100.859762 
L 476.323826 -100.708787 
L 476.388934 -100.557811 
L 476.451396 -100.406836 
L 476.512308 -100.255861 
L 476.572839 -100.104885 
L 476.634222 -99.95391 
L 476.697734 -99.802935 
L 476.764689 -99.651959 
L 476.836419 -99.500984 
L 476.914258 -99.350009 
L 476.999525 -99.199033 
L 477.093506 -99.048058 
L 477.197439 -98.897083 
L 477.312493 -98.746107 
L 477.439749 -98.595132 
L 477.58019 -98.444157 
L 477.734675 -98.293181 
L 477.903933 -98.142206 
L 478.088539 -97.991231 
L 478.288908 -97.840255 
L 478.50528 -97.68928 
L 478.737712 -97.538305 
L 478.98607 -97.38733 
L 479.250021 -97.236354 
L 479.529031 -97.085379 
L 479.822368 -96.934404 
L 480.129096 -96.783428 
L 480.448085 -96.632453 
L 480.778016 -96.481478 
L 481.117387 -96.330502 
L 481.464529 -96.179527 
L 481.817618 -96.028552 
L 482.174689 -95.877576 
L 482.533658 -95.726601 
L 482.892337 -95.575626 
L 483.248461 -95.42465 
L 483.599705 -95.273675 
L 483.943713 -95.1227 
L 484.27812 -94.971724 
L 484.600576 -94.820749 
L 484.908774 -94.669774 
L 485.200474 -94.518798 
L 485.473522 -94.367823 
L 485.725884 -94.216848 
L 485.955657 -94.065872 
L 486.161096 -93.914897 
L 486.340629 -93.763922 
L 486.492878 -93.612946 
L 486.616667 -93.461971 
L 486.711037 -93.310996 
L 486.775255 -93.16002 
L 486.80882 -93.009045 
L 486.811463 -92.85807 
L 486.783149 -92.707094 
L 486.724078 -92.556119 
L 486.634672 -92.405144 
L 486.515572 -92.254168 
L 486.367627 -92.103193 
L 486.191878 -91.952218 
L 485.989545 -91.801242 
L 485.762009 -91.650267 
L 485.510795 -91.499292 
L 485.237548 -91.348316 
L 484.944017 -91.197341 
L 484.63203 -91.046366 
L 484.303474 -90.89539 
L 483.960271 -90.744415 
L 483.604362 -90.59344 
L 483.237679 -90.442464 
L 482.862132 -90.291489 
L 482.479585 -90.140514 
L 482.091844 -89.989538 
L 481.700638 -89.838563 
L 481.307606 -89.687588 
L 480.914289 -89.536612 
L 480.522115 -89.385637 
L 480.132395 -89.234662 
L 479.746316 -89.083686 
L 479.36494 -88.932711 
L 478.9892 -88.781736 
L 478.619901 -88.63076 
L 478.257723 -88.479785 
L 477.903225 -88.32881 
L 477.55685 -88.177834 
L 477.218932 -88.026859 
L 476.889703 -87.875884 
L 476.569302 -87.724908 
L 476.257785 -87.573933 
L 475.955134 -87.422958 
L 475.661265 -87.271983 
L 475.376043 -87.121007 
z
" style="stroke: #999999; stroke-width: 2"/>
    </defs>
    <g clip-path="url(#p2381bcd781)">
     <use xlink:href="#m2d00981bef" x="0" y="255.11811" style="fill: #ffffff; stroke: #999999; stroke-width: 2"/>
    </g>
   </g>
   <g id="PathCollection_1"/>
   <g id="PathCollection_2"/>
   <g id="patch_3">
    <path d="M 52.22 213.89811 
L 52.22 24.32 
" style="fill: none; stroke: #262626; stroke-width: 1.25; stroke-linejoin: miter; stroke-linecap: square"/>
   </g>
   <g id="patch_4">
    <path d="M 52.22 213.89811 
L 500.51622 213.89811 
" style="fill: none; stroke: #262626; stroke-width: 1.25; stroke-linejoin: miter; stroke-linecap: square"/>
   </g>
   <g id="PathCollection_3">
    <defs>
     <path id="C0_0_edb3e65d78" d="M 0 2.5 
C 0.663008 2.5 1.29895 2.236584 1.767767 1.767767 
C 2.236584 1.29895 2.5 0.663008 2.5 -0 
C 2.5 -0.663008 2.236584 -1.29895 1.767767 -1.767767 
C 1.29895 -2.236584 0.663008 -2.5 0 -2.5 
C -0.663008 -2.5 -1.29895 -2.236584 -1.767767 -1.767767 
C -2.236584 -1.29895 -2.5 -0.663008 -2.5 0 
C -2.5 0.663008 -2.236584 1.29895 -1.767767 1.767767 
C -1.29895 2.236584 -0.663008 2.5 0 2.5 
z
"/>
    </defs>
    <g clip-path="url(#p2381bcd781)">
     <use xlink:href="#C0_0_edb3e65d78" x="78.6511" y="101.301856" style="fill: #4c72b0; fill-opacity: 0.75"/>
    </g>
    <g clip-path="url(#p2381bcd781)">
     <use xlink:href="#C0_0_edb3e65d78" x="83.964583" y="61.884758" style="fill: #4c72b0; fill-opacity: 0.75"/>
    </g>
    <g clip-path="url(#p2381bcd781)">
     <use xlink:href="#C0_0_edb3e65d78" x="89.770082" y="99.885833" style="fill: #4c72b0; fill-opacity: 0.75"/>
    </g>
    <g clip-path="url(#p2381bcd781)">
     <use xlink:href="#C0_0_edb3e65d78" x="78.941533" y="93.722373" style="fill: #4c72b0; fill-opacity: 0.75"/>
    </g>
    <g clip-path="url(#p2381bcd781)">
     <use xlink:href="#C0_0_edb3e65d78" x="89.637353" y="140.448153" style="fill: #dd8452; fill-opacity: 0.75"/>
    </g>
    <g clip-path="url(#p2381bcd781)">
     <use xlink:href="#C0_0_edb3e65d78" x="81.737355" y="133.483334" style="fill: #dd8452; fill-opacity: 0.75"/>
    </g>
    <g clip-path="url(#p2381bcd781)">
     <use xlink:href="#C0_0_edb3e65d78" x="86.65843" y="131.278632" style="fill: #dd8452; fill-opacity: 0.75"/>
    </g>
    <g clip-path="url(#p2381bcd781)">
     <use xlink:href="#C0_0_edb3e65d78" x="90.053667" y="128.812676" style="fill: #dd8452; fill-opacity: 0.75"/>
    </g>
   </g>
   <g id="PathCollection_4">
    <defs>
     <path id="C1_0_5c7287bb7b" d="M 0 2.5 
C 0.663008 2.5 1.29895 2.236584 1.767767 1.767767 
C 2.236584 1.29895 2.5 0.663008 2.5 -0 
C 2.5 -0.663008 2.236584 -1.29895 1.767767 -1.767767 
C 1.29895 -2.236584 0.663008 -2.5 0 -2.5 
C -0.663008 -2.5 -1.29895 -2.236584 -1.767767 -1.767767 
C -2.236584 -1.29895 -2.5 -0.663008 -2.5 0 
C -2.5 0.663008 -2.236584 1.29895 -1.767767 1.767767 
C -1.29895 2.236584 -0.663008 2.5 0 2.5 
z
"/>
    </defs>
    <g clip-path="url(#p2381bcd781)">
     <use xlink:href="#C1_0_5c7287bb7b" x="149.555245" y="176.949801" style="fill: #4c72b0; fill-opacity: 0.75"/>
    </g>
    <g clip-path="url(#p2381bcd781)">
     <use xlink:href="#C1_0_5c7287bb7b" x="142.840062" y="174.178419" style="fill: #4c72b0; fill-opacity: 0.75"/>
    </g>
    <g clip-path="url(#p2381bcd781)">
     <use xlink:href="#C1_0_5c7287bb7b" x="153.437621" y="166.741422" style="fill: #4c72b0; fill-opacity: 0.75"/>
    </g>
    <g clip-path="url(#p2381bcd781)">
     <use xlink:href="#C1_0_5c7287bb7b" x="147.184527" y="168.916231" style="fill: #4c72b0; fill-opacity: 0.75"/>
    </g>
    <g clip-path="url(#p2381bcd781)">
     <use xlink:href="#C1_0_5c7287bb7b" x="145.23736" y="176.661188" style="fill: #dd8452; fill-opacity: 0.75"/>
    </g>
    <g clip-path="url(#p2381bcd781)">
     <use xlink:href="#C1_0_5c7287bb7b" x="146.776805" y="176.788649" style="fill: #dd8452; fill-opacity: 0.75"/>
    </g>
    <g clip-path="url(#p2381bcd781)">
     <use xlink:href="#C1_0_5c7287bb7b" x="154.031354" y="180.247519" style="fill: #dd8452; fill-opacity: 0.75"/>
    </g>
    <g clip-path="url(#p2381bcd781)">
     <use xlink:href="#C1_0_5c7287bb7b" x="153.938004" y="183.719107" style="fill: #dd8452; fill-opacity: 0.75"/>
    </g>
   </g>
   <g id="PathCollection_5">
    <defs>
     <path id="C2_0_d69ba5a67a" d="M 0 2.5 
C 0.663008 2.5 1.29895 2.236584 1.767767 1.767767 
C 2.236584 1.29895 2.5 0.663008 2.5 -0 
C 2.5 -0.663008 2.236584 -1.29895 1.767767 -1.767767 
C 1.29895 -2.236584 0.663008 -2.5 0 -2.5 
C -0.663008 -2.5 -1.29895 -2.236584 -1.767767 -1.767767 
C -2.236584 -1.29895 -2.5 -0.663008 -2.5 0 
C -2.5 0.663008 -2.236584 1.29895 -1.767767 1.767767 
C -1.29895 2.236584 -0.663008 2.5 0 2.5 
z
"/>
    </defs>
    <g clip-path="url(#p2381bcd781)">
     <use xlink:href="#C2_0_d69ba5a67a" x="212.011636" y="184.851592" style="fill: #4c72b0; fill-opacity: 0.75"/>
    </g>
    <g clip-path="url(#p2381bcd781)">
     <use xlink:href="#C2_0_d69ba5a67a" x="212.378514" y="187.736677" style="fill: #4c72b0; fill-opacity: 0.75"/>
    </g>
    <g clip-path="url(#p2381bcd781)">
     <use xlink:href="#C2_0_d69ba5a67a" x="208.016368" y="184.997875" style="fill: #4c72b0; fill-opacity: 0.75"/>
    </g>
    <g clip-path="url(#p2381bcd781)">
     <use xlink:href="#C2_0_d69ba5a67a" x="206.877099" y="184.809283" style="fill: #4c72b0; fill-opacity: 0.75"/>
    </g>
    <g clip-path="url(#p2381bcd781)">
     <use xlink:href="#C2_0_d69ba5a67a" x="213.464484" y="187.203304" style="fill: #dd8452; fill-opacity: 0.75"/>
    </g>
    <g clip-path="url(#p2381bcd781)">
     <use xlink:href="#C2_0_d69ba5a67a" x="218.366241" y="185.554726" style="fill: #dd8452; fill-opacity: 0.75"/>
    </g>
    <g clip-path="url(#p2381bcd781)">
     <use xlink:href="#C2_0_d69ba5a67a" x="211.820158" y="185.316587" style="fill: #dd8452; fill-opacity: 0.75"/>
    </g>
    <g clip-path="url(#p2381bcd781)">
     <use xlink:href="#C2_0_d69ba5a67a" x="211.370497" y="173.914347" style="fill: #dd8452; fill-opacity: 0.75"/>
    </g>
   </g>
   <g id="PathCollection_6">
    <defs>
     <path id="C3_0_c4fc2a7b97" d="M 0 2.5 
C 0.663008 2.5 1.29895 2.236584 1.767767 1.767767 
C 2.236584 1.29895 2.5 0.663008 2.5 -0 
C 2.5 -0.663008 2.236584 -1.29895 1.767767 -1.767767 
C 1.29895 -2.236584 0.663008 -2.5 0 -2.5 
C -0.663008 -2.5 -1.29895 -2.236584 -1.767767 -1.767767 
C -2.236584 -1.29895 -2.5 -0.663008 -2.5 0 
C -2.5 0.663008 -2.236584 1.29895 -1.767767 1.767767 
C -1.29895 2.236584 -0.663008 2.5 0 2.5 
z
"/>
    </defs>
    <g clip-path="url(#p2381bcd781)">
     <use xlink:href="#C3_0_c4fc2a7b97" x="272.607714" y="196.031156" style="fill: #4c72b0; fill-opacity: 0.75"/>
    </g>
    <g clip-path="url(#p2381bcd781)">
     <use xlink:href="#C3_0_c4fc2a7b97" x="277.402835" y="195.979703" style="fill: #4c72b0; fill-opacity: 0.75"/>
    </g>
    <g clip-path="url(#p2381bcd781)">
     <use xlink:href="#C3_0_c4fc2a7b97" x="280.831486" y="191.069052" style="fill: #4c72b0; fill-opacity: 0.75"/>
    </g>
    <g clip-path="url(#p2381bcd781)">
     <use xlink:href="#C3_0_c4fc2a7b97" x="270.53462" y="204.311973" style="fill: #4c72b0; fill-opacity: 0.75"/>
    </g>
    <g clip-path="url(#p2381bcd781)">
     <use xlink:href="#C3_0_c4fc2a7b97" x="277.635684" y="195.665132" style="fill: #4c72b0; fill-opacity: 0.75"/>
    </g>
    <g clip-path="url(#p2381bcd781)">
     <use xlink:href="#C3_0_c4fc2a7b97" x="271.428873" y="200.351507" style="fill: #dd8452; fill-opacity: 0.75"/>
    </g>
    <g clip-path="url(#p2381bcd781)">
     <use xlink:href="#C3_0_c4fc2a7b97" x="274.230452" y="201.225658" style="fill: #dd8452; fill-opacity: 0.75"/>
    </g>
    <g clip-path="url(#p2381bcd781)">
     <use xlink:href="#C3_0_c4fc2a7b97" x="276.504216" y="197.739205" style="fill: #dd8452; fill-opacity: 0.75"/>
    </g>
    <g clip-path="url(#p2381bcd781)">
     <use xlink:href="#C3_0_c4fc2a7b97" x="275.923793" y="205.280923" style="fill: #dd8452; fill-opacity: 0.75"/>
    </g>
    <g clip-path="url(#p2381bcd781)">
     <use xlink:href="#C3_0_c4fc2a7b97" x="272.640068" y="199.806455" style="fill: #dd8452; fill-opacity: 0.75"/>
    </g>
   </g>
   <g id="PathCollection_7">
    <defs>
     <path id="C4_0_55a4e2605b" d="M 0 2.5 
C 0.663008 2.5 1.29895 2.236584 1.767767 1.767767 
C 2.236584 1.29895 2.5 0.663008 2.5 -0 
C 2.5 -0.663008 2.236584 -1.29895 1.767767 -1.767767 
C 1.29895 -2.236584 0.663008 -2.5 0 -2.5 
C -0.663008 -2.5 -1.29895 -2.236584 -1.767767 -1.767767 
C -2.236584 -1.29895 -2.5 -0.663008 -2.5 0 
C -2.5 0.663008 -2.236584 1.29895 -1.767767 1.767767 
C -1.29895 2.236584 -0.663008 2.5 0 2.5 
z
"/>
    </defs>
    <g clip-path="url(#p2381bcd781)">
     <use xlink:href="#C4_0_55a4e2605b" x="346.385684" y="156.384649" style="fill: #4c72b0; fill-opacity: 0.75"/>
    </g>
    <g clip-path="url(#p2381bcd781)">
     <use xlink:href="#C4_0_55a4e2605b" x="335.575956" y="159.647738" style="fill: #4c72b0; fill-opacity: 0.75"/>
    </g>
    <g clip-path="url(#p2381bcd781)">
     <use xlink:href="#C4_0_55a4e2605b" x="340.340432" y="151.599798" style="fill: #4c72b0; fill-opacity: 0.75"/>
    </g>
    <g clip-path="url(#p2381bcd781)">
     <use xlink:href="#C4_0_55a4e2605b" x="345.714965" y="165.996551" style="fill: #dd8452; fill-opacity: 0.75"/>
    </g>
    <g clip-path="url(#p2381bcd781)">
     <use xlink:href="#C4_0_55a4e2605b" x="344.726678" y="167.645938" style="fill: #dd8452; fill-opacity: 0.75"/>
    </g>
    <g clip-path="url(#p2381bcd781)">
     <use xlink:href="#C4_0_55a4e2605b" x="342.189999" y="164.59981" style="fill: #dd8452; fill-opacity: 0.75"/>
    </g>
   </g>
   <g id="PathCollection_8">
    <defs>
     <path id="C5_0_06de4c4543" d="M 0 2.5 
C 0.663008 2.5 1.29895 2.236584 1.767767 1.767767 
C 2.236584 1.29895 2.5 0.663008 2.5 -0 
C 2.5 -0.663008 2.236584 -1.29895 1.767767 -1.767767 
C 1.29895 -2.236584 0.663008 -2.5 0 -2.5 
C -0.663008 -2.5 -1.29895 -2.236584 -1.767767 -1.767767 
C -2.236584 -1.29895 -2.5 -0.663008 -2.5 0 
C -2.5 0.663008 -2.236584 1.29895 -1.767767 1.767767 
C -1.29895 2.236584 -0.663008 2.5 0 2.5 
z
"/>
    </defs>
    <g clip-path="url(#p2381bcd781)">
     <use xlink:href="#C5_0_06de4c4543" x="400.623585" y="46.694938" style="fill: #4c72b0; fill-opacity: 0.75"/>
    </g>
    <g clip-path="url(#p2381bcd781)">
     <use xlink:href="#C5_0_06de4c4543" x="408.376505" y="37.512598" style="fill: #4c72b0; fill-opacity: 0.75"/>
    </g>
    <g clip-path="url(#p2381bcd781)">
     <use xlink:href="#C5_0_06de4c4543" x="410.009607" y="66.929072" style="fill: #4c72b0; fill-opacity: 0.75"/>
    </g>
    <g clip-path="url(#p2381bcd781)">
     <use xlink:href="#C5_0_06de4c4543" x="403.822637" y="32.937187" style="fill: #4c72b0; fill-opacity: 0.75"/>
    </g>
    <g clip-path="url(#p2381bcd781)">
     <use xlink:href="#C5_0_06de4c4543" x="398.340293" y="125.484472" style="fill: #dd8452; fill-opacity: 0.75"/>
    </g>
    <g clip-path="url(#p2381bcd781)">
     <use xlink:href="#C5_0_06de4c4543" x="399.938686" y="138.099461" style="fill: #dd8452; fill-opacity: 0.75"/>
    </g>
    <g clip-path="url(#p2381bcd781)">
     <use xlink:href="#C5_0_06de4c4543" x="400.505611" y="133.465583" style="fill: #dd8452; fill-opacity: 0.75"/>
    </g>
    <g clip-path="url(#p2381bcd781)">
     <use xlink:href="#C5_0_06de4c4543" x="410.163168" y="137.154544" style="fill: #dd8452; fill-opacity: 0.75"/>
    </g>
   </g>
   <g id="PathCollection_9">
    <defs>
     <path id="C6_0_3449459994" d="M 0 2.5 
C 0.663008 2.5 1.29895 2.236584 1.767767 1.767767 
C 2.236584 1.29895 2.5 0.663008 2.5 -0 
C 2.5 -0.663008 2.236584 -1.29895 1.767767 -1.767767 
C 1.29895 -2.236584 0.663008 -2.5 0 -2.5 
C -0.663008 -2.5 -1.29895 -2.236584 -1.767767 -1.767767 
C -2.236584 -1.29895 -2.5 -0.663008 -2.5 0 
C -2.5 0.663008 -2.236584 1.29895 -1.767767 1.767767 
C -1.29895 2.236584 -0.663008 2.5 0 2.5 
z
"/>
    </defs>
    <g clip-path="url(#p2381bcd781)">
     <use xlink:href="#C6_0_3449459994" x="464.829867" y="161.442212" style="fill: #4c72b0; fill-opacity: 0.75"/>
    </g>
    <g clip-path="url(#p2381bcd781)">
     <use xlink:href="#C6_0_3449459994" x="464.856433" y="161.197796" style="fill: #4c72b0; fill-opacity: 0.75"/>
    </g>
    <g clip-path="url(#p2381bcd781)">
     <use xlink:href="#C6_0_3449459994" x="468.847072" y="154.781831" style="fill: #4c72b0; fill-opacity: 0.75"/>
    </g>
    <g clip-path="url(#p2381bcd781)">
     <use xlink:href="#C6_0_3449459994" x="469.98035" y="167.997103" style="fill: #4c72b0; fill-opacity: 0.75"/>
    </g>
    <g clip-path="url(#p2381bcd781)">
     <use xlink:href="#C6_0_3449459994" x="466.370816" y="162.215508" style="fill: #dd8452; fill-opacity: 0.75"/>
    </g>
    <g clip-path="url(#p2381bcd781)">
     <use xlink:href="#C6_0_3449459994" x="474.656554" y="153.050546" style="fill: #dd8452; fill-opacity: 0.75"/>
    </g>
    <g clip-path="url(#p2381bcd781)">
     <use xlink:href="#C6_0_3449459994" x="472.103664" y="162.379922" style="fill: #dd8452; fill-opacity: 0.75"/>
    </g>
    <g clip-path="url(#p2381bcd781)">
     <use xlink:href="#C6_0_3449459994" x="465.626052" y="163.277407" style="fill: #dd8452; fill-opacity: 0.75"/>
    </g>
   </g>
   <g id="text_16">
    <!-- MYH14, $p_{adj}$ &lt; .001 *** -->
    <g style="fill: #262626" transform="translate(52.22 18.32)scale(0.09 -0.09)">
     <defs>
      <path id="ArialMT-59" d="M 1784 0 
L 1784 1941 
L 19 4581 
L 756 4581 
L 1659 3200 
Q 1909 2813 2125 2425 
Q 2331 2784 2625 3234 
L 3513 4581 
L 4219 4581 
L 2391 1941 
L 2391 0 
L 1784 0 
z
" transform="scale(0.015625)"/>
      <path id="ArialMT-48" d="M 513 0 
L 513 4581 
L 1119 4581 
L 1119 2700 
L 3500 2700 
L 3500 4581 
L 4106 4581 
L 4106 0 
L 3500 0 
L 3500 2159 
L 1119 2159 
L 1119 0 
L 513 0 
z
" transform="scale(0.015625)"/>
      <path id="ArialMT-2c" d="M 569 0 
L 569 641 
L 1209 641 
L 1209 0 
Q 1209 -353 1084 -570 
Q 959 -788 688 -906 
L 531 -666 
Q 709 -588 793 -436 
Q 878 -284 888 0 
L 569 0 
z
" transform="scale(0.015625)"/>
      <path id="DejaVuSans-Oblique-70" d="M 3175 2156 
Q 3175 2616 2975 2859 
Q 2775 3103 2400 3103 
Q 2144 3103 1911 2972 
Q 1678 2841 1497 2591 
Q 1319 2344 1212 1994 
Q 1106 1644 1106 1300 
Q 1106 863 1306 627 
Q 1506 391 1875 391 
Q 2147 391 2380 519 
Q 2613 647 2778 891 
Q 2956 1147 3065 1494 
Q 3175 1841 3175 2156 
z
M 1394 2969 
Q 1625 3272 1939 3428 
Q 2253 3584 2638 3584 
Q 3175 3584 3472 3232 
Q 3769 2881 3769 2247 
Q 3769 1728 3584 1258 
Q 3400 788 3053 416 
Q 2822 169 2531 39 
Q 2241 -91 1919 -91 
Q 1547 -91 1294 64 
Q 1041 219 916 525 
L 556 -1331 
L -19 -1331 
L 922 3500 
L 1497 3500 
L 1394 2969 
z
" transform="scale(0.015625)"/>
      <path id="DejaVuSans-Oblique-61" d="M 3438 1997 
L 3047 0 
L 2472 0 
L 2578 531 
Q 2325 219 2001 64 
Q 1678 -91 1281 -91 
Q 834 -91 548 182 
Q 263 456 263 884 
Q 263 1497 752 1853 
Q 1241 2209 2100 2209 
L 2900 2209 
L 2931 2363 
Q 2938 2388 2941 2417 
Q 2944 2447 2944 2509 
Q 2944 2788 2717 2942 
Q 2491 3097 2081 3097 
Q 1800 3097 1504 3025 
Q 1209 2953 897 2809 
L 997 3341 
Q 1322 3463 1633 3523 
Q 1944 3584 2234 3584 
Q 2853 3584 3176 3315 
Q 3500 3047 3500 2534 
Q 3500 2431 3484 2292 
Q 3469 2153 3438 1997 
z
M 2816 1759 
L 2241 1759 
Q 1534 1759 1195 1570 
Q 856 1381 856 984 
Q 856 709 1029 553 
Q 1203 397 1509 397 
Q 1978 397 2328 733 
Q 2678 1069 2791 1631 
L 2816 1759 
z
" transform="scale(0.015625)"/>
      <path id="DejaVuSans-Oblique-64" d="M 2675 525 
Q 2444 222 2128 65 
Q 1813 -91 1428 -91 
Q 903 -91 598 267 
Q 294 625 294 1247 
Q 294 1766 478 2236 
Q 663 2706 1013 3078 
Q 1244 3325 1534 3454 
Q 1825 3584 2144 3584 
Q 2481 3584 2739 3421 
Q 2997 3259 3138 2956 
L 3513 4863 
L 4091 4863 
L 3144 0 
L 2566 0 
L 2675 525 
z
M 891 1350 
Q 891 897 1095 644 
Q 1300 391 1663 391 
Q 1931 391 2161 520 
Q 2391 650 2566 903 
Q 2750 1166 2856 1509 
Q 2963 1853 2963 2188 
Q 2963 2622 2758 2865 
Q 2553 3109 2194 3109 
Q 1922 3109 1687 2981 
Q 1453 2853 1288 2613 
Q 1106 2353 998 2009 
Q 891 1666 891 1350 
z
" transform="scale(0.015625)"/>
      <path id="DejaVuSans-Oblique-6a" d="M 928 3500 
L 1503 3500 
L 813 -63 
L 809 -78 
Q 694 -675 544 -897 
Q 403 -1106 132 -1218 
Q -138 -1331 -506 -1331 
L -722 -1331 
L -628 -844 
L -481 -844 
Q -144 -844 -1 -703 
Q 141 -563 238 -63 
L 928 3500 
z
M 1197 4863 
L 1772 4863 
L 1631 4134 
L 1056 4134 
L 1197 4863 
z
" transform="scale(0.015625)"/>
      <path id="ArialMT-3c" d="M 350 2003 
L 350 2528 
L 3384 3809 
L 3384 3250 
L 978 2263 
L 3384 1266 
L 3384 706 
L 350 2003 
z
" transform="scale(0.015625)"/>
      <path id="ArialMT-2e" d="M 581 0 
L 581 641 
L 1222 641 
L 1222 0 
L 581 0 
z
" transform="scale(0.015625)"/>
      <path id="ArialMT-2a" d="M 200 3741 
L 344 4184 
Q 841 4009 1066 3881 
Q 1006 4447 1003 4659 
L 1456 4659 
Q 1447 4350 1384 3884 
Q 1706 4047 2122 4184 
L 2266 3741 
Q 1869 3609 1488 3566 
Q 1678 3400 2025 2975 
L 1650 2709 
Q 1469 2956 1222 3381 
Q 991 2941 816 2709 
L 447 2975 
Q 809 3422 966 3566 
Q 563 3644 200 3741 
z
" transform="scale(0.015625)"/>
     </defs>
     <use xlink:href="#ArialMT-4d" transform="translate(0 0.203125)"/>
     <use xlink:href="#ArialMT-59" transform="translate(83.300781 0.203125)"/>
     <use xlink:href="#ArialMT-48" transform="translate(150 0.203125)"/>
     <use xlink:href="#ArialMT-31" transform="translate(222.216797 0.203125)"/>
     <use xlink:href="#ArialMT-34" transform="translate(277.832031 0.203125)"/>
     <use xlink:href="#ArialMT-2c" transform="translate(333.447266 0.203125)"/>
     <use xlink:href="#ArialMT-20" transform="translate(361.230469 0.203125)"/>
     <use xlink:href="#DejaVuSans-Oblique-70" transform="translate(389.013672 0.203125)"/>
     <use xlink:href="#DejaVuSans-Oblique-61" transform="translate(452.490234 -16.203125)scale(0.7)"/>
     <use xlink:href="#DejaVuSans-Oblique-64" transform="translate(495.385742 -16.203125)scale(0.7)"/>
     <use xlink:href="#DejaVuSans-Oblique-6a" transform="translate(539.819336 -16.203125)scale(0.7)"/>
     <use xlink:href="#ArialMT-20" transform="translate(562.001953 0.203125)"/>
     <use xlink:href="#ArialMT-3c" transform="translate(589.785156 0.203125)"/>
     <use xlink:href="#ArialMT-20" transform="translate(648.183594 0.203125)"/>
     <use xlink:href="#ArialMT-2e" transform="translate(675.966797 0.203125)"/>
     <use xlink:href="#ArialMT-30" transform="translate(703.75 0.203125)"/>
     <use xlink:href="#ArialMT-30" transform="translate(759.365234 0.203125)"/>
     <use xlink:href="#ArialMT-31" transform="translate(814.980469 0.203125)"/>
     <use xlink:href="#ArialMT-20" transform="translate(870.595703 0.203125)"/>
     <use xlink:href="#ArialMT-2a" transform="translate(898.378906 0.203125)"/>
     <use xlink:href="#ArialMT-2a" transform="translate(937.294922 0.203125)"/>
     <use xlink:href="#ArialMT-2a" transform="translate(976.210938 0.203125)"/>
    </g>
   </g>
   <g id="legend_1">
    <g id="patch_5">
     <path d="M 441.91497 69.712344 
L 494.21622 69.712344 
Q 496.01622 69.712344 496.01622 67.912344 
L 496.01622 30.62 
Q 496.01622 28.82 494.21622 28.82 
L 441.91497 28.82 
Q 440.11497 28.82 440.11497 30.62 
L 440.11497 67.912344 
Q 440.11497 69.712344 441.91497 69.712344 
z
" style="fill: #ffffff; opacity: 0.8; stroke: #cccccc; stroke-linejoin: miter"/>
    </g>
    <g id="text_17">
     <!-- Treatment -->
     <g style="fill: #262626" transform="translate(447.729111 38.862031)scale(0.09 -0.09)">
      <use xlink:href="#ArialMT-54"/>
      <use xlink:href="#ArialMT-72" x="57.333984"/>
      <use xlink:href="#ArialMT-65" x="90.634766"/>
      <use xlink:href="#ArialMT-61" x="146.25"/>
      <use xlink:href="#ArialMT-74" x="201.865234"/>
      <use xlink:href="#ArialMT-6d" x="229.648438"/>
      <use xlink:href="#ArialMT-65" x="312.949219"/>
      <use xlink:href="#ArialMT-6e" x="368.564453"/>
      <use xlink:href="#ArialMT-74" x="424.179688"/>
     </g>
    </g>
    <g id="PathCollection_10">
     <defs>
      <path id="mdc140be2a0" d="M 0 3.872983 
C 1.027127 3.872983 2.012324 3.464901 2.738613 2.738613 
C 3.464901 2.012324 3.872983 1.027127 3.872983 0 
C 3.872983 -1.027127 3.464901 -2.012324 2.738613 -2.738613 
C 2.012324 -3.464901 1.027127 -3.872983 0 -3.872983 
C -1.027127 -3.872983 -2.012324 -3.464901 -2.738613 -2.738613 
C -3.464901 -2.012324 -3.872983 -1.027127 -3.872983 0 
C -3.872983 1.027127 -3.464901 2.012324 -2.738613 2.738613 
C -2.012324 3.464901 -1.027127 3.872983 0 3.872983 
z
" style="stroke: #4c72b0"/>
     </defs>
     <g>
      <use xlink:href="#mdc140be2a0" x="452.71497" y="49.230313" style="fill: #4c72b0; stroke: #4c72b0"/>
     </g>
    </g>
    <g id="text_18">
     <!-- BEVA -->
     <g style="fill: #262626" transform="translate(468.91497 51.592813)scale(0.09 -0.09)">
      <defs>
       <path id="ArialMT-42" d="M 469 0 
L 469 4581 
L 2188 4581 
Q 2713 4581 3030 4442 
Q 3347 4303 3526 4014 
Q 3706 3725 3706 3409 
Q 3706 3116 3547 2856 
Q 3388 2597 3066 2438 
Q 3481 2316 3704 2022 
Q 3928 1728 3928 1328 
Q 3928 1006 3792 729 
Q 3656 453 3456 303 
Q 3256 153 2954 76 
Q 2653 0 2216 0 
L 469 0 
z
M 1075 2656 
L 2066 2656 
Q 2469 2656 2644 2709 
Q 2875 2778 2992 2937 
Q 3109 3097 3109 3338 
Q 3109 3566 3000 3739 
Q 2891 3913 2687 3977 
Q 2484 4041 1991 4041 
L 1075 4041 
L 1075 2656 
z
M 1075 541 
L 2216 541 
Q 2509 541 2628 563 
Q 2838 600 2978 687 
Q 3119 775 3209 942 
Q 3300 1109 3300 1328 
Q 3300 1584 3169 1773 
Q 3038 1963 2805 2039 
Q 2572 2116 2134 2116 
L 1075 2116 
L 1075 541 
z
" transform="scale(0.015625)"/>
       <path id="ArialMT-45" d="M 506 0 
L 506 4581 
L 3819 4581 
L 3819 4041 
L 1113 4041 
L 1113 2638 
L 3647 2638 
L 3647 2100 
L 1113 2100 
L 1113 541 
L 3925 541 
L 3925 0 
L 506 0 
z
" transform="scale(0.015625)"/>
       <path id="ArialMT-56" d="M 1803 0 
L 28 4581 
L 684 4581 
L 1875 1253 
Q 2019 853 2116 503 
Q 2222 878 2363 1253 
L 3600 4581 
L 4219 4581 
L 2425 0 
L 1803 0 
z
" transform="scale(0.015625)"/>
       <path id="ArialMT-41" d="M -9 0 
L 1750 4581 
L 2403 4581 
L 4278 0 
L 3588 0 
L 3053 1388 
L 1138 1388 
L 634 0 
L -9 0 
z
M 1313 1881 
L 2866 1881 
L 2388 3150 
Q 2169 3728 2063 4100 
Q 1975 3659 1816 3225 
L 1313 1881 
z
" transform="scale(0.015625)"/>
      </defs>
      <use xlink:href="#ArialMT-42"/>
      <use xlink:href="#ArialMT-45" x="66.699219"/>
      <use xlink:href="#ArialMT-56" x="133.398438"/>
      <use xlink:href="#ArialMT-41" x="192.722656"/>
     </g>
    </g>
    <g id="PathCollection_11">
     <defs>
      <path id="m2d3898d0a5" d="M 0 3.872983 
C 1.027127 3.872983 2.012324 3.464901 2.738613 2.738613 
C 3.464901 2.012324 3.872983 1.027127 3.872983 0 
C 3.872983 -1.027127 3.464901 -2.012324 2.738613 -2.738613 
C 2.012324 -3.464901 1.027127 -3.872983 0 -3.872983 
C -1.027127 -3.872983 -2.012324 -3.464901 -2.738613 -2.738613 
C -3.464901 -2.012324 -3.872983 -1.027127 -3.872983 0 
C -3.872983 1.027127 -3.464901 2.012324 -2.738613 2.738613 
C -2.012324 3.464901 -1.027127 3.872983 0 3.872983 
z
" style="stroke: #dd8452"/>
     </defs>
     <g>
      <use xlink:href="#m2d3898d0a5" x="452.71497" y="61.961094" style="fill: #dd8452; stroke: #dd8452"/>
     </g>
    </g>
    <g id="text_19">
     <!-- CTRL -->
     <g style="fill: #262626" transform="translate(468.91497 64.323594)scale(0.09 -0.09)">
      <defs>
       <path id="ArialMT-43" d="M 3763 1606 
L 4369 1453 
Q 4178 706 3683 314 
Q 3188 -78 2472 -78 
Q 1731 -78 1267 223 
Q 803 525 561 1097 
Q 319 1669 319 2325 
Q 319 3041 592 3573 
Q 866 4106 1370 4382 
Q 1875 4659 2481 4659 
Q 3169 4659 3637 4309 
Q 4106 3959 4291 3325 
L 3694 3184 
Q 3534 3684 3231 3912 
Q 2928 4141 2469 4141 
Q 1941 4141 1586 3887 
Q 1231 3634 1087 3207 
Q 944 2781 944 2328 
Q 944 1744 1114 1308 
Q 1284 872 1643 656 
Q 2003 441 2422 441 
Q 2931 441 3284 734 
Q 3638 1028 3763 1606 
z
" transform="scale(0.015625)"/>
       <path id="ArialMT-52" d="M 503 0 
L 503 4581 
L 2534 4581 
Q 3147 4581 3465 4457 
Q 3784 4334 3975 4021 
Q 4166 3709 4166 3331 
Q 4166 2844 3850 2509 
Q 3534 2175 2875 2084 
Q 3116 1969 3241 1856 
Q 3506 1613 3744 1247 
L 4541 0 
L 3778 0 
L 3172 953 
Q 2906 1366 2734 1584 
Q 2563 1803 2427 1890 
Q 2291 1978 2150 2013 
Q 2047 2034 1813 2034 
L 1109 2034 
L 1109 0 
L 503 0 
z
M 1109 2559 
L 2413 2559 
Q 2828 2559 3062 2645 
Q 3297 2731 3419 2920 
Q 3541 3109 3541 3331 
Q 3541 3656 3305 3865 
Q 3069 4075 2559 4075 
L 1109 4075 
L 1109 2559 
z
" transform="scale(0.015625)"/>
       <path id="ArialMT-4c" d="M 469 0 
L 469 4581 
L 1075 4581 
L 1075 541 
L 3331 541 
L 3331 0 
L 469 0 
z
" transform="scale(0.015625)"/>
      </defs>
      <use xlink:href="#ArialMT-43"/>
      <use xlink:href="#ArialMT-54" x="72.216797"/>
      <use xlink:href="#ArialMT-52" x="133.300781"/>
      <use xlink:href="#ArialMT-4c" x="205.517578"/>
     </g>
    </g>
   </g>
  </g>
 </g>
 <defs>
  <clipPath id="p2381bcd781">
   <rect x="52.22" y="24.32" width="448.29622" height="189.57811"/>
  </clipPath>
 </defs>
</svg>
