<?xml version="1.0" encoding="utf-8" standalone="no"?>
<!DOCTYPE svg PUBLIC "-//W3C//DTD SVG 1.1//EN"
  "http://www.w3.org/Graphics/SVG/1.1/DTD/svg11.dtd">
<svg xmlns:xlink="http://www.w3.org/1999/xlink" width="510.23622pt" height="255.11811pt" viewBox="0 0 510.23622 255.11811" xmlns="http://www.w3.org/2000/svg" version="1.1">
 <metadata>
  <rdf:RDF xmlns:dc="http://purl.org/dc/elements/1.1/" xmlns:cc="http://creativecommons.org/ns#" xmlns:rdf="http://www.w3.org/1999/02/22-rdf-syntax-ns#">
   <cc:Work>
    <dc:type rdf:resource="http://purl.org/dc/dcmitype/StillImage"/>
    <dc:date>2022-04-27T00:14:39.860547</dc:date>
    <dc:format>image/svg+xml</dc:format>
    <dc:creator>
     <cc:Agent>
      <dc:title>Matplotlib v3.5.1, https://matplotlib.org/</dc:title>
     </cc:Agent>
    </dc:creator>
   </cc:Work>
  </rdf:RDF>
 </metadata>
 <defs>
  <style type="text/css">*{stroke-linejoin: round; stroke-linecap: butt}</style>
 </defs>
 <g id="figure_1">
  <g id="patch_1">
   <path d="M 0 255.11811 
L 510.23622 255.11811 
L 510.23622 0 
L 0 0 
z
" style="fill: #ffffff"/>
  </g>
  <g id="axes_1">
   <g id="patch_2">
    <path d="M 52.22 213.89811 
L 500.51622 213.89811 
L 500.51622 24.32 
L 52.22 24.32 
z
" style="fill: #ffffff"/>
   </g>
   <g id="matplotlib.axis_1">
    <g id="xtick_1">
     <g id="text_1">
      <!-- 49 -->
      <g style="fill: #444444" transform="translate(79.236315 229.840141)scale(0.09 -0.09)">
       <defs>
        <path id="ArialMT-34" d="M 2069 0 
L 2069 1097 
L 81 1097 
L 81 1613 
L 2172 4581 
L 2631 4581 
L 2631 1613 
L 3250 1613 
L 3250 1097 
L 2631 1097 
L 2631 0 
L 2069 0 
z
M 2069 1613 
L 2069 3678 
L 634 1613 
L 2069 1613 
z
" transform="scale(0.015625)"/>
        <path id="ArialMT-39" d="M 350 1059 
L 891 1109 
Q 959 728 1153 556 
Q 1347 384 1650 384 
Q 1909 384 2104 503 
Q 2300 622 2425 820 
Q 2550 1019 2634 1356 
Q 2719 1694 2719 2044 
Q 2719 2081 2716 2156 
Q 2547 1888 2255 1720 
Q 1963 1553 1622 1553 
Q 1053 1553 659 1965 
Q 266 2378 266 3053 
Q 266 3750 677 4175 
Q 1088 4600 1706 4600 
Q 2153 4600 2523 4359 
Q 2894 4119 3086 3673 
Q 3278 3228 3278 2384 
Q 3278 1506 3087 986 
Q 2897 466 2520 194 
Q 2144 -78 1638 -78 
Q 1100 -78 759 220 
Q 419 519 350 1059 
z
M 2653 3081 
Q 2653 3566 2395 3850 
Q 2138 4134 1775 4134 
Q 1400 4134 1122 3828 
Q 844 3522 844 3034 
Q 844 2597 1108 2323 
Q 1372 2050 1759 2050 
Q 2150 2050 2401 2323 
Q 2653 2597 2653 3081 
z
" transform="scale(0.015625)"/>
       </defs>
       <use xlink:href="#ArialMT-34"/>
       <use xlink:href="#ArialMT-39" x="55.615234"/>
      </g>
     </g>
    </g>
    <g id="xtick_2">
     <g id="text_2">
      <!-- 17 -->
      <g style="fill: #444444" transform="translate(143.278632 229.840141)scale(0.09 -0.09)">
       <defs>
        <path id="ArialMT-31" d="M 2384 0 
L 1822 0 
L 1822 3584 
Q 1619 3391 1289 3197 
Q 959 3003 697 2906 
L 697 3450 
Q 1169 3672 1522 3987 
Q 1875 4303 2022 4600 
L 2384 4600 
L 2384 0 
z
" transform="scale(0.015625)"/>
        <path id="ArialMT-37" d="M 303 3981 
L 303 4522 
L 3269 4522 
L 3269 4084 
Q 2831 3619 2401 2847 
Q 1972 2075 1738 1259 
Q 1569 684 1522 0 
L 944 0 
Q 953 541 1156 1306 
Q 1359 2072 1739 2783 
Q 2119 3494 2547 3981 
L 303 3981 
z
" transform="scale(0.015625)"/>
       </defs>
       <use xlink:href="#ArialMT-31"/>
       <use xlink:href="#ArialMT-37" x="55.615234"/>
      </g>
     </g>
    </g>
    <g id="xtick_3">
     <g id="text_3">
      <!-- 69 -->
      <g style="fill: #444444" transform="translate(207.320949 229.840141)scale(0.09 -0.09)">
       <defs>
        <path id="ArialMT-36" d="M 3184 3459 
L 2625 3416 
Q 2550 3747 2413 3897 
Q 2184 4138 1850 4138 
Q 1581 4138 1378 3988 
Q 1113 3794 959 3422 
Q 806 3050 800 2363 
Q 1003 2672 1297 2822 
Q 1591 2972 1913 2972 
Q 2475 2972 2870 2558 
Q 3266 2144 3266 1488 
Q 3266 1056 3080 686 
Q 2894 316 2569 119 
Q 2244 -78 1831 -78 
Q 1128 -78 684 439 
Q 241 956 241 2144 
Q 241 3472 731 4075 
Q 1159 4600 1884 4600 
Q 2425 4600 2770 4297 
Q 3116 3994 3184 3459 
z
M 888 1484 
Q 888 1194 1011 928 
Q 1134 663 1356 523 
Q 1578 384 1822 384 
Q 2178 384 2434 671 
Q 2691 959 2691 1453 
Q 2691 1928 2437 2201 
Q 2184 2475 1800 2475 
Q 1419 2475 1153 2201 
Q 888 1928 888 1484 
z
" transform="scale(0.015625)"/>
       </defs>
       <use xlink:href="#ArialMT-36"/>
       <use xlink:href="#ArialMT-39" x="55.615234"/>
      </g>
     </g>
    </g>
    <g id="xtick_4">
     <g id="text_4">
      <!-- 15 -->
      <g style="fill: #444444" transform="translate(271.363266 229.840141)scale(0.09 -0.09)">
       <defs>
        <path id="ArialMT-35" d="M 266 1200 
L 856 1250 
Q 922 819 1161 601 
Q 1400 384 1738 384 
Q 2144 384 2425 690 
Q 2706 997 2706 1503 
Q 2706 1984 2436 2262 
Q 2166 2541 1728 2541 
Q 1456 2541 1237 2417 
Q 1019 2294 894 2097 
L 366 2166 
L 809 4519 
L 3088 4519 
L 3088 3981 
L 1259 3981 
L 1013 2750 
Q 1425 3038 1878 3038 
Q 2478 3038 2890 2622 
Q 3303 2206 3303 1553 
Q 3303 931 2941 478 
Q 2500 -78 1738 -78 
Q 1113 -78 717 272 
Q 322 622 266 1200 
z
" transform="scale(0.015625)"/>
       </defs>
       <use xlink:href="#ArialMT-31"/>
       <use xlink:href="#ArialMT-35" x="55.615234"/>
      </g>
     </g>
    </g>
    <g id="xtick_5">
     <g id="text_5">
      <!-- 5 -->
      <g style="fill: #444444" transform="translate(337.908006 229.840141)scale(0.09 -0.09)">
       <use xlink:href="#ArialMT-35"/>
      </g>
     </g>
    </g>
    <g id="xtick_6">
     <g id="text_6">
      <!-- 126 -->
      <g style="fill: #444444" transform="translate(396.945479 229.840141)scale(0.09 -0.09)">
       <defs>
        <path id="ArialMT-32" d="M 3222 541 
L 3222 0 
L 194 0 
Q 188 203 259 391 
Q 375 700 629 1000 
Q 884 1300 1366 1694 
Q 2113 2306 2375 2664 
Q 2638 3022 2638 3341 
Q 2638 3675 2398 3904 
Q 2159 4134 1775 4134 
Q 1369 4134 1125 3890 
Q 881 3647 878 3216 
L 300 3275 
Q 359 3922 746 4261 
Q 1134 4600 1788 4600 
Q 2447 4600 2831 4234 
Q 3216 3869 3216 3328 
Q 3216 3053 3103 2787 
Q 2991 2522 2730 2228 
Q 2469 1934 1863 1422 
Q 1356 997 1212 845 
Q 1069 694 975 541 
L 3222 541 
z
" transform="scale(0.015625)"/>
       </defs>
       <use xlink:href="#ArialMT-31"/>
       <use xlink:href="#ArialMT-32" x="55.615234"/>
       <use xlink:href="#ArialMT-36" x="111.230469"/>
      </g>
     </g>
    </g>
    <g id="xtick_7">
     <g id="text_7">
      <!-- 62 -->
      <g style="fill: #444444" transform="translate(463.490218 229.840141)scale(0.09 -0.09)">
       <use xlink:href="#ArialMT-36"/>
       <use xlink:href="#ArialMT-32" x="55.615234"/>
      </g>
     </g>
    </g>
    <g id="text_8">
     <!-- Patient -->
     <g style="fill: #444444" transform="translate(262.359048 242.070923)scale(0.09 -0.09)">
      <defs>
       <path id="ArialMT-50" d="M 494 0 
L 494 4581 
L 2222 4581 
Q 2678 4581 2919 4538 
Q 3256 4481 3484 4323 
Q 3713 4166 3852 3881 
Q 3991 3597 3991 3256 
Q 3991 2672 3619 2267 
Q 3247 1863 2275 1863 
L 1100 1863 
L 1100 0 
L 494 0 
z
M 1100 2403 
L 2284 2403 
Q 2872 2403 3119 2622 
Q 3366 2841 3366 3238 
Q 3366 3525 3220 3729 
Q 3075 3934 2838 4000 
Q 2684 4041 2272 4041 
L 1100 4041 
L 1100 2403 
z
" transform="scale(0.015625)"/>
       <path id="ArialMT-61" d="M 2588 409 
Q 2275 144 1986 34 
Q 1697 -75 1366 -75 
Q 819 -75 525 192 
Q 231 459 231 875 
Q 231 1119 342 1320 
Q 453 1522 633 1644 
Q 813 1766 1038 1828 
Q 1203 1872 1538 1913 
Q 2219 1994 2541 2106 
Q 2544 2222 2544 2253 
Q 2544 2597 2384 2738 
Q 2169 2928 1744 2928 
Q 1347 2928 1158 2789 
Q 969 2650 878 2297 
L 328 2372 
Q 403 2725 575 2942 
Q 747 3159 1072 3276 
Q 1397 3394 1825 3394 
Q 2250 3394 2515 3294 
Q 2781 3194 2906 3042 
Q 3031 2891 3081 2659 
Q 3109 2516 3109 2141 
L 3109 1391 
Q 3109 606 3145 398 
Q 3181 191 3288 0 
L 2700 0 
Q 2613 175 2588 409 
z
M 2541 1666 
Q 2234 1541 1622 1453 
Q 1275 1403 1131 1340 
Q 988 1278 909 1158 
Q 831 1038 831 891 
Q 831 666 1001 516 
Q 1172 366 1500 366 
Q 1825 366 2078 508 
Q 2331 650 2450 897 
Q 2541 1088 2541 1459 
L 2541 1666 
z
" transform="scale(0.015625)"/>
       <path id="ArialMT-74" d="M 1650 503 
L 1731 6 
Q 1494 -44 1306 -44 
Q 1000 -44 831 53 
Q 663 150 594 308 
Q 525 466 525 972 
L 525 2881 
L 113 2881 
L 113 3319 
L 525 3319 
L 525 4141 
L 1084 4478 
L 1084 3319 
L 1650 3319 
L 1650 2881 
L 1084 2881 
L 1084 941 
Q 1084 700 1114 631 
Q 1144 563 1211 522 
Q 1278 481 1403 481 
Q 1497 481 1650 503 
z
" transform="scale(0.015625)"/>
       <path id="ArialMT-69" d="M 425 3934 
L 425 4581 
L 988 4581 
L 988 3934 
L 425 3934 
z
M 425 0 
L 425 3319 
L 988 3319 
L 988 0 
L 425 0 
z
" transform="scale(0.015625)"/>
       <path id="ArialMT-65" d="M 2694 1069 
L 3275 997 
Q 3138 488 2766 206 
Q 2394 -75 1816 -75 
Q 1088 -75 661 373 
Q 234 822 234 1631 
Q 234 2469 665 2931 
Q 1097 3394 1784 3394 
Q 2450 3394 2872 2941 
Q 3294 2488 3294 1666 
Q 3294 1616 3291 1516 
L 816 1516 
Q 847 969 1125 678 
Q 1403 388 1819 388 
Q 2128 388 2347 550 
Q 2566 713 2694 1069 
z
M 847 1978 
L 2700 1978 
Q 2663 2397 2488 2606 
Q 2219 2931 1791 2931 
Q 1403 2931 1139 2672 
Q 875 2413 847 1978 
z
" transform="scale(0.015625)"/>
       <path id="ArialMT-6e" d="M 422 0 
L 422 3319 
L 928 3319 
L 928 2847 
Q 1294 3394 1984 3394 
Q 2284 3394 2536 3286 
Q 2788 3178 2913 3003 
Q 3038 2828 3088 2588 
Q 3119 2431 3119 2041 
L 3119 0 
L 2556 0 
L 2556 2019 
Q 2556 2363 2490 2533 
Q 2425 2703 2258 2804 
Q 2091 2906 1866 2906 
Q 1506 2906 1245 2678 
Q 984 2450 984 1813 
L 984 0 
L 422 0 
z
" transform="scale(0.015625)"/>
      </defs>
      <use xlink:href="#ArialMT-50"/>
      <use xlink:href="#ArialMT-61" x="66.699219"/>
      <use xlink:href="#ArialMT-74" x="122.314453"/>
      <use xlink:href="#ArialMT-69" x="150.097656"/>
      <use xlink:href="#ArialMT-65" x="172.314453"/>
      <use xlink:href="#ArialMT-6e" x="227.929688"/>
      <use xlink:href="#ArialMT-74" x="283.544922"/>
     </g>
    </g>
   </g>
   <g id="matplotlib.axis_2">
    <g id="ytick_1">
     <g id="text_9">
      <!-- 200 -->
      <g style="fill: #444444" transform="translate(27.705469 194.253896)scale(0.09 -0.09)">
       <defs>
        <path id="ArialMT-30" d="M 266 2259 
Q 266 3072 433 3567 
Q 600 4063 929 4331 
Q 1259 4600 1759 4600 
Q 2128 4600 2406 4451 
Q 2684 4303 2865 4023 
Q 3047 3744 3150 3342 
Q 3253 2941 3253 2259 
Q 3253 1453 3087 958 
Q 2922 463 2592 192 
Q 2263 -78 1759 -78 
Q 1097 -78 719 397 
Q 266 969 266 2259 
z
M 844 2259 
Q 844 1131 1108 757 
Q 1372 384 1759 384 
Q 2147 384 2411 759 
Q 2675 1134 2675 2259 
Q 2675 3391 2411 3762 
Q 2147 4134 1753 4134 
Q 1366 4134 1134 3806 
Q 844 3388 844 2259 
z
" transform="scale(0.015625)"/>
       </defs>
       <use xlink:href="#ArialMT-32"/>
       <use xlink:href="#ArialMT-30" x="55.615234"/>
       <use xlink:href="#ArialMT-30" x="111.230469"/>
      </g>
     </g>
    </g>
    <g id="ytick_2">
     <g id="text_10">
      <!-- 400 -->
      <g style="fill: #444444" transform="translate(27.705469 168.672169)scale(0.09 -0.09)">
       <use xlink:href="#ArialMT-34"/>
       <use xlink:href="#ArialMT-30" x="55.615234"/>
       <use xlink:href="#ArialMT-30" x="111.230469"/>
      </g>
     </g>
    </g>
    <g id="ytick_3">
     <g id="text_11">
      <!-- 600 -->
      <g style="fill: #444444" transform="translate(27.705469 143.090442)scale(0.09 -0.09)">
       <use xlink:href="#ArialMT-36"/>
       <use xlink:href="#ArialMT-30" x="55.615234"/>
       <use xlink:href="#ArialMT-30" x="111.230469"/>
      </g>
     </g>
    </g>
    <g id="ytick_4">
     <g id="text_12">
      <!-- 800 -->
      <g style="fill: #444444" transform="translate(27.705469 117.508715)scale(0.09 -0.09)">
       <defs>
        <path id="ArialMT-38" d="M 1131 2484 
Q 781 2613 612 2850 
Q 444 3088 444 3419 
Q 444 3919 803 4259 
Q 1163 4600 1759 4600 
Q 2359 4600 2725 4251 
Q 3091 3903 3091 3403 
Q 3091 3084 2923 2848 
Q 2756 2613 2416 2484 
Q 2838 2347 3058 2040 
Q 3278 1734 3278 1309 
Q 3278 722 2862 322 
Q 2447 -78 1769 -78 
Q 1091 -78 675 323 
Q 259 725 259 1325 
Q 259 1772 486 2073 
Q 713 2375 1131 2484 
z
M 1019 3438 
Q 1019 3113 1228 2906 
Q 1438 2700 1772 2700 
Q 2097 2700 2305 2904 
Q 2513 3109 2513 3406 
Q 2513 3716 2298 3927 
Q 2084 4138 1766 4138 
Q 1444 4138 1231 3931 
Q 1019 3725 1019 3438 
z
M 838 1322 
Q 838 1081 952 856 
Q 1066 631 1291 507 
Q 1516 384 1775 384 
Q 2178 384 2440 643 
Q 2703 903 2703 1303 
Q 2703 1709 2433 1975 
Q 2163 2241 1756 2241 
Q 1359 2241 1098 1978 
Q 838 1716 838 1322 
z
" transform="scale(0.015625)"/>
       </defs>
       <use xlink:href="#ArialMT-38"/>
       <use xlink:href="#ArialMT-30" x="55.615234"/>
       <use xlink:href="#ArialMT-30" x="111.230469"/>
      </g>
     </g>
    </g>
    <g id="ytick_5">
     <g id="text_13">
      <!-- 1000 -->
      <g style="fill: #444444" transform="translate(22.700625 91.926988)scale(0.09 -0.09)">
       <use xlink:href="#ArialMT-31"/>
       <use xlink:href="#ArialMT-30" x="55.615234"/>
       <use xlink:href="#ArialMT-30" x="111.230469"/>
       <use xlink:href="#ArialMT-30" x="166.845703"/>
      </g>
     </g>
    </g>
    <g id="ytick_6">
     <g id="text_14">
      <!-- 1200 -->
      <g style="fill: #444444" transform="translate(22.700625 66.345261)scale(0.09 -0.09)">
       <use xlink:href="#ArialMT-31"/>
       <use xlink:href="#ArialMT-32" x="55.615234"/>
       <use xlink:href="#ArialMT-30" x="111.230469"/>
       <use xlink:href="#ArialMT-30" x="166.845703"/>
      </g>
     </g>
    </g>
    <g id="ytick_7">
     <g id="text_15">
      <!-- 1400 -->
      <g style="fill: #444444" transform="translate(22.700625 40.763534)scale(0.09 -0.09)">
       <use xlink:href="#ArialMT-31"/>
       <use xlink:href="#ArialMT-34" x="55.615234"/>
       <use xlink:href="#ArialMT-30" x="111.230469"/>
       <use xlink:href="#ArialMT-30" x="166.845703"/>
      </g>
     </g>
    </g>
    <g id="text_16">
     <!-- Trimmed Means of M values (TMM) -->
     <g style="fill: #444444" transform="translate(16.806406 190.194993)rotate(-90)scale(0.09 -0.09)">
      <defs>
       <path id="ArialMT-54" d="M 1659 0 
L 1659 4041 
L 150 4041 
L 150 4581 
L 3781 4581 
L 3781 4041 
L 2266 4041 
L 2266 0 
L 1659 0 
z
" transform="scale(0.015625)"/>
       <path id="ArialMT-72" d="M 416 0 
L 416 3319 
L 922 3319 
L 922 2816 
Q 1116 3169 1280 3281 
Q 1444 3394 1641 3394 
Q 1925 3394 2219 3213 
L 2025 2691 
Q 1819 2813 1613 2813 
Q 1428 2813 1281 2702 
Q 1134 2591 1072 2394 
Q 978 2094 978 1738 
L 978 0 
L 416 0 
z
" transform="scale(0.015625)"/>
       <path id="ArialMT-6d" d="M 422 0 
L 422 3319 
L 925 3319 
L 925 2853 
Q 1081 3097 1340 3245 
Q 1600 3394 1931 3394 
Q 2300 3394 2536 3241 
Q 2772 3088 2869 2813 
Q 3263 3394 3894 3394 
Q 4388 3394 4653 3120 
Q 4919 2847 4919 2278 
L 4919 0 
L 4359 0 
L 4359 2091 
Q 4359 2428 4304 2576 
Q 4250 2725 4106 2815 
Q 3963 2906 3769 2906 
Q 3419 2906 3187 2673 
Q 2956 2441 2956 1928 
L 2956 0 
L 2394 0 
L 2394 2156 
Q 2394 2531 2256 2718 
Q 2119 2906 1806 2906 
Q 1569 2906 1367 2781 
Q 1166 2656 1075 2415 
Q 984 2175 984 1722 
L 984 0 
L 422 0 
z
" transform="scale(0.015625)"/>
       <path id="ArialMT-64" d="M 2575 0 
L 2575 419 
Q 2259 -75 1647 -75 
Q 1250 -75 917 144 
Q 584 363 401 755 
Q 219 1147 219 1656 
Q 219 2153 384 2558 
Q 550 2963 881 3178 
Q 1213 3394 1622 3394 
Q 1922 3394 2156 3267 
Q 2391 3141 2538 2938 
L 2538 4581 
L 3097 4581 
L 3097 0 
L 2575 0 
z
M 797 1656 
Q 797 1019 1065 703 
Q 1334 388 1700 388 
Q 2069 388 2326 689 
Q 2584 991 2584 1609 
Q 2584 2291 2321 2609 
Q 2059 2928 1675 2928 
Q 1300 2928 1048 2622 
Q 797 2316 797 1656 
z
" transform="scale(0.015625)"/>
       <path id="ArialMT-20" transform="scale(0.015625)"/>
       <path id="ArialMT-4d" d="M 475 0 
L 475 4581 
L 1388 4581 
L 2472 1338 
Q 2622 884 2691 659 
Q 2769 909 2934 1394 
L 4031 4581 
L 4847 4581 
L 4847 0 
L 4263 0 
L 4263 3834 
L 2931 0 
L 2384 0 
L 1059 3900 
L 1059 0 
L 475 0 
z
" transform="scale(0.015625)"/>
       <path id="ArialMT-73" d="M 197 991 
L 753 1078 
Q 800 744 1014 566 
Q 1228 388 1613 388 
Q 2000 388 2187 545 
Q 2375 703 2375 916 
Q 2375 1106 2209 1216 
Q 2094 1291 1634 1406 
Q 1016 1563 777 1677 
Q 538 1791 414 1992 
Q 291 2194 291 2438 
Q 291 2659 392 2848 
Q 494 3038 669 3163 
Q 800 3259 1026 3326 
Q 1253 3394 1513 3394 
Q 1903 3394 2198 3281 
Q 2494 3169 2634 2976 
Q 2775 2784 2828 2463 
L 2278 2388 
Q 2241 2644 2061 2787 
Q 1881 2931 1553 2931 
Q 1166 2931 1000 2803 
Q 834 2675 834 2503 
Q 834 2394 903 2306 
Q 972 2216 1119 2156 
Q 1203 2125 1616 2013 
Q 2213 1853 2448 1751 
Q 2684 1650 2818 1456 
Q 2953 1263 2953 975 
Q 2953 694 2789 445 
Q 2625 197 2315 61 
Q 2006 -75 1616 -75 
Q 969 -75 630 194 
Q 291 463 197 991 
z
" transform="scale(0.015625)"/>
       <path id="ArialMT-6f" d="M 213 1659 
Q 213 2581 725 3025 
Q 1153 3394 1769 3394 
Q 2453 3394 2887 2945 
Q 3322 2497 3322 1706 
Q 3322 1066 3130 698 
Q 2938 331 2570 128 
Q 2203 -75 1769 -75 
Q 1072 -75 642 372 
Q 213 819 213 1659 
z
M 791 1659 
Q 791 1022 1069 705 
Q 1347 388 1769 388 
Q 2188 388 2466 706 
Q 2744 1025 2744 1678 
Q 2744 2294 2464 2611 
Q 2184 2928 1769 2928 
Q 1347 2928 1069 2612 
Q 791 2297 791 1659 
z
" transform="scale(0.015625)"/>
       <path id="ArialMT-66" d="M 556 0 
L 556 2881 
L 59 2881 
L 59 3319 
L 556 3319 
L 556 3672 
Q 556 4006 616 4169 
Q 697 4388 901 4523 
Q 1106 4659 1475 4659 
Q 1713 4659 2000 4603 
L 1916 4113 
Q 1741 4144 1584 4144 
Q 1328 4144 1222 4034 
Q 1116 3925 1116 3625 
L 1116 3319 
L 1763 3319 
L 1763 2881 
L 1116 2881 
L 1116 0 
L 556 0 
z
" transform="scale(0.015625)"/>
       <path id="ArialMT-76" d="M 1344 0 
L 81 3319 
L 675 3319 
L 1388 1331 
Q 1503 1009 1600 663 
Q 1675 925 1809 1294 
L 2547 3319 
L 3125 3319 
L 1869 0 
L 1344 0 
z
" transform="scale(0.015625)"/>
       <path id="ArialMT-6c" d="M 409 0 
L 409 4581 
L 972 4581 
L 972 0 
L 409 0 
z
" transform="scale(0.015625)"/>
       <path id="ArialMT-75" d="M 2597 0 
L 2597 488 
Q 2209 -75 1544 -75 
Q 1250 -75 995 37 
Q 741 150 617 320 
Q 494 491 444 738 
Q 409 903 409 1263 
L 409 3319 
L 972 3319 
L 972 1478 
Q 972 1038 1006 884 
Q 1059 663 1231 536 
Q 1403 409 1656 409 
Q 1909 409 2131 539 
Q 2353 669 2445 892 
Q 2538 1116 2538 1541 
L 2538 3319 
L 3100 3319 
L 3100 0 
L 2597 0 
z
" transform="scale(0.015625)"/>
       <path id="ArialMT-28" d="M 1497 -1347 
Q 1031 -759 709 28 
Q 388 816 388 1659 
Q 388 2403 628 3084 
Q 909 3875 1497 4659 
L 1900 4659 
Q 1522 4009 1400 3731 
Q 1209 3300 1100 2831 
Q 966 2247 966 1656 
Q 966 153 1900 -1347 
L 1497 -1347 
z
" transform="scale(0.015625)"/>
       <path id="ArialMT-29" d="M 791 -1347 
L 388 -1347 
Q 1322 153 1322 1656 
Q 1322 2244 1188 2822 
Q 1081 3291 891 3722 
Q 769 4003 388 4659 
L 791 4659 
Q 1378 3875 1659 3084 
Q 1900 2403 1900 1659 
Q 1900 816 1576 28 
Q 1253 -759 791 -1347 
z
" transform="scale(0.015625)"/>
      </defs>
      <use xlink:href="#ArialMT-54"/>
      <use xlink:href="#ArialMT-72" x="57.333984"/>
      <use xlink:href="#ArialMT-69" x="90.634766"/>
      <use xlink:href="#ArialMT-6d" x="112.851562"/>
      <use xlink:href="#ArialMT-6d" x="196.152344"/>
      <use xlink:href="#ArialMT-65" x="279.453125"/>
      <use xlink:href="#ArialMT-64" x="335.068359"/>
      <use xlink:href="#ArialMT-20" x="390.683594"/>
      <use xlink:href="#ArialMT-4d" x="418.466797"/>
      <use xlink:href="#ArialMT-65" x="501.767578"/>
      <use xlink:href="#ArialMT-61" x="557.382812"/>
      <use xlink:href="#ArialMT-6e" x="612.998047"/>
      <use xlink:href="#ArialMT-73" x="668.613281"/>
      <use xlink:href="#ArialMT-20" x="718.613281"/>
      <use xlink:href="#ArialMT-6f" x="746.396484"/>
      <use xlink:href="#ArialMT-66" x="802.011719"/>
      <use xlink:href="#ArialMT-20" x="829.794922"/>
      <use xlink:href="#ArialMT-4d" x="857.578125"/>
      <use xlink:href="#ArialMT-20" x="940.878906"/>
      <use xlink:href="#ArialMT-76" x="968.662109"/>
      <use xlink:href="#ArialMT-61" x="1018.662109"/>
      <use xlink:href="#ArialMT-6c" x="1074.277344"/>
      <use xlink:href="#ArialMT-75" x="1096.494141"/>
      <use xlink:href="#ArialMT-65" x="1152.109375"/>
      <use xlink:href="#ArialMT-73" x="1207.724609"/>
      <use xlink:href="#ArialMT-20" x="1257.724609"/>
      <use xlink:href="#ArialMT-28" x="1285.507812"/>
      <use xlink:href="#ArialMT-54" x="1318.808594"/>
      <use xlink:href="#ArialMT-4d" x="1379.892578"/>
      <use xlink:href="#ArialMT-4d" x="1463.193359"/>
      <use xlink:href="#ArialMT-29" x="1546.494141"/>
     </g>
    </g>
   </g>
   <g id="PolyCollection_1">
    <defs>
     <path id="m4183aa3e8e" d="M 91.822058 -51.341069 
L 76.660259 -51.341069 
L 76.417543 -51.447177 
L 76.177001 -51.553284 
L 75.939079 -51.659392 
L 75.704198 -51.7655 
L 75.472759 -51.871608 
L 75.245138 -51.977715 
L 75.021685 -52.083823 
L 74.802719 -52.189931 
L 74.588532 -52.296038 
L 74.379387 -52.402146 
L 74.175515 -52.508254 
L 73.977117 -52.614361 
L 73.784364 -52.720469 
L 73.597398 -52.826577 
L 73.416334 -52.932685 
L 73.241259 -53.038792 
L 73.072239 -53.1449 
L 72.909315 -53.251008 
L 72.752509 -53.357115 
L 72.601827 -53.463223 
L 72.457262 -53.569331 
L 72.318794 -53.675438 
L 72.186398 -53.781546 
L 72.060043 -53.887654 
L 71.939697 -53.993762 
L 71.825332 -54.099869 
L 71.716924 -54.205977 
L 71.614455 -54.312085 
L 71.517919 -54.418192 
L 71.427323 -54.5243 
L 71.342687 -54.630408 
L 71.264049 -54.736515 
L 71.19146 -54.842623 
L 71.124994 -54.948731 
L 71.064738 -55.054839 
L 71.010799 -55.160946 
L 70.9633 -55.267054 
L 70.922381 -55.373162 
L 70.888192 -55.479269 
L 70.860899 -55.585377 
L 70.840675 -55.691485 
L 70.8277 -55.797592 
L 70.822155 -55.9037 
L 70.824226 -56.009808 
L 70.834089 -56.115916 
L 70.851916 -56.222023 
L 70.877868 -56.328131 
L 70.91209 -56.434239 
L 70.954706 -56.540346 
L 71.00582 -56.646454 
L 71.06551 -56.752562 
L 71.133824 -56.858669 
L 71.210777 -56.964777 
L 71.296353 -57.070885 
L 71.390495 -57.176993 
L 71.493112 -57.2831 
L 71.604071 -57.389208 
L 71.723201 -57.495316 
L 71.85029 -57.601423 
L 71.985088 -57.707531 
L 72.127308 -57.813639 
L 72.276622 -57.919746 
L 72.432674 -58.025854 
L 72.595071 -58.131962 
L 72.763395 -58.23807 
L 72.937201 -58.344177 
L 73.116024 -58.450285 
L 73.299382 -58.556393 
L 73.486781 -58.6625 
L 73.677718 -58.768608 
L 73.871688 -58.874716 
L 74.068188 -58.980823 
L 74.266719 -59.086931 
L 74.466796 -59.193039 
L 74.667947 -59.299147 
L 74.869722 -59.405254 
L 75.071693 -59.511362 
L 75.273457 -59.61747 
L 75.474643 -59.723577 
L 75.674913 -59.829685 
L 75.873959 -59.935793 
L 76.071514 -60.0419 
L 76.267344 -60.148008 
L 76.461253 -60.254116 
L 76.65308 -60.360224 
L 76.842702 -60.466331 
L 77.03003 -60.572439 
L 77.215005 -60.678547 
L 77.397602 -60.784654 
L 77.57782 -60.890762 
L 77.755685 -60.99687 
L 77.931243 -61.102978 
L 78.104557 -61.209085 
L 78.275705 -61.315193 
L 78.444775 -61.421301 
L 78.611859 -61.527408 
L 78.777056 -61.633516 
L 78.940459 -61.739624 
L 79.10216 -61.845731 
L 89.380158 -61.845731 
L 89.380158 -61.845731 
L 89.541858 -61.739624 
L 89.705262 -61.633516 
L 89.870458 -61.527408 
L 90.037543 -61.421301 
L 90.206612 -61.315193 
L 90.37776 -61.209085 
L 90.551074 -61.102978 
L 90.726632 -60.99687 
L 90.904497 -60.890762 
L 91.084715 -60.784654 
L 91.267312 -60.678547 
L 91.452287 -60.572439 
L 91.639615 -60.466331 
L 91.829237 -60.360224 
L 92.021065 -60.254116 
L 92.214973 -60.148008 
L 92.410803 -60.0419 
L 92.608358 -59.935793 
L 92.807405 -59.829685 
L 93.007674 -59.723577 
L 93.20886 -59.61747 
L 93.410624 -59.511362 
L 93.612595 -59.405254 
L 93.81437 -59.299147 
L 94.015521 -59.193039 
L 94.215598 -59.086931 
L 94.414129 -58.980823 
L 94.610629 -58.874716 
L 94.804599 -58.768608 
L 94.995536 -58.6625 
L 95.182935 -58.556393 
L 95.366293 -58.450285 
L 95.545116 -58.344177 
L 95.718923 -58.23807 
L 95.887246 -58.131962 
L 96.049643 -58.025854 
L 96.205695 -57.919746 
L 96.35501 -57.813639 
L 96.497229 -57.707531 
L 96.632027 -57.601423 
L 96.759117 -57.495316 
L 96.878246 -57.389208 
L 96.989206 -57.2831 
L 97.091822 -57.176993 
L 97.185965 -57.070885 
L 97.27154 -56.964777 
L 97.348494 -56.858669 
L 97.416807 -56.752562 
L 97.476497 -56.646454 
L 97.527612 -56.540346 
L 97.570228 -56.434239 
L 97.604449 -56.328131 
L 97.630401 -56.222023 
L 97.648228 -56.115916 
L 97.658092 -56.009808 
L 97.660162 -55.9037 
L 97.654618 -55.797592 
L 97.641642 -55.691485 
L 97.621418 -55.585377 
L 97.594125 -55.479269 
L 97.559937 -55.373162 
L 97.519017 -55.267054 
L 97.471518 -55.160946 
L 97.417579 -55.054839 
L 97.357323 -54.948731 
L 97.290857 -54.842623 
L 97.218269 -54.736515 
L 97.13963 -54.630408 
L 97.054994 -54.5243 
L 96.964398 -54.418192 
L 96.867862 -54.312085 
L 96.765393 -54.205977 
L 96.656985 -54.099869 
L 96.54262 -53.993762 
L 96.422275 -53.887654 
L 96.29592 -53.781546 
L 96.163523 -53.675438 
L 96.025055 -53.569331 
L 95.88049 -53.463223 
L 95.729808 -53.357115 
L 95.573002 -53.251008 
L 95.410078 -53.1449 
L 95.241058 -53.038792 
L 95.065984 -52.932685 
L 94.884919 -52.826577 
L 94.697954 -52.720469 
L 94.5052 -52.614361 
L 94.306802 -52.508254 
L 94.10293 -52.402146 
L 93.893785 -52.296038 
L 93.679599 -52.189931 
L 93.460633 -52.083823 
L 93.237179 -51.977715 
L 93.009558 -51.871608 
L 92.778119 -51.7655 
L 92.543238 -51.659392 
L 92.305316 -51.553284 
L 92.064775 -51.447177 
L 91.822058 -51.341069 
z
" style="stroke: #999999; stroke-width: 2"/>
    </defs>
    <g clip-path="url(#pcc5b16d45f)">
     <use xlink:href="#m4183aa3e8e" x="0" y="255.11811" style="fill: #ffffff; stroke: #999999; stroke-width: 2"/>
    </g>
   </g>
   <g id="PolyCollection_2">
    <defs>
     <path id="m6e73f34dab" d="M 166.857352 -53.942977 
L 129.7096 -53.942977 
L 129.312571 -54.012072 
L 128.933338 -54.081166 
L 128.572912 -54.150261 
L 128.232215 -54.219355 
L 127.912083 -54.288449 
L 127.613257 -54.357544 
L 127.336386 -54.426638 
L 127.082021 -54.495733 
L 126.850614 -54.564827 
L 126.64252 -54.633921 
L 126.458 -54.703016 
L 126.297214 -54.77211 
L 126.160234 -54.841205 
L 126.047038 -54.910299 
L 125.957518 -54.979393 
L 125.891483 -55.048488 
L 125.848664 -55.117582 
L 125.828716 -55.186677 
L 125.831227 -55.255771 
L 125.855722 -55.324865 
L 125.901665 -55.39396 
L 125.968471 -55.463054 
L 126.055507 -55.532149 
L 126.162096 -55.601243 
L 126.28753 -55.670337 
L 126.431068 -55.739432 
L 126.591941 -55.808526 
L 126.769365 -55.877621 
L 126.962534 -55.946715 
L 127.170635 -56.015809 
L 127.392843 -56.084904 
L 127.62833 -56.153998 
L 127.876267 -56.223093 
L 128.135826 -56.292187 
L 128.406183 -56.361281 
L 128.686518 -56.430376 
L 128.976021 -56.49947 
L 129.273889 -56.568565 
L 129.57933 -56.637659 
L 129.891562 -56.706754 
L 130.209817 -56.775848 
L 130.533335 -56.844942 
L 130.861371 -56.914037 
L 131.193193 -56.983131 
L 131.528078 -57.052226 
L 131.865319 -57.12132 
L 132.20422 -57.190414 
L 132.544098 -57.259509 
L 132.884282 -57.328603 
L 133.224115 -57.397698 
L 133.562953 -57.466792 
L 133.900164 -57.535886 
L 134.235133 -57.604981 
L 134.56726 -57.674075 
L 134.895959 -57.74317 
L 135.220663 -57.812264 
L 135.540825 -57.881358 
L 135.855916 -57.950453 
L 136.165432 -58.019547 
L 136.468892 -58.088642 
L 136.765841 -58.157736 
L 137.055854 -58.22683 
L 137.338536 -58.295925 
L 137.613526 -58.365019 
L 137.880499 -58.434114 
L 138.139169 -58.503208 
L 138.389289 -58.572302 
L 138.630656 -58.641397 
L 138.86311 -58.710491 
L 139.08654 -58.779586 
L 139.300882 -58.84868 
L 139.506121 -58.917774 
L 139.702293 -58.986869 
L 139.889482 -59.055963 
L 140.067827 -59.125058 
L 140.237514 -59.194152 
L 140.398779 -59.263246 
L 140.551907 -59.332341 
L 140.697227 -59.401435 
L 140.835113 -59.47053 
L 140.96598 -59.539624 
L 141.09028 -59.608718 
L 141.208497 -59.677813 
L 141.321147 -59.746907 
L 141.428769 -59.816002 
L 141.531922 -59.885096 
L 141.631179 -59.95419 
L 141.727125 -60.023285 
L 141.820344 -60.092379 
L 141.911423 -60.161474 
L 142.000937 -60.230568 
L 142.089452 -60.299662 
L 142.177511 -60.368757 
L 142.265637 -60.437851 
L 142.354324 -60.506946 
L 142.444031 -60.57604 
L 142.535181 -60.645134 
L 142.628156 -60.714229 
L 142.723294 -60.783323 
L 153.843658 -60.783323 
L 153.843658 -60.783323 
L 153.938796 -60.714229 
L 154.031771 -60.645134 
L 154.122921 -60.57604 
L 154.212628 -60.506946 
L 154.301314 -60.437851 
L 154.389441 -60.368757 
L 154.4775 -60.299662 
L 154.566014 -60.230568 
L 154.655529 -60.161474 
L 154.746607 -60.092379 
L 154.839827 -60.023285 
L 154.935772 -59.95419 
L 155.03503 -59.885096 
L 155.138183 -59.816002 
L 155.245805 -59.746907 
L 155.358455 -59.677813 
L 155.476672 -59.608718 
L 155.600972 -59.539624 
L 155.731839 -59.47053 
L 155.869725 -59.401435 
L 156.015045 -59.332341 
L 156.168172 -59.263246 
L 156.329437 -59.194152 
L 156.499124 -59.125058 
L 156.677469 -59.055963 
L 156.864659 -58.986869 
L 157.06083 -58.917774 
L 157.266069 -58.84868 
L 157.480411 -58.779586 
L 157.703841 -58.710491 
L 157.936296 -58.641397 
L 158.177662 -58.572302 
L 158.427782 -58.503208 
L 158.686452 -58.434114 
L 158.953426 -58.365019 
L 159.228416 -58.295925 
L 159.511098 -58.22683 
L 159.801111 -58.157736 
L 160.09806 -58.088642 
L 160.401519 -58.019547 
L 160.711035 -57.950453 
L 161.026127 -57.881358 
L 161.346288 -57.812264 
L 161.670993 -57.74317 
L 161.999692 -57.674075 
L 162.331818 -57.604981 
L 162.666788 -57.535886 
L 163.003999 -57.466792 
L 163.342837 -57.397698 
L 163.68267 -57.328603 
L 164.022854 -57.259509 
L 164.362731 -57.190414 
L 164.701633 -57.12132 
L 165.038874 -57.052226 
L 165.373759 -56.983131 
L 165.70558 -56.914037 
L 166.033617 -56.844942 
L 166.357135 -56.775848 
L 166.675389 -56.706754 
L 166.987622 -56.637659 
L 167.293063 -56.568565 
L 167.590931 -56.49947 
L 167.880434 -56.430376 
L 168.160769 -56.361281 
L 168.431125 -56.292187 
L 168.690684 -56.223093 
L 168.938622 -56.153998 
L 169.174109 -56.084904 
L 169.396317 -56.015809 
L 169.604417 -55.946715 
L 169.797587 -55.877621 
L 169.97501 -55.808526 
L 170.135884 -55.739432 
L 170.279421 -55.670337 
L 170.404855 -55.601243 
L 170.511445 -55.532149 
L 170.59848 -55.463054 
L 170.665286 -55.39396 
L 170.71123 -55.324865 
L 170.735724 -55.255771 
L 170.738236 -55.186677 
L 170.718288 -55.117582 
L 170.675469 -55.048488 
L 170.609434 -54.979393 
L 170.519914 -54.910299 
L 170.406718 -54.841205 
L 170.269737 -54.77211 
L 170.108952 -54.703016 
L 169.924431 -54.633921 
L 169.716338 -54.564827 
L 169.484931 -54.495733 
L 169.230565 -54.426638 
L 168.953694 -54.357544 
L 168.654869 -54.288449 
L 168.334737 -54.219355 
L 167.99404 -54.150261 
L 167.633613 -54.081166 
L 167.254381 -54.012072 
L 166.857352 -53.942977 
z
" style="stroke: #999999; stroke-width: 2"/>
    </defs>
    <g clip-path="url(#pcc5b16d45f)">
     <use xlink:href="#m6e73f34dab" x="0" y="255.11811" style="fill: #ffffff; stroke: #999999; stroke-width: 2"/>
    </g>
   </g>
   <g id="PolyCollection_3">
    <defs>
     <path id="m212eb22d03" d="M 218.141809 -60.677664 
L 206.509777 -60.677664 
L 206.313004 -60.7688 
L 206.111773 -60.859936 
L 205.905794 -60.951072 
L 205.694783 -61.042207 
L 205.478471 -61.133343 
L 205.256614 -61.224479 
L 205.028994 -61.315615 
L 204.795436 -61.406751 
L 204.555808 -61.497887 
L 204.310036 -61.589023 
L 204.058103 -61.680159 
L 203.800066 -61.771295 
L 203.536053 -61.862431 
L 203.266273 -61.953566 
L 202.991016 -62.044702 
L 202.710663 -62.135838 
L 202.425679 -62.226974 
L 202.136621 -62.31811 
L 201.844131 -62.409246 
L 201.54894 -62.500382 
L 201.251856 -62.591518 
L 200.953766 -62.682654 
L 200.655627 -62.77379 
L 200.358456 -62.864925 
L 200.063325 -62.956061 
L 199.771345 -63.047197 
L 199.483662 -63.138333 
L 199.20144 -63.229469 
L 198.925849 -63.320605 
L 198.658056 -63.411741 
L 198.399205 -63.502877 
L 198.15041 -63.594013 
L 197.91274 -63.685149 
L 197.687206 -63.776285 
L 197.47475 -63.86742 
L 197.276231 -63.958556 
L 197.092419 -64.049692 
L 196.923986 -64.140828 
L 196.771495 -64.231964 
L 196.635395 -64.3231 
L 196.51602 -64.414236 
L 196.413581 -64.505372 
L 196.328168 -64.596508 
L 196.259749 -64.687644 
L 196.208174 -64.778779 
L 196.173175 -64.869915 
L 196.154375 -64.961051 
L 196.151295 -65.052187 
L 196.163357 -65.143323 
L 196.189901 -65.234459 
L 196.230187 -65.325595 
L 196.283413 -65.416731 
L 196.348724 -65.507867 
L 196.425226 -65.599003 
L 196.511995 -65.690138 
L 196.608094 -65.781274 
L 196.712584 -65.87241 
L 196.824536 -65.963546 
L 196.943044 -66.054682 
L 197.067233 -66.145818 
L 197.196274 -66.236954 
L 197.32939 -66.32809 
L 197.465866 -66.419226 
L 197.605053 -66.510362 
L 197.746378 -66.601498 
L 197.889346 -66.692633 
L 198.033542 -66.783769 
L 198.178638 -66.874905 
L 198.324384 -66.966041 
L 198.470616 -67.057177 
L 198.617249 -67.148313 
L 198.764275 -67.239449 
L 198.911759 -67.330585 
L 199.059831 -67.421721 
L 199.208683 -67.512857 
L 199.358559 -67.603992 
L 199.509748 -67.695128 
L 199.662579 -67.786264 
L 199.817407 -67.8774 
L 199.974608 -67.968536 
L 200.134569 -68.059672 
L 200.297681 -68.150808 
L 200.464328 -68.241944 
L 200.63488 -68.33308 
L 200.809687 -68.424216 
L 200.989067 -68.515352 
L 201.173308 -68.606487 
L 201.362651 -68.697623 
L 201.557297 -68.788759 
L 201.757391 -68.879895 
L 201.963029 -68.971031 
L 202.174247 -69.062167 
L 202.391025 -69.153303 
L 202.613283 -69.244439 
L 202.840884 -69.335575 
L 203.07363 -69.426711 
L 203.311268 -69.517846 
L 203.553491 -69.608982 
L 203.799938 -69.700118 
L 220.851648 -69.700118 
L 220.851648 -69.700118 
L 221.098095 -69.608982 
L 221.340318 -69.517846 
L 221.577956 -69.426711 
L 221.810702 -69.335575 
L 222.038303 -69.244439 
L 222.260561 -69.153303 
L 222.477339 -69.062167 
L 222.688557 -68.971031 
L 222.894195 -68.879895 
L 223.094289 -68.788759 
L 223.288935 -68.697623 
L 223.478278 -68.606487 
L 223.662519 -68.515352 
L 223.841899 -68.424216 
L 224.016706 -68.33308 
L 224.187258 -68.241944 
L 224.353905 -68.150808 
L 224.517017 -68.059672 
L 224.676978 -67.968536 
L 224.834179 -67.8774 
L 224.989007 -67.786264 
L 225.141838 -67.695128 
L 225.293027 -67.603992 
L 225.442903 -67.512857 
L 225.591755 -67.421721 
L 225.739827 -67.330585 
L 225.887311 -67.239449 
L 226.034337 -67.148313 
L 226.180971 -67.057177 
L 226.327203 -66.966041 
L 226.472948 -66.874905 
L 226.618044 -66.783769 
L 226.76224 -66.692633 
L 226.905208 -66.601498 
L 227.046533 -66.510362 
L 227.185721 -66.419226 
L 227.322196 -66.32809 
L 227.455312 -66.236954 
L 227.584353 -66.145818 
L 227.708542 -66.054682 
L 227.82705 -65.963546 
L 227.939002 -65.87241 
L 228.043492 -65.781274 
L 228.139591 -65.690138 
L 228.22636 -65.599003 
L 228.302862 -65.507867 
L 228.368173 -65.416731 
L 228.4214 -65.325595 
L 228.461685 -65.234459 
L 228.488229 -65.143323 
L 228.500291 -65.052187 
L 228.497211 -64.961051 
L 228.478411 -64.869915 
L 228.443412 -64.778779 
L 228.391837 -64.687644 
L 228.323418 -64.596508 
L 228.238005 -64.505372 
L 228.135566 -64.414236 
L 228.016191 -64.3231 
L 227.880091 -64.231964 
L 227.7276 -64.140828 
L 227.559167 -64.049692 
L 227.375356 -63.958556 
L 227.176836 -63.86742 
L 226.96438 -63.776285 
L 226.738846 -63.685149 
L 226.501176 -63.594013 
L 226.252381 -63.502877 
L 225.99353 -63.411741 
L 225.725737 -63.320605 
L 225.450146 -63.229469 
L 225.167924 -63.138333 
L 224.880241 -63.047197 
L 224.588261 -62.956061 
L 224.29313 -62.864925 
L 223.995959 -62.77379 
L 223.69782 -62.682654 
L 223.39973 -62.591518 
L 223.102646 -62.500382 
L 222.807455 -62.409246 
L 222.514965 -62.31811 
L 222.225907 -62.226974 
L 221.940923 -62.135838 
L 221.66057 -62.044702 
L 221.385313 -61.953566 
L 221.115533 -61.862431 
L 220.85152 -61.771295 
L 220.593483 -61.680159 
L 220.341551 -61.589023 
L 220.095778 -61.497887 
L 219.85615 -61.406751 
L 219.622592 -61.315615 
L 219.394972 -61.224479 
L 219.173115 -61.133343 
L 218.956804 -61.042207 
L 218.745792 -60.951072 
L 218.539813 -60.859936 
L 218.338582 -60.7688 
L 218.141809 -60.677664 
z
" style="stroke: #999999; stroke-width: 2"/>
    </defs>
    <g clip-path="url(#pcc5b16d45f)">
     <use xlink:href="#m212eb22d03" x="0" y="255.11811" style="fill: #ffffff; stroke: #999999; stroke-width: 2"/>
    </g>
   </g>
   <g id="PolyCollection_4">
    <defs>
     <path id="m0c5172d269" d="M 276.979331 -136.914809 
L 275.756889 -136.914809 
L 275.734907 -137.776083 
L 275.712837 -138.637357 
L 275.690684 -139.498631 
L 275.668449 -140.359905 
L 275.646131 -141.221179 
L 275.623729 -142.082453 
L 275.601237 -142.943727 
L 275.57865 -143.805 
L 275.555961 -144.666274 
L 275.533162 -145.527548 
L 275.510243 -146.388822 
L 275.487195 -147.250096 
L 275.464005 -148.11137 
L 275.440661 -148.972644 
L 275.41715 -149.833918 
L 275.393455 -150.695191 
L 275.369561 -151.556465 
L 275.345451 -152.417739 
L 275.321105 -153.279013 
L 275.296504 -154.140287 
L 275.271627 -155.001561 
L 275.246452 -155.862835 
L 275.220957 -156.724109 
L 275.195121 -157.585382 
L 275.168921 -158.446656 
L 275.142338 -159.30793 
L 275.115353 -160.169204 
L 275.087951 -161.030478 
L 275.06012 -161.891752 
L 275.031854 -162.753026 
L 275.003153 -163.6143 
L 274.974024 -164.475573 
L 274.94448 -165.336847 
L 274.914548 -166.198121 
L 274.884262 -167.059395 
L 274.853668 -167.920669 
L 274.822824 -168.781943 
L 274.791803 -169.643217 
L 274.760687 -170.504491 
L 274.729576 -171.365765 
L 274.69858 -172.227038 
L 274.667822 -173.088312 
L 274.637439 -173.949586 
L 274.60758 -174.81086 
L 274.578401 -175.672134 
L 274.55007 -176.533408 
L 274.52276 -177.394682 
L 274.496652 -178.255956 
L 274.471928 -179.117229 
L 274.448772 -179.978503 
L 274.427366 -180.839777 
L 274.407889 -181.701051 
L 274.390515 -182.562325 
L 274.375406 -183.423599 
L 274.362717 -184.284873 
L 274.352587 -185.146147 
L 274.345142 -186.00742 
L 274.340488 -186.868694 
L 274.338715 -187.729968 
L 274.339891 -188.591242 
L 274.344064 -189.452516 
L 274.351258 -190.31379 
L 274.361475 -191.175064 
L 274.374695 -192.036338 
L 274.390875 -192.897612 
L 274.40995 -193.758885 
L 274.431833 -194.620159 
L 274.456417 -195.481433 
L 274.483576 -196.342707 
L 274.513167 -197.203981 
L 274.545034 -198.065255 
L 274.579003 -198.926529 
L 274.614895 -199.787803 
L 274.652517 -200.649076 
L 274.691673 -201.51035 
L 274.732162 -202.371624 
L 274.773782 -203.232898 
L 274.816332 -204.094172 
L 274.859614 -204.955446 
L 274.903435 -205.81672 
L 274.94761 -206.677994 
L 274.991962 -207.539267 
L 275.036325 -208.400541 
L 275.080544 -209.261815 
L 275.124479 -210.123089 
L 275.168002 -210.984363 
L 275.210998 -211.845637 
L 275.253367 -212.706911 
L 275.295026 -213.568185 
L 275.335901 -214.429458 
L 275.375935 -215.290732 
L 275.415084 -216.152006 
L 275.453314 -217.01328 
L 275.490603 -217.874554 
L 275.526938 -218.735828 
L 275.562317 -219.597102 
L 275.596743 -220.458376 
L 275.630225 -221.31965 
L 275.662778 -222.180923 
L 277.073442 -222.180923 
L 277.073442 -222.180923 
L 277.105996 -221.31965 
L 277.139478 -220.458376 
L 277.173903 -219.597102 
L 277.209282 -218.735828 
L 277.245618 -217.874554 
L 277.282907 -217.01328 
L 277.321137 -216.152006 
L 277.360285 -215.290732 
L 277.40032 -214.429458 
L 277.441195 -213.568185 
L 277.482853 -212.706911 
L 277.525223 -211.845637 
L 277.568219 -210.984363 
L 277.611741 -210.123089 
L 277.655676 -209.261815 
L 277.699896 -208.400541 
L 277.744259 -207.539267 
L 277.788611 -206.677994 
L 277.832785 -205.81672 
L 277.876606 -204.955446 
L 277.919888 -204.094172 
L 277.962438 -203.232898 
L 278.004059 -202.371624 
L 278.044548 -201.51035 
L 278.083704 -200.649076 
L 278.121326 -199.787803 
L 278.157217 -198.926529 
L 278.191187 -198.065255 
L 278.223053 -197.203981 
L 278.252645 -196.342707 
L 278.279804 -195.481433 
L 278.304388 -194.620159 
L 278.32627 -193.758885 
L 278.345345 -192.897612 
L 278.361525 -192.036338 
L 278.374746 -191.175064 
L 278.384963 -190.31379 
L 278.392157 -189.452516 
L 278.396329 -188.591242 
L 278.397505 -187.729968 
L 278.395732 -186.868694 
L 278.391079 -186.00742 
L 278.383633 -185.146147 
L 278.373503 -184.284873 
L 278.360814 -183.423599 
L 278.345706 -182.562325 
L 278.328331 -181.701051 
L 278.308855 -180.839777 
L 278.287449 -179.978503 
L 278.264293 -179.117229 
L 278.239569 -178.255956 
L 278.21346 -177.394682 
L 278.186151 -176.533408 
L 278.15782 -175.672134 
L 278.128641 -174.81086 
L 278.098781 -173.949586 
L 278.068399 -173.088312 
L 278.037641 -172.227038 
L 278.006645 -171.365765 
L 277.975533 -170.504491 
L 277.944418 -169.643217 
L 277.913396 -168.781943 
L 277.882553 -167.920669 
L 277.851959 -167.059395 
L 277.821672 -166.198121 
L 277.79174 -165.336847 
L 277.762197 -164.475573 
L 277.733067 -163.6143 
L 277.704366 -162.753026 
L 277.6761 -161.891752 
L 277.64827 -161.030478 
L 277.620868 -160.169204 
L 277.593882 -159.30793 
L 277.567299 -158.446656 
L 277.541099 -157.585382 
L 277.515263 -156.724109 
L 277.489768 -155.862835 
L 277.464594 -155.001561 
L 277.439717 -154.140287 
L 277.415116 -153.279013 
L 277.39077 -152.417739 
L 277.366659 -151.556465 
L 277.342766 -150.695191 
L 277.319071 -149.833918 
L 277.295559 -148.972644 
L 277.272215 -148.11137 
L 277.249026 -147.250096 
L 277.225977 -146.388822 
L 277.203059 -145.527548 
L 277.18026 -144.666274 
L 277.157571 -143.805 
L 277.134984 -142.943727 
L 277.112492 -142.082453 
L 277.090089 -141.221179 
L 277.067771 -140.359905 
L 277.045536 -139.498631 
L 277.023383 -138.637357 
L 277.001314 -137.776083 
L 276.979331 -136.914809 
z
" style="stroke: #999999; stroke-width: 2"/>
    </defs>
    <g clip-path="url(#pcc5b16d45f)">
     <use xlink:href="#m0c5172d269" x="0" y="255.11811" style="fill: #ffffff; stroke: #999999; stroke-width: 2"/>
    </g>
   </g>
   <g id="PolyCollection_5">
    <defs>
     <path id="m55e2ba7946" d="M 346.64294 -62.239944 
L 334.177915 -62.239944 
L 334.125865 -62.348828 
L 334.077069 -62.457713 
L 334.031491 -62.566597 
L 333.989082 -62.675482 
L 333.94978 -62.784366 
L 333.913508 -62.893251 
L 333.88018 -63.002135 
L 333.849696 -63.11102 
L 333.821946 -63.219904 
L 333.796808 -63.328789 
L 333.77415 -63.437673 
L 333.753832 -63.546558 
L 333.735702 -63.655442 
L 333.719602 -63.764327 
L 333.705365 -63.873211 
L 333.692819 -63.982096 
L 333.681784 -64.09098 
L 333.672076 -64.199865 
L 333.663508 -64.308749 
L 333.655887 -64.417634 
L 333.64902 -64.526518 
L 333.642711 -64.635403 
L 333.636765 -64.744287 
L 333.630986 -64.853172 
L 333.62518 -64.962056 
L 333.619156 -65.070941 
L 333.612723 -65.179825 
L 333.605699 -65.28871 
L 333.597903 -65.397594 
L 333.589162 -65.506479 
L 333.579308 -65.615363 
L 333.568183 -65.724248 
L 333.555634 -65.833132 
L 333.541519 -65.942017 
L 333.525707 -66.050901 
L 333.508074 -66.159786 
L 333.48851 -66.26867 
L 333.466916 -66.377554 
L 333.443204 -66.486439 
L 333.417301 -66.595323 
L 333.389144 -66.704208 
L 333.358686 -66.813092 
L 333.325893 -66.921977 
L 333.290746 -67.030861 
L 333.253241 -67.139746 
L 333.213386 -67.24863 
L 333.171206 -67.357515 
L 333.126741 -67.466399 
L 333.080045 -67.575284 
L 333.031187 -67.684168 
L 332.980252 -67.793053 
L 332.927338 -67.901937 
L 332.872558 -68.010822 
L 332.816039 -68.119706 
L 332.757923 -68.228591 
L 332.698364 -68.337475 
L 332.637529 -68.44636 
L 332.575599 -68.555244 
L 332.512764 -68.664129 
L 332.449228 -68.773013 
L 332.385204 -68.881898 
L 332.320916 -68.990782 
L 332.256595 -69.099667 
L 332.192482 -69.208551 
L 332.128824 -69.317436 
L 332.065875 -69.42632 
L 332.003894 -69.535205 
L 331.943145 -69.644089 
L 331.883894 -69.752974 
L 331.826409 -69.861858 
L 331.770962 -69.970743 
L 331.71782 -70.079627 
L 331.667252 -70.188512 
L 331.619526 -70.297396 
L 331.574902 -70.406281 
L 331.533638 -70.515165 
L 331.495987 -70.62405 
L 331.462192 -70.732934 
L 331.432491 -70.841819 
L 331.407111 -70.950703 
L 331.386267 -71.059588 
L 331.370167 -71.168472 
L 331.359004 -71.277357 
L 331.352956 -71.386241 
L 331.35219 -71.495126 
L 331.356856 -71.60401 
L 331.36709 -71.712894 
L 331.383009 -71.821779 
L 331.404716 -71.930663 
L 331.432294 -72.039548 
L 331.465809 -72.148432 
L 331.505308 -72.257317 
L 331.550819 -72.366201 
L 331.602354 -72.475086 
L 331.659902 -72.58397 
L 331.723435 -72.692855 
L 331.792906 -72.801739 
L 331.86825 -72.910624 
L 331.949381 -73.019508 
L 348.871474 -73.019508 
L 348.871474 -73.019508 
L 348.952605 -72.910624 
L 349.027949 -72.801739 
L 349.09742 -72.692855 
L 349.160953 -72.58397 
L 349.218501 -72.475086 
L 349.270035 -72.366201 
L 349.315547 -72.257317 
L 349.355046 -72.148432 
L 349.388561 -72.039548 
L 349.416139 -71.930663 
L 349.437846 -71.821779 
L 349.453765 -71.712894 
L 349.463999 -71.60401 
L 349.468665 -71.495126 
L 349.467899 -71.386241 
L 349.461851 -71.277357 
L 349.450687 -71.168472 
L 349.434587 -71.059588 
L 349.413744 -70.950703 
L 349.388364 -70.841819 
L 349.358663 -70.732934 
L 349.324868 -70.62405 
L 349.287217 -70.515165 
L 349.245953 -70.406281 
L 349.201329 -70.297396 
L 349.153602 -70.188512 
L 349.103035 -70.079627 
L 349.049893 -69.970743 
L 348.994445 -69.861858 
L 348.936961 -69.752974 
L 348.87771 -69.644089 
L 348.816961 -69.535205 
L 348.75498 -69.42632 
L 348.692031 -69.317436 
L 348.628373 -69.208551 
L 348.56426 -69.099667 
L 348.499939 -68.990782 
L 348.435651 -68.881898 
L 348.371627 -68.773013 
L 348.308091 -68.664129 
L 348.245256 -68.555244 
L 348.183326 -68.44636 
L 348.122491 -68.337475 
L 348.062932 -68.228591 
L 348.004816 -68.119706 
L 347.948297 -68.010822 
L 347.893517 -67.901937 
L 347.840603 -67.793053 
L 347.789668 -67.684168 
L 347.74081 -67.575284 
L 347.694114 -67.466399 
L 347.649649 -67.357515 
L 347.607469 -67.24863 
L 347.567614 -67.139746 
L 347.530108 -67.030861 
L 347.494962 -66.921977 
L 347.462169 -66.813092 
L 347.431711 -66.704208 
L 347.403554 -66.595323 
L 347.377651 -66.486439 
L 347.353939 -66.377554 
L 347.332345 -66.26867 
L 347.312781 -66.159786 
L 347.295148 -66.050901 
L 347.279336 -65.942017 
L 347.265221 -65.833132 
L 347.252672 -65.724248 
L 347.241547 -65.615363 
L 347.231693 -65.506479 
L 347.222952 -65.397594 
L 347.215156 -65.28871 
L 347.208131 -65.179825 
L 347.201699 -65.070941 
L 347.195674 -64.962056 
L 347.189869 -64.853172 
L 347.18409 -64.744287 
L 347.178143 -64.635403 
L 347.171835 -64.526518 
L 347.164968 -64.417634 
L 347.157347 -64.308749 
L 347.148779 -64.199865 
L 347.139071 -64.09098 
L 347.128036 -63.982096 
L 347.11549 -63.873211 
L 347.101253 -63.764327 
L 347.085153 -63.655442 
L 347.067023 -63.546558 
L 347.046704 -63.437673 
L 347.024047 -63.328789 
L 346.998909 -63.219904 
L 346.971159 -63.11102 
L 346.940675 -63.002135 
L 346.907347 -62.893251 
L 346.871075 -62.784366 
L 346.831772 -62.675482 
L 346.789364 -62.566597 
L 346.743786 -62.457713 
L 346.69499 -62.348828 
L 346.64294 -62.239944 
z
" style="stroke: #999999; stroke-width: 2"/>
    </defs>
    <g clip-path="url(#pcc5b16d45f)">
     <use xlink:href="#m55e2ba7946" x="0" y="255.11811" style="fill: #ffffff; stroke: #999999; stroke-width: 2"/>
    </g>
   </g>
   <g id="PolyCollection_6">
    <defs>
     <path id="mc47bf83b1f" d="M 413.803287 -55.552671 
L 395.102203 -55.552671 
L 394.936546 -55.636396 
L 394.776629 -55.720121 
L 394.62273 -55.803846 
L 394.475108 -55.887571 
L 394.334003 -55.971296 
L 394.199629 -56.055021 
L 394.072179 -56.138745 
L 393.951821 -56.22247 
L 393.838698 -56.306195 
L 393.732927 -56.38992 
L 393.634599 -56.473645 
L 393.543776 -56.55737 
L 393.460495 -56.641095 
L 393.384764 -56.72482 
L 393.316563 -56.808545 
L 393.255845 -56.892269 
L 393.202534 -56.975994 
L 393.156528 -57.059719 
L 393.117697 -57.143444 
L 393.085884 -57.227169 
L 393.060907 -57.310894 
L 393.042558 -57.394619 
L 393.030605 -57.478344 
L 393.024792 -57.562068 
L 393.02484 -57.645793 
L 393.030452 -57.729518 
L 393.041308 -57.813243 
L 393.057072 -57.896968 
L 393.077388 -57.980693 
L 393.101889 -58.064418 
L 393.130192 -58.148143 
L 393.161903 -58.231868 
L 393.196619 -58.315592 
L 393.233927 -58.399317 
L 393.273413 -58.483042 
L 393.314654 -58.566767 
L 393.357229 -58.650492 
L 393.400717 -58.734217 
L 393.4447 -58.817942 
L 393.488765 -58.901667 
L 393.532508 -58.985392 
L 393.575531 -59.069116 
L 393.617452 -59.152841 
L 393.657902 -59.236566 
L 393.696526 -59.320291 
L 393.73299 -59.404016 
L 393.76698 -59.487741 
L 393.798204 -59.571466 
L 393.826393 -59.655191 
L 393.851307 -59.738916 
L 393.872732 -59.82264 
L 393.890483 -59.906365 
L 393.904405 -59.99009 
L 393.914378 -60.073815 
L 393.920312 -60.15754 
L 393.922151 -60.241265 
L 393.919876 -60.32499 
L 393.9135 -60.408715 
L 393.903075 -60.49244 
L 393.888685 -60.576164 
L 393.870453 -60.659889 
L 393.848534 -60.743614 
L 393.82312 -60.827339 
L 393.794437 -60.911064 
L 393.762742 -60.994789 
L 393.728326 -61.078514 
L 393.69151 -61.162239 
L 393.652644 -61.245963 
L 393.612103 -61.329688 
L 393.57029 -61.413413 
L 393.52763 -61.497138 
L 393.484567 -61.580863 
L 393.441564 -61.664588 
L 393.399101 -61.748313 
L 393.357667 -61.832038 
L 393.317764 -61.915763 
L 393.279897 -61.999487 
L 393.244577 -62.083212 
L 393.212314 -62.166937 
L 393.183616 -62.250662 
L 393.158984 -62.334387 
L 393.138909 -62.418112 
L 393.12387 -62.501837 
L 393.114331 -62.585562 
L 393.110736 -62.669287 
L 393.113508 -62.753011 
L 393.123045 -62.836736 
L 393.139719 -62.920461 
L 393.163869 -63.004186 
L 393.195808 -63.087911 
L 393.235808 -63.171636 
L 393.284111 -63.255361 
L 393.340917 -63.339086 
L 393.40639 -63.422811 
L 393.480653 -63.506535 
L 393.563788 -63.59026 
L 393.655834 -63.673985 
L 393.756791 -63.75771 
L 393.866616 -63.841435 
L 415.038873 -63.841435 
L 415.038873 -63.841435 
L 415.148698 -63.75771 
L 415.249655 -63.673985 
L 415.341702 -63.59026 
L 415.424836 -63.506535 
L 415.499099 -63.422811 
L 415.564572 -63.339086 
L 415.621379 -63.255361 
L 415.669681 -63.171636 
L 415.709682 -63.087911 
L 415.74162 -63.004186 
L 415.765771 -62.920461 
L 415.782444 -62.836736 
L 415.791981 -62.753011 
L 415.794753 -62.669287 
L 415.791158 -62.585562 
L 415.781619 -62.501837 
L 415.76658 -62.418112 
L 415.746505 -62.334387 
L 415.721873 -62.250662 
L 415.693175 -62.166937 
L 415.660912 -62.083212 
L 415.625593 -61.999487 
L 415.587726 -61.915763 
L 415.547822 -61.832038 
L 415.506388 -61.748313 
L 415.463925 -61.664588 
L 415.420923 -61.580863 
L 415.37786 -61.497138 
L 415.335199 -61.413413 
L 415.293386 -61.329688 
L 415.252846 -61.245963 
L 415.213979 -61.162239 
L 415.177163 -61.078514 
L 415.142747 -60.994789 
L 415.111052 -60.911064 
L 415.082369 -60.827339 
L 415.056955 -60.743614 
L 415.035036 -60.659889 
L 415.016804 -60.576164 
L 415.002414 -60.49244 
L 414.991989 -60.408715 
L 414.985614 -60.32499 
L 414.983338 -60.241265 
L 414.985178 -60.15754 
L 414.991111 -60.073815 
L 415.001084 -59.99009 
L 415.015007 -59.906365 
L 415.032757 -59.82264 
L 415.054182 -59.738916 
L 415.079096 -59.655191 
L 415.107286 -59.571466 
L 415.138509 -59.487741 
L 415.172499 -59.404016 
L 415.208964 -59.320291 
L 415.247588 -59.236566 
L 415.288037 -59.152841 
L 415.329958 -59.069116 
L 415.372982 -58.985392 
L 415.416724 -58.901667 
L 415.460789 -58.817942 
L 415.504773 -58.734217 
L 415.548261 -58.650492 
L 415.590836 -58.566767 
L 415.632077 -58.483042 
L 415.671562 -58.399317 
L 415.708871 -58.315592 
L 415.743586 -58.231868 
L 415.775297 -58.148143 
L 415.8036 -58.064418 
L 415.828101 -57.980693 
L 415.848418 -57.896968 
L 415.864181 -57.813243 
L 415.875037 -57.729518 
L 415.880649 -57.645793 
L 415.880698 -57.562068 
L 415.874884 -57.478344 
L 415.862931 -57.394619 
L 415.844582 -57.310894 
L 415.819605 -57.227169 
L 415.787792 -57.143444 
L 415.748961 -57.059719 
L 415.702955 -56.975994 
L 415.649645 -56.892269 
L 415.588927 -56.808545 
L 415.520726 -56.72482 
L 415.444994 -56.641095 
L 415.361713 -56.55737 
L 415.270891 -56.473645 
L 415.172562 -56.38992 
L 415.066791 -56.306195 
L 414.953668 -56.22247 
L 414.83331 -56.138745 
L 414.705861 -56.055021 
L 414.571487 -55.971296 
L 414.430381 -55.887571 
L 414.28276 -55.803846 
L 414.128861 -55.720121 
L 413.968943 -55.636396 
L 413.803287 -55.552671 
z
" style="stroke: #999999; stroke-width: 2"/>
    </defs>
    <g clip-path="url(#pcc5b16d45f)">
     <use xlink:href="#mc47bf83b1f" x="0" y="255.11811" style="fill: #ffffff; stroke: #999999; stroke-width: 2"/>
    </g>
   </g>
   <g id="PolyCollection_7">
    <defs>
     <path id="m2d7b9919e3" d="M 492.668073 -49.837187 
L 444.322051 -49.837187 
L 444.034709 -49.89641 
L 443.777243 -49.955633 
L 443.550636 -50.014856 
L 443.355748 -50.074079 
L 443.193316 -50.133302 
L 443.063941 -50.192526 
L 442.968092 -50.251749 
L 442.906096 -50.310972 
L 442.878135 -50.370195 
L 442.88425 -50.429418 
L 442.924334 -50.488641 
L 442.998135 -50.547864 
L 443.105257 -50.607087 
L 443.245161 -50.666311 
L 443.417168 -50.725534 
L 443.620464 -50.784757 
L 443.854103 -50.84398 
L 444.117015 -50.903203 
L 444.408009 -50.962426 
L 444.725783 -51.021649 
L 445.06893 -51.080873 
L 445.435947 -51.140096 
L 445.825244 -51.199319 
L 446.235154 -51.258542 
L 446.663939 -51.317765 
L 447.109806 -51.376988 
L 447.570913 -51.436211 
L 448.04538 -51.495434 
L 448.531301 -51.554658 
L 449.026751 -51.613881 
L 449.529803 -51.673104 
L 450.03853 -51.732327 
L 450.551021 -51.79155 
L 451.065389 -51.850773 
L 451.579778 -51.909996 
L 452.092377 -51.969219 
L 452.601423 -52.028443 
L 453.105212 -52.087666 
L 453.602107 -52.146889 
L 454.090543 -52.206112 
L 454.569034 -52.265335 
L 455.036178 -52.324558 
L 455.490664 -52.383781 
L 455.931276 -52.443004 
L 456.356894 -52.502228 
L 456.766499 -52.561451 
L 457.159178 -52.620674 
L 457.534121 -52.679897 
L 457.890626 -52.73912 
L 458.228097 -52.798343 
L 458.546046 -52.857566 
L 458.844093 -52.916789 
L 459.121963 -52.976013 
L 459.379484 -53.035236 
L 459.616588 -53.094459 
L 459.833308 -53.153682 
L 460.029771 -53.212905 
L 460.2062 -53.272128 
L 460.362908 -53.331351 
L 460.500294 -53.390574 
L 460.61884 -53.449798 
L 460.719104 -53.509021 
L 460.801719 -53.568244 
L 460.867385 -53.627467 
L 460.916864 -53.68669 
L 460.950978 -53.745913 
L 460.970599 -53.805136 
L 460.976648 -53.86436 
L 460.970084 -53.923583 
L 460.951904 -53.982806 
L 460.923135 -54.042029 
L 460.884825 -54.101252 
L 460.838045 -54.160475 
L 460.783874 -54.219698 
L 460.723402 -54.278921 
L 460.657717 -54.338145 
L 460.587905 -54.397368 
L 460.515043 -54.456591 
L 460.440193 -54.515814 
L 460.364396 -54.575037 
L 460.28867 -54.63426 
L 460.214004 -54.693483 
L 460.141353 -54.752706 
L 460.071634 -54.81193 
L 460.005722 -54.871153 
L 459.944448 -54.930376 
L 459.888593 -54.989599 
L 459.838885 -55.048822 
L 459.796001 -55.108045 
L 459.760557 -55.167268 
L 459.733114 -55.226491 
L 459.714168 -55.285715 
L 459.704157 -55.344938 
L 459.703454 -55.404161 
L 459.712368 -55.463384 
L 459.731147 -55.522607 
L 459.759973 -55.58183 
L 459.798967 -55.641053 
L 459.848186 -55.700276 
L 477.141938 -55.700276 
L 477.141938 -55.700276 
L 477.191157 -55.641053 
L 477.230151 -55.58183 
L 477.258977 -55.522607 
L 477.277755 -55.463384 
L 477.28667 -55.404161 
L 477.285967 -55.344938 
L 477.275956 -55.285715 
L 477.25701 -55.226491 
L 477.229566 -55.167268 
L 477.194123 -55.108045 
L 477.151239 -55.048822 
L 477.101531 -54.989599 
L 477.045676 -54.930376 
L 476.984401 -54.871153 
L 476.91849 -54.81193 
L 476.848771 -54.752706 
L 476.776119 -54.693483 
L 476.701454 -54.63426 
L 476.625728 -54.575037 
L 476.549931 -54.515814 
L 476.47508 -54.456591 
L 476.402218 -54.397368 
L 476.332407 -54.338145 
L 476.266722 -54.278921 
L 476.206249 -54.219698 
L 476.152079 -54.160475 
L 476.105298 -54.101252 
L 476.066989 -54.042029 
L 476.038219 -53.982806 
L 476.02004 -53.923583 
L 476.013476 -53.86436 
L 476.019524 -53.805136 
L 476.039146 -53.745913 
L 476.07326 -53.68669 
L 476.122739 -53.627467 
L 476.188405 -53.568244 
L 476.27102 -53.509021 
L 476.371284 -53.449798 
L 476.48983 -53.390574 
L 476.627216 -53.331351 
L 476.783924 -53.272128 
L 476.960353 -53.212905 
L 477.156816 -53.153682 
L 477.373535 -53.094459 
L 477.61064 -53.035236 
L 477.868161 -52.976013 
L 478.146031 -52.916789 
L 478.444078 -52.857566 
L 478.762027 -52.798343 
L 479.099498 -52.73912 
L 479.456003 -52.679897 
L 479.830946 -52.620674 
L 480.223624 -52.561451 
L 480.63323 -52.502228 
L 481.058848 -52.443004 
L 481.499459 -52.383781 
L 481.953946 -52.324558 
L 482.42109 -52.265335 
L 482.899581 -52.206112 
L 483.388016 -52.146889 
L 483.884911 -52.087666 
L 484.388701 -52.028443 
L 484.897747 -51.969219 
L 485.410346 -51.909996 
L 485.924735 -51.850773 
L 486.439103 -51.79155 
L 486.951594 -51.732327 
L 487.460321 -51.673104 
L 487.963372 -51.613881 
L 488.458823 -51.554658 
L 488.944743 -51.495434 
L 489.41921 -51.436211 
L 489.880317 -51.376988 
L 490.326185 -51.317765 
L 490.75497 -51.258542 
L 491.164879 -51.199319 
L 491.554176 -51.140096 
L 491.921194 -51.080873 
L 492.264341 -51.021649 
L 492.582114 -50.962426 
L 492.873108 -50.903203 
L 493.13602 -50.84398 
L 493.36966 -50.784757 
L 493.572956 -50.725534 
L 493.744963 -50.666311 
L 493.884867 -50.607087 
L 493.991989 -50.547864 
L 494.06579 -50.488641 
L 494.105874 -50.429418 
L 494.111989 -50.370195 
L 494.084028 -50.310972 
L 494.022031 -50.251749 
L 493.926182 -50.192526 
L 493.796808 -50.133302 
L 493.634376 -50.074079 
L 493.439488 -50.014856 
L 493.21288 -49.955633 
L 492.955415 -49.89641 
L 492.668073 -49.837187 
z
" style="stroke: #999999; stroke-width: 2"/>
    </defs>
    <g clip-path="url(#pcc5b16d45f)">
     <use xlink:href="#m2d7b9919e3" x="0" y="255.11811" style="fill: #ffffff; stroke: #999999; stroke-width: 2"/>
    </g>
   </g>
   <g id="PathCollection_1"/>
   <g id="PathCollection_2"/>
   <g id="patch_3">
    <path d="M 52.22 213.89811 
L 52.22 24.32 
" style="fill: none; stroke: #262626; stroke-width: 1.25; stroke-linejoin: miter; stroke-linecap: square"/>
   </g>
   <g id="patch_4">
    <path d="M 52.22 213.89811 
L 500.51622 213.89811 
" style="fill: none; stroke: #262626; stroke-width: 1.25; stroke-linejoin: miter; stroke-linecap: square"/>
   </g>
   <g id="PathCollection_3">
    <defs>
     <path id="C0_0_e46f808b98" d="M 0 2.5 
C 0.663008 2.5 1.29895 2.236584 1.767767 1.767767 
C 2.236584 1.29895 2.5 0.663008 2.5 -0 
C 2.5 -0.663008 2.236584 -1.29895 1.767767 -1.767767 
C 1.29895 -2.236584 0.663008 -2.5 0 -2.5 
C -0.663008 -2.5 -1.29895 -2.236584 -1.767767 -1.767767 
C -2.236584 -1.29895 -2.5 -0.663008 -2.5 0 
C -2.5 0.663008 -2.236584 1.29895 -1.767767 1.767767 
C -1.29895 2.236584 -0.663008 2.5 0 2.5 
z
"/>
    </defs>
    <g clip-path="url(#pcc5b16d45f)">
     <use xlink:href="#C0_0_e46f808b98" x="78.414869" y="203.777041" style="fill: #4c72b0; fill-opacity: 0.75"/>
    </g>
    <g clip-path="url(#pcc5b16d45f)">
     <use xlink:href="#C0_0_e46f808b98" x="89.911971" y="201.319587" style="fill: #4c72b0; fill-opacity: 0.75"/>
    </g>
    <g clip-path="url(#pcc5b16d45f)">
     <use xlink:href="#C0_0_e46f808b98" x="82.912041" y="198.82357" style="fill: #4c72b0; fill-opacity: 0.75"/>
    </g>
    <g clip-path="url(#pcc5b16d45f)">
     <use xlink:href="#C0_0_e46f808b98" x="81.619201" y="201.925211" style="fill: #4c72b0; fill-opacity: 0.75"/>
    </g>
    <g clip-path="url(#pcc5b16d45f)">
     <use xlink:href="#C0_0_e46f808b98" x="83.941581" y="193.272379" style="fill: #dd8452; fill-opacity: 0.75"/>
    </g>
    <g clip-path="url(#pcc5b16d45f)">
     <use xlink:href="#C0_0_e46f808b98" x="78.984238" y="197.274499" style="fill: #dd8452; fill-opacity: 0.75"/>
    </g>
    <g clip-path="url(#pcc5b16d45f)">
     <use xlink:href="#C0_0_e46f808b98" x="83.025699" y="196.314913" style="fill: #dd8452; fill-opacity: 0.75"/>
    </g>
    <g clip-path="url(#pcc5b16d45f)">
     <use xlink:href="#C0_0_e46f808b98" x="83.549632" y="199.112529" style="fill: #dd8452; fill-opacity: 0.75"/>
    </g>
   </g>
   <g id="PathCollection_4">
    <defs>
     <path id="C1_0_2be42db5df" d="M 0 2.5 
C 0.663008 2.5 1.29895 2.236584 1.767767 1.767767 
C 2.236584 1.29895 2.5 0.663008 2.5 -0 
C 2.5 -0.663008 2.236584 -1.29895 1.767767 -1.767767 
C 1.29895 -2.236584 0.663008 -2.5 0 -2.5 
C -0.663008 -2.5 -1.29895 -2.236584 -1.767767 -1.767767 
C -2.236584 -1.29895 -2.5 -0.663008 -2.5 0 
C -2.5 0.663008 -2.236584 1.29895 -1.767767 1.767767 
C -1.29895 2.236584 -0.663008 2.5 0 2.5 
z
"/>
    </defs>
    <g clip-path="url(#pcc5b16d45f)">
     <use xlink:href="#C1_0_2be42db5df" x="145.341442" y="198.387233" style="fill: #4c72b0; fill-opacity: 0.75"/>
    </g>
    <g clip-path="url(#pcc5b16d45f)">
     <use xlink:href="#C1_0_2be42db5df" x="152.356424" y="194.334787" style="fill: #4c72b0; fill-opacity: 0.75"/>
    </g>
    <g clip-path="url(#pcc5b16d45f)">
     <use xlink:href="#C1_0_2be42db5df" x="145.981169" y="199.835767" style="fill: #4c72b0; fill-opacity: 0.75"/>
    </g>
    <g clip-path="url(#pcc5b16d45f)">
     <use xlink:href="#C1_0_2be42db5df" x="151.96894" y="201.175133" style="fill: #4c72b0; fill-opacity: 0.75"/>
    </g>
    <g clip-path="url(#pcc5b16d45f)">
     <use xlink:href="#C1_0_2be42db5df" x="148.857839" y="199.030823" style="fill: #dd8452; fill-opacity: 0.75"/>
    </g>
    <g clip-path="url(#pcc5b16d45f)">
     <use xlink:href="#C1_0_2be42db5df" x="151.262449" y="197.07285" style="fill: #dd8452; fill-opacity: 0.75"/>
    </g>
    <g clip-path="url(#pcc5b16d45f)">
     <use xlink:href="#C1_0_2be42db5df" x="148.680965" y="201.140455" style="fill: #dd8452; fill-opacity: 0.75"/>
    </g>
    <g clip-path="url(#pcc5b16d45f)">
     <use xlink:href="#C1_0_2be42db5df" x="150.774678" y="200.398192" style="fill: #dd8452; fill-opacity: 0.75"/>
    </g>
   </g>
   <g id="PathCollection_5">
    <defs>
     <path id="C2_0_5027d07d4e" d="M 0 2.5 
C 0.663008 2.5 1.29895 2.236584 1.767767 1.767767 
C 2.236584 1.29895 2.5 0.663008 2.5 -0 
C 2.5 -0.663008 2.236584 -1.29895 1.767767 -1.767767 
C 1.29895 -2.236584 0.663008 -2.5 0 -2.5 
C -0.663008 -2.5 -1.29895 -2.236584 -1.767767 -1.767767 
C -2.236584 -1.29895 -2.5 -0.663008 -2.5 0 
C -2.5 0.663008 -2.236584 1.29895 -1.767767 1.767767 
C -1.29895 2.236584 -0.663008 2.5 0 2.5 
z
"/>
    </defs>
    <g clip-path="url(#pcc5b16d45f)">
     <use xlink:href="#C2_0_5027d07d4e" x="213.765658" y="194.440446" style="fill: #4c72b0; fill-opacity: 0.75"/>
    </g>
    <g clip-path="url(#pcc5b16d45f)">
     <use xlink:href="#C2_0_5027d07d4e" x="216.915262" y="189.878123" style="fill: #4c72b0; fill-opacity: 0.75"/>
    </g>
    <g clip-path="url(#pcc5b16d45f)">
     <use xlink:href="#C2_0_5027d07d4e" x="212.712427" y="187.813904" style="fill: #4c72b0; fill-opacity: 0.75"/>
    </g>
    <g clip-path="url(#pcc5b16d45f)">
     <use xlink:href="#C2_0_5027d07d4e" x="209.417285" y="185.417992" style="fill: #4c72b0; fill-opacity: 0.75"/>
    </g>
    <g clip-path="url(#pcc5b16d45f)">
     <use xlink:href="#C2_0_5027d07d4e" x="218.09482" y="191.28796" style="fill: #dd8452; fill-opacity: 0.75"/>
    </g>
    <g clip-path="url(#pcc5b16d45f)">
     <use xlink:href="#C2_0_5027d07d4e" x="210.603566" y="190.135833" style="fill: #dd8452; fill-opacity: 0.75"/>
    </g>
    <g clip-path="url(#pcc5b16d45f)">
     <use xlink:href="#C2_0_5027d07d4e" x="216.812154" y="186.739313" style="fill: #dd8452; fill-opacity: 0.75"/>
    </g>
    <g clip-path="url(#pcc5b16d45f)">
     <use xlink:href="#C2_0_5027d07d4e" x="208.935738" y="191.164548" style="fill: #dd8452; fill-opacity: 0.75"/>
    </g>
   </g>
   <g id="PathCollection_6">
    <defs>
     <path id="C3_0_13798c1fd1" d="M 0 2.5 
C 0.663008 2.5 1.29895 2.236584 1.767767 1.767767 
C 2.236584 1.29895 2.5 0.663008 2.5 -0 
C 2.5 -0.663008 2.236584 -1.29895 1.767767 -1.767767 
C 1.29895 -2.236584 0.663008 -2.5 0 -2.5 
C -0.663008 -2.5 -1.29895 -2.236584 -1.767767 -1.767767 
C -2.236584 -1.29895 -2.5 -0.663008 -2.5 0 
C -2.5 0.663008 -2.236584 1.29895 -1.767767 1.767767 
C -1.29895 2.236584 -0.663008 2.5 0 2.5 
z
"/>
    </defs>
    <g clip-path="url(#pcc5b16d45f)">
     <use xlink:href="#C3_0_13798c1fd1" x="282.435514" y="73.94694" style="fill: #4c72b0; fill-opacity: 0.75"/>
    </g>
    <g clip-path="url(#pcc5b16d45f)">
     <use xlink:href="#C3_0_13798c1fd1" x="273.176408" y="54.19442" style="fill: #4c72b0; fill-opacity: 0.75"/>
    </g>
    <g clip-path="url(#pcc5b16d45f)">
     <use xlink:href="#C3_0_13798c1fd1" x="275.816381" y="74.564007" style="fill: #4c72b0; fill-opacity: 0.75"/>
    </g>
    <g clip-path="url(#pcc5b16d45f)">
     <use xlink:href="#C3_0_13798c1fd1" x="271.981181" y="55.815345" style="fill: #4c72b0; fill-opacity: 0.75"/>
    </g>
    <g clip-path="url(#pcc5b16d45f)">
     <use xlink:href="#C3_0_13798c1fd1" x="282.537349" y="67.016674" style="fill: #4c72b0; fill-opacity: 0.75"/>
    </g>
    <g clip-path="url(#pcc5b16d45f)">
     <use xlink:href="#C3_0_13798c1fd1" x="282.263098" y="97.549981" style="fill: #dd8452; fill-opacity: 0.75"/>
    </g>
    <g clip-path="url(#pcc5b16d45f)">
     <use xlink:href="#C3_0_13798c1fd1" x="281.423197" y="118.203301" style="fill: #dd8452; fill-opacity: 0.75"/>
    </g>
    <g clip-path="url(#pcc5b16d45f)">
     <use xlink:href="#C3_0_13798c1fd1" x="281.229373" y="93.275241" style="fill: #dd8452; fill-opacity: 0.75"/>
    </g>
    <g clip-path="url(#pcc5b16d45f)">
     <use xlink:href="#C3_0_13798c1fd1" x="276.900523" y="32.937187" style="fill: #dd8452; fill-opacity: 0.75"/>
    </g>
    <g clip-path="url(#pcc5b16d45f)">
     <use xlink:href="#C3_0_13798c1fd1" x="277.487863" y="64.711077" style="fill: #dd8452; fill-opacity: 0.75"/>
    </g>
   </g>
   <g id="PathCollection_7">
    <defs>
     <path id="C4_0_c3c26ad1af" d="M 0 2.5 
C 0.663008 2.5 1.29895 2.236584 1.767767 1.767767 
C 2.236584 1.29895 2.5 0.663008 2.5 -0 
C 2.5 -0.663008 2.236584 -1.29895 1.767767 -1.767767 
C 1.29895 -2.236584 0.663008 -2.5 0 -2.5 
C -0.663008 -2.5 -1.29895 -2.236584 -1.767767 -1.767767 
C -2.236584 -1.29895 -2.5 -0.663008 -2.5 0 
C -2.5 0.663008 -2.236584 1.29895 -1.767767 1.767767 
C -1.29895 2.236584 -0.663008 2.5 0 2.5 
z
"/>
    </defs>
    <g clip-path="url(#pcc5b16d45f)">
     <use xlink:href="#C4_0_c3c26ad1af" x="340.299563" y="187.680589" style="fill: #4c72b0; fill-opacity: 0.75"/>
    </g>
    <g clip-path="url(#pcc5b16d45f)">
     <use xlink:href="#C4_0_c3c26ad1af" x="342.219937" y="192.757887" style="fill: #4c72b0; fill-opacity: 0.75"/>
    </g>
    <g clip-path="url(#pcc5b16d45f)">
     <use xlink:href="#C4_0_c3c26ad1af" x="336.141932" y="192.878166" style="fill: #4c72b0; fill-opacity: 0.75"/>
    </g>
    <g clip-path="url(#pcc5b16d45f)">
     <use xlink:href="#C4_0_c3c26ad1af" x="344.502105" y="182.920426" style="fill: #dd8452; fill-opacity: 0.75"/>
    </g>
    <g clip-path="url(#pcc5b16d45f)">
     <use xlink:href="#C4_0_c3c26ad1af" x="340.943252" y="183.170281" style="fill: #dd8452; fill-opacity: 0.75"/>
    </g>
    <g clip-path="url(#pcc5b16d45f)">
     <use xlink:href="#C4_0_c3c26ad1af" x="337.031397" y="182.098602" style="fill: #dd8452; fill-opacity: 0.75"/>
    </g>
   </g>
   <g id="PathCollection_8">
    <defs>
     <path id="C5_0_7f5b2f0c0e" d="M 0 2.5 
C 0.663008 2.5 1.29895 2.236584 1.767767 1.767767 
C 2.236584 1.29895 2.5 0.663008 2.5 -0 
C 2.5 -0.663008 2.236584 -1.29895 1.767767 -1.767767 
C 1.29895 -2.236584 0.663008 -2.5 0 -2.5 
C -0.663008 -2.5 -1.29895 -2.236584 -1.767767 -1.767767 
C -2.236584 -1.29895 -2.5 -0.663008 -2.5 0 
C -2.5 0.663008 -2.236584 1.29895 -1.767767 1.767767 
C -1.29895 2.236584 -0.663008 2.5 0 2.5 
z
"/>
    </defs>
    <g clip-path="url(#pcc5b16d45f)">
     <use xlink:href="#C5_0_7f5b2f0c0e" x="409.948069" y="191.405304" style="fill: #4c72b0; fill-opacity: 0.75"/>
    </g>
    <g clip-path="url(#pcc5b16d45f)">
     <use xlink:href="#C5_0_7f5b2f0c0e" x="404.452746" y="191.699859" style="fill: #4c72b0; fill-opacity: 0.75"/>
    </g>
    <g clip-path="url(#pcc5b16d45f)">
     <use xlink:href="#C5_0_7f5b2f0c0e" x="405.345922" y="194.091658" style="fill: #4c72b0; fill-opacity: 0.75"/>
    </g>
    <g clip-path="url(#pcc5b16d45f)">
     <use xlink:href="#C5_0_7f5b2f0c0e" x="406.223055" y="191.276675" style="fill: #4c72b0; fill-opacity: 0.75"/>
    </g>
    <g clip-path="url(#pcc5b16d45f)">
     <use xlink:href="#C5_0_7f5b2f0c0e" x="399.037701" y="197.127027" style="fill: #dd8452; fill-opacity: 0.75"/>
    </g>
    <g clip-path="url(#pcc5b16d45f)">
     <use xlink:href="#C5_0_7f5b2f0c0e" x="410.073759" y="199.565439" style="fill: #dd8452; fill-opacity: 0.75"/>
    </g>
    <g clip-path="url(#pcc5b16d45f)">
     <use xlink:href="#C5_0_7f5b2f0c0e" x="403.66627" y="196.926699" style="fill: #dd8452; fill-opacity: 0.75"/>
    </g>
    <g clip-path="url(#pcc5b16d45f)">
     <use xlink:href="#C5_0_7f5b2f0c0e" x="407.409661" y="199.130631" style="fill: #dd8452; fill-opacity: 0.75"/>
    </g>
   </g>
   <g id="PathCollection_9">
    <defs>
     <path id="C6_0_2498767e5d" d="M 0 2.5 
C 0.663008 2.5 1.29895 2.236584 1.767767 1.767767 
C 2.236584 1.29895 2.5 0.663008 2.5 -0 
C 2.5 -0.663008 2.236584 -1.29895 1.767767 -1.767767 
C 1.29895 -2.236584 0.663008 -2.5 0 -2.5 
C -0.663008 -2.5 -1.29895 -2.236584 -1.767767 -1.767767 
C -2.236584 -1.29895 -2.5 -0.663008 -2.5 0 
C -2.5 0.663008 -2.236584 1.29895 -1.767767 1.767767 
C -1.29895 2.236584 -0.663008 2.5 0 2.5 
z
"/>
    </defs>
    <g clip-path="url(#pcc5b16d45f)">
     <use xlink:href="#C6_0_2498767e5d" x="474.002553" y="204.803813" style="fill: #4c72b0; fill-opacity: 0.75"/>
    </g>
    <g clip-path="url(#pcc5b16d45f)">
     <use xlink:href="#C6_0_2498767e5d" x="473.207521" y="205.280923" style="fill: #4c72b0; fill-opacity: 0.75"/>
    </g>
    <g clip-path="url(#pcc5b16d45f)">
     <use xlink:href="#C6_0_2498767e5d" x="463.386926" y="204.945953" style="fill: #4c72b0; fill-opacity: 0.75"/>
    </g>
    <g clip-path="url(#pcc5b16d45f)">
     <use xlink:href="#C6_0_2498767e5d" x="474.432906" y="199.417834" style="fill: #4c72b0; fill-opacity: 0.75"/>
    </g>
    <g clip-path="url(#pcc5b16d45f)">
     <use xlink:href="#C6_0_2498767e5d" x="468.754535" y="204.343253" style="fill: #dd8452; fill-opacity: 0.75"/>
    </g>
    <g clip-path="url(#pcc5b16d45f)">
     <use xlink:href="#C6_0_2498767e5d" x="463.233406" y="204.464641" style="fill: #dd8452; fill-opacity: 0.75"/>
    </g>
    <g clip-path="url(#pcc5b16d45f)">
     <use xlink:href="#C6_0_2498767e5d" x="471.025717" y="204.612083" style="fill: #dd8452; fill-opacity: 0.75"/>
    </g>
    <g clip-path="url(#pcc5b16d45f)">
     <use xlink:href="#C6_0_2498767e5d" x="463.095318" y="199.833225" style="fill: #dd8452; fill-opacity: 0.75"/>
    </g>
   </g>
   <g id="text_17">
    <!-- TANC1, $p_{adj}$ &lt; .001 *** -->
    <g style="fill: #262626" transform="translate(52.22 18.32)scale(0.09 -0.09)">
     <defs>
      <path id="ArialMT-41" d="M -9 0 
L 1750 4581 
L 2403 4581 
L 4278 0 
L 3588 0 
L 3053 1388 
L 1138 1388 
L 634 0 
L -9 0 
z
M 1313 1881 
L 2866 1881 
L 2388 3150 
Q 2169 3728 2063 4100 
Q 1975 3659 1816 3225 
L 1313 1881 
z
" transform="scale(0.015625)"/>
      <path id="ArialMT-4e" d="M 488 0 
L 488 4581 
L 1109 4581 
L 3516 984 
L 3516 4581 
L 4097 4581 
L 4097 0 
L 3475 0 
L 1069 3600 
L 1069 0 
L 488 0 
z
" transform="scale(0.015625)"/>
      <path id="ArialMT-43" d="M 3763 1606 
L 4369 1453 
Q 4178 706 3683 314 
Q 3188 -78 2472 -78 
Q 1731 -78 1267 223 
Q 803 525 561 1097 
Q 319 1669 319 2325 
Q 319 3041 592 3573 
Q 866 4106 1370 4382 
Q 1875 4659 2481 4659 
Q 3169 4659 3637 4309 
Q 4106 3959 4291 3325 
L 3694 3184 
Q 3534 3684 3231 3912 
Q 2928 4141 2469 4141 
Q 1941 4141 1586 3887 
Q 1231 3634 1087 3207 
Q 944 2781 944 2328 
Q 944 1744 1114 1308 
Q 1284 872 1643 656 
Q 2003 441 2422 441 
Q 2931 441 3284 734 
Q 3638 1028 3763 1606 
z
" transform="scale(0.015625)"/>
      <path id="ArialMT-2c" d="M 569 0 
L 569 641 
L 1209 641 
L 1209 0 
Q 1209 -353 1084 -570 
Q 959 -788 688 -906 
L 531 -666 
Q 709 -588 793 -436 
Q 878 -284 888 0 
L 569 0 
z
" transform="scale(0.015625)"/>
      <path id="DejaVuSans-Oblique-70" d="M 3175 2156 
Q 3175 2616 2975 2859 
Q 2775 3103 2400 3103 
Q 2144 3103 1911 2972 
Q 1678 2841 1497 2591 
Q 1319 2344 1212 1994 
Q 1106 1644 1106 1300 
Q 1106 863 1306 627 
Q 1506 391 1875 391 
Q 2147 391 2380 519 
Q 2613 647 2778 891 
Q 2956 1147 3065 1494 
Q 3175 1841 3175 2156 
z
M 1394 2969 
Q 1625 3272 1939 3428 
Q 2253 3584 2638 3584 
Q 3175 3584 3472 3232 
Q 3769 2881 3769 2247 
Q 3769 1728 3584 1258 
Q 3400 788 3053 416 
Q 2822 169 2531 39 
Q 2241 -91 1919 -91 
Q 1547 -91 1294 64 
Q 1041 219 916 525 
L 556 -1331 
L -19 -1331 
L 922 3500 
L 1497 3500 
L 1394 2969 
z
" transform="scale(0.015625)"/>
      <path id="DejaVuSans-Oblique-61" d="M 3438 1997 
L 3047 0 
L 2472 0 
L 2578 531 
Q 2325 219 2001 64 
Q 1678 -91 1281 -91 
Q 834 -91 548 182 
Q 263 456 263 884 
Q 263 1497 752 1853 
Q 1241 2209 2100 2209 
L 2900 2209 
L 2931 2363 
Q 2938 2388 2941 2417 
Q 2944 2447 2944 2509 
Q 2944 2788 2717 2942 
Q 2491 3097 2081 3097 
Q 1800 3097 1504 3025 
Q 1209 2953 897 2809 
L 997 3341 
Q 1322 3463 1633 3523 
Q 1944 3584 2234 3584 
Q 2853 3584 3176 3315 
Q 3500 3047 3500 2534 
Q 3500 2431 3484 2292 
Q 3469 2153 3438 1997 
z
M 2816 1759 
L 2241 1759 
Q 1534 1759 1195 1570 
Q 856 1381 856 984 
Q 856 709 1029 553 
Q 1203 397 1509 397 
Q 1978 397 2328 733 
Q 2678 1069 2791 1631 
L 2816 1759 
z
" transform="scale(0.015625)"/>
      <path id="DejaVuSans-Oblique-64" d="M 2675 525 
Q 2444 222 2128 65 
Q 1813 -91 1428 -91 
Q 903 -91 598 267 
Q 294 625 294 1247 
Q 294 1766 478 2236 
Q 663 2706 1013 3078 
Q 1244 3325 1534 3454 
Q 1825 3584 2144 3584 
Q 2481 3584 2739 3421 
Q 2997 3259 3138 2956 
L 3513 4863 
L 4091 4863 
L 3144 0 
L 2566 0 
L 2675 525 
z
M 891 1350 
Q 891 897 1095 644 
Q 1300 391 1663 391 
Q 1931 391 2161 520 
Q 2391 650 2566 903 
Q 2750 1166 2856 1509 
Q 2963 1853 2963 2188 
Q 2963 2622 2758 2865 
Q 2553 3109 2194 3109 
Q 1922 3109 1687 2981 
Q 1453 2853 1288 2613 
Q 1106 2353 998 2009 
Q 891 1666 891 1350 
z
" transform="scale(0.015625)"/>
      <path id="DejaVuSans-Oblique-6a" d="M 928 3500 
L 1503 3500 
L 813 -63 
L 809 -78 
Q 694 -675 544 -897 
Q 403 -1106 132 -1218 
Q -138 -1331 -506 -1331 
L -722 -1331 
L -628 -844 
L -481 -844 
Q -144 -844 -1 -703 
Q 141 -563 238 -63 
L 928 3500 
z
M 1197 4863 
L 1772 4863 
L 1631 4134 
L 1056 4134 
L 1197 4863 
z
" transform="scale(0.015625)"/>
      <path id="ArialMT-3c" d="M 350 2003 
L 350 2528 
L 3384 3809 
L 3384 3250 
L 978 2263 
L 3384 1266 
L 3384 706 
L 350 2003 
z
" transform="scale(0.015625)"/>
      <path id="ArialMT-2e" d="M 581 0 
L 581 641 
L 1222 641 
L 1222 0 
L 581 0 
z
" transform="scale(0.015625)"/>
      <path id="ArialMT-2a" d="M 200 3741 
L 344 4184 
Q 841 4009 1066 3881 
Q 1006 4447 1003 4659 
L 1456 4659 
Q 1447 4350 1384 3884 
Q 1706 4047 2122 4184 
L 2266 3741 
Q 1869 3609 1488 3566 
Q 1678 3400 2025 2975 
L 1650 2709 
Q 1469 2956 1222 3381 
Q 991 2941 816 2709 
L 447 2975 
Q 809 3422 966 3566 
Q 563 3644 200 3741 
z
" transform="scale(0.015625)"/>
     </defs>
     <use xlink:href="#ArialMT-54" transform="translate(0 0.203125)"/>
     <use xlink:href="#ArialMT-41" transform="translate(61.083984 0.203125)"/>
     <use xlink:href="#ArialMT-4e" transform="translate(127.783203 0.203125)"/>
     <use xlink:href="#ArialMT-43" transform="translate(200 0.203125)"/>
     <use xlink:href="#ArialMT-31" transform="translate(272.216797 0.203125)"/>
     <use xlink:href="#ArialMT-2c" transform="translate(327.832031 0.203125)"/>
     <use xlink:href="#ArialMT-20" transform="translate(355.615234 0.203125)"/>
     <use xlink:href="#DejaVuSans-Oblique-70" transform="translate(383.398438 0.203125)"/>
     <use xlink:href="#DejaVuSans-Oblique-61" transform="translate(446.875 -16.203125)scale(0.7)"/>
     <use xlink:href="#DejaVuSans-Oblique-64" transform="translate(489.770508 -16.203125)scale(0.7)"/>
     <use xlink:href="#DejaVuSans-Oblique-6a" transform="translate(534.204102 -16.203125)scale(0.7)"/>
     <use xlink:href="#ArialMT-20" transform="translate(556.386719 0.203125)"/>
     <use xlink:href="#ArialMT-3c" transform="translate(584.169922 0.203125)"/>
     <use xlink:href="#ArialMT-20" transform="translate(642.568359 0.203125)"/>
     <use xlink:href="#ArialMT-2e" transform="translate(670.351562 0.203125)"/>
     <use xlink:href="#ArialMT-30" transform="translate(698.134766 0.203125)"/>
     <use xlink:href="#ArialMT-30" transform="translate(753.75 0.203125)"/>
     <use xlink:href="#ArialMT-31" transform="translate(809.365234 0.203125)"/>
     <use xlink:href="#ArialMT-20" transform="translate(864.980469 0.203125)"/>
     <use xlink:href="#ArialMT-2a" transform="translate(892.763672 0.203125)"/>
     <use xlink:href="#ArialMT-2a" transform="translate(931.679688 0.203125)"/>
     <use xlink:href="#ArialMT-2a" transform="translate(970.595703 0.203125)"/>
    </g>
   </g>
   <g id="legend_1">
    <g id="patch_5">
     <path d="M 441.91497 69.712344 
L 494.21622 69.712344 
Q 496.01622 69.712344 496.01622 67.912344 
L 496.01622 30.62 
Q 496.01622 28.82 494.21622 28.82 
L 441.91497 28.82 
Q 440.11497 28.82 440.11497 30.62 
L 440.11497 67.912344 
Q 440.11497 69.712344 441.91497 69.712344 
z
" style="fill: #ffffff; opacity: 0.8; stroke: #cccccc; stroke-linejoin: miter"/>
    </g>
    <g id="text_18">
     <!-- Treatment -->
     <g style="fill: #262626" transform="translate(447.729111 38.862031)scale(0.09 -0.09)">
      <use xlink:href="#ArialMT-54"/>
      <use xlink:href="#ArialMT-72" x="57.333984"/>
      <use xlink:href="#ArialMT-65" x="90.634766"/>
      <use xlink:href="#ArialMT-61" x="146.25"/>
      <use xlink:href="#ArialMT-74" x="201.865234"/>
      <use xlink:href="#ArialMT-6d" x="229.648438"/>
      <use xlink:href="#ArialMT-65" x="312.949219"/>
      <use xlink:href="#ArialMT-6e" x="368.564453"/>
      <use xlink:href="#ArialMT-74" x="424.179688"/>
     </g>
    </g>
    <g id="PathCollection_10">
     <defs>
      <path id="m03e304477c" d="M 0 3.872983 
C 1.027127 3.872983 2.012324 3.464901 2.738613 2.738613 
C 3.464901 2.012324 3.872983 1.027127 3.872983 0 
C 3.872983 -1.027127 3.464901 -2.012324 2.738613 -2.738613 
C 2.012324 -3.464901 1.027127 -3.872983 0 -3.872983 
C -1.027127 -3.872983 -2.012324 -3.464901 -2.738613 -2.738613 
C -3.464901 -2.012324 -3.872983 -1.027127 -3.872983 0 
C -3.872983 1.027127 -3.464901 2.012324 -2.738613 2.738613 
C -2.012324 3.464901 -1.027127 3.872983 0 3.872983 
z
" style="stroke: #4c72b0"/>
     </defs>
     <g>
      <use xlink:href="#m03e304477c" x="452.71497" y="49.230313" style="fill: #4c72b0; stroke: #4c72b0"/>
     </g>
    </g>
    <g id="text_19">
     <!-- BEVA -->
     <g style="fill: #262626" transform="translate(468.91497 51.592813)scale(0.09 -0.09)">
      <defs>
       <path id="ArialMT-42" d="M 469 0 
L 469 4581 
L 2188 4581 
Q 2713 4581 3030 4442 
Q 3347 4303 3526 4014 
Q 3706 3725 3706 3409 
Q 3706 3116 3547 2856 
Q 3388 2597 3066 2438 
Q 3481 2316 3704 2022 
Q 3928 1728 3928 1328 
Q 3928 1006 3792 729 
Q 3656 453 3456 303 
Q 3256 153 2954 76 
Q 2653 0 2216 0 
L 469 0 
z
M 1075 2656 
L 2066 2656 
Q 2469 2656 2644 2709 
Q 2875 2778 2992 2937 
Q 3109 3097 3109 3338 
Q 3109 3566 3000 3739 
Q 2891 3913 2687 3977 
Q 2484 4041 1991 4041 
L 1075 4041 
L 1075 2656 
z
M 1075 541 
L 2216 541 
Q 2509 541 2628 563 
Q 2838 600 2978 687 
Q 3119 775 3209 942 
Q 3300 1109 3300 1328 
Q 3300 1584 3169 1773 
Q 3038 1963 2805 2039 
Q 2572 2116 2134 2116 
L 1075 2116 
L 1075 541 
z
" transform="scale(0.015625)"/>
       <path id="ArialMT-45" d="M 506 0 
L 506 4581 
L 3819 4581 
L 3819 4041 
L 1113 4041 
L 1113 2638 
L 3647 2638 
L 3647 2100 
L 1113 2100 
L 1113 541 
L 3925 541 
L 3925 0 
L 506 0 
z
" transform="scale(0.015625)"/>
       <path id="ArialMT-56" d="M 1803 0 
L 28 4581 
L 684 4581 
L 1875 1253 
Q 2019 853 2116 503 
Q 2222 878 2363 1253 
L 3600 4581 
L 4219 4581 
L 2425 0 
L 1803 0 
z
" transform="scale(0.015625)"/>
      </defs>
      <use xlink:href="#ArialMT-42"/>
      <use xlink:href="#ArialMT-45" x="66.699219"/>
      <use xlink:href="#ArialMT-56" x="133.398438"/>
      <use xlink:href="#ArialMT-41" x="192.722656"/>
     </g>
    </g>
    <g id="PathCollection_11">
     <defs>
      <path id="m70397643ab" d="M 0 3.872983 
C 1.027127 3.872983 2.012324 3.464901 2.738613 2.738613 
C 3.464901 2.012324 3.872983 1.027127 3.872983 0 
C 3.872983 -1.027127 3.464901 -2.012324 2.738613 -2.738613 
C 2.012324 -3.464901 1.027127 -3.872983 0 -3.872983 
C -1.027127 -3.872983 -2.012324 -3.464901 -2.738613 -2.738613 
C -3.464901 -2.012324 -3.872983 -1.027127 -3.872983 0 
C -3.872983 1.027127 -3.464901 2.012324 -2.738613 2.738613 
C -2.012324 3.464901 -1.027127 3.872983 0 3.872983 
z
" style="stroke: #dd8452"/>
     </defs>
     <g>
      <use xlink:href="#m70397643ab" x="452.71497" y="61.961094" style="fill: #dd8452; stroke: #dd8452"/>
     </g>
    </g>
    <g id="text_20">
     <!-- CTRL -->
     <g style="fill: #262626" transform="translate(468.91497 64.323594)scale(0.09 -0.09)">
      <defs>
       <path id="ArialMT-52" d="M 503 0 
L 503 4581 
L 2534 4581 
Q 3147 4581 3465 4457 
Q 3784 4334 3975 4021 
Q 4166 3709 4166 3331 
Q 4166 2844 3850 2509 
Q 3534 2175 2875 2084 
Q 3116 1969 3241 1856 
Q 3506 1613 3744 1247 
L 4541 0 
L 3778 0 
L 3172 953 
Q 2906 1366 2734 1584 
Q 2563 1803 2427 1890 
Q 2291 1978 2150 2013 
Q 2047 2034 1813 2034 
L 1109 2034 
L 1109 0 
L 503 0 
z
M 1109 2559 
L 2413 2559 
Q 2828 2559 3062 2645 
Q 3297 2731 3419 2920 
Q 3541 3109 3541 3331 
Q 3541 3656 3305 3865 
Q 3069 4075 2559 4075 
L 1109 4075 
L 1109 2559 
z
" transform="scale(0.015625)"/>
       <path id="ArialMT-4c" d="M 469 0 
L 469 4581 
L 1075 4581 
L 1075 541 
L 3331 541 
L 3331 0 
L 469 0 
z
" transform="scale(0.015625)"/>
      </defs>
      <use xlink:href="#ArialMT-43"/>
      <use xlink:href="#ArialMT-54" x="72.216797"/>
      <use xlink:href="#ArialMT-52" x="133.300781"/>
      <use xlink:href="#ArialMT-4c" x="205.517578"/>
     </g>
    </g>
   </g>
  </g>
 </g>
 <defs>
  <clipPath id="pcc5b16d45f">
   <rect x="52.22" y="24.32" width="448.29622" height="189.57811"/>
  </clipPath>
 </defs>
</svg>
