<?xml version="1.0" encoding="utf-8" standalone="no"?>
<!DOCTYPE svg PUBLIC "-//W3C//DTD SVG 1.1//EN"
  "http://www.w3.org/Graphics/SVG/1.1/DTD/svg11.dtd">
<svg xmlns:xlink="http://www.w3.org/1999/xlink" width="510.23622pt" height="255.11811pt" viewBox="0 0 510.23622 255.11811" xmlns="http://www.w3.org/2000/svg" version="1.1">
 <metadata>
  <rdf:RDF xmlns:dc="http://purl.org/dc/elements/1.1/" xmlns:cc="http://creativecommons.org/ns#" xmlns:rdf="http://www.w3.org/1999/02/22-rdf-syntax-ns#">
   <cc:Work>
    <dc:type rdf:resource="http://purl.org/dc/dcmitype/StillImage"/>
    <dc:date>2022-04-27T00:20:44.193241</dc:date>
    <dc:format>image/svg+xml</dc:format>
    <dc:creator>
     <cc:Agent>
      <dc:title>Matplotlib v3.5.1, https://matplotlib.org/</dc:title>
     </cc:Agent>
    </dc:creator>
   </cc:Work>
  </rdf:RDF>
 </metadata>
 <defs>
  <style type="text/css">*{stroke-linejoin: round; stroke-linecap: butt}</style>
 </defs>
 <g id="figure_1">
  <g id="patch_1">
   <path d="M 0 255.11811 
L 510.23622 255.11811 
L 510.23622 0 
L 0 0 
z
" style="fill: #ffffff"/>
  </g>
  <g id="axes_1">
   <g id="patch_2">
    <path d="M 47.22 213.89811 
L 500.51622 213.89811 
L 500.51622 24.32 
L 47.22 24.32 
z
" style="fill: #ffffff"/>
   </g>
   <g id="matplotlib.axis_1">
    <g id="xtick_1">
     <g id="text_1">
      <!-- 49 -->
      <g style="fill: #444444" transform="translate(74.593458 229.840141)scale(0.09 -0.09)">
       <defs>
        <path id="ArialMT-34" d="M 2069 0 
L 2069 1097 
L 81 1097 
L 81 1613 
L 2172 4581 
L 2631 4581 
L 2631 1613 
L 3250 1613 
L 3250 1097 
L 2631 1097 
L 2631 0 
L 2069 0 
z
M 2069 1613 
L 2069 3678 
L 634 1613 
L 2069 1613 
z
" transform="scale(0.015625)"/>
        <path id="ArialMT-39" d="M 350 1059 
L 891 1109 
Q 959 728 1153 556 
Q 1347 384 1650 384 
Q 1909 384 2104 503 
Q 2300 622 2425 820 
Q 2550 1019 2634 1356 
Q 2719 1694 2719 2044 
Q 2719 2081 2716 2156 
Q 2547 1888 2255 1720 
Q 1963 1553 1622 1553 
Q 1053 1553 659 1965 
Q 266 2378 266 3053 
Q 266 3750 677 4175 
Q 1088 4600 1706 4600 
Q 2153 4600 2523 4359 
Q 2894 4119 3086 3673 
Q 3278 3228 3278 2384 
Q 3278 1506 3087 986 
Q 2897 466 2520 194 
Q 2144 -78 1638 -78 
Q 1100 -78 759 220 
Q 419 519 350 1059 
z
M 2653 3081 
Q 2653 3566 2395 3850 
Q 2138 4134 1775 4134 
Q 1400 4134 1122 3828 
Q 844 3522 844 3034 
Q 844 2597 1108 2323 
Q 1372 2050 1759 2050 
Q 2150 2050 2401 2323 
Q 2653 2597 2653 3081 
z
" transform="scale(0.015625)"/>
       </defs>
       <use xlink:href="#ArialMT-34"/>
       <use xlink:href="#ArialMT-39" x="55.615234"/>
      </g>
     </g>
    </g>
    <g id="xtick_2">
     <g id="text_2">
      <!-- 17 -->
      <g style="fill: #444444" transform="translate(139.350061 229.840141)scale(0.09 -0.09)">
       <defs>
        <path id="ArialMT-31" d="M 2384 0 
L 1822 0 
L 1822 3584 
Q 1619 3391 1289 3197 
Q 959 3003 697 2906 
L 697 3450 
Q 1169 3672 1522 3987 
Q 1875 4303 2022 4600 
L 2384 4600 
L 2384 0 
z
" transform="scale(0.015625)"/>
        <path id="ArialMT-37" d="M 303 3981 
L 303 4522 
L 3269 4522 
L 3269 4084 
Q 2831 3619 2401 2847 
Q 1972 2075 1738 1259 
Q 1569 684 1522 0 
L 944 0 
Q 953 541 1156 1306 
Q 1359 2072 1739 2783 
Q 2119 3494 2547 3981 
L 303 3981 
z
" transform="scale(0.015625)"/>
       </defs>
       <use xlink:href="#ArialMT-31"/>
       <use xlink:href="#ArialMT-37" x="55.615234"/>
      </g>
     </g>
    </g>
    <g id="xtick_3">
     <g id="text_3">
      <!-- 69 -->
      <g style="fill: #444444" transform="translate(204.106664 229.840141)scale(0.09 -0.09)">
       <defs>
        <path id="ArialMT-36" d="M 3184 3459 
L 2625 3416 
Q 2550 3747 2413 3897 
Q 2184 4138 1850 4138 
Q 1581 4138 1378 3988 
Q 1113 3794 959 3422 
Q 806 3050 800 2363 
Q 1003 2672 1297 2822 
Q 1591 2972 1913 2972 
Q 2475 2972 2870 2558 
Q 3266 2144 3266 1488 
Q 3266 1056 3080 686 
Q 2894 316 2569 119 
Q 2244 -78 1831 -78 
Q 1128 -78 684 439 
Q 241 956 241 2144 
Q 241 3472 731 4075 
Q 1159 4600 1884 4600 
Q 2425 4600 2770 4297 
Q 3116 3994 3184 3459 
z
M 888 1484 
Q 888 1194 1011 928 
Q 1134 663 1356 523 
Q 1578 384 1822 384 
Q 2178 384 2434 671 
Q 2691 959 2691 1453 
Q 2691 1928 2437 2201 
Q 2184 2475 1800 2475 
Q 1419 2475 1153 2201 
Q 888 1928 888 1484 
z
" transform="scale(0.015625)"/>
       </defs>
       <use xlink:href="#ArialMT-36"/>
       <use xlink:href="#ArialMT-39" x="55.615234"/>
      </g>
     </g>
    </g>
    <g id="xtick_4">
     <g id="text_4">
      <!-- 15 -->
      <g style="fill: #444444" transform="translate(268.863266 229.840141)scale(0.09 -0.09)">
       <defs>
        <path id="ArialMT-35" d="M 266 1200 
L 856 1250 
Q 922 819 1161 601 
Q 1400 384 1738 384 
Q 2144 384 2425 690 
Q 2706 997 2706 1503 
Q 2706 1984 2436 2262 
Q 2166 2541 1728 2541 
Q 1456 2541 1237 2417 
Q 1019 2294 894 2097 
L 366 2166 
L 809 4519 
L 3088 4519 
L 3088 3981 
L 1259 3981 
L 1013 2750 
Q 1425 3038 1878 3038 
Q 2478 3038 2890 2622 
Q 3303 2206 3303 1553 
Q 3303 931 2941 478 
Q 2500 -78 1738 -78 
Q 1113 -78 717 272 
Q 322 622 266 1200 
z
" transform="scale(0.015625)"/>
       </defs>
       <use xlink:href="#ArialMT-31"/>
       <use xlink:href="#ArialMT-35" x="55.615234"/>
      </g>
     </g>
    </g>
    <g id="xtick_5">
     <g id="text_5">
      <!-- 5 -->
      <g style="fill: #444444" transform="translate(336.122291 229.840141)scale(0.09 -0.09)">
       <use xlink:href="#ArialMT-35"/>
      </g>
     </g>
    </g>
    <g id="xtick_6">
     <g id="text_6">
      <!-- 126 -->
      <g style="fill: #444444" transform="translate(395.87405 229.840141)scale(0.09 -0.09)">
       <defs>
        <path id="ArialMT-32" d="M 3222 541 
L 3222 0 
L 194 0 
Q 188 203 259 391 
Q 375 700 629 1000 
Q 884 1300 1366 1694 
Q 2113 2306 2375 2664 
Q 2638 3022 2638 3341 
Q 2638 3675 2398 3904 
Q 2159 4134 1775 4134 
Q 1369 4134 1125 3890 
Q 881 3647 878 3216 
L 300 3275 
Q 359 3922 746 4261 
Q 1134 4600 1788 4600 
Q 2447 4600 2831 4234 
Q 3216 3869 3216 3328 
Q 3216 3053 3103 2787 
Q 2991 2522 2730 2228 
Q 2469 1934 1863 1422 
Q 1356 997 1212 845 
Q 1069 694 975 541 
L 3222 541 
z
" transform="scale(0.015625)"/>
       </defs>
       <use xlink:href="#ArialMT-31"/>
       <use xlink:href="#ArialMT-32" x="55.615234"/>
       <use xlink:href="#ArialMT-36" x="111.230469"/>
      </g>
     </g>
    </g>
    <g id="xtick_7">
     <g id="text_7">
      <!-- 62 -->
      <g style="fill: #444444" transform="translate(463.133075 229.840141)scale(0.09 -0.09)">
       <use xlink:href="#ArialMT-36"/>
       <use xlink:href="#ArialMT-32" x="55.615234"/>
      </g>
     </g>
    </g>
    <g id="text_8">
     <!-- Patient -->
     <g style="fill: #444444" transform="translate(259.859048 242.070923)scale(0.09 -0.09)">
      <defs>
       <path id="ArialMT-50" d="M 494 0 
L 494 4581 
L 2222 4581 
Q 2678 4581 2919 4538 
Q 3256 4481 3484 4323 
Q 3713 4166 3852 3881 
Q 3991 3597 3991 3256 
Q 3991 2672 3619 2267 
Q 3247 1863 2275 1863 
L 1100 1863 
L 1100 0 
L 494 0 
z
M 1100 2403 
L 2284 2403 
Q 2872 2403 3119 2622 
Q 3366 2841 3366 3238 
Q 3366 3525 3220 3729 
Q 3075 3934 2838 4000 
Q 2684 4041 2272 4041 
L 1100 4041 
L 1100 2403 
z
" transform="scale(0.015625)"/>
       <path id="ArialMT-61" d="M 2588 409 
Q 2275 144 1986 34 
Q 1697 -75 1366 -75 
Q 819 -75 525 192 
Q 231 459 231 875 
Q 231 1119 342 1320 
Q 453 1522 633 1644 
Q 813 1766 1038 1828 
Q 1203 1872 1538 1913 
Q 2219 1994 2541 2106 
Q 2544 2222 2544 2253 
Q 2544 2597 2384 2738 
Q 2169 2928 1744 2928 
Q 1347 2928 1158 2789 
Q 969 2650 878 2297 
L 328 2372 
Q 403 2725 575 2942 
Q 747 3159 1072 3276 
Q 1397 3394 1825 3394 
Q 2250 3394 2515 3294 
Q 2781 3194 2906 3042 
Q 3031 2891 3081 2659 
Q 3109 2516 3109 2141 
L 3109 1391 
Q 3109 606 3145 398 
Q 3181 191 3288 0 
L 2700 0 
Q 2613 175 2588 409 
z
M 2541 1666 
Q 2234 1541 1622 1453 
Q 1275 1403 1131 1340 
Q 988 1278 909 1158 
Q 831 1038 831 891 
Q 831 666 1001 516 
Q 1172 366 1500 366 
Q 1825 366 2078 508 
Q 2331 650 2450 897 
Q 2541 1088 2541 1459 
L 2541 1666 
z
" transform="scale(0.015625)"/>
       <path id="ArialMT-74" d="M 1650 503 
L 1731 6 
Q 1494 -44 1306 -44 
Q 1000 -44 831 53 
Q 663 150 594 308 
Q 525 466 525 972 
L 525 2881 
L 113 2881 
L 113 3319 
L 525 3319 
L 525 4141 
L 1084 4478 
L 1084 3319 
L 1650 3319 
L 1650 2881 
L 1084 2881 
L 1084 941 
Q 1084 700 1114 631 
Q 1144 563 1211 522 
Q 1278 481 1403 481 
Q 1497 481 1650 503 
z
" transform="scale(0.015625)"/>
       <path id="ArialMT-69" d="M 425 3934 
L 425 4581 
L 988 4581 
L 988 3934 
L 425 3934 
z
M 425 0 
L 425 3319 
L 988 3319 
L 988 0 
L 425 0 
z
" transform="scale(0.015625)"/>
       <path id="ArialMT-65" d="M 2694 1069 
L 3275 997 
Q 3138 488 2766 206 
Q 2394 -75 1816 -75 
Q 1088 -75 661 373 
Q 234 822 234 1631 
Q 234 2469 665 2931 
Q 1097 3394 1784 3394 
Q 2450 3394 2872 2941 
Q 3294 2488 3294 1666 
Q 3294 1616 3291 1516 
L 816 1516 
Q 847 969 1125 678 
Q 1403 388 1819 388 
Q 2128 388 2347 550 
Q 2566 713 2694 1069 
z
M 847 1978 
L 2700 1978 
Q 2663 2397 2488 2606 
Q 2219 2931 1791 2931 
Q 1403 2931 1139 2672 
Q 875 2413 847 1978 
z
" transform="scale(0.015625)"/>
       <path id="ArialMT-6e" d="M 422 0 
L 422 3319 
L 928 3319 
L 928 2847 
Q 1294 3394 1984 3394 
Q 2284 3394 2536 3286 
Q 2788 3178 2913 3003 
Q 3038 2828 3088 2588 
Q 3119 2431 3119 2041 
L 3119 0 
L 2556 0 
L 2556 2019 
Q 2556 2363 2490 2533 
Q 2425 2703 2258 2804 
Q 2091 2906 1866 2906 
Q 1506 2906 1245 2678 
Q 984 2450 984 1813 
L 984 0 
L 422 0 
z
" transform="scale(0.015625)"/>
      </defs>
      <use xlink:href="#ArialMT-50"/>
      <use xlink:href="#ArialMT-61" x="66.699219"/>
      <use xlink:href="#ArialMT-74" x="122.314453"/>
      <use xlink:href="#ArialMT-69" x="150.097656"/>
      <use xlink:href="#ArialMT-65" x="172.314453"/>
      <use xlink:href="#ArialMT-6e" x="227.929688"/>
      <use xlink:href="#ArialMT-74" x="283.544922"/>
     </g>
    </g>
   </g>
   <g id="matplotlib.axis_2">
    <g id="ytick_1">
     <g id="text_9">
      <!-- 0 -->
      <g style="fill: #444444" transform="translate(32.715156 209.796187)scale(0.09 -0.09)">
       <defs>
        <path id="ArialMT-30" d="M 266 2259 
Q 266 3072 433 3567 
Q 600 4063 929 4331 
Q 1259 4600 1759 4600 
Q 2128 4600 2406 4451 
Q 2684 4303 2865 4023 
Q 3047 3744 3150 3342 
Q 3253 2941 3253 2259 
Q 3253 1453 3087 958 
Q 2922 463 2592 192 
Q 2263 -78 1759 -78 
Q 1097 -78 719 397 
Q 266 969 266 2259 
z
M 844 2259 
Q 844 1131 1108 757 
Q 1372 384 1759 384 
Q 2147 384 2411 759 
Q 2675 1134 2675 2259 
Q 2675 3391 2411 3762 
Q 2147 4134 1753 4134 
Q 1366 4134 1134 3806 
Q 844 3388 844 2259 
z
" transform="scale(0.015625)"/>
       </defs>
       <use xlink:href="#ArialMT-30"/>
      </g>
     </g>
    </g>
    <g id="ytick_2">
     <g id="text_10">
      <!-- 20 -->
      <g style="fill: #444444" transform="translate(27.710313 184.60604)scale(0.09 -0.09)">
       <use xlink:href="#ArialMT-32"/>
       <use xlink:href="#ArialMT-30" x="55.615234"/>
      </g>
     </g>
    </g>
    <g id="ytick_3">
     <g id="text_11">
      <!-- 40 -->
      <g style="fill: #444444" transform="translate(27.710313 159.415892)scale(0.09 -0.09)">
       <use xlink:href="#ArialMT-34"/>
       <use xlink:href="#ArialMT-30" x="55.615234"/>
      </g>
     </g>
    </g>
    <g id="ytick_4">
     <g id="text_12">
      <!-- 60 -->
      <g style="fill: #444444" transform="translate(27.710313 134.225745)scale(0.09 -0.09)">
       <use xlink:href="#ArialMT-36"/>
       <use xlink:href="#ArialMT-30" x="55.615234"/>
      </g>
     </g>
    </g>
    <g id="ytick_5">
     <g id="text_13">
      <!-- 80 -->
      <g style="fill: #444444" transform="translate(27.710313 109.035597)scale(0.09 -0.09)">
       <defs>
        <path id="ArialMT-38" d="M 1131 2484 
Q 781 2613 612 2850 
Q 444 3088 444 3419 
Q 444 3919 803 4259 
Q 1163 4600 1759 4600 
Q 2359 4600 2725 4251 
Q 3091 3903 3091 3403 
Q 3091 3084 2923 2848 
Q 2756 2613 2416 2484 
Q 2838 2347 3058 2040 
Q 3278 1734 3278 1309 
Q 3278 722 2862 322 
Q 2447 -78 1769 -78 
Q 1091 -78 675 323 
Q 259 725 259 1325 
Q 259 1772 486 2073 
Q 713 2375 1131 2484 
z
M 1019 3438 
Q 1019 3113 1228 2906 
Q 1438 2700 1772 2700 
Q 2097 2700 2305 2904 
Q 2513 3109 2513 3406 
Q 2513 3716 2298 3927 
Q 2084 4138 1766 4138 
Q 1444 4138 1231 3931 
Q 1019 3725 1019 3438 
z
M 838 1322 
Q 838 1081 952 856 
Q 1066 631 1291 507 
Q 1516 384 1775 384 
Q 2178 384 2440 643 
Q 2703 903 2703 1303 
Q 2703 1709 2433 1975 
Q 2163 2241 1756 2241 
Q 1359 2241 1098 1978 
Q 838 1716 838 1322 
z
" transform="scale(0.015625)"/>
       </defs>
       <use xlink:href="#ArialMT-38"/>
       <use xlink:href="#ArialMT-30" x="55.615234"/>
      </g>
     </g>
    </g>
    <g id="ytick_6">
     <g id="text_14">
      <!-- 100 -->
      <g style="fill: #444444" transform="translate(22.705469 83.84545)scale(0.09 -0.09)">
       <use xlink:href="#ArialMT-31"/>
       <use xlink:href="#ArialMT-30" x="55.615234"/>
       <use xlink:href="#ArialMT-30" x="111.230469"/>
      </g>
     </g>
    </g>
    <g id="ytick_7">
     <g id="text_15">
      <!-- 120 -->
      <g style="fill: #444444" transform="translate(22.705469 58.655303)scale(0.09 -0.09)">
       <use xlink:href="#ArialMT-31"/>
       <use xlink:href="#ArialMT-32" x="55.615234"/>
       <use xlink:href="#ArialMT-30" x="111.230469"/>
      </g>
     </g>
    </g>
    <g id="ytick_8">
     <g id="text_16">
      <!-- 140 -->
      <g style="fill: #444444" transform="translate(22.705469 33.465155)scale(0.09 -0.09)">
       <use xlink:href="#ArialMT-31"/>
       <use xlink:href="#ArialMT-34" x="55.615234"/>
       <use xlink:href="#ArialMT-30" x="111.230469"/>
      </g>
     </g>
    </g>
    <g id="text_17">
     <!-- Trimmed Means of M values (TMM) -->
     <g style="fill: #444444" transform="translate(16.81125 190.194993)rotate(-90)scale(0.09 -0.09)">
      <defs>
       <path id="ArialMT-54" d="M 1659 0 
L 1659 4041 
L 150 4041 
L 150 4581 
L 3781 4581 
L 3781 4041 
L 2266 4041 
L 2266 0 
L 1659 0 
z
" transform="scale(0.015625)"/>
       <path id="ArialMT-72" d="M 416 0 
L 416 3319 
L 922 3319 
L 922 2816 
Q 1116 3169 1280 3281 
Q 1444 3394 1641 3394 
Q 1925 3394 2219 3213 
L 2025 2691 
Q 1819 2813 1613 2813 
Q 1428 2813 1281 2702 
Q 1134 2591 1072 2394 
Q 978 2094 978 1738 
L 978 0 
L 416 0 
z
" transform="scale(0.015625)"/>
       <path id="ArialMT-6d" d="M 422 0 
L 422 3319 
L 925 3319 
L 925 2853 
Q 1081 3097 1340 3245 
Q 1600 3394 1931 3394 
Q 2300 3394 2536 3241 
Q 2772 3088 2869 2813 
Q 3263 3394 3894 3394 
Q 4388 3394 4653 3120 
Q 4919 2847 4919 2278 
L 4919 0 
L 4359 0 
L 4359 2091 
Q 4359 2428 4304 2576 
Q 4250 2725 4106 2815 
Q 3963 2906 3769 2906 
Q 3419 2906 3187 2673 
Q 2956 2441 2956 1928 
L 2956 0 
L 2394 0 
L 2394 2156 
Q 2394 2531 2256 2718 
Q 2119 2906 1806 2906 
Q 1569 2906 1367 2781 
Q 1166 2656 1075 2415 
Q 984 2175 984 1722 
L 984 0 
L 422 0 
z
" transform="scale(0.015625)"/>
       <path id="ArialMT-64" d="M 2575 0 
L 2575 419 
Q 2259 -75 1647 -75 
Q 1250 -75 917 144 
Q 584 363 401 755 
Q 219 1147 219 1656 
Q 219 2153 384 2558 
Q 550 2963 881 3178 
Q 1213 3394 1622 3394 
Q 1922 3394 2156 3267 
Q 2391 3141 2538 2938 
L 2538 4581 
L 3097 4581 
L 3097 0 
L 2575 0 
z
M 797 1656 
Q 797 1019 1065 703 
Q 1334 388 1700 388 
Q 2069 388 2326 689 
Q 2584 991 2584 1609 
Q 2584 2291 2321 2609 
Q 2059 2928 1675 2928 
Q 1300 2928 1048 2622 
Q 797 2316 797 1656 
z
" transform="scale(0.015625)"/>
       <path id="ArialMT-20" transform="scale(0.015625)"/>
       <path id="ArialMT-4d" d="M 475 0 
L 475 4581 
L 1388 4581 
L 2472 1338 
Q 2622 884 2691 659 
Q 2769 909 2934 1394 
L 4031 4581 
L 4847 4581 
L 4847 0 
L 4263 0 
L 4263 3834 
L 2931 0 
L 2384 0 
L 1059 3900 
L 1059 0 
L 475 0 
z
" transform="scale(0.015625)"/>
       <path id="ArialMT-73" d="M 197 991 
L 753 1078 
Q 800 744 1014 566 
Q 1228 388 1613 388 
Q 2000 388 2187 545 
Q 2375 703 2375 916 
Q 2375 1106 2209 1216 
Q 2094 1291 1634 1406 
Q 1016 1563 777 1677 
Q 538 1791 414 1992 
Q 291 2194 291 2438 
Q 291 2659 392 2848 
Q 494 3038 669 3163 
Q 800 3259 1026 3326 
Q 1253 3394 1513 3394 
Q 1903 3394 2198 3281 
Q 2494 3169 2634 2976 
Q 2775 2784 2828 2463 
L 2278 2388 
Q 2241 2644 2061 2787 
Q 1881 2931 1553 2931 
Q 1166 2931 1000 2803 
Q 834 2675 834 2503 
Q 834 2394 903 2306 
Q 972 2216 1119 2156 
Q 1203 2125 1616 2013 
Q 2213 1853 2448 1751 
Q 2684 1650 2818 1456 
Q 2953 1263 2953 975 
Q 2953 694 2789 445 
Q 2625 197 2315 61 
Q 2006 -75 1616 -75 
Q 969 -75 630 194 
Q 291 463 197 991 
z
" transform="scale(0.015625)"/>
       <path id="ArialMT-6f" d="M 213 1659 
Q 213 2581 725 3025 
Q 1153 3394 1769 3394 
Q 2453 3394 2887 2945 
Q 3322 2497 3322 1706 
Q 3322 1066 3130 698 
Q 2938 331 2570 128 
Q 2203 -75 1769 -75 
Q 1072 -75 642 372 
Q 213 819 213 1659 
z
M 791 1659 
Q 791 1022 1069 705 
Q 1347 388 1769 388 
Q 2188 388 2466 706 
Q 2744 1025 2744 1678 
Q 2744 2294 2464 2611 
Q 2184 2928 1769 2928 
Q 1347 2928 1069 2612 
Q 791 2297 791 1659 
z
" transform="scale(0.015625)"/>
       <path id="ArialMT-66" d="M 556 0 
L 556 2881 
L 59 2881 
L 59 3319 
L 556 3319 
L 556 3672 
Q 556 4006 616 4169 
Q 697 4388 901 4523 
Q 1106 4659 1475 4659 
Q 1713 4659 2000 4603 
L 1916 4113 
Q 1741 4144 1584 4144 
Q 1328 4144 1222 4034 
Q 1116 3925 1116 3625 
L 1116 3319 
L 1763 3319 
L 1763 2881 
L 1116 2881 
L 1116 0 
L 556 0 
z
" transform="scale(0.015625)"/>
       <path id="ArialMT-76" d="M 1344 0 
L 81 3319 
L 675 3319 
L 1388 1331 
Q 1503 1009 1600 663 
Q 1675 925 1809 1294 
L 2547 3319 
L 3125 3319 
L 1869 0 
L 1344 0 
z
" transform="scale(0.015625)"/>
       <path id="ArialMT-6c" d="M 409 0 
L 409 4581 
L 972 4581 
L 972 0 
L 409 0 
z
" transform="scale(0.015625)"/>
       <path id="ArialMT-75" d="M 2597 0 
L 2597 488 
Q 2209 -75 1544 -75 
Q 1250 -75 995 37 
Q 741 150 617 320 
Q 494 491 444 738 
Q 409 903 409 1263 
L 409 3319 
L 972 3319 
L 972 1478 
Q 972 1038 1006 884 
Q 1059 663 1231 536 
Q 1403 409 1656 409 
Q 1909 409 2131 539 
Q 2353 669 2445 892 
Q 2538 1116 2538 1541 
L 2538 3319 
L 3100 3319 
L 3100 0 
L 2597 0 
z
" transform="scale(0.015625)"/>
       <path id="ArialMT-28" d="M 1497 -1347 
Q 1031 -759 709 28 
Q 388 816 388 1659 
Q 388 2403 628 3084 
Q 909 3875 1497 4659 
L 1900 4659 
Q 1522 4009 1400 3731 
Q 1209 3300 1100 2831 
Q 966 2247 966 1656 
Q 966 153 1900 -1347 
L 1497 -1347 
z
" transform="scale(0.015625)"/>
       <path id="ArialMT-29" d="M 791 -1347 
L 388 -1347 
Q 1322 153 1322 1656 
Q 1322 2244 1188 2822 
Q 1081 3291 891 3722 
Q 769 4003 388 4659 
L 791 4659 
Q 1378 3875 1659 3084 
Q 1900 2403 1900 1659 
Q 1900 816 1576 28 
Q 1253 -759 791 -1347 
z
" transform="scale(0.015625)"/>
      </defs>
      <use xlink:href="#ArialMT-54"/>
      <use xlink:href="#ArialMT-72" x="57.333984"/>
      <use xlink:href="#ArialMT-69" x="90.634766"/>
      <use xlink:href="#ArialMT-6d" x="112.851562"/>
      <use xlink:href="#ArialMT-6d" x="196.152344"/>
      <use xlink:href="#ArialMT-65" x="279.453125"/>
      <use xlink:href="#ArialMT-64" x="335.068359"/>
      <use xlink:href="#ArialMT-20" x="390.683594"/>
      <use xlink:href="#ArialMT-4d" x="418.466797"/>
      <use xlink:href="#ArialMT-65" x="501.767578"/>
      <use xlink:href="#ArialMT-61" x="557.382812"/>
      <use xlink:href="#ArialMT-6e" x="612.998047"/>
      <use xlink:href="#ArialMT-73" x="668.613281"/>
      <use xlink:href="#ArialMT-20" x="718.613281"/>
      <use xlink:href="#ArialMT-6f" x="746.396484"/>
      <use xlink:href="#ArialMT-66" x="802.011719"/>
      <use xlink:href="#ArialMT-20" x="829.794922"/>
      <use xlink:href="#ArialMT-4d" x="857.578125"/>
      <use xlink:href="#ArialMT-20" x="940.878906"/>
      <use xlink:href="#ArialMT-76" x="968.662109"/>
      <use xlink:href="#ArialMT-61" x="1018.662109"/>
      <use xlink:href="#ArialMT-6c" x="1074.277344"/>
      <use xlink:href="#ArialMT-75" x="1096.494141"/>
      <use xlink:href="#ArialMT-65" x="1152.109375"/>
      <use xlink:href="#ArialMT-73" x="1207.724609"/>
      <use xlink:href="#ArialMT-20" x="1257.724609"/>
      <use xlink:href="#ArialMT-28" x="1285.507812"/>
      <use xlink:href="#ArialMT-54" x="1318.808594"/>
      <use xlink:href="#ArialMT-4d" x="1379.892578"/>
      <use xlink:href="#ArialMT-4d" x="1463.193359"/>
      <use xlink:href="#ArialMT-29" x="1546.494141"/>
     </g>
    </g>
   </g>
   <g id="PolyCollection_1">
    <defs>
     <path id="m8073065468" d="M 81.041842 -68.755247 
L 78.154761 -68.755247 
L 78.135738 -69.33999 
L 78.118142 -69.924733 
L 78.102005 -70.509475 
L 78.087355 -71.094218 
L 78.074209 -71.678961 
L 78.062579 -72.263704 
L 78.052471 -72.848447 
L 78.04388 -73.433189 
L 78.036795 -74.017932 
L 78.031199 -74.602675 
L 78.027065 -75.187418 
L 78.024361 -75.772161 
L 78.023046 -76.356903 
L 78.023074 -76.941646 
L 78.024392 -77.526389 
L 78.02694 -78.111132 
L 78.030653 -78.695874 
L 78.035463 -79.280617 
L 78.041294 -79.86536 
L 78.048068 -80.450103 
L 78.055701 -81.034846 
L 78.064111 -81.619588 
L 78.073207 -82.204331 
L 78.082902 -82.789074 
L 78.093105 -83.373817 
L 78.103725 -83.958559 
L 78.11467 -84.543302 
L 78.125852 -85.128045 
L 78.137181 -85.712788 
L 78.14857 -86.297531 
L 78.159936 -86.882273 
L 78.171197 -87.467016 
L 78.182275 -88.051759 
L 78.193097 -88.636502 
L 78.203595 -89.221245 
L 78.213703 -89.805987 
L 78.223364 -90.39073 
L 78.232523 -90.975473 
L 78.241135 -91.560216 
L 78.249157 -92.144958 
L 78.256555 -92.729701 
L 78.2633 -93.314444 
L 78.26937 -93.899187 
L 78.27475 -94.48393 
L 78.27943 -95.068672 
L 78.283408 -95.653415 
L 78.286688 -96.238158 
L 78.289279 -96.822901 
L 78.291198 -97.407644 
L 78.292465 -97.992386 
L 78.293109 -98.577129 
L 78.293161 -99.161872 
L 78.292659 -99.746615 
L 78.291644 -100.331357 
L 78.290162 -100.9161 
L 78.288264 -101.500843 
L 78.286002 -102.085586 
L 78.283432 -102.670329 
L 78.280613 -103.255071 
L 78.277606 -103.839814 
L 78.274473 -104.424557 
L 78.271279 -105.0093 
L 78.268087 -105.594042 
L 78.264963 -106.178785 
L 78.261972 -106.763528 
L 78.259178 -107.348271 
L 78.256645 -107.933014 
L 78.254437 -108.517756 
L 78.252614 -109.102499 
L 78.251235 -109.687242 
L 78.250358 -110.271985 
L 78.250038 -110.856728 
L 78.250326 -111.44147 
L 78.251271 -112.026213 
L 78.252919 -112.610956 
L 78.255312 -113.195699 
L 78.258489 -113.780441 
L 78.262485 -114.365184 
L 78.267329 -114.949927 
L 78.27305 -115.53467 
L 78.279669 -116.119413 
L 78.287204 -116.704155 
L 78.295671 -117.288898 
L 78.305078 -117.873641 
L 78.315431 -118.458384 
L 78.326731 -119.043127 
L 78.338975 -119.627869 
L 78.352156 -120.212612 
L 78.366263 -120.797355 
L 78.381281 -121.382098 
L 78.39719 -121.96684 
L 78.413968 -122.551583 
L 78.431588 -123.136326 
L 78.450021 -123.721069 
L 78.469235 -124.305812 
L 78.489193 -124.890554 
L 78.509857 -125.475297 
L 78.531186 -126.06004 
L 78.553136 -126.644783 
L 80.643466 -126.644783 
L 80.643466 -126.644783 
L 80.665417 -126.06004 
L 80.686746 -125.475297 
L 80.70741 -124.890554 
L 80.727368 -124.305812 
L 80.746582 -123.721069 
L 80.765015 -123.136326 
L 80.782635 -122.551583 
L 80.799413 -121.96684 
L 80.815322 -121.382098 
L 80.83034 -120.797355 
L 80.844447 -120.212612 
L 80.857628 -119.627869 
L 80.869872 -119.043127 
L 80.881172 -118.458384 
L 80.891525 -117.873641 
L 80.900932 -117.288898 
L 80.909399 -116.704155 
L 80.916934 -116.119413 
L 80.923553 -115.53467 
L 80.929273 -114.949927 
L 80.934118 -114.365184 
L 80.938113 -113.780441 
L 80.94129 -113.195699 
L 80.943684 -112.610956 
L 80.945332 -112.026213 
L 80.946277 -111.44147 
L 80.946565 -110.856728 
L 80.946245 -110.271985 
L 80.945368 -109.687242 
L 80.943989 -109.102499 
L 80.942166 -108.517756 
L 80.939958 -107.933014 
L 80.937425 -107.348271 
L 80.934631 -106.763528 
L 80.93164 -106.178785 
L 80.928516 -105.594042 
L 80.925324 -105.0093 
L 80.92213 -104.424557 
L 80.918997 -103.839814 
L 80.91599 -103.255071 
L 80.913171 -102.670329 
L 80.910601 -102.085586 
L 80.908339 -101.500843 
L 80.906441 -100.9161 
L 80.904959 -100.331357 
L 80.903944 -99.746615 
L 80.903442 -99.161872 
L 80.903494 -98.577129 
L 80.904138 -97.992386 
L 80.905405 -97.407644 
L 80.907324 -96.822901 
L 80.909915 -96.238158 
L 80.913195 -95.653415 
L 80.917173 -95.068672 
L 80.921853 -94.48393 
L 80.927233 -93.899187 
L 80.933303 -93.314444 
L 80.940048 -92.729701 
L 80.947446 -92.144958 
L 80.955468 -91.560216 
L 80.964079 -90.975473 
L 80.973239 -90.39073 
L 80.9829 -89.805987 
L 80.993008 -89.221245 
L 81.003506 -88.636502 
L 81.014328 -88.051759 
L 81.025406 -87.467016 
L 81.036667 -86.882273 
L 81.048033 -86.297531 
L 81.059422 -85.712788 
L 81.070751 -85.128045 
L 81.081933 -84.543302 
L 81.092878 -83.958559 
L 81.103498 -83.373817 
L 81.113701 -82.789074 
L 81.123396 -82.204331 
L 81.132492 -81.619588 
L 81.140901 -81.034846 
L 81.148535 -80.450103 
L 81.155309 -79.86536 
L 81.16114 -79.280617 
L 81.165949 -78.695874 
L 81.169663 -78.111132 
L 81.172211 -77.526389 
L 81.173529 -76.941646 
L 81.173557 -76.356903 
L 81.172242 -75.772161 
L 81.169537 -75.187418 
L 81.165404 -74.602675 
L 81.159808 -74.017932 
L 81.152723 -73.433189 
L 81.144132 -72.848447 
L 81.134024 -72.263704 
L 81.122394 -71.678961 
L 81.109248 -71.094218 
L 81.094598 -70.509475 
L 81.078461 -69.924733 
L 81.060865 -69.33999 
L 81.041842 -68.755247 
z
" style="stroke: #999999; stroke-width: 2"/>
    </defs>
    <g clip-path="url(#p330a51b6da)">
     <use xlink:href="#m8073065468" x="0" y="255.11811" style="fill: #ffffff; stroke: #999999; stroke-width: 2"/>
    </g>
   </g>
   <g id="PolyCollection_2">
    <defs>
     <path id="m8a9f120d64" d="M 149.047873 -61.65241 
L 139.661936 -61.65241 
L 139.47917 -61.839748 
L 139.296725 -62.027086 
L 139.115107 -62.214425 
L 138.934829 -62.401763 
L 138.756415 -62.589101 
L 138.580396 -62.77644 
L 138.407305 -62.963778 
L 138.237673 -63.151116 
L 138.072033 -63.338454 
L 137.910909 -63.525793 
L 137.754819 -63.713131 
L 137.604269 -63.900469 
L 137.459748 -64.087808 
L 137.321733 -64.275146 
L 137.190678 -64.462484 
L 137.067015 -64.649822 
L 136.951151 -64.837161 
L 136.843467 -65.024499 
L 136.744315 -65.211837 
L 136.654014 -65.399176 
L 136.572853 -65.586514 
L 136.501087 -65.773852 
L 136.438934 -65.961191 
L 136.386578 -66.148529 
L 136.344168 -66.335867 
L 136.311815 -66.523205 
L 136.289593 -66.710544 
L 136.277542 -66.897882 
L 136.275663 -67.08522 
L 136.283926 -67.272559 
L 136.302262 -67.459897 
L 136.33057 -67.647235 
L 136.368717 -67.834573 
L 136.416538 -68.021912 
L 136.473834 -68.20925 
L 136.540381 -68.396588 
L 136.615923 -68.583927 
L 136.700178 -68.771265 
L 136.792836 -68.958603 
L 136.893564 -69.145941 
L 137.002003 -69.33328 
L 137.117771 -69.520618 
L 137.240462 -69.707956 
L 137.369651 -69.895295 
L 137.504892 -70.082633 
L 137.645718 -70.269971 
L 137.791647 -70.45731 
L 137.942177 -70.644648 
L 138.096792 -70.831986 
L 138.254963 -71.019324 
L 138.416146 -71.206663 
L 138.579789 -71.394001 
L 138.745331 -71.581339 
L 138.912204 -71.768678 
L 139.079837 -71.956016 
L 139.247657 -72.143354 
L 139.415096 -72.330692 
L 139.581588 -72.518031 
L 139.746576 -72.705369 
L 139.909517 -72.892707 
L 140.069882 -73.080046 
L 140.22716 -73.267384 
L 140.380866 -73.454722 
L 140.530538 -73.64206 
L 140.675746 -73.829399 
L 140.816094 -74.016737 
L 140.951222 -74.204075 
L 141.08081 -74.391414 
L 141.204581 -74.578752 
L 141.322303 -74.76609 
L 141.433791 -74.953429 
L 141.538909 -75.140767 
L 141.637569 -75.328105 
L 141.729737 -75.515443 
L 141.815425 -75.702782 
L 141.894699 -75.89012 
L 141.967671 -76.077458 
L 142.034501 -76.264797 
L 142.095396 -76.452135 
L 142.150602 -76.639473 
L 142.200408 -76.826811 
L 142.245136 -77.01415 
L 142.285142 -77.201488 
L 142.320808 -77.388826 
L 142.352541 -77.576165 
L 142.380764 -77.763503 
L 142.405913 -77.950841 
L 142.428435 -78.138179 
L 142.448777 -78.325518 
L 142.467385 -78.512856 
L 142.484699 -78.700194 
L 142.501145 -78.887533 
L 142.517134 -79.074871 
L 142.533058 -79.262209 
L 142.549283 -79.449547 
L 142.566147 -79.636886 
L 142.583959 -79.824224 
L 142.602994 -80.011562 
L 142.623493 -80.198901 
L 146.086316 -80.198901 
L 146.086316 -80.198901 
L 146.106815 -80.011562 
L 146.12585 -79.824224 
L 146.143662 -79.636886 
L 146.160526 -79.449547 
L 146.17675 -79.262209 
L 146.192674 -79.074871 
L 146.208664 -78.887533 
L 146.22511 -78.700194 
L 146.242423 -78.512856 
L 146.261032 -78.325518 
L 146.281374 -78.138179 
L 146.303895 -77.950841 
L 146.329045 -77.763503 
L 146.357268 -77.576165 
L 146.389001 -77.388826 
L 146.424667 -77.201488 
L 146.464673 -77.01415 
L 146.509401 -76.826811 
L 146.559207 -76.639473 
L 146.614413 -76.452135 
L 146.675307 -76.264797 
L 146.742138 -76.077458 
L 146.81511 -75.89012 
L 146.894384 -75.702782 
L 146.980072 -75.515443 
L 147.07224 -75.328105 
L 147.1709 -75.140767 
L 147.276018 -74.953429 
L 147.387506 -74.76609 
L 147.505228 -74.578752 
L 147.628999 -74.391414 
L 147.758587 -74.204075 
L 147.893715 -74.016737 
L 148.034063 -73.829399 
L 148.179271 -73.64206 
L 148.328943 -73.454722 
L 148.482649 -73.267384 
L 148.639927 -73.080046 
L 148.800292 -72.892707 
L 148.963233 -72.705369 
L 149.128221 -72.518031 
L 149.294713 -72.330692 
L 149.462152 -72.143354 
L 149.629972 -71.956016 
L 149.797605 -71.768678 
L 149.964478 -71.581339 
L 150.130019 -71.394001 
L 150.293663 -71.206663 
L 150.454846 -71.019324 
L 150.613017 -70.831986 
L 150.767632 -70.644648 
L 150.918162 -70.45731 
L 151.064091 -70.269971 
L 151.204917 -70.082633 
L 151.340158 -69.895295 
L 151.469347 -69.707956 
L 151.592038 -69.520618 
L 151.707805 -69.33328 
L 151.816244 -69.145941 
L 151.916972 -68.958603 
L 152.009631 -68.771265 
L 152.093886 -68.583927 
L 152.169428 -68.396588 
L 152.235975 -68.20925 
L 152.293271 -68.021912 
L 152.341091 -67.834573 
L 152.379238 -67.647235 
L 152.407547 -67.459897 
L 152.425883 -67.272559 
L 152.434145 -67.08522 
L 152.432267 -66.897882 
L 152.420216 -66.710544 
L 152.397994 -66.523205 
L 152.365641 -66.335867 
L 152.323231 -66.148529 
L 152.270875 -65.961191 
L 152.208722 -65.773852 
L 152.136955 -65.586514 
L 152.055795 -65.399176 
L 151.965494 -65.211837 
L 151.866341 -65.024499 
L 151.758657 -64.837161 
L 151.642794 -64.649822 
L 151.519131 -64.462484 
L 151.388075 -64.275146 
L 151.25006 -64.087808 
L 151.10554 -63.900469 
L 150.954989 -63.713131 
L 150.798899 -63.525793 
L 150.637776 -63.338454 
L 150.472136 -63.151116 
L 150.302504 -62.963778 
L 150.129412 -62.77644 
L 149.953393 -62.589101 
L 149.77498 -62.401763 
L 149.594702 -62.214425 
L 149.413084 -62.027086 
L 149.230639 -61.839748 
L 149.047873 -61.65241 
z
" style="stroke: #999999; stroke-width: 2"/>
    </defs>
    <g clip-path="url(#p330a51b6da)">
     <use xlink:href="#m8a9f120d64" x="0" y="255.11811" style="fill: #ffffff; stroke: #999999; stroke-width: 2"/>
    </g>
   </g>
   <g id="PolyCollection_3">
    <defs>
     <path id="md09f72c515" d="M 221.544391 -51.740243 
L 196.678623 -51.740243 
L 196.269828 -51.794996 
L 195.863956 -51.849749 
L 195.461454 -51.904502 
L 195.062696 -51.959256 
L 194.667977 -52.014009 
L 194.277514 -52.068762 
L 193.891445 -52.123515 
L 193.509835 -52.178268 
L 193.132671 -52.233021 
L 192.759876 -52.287774 
L 192.391308 -52.342527 
L 192.026774 -52.39728 
L 191.666036 -52.452034 
L 191.308824 -52.506787 
L 190.954848 -52.56154 
L 190.603811 -52.616293 
L 190.255427 -52.671046 
L 189.909432 -52.725799 
L 189.565602 -52.780552 
L 189.223769 -52.835305 
L 188.883839 -52.890059 
L 188.545803 -52.944812 
L 188.209758 -52.999565 
L 187.875915 -53.054318 
L 187.544615 -53.109071 
L 187.216337 -53.163824 
L 186.89171 -53.218577 
L 186.571514 -53.27333 
L 186.256687 -53.328083 
L 185.948326 -53.382837 
L 185.647679 -53.43759 
L 185.356147 -53.492343 
L 185.075267 -53.547096 
L 184.806705 -53.601849 
L 184.552238 -53.656602 
L 184.313737 -53.711355 
L 184.093143 -53.766108 
L 183.892444 -53.820861 
L 183.713653 -53.875615 
L 183.558771 -53.930368 
L 183.429766 -53.985121 
L 183.328537 -54.039874 
L 183.256888 -54.094627 
L 183.216492 -54.14938 
L 183.208866 -54.204133 
L 183.235341 -54.258886 
L 183.297033 -54.313639 
L 183.394824 -54.368393 
L 183.529335 -54.423146 
L 183.700914 -54.477899 
L 183.909616 -54.532652 
L 184.155199 -54.587405 
L 184.437113 -54.642158 
L 184.754503 -54.696911 
L 185.106209 -54.751664 
L 185.490778 -54.806418 
L 185.906473 -54.861171 
L 186.351292 -54.915924 
L 186.822987 -54.970677 
L 187.319092 -55.02543 
L 187.836946 -55.080183 
L 188.373729 -55.134936 
L 188.926491 -55.189689 
L 189.49219 -55.244442 
L 190.067725 -55.299196 
L 190.649977 -55.353949 
L 191.23584 -55.408702 
L 191.82226 -55.463455 
L 192.406273 -55.518208 
L 192.98503 -55.572961 
L 193.555836 -55.627714 
L 194.116173 -55.682467 
L 194.663725 -55.73722 
L 195.196403 -55.791974 
L 195.71236 -55.846727 
L 196.210003 -55.90148 
L 196.68801 -55.956233 
L 197.145325 -56.010986 
L 197.581171 -56.065739 
L 197.995038 -56.120492 
L 198.386686 -56.175245 
L 198.756126 -56.229999 
L 199.103616 -56.284752 
L 199.429639 -56.339505 
L 199.734887 -56.394258 
L 200.020241 -56.449011 
L 200.286746 -56.503764 
L 200.535591 -56.558517 
L 200.76808 -56.61327 
L 200.98561 -56.668023 
L 201.189644 -56.722777 
L 201.381688 -56.77753 
L 201.563262 -56.832283 
L 201.735882 -56.887036 
L 201.901036 -56.941789 
L 202.060163 -56.996542 
L 202.214635 -57.051295 
L 202.365741 -57.106048 
L 202.514674 -57.160801 
L 215.708341 -57.160801 
L 215.708341 -57.160801 
L 215.857274 -57.106048 
L 216.00838 -57.051295 
L 216.162852 -56.996542 
L 216.321979 -56.941789 
L 216.487132 -56.887036 
L 216.659753 -56.832283 
L 216.841327 -56.77753 
L 217.03337 -56.722777 
L 217.237405 -56.668023 
L 217.454935 -56.61327 
L 217.687424 -56.558517 
L 217.936269 -56.503764 
L 218.202774 -56.449011 
L 218.488128 -56.394258 
L 218.793376 -56.339505 
L 219.119398 -56.284752 
L 219.466888 -56.229999 
L 219.836329 -56.175245 
L 220.227976 -56.120492 
L 220.641844 -56.065739 
L 221.07769 -56.010986 
L 221.535005 -55.956233 
L 222.013011 -55.90148 
L 222.510655 -55.846727 
L 223.026612 -55.791974 
L 223.55929 -55.73722 
L 224.106842 -55.682467 
L 224.667178 -55.627714 
L 225.237984 -55.572961 
L 225.816742 -55.518208 
L 226.400754 -55.463455 
L 226.987175 -55.408702 
L 227.573038 -55.353949 
L 228.155289 -55.299196 
L 228.730825 -55.244442 
L 229.296524 -55.189689 
L 229.849286 -55.134936 
L 230.386069 -55.080183 
L 230.903923 -55.02543 
L 231.400027 -54.970677 
L 231.871723 -54.915924 
L 232.316541 -54.861171 
L 232.732237 -54.806418 
L 233.116806 -54.751664 
L 233.468512 -54.696911 
L 233.785902 -54.642158 
L 234.067816 -54.587405 
L 234.313398 -54.532652 
L 234.522101 -54.477899 
L 234.693679 -54.423146 
L 234.828191 -54.368393 
L 234.925982 -54.313639 
L 234.987674 -54.258886 
L 235.014148 -54.204133 
L 235.006523 -54.14938 
L 234.966127 -54.094627 
L 234.894477 -54.039874 
L 234.793249 -53.985121 
L 234.664244 -53.930368 
L 234.509362 -53.875615 
L 234.33057 -53.820861 
L 234.129872 -53.766108 
L 233.909278 -53.711355 
L 233.670776 -53.656602 
L 233.41631 -53.601849 
L 233.147747 -53.547096 
L 232.866867 -53.492343 
L 232.575335 -53.43759 
L 232.274689 -53.382837 
L 231.966327 -53.328083 
L 231.651501 -53.27333 
L 231.331305 -53.218577 
L 231.006678 -53.163824 
L 230.6784 -53.109071 
L 230.3471 -53.054318 
L 230.013257 -52.999565 
L 229.677211 -52.944812 
L 229.339176 -52.890059 
L 228.999245 -52.835305 
L 228.657413 -52.780552 
L 228.313582 -52.725799 
L 227.967587 -52.671046 
L 227.619203 -52.616293 
L 227.268167 -52.56154 
L 226.914191 -52.506787 
L 226.556979 -52.452034 
L 226.196241 -52.39728 
L 225.831707 -52.342527 
L 225.463139 -52.287774 
L 225.090344 -52.233021 
L 224.71318 -52.178268 
L 224.331569 -52.123515 
L 223.945501 -52.068762 
L 223.555038 -52.014009 
L 223.160318 -51.959256 
L 222.76156 -51.904502 
L 222.359059 -51.849749 
L 221.953187 -51.794996 
L 221.544391 -51.740243 
z
" style="stroke: #999999; stroke-width: 2"/>
    </defs>
    <g clip-path="url(#p330a51b6da)">
     <use xlink:href="#md09f72c515" x="0" y="255.11811" style="fill: #ffffff; stroke: #999999; stroke-width: 2"/>
    </g>
   </g>
   <g id="PolyCollection_4">
    <defs>
     <path id="ma88f055467" d="M 274.619829 -82.43946 
L 273.116392 -82.43946 
L 273.108014 -83.85099 
L 273.100747 -85.26252 
L 273.094589 -86.67405 
L 273.089528 -88.08558 
L 273.085544 -89.49711 
L 273.082607 -90.90864 
L 273.080681 -92.32017 
L 273.07972 -93.7317 
L 273.079671 -95.14323 
L 273.080475 -96.55476 
L 273.082066 -97.96629 
L 273.084373 -99.377819 
L 273.08732 -100.789349 
L 273.090827 -102.200879 
L 273.094814 -103.612409 
L 273.099197 -105.023939 
L 273.103891 -106.435469 
L 273.108812 -107.846999 
L 273.113879 -109.258529 
L 273.119011 -110.670059 
L 273.124131 -112.081589 
L 273.129167 -113.493119 
L 273.134052 -114.904649 
L 273.138724 -116.316179 
L 273.143129 -117.727709 
L 273.147219 -119.139238 
L 273.150955 -120.550768 
L 273.154306 -121.962298 
L 273.157248 -123.373828 
L 273.159767 -124.785358 
L 273.161858 -126.196888 
L 273.163525 -127.608418 
L 273.16478 -129.019948 
L 273.165642 -130.431478 
L 273.16614 -131.843008 
L 273.16631 -133.254538 
L 273.166193 -134.666068 
L 273.16584 -136.077598 
L 273.165302 -137.489128 
L 273.16464 -138.900658 
L 273.163915 -140.312187 
L 273.163192 -141.723717 
L 273.162538 -143.135247 
L 273.16202 -144.546777 
L 273.161705 -145.958307 
L 273.16166 -147.369837 
L 273.16195 -148.781367 
L 273.162634 -150.192897 
L 273.163772 -151.604427 
L 273.165416 -153.015957 
L 273.167613 -154.427487 
L 273.170407 -155.839017 
L 273.173832 -157.250547 
L 273.177918 -158.662077 
L 273.182686 -160.073606 
L 273.188152 -161.485136 
L 273.194323 -162.896666 
L 273.201198 -164.308196 
L 273.20877 -165.719726 
L 273.217025 -167.131256 
L 273.225942 -168.542786 
L 273.235492 -169.954316 
L 273.245644 -171.365846 
L 273.256357 -172.777376 
L 273.267589 -174.188906 
L 273.279291 -175.600436 
L 273.291412 -177.011966 
L 273.3039 -178.423496 
L 273.316697 -179.835025 
L 273.329748 -181.246555 
L 273.342994 -182.658085 
L 273.356379 -184.069615 
L 273.369846 -185.481145 
L 273.38334 -186.892675 
L 273.396809 -188.304205 
L 273.410203 -189.715735 
L 273.423475 -191.127265 
L 273.436583 -192.538795 
L 273.449487 -193.950325 
L 273.462152 -195.361855 
L 273.474549 -196.773385 
L 273.486651 -198.184915 
L 273.498436 -199.596445 
L 273.50989 -201.007974 
L 273.520999 -202.419504 
L 273.531756 -203.831034 
L 273.542158 -205.242564 
L 273.552206 -206.654094 
L 273.561902 -208.065624 
L 273.571256 -209.477154 
L 273.580278 -210.888684 
L 273.58898 -212.300214 
L 273.597378 -213.711744 
L 273.60549 -215.123274 
L 273.613332 -216.534804 
L 273.620925 -217.946334 
L 273.628289 -219.357864 
L 273.635442 -220.769393 
L 273.642406 -222.180923 
L 274.093814 -222.180923 
L 274.093814 -222.180923 
L 274.100778 -220.769393 
L 274.107932 -219.357864 
L 274.115295 -217.946334 
L 274.122888 -216.534804 
L 274.130731 -215.123274 
L 274.138842 -213.711744 
L 274.14724 -212.300214 
L 274.155943 -210.888684 
L 274.164964 -209.477154 
L 274.174318 -208.065624 
L 274.184015 -206.654094 
L 274.194062 -205.242564 
L 274.204464 -203.831034 
L 274.215221 -202.419504 
L 274.226331 -201.007974 
L 274.237784 -199.596445 
L 274.24957 -198.184915 
L 274.261672 -196.773385 
L 274.274068 -195.361855 
L 274.286733 -193.950325 
L 274.299637 -192.538795 
L 274.312745 -191.127265 
L 274.326017 -189.715735 
L 274.339411 -188.304205 
L 274.352881 -186.892675 
L 274.366375 -185.481145 
L 274.379842 -184.069615 
L 274.393226 -182.658085 
L 274.406472 -181.246555 
L 274.419523 -179.835025 
L 274.432321 -178.423496 
L 274.444808 -177.011966 
L 274.45693 -175.600436 
L 274.468632 -174.188906 
L 274.479864 -172.777376 
L 274.490577 -171.365846 
L 274.500728 -169.954316 
L 274.510279 -168.542786 
L 274.519196 -167.131256 
L 274.527451 -165.719726 
L 274.535023 -164.308196 
L 274.541898 -162.896666 
L 274.548068 -161.485136 
L 274.553534 -160.073606 
L 274.558303 -158.662077 
L 274.562389 -157.250547 
L 274.565814 -155.839017 
L 274.568607 -154.427487 
L 274.570805 -153.015957 
L 274.572448 -151.604427 
L 274.573586 -150.192897 
L 274.574271 -148.781367 
L 274.57456 -147.369837 
L 274.574515 -145.958307 
L 274.574201 -144.546777 
L 274.573683 -143.135247 
L 274.573028 -141.723717 
L 274.572305 -140.312187 
L 274.57158 -138.900658 
L 274.570918 -137.489128 
L 274.570381 -136.077598 
L 274.570027 -134.666068 
L 274.569911 -133.254538 
L 274.57008 -131.843008 
L 274.570579 -130.431478 
L 274.571441 -129.019948 
L 274.572695 -127.608418 
L 274.574362 -126.196888 
L 274.576453 -124.785358 
L 274.578973 -123.373828 
L 274.581915 -121.962298 
L 274.585265 -120.550768 
L 274.589001 -119.139238 
L 274.593092 -117.727709 
L 274.597497 -116.316179 
L 274.602169 -114.904649 
L 274.607054 -113.493119 
L 274.61209 -112.081589 
L 274.61721 -110.670059 
L 274.622342 -109.258529 
L 274.627408 -107.846999 
L 274.63233 -106.435469 
L 274.637024 -105.023939 
L 274.641406 -103.612409 
L 274.645393 -102.200879 
L 274.648901 -100.789349 
L 274.651848 -99.377819 
L 274.654154 -97.96629 
L 274.655745 -96.55476 
L 274.656549 -95.14323 
L 274.6565 -93.7317 
L 274.655539 -92.32017 
L 274.653613 -90.90864 
L 274.650677 -89.49711 
L 274.646693 -88.08558 
L 274.641632 -86.67405 
L 274.635474 -85.26252 
L 274.628207 -83.85099 
L 274.619829 -82.43946 
z
" style="stroke: #999999; stroke-width: 2"/>
    </defs>
    <g clip-path="url(#p330a51b6da)">
     <use xlink:href="#ma88f055467" x="0" y="255.11811" style="fill: #ffffff; stroke: #999999; stroke-width: 2"/>
    </g>
   </g>
   <g id="PolyCollection_5">
    <defs>
     <path id="md6fdb06b33" d="M 359.945653 -49.837187 
L 317.303773 -49.837187 
L 317.058743 -49.87422 
L 316.829442 -49.911253 
L 316.616147 -49.948286 
L 316.419078 -49.985319 
L 316.238391 -50.022351 
L 316.074182 -50.059384 
L 315.926483 -50.096417 
L 315.795263 -50.13345 
L 315.680432 -50.170483 
L 315.581835 -50.207516 
L 315.499258 -50.244549 
L 315.432427 -50.281582 
L 315.381013 -50.318615 
L 315.344628 -50.355648 
L 315.322836 -50.392681 
L 315.315146 -50.429714 
L 315.321023 -50.466747 
L 315.339889 -50.503779 
L 315.371122 -50.540812 
L 315.414067 -50.577845 
L 315.468034 -50.614878 
L 315.532305 -50.651911 
L 315.606138 -50.688944 
L 315.688771 -50.725977 
L 315.779425 -50.76301 
L 315.87731 -50.800043 
L 315.981629 -50.837076 
L 316.091582 -50.874109 
L 316.206373 -50.911142 
L 316.325209 -50.948175 
L 316.447309 -50.985208 
L 316.571906 -51.02224 
L 316.69825 -51.059273 
L 316.825616 -51.096306 
L 316.953302 -51.133339 
L 317.080635 -51.170372 
L 317.206977 -51.207405 
L 317.331722 -51.244438 
L 317.454304 -51.281471 
L 317.574196 -51.318504 
L 317.690914 -51.355537 
L 317.804018 -51.39257 
L 317.913115 -51.429603 
L 318.017857 -51.466636 
L 318.117948 -51.503668 
L 318.213138 -51.540701 
L 318.303227 -51.577734 
L 318.388067 -51.614767 
L 318.467557 -51.6518 
L 318.541647 -51.688833 
L 318.610336 -51.725866 
L 318.673671 -51.762899 
L 318.731745 -51.799932 
L 318.784697 -51.836965 
L 318.832712 -51.873998 
L 318.876016 -51.911031 
L 318.914875 -51.948064 
L 318.949594 -51.985097 
L 318.980516 -52.022129 
L 319.008016 -52.059162 
L 319.032501 -52.096195 
L 319.054408 -52.133228 
L 319.074197 -52.170261 
L 319.092354 -52.207294 
L 319.109384 -52.244327 
L 319.12581 -52.28136 
L 319.142169 -52.318393 
L 319.159009 -52.355426 
L 319.176886 -52.392459 
L 319.196362 -52.429492 
L 319.217999 -52.466525 
L 319.24236 -52.503557 
L 319.270002 -52.54059 
L 319.301477 -52.577623 
L 319.337325 -52.614656 
L 319.378075 -52.651689 
L 319.424238 -52.688722 
L 319.476308 -52.725755 
L 319.534758 -52.762788 
L 319.600039 -52.799821 
L 319.672574 -52.836854 
L 319.75276 -52.873887 
L 319.840963 -52.91092 
L 319.937519 -52.947953 
L 320.042729 -52.984986 
L 320.156861 -53.022018 
L 320.280145 -53.059051 
L 320.412776 -53.096084 
L 320.554908 -53.133117 
L 320.70666 -53.17015 
L 320.868107 -53.207183 
L 321.039289 -53.244216 
L 321.220202 -53.281249 
L 321.410805 -53.318282 
L 321.611018 -53.355315 
L 321.82072 -53.392348 
L 322.039752 -53.429381 
L 322.267919 -53.466414 
L 322.50499 -53.503446 
L 354.744437 -53.503446 
L 354.744437 -53.503446 
L 354.981507 -53.466414 
L 355.209675 -53.429381 
L 355.428707 -53.392348 
L 355.638408 -53.355315 
L 355.838621 -53.318282 
L 356.029224 -53.281249 
L 356.210138 -53.244216 
L 356.381319 -53.207183 
L 356.542767 -53.17015 
L 356.694518 -53.133117 
L 356.83665 -53.096084 
L 356.969281 -53.059051 
L 357.092565 -53.022018 
L 357.206697 -52.984986 
L 357.311907 -52.947953 
L 357.408463 -52.91092 
L 357.496666 -52.873887 
L 357.576852 -52.836854 
L 357.649387 -52.799821 
L 357.714668 -52.762788 
L 357.773119 -52.725755 
L 357.825189 -52.688722 
L 357.871351 -52.651689 
L 357.912101 -52.614656 
L 357.947949 -52.577623 
L 357.979424 -52.54059 
L 358.007067 -52.503557 
L 358.031428 -52.466525 
L 358.053065 -52.429492 
L 358.07254 -52.392459 
L 358.090417 -52.355426 
L 358.107257 -52.318393 
L 358.123616 -52.28136 
L 358.140042 -52.244327 
L 358.157073 -52.207294 
L 358.17523 -52.170261 
L 358.195019 -52.133228 
L 358.216925 -52.096195 
L 358.24141 -52.059162 
L 358.26891 -52.022129 
L 358.299832 -51.985097 
L 358.334552 -51.948064 
L 358.373411 -51.911031 
L 358.416714 -51.873998 
L 358.464729 -51.836965 
L 358.517681 -51.799932 
L 358.575755 -51.762899 
L 358.63909 -51.725866 
L 358.707779 -51.688833 
L 358.781869 -51.6518 
L 358.861359 -51.614767 
L 358.946199 -51.577734 
L 359.036288 -51.540701 
L 359.131478 -51.503668 
L 359.231569 -51.466636 
L 359.336312 -51.429603 
L 359.445408 -51.39257 
L 359.558513 -51.355537 
L 359.67523 -51.318504 
L 359.795122 -51.281471 
L 359.917704 -51.244438 
L 360.042449 -51.207405 
L 360.168791 -51.170372 
L 360.296125 -51.133339 
L 360.42381 -51.096306 
L 360.551176 -51.059273 
L 360.67752 -51.02224 
L 360.802117 -50.985208 
L 360.924217 -50.948175 
L 361.043053 -50.911142 
L 361.157844 -50.874109 
L 361.267798 -50.837076 
L 361.372117 -50.800043 
L 361.470002 -50.76301 
L 361.560655 -50.725977 
L 361.643288 -50.688944 
L 361.717121 -50.651911 
L 361.781393 -50.614878 
L 361.83536 -50.577845 
L 361.878304 -50.540812 
L 361.909538 -50.503779 
L 361.928403 -50.466747 
L 361.934281 -50.429714 
L 361.926591 -50.392681 
L 361.904798 -50.355648 
L 361.868414 -50.318615 
L 361.816999 -50.281582 
L 361.750168 -50.244549 
L 361.667591 -50.207516 
L 361.568994 -50.170483 
L 361.454163 -50.13345 
L 361.322944 -50.096417 
L 361.175245 -50.059384 
L 361.011035 -50.022351 
L 360.830349 -49.985319 
L 360.633279 -49.948286 
L 360.419985 -49.911253 
L 360.190683 -49.87422 
L 359.945653 -49.837187 
z
" style="stroke: #999999; stroke-width: 2"/>
    </defs>
    <g clip-path="url(#p330a51b6da)">
     <use xlink:href="#md6fdb06b33" x="0" y="255.11811" style="fill: #ffffff; stroke: #999999; stroke-width: 2"/>
    </g>
   </g>
   <g id="PolyCollection_6">
    <defs>
     <path id="mcb75b03f87" d="M 410.953978 -53.701842 
L 395.808654 -53.701842 
L 395.662933 -53.767057 
L 395.524862 -53.832273 
L 395.394505 -53.897488 
L 395.271836 -53.962704 
L 395.156739 -54.027919 
L 395.049004 -54.093135 
L 394.948324 -54.15835 
L 394.854299 -54.223566 
L 394.766433 -54.288782 
L 394.684138 -54.353997 
L 394.606736 -54.419213 
L 394.533461 -54.484428 
L 394.46347 -54.549644 
L 394.395842 -54.614859 
L 394.329591 -54.680075 
L 394.263671 -54.74529 
L 394.196986 -54.810506 
L 394.128401 -54.875722 
L 394.056751 -54.940937 
L 393.980856 -55.006153 
L 393.899528 -55.071368 
L 393.811589 -55.136584 
L 393.715881 -55.201799 
L 393.61128 -55.267015 
L 393.496709 -55.33223 
L 393.371155 -55.397446 
L 393.233674 -55.462662 
L 393.083411 -55.527877 
L 392.919613 -55.593093 
L 392.741631 -55.658308 
L 392.548943 -55.723524 
L 392.341155 -55.788739 
L 392.118012 -55.853955 
L 391.879409 -55.91917 
L 391.625391 -55.984386 
L 391.356162 -56.049602 
L 391.072086 -56.114817 
L 390.773689 -56.180033 
L 390.46166 -56.245248 
L 390.136847 -56.310464 
L 389.800254 -56.375679 
L 389.453038 -56.440895 
L 389.096496 -56.50611 
L 388.732064 -56.571326 
L 388.361301 -56.636542 
L 387.985882 -56.701757 
L 387.607578 -56.766973 
L 387.228252 -56.832188 
L 386.849834 -56.897404 
L 386.474309 -56.962619 
L 386.103703 -57.027835 
L 385.74006 -57.09305 
L 385.385428 -57.158266 
L 385.04184 -57.223482 
L 384.711296 -57.288697 
L 384.395748 -57.353913 
L 384.097079 -57.419128 
L 383.81709 -57.484344 
L 383.557481 -57.549559 
L 383.319843 -57.614775 
L 383.105637 -57.67999 
L 382.916191 -57.745206 
L 382.752681 -57.810422 
L 382.616128 -57.875637 
L 382.50739 -57.940853 
L 382.427157 -58.006068 
L 382.375945 -58.071284 
L 382.3541 -58.136499 
L 382.36179 -58.201715 
L 382.399015 -58.26693 
L 382.465606 -58.332146 
L 382.561231 -58.397362 
L 382.685401 -58.462577 
L 382.837482 -58.527793 
L 383.016697 -58.593008 
L 383.222142 -58.658224 
L 383.452795 -58.723439 
L 383.707529 -58.788655 
L 383.985122 -58.85387 
L 384.284273 -58.919086 
L 384.603613 -58.984302 
L 384.941716 -59.049517 
L 385.297117 -59.114733 
L 385.668321 -59.179948 
L 386.053815 -59.245164 
L 386.452082 -59.310379 
L 386.861608 -59.375595 
L 387.280897 -59.44081 
L 387.708477 -59.506026 
L 388.142909 -59.571242 
L 388.582794 -59.636457 
L 389.026783 -59.701673 
L 389.473576 -59.766888 
L 389.921934 -59.832104 
L 390.370677 -59.897319 
L 390.818688 -59.962535 
L 391.264917 -60.02775 
L 391.708381 -60.092966 
L 392.148163 -60.158182 
L 414.614469 -60.158182 
L 414.614469 -60.158182 
L 415.054251 -60.092966 
L 415.497715 -60.02775 
L 415.943944 -59.962535 
L 416.391955 -59.897319 
L 416.840698 -59.832104 
L 417.289056 -59.766888 
L 417.735849 -59.701673 
L 418.179838 -59.636457 
L 418.619723 -59.571242 
L 419.054155 -59.506026 
L 419.481735 -59.44081 
L 419.901024 -59.375595 
L 420.31055 -59.310379 
L 420.708817 -59.245164 
L 421.094311 -59.179948 
L 421.465515 -59.114733 
L 421.820916 -59.049517 
L 422.159019 -58.984302 
L 422.478359 -58.919086 
L 422.77751 -58.85387 
L 423.055103 -58.788655 
L 423.309837 -58.723439 
L 423.540491 -58.658224 
L 423.745936 -58.593008 
L 423.92515 -58.527793 
L 424.077231 -58.462577 
L 424.201402 -58.397362 
L 424.297026 -58.332146 
L 424.363617 -58.26693 
L 424.400842 -58.201715 
L 424.408533 -58.136499 
L 424.386687 -58.071284 
L 424.335475 -58.006068 
L 424.255242 -57.940853 
L 424.146505 -57.875637 
L 424.009952 -57.810422 
L 423.846441 -57.745206 
L 423.656995 -57.67999 
L 423.44279 -57.614775 
L 423.205151 -57.549559 
L 422.945542 -57.484344 
L 422.665553 -57.419128 
L 422.366884 -57.353913 
L 422.051336 -57.288697 
L 421.720793 -57.223482 
L 421.377205 -57.158266 
L 421.022573 -57.09305 
L 420.658929 -57.027835 
L 420.288323 -56.962619 
L 419.912799 -56.897404 
L 419.53438 -56.832188 
L 419.155054 -56.766973 
L 418.776751 -56.701757 
L 418.401331 -56.636542 
L 418.030568 -56.571326 
L 417.666136 -56.50611 
L 417.309595 -56.440895 
L 416.962378 -56.375679 
L 416.625785 -56.310464 
L 416.300972 -56.245248 
L 415.988943 -56.180033 
L 415.690547 -56.114817 
L 415.40647 -56.049602 
L 415.137241 -55.984386 
L 414.883223 -55.91917 
L 414.64462 -55.853955 
L 414.421477 -55.788739 
L 414.213689 -55.723524 
L 414.021001 -55.658308 
L 413.84302 -55.593093 
L 413.679221 -55.527877 
L 413.528959 -55.462662 
L 413.391478 -55.397446 
L 413.265923 -55.33223 
L 413.151353 -55.267015 
L 413.046752 -55.201799 
L 412.951043 -55.136584 
L 412.863104 -55.071368 
L 412.781776 -55.006153 
L 412.705881 -54.940937 
L 412.634231 -54.875722 
L 412.565646 -54.810506 
L 412.498961 -54.74529 
L 412.433041 -54.680075 
L 412.36679 -54.614859 
L 412.299163 -54.549644 
L 412.229171 -54.484428 
L 412.155897 -54.419213 
L 412.078494 -54.353997 
L 411.996199 -54.288782 
L 411.908333 -54.223566 
L 411.814308 -54.15835 
L 411.713628 -54.093135 
L 411.605893 -54.027919 
L 411.490796 -53.962704 
L 411.368127 -53.897488 
L 411.23777 -53.832273 
L 411.099699 -53.767057 
L 410.953978 -53.701842 
z
" style="stroke: #999999; stroke-width: 2"/>
    </defs>
    <g clip-path="url(#p330a51b6da)">
     <use xlink:href="#mcb75b03f87" x="0" y="255.11811" style="fill: #ffffff; stroke: #999999; stroke-width: 2"/>
    </g>
   </g>
   <g id="PolyCollection_7">
    <defs>
     <path id="md52c5ede47" d="M 471.46085 -56.096243 
L 464.814988 -56.096243 
L 464.726265 -56.332039 
L 464.638518 -56.567834 
L 464.551808 -56.80363 
L 464.466188 -57.039425 
L 464.381707 -57.27522 
L 464.298409 -57.511016 
L 464.216337 -57.746811 
L 464.135532 -57.982606 
L 464.056038 -58.218402 
L 463.977899 -58.454197 
L 463.901166 -58.689992 
L 463.825895 -58.925788 
L 463.752148 -59.161583 
L 463.679998 -59.397378 
L 463.609524 -59.633174 
L 463.54082 -59.868969 
L 463.473986 -60.104764 
L 463.409138 -60.34056 
L 463.3464 -60.576355 
L 463.285911 -60.812151 
L 463.227816 -61.047946 
L 463.172274 -61.283741 
L 463.119451 -61.519537 
L 463.069521 -61.755332 
L 463.022663 -61.991127 
L 462.979061 -62.226923 
L 462.938901 -62.462718 
L 462.902368 -62.698513 
L 462.869646 -62.934309 
L 462.840912 -63.170104 
L 462.816336 -63.405899 
L 462.796081 -63.641695 
L 462.780293 -63.87749 
L 462.769108 -64.113285 
L 462.762643 -64.349081 
L 462.760995 -64.584876 
L 462.764244 -64.820672 
L 462.772444 -65.056467 
L 462.785628 -65.292262 
L 462.803805 -65.528058 
L 462.826955 -65.763853 
L 462.855036 -65.999648 
L 462.887979 -66.235444 
L 462.925689 -66.471239 
L 462.968044 -66.707034 
L 463.014901 -66.94283 
L 463.066091 -67.178625 
L 463.121423 -67.41442 
L 463.180686 -67.650216 
L 463.24365 -67.886011 
L 463.310068 -68.121806 
L 463.379678 -68.357602 
L 463.452206 -68.593397 
L 463.527366 -68.829193 
L 463.604867 -69.064988 
L 463.684411 -69.300783 
L 463.765696 -69.536579 
L 463.848422 -69.772374 
L 463.932288 -70.008169 
L 464.017 -70.243965 
L 464.102268 -70.47976 
L 464.187812 -70.715555 
L 464.273361 -70.951351 
L 464.358658 -71.187146 
L 464.443459 -71.422941 
L 464.527534 -71.658737 
L 464.610672 -71.894532 
L 464.692678 -72.130327 
L 464.773376 -72.366123 
L 464.852611 -72.601918 
L 464.930245 -72.837714 
L 465.006162 -73.073509 
L 465.080268 -73.309304 
L 465.152485 -73.5451 
L 465.22276 -73.780895 
L 465.291056 -74.01669 
L 465.357357 -74.252486 
L 465.421665 -74.488281 
L 465.484 -74.724076 
L 465.544399 -74.959872 
L 465.602913 -75.195667 
L 465.659609 -75.431462 
L 465.714565 -75.667258 
L 465.767872 -75.903053 
L 465.81963 -76.138848 
L 465.869948 -76.374644 
L 465.918941 -76.610439 
L 465.96673 -76.846235 
L 466.013438 -77.08203 
L 466.059192 -77.317825 
L 466.104116 -77.553621 
L 466.148335 -77.789416 
L 466.19197 -78.025211 
L 466.235138 -78.261007 
L 466.277949 -78.496802 
L 466.320509 -78.732597 
L 466.362911 -78.968393 
L 466.405243 -79.204188 
L 466.44758 -79.439983 
L 469.828258 -79.439983 
L 469.828258 -79.439983 
L 469.870595 -79.204188 
L 469.912927 -78.968393 
L 469.955329 -78.732597 
L 469.997889 -78.496802 
L 470.0407 -78.261007 
L 470.083868 -78.025211 
L 470.127503 -77.789416 
L 470.171722 -77.553621 
L 470.216646 -77.317825 
L 470.2624 -77.08203 
L 470.309108 -76.846235 
L 470.356897 -76.610439 
L 470.40589 -76.374644 
L 470.456208 -76.138848 
L 470.507966 -75.903053 
L 470.561273 -75.667258 
L 470.616229 -75.431462 
L 470.672925 -75.195667 
L 470.731439 -74.959872 
L 470.791838 -74.724076 
L 470.854173 -74.488281 
L 470.918481 -74.252486 
L 470.984782 -74.01669 
L 471.053078 -73.780895 
L 471.123353 -73.5451 
L 471.19557 -73.309304 
L 471.269676 -73.073509 
L 471.345593 -72.837714 
L 471.423227 -72.601918 
L 471.502462 -72.366123 
L 471.58316 -72.130327 
L 471.665166 -71.894532 
L 471.748304 -71.658737 
L 471.832379 -71.422941 
L 471.91718 -71.187146 
L 472.002477 -70.951351 
L 472.088026 -70.715555 
L 472.17357 -70.47976 
L 472.258838 -70.243965 
L 472.34355 -70.008169 
L 472.427416 -69.772374 
L 472.510142 -69.536579 
L 472.591427 -69.300783 
L 472.670971 -69.064988 
L 472.748472 -68.829193 
L 472.823632 -68.593397 
L 472.89616 -68.357602 
L 472.96577 -68.121806 
L 473.032188 -67.886011 
L 473.095152 -67.650216 
L 473.154415 -67.41442 
L 473.209747 -67.178625 
L 473.260937 -66.94283 
L 473.307794 -66.707034 
L 473.350149 -66.471239 
L 473.387859 -66.235444 
L 473.420802 -65.999648 
L 473.448883 -65.763853 
L 473.472033 -65.528058 
L 473.49021 -65.292262 
L 473.503394 -65.056467 
L 473.511594 -64.820672 
L 473.514843 -64.584876 
L 473.513195 -64.349081 
L 473.50673 -64.113285 
L 473.495545 -63.87749 
L 473.479757 -63.641695 
L 473.459502 -63.405899 
L 473.434926 -63.170104 
L 473.406192 -62.934309 
L 473.37347 -62.698513 
L 473.336937 -62.462718 
L 473.296777 -62.226923 
L 473.253175 -61.991127 
L 473.206317 -61.755332 
L 473.156387 -61.519537 
L 473.103564 -61.283741 
L 473.048022 -61.047946 
L 472.989927 -60.812151 
L 472.929438 -60.576355 
L 472.8667 -60.34056 
L 472.801852 -60.104764 
L 472.735018 -59.868969 
L 472.666314 -59.633174 
L 472.59584 -59.397378 
L 472.52369 -59.161583 
L 472.449943 -58.925788 
L 472.374672 -58.689992 
L 472.297939 -58.454197 
L 472.2198 -58.218402 
L 472.140306 -57.982606 
L 472.059501 -57.746811 
L 471.977429 -57.511016 
L 471.894131 -57.27522 
L 471.80965 -57.039425 
L 471.72403 -56.80363 
L 471.63732 -56.567834 
L 471.549573 -56.332039 
L 471.46085 -56.096243 
z
" style="stroke: #999999; stroke-width: 2"/>
    </defs>
    <g clip-path="url(#p330a51b6da)">
     <use xlink:href="#md52c5ede47" x="0" y="255.11811" style="fill: #ffffff; stroke: #999999; stroke-width: 2"/>
    </g>
   </g>
   <g id="PathCollection_1"/>
   <g id="PathCollection_2"/>
   <g id="patch_3">
    <path d="M 47.22 213.89811 
L 47.22 24.32 
" style="fill: none; stroke: #262626; stroke-width: 1.25; stroke-linejoin: miter; stroke-linecap: square"/>
   </g>
   <g id="patch_4">
    <path d="M 47.22 213.89811 
L 500.51622 213.89811 
" style="fill: none; stroke: #262626; stroke-width: 1.25; stroke-linejoin: miter; stroke-linecap: square"/>
   </g>
   <g id="PathCollection_3">
    <defs>
     <path id="C0_0_cf3c85dadf" d="M 0 2.5 
C 0.663008 2.5 1.29895 2.236584 1.767767 1.767767 
C 2.236584 1.29895 2.5 0.663008 2.5 -0 
C 2.5 -0.663008 2.236584 -1.29895 1.767767 -1.767767 
C 1.29895 -2.236584 0.663008 -2.5 0 -2.5 
C -0.663008 -2.5 -1.29895 -2.236584 -1.767767 -1.767767 
C -2.236584 -1.29895 -2.5 -0.663008 -2.5 0 
C -2.5 0.663008 -2.236584 1.29895 -1.767767 1.767767 
C -1.29895 2.236584 -0.663008 2.5 0 2.5 
z
"/>
    </defs>
    <g clip-path="url(#p330a51b6da)">
     <use xlink:href="#C0_0_cf3c85dadf" x="83.630114" y="136.237562" style="fill: #4c72b0; fill-opacity: 0.75"/>
    </g>
    <g clip-path="url(#p330a51b6da)">
     <use xlink:href="#C0_0_cf3c85dadf" x="83.310898" y="128.473328" style="fill: #4c72b0; fill-opacity: 0.75"/>
    </g>
    <g clip-path="url(#p330a51b6da)">
     <use xlink:href="#C0_0_cf3c85dadf" x="78.898325" y="144.244451" style="fill: #4c72b0; fill-opacity: 0.75"/>
    </g>
    <g clip-path="url(#p330a51b6da)">
     <use xlink:href="#C0_0_cf3c85dadf" x="82.657698" y="153.403318" style="fill: #4c72b0; fill-opacity: 0.75"/>
    </g>
    <g clip-path="url(#p330a51b6da)">
     <use xlink:href="#C0_0_cf3c85dadf" x="78.657893" y="176.538435" style="fill: #dd8452; fill-opacity: 0.75"/>
    </g>
    <g clip-path="url(#p330a51b6da)">
     <use xlink:href="#C0_0_cf3c85dadf" x="81.269246" y="185.346526" style="fill: #dd8452; fill-opacity: 0.75"/>
    </g>
    <g clip-path="url(#p330a51b6da)">
     <use xlink:href="#C0_0_cf3c85dadf" x="80.843123" y="186.362863" style="fill: #dd8452; fill-opacity: 0.75"/>
    </g>
    <g clip-path="url(#p330a51b6da)">
     <use xlink:href="#C0_0_cf3c85dadf" x="82.143028" y="177.851547" style="fill: #dd8452; fill-opacity: 0.75"/>
    </g>
   </g>
   <g id="PathCollection_4">
    <defs>
     <path id="C1_0_1ecf25d85d" d="M 0 2.5 
C 0.663008 2.5 1.29895 2.236584 1.767767 1.767767 
C 2.236584 1.29895 2.5 0.663008 2.5 -0 
C 2.5 -0.663008 2.236584 -1.29895 1.767767 -1.767767 
C 1.29895 -2.236584 0.663008 -2.5 0 -2.5 
C -0.663008 -2.5 -1.29895 -2.236584 -1.767767 -1.767767 
C -2.236584 -1.29895 -2.5 -0.663008 -2.5 0 
C -2.5 0.663008 -2.236584 1.29895 -1.767767 1.767767 
C -1.29895 2.236584 -0.663008 2.5 0 2.5 
z
"/>
    </defs>
    <g clip-path="url(#p330a51b6da)">
     <use xlink:href="#C1_0_1ecf25d85d" x="140.107167" y="189.642749" style="fill: #4c72b0; fill-opacity: 0.75"/>
    </g>
    <g clip-path="url(#p330a51b6da)">
     <use xlink:href="#C1_0_1ecf25d85d" x="138.96274" y="174.91921" style="fill: #4c72b0; fill-opacity: 0.75"/>
    </g>
    <g clip-path="url(#p330a51b6da)">
     <use xlink:href="#C1_0_1ecf25d85d" x="138.731202" y="190.454481" style="fill: #4c72b0; fill-opacity: 0.75"/>
    </g>
    <g clip-path="url(#p330a51b6da)">
     <use xlink:href="#C1_0_1ecf25d85d" x="140.063372" y="187.393924" style="fill: #4c72b0; fill-opacity: 0.75"/>
    </g>
    <g clip-path="url(#p330a51b6da)">
     <use xlink:href="#C1_0_1ecf25d85d" x="140.946047" y="183.953042" style="fill: #dd8452; fill-opacity: 0.75"/>
    </g>
    <g clip-path="url(#p330a51b6da)">
     <use xlink:href="#C1_0_1ecf25d85d" x="145.23711" y="188.029903" style="fill: #dd8452; fill-opacity: 0.75"/>
    </g>
    <g clip-path="url(#p330a51b6da)">
     <use xlink:href="#C1_0_1ecf25d85d" x="150.46608" y="193.4657" style="fill: #dd8452; fill-opacity: 0.75"/>
    </g>
    <g clip-path="url(#p330a51b6da)">
     <use xlink:href="#C1_0_1ecf25d85d" x="142.299334" y="184.074198" style="fill: #dd8452; fill-opacity: 0.75"/>
    </g>
   </g>
   <g id="PathCollection_5">
    <defs>
     <path id="C2_0_4df787251e" d="M 0 2.5 
C 0.663008 2.5 1.29895 2.236584 1.767767 1.767767 
C 2.236584 1.29895 2.5 0.663008 2.5 -0 
C 2.5 -0.663008 2.236584 -1.29895 1.767767 -1.767767 
C 1.29895 -2.236584 0.663008 -2.5 0 -2.5 
C -0.663008 -2.5 -1.29895 -2.236584 -1.767767 -1.767767 
C -2.236584 -1.29895 -2.5 -0.663008 -2.5 0 
C -2.5 0.663008 -2.236584 1.29895 -1.767767 1.767767 
C -1.29895 2.236584 -0.663008 2.5 0 2.5 
z
"/>
    </defs>
    <g clip-path="url(#p330a51b6da)">
     <use xlink:href="#C2_0_4df787251e" x="207.040345" y="202.520751" style="fill: #4c72b0; fill-opacity: 0.75"/>
    </g>
    <g clip-path="url(#p330a51b6da)">
     <use xlink:href="#C2_0_4df787251e" x="207.815364" y="200.376587" style="fill: #4c72b0; fill-opacity: 0.75"/>
    </g>
    <g clip-path="url(#p330a51b6da)">
     <use xlink:href="#C2_0_4df787251e" x="206.649245" y="201.983428" style="fill: #4c72b0; fill-opacity: 0.75"/>
    </g>
    <g clip-path="url(#p330a51b6da)">
     <use xlink:href="#C2_0_4df787251e" x="213.506124" y="197.957309" style="fill: #4c72b0; fill-opacity: 0.75"/>
    </g>
    <g clip-path="url(#p330a51b6da)">
     <use xlink:href="#C2_0_4df787251e" x="211.753546" y="203.377867" style="fill: #dd8452; fill-opacity: 0.75"/>
    </g>
    <g clip-path="url(#p330a51b6da)">
     <use xlink:href="#C2_0_4df787251e" x="206.364886" y="200.724731" style="fill: #dd8452; fill-opacity: 0.75"/>
    </g>
    <g clip-path="url(#p330a51b6da)">
     <use xlink:href="#C2_0_4df787251e" x="212.013195" y="200.530378" style="fill: #dd8452; fill-opacity: 0.75"/>
    </g>
    <g clip-path="url(#p330a51b6da)">
     <use xlink:href="#C2_0_4df787251e" x="204.1333" y="200.652779" style="fill: #dd8452; fill-opacity: 0.75"/>
    </g>
   </g>
   <g id="PathCollection_6">
    <defs>
     <path id="C3_0_b385ff4da0" d="M 0 2.5 
C 0.663008 2.5 1.29895 2.236584 1.767767 1.767767 
C 2.236584 1.29895 2.5 0.663008 2.5 -0 
C 2.5 -0.663008 2.236584 -1.29895 1.767767 -1.767767 
C 1.29895 -2.236584 0.663008 -2.5 0 -2.5 
C -0.663008 -2.5 -1.29895 -2.236584 -1.767767 -1.767767 
C -2.236584 -1.29895 -2.5 -0.663008 -2.5 0 
C -2.5 0.663008 -2.236584 1.29895 -1.767767 1.767767 
C -1.29895 2.236584 -0.663008 2.5 0 2.5 
z
"/>
    </defs>
    <g clip-path="url(#p330a51b6da)">
     <use xlink:href="#C3_0_b385ff4da0" x="268.12355" y="171.236409" style="fill: #4c72b0; fill-opacity: 0.75"/>
    </g>
    <g clip-path="url(#p330a51b6da)">
     <use xlink:href="#C3_0_b385ff4da0" x="277.299397" y="172.67865" style="fill: #4c72b0; fill-opacity: 0.75"/>
    </g>
    <g clip-path="url(#p330a51b6da)">
     <use xlink:href="#C3_0_b385ff4da0" x="279.142907" y="168.255404" style="fill: #4c72b0; fill-opacity: 0.75"/>
    </g>
    <g clip-path="url(#p330a51b6da)">
     <use xlink:href="#C3_0_b385ff4da0" x="271.538505" y="148.835102" style="fill: #4c72b0; fill-opacity: 0.75"/>
    </g>
    <g clip-path="url(#p330a51b6da)">
     <use xlink:href="#C3_0_b385ff4da0" x="275.857035" y="171.289864" style="fill: #4c72b0; fill-opacity: 0.75"/>
    </g>
    <g clip-path="url(#p330a51b6da)">
     <use xlink:href="#C3_0_b385ff4da0" x="268.005846" y="94.378675" style="fill: #dd8452; fill-opacity: 0.75"/>
    </g>
    <g clip-path="url(#p330a51b6da)">
     <use xlink:href="#C3_0_b385ff4da0" x="273.444765" y="101.050161" style="fill: #dd8452; fill-opacity: 0.75"/>
    </g>
    <g clip-path="url(#p330a51b6da)">
     <use xlink:href="#C3_0_b385ff4da0" x="268.737208" y="90.159106" style="fill: #dd8452; fill-opacity: 0.75"/>
    </g>
    <g clip-path="url(#p330a51b6da)">
     <use xlink:href="#C3_0_b385ff4da0" x="277.361181" y="99.444047" style="fill: #dd8452; fill-opacity: 0.75"/>
    </g>
    <g clip-path="url(#p330a51b6da)">
     <use xlink:href="#C3_0_b385ff4da0" x="274.014202" y="32.937187" style="fill: #dd8452; fill-opacity: 0.75"/>
    </g>
   </g>
   <g id="PathCollection_7">
    <defs>
     <path id="C4_0_011c367466" d="M 0 2.5 
C 0.663008 2.5 1.29895 2.236584 1.767767 1.767767 
C 2.236584 1.29895 2.5 0.663008 2.5 -0 
C 2.5 -0.663008 2.236584 -1.29895 1.767767 -1.767767 
C 1.29895 -2.236584 0.663008 -2.5 0 -2.5 
C -0.663008 -2.5 -1.29895 -2.236584 -1.767767 -1.767767 
C -2.236584 -1.29895 -2.5 -0.663008 -2.5 0 
C -2.5 0.663008 -2.236584 1.29895 -1.767767 1.767767 
C -1.29895 2.236584 -0.663008 2.5 0 2.5 
z
"/>
    </defs>
    <g clip-path="url(#p330a51b6da)">
     <use xlink:href="#C4_0_011c367466" x="335.651602" y="202.116466" style="fill: #4c72b0; fill-opacity: 0.75"/>
    </g>
    <g clip-path="url(#p330a51b6da)">
     <use xlink:href="#C4_0_011c367466" x="344.462213" y="201.614664" style="fill: #4c72b0; fill-opacity: 0.75"/>
    </g>
    <g clip-path="url(#p330a51b6da)">
     <use xlink:href="#C4_0_011c367466" x="339.122171" y="203.216966" style="fill: #4c72b0; fill-opacity: 0.75"/>
    </g>
    <g clip-path="url(#p330a51b6da)">
     <use xlink:href="#C4_0_011c367466" x="342.541752" y="205.280923" style="fill: #dd8452; fill-opacity: 0.75"/>
    </g>
    <g clip-path="url(#p330a51b6da)">
     <use xlink:href="#C4_0_011c367466" x="339.629861" y="204.636603" style="fill: #dd8452; fill-opacity: 0.75"/>
    </g>
    <g clip-path="url(#p330a51b6da)">
     <use xlink:href="#C4_0_011c367466" x="341.082613" y="205.072622" style="fill: #dd8452; fill-opacity: 0.75"/>
    </g>
   </g>
   <g id="PathCollection_8">
    <defs>
     <path id="C5_0_56c4fbe3c5" d="M 0 2.5 
C 0.663008 2.5 1.29895 2.236584 1.767767 1.767767 
C 2.236584 1.29895 2.5 0.663008 2.5 -0 
C 2.5 -0.663008 2.236584 -1.29895 1.767767 -1.767767 
C 1.29895 -2.236584 0.663008 -2.5 0 -2.5 
C -0.663008 -2.5 -1.29895 -2.236584 -1.767767 -1.767767 
C -2.236584 -1.29895 -2.5 -0.663008 -2.5 0 
C -2.5 0.663008 -2.236584 1.29895 -1.767767 1.767767 
C -1.29895 2.236584 -0.663008 2.5 0 2.5 
z
"/>
    </defs>
    <g clip-path="url(#p330a51b6da)">
     <use xlink:href="#C5_0_56c4fbe3c5" x="400.006194" y="201.416269" style="fill: #4c72b0; fill-opacity: 0.75"/>
    </g>
    <g clip-path="url(#p330a51b6da)">
     <use xlink:href="#C5_0_56c4fbe3c5" x="402.634268" y="197.050925" style="fill: #4c72b0; fill-opacity: 0.75"/>
    </g>
    <g clip-path="url(#p330a51b6da)">
     <use xlink:href="#C5_0_56c4fbe3c5" x="401.258317" y="200.345764" style="fill: #4c72b0; fill-opacity: 0.75"/>
    </g>
    <g clip-path="url(#p330a51b6da)">
     <use xlink:href="#C5_0_56c4fbe3c5" x="400.177281" y="197.944136" style="fill: #4c72b0; fill-opacity: 0.75"/>
    </g>
    <g clip-path="url(#p330a51b6da)">
     <use xlink:href="#C5_0_56c4fbe3c5" x="404.99537" y="196.872332" style="fill: #dd8452; fill-opacity: 0.75"/>
    </g>
    <g clip-path="url(#p330a51b6da)">
     <use xlink:href="#C5_0_56c4fbe3c5" x="401.917075" y="197.32588" style="fill: #dd8452; fill-opacity: 0.75"/>
    </g>
    <g clip-path="url(#p330a51b6da)">
     <use xlink:href="#C5_0_56c4fbe3c5" x="406.447833" y="194.959929" style="fill: #dd8452; fill-opacity: 0.75"/>
    </g>
    <g clip-path="url(#p330a51b6da)">
     <use xlink:href="#C5_0_56c4fbe3c5" x="398.384634" y="196.293489" style="fill: #dd8452; fill-opacity: 0.75"/>
    </g>
   </g>
   <g id="PathCollection_9">
    <defs>
     <path id="C6_0_b4f2e14f1a" d="M 0 2.5 
C 0.663008 2.5 1.29895 2.236584 1.767767 1.767767 
C 2.236584 1.29895 2.5 0.663008 2.5 -0 
C 2.5 -0.663008 2.236584 -1.29895 1.767767 -1.767767 
C 1.29895 -2.236584 0.663008 -2.5 0 -2.5 
C -0.663008 -2.5 -1.29895 -2.236584 -1.767767 -1.767767 
C -2.236584 -1.29895 -2.5 -0.663008 -2.5 0 
C -2.5 0.663008 -2.236584 1.29895 -1.767767 1.767767 
C -1.29895 2.236584 -0.663008 2.5 0 2.5 
z
"/>
    </defs>
    <g clip-path="url(#p330a51b6da)">
     <use xlink:href="#C6_0_b4f2e14f1a" x="465.983936" y="182.925474" style="fill: #4c72b0; fill-opacity: 0.75"/>
    </g>
    <g clip-path="url(#p330a51b6da)">
     <use xlink:href="#C6_0_b4f2e14f1a" x="463.562751" y="187.342788" style="fill: #4c72b0; fill-opacity: 0.75"/>
    </g>
    <g clip-path="url(#p330a51b6da)">
     <use xlink:href="#C6_0_b4f2e14f1a" x="461.784791" y="175.678127" style="fill: #4c72b0; fill-opacity: 0.75"/>
    </g>
    <g clip-path="url(#p330a51b6da)">
     <use xlink:href="#C6_0_b4f2e14f1a" x="474.019748" y="198.062563" style="fill: #4c72b0; fill-opacity: 0.75"/>
    </g>
    <g clip-path="url(#p330a51b6da)">
     <use xlink:href="#C6_0_b4f2e14f1a" x="467.641902" y="190.885426" style="fill: #dd8452; fill-opacity: 0.75"/>
    </g>
    <g clip-path="url(#p330a51b6da)">
     <use xlink:href="#C6_0_b4f2e14f1a" x="470.699616" y="189.549106" style="fill: #dd8452; fill-opacity: 0.75"/>
    </g>
    <g clip-path="url(#p330a51b6da)">
     <use xlink:href="#C6_0_b4f2e14f1a" x="461.961472" y="191.988675" style="fill: #dd8452; fill-opacity: 0.75"/>
    </g>
    <g clip-path="url(#p330a51b6da)">
     <use xlink:href="#C6_0_b4f2e14f1a" x="462.255494" y="199.021867" style="fill: #dd8452; fill-opacity: 0.75"/>
    </g>
   </g>
   <g id="text_18">
    <!-- CDKN1A, $p_{adj}$ &lt; .001 *** -->
    <g style="fill: #262626" transform="translate(47.22 18.32)scale(0.09 -0.09)">
     <defs>
      <path id="ArialMT-43" d="M 3763 1606 
L 4369 1453 
Q 4178 706 3683 314 
Q 3188 -78 2472 -78 
Q 1731 -78 1267 223 
Q 803 525 561 1097 
Q 319 1669 319 2325 
Q 319 3041 592 3573 
Q 866 4106 1370 4382 
Q 1875 4659 2481 4659 
Q 3169 4659 3637 4309 
Q 4106 3959 4291 3325 
L 3694 3184 
Q 3534 3684 3231 3912 
Q 2928 4141 2469 4141 
Q 1941 4141 1586 3887 
Q 1231 3634 1087 3207 
Q 944 2781 944 2328 
Q 944 1744 1114 1308 
Q 1284 872 1643 656 
Q 2003 441 2422 441 
Q 2931 441 3284 734 
Q 3638 1028 3763 1606 
z
" transform="scale(0.015625)"/>
      <path id="ArialMT-44" d="M 494 0 
L 494 4581 
L 2072 4581 
Q 2606 4581 2888 4516 
Q 3281 4425 3559 4188 
Q 3922 3881 4101 3404 
Q 4281 2928 4281 2316 
Q 4281 1794 4159 1391 
Q 4038 988 3847 723 
Q 3656 459 3429 307 
Q 3203 156 2883 78 
Q 2563 0 2147 0 
L 494 0 
z
M 1100 541 
L 2078 541 
Q 2531 541 2789 625 
Q 3047 709 3200 863 
Q 3416 1078 3536 1442 
Q 3656 1806 3656 2325 
Q 3656 3044 3420 3430 
Q 3184 3816 2847 3947 
Q 2603 4041 2063 4041 
L 1100 4041 
L 1100 541 
z
" transform="scale(0.015625)"/>
      <path id="ArialMT-4b" d="M 469 0 
L 469 4581 
L 1075 4581 
L 1075 2309 
L 3350 4581 
L 4172 4581 
L 2250 2725 
L 4256 0 
L 3456 0 
L 1825 2319 
L 1075 1588 
L 1075 0 
L 469 0 
z
" transform="scale(0.015625)"/>
      <path id="ArialMT-4e" d="M 488 0 
L 488 4581 
L 1109 4581 
L 3516 984 
L 3516 4581 
L 4097 4581 
L 4097 0 
L 3475 0 
L 1069 3600 
L 1069 0 
L 488 0 
z
" transform="scale(0.015625)"/>
      <path id="ArialMT-41" d="M -9 0 
L 1750 4581 
L 2403 4581 
L 4278 0 
L 3588 0 
L 3053 1388 
L 1138 1388 
L 634 0 
L -9 0 
z
M 1313 1881 
L 2866 1881 
L 2388 3150 
Q 2169 3728 2063 4100 
Q 1975 3659 1816 3225 
L 1313 1881 
z
" transform="scale(0.015625)"/>
      <path id="ArialMT-2c" d="M 569 0 
L 569 641 
L 1209 641 
L 1209 0 
Q 1209 -353 1084 -570 
Q 959 -788 688 -906 
L 531 -666 
Q 709 -588 793 -436 
Q 878 -284 888 0 
L 569 0 
z
" transform="scale(0.015625)"/>
      <path id="DejaVuSans-Oblique-70" d="M 3175 2156 
Q 3175 2616 2975 2859 
Q 2775 3103 2400 3103 
Q 2144 3103 1911 2972 
Q 1678 2841 1497 2591 
Q 1319 2344 1212 1994 
Q 1106 1644 1106 1300 
Q 1106 863 1306 627 
Q 1506 391 1875 391 
Q 2147 391 2380 519 
Q 2613 647 2778 891 
Q 2956 1147 3065 1494 
Q 3175 1841 3175 2156 
z
M 1394 2969 
Q 1625 3272 1939 3428 
Q 2253 3584 2638 3584 
Q 3175 3584 3472 3232 
Q 3769 2881 3769 2247 
Q 3769 1728 3584 1258 
Q 3400 788 3053 416 
Q 2822 169 2531 39 
Q 2241 -91 1919 -91 
Q 1547 -91 1294 64 
Q 1041 219 916 525 
L 556 -1331 
L -19 -1331 
L 922 3500 
L 1497 3500 
L 1394 2969 
z
" transform="scale(0.015625)"/>
      <path id="DejaVuSans-Oblique-61" d="M 3438 1997 
L 3047 0 
L 2472 0 
L 2578 531 
Q 2325 219 2001 64 
Q 1678 -91 1281 -91 
Q 834 -91 548 182 
Q 263 456 263 884 
Q 263 1497 752 1853 
Q 1241 2209 2100 2209 
L 2900 2209 
L 2931 2363 
Q 2938 2388 2941 2417 
Q 2944 2447 2944 2509 
Q 2944 2788 2717 2942 
Q 2491 3097 2081 3097 
Q 1800 3097 1504 3025 
Q 1209 2953 897 2809 
L 997 3341 
Q 1322 3463 1633 3523 
Q 1944 3584 2234 3584 
Q 2853 3584 3176 3315 
Q 3500 3047 3500 2534 
Q 3500 2431 3484 2292 
Q 3469 2153 3438 1997 
z
M 2816 1759 
L 2241 1759 
Q 1534 1759 1195 1570 
Q 856 1381 856 984 
Q 856 709 1029 553 
Q 1203 397 1509 397 
Q 1978 397 2328 733 
Q 2678 1069 2791 1631 
L 2816 1759 
z
" transform="scale(0.015625)"/>
      <path id="DejaVuSans-Oblique-64" d="M 2675 525 
Q 2444 222 2128 65 
Q 1813 -91 1428 -91 
Q 903 -91 598 267 
Q 294 625 294 1247 
Q 294 1766 478 2236 
Q 663 2706 1013 3078 
Q 1244 3325 1534 3454 
Q 1825 3584 2144 3584 
Q 2481 3584 2739 3421 
Q 2997 3259 3138 2956 
L 3513 4863 
L 4091 4863 
L 3144 0 
L 2566 0 
L 2675 525 
z
M 891 1350 
Q 891 897 1095 644 
Q 1300 391 1663 391 
Q 1931 391 2161 520 
Q 2391 650 2566 903 
Q 2750 1166 2856 1509 
Q 2963 1853 2963 2188 
Q 2963 2622 2758 2865 
Q 2553 3109 2194 3109 
Q 1922 3109 1687 2981 
Q 1453 2853 1288 2613 
Q 1106 2353 998 2009 
Q 891 1666 891 1350 
z
" transform="scale(0.015625)"/>
      <path id="DejaVuSans-Oblique-6a" d="M 928 3500 
L 1503 3500 
L 813 -63 
L 809 -78 
Q 694 -675 544 -897 
Q 403 -1106 132 -1218 
Q -138 -1331 -506 -1331 
L -722 -1331 
L -628 -844 
L -481 -844 
Q -144 -844 -1 -703 
Q 141 -563 238 -63 
L 928 3500 
z
M 1197 4863 
L 1772 4863 
L 1631 4134 
L 1056 4134 
L 1197 4863 
z
" transform="scale(0.015625)"/>
      <path id="ArialMT-3c" d="M 350 2003 
L 350 2528 
L 3384 3809 
L 3384 3250 
L 978 2263 
L 3384 1266 
L 3384 706 
L 350 2003 
z
" transform="scale(0.015625)"/>
      <path id="ArialMT-2e" d="M 581 0 
L 581 641 
L 1222 641 
L 1222 0 
L 581 0 
z
" transform="scale(0.015625)"/>
      <path id="ArialMT-2a" d="M 200 3741 
L 344 4184 
Q 841 4009 1066 3881 
Q 1006 4447 1003 4659 
L 1456 4659 
Q 1447 4350 1384 3884 
Q 1706 4047 2122 4184 
L 2266 3741 
Q 1869 3609 1488 3566 
Q 1678 3400 2025 2975 
L 1650 2709 
Q 1469 2956 1222 3381 
Q 991 2941 816 2709 
L 447 2975 
Q 809 3422 966 3566 
Q 563 3644 200 3741 
z
" transform="scale(0.015625)"/>
     </defs>
     <use xlink:href="#ArialMT-43" transform="translate(0 0.203125)"/>
     <use xlink:href="#ArialMT-44" transform="translate(72.216797 0.203125)"/>
     <use xlink:href="#ArialMT-4b" transform="translate(144.433594 0.203125)"/>
     <use xlink:href="#ArialMT-4e" transform="translate(211.132812 0.203125)"/>
     <use xlink:href="#ArialMT-31" transform="translate(283.349609 0.203125)"/>
     <use xlink:href="#ArialMT-41" transform="translate(338.964844 0.203125)"/>
     <use xlink:href="#ArialMT-2c" transform="translate(405.664062 0.203125)"/>
     <use xlink:href="#ArialMT-20" transform="translate(433.447266 0.203125)"/>
     <use xlink:href="#DejaVuSans-Oblique-70" transform="translate(461.230469 0.203125)"/>
     <use xlink:href="#DejaVuSans-Oblique-61" transform="translate(524.707031 -16.203125)scale(0.7)"/>
     <use xlink:href="#DejaVuSans-Oblique-64" transform="translate(567.602539 -16.203125)scale(0.7)"/>
     <use xlink:href="#DejaVuSans-Oblique-6a" transform="translate(612.036133 -16.203125)scale(0.7)"/>
     <use xlink:href="#ArialMT-20" transform="translate(634.21875 0.203125)"/>
     <use xlink:href="#ArialMT-3c" transform="translate(662.001953 0.203125)"/>
     <use xlink:href="#ArialMT-20" transform="translate(720.400391 0.203125)"/>
     <use xlink:href="#ArialMT-2e" transform="translate(748.183594 0.203125)"/>
     <use xlink:href="#ArialMT-30" transform="translate(775.966797 0.203125)"/>
     <use xlink:href="#ArialMT-30" transform="translate(831.582031 0.203125)"/>
     <use xlink:href="#ArialMT-31" transform="translate(887.197266 0.203125)"/>
     <use xlink:href="#ArialMT-20" transform="translate(942.8125 0.203125)"/>
     <use xlink:href="#ArialMT-2a" transform="translate(970.595703 0.203125)"/>
     <use xlink:href="#ArialMT-2a" transform="translate(1009.511719 0.203125)"/>
     <use xlink:href="#ArialMT-2a" transform="translate(1048.427734 0.203125)"/>
    </g>
   </g>
   <g id="legend_1">
    <g id="patch_5">
     <path d="M 441.91497 69.712344 
L 494.21622 69.712344 
Q 496.01622 69.712344 496.01622 67.912344 
L 496.01622 30.62 
Q 496.01622 28.82 494.21622 28.82 
L 441.91497 28.82 
Q 440.11497 28.82 440.11497 30.62 
L 440.11497 67.912344 
Q 440.11497 69.712344 441.91497 69.712344 
z
" style="fill: #ffffff; opacity: 0.8; stroke: #cccccc; stroke-linejoin: miter"/>
    </g>
    <g id="text_19">
     <!-- Treatment -->
     <g style="fill: #262626" transform="translate(447.729111 38.862031)scale(0.09 -0.09)">
      <use xlink:href="#ArialMT-54"/>
      <use xlink:href="#ArialMT-72" x="57.333984"/>
      <use xlink:href="#ArialMT-65" x="90.634766"/>
      <use xlink:href="#ArialMT-61" x="146.25"/>
      <use xlink:href="#ArialMT-74" x="201.865234"/>
      <use xlink:href="#ArialMT-6d" x="229.648438"/>
      <use xlink:href="#ArialMT-65" x="312.949219"/>
      <use xlink:href="#ArialMT-6e" x="368.564453"/>
      <use xlink:href="#ArialMT-74" x="424.179688"/>
     </g>
    </g>
    <g id="PathCollection_10">
     <defs>
      <path id="m9437433876" d="M 0 3.872983 
C 1.027127 3.872983 2.012324 3.464901 2.738613 2.738613 
C 3.464901 2.012324 3.872983 1.027127 3.872983 0 
C 3.872983 -1.027127 3.464901 -2.012324 2.738613 -2.738613 
C 2.012324 -3.464901 1.027127 -3.872983 0 -3.872983 
C -1.027127 -3.872983 -2.012324 -3.464901 -2.738613 -2.738613 
C -3.464901 -2.012324 -3.872983 -1.027127 -3.872983 0 
C -3.872983 1.027127 -3.464901 2.012324 -2.738613 2.738613 
C -2.012324 3.464901 -1.027127 3.872983 0 3.872983 
z
" style="stroke: #4c72b0"/>
     </defs>
     <g>
      <use xlink:href="#m9437433876" x="452.71497" y="49.230313" style="fill: #4c72b0; stroke: #4c72b0"/>
     </g>
    </g>
    <g id="text_20">
     <!-- BEVA -->
     <g style="fill: #262626" transform="translate(468.91497 51.592813)scale(0.09 -0.09)">
      <defs>
       <path id="ArialMT-42" d="M 469 0 
L 469 4581 
L 2188 4581 
Q 2713 4581 3030 4442 
Q 3347 4303 3526 4014 
Q 3706 3725 3706 3409 
Q 3706 3116 3547 2856 
Q 3388 2597 3066 2438 
Q 3481 2316 3704 2022 
Q 3928 1728 3928 1328 
Q 3928 1006 3792 729 
Q 3656 453 3456 303 
Q 3256 153 2954 76 
Q 2653 0 2216 0 
L 469 0 
z
M 1075 2656 
L 2066 2656 
Q 2469 2656 2644 2709 
Q 2875 2778 2992 2937 
Q 3109 3097 3109 3338 
Q 3109 3566 3000 3739 
Q 2891 3913 2687 3977 
Q 2484 4041 1991 4041 
L 1075 4041 
L 1075 2656 
z
M 1075 541 
L 2216 541 
Q 2509 541 2628 563 
Q 2838 600 2978 687 
Q 3119 775 3209 942 
Q 3300 1109 3300 1328 
Q 3300 1584 3169 1773 
Q 3038 1963 2805 2039 
Q 2572 2116 2134 2116 
L 1075 2116 
L 1075 541 
z
" transform="scale(0.015625)"/>
       <path id="ArialMT-45" d="M 506 0 
L 506 4581 
L 3819 4581 
L 3819 4041 
L 1113 4041 
L 1113 2638 
L 3647 2638 
L 3647 2100 
L 1113 2100 
L 1113 541 
L 3925 541 
L 3925 0 
L 506 0 
z
" transform="scale(0.015625)"/>
       <path id="ArialMT-56" d="M 1803 0 
L 28 4581 
L 684 4581 
L 1875 1253 
Q 2019 853 2116 503 
Q 2222 878 2363 1253 
L 3600 4581 
L 4219 4581 
L 2425 0 
L 1803 0 
z
" transform="scale(0.015625)"/>
      </defs>
      <use xlink:href="#ArialMT-42"/>
      <use xlink:href="#ArialMT-45" x="66.699219"/>
      <use xlink:href="#ArialMT-56" x="133.398438"/>
      <use xlink:href="#ArialMT-41" x="192.722656"/>
     </g>
    </g>
    <g id="PathCollection_11">
     <defs>
      <path id="m0a22158c71" d="M 0 3.872983 
C 1.027127 3.872983 2.012324 3.464901 2.738613 2.738613 
C 3.464901 2.012324 3.872983 1.027127 3.872983 0 
C 3.872983 -1.027127 3.464901 -2.012324 2.738613 -2.738613 
C 2.012324 -3.464901 1.027127 -3.872983 0 -3.872983 
C -1.027127 -3.872983 -2.012324 -3.464901 -2.738613 -2.738613 
C -3.464901 -2.012324 -3.872983 -1.027127 -3.872983 0 
C -3.872983 1.027127 -3.464901 2.012324 -2.738613 2.738613 
C -2.012324 3.464901 -1.027127 3.872983 0 3.872983 
z
" style="stroke: #dd8452"/>
     </defs>
     <g>
      <use xlink:href="#m0a22158c71" x="452.71497" y="61.961094" style="fill: #dd8452; stroke: #dd8452"/>
     </g>
    </g>
    <g id="text_21">
     <!-- CTRL -->
     <g style="fill: #262626" transform="translate(468.91497 64.323594)scale(0.09 -0.09)">
      <defs>
       <path id="ArialMT-52" d="M 503 0 
L 503 4581 
L 2534 4581 
Q 3147 4581 3465 4457 
Q 3784 4334 3975 4021 
Q 4166 3709 4166 3331 
Q 4166 2844 3850 2509 
Q 3534 2175 2875 2084 
Q 3116 1969 3241 1856 
Q 3506 1613 3744 1247 
L 4541 0 
L 3778 0 
L 3172 953 
Q 2906 1366 2734 1584 
Q 2563 1803 2427 1890 
Q 2291 1978 2150 2013 
Q 2047 2034 1813 2034 
L 1109 2034 
L 1109 0 
L 503 0 
z
M 1109 2559 
L 2413 2559 
Q 2828 2559 3062 2645 
Q 3297 2731 3419 2920 
Q 3541 3109 3541 3331 
Q 3541 3656 3305 3865 
Q 3069 4075 2559 4075 
L 1109 4075 
L 1109 2559 
z
" transform="scale(0.015625)"/>
       <path id="ArialMT-4c" d="M 469 0 
L 469 4581 
L 1075 4581 
L 1075 541 
L 3331 541 
L 3331 0 
L 469 0 
z
" transform="scale(0.015625)"/>
      </defs>
      <use xlink:href="#ArialMT-43"/>
      <use xlink:href="#ArialMT-54" x="72.216797"/>
      <use xlink:href="#ArialMT-52" x="133.300781"/>
      <use xlink:href="#ArialMT-4c" x="205.517578"/>
     </g>
    </g>
   </g>
  </g>
 </g>
 <defs>
  <clipPath id="p330a51b6da">
   <rect x="47.22" y="24.32" width="453.29622" height="189.57811"/>
  </clipPath>
 </defs>
</svg>
