<?xml version="1.0" encoding="utf-8" standalone="no"?>
<!DOCTYPE svg PUBLIC "-//W3C//DTD SVG 1.1//EN"
  "http://www.w3.org/Graphics/SVG/1.1/DTD/svg11.dtd">
<svg xmlns:xlink="http://www.w3.org/1999/xlink" width="510.23622pt" height="255.11811pt" viewBox="0 0 510.23622 255.11811" xmlns="http://www.w3.org/2000/svg" version="1.1">
 <metadata>
  <rdf:RDF xmlns:dc="http://purl.org/dc/elements/1.1/" xmlns:cc="http://creativecommons.org/ns#" xmlns:rdf="http://www.w3.org/1999/02/22-rdf-syntax-ns#">
   <cc:Work>
    <dc:type rdf:resource="http://purl.org/dc/dcmitype/StillImage"/>
    <dc:date>2022-04-27T00:12:20.774789</dc:date>
    <dc:format>image/svg+xml</dc:format>
    <dc:creator>
     <cc:Agent>
      <dc:title>Matplotlib v3.5.1, https://matplotlib.org/</dc:title>
     </cc:Agent>
    </dc:creator>
   </cc:Work>
  </rdf:RDF>
 </metadata>
 <defs>
  <style type="text/css">*{stroke-linejoin: round; stroke-linecap: butt}</style>
 </defs>
 <g id="figure_1">
  <g id="patch_1">
   <path d="M 0 255.11811 
L 510.23622 255.11811 
L 510.23622 0 
L 0 0 
z
" style="fill: #ffffff"/>
  </g>
  <g id="axes_1">
   <g id="patch_2">
    <path d="M 47.22 213.89811 
L 500.51622 213.89811 
L 500.51622 24.32 
L 47.22 24.32 
z
" style="fill: #ffffff"/>
   </g>
   <g id="matplotlib.axis_1">
    <g id="xtick_1">
     <g id="text_1">
      <!-- 49 -->
      <g style="fill: #444444" transform="translate(74.593458 229.840141)scale(0.09 -0.09)">
       <defs>
        <path id="ArialMT-34" d="M 2069 0 
L 2069 1097 
L 81 1097 
L 81 1613 
L 2172 4581 
L 2631 4581 
L 2631 1613 
L 3250 1613 
L 3250 1097 
L 2631 1097 
L 2631 0 
L 2069 0 
z
M 2069 1613 
L 2069 3678 
L 634 1613 
L 2069 1613 
z
" transform="scale(0.015625)"/>
        <path id="ArialMT-39" d="M 350 1059 
L 891 1109 
Q 959 728 1153 556 
Q 1347 384 1650 384 
Q 1909 384 2104 503 
Q 2300 622 2425 820 
Q 2550 1019 2634 1356 
Q 2719 1694 2719 2044 
Q 2719 2081 2716 2156 
Q 2547 1888 2255 1720 
Q 1963 1553 1622 1553 
Q 1053 1553 659 1965 
Q 266 2378 266 3053 
Q 266 3750 677 4175 
Q 1088 4600 1706 4600 
Q 2153 4600 2523 4359 
Q 2894 4119 3086 3673 
Q 3278 3228 3278 2384 
Q 3278 1506 3087 986 
Q 2897 466 2520 194 
Q 2144 -78 1638 -78 
Q 1100 -78 759 220 
Q 419 519 350 1059 
z
M 2653 3081 
Q 2653 3566 2395 3850 
Q 2138 4134 1775 4134 
Q 1400 4134 1122 3828 
Q 844 3522 844 3034 
Q 844 2597 1108 2323 
Q 1372 2050 1759 2050 
Q 2150 2050 2401 2323 
Q 2653 2597 2653 3081 
z
" transform="scale(0.015625)"/>
       </defs>
       <use xlink:href="#ArialMT-34"/>
       <use xlink:href="#ArialMT-39" x="55.615234"/>
      </g>
     </g>
    </g>
    <g id="xtick_2">
     <g id="text_2">
      <!-- 17 -->
      <g style="fill: #444444" transform="translate(139.350061 229.840141)scale(0.09 -0.09)">
       <defs>
        <path id="ArialMT-31" d="M 2384 0 
L 1822 0 
L 1822 3584 
Q 1619 3391 1289 3197 
Q 959 3003 697 2906 
L 697 3450 
Q 1169 3672 1522 3987 
Q 1875 4303 2022 4600 
L 2384 4600 
L 2384 0 
z
" transform="scale(0.015625)"/>
        <path id="ArialMT-37" d="M 303 3981 
L 303 4522 
L 3269 4522 
L 3269 4084 
Q 2831 3619 2401 2847 
Q 1972 2075 1738 1259 
Q 1569 684 1522 0 
L 944 0 
Q 953 541 1156 1306 
Q 1359 2072 1739 2783 
Q 2119 3494 2547 3981 
L 303 3981 
z
" transform="scale(0.015625)"/>
       </defs>
       <use xlink:href="#ArialMT-31"/>
       <use xlink:href="#ArialMT-37" x="55.615234"/>
      </g>
     </g>
    </g>
    <g id="xtick_3">
     <g id="text_3">
      <!-- 69 -->
      <g style="fill: #444444" transform="translate(204.106664 229.840141)scale(0.09 -0.09)">
       <defs>
        <path id="ArialMT-36" d="M 3184 3459 
L 2625 3416 
Q 2550 3747 2413 3897 
Q 2184 4138 1850 4138 
Q 1581 4138 1378 3988 
Q 1113 3794 959 3422 
Q 806 3050 800 2363 
Q 1003 2672 1297 2822 
Q 1591 2972 1913 2972 
Q 2475 2972 2870 2558 
Q 3266 2144 3266 1488 
Q 3266 1056 3080 686 
Q 2894 316 2569 119 
Q 2244 -78 1831 -78 
Q 1128 -78 684 439 
Q 241 956 241 2144 
Q 241 3472 731 4075 
Q 1159 4600 1884 4600 
Q 2425 4600 2770 4297 
Q 3116 3994 3184 3459 
z
M 888 1484 
Q 888 1194 1011 928 
Q 1134 663 1356 523 
Q 1578 384 1822 384 
Q 2178 384 2434 671 
Q 2691 959 2691 1453 
Q 2691 1928 2437 2201 
Q 2184 2475 1800 2475 
Q 1419 2475 1153 2201 
Q 888 1928 888 1484 
z
" transform="scale(0.015625)"/>
       </defs>
       <use xlink:href="#ArialMT-36"/>
       <use xlink:href="#ArialMT-39" x="55.615234"/>
      </g>
     </g>
    </g>
    <g id="xtick_4">
     <g id="text_4">
      <!-- 15 -->
      <g style="fill: #444444" transform="translate(268.863266 229.840141)scale(0.09 -0.09)">
       <defs>
        <path id="ArialMT-35" d="M 266 1200 
L 856 1250 
Q 922 819 1161 601 
Q 1400 384 1738 384 
Q 2144 384 2425 690 
Q 2706 997 2706 1503 
Q 2706 1984 2436 2262 
Q 2166 2541 1728 2541 
Q 1456 2541 1237 2417 
Q 1019 2294 894 2097 
L 366 2166 
L 809 4519 
L 3088 4519 
L 3088 3981 
L 1259 3981 
L 1013 2750 
Q 1425 3038 1878 3038 
Q 2478 3038 2890 2622 
Q 3303 2206 3303 1553 
Q 3303 931 2941 478 
Q 2500 -78 1738 -78 
Q 1113 -78 717 272 
Q 322 622 266 1200 
z
" transform="scale(0.015625)"/>
       </defs>
       <use xlink:href="#ArialMT-31"/>
       <use xlink:href="#ArialMT-35" x="55.615234"/>
      </g>
     </g>
    </g>
    <g id="xtick_5">
     <g id="text_5">
      <!-- 5 -->
      <g style="fill: #444444" transform="translate(336.122291 229.840141)scale(0.09 -0.09)">
       <use xlink:href="#ArialMT-35"/>
      </g>
     </g>
    </g>
    <g id="xtick_6">
     <g id="text_6">
      <!-- 126 -->
      <g style="fill: #444444" transform="translate(395.87405 229.840141)scale(0.09 -0.09)">
       <defs>
        <path id="ArialMT-32" d="M 3222 541 
L 3222 0 
L 194 0 
Q 188 203 259 391 
Q 375 700 629 1000 
Q 884 1300 1366 1694 
Q 2113 2306 2375 2664 
Q 2638 3022 2638 3341 
Q 2638 3675 2398 3904 
Q 2159 4134 1775 4134 
Q 1369 4134 1125 3890 
Q 881 3647 878 3216 
L 300 3275 
Q 359 3922 746 4261 
Q 1134 4600 1788 4600 
Q 2447 4600 2831 4234 
Q 3216 3869 3216 3328 
Q 3216 3053 3103 2787 
Q 2991 2522 2730 2228 
Q 2469 1934 1863 1422 
Q 1356 997 1212 845 
Q 1069 694 975 541 
L 3222 541 
z
" transform="scale(0.015625)"/>
       </defs>
       <use xlink:href="#ArialMT-31"/>
       <use xlink:href="#ArialMT-32" x="55.615234"/>
       <use xlink:href="#ArialMT-36" x="111.230469"/>
      </g>
     </g>
    </g>
    <g id="xtick_7">
     <g id="text_7">
      <!-- 62 -->
      <g style="fill: #444444" transform="translate(463.133075 229.840141)scale(0.09 -0.09)">
       <use xlink:href="#ArialMT-36"/>
       <use xlink:href="#ArialMT-32" x="55.615234"/>
      </g>
     </g>
    </g>
    <g id="text_8">
     <!-- Patient -->
     <g style="fill: #444444" transform="translate(259.859048 242.070923)scale(0.09 -0.09)">
      <defs>
       <path id="ArialMT-50" d="M 494 0 
L 494 4581 
L 2222 4581 
Q 2678 4581 2919 4538 
Q 3256 4481 3484 4323 
Q 3713 4166 3852 3881 
Q 3991 3597 3991 3256 
Q 3991 2672 3619 2267 
Q 3247 1863 2275 1863 
L 1100 1863 
L 1100 0 
L 494 0 
z
M 1100 2403 
L 2284 2403 
Q 2872 2403 3119 2622 
Q 3366 2841 3366 3238 
Q 3366 3525 3220 3729 
Q 3075 3934 2838 4000 
Q 2684 4041 2272 4041 
L 1100 4041 
L 1100 2403 
z
" transform="scale(0.015625)"/>
       <path id="ArialMT-61" d="M 2588 409 
Q 2275 144 1986 34 
Q 1697 -75 1366 -75 
Q 819 -75 525 192 
Q 231 459 231 875 
Q 231 1119 342 1320 
Q 453 1522 633 1644 
Q 813 1766 1038 1828 
Q 1203 1872 1538 1913 
Q 2219 1994 2541 2106 
Q 2544 2222 2544 2253 
Q 2544 2597 2384 2738 
Q 2169 2928 1744 2928 
Q 1347 2928 1158 2789 
Q 969 2650 878 2297 
L 328 2372 
Q 403 2725 575 2942 
Q 747 3159 1072 3276 
Q 1397 3394 1825 3394 
Q 2250 3394 2515 3294 
Q 2781 3194 2906 3042 
Q 3031 2891 3081 2659 
Q 3109 2516 3109 2141 
L 3109 1391 
Q 3109 606 3145 398 
Q 3181 191 3288 0 
L 2700 0 
Q 2613 175 2588 409 
z
M 2541 1666 
Q 2234 1541 1622 1453 
Q 1275 1403 1131 1340 
Q 988 1278 909 1158 
Q 831 1038 831 891 
Q 831 666 1001 516 
Q 1172 366 1500 366 
Q 1825 366 2078 508 
Q 2331 650 2450 897 
Q 2541 1088 2541 1459 
L 2541 1666 
z
" transform="scale(0.015625)"/>
       <path id="ArialMT-74" d="M 1650 503 
L 1731 6 
Q 1494 -44 1306 -44 
Q 1000 -44 831 53 
Q 663 150 594 308 
Q 525 466 525 972 
L 525 2881 
L 113 2881 
L 113 3319 
L 525 3319 
L 525 4141 
L 1084 4478 
L 1084 3319 
L 1650 3319 
L 1650 2881 
L 1084 2881 
L 1084 941 
Q 1084 700 1114 631 
Q 1144 563 1211 522 
Q 1278 481 1403 481 
Q 1497 481 1650 503 
z
" transform="scale(0.015625)"/>
       <path id="ArialMT-69" d="M 425 3934 
L 425 4581 
L 988 4581 
L 988 3934 
L 425 3934 
z
M 425 0 
L 425 3319 
L 988 3319 
L 988 0 
L 425 0 
z
" transform="scale(0.015625)"/>
       <path id="ArialMT-65" d="M 2694 1069 
L 3275 997 
Q 3138 488 2766 206 
Q 2394 -75 1816 -75 
Q 1088 -75 661 373 
Q 234 822 234 1631 
Q 234 2469 665 2931 
Q 1097 3394 1784 3394 
Q 2450 3394 2872 2941 
Q 3294 2488 3294 1666 
Q 3294 1616 3291 1516 
L 816 1516 
Q 847 969 1125 678 
Q 1403 388 1819 388 
Q 2128 388 2347 550 
Q 2566 713 2694 1069 
z
M 847 1978 
L 2700 1978 
Q 2663 2397 2488 2606 
Q 2219 2931 1791 2931 
Q 1403 2931 1139 2672 
Q 875 2413 847 1978 
z
" transform="scale(0.015625)"/>
       <path id="ArialMT-6e" d="M 422 0 
L 422 3319 
L 928 3319 
L 928 2847 
Q 1294 3394 1984 3394 
Q 2284 3394 2536 3286 
Q 2788 3178 2913 3003 
Q 3038 2828 3088 2588 
Q 3119 2431 3119 2041 
L 3119 0 
L 2556 0 
L 2556 2019 
Q 2556 2363 2490 2533 
Q 2425 2703 2258 2804 
Q 2091 2906 1866 2906 
Q 1506 2906 1245 2678 
Q 984 2450 984 1813 
L 984 0 
L 422 0 
z
" transform="scale(0.015625)"/>
      </defs>
      <use xlink:href="#ArialMT-50"/>
      <use xlink:href="#ArialMT-61" x="66.699219"/>
      <use xlink:href="#ArialMT-74" x="122.314453"/>
      <use xlink:href="#ArialMT-69" x="150.097656"/>
      <use xlink:href="#ArialMT-65" x="172.314453"/>
      <use xlink:href="#ArialMT-6e" x="227.929688"/>
      <use xlink:href="#ArialMT-74" x="283.544922"/>
     </g>
    </g>
   </g>
   <g id="matplotlib.axis_2">
    <g id="ytick_1">
     <g id="text_9">
      <!-- 50 -->
      <g style="fill: #444444" transform="translate(27.710313 212.00867)scale(0.09 -0.09)">
       <defs>
        <path id="ArialMT-30" d="M 266 2259 
Q 266 3072 433 3567 
Q 600 4063 929 4331 
Q 1259 4600 1759 4600 
Q 2128 4600 2406 4451 
Q 2684 4303 2865 4023 
Q 3047 3744 3150 3342 
Q 3253 2941 3253 2259 
Q 3253 1453 3087 958 
Q 2922 463 2592 192 
Q 2263 -78 1759 -78 
Q 1097 -78 719 397 
Q 266 969 266 2259 
z
M 844 2259 
Q 844 1131 1108 757 
Q 1372 384 1759 384 
Q 2147 384 2411 759 
Q 2675 1134 2675 2259 
Q 2675 3391 2411 3762 
Q 2147 4134 1753 4134 
Q 1366 4134 1134 3806 
Q 844 3388 844 2259 
z
" transform="scale(0.015625)"/>
       </defs>
       <use xlink:href="#ArialMT-35"/>
       <use xlink:href="#ArialMT-30" x="55.615234"/>
      </g>
     </g>
    </g>
    <g id="ytick_2">
     <g id="text_10">
      <!-- 100 -->
      <g style="fill: #444444" transform="translate(22.705469 185.701392)scale(0.09 -0.09)">
       <use xlink:href="#ArialMT-31"/>
       <use xlink:href="#ArialMT-30" x="55.615234"/>
       <use xlink:href="#ArialMT-30" x="111.230469"/>
      </g>
     </g>
    </g>
    <g id="ytick_3">
     <g id="text_11">
      <!-- 150 -->
      <g style="fill: #444444" transform="translate(22.705469 159.394114)scale(0.09 -0.09)">
       <use xlink:href="#ArialMT-31"/>
       <use xlink:href="#ArialMT-35" x="55.615234"/>
       <use xlink:href="#ArialMT-30" x="111.230469"/>
      </g>
     </g>
    </g>
    <g id="ytick_4">
     <g id="text_12">
      <!-- 200 -->
      <g style="fill: #444444" transform="translate(22.705469 133.086835)scale(0.09 -0.09)">
       <use xlink:href="#ArialMT-32"/>
       <use xlink:href="#ArialMT-30" x="55.615234"/>
       <use xlink:href="#ArialMT-30" x="111.230469"/>
      </g>
     </g>
    </g>
    <g id="ytick_5">
     <g id="text_13">
      <!-- 250 -->
      <g style="fill: #444444" transform="translate(22.705469 106.779557)scale(0.09 -0.09)">
       <use xlink:href="#ArialMT-32"/>
       <use xlink:href="#ArialMT-35" x="55.615234"/>
       <use xlink:href="#ArialMT-30" x="111.230469"/>
      </g>
     </g>
    </g>
    <g id="ytick_6">
     <g id="text_14">
      <!-- 300 -->
      <g style="fill: #444444" transform="translate(22.705469 80.472279)scale(0.09 -0.09)">
       <defs>
        <path id="ArialMT-33" d="M 269 1209 
L 831 1284 
Q 928 806 1161 595 
Q 1394 384 1728 384 
Q 2125 384 2398 659 
Q 2672 934 2672 1341 
Q 2672 1728 2419 1979 
Q 2166 2231 1775 2231 
Q 1616 2231 1378 2169 
L 1441 2663 
Q 1497 2656 1531 2656 
Q 1891 2656 2178 2843 
Q 2466 3031 2466 3422 
Q 2466 3731 2256 3934 
Q 2047 4138 1716 4138 
Q 1388 4138 1169 3931 
Q 950 3725 888 3313 
L 325 3413 
Q 428 3978 793 4289 
Q 1159 4600 1703 4600 
Q 2078 4600 2393 4439 
Q 2709 4278 2876 4000 
Q 3044 3722 3044 3409 
Q 3044 3113 2884 2869 
Q 2725 2625 2413 2481 
Q 2819 2388 3044 2092 
Q 3269 1797 3269 1353 
Q 3269 753 2831 336 
Q 2394 -81 1725 -81 
Q 1122 -81 723 278 
Q 325 638 269 1209 
z
" transform="scale(0.015625)"/>
       </defs>
       <use xlink:href="#ArialMT-33"/>
       <use xlink:href="#ArialMT-30" x="55.615234"/>
       <use xlink:href="#ArialMT-30" x="111.230469"/>
      </g>
     </g>
    </g>
    <g id="ytick_7">
     <g id="text_15">
      <!-- 350 -->
      <g style="fill: #444444" transform="translate(22.705469 54.165)scale(0.09 -0.09)">
       <use xlink:href="#ArialMT-33"/>
       <use xlink:href="#ArialMT-35" x="55.615234"/>
       <use xlink:href="#ArialMT-30" x="111.230469"/>
      </g>
     </g>
    </g>
    <g id="ytick_8">
     <g id="text_16">
      <!-- 400 -->
      <g style="fill: #444444" transform="translate(22.705469 27.857722)scale(0.09 -0.09)">
       <use xlink:href="#ArialMT-34"/>
       <use xlink:href="#ArialMT-30" x="55.615234"/>
       <use xlink:href="#ArialMT-30" x="111.230469"/>
      </g>
     </g>
    </g>
    <g id="text_17">
     <!-- Trimmed Means of M values (TMM) -->
     <g style="fill: #444444" transform="translate(16.81125 190.194993)rotate(-90)scale(0.09 -0.09)">
      <defs>
       <path id="ArialMT-54" d="M 1659 0 
L 1659 4041 
L 150 4041 
L 150 4581 
L 3781 4581 
L 3781 4041 
L 2266 4041 
L 2266 0 
L 1659 0 
z
" transform="scale(0.015625)"/>
       <path id="ArialMT-72" d="M 416 0 
L 416 3319 
L 922 3319 
L 922 2816 
Q 1116 3169 1280 3281 
Q 1444 3394 1641 3394 
Q 1925 3394 2219 3213 
L 2025 2691 
Q 1819 2813 1613 2813 
Q 1428 2813 1281 2702 
Q 1134 2591 1072 2394 
Q 978 2094 978 1738 
L 978 0 
L 416 0 
z
" transform="scale(0.015625)"/>
       <path id="ArialMT-6d" d="M 422 0 
L 422 3319 
L 925 3319 
L 925 2853 
Q 1081 3097 1340 3245 
Q 1600 3394 1931 3394 
Q 2300 3394 2536 3241 
Q 2772 3088 2869 2813 
Q 3263 3394 3894 3394 
Q 4388 3394 4653 3120 
Q 4919 2847 4919 2278 
L 4919 0 
L 4359 0 
L 4359 2091 
Q 4359 2428 4304 2576 
Q 4250 2725 4106 2815 
Q 3963 2906 3769 2906 
Q 3419 2906 3187 2673 
Q 2956 2441 2956 1928 
L 2956 0 
L 2394 0 
L 2394 2156 
Q 2394 2531 2256 2718 
Q 2119 2906 1806 2906 
Q 1569 2906 1367 2781 
Q 1166 2656 1075 2415 
Q 984 2175 984 1722 
L 984 0 
L 422 0 
z
" transform="scale(0.015625)"/>
       <path id="ArialMT-64" d="M 2575 0 
L 2575 419 
Q 2259 -75 1647 -75 
Q 1250 -75 917 144 
Q 584 363 401 755 
Q 219 1147 219 1656 
Q 219 2153 384 2558 
Q 550 2963 881 3178 
Q 1213 3394 1622 3394 
Q 1922 3394 2156 3267 
Q 2391 3141 2538 2938 
L 2538 4581 
L 3097 4581 
L 3097 0 
L 2575 0 
z
M 797 1656 
Q 797 1019 1065 703 
Q 1334 388 1700 388 
Q 2069 388 2326 689 
Q 2584 991 2584 1609 
Q 2584 2291 2321 2609 
Q 2059 2928 1675 2928 
Q 1300 2928 1048 2622 
Q 797 2316 797 1656 
z
" transform="scale(0.015625)"/>
       <path id="ArialMT-20" transform="scale(0.015625)"/>
       <path id="ArialMT-4d" d="M 475 0 
L 475 4581 
L 1388 4581 
L 2472 1338 
Q 2622 884 2691 659 
Q 2769 909 2934 1394 
L 4031 4581 
L 4847 4581 
L 4847 0 
L 4263 0 
L 4263 3834 
L 2931 0 
L 2384 0 
L 1059 3900 
L 1059 0 
L 475 0 
z
" transform="scale(0.015625)"/>
       <path id="ArialMT-73" d="M 197 991 
L 753 1078 
Q 800 744 1014 566 
Q 1228 388 1613 388 
Q 2000 388 2187 545 
Q 2375 703 2375 916 
Q 2375 1106 2209 1216 
Q 2094 1291 1634 1406 
Q 1016 1563 777 1677 
Q 538 1791 414 1992 
Q 291 2194 291 2438 
Q 291 2659 392 2848 
Q 494 3038 669 3163 
Q 800 3259 1026 3326 
Q 1253 3394 1513 3394 
Q 1903 3394 2198 3281 
Q 2494 3169 2634 2976 
Q 2775 2784 2828 2463 
L 2278 2388 
Q 2241 2644 2061 2787 
Q 1881 2931 1553 2931 
Q 1166 2931 1000 2803 
Q 834 2675 834 2503 
Q 834 2394 903 2306 
Q 972 2216 1119 2156 
Q 1203 2125 1616 2013 
Q 2213 1853 2448 1751 
Q 2684 1650 2818 1456 
Q 2953 1263 2953 975 
Q 2953 694 2789 445 
Q 2625 197 2315 61 
Q 2006 -75 1616 -75 
Q 969 -75 630 194 
Q 291 463 197 991 
z
" transform="scale(0.015625)"/>
       <path id="ArialMT-6f" d="M 213 1659 
Q 213 2581 725 3025 
Q 1153 3394 1769 3394 
Q 2453 3394 2887 2945 
Q 3322 2497 3322 1706 
Q 3322 1066 3130 698 
Q 2938 331 2570 128 
Q 2203 -75 1769 -75 
Q 1072 -75 642 372 
Q 213 819 213 1659 
z
M 791 1659 
Q 791 1022 1069 705 
Q 1347 388 1769 388 
Q 2188 388 2466 706 
Q 2744 1025 2744 1678 
Q 2744 2294 2464 2611 
Q 2184 2928 1769 2928 
Q 1347 2928 1069 2612 
Q 791 2297 791 1659 
z
" transform="scale(0.015625)"/>
       <path id="ArialMT-66" d="M 556 0 
L 556 2881 
L 59 2881 
L 59 3319 
L 556 3319 
L 556 3672 
Q 556 4006 616 4169 
Q 697 4388 901 4523 
Q 1106 4659 1475 4659 
Q 1713 4659 2000 4603 
L 1916 4113 
Q 1741 4144 1584 4144 
Q 1328 4144 1222 4034 
Q 1116 3925 1116 3625 
L 1116 3319 
L 1763 3319 
L 1763 2881 
L 1116 2881 
L 1116 0 
L 556 0 
z
" transform="scale(0.015625)"/>
       <path id="ArialMT-76" d="M 1344 0 
L 81 3319 
L 675 3319 
L 1388 1331 
Q 1503 1009 1600 663 
Q 1675 925 1809 1294 
L 2547 3319 
L 3125 3319 
L 1869 0 
L 1344 0 
z
" transform="scale(0.015625)"/>
       <path id="ArialMT-6c" d="M 409 0 
L 409 4581 
L 972 4581 
L 972 0 
L 409 0 
z
" transform="scale(0.015625)"/>
       <path id="ArialMT-75" d="M 2597 0 
L 2597 488 
Q 2209 -75 1544 -75 
Q 1250 -75 995 37 
Q 741 150 617 320 
Q 494 491 444 738 
Q 409 903 409 1263 
L 409 3319 
L 972 3319 
L 972 1478 
Q 972 1038 1006 884 
Q 1059 663 1231 536 
Q 1403 409 1656 409 
Q 1909 409 2131 539 
Q 2353 669 2445 892 
Q 2538 1116 2538 1541 
L 2538 3319 
L 3100 3319 
L 3100 0 
L 2597 0 
z
" transform="scale(0.015625)"/>
       <path id="ArialMT-28" d="M 1497 -1347 
Q 1031 -759 709 28 
Q 388 816 388 1659 
Q 388 2403 628 3084 
Q 909 3875 1497 4659 
L 1900 4659 
Q 1522 4009 1400 3731 
Q 1209 3300 1100 2831 
Q 966 2247 966 1656 
Q 966 153 1900 -1347 
L 1497 -1347 
z
" transform="scale(0.015625)"/>
       <path id="ArialMT-29" d="M 791 -1347 
L 388 -1347 
Q 1322 153 1322 1656 
Q 1322 2244 1188 2822 
Q 1081 3291 891 3722 
Q 769 4003 388 4659 
L 791 4659 
Q 1378 3875 1659 3084 
Q 1900 2403 1900 1659 
Q 1900 816 1576 28 
Q 1253 -759 791 -1347 
z
" transform="scale(0.015625)"/>
      </defs>
      <use xlink:href="#ArialMT-54"/>
      <use xlink:href="#ArialMT-72" x="57.333984"/>
      <use xlink:href="#ArialMT-69" x="90.634766"/>
      <use xlink:href="#ArialMT-6d" x="112.851562"/>
      <use xlink:href="#ArialMT-6d" x="196.152344"/>
      <use xlink:href="#ArialMT-65" x="279.453125"/>
      <use xlink:href="#ArialMT-64" x="335.068359"/>
      <use xlink:href="#ArialMT-20" x="390.683594"/>
      <use xlink:href="#ArialMT-4d" x="418.466797"/>
      <use xlink:href="#ArialMT-65" x="501.767578"/>
      <use xlink:href="#ArialMT-61" x="557.382812"/>
      <use xlink:href="#ArialMT-6e" x="612.998047"/>
      <use xlink:href="#ArialMT-73" x="668.613281"/>
      <use xlink:href="#ArialMT-20" x="718.613281"/>
      <use xlink:href="#ArialMT-6f" x="746.396484"/>
      <use xlink:href="#ArialMT-66" x="802.011719"/>
      <use xlink:href="#ArialMT-20" x="829.794922"/>
      <use xlink:href="#ArialMT-4d" x="857.578125"/>
      <use xlink:href="#ArialMT-20" x="940.878906"/>
      <use xlink:href="#ArialMT-76" x="968.662109"/>
      <use xlink:href="#ArialMT-61" x="1018.662109"/>
      <use xlink:href="#ArialMT-6c" x="1074.277344"/>
      <use xlink:href="#ArialMT-75" x="1096.494141"/>
      <use xlink:href="#ArialMT-65" x="1152.109375"/>
      <use xlink:href="#ArialMT-73" x="1207.724609"/>
      <use xlink:href="#ArialMT-20" x="1257.724609"/>
      <use xlink:href="#ArialMT-28" x="1285.507812"/>
      <use xlink:href="#ArialMT-54" x="1318.808594"/>
      <use xlink:href="#ArialMT-4d" x="1379.892578"/>
      <use xlink:href="#ArialMT-4d" x="1463.193359"/>
      <use xlink:href="#ArialMT-29" x="1546.494141"/>
     </g>
    </g>
   </g>
   <g id="PolyCollection_1">
    <defs>
     <path id="mfd3c80e887" d="M 83.808891 -49.837187 
L 75.387712 -49.837187 
L 75.289673 -50.155634 
L 75.192505 -50.474081 
L 75.095783 -50.792528 
L 74.999023 -51.110975 
L 74.901686 -51.429422 
L 74.803184 -51.747869 
L 74.702887 -52.066316 
L 74.600128 -52.384763 
L 74.494209 -52.70321 
L 74.384414 -53.021657 
L 74.27001 -53.340104 
L 74.150263 -53.658552 
L 74.024441 -53.976999 
L 73.891827 -54.295446 
L 73.751725 -54.613893 
L 73.603472 -54.93234 
L 73.446444 -55.250787 
L 73.280066 -55.569234 
L 73.103823 -55.887681 
L 72.917263 -56.206128 
L 72.720008 -56.524575 
L 72.511763 -56.843022 
L 72.292317 -57.161469 
L 72.061555 -57.479916 
L 71.81946 -57.798363 
L 71.56612 -58.11681 
L 71.301732 -58.435257 
L 71.026603 -58.753704 
L 70.741155 -59.072151 
L 70.445928 -59.390599 
L 70.141577 -59.709046 
L 69.828876 -60.027493 
L 69.508713 -60.34594 
L 69.182091 -60.664387 
L 68.850123 -60.982834 
L 68.514028 -61.301281 
L 68.175126 -61.619728 
L 67.834828 -61.938175 
L 67.494632 -62.256622 
L 67.156111 -62.575069 
L 66.820901 -62.893516 
L 66.490692 -63.211963 
L 66.167215 -63.53041 
L 65.852226 -63.848857 
L 65.547489 -64.167304 
L 65.254767 -64.485751 
L 64.975799 -64.804199 
L 64.712288 -65.122646 
L 64.465879 -65.441093 
L 64.238148 -65.75954 
L 64.030581 -66.077987 
L 63.844557 -66.396434 
L 63.681337 -66.714881 
L 63.542045 -67.033328 
L 63.427658 -67.351775 
L 63.338991 -67.670222 
L 63.276689 -67.988669 
L 63.241219 -68.307116 
L 63.232862 -68.625563 
L 63.251712 -68.94401 
L 63.29767 -69.262457 
L 63.370448 -69.580904 
L 63.469573 -69.899351 
L 63.594388 -70.217799 
L 63.744063 -70.536246 
L 63.917607 -70.854693 
L 64.113875 -71.17314 
L 64.331584 -71.491587 
L 64.569332 -71.810034 
L 64.82561 -72.128481 
L 65.098823 -72.446928 
L 65.387308 -72.765375 
L 65.689354 -73.083822 
L 66.003223 -73.402269 
L 66.327166 -73.720716 
L 66.659446 -74.039163 
L 66.998355 -74.35761 
L 67.34223 -74.676057 
L 67.689471 -74.994504 
L 68.038557 -75.312951 
L 68.388055 -75.631398 
L 68.736633 -75.949846 
L 69.08307 -76.268293 
L 69.426262 -76.58674 
L 69.765227 -76.905187 
L 70.099105 -77.223634 
L 70.427165 -77.542081 
L 70.748797 -77.860528 
L 71.06351 -78.178975 
L 71.370933 -78.497422 
L 71.670799 -78.815869 
L 71.962943 -79.134316 
L 72.247295 -79.452763 
L 72.523862 -79.77121 
L 72.792726 -80.089657 
L 73.054028 -80.408104 
L 73.30796 -80.726551 
L 73.55475 -81.044998 
L 73.794655 -81.363446 
L 85.401947 -81.363446 
L 85.401947 -81.363446 
L 85.641853 -81.044998 
L 85.888643 -80.726551 
L 86.142575 -80.408104 
L 86.403877 -80.089657 
L 86.672741 -79.77121 
L 86.949308 -79.452763 
L 87.23366 -79.134316 
L 87.525804 -78.815869 
L 87.82567 -78.497422 
L 88.133093 -78.178975 
L 88.447806 -77.860528 
L 88.769438 -77.542081 
L 89.097498 -77.223634 
L 89.431376 -76.905187 
L 89.770341 -76.58674 
L 90.113533 -76.268293 
L 90.45997 -75.949846 
L 90.808548 -75.631398 
L 91.158046 -75.312951 
L 91.507132 -74.994504 
L 91.854373 -74.676057 
L 92.198248 -74.35761 
L 92.537157 -74.039163 
L 92.869437 -73.720716 
L 93.19338 -73.402269 
L 93.507249 -73.083822 
L 93.809295 -72.765375 
L 94.09778 -72.446928 
L 94.370993 -72.128481 
L 94.627271 -71.810034 
L 94.865019 -71.491587 
L 95.082728 -71.17314 
L 95.278996 -70.854693 
L 95.45254 -70.536246 
L 95.602215 -70.217799 
L 95.72703 -69.899351 
L 95.826155 -69.580904 
L 95.898933 -69.262457 
L 95.944891 -68.94401 
L 95.963741 -68.625563 
L 95.955384 -68.307116 
L 95.919914 -67.988669 
L 95.857612 -67.670222 
L 95.768945 -67.351775 
L 95.654558 -67.033328 
L 95.515266 -66.714881 
L 95.352046 -66.396434 
L 95.166022 -66.077987 
L 94.958454 -65.75954 
L 94.730724 -65.441093 
L 94.484315 -65.122646 
L 94.220804 -64.804199 
L 93.941836 -64.485751 
L 93.649114 -64.167304 
L 93.344377 -63.848857 
L 93.029387 -63.53041 
L 92.705911 -63.211963 
L 92.375702 -62.893516 
L 92.040492 -62.575069 
L 91.701971 -62.256622 
L 91.361775 -61.938175 
L 91.021477 -61.619728 
L 90.682575 -61.301281 
L 90.34648 -60.982834 
L 90.014512 -60.664387 
L 89.68789 -60.34594 
L 89.367727 -60.027493 
L 89.055026 -59.709046 
L 88.750675 -59.390599 
L 88.455448 -59.072151 
L 88.17 -58.753704 
L 87.894871 -58.435257 
L 87.630482 -58.11681 
L 87.377143 -57.798363 
L 87.135048 -57.479916 
L 86.904286 -57.161469 
L 86.68484 -56.843022 
L 86.476595 -56.524575 
L 86.27934 -56.206128 
L 86.09278 -55.887681 
L 85.916537 -55.569234 
L 85.750159 -55.250787 
L 85.593131 -54.93234 
L 85.444878 -54.613893 
L 85.304776 -54.295446 
L 85.172162 -53.976999 
L 85.04634 -53.658552 
L 84.926593 -53.340104 
L 84.812189 -53.021657 
L 84.702394 -52.70321 
L 84.596475 -52.384763 
L 84.493716 -52.066316 
L 84.393419 -51.747869 
L 84.294917 -51.429422 
L 84.19758 -51.110975 
L 84.10082 -50.792528 
L 84.004098 -50.474081 
L 83.90693 -50.155634 
L 83.808891 -49.837187 
z
" style="stroke: #999999; stroke-width: 2"/>
    </defs>
    <g clip-path="url(#pb27d969abd)">
     <use xlink:href="#mfd3c80e887" x="0" y="255.11811" style="fill: #ffffff; stroke: #999999; stroke-width: 2"/>
    </g>
   </g>
   <g id="PolyCollection_2">
    <defs>
     <path id="md462225bc8" d="M 156.075915 -60.314983 
L 132.633894 -60.314983 
L 132.359585 -60.567328 
L 132.094834 -60.819673 
L 131.840029 -61.072019 
L 131.595479 -61.324364 
L 131.361411 -61.576709 
L 131.137975 -61.829055 
L 130.925241 -62.0814 
L 130.723206 -62.333745 
L 130.531796 -62.586091 
L 130.350873 -62.838436 
L 130.180237 -63.090781 
L 130.019637 -63.343127 
L 129.868778 -63.595472 
L 129.727328 -63.847817 
L 129.594925 -64.100163 
L 129.471191 -64.352508 
L 129.355739 -64.604853 
L 129.24818 -64.857199 
L 129.148135 -65.109544 
L 129.055242 -65.36189 
L 128.969167 -65.614235 
L 128.889609 -65.86658 
L 128.816305 -66.118926 
L 128.749042 -66.371271 
L 128.687657 -66.623616 
L 128.632042 -66.875962 
L 128.582149 -67.128307 
L 128.537988 -67.380652 
L 128.499629 -67.632998 
L 128.467202 -67.885343 
L 128.440892 -68.137688 
L 128.420937 -68.390034 
L 128.407627 -68.642379 
L 128.401292 -68.894724 
L 128.402299 -69.14707 
L 128.411045 -69.399415 
L 128.427947 -69.65176 
L 128.453437 -69.904106 
L 128.487948 -70.156451 
L 128.531909 -70.408797 
L 128.585733 -70.661142 
L 128.649809 -70.913487 
L 128.724493 -71.165833 
L 128.8101 -71.418178 
L 128.906894 -71.670523 
L 129.015081 -71.922869 
L 129.134805 -72.175214 
L 129.26614 -72.427559 
L 129.409085 -72.679905 
L 129.563562 -72.93225 
L 129.729412 -73.184595 
L 129.906395 -73.436941 
L 130.09419 -73.689286 
L 130.292393 -73.941631 
L 130.500525 -74.193977 
L 130.718029 -74.446322 
L 130.944279 -74.698668 
L 131.178585 -74.951013 
L 131.420197 -75.203358 
L 131.668313 -75.455704 
L 131.922089 -75.708049 
L 132.180646 -75.960394 
L 132.443079 -76.21274 
L 132.708464 -76.465085 
L 132.975874 -76.71743 
L 133.24438 -76.969776 
L 133.513067 -77.222121 
L 133.781043 -77.474466 
L 134.047441 -77.726812 
L 134.311436 -77.979157 
L 134.572249 -78.231502 
L 134.829152 -78.483848 
L 135.08148 -78.736193 
L 135.32863 -78.988538 
L 135.570072 -79.240884 
L 135.805346 -79.493229 
L 136.034072 -79.745575 
L 136.255946 -79.99792 
L 136.470743 -80.250265 
L 136.678315 -80.502611 
L 136.878591 -80.754956 
L 137.071578 -81.007301 
L 137.257349 -81.259647 
L 137.436049 -81.511992 
L 137.607882 -81.764337 
L 137.77311 -82.016683 
L 137.932049 -82.269028 
L 138.085055 -82.521373 
L 138.232526 -82.773719 
L 138.374887 -83.026064 
L 138.512589 -83.278409 
L 138.646099 -83.530755 
L 138.77589 -83.7831 
L 138.902441 -84.035445 
L 139.026222 -84.287791 
L 139.147695 -84.540136 
L 139.267301 -84.792482 
L 139.385461 -85.044827 
L 139.502566 -85.297172 
L 149.207243 -85.297172 
L 149.207243 -85.297172 
L 149.324348 -85.044827 
L 149.442507 -84.792482 
L 149.562114 -84.540136 
L 149.683586 -84.287791 
L 149.807368 -84.035445 
L 149.933919 -83.7831 
L 150.06371 -83.530755 
L 150.19722 -83.278409 
L 150.334922 -83.026064 
L 150.477283 -82.773719 
L 150.624754 -82.521373 
L 150.77776 -82.269028 
L 150.936698 -82.016683 
L 151.101927 -81.764337 
L 151.27376 -81.511992 
L 151.452459 -81.259647 
L 151.638231 -81.007301 
L 151.831217 -80.754956 
L 152.031494 -80.502611 
L 152.239066 -80.250265 
L 152.453862 -79.99792 
L 152.675736 -79.745575 
L 152.904462 -79.493229 
L 153.139737 -79.240884 
L 153.381179 -78.988538 
L 153.628329 -78.736193 
L 153.880657 -78.483848 
L 154.13756 -78.231502 
L 154.398373 -77.979157 
L 154.662368 -77.726812 
L 154.928766 -77.474466 
L 155.196741 -77.222121 
L 155.465429 -76.969776 
L 155.733935 -76.71743 
L 156.001345 -76.465085 
L 156.26673 -76.21274 
L 156.529162 -75.960394 
L 156.787719 -75.708049 
L 157.041496 -75.455704 
L 157.289612 -75.203358 
L 157.531224 -74.951013 
L 157.765529 -74.698668 
L 157.99178 -74.446322 
L 158.209284 -74.193977 
L 158.417415 -73.941631 
L 158.615619 -73.689286 
L 158.803413 -73.436941 
L 158.980396 -73.184595 
L 159.146247 -72.93225 
L 159.300724 -72.679905 
L 159.443669 -72.427559 
L 159.575004 -72.175214 
L 159.694728 -71.922869 
L 159.802915 -71.670523 
L 159.899709 -71.418178 
L 159.985315 -71.165833 
L 160.06 -70.913487 
L 160.124076 -70.661142 
L 160.1779 -70.408797 
L 160.22186 -70.156451 
L 160.256372 -69.904106 
L 160.281861 -69.65176 
L 160.298764 -69.399415 
L 160.30751 -69.14707 
L 160.308517 -68.894724 
L 160.302181 -68.642379 
L 160.288871 -68.390034 
L 160.268917 -68.137688 
L 160.242607 -67.885343 
L 160.210179 -67.632998 
L 160.17182 -67.380652 
L 160.127659 -67.128307 
L 160.077766 -66.875962 
L 160.022152 -66.623616 
L 159.960767 -66.371271 
L 159.893504 -66.118926 
L 159.8202 -65.86658 
L 159.740641 -65.614235 
L 159.654567 -65.36189 
L 159.561674 -65.109544 
L 159.461629 -64.857199 
L 159.35407 -64.604853 
L 159.238618 -64.352508 
L 159.114884 -64.100163 
L 158.982481 -63.847817 
L 158.84103 -63.595472 
L 158.690171 -63.343127 
L 158.529572 -63.090781 
L 158.358936 -62.838436 
L 158.178013 -62.586091 
L 157.986603 -62.333745 
L 157.784568 -62.0814 
L 157.571834 -61.829055 
L 157.348397 -61.576709 
L 157.11433 -61.324364 
L 156.869779 -61.072019 
L 156.614975 -60.819673 
L 156.350224 -60.567328 
L 156.075915 -60.314983 
z
" style="stroke: #999999; stroke-width: 2"/>
    </defs>
    <g clip-path="url(#pb27d969abd)">
     <use xlink:href="#md462225bc8" x="0" y="255.11811" style="fill: #ffffff; stroke: #999999; stroke-width: 2"/>
    </g>
   </g>
   <g id="PolyCollection_3">
    <defs>
     <path id="mca2cd4295f" d="M 218.382532 -66.098417 
L 199.840482 -66.098417 
L 199.459839 -66.305212 
L 199.069606 -66.512007 
L 198.669454 -66.718801 
L 198.259081 -66.925596 
L 197.838229 -67.13239 
L 197.406697 -67.339185 
L 196.964355 -67.54598 
L 196.511165 -67.752774 
L 196.047192 -67.959569 
L 195.57262 -68.166363 
L 195.087765 -68.373158 
L 194.593088 -68.579953 
L 194.089205 -68.786747 
L 193.576898 -68.993542 
L 193.057119 -69.200336 
L 192.530994 -69.407131 
L 191.999829 -69.613926 
L 191.465104 -69.82072 
L 190.928474 -70.027515 
L 190.391758 -70.234309 
L 189.856934 -70.441104 
L 189.326123 -70.647899 
L 188.801578 -70.854693 
L 188.285664 -71.061488 
L 187.780841 -71.268283 
L 187.28964 -71.475077 
L 186.814641 -71.681872 
L 186.358451 -71.888666 
L 185.923673 -72.095461 
L 185.512884 -72.302256 
L 185.128607 -72.50905 
L 184.773283 -72.715845 
L 184.449247 -72.922639 
L 184.158698 -73.129434 
L 183.903682 -73.336229 
L 183.68606 -73.543023 
L 183.507492 -73.749818 
L 183.369417 -73.956612 
L 183.273035 -74.163407 
L 183.219291 -74.370202 
L 183.208866 -74.576996 
L 183.242164 -74.783791 
L 183.319309 -74.990585 
L 183.440138 -75.19738 
L 183.604204 -75.404175 
L 183.810774 -75.610969 
L 184.058838 -75.817764 
L 184.347115 -76.024559 
L 184.674065 -76.231353 
L 185.037899 -76.438148 
L 185.436601 -76.644942 
L 185.867938 -76.851737 
L 186.329485 -77.058532 
L 186.818646 -77.265326 
L 187.332674 -77.472121 
L 187.868701 -77.678915 
L 188.423756 -77.88571 
L 188.994799 -78.092505 
L 189.578743 -78.299299 
L 190.17248 -78.506094 
L 190.772913 -78.712888 
L 191.376977 -78.919683 
L 191.981669 -79.126478 
L 192.58407 -79.333272 
L 193.181371 -79.540067 
L 193.770897 -79.746861 
L 194.350126 -79.953656 
L 194.916707 -80.160451 
L 195.468482 -80.367245 
L 196.003497 -80.57404 
L 196.520019 -80.780835 
L 197.016544 -80.987629 
L 197.491804 -81.194424 
L 197.944776 -81.401218 
L 198.374684 -81.608013 
L 198.780994 -81.814808 
L 199.163421 -82.021602 
L 199.521914 -82.228397 
L 199.856656 -82.435191 
L 200.168048 -82.641986 
L 200.456702 -82.848781 
L 200.72342 -83.055575 
L 200.969184 -83.26237 
L 201.195133 -83.469164 
L 201.402543 -83.675959 
L 201.592812 -83.882754 
L 201.767431 -84.089548 
L 201.927965 -84.296343 
L 202.076031 -84.503137 
L 202.213273 -84.709932 
L 202.34134 -84.916727 
L 202.461869 -85.123521 
L 202.576457 -85.330316 
L 202.686646 -85.537111 
L 202.793906 -85.743905 
L 202.899614 -85.9507 
L 203.005046 -86.157494 
L 203.111358 -86.364289 
L 203.219582 -86.571084 
L 215.003432 -86.571084 
L 215.003432 -86.571084 
L 215.111656 -86.364289 
L 215.217969 -86.157494 
L 215.3234 -85.9507 
L 215.429109 -85.743905 
L 215.536368 -85.537111 
L 215.646558 -85.330316 
L 215.761146 -85.123521 
L 215.881674 -84.916727 
L 216.009742 -84.709932 
L 216.146984 -84.503137 
L 216.295049 -84.296343 
L 216.455583 -84.089548 
L 216.630202 -83.882754 
L 216.820471 -83.675959 
L 217.027882 -83.469164 
L 217.25383 -83.26237 
L 217.499594 -83.055575 
L 217.766313 -82.848781 
L 218.054966 -82.641986 
L 218.366359 -82.435191 
L 218.701101 -82.228397 
L 219.059594 -82.021602 
L 219.442021 -81.814808 
L 219.848331 -81.608013 
L 220.278238 -81.401218 
L 220.73121 -81.194424 
L 221.206471 -80.987629 
L 221.702995 -80.780835 
L 222.219518 -80.57404 
L 222.754533 -80.367245 
L 223.306308 -80.160451 
L 223.872889 -79.953656 
L 224.452117 -79.746861 
L 225.041643 -79.540067 
L 225.638945 -79.333272 
L 226.241346 -79.126478 
L 226.846037 -78.919683 
L 227.450102 -78.712888 
L 228.050534 -78.506094 
L 228.644272 -78.299299 
L 229.228216 -78.092505 
L 229.799259 -77.88571 
L 230.354314 -77.678915 
L 230.89034 -77.472121 
L 231.404369 -77.265326 
L 231.893529 -77.058532 
L 232.355076 -76.851737 
L 232.786413 -76.644942 
L 233.185115 -76.438148 
L 233.54895 -76.231353 
L 233.8759 -76.024559 
L 234.164177 -75.817764 
L 234.412241 -75.610969 
L 234.618811 -75.404175 
L 234.782876 -75.19738 
L 234.903705 -74.990585 
L 234.98085 -74.783791 
L 235.014148 -74.576996 
L 235.003723 -74.370202 
L 234.94998 -74.163407 
L 234.853597 -73.956612 
L 234.715523 -73.749818 
L 234.536955 -73.543023 
L 234.319333 -73.336229 
L 234.064316 -73.129434 
L 233.773768 -72.922639 
L 233.449731 -72.715845 
L 233.094408 -72.50905 
L 232.710131 -72.302256 
L 232.299342 -72.095461 
L 231.864564 -71.888666 
L 231.408373 -71.681872 
L 230.933375 -71.475077 
L 230.442174 -71.268283 
L 229.93735 -71.061488 
L 229.421437 -70.854693 
L 228.896892 -70.647899 
L 228.366081 -70.441104 
L 227.831257 -70.234309 
L 227.294541 -70.027515 
L 226.757911 -69.82072 
L 226.223186 -69.613926 
L 225.692021 -69.407131 
L 225.165896 -69.200336 
L 224.646116 -68.993542 
L 224.133809 -68.786747 
L 223.629927 -68.579953 
L 223.13525 -68.373158 
L 222.650395 -68.166363 
L 222.175823 -67.959569 
L 221.71185 -67.752774 
L 221.25866 -67.54598 
L 220.816318 -67.339185 
L 220.384785 -67.13239 
L 219.963933 -66.925596 
L 219.553561 -66.718801 
L 219.153409 -66.512007 
L 218.763176 -66.305212 
L 218.382532 -66.098417 
z
" style="stroke: #999999; stroke-width: 2"/>
    </defs>
    <g clip-path="url(#pb27d969abd)">
     <use xlink:href="#mca2cd4295f" x="0" y="255.11811" style="fill: #ffffff; stroke: #999999; stroke-width: 2"/>
    </g>
   </g>
   <g id="PolyCollection_4">
    <defs>
     <path id="maf569b54b6" d="M 281.247738 -70.529299 
L 266.488482 -70.529299 
L 266.259888 -70.78705 
L 266.034239 -71.0448 
L 265.811998 -71.302551 
L 265.5936 -71.560301 
L 265.379456 -71.818052 
L 265.169946 -72.075802 
L 264.96542 -72.333553 
L 264.766191 -72.591303 
L 264.57254 -72.849053 
L 264.384707 -73.106804 
L 264.202896 -73.364554 
L 264.027272 -73.622305 
L 263.857957 -73.880055 
L 263.695037 -74.137806 
L 263.538558 -74.395556 
L 263.388525 -74.653307 
L 263.244909 -74.911057 
L 263.107642 -75.168808 
L 262.976623 -75.426558 
L 262.851718 -75.684309 
L 262.732763 -75.942059 
L 262.619565 -76.199809 
L 262.511908 -76.45756 
L 262.40955 -76.71531 
L 262.312231 -76.973061 
L 262.219676 -77.230811 
L 262.131593 -77.488562 
L 262.047681 -77.746312 
L 261.967631 -78.004063 
L 261.891127 -78.261813 
L 261.817855 -78.519564 
L 261.747498 -78.777314 
L 261.679743 -79.035065 
L 261.614286 -79.292815 
L 261.550827 -79.550566 
L 261.489081 -79.808316 
L 261.428772 -80.066066 
L 261.369641 -80.323817 
L 261.311447 -80.581567 
L 261.253964 -80.839318 
L 261.19699 -81.097068 
L 261.140344 -81.354819 
L 261.083865 -81.612569 
L 261.02742 -81.87032 
L 260.970902 -82.12807 
L 260.914226 -82.385821 
L 260.857341 -82.643571 
L 260.800221 -82.901322 
L 260.74287 -83.159072 
L 260.685322 -83.416822 
L 260.627644 -83.674573 
L 260.569932 -83.932323 
L 260.512316 -84.190074 
L 260.454956 -84.447824 
L 260.398046 -84.705575 
L 260.341811 -84.963325 
L 260.286511 -85.221076 
L 260.232432 -85.478826 
L 260.179897 -85.736577 
L 260.129256 -85.994327 
L 260.080887 -86.252078 
L 260.035198 -86.509828 
L 259.99262 -86.767579 
L 259.953611 -87.025329 
L 259.918646 -87.283079 
L 259.888223 -87.54083 
L 259.862852 -87.79858 
L 259.843058 -88.056331 
L 259.829372 -88.314081 
L 259.822332 -88.571832 
L 259.822476 -88.829582 
L 259.830337 -89.087333 
L 259.846442 -89.345083 
L 259.871303 -89.602834 
L 259.905415 -89.860584 
L 259.949251 -90.118335 
L 260.003255 -90.376085 
L 260.067839 -90.633835 
L 260.143378 -90.891586 
L 260.230206 -91.149336 
L 260.32861 -91.407087 
L 260.438828 -91.664837 
L 260.561043 -91.922588 
L 260.69538 -92.180338 
L 260.841908 -92.438089 
L 261.00063 -92.695839 
L 261.171486 -92.95359 
L 261.354351 -93.21134 
L 261.549032 -93.469091 
L 261.755273 -93.726841 
L 261.97275 -93.984592 
L 262.201074 -94.242342 
L 262.439796 -94.500092 
L 262.688405 -94.757843 
L 262.946332 -95.015593 
L 263.212957 -95.273344 
L 263.487607 -95.531094 
L 263.769568 -95.788845 
L 264.058083 -96.046595 
L 283.678138 -96.046595 
L 283.678138 -96.046595 
L 283.966653 -95.788845 
L 284.248613 -95.531094 
L 284.523264 -95.273344 
L 284.789888 -95.015593 
L 285.047816 -94.757843 
L 285.296424 -94.500092 
L 285.535146 -94.242342 
L 285.763471 -93.984592 
L 285.980947 -93.726841 
L 286.187188 -93.469091 
L 286.38187 -93.21134 
L 286.564734 -92.95359 
L 286.73559 -92.695839 
L 286.894312 -92.438089 
L 287.04084 -92.180338 
L 287.175178 -91.922588 
L 287.297393 -91.664837 
L 287.40761 -91.407087 
L 287.506014 -91.149336 
L 287.592842 -90.891586 
L 287.668382 -90.633835 
L 287.732966 -90.376085 
L 287.786969 -90.118335 
L 287.830805 -89.860584 
L 287.864917 -89.602834 
L 287.889779 -89.345083 
L 287.905883 -89.087333 
L 287.913745 -88.829582 
L 287.913889 -88.571832 
L 287.906849 -88.314081 
L 287.893163 -88.056331 
L 287.873368 -87.79858 
L 287.847998 -87.54083 
L 287.817574 -87.283079 
L 287.78261 -87.025329 
L 287.7436 -86.767579 
L 287.701023 -86.509828 
L 287.655333 -86.252078 
L 287.606965 -85.994327 
L 287.556323 -85.736577 
L 287.503788 -85.478826 
L 287.44971 -85.221076 
L 287.394409 -84.963325 
L 287.338175 -84.705575 
L 287.281265 -84.447824 
L 287.223905 -84.190074 
L 287.166289 -83.932323 
L 287.108577 -83.674573 
L 287.050899 -83.416822 
L 286.993351 -83.159072 
L 286.936 -82.901322 
L 286.878879 -82.643571 
L 286.821994 -82.385821 
L 286.765319 -82.12807 
L 286.7088 -81.87032 
L 286.652355 -81.612569 
L 286.595877 -81.354819 
L 286.53923 -81.097068 
L 286.482256 -80.839318 
L 286.424774 -80.581567 
L 286.366579 -80.323817 
L 286.307449 -80.066066 
L 286.24714 -79.808316 
L 286.185393 -79.550566 
L 286.121935 -79.292815 
L 286.056477 -79.035065 
L 285.988723 -78.777314 
L 285.918366 -78.519564 
L 285.845093 -78.261813 
L 285.76859 -78.004063 
L 285.688539 -77.746312 
L 285.604627 -77.488562 
L 285.516544 -77.230811 
L 285.423989 -76.973061 
L 285.326671 -76.71531 
L 285.224313 -76.45756 
L 285.116655 -76.199809 
L 285.003458 -75.942059 
L 284.884502 -75.684309 
L 284.759597 -75.426558 
L 284.628579 -75.168808 
L 284.491312 -74.911057 
L 284.347695 -74.653307 
L 284.197663 -74.395556 
L 284.041183 -74.137806 
L 283.878264 -73.880055 
L 283.708949 -73.622305 
L 283.533324 -73.364554 
L 283.351513 -73.106804 
L 283.163681 -72.849053 
L 282.970029 -72.591303 
L 282.770801 -72.333553 
L 282.566274 -72.075802 
L 282.356764 -71.818052 
L 282.14262 -71.560301 
L 281.924223 -71.302551 
L 281.701981 -71.0448 
L 281.476333 -70.78705 
L 281.247738 -70.529299 
z
" style="stroke: #999999; stroke-width: 2"/>
    </defs>
    <g clip-path="url(#pb27d969abd)">
     <use xlink:href="#maf569b54b6" x="0" y="255.11811" style="fill: #ffffff; stroke: #999999; stroke-width: 2"/>
    </g>
   </g>
   <g id="PolyCollection_5">
    <defs>
     <path id="mb3a9fbcf59" d="M 341.65521 -104.794697 
L 335.594216 -104.794697 
L 335.539407 -105.980417 
L 335.487038 -107.166136 
L 335.437243 -108.351856 
L 335.390149 -109.537575 
L 335.345877 -110.723295 
L 335.304537 -111.909014 
L 335.266232 -113.094734 
L 335.231055 -114.280453 
L 335.199091 -115.466172 
L 335.170413 -116.651892 
L 335.145086 -117.837611 
L 335.123164 -119.023331 
L 335.104689 -120.20905 
L 335.089696 -121.39477 
L 335.078206 -122.580489 
L 335.070232 -123.766209 
L 335.065772 -124.951928 
L 335.064819 -126.137648 
L 335.067352 -127.323367 
L 335.073339 -128.509086 
L 335.082741 -129.694806 
L 335.095505 -130.880525 
L 335.111572 -132.066245 
L 335.13087 -133.251964 
L 335.153322 -134.437684 
L 335.178837 -135.623403 
L 335.207321 -136.809123 
L 335.238667 -137.994842 
L 335.272764 -139.180562 
L 335.309492 -140.366281 
L 335.348726 -141.552 
L 335.390331 -142.73772 
L 335.434171 -143.923439 
L 335.480102 -145.109159 
L 335.527977 -146.294878 
L 335.577642 -147.480598 
L 335.628943 -148.666317 
L 335.681722 -149.852037 
L 335.735817 -151.037756 
L 335.791066 -152.223476 
L 335.847307 -153.409195 
L 335.904373 -154.594914 
L 335.962102 -155.780634 
L 336.020331 -156.966353 
L 336.078897 -158.152073 
L 336.13764 -159.337792 
L 336.196403 -160.523512 
L 336.255031 -161.709231 
L 336.313374 -162.894951 
L 336.371286 -164.08067 
L 336.428625 -165.26639 
L 336.485254 -166.452109 
L 336.541045 -167.637828 
L 336.595872 -168.823548 
L 336.64962 -170.009267 
L 336.702178 -171.194987 
L 336.753445 -172.380706 
L 336.803328 -173.566426 
L 336.851741 -174.752145 
L 336.898608 -175.937865 
L 336.943862 -177.123584 
L 336.987446 -178.309304 
L 337.02931 -179.495023 
L 337.069415 -180.680742 
L 337.107734 -181.866462 
L 337.144246 -183.052181 
L 337.178941 -184.237901 
L 337.21182 -185.42362 
L 337.242891 -186.60934 
L 337.272174 -187.795059 
L 337.299695 -188.980779 
L 337.32549 -190.166498 
L 337.349605 -191.352218 
L 337.372092 -192.537937 
L 337.393011 -193.723656 
L 337.412429 -194.909376 
L 337.430419 -196.095095 
L 337.447061 -197.280815 
L 337.462439 -198.466534 
L 337.476643 -199.652254 
L 337.489766 -200.837973 
L 337.501904 -202.023693 
L 337.513157 -203.209412 
L 337.523625 -204.395132 
L 337.533411 -205.580851 
L 337.542617 -206.76657 
L 337.551345 -207.95229 
L 337.559696 -209.138009 
L 337.567771 -210.323729 
L 337.575665 -211.509448 
L 337.583474 -212.695168 
L 337.591287 -213.880887 
L 337.599191 -215.066607 
L 337.607268 -216.252326 
L 337.615595 -217.438046 
L 337.624241 -218.623765 
L 337.633273 -219.809484 
L 337.64275 -220.995204 
L 337.652722 -222.180923 
L 339.596704 -222.180923 
L 339.596704 -222.180923 
L 339.606677 -220.995204 
L 339.616153 -219.809484 
L 339.625185 -218.623765 
L 339.633832 -217.438046 
L 339.642158 -216.252326 
L 339.650235 -215.066607 
L 339.658139 -213.880887 
L 339.665953 -212.695168 
L 339.673761 -211.509448 
L 339.681655 -210.323729 
L 339.68973 -209.138009 
L 339.698081 -207.95229 
L 339.706809 -206.76657 
L 339.716015 -205.580851 
L 339.725801 -204.395132 
L 339.73627 -203.209412 
L 339.747522 -202.023693 
L 339.759661 -200.837973 
L 339.772783 -199.652254 
L 339.786987 -198.466534 
L 339.802366 -197.280815 
L 339.819007 -196.095095 
L 339.836997 -194.909376 
L 339.856415 -193.723656 
L 339.877334 -192.537937 
L 339.899821 -191.352218 
L 339.923936 -190.166498 
L 339.949732 -188.980779 
L 339.977253 -187.795059 
L 340.006535 -186.60934 
L 340.037606 -185.42362 
L 340.070485 -184.237901 
L 340.105181 -183.052181 
L 340.141692 -181.866462 
L 340.180011 -180.680742 
L 340.220117 -179.495023 
L 340.261981 -178.309304 
L 340.305564 -177.123584 
L 340.350818 -175.937865 
L 340.397685 -174.752145 
L 340.446099 -173.566426 
L 340.495981 -172.380706 
L 340.547248 -171.194987 
L 340.599807 -170.009267 
L 340.653554 -168.823548 
L 340.708382 -167.637828 
L 340.764172 -166.452109 
L 340.820802 -165.26639 
L 340.87814 -164.08067 
L 340.936052 -162.894951 
L 340.994395 -161.709231 
L 341.053024 -160.523512 
L 341.111787 -159.337792 
L 341.17053 -158.152073 
L 341.229096 -156.966353 
L 341.287324 -155.780634 
L 341.345053 -154.594914 
L 341.40212 -153.409195 
L 341.45836 -152.223476 
L 341.513609 -151.037756 
L 341.567704 -149.852037 
L 341.620483 -148.666317 
L 341.671784 -147.480598 
L 341.72145 -146.294878 
L 341.769324 -145.109159 
L 341.815255 -143.923439 
L 341.859095 -142.73772 
L 341.900701 -141.552 
L 341.939934 -140.366281 
L 341.976662 -139.180562 
L 342.010759 -137.994842 
L 342.042106 -136.809123 
L 342.070589 -135.623403 
L 342.096105 -134.437684 
L 342.118556 -133.251964 
L 342.137855 -132.066245 
L 342.153921 -130.880525 
L 342.166686 -129.694806 
L 342.176087 -128.509086 
L 342.182075 -127.323367 
L 342.184607 -126.137648 
L 342.183654 -124.951928 
L 342.179195 -123.766209 
L 342.17122 -122.580489 
L 342.15973 -121.39477 
L 342.144737 -120.20905 
L 342.126263 -119.023331 
L 342.10434 -117.837611 
L 342.079013 -116.651892 
L 342.050335 -115.466172 
L 342.018371 -114.280453 
L 341.983194 -113.094734 
L 341.944889 -111.909014 
L 341.903549 -110.723295 
L 341.859277 -109.537575 
L 341.812184 -108.351856 
L 341.762389 -107.166136 
L 341.710019 -105.980417 
L 341.65521 -104.794697 
z
" style="stroke: #999999; stroke-width: 2"/>
    </defs>
    <g clip-path="url(#pb27d969abd)">
     <use xlink:href="#mb3a9fbcf59" x="0" y="255.11811" style="fill: #ffffff; stroke: #999999; stroke-width: 2"/>
    </g>
   </g>
   <g id="PolyCollection_6">
    <defs>
     <path id="m1eaaf35ac9" d="M 409.770553 -141.625206 
L 396.992079 -141.625206 
L 396.864027 -141.928376 
L 396.741624 -142.231547 
L 396.624657 -142.534717 
L 396.512809 -142.837888 
L 396.405668 -143.141058 
L 396.302725 -143.444229 
L 396.203378 -143.747399 
L 396.106939 -144.05057 
L 396.012639 -144.353741 
L 395.919636 -144.656911 
L 395.827028 -144.960082 
L 395.733858 -145.263252 
L 395.639132 -145.566423 
L 395.541831 -145.869593 
L 395.440921 -146.172764 
L 395.335374 -146.475934 
L 395.224179 -146.779105 
L 395.106363 -147.082276 
L 394.981001 -147.385446 
L 394.847236 -147.688617 
L 394.704295 -147.991787 
L 394.551501 -148.294958 
L 394.388291 -148.598128 
L 394.214226 -148.901299 
L 394.029006 -149.204469 
L 393.832476 -149.50764 
L 393.624641 -149.810811 
L 393.405667 -150.113981 
L 393.175891 -150.417152 
L 392.935817 -150.720322 
L 392.686124 -151.023493 
L 392.427659 -151.326663 
L 392.161435 -151.629834 
L 391.888623 -151.933004 
L 391.610544 -152.236175 
L 391.328658 -152.539346 
L 391.044551 -152.842516 
L 390.759919 -153.145687 
L 390.47655 -153.448857 
L 390.196309 -153.752028 
L 389.921114 -154.055198 
L 389.652918 -154.358369 
L 389.393687 -154.661539 
L 389.145375 -154.96471 
L 388.909905 -155.267881 
L 388.689145 -155.571051 
L 388.484888 -155.874222 
L 388.298827 -156.177392 
L 388.132539 -156.480563 
L 387.987467 -156.783733 
L 387.864899 -157.086904 
L 387.765955 -157.390074 
L 387.691578 -157.693245 
L 387.642516 -157.996415 
L 387.619319 -158.299586 
L 387.622334 -158.602757 
L 387.651698 -158.905927 
L 387.707342 -159.209098 
L 387.788989 -159.512268 
L 387.896165 -159.815439 
L 388.028199 -160.118609 
L 388.184239 -160.42178 
L 388.36326 -160.72495 
L 388.564083 -161.028121 
L 388.785383 -161.331292 
L 389.025713 -161.634462 
L 389.283519 -161.937633 
L 389.557163 -162.240803 
L 389.844938 -162.543974 
L 390.145091 -162.847144 
L 390.455844 -163.150315 
L 390.775412 -163.453485 
L 391.102026 -163.756656 
L 391.433946 -164.059827 
L 391.769485 -164.362997 
L 392.107019 -164.666168 
L 392.445007 -164.969338 
L 392.782001 -165.272509 
L 393.116656 -165.575679 
L 393.447745 -165.87885 
L 393.774157 -166.18202 
L 394.094911 -166.485191 
L 394.409154 -166.788362 
L 394.716165 -167.091532 
L 395.015352 -167.394703 
L 395.30625 -167.697873 
L 395.58852 -168.001044 
L 395.861937 -168.304214 
L 396.12639 -168.607385 
L 396.381867 -168.910555 
L 396.628452 -169.213726 
L 396.866312 -169.516897 
L 397.095683 -169.820067 
L 397.316868 -170.123238 
L 397.530217 -170.426408 
L 397.736121 -170.729579 
L 397.934998 -171.032749 
L 398.127288 -171.33592 
L 398.313437 -171.63909 
L 408.449195 -171.63909 
L 408.449195 -171.63909 
L 408.635344 -171.33592 
L 408.827634 -171.032749 
L 409.026512 -170.729579 
L 409.232415 -170.426408 
L 409.445764 -170.123238 
L 409.666949 -169.820067 
L 409.896321 -169.516897 
L 410.13418 -169.213726 
L 410.380765 -168.910555 
L 410.636243 -168.607385 
L 410.900695 -168.304214 
L 411.174112 -168.001044 
L 411.456382 -167.697873 
L 411.74728 -167.394703 
L 412.046467 -167.091532 
L 412.353478 -166.788362 
L 412.667722 -166.485191 
L 412.988476 -166.18202 
L 413.314888 -165.87885 
L 413.645976 -165.575679 
L 413.980631 -165.272509 
L 414.317625 -164.969338 
L 414.655613 -164.666168 
L 414.993148 -164.362997 
L 415.328686 -164.059827 
L 415.660606 -163.756656 
L 415.98722 -163.453485 
L 416.306788 -163.150315 
L 416.617541 -162.847144 
L 416.917694 -162.543974 
L 417.205469 -162.240803 
L 417.479113 -161.937633 
L 417.73692 -161.634462 
L 417.97725 -161.331292 
L 418.198549 -161.028121 
L 418.399372 -160.72495 
L 418.578394 -160.42178 
L 418.734433 -160.118609 
L 418.866467 -159.815439 
L 418.973643 -159.512268 
L 419.055291 -159.209098 
L 419.110934 -158.905927 
L 419.140298 -158.602757 
L 419.143313 -158.299586 
L 419.120117 -157.996415 
L 419.071054 -157.693245 
L 418.996677 -157.390074 
L 418.897733 -157.086904 
L 418.775165 -156.783733 
L 418.630093 -156.480563 
L 418.463806 -156.177392 
L 418.277745 -155.874222 
L 418.073487 -155.571051 
L 417.852727 -155.267881 
L 417.617258 -154.96471 
L 417.368946 -154.661539 
L 417.109714 -154.358369 
L 416.841518 -154.055198 
L 416.566324 -153.752028 
L 416.286082 -153.448857 
L 416.002713 -153.145687 
L 415.718081 -152.842516 
L 415.433974 -152.539346 
L 415.152088 -152.236175 
L 414.874009 -151.933004 
L 414.601197 -151.629834 
L 414.334973 -151.326663 
L 414.076508 -151.023493 
L 413.826815 -150.720322 
L 413.586742 -150.417152 
L 413.356965 -150.113981 
L 413.137991 -149.810811 
L 412.930156 -149.50764 
L 412.733627 -149.204469 
L 412.548406 -148.901299 
L 412.374341 -148.598128 
L 412.211131 -148.294958 
L 412.058337 -147.991787 
L 411.915396 -147.688617 
L 411.781631 -147.385446 
L 411.656269 -147.082276 
L 411.538453 -146.779105 
L 411.427259 -146.475934 
L 411.321711 -146.172764 
L 411.220801 -145.869593 
L 411.1235 -145.566423 
L 411.028774 -145.263252 
L 410.935605 -144.960082 
L 410.842996 -144.656911 
L 410.749993 -144.353741 
L 410.655693 -144.05057 
L 410.559254 -143.747399 
L 410.459907 -143.444229 
L 410.356964 -143.141058 
L 410.249823 -142.837888 
L 410.137976 -142.534717 
L 410.021008 -142.231547 
L 409.898606 -141.928376 
L 409.770553 -141.625206 
z
" style="stroke: #999999; stroke-width: 2"/>
    </defs>
    <g clip-path="url(#pb27d969abd)">
     <use xlink:href="#m1eaaf35ac9" x="0" y="255.11811" style="fill: #ffffff; stroke: #999999; stroke-width: 2"/>
    </g>
   </g>
   <g id="PolyCollection_7">
    <defs>
     <path id="mf22a44f0ff" d="M 472.162913 -79.946412 
L 464.112925 -79.946412 
L 463.987516 -80.40822 
L 463.862441 -80.870029 
L 463.737826 -81.331837 
L 463.613785 -81.793646 
L 463.490425 -82.255454 
L 463.367842 -82.717263 
L 463.24612 -83.179071 
L 463.125336 -83.64088 
L 463.005555 -84.102688 
L 462.886832 -84.564497 
L 462.769214 -85.026305 
L 462.652737 -85.488113 
L 462.53743 -85.949922 
L 462.423315 -86.41173 
L 462.310406 -86.873539 
L 462.198712 -87.335347 
L 462.088237 -87.797156 
L 461.978981 -88.258964 
L 461.870946 -88.720773 
L 461.764128 -89.182581 
L 461.658529 -89.64439 
L 461.554152 -90.106198 
L 461.451003 -90.568007 
L 461.349096 -91.029815 
L 461.248452 -91.491624 
L 461.149102 -91.953432 
L 461.051087 -92.415241 
L 460.954461 -92.877049 
L 460.859292 -93.338858 
L 460.765662 -93.800666 
L 460.67367 -94.262475 
L 460.583429 -94.724283 
L 460.495072 -95.186092 
L 460.408748 -95.6479 
L 460.324622 -96.109709 
L 460.242878 -96.571517 
L 460.163714 -97.033326 
L 460.087342 -97.495134 
L 460.01399 -97.956943 
L 459.943895 -98.418751 
L 459.877305 -98.88056 
L 459.814475 -99.342368 
L 459.755663 -99.804177 
L 459.701131 -100.265985 
L 459.651137 -100.727794 
L 459.605936 -101.189602 
L 459.565776 -101.65141 
L 459.530891 -102.113219 
L 459.501504 -102.575027 
L 459.477818 -103.036836 
L 459.460018 -103.498644 
L 459.448264 -103.960453 
L 459.442691 -104.422261 
L 459.443406 -104.88407 
L 459.450488 -105.345878 
L 459.463984 -105.807687 
L 459.483908 -106.269495 
L 459.510245 -106.731304 
L 459.542943 -107.193112 
L 459.581924 -107.654921 
L 459.627075 -108.116729 
L 459.678254 -108.578538 
L 459.735294 -109.040346 
L 459.798001 -109.502155 
L 459.866157 -109.963963 
L 459.939528 -110.425772 
L 460.017859 -110.88758 
L 460.100886 -111.349389 
L 460.188331 -111.811197 
L 460.279912 -112.273006 
L 460.375344 -112.734814 
L 460.474342 -113.196623 
L 460.576624 -113.658431 
L 460.681918 -114.12024 
L 460.789957 -114.582048 
L 460.900489 -115.043857 
L 461.013275 -115.505665 
L 461.128092 -115.967474 
L 461.244736 -116.429282 
L 461.363019 -116.891091 
L 461.482771 -117.352899 
L 461.603843 -117.814707 
L 461.726104 -118.276516 
L 461.849438 -118.738324 
L 461.97375 -119.200133 
L 462.098956 -119.661941 
L 462.224988 -120.12375 
L 462.351788 -120.585558 
L 462.479309 -121.047367 
L 462.607511 -121.509175 
L 462.736356 -121.970984 
L 462.865814 -122.432792 
L 462.99585 -122.894601 
L 463.12643 -123.356409 
L 463.257515 -123.818218 
L 463.389061 -124.280026 
L 463.521015 -124.741835 
L 463.653315 -125.203643 
L 463.785889 -125.665452 
L 472.489949 -125.665452 
L 472.489949 -125.665452 
L 472.622523 -125.203643 
L 472.754823 -124.741835 
L 472.886777 -124.280026 
L 473.018323 -123.818218 
L 473.149408 -123.356409 
L 473.279988 -122.894601 
L 473.410024 -122.432792 
L 473.539482 -121.970984 
L 473.668327 -121.509175 
L 473.796529 -121.047367 
L 473.92405 -120.585558 
L 474.05085 -120.12375 
L 474.176882 -119.661941 
L 474.302088 -119.200133 
L 474.4264 -118.738324 
L 474.549734 -118.276516 
L 474.671995 -117.814707 
L 474.793067 -117.352899 
L 474.912819 -116.891091 
L 475.031102 -116.429282 
L 475.147746 -115.967474 
L 475.262563 -115.505665 
L 475.375349 -115.043857 
L 475.485881 -114.582048 
L 475.59392 -114.12024 
L 475.699214 -113.658431 
L 475.801496 -113.196623 
L 475.900494 -112.734814 
L 475.995926 -112.273006 
L 476.087507 -111.811197 
L 476.174952 -111.349389 
L 476.257979 -110.88758 
L 476.33631 -110.425772 
L 476.409681 -109.963963 
L 476.477837 -109.502155 
L 476.540544 -109.040346 
L 476.597584 -108.578538 
L 476.648763 -108.116729 
L 476.693914 -107.654921 
L 476.732895 -107.193112 
L 476.765593 -106.731304 
L 476.79193 -106.269495 
L 476.811854 -105.807687 
L 476.82535 -105.345878 
L 476.832432 -104.88407 
L 476.833147 -104.422261 
L 476.827574 -103.960453 
L 476.81582 -103.498644 
L 476.79802 -103.036836 
L 476.774334 -102.575027 
L 476.744947 -102.113219 
L 476.710062 -101.65141 
L 476.669902 -101.189602 
L 476.624701 -100.727794 
L 476.574707 -100.265985 
L 476.520175 -99.804177 
L 476.461363 -99.342368 
L 476.398533 -98.88056 
L 476.331943 -98.418751 
L 476.261848 -97.956943 
L 476.188496 -97.495134 
L 476.112124 -97.033326 
L 476.03296 -96.571517 
L 475.951216 -96.109709 
L 475.86709 -95.6479 
L 475.780766 -95.186092 
L 475.692409 -94.724283 
L 475.602168 -94.262475 
L 475.510176 -93.800666 
L 475.416546 -93.338858 
L 475.321377 -92.877049 
L 475.224751 -92.415241 
L 475.126736 -91.953432 
L 475.027386 -91.491624 
L 474.926742 -91.029815 
L 474.824835 -90.568007 
L 474.721686 -90.106198 
L 474.617309 -89.64439 
L 474.51171 -89.182581 
L 474.404892 -88.720773 
L 474.296857 -88.258964 
L 474.187601 -87.797156 
L 474.077126 -87.335347 
L 473.965432 -86.873539 
L 473.852523 -86.41173 
L 473.738408 -85.949922 
L 473.623101 -85.488113 
L 473.506624 -85.026305 
L 473.389006 -84.564497 
L 473.270283 -84.102688 
L 473.150502 -83.64088 
L 473.029718 -83.179071 
L 472.907996 -82.717263 
L 472.785413 -82.255454 
L 472.662053 -81.793646 
L 472.538012 -81.331837 
L 472.413397 -80.870029 
L 472.288322 -80.40822 
L 472.162913 -79.946412 
z
" style="stroke: #999999; stroke-width: 2"/>
    </defs>
    <g clip-path="url(#pb27d969abd)">
     <use xlink:href="#mf22a44f0ff" x="0" y="255.11811" style="fill: #ffffff; stroke: #999999; stroke-width: 2"/>
    </g>
   </g>
   <g id="PathCollection_1"/>
   <g id="PathCollection_2"/>
   <g id="patch_3">
    <path d="M 47.22 213.89811 
L 47.22 24.32 
" style="fill: none; stroke: #262626; stroke-width: 1.25; stroke-linejoin: miter; stroke-linecap: square"/>
   </g>
   <g id="patch_4">
    <path d="M 47.22 213.89811 
L 500.51622 213.89811 
" style="fill: none; stroke: #262626; stroke-width: 1.25; stroke-linejoin: miter; stroke-linecap: square"/>
   </g>
   <g id="PathCollection_3">
    <defs>
     <path id="C0_0_66d2c2e84b" d="M 0 2.5 
C 0.663008 2.5 1.29895 2.236584 1.767767 1.767767 
C 2.236584 1.29895 2.5 0.663008 2.5 -0 
C 2.5 -0.663008 2.236584 -1.29895 1.767767 -1.767767 
C 1.29895 -2.236584 0.663008 -2.5 0 -2.5 
C -0.663008 -2.5 -1.29895 -2.236584 -1.767767 -1.767767 
C -2.236584 -1.29895 -2.5 -0.663008 -2.5 0 
C -2.5 0.663008 -2.236584 1.29895 -1.767767 1.767767 
C -1.29895 2.236584 -0.663008 2.5 0 2.5 
z
"/>
    </defs>
    <g clip-path="url(#pb27d969abd)">
     <use xlink:href="#C0_0_66d2c2e84b" x="81.832561" y="205.280923" style="fill: #4c72b0; fill-opacity: 0.75"/>
    </g>
    <g clip-path="url(#pb27d969abd)">
     <use xlink:href="#C0_0_66d2c2e84b" x="77.629103" y="188.305784" style="fill: #4c72b0; fill-opacity: 0.75"/>
    </g>
    <g clip-path="url(#pb27d969abd)">
     <use xlink:href="#C0_0_66d2c2e84b" x="78.437552" y="184.772365" style="fill: #4c72b0; fill-opacity: 0.75"/>
    </g>
    <g clip-path="url(#pb27d969abd)">
     <use xlink:href="#C0_0_66d2c2e84b" x="83.767316" y="195.235748" style="fill: #4c72b0; fill-opacity: 0.75"/>
    </g>
    <g clip-path="url(#pb27d969abd)">
     <use xlink:href="#C0_0_66d2c2e84b" x="84.833682" y="173.754665" style="fill: #dd8452; fill-opacity: 0.75"/>
    </g>
    <g clip-path="url(#pb27d969abd)">
     <use xlink:href="#C0_0_66d2c2e84b" x="80.731268" y="185.856706" style="fill: #dd8452; fill-opacity: 0.75"/>
    </g>
    <g clip-path="url(#pb27d969abd)">
     <use xlink:href="#C0_0_66d2c2e84b" x="73.912942" y="182.381539" style="fill: #dd8452; fill-opacity: 0.75"/>
    </g>
    <g clip-path="url(#pb27d969abd)">
     <use xlink:href="#C0_0_66d2c2e84b" x="85.085048" y="188.819696" style="fill: #dd8452; fill-opacity: 0.75"/>
    </g>
   </g>
   <g id="PathCollection_4">
    <defs>
     <path id="C1_0_09d86d5200" d="M 0 2.5 
C 0.663008 2.5 1.29895 2.236584 1.767767 1.767767 
C 2.236584 1.29895 2.5 0.663008 2.5 -0 
C 2.5 -0.663008 2.236584 -1.29895 1.767767 -1.767767 
C 1.29895 -2.236584 0.663008 -2.5 0 -2.5 
C -0.663008 -2.5 -1.29895 -2.236584 -1.767767 -1.767767 
C -2.236584 -1.29895 -2.5 -0.663008 -2.5 0 
C -2.5 0.663008 -2.236584 1.29895 -1.767767 1.767767 
C -1.29895 2.236584 -0.663008 2.5 0 2.5 
z
"/>
    </defs>
    <g clip-path="url(#pb27d969abd)">
     <use xlink:href="#C1_0_09d86d5200" x="149.615263" y="185.817357" style="fill: #4c72b0; fill-opacity: 0.75"/>
    </g>
    <g clip-path="url(#pb27d969abd)">
     <use xlink:href="#C1_0_09d86d5200" x="138.520027" y="179.214042" style="fill: #4c72b0; fill-opacity: 0.75"/>
    </g>
    <g clip-path="url(#pb27d969abd)">
     <use xlink:href="#C1_0_09d86d5200" x="141.304468" y="194.803128" style="fill: #4c72b0; fill-opacity: 0.75"/>
    </g>
    <g clip-path="url(#pb27d969abd)">
     <use xlink:href="#C1_0_09d86d5200" x="149.47243" y="192.068224" style="fill: #4c72b0; fill-opacity: 0.75"/>
    </g>
    <g clip-path="url(#pb27d969abd)">
     <use xlink:href="#C1_0_09d86d5200" x="141.914203" y="182.392176" style="fill: #dd8452; fill-opacity: 0.75"/>
    </g>
    <g clip-path="url(#pb27d969abd)">
     <use xlink:href="#C1_0_09d86d5200" x="140.653587" y="169.820938" style="fill: #dd8452; fill-opacity: 0.75"/>
    </g>
    <g clip-path="url(#pb27d969abd)">
     <use xlink:href="#C1_0_09d86d5200" x="144.308873" y="192.687701" style="fill: #dd8452; fill-opacity: 0.75"/>
    </g>
    <g clip-path="url(#pb27d969abd)">
     <use xlink:href="#C1_0_09d86d5200" x="146.895852" y="183.460137" style="fill: #dd8452; fill-opacity: 0.75"/>
    </g>
   </g>
   <g id="PathCollection_5">
    <defs>
     <path id="C2_0_cac5eb42ea" d="M 0 2.5 
C 0.663008 2.5 1.29895 2.236584 1.767767 1.767767 
C 2.236584 1.29895 2.5 0.663008 2.5 -0 
C 2.5 -0.663008 2.236584 -1.29895 1.767767 -1.767767 
C 1.29895 -2.236584 0.663008 -2.5 0 -2.5 
C -0.663008 -2.5 -1.29895 -2.236584 -1.767767 -1.767767 
C -2.236584 -1.29895 -2.5 -0.663008 -2.5 0 
C -2.5 0.663008 -2.236584 1.29895 -1.767767 1.767767 
C -1.29895 2.236584 -0.663008 2.5 0 2.5 
z
"/>
    </defs>
    <g clip-path="url(#pb27d969abd)">
     <use xlink:href="#C2_0_cac5eb42ea" x="207.260493" y="168.547027" style="fill: #4c72b0; fill-opacity: 0.75"/>
    </g>
    <g clip-path="url(#pb27d969abd)">
     <use xlink:href="#C2_0_cac5eb42ea" x="206.958582" y="183.936958" style="fill: #4c72b0; fill-opacity: 0.75"/>
    </g>
    <g clip-path="url(#pb27d969abd)">
     <use xlink:href="#C2_0_cac5eb42ea" x="212.450384" y="178.753311" style="fill: #4c72b0; fill-opacity: 0.75"/>
    </g>
    <g clip-path="url(#pb27d969abd)">
     <use xlink:href="#C2_0_cac5eb42ea" x="206.708676" y="189.019693" style="fill: #4c72b0; fill-opacity: 0.75"/>
    </g>
    <g clip-path="url(#pb27d969abd)">
     <use xlink:href="#C2_0_cac5eb42ea" x="202.763276" y="179.665907" style="fill: #dd8452; fill-opacity: 0.75"/>
    </g>
    <g clip-path="url(#pb27d969abd)">
     <use xlink:href="#C2_0_cac5eb42ea" x="212.358446" y="181.219231" style="fill: #dd8452; fill-opacity: 0.75"/>
    </g>
    <g clip-path="url(#pb27d969abd)">
     <use xlink:href="#C2_0_cac5eb42ea" x="211.02756" y="181.932174" style="fill: #dd8452; fill-opacity: 0.75"/>
    </g>
    <g clip-path="url(#pb27d969abd)">
     <use xlink:href="#C2_0_cac5eb42ea" x="208.51128" y="176.589049" style="fill: #dd8452; fill-opacity: 0.75"/>
    </g>
   </g>
   <g id="PathCollection_6">
    <defs>
     <path id="C3_0_5f70b30819" d="M 0 2.5 
C 0.663008 2.5 1.29895 2.236584 1.767767 1.767767 
C 2.236584 1.29895 2.5 0.663008 2.5 -0 
C 2.5 -0.663008 2.236584 -1.29895 1.767767 -1.767767 
C 1.29895 -2.236584 0.663008 -2.5 0 -2.5 
C -0.663008 -2.5 -1.29895 -2.236584 -1.767767 -1.767767 
C -2.236584 -1.29895 -2.5 -0.663008 -2.5 0 
C -2.5 0.663008 -2.236584 1.29895 -1.767767 1.767767 
C -1.29895 2.236584 -0.663008 2.5 0 2.5 
z
"/>
    </defs>
    <g clip-path="url(#pb27d969abd)">
     <use xlink:href="#C3_0_5f70b30819" x="270.070298" y="168.254132" style="fill: #4c72b0; fill-opacity: 0.75"/>
    </g>
    <g clip-path="url(#pb27d969abd)">
     <use xlink:href="#C3_0_5f70b30819" x="276.070034" y="161.677163" style="fill: #4c72b0; fill-opacity: 0.75"/>
    </g>
    <g clip-path="url(#pb27d969abd)">
     <use xlink:href="#C3_0_5f70b30819" x="267.529585" y="162.997206" style="fill: #4c72b0; fill-opacity: 0.75"/>
    </g>
    <g clip-path="url(#pb27d969abd)">
     <use xlink:href="#C3_0_5f70b30819" x="268.384319" y="172.274604" style="fill: #4c72b0; fill-opacity: 0.75"/>
    </g>
    <g clip-path="url(#pb27d969abd)">
     <use xlink:href="#C3_0_5f70b30819" x="279.422494" y="166.063698" style="fill: #4c72b0; fill-opacity: 0.75"/>
    </g>
    <g clip-path="url(#pb27d969abd)">
     <use xlink:href="#C3_0_5f70b30819" x="268.123595" y="178.858292" style="fill: #dd8452; fill-opacity: 0.75"/>
    </g>
    <g clip-path="url(#pb27d969abd)">
     <use xlink:href="#C3_0_5f70b30819" x="272.483605" y="174.076677" style="fill: #dd8452; fill-opacity: 0.75"/>
    </g>
    <g clip-path="url(#pb27d969abd)">
     <use xlink:href="#C3_0_5f70b30819" x="277.113915" y="159.071515" style="fill: #dd8452; fill-opacity: 0.75"/>
    </g>
    <g clip-path="url(#pb27d969abd)">
     <use xlink:href="#C3_0_5f70b30819" x="272.302229" y="180.459264" style="fill: #dd8452; fill-opacity: 0.75"/>
    </g>
    <g clip-path="url(#pb27d969abd)">
     <use xlink:href="#C3_0_5f70b30819" x="269.077444" y="184.588811" style="fill: #dd8452; fill-opacity: 0.75"/>
    </g>
   </g>
   <g id="PathCollection_7">
    <defs>
     <path id="C4_0_88add8e06a" d="M 0 2.5 
C 0.663008 2.5 1.29895 2.236584 1.767767 1.767767 
C 2.236584 1.29895 2.5 0.663008 2.5 -0 
C 2.5 -0.663008 2.236584 -1.29895 1.767767 -1.767767 
C 1.29895 -2.236584 0.663008 -2.5 0 -2.5 
C -0.663008 -2.5 -1.29895 -2.236584 -1.767767 -1.767767 
C -2.236584 -1.29895 -2.5 -0.663008 -2.5 0 
C -2.5 0.663008 -2.236584 1.29895 -1.767767 1.767767 
C -1.29895 2.236584 -0.663008 2.5 0 2.5 
z
"/>
    </defs>
    <g clip-path="url(#pb27d969abd)">
     <use xlink:href="#C4_0_88add8e06a" x="332.690303" y="97.202238" style="fill: #4c72b0; fill-opacity: 0.75"/>
    </g>
    <g clip-path="url(#pb27d969abd)">
     <use xlink:href="#C4_0_88add8e06a" x="333.078155" y="32.937187" style="fill: #4c72b0; fill-opacity: 0.75"/>
    </g>
    <g clip-path="url(#pb27d969abd)">
     <use xlink:href="#C4_0_88add8e06a" x="338.459373" y="122.866627" style="fill: #4c72b0; fill-opacity: 0.75"/>
    </g>
    <g clip-path="url(#pb27d969abd)">
     <use xlink:href="#C4_0_88add8e06a" x="342.752112" y="147.667348" style="fill: #dd8452; fill-opacity: 0.75"/>
    </g>
    <g clip-path="url(#pb27d969abd)">
     <use xlink:href="#C4_0_88add8e06a" x="338.752254" y="150.323413" style="fill: #dd8452; fill-opacity: 0.75"/>
    </g>
    <g clip-path="url(#pb27d969abd)">
     <use xlink:href="#C4_0_88add8e06a" x="333.563312" y="122.42749" style="fill: #dd8452; fill-opacity: 0.75"/>
    </g>
   </g>
   <g id="PathCollection_8">
    <defs>
     <path id="C5_0_639cc96eaa" d="M 0 2.5 
C 0.663008 2.5 1.29895 2.236584 1.767767 1.767767 
C 2.236584 1.29895 2.5 0.663008 2.5 -0 
C 2.5 -0.663008 2.236584 -1.29895 1.767767 -1.767767 
C 1.29895 -2.236584 0.663008 -2.5 0 -2.5 
C -0.663008 -2.5 -1.29895 -2.236584 -1.767767 -1.767767 
C -2.236584 -1.29895 -2.5 -0.663008 -2.5 0 
C -2.5 0.663008 -2.236584 1.29895 -1.767767 1.767767 
C -1.29895 2.236584 -0.663008 2.5 0 2.5 
z
"/>
    </defs>
    <g clip-path="url(#pb27d969abd)">
     <use xlink:href="#C5_0_639cc96eaa" x="397.177581" y="83.47902" style="fill: #4c72b0; fill-opacity: 0.75"/>
    </g>
    <g clip-path="url(#pb27d969abd)">
     <use xlink:href="#C5_0_639cc96eaa" x="404.638879" y="98.381717" style="fill: #4c72b0; fill-opacity: 0.75"/>
    </g>
    <g clip-path="url(#pb27d969abd)">
     <use xlink:href="#C5_0_639cc96eaa" x="399.57789" y="96.39094" style="fill: #4c72b0; fill-opacity: 0.75"/>
    </g>
    <g clip-path="url(#pb27d969abd)">
     <use xlink:href="#C5_0_639cc96eaa" x="399.63956" y="93.978829" style="fill: #4c72b0; fill-opacity: 0.75"/>
    </g>
    <g clip-path="url(#pb27d969abd)">
     <use xlink:href="#C5_0_639cc96eaa" x="400.181028" y="95.534618" style="fill: #dd8452; fill-opacity: 0.75"/>
    </g>
    <g clip-path="url(#pb27d969abd)">
     <use xlink:href="#C5_0_639cc96eaa" x="403.51694" y="98.819632" style="fill: #dd8452; fill-opacity: 0.75"/>
    </g>
    <g clip-path="url(#pb27d969abd)">
     <use xlink:href="#C5_0_639cc96eaa" x="403.952047" y="110.279616" style="fill: #dd8452; fill-opacity: 0.75"/>
    </g>
    <g clip-path="url(#pb27d969abd)">
     <use xlink:href="#C5_0_639cc96eaa" x="404.595866" y="113.492905" style="fill: #dd8452; fill-opacity: 0.75"/>
    </g>
   </g>
   <g id="PathCollection_9">
    <defs>
     <path id="C6_0_8e5ad5e694" d="M 0 2.5 
C 0.663008 2.5 1.29895 2.236584 1.767767 1.767767 
C 2.236584 1.29895 2.5 0.663008 2.5 -0 
C 2.5 -0.663008 2.236584 -1.29895 1.767767 -1.767767 
C 1.29895 -2.236584 0.663008 -2.5 0 -2.5 
C -0.663008 -2.5 -1.29895 -2.236584 -1.767767 -1.767767 
C -2.236584 -1.29895 -2.5 -0.663008 -2.5 0 
C -2.5 0.663008 -2.236584 1.29895 -1.767767 1.767767 
C -1.29895 2.236584 -0.663008 2.5 0 2.5 
z
"/>
    </defs>
    <g clip-path="url(#pb27d969abd)">
     <use xlink:href="#C6_0_8e5ad5e694" x="468.394478" y="129.452658" style="fill: #4c72b0; fill-opacity: 0.75"/>
    </g>
    <g clip-path="url(#pb27d969abd)">
     <use xlink:href="#C6_0_8e5ad5e694" x="472.683685" y="136.739202" style="fill: #4c72b0; fill-opacity: 0.75"/>
    </g>
    <g clip-path="url(#pb27d969abd)">
     <use xlink:href="#C6_0_8e5ad5e694" x="468.90793" y="149.521875" style="fill: #4c72b0; fill-opacity: 0.75"/>
    </g>
    <g clip-path="url(#pb27d969abd)">
     <use xlink:href="#C6_0_8e5ad5e694" x="468.052562" y="147.889643" style="fill: #4c72b0; fill-opacity: 0.75"/>
    </g>
    <g clip-path="url(#pb27d969abd)">
     <use xlink:href="#C6_0_8e5ad5e694" x="472.439828" y="160.921317" style="fill: #dd8452; fill-opacity: 0.75"/>
    </g>
    <g clip-path="url(#pb27d969abd)">
     <use xlink:href="#C6_0_8e5ad5e694" x="466.299588" y="165.053182" style="fill: #dd8452; fill-opacity: 0.75"/>
    </g>
    <g clip-path="url(#pb27d969abd)">
     <use xlink:href="#C6_0_8e5ad5e694" x="467.535128" y="149.43648" style="fill: #dd8452; fill-opacity: 0.75"/>
    </g>
    <g clip-path="url(#pb27d969abd)">
     <use xlink:href="#C6_0_8e5ad5e694" x="463.542834" y="175.171699" style="fill: #dd8452; fill-opacity: 0.75"/>
    </g>
   </g>
   <g id="text_18">
    <!-- ZNF292, $p_{adj}$ &lt; .001 *** -->
    <g style="fill: #262626" transform="translate(47.22 18.32)scale(0.09 -0.09)">
     <defs>
      <path id="ArialMT-5a" d="M 128 0 
L 128 563 
L 2475 3497 
Q 2725 3809 2950 4041 
L 394 4041 
L 394 4581 
L 3675 4581 
L 3675 4041 
L 1103 863 
L 825 541 
L 3750 541 
L 3750 0 
L 128 0 
z
" transform="scale(0.015625)"/>
      <path id="ArialMT-4e" d="M 488 0 
L 488 4581 
L 1109 4581 
L 3516 984 
L 3516 4581 
L 4097 4581 
L 4097 0 
L 3475 0 
L 1069 3600 
L 1069 0 
L 488 0 
z
" transform="scale(0.015625)"/>
      <path id="ArialMT-46" d="M 525 0 
L 525 4581 
L 3616 4581 
L 3616 4041 
L 1131 4041 
L 1131 2622 
L 3281 2622 
L 3281 2081 
L 1131 2081 
L 1131 0 
L 525 0 
z
" transform="scale(0.015625)"/>
      <path id="ArialMT-2c" d="M 569 0 
L 569 641 
L 1209 641 
L 1209 0 
Q 1209 -353 1084 -570 
Q 959 -788 688 -906 
L 531 -666 
Q 709 -588 793 -436 
Q 878 -284 888 0 
L 569 0 
z
" transform="scale(0.015625)"/>
      <path id="DejaVuSans-Oblique-70" d="M 3175 2156 
Q 3175 2616 2975 2859 
Q 2775 3103 2400 3103 
Q 2144 3103 1911 2972 
Q 1678 2841 1497 2591 
Q 1319 2344 1212 1994 
Q 1106 1644 1106 1300 
Q 1106 863 1306 627 
Q 1506 391 1875 391 
Q 2147 391 2380 519 
Q 2613 647 2778 891 
Q 2956 1147 3065 1494 
Q 3175 1841 3175 2156 
z
M 1394 2969 
Q 1625 3272 1939 3428 
Q 2253 3584 2638 3584 
Q 3175 3584 3472 3232 
Q 3769 2881 3769 2247 
Q 3769 1728 3584 1258 
Q 3400 788 3053 416 
Q 2822 169 2531 39 
Q 2241 -91 1919 -91 
Q 1547 -91 1294 64 
Q 1041 219 916 525 
L 556 -1331 
L -19 -1331 
L 922 3500 
L 1497 3500 
L 1394 2969 
z
" transform="scale(0.015625)"/>
      <path id="DejaVuSans-Oblique-61" d="M 3438 1997 
L 3047 0 
L 2472 0 
L 2578 531 
Q 2325 219 2001 64 
Q 1678 -91 1281 -91 
Q 834 -91 548 182 
Q 263 456 263 884 
Q 263 1497 752 1853 
Q 1241 2209 2100 2209 
L 2900 2209 
L 2931 2363 
Q 2938 2388 2941 2417 
Q 2944 2447 2944 2509 
Q 2944 2788 2717 2942 
Q 2491 3097 2081 3097 
Q 1800 3097 1504 3025 
Q 1209 2953 897 2809 
L 997 3341 
Q 1322 3463 1633 3523 
Q 1944 3584 2234 3584 
Q 2853 3584 3176 3315 
Q 3500 3047 3500 2534 
Q 3500 2431 3484 2292 
Q 3469 2153 3438 1997 
z
M 2816 1759 
L 2241 1759 
Q 1534 1759 1195 1570 
Q 856 1381 856 984 
Q 856 709 1029 553 
Q 1203 397 1509 397 
Q 1978 397 2328 733 
Q 2678 1069 2791 1631 
L 2816 1759 
z
" transform="scale(0.015625)"/>
      <path id="DejaVuSans-Oblique-64" d="M 2675 525 
Q 2444 222 2128 65 
Q 1813 -91 1428 -91 
Q 903 -91 598 267 
Q 294 625 294 1247 
Q 294 1766 478 2236 
Q 663 2706 1013 3078 
Q 1244 3325 1534 3454 
Q 1825 3584 2144 3584 
Q 2481 3584 2739 3421 
Q 2997 3259 3138 2956 
L 3513 4863 
L 4091 4863 
L 3144 0 
L 2566 0 
L 2675 525 
z
M 891 1350 
Q 891 897 1095 644 
Q 1300 391 1663 391 
Q 1931 391 2161 520 
Q 2391 650 2566 903 
Q 2750 1166 2856 1509 
Q 2963 1853 2963 2188 
Q 2963 2622 2758 2865 
Q 2553 3109 2194 3109 
Q 1922 3109 1687 2981 
Q 1453 2853 1288 2613 
Q 1106 2353 998 2009 
Q 891 1666 891 1350 
z
" transform="scale(0.015625)"/>
      <path id="DejaVuSans-Oblique-6a" d="M 928 3500 
L 1503 3500 
L 813 -63 
L 809 -78 
Q 694 -675 544 -897 
Q 403 -1106 132 -1218 
Q -138 -1331 -506 -1331 
L -722 -1331 
L -628 -844 
L -481 -844 
Q -144 -844 -1 -703 
Q 141 -563 238 -63 
L 928 3500 
z
M 1197 4863 
L 1772 4863 
L 1631 4134 
L 1056 4134 
L 1197 4863 
z
" transform="scale(0.015625)"/>
      <path id="ArialMT-3c" d="M 350 2003 
L 350 2528 
L 3384 3809 
L 3384 3250 
L 978 2263 
L 3384 1266 
L 3384 706 
L 350 2003 
z
" transform="scale(0.015625)"/>
      <path id="ArialMT-2e" d="M 581 0 
L 581 641 
L 1222 641 
L 1222 0 
L 581 0 
z
" transform="scale(0.015625)"/>
      <path id="ArialMT-2a" d="M 200 3741 
L 344 4184 
Q 841 4009 1066 3881 
Q 1006 4447 1003 4659 
L 1456 4659 
Q 1447 4350 1384 3884 
Q 1706 4047 2122 4184 
L 2266 3741 
Q 1869 3609 1488 3566 
Q 1678 3400 2025 2975 
L 1650 2709 
Q 1469 2956 1222 3381 
Q 991 2941 816 2709 
L 447 2975 
Q 809 3422 966 3566 
Q 563 3644 200 3741 
z
" transform="scale(0.015625)"/>
     </defs>
     <use xlink:href="#ArialMT-5a" transform="translate(0 0.203125)"/>
     <use xlink:href="#ArialMT-4e" transform="translate(61.083984 0.203125)"/>
     <use xlink:href="#ArialMT-46" transform="translate(133.300781 0.203125)"/>
     <use xlink:href="#ArialMT-32" transform="translate(194.384766 0.203125)"/>
     <use xlink:href="#ArialMT-39" transform="translate(250 0.203125)"/>
     <use xlink:href="#ArialMT-32" transform="translate(305.615234 0.203125)"/>
     <use xlink:href="#ArialMT-2c" transform="translate(361.230469 0.203125)"/>
     <use xlink:href="#ArialMT-20" transform="translate(389.013672 0.203125)"/>
     <use xlink:href="#DejaVuSans-Oblique-70" transform="translate(416.796875 0.203125)"/>
     <use xlink:href="#DejaVuSans-Oblique-61" transform="translate(480.273438 -16.203125)scale(0.7)"/>
     <use xlink:href="#DejaVuSans-Oblique-64" transform="translate(523.168945 -16.203125)scale(0.7)"/>
     <use xlink:href="#DejaVuSans-Oblique-6a" transform="translate(567.602539 -16.203125)scale(0.7)"/>
     <use xlink:href="#ArialMT-20" transform="translate(589.785156 0.203125)"/>
     <use xlink:href="#ArialMT-3c" transform="translate(617.568359 0.203125)"/>
     <use xlink:href="#ArialMT-20" transform="translate(675.966797 0.203125)"/>
     <use xlink:href="#ArialMT-2e" transform="translate(703.75 0.203125)"/>
     <use xlink:href="#ArialMT-30" transform="translate(731.533203 0.203125)"/>
     <use xlink:href="#ArialMT-30" transform="translate(787.148438 0.203125)"/>
     <use xlink:href="#ArialMT-31" transform="translate(842.763672 0.203125)"/>
     <use xlink:href="#ArialMT-20" transform="translate(898.378906 0.203125)"/>
     <use xlink:href="#ArialMT-2a" transform="translate(926.162109 0.203125)"/>
     <use xlink:href="#ArialMT-2a" transform="translate(965.078125 0.203125)"/>
     <use xlink:href="#ArialMT-2a" transform="translate(1003.994141 0.203125)"/>
    </g>
   </g>
   <g id="legend_1">
    <g id="patch_5">
     <path d="M 441.91497 69.712344 
L 494.21622 69.712344 
Q 496.01622 69.712344 496.01622 67.912344 
L 496.01622 30.62 
Q 496.01622 28.82 494.21622 28.82 
L 441.91497 28.82 
Q 440.11497 28.82 440.11497 30.62 
L 440.11497 67.912344 
Q 440.11497 69.712344 441.91497 69.712344 
z
" style="fill: #ffffff; opacity: 0.8; stroke: #cccccc; stroke-linejoin: miter"/>
    </g>
    <g id="text_19">
     <!-- Treatment -->
     <g style="fill: #262626" transform="translate(447.729111 38.862031)scale(0.09 -0.09)">
      <use xlink:href="#ArialMT-54"/>
      <use xlink:href="#ArialMT-72" x="57.333984"/>
      <use xlink:href="#ArialMT-65" x="90.634766"/>
      <use xlink:href="#ArialMT-61" x="146.25"/>
      <use xlink:href="#ArialMT-74" x="201.865234"/>
      <use xlink:href="#ArialMT-6d" x="229.648438"/>
      <use xlink:href="#ArialMT-65" x="312.949219"/>
      <use xlink:href="#ArialMT-6e" x="368.564453"/>
      <use xlink:href="#ArialMT-74" x="424.179688"/>
     </g>
    </g>
    <g id="PathCollection_10">
     <defs>
      <path id="m6f8ede9663" d="M 0 3.872983 
C 1.027127 3.872983 2.012324 3.464901 2.738613 2.738613 
C 3.464901 2.012324 3.872983 1.027127 3.872983 0 
C 3.872983 -1.027127 3.464901 -2.012324 2.738613 -2.738613 
C 2.012324 -3.464901 1.027127 -3.872983 0 -3.872983 
C -1.027127 -3.872983 -2.012324 -3.464901 -2.738613 -2.738613 
C -3.464901 -2.012324 -3.872983 -1.027127 -3.872983 0 
C -3.872983 1.027127 -3.464901 2.012324 -2.738613 2.738613 
C -2.012324 3.464901 -1.027127 3.872983 0 3.872983 
z
" style="stroke: #4c72b0"/>
     </defs>
     <g>
      <use xlink:href="#m6f8ede9663" x="452.71497" y="49.230313" style="fill: #4c72b0; stroke: #4c72b0"/>
     </g>
    </g>
    <g id="text_20">
     <!-- BEVA -->
     <g style="fill: #262626" transform="translate(468.91497 51.592813)scale(0.09 -0.09)">
      <defs>
       <path id="ArialMT-42" d="M 469 0 
L 469 4581 
L 2188 4581 
Q 2713 4581 3030 4442 
Q 3347 4303 3526 4014 
Q 3706 3725 3706 3409 
Q 3706 3116 3547 2856 
Q 3388 2597 3066 2438 
Q 3481 2316 3704 2022 
Q 3928 1728 3928 1328 
Q 3928 1006 3792 729 
Q 3656 453 3456 303 
Q 3256 153 2954 76 
Q 2653 0 2216 0 
L 469 0 
z
M 1075 2656 
L 2066 2656 
Q 2469 2656 2644 2709 
Q 2875 2778 2992 2937 
Q 3109 3097 3109 3338 
Q 3109 3566 3000 3739 
Q 2891 3913 2687 3977 
Q 2484 4041 1991 4041 
L 1075 4041 
L 1075 2656 
z
M 1075 541 
L 2216 541 
Q 2509 541 2628 563 
Q 2838 600 2978 687 
Q 3119 775 3209 942 
Q 3300 1109 3300 1328 
Q 3300 1584 3169 1773 
Q 3038 1963 2805 2039 
Q 2572 2116 2134 2116 
L 1075 2116 
L 1075 541 
z
" transform="scale(0.015625)"/>
       <path id="ArialMT-45" d="M 506 0 
L 506 4581 
L 3819 4581 
L 3819 4041 
L 1113 4041 
L 1113 2638 
L 3647 2638 
L 3647 2100 
L 1113 2100 
L 1113 541 
L 3925 541 
L 3925 0 
L 506 0 
z
" transform="scale(0.015625)"/>
       <path id="ArialMT-56" d="M 1803 0 
L 28 4581 
L 684 4581 
L 1875 1253 
Q 2019 853 2116 503 
Q 2222 878 2363 1253 
L 3600 4581 
L 4219 4581 
L 2425 0 
L 1803 0 
z
" transform="scale(0.015625)"/>
       <path id="ArialMT-41" d="M -9 0 
L 1750 4581 
L 2403 4581 
L 4278 0 
L 3588 0 
L 3053 1388 
L 1138 1388 
L 634 0 
L -9 0 
z
M 1313 1881 
L 2866 1881 
L 2388 3150 
Q 2169 3728 2063 4100 
Q 1975 3659 1816 3225 
L 1313 1881 
z
" transform="scale(0.015625)"/>
      </defs>
      <use xlink:href="#ArialMT-42"/>
      <use xlink:href="#ArialMT-45" x="66.699219"/>
      <use xlink:href="#ArialMT-56" x="133.398438"/>
      <use xlink:href="#ArialMT-41" x="192.722656"/>
     </g>
    </g>
    <g id="PathCollection_11">
     <defs>
      <path id="ma39e71832c" d="M 0 3.872983 
C 1.027127 3.872983 2.012324 3.464901 2.738613 2.738613 
C 3.464901 2.012324 3.872983 1.027127 3.872983 0 
C 3.872983 -1.027127 3.464901 -2.012324 2.738613 -2.738613 
C 2.012324 -3.464901 1.027127 -3.872983 0 -3.872983 
C -1.027127 -3.872983 -2.012324 -3.464901 -2.738613 -2.738613 
C -3.464901 -2.012324 -3.872983 -1.027127 -3.872983 0 
C -3.872983 1.027127 -3.464901 2.012324 -2.738613 2.738613 
C -2.012324 3.464901 -1.027127 3.872983 0 3.872983 
z
" style="stroke: #dd8452"/>
     </defs>
     <g>
      <use xlink:href="#ma39e71832c" x="452.71497" y="61.961094" style="fill: #dd8452; stroke: #dd8452"/>
     </g>
    </g>
    <g id="text_21">
     <!-- CTRL -->
     <g style="fill: #262626" transform="translate(468.91497 64.323594)scale(0.09 -0.09)">
      <defs>
       <path id="ArialMT-43" d="M 3763 1606 
L 4369 1453 
Q 4178 706 3683 314 
Q 3188 -78 2472 -78 
Q 1731 -78 1267 223 
Q 803 525 561 1097 
Q 319 1669 319 2325 
Q 319 3041 592 3573 
Q 866 4106 1370 4382 
Q 1875 4659 2481 4659 
Q 3169 4659 3637 4309 
Q 4106 3959 4291 3325 
L 3694 3184 
Q 3534 3684 3231 3912 
Q 2928 4141 2469 4141 
Q 1941 4141 1586 3887 
Q 1231 3634 1087 3207 
Q 944 2781 944 2328 
Q 944 1744 1114 1308 
Q 1284 872 1643 656 
Q 2003 441 2422 441 
Q 2931 441 3284 734 
Q 3638 1028 3763 1606 
z
" transform="scale(0.015625)"/>
       <path id="ArialMT-52" d="M 503 0 
L 503 4581 
L 2534 4581 
Q 3147 4581 3465 4457 
Q 3784 4334 3975 4021 
Q 4166 3709 4166 3331 
Q 4166 2844 3850 2509 
Q 3534 2175 2875 2084 
Q 3116 1969 3241 1856 
Q 3506 1613 3744 1247 
L 4541 0 
L 3778 0 
L 3172 953 
Q 2906 1366 2734 1584 
Q 2563 1803 2427 1890 
Q 2291 1978 2150 2013 
Q 2047 2034 1813 2034 
L 1109 2034 
L 1109 0 
L 503 0 
z
M 1109 2559 
L 2413 2559 
Q 2828 2559 3062 2645 
Q 3297 2731 3419 2920 
Q 3541 3109 3541 3331 
Q 3541 3656 3305 3865 
Q 3069 4075 2559 4075 
L 1109 4075 
L 1109 2559 
z
" transform="scale(0.015625)"/>
       <path id="ArialMT-4c" d="M 469 0 
L 469 4581 
L 1075 4581 
L 1075 541 
L 3331 541 
L 3331 0 
L 469 0 
z
" transform="scale(0.015625)"/>
      </defs>
      <use xlink:href="#ArialMT-43"/>
      <use xlink:href="#ArialMT-54" x="72.216797"/>
      <use xlink:href="#ArialMT-52" x="133.300781"/>
      <use xlink:href="#ArialMT-4c" x="205.517578"/>
     </g>
    </g>
   </g>
  </g>
 </g>
 <defs>
  <clipPath id="pb27d969abd">
   <rect x="47.22" y="24.32" width="453.29622" height="189.57811"/>
  </clipPath>
 </defs>
</svg>
