<?xml version="1.0" encoding="utf-8" standalone="no"?>
<!DOCTYPE svg PUBLIC "-//W3C//DTD SVG 1.1//EN"
  "http://www.w3.org/Graphics/SVG/1.1/DTD/svg11.dtd">
<svg xmlns:xlink="http://www.w3.org/1999/xlink" width="510.23622pt" height="255.11811pt" viewBox="0 0 510.23622 255.11811" xmlns="http://www.w3.org/2000/svg" version="1.1">
 <metadata>
  <rdf:RDF xmlns:dc="http://purl.org/dc/elements/1.1/" xmlns:cc="http://creativecommons.org/ns#" xmlns:rdf="http://www.w3.org/1999/02/22-rdf-syntax-ns#">
   <cc:Work>
    <dc:type rdf:resource="http://purl.org/dc/dcmitype/StillImage"/>
    <dc:date>2022-04-27T00:17:45.019930</dc:date>
    <dc:format>image/svg+xml</dc:format>
    <dc:creator>
     <cc:Agent>
      <dc:title>Matplotlib v3.5.1, https://matplotlib.org/</dc:title>
     </cc:Agent>
    </dc:creator>
   </cc:Work>
  </rdf:RDF>
 </metadata>
 <defs>
  <style type="text/css">*{stroke-linejoin: round; stroke-linecap: butt}</style>
 </defs>
 <g id="figure_1">
  <g id="patch_1">
   <path d="M 0 255.11811 
L 510.23622 255.11811 
L 510.23622 0 
L 0 0 
z
" style="fill: #ffffff"/>
  </g>
  <g id="axes_1">
   <g id="patch_2">
    <path d="M 47.22 213.89811 
L 500.51622 213.89811 
L 500.51622 24.32 
L 47.22 24.32 
z
" style="fill: #ffffff"/>
   </g>
   <g id="matplotlib.axis_1">
    <g id="xtick_1">
     <g id="text_1">
      <!-- 49 -->
      <g style="fill: #444444" transform="translate(74.593458 229.840141)scale(0.09 -0.09)">
       <defs>
        <path id="ArialMT-34" d="M 2069 0 
L 2069 1097 
L 81 1097 
L 81 1613 
L 2172 4581 
L 2631 4581 
L 2631 1613 
L 3250 1613 
L 3250 1097 
L 2631 1097 
L 2631 0 
L 2069 0 
z
M 2069 1613 
L 2069 3678 
L 634 1613 
L 2069 1613 
z
" transform="scale(0.015625)"/>
        <path id="ArialMT-39" d="M 350 1059 
L 891 1109 
Q 959 728 1153 556 
Q 1347 384 1650 384 
Q 1909 384 2104 503 
Q 2300 622 2425 820 
Q 2550 1019 2634 1356 
Q 2719 1694 2719 2044 
Q 2719 2081 2716 2156 
Q 2547 1888 2255 1720 
Q 1963 1553 1622 1553 
Q 1053 1553 659 1965 
Q 266 2378 266 3053 
Q 266 3750 677 4175 
Q 1088 4600 1706 4600 
Q 2153 4600 2523 4359 
Q 2894 4119 3086 3673 
Q 3278 3228 3278 2384 
Q 3278 1506 3087 986 
Q 2897 466 2520 194 
Q 2144 -78 1638 -78 
Q 1100 -78 759 220 
Q 419 519 350 1059 
z
M 2653 3081 
Q 2653 3566 2395 3850 
Q 2138 4134 1775 4134 
Q 1400 4134 1122 3828 
Q 844 3522 844 3034 
Q 844 2597 1108 2323 
Q 1372 2050 1759 2050 
Q 2150 2050 2401 2323 
Q 2653 2597 2653 3081 
z
" transform="scale(0.015625)"/>
       </defs>
       <use xlink:href="#ArialMT-34"/>
       <use xlink:href="#ArialMT-39" x="55.615234"/>
      </g>
     </g>
    </g>
    <g id="xtick_2">
     <g id="text_2">
      <!-- 17 -->
      <g style="fill: #444444" transform="translate(139.350061 229.840141)scale(0.09 -0.09)">
       <defs>
        <path id="ArialMT-31" d="M 2384 0 
L 1822 0 
L 1822 3584 
Q 1619 3391 1289 3197 
Q 959 3003 697 2906 
L 697 3450 
Q 1169 3672 1522 3987 
Q 1875 4303 2022 4600 
L 2384 4600 
L 2384 0 
z
" transform="scale(0.015625)"/>
        <path id="ArialMT-37" d="M 303 3981 
L 303 4522 
L 3269 4522 
L 3269 4084 
Q 2831 3619 2401 2847 
Q 1972 2075 1738 1259 
Q 1569 684 1522 0 
L 944 0 
Q 953 541 1156 1306 
Q 1359 2072 1739 2783 
Q 2119 3494 2547 3981 
L 303 3981 
z
" transform="scale(0.015625)"/>
       </defs>
       <use xlink:href="#ArialMT-31"/>
       <use xlink:href="#ArialMT-37" x="55.615234"/>
      </g>
     </g>
    </g>
    <g id="xtick_3">
     <g id="text_3">
      <!-- 69 -->
      <g style="fill: #444444" transform="translate(204.106664 229.840141)scale(0.09 -0.09)">
       <defs>
        <path id="ArialMT-36" d="M 3184 3459 
L 2625 3416 
Q 2550 3747 2413 3897 
Q 2184 4138 1850 4138 
Q 1581 4138 1378 3988 
Q 1113 3794 959 3422 
Q 806 3050 800 2363 
Q 1003 2672 1297 2822 
Q 1591 2972 1913 2972 
Q 2475 2972 2870 2558 
Q 3266 2144 3266 1488 
Q 3266 1056 3080 686 
Q 2894 316 2569 119 
Q 2244 -78 1831 -78 
Q 1128 -78 684 439 
Q 241 956 241 2144 
Q 241 3472 731 4075 
Q 1159 4600 1884 4600 
Q 2425 4600 2770 4297 
Q 3116 3994 3184 3459 
z
M 888 1484 
Q 888 1194 1011 928 
Q 1134 663 1356 523 
Q 1578 384 1822 384 
Q 2178 384 2434 671 
Q 2691 959 2691 1453 
Q 2691 1928 2437 2201 
Q 2184 2475 1800 2475 
Q 1419 2475 1153 2201 
Q 888 1928 888 1484 
z
" transform="scale(0.015625)"/>
       </defs>
       <use xlink:href="#ArialMT-36"/>
       <use xlink:href="#ArialMT-39" x="55.615234"/>
      </g>
     </g>
    </g>
    <g id="xtick_4">
     <g id="text_4">
      <!-- 15 -->
      <g style="fill: #444444" transform="translate(268.863266 229.840141)scale(0.09 -0.09)">
       <defs>
        <path id="ArialMT-35" d="M 266 1200 
L 856 1250 
Q 922 819 1161 601 
Q 1400 384 1738 384 
Q 2144 384 2425 690 
Q 2706 997 2706 1503 
Q 2706 1984 2436 2262 
Q 2166 2541 1728 2541 
Q 1456 2541 1237 2417 
Q 1019 2294 894 2097 
L 366 2166 
L 809 4519 
L 3088 4519 
L 3088 3981 
L 1259 3981 
L 1013 2750 
Q 1425 3038 1878 3038 
Q 2478 3038 2890 2622 
Q 3303 2206 3303 1553 
Q 3303 931 2941 478 
Q 2500 -78 1738 -78 
Q 1113 -78 717 272 
Q 322 622 266 1200 
z
" transform="scale(0.015625)"/>
       </defs>
       <use xlink:href="#ArialMT-31"/>
       <use xlink:href="#ArialMT-35" x="55.615234"/>
      </g>
     </g>
    </g>
    <g id="xtick_5">
     <g id="text_5">
      <!-- 5 -->
      <g style="fill: #444444" transform="translate(336.122291 229.840141)scale(0.09 -0.09)">
       <use xlink:href="#ArialMT-35"/>
      </g>
     </g>
    </g>
    <g id="xtick_6">
     <g id="text_6">
      <!-- 126 -->
      <g style="fill: #444444" transform="translate(395.87405 229.840141)scale(0.09 -0.09)">
       <defs>
        <path id="ArialMT-32" d="M 3222 541 
L 3222 0 
L 194 0 
Q 188 203 259 391 
Q 375 700 629 1000 
Q 884 1300 1366 1694 
Q 2113 2306 2375 2664 
Q 2638 3022 2638 3341 
Q 2638 3675 2398 3904 
Q 2159 4134 1775 4134 
Q 1369 4134 1125 3890 
Q 881 3647 878 3216 
L 300 3275 
Q 359 3922 746 4261 
Q 1134 4600 1788 4600 
Q 2447 4600 2831 4234 
Q 3216 3869 3216 3328 
Q 3216 3053 3103 2787 
Q 2991 2522 2730 2228 
Q 2469 1934 1863 1422 
Q 1356 997 1212 845 
Q 1069 694 975 541 
L 3222 541 
z
" transform="scale(0.015625)"/>
       </defs>
       <use xlink:href="#ArialMT-31"/>
       <use xlink:href="#ArialMT-32" x="55.615234"/>
       <use xlink:href="#ArialMT-36" x="111.230469"/>
      </g>
     </g>
    </g>
    <g id="xtick_7">
     <g id="text_7">
      <!-- 62 -->
      <g style="fill: #444444" transform="translate(463.133075 229.840141)scale(0.09 -0.09)">
       <use xlink:href="#ArialMT-36"/>
       <use xlink:href="#ArialMT-32" x="55.615234"/>
      </g>
     </g>
    </g>
    <g id="text_8">
     <!-- Patient -->
     <g style="fill: #444444" transform="translate(259.859048 242.070923)scale(0.09 -0.09)">
      <defs>
       <path id="ArialMT-50" d="M 494 0 
L 494 4581 
L 2222 4581 
Q 2678 4581 2919 4538 
Q 3256 4481 3484 4323 
Q 3713 4166 3852 3881 
Q 3991 3597 3991 3256 
Q 3991 2672 3619 2267 
Q 3247 1863 2275 1863 
L 1100 1863 
L 1100 0 
L 494 0 
z
M 1100 2403 
L 2284 2403 
Q 2872 2403 3119 2622 
Q 3366 2841 3366 3238 
Q 3366 3525 3220 3729 
Q 3075 3934 2838 4000 
Q 2684 4041 2272 4041 
L 1100 4041 
L 1100 2403 
z
" transform="scale(0.015625)"/>
       <path id="ArialMT-61" d="M 2588 409 
Q 2275 144 1986 34 
Q 1697 -75 1366 -75 
Q 819 -75 525 192 
Q 231 459 231 875 
Q 231 1119 342 1320 
Q 453 1522 633 1644 
Q 813 1766 1038 1828 
Q 1203 1872 1538 1913 
Q 2219 1994 2541 2106 
Q 2544 2222 2544 2253 
Q 2544 2597 2384 2738 
Q 2169 2928 1744 2928 
Q 1347 2928 1158 2789 
Q 969 2650 878 2297 
L 328 2372 
Q 403 2725 575 2942 
Q 747 3159 1072 3276 
Q 1397 3394 1825 3394 
Q 2250 3394 2515 3294 
Q 2781 3194 2906 3042 
Q 3031 2891 3081 2659 
Q 3109 2516 3109 2141 
L 3109 1391 
Q 3109 606 3145 398 
Q 3181 191 3288 0 
L 2700 0 
Q 2613 175 2588 409 
z
M 2541 1666 
Q 2234 1541 1622 1453 
Q 1275 1403 1131 1340 
Q 988 1278 909 1158 
Q 831 1038 831 891 
Q 831 666 1001 516 
Q 1172 366 1500 366 
Q 1825 366 2078 508 
Q 2331 650 2450 897 
Q 2541 1088 2541 1459 
L 2541 1666 
z
" transform="scale(0.015625)"/>
       <path id="ArialMT-74" d="M 1650 503 
L 1731 6 
Q 1494 -44 1306 -44 
Q 1000 -44 831 53 
Q 663 150 594 308 
Q 525 466 525 972 
L 525 2881 
L 113 2881 
L 113 3319 
L 525 3319 
L 525 4141 
L 1084 4478 
L 1084 3319 
L 1650 3319 
L 1650 2881 
L 1084 2881 
L 1084 941 
Q 1084 700 1114 631 
Q 1144 563 1211 522 
Q 1278 481 1403 481 
Q 1497 481 1650 503 
z
" transform="scale(0.015625)"/>
       <path id="ArialMT-69" d="M 425 3934 
L 425 4581 
L 988 4581 
L 988 3934 
L 425 3934 
z
M 425 0 
L 425 3319 
L 988 3319 
L 988 0 
L 425 0 
z
" transform="scale(0.015625)"/>
       <path id="ArialMT-65" d="M 2694 1069 
L 3275 997 
Q 3138 488 2766 206 
Q 2394 -75 1816 -75 
Q 1088 -75 661 373 
Q 234 822 234 1631 
Q 234 2469 665 2931 
Q 1097 3394 1784 3394 
Q 2450 3394 2872 2941 
Q 3294 2488 3294 1666 
Q 3294 1616 3291 1516 
L 816 1516 
Q 847 969 1125 678 
Q 1403 388 1819 388 
Q 2128 388 2347 550 
Q 2566 713 2694 1069 
z
M 847 1978 
L 2700 1978 
Q 2663 2397 2488 2606 
Q 2219 2931 1791 2931 
Q 1403 2931 1139 2672 
Q 875 2413 847 1978 
z
" transform="scale(0.015625)"/>
       <path id="ArialMT-6e" d="M 422 0 
L 422 3319 
L 928 3319 
L 928 2847 
Q 1294 3394 1984 3394 
Q 2284 3394 2536 3286 
Q 2788 3178 2913 3003 
Q 3038 2828 3088 2588 
Q 3119 2431 3119 2041 
L 3119 0 
L 2556 0 
L 2556 2019 
Q 2556 2363 2490 2533 
Q 2425 2703 2258 2804 
Q 2091 2906 1866 2906 
Q 1506 2906 1245 2678 
Q 984 2450 984 1813 
L 984 0 
L 422 0 
z
" transform="scale(0.015625)"/>
      </defs>
      <use xlink:href="#ArialMT-50"/>
      <use xlink:href="#ArialMT-61" x="66.699219"/>
      <use xlink:href="#ArialMT-74" x="122.314453"/>
      <use xlink:href="#ArialMT-69" x="150.097656"/>
      <use xlink:href="#ArialMT-65" x="172.314453"/>
      <use xlink:href="#ArialMT-6e" x="227.929688"/>
      <use xlink:href="#ArialMT-74" x="283.544922"/>
     </g>
    </g>
   </g>
   <g id="matplotlib.axis_2">
    <g id="ytick_1">
     <g id="text_9">
      <!-- 0 -->
      <g style="fill: #444444" transform="translate(32.715156 215.595902)scale(0.09 -0.09)">
       <defs>
        <path id="ArialMT-30" d="M 266 2259 
Q 266 3072 433 3567 
Q 600 4063 929 4331 
Q 1259 4600 1759 4600 
Q 2128 4600 2406 4451 
Q 2684 4303 2865 4023 
Q 3047 3744 3150 3342 
Q 3253 2941 3253 2259 
Q 3253 1453 3087 958 
Q 2922 463 2592 192 
Q 2263 -78 1759 -78 
Q 1097 -78 719 397 
Q 266 969 266 2259 
z
M 844 2259 
Q 844 1131 1108 757 
Q 1372 384 1759 384 
Q 2147 384 2411 759 
Q 2675 1134 2675 2259 
Q 2675 3391 2411 3762 
Q 2147 4134 1753 4134 
Q 1366 4134 1134 3806 
Q 844 3388 844 2259 
z
" transform="scale(0.015625)"/>
       </defs>
       <use xlink:href="#ArialMT-30"/>
      </g>
     </g>
    </g>
    <g id="ytick_2">
     <g id="text_10">
      <!-- 50 -->
      <g style="fill: #444444" transform="translate(27.710313 190.731438)scale(0.09 -0.09)">
       <use xlink:href="#ArialMT-35"/>
       <use xlink:href="#ArialMT-30" x="55.615234"/>
      </g>
     </g>
    </g>
    <g id="ytick_3">
     <g id="text_11">
      <!-- 100 -->
      <g style="fill: #444444" transform="translate(22.705469 165.866973)scale(0.09 -0.09)">
       <use xlink:href="#ArialMT-31"/>
       <use xlink:href="#ArialMT-30" x="55.615234"/>
       <use xlink:href="#ArialMT-30" x="111.230469"/>
      </g>
     </g>
    </g>
    <g id="ytick_4">
     <g id="text_12">
      <!-- 150 -->
      <g style="fill: #444444" transform="translate(22.705469 141.002509)scale(0.09 -0.09)">
       <use xlink:href="#ArialMT-31"/>
       <use xlink:href="#ArialMT-35" x="55.615234"/>
       <use xlink:href="#ArialMT-30" x="111.230469"/>
      </g>
     </g>
    </g>
    <g id="ytick_5">
     <g id="text_13">
      <!-- 200 -->
      <g style="fill: #444444" transform="translate(22.705469 116.138044)scale(0.09 -0.09)">
       <use xlink:href="#ArialMT-32"/>
       <use xlink:href="#ArialMT-30" x="55.615234"/>
       <use xlink:href="#ArialMT-30" x="111.230469"/>
      </g>
     </g>
    </g>
    <g id="ytick_6">
     <g id="text_14">
      <!-- 250 -->
      <g style="fill: #444444" transform="translate(22.705469 91.27358)scale(0.09 -0.09)">
       <use xlink:href="#ArialMT-32"/>
       <use xlink:href="#ArialMT-35" x="55.615234"/>
       <use xlink:href="#ArialMT-30" x="111.230469"/>
      </g>
     </g>
    </g>
    <g id="ytick_7">
     <g id="text_15">
      <!-- 300 -->
      <g style="fill: #444444" transform="translate(22.705469 66.409115)scale(0.09 -0.09)">
       <defs>
        <path id="ArialMT-33" d="M 269 1209 
L 831 1284 
Q 928 806 1161 595 
Q 1394 384 1728 384 
Q 2125 384 2398 659 
Q 2672 934 2672 1341 
Q 2672 1728 2419 1979 
Q 2166 2231 1775 2231 
Q 1616 2231 1378 2169 
L 1441 2663 
Q 1497 2656 1531 2656 
Q 1891 2656 2178 2843 
Q 2466 3031 2466 3422 
Q 2466 3731 2256 3934 
Q 2047 4138 1716 4138 
Q 1388 4138 1169 3931 
Q 950 3725 888 3313 
L 325 3413 
Q 428 3978 793 4289 
Q 1159 4600 1703 4600 
Q 2078 4600 2393 4439 
Q 2709 4278 2876 4000 
Q 3044 3722 3044 3409 
Q 3044 3113 2884 2869 
Q 2725 2625 2413 2481 
Q 2819 2388 3044 2092 
Q 3269 1797 3269 1353 
Q 3269 753 2831 336 
Q 2394 -81 1725 -81 
Q 1122 -81 723 278 
Q 325 638 269 1209 
z
" transform="scale(0.015625)"/>
       </defs>
       <use xlink:href="#ArialMT-33"/>
       <use xlink:href="#ArialMT-30" x="55.615234"/>
       <use xlink:href="#ArialMT-30" x="111.230469"/>
      </g>
     </g>
    </g>
    <g id="ytick_8">
     <g id="text_16">
      <!-- 350 -->
      <g style="fill: #444444" transform="translate(22.705469 41.544651)scale(0.09 -0.09)">
       <use xlink:href="#ArialMT-33"/>
       <use xlink:href="#ArialMT-35" x="55.615234"/>
       <use xlink:href="#ArialMT-30" x="111.230469"/>
      </g>
     </g>
    </g>
    <g id="text_17">
     <!-- Trimmed Means of M values (TMM) -->
     <g style="fill: #444444" transform="translate(16.81125 190.194993)rotate(-90)scale(0.09 -0.09)">
      <defs>
       <path id="ArialMT-54" d="M 1659 0 
L 1659 4041 
L 150 4041 
L 150 4581 
L 3781 4581 
L 3781 4041 
L 2266 4041 
L 2266 0 
L 1659 0 
z
" transform="scale(0.015625)"/>
       <path id="ArialMT-72" d="M 416 0 
L 416 3319 
L 922 3319 
L 922 2816 
Q 1116 3169 1280 3281 
Q 1444 3394 1641 3394 
Q 1925 3394 2219 3213 
L 2025 2691 
Q 1819 2813 1613 2813 
Q 1428 2813 1281 2702 
Q 1134 2591 1072 2394 
Q 978 2094 978 1738 
L 978 0 
L 416 0 
z
" transform="scale(0.015625)"/>
       <path id="ArialMT-6d" d="M 422 0 
L 422 3319 
L 925 3319 
L 925 2853 
Q 1081 3097 1340 3245 
Q 1600 3394 1931 3394 
Q 2300 3394 2536 3241 
Q 2772 3088 2869 2813 
Q 3263 3394 3894 3394 
Q 4388 3394 4653 3120 
Q 4919 2847 4919 2278 
L 4919 0 
L 4359 0 
L 4359 2091 
Q 4359 2428 4304 2576 
Q 4250 2725 4106 2815 
Q 3963 2906 3769 2906 
Q 3419 2906 3187 2673 
Q 2956 2441 2956 1928 
L 2956 0 
L 2394 0 
L 2394 2156 
Q 2394 2531 2256 2718 
Q 2119 2906 1806 2906 
Q 1569 2906 1367 2781 
Q 1166 2656 1075 2415 
Q 984 2175 984 1722 
L 984 0 
L 422 0 
z
" transform="scale(0.015625)"/>
       <path id="ArialMT-64" d="M 2575 0 
L 2575 419 
Q 2259 -75 1647 -75 
Q 1250 -75 917 144 
Q 584 363 401 755 
Q 219 1147 219 1656 
Q 219 2153 384 2558 
Q 550 2963 881 3178 
Q 1213 3394 1622 3394 
Q 1922 3394 2156 3267 
Q 2391 3141 2538 2938 
L 2538 4581 
L 3097 4581 
L 3097 0 
L 2575 0 
z
M 797 1656 
Q 797 1019 1065 703 
Q 1334 388 1700 388 
Q 2069 388 2326 689 
Q 2584 991 2584 1609 
Q 2584 2291 2321 2609 
Q 2059 2928 1675 2928 
Q 1300 2928 1048 2622 
Q 797 2316 797 1656 
z
" transform="scale(0.015625)"/>
       <path id="ArialMT-20" transform="scale(0.015625)"/>
       <path id="ArialMT-4d" d="M 475 0 
L 475 4581 
L 1388 4581 
L 2472 1338 
Q 2622 884 2691 659 
Q 2769 909 2934 1394 
L 4031 4581 
L 4847 4581 
L 4847 0 
L 4263 0 
L 4263 3834 
L 2931 0 
L 2384 0 
L 1059 3900 
L 1059 0 
L 475 0 
z
" transform="scale(0.015625)"/>
       <path id="ArialMT-73" d="M 197 991 
L 753 1078 
Q 800 744 1014 566 
Q 1228 388 1613 388 
Q 2000 388 2187 545 
Q 2375 703 2375 916 
Q 2375 1106 2209 1216 
Q 2094 1291 1634 1406 
Q 1016 1563 777 1677 
Q 538 1791 414 1992 
Q 291 2194 291 2438 
Q 291 2659 392 2848 
Q 494 3038 669 3163 
Q 800 3259 1026 3326 
Q 1253 3394 1513 3394 
Q 1903 3394 2198 3281 
Q 2494 3169 2634 2976 
Q 2775 2784 2828 2463 
L 2278 2388 
Q 2241 2644 2061 2787 
Q 1881 2931 1553 2931 
Q 1166 2931 1000 2803 
Q 834 2675 834 2503 
Q 834 2394 903 2306 
Q 972 2216 1119 2156 
Q 1203 2125 1616 2013 
Q 2213 1853 2448 1751 
Q 2684 1650 2818 1456 
Q 2953 1263 2953 975 
Q 2953 694 2789 445 
Q 2625 197 2315 61 
Q 2006 -75 1616 -75 
Q 969 -75 630 194 
Q 291 463 197 991 
z
" transform="scale(0.015625)"/>
       <path id="ArialMT-6f" d="M 213 1659 
Q 213 2581 725 3025 
Q 1153 3394 1769 3394 
Q 2453 3394 2887 2945 
Q 3322 2497 3322 1706 
Q 3322 1066 3130 698 
Q 2938 331 2570 128 
Q 2203 -75 1769 -75 
Q 1072 -75 642 372 
Q 213 819 213 1659 
z
M 791 1659 
Q 791 1022 1069 705 
Q 1347 388 1769 388 
Q 2188 388 2466 706 
Q 2744 1025 2744 1678 
Q 2744 2294 2464 2611 
Q 2184 2928 1769 2928 
Q 1347 2928 1069 2612 
Q 791 2297 791 1659 
z
" transform="scale(0.015625)"/>
       <path id="ArialMT-66" d="M 556 0 
L 556 2881 
L 59 2881 
L 59 3319 
L 556 3319 
L 556 3672 
Q 556 4006 616 4169 
Q 697 4388 901 4523 
Q 1106 4659 1475 4659 
Q 1713 4659 2000 4603 
L 1916 4113 
Q 1741 4144 1584 4144 
Q 1328 4144 1222 4034 
Q 1116 3925 1116 3625 
L 1116 3319 
L 1763 3319 
L 1763 2881 
L 1116 2881 
L 1116 0 
L 556 0 
z
" transform="scale(0.015625)"/>
       <path id="ArialMT-76" d="M 1344 0 
L 81 3319 
L 675 3319 
L 1388 1331 
Q 1503 1009 1600 663 
Q 1675 925 1809 1294 
L 2547 3319 
L 3125 3319 
L 1869 0 
L 1344 0 
z
" transform="scale(0.015625)"/>
       <path id="ArialMT-6c" d="M 409 0 
L 409 4581 
L 972 4581 
L 972 0 
L 409 0 
z
" transform="scale(0.015625)"/>
       <path id="ArialMT-75" d="M 2597 0 
L 2597 488 
Q 2209 -75 1544 -75 
Q 1250 -75 995 37 
Q 741 150 617 320 
Q 494 491 444 738 
Q 409 903 409 1263 
L 409 3319 
L 972 3319 
L 972 1478 
Q 972 1038 1006 884 
Q 1059 663 1231 536 
Q 1403 409 1656 409 
Q 1909 409 2131 539 
Q 2353 669 2445 892 
Q 2538 1116 2538 1541 
L 2538 3319 
L 3100 3319 
L 3100 0 
L 2597 0 
z
" transform="scale(0.015625)"/>
       <path id="ArialMT-28" d="M 1497 -1347 
Q 1031 -759 709 28 
Q 388 816 388 1659 
Q 388 2403 628 3084 
Q 909 3875 1497 4659 
L 1900 4659 
Q 1522 4009 1400 3731 
Q 1209 3300 1100 2831 
Q 966 2247 966 1656 
Q 966 153 1900 -1347 
L 1497 -1347 
z
" transform="scale(0.015625)"/>
       <path id="ArialMT-29" d="M 791 -1347 
L 388 -1347 
Q 1322 153 1322 1656 
Q 1322 2244 1188 2822 
Q 1081 3291 891 3722 
Q 769 4003 388 4659 
L 791 4659 
Q 1378 3875 1659 3084 
Q 1900 2403 1900 1659 
Q 1900 816 1576 28 
Q 1253 -759 791 -1347 
z
" transform="scale(0.015625)"/>
      </defs>
      <use xlink:href="#ArialMT-54"/>
      <use xlink:href="#ArialMT-72" x="57.333984"/>
      <use xlink:href="#ArialMT-69" x="90.634766"/>
      <use xlink:href="#ArialMT-6d" x="112.851562"/>
      <use xlink:href="#ArialMT-6d" x="196.152344"/>
      <use xlink:href="#ArialMT-65" x="279.453125"/>
      <use xlink:href="#ArialMT-64" x="335.068359"/>
      <use xlink:href="#ArialMT-20" x="390.683594"/>
      <use xlink:href="#ArialMT-4d" x="418.466797"/>
      <use xlink:href="#ArialMT-65" x="501.767578"/>
      <use xlink:href="#ArialMT-61" x="557.382812"/>
      <use xlink:href="#ArialMT-6e" x="612.998047"/>
      <use xlink:href="#ArialMT-73" x="668.613281"/>
      <use xlink:href="#ArialMT-20" x="718.613281"/>
      <use xlink:href="#ArialMT-6f" x="746.396484"/>
      <use xlink:href="#ArialMT-66" x="802.011719"/>
      <use xlink:href="#ArialMT-20" x="829.794922"/>
      <use xlink:href="#ArialMT-4d" x="857.578125"/>
      <use xlink:href="#ArialMT-20" x="940.878906"/>
      <use xlink:href="#ArialMT-76" x="968.662109"/>
      <use xlink:href="#ArialMT-61" x="1018.662109"/>
      <use xlink:href="#ArialMT-6c" x="1074.277344"/>
      <use xlink:href="#ArialMT-75" x="1096.494141"/>
      <use xlink:href="#ArialMT-65" x="1152.109375"/>
      <use xlink:href="#ArialMT-73" x="1207.724609"/>
      <use xlink:href="#ArialMT-20" x="1257.724609"/>
      <use xlink:href="#ArialMT-28" x="1285.507812"/>
      <use xlink:href="#ArialMT-54" x="1318.808594"/>
      <use xlink:href="#ArialMT-4d" x="1379.892578"/>
      <use xlink:href="#ArialMT-4d" x="1463.193359"/>
      <use xlink:href="#ArialMT-29" x="1546.494141"/>
     </g>
    </g>
   </g>
   <g id="PolyCollection_1">
    <defs>
     <path id="md63f9d17e6" d="M 94.009272 -56.587663 
L 65.187331 -56.587663 
L 64.90022 -56.804994 
L 64.627581 -57.022326 
L 64.370038 -57.239657 
L 64.128121 -57.456989 
L 63.902267 -57.67432 
L 63.692812 -57.891652 
L 63.49999 -58.108983 
L 63.323936 -58.326314 
L 63.164681 -58.543646 
L 63.022155 -58.760977 
L 62.896187 -58.978309 
L 62.786514 -59.19564 
L 62.692777 -59.412971 
L 62.614531 -59.630303 
L 62.551251 -59.847634 
L 62.502338 -60.064966 
L 62.467124 -60.282297 
L 62.444884 -60.499628 
L 62.434842 -60.71696 
L 62.436183 -60.934291 
L 62.448058 -61.151623 
L 62.4696 -61.368954 
L 62.499926 -61.586286 
L 62.538154 -61.803617 
L 62.583408 -62.020948 
L 62.634828 -62.23828 
L 62.691581 -62.455611 
L 62.752866 -62.672943 
L 62.817925 -62.890274 
L 62.886046 -63.107605 
L 62.956576 -63.324937 
L 63.028918 -63.542268 
L 63.102541 -63.7596 
L 63.176982 -63.976931 
L 63.251849 -64.194263 
L 63.32682 -64.411594 
L 63.401648 -64.628925 
L 63.476157 -64.846257 
L 63.550242 -65.063588 
L 63.623865 -65.28092 
L 63.697054 -65.498251 
L 63.7699 -65.715582 
L 63.842549 -65.932914 
L 63.915198 -66.150245 
L 63.98809 -66.367577 
L 64.061507 -66.584908 
L 64.135765 -66.802239 
L 64.211204 -67.019571 
L 64.288184 -67.236902 
L 64.367078 -67.454234 
L 64.448263 -67.671565 
L 64.532115 -67.888897 
L 64.619002 -68.106228 
L 64.70928 -68.323559 
L 64.803283 -68.540891 
L 64.901324 -68.758222 
L 65.003686 -68.975554 
L 65.110618 -69.192885 
L 65.222336 -69.410216 
L 65.339016 -69.627548 
L 65.460795 -69.844879 
L 65.587771 -70.062211 
L 65.719996 -70.279542 
L 65.857485 -70.496874 
L 66.000211 -70.714205 
L 66.148108 -70.931536 
L 66.301074 -71.148868 
L 66.458973 -71.366199 
L 66.621636 -71.583531 
L 66.788868 -71.800862 
L 66.960446 -72.018193 
L 67.136129 -72.235525 
L 67.315657 -72.452856 
L 67.498759 -72.670188 
L 67.685153 -72.887519 
L 67.87455 -73.10485 
L 68.066663 -73.322182 
L 68.261203 -73.539513 
L 68.457888 -73.756845 
L 68.656441 -73.974176 
L 68.8566 -74.191508 
L 69.05811 -74.408839 
L 69.260734 -74.62617 
L 69.46425 -74.843502 
L 69.668451 -75.060833 
L 69.873148 -75.278165 
L 70.078171 -75.495496 
L 70.283365 -75.712827 
L 70.488592 -75.930159 
L 70.693731 -76.14749 
L 70.898674 -76.364822 
L 71.103327 -76.582153 
L 71.307607 -76.799485 
L 71.51144 -77.016816 
L 71.714761 -77.234147 
L 71.91751 -77.451479 
L 72.119629 -77.66881 
L 72.321066 -77.886142 
L 72.521763 -78.103473 
L 86.67484 -78.103473 
L 86.67484 -78.103473 
L 86.875537 -77.886142 
L 87.076974 -77.66881 
L 87.279093 -77.451479 
L 87.481842 -77.234147 
L 87.685163 -77.016816 
L 87.888996 -76.799485 
L 88.093276 -76.582153 
L 88.297929 -76.364822 
L 88.502872 -76.14749 
L 88.70801 -75.930159 
L 88.913238 -75.712827 
L 89.118432 -75.495496 
L 89.323455 -75.278165 
L 89.528152 -75.060833 
L 89.732353 -74.843502 
L 89.935869 -74.62617 
L 90.138493 -74.408839 
L 90.340003 -74.191508 
L 90.540162 -73.974176 
L 90.738715 -73.756845 
L 90.9354 -73.539513 
L 91.12994 -73.322182 
L 91.322052 -73.10485 
L 91.51145 -72.887519 
L 91.697844 -72.670188 
L 91.880946 -72.452856 
L 92.060474 -72.235525 
L 92.236157 -72.018193 
L 92.407735 -71.800862 
L 92.574966 -71.583531 
L 92.73763 -71.366199 
L 92.895528 -71.148868 
L 93.048495 -70.931536 
L 93.196392 -70.714205 
L 93.339118 -70.496874 
L 93.476607 -70.279542 
L 93.608832 -70.062211 
L 93.735807 -69.844879 
L 93.857587 -69.627548 
L 93.974267 -69.410216 
L 94.085985 -69.192885 
L 94.192917 -68.975554 
L 94.295279 -68.758222 
L 94.39332 -68.540891 
L 94.487323 -68.323559 
L 94.577601 -68.106228 
L 94.664488 -67.888897 
L 94.74834 -67.671565 
L 94.829525 -67.454234 
L 94.908419 -67.236902 
L 94.985399 -67.019571 
L 95.060838 -66.802239 
L 95.135096 -66.584908 
L 95.208513 -66.367577 
L 95.281405 -66.150245 
L 95.354054 -65.932914 
L 95.426702 -65.715582 
L 95.499549 -65.498251 
L 95.572738 -65.28092 
L 95.646361 -65.063588 
L 95.720446 -64.846257 
L 95.794955 -64.628925 
L 95.869783 -64.411594 
L 95.944754 -64.194263 
L 96.019621 -63.976931 
L 96.094062 -63.7596 
L 96.167685 -63.542268 
L 96.240027 -63.324937 
L 96.310556 -63.107605 
L 96.378678 -62.890274 
L 96.443737 -62.672943 
L 96.505022 -62.455611 
L 96.561775 -62.23828 
L 96.613195 -62.020948 
L 96.658448 -61.803617 
L 96.696676 -61.586286 
L 96.727003 -61.368954 
L 96.748544 -61.151623 
L 96.76042 -60.934291 
L 96.761761 -60.71696 
L 96.751719 -60.499628 
L 96.729479 -60.282297 
L 96.694265 -60.064966 
L 96.645352 -59.847634 
L 96.582072 -59.630303 
L 96.503826 -59.412971 
L 96.410089 -59.19564 
L 96.300415 -58.978309 
L 96.174448 -58.760977 
L 96.031922 -58.543646 
L 95.872667 -58.326314 
L 95.696613 -58.108983 
L 95.503791 -57.891652 
L 95.294336 -57.67432 
L 95.068482 -57.456989 
L 94.826565 -57.239657 
L 94.569022 -57.022326 
L 94.296383 -56.804994 
L 94.009272 -56.587663 
z
" style="stroke: #999999; stroke-width: 2"/>
    </defs>
    <g clip-path="url(#p7c0564932b)">
     <use xlink:href="#md63f9d17e6" x="0" y="255.11811" style="fill: #ffffff; stroke: #999999; stroke-width: 2"/>
    </g>
   </g>
   <g id="PolyCollection_2">
    <defs>
     <path id="m50f6180a1d" d="M 150.338919 -178.877027 
L 138.37089 -178.877027 
L 138.268778 -179.31444 
L 138.172336 -179.751853 
L 138.081845 -180.189266 
L 137.997559 -180.626679 
L 137.919707 -181.064092 
L 137.848491 -181.501505 
L 137.784081 -181.938919 
L 137.726618 -182.376332 
L 137.67621 -182.813745 
L 137.632928 -183.251158 
L 137.596812 -183.688571 
L 137.567864 -184.125984 
L 137.54605 -184.563397 
L 137.5313 -185.00081 
L 137.523505 -185.438223 
L 137.522521 -185.875636 
L 137.528169 -186.313049 
L 137.540232 -186.750463 
L 137.558461 -187.187876 
L 137.58257 -187.625289 
L 137.612245 -188.062702 
L 137.647139 -188.500115 
L 137.686879 -188.937528 
L 137.731063 -189.374941 
L 137.779269 -189.812354 
L 137.831049 -190.249767 
L 137.885941 -190.68718 
L 137.943465 -191.124594 
L 138.003128 -191.562007 
L 138.064429 -191.99942 
L 138.126859 -192.436833 
L 138.189907 -192.874246 
L 138.253062 -193.311659 
L 138.315818 -193.749072 
L 138.377674 -194.186485 
L 138.43814 -194.623898 
L 138.49674 -195.061311 
L 138.553015 -195.498725 
L 138.606526 -195.936138 
L 138.656856 -196.373551 
L 138.703614 -196.810964 
L 138.746438 -197.248377 
L 138.784997 -197.68579 
L 138.818994 -198.123203 
L 138.848164 -198.560616 
L 138.872282 -198.998029 
L 138.89116 -199.435442 
L 138.904653 -199.872855 
L 138.912653 -200.310269 
L 138.915095 -200.747682 
L 138.911958 -201.185095 
L 138.903261 -201.622508 
L 138.889066 -202.059921 
L 138.869477 -202.497334 
L 138.84464 -202.934747 
L 138.814739 -203.37216 
L 138.779999 -203.809573 
L 138.740682 -204.246986 
L 138.697084 -204.6844 
L 138.649535 -205.121813 
L 138.598399 -205.559226 
L 138.544066 -205.996639 
L 138.486953 -206.434052 
L 138.4275 -206.871465 
L 138.366169 -207.308878 
L 138.303438 -207.746291 
L 138.239799 -208.183704 
L 138.175756 -208.621117 
L 138.111819 -209.058531 
L 138.048503 -209.495944 
L 137.986324 -209.933357 
L 137.925794 -210.37077 
L 137.867421 -210.808183 
L 137.811702 -211.245596 
L 137.759123 -211.683009 
L 137.710153 -212.120422 
L 137.665243 -212.557835 
L 137.624824 -212.995248 
L 137.589301 -213.432661 
L 137.559055 -213.870075 
L 137.534437 -214.307488 
L 137.515768 -214.744901 
L 137.503337 -215.182314 
L 137.4974 -215.619727 
L 137.498175 -216.05714 
L 137.505849 -216.494553 
L 137.520567 -216.931966 
L 137.542441 -217.369379 
L 137.571544 -217.806792 
L 137.60791 -218.244206 
L 137.651539 -218.681619 
L 137.702392 -219.119032 
L 137.760395 -219.556445 
L 137.825442 -219.993858 
L 137.897388 -220.431271 
L 137.976062 -220.868684 
L 138.061257 -221.306097 
L 138.152742 -221.74351 
L 138.250257 -222.180923 
L 150.459552 -222.180923 
L 150.459552 -222.180923 
L 150.557067 -221.74351 
L 150.648552 -221.306097 
L 150.733747 -220.868684 
L 150.81242 -220.431271 
L 150.884367 -219.993858 
L 150.949413 -219.556445 
L 151.007417 -219.119032 
L 151.05827 -218.681619 
L 151.101899 -218.244206 
L 151.138265 -217.806792 
L 151.167367 -217.369379 
L 151.189241 -216.931966 
L 151.20396 -216.494553 
L 151.211633 -216.05714 
L 151.212409 -215.619727 
L 151.206472 -215.182314 
L 151.194041 -214.744901 
L 151.175372 -214.307488 
L 151.150754 -213.870075 
L 151.120508 -213.432661 
L 151.084985 -212.995248 
L 151.044566 -212.557835 
L 150.999656 -212.120422 
L 150.950686 -211.683009 
L 150.898106 -211.245596 
L 150.842387 -210.808183 
L 150.784014 -210.37077 
L 150.723485 -209.933357 
L 150.661306 -209.495944 
L 150.59799 -209.058531 
L 150.534053 -208.621117 
L 150.470009 -208.183704 
L 150.406371 -207.746291 
L 150.343639 -207.308878 
L 150.282308 -206.871465 
L 150.222856 -206.434052 
L 150.165743 -205.996639 
L 150.11141 -205.559226 
L 150.060273 -205.121813 
L 150.012725 -204.6844 
L 149.969127 -204.246986 
L 149.929809 -203.809573 
L 149.89507 -203.37216 
L 149.865169 -202.934747 
L 149.840332 -202.497334 
L 149.820743 -202.059921 
L 149.806548 -201.622508 
L 149.797851 -201.185095 
L 149.794714 -200.747682 
L 149.797156 -200.310269 
L 149.805156 -199.872855 
L 149.818648 -199.435442 
L 149.837527 -198.998029 
L 149.861645 -198.560616 
L 149.890815 -198.123203 
L 149.924811 -197.68579 
L 149.963371 -197.248377 
L 150.006195 -196.810964 
L 150.052953 -196.373551 
L 150.103283 -195.936138 
L 150.156794 -195.498725 
L 150.213069 -195.061311 
L 150.271669 -194.623898 
L 150.332135 -194.186485 
L 150.393991 -193.749072 
L 150.456746 -193.311659 
L 150.519902 -192.874246 
L 150.58295 -192.436833 
L 150.64538 -191.99942 
L 150.706681 -191.562007 
L 150.766344 -191.124594 
L 150.823867 -190.68718 
L 150.878759 -190.249767 
L 150.93054 -189.812354 
L 150.978745 -189.374941 
L 151.02293 -188.937528 
L 151.06267 -188.500115 
L 151.097564 -188.062702 
L 151.127239 -187.625289 
L 151.151348 -187.187876 
L 151.169576 -186.750463 
L 151.18164 -186.313049 
L 151.187287 -185.875636 
L 151.186304 -185.438223 
L 151.178509 -185.00081 
L 151.163758 -184.563397 
L 151.141944 -184.125984 
L 151.112996 -183.688571 
L 151.076881 -183.251158 
L 151.033599 -182.813745 
L 150.98319 -182.376332 
L 150.925728 -181.938919 
L 150.861318 -181.501505 
L 150.790102 -181.064092 
L 150.71225 -180.626679 
L 150.627964 -180.189266 
L 150.537472 -179.751853 
L 150.441031 -179.31444 
L 150.338919 -178.877027 
z
" style="stroke: #999999; stroke-width: 2"/>
    </defs>
    <g clip-path="url(#p7c0564932b)">
     <use xlink:href="#m50f6180a1d" x="0" y="255.11811" style="fill: #ffffff; stroke: #999999; stroke-width: 2"/>
    </g>
   </g>
   <g id="PolyCollection_3">
    <defs>
     <path id="me459aa037d" d="M 214.040281 -82.000474 
L 204.182733 -82.000474 
L 204.089286 -82.236669 
L 203.996688 -82.472863 
L 203.904504 -82.709058 
L 203.812257 -82.945252 
L 203.719433 -83.181446 
L 203.625486 -83.417641 
L 203.529845 -83.653835 
L 203.431918 -83.89003 
L 203.331104 -84.126224 
L 203.226796 -84.362418 
L 203.118392 -84.598613 
L 203.005298 -84.834807 
L 202.886942 -85.071002 
L 202.762776 -85.307196 
L 202.632287 -85.54339 
L 202.495 -85.779585 
L 202.35049 -86.015779 
L 202.198381 -86.251974 
L 202.038358 -86.488168 
L 201.870165 -86.724362 
L 201.693614 -86.960557 
L 201.508584 -87.196751 
L 201.315022 -87.432946 
L 201.112949 -87.66914 
L 200.902454 -87.905334 
L 200.683695 -88.141529 
L 200.456899 -88.377723 
L 200.222355 -88.613918 
L 199.980414 -88.850112 
L 199.731483 -89.086306 
L 199.476019 -89.322501 
L 199.214525 -89.558695 
L 198.947543 -89.79489 
L 198.675649 -90.031084 
L 198.399445 -90.267278 
L 198.119551 -90.503473 
L 197.836603 -90.739667 
L 197.551242 -90.975862 
L 197.264111 -91.212056 
L 196.975847 -91.44825 
L 196.687079 -91.684445 
L 196.398417 -91.920639 
L 196.110458 -92.156834 
L 195.823772 -92.393028 
L 195.538907 -92.629222 
L 195.256386 -92.865417 
L 194.976703 -93.101611 
L 194.700324 -93.337806 
L 194.427693 -93.574 
L 194.159224 -93.810194 
L 193.89531 -94.046389 
L 193.636325 -94.282583 
L 193.382623 -94.518778 
L 193.134548 -94.754972 
L 192.892431 -94.991166 
L 192.656602 -95.227361 
L 192.427385 -95.463555 
L 192.205112 -95.69975 
L 191.99012 -95.935944 
L 191.782759 -96.172138 
L 191.583393 -96.408333 
L 191.392407 -96.644527 
L 191.210206 -96.880722 
L 191.037218 -97.116916 
L 190.873897 -97.35311 
L 190.720721 -97.589305 
L 190.578197 -97.825499 
L 190.446852 -98.061694 
L 190.327241 -98.297888 
L 190.219936 -98.534082 
L 190.125526 -98.770277 
L 190.044616 -99.006471 
L 189.977816 -99.242666 
L 189.925739 -99.47886 
L 189.888996 -99.715054 
L 189.868186 -99.951249 
L 189.863891 -100.187443 
L 189.87667 -100.423638 
L 189.907047 -100.659832 
L 189.955508 -100.896026 
L 190.02249 -101.132221 
L 190.108375 -101.368415 
L 190.213485 -101.60461 
L 190.33807 -101.840804 
L 190.482306 -102.076998 
L 190.646288 -102.313193 
L 190.830024 -102.549387 
L 191.033433 -102.785582 
L 191.256341 -103.021776 
L 191.498476 -103.25797 
L 191.759471 -103.494165 
L 192.03886 -103.730359 
L 192.33608 -103.966554 
L 192.650473 -104.202748 
L 192.981291 -104.438942 
L 193.327694 -104.675137 
L 193.688759 -104.911331 
L 194.063485 -105.147526 
L 194.450801 -105.38372 
L 223.772214 -105.38372 
L 223.772214 -105.38372 
L 224.159529 -105.147526 
L 224.534256 -104.911331 
L 224.895321 -104.675137 
L 225.241724 -104.438942 
L 225.572541 -104.202748 
L 225.886935 -103.966554 
L 226.184155 -103.730359 
L 226.463544 -103.494165 
L 226.724538 -103.25797 
L 226.966673 -103.021776 
L 227.189581 -102.785582 
L 227.392991 -102.549387 
L 227.576727 -102.313193 
L 227.740709 -102.076998 
L 227.884945 -101.840804 
L 228.00953 -101.60461 
L 228.114639 -101.368415 
L 228.200525 -101.132221 
L 228.267507 -100.896026 
L 228.315968 -100.659832 
L 228.346345 -100.423638 
L 228.359123 -100.187443 
L 228.354829 -99.951249 
L 228.334019 -99.715054 
L 228.297276 -99.47886 
L 228.245199 -99.242666 
L 228.178399 -99.006471 
L 228.097488 -98.770277 
L 228.003079 -98.534082 
L 227.895774 -98.297888 
L 227.776162 -98.061694 
L 227.644818 -97.825499 
L 227.502294 -97.589305 
L 227.349118 -97.35311 
L 227.185797 -97.116916 
L 227.012809 -96.880722 
L 226.830607 -96.644527 
L 226.639621 -96.408333 
L 226.440256 -96.172138 
L 226.232895 -95.935944 
L 226.017903 -95.69975 
L 225.79563 -95.463555 
L 225.566413 -95.227361 
L 225.330583 -94.991166 
L 225.088467 -94.754972 
L 224.840392 -94.518778 
L 224.58669 -94.282583 
L 224.327705 -94.046389 
L 224.063791 -93.810194 
L 223.795322 -93.574 
L 223.52269 -93.337806 
L 223.246312 -93.101611 
L 222.966629 -92.865417 
L 222.684107 -92.629222 
L 222.399243 -92.393028 
L 222.112557 -92.156834 
L 221.824597 -91.920639 
L 221.535936 -91.684445 
L 221.247167 -91.44825 
L 220.958903 -91.212056 
L 220.671772 -90.975862 
L 220.386412 -90.739667 
L 220.103463 -90.503473 
L 219.82357 -90.267278 
L 219.547365 -90.031084 
L 219.275471 -89.79489 
L 219.00849 -89.558695 
L 218.746996 -89.322501 
L 218.491532 -89.086306 
L 218.242601 -88.850112 
L 218.00066 -88.613918 
L 217.766116 -88.377723 
L 217.53932 -88.141529 
L 217.320561 -87.905334 
L 217.110066 -87.66914 
L 216.907993 -87.432946 
L 216.714431 -87.196751 
L 216.5294 -86.960557 
L 216.352849 -86.724362 
L 216.184657 -86.488168 
L 216.024633 -86.251974 
L 215.872525 -86.015779 
L 215.728014 -85.779585 
L 215.590728 -85.54339 
L 215.460238 -85.307196 
L 215.336072 -85.071002 
L 215.217716 -84.834807 
L 215.104623 -84.598613 
L 214.996218 -84.362418 
L 214.891911 -84.126224 
L 214.791097 -83.89003 
L 214.69317 -83.653835 
L 214.597528 -83.417641 
L 214.503581 -83.181446 
L 214.410757 -82.945252 
L 214.318511 -82.709058 
L 214.226326 -82.472863 
L 214.133728 -82.236669 
L 214.040281 -82.000474 
z
" style="stroke: #999999; stroke-width: 2"/>
    </defs>
    <g clip-path="url(#p7c0564932b)">
     <use xlink:href="#me459aa037d" x="0" y="255.11811" style="fill: #ffffff; stroke: #999999; stroke-width: 2"/>
    </g>
   </g>
   <g id="PolyCollection_4">
    <defs>
     <path id="m77ab020378" d="M 275.608316 -68.403634 
L 272.127904 -68.403634 
L 272.0739 -69.356636 
L 272.020313 -70.309637 
L 271.96721 -71.262638 
L 271.914652 -72.21564 
L 271.862697 -73.168641 
L 271.811395 -74.121642 
L 271.760792 -75.074644 
L 271.710927 -76.027645 
L 271.661835 -76.980646 
L 271.613546 -77.933648 
L 271.566082 -78.886649 
L 271.519462 -79.83965 
L 271.473701 -80.792652 
L 271.428806 -81.745653 
L 271.384781 -82.698654 
L 271.341627 -83.651656 
L 271.299337 -84.604657 
L 271.257901 -85.557658 
L 271.217305 -86.51066 
L 271.177531 -87.463661 
L 271.138556 -88.416662 
L 271.100351 -89.369664 
L 271.062885 -90.322665 
L 271.026123 -91.275666 
L 270.990023 -92.228668 
L 270.954541 -93.181669 
L 270.91963 -94.13467 
L 270.885236 -95.087672 
L 270.851303 -96.040673 
L 270.817772 -96.993674 
L 270.78458 -97.946676 
L 270.751661 -98.899677 
L 270.718949 -99.852678 
L 270.686374 -100.80568 
L 270.653865 -101.758681 
L 270.621353 -102.711682 
L 270.588768 -103.664684 
L 270.556041 -104.617685 
L 270.523109 -105.570686 
L 270.489909 -106.523688 
L 270.456384 -107.476689 
L 270.422485 -108.42969 
L 270.388167 -109.382692 
L 270.353397 -110.335693 
L 270.318147 -111.288694 
L 270.282405 -112.241696 
L 270.246167 -113.194697 
L 270.209443 -114.147698 
L 270.172257 -115.1007 
L 270.134647 -116.053701 
L 270.096667 -117.006702 
L 270.058387 -117.959704 
L 270.01989 -118.912705 
L 269.981279 -119.865706 
L 269.942672 -120.818708 
L 269.904201 -121.771709 
L 269.866017 -122.72471 
L 269.828282 -123.677712 
L 269.791176 -124.630713 
L 269.754889 -125.583714 
L 269.719626 -126.536716 
L 269.6856 -127.489717 
L 269.653033 -128.442719 
L 269.622158 -129.39572 
L 269.593209 -130.348721 
L 269.566427 -131.301723 
L 269.542053 -132.254724 
L 269.520329 -133.207725 
L 269.501493 -134.160727 
L 269.485779 -135.113728 
L 269.473416 -136.066729 
L 269.464621 -137.019731 
L 269.459601 -137.972732 
L 269.458552 -138.925733 
L 269.461653 -139.878735 
L 269.469065 -140.831736 
L 269.480933 -141.784737 
L 269.497381 -142.737739 
L 269.518511 -143.69074 
L 269.544402 -144.643741 
L 269.57511 -145.596743 
L 269.610665 -146.549744 
L 269.651074 -147.502745 
L 269.696314 -148.455747 
L 269.746342 -149.408748 
L 269.801083 -150.361749 
L 269.86044 -151.314751 
L 269.924291 -152.267752 
L 269.992488 -153.220753 
L 270.064859 -154.173755 
L 270.141211 -155.126756 
L 270.22133 -156.079757 
L 270.304981 -157.032759 
L 270.391913 -157.98576 
L 270.481857 -158.938761 
L 270.57453 -159.891763 
L 270.669639 -160.844764 
L 270.76688 -161.797765 
L 270.86594 -162.750767 
L 276.870281 -162.750767 
L 276.870281 -162.750767 
L 276.969341 -161.797765 
L 277.066581 -160.844764 
L 277.16169 -159.891763 
L 277.254364 -158.938761 
L 277.344308 -157.98576 
L 277.431239 -157.032759 
L 277.514891 -156.079757 
L 277.595009 -155.126756 
L 277.671362 -154.173755 
L 277.743733 -153.220753 
L 277.811929 -152.267752 
L 277.87578 -151.314751 
L 277.935138 -150.361749 
L 277.989879 -149.408748 
L 278.039906 -148.455747 
L 278.085147 -147.502745 
L 278.125555 -146.549744 
L 278.16111 -145.596743 
L 278.191818 -144.643741 
L 278.217709 -143.69074 
L 278.238839 -142.737739 
L 278.255287 -141.784737 
L 278.267155 -140.831736 
L 278.274568 -139.878735 
L 278.277668 -138.925733 
L 278.276619 -137.972732 
L 278.2716 -137.019731 
L 278.262805 -136.066729 
L 278.250441 -135.113728 
L 278.234728 -134.160727 
L 278.215892 -133.207725 
L 278.194168 -132.254724 
L 278.169794 -131.301723 
L 278.143012 -130.348721 
L 278.114063 -129.39572 
L 278.083187 -128.442719 
L 278.050621 -127.489717 
L 278.016595 -126.536716 
L 277.981331 -125.583714 
L 277.945045 -124.630713 
L 277.907938 -123.677712 
L 277.870204 -122.72471 
L 277.832019 -121.771709 
L 277.793549 -120.818708 
L 277.754941 -119.865706 
L 277.71633 -118.912705 
L 277.677834 -117.959704 
L 277.639553 -117.006702 
L 277.601573 -116.053701 
L 277.563964 -115.1007 
L 277.526778 -114.147698 
L 277.490054 -113.194697 
L 277.453815 -112.241696 
L 277.418073 -111.288694 
L 277.382824 -110.335693 
L 277.348053 -109.382692 
L 277.313735 -108.42969 
L 277.279836 -107.476689 
L 277.246312 -106.523688 
L 277.213112 -105.570686 
L 277.180179 -104.617685 
L 277.147453 -103.664684 
L 277.114868 -102.711682 
L 277.082355 -101.758681 
L 277.049847 -100.80568 
L 277.017271 -99.852678 
L 276.984559 -98.899677 
L 276.951641 -97.946676 
L 276.918449 -96.993674 
L 276.884918 -96.040673 
L 276.850985 -95.087672 
L 276.816591 -94.13467 
L 276.781679 -93.181669 
L 276.746198 -92.228668 
L 276.710098 -91.275666 
L 276.673335 -90.322665 
L 276.63587 -89.369664 
L 276.597665 -88.416662 
L 276.558689 -87.463661 
L 276.518915 -86.51066 
L 276.47832 -85.557658 
L 276.436884 -84.604657 
L 276.394594 -83.651656 
L 276.351439 -82.698654 
L 276.307415 -81.745653 
L 276.26252 -80.792652 
L 276.216758 -79.83965 
L 276.170139 -78.886649 
L 276.122675 -77.933648 
L 276.074385 -76.980646 
L 276.025293 -76.027645 
L 275.975429 -75.074644 
L 275.924825 -74.121642 
L 275.873523 -73.168641 
L 275.821568 -72.21564 
L 275.769011 -71.262638 
L 275.715908 -70.309637 
L 275.66232 -69.356636 
L 275.608316 -68.403634 
z
" style="stroke: #999999; stroke-width: 2"/>
    </defs>
    <g clip-path="url(#p7c0564932b)">
     <use xlink:href="#m77ab020378" x="0" y="255.11811" style="fill: #ffffff; stroke: #999999; stroke-width: 2"/>
    </g>
   </g>
   <g id="PolyCollection_5">
    <defs>
     <path id="m128689ea26" d="M 358.829614 -49.837187 
L 318.419812 -49.837187 
L 318.240927 -49.99643 
L 318.078872 -50.155674 
L 317.933863 -50.314917 
L 317.806059 -50.474161 
L 317.69556 -50.633404 
L 317.602406 -50.792648 
L 317.526576 -50.951891 
L 317.467992 -51.111135 
L 317.426516 -51.270378 
L 317.401951 -51.429622 
L 317.394045 -51.588865 
L 317.40249 -51.748109 
L 317.426923 -51.907352 
L 317.466933 -52.066596 
L 317.522056 -52.225839 
L 317.591785 -52.385083 
L 317.675566 -52.544326 
L 317.772807 -52.70357 
L 317.882875 -52.862813 
L 318.005107 -53.022056 
L 318.138805 -53.1813 
L 318.283246 -53.340543 
L 318.437683 -53.499787 
L 318.60135 -53.65903 
L 318.773463 -53.818274 
L 318.953229 -53.977517 
L 319.139843 -54.136761 
L 319.3325 -54.296004 
L 319.53039 -54.455248 
L 319.73271 -54.614491 
L 319.938663 -54.773735 
L 320.147461 -54.932978 
L 320.358331 -55.092222 
L 320.570519 -55.251465 
L 320.78329 -55.410709 
L 320.995933 -55.569952 
L 321.207763 -55.729196 
L 321.418127 -55.888439 
L 321.626402 -56.047683 
L 321.831998 -56.206926 
L 322.034364 -56.36617 
L 322.232985 -56.525413 
L 322.427388 -56.684657 
L 322.61714 -56.8439 
L 322.801851 -57.003144 
L 322.981173 -57.162387 
L 323.154805 -57.321631 
L 323.322489 -57.480874 
L 323.484012 -57.640118 
L 323.639206 -57.799361 
L 323.787949 -57.958604 
L 323.930163 -58.117848 
L 324.065813 -58.277091 
L 324.194908 -58.436335 
L 324.317499 -58.595578 
L 324.433676 -58.754822 
L 324.543571 -58.914065 
L 324.647353 -59.073309 
L 324.745225 -59.232552 
L 324.837428 -59.391796 
L 324.924231 -59.551039 
L 325.005936 -59.710283 
L 325.082872 -59.869526 
L 325.155391 -60.02877 
L 325.223872 -60.188013 
L 325.288711 -60.347257 
L 325.350323 -60.5065 
L 325.409137 -60.665744 
L 325.465597 -60.824987 
L 325.520153 -60.984231 
L 325.573264 -61.143474 
L 325.625393 -61.302718 
L 325.677006 -61.461961 
L 325.728564 -61.621205 
L 325.780528 -61.780448 
L 325.833352 -61.939692 
L 325.88748 -62.098935 
L 325.943346 -62.258179 
L 326.00137 -62.417422 
L 326.061958 -62.576666 
L 326.125496 -62.735909 
L 326.192354 -62.895152 
L 326.262878 -63.054396 
L 326.337391 -63.213639 
L 326.416195 -63.372883 
L 326.499562 -63.532126 
L 326.58774 -63.69137 
L 326.680949 -63.850613 
L 326.77938 -64.009857 
L 326.883194 -64.1691 
L 326.992524 -64.328344 
L 327.107471 -64.487587 
L 327.228108 -64.646831 
L 327.354476 -64.806074 
L 327.486587 -64.965318 
L 327.624423 -65.124561 
L 327.767938 -65.283805 
L 327.917056 -65.443048 
L 328.071675 -65.602292 
L 349.177752 -65.602292 
L 349.177752 -65.602292 
L 349.33237 -65.443048 
L 349.481489 -65.283805 
L 349.625003 -65.124561 
L 349.762839 -64.965318 
L 349.89495 -64.806074 
L 350.021318 -64.646831 
L 350.141955 -64.487587 
L 350.256903 -64.328344 
L 350.366232 -64.1691 
L 350.470047 -64.009857 
L 350.568477 -63.850613 
L 350.661686 -63.69137 
L 350.749865 -63.532126 
L 350.833232 -63.372883 
L 350.912035 -63.213639 
L 350.986549 -63.054396 
L 351.057072 -62.895152 
L 351.12393 -62.735909 
L 351.187469 -62.576666 
L 351.248056 -62.417422 
L 351.306081 -62.258179 
L 351.361947 -62.098935 
L 351.416074 -61.939692 
L 351.468898 -61.780448 
L 351.520862 -61.621205 
L 351.572421 -61.461961 
L 351.624033 -61.302718 
L 351.676163 -61.143474 
L 351.729274 -60.984231 
L 351.78383 -60.824987 
L 351.840289 -60.665744 
L 351.899103 -60.5065 
L 351.960715 -60.347257 
L 352.025554 -60.188013 
L 352.094035 -60.02877 
L 352.166555 -59.869526 
L 352.24349 -59.710283 
L 352.325195 -59.551039 
L 352.411998 -59.391796 
L 352.504201 -59.232552 
L 352.602074 -59.073309 
L 352.705855 -58.914065 
L 352.81575 -58.754822 
L 352.931928 -58.595578 
L 353.054518 -58.436335 
L 353.183613 -58.277091 
L 353.319263 -58.117848 
L 353.461477 -57.958604 
L 353.61022 -57.799361 
L 353.765415 -57.640118 
L 353.926937 -57.480874 
L 354.094621 -57.321631 
L 354.268253 -57.162387 
L 354.447576 -57.003144 
L 354.632286 -56.8439 
L 354.822038 -56.684657 
L 355.016441 -56.525413 
L 355.215063 -56.36617 
L 355.417428 -56.206926 
L 355.623025 -56.047683 
L 355.831299 -55.888439 
L 356.041663 -55.729196 
L 356.253494 -55.569952 
L 356.466136 -55.410709 
L 356.678907 -55.251465 
L 356.891095 -55.092222 
L 357.101966 -54.932978 
L 357.310763 -54.773735 
L 357.516716 -54.614491 
L 357.719036 -54.455248 
L 357.916927 -54.296004 
L 358.109583 -54.136761 
L 358.296198 -53.977517 
L 358.475963 -53.818274 
L 358.648076 -53.65903 
L 358.811743 -53.499787 
L 358.96618 -53.340543 
L 359.110622 -53.1813 
L 359.244319 -53.022056 
L 359.366551 -52.862813 
L 359.476619 -52.70357 
L 359.57386 -52.544326 
L 359.657641 -52.385083 
L 359.72737 -52.225839 
L 359.782493 -52.066596 
L 359.822503 -51.907352 
L 359.846937 -51.748109 
L 359.855381 -51.588865 
L 359.847475 -51.429622 
L 359.82291 -51.270378 
L 359.781434 -51.111135 
L 359.72285 -50.951891 
L 359.647021 -50.792648 
L 359.553866 -50.633404 
L 359.443367 -50.474161 
L 359.315564 -50.314917 
L 359.170555 -50.155674 
L 359.008499 -49.99643 
L 358.829614 -49.837187 
z
" style="stroke: #999999; stroke-width: 2"/>
    </defs>
    <g clip-path="url(#p7c0564932b)">
     <use xlink:href="#m128689ea26" x="0" y="255.11811" style="fill: #ffffff; stroke: #999999; stroke-width: 2"/>
    </g>
   </g>
   <g id="PolyCollection_6">
    <defs>
     <path id="m5f28b45c2c" d="M 409.930606 -57.293074 
L 396.832026 -57.293074 
L 396.712719 -57.469376 
L 396.594279 -57.645678 
L 396.475901 -57.821981 
L 396.356697 -57.998283 
L 396.235709 -58.174585 
L 396.111915 -58.350887 
L 395.984241 -58.52719 
L 395.851574 -58.703492 
L 395.712771 -58.879794 
L 395.566676 -59.056096 
L 395.412132 -59.232398 
L 395.247997 -59.408701 
L 395.073158 -59.585003 
L 394.886548 -59.761305 
L 394.687157 -59.937607 
L 394.474051 -60.11391 
L 394.246384 -60.290212 
L 394.003412 -60.466514 
L 393.744504 -60.642816 
L 393.469155 -60.819119 
L 393.176993 -60.995421 
L 392.867792 -61.171723 
L 392.541474 -61.348025 
L 392.198118 -61.524327 
L 391.83796 -61.70063 
L 391.461395 -61.876932 
L 391.068979 -62.053234 
L 390.661422 -62.229536 
L 390.239588 -62.405839 
L 389.804483 -62.582141 
L 389.357254 -62.758443 
L 388.899173 -62.934745 
L 388.431629 -63.111048 
L 387.956114 -63.28735 
L 387.47421 -63.463652 
L 386.987573 -63.639954 
L 386.497918 -63.816256 
L 386.007004 -63.992559 
L 385.516615 -64.168861 
L 385.028544 -64.345163 
L 384.54458 -64.521465 
L 384.066488 -64.697768 
L 383.595993 -64.87407 
L 383.134771 -65.050372 
L 382.684428 -65.226674 
L 382.246494 -65.402976 
L 381.822408 -65.579279 
L 381.41351 -65.755581 
L 381.021034 -65.931883 
L 380.646097 -66.108185 
L 380.2897 -66.284488 
L 379.952723 -66.46079 
L 379.635921 -66.637092 
L 379.339927 -66.813394 
L 379.065256 -66.989697 
L 378.812302 -67.165999 
L 378.58135 -67.342301 
L 378.372575 -67.518603 
L 378.186057 -67.694905 
L 378.021782 -67.871208 
L 377.879653 -68.04751 
L 377.759503 -68.223812 
L 377.6611 -68.400114 
L 377.584159 -68.576417 
L 377.528352 -68.752719 
L 377.493319 -68.929021 
L 377.478675 -69.105323 
L 377.484021 -69.281626 
L 377.508952 -69.457928 
L 377.553065 -69.63423 
L 377.615965 -69.810532 
L 377.697272 -69.986834 
L 377.796624 -70.163137 
L 377.913683 -70.339439 
L 378.048134 -70.515741 
L 378.199693 -70.692043 
L 378.3681 -70.868346 
L 378.553121 -71.044648 
L 378.754548 -71.22095 
L 378.972194 -71.397252 
L 379.205889 -71.573555 
L 379.455479 -71.749857 
L 379.720813 -71.926159 
L 380.001748 -72.102461 
L 380.298132 -72.278763 
L 380.609805 -72.455066 
L 380.936589 -72.631368 
L 381.278281 -72.80767 
L 381.634648 -72.983972 
L 382.005419 -73.160275 
L 382.39028 -73.336577 
L 382.788868 -73.512879 
L 383.200768 -73.689181 
L 383.625504 -73.865484 
L 384.062543 -74.041786 
L 384.511285 -74.218088 
L 384.971067 -74.39439 
L 385.441161 -74.570692 
L 385.920774 -74.746995 
L 420.841858 -74.746995 
L 420.841858 -74.746995 
L 421.321471 -74.570692 
L 421.791565 -74.39439 
L 422.251348 -74.218088 
L 422.700089 -74.041786 
L 423.137128 -73.865484 
L 423.561864 -73.689181 
L 423.973764 -73.512879 
L 424.372352 -73.336577 
L 424.757213 -73.160275 
L 425.127984 -72.983972 
L 425.484351 -72.80767 
L 425.826043 -72.631368 
L 426.152827 -72.455066 
L 426.4645 -72.278763 
L 426.760884 -72.102461 
L 427.041819 -71.926159 
L 427.307154 -71.749857 
L 427.556743 -71.573555 
L 427.790438 -71.397252 
L 428.008084 -71.22095 
L 428.209511 -71.044648 
L 428.394532 -70.868346 
L 428.562939 -70.692043 
L 428.714498 -70.515741 
L 428.84895 -70.339439 
L 428.966008 -70.163137 
L 429.06536 -69.986834 
L 429.146667 -69.810532 
L 429.209567 -69.63423 
L 429.25368 -69.457928 
L 429.278611 -69.281626 
L 429.283957 -69.105323 
L 429.269313 -68.929021 
L 429.23428 -68.752719 
L 429.178473 -68.576417 
L 429.101532 -68.400114 
L 429.003129 -68.223812 
L 428.882979 -68.04751 
L 428.740851 -67.871208 
L 428.576575 -67.694905 
L 428.390057 -67.518603 
L 428.181282 -67.342301 
L 427.95033 -67.165999 
L 427.697376 -66.989697 
L 427.422705 -66.813394 
L 427.126712 -66.637092 
L 426.809909 -66.46079 
L 426.472932 -66.284488 
L 426.116535 -66.108185 
L 425.741598 -65.931883 
L 425.349122 -65.755581 
L 424.940224 -65.579279 
L 424.516138 -65.402976 
L 424.078204 -65.226674 
L 423.627862 -65.050372 
L 423.166639 -64.87407 
L 422.696144 -64.697768 
L 422.218052 -64.521465 
L 421.734088 -64.345163 
L 421.246017 -64.168861 
L 420.755628 -63.992559 
L 420.264714 -63.816256 
L 419.775059 -63.639954 
L 419.288422 -63.463652 
L 418.806518 -63.28735 
L 418.331003 -63.111048 
L 417.863459 -62.934745 
L 417.405378 -62.758443 
L 416.958149 -62.582141 
L 416.523044 -62.405839 
L 416.10121 -62.229536 
L 415.693653 -62.053234 
L 415.301237 -61.876932 
L 414.924673 -61.70063 
L 414.564514 -61.524327 
L 414.221158 -61.348025 
L 413.894841 -61.171723 
L 413.585639 -60.995421 
L 413.293478 -60.819119 
L 413.018128 -60.642816 
L 412.75922 -60.466514 
L 412.516248 -60.290212 
L 412.288581 -60.11391 
L 412.075475 -59.937607 
L 411.876084 -59.761305 
L 411.689474 -59.585003 
L 411.514635 -59.408701 
L 411.3505 -59.232398 
L 411.195956 -59.056096 
L 411.049861 -58.879794 
L 410.911058 -58.703492 
L 410.778391 -58.52719 
L 410.650717 -58.350887 
L 410.526923 -58.174585 
L 410.405935 -57.998283 
L 410.286731 -57.821981 
L 410.168353 -57.645678 
L 410.049914 -57.469376 
L 409.930606 -57.293074 
z
" style="stroke: #999999; stroke-width: 2"/>
    </defs>
    <g clip-path="url(#p7c0564932b)">
     <use xlink:href="#m5f28b45c2c" x="0" y="255.11811" style="fill: #ffffff; stroke: #999999; stroke-width: 2"/>
    </g>
   </g>
   <g id="PolyCollection_7">
    <defs>
     <path id="m31d3def04f" d="M 478.852013 -60.298212 
L 457.423825 -60.298212 
L 457.2481 -60.586223 
L 457.081973 -60.874234 
L 456.925321 -61.162244 
L 456.777941 -61.450255 
L 456.639546 -61.738266 
L 456.509777 -62.026277 
L 456.388206 -62.314288 
L 456.274345 -62.602298 
L 456.167654 -62.890309 
L 456.067547 -63.17832 
L 455.97341 -63.466331 
L 455.884604 -63.754342 
L 455.800481 -64.042352 
L 455.72039 -64.330363 
L 455.643695 -64.618374 
L 455.569783 -64.906385 
L 455.498072 -65.194396 
L 455.428029 -65.482406 
L 455.359173 -65.770417 
L 455.291087 -66.058428 
L 455.223427 -66.346439 
L 455.155927 -66.634449 
L 455.088406 -66.92246 
L 455.020775 -67.210471 
L 454.953034 -67.498482 
L 454.885279 -67.786493 
L 454.817702 -68.074503 
L 454.750585 -68.362514 
L 454.684303 -68.650525 
L 454.619316 -68.938536 
L 454.556163 -69.226547 
L 454.495459 -69.514557 
L 454.437879 -69.802568 
L 454.384158 -70.090579 
L 454.335074 -70.37859 
L 454.291437 -70.666601 
L 454.254081 -70.954611 
L 454.223849 -71.242622 
L 454.201581 -71.530633 
L 454.188101 -71.818644 
L 454.184206 -72.106654 
L 454.19065 -72.394665 
L 454.208138 -72.682676 
L 454.23731 -72.970687 
L 454.278735 -73.258698 
L 454.332897 -73.546708 
L 454.400192 -73.834719 
L 454.480918 -74.12273 
L 454.575269 -74.410741 
L 454.683335 -74.698752 
L 454.805094 -74.986762 
L 454.940416 -75.274773 
L 455.089058 -75.562784 
L 455.250673 -75.850795 
L 455.424804 -76.138806 
L 455.610899 -76.426816 
L 455.808308 -76.714827 
L 456.016295 -77.002838 
L 456.234045 -77.290849 
L 456.460674 -77.57886 
L 456.695237 -77.86687 
L 456.93674 -78.154881 
L 457.184151 -78.442892 
L 457.436411 -78.730903 
L 457.692447 -79.018913 
L 457.95118 -79.306924 
L 458.211541 -79.594935 
L 458.472479 -79.882946 
L 458.732971 -80.170957 
L 458.992034 -80.458967 
L 459.248735 -80.746978 
L 459.502197 -81.034989 
L 459.751607 -81.323 
L 459.996223 -81.611011 
L 460.235379 -81.899021 
L 460.468492 -82.187032 
L 460.695059 -82.475043 
L 460.914665 -82.763054 
L 461.126982 -83.051065 
L 461.331767 -83.339075 
L 461.528863 -83.627086 
L 461.718194 -83.915097 
L 461.899764 -84.203108 
L 462.073655 -84.491118 
L 462.240014 -84.779129 
L 462.399057 -85.06714 
L 462.551055 -85.355151 
L 462.696334 -85.643162 
L 462.83526 -85.931172 
L 462.968241 -86.219183 
L 463.095712 -86.507194 
L 463.21813 -86.795205 
L 463.335968 -87.083216 
L 463.449706 -87.371226 
L 463.559826 -87.659237 
L 463.666803 -87.947248 
L 463.7711 -88.235259 
L 463.873162 -88.52327 
L 463.973412 -88.81128 
L 472.302426 -88.81128 
L 472.302426 -88.81128 
L 472.402676 -88.52327 
L 472.504738 -88.235259 
L 472.609035 -87.947248 
L 472.716012 -87.659237 
L 472.826132 -87.371226 
L 472.93987 -87.083216 
L 473.057708 -86.795205 
L 473.180126 -86.507194 
L 473.307597 -86.219183 
L 473.440578 -85.931172 
L 473.579504 -85.643162 
L 473.724783 -85.355151 
L 473.876781 -85.06714 
L 474.035824 -84.779129 
L 474.202183 -84.491118 
L 474.376074 -84.203108 
L 474.557645 -83.915097 
L 474.746975 -83.627086 
L 474.944071 -83.339075 
L 475.148856 -83.051065 
L 475.361173 -82.763054 
L 475.580779 -82.475043 
L 475.807346 -82.187032 
L 476.040459 -81.899021 
L 476.279615 -81.611011 
L 476.524231 -81.323 
L 476.773641 -81.034989 
L 477.027103 -80.746978 
L 477.283804 -80.458967 
L 477.542867 -80.170957 
L 477.803359 -79.882946 
L 478.064297 -79.594935 
L 478.324658 -79.306924 
L 478.583391 -79.018913 
L 478.839427 -78.730903 
L 479.091687 -78.442892 
L 479.339098 -78.154881 
L 479.580601 -77.86687 
L 479.815164 -77.57886 
L 480.041793 -77.290849 
L 480.259543 -77.002838 
L 480.46753 -76.714827 
L 480.664939 -76.426816 
L 480.851034 -76.138806 
L 481.025166 -75.850795 
L 481.18678 -75.562784 
L 481.335422 -75.274773 
L 481.470744 -74.986762 
L 481.592503 -74.698752 
L 481.700569 -74.410741 
L 481.79492 -74.12273 
L 481.875646 -73.834719 
L 481.942941 -73.546708 
L 481.997103 -73.258698 
L 482.038528 -72.970687 
L 482.0677 -72.682676 
L 482.085188 -72.394665 
L 482.091632 -72.106654 
L 482.087737 -71.818644 
L 482.074257 -71.530633 
L 482.051989 -71.242622 
L 482.021757 -70.954611 
L 481.984401 -70.666601 
L 481.940765 -70.37859 
L 481.89168 -70.090579 
L 481.837959 -69.802568 
L 481.780379 -69.514557 
L 481.719675 -69.226547 
L 481.656522 -68.938536 
L 481.591535 -68.650525 
L 481.525253 -68.362514 
L 481.458136 -68.074503 
L 481.390559 -67.786493 
L 481.322804 -67.498482 
L 481.255063 -67.210471 
L 481.187432 -66.92246 
L 481.119911 -66.634449 
L 481.052411 -66.346439 
L 480.984751 -66.058428 
L 480.916665 -65.770417 
L 480.847809 -65.482406 
L 480.777766 -65.194396 
L 480.706055 -64.906385 
L 480.632143 -64.618374 
L 480.555448 -64.330363 
L 480.475357 -64.042352 
L 480.391234 -63.754342 
L 480.302428 -63.466331 
L 480.208291 -63.17832 
L 480.108185 -62.890309 
L 480.001493 -62.602298 
L 479.887632 -62.314288 
L 479.766061 -62.026277 
L 479.636292 -61.738266 
L 479.497897 -61.450255 
L 479.350517 -61.162244 
L 479.193865 -60.874234 
L 479.027738 -60.586223 
L 478.852013 -60.298212 
z
" style="stroke: #999999; stroke-width: 2"/>
    </defs>
    <g clip-path="url(#p7c0564932b)">
     <use xlink:href="#m31d3def04f" x="0" y="255.11811" style="fill: #ffffff; stroke: #999999; stroke-width: 2"/>
    </g>
   </g>
   <g id="PathCollection_1"/>
   <g id="PathCollection_2"/>
   <g id="patch_3">
    <path d="M 47.22 213.89811 
L 47.22 24.32 
" style="fill: none; stroke: #262626; stroke-width: 1.25; stroke-linejoin: miter; stroke-linecap: square"/>
   </g>
   <g id="patch_4">
    <path d="M 47.22 213.89811 
L 500.51622 213.89811 
" style="fill: none; stroke: #262626; stroke-width: 1.25; stroke-linejoin: miter; stroke-linecap: square"/>
   </g>
   <g id="PathCollection_3">
    <defs>
     <path id="C0_0_324adfd0d8" d="M 0 2.5 
C 0.663008 2.5 1.29895 2.236584 1.767767 1.767767 
C 2.236584 1.29895 2.5 0.663008 2.5 -0 
C 2.5 -0.663008 2.236584 -1.29895 1.767767 -1.767767 
C 1.29895 -2.236584 0.663008 -2.5 0 -2.5 
C -0.663008 -2.5 -1.29895 -2.236584 -1.767767 -1.767767 
C -2.236584 -1.29895 -2.5 -0.663008 -2.5 0 
C -2.5 0.663008 -2.236584 1.29895 -1.767767 1.767767 
C -1.29895 2.236584 -0.663008 2.5 0 2.5 
z
"/>
    </defs>
    <g clip-path="url(#p7c0564932b)">
     <use xlink:href="#C0_0_324adfd0d8" x="73.160731" y="187.289949" style="fill: #4c72b0; fill-opacity: 0.75"/>
    </g>
    <g clip-path="url(#p7c0564932b)">
     <use xlink:href="#C0_0_324adfd0d8" x="80.470915" y="183.106409" style="fill: #4c72b0; fill-opacity: 0.75"/>
    </g>
    <g clip-path="url(#p7c0564932b)">
     <use xlink:href="#C0_0_324adfd0d8" x="76.283173" y="186.729176" style="fill: #4c72b0; fill-opacity: 0.75"/>
    </g>
    <g clip-path="url(#p7c0564932b)">
     <use xlink:href="#C0_0_324adfd0d8" x="84.308006" y="177.014637" style="fill: #4c72b0; fill-opacity: 0.75"/>
    </g>
    <g clip-path="url(#p7c0564932b)">
     <use xlink:href="#C0_0_324adfd0d8" x="83.078843" y="196.176084" style="fill: #dd8452; fill-opacity: 0.75"/>
    </g>
    <g clip-path="url(#p7c0564932b)">
     <use xlink:href="#C0_0_324adfd0d8" x="80.41477" y="196.92727" style="fill: #dd8452; fill-opacity: 0.75"/>
    </g>
    <g clip-path="url(#p7c0564932b)">
     <use xlink:href="#C0_0_324adfd0d8" x="74.318655" y="198.530447" style="fill: #dd8452; fill-opacity: 0.75"/>
    </g>
    <g clip-path="url(#p7c0564932b)">
     <use xlink:href="#C0_0_324adfd0d8" x="79.431725" y="193.336048" style="fill: #dd8452; fill-opacity: 0.75"/>
    </g>
   </g>
   <g id="PathCollection_4">
    <defs>
     <path id="C1_0_28ba51ec15" d="M 0 2.5 
C 0.663008 2.5 1.29895 2.236584 1.767767 1.767767 
C 2.236584 1.29895 2.5 0.663008 2.5 -0 
C 2.5 -0.663008 2.236584 -1.29895 1.767767 -1.767767 
C 1.29895 -2.236584 0.663008 -2.5 0 -2.5 
C -0.663008 -2.5 -1.29895 -2.236584 -1.767767 -1.767767 
C -2.236584 -1.29895 -2.5 -0.663008 -2.5 0 
C -2.5 0.663008 -2.236584 1.29895 -1.767767 1.767767 
C -1.29895 2.236584 -0.663008 2.5 0 2.5 
z
"/>
    </defs>
    <g clip-path="url(#p7c0564932b)">
     <use xlink:href="#C1_0_28ba51ec15" x="144.178129" y="67.906544" style="fill: #4c72b0; fill-opacity: 0.75"/>
    </g>
    <g clip-path="url(#p7c0564932b)">
     <use xlink:href="#C1_0_28ba51ec15" x="148.102076" y="32.937187" style="fill: #4c72b0; fill-opacity: 0.75"/>
    </g>
    <g clip-path="url(#p7c0564932b)">
     <use xlink:href="#C1_0_28ba51ec15" x="140.897087" y="76.241083" style="fill: #4c72b0; fill-opacity: 0.75"/>
    </g>
    <g clip-path="url(#p7c0564932b)">
     <use xlink:href="#C1_0_28ba51ec15" x="138.974584" y="69.991951" style="fill: #4c72b0; fill-opacity: 0.75"/>
    </g>
    <g clip-path="url(#p7c0564932b)">
     <use xlink:href="#C1_0_28ba51ec15" x="146.210636" y="41.389119" style="fill: #dd8452; fill-opacity: 0.75"/>
    </g>
    <g clip-path="url(#p7c0564932b)">
     <use xlink:href="#C1_0_28ba51ec15" x="149.425586" y="68.502754" style="fill: #dd8452; fill-opacity: 0.75"/>
    </g>
    <g clip-path="url(#p7c0564932b)">
     <use xlink:href="#C1_0_28ba51ec15" x="143.274019" y="39.330306" style="fill: #dd8452; fill-opacity: 0.75"/>
    </g>
    <g clip-path="url(#p7c0564932b)">
     <use xlink:href="#C1_0_28ba51ec15" x="150.330944" y="38.810679" style="fill: #dd8452; fill-opacity: 0.75"/>
    </g>
   </g>
   <g id="PathCollection_5">
    <defs>
     <path id="C2_0_0660b9882e" d="M 0 2.5 
C 0.663008 2.5 1.29895 2.236584 1.767767 1.767767 
C 2.236584 1.29895 2.5 0.663008 2.5 -0 
C 2.5 -0.663008 2.236584 -1.29895 1.767767 -1.767767 
C 1.29895 -2.236584 0.663008 -2.5 0 -2.5 
C -0.663008 -2.5 -1.29895 -2.236584 -1.767767 -1.767767 
C -2.236584 -1.29895 -2.5 -0.663008 -2.5 0 
C -2.5 0.663008 -2.236584 1.29895 -1.767767 1.767767 
C -1.29895 2.236584 -0.663008 2.5 0 2.5 
z
"/>
    </defs>
    <g clip-path="url(#p7c0564932b)">
     <use xlink:href="#C2_0_0660b9882e" x="213.058507" y="152.645028" style="fill: #4c72b0; fill-opacity: 0.75"/>
    </g>
    <g clip-path="url(#p7c0564932b)">
     <use xlink:href="#C2_0_0660b9882e" x="215.330233" y="173.117636" style="fill: #4c72b0; fill-opacity: 0.75"/>
    </g>
    <g clip-path="url(#p7c0564932b)">
     <use xlink:href="#C2_0_0660b9882e" x="209.654804" y="161.88882" style="fill: #4c72b0; fill-opacity: 0.75"/>
    </g>
    <g clip-path="url(#p7c0564932b)">
     <use xlink:href="#C2_0_0660b9882e" x="205.797053" y="149.73439" style="fill: #4c72b0; fill-opacity: 0.75"/>
    </g>
    <g clip-path="url(#p7c0564932b)">
     <use xlink:href="#C2_0_0660b9882e" x="214.437765" y="157.587312" style="fill: #dd8452; fill-opacity: 0.75"/>
    </g>
    <g clip-path="url(#p7c0564932b)">
     <use xlink:href="#C2_0_0660b9882e" x="202.868593" y="155.55085" style="fill: #dd8452; fill-opacity: 0.75"/>
    </g>
    <g clip-path="url(#p7c0564932b)">
     <use xlink:href="#C2_0_0660b9882e" x="204.680405" y="163.082483" style="fill: #dd8452; fill-opacity: 0.75"/>
    </g>
    <g clip-path="url(#p7c0564932b)">
     <use xlink:href="#C2_0_0660b9882e" x="206.832968" y="151.66494" style="fill: #dd8452; fill-opacity: 0.75"/>
    </g>
   </g>
   <g id="PathCollection_6">
    <defs>
     <path id="C3_0_1ea5b1dc83" d="M 0 2.5 
C 0.663008 2.5 1.29895 2.236584 1.767767 1.767767 
C 2.236584 1.29895 2.5 0.663008 2.5 -0 
C 2.5 -0.663008 2.236584 -1.29895 1.767767 -1.767767 
C 1.29895 -2.236584 0.663008 -2.5 0 -2.5 
C -0.663008 -2.5 -1.29895 -2.236584 -1.767767 -1.767767 
C -2.236584 -1.29895 -2.5 -0.663008 -2.5 0 
C -2.5 0.663008 -2.236584 1.29895 -1.767767 1.767767 
C -1.29895 2.236584 -0.663008 2.5 0 2.5 
z
"/>
    </defs>
    <g clip-path="url(#p7c0564932b)">
     <use xlink:href="#C3_0_1ea5b1dc83" x="277.978235" y="113.615596" style="fill: #4c72b0; fill-opacity: 0.75"/>
    </g>
    <g clip-path="url(#p7c0564932b)">
     <use xlink:href="#C3_0_1ea5b1dc83" x="270.803067" y="103.919576" style="fill: #4c72b0; fill-opacity: 0.75"/>
    </g>
    <g clip-path="url(#p7c0564932b)">
     <use xlink:href="#C3_0_1ea5b1dc83" x="276.335867" y="126.305112" style="fill: #4c72b0; fill-opacity: 0.75"/>
    </g>
    <g clip-path="url(#p7c0564932b)">
     <use xlink:href="#C3_0_1ea5b1dc83" x="269.102547" y="92.367344" style="fill: #4c72b0; fill-opacity: 0.75"/>
    </g>
    <g clip-path="url(#p7c0564932b)">
     <use xlink:href="#C3_0_1ea5b1dc83" x="274.911862" y="106.053111" style="fill: #4c72b0; fill-opacity: 0.75"/>
    </g>
    <g clip-path="url(#p7c0564932b)">
     <use xlink:href="#C3_0_1ea5b1dc83" x="269.648156" y="148.353677" style="fill: #dd8452; fill-opacity: 0.75"/>
    </g>
    <g clip-path="url(#p7c0564932b)">
     <use xlink:href="#C3_0_1ea5b1dc83" x="270.650306" y="126.602837" style="fill: #dd8452; fill-opacity: 0.75"/>
    </g>
    <g clip-path="url(#p7c0564932b)">
     <use xlink:href="#C3_0_1ea5b1dc83" x="277.93304" y="153.922607" style="fill: #dd8452; fill-opacity: 0.75"/>
    </g>
    <g clip-path="url(#p7c0564932b)">
     <use xlink:href="#C3_0_1ea5b1dc83" x="269.753984" y="170.188007" style="fill: #dd8452; fill-opacity: 0.75"/>
    </g>
    <g clip-path="url(#p7c0564932b)">
     <use xlink:href="#C3_0_1ea5b1dc83" x="268.371316" y="186.714476" style="fill: #dd8452; fill-opacity: 0.75"/>
    </g>
   </g>
   <g id="PathCollection_7">
    <defs>
     <path id="C4_0_7acdd25ffb" d="M 0 2.5 
C 0.663008 2.5 1.29895 2.236584 1.767767 1.767767 
C 2.236584 1.29895 2.5 0.663008 2.5 -0 
C 2.5 -0.663008 2.236584 -1.29895 1.767767 -1.767767 
C 1.29895 -2.236584 0.663008 -2.5 0 -2.5 
C -0.663008 -2.5 -1.29895 -2.236584 -1.767767 -1.767767 
C -2.236584 -1.29895 -2.5 -0.663008 -2.5 0 
C -2.5 0.663008 -2.236584 1.29895 -1.767767 1.767767 
C -1.29895 2.236584 -0.663008 2.5 0 2.5 
z
"/>
    </defs>
    <g clip-path="url(#p7c0564932b)">
     <use xlink:href="#C4_0_7acdd25ffb" x="340.8274" y="193.12759" style="fill: #4c72b0; fill-opacity: 0.75"/>
    </g>
    <g clip-path="url(#p7c0564932b)">
     <use xlink:href="#C4_0_7acdd25ffb" x="340.430245" y="189.515819" style="fill: #4c72b0; fill-opacity: 0.75"/>
    </g>
    <g clip-path="url(#p7c0564932b)">
     <use xlink:href="#C4_0_7acdd25ffb" x="332.255213" y="199.911288" style="fill: #4c72b0; fill-opacity: 0.75"/>
    </g>
    <g clip-path="url(#p7c0564932b)">
     <use xlink:href="#C4_0_7acdd25ffb" x="333.39886" y="205.280923" style="fill: #dd8452; fill-opacity: 0.75"/>
    </g>
    <g clip-path="url(#p7c0564932b)">
     <use xlink:href="#C4_0_7acdd25ffb" x="332.484131" y="204.965798" style="fill: #dd8452; fill-opacity: 0.75"/>
    </g>
    <g clip-path="url(#p7c0564932b)">
     <use xlink:href="#C4_0_7acdd25ffb" x="334.800448" y="204.306697" style="fill: #dd8452; fill-opacity: 0.75"/>
    </g>
   </g>
   <g id="PathCollection_8">
    <defs>
     <path id="C5_0_855807912e" d="M 0 2.5 
C 0.663008 2.5 1.29895 2.236584 1.767767 1.767767 
C 2.236584 1.29895 2.5 0.663008 2.5 -0 
C 2.5 -0.663008 2.236584 -1.29895 1.767767 -1.767767 
C 1.29895 -2.236584 0.663008 -2.5 0 -2.5 
C -0.663008 -2.5 -1.29895 -2.236584 -1.767767 -1.767767 
C -2.236584 -1.29895 -2.5 -0.663008 -2.5 0 
C -2.5 0.663008 -2.236584 1.29895 -1.767767 1.767767 
C -1.29895 2.236584 -0.663008 2.5 0 2.5 
z
"/>
    </defs>
    <g clip-path="url(#p7c0564932b)">
     <use xlink:href="#C5_0_855807912e" x="405.594168" y="190.118963" style="fill: #4c72b0; fill-opacity: 0.75"/>
    </g>
    <g clip-path="url(#p7c0564932b)">
     <use xlink:href="#C5_0_855807912e" x="397.085275" y="180.371116" style="fill: #4c72b0; fill-opacity: 0.75"/>
    </g>
    <g clip-path="url(#p7c0564932b)">
     <use xlink:href="#C5_0_855807912e" x="404.531679" y="197.825036" style="fill: #4c72b0; fill-opacity: 0.75"/>
    </g>
    <g clip-path="url(#p7c0564932b)">
     <use xlink:href="#C5_0_855807912e" x="398.677452" y="185.018003" style="fill: #4c72b0; fill-opacity: 0.75"/>
    </g>
    <g clip-path="url(#p7c0564932b)">
     <use xlink:href="#C5_0_855807912e" x="399.279475" y="188.148909" style="fill: #dd8452; fill-opacity: 0.75"/>
    </g>
    <g clip-path="url(#p7c0564932b)">
     <use xlink:href="#C5_0_855807912e" x="397.911004" y="184.377118" style="fill: #dd8452; fill-opacity: 0.75"/>
    </g>
    <g clip-path="url(#p7c0564932b)">
     <use xlink:href="#C5_0_855807912e" x="408.940971" y="181.159493" style="fill: #dd8452; fill-opacity: 0.75"/>
    </g>
    <g clip-path="url(#p7c0564932b)">
     <use xlink:href="#C5_0_855807912e" x="405.454917" y="188.795235" style="fill: #dd8452; fill-opacity: 0.75"/>
    </g>
   </g>
   <g id="PathCollection_9">
    <defs>
     <path id="C6_0_bcd801761b" d="M 0 2.5 
C 0.663008 2.5 1.29895 2.236584 1.767767 1.767767 
C 2.236584 1.29895 2.5 0.663008 2.5 -0 
C 2.5 -0.663008 2.236584 -1.29895 1.767767 -1.767767 
C 1.29895 -2.236584 0.663008 -2.5 0 -2.5 
C -0.663008 -2.5 -1.29895 -2.236584 -1.767767 -1.767767 
C -2.236584 -1.29895 -2.5 -0.663008 -2.5 0 
C -2.5 0.663008 -2.236584 1.29895 -1.767767 1.767767 
C -1.29895 2.236584 -0.663008 2.5 0 2.5 
z
"/>
    </defs>
    <g clip-path="url(#p7c0564932b)">
     <use xlink:href="#C6_0_bcd801761b" x="465.614561" y="180.940161" style="fill: #4c72b0; fill-opacity: 0.75"/>
    </g>
    <g clip-path="url(#p7c0564932b)">
     <use xlink:href="#C6_0_bcd801761b" x="468.234131" y="179.091866" style="fill: #4c72b0; fill-opacity: 0.75"/>
    </g>
    <g clip-path="url(#p7c0564932b)">
     <use xlink:href="#C6_0_bcd801761b" x="471.091945" y="180.471713" style="fill: #4c72b0; fill-opacity: 0.75"/>
    </g>
    <g clip-path="url(#p7c0564932b)">
     <use xlink:href="#C6_0_bcd801761b" x="464.934678" y="183.599387" style="fill: #4c72b0; fill-opacity: 0.75"/>
    </g>
    <g clip-path="url(#p7c0564932b)">
     <use xlink:href="#C6_0_bcd801761b" x="471.038083" y="194.819898" style="fill: #dd8452; fill-opacity: 0.75"/>
    </g>
    <g clip-path="url(#p7c0564932b)">
     <use xlink:href="#C6_0_bcd801761b" x="470.877564" y="193.391705" style="fill: #dd8452; fill-opacity: 0.75"/>
    </g>
    <g clip-path="url(#p7c0564932b)">
     <use xlink:href="#C6_0_bcd801761b" x="473.312921" y="193.712983" style="fill: #dd8452; fill-opacity: 0.75"/>
    </g>
    <g clip-path="url(#p7c0564932b)">
     <use xlink:href="#C6_0_bcd801761b" x="463.777425" y="166.30683" style="fill: #dd8452; fill-opacity: 0.75"/>
    </g>
   </g>
   <g id="text_18">
    <!-- PLSCR1, $p_{adj}$ &lt; .001 *** -->
    <g style="fill: #262626" transform="translate(47.22 18.32)scale(0.09 -0.09)">
     <defs>
      <path id="ArialMT-4c" d="M 469 0 
L 469 4581 
L 1075 4581 
L 1075 541 
L 3331 541 
L 3331 0 
L 469 0 
z
" transform="scale(0.015625)"/>
      <path id="ArialMT-53" d="M 288 1472 
L 859 1522 
Q 900 1178 1048 958 
Q 1197 738 1509 602 
Q 1822 466 2213 466 
Q 2559 466 2825 569 
Q 3091 672 3220 851 
Q 3350 1031 3350 1244 
Q 3350 1459 3225 1620 
Q 3100 1781 2813 1891 
Q 2628 1963 1997 2114 
Q 1366 2266 1113 2400 
Q 784 2572 623 2826 
Q 463 3081 463 3397 
Q 463 3744 659 4045 
Q 856 4347 1234 4503 
Q 1613 4659 2075 4659 
Q 2584 4659 2973 4495 
Q 3363 4331 3572 4012 
Q 3781 3694 3797 3291 
L 3216 3247 
Q 3169 3681 2898 3903 
Q 2628 4125 2100 4125 
Q 1550 4125 1298 3923 
Q 1047 3722 1047 3438 
Q 1047 3191 1225 3031 
Q 1400 2872 2139 2705 
Q 2878 2538 3153 2413 
Q 3553 2228 3743 1945 
Q 3934 1663 3934 1294 
Q 3934 928 3725 604 
Q 3516 281 3123 101 
Q 2731 -78 2241 -78 
Q 1619 -78 1198 103 
Q 778 284 539 648 
Q 300 1013 288 1472 
z
" transform="scale(0.015625)"/>
      <path id="ArialMT-43" d="M 3763 1606 
L 4369 1453 
Q 4178 706 3683 314 
Q 3188 -78 2472 -78 
Q 1731 -78 1267 223 
Q 803 525 561 1097 
Q 319 1669 319 2325 
Q 319 3041 592 3573 
Q 866 4106 1370 4382 
Q 1875 4659 2481 4659 
Q 3169 4659 3637 4309 
Q 4106 3959 4291 3325 
L 3694 3184 
Q 3534 3684 3231 3912 
Q 2928 4141 2469 4141 
Q 1941 4141 1586 3887 
Q 1231 3634 1087 3207 
Q 944 2781 944 2328 
Q 944 1744 1114 1308 
Q 1284 872 1643 656 
Q 2003 441 2422 441 
Q 2931 441 3284 734 
Q 3638 1028 3763 1606 
z
" transform="scale(0.015625)"/>
      <path id="ArialMT-52" d="M 503 0 
L 503 4581 
L 2534 4581 
Q 3147 4581 3465 4457 
Q 3784 4334 3975 4021 
Q 4166 3709 4166 3331 
Q 4166 2844 3850 2509 
Q 3534 2175 2875 2084 
Q 3116 1969 3241 1856 
Q 3506 1613 3744 1247 
L 4541 0 
L 3778 0 
L 3172 953 
Q 2906 1366 2734 1584 
Q 2563 1803 2427 1890 
Q 2291 1978 2150 2013 
Q 2047 2034 1813 2034 
L 1109 2034 
L 1109 0 
L 503 0 
z
M 1109 2559 
L 2413 2559 
Q 2828 2559 3062 2645 
Q 3297 2731 3419 2920 
Q 3541 3109 3541 3331 
Q 3541 3656 3305 3865 
Q 3069 4075 2559 4075 
L 1109 4075 
L 1109 2559 
z
" transform="scale(0.015625)"/>
      <path id="ArialMT-2c" d="M 569 0 
L 569 641 
L 1209 641 
L 1209 0 
Q 1209 -353 1084 -570 
Q 959 -788 688 -906 
L 531 -666 
Q 709 -588 793 -436 
Q 878 -284 888 0 
L 569 0 
z
" transform="scale(0.015625)"/>
      <path id="DejaVuSans-Oblique-70" d="M 3175 2156 
Q 3175 2616 2975 2859 
Q 2775 3103 2400 3103 
Q 2144 3103 1911 2972 
Q 1678 2841 1497 2591 
Q 1319 2344 1212 1994 
Q 1106 1644 1106 1300 
Q 1106 863 1306 627 
Q 1506 391 1875 391 
Q 2147 391 2380 519 
Q 2613 647 2778 891 
Q 2956 1147 3065 1494 
Q 3175 1841 3175 2156 
z
M 1394 2969 
Q 1625 3272 1939 3428 
Q 2253 3584 2638 3584 
Q 3175 3584 3472 3232 
Q 3769 2881 3769 2247 
Q 3769 1728 3584 1258 
Q 3400 788 3053 416 
Q 2822 169 2531 39 
Q 2241 -91 1919 -91 
Q 1547 -91 1294 64 
Q 1041 219 916 525 
L 556 -1331 
L -19 -1331 
L 922 3500 
L 1497 3500 
L 1394 2969 
z
" transform="scale(0.015625)"/>
      <path id="DejaVuSans-Oblique-61" d="M 3438 1997 
L 3047 0 
L 2472 0 
L 2578 531 
Q 2325 219 2001 64 
Q 1678 -91 1281 -91 
Q 834 -91 548 182 
Q 263 456 263 884 
Q 263 1497 752 1853 
Q 1241 2209 2100 2209 
L 2900 2209 
L 2931 2363 
Q 2938 2388 2941 2417 
Q 2944 2447 2944 2509 
Q 2944 2788 2717 2942 
Q 2491 3097 2081 3097 
Q 1800 3097 1504 3025 
Q 1209 2953 897 2809 
L 997 3341 
Q 1322 3463 1633 3523 
Q 1944 3584 2234 3584 
Q 2853 3584 3176 3315 
Q 3500 3047 3500 2534 
Q 3500 2431 3484 2292 
Q 3469 2153 3438 1997 
z
M 2816 1759 
L 2241 1759 
Q 1534 1759 1195 1570 
Q 856 1381 856 984 
Q 856 709 1029 553 
Q 1203 397 1509 397 
Q 1978 397 2328 733 
Q 2678 1069 2791 1631 
L 2816 1759 
z
" transform="scale(0.015625)"/>
      <path id="DejaVuSans-Oblique-64" d="M 2675 525 
Q 2444 222 2128 65 
Q 1813 -91 1428 -91 
Q 903 -91 598 267 
Q 294 625 294 1247 
Q 294 1766 478 2236 
Q 663 2706 1013 3078 
Q 1244 3325 1534 3454 
Q 1825 3584 2144 3584 
Q 2481 3584 2739 3421 
Q 2997 3259 3138 2956 
L 3513 4863 
L 4091 4863 
L 3144 0 
L 2566 0 
L 2675 525 
z
M 891 1350 
Q 891 897 1095 644 
Q 1300 391 1663 391 
Q 1931 391 2161 520 
Q 2391 650 2566 903 
Q 2750 1166 2856 1509 
Q 2963 1853 2963 2188 
Q 2963 2622 2758 2865 
Q 2553 3109 2194 3109 
Q 1922 3109 1687 2981 
Q 1453 2853 1288 2613 
Q 1106 2353 998 2009 
Q 891 1666 891 1350 
z
" transform="scale(0.015625)"/>
      <path id="DejaVuSans-Oblique-6a" d="M 928 3500 
L 1503 3500 
L 813 -63 
L 809 -78 
Q 694 -675 544 -897 
Q 403 -1106 132 -1218 
Q -138 -1331 -506 -1331 
L -722 -1331 
L -628 -844 
L -481 -844 
Q -144 -844 -1 -703 
Q 141 -563 238 -63 
L 928 3500 
z
M 1197 4863 
L 1772 4863 
L 1631 4134 
L 1056 4134 
L 1197 4863 
z
" transform="scale(0.015625)"/>
      <path id="ArialMT-3c" d="M 350 2003 
L 350 2528 
L 3384 3809 
L 3384 3250 
L 978 2263 
L 3384 1266 
L 3384 706 
L 350 2003 
z
" transform="scale(0.015625)"/>
      <path id="ArialMT-2e" d="M 581 0 
L 581 641 
L 1222 641 
L 1222 0 
L 581 0 
z
" transform="scale(0.015625)"/>
      <path id="ArialMT-2a" d="M 200 3741 
L 344 4184 
Q 841 4009 1066 3881 
Q 1006 4447 1003 4659 
L 1456 4659 
Q 1447 4350 1384 3884 
Q 1706 4047 2122 4184 
L 2266 3741 
Q 1869 3609 1488 3566 
Q 1678 3400 2025 2975 
L 1650 2709 
Q 1469 2956 1222 3381 
Q 991 2941 816 2709 
L 447 2975 
Q 809 3422 966 3566 
Q 563 3644 200 3741 
z
" transform="scale(0.015625)"/>
     </defs>
     <use xlink:href="#ArialMT-50" transform="translate(0 0.203125)"/>
     <use xlink:href="#ArialMT-4c" transform="translate(66.699219 0.203125)"/>
     <use xlink:href="#ArialMT-53" transform="translate(122.314453 0.203125)"/>
     <use xlink:href="#ArialMT-43" transform="translate(189.013672 0.203125)"/>
     <use xlink:href="#ArialMT-52" transform="translate(261.230469 0.203125)"/>
     <use xlink:href="#ArialMT-31" transform="translate(333.447266 0.203125)"/>
     <use xlink:href="#ArialMT-2c" transform="translate(389.0625 0.203125)"/>
     <use xlink:href="#ArialMT-20" transform="translate(416.845703 0.203125)"/>
     <use xlink:href="#DejaVuSans-Oblique-70" transform="translate(444.628906 0.203125)"/>
     <use xlink:href="#DejaVuSans-Oblique-61" transform="translate(508.105469 -16.203125)scale(0.7)"/>
     <use xlink:href="#DejaVuSans-Oblique-64" transform="translate(551.000977 -16.203125)scale(0.7)"/>
     <use xlink:href="#DejaVuSans-Oblique-6a" transform="translate(595.43457 -16.203125)scale(0.7)"/>
     <use xlink:href="#ArialMT-20" transform="translate(617.617188 0.203125)"/>
     <use xlink:href="#ArialMT-3c" transform="translate(645.400391 0.203125)"/>
     <use xlink:href="#ArialMT-20" transform="translate(703.798828 0.203125)"/>
     <use xlink:href="#ArialMT-2e" transform="translate(731.582031 0.203125)"/>
     <use xlink:href="#ArialMT-30" transform="translate(759.365234 0.203125)"/>
     <use xlink:href="#ArialMT-30" transform="translate(814.980469 0.203125)"/>
     <use xlink:href="#ArialMT-31" transform="translate(870.595703 0.203125)"/>
     <use xlink:href="#ArialMT-20" transform="translate(926.210938 0.203125)"/>
     <use xlink:href="#ArialMT-2a" transform="translate(953.994141 0.203125)"/>
     <use xlink:href="#ArialMT-2a" transform="translate(992.910156 0.203125)"/>
     <use xlink:href="#ArialMT-2a" transform="translate(1031.826172 0.203125)"/>
    </g>
   </g>
   <g id="legend_1">
    <g id="patch_5">
     <path d="M 441.91497 69.712344 
L 494.21622 69.712344 
Q 496.01622 69.712344 496.01622 67.912344 
L 496.01622 30.62 
Q 496.01622 28.82 494.21622 28.82 
L 441.91497 28.82 
Q 440.11497 28.82 440.11497 30.62 
L 440.11497 67.912344 
Q 440.11497 69.712344 441.91497 69.712344 
z
" style="fill: #ffffff; opacity: 0.8; stroke: #cccccc; stroke-linejoin: miter"/>
    </g>
    <g id="text_19">
     <!-- Treatment -->
     <g style="fill: #262626" transform="translate(447.729111 38.862031)scale(0.09 -0.09)">
      <use xlink:href="#ArialMT-54"/>
      <use xlink:href="#ArialMT-72" x="57.333984"/>
      <use xlink:href="#ArialMT-65" x="90.634766"/>
      <use xlink:href="#ArialMT-61" x="146.25"/>
      <use xlink:href="#ArialMT-74" x="201.865234"/>
      <use xlink:href="#ArialMT-6d" x="229.648438"/>
      <use xlink:href="#ArialMT-65" x="312.949219"/>
      <use xlink:href="#ArialMT-6e" x="368.564453"/>
      <use xlink:href="#ArialMT-74" x="424.179688"/>
     </g>
    </g>
    <g id="PathCollection_10">
     <defs>
      <path id="meecda53cde" d="M 0 3.872983 
C 1.027127 3.872983 2.012324 3.464901 2.738613 2.738613 
C 3.464901 2.012324 3.872983 1.027127 3.872983 0 
C 3.872983 -1.027127 3.464901 -2.012324 2.738613 -2.738613 
C 2.012324 -3.464901 1.027127 -3.872983 0 -3.872983 
C -1.027127 -3.872983 -2.012324 -3.464901 -2.738613 -2.738613 
C -3.464901 -2.012324 -3.872983 -1.027127 -3.872983 0 
C -3.872983 1.027127 -3.464901 2.012324 -2.738613 2.738613 
C -2.012324 3.464901 -1.027127 3.872983 0 3.872983 
z
" style="stroke: #4c72b0"/>
     </defs>
     <g>
      <use xlink:href="#meecda53cde" x="452.71497" y="49.230313" style="fill: #4c72b0; stroke: #4c72b0"/>
     </g>
    </g>
    <g id="text_20">
     <!-- BEVA -->
     <g style="fill: #262626" transform="translate(468.91497 51.592813)scale(0.09 -0.09)">
      <defs>
       <path id="ArialMT-42" d="M 469 0 
L 469 4581 
L 2188 4581 
Q 2713 4581 3030 4442 
Q 3347 4303 3526 4014 
Q 3706 3725 3706 3409 
Q 3706 3116 3547 2856 
Q 3388 2597 3066 2438 
Q 3481 2316 3704 2022 
Q 3928 1728 3928 1328 
Q 3928 1006 3792 729 
Q 3656 453 3456 303 
Q 3256 153 2954 76 
Q 2653 0 2216 0 
L 469 0 
z
M 1075 2656 
L 2066 2656 
Q 2469 2656 2644 2709 
Q 2875 2778 2992 2937 
Q 3109 3097 3109 3338 
Q 3109 3566 3000 3739 
Q 2891 3913 2687 3977 
Q 2484 4041 1991 4041 
L 1075 4041 
L 1075 2656 
z
M 1075 541 
L 2216 541 
Q 2509 541 2628 563 
Q 2838 600 2978 687 
Q 3119 775 3209 942 
Q 3300 1109 3300 1328 
Q 3300 1584 3169 1773 
Q 3038 1963 2805 2039 
Q 2572 2116 2134 2116 
L 1075 2116 
L 1075 541 
z
" transform="scale(0.015625)"/>
       <path id="ArialMT-45" d="M 506 0 
L 506 4581 
L 3819 4581 
L 3819 4041 
L 1113 4041 
L 1113 2638 
L 3647 2638 
L 3647 2100 
L 1113 2100 
L 1113 541 
L 3925 541 
L 3925 0 
L 506 0 
z
" transform="scale(0.015625)"/>
       <path id="ArialMT-56" d="M 1803 0 
L 28 4581 
L 684 4581 
L 1875 1253 
Q 2019 853 2116 503 
Q 2222 878 2363 1253 
L 3600 4581 
L 4219 4581 
L 2425 0 
L 1803 0 
z
" transform="scale(0.015625)"/>
       <path id="ArialMT-41" d="M -9 0 
L 1750 4581 
L 2403 4581 
L 4278 0 
L 3588 0 
L 3053 1388 
L 1138 1388 
L 634 0 
L -9 0 
z
M 1313 1881 
L 2866 1881 
L 2388 3150 
Q 2169 3728 2063 4100 
Q 1975 3659 1816 3225 
L 1313 1881 
z
" transform="scale(0.015625)"/>
      </defs>
      <use xlink:href="#ArialMT-42"/>
      <use xlink:href="#ArialMT-45" x="66.699219"/>
      <use xlink:href="#ArialMT-56" x="133.398438"/>
      <use xlink:href="#ArialMT-41" x="192.722656"/>
     </g>
    </g>
    <g id="PathCollection_11">
     <defs>
      <path id="m11d1c5eaee" d="M 0 3.872983 
C 1.027127 3.872983 2.012324 3.464901 2.738613 2.738613 
C 3.464901 2.012324 3.872983 1.027127 3.872983 0 
C 3.872983 -1.027127 3.464901 -2.012324 2.738613 -2.738613 
C 2.012324 -3.464901 1.027127 -3.872983 0 -3.872983 
C -1.027127 -3.872983 -2.012324 -3.464901 -2.738613 -2.738613 
C -3.464901 -2.012324 -3.872983 -1.027127 -3.872983 0 
C -3.872983 1.027127 -3.464901 2.012324 -2.738613 2.738613 
C -2.012324 3.464901 -1.027127 3.872983 0 3.872983 
z
" style="stroke: #dd8452"/>
     </defs>
     <g>
      <use xlink:href="#m11d1c5eaee" x="452.71497" y="61.961094" style="fill: #dd8452; stroke: #dd8452"/>
     </g>
    </g>
    <g id="text_21">
     <!-- CTRL -->
     <g style="fill: #262626" transform="translate(468.91497 64.323594)scale(0.09 -0.09)">
      <use xlink:href="#ArialMT-43"/>
      <use xlink:href="#ArialMT-54" x="72.216797"/>
      <use xlink:href="#ArialMT-52" x="133.300781"/>
      <use xlink:href="#ArialMT-4c" x="205.517578"/>
     </g>
    </g>
   </g>
  </g>
 </g>
 <defs>
  <clipPath id="p7c0564932b">
   <rect x="47.22" y="24.32" width="453.29622" height="189.57811"/>
  </clipPath>
 </defs>
</svg>
