<?xml version="1.0" encoding="utf-8" standalone="no"?>
<!DOCTYPE svg PUBLIC "-//W3C//DTD SVG 1.1//EN"
  "http://www.w3.org/Graphics/SVG/1.1/DTD/svg11.dtd">
<svg xmlns:xlink="http://www.w3.org/1999/xlink" width="510.23622pt" height="255.11811pt" viewBox="0 0 510.23622 255.11811" xmlns="http://www.w3.org/2000/svg" version="1.1">
 <metadata>
  <rdf:RDF xmlns:dc="http://purl.org/dc/elements/1.1/" xmlns:cc="http://creativecommons.org/ns#" xmlns:rdf="http://www.w3.org/1999/02/22-rdf-syntax-ns#">
   <cc:Work>
    <dc:type rdf:resource="http://purl.org/dc/dcmitype/StillImage"/>
    <dc:date>2022-04-27T00:20:31.634768</dc:date>
    <dc:format>image/svg+xml</dc:format>
    <dc:creator>
     <cc:Agent>
      <dc:title>Matplotlib v3.5.1, https://matplotlib.org/</dc:title>
     </cc:Agent>
    </dc:creator>
   </cc:Work>
  </rdf:RDF>
 </metadata>
 <defs>
  <style type="text/css">*{stroke-linejoin: round; stroke-linecap: butt}</style>
 </defs>
 <g id="figure_1">
  <g id="patch_1">
   <path d="M 0 255.11811 
L 510.23622 255.11811 
L 510.23622 0 
L 0 0 
z
" style="fill: #ffffff"/>
  </g>
  <g id="axes_1">
   <g id="patch_2">
    <path d="M 42.22 213.89811 
L 500.51622 213.89811 
L 500.51622 24.32 
L 42.22 24.32 
z
" style="fill: #ffffff"/>
   </g>
   <g id="matplotlib.axis_1">
    <g id="xtick_1">
     <g id="text_1">
      <!-- 49 -->
      <g style="fill: #444444" transform="translate(69.950601 229.840141)scale(0.09 -0.09)">
       <defs>
        <path id="ArialMT-34" d="M 2069 0 
L 2069 1097 
L 81 1097 
L 81 1613 
L 2172 4581 
L 2631 4581 
L 2631 1613 
L 3250 1613 
L 3250 1097 
L 2631 1097 
L 2631 0 
L 2069 0 
z
M 2069 1613 
L 2069 3678 
L 634 1613 
L 2069 1613 
z
" transform="scale(0.015625)"/>
        <path id="ArialMT-39" d="M 350 1059 
L 891 1109 
Q 959 728 1153 556 
Q 1347 384 1650 384 
Q 1909 384 2104 503 
Q 2300 622 2425 820 
Q 2550 1019 2634 1356 
Q 2719 1694 2719 2044 
Q 2719 2081 2716 2156 
Q 2547 1888 2255 1720 
Q 1963 1553 1622 1553 
Q 1053 1553 659 1965 
Q 266 2378 266 3053 
Q 266 3750 677 4175 
Q 1088 4600 1706 4600 
Q 2153 4600 2523 4359 
Q 2894 4119 3086 3673 
Q 3278 3228 3278 2384 
Q 3278 1506 3087 986 
Q 2897 466 2520 194 
Q 2144 -78 1638 -78 
Q 1100 -78 759 220 
Q 419 519 350 1059 
z
M 2653 3081 
Q 2653 3566 2395 3850 
Q 2138 4134 1775 4134 
Q 1400 4134 1122 3828 
Q 844 3522 844 3034 
Q 844 2597 1108 2323 
Q 1372 2050 1759 2050 
Q 2150 2050 2401 2323 
Q 2653 2597 2653 3081 
z
" transform="scale(0.015625)"/>
       </defs>
       <use xlink:href="#ArialMT-34"/>
       <use xlink:href="#ArialMT-39" x="55.615234"/>
      </g>
     </g>
    </g>
    <g id="xtick_2">
     <g id="text_2">
      <!-- 17 -->
      <g style="fill: #444444" transform="translate(135.421489 229.840141)scale(0.09 -0.09)">
       <defs>
        <path id="ArialMT-31" d="M 2384 0 
L 1822 0 
L 1822 3584 
Q 1619 3391 1289 3197 
Q 959 3003 697 2906 
L 697 3450 
Q 1169 3672 1522 3987 
Q 1875 4303 2022 4600 
L 2384 4600 
L 2384 0 
z
" transform="scale(0.015625)"/>
        <path id="ArialMT-37" d="M 303 3981 
L 303 4522 
L 3269 4522 
L 3269 4084 
Q 2831 3619 2401 2847 
Q 1972 2075 1738 1259 
Q 1569 684 1522 0 
L 944 0 
Q 953 541 1156 1306 
Q 1359 2072 1739 2783 
Q 2119 3494 2547 3981 
L 303 3981 
z
" transform="scale(0.015625)"/>
       </defs>
       <use xlink:href="#ArialMT-31"/>
       <use xlink:href="#ArialMT-37" x="55.615234"/>
      </g>
     </g>
    </g>
    <g id="xtick_3">
     <g id="text_3">
      <!-- 69 -->
      <g style="fill: #444444" transform="translate(200.892378 229.840141)scale(0.09 -0.09)">
       <defs>
        <path id="ArialMT-36" d="M 3184 3459 
L 2625 3416 
Q 2550 3747 2413 3897 
Q 2184 4138 1850 4138 
Q 1581 4138 1378 3988 
Q 1113 3794 959 3422 
Q 806 3050 800 2363 
Q 1003 2672 1297 2822 
Q 1591 2972 1913 2972 
Q 2475 2972 2870 2558 
Q 3266 2144 3266 1488 
Q 3266 1056 3080 686 
Q 2894 316 2569 119 
Q 2244 -78 1831 -78 
Q 1128 -78 684 439 
Q 241 956 241 2144 
Q 241 3472 731 4075 
Q 1159 4600 1884 4600 
Q 2425 4600 2770 4297 
Q 3116 3994 3184 3459 
z
M 888 1484 
Q 888 1194 1011 928 
Q 1134 663 1356 523 
Q 1578 384 1822 384 
Q 2178 384 2434 671 
Q 2691 959 2691 1453 
Q 2691 1928 2437 2201 
Q 2184 2475 1800 2475 
Q 1419 2475 1153 2201 
Q 888 1928 888 1484 
z
" transform="scale(0.015625)"/>
       </defs>
       <use xlink:href="#ArialMT-36"/>
       <use xlink:href="#ArialMT-39" x="55.615234"/>
      </g>
     </g>
    </g>
    <g id="xtick_4">
     <g id="text_4">
      <!-- 15 -->
      <g style="fill: #444444" transform="translate(266.363266 229.840141)scale(0.09 -0.09)">
       <defs>
        <path id="ArialMT-35" d="M 266 1200 
L 856 1250 
Q 922 819 1161 601 
Q 1400 384 1738 384 
Q 2144 384 2425 690 
Q 2706 997 2706 1503 
Q 2706 1984 2436 2262 
Q 2166 2541 1728 2541 
Q 1456 2541 1237 2417 
Q 1019 2294 894 2097 
L 366 2166 
L 809 4519 
L 3088 4519 
L 3088 3981 
L 1259 3981 
L 1013 2750 
Q 1425 3038 1878 3038 
Q 2478 3038 2890 2622 
Q 3303 2206 3303 1553 
Q 3303 931 2941 478 
Q 2500 -78 1738 -78 
Q 1113 -78 717 272 
Q 322 622 266 1200 
z
" transform="scale(0.015625)"/>
       </defs>
       <use xlink:href="#ArialMT-31"/>
       <use xlink:href="#ArialMT-35" x="55.615234"/>
      </g>
     </g>
    </g>
    <g id="xtick_5">
     <g id="text_5">
      <!-- 5 -->
      <g style="fill: #444444" transform="translate(334.336577 229.840141)scale(0.09 -0.09)">
       <use xlink:href="#ArialMT-35"/>
      </g>
     </g>
    </g>
    <g id="xtick_6">
     <g id="text_6">
      <!-- 126 -->
      <g style="fill: #444444" transform="translate(394.802622 229.840141)scale(0.09 -0.09)">
       <defs>
        <path id="ArialMT-32" d="M 3222 541 
L 3222 0 
L 194 0 
Q 188 203 259 391 
Q 375 700 629 1000 
Q 884 1300 1366 1694 
Q 2113 2306 2375 2664 
Q 2638 3022 2638 3341 
Q 2638 3675 2398 3904 
Q 2159 4134 1775 4134 
Q 1369 4134 1125 3890 
Q 881 3647 878 3216 
L 300 3275 
Q 359 3922 746 4261 
Q 1134 4600 1788 4600 
Q 2447 4600 2831 4234 
Q 3216 3869 3216 3328 
Q 3216 3053 3103 2787 
Q 2991 2522 2730 2228 
Q 2469 1934 1863 1422 
Q 1356 997 1212 845 
Q 1069 694 975 541 
L 3222 541 
z
" transform="scale(0.015625)"/>
       </defs>
       <use xlink:href="#ArialMT-31"/>
       <use xlink:href="#ArialMT-32" x="55.615234"/>
       <use xlink:href="#ArialMT-36" x="111.230469"/>
      </g>
     </g>
    </g>
    <g id="xtick_7">
     <g id="text_7">
      <!-- 62 -->
      <g style="fill: #444444" transform="translate(462.775932 229.840141)scale(0.09 -0.09)">
       <use xlink:href="#ArialMT-36"/>
       <use xlink:href="#ArialMT-32" x="55.615234"/>
      </g>
     </g>
    </g>
    <g id="text_8">
     <!-- Patient -->
     <g style="fill: #444444" transform="translate(257.359048 242.070923)scale(0.09 -0.09)">
      <defs>
       <path id="ArialMT-50" d="M 494 0 
L 494 4581 
L 2222 4581 
Q 2678 4581 2919 4538 
Q 3256 4481 3484 4323 
Q 3713 4166 3852 3881 
Q 3991 3597 3991 3256 
Q 3991 2672 3619 2267 
Q 3247 1863 2275 1863 
L 1100 1863 
L 1100 0 
L 494 0 
z
M 1100 2403 
L 2284 2403 
Q 2872 2403 3119 2622 
Q 3366 2841 3366 3238 
Q 3366 3525 3220 3729 
Q 3075 3934 2838 4000 
Q 2684 4041 2272 4041 
L 1100 4041 
L 1100 2403 
z
" transform="scale(0.015625)"/>
       <path id="ArialMT-61" d="M 2588 409 
Q 2275 144 1986 34 
Q 1697 -75 1366 -75 
Q 819 -75 525 192 
Q 231 459 231 875 
Q 231 1119 342 1320 
Q 453 1522 633 1644 
Q 813 1766 1038 1828 
Q 1203 1872 1538 1913 
Q 2219 1994 2541 2106 
Q 2544 2222 2544 2253 
Q 2544 2597 2384 2738 
Q 2169 2928 1744 2928 
Q 1347 2928 1158 2789 
Q 969 2650 878 2297 
L 328 2372 
Q 403 2725 575 2942 
Q 747 3159 1072 3276 
Q 1397 3394 1825 3394 
Q 2250 3394 2515 3294 
Q 2781 3194 2906 3042 
Q 3031 2891 3081 2659 
Q 3109 2516 3109 2141 
L 3109 1391 
Q 3109 606 3145 398 
Q 3181 191 3288 0 
L 2700 0 
Q 2613 175 2588 409 
z
M 2541 1666 
Q 2234 1541 1622 1453 
Q 1275 1403 1131 1340 
Q 988 1278 909 1158 
Q 831 1038 831 891 
Q 831 666 1001 516 
Q 1172 366 1500 366 
Q 1825 366 2078 508 
Q 2331 650 2450 897 
Q 2541 1088 2541 1459 
L 2541 1666 
z
" transform="scale(0.015625)"/>
       <path id="ArialMT-74" d="M 1650 503 
L 1731 6 
Q 1494 -44 1306 -44 
Q 1000 -44 831 53 
Q 663 150 594 308 
Q 525 466 525 972 
L 525 2881 
L 113 2881 
L 113 3319 
L 525 3319 
L 525 4141 
L 1084 4478 
L 1084 3319 
L 1650 3319 
L 1650 2881 
L 1084 2881 
L 1084 941 
Q 1084 700 1114 631 
Q 1144 563 1211 522 
Q 1278 481 1403 481 
Q 1497 481 1650 503 
z
" transform="scale(0.015625)"/>
       <path id="ArialMT-69" d="M 425 3934 
L 425 4581 
L 988 4581 
L 988 3934 
L 425 3934 
z
M 425 0 
L 425 3319 
L 988 3319 
L 988 0 
L 425 0 
z
" transform="scale(0.015625)"/>
       <path id="ArialMT-65" d="M 2694 1069 
L 3275 997 
Q 3138 488 2766 206 
Q 2394 -75 1816 -75 
Q 1088 -75 661 373 
Q 234 822 234 1631 
Q 234 2469 665 2931 
Q 1097 3394 1784 3394 
Q 2450 3394 2872 2941 
Q 3294 2488 3294 1666 
Q 3294 1616 3291 1516 
L 816 1516 
Q 847 969 1125 678 
Q 1403 388 1819 388 
Q 2128 388 2347 550 
Q 2566 713 2694 1069 
z
M 847 1978 
L 2700 1978 
Q 2663 2397 2488 2606 
Q 2219 2931 1791 2931 
Q 1403 2931 1139 2672 
Q 875 2413 847 1978 
z
" transform="scale(0.015625)"/>
       <path id="ArialMT-6e" d="M 422 0 
L 422 3319 
L 928 3319 
L 928 2847 
Q 1294 3394 1984 3394 
Q 2284 3394 2536 3286 
Q 2788 3178 2913 3003 
Q 3038 2828 3088 2588 
Q 3119 2431 3119 2041 
L 3119 0 
L 2556 0 
L 2556 2019 
Q 2556 2363 2490 2533 
Q 2425 2703 2258 2804 
Q 2091 2906 1866 2906 
Q 1506 2906 1245 2678 
Q 984 2450 984 1813 
L 984 0 
L 422 0 
z
" transform="scale(0.015625)"/>
      </defs>
      <use xlink:href="#ArialMT-50"/>
      <use xlink:href="#ArialMT-61" x="66.699219"/>
      <use xlink:href="#ArialMT-74" x="122.314453"/>
      <use xlink:href="#ArialMT-69" x="150.097656"/>
      <use xlink:href="#ArialMT-65" x="172.314453"/>
      <use xlink:href="#ArialMT-6e" x="227.929688"/>
      <use xlink:href="#ArialMT-74" x="283.544922"/>
     </g>
    </g>
   </g>
   <g id="matplotlib.axis_2">
    <g id="ytick_1">
     <g id="text_9">
      <!-- 30 -->
      <g style="fill: #444444" transform="translate(22.710313 186.505425)scale(0.09 -0.09)">
       <defs>
        <path id="ArialMT-33" d="M 269 1209 
L 831 1284 
Q 928 806 1161 595 
Q 1394 384 1728 384 
Q 2125 384 2398 659 
Q 2672 934 2672 1341 
Q 2672 1728 2419 1979 
Q 2166 2231 1775 2231 
Q 1616 2231 1378 2169 
L 1441 2663 
Q 1497 2656 1531 2656 
Q 1891 2656 2178 2843 
Q 2466 3031 2466 3422 
Q 2466 3731 2256 3934 
Q 2047 4138 1716 4138 
Q 1388 4138 1169 3931 
Q 950 3725 888 3313 
L 325 3413 
Q 428 3978 793 4289 
Q 1159 4600 1703 4600 
Q 2078 4600 2393 4439 
Q 2709 4278 2876 4000 
Q 3044 3722 3044 3409 
Q 3044 3113 2884 2869 
Q 2725 2625 2413 2481 
Q 2819 2388 3044 2092 
Q 3269 1797 3269 1353 
Q 3269 753 2831 336 
Q 2394 -81 1725 -81 
Q 1122 -81 723 278 
Q 325 638 269 1209 
z
" transform="scale(0.015625)"/>
        <path id="ArialMT-30" d="M 266 2259 
Q 266 3072 433 3567 
Q 600 4063 929 4331 
Q 1259 4600 1759 4600 
Q 2128 4600 2406 4451 
Q 2684 4303 2865 4023 
Q 3047 3744 3150 3342 
Q 3253 2941 3253 2259 
Q 3253 1453 3087 958 
Q 2922 463 2592 192 
Q 2263 -78 1759 -78 
Q 1097 -78 719 397 
Q 266 969 266 2259 
z
M 844 2259 
Q 844 1131 1108 757 
Q 1372 384 1759 384 
Q 2147 384 2411 759 
Q 2675 1134 2675 2259 
Q 2675 3391 2411 3762 
Q 2147 4134 1753 4134 
Q 1366 4134 1134 3806 
Q 844 3388 844 2259 
z
" transform="scale(0.015625)"/>
       </defs>
       <use xlink:href="#ArialMT-33"/>
       <use xlink:href="#ArialMT-30" x="55.615234"/>
      </g>
     </g>
    </g>
    <g id="ytick_2">
     <g id="text_10">
      <!-- 40 -->
      <g style="fill: #444444" transform="translate(22.710313 151.634535)scale(0.09 -0.09)">
       <use xlink:href="#ArialMT-34"/>
       <use xlink:href="#ArialMT-30" x="55.615234"/>
      </g>
     </g>
    </g>
    <g id="ytick_3">
     <g id="text_11">
      <!-- 50 -->
      <g style="fill: #444444" transform="translate(22.710313 116.763645)scale(0.09 -0.09)">
       <use xlink:href="#ArialMT-35"/>
       <use xlink:href="#ArialMT-30" x="55.615234"/>
      </g>
     </g>
    </g>
    <g id="ytick_4">
     <g id="text_12">
      <!-- 60 -->
      <g style="fill: #444444" transform="translate(22.710313 81.892755)scale(0.09 -0.09)">
       <use xlink:href="#ArialMT-36"/>
       <use xlink:href="#ArialMT-30" x="55.615234"/>
      </g>
     </g>
    </g>
    <g id="ytick_5">
     <g id="text_13">
      <!-- 70 -->
      <g style="fill: #444444" transform="translate(22.710313 47.021865)scale(0.09 -0.09)">
       <use xlink:href="#ArialMT-37"/>
       <use xlink:href="#ArialMT-30" x="55.615234"/>
      </g>
     </g>
    </g>
    <g id="text_14">
     <!-- Trimmed Means of M values (TMM) -->
     <g style="fill: #444444" transform="translate(16.816094 190.194993)rotate(-90)scale(0.09 -0.09)">
      <defs>
       <path id="ArialMT-54" d="M 1659 0 
L 1659 4041 
L 150 4041 
L 150 4581 
L 3781 4581 
L 3781 4041 
L 2266 4041 
L 2266 0 
L 1659 0 
z
" transform="scale(0.015625)"/>
       <path id="ArialMT-72" d="M 416 0 
L 416 3319 
L 922 3319 
L 922 2816 
Q 1116 3169 1280 3281 
Q 1444 3394 1641 3394 
Q 1925 3394 2219 3213 
L 2025 2691 
Q 1819 2813 1613 2813 
Q 1428 2813 1281 2702 
Q 1134 2591 1072 2394 
Q 978 2094 978 1738 
L 978 0 
L 416 0 
z
" transform="scale(0.015625)"/>
       <path id="ArialMT-6d" d="M 422 0 
L 422 3319 
L 925 3319 
L 925 2853 
Q 1081 3097 1340 3245 
Q 1600 3394 1931 3394 
Q 2300 3394 2536 3241 
Q 2772 3088 2869 2813 
Q 3263 3394 3894 3394 
Q 4388 3394 4653 3120 
Q 4919 2847 4919 2278 
L 4919 0 
L 4359 0 
L 4359 2091 
Q 4359 2428 4304 2576 
Q 4250 2725 4106 2815 
Q 3963 2906 3769 2906 
Q 3419 2906 3187 2673 
Q 2956 2441 2956 1928 
L 2956 0 
L 2394 0 
L 2394 2156 
Q 2394 2531 2256 2718 
Q 2119 2906 1806 2906 
Q 1569 2906 1367 2781 
Q 1166 2656 1075 2415 
Q 984 2175 984 1722 
L 984 0 
L 422 0 
z
" transform="scale(0.015625)"/>
       <path id="ArialMT-64" d="M 2575 0 
L 2575 419 
Q 2259 -75 1647 -75 
Q 1250 -75 917 144 
Q 584 363 401 755 
Q 219 1147 219 1656 
Q 219 2153 384 2558 
Q 550 2963 881 3178 
Q 1213 3394 1622 3394 
Q 1922 3394 2156 3267 
Q 2391 3141 2538 2938 
L 2538 4581 
L 3097 4581 
L 3097 0 
L 2575 0 
z
M 797 1656 
Q 797 1019 1065 703 
Q 1334 388 1700 388 
Q 2069 388 2326 689 
Q 2584 991 2584 1609 
Q 2584 2291 2321 2609 
Q 2059 2928 1675 2928 
Q 1300 2928 1048 2622 
Q 797 2316 797 1656 
z
" transform="scale(0.015625)"/>
       <path id="ArialMT-20" transform="scale(0.015625)"/>
       <path id="ArialMT-4d" d="M 475 0 
L 475 4581 
L 1388 4581 
L 2472 1338 
Q 2622 884 2691 659 
Q 2769 909 2934 1394 
L 4031 4581 
L 4847 4581 
L 4847 0 
L 4263 0 
L 4263 3834 
L 2931 0 
L 2384 0 
L 1059 3900 
L 1059 0 
L 475 0 
z
" transform="scale(0.015625)"/>
       <path id="ArialMT-73" d="M 197 991 
L 753 1078 
Q 800 744 1014 566 
Q 1228 388 1613 388 
Q 2000 388 2187 545 
Q 2375 703 2375 916 
Q 2375 1106 2209 1216 
Q 2094 1291 1634 1406 
Q 1016 1563 777 1677 
Q 538 1791 414 1992 
Q 291 2194 291 2438 
Q 291 2659 392 2848 
Q 494 3038 669 3163 
Q 800 3259 1026 3326 
Q 1253 3394 1513 3394 
Q 1903 3394 2198 3281 
Q 2494 3169 2634 2976 
Q 2775 2784 2828 2463 
L 2278 2388 
Q 2241 2644 2061 2787 
Q 1881 2931 1553 2931 
Q 1166 2931 1000 2803 
Q 834 2675 834 2503 
Q 834 2394 903 2306 
Q 972 2216 1119 2156 
Q 1203 2125 1616 2013 
Q 2213 1853 2448 1751 
Q 2684 1650 2818 1456 
Q 2953 1263 2953 975 
Q 2953 694 2789 445 
Q 2625 197 2315 61 
Q 2006 -75 1616 -75 
Q 969 -75 630 194 
Q 291 463 197 991 
z
" transform="scale(0.015625)"/>
       <path id="ArialMT-6f" d="M 213 1659 
Q 213 2581 725 3025 
Q 1153 3394 1769 3394 
Q 2453 3394 2887 2945 
Q 3322 2497 3322 1706 
Q 3322 1066 3130 698 
Q 2938 331 2570 128 
Q 2203 -75 1769 -75 
Q 1072 -75 642 372 
Q 213 819 213 1659 
z
M 791 1659 
Q 791 1022 1069 705 
Q 1347 388 1769 388 
Q 2188 388 2466 706 
Q 2744 1025 2744 1678 
Q 2744 2294 2464 2611 
Q 2184 2928 1769 2928 
Q 1347 2928 1069 2612 
Q 791 2297 791 1659 
z
" transform="scale(0.015625)"/>
       <path id="ArialMT-66" d="M 556 0 
L 556 2881 
L 59 2881 
L 59 3319 
L 556 3319 
L 556 3672 
Q 556 4006 616 4169 
Q 697 4388 901 4523 
Q 1106 4659 1475 4659 
Q 1713 4659 2000 4603 
L 1916 4113 
Q 1741 4144 1584 4144 
Q 1328 4144 1222 4034 
Q 1116 3925 1116 3625 
L 1116 3319 
L 1763 3319 
L 1763 2881 
L 1116 2881 
L 1116 0 
L 556 0 
z
" transform="scale(0.015625)"/>
       <path id="ArialMT-76" d="M 1344 0 
L 81 3319 
L 675 3319 
L 1388 1331 
Q 1503 1009 1600 663 
Q 1675 925 1809 1294 
L 2547 3319 
L 3125 3319 
L 1869 0 
L 1344 0 
z
" transform="scale(0.015625)"/>
       <path id="ArialMT-6c" d="M 409 0 
L 409 4581 
L 972 4581 
L 972 0 
L 409 0 
z
" transform="scale(0.015625)"/>
       <path id="ArialMT-75" d="M 2597 0 
L 2597 488 
Q 2209 -75 1544 -75 
Q 1250 -75 995 37 
Q 741 150 617 320 
Q 494 491 444 738 
Q 409 903 409 1263 
L 409 3319 
L 972 3319 
L 972 1478 
Q 972 1038 1006 884 
Q 1059 663 1231 536 
Q 1403 409 1656 409 
Q 1909 409 2131 539 
Q 2353 669 2445 892 
Q 2538 1116 2538 1541 
L 2538 3319 
L 3100 3319 
L 3100 0 
L 2597 0 
z
" transform="scale(0.015625)"/>
       <path id="ArialMT-28" d="M 1497 -1347 
Q 1031 -759 709 28 
Q 388 816 388 1659 
Q 388 2403 628 3084 
Q 909 3875 1497 4659 
L 1900 4659 
Q 1522 4009 1400 3731 
Q 1209 3300 1100 2831 
Q 966 2247 966 1656 
Q 966 153 1900 -1347 
L 1497 -1347 
z
" transform="scale(0.015625)"/>
       <path id="ArialMT-29" d="M 791 -1347 
L 388 -1347 
Q 1322 153 1322 1656 
Q 1322 2244 1188 2822 
Q 1081 3291 891 3722 
Q 769 4003 388 4659 
L 791 4659 
Q 1378 3875 1659 3084 
Q 1900 2403 1900 1659 
Q 1900 816 1576 28 
Q 1253 -759 791 -1347 
z
" transform="scale(0.015625)"/>
      </defs>
      <use xlink:href="#ArialMT-54"/>
      <use xlink:href="#ArialMT-72" x="57.333984"/>
      <use xlink:href="#ArialMT-69" x="90.634766"/>
      <use xlink:href="#ArialMT-6d" x="112.851562"/>
      <use xlink:href="#ArialMT-6d" x="196.152344"/>
      <use xlink:href="#ArialMT-65" x="279.453125"/>
      <use xlink:href="#ArialMT-64" x="335.068359"/>
      <use xlink:href="#ArialMT-20" x="390.683594"/>
      <use xlink:href="#ArialMT-4d" x="418.466797"/>
      <use xlink:href="#ArialMT-65" x="501.767578"/>
      <use xlink:href="#ArialMT-61" x="557.382812"/>
      <use xlink:href="#ArialMT-6e" x="612.998047"/>
      <use xlink:href="#ArialMT-73" x="668.613281"/>
      <use xlink:href="#ArialMT-20" x="718.613281"/>
      <use xlink:href="#ArialMT-6f" x="746.396484"/>
      <use xlink:href="#ArialMT-66" x="802.011719"/>
      <use xlink:href="#ArialMT-20" x="829.794922"/>
      <use xlink:href="#ArialMT-4d" x="857.578125"/>
      <use xlink:href="#ArialMT-20" x="940.878906"/>
      <use xlink:href="#ArialMT-76" x="968.662109"/>
      <use xlink:href="#ArialMT-61" x="1018.662109"/>
      <use xlink:href="#ArialMT-6c" x="1074.277344"/>
      <use xlink:href="#ArialMT-75" x="1096.494141"/>
      <use xlink:href="#ArialMT-65" x="1152.109375"/>
      <use xlink:href="#ArialMT-73" x="1207.724609"/>
      <use xlink:href="#ArialMT-20" x="1257.724609"/>
      <use xlink:href="#ArialMT-28" x="1285.507812"/>
      <use xlink:href="#ArialMT-54" x="1318.808594"/>
      <use xlink:href="#ArialMT-4d" x="1379.892578"/>
      <use xlink:href="#ArialMT-4d" x="1463.193359"/>
      <use xlink:href="#ArialMT-29" x="1546.494141"/>
     </g>
    </g>
   </g>
   <g id="PolyCollection_1">
    <defs>
     <path id="m06ba01716d" d="M 78.652629 -103.683774 
L 71.25826 -103.683774 
L 71.231695 -104.100836 
L 71.209053 -104.517899 
L 71.190066 -104.934962 
L 71.17442 -105.352024 
L 71.161753 -105.769087 
L 71.151664 -106.18615 
L 71.14371 -106.603213 
L 71.137411 -107.020275 
L 71.132251 -107.437338 
L 71.127688 -107.854401 
L 71.123151 -108.271464 
L 71.118049 -108.688526 
L 71.111774 -109.105589 
L 71.103703 -109.522652 
L 71.09321 -109.939714 
L 71.079663 -110.356777 
L 71.062435 -110.77384 
L 71.040905 -111.190903 
L 71.014464 -111.607965 
L 70.982518 -112.025028 
L 70.944498 -112.442091 
L 70.899857 -112.859154 
L 70.848076 -113.276216 
L 70.788669 -113.693279 
L 70.721186 -114.110342 
L 70.645214 -114.527405 
L 70.560377 -114.944467 
L 70.466345 -115.36153 
L 70.362827 -115.778593 
L 70.249577 -116.195655 
L 70.126392 -116.612718 
L 69.993113 -117.029781 
L 69.849624 -117.446844 
L 69.695852 -117.863906 
L 69.531764 -118.280969 
L 69.357367 -118.698032 
L 69.172707 -119.115095 
L 68.977864 -119.532157 
L 68.772955 -119.94922 
L 68.558125 -120.366283 
L 68.333552 -120.783345 
L 68.099439 -121.200408 
L 67.856017 -121.617471 
L 67.603537 -122.034534 
L 67.342275 -122.451596 
L 67.072526 -122.868659 
L 66.794604 -123.285722 
L 66.508841 -123.702785 
L 66.215586 -124.119847 
L 65.915206 -124.53691 
L 65.608086 -124.953973 
L 65.294628 -125.371035 
L 64.975253 -125.788098 
L 64.650402 -126.205161 
L 64.320538 -126.622224 
L 63.986147 -127.039286 
L 63.647742 -127.456349 
L 63.305861 -127.873412 
L 62.961075 -128.290475 
L 62.613987 -128.707537 
L 62.265234 -129.1246 
L 61.915491 -129.541663 
L 61.565473 -129.958725 
L 61.215936 -130.375788 
L 60.867679 -130.792851 
L 60.521543 -131.209914 
L 60.178417 -131.626976 
L 59.839231 -132.044039 
L 59.50496 -132.461102 
L 59.176621 -132.878165 
L 58.855271 -133.295227 
L 58.542003 -133.71229 
L 58.237944 -134.129353 
L 57.944249 -134.546415 
L 57.662095 -134.963478 
L 57.392676 -135.380541 
L 57.137195 -135.797604 
L 56.896857 -136.214666 
L 56.672858 -136.631729 
L 56.466381 -137.048792 
L 56.278582 -137.465855 
L 56.110579 -137.882917 
L 55.96345 -138.29998 
L 55.838211 -138.717043 
L 55.735817 -139.134105 
L 55.657145 -139.551168 
L 55.602986 -139.968231 
L 55.574037 -140.385294 
L 55.57089 -140.802356 
L 55.594028 -141.219419 
L 55.643811 -141.636482 
L 55.72048 -142.053545 
L 55.82414 -142.470607 
L 55.954767 -142.88767 
L 56.112197 -143.304733 
L 56.296132 -143.721795 
L 56.506131 -144.138858 
L 56.741622 -144.555921 
L 57.001893 -144.972984 
L 92.908995 -144.972984 
L 92.908995 -144.972984 
L 93.169267 -144.555921 
L 93.404757 -144.138858 
L 93.614757 -143.721795 
L 93.798691 -143.304733 
L 93.956122 -142.88767 
L 94.086749 -142.470607 
L 94.190409 -142.053545 
L 94.267077 -141.636482 
L 94.316861 -141.219419 
L 94.339998 -140.802356 
L 94.336852 -140.385294 
L 94.307902 -139.968231 
L 94.253743 -139.551168 
L 94.175071 -139.134105 
L 94.072677 -138.717043 
L 93.947439 -138.29998 
L 93.800309 -137.882917 
L 93.632307 -137.465855 
L 93.444507 -137.048792 
L 93.23803 -136.631729 
L 93.014032 -136.214666 
L 92.773693 -135.797604 
L 92.518212 -135.380541 
L 92.248793 -134.963478 
L 91.966639 -134.546415 
L 91.672944 -134.129353 
L 91.368886 -133.71229 
L 91.055618 -133.295227 
L 90.734268 -132.878165 
L 90.405929 -132.461102 
L 90.071658 -132.044039 
L 89.732472 -131.626976 
L 89.389346 -131.209914 
L 89.04321 -130.792851 
L 88.694952 -130.375788 
L 88.345415 -129.958725 
L 87.995397 -129.541663 
L 87.645655 -129.1246 
L 87.296902 -128.707537 
L 86.949814 -128.290475 
L 86.605028 -127.873412 
L 86.263147 -127.456349 
L 85.924742 -127.039286 
L 85.590351 -126.622224 
L 85.260487 -126.205161 
L 84.935636 -125.788098 
L 84.61626 -125.371035 
L 84.302802 -124.953973 
L 83.995682 -124.53691 
L 83.695303 -124.119847 
L 83.402048 -123.702785 
L 83.116284 -123.285722 
L 82.838362 -122.868659 
L 82.568613 -122.451596 
L 82.307352 -122.034534 
L 82.054872 -121.617471 
L 81.811449 -121.200408 
L 81.577337 -120.783345 
L 81.352763 -120.366283 
L 81.137934 -119.94922 
L 80.933024 -119.532157 
L 80.738182 -119.115095 
L 80.553522 -118.698032 
L 80.379125 -118.280969 
L 80.215037 -117.863906 
L 80.061264 -117.446844 
L 79.917776 -117.029781 
L 79.784497 -116.612718 
L 79.661312 -116.195655 
L 79.548061 -115.778593 
L 79.444544 -115.36153 
L 79.350511 -114.944467 
L 79.265675 -114.527405 
L 79.189702 -114.110342 
L 79.12222 -113.693279 
L 79.062813 -113.276216 
L 79.011032 -112.859154 
L 78.96639 -112.442091 
L 78.92837 -112.025028 
L 78.896425 -111.607965 
L 78.869984 -111.190903 
L 78.848453 -110.77384 
L 78.831225 -110.356777 
L 78.817679 -109.939714 
L 78.807186 -109.522652 
L 78.799115 -109.105589 
L 78.792839 -108.688526 
L 78.787737 -108.271464 
L 78.783201 -107.854401 
L 78.778637 -107.437338 
L 78.773478 -107.020275 
L 78.767178 -106.603213 
L 78.759224 -106.18615 
L 78.749135 -105.769087 
L 78.736469 -105.352024 
L 78.720822 -104.934962 
L 78.701836 -104.517899 
L 78.679194 -104.100836 
L 78.652629 -103.683774 
z
" style="stroke: #999999; stroke-width: 2"/>
    </defs>
    <g clip-path="url(#p5f96714ef2)">
     <use xlink:href="#m06ba01716d" x="0" y="255.11811" style="fill: #ffffff; stroke: #999999; stroke-width: 2"/>
    </g>
   </g>
   <g id="PolyCollection_2">
    <defs>
     <path id="mea638d47f7" d="M 148.167211 -122.78075 
L 132.685455 -122.78075 
L 132.60898 -123.145456 
L 132.537953 -123.510161 
L 132.472312 -123.874867 
L 132.411965 -124.239572 
L 132.356793 -124.604278 
L 132.306645 -124.968983 
L 132.261344 -125.333688 
L 132.220684 -125.698394 
L 132.184435 -126.063099 
L 132.15234 -126.427805 
L 132.124117 -126.79251 
L 132.099464 -127.157216 
L 132.078055 -127.521921 
L 132.059546 -127.886626 
L 132.043575 -128.251332 
L 132.029763 -128.616037 
L 132.017717 -128.980743 
L 132.007031 -129.345448 
L 131.99729 -129.710153 
L 131.98807 -130.074859 
L 131.978938 -130.439564 
L 131.96946 -130.80427 
L 131.959199 -131.168975 
L 131.947715 -131.533681 
L 131.934573 -131.898386 
L 131.919342 -132.263091 
L 131.901594 -132.627797 
L 131.880911 -132.992502 
L 131.856886 -133.357208 
L 131.829122 -133.721913 
L 131.797239 -134.086619 
L 131.760869 -134.451324 
L 131.719665 -134.816029 
L 131.673299 -135.180735 
L 131.621464 -135.54544 
L 131.563878 -135.910146 
L 131.500282 -136.274851 
L 131.430445 -136.639556 
L 131.354164 -137.004262 
L 131.271266 -137.368967 
L 131.181609 -137.733673 
L 131.085084 -138.098378 
L 130.981616 -138.463084 
L 130.871164 -138.827789 
L 130.753725 -139.192494 
L 130.629331 -139.5572 
L 130.498055 -139.921905 
L 130.360005 -140.286611 
L 130.215332 -140.651316 
L 130.064224 -141.016022 
L 129.906909 -141.380727 
L 129.743657 -141.745432 
L 129.574777 -142.110138 
L 129.400616 -142.474843 
L 129.221563 -142.839549 
L 129.038043 -143.204254 
L 128.85052 -143.568959 
L 128.659494 -143.933665 
L 128.4655 -144.29837 
L 128.269106 -144.663076 
L 128.070914 -145.027781 
L 127.871553 -145.392487 
L 127.67168 -145.757192 
L 127.471978 -146.121897 
L 127.273152 -146.486603 
L 127.075925 -146.851308 
L 126.881039 -147.216014 
L 126.689246 -147.580719 
L 126.50131 -147.945425 
L 126.318 -148.31013 
L 126.140088 -148.674835 
L 125.968343 -149.039541 
L 125.80353 -149.404246 
L 125.646404 -149.768952 
L 125.497709 -150.133657 
L 125.358167 -150.498363 
L 125.228484 -150.863068 
L 125.109337 -151.227773 
L 125.001376 -151.592479 
L 124.905217 -151.957184 
L 124.821441 -152.32189 
L 124.750588 -152.686595 
L 124.693156 -153.0513 
L 124.649595 -153.416006 
L 124.62031 -153.780711 
L 124.60565 -154.145417 
L 124.605913 -154.510122 
L 124.621343 -154.874828 
L 124.652124 -155.239533 
L 124.698383 -155.604238 
L 124.760188 -155.968944 
L 124.837547 -156.333649 
L 124.930408 -156.698355 
L 125.03866 -157.06306 
L 125.162132 -157.427766 
L 125.300594 -157.792471 
L 125.453762 -158.157176 
L 125.621294 -158.521882 
L 125.802794 -158.886587 
L 155.049872 -158.886587 
L 155.049872 -158.886587 
L 155.231372 -158.521882 
L 155.398904 -158.157176 
L 155.552072 -157.792471 
L 155.690534 -157.427766 
L 155.814006 -157.06306 
L 155.922258 -156.698355 
L 156.015119 -156.333649 
L 156.092478 -155.968944 
L 156.154283 -155.604238 
L 156.200542 -155.239533 
L 156.231323 -154.874828 
L 156.246752 -154.510122 
L 156.247016 -154.145417 
L 156.232356 -153.780711 
L 156.203071 -153.416006 
L 156.15951 -153.0513 
L 156.102078 -152.686595 
L 156.031225 -152.32189 
L 155.947449 -151.957184 
L 155.85129 -151.592479 
L 155.743329 -151.227773 
L 155.624182 -150.863068 
L 155.494499 -150.498363 
L 155.354957 -150.133657 
L 155.206262 -149.768952 
L 155.049136 -149.404246 
L 154.884323 -149.039541 
L 154.712578 -148.674835 
L 154.534666 -148.31013 
L 154.351356 -147.945425 
L 154.16342 -147.580719 
L 153.971627 -147.216014 
L 153.776741 -146.851308 
L 153.579514 -146.486603 
L 153.380688 -146.121897 
L 153.180986 -145.757192 
L 152.981113 -145.392487 
L 152.781752 -145.027781 
L 152.58356 -144.663076 
L 152.387166 -144.29837 
L 152.193172 -143.933665 
L 152.002146 -143.568959 
L 151.814623 -143.204254 
L 151.631103 -142.839549 
L 151.45205 -142.474843 
L 151.277889 -142.110138 
L 151.109009 -141.745432 
L 150.945757 -141.380727 
L 150.788442 -141.016022 
L 150.637334 -140.651316 
L 150.492661 -140.286611 
L 150.354611 -139.921905 
L 150.223335 -139.5572 
L 150.098941 -139.192494 
L 149.981502 -138.827789 
L 149.87105 -138.463084 
L 149.767582 -138.098378 
L 149.671057 -137.733673 
L 149.5814 -137.368967 
L 149.498501 -137.004262 
L 149.422221 -136.639556 
L 149.352384 -136.274851 
L 149.288788 -135.910146 
L 149.231201 -135.54544 
L 149.179367 -135.180735 
L 149.133001 -134.816029 
L 149.091797 -134.451324 
L 149.055427 -134.086619 
L 149.023544 -133.721913 
L 148.99578 -133.357208 
L 148.971755 -132.992502 
L 148.951072 -132.627797 
L 148.933324 -132.263091 
L 148.918093 -131.898386 
L 148.904951 -131.533681 
L 148.893467 -131.168975 
L 148.883206 -130.80427 
L 148.873728 -130.439564 
L 148.864596 -130.074859 
L 148.855375 -129.710153 
L 148.845635 -129.345448 
L 148.834949 -128.980743 
L 148.822903 -128.616037 
L 148.809091 -128.251332 
L 148.79312 -127.886626 
L 148.774611 -127.521921 
L 148.753202 -127.157216 
L 148.728549 -126.79251 
L 148.700326 -126.427805 
L 148.668231 -126.063099 
L 148.631982 -125.698394 
L 148.591322 -125.333688 
L 148.546021 -124.968983 
L 148.495873 -124.604278 
L 148.4407 -124.239572 
L 148.380354 -123.874867 
L 148.314713 -123.510161 
L 148.243686 -123.145456 
L 148.167211 -122.78075 
z
" style="stroke: #999999; stroke-width: 2"/>
    </defs>
    <g clip-path="url(#p5f96714ef2)">
     <use xlink:href="#mea638d47f7" x="0" y="255.11811" style="fill: #ffffff; stroke: #999999; stroke-width: 2"/>
    </g>
   </g>
   <g id="PolyCollection_3">
    <defs>
     <path id="mba5ac9529f" d="M 214.386937 -81.087809 
L 197.407506 -81.087809 
L 197.129445 -81.428328 
L 196.849941 -81.768848 
L 196.569246 -82.109367 
L 196.287621 -82.449887 
L 196.005342 -82.790406 
L 195.7227 -83.130926 
L 195.440001 -83.471445 
L 195.157571 -83.811965 
L 194.87575 -84.152485 
L 194.594901 -84.493004 
L 194.315402 -84.833524 
L 194.037652 -85.174043 
L 193.762064 -85.514563 
L 193.489071 -85.855082 
L 193.219114 -86.195602 
L 192.952648 -86.536121 
L 192.690135 -86.876641 
L 192.43204 -87.21716 
L 192.178828 -87.55768 
L 191.930961 -87.898199 
L 191.688889 -88.238719 
L 191.453048 -88.579238 
L 191.223856 -88.919758 
L 191.001703 -89.260277 
L 190.786953 -89.600797 
L 190.579933 -89.941316 
L 190.38093 -90.281836 
L 190.190189 -90.622355 
L 190.007907 -90.962875 
L 189.834232 -91.303394 
L 189.669259 -91.643914 
L 189.51303 -91.984433 
L 189.365531 -92.324953 
L 189.226696 -92.665473 
L 189.096404 -93.005992 
L 188.974486 -93.346512 
L 188.860723 -93.687031 
L 188.754854 -94.027551 
L 188.656579 -94.36807 
L 188.565565 -94.70859 
L 188.481452 -95.049109 
L 188.40386 -95.389629 
L 188.332398 -95.730148 
L 188.266669 -96.070668 
L 188.20628 -96.411187 
L 188.15085 -96.751707 
L 188.100015 -97.092226 
L 188.053442 -97.432746 
L 188.010829 -97.773265 
L 187.971916 -98.113785 
L 187.93649 -98.454304 
L 187.904391 -98.794824 
L 187.875517 -99.135343 
L 187.849824 -99.475863 
L 187.827332 -99.816382 
L 187.808127 -100.156902 
L 187.792357 -100.497422 
L 187.780236 -100.837941 
L 187.772036 -101.178461 
L 187.768091 -101.51898 
L 187.768789 -101.8595 
L 187.774564 -102.200019 
L 187.785898 -102.540539 
L 187.803306 -102.881058 
L 187.827335 -103.221578 
L 187.858551 -103.562097 
L 187.897536 -103.902617 
L 187.944874 -104.243136 
L 188.001148 -104.583656 
L 188.066928 -104.924175 
L 188.142761 -105.264695 
L 188.22917 -105.605214 
L 188.326638 -105.945734 
L 188.435607 -106.286253 
L 188.556468 -106.626773 
L 188.689557 -106.967292 
L 188.83515 -107.307812 
L 188.993458 -107.648331 
L 189.164623 -107.988851 
L 189.348719 -108.32937 
L 189.545745 -108.66989 
L 189.755629 -109.01041 
L 189.978226 -109.350929 
L 190.213319 -109.691449 
L 190.460622 -110.031968 
L 190.719779 -110.372488 
L 190.990372 -110.713007 
L 191.271918 -111.053527 
L 191.563881 -111.394046 
L 191.865669 -111.734566 
L 192.176644 -112.075085 
L 192.496123 -112.415605 
L 192.823387 -112.756124 
L 193.157685 -113.096644 
L 193.498238 -113.437163 
L 193.844246 -113.777683 
L 194.194893 -114.118202 
L 194.549352 -114.458722 
L 194.906791 -114.799241 
L 216.887652 -114.799241 
L 216.887652 -114.799241 
L 217.245091 -114.458722 
L 217.59955 -114.118202 
L 217.950197 -113.777683 
L 218.296205 -113.437163 
L 218.636758 -113.096644 
L 218.971056 -112.756124 
L 219.29832 -112.415605 
L 219.6178 -112.075085 
L 219.928774 -111.734566 
L 220.230562 -111.394046 
L 220.522525 -111.053527 
L 220.804071 -110.713007 
L 221.074664 -110.372488 
L 221.333821 -110.031968 
L 221.581124 -109.691449 
L 221.816217 -109.350929 
L 222.038815 -109.01041 
L 222.248699 -108.66989 
L 222.445724 -108.32937 
L 222.62982 -107.988851 
L 222.800985 -107.648331 
L 222.959293 -107.307812 
L 223.104886 -106.967292 
L 223.237975 -106.626773 
L 223.358836 -106.286253 
L 223.467805 -105.945734 
L 223.565273 -105.605214 
L 223.651682 -105.264695 
L 223.727516 -104.924175 
L 223.793295 -104.583656 
L 223.849569 -104.243136 
L 223.896907 -103.902617 
L 223.935892 -103.562097 
L 223.967108 -103.221578 
L 223.991137 -102.881058 
L 224.008545 -102.540539 
L 224.019879 -102.200019 
L 224.025655 -101.8595 
L 224.026352 -101.51898 
L 224.022407 -101.178461 
L 224.014208 -100.837941 
L 224.002086 -100.497422 
L 223.986316 -100.156902 
L 223.967111 -99.816382 
L 223.94462 -99.475863 
L 223.918927 -99.135343 
L 223.890052 -98.794824 
L 223.857953 -98.454304 
L 223.822527 -98.113785 
L 223.783614 -97.773265 
L 223.741001 -97.432746 
L 223.694428 -97.092226 
L 223.643594 -96.751707 
L 223.588163 -96.411187 
L 223.527774 -96.070668 
L 223.462045 -95.730148 
L 223.390583 -95.389629 
L 223.312992 -95.049109 
L 223.228878 -94.70859 
L 223.137864 -94.36807 
L 223.039589 -94.027551 
L 222.93372 -93.687031 
L 222.819957 -93.346512 
L 222.698039 -93.005992 
L 222.567748 -92.665473 
L 222.428912 -92.324953 
L 222.281413 -91.984433 
L 222.125184 -91.643914 
L 221.960211 -91.303394 
L 221.786536 -90.962875 
L 221.604255 -90.622355 
L 221.413513 -90.281836 
L 221.21451 -89.941316 
L 221.00749 -89.600797 
L 220.79274 -89.260277 
L 220.570587 -88.919758 
L 220.341395 -88.579238 
L 220.105554 -88.238719 
L 219.863482 -87.898199 
L 219.615615 -87.55768 
L 219.362403 -87.21716 
L 219.104308 -86.876641 
L 218.841795 -86.536121 
L 218.575329 -86.195602 
L 218.305372 -85.855082 
L 218.032379 -85.514563 
L 217.756792 -85.174043 
L 217.479041 -84.833524 
L 217.199543 -84.493004 
L 216.918693 -84.152485 
L 216.636873 -83.811965 
L 216.354442 -83.471445 
L 216.071743 -83.130926 
L 215.789101 -82.790406 
L 215.506823 -82.449887 
L 215.225198 -82.109367 
L 214.944502 -81.768848 
L 214.664998 -81.428328 
L 214.386937 -81.087809 
z
" style="stroke: #999999; stroke-width: 2"/>
    </defs>
    <g clip-path="url(#p5f96714ef2)">
     <use xlink:href="#mba5ac9529f" x="0" y="255.11811" style="fill: #ffffff; stroke: #999999; stroke-width: 2"/>
    </g>
   </g>
   <g id="PolyCollection_4">
    <defs>
     <path id="m2c4d0f4edd" d="M 273.300934 -75.727124 
L 269.435286 -75.727124 
L 269.375579 -77.206455 
L 269.315699 -78.685786 
L 269.255688 -80.165118 
L 269.195583 -81.644449 
L 269.135424 -83.12378 
L 269.075252 -84.603112 
L 269.015109 -86.082443 
L 268.95504 -87.561774 
L 268.895095 -89.041105 
L 268.835325 -90.520437 
L 268.775788 -91.999768 
L 268.716548 -93.479099 
L 268.657674 -94.958431 
L 268.599241 -96.437762 
L 268.541332 -97.917093 
L 268.484038 -99.396425 
L 268.427456 -100.875756 
L 268.371692 -102.355087 
L 268.316859 -103.834419 
L 268.263077 -105.31375 
L 268.210473 -106.793081 
L 268.159179 -108.272413 
L 268.109333 -109.751744 
L 268.061077 -111.231075 
L 268.014557 -112.710406 
L 267.969917 -114.189738 
L 267.927306 -115.669069 
L 267.886866 -117.1484 
L 267.84874 -118.627732 
L 267.813064 -120.107063 
L 267.779965 -121.586394 
L 267.749564 -123.065726 
L 267.721968 -124.545057 
L 267.697274 -126.024388 
L 267.67556 -127.50372 
L 267.656892 -128.983051 
L 267.641314 -130.462382 
L 267.628853 -131.941713 
L 267.619512 -133.421045 
L 267.613275 -134.900376 
L 267.610101 -136.379707 
L 267.609928 -137.859039 
L 267.612669 -139.33837 
L 267.618212 -140.817701 
L 267.626427 -142.297033 
L 267.637157 -143.776364 
L 267.650226 -145.255695 
L 267.665439 -146.735027 
L 267.682582 -148.214358 
L 267.701425 -149.693689 
L 267.721725 -151.173021 
L 267.743227 -152.652352 
L 267.765669 -154.131683 
L 267.788782 -155.611014 
L 267.812296 -157.090346 
L 267.835941 -158.569677 
L 267.859451 -160.049008 
L 267.882567 -161.52834 
L 267.905043 -163.007671 
L 267.926642 -164.487002 
L 267.947149 -165.966334 
L 267.966364 -167.445665 
L 267.984112 -168.924996 
L 268.000243 -170.404328 
L 268.01463 -171.883659 
L 268.027179 -173.36299 
L 268.037824 -174.842321 
L 268.04653 -176.321653 
L 268.053294 -177.800984 
L 268.058146 -179.280315 
L 268.061147 -180.759647 
L 268.062391 -182.238978 
L 268.062001 -183.718309 
L 268.06013 -185.197641 
L 268.056959 -186.676972 
L 268.052696 -188.156303 
L 268.04757 -189.635635 
L 268.041832 -191.114966 
L 268.035752 -192.594297 
L 268.029612 -194.073629 
L 268.023707 -195.55296 
L 268.018342 -197.032291 
L 268.013823 -198.511622 
L 268.010459 -199.990954 
L 268.008556 -201.470285 
L 268.008414 -202.949616 
L 268.010323 -204.428948 
L 268.01456 -205.908279 
L 268.021386 -207.38761 
L 268.031044 -208.866942 
L 268.043755 -210.346273 
L 268.059715 -211.825604 
L 268.079096 -213.304936 
L 268.102041 -214.784267 
L 268.128664 -216.263598 
L 268.159048 -217.742929 
L 268.193247 -219.222261 
L 268.231282 -220.701592 
L 268.273144 -222.180923 
L 274.463076 -222.180923 
L 274.463076 -222.180923 
L 274.504938 -220.701592 
L 274.542974 -219.222261 
L 274.577173 -217.742929 
L 274.607557 -216.263598 
L 274.634179 -214.784267 
L 274.657124 -213.304936 
L 274.676505 -211.825604 
L 274.692466 -210.346273 
L 274.705177 -208.866942 
L 274.714835 -207.38761 
L 274.721661 -205.908279 
L 274.725898 -204.428948 
L 274.727806 -202.949616 
L 274.727664 -201.470285 
L 274.725761 -199.990954 
L 274.722397 -198.511622 
L 274.717878 -197.032291 
L 274.712513 -195.55296 
L 274.706609 -194.073629 
L 274.700469 -192.594297 
L 274.694388 -191.114966 
L 274.68865 -189.635635 
L 274.683524 -188.156303 
L 274.679261 -186.676972 
L 274.676091 -185.197641 
L 274.67422 -183.718309 
L 274.673829 -182.238978 
L 274.675073 -180.759647 
L 274.678074 -179.280315 
L 274.682926 -177.800984 
L 274.689691 -176.321653 
L 274.698397 -174.842321 
L 274.709041 -173.36299 
L 274.72159 -171.883659 
L 274.735978 -170.404328 
L 274.752108 -168.924996 
L 274.769856 -167.445665 
L 274.789072 -165.966334 
L 274.809578 -164.487002 
L 274.831178 -163.007671 
L 274.853653 -161.52834 
L 274.87677 -160.049008 
L 274.90028 -158.569677 
L 274.923925 -157.090346 
L 274.947439 -155.611014 
L 274.970552 -154.131683 
L 274.992993 -152.652352 
L 275.014496 -151.173021 
L 275.034795 -149.693689 
L 275.053638 -148.214358 
L 275.070781 -146.735027 
L 275.085994 -145.255695 
L 275.099063 -143.776364 
L 275.109793 -142.297033 
L 275.118008 -140.817701 
L 275.123552 -139.33837 
L 275.126292 -137.859039 
L 275.126119 -136.379707 
L 275.122946 -134.900376 
L 275.116708 -133.421045 
L 275.107368 -131.941713 
L 275.094906 -130.462382 
L 275.079328 -128.983051 
L 275.06066 -127.50372 
L 275.038947 -126.024388 
L 275.014252 -124.545057 
L 274.986657 -123.065726 
L 274.956256 -121.586394 
L 274.923157 -120.107063 
L 274.88748 -118.627732 
L 274.849354 -117.1484 
L 274.808915 -115.669069 
L 274.766303 -114.189738 
L 274.721664 -112.710406 
L 274.675143 -111.231075 
L 274.626888 -109.751744 
L 274.577042 -108.272413 
L 274.525748 -106.793081 
L 274.473143 -105.31375 
L 274.419361 -103.834419 
L 274.364528 -102.355087 
L 274.308765 -100.875756 
L 274.252183 -99.396425 
L 274.194889 -97.917093 
L 274.13698 -96.437762 
L 274.078547 -94.958431 
L 274.019672 -93.479099 
L 273.960432 -91.999768 
L 273.900896 -90.520437 
L 273.841126 -89.041105 
L 273.78118 -87.561774 
L 273.721112 -86.082443 
L 273.660969 -84.603112 
L 273.600796 -83.12378 
L 273.540637 -81.644449 
L 273.480533 -80.165118 
L 273.420521 -78.685786 
L 273.360642 -77.206455 
L 273.300934 -75.727124 
z
" style="stroke: #999999; stroke-width: 2"/>
    </defs>
    <g clip-path="url(#p5f96714ef2)">
     <use xlink:href="#m2c4d0f4edd" x="0" y="255.11811" style="fill: #ffffff; stroke: #999999; stroke-width: 2"/>
    </g>
   </g>
   <g id="PolyCollection_5">
    <defs>
     <path id="m606c928ec1" d="M 339.84214 -69.196797 
L 333.835858 -69.196797 
L 333.785508 -70.511183 
L 333.736938 -71.825569 
L 333.69019 -73.139955 
L 333.645299 -74.454341 
L 333.602288 -75.768727 
L 333.561174 -77.083114 
L 333.521963 -78.3975 
L 333.484654 -79.711886 
L 333.449235 -81.026272 
L 333.415688 -82.340658 
L 333.383986 -83.655045 
L 333.354094 -84.969431 
L 333.325972 -86.283817 
L 333.29957 -87.598203 
L 333.274837 -88.912589 
L 333.251711 -90.226975 
L 333.230129 -91.541362 
L 333.210024 -92.855748 
L 333.191324 -94.170134 
L 333.173954 -95.48452 
L 333.15784 -96.798906 
L 333.142904 -98.113293 
L 333.129069 -99.427679 
L 333.116258 -100.742065 
L 333.104394 -102.056451 
L 333.093403 -103.370837 
L 333.083213 -104.685223 
L 333.073754 -105.99961 
L 333.06496 -107.313996 
L 333.05677 -108.628382 
L 333.049125 -109.942768 
L 333.041972 -111.257154 
L 333.035265 -112.57154 
L 333.028962 -113.885927 
L 333.023026 -115.200313 
L 333.017426 -116.514699 
L 333.01214 -117.829085 
L 333.00715 -119.143471 
L 333.002444 -120.457858 
L 332.998016 -121.772244 
L 332.993869 -123.08663 
L 332.990008 -124.401016 
L 332.986448 -125.715402 
L 332.983205 -127.029788 
L 332.980305 -128.344175 
L 332.977776 -129.658561 
L 332.975652 -130.972947 
L 332.973971 -132.287333 
L 332.972774 -133.601719 
L 332.972106 -134.916105 
L 332.972016 -136.230492 
L 332.972556 -137.544878 
L 332.973777 -138.859264 
L 332.975734 -140.17365 
L 332.978483 -141.488036 
L 332.982081 -142.802423 
L 332.986584 -144.116809 
L 332.992048 -145.431195 
L 332.99853 -146.745581 
L 333.006084 -148.059967 
L 333.014762 -149.374353 
L 333.024618 -150.68874 
L 333.035699 -152.003126 
L 333.048052 -153.317512 
L 333.061721 -154.631898 
L 333.076747 -155.946284 
L 333.093167 -157.260671 
L 333.111015 -158.575057 
L 333.130321 -159.889443 
L 333.15111 -161.203829 
L 333.173406 -162.518215 
L 333.197226 -163.832601 
L 333.222584 -165.146988 
L 333.24949 -166.461374 
L 333.277949 -167.77576 
L 333.307961 -169.090146 
L 333.339525 -170.404532 
L 333.372631 -171.718918 
L 333.40727 -173.033305 
L 333.443425 -174.347691 
L 333.481075 -175.662077 
L 333.520199 -176.976463 
L 333.560768 -178.290849 
L 333.602751 -179.605236 
L 333.646113 -180.919622 
L 333.690815 -182.234008 
L 333.736818 -183.548394 
L 333.784074 -184.86278 
L 333.832537 -186.177166 
L 333.882156 -187.491553 
L 333.932877 -188.805939 
L 333.984644 -190.120325 
L 334.037397 -191.434711 
L 334.091077 -192.749097 
L 334.145619 -194.063483 
L 334.200959 -195.37787 
L 334.25703 -196.692256 
L 334.313762 -198.006642 
L 334.371085 -199.321028 
L 339.306912 -199.321028 
L 339.306912 -199.321028 
L 339.364236 -198.006642 
L 339.420968 -196.692256 
L 339.477038 -195.37787 
L 339.532378 -194.063483 
L 339.586921 -192.749097 
L 339.6406 -191.434711 
L 339.693354 -190.120325 
L 339.745121 -188.805939 
L 339.795842 -187.491553 
L 339.84546 -186.177166 
L 339.893924 -184.86278 
L 339.94118 -183.548394 
L 339.987182 -182.234008 
L 340.031885 -180.919622 
L 340.075247 -179.605236 
L 340.11723 -178.290849 
L 340.157799 -176.976463 
L 340.196922 -175.662077 
L 340.234573 -174.347691 
L 340.270728 -173.033305 
L 340.305366 -171.718918 
L 340.338473 -170.404532 
L 340.370036 -169.090146 
L 340.400049 -167.77576 
L 340.428508 -166.461374 
L 340.455413 -165.146988 
L 340.480772 -163.832601 
L 340.504592 -162.518215 
L 340.526887 -161.203829 
L 340.547677 -159.889443 
L 340.566983 -158.575057 
L 340.584831 -157.260671 
L 340.601251 -155.946284 
L 340.616277 -154.631898 
L 340.629946 -153.317512 
L 340.642299 -152.003126 
L 340.65338 -150.68874 
L 340.663235 -149.374353 
L 340.671914 -148.059967 
L 340.679468 -146.745581 
L 340.68595 -145.431195 
L 340.691414 -144.116809 
L 340.695917 -142.802423 
L 340.699515 -141.488036 
L 340.702264 -140.17365 
L 340.704221 -138.859264 
L 340.705442 -137.544878 
L 340.705981 -136.230492 
L 340.705892 -134.916105 
L 340.705224 -133.601719 
L 340.704027 -132.287333 
L 340.702345 -130.972947 
L 340.700221 -129.658561 
L 340.697692 -128.344175 
L 340.694792 -127.029788 
L 340.69155 -125.715402 
L 340.68799 -124.401016 
L 340.684129 -123.08663 
L 340.679982 -121.772244 
L 340.675554 -120.457858 
L 340.670848 -119.143471 
L 340.665857 -117.829085 
L 340.660571 -116.514699 
L 340.654972 -115.200313 
L 340.649036 -113.885927 
L 340.642732 -112.57154 
L 340.636025 -111.257154 
L 340.628873 -109.942768 
L 340.621228 -108.628382 
L 340.613037 -107.313996 
L 340.604244 -105.99961 
L 340.594785 -104.685223 
L 340.584594 -103.370837 
L 340.573604 -102.056451 
L 340.56174 -100.742065 
L 340.548928 -99.427679 
L 340.535093 -98.113293 
L 340.520158 -96.798906 
L 340.504043 -95.48452 
L 340.486674 -94.170134 
L 340.467974 -92.855748 
L 340.447868 -91.541362 
L 340.426287 -90.226975 
L 340.403161 -88.912589 
L 340.378427 -87.598203 
L 340.352026 -86.283817 
L 340.323904 -84.969431 
L 340.294012 -83.655045 
L 340.26231 -82.340658 
L 340.228763 -81.026272 
L 340.193344 -79.711886 
L 340.156035 -78.3975 
L 340.116824 -77.083114 
L 340.07571 -75.768727 
L 340.032699 -74.454341 
L 339.987807 -73.139955 
L 339.94106 -71.825569 
L 339.89249 -70.511183 
L 339.84214 -69.196797 
z
" style="stroke: #999999; stroke-width: 2"/>
    </defs>
    <g clip-path="url(#p5f96714ef2)">
     <use xlink:href="#m606c928ec1" x="0" y="255.11811" style="fill: #ffffff; stroke: #999999; stroke-width: 2"/>
    </g>
   </g>
   <g id="PolyCollection_6">
    <defs>
     <path id="mad251967bf" d="M 411.471184 -49.837187 
L 393.148591 -49.837187 
L 392.906622 -50.074287 
L 392.662925 -50.311387 
L 392.417202 -50.548488 
L 392.169133 -50.785588 
L 391.918386 -51.022688 
L 391.664614 -51.259789 
L 391.407469 -51.496889 
L 391.146606 -51.733989 
L 390.88169 -51.97109 
L 390.612399 -52.20819 
L 390.338438 -52.44529 
L 390.059539 -52.682391 
L 389.77547 -52.919491 
L 389.486042 -53.156591 
L 389.191113 -53.393692 
L 388.890594 -53.630792 
L 388.584451 -53.867892 
L 388.272713 -54.104993 
L 387.955473 -54.342093 
L 387.632889 -54.579193 
L 387.305186 -54.816294 
L 386.972657 -55.053394 
L 386.635664 -55.290494 
L 386.294631 -55.527595 
L 385.950049 -55.764695 
L 385.602468 -56.001795 
L 385.252492 -56.238896 
L 384.900779 -56.475996 
L 384.54803 -56.713096 
L 384.194986 -56.950197 
L 383.842421 -57.187297 
L 383.491131 -57.424397 
L 383.14193 -57.661498 
L 382.79564 -57.898598 
L 382.453086 -58.135698 
L 382.11508 -58.372799 
L 381.782421 -58.609899 
L 381.455882 -58.846999 
L 381.136206 -59.0841 
L 380.824094 -59.3212 
L 380.520201 -59.5583 
L 380.225132 -59.795401 
L 379.939432 -60.032501 
L 379.663584 -60.269601 
L 379.398008 -60.506702 
L 379.143052 -60.743802 
L 378.898996 -60.980902 
L 378.66605 -61.218003 
L 378.444355 -61.455103 
L 378.233981 -61.692203 
L 378.034936 -61.929304 
L 377.847164 -62.166404 
L 377.670555 -62.403504 
L 377.504944 -62.640605 
L 377.350126 -62.877705 
L 377.205857 -63.114805 
L 377.071861 -63.351906 
L 376.947846 -63.589006 
L 376.833506 -63.826106 
L 376.728531 -64.063207 
L 376.632619 -64.300307 
L 376.545485 -64.537407 
L 376.466865 -64.774508 
L 376.396533 -65.011608 
L 376.334299 -65.248708 
L 376.280028 -65.485809 
L 376.233636 -65.722909 
L 376.195103 -65.960009 
L 376.164474 -66.19711 
L 376.141865 -66.43421 
L 376.127464 -66.67131 
L 376.121532 -66.908411 
L 376.124403 -67.145511 
L 376.136483 -67.382611 
L 376.158247 -67.619712 
L 376.190233 -67.856812 
L 376.23304 -68.093912 
L 376.287316 -68.331013 
L 376.353754 -68.568113 
L 376.433083 -68.805213 
L 376.526055 -69.042314 
L 376.633435 -69.279414 
L 376.755992 -69.516514 
L 376.894484 -69.753615 
L 377.049649 -69.990715 
L 377.222189 -70.227815 
L 377.412758 -70.464916 
L 377.621955 -70.702016 
L 377.850306 -70.939116 
L 378.098257 -71.176217 
L 378.366164 -71.413317 
L 378.654279 -71.650417 
L 378.962751 -71.887518 
L 379.291608 -72.124618 
L 379.640763 -72.361718 
L 380.01 -72.598819 
L 380.398979 -72.835919 
L 380.80723 -73.073019 
L 381.234157 -73.31012 
L 423.385618 -73.31012 
L 423.385618 -73.31012 
L 423.812545 -73.073019 
L 424.220796 -72.835919 
L 424.609775 -72.598819 
L 424.979013 -72.361718 
L 425.328167 -72.124618 
L 425.657024 -71.887518 
L 425.965496 -71.650417 
L 426.253611 -71.413317 
L 426.521518 -71.176217 
L 426.769469 -70.939116 
L 426.99782 -70.702016 
L 427.207017 -70.464916 
L 427.397586 -70.227815 
L 427.570126 -69.990715 
L 427.725291 -69.753615 
L 427.863783 -69.516514 
L 427.98634 -69.279414 
L 428.09372 -69.042314 
L 428.186692 -68.805213 
L 428.266021 -68.568113 
L 428.332459 -68.331013 
L 428.386735 -68.093912 
L 428.429542 -67.856812 
L 428.461528 -67.619712 
L 428.483292 -67.382611 
L 428.495372 -67.145511 
L 428.498243 -66.908411 
L 428.492311 -66.67131 
L 428.47791 -66.43421 
L 428.455301 -66.19711 
L 428.424672 -65.960009 
L 428.386139 -65.722909 
L 428.339747 -65.485809 
L 428.285476 -65.248708 
L 428.223242 -65.011608 
L 428.15291 -64.774508 
L 428.07429 -64.537407 
L 427.987156 -64.300307 
L 427.891244 -64.063207 
L 427.786269 -63.826106 
L 427.671929 -63.589006 
L 427.547914 -63.351906 
L 427.413919 -63.114805 
L 427.269649 -62.877705 
L 427.114831 -62.640605 
L 426.94922 -62.403504 
L 426.772611 -62.166404 
L 426.584839 -61.929304 
L 426.385794 -61.692203 
L 426.17542 -61.455103 
L 425.953725 -61.218003 
L 425.720779 -60.980902 
L 425.476723 -60.743802 
L 425.221767 -60.506702 
L 424.956191 -60.269601 
L 424.680343 -60.032501 
L 424.394643 -59.795401 
L 424.099574 -59.5583 
L 423.795681 -59.3212 
L 423.483569 -59.0841 
L 423.163893 -58.846999 
L 422.837354 -58.609899 
L 422.504695 -58.372799 
L 422.166689 -58.135698 
L 421.824135 -57.898598 
L 421.477845 -57.661498 
L 421.128644 -57.424397 
L 420.777354 -57.187297 
L 420.424789 -56.950197 
L 420.071745 -56.713096 
L 419.718996 -56.475996 
L 419.367283 -56.238896 
L 419.017307 -56.001795 
L 418.669726 -55.764695 
L 418.325144 -55.527595 
L 417.984111 -55.290494 
L 417.647118 -55.053394 
L 417.314589 -54.816294 
L 416.986886 -54.579193 
L 416.664302 -54.342093 
L 416.347062 -54.104993 
L 416.035324 -53.867892 
L 415.729181 -53.630792 
L 415.428662 -53.393692 
L 415.133733 -53.156591 
L 414.844305 -52.919491 
L 414.560236 -52.682391 
L 414.281337 -52.44529 
L 414.007376 -52.20819 
L 413.738085 -51.97109 
L 413.473169 -51.733989 
L 413.212306 -51.496889 
L 412.955162 -51.259789 
L 412.701389 -51.022688 
L 412.450642 -50.785588 
L 412.202574 -50.548488 
L 411.95685 -50.311387 
L 411.713153 -50.074287 
L 411.471184 -49.837187 
z
" style="stroke: #999999; stroke-width: 2"/>
    </defs>
    <g clip-path="url(#p5f96714ef2)">
     <use xlink:href="#mad251967bf" x="0" y="255.11811" style="fill: #ffffff; stroke: #999999; stroke-width: 2"/>
    </g>
   </g>
   <g id="PolyCollection_7">
    <defs>
     <path id="md8a6fc4378" d="M 475.146753 -121.612513 
L 460.414799 -121.612513 
L 460.260276 -122.280227 
L 460.112011 -122.94794 
L 459.970217 -123.615653 
L 459.835063 -124.283366 
L 459.706677 -124.95108 
L 459.585141 -125.618793 
L 459.470494 -126.286506 
L 459.362735 -126.954219 
L 459.261825 -127.621933 
L 459.167686 -128.289646 
L 459.080207 -128.957359 
L 458.999245 -129.625072 
L 458.924631 -130.292786 
L 458.856172 -130.960499 
L 458.793654 -131.628212 
L 458.736848 -132.295925 
L 458.685514 -132.963639 
L 458.639405 -133.631352 
L 458.598271 -134.299065 
L 458.561862 -134.966778 
L 458.529934 -135.634492 
L 458.502253 -136.302205 
L 458.478594 -136.969918 
L 458.458752 -137.637631 
L 458.442536 -138.305344 
L 458.429777 -138.973058 
L 458.42033 -139.640771 
L 458.414072 -140.308484 
L 458.410906 -140.976197 
L 458.41076 -141.643911 
L 458.413589 -142.311624 
L 458.419372 -142.979337 
L 458.428114 -143.64705 
L 458.439842 -144.314764 
L 458.454606 -144.982477 
L 458.472475 -145.65019 
L 458.493535 -146.317903 
L 458.517889 -146.985617 
L 458.54565 -147.65333 
L 458.57694 -148.321043 
L 458.611889 -148.988756 
L 458.650627 -149.65647 
L 458.693285 -150.324183 
L 458.739989 -150.991896 
L 458.790859 -151.659609 
L 458.846001 -152.327323 
L 458.905512 -152.995036 
L 458.96947 -153.662749 
L 459.037934 -154.330462 
L 459.110943 -154.998176 
L 459.188512 -155.665889 
L 459.27063 -156.333602 
L 459.357263 -157.001315 
L 459.448347 -157.669029 
L 459.54379 -158.336742 
L 459.643475 -159.004455 
L 459.747253 -159.672168 
L 459.854953 -160.339882 
L 459.966374 -161.007595 
L 460.081292 -161.675308 
L 460.199459 -162.343021 
L 460.32061 -163.010734 
L 460.444456 -163.678448 
L 460.570696 -164.346161 
L 460.699015 -165.013874 
L 460.829089 -165.681587 
L 460.960585 -166.349301 
L 461.093169 -167.017014 
L 461.226505 -167.684727 
L 461.360263 -168.35244 
L 461.494117 -169.020154 
L 461.62775 -169.687867 
L 461.760862 -170.35558 
L 461.893163 -171.023293 
L 462.024386 -171.691007 
L 462.154282 -172.35872 
L 462.282625 -173.026433 
L 462.409214 -173.694146 
L 462.533874 -174.36186 
L 462.656457 -175.029573 
L 462.77684 -175.697286 
L 462.894931 -176.364999 
L 463.010664 -177.032713 
L 463.124001 -177.700426 
L 463.234928 -178.368139 
L 463.34346 -179.035852 
L 463.449632 -179.703566 
L 463.553502 -180.371279 
L 463.655149 -181.038992 
L 463.754667 -181.706705 
L 463.852166 -182.374419 
L 463.947769 -183.042132 
L 464.041608 -183.709845 
L 464.133822 -184.377558 
L 464.224553 -185.045272 
L 464.313946 -185.712985 
L 464.402143 -186.380698 
L 464.489285 -187.048411 
L 464.575503 -187.716125 
L 470.986049 -187.716125 
L 470.986049 -187.716125 
L 471.072268 -187.048411 
L 471.159409 -186.380698 
L 471.247607 -185.712985 
L 471.337 -185.045272 
L 471.427731 -184.377558 
L 471.519944 -183.709845 
L 471.613783 -183.042132 
L 471.709386 -182.374419 
L 471.806886 -181.706705 
L 471.906403 -181.038992 
L 472.00805 -180.371279 
L 472.11192 -179.703566 
L 472.218092 -179.035852 
L 472.326624 -178.368139 
L 472.437552 -177.700426 
L 472.550888 -177.032713 
L 472.666621 -176.364999 
L 472.784712 -175.697286 
L 472.905096 -175.029573 
L 473.027678 -174.36186 
L 473.152338 -173.694146 
L 473.278927 -173.026433 
L 473.407271 -172.35872 
L 473.537166 -171.691007 
L 473.668389 -171.023293 
L 473.800691 -170.35558 
L 473.933802 -169.687867 
L 474.067436 -169.020154 
L 474.201289 -168.35244 
L 474.335047 -167.684727 
L 474.468384 -167.017014 
L 474.600968 -166.349301 
L 474.732464 -165.681587 
L 474.862537 -165.013874 
L 474.990856 -164.346161 
L 475.117097 -163.678448 
L 475.240943 -163.010734 
L 475.362093 -162.343021 
L 475.480261 -161.675308 
L 475.595179 -161.007595 
L 475.706599 -160.339882 
L 475.814299 -159.672168 
L 475.918078 -159.004455 
L 476.017762 -158.336742 
L 476.113205 -157.669029 
L 476.204289 -157.001315 
L 476.290922 -156.333602 
L 476.373041 -155.665889 
L 476.45061 -154.998176 
L 476.523619 -154.330462 
L 476.592083 -153.662749 
L 476.65604 -152.995036 
L 476.715551 -152.327323 
L 476.770694 -151.659609 
L 476.821563 -150.991896 
L 476.868267 -150.324183 
L 476.910925 -149.65647 
L 476.949663 -148.988756 
L 476.984612 -148.321043 
L 477.015902 -147.65333 
L 477.043663 -146.985617 
L 477.068017 -146.317903 
L 477.089077 -145.65019 
L 477.106946 -144.982477 
L 477.12171 -144.314764 
L 477.133438 -143.64705 
L 477.14218 -142.979337 
L 477.147963 -142.311624 
L 477.150792 -141.643911 
L 477.150647 -140.976197 
L 477.147481 -140.308484 
L 477.141223 -139.640771 
L 477.131775 -138.973058 
L 477.119017 -138.305344 
L 477.102801 -137.637631 
L 477.082958 -136.969918 
L 477.0593 -136.302205 
L 477.031618 -135.634492 
L 476.99969 -134.966778 
L 476.963281 -134.299065 
L 476.922147 -133.631352 
L 476.876038 -132.963639 
L 476.824704 -132.295925 
L 476.767899 -131.628212 
L 476.70538 -130.960499 
L 476.636921 -130.292786 
L 476.562307 -129.625072 
L 476.481346 -128.957359 
L 476.393866 -128.289646 
L 476.299727 -127.621933 
L 476.198817 -126.954219 
L 476.091059 -126.286506 
L 475.976412 -125.618793 
L 475.854875 -124.95108 
L 475.726489 -124.283366 
L 475.591336 -123.615653 
L 475.449542 -122.94794 
L 475.301276 -122.280227 
L 475.146753 -121.612513 
z
" style="stroke: #999999; stroke-width: 2"/>
    </defs>
    <g clip-path="url(#p5f96714ef2)">
     <use xlink:href="#md8a6fc4378" x="0" y="255.11811" style="fill: #ffffff; stroke: #999999; stroke-width: 2"/>
    </g>
   </g>
   <g id="PathCollection_1"/>
   <g id="PathCollection_2"/>
   <g id="patch_3">
    <path d="M 42.22 213.89811 
L 42.22 24.32 
" style="fill: none; stroke: #262626; stroke-width: 1.25; stroke-linejoin: miter; stroke-linecap: square"/>
   </g>
   <g id="patch_4">
    <path d="M 42.22 213.89811 
L 500.51622 213.89811 
" style="fill: none; stroke: #262626; stroke-width: 1.25; stroke-linejoin: miter; stroke-linecap: square"/>
   </g>
   <g id="PathCollection_3">
    <defs>
     <path id="C0_0_be2dbee44b" d="M 0 2.5 
C 0.663008 2.5 1.29895 2.236584 1.767767 1.767767 
C 2.236584 1.29895 2.5 0.663008 2.5 -0 
C 2.5 -0.663008 2.236584 -1.29895 1.767767 -1.767767 
C 1.29895 -2.236584 0.663008 -2.5 0 -2.5 
C -0.663008 -2.5 -1.29895 -2.236584 -1.767767 -1.767767 
C -2.236584 -1.29895 -2.5 -0.663008 -2.5 0 
C -2.5 0.663008 -2.236584 1.29895 -1.767767 1.767767 
C -1.29895 2.236584 -0.663008 2.5 0 2.5 
z
"/>
    </defs>
    <g clip-path="url(#p5f96714ef2)">
     <use xlink:href="#C0_0_be2dbee44b" x="72.438216" y="110.307776" style="fill: #4c72b0; fill-opacity: 0.75"/>
    </g>
    <g clip-path="url(#p5f96714ef2)">
     <use xlink:href="#C0_0_be2dbee44b" x="79.835777" y="151.434337" style="fill: #4c72b0; fill-opacity: 0.75"/>
    </g>
    <g clip-path="url(#p5f96714ef2)">
     <use xlink:href="#C0_0_be2dbee44b" x="78.450982" y="129.417695" style="fill: #4c72b0; fill-opacity: 0.75"/>
    </g>
    <g clip-path="url(#p5f96714ef2)">
     <use xlink:href="#C0_0_be2dbee44b" x="72.474516" y="116.357316" style="fill: #4c72b0; fill-opacity: 0.75"/>
    </g>
    <g clip-path="url(#p5f96714ef2)">
     <use xlink:href="#C0_0_be2dbee44b" x="77.820137" y="123.466862" style="fill: #dd8452; fill-opacity: 0.75"/>
    </g>
    <g clip-path="url(#p5f96714ef2)">
     <use xlink:href="#C0_0_be2dbee44b" x="80.840349" y="113.113033" style="fill: #dd8452; fill-opacity: 0.75"/>
    </g>
    <g clip-path="url(#p5f96714ef2)">
     <use xlink:href="#C0_0_be2dbee44b" x="71.010748" y="111.669242" style="fill: #dd8452; fill-opacity: 0.75"/>
    </g>
    <g clip-path="url(#p5f96714ef2)">
     <use xlink:href="#C0_0_be2dbee44b" x="79.662264" y="110.145127" style="fill: #dd8452; fill-opacity: 0.75"/>
    </g>
   </g>
   <g id="PathCollection_4">
    <defs>
     <path id="C1_0_c71134acbf" d="M 0 2.5 
C 0.663008 2.5 1.29895 2.236584 1.767767 1.767767 
C 2.236584 1.29895 2.5 0.663008 2.5 -0 
C 2.5 -0.663008 2.236584 -1.29895 1.767767 -1.767767 
C 1.29895 -2.236584 0.663008 -2.5 0 -2.5 
C -0.663008 -2.5 -1.29895 -2.236584 -1.767767 -1.767767 
C -2.236584 -1.29895 -2.5 -0.663008 -2.5 0 
C -2.5 0.663008 -2.236584 1.29895 -1.767767 1.767767 
C -1.29895 2.236584 -0.663008 2.5 0 2.5 
z
"/>
    </defs>
    <g clip-path="url(#p5f96714ef2)">
     <use xlink:href="#C1_0_c71134acbf" x="136.422677" y="132.079108" style="fill: #4c72b0; fill-opacity: 0.75"/>
    </g>
    <g clip-path="url(#p5f96714ef2)">
     <use xlink:href="#C1_0_c71134acbf" x="135.375697" y="98.373454" style="fill: #4c72b0; fill-opacity: 0.75"/>
    </g>
    <g clip-path="url(#p5f96714ef2)">
     <use xlink:href="#C1_0_c71134acbf" x="146.841895" y="118.220304" style="fill: #4c72b0; fill-opacity: 0.75"/>
    </g>
    <g clip-path="url(#p5f96714ef2)">
     <use xlink:href="#C1_0_c71134acbf" x="143.830713" y="132.33736" style="fill: #4c72b0; fill-opacity: 0.75"/>
    </g>
    <g clip-path="url(#p5f96714ef2)">
     <use xlink:href="#C1_0_c71134acbf" x="136.436974" y="101.753231" style="fill: #dd8452; fill-opacity: 0.75"/>
    </g>
    <g clip-path="url(#p5f96714ef2)">
     <use xlink:href="#C1_0_c71134acbf" x="143.399063" y="105.644683" style="fill: #dd8452; fill-opacity: 0.75"/>
    </g>
    <g clip-path="url(#p5f96714ef2)">
     <use xlink:href="#C1_0_c71134acbf" x="143.3214" y="97.484821" style="fill: #dd8452; fill-opacity: 0.75"/>
    </g>
    <g clip-path="url(#p5f96714ef2)">
     <use xlink:href="#C1_0_c71134acbf" x="143.366931" y="96.231523" style="fill: #dd8452; fill-opacity: 0.75"/>
    </g>
   </g>
   <g id="PathCollection_5">
    <defs>
     <path id="C2_0_ac08f564d5" d="M 0 2.5 
C 0.663008 2.5 1.29895 2.236584 1.767767 1.767767 
C 2.236584 1.29895 2.5 0.663008 2.5 -0 
C 2.5 -0.663008 2.236584 -1.29895 1.767767 -1.767767 
C 1.29895 -2.236584 0.663008 -2.5 0 -2.5 
C -0.663008 -2.5 -1.29895 -2.236584 -1.767767 -1.767767 
C -2.236584 -1.29895 -2.5 -0.663008 -2.5 0 
C -2.5 0.663008 -2.236584 1.29895 -1.767767 1.767767 
C -1.29895 2.236584 -0.663008 2.5 0 2.5 
z
"/>
    </defs>
    <g clip-path="url(#p5f96714ef2)">
     <use xlink:href="#C2_0_ac08f564d5" x="202.75232" y="151.792477" style="fill: #4c72b0; fill-opacity: 0.75"/>
    </g>
    <g clip-path="url(#p5f96714ef2)">
     <use xlink:href="#C2_0_ac08f564d5" x="200.750344" y="161.273166" style="fill: #4c72b0; fill-opacity: 0.75"/>
    </g>
    <g clip-path="url(#p5f96714ef2)">
     <use xlink:href="#C2_0_ac08f564d5" x="200.641955" y="160.553991" style="fill: #4c72b0; fill-opacity: 0.75"/>
    </g>
    <g clip-path="url(#p5f96714ef2)">
     <use xlink:href="#C2_0_ac08f564d5" x="203.904203" y="146.728195" style="fill: #4c72b0; fill-opacity: 0.75"/>
    </g>
    <g clip-path="url(#p5f96714ef2)">
     <use xlink:href="#C2_0_ac08f564d5" x="210.85945" y="149.096165" style="fill: #dd8452; fill-opacity: 0.75"/>
    </g>
    <g clip-path="url(#p5f96714ef2)">
     <use xlink:href="#C2_0_ac08f564d5" x="209.057707" y="140.318869" style="fill: #dd8452; fill-opacity: 0.75"/>
    </g>
    <g clip-path="url(#p5f96714ef2)">
     <use xlink:href="#C2_0_ac08f564d5" x="209.342224" y="165.614931" style="fill: #dd8452; fill-opacity: 0.75"/>
    </g>
    <g clip-path="url(#p5f96714ef2)">
     <use xlink:href="#C2_0_ac08f564d5" x="207.148013" y="174.030301" style="fill: #dd8452; fill-opacity: 0.75"/>
    </g>
   </g>
   <g id="PathCollection_6">
    <defs>
     <path id="C3_0_0023e4539e" d="M 0 2.5 
C 0.663008 2.5 1.29895 2.236584 1.767767 1.767767 
C 2.236584 1.29895 2.5 0.663008 2.5 -0 
C 2.5 -0.663008 2.236584 -1.29895 1.767767 -1.767767 
C 1.29895 -2.236584 0.663008 -2.5 0 -2.5 
C -0.663008 -2.5 -1.29895 -2.236584 -1.767767 -1.767767 
C -2.236584 -1.29895 -2.5 -0.663008 -2.5 0 
C -2.5 0.663008 -2.236584 1.29895 -1.767767 1.767767 
C -1.29895 2.236584 -0.663008 2.5 0 2.5 
z
"/>
    </defs>
    <g clip-path="url(#p5f96714ef2)">
     <use xlink:href="#C3_0_0023e4539e" x="275.657327" y="32.937187" style="fill: #4c72b0; fill-opacity: 0.75"/>
    </g>
    <g clip-path="url(#p5f96714ef2)">
     <use xlink:href="#C3_0_0023e4539e" x="273.209207" y="33.980692" style="fill: #4c72b0; fill-opacity: 0.75"/>
    </g>
    <g clip-path="url(#p5f96714ef2)">
     <use xlink:href="#C3_0_0023e4539e" x="268.899334" y="48.895375" style="fill: #4c72b0; fill-opacity: 0.75"/>
    </g>
    <g clip-path="url(#p5f96714ef2)">
     <use xlink:href="#C3_0_0023e4539e" x="276.920843" y="111.525796" style="fill: #4c72b0; fill-opacity: 0.75"/>
    </g>
    <g clip-path="url(#p5f96714ef2)">
     <use xlink:href="#C3_0_0023e4539e" x="269.968082" y="45.377788" style="fill: #4c72b0; fill-opacity: 0.75"/>
    </g>
    <g clip-path="url(#p5f96714ef2)">
     <use xlink:href="#C3_0_0023e4539e" x="272.373318" y="120.145629" style="fill: #dd8452; fill-opacity: 0.75"/>
    </g>
    <g clip-path="url(#p5f96714ef2)">
     <use xlink:href="#C3_0_0023e4539e" x="272.667802" y="109.909765" style="fill: #dd8452; fill-opacity: 0.75"/>
    </g>
    <g clip-path="url(#p5f96714ef2)">
     <use xlink:href="#C3_0_0023e4539e" x="271.66853" y="121.304967" style="fill: #dd8452; fill-opacity: 0.75"/>
    </g>
    <g clip-path="url(#p5f96714ef2)">
     <use xlink:href="#C3_0_0023e4539e" x="272.205055" y="159.635601" style="fill: #dd8452; fill-opacity: 0.75"/>
    </g>
    <g clip-path="url(#p5f96714ef2)">
     <use xlink:href="#C3_0_0023e4539e" x="276.233406" y="179.390987" style="fill: #dd8452; fill-opacity: 0.75"/>
    </g>
   </g>
   <g id="PathCollection_7">
    <defs>
     <path id="C4_0_3a95916b30" d="M 0 2.5 
C 0.663008 2.5 1.29895 2.236584 1.767767 1.767767 
C 2.236584 1.29895 2.5 0.663008 2.5 -0 
C 2.5 -0.663008 2.236584 -1.29895 1.767767 -1.767767 
C 1.29895 -2.236584 0.663008 -2.5 0 -2.5 
C -0.663008 -2.5 -1.29895 -2.236584 -1.767767 -1.767767 
C -2.236584 -1.29895 -2.5 -0.663008 -2.5 0 
C -2.5 0.663008 -2.236584 1.29895 -1.767767 1.767767 
C -1.29895 2.236584 -0.663008 2.5 0 2.5 
z
"/>
    </defs>
    <g clip-path="url(#p5f96714ef2)">
     <use xlink:href="#C4_0_3a95916b30" x="336.295771" y="107.874128" style="fill: #4c72b0; fill-opacity: 0.75"/>
    </g>
    <g clip-path="url(#p5f96714ef2)">
     <use xlink:href="#C4_0_3a95916b30" x="333.630193" y="55.797082" style="fill: #4c72b0; fill-opacity: 0.75"/>
    </g>
    <g clip-path="url(#p5f96714ef2)">
     <use xlink:href="#C4_0_3a95916b30" x="340.417504" y="89.962107" style="fill: #4c72b0; fill-opacity: 0.75"/>
    </g>
    <g clip-path="url(#p5f96714ef2)">
     <use xlink:href="#C4_0_3a95916b30" x="336.119234" y="174.075497" style="fill: #dd8452; fill-opacity: 0.75"/>
    </g>
    <g clip-path="url(#p5f96714ef2)">
     <use xlink:href="#C4_0_3a95916b30" x="339.326713" y="185.921314" style="fill: #dd8452; fill-opacity: 0.75"/>
    </g>
    <g clip-path="url(#p5f96714ef2)">
     <use xlink:href="#C4_0_3a95916b30" x="333.037556" y="138.761845" style="fill: #dd8452; fill-opacity: 0.75"/>
    </g>
   </g>
   <g id="PathCollection_8">
    <defs>
     <path id="C5_0_b8fd06ecc0" d="M 0 2.5 
C 0.663008 2.5 1.29895 2.236584 1.767767 1.767767 
C 2.236584 1.29895 2.5 0.663008 2.5 -0 
C 2.5 -0.663008 2.236584 -1.29895 1.767767 -1.767767 
C 1.29895 -2.236584 0.663008 -2.5 0 -2.5 
C -0.663008 -2.5 -1.29895 -2.236584 -1.767767 -1.767767 
C -2.236584 -1.29895 -2.5 -0.663008 -2.5 0 
C -2.5 0.663008 -2.236584 1.29895 -1.767767 1.767767 
C -1.29895 2.236584 -0.663008 2.5 0 2.5 
z
"/>
    </defs>
    <g clip-path="url(#p5f96714ef2)">
     <use xlink:href="#C5_0_b8fd06ecc0" x="407.265852" y="183.925191" style="fill: #4c72b0; fill-opacity: 0.75"/>
    </g>
    <g clip-path="url(#p5f96714ef2)">
     <use xlink:href="#C5_0_b8fd06ecc0" x="408.748712" y="183.169308" style="fill: #4c72b0; fill-opacity: 0.75"/>
    </g>
    <g clip-path="url(#p5f96714ef2)">
     <use xlink:href="#C5_0_b8fd06ecc0" x="395.932476" y="192.104496" style="fill: #4c72b0; fill-opacity: 0.75"/>
    </g>
    <g clip-path="url(#p5f96714ef2)">
     <use xlink:href="#C5_0_b8fd06ecc0" x="403.973948" y="194.304414" style="fill: #4c72b0; fill-opacity: 0.75"/>
    </g>
    <g clip-path="url(#p5f96714ef2)">
     <use xlink:href="#C5_0_b8fd06ecc0" x="407.649499" y="189.333483" style="fill: #dd8452; fill-opacity: 0.75"/>
    </g>
    <g clip-path="url(#p5f96714ef2)">
     <use xlink:href="#C5_0_b8fd06ecc0" x="396.236578" y="181.807991" style="fill: #dd8452; fill-opacity: 0.75"/>
    </g>
    <g clip-path="url(#p5f96714ef2)">
     <use xlink:href="#C5_0_b8fd06ecc0" x="397.575936" y="205.280923" style="fill: #dd8452; fill-opacity: 0.75"/>
    </g>
    <g clip-path="url(#p5f96714ef2)">
     <use xlink:href="#C5_0_b8fd06ecc0" x="398.954073" y="197.451901" style="fill: #dd8452; fill-opacity: 0.75"/>
    </g>
   </g>
   <g id="PathCollection_9">
    <defs>
     <path id="C6_0_8b0db0a20f" d="M 0 2.5 
C 0.663008 2.5 1.29895 2.236584 1.767767 1.767767 
C 2.236584 1.29895 2.5 0.663008 2.5 -0 
C 2.5 -0.663008 2.236584 -1.29895 1.767767 -1.767767 
C 1.29895 -2.236584 0.663008 -2.5 0 -2.5 
C -0.663008 -2.5 -1.29895 -2.236584 -1.767767 -1.767767 
C -2.236584 -1.29895 -2.5 -0.663008 -2.5 0 
C -2.5 0.663008 -2.236584 1.29895 -1.767767 1.767767 
C -1.29895 2.236584 -0.663008 2.5 0 2.5 
z
"/>
    </defs>
    <g clip-path="url(#p5f96714ef2)">
     <use xlink:href="#C6_0_8b0db0a20f" x="470.804601" y="133.505597" style="fill: #4c72b0; fill-opacity: 0.75"/>
    </g>
    <g clip-path="url(#p5f96714ef2)">
     <use xlink:href="#C6_0_8b0db0a20f" x="469.01597" y="125.906103" style="fill: #4c72b0; fill-opacity: 0.75"/>
    </g>
    <g clip-path="url(#p5f96714ef2)">
     <use xlink:href="#C6_0_8b0db0a20f" x="468.898855" y="130.376873" style="fill: #4c72b0; fill-opacity: 0.75"/>
    </g>
    <g clip-path="url(#p5f96714ef2)">
     <use xlink:href="#C6_0_8b0db0a20f" x="461.564873" y="110.048401" style="fill: #4c72b0; fill-opacity: 0.75"/>
    </g>
    <g clip-path="url(#p5f96714ef2)">
     <use xlink:href="#C6_0_8b0db0a20f" x="468.367879" y="92.221818" style="fill: #dd8452; fill-opacity: 0.75"/>
    </g>
    <g clip-path="url(#p5f96714ef2)">
     <use xlink:href="#C6_0_8b0db0a20f" x="466.582308" y="107.222597" style="fill: #dd8452; fill-opacity: 0.75"/>
    </g>
    <g clip-path="url(#p5f96714ef2)">
     <use xlink:href="#C6_0_8b0db0a20f" x="467.28767" y="94.518077" style="fill: #dd8452; fill-opacity: 0.75"/>
    </g>
    <g clip-path="url(#p5f96714ef2)">
     <use xlink:href="#C6_0_8b0db0a20f" x="471.185244" y="67.401986" style="fill: #dd8452; fill-opacity: 0.75"/>
    </g>
   </g>
   <g id="text_15">
    <!-- HEXB, $p_{adj}$ &lt; .001 *** -->
    <g style="fill: #262626" transform="translate(42.22 18.32)scale(0.09 -0.09)">
     <defs>
      <path id="ArialMT-48" d="M 513 0 
L 513 4581 
L 1119 4581 
L 1119 2700 
L 3500 2700 
L 3500 4581 
L 4106 4581 
L 4106 0 
L 3500 0 
L 3500 2159 
L 1119 2159 
L 1119 0 
L 513 0 
z
" transform="scale(0.015625)"/>
      <path id="ArialMT-45" d="M 506 0 
L 506 4581 
L 3819 4581 
L 3819 4041 
L 1113 4041 
L 1113 2638 
L 3647 2638 
L 3647 2100 
L 1113 2100 
L 1113 541 
L 3925 541 
L 3925 0 
L 506 0 
z
" transform="scale(0.015625)"/>
      <path id="ArialMT-58" d="M 28 0 
L 1800 2388 
L 238 4581 
L 959 4581 
L 1791 3406 
Q 2050 3041 2159 2844 
Q 2313 3094 2522 3366 
L 3444 4581 
L 4103 4581 
L 2494 2422 
L 4228 0 
L 3478 0 
L 2325 1634 
Q 2228 1775 2125 1941 
Q 1972 1691 1906 1597 
L 756 0 
L 28 0 
z
" transform="scale(0.015625)"/>
      <path id="ArialMT-42" d="M 469 0 
L 469 4581 
L 2188 4581 
Q 2713 4581 3030 4442 
Q 3347 4303 3526 4014 
Q 3706 3725 3706 3409 
Q 3706 3116 3547 2856 
Q 3388 2597 3066 2438 
Q 3481 2316 3704 2022 
Q 3928 1728 3928 1328 
Q 3928 1006 3792 729 
Q 3656 453 3456 303 
Q 3256 153 2954 76 
Q 2653 0 2216 0 
L 469 0 
z
M 1075 2656 
L 2066 2656 
Q 2469 2656 2644 2709 
Q 2875 2778 2992 2937 
Q 3109 3097 3109 3338 
Q 3109 3566 3000 3739 
Q 2891 3913 2687 3977 
Q 2484 4041 1991 4041 
L 1075 4041 
L 1075 2656 
z
M 1075 541 
L 2216 541 
Q 2509 541 2628 563 
Q 2838 600 2978 687 
Q 3119 775 3209 942 
Q 3300 1109 3300 1328 
Q 3300 1584 3169 1773 
Q 3038 1963 2805 2039 
Q 2572 2116 2134 2116 
L 1075 2116 
L 1075 541 
z
" transform="scale(0.015625)"/>
      <path id="ArialMT-2c" d="M 569 0 
L 569 641 
L 1209 641 
L 1209 0 
Q 1209 -353 1084 -570 
Q 959 -788 688 -906 
L 531 -666 
Q 709 -588 793 -436 
Q 878 -284 888 0 
L 569 0 
z
" transform="scale(0.015625)"/>
      <path id="DejaVuSans-Oblique-70" d="M 3175 2156 
Q 3175 2616 2975 2859 
Q 2775 3103 2400 3103 
Q 2144 3103 1911 2972 
Q 1678 2841 1497 2591 
Q 1319 2344 1212 1994 
Q 1106 1644 1106 1300 
Q 1106 863 1306 627 
Q 1506 391 1875 391 
Q 2147 391 2380 519 
Q 2613 647 2778 891 
Q 2956 1147 3065 1494 
Q 3175 1841 3175 2156 
z
M 1394 2969 
Q 1625 3272 1939 3428 
Q 2253 3584 2638 3584 
Q 3175 3584 3472 3232 
Q 3769 2881 3769 2247 
Q 3769 1728 3584 1258 
Q 3400 788 3053 416 
Q 2822 169 2531 39 
Q 2241 -91 1919 -91 
Q 1547 -91 1294 64 
Q 1041 219 916 525 
L 556 -1331 
L -19 -1331 
L 922 3500 
L 1497 3500 
L 1394 2969 
z
" transform="scale(0.015625)"/>
      <path id="DejaVuSans-Oblique-61" d="M 3438 1997 
L 3047 0 
L 2472 0 
L 2578 531 
Q 2325 219 2001 64 
Q 1678 -91 1281 -91 
Q 834 -91 548 182 
Q 263 456 263 884 
Q 263 1497 752 1853 
Q 1241 2209 2100 2209 
L 2900 2209 
L 2931 2363 
Q 2938 2388 2941 2417 
Q 2944 2447 2944 2509 
Q 2944 2788 2717 2942 
Q 2491 3097 2081 3097 
Q 1800 3097 1504 3025 
Q 1209 2953 897 2809 
L 997 3341 
Q 1322 3463 1633 3523 
Q 1944 3584 2234 3584 
Q 2853 3584 3176 3315 
Q 3500 3047 3500 2534 
Q 3500 2431 3484 2292 
Q 3469 2153 3438 1997 
z
M 2816 1759 
L 2241 1759 
Q 1534 1759 1195 1570 
Q 856 1381 856 984 
Q 856 709 1029 553 
Q 1203 397 1509 397 
Q 1978 397 2328 733 
Q 2678 1069 2791 1631 
L 2816 1759 
z
" transform="scale(0.015625)"/>
      <path id="DejaVuSans-Oblique-64" d="M 2675 525 
Q 2444 222 2128 65 
Q 1813 -91 1428 -91 
Q 903 -91 598 267 
Q 294 625 294 1247 
Q 294 1766 478 2236 
Q 663 2706 1013 3078 
Q 1244 3325 1534 3454 
Q 1825 3584 2144 3584 
Q 2481 3584 2739 3421 
Q 2997 3259 3138 2956 
L 3513 4863 
L 4091 4863 
L 3144 0 
L 2566 0 
L 2675 525 
z
M 891 1350 
Q 891 897 1095 644 
Q 1300 391 1663 391 
Q 1931 391 2161 520 
Q 2391 650 2566 903 
Q 2750 1166 2856 1509 
Q 2963 1853 2963 2188 
Q 2963 2622 2758 2865 
Q 2553 3109 2194 3109 
Q 1922 3109 1687 2981 
Q 1453 2853 1288 2613 
Q 1106 2353 998 2009 
Q 891 1666 891 1350 
z
" transform="scale(0.015625)"/>
      <path id="DejaVuSans-Oblique-6a" d="M 928 3500 
L 1503 3500 
L 813 -63 
L 809 -78 
Q 694 -675 544 -897 
Q 403 -1106 132 -1218 
Q -138 -1331 -506 -1331 
L -722 -1331 
L -628 -844 
L -481 -844 
Q -144 -844 -1 -703 
Q 141 -563 238 -63 
L 928 3500 
z
M 1197 4863 
L 1772 4863 
L 1631 4134 
L 1056 4134 
L 1197 4863 
z
" transform="scale(0.015625)"/>
      <path id="ArialMT-3c" d="M 350 2003 
L 350 2528 
L 3384 3809 
L 3384 3250 
L 978 2263 
L 3384 1266 
L 3384 706 
L 350 2003 
z
" transform="scale(0.015625)"/>
      <path id="ArialMT-2e" d="M 581 0 
L 581 641 
L 1222 641 
L 1222 0 
L 581 0 
z
" transform="scale(0.015625)"/>
      <path id="ArialMT-2a" d="M 200 3741 
L 344 4184 
Q 841 4009 1066 3881 
Q 1006 4447 1003 4659 
L 1456 4659 
Q 1447 4350 1384 3884 
Q 1706 4047 2122 4184 
L 2266 3741 
Q 1869 3609 1488 3566 
Q 1678 3400 2025 2975 
L 1650 2709 
Q 1469 2956 1222 3381 
Q 991 2941 816 2709 
L 447 2975 
Q 809 3422 966 3566 
Q 563 3644 200 3741 
z
" transform="scale(0.015625)"/>
     </defs>
     <use xlink:href="#ArialMT-48" transform="translate(0 0.203125)"/>
     <use xlink:href="#ArialMT-45" transform="translate(72.216797 0.203125)"/>
     <use xlink:href="#ArialMT-58" transform="translate(138.916016 0.203125)"/>
     <use xlink:href="#ArialMT-42" transform="translate(205.615234 0.203125)"/>
     <use xlink:href="#ArialMT-2c" transform="translate(272.314453 0.203125)"/>
     <use xlink:href="#ArialMT-20" transform="translate(300.097656 0.203125)"/>
     <use xlink:href="#DejaVuSans-Oblique-70" transform="translate(327.880859 0.203125)"/>
     <use xlink:href="#DejaVuSans-Oblique-61" transform="translate(391.357422 -16.203125)scale(0.7)"/>
     <use xlink:href="#DejaVuSans-Oblique-64" transform="translate(434.25293 -16.203125)scale(0.7)"/>
     <use xlink:href="#DejaVuSans-Oblique-6a" transform="translate(478.686523 -16.203125)scale(0.7)"/>
     <use xlink:href="#ArialMT-20" transform="translate(500.869141 0.203125)"/>
     <use xlink:href="#ArialMT-3c" transform="translate(528.652344 0.203125)"/>
     <use xlink:href="#ArialMT-20" transform="translate(587.050781 0.203125)"/>
     <use xlink:href="#ArialMT-2e" transform="translate(614.833984 0.203125)"/>
     <use xlink:href="#ArialMT-30" transform="translate(642.617188 0.203125)"/>
     <use xlink:href="#ArialMT-30" transform="translate(698.232422 0.203125)"/>
     <use xlink:href="#ArialMT-31" transform="translate(753.847656 0.203125)"/>
     <use xlink:href="#ArialMT-20" transform="translate(809.462891 0.203125)"/>
     <use xlink:href="#ArialMT-2a" transform="translate(837.246094 0.203125)"/>
     <use xlink:href="#ArialMT-2a" transform="translate(876.162109 0.203125)"/>
     <use xlink:href="#ArialMT-2a" transform="translate(915.078125 0.203125)"/>
    </g>
   </g>
   <g id="legend_1">
    <g id="patch_5">
     <path d="M 48.52 69.712344 
L 100.82125 69.712344 
Q 102.62125 69.712344 102.62125 67.912344 
L 102.62125 30.62 
Q 102.62125 28.82 100.82125 28.82 
L 48.52 28.82 
Q 46.72 28.82 46.72 30.62 
L 46.72 67.912344 
Q 46.72 69.712344 48.52 69.712344 
z
" style="fill: #ffffff; opacity: 0.8; stroke: #cccccc; stroke-linejoin: miter"/>
    </g>
    <g id="text_16">
     <!-- Treatment -->
     <g style="fill: #262626" transform="translate(54.334141 38.862031)scale(0.09 -0.09)">
      <use xlink:href="#ArialMT-54"/>
      <use xlink:href="#ArialMT-72" x="57.333984"/>
      <use xlink:href="#ArialMT-65" x="90.634766"/>
      <use xlink:href="#ArialMT-61" x="146.25"/>
      <use xlink:href="#ArialMT-74" x="201.865234"/>
      <use xlink:href="#ArialMT-6d" x="229.648438"/>
      <use xlink:href="#ArialMT-65" x="312.949219"/>
      <use xlink:href="#ArialMT-6e" x="368.564453"/>
      <use xlink:href="#ArialMT-74" x="424.179688"/>
     </g>
    </g>
    <g id="PathCollection_10">
     <defs>
      <path id="mab7fd73850" d="M 0 3.872983 
C 1.027127 3.872983 2.012324 3.464901 2.738613 2.738613 
C 3.464901 2.012324 3.872983 1.027127 3.872983 0 
C 3.872983 -1.027127 3.464901 -2.012324 2.738613 -2.738613 
C 2.012324 -3.464901 1.027127 -3.872983 0 -3.872983 
C -1.027127 -3.872983 -2.012324 -3.464901 -2.738613 -2.738613 
C -3.464901 -2.012324 -3.872983 -1.027127 -3.872983 0 
C -3.872983 1.027127 -3.464901 2.012324 -2.738613 2.738613 
C -2.012324 3.464901 -1.027127 3.872983 0 3.872983 
z
" style="stroke: #4c72b0"/>
     </defs>
     <g>
      <use xlink:href="#mab7fd73850" x="59.32" y="49.230313" style="fill: #4c72b0; stroke: #4c72b0"/>
     </g>
    </g>
    <g id="text_17">
     <!-- BEVA -->
     <g style="fill: #262626" transform="translate(75.52 51.592813)scale(0.09 -0.09)">
      <defs>
       <path id="ArialMT-56" d="M 1803 0 
L 28 4581 
L 684 4581 
L 1875 1253 
Q 2019 853 2116 503 
Q 2222 878 2363 1253 
L 3600 4581 
L 4219 4581 
L 2425 0 
L 1803 0 
z
" transform="scale(0.015625)"/>
       <path id="ArialMT-41" d="M -9 0 
L 1750 4581 
L 2403 4581 
L 4278 0 
L 3588 0 
L 3053 1388 
L 1138 1388 
L 634 0 
L -9 0 
z
M 1313 1881 
L 2866 1881 
L 2388 3150 
Q 2169 3728 2063 4100 
Q 1975 3659 1816 3225 
L 1313 1881 
z
" transform="scale(0.015625)"/>
      </defs>
      <use xlink:href="#ArialMT-42"/>
      <use xlink:href="#ArialMT-45" x="66.699219"/>
      <use xlink:href="#ArialMT-56" x="133.398438"/>
      <use xlink:href="#ArialMT-41" x="192.722656"/>
     </g>
    </g>
    <g id="PathCollection_11">
     <defs>
      <path id="mc2318a2cce" d="M 0 3.872983 
C 1.027127 3.872983 2.012324 3.464901 2.738613 2.738613 
C 3.464901 2.012324 3.872983 1.027127 3.872983 0 
C 3.872983 -1.027127 3.464901 -2.012324 2.738613 -2.738613 
C 2.012324 -3.464901 1.027127 -3.872983 0 -3.872983 
C -1.027127 -3.872983 -2.012324 -3.464901 -2.738613 -2.738613 
C -3.464901 -2.012324 -3.872983 -1.027127 -3.872983 0 
C -3.872983 1.027127 -3.464901 2.012324 -2.738613 2.738613 
C -2.012324 3.464901 -1.027127 3.872983 0 3.872983 
z
" style="stroke: #dd8452"/>
     </defs>
     <g>
      <use xlink:href="#mc2318a2cce" x="59.32" y="61.961094" style="fill: #dd8452; stroke: #dd8452"/>
     </g>
    </g>
    <g id="text_18">
     <!-- CTRL -->
     <g style="fill: #262626" transform="translate(75.52 64.323594)scale(0.09 -0.09)">
      <defs>
       <path id="ArialMT-43" d="M 3763 1606 
L 4369 1453 
Q 4178 706 3683 314 
Q 3188 -78 2472 -78 
Q 1731 -78 1267 223 
Q 803 525 561 1097 
Q 319 1669 319 2325 
Q 319 3041 592 3573 
Q 866 4106 1370 4382 
Q 1875 4659 2481 4659 
Q 3169 4659 3637 4309 
Q 4106 3959 4291 3325 
L 3694 3184 
Q 3534 3684 3231 3912 
Q 2928 4141 2469 4141 
Q 1941 4141 1586 3887 
Q 1231 3634 1087 3207 
Q 944 2781 944 2328 
Q 944 1744 1114 1308 
Q 1284 872 1643 656 
Q 2003 441 2422 441 
Q 2931 441 3284 734 
Q 3638 1028 3763 1606 
z
" transform="scale(0.015625)"/>
       <path id="ArialMT-52" d="M 503 0 
L 503 4581 
L 2534 4581 
Q 3147 4581 3465 4457 
Q 3784 4334 3975 4021 
Q 4166 3709 4166 3331 
Q 4166 2844 3850 2509 
Q 3534 2175 2875 2084 
Q 3116 1969 3241 1856 
Q 3506 1613 3744 1247 
L 4541 0 
L 3778 0 
L 3172 953 
Q 2906 1366 2734 1584 
Q 2563 1803 2427 1890 
Q 2291 1978 2150 2013 
Q 2047 2034 1813 2034 
L 1109 2034 
L 1109 0 
L 503 0 
z
M 1109 2559 
L 2413 2559 
Q 2828 2559 3062 2645 
Q 3297 2731 3419 2920 
Q 3541 3109 3541 3331 
Q 3541 3656 3305 3865 
Q 3069 4075 2559 4075 
L 1109 4075 
L 1109 2559 
z
" transform="scale(0.015625)"/>
       <path id="ArialMT-4c" d="M 469 0 
L 469 4581 
L 1075 4581 
L 1075 541 
L 3331 541 
L 3331 0 
L 469 0 
z
" transform="scale(0.015625)"/>
      </defs>
      <use xlink:href="#ArialMT-43"/>
      <use xlink:href="#ArialMT-54" x="72.216797"/>
      <use xlink:href="#ArialMT-52" x="133.300781"/>
      <use xlink:href="#ArialMT-4c" x="205.517578"/>
     </g>
    </g>
   </g>
  </g>
 </g>
 <defs>
  <clipPath id="p5f96714ef2">
   <rect x="42.22" y="24.32" width="458.29622" height="189.57811"/>
  </clipPath>
 </defs>
</svg>
