<?xml version="1.0" encoding="utf-8" standalone="no"?>
<!DOCTYPE svg PUBLIC "-//W3C//DTD SVG 1.1//EN"
  "http://www.w3.org/Graphics/SVG/1.1/DTD/svg11.dtd">
<!-- Created with matplotlib (https://matplotlib.org/) -->
<svg height="246.509673pt" version="1.1" viewBox="0 0 560.890624 246.509673" width="560.890624pt" xmlns="http://www.w3.org/2000/svg" xmlns:xlink="http://www.w3.org/1999/xlink">
 <metadata>
  <rdf:RDF xmlns:cc="http://creativecommons.org/ns#" xmlns:dc="http://purl.org/dc/elements/1.1/" xmlns:rdf="http://www.w3.org/1999/02/22-rdf-syntax-ns#">
   <cc:Work>
    <dc:type rdf:resource="http://purl.org/dc/dcmitype/StillImage"/>
    <dc:date>2022-03-15T15:40:23.372051</dc:date>
    <dc:format>image/svg+xml</dc:format>
    <dc:creator>
     <cc:Agent>
      <dc:title>Matplotlib v3.3.4, https://matplotlib.org/</dc:title>
     </cc:Agent>
    </dc:creator>
   </cc:Work>
  </rdf:RDF>
 </metadata>
 <defs>
  <style type="text/css">*{stroke-linecap:butt;stroke-linejoin:round;}</style>
 </defs>
 <g id="figure_1">
  <g id="patch_1">
   <path d="M 0 246.509673 
L 560.890624 246.509673 
L 560.890624 0 
L 0 0 
z
" style="fill:#ffffff;"/>
  </g>
  <g id="axes_1">
   <g id="patch_2">
    <path d="M 34.150781 209.34811 
L 260.938891 209.34811 
L 260.938891 19.77 
L 34.150781 19.77 
z
" style="fill:#ffffff;"/>
   </g>
   <g id="matplotlib.axis_1">
    <g id="xtick_1">
     <g id="text_1">
      <!-- responsive -->
      <g style="fill:#444444;" transform="translate(69.087496 225.290141)scale(0.09 -0.09)">
       <defs>
        <path d="M 6.5 0 
L 6.5 51.859375 
L 14.40625 51.859375 
L 14.40625 44 
Q 17.4375 49.515625 20 51.265625 
Q 22.5625 53.03125 25.640625 53.03125 
Q 30.078125 53.03125 34.671875 50.203125 
L 31.640625 42.046875 
Q 28.421875 43.953125 25.203125 43.953125 
Q 22.3125 43.953125 20.015625 42.21875 
Q 17.71875 40.484375 16.75 37.40625 
Q 15.28125 32.71875 15.28125 27.15625 
L 15.28125 0 
z
" id="ArialMT-114"/>
        <path d="M 42.09375 16.703125 
L 51.171875 15.578125 
Q 49.03125 7.625 43.21875 3.21875 
Q 37.40625 -1.171875 28.375 -1.171875 
Q 17 -1.171875 10.328125 5.828125 
Q 3.65625 12.84375 3.65625 25.484375 
Q 3.65625 38.578125 10.390625 45.796875 
Q 17.140625 53.03125 27.875 53.03125 
Q 38.28125 53.03125 44.875 45.953125 
Q 51.46875 38.875 51.46875 26.03125 
Q 51.46875 25.25 51.421875 23.6875 
L 12.75 23.6875 
Q 13.234375 15.140625 17.578125 10.59375 
Q 21.921875 6.0625 28.421875 6.0625 
Q 33.25 6.0625 36.671875 8.59375 
Q 40.09375 11.140625 42.09375 16.703125 
z
M 13.234375 30.90625 
L 42.1875 30.90625 
Q 41.609375 37.453125 38.875 40.71875 
Q 34.671875 45.796875 27.984375 45.796875 
Q 21.921875 45.796875 17.796875 41.75 
Q 13.671875 37.703125 13.234375 30.90625 
z
" id="ArialMT-101"/>
        <path d="M 3.078125 15.484375 
L 11.765625 16.84375 
Q 12.5 11.625 15.84375 8.84375 
Q 19.1875 6.0625 25.203125 6.0625 
Q 31.25 6.0625 34.171875 8.515625 
Q 37.109375 10.984375 37.109375 14.3125 
Q 37.109375 17.28125 34.515625 19 
Q 32.71875 20.171875 25.53125 21.96875 
Q 15.875 24.421875 12.140625 26.203125 
Q 8.40625 27.984375 6.46875 31.125 
Q 4.546875 34.28125 4.546875 38.09375 
Q 4.546875 41.546875 6.125 44.5 
Q 7.71875 47.46875 10.453125 49.421875 
Q 12.5 50.921875 16.03125 51.96875 
Q 19.578125 53.03125 23.640625 53.03125 
Q 29.734375 53.03125 34.34375 51.265625 
Q 38.96875 49.515625 41.15625 46.5 
Q 43.359375 43.5 44.1875 38.484375 
L 35.59375 37.3125 
Q 35.015625 41.3125 32.203125 43.546875 
Q 29.390625 45.796875 24.265625 45.796875 
Q 18.21875 45.796875 15.625 43.796875 
Q 13.03125 41.796875 13.03125 39.109375 
Q 13.03125 37.40625 14.109375 36.03125 
Q 15.1875 34.625 17.484375 33.6875 
Q 18.796875 33.203125 25.25 31.453125 
Q 34.578125 28.953125 38.25 27.359375 
Q 41.9375 25.78125 44.03125 22.75 
Q 46.140625 19.734375 46.140625 15.234375 
Q 46.140625 10.84375 43.578125 6.953125 
Q 41.015625 3.078125 36.171875 0.953125 
Q 31.34375 -1.171875 25.25 -1.171875 
Q 15.140625 -1.171875 9.84375 3.03125 
Q 4.546875 7.234375 3.078125 15.484375 
z
" id="ArialMT-115"/>
        <path d="M 6.59375 -19.875 
L 6.59375 51.859375 
L 14.59375 51.859375 
L 14.59375 45.125 
Q 17.4375 49.078125 21 51.046875 
Q 24.5625 53.03125 29.640625 53.03125 
Q 36.28125 53.03125 41.359375 49.609375 
Q 46.4375 46.1875 49.015625 39.953125 
Q 51.609375 33.734375 51.609375 26.3125 
Q 51.609375 18.359375 48.75 11.984375 
Q 45.90625 5.609375 40.453125 2.21875 
Q 35.015625 -1.171875 29 -1.171875 
Q 24.609375 -1.171875 21.109375 0.6875 
Q 17.625 2.546875 15.375 5.375 
L 15.375 -19.875 
z
M 14.546875 25.640625 
Q 14.546875 15.625 18.59375 10.84375 
Q 22.65625 6.0625 28.421875 6.0625 
Q 34.28125 6.0625 38.453125 11.015625 
Q 42.625 15.96875 42.625 26.375 
Q 42.625 36.28125 38.546875 41.203125 
Q 34.46875 46.140625 28.8125 46.140625 
Q 23.1875 46.140625 18.859375 40.890625 
Q 14.546875 35.640625 14.546875 25.640625 
z
" id="ArialMT-112"/>
        <path d="M 3.328125 25.921875 
Q 3.328125 40.328125 11.328125 47.265625 
Q 18.015625 53.03125 27.640625 53.03125 
Q 38.328125 53.03125 45.109375 46.015625 
Q 51.90625 39.015625 51.90625 26.65625 
Q 51.90625 16.65625 48.90625 10.90625 
Q 45.90625 5.171875 40.15625 2 
Q 34.421875 -1.171875 27.640625 -1.171875 
Q 16.75 -1.171875 10.03125 5.8125 
Q 3.328125 12.796875 3.328125 25.921875 
z
M 12.359375 25.921875 
Q 12.359375 15.96875 16.703125 11.015625 
Q 21.046875 6.0625 27.640625 6.0625 
Q 34.1875 6.0625 38.53125 11.03125 
Q 42.875 16.015625 42.875 26.21875 
Q 42.875 35.84375 38.5 40.796875 
Q 34.125 45.75 27.640625 45.75 
Q 21.046875 45.75 16.703125 40.8125 
Q 12.359375 35.890625 12.359375 25.921875 
z
" id="ArialMT-111"/>
        <path d="M 6.59375 0 
L 6.59375 51.859375 
L 14.5 51.859375 
L 14.5 44.484375 
Q 20.21875 53.03125 31 53.03125 
Q 35.6875 53.03125 39.625 51.34375 
Q 43.5625 49.65625 45.515625 46.921875 
Q 47.46875 44.1875 48.25 40.4375 
Q 48.734375 37.984375 48.734375 31.890625 
L 48.734375 0 
L 39.9375 0 
L 39.9375 31.546875 
Q 39.9375 36.921875 38.90625 39.578125 
Q 37.890625 42.234375 35.28125 43.8125 
Q 32.671875 45.40625 29.15625 45.40625 
Q 23.53125 45.40625 19.453125 41.84375 
Q 15.375 38.28125 15.375 28.328125 
L 15.375 0 
z
" id="ArialMT-110"/>
        <path d="M 6.640625 61.46875 
L 6.640625 71.578125 
L 15.4375 71.578125 
L 15.4375 61.46875 
z
M 6.640625 0 
L 6.640625 51.859375 
L 15.4375 51.859375 
L 15.4375 0 
z
" id="ArialMT-105"/>
        <path d="M 21 0 
L 1.265625 51.859375 
L 10.546875 51.859375 
L 21.6875 20.796875 
Q 23.484375 15.765625 25 10.359375 
Q 26.171875 14.453125 28.265625 20.21875 
L 39.796875 51.859375 
L 48.828125 51.859375 
L 29.203125 0 
z
" id="ArialMT-118"/>
       </defs>
       <use xlink:href="#ArialMT-114"/>
       <use x="33.300781" xlink:href="#ArialMT-101"/>
       <use x="88.916016" xlink:href="#ArialMT-115"/>
       <use x="138.916016" xlink:href="#ArialMT-112"/>
       <use x="194.53125" xlink:href="#ArialMT-111"/>
       <use x="250.146484" xlink:href="#ArialMT-110"/>
       <use x="305.761719" xlink:href="#ArialMT-115"/>
       <use x="355.761719" xlink:href="#ArialMT-105"/>
       <use x="377.978516" xlink:href="#ArialMT-118"/>
       <use x="427.978516" xlink:href="#ArialMT-101"/>
      </g>
     </g>
    </g>
    <g id="xtick_2">
     <g id="text_2">
      <!-- resistant -->
      <g style="fill:#444444;" transform="translate(187.236083 225.290141)scale(0.09 -0.09)">
       <defs>
        <path d="M 25.78125 7.859375 
L 27.046875 0.09375 
Q 23.34375 -0.6875 20.40625 -0.6875 
Q 15.625 -0.6875 12.984375 0.828125 
Q 10.359375 2.34375 9.28125 4.8125 
Q 8.203125 7.28125 8.203125 15.1875 
L 8.203125 45.015625 
L 1.765625 45.015625 
L 1.765625 51.859375 
L 8.203125 51.859375 
L 8.203125 64.703125 
L 16.9375 69.96875 
L 16.9375 51.859375 
L 25.78125 51.859375 
L 25.78125 45.015625 
L 16.9375 45.015625 
L 16.9375 14.703125 
Q 16.9375 10.9375 17.40625 9.859375 
Q 17.875 8.796875 18.921875 8.15625 
Q 19.96875 7.515625 21.921875 7.515625 
Q 23.390625 7.515625 25.78125 7.859375 
z
" id="ArialMT-116"/>
        <path d="M 40.4375 6.390625 
Q 35.546875 2.25 31.03125 0.53125 
Q 26.515625 -1.171875 21.34375 -1.171875 
Q 12.796875 -1.171875 8.203125 3 
Q 3.609375 7.171875 3.609375 13.671875 
Q 3.609375 17.484375 5.34375 20.625 
Q 7.078125 23.78125 9.890625 25.6875 
Q 12.703125 27.59375 16.21875 28.5625 
Q 18.796875 29.25 24.03125 29.890625 
Q 34.671875 31.15625 39.703125 32.90625 
Q 39.75 34.71875 39.75 35.203125 
Q 39.75 40.578125 37.25 42.78125 
Q 33.890625 45.75 27.25 45.75 
Q 21.046875 45.75 18.09375 43.578125 
Q 15.140625 41.40625 13.71875 35.890625 
L 5.125 37.0625 
Q 6.296875 42.578125 8.984375 45.96875 
Q 11.671875 49.359375 16.75 51.1875 
Q 21.828125 53.03125 28.515625 53.03125 
Q 35.15625 53.03125 39.296875 51.46875 
Q 43.453125 49.90625 45.40625 47.53125 
Q 47.359375 45.171875 48.140625 41.546875 
Q 48.578125 39.3125 48.578125 33.453125 
L 48.578125 21.734375 
Q 48.578125 9.46875 49.140625 6.21875 
Q 49.703125 2.984375 51.375 0 
L 42.1875 0 
Q 40.828125 2.734375 40.4375 6.390625 
z
M 39.703125 26.03125 
Q 34.90625 24.078125 25.34375 22.703125 
Q 19.921875 21.921875 17.671875 20.9375 
Q 15.4375 19.96875 14.203125 18.09375 
Q 12.984375 16.21875 12.984375 13.921875 
Q 12.984375 10.40625 15.640625 8.0625 
Q 18.3125 5.71875 23.4375 5.71875 
Q 28.515625 5.71875 32.46875 7.9375 
Q 36.421875 10.15625 38.28125 14.015625 
Q 39.703125 17 39.703125 22.796875 
z
" id="ArialMT-97"/>
       </defs>
       <use xlink:href="#ArialMT-114"/>
       <use x="33.300781" xlink:href="#ArialMT-101"/>
       <use x="88.916016" xlink:href="#ArialMT-115"/>
       <use x="138.916016" xlink:href="#ArialMT-105"/>
       <use x="161.132812" xlink:href="#ArialMT-115"/>
       <use x="211.132812" xlink:href="#ArialMT-116"/>
       <use x="238.916016" xlink:href="#ArialMT-97"/>
       <use x="294.53125" xlink:href="#ArialMT-110"/>
       <use x="350.146484" xlink:href="#ArialMT-116"/>
      </g>
     </g>
    </g>
    <g id="text_3">
     <!-- Condition -->
     <g style="fill:#444444;" transform="translate(128.533039 237.520923)scale(0.09 -0.09)">
      <defs>
       <path d="M 58.796875 25.09375 
L 68.265625 22.703125 
Q 65.28125 11.03125 57.546875 4.90625 
Q 49.8125 -1.21875 38.625 -1.21875 
Q 27.046875 -1.21875 19.796875 3.484375 
Q 12.546875 8.203125 8.765625 17.140625 
Q 4.984375 26.078125 4.984375 36.328125 
Q 4.984375 47.515625 9.25 55.828125 
Q 13.53125 64.15625 21.40625 68.46875 
Q 29.296875 72.796875 38.765625 72.796875 
Q 49.515625 72.796875 56.828125 67.328125 
Q 64.15625 61.859375 67.046875 51.953125 
L 57.71875 49.75 
Q 55.21875 57.5625 50.484375 61.125 
Q 45.75 64.703125 38.578125 64.703125 
Q 30.328125 64.703125 24.78125 60.734375 
Q 19.234375 56.78125 16.984375 50.109375 
Q 14.75 43.453125 14.75 36.375 
Q 14.75 27.25 17.40625 20.4375 
Q 20.0625 13.625 25.671875 10.25 
Q 31.296875 6.890625 37.84375 6.890625 
Q 45.796875 6.890625 51.3125 11.46875 
Q 56.84375 16.0625 58.796875 25.09375 
z
" id="ArialMT-67"/>
       <path d="M 40.234375 0 
L 40.234375 6.546875 
Q 35.296875 -1.171875 25.734375 -1.171875 
Q 19.53125 -1.171875 14.328125 2.25 
Q 9.125 5.671875 6.265625 11.796875 
Q 3.421875 17.921875 3.421875 25.875 
Q 3.421875 33.640625 6 39.96875 
Q 8.59375 46.296875 13.765625 49.65625 
Q 18.953125 53.03125 25.34375 53.03125 
Q 30.03125 53.03125 33.6875 51.046875 
Q 37.359375 49.078125 39.65625 45.90625 
L 39.65625 71.578125 
L 48.390625 71.578125 
L 48.390625 0 
z
M 12.453125 25.875 
Q 12.453125 15.921875 16.640625 10.984375 
Q 20.84375 6.0625 26.5625 6.0625 
Q 32.328125 6.0625 36.34375 10.765625 
Q 40.375 15.484375 40.375 25.140625 
Q 40.375 35.796875 36.265625 40.765625 
Q 32.171875 45.75 26.171875 45.75 
Q 20.3125 45.75 16.375 40.96875 
Q 12.453125 36.1875 12.453125 25.875 
z
" id="ArialMT-100"/>
      </defs>
      <use xlink:href="#ArialMT-67"/>
      <use x="72.216797" xlink:href="#ArialMT-111"/>
      <use x="127.832031" xlink:href="#ArialMT-110"/>
      <use x="183.447266" xlink:href="#ArialMT-100"/>
      <use x="239.0625" xlink:href="#ArialMT-105"/>
      <use x="261.279297" xlink:href="#ArialMT-116"/>
      <use x="289.0625" xlink:href="#ArialMT-105"/>
      <use x="311.279297" xlink:href="#ArialMT-111"/>
      <use x="366.894531" xlink:href="#ArialMT-110"/>
     </g>
    </g>
   </g>
   <g id="matplotlib.axis_2">
    <g id="ytick_1">
     <g id="text_4">
      <!-- 1 -->
      <g style="fill:#444444;" transform="translate(19.645938 185.166555)scale(0.09 -0.09)">
       <defs>
        <path d="M 37.25 0 
L 28.46875 0 
L 28.46875 56 
Q 25.296875 52.984375 20.140625 49.953125 
Q 14.984375 46.921875 10.890625 45.40625 
L 10.890625 53.90625 
Q 18.265625 57.375 23.78125 62.296875 
Q 29.296875 67.234375 31.59375 71.875 
L 37.25 71.875 
z
" id="ArialMT-49"/>
       </defs>
       <use xlink:href="#ArialMT-49"/>
      </g>
     </g>
    </g>
    <g id="ytick_2">
     <g id="text_5">
      <!-- 2 -->
      <g style="fill:#444444;" transform="translate(19.645938 153.724327)scale(0.09 -0.09)">
       <defs>
        <path d="M 50.34375 8.453125 
L 50.34375 0 
L 3.03125 0 
Q 2.9375 3.171875 4.046875 6.109375 
Q 5.859375 10.9375 9.828125 15.625 
Q 13.8125 20.3125 21.34375 26.46875 
Q 33.015625 36.03125 37.109375 41.625 
Q 41.21875 47.21875 41.21875 52.203125 
Q 41.21875 57.421875 37.46875 61 
Q 33.734375 64.59375 27.734375 64.59375 
Q 21.390625 64.59375 17.578125 60.78125 
Q 13.765625 56.984375 13.71875 50.25 
L 4.6875 51.171875 
Q 5.609375 61.28125 11.65625 66.578125 
Q 17.71875 71.875 27.9375 71.875 
Q 38.234375 71.875 44.234375 66.15625 
Q 50.25 60.453125 50.25 52 
Q 50.25 47.703125 48.484375 43.546875 
Q 46.734375 39.40625 42.65625 34.8125 
Q 38.578125 30.21875 29.109375 22.21875 
Q 21.1875 15.578125 18.9375 13.203125 
Q 16.703125 10.84375 15.234375 8.453125 
z
" id="ArialMT-50"/>
       </defs>
       <use xlink:href="#ArialMT-50"/>
      </g>
     </g>
    </g>
    <g id="ytick_3">
     <g id="text_6">
      <!-- 3 -->
      <g style="fill:#444444;" transform="translate(19.645938 122.282098)scale(0.09 -0.09)">
       <defs>
        <path d="M 4.203125 18.890625 
L 12.984375 20.0625 
Q 14.5 12.59375 18.140625 9.296875 
Q 21.78125 6 27 6 
Q 33.203125 6 37.46875 10.296875 
Q 41.75 14.59375 41.75 20.953125 
Q 41.75 27 37.796875 30.921875 
Q 33.84375 34.859375 27.734375 34.859375 
Q 25.25 34.859375 21.53125 33.890625 
L 22.515625 41.609375 
Q 23.390625 41.5 23.921875 41.5 
Q 29.546875 41.5 34.03125 44.421875 
Q 38.53125 47.359375 38.53125 53.46875 
Q 38.53125 58.296875 35.25 61.46875 
Q 31.984375 64.65625 26.8125 64.65625 
Q 21.6875 64.65625 18.265625 61.421875 
Q 14.84375 58.203125 13.875 51.765625 
L 5.078125 53.328125 
Q 6.6875 62.15625 12.390625 67.015625 
Q 18.109375 71.875 26.609375 71.875 
Q 32.46875 71.875 37.390625 69.359375 
Q 42.328125 66.84375 44.9375 62.5 
Q 47.5625 58.15625 47.5625 53.265625 
Q 47.5625 48.640625 45.0625 44.828125 
Q 42.578125 41.015625 37.703125 38.765625 
Q 44.046875 37.3125 47.5625 32.6875 
Q 51.078125 28.078125 51.078125 21.140625 
Q 51.078125 11.765625 44.234375 5.25 
Q 37.40625 -1.265625 26.953125 -1.265625 
Q 17.53125 -1.265625 11.296875 4.34375 
Q 5.078125 9.96875 4.203125 18.890625 
z
" id="ArialMT-51"/>
       </defs>
       <use xlink:href="#ArialMT-51"/>
      </g>
     </g>
    </g>
    <g id="ytick_4">
     <g id="text_7">
      <!-- 4 -->
      <g style="fill:#444444;" transform="translate(19.645938 90.83987)scale(0.09 -0.09)">
       <defs>
        <path d="M 32.328125 0 
L 32.328125 17.140625 
L 1.265625 17.140625 
L 1.265625 25.203125 
L 33.9375 71.578125 
L 41.109375 71.578125 
L 41.109375 25.203125 
L 50.78125 25.203125 
L 50.78125 17.140625 
L 41.109375 17.140625 
L 41.109375 0 
z
M 32.328125 25.203125 
L 32.328125 57.46875 
L 9.90625 25.203125 
z
" id="ArialMT-52"/>
       </defs>
       <use xlink:href="#ArialMT-52"/>
      </g>
     </g>
    </g>
    <g id="ytick_5">
     <g id="text_8">
      <!-- 5 -->
      <g style="fill:#444444;" transform="translate(19.645938 59.397642)scale(0.09 -0.09)">
       <defs>
        <path d="M 4.15625 18.75 
L 13.375 19.53125 
Q 14.40625 12.796875 18.140625 9.390625 
Q 21.875 6 27.15625 6 
Q 33.5 6 37.890625 10.78125 
Q 42.28125 15.578125 42.28125 23.484375 
Q 42.28125 31 38.0625 35.34375 
Q 33.84375 39.703125 27 39.703125 
Q 22.75 39.703125 19.328125 37.765625 
Q 15.921875 35.84375 13.96875 32.765625 
L 5.71875 33.84375 
L 12.640625 70.609375 
L 48.25 70.609375 
L 48.25 62.203125 
L 19.671875 62.203125 
L 15.828125 42.96875 
Q 22.265625 47.46875 29.34375 47.46875 
Q 38.71875 47.46875 45.15625 40.96875 
Q 51.609375 34.46875 51.609375 24.265625 
Q 51.609375 14.546875 45.953125 7.46875 
Q 39.0625 -1.21875 27.15625 -1.21875 
Q 17.390625 -1.21875 11.203125 4.25 
Q 5.03125 9.71875 4.15625 18.75 
z
" id="ArialMT-53"/>
       </defs>
       <use xlink:href="#ArialMT-53"/>
      </g>
     </g>
    </g>
    <g id="ytick_6">
     <g id="text_9">
      <!-- 6 -->
      <g style="fill:#444444;" transform="translate(19.645938 27.955413)scale(0.09 -0.09)">
       <defs>
        <path d="M 49.75 54.046875 
L 41.015625 53.375 
Q 39.84375 58.546875 37.703125 60.890625 
Q 34.125 64.65625 28.90625 64.65625 
Q 24.703125 64.65625 21.53125 62.3125 
Q 17.390625 59.28125 14.984375 53.46875 
Q 12.59375 47.65625 12.5 36.921875 
Q 15.671875 41.75 20.265625 44.09375 
Q 24.859375 46.4375 29.890625 46.4375 
Q 38.671875 46.4375 44.84375 39.96875 
Q 51.03125 33.5 51.03125 23.25 
Q 51.03125 16.5 48.125 10.71875 
Q 45.21875 4.9375 40.140625 1.859375 
Q 35.0625 -1.21875 28.609375 -1.21875 
Q 17.625 -1.21875 10.6875 6.859375 
Q 3.765625 14.9375 3.765625 33.5 
Q 3.765625 54.25 11.421875 63.671875 
Q 18.109375 71.875 29.4375 71.875 
Q 37.890625 71.875 43.28125 67.140625 
Q 48.6875 62.40625 49.75 54.046875 
z
M 13.875 23.1875 
Q 13.875 18.65625 15.796875 14.5 
Q 17.71875 10.359375 21.1875 8.171875 
Q 24.65625 6 28.46875 6 
Q 34.03125 6 38.03125 10.484375 
Q 42.046875 14.984375 42.046875 22.703125 
Q 42.046875 30.125 38.078125 34.390625 
Q 34.125 38.671875 28.125 38.671875 
Q 22.171875 38.671875 18.015625 34.390625 
Q 13.875 30.125 13.875 23.1875 
z
" id="ArialMT-54"/>
       </defs>
       <use xlink:href="#ArialMT-54"/>
      </g>
     </g>
    </g>
    <g id="text_10">
     <!-- Transcripts Per Million (TPM) -->
     <g style="fill:#444444;" transform="translate(13.751719 172.643508)rotate(-90)scale(0.09 -0.09)">
      <defs>
       <path d="M 25.921875 0 
L 25.921875 63.140625 
L 2.34375 63.140625 
L 2.34375 71.578125 
L 59.078125 71.578125 
L 59.078125 63.140625 
L 35.40625 63.140625 
L 35.40625 0 
z
" id="ArialMT-84"/>
       <path d="M 40.4375 19 
L 49.078125 17.875 
Q 47.65625 8.9375 41.8125 3.875 
Q 35.984375 -1.171875 27.484375 -1.171875 
Q 16.84375 -1.171875 10.375 5.78125 
Q 3.90625 12.75 3.90625 25.734375 
Q 3.90625 34.125 6.6875 40.421875 
Q 9.46875 46.734375 15.15625 49.875 
Q 20.84375 53.03125 27.546875 53.03125 
Q 35.984375 53.03125 41.359375 48.75 
Q 46.734375 44.484375 48.25 36.625 
L 39.703125 35.296875 
Q 38.484375 40.53125 35.375 43.15625 
Q 32.28125 45.796875 27.875 45.796875 
Q 21.234375 45.796875 17.078125 41.03125 
Q 12.9375 36.28125 12.9375 25.984375 
Q 12.9375 15.53125 16.9375 10.796875 
Q 20.953125 6.0625 27.390625 6.0625 
Q 32.5625 6.0625 36.03125 9.234375 
Q 39.5 12.40625 40.4375 19 
z
" id="ArialMT-99"/>
       <path id="ArialMT-32"/>
       <path d="M 7.71875 0 
L 7.71875 71.578125 
L 34.71875 71.578125 
Q 41.84375 71.578125 45.609375 70.90625 
Q 50.875 70.015625 54.4375 67.546875 
Q 58.015625 65.09375 60.1875 60.640625 
Q 62.359375 56.203125 62.359375 50.875 
Q 62.359375 41.75 56.546875 35.421875 
Q 50.734375 29.109375 35.546875 29.109375 
L 17.1875 29.109375 
L 17.1875 0 
z
M 17.1875 37.546875 
L 35.6875 37.546875 
Q 44.875 37.546875 48.734375 40.96875 
Q 52.59375 44.390625 52.59375 50.59375 
Q 52.59375 55.078125 50.3125 58.265625 
Q 48.046875 61.46875 44.34375 62.5 
Q 41.9375 63.140625 35.5 63.140625 
L 17.1875 63.140625 
z
" id="ArialMT-80"/>
       <path d="M 7.421875 0 
L 7.421875 71.578125 
L 21.6875 71.578125 
L 38.625 20.90625 
Q 40.96875 13.8125 42.046875 10.296875 
Q 43.265625 14.203125 45.84375 21.78125 
L 62.984375 71.578125 
L 75.734375 71.578125 
L 75.734375 0 
L 66.609375 0 
L 66.609375 59.90625 
L 45.796875 0 
L 37.25 0 
L 16.546875 60.9375 
L 16.546875 0 
z
" id="ArialMT-77"/>
       <path d="M 6.390625 0 
L 6.390625 71.578125 
L 15.1875 71.578125 
L 15.1875 0 
z
" id="ArialMT-108"/>
       <path d="M 23.390625 -21.046875 
Q 16.109375 -11.859375 11.078125 0.4375 
Q 6.0625 12.75 6.0625 25.921875 
Q 6.0625 37.546875 9.8125 48.1875 
Q 14.203125 60.546875 23.390625 72.796875 
L 29.6875 72.796875 
Q 23.78125 62.640625 21.875 58.296875 
Q 18.890625 51.5625 17.1875 44.234375 
Q 15.09375 35.109375 15.09375 25.875 
Q 15.09375 2.390625 29.6875 -21.046875 
z
" id="ArialMT-40"/>
       <path d="M 12.359375 -21.046875 
L 6.0625 -21.046875 
Q 20.65625 2.390625 20.65625 25.875 
Q 20.65625 35.0625 18.5625 44.09375 
Q 16.890625 51.421875 13.921875 58.15625 
Q 12.015625 62.546875 6.0625 72.796875 
L 12.359375 72.796875 
Q 21.53125 60.546875 25.921875 48.1875 
Q 29.6875 37.546875 29.6875 25.921875 
Q 29.6875 12.75 24.625 0.4375 
Q 19.578125 -11.859375 12.359375 -21.046875 
z
" id="ArialMT-41"/>
      </defs>
      <use xlink:href="#ArialMT-84"/>
      <use x="57.333984" xlink:href="#ArialMT-114"/>
      <use x="90.634766" xlink:href="#ArialMT-97"/>
      <use x="146.25" xlink:href="#ArialMT-110"/>
      <use x="201.865234" xlink:href="#ArialMT-115"/>
      <use x="251.865234" xlink:href="#ArialMT-99"/>
      <use x="301.865234" xlink:href="#ArialMT-114"/>
      <use x="335.166016" xlink:href="#ArialMT-105"/>
      <use x="357.382812" xlink:href="#ArialMT-112"/>
      <use x="412.998047" xlink:href="#ArialMT-116"/>
      <use x="440.78125" xlink:href="#ArialMT-115"/>
      <use x="490.78125" xlink:href="#ArialMT-32"/>
      <use x="518.564453" xlink:href="#ArialMT-80"/>
      <use x="585.263672" xlink:href="#ArialMT-101"/>
      <use x="640.878906" xlink:href="#ArialMT-114"/>
      <use x="674.179688" xlink:href="#ArialMT-32"/>
      <use x="701.962891" xlink:href="#ArialMT-77"/>
      <use x="785.263672" xlink:href="#ArialMT-105"/>
      <use x="807.480469" xlink:href="#ArialMT-108"/>
      <use x="829.697266" xlink:href="#ArialMT-108"/>
      <use x="851.914062" xlink:href="#ArialMT-105"/>
      <use x="874.130859" xlink:href="#ArialMT-111"/>
      <use x="929.746094" xlink:href="#ArialMT-110"/>
      <use x="985.361328" xlink:href="#ArialMT-32"/>
      <use x="1013.144531" xlink:href="#ArialMT-40"/>
      <use x="1046.445312" xlink:href="#ArialMT-84"/>
      <use x="1107.529297" xlink:href="#ArialMT-80"/>
      <use x="1174.228516" xlink:href="#ArialMT-77"/>
      <use x="1257.529297" xlink:href="#ArialMT-41"/>
     </g>
    </g>
   </g>
   <g id="PolyCollection_1">
    <defs>
     <path d="M 99.165675 -45.778749 
L 82.529942 -45.778749 
L 81.984449 -47.519595 
L 81.421234 -49.260441 
L 80.838815 -51.001287 
L 80.235629 -52.742133 
L 79.61016 -54.482978 
L 78.96107 -56.223824 
L 78.287348 -57.96467 
L 77.588442 -59.705516 
L 76.864399 -61.446362 
L 76.115977 -63.187208 
L 75.34474 -64.928053 
L 74.553128 -66.668899 
L 73.744488 -68.409745 
L 72.923079 -70.150591 
L 72.094039 -71.891437 
L 71.263317 -73.632283 
L 70.437575 -75.373128 
L 69.624065 -77.113974 
L 68.830482 -78.85482 
L 68.064797 -80.595666 
L 67.335084 -82.336512 
L 66.649343 -84.077357 
L 66.015318 -85.818203 
L 65.440334 -87.559049 
L 64.931134 -89.299895 
L 64.493743 -91.040741 
L 64.133347 -92.781587 
L 63.854193 -94.522432 
L 63.659522 -96.263278 
L 63.551516 -98.004124 
L 63.531279 -99.74497 
L 63.598837 -101.485816 
L 63.753167 -103.226662 
L 63.992245 -104.967507 
L 64.313113 -106.708353 
L 64.711967 -108.449199 
L 65.184261 -110.190045 
L 65.724815 -111.930891 
L 66.327938 -113.671736 
L 66.98756 -115.412582 
L 67.697351 -117.153428 
L 68.450851 -118.894274 
L 69.241583 -120.63512 
L 70.063161 -122.375966 
L 70.909385 -124.116811 
L 71.774316 -125.857657 
L 72.652335 -127.598503 
L 73.538187 -129.339349 
L 74.426999 -131.080195 
L 75.314295 -132.821041 
L 76.195978 -134.561886 
L 77.068315 -136.302732 
L 77.927909 -138.043578 
L 78.771659 -139.784424 
L 79.59673 -141.52527 
L 80.400516 -143.266115 
L 81.180615 -145.006961 
L 81.9348 -146.747807 
L 82.66101 -148.488653 
L 83.357346 -150.229499 
L 84.022067 -151.970345 
L 84.653607 -153.71119 
L 85.250586 -155.452036 
L 85.811828 -157.192882 
L 86.33638 -158.933728 
L 86.823528 -160.674574 
L 87.272813 -162.41542 
L 87.684035 -164.156265 
L 88.057257 -165.897111 
L 88.3928 -167.637957 
L 88.69123 -169.378803 
L 88.953343 -171.119649 
L 89.180146 -172.860494 
L 89.37283 -174.60134 
L 89.532749 -176.342186 
L 89.661397 -178.083032 
L 89.760388 -179.823878 
L 89.831438 -181.564724 
L 89.876356 -183.305569 
L 89.897038 -185.046415 
L 89.89546 -186.787261 
L 89.873682 -188.528107 
L 89.833853 -190.268953 
L 89.778209 -192.009799 
L 89.709077 -193.750644 
L 89.628876 -195.49149 
L 89.540103 -197.232336 
L 89.445325 -198.973182 
L 89.347155 -200.714028 
L 89.24822 -202.454873 
L 89.151125 -204.195719 
L 89.058411 -205.936565 
L 88.972499 -207.677411 
L 88.89564 -209.418257 
L 88.829864 -211.159103 
L 88.776923 -212.899948 
L 88.73825 -214.640794 
L 88.714916 -216.38164 
L 88.707607 -218.122486 
L 92.988011 -218.122486 
L 92.988011 -218.122486 
L 92.980701 -216.38164 
L 92.957368 -214.640794 
L 92.918694 -212.899948 
L 92.865754 -211.159103 
L 92.799977 -209.418257 
L 92.723119 -207.677411 
L 92.637207 -205.936565 
L 92.544492 -204.195719 
L 92.447398 -202.454873 
L 92.348463 -200.714028 
L 92.250292 -198.973182 
L 92.155515 -197.232336 
L 92.066742 -195.49149 
L 91.98654 -193.750644 
L 91.917409 -192.009799 
L 91.861764 -190.268953 
L 91.821935 -188.528107 
L 91.800158 -186.787261 
L 91.79858 -185.046415 
L 91.819261 -183.305569 
L 91.86418 -181.564724 
L 91.93523 -179.823878 
L 92.03422 -178.083032 
L 92.162868 -176.342186 
L 92.322788 -174.60134 
L 92.515472 -172.860494 
L 92.742275 -171.119649 
L 93.004388 -169.378803 
L 93.302818 -167.637957 
L 93.63836 -165.897111 
L 94.011582 -164.156265 
L 94.422804 -162.41542 
L 94.872089 -160.674574 
L 95.359238 -158.933728 
L 95.88379 -157.192882 
L 96.445031 -155.452036 
L 97.04201 -153.71119 
L 97.673551 -151.970345 
L 98.338272 -150.229499 
L 99.034607 -148.488653 
L 99.760818 -146.747807 
L 100.515003 -145.006961 
L 101.295101 -143.266115 
L 102.098888 -141.52527 
L 102.923959 -139.784424 
L 103.767709 -138.043578 
L 104.627302 -136.302732 
L 105.49964 -134.561886 
L 106.381323 -132.821041 
L 107.268618 -131.080195 
L 108.157431 -129.339349 
L 109.043282 -127.598503 
L 109.921302 -125.857657 
L 110.786233 -124.116811 
L 111.632457 -122.375966 
L 112.454035 -120.63512 
L 113.244767 -118.894274 
L 113.998266 -117.153428 
L 114.708057 -115.412582 
L 115.367679 -113.671736 
L 115.970803 -111.930891 
L 116.511356 -110.190045 
L 116.98365 -108.449199 
L 117.382505 -106.708353 
L 117.703373 -104.967507 
L 117.942451 -103.226662 
L 118.096781 -101.485816 
L 118.164339 -99.74497 
L 118.144101 -98.004124 
L 118.036095 -96.263278 
L 117.841424 -94.522432 
L 117.562271 -92.781587 
L 117.201874 -91.040741 
L 116.764483 -89.299895 
L 116.255284 -87.559049 
L 115.680299 -85.818203 
L 115.046275 -84.077357 
L 114.360533 -82.336512 
L 113.630821 -80.595666 
L 112.865136 -78.85482 
L 112.071553 -77.113974 
L 111.258043 -75.373128 
L 110.432301 -73.632283 
L 109.601578 -71.891437 
L 108.772538 -70.150591 
L 107.95113 -68.409745 
L 107.14249 -66.668899 
L 106.350878 -64.928053 
L 105.579641 -63.187208 
L 104.831219 -61.446362 
L 104.107176 -59.705516 
L 103.40827 -57.96467 
L 102.734547 -56.223824 
L 102.085458 -54.482978 
L 101.459988 -52.742133 
L 100.856803 -51.001287 
L 100.274383 -49.260441 
L 99.711168 -47.519595 
L 99.165675 -45.778749 
z
" id="m2efd7d4521" style="stroke:#999999;stroke-width:2;"/>
    </defs>
    <g clip-path="url(#p64625a9c5e)">
     <use style="fill:#ffffff;stroke:#999999;stroke-width:2;" x="0" xlink:href="#m2efd7d4521" y="246.509673"/>
    </g>
   </g>
   <g id="PolyCollection_2">
    <defs>
     <path d="M 223.208185 -53.860355 
L 185.275543 -53.860355 
L 183.749656 -54.763945 
L 182.191244 -55.667536 
L 180.608851 -56.571126 
L 179.011659 -57.474717 
L 177.409413 -58.378307 
L 175.812329 -59.281897 
L 174.230986 -60.185488 
L 172.676207 -61.089078 
L 171.15892 -61.992669 
L 169.690012 -62.896259 
L 168.280168 -63.79985 
L 166.939709 -64.70344 
L 165.678422 -65.607031 
L 164.505398 -66.510621 
L 163.428879 -67.414211 
L 162.456114 -68.317802 
L 161.593247 -69.221392 
L 160.845218 -70.124983 
L 160.2157 -71.028573 
L 159.707068 -71.932164 
L 159.320396 -72.835754 
L 159.055491 -73.739344 
L 158.910949 -74.642935 
L 158.884242 -75.546525 
L 158.971824 -76.450116 
L 159.169249 -77.353706 
L 159.471299 -78.257297 
L 159.872113 -79.160887 
L 160.365305 -80.064477 
L 160.944084 -80.968068 
L 161.601344 -81.871658 
L 162.329756 -82.775249 
L 163.121824 -83.678839 
L 163.969937 -84.58243 
L 164.866406 -85.48602 
L 165.803484 -86.38961 
L 166.773392 -87.293201 
L 167.768335 -88.196791 
L 168.780533 -89.100382 
L 169.802261 -90.003972 
L 170.825903 -90.907563 
L 171.844024 -91.811153 
L 172.849471 -92.714743 
L 173.835479 -93.618334 
L 174.795802 -94.521924 
L 175.724851 -95.425515 
L 176.617838 -96.329105 
L 177.470913 -97.232696 
L 178.281292 -98.136286 
L 179.047357 -99.039876 
L 179.768733 -99.943467 
L 180.446319 -100.847057 
L 181.082283 -101.750648 
L 181.680008 -102.654238 
L 182.243981 -103.557829 
L 182.779654 -104.461419 
L 183.293241 -105.36501 
L 183.791496 -106.2686 
L 184.281459 -107.17219 
L 184.770182 -108.075781 
L 185.264455 -108.979371 
L 185.770544 -109.882962 
L 186.293936 -110.786552 
L 186.839127 -111.690143 
L 187.409447 -112.593733 
L 188.006925 -113.497323 
L 188.632219 -114.400914 
L 189.284591 -115.304504 
L 189.961942 -116.208095 
L 190.660898 -117.111685 
L 191.376944 -118.015276 
L 192.104598 -118.918866 
L 192.837616 -119.822456 
L 193.569223 -120.726047 
L 194.292357 -121.629637 
L 194.999908 -122.533228 
L 195.684965 -123.436818 
L 196.341036 -124.340409 
L 196.962252 -125.243999 
L 197.54354 -126.147589 
L 198.080765 -127.05118 
L 198.570834 -127.95477 
L 199.011761 -128.858361 
L 199.402697 -129.761951 
L 199.743921 -130.665542 
L 200.036791 -131.569132 
L 200.283667 -132.472722 
L 200.487806 -133.376313 
L 200.653228 -134.279903 
L 200.784561 -135.183494 
L 200.886886 -136.087084 
L 200.965554 -136.990675 
L 201.026019 -137.894265 
L 201.073661 -138.797856 
L 201.113635 -139.701446 
L 201.150716 -140.605036 
L 201.189181 -141.508627 
L 201.232707 -142.412217 
L 201.284294 -143.315808 
L 207.199434 -143.315808 
L 207.199434 -143.315808 
L 207.251021 -142.412217 
L 207.294547 -141.508627 
L 207.333012 -140.605036 
L 207.370093 -139.701446 
L 207.410066 -138.797856 
L 207.457709 -137.894265 
L 207.518174 -136.990675 
L 207.596842 -136.087084 
L 207.699166 -135.183494 
L 207.8305 -134.279903 
L 207.995921 -133.376313 
L 208.200061 -132.472722 
L 208.446937 -131.569132 
L 208.739807 -130.665542 
L 209.081031 -129.761951 
L 209.471967 -128.858361 
L 209.912894 -127.95477 
L 210.402962 -127.05118 
L 210.940188 -126.147589 
L 211.521476 -125.243999 
L 212.142692 -124.340409 
L 212.798763 -123.436818 
L 213.48382 -122.533228 
L 214.191371 -121.629637 
L 214.914504 -120.726047 
L 215.646112 -119.822456 
L 216.37913 -118.918866 
L 217.106784 -118.015276 
L 217.82283 -117.111685 
L 218.521786 -116.208095 
L 219.199137 -115.304504 
L 219.851509 -114.400914 
L 220.476803 -113.497323 
L 221.074281 -112.593733 
L 221.6446 -111.690143 
L 222.189792 -110.786552 
L 222.713184 -109.882962 
L 223.219272 -108.979371 
L 223.713546 -108.075781 
L 224.202269 -107.17219 
L 224.692232 -106.2686 
L 225.190487 -105.36501 
L 225.704074 -104.461419 
L 226.239746 -103.557829 
L 226.80372 -102.654238 
L 227.401444 -101.750648 
L 228.037409 -100.847057 
L 228.714995 -99.943467 
L 229.43637 -99.039876 
L 230.202436 -98.136286 
L 231.012815 -97.232696 
L 231.86589 -96.329105 
L 232.758877 -95.425515 
L 233.687926 -94.521924 
L 234.648248 -93.618334 
L 235.634256 -92.714743 
L 236.639704 -91.811153 
L 237.657825 -90.907563 
L 238.681466 -90.003972 
L 239.703194 -89.100382 
L 240.715393 -88.196791 
L 241.710336 -87.293201 
L 242.680243 -86.38961 
L 243.617322 -85.48602 
L 244.513791 -84.58243 
L 245.361904 -83.678839 
L 246.153972 -82.775249 
L 246.882384 -81.871658 
L 247.539644 -80.968068 
L 248.118423 -80.064477 
L 248.611615 -79.160887 
L 249.012429 -78.257297 
L 249.314479 -77.353706 
L 249.511904 -76.450116 
L 249.599486 -75.546525 
L 249.572779 -74.642935 
L 249.428236 -73.739344 
L 249.163331 -72.835754 
L 248.77666 -71.932164 
L 248.268028 -71.028573 
L 247.63851 -70.124983 
L 246.890481 -69.221392 
L 246.027613 -68.317802 
L 245.054849 -67.414211 
L 243.978329 -66.510621 
L 242.805306 -65.607031 
L 241.544019 -64.70344 
L 240.20356 -63.79985 
L 238.793716 -62.896259 
L 237.324808 -61.992669 
L 235.807521 -61.089078 
L 234.252742 -60.185488 
L 232.671399 -59.281897 
L 231.074315 -58.378307 
L 229.472069 -57.474717 
L 227.874877 -56.571126 
L 226.292484 -55.667536 
L 224.734072 -54.763945 
L 223.208185 -53.860355 
z
" id="m56c0afba49" style="stroke:#999999;stroke-width:2;"/>
    </defs>
    <g clip-path="url(#p64625a9c5e)">
     <use style="fill:#ffffff;stroke:#999999;stroke-width:2;" x="0" xlink:href="#m56c0afba49" y="246.509673"/>
    </g>
   </g>
   <g id="PathCollection_1"/>
   <g id="PathCollection_2"/>
   <g id="PathCollection_3"/>
   <g id="PathCollection_4"/>
   <g id="PathCollection_5"/>
   <g id="PathCollection_6"/>
   <g id="PathCollection_7"/>
   <g id="patch_3">
    <path d="M 34.150781 209.34811 
L 34.150781 19.77 
" style="fill:none;stroke:#262626;stroke-linecap:square;stroke-linejoin:miter;stroke-width:1.25;"/>
   </g>
   <g id="patch_4">
    <path d="M 34.150781 209.34811 
L 260.938891 209.34811 
" style="fill:none;stroke:#262626;stroke-linecap:square;stroke-linejoin:miter;stroke-width:1.25;"/>
   </g>
   <g id="PathCollection_8">
    <defs>
     <path d="M 0 2.5 
C 0.663008 2.5 1.29895 2.236584 1.767767 1.767767 
C 2.236584 1.29895 2.5 0.663008 2.5 -0 
C 2.5 -0.663008 2.236584 -1.29895 1.767767 -1.767767 
C 1.29895 -2.236584 0.663008 -2.5 0 -2.5 
C -0.663008 -2.5 -1.29895 -2.236584 -1.767767 -1.767767 
C -2.236584 -1.29895 -2.5 -0.663008 -2.5 0 
C -2.5 0.663008 -2.236584 1.29895 -1.767767 1.767767 
C -1.29895 2.236584 -0.663008 2.5 0 2.5 
z
" id="C0_0_7868dca277"/>
    </defs>
    <g clip-path="url(#p64625a9c5e)">
     <use style="fill:#4c72b0;fill-opacity:0.8;" x="92.528507" xlink:href="#C0_0_7868dca277" y="169.396127"/>
    </g>
    <g clip-path="url(#p64625a9c5e)">
     <use style="fill:#4c72b0;fill-opacity:0.8;" x="79.66781" xlink:href="#C0_0_7868dca277" y="200.59797"/>
    </g>
    <g clip-path="url(#p64625a9c5e)">
     <use style="fill:#4c72b0;fill-opacity:0.8;" x="83.200206" xlink:href="#C0_0_7868dca277" y="200.730923"/>
    </g>
    <g clip-path="url(#p64625a9c5e)">
     <use style="fill:#4c72b0;fill-opacity:0.8;" x="91.140726" xlink:href="#C0_0_7868dca277" y="172.047071"/>
    </g>
    <g clip-path="url(#p64625a9c5e)">
     <use style="fill:#4c72b0;fill-opacity:0.8;" x="86.742769" xlink:href="#C0_0_7868dca277" y="155.021193"/>
    </g>
    <g clip-path="url(#p64625a9c5e)">
     <use style="fill:#4c72b0;fill-opacity:0.8;" x="87.939627" xlink:href="#C0_0_7868dca277" y="183.084486"/>
    </g>
    <g clip-path="url(#p64625a9c5e)">
     <use style="fill:#8172b3;fill-opacity:0.8;" x="80.725202" xlink:href="#C0_0_7868dca277" y="160.423466"/>
    </g>
    <g clip-path="url(#p64625a9c5e)">
     <use style="fill:#8172b3;fill-opacity:0.8;" x="83.53596" xlink:href="#C0_0_7868dca277" y="156.295808"/>
    </g>
    <g clip-path="url(#p64625a9c5e)">
     <use style="fill:#8172b3;fill-opacity:0.8;" x="99.852321" xlink:href="#C0_0_7868dca277" y="164.140913"/>
    </g>
    <g clip-path="url(#p64625a9c5e)">
     <use style="fill:#8172b3;fill-opacity:0.8;" x="87.070272" xlink:href="#C0_0_7868dca277" y="115.113464"/>
    </g>
    <g clip-path="url(#p64625a9c5e)">
     <use style="fill:#8172b3;fill-opacity:0.8;" x="91.29751" xlink:href="#C0_0_7868dca277" y="130.943977"/>
    </g>
    <g clip-path="url(#p64625a9c5e)">
     <use style="fill:#8172b3;fill-opacity:0.8;" x="96.890651" xlink:href="#C0_0_7868dca277" y="152.639695"/>
    </g>
    <g clip-path="url(#p64625a9c5e)">
     <use style="fill:#8172b3;fill-opacity:0.8;" x="88.090215" xlink:href="#C0_0_7868dca277" y="149.053652"/>
    </g>
    <g clip-path="url(#p64625a9c5e)">
     <use style="fill:#8172b3;fill-opacity:0.8;" x="80.672594" xlink:href="#C0_0_7868dca277" y="28.387187"/>
    </g>
    <g clip-path="url(#p64625a9c5e)">
     <use style="fill:#da8bc3;fill-opacity:0.8;" x="97.660841" xlink:href="#C0_0_7868dca277" y="139.99007"/>
    </g>
    <g clip-path="url(#p64625a9c5e)">
     <use style="fill:#da8bc3;fill-opacity:0.8;" x="81.418951" xlink:href="#C0_0_7868dca277" y="141.721798"/>
    </g>
    <g clip-path="url(#p64625a9c5e)">
     <use style="fill:#da8bc3;fill-opacity:0.8;" x="87.323869" xlink:href="#C0_0_7868dca277" y="130.733066"/>
    </g>
    <g clip-path="url(#p64625a9c5e)">
     <use style="fill:#da8bc3;fill-opacity:0.8;" x="99.973872" xlink:href="#C0_0_7868dca277" y="145.98932"/>
    </g>
    <g clip-path="url(#p64625a9c5e)">
     <use style="fill:#da8bc3;fill-opacity:0.8;" x="102.018684" xlink:href="#C0_0_7868dca277" y="129.029861"/>
    </g>
    <g clip-path="url(#p64625a9c5e)">
     <use style="fill:#da8bc3;fill-opacity:0.8;" x="85.349338" xlink:href="#C0_0_7868dca277" y="109.894274"/>
    </g>
    <g clip-path="url(#p64625a9c5e)">
     <use style="fill:#da8bc3;fill-opacity:0.8;" x="86.478634" xlink:href="#C0_0_7868dca277" y="102.542339"/>
    </g>
    <g clip-path="url(#p64625a9c5e)">
     <use style="fill:#da8bc3;fill-opacity:0.8;" x="90.534657" xlink:href="#C0_0_7868dca277" y="133.789127"/>
    </g>
   </g>
   <g id="PathCollection_9">
    <defs>
     <path d="M 0 2.5 
C 0.663008 2.5 1.29895 2.236584 1.767767 1.767767 
C 2.236584 1.29895 2.5 0.663008 2.5 -0 
C 2.5 -0.663008 2.236584 -1.29895 1.767767 -1.767767 
C 1.29895 -2.236584 0.663008 -2.5 0 -2.5 
C -0.663008 -2.5 -1.29895 -2.236584 -1.767767 -1.767767 
C -2.236584 -1.29895 -2.5 -0.663008 -2.5 0 
C -2.5 0.663008 -2.236584 1.29895 -1.767767 1.767767 
C -1.29895 2.236584 -0.663008 2.5 0 2.5 
z
" id="C1_0_6e47593203"/>
    </defs>
    <g clip-path="url(#p64625a9c5e)">
     <use style="fill:#dd8452;fill-opacity:0.8;" x="206.631686" xlink:href="#C1_0_6e47593203" y="175.732575"/>
    </g>
    <g clip-path="url(#p64625a9c5e)">
     <use style="fill:#dd8452;fill-opacity:0.8;" x="211.075115" xlink:href="#C1_0_6e47593203" y="175.03244"/>
    </g>
    <g clip-path="url(#p64625a9c5e)">
     <use style="fill:#dd8452;fill-opacity:0.8;" x="210.960507" xlink:href="#C1_0_6e47593203" y="184.285886"/>
    </g>
    <g clip-path="url(#p64625a9c5e)">
     <use style="fill:#dd8452;fill-opacity:0.8;" x="213.402629" xlink:href="#C1_0_6e47593203" y="146.582546"/>
    </g>
    <g clip-path="url(#p64625a9c5e)">
     <use style="fill:#dd8452;fill-opacity:0.8;" x="194.552782" xlink:href="#C1_0_6e47593203" y="184.376002"/>
    </g>
    <g clip-path="url(#p64625a9c5e)">
     <use style="fill:#dd8452;fill-opacity:0.8;" x="212.277295" xlink:href="#C1_0_6e47593203" y="154.533995"/>
    </g>
    <g clip-path="url(#p64625a9c5e)">
     <use style="fill:#dd8452;fill-opacity:0.8;" x="214.46299" xlink:href="#C1_0_6e47593203" y="174.02196"/>
    </g>
    <g clip-path="url(#p64625a9c5e)">
     <use style="fill:#dd8452;fill-opacity:0.8;" x="194.819995" xlink:href="#C1_0_6e47593203" y="168.372616"/>
    </g>
    <g clip-path="url(#p64625a9c5e)">
     <use style="fill:#dd8452;fill-opacity:0.8;" x="195.279637" xlink:href="#C1_0_6e47593203" y="157.830489"/>
    </g>
    <g clip-path="url(#p64625a9c5e)">
     <use style="fill:#dd8452;fill-opacity:0.8;" x="211.628097" xlink:href="#C1_0_6e47593203" y="145.54181"/>
    </g>
    <g clip-path="url(#p64625a9c5e)">
     <use style="fill:#55a868;fill-opacity:0.8;" x="203.946238" xlink:href="#C1_0_6e47593203" y="178.075765"/>
    </g>
    <g clip-path="url(#p64625a9c5e)">
     <use style="fill:#55a868;fill-opacity:0.8;" x="196.976809" xlink:href="#C1_0_6e47593203" y="127.092541"/>
    </g>
    <g clip-path="url(#p64625a9c5e)">
     <use style="fill:#55a868;fill-opacity:0.8;" x="212.50076" xlink:href="#C1_0_6e47593203" y="180.715585"/>
    </g>
    <g clip-path="url(#p64625a9c5e)">
     <use style="fill:#55a868;fill-opacity:0.8;" x="213.442114" xlink:href="#C1_0_6e47593203" y="192.649318"/>
    </g>
    <g clip-path="url(#p64625a9c5e)">
     <use style="fill:#55a868;fill-opacity:0.8;" x="199.916077" xlink:href="#C1_0_6e47593203" y="168.336374"/>
    </g>
    <g clip-path="url(#p64625a9c5e)">
     <use style="fill:#55a868;fill-opacity:0.8;" x="199.089608" xlink:href="#C1_0_6e47593203" y="167.008993"/>
    </g>
    <g clip-path="url(#p64625a9c5e)">
     <use style="fill:#55a868;fill-opacity:0.8;" x="215.385408" xlink:href="#C1_0_6e47593203" y="179.398143"/>
    </g>
    <g clip-path="url(#p64625a9c5e)">
     <use style="fill:#55a868;fill-opacity:0.8;" x="197.666032" xlink:href="#C1_0_6e47593203" y="175.353751"/>
    </g>
    <g clip-path="url(#p64625a9c5e)">
     <use style="fill:#c44e52;fill-opacity:0.8;" x="200.13981" xlink:href="#C1_0_6e47593203" y="186.386629"/>
    </g>
    <g clip-path="url(#p64625a9c5e)">
     <use style="fill:#c44e52;fill-opacity:0.8;" x="195.49534" xlink:href="#C1_0_6e47593203" y="176.80858"/>
    </g>
    <g clip-path="url(#p64625a9c5e)">
     <use style="fill:#c44e52;fill-opacity:0.8;" x="194.177417" xlink:href="#C1_0_6e47593203" y="166.415192"/>
    </g>
    <g clip-path="url(#p64625a9c5e)">
     <use style="fill:#c44e52;fill-opacity:0.8;" x="211.465054" xlink:href="#C1_0_6e47593203" y="155.988472"/>
    </g>
    <g clip-path="url(#p64625a9c5e)">
     <use style="fill:#c44e52;fill-opacity:0.8;" x="202.232463" xlink:href="#C1_0_6e47593203" y="103.193865"/>
    </g>
    <g clip-path="url(#p64625a9c5e)">
     <use style="fill:#c44e52;fill-opacity:0.8;" x="214.591235" xlink:href="#C1_0_6e47593203" y="133.469586"/>
    </g>
    <g clip-path="url(#p64625a9c5e)">
     <use style="fill:#c44e52;fill-opacity:0.8;" x="200.027002" xlink:href="#C1_0_6e47593203" y="133.04786"/>
    </g>
    <g clip-path="url(#p64625a9c5e)">
     <use style="fill:#c44e52;fill-opacity:0.8;" x="214.215859" xlink:href="#C1_0_6e47593203" y="136.681098"/>
    </g>
    <g clip-path="url(#p64625a9c5e)">
     <use style="fill:#937860;fill-opacity:0.8;" x="200.763403" xlink:href="#C1_0_6e47593203" y="191.904388"/>
    </g>
    <g clip-path="url(#p64625a9c5e)">
     <use style="fill:#937860;fill-opacity:0.8;" x="197.749386" xlink:href="#C1_0_6e47593203" y="158.881993"/>
    </g>
    <g clip-path="url(#p64625a9c5e)">
     <use style="fill:#937860;fill-opacity:0.8;" x="194.9655" xlink:href="#C1_0_6e47593203" y="138.506373"/>
    </g>
    <g clip-path="url(#p64625a9c5e)">
     <use style="fill:#937860;fill-opacity:0.8;" x="213.769376" xlink:href="#C1_0_6e47593203" y="166.873108"/>
    </g>
    <g clip-path="url(#p64625a9c5e)">
     <use style="fill:#937860;fill-opacity:0.8;" x="212.763618" xlink:href="#C1_0_6e47593203" y="169.869176"/>
    </g>
    <g clip-path="url(#p64625a9c5e)">
     <use style="fill:#937860;fill-opacity:0.8;" x="198.083423" xlink:href="#C1_0_6e47593203" y="162.862773"/>
    </g>
    <g clip-path="url(#p64625a9c5e)">
     <use style="fill:#937860;fill-opacity:0.8;" x="215.231898" xlink:href="#C1_0_6e47593203" y="152.855275"/>
    </g>
    <g clip-path="url(#p64625a9c5e)">
     <use style="fill:#937860;fill-opacity:0.8;" x="195.344113" xlink:href="#C1_0_6e47593203" y="159.285674"/>
    </g>
   </g>
   <g id="text_11">
    <!-- KNL1, $p_{adj}$ = .225 -->
    <g style="fill:#262626;" transform="translate(34.150781 13.77)scale(0.09 -0.09)">
     <defs>
      <path d="M 7.328125 0 
L 7.328125 71.578125 
L 16.796875 71.578125 
L 16.796875 36.078125 
L 52.34375 71.578125 
L 65.1875 71.578125 
L 35.15625 42.578125 
L 66.5 0 
L 54 0 
L 28.515625 36.234375 
L 16.796875 24.8125 
L 16.796875 0 
z
" id="ArialMT-75"/>
      <path d="M 7.625 0 
L 7.625 71.578125 
L 17.328125 71.578125 
L 54.9375 15.375 
L 54.9375 71.578125 
L 64.015625 71.578125 
L 64.015625 0 
L 54.296875 0 
L 16.703125 56.25 
L 16.703125 0 
z
" id="ArialMT-78"/>
      <path d="M 7.328125 0 
L 7.328125 71.578125 
L 16.796875 71.578125 
L 16.796875 8.453125 
L 52.046875 8.453125 
L 52.046875 0 
z
" id="ArialMT-76"/>
      <path d="M 8.890625 0 
L 8.890625 10.015625 
L 18.890625 10.015625 
L 18.890625 0 
Q 18.890625 -5.515625 16.9375 -8.90625 
Q 14.984375 -12.3125 10.75 -14.15625 
L 8.296875 -10.40625 
Q 11.078125 -9.1875 12.390625 -6.8125 
Q 13.71875 -4.4375 13.875 0 
z
" id="ArialMT-44"/>
      <path d="M 49.609375 33.6875 
Q 49.609375 40.875 46.484375 44.671875 
Q 43.359375 48.484375 37.5 48.484375 
Q 33.5 48.484375 29.859375 46.4375 
Q 26.21875 44.390625 23.390625 40.484375 
Q 20.609375 36.625 18.9375 31.15625 
Q 17.28125 25.6875 17.28125 20.3125 
Q 17.28125 13.484375 20.40625 9.796875 
Q 23.53125 6.109375 29.296875 6.109375 
Q 33.546875 6.109375 37.1875 8.109375 
Q 40.828125 10.109375 43.40625 13.921875 
Q 46.1875 17.921875 47.890625 23.34375 
Q 49.609375 28.765625 49.609375 33.6875 
z
M 21.78125 46.390625 
Q 25.390625 51.125 30.296875 53.5625 
Q 35.203125 56 41.21875 56 
Q 49.609375 56 54.25 50.5 
Q 58.890625 45.015625 58.890625 35.109375 
Q 58.890625 27 56 19.65625 
Q 53.125 12.3125 47.703125 6.5 
Q 44.09375 2.640625 39.546875 0.609375 
Q 35.015625 -1.421875 29.984375 -1.421875 
Q 24.171875 -1.421875 20.21875 1 
Q 16.265625 3.421875 14.3125 8.203125 
L 8.6875 -20.796875 
L -0.296875 -20.796875 
L 14.40625 54.6875 
L 23.390625 54.6875 
z
" id="DejaVuSans-Oblique-112"/>
      <path d="M 53.71875 31.203125 
L 47.609375 0 
L 38.625 0 
L 40.28125 8.296875 
Q 36.328125 3.421875 31.265625 1 
Q 26.21875 -1.421875 20.015625 -1.421875 
Q 13.03125 -1.421875 8.5625 2.84375 
Q 4.109375 7.125 4.109375 13.8125 
Q 4.109375 23.390625 11.75 28.953125 
Q 19.390625 34.515625 32.8125 34.515625 
L 45.3125 34.515625 
L 45.796875 36.921875 
Q 45.90625 37.3125 45.953125 37.765625 
Q 46 38.234375 46 39.203125 
Q 46 43.5625 42.453125 45.96875 
Q 38.921875 48.390625 32.515625 48.390625 
Q 28.125 48.390625 23.5 47.265625 
Q 18.890625 46.140625 14.015625 43.890625 
L 15.578125 52.203125 
Q 20.65625 54.109375 25.515625 55.046875 
Q 30.375 56 34.90625 56 
Q 44.578125 56 49.625 51.796875 
Q 54.6875 47.609375 54.6875 39.59375 
Q 54.6875 37.984375 54.4375 35.8125 
Q 54.203125 33.640625 53.71875 31.203125 
z
M 44 27.484375 
L 35.015625 27.484375 
Q 23.96875 27.484375 18.671875 24.53125 
Q 13.375 21.578125 13.375 15.375 
Q 13.375 11.078125 16.078125 8.640625 
Q 18.796875 6.203125 23.578125 6.203125 
Q 30.90625 6.203125 36.375 11.453125 
Q 41.84375 16.703125 43.609375 25.484375 
z
" id="DejaVuSans-Oblique-97"/>
      <path d="M 41.796875 8.203125 
Q 38.1875 3.46875 33.25 1.015625 
Q 28.328125 -1.421875 22.3125 -1.421875 
Q 14.109375 -1.421875 9.34375 4.171875 
Q 4.59375 9.765625 4.59375 19.484375 
Q 4.59375 27.59375 7.46875 34.9375 
Q 10.359375 42.28125 15.828125 48.09375 
Q 19.4375 51.953125 23.96875 53.96875 
Q 28.515625 56 33.5 56 
Q 38.765625 56 42.796875 53.453125 
Q 46.828125 50.921875 49.03125 46.1875 
L 54.890625 75.984375 
L 63.921875 75.984375 
L 49.125 0 
L 40.09375 0 
z
M 13.921875 21.09375 
Q 13.921875 14.015625 17.109375 10.0625 
Q 20.3125 6.109375 25.984375 6.109375 
Q 30.171875 6.109375 33.765625 8.125 
Q 37.359375 10.15625 40.09375 14.109375 
Q 42.96875 18.21875 44.625 23.578125 
Q 46.296875 28.953125 46.296875 34.1875 
Q 46.296875 40.96875 43.09375 44.765625 
Q 39.890625 48.578125 34.28125 48.578125 
Q 30.03125 48.578125 26.359375 46.578125 
Q 22.703125 44.578125 20.125 40.828125 
Q 17.28125 36.765625 15.59375 31.390625 
Q 13.921875 26.03125 13.921875 21.09375 
z
" id="DejaVuSans-Oblique-100"/>
      <path d="M 14.5 54.6875 
L 23.484375 54.6875 
L 12.703125 -0.984375 
L 12.640625 -1.21875 
Q 10.84375 -10.546875 8.5 -14.015625 
Q 6.296875 -17.28125 2.0625 -19.03125 
Q -2.15625 -20.796875 -7.90625 -20.796875 
L -11.28125 -20.796875 
L -9.8125 -13.1875 
L -7.515625 -13.1875 
Q -2.25 -13.1875 -0.015625 -10.984375 
Q 2.203125 -8.796875 3.71875 -0.984375 
z
M 18.703125 75.984375 
L 27.6875 75.984375 
L 25.484375 64.59375 
L 16.5 64.59375 
z
" id="DejaVuSans-Oblique-106"/>
      <path d="M 52.828125 42.09375 
L 5.5625 42.09375 
L 5.5625 50.296875 
L 52.828125 50.296875 
z
M 52.828125 20.359375 
L 5.5625 20.359375 
L 5.5625 28.5625 
L 52.828125 28.5625 
z
" id="ArialMT-61"/>
      <path d="M 9.078125 0 
L 9.078125 10.015625 
L 19.09375 10.015625 
L 19.09375 0 
z
" id="ArialMT-46"/>
     </defs>
     <use transform="translate(0 0.125)" xlink:href="#ArialMT-75"/>
     <use transform="translate(66.699219 0.125)" xlink:href="#ArialMT-78"/>
     <use transform="translate(138.916016 0.125)" xlink:href="#ArialMT-76"/>
     <use transform="translate(194.53125 0.125)" xlink:href="#ArialMT-49"/>
     <use transform="translate(250.146484 0.125)" xlink:href="#ArialMT-44"/>
     <use transform="translate(277.929688 0.125)" xlink:href="#ArialMT-32"/>
     <use transform="translate(305.712891 0.125)" xlink:href="#DejaVuSans-Oblique-112"/>
     <use transform="translate(369.189453 -16.28125)scale(0.7)" xlink:href="#DejaVuSans-Oblique-97"/>
     <use transform="translate(412.084961 -16.28125)scale(0.7)" xlink:href="#DejaVuSans-Oblique-100"/>
     <use transform="translate(456.518555 -16.28125)scale(0.7)" xlink:href="#DejaVuSans-Oblique-106"/>
     <use transform="translate(478.701172 0.125)" xlink:href="#ArialMT-32"/>
     <use transform="translate(506.484375 0.125)" xlink:href="#ArialMT-61"/>
     <use transform="translate(564.882812 0.125)" xlink:href="#ArialMT-32"/>
     <use transform="translate(592.666016 0.125)" xlink:href="#ArialMT-46"/>
     <use transform="translate(620.449219 0.125)" xlink:href="#ArialMT-50"/>
     <use transform="translate(676.064453 0.125)" xlink:href="#ArialMT-50"/>
     <use transform="translate(731.679688 0.125)" xlink:href="#ArialMT-53"/>
    </g>
   </g>
  </g>
  <g id="axes_2">
   <g id="patch_5">
    <path d="M 270.658891 209.34811 
L 497.447002 209.34811 
L 497.447002 19.77 
L 270.658891 19.77 
z
" style="fill:#ffffff;"/>
   </g>
   <g id="matplotlib.axis_3">
    <g id="xtick_3">
     <g id="text_12">
      <!-- BEVA -->
      <g style="fill:#444444;" transform="translate(315.681232 225.290141)scale(0.09 -0.09)">
       <defs>
        <path d="M 7.328125 0 
L 7.328125 71.578125 
L 34.1875 71.578125 
Q 42.390625 71.578125 47.34375 69.40625 
Q 52.296875 67.234375 55.09375 62.71875 
Q 57.90625 58.203125 57.90625 53.265625 
Q 57.90625 48.6875 55.421875 44.625 
Q 52.9375 40.578125 47.90625 38.09375 
Q 54.390625 36.1875 57.875 31.59375 
Q 61.375 27 61.375 20.75 
Q 61.375 15.71875 59.25 11.390625 
Q 57.125 7.078125 54 4.734375 
Q 50.875 2.390625 46.15625 1.1875 
Q 41.453125 0 34.625 0 
z
M 16.796875 41.5 
L 32.28125 41.5 
Q 38.578125 41.5 41.3125 42.328125 
Q 44.921875 43.40625 46.75 45.890625 
Q 48.578125 48.390625 48.578125 52.15625 
Q 48.578125 55.71875 46.875 58.421875 
Q 45.171875 61.140625 41.984375 62.140625 
Q 38.8125 63.140625 31.109375 63.140625 
L 16.796875 63.140625 
z
M 16.796875 8.453125 
L 34.625 8.453125 
Q 39.203125 8.453125 41.0625 8.796875 
Q 44.34375 9.375 46.53125 10.734375 
Q 48.734375 12.109375 50.140625 14.71875 
Q 51.5625 17.328125 51.5625 20.75 
Q 51.5625 24.75 49.515625 27.703125 
Q 47.46875 30.671875 43.828125 31.859375 
Q 40.1875 33.0625 33.34375 33.0625 
L 16.796875 33.0625 
z
" id="ArialMT-66"/>
        <path d="M 7.90625 0 
L 7.90625 71.578125 
L 59.671875 71.578125 
L 59.671875 63.140625 
L 17.390625 63.140625 
L 17.390625 41.21875 
L 56.984375 41.21875 
L 56.984375 32.8125 
L 17.390625 32.8125 
L 17.390625 8.453125 
L 61.328125 8.453125 
L 61.328125 0 
z
" id="ArialMT-69"/>
        <path d="M 28.171875 0 
L 0.4375 71.578125 
L 10.6875 71.578125 
L 29.296875 19.578125 
Q 31.546875 13.328125 33.0625 7.859375 
Q 34.71875 13.71875 36.921875 19.578125 
L 56.25 71.578125 
L 65.921875 71.578125 
L 37.890625 0 
z
" id="ArialMT-86"/>
        <path d="M -0.140625 0 
L 27.34375 71.578125 
L 37.546875 71.578125 
L 66.84375 0 
L 56.0625 0 
L 47.703125 21.6875 
L 17.78125 21.6875 
L 9.90625 0 
z
M 20.515625 29.390625 
L 44.78125 29.390625 
L 37.3125 49.21875 
Q 33.890625 58.25 32.234375 64.0625 
Q 30.859375 57.171875 28.375 50.390625 
z
" id="ArialMT-65"/>
       </defs>
       <use xlink:href="#ArialMT-66"/>
       <use x="66.699219" xlink:href="#ArialMT-69"/>
       <use x="133.398438" xlink:href="#ArialMT-86"/>
       <use x="192.722656" xlink:href="#ArialMT-65"/>
      </g>
     </g>
    </g>
    <g id="xtick_4">
     <g id="text_13">
      <!-- CTRL -->
      <g style="fill:#444444;" transform="translate(428.999349 225.290141)scale(0.09 -0.09)">
       <defs>
        <path d="M 7.859375 0 
L 7.859375 71.578125 
L 39.59375 71.578125 
Q 49.171875 71.578125 54.140625 69.640625 
Q 59.125 67.71875 62.109375 62.828125 
Q 65.09375 57.953125 65.09375 52.046875 
Q 65.09375 44.4375 60.15625 39.203125 
Q 55.21875 33.984375 44.921875 32.5625 
Q 48.6875 30.765625 50.640625 29 
Q 54.78125 25.203125 58.5 19.484375 
L 70.953125 0 
L 59.03125 0 
L 49.5625 14.890625 
Q 45.40625 21.34375 42.71875 24.75 
Q 40.046875 28.171875 37.921875 29.53125 
Q 35.796875 30.90625 33.59375 31.453125 
Q 31.984375 31.78125 28.328125 31.78125 
L 17.328125 31.78125 
L 17.328125 0 
z
M 17.328125 39.984375 
L 37.703125 39.984375 
Q 44.1875 39.984375 47.84375 41.328125 
Q 51.515625 42.671875 53.421875 45.625 
Q 55.328125 48.578125 55.328125 52.046875 
Q 55.328125 57.125 51.640625 60.390625 
Q 47.953125 63.671875 39.984375 63.671875 
L 17.328125 63.671875 
z
" id="ArialMT-82"/>
       </defs>
       <use xlink:href="#ArialMT-67"/>
       <use x="72.216797" xlink:href="#ArialMT-84"/>
       <use x="133.300781" xlink:href="#ArialMT-82"/>
       <use x="205.517578" xlink:href="#ArialMT-76"/>
      </g>
     </g>
    </g>
    <g id="text_14">
     <!-- Condition -->
     <g style="fill:#444444;" transform="translate(365.04115 237.520923)scale(0.09 -0.09)">
      <use xlink:href="#ArialMT-67"/>
      <use x="72.216797" xlink:href="#ArialMT-111"/>
      <use x="127.832031" xlink:href="#ArialMT-110"/>
      <use x="183.447266" xlink:href="#ArialMT-100"/>
      <use x="239.0625" xlink:href="#ArialMT-105"/>
      <use x="261.279297" xlink:href="#ArialMT-116"/>
      <use x="289.0625" xlink:href="#ArialMT-105"/>
      <use x="311.279297" xlink:href="#ArialMT-111"/>
      <use x="366.894531" xlink:href="#ArialMT-110"/>
     </g>
    </g>
   </g>
   <g id="matplotlib.axis_4">
    <g id="ytick_7"/>
    <g id="ytick_8"/>
    <g id="ytick_9"/>
    <g id="ytick_10"/>
    <g id="ytick_11"/>
    <g id="ytick_12"/>
   </g>
   <g id="PolyCollection_3">
    <defs>
     <path d="M 347.52632 -45.778749 
L 307.185518 -45.778749 
L 306.013316 -46.643572 
L 304.830483 -47.508395 
L 303.640696 -48.373218 
L 302.447693 -49.238041 
L 301.255268 -50.102863 
L 300.067264 -50.967686 
L 298.887563 -51.832509 
L 297.720084 -52.697332 
L 296.56877 -53.562155 
L 295.437576 -54.426978 
L 294.330451 -55.2918 
L 293.25132 -56.156623 
L 292.204056 -57.021446 
L 291.192449 -57.886269 
L 290.220173 -58.751092 
L 289.290749 -59.615914 
L 288.407502 -60.480737 
L 287.573525 -61.34556 
L 286.791638 -62.210383 
L 286.064351 -63.075206 
L 285.393833 -63.940029 
L 284.781882 -64.804851 
L 284.229909 -65.669674 
L 283.738922 -66.534497 
L 283.309524 -67.39932 
L 282.941913 -68.264143 
L 282.635898 -69.128965 
L 282.390911 -69.993788 
L 282.206037 -70.858611 
L 282.080038 -71.723434 
L 282.011386 -72.588257 
L 281.998297 -73.45308 
L 282.038759 -74.317902 
L 282.130569 -75.182725 
L 282.271356 -76.047548 
L 282.45861 -76.912371 
L 282.689699 -77.777194 
L 282.961893 -78.642016 
L 283.272372 -79.506839 
L 283.618244 -80.371662 
L 283.996551 -81.236485 
L 284.404287 -82.101308 
L 284.838404 -82.966131 
L 285.295833 -83.830953 
L 285.773505 -84.695776 
L 286.268369 -85.560599 
L 286.777433 -86.425422 
L 287.297789 -87.290245 
L 287.826662 -88.155068 
L 288.361448 -89.01989 
L 288.899764 -89.884713 
L 289.439493 -90.749536 
L 289.978828 -91.614359 
L 290.516312 -92.479182 
L 291.05087 -93.344004 
L 291.581836 -94.208827 
L 292.108964 -95.07365 
L 292.632425 -95.938473 
L 293.1528 -96.803296 
L 293.67105 -97.668119 
L 294.188474 -98.532941 
L 294.706662 -99.397764 
L 295.227425 -100.262587 
L 295.75273 -101.12741 
L 296.284618 -101.992233 
L 296.825128 -102.857055 
L 297.376215 -103.721878 
L 297.939674 -104.586701 
L 298.517072 -105.451524 
L 299.109687 -106.316347 
L 299.71846 -107.18117 
L 300.343954 -108.045992 
L 300.98634 -108.910815 
L 301.64538 -109.775638 
L 302.320439 -110.640461 
L 303.0105 -111.505284 
L 303.7142 -112.370106 
L 304.429868 -113.234929 
L 305.155575 -114.099752 
L 305.88919 -114.964575 
L 306.628438 -115.829398 
L 307.370962 -116.694221 
L 308.114379 -117.559043 
L 308.856336 -118.423866 
L 309.594561 -119.288689 
L 310.326906 -120.153512 
L 311.051381 -121.018335 
L 311.766186 -121.883158 
L 312.469723 -122.74798 
L 313.160612 -123.612803 
L 313.837688 -124.477626 
L 314.499999 -125.342449 
L 315.146788 -126.207272 
L 315.777479 -127.072094 
L 316.391653 -127.936917 
L 316.989022 -128.80174 
L 317.569402 -129.666563 
L 318.132687 -130.531386 
L 318.678823 -131.396209 
L 336.033015 -131.396209 
L 336.033015 -131.396209 
L 336.579151 -130.531386 
L 337.142437 -129.666563 
L 337.722816 -128.80174 
L 338.320185 -127.936917 
L 338.934359 -127.072094 
L 339.56505 -126.207272 
L 340.211839 -125.342449 
L 340.87415 -124.477626 
L 341.551226 -123.612803 
L 342.242115 -122.74798 
L 342.945653 -121.883158 
L 343.660457 -121.018335 
L 344.384932 -120.153512 
L 345.117277 -119.288689 
L 345.855502 -118.423866 
L 346.597459 -117.559043 
L 347.340876 -116.694221 
L 348.0834 -115.829398 
L 348.822648 -114.964575 
L 349.556263 -114.099752 
L 350.28197 -113.234929 
L 350.997638 -112.370106 
L 351.701338 -111.505284 
L 352.391399 -110.640461 
L 353.066458 -109.775638 
L 353.725498 -108.910815 
L 354.367884 -108.045992 
L 354.993379 -107.18117 
L 355.602151 -106.316347 
L 356.194766 -105.451524 
L 356.772164 -104.586701 
L 357.335623 -103.721878 
L 357.88671 -102.857055 
L 358.42722 -101.992233 
L 358.959108 -101.12741 
L 359.484413 -100.262587 
L 360.005176 -99.397764 
L 360.523364 -98.532941 
L 361.040788 -97.668119 
L 361.559038 -96.803296 
L 362.079413 -95.938473 
L 362.602874 -95.07365 
L 363.130002 -94.208827 
L 363.660968 -93.344004 
L 364.195527 -92.479182 
L 364.73301 -91.614359 
L 365.272345 -90.749536 
L 365.812074 -89.884713 
L 366.35039 -89.01989 
L 366.885176 -88.155068 
L 367.414049 -87.290245 
L 367.934405 -86.425422 
L 368.443469 -85.560599 
L 368.938333 -84.695776 
L 369.416005 -83.830953 
L 369.873434 -82.966131 
L 370.307551 -82.101308 
L 370.715287 -81.236485 
L 371.093594 -80.371662 
L 371.439466 -79.506839 
L 371.749945 -78.642016 
L 372.022139 -77.777194 
L 372.253228 -76.912371 
L 372.440482 -76.047548 
L 372.581269 -75.182725 
L 372.673079 -74.317902 
L 372.713541 -73.45308 
L 372.700452 -72.588257 
L 372.6318 -71.723434 
L 372.505801 -70.858611 
L 372.320927 -69.993788 
L 372.07594 -69.128965 
L 371.769925 -68.264143 
L 371.402314 -67.39932 
L 370.972916 -66.534497 
L 370.481929 -65.669674 
L 369.929956 -64.804851 
L 369.318005 -63.940029 
L 368.647487 -63.075206 
L 367.9202 -62.210383 
L 367.138313 -61.34556 
L 366.304337 -60.480737 
L 365.42109 -59.615914 
L 364.491665 -58.751092 
L 363.519389 -57.886269 
L 362.507782 -57.021446 
L 361.460518 -56.156623 
L 360.381387 -55.2918 
L 359.274262 -54.426978 
L 358.143068 -53.562155 
L 356.991754 -52.697332 
L 355.824275 -51.832509 
L 354.644574 -50.967686 
L 353.45657 -50.102863 
L 352.264145 -49.238041 
L 351.071142 -48.373218 
L 349.881355 -47.508395 
L 348.698522 -46.643572 
L 347.52632 -45.778749 
z
" id="m7311184d86" style="stroke:#999999;stroke-width:2;"/>
    </defs>
    <g clip-path="url(#p09820219dd)">
     <use style="fill:#ffffff;stroke:#999999;stroke-width:2;" x="0" xlink:href="#m7311184d86" y="246.509673"/>
    </g>
   </g>
   <g id="PolyCollection_4">
    <defs>
     <path d="M 465.18294 -63.425187 
L 416.317008 -63.425187 
L 414.434155 -64.987786 
L 412.577192 -66.550385 
L 410.767261 -68.112984 
L 409.025136 -69.675583 
L 407.370694 -71.238182 
L 405.822413 -72.800781 
L 404.396919 -74.36338 
L 403.108592 -75.925979 
L 401.969266 -77.488578 
L 400.988004 -79.051177 
L 400.170988 -80.613776 
L 399.5215 -82.176375 
L 399.040007 -83.738974 
L 398.724333 -85.301573 
L 398.569921 -86.864172 
L 398.570149 -88.426771 
L 398.716698 -89.98937 
L 398.999955 -91.551969 
L 399.409408 -93.114568 
L 399.934039 -94.677166 
L 400.562678 -96.239765 
L 401.284308 -97.802364 
L 402.088306 -99.364963 
L 402.964618 -100.927562 
L 403.903847 -102.490161 
L 404.897289 -104.05276 
L 405.936889 -105.615359 
L 407.015156 -107.177958 
L 408.125045 -108.740557 
L 409.259821 -110.303156 
L 410.412935 -111.865755 
L 411.577918 -113.428354 
L 412.74832 -114.990953 
L 413.917702 -116.553552 
L 415.079669 -118.116151 
L 416.227976 -119.67875 
L 417.356667 -121.241349 
L 418.460251 -122.803948 
L 419.53389 -124.366547 
L 420.573589 -125.929146 
L 421.576352 -127.491745 
L 422.540304 -129.054344 
L 423.464748 -130.616943 
L 424.350152 -132.179542 
L 425.198075 -133.742141 
L 426.011014 -135.30474 
L 426.792198 -136.867339 
L 427.545334 -138.429938 
L 428.274332 -139.992537 
L 428.983018 -141.555136 
L 429.674873 -143.117735 
L 430.352795 -144.680334 
L 431.018921 -146.242933 
L 431.674505 -147.805532 
L 432.319865 -149.368131 
L 432.954397 -150.93073 
L 433.576651 -152.493329 
L 434.184462 -154.055928 
L 434.775113 -155.618527 
L 435.345538 -157.181126 
L 435.892514 -158.743725 
L 436.412866 -160.306324 
L 436.903639 -161.868923 
L 437.362253 -163.431522 
L 437.78661 -164.994121 
L 438.17517 -166.55672 
L 438.526981 -168.119319 
L 438.841673 -169.681918 
L 439.119423 -171.244517 
L 439.360886 -172.807115 
L 439.567113 -174.369714 
L 439.739463 -175.932313 
L 439.879506 -177.494912 
L 439.988938 -179.057511 
L 440.069501 -180.62011 
L 440.12293 -182.182709 
L 440.150906 -183.745308 
L 440.155044 -185.307907 
L 440.136888 -186.870506 
L 440.097931 -188.433105 
L 440.039653 -189.995704 
L 439.963561 -191.558303 
L 439.871246 -193.120902 
L 439.76443 -194.683501 
L 439.645019 -196.2461 
L 439.515135 -197.808699 
L 439.377147 -199.371298 
L 439.233668 -200.933897 
L 439.087547 -202.496496 
L 438.941833 -204.059095 
L 438.799711 -205.621694 
L 438.664432 -207.184293 
L 438.539222 -208.746892 
L 438.427172 -210.309491 
L 438.33114 -211.87209 
L 438.253639 -213.434689 
L 438.19674 -214.997288 
L 438.161992 -216.559887 
L 438.150355 -218.122486 
L 443.349594 -218.122486 
L 443.349594 -218.122486 
L 443.337956 -216.559887 
L 443.303208 -214.997288 
L 443.246309 -213.434689 
L 443.168808 -211.87209 
L 443.072776 -210.309491 
L 442.960727 -208.746892 
L 442.835516 -207.184293 
L 442.700238 -205.621694 
L 442.558116 -204.059095 
L 442.412401 -202.496496 
L 442.266281 -200.933897 
L 442.122802 -199.371298 
L 441.984813 -197.808699 
L 441.854929 -196.2461 
L 441.735518 -194.683501 
L 441.628703 -193.120902 
L 441.536387 -191.558303 
L 441.460296 -189.995704 
L 441.402017 -188.433105 
L 441.36306 -186.870506 
L 441.344904 -185.307907 
L 441.349042 -183.745308 
L 441.377019 -182.182709 
L 441.430447 -180.62011 
L 441.51101 -179.057511 
L 441.620442 -177.494912 
L 441.760485 -175.932313 
L 441.932835 -174.369714 
L 442.139063 -172.807115 
L 442.380525 -171.244517 
L 442.658275 -169.681918 
L 442.972968 -168.119319 
L 443.324778 -166.55672 
L 443.713338 -164.994121 
L 444.137695 -163.431522 
L 444.596309 -161.868923 
L 445.087083 -160.306324 
L 445.607434 -158.743725 
L 446.15441 -157.181126 
L 446.724835 -155.618527 
L 447.315487 -154.055928 
L 447.923297 -152.493329 
L 448.545551 -150.93073 
L 449.180083 -149.368131 
L 449.825443 -147.805532 
L 450.481027 -146.242933 
L 451.147153 -144.680334 
L 451.825076 -143.117735 
L 452.51693 -141.555136 
L 453.225617 -139.992537 
L 453.954614 -138.429938 
L 454.70775 -136.867339 
L 455.488934 -135.30474 
L 456.301873 -133.742141 
L 457.149797 -132.179542 
L 458.035201 -130.616943 
L 458.959644 -129.054344 
L 459.923596 -127.491745 
L 460.92636 -125.929146 
L 461.966058 -124.366547 
L 463.039697 -122.803948 
L 464.143281 -121.241349 
L 465.271972 -119.67875 
L 466.42028 -118.116151 
L 467.582247 -116.553552 
L 468.751628 -114.990953 
L 469.922031 -113.428354 
L 471.087013 -111.865755 
L 472.240127 -110.303156 
L 473.374903 -108.740557 
L 474.484792 -107.177958 
L 475.563059 -105.615359 
L 476.602659 -104.05276 
L 477.596101 -102.490161 
L 478.535331 -100.927562 
L 479.411642 -99.364963 
L 480.215641 -97.802364 
L 480.937271 -96.239765 
L 481.56591 -94.677166 
L 482.090541 -93.114568 
L 482.499994 -91.551969 
L 482.78325 -89.98937 
L 482.9298 -88.426771 
L 482.930027 -86.864172 
L 482.775615 -85.301573 
L 482.459942 -83.738974 
L 481.978448 -82.176375 
L 481.32896 -80.613776 
L 480.511944 -79.051177 
L 479.530683 -77.488578 
L 478.391356 -75.925979 
L 477.10303 -74.36338 
L 475.677535 -72.800781 
L 474.129254 -71.238182 
L 472.474812 -69.675583 
L 470.732687 -68.112984 
L 468.922756 -66.550385 
L 467.065793 -64.987786 
L 465.18294 -63.425187 
z
" id="m0ca67b65e4" style="stroke:#999999;stroke-width:2;"/>
    </defs>
    <g clip-path="url(#p09820219dd)">
     <use style="fill:#ffffff;stroke:#999999;stroke-width:2;" x="0" xlink:href="#m0ca67b65e4" y="246.509673"/>
    </g>
   </g>
   <g id="PathCollection_10"/>
   <g id="PathCollection_11"/>
   <g id="PathCollection_12"/>
   <g id="PathCollection_13"/>
   <g id="PathCollection_14"/>
   <g id="PathCollection_15"/>
   <g id="PathCollection_16"/>
   <g id="patch_6">
    <path d="M 270.658891 209.34811 
L 270.658891 19.77 
" style="fill:none;stroke:#262626;stroke-linecap:square;stroke-linejoin:miter;stroke-width:1.25;"/>
   </g>
   <g id="patch_7">
    <path d="M 270.658891 209.34811 
L 497.447002 209.34811 
" style="fill:none;stroke:#262626;stroke-linecap:square;stroke-linejoin:miter;stroke-width:1.25;"/>
   </g>
   <g id="PathCollection_17">
    <defs>
     <path d="M 0 2.5 
C 0.663008 2.5 1.29895 2.236584 1.767767 1.767767 
C 2.236584 1.29895 2.5 0.663008 2.5 -0 
C 2.5 -0.663008 2.236584 -1.29895 1.767767 -1.767767 
C 1.29895 -2.236584 0.663008 -2.5 0 -2.5 
C -0.663008 -2.5 -1.29895 -2.236584 -1.767767 -1.767767 
C -2.236584 -1.29895 -2.5 -0.663008 -2.5 0 
C -2.5 0.663008 -2.236584 1.29895 -1.767767 1.767767 
C -1.29895 2.236584 -0.663008 2.5 0 2.5 
z
" id="C2_0_5d2e9871ea"/>
    </defs>
    <g clip-path="url(#p09820219dd)">
     <use style="fill:#4c72b0;fill-opacity:0.8;" x="324.810845" xlink:href="#C2_0_5d2e9871ea" y="169.396127"/>
    </g>
    <g clip-path="url(#p09820219dd)">
     <use style="fill:#4c72b0;fill-opacity:0.8;" x="320.310514" xlink:href="#C2_0_5d2e9871ea" y="200.59797"/>
    </g>
    <g clip-path="url(#p09820219dd)">
     <use style="fill:#4c72b0;fill-opacity:0.8;" x="330.625231" xlink:href="#C2_0_5d2e9871ea" y="200.730923"/>
    </g>
    <g clip-path="url(#p09820219dd)">
     <use style="fill:#dd8452;fill-opacity:0.8;" x="335.789255" xlink:href="#C2_0_5d2e9871ea" y="175.732575"/>
    </g>
    <g clip-path="url(#p09820219dd)">
     <use style="fill:#dd8452;fill-opacity:0.8;" x="319.413545" xlink:href="#C2_0_5d2e9871ea" y="175.03244"/>
    </g>
    <g clip-path="url(#p09820219dd)">
     <use style="fill:#dd8452;fill-opacity:0.8;" x="338.511825" xlink:href="#C2_0_5d2e9871ea" y="184.285886"/>
    </g>
    <g clip-path="url(#p09820219dd)">
     <use style="fill:#dd8452;fill-opacity:0.8;" x="319.2432" xlink:href="#C2_0_5d2e9871ea" y="146.582546"/>
    </g>
    <g clip-path="url(#p09820219dd)">
     <use style="fill:#dd8452;fill-opacity:0.8;" x="316.514106" xlink:href="#C2_0_5d2e9871ea" y="184.376002"/>
    </g>
    <g clip-path="url(#p09820219dd)">
     <use style="fill:#55a868;fill-opacity:0.8;" x="318.767317" xlink:href="#C2_0_5d2e9871ea" y="178.075765"/>
    </g>
    <g clip-path="url(#p09820219dd)">
     <use style="fill:#55a868;fill-opacity:0.8;" x="320.561031" xlink:href="#C2_0_5d2e9871ea" y="127.092541"/>
    </g>
    <g clip-path="url(#p09820219dd)">
     <use style="fill:#55a868;fill-opacity:0.8;" x="333.743449" xlink:href="#C2_0_5d2e9871ea" y="180.715585"/>
    </g>
    <g clip-path="url(#p09820219dd)">
     <use style="fill:#55a868;fill-opacity:0.8;" x="319.147741" xlink:href="#C2_0_5d2e9871ea" y="192.649318"/>
    </g>
    <g clip-path="url(#p09820219dd)">
     <use style="fill:#c44e52;fill-opacity:0.8;" x="323.137411" xlink:href="#C2_0_5d2e9871ea" y="186.386629"/>
    </g>
    <g clip-path="url(#p09820219dd)">
     <use style="fill:#c44e52;fill-opacity:0.8;" x="320.49813" xlink:href="#C2_0_5d2e9871ea" y="176.80858"/>
    </g>
    <g clip-path="url(#p09820219dd)">
     <use style="fill:#c44e52;fill-opacity:0.8;" x="319.191233" xlink:href="#C2_0_5d2e9871ea" y="166.415192"/>
    </g>
    <g clip-path="url(#p09820219dd)">
     <use style="fill:#c44e52;fill-opacity:0.8;" x="326.431929" xlink:href="#C2_0_5d2e9871ea" y="155.988472"/>
    </g>
    <g clip-path="url(#p09820219dd)">
     <use style="fill:#8172b3;fill-opacity:0.8;" x="331.477934" xlink:href="#C2_0_5d2e9871ea" y="160.423466"/>
    </g>
    <g clip-path="url(#p09820219dd)">
     <use style="fill:#8172b3;fill-opacity:0.8;" x="333.666732" xlink:href="#C2_0_5d2e9871ea" y="156.295808"/>
    </g>
    <g clip-path="url(#p09820219dd)">
     <use style="fill:#8172b3;fill-opacity:0.8;" x="320.159658" xlink:href="#C2_0_5d2e9871ea" y="164.140913"/>
    </g>
    <g clip-path="url(#p09820219dd)">
     <use style="fill:#8172b3;fill-opacity:0.8;" x="333.92173" xlink:href="#C2_0_5d2e9871ea" y="115.113464"/>
    </g>
    <g clip-path="url(#p09820219dd)">
     <use style="fill:#937860;fill-opacity:0.8;" x="335.880022" xlink:href="#C2_0_5d2e9871ea" y="191.904388"/>
    </g>
    <g clip-path="url(#p09820219dd)">
     <use style="fill:#937860;fill-opacity:0.8;" x="333.92559" xlink:href="#C2_0_5d2e9871ea" y="158.881993"/>
    </g>
    <g clip-path="url(#p09820219dd)">
     <use style="fill:#937860;fill-opacity:0.8;" x="334.409836" xlink:href="#C2_0_5d2e9871ea" y="138.506373"/>
    </g>
    <g clip-path="url(#p09820219dd)">
     <use style="fill:#937860;fill-opacity:0.8;" x="338.082315" xlink:href="#C2_0_5d2e9871ea" y="166.873108"/>
    </g>
    <g clip-path="url(#p09820219dd)">
     <use style="fill:#da8bc3;fill-opacity:0.8;" x="324.820432" xlink:href="#C2_0_5d2e9871ea" y="139.99007"/>
    </g>
    <g clip-path="url(#p09820219dd)">
     <use style="fill:#da8bc3;fill-opacity:0.8;" x="326.838977" xlink:href="#C2_0_5d2e9871ea" y="141.721798"/>
    </g>
    <g clip-path="url(#p09820219dd)">
     <use style="fill:#da8bc3;fill-opacity:0.8;" x="317.487445" xlink:href="#C2_0_5d2e9871ea" y="130.733066"/>
    </g>
    <g clip-path="url(#p09820219dd)">
     <use style="fill:#da8bc3;fill-opacity:0.8;" x="319.673366" xlink:href="#C2_0_5d2e9871ea" y="145.98932"/>
    </g>
   </g>
   <g id="PathCollection_18">
    <defs>
     <path d="M 0 2.5 
C 0.663008 2.5 1.29895 2.236584 1.767767 1.767767 
C 2.236584 1.29895 2.5 0.663008 2.5 -0 
C 2.5 -0.663008 2.236584 -1.29895 1.767767 -1.767767 
C 1.29895 -2.236584 0.663008 -2.5 0 -2.5 
C -0.663008 -2.5 -1.29895 -2.236584 -1.767767 -1.767767 
C -2.236584 -1.29895 -2.5 -0.663008 -2.5 0 
C -2.5 0.663008 -2.236584 1.29895 -1.767767 1.767767 
C -1.29895 2.236584 -0.663008 2.5 0 2.5 
z
" id="C3_0_bd2c881f1e"/>
    </defs>
    <g clip-path="url(#p09820219dd)">
     <use style="fill:#4c72b0;fill-opacity:0.8;" x="434.29064" xlink:href="#C3_0_bd2c881f1e" y="172.047071"/>
    </g>
    <g clip-path="url(#p09820219dd)">
     <use style="fill:#4c72b0;fill-opacity:0.8;" x="434.296461" xlink:href="#C3_0_bd2c881f1e" y="155.021193"/>
    </g>
    <g clip-path="url(#p09820219dd)">
     <use style="fill:#4c72b0;fill-opacity:0.8;" x="451.780125" xlink:href="#C3_0_bd2c881f1e" y="183.084486"/>
    </g>
    <g clip-path="url(#p09820219dd)">
     <use style="fill:#dd8452;fill-opacity:0.8;" x="450.641276" xlink:href="#C3_0_bd2c881f1e" y="154.533995"/>
    </g>
    <g clip-path="url(#p09820219dd)">
     <use style="fill:#dd8452;fill-opacity:0.8;" x="446.002221" xlink:href="#C3_0_bd2c881f1e" y="174.02196"/>
    </g>
    <g clip-path="url(#p09820219dd)">
     <use style="fill:#dd8452;fill-opacity:0.8;" x="431.481969" xlink:href="#C3_0_bd2c881f1e" y="168.372616"/>
    </g>
    <g clip-path="url(#p09820219dd)">
     <use style="fill:#dd8452;fill-opacity:0.8;" x="432.066038" xlink:href="#C3_0_bd2c881f1e" y="157.830489"/>
    </g>
    <g clip-path="url(#p09820219dd)">
     <use style="fill:#dd8452;fill-opacity:0.8;" x="435.403662" xlink:href="#C3_0_bd2c881f1e" y="145.54181"/>
    </g>
    <g clip-path="url(#p09820219dd)">
     <use style="fill:#55a868;fill-opacity:0.8;" x="433.207332" xlink:href="#C3_0_bd2c881f1e" y="168.336374"/>
    </g>
    <g clip-path="url(#p09820219dd)">
     <use style="fill:#55a868;fill-opacity:0.8;" x="451.747135" xlink:href="#C3_0_bd2c881f1e" y="167.008993"/>
    </g>
    <g clip-path="url(#p09820219dd)">
     <use style="fill:#55a868;fill-opacity:0.8;" x="441.472051" xlink:href="#C3_0_bd2c881f1e" y="179.398143"/>
    </g>
    <g clip-path="url(#p09820219dd)">
     <use style="fill:#55a868;fill-opacity:0.8;" x="437.555818" xlink:href="#C3_0_bd2c881f1e" y="175.353751"/>
    </g>
    <g clip-path="url(#p09820219dd)">
     <use style="fill:#c44e52;fill-opacity:0.8;" x="435.656192" xlink:href="#C3_0_bd2c881f1e" y="103.193865"/>
    </g>
    <g clip-path="url(#p09820219dd)">
     <use style="fill:#c44e52;fill-opacity:0.8;" x="439.986582" xlink:href="#C3_0_bd2c881f1e" y="133.469586"/>
    </g>
    <g clip-path="url(#p09820219dd)">
     <use style="fill:#c44e52;fill-opacity:0.8;" x="449.323718" xlink:href="#C3_0_bd2c881f1e" y="133.04786"/>
    </g>
    <g clip-path="url(#p09820219dd)">
     <use style="fill:#c44e52;fill-opacity:0.8;" x="448.087616" xlink:href="#C3_0_bd2c881f1e" y="136.681098"/>
    </g>
    <g clip-path="url(#p09820219dd)">
     <use style="fill:#8172b3;fill-opacity:0.8;" x="448.848646" xlink:href="#C3_0_bd2c881f1e" y="130.943977"/>
    </g>
    <g clip-path="url(#p09820219dd)">
     <use style="fill:#8172b3;fill-opacity:0.8;" x="431.179795" xlink:href="#C3_0_bd2c881f1e" y="152.639695"/>
    </g>
    <g clip-path="url(#p09820219dd)">
     <use style="fill:#8172b3;fill-opacity:0.8;" x="436.331619" xlink:href="#C3_0_bd2c881f1e" y="149.053652"/>
    </g>
    <g clip-path="url(#p09820219dd)">
     <use style="fill:#8172b3;fill-opacity:0.8;" x="431.376786" xlink:href="#C3_0_bd2c881f1e" y="28.387187"/>
    </g>
    <g clip-path="url(#p09820219dd)">
     <use style="fill:#937860;fill-opacity:0.8;" x="437.434598" xlink:href="#C3_0_bd2c881f1e" y="169.869176"/>
    </g>
    <g clip-path="url(#p09820219dd)">
     <use style="fill:#937860;fill-opacity:0.8;" x="443.168353" xlink:href="#C3_0_bd2c881f1e" y="162.862773"/>
    </g>
    <g clip-path="url(#p09820219dd)">
     <use style="fill:#937860;fill-opacity:0.8;" x="443.319315" xlink:href="#C3_0_bd2c881f1e" y="152.855275"/>
    </g>
    <g clip-path="url(#p09820219dd)">
     <use style="fill:#937860;fill-opacity:0.8;" x="438.56259" xlink:href="#C3_0_bd2c881f1e" y="159.285674"/>
    </g>
    <g clip-path="url(#p09820219dd)">
     <use style="fill:#da8bc3;fill-opacity:0.8;" x="445.160585" xlink:href="#C3_0_bd2c881f1e" y="129.029861"/>
    </g>
    <g clip-path="url(#p09820219dd)">
     <use style="fill:#da8bc3;fill-opacity:0.8;" x="435.36092" xlink:href="#C3_0_bd2c881f1e" y="109.894274"/>
    </g>
    <g clip-path="url(#p09820219dd)">
     <use style="fill:#da8bc3;fill-opacity:0.8;" x="450.831638" xlink:href="#C3_0_bd2c881f1e" y="102.542339"/>
    </g>
    <g clip-path="url(#p09820219dd)">
     <use style="fill:#da8bc3;fill-opacity:0.8;" x="444.755504" xlink:href="#C3_0_bd2c881f1e" y="133.789127"/>
    </g>
   </g>
   <g id="text_15">
    <!-- KNL1, $p_{adj}$ = .024 * -->
    <g style="fill:#262626;" transform="translate(270.658891 13.77)scale(0.09 -0.09)">
     <defs>
      <path d="M 4.15625 35.296875 
Q 4.15625 48 6.765625 55.734375 
Q 9.375 63.484375 14.515625 67.671875 
Q 19.671875 71.875 27.484375 71.875 
Q 33.25 71.875 37.59375 69.546875 
Q 41.9375 67.234375 44.765625 62.859375 
Q 47.609375 58.5 49.21875 52.21875 
Q 50.828125 45.953125 50.828125 35.296875 
Q 50.828125 22.703125 48.234375 14.96875 
Q 45.65625 7.234375 40.5 3 
Q 35.359375 -1.21875 27.484375 -1.21875 
Q 17.140625 -1.21875 11.234375 6.203125 
Q 4.15625 15.140625 4.15625 35.296875 
z
M 13.1875 35.296875 
Q 13.1875 17.671875 17.3125 11.828125 
Q 21.4375 6 27.484375 6 
Q 33.546875 6 37.671875 11.859375 
Q 41.796875 17.71875 41.796875 35.296875 
Q 41.796875 52.984375 37.671875 58.78125 
Q 33.546875 64.59375 27.390625 64.59375 
Q 21.34375 64.59375 17.71875 59.46875 
Q 13.1875 52.9375 13.1875 35.296875 
z
" id="ArialMT-48"/>
      <path d="M 3.125 58.453125 
L 5.375 65.375 
Q 13.140625 62.640625 16.65625 60.640625 
Q 15.71875 69.484375 15.671875 72.796875 
L 22.75 72.796875 
Q 22.609375 67.96875 21.625 60.6875 
Q 26.65625 63.234375 33.15625 65.375 
L 35.40625 58.453125 
Q 29.203125 56.390625 23.25 55.71875 
Q 26.21875 53.125 31.640625 46.484375 
L 25.78125 42.328125 
Q 22.953125 46.1875 19.09375 52.828125 
Q 15.484375 45.953125 12.75 42.328125 
L 6.984375 46.484375 
Q 12.640625 53.46875 15.09375 55.71875 
Q 8.796875 56.9375 3.125 58.453125 
z
" id="ArialMT-42"/>
     </defs>
     <use transform="translate(0 0.203125)" xlink:href="#ArialMT-75"/>
     <use transform="translate(66.699219 0.203125)" xlink:href="#ArialMT-78"/>
     <use transform="translate(138.916016 0.203125)" xlink:href="#ArialMT-76"/>
     <use transform="translate(194.53125 0.203125)" xlink:href="#ArialMT-49"/>
     <use transform="translate(250.146484 0.203125)" xlink:href="#ArialMT-44"/>
     <use transform="translate(277.929688 0.203125)" xlink:href="#ArialMT-32"/>
     <use transform="translate(305.712891 0.203125)" xlink:href="#DejaVuSans-Oblique-112"/>
     <use transform="translate(369.189453 -16.203125)scale(0.7)" xlink:href="#DejaVuSans-Oblique-97"/>
     <use transform="translate(412.084961 -16.203125)scale(0.7)" xlink:href="#DejaVuSans-Oblique-100"/>
     <use transform="translate(456.518555 -16.203125)scale(0.7)" xlink:href="#DejaVuSans-Oblique-106"/>
     <use transform="translate(478.701172 0.203125)" xlink:href="#ArialMT-32"/>
     <use transform="translate(506.484375 0.203125)" xlink:href="#ArialMT-61"/>
     <use transform="translate(564.882812 0.203125)" xlink:href="#ArialMT-32"/>
     <use transform="translate(592.666016 0.203125)" xlink:href="#ArialMT-46"/>
     <use transform="translate(620.449219 0.203125)" xlink:href="#ArialMT-48"/>
     <use transform="translate(676.064453 0.203125)" xlink:href="#ArialMT-50"/>
     <use transform="translate(731.679688 0.203125)" xlink:href="#ArialMT-52"/>
     <use transform="translate(787.294922 0.203125)" xlink:href="#ArialMT-32"/>
     <use transform="translate(815.078125 0.203125)" xlink:href="#ArialMT-42"/>
    </g>
   </g>
  </g>
  <g id="legend_1">
   <g id="patch_8">
    <path d="M 508.076093 175.28218 
L 551.890624 175.28218 
Q 553.690624 175.28218 553.690624 173.48218 
L 553.690624 72.53593 
Q 553.690624 70.73593 551.890624 70.73593 
L 508.076093 70.73593 
Q 506.276093 70.73593 506.276093 72.53593 
L 506.276093 173.48218 
Q 506.276093 175.28218 508.076093 175.28218 
z
" style="fill:#ffffff;opacity:0.8;stroke:#cccccc;stroke-linejoin:miter;"/>
   </g>
   <g id="text_16">
    <!-- Patient -->
    <g style="fill:#262626;" transform="translate(515.974296 80.777961)scale(0.09 -0.09)">
     <use xlink:href="#ArialMT-80"/>
     <use x="66.699219" xlink:href="#ArialMT-97"/>
     <use x="122.314453" xlink:href="#ArialMT-116"/>
     <use x="150.097656" xlink:href="#ArialMT-105"/>
     <use x="172.314453" xlink:href="#ArialMT-101"/>
     <use x="227.929688" xlink:href="#ArialMT-110"/>
     <use x="283.544922" xlink:href="#ArialMT-116"/>
    </g>
   </g>
   <g id="PathCollection_19">
    <defs>
     <path d="M 0 3.872983 
C 1.027127 3.872983 2.012324 3.464901 2.738613 2.738613 
C 3.464901 2.012324 3.872983 1.027127 3.872983 0 
C 3.872983 -1.027127 3.464901 -2.012324 2.738613 -2.738613 
C 2.012324 -3.464901 1.027127 -3.872983 0 -3.872983 
C -1.027127 -3.872983 -2.012324 -3.464901 -2.738613 -2.738613 
C -3.464901 -2.012324 -3.872983 -1.027127 -3.872983 0 
C -3.872983 1.027127 -3.464901 2.012324 -2.738613 2.738613 
C -2.012324 3.464901 -1.027127 3.872983 0 3.872983 
z
" id="m197755df14" style="stroke:#4c72b0;"/>
    </defs>
    <g>
     <use style="fill:#4c72b0;stroke:#4c72b0;" x="518.876093" xlink:href="#m197755df14" y="91.146243"/>
    </g>
   </g>
   <g id="text_17">
    <!-- 5 -->
    <g style="fill:#262626;" transform="translate(535.076093 93.508743)scale(0.09 -0.09)">
     <use xlink:href="#ArialMT-53"/>
    </g>
   </g>
   <g id="PathCollection_20">
    <defs>
     <path d="M 0 3.872983 
C 1.027127 3.872983 2.012324 3.464901 2.738613 2.738613 
C 3.464901 2.012324 3.872983 1.027127 3.872983 0 
C 3.872983 -1.027127 3.464901 -2.012324 2.738613 -2.738613 
C 2.012324 -3.464901 1.027127 -3.872983 0 -3.872983 
C -1.027127 -3.872983 -2.012324 -3.464901 -2.738613 -2.738613 
C -3.464901 -2.012324 -3.872983 -1.027127 -3.872983 0 
C -3.872983 1.027127 -3.464901 2.012324 -2.738613 2.738613 
C -2.012324 3.464901 -1.027127 3.872983 0 3.872983 
z
" id="mfc0c64e977" style="stroke:#dd8452;"/>
    </defs>
    <g>
     <use style="fill:#dd8452;stroke:#dd8452;" x="518.876093" xlink:href="#mfc0c64e977" y="103.877024"/>
    </g>
   </g>
   <g id="text_18">
    <!-- 15 -->
    <g style="fill:#262626;" transform="translate(535.076093 106.239524)scale(0.09 -0.09)">
     <use xlink:href="#ArialMT-49"/>
     <use x="55.615234" xlink:href="#ArialMT-53"/>
    </g>
   </g>
   <g id="PathCollection_21">
    <defs>
     <path d="M 0 3.872983 
C 1.027127 3.872983 2.012324 3.464901 2.738613 2.738613 
C 3.464901 2.012324 3.872983 1.027127 3.872983 0 
C 3.872983 -1.027127 3.464901 -2.012324 2.738613 -2.738613 
C 2.012324 -3.464901 1.027127 -3.872983 0 -3.872983 
C -1.027127 -3.872983 -2.012324 -3.464901 -2.738613 -2.738613 
C -3.464901 -2.012324 -3.872983 -1.027127 -3.872983 0 
C -3.872983 1.027127 -3.464901 2.012324 -2.738613 2.738613 
C -2.012324 3.464901 -1.027127 3.872983 0 3.872983 
z
" id="mc6a6bc365c" style="stroke:#55a868;"/>
    </defs>
    <g>
     <use style="fill:#55a868;stroke:#55a868;" x="518.876093" xlink:href="#mc6a6bc365c" y="116.607805"/>
    </g>
   </g>
   <g id="text_19">
    <!-- 17 -->
    <g style="fill:#262626;" transform="translate(535.076093 118.970305)scale(0.09 -0.09)">
     <defs>
      <path d="M 4.734375 62.203125 
L 4.734375 70.65625 
L 51.078125 70.65625 
L 51.078125 63.8125 
Q 44.234375 56.546875 37.515625 44.484375 
Q 30.8125 32.421875 27.15625 19.671875 
Q 24.515625 10.6875 23.78125 0 
L 14.75 0 
Q 14.890625 8.453125 18.0625 20.40625 
Q 21.234375 32.375 27.171875 43.484375 
Q 33.109375 54.59375 39.796875 62.203125 
z
" id="ArialMT-55"/>
     </defs>
     <use xlink:href="#ArialMT-49"/>
     <use x="55.615234" xlink:href="#ArialMT-55"/>
    </g>
   </g>
   <g id="PathCollection_22">
    <defs>
     <path d="M 0 3.872983 
C 1.027127 3.872983 2.012324 3.464901 2.738613 2.738613 
C 3.464901 2.012324 3.872983 1.027127 3.872983 0 
C 3.872983 -1.027127 3.464901 -2.012324 2.738613 -2.738613 
C 2.012324 -3.464901 1.027127 -3.872983 0 -3.872983 
C -1.027127 -3.872983 -2.012324 -3.464901 -2.738613 -2.738613 
C -3.464901 -2.012324 -3.872983 -1.027127 -3.872983 0 
C -3.872983 1.027127 -3.464901 2.012324 -2.738613 2.738613 
C -2.012324 3.464901 -1.027127 3.872983 0 3.872983 
z
" id="mc8d65204cc" style="stroke:#c44e52;"/>
    </defs>
    <g>
     <use style="fill:#c44e52;stroke:#c44e52;" x="518.876093" xlink:href="#mc8d65204cc" y="129.338586"/>
    </g>
   </g>
   <g id="text_20">
    <!-- 49 -->
    <g style="fill:#262626;" transform="translate(535.076093 131.701086)scale(0.09 -0.09)">
     <defs>
      <path d="M 5.46875 16.546875 
L 13.921875 17.328125 
Q 14.984375 11.375 18.015625 8.6875 
Q 21.046875 6 25.78125 6 
Q 29.828125 6 32.875 7.859375 
Q 35.9375 9.71875 37.890625 12.8125 
Q 39.84375 15.921875 41.15625 21.1875 
Q 42.484375 26.46875 42.484375 31.9375 
Q 42.484375 32.515625 42.4375 33.6875 
Q 39.796875 29.5 35.234375 26.875 
Q 30.671875 24.265625 25.34375 24.265625 
Q 16.453125 24.265625 10.296875 30.703125 
Q 4.15625 37.15625 4.15625 47.703125 
Q 4.15625 58.59375 10.578125 65.234375 
Q 17 71.875 26.65625 71.875 
Q 33.640625 71.875 39.421875 68.109375 
Q 45.21875 64.359375 48.21875 57.390625 
Q 51.21875 50.4375 51.21875 37.25 
Q 51.21875 23.53125 48.234375 15.40625 
Q 45.265625 7.28125 39.375 3.03125 
Q 33.5 -1.21875 25.59375 -1.21875 
Q 17.1875 -1.21875 11.859375 3.4375 
Q 6.546875 8.109375 5.46875 16.546875 
z
M 41.453125 48.140625 
Q 41.453125 55.71875 37.421875 60.15625 
Q 33.40625 64.59375 27.734375 64.59375 
Q 21.875 64.59375 17.53125 59.8125 
Q 13.1875 55.03125 13.1875 47.40625 
Q 13.1875 40.578125 17.3125 36.296875 
Q 21.4375 32.03125 27.484375 32.03125 
Q 33.59375 32.03125 37.515625 36.296875 
Q 41.453125 40.578125 41.453125 48.140625 
z
" id="ArialMT-57"/>
     </defs>
     <use xlink:href="#ArialMT-52"/>
     <use x="55.615234" xlink:href="#ArialMT-57"/>
    </g>
   </g>
   <g id="PathCollection_23">
    <defs>
     <path d="M 0 3.872983 
C 1.027127 3.872983 2.012324 3.464901 2.738613 2.738613 
C 3.464901 2.012324 3.872983 1.027127 3.872983 0 
C 3.872983 -1.027127 3.464901 -2.012324 2.738613 -2.738613 
C 2.012324 -3.464901 1.027127 -3.872983 0 -3.872983 
C -1.027127 -3.872983 -2.012324 -3.464901 -2.738613 -2.738613 
C -3.464901 -2.012324 -3.872983 -1.027127 -3.872983 0 
C -3.872983 1.027127 -3.464901 2.012324 -2.738613 2.738613 
C -2.012324 3.464901 -1.027127 3.872983 0 3.872983 
z
" id="m4d8cb59422" style="stroke:#8172b3;"/>
    </defs>
    <g>
     <use style="fill:#8172b3;stroke:#8172b3;" x="518.876093" xlink:href="#m4d8cb59422" y="142.069368"/>
    </g>
   </g>
   <g id="text_21">
    <!-- 62 -->
    <g style="fill:#262626;" transform="translate(535.076093 144.431868)scale(0.09 -0.09)">
     <use xlink:href="#ArialMT-54"/>
     <use x="55.615234" xlink:href="#ArialMT-50"/>
    </g>
   </g>
   <g id="PathCollection_24">
    <defs>
     <path d="M 0 3.872983 
C 1.027127 3.872983 2.012324 3.464901 2.738613 2.738613 
C 3.464901 2.012324 3.872983 1.027127 3.872983 0 
C 3.872983 -1.027127 3.464901 -2.012324 2.738613 -2.738613 
C 2.012324 -3.464901 1.027127 -3.872983 0 -3.872983 
C -1.027127 -3.872983 -2.012324 -3.464901 -2.738613 -2.738613 
C -3.464901 -2.012324 -3.872983 -1.027127 -3.872983 0 
C -3.872983 1.027127 -3.464901 2.012324 -2.738613 2.738613 
C -2.012324 3.464901 -1.027127 3.872983 0 3.872983 
z
" id="m0afec5e685" style="stroke:#937860;"/>
    </defs>
    <g>
     <use style="fill:#937860;stroke:#937860;" x="518.876093" xlink:href="#m0afec5e685" y="154.800149"/>
    </g>
   </g>
   <g id="text_22">
    <!-- 69 -->
    <g style="fill:#262626;" transform="translate(535.076093 157.162649)scale(0.09 -0.09)">
     <use xlink:href="#ArialMT-54"/>
     <use x="55.615234" xlink:href="#ArialMT-57"/>
    </g>
   </g>
   <g id="PathCollection_25">
    <defs>
     <path d="M 0 3.872983 
C 1.027127 3.872983 2.012324 3.464901 2.738613 2.738613 
C 3.464901 2.012324 3.872983 1.027127 3.872983 0 
C 3.872983 -1.027127 3.464901 -2.012324 2.738613 -2.738613 
C 2.012324 -3.464901 1.027127 -3.872983 0 -3.872983 
C -1.027127 -3.872983 -2.012324 -3.464901 -2.738613 -2.738613 
C -3.464901 -2.012324 -3.872983 -1.027127 -3.872983 0 
C -3.872983 1.027127 -3.464901 2.012324 -2.738613 2.738613 
C -2.012324 3.464901 -1.027127 3.872983 0 3.872983 
z
" id="m1202951743" style="stroke:#da8bc3;"/>
    </defs>
    <g>
     <use style="fill:#da8bc3;stroke:#da8bc3;" x="518.876093" xlink:href="#m1202951743" y="167.53093"/>
    </g>
   </g>
   <g id="text_23">
    <!-- 126 -->
    <g style="fill:#262626;" transform="translate(535.076093 169.89343)scale(0.09 -0.09)">
     <use xlink:href="#ArialMT-49"/>
     <use x="55.615234" xlink:href="#ArialMT-50"/>
     <use x="111.230469" xlink:href="#ArialMT-54"/>
    </g>
   </g>
  </g>
 </g>
 <defs>
  <clipPath id="p64625a9c5e">
   <rect height="189.57811" width="226.78811" x="34.150781" y="19.77"/>
  </clipPath>
  <clipPath id="p09820219dd">
   <rect height="189.57811" width="226.78811" x="270.658891" y="19.77"/>
  </clipPath>
 </defs>
</svg>
