<?xml version="1.0" encoding="utf-8" standalone="no"?>
<!DOCTYPE svg PUBLIC "-//W3C//DTD SVG 1.1//EN"
  "http://www.w3.org/Graphics/SVG/1.1/DTD/svg11.dtd">
<svg xmlns:xlink="http://www.w3.org/1999/xlink" width="510.23622pt" height="255.11811pt" viewBox="0 0 510.23622 255.11811" xmlns="http://www.w3.org/2000/svg" version="1.1">
 <metadata>
  <rdf:RDF xmlns:dc="http://purl.org/dc/elements/1.1/" xmlns:cc="http://creativecommons.org/ns#" xmlns:rdf="http://www.w3.org/1999/02/22-rdf-syntax-ns#">
   <cc:Work>
    <dc:type rdf:resource="http://purl.org/dc/dcmitype/StillImage"/>
    <dc:date>2022-04-27T00:18:11.516667</dc:date>
    <dc:format>image/svg+xml</dc:format>
    <dc:creator>
     <cc:Agent>
      <dc:title>Matplotlib v3.5.1, https://matplotlib.org/</dc:title>
     </cc:Agent>
    </dc:creator>
   </cc:Work>
  </rdf:RDF>
 </metadata>
 <defs>
  <style type="text/css">*{stroke-linejoin: round; stroke-linecap: butt}</style>
 </defs>
 <g id="figure_1">
  <g id="patch_1">
   <path d="M 0 255.11811 
L 510.23622 255.11811 
L 510.23622 0 
L 0 0 
z
" style="fill: #ffffff"/>
  </g>
  <g id="axes_1">
   <g id="patch_2">
    <path d="M 47.22 213.89811 
L 500.51622 213.89811 
L 500.51622 24.32 
L 47.22 24.32 
z
" style="fill: #ffffff"/>
   </g>
   <g id="matplotlib.axis_1">
    <g id="xtick_1">
     <g id="text_1">
      <!-- 49 -->
      <g style="fill: #444444" transform="translate(74.593458 229.840141)scale(0.09 -0.09)">
       <defs>
        <path id="ArialMT-34" d="M 2069 0 
L 2069 1097 
L 81 1097 
L 81 1613 
L 2172 4581 
L 2631 4581 
L 2631 1613 
L 3250 1613 
L 3250 1097 
L 2631 1097 
L 2631 0 
L 2069 0 
z
M 2069 1613 
L 2069 3678 
L 634 1613 
L 2069 1613 
z
" transform="scale(0.015625)"/>
        <path id="ArialMT-39" d="M 350 1059 
L 891 1109 
Q 959 728 1153 556 
Q 1347 384 1650 384 
Q 1909 384 2104 503 
Q 2300 622 2425 820 
Q 2550 1019 2634 1356 
Q 2719 1694 2719 2044 
Q 2719 2081 2716 2156 
Q 2547 1888 2255 1720 
Q 1963 1553 1622 1553 
Q 1053 1553 659 1965 
Q 266 2378 266 3053 
Q 266 3750 677 4175 
Q 1088 4600 1706 4600 
Q 2153 4600 2523 4359 
Q 2894 4119 3086 3673 
Q 3278 3228 3278 2384 
Q 3278 1506 3087 986 
Q 2897 466 2520 194 
Q 2144 -78 1638 -78 
Q 1100 -78 759 220 
Q 419 519 350 1059 
z
M 2653 3081 
Q 2653 3566 2395 3850 
Q 2138 4134 1775 4134 
Q 1400 4134 1122 3828 
Q 844 3522 844 3034 
Q 844 2597 1108 2323 
Q 1372 2050 1759 2050 
Q 2150 2050 2401 2323 
Q 2653 2597 2653 3081 
z
" transform="scale(0.015625)"/>
       </defs>
       <use xlink:href="#ArialMT-34"/>
       <use xlink:href="#ArialMT-39" x="55.615234"/>
      </g>
     </g>
    </g>
    <g id="xtick_2">
     <g id="text_2">
      <!-- 17 -->
      <g style="fill: #444444" transform="translate(139.350061 229.840141)scale(0.09 -0.09)">
       <defs>
        <path id="ArialMT-31" d="M 2384 0 
L 1822 0 
L 1822 3584 
Q 1619 3391 1289 3197 
Q 959 3003 697 2906 
L 697 3450 
Q 1169 3672 1522 3987 
Q 1875 4303 2022 4600 
L 2384 4600 
L 2384 0 
z
" transform="scale(0.015625)"/>
        <path id="ArialMT-37" d="M 303 3981 
L 303 4522 
L 3269 4522 
L 3269 4084 
Q 2831 3619 2401 2847 
Q 1972 2075 1738 1259 
Q 1569 684 1522 0 
L 944 0 
Q 953 541 1156 1306 
Q 1359 2072 1739 2783 
Q 2119 3494 2547 3981 
L 303 3981 
z
" transform="scale(0.015625)"/>
       </defs>
       <use xlink:href="#ArialMT-31"/>
       <use xlink:href="#ArialMT-37" x="55.615234"/>
      </g>
     </g>
    </g>
    <g id="xtick_3">
     <g id="text_3">
      <!-- 69 -->
      <g style="fill: #444444" transform="translate(204.106664 229.840141)scale(0.09 -0.09)">
       <defs>
        <path id="ArialMT-36" d="M 3184 3459 
L 2625 3416 
Q 2550 3747 2413 3897 
Q 2184 4138 1850 4138 
Q 1581 4138 1378 3988 
Q 1113 3794 959 3422 
Q 806 3050 800 2363 
Q 1003 2672 1297 2822 
Q 1591 2972 1913 2972 
Q 2475 2972 2870 2558 
Q 3266 2144 3266 1488 
Q 3266 1056 3080 686 
Q 2894 316 2569 119 
Q 2244 -78 1831 -78 
Q 1128 -78 684 439 
Q 241 956 241 2144 
Q 241 3472 731 4075 
Q 1159 4600 1884 4600 
Q 2425 4600 2770 4297 
Q 3116 3994 3184 3459 
z
M 888 1484 
Q 888 1194 1011 928 
Q 1134 663 1356 523 
Q 1578 384 1822 384 
Q 2178 384 2434 671 
Q 2691 959 2691 1453 
Q 2691 1928 2437 2201 
Q 2184 2475 1800 2475 
Q 1419 2475 1153 2201 
Q 888 1928 888 1484 
z
" transform="scale(0.015625)"/>
       </defs>
       <use xlink:href="#ArialMT-36"/>
       <use xlink:href="#ArialMT-39" x="55.615234"/>
      </g>
     </g>
    </g>
    <g id="xtick_4">
     <g id="text_4">
      <!-- 15 -->
      <g style="fill: #444444" transform="translate(268.863266 229.840141)scale(0.09 -0.09)">
       <defs>
        <path id="ArialMT-35" d="M 266 1200 
L 856 1250 
Q 922 819 1161 601 
Q 1400 384 1738 384 
Q 2144 384 2425 690 
Q 2706 997 2706 1503 
Q 2706 1984 2436 2262 
Q 2166 2541 1728 2541 
Q 1456 2541 1237 2417 
Q 1019 2294 894 2097 
L 366 2166 
L 809 4519 
L 3088 4519 
L 3088 3981 
L 1259 3981 
L 1013 2750 
Q 1425 3038 1878 3038 
Q 2478 3038 2890 2622 
Q 3303 2206 3303 1553 
Q 3303 931 2941 478 
Q 2500 -78 1738 -78 
Q 1113 -78 717 272 
Q 322 622 266 1200 
z
" transform="scale(0.015625)"/>
       </defs>
       <use xlink:href="#ArialMT-31"/>
       <use xlink:href="#ArialMT-35" x="55.615234"/>
      </g>
     </g>
    </g>
    <g id="xtick_5">
     <g id="text_5">
      <!-- 5 -->
      <g style="fill: #444444" transform="translate(336.122291 229.840141)scale(0.09 -0.09)">
       <use xlink:href="#ArialMT-35"/>
      </g>
     </g>
    </g>
    <g id="xtick_6">
     <g id="text_6">
      <!-- 126 -->
      <g style="fill: #444444" transform="translate(395.87405 229.840141)scale(0.09 -0.09)">
       <defs>
        <path id="ArialMT-32" d="M 3222 541 
L 3222 0 
L 194 0 
Q 188 203 259 391 
Q 375 700 629 1000 
Q 884 1300 1366 1694 
Q 2113 2306 2375 2664 
Q 2638 3022 2638 3341 
Q 2638 3675 2398 3904 
Q 2159 4134 1775 4134 
Q 1369 4134 1125 3890 
Q 881 3647 878 3216 
L 300 3275 
Q 359 3922 746 4261 
Q 1134 4600 1788 4600 
Q 2447 4600 2831 4234 
Q 3216 3869 3216 3328 
Q 3216 3053 3103 2787 
Q 2991 2522 2730 2228 
Q 2469 1934 1863 1422 
Q 1356 997 1212 845 
Q 1069 694 975 541 
L 3222 541 
z
" transform="scale(0.015625)"/>
       </defs>
       <use xlink:href="#ArialMT-31"/>
       <use xlink:href="#ArialMT-32" x="55.615234"/>
       <use xlink:href="#ArialMT-36" x="111.230469"/>
      </g>
     </g>
    </g>
    <g id="xtick_7">
     <g id="text_7">
      <!-- 62 -->
      <g style="fill: #444444" transform="translate(463.133075 229.840141)scale(0.09 -0.09)">
       <use xlink:href="#ArialMT-36"/>
       <use xlink:href="#ArialMT-32" x="55.615234"/>
      </g>
     </g>
    </g>
    <g id="text_8">
     <!-- Patient -->
     <g style="fill: #444444" transform="translate(259.859048 242.070923)scale(0.09 -0.09)">
      <defs>
       <path id="ArialMT-50" d="M 494 0 
L 494 4581 
L 2222 4581 
Q 2678 4581 2919 4538 
Q 3256 4481 3484 4323 
Q 3713 4166 3852 3881 
Q 3991 3597 3991 3256 
Q 3991 2672 3619 2267 
Q 3247 1863 2275 1863 
L 1100 1863 
L 1100 0 
L 494 0 
z
M 1100 2403 
L 2284 2403 
Q 2872 2403 3119 2622 
Q 3366 2841 3366 3238 
Q 3366 3525 3220 3729 
Q 3075 3934 2838 4000 
Q 2684 4041 2272 4041 
L 1100 4041 
L 1100 2403 
z
" transform="scale(0.015625)"/>
       <path id="ArialMT-61" d="M 2588 409 
Q 2275 144 1986 34 
Q 1697 -75 1366 -75 
Q 819 -75 525 192 
Q 231 459 231 875 
Q 231 1119 342 1320 
Q 453 1522 633 1644 
Q 813 1766 1038 1828 
Q 1203 1872 1538 1913 
Q 2219 1994 2541 2106 
Q 2544 2222 2544 2253 
Q 2544 2597 2384 2738 
Q 2169 2928 1744 2928 
Q 1347 2928 1158 2789 
Q 969 2650 878 2297 
L 328 2372 
Q 403 2725 575 2942 
Q 747 3159 1072 3276 
Q 1397 3394 1825 3394 
Q 2250 3394 2515 3294 
Q 2781 3194 2906 3042 
Q 3031 2891 3081 2659 
Q 3109 2516 3109 2141 
L 3109 1391 
Q 3109 606 3145 398 
Q 3181 191 3288 0 
L 2700 0 
Q 2613 175 2588 409 
z
M 2541 1666 
Q 2234 1541 1622 1453 
Q 1275 1403 1131 1340 
Q 988 1278 909 1158 
Q 831 1038 831 891 
Q 831 666 1001 516 
Q 1172 366 1500 366 
Q 1825 366 2078 508 
Q 2331 650 2450 897 
Q 2541 1088 2541 1459 
L 2541 1666 
z
" transform="scale(0.015625)"/>
       <path id="ArialMT-74" d="M 1650 503 
L 1731 6 
Q 1494 -44 1306 -44 
Q 1000 -44 831 53 
Q 663 150 594 308 
Q 525 466 525 972 
L 525 2881 
L 113 2881 
L 113 3319 
L 525 3319 
L 525 4141 
L 1084 4478 
L 1084 3319 
L 1650 3319 
L 1650 2881 
L 1084 2881 
L 1084 941 
Q 1084 700 1114 631 
Q 1144 563 1211 522 
Q 1278 481 1403 481 
Q 1497 481 1650 503 
z
" transform="scale(0.015625)"/>
       <path id="ArialMT-69" d="M 425 3934 
L 425 4581 
L 988 4581 
L 988 3934 
L 425 3934 
z
M 425 0 
L 425 3319 
L 988 3319 
L 988 0 
L 425 0 
z
" transform="scale(0.015625)"/>
       <path id="ArialMT-65" d="M 2694 1069 
L 3275 997 
Q 3138 488 2766 206 
Q 2394 -75 1816 -75 
Q 1088 -75 661 373 
Q 234 822 234 1631 
Q 234 2469 665 2931 
Q 1097 3394 1784 3394 
Q 2450 3394 2872 2941 
Q 3294 2488 3294 1666 
Q 3294 1616 3291 1516 
L 816 1516 
Q 847 969 1125 678 
Q 1403 388 1819 388 
Q 2128 388 2347 550 
Q 2566 713 2694 1069 
z
M 847 1978 
L 2700 1978 
Q 2663 2397 2488 2606 
Q 2219 2931 1791 2931 
Q 1403 2931 1139 2672 
Q 875 2413 847 1978 
z
" transform="scale(0.015625)"/>
       <path id="ArialMT-6e" d="M 422 0 
L 422 3319 
L 928 3319 
L 928 2847 
Q 1294 3394 1984 3394 
Q 2284 3394 2536 3286 
Q 2788 3178 2913 3003 
Q 3038 2828 3088 2588 
Q 3119 2431 3119 2041 
L 3119 0 
L 2556 0 
L 2556 2019 
Q 2556 2363 2490 2533 
Q 2425 2703 2258 2804 
Q 2091 2906 1866 2906 
Q 1506 2906 1245 2678 
Q 984 2450 984 1813 
L 984 0 
L 422 0 
z
" transform="scale(0.015625)"/>
      </defs>
      <use xlink:href="#ArialMT-50"/>
      <use xlink:href="#ArialMT-61" x="66.699219"/>
      <use xlink:href="#ArialMT-74" x="122.314453"/>
      <use xlink:href="#ArialMT-69" x="150.097656"/>
      <use xlink:href="#ArialMT-65" x="172.314453"/>
      <use xlink:href="#ArialMT-6e" x="227.929688"/>
      <use xlink:href="#ArialMT-74" x="283.544922"/>
     </g>
    </g>
   </g>
   <g id="matplotlib.axis_2">
    <g id="ytick_1">
     <g id="text_9">
      <!-- 50 -->
      <g style="fill: #444444" transform="translate(27.710313 205.428769)scale(0.09 -0.09)">
       <defs>
        <path id="ArialMT-30" d="M 266 2259 
Q 266 3072 433 3567 
Q 600 4063 929 4331 
Q 1259 4600 1759 4600 
Q 2128 4600 2406 4451 
Q 2684 4303 2865 4023 
Q 3047 3744 3150 3342 
Q 3253 2941 3253 2259 
Q 3253 1453 3087 958 
Q 2922 463 2592 192 
Q 2263 -78 1759 -78 
Q 1097 -78 719 397 
Q 266 969 266 2259 
z
M 844 2259 
Q 844 1131 1108 757 
Q 1372 384 1759 384 
Q 2147 384 2411 759 
Q 2675 1134 2675 2259 
Q 2675 3391 2411 3762 
Q 2147 4134 1753 4134 
Q 1366 4134 1134 3806 
Q 844 3388 844 2259 
z
" transform="scale(0.015625)"/>
       </defs>
       <use xlink:href="#ArialMT-35"/>
       <use xlink:href="#ArialMT-30" x="55.615234"/>
      </g>
     </g>
    </g>
    <g id="ytick_2">
     <g id="text_10">
      <!-- 100 -->
      <g style="fill: #444444" transform="translate(22.705469 170.406241)scale(0.09 -0.09)">
       <use xlink:href="#ArialMT-31"/>
       <use xlink:href="#ArialMT-30" x="55.615234"/>
       <use xlink:href="#ArialMT-30" x="111.230469"/>
      </g>
     </g>
    </g>
    <g id="ytick_3">
     <g id="text_11">
      <!-- 150 -->
      <g style="fill: #444444" transform="translate(22.705469 135.383713)scale(0.09 -0.09)">
       <use xlink:href="#ArialMT-31"/>
       <use xlink:href="#ArialMT-35" x="55.615234"/>
       <use xlink:href="#ArialMT-30" x="111.230469"/>
      </g>
     </g>
    </g>
    <g id="ytick_4">
     <g id="text_12">
      <!-- 200 -->
      <g style="fill: #444444" transform="translate(22.705469 100.361185)scale(0.09 -0.09)">
       <use xlink:href="#ArialMT-32"/>
       <use xlink:href="#ArialMT-30" x="55.615234"/>
       <use xlink:href="#ArialMT-30" x="111.230469"/>
      </g>
     </g>
    </g>
    <g id="ytick_5">
     <g id="text_13">
      <!-- 250 -->
      <g style="fill: #444444" transform="translate(22.705469 65.338657)scale(0.09 -0.09)">
       <use xlink:href="#ArialMT-32"/>
       <use xlink:href="#ArialMT-35" x="55.615234"/>
       <use xlink:href="#ArialMT-30" x="111.230469"/>
      </g>
     </g>
    </g>
    <g id="ytick_6">
     <g id="text_14">
      <!-- 300 -->
      <g style="fill: #444444" transform="translate(22.705469 30.316129)scale(0.09 -0.09)">
       <defs>
        <path id="ArialMT-33" d="M 269 1209 
L 831 1284 
Q 928 806 1161 595 
Q 1394 384 1728 384 
Q 2125 384 2398 659 
Q 2672 934 2672 1341 
Q 2672 1728 2419 1979 
Q 2166 2231 1775 2231 
Q 1616 2231 1378 2169 
L 1441 2663 
Q 1497 2656 1531 2656 
Q 1891 2656 2178 2843 
Q 2466 3031 2466 3422 
Q 2466 3731 2256 3934 
Q 2047 4138 1716 4138 
Q 1388 4138 1169 3931 
Q 950 3725 888 3313 
L 325 3413 
Q 428 3978 793 4289 
Q 1159 4600 1703 4600 
Q 2078 4600 2393 4439 
Q 2709 4278 2876 4000 
Q 3044 3722 3044 3409 
Q 3044 3113 2884 2869 
Q 2725 2625 2413 2481 
Q 2819 2388 3044 2092 
Q 3269 1797 3269 1353 
Q 3269 753 2831 336 
Q 2394 -81 1725 -81 
Q 1122 -81 723 278 
Q 325 638 269 1209 
z
" transform="scale(0.015625)"/>
       </defs>
       <use xlink:href="#ArialMT-33"/>
       <use xlink:href="#ArialMT-30" x="55.615234"/>
       <use xlink:href="#ArialMT-30" x="111.230469"/>
      </g>
     </g>
    </g>
    <g id="text_15">
     <!-- Trimmed Means of M values (TMM) -->
     <g style="fill: #444444" transform="translate(16.81125 190.194993)rotate(-90)scale(0.09 -0.09)">
      <defs>
       <path id="ArialMT-54" d="M 1659 0 
L 1659 4041 
L 150 4041 
L 150 4581 
L 3781 4581 
L 3781 4041 
L 2266 4041 
L 2266 0 
L 1659 0 
z
" transform="scale(0.015625)"/>
       <path id="ArialMT-72" d="M 416 0 
L 416 3319 
L 922 3319 
L 922 2816 
Q 1116 3169 1280 3281 
Q 1444 3394 1641 3394 
Q 1925 3394 2219 3213 
L 2025 2691 
Q 1819 2813 1613 2813 
Q 1428 2813 1281 2702 
Q 1134 2591 1072 2394 
Q 978 2094 978 1738 
L 978 0 
L 416 0 
z
" transform="scale(0.015625)"/>
       <path id="ArialMT-6d" d="M 422 0 
L 422 3319 
L 925 3319 
L 925 2853 
Q 1081 3097 1340 3245 
Q 1600 3394 1931 3394 
Q 2300 3394 2536 3241 
Q 2772 3088 2869 2813 
Q 3263 3394 3894 3394 
Q 4388 3394 4653 3120 
Q 4919 2847 4919 2278 
L 4919 0 
L 4359 0 
L 4359 2091 
Q 4359 2428 4304 2576 
Q 4250 2725 4106 2815 
Q 3963 2906 3769 2906 
Q 3419 2906 3187 2673 
Q 2956 2441 2956 1928 
L 2956 0 
L 2394 0 
L 2394 2156 
Q 2394 2531 2256 2718 
Q 2119 2906 1806 2906 
Q 1569 2906 1367 2781 
Q 1166 2656 1075 2415 
Q 984 2175 984 1722 
L 984 0 
L 422 0 
z
" transform="scale(0.015625)"/>
       <path id="ArialMT-64" d="M 2575 0 
L 2575 419 
Q 2259 -75 1647 -75 
Q 1250 -75 917 144 
Q 584 363 401 755 
Q 219 1147 219 1656 
Q 219 2153 384 2558 
Q 550 2963 881 3178 
Q 1213 3394 1622 3394 
Q 1922 3394 2156 3267 
Q 2391 3141 2538 2938 
L 2538 4581 
L 3097 4581 
L 3097 0 
L 2575 0 
z
M 797 1656 
Q 797 1019 1065 703 
Q 1334 388 1700 388 
Q 2069 388 2326 689 
Q 2584 991 2584 1609 
Q 2584 2291 2321 2609 
Q 2059 2928 1675 2928 
Q 1300 2928 1048 2622 
Q 797 2316 797 1656 
z
" transform="scale(0.015625)"/>
       <path id="ArialMT-20" transform="scale(0.015625)"/>
       <path id="ArialMT-4d" d="M 475 0 
L 475 4581 
L 1388 4581 
L 2472 1338 
Q 2622 884 2691 659 
Q 2769 909 2934 1394 
L 4031 4581 
L 4847 4581 
L 4847 0 
L 4263 0 
L 4263 3834 
L 2931 0 
L 2384 0 
L 1059 3900 
L 1059 0 
L 475 0 
z
" transform="scale(0.015625)"/>
       <path id="ArialMT-73" d="M 197 991 
L 753 1078 
Q 800 744 1014 566 
Q 1228 388 1613 388 
Q 2000 388 2187 545 
Q 2375 703 2375 916 
Q 2375 1106 2209 1216 
Q 2094 1291 1634 1406 
Q 1016 1563 777 1677 
Q 538 1791 414 1992 
Q 291 2194 291 2438 
Q 291 2659 392 2848 
Q 494 3038 669 3163 
Q 800 3259 1026 3326 
Q 1253 3394 1513 3394 
Q 1903 3394 2198 3281 
Q 2494 3169 2634 2976 
Q 2775 2784 2828 2463 
L 2278 2388 
Q 2241 2644 2061 2787 
Q 1881 2931 1553 2931 
Q 1166 2931 1000 2803 
Q 834 2675 834 2503 
Q 834 2394 903 2306 
Q 972 2216 1119 2156 
Q 1203 2125 1616 2013 
Q 2213 1853 2448 1751 
Q 2684 1650 2818 1456 
Q 2953 1263 2953 975 
Q 2953 694 2789 445 
Q 2625 197 2315 61 
Q 2006 -75 1616 -75 
Q 969 -75 630 194 
Q 291 463 197 991 
z
" transform="scale(0.015625)"/>
       <path id="ArialMT-6f" d="M 213 1659 
Q 213 2581 725 3025 
Q 1153 3394 1769 3394 
Q 2453 3394 2887 2945 
Q 3322 2497 3322 1706 
Q 3322 1066 3130 698 
Q 2938 331 2570 128 
Q 2203 -75 1769 -75 
Q 1072 -75 642 372 
Q 213 819 213 1659 
z
M 791 1659 
Q 791 1022 1069 705 
Q 1347 388 1769 388 
Q 2188 388 2466 706 
Q 2744 1025 2744 1678 
Q 2744 2294 2464 2611 
Q 2184 2928 1769 2928 
Q 1347 2928 1069 2612 
Q 791 2297 791 1659 
z
" transform="scale(0.015625)"/>
       <path id="ArialMT-66" d="M 556 0 
L 556 2881 
L 59 2881 
L 59 3319 
L 556 3319 
L 556 3672 
Q 556 4006 616 4169 
Q 697 4388 901 4523 
Q 1106 4659 1475 4659 
Q 1713 4659 2000 4603 
L 1916 4113 
Q 1741 4144 1584 4144 
Q 1328 4144 1222 4034 
Q 1116 3925 1116 3625 
L 1116 3319 
L 1763 3319 
L 1763 2881 
L 1116 2881 
L 1116 0 
L 556 0 
z
" transform="scale(0.015625)"/>
       <path id="ArialMT-76" d="M 1344 0 
L 81 3319 
L 675 3319 
L 1388 1331 
Q 1503 1009 1600 663 
Q 1675 925 1809 1294 
L 2547 3319 
L 3125 3319 
L 1869 0 
L 1344 0 
z
" transform="scale(0.015625)"/>
       <path id="ArialMT-6c" d="M 409 0 
L 409 4581 
L 972 4581 
L 972 0 
L 409 0 
z
" transform="scale(0.015625)"/>
       <path id="ArialMT-75" d="M 2597 0 
L 2597 488 
Q 2209 -75 1544 -75 
Q 1250 -75 995 37 
Q 741 150 617 320 
Q 494 491 444 738 
Q 409 903 409 1263 
L 409 3319 
L 972 3319 
L 972 1478 
Q 972 1038 1006 884 
Q 1059 663 1231 536 
Q 1403 409 1656 409 
Q 1909 409 2131 539 
Q 2353 669 2445 892 
Q 2538 1116 2538 1541 
L 2538 3319 
L 3100 3319 
L 3100 0 
L 2597 0 
z
" transform="scale(0.015625)"/>
       <path id="ArialMT-28" d="M 1497 -1347 
Q 1031 -759 709 28 
Q 388 816 388 1659 
Q 388 2403 628 3084 
Q 909 3875 1497 4659 
L 1900 4659 
Q 1522 4009 1400 3731 
Q 1209 3300 1100 2831 
Q 966 2247 966 1656 
Q 966 153 1900 -1347 
L 1497 -1347 
z
" transform="scale(0.015625)"/>
       <path id="ArialMT-29" d="M 791 -1347 
L 388 -1347 
Q 1322 153 1322 1656 
Q 1322 2244 1188 2822 
Q 1081 3291 891 3722 
Q 769 4003 388 4659 
L 791 4659 
Q 1378 3875 1659 3084 
Q 1900 2403 1900 1659 
Q 1900 816 1576 28 
Q 1253 -759 791 -1347 
z
" transform="scale(0.015625)"/>
      </defs>
      <use xlink:href="#ArialMT-54"/>
      <use xlink:href="#ArialMT-72" x="57.333984"/>
      <use xlink:href="#ArialMT-69" x="90.634766"/>
      <use xlink:href="#ArialMT-6d" x="112.851562"/>
      <use xlink:href="#ArialMT-6d" x="196.152344"/>
      <use xlink:href="#ArialMT-65" x="279.453125"/>
      <use xlink:href="#ArialMT-64" x="335.068359"/>
      <use xlink:href="#ArialMT-20" x="390.683594"/>
      <use xlink:href="#ArialMT-4d" x="418.466797"/>
      <use xlink:href="#ArialMT-65" x="501.767578"/>
      <use xlink:href="#ArialMT-61" x="557.382812"/>
      <use xlink:href="#ArialMT-6e" x="612.998047"/>
      <use xlink:href="#ArialMT-73" x="668.613281"/>
      <use xlink:href="#ArialMT-20" x="718.613281"/>
      <use xlink:href="#ArialMT-6f" x="746.396484"/>
      <use xlink:href="#ArialMT-66" x="802.011719"/>
      <use xlink:href="#ArialMT-20" x="829.794922"/>
      <use xlink:href="#ArialMT-4d" x="857.578125"/>
      <use xlink:href="#ArialMT-20" x="940.878906"/>
      <use xlink:href="#ArialMT-76" x="968.662109"/>
      <use xlink:href="#ArialMT-61" x="1018.662109"/>
      <use xlink:href="#ArialMT-6c" x="1074.277344"/>
      <use xlink:href="#ArialMT-75" x="1096.494141"/>
      <use xlink:href="#ArialMT-65" x="1152.109375"/>
      <use xlink:href="#ArialMT-73" x="1207.724609"/>
      <use xlink:href="#ArialMT-20" x="1257.724609"/>
      <use xlink:href="#ArialMT-28" x="1285.507812"/>
      <use xlink:href="#ArialMT-54" x="1318.808594"/>
      <use xlink:href="#ArialMT-4d" x="1379.892578"/>
      <use xlink:href="#ArialMT-4d" x="1463.193359"/>
      <use xlink:href="#ArialMT-29" x="1546.494141"/>
     </g>
    </g>
   </g>
   <g id="PolyCollection_1">
    <defs>
     <path id="m7c6603cfe0" d="M 85.506894 -51.655828 
L 73.689709 -51.655828 
L 73.546782 -52.052168 
L 73.406378 -52.448507 
L 73.26869 -52.844846 
L 73.133899 -53.241186 
L 73.002169 -53.637525 
L 72.87365 -54.033864 
L 72.748474 -54.430203 
L 72.626758 -54.826543 
L 72.508603 -55.222882 
L 72.394091 -55.619221 
L 72.283291 -56.015561 
L 72.176252 -56.4119 
L 72.073008 -56.808239 
L 71.973578 -57.204579 
L 71.877964 -57.600918 
L 71.786153 -57.997257 
L 71.698119 -58.393596 
L 71.613817 -58.789936 
L 71.533195 -59.186275 
L 71.456182 -59.582614 
L 71.382697 -59.978954 
L 71.312646 -60.375293 
L 71.245927 -60.771632 
L 71.182422 -61.167972 
L 71.122007 -61.564311 
L 71.064547 -61.96065 
L 71.009898 -62.356989 
L 70.95791 -62.753329 
L 70.908423 -63.149668 
L 70.861272 -63.546007 
L 70.816286 -63.942347 
L 70.77329 -64.338686 
L 70.732102 -64.735025 
L 70.692539 -65.131364 
L 70.654415 -65.527704 
L 70.617542 -65.924043 
L 70.581734 -66.320382 
L 70.546802 -66.716722 
L 70.512562 -67.113061 
L 70.478832 -67.5094 
L 70.445434 -67.90574 
L 70.412197 -68.302079 
L 70.378957 -68.698418 
L 70.345557 -69.094757 
L 70.311853 -69.491097 
L 70.277712 -69.887436 
L 70.243013 -70.283775 
L 70.207652 -70.680115 
L 70.171541 -71.076454 
L 70.13461 -71.472793 
L 70.096809 -71.869133 
L 70.058109 -72.265472 
L 70.018504 -72.661811 
L 69.978012 -73.05815 
L 69.936673 -73.45449 
L 69.894557 -73.850829 
L 69.851758 -74.247168 
L 69.808398 -74.643508 
L 69.764627 -75.039847 
L 69.72062 -75.436186 
L 69.676584 -75.832526 
L 69.632748 -76.228865 
L 69.589371 -76.625204 
L 69.546736 -77.021543 
L 69.505151 -77.417883 
L 69.464945 -77.814222 
L 69.426471 -78.210561 
L 69.390097 -78.606901 
L 69.356209 -79.00324 
L 69.325209 -79.399579 
L 69.297507 -79.795918 
L 69.273522 -80.192258 
L 69.253679 -80.588597 
L 69.238403 -80.984936 
L 69.228119 -81.381276 
L 69.223243 -81.777615 
L 69.224187 -82.173954 
L 69.231345 -82.570294 
L 69.245099 -82.966633 
L 69.265809 -83.362972 
L 69.293812 -83.759311 
L 69.329418 -84.155651 
L 69.372908 -84.55199 
L 69.424531 -84.948329 
L 69.484499 -85.344669 
L 69.552989 -85.741008 
L 69.630134 -86.137347 
L 69.71603 -86.533687 
L 69.810726 -86.930026 
L 69.914231 -87.326365 
L 70.026504 -87.722704 
L 70.147464 -88.119044 
L 70.276982 -88.515383 
L 70.414885 -88.911722 
L 70.560956 -89.308062 
L 70.714936 -89.704401 
L 70.876524 -90.10074 
L 71.045381 -90.49708 
L 71.22113 -90.893419 
L 87.975473 -90.893419 
L 87.975473 -90.893419 
L 88.151222 -90.49708 
L 88.320079 -90.10074 
L 88.481667 -89.704401 
L 88.635647 -89.308062 
L 88.781718 -88.911722 
L 88.919621 -88.515383 
L 89.049139 -88.119044 
L 89.170099 -87.722704 
L 89.282372 -87.326365 
L 89.385877 -86.930026 
L 89.480573 -86.533687 
L 89.566469 -86.137347 
L 89.643614 -85.741008 
L 89.712104 -85.344669 
L 89.772072 -84.948329 
L 89.823695 -84.55199 
L 89.867185 -84.155651 
L 89.902791 -83.759311 
L 89.930794 -83.362972 
L 89.951504 -82.966633 
L 89.965257 -82.570294 
L 89.972416 -82.173954 
L 89.97336 -81.777615 
L 89.968484 -81.381276 
L 89.9582 -80.984936 
L 89.942924 -80.588597 
L 89.923081 -80.192258 
L 89.899096 -79.795918 
L 89.871394 -79.399579 
L 89.840394 -79.00324 
L 89.806506 -78.606901 
L 89.770132 -78.210561 
L 89.731658 -77.814222 
L 89.691452 -77.417883 
L 89.649867 -77.021543 
L 89.607232 -76.625204 
L 89.563855 -76.228865 
L 89.520019 -75.832526 
L 89.475982 -75.436186 
L 89.431976 -75.039847 
L 89.388205 -74.643508 
L 89.344845 -74.247168 
L 89.302046 -73.850829 
L 89.25993 -73.45449 
L 89.218591 -73.05815 
L 89.178098 -72.661811 
L 89.138493 -72.265472 
L 89.099794 -71.869133 
L 89.061993 -71.472793 
L 89.025062 -71.076454 
L 88.988951 -70.680115 
L 88.95359 -70.283775 
L 88.918891 -69.887436 
L 88.88475 -69.491097 
L 88.851046 -69.094757 
L 88.817646 -68.698418 
L 88.784406 -68.302079 
L 88.751169 -67.90574 
L 88.717771 -67.5094 
L 88.684041 -67.113061 
L 88.649801 -66.716722 
L 88.614869 -66.320382 
L 88.57906 -65.924043 
L 88.542188 -65.527704 
L 88.504064 -65.131364 
L 88.464501 -64.735025 
L 88.423313 -64.338686 
L 88.380317 -63.942347 
L 88.335331 -63.546007 
L 88.28818 -63.149668 
L 88.238693 -62.753329 
L 88.186705 -62.356989 
L 88.132056 -61.96065 
L 88.074596 -61.564311 
L 88.014181 -61.167972 
L 87.950676 -60.771632 
L 87.883957 -60.375293 
L 87.813906 -59.978954 
L 87.740421 -59.582614 
L 87.663408 -59.186275 
L 87.582785 -58.789936 
L 87.498484 -58.393596 
L 87.41045 -57.997257 
L 87.318639 -57.600918 
L 87.223025 -57.204579 
L 87.123595 -56.808239 
L 87.020351 -56.4119 
L 86.913312 -56.015561 
L 86.802512 -55.619221 
L 86.688 -55.222882 
L 86.569845 -54.826543 
L 86.448129 -54.430203 
L 86.322953 -54.033864 
L 86.194434 -53.637525 
L 86.062704 -53.241186 
L 85.927913 -52.844846 
L 85.790225 -52.448507 
L 85.649821 -52.052168 
L 85.506894 -51.655828 
z
" style="stroke: #999999; stroke-width: 2"/>
    </defs>
    <g clip-path="url(#p81ad9f085b)">
     <use xlink:href="#m7c6603cfe0" x="0" y="255.11811" style="fill: #ffffff; stroke: #999999; stroke-width: 2"/>
    </g>
   </g>
   <g id="PolyCollection_2">
    <defs>
     <path id="m361eb30a88" d="M 148.853177 -74.782448 
L 139.856631 -74.782448 
L 139.684391 -75.257672 
L 139.507959 -75.732895 
L 139.327264 -76.208119 
L 139.142251 -76.683342 
L 138.952895 -77.158566 
L 138.7592 -77.633789 
L 138.561205 -78.109013 
L 138.35899 -78.584236 
L 138.152681 -79.05946 
L 137.942452 -79.534683 
L 137.728529 -80.009907 
L 137.511197 -80.48513 
L 137.290796 -80.960354 
L 137.067731 -81.435577 
L 136.842464 -81.910801 
L 136.615522 -82.386024 
L 136.387494 -82.861248 
L 136.159024 -83.336471 
L 135.930819 -83.811695 
L 135.703635 -84.286918 
L 135.47828 -84.762142 
L 135.255602 -85.237365 
L 135.036491 -85.712589 
L 134.821863 -86.187812 
L 134.612659 -86.663036 
L 134.409833 -87.138259 
L 134.214343 -87.613483 
L 134.027142 -88.088706 
L 133.849171 -88.56393 
L 133.681343 -89.039153 
L 133.524538 -89.514377 
L 133.379592 -89.9896 
L 133.247287 -90.464824 
L 133.128339 -90.940047 
L 133.023395 -91.415271 
L 132.933021 -91.890494 
L 132.857693 -92.365718 
L 132.797798 -92.840941 
L 132.753618 -93.316165 
L 132.725336 -93.791388 
L 132.713027 -94.266612 
L 132.716656 -94.741835 
L 132.736081 -95.217059 
L 132.77105 -95.692282 
L 132.821203 -96.167506 
L 132.88608 -96.642729 
L 132.965118 -97.117953 
L 133.057662 -97.593176 
L 133.162969 -98.0684 
L 133.280218 -98.543623 
L 133.408514 -99.018847 
L 133.546904 -99.49407 
L 133.69438 -99.969294 
L 133.849894 -100.444517 
L 134.012368 -100.919741 
L 134.180706 -101.394964 
L 134.353802 -101.870188 
L 134.530557 -102.345411 
L 134.709883 -102.820635 
L 134.890723 -103.295858 
L 135.072051 -103.771082 
L 135.252892 -104.246305 
L 135.432324 -104.721529 
L 135.609489 -105.196752 
L 135.783601 -105.671976 
L 135.953952 -106.147199 
L 136.119918 -106.622423 
L 136.280962 -107.097646 
L 136.436638 -107.57287 
L 136.586594 -108.048093 
L 136.730572 -108.523317 
L 136.868407 -108.99854 
L 137.000026 -109.473764 
L 137.125448 -109.948987 
L 137.244777 -110.424211 
L 137.358198 -110.899434 
L 137.465972 -111.374658 
L 137.568432 -111.849881 
L 137.665971 -112.325105 
L 137.759041 -112.800328 
L 137.848136 -113.275552 
L 137.933794 -113.750775 
L 138.016578 -114.225999 
L 138.097076 -114.701222 
L 138.175886 -115.176446 
L 138.253609 -115.651669 
L 138.330841 -116.126893 
L 138.408166 -116.602116 
L 138.486146 -117.07734 
L 138.565312 -117.552564 
L 138.646165 -118.027787 
L 138.72916 -118.503011 
L 138.81471 -118.978234 
L 138.903173 -119.453458 
L 138.994858 -119.928681 
L 139.090012 -120.403905 
L 139.188827 -120.879128 
L 139.291434 -121.354352 
L 139.397904 -121.829575 
L 149.311905 -121.829575 
L 149.311905 -121.829575 
L 149.418375 -121.354352 
L 149.520982 -120.879128 
L 149.619797 -120.403905 
L 149.714951 -119.928681 
L 149.806635 -119.453458 
L 149.895099 -118.978234 
L 149.980648 -118.503011 
L 150.063644 -118.027787 
L 150.144496 -117.552564 
L 150.223663 -117.07734 
L 150.301643 -116.602116 
L 150.378968 -116.126893 
L 150.4562 -115.651669 
L 150.533923 -115.176446 
L 150.612733 -114.701222 
L 150.693231 -114.225999 
L 150.776015 -113.750775 
L 150.861673 -113.275552 
L 150.950768 -112.800328 
L 151.043838 -112.325105 
L 151.141377 -111.849881 
L 151.243837 -111.374658 
L 151.351611 -110.899434 
L 151.465032 -110.424211 
L 151.58436 -109.948987 
L 151.709783 -109.473764 
L 151.841402 -108.99854 
L 151.979237 -108.523317 
L 152.123214 -108.048093 
L 152.27317 -107.57287 
L 152.428847 -107.097646 
L 152.58989 -106.622423 
L 152.755856 -106.147199 
L 152.926208 -105.671976 
L 153.10032 -105.196752 
L 153.277485 -104.721529 
L 153.456917 -104.246305 
L 153.637758 -103.771082 
L 153.819086 -103.295858 
L 153.999925 -102.820635 
L 154.179252 -102.345411 
L 154.356006 -101.870188 
L 154.529103 -101.394964 
L 154.69744 -100.919741 
L 154.859915 -100.444517 
L 155.015429 -99.969294 
L 155.162905 -99.49407 
L 155.301294 -99.018847 
L 155.429591 -98.543623 
L 155.54684 -98.0684 
L 155.652147 -97.593176 
L 155.744691 -97.117953 
L 155.823729 -96.642729 
L 155.888606 -96.167506 
L 155.938759 -95.692282 
L 155.973728 -95.217059 
L 155.993152 -94.741835 
L 155.996782 -94.266612 
L 155.984472 -93.791388 
L 155.956191 -93.316165 
L 155.912011 -92.840941 
L 155.852115 -92.365718 
L 155.776788 -91.890494 
L 155.686414 -91.415271 
L 155.58147 -90.940047 
L 155.462522 -90.464824 
L 155.330217 -89.9896 
L 155.185271 -89.514377 
L 155.028466 -89.039153 
L 154.860638 -88.56393 
L 154.682667 -88.088706 
L 154.495466 -87.613483 
L 154.299976 -87.138259 
L 154.097149 -86.663036 
L 153.887945 -86.187812 
L 153.673318 -85.712589 
L 153.454207 -85.237365 
L 153.231529 -84.762142 
L 153.006174 -84.286918 
L 152.77899 -83.811695 
L 152.550784 -83.336471 
L 152.322315 -82.861248 
L 152.094286 -82.386024 
L 151.867345 -81.910801 
L 151.642078 -81.435577 
L 151.419013 -80.960354 
L 151.198612 -80.48513 
L 150.98128 -80.009907 
L 150.767357 -79.534683 
L 150.557128 -79.05946 
L 150.350819 -78.584236 
L 150.148604 -78.109013 
L 149.950609 -77.633789 
L 149.756914 -77.158566 
L 149.567558 -76.683342 
L 149.382545 -76.208119 
L 149.201849 -75.732895 
L 149.025418 -75.257672 
L 148.853177 -74.782448 
z
" style="stroke: #999999; stroke-width: 2"/>
    </defs>
    <g clip-path="url(#p81ad9f085b)">
     <use xlink:href="#m361eb30a88" x="0" y="255.11811" style="fill: #ffffff; stroke: #999999; stroke-width: 2"/>
    </g>
   </g>
   <g id="PolyCollection_3">
    <defs>
     <path id="m3ede1784d1" d="M 212.722441 -140.366837 
L 205.500574 -140.366837 
L 205.349419 -141.193242 
L 205.196615 -142.019647 
L 205.042481 -142.846052 
L 204.887364 -143.672457 
L 204.731634 -144.498862 
L 204.575689 -145.325267 
L 204.419952 -146.151671 
L 204.264869 -146.978076 
L 204.110907 -147.804481 
L 203.958553 -148.630886 
L 203.808309 -149.457291 
L 203.660693 -150.283696 
L 203.516228 -151.110101 
L 203.375447 -151.936506 
L 203.238881 -152.762911 
L 203.107059 -153.589316 
L 202.980501 -154.415721 
L 202.859715 -155.242125 
L 202.745188 -156.06853 
L 202.637387 -156.894935 
L 202.536747 -157.72134 
L 202.443674 -158.547745 
L 202.358534 -159.37415 
L 202.281654 -160.200555 
L 202.213314 -161.02696 
L 202.153749 -161.853365 
L 202.103142 -162.67977 
L 202.061626 -163.506175 
L 202.02928 -164.33258 
L 202.00613 -165.158984 
L 201.99215 -165.985389 
L 201.987262 -166.811794 
L 201.991338 -167.638199 
L 202.004201 -168.464604 
L 202.025631 -169.291009 
L 202.055366 -170.117414 
L 202.093106 -170.943819 
L 202.138519 -171.770224 
L 202.191242 -172.596629 
L 202.25089 -173.423034 
L 202.317057 -174.249438 
L 202.389324 -175.075843 
L 202.467259 -175.902248 
L 202.550427 -176.728653 
L 202.63839 -177.555058 
L 202.730713 -178.381463 
L 202.826966 -179.207868 
L 202.926727 -180.034273 
L 203.029587 -180.860678 
L 203.135149 -181.687083 
L 203.243031 -182.513488 
L 203.352867 -183.339893 
L 203.464308 -184.166297 
L 203.577022 -184.992702 
L 203.690693 -185.819107 
L 203.805023 -186.645512 
L 203.919727 -187.471917 
L 204.034539 -188.298322 
L 204.149204 -189.124727 
L 204.263481 -189.951132 
L 204.377142 -190.777537 
L 204.489969 -191.603942 
L 204.601755 -192.430347 
L 204.712302 -193.256751 
L 204.821423 -194.083156 
L 204.928939 -194.909561 
L 205.03468 -195.735966 
L 205.138485 -196.562371 
L 205.240204 -197.388776 
L 205.339696 -198.215181 
L 205.436833 -199.041586 
L 205.531499 -199.867991 
L 205.623591 -200.694396 
L 205.713021 -201.520801 
L 205.799717 -202.347206 
L 205.883624 -203.17361 
L 205.964707 -204.000015 
L 206.042948 -204.82642 
L 206.118351 -205.652825 
L 206.190939 -206.47923 
L 206.260757 -207.305635 
L 206.32787 -208.13204 
L 206.392365 -208.958445 
L 206.454348 -209.78485 
L 206.513944 -210.611255 
L 206.571295 -211.43766 
L 206.626559 -212.264064 
L 206.679909 -213.090469 
L 206.731528 -213.916874 
L 206.781608 -214.743279 
L 206.83035 -215.569684 
L 206.877956 -216.396089 
L 206.92463 -217.222494 
L 206.970573 -218.048899 
L 207.015983 -218.875304 
L 207.061047 -219.701709 
L 207.105945 -220.528114 
L 207.150843 -221.354518 
L 207.19589 -222.180923 
L 211.027125 -222.180923 
L 211.027125 -222.180923 
L 211.072172 -221.354518 
L 211.117069 -220.528114 
L 211.161967 -219.701709 
L 211.207032 -218.875304 
L 211.252441 -218.048899 
L 211.298385 -217.222494 
L 211.345058 -216.396089 
L 211.392664 -215.569684 
L 211.441406 -214.743279 
L 211.491487 -213.916874 
L 211.543106 -213.090469 
L 211.596455 -212.264064 
L 211.65172 -211.43766 
L 211.709071 -210.611255 
L 211.768666 -209.78485 
L 211.830649 -208.958445 
L 211.895145 -208.13204 
L 211.962258 -207.305635 
L 212.032076 -206.47923 
L 212.104664 -205.652825 
L 212.180066 -204.82642 
L 212.258307 -204.000015 
L 212.33939 -203.17361 
L 212.423298 -202.347206 
L 212.509994 -201.520801 
L 212.599424 -200.694396 
L 212.691515 -199.867991 
L 212.786181 -199.041586 
L 212.883319 -198.215181 
L 212.982811 -197.388776 
L 213.08453 -196.562371 
L 213.188335 -195.735966 
L 213.294075 -194.909561 
L 213.401591 -194.083156 
L 213.510712 -193.256751 
L 213.62126 -192.430347 
L 213.733046 -191.603942 
L 213.845873 -190.777537 
L 213.959533 -189.951132 
L 214.073811 -189.124727 
L 214.188476 -188.298322 
L 214.303287 -187.471917 
L 214.417992 -186.645512 
L 214.532321 -185.819107 
L 214.645993 -184.992702 
L 214.758706 -184.166297 
L 214.870148 -183.339893 
L 214.979984 -182.513488 
L 215.087866 -181.687083 
L 215.193428 -180.860678 
L 215.296288 -180.034273 
L 215.396049 -179.207868 
L 215.492301 -178.381463 
L 215.584624 -177.555058 
L 215.672587 -176.728653 
L 215.755755 -175.902248 
L 215.833691 -175.075843 
L 215.905957 -174.249438 
L 215.972125 -173.423034 
L 216.031773 -172.596629 
L 216.084496 -171.770224 
L 216.129909 -170.943819 
L 216.167649 -170.117414 
L 216.197384 -169.291009 
L 216.218814 -168.464604 
L 216.231677 -167.638199 
L 216.235752 -166.811794 
L 216.230864 -165.985389 
L 216.216884 -165.158984 
L 216.193735 -164.33258 
L 216.161388 -163.506175 
L 216.119872 -162.67977 
L 216.069266 -161.853365 
L 216.009701 -161.02696 
L 215.941361 -160.200555 
L 215.864481 -159.37415 
L 215.779341 -158.547745 
L 215.686268 -157.72134 
L 215.585628 -156.894935 
L 215.477826 -156.06853 
L 215.3633 -155.242125 
L 215.242513 -154.415721 
L 215.115956 -153.589316 
L 214.984134 -152.762911 
L 214.847568 -151.936506 
L 214.706787 -151.110101 
L 214.562322 -150.283696 
L 214.414705 -149.457291 
L 214.264462 -148.630886 
L 214.112108 -147.804481 
L 213.958146 -146.978076 
L 213.803063 -146.151671 
L 213.647326 -145.325267 
L 213.491381 -144.498862 
L 213.335651 -143.672457 
L 213.180533 -142.846052 
L 213.0264 -142.019647 
L 212.873596 -141.193242 
L 212.722441 -140.366837 
z
" style="stroke: #999999; stroke-width: 2"/>
    </defs>
    <g clip-path="url(#p81ad9f085b)">
     <use xlink:href="#m3ede1784d1" x="0" y="255.11811" style="fill: #ffffff; stroke: #999999; stroke-width: 2"/>
    </g>
   </g>
   <g id="PolyCollection_4">
    <defs>
     <path id="m3ffce336c4" d="M 278.375612 -49.837187 
L 269.360609 -49.837187 
L 269.17651 -50.294367 
L 268.989581 -50.751548 
L 268.799961 -51.208729 
L 268.607807 -51.665909 
L 268.4133 -52.12309 
L 268.216643 -52.58027 
L 268.018068 -53.037451 
L 267.817832 -53.494632 
L 267.616226 -53.951812 
L 267.413568 -54.408993 
L 267.210209 -54.866173 
L 267.006528 -55.323354 
L 266.802937 -55.780535 
L 266.599873 -56.237715 
L 266.397798 -56.694896 
L 266.197197 -57.152076 
L 265.998572 -57.609257 
L 265.802439 -58.066438 
L 265.609323 -58.523618 
L 265.419751 -58.980799 
L 265.234246 -59.437979 
L 265.053324 -59.89516 
L 264.877484 -60.352341 
L 264.707203 -60.809521 
L 264.542932 -61.266702 
L 264.385087 -61.723882 
L 264.234045 -62.181063 
L 264.090138 -62.638244 
L 263.953652 -63.095424 
L 263.82482 -63.552605 
L 263.70382 -64.009785 
L 263.590776 -64.466966 
L 263.485754 -64.924147 
L 263.388764 -65.381327 
L 263.299761 -65.838508 
L 263.218649 -66.295688 
L 263.145279 -66.752869 
L 263.079462 -67.21005 
L 263.020964 -67.66723 
L 262.96952 -68.124411 
L 262.924837 -68.581591 
L 262.886598 -69.038772 
L 262.854475 -69.495953 
L 262.828132 -69.953133 
L 262.807232 -70.410314 
L 262.791449 -70.867494 
L 262.780467 -71.324675 
L 262.773994 -71.781856 
L 262.771764 -72.239036 
L 262.773541 -72.696217 
L 262.779125 -73.153397 
L 262.788358 -73.610578 
L 262.801121 -74.067759 
L 262.817338 -74.524939 
L 262.83698 -74.98212 
L 262.860056 -75.4393 
L 262.886622 -75.896481 
L 262.91677 -76.353662 
L 262.950631 -76.810842 
L 262.988364 -77.268023 
L 263.03016 -77.725203 
L 263.07623 -78.182384 
L 263.126803 -78.639565 
L 263.18212 -79.096745 
L 263.242425 -79.553926 
L 263.307964 -80.011106 
L 263.378975 -80.468287 
L 263.455683 -80.925468 
L 263.538299 -81.382648 
L 263.627008 -81.839829 
L 263.721973 -82.297009 
L 263.823323 -82.75419 
L 263.931156 -83.211371 
L 264.045534 -83.668551 
L 264.166482 -84.125732 
L 264.293988 -84.582912 
L 264.427999 -85.040093 
L 264.568427 -85.497274 
L 264.715143 -85.954454 
L 264.867985 -86.411635 
L 265.026754 -86.868815 
L 265.191222 -87.325996 
L 265.361129 -87.783177 
L 265.536188 -88.240357 
L 265.716089 -88.697538 
L 265.9005 -89.154718 
L 266.089072 -89.611899 
L 266.28144 -90.06908 
L 266.477225 -90.52626 
L 266.676039 -90.983441 
L 266.877488 -91.440621 
L 267.081172 -91.897802 
L 267.286686 -92.354983 
L 267.493627 -92.812163 
L 267.701591 -93.269344 
L 267.910175 -93.726524 
L 268.118981 -94.183705 
L 268.327616 -94.640886 
L 268.535691 -95.098066 
L 279.20053 -95.098066 
L 279.20053 -95.098066 
L 279.408604 -94.640886 
L 279.617239 -94.183705 
L 279.826045 -93.726524 
L 280.03463 -93.269344 
L 280.242593 -92.812163 
L 280.449534 -92.354983 
L 280.655049 -91.897802 
L 280.858732 -91.440621 
L 281.060181 -90.983441 
L 281.258996 -90.52626 
L 281.454781 -90.06908 
L 281.647148 -89.611899 
L 281.83572 -89.154718 
L 282.020132 -88.697538 
L 282.200033 -88.240357 
L 282.375092 -87.783177 
L 282.544998 -87.325996 
L 282.709466 -86.868815 
L 282.868236 -86.411635 
L 283.021077 -85.954454 
L 283.167794 -85.497274 
L 283.308221 -85.040093 
L 283.442233 -84.582912 
L 283.569738 -84.125732 
L 283.690687 -83.668551 
L 283.805065 -83.211371 
L 283.912898 -82.75419 
L 284.014248 -82.297009 
L 284.109212 -81.839829 
L 284.197922 -81.382648 
L 284.280537 -80.925468 
L 284.357246 -80.468287 
L 284.428256 -80.011106 
L 284.493795 -79.553926 
L 284.5541 -79.096745 
L 284.609417 -78.639565 
L 284.65999 -78.182384 
L 284.706061 -77.725203 
L 284.747857 -77.268023 
L 284.78559 -76.810842 
L 284.81945 -76.353662 
L 284.849598 -75.896481 
L 284.876164 -75.4393 
L 284.899241 -74.98212 
L 284.918882 -74.524939 
L 284.9351 -74.067759 
L 284.947862 -73.610578 
L 284.957095 -73.153397 
L 284.96268 -72.696217 
L 284.964456 -72.239036 
L 284.962226 -71.781856 
L 284.955753 -71.324675 
L 284.944772 -70.867494 
L 284.928988 -70.410314 
L 284.908089 -69.953133 
L 284.881745 -69.495953 
L 284.849622 -69.038772 
L 284.811384 -68.581591 
L 284.7667 -68.124411 
L 284.715256 -67.66723 
L 284.656759 -67.21005 
L 284.590941 -66.752869 
L 284.517572 -66.295688 
L 284.436459 -65.838508 
L 284.347456 -65.381327 
L 284.250467 -64.924147 
L 284.145444 -64.466966 
L 284.0324 -64.009785 
L 283.911401 -63.552605 
L 283.782568 -63.095424 
L 283.646082 -62.638244 
L 283.502176 -62.181063 
L 283.351133 -61.723882 
L 283.193288 -61.266702 
L 283.029017 -60.809521 
L 282.858737 -60.352341 
L 282.682897 -59.89516 
L 282.501975 -59.437979 
L 282.31647 -58.980799 
L 282.126897 -58.523618 
L 281.933781 -58.066438 
L 281.737649 -57.609257 
L 281.539024 -57.152076 
L 281.338423 -56.694896 
L 281.136348 -56.237715 
L 280.933283 -55.780535 
L 280.729692 -55.323354 
L 280.526012 -54.866173 
L 280.322652 -54.408993 
L 280.119994 -53.951812 
L 279.918388 -53.494632 
L 279.718153 -53.037451 
L 279.519577 -52.58027 
L 279.32292 -52.12309 
L 279.128413 -51.665909 
L 278.93626 -51.208729 
L 278.746639 -50.751548 
L 278.559711 -50.294367 
L 278.375612 -49.837187 
z
" style="stroke: #999999; stroke-width: 2"/>
    </defs>
    <g clip-path="url(#p81ad9f085b)">
     <use xlink:href="#m3ffce336c4" x="0" y="255.11811" style="fill: #ffffff; stroke: #999999; stroke-width: 2"/>
    </g>
   </g>
   <g id="PolyCollection_5">
    <defs>
     <path id="mcc053ee39f" d="M 353.961153 -70.869091 
L 323.288273 -70.869091 
L 323.117151 -71.04198 
L 322.954753 -71.214869 
L 322.801026 -71.387758 
L 322.655877 -71.560647 
L 322.519171 -71.733536 
L 322.390737 -71.906425 
L 322.270364 -72.079314 
L 322.157804 -72.252203 
L 322.052778 -72.425092 
L 321.95497 -72.597981 
L 321.864039 -72.77087 
L 321.779612 -72.943759 
L 321.701293 -73.116648 
L 321.628665 -73.289537 
L 321.561289 -73.462426 
L 321.498712 -73.635315 
L 321.440466 -73.808204 
L 321.386075 -73.981093 
L 321.335053 -74.153982 
L 321.286915 -74.326871 
L 321.241171 -74.49976 
L 321.197338 -74.672649 
L 321.154936 -74.845538 
L 321.113496 -75.018427 
L 321.07256 -75.191316 
L 321.031686 -75.364205 
L 320.99045 -75.537094 
L 320.948447 -75.709983 
L 320.905298 -75.882872 
L 320.860647 -76.055761 
L 320.814165 -76.22865 
L 320.765556 -76.401539 
L 320.714551 -76.574428 
L 320.660918 -76.747317 
L 320.604456 -76.920206 
L 320.545001 -77.093095 
L 320.482426 -77.265984 
L 320.416639 -77.438873 
L 320.347588 -77.611762 
L 320.275258 -77.784651 
L 320.199671 -77.95754 
L 320.120888 -78.130429 
L 320.039008 -78.303318 
L 319.954166 -78.476207 
L 319.866535 -78.649096 
L 319.776321 -78.821985 
L 319.683767 -78.994874 
L 319.589148 -79.167763 
L 319.492772 -79.340652 
L 319.394975 -79.513541 
L 319.296124 -79.68643 
L 319.196612 -79.859319 
L 319.096857 -80.032208 
L 318.997301 -80.205097 
L 318.898405 -80.377986 
L 318.800649 -80.550875 
L 318.704531 -80.723764 
L 318.610562 -80.896653 
L 318.519264 -81.069542 
L 318.431169 -81.242431 
L 318.346814 -81.41532 
L 318.266743 -81.588209 
L 318.191498 -81.761098 
L 318.121623 -81.933987 
L 318.057657 -82.106876 
L 318.000133 -82.279765 
L 317.949574 -82.452654 
L 317.906495 -82.625544 
L 317.871394 -82.798433 
L 317.844756 -82.971322 
L 317.827045 -83.144211 
L 317.818706 -83.3171 
L 317.820162 -83.489989 
L 317.831808 -83.662878 
L 317.854017 -83.835767 
L 317.887129 -84.008656 
L 317.931455 -84.181545 
L 317.987276 -84.354434 
L 318.054837 -84.527323 
L 318.13435 -84.700212 
L 318.225989 -84.873101 
L 318.329893 -85.04599 
L 318.446163 -85.218879 
L 318.574861 -85.391768 
L 318.716011 -85.564657 
L 318.869596 -85.737546 
L 319.035561 -85.910435 
L 319.213812 -86.083324 
L 319.404215 -86.256213 
L 319.606598 -86.429102 
L 319.820751 -86.601991 
L 320.046425 -86.77488 
L 320.283339 -86.947769 
L 320.531171 -87.120658 
L 320.789571 -87.293547 
L 321.058152 -87.466436 
L 321.336499 -87.639325 
L 321.624167 -87.812214 
L 321.920683 -87.985103 
L 355.328744 -87.985103 
L 355.328744 -87.985103 
L 355.62526 -87.812214 
L 355.912927 -87.639325 
L 356.191274 -87.466436 
L 356.459855 -87.293547 
L 356.718255 -87.120658 
L 356.966088 -86.947769 
L 357.203001 -86.77488 
L 357.428676 -86.601991 
L 357.642828 -86.429102 
L 357.845211 -86.256213 
L 358.035614 -86.083324 
L 358.213865 -85.910435 
L 358.37983 -85.737546 
L 358.533415 -85.564657 
L 358.674565 -85.391768 
L 358.803263 -85.218879 
L 358.919533 -85.04599 
L 359.023438 -84.873101 
L 359.115077 -84.700212 
L 359.194589 -84.527323 
L 359.26215 -84.354434 
L 359.317971 -84.181545 
L 359.362298 -84.008656 
L 359.39541 -83.835767 
L 359.417618 -83.662878 
L 359.429265 -83.489989 
L 359.43072 -83.3171 
L 359.422382 -83.144211 
L 359.404671 -82.971322 
L 359.378032 -82.798433 
L 359.342932 -82.625544 
L 359.299852 -82.452654 
L 359.249294 -82.279765 
L 359.191769 -82.106876 
L 359.127803 -81.933987 
L 359.057928 -81.761098 
L 358.982684 -81.588209 
L 358.902612 -81.41532 
L 358.818258 -81.242431 
L 358.730162 -81.069542 
L 358.638864 -80.896653 
L 358.544895 -80.723764 
L 358.448777 -80.550875 
L 358.351022 -80.377986 
L 358.252125 -80.205097 
L 358.152569 -80.032208 
L 358.052814 -79.859319 
L 357.953303 -79.68643 
L 357.854452 -79.513541 
L 357.756655 -79.340652 
L 357.660278 -79.167763 
L 357.565659 -78.994874 
L 357.473105 -78.821985 
L 357.382892 -78.649096 
L 357.29526 -78.476207 
L 357.210418 -78.303318 
L 357.128538 -78.130429 
L 357.049756 -77.95754 
L 356.974168 -77.784651 
L 356.901838 -77.611762 
L 356.832787 -77.438873 
L 356.767 -77.265984 
L 356.704425 -77.093095 
L 356.64497 -76.920206 
L 356.588508 -76.747317 
L 356.534875 -76.574428 
L 356.48387 -76.401539 
L 356.435261 -76.22865 
L 356.38878 -76.055761 
L 356.344128 -75.882872 
L 356.300979 -75.709983 
L 356.258977 -75.537094 
L 356.21774 -75.364205 
L 356.176867 -75.191316 
L 356.135931 -75.018427 
L 356.09449 -74.845538 
L 356.052088 -74.672649 
L 356.008255 -74.49976 
L 355.962512 -74.326871 
L 355.914373 -74.153982 
L 355.863352 -73.981093 
L 355.80896 -73.808204 
L 355.750714 -73.635315 
L 355.688137 -73.462426 
L 355.620761 -73.289537 
L 355.548133 -73.116648 
L 355.469815 -72.943759 
L 355.385388 -72.77087 
L 355.294456 -72.597981 
L 355.196649 -72.425092 
L 355.091622 -72.252203 
L 354.979062 -72.079314 
L 354.858689 -71.906425 
L 354.730255 -71.733536 
L 354.59355 -71.560647 
L 354.4484 -71.387758 
L 354.294673 -71.214869 
L 354.132275 -71.04198 
L 353.961153 -70.869091 
z
" style="stroke: #999999; stroke-width: 2"/>
    </defs>
    <g clip-path="url(#p81ad9f085b)">
     <use xlink:href="#mcc053ee39f" x="0" y="255.11811" style="fill: #ffffff; stroke: #999999; stroke-width: 2"/>
    </g>
   </g>
   <g id="PolyCollection_6">
    <defs>
     <path id="m66eb4b3afd" d="M 419.815426 -94.671554 
L 386.947206 -94.671554 
L 386.457679 -94.857744 
L 385.973073 -95.043934 
L 385.494299 -95.230124 
L 385.022257 -95.416314 
L 384.557829 -95.602504 
L 384.101885 -95.788693 
L 383.655276 -95.974883 
L 383.218835 -96.161073 
L 382.793374 -96.347263 
L 382.379683 -96.533453 
L 381.97853 -96.719643 
L 381.59066 -96.905833 
L 381.216792 -97.092022 
L 380.857616 -97.278212 
L 380.513796 -97.464402 
L 380.185964 -97.650592 
L 379.874721 -97.836782 
L 379.580634 -98.022972 
L 379.304231 -98.209162 
L 379.046004 -98.395351 
L 378.806402 -98.581541 
L 378.58583 -98.767731 
L 378.384646 -98.953921 
L 378.203158 -99.140111 
L 378.041621 -99.326301 
L 377.900236 -99.512491 
L 377.779144 -99.69868 
L 377.678426 -99.88487 
L 377.598101 -100.07106 
L 377.538121 -100.25725 
L 377.498373 -100.44344 
L 377.478675 -100.62963 
L 377.478777 -100.815819 
L 377.49836 -101.002009 
L 377.537037 -101.188199 
L 377.59435 -101.374389 
L 377.669779 -101.560579 
L 377.762736 -101.746769 
L 377.872575 -101.932959 
L 377.998591 -102.119148 
L 378.140023 -102.305338 
L 378.296063 -102.491528 
L 378.46586 -102.677718 
L 378.648521 -102.863908 
L 378.843125 -103.050098 
L 379.048723 -103.236288 
L 379.264348 -103.422477 
L 379.489022 -103.608667 
L 379.721761 -103.794857 
L 379.961588 -103.981047 
L 380.207532 -104.167237 
L 380.458643 -104.353427 
L 380.713995 -104.539617 
L 380.972694 -104.725806 
L 381.233884 -104.911996 
L 381.496754 -105.098186 
L 381.760543 -105.284376 
L 382.024543 -105.470566 
L 382.28811 -105.656756 
L 382.550659 -105.842946 
L 382.811673 -106.029135 
L 383.070704 -106.215325 
L 383.327377 -106.401515 
L 383.581384 -106.587705 
L 383.832493 -106.773895 
L 384.080541 -106.960085 
L 384.325437 -107.146275 
L 384.567158 -107.332464 
L 384.805747 -107.518654 
L 385.041309 -107.704844 
L 385.274009 -107.891034 
L 385.504068 -108.077224 
L 385.731755 -108.263414 
L 385.957387 -108.449603 
L 386.181319 -108.635793 
L 386.40394 -108.821983 
L 386.625669 -109.008173 
L 386.846944 -109.194363 
L 387.068222 -109.380553 
L 387.289967 -109.566743 
L 387.512648 -109.752932 
L 387.736731 -109.939122 
L 387.96267 -110.125312 
L 388.190908 -110.311502 
L 388.421866 -110.497692 
L 388.655938 -110.683882 
L 388.89349 -110.870072 
L 389.13485 -111.056261 
L 389.380308 -111.242451 
L 389.63011 -111.428641 
L 389.884456 -111.614831 
L 390.143498 -111.801021 
L 390.407336 -111.987211 
L 390.676016 -112.173401 
L 390.949532 -112.35959 
L 391.227823 -112.54578 
L 391.510775 -112.73197 
L 391.798219 -112.91816 
L 392.089934 -113.10435 
L 414.672698 -113.10435 
L 414.672698 -113.10435 
L 414.964413 -112.91816 
L 415.251857 -112.73197 
L 415.534809 -112.54578 
L 415.8131 -112.35959 
L 416.086616 -112.173401 
L 416.355296 -111.987211 
L 416.619134 -111.801021 
L 416.878176 -111.614831 
L 417.132522 -111.428641 
L 417.382324 -111.242451 
L 417.627782 -111.056261 
L 417.869142 -110.870072 
L 418.106694 -110.683882 
L 418.340766 -110.497692 
L 418.571724 -110.311502 
L 418.799962 -110.125312 
L 419.025902 -109.939122 
L 419.249984 -109.752932 
L 419.472665 -109.566743 
L 419.69441 -109.380553 
L 419.915688 -109.194363 
L 420.136964 -109.008173 
L 420.358692 -108.821983 
L 420.581313 -108.635793 
L 420.805245 -108.449603 
L 421.030877 -108.263414 
L 421.258564 -108.077224 
L 421.488623 -107.891034 
L 421.721323 -107.704844 
L 421.956885 -107.518654 
L 422.195474 -107.332464 
L 422.437195 -107.146275 
L 422.682091 -106.960085 
L 422.93014 -106.773895 
L 423.181248 -106.587705 
L 423.435256 -106.401515 
L 423.691928 -106.215325 
L 423.950959 -106.029135 
L 424.211974 -105.842946 
L 424.474522 -105.656756 
L 424.738089 -105.470566 
L 425.00209 -105.284376 
L 425.265878 -105.098186 
L 425.528748 -104.911996 
L 425.789938 -104.725806 
L 426.048637 -104.539617 
L 426.30399 -104.353427 
L 426.555101 -104.167237 
L 426.801045 -103.981047 
L 427.040871 -103.794857 
L 427.27361 -103.608667 
L 427.498284 -103.422477 
L 427.713909 -103.236288 
L 427.919507 -103.050098 
L 428.114111 -102.863908 
L 428.296772 -102.677718 
L 428.466569 -102.491528 
L 428.622609 -102.305338 
L 428.764042 -102.119148 
L 428.890057 -101.932959 
L 428.999896 -101.746769 
L 429.092854 -101.560579 
L 429.168282 -101.374389 
L 429.225596 -101.188199 
L 429.264272 -101.002009 
L 429.283855 -100.815819 
L 429.283957 -100.62963 
L 429.26426 -100.44344 
L 429.224511 -100.25725 
L 429.164532 -100.07106 
L 429.084206 -99.88487 
L 428.983488 -99.69868 
L 428.862396 -99.512491 
L 428.721011 -99.326301 
L 428.559474 -99.140111 
L 428.377986 -98.953921 
L 428.176802 -98.767731 
L 427.95623 -98.581541 
L 427.716628 -98.395351 
L 427.458401 -98.209162 
L 427.181999 -98.022972 
L 426.887911 -97.836782 
L 426.576668 -97.650592 
L 426.248837 -97.464402 
L 425.905016 -97.278212 
L 425.545841 -97.092022 
L 425.171972 -96.905833 
L 424.784102 -96.719643 
L 424.38295 -96.533453 
L 423.969259 -96.347263 
L 423.543797 -96.161073 
L 423.107356 -95.974883 
L 422.660747 -95.788693 
L 422.204803 -95.602504 
L 421.740376 -95.416314 
L 421.268333 -95.230124 
L 420.789559 -95.043934 
L 420.304953 -94.857744 
L 419.815426 -94.671554 
z
" style="stroke: #999999; stroke-width: 2"/>
    </defs>
    <g clip-path="url(#p81ad9f085b)">
     <use xlink:href="#m66eb4b3afd" x="0" y="255.11811" style="fill: #ffffff; stroke: #999999; stroke-width: 2"/>
    </g>
   </g>
   <g id="PolyCollection_7">
    <defs>
     <path id="mf06dc231d5" d="M 469.955664 -95.488823 
L 466.320174 -95.488823 
L 466.284922 -96.323727 
L 466.249911 -97.158631 
L 466.214757 -97.993536 
L 466.179028 -98.82844 
L 466.142257 -99.663345 
L 466.103938 -100.498249 
L 466.063538 -101.333154 
L 466.020501 -102.168058 
L 465.974253 -103.002963 
L 465.924215 -103.837867 
L 465.869806 -104.672772 
L 465.810455 -105.507676 
L 465.745608 -106.34258 
L 465.674738 -107.177485 
L 465.597354 -108.012389 
L 465.513007 -108.847294 
L 465.421303 -109.682198 
L 465.32191 -110.517103 
L 465.214561 -111.352007 
L 465.099066 -112.186912 
L 464.975318 -113.021816 
L 464.843293 -113.85672 
L 464.703059 -114.691625 
L 464.554777 -115.526529 
L 464.398705 -116.361434 
L 464.235192 -117.196338 
L 464.064688 -118.031243 
L 463.887731 -118.866147 
L 463.704952 -119.701052 
L 463.517066 -120.535956 
L 463.324871 -121.37086 
L 463.129235 -122.205765 
L 462.931094 -123.040669 
L 462.731443 -123.875574 
L 462.531323 -124.710478 
L 462.331816 -125.545383 
L 462.134031 -126.380287 
L 461.939094 -127.215192 
L 461.748137 -128.050096 
L 461.56229 -128.885 
L 461.382663 -129.719905 
L 461.210341 -130.554809 
L 461.046372 -131.389714 
L 460.891754 -132.224618 
L 460.747431 -133.059523 
L 460.614276 -133.894427 
L 460.493092 -134.729332 
L 460.384596 -135.564236 
L 460.289419 -136.39914 
L 460.208098 -137.234045 
L 460.141072 -138.068949 
L 460.088676 -138.903854 
L 460.051146 -139.738758 
L 460.02861 -140.573663 
L 460.021091 -141.408567 
L 460.028512 -142.243472 
L 460.05069 -143.078376 
L 460.087348 -143.91328 
L 460.13811 -144.748185 
L 460.202515 -145.583089 
L 460.280015 -146.417994 
L 460.369987 -147.252898 
L 460.471738 -148.087803 
L 460.584512 -148.922707 
L 460.707499 -149.757612 
L 460.839846 -150.592516 
L 460.980662 -151.427421 
L 461.129031 -152.262325 
L 461.284017 -153.097229 
L 461.444678 -153.932134 
L 461.610072 -154.767038 
L 461.77927 -155.601943 
L 461.951357 -156.436847 
L 462.125448 -157.271752 
L 462.300693 -158.106656 
L 462.476285 -158.941561 
L 462.651461 -159.776465 
L 462.825517 -160.611369 
L 462.997806 -161.446274 
L 463.167743 -162.281178 
L 463.33481 -163.116083 
L 463.498558 -163.950987 
L 463.658603 -164.785892 
L 463.814635 -165.620796 
L 463.966408 -166.455701 
L 464.113745 -167.290605 
L 464.25653 -168.125509 
L 464.39471 -168.960414 
L 464.528286 -169.795318 
L 464.65731 -170.630223 
L 464.78188 -171.465127 
L 464.902133 -172.300032 
L 465.018241 -173.134936 
L 465.130403 -173.969841 
L 465.238837 -174.804745 
L 465.343779 -175.639649 
L 465.445469 -176.474554 
L 465.544153 -177.309458 
L 465.640074 -178.144363 
L 470.635764 -178.144363 
L 470.635764 -178.144363 
L 470.731685 -177.309458 
L 470.830369 -176.474554 
L 470.932059 -175.639649 
L 471.037001 -174.804745 
L 471.145435 -173.969841 
L 471.257597 -173.134936 
L 471.373705 -172.300032 
L 471.493958 -171.465127 
L 471.618528 -170.630223 
L 471.747552 -169.795318 
L 471.881128 -168.960414 
L 472.019308 -168.125509 
L 472.162093 -167.290605 
L 472.30943 -166.455701 
L 472.461203 -165.620796 
L 472.617235 -164.785892 
L 472.77728 -163.950987 
L 472.941028 -163.116083 
L 473.108095 -162.281178 
L 473.278032 -161.446274 
L 473.450321 -160.611369 
L 473.624377 -159.776465 
L 473.799554 -158.941561 
L 473.975145 -158.106656 
L 474.15039 -157.271752 
L 474.324481 -156.436847 
L 474.496568 -155.601943 
L 474.665766 -154.767038 
L 474.83116 -153.932134 
L 474.991821 -153.097229 
L 475.146807 -152.262325 
L 475.295176 -151.427421 
L 475.435992 -150.592516 
L 475.568339 -149.757612 
L 475.691326 -148.922707 
L 475.8041 -148.087803 
L 475.905851 -147.252898 
L 475.995823 -146.417994 
L 476.073323 -145.583089 
L 476.137728 -144.748185 
L 476.18849 -143.91328 
L 476.225148 -143.078376 
L 476.247326 -142.243472 
L 476.254747 -141.408567 
L 476.247229 -140.573663 
L 476.224692 -139.738758 
L 476.187162 -138.903854 
L 476.134766 -138.068949 
L 476.06774 -137.234045 
L 475.986419 -136.39914 
L 475.891242 -135.564236 
L 475.782746 -134.729332 
L 475.661562 -133.894427 
L 475.528407 -133.059523 
L 475.384084 -132.224618 
L 475.229466 -131.389714 
L 475.065497 -130.554809 
L 474.893175 -129.719905 
L 474.713548 -128.885 
L 474.527701 -128.050096 
L 474.336744 -127.215192 
L 474.141807 -126.380287 
L 473.944022 -125.545383 
L 473.744515 -124.710478 
L 473.544395 -123.875574 
L 473.344744 -123.040669 
L 473.146603 -122.205765 
L 472.950967 -121.37086 
L 472.758772 -120.535956 
L 472.570886 -119.701052 
L 472.388107 -118.866147 
L 472.21115 -118.031243 
L 472.040646 -117.196338 
L 471.877133 -116.361434 
L 471.721061 -115.526529 
L 471.572779 -114.691625 
L 471.432545 -113.85672 
L 471.30052 -113.021816 
L 471.176772 -112.186912 
L 471.061277 -111.352007 
L 470.953928 -110.517103 
L 470.854535 -109.682198 
L 470.762831 -108.847294 
L 470.678484 -108.012389 
L 470.6011 -107.177485 
L 470.53023 -106.34258 
L 470.465383 -105.507676 
L 470.406032 -104.672772 
L 470.351623 -103.837867 
L 470.301585 -103.002963 
L 470.255337 -102.168058 
L 470.2123 -101.333154 
L 470.1719 -100.498249 
L 470.133581 -99.663345 
L 470.09681 -98.82844 
L 470.061081 -97.993536 
L 470.025927 -97.158631 
L 469.990916 -96.323727 
L 469.955664 -95.488823 
z
" style="stroke: #999999; stroke-width: 2"/>
    </defs>
    <g clip-path="url(#p81ad9f085b)">
     <use xlink:href="#mf06dc231d5" x="0" y="255.11811" style="fill: #ffffff; stroke: #999999; stroke-width: 2"/>
    </g>
   </g>
   <g id="PathCollection_1"/>
   <g id="PathCollection_2"/>
   <g id="patch_3">
    <path d="M 47.22 213.89811 
L 47.22 24.32 
" style="fill: none; stroke: #262626; stroke-width: 1.25; stroke-linejoin: miter; stroke-linecap: square"/>
   </g>
   <g id="patch_4">
    <path d="M 47.22 213.89811 
L 500.51622 213.89811 
" style="fill: none; stroke: #262626; stroke-width: 1.25; stroke-linejoin: miter; stroke-linecap: square"/>
   </g>
   <g id="PathCollection_3">
    <defs>
     <path id="C0_0_05032be206" d="M 0 2.5 
C 0.663008 2.5 1.29895 2.236584 1.767767 1.767767 
C 2.236584 1.29895 2.5 0.663008 2.5 -0 
C 2.5 -0.663008 2.236584 -1.29895 1.767767 -1.767767 
C 1.29895 -2.236584 0.663008 -2.5 0 -2.5 
C -0.663008 -2.5 -1.29895 -2.236584 -1.767767 -1.767767 
C -2.236584 -1.29895 -2.5 -0.663008 -2.5 0 
C -2.5 0.663008 -2.236584 1.29895 -1.767767 1.767767 
C -1.29895 2.236584 -0.663008 2.5 0 2.5 
z
"/>
    </defs>
    <g clip-path="url(#p81ad9f085b)">
     <use xlink:href="#C0_0_05032be206" x="82.478794" y="197.565385" style="fill: #4c72b0; fill-opacity: 0.75"/>
    </g>
    <g clip-path="url(#p81ad9f085b)">
     <use xlink:href="#C0_0_05032be206" x="76.194682" y="189.532872" style="fill: #4c72b0; fill-opacity: 0.75"/>
    </g>
    <g clip-path="url(#p81ad9f085b)">
     <use xlink:href="#C0_0_05032be206" x="73.452805" y="185.117539" style="fill: #4c72b0; fill-opacity: 0.75"/>
    </g>
    <g clip-path="url(#p81ad9f085b)">
     <use xlink:href="#C0_0_05032be206" x="75.276842" y="203.462282" style="fill: #4c72b0; fill-opacity: 0.75"/>
    </g>
    <g clip-path="url(#p81ad9f085b)">
     <use xlink:href="#C0_0_05032be206" x="74.429328" y="164.224691" style="fill: #dd8452; fill-opacity: 0.75"/>
    </g>
    <g clip-path="url(#p81ad9f085b)">
     <use xlink:href="#C0_0_05032be206" x="79.936424" y="167.767668" style="fill: #dd8452; fill-opacity: 0.75"/>
    </g>
    <g clip-path="url(#p81ad9f085b)">
     <use xlink:href="#C0_0_05032be206" x="77.941514" y="170.127754" style="fill: #dd8452; fill-opacity: 0.75"/>
    </g>
    <g clip-path="url(#p81ad9f085b)">
     <use xlink:href="#C0_0_05032be206" x="82.920699" y="176.327171" style="fill: #dd8452; fill-opacity: 0.75"/>
    </g>
   </g>
   <g id="PathCollection_4">
    <defs>
     <path id="C1_0_650e70e611" d="M 0 2.5 
C 0.663008 2.5 1.29895 2.236584 1.767767 1.767767 
C 2.236584 1.29895 2.5 0.663008 2.5 -0 
C 2.5 -0.663008 2.236584 -1.29895 1.767767 -1.767767 
C 1.29895 -2.236584 0.663008 -2.5 0 -2.5 
C -0.663008 -2.5 -1.29895 -2.236584 -1.767767 -1.767767 
C -2.236584 -1.29895 -2.5 -0.663008 -2.5 0 
C -2.5 0.663008 -2.236584 1.29895 -1.767767 1.767767 
C -1.29895 2.236584 -0.663008 2.5 0 2.5 
z
"/>
    </defs>
    <g clip-path="url(#p81ad9f085b)">
     <use xlink:href="#C1_0_650e70e611" x="138.73558" y="133.288535" style="fill: #4c72b0; fill-opacity: 0.75"/>
    </g>
    <g clip-path="url(#p81ad9f085b)">
     <use xlink:href="#C1_0_650e70e611" x="147.017747" y="138.880834" style="fill: #4c72b0; fill-opacity: 0.75"/>
    </g>
    <g clip-path="url(#p81ad9f085b)">
     <use xlink:href="#C1_0_650e70e611" x="146.369214" y="160.137051" style="fill: #4c72b0; fill-opacity: 0.75"/>
    </g>
    <g clip-path="url(#p81ad9f085b)">
     <use xlink:href="#C1_0_650e70e611" x="145.646517" y="166.195127" style="fill: #4c72b0; fill-opacity: 0.75"/>
    </g>
    <g clip-path="url(#p81ad9f085b)">
     <use xlink:href="#C1_0_650e70e611" x="146.028273" y="153.51919" style="fill: #dd8452; fill-opacity: 0.75"/>
    </g>
    <g clip-path="url(#p81ad9f085b)">
     <use xlink:href="#C1_0_650e70e611" x="143.236175" y="159.068604" style="fill: #dd8452; fill-opacity: 0.75"/>
    </g>
    <g clip-path="url(#p81ad9f085b)">
     <use xlink:href="#C1_0_650e70e611" x="139.400939" y="163.665056" style="fill: #dd8452; fill-opacity: 0.75"/>
    </g>
    <g clip-path="url(#p81ad9f085b)">
     <use xlink:href="#C1_0_650e70e611" x="145.762555" y="180.335662" style="fill: #dd8452; fill-opacity: 0.75"/>
    </g>
   </g>
   <g id="PathCollection_5">
    <defs>
     <path id="C2_0_f293204b6d" d="M 0 2.5 
C 0.663008 2.5 1.29895 2.236584 1.767767 1.767767 
C 2.236584 1.29895 2.5 0.663008 2.5 -0 
C 2.5 -0.663008 2.236584 -1.29895 1.767767 -1.767767 
C 1.29895 -2.236584 0.663008 -2.5 0 -2.5 
C -0.663008 -2.5 -1.29895 -2.236584 -1.767767 -1.767767 
C -2.236584 -1.29895 -2.5 -0.663008 -2.5 0 
C -2.5 0.663008 -2.236584 1.29895 -1.767767 1.767767 
C -1.29895 2.236584 -0.663008 2.5 0 2.5 
z
"/>
    </defs>
    <g clip-path="url(#p81ad9f085b)">
     <use xlink:href="#C2_0_f293204b6d" x="208.829824" y="32.937187" style="fill: #4c72b0; fill-opacity: 0.75"/>
    </g>
    <g clip-path="url(#p81ad9f085b)">
     <use xlink:href="#C2_0_f293204b6d" x="205.193785" y="62.260468" style="fill: #4c72b0; fill-opacity: 0.75"/>
    </g>
    <g clip-path="url(#p81ad9f085b)">
     <use xlink:href="#C2_0_f293204b6d" x="212.335839" y="88.168779" style="fill: #4c72b0; fill-opacity: 0.75"/>
    </g>
    <g clip-path="url(#p81ad9f085b)">
     <use xlink:href="#C2_0_f293204b6d" x="211.536713" y="114.751273" style="fill: #4c72b0; fill-opacity: 0.75"/>
    </g>
    <g clip-path="url(#p81ad9f085b)">
     <use xlink:href="#C2_0_f293204b6d" x="210.524644" y="90.819996" style="fill: #dd8452; fill-opacity: 0.75"/>
    </g>
    <g clip-path="url(#p81ad9f085b)">
     <use xlink:href="#C2_0_f293204b6d" x="205.404509" y="88.4319" style="fill: #dd8452; fill-opacity: 0.75"/>
    </g>
    <g clip-path="url(#p81ad9f085b)">
     <use xlink:href="#C2_0_f293204b6d" x="203.684481" y="96.801105" style="fill: #dd8452; fill-opacity: 0.75"/>
    </g>
    <g clip-path="url(#p81ad9f085b)">
     <use xlink:href="#C2_0_f293204b6d" x="205.731073" y="68.218592" style="fill: #dd8452; fill-opacity: 0.75"/>
    </g>
   </g>
   <g id="PathCollection_6">
    <defs>
     <path id="C3_0_3179ab360d" d="M 0 2.5 
C 0.663008 2.5 1.29895 2.236584 1.767767 1.767767 
C 2.236584 1.29895 2.5 0.663008 2.5 -0 
C 2.5 -0.663008 2.236584 -1.29895 1.767767 -1.767767 
C 1.29895 -2.236584 0.663008 -2.5 0 -2.5 
C -0.663008 -2.5 -1.29895 -2.236584 -1.767767 -1.767767 
C -2.236584 -1.29895 -2.5 -0.663008 -2.5 0 
C -2.5 0.663008 -2.236584 1.29895 -1.767767 1.767767 
C -1.29895 2.236584 -0.663008 2.5 0 2.5 
z
"/>
    </defs>
    <g clip-path="url(#p81ad9f085b)">
     <use xlink:href="#C3_0_3179ab360d" x="273.588246" y="192.874628" style="fill: #4c72b0; fill-opacity: 0.75"/>
    </g>
    <g clip-path="url(#p81ad9f085b)">
     <use xlink:href="#C3_0_3179ab360d" x="273.910707" y="187.00866" style="fill: #4c72b0; fill-opacity: 0.75"/>
    </g>
    <g clip-path="url(#p81ad9f085b)">
     <use xlink:href="#C3_0_3179ab360d" x="280.019287" y="205.280923" style="fill: #4c72b0; fill-opacity: 0.75"/>
    </g>
    <g clip-path="url(#p81ad9f085b)">
     <use xlink:href="#C3_0_3179ab360d" x="277.326924" y="172.555978" style="fill: #4c72b0; fill-opacity: 0.75"/>
    </g>
    <g clip-path="url(#p81ad9f085b)">
     <use xlink:href="#C3_0_3179ab360d" x="277.99539" y="194.406087" style="fill: #4c72b0; fill-opacity: 0.75"/>
    </g>
    <g clip-path="url(#p81ad9f085b)">
     <use xlink:href="#C3_0_3179ab360d" x="278.204059" y="174.354719" style="fill: #dd8452; fill-opacity: 0.75"/>
    </g>
    <g clip-path="url(#p81ad9f085b)">
     <use xlink:href="#C3_0_3179ab360d" x="275.936808" y="186.62222" style="fill: #dd8452; fill-opacity: 0.75"/>
    </g>
    <g clip-path="url(#p81ad9f085b)">
     <use xlink:href="#C3_0_3179ab360d" x="274.419681" y="178.923" style="fill: #dd8452; fill-opacity: 0.75"/>
    </g>
    <g clip-path="url(#p81ad9f085b)">
     <use xlink:href="#C3_0_3179ab360d" x="273.711612" y="167.479381" style="fill: #dd8452; fill-opacity: 0.75"/>
    </g>
    <g clip-path="url(#p81ad9f085b)">
     <use xlink:href="#C3_0_3179ab360d" x="276.743996" y="160.020044" style="fill: #dd8452; fill-opacity: 0.75"/>
    </g>
   </g>
   <g id="PathCollection_7">
    <defs>
     <path id="C4_0_49962fad4a" d="M 0 2.5 
C 0.663008 2.5 1.29895 2.236584 1.767767 1.767767 
C 2.236584 1.29895 2.5 0.663008 2.5 -0 
C 2.5 -0.663008 2.236584 -1.29895 1.767767 -1.767767 
C 1.29895 -2.236584 0.663008 -2.5 0 -2.5 
C -0.663008 -2.5 -1.29895 -2.236584 -1.767767 -1.767767 
C -2.236584 -1.29895 -2.5 -0.663008 -2.5 0 
C -2.5 0.663008 -2.236584 1.29895 -1.767767 1.767767 
C -1.29895 2.236584 -0.663008 2.5 0 2.5 
z
"/>
    </defs>
    <g clip-path="url(#p81ad9f085b)">
     <use xlink:href="#C4_0_49962fad4a" x="344.371761" y="184.249019" style="fill: #4c72b0; fill-opacity: 0.75"/>
    </g>
    <g clip-path="url(#p81ad9f085b)">
     <use xlink:href="#C4_0_49962fad4a" x="335.915072" y="176.854383" style="fill: #4c72b0; fill-opacity: 0.75"/>
    </g>
    <g clip-path="url(#p81ad9f085b)">
     <use xlink:href="#C4_0_49962fad4a" x="334.497127" y="167.133008" style="fill: #4c72b0; fill-opacity: 0.75"/>
    </g>
    <g clip-path="url(#p81ad9f085b)">
     <use xlink:href="#C4_0_49962fad4a" x="339.213256" y="172.32389" style="fill: #dd8452; fill-opacity: 0.75"/>
    </g>
    <g clip-path="url(#p81ad9f085b)">
     <use xlink:href="#C4_0_49962fad4a" x="344.689373" y="169.698287" style="fill: #dd8452; fill-opacity: 0.75"/>
    </g>
    <g clip-path="url(#p81ad9f085b)">
     <use xlink:href="#C4_0_49962fad4a" x="339.788315" y="183.709224" style="fill: #dd8452; fill-opacity: 0.75"/>
    </g>
   </g>
   <g id="PathCollection_8">
    <defs>
     <path id="C5_0_b426460e75" d="M 0 2.5 
C 0.663008 2.5 1.29895 2.236584 1.767767 1.767767 
C 2.236584 1.29895 2.5 0.663008 2.5 -0 
C 2.5 -0.663008 2.236584 -1.29895 1.767767 -1.767767 
C 1.29895 -2.236584 0.663008 -2.5 0 -2.5 
C -0.663008 -2.5 -1.29895 -2.236584 -1.767767 -1.767767 
C -2.236584 -1.29895 -2.5 -0.663008 -2.5 0 
C -2.5 0.663008 -2.236584 1.29895 -1.767767 1.767767 
C -1.29895 2.236584 -0.663008 2.5 0 2.5 
z
"/>
    </defs>
    <g clip-path="url(#p81ad9f085b)">
     <use xlink:href="#C5_0_b426460e75" x="408.082077" y="155.083389" style="fill: #4c72b0; fill-opacity: 0.75"/>
    </g>
    <g clip-path="url(#p81ad9f085b)">
     <use xlink:href="#C5_0_b426460e75" x="401.663265" y="160.446556" style="fill: #4c72b0; fill-opacity: 0.75"/>
    </g>
    <g clip-path="url(#p81ad9f085b)">
     <use xlink:href="#C5_0_b426460e75" x="401.182578" y="154.169026" style="fill: #4c72b0; fill-opacity: 0.75"/>
    </g>
    <g clip-path="url(#p81ad9f085b)">
     <use xlink:href="#C5_0_b426460e75" x="398.546449" y="149.319491" style="fill: #4c72b0; fill-opacity: 0.75"/>
    </g>
    <g clip-path="url(#p81ad9f085b)">
     <use xlink:href="#C5_0_b426460e75" x="398.926406" y="145.652787" style="fill: #dd8452; fill-opacity: 0.75"/>
    </g>
    <g clip-path="url(#p81ad9f085b)">
     <use xlink:href="#C5_0_b426460e75" x="399.335774" y="152.68395" style="fill: #dd8452; fill-opacity: 0.75"/>
    </g>
    <g clip-path="url(#p81ad9f085b)">
     <use xlink:href="#C5_0_b426460e75" x="397.183437" y="142.01376" style="fill: #dd8452; fill-opacity: 0.75"/>
    </g>
    <g clip-path="url(#p81ad9f085b)">
     <use xlink:href="#C5_0_b426460e75" x="401.487402" y="158.395455" style="fill: #dd8452; fill-opacity: 0.75"/>
    </g>
   </g>
   <g id="PathCollection_9">
    <defs>
     <path id="C6_0_7a89cfe8e4" d="M 0 2.5 
C 0.663008 2.5 1.29895 2.236584 1.767767 1.767767 
C 2.236584 1.29895 2.5 0.663008 2.5 -0 
C 2.5 -0.663008 2.236584 -1.29895 1.767767 -1.767767 
C 1.29895 -2.236584 0.663008 -2.5 0 -2.5 
C -0.663008 -2.5 -1.29895 -2.236584 -1.767767 -1.767767 
C -2.236584 -1.29895 -2.5 -0.663008 -2.5 0 
C -2.5 0.663008 -2.236584 1.29895 -1.767767 1.767767 
C -1.29895 2.236584 -0.663008 2.5 0 2.5 
z
"/>
    </defs>
    <g clip-path="url(#p81ad9f085b)">
     <use xlink:href="#C6_0_7a89cfe8e4" x="468.499518" y="76.973747" style="fill: #4c72b0; fill-opacity: 0.75"/>
    </g>
    <g clip-path="url(#p81ad9f085b)">
     <use xlink:href="#C6_0_7a89cfe8e4" x="471.059714" y="102.6149" style="fill: #4c72b0; fill-opacity: 0.75"/>
    </g>
    <g clip-path="url(#p81ad9f085b)">
     <use xlink:href="#C6_0_7a89cfe8e4" x="467.536361" y="113.063727" style="fill: #4c72b0; fill-opacity: 0.75"/>
    </g>
    <g clip-path="url(#p81ad9f085b)">
     <use xlink:href="#C6_0_7a89cfe8e4" x="470.460314" y="103.400296" style="fill: #4c72b0; fill-opacity: 0.75"/>
    </g>
    <g clip-path="url(#p81ad9f085b)">
     <use xlink:href="#C6_0_7a89cfe8e4" x="464.641136" y="125.731215" style="fill: #dd8452; fill-opacity: 0.75"/>
    </g>
    <g clip-path="url(#p81ad9f085b)">
     <use xlink:href="#C6_0_7a89cfe8e4" x="474.603922" y="117.613556" style="fill: #dd8452; fill-opacity: 0.75"/>
    </g>
    <g clip-path="url(#p81ad9f085b)">
     <use xlink:href="#C6_0_7a89cfe8e4" x="461.850069" y="120.932328" style="fill: #dd8452; fill-opacity: 0.75"/>
    </g>
    <g clip-path="url(#p81ad9f085b)">
     <use xlink:href="#C6_0_7a89cfe8e4" x="467.630695" y="159.629288" style="fill: #dd8452; fill-opacity: 0.75"/>
    </g>
   </g>
   <g id="text_16">
    <!-- AUTS2, $p_{adj}$ &lt; .001 *** -->
    <g style="fill: #262626" transform="translate(47.22 18.32)scale(0.09 -0.09)">
     <defs>
      <path id="ArialMT-41" d="M -9 0 
L 1750 4581 
L 2403 4581 
L 4278 0 
L 3588 0 
L 3053 1388 
L 1138 1388 
L 634 0 
L -9 0 
z
M 1313 1881 
L 2866 1881 
L 2388 3150 
Q 2169 3728 2063 4100 
Q 1975 3659 1816 3225 
L 1313 1881 
z
" transform="scale(0.015625)"/>
      <path id="ArialMT-55" d="M 3500 4581 
L 4106 4581 
L 4106 1934 
Q 4106 1244 3950 837 
Q 3794 431 3386 176 
Q 2978 -78 2316 -78 
Q 1672 -78 1262 144 
Q 853 366 678 786 
Q 503 1206 503 1934 
L 503 4581 
L 1109 4581 
L 1109 1938 
Q 1109 1341 1220 1058 
Q 1331 775 1601 622 
Q 1872 469 2263 469 
Q 2931 469 3215 772 
Q 3500 1075 3500 1938 
L 3500 4581 
z
" transform="scale(0.015625)"/>
      <path id="ArialMT-53" d="M 288 1472 
L 859 1522 
Q 900 1178 1048 958 
Q 1197 738 1509 602 
Q 1822 466 2213 466 
Q 2559 466 2825 569 
Q 3091 672 3220 851 
Q 3350 1031 3350 1244 
Q 3350 1459 3225 1620 
Q 3100 1781 2813 1891 
Q 2628 1963 1997 2114 
Q 1366 2266 1113 2400 
Q 784 2572 623 2826 
Q 463 3081 463 3397 
Q 463 3744 659 4045 
Q 856 4347 1234 4503 
Q 1613 4659 2075 4659 
Q 2584 4659 2973 4495 
Q 3363 4331 3572 4012 
Q 3781 3694 3797 3291 
L 3216 3247 
Q 3169 3681 2898 3903 
Q 2628 4125 2100 4125 
Q 1550 4125 1298 3923 
Q 1047 3722 1047 3438 
Q 1047 3191 1225 3031 
Q 1400 2872 2139 2705 
Q 2878 2538 3153 2413 
Q 3553 2228 3743 1945 
Q 3934 1663 3934 1294 
Q 3934 928 3725 604 
Q 3516 281 3123 101 
Q 2731 -78 2241 -78 
Q 1619 -78 1198 103 
Q 778 284 539 648 
Q 300 1013 288 1472 
z
" transform="scale(0.015625)"/>
      <path id="ArialMT-2c" d="M 569 0 
L 569 641 
L 1209 641 
L 1209 0 
Q 1209 -353 1084 -570 
Q 959 -788 688 -906 
L 531 -666 
Q 709 -588 793 -436 
Q 878 -284 888 0 
L 569 0 
z
" transform="scale(0.015625)"/>
      <path id="DejaVuSans-Oblique-70" d="M 3175 2156 
Q 3175 2616 2975 2859 
Q 2775 3103 2400 3103 
Q 2144 3103 1911 2972 
Q 1678 2841 1497 2591 
Q 1319 2344 1212 1994 
Q 1106 1644 1106 1300 
Q 1106 863 1306 627 
Q 1506 391 1875 391 
Q 2147 391 2380 519 
Q 2613 647 2778 891 
Q 2956 1147 3065 1494 
Q 3175 1841 3175 2156 
z
M 1394 2969 
Q 1625 3272 1939 3428 
Q 2253 3584 2638 3584 
Q 3175 3584 3472 3232 
Q 3769 2881 3769 2247 
Q 3769 1728 3584 1258 
Q 3400 788 3053 416 
Q 2822 169 2531 39 
Q 2241 -91 1919 -91 
Q 1547 -91 1294 64 
Q 1041 219 916 525 
L 556 -1331 
L -19 -1331 
L 922 3500 
L 1497 3500 
L 1394 2969 
z
" transform="scale(0.015625)"/>
      <path id="DejaVuSans-Oblique-61" d="M 3438 1997 
L 3047 0 
L 2472 0 
L 2578 531 
Q 2325 219 2001 64 
Q 1678 -91 1281 -91 
Q 834 -91 548 182 
Q 263 456 263 884 
Q 263 1497 752 1853 
Q 1241 2209 2100 2209 
L 2900 2209 
L 2931 2363 
Q 2938 2388 2941 2417 
Q 2944 2447 2944 2509 
Q 2944 2788 2717 2942 
Q 2491 3097 2081 3097 
Q 1800 3097 1504 3025 
Q 1209 2953 897 2809 
L 997 3341 
Q 1322 3463 1633 3523 
Q 1944 3584 2234 3584 
Q 2853 3584 3176 3315 
Q 3500 3047 3500 2534 
Q 3500 2431 3484 2292 
Q 3469 2153 3438 1997 
z
M 2816 1759 
L 2241 1759 
Q 1534 1759 1195 1570 
Q 856 1381 856 984 
Q 856 709 1029 553 
Q 1203 397 1509 397 
Q 1978 397 2328 733 
Q 2678 1069 2791 1631 
L 2816 1759 
z
" transform="scale(0.015625)"/>
      <path id="DejaVuSans-Oblique-64" d="M 2675 525 
Q 2444 222 2128 65 
Q 1813 -91 1428 -91 
Q 903 -91 598 267 
Q 294 625 294 1247 
Q 294 1766 478 2236 
Q 663 2706 1013 3078 
Q 1244 3325 1534 3454 
Q 1825 3584 2144 3584 
Q 2481 3584 2739 3421 
Q 2997 3259 3138 2956 
L 3513 4863 
L 4091 4863 
L 3144 0 
L 2566 0 
L 2675 525 
z
M 891 1350 
Q 891 897 1095 644 
Q 1300 391 1663 391 
Q 1931 391 2161 520 
Q 2391 650 2566 903 
Q 2750 1166 2856 1509 
Q 2963 1853 2963 2188 
Q 2963 2622 2758 2865 
Q 2553 3109 2194 3109 
Q 1922 3109 1687 2981 
Q 1453 2853 1288 2613 
Q 1106 2353 998 2009 
Q 891 1666 891 1350 
z
" transform="scale(0.015625)"/>
      <path id="DejaVuSans-Oblique-6a" d="M 928 3500 
L 1503 3500 
L 813 -63 
L 809 -78 
Q 694 -675 544 -897 
Q 403 -1106 132 -1218 
Q -138 -1331 -506 -1331 
L -722 -1331 
L -628 -844 
L -481 -844 
Q -144 -844 -1 -703 
Q 141 -563 238 -63 
L 928 3500 
z
M 1197 4863 
L 1772 4863 
L 1631 4134 
L 1056 4134 
L 1197 4863 
z
" transform="scale(0.015625)"/>
      <path id="ArialMT-3c" d="M 350 2003 
L 350 2528 
L 3384 3809 
L 3384 3250 
L 978 2263 
L 3384 1266 
L 3384 706 
L 350 2003 
z
" transform="scale(0.015625)"/>
      <path id="ArialMT-2e" d="M 581 0 
L 581 641 
L 1222 641 
L 1222 0 
L 581 0 
z
" transform="scale(0.015625)"/>
      <path id="ArialMT-2a" d="M 200 3741 
L 344 4184 
Q 841 4009 1066 3881 
Q 1006 4447 1003 4659 
L 1456 4659 
Q 1447 4350 1384 3884 
Q 1706 4047 2122 4184 
L 2266 3741 
Q 1869 3609 1488 3566 
Q 1678 3400 2025 2975 
L 1650 2709 
Q 1469 2956 1222 3381 
Q 991 2941 816 2709 
L 447 2975 
Q 809 3422 966 3566 
Q 563 3644 200 3741 
z
" transform="scale(0.015625)"/>
     </defs>
     <use xlink:href="#ArialMT-41" transform="translate(0 0.203125)"/>
     <use xlink:href="#ArialMT-55" transform="translate(66.699219 0.203125)"/>
     <use xlink:href="#ArialMT-54" transform="translate(138.916016 0.203125)"/>
     <use xlink:href="#ArialMT-53" transform="translate(200 0.203125)"/>
     <use xlink:href="#ArialMT-32" transform="translate(266.699219 0.203125)"/>
     <use xlink:href="#ArialMT-2c" transform="translate(322.314453 0.203125)"/>
     <use xlink:href="#ArialMT-20" transform="translate(350.097656 0.203125)"/>
     <use xlink:href="#DejaVuSans-Oblique-70" transform="translate(377.880859 0.203125)"/>
     <use xlink:href="#DejaVuSans-Oblique-61" transform="translate(441.357422 -16.203125)scale(0.7)"/>
     <use xlink:href="#DejaVuSans-Oblique-64" transform="translate(484.25293 -16.203125)scale(0.7)"/>
     <use xlink:href="#DejaVuSans-Oblique-6a" transform="translate(528.686523 -16.203125)scale(0.7)"/>
     <use xlink:href="#ArialMT-20" transform="translate(550.869141 0.203125)"/>
     <use xlink:href="#ArialMT-3c" transform="translate(578.652344 0.203125)"/>
     <use xlink:href="#ArialMT-20" transform="translate(637.050781 0.203125)"/>
     <use xlink:href="#ArialMT-2e" transform="translate(664.833984 0.203125)"/>
     <use xlink:href="#ArialMT-30" transform="translate(692.617188 0.203125)"/>
     <use xlink:href="#ArialMT-30" transform="translate(748.232422 0.203125)"/>
     <use xlink:href="#ArialMT-31" transform="translate(803.847656 0.203125)"/>
     <use xlink:href="#ArialMT-20" transform="translate(859.462891 0.203125)"/>
     <use xlink:href="#ArialMT-2a" transform="translate(887.246094 0.203125)"/>
     <use xlink:href="#ArialMT-2a" transform="translate(926.162109 0.203125)"/>
     <use xlink:href="#ArialMT-2a" transform="translate(965.078125 0.203125)"/>
    </g>
   </g>
   <g id="legend_1">
    <g id="patch_5">
     <path d="M 441.91497 69.712344 
L 494.21622 69.712344 
Q 496.01622 69.712344 496.01622 67.912344 
L 496.01622 30.62 
Q 496.01622 28.82 494.21622 28.82 
L 441.91497 28.82 
Q 440.11497 28.82 440.11497 30.62 
L 440.11497 67.912344 
Q 440.11497 69.712344 441.91497 69.712344 
z
" style="fill: #ffffff; opacity: 0.8; stroke: #cccccc; stroke-linejoin: miter"/>
    </g>
    <g id="text_17">
     <!-- Treatment -->
     <g style="fill: #262626" transform="translate(447.729111 38.862031)scale(0.09 -0.09)">
      <use xlink:href="#ArialMT-54"/>
      <use xlink:href="#ArialMT-72" x="57.333984"/>
      <use xlink:href="#ArialMT-65" x="90.634766"/>
      <use xlink:href="#ArialMT-61" x="146.25"/>
      <use xlink:href="#ArialMT-74" x="201.865234"/>
      <use xlink:href="#ArialMT-6d" x="229.648438"/>
      <use xlink:href="#ArialMT-65" x="312.949219"/>
      <use xlink:href="#ArialMT-6e" x="368.564453"/>
      <use xlink:href="#ArialMT-74" x="424.179688"/>
     </g>
    </g>
    <g id="PathCollection_10">
     <defs>
      <path id="mdcd4882de3" d="M 0 3.872983 
C 1.027127 3.872983 2.012324 3.464901 2.738613 2.738613 
C 3.464901 2.012324 3.872983 1.027127 3.872983 0 
C 3.872983 -1.027127 3.464901 -2.012324 2.738613 -2.738613 
C 2.012324 -3.464901 1.027127 -3.872983 0 -3.872983 
C -1.027127 -3.872983 -2.012324 -3.464901 -2.738613 -2.738613 
C -3.464901 -2.012324 -3.872983 -1.027127 -3.872983 0 
C -3.872983 1.027127 -3.464901 2.012324 -2.738613 2.738613 
C -2.012324 3.464901 -1.027127 3.872983 0 3.872983 
z
" style="stroke: #4c72b0"/>
     </defs>
     <g>
      <use xlink:href="#mdcd4882de3" x="452.71497" y="49.230313" style="fill: #4c72b0; stroke: #4c72b0"/>
     </g>
    </g>
    <g id="text_18">
     <!-- BEVA -->
     <g style="fill: #262626" transform="translate(468.91497 51.592813)scale(0.09 -0.09)">
      <defs>
       <path id="ArialMT-42" d="M 469 0 
L 469 4581 
L 2188 4581 
Q 2713 4581 3030 4442 
Q 3347 4303 3526 4014 
Q 3706 3725 3706 3409 
Q 3706 3116 3547 2856 
Q 3388 2597 3066 2438 
Q 3481 2316 3704 2022 
Q 3928 1728 3928 1328 
Q 3928 1006 3792 729 
Q 3656 453 3456 303 
Q 3256 153 2954 76 
Q 2653 0 2216 0 
L 469 0 
z
M 1075 2656 
L 2066 2656 
Q 2469 2656 2644 2709 
Q 2875 2778 2992 2937 
Q 3109 3097 3109 3338 
Q 3109 3566 3000 3739 
Q 2891 3913 2687 3977 
Q 2484 4041 1991 4041 
L 1075 4041 
L 1075 2656 
z
M 1075 541 
L 2216 541 
Q 2509 541 2628 563 
Q 2838 600 2978 687 
Q 3119 775 3209 942 
Q 3300 1109 3300 1328 
Q 3300 1584 3169 1773 
Q 3038 1963 2805 2039 
Q 2572 2116 2134 2116 
L 1075 2116 
L 1075 541 
z
" transform="scale(0.015625)"/>
       <path id="ArialMT-45" d="M 506 0 
L 506 4581 
L 3819 4581 
L 3819 4041 
L 1113 4041 
L 1113 2638 
L 3647 2638 
L 3647 2100 
L 1113 2100 
L 1113 541 
L 3925 541 
L 3925 0 
L 506 0 
z
" transform="scale(0.015625)"/>
       <path id="ArialMT-56" d="M 1803 0 
L 28 4581 
L 684 4581 
L 1875 1253 
Q 2019 853 2116 503 
Q 2222 878 2363 1253 
L 3600 4581 
L 4219 4581 
L 2425 0 
L 1803 0 
z
" transform="scale(0.015625)"/>
      </defs>
      <use xlink:href="#ArialMT-42"/>
      <use xlink:href="#ArialMT-45" x="66.699219"/>
      <use xlink:href="#ArialMT-56" x="133.398438"/>
      <use xlink:href="#ArialMT-41" x="192.722656"/>
     </g>
    </g>
    <g id="PathCollection_11">
     <defs>
      <path id="mb25779228f" d="M 0 3.872983 
C 1.027127 3.872983 2.012324 3.464901 2.738613 2.738613 
C 3.464901 2.012324 3.872983 1.027127 3.872983 0 
C 3.872983 -1.027127 3.464901 -2.012324 2.738613 -2.738613 
C 2.012324 -3.464901 1.027127 -3.872983 0 -3.872983 
C -1.027127 -3.872983 -2.012324 -3.464901 -2.738613 -2.738613 
C -3.464901 -2.012324 -3.872983 -1.027127 -3.872983 0 
C -3.872983 1.027127 -3.464901 2.012324 -2.738613 2.738613 
C -2.012324 3.464901 -1.027127 3.872983 0 3.872983 
z
" style="stroke: #dd8452"/>
     </defs>
     <g>
      <use xlink:href="#mb25779228f" x="452.71497" y="61.961094" style="fill: #dd8452; stroke: #dd8452"/>
     </g>
    </g>
    <g id="text_19">
     <!-- CTRL -->
     <g style="fill: #262626" transform="translate(468.91497 64.323594)scale(0.09 -0.09)">
      <defs>
       <path id="ArialMT-43" d="M 3763 1606 
L 4369 1453 
Q 4178 706 3683 314 
Q 3188 -78 2472 -78 
Q 1731 -78 1267 223 
Q 803 525 561 1097 
Q 319 1669 319 2325 
Q 319 3041 592 3573 
Q 866 4106 1370 4382 
Q 1875 4659 2481 4659 
Q 3169 4659 3637 4309 
Q 4106 3959 4291 3325 
L 3694 3184 
Q 3534 3684 3231 3912 
Q 2928 4141 2469 4141 
Q 1941 4141 1586 3887 
Q 1231 3634 1087 3207 
Q 944 2781 944 2328 
Q 944 1744 1114 1308 
Q 1284 872 1643 656 
Q 2003 441 2422 441 
Q 2931 441 3284 734 
Q 3638 1028 3763 1606 
z
" transform="scale(0.015625)"/>
       <path id="ArialMT-52" d="M 503 0 
L 503 4581 
L 2534 4581 
Q 3147 4581 3465 4457 
Q 3784 4334 3975 4021 
Q 4166 3709 4166 3331 
Q 4166 2844 3850 2509 
Q 3534 2175 2875 2084 
Q 3116 1969 3241 1856 
Q 3506 1613 3744 1247 
L 4541 0 
L 3778 0 
L 3172 953 
Q 2906 1366 2734 1584 
Q 2563 1803 2427 1890 
Q 2291 1978 2150 2013 
Q 2047 2034 1813 2034 
L 1109 2034 
L 1109 0 
L 503 0 
z
M 1109 2559 
L 2413 2559 
Q 2828 2559 3062 2645 
Q 3297 2731 3419 2920 
Q 3541 3109 3541 3331 
Q 3541 3656 3305 3865 
Q 3069 4075 2559 4075 
L 1109 4075 
L 1109 2559 
z
" transform="scale(0.015625)"/>
       <path id="ArialMT-4c" d="M 469 0 
L 469 4581 
L 1075 4581 
L 1075 541 
L 3331 541 
L 3331 0 
L 469 0 
z
" transform="scale(0.015625)"/>
      </defs>
      <use xlink:href="#ArialMT-43"/>
      <use xlink:href="#ArialMT-54" x="72.216797"/>
      <use xlink:href="#ArialMT-52" x="133.300781"/>
      <use xlink:href="#ArialMT-4c" x="205.517578"/>
     </g>
    </g>
   </g>
  </g>
 </g>
 <defs>
  <clipPath id="p81ad9f085b">
   <rect x="47.22" y="24.32" width="453.29622" height="189.57811"/>
  </clipPath>
 </defs>
</svg>
