<?xml version="1.0" encoding="utf-8" standalone="no"?>
<!DOCTYPE svg PUBLIC "-//W3C//DTD SVG 1.1//EN"
  "http://www.w3.org/Graphics/SVG/1.1/DTD/svg11.dtd">
<svg xmlns:xlink="http://www.w3.org/1999/xlink" width="510.23622pt" height="255.11811pt" viewBox="0 0 510.23622 255.11811" xmlns="http://www.w3.org/2000/svg" version="1.1">
 <metadata>
  <rdf:RDF xmlns:dc="http://purl.org/dc/elements/1.1/" xmlns:cc="http://creativecommons.org/ns#" xmlns:rdf="http://www.w3.org/1999/02/22-rdf-syntax-ns#">
   <cc:Work>
    <dc:type rdf:resource="http://purl.org/dc/dcmitype/StillImage"/>
    <dc:date>2022-04-27T00:14:18.364911</dc:date>
    <dc:format>image/svg+xml</dc:format>
    <dc:creator>
     <cc:Agent>
      <dc:title>Matplotlib v3.5.1, https://matplotlib.org/</dc:title>
     </cc:Agent>
    </dc:creator>
   </cc:Work>
  </rdf:RDF>
 </metadata>
 <defs>
  <style type="text/css">*{stroke-linejoin: round; stroke-linecap: butt}</style>
 </defs>
 <g id="figure_1">
  <g id="patch_1">
   <path d="M 0 255.11811 
L 510.23622 255.11811 
L 510.23622 0 
L 0 0 
z
" style="fill: #ffffff"/>
  </g>
  <g id="axes_1">
   <g id="patch_2">
    <path d="M 52.22 213.89811 
L 500.51622 213.89811 
L 500.51622 24.32 
L 52.22 24.32 
z
" style="fill: #ffffff"/>
   </g>
   <g id="matplotlib.axis_1">
    <g id="xtick_1">
     <g id="text_1">
      <!-- 49 -->
      <g style="fill: #444444" transform="translate(79.236315 229.840141)scale(0.09 -0.09)">
       <defs>
        <path id="ArialMT-34" d="M 2069 0 
L 2069 1097 
L 81 1097 
L 81 1613 
L 2172 4581 
L 2631 4581 
L 2631 1613 
L 3250 1613 
L 3250 1097 
L 2631 1097 
L 2631 0 
L 2069 0 
z
M 2069 1613 
L 2069 3678 
L 634 1613 
L 2069 1613 
z
" transform="scale(0.015625)"/>
        <path id="ArialMT-39" d="M 350 1059 
L 891 1109 
Q 959 728 1153 556 
Q 1347 384 1650 384 
Q 1909 384 2104 503 
Q 2300 622 2425 820 
Q 2550 1019 2634 1356 
Q 2719 1694 2719 2044 
Q 2719 2081 2716 2156 
Q 2547 1888 2255 1720 
Q 1963 1553 1622 1553 
Q 1053 1553 659 1965 
Q 266 2378 266 3053 
Q 266 3750 677 4175 
Q 1088 4600 1706 4600 
Q 2153 4600 2523 4359 
Q 2894 4119 3086 3673 
Q 3278 3228 3278 2384 
Q 3278 1506 3087 986 
Q 2897 466 2520 194 
Q 2144 -78 1638 -78 
Q 1100 -78 759 220 
Q 419 519 350 1059 
z
M 2653 3081 
Q 2653 3566 2395 3850 
Q 2138 4134 1775 4134 
Q 1400 4134 1122 3828 
Q 844 3522 844 3034 
Q 844 2597 1108 2323 
Q 1372 2050 1759 2050 
Q 2150 2050 2401 2323 
Q 2653 2597 2653 3081 
z
" transform="scale(0.015625)"/>
       </defs>
       <use xlink:href="#ArialMT-34"/>
       <use xlink:href="#ArialMT-39" x="55.615234"/>
      </g>
     </g>
    </g>
    <g id="xtick_2">
     <g id="text_2">
      <!-- 17 -->
      <g style="fill: #444444" transform="translate(143.278632 229.840141)scale(0.09 -0.09)">
       <defs>
        <path id="ArialMT-31" d="M 2384 0 
L 1822 0 
L 1822 3584 
Q 1619 3391 1289 3197 
Q 959 3003 697 2906 
L 697 3450 
Q 1169 3672 1522 3987 
Q 1875 4303 2022 4600 
L 2384 4600 
L 2384 0 
z
" transform="scale(0.015625)"/>
        <path id="ArialMT-37" d="M 303 3981 
L 303 4522 
L 3269 4522 
L 3269 4084 
Q 2831 3619 2401 2847 
Q 1972 2075 1738 1259 
Q 1569 684 1522 0 
L 944 0 
Q 953 541 1156 1306 
Q 1359 2072 1739 2783 
Q 2119 3494 2547 3981 
L 303 3981 
z
" transform="scale(0.015625)"/>
       </defs>
       <use xlink:href="#ArialMT-31"/>
       <use xlink:href="#ArialMT-37" x="55.615234"/>
      </g>
     </g>
    </g>
    <g id="xtick_3">
     <g id="text_3">
      <!-- 69 -->
      <g style="fill: #444444" transform="translate(207.320949 229.840141)scale(0.09 -0.09)">
       <defs>
        <path id="ArialMT-36" d="M 3184 3459 
L 2625 3416 
Q 2550 3747 2413 3897 
Q 2184 4138 1850 4138 
Q 1581 4138 1378 3988 
Q 1113 3794 959 3422 
Q 806 3050 800 2363 
Q 1003 2672 1297 2822 
Q 1591 2972 1913 2972 
Q 2475 2972 2870 2558 
Q 3266 2144 3266 1488 
Q 3266 1056 3080 686 
Q 2894 316 2569 119 
Q 2244 -78 1831 -78 
Q 1128 -78 684 439 
Q 241 956 241 2144 
Q 241 3472 731 4075 
Q 1159 4600 1884 4600 
Q 2425 4600 2770 4297 
Q 3116 3994 3184 3459 
z
M 888 1484 
Q 888 1194 1011 928 
Q 1134 663 1356 523 
Q 1578 384 1822 384 
Q 2178 384 2434 671 
Q 2691 959 2691 1453 
Q 2691 1928 2437 2201 
Q 2184 2475 1800 2475 
Q 1419 2475 1153 2201 
Q 888 1928 888 1484 
z
" transform="scale(0.015625)"/>
       </defs>
       <use xlink:href="#ArialMT-36"/>
       <use xlink:href="#ArialMT-39" x="55.615234"/>
      </g>
     </g>
    </g>
    <g id="xtick_4">
     <g id="text_4">
      <!-- 15 -->
      <g style="fill: #444444" transform="translate(271.363266 229.840141)scale(0.09 -0.09)">
       <defs>
        <path id="ArialMT-35" d="M 266 1200 
L 856 1250 
Q 922 819 1161 601 
Q 1400 384 1738 384 
Q 2144 384 2425 690 
Q 2706 997 2706 1503 
Q 2706 1984 2436 2262 
Q 2166 2541 1728 2541 
Q 1456 2541 1237 2417 
Q 1019 2294 894 2097 
L 366 2166 
L 809 4519 
L 3088 4519 
L 3088 3981 
L 1259 3981 
L 1013 2750 
Q 1425 3038 1878 3038 
Q 2478 3038 2890 2622 
Q 3303 2206 3303 1553 
Q 3303 931 2941 478 
Q 2500 -78 1738 -78 
Q 1113 -78 717 272 
Q 322 622 266 1200 
z
" transform="scale(0.015625)"/>
       </defs>
       <use xlink:href="#ArialMT-31"/>
       <use xlink:href="#ArialMT-35" x="55.615234"/>
      </g>
     </g>
    </g>
    <g id="xtick_5">
     <g id="text_5">
      <!-- 5 -->
      <g style="fill: #444444" transform="translate(337.908006 229.840141)scale(0.09 -0.09)">
       <use xlink:href="#ArialMT-35"/>
      </g>
     </g>
    </g>
    <g id="xtick_6">
     <g id="text_6">
      <!-- 126 -->
      <g style="fill: #444444" transform="translate(396.945479 229.840141)scale(0.09 -0.09)">
       <defs>
        <path id="ArialMT-32" d="M 3222 541 
L 3222 0 
L 194 0 
Q 188 203 259 391 
Q 375 700 629 1000 
Q 884 1300 1366 1694 
Q 2113 2306 2375 2664 
Q 2638 3022 2638 3341 
Q 2638 3675 2398 3904 
Q 2159 4134 1775 4134 
Q 1369 4134 1125 3890 
Q 881 3647 878 3216 
L 300 3275 
Q 359 3922 746 4261 
Q 1134 4600 1788 4600 
Q 2447 4600 2831 4234 
Q 3216 3869 3216 3328 
Q 3216 3053 3103 2787 
Q 2991 2522 2730 2228 
Q 2469 1934 1863 1422 
Q 1356 997 1212 845 
Q 1069 694 975 541 
L 3222 541 
z
" transform="scale(0.015625)"/>
       </defs>
       <use xlink:href="#ArialMT-31"/>
       <use xlink:href="#ArialMT-32" x="55.615234"/>
       <use xlink:href="#ArialMT-36" x="111.230469"/>
      </g>
     </g>
    </g>
    <g id="xtick_7">
     <g id="text_7">
      <!-- 62 -->
      <g style="fill: #444444" transform="translate(463.490218 229.840141)scale(0.09 -0.09)">
       <use xlink:href="#ArialMT-36"/>
       <use xlink:href="#ArialMT-32" x="55.615234"/>
      </g>
     </g>
    </g>
    <g id="text_8">
     <!-- Patient -->
     <g style="fill: #444444" transform="translate(262.359048 242.070923)scale(0.09 -0.09)">
      <defs>
       <path id="ArialMT-50" d="M 494 0 
L 494 4581 
L 2222 4581 
Q 2678 4581 2919 4538 
Q 3256 4481 3484 4323 
Q 3713 4166 3852 3881 
Q 3991 3597 3991 3256 
Q 3991 2672 3619 2267 
Q 3247 1863 2275 1863 
L 1100 1863 
L 1100 0 
L 494 0 
z
M 1100 2403 
L 2284 2403 
Q 2872 2403 3119 2622 
Q 3366 2841 3366 3238 
Q 3366 3525 3220 3729 
Q 3075 3934 2838 4000 
Q 2684 4041 2272 4041 
L 1100 4041 
L 1100 2403 
z
" transform="scale(0.015625)"/>
       <path id="ArialMT-61" d="M 2588 409 
Q 2275 144 1986 34 
Q 1697 -75 1366 -75 
Q 819 -75 525 192 
Q 231 459 231 875 
Q 231 1119 342 1320 
Q 453 1522 633 1644 
Q 813 1766 1038 1828 
Q 1203 1872 1538 1913 
Q 2219 1994 2541 2106 
Q 2544 2222 2544 2253 
Q 2544 2597 2384 2738 
Q 2169 2928 1744 2928 
Q 1347 2928 1158 2789 
Q 969 2650 878 2297 
L 328 2372 
Q 403 2725 575 2942 
Q 747 3159 1072 3276 
Q 1397 3394 1825 3394 
Q 2250 3394 2515 3294 
Q 2781 3194 2906 3042 
Q 3031 2891 3081 2659 
Q 3109 2516 3109 2141 
L 3109 1391 
Q 3109 606 3145 398 
Q 3181 191 3288 0 
L 2700 0 
Q 2613 175 2588 409 
z
M 2541 1666 
Q 2234 1541 1622 1453 
Q 1275 1403 1131 1340 
Q 988 1278 909 1158 
Q 831 1038 831 891 
Q 831 666 1001 516 
Q 1172 366 1500 366 
Q 1825 366 2078 508 
Q 2331 650 2450 897 
Q 2541 1088 2541 1459 
L 2541 1666 
z
" transform="scale(0.015625)"/>
       <path id="ArialMT-74" d="M 1650 503 
L 1731 6 
Q 1494 -44 1306 -44 
Q 1000 -44 831 53 
Q 663 150 594 308 
Q 525 466 525 972 
L 525 2881 
L 113 2881 
L 113 3319 
L 525 3319 
L 525 4141 
L 1084 4478 
L 1084 3319 
L 1650 3319 
L 1650 2881 
L 1084 2881 
L 1084 941 
Q 1084 700 1114 631 
Q 1144 563 1211 522 
Q 1278 481 1403 481 
Q 1497 481 1650 503 
z
" transform="scale(0.015625)"/>
       <path id="ArialMT-69" d="M 425 3934 
L 425 4581 
L 988 4581 
L 988 3934 
L 425 3934 
z
M 425 0 
L 425 3319 
L 988 3319 
L 988 0 
L 425 0 
z
" transform="scale(0.015625)"/>
       <path id="ArialMT-65" d="M 2694 1069 
L 3275 997 
Q 3138 488 2766 206 
Q 2394 -75 1816 -75 
Q 1088 -75 661 373 
Q 234 822 234 1631 
Q 234 2469 665 2931 
Q 1097 3394 1784 3394 
Q 2450 3394 2872 2941 
Q 3294 2488 3294 1666 
Q 3294 1616 3291 1516 
L 816 1516 
Q 847 969 1125 678 
Q 1403 388 1819 388 
Q 2128 388 2347 550 
Q 2566 713 2694 1069 
z
M 847 1978 
L 2700 1978 
Q 2663 2397 2488 2606 
Q 2219 2931 1791 2931 
Q 1403 2931 1139 2672 
Q 875 2413 847 1978 
z
" transform="scale(0.015625)"/>
       <path id="ArialMT-6e" d="M 422 0 
L 422 3319 
L 928 3319 
L 928 2847 
Q 1294 3394 1984 3394 
Q 2284 3394 2536 3286 
Q 2788 3178 2913 3003 
Q 3038 2828 3088 2588 
Q 3119 2431 3119 2041 
L 3119 0 
L 2556 0 
L 2556 2019 
Q 2556 2363 2490 2533 
Q 2425 2703 2258 2804 
Q 2091 2906 1866 2906 
Q 1506 2906 1245 2678 
Q 984 2450 984 1813 
L 984 0 
L 422 0 
z
" transform="scale(0.015625)"/>
      </defs>
      <use xlink:href="#ArialMT-50"/>
      <use xlink:href="#ArialMT-61" x="66.699219"/>
      <use xlink:href="#ArialMT-74" x="122.314453"/>
      <use xlink:href="#ArialMT-69" x="150.097656"/>
      <use xlink:href="#ArialMT-65" x="172.314453"/>
      <use xlink:href="#ArialMT-6e" x="227.929688"/>
      <use xlink:href="#ArialMT-74" x="283.544922"/>
     </g>
    </g>
   </g>
   <g id="matplotlib.axis_2">
    <g id="ytick_1">
     <g id="text_9">
      <!-- 0 -->
      <g style="fill: #444444" transform="translate(37.715156 208.501939)scale(0.09 -0.09)">
       <defs>
        <path id="ArialMT-30" d="M 266 2259 
Q 266 3072 433 3567 
Q 600 4063 929 4331 
Q 1259 4600 1759 4600 
Q 2128 4600 2406 4451 
Q 2684 4303 2865 4023 
Q 3047 3744 3150 3342 
Q 3253 2941 3253 2259 
Q 3253 1453 3087 958 
Q 2922 463 2592 192 
Q 2263 -78 1759 -78 
Q 1097 -78 719 397 
Q 266 969 266 2259 
z
M 844 2259 
Q 844 1131 1108 757 
Q 1372 384 1759 384 
Q 2147 384 2411 759 
Q 2675 1134 2675 2259 
Q 2675 3391 2411 3762 
Q 2147 4134 1753 4134 
Q 1366 4134 1134 3806 
Q 844 3388 844 2259 
z
" transform="scale(0.015625)"/>
       </defs>
       <use xlink:href="#ArialMT-30"/>
      </g>
     </g>
    </g>
    <g id="ytick_2">
     <g id="text_10">
      <!-- 200 -->
      <g style="fill: #444444" transform="translate(27.705469 174.921936)scale(0.09 -0.09)">
       <use xlink:href="#ArialMT-32"/>
       <use xlink:href="#ArialMT-30" x="55.615234"/>
       <use xlink:href="#ArialMT-30" x="111.230469"/>
      </g>
     </g>
    </g>
    <g id="ytick_3">
     <g id="text_11">
      <!-- 400 -->
      <g style="fill: #444444" transform="translate(27.705469 141.341932)scale(0.09 -0.09)">
       <use xlink:href="#ArialMT-34"/>
       <use xlink:href="#ArialMT-30" x="55.615234"/>
       <use xlink:href="#ArialMT-30" x="111.230469"/>
      </g>
     </g>
    </g>
    <g id="ytick_4">
     <g id="text_12">
      <!-- 600 -->
      <g style="fill: #444444" transform="translate(27.705469 107.761929)scale(0.09 -0.09)">
       <use xlink:href="#ArialMT-36"/>
       <use xlink:href="#ArialMT-30" x="55.615234"/>
       <use xlink:href="#ArialMT-30" x="111.230469"/>
      </g>
     </g>
    </g>
    <g id="ytick_5">
     <g id="text_13">
      <!-- 800 -->
      <g style="fill: #444444" transform="translate(27.705469 74.181926)scale(0.09 -0.09)">
       <defs>
        <path id="ArialMT-38" d="M 1131 2484 
Q 781 2613 612 2850 
Q 444 3088 444 3419 
Q 444 3919 803 4259 
Q 1163 4600 1759 4600 
Q 2359 4600 2725 4251 
Q 3091 3903 3091 3403 
Q 3091 3084 2923 2848 
Q 2756 2613 2416 2484 
Q 2838 2347 3058 2040 
Q 3278 1734 3278 1309 
Q 3278 722 2862 322 
Q 2447 -78 1769 -78 
Q 1091 -78 675 323 
Q 259 725 259 1325 
Q 259 1772 486 2073 
Q 713 2375 1131 2484 
z
M 1019 3438 
Q 1019 3113 1228 2906 
Q 1438 2700 1772 2700 
Q 2097 2700 2305 2904 
Q 2513 3109 2513 3406 
Q 2513 3716 2298 3927 
Q 2084 4138 1766 4138 
Q 1444 4138 1231 3931 
Q 1019 3725 1019 3438 
z
M 838 1322 
Q 838 1081 952 856 
Q 1066 631 1291 507 
Q 1516 384 1775 384 
Q 2178 384 2440 643 
Q 2703 903 2703 1303 
Q 2703 1709 2433 1975 
Q 2163 2241 1756 2241 
Q 1359 2241 1098 1978 
Q 838 1716 838 1322 
z
" transform="scale(0.015625)"/>
       </defs>
       <use xlink:href="#ArialMT-38"/>
       <use xlink:href="#ArialMT-30" x="55.615234"/>
       <use xlink:href="#ArialMT-30" x="111.230469"/>
      </g>
     </g>
    </g>
    <g id="ytick_6">
     <g id="text_14">
      <!-- 1000 -->
      <g style="fill: #444444" transform="translate(22.700625 40.601923)scale(0.09 -0.09)">
       <use xlink:href="#ArialMT-31"/>
       <use xlink:href="#ArialMT-30" x="55.615234"/>
       <use xlink:href="#ArialMT-30" x="111.230469"/>
       <use xlink:href="#ArialMT-30" x="166.845703"/>
      </g>
     </g>
    </g>
    <g id="text_15">
     <!-- Trimmed Means of M values (TMM) -->
     <g style="fill: #444444" transform="translate(16.806406 190.194993)rotate(-90)scale(0.09 -0.09)">
      <defs>
       <path id="ArialMT-54" d="M 1659 0 
L 1659 4041 
L 150 4041 
L 150 4581 
L 3781 4581 
L 3781 4041 
L 2266 4041 
L 2266 0 
L 1659 0 
z
" transform="scale(0.015625)"/>
       <path id="ArialMT-72" d="M 416 0 
L 416 3319 
L 922 3319 
L 922 2816 
Q 1116 3169 1280 3281 
Q 1444 3394 1641 3394 
Q 1925 3394 2219 3213 
L 2025 2691 
Q 1819 2813 1613 2813 
Q 1428 2813 1281 2702 
Q 1134 2591 1072 2394 
Q 978 2094 978 1738 
L 978 0 
L 416 0 
z
" transform="scale(0.015625)"/>
       <path id="ArialMT-6d" d="M 422 0 
L 422 3319 
L 925 3319 
L 925 2853 
Q 1081 3097 1340 3245 
Q 1600 3394 1931 3394 
Q 2300 3394 2536 3241 
Q 2772 3088 2869 2813 
Q 3263 3394 3894 3394 
Q 4388 3394 4653 3120 
Q 4919 2847 4919 2278 
L 4919 0 
L 4359 0 
L 4359 2091 
Q 4359 2428 4304 2576 
Q 4250 2725 4106 2815 
Q 3963 2906 3769 2906 
Q 3419 2906 3187 2673 
Q 2956 2441 2956 1928 
L 2956 0 
L 2394 0 
L 2394 2156 
Q 2394 2531 2256 2718 
Q 2119 2906 1806 2906 
Q 1569 2906 1367 2781 
Q 1166 2656 1075 2415 
Q 984 2175 984 1722 
L 984 0 
L 422 0 
z
" transform="scale(0.015625)"/>
       <path id="ArialMT-64" d="M 2575 0 
L 2575 419 
Q 2259 -75 1647 -75 
Q 1250 -75 917 144 
Q 584 363 401 755 
Q 219 1147 219 1656 
Q 219 2153 384 2558 
Q 550 2963 881 3178 
Q 1213 3394 1622 3394 
Q 1922 3394 2156 3267 
Q 2391 3141 2538 2938 
L 2538 4581 
L 3097 4581 
L 3097 0 
L 2575 0 
z
M 797 1656 
Q 797 1019 1065 703 
Q 1334 388 1700 388 
Q 2069 388 2326 689 
Q 2584 991 2584 1609 
Q 2584 2291 2321 2609 
Q 2059 2928 1675 2928 
Q 1300 2928 1048 2622 
Q 797 2316 797 1656 
z
" transform="scale(0.015625)"/>
       <path id="ArialMT-20" transform="scale(0.015625)"/>
       <path id="ArialMT-4d" d="M 475 0 
L 475 4581 
L 1388 4581 
L 2472 1338 
Q 2622 884 2691 659 
Q 2769 909 2934 1394 
L 4031 4581 
L 4847 4581 
L 4847 0 
L 4263 0 
L 4263 3834 
L 2931 0 
L 2384 0 
L 1059 3900 
L 1059 0 
L 475 0 
z
" transform="scale(0.015625)"/>
       <path id="ArialMT-73" d="M 197 991 
L 753 1078 
Q 800 744 1014 566 
Q 1228 388 1613 388 
Q 2000 388 2187 545 
Q 2375 703 2375 916 
Q 2375 1106 2209 1216 
Q 2094 1291 1634 1406 
Q 1016 1563 777 1677 
Q 538 1791 414 1992 
Q 291 2194 291 2438 
Q 291 2659 392 2848 
Q 494 3038 669 3163 
Q 800 3259 1026 3326 
Q 1253 3394 1513 3394 
Q 1903 3394 2198 3281 
Q 2494 3169 2634 2976 
Q 2775 2784 2828 2463 
L 2278 2388 
Q 2241 2644 2061 2787 
Q 1881 2931 1553 2931 
Q 1166 2931 1000 2803 
Q 834 2675 834 2503 
Q 834 2394 903 2306 
Q 972 2216 1119 2156 
Q 1203 2125 1616 2013 
Q 2213 1853 2448 1751 
Q 2684 1650 2818 1456 
Q 2953 1263 2953 975 
Q 2953 694 2789 445 
Q 2625 197 2315 61 
Q 2006 -75 1616 -75 
Q 969 -75 630 194 
Q 291 463 197 991 
z
" transform="scale(0.015625)"/>
       <path id="ArialMT-6f" d="M 213 1659 
Q 213 2581 725 3025 
Q 1153 3394 1769 3394 
Q 2453 3394 2887 2945 
Q 3322 2497 3322 1706 
Q 3322 1066 3130 698 
Q 2938 331 2570 128 
Q 2203 -75 1769 -75 
Q 1072 -75 642 372 
Q 213 819 213 1659 
z
M 791 1659 
Q 791 1022 1069 705 
Q 1347 388 1769 388 
Q 2188 388 2466 706 
Q 2744 1025 2744 1678 
Q 2744 2294 2464 2611 
Q 2184 2928 1769 2928 
Q 1347 2928 1069 2612 
Q 791 2297 791 1659 
z
" transform="scale(0.015625)"/>
       <path id="ArialMT-66" d="M 556 0 
L 556 2881 
L 59 2881 
L 59 3319 
L 556 3319 
L 556 3672 
Q 556 4006 616 4169 
Q 697 4388 901 4523 
Q 1106 4659 1475 4659 
Q 1713 4659 2000 4603 
L 1916 4113 
Q 1741 4144 1584 4144 
Q 1328 4144 1222 4034 
Q 1116 3925 1116 3625 
L 1116 3319 
L 1763 3319 
L 1763 2881 
L 1116 2881 
L 1116 0 
L 556 0 
z
" transform="scale(0.015625)"/>
       <path id="ArialMT-76" d="M 1344 0 
L 81 3319 
L 675 3319 
L 1388 1331 
Q 1503 1009 1600 663 
Q 1675 925 1809 1294 
L 2547 3319 
L 3125 3319 
L 1869 0 
L 1344 0 
z
" transform="scale(0.015625)"/>
       <path id="ArialMT-6c" d="M 409 0 
L 409 4581 
L 972 4581 
L 972 0 
L 409 0 
z
" transform="scale(0.015625)"/>
       <path id="ArialMT-75" d="M 2597 0 
L 2597 488 
Q 2209 -75 1544 -75 
Q 1250 -75 995 37 
Q 741 150 617 320 
Q 494 491 444 738 
Q 409 903 409 1263 
L 409 3319 
L 972 3319 
L 972 1478 
Q 972 1038 1006 884 
Q 1059 663 1231 536 
Q 1403 409 1656 409 
Q 1909 409 2131 539 
Q 2353 669 2445 892 
Q 2538 1116 2538 1541 
L 2538 3319 
L 3100 3319 
L 3100 0 
L 2597 0 
z
" transform="scale(0.015625)"/>
       <path id="ArialMT-28" d="M 1497 -1347 
Q 1031 -759 709 28 
Q 388 816 388 1659 
Q 388 2403 628 3084 
Q 909 3875 1497 4659 
L 1900 4659 
Q 1522 4009 1400 3731 
Q 1209 3300 1100 2831 
Q 966 2247 966 1656 
Q 966 153 1900 -1347 
L 1497 -1347 
z
" transform="scale(0.015625)"/>
       <path id="ArialMT-29" d="M 791 -1347 
L 388 -1347 
Q 1322 153 1322 1656 
Q 1322 2244 1188 2822 
Q 1081 3291 891 3722 
Q 769 4003 388 4659 
L 791 4659 
Q 1378 3875 1659 3084 
Q 1900 2403 1900 1659 
Q 1900 816 1576 28 
Q 1253 -759 791 -1347 
z
" transform="scale(0.015625)"/>
      </defs>
      <use xlink:href="#ArialMT-54"/>
      <use xlink:href="#ArialMT-72" x="57.333984"/>
      <use xlink:href="#ArialMT-69" x="90.634766"/>
      <use xlink:href="#ArialMT-6d" x="112.851562"/>
      <use xlink:href="#ArialMT-6d" x="196.152344"/>
      <use xlink:href="#ArialMT-65" x="279.453125"/>
      <use xlink:href="#ArialMT-64" x="335.068359"/>
      <use xlink:href="#ArialMT-20" x="390.683594"/>
      <use xlink:href="#ArialMT-4d" x="418.466797"/>
      <use xlink:href="#ArialMT-65" x="501.767578"/>
      <use xlink:href="#ArialMT-61" x="557.382812"/>
      <use xlink:href="#ArialMT-6e" x="612.998047"/>
      <use xlink:href="#ArialMT-73" x="668.613281"/>
      <use xlink:href="#ArialMT-20" x="718.613281"/>
      <use xlink:href="#ArialMT-6f" x="746.396484"/>
      <use xlink:href="#ArialMT-66" x="802.011719"/>
      <use xlink:href="#ArialMT-20" x="829.794922"/>
      <use xlink:href="#ArialMT-4d" x="857.578125"/>
      <use xlink:href="#ArialMT-20" x="940.878906"/>
      <use xlink:href="#ArialMT-76" x="968.662109"/>
      <use xlink:href="#ArialMT-61" x="1018.662109"/>
      <use xlink:href="#ArialMT-6c" x="1074.277344"/>
      <use xlink:href="#ArialMT-75" x="1096.494141"/>
      <use xlink:href="#ArialMT-65" x="1152.109375"/>
      <use xlink:href="#ArialMT-73" x="1207.724609"/>
      <use xlink:href="#ArialMT-20" x="1257.724609"/>
      <use xlink:href="#ArialMT-28" x="1285.507812"/>
      <use xlink:href="#ArialMT-54" x="1318.808594"/>
      <use xlink:href="#ArialMT-4d" x="1379.892578"/>
      <use xlink:href="#ArialMT-4d" x="1463.193359"/>
      <use xlink:href="#ArialMT-29" x="1546.494141"/>
     </g>
    </g>
   </g>
   <g id="PolyCollection_1">
    <defs>
     <path id="ma86bb3b66f" d="M 84.243 -116.648177 
L 84.239317 -116.648177 
L 84.23929 -117.429825 
L 84.239264 -118.211473 
L 84.23924 -118.993121 
L 84.239218 -119.774769 
L 84.239198 -120.556417 
L 84.23918 -121.338065 
L 84.239164 -122.119713 
L 84.23915 -122.901361 
L 84.239138 -123.683009 
L 84.239127 -124.464657 
L 84.239118 -125.246305 
L 84.23911 -126.027953 
L 84.239103 -126.809601 
L 84.239097 -127.591249 
L 84.239091 -128.372897 
L 84.239086 -129.154545 
L 84.239082 -129.936193 
L 84.239077 -130.717841 
L 84.239072 -131.499489 
L 84.239067 -132.281137 
L 84.239061 -133.062785 
L 84.239054 -133.844433 
L 84.239045 -134.626081 
L 84.239035 -135.407729 
L 84.239024 -136.189376 
L 84.23901 -136.971024 
L 84.238994 -137.752672 
L 84.238975 -138.53432 
L 84.238954 -139.315968 
L 84.23893 -140.097616 
L 84.238903 -140.879264 
L 84.238872 -141.660912 
L 84.238838 -142.44256 
L 84.238801 -143.224208 
L 84.23876 -144.005856 
L 84.238715 -144.787504 
L 84.238667 -145.569152 
L 84.238615 -146.3508 
L 84.238559 -147.132448 
L 84.2385 -147.914096 
L 84.238437 -148.695744 
L 84.238371 -149.477392 
L 84.238302 -150.25904 
L 84.238229 -151.040688 
L 84.238153 -151.822336 
L 84.238075 -152.603984 
L 84.237994 -153.385632 
L 84.237911 -154.16728 
L 84.237826 -154.948928 
L 84.237739 -155.730576 
L 84.237651 -156.512224 
L 84.237562 -157.293871 
L 84.237473 -158.075519 
L 84.237383 -158.857167 
L 84.237293 -159.638815 
L 84.237204 -160.420463 
L 84.237116 -161.202111 
L 84.23703 -161.983759 
L 84.236945 -162.765407 
L 84.236862 -163.547055 
L 84.236782 -164.328703 
L 84.236704 -165.110351 
L 84.23663 -165.891999 
L 84.23656 -166.673647 
L 84.236494 -167.455295 
L 84.236432 -168.236943 
L 84.236374 -169.018591 
L 84.236322 -169.800239 
L 84.236275 -170.581887 
L 84.236233 -171.363535 
L 84.236197 -172.145183 
L 84.236167 -172.926831 
L 84.236143 -173.708479 
L 84.236126 -174.490127 
L 84.236114 -175.271775 
L 84.236109 -176.053423 
L 84.23611 -176.835071 
L 84.236118 -177.616719 
L 84.236133 -178.398366 
L 84.236154 -179.180014 
L 84.236181 -179.961662 
L 84.236215 -180.74331 
L 84.236255 -181.524958 
L 84.236301 -182.306606 
L 84.236352 -183.088254 
L 84.23641 -183.869902 
L 84.236473 -184.65155 
L 84.236541 -185.433198 
L 84.236615 -186.214846 
L 84.236693 -186.996494 
L 84.236776 -187.778142 
L 84.236863 -188.55979 
L 84.236954 -189.341438 
L 84.237048 -190.123086 
L 84.237146 -190.904734 
L 84.237247 -191.686382 
L 84.23735 -192.46803 
L 84.237456 -193.249678 
L 84.237563 -194.031326 
L 84.244754 -194.031326 
L 84.244754 -194.031326 
L 84.244862 -193.249678 
L 84.244967 -192.46803 
L 84.245071 -191.686382 
L 84.245171 -190.904734 
L 84.245269 -190.123086 
L 84.245364 -189.341438 
L 84.245454 -188.55979 
L 84.245541 -187.778142 
L 84.245624 -186.996494 
L 84.245702 -186.214846 
L 84.245776 -185.433198 
L 84.245844 -184.65155 
L 84.245907 -183.869902 
L 84.245965 -183.088254 
L 84.246017 -182.306606 
L 84.246063 -181.524958 
L 84.246102 -180.74331 
L 84.246136 -179.961662 
L 84.246163 -179.180014 
L 84.246184 -178.398366 
L 84.246199 -177.616719 
L 84.246207 -176.835071 
L 84.246208 -176.053423 
L 84.246203 -175.271775 
L 84.246192 -174.490127 
L 84.246174 -173.708479 
L 84.24615 -172.926831 
L 84.24612 -172.145183 
L 84.246084 -171.363535 
L 84.246042 -170.581887 
L 84.245995 -169.800239 
L 84.245943 -169.018591 
L 84.245885 -168.236943 
L 84.245823 -167.455295 
L 84.245757 -166.673647 
L 84.245687 -165.891999 
L 84.245613 -165.110351 
L 84.245535 -164.328703 
L 84.245455 -163.547055 
L 84.245372 -162.765407 
L 84.245288 -161.983759 
L 84.245201 -161.202111 
L 84.245113 -160.420463 
L 84.245024 -159.638815 
L 84.244934 -158.857167 
L 84.244845 -158.075519 
L 84.244755 -157.293871 
L 84.244666 -156.512224 
L 84.244578 -155.730576 
L 84.244491 -154.948928 
L 84.244406 -154.16728 
L 84.244323 -153.385632 
L 84.244242 -152.603984 
L 84.244164 -151.822336 
L 84.244088 -151.040688 
L 84.244016 -150.25904 
L 84.243946 -149.477392 
L 84.24388 -148.695744 
L 84.243817 -147.914096 
L 84.243758 -147.132448 
L 84.243702 -146.3508 
L 84.24365 -145.569152 
L 84.243602 -144.787504 
L 84.243557 -144.005856 
L 84.243516 -143.224208 
L 84.243479 -142.44256 
L 84.243445 -141.660912 
L 84.243415 -140.879264 
L 84.243387 -140.097616 
L 84.243363 -139.315968 
L 84.243342 -138.53432 
L 84.243323 -137.752672 
L 84.243307 -136.971024 
L 84.243294 -136.189376 
L 84.243282 -135.407729 
L 84.243272 -134.626081 
L 84.243264 -133.844433 
L 84.243256 -133.062785 
L 84.24325 -132.281137 
L 84.243245 -131.499489 
L 84.24324 -130.717841 
L 84.243236 -129.936193 
L 84.243231 -129.154545 
L 84.243226 -128.372897 
L 84.243221 -127.591249 
L 84.243215 -126.809601 
L 84.243208 -126.027953 
L 84.243199 -125.246305 
L 84.24319 -124.464657 
L 84.243179 -123.683009 
L 84.243167 -122.901361 
L 84.243153 -122.119713 
L 84.243137 -121.338065 
L 84.243119 -120.556417 
L 84.243099 -119.774769 
L 84.243077 -118.993121 
L 84.243054 -118.211473 
L 84.243028 -117.429825 
L 84.243 -116.648177 
z
" style="stroke: #999999; stroke-width: 2"/>
    </defs>
    <g clip-path="url(#p6a64a9486a)">
     <use xlink:href="#ma86bb3b66f" x="0" y="255.11811" style="fill: #ffffff; stroke: #999999; stroke-width: 2"/>
    </g>
   </g>
   <g id="PolyCollection_2">
    <defs>
     <path id="mf339a2bfe7" d="M 173.88863 -49.837187 
L 122.678322 -49.837187 
L 122.666549 -49.837295 
L 122.677875 -49.837404 
L 122.712076 -49.837513 
L 122.768847 -49.837621 
L 122.847811 -49.83773 
L 122.948511 -49.837838 
L 123.07042 -49.837947 
L 123.212937 -49.838055 
L 123.375395 -49.838164 
L 123.557059 -49.838273 
L 123.757131 -49.838381 
L 123.974754 -49.83849 
L 124.209014 -49.838598 
L 124.458948 -49.838707 
L 124.723541 -49.838815 
L 125.00174 -49.838924 
L 125.292449 -49.839033 
L 125.59454 -49.839141 
L 125.906857 -49.83925 
L 126.228219 -49.839358 
L 126.557426 -49.839467 
L 126.893265 -49.839575 
L 127.234517 -49.839684 
L 127.579956 -49.839793 
L 127.928362 -49.839901 
L 128.278518 -49.84001 
L 128.629224 -49.840118 
L 128.979294 -49.840227 
L 129.327565 -49.840335 
L 129.672902 -49.840444 
L 130.014199 -49.840553 
L 130.350388 -49.840661 
L 130.680439 -49.84077 
L 131.003366 -49.840878 
L 131.318231 -49.840987 
L 131.624144 -49.841095 
L 131.920273 -49.841204 
L 132.205838 -49.841313 
L 132.480121 -49.841421 
L 132.742463 -49.84153 
L 132.99227 -49.841638 
L 133.229011 -49.841747 
L 133.452223 -49.841855 
L 133.661508 -49.841964 
L 133.856537 -49.842073 
L 134.03705 -49.842181 
L 134.202853 -49.84229 
L 134.353821 -49.842398 
L 134.489898 -49.842507 
L 134.611093 -49.842615 
L 134.717482 -49.842724 
L 134.809203 -49.842833 
L 134.886461 -49.842941 
L 134.949518 -49.84305 
L 134.998697 -49.843158 
L 135.034378 -49.843267 
L 135.056995 -49.843375 
L 135.067032 -49.843484 
L 135.065025 -49.843593 
L 135.051552 -49.843701 
L 135.027237 -49.84381 
L 134.992742 -49.843918 
L 134.948765 -49.844027 
L 134.896037 -49.844135 
L 134.835316 -49.844244 
L 134.767388 -49.844353 
L 134.693059 -49.844461 
L 134.613153 -49.84457 
L 134.528508 -49.844678 
L 134.439974 -49.844787 
L 134.348406 -49.844895 
L 134.25466 -49.845004 
L 134.159596 -49.845113 
L 134.064065 -49.845221 
L 133.968913 -49.84533 
L 133.874972 -49.845438 
L 133.783062 -49.845547 
L 133.693983 -49.845655 
L 133.608514 -49.845764 
L 133.52741 -49.845873 
L 133.4514 -49.845981 
L 133.381181 -49.84609 
L 133.317419 -49.846198 
L 133.260746 -49.846307 
L 133.211757 -49.846415 
L 133.171006 -49.846524 
L 133.139011 -49.846633 
L 133.116244 -49.846741 
L 133.103135 -49.84685 
L 133.100069 -49.846958 
L 133.107387 -49.847067 
L 133.125383 -49.847175 
L 133.154304 -49.847284 
L 133.19435 -49.847393 
L 133.245675 -49.847501 
L 133.308386 -49.84761 
L 133.382542 -49.847718 
L 133.46816 -49.847827 
L 133.565208 -49.847935 
L 163.001743 -49.847935 
L 163.001743 -49.847935 
L 163.098791 -49.847827 
L 163.184409 -49.847718 
L 163.258566 -49.84761 
L 163.321277 -49.847501 
L 163.372602 -49.847393 
L 163.412648 -49.847284 
L 163.441568 -49.847175 
L 163.459564 -49.847067 
L 163.466882 -49.846958 
L 163.463817 -49.84685 
L 163.450708 -49.846741 
L 163.427941 -49.846633 
L 163.395945 -49.846524 
L 163.355195 -49.846415 
L 163.306206 -49.846307 
L 163.249533 -49.846198 
L 163.185771 -49.84609 
L 163.115552 -49.845981 
L 163.039541 -49.845873 
L 162.958438 -49.845764 
L 162.872969 -49.845655 
L 162.783889 -49.845547 
L 162.691979 -49.845438 
L 162.598039 -49.84533 
L 162.502886 -49.845221 
L 162.407356 -49.845113 
L 162.312291 -49.845004 
L 162.218546 -49.844895 
L 162.126977 -49.844787 
L 162.038443 -49.844678 
L 161.953799 -49.84457 
L 161.873893 -49.844461 
L 161.799564 -49.844353 
L 161.731636 -49.844244 
L 161.670915 -49.844135 
L 161.618186 -49.844027 
L 161.574209 -49.843918 
L 161.539714 -49.84381 
L 161.5154 -49.843701 
L 161.501927 -49.843593 
L 161.49992 -49.843484 
L 161.509957 -49.843375 
L 161.532573 -49.843267 
L 161.568254 -49.843158 
L 161.617434 -49.84305 
L 161.680491 -49.842941 
L 161.757748 -49.842833 
L 161.84947 -49.842724 
L 161.955858 -49.842615 
L 162.077053 -49.842507 
L 162.21313 -49.842398 
L 162.364099 -49.84229 
L 162.529902 -49.842181 
L 162.710414 -49.842073 
L 162.905444 -49.841964 
L 163.114729 -49.841855 
L 163.337941 -49.841747 
L 163.574682 -49.841638 
L 163.824489 -49.84153 
L 164.086831 -49.841421 
L 164.361113 -49.841313 
L 164.646679 -49.841204 
L 164.942807 -49.841095 
L 165.248721 -49.840987 
L 165.563586 -49.840878 
L 165.886513 -49.84077 
L 166.216564 -49.840661 
L 166.552753 -49.840553 
L 166.89405 -49.840444 
L 167.239387 -49.840335 
L 167.587658 -49.840227 
L 167.937728 -49.840118 
L 168.288433 -49.84001 
L 168.63859 -49.839901 
L 168.986995 -49.839793 
L 169.332435 -49.839684 
L 169.673686 -49.839575 
L 170.009526 -49.839467 
L 170.338733 -49.839358 
L 170.660095 -49.83925 
L 170.972411 -49.839141 
L 171.274503 -49.839033 
L 171.565212 -49.838924 
L 171.84341 -49.838815 
L 172.108004 -49.838707 
L 172.357938 -49.838598 
L 172.592198 -49.83849 
L 172.809821 -49.838381 
L 173.009893 -49.838273 
L 173.191556 -49.838164 
L 173.354014 -49.838055 
L 173.496532 -49.837947 
L 173.618441 -49.837838 
L 173.719141 -49.83773 
L 173.798104 -49.837621 
L 173.854876 -49.837513 
L 173.889076 -49.837404 
L 173.900403 -49.837295 
L 173.88863 -49.837187 
z
" style="stroke: #999999; stroke-width: 2"/>
    </defs>
    <g clip-path="url(#p6a64a9486a)">
     <use xlink:href="#mf339a2bfe7" x="0" y="255.11811" style="fill: #ffffff; stroke: #999999; stroke-width: 2"/>
    </g>
   </g>
   <g id="PolyCollection_3">
    <defs>
     <path id="m85c5e76fc8" d="M 212.333972 -54.017592 
L 212.317614 -54.017592 
L 212.31755 -54.578173 
L 212.317499 -55.138753 
L 212.317462 -55.699334 
L 212.317438 -56.259914 
L 212.317429 -56.820495 
L 212.317433 -57.381075 
L 212.31745 -57.941656 
L 212.317481 -58.502237 
L 212.317525 -59.062817 
L 212.317581 -59.623398 
L 212.31765 -60.183978 
L 212.317731 -60.744559 
L 212.317822 -61.30514 
L 212.317924 -61.86572 
L 212.318036 -62.426301 
L 212.318158 -62.986881 
L 212.318288 -63.547462 
L 212.318426 -64.108042 
L 212.318571 -64.668623 
L 212.318722 -65.229204 
L 212.318879 -65.789784 
L 212.319041 -66.350365 
L 212.319207 -66.910945 
L 212.319376 -67.471526 
L 212.319548 -68.032106 
L 212.319721 -68.592687 
L 212.319896 -69.153268 
L 212.320072 -69.713848 
L 212.320247 -70.274429 
L 212.320422 -70.835009 
L 212.320596 -71.39559 
L 212.320768 -71.95617 
L 212.320938 -72.516751 
L 212.321105 -73.077332 
L 212.321269 -73.637912 
L 212.321431 -74.198493 
L 212.321588 -74.759073 
L 212.321742 -75.319654 
L 212.321891 -75.880234 
L 212.322036 -76.440815 
L 212.322177 -77.001396 
L 212.322314 -77.561976 
L 212.322445 -78.122557 
L 212.322572 -78.683137 
L 212.322694 -79.243718 
L 212.322812 -79.804298 
L 212.322924 -80.364879 
L 212.323032 -80.92546 
L 212.323135 -81.48604 
L 212.323234 -82.046621 
L 212.323327 -82.607201 
L 212.323416 -83.167782 
L 212.323501 -83.728362 
L 212.323581 -84.288943 
L 212.323656 -84.849524 
L 212.323728 -85.410104 
L 212.323795 -85.970685 
L 212.323858 -86.531265 
L 212.323916 -87.091846 
L 212.323971 -87.652426 
L 212.324022 -88.213007 
L 212.324069 -88.773588 
L 212.324112 -89.334168 
L 212.324152 -89.894749 
L 212.324188 -90.455329 
L 212.324221 -91.01591 
L 212.32425 -91.57649 
L 212.324276 -92.137071 
L 212.324299 -92.697652 
L 212.324319 -93.258232 
L 212.324336 -93.818813 
L 212.324351 -94.379393 
L 212.324363 -94.939974 
L 212.324372 -95.500554 
L 212.324379 -96.061135 
L 212.324384 -96.621716 
L 212.324387 -97.182296 
L 212.324389 -97.742877 
L 212.324389 -98.303457 
L 212.324387 -98.864038 
L 212.324384 -99.424618 
L 212.324381 -99.985199 
L 212.324376 -100.54578 
L 212.324371 -101.10636 
L 212.324366 -101.666941 
L 212.32436 -102.227521 
L 212.324355 -102.788102 
L 212.324349 -103.348682 
L 212.324344 -103.909263 
L 212.32434 -104.469844 
L 212.324337 -105.030424 
L 212.324334 -105.591005 
L 212.324333 -106.151585 
L 212.324332 -106.712166 
L 212.324333 -107.272746 
L 212.324336 -107.833327 
L 212.32434 -108.393908 
L 212.324346 -108.954488 
L 212.324354 -109.515069 
L 212.327232 -109.515069 
L 212.327232 -109.515069 
L 212.32724 -108.954488 
L 212.327246 -108.393908 
L 212.32725 -107.833327 
L 212.327253 -107.272746 
L 212.327254 -106.712166 
L 212.327254 -106.151585 
L 212.327252 -105.591005 
L 212.327249 -105.030424 
L 212.327246 -104.469844 
L 212.327242 -103.909263 
L 212.327237 -103.348682 
L 212.327231 -102.788102 
L 212.327226 -102.227521 
L 212.32722 -101.666941 
L 212.327215 -101.10636 
L 212.32721 -100.54578 
L 212.327205 -99.985199 
L 212.327202 -99.424618 
L 212.327199 -98.864038 
L 212.327197 -98.303457 
L 212.327197 -97.742877 
L 212.327199 -97.182296 
L 212.327202 -96.621716 
L 212.327207 -96.061135 
L 212.327214 -95.500554 
L 212.327224 -94.939974 
L 212.327235 -94.379393 
L 212.32725 -93.818813 
L 212.327267 -93.258232 
L 212.327287 -92.697652 
L 212.32731 -92.137071 
L 212.327336 -91.57649 
L 212.327365 -91.01591 
L 212.327398 -90.455329 
L 212.327434 -89.894749 
L 212.327474 -89.334168 
L 212.327517 -88.773588 
L 212.327564 -88.213007 
L 212.327615 -87.652426 
L 212.32767 -87.091846 
L 212.327728 -86.531265 
L 212.327791 -85.970685 
L 212.327858 -85.410104 
L 212.32793 -84.849524 
L 212.328005 -84.288943 
L 212.328085 -83.728362 
L 212.32817 -83.167782 
L 212.328259 -82.607201 
L 212.328352 -82.046621 
L 212.328451 -81.48604 
L 212.328554 -80.92546 
L 212.328662 -80.364879 
L 212.328774 -79.804298 
L 212.328892 -79.243718 
L 212.329014 -78.683137 
L 212.329141 -78.122557 
L 212.329272 -77.561976 
L 212.329409 -77.001396 
L 212.32955 -76.440815 
L 212.329695 -75.880234 
L 212.329844 -75.319654 
L 212.329998 -74.759073 
L 212.330156 -74.198493 
L 212.330317 -73.637912 
L 212.330481 -73.077332 
L 212.330648 -72.516751 
L 212.330818 -71.95617 
L 212.33099 -71.39559 
L 212.331164 -70.835009 
L 212.331339 -70.274429 
L 212.331514 -69.713848 
L 212.33169 -69.153268 
L 212.331865 -68.592687 
L 212.332038 -68.032106 
L 212.33221 -67.471526 
L 212.332379 -66.910945 
L 212.332545 -66.350365 
L 212.332707 -65.789784 
L 212.332864 -65.229204 
L 212.333015 -64.668623 
L 212.33316 -64.108042 
L 212.333298 -63.547462 
L 212.333428 -62.986881 
L 212.33355 -62.426301 
L 212.333662 -61.86572 
L 212.333764 -61.30514 
L 212.333856 -60.744559 
L 212.333936 -60.183978 
L 212.334005 -59.623398 
L 212.334061 -59.062817 
L 212.334105 -58.502237 
L 212.334136 -57.941656 
L 212.334153 -57.381075 
L 212.334157 -56.820495 
L 212.334148 -56.259914 
L 212.334124 -55.699334 
L 212.334087 -55.138753 
L 212.334036 -54.578173 
L 212.333972 -54.017592 
z
" style="stroke: #999999; stroke-width: 2"/>
    </defs>
    <g clip-path="url(#p6a64a9486a)">
     <use xlink:href="#m85c5e76fc8" x="0" y="255.11811" style="fill: #ffffff; stroke: #999999; stroke-width: 2"/>
    </g>
   </g>
   <g id="PolyCollection_4">
    <defs>
     <path id="m7c5524162e" d="M 276.418455 -50.026904 
L 276.317766 -50.026904 
L 276.316017 -50.084858 
L 276.314284 -50.142811 
L 276.312569 -50.200765 
L 276.310873 -50.258719 
L 276.309201 -50.316672 
L 276.307552 -50.374626 
L 276.30593 -50.432579 
L 276.304336 -50.490533 
L 276.302772 -50.548487 
L 276.301241 -50.60644 
L 276.299746 -50.664394 
L 276.298288 -50.722348 
L 276.296872 -50.780301 
L 276.295501 -50.838255 
L 276.294177 -50.896208 
L 276.292906 -50.954162 
L 276.291692 -51.012116 
L 276.29054 -51.070069 
L 276.289455 -51.128023 
L 276.288443 -51.185976 
L 276.287509 -51.24393 
L 276.28666 -51.301884 
L 276.2859 -51.359837 
L 276.285237 -51.417791 
L 276.284677 -51.475745 
L 276.284224 -51.533698 
L 276.283885 -51.591652 
L 276.283665 -51.649605 
L 276.283567 -51.707559 
L 276.283597 -51.765513 
L 276.283758 -51.823466 
L 276.284051 -51.88142 
L 276.284479 -51.939373 
L 276.285042 -51.997327 
L 276.285741 -52.055281 
L 276.286573 -52.113234 
L 276.287537 -52.171188 
L 276.28863 -52.229142 
L 276.289847 -52.287095 
L 276.291183 -52.345049 
L 276.292633 -52.403002 
L 276.294189 -52.460956 
L 276.295843 -52.51891 
L 276.297589 -52.576863 
L 276.299416 -52.634817 
L 276.301316 -52.692771 
L 276.303278 -52.750724 
L 276.305294 -52.808678 
L 276.307352 -52.866631 
L 276.309442 -52.924585 
L 276.311555 -52.982539 
L 276.31368 -53.040492 
L 276.315807 -53.098446 
L 276.317928 -53.156399 
L 276.320032 -53.214353 
L 276.322111 -53.272307 
L 276.324156 -53.33026 
L 276.326161 -53.388214 
L 276.328117 -53.446168 
L 276.330019 -53.504121 
L 276.33186 -53.562075 
L 276.333634 -53.620028 
L 276.335338 -53.677982 
L 276.336968 -53.735936 
L 276.338519 -53.793889 
L 276.339989 -53.851843 
L 276.341376 -53.909796 
L 276.342678 -53.96775 
L 276.343895 -54.025704 
L 276.345027 -54.083657 
L 276.346072 -54.141611 
L 276.347033 -54.199565 
L 276.34791 -54.257518 
L 276.348706 -54.315472 
L 276.349422 -54.373425 
L 276.350062 -54.431379 
L 276.350628 -54.489333 
L 276.351124 -54.547286 
L 276.351554 -54.60524 
L 276.351922 -54.663193 
L 276.352233 -54.721147 
L 276.352492 -54.779101 
L 276.352703 -54.837054 
L 276.352872 -54.895008 
L 276.353004 -54.952962 
L 276.353105 -55.010915 
L 276.353179 -55.068869 
L 276.353232 -55.126822 
L 276.35327 -55.184776 
L 276.353297 -55.24273 
L 276.353319 -55.300683 
L 276.35334 -55.358637 
L 276.353364 -55.41659 
L 276.353397 -55.474544 
L 276.353442 -55.532498 
L 276.353501 -55.590451 
L 276.353579 -55.648405 
L 276.353678 -55.706359 
L 276.3538 -55.764312 
L 276.38242 -55.764312 
L 276.38242 -55.764312 
L 276.382542 -55.706359 
L 276.382641 -55.648405 
L 276.382719 -55.590451 
L 276.382779 -55.532498 
L 276.382823 -55.474544 
L 276.382856 -55.41659 
L 276.382881 -55.358637 
L 276.382902 -55.300683 
L 276.382924 -55.24273 
L 276.382951 -55.184776 
L 276.382989 -55.126822 
L 276.383042 -55.068869 
L 276.383116 -55.010915 
L 276.383216 -54.952962 
L 276.383348 -54.895008 
L 276.383517 -54.837054 
L 276.383728 -54.779101 
L 276.383987 -54.721147 
L 276.384298 -54.663193 
L 276.384667 -54.60524 
L 276.385097 -54.547286 
L 276.385593 -54.489333 
L 276.386159 -54.431379 
L 276.386798 -54.373425 
L 276.387515 -54.315472 
L 276.38831 -54.257518 
L 276.389187 -54.199565 
L 276.390148 -54.141611 
L 276.391194 -54.083657 
L 276.392325 -54.025704 
L 276.393542 -53.96775 
L 276.394845 -53.909796 
L 276.396232 -53.851843 
L 276.397702 -53.793889 
L 276.399253 -53.735936 
L 276.400882 -53.677982 
L 276.402586 -53.620028 
L 276.404361 -53.562075 
L 276.406202 -53.504121 
L 276.408103 -53.446168 
L 276.41006 -53.388214 
L 276.412064 -53.33026 
L 276.41411 -53.272307 
L 276.416189 -53.214353 
L 276.418293 -53.156399 
L 276.420413 -53.098446 
L 276.422541 -53.040492 
L 276.424666 -52.982539 
L 276.426778 -52.924585 
L 276.428869 -52.866631 
L 276.430927 -52.808678 
L 276.432942 -52.750724 
L 276.434905 -52.692771 
L 276.436804 -52.634817 
L 276.438632 -52.576863 
L 276.440377 -52.51891 
L 276.442032 -52.460956 
L 276.443588 -52.403002 
L 276.445037 -52.345049 
L 276.446374 -52.287095 
L 276.447591 -52.229142 
L 276.448683 -52.171188 
L 276.449647 -52.113234 
L 276.45048 -52.055281 
L 276.451178 -51.997327 
L 276.451741 -51.939373 
L 276.452169 -51.88142 
L 276.452463 -51.823466 
L 276.452623 -51.765513 
L 276.452653 -51.707559 
L 276.452556 -51.649605 
L 276.452335 -51.591652 
L 276.451996 -51.533698 
L 276.451544 -51.475745 
L 276.450983 -51.417791 
L 276.45032 -51.359837 
L 276.449561 -51.301884 
L 276.448711 -51.24393 
L 276.447777 -51.185976 
L 276.446765 -51.128023 
L 276.44568 -51.070069 
L 276.444528 -51.012116 
L 276.443314 -50.954162 
L 276.442043 -50.896208 
L 276.44072 -50.838255 
L 276.439348 -50.780301 
L 276.437932 -50.722348 
L 276.436475 -50.664394 
L 276.434979 -50.60644 
L 276.433448 -50.548487 
L 276.431885 -50.490533 
L 276.430291 -50.432579 
L 276.428668 -50.374626 
L 276.42702 -50.316672 
L 276.425347 -50.258719 
L 276.423652 -50.200765 
L 276.421937 -50.142811 
L 276.420204 -50.084858 
L 276.418455 -50.026904 
z
" style="stroke: #999999; stroke-width: 2"/>
    </defs>
    <g clip-path="url(#p6a64a9486a)">
     <use xlink:href="#m7c5524162e" x="0" y="255.11811" style="fill: #ffffff; stroke: #999999; stroke-width: 2"/>
    </g>
   </g>
   <g id="PolyCollection_5">
    <defs>
     <path id="m92e7c06009" d="M 342.368573 -49.919882 
L 338.452282 -49.919882 
L 338.420492 -49.920848 
L 338.389776 -49.921814 
L 338.36014 -49.92278 
L 338.331582 -49.923745 
L 338.304095 -49.924711 
L 338.277665 -49.925677 
L 338.25227 -49.926643 
L 338.227885 -49.927609 
L 338.204475 -49.928575 
L 338.182002 -49.92954 
L 338.160423 -49.930506 
L 338.139688 -49.931472 
L 338.119745 -49.932438 
L 338.100537 -49.933404 
L 338.082006 -49.93437 
L 338.06409 -49.935335 
L 338.046726 -49.936301 
L 338.029849 -49.937267 
L 338.013394 -49.938233 
L 337.997296 -49.939199 
L 337.981493 -49.940164 
L 337.965923 -49.94113 
L 337.950525 -49.942096 
L 337.935243 -49.943062 
L 337.920023 -49.944028 
L 337.904817 -49.944994 
L 337.889579 -49.945959 
L 337.874269 -49.946925 
L 337.858853 -49.947891 
L 337.843302 -49.948857 
L 337.827593 -49.949823 
L 337.811709 -49.950788 
L 337.79564 -49.951754 
L 337.779383 -49.95272 
L 337.762941 -49.953686 
L 337.746322 -49.954652 
L 337.729543 -49.955618 
L 337.712625 -49.956583 
L 337.695598 -49.957549 
L 337.678495 -49.958515 
L 337.661357 -49.959481 
L 337.644228 -49.960447 
L 337.627158 -49.961413 
L 337.610201 -49.962378 
L 337.593417 -49.963344 
L 337.576868 -49.96431 
L 337.560617 -49.965276 
L 337.544733 -49.966242 
L 337.529286 -49.967207 
L 337.514346 -49.968173 
L 337.499986 -49.969139 
L 337.486279 -49.970105 
L 337.473297 -49.971071 
L 337.461113 -49.972037 
L 337.449797 -49.973002 
L 337.43942 -49.973968 
L 337.430049 -49.974934 
L 337.421751 -49.9759 
L 337.414589 -49.976866 
L 337.408624 -49.977832 
L 337.403912 -49.978797 
L 337.400509 -49.979763 
L 337.398464 -49.980729 
L 337.397824 -49.981695 
L 337.398631 -49.982661 
L 337.400925 -49.983626 
L 337.404739 -49.984592 
L 337.410103 -49.985558 
L 337.417044 -49.986524 
L 337.425583 -49.98749 
L 337.435737 -49.988456 
L 337.447519 -49.989421 
L 337.460938 -49.990387 
L 337.475999 -49.991353 
L 337.492702 -49.992319 
L 337.511043 -49.993285 
L 337.531014 -49.994251 
L 337.552606 -49.995216 
L 337.575802 -49.996182 
L 337.600584 -49.997148 
L 337.626929 -49.998114 
L 337.654813 -49.99908 
L 337.684206 -50.000045 
L 337.715076 -50.001011 
L 337.747387 -50.001977 
L 337.781102 -50.002943 
L 337.816179 -50.003909 
L 337.852575 -50.004875 
L 337.890242 -50.00584 
L 337.929131 -50.006806 
L 337.969191 -50.007772 
L 338.010367 -50.008738 
L 338.052602 -50.009704 
L 338.095839 -50.010669 
L 338.140017 -50.011635 
L 338.185072 -50.012601 
L 338.23094 -50.013567 
L 338.277557 -50.014533 
L 338.324853 -50.015499 
L 342.496002 -50.015499 
L 342.496002 -50.015499 
L 342.543298 -50.014533 
L 342.589914 -50.013567 
L 342.635783 -50.012601 
L 342.680838 -50.011635 
L 342.725016 -50.010669 
L 342.768253 -50.009704 
L 342.810488 -50.008738 
L 342.851664 -50.007772 
L 342.891724 -50.006806 
L 342.930613 -50.00584 
L 342.96828 -50.004875 
L 343.004675 -50.003909 
L 343.039753 -50.002943 
L 343.073468 -50.001977 
L 343.105779 -50.001011 
L 343.136649 -50.000045 
L 343.166042 -49.99908 
L 343.193925 -49.998114 
L 343.220271 -49.997148 
L 343.245053 -49.996182 
L 343.268249 -49.995216 
L 343.289841 -49.994251 
L 343.309812 -49.993285 
L 343.328153 -49.992319 
L 343.344856 -49.991353 
L 343.359916 -49.990387 
L 343.373336 -49.989421 
L 343.385118 -49.988456 
L 343.395272 -49.98749 
L 343.403811 -49.986524 
L 343.410752 -49.985558 
L 343.416116 -49.984592 
L 343.41993 -49.983626 
L 343.422224 -49.982661 
L 343.423031 -49.981695 
L 343.422391 -49.980729 
L 343.420346 -49.979763 
L 343.416942 -49.978797 
L 343.412231 -49.977832 
L 343.406266 -49.976866 
L 343.399104 -49.9759 
L 343.390806 -49.974934 
L 343.381435 -49.973968 
L 343.371058 -49.973002 
L 343.359742 -49.972037 
L 343.347558 -49.971071 
L 343.334576 -49.970105 
L 343.320868 -49.969139 
L 343.306509 -49.968173 
L 343.291569 -49.967207 
L 343.276122 -49.966242 
L 343.260238 -49.965276 
L 343.243987 -49.96431 
L 343.227437 -49.963344 
L 343.210653 -49.962378 
L 343.193697 -49.961413 
L 343.176627 -49.960447 
L 343.159498 -49.959481 
L 343.142359 -49.958515 
L 343.125257 -49.957549 
L 343.10823 -49.956583 
L 343.091312 -49.955618 
L 343.074533 -49.954652 
L 343.057914 -49.953686 
L 343.041472 -49.95272 
L 343.025215 -49.951754 
L 343.009146 -49.950788 
L 342.993262 -49.949823 
L 342.977553 -49.948857 
L 342.962002 -49.947891 
L 342.946586 -49.946925 
L 342.931276 -49.945959 
L 342.916038 -49.944994 
L 342.900832 -49.944028 
L 342.885612 -49.943062 
L 342.87033 -49.942096 
L 342.854932 -49.94113 
L 342.839362 -49.940164 
L 342.823559 -49.939199 
L 342.807461 -49.938233 
L 342.791006 -49.937267 
L 342.774129 -49.936301 
L 342.756764 -49.935335 
L 342.738848 -49.93437 
L 342.720318 -49.933404 
L 342.70111 -49.932438 
L 342.681167 -49.931472 
L 342.660432 -49.930506 
L 342.638853 -49.92954 
L 342.61638 -49.928575 
L 342.59297 -49.927609 
L 342.568584 -49.926643 
L 342.54319 -49.925677 
L 342.51676 -49.924711 
L 342.489273 -49.923745 
L 342.460715 -49.92278 
L 342.431079 -49.921814 
L 342.400363 -49.920848 
L 342.368573 -49.919882 
z
" style="stroke: #999999; stroke-width: 2"/>
    </defs>
    <g clip-path="url(#p6a64a9486a)">
     <use xlink:href="#m92e7c06009" x="0" y="255.11811" style="fill: #ffffff; stroke: #999999; stroke-width: 2"/>
    </g>
   </g>
   <g id="PolyCollection_6">
    <defs>
     <path id="m9ff6f218b8" d="M 404.49079 -50.081827 
L 404.414699 -50.081827 
L 404.414514 -50.167128 
L 404.414368 -50.252428 
L 404.414262 -50.337728 
L 404.414196 -50.423029 
L 404.41417 -50.508329 
L 404.414183 -50.59363 
L 404.414234 -50.67893 
L 404.414324 -50.76423 
L 404.414451 -50.849531 
L 404.414615 -50.934831 
L 404.414814 -51.020132 
L 404.415048 -51.105432 
L 404.415314 -51.190732 
L 404.415612 -51.276033 
L 404.415941 -51.361333 
L 404.416298 -51.446634 
L 404.416682 -51.531934 
L 404.417091 -51.617235 
L 404.417524 -51.702535 
L 404.417979 -51.787835 
L 404.418454 -51.873136 
L 404.418947 -51.958436 
L 404.419456 -52.043737 
L 404.419979 -52.129037 
L 404.420514 -52.214337 
L 404.42106 -52.299638 
L 404.421615 -52.384938 
L 404.422175 -52.470239 
L 404.422741 -52.555539 
L 404.42331 -52.64084 
L 404.423879 -52.72614 
L 404.424449 -52.81144 
L 404.425016 -52.896741 
L 404.425579 -52.982041 
L 404.426136 -53.067342 
L 404.426687 -53.152642 
L 404.42723 -53.237942 
L 404.427763 -53.323243 
L 404.428285 -53.408543 
L 404.428795 -53.493844 
L 404.429293 -53.579144 
L 404.429776 -53.664444 
L 404.430245 -53.749745 
L 404.430697 -53.835045 
L 404.431134 -53.920346 
L 404.431553 -54.005646 
L 404.431955 -54.090947 
L 404.432339 -54.176247 
L 404.432704 -54.261547 
L 404.433051 -54.346848 
L 404.433378 -54.432148 
L 404.433687 -54.517449 
L 404.433977 -54.602749 
L 404.434248 -54.688049 
L 404.4345 -54.77335 
L 404.434733 -54.85865 
L 404.434948 -54.943951 
L 404.435145 -55.029251 
L 404.435324 -55.114552 
L 404.435486 -55.199852 
L 404.435631 -55.285152 
L 404.435761 -55.370453 
L 404.435874 -55.455753 
L 404.435973 -55.541054 
L 404.436058 -55.626354 
L 404.43613 -55.711654 
L 404.436189 -55.796955 
L 404.436237 -55.882255 
L 404.436274 -55.967556 
L 404.436301 -56.052856 
L 404.43632 -56.138157 
L 404.436331 -56.223457 
L 404.436335 -56.308757 
L 404.436333 -56.394058 
L 404.436326 -56.479358 
L 404.436316 -56.564659 
L 404.436302 -56.649959 
L 404.436288 -56.735259 
L 404.436272 -56.82056 
L 404.436257 -56.90586 
L 404.436243 -56.991161 
L 404.436231 -57.076461 
L 404.436223 -57.161761 
L 404.436219 -57.247062 
L 404.436219 -57.332362 
L 404.436226 -57.417663 
L 404.436239 -57.502963 
L 404.43626 -57.588264 
L 404.436289 -57.673564 
L 404.436327 -57.758864 
L 404.436374 -57.844165 
L 404.436431 -57.929465 
L 404.436499 -58.014766 
L 404.436577 -58.100066 
L 404.436667 -58.185366 
L 404.436768 -58.270667 
L 404.436881 -58.355967 
L 404.437006 -58.441268 
L 404.437144 -58.526568 
L 404.468346 -58.526568 
L 404.468346 -58.526568 
L 404.468483 -58.441268 
L 404.468608 -58.355967 
L 404.468721 -58.270667 
L 404.468822 -58.185366 
L 404.468912 -58.100066 
L 404.468991 -58.014766 
L 404.469058 -57.929465 
L 404.469115 -57.844165 
L 404.469163 -57.758864 
L 404.4692 -57.673564 
L 404.469229 -57.588264 
L 404.46925 -57.502963 
L 404.469263 -57.417663 
L 404.46927 -57.332362 
L 404.469271 -57.247062 
L 404.469266 -57.161761 
L 404.469258 -57.076461 
L 404.469246 -56.991161 
L 404.469233 -56.90586 
L 404.469217 -56.82056 
L 404.469202 -56.735259 
L 404.469187 -56.649959 
L 404.469174 -56.564659 
L 404.469163 -56.479358 
L 404.469157 -56.394058 
L 404.469155 -56.308757 
L 404.469159 -56.223457 
L 404.469169 -56.138157 
L 404.469188 -56.052856 
L 404.469215 -55.967556 
L 404.469252 -55.882255 
L 404.4693 -55.796955 
L 404.469359 -55.711654 
L 404.469431 -55.626354 
L 404.469516 -55.541054 
L 404.469615 -55.455753 
L 404.469729 -55.370453 
L 404.469858 -55.285152 
L 404.470003 -55.199852 
L 404.470165 -55.114552 
L 404.470344 -55.029251 
L 404.470541 -54.943951 
L 404.470756 -54.85865 
L 404.470989 -54.77335 
L 404.471241 -54.688049 
L 404.471512 -54.602749 
L 404.471802 -54.517449 
L 404.472111 -54.432148 
L 404.472439 -54.346848 
L 404.472785 -54.261547 
L 404.473151 -54.176247 
L 404.473535 -54.090947 
L 404.473936 -54.005646 
L 404.474356 -53.920346 
L 404.474792 -53.835045 
L 404.475245 -53.749745 
L 404.475713 -53.664444 
L 404.476197 -53.579144 
L 404.476694 -53.493844 
L 404.477204 -53.408543 
L 404.477726 -53.323243 
L 404.478259 -53.237942 
L 404.478802 -53.152642 
L 404.479353 -53.067342 
L 404.479911 -52.982041 
L 404.480474 -52.896741 
L 404.481041 -52.81144 
L 404.48161 -52.72614 
L 404.48218 -52.64084 
L 404.482748 -52.555539 
L 404.483314 -52.470239 
L 404.483875 -52.384938 
L 404.484429 -52.299638 
L 404.484975 -52.214337 
L 404.48551 -52.129037 
L 404.486034 -52.043737 
L 404.486543 -51.958436 
L 404.487035 -51.873136 
L 404.48751 -51.787835 
L 404.487965 -51.702535 
L 404.488398 -51.617235 
L 404.488807 -51.531934 
L 404.489192 -51.446634 
L 404.489549 -51.361333 
L 404.489877 -51.276033 
L 404.490175 -51.190732 
L 404.490442 -51.105432 
L 404.490675 -51.020132 
L 404.490874 -50.934831 
L 404.491038 -50.849531 
L 404.491165 -50.76423 
L 404.491255 -50.67893 
L 404.491307 -50.59363 
L 404.49132 -50.508329 
L 404.491293 -50.423029 
L 404.491227 -50.337728 
L 404.491121 -50.252428 
L 404.490976 -50.167128 
L 404.49079 -50.081827 
z
" style="stroke: #999999; stroke-width: 2"/>
    </defs>
    <g clip-path="url(#p6a64a9486a)">
     <use xlink:href="#m9ff6f218b8" x="0" y="255.11811" style="fill: #ffffff; stroke: #999999; stroke-width: 2"/>
    </g>
   </g>
   <g id="PolyCollection_7">
    <defs>
     <path id="ma08c90d03b" d="M 468.497543 -143.686139 
L 468.492581 -143.686139 
L 468.49253 -144.479016 
L 468.49248 -145.271892 
L 468.492432 -146.064769 
L 468.492384 -146.857645 
L 468.492338 -147.650522 
L 468.492293 -148.443399 
L 468.49225 -149.236275 
L 468.492207 -150.029152 
L 468.492167 -150.822028 
L 468.492127 -151.614905 
L 468.492089 -152.407782 
L 468.492053 -153.200658 
L 468.492018 -153.993535 
L 468.491985 -154.786411 
L 468.491953 -155.579288 
L 468.491923 -156.372165 
L 468.491894 -157.165041 
L 468.491867 -157.957918 
L 468.491841 -158.750795 
L 468.491817 -159.543671 
L 468.491794 -160.336548 
L 468.491773 -161.129424 
L 468.491754 -161.922301 
L 468.491736 -162.715178 
L 468.491719 -163.508054 
L 468.491704 -164.300931 
L 468.491691 -165.093807 
L 468.491679 -165.886684 
L 468.491668 -166.679561 
L 468.491659 -167.472437 
L 468.491651 -168.265314 
L 468.491645 -169.05819 
L 468.49164 -169.851067 
L 468.491636 -170.643944 
L 468.491633 -171.43682 
L 468.491632 -172.229697 
L 468.491632 -173.022574 
L 468.491633 -173.81545 
L 468.491635 -174.608327 
L 468.491638 -175.401203 
L 468.491642 -176.19408 
L 468.491647 -176.986957 
L 468.491653 -177.779833 
L 468.49166 -178.57271 
L 468.491667 -179.365586 
L 468.491676 -180.158463 
L 468.491684 -180.95134 
L 468.491693 -181.744216 
L 468.491703 -182.537093 
L 468.491713 -183.329969 
L 468.491723 -184.122846 
L 468.491734 -184.915723 
L 468.491745 -185.708599 
L 468.491755 -186.501476 
L 468.491766 -187.294353 
L 468.491777 -188.087229 
L 468.491788 -188.880106 
L 468.491799 -189.672982 
L 468.491809 -190.465859 
L 468.491819 -191.258736 
L 468.491829 -192.051612 
L 468.491839 -192.844489 
L 468.491849 -193.637365 
L 468.491858 -194.430242 
L 468.491867 -195.223119 
L 468.491875 -196.015995 
L 468.491884 -196.808872 
L 468.491892 -197.601748 
L 468.4919 -198.394625 
L 468.491908 -199.187502 
L 468.491915 -199.980378 
L 468.491923 -200.773255 
L 468.491931 -201.566132 
L 468.491938 -202.359008 
L 468.491946 -203.151885 
L 468.491954 -203.944761 
L 468.491963 -204.737638 
L 468.491972 -205.530515 
L 468.491981 -206.323391 
L 468.491991 -207.116268 
L 468.492002 -207.909144 
L 468.492014 -208.702021 
L 468.492026 -209.494898 
L 468.49204 -210.287774 
L 468.492055 -211.080651 
L 468.492071 -211.873527 
L 468.492088 -212.666404 
L 468.492107 -213.459281 
L 468.492128 -214.252157 
L 468.49215 -215.045034 
L 468.492173 -215.837911 
L 468.492199 -216.630787 
L 468.492226 -217.423664 
L 468.492255 -218.21654 
L 468.492285 -219.009417 
L 468.492318 -219.802294 
L 468.492353 -220.59517 
L 468.492389 -221.388047 
L 468.492427 -222.180923 
L 468.497696 -222.180923 
L 468.497696 -222.180923 
L 468.497735 -221.388047 
L 468.497771 -220.59517 
L 468.497806 -219.802294 
L 468.497838 -219.009417 
L 468.497869 -218.21654 
L 468.497898 -217.423664 
L 468.497925 -216.630787 
L 468.497951 -215.837911 
L 468.497974 -215.045034 
L 468.497996 -214.252157 
L 468.498017 -213.459281 
L 468.498035 -212.666404 
L 468.498053 -211.873527 
L 468.498069 -211.080651 
L 468.498084 -210.287774 
L 468.498097 -209.494898 
L 468.49811 -208.702021 
L 468.498122 -207.909144 
L 468.498132 -207.116268 
L 468.498143 -206.323391 
L 468.498152 -205.530515 
L 468.498161 -204.737638 
L 468.498169 -203.944761 
L 468.498177 -203.151885 
L 468.498185 -202.359008 
L 468.498193 -201.566132 
L 468.498201 -200.773255 
L 468.498208 -199.980378 
L 468.498216 -199.187502 
L 468.498224 -198.394625 
L 468.498232 -197.601748 
L 468.49824 -196.808872 
L 468.498248 -196.015995 
L 468.498257 -195.223119 
L 468.498266 -194.430242 
L 468.498275 -193.637365 
L 468.498285 -192.844489 
L 468.498294 -192.051612 
L 468.498304 -191.258736 
L 468.498315 -190.465859 
L 468.498325 -189.672982 
L 468.498336 -188.880106 
L 468.498347 -188.087229 
L 468.498357 -187.294353 
L 468.498368 -186.501476 
L 468.498379 -185.708599 
L 468.49839 -184.915723 
L 468.4984 -184.122846 
L 468.498411 -183.329969 
L 468.498421 -182.537093 
L 468.49843 -181.744216 
L 468.498439 -180.95134 
L 468.498448 -180.158463 
L 468.498456 -179.365586 
L 468.498464 -178.57271 
L 468.49847 -177.779833 
L 468.498476 -176.986957 
L 468.498481 -176.19408 
L 468.498485 -175.401203 
L 468.498489 -174.608327 
L 468.498491 -173.81545 
L 468.498492 -173.022574 
L 468.498492 -172.229697 
L 468.49849 -171.43682 
L 468.498488 -170.643944 
L 468.498484 -169.851067 
L 468.498479 -169.05819 
L 468.498473 -168.265314 
L 468.498465 -167.472437 
L 468.498456 -166.679561 
L 468.498445 -165.886684 
L 468.498433 -165.093807 
L 468.498419 -164.300931 
L 468.498404 -163.508054 
L 468.498388 -162.715178 
L 468.49837 -161.922301 
L 468.49835 -161.129424 
L 468.498329 -160.336548 
L 468.498307 -159.543671 
L 468.498283 -158.750795 
L 468.498257 -157.957918 
L 468.49823 -157.165041 
L 468.498201 -156.372165 
L 468.498171 -155.579288 
L 468.498139 -154.786411 
L 468.498105 -153.993535 
L 468.498071 -153.200658 
L 468.498034 -152.407782 
L 468.497996 -151.614905 
L 468.497957 -150.822028 
L 468.497916 -150.029152 
L 468.497874 -149.236275 
L 468.497831 -148.443399 
L 468.497786 -147.650522 
L 468.49774 -146.857645 
L 468.497692 -146.064769 
L 468.497643 -145.271892 
L 468.497594 -144.479016 
L 468.497543 -143.686139 
z
" style="stroke: #999999; stroke-width: 2"/>
    </defs>
    <g clip-path="url(#p6a64a9486a)">
     <use xlink:href="#ma08c90d03b" x="0" y="255.11811" style="fill: #ffffff; stroke: #999999; stroke-width: 2"/>
    </g>
   </g>
   <g id="PathCollection_1"/>
   <g id="PathCollection_2"/>
   <g id="patch_3">
    <path d="M 52.22 213.89811 
L 52.22 24.32 
" style="fill: none; stroke: #262626; stroke-width: 1.25; stroke-linejoin: miter; stroke-linecap: square"/>
   </g>
   <g id="patch_4">
    <path d="M 52.22 213.89811 
L 500.51622 213.89811 
" style="fill: none; stroke: #262626; stroke-width: 1.25; stroke-linejoin: miter; stroke-linecap: square"/>
   </g>
   <g id="PathCollection_3">
    <defs>
     <path id="C0_0_73c7a81e94" d="M 0 2.5 
C 0.663008 2.5 1.29895 2.236584 1.767767 1.767767 
C 2.236584 1.29895 2.5 0.663008 2.5 -0 
C 2.5 -0.663008 2.236584 -1.29895 1.767767 -1.767767 
C 1.29895 -2.236584 0.663008 -2.5 0 -2.5 
C -0.663008 -2.5 -1.29895 -2.236584 -1.767767 -1.767767 
C -2.236584 -1.29895 -2.5 -0.663008 -2.5 0 
C -2.5 0.663008 -2.236584 1.29895 -1.767767 1.767767 
C -1.29895 2.236584 -0.663008 2.5 0 2.5 
z
"/>
    </defs>
    <g clip-path="url(#p6a64a9486a)">
     <use xlink:href="#C0_0_73c7a81e94" x="80.236573" y="138.469933" style="fill: #4c72b0; fill-opacity: 0.75"/>
    </g>
    <g clip-path="url(#p6a64a9486a)">
     <use xlink:href="#C0_0_73c7a81e94" x="88.484304" y="61.086784" style="fill: #4c72b0; fill-opacity: 0.75"/>
    </g>
    <g clip-path="url(#p6a64a9486a)">
     <use xlink:href="#C0_0_73c7a81e94" x="80.501734" y="74.937707" style="fill: #4c72b0; fill-opacity: 0.75"/>
    </g>
    <g clip-path="url(#p6a64a9486a)">
     <use xlink:href="#C0_0_73c7a81e94" x="88.075019" y="127.446622" style="fill: #4c72b0; fill-opacity: 0.75"/>
    </g>
    <g clip-path="url(#p6a64a9486a)">
     <use xlink:href="#C0_0_73c7a81e94" x="85.822238" y="72.017856" style="fill: #dd8452; fill-opacity: 0.75"/>
    </g>
    <g clip-path="url(#p6a64a9486a)">
     <use xlink:href="#C0_0_73c7a81e94" x="88.582985" y="87.650536" style="fill: #dd8452; fill-opacity: 0.75"/>
    </g>
    <g clip-path="url(#p6a64a9486a)">
     <use xlink:href="#C0_0_73c7a81e94" x="83.417804" y="80.451684" style="fill: #dd8452; fill-opacity: 0.75"/>
    </g>
    <g clip-path="url(#p6a64a9486a)">
     <use xlink:href="#C0_0_73c7a81e94" x="86.481758" y="92.254857" style="fill: #dd8452; fill-opacity: 0.75"/>
    </g>
   </g>
   <g id="PathCollection_4">
    <defs>
     <path id="C1_0_49e5495e94" d="M 0 2.5 
C 0.663008 2.5 1.29895 2.236584 1.767767 1.767767 
C 2.236584 1.29895 2.5 0.663008 2.5 -0 
C 2.5 -0.663008 2.236584 -1.29895 1.767767 -1.767767 
C 1.29895 -2.236584 0.663008 -2.5 0 -2.5 
C -0.663008 -2.5 -1.29895 -2.236584 -1.767767 -1.767767 
C -2.236584 -1.29895 -2.5 -0.663008 -2.5 0 
C -2.5 0.663008 -2.236584 1.29895 -1.767767 1.767767 
C -1.29895 2.236584 -0.663008 2.5 0 2.5 
z
"/>
    </defs>
    <g clip-path="url(#p6a64a9486a)">
     <use xlink:href="#C1_0_49e5495e94" x="150.829665" y="205.270175" style="fill: #4c72b0; fill-opacity: 0.75"/>
    </g>
    <g clip-path="url(#p6a64a9486a)">
     <use xlink:href="#C1_0_49e5495e94" x="148.765435" y="205.272021" style="fill: #4c72b0; fill-opacity: 0.75"/>
    </g>
    <g clip-path="url(#p6a64a9486a)">
     <use xlink:href="#C1_0_49e5495e94" x="147.53059" y="205.280923" style="fill: #4c72b0; fill-opacity: 0.75"/>
    </g>
    <g clip-path="url(#p6a64a9486a)">
     <use xlink:href="#C1_0_49e5495e94" x="147.365941" y="205.280923" style="fill: #4c72b0; fill-opacity: 0.75"/>
    </g>
    <g clip-path="url(#p6a64a9486a)">
     <use xlink:href="#C1_0_49e5495e94" x="147.916081" y="205.270379" style="fill: #dd8452; fill-opacity: 0.75"/>
    </g>
    <g clip-path="url(#p6a64a9486a)">
     <use xlink:href="#C1_0_49e5495e94" x="144.090774" y="205.280923" style="fill: #dd8452; fill-opacity: 0.75"/>
    </g>
    <g clip-path="url(#p6a64a9486a)">
     <use xlink:href="#C1_0_49e5495e94" x="143.043832" y="205.280923" style="fill: #dd8452; fill-opacity: 0.75"/>
    </g>
    <g clip-path="url(#p6a64a9486a)">
     <use xlink:href="#C1_0_49e5495e94" x="153.711196" y="205.280923" style="fill: #dd8452; fill-opacity: 0.75"/>
    </g>
   </g>
   <g id="PathCollection_5">
    <defs>
     <path id="C2_0_cce0e010c7" d="M 0 2.5 
C 0.663008 2.5 1.29895 2.236584 1.767767 1.767767 
C 2.236584 1.29895 2.5 0.663008 2.5 -0 
C 2.5 -0.663008 2.236584 -1.29895 1.767767 -1.767767 
C 1.29895 -2.236584 0.663008 -2.5 0 -2.5 
C -0.663008 -2.5 -1.29895 -2.236584 -1.767767 -1.767767 
C -2.236584 -1.29895 -2.5 -0.663008 -2.5 0 
C -2.5 0.663008 -2.236584 1.29895 -1.767767 1.767767 
C -1.29895 2.236584 -0.663008 2.5 0 2.5 
z
"/>
    </defs>
    <g clip-path="url(#p6a64a9486a)">
     <use xlink:href="#C2_0_cce0e010c7" x="210.74382" y="145.603041" style="fill: #4c72b0; fill-opacity: 0.75"/>
    </g>
    <g clip-path="url(#p6a64a9486a)">
     <use xlink:href="#C2_0_cce0e010c7" x="215.724983" y="195.398714" style="fill: #4c72b0; fill-opacity: 0.75"/>
    </g>
    <g clip-path="url(#p6a64a9486a)">
     <use xlink:href="#C2_0_cce0e010c7" x="214.184534" y="198.848609" style="fill: #4c72b0; fill-opacity: 0.75"/>
    </g>
    <g clip-path="url(#p6a64a9486a)">
     <use xlink:href="#C2_0_cce0e010c7" x="216.047424" y="201.100518" style="fill: #4c72b0; fill-opacity: 0.75"/>
    </g>
    <g clip-path="url(#p6a64a9486a)">
     <use xlink:href="#C2_0_cce0e010c7" x="212.733997" y="200.18333" style="fill: #dd8452; fill-opacity: 0.75"/>
    </g>
    <g clip-path="url(#p6a64a9486a)">
     <use xlink:href="#C2_0_cce0e010c7" x="206.108179" y="198.192504" style="fill: #dd8452; fill-opacity: 0.75"/>
    </g>
    <g clip-path="url(#p6a64a9486a)">
     <use xlink:href="#C2_0_cce0e010c7" x="215.822632" y="200.660959" style="fill: #dd8452; fill-opacity: 0.75"/>
    </g>
    <g clip-path="url(#p6a64a9486a)">
     <use xlink:href="#C2_0_cce0e010c7" x="208.303448" y="176.332917" style="fill: #dd8452; fill-opacity: 0.75"/>
    </g>
   </g>
   <g id="PathCollection_6">
    <defs>
     <path id="C3_0_601edbfd32" d="M 0 2.5 
C 0.663008 2.5 1.29895 2.236584 1.767767 1.767767 
C 2.236584 1.29895 2.5 0.663008 2.5 -0 
C 2.5 -0.663008 2.236584 -1.29895 1.767767 -1.767767 
C 1.29895 -2.236584 0.663008 -2.5 0 -2.5 
C -0.663008 -2.5 -1.29895 -2.236584 -1.767767 -1.767767 
C -2.236584 -1.29895 -2.5 -0.663008 -2.5 0 
C -2.5 0.663008 -2.236584 1.29895 -1.767767 1.767767 
C -1.29895 2.236584 -0.663008 2.5 0 2.5 
z
"/>
    </defs>
    <g clip-path="url(#p6a64a9486a)">
     <use xlink:href="#C3_0_601edbfd32" x="274.31461" y="203.170845" style="fill: #4c72b0; fill-opacity: 0.75"/>
    </g>
    <g clip-path="url(#p6a64a9486a)">
     <use xlink:href="#C3_0_601edbfd32" x="281.675423" y="202.825526" style="fill: #4c72b0; fill-opacity: 0.75"/>
    </g>
    <g clip-path="url(#p6a64a9486a)">
     <use xlink:href="#C3_0_601edbfd32" x="270.720808" y="203.150465" style="fill: #4c72b0; fill-opacity: 0.75"/>
    </g>
    <g clip-path="url(#p6a64a9486a)">
     <use xlink:href="#C3_0_601edbfd32" x="282.374948" y="205.091206" style="fill: #4c72b0; fill-opacity: 0.75"/>
    </g>
    <g clip-path="url(#p6a64a9486a)">
     <use xlink:href="#C3_0_601edbfd32" x="277.710112" y="203.236569" style="fill: #4c72b0; fill-opacity: 0.75"/>
    </g>
    <g clip-path="url(#p6a64a9486a)">
     <use xlink:href="#C3_0_601edbfd32" x="278.096437" y="203.374236" style="fill: #dd8452; fill-opacity: 0.75"/>
    </g>
    <g clip-path="url(#p6a64a9486a)">
     <use xlink:href="#C3_0_601edbfd32" x="274.83094" y="201.812547" style="fill: #dd8452; fill-opacity: 0.75"/>
    </g>
    <g clip-path="url(#p6a64a9486a)">
     <use xlink:href="#C3_0_601edbfd32" x="276.916881" y="199.353798" style="fill: #dd8452; fill-opacity: 0.75"/>
    </g>
    <g clip-path="url(#p6a64a9486a)">
     <use xlink:href="#C3_0_601edbfd32" x="274.352398" y="204.480723" style="fill: #dd8452; fill-opacity: 0.75"/>
    </g>
    <g clip-path="url(#p6a64a9486a)">
     <use xlink:href="#C3_0_601edbfd32" x="276.321218" y="204.897661" style="fill: #dd8452; fill-opacity: 0.75"/>
    </g>
   </g>
   <g id="PathCollection_7">
    <defs>
     <path id="C4_0_d4cd5cfc03" d="M 0 2.5 
C 0.663008 2.5 1.29895 2.236584 1.767767 1.767767 
C 2.236584 1.29895 2.5 0.663008 2.5 -0 
C 2.5 -0.663008 2.236584 -1.29895 1.767767 -1.767767 
C 1.29895 -2.236584 0.663008 -2.5 0 -2.5 
C -0.663008 -2.5 -1.29895 -2.236584 -1.767767 -1.767767 
C -2.236584 -1.29895 -2.5 -0.663008 -2.5 0 
C -2.5 0.663008 -2.236584 1.29895 -1.767767 1.767767 
C -1.29895 2.236584 -0.663008 2.5 0 2.5 
z
"/>
    </defs>
    <g clip-path="url(#p6a64a9486a)">
     <use xlink:href="#C4_0_d4cd5cfc03" x="344.312311" y="205.102612" style="fill: #4c72b0; fill-opacity: 0.75"/>
    </g>
    <g clip-path="url(#p6a64a9486a)">
     <use xlink:href="#C4_0_d4cd5cfc03" x="337.482215" y="205.186457" style="fill: #4c72b0; fill-opacity: 0.75"/>
    </g>
    <g clip-path="url(#p6a64a9486a)">
     <use xlink:href="#C4_0_d4cd5cfc03" x="340.017079" y="205.141649" style="fill: #4c72b0; fill-opacity: 0.75"/>
    </g>
    <g clip-path="url(#p6a64a9486a)">
     <use xlink:href="#C4_0_d4cd5cfc03" x="342.797718" y="205.148988" style="fill: #dd8452; fill-opacity: 0.75"/>
    </g>
    <g clip-path="url(#p6a64a9486a)">
     <use xlink:href="#C4_0_d4cd5cfc03" x="339.68913" y="205.198228" style="fill: #dd8452; fill-opacity: 0.75"/>
    </g>
    <g clip-path="url(#p6a64a9486a)">
     <use xlink:href="#C4_0_d4cd5cfc03" x="338.394289" y="205.120684" style="fill: #dd8452; fill-opacity: 0.75"/>
    </g>
   </g>
   <g id="PathCollection_8">
    <defs>
     <path id="C5_0_fe7576aee7" d="M 0 2.5 
C 0.663008 2.5 1.29895 2.236584 1.767767 1.767767 
C 2.236584 1.29895 2.5 0.663008 2.5 -0 
C 2.5 -0.663008 2.236584 -1.29895 1.767767 -1.767767 
C 1.29895 -2.236584 0.663008 -2.5 0 -2.5 
C -0.663008 -2.5 -1.29895 -2.236584 -1.767767 -1.767767 
C -2.236584 -1.29895 -2.5 -0.663008 -2.5 0 
C -2.5 0.663008 -2.236584 1.29895 -1.767767 1.767767 
C -1.29895 2.236584 -0.663008 2.5 0 2.5 
z
"/>
    </defs>
    <g clip-path="url(#p6a64a9486a)">
     <use xlink:href="#C5_0_fe7576aee7" x="410.305445" y="201.205211" style="fill: #4c72b0; fill-opacity: 0.75"/>
    </g>
    <g clip-path="url(#p6a64a9486a)">
     <use xlink:href="#C5_0_fe7576aee7" x="408.408143" y="196.591542" style="fill: #4c72b0; fill-opacity: 0.75"/>
    </g>
    <g clip-path="url(#p6a64a9486a)">
     <use xlink:href="#C5_0_fe7576aee7" x="402.111478" y="204.430495" style="fill: #4c72b0; fill-opacity: 0.75"/>
    </g>
    <g clip-path="url(#p6a64a9486a)">
     <use xlink:href="#C5_0_fe7576aee7" x="403.327767" y="197.088441" style="fill: #4c72b0; fill-opacity: 0.75"/>
    </g>
    <g clip-path="url(#p6a64a9486a)">
     <use xlink:href="#C5_0_fe7576aee7" x="409.952524" y="204.890097" style="fill: #dd8452; fill-opacity: 0.75"/>
    </g>
    <g clip-path="url(#p6a64a9486a)">
     <use xlink:href="#C5_0_fe7576aee7" x="405.809869" y="205.036283" style="fill: #dd8452; fill-opacity: 0.75"/>
    </g>
    <g clip-path="url(#p6a64a9486a)">
     <use xlink:href="#C5_0_fe7576aee7" x="398.229491" y="205.007176" style="fill: #dd8452; fill-opacity: 0.75"/>
    </g>
    <g clip-path="url(#p6a64a9486a)">
     <use xlink:href="#C5_0_fe7576aee7" x="399.577143" y="204.999025" style="fill: #dd8452; fill-opacity: 0.75"/>
    </g>
   </g>
   <g id="PathCollection_9">
    <defs>
     <path id="C6_0_764a1b6950" d="M 0 2.5 
C 0.663008 2.5 1.29895 2.236584 1.767767 1.767767 
C 2.236584 1.29895 2.5 0.663008 2.5 -0 
C 2.5 -0.663008 2.236584 -1.29895 1.767767 -1.767767 
C 1.29895 -2.236584 0.663008 -2.5 0 -2.5 
C -0.663008 -2.5 -1.29895 -2.236584 -1.767767 -1.767767 
C -2.236584 -1.29895 -2.5 -0.663008 -2.5 0 
C -2.5 0.663008 -2.236584 1.29895 -1.767767 1.767767 
C -1.29895 2.236584 -0.663008 2.5 0 2.5 
z
"/>
    </defs>
    <g clip-path="url(#p6a64a9486a)">
     <use xlink:href="#C6_0_764a1b6950" x="470.319962" y="33.479468" style="fill: #4c72b0; fill-opacity: 0.75"/>
    </g>
    <g clip-path="url(#p6a64a9486a)">
     <use xlink:href="#C6_0_764a1b6950" x="472.513234" y="47.387323" style="fill: #4c72b0; fill-opacity: 0.75"/>
    </g>
    <g clip-path="url(#p6a64a9486a)">
     <use xlink:href="#C6_0_764a1b6950" x="474.789526" y="32.937187" style="fill: #4c72b0; fill-opacity: 0.75"/>
    </g>
    <g clip-path="url(#p6a64a9486a)">
     <use xlink:href="#C6_0_764a1b6950" x="463.005314" y="78.071787" style="fill: #4c72b0; fill-opacity: 0.75"/>
    </g>
    <g clip-path="url(#p6a64a9486a)">
     <use xlink:href="#C6_0_764a1b6950" x="470.358337" y="111.431971" style="fill: #dd8452; fill-opacity: 0.75"/>
    </g>
    <g clip-path="url(#p6a64a9486a)">
     <use xlink:href="#C6_0_764a1b6950" x="467.317327" y="71.227624" style="fill: #dd8452; fill-opacity: 0.75"/>
    </g>
    <g clip-path="url(#p6a64a9486a)">
     <use xlink:href="#C6_0_764a1b6950" x="463.470956" y="107.004221" style="fill: #dd8452; fill-opacity: 0.75"/>
    </g>
    <g clip-path="url(#p6a64a9486a)">
     <use xlink:href="#C6_0_764a1b6950" x="470.929589" y="87.33212" style="fill: #dd8452; fill-opacity: 0.75"/>
    </g>
   </g>
   <g id="text_16">
    <!-- MUC4, $p_{adj}$ &lt; .001 *** -->
    <g style="fill: #262626" transform="translate(52.22 18.32)scale(0.09 -0.09)">
     <defs>
      <path id="ArialMT-55" d="M 3500 4581 
L 4106 4581 
L 4106 1934 
Q 4106 1244 3950 837 
Q 3794 431 3386 176 
Q 2978 -78 2316 -78 
Q 1672 -78 1262 144 
Q 853 366 678 786 
Q 503 1206 503 1934 
L 503 4581 
L 1109 4581 
L 1109 1938 
Q 1109 1341 1220 1058 
Q 1331 775 1601 622 
Q 1872 469 2263 469 
Q 2931 469 3215 772 
Q 3500 1075 3500 1938 
L 3500 4581 
z
" transform="scale(0.015625)"/>
      <path id="ArialMT-43" d="M 3763 1606 
L 4369 1453 
Q 4178 706 3683 314 
Q 3188 -78 2472 -78 
Q 1731 -78 1267 223 
Q 803 525 561 1097 
Q 319 1669 319 2325 
Q 319 3041 592 3573 
Q 866 4106 1370 4382 
Q 1875 4659 2481 4659 
Q 3169 4659 3637 4309 
Q 4106 3959 4291 3325 
L 3694 3184 
Q 3534 3684 3231 3912 
Q 2928 4141 2469 4141 
Q 1941 4141 1586 3887 
Q 1231 3634 1087 3207 
Q 944 2781 944 2328 
Q 944 1744 1114 1308 
Q 1284 872 1643 656 
Q 2003 441 2422 441 
Q 2931 441 3284 734 
Q 3638 1028 3763 1606 
z
" transform="scale(0.015625)"/>
      <path id="ArialMT-2c" d="M 569 0 
L 569 641 
L 1209 641 
L 1209 0 
Q 1209 -353 1084 -570 
Q 959 -788 688 -906 
L 531 -666 
Q 709 -588 793 -436 
Q 878 -284 888 0 
L 569 0 
z
" transform="scale(0.015625)"/>
      <path id="DejaVuSans-Oblique-70" d="M 3175 2156 
Q 3175 2616 2975 2859 
Q 2775 3103 2400 3103 
Q 2144 3103 1911 2972 
Q 1678 2841 1497 2591 
Q 1319 2344 1212 1994 
Q 1106 1644 1106 1300 
Q 1106 863 1306 627 
Q 1506 391 1875 391 
Q 2147 391 2380 519 
Q 2613 647 2778 891 
Q 2956 1147 3065 1494 
Q 3175 1841 3175 2156 
z
M 1394 2969 
Q 1625 3272 1939 3428 
Q 2253 3584 2638 3584 
Q 3175 3584 3472 3232 
Q 3769 2881 3769 2247 
Q 3769 1728 3584 1258 
Q 3400 788 3053 416 
Q 2822 169 2531 39 
Q 2241 -91 1919 -91 
Q 1547 -91 1294 64 
Q 1041 219 916 525 
L 556 -1331 
L -19 -1331 
L 922 3500 
L 1497 3500 
L 1394 2969 
z
" transform="scale(0.015625)"/>
      <path id="DejaVuSans-Oblique-61" d="M 3438 1997 
L 3047 0 
L 2472 0 
L 2578 531 
Q 2325 219 2001 64 
Q 1678 -91 1281 -91 
Q 834 -91 548 182 
Q 263 456 263 884 
Q 263 1497 752 1853 
Q 1241 2209 2100 2209 
L 2900 2209 
L 2931 2363 
Q 2938 2388 2941 2417 
Q 2944 2447 2944 2509 
Q 2944 2788 2717 2942 
Q 2491 3097 2081 3097 
Q 1800 3097 1504 3025 
Q 1209 2953 897 2809 
L 997 3341 
Q 1322 3463 1633 3523 
Q 1944 3584 2234 3584 
Q 2853 3584 3176 3315 
Q 3500 3047 3500 2534 
Q 3500 2431 3484 2292 
Q 3469 2153 3438 1997 
z
M 2816 1759 
L 2241 1759 
Q 1534 1759 1195 1570 
Q 856 1381 856 984 
Q 856 709 1029 553 
Q 1203 397 1509 397 
Q 1978 397 2328 733 
Q 2678 1069 2791 1631 
L 2816 1759 
z
" transform="scale(0.015625)"/>
      <path id="DejaVuSans-Oblique-64" d="M 2675 525 
Q 2444 222 2128 65 
Q 1813 -91 1428 -91 
Q 903 -91 598 267 
Q 294 625 294 1247 
Q 294 1766 478 2236 
Q 663 2706 1013 3078 
Q 1244 3325 1534 3454 
Q 1825 3584 2144 3584 
Q 2481 3584 2739 3421 
Q 2997 3259 3138 2956 
L 3513 4863 
L 4091 4863 
L 3144 0 
L 2566 0 
L 2675 525 
z
M 891 1350 
Q 891 897 1095 644 
Q 1300 391 1663 391 
Q 1931 391 2161 520 
Q 2391 650 2566 903 
Q 2750 1166 2856 1509 
Q 2963 1853 2963 2188 
Q 2963 2622 2758 2865 
Q 2553 3109 2194 3109 
Q 1922 3109 1687 2981 
Q 1453 2853 1288 2613 
Q 1106 2353 998 2009 
Q 891 1666 891 1350 
z
" transform="scale(0.015625)"/>
      <path id="DejaVuSans-Oblique-6a" d="M 928 3500 
L 1503 3500 
L 813 -63 
L 809 -78 
Q 694 -675 544 -897 
Q 403 -1106 132 -1218 
Q -138 -1331 -506 -1331 
L -722 -1331 
L -628 -844 
L -481 -844 
Q -144 -844 -1 -703 
Q 141 -563 238 -63 
L 928 3500 
z
M 1197 4863 
L 1772 4863 
L 1631 4134 
L 1056 4134 
L 1197 4863 
z
" transform="scale(0.015625)"/>
      <path id="ArialMT-3c" d="M 350 2003 
L 350 2528 
L 3384 3809 
L 3384 3250 
L 978 2263 
L 3384 1266 
L 3384 706 
L 350 2003 
z
" transform="scale(0.015625)"/>
      <path id="ArialMT-2e" d="M 581 0 
L 581 641 
L 1222 641 
L 1222 0 
L 581 0 
z
" transform="scale(0.015625)"/>
      <path id="ArialMT-2a" d="M 200 3741 
L 344 4184 
Q 841 4009 1066 3881 
Q 1006 4447 1003 4659 
L 1456 4659 
Q 1447 4350 1384 3884 
Q 1706 4047 2122 4184 
L 2266 3741 
Q 1869 3609 1488 3566 
Q 1678 3400 2025 2975 
L 1650 2709 
Q 1469 2956 1222 3381 
Q 991 2941 816 2709 
L 447 2975 
Q 809 3422 966 3566 
Q 563 3644 200 3741 
z
" transform="scale(0.015625)"/>
     </defs>
     <use xlink:href="#ArialMT-4d" transform="translate(0 0.203125)"/>
     <use xlink:href="#ArialMT-55" transform="translate(83.300781 0.203125)"/>
     <use xlink:href="#ArialMT-43" transform="translate(155.517578 0.203125)"/>
     <use xlink:href="#ArialMT-34" transform="translate(227.734375 0.203125)"/>
     <use xlink:href="#ArialMT-2c" transform="translate(283.349609 0.203125)"/>
     <use xlink:href="#ArialMT-20" transform="translate(311.132812 0.203125)"/>
     <use xlink:href="#DejaVuSans-Oblique-70" transform="translate(338.916016 0.203125)"/>
     <use xlink:href="#DejaVuSans-Oblique-61" transform="translate(402.392578 -16.203125)scale(0.7)"/>
     <use xlink:href="#DejaVuSans-Oblique-64" transform="translate(445.288086 -16.203125)scale(0.7)"/>
     <use xlink:href="#DejaVuSans-Oblique-6a" transform="translate(489.72168 -16.203125)scale(0.7)"/>
     <use xlink:href="#ArialMT-20" transform="translate(511.904297 0.203125)"/>
     <use xlink:href="#ArialMT-3c" transform="translate(539.6875 0.203125)"/>
     <use xlink:href="#ArialMT-20" transform="translate(598.085938 0.203125)"/>
     <use xlink:href="#ArialMT-2e" transform="translate(625.869141 0.203125)"/>
     <use xlink:href="#ArialMT-30" transform="translate(653.652344 0.203125)"/>
     <use xlink:href="#ArialMT-30" transform="translate(709.267578 0.203125)"/>
     <use xlink:href="#ArialMT-31" transform="translate(764.882812 0.203125)"/>
     <use xlink:href="#ArialMT-20" transform="translate(820.498047 0.203125)"/>
     <use xlink:href="#ArialMT-2a" transform="translate(848.28125 0.203125)"/>
     <use xlink:href="#ArialMT-2a" transform="translate(887.197266 0.203125)"/>
     <use xlink:href="#ArialMT-2a" transform="translate(926.113281 0.203125)"/>
    </g>
   </g>
   <g id="legend_1">
    <g id="patch_5">
     <path d="M 58.52 209.39811 
L 110.82125 209.39811 
Q 112.62125 209.39811 112.62125 207.59811 
L 112.62125 170.305766 
Q 112.62125 168.505766 110.82125 168.505766 
L 58.52 168.505766 
Q 56.72 168.505766 56.72 170.305766 
L 56.72 207.59811 
Q 56.72 209.39811 58.52 209.39811 
z
" style="fill: #ffffff; opacity: 0.8; stroke: #cccccc; stroke-linejoin: miter"/>
    </g>
    <g id="text_17">
     <!-- Treatment -->
     <g style="fill: #262626" transform="translate(64.334141 178.547798)scale(0.09 -0.09)">
      <use xlink:href="#ArialMT-54"/>
      <use xlink:href="#ArialMT-72" x="57.333984"/>
      <use xlink:href="#ArialMT-65" x="90.634766"/>
      <use xlink:href="#ArialMT-61" x="146.25"/>
      <use xlink:href="#ArialMT-74" x="201.865234"/>
      <use xlink:href="#ArialMT-6d" x="229.648438"/>
      <use xlink:href="#ArialMT-65" x="312.949219"/>
      <use xlink:href="#ArialMT-6e" x="368.564453"/>
      <use xlink:href="#ArialMT-74" x="424.179688"/>
     </g>
    </g>
    <g id="PathCollection_10">
     <defs>
      <path id="ma16ec11a3a" d="M 0 3.872983 
C 1.027127 3.872983 2.012324 3.464901 2.738613 2.738613 
C 3.464901 2.012324 3.872983 1.027127 3.872983 0 
C 3.872983 -1.027127 3.464901 -2.012324 2.738613 -2.738613 
C 2.012324 -3.464901 1.027127 -3.872983 0 -3.872983 
C -1.027127 -3.872983 -2.012324 -3.464901 -2.738613 -2.738613 
C -3.464901 -2.012324 -3.872983 -1.027127 -3.872983 0 
C -3.872983 1.027127 -3.464901 2.012324 -2.738613 2.738613 
C -2.012324 3.464901 -1.027127 3.872983 0 3.872983 
z
" style="stroke: #4c72b0"/>
     </defs>
     <g>
      <use xlink:href="#ma16ec11a3a" x="69.32" y="188.916079" style="fill: #4c72b0; stroke: #4c72b0"/>
     </g>
    </g>
    <g id="text_18">
     <!-- BEVA -->
     <g style="fill: #262626" transform="translate(85.52 191.278579)scale(0.09 -0.09)">
      <defs>
       <path id="ArialMT-42" d="M 469 0 
L 469 4581 
L 2188 4581 
Q 2713 4581 3030 4442 
Q 3347 4303 3526 4014 
Q 3706 3725 3706 3409 
Q 3706 3116 3547 2856 
Q 3388 2597 3066 2438 
Q 3481 2316 3704 2022 
Q 3928 1728 3928 1328 
Q 3928 1006 3792 729 
Q 3656 453 3456 303 
Q 3256 153 2954 76 
Q 2653 0 2216 0 
L 469 0 
z
M 1075 2656 
L 2066 2656 
Q 2469 2656 2644 2709 
Q 2875 2778 2992 2937 
Q 3109 3097 3109 3338 
Q 3109 3566 3000 3739 
Q 2891 3913 2687 3977 
Q 2484 4041 1991 4041 
L 1075 4041 
L 1075 2656 
z
M 1075 541 
L 2216 541 
Q 2509 541 2628 563 
Q 2838 600 2978 687 
Q 3119 775 3209 942 
Q 3300 1109 3300 1328 
Q 3300 1584 3169 1773 
Q 3038 1963 2805 2039 
Q 2572 2116 2134 2116 
L 1075 2116 
L 1075 541 
z
" transform="scale(0.015625)"/>
       <path id="ArialMT-45" d="M 506 0 
L 506 4581 
L 3819 4581 
L 3819 4041 
L 1113 4041 
L 1113 2638 
L 3647 2638 
L 3647 2100 
L 1113 2100 
L 1113 541 
L 3925 541 
L 3925 0 
L 506 0 
z
" transform="scale(0.015625)"/>
       <path id="ArialMT-56" d="M 1803 0 
L 28 4581 
L 684 4581 
L 1875 1253 
Q 2019 853 2116 503 
Q 2222 878 2363 1253 
L 3600 4581 
L 4219 4581 
L 2425 0 
L 1803 0 
z
" transform="scale(0.015625)"/>
       <path id="ArialMT-41" d="M -9 0 
L 1750 4581 
L 2403 4581 
L 4278 0 
L 3588 0 
L 3053 1388 
L 1138 1388 
L 634 0 
L -9 0 
z
M 1313 1881 
L 2866 1881 
L 2388 3150 
Q 2169 3728 2063 4100 
Q 1975 3659 1816 3225 
L 1313 1881 
z
" transform="scale(0.015625)"/>
      </defs>
      <use xlink:href="#ArialMT-42"/>
      <use xlink:href="#ArialMT-45" x="66.699219"/>
      <use xlink:href="#ArialMT-56" x="133.398438"/>
      <use xlink:href="#ArialMT-41" x="192.722656"/>
     </g>
    </g>
    <g id="PathCollection_11">
     <defs>
      <path id="m23134387fb" d="M 0 3.872983 
C 1.027127 3.872983 2.012324 3.464901 2.738613 2.738613 
C 3.464901 2.012324 3.872983 1.027127 3.872983 0 
C 3.872983 -1.027127 3.464901 -2.012324 2.738613 -2.738613 
C 2.012324 -3.464901 1.027127 -3.872983 0 -3.872983 
C -1.027127 -3.872983 -2.012324 -3.464901 -2.738613 -2.738613 
C -3.464901 -2.012324 -3.872983 -1.027127 -3.872983 0 
C -3.872983 1.027127 -3.464901 2.012324 -2.738613 2.738613 
C -2.012324 3.464901 -1.027127 3.872983 0 3.872983 
z
" style="stroke: #dd8452"/>
     </defs>
     <g>
      <use xlink:href="#m23134387fb" x="69.32" y="201.64686" style="fill: #dd8452; stroke: #dd8452"/>
     </g>
    </g>
    <g id="text_19">
     <!-- CTRL -->
     <g style="fill: #262626" transform="translate(85.52 204.00936)scale(0.09 -0.09)">
      <defs>
       <path id="ArialMT-52" d="M 503 0 
L 503 4581 
L 2534 4581 
Q 3147 4581 3465 4457 
Q 3784 4334 3975 4021 
Q 4166 3709 4166 3331 
Q 4166 2844 3850 2509 
Q 3534 2175 2875 2084 
Q 3116 1969 3241 1856 
Q 3506 1613 3744 1247 
L 4541 0 
L 3778 0 
L 3172 953 
Q 2906 1366 2734 1584 
Q 2563 1803 2427 1890 
Q 2291 1978 2150 2013 
Q 2047 2034 1813 2034 
L 1109 2034 
L 1109 0 
L 503 0 
z
M 1109 2559 
L 2413 2559 
Q 2828 2559 3062 2645 
Q 3297 2731 3419 2920 
Q 3541 3109 3541 3331 
Q 3541 3656 3305 3865 
Q 3069 4075 2559 4075 
L 1109 4075 
L 1109 2559 
z
" transform="scale(0.015625)"/>
       <path id="ArialMT-4c" d="M 469 0 
L 469 4581 
L 1075 4581 
L 1075 541 
L 3331 541 
L 3331 0 
L 469 0 
z
" transform="scale(0.015625)"/>
      </defs>
      <use xlink:href="#ArialMT-43"/>
      <use xlink:href="#ArialMT-54" x="72.216797"/>
      <use xlink:href="#ArialMT-52" x="133.300781"/>
      <use xlink:href="#ArialMT-4c" x="205.517578"/>
     </g>
    </g>
   </g>
  </g>
 </g>
 <defs>
  <clipPath id="p6a64a9486a">
   <rect x="52.22" y="24.32" width="448.29622" height="189.57811"/>
  </clipPath>
 </defs>
</svg>
