<?xml version="1.0" encoding="utf-8" standalone="no"?>
<!DOCTYPE svg PUBLIC "-//W3C//DTD SVG 1.1//EN"
  "http://www.w3.org/Graphics/SVG/1.1/DTD/svg11.dtd">
<svg xmlns:xlink="http://www.w3.org/1999/xlink" width="510.23622pt" height="255.11811pt" viewBox="0 0 510.23622 255.11811" xmlns="http://www.w3.org/2000/svg" version="1.1">
 <metadata>
  <rdf:RDF xmlns:dc="http://purl.org/dc/elements/1.1/" xmlns:cc="http://creativecommons.org/ns#" xmlns:rdf="http://www.w3.org/1999/02/22-rdf-syntax-ns#">
   <cc:Work>
    <dc:type rdf:resource="http://purl.org/dc/dcmitype/StillImage"/>
    <dc:date>2022-04-27T00:14:05.213599</dc:date>
    <dc:format>image/svg+xml</dc:format>
    <dc:creator>
     <cc:Agent>
      <dc:title>Matplotlib v3.5.1, https://matplotlib.org/</dc:title>
     </cc:Agent>
    </dc:creator>
   </cc:Work>
  </rdf:RDF>
 </metadata>
 <defs>
  <style type="text/css">*{stroke-linejoin: round; stroke-linecap: butt}</style>
 </defs>
 <g id="figure_1">
  <g id="patch_1">
   <path d="M 0 255.11811 
L 510.23622 255.11811 
L 510.23622 0 
L 0 0 
z
" style="fill: #ffffff"/>
  </g>
  <g id="axes_1">
   <g id="patch_2">
    <path d="M 47.22 213.89811 
L 500.51622 213.89811 
L 500.51622 24.32 
L 47.22 24.32 
z
" style="fill: #ffffff"/>
   </g>
   <g id="matplotlib.axis_1">
    <g id="xtick_1">
     <g id="text_1">
      <!-- 49 -->
      <g style="fill: #444444" transform="translate(74.593458 229.840141)scale(0.09 -0.09)">
       <defs>
        <path id="ArialMT-34" d="M 2069 0 
L 2069 1097 
L 81 1097 
L 81 1613 
L 2172 4581 
L 2631 4581 
L 2631 1613 
L 3250 1613 
L 3250 1097 
L 2631 1097 
L 2631 0 
L 2069 0 
z
M 2069 1613 
L 2069 3678 
L 634 1613 
L 2069 1613 
z
" transform="scale(0.015625)"/>
        <path id="ArialMT-39" d="M 350 1059 
L 891 1109 
Q 959 728 1153 556 
Q 1347 384 1650 384 
Q 1909 384 2104 503 
Q 2300 622 2425 820 
Q 2550 1019 2634 1356 
Q 2719 1694 2719 2044 
Q 2719 2081 2716 2156 
Q 2547 1888 2255 1720 
Q 1963 1553 1622 1553 
Q 1053 1553 659 1965 
Q 266 2378 266 3053 
Q 266 3750 677 4175 
Q 1088 4600 1706 4600 
Q 2153 4600 2523 4359 
Q 2894 4119 3086 3673 
Q 3278 3228 3278 2384 
Q 3278 1506 3087 986 
Q 2897 466 2520 194 
Q 2144 -78 1638 -78 
Q 1100 -78 759 220 
Q 419 519 350 1059 
z
M 2653 3081 
Q 2653 3566 2395 3850 
Q 2138 4134 1775 4134 
Q 1400 4134 1122 3828 
Q 844 3522 844 3034 
Q 844 2597 1108 2323 
Q 1372 2050 1759 2050 
Q 2150 2050 2401 2323 
Q 2653 2597 2653 3081 
z
" transform="scale(0.015625)"/>
       </defs>
       <use xlink:href="#ArialMT-34"/>
       <use xlink:href="#ArialMT-39" x="55.615234"/>
      </g>
     </g>
    </g>
    <g id="xtick_2">
     <g id="text_2">
      <!-- 17 -->
      <g style="fill: #444444" transform="translate(139.350061 229.840141)scale(0.09 -0.09)">
       <defs>
        <path id="ArialMT-31" d="M 2384 0 
L 1822 0 
L 1822 3584 
Q 1619 3391 1289 3197 
Q 959 3003 697 2906 
L 697 3450 
Q 1169 3672 1522 3987 
Q 1875 4303 2022 4600 
L 2384 4600 
L 2384 0 
z
" transform="scale(0.015625)"/>
        <path id="ArialMT-37" d="M 303 3981 
L 303 4522 
L 3269 4522 
L 3269 4084 
Q 2831 3619 2401 2847 
Q 1972 2075 1738 1259 
Q 1569 684 1522 0 
L 944 0 
Q 953 541 1156 1306 
Q 1359 2072 1739 2783 
Q 2119 3494 2547 3981 
L 303 3981 
z
" transform="scale(0.015625)"/>
       </defs>
       <use xlink:href="#ArialMT-31"/>
       <use xlink:href="#ArialMT-37" x="55.615234"/>
      </g>
     </g>
    </g>
    <g id="xtick_3">
     <g id="text_3">
      <!-- 69 -->
      <g style="fill: #444444" transform="translate(204.106664 229.840141)scale(0.09 -0.09)">
       <defs>
        <path id="ArialMT-36" d="M 3184 3459 
L 2625 3416 
Q 2550 3747 2413 3897 
Q 2184 4138 1850 4138 
Q 1581 4138 1378 3988 
Q 1113 3794 959 3422 
Q 806 3050 800 2363 
Q 1003 2672 1297 2822 
Q 1591 2972 1913 2972 
Q 2475 2972 2870 2558 
Q 3266 2144 3266 1488 
Q 3266 1056 3080 686 
Q 2894 316 2569 119 
Q 2244 -78 1831 -78 
Q 1128 -78 684 439 
Q 241 956 241 2144 
Q 241 3472 731 4075 
Q 1159 4600 1884 4600 
Q 2425 4600 2770 4297 
Q 3116 3994 3184 3459 
z
M 888 1484 
Q 888 1194 1011 928 
Q 1134 663 1356 523 
Q 1578 384 1822 384 
Q 2178 384 2434 671 
Q 2691 959 2691 1453 
Q 2691 1928 2437 2201 
Q 2184 2475 1800 2475 
Q 1419 2475 1153 2201 
Q 888 1928 888 1484 
z
" transform="scale(0.015625)"/>
       </defs>
       <use xlink:href="#ArialMT-36"/>
       <use xlink:href="#ArialMT-39" x="55.615234"/>
      </g>
     </g>
    </g>
    <g id="xtick_4">
     <g id="text_4">
      <!-- 15 -->
      <g style="fill: #444444" transform="translate(268.863266 229.840141)scale(0.09 -0.09)">
       <defs>
        <path id="ArialMT-35" d="M 266 1200 
L 856 1250 
Q 922 819 1161 601 
Q 1400 384 1738 384 
Q 2144 384 2425 690 
Q 2706 997 2706 1503 
Q 2706 1984 2436 2262 
Q 2166 2541 1728 2541 
Q 1456 2541 1237 2417 
Q 1019 2294 894 2097 
L 366 2166 
L 809 4519 
L 3088 4519 
L 3088 3981 
L 1259 3981 
L 1013 2750 
Q 1425 3038 1878 3038 
Q 2478 3038 2890 2622 
Q 3303 2206 3303 1553 
Q 3303 931 2941 478 
Q 2500 -78 1738 -78 
Q 1113 -78 717 272 
Q 322 622 266 1200 
z
" transform="scale(0.015625)"/>
       </defs>
       <use xlink:href="#ArialMT-31"/>
       <use xlink:href="#ArialMT-35" x="55.615234"/>
      </g>
     </g>
    </g>
    <g id="xtick_5">
     <g id="text_5">
      <!-- 5 -->
      <g style="fill: #444444" transform="translate(336.122291 229.840141)scale(0.09 -0.09)">
       <use xlink:href="#ArialMT-35"/>
      </g>
     </g>
    </g>
    <g id="xtick_6">
     <g id="text_6">
      <!-- 126 -->
      <g style="fill: #444444" transform="translate(395.87405 229.840141)scale(0.09 -0.09)">
       <defs>
        <path id="ArialMT-32" d="M 3222 541 
L 3222 0 
L 194 0 
Q 188 203 259 391 
Q 375 700 629 1000 
Q 884 1300 1366 1694 
Q 2113 2306 2375 2664 
Q 2638 3022 2638 3341 
Q 2638 3675 2398 3904 
Q 2159 4134 1775 4134 
Q 1369 4134 1125 3890 
Q 881 3647 878 3216 
L 300 3275 
Q 359 3922 746 4261 
Q 1134 4600 1788 4600 
Q 2447 4600 2831 4234 
Q 3216 3869 3216 3328 
Q 3216 3053 3103 2787 
Q 2991 2522 2730 2228 
Q 2469 1934 1863 1422 
Q 1356 997 1212 845 
Q 1069 694 975 541 
L 3222 541 
z
" transform="scale(0.015625)"/>
       </defs>
       <use xlink:href="#ArialMT-31"/>
       <use xlink:href="#ArialMT-32" x="55.615234"/>
       <use xlink:href="#ArialMT-36" x="111.230469"/>
      </g>
     </g>
    </g>
    <g id="xtick_7">
     <g id="text_7">
      <!-- 62 -->
      <g style="fill: #444444" transform="translate(463.133075 229.840141)scale(0.09 -0.09)">
       <use xlink:href="#ArialMT-36"/>
       <use xlink:href="#ArialMT-32" x="55.615234"/>
      </g>
     </g>
    </g>
    <g id="text_8">
     <!-- Patient -->
     <g style="fill: #444444" transform="translate(259.859048 242.070923)scale(0.09 -0.09)">
      <defs>
       <path id="ArialMT-50" d="M 494 0 
L 494 4581 
L 2222 4581 
Q 2678 4581 2919 4538 
Q 3256 4481 3484 4323 
Q 3713 4166 3852 3881 
Q 3991 3597 3991 3256 
Q 3991 2672 3619 2267 
Q 3247 1863 2275 1863 
L 1100 1863 
L 1100 0 
L 494 0 
z
M 1100 2403 
L 2284 2403 
Q 2872 2403 3119 2622 
Q 3366 2841 3366 3238 
Q 3366 3525 3220 3729 
Q 3075 3934 2838 4000 
Q 2684 4041 2272 4041 
L 1100 4041 
L 1100 2403 
z
" transform="scale(0.015625)"/>
       <path id="ArialMT-61" d="M 2588 409 
Q 2275 144 1986 34 
Q 1697 -75 1366 -75 
Q 819 -75 525 192 
Q 231 459 231 875 
Q 231 1119 342 1320 
Q 453 1522 633 1644 
Q 813 1766 1038 1828 
Q 1203 1872 1538 1913 
Q 2219 1994 2541 2106 
Q 2544 2222 2544 2253 
Q 2544 2597 2384 2738 
Q 2169 2928 1744 2928 
Q 1347 2928 1158 2789 
Q 969 2650 878 2297 
L 328 2372 
Q 403 2725 575 2942 
Q 747 3159 1072 3276 
Q 1397 3394 1825 3394 
Q 2250 3394 2515 3294 
Q 2781 3194 2906 3042 
Q 3031 2891 3081 2659 
Q 3109 2516 3109 2141 
L 3109 1391 
Q 3109 606 3145 398 
Q 3181 191 3288 0 
L 2700 0 
Q 2613 175 2588 409 
z
M 2541 1666 
Q 2234 1541 1622 1453 
Q 1275 1403 1131 1340 
Q 988 1278 909 1158 
Q 831 1038 831 891 
Q 831 666 1001 516 
Q 1172 366 1500 366 
Q 1825 366 2078 508 
Q 2331 650 2450 897 
Q 2541 1088 2541 1459 
L 2541 1666 
z
" transform="scale(0.015625)"/>
       <path id="ArialMT-74" d="M 1650 503 
L 1731 6 
Q 1494 -44 1306 -44 
Q 1000 -44 831 53 
Q 663 150 594 308 
Q 525 466 525 972 
L 525 2881 
L 113 2881 
L 113 3319 
L 525 3319 
L 525 4141 
L 1084 4478 
L 1084 3319 
L 1650 3319 
L 1650 2881 
L 1084 2881 
L 1084 941 
Q 1084 700 1114 631 
Q 1144 563 1211 522 
Q 1278 481 1403 481 
Q 1497 481 1650 503 
z
" transform="scale(0.015625)"/>
       <path id="ArialMT-69" d="M 425 3934 
L 425 4581 
L 988 4581 
L 988 3934 
L 425 3934 
z
M 425 0 
L 425 3319 
L 988 3319 
L 988 0 
L 425 0 
z
" transform="scale(0.015625)"/>
       <path id="ArialMT-65" d="M 2694 1069 
L 3275 997 
Q 3138 488 2766 206 
Q 2394 -75 1816 -75 
Q 1088 -75 661 373 
Q 234 822 234 1631 
Q 234 2469 665 2931 
Q 1097 3394 1784 3394 
Q 2450 3394 2872 2941 
Q 3294 2488 3294 1666 
Q 3294 1616 3291 1516 
L 816 1516 
Q 847 969 1125 678 
Q 1403 388 1819 388 
Q 2128 388 2347 550 
Q 2566 713 2694 1069 
z
M 847 1978 
L 2700 1978 
Q 2663 2397 2488 2606 
Q 2219 2931 1791 2931 
Q 1403 2931 1139 2672 
Q 875 2413 847 1978 
z
" transform="scale(0.015625)"/>
       <path id="ArialMT-6e" d="M 422 0 
L 422 3319 
L 928 3319 
L 928 2847 
Q 1294 3394 1984 3394 
Q 2284 3394 2536 3286 
Q 2788 3178 2913 3003 
Q 3038 2828 3088 2588 
Q 3119 2431 3119 2041 
L 3119 0 
L 2556 0 
L 2556 2019 
Q 2556 2363 2490 2533 
Q 2425 2703 2258 2804 
Q 2091 2906 1866 2906 
Q 1506 2906 1245 2678 
Q 984 2450 984 1813 
L 984 0 
L 422 0 
z
" transform="scale(0.015625)"/>
      </defs>
      <use xlink:href="#ArialMT-50"/>
      <use xlink:href="#ArialMT-61" x="66.699219"/>
      <use xlink:href="#ArialMT-74" x="122.314453"/>
      <use xlink:href="#ArialMT-69" x="150.097656"/>
      <use xlink:href="#ArialMT-65" x="172.314453"/>
      <use xlink:href="#ArialMT-6e" x="227.929688"/>
      <use xlink:href="#ArialMT-74" x="283.544922"/>
     </g>
    </g>
   </g>
   <g id="matplotlib.axis_2">
    <g id="ytick_1">
     <g id="text_9">
      <!-- 200 -->
      <g style="fill: #444444" transform="translate(22.705469 194.455274)scale(0.09 -0.09)">
       <defs>
        <path id="ArialMT-30" d="M 266 2259 
Q 266 3072 433 3567 
Q 600 4063 929 4331 
Q 1259 4600 1759 4600 
Q 2128 4600 2406 4451 
Q 2684 4303 2865 4023 
Q 3047 3744 3150 3342 
Q 3253 2941 3253 2259 
Q 3253 1453 3087 958 
Q 2922 463 2592 192 
Q 2263 -78 1759 -78 
Q 1097 -78 719 397 
Q 266 969 266 2259 
z
M 844 2259 
Q 844 1131 1108 757 
Q 1372 384 1759 384 
Q 2147 384 2411 759 
Q 2675 1134 2675 2259 
Q 2675 3391 2411 3762 
Q 2147 4134 1753 4134 
Q 1366 4134 1134 3806 
Q 844 3388 844 2259 
z
" transform="scale(0.015625)"/>
       </defs>
       <use xlink:href="#ArialMT-32"/>
       <use xlink:href="#ArialMT-30" x="55.615234"/>
       <use xlink:href="#ArialMT-30" x="111.230469"/>
      </g>
     </g>
    </g>
    <g id="ytick_2">
     <g id="text_10">
      <!-- 300 -->
      <g style="fill: #444444" transform="translate(22.705469 164.072042)scale(0.09 -0.09)">
       <defs>
        <path id="ArialMT-33" d="M 269 1209 
L 831 1284 
Q 928 806 1161 595 
Q 1394 384 1728 384 
Q 2125 384 2398 659 
Q 2672 934 2672 1341 
Q 2672 1728 2419 1979 
Q 2166 2231 1775 2231 
Q 1616 2231 1378 2169 
L 1441 2663 
Q 1497 2656 1531 2656 
Q 1891 2656 2178 2843 
Q 2466 3031 2466 3422 
Q 2466 3731 2256 3934 
Q 2047 4138 1716 4138 
Q 1388 4138 1169 3931 
Q 950 3725 888 3313 
L 325 3413 
Q 428 3978 793 4289 
Q 1159 4600 1703 4600 
Q 2078 4600 2393 4439 
Q 2709 4278 2876 4000 
Q 3044 3722 3044 3409 
Q 3044 3113 2884 2869 
Q 2725 2625 2413 2481 
Q 2819 2388 3044 2092 
Q 3269 1797 3269 1353 
Q 3269 753 2831 336 
Q 2394 -81 1725 -81 
Q 1122 -81 723 278 
Q 325 638 269 1209 
z
" transform="scale(0.015625)"/>
       </defs>
       <use xlink:href="#ArialMT-33"/>
       <use xlink:href="#ArialMT-30" x="55.615234"/>
       <use xlink:href="#ArialMT-30" x="111.230469"/>
      </g>
     </g>
    </g>
    <g id="ytick_3">
     <g id="text_11">
      <!-- 400 -->
      <g style="fill: #444444" transform="translate(22.705469 133.688811)scale(0.09 -0.09)">
       <use xlink:href="#ArialMT-34"/>
       <use xlink:href="#ArialMT-30" x="55.615234"/>
       <use xlink:href="#ArialMT-30" x="111.230469"/>
      </g>
     </g>
    </g>
    <g id="ytick_4">
     <g id="text_12">
      <!-- 500 -->
      <g style="fill: #444444" transform="translate(22.705469 103.30558)scale(0.09 -0.09)">
       <use xlink:href="#ArialMT-35"/>
       <use xlink:href="#ArialMT-30" x="55.615234"/>
       <use xlink:href="#ArialMT-30" x="111.230469"/>
      </g>
     </g>
    </g>
    <g id="ytick_5">
     <g id="text_13">
      <!-- 600 -->
      <g style="fill: #444444" transform="translate(22.705469 72.922348)scale(0.09 -0.09)">
       <use xlink:href="#ArialMT-36"/>
       <use xlink:href="#ArialMT-30" x="55.615234"/>
       <use xlink:href="#ArialMT-30" x="111.230469"/>
      </g>
     </g>
    </g>
    <g id="ytick_6">
     <g id="text_14">
      <!-- 700 -->
      <g style="fill: #444444" transform="translate(22.705469 42.539117)scale(0.09 -0.09)">
       <use xlink:href="#ArialMT-37"/>
       <use xlink:href="#ArialMT-30" x="55.615234"/>
       <use xlink:href="#ArialMT-30" x="111.230469"/>
      </g>
     </g>
    </g>
    <g id="text_15">
     <!-- Trimmed Means of M values (TMM) -->
     <g style="fill: #444444" transform="translate(16.81125 190.194993)rotate(-90)scale(0.09 -0.09)">
      <defs>
       <path id="ArialMT-54" d="M 1659 0 
L 1659 4041 
L 150 4041 
L 150 4581 
L 3781 4581 
L 3781 4041 
L 2266 4041 
L 2266 0 
L 1659 0 
z
" transform="scale(0.015625)"/>
       <path id="ArialMT-72" d="M 416 0 
L 416 3319 
L 922 3319 
L 922 2816 
Q 1116 3169 1280 3281 
Q 1444 3394 1641 3394 
Q 1925 3394 2219 3213 
L 2025 2691 
Q 1819 2813 1613 2813 
Q 1428 2813 1281 2702 
Q 1134 2591 1072 2394 
Q 978 2094 978 1738 
L 978 0 
L 416 0 
z
" transform="scale(0.015625)"/>
       <path id="ArialMT-6d" d="M 422 0 
L 422 3319 
L 925 3319 
L 925 2853 
Q 1081 3097 1340 3245 
Q 1600 3394 1931 3394 
Q 2300 3394 2536 3241 
Q 2772 3088 2869 2813 
Q 3263 3394 3894 3394 
Q 4388 3394 4653 3120 
Q 4919 2847 4919 2278 
L 4919 0 
L 4359 0 
L 4359 2091 
Q 4359 2428 4304 2576 
Q 4250 2725 4106 2815 
Q 3963 2906 3769 2906 
Q 3419 2906 3187 2673 
Q 2956 2441 2956 1928 
L 2956 0 
L 2394 0 
L 2394 2156 
Q 2394 2531 2256 2718 
Q 2119 2906 1806 2906 
Q 1569 2906 1367 2781 
Q 1166 2656 1075 2415 
Q 984 2175 984 1722 
L 984 0 
L 422 0 
z
" transform="scale(0.015625)"/>
       <path id="ArialMT-64" d="M 2575 0 
L 2575 419 
Q 2259 -75 1647 -75 
Q 1250 -75 917 144 
Q 584 363 401 755 
Q 219 1147 219 1656 
Q 219 2153 384 2558 
Q 550 2963 881 3178 
Q 1213 3394 1622 3394 
Q 1922 3394 2156 3267 
Q 2391 3141 2538 2938 
L 2538 4581 
L 3097 4581 
L 3097 0 
L 2575 0 
z
M 797 1656 
Q 797 1019 1065 703 
Q 1334 388 1700 388 
Q 2069 388 2326 689 
Q 2584 991 2584 1609 
Q 2584 2291 2321 2609 
Q 2059 2928 1675 2928 
Q 1300 2928 1048 2622 
Q 797 2316 797 1656 
z
" transform="scale(0.015625)"/>
       <path id="ArialMT-20" transform="scale(0.015625)"/>
       <path id="ArialMT-4d" d="M 475 0 
L 475 4581 
L 1388 4581 
L 2472 1338 
Q 2622 884 2691 659 
Q 2769 909 2934 1394 
L 4031 4581 
L 4847 4581 
L 4847 0 
L 4263 0 
L 4263 3834 
L 2931 0 
L 2384 0 
L 1059 3900 
L 1059 0 
L 475 0 
z
" transform="scale(0.015625)"/>
       <path id="ArialMT-73" d="M 197 991 
L 753 1078 
Q 800 744 1014 566 
Q 1228 388 1613 388 
Q 2000 388 2187 545 
Q 2375 703 2375 916 
Q 2375 1106 2209 1216 
Q 2094 1291 1634 1406 
Q 1016 1563 777 1677 
Q 538 1791 414 1992 
Q 291 2194 291 2438 
Q 291 2659 392 2848 
Q 494 3038 669 3163 
Q 800 3259 1026 3326 
Q 1253 3394 1513 3394 
Q 1903 3394 2198 3281 
Q 2494 3169 2634 2976 
Q 2775 2784 2828 2463 
L 2278 2388 
Q 2241 2644 2061 2787 
Q 1881 2931 1553 2931 
Q 1166 2931 1000 2803 
Q 834 2675 834 2503 
Q 834 2394 903 2306 
Q 972 2216 1119 2156 
Q 1203 2125 1616 2013 
Q 2213 1853 2448 1751 
Q 2684 1650 2818 1456 
Q 2953 1263 2953 975 
Q 2953 694 2789 445 
Q 2625 197 2315 61 
Q 2006 -75 1616 -75 
Q 969 -75 630 194 
Q 291 463 197 991 
z
" transform="scale(0.015625)"/>
       <path id="ArialMT-6f" d="M 213 1659 
Q 213 2581 725 3025 
Q 1153 3394 1769 3394 
Q 2453 3394 2887 2945 
Q 3322 2497 3322 1706 
Q 3322 1066 3130 698 
Q 2938 331 2570 128 
Q 2203 -75 1769 -75 
Q 1072 -75 642 372 
Q 213 819 213 1659 
z
M 791 1659 
Q 791 1022 1069 705 
Q 1347 388 1769 388 
Q 2188 388 2466 706 
Q 2744 1025 2744 1678 
Q 2744 2294 2464 2611 
Q 2184 2928 1769 2928 
Q 1347 2928 1069 2612 
Q 791 2297 791 1659 
z
" transform="scale(0.015625)"/>
       <path id="ArialMT-66" d="M 556 0 
L 556 2881 
L 59 2881 
L 59 3319 
L 556 3319 
L 556 3672 
Q 556 4006 616 4169 
Q 697 4388 901 4523 
Q 1106 4659 1475 4659 
Q 1713 4659 2000 4603 
L 1916 4113 
Q 1741 4144 1584 4144 
Q 1328 4144 1222 4034 
Q 1116 3925 1116 3625 
L 1116 3319 
L 1763 3319 
L 1763 2881 
L 1116 2881 
L 1116 0 
L 556 0 
z
" transform="scale(0.015625)"/>
       <path id="ArialMT-76" d="M 1344 0 
L 81 3319 
L 675 3319 
L 1388 1331 
Q 1503 1009 1600 663 
Q 1675 925 1809 1294 
L 2547 3319 
L 3125 3319 
L 1869 0 
L 1344 0 
z
" transform="scale(0.015625)"/>
       <path id="ArialMT-6c" d="M 409 0 
L 409 4581 
L 972 4581 
L 972 0 
L 409 0 
z
" transform="scale(0.015625)"/>
       <path id="ArialMT-75" d="M 2597 0 
L 2597 488 
Q 2209 -75 1544 -75 
Q 1250 -75 995 37 
Q 741 150 617 320 
Q 494 491 444 738 
Q 409 903 409 1263 
L 409 3319 
L 972 3319 
L 972 1478 
Q 972 1038 1006 884 
Q 1059 663 1231 536 
Q 1403 409 1656 409 
Q 1909 409 2131 539 
Q 2353 669 2445 892 
Q 2538 1116 2538 1541 
L 2538 3319 
L 3100 3319 
L 3100 0 
L 2597 0 
z
" transform="scale(0.015625)"/>
       <path id="ArialMT-28" d="M 1497 -1347 
Q 1031 -759 709 28 
Q 388 816 388 1659 
Q 388 2403 628 3084 
Q 909 3875 1497 4659 
L 1900 4659 
Q 1522 4009 1400 3731 
Q 1209 3300 1100 2831 
Q 966 2247 966 1656 
Q 966 153 1900 -1347 
L 1497 -1347 
z
" transform="scale(0.015625)"/>
       <path id="ArialMT-29" d="M 791 -1347 
L 388 -1347 
Q 1322 153 1322 1656 
Q 1322 2244 1188 2822 
Q 1081 3291 891 3722 
Q 769 4003 388 4659 
L 791 4659 
Q 1378 3875 1659 3084 
Q 1900 2403 1900 1659 
Q 1900 816 1576 28 
Q 1253 -759 791 -1347 
z
" transform="scale(0.015625)"/>
      </defs>
      <use xlink:href="#ArialMT-54"/>
      <use xlink:href="#ArialMT-72" x="57.333984"/>
      <use xlink:href="#ArialMT-69" x="90.634766"/>
      <use xlink:href="#ArialMT-6d" x="112.851562"/>
      <use xlink:href="#ArialMT-6d" x="196.152344"/>
      <use xlink:href="#ArialMT-65" x="279.453125"/>
      <use xlink:href="#ArialMT-64" x="335.068359"/>
      <use xlink:href="#ArialMT-20" x="390.683594"/>
      <use xlink:href="#ArialMT-4d" x="418.466797"/>
      <use xlink:href="#ArialMT-65" x="501.767578"/>
      <use xlink:href="#ArialMT-61" x="557.382812"/>
      <use xlink:href="#ArialMT-6e" x="612.998047"/>
      <use xlink:href="#ArialMT-73" x="668.613281"/>
      <use xlink:href="#ArialMT-20" x="718.613281"/>
      <use xlink:href="#ArialMT-6f" x="746.396484"/>
      <use xlink:href="#ArialMT-66" x="802.011719"/>
      <use xlink:href="#ArialMT-20" x="829.794922"/>
      <use xlink:href="#ArialMT-4d" x="857.578125"/>
      <use xlink:href="#ArialMT-20" x="940.878906"/>
      <use xlink:href="#ArialMT-76" x="968.662109"/>
      <use xlink:href="#ArialMT-61" x="1018.662109"/>
      <use xlink:href="#ArialMT-6c" x="1074.277344"/>
      <use xlink:href="#ArialMT-75" x="1096.494141"/>
      <use xlink:href="#ArialMT-65" x="1152.109375"/>
      <use xlink:href="#ArialMT-73" x="1207.724609"/>
      <use xlink:href="#ArialMT-20" x="1257.724609"/>
      <use xlink:href="#ArialMT-28" x="1285.507812"/>
      <use xlink:href="#ArialMT-54" x="1318.808594"/>
      <use xlink:href="#ArialMT-4d" x="1379.892578"/>
      <use xlink:href="#ArialMT-4d" x="1463.193359"/>
      <use xlink:href="#ArialMT-29" x="1546.494141"/>
     </g>
    </g>
   </g>
   <g id="PolyCollection_1">
    <defs>
     <path id="m6ad9a0e7ab" d="M 99.363882 -54.024776 
L 59.832721 -54.024776 
L 59.310248 -54.121602 
L 58.804702 -54.218429 
L 58.317658 -54.315255 
L 57.850593 -54.412082 
L 57.404874 -54.508909 
L 56.981743 -54.605735 
L 56.582308 -54.702562 
L 56.207534 -54.799389 
L 55.858227 -54.896215 
L 55.535036 -54.993042 
L 55.238439 -55.089868 
L 54.968744 -55.186695 
L 54.726084 -55.283522 
L 54.510418 -55.380348 
L 54.32153 -55.477175 
L 54.159034 -55.574001 
L 54.02238 -55.670828 
L 53.91086 -55.767655 
L 53.823615 -55.864481 
L 53.759649 -55.961308 
L 53.717841 -56.058134 
L 53.696956 -56.154961 
L 53.69566 -56.251788 
L 53.712541 -56.348614 
L 53.746119 -56.445441 
L 53.794871 -56.542267 
L 53.857242 -56.639094 
L 53.931668 -56.735921 
L 54.016594 -56.832747 
L 54.110488 -56.929574 
L 54.211865 -57.0264 
L 54.319298 -57.123227 
L 54.431434 -57.220054 
L 54.547013 -57.31688 
L 54.664875 -57.413707 
L 54.783976 -57.510534 
L 54.903394 -57.60736 
L 55.022341 -57.704187 
L 55.140162 -57.801013 
L 55.256348 -57.89784 
L 55.370527 -57.994667 
L 55.482473 -58.091493 
L 55.592098 -58.18832 
L 55.699449 -58.285146 
L 55.804703 -58.381973 
L 55.908157 -58.4788 
L 56.010221 -58.575626 
L 56.111403 -58.672453 
L 56.212303 -58.769279 
L 56.313593 -58.866106 
L 56.41601 -58.962933 
L 56.520335 -59.059759 
L 56.627383 -59.156586 
L 56.737988 -59.253412 
L 56.852985 -59.350239 
L 56.973199 -59.447066 
L 57.099431 -59.543892 
L 57.232444 -59.640719 
L 57.372955 -59.737545 
L 57.521617 -59.834372 
L 57.67902 -59.931199 
L 57.845672 -60.028025 
L 58.022003 -60.124852 
L 58.208354 -60.221679 
L 58.404974 -60.318505 
L 58.612021 -60.415332 
L 58.829561 -60.512158 
L 59.057568 -60.608985 
L 59.295927 -60.705812 
L 59.544439 -60.802638 
L 59.802826 -60.899465 
L 60.070738 -60.996291 
L 60.347755 -61.093118 
L 60.633403 -61.189945 
L 60.927156 -61.286771 
L 61.228447 -61.383598 
L 61.536675 -61.480424 
L 61.851217 -61.577251 
L 62.171434 -61.674078 
L 62.496681 -61.770904 
L 62.826313 -61.867731 
L 63.159696 -61.964557 
L 63.49621 -62.061384 
L 63.835256 -62.158211 
L 64.176263 -62.255037 
L 64.518689 -62.351864 
L 64.862028 -62.44869 
L 65.20581 -62.545517 
L 65.549602 -62.642344 
L 65.893012 -62.73917 
L 66.235685 -62.835997 
L 66.577303 -62.932824 
L 66.917585 -63.02965 
L 67.256284 -63.126477 
L 67.593182 -63.223303 
L 67.928088 -63.32013 
L 68.260837 -63.416957 
L 68.591281 -63.513783 
L 68.91929 -63.61061 
L 90.277313 -63.61061 
L 90.277313 -63.61061 
L 90.605322 -63.513783 
L 90.935766 -63.416957 
L 91.268515 -63.32013 
L 91.603421 -63.223303 
L 91.940319 -63.126477 
L 92.279018 -63.02965 
L 92.6193 -62.932824 
L 92.960918 -62.835997 
L 93.303591 -62.73917 
L 93.647001 -62.642344 
L 93.990793 -62.545517 
L 94.334575 -62.44869 
L 94.677914 -62.351864 
L 95.02034 -62.255037 
L 95.361347 -62.158211 
L 95.700393 -62.061384 
L 96.036907 -61.964557 
L 96.37029 -61.867731 
L 96.699922 -61.770904 
L 97.025169 -61.674078 
L 97.345386 -61.577251 
L 97.659928 -61.480424 
L 97.968156 -61.383598 
L 98.269446 -61.286771 
L 98.563199 -61.189945 
L 98.848848 -61.093118 
L 99.125865 -60.996291 
L 99.393777 -60.899465 
L 99.652164 -60.802638 
L 99.900676 -60.705812 
L 100.139035 -60.608985 
L 100.367042 -60.512158 
L 100.584582 -60.415332 
L 100.791629 -60.318505 
L 100.988249 -60.221679 
L 101.1746 -60.124852 
L 101.350931 -60.028025 
L 101.517583 -59.931199 
L 101.674985 -59.834372 
L 101.823648 -59.737545 
L 101.964159 -59.640719 
L 102.097172 -59.543892 
L 102.223404 -59.447066 
L 102.343618 -59.350239 
L 102.458615 -59.253412 
L 102.56922 -59.156586 
L 102.676268 -59.059759 
L 102.780593 -58.962933 
L 102.88301 -58.866106 
L 102.9843 -58.769279 
L 103.0852 -58.672453 
L 103.186382 -58.575626 
L 103.288446 -58.4788 
L 103.3919 -58.381973 
L 103.497154 -58.285146 
L 103.604505 -58.18832 
L 103.71413 -58.091493 
L 103.826076 -57.994667 
L 103.940255 -57.89784 
L 104.05644 -57.801013 
L 104.174262 -57.704187 
L 104.293209 -57.60736 
L 104.412627 -57.510534 
L 104.531728 -57.413707 
L 104.64959 -57.31688 
L 104.765169 -57.220054 
L 104.877305 -57.123227 
L 104.984738 -57.0264 
L 105.086115 -56.929574 
L 105.180009 -56.832747 
L 105.264935 -56.735921 
L 105.339361 -56.639094 
L 105.401732 -56.542267 
L 105.450483 -56.445441 
L 105.484062 -56.348614 
L 105.500943 -56.251788 
L 105.499647 -56.154961 
L 105.478761 -56.058134 
L 105.436953 -55.961308 
L 105.372988 -55.864481 
L 105.285743 -55.767655 
L 105.174223 -55.670828 
L 105.037569 -55.574001 
L 104.875073 -55.477175 
L 104.686185 -55.380348 
L 104.470519 -55.283522 
L 104.227859 -55.186695 
L 103.958164 -55.089868 
L 103.661567 -54.993042 
L 103.338376 -54.896215 
L 102.989069 -54.799389 
L 102.614295 -54.702562 
L 102.21486 -54.605735 
L 101.791729 -54.508909 
L 101.34601 -54.412082 
L 100.878945 -54.315255 
L 100.391901 -54.218429 
L 99.886355 -54.121602 
L 99.363882 -54.024776 
z
" style="stroke: #999999; stroke-width: 2"/>
    </defs>
    <g clip-path="url(#pf0c4ed426a)">
     <use xlink:href="#m6ad9a0e7ab" x="0" y="255.11811" style="fill: #ffffff; stroke: #999999; stroke-width: 2"/>
    </g>
   </g>
   <g id="PolyCollection_2">
    <defs>
     <path id="mada72143d3" d="M 147.455619 -112.351971 
L 141.25419 -112.351971 
L 141.132373 -112.757082 
L 141.008115 -113.162193 
L 140.881406 -113.567304 
L 140.752249 -113.972415 
L 140.620659 -114.377526 
L 140.486673 -114.782636 
L 140.350348 -115.187747 
L 140.211762 -115.592858 
L 140.071023 -115.997969 
L 139.928267 -116.40308 
L 139.783657 -116.808191 
L 139.637393 -117.213302 
L 139.489704 -117.618412 
L 139.340855 -118.023523 
L 139.191143 -118.428634 
L 139.040899 -118.833745 
L 138.890485 -119.238856 
L 138.740295 -119.643967 
L 138.590747 -120.049078 
L 138.442289 -120.454188 
L 138.295388 -120.859299 
L 138.150531 -121.26441 
L 138.00822 -121.669521 
L 137.868968 -122.074632 
L 137.733291 -122.479743 
L 137.601712 -122.884854 
L 137.474747 -123.289964 
L 137.352906 -123.695075 
L 137.236687 -124.100186 
L 137.126574 -124.505297 
L 137.023026 -124.910408 
L 136.926482 -125.315519 
L 136.83735 -125.72063 
L 136.756009 -126.12574 
L 136.682803 -126.530851 
L 136.618039 -126.935962 
L 136.561988 -127.341073 
L 136.514877 -127.746184 
L 136.476893 -128.151295 
L 136.448182 -128.556406 
L 136.428846 -128.961516 
L 136.418942 -129.366627 
L 136.418486 -129.771738 
L 136.427451 -130.176849 
L 136.445768 -130.58196 
L 136.473327 -130.987071 
L 136.509977 -131.392182 
L 136.555531 -131.797292 
L 136.609762 -132.202403 
L 136.67241 -132.607514 
L 136.743179 -133.012625 
L 136.821744 -133.417736 
L 136.907747 -133.822847 
L 137.000804 -134.227958 
L 137.100505 -134.633068 
L 137.206417 -135.038179 
L 137.318086 -135.44329 
L 137.435039 -135.848401 
L 137.556789 -136.253512 
L 137.682834 -136.658623 
L 137.812665 -137.063734 
L 137.945762 -137.468844 
L 138.081604 -137.873955 
L 138.21967 -138.279066 
L 138.359441 -138.684177 
L 138.500403 -139.089288 
L 138.642053 -139.494399 
L 138.783902 -139.89951 
L 138.925477 -140.30462 
L 139.066325 -140.709731 
L 139.206016 -141.114842 
L 139.344148 -141.519953 
L 139.480348 -141.925064 
L 139.614274 -142.330175 
L 139.745621 -142.735286 
L 139.874118 -143.140396 
L 139.999533 -143.545507 
L 140.121677 -143.950618 
L 140.240396 -144.355729 
L 140.355581 -144.76084 
L 140.467161 -145.165951 
L 140.575106 -145.571062 
L 140.679425 -145.976172 
L 140.780164 -146.381283 
L 140.877402 -146.786394 
L 140.971253 -147.191505 
L 141.061859 -147.596616 
L 141.149387 -148.001727 
L 141.234028 -148.406838 
L 141.315992 -148.811948 
L 141.395501 -149.217059 
L 141.472788 -149.62217 
L 141.548094 -150.027281 
L 141.621659 -150.432392 
L 141.693723 -150.837503 
L 141.764517 -151.242614 
L 141.834264 -151.647724 
L 141.903175 -152.052835 
L 141.971441 -152.457946 
L 146.738368 -152.457946 
L 146.738368 -152.457946 
L 146.806634 -152.052835 
L 146.875544 -151.647724 
L 146.945292 -151.242614 
L 147.016086 -150.837503 
L 147.088149 -150.432392 
L 147.161715 -150.027281 
L 147.23702 -149.62217 
L 147.314308 -149.217059 
L 147.393817 -148.811948 
L 147.47578 -148.406838 
L 147.560422 -148.001727 
L 147.64795 -147.596616 
L 147.738556 -147.191505 
L 147.832407 -146.786394 
L 147.929645 -146.381283 
L 148.030383 -145.976172 
L 148.134703 -145.571062 
L 148.242648 -145.165951 
L 148.354228 -144.76084 
L 148.469413 -144.355729 
L 148.588132 -143.950618 
L 148.710275 -143.545507 
L 148.835691 -143.140396 
L 148.964188 -142.735286 
L 149.095534 -142.330175 
L 149.229461 -141.925064 
L 149.36566 -141.519953 
L 149.503793 -141.114842 
L 149.643484 -140.709731 
L 149.784332 -140.30462 
L 149.925907 -139.89951 
L 150.067756 -139.494399 
L 150.209406 -139.089288 
L 150.350368 -138.684177 
L 150.490138 -138.279066 
L 150.628204 -137.873955 
L 150.764047 -137.468844 
L 150.897144 -137.063734 
L 151.026974 -136.658623 
L 151.15302 -136.253512 
L 151.27477 -135.848401 
L 151.391723 -135.44329 
L 151.503392 -135.038179 
L 151.609304 -134.633068 
L 151.709005 -134.227958 
L 151.802062 -133.822847 
L 151.888065 -133.417736 
L 151.966629 -133.012625 
L 152.037399 -132.607514 
L 152.100047 -132.202403 
L 152.154278 -131.797292 
L 152.199832 -131.392182 
L 152.236482 -130.987071 
L 152.264041 -130.58196 
L 152.282358 -130.176849 
L 152.291323 -129.771738 
L 152.290867 -129.366627 
L 152.280963 -128.961516 
L 152.261626 -128.556406 
L 152.232916 -128.151295 
L 152.194932 -127.746184 
L 152.147821 -127.341073 
L 152.091769 -126.935962 
L 152.027006 -126.530851 
L 151.9538 -126.12574 
L 151.872459 -125.72063 
L 151.783327 -125.315519 
L 151.686783 -124.910408 
L 151.583235 -124.505297 
L 151.473121 -124.100186 
L 151.356903 -123.695075 
L 151.235062 -123.289964 
L 151.108097 -122.884854 
L 150.976518 -122.479743 
L 150.840841 -122.074632 
L 150.701588 -121.669521 
L 150.559277 -121.26441 
L 150.414421 -120.859299 
L 150.26752 -120.454188 
L 150.119062 -120.049078 
L 149.969514 -119.643967 
L 149.819323 -119.238856 
L 149.66891 -118.833745 
L 149.518666 -118.428634 
L 149.368954 -118.023523 
L 149.220105 -117.618412 
L 149.072416 -117.213302 
L 148.926152 -116.808191 
L 148.781542 -116.40308 
L 148.638785 -115.997969 
L 148.498047 -115.592858 
L 148.359461 -115.187747 
L 148.223135 -114.782636 
L 148.08915 -114.377526 
L 147.95756 -113.972415 
L 147.828402 -113.567304 
L 147.701693 -113.162193 
L 147.577436 -112.757082 
L 147.455619 -112.351971 
z
" style="stroke: #999999; stroke-width: 2"/>
    </defs>
    <g clip-path="url(#pf0c4ed426a)">
     <use xlink:href="#mada72143d3" x="0" y="255.11811" style="fill: #ffffff; stroke: #999999; stroke-width: 2"/>
    </g>
   </g>
   <g id="PolyCollection_3">
    <defs>
     <path id="m7a068e3334" d="M 211.308851 -130.956464 
L 206.914164 -130.956464 
L 206.868937 -131.649493 
L 206.825043 -132.342521 
L 206.782452 -133.03555 
L 206.741121 -133.728579 
L 206.700992 -134.421607 
L 206.661991 -135.114636 
L 206.624034 -135.807665 
L 206.587023 -136.500693 
L 206.550852 -137.193722 
L 206.515405 -137.886751 
L 206.480561 -138.579779 
L 206.446193 -139.272808 
L 206.412173 -139.965837 
L 206.378372 -140.658866 
L 206.344664 -141.351894 
L 206.310924 -142.044923 
L 206.277036 -142.737952 
L 206.242891 -143.43098 
L 206.20839 -144.124009 
L 206.173448 -144.817038 
L 206.13799 -145.510066 
L 206.101961 -146.203095 
L 206.065318 -146.896124 
L 206.028039 -147.589153 
L 205.990121 -148.282181 
L 205.951579 -148.97521 
L 205.912449 -149.668239 
L 205.872789 -150.361267 
L 205.832673 -151.054296 
L 205.7922 -151.747325 
L 205.751485 -152.440353 
L 205.710663 -153.133382 
L 205.669887 -153.826411 
L 205.629326 -154.519439 
L 205.589163 -155.212468 
L 205.549596 -155.905497 
L 205.510832 -156.598526 
L 205.47309 -157.291554 
L 205.436594 -157.984583 
L 205.401572 -158.677612 
L 205.368257 -159.37064 
L 205.336882 -160.063669 
L 205.307674 -160.756698 
L 205.280859 -161.449726 
L 205.256655 -162.142755 
L 205.235269 -162.835784 
L 205.216897 -163.528812 
L 205.201722 -164.221841 
L 205.189909 -164.91487 
L 205.181609 -165.607899 
L 205.176949 -166.300927 
L 205.17604 -166.993956 
L 205.178967 -167.686985 
L 205.185796 -168.380013 
L 205.196567 -169.073042 
L 205.211296 -169.766071 
L 205.229976 -170.459099 
L 205.252577 -171.152128 
L 205.279044 -171.845157 
L 205.309299 -172.538185 
L 205.343242 -173.231214 
L 205.380753 -173.924243 
L 205.421691 -174.617272 
L 205.465899 -175.3103 
L 205.513201 -176.003329 
L 205.563408 -176.696358 
L 205.616319 -177.389386 
L 205.671721 -178.082415 
L 205.729393 -178.775444 
L 205.78911 -179.468472 
L 205.850641 -180.161501 
L 205.913754 -180.85453 
L 205.978218 -181.547558 
L 206.043803 -182.240587 
L 206.110287 -182.933616 
L 206.177451 -183.626645 
L 206.245086 -184.319673 
L 206.312993 -185.012702 
L 206.380984 -185.705731 
L 206.448883 -186.398759 
L 206.516528 -187.091788 
L 206.583771 -187.784817 
L 206.650479 -188.477845 
L 206.716532 -189.170874 
L 206.781829 -189.863903 
L 206.84628 -190.556931 
L 206.909812 -191.24996 
L 206.972367 -191.942989 
L 207.033899 -192.636018 
L 207.094375 -193.329046 
L 207.153775 -194.022075 
L 207.212088 -194.715104 
L 207.269316 -195.408132 
L 207.325465 -196.101161 
L 207.380552 -196.79419 
L 207.434599 -197.487218 
L 207.487631 -198.180247 
L 207.539678 -198.873276 
L 207.590773 -199.566304 
L 210.632241 -199.566304 
L 210.632241 -199.566304 
L 210.683336 -198.873276 
L 210.735384 -198.180247 
L 210.788416 -197.487218 
L 210.842463 -196.79419 
L 210.89755 -196.101161 
L 210.953699 -195.408132 
L 211.010926 -194.715104 
L 211.06924 -194.022075 
L 211.12864 -193.329046 
L 211.189116 -192.636018 
L 211.250648 -191.942989 
L 211.313202 -191.24996 
L 211.376735 -190.556931 
L 211.441186 -189.863903 
L 211.506482 -189.170874 
L 211.572536 -188.477845 
L 211.639243 -187.784817 
L 211.706486 -187.091788 
L 211.774131 -186.398759 
L 211.842031 -185.705731 
L 211.910022 -185.012702 
L 211.977929 -184.319673 
L 212.045564 -183.626645 
L 212.112728 -182.933616 
L 212.179211 -182.240587 
L 212.244797 -181.547558 
L 212.30926 -180.85453 
L 212.372373 -180.161501 
L 212.433904 -179.468472 
L 212.493621 -178.775444 
L 212.551294 -178.082415 
L 212.606696 -177.389386 
L 212.659606 -176.696358 
L 212.709814 -176.003329 
L 212.757116 -175.3103 
L 212.801323 -174.617272 
L 212.842262 -173.924243 
L 212.879773 -173.231214 
L 212.913716 -172.538185 
L 212.943971 -171.845157 
L 212.970437 -171.152128 
L 212.993038 -170.459099 
L 213.011719 -169.766071 
L 213.026448 -169.073042 
L 213.037219 -168.380013 
L 213.044047 -167.686985 
L 213.046975 -166.993956 
L 213.046065 -166.300927 
L 213.041406 -165.607899 
L 213.033105 -164.91487 
L 213.021293 -164.221841 
L 213.006118 -163.528812 
L 212.987746 -162.835784 
L 212.96636 -162.142755 
L 212.942155 -161.449726 
L 212.915341 -160.756698 
L 212.886133 -160.063669 
L 212.854757 -159.37064 
L 212.821443 -158.677612 
L 212.786421 -157.984583 
L 212.749924 -157.291554 
L 212.712182 -156.598526 
L 212.673419 -155.905497 
L 212.633851 -155.212468 
L 212.593689 -154.519439 
L 212.553128 -153.826411 
L 212.512352 -153.133382 
L 212.47153 -152.440353 
L 212.430815 -151.747325 
L 212.390342 -151.054296 
L 212.350226 -150.361267 
L 212.310565 -149.668239 
L 212.271436 -148.97521 
L 212.232894 -148.282181 
L 212.194976 -147.589153 
L 212.157697 -146.896124 
L 212.121054 -146.203095 
L 212.085024 -145.510066 
L 212.049567 -144.817038 
L 212.014624 -144.124009 
L 211.980124 -143.43098 
L 211.945979 -142.737952 
L 211.912091 -142.044923 
L 211.878351 -141.351894 
L 211.844642 -140.658866 
L 211.810842 -139.965837 
L 211.776822 -139.272808 
L 211.742454 -138.579779 
L 211.70761 -137.886751 
L 211.672163 -137.193722 
L 211.635992 -136.500693 
L 211.598981 -135.807665 
L 211.561024 -135.114636 
L 211.522023 -134.421607 
L 211.481894 -133.728579 
L 211.440563 -133.03555 
L 211.397972 -132.342521 
L 211.354077 -131.649493 
L 211.308851 -130.956464 
z
" style="stroke: #999999; stroke-width: 2"/>
    </defs>
    <g clip-path="url(#pf0c4ed426a)">
     <use xlink:href="#m7a068e3334" x="0" y="255.11811" style="fill: #ffffff; stroke: #999999; stroke-width: 2"/>
    </g>
   </g>
   <g id="PolyCollection_4">
    <defs>
     <path id="m5c9ab99cea" d="M 276.333912 -91.380979 
L 271.402308 -91.380979 
L 271.342113 -91.813356 
L 271.28355 -92.245733 
L 271.226641 -92.67811 
L 271.171385 -93.110487 
L 271.117755 -93.542864 
L 271.065704 -93.975241 
L 271.015158 -94.407618 
L 270.966022 -94.839995 
L 270.918179 -95.272372 
L 270.871491 -95.704749 
L 270.825799 -96.137127 
L 270.78093 -96.569504 
L 270.73669 -97.001881 
L 270.692875 -97.434258 
L 270.649269 -97.866635 
L 270.605647 -98.299012 
L 270.561777 -98.731389 
L 270.517426 -99.163766 
L 270.472358 -99.596143 
L 270.426343 -100.02852 
L 270.379154 -100.460897 
L 270.330574 -100.893274 
L 270.280397 -101.325651 
L 270.228433 -101.758028 
L 270.174507 -102.190405 
L 270.118465 -102.622782 
L 270.060177 -103.055159 
L 269.999533 -103.487536 
L 269.936452 -103.919913 
L 269.870882 -104.35229 
L 269.802797 -104.784667 
L 269.732203 -105.217044 
L 269.659137 -105.649422 
L 269.583667 -106.081799 
L 269.505892 -106.514176 
L 269.425944 -106.946553 
L 269.343983 -107.37893 
L 269.2602 -107.811307 
L 269.174813 -108.243684 
L 269.088069 -108.676061 
L 269.000237 -109.108438 
L 268.91161 -109.540815 
L 268.822501 -109.973192 
L 268.73324 -110.405569 
L 268.644174 -110.837946 
L 268.555659 -111.270323 
L 268.46806 -111.7027 
L 268.38175 -112.135077 
L 268.297101 -112.567454 
L 268.214487 -112.999831 
L 268.134274 -113.432208 
L 268.056826 -113.864585 
L 267.982492 -114.296962 
L 267.911611 -114.72934 
L 267.844504 -115.161717 
L 267.781474 -115.594094 
L 267.722805 -116.026471 
L 267.668758 -116.458848 
L 267.61957 -116.891225 
L 267.57545 -117.323602 
L 267.536585 -117.755979 
L 267.503132 -118.188356 
L 267.475221 -118.620733 
L 267.452955 -119.05311 
L 267.436409 -119.485487 
L 267.425633 -119.917864 
L 267.420651 -120.350241 
L 267.42146 -120.782618 
L 267.428037 -121.214995 
L 267.440335 -121.647372 
L 267.45829 -122.079749 
L 267.481818 -122.512126 
L 267.510819 -122.944503 
L 267.545179 -123.37688 
L 267.584774 -123.809257 
L 267.629467 -124.241635 
L 267.679115 -124.674012 
L 267.733569 -125.106389 
L 267.792674 -125.538766 
L 267.856274 -125.971143 
L 267.924208 -126.40352 
L 267.996318 -126.835897 
L 268.072444 -127.268274 
L 268.152428 -127.700651 
L 268.236113 -128.133028 
L 268.323345 -128.565405 
L 268.41397 -128.997782 
L 268.507837 -129.430159 
L 268.604795 -129.862536 
L 268.704694 -130.294913 
L 268.807386 -130.72729 
L 268.912719 -131.159667 
L 269.020542 -131.592044 
L 269.130701 -132.024421 
L 269.243038 -132.456798 
L 269.357392 -132.889175 
L 269.473597 -133.321553 
L 269.59148 -133.75393 
L 269.710865 -134.186307 
L 278.025356 -134.186307 
L 278.025356 -134.186307 
L 278.14474 -133.75393 
L 278.262624 -133.321553 
L 278.378829 -132.889175 
L 278.493182 -132.456798 
L 278.60552 -132.024421 
L 278.715678 -131.592044 
L 278.823501 -131.159667 
L 278.928835 -130.72729 
L 279.031526 -130.294913 
L 279.131426 -129.862536 
L 279.228384 -129.430159 
L 279.322251 -128.997782 
L 279.412876 -128.565405 
L 279.500108 -128.133028 
L 279.583793 -127.700651 
L 279.663777 -127.268274 
L 279.739903 -126.835897 
L 279.812013 -126.40352 
L 279.879947 -125.971143 
L 279.943546 -125.538766 
L 280.002651 -125.106389 
L 280.057105 -124.674012 
L 280.106754 -124.241635 
L 280.151447 -123.809257 
L 280.191041 -123.37688 
L 280.225402 -122.944503 
L 280.254402 -122.512126 
L 280.27793 -122.079749 
L 280.295885 -121.647372 
L 280.308184 -121.214995 
L 280.314761 -120.782618 
L 280.31557 -120.350241 
L 280.310587 -119.917864 
L 280.299811 -119.485487 
L 280.283266 -119.05311 
L 280.261 -118.620733 
L 280.233089 -118.188356 
L 280.199635 -117.755979 
L 280.16077 -117.323602 
L 280.116651 -116.891225 
L 280.067462 -116.458848 
L 280.013415 -116.026471 
L 279.954746 -115.594094 
L 279.891717 -115.161717 
L 279.82461 -114.72934 
L 279.753728 -114.296962 
L 279.679394 -113.864585 
L 279.601946 -113.432208 
L 279.521734 -112.999831 
L 279.439119 -112.567454 
L 279.354471 -112.135077 
L 279.26816 -111.7027 
L 279.180562 -111.270323 
L 279.092046 -110.837946 
L 279.00298 -110.405569 
L 278.91372 -109.973192 
L 278.824611 -109.540815 
L 278.735984 -109.108438 
L 278.648152 -108.676061 
L 278.561407 -108.243684 
L 278.47602 -107.811307 
L 278.392237 -107.37893 
L 278.310276 -106.946553 
L 278.230328 -106.514176 
L 278.152554 -106.081799 
L 278.077084 -105.649422 
L 278.004018 -105.217044 
L 277.933424 -104.784667 
L 277.865339 -104.35229 
L 277.799768 -103.919913 
L 277.736688 -103.487536 
L 277.676044 -103.055159 
L 277.617755 -102.622782 
L 277.561714 -102.190405 
L 277.507788 -101.758028 
L 277.455824 -101.325651 
L 277.405647 -100.893274 
L 277.357067 -100.460897 
L 277.309878 -100.02852 
L 277.263862 -99.596143 
L 277.218795 -99.163766 
L 277.174444 -98.731389 
L 277.130574 -98.299012 
L 277.086951 -97.866635 
L 277.043345 -97.434258 
L 276.999531 -97.001881 
L 276.955291 -96.569504 
L 276.910421 -96.137127 
L 276.86473 -95.704749 
L 276.818041 -95.272372 
L 276.770199 -94.839995 
L 276.721063 -94.407618 
L 276.670517 -93.975241 
L 276.618465 -93.542864 
L 276.564836 -93.110487 
L 276.509579 -92.67811 
L 276.45267 -92.245733 
L 276.394108 -91.813356 
L 276.333912 -91.380979 
z
" style="stroke: #999999; stroke-width: 2"/>
    </defs>
    <g clip-path="url(#pf0c4ed426a)">
     <use xlink:href="#m5c9ab99cea" x="0" y="255.11811" style="fill: #ffffff; stroke: #999999; stroke-width: 2"/>
    </g>
   </g>
   <g id="PolyCollection_5">
    <defs>
     <path id="m01c28c1b75" d="M 360.121866 -49.837187 
L 317.127561 -49.837187 
L 316.893561 -49.957617 
L 316.681482 -50.078048 
L 316.491802 -50.198478 
L 316.324913 -50.318909 
L 316.181125 -50.439339 
L 316.060658 -50.55977 
L 315.963649 -50.6802 
L 315.890145 -50.800631 
L 315.840109 -50.921061 
L 315.813418 -51.041492 
L 315.809867 -51.161922 
L 315.82917 -51.282352 
L 315.870962 -51.402783 
L 315.934804 -51.523213 
L 316.020185 -51.643644 
L 316.126527 -51.764074 
L 316.253189 -51.884505 
L 316.39947 -52.004935 
L 316.564617 -52.125366 
L 316.747827 -52.245796 
L 316.948254 -52.366227 
L 317.165011 -52.486657 
L 317.397181 -52.607088 
L 317.643818 -52.727518 
L 317.903951 -52.847949 
L 318.176594 -52.968379 
L 318.460748 -53.088809 
L 318.755404 -53.20924 
L 319.059554 -53.32967 
L 319.372189 -53.450101 
L 319.692305 -53.570531 
L 320.01891 -53.690962 
L 320.351024 -53.811392 
L 320.687686 -53.931823 
L 321.027954 -54.052253 
L 321.370909 -54.172684 
L 321.715658 -54.293114 
L 322.061337 -54.413545 
L 322.407111 -54.533975 
L 322.752179 -54.654406 
L 323.09577 -54.774836 
L 323.437152 -54.895267 
L 323.775626 -55.015697 
L 324.110529 -55.136127 
L 324.441239 -55.256558 
L 324.767166 -55.376988 
L 325.087764 -55.497419 
L 325.402521 -55.617849 
L 325.710965 -55.73828 
L 326.012662 -55.85871 
L 326.307214 -55.979141 
L 326.594263 -56.099571 
L 326.873488 -56.220002 
L 327.144605 -56.340432 
L 327.407366 -56.460863 
L 327.66156 -56.581293 
L 327.907012 -56.701724 
L 328.143583 -56.822154 
L 328.371167 -56.942584 
L 328.589696 -57.063015 
L 328.799132 -57.183445 
L 328.999474 -57.303876 
L 329.190753 -57.424306 
L 329.373031 -57.544737 
L 329.546404 -57.665167 
L 329.710996 -57.785598 
L 329.866966 -57.906028 
L 330.014498 -58.026459 
L 330.153806 -58.146889 
L 330.285133 -58.26732 
L 330.408747 -58.38775 
L 330.524941 -58.508181 
L 330.634033 -58.628611 
L 330.736362 -58.749042 
L 330.832289 -58.869472 
L 330.922195 -58.989902 
L 331.006475 -59.110333 
L 331.085544 -59.230763 
L 331.159827 -59.351194 
L 331.229762 -59.471624 
L 331.295795 -59.592055 
L 331.35838 -59.712485 
L 331.417975 -59.832916 
L 331.47504 -59.953346 
L 331.530033 -60.073777 
L 331.583412 -60.194207 
L 331.635627 -60.314638 
L 331.687122 -60.435068 
L 331.738328 -60.555499 
L 331.789665 -60.675929 
L 331.841537 -60.79636 
L 331.894333 -60.91679 
L 331.948418 -61.03722 
L 332.00414 -61.157651 
L 332.06182 -61.278081 
L 332.121757 -61.398512 
L 332.184222 -61.518942 
L 332.249457 -61.639373 
L 332.317677 -61.759803 
L 344.93175 -61.759803 
L 344.93175 -61.759803 
L 344.99997 -61.639373 
L 345.065205 -61.518942 
L 345.127669 -61.398512 
L 345.187606 -61.278081 
L 345.245286 -61.157651 
L 345.301008 -61.03722 
L 345.355094 -60.91679 
L 345.407889 -60.79636 
L 345.459762 -60.675929 
L 345.511099 -60.555499 
L 345.562305 -60.435068 
L 345.613799 -60.314638 
L 345.666014 -60.194207 
L 345.719393 -60.073777 
L 345.774387 -59.953346 
L 345.831451 -59.832916 
L 345.891046 -59.712485 
L 345.953632 -59.592055 
L 346.019665 -59.471624 
L 346.089599 -59.351194 
L 346.163882 -59.230763 
L 346.242951 -59.110333 
L 346.327232 -58.989902 
L 346.417137 -58.869472 
L 346.513064 -58.749042 
L 346.615393 -58.628611 
L 346.724485 -58.508181 
L 346.840679 -58.38775 
L 346.964293 -58.26732 
L 347.09562 -58.146889 
L 347.234929 -58.026459 
L 347.38246 -57.906028 
L 347.53843 -57.785598 
L 347.703023 -57.665167 
L 347.876395 -57.544737 
L 348.058673 -57.424306 
L 348.249952 -57.303876 
L 348.450294 -57.183445 
L 348.659731 -57.063015 
L 348.878259 -56.942584 
L 349.105843 -56.822154 
L 349.342414 -56.701724 
L 349.587866 -56.581293 
L 349.84206 -56.460863 
L 350.104821 -56.340432 
L 350.375938 -56.220002 
L 350.655163 -56.099571 
L 350.942213 -55.979141 
L 351.236765 -55.85871 
L 351.538461 -55.73828 
L 351.846905 -55.617849 
L 352.161662 -55.497419 
L 352.48226 -55.376988 
L 352.808188 -55.256558 
L 353.138897 -55.136127 
L 353.473801 -55.015697 
L 353.812274 -54.895267 
L 354.153656 -54.774836 
L 354.497248 -54.654406 
L 354.842315 -54.533975 
L 355.18809 -54.413545 
L 355.533769 -54.293114 
L 355.878518 -54.172684 
L 356.221473 -54.052253 
L 356.56174 -53.931823 
L 356.898402 -53.811392 
L 357.230517 -53.690962 
L 357.557122 -53.570531 
L 357.877238 -53.450101 
L 358.189872 -53.32967 
L 358.494022 -53.20924 
L 358.788679 -53.088809 
L 359.072832 -52.968379 
L 359.345475 -52.847949 
L 359.605609 -52.727518 
L 359.852245 -52.607088 
L 360.084415 -52.486657 
L 360.301173 -52.366227 
L 360.501599 -52.245796 
L 360.684809 -52.125366 
L 360.849956 -52.004935 
L 360.996238 -51.884505 
L 361.122899 -51.764074 
L 361.229242 -51.643644 
L 361.314623 -51.523213 
L 361.378465 -51.402783 
L 361.420257 -51.282352 
L 361.439559 -51.161922 
L 361.436009 -51.041492 
L 361.409318 -50.921061 
L 361.359281 -50.800631 
L 361.285777 -50.6802 
L 361.188768 -50.55977 
L 361.068302 -50.439339 
L 360.924513 -50.318909 
L 360.757625 -50.198478 
L 360.567944 -50.078048 
L 360.355866 -49.957617 
L 360.121866 -49.837187 
z
" style="stroke: #999999; stroke-width: 2"/>
    </defs>
    <g clip-path="url(#pf0c4ed426a)">
     <use xlink:href="#m01c28c1b75" x="0" y="255.11811" style="fill: #ffffff; stroke: #999999; stroke-width: 2"/>
    </g>
   </g>
   <g id="PolyCollection_6">
    <defs>
     <path id="m97a9e81af8" d="M 405.400066 -145.77696 
L 401.362566 -145.77696 
L 401.332592 -146.548718 
L 401.304399 -147.320475 
L 401.278004 -148.092232 
L 401.253418 -148.863989 
L 401.230637 -149.635746 
L 401.209645 -150.407504 
L 401.190417 -151.179261 
L 401.172915 -151.951018 
L 401.157088 -152.722775 
L 401.142877 -153.494532 
L 401.130212 -154.26629 
L 401.119012 -155.038047 
L 401.109186 -155.809804 
L 401.100638 -156.581561 
L 401.093261 -157.353318 
L 401.086943 -158.125076 
L 401.081564 -158.896833 
L 401.077001 -159.66859 
L 401.073126 -160.440347 
L 401.069809 -161.212104 
L 401.066918 -161.983862 
L 401.064318 -162.755619 
L 401.061878 -163.527376 
L 401.059466 -164.299133 
L 401.056953 -165.07089 
L 401.054215 -165.842648 
L 401.05113 -166.614405 
L 401.047584 -167.386162 
L 401.043468 -168.157919 
L 401.038683 -168.929676 
L 401.033137 -169.701434 
L 401.026746 -170.473191 
L 401.019437 -171.244948 
L 401.011148 -172.016705 
L 401.001829 -172.788462 
L 400.991438 -173.56022 
L 400.97995 -174.331977 
L 400.967347 -175.103734 
L 400.953628 -175.875491 
L 400.938802 -176.647249 
L 400.922891 -177.419006 
L 400.90593 -178.190763 
L 400.887965 -178.96252 
L 400.869056 -179.734277 
L 400.849273 -180.506035 
L 400.828697 -181.277792 
L 400.807421 -182.049549 
L 400.785547 -182.821306 
L 400.763186 -183.593063 
L 400.740458 -184.364821 
L 400.71749 -185.136578 
L 400.694418 -185.908335 
L 400.67138 -186.680092 
L 400.648522 -187.451849 
L 400.625992 -188.223607 
L 400.603943 -188.995364 
L 400.582526 -189.767121 
L 400.561897 -190.538878 
L 400.542209 -191.310635 
L 400.523613 -192.082393 
L 400.506259 -192.85415 
L 400.490293 -193.625907 
L 400.475856 -194.397664 
L 400.463084 -195.169421 
L 400.452107 -195.941179 
L 400.443047 -196.712936 
L 400.436018 -197.484693 
L 400.431125 -198.25645 
L 400.428465 -199.028207 
L 400.428123 -199.799965 
L 400.430174 -200.571722 
L 400.434684 -201.343479 
L 400.441706 -202.115236 
L 400.451281 -202.886993 
L 400.463439 -203.658751 
L 400.478198 -204.430508 
L 400.495566 -205.202265 
L 400.515536 -205.974022 
L 400.538093 -206.745779 
L 400.563207 -207.517537 
L 400.590841 -208.289294 
L 400.620943 -209.061051 
L 400.653456 -209.832808 
L 400.688308 -210.604565 
L 400.725422 -211.376323 
L 400.76471 -212.14808 
L 400.806077 -212.919837 
L 400.849422 -213.691594 
L 400.894636 -214.463351 
L 400.941603 -215.235109 
L 400.990206 -216.006866 
L 401.040319 -216.778623 
L 401.091816 -217.55038 
L 401.144566 -218.322137 
L 401.198438 -219.093895 
L 401.253297 -219.865652 
L 401.309009 -220.637409 
L 401.36544 -221.409166 
L 401.422457 -222.180923 
L 405.340176 -222.180923 
L 405.340176 -222.180923 
L 405.397192 -221.409166 
L 405.453623 -220.637409 
L 405.509335 -219.865652 
L 405.564194 -219.093895 
L 405.618066 -218.322137 
L 405.670816 -217.55038 
L 405.722313 -216.778623 
L 405.772426 -216.006866 
L 405.821029 -215.235109 
L 405.867997 -214.463351 
L 405.91321 -213.691594 
L 405.956555 -212.919837 
L 405.997922 -212.14808 
L 406.037211 -211.376323 
L 406.074324 -210.604565 
L 406.109176 -209.832808 
L 406.141689 -209.061051 
L 406.171791 -208.289294 
L 406.199425 -207.517537 
L 406.224539 -206.745779 
L 406.247096 -205.974022 
L 406.267066 -205.202265 
L 406.284434 -204.430508 
L 406.299193 -203.658751 
L 406.311352 -202.886993 
L 406.320926 -202.115236 
L 406.327948 -201.343479 
L 406.332458 -200.571722 
L 406.334509 -199.799965 
L 406.334167 -199.028207 
L 406.331507 -198.25645 
L 406.326614 -197.484693 
L 406.319585 -196.712936 
L 406.310525 -195.941179 
L 406.299548 -195.169421 
L 406.286776 -194.397664 
L 406.272339 -193.625907 
L 406.256373 -192.85415 
L 406.23902 -192.082393 
L 406.220424 -191.310635 
L 406.200735 -190.538878 
L 406.180106 -189.767121 
L 406.15869 -188.995364 
L 406.13664 -188.223607 
L 406.114111 -187.451849 
L 406.091252 -186.680092 
L 406.068215 -185.908335 
L 406.045142 -185.136578 
L 406.022174 -184.364821 
L 405.999446 -183.593063 
L 405.977085 -182.821306 
L 405.955211 -182.049549 
L 405.933935 -181.277792 
L 405.913359 -180.506035 
L 405.893576 -179.734277 
L 405.874667 -178.96252 
L 405.856702 -178.190763 
L 405.839741 -177.419006 
L 405.82383 -176.647249 
L 405.809004 -175.875491 
L 405.795285 -175.103734 
L 405.782683 -174.331977 
L 405.771194 -173.56022 
L 405.760803 -172.788462 
L 405.751484 -172.016705 
L 405.743195 -171.244948 
L 405.735887 -170.473191 
L 405.729495 -169.701434 
L 405.723949 -168.929676 
L 405.719164 -168.157919 
L 405.715049 -167.386162 
L 405.711502 -166.614405 
L 405.708417 -165.842648 
L 405.705679 -165.07089 
L 405.703166 -164.299133 
L 405.700754 -163.527376 
L 405.698314 -162.755619 
L 405.695714 -161.983862 
L 405.692823 -161.212104 
L 405.689506 -160.440347 
L 405.685631 -159.66859 
L 405.681068 -158.896833 
L 405.67569 -158.125076 
L 405.669371 -157.353318 
L 405.661994 -156.581561 
L 405.653446 -155.809804 
L 405.643621 -155.038047 
L 405.63242 -154.26629 
L 405.619755 -153.494532 
L 405.605544 -152.722775 
L 405.589718 -151.951018 
L 405.572215 -151.179261 
L 405.552987 -150.407504 
L 405.531996 -149.635746 
L 405.509214 -148.863989 
L 405.484628 -148.092232 
L 405.458234 -147.320475 
L 405.43004 -146.548718 
L 405.400066 -145.77696 
z
" style="stroke: #999999; stroke-width: 2"/>
    </defs>
    <g clip-path="url(#pf0c4ed426a)">
     <use xlink:href="#m97a9e81af8" x="0" y="255.11811" style="fill: #ffffff; stroke: #999999; stroke-width: 2"/>
    </g>
   </g>
   <g id="PolyCollection_7">
    <defs>
     <path id="maf77efe030" d="M 476.071463 -62.339614 
L 460.204375 -62.339614 
L 460.005448 -62.633243 
L 459.813701 -62.926873 
L 459.629771 -63.220502 
L 459.454269 -63.514131 
L 459.28777 -63.807761 
L 459.130813 -64.10139 
L 458.983898 -64.39502 
L 458.847478 -64.688649 
L 458.721961 -64.982278 
L 458.607705 -65.275908 
L 458.505019 -65.569537 
L 458.414155 -65.863167 
L 458.335311 -66.156796 
L 458.268632 -66.450425 
L 458.214203 -66.744055 
L 458.172055 -67.037684 
L 458.142162 -67.331313 
L 458.124443 -67.624943 
L 458.118762 -67.918572 
L 458.124931 -68.212202 
L 458.142709 -68.505831 
L 458.171809 -68.79946 
L 458.211896 -69.09309 
L 458.262591 -69.386719 
L 458.323478 -69.680349 
L 458.3941 -69.973978 
L 458.473968 -70.267607 
L 458.562564 -70.561237 
L 458.659344 -70.854866 
L 458.76374 -71.148495 
L 458.875169 -71.442125 
L 458.993032 -71.735754 
L 459.116721 -72.029384 
L 459.24562 -72.323013 
L 459.379113 -72.616642 
L 459.516585 -72.910272 
L 459.657426 -73.203901 
L 459.801035 -73.497531 
L 459.946823 -73.79116 
L 460.094217 -74.084789 
L 460.242661 -74.378419 
L 460.39162 -74.672048 
L 460.540584 -74.965677 
L 460.689066 -75.259307 
L 460.836608 -75.552936 
L 460.98278 -75.846566 
L 461.127183 -76.140195 
L 461.26945 -76.433824 
L 461.409245 -76.727454 
L 461.546266 -77.021083 
L 461.680243 -77.314713 
L 461.81094 -77.608342 
L 461.938156 -77.901971 
L 462.061719 -78.195601 
L 462.181492 -78.48923 
L 462.297368 -78.78286 
L 462.409273 -79.076489 
L 462.517158 -79.370118 
L 462.621008 -79.663748 
L 462.720829 -79.957377 
L 462.816657 -80.251006 
L 462.90855 -80.544636 
L 462.996588 -80.838265 
L 463.080874 -81.131895 
L 463.161526 -81.425524 
L 463.238685 -81.719153 
L 463.312502 -82.012783 
L 463.383147 -82.306412 
L 463.450798 -82.600042 
L 463.515647 -82.893671 
L 463.577893 -83.1873 
L 463.637744 -83.48093 
L 463.695413 -83.774559 
L 463.751117 -84.068188 
L 463.805078 -84.361818 
L 463.857518 -84.655447 
L 463.908659 -84.949077 
L 463.958722 -85.242706 
L 464.007927 -85.536335 
L 464.056488 -85.829965 
L 464.104617 -86.123594 
L 464.152518 -86.417224 
L 464.20039 -86.710853 
L 464.248422 -87.004482 
L 464.296796 -87.298112 
L 464.345682 -87.591741 
L 464.395242 -87.88537 
L 464.445624 -88.179 
L 464.496964 -88.472629 
L 464.549388 -88.766259 
L 464.603004 -89.059888 
L 464.657909 -89.353517 
L 464.714184 -89.647147 
L 464.771895 -89.940776 
L 464.831093 -90.234406 
L 464.891813 -90.528035 
L 464.954075 -90.821664 
L 465.017882 -91.115294 
L 465.083222 -91.408923 
L 471.192616 -91.408923 
L 471.192616 -91.408923 
L 471.257956 -91.115294 
L 471.321763 -90.821664 
L 471.384025 -90.528035 
L 471.444745 -90.234406 
L 471.503943 -89.940776 
L 471.561654 -89.647147 
L 471.617929 -89.353517 
L 471.672834 -89.059888 
L 471.72645 -88.766259 
L 471.778874 -88.472629 
L 471.830215 -88.179 
L 471.880596 -87.88537 
L 471.930156 -87.591741 
L 471.979042 -87.298112 
L 472.027416 -87.004482 
L 472.075448 -86.710853 
L 472.12332 -86.417224 
L 472.171221 -86.123594 
L 472.21935 -85.829965 
L 472.267912 -85.536335 
L 472.317116 -85.242706 
L 472.367179 -84.949077 
L 472.41832 -84.655447 
L 472.47076 -84.361818 
L 472.524721 -84.068188 
L 472.580425 -83.774559 
L 472.638094 -83.48093 
L 472.697945 -83.1873 
L 472.760191 -82.893671 
L 472.82504 -82.600042 
L 472.892691 -82.306412 
L 472.963336 -82.012783 
L 473.037153 -81.719153 
L 473.114312 -81.425524 
L 473.194964 -81.131895 
L 473.27925 -80.838265 
L 473.367288 -80.544636 
L 473.459181 -80.251006 
L 473.555009 -79.957377 
L 473.654831 -79.663748 
L 473.75868 -79.370118 
L 473.866566 -79.076489 
L 473.97847 -78.78286 
L 474.094346 -78.48923 
L 474.214119 -78.195601 
L 474.337682 -77.901971 
L 474.464898 -77.608342 
L 474.595595 -77.314713 
L 474.729572 -77.021083 
L 474.866593 -76.727454 
L 475.006388 -76.433824 
L 475.148655 -76.140195 
L 475.293058 -75.846566 
L 475.43923 -75.552936 
L 475.586772 -75.259307 
L 475.735254 -74.965677 
L 475.884218 -74.672048 
L 476.033177 -74.378419 
L 476.181621 -74.084789 
L 476.329015 -73.79116 
L 476.474803 -73.497531 
L 476.618412 -73.203901 
L 476.759253 -72.910272 
L 476.896725 -72.616642 
L 477.030218 -72.323013 
L 477.159117 -72.029384 
L 477.282806 -71.735754 
L 477.400669 -71.442125 
L 477.512098 -71.148495 
L 477.616494 -70.854866 
L 477.713274 -70.561237 
L 477.80187 -70.267607 
L 477.881739 -69.973978 
L 477.95236 -69.680349 
L 478.013247 -69.386719 
L 478.063942 -69.09309 
L 478.104029 -68.79946 
L 478.133129 -68.505831 
L 478.150907 -68.212202 
L 478.157076 -67.918572 
L 478.151395 -67.624943 
L 478.133676 -67.331313 
L 478.103783 -67.037684 
L 478.061635 -66.744055 
L 478.007206 -66.450425 
L 477.940527 -66.156796 
L 477.861683 -65.863167 
L 477.770819 -65.569537 
L 477.668133 -65.275908 
L 477.553877 -64.982278 
L 477.42836 -64.688649 
L 477.29194 -64.39502 
L 477.145025 -64.10139 
L 476.988068 -63.807761 
L 476.821569 -63.514131 
L 476.646067 -63.220502 
L 476.462137 -62.926873 
L 476.27039 -62.633243 
L 476.071463 -62.339614 
z
" style="stroke: #999999; stroke-width: 2"/>
    </defs>
    <g clip-path="url(#pf0c4ed426a)">
     <use xlink:href="#maf77efe030" x="0" y="255.11811" style="fill: #ffffff; stroke: #999999; stroke-width: 2"/>
    </g>
   </g>
   <g id="PathCollection_1"/>
   <g id="PathCollection_2"/>
   <g id="patch_3">
    <path d="M 47.22 213.89811 
L 47.22 24.32 
" style="fill: none; stroke: #262626; stroke-width: 1.25; stroke-linejoin: miter; stroke-linecap: square"/>
   </g>
   <g id="patch_4">
    <path d="M 47.22 213.89811 
L 500.51622 213.89811 
" style="fill: none; stroke: #262626; stroke-width: 1.25; stroke-linejoin: miter; stroke-linecap: square"/>
   </g>
   <g id="PathCollection_3">
    <defs>
     <path id="C0_0_01b2e4f4c0" d="M 0 2.5 
C 0.663008 2.5 1.29895 2.236584 1.767767 1.767767 
C 2.236584 1.29895 2.5 0.663008 2.5 -0 
C 2.5 -0.663008 2.236584 -1.29895 1.767767 -1.767767 
C 1.29895 -2.236584 0.663008 -2.5 0 -2.5 
C -0.663008 -2.5 -1.29895 -2.236584 -1.767767 -1.767767 
C -2.236584 -1.29895 -2.5 -0.663008 -2.5 0 
C -2.5 0.663008 -2.236584 1.29895 -1.767767 1.767767 
C -1.29895 2.236584 -0.663008 2.5 0 2.5 
z
"/>
    </defs>
    <g clip-path="url(#pf0c4ed426a)">
     <use xlink:href="#C0_0_01b2e4f4c0" x="74.587495" y="194.464766" style="fill: #4c72b0; fill-opacity: 0.75"/>
    </g>
    <g clip-path="url(#pf0c4ed426a)">
     <use xlink:href="#C0_0_01b2e4f4c0" x="84.658546" y="201.093335" style="fill: #4c72b0; fill-opacity: 0.75"/>
    </g>
    <g clip-path="url(#pf0c4ed426a)">
     <use xlink:href="#C0_0_01b2e4f4c0" x="77.964988" y="199.690764" style="fill: #4c72b0; fill-opacity: 0.75"/>
    </g>
    <g clip-path="url(#pf0c4ed426a)">
     <use xlink:href="#C0_0_01b2e4f4c0" x="75.389275" y="195.068638" style="fill: #4c72b0; fill-opacity: 0.75"/>
    </g>
    <g clip-path="url(#pf0c4ed426a)">
     <use xlink:href="#C0_0_01b2e4f4c0" x="75.595626" y="199.485182" style="fill: #dd8452; fill-opacity: 0.75"/>
    </g>
    <g clip-path="url(#pf0c4ed426a)">
     <use xlink:href="#C0_0_01b2e4f4c0" x="80.207354" y="196.101336" style="fill: #dd8452; fill-opacity: 0.75"/>
    </g>
    <g clip-path="url(#pf0c4ed426a)">
     <use xlink:href="#C0_0_01b2e4f4c0" x="75.632714" y="198.851406" style="fill: #dd8452; fill-opacity: 0.75"/>
    </g>
    <g clip-path="url(#pf0c4ed426a)">
     <use xlink:href="#C0_0_01b2e4f4c0" x="74.265482" y="191.5075" style="fill: #dd8452; fill-opacity: 0.75"/>
    </g>
   </g>
   <g id="PathCollection_4">
    <defs>
     <path id="C1_0_121783ede7" d="M 0 2.5 
C 0.663008 2.5 1.29895 2.236584 1.767767 1.767767 
C 2.236584 1.29895 2.5 0.663008 2.5 -0 
C 2.5 -0.663008 2.236584 -1.29895 1.767767 -1.767767 
C 1.29895 -2.236584 0.663008 -2.5 0 -2.5 
C -0.663008 -2.5 -1.29895 -2.236584 -1.767767 -1.767767 
C -2.236584 -1.29895 -2.5 -0.663008 -2.5 0 
C -2.5 0.663008 -2.236584 1.29895 -1.767767 1.767767 
C -1.29895 2.236584 -0.663008 2.5 0 2.5 
z
"/>
    </defs>
    <g clip-path="url(#pf0c4ed426a)">
     <use xlink:href="#C1_0_121783ede7" x="147.561635" y="142.766139" style="fill: #4c72b0; fill-opacity: 0.75"/>
    </g>
    <g clip-path="url(#pf0c4ed426a)">
     <use xlink:href="#C1_0_121783ede7" x="150.550676" y="127.723924" style="fill: #4c72b0; fill-opacity: 0.75"/>
    </g>
    <g clip-path="url(#pf0c4ed426a)">
     <use xlink:href="#C1_0_121783ede7" x="148.711963" y="120.634373" style="fill: #4c72b0; fill-opacity: 0.75"/>
    </g>
    <g clip-path="url(#pf0c4ed426a)">
     <use xlink:href="#C1_0_121783ede7" x="148.478749" y="121.846434" style="fill: #4c72b0; fill-opacity: 0.75"/>
    </g>
    <g clip-path="url(#pf0c4ed426a)">
     <use xlink:href="#C1_0_121783ede7" x="139.980626" y="131.847785" style="fill: #dd8452; fill-opacity: 0.75"/>
    </g>
    <g clip-path="url(#pf0c4ed426a)">
     <use xlink:href="#C1_0_121783ede7" x="148.699142" y="129.861451" style="fill: #dd8452; fill-opacity: 0.75"/>
    </g>
    <g clip-path="url(#pf0c4ed426a)">
     <use xlink:href="#C1_0_121783ede7" x="147.193324" y="114.984068" style="fill: #dd8452; fill-opacity: 0.75"/>
    </g>
    <g clip-path="url(#pf0c4ed426a)">
     <use xlink:href="#C1_0_121783ede7" x="148.671614" y="102.660164" style="fill: #dd8452; fill-opacity: 0.75"/>
    </g>
   </g>
   <g id="PathCollection_5">
    <defs>
     <path id="C2_0_eceeca69a5" d="M 0 2.5 
C 0.663008 2.5 1.29895 2.236584 1.767767 1.767767 
C 2.236584 1.29895 2.5 0.663008 2.5 -0 
C 2.5 -0.663008 2.236584 -1.29895 1.767767 -1.767767 
C 1.29895 -2.236584 0.663008 -2.5 0 -2.5 
C -0.663008 -2.5 -1.29895 -2.236584 -1.767767 -1.767767 
C -2.236584 -1.29895 -2.5 -0.663008 -2.5 0 
C -2.5 0.663008 -2.236584 1.29895 -1.767767 1.767767 
C -1.29895 2.236584 -0.663008 2.5 0 2.5 
z
"/>
    </defs>
    <g clip-path="url(#pf0c4ed426a)">
     <use xlink:href="#C2_0_eceeca69a5" x="211.977364" y="121.04362" style="fill: #4c72b0; fill-opacity: 0.75"/>
    </g>
    <g clip-path="url(#pf0c4ed426a)">
     <use xlink:href="#C2_0_eceeca69a5" x="203.026083" y="55.551806" style="fill: #4c72b0; fill-opacity: 0.75"/>
    </g>
    <g clip-path="url(#pf0c4ed426a)">
     <use xlink:href="#C2_0_eceeca69a5" x="204.870443" y="86.319404" style="fill: #4c72b0; fill-opacity: 0.75"/>
    </g>
    <g clip-path="url(#pf0c4ed426a)">
     <use xlink:href="#C2_0_eceeca69a5" x="210.924081" y="102.652239" style="fill: #4c72b0; fill-opacity: 0.75"/>
    </g>
    <g clip-path="url(#pf0c4ed426a)">
     <use xlink:href="#C2_0_eceeca69a5" x="206.772608" y="83.597457" style="fill: #dd8452; fill-opacity: 0.75"/>
    </g>
    <g clip-path="url(#pf0c4ed426a)">
     <use xlink:href="#C2_0_eceeca69a5" x="208.837854" y="92.366097" style="fill: #dd8452; fill-opacity: 0.75"/>
    </g>
    <g clip-path="url(#pf0c4ed426a)">
     <use xlink:href="#C2_0_eceeca69a5" x="214.871219" y="76.356641" style="fill: #dd8452; fill-opacity: 0.75"/>
    </g>
    <g clip-path="url(#pf0c4ed426a)">
     <use xlink:href="#C2_0_eceeca69a5" x="206.973151" y="124.161646" style="fill: #dd8452; fill-opacity: 0.75"/>
    </g>
   </g>
   <g id="PathCollection_6">
    <defs>
     <path id="C3_0_709109e4b0" d="M 0 2.5 
C 0.663008 2.5 1.29895 2.236584 1.767767 1.767767 
C 2.236584 1.29895 2.5 0.663008 2.5 -0 
C 2.5 -0.663008 2.236584 -1.29895 1.767767 -1.767767 
C 1.29895 -2.236584 0.663008 -2.5 0 -2.5 
C -0.663008 -2.5 -1.29895 -2.236584 -1.767767 -1.767767 
C -2.236584 -1.29895 -2.5 -0.663008 -2.5 0 
C -2.5 0.663008 -2.236584 1.29895 -1.767767 1.767767 
C -1.29895 2.236584 -0.663008 2.5 0 2.5 
z
"/>
    </defs>
    <g clip-path="url(#pf0c4ed426a)">
     <use xlink:href="#C3_0_709109e4b0" x="273.723122" y="120.931804" style="fill: #4c72b0; fill-opacity: 0.75"/>
    </g>
    <g clip-path="url(#pf0c4ed426a)">
     <use xlink:href="#C3_0_709109e4b0" x="277.303376" y="135.163703" style="fill: #4c72b0; fill-opacity: 0.75"/>
    </g>
    <g clip-path="url(#pf0c4ed426a)">
     <use xlink:href="#C3_0_709109e4b0" x="273.809682" y="121.505213" style="fill: #4c72b0; fill-opacity: 0.75"/>
    </g>
    <g clip-path="url(#pf0c4ed426a)">
     <use xlink:href="#C3_0_709109e4b0" x="270.510843" y="133.410603" style="fill: #4c72b0; fill-opacity: 0.75"/>
    </g>
    <g clip-path="url(#pf0c4ed426a)">
     <use xlink:href="#C3_0_709109e4b0" x="274.676613" y="129.071773" style="fill: #4c72b0; fill-opacity: 0.75"/>
    </g>
    <g clip-path="url(#pf0c4ed426a)">
     <use xlink:href="#C3_0_709109e4b0" x="278.023102" y="148.126218" style="fill: #dd8452; fill-opacity: 0.75"/>
    </g>
    <g clip-path="url(#pf0c4ed426a)">
     <use xlink:href="#C3_0_709109e4b0" x="278.713869" y="140.259781" style="fill: #dd8452; fill-opacity: 0.75"/>
    </g>
    <g clip-path="url(#pf0c4ed426a)">
     <use xlink:href="#C3_0_709109e4b0" x="271.253014" y="158.125105" style="fill: #dd8452; fill-opacity: 0.75"/>
    </g>
    <g clip-path="url(#pf0c4ed426a)">
     <use xlink:href="#C3_0_709109e4b0" x="270.633684" y="139.359804" style="fill: #dd8452; fill-opacity: 0.75"/>
    </g>
    <g clip-path="url(#pf0c4ed426a)">
     <use xlink:href="#C3_0_709109e4b0" x="275.231912" y="163.737131" style="fill: #dd8452; fill-opacity: 0.75"/>
    </g>
   </g>
   <g id="PathCollection_7">
    <defs>
     <path id="C4_0_c26a70f94e" d="M 0 2.5 
C 0.663008 2.5 1.29895 2.236584 1.767767 1.767767 
C 2.236584 1.29895 2.5 0.663008 2.5 -0 
C 2.5 -0.663008 2.236584 -1.29895 1.767767 -1.767767 
C 1.29895 -2.236584 0.663008 -2.5 0 -2.5 
C -0.663008 -2.5 -1.29895 -2.236584 -1.767767 -1.767767 
C -2.236584 -1.29895 -2.5 -0.663008 -2.5 0 
C -2.5 0.663008 -2.236584 1.29895 -1.767767 1.767767 
C -1.29895 2.236584 -0.663008 2.5 0 2.5 
z
"/>
    </defs>
    <g clip-path="url(#pf0c4ed426a)">
     <use xlink:href="#C4_0_c26a70f94e" x="335.308993" y="202.990206" style="fill: #4c72b0; fill-opacity: 0.75"/>
    </g>
    <g clip-path="url(#pf0c4ed426a)">
     <use xlink:href="#C4_0_c26a70f94e" x="338.519247" y="205.280923" style="fill: #4c72b0; fill-opacity: 0.75"/>
    </g>
    <g clip-path="url(#pf0c4ed426a)">
     <use xlink:href="#C4_0_c26a70f94e" x="343.343857" y="204.834699" style="fill: #4c72b0; fill-opacity: 0.75"/>
    </g>
    <g clip-path="url(#pf0c4ed426a)">
     <use xlink:href="#C4_0_c26a70f94e" x="340.156198" y="199.659163" style="fill: #dd8452; fill-opacity: 0.75"/>
    </g>
    <g clip-path="url(#pf0c4ed426a)">
     <use xlink:href="#C4_0_c26a70f94e" x="339.506672" y="193.358307" style="fill: #dd8452; fill-opacity: 0.75"/>
    </g>
    <g clip-path="url(#pf0c4ed426a)">
     <use xlink:href="#C4_0_c26a70f94e" x="333.162944" y="204.808218" style="fill: #dd8452; fill-opacity: 0.75"/>
    </g>
   </g>
   <g id="PathCollection_8">
    <defs>
     <path id="C5_0_26f822e0e3" d="M 0 2.5 
C 0.663008 2.5 1.29895 2.236584 1.767767 1.767767 
C 2.236584 1.29895 2.5 0.663008 2.5 -0 
C 2.5 -0.663008 2.236584 -1.29895 1.767767 -1.767767 
C 1.29895 -2.236584 0.663008 -2.5 0 -2.5 
C -0.663008 -2.5 -1.29895 -2.236584 -1.767767 -1.767767 
C -2.236584 -1.29895 -2.5 -0.663008 -2.5 0 
C -2.5 0.663008 -2.236584 1.29895 -1.767767 1.767767 
C -1.29895 2.236584 -0.663008 2.5 0 2.5 
z
"/>
    </defs>
    <g clip-path="url(#pf0c4ed426a)">
     <use xlink:href="#C5_0_26f822e0e3" x="405.318287" y="94.133809" style="fill: #4c72b0; fill-opacity: 0.75"/>
    </g>
    <g clip-path="url(#pf0c4ed426a)">
     <use xlink:href="#C5_0_26f822e0e3" x="398.883401" y="109.34115" style="fill: #4c72b0; fill-opacity: 0.75"/>
    </g>
    <g clip-path="url(#pf0c4ed426a)">
     <use xlink:href="#C5_0_26f822e0e3" x="402.795297" y="72.669308" style="fill: #4c72b0; fill-opacity: 0.75"/>
    </g>
    <g clip-path="url(#pf0c4ed426a)">
     <use xlink:href="#C5_0_26f822e0e3" x="406.165553" y="107.489373" style="fill: #4c72b0; fill-opacity: 0.75"/>
    </g>
    <g clip-path="url(#pf0c4ed426a)">
     <use xlink:href="#C5_0_26f822e0e3" x="405.180211" y="57.122527" style="fill: #dd8452; fill-opacity: 0.75"/>
    </g>
    <g clip-path="url(#pf0c4ed426a)">
     <use xlink:href="#C5_0_26f822e0e3" x="399.40851" y="51.06729" style="fill: #dd8452; fill-opacity: 0.75"/>
    </g>
    <g clip-path="url(#pf0c4ed426a)">
     <use xlink:href="#C5_0_26f822e0e3" x="402.093775" y="32.937187" style="fill: #dd8452; fill-opacity: 0.75"/>
    </g>
    <g clip-path="url(#pf0c4ed426a)">
     <use xlink:href="#C5_0_26f822e0e3" x="405.453364" y="50.994009" style="fill: #dd8452; fill-opacity: 0.75"/>
    </g>
   </g>
   <g id="PathCollection_9">
    <defs>
     <path id="C6_0_b601ec2adf" d="M 0 2.5 
C 0.663008 2.5 1.29895 2.236584 1.767767 1.767767 
C 2.236584 1.29895 2.5 0.663008 2.5 -0 
C 2.5 -0.663008 2.236584 -1.29895 1.767767 -1.767767 
C 1.29895 -2.236584 0.663008 -2.5 0 -2.5 
C -0.663008 -2.5 -1.29895 -2.236584 -1.767767 -1.767767 
C -2.236584 -1.29895 -2.5 -0.663008 -2.5 0 
C -2.5 0.663008 -2.236584 1.29895 -1.767767 1.767767 
C -1.29895 2.236584 -0.663008 2.5 0 2.5 
z
"/>
    </defs>
    <g clip-path="url(#pf0c4ed426a)">
     <use xlink:href="#C6_0_b601ec2adf" x="463.754996" y="192.778496" style="fill: #4c72b0; fill-opacity: 0.75"/>
    </g>
    <g clip-path="url(#pf0c4ed426a)">
     <use xlink:href="#C6_0_b601ec2adf" x="463.068374" y="190.224178" style="fill: #4c72b0; fill-opacity: 0.75"/>
    </g>
    <g clip-path="url(#pf0c4ed426a)">
     <use xlink:href="#C6_0_b601ec2adf" x="465.009308" y="189.348651" style="fill: #4c72b0; fill-opacity: 0.75"/>
    </g>
    <g clip-path="url(#pf0c4ed426a)">
     <use xlink:href="#C6_0_b601ec2adf" x="472.142412" y="185.151212" style="fill: #4c72b0; fill-opacity: 0.75"/>
    </g>
    <g clip-path="url(#pf0c4ed426a)">
     <use xlink:href="#C6_0_b601ec2adf" x="466.461773" y="171.820044" style="fill: #dd8452; fill-opacity: 0.75"/>
    </g>
    <g clip-path="url(#pf0c4ed426a)">
     <use xlink:href="#C6_0_b601ec2adf" x="462.041715" y="185.427042" style="fill: #dd8452; fill-opacity: 0.75"/>
    </g>
    <g clip-path="url(#pf0c4ed426a)">
     <use xlink:href="#C6_0_b601ec2adf" x="468.561348" y="179.539979" style="fill: #dd8452; fill-opacity: 0.75"/>
    </g>
    <g clip-path="url(#pf0c4ed426a)">
     <use xlink:href="#C6_0_b601ec2adf" x="468.762478" y="163.709187" style="fill: #dd8452; fill-opacity: 0.75"/>
    </g>
   </g>
   <g id="text_16">
    <!-- CCT5, $p_{adj}$ &lt; .001 *** -->
    <g style="fill: #262626" transform="translate(47.22 18.32)scale(0.09 -0.09)">
     <defs>
      <path id="ArialMT-43" d="M 3763 1606 
L 4369 1453 
Q 4178 706 3683 314 
Q 3188 -78 2472 -78 
Q 1731 -78 1267 223 
Q 803 525 561 1097 
Q 319 1669 319 2325 
Q 319 3041 592 3573 
Q 866 4106 1370 4382 
Q 1875 4659 2481 4659 
Q 3169 4659 3637 4309 
Q 4106 3959 4291 3325 
L 3694 3184 
Q 3534 3684 3231 3912 
Q 2928 4141 2469 4141 
Q 1941 4141 1586 3887 
Q 1231 3634 1087 3207 
Q 944 2781 944 2328 
Q 944 1744 1114 1308 
Q 1284 872 1643 656 
Q 2003 441 2422 441 
Q 2931 441 3284 734 
Q 3638 1028 3763 1606 
z
" transform="scale(0.015625)"/>
      <path id="ArialMT-2c" d="M 569 0 
L 569 641 
L 1209 641 
L 1209 0 
Q 1209 -353 1084 -570 
Q 959 -788 688 -906 
L 531 -666 
Q 709 -588 793 -436 
Q 878 -284 888 0 
L 569 0 
z
" transform="scale(0.015625)"/>
      <path id="DejaVuSans-Oblique-70" d="M 3175 2156 
Q 3175 2616 2975 2859 
Q 2775 3103 2400 3103 
Q 2144 3103 1911 2972 
Q 1678 2841 1497 2591 
Q 1319 2344 1212 1994 
Q 1106 1644 1106 1300 
Q 1106 863 1306 627 
Q 1506 391 1875 391 
Q 2147 391 2380 519 
Q 2613 647 2778 891 
Q 2956 1147 3065 1494 
Q 3175 1841 3175 2156 
z
M 1394 2969 
Q 1625 3272 1939 3428 
Q 2253 3584 2638 3584 
Q 3175 3584 3472 3232 
Q 3769 2881 3769 2247 
Q 3769 1728 3584 1258 
Q 3400 788 3053 416 
Q 2822 169 2531 39 
Q 2241 -91 1919 -91 
Q 1547 -91 1294 64 
Q 1041 219 916 525 
L 556 -1331 
L -19 -1331 
L 922 3500 
L 1497 3500 
L 1394 2969 
z
" transform="scale(0.015625)"/>
      <path id="DejaVuSans-Oblique-61" d="M 3438 1997 
L 3047 0 
L 2472 0 
L 2578 531 
Q 2325 219 2001 64 
Q 1678 -91 1281 -91 
Q 834 -91 548 182 
Q 263 456 263 884 
Q 263 1497 752 1853 
Q 1241 2209 2100 2209 
L 2900 2209 
L 2931 2363 
Q 2938 2388 2941 2417 
Q 2944 2447 2944 2509 
Q 2944 2788 2717 2942 
Q 2491 3097 2081 3097 
Q 1800 3097 1504 3025 
Q 1209 2953 897 2809 
L 997 3341 
Q 1322 3463 1633 3523 
Q 1944 3584 2234 3584 
Q 2853 3584 3176 3315 
Q 3500 3047 3500 2534 
Q 3500 2431 3484 2292 
Q 3469 2153 3438 1997 
z
M 2816 1759 
L 2241 1759 
Q 1534 1759 1195 1570 
Q 856 1381 856 984 
Q 856 709 1029 553 
Q 1203 397 1509 397 
Q 1978 397 2328 733 
Q 2678 1069 2791 1631 
L 2816 1759 
z
" transform="scale(0.015625)"/>
      <path id="DejaVuSans-Oblique-64" d="M 2675 525 
Q 2444 222 2128 65 
Q 1813 -91 1428 -91 
Q 903 -91 598 267 
Q 294 625 294 1247 
Q 294 1766 478 2236 
Q 663 2706 1013 3078 
Q 1244 3325 1534 3454 
Q 1825 3584 2144 3584 
Q 2481 3584 2739 3421 
Q 2997 3259 3138 2956 
L 3513 4863 
L 4091 4863 
L 3144 0 
L 2566 0 
L 2675 525 
z
M 891 1350 
Q 891 897 1095 644 
Q 1300 391 1663 391 
Q 1931 391 2161 520 
Q 2391 650 2566 903 
Q 2750 1166 2856 1509 
Q 2963 1853 2963 2188 
Q 2963 2622 2758 2865 
Q 2553 3109 2194 3109 
Q 1922 3109 1687 2981 
Q 1453 2853 1288 2613 
Q 1106 2353 998 2009 
Q 891 1666 891 1350 
z
" transform="scale(0.015625)"/>
      <path id="DejaVuSans-Oblique-6a" d="M 928 3500 
L 1503 3500 
L 813 -63 
L 809 -78 
Q 694 -675 544 -897 
Q 403 -1106 132 -1218 
Q -138 -1331 -506 -1331 
L -722 -1331 
L -628 -844 
L -481 -844 
Q -144 -844 -1 -703 
Q 141 -563 238 -63 
L 928 3500 
z
M 1197 4863 
L 1772 4863 
L 1631 4134 
L 1056 4134 
L 1197 4863 
z
" transform="scale(0.015625)"/>
      <path id="ArialMT-3c" d="M 350 2003 
L 350 2528 
L 3384 3809 
L 3384 3250 
L 978 2263 
L 3384 1266 
L 3384 706 
L 350 2003 
z
" transform="scale(0.015625)"/>
      <path id="ArialMT-2e" d="M 581 0 
L 581 641 
L 1222 641 
L 1222 0 
L 581 0 
z
" transform="scale(0.015625)"/>
      <path id="ArialMT-2a" d="M 200 3741 
L 344 4184 
Q 841 4009 1066 3881 
Q 1006 4447 1003 4659 
L 1456 4659 
Q 1447 4350 1384 3884 
Q 1706 4047 2122 4184 
L 2266 3741 
Q 1869 3609 1488 3566 
Q 1678 3400 2025 2975 
L 1650 2709 
Q 1469 2956 1222 3381 
Q 991 2941 816 2709 
L 447 2975 
Q 809 3422 966 3566 
Q 563 3644 200 3741 
z
" transform="scale(0.015625)"/>
     </defs>
     <use xlink:href="#ArialMT-43" transform="translate(0 0.203125)"/>
     <use xlink:href="#ArialMT-43" transform="translate(72.216797 0.203125)"/>
     <use xlink:href="#ArialMT-54" transform="translate(144.433594 0.203125)"/>
     <use xlink:href="#ArialMT-35" transform="translate(205.517578 0.203125)"/>
     <use xlink:href="#ArialMT-2c" transform="translate(261.132812 0.203125)"/>
     <use xlink:href="#ArialMT-20" transform="translate(288.916016 0.203125)"/>
     <use xlink:href="#DejaVuSans-Oblique-70" transform="translate(316.699219 0.203125)"/>
     <use xlink:href="#DejaVuSans-Oblique-61" transform="translate(380.175781 -16.203125)scale(0.7)"/>
     <use xlink:href="#DejaVuSans-Oblique-64" transform="translate(423.071289 -16.203125)scale(0.7)"/>
     <use xlink:href="#DejaVuSans-Oblique-6a" transform="translate(467.504883 -16.203125)scale(0.7)"/>
     <use xlink:href="#ArialMT-20" transform="translate(489.6875 0.203125)"/>
     <use xlink:href="#ArialMT-3c" transform="translate(517.470703 0.203125)"/>
     <use xlink:href="#ArialMT-20" transform="translate(575.869141 0.203125)"/>
     <use xlink:href="#ArialMT-2e" transform="translate(603.652344 0.203125)"/>
     <use xlink:href="#ArialMT-30" transform="translate(631.435547 0.203125)"/>
     <use xlink:href="#ArialMT-30" transform="translate(687.050781 0.203125)"/>
     <use xlink:href="#ArialMT-31" transform="translate(742.666016 0.203125)"/>
     <use xlink:href="#ArialMT-20" transform="translate(798.28125 0.203125)"/>
     <use xlink:href="#ArialMT-2a" transform="translate(826.064453 0.203125)"/>
     <use xlink:href="#ArialMT-2a" transform="translate(864.980469 0.203125)"/>
     <use xlink:href="#ArialMT-2a" transform="translate(903.896484 0.203125)"/>
    </g>
   </g>
   <g id="legend_1">
    <g id="patch_5">
     <path d="M 441.91497 69.712344 
L 494.21622 69.712344 
Q 496.01622 69.712344 496.01622 67.912344 
L 496.01622 30.62 
Q 496.01622 28.82 494.21622 28.82 
L 441.91497 28.82 
Q 440.11497 28.82 440.11497 30.62 
L 440.11497 67.912344 
Q 440.11497 69.712344 441.91497 69.712344 
z
" style="fill: #ffffff; opacity: 0.8; stroke: #cccccc; stroke-linejoin: miter"/>
    </g>
    <g id="text_17">
     <!-- Treatment -->
     <g style="fill: #262626" transform="translate(447.729111 38.862031)scale(0.09 -0.09)">
      <use xlink:href="#ArialMT-54"/>
      <use xlink:href="#ArialMT-72" x="57.333984"/>
      <use xlink:href="#ArialMT-65" x="90.634766"/>
      <use xlink:href="#ArialMT-61" x="146.25"/>
      <use xlink:href="#ArialMT-74" x="201.865234"/>
      <use xlink:href="#ArialMT-6d" x="229.648438"/>
      <use xlink:href="#ArialMT-65" x="312.949219"/>
      <use xlink:href="#ArialMT-6e" x="368.564453"/>
      <use xlink:href="#ArialMT-74" x="424.179688"/>
     </g>
    </g>
    <g id="PathCollection_10">
     <defs>
      <path id="m7f36725c82" d="M 0 3.872983 
C 1.027127 3.872983 2.012324 3.464901 2.738613 2.738613 
C 3.464901 2.012324 3.872983 1.027127 3.872983 0 
C 3.872983 -1.027127 3.464901 -2.012324 2.738613 -2.738613 
C 2.012324 -3.464901 1.027127 -3.872983 0 -3.872983 
C -1.027127 -3.872983 -2.012324 -3.464901 -2.738613 -2.738613 
C -3.464901 -2.012324 -3.872983 -1.027127 -3.872983 0 
C -3.872983 1.027127 -3.464901 2.012324 -2.738613 2.738613 
C -2.012324 3.464901 -1.027127 3.872983 0 3.872983 
z
" style="stroke: #4c72b0"/>
     </defs>
     <g>
      <use xlink:href="#m7f36725c82" x="452.71497" y="49.230313" style="fill: #4c72b0; stroke: #4c72b0"/>
     </g>
    </g>
    <g id="text_18">
     <!-- BEVA -->
     <g style="fill: #262626" transform="translate(468.91497 51.592813)scale(0.09 -0.09)">
      <defs>
       <path id="ArialMT-42" d="M 469 0 
L 469 4581 
L 2188 4581 
Q 2713 4581 3030 4442 
Q 3347 4303 3526 4014 
Q 3706 3725 3706 3409 
Q 3706 3116 3547 2856 
Q 3388 2597 3066 2438 
Q 3481 2316 3704 2022 
Q 3928 1728 3928 1328 
Q 3928 1006 3792 729 
Q 3656 453 3456 303 
Q 3256 153 2954 76 
Q 2653 0 2216 0 
L 469 0 
z
M 1075 2656 
L 2066 2656 
Q 2469 2656 2644 2709 
Q 2875 2778 2992 2937 
Q 3109 3097 3109 3338 
Q 3109 3566 3000 3739 
Q 2891 3913 2687 3977 
Q 2484 4041 1991 4041 
L 1075 4041 
L 1075 2656 
z
M 1075 541 
L 2216 541 
Q 2509 541 2628 563 
Q 2838 600 2978 687 
Q 3119 775 3209 942 
Q 3300 1109 3300 1328 
Q 3300 1584 3169 1773 
Q 3038 1963 2805 2039 
Q 2572 2116 2134 2116 
L 1075 2116 
L 1075 541 
z
" transform="scale(0.015625)"/>
       <path id="ArialMT-45" d="M 506 0 
L 506 4581 
L 3819 4581 
L 3819 4041 
L 1113 4041 
L 1113 2638 
L 3647 2638 
L 3647 2100 
L 1113 2100 
L 1113 541 
L 3925 541 
L 3925 0 
L 506 0 
z
" transform="scale(0.015625)"/>
       <path id="ArialMT-56" d="M 1803 0 
L 28 4581 
L 684 4581 
L 1875 1253 
Q 2019 853 2116 503 
Q 2222 878 2363 1253 
L 3600 4581 
L 4219 4581 
L 2425 0 
L 1803 0 
z
" transform="scale(0.015625)"/>
       <path id="ArialMT-41" d="M -9 0 
L 1750 4581 
L 2403 4581 
L 4278 0 
L 3588 0 
L 3053 1388 
L 1138 1388 
L 634 0 
L -9 0 
z
M 1313 1881 
L 2866 1881 
L 2388 3150 
Q 2169 3728 2063 4100 
Q 1975 3659 1816 3225 
L 1313 1881 
z
" transform="scale(0.015625)"/>
      </defs>
      <use xlink:href="#ArialMT-42"/>
      <use xlink:href="#ArialMT-45" x="66.699219"/>
      <use xlink:href="#ArialMT-56" x="133.398438"/>
      <use xlink:href="#ArialMT-41" x="192.722656"/>
     </g>
    </g>
    <g id="PathCollection_11">
     <defs>
      <path id="m3ea4f00847" d="M 0 3.872983 
C 1.027127 3.872983 2.012324 3.464901 2.738613 2.738613 
C 3.464901 2.012324 3.872983 1.027127 3.872983 0 
C 3.872983 -1.027127 3.464901 -2.012324 2.738613 -2.738613 
C 2.012324 -3.464901 1.027127 -3.872983 0 -3.872983 
C -1.027127 -3.872983 -2.012324 -3.464901 -2.738613 -2.738613 
C -3.464901 -2.012324 -3.872983 -1.027127 -3.872983 0 
C -3.872983 1.027127 -3.464901 2.012324 -2.738613 2.738613 
C -2.012324 3.464901 -1.027127 3.872983 0 3.872983 
z
" style="stroke: #dd8452"/>
     </defs>
     <g>
      <use xlink:href="#m3ea4f00847" x="452.71497" y="61.961094" style="fill: #dd8452; stroke: #dd8452"/>
     </g>
    </g>
    <g id="text_19">
     <!-- CTRL -->
     <g style="fill: #262626" transform="translate(468.91497 64.323594)scale(0.09 -0.09)">
      <defs>
       <path id="ArialMT-52" d="M 503 0 
L 503 4581 
L 2534 4581 
Q 3147 4581 3465 4457 
Q 3784 4334 3975 4021 
Q 4166 3709 4166 3331 
Q 4166 2844 3850 2509 
Q 3534 2175 2875 2084 
Q 3116 1969 3241 1856 
Q 3506 1613 3744 1247 
L 4541 0 
L 3778 0 
L 3172 953 
Q 2906 1366 2734 1584 
Q 2563 1803 2427 1890 
Q 2291 1978 2150 2013 
Q 2047 2034 1813 2034 
L 1109 2034 
L 1109 0 
L 503 0 
z
M 1109 2559 
L 2413 2559 
Q 2828 2559 3062 2645 
Q 3297 2731 3419 2920 
Q 3541 3109 3541 3331 
Q 3541 3656 3305 3865 
Q 3069 4075 2559 4075 
L 1109 4075 
L 1109 2559 
z
" transform="scale(0.015625)"/>
       <path id="ArialMT-4c" d="M 469 0 
L 469 4581 
L 1075 4581 
L 1075 541 
L 3331 541 
L 3331 0 
L 469 0 
z
" transform="scale(0.015625)"/>
      </defs>
      <use xlink:href="#ArialMT-43"/>
      <use xlink:href="#ArialMT-54" x="72.216797"/>
      <use xlink:href="#ArialMT-52" x="133.300781"/>
      <use xlink:href="#ArialMT-4c" x="205.517578"/>
     </g>
    </g>
   </g>
  </g>
 </g>
 <defs>
  <clipPath id="pf0c4ed426a">
   <rect x="47.22" y="24.32" width="453.29622" height="189.57811"/>
  </clipPath>
 </defs>
</svg>
