<?xml version="1.0" encoding="utf-8" standalone="no"?>
<!DOCTYPE svg PUBLIC "-//W3C//DTD SVG 1.1//EN"
  "http://www.w3.org/Graphics/SVG/1.1/DTD/svg11.dtd">
<svg xmlns:xlink="http://www.w3.org/1999/xlink" width="510.23622pt" height="255.11811pt" viewBox="0 0 510.23622 255.11811" xmlns="http://www.w3.org/2000/svg" version="1.1">
 <metadata>
  <rdf:RDF xmlns:dc="http://purl.org/dc/elements/1.1/" xmlns:cc="http://creativecommons.org/ns#" xmlns:rdf="http://www.w3.org/1999/02/22-rdf-syntax-ns#">
   <cc:Work>
    <dc:type rdf:resource="http://purl.org/dc/dcmitype/StillImage"/>
    <dc:date>2022-04-27T00:16:05.992803</dc:date>
    <dc:format>image/svg+xml</dc:format>
    <dc:creator>
     <cc:Agent>
      <dc:title>Matplotlib v3.5.1, https://matplotlib.org/</dc:title>
     </cc:Agent>
    </dc:creator>
   </cc:Work>
  </rdf:RDF>
 </metadata>
 <defs>
  <style type="text/css">*{stroke-linejoin: round; stroke-linecap: butt}</style>
 </defs>
 <g id="figure_1">
  <g id="patch_1">
   <path d="M 0 255.11811 
L 510.23622 255.11811 
L 510.23622 0 
L 0 0 
z
" style="fill: #ffffff"/>
  </g>
  <g id="axes_1">
   <g id="patch_2">
    <path d="M 47.22 213.89811 
L 500.51622 213.89811 
L 500.51622 24.32 
L 47.22 24.32 
z
" style="fill: #ffffff"/>
   </g>
   <g id="matplotlib.axis_1">
    <g id="xtick_1">
     <g id="text_1">
      <!-- 49 -->
      <g style="fill: #444444" transform="translate(74.593458 229.840141)scale(0.09 -0.09)">
       <defs>
        <path id="ArialMT-34" d="M 2069 0 
L 2069 1097 
L 81 1097 
L 81 1613 
L 2172 4581 
L 2631 4581 
L 2631 1613 
L 3250 1613 
L 3250 1097 
L 2631 1097 
L 2631 0 
L 2069 0 
z
M 2069 1613 
L 2069 3678 
L 634 1613 
L 2069 1613 
z
" transform="scale(0.015625)"/>
        <path id="ArialMT-39" d="M 350 1059 
L 891 1109 
Q 959 728 1153 556 
Q 1347 384 1650 384 
Q 1909 384 2104 503 
Q 2300 622 2425 820 
Q 2550 1019 2634 1356 
Q 2719 1694 2719 2044 
Q 2719 2081 2716 2156 
Q 2547 1888 2255 1720 
Q 1963 1553 1622 1553 
Q 1053 1553 659 1965 
Q 266 2378 266 3053 
Q 266 3750 677 4175 
Q 1088 4600 1706 4600 
Q 2153 4600 2523 4359 
Q 2894 4119 3086 3673 
Q 3278 3228 3278 2384 
Q 3278 1506 3087 986 
Q 2897 466 2520 194 
Q 2144 -78 1638 -78 
Q 1100 -78 759 220 
Q 419 519 350 1059 
z
M 2653 3081 
Q 2653 3566 2395 3850 
Q 2138 4134 1775 4134 
Q 1400 4134 1122 3828 
Q 844 3522 844 3034 
Q 844 2597 1108 2323 
Q 1372 2050 1759 2050 
Q 2150 2050 2401 2323 
Q 2653 2597 2653 3081 
z
" transform="scale(0.015625)"/>
       </defs>
       <use xlink:href="#ArialMT-34"/>
       <use xlink:href="#ArialMT-39" x="55.615234"/>
      </g>
     </g>
    </g>
    <g id="xtick_2">
     <g id="text_2">
      <!-- 17 -->
      <g style="fill: #444444" transform="translate(139.350061 229.840141)scale(0.09 -0.09)">
       <defs>
        <path id="ArialMT-31" d="M 2384 0 
L 1822 0 
L 1822 3584 
Q 1619 3391 1289 3197 
Q 959 3003 697 2906 
L 697 3450 
Q 1169 3672 1522 3987 
Q 1875 4303 2022 4600 
L 2384 4600 
L 2384 0 
z
" transform="scale(0.015625)"/>
        <path id="ArialMT-37" d="M 303 3981 
L 303 4522 
L 3269 4522 
L 3269 4084 
Q 2831 3619 2401 2847 
Q 1972 2075 1738 1259 
Q 1569 684 1522 0 
L 944 0 
Q 953 541 1156 1306 
Q 1359 2072 1739 2783 
Q 2119 3494 2547 3981 
L 303 3981 
z
" transform="scale(0.015625)"/>
       </defs>
       <use xlink:href="#ArialMT-31"/>
       <use xlink:href="#ArialMT-37" x="55.615234"/>
      </g>
     </g>
    </g>
    <g id="xtick_3">
     <g id="text_3">
      <!-- 69 -->
      <g style="fill: #444444" transform="translate(204.106664 229.840141)scale(0.09 -0.09)">
       <defs>
        <path id="ArialMT-36" d="M 3184 3459 
L 2625 3416 
Q 2550 3747 2413 3897 
Q 2184 4138 1850 4138 
Q 1581 4138 1378 3988 
Q 1113 3794 959 3422 
Q 806 3050 800 2363 
Q 1003 2672 1297 2822 
Q 1591 2972 1913 2972 
Q 2475 2972 2870 2558 
Q 3266 2144 3266 1488 
Q 3266 1056 3080 686 
Q 2894 316 2569 119 
Q 2244 -78 1831 -78 
Q 1128 -78 684 439 
Q 241 956 241 2144 
Q 241 3472 731 4075 
Q 1159 4600 1884 4600 
Q 2425 4600 2770 4297 
Q 3116 3994 3184 3459 
z
M 888 1484 
Q 888 1194 1011 928 
Q 1134 663 1356 523 
Q 1578 384 1822 384 
Q 2178 384 2434 671 
Q 2691 959 2691 1453 
Q 2691 1928 2437 2201 
Q 2184 2475 1800 2475 
Q 1419 2475 1153 2201 
Q 888 1928 888 1484 
z
" transform="scale(0.015625)"/>
       </defs>
       <use xlink:href="#ArialMT-36"/>
       <use xlink:href="#ArialMT-39" x="55.615234"/>
      </g>
     </g>
    </g>
    <g id="xtick_4">
     <g id="text_4">
      <!-- 15 -->
      <g style="fill: #444444" transform="translate(268.863266 229.840141)scale(0.09 -0.09)">
       <defs>
        <path id="ArialMT-35" d="M 266 1200 
L 856 1250 
Q 922 819 1161 601 
Q 1400 384 1738 384 
Q 2144 384 2425 690 
Q 2706 997 2706 1503 
Q 2706 1984 2436 2262 
Q 2166 2541 1728 2541 
Q 1456 2541 1237 2417 
Q 1019 2294 894 2097 
L 366 2166 
L 809 4519 
L 3088 4519 
L 3088 3981 
L 1259 3981 
L 1013 2750 
Q 1425 3038 1878 3038 
Q 2478 3038 2890 2622 
Q 3303 2206 3303 1553 
Q 3303 931 2941 478 
Q 2500 -78 1738 -78 
Q 1113 -78 717 272 
Q 322 622 266 1200 
z
" transform="scale(0.015625)"/>
       </defs>
       <use xlink:href="#ArialMT-31"/>
       <use xlink:href="#ArialMT-35" x="55.615234"/>
      </g>
     </g>
    </g>
    <g id="xtick_5">
     <g id="text_5">
      <!-- 5 -->
      <g style="fill: #444444" transform="translate(336.122291 229.840141)scale(0.09 -0.09)">
       <use xlink:href="#ArialMT-35"/>
      </g>
     </g>
    </g>
    <g id="xtick_6">
     <g id="text_6">
      <!-- 126 -->
      <g style="fill: #444444" transform="translate(395.87405 229.840141)scale(0.09 -0.09)">
       <defs>
        <path id="ArialMT-32" d="M 3222 541 
L 3222 0 
L 194 0 
Q 188 203 259 391 
Q 375 700 629 1000 
Q 884 1300 1366 1694 
Q 2113 2306 2375 2664 
Q 2638 3022 2638 3341 
Q 2638 3675 2398 3904 
Q 2159 4134 1775 4134 
Q 1369 4134 1125 3890 
Q 881 3647 878 3216 
L 300 3275 
Q 359 3922 746 4261 
Q 1134 4600 1788 4600 
Q 2447 4600 2831 4234 
Q 3216 3869 3216 3328 
Q 3216 3053 3103 2787 
Q 2991 2522 2730 2228 
Q 2469 1934 1863 1422 
Q 1356 997 1212 845 
Q 1069 694 975 541 
L 3222 541 
z
" transform="scale(0.015625)"/>
       </defs>
       <use xlink:href="#ArialMT-31"/>
       <use xlink:href="#ArialMT-32" x="55.615234"/>
       <use xlink:href="#ArialMT-36" x="111.230469"/>
      </g>
     </g>
    </g>
    <g id="xtick_7">
     <g id="text_7">
      <!-- 62 -->
      <g style="fill: #444444" transform="translate(463.133075 229.840141)scale(0.09 -0.09)">
       <use xlink:href="#ArialMT-36"/>
       <use xlink:href="#ArialMT-32" x="55.615234"/>
      </g>
     </g>
    </g>
    <g id="text_8">
     <!-- Patient -->
     <g style="fill: #444444" transform="translate(259.859048 242.070923)scale(0.09 -0.09)">
      <defs>
       <path id="ArialMT-50" d="M 494 0 
L 494 4581 
L 2222 4581 
Q 2678 4581 2919 4538 
Q 3256 4481 3484 4323 
Q 3713 4166 3852 3881 
Q 3991 3597 3991 3256 
Q 3991 2672 3619 2267 
Q 3247 1863 2275 1863 
L 1100 1863 
L 1100 0 
L 494 0 
z
M 1100 2403 
L 2284 2403 
Q 2872 2403 3119 2622 
Q 3366 2841 3366 3238 
Q 3366 3525 3220 3729 
Q 3075 3934 2838 4000 
Q 2684 4041 2272 4041 
L 1100 4041 
L 1100 2403 
z
" transform="scale(0.015625)"/>
       <path id="ArialMT-61" d="M 2588 409 
Q 2275 144 1986 34 
Q 1697 -75 1366 -75 
Q 819 -75 525 192 
Q 231 459 231 875 
Q 231 1119 342 1320 
Q 453 1522 633 1644 
Q 813 1766 1038 1828 
Q 1203 1872 1538 1913 
Q 2219 1994 2541 2106 
Q 2544 2222 2544 2253 
Q 2544 2597 2384 2738 
Q 2169 2928 1744 2928 
Q 1347 2928 1158 2789 
Q 969 2650 878 2297 
L 328 2372 
Q 403 2725 575 2942 
Q 747 3159 1072 3276 
Q 1397 3394 1825 3394 
Q 2250 3394 2515 3294 
Q 2781 3194 2906 3042 
Q 3031 2891 3081 2659 
Q 3109 2516 3109 2141 
L 3109 1391 
Q 3109 606 3145 398 
Q 3181 191 3288 0 
L 2700 0 
Q 2613 175 2588 409 
z
M 2541 1666 
Q 2234 1541 1622 1453 
Q 1275 1403 1131 1340 
Q 988 1278 909 1158 
Q 831 1038 831 891 
Q 831 666 1001 516 
Q 1172 366 1500 366 
Q 1825 366 2078 508 
Q 2331 650 2450 897 
Q 2541 1088 2541 1459 
L 2541 1666 
z
" transform="scale(0.015625)"/>
       <path id="ArialMT-74" d="M 1650 503 
L 1731 6 
Q 1494 -44 1306 -44 
Q 1000 -44 831 53 
Q 663 150 594 308 
Q 525 466 525 972 
L 525 2881 
L 113 2881 
L 113 3319 
L 525 3319 
L 525 4141 
L 1084 4478 
L 1084 3319 
L 1650 3319 
L 1650 2881 
L 1084 2881 
L 1084 941 
Q 1084 700 1114 631 
Q 1144 563 1211 522 
Q 1278 481 1403 481 
Q 1497 481 1650 503 
z
" transform="scale(0.015625)"/>
       <path id="ArialMT-69" d="M 425 3934 
L 425 4581 
L 988 4581 
L 988 3934 
L 425 3934 
z
M 425 0 
L 425 3319 
L 988 3319 
L 988 0 
L 425 0 
z
" transform="scale(0.015625)"/>
       <path id="ArialMT-65" d="M 2694 1069 
L 3275 997 
Q 3138 488 2766 206 
Q 2394 -75 1816 -75 
Q 1088 -75 661 373 
Q 234 822 234 1631 
Q 234 2469 665 2931 
Q 1097 3394 1784 3394 
Q 2450 3394 2872 2941 
Q 3294 2488 3294 1666 
Q 3294 1616 3291 1516 
L 816 1516 
Q 847 969 1125 678 
Q 1403 388 1819 388 
Q 2128 388 2347 550 
Q 2566 713 2694 1069 
z
M 847 1978 
L 2700 1978 
Q 2663 2397 2488 2606 
Q 2219 2931 1791 2931 
Q 1403 2931 1139 2672 
Q 875 2413 847 1978 
z
" transform="scale(0.015625)"/>
       <path id="ArialMT-6e" d="M 422 0 
L 422 3319 
L 928 3319 
L 928 2847 
Q 1294 3394 1984 3394 
Q 2284 3394 2536 3286 
Q 2788 3178 2913 3003 
Q 3038 2828 3088 2588 
Q 3119 2431 3119 2041 
L 3119 0 
L 2556 0 
L 2556 2019 
Q 2556 2363 2490 2533 
Q 2425 2703 2258 2804 
Q 2091 2906 1866 2906 
Q 1506 2906 1245 2678 
Q 984 2450 984 1813 
L 984 0 
L 422 0 
z
" transform="scale(0.015625)"/>
      </defs>
      <use xlink:href="#ArialMT-50"/>
      <use xlink:href="#ArialMT-61" x="66.699219"/>
      <use xlink:href="#ArialMT-74" x="122.314453"/>
      <use xlink:href="#ArialMT-69" x="150.097656"/>
      <use xlink:href="#ArialMT-65" x="172.314453"/>
      <use xlink:href="#ArialMT-6e" x="227.929688"/>
      <use xlink:href="#ArialMT-74" x="283.544922"/>
     </g>
    </g>
   </g>
   <g id="matplotlib.axis_2">
    <g id="ytick_1">
     <g id="text_9">
      <!-- 20 -->
      <g style="fill: #444444" transform="translate(27.710313 184.921452)scale(0.09 -0.09)">
       <defs>
        <path id="ArialMT-30" d="M 266 2259 
Q 266 3072 433 3567 
Q 600 4063 929 4331 
Q 1259 4600 1759 4600 
Q 2128 4600 2406 4451 
Q 2684 4303 2865 4023 
Q 3047 3744 3150 3342 
Q 3253 2941 3253 2259 
Q 3253 1453 3087 958 
Q 2922 463 2592 192 
Q 2263 -78 1759 -78 
Q 1097 -78 719 397 
Q 266 969 266 2259 
z
M 844 2259 
Q 844 1131 1108 757 
Q 1372 384 1759 384 
Q 2147 384 2411 759 
Q 2675 1134 2675 2259 
Q 2675 3391 2411 3762 
Q 2147 4134 1753 4134 
Q 1366 4134 1134 3806 
Q 844 3388 844 2259 
z
" transform="scale(0.015625)"/>
       </defs>
       <use xlink:href="#ArialMT-32"/>
       <use xlink:href="#ArialMT-30" x="55.615234"/>
      </g>
     </g>
    </g>
    <g id="ytick_2">
     <g id="text_10">
      <!-- 40 -->
      <g style="fill: #444444" transform="translate(27.710313 151.903032)scale(0.09 -0.09)">
       <use xlink:href="#ArialMT-34"/>
       <use xlink:href="#ArialMT-30" x="55.615234"/>
      </g>
     </g>
    </g>
    <g id="ytick_3">
     <g id="text_11">
      <!-- 60 -->
      <g style="fill: #444444" transform="translate(27.710313 118.884612)scale(0.09 -0.09)">
       <use xlink:href="#ArialMT-36"/>
       <use xlink:href="#ArialMT-30" x="55.615234"/>
      </g>
     </g>
    </g>
    <g id="ytick_4">
     <g id="text_12">
      <!-- 80 -->
      <g style="fill: #444444" transform="translate(27.710313 85.866193)scale(0.09 -0.09)">
       <defs>
        <path id="ArialMT-38" d="M 1131 2484 
Q 781 2613 612 2850 
Q 444 3088 444 3419 
Q 444 3919 803 4259 
Q 1163 4600 1759 4600 
Q 2359 4600 2725 4251 
Q 3091 3903 3091 3403 
Q 3091 3084 2923 2848 
Q 2756 2613 2416 2484 
Q 2838 2347 3058 2040 
Q 3278 1734 3278 1309 
Q 3278 722 2862 322 
Q 2447 -78 1769 -78 
Q 1091 -78 675 323 
Q 259 725 259 1325 
Q 259 1772 486 2073 
Q 713 2375 1131 2484 
z
M 1019 3438 
Q 1019 3113 1228 2906 
Q 1438 2700 1772 2700 
Q 2097 2700 2305 2904 
Q 2513 3109 2513 3406 
Q 2513 3716 2298 3927 
Q 2084 4138 1766 4138 
Q 1444 4138 1231 3931 
Q 1019 3725 1019 3438 
z
M 838 1322 
Q 838 1081 952 856 
Q 1066 631 1291 507 
Q 1516 384 1775 384 
Q 2178 384 2440 643 
Q 2703 903 2703 1303 
Q 2703 1709 2433 1975 
Q 2163 2241 1756 2241 
Q 1359 2241 1098 1978 
Q 838 1716 838 1322 
z
" transform="scale(0.015625)"/>
       </defs>
       <use xlink:href="#ArialMT-38"/>
       <use xlink:href="#ArialMT-30" x="55.615234"/>
      </g>
     </g>
    </g>
    <g id="ytick_5">
     <g id="text_13">
      <!-- 100 -->
      <g style="fill: #444444" transform="translate(22.705469 52.847773)scale(0.09 -0.09)">
       <use xlink:href="#ArialMT-31"/>
       <use xlink:href="#ArialMT-30" x="55.615234"/>
       <use xlink:href="#ArialMT-30" x="111.230469"/>
      </g>
     </g>
    </g>
    <g id="text_14">
     <!-- Trimmed Means of M values (TMM) -->
     <g style="fill: #444444" transform="translate(16.81125 190.194993)rotate(-90)scale(0.09 -0.09)">
      <defs>
       <path id="ArialMT-54" d="M 1659 0 
L 1659 4041 
L 150 4041 
L 150 4581 
L 3781 4581 
L 3781 4041 
L 2266 4041 
L 2266 0 
L 1659 0 
z
" transform="scale(0.015625)"/>
       <path id="ArialMT-72" d="M 416 0 
L 416 3319 
L 922 3319 
L 922 2816 
Q 1116 3169 1280 3281 
Q 1444 3394 1641 3394 
Q 1925 3394 2219 3213 
L 2025 2691 
Q 1819 2813 1613 2813 
Q 1428 2813 1281 2702 
Q 1134 2591 1072 2394 
Q 978 2094 978 1738 
L 978 0 
L 416 0 
z
" transform="scale(0.015625)"/>
       <path id="ArialMT-6d" d="M 422 0 
L 422 3319 
L 925 3319 
L 925 2853 
Q 1081 3097 1340 3245 
Q 1600 3394 1931 3394 
Q 2300 3394 2536 3241 
Q 2772 3088 2869 2813 
Q 3263 3394 3894 3394 
Q 4388 3394 4653 3120 
Q 4919 2847 4919 2278 
L 4919 0 
L 4359 0 
L 4359 2091 
Q 4359 2428 4304 2576 
Q 4250 2725 4106 2815 
Q 3963 2906 3769 2906 
Q 3419 2906 3187 2673 
Q 2956 2441 2956 1928 
L 2956 0 
L 2394 0 
L 2394 2156 
Q 2394 2531 2256 2718 
Q 2119 2906 1806 2906 
Q 1569 2906 1367 2781 
Q 1166 2656 1075 2415 
Q 984 2175 984 1722 
L 984 0 
L 422 0 
z
" transform="scale(0.015625)"/>
       <path id="ArialMT-64" d="M 2575 0 
L 2575 419 
Q 2259 -75 1647 -75 
Q 1250 -75 917 144 
Q 584 363 401 755 
Q 219 1147 219 1656 
Q 219 2153 384 2558 
Q 550 2963 881 3178 
Q 1213 3394 1622 3394 
Q 1922 3394 2156 3267 
Q 2391 3141 2538 2938 
L 2538 4581 
L 3097 4581 
L 3097 0 
L 2575 0 
z
M 797 1656 
Q 797 1019 1065 703 
Q 1334 388 1700 388 
Q 2069 388 2326 689 
Q 2584 991 2584 1609 
Q 2584 2291 2321 2609 
Q 2059 2928 1675 2928 
Q 1300 2928 1048 2622 
Q 797 2316 797 1656 
z
" transform="scale(0.015625)"/>
       <path id="ArialMT-20" transform="scale(0.015625)"/>
       <path id="ArialMT-4d" d="M 475 0 
L 475 4581 
L 1388 4581 
L 2472 1338 
Q 2622 884 2691 659 
Q 2769 909 2934 1394 
L 4031 4581 
L 4847 4581 
L 4847 0 
L 4263 0 
L 4263 3834 
L 2931 0 
L 2384 0 
L 1059 3900 
L 1059 0 
L 475 0 
z
" transform="scale(0.015625)"/>
       <path id="ArialMT-73" d="M 197 991 
L 753 1078 
Q 800 744 1014 566 
Q 1228 388 1613 388 
Q 2000 388 2187 545 
Q 2375 703 2375 916 
Q 2375 1106 2209 1216 
Q 2094 1291 1634 1406 
Q 1016 1563 777 1677 
Q 538 1791 414 1992 
Q 291 2194 291 2438 
Q 291 2659 392 2848 
Q 494 3038 669 3163 
Q 800 3259 1026 3326 
Q 1253 3394 1513 3394 
Q 1903 3394 2198 3281 
Q 2494 3169 2634 2976 
Q 2775 2784 2828 2463 
L 2278 2388 
Q 2241 2644 2061 2787 
Q 1881 2931 1553 2931 
Q 1166 2931 1000 2803 
Q 834 2675 834 2503 
Q 834 2394 903 2306 
Q 972 2216 1119 2156 
Q 1203 2125 1616 2013 
Q 2213 1853 2448 1751 
Q 2684 1650 2818 1456 
Q 2953 1263 2953 975 
Q 2953 694 2789 445 
Q 2625 197 2315 61 
Q 2006 -75 1616 -75 
Q 969 -75 630 194 
Q 291 463 197 991 
z
" transform="scale(0.015625)"/>
       <path id="ArialMT-6f" d="M 213 1659 
Q 213 2581 725 3025 
Q 1153 3394 1769 3394 
Q 2453 3394 2887 2945 
Q 3322 2497 3322 1706 
Q 3322 1066 3130 698 
Q 2938 331 2570 128 
Q 2203 -75 1769 -75 
Q 1072 -75 642 372 
Q 213 819 213 1659 
z
M 791 1659 
Q 791 1022 1069 705 
Q 1347 388 1769 388 
Q 2188 388 2466 706 
Q 2744 1025 2744 1678 
Q 2744 2294 2464 2611 
Q 2184 2928 1769 2928 
Q 1347 2928 1069 2612 
Q 791 2297 791 1659 
z
" transform="scale(0.015625)"/>
       <path id="ArialMT-66" d="M 556 0 
L 556 2881 
L 59 2881 
L 59 3319 
L 556 3319 
L 556 3672 
Q 556 4006 616 4169 
Q 697 4388 901 4523 
Q 1106 4659 1475 4659 
Q 1713 4659 2000 4603 
L 1916 4113 
Q 1741 4144 1584 4144 
Q 1328 4144 1222 4034 
Q 1116 3925 1116 3625 
L 1116 3319 
L 1763 3319 
L 1763 2881 
L 1116 2881 
L 1116 0 
L 556 0 
z
" transform="scale(0.015625)"/>
       <path id="ArialMT-76" d="M 1344 0 
L 81 3319 
L 675 3319 
L 1388 1331 
Q 1503 1009 1600 663 
Q 1675 925 1809 1294 
L 2547 3319 
L 3125 3319 
L 1869 0 
L 1344 0 
z
" transform="scale(0.015625)"/>
       <path id="ArialMT-6c" d="M 409 0 
L 409 4581 
L 972 4581 
L 972 0 
L 409 0 
z
" transform="scale(0.015625)"/>
       <path id="ArialMT-75" d="M 2597 0 
L 2597 488 
Q 2209 -75 1544 -75 
Q 1250 -75 995 37 
Q 741 150 617 320 
Q 494 491 444 738 
Q 409 903 409 1263 
L 409 3319 
L 972 3319 
L 972 1478 
Q 972 1038 1006 884 
Q 1059 663 1231 536 
Q 1403 409 1656 409 
Q 1909 409 2131 539 
Q 2353 669 2445 892 
Q 2538 1116 2538 1541 
L 2538 3319 
L 3100 3319 
L 3100 0 
L 2597 0 
z
" transform="scale(0.015625)"/>
       <path id="ArialMT-28" d="M 1497 -1347 
Q 1031 -759 709 28 
Q 388 816 388 1659 
Q 388 2403 628 3084 
Q 909 3875 1497 4659 
L 1900 4659 
Q 1522 4009 1400 3731 
Q 1209 3300 1100 2831 
Q 966 2247 966 1656 
Q 966 153 1900 -1347 
L 1497 -1347 
z
" transform="scale(0.015625)"/>
       <path id="ArialMT-29" d="M 791 -1347 
L 388 -1347 
Q 1322 153 1322 1656 
Q 1322 2244 1188 2822 
Q 1081 3291 891 3722 
Q 769 4003 388 4659 
L 791 4659 
Q 1378 3875 1659 3084 
Q 1900 2403 1900 1659 
Q 1900 816 1576 28 
Q 1253 -759 791 -1347 
z
" transform="scale(0.015625)"/>
      </defs>
      <use xlink:href="#ArialMT-54"/>
      <use xlink:href="#ArialMT-72" x="57.333984"/>
      <use xlink:href="#ArialMT-69" x="90.634766"/>
      <use xlink:href="#ArialMT-6d" x="112.851562"/>
      <use xlink:href="#ArialMT-6d" x="196.152344"/>
      <use xlink:href="#ArialMT-65" x="279.453125"/>
      <use xlink:href="#ArialMT-64" x="335.068359"/>
      <use xlink:href="#ArialMT-20" x="390.683594"/>
      <use xlink:href="#ArialMT-4d" x="418.466797"/>
      <use xlink:href="#ArialMT-65" x="501.767578"/>
      <use xlink:href="#ArialMT-61" x="557.382812"/>
      <use xlink:href="#ArialMT-6e" x="612.998047"/>
      <use xlink:href="#ArialMT-73" x="668.613281"/>
      <use xlink:href="#ArialMT-20" x="718.613281"/>
      <use xlink:href="#ArialMT-6f" x="746.396484"/>
      <use xlink:href="#ArialMT-66" x="802.011719"/>
      <use xlink:href="#ArialMT-20" x="829.794922"/>
      <use xlink:href="#ArialMT-4d" x="857.578125"/>
      <use xlink:href="#ArialMT-20" x="940.878906"/>
      <use xlink:href="#ArialMT-76" x="968.662109"/>
      <use xlink:href="#ArialMT-61" x="1018.662109"/>
      <use xlink:href="#ArialMT-6c" x="1074.277344"/>
      <use xlink:href="#ArialMT-75" x="1096.494141"/>
      <use xlink:href="#ArialMT-65" x="1152.109375"/>
      <use xlink:href="#ArialMT-73" x="1207.724609"/>
      <use xlink:href="#ArialMT-20" x="1257.724609"/>
      <use xlink:href="#ArialMT-28" x="1285.507812"/>
      <use xlink:href="#ArialMT-54" x="1318.808594"/>
      <use xlink:href="#ArialMT-4d" x="1379.892578"/>
      <use xlink:href="#ArialMT-4d" x="1463.193359"/>
      <use xlink:href="#ArialMT-29" x="1546.494141"/>
     </g>
    </g>
   </g>
   <g id="PolyCollection_1">
    <defs>
     <path id="m59f918a2df" d="M 81.855927 -76.810309 
L 77.340676 -76.810309 
L 77.269324 -77.306112 
L 77.196924 -77.801916 
L 77.123432 -78.29772 
L 77.048802 -78.793524 
L 76.972994 -79.289328 
L 76.895967 -79.785132 
L 76.817687 -80.280935 
L 76.738126 -80.776739 
L 76.657265 -81.272543 
L 76.575092 -81.768347 
L 76.491608 -82.264151 
L 76.406826 -82.759955 
L 76.32077 -83.255758 
L 76.233481 -83.751562 
L 76.145014 -84.247366 
L 76.055439 -84.74317 
L 75.964843 -85.238974 
L 75.87333 -85.734778 
L 75.781021 -86.230581 
L 75.688054 -86.726385 
L 75.594581 -87.222189 
L 75.500772 -87.717993 
L 75.406812 -88.213797 
L 75.312898 -88.709601 
L 75.219243 -89.205404 
L 75.12607 -89.701208 
L 75.03361 -90.197012 
L 74.942108 -90.692816 
L 74.851809 -91.18862 
L 74.762969 -91.684424 
L 74.675843 -92.180227 
L 74.59069 -92.676031 
L 74.507764 -93.171835 
L 74.427321 -93.667639 
L 74.349609 -94.163443 
L 74.274869 -94.659247 
L 74.203335 -95.15505 
L 74.135229 -95.650854 
L 74.070759 -96.146658 
L 74.010123 -96.642462 
L 73.953499 -97.138266 
L 73.901051 -97.63407 
L 73.852924 -98.129874 
L 73.809241 -98.625677 
L 73.770108 -99.121481 
L 73.735608 -99.617285 
L 73.705804 -100.113089 
L 73.680734 -100.608893 
L 73.660415 -101.104697 
L 73.644843 -101.6005 
L 73.63399 -102.096304 
L 73.627806 -102.592108 
L 73.626222 -103.087912 
L 73.629145 -103.583716 
L 73.636466 -104.07952 
L 73.648055 -104.575323 
L 73.663766 -105.071127 
L 73.683438 -105.566931 
L 73.706895 -106.062735 
L 73.733949 -106.558539 
L 73.764401 -107.054343 
L 73.798047 -107.550146 
L 73.834674 -108.04595 
L 73.874065 -108.541754 
L 73.916003 -109.037558 
L 73.960272 -109.533362 
L 74.006657 -110.029166 
L 74.05495 -110.524969 
L 74.104948 -111.020773 
L 74.156462 -111.516577 
L 74.209309 -112.012381 
L 74.263323 -112.508185 
L 74.31835 -113.003989 
L 74.374256 -113.499792 
L 74.43092 -113.995596 
L 74.488242 -114.4914 
L 74.546141 -114.987204 
L 74.604554 -115.483008 
L 74.663439 -115.978812 
L 74.722772 -116.474615 
L 74.782548 -116.970419 
L 74.84278 -117.466223 
L 74.903498 -117.962027 
L 74.964748 -118.457831 
L 75.026589 -118.953635 
L 75.089092 -119.449438 
L 75.152339 -119.945242 
L 75.216418 -120.441046 
L 75.281424 -120.93685 
L 75.347455 -121.432654 
L 75.414609 -121.928458 
L 75.482982 -122.424261 
L 75.552667 -122.920065 
L 75.623749 -123.415869 
L 75.696305 -123.911673 
L 75.770399 -124.407477 
L 75.846085 -124.903281 
L 75.923399 -125.399084 
L 76.002364 -125.894888 
L 83.194239 -125.894888 
L 83.194239 -125.894888 
L 83.273204 -125.399084 
L 83.350518 -124.903281 
L 83.426204 -124.407477 
L 83.500298 -123.911673 
L 83.572854 -123.415869 
L 83.643936 -122.920065 
L 83.713621 -122.424261 
L 83.781994 -121.928458 
L 83.849148 -121.432654 
L 83.915179 -120.93685 
L 83.980185 -120.441046 
L 84.044264 -119.945242 
L 84.107511 -119.449438 
L 84.170014 -118.953635 
L 84.231855 -118.457831 
L 84.293105 -117.962027 
L 84.353823 -117.466223 
L 84.414055 -116.970419 
L 84.473831 -116.474615 
L 84.533164 -115.978812 
L 84.592049 -115.483008 
L 84.650462 -114.987204 
L 84.708361 -114.4914 
L 84.765683 -113.995596 
L 84.822347 -113.499792 
L 84.878253 -113.003989 
L 84.93328 -112.508185 
L 84.987294 -112.012381 
L 85.040141 -111.516577 
L 85.091654 -111.020773 
L 85.141653 -110.524969 
L 85.189946 -110.029166 
L 85.236331 -109.533362 
L 85.2806 -109.037558 
L 85.322538 -108.541754 
L 85.361929 -108.04595 
L 85.398556 -107.550146 
L 85.432202 -107.054343 
L 85.462654 -106.558539 
L 85.489708 -106.062735 
L 85.513165 -105.566931 
L 85.532836 -105.071127 
L 85.548548 -104.575323 
L 85.560137 -104.07952 
L 85.567458 -103.583716 
L 85.570381 -103.087912 
L 85.568797 -102.592108 
L 85.562613 -102.096304 
L 85.55176 -101.6005 
L 85.536188 -101.104697 
L 85.515869 -100.608893 
L 85.490799 -100.113089 
L 85.460994 -99.617285 
L 85.426495 -99.121481 
L 85.387362 -98.625677 
L 85.343679 -98.129874 
L 85.295552 -97.63407 
L 85.243104 -97.138266 
L 85.18648 -96.642462 
L 85.125844 -96.146658 
L 85.061374 -95.650854 
L 84.993268 -95.15505 
L 84.921733 -94.659247 
L 84.846994 -94.163443 
L 84.769282 -93.667639 
L 84.688839 -93.171835 
L 84.605913 -92.676031 
L 84.52076 -92.180227 
L 84.433634 -91.684424 
L 84.344794 -91.18862 
L 84.254495 -90.692816 
L 84.162992 -90.197012 
L 84.070533 -89.701208 
L 83.97736 -89.205404 
L 83.883705 -88.709601 
L 83.789791 -88.213797 
L 83.695831 -87.717993 
L 83.602022 -87.222189 
L 83.508549 -86.726385 
L 83.415582 -86.230581 
L 83.323273 -85.734778 
L 83.23176 -85.238974 
L 83.141164 -84.74317 
L 83.051589 -84.247366 
L 82.963121 -83.751562 
L 82.875832 -83.255758 
L 82.789777 -82.759955 
L 82.704995 -82.264151 
L 82.621511 -81.768347 
L 82.539338 -81.272543 
L 82.458477 -80.776739 
L 82.378916 -80.280935 
L 82.300636 -79.785132 
L 82.223609 -79.289328 
L 82.1478 -78.793524 
L 82.073171 -78.29772 
L 81.999679 -77.801916 
L 81.927279 -77.306112 
L 81.855927 -76.810309 
z
" style="stroke: #999999; stroke-width: 2"/>
    </defs>
    <g clip-path="url(#pe6080db21a)">
     <use xlink:href="#m59f918a2df" x="0" y="255.11811" style="fill: #ffffff; stroke: #999999; stroke-width: 2"/>
    </g>
   </g>
   <g id="PolyCollection_2">
    <defs>
     <path id="m15d114baec" d="M 156.482469 -49.837187 
L 132.22734 -49.837187 
L 131.919118 -50.041837 
L 131.622643 -50.246487 
L 131.339054 -50.451138 
L 131.069443 -50.655788 
L 130.814846 -50.860438 
L 130.576235 -51.065088 
L 130.354512 -51.269739 
L 130.150494 -51.474389 
L 129.964913 -51.679039 
L 129.798408 -51.883689 
L 129.651514 -52.08834 
L 129.524662 -52.29299 
L 129.418174 -52.49764 
L 129.332255 -52.70229 
L 129.266999 -52.906941 
L 129.222377 -53.111591 
L 129.198248 -53.316241 
L 129.194349 -53.520891 
L 129.210305 -53.725542 
L 129.245629 -53.930192 
L 129.299724 -54.134842 
L 129.371892 -54.339492 
L 129.461336 -54.544143 
L 129.567169 -54.748793 
L 129.688424 -54.953443 
L 129.824056 -55.158093 
L 129.97296 -55.362744 
L 130.133971 -55.567394 
L 130.305883 -55.772044 
L 130.487454 -55.976694 
L 130.677418 -56.181345 
L 130.874497 -56.385995 
L 131.077411 -56.590645 
L 131.284888 -56.795295 
L 131.495676 -56.999946 
L 131.708551 -57.204596 
L 131.92233 -57.409246 
L 132.135874 -57.613896 
L 132.348103 -57.818547 
L 132.557999 -58.023197 
L 132.764614 -58.227847 
L 132.967077 -58.432497 
L 133.164597 -58.637148 
L 133.356468 -58.841798 
L 133.542073 -59.046448 
L 133.720883 -59.251098 
L 133.892462 -59.455749 
L 134.056462 -59.660399 
L 134.212629 -59.865049 
L 134.360795 -60.069699 
L 134.500878 -60.27435 
L 134.63288 -60.479 
L 134.756881 -60.68365 
L 134.873034 -60.888301 
L 134.981563 -61.092951 
L 135.082753 -61.297601 
L 135.176949 -61.502251 
L 135.264546 -61.706902 
L 135.345982 -61.911552 
L 135.421736 -62.116202 
L 135.492317 -62.320852 
L 135.55826 -62.525503 
L 135.620116 -62.730153 
L 135.678453 -62.934803 
L 135.733841 -63.139453 
L 135.786853 -63.344104 
L 135.838059 -63.548754 
L 135.888017 -63.753404 
L 135.937272 -63.958054 
L 135.986352 -64.162705 
L 136.035762 -64.367355 
L 136.085984 -64.572005 
L 136.137472 -64.776655 
L 136.190649 -64.981306 
L 136.245909 -65.185956 
L 136.303612 -65.390606 
L 136.364085 -65.595256 
L 136.42762 -65.799907 
L 136.494475 -66.004557 
L 136.564873 -66.209207 
L 136.639003 -66.413857 
L 136.717021 -66.618508 
L 136.799049 -66.823158 
L 136.885179 -67.027808 
L 136.975471 -67.232458 
L 137.069954 -67.437109 
L 137.168632 -67.641759 
L 137.27148 -67.846409 
L 137.378449 -68.051059 
L 137.489463 -68.25571 
L 137.604427 -68.46036 
L 137.723223 -68.66501 
L 137.845714 -68.86966 
L 137.971744 -69.074311 
L 138.101141 -69.278961 
L 138.233715 -69.483611 
L 138.369266 -69.688261 
L 138.507577 -69.892912 
L 138.648421 -70.097562 
L 150.061388 -70.097562 
L 150.061388 -70.097562 
L 150.202232 -69.892912 
L 150.340543 -69.688261 
L 150.476093 -69.483611 
L 150.608668 -69.278961 
L 150.738065 -69.074311 
L 150.864095 -68.86966 
L 150.986586 -68.66501 
L 151.105382 -68.46036 
L 151.220346 -68.25571 
L 151.33136 -68.051059 
L 151.438328 -67.846409 
L 151.541176 -67.641759 
L 151.639855 -67.437109 
L 151.734338 -67.232458 
L 151.82463 -67.027808 
L 151.910759 -66.823158 
L 151.992788 -66.618508 
L 152.070806 -66.413857 
L 152.144936 -66.209207 
L 152.215334 -66.004557 
L 152.282189 -65.799907 
L 152.345724 -65.595256 
L 152.406197 -65.390606 
L 152.4639 -65.185956 
L 152.51916 -64.981306 
L 152.572337 -64.776655 
L 152.623825 -64.572005 
L 152.674047 -64.367355 
L 152.723457 -64.162705 
L 152.772537 -63.958054 
L 152.821792 -63.753404 
L 152.87175 -63.548754 
L 152.922955 -63.344104 
L 152.975968 -63.139453 
L 153.031356 -62.934803 
L 153.089693 -62.730153 
L 153.151549 -62.525503 
L 153.217491 -62.320852 
L 153.288072 -62.116202 
L 153.363826 -61.911552 
L 153.445263 -61.706902 
L 153.532859 -61.502251 
L 153.627056 -61.297601 
L 153.728246 -61.092951 
L 153.836775 -60.888301 
L 153.952928 -60.68365 
L 154.076928 -60.479 
L 154.20893 -60.27435 
L 154.349014 -60.069699 
L 154.497179 -59.865049 
L 154.653346 -59.660399 
L 154.817347 -59.455749 
L 154.988925 -59.251098 
L 155.167736 -59.046448 
L 155.35334 -58.841798 
L 155.545212 -58.637148 
L 155.742732 -58.432497 
L 155.945195 -58.227847 
L 156.15181 -58.023197 
L 156.361706 -57.818547 
L 156.573935 -57.613896 
L 156.787479 -57.409246 
L 157.001258 -57.204596 
L 157.214133 -56.999946 
L 157.424921 -56.795295 
L 157.632398 -56.590645 
L 157.835312 -56.385995 
L 158.032391 -56.181345 
L 158.222355 -55.976694 
L 158.403926 -55.772044 
L 158.575838 -55.567394 
L 158.736849 -55.362744 
L 158.885752 -55.158093 
L 159.021385 -54.953443 
L 159.14264 -54.748793 
L 159.248473 -54.544143 
L 159.337917 -54.339492 
L 159.410085 -54.134842 
L 159.46418 -53.930192 
L 159.499504 -53.725542 
L 159.51546 -53.520891 
L 159.511561 -53.316241 
L 159.487432 -53.111591 
L 159.44281 -52.906941 
L 159.377553 -52.70229 
L 159.291635 -52.49764 
L 159.185147 -52.29299 
L 159.058295 -52.08834 
L 158.911401 -51.883689 
L 158.744895 -51.679039 
L 158.559315 -51.474389 
L 158.355297 -51.269739 
L 158.133573 -51.065088 
L 157.894963 -50.860438 
L 157.640366 -50.655788 
L 157.370755 -50.451138 
L 157.087166 -50.246487 
L 156.790691 -50.041837 
L 156.482469 -49.837187 
z
" style="stroke: #999999; stroke-width: 2"/>
    </defs>
    <g clip-path="url(#pe6080db21a)">
     <use xlink:href="#m15d114baec" x="0" y="255.11811" style="fill: #ffffff; stroke: #999999; stroke-width: 2"/>
    </g>
   </g>
   <g id="PolyCollection_3">
    <defs>
     <path id="mb6ee712783" d="M 212.560898 -109.508882 
L 205.662117 -109.508882 
L 205.57751 -110.146729 
L 205.495416 -110.784575 
L 205.415997 -111.422422 
L 205.339403 -112.060269 
L 205.265763 -112.698115 
L 205.195193 -113.335962 
L 205.127791 -113.973809 
L 205.063639 -114.611655 
L 205.002798 -115.249502 
L 204.945318 -115.887349 
L 204.89123 -116.525195 
L 204.840548 -117.163042 
L 204.793274 -117.800888 
L 204.749394 -118.438735 
L 204.708883 -119.076582 
L 204.671704 -119.714428 
L 204.637807 -120.352275 
L 204.607136 -120.990122 
L 204.579626 -121.627968 
L 204.555206 -122.265815 
L 204.533798 -122.903662 
L 204.515324 -123.541508 
L 204.4997 -124.179355 
L 204.486843 -124.817202 
L 204.47667 -125.455048 
L 204.4691 -126.092895 
L 204.464055 -126.730742 
L 204.461457 -127.368588 
L 204.461237 -128.006435 
L 204.463329 -128.644281 
L 204.467671 -129.282128 
L 204.474211 -129.919975 
L 204.4829 -130.557821 
L 204.493698 -131.195668 
L 204.506568 -131.833515 
L 204.521484 -132.471361 
L 204.538422 -133.109208 
L 204.557365 -133.747055 
L 204.578303 -134.384901 
L 204.601227 -135.022748 
L 204.626133 -135.660595 
L 204.65302 -136.298441 
L 204.681888 -136.936288 
L 204.712738 -137.574135 
L 204.745569 -138.211981 
L 204.780381 -138.849828 
L 204.817169 -139.487675 
L 204.855926 -140.125521 
L 204.896638 -140.763368 
L 204.939288 -141.401214 
L 204.98385 -142.039061 
L 205.030291 -142.676908 
L 205.07857 -143.314754 
L 205.128638 -143.952601 
L 205.180435 -144.590448 
L 205.233893 -145.228294 
L 205.288933 -145.866141 
L 205.345467 -146.503988 
L 205.403397 -147.141834 
L 205.462617 -147.779681 
L 205.523011 -148.417528 
L 205.584456 -149.055374 
L 205.646823 -149.693221 
L 205.709974 -150.331068 
L 205.773768 -150.968914 
L 205.838062 -151.606761 
L 205.902706 -152.244607 
L 205.967554 -152.882454 
L 206.032458 -153.520301 
L 206.097271 -154.158147 
L 206.161852 -154.795994 
L 206.226063 -155.433841 
L 206.289773 -156.071687 
L 206.352858 -156.709534 
L 206.415203 -157.347381 
L 206.476705 -157.985227 
L 206.53727 -158.623074 
L 206.596814 -159.260921 
L 206.655271 -159.898767 
L 206.712582 -160.536614 
L 206.768704 -161.174461 
L 206.823609 -161.812307 
L 206.87728 -162.450154 
L 206.929714 -163.088 
L 206.98092 -163.725847 
L 207.030919 -164.363694 
L 207.079744 -165.00154 
L 207.127439 -165.639387 
L 207.174055 -166.277234 
L 207.219652 -166.91508 
L 207.264297 -167.552927 
L 207.308063 -168.190774 
L 207.351025 -168.82862 
L 207.393262 -169.466467 
L 207.434853 -170.104314 
L 207.475879 -170.74216 
L 207.516416 -171.380007 
L 207.556541 -172.017854 
L 207.596322 -172.6557 
L 210.626692 -172.6557 
L 210.626692 -172.6557 
L 210.666474 -172.017854 
L 210.706598 -171.380007 
L 210.747136 -170.74216 
L 210.788162 -170.104314 
L 210.829753 -169.466467 
L 210.87199 -168.82862 
L 210.914952 -168.190774 
L 210.958717 -167.552927 
L 211.003363 -166.91508 
L 211.04896 -166.277234 
L 211.095576 -165.639387 
L 211.14327 -165.00154 
L 211.192096 -164.363694 
L 211.242095 -163.725847 
L 211.293301 -163.088 
L 211.345734 -162.450154 
L 211.399405 -161.812307 
L 211.45431 -161.174461 
L 211.510433 -160.536614 
L 211.567744 -159.898767 
L 211.6262 -159.260921 
L 211.685745 -158.623074 
L 211.746309 -157.985227 
L 211.807811 -157.347381 
L 211.870157 -156.709534 
L 211.933242 -156.071687 
L 211.996952 -155.433841 
L 212.061163 -154.795994 
L 212.125743 -154.158147 
L 212.190557 -153.520301 
L 212.25546 -152.882454 
L 212.320308 -152.244607 
L 212.384953 -151.606761 
L 212.449246 -150.968914 
L 212.513041 -150.331068 
L 212.576192 -149.693221 
L 212.638558 -149.055374 
L 212.700004 -148.417528 
L 212.760398 -147.779681 
L 212.819618 -147.141834 
L 212.877548 -146.503988 
L 212.934082 -145.866141 
L 212.989122 -145.228294 
L 213.042579 -144.590448 
L 213.094376 -143.952601 
L 213.144444 -143.314754 
L 213.192724 -142.676908 
L 213.239165 -142.039061 
L 213.283727 -141.401214 
L 213.326376 -140.763368 
L 213.367089 -140.125521 
L 213.405845 -139.487675 
L 213.442634 -138.849828 
L 213.477445 -138.211981 
L 213.510277 -137.574135 
L 213.541126 -136.936288 
L 213.569994 -136.298441 
L 213.596881 -135.660595 
L 213.621788 -135.022748 
L 213.644712 -134.384901 
L 213.665649 -133.747055 
L 213.684593 -133.109208 
L 213.701531 -132.471361 
L 213.716446 -131.833515 
L 213.729317 -131.195668 
L 213.740114 -130.557821 
L 213.748803 -129.919975 
L 213.755343 -129.282128 
L 213.759686 -128.644281 
L 213.761777 -128.006435 
L 213.761557 -127.368588 
L 213.75896 -126.730742 
L 213.753914 -126.092895 
L 213.746344 -125.455048 
L 213.736172 -124.817202 
L 213.723315 -124.179355 
L 213.707691 -123.541508 
L 213.689216 -122.903662 
L 213.667809 -122.265815 
L 213.643388 -121.627968 
L 213.615878 -120.990122 
L 213.585208 -120.352275 
L 213.551311 -119.714428 
L 213.514131 -119.076582 
L 213.47362 -118.438735 
L 213.429741 -117.800888 
L 213.382467 -117.163042 
L 213.331785 -116.525195 
L 213.277696 -115.887349 
L 213.220216 -115.249502 
L 213.159376 -114.611655 
L 213.095223 -113.973809 
L 213.027821 -113.335962 
L 212.957252 -112.698115 
L 212.883612 -112.060269 
L 212.807017 -111.422422 
L 212.727599 -110.784575 
L 212.645504 -110.146729 
L 212.560898 -109.508882 
z
" style="stroke: #999999; stroke-width: 2"/>
    </defs>
    <g clip-path="url(#pe6080db21a)">
     <use xlink:href="#mb6ee712783" x="0" y="255.11811" style="fill: #ffffff; stroke: #999999; stroke-width: 2"/>
    </g>
   </g>
   <g id="PolyCollection_4">
    <defs>
     <path id="m098523261c" d="M 275.761181 -106.41812 
L 271.975039 -106.41812 
L 271.928301 -107.587441 
L 271.883139 -108.756762 
L 271.839672 -109.926083 
L 271.798014 -111.095405 
L 271.75827 -112.264726 
L 271.720537 -113.434047 
L 271.684903 -114.603368 
L 271.651444 -115.77269 
L 271.62023 -116.942011 
L 271.591318 -118.111332 
L 271.564756 -119.280653 
L 271.540582 -120.449975 
L 271.518821 -121.619296 
L 271.499491 -122.788617 
L 271.482597 -123.957938 
L 271.468135 -125.12726 
L 271.45609 -126.296581 
L 271.446437 -127.465902 
L 271.439142 -128.635223 
L 271.434161 -129.804545 
L 271.431442 -130.973866 
L 271.430922 -132.143187 
L 271.432534 -133.312508 
L 271.436199 -134.48183 
L 271.441832 -135.651151 
L 271.449344 -136.820472 
L 271.458637 -137.989793 
L 271.469608 -139.159115 
L 271.48215 -140.328436 
L 271.496153 -141.497757 
L 271.511501 -142.667078 
L 271.528078 -143.8364 
L 271.545763 -145.005721 
L 271.564438 -146.175042 
L 271.58398 -147.344363 
L 271.60427 -148.513685 
L 271.625189 -149.683006 
L 271.646619 -150.852327 
L 271.668446 -152.021648 
L 271.690557 -153.19097 
L 271.712847 -154.360291 
L 271.735212 -155.529612 
L 271.757555 -156.698933 
L 271.779785 -157.868255 
L 271.801818 -159.037576 
L 271.823574 -160.206897 
L 271.844985 -161.376218 
L 271.865987 -162.54554 
L 271.886525 -163.714861 
L 271.906554 -164.884182 
L 271.926034 -166.053503 
L 271.944937 -167.222825 
L 271.963241 -168.392146 
L 271.980934 -169.561467 
L 271.998011 -170.730788 
L 272.014476 -171.90011 
L 272.03034 -173.069431 
L 272.045621 -174.238752 
L 272.060347 -175.408073 
L 272.074549 -176.577395 
L 272.088265 -177.746716 
L 272.101541 -178.916037 
L 272.114426 -180.085358 
L 272.126973 -181.25468 
L 272.13924 -182.424001 
L 272.151288 -183.593322 
L 272.163181 -184.762643 
L 272.174985 -185.931965 
L 272.186766 -187.101286 
L 272.198592 -188.270607 
L 272.210531 -189.439928 
L 272.222652 -190.60925 
L 272.23502 -191.778571 
L 272.247701 -192.947892 
L 272.260758 -194.117213 
L 272.274252 -195.286535 
L 272.28824 -196.455856 
L 272.302777 -197.625177 
L 272.317913 -198.794498 
L 272.333694 -199.96382 
L 272.350163 -201.133141 
L 272.367357 -202.302462 
L 272.385308 -203.471783 
L 272.404042 -204.641105 
L 272.423582 -205.810426 
L 272.443943 -206.979747 
L 272.465136 -208.149068 
L 272.487166 -209.31839 
L 272.510031 -210.487711 
L 272.533724 -211.657032 
L 272.558234 -212.826353 
L 272.583542 -213.995675 
L 272.609624 -215.164996 
L 272.636453 -216.334317 
L 272.663993 -217.503638 
L 272.692207 -218.67296 
L 272.72105 -219.842281 
L 272.750475 -221.011602 
L 272.78043 -222.180923 
L 274.95579 -222.180923 
L 274.95579 -222.180923 
L 274.985746 -221.011602 
L 275.01517 -219.842281 
L 275.044014 -218.67296 
L 275.072227 -217.503638 
L 275.099768 -216.334317 
L 275.126596 -215.164996 
L 275.152679 -213.995675 
L 275.177987 -212.826353 
L 275.202496 -211.657032 
L 275.22619 -210.487711 
L 275.249055 -209.31839 
L 275.271084 -208.149068 
L 275.292277 -206.979747 
L 275.312638 -205.810426 
L 275.332178 -204.641105 
L 275.350913 -203.471783 
L 275.368863 -202.302462 
L 275.386057 -201.133141 
L 275.402526 -199.96382 
L 275.418308 -198.794498 
L 275.433444 -197.625177 
L 275.447981 -196.455856 
L 275.461969 -195.286535 
L 275.475463 -194.117213 
L 275.48852 -192.947892 
L 275.501201 -191.778571 
L 275.513569 -190.60925 
L 275.525689 -189.439928 
L 275.537629 -188.270607 
L 275.549455 -187.101286 
L 275.561236 -185.931965 
L 275.573039 -184.762643 
L 275.584932 -183.593322 
L 275.59698 -182.424001 
L 275.609247 -181.25468 
L 275.621794 -180.085358 
L 275.634679 -178.916037 
L 275.647955 -177.746716 
L 275.661672 -176.577395 
L 275.675874 -175.408073 
L 275.690599 -174.238752 
L 275.705881 -173.069431 
L 275.721745 -171.90011 
L 275.738209 -170.730788 
L 275.755286 -169.561467 
L 275.772979 -168.392146 
L 275.791283 -167.222825 
L 275.810186 -166.053503 
L 275.829667 -164.884182 
L 275.849695 -163.714861 
L 275.870234 -162.54554 
L 275.891235 -161.376218 
L 275.912646 -160.206897 
L 275.934403 -159.037576 
L 275.956435 -157.868255 
L 275.978665 -156.698933 
L 276.001009 -155.529612 
L 276.023374 -154.360291 
L 276.045663 -153.19097 
L 276.067775 -152.021648 
L 276.089601 -150.852327 
L 276.111031 -149.683006 
L 276.13195 -148.513685 
L 276.15224 -147.344363 
L 276.171783 -146.175042 
L 276.190457 -145.005721 
L 276.208143 -143.8364 
L 276.224719 -142.667078 
L 276.240067 -141.497757 
L 276.25407 -140.328436 
L 276.266613 -139.159115 
L 276.277584 -137.989793 
L 276.286877 -136.820472 
L 276.294388 -135.651151 
L 276.300022 -134.48183 
L 276.303687 -133.312508 
L 276.305298 -132.143187 
L 276.304779 -130.973866 
L 276.30206 -129.804545 
L 276.297079 -128.635223 
L 276.289784 -127.465902 
L 276.280131 -126.296581 
L 276.268085 -125.12726 
L 276.253623 -123.957938 
L 276.236729 -122.788617 
L 276.217399 -121.619296 
L 276.195639 -120.449975 
L 276.171464 -119.280653 
L 276.144902 -118.111332 
L 276.11599 -116.942011 
L 276.084776 -115.77269 
L 276.051318 -114.603368 
L 276.015683 -113.434047 
L 275.97795 -112.264726 
L 275.938207 -111.095405 
L 275.896549 -109.926083 
L 275.853082 -108.756762 
L 275.807919 -107.587441 
L 275.761181 -106.41812 
z
" style="stroke: #999999; stroke-width: 2"/>
    </defs>
    <g clip-path="url(#pe6080db21a)">
     <use xlink:href="#m098523261c" x="0" y="255.11811" style="fill: #ffffff; stroke: #999999; stroke-width: 2"/>
    </g>
   </g>
   <g id="PolyCollection_5">
    <defs>
     <path id="m4ffe0e2687" d="M 341.192416 -98.258068 
L 336.057011 -98.258068 
L 336.037249 -98.75824 
L 336.019206 -99.258411 
L 336.00286 -99.758583 
L 335.988184 -100.258754 
L 335.975139 -100.758926 
L 335.96368 -101.259097 
L 335.953752 -101.759269 
L 335.945291 -102.25944 
L 335.938227 -102.759612 
L 335.93248 -103.259783 
L 335.927963 -103.759955 
L 335.92458 -104.260126 
L 335.922231 -104.760298 
L 335.920807 -105.260469 
L 335.920192 -105.760641 
L 335.920268 -106.260812 
L 335.920909 -106.760984 
L 335.921985 -107.261155 
L 335.923362 -107.761327 
L 335.924904 -108.261498 
L 335.926471 -108.76167 
L 335.927921 -109.261841 
L 335.929112 -109.762013 
L 335.929901 -110.262184 
L 335.930145 -110.762356 
L 335.929704 -111.262527 
L 335.928437 -111.762699 
L 335.926208 -112.26287 
L 335.922883 -112.763042 
L 335.918333 -113.263213 
L 335.912433 -113.763385 
L 335.905064 -114.263556 
L 335.896115 -114.763728 
L 335.885479 -115.2639 
L 335.87306 -115.764071 
L 335.858767 -116.264243 
L 335.84252 -116.764414 
L 335.824248 -117.264586 
L 335.803891 -117.764757 
L 335.781397 -118.264929 
L 335.756727 -118.7651 
L 335.729852 -119.265272 
L 335.700756 -119.765443 
L 335.669433 -120.265615 
L 335.63589 -120.765786 
L 335.600146 -121.265958 
L 335.562233 -121.766129 
L 335.522193 -122.266301 
L 335.480083 -122.766472 
L 335.435971 -123.266644 
L 335.389936 -123.766815 
L 335.342071 -124.266987 
L 335.292478 -124.767158 
L 335.241272 -125.26733 
L 335.188578 -125.767501 
L 335.134532 -126.267673 
L 335.079278 -126.767844 
L 335.022973 -127.268016 
L 334.965778 -127.768187 
L 334.907866 -128.268359 
L 334.849414 -128.76853 
L 334.790609 -129.268702 
L 334.731642 -129.768873 
L 334.672707 -130.269045 
L 334.614007 -130.769216 
L 334.555744 -131.269388 
L 334.498124 -131.769559 
L 334.441356 -132.269731 
L 334.385646 -132.769902 
L 334.331204 -133.270074 
L 334.278236 -133.770245 
L 334.226946 -134.270417 
L 334.177537 -134.770589 
L 334.130204 -135.27076 
L 334.085142 -135.770932 
L 334.042538 -136.271103 
L 334.002571 -136.771275 
L 333.965414 -137.271446 
L 333.931234 -137.771618 
L 333.900186 -138.271789 
L 333.872416 -138.771961 
L 333.848062 -139.272132 
L 333.827247 -139.772304 
L 333.810088 -140.272475 
L 333.796686 -140.772647 
L 333.787131 -141.272818 
L 333.7815 -141.77299 
L 333.779859 -142.273161 
L 333.782259 -142.773333 
L 333.788738 -143.273504 
L 333.799319 -143.773676 
L 333.814016 -144.273847 
L 333.832823 -144.774019 
L 333.855727 -145.27419 
L 333.882697 -145.774362 
L 333.913692 -146.274533 
L 333.948656 -146.774705 
L 333.987522 -147.274876 
L 334.03021 -147.775048 
L 343.219217 -147.775048 
L 343.219217 -147.775048 
L 343.261905 -147.274876 
L 343.300771 -146.774705 
L 343.335734 -146.274533 
L 343.366729 -145.774362 
L 343.393699 -145.27419 
L 343.416603 -144.774019 
L 343.435411 -144.273847 
L 343.450107 -143.773676 
L 343.460689 -143.273504 
L 343.467167 -142.773333 
L 343.469567 -142.273161 
L 343.467926 -141.77299 
L 343.462296 -141.272818 
L 343.452741 -140.772647 
L 343.439338 -140.272475 
L 343.422179 -139.772304 
L 343.401365 -139.272132 
L 343.37701 -138.771961 
L 343.34924 -138.271789 
L 343.318192 -137.771618 
L 343.284012 -137.271446 
L 343.246856 -136.771275 
L 343.206889 -136.271103 
L 343.164284 -135.770932 
L 343.119222 -135.27076 
L 343.07189 -134.770589 
L 343.02248 -134.270417 
L 342.97119 -133.770245 
L 342.918222 -133.270074 
L 342.86378 -132.769902 
L 342.808071 -132.269731 
L 342.751302 -131.769559 
L 342.693683 -131.269388 
L 342.635419 -130.769216 
L 342.576719 -130.269045 
L 342.517785 -129.768873 
L 342.458817 -129.268702 
L 342.400012 -128.76853 
L 342.341561 -128.268359 
L 342.283648 -127.768187 
L 342.226454 -127.268016 
L 342.170148 -126.767844 
L 342.114895 -126.267673 
L 342.060849 -125.767501 
L 342.008155 -125.26733 
L 341.956949 -124.767158 
L 341.907356 -124.266987 
L 341.85949 -123.766815 
L 341.813456 -123.266644 
L 341.769343 -122.766472 
L 341.727233 -122.266301 
L 341.687194 -121.766129 
L 341.64928 -121.265958 
L 341.613536 -120.765786 
L 341.579993 -120.265615 
L 341.54867 -119.765443 
L 341.519574 -119.265272 
L 341.492699 -118.7651 
L 341.468029 -118.264929 
L 341.445535 -117.764757 
L 341.425178 -117.264586 
L 341.406906 -116.764414 
L 341.390659 -116.264243 
L 341.376367 -115.764071 
L 341.363947 -115.2639 
L 341.353311 -114.763728 
L 341.344362 -114.263556 
L 341.336993 -113.763385 
L 341.331093 -113.263213 
L 341.326543 -112.763042 
L 341.323218 -112.26287 
L 341.320989 -111.762699 
L 341.319722 -111.262527 
L 341.319281 -110.762356 
L 341.319526 -110.262184 
L 341.320315 -109.762013 
L 341.321506 -109.261841 
L 341.322956 -108.76167 
L 341.324522 -108.261498 
L 341.326064 -107.761327 
L 341.327441 -107.261155 
L 341.328517 -106.760984 
L 341.329158 -106.260812 
L 341.329234 -105.760641 
L 341.32862 -105.260469 
L 341.327195 -104.760298 
L 341.324846 -104.260126 
L 341.321463 -103.759955 
L 341.316946 -103.259783 
L 341.311199 -102.759612 
L 341.304135 -102.25944 
L 341.295675 -101.759269 
L 341.285746 -101.259097 
L 341.274287 -100.758926 
L 341.261242 -100.258754 
L 341.246566 -99.758583 
L 341.23022 -99.258411 
L 341.212177 -98.75824 
L 341.192416 -98.258068 
z
" style="stroke: #999999; stroke-width: 2"/>
    </defs>
    <g clip-path="url(#pe6080db21a)">
     <use xlink:href="#m4ffe0e2687" x="0" y="255.11811" style="fill: #ffffff; stroke: #999999; stroke-width: 2"/>
    </g>
   </g>
   <g id="PolyCollection_6">
    <defs>
     <path id="m653f2ee224" d="M 412.053011 -71.093302 
L 394.709621 -71.093302 
L 394.488562 -71.393788 
L 394.273967 -71.694275 
L 394.066524 -71.994762 
L 393.866908 -72.295249 
L 393.675778 -72.595735 
L 393.493774 -72.896222 
L 393.321513 -73.196709 
L 393.159586 -73.497195 
L 393.008553 -73.797682 
L 392.868942 -74.098169 
L 392.741241 -74.398656 
L 392.6259 -74.699142 
L 392.523326 -74.999629 
L 392.433877 -75.300116 
L 392.357861 -75.600603 
L 392.295536 -75.901089 
L 392.247104 -76.201576 
L 392.212708 -76.502063 
L 392.192435 -76.80255 
L 392.186309 -77.103036 
L 392.194294 -77.403523 
L 392.216289 -77.70401 
L 392.252134 -78.004497 
L 392.301601 -78.304983 
L 392.364405 -78.60547 
L 392.440194 -78.905957 
L 392.528561 -79.206444 
L 392.629037 -79.50693 
L 392.741102 -79.807417 
L 392.864179 -80.107904 
L 392.997644 -80.408391 
L 393.140827 -80.708877 
L 393.293017 -81.009364 
L 393.453468 -81.309851 
L 393.621399 -81.610338 
L 393.796005 -81.910824 
L 393.97646 -82.211311 
L 394.161923 -82.511798 
L 394.351543 -82.812285 
L 394.544465 -83.112771 
L 394.73984 -83.413258 
L 394.936823 -83.713745 
L 395.134586 -84.014232 
L 395.332321 -84.314718 
L 395.529244 -84.615205 
L 395.724603 -84.915692 
L 395.917681 -85.216179 
L 396.1078 -85.516665 
L 396.294327 -85.817152 
L 396.476677 -86.117639 
L 396.654313 -86.418126 
L 396.826753 -86.718612 
L 396.993572 -87.019099 
L 397.154397 -87.319586 
L 397.308917 -87.620073 
L 397.456877 -87.920559 
L 397.59808 -88.221046 
L 397.732389 -88.521533 
L 397.859719 -88.82202 
L 397.980044 -89.122506 
L 398.093388 -89.422993 
L 398.199827 -89.72348 
L 398.299484 -90.023967 
L 398.392527 -90.324453 
L 398.479165 -90.62494 
L 398.559646 -90.925427 
L 398.634251 -91.225913 
L 398.703292 -91.5264 
L 398.767108 -91.826887 
L 398.82606 -92.127374 
L 398.880527 -92.42786 
L 398.930906 -92.728347 
L 398.9776 -93.028834 
L 399.021024 -93.329321 
L 399.061594 -93.629807 
L 399.099727 -93.930294 
L 399.135838 -94.230781 
L 399.170335 -94.531268 
L 399.203616 -94.831754 
L 399.23607 -95.132241 
L 399.268072 -95.432728 
L 399.299979 -95.733215 
L 399.332131 -96.033701 
L 399.36485 -96.334188 
L 399.398435 -96.634675 
L 399.433162 -96.935162 
L 399.469286 -97.235648 
L 399.507036 -97.536135 
L 399.546616 -97.836622 
L 399.588206 -98.137109 
L 399.63196 -98.437595 
L 399.678004 -98.738082 
L 399.726441 -99.038569 
L 399.777348 -99.339056 
L 399.830777 -99.639542 
L 399.886755 -99.940029 
L 399.945284 -100.240516 
L 400.006346 -100.541003 
L 400.069898 -100.841489 
L 406.692734 -100.841489 
L 406.692734 -100.841489 
L 406.756286 -100.541003 
L 406.817348 -100.240516 
L 406.875878 -99.940029 
L 406.931855 -99.639542 
L 406.985284 -99.339056 
L 407.036191 -99.038569 
L 407.084628 -98.738082 
L 407.130673 -98.437595 
L 407.174426 -98.137109 
L 407.216016 -97.836622 
L 407.255596 -97.536135 
L 407.293346 -97.235648 
L 407.32947 -96.935162 
L 407.364198 -96.634675 
L 407.397782 -96.334188 
L 407.430501 -96.033701 
L 407.462653 -95.733215 
L 407.49456 -95.432728 
L 407.526562 -95.132241 
L 407.559016 -94.831754 
L 407.592298 -94.531268 
L 407.626794 -94.230781 
L 407.662905 -93.930294 
L 407.701038 -93.629807 
L 407.741608 -93.329321 
L 407.785032 -93.028834 
L 407.831727 -92.728347 
L 407.882105 -92.42786 
L 407.936572 -92.127374 
L 407.995524 -91.826887 
L 408.05934 -91.5264 
L 408.128381 -91.225913 
L 408.202986 -90.925427 
L 408.283467 -90.62494 
L 408.370105 -90.324453 
L 408.463148 -90.023967 
L 408.562805 -89.72348 
L 408.669244 -89.422993 
L 408.782588 -89.122506 
L 408.902913 -88.82202 
L 409.030243 -88.521533 
L 409.164552 -88.221046 
L 409.305755 -87.920559 
L 409.453715 -87.620073 
L 409.608235 -87.319586 
L 409.769061 -87.019099 
L 409.935879 -86.718612 
L 410.108319 -86.418126 
L 410.285955 -86.117639 
L 410.468305 -85.817152 
L 410.654832 -85.516665 
L 410.844951 -85.216179 
L 411.038029 -84.915692 
L 411.233388 -84.615205 
L 411.430311 -84.314718 
L 411.628046 -84.014232 
L 411.825809 -83.713745 
L 412.022792 -83.413258 
L 412.218167 -83.112771 
L 412.411089 -82.812285 
L 412.600709 -82.511798 
L 412.786172 -82.211311 
L 412.966627 -81.910824 
L 413.141234 -81.610338 
L 413.309165 -81.309851 
L 413.469615 -81.009364 
L 413.621805 -80.708877 
L 413.764989 -80.408391 
L 413.898453 -80.107904 
L 414.02153 -79.807417 
L 414.133595 -79.50693 
L 414.234072 -79.206444 
L 414.322438 -78.905957 
L 414.398228 -78.60547 
L 414.461031 -78.304983 
L 414.510498 -78.004497 
L 414.546343 -77.70401 
L 414.568338 -77.403523 
L 414.576323 -77.103036 
L 414.570197 -76.80255 
L 414.549924 -76.502063 
L 414.515529 -76.201576 
L 414.467096 -75.901089 
L 414.404771 -75.600603 
L 414.328756 -75.300116 
L 414.239306 -74.999629 
L 414.136732 -74.699142 
L 414.021391 -74.398656 
L 413.893691 -74.098169 
L 413.754079 -73.797682 
L 413.603046 -73.497195 
L 413.441119 -73.196709 
L 413.268858 -72.896222 
L 413.086854 -72.595735 
L 412.895724 -72.295249 
L 412.696108 -71.994762 
L 412.488665 -71.694275 
L 412.27407 -71.393788 
L 412.053011 -71.093302 
z
" style="stroke: #999999; stroke-width: 2"/>
    </defs>
    <g clip-path="url(#pe6080db21a)">
     <use xlink:href="#m653f2ee224" x="0" y="255.11811" style="fill: #ffffff; stroke: #999999; stroke-width: 2"/>
    </g>
   </g>
   <g id="PolyCollection_7">
    <defs>
     <path id="mb6eb5a8d9c" d="M 480.678118 -49.925704 
L 455.59772 -49.925704 
L 455.34198 -50.040017 
L 455.096688 -50.15433 
L 454.862243 -50.268643 
L 454.638968 -50.382956 
L 454.427106 -50.497268 
L 454.226814 -50.611581 
L 454.038164 -50.725894 
L 453.861135 -50.840207 
L 453.695619 -50.95452 
L 453.541415 -51.068833 
L 453.398228 -51.183145 
L 453.265675 -51.297458 
L 453.143282 -51.411771 
L 453.030488 -51.526084 
L 452.926645 -51.640397 
L 452.831027 -51.754709 
L 452.742829 -51.869022 
L 452.661178 -51.983335 
L 452.585133 -52.097648 
L 452.513694 -52.211961 
L 452.445811 -52.326274 
L 452.38039 -52.440586 
L 452.3163 -52.554899 
L 452.252387 -52.669212 
L 452.187479 -52.783525 
L 452.120395 -52.897838 
L 452.049962 -53.012151 
L 451.975018 -53.126463 
L 451.894426 -53.240776 
L 451.807087 -53.355089 
L 451.711944 -53.469402 
L 451.608004 -53.583715 
L 451.494336 -53.698027 
L 451.370091 -53.81234 
L 451.234508 -53.926653 
L 451.086923 -54.040966 
L 450.92678 -54.155279 
L 450.753638 -54.269592 
L 450.567181 -54.383904 
L 450.367218 -54.498217 
L 450.153697 -54.61253 
L 449.926705 -54.726843 
L 449.686471 -54.841156 
L 449.433369 -54.955468 
L 449.167923 -55.069781 
L 448.890797 -55.184094 
L 448.602805 -55.298407 
L 448.304898 -55.41272 
L 447.998166 -55.527033 
L 447.683829 -55.641345 
L 447.363228 -55.755658 
L 447.037823 -55.869971 
L 446.709178 -55.984284 
L 446.378949 -56.098597 
L 446.048878 -56.212909 
L 445.720773 -56.327222 
L 445.396501 -56.441535 
L 445.077968 -56.555848 
L 444.767108 -56.670161 
L 444.465864 -56.784474 
L 444.176177 -56.898786 
L 443.899966 -57.013099 
L 443.639114 -57.127412 
L 443.395454 -57.241725 
L 443.170752 -57.356038 
L 442.966694 -57.47035 
L 442.784873 -57.584663 
L 442.626773 -57.698976 
L 442.493763 -57.813289 
L 442.387082 -57.927602 
L 442.307829 -58.041915 
L 442.25696 -58.156227 
L 442.235278 -58.27054 
L 442.243426 -58.384853 
L 442.281889 -58.499166 
L 442.350987 -58.613479 
L 442.450874 -58.727791 
L 442.581545 -58.842104 
L 442.742829 -58.956417 
L 442.934402 -59.07073 
L 443.155782 -59.185043 
L 443.406346 -59.299356 
L 443.685325 -59.413668 
L 443.991824 -59.527981 
L 444.324821 -59.642294 
L 444.683183 -59.756607 
L 445.065674 -59.87092 
L 445.470967 -59.985232 
L 445.897651 -60.099545 
L 446.344249 -60.213858 
L 446.809225 -60.328171 
L 447.290996 -60.442484 
L 447.787943 -60.556797 
L 448.298427 -60.671109 
L 448.820791 -60.785422 
L 449.353378 -60.899735 
L 449.894537 -61.014048 
L 450.442636 -61.128361 
L 450.996066 -61.242674 
L 485.279773 -61.242674 
L 485.279773 -61.242674 
L 485.833202 -61.128361 
L 486.381301 -61.014048 
L 486.92246 -60.899735 
L 487.455047 -60.785422 
L 487.977411 -60.671109 
L 488.487895 -60.556797 
L 488.984842 -60.442484 
L 489.466613 -60.328171 
L 489.931589 -60.213858 
L 490.378187 -60.099545 
L 490.804871 -59.985232 
L 491.210164 -59.87092 
L 491.592655 -59.756607 
L 491.951017 -59.642294 
L 492.284014 -59.527981 
L 492.590513 -59.413668 
L 492.869492 -59.299356 
L 493.120056 -59.185043 
L 493.341436 -59.07073 
L 493.533009 -58.956417 
L 493.694293 -58.842104 
L 493.824964 -58.727791 
L 493.924851 -58.613479 
L 493.993949 -58.499166 
L 494.032412 -58.384853 
L 494.04056 -58.27054 
L 494.018878 -58.156227 
L 493.968009 -58.041915 
L 493.888756 -57.927602 
L 493.782075 -57.813289 
L 493.649065 -57.698976 
L 493.490965 -57.584663 
L 493.309144 -57.47035 
L 493.105086 -57.356038 
L 492.880384 -57.241725 
L 492.636724 -57.127412 
L 492.375872 -57.013099 
L 492.099661 -56.898786 
L 491.809974 -56.784474 
L 491.50873 -56.670161 
L 491.19787 -56.555848 
L 490.879337 -56.441535 
L 490.555065 -56.327222 
L 490.22696 -56.212909 
L 489.896889 -56.098597 
L 489.56666 -55.984284 
L 489.238015 -55.869971 
L 488.91261 -55.755658 
L 488.59201 -55.641345 
L 488.277672 -55.527033 
L 487.97094 -55.41272 
L 487.673033 -55.298407 
L 487.385041 -55.184094 
L 487.107915 -55.069781 
L 486.842469 -54.955468 
L 486.589367 -54.841156 
L 486.349133 -54.726843 
L 486.122141 -54.61253 
L 485.90862 -54.498217 
L 485.708657 -54.383904 
L 485.5222 -54.269592 
L 485.349058 -54.155279 
L 485.188915 -54.040966 
L 485.04133 -53.926653 
L 484.905747 -53.81234 
L 484.781502 -53.698027 
L 484.667834 -53.583715 
L 484.563894 -53.469402 
L 484.468751 -53.355089 
L 484.381412 -53.240776 
L 484.30082 -53.126463 
L 484.225876 -53.012151 
L 484.155443 -52.897838 
L 484.088359 -52.783525 
L 484.023451 -52.669212 
L 483.959538 -52.554899 
L 483.895449 -52.440586 
L 483.830027 -52.326274 
L 483.762144 -52.211961 
L 483.690705 -52.097648 
L 483.61466 -51.983335 
L 483.533009 -51.869022 
L 483.444811 -51.754709 
L 483.349193 -51.640397 
L 483.24535 -51.526084 
L 483.132556 -51.411771 
L 483.010163 -51.297458 
L 482.87761 -51.183145 
L 482.734423 -51.068833 
L 482.580219 -50.95452 
L 482.414703 -50.840207 
L 482.237674 -50.725894 
L 482.049024 -50.611581 
L 481.848732 -50.497268 
L 481.63687 -50.382956 
L 481.413595 -50.268643 
L 481.17915 -50.15433 
L 480.933858 -50.040017 
L 480.678118 -49.925704 
z
" style="stroke: #999999; stroke-width: 2"/>
    </defs>
    <g clip-path="url(#pe6080db21a)">
     <use xlink:href="#mb6eb5a8d9c" x="0" y="255.11811" style="fill: #ffffff; stroke: #999999; stroke-width: 2"/>
    </g>
   </g>
   <g id="PathCollection_1"/>
   <g id="PathCollection_2"/>
   <g id="patch_3">
    <path d="M 47.22 213.89811 
L 47.22 24.32 
" style="fill: none; stroke: #262626; stroke-width: 1.25; stroke-linejoin: miter; stroke-linecap: square"/>
   </g>
   <g id="patch_4">
    <path d="M 47.22 213.89811 
L 500.51622 213.89811 
" style="fill: none; stroke: #262626; stroke-width: 1.25; stroke-linejoin: miter; stroke-linecap: square"/>
   </g>
   <g id="PathCollection_3">
    <defs>
     <path id="C0_0_5b3c703e5c" d="M 0 2.5 
C 0.663008 2.5 1.29895 2.236584 1.767767 1.767767 
C 2.236584 1.29895 2.5 0.663008 2.5 -0 
C 2.5 -0.663008 2.236584 -1.29895 1.767767 -1.767767 
C 1.29895 -2.236584 0.663008 -2.5 0 -2.5 
C -0.663008 -2.5 -1.29895 -2.236584 -1.767767 -1.767767 
C -2.236584 -1.29895 -2.5 -0.663008 -2.5 0 
C -2.5 0.663008 -2.236584 1.29895 -1.767767 1.767767 
C -1.29895 2.236584 -0.663008 2.5 0 2.5 
z
"/>
    </defs>
    <g clip-path="url(#pe6080db21a)">
     <use xlink:href="#C0_0_5b3c703e5c" x="83.57395" y="178.307802" style="fill: #4c72b0; fill-opacity: 0.75"/>
    </g>
    <g clip-path="url(#pe6080db21a)">
     <use xlink:href="#C0_0_5b3c703e5c" x="77.018093" y="130.678852" style="fill: #4c72b0; fill-opacity: 0.75"/>
    </g>
    <g clip-path="url(#pe6080db21a)">
     <use xlink:href="#C0_0_5b3c703e5c" x="83.99911" y="145.190424" style="fill: #4c72b0; fill-opacity: 0.75"/>
    </g>
    <g clip-path="url(#pe6080db21a)">
     <use xlink:href="#C0_0_5b3c703e5c" x="79.471489" y="129.223222" style="fill: #4c72b0; fill-opacity: 0.75"/>
    </g>
    <g clip-path="url(#pe6080db21a)">
     <use xlink:href="#C0_0_5b3c703e5c" x="83.273018" y="147.877348" style="fill: #dd8452; fill-opacity: 0.75"/>
    </g>
    <g clip-path="url(#pe6080db21a)">
     <use xlink:href="#C0_0_5b3c703e5c" x="77.707835" y="161.655678" style="fill: #dd8452; fill-opacity: 0.75"/>
    </g>
    <g clip-path="url(#pe6080db21a)">
     <use xlink:href="#C0_0_5b3c703e5c" x="84.347886" y="160.926538" style="fill: #dd8452; fill-opacity: 0.75"/>
    </g>
    <g clip-path="url(#pe6080db21a)">
     <use xlink:href="#C0_0_5b3c703e5c" x="80.798546" y="152.952723" style="fill: #dd8452; fill-opacity: 0.75"/>
    </g>
   </g>
   <g id="PathCollection_4">
    <defs>
     <path id="C1_0_23d52075ab" d="M 0 2.5 
C 0.663008 2.5 1.29895 2.236584 1.767767 1.767767 
C 2.236584 1.29895 2.5 0.663008 2.5 -0 
C 2.5 -0.663008 2.236584 -1.29895 1.767767 -1.767767 
C 1.29895 -2.236584 0.663008 -2.5 0 -2.5 
C -0.663008 -2.5 -1.29895 -2.236584 -1.767767 -1.767767 
C -2.236584 -1.29895 -2.5 -0.663008 -2.5 0 
C -2.5 0.663008 -2.236584 1.29895 -1.767767 1.767767 
C -1.29895 2.236584 -0.663008 2.5 0 2.5 
z
"/>
    </defs>
    <g clip-path="url(#pe6080db21a)">
     <use xlink:href="#C1_0_23d52075ab" x="146.09288" y="185.020548" style="fill: #4c72b0; fill-opacity: 0.75"/>
    </g>
    <g clip-path="url(#pe6080db21a)">
     <use xlink:href="#C1_0_23d52075ab" x="149.166676" y="189.945252" style="fill: #4c72b0; fill-opacity: 0.75"/>
    </g>
    <g clip-path="url(#pe6080db21a)">
     <use xlink:href="#C1_0_23d52075ab" x="145.553456" y="192.78596" style="fill: #4c72b0; fill-opacity: 0.75"/>
    </g>
    <g clip-path="url(#pe6080db21a)">
     <use xlink:href="#C1_0_23d52075ab" x="141.504906" y="200.733029" style="fill: #4c72b0; fill-opacity: 0.75"/>
    </g>
    <g clip-path="url(#pe6080db21a)">
     <use xlink:href="#C1_0_23d52075ab" x="140.275953" y="201.344196" style="fill: #dd8452; fill-opacity: 0.75"/>
    </g>
    <g clip-path="url(#pe6080db21a)">
     <use xlink:href="#C1_0_23d52075ab" x="149.110847" y="202.564591" style="fill: #dd8452; fill-opacity: 0.75"/>
    </g>
    <g clip-path="url(#pe6080db21a)">
     <use xlink:href="#C1_0_23d52075ab" x="139.264999" y="201.421099" style="fill: #dd8452; fill-opacity: 0.75"/>
    </g>
    <g clip-path="url(#pe6080db21a)">
     <use xlink:href="#C1_0_23d52075ab" x="142.979336" y="205.280923" style="fill: #dd8452; fill-opacity: 0.75"/>
    </g>
   </g>
   <g id="PathCollection_5">
    <defs>
     <path id="C2_0_929901cb57" d="M 0 2.5 
C 0.663008 2.5 1.29895 2.236584 1.767767 1.767767 
C 2.236584 1.29895 2.5 0.663008 2.5 -0 
C 2.5 -0.663008 2.236584 -1.29895 1.767767 -1.767767 
C 1.29895 -2.236584 0.663008 -2.5 0 -2.5 
C -0.663008 -2.5 -1.29895 -2.236584 -1.767767 -1.767767 
C -2.236584 -1.29895 -2.5 -0.663008 -2.5 0 
C -2.5 0.663008 -2.236584 1.29895 -1.767767 1.767767 
C -1.29895 2.236584 -0.663008 2.5 0 2.5 
z
"/>
    </defs>
    <g clip-path="url(#pe6080db21a)">
     <use xlink:href="#C2_0_929901cb57" x="209.564804" y="126.477656" style="fill: #4c72b0; fill-opacity: 0.75"/>
    </g>
    <g clip-path="url(#pe6080db21a)">
     <use xlink:href="#C2_0_929901cb57" x="210.221131" y="109.314738" style="fill: #4c72b0; fill-opacity: 0.75"/>
    </g>
    <g clip-path="url(#pe6080db21a)">
     <use xlink:href="#C2_0_929901cb57" x="209.496734" y="105.566043" style="fill: #4c72b0; fill-opacity: 0.75"/>
    </g>
    <g clip-path="url(#pe6080db21a)">
     <use xlink:href="#C2_0_929901cb57" x="206.733711" y="145.609228" style="fill: #4c72b0; fill-opacity: 0.75"/>
    </g>
    <g clip-path="url(#pe6080db21a)">
     <use xlink:href="#C2_0_929901cb57" x="211.09405" y="134.169345" style="fill: #dd8452; fill-opacity: 0.75"/>
    </g>
    <g clip-path="url(#pe6080db21a)">
     <use xlink:href="#C2_0_929901cb57" x="207.850499" y="142.463924" style="fill: #dd8452; fill-opacity: 0.75"/>
    </g>
    <g clip-path="url(#pe6080db21a)">
     <use xlink:href="#C2_0_929901cb57" x="213.582576" y="119.322122" style="fill: #dd8452; fill-opacity: 0.75"/>
    </g>
    <g clip-path="url(#pe6080db21a)">
     <use xlink:href="#C2_0_929901cb57" x="206.258677" y="82.46241" style="fill: #dd8452; fill-opacity: 0.75"/>
    </g>
   </g>
   <g id="PathCollection_6">
    <defs>
     <path id="C3_0_967e95d789" d="M 0 2.5 
C 0.663008 2.5 1.29895 2.236584 1.767767 1.767767 
C 2.236584 1.29895 2.5 0.663008 2.5 -0 
C 2.5 -0.663008 2.236584 -1.29895 1.767767 -1.767767 
C 1.29895 -2.236584 0.663008 -2.5 0 -2.5 
C -0.663008 -2.5 -1.29895 -2.236584 -1.767767 -1.767767 
C -2.236584 -1.29895 -2.5 -0.663008 -2.5 0 
C -2.5 0.663008 -2.236584 1.29895 -1.767767 1.767767 
C -1.29895 2.236584 -0.663008 2.5 0 2.5 
z
"/>
    </defs>
    <g clip-path="url(#pe6080db21a)">
     <use xlink:href="#C3_0_967e95d789" x="275.926858" y="143.227062" style="fill: #4c72b0; fill-opacity: 0.75"/>
    </g>
    <g clip-path="url(#pe6080db21a)">
     <use xlink:href="#C3_0_967e95d789" x="271.133008" y="118.983812" style="fill: #4c72b0; fill-opacity: 0.75"/>
    </g>
    <g clip-path="url(#pe6080db21a)">
     <use xlink:href="#C3_0_967e95d789" x="270.95455" y="148.699991" style="fill: #4c72b0; fill-opacity: 0.75"/>
    </g>
    <g clip-path="url(#pe6080db21a)">
     <use xlink:href="#C3_0_967e95d789" x="270.512388" y="113.362982" style="fill: #4c72b0; fill-opacity: 0.75"/>
    </g>
    <g clip-path="url(#pe6080db21a)">
     <use xlink:href="#C3_0_967e95d789" x="279.216212" y="138.826618" style="fill: #4c72b0; fill-opacity: 0.75"/>
    </g>
    <g clip-path="url(#pe6080db21a)">
     <use xlink:href="#C3_0_967e95d789" x="278.926658" y="49.849472" style="fill: #dd8452; fill-opacity: 0.75"/>
    </g>
    <g clip-path="url(#pe6080db21a)">
     <use xlink:href="#C3_0_967e95d789" x="278.564618" y="109.427761" style="fill: #dd8452; fill-opacity: 0.75"/>
    </g>
    <g clip-path="url(#pe6080db21a)">
     <use xlink:href="#C3_0_967e95d789" x="267.729897" y="81.980145" style="fill: #dd8452; fill-opacity: 0.75"/>
    </g>
    <g clip-path="url(#pe6080db21a)">
     <use xlink:href="#C3_0_967e95d789" x="276.203702" y="67.630073" style="fill: #dd8452; fill-opacity: 0.75"/>
    </g>
    <g clip-path="url(#pe6080db21a)">
     <use xlink:href="#C3_0_967e95d789" x="272.819382" y="32.937187" style="fill: #dd8452; fill-opacity: 0.75"/>
    </g>
   </g>
   <g id="PathCollection_7">
    <defs>
     <path id="C4_0_be22bea860" d="M 0 2.5 
C 0.663008 2.5 1.29895 2.236584 1.767767 1.767767 
C 2.236584 1.29895 2.5 0.663008 2.5 -0 
C 2.5 -0.663008 2.236584 -1.29895 1.767767 -1.767767 
C 1.29895 -2.236584 0.663008 -2.5 0 -2.5 
C -0.663008 -2.5 -1.29895 -2.236584 -1.767767 -1.767767 
C -2.236584 -1.29895 -2.5 -0.663008 -2.5 0 
C -2.5 0.663008 -2.236584 1.29895 -1.767767 1.767767 
C -1.29895 2.236584 -0.663008 2.5 0 2.5 
z
"/>
    </defs>
    <g clip-path="url(#pe6080db21a)">
     <use xlink:href="#C4_0_be22bea860" x="337.405558" y="156.860042" style="fill: #4c72b0; fill-opacity: 0.75"/>
    </g>
    <g clip-path="url(#pe6080db21a)">
     <use xlink:href="#C4_0_be22bea860" x="340.279009" y="152.484751" style="fill: #4c72b0; fill-opacity: 0.75"/>
    </g>
    <g clip-path="url(#pe6080db21a)">
     <use xlink:href="#C4_0_be22bea860" x="337.995778" y="120.128523" style="fill: #4c72b0; fill-opacity: 0.75"/>
    </g>
    <g clip-path="url(#pe6080db21a)">
     <use xlink:href="#C4_0_be22bea860" x="338.232643" y="107.343062" style="fill: #dd8452; fill-opacity: 0.75"/>
    </g>
    <g clip-path="url(#pe6080db21a)">
     <use xlink:href="#C4_0_be22bea860" x="332.795604" y="111.452149" style="fill: #dd8452; fill-opacity: 0.75"/>
    </g>
    <g clip-path="url(#pe6080db21a)">
     <use xlink:href="#C4_0_be22bea860" x="342.34349" y="110.631171" style="fill: #dd8452; fill-opacity: 0.75"/>
    </g>
   </g>
   <g id="PathCollection_8">
    <defs>
     <path id="C5_0_ec6f7a7a03" d="M 0 2.5 
C 0.663008 2.5 1.29895 2.236584 1.767767 1.767767 
C 2.236584 1.29895 2.5 0.663008 2.5 -0 
C 2.5 -0.663008 2.236584 -1.29895 1.767767 -1.767767 
C 1.29895 -2.236584 0.663008 -2.5 0 -2.5 
C -0.663008 -2.5 -1.29895 -2.236584 -1.767767 -1.767767 
C -2.236584 -1.29895 -2.5 -0.663008 -2.5 0 
C -2.5 0.663008 -2.236584 1.29895 -1.767767 1.767767 
C -1.29895 2.236584 -0.663008 2.5 0 2.5 
z
"/>
    </defs>
    <g clip-path="url(#pe6080db21a)">
     <use xlink:href="#C5_0_ec6f7a7a03" x="407.121952" y="162.113537" style="fill: #4c72b0; fill-opacity: 0.75"/>
    </g>
    <g clip-path="url(#pe6080db21a)">
     <use xlink:href="#C5_0_ec6f7a7a03" x="405.904139" y="174.167762" style="fill: #4c72b0; fill-opacity: 0.75"/>
    </g>
    <g clip-path="url(#pe6080db21a)">
     <use xlink:href="#C5_0_ec6f7a7a03" x="400.31688" y="175.072866" style="fill: #4c72b0; fill-opacity: 0.75"/>
    </g>
    <g clip-path="url(#pe6080db21a)">
     <use xlink:href="#C5_0_ec6f7a7a03" x="399.357286" y="154.276621" style="fill: #4c72b0; fill-opacity: 0.75"/>
    </g>
    <g clip-path="url(#pe6080db21a)">
     <use xlink:href="#C5_0_ec6f7a7a03" x="406.889895" y="176.747359" style="fill: #dd8452; fill-opacity: 0.75"/>
    </g>
    <g clip-path="url(#pe6080db21a)">
     <use xlink:href="#C5_0_ec6f7a7a03" x="406.375995" y="184.024809" style="fill: #dd8452; fill-opacity: 0.75"/>
    </g>
    <g clip-path="url(#pe6080db21a)">
     <use xlink:href="#C5_0_ec6f7a7a03" x="404.244484" y="178.381022" style="fill: #dd8452; fill-opacity: 0.75"/>
    </g>
    <g clip-path="url(#pe6080db21a)">
     <use xlink:href="#C5_0_ec6f7a7a03" x="408.315961" y="183.368354" style="fill: #dd8452; fill-opacity: 0.75"/>
    </g>
   </g>
   <g id="PathCollection_9">
    <defs>
     <path id="C6_0_a95d7965df" d="M 0 2.5 
C 0.663008 2.5 1.29895 2.236584 1.767767 1.767767 
C 2.236584 1.29895 2.5 0.663008 2.5 -0 
C 2.5 -0.663008 2.236584 -1.29895 1.767767 -1.767767 
C 1.29895 -2.236584 0.663008 -2.5 0 -2.5 
C -0.663008 -2.5 -1.29895 -2.236584 -1.767767 -1.767767 
C -2.236584 -1.29895 -2.5 -0.663008 -2.5 0 
C -2.5 0.663008 -2.236584 1.29895 -1.767767 1.767767 
C -1.29895 2.236584 -0.663008 2.5 0 2.5 
z
"/>
    </defs>
    <g clip-path="url(#pe6080db21a)">
     <use xlink:href="#C6_0_a95d7965df" x="464.903695" y="196.929514" style="fill: #4c72b0; fill-opacity: 0.75"/>
    </g>
    <g clip-path="url(#pe6080db21a)">
     <use xlink:href="#C6_0_a95d7965df" x="471.688558" y="197.391985" style="fill: #4c72b0; fill-opacity: 0.75"/>
    </g>
    <g clip-path="url(#pe6080db21a)">
     <use xlink:href="#C6_0_a95d7965df" x="473.41656" y="195.96781" style="fill: #4c72b0; fill-opacity: 0.75"/>
    </g>
    <g clip-path="url(#pe6080db21a)">
     <use xlink:href="#C6_0_a95d7965df" x="469.803655" y="197.295134" style="fill: #4c72b0; fill-opacity: 0.75"/>
    </g>
    <g clip-path="url(#pe6080db21a)">
     <use xlink:href="#C6_0_a95d7965df" x="468.281563" y="203.771627" style="fill: #dd8452; fill-opacity: 0.75"/>
    </g>
    <g clip-path="url(#pe6080db21a)">
     <use xlink:href="#C6_0_a95d7965df" x="467.456368" y="205.192406" style="fill: #dd8452; fill-opacity: 0.75"/>
    </g>
    <g clip-path="url(#pe6080db21a)">
     <use xlink:href="#C6_0_a95d7965df" x="473.139487" y="201.482278" style="fill: #dd8452; fill-opacity: 0.75"/>
    </g>
    <g clip-path="url(#pe6080db21a)">
     <use xlink:href="#C6_0_a95d7965df" x="467.655348" y="193.875437" style="fill: #dd8452; fill-opacity: 0.75"/>
    </g>
   </g>
   <g id="text_15">
    <!-- MIRLET7BHG, $p_{adj}$ &lt; .001 *** -->
    <g style="fill: #262626" transform="translate(47.22 18.32)scale(0.09 -0.09)">
     <defs>
      <path id="ArialMT-49" d="M 597 0 
L 597 4581 
L 1203 4581 
L 1203 0 
L 597 0 
z
" transform="scale(0.015625)"/>
      <path id="ArialMT-52" d="M 503 0 
L 503 4581 
L 2534 4581 
Q 3147 4581 3465 4457 
Q 3784 4334 3975 4021 
Q 4166 3709 4166 3331 
Q 4166 2844 3850 2509 
Q 3534 2175 2875 2084 
Q 3116 1969 3241 1856 
Q 3506 1613 3744 1247 
L 4541 0 
L 3778 0 
L 3172 953 
Q 2906 1366 2734 1584 
Q 2563 1803 2427 1890 
Q 2291 1978 2150 2013 
Q 2047 2034 1813 2034 
L 1109 2034 
L 1109 0 
L 503 0 
z
M 1109 2559 
L 2413 2559 
Q 2828 2559 3062 2645 
Q 3297 2731 3419 2920 
Q 3541 3109 3541 3331 
Q 3541 3656 3305 3865 
Q 3069 4075 2559 4075 
L 1109 4075 
L 1109 2559 
z
" transform="scale(0.015625)"/>
      <path id="ArialMT-4c" d="M 469 0 
L 469 4581 
L 1075 4581 
L 1075 541 
L 3331 541 
L 3331 0 
L 469 0 
z
" transform="scale(0.015625)"/>
      <path id="ArialMT-45" d="M 506 0 
L 506 4581 
L 3819 4581 
L 3819 4041 
L 1113 4041 
L 1113 2638 
L 3647 2638 
L 3647 2100 
L 1113 2100 
L 1113 541 
L 3925 541 
L 3925 0 
L 506 0 
z
" transform="scale(0.015625)"/>
      <path id="ArialMT-42" d="M 469 0 
L 469 4581 
L 2188 4581 
Q 2713 4581 3030 4442 
Q 3347 4303 3526 4014 
Q 3706 3725 3706 3409 
Q 3706 3116 3547 2856 
Q 3388 2597 3066 2438 
Q 3481 2316 3704 2022 
Q 3928 1728 3928 1328 
Q 3928 1006 3792 729 
Q 3656 453 3456 303 
Q 3256 153 2954 76 
Q 2653 0 2216 0 
L 469 0 
z
M 1075 2656 
L 2066 2656 
Q 2469 2656 2644 2709 
Q 2875 2778 2992 2937 
Q 3109 3097 3109 3338 
Q 3109 3566 3000 3739 
Q 2891 3913 2687 3977 
Q 2484 4041 1991 4041 
L 1075 4041 
L 1075 2656 
z
M 1075 541 
L 2216 541 
Q 2509 541 2628 563 
Q 2838 600 2978 687 
Q 3119 775 3209 942 
Q 3300 1109 3300 1328 
Q 3300 1584 3169 1773 
Q 3038 1963 2805 2039 
Q 2572 2116 2134 2116 
L 1075 2116 
L 1075 541 
z
" transform="scale(0.015625)"/>
      <path id="ArialMT-48" d="M 513 0 
L 513 4581 
L 1119 4581 
L 1119 2700 
L 3500 2700 
L 3500 4581 
L 4106 4581 
L 4106 0 
L 3500 0 
L 3500 2159 
L 1119 2159 
L 1119 0 
L 513 0 
z
" transform="scale(0.015625)"/>
      <path id="ArialMT-47" d="M 2638 1797 
L 2638 2334 
L 4578 2338 
L 4578 638 
Q 4131 281 3656 101 
Q 3181 -78 2681 -78 
Q 2006 -78 1454 211 
Q 903 500 622 1047 
Q 341 1594 341 2269 
Q 341 2938 620 3517 
Q 900 4097 1425 4378 
Q 1950 4659 2634 4659 
Q 3131 4659 3532 4498 
Q 3934 4338 4162 4050 
Q 4391 3763 4509 3300 
L 3963 3150 
Q 3859 3500 3706 3700 
Q 3553 3900 3268 4020 
Q 2984 4141 2638 4141 
Q 2222 4141 1919 4014 
Q 1616 3888 1430 3681 
Q 1244 3475 1141 3228 
Q 966 2803 966 2306 
Q 966 1694 1177 1281 
Q 1388 869 1791 669 
Q 2194 469 2647 469 
Q 3041 469 3416 620 
Q 3791 772 3984 944 
L 3984 1797 
L 2638 1797 
z
" transform="scale(0.015625)"/>
      <path id="ArialMT-2c" d="M 569 0 
L 569 641 
L 1209 641 
L 1209 0 
Q 1209 -353 1084 -570 
Q 959 -788 688 -906 
L 531 -666 
Q 709 -588 793 -436 
Q 878 -284 888 0 
L 569 0 
z
" transform="scale(0.015625)"/>
      <path id="DejaVuSans-Oblique-70" d="M 3175 2156 
Q 3175 2616 2975 2859 
Q 2775 3103 2400 3103 
Q 2144 3103 1911 2972 
Q 1678 2841 1497 2591 
Q 1319 2344 1212 1994 
Q 1106 1644 1106 1300 
Q 1106 863 1306 627 
Q 1506 391 1875 391 
Q 2147 391 2380 519 
Q 2613 647 2778 891 
Q 2956 1147 3065 1494 
Q 3175 1841 3175 2156 
z
M 1394 2969 
Q 1625 3272 1939 3428 
Q 2253 3584 2638 3584 
Q 3175 3584 3472 3232 
Q 3769 2881 3769 2247 
Q 3769 1728 3584 1258 
Q 3400 788 3053 416 
Q 2822 169 2531 39 
Q 2241 -91 1919 -91 
Q 1547 -91 1294 64 
Q 1041 219 916 525 
L 556 -1331 
L -19 -1331 
L 922 3500 
L 1497 3500 
L 1394 2969 
z
" transform="scale(0.015625)"/>
      <path id="DejaVuSans-Oblique-61" d="M 3438 1997 
L 3047 0 
L 2472 0 
L 2578 531 
Q 2325 219 2001 64 
Q 1678 -91 1281 -91 
Q 834 -91 548 182 
Q 263 456 263 884 
Q 263 1497 752 1853 
Q 1241 2209 2100 2209 
L 2900 2209 
L 2931 2363 
Q 2938 2388 2941 2417 
Q 2944 2447 2944 2509 
Q 2944 2788 2717 2942 
Q 2491 3097 2081 3097 
Q 1800 3097 1504 3025 
Q 1209 2953 897 2809 
L 997 3341 
Q 1322 3463 1633 3523 
Q 1944 3584 2234 3584 
Q 2853 3584 3176 3315 
Q 3500 3047 3500 2534 
Q 3500 2431 3484 2292 
Q 3469 2153 3438 1997 
z
M 2816 1759 
L 2241 1759 
Q 1534 1759 1195 1570 
Q 856 1381 856 984 
Q 856 709 1029 553 
Q 1203 397 1509 397 
Q 1978 397 2328 733 
Q 2678 1069 2791 1631 
L 2816 1759 
z
" transform="scale(0.015625)"/>
      <path id="DejaVuSans-Oblique-64" d="M 2675 525 
Q 2444 222 2128 65 
Q 1813 -91 1428 -91 
Q 903 -91 598 267 
Q 294 625 294 1247 
Q 294 1766 478 2236 
Q 663 2706 1013 3078 
Q 1244 3325 1534 3454 
Q 1825 3584 2144 3584 
Q 2481 3584 2739 3421 
Q 2997 3259 3138 2956 
L 3513 4863 
L 4091 4863 
L 3144 0 
L 2566 0 
L 2675 525 
z
M 891 1350 
Q 891 897 1095 644 
Q 1300 391 1663 391 
Q 1931 391 2161 520 
Q 2391 650 2566 903 
Q 2750 1166 2856 1509 
Q 2963 1853 2963 2188 
Q 2963 2622 2758 2865 
Q 2553 3109 2194 3109 
Q 1922 3109 1687 2981 
Q 1453 2853 1288 2613 
Q 1106 2353 998 2009 
Q 891 1666 891 1350 
z
" transform="scale(0.015625)"/>
      <path id="DejaVuSans-Oblique-6a" d="M 928 3500 
L 1503 3500 
L 813 -63 
L 809 -78 
Q 694 -675 544 -897 
Q 403 -1106 132 -1218 
Q -138 -1331 -506 -1331 
L -722 -1331 
L -628 -844 
L -481 -844 
Q -144 -844 -1 -703 
Q 141 -563 238 -63 
L 928 3500 
z
M 1197 4863 
L 1772 4863 
L 1631 4134 
L 1056 4134 
L 1197 4863 
z
" transform="scale(0.015625)"/>
      <path id="ArialMT-3c" d="M 350 2003 
L 350 2528 
L 3384 3809 
L 3384 3250 
L 978 2263 
L 3384 1266 
L 3384 706 
L 350 2003 
z
" transform="scale(0.015625)"/>
      <path id="ArialMT-2e" d="M 581 0 
L 581 641 
L 1222 641 
L 1222 0 
L 581 0 
z
" transform="scale(0.015625)"/>
      <path id="ArialMT-2a" d="M 200 3741 
L 344 4184 
Q 841 4009 1066 3881 
Q 1006 4447 1003 4659 
L 1456 4659 
Q 1447 4350 1384 3884 
Q 1706 4047 2122 4184 
L 2266 3741 
Q 1869 3609 1488 3566 
Q 1678 3400 2025 2975 
L 1650 2709 
Q 1469 2956 1222 3381 
Q 991 2941 816 2709 
L 447 2975 
Q 809 3422 966 3566 
Q 563 3644 200 3741 
z
" transform="scale(0.015625)"/>
     </defs>
     <use xlink:href="#ArialMT-4d" transform="translate(0 0.203125)"/>
     <use xlink:href="#ArialMT-49" transform="translate(83.300781 0.203125)"/>
     <use xlink:href="#ArialMT-52" transform="translate(111.083984 0.203125)"/>
     <use xlink:href="#ArialMT-4c" transform="translate(183.300781 0.203125)"/>
     <use xlink:href="#ArialMT-45" transform="translate(238.916016 0.203125)"/>
     <use xlink:href="#ArialMT-54" transform="translate(305.615234 0.203125)"/>
     <use xlink:href="#ArialMT-37" transform="translate(366.699219 0.203125)"/>
     <use xlink:href="#ArialMT-42" transform="translate(422.314453 0.203125)"/>
     <use xlink:href="#ArialMT-48" transform="translate(489.013672 0.203125)"/>
     <use xlink:href="#ArialMT-47" transform="translate(561.230469 0.203125)"/>
     <use xlink:href="#ArialMT-2c" transform="translate(639.013672 0.203125)"/>
     <use xlink:href="#ArialMT-20" transform="translate(666.796875 0.203125)"/>
     <use xlink:href="#DejaVuSans-Oblique-70" transform="translate(694.580078 0.203125)"/>
     <use xlink:href="#DejaVuSans-Oblique-61" transform="translate(758.056641 -16.203125)scale(0.7)"/>
     <use xlink:href="#DejaVuSans-Oblique-64" transform="translate(800.952148 -16.203125)scale(0.7)"/>
     <use xlink:href="#DejaVuSans-Oblique-6a" transform="translate(845.385742 -16.203125)scale(0.7)"/>
     <use xlink:href="#ArialMT-20" transform="translate(867.568359 0.203125)"/>
     <use xlink:href="#ArialMT-3c" transform="translate(895.351562 0.203125)"/>
     <use xlink:href="#ArialMT-20" transform="translate(953.75 0.203125)"/>
     <use xlink:href="#ArialMT-2e" transform="translate(981.533203 0.203125)"/>
     <use xlink:href="#ArialMT-30" transform="translate(1009.316406 0.203125)"/>
     <use xlink:href="#ArialMT-30" transform="translate(1064.931641 0.203125)"/>
     <use xlink:href="#ArialMT-31" transform="translate(1120.546875 0.203125)"/>
     <use xlink:href="#ArialMT-20" transform="translate(1176.162109 0.203125)"/>
     <use xlink:href="#ArialMT-2a" transform="translate(1203.945312 0.203125)"/>
     <use xlink:href="#ArialMT-2a" transform="translate(1242.861328 0.203125)"/>
     <use xlink:href="#ArialMT-2a" transform="translate(1281.777344 0.203125)"/>
    </g>
   </g>
   <g id="legend_1">
    <g id="patch_5">
     <path d="M 441.91497 69.712344 
L 494.21622 69.712344 
Q 496.01622 69.712344 496.01622 67.912344 
L 496.01622 30.62 
Q 496.01622 28.82 494.21622 28.82 
L 441.91497 28.82 
Q 440.11497 28.82 440.11497 30.62 
L 440.11497 67.912344 
Q 440.11497 69.712344 441.91497 69.712344 
z
" style="fill: #ffffff; opacity: 0.8; stroke: #cccccc; stroke-linejoin: miter"/>
    </g>
    <g id="text_16">
     <!-- Treatment -->
     <g style="fill: #262626" transform="translate(447.729111 38.862031)scale(0.09 -0.09)">
      <use xlink:href="#ArialMT-54"/>
      <use xlink:href="#ArialMT-72" x="57.333984"/>
      <use xlink:href="#ArialMT-65" x="90.634766"/>
      <use xlink:href="#ArialMT-61" x="146.25"/>
      <use xlink:href="#ArialMT-74" x="201.865234"/>
      <use xlink:href="#ArialMT-6d" x="229.648438"/>
      <use xlink:href="#ArialMT-65" x="312.949219"/>
      <use xlink:href="#ArialMT-6e" x="368.564453"/>
      <use xlink:href="#ArialMT-74" x="424.179688"/>
     </g>
    </g>
    <g id="PathCollection_10">
     <defs>
      <path id="m5a1de4171b" d="M 0 3.872983 
C 1.027127 3.872983 2.012324 3.464901 2.738613 2.738613 
C 3.464901 2.012324 3.872983 1.027127 3.872983 0 
C 3.872983 -1.027127 3.464901 -2.012324 2.738613 -2.738613 
C 2.012324 -3.464901 1.027127 -3.872983 0 -3.872983 
C -1.027127 -3.872983 -2.012324 -3.464901 -2.738613 -2.738613 
C -3.464901 -2.012324 -3.872983 -1.027127 -3.872983 0 
C -3.872983 1.027127 -3.464901 2.012324 -2.738613 2.738613 
C -2.012324 3.464901 -1.027127 3.872983 0 3.872983 
z
" style="stroke: #4c72b0"/>
     </defs>
     <g>
      <use xlink:href="#m5a1de4171b" x="452.71497" y="49.230313" style="fill: #4c72b0; stroke: #4c72b0"/>
     </g>
    </g>
    <g id="text_17">
     <!-- BEVA -->
     <g style="fill: #262626" transform="translate(468.91497 51.592813)scale(0.09 -0.09)">
      <defs>
       <path id="ArialMT-56" d="M 1803 0 
L 28 4581 
L 684 4581 
L 1875 1253 
Q 2019 853 2116 503 
Q 2222 878 2363 1253 
L 3600 4581 
L 4219 4581 
L 2425 0 
L 1803 0 
z
" transform="scale(0.015625)"/>
       <path id="ArialMT-41" d="M -9 0 
L 1750 4581 
L 2403 4581 
L 4278 0 
L 3588 0 
L 3053 1388 
L 1138 1388 
L 634 0 
L -9 0 
z
M 1313 1881 
L 2866 1881 
L 2388 3150 
Q 2169 3728 2063 4100 
Q 1975 3659 1816 3225 
L 1313 1881 
z
" transform="scale(0.015625)"/>
      </defs>
      <use xlink:href="#ArialMT-42"/>
      <use xlink:href="#ArialMT-45" x="66.699219"/>
      <use xlink:href="#ArialMT-56" x="133.398438"/>
      <use xlink:href="#ArialMT-41" x="192.722656"/>
     </g>
    </g>
    <g id="PathCollection_11">
     <defs>
      <path id="m3630b0e0ad" d="M 0 3.872983 
C 1.027127 3.872983 2.012324 3.464901 2.738613 2.738613 
C 3.464901 2.012324 3.872983 1.027127 3.872983 0 
C 3.872983 -1.027127 3.464901 -2.012324 2.738613 -2.738613 
C 2.012324 -3.464901 1.027127 -3.872983 0 -3.872983 
C -1.027127 -3.872983 -2.012324 -3.464901 -2.738613 -2.738613 
C -3.464901 -2.012324 -3.872983 -1.027127 -3.872983 0 
C -3.872983 1.027127 -3.464901 2.012324 -2.738613 2.738613 
C -2.012324 3.464901 -1.027127 3.872983 0 3.872983 
z
" style="stroke: #dd8452"/>
     </defs>
     <g>
      <use xlink:href="#m3630b0e0ad" x="452.71497" y="61.961094" style="fill: #dd8452; stroke: #dd8452"/>
     </g>
    </g>
    <g id="text_18">
     <!-- CTRL -->
     <g style="fill: #262626" transform="translate(468.91497 64.323594)scale(0.09 -0.09)">
      <defs>
       <path id="ArialMT-43" d="M 3763 1606 
L 4369 1453 
Q 4178 706 3683 314 
Q 3188 -78 2472 -78 
Q 1731 -78 1267 223 
Q 803 525 561 1097 
Q 319 1669 319 2325 
Q 319 3041 592 3573 
Q 866 4106 1370 4382 
Q 1875 4659 2481 4659 
Q 3169 4659 3637 4309 
Q 4106 3959 4291 3325 
L 3694 3184 
Q 3534 3684 3231 3912 
Q 2928 4141 2469 4141 
Q 1941 4141 1586 3887 
Q 1231 3634 1087 3207 
Q 944 2781 944 2328 
Q 944 1744 1114 1308 
Q 1284 872 1643 656 
Q 2003 441 2422 441 
Q 2931 441 3284 734 
Q 3638 1028 3763 1606 
z
" transform="scale(0.015625)"/>
      </defs>
      <use xlink:href="#ArialMT-43"/>
      <use xlink:href="#ArialMT-54" x="72.216797"/>
      <use xlink:href="#ArialMT-52" x="133.300781"/>
      <use xlink:href="#ArialMT-4c" x="205.517578"/>
     </g>
    </g>
   </g>
  </g>
 </g>
 <defs>
  <clipPath id="pe6080db21a">
   <rect x="47.22" y="24.32" width="453.29622" height="189.57811"/>
  </clipPath>
 </defs>
</svg>
