<?xml version="1.0" encoding="utf-8" standalone="no"?>
<!DOCTYPE svg PUBLIC "-//W3C//DTD SVG 1.1//EN"
  "http://www.w3.org/Graphics/SVG/1.1/DTD/svg11.dtd">
<svg xmlns:xlink="http://www.w3.org/1999/xlink" width="510.23622pt" height="255.11811pt" viewBox="0 0 510.23622 255.11811" xmlns="http://www.w3.org/2000/svg" version="1.1">
 <metadata>
  <rdf:RDF xmlns:dc="http://purl.org/dc/elements/1.1/" xmlns:cc="http://creativecommons.org/ns#" xmlns:rdf="http://www.w3.org/1999/02/22-rdf-syntax-ns#">
   <cc:Work>
    <dc:type rdf:resource="http://purl.org/dc/dcmitype/StillImage"/>
    <dc:date>2022-04-27T00:16:34.788851</dc:date>
    <dc:format>image/svg+xml</dc:format>
    <dc:creator>
     <cc:Agent>
      <dc:title>Matplotlib v3.5.1, https://matplotlib.org/</dc:title>
     </cc:Agent>
    </dc:creator>
   </cc:Work>
  </rdf:RDF>
 </metadata>
 <defs>
  <style type="text/css">*{stroke-linejoin: round; stroke-linecap: butt}</style>
 </defs>
 <g id="figure_1">
  <g id="patch_1">
   <path d="M 0 255.11811 
L 510.23622 255.11811 
L 510.23622 0 
L 0 0 
z
" style="fill: #ffffff"/>
  </g>
  <g id="axes_1">
   <g id="patch_2">
    <path d="M 47.22 213.89811 
L 500.51622 213.89811 
L 500.51622 24.32 
L 47.22 24.32 
z
" style="fill: #ffffff"/>
   </g>
   <g id="matplotlib.axis_1">
    <g id="xtick_1">
     <g id="text_1">
      <!-- 49 -->
      <g style="fill: #444444" transform="translate(74.593458 229.840141)scale(0.09 -0.09)">
       <defs>
        <path id="ArialMT-34" d="M 2069 0 
L 2069 1097 
L 81 1097 
L 81 1613 
L 2172 4581 
L 2631 4581 
L 2631 1613 
L 3250 1613 
L 3250 1097 
L 2631 1097 
L 2631 0 
L 2069 0 
z
M 2069 1613 
L 2069 3678 
L 634 1613 
L 2069 1613 
z
" transform="scale(0.015625)"/>
        <path id="ArialMT-39" d="M 350 1059 
L 891 1109 
Q 959 728 1153 556 
Q 1347 384 1650 384 
Q 1909 384 2104 503 
Q 2300 622 2425 820 
Q 2550 1019 2634 1356 
Q 2719 1694 2719 2044 
Q 2719 2081 2716 2156 
Q 2547 1888 2255 1720 
Q 1963 1553 1622 1553 
Q 1053 1553 659 1965 
Q 266 2378 266 3053 
Q 266 3750 677 4175 
Q 1088 4600 1706 4600 
Q 2153 4600 2523 4359 
Q 2894 4119 3086 3673 
Q 3278 3228 3278 2384 
Q 3278 1506 3087 986 
Q 2897 466 2520 194 
Q 2144 -78 1638 -78 
Q 1100 -78 759 220 
Q 419 519 350 1059 
z
M 2653 3081 
Q 2653 3566 2395 3850 
Q 2138 4134 1775 4134 
Q 1400 4134 1122 3828 
Q 844 3522 844 3034 
Q 844 2597 1108 2323 
Q 1372 2050 1759 2050 
Q 2150 2050 2401 2323 
Q 2653 2597 2653 3081 
z
" transform="scale(0.015625)"/>
       </defs>
       <use xlink:href="#ArialMT-34"/>
       <use xlink:href="#ArialMT-39" x="55.615234"/>
      </g>
     </g>
    </g>
    <g id="xtick_2">
     <g id="text_2">
      <!-- 17 -->
      <g style="fill: #444444" transform="translate(139.350061 229.840141)scale(0.09 -0.09)">
       <defs>
        <path id="ArialMT-31" d="M 2384 0 
L 1822 0 
L 1822 3584 
Q 1619 3391 1289 3197 
Q 959 3003 697 2906 
L 697 3450 
Q 1169 3672 1522 3987 
Q 1875 4303 2022 4600 
L 2384 4600 
L 2384 0 
z
" transform="scale(0.015625)"/>
        <path id="ArialMT-37" d="M 303 3981 
L 303 4522 
L 3269 4522 
L 3269 4084 
Q 2831 3619 2401 2847 
Q 1972 2075 1738 1259 
Q 1569 684 1522 0 
L 944 0 
Q 953 541 1156 1306 
Q 1359 2072 1739 2783 
Q 2119 3494 2547 3981 
L 303 3981 
z
" transform="scale(0.015625)"/>
       </defs>
       <use xlink:href="#ArialMT-31"/>
       <use xlink:href="#ArialMT-37" x="55.615234"/>
      </g>
     </g>
    </g>
    <g id="xtick_3">
     <g id="text_3">
      <!-- 69 -->
      <g style="fill: #444444" transform="translate(204.106664 229.840141)scale(0.09 -0.09)">
       <defs>
        <path id="ArialMT-36" d="M 3184 3459 
L 2625 3416 
Q 2550 3747 2413 3897 
Q 2184 4138 1850 4138 
Q 1581 4138 1378 3988 
Q 1113 3794 959 3422 
Q 806 3050 800 2363 
Q 1003 2672 1297 2822 
Q 1591 2972 1913 2972 
Q 2475 2972 2870 2558 
Q 3266 2144 3266 1488 
Q 3266 1056 3080 686 
Q 2894 316 2569 119 
Q 2244 -78 1831 -78 
Q 1128 -78 684 439 
Q 241 956 241 2144 
Q 241 3472 731 4075 
Q 1159 4600 1884 4600 
Q 2425 4600 2770 4297 
Q 3116 3994 3184 3459 
z
M 888 1484 
Q 888 1194 1011 928 
Q 1134 663 1356 523 
Q 1578 384 1822 384 
Q 2178 384 2434 671 
Q 2691 959 2691 1453 
Q 2691 1928 2437 2201 
Q 2184 2475 1800 2475 
Q 1419 2475 1153 2201 
Q 888 1928 888 1484 
z
" transform="scale(0.015625)"/>
       </defs>
       <use xlink:href="#ArialMT-36"/>
       <use xlink:href="#ArialMT-39" x="55.615234"/>
      </g>
     </g>
    </g>
    <g id="xtick_4">
     <g id="text_4">
      <!-- 15 -->
      <g style="fill: #444444" transform="translate(268.863266 229.840141)scale(0.09 -0.09)">
       <defs>
        <path id="ArialMT-35" d="M 266 1200 
L 856 1250 
Q 922 819 1161 601 
Q 1400 384 1738 384 
Q 2144 384 2425 690 
Q 2706 997 2706 1503 
Q 2706 1984 2436 2262 
Q 2166 2541 1728 2541 
Q 1456 2541 1237 2417 
Q 1019 2294 894 2097 
L 366 2166 
L 809 4519 
L 3088 4519 
L 3088 3981 
L 1259 3981 
L 1013 2750 
Q 1425 3038 1878 3038 
Q 2478 3038 2890 2622 
Q 3303 2206 3303 1553 
Q 3303 931 2941 478 
Q 2500 -78 1738 -78 
Q 1113 -78 717 272 
Q 322 622 266 1200 
z
" transform="scale(0.015625)"/>
       </defs>
       <use xlink:href="#ArialMT-31"/>
       <use xlink:href="#ArialMT-35" x="55.615234"/>
      </g>
     </g>
    </g>
    <g id="xtick_5">
     <g id="text_5">
      <!-- 5 -->
      <g style="fill: #444444" transform="translate(336.122291 229.840141)scale(0.09 -0.09)">
       <use xlink:href="#ArialMT-35"/>
      </g>
     </g>
    </g>
    <g id="xtick_6">
     <g id="text_6">
      <!-- 126 -->
      <g style="fill: #444444" transform="translate(395.87405 229.840141)scale(0.09 -0.09)">
       <defs>
        <path id="ArialMT-32" d="M 3222 541 
L 3222 0 
L 194 0 
Q 188 203 259 391 
Q 375 700 629 1000 
Q 884 1300 1366 1694 
Q 2113 2306 2375 2664 
Q 2638 3022 2638 3341 
Q 2638 3675 2398 3904 
Q 2159 4134 1775 4134 
Q 1369 4134 1125 3890 
Q 881 3647 878 3216 
L 300 3275 
Q 359 3922 746 4261 
Q 1134 4600 1788 4600 
Q 2447 4600 2831 4234 
Q 3216 3869 3216 3328 
Q 3216 3053 3103 2787 
Q 2991 2522 2730 2228 
Q 2469 1934 1863 1422 
Q 1356 997 1212 845 
Q 1069 694 975 541 
L 3222 541 
z
" transform="scale(0.015625)"/>
       </defs>
       <use xlink:href="#ArialMT-31"/>
       <use xlink:href="#ArialMT-32" x="55.615234"/>
       <use xlink:href="#ArialMT-36" x="111.230469"/>
      </g>
     </g>
    </g>
    <g id="xtick_7">
     <g id="text_7">
      <!-- 62 -->
      <g style="fill: #444444" transform="translate(463.133075 229.840141)scale(0.09 -0.09)">
       <use xlink:href="#ArialMT-36"/>
       <use xlink:href="#ArialMT-32" x="55.615234"/>
      </g>
     </g>
    </g>
    <g id="text_8">
     <!-- Patient -->
     <g style="fill: #444444" transform="translate(259.859048 242.070923)scale(0.09 -0.09)">
      <defs>
       <path id="ArialMT-50" d="M 494 0 
L 494 4581 
L 2222 4581 
Q 2678 4581 2919 4538 
Q 3256 4481 3484 4323 
Q 3713 4166 3852 3881 
Q 3991 3597 3991 3256 
Q 3991 2672 3619 2267 
Q 3247 1863 2275 1863 
L 1100 1863 
L 1100 0 
L 494 0 
z
M 1100 2403 
L 2284 2403 
Q 2872 2403 3119 2622 
Q 3366 2841 3366 3238 
Q 3366 3525 3220 3729 
Q 3075 3934 2838 4000 
Q 2684 4041 2272 4041 
L 1100 4041 
L 1100 2403 
z
" transform="scale(0.015625)"/>
       <path id="ArialMT-61" d="M 2588 409 
Q 2275 144 1986 34 
Q 1697 -75 1366 -75 
Q 819 -75 525 192 
Q 231 459 231 875 
Q 231 1119 342 1320 
Q 453 1522 633 1644 
Q 813 1766 1038 1828 
Q 1203 1872 1538 1913 
Q 2219 1994 2541 2106 
Q 2544 2222 2544 2253 
Q 2544 2597 2384 2738 
Q 2169 2928 1744 2928 
Q 1347 2928 1158 2789 
Q 969 2650 878 2297 
L 328 2372 
Q 403 2725 575 2942 
Q 747 3159 1072 3276 
Q 1397 3394 1825 3394 
Q 2250 3394 2515 3294 
Q 2781 3194 2906 3042 
Q 3031 2891 3081 2659 
Q 3109 2516 3109 2141 
L 3109 1391 
Q 3109 606 3145 398 
Q 3181 191 3288 0 
L 2700 0 
Q 2613 175 2588 409 
z
M 2541 1666 
Q 2234 1541 1622 1453 
Q 1275 1403 1131 1340 
Q 988 1278 909 1158 
Q 831 1038 831 891 
Q 831 666 1001 516 
Q 1172 366 1500 366 
Q 1825 366 2078 508 
Q 2331 650 2450 897 
Q 2541 1088 2541 1459 
L 2541 1666 
z
" transform="scale(0.015625)"/>
       <path id="ArialMT-74" d="M 1650 503 
L 1731 6 
Q 1494 -44 1306 -44 
Q 1000 -44 831 53 
Q 663 150 594 308 
Q 525 466 525 972 
L 525 2881 
L 113 2881 
L 113 3319 
L 525 3319 
L 525 4141 
L 1084 4478 
L 1084 3319 
L 1650 3319 
L 1650 2881 
L 1084 2881 
L 1084 941 
Q 1084 700 1114 631 
Q 1144 563 1211 522 
Q 1278 481 1403 481 
Q 1497 481 1650 503 
z
" transform="scale(0.015625)"/>
       <path id="ArialMT-69" d="M 425 3934 
L 425 4581 
L 988 4581 
L 988 3934 
L 425 3934 
z
M 425 0 
L 425 3319 
L 988 3319 
L 988 0 
L 425 0 
z
" transform="scale(0.015625)"/>
       <path id="ArialMT-65" d="M 2694 1069 
L 3275 997 
Q 3138 488 2766 206 
Q 2394 -75 1816 -75 
Q 1088 -75 661 373 
Q 234 822 234 1631 
Q 234 2469 665 2931 
Q 1097 3394 1784 3394 
Q 2450 3394 2872 2941 
Q 3294 2488 3294 1666 
Q 3294 1616 3291 1516 
L 816 1516 
Q 847 969 1125 678 
Q 1403 388 1819 388 
Q 2128 388 2347 550 
Q 2566 713 2694 1069 
z
M 847 1978 
L 2700 1978 
Q 2663 2397 2488 2606 
Q 2219 2931 1791 2931 
Q 1403 2931 1139 2672 
Q 875 2413 847 1978 
z
" transform="scale(0.015625)"/>
       <path id="ArialMT-6e" d="M 422 0 
L 422 3319 
L 928 3319 
L 928 2847 
Q 1294 3394 1984 3394 
Q 2284 3394 2536 3286 
Q 2788 3178 2913 3003 
Q 3038 2828 3088 2588 
Q 3119 2431 3119 2041 
L 3119 0 
L 2556 0 
L 2556 2019 
Q 2556 2363 2490 2533 
Q 2425 2703 2258 2804 
Q 2091 2906 1866 2906 
Q 1506 2906 1245 2678 
Q 984 2450 984 1813 
L 984 0 
L 422 0 
z
" transform="scale(0.015625)"/>
      </defs>
      <use xlink:href="#ArialMT-50"/>
      <use xlink:href="#ArialMT-61" x="66.699219"/>
      <use xlink:href="#ArialMT-74" x="122.314453"/>
      <use xlink:href="#ArialMT-69" x="150.097656"/>
      <use xlink:href="#ArialMT-65" x="172.314453"/>
      <use xlink:href="#ArialMT-6e" x="227.929688"/>
      <use xlink:href="#ArialMT-74" x="283.544922"/>
     </g>
    </g>
   </g>
   <g id="matplotlib.axis_2">
    <g id="ytick_1">
     <g id="text_9">
      <!-- 0 -->
      <g style="fill: #444444" transform="translate(32.715156 208.821996)scale(0.09 -0.09)">
       <defs>
        <path id="ArialMT-30" d="M 266 2259 
Q 266 3072 433 3567 
Q 600 4063 929 4331 
Q 1259 4600 1759 4600 
Q 2128 4600 2406 4451 
Q 2684 4303 2865 4023 
Q 3047 3744 3150 3342 
Q 3253 2941 3253 2259 
Q 3253 1453 3087 958 
Q 2922 463 2592 192 
Q 2263 -78 1759 -78 
Q 1097 -78 719 397 
Q 266 969 266 2259 
z
M 844 2259 
Q 844 1131 1108 757 
Q 1372 384 1759 384 
Q 2147 384 2411 759 
Q 2675 1134 2675 2259 
Q 2675 3391 2411 3762 
Q 2147 4134 1753 4134 
Q 1366 4134 1134 3806 
Q 844 3388 844 2259 
z
" transform="scale(0.015625)"/>
       </defs>
       <use xlink:href="#ArialMT-30"/>
      </g>
     </g>
    </g>
    <g id="ytick_2">
     <g id="text_10">
      <!-- 100 -->
      <g style="fill: #444444" transform="translate(22.705469 170.457366)scale(0.09 -0.09)">
       <use xlink:href="#ArialMT-31"/>
       <use xlink:href="#ArialMT-30" x="55.615234"/>
       <use xlink:href="#ArialMT-30" x="111.230469"/>
      </g>
     </g>
    </g>
    <g id="ytick_3">
     <g id="text_11">
      <!-- 200 -->
      <g style="fill: #444444" transform="translate(22.705469 132.092736)scale(0.09 -0.09)">
       <use xlink:href="#ArialMT-32"/>
       <use xlink:href="#ArialMT-30" x="55.615234"/>
       <use xlink:href="#ArialMT-30" x="111.230469"/>
      </g>
     </g>
    </g>
    <g id="ytick_4">
     <g id="text_12">
      <!-- 300 -->
      <g style="fill: #444444" transform="translate(22.705469 93.728105)scale(0.09 -0.09)">
       <defs>
        <path id="ArialMT-33" d="M 269 1209 
L 831 1284 
Q 928 806 1161 595 
Q 1394 384 1728 384 
Q 2125 384 2398 659 
Q 2672 934 2672 1341 
Q 2672 1728 2419 1979 
Q 2166 2231 1775 2231 
Q 1616 2231 1378 2169 
L 1441 2663 
Q 1497 2656 1531 2656 
Q 1891 2656 2178 2843 
Q 2466 3031 2466 3422 
Q 2466 3731 2256 3934 
Q 2047 4138 1716 4138 
Q 1388 4138 1169 3931 
Q 950 3725 888 3313 
L 325 3413 
Q 428 3978 793 4289 
Q 1159 4600 1703 4600 
Q 2078 4600 2393 4439 
Q 2709 4278 2876 4000 
Q 3044 3722 3044 3409 
Q 3044 3113 2884 2869 
Q 2725 2625 2413 2481 
Q 2819 2388 3044 2092 
Q 3269 1797 3269 1353 
Q 3269 753 2831 336 
Q 2394 -81 1725 -81 
Q 1122 -81 723 278 
Q 325 638 269 1209 
z
" transform="scale(0.015625)"/>
       </defs>
       <use xlink:href="#ArialMT-33"/>
       <use xlink:href="#ArialMT-30" x="55.615234"/>
       <use xlink:href="#ArialMT-30" x="111.230469"/>
      </g>
     </g>
    </g>
    <g id="ytick_5">
     <g id="text_13">
      <!-- 400 -->
      <g style="fill: #444444" transform="translate(22.705469 55.363475)scale(0.09 -0.09)">
       <use xlink:href="#ArialMT-34"/>
       <use xlink:href="#ArialMT-30" x="55.615234"/>
       <use xlink:href="#ArialMT-30" x="111.230469"/>
      </g>
     </g>
    </g>
    <g id="text_14">
     <!-- Trimmed Means of M values (TMM) -->
     <g style="fill: #444444" transform="translate(16.81125 190.194993)rotate(-90)scale(0.09 -0.09)">
      <defs>
       <path id="ArialMT-54" d="M 1659 0 
L 1659 4041 
L 150 4041 
L 150 4581 
L 3781 4581 
L 3781 4041 
L 2266 4041 
L 2266 0 
L 1659 0 
z
" transform="scale(0.015625)"/>
       <path id="ArialMT-72" d="M 416 0 
L 416 3319 
L 922 3319 
L 922 2816 
Q 1116 3169 1280 3281 
Q 1444 3394 1641 3394 
Q 1925 3394 2219 3213 
L 2025 2691 
Q 1819 2813 1613 2813 
Q 1428 2813 1281 2702 
Q 1134 2591 1072 2394 
Q 978 2094 978 1738 
L 978 0 
L 416 0 
z
" transform="scale(0.015625)"/>
       <path id="ArialMT-6d" d="M 422 0 
L 422 3319 
L 925 3319 
L 925 2853 
Q 1081 3097 1340 3245 
Q 1600 3394 1931 3394 
Q 2300 3394 2536 3241 
Q 2772 3088 2869 2813 
Q 3263 3394 3894 3394 
Q 4388 3394 4653 3120 
Q 4919 2847 4919 2278 
L 4919 0 
L 4359 0 
L 4359 2091 
Q 4359 2428 4304 2576 
Q 4250 2725 4106 2815 
Q 3963 2906 3769 2906 
Q 3419 2906 3187 2673 
Q 2956 2441 2956 1928 
L 2956 0 
L 2394 0 
L 2394 2156 
Q 2394 2531 2256 2718 
Q 2119 2906 1806 2906 
Q 1569 2906 1367 2781 
Q 1166 2656 1075 2415 
Q 984 2175 984 1722 
L 984 0 
L 422 0 
z
" transform="scale(0.015625)"/>
       <path id="ArialMT-64" d="M 2575 0 
L 2575 419 
Q 2259 -75 1647 -75 
Q 1250 -75 917 144 
Q 584 363 401 755 
Q 219 1147 219 1656 
Q 219 2153 384 2558 
Q 550 2963 881 3178 
Q 1213 3394 1622 3394 
Q 1922 3394 2156 3267 
Q 2391 3141 2538 2938 
L 2538 4581 
L 3097 4581 
L 3097 0 
L 2575 0 
z
M 797 1656 
Q 797 1019 1065 703 
Q 1334 388 1700 388 
Q 2069 388 2326 689 
Q 2584 991 2584 1609 
Q 2584 2291 2321 2609 
Q 2059 2928 1675 2928 
Q 1300 2928 1048 2622 
Q 797 2316 797 1656 
z
" transform="scale(0.015625)"/>
       <path id="ArialMT-20" transform="scale(0.015625)"/>
       <path id="ArialMT-4d" d="M 475 0 
L 475 4581 
L 1388 4581 
L 2472 1338 
Q 2622 884 2691 659 
Q 2769 909 2934 1394 
L 4031 4581 
L 4847 4581 
L 4847 0 
L 4263 0 
L 4263 3834 
L 2931 0 
L 2384 0 
L 1059 3900 
L 1059 0 
L 475 0 
z
" transform="scale(0.015625)"/>
       <path id="ArialMT-73" d="M 197 991 
L 753 1078 
Q 800 744 1014 566 
Q 1228 388 1613 388 
Q 2000 388 2187 545 
Q 2375 703 2375 916 
Q 2375 1106 2209 1216 
Q 2094 1291 1634 1406 
Q 1016 1563 777 1677 
Q 538 1791 414 1992 
Q 291 2194 291 2438 
Q 291 2659 392 2848 
Q 494 3038 669 3163 
Q 800 3259 1026 3326 
Q 1253 3394 1513 3394 
Q 1903 3394 2198 3281 
Q 2494 3169 2634 2976 
Q 2775 2784 2828 2463 
L 2278 2388 
Q 2241 2644 2061 2787 
Q 1881 2931 1553 2931 
Q 1166 2931 1000 2803 
Q 834 2675 834 2503 
Q 834 2394 903 2306 
Q 972 2216 1119 2156 
Q 1203 2125 1616 2013 
Q 2213 1853 2448 1751 
Q 2684 1650 2818 1456 
Q 2953 1263 2953 975 
Q 2953 694 2789 445 
Q 2625 197 2315 61 
Q 2006 -75 1616 -75 
Q 969 -75 630 194 
Q 291 463 197 991 
z
" transform="scale(0.015625)"/>
       <path id="ArialMT-6f" d="M 213 1659 
Q 213 2581 725 3025 
Q 1153 3394 1769 3394 
Q 2453 3394 2887 2945 
Q 3322 2497 3322 1706 
Q 3322 1066 3130 698 
Q 2938 331 2570 128 
Q 2203 -75 1769 -75 
Q 1072 -75 642 372 
Q 213 819 213 1659 
z
M 791 1659 
Q 791 1022 1069 705 
Q 1347 388 1769 388 
Q 2188 388 2466 706 
Q 2744 1025 2744 1678 
Q 2744 2294 2464 2611 
Q 2184 2928 1769 2928 
Q 1347 2928 1069 2612 
Q 791 2297 791 1659 
z
" transform="scale(0.015625)"/>
       <path id="ArialMT-66" d="M 556 0 
L 556 2881 
L 59 2881 
L 59 3319 
L 556 3319 
L 556 3672 
Q 556 4006 616 4169 
Q 697 4388 901 4523 
Q 1106 4659 1475 4659 
Q 1713 4659 2000 4603 
L 1916 4113 
Q 1741 4144 1584 4144 
Q 1328 4144 1222 4034 
Q 1116 3925 1116 3625 
L 1116 3319 
L 1763 3319 
L 1763 2881 
L 1116 2881 
L 1116 0 
L 556 0 
z
" transform="scale(0.015625)"/>
       <path id="ArialMT-76" d="M 1344 0 
L 81 3319 
L 675 3319 
L 1388 1331 
Q 1503 1009 1600 663 
Q 1675 925 1809 1294 
L 2547 3319 
L 3125 3319 
L 1869 0 
L 1344 0 
z
" transform="scale(0.015625)"/>
       <path id="ArialMT-6c" d="M 409 0 
L 409 4581 
L 972 4581 
L 972 0 
L 409 0 
z
" transform="scale(0.015625)"/>
       <path id="ArialMT-75" d="M 2597 0 
L 2597 488 
Q 2209 -75 1544 -75 
Q 1250 -75 995 37 
Q 741 150 617 320 
Q 494 491 444 738 
Q 409 903 409 1263 
L 409 3319 
L 972 3319 
L 972 1478 
Q 972 1038 1006 884 
Q 1059 663 1231 536 
Q 1403 409 1656 409 
Q 1909 409 2131 539 
Q 2353 669 2445 892 
Q 2538 1116 2538 1541 
L 2538 3319 
L 3100 3319 
L 3100 0 
L 2597 0 
z
" transform="scale(0.015625)"/>
       <path id="ArialMT-28" d="M 1497 -1347 
Q 1031 -759 709 28 
Q 388 816 388 1659 
Q 388 2403 628 3084 
Q 909 3875 1497 4659 
L 1900 4659 
Q 1522 4009 1400 3731 
Q 1209 3300 1100 2831 
Q 966 2247 966 1656 
Q 966 153 1900 -1347 
L 1497 -1347 
z
" transform="scale(0.015625)"/>
       <path id="ArialMT-29" d="M 791 -1347 
L 388 -1347 
Q 1322 153 1322 1656 
Q 1322 2244 1188 2822 
Q 1081 3291 891 3722 
Q 769 4003 388 4659 
L 791 4659 
Q 1378 3875 1659 3084 
Q 1900 2403 1900 1659 
Q 1900 816 1576 28 
Q 1253 -759 791 -1347 
z
" transform="scale(0.015625)"/>
      </defs>
      <use xlink:href="#ArialMT-54"/>
      <use xlink:href="#ArialMT-72" x="57.333984"/>
      <use xlink:href="#ArialMT-69" x="90.634766"/>
      <use xlink:href="#ArialMT-6d" x="112.851562"/>
      <use xlink:href="#ArialMT-6d" x="196.152344"/>
      <use xlink:href="#ArialMT-65" x="279.453125"/>
      <use xlink:href="#ArialMT-64" x="335.068359"/>
      <use xlink:href="#ArialMT-20" x="390.683594"/>
      <use xlink:href="#ArialMT-4d" x="418.466797"/>
      <use xlink:href="#ArialMT-65" x="501.767578"/>
      <use xlink:href="#ArialMT-61" x="557.382812"/>
      <use xlink:href="#ArialMT-6e" x="612.998047"/>
      <use xlink:href="#ArialMT-73" x="668.613281"/>
      <use xlink:href="#ArialMT-20" x="718.613281"/>
      <use xlink:href="#ArialMT-6f" x="746.396484"/>
      <use xlink:href="#ArialMT-66" x="802.011719"/>
      <use xlink:href="#ArialMT-20" x="829.794922"/>
      <use xlink:href="#ArialMT-4d" x="857.578125"/>
      <use xlink:href="#ArialMT-20" x="940.878906"/>
      <use xlink:href="#ArialMT-76" x="968.662109"/>
      <use xlink:href="#ArialMT-61" x="1018.662109"/>
      <use xlink:href="#ArialMT-6c" x="1074.277344"/>
      <use xlink:href="#ArialMT-75" x="1096.494141"/>
      <use xlink:href="#ArialMT-65" x="1152.109375"/>
      <use xlink:href="#ArialMT-73" x="1207.724609"/>
      <use xlink:href="#ArialMT-20" x="1257.724609"/>
      <use xlink:href="#ArialMT-28" x="1285.507812"/>
      <use xlink:href="#ArialMT-54" x="1318.808594"/>
      <use xlink:href="#ArialMT-4d" x="1379.892578"/>
      <use xlink:href="#ArialMT-4d" x="1463.193359"/>
      <use xlink:href="#ArialMT-29" x="1546.494141"/>
     </g>
    </g>
   </g>
   <g id="PolyCollection_1">
    <defs>
     <path id="mc8eeb1946b" d="M 80.261611 -74.85814 
L 78.934992 -74.85814 
L 78.926979 -75.2389 
L 78.919607 -75.61966 
L 78.912894 -76.00042 
L 78.906856 -76.38118 
L 78.901507 -76.761941 
L 78.896858 -77.142701 
L 78.89292 -77.523461 
L 78.889698 -77.904221 
L 78.887196 -78.284981 
L 78.885417 -78.665742 
L 78.88436 -79.046502 
L 78.884021 -79.427262 
L 78.884394 -79.808022 
L 78.885473 -80.188782 
L 78.887245 -80.569543 
L 78.889698 -80.950303 
L 78.892818 -81.331063 
L 78.896588 -81.711823 
L 78.900987 -82.092583 
L 78.905996 -82.473344 
L 78.911591 -82.854104 
L 78.917748 -83.234864 
L 78.924441 -83.615624 
L 78.931641 -83.996384 
L 78.939321 -84.377145 
L 78.94745 -84.757905 
L 78.955997 -85.138665 
L 78.964931 -85.519425 
L 78.974217 -85.900185 
L 78.983823 -86.280946 
L 78.993715 -86.661706 
L 79.003858 -87.042466 
L 79.014219 -87.423226 
L 79.024762 -87.803986 
L 79.035453 -88.184747 
L 79.046258 -88.565507 
L 79.057142 -88.946267 
L 79.068073 -89.327027 
L 79.079016 -89.707787 
L 79.08994 -90.088548 
L 79.100813 -90.469308 
L 79.111605 -90.850068 
L 79.122285 -91.230828 
L 79.132825 -91.611588 
L 79.143198 -91.992349 
L 79.153376 -92.373109 
L 79.163336 -92.753869 
L 79.173054 -93.134629 
L 79.182508 -93.515389 
L 79.191678 -93.89615 
L 79.200544 -94.27691 
L 79.20909 -94.65767 
L 79.2173 -95.03843 
L 79.225161 -95.41919 
L 79.232661 -95.799951 
L 79.23979 -96.180711 
L 79.246539 -96.561471 
L 79.252903 -96.942231 
L 79.258876 -97.322991 
L 79.264458 -97.703752 
L 79.269646 -98.084512 
L 79.274443 -98.465272 
L 79.278851 -98.846032 
L 79.282875 -99.226792 
L 79.286522 -99.607553 
L 79.289801 -99.988313 
L 79.292721 -100.369073 
L 79.295294 -100.749833 
L 79.297534 -101.130593 
L 79.299455 -101.511354 
L 79.301073 -101.892114 
L 79.302407 -102.272874 
L 79.303474 -102.653634 
L 79.304294 -103.034394 
L 79.304888 -103.415155 
L 79.305278 -103.795915 
L 79.305486 -104.176675 
L 79.305535 -104.557435 
L 79.305449 -104.938195 
L 79.305251 -105.318956 
L 79.304965 -105.699716 
L 79.304616 -106.080476 
L 79.304227 -106.461236 
L 79.303823 -106.841996 
L 79.303427 -107.222757 
L 79.303061 -107.603517 
L 79.30275 -107.984277 
L 79.302514 -108.365037 
L 79.302374 -108.745797 
L 79.302351 -109.126558 
L 79.302464 -109.507318 
L 79.302729 -109.888078 
L 79.303165 -110.268838 
L 79.303785 -110.649598 
L 79.304605 -111.030359 
L 79.305636 -111.411119 
L 79.306889 -111.791879 
L 79.308374 -112.172639 
L 79.310098 -112.553399 
L 79.886505 -112.553399 
L 79.886505 -112.553399 
L 79.888229 -112.172639 
L 79.889714 -111.791879 
L 79.890967 -111.411119 
L 79.891998 -111.030359 
L 79.892817 -110.649598 
L 79.893438 -110.268838 
L 79.893874 -109.888078 
L 79.894139 -109.507318 
L 79.894252 -109.126558 
L 79.894229 -108.745797 
L 79.894089 -108.365037 
L 79.893853 -107.984277 
L 79.893541 -107.603517 
L 79.893176 -107.222757 
L 79.89278 -106.841996 
L 79.892376 -106.461236 
L 79.891987 -106.080476 
L 79.891638 -105.699716 
L 79.891352 -105.318956 
L 79.891154 -104.938195 
L 79.891067 -104.557435 
L 79.891117 -104.176675 
L 79.891325 -103.795915 
L 79.891715 -103.415155 
L 79.892309 -103.034394 
L 79.893129 -102.653634 
L 79.894196 -102.272874 
L 79.89553 -101.892114 
L 79.897148 -101.511354 
L 79.899069 -101.130593 
L 79.901309 -100.749833 
L 79.903882 -100.369073 
L 79.906802 -99.988313 
L 79.910081 -99.607553 
L 79.913728 -99.226792 
L 79.917752 -98.846032 
L 79.92216 -98.465272 
L 79.926957 -98.084512 
L 79.932145 -97.703752 
L 79.937726 -97.322991 
L 79.9437 -96.942231 
L 79.950064 -96.561471 
L 79.956813 -96.180711 
L 79.963942 -95.799951 
L 79.971442 -95.41919 
L 79.979303 -95.03843 
L 79.987513 -94.65767 
L 79.996059 -94.27691 
L 80.004925 -93.89615 
L 80.014095 -93.515389 
L 80.023549 -93.134629 
L 80.033267 -92.753869 
L 80.043227 -92.373109 
L 80.053405 -91.992349 
L 80.063778 -91.611588 
L 80.074318 -91.230828 
L 80.084998 -90.850068 
L 80.095789 -90.469308 
L 80.106663 -90.088548 
L 80.117587 -89.707787 
L 80.12853 -89.327027 
L 80.139461 -88.946267 
L 80.150345 -88.565507 
L 80.16115 -88.184747 
L 80.171841 -87.803986 
L 80.182384 -87.423226 
L 80.192745 -87.042466 
L 80.202888 -86.661706 
L 80.21278 -86.280946 
L 80.222386 -85.900185 
L 80.231672 -85.519425 
L 80.240606 -85.138665 
L 80.249153 -84.757905 
L 80.257282 -84.377145 
L 80.264962 -83.996384 
L 80.272162 -83.615624 
L 80.278855 -83.234864 
L 80.285012 -82.854104 
L 80.290607 -82.473344 
L 80.295616 -82.092583 
L 80.300015 -81.711823 
L 80.303785 -81.331063 
L 80.306905 -80.950303 
L 80.309358 -80.569543 
L 80.31113 -80.188782 
L 80.312208 -79.808022 
L 80.312582 -79.427262 
L 80.312243 -79.046502 
L 80.311186 -78.665742 
L 80.309407 -78.284981 
L 80.306905 -77.904221 
L 80.303683 -77.523461 
L 80.299745 -77.142701 
L 80.295096 -76.761941 
L 80.289747 -76.38118 
L 80.283709 -76.00042 
L 80.276996 -75.61966 
L 80.269624 -75.2389 
L 80.261611 -74.85814 
z
" style="stroke: #999999; stroke-width: 2"/>
    </defs>
    <g clip-path="url(#pcff554575b)">
     <use xlink:href="#mc8eeb1946b" x="0" y="255.11811" style="fill: #ffffff; stroke: #999999; stroke-width: 2"/>
    </g>
   </g>
   <g id="PolyCollection_2">
    <defs>
     <path id="m172d7dd61e" d="M 145.80583 -60.021586 
L 142.903978 -60.021586 
L 142.853045 -60.111878 
L 142.80163 -60.20217 
L 142.749734 -60.292462 
L 142.697352 -60.382754 
L 142.644478 -60.473046 
L 142.591105 -60.563337 
L 142.537226 -60.653629 
L 142.482836 -60.743921 
L 142.427929 -60.834213 
L 142.372505 -60.924505 
L 142.316564 -61.014797 
L 142.260112 -61.105089 
L 142.203161 -61.195381 
L 142.145727 -61.285673 
L 142.087834 -61.375965 
L 142.029513 -61.466257 
L 141.970804 -61.556549 
L 141.911753 -61.646841 
L 141.852418 -61.737133 
L 141.792866 -61.827425 
L 141.733172 -61.917717 
L 141.673424 -62.008009 
L 141.613719 -62.098301 
L 141.554163 -62.188593 
L 141.494876 -62.278884 
L 141.435984 -62.369176 
L 141.377628 -62.459468 
L 141.319955 -62.54976 
L 141.263123 -62.640052 
L 141.2073 -62.730344 
L 141.152661 -62.820636 
L 141.099389 -62.910928 
L 141.047676 -63.00122 
L 140.997717 -63.091512 
L 140.949714 -63.181804 
L 140.903872 -63.272096 
L 140.860399 -63.362388 
L 140.819503 -63.45268 
L 140.781393 -63.542972 
L 140.746275 -63.633264 
L 140.71435 -63.723556 
L 140.685814 -63.813848 
L 140.660855 -63.90414 
L 140.639651 -63.994431 
L 140.622369 -64.084723 
L 140.60916 -64.175015 
L 140.600162 -64.265307 
L 140.595491 -64.355599 
L 140.595247 -64.445891 
L 140.599506 -64.536183 
L 140.608322 -64.626475 
L 140.621724 -64.716767 
L 140.639715 -64.807059 
L 140.662271 -64.897351 
L 140.689343 -64.987643 
L 140.720851 -65.077935 
L 140.756689 -65.168227 
L 140.796725 -65.258519 
L 140.840797 -65.348811 
L 140.88872 -65.439103 
L 140.940283 -65.529395 
L 140.995255 -65.619686 
L 141.053382 -65.709978 
L 141.114392 -65.80027 
L 141.178 -65.890562 
L 141.243904 -65.980854 
L 141.311796 -66.071146 
L 141.381359 -66.161438 
L 141.452275 -66.25173 
L 141.524223 -66.342022 
L 141.596888 -66.432314 
L 141.669961 -66.522606 
L 141.743141 -66.612898 
L 141.816142 -66.70319 
L 141.888691 -66.793482 
L 141.960536 -66.883774 
L 142.031443 -66.974066 
L 142.1012 -67.064358 
L 142.169622 -67.15465 
L 142.236544 -67.244942 
L 142.301831 -67.335233 
L 142.365371 -67.425525 
L 142.427081 -67.515817 
L 142.486902 -67.606109 
L 142.5448 -67.696401 
L 142.600767 -67.786693 
L 142.654814 -67.876985 
L 142.706977 -67.967277 
L 142.757308 -68.057569 
L 142.805877 -68.147861 
L 142.852768 -68.238153 
L 142.898077 -68.328445 
L 142.941909 -68.418737 
L 142.984378 -68.509029 
L 143.0256 -68.599321 
L 143.065694 -68.689613 
L 143.104777 -68.779905 
L 143.142966 -68.870197 
L 143.180372 -68.960489 
L 145.529437 -68.960489 
L 145.529437 -68.960489 
L 145.566842 -68.870197 
L 145.605032 -68.779905 
L 145.644115 -68.689613 
L 145.684209 -68.599321 
L 145.725431 -68.509029 
L 145.767899 -68.418737 
L 145.811732 -68.328445 
L 145.857041 -68.238153 
L 145.903932 -68.147861 
L 145.952501 -68.057569 
L 146.002832 -67.967277 
L 146.054994 -67.876985 
L 146.109042 -67.786693 
L 146.165008 -67.696401 
L 146.222907 -67.606109 
L 146.282728 -67.515817 
L 146.344438 -67.425525 
L 146.407978 -67.335233 
L 146.473265 -67.244942 
L 146.540187 -67.15465 
L 146.608608 -67.064358 
L 146.678366 -66.974066 
L 146.749273 -66.883774 
L 146.821118 -66.793482 
L 146.893667 -66.70319 
L 146.966668 -66.612898 
L 147.039848 -66.522606 
L 147.11292 -66.432314 
L 147.185586 -66.342022 
L 147.257534 -66.25173 
L 147.32845 -66.161438 
L 147.398013 -66.071146 
L 147.465905 -65.980854 
L 147.531809 -65.890562 
L 147.595416 -65.80027 
L 147.656427 -65.709978 
L 147.714554 -65.619686 
L 147.769526 -65.529395 
L 147.821089 -65.439103 
L 147.869012 -65.348811 
L 147.913084 -65.258519 
L 147.953119 -65.168227 
L 147.988958 -65.077935 
L 148.020466 -64.987643 
L 148.047537 -64.897351 
L 148.070094 -64.807059 
L 148.088085 -64.716767 
L 148.101487 -64.626475 
L 148.110303 -64.536183 
L 148.114562 -64.445891 
L 148.114318 -64.355599 
L 148.109647 -64.265307 
L 148.100648 -64.175015 
L 148.08744 -64.084723 
L 148.070158 -63.994431 
L 148.048954 -63.90414 
L 148.023995 -63.813848 
L 147.995459 -63.723556 
L 147.963534 -63.633264 
L 147.928415 -63.542972 
L 147.890306 -63.45268 
L 147.84941 -63.362388 
L 147.805937 -63.272096 
L 147.760095 -63.181804 
L 147.712092 -63.091512 
L 147.662133 -63.00122 
L 147.61042 -62.910928 
L 147.557148 -62.820636 
L 147.502509 -62.730344 
L 147.446686 -62.640052 
L 147.389854 -62.54976 
L 147.332181 -62.459468 
L 147.273824 -62.369176 
L 147.214933 -62.278884 
L 147.155646 -62.188593 
L 147.09609 -62.098301 
L 147.036385 -62.008009 
L 146.976637 -61.917717 
L 146.916943 -61.827425 
L 146.857391 -61.737133 
L 146.798056 -61.646841 
L 146.739005 -61.556549 
L 146.680295 -61.466257 
L 146.621975 -61.375965 
L 146.564082 -61.285673 
L 146.506648 -61.195381 
L 146.449697 -61.105089 
L 146.393245 -61.014797 
L 146.337304 -60.924505 
L 146.28188 -60.834213 
L 146.226973 -60.743921 
L 146.172583 -60.653629 
L 146.118704 -60.563337 
L 146.065331 -60.473046 
L 146.012457 -60.382754 
L 145.960074 -60.292462 
L 145.908178 -60.20217 
L 145.856764 -60.111878 
L 145.80583 -60.021586 
z
" style="stroke: #999999; stroke-width: 2"/>
    </defs>
    <g clip-path="url(#pcff554575b)">
     <use xlink:href="#m172d7dd61e" x="0" y="255.11811" style="fill: #ffffff; stroke: #999999; stroke-width: 2"/>
    </g>
   </g>
   <g id="PolyCollection_3">
    <defs>
     <path id="mc613bdc03c" d="M 209.653103 -64.44325 
L 208.569911 -64.44325 
L 208.55621 -64.710378 
L 208.542776 -64.977506 
L 208.529633 -65.244633 
L 208.516804 -65.511761 
L 208.504307 -65.778888 
L 208.492161 -66.046016 
L 208.480381 -66.313143 
L 208.46898 -66.580271 
L 208.457968 -66.847398 
L 208.447354 -67.114526 
L 208.437142 -67.381653 
L 208.427336 -67.648781 
L 208.417934 -67.915908 
L 208.408935 -68.183036 
L 208.400333 -68.450163 
L 208.39212 -68.717291 
L 208.384286 -68.984419 
L 208.376819 -69.251546 
L 208.369705 -69.518674 
L 208.362928 -69.785801 
L 208.356469 -70.052929 
L 208.35031 -70.320056 
L 208.34443 -70.587184 
L 208.338809 -70.854311 
L 208.333425 -71.121439 
L 208.328256 -71.388566 
L 208.32328 -71.655694 
L 208.318475 -71.922821 
L 208.31382 -72.189949 
L 208.309296 -72.457076 
L 208.304883 -72.724204 
L 208.300564 -72.991332 
L 208.296322 -73.258459 
L 208.292145 -73.525587 
L 208.288018 -73.792714 
L 208.283934 -74.059842 
L 208.279883 -74.326969 
L 208.27586 -74.594097 
L 208.271864 -74.861224 
L 208.267893 -75.128352 
L 208.26395 -75.395479 
L 208.260039 -75.662607 
L 208.256168 -75.929734 
L 208.252344 -76.196862 
L 208.248581 -76.46399 
L 208.24489 -76.731117 
L 208.241287 -76.998245 
L 208.237789 -77.265372 
L 208.234413 -77.5325 
L 208.231178 -77.799627 
L 208.228103 -78.066755 
L 208.22521 -78.333882 
L 208.222518 -78.60101 
L 208.220049 -78.868137 
L 208.217821 -79.135265 
L 208.215856 -79.402392 
L 208.214173 -79.66952 
L 208.212789 -79.936647 
L 208.211722 -80.203775 
L 208.210988 -80.470903 
L 208.210602 -80.73803 
L 208.210576 -81.005158 
L 208.210923 -81.272285 
L 208.211653 -81.539413 
L 208.212773 -81.80654 
L 208.21429 -82.073668 
L 208.21621 -82.340795 
L 208.218536 -82.607923 
L 208.22127 -82.87505 
L 208.224413 -83.142178 
L 208.227965 -83.409305 
L 208.231923 -83.676433 
L 208.236286 -83.943561 
L 208.241049 -84.210688 
L 208.246209 -84.477816 
L 208.25176 -84.744943 
L 208.257698 -85.012071 
L 208.264017 -85.279198 
L 208.270712 -85.546326 
L 208.277776 -85.813453 
L 208.285205 -86.080581 
L 208.292993 -86.347708 
L 208.301134 -86.614836 
L 208.309624 -86.881963 
L 208.318457 -87.149091 
L 208.32763 -87.416218 
L 208.337138 -87.683346 
L 208.346975 -87.950474 
L 208.35714 -88.217601 
L 208.367627 -88.484729 
L 208.378432 -88.751856 
L 208.38955 -89.018984 
L 208.400978 -89.286111 
L 208.41271 -89.553239 
L 208.424741 -89.820366 
L 208.437064 -90.087494 
L 208.449672 -90.354621 
L 208.462557 -90.621749 
L 208.475711 -90.888876 
L 209.747304 -90.888876 
L 209.747304 -90.888876 
L 209.760457 -90.621749 
L 209.773343 -90.354621 
L 209.785951 -90.087494 
L 209.798274 -89.820366 
L 209.810304 -89.553239 
L 209.822036 -89.286111 
L 209.833464 -89.018984 
L 209.844583 -88.751856 
L 209.855388 -88.484729 
L 209.865875 -88.217601 
L 209.876039 -87.950474 
L 209.885877 -87.683346 
L 209.895385 -87.416218 
L 209.904557 -87.149091 
L 209.913391 -86.881963 
L 209.921881 -86.614836 
L 209.930022 -86.347708 
L 209.93781 -86.080581 
L 209.945239 -85.813453 
L 209.952303 -85.546326 
L 209.958998 -85.279198 
L 209.965317 -85.012071 
L 209.971255 -84.744943 
L 209.976806 -84.477816 
L 209.981966 -84.210688 
L 209.986729 -83.943561 
L 209.991091 -83.676433 
L 209.99505 -83.409305 
L 209.998601 -83.142178 
L 210.001744 -82.87505 
L 210.004479 -82.607923 
L 210.006805 -82.340795 
L 210.008725 -82.073668 
L 210.010242 -81.80654 
L 210.011362 -81.539413 
L 210.012091 -81.272285 
L 210.012438 -81.005158 
L 210.012413 -80.73803 
L 210.012027 -80.470903 
L 210.011293 -80.203775 
L 210.010226 -79.936647 
L 210.008842 -79.66952 
L 210.007158 -79.402392 
L 210.005193 -79.135265 
L 210.002966 -78.868137 
L 210.000496 -78.60101 
L 209.997804 -78.333882 
L 209.994911 -78.066755 
L 209.991837 -77.799627 
L 209.988602 -77.5325 
L 209.985226 -77.265372 
L 209.981727 -76.998245 
L 209.978124 -76.731117 
L 209.974434 -76.46399 
L 209.97067 -76.196862 
L 209.966847 -75.929734 
L 209.962975 -75.662607 
L 209.959065 -75.395479 
L 209.955121 -75.128352 
L 209.951151 -74.861224 
L 209.947154 -74.594097 
L 209.943132 -74.326969 
L 209.939081 -74.059842 
L 209.934996 -73.792714 
L 209.93087 -73.525587 
L 209.926692 -73.258459 
L 209.922451 -72.991332 
L 209.918132 -72.724204 
L 209.913719 -72.457076 
L 209.909194 -72.189949 
L 209.90454 -71.922821 
L 209.899735 -71.655694 
L 209.894759 -71.388566 
L 209.889589 -71.121439 
L 209.884205 -70.854311 
L 209.878584 -70.587184 
L 209.872705 -70.320056 
L 209.866546 -70.052929 
L 209.860087 -69.785801 
L 209.85331 -69.518674 
L 209.846195 -69.251546 
L 209.838729 -68.984419 
L 209.830895 -68.717291 
L 209.822682 -68.450163 
L 209.81408 -68.183036 
L 209.80508 -67.915908 
L 209.795679 -67.648781 
L 209.785872 -67.381653 
L 209.77566 -67.114526 
L 209.765046 -66.847398 
L 209.754035 -66.580271 
L 209.742634 -66.313143 
L 209.730854 -66.046016 
L 209.718708 -65.778888 
L 209.706211 -65.511761 
L 209.693381 -65.244633 
L 209.680239 -64.977506 
L 209.666805 -64.710378 
L 209.653103 -64.44325 
z
" style="stroke: #999999; stroke-width: 2"/>
    </defs>
    <g clip-path="url(#pcff554575b)">
     <use xlink:href="#mc613bdc03c" x="0" y="255.11811" style="fill: #ffffff; stroke: #999999; stroke-width: 2"/>
    </g>
   </g>
   <g id="PolyCollection_4">
    <defs>
     <path id="m3ba2629e41" d="M 275.556935 -58.597187 
L 272.179285 -58.597187 
L 272.098361 -58.685833 
L 272.015906 -58.774479 
L 271.932079 -58.863125 
L 271.847057 -58.95177 
L 271.76104 -59.040416 
L 271.674244 -59.129062 
L 271.586906 -59.217708 
L 271.499279 -59.306354 
L 271.411635 -59.395 
L 271.32426 -59.483646 
L 271.237451 -59.572291 
L 271.151518 -59.660937 
L 271.066778 -59.749583 
L 270.98355 -59.838229 
L 270.902158 -59.926875 
L 270.82292 -60.015521 
L 270.746151 -60.104167 
L 270.672155 -60.192813 
L 270.601223 -60.281458 
L 270.533632 -60.370104 
L 270.469637 -60.45875 
L 270.409472 -60.547396 
L 270.353346 -60.636042 
L 270.30144 -60.724688 
L 270.253908 -60.813334 
L 270.210874 -60.901979 
L 270.172432 -60.990625 
L 270.138645 -61.079271 
L 270.109545 -61.167917 
L 270.085136 -61.256563 
L 270.065395 -61.345209 
L 270.050272 -61.433855 
L 270.039692 -61.5225 
L 270.033562 -61.611146 
L 270.031766 -61.699792 
L 270.034175 -61.788438 
L 270.040645 -61.877084 
L 270.051022 -61.96573 
L 270.065144 -62.054376 
L 270.082844 -62.143022 
L 270.103952 -62.231667 
L 270.128297 -62.320313 
L 270.155708 -62.408959 
L 270.186017 -62.497605 
L 270.219057 -62.586251 
L 270.254667 -62.674897 
L 270.29269 -62.763543 
L 270.332971 -62.852188 
L 270.375361 -62.940834 
L 270.419711 -63.02948 
L 270.46588 -63.118126 
L 270.513723 -63.206772 
L 270.563101 -63.295418 
L 270.613871 -63.384064 
L 270.665893 -63.472709 
L 270.719025 -63.561355 
L 270.773121 -63.650001 
L 270.828036 -63.738647 
L 270.883623 -63.827293 
L 270.939731 -63.915939 
L 270.996209 -64.004585 
L 271.052905 -64.093231 
L 271.109669 -64.181876 
L 271.16635 -64.270522 
L 271.222802 -64.359168 
L 271.27888 -64.447814 
L 271.334449 -64.53646 
L 271.389379 -64.625106 
L 271.443549 -64.713752 
L 271.496848 -64.802397 
L 271.549181 -64.891043 
L 271.600461 -64.979689 
L 271.65062 -65.068335 
L 271.699603 -65.156981 
L 271.747374 -65.245627 
L 271.793909 -65.334273 
L 271.839207 -65.422918 
L 271.883278 -65.511564 
L 271.926152 -65.60021 
L 271.967871 -65.688856 
L 272.008495 -65.777502 
L 272.048094 -65.866148 
L 272.08675 -65.954794 
L 272.124557 -66.04344 
L 272.161613 -66.132085 
L 272.198026 -66.220731 
L 272.233904 -66.309377 
L 272.269359 -66.398023 
L 272.304501 -66.486669 
L 272.33944 -66.575315 
L 272.374279 -66.663961 
L 272.409115 -66.752606 
L 272.444038 -66.841252 
L 272.479127 -66.929898 
L 272.514453 -67.018544 
L 272.550073 -67.10719 
L 272.58603 -67.195836 
L 272.622356 -67.284482 
L 272.659068 -67.373127 
L 275.077152 -67.373127 
L 275.077152 -67.373127 
L 275.113865 -67.284482 
L 275.150191 -67.195836 
L 275.186148 -67.10719 
L 275.221767 -67.018544 
L 275.257093 -66.929898 
L 275.292183 -66.841252 
L 275.327106 -66.752606 
L 275.361942 -66.663961 
L 275.39678 -66.575315 
L 275.431719 -66.486669 
L 275.466862 -66.398023 
L 275.502317 -66.309377 
L 275.538195 -66.220731 
L 275.574607 -66.132085 
L 275.611664 -66.04344 
L 275.64947 -65.954794 
L 275.688127 -65.866148 
L 275.727726 -65.777502 
L 275.768349 -65.688856 
L 275.810069 -65.60021 
L 275.852942 -65.511564 
L 275.897014 -65.422918 
L 275.942311 -65.334273 
L 275.988847 -65.245627 
L 276.036617 -65.156981 
L 276.085601 -65.068335 
L 276.13576 -64.979689 
L 276.18704 -64.891043 
L 276.239372 -64.802397 
L 276.292672 -64.713752 
L 276.346842 -64.625106 
L 276.401771 -64.53646 
L 276.45734 -64.447814 
L 276.513419 -64.359168 
L 276.56987 -64.270522 
L 276.626551 -64.181876 
L 276.683315 -64.093231 
L 276.740012 -64.004585 
L 276.79649 -63.915939 
L 276.852598 -63.827293 
L 276.908184 -63.738647 
L 276.963099 -63.650001 
L 277.017196 -63.561355 
L 277.070327 -63.472709 
L 277.122349 -63.384064 
L 277.17312 -63.295418 
L 277.222497 -63.206772 
L 277.270341 -63.118126 
L 277.316509 -63.02948 
L 277.36086 -62.940834 
L 277.403249 -62.852188 
L 277.44353 -62.763543 
L 277.481553 -62.674897 
L 277.517163 -62.586251 
L 277.550204 -62.497605 
L 277.580512 -62.408959 
L 277.607923 -62.320313 
L 277.632268 -62.231667 
L 277.653376 -62.143022 
L 277.671077 -62.054376 
L 277.685199 -61.96573 
L 277.695576 -61.877084 
L 277.702046 -61.788438 
L 277.704454 -61.699792 
L 277.702659 -61.611146 
L 277.696528 -61.5225 
L 277.685949 -61.433855 
L 277.670826 -61.345209 
L 277.651085 -61.256563 
L 277.626676 -61.167917 
L 277.597576 -61.079271 
L 277.563788 -60.990625 
L 277.525346 -60.901979 
L 277.482312 -60.813334 
L 277.434781 -60.724688 
L 277.382875 -60.636042 
L 277.326748 -60.547396 
L 277.266583 -60.45875 
L 277.202588 -60.370104 
L 277.134997 -60.281458 
L 277.064066 -60.192813 
L 276.99007 -60.104167 
L 276.913301 -60.015521 
L 276.834063 -59.926875 
L 276.75267 -59.838229 
L 276.669443 -59.749583 
L 276.584702 -59.660937 
L 276.498769 -59.572291 
L 276.411961 -59.483646 
L 276.324585 -59.395 
L 276.236941 -59.306354 
L 276.149315 -59.217708 
L 276.061976 -59.129062 
L 275.97518 -59.040416 
L 275.889163 -58.95177 
L 275.804142 -58.863125 
L 275.720315 -58.774479 
L 275.63786 -58.685833 
L 275.556935 -58.597187 
z
" style="stroke: #999999; stroke-width: 2"/>
    </defs>
    <g clip-path="url(#pcff554575b)">
     <use xlink:href="#m3ba2629e41" x="0" y="255.11811" style="fill: #ffffff; stroke: #999999; stroke-width: 2"/>
    </g>
   </g>
   <g id="PolyCollection_5">
    <defs>
     <path id="mba0f4405af" d="M 339.873225 -52.240308 
L 337.376201 -52.240308 
L 337.370811 -52.37948 
L 337.366216 -52.518652 
L 337.362409 -52.657824 
L 337.35938 -52.796996 
L 337.357117 -52.936168 
L 337.355604 -53.075339 
L 337.354825 -53.214511 
L 337.354759 -53.353683 
L 337.355385 -53.492855 
L 337.356678 -53.632027 
L 337.358613 -53.771199 
L 337.36116 -53.910371 
L 337.36429 -54.049542 
L 337.36797 -54.188714 
L 337.372168 -54.327886 
L 337.376847 -54.467058 
L 337.381973 -54.60623 
L 337.387507 -54.745402 
L 337.393411 -54.884574 
L 337.399646 -55.023746 
L 337.406172 -55.162917 
L 337.412949 -55.302089 
L 337.419937 -55.441261 
L 337.427095 -55.580433 
L 337.434382 -55.719605 
L 337.441759 -55.858777 
L 337.449185 -55.997949 
L 337.456622 -56.13712 
L 337.464031 -56.276292 
L 337.471375 -56.415464 
L 337.478618 -56.554636 
L 337.485725 -56.693808 
L 337.492662 -56.83298 
L 337.499398 -56.972152 
L 337.505901 -57.111323 
L 337.512144 -57.250495 
L 337.518101 -57.389667 
L 337.523746 -57.528839 
L 337.529057 -57.668011 
L 337.534014 -57.807183 
L 337.538599 -57.946355 
L 337.542797 -58.085527 
L 337.546594 -58.224698 
L 337.54998 -58.36387 
L 337.552947 -58.503042 
L 337.555487 -58.642214 
L 337.557599 -58.781386 
L 337.559282 -58.920558 
L 337.560536 -59.05973 
L 337.561365 -59.198901 
L 337.561777 -59.338073 
L 337.56178 -59.477245 
L 337.561384 -59.616417 
L 337.560604 -59.755589 
L 337.559453 -59.894761 
L 337.55795 -60.033933 
L 337.556114 -60.173104 
L 337.553966 -60.312276 
L 337.551529 -60.451448 
L 337.548828 -60.59062 
L 337.545887 -60.729792 
L 337.542736 -60.868964 
L 337.539401 -61.008136 
L 337.535914 -61.147308 
L 337.532306 -61.286479 
L 337.528606 -61.425651 
L 337.524849 -61.564823 
L 337.521066 -61.703995 
L 337.517291 -61.843167 
L 337.513558 -61.982339 
L 337.5099 -62.121511 
L 337.506351 -62.260682 
L 337.502944 -62.399854 
L 337.499713 -62.539026 
L 337.49669 -62.678198 
L 337.493908 -62.81737 
L 337.491397 -62.956542 
L 337.48919 -63.095714 
L 337.487315 -63.234885 
L 337.485802 -63.374057 
L 337.484677 -63.513229 
L 337.483967 -63.652401 
L 337.483698 -63.791573 
L 337.483892 -63.930745 
L 337.484571 -64.069917 
L 337.485756 -64.209089 
L 337.487466 -64.34826 
L 337.489717 -64.487432 
L 337.492524 -64.626604 
L 337.495901 -64.765776 
L 337.499859 -64.904948 
L 337.504408 -65.04412 
L 337.509554 -65.183292 
L 337.515305 -65.322463 
L 337.521663 -65.461635 
L 337.52863 -65.600807 
L 337.536206 -65.739979 
L 337.544388 -65.879151 
L 337.553174 -66.018323 
L 339.696253 -66.018323 
L 339.696253 -66.018323 
L 339.705038 -65.879151 
L 339.713221 -65.739979 
L 339.720797 -65.600807 
L 339.727764 -65.461635 
L 339.734122 -65.322463 
L 339.739872 -65.183292 
L 339.745019 -65.04412 
L 339.749567 -64.904948 
L 339.753525 -64.765776 
L 339.756902 -64.626604 
L 339.75971 -64.487432 
L 339.76196 -64.34826 
L 339.76367 -64.209089 
L 339.764855 -64.069917 
L 339.765534 -63.930745 
L 339.765728 -63.791573 
L 339.765459 -63.652401 
L 339.764749 -63.513229 
L 339.763625 -63.374057 
L 339.762111 -63.234885 
L 339.760236 -63.095714 
L 339.758029 -62.956542 
L 339.755519 -62.81737 
L 339.752736 -62.678198 
L 339.749714 -62.539026 
L 339.746482 -62.399854 
L 339.743076 -62.260682 
L 339.739527 -62.121511 
L 339.735869 -61.982339 
L 339.732135 -61.843167 
L 339.728361 -61.703995 
L 339.724578 -61.564823 
L 339.72082 -61.425651 
L 339.717121 -61.286479 
L 339.713512 -61.147308 
L 339.710025 -61.008136 
L 339.706691 -60.868964 
L 339.703539 -60.729792 
L 339.700599 -60.59062 
L 339.697897 -60.451448 
L 339.69546 -60.312276 
L 339.693312 -60.173104 
L 339.691476 -60.033933 
L 339.689973 -59.894761 
L 339.688823 -59.755589 
L 339.688042 -59.616417 
L 339.687646 -59.477245 
L 339.687649 -59.338073 
L 339.688061 -59.198901 
L 339.688891 -59.05973 
L 339.690145 -58.920558 
L 339.691827 -58.781386 
L 339.693939 -58.642214 
L 339.69648 -58.503042 
L 339.699446 -58.36387 
L 339.702832 -58.224698 
L 339.706629 -58.085527 
L 339.710827 -57.946355 
L 339.715412 -57.807183 
L 339.72037 -57.668011 
L 339.725681 -57.528839 
L 339.731326 -57.389667 
L 339.737282 -57.250495 
L 339.743525 -57.111323 
L 339.750029 -56.972152 
L 339.756764 -56.83298 
L 339.763701 -56.693808 
L 339.770808 -56.554636 
L 339.778051 -56.415464 
L 339.785395 -56.276292 
L 339.792805 -56.13712 
L 339.800241 -55.997949 
L 339.807668 -55.858777 
L 339.815044 -55.719605 
L 339.822332 -55.580433 
L 339.829489 -55.441261 
L 339.836477 -55.302089 
L 339.843254 -55.162917 
L 339.849781 -55.023746 
L 339.856016 -54.884574 
L 339.86192 -54.745402 
L 339.867453 -54.60623 
L 339.872579 -54.467058 
L 339.877259 -54.327886 
L 339.881456 -54.188714 
L 339.885136 -54.049542 
L 339.888266 -53.910371 
L 339.890813 -53.771199 
L 339.892748 -53.632027 
L 339.894041 -53.492855 
L 339.894667 -53.353683 
L 339.894602 -53.214511 
L 339.893822 -53.075339 
L 339.89231 -52.936168 
L 339.890046 -52.796996 
L 339.887017 -52.657824 
L 339.88321 -52.518652 
L 339.878615 -52.37948 
L 339.873225 -52.240308 
z
" style="stroke: #999999; stroke-width: 2"/>
    </defs>
    <g clip-path="url(#pcff554575b)">
     <use xlink:href="#mba0f4405af" x="0" y="255.11811" style="fill: #ffffff; stroke: #999999; stroke-width: 2"/>
    </g>
   </g>
   <g id="PolyCollection_6">
    <defs>
     <path id="mde1b0fb910" d="M 421.097968 -49.837187 
L 385.664664 -49.837187 
L 385.146492 -49.848294 
L 384.636007 -49.859401 
L 384.134492 -49.870509 
L 383.643217 -49.881616 
L 383.163435 -49.892723 
L 382.696374 -49.903831 
L 382.24323 -49.914938 
L 381.805166 -49.926045 
L 381.383302 -49.937153 
L 380.978714 -49.94826 
L 380.592425 -49.959367 
L 380.225404 -49.970475 
L 379.878558 -49.981582 
L 379.552734 -49.992689 
L 379.248706 -50.003797 
L 378.967182 -50.014904 
L 378.708791 -50.026011 
L 378.47409 -50.037119 
L 378.263553 -50.048226 
L 378.077573 -50.059333 
L 377.916462 -50.070441 
L 377.780446 -50.081548 
L 377.669664 -50.092655 
L 377.584172 -50.103763 
L 377.523937 -50.11487 
L 377.488839 -50.125977 
L 377.478675 -50.137084 
L 377.493152 -50.148192 
L 377.531896 -50.159299 
L 377.594446 -50.170406 
L 377.680263 -50.181514 
L 377.788726 -50.192621 
L 377.919136 -50.203728 
L 378.070721 -50.214836 
L 378.242635 -50.225943 
L 378.433965 -50.23705 
L 378.643734 -50.248158 
L 378.870901 -50.259265 
L 379.114372 -50.270372 
L 379.372999 -50.28148 
L 379.645588 -50.292587 
L 379.930903 -50.303694 
L 380.227675 -50.314802 
L 380.534604 -50.325909 
L 380.850367 -50.337016 
L 381.173625 -50.348124 
L 381.50303 -50.359231 
L 381.837233 -50.370338 
L 382.174889 -50.381446 
L 382.514668 -50.392553 
L 382.855258 -50.40366 
L 383.195379 -50.414767 
L 383.533786 -50.425875 
L 383.869277 -50.436982 
L 384.200705 -50.448089 
L 384.526978 -50.459197 
L 384.847075 -50.470304 
L 385.160044 -50.481411 
L 385.465017 -50.492519 
L 385.761209 -50.503626 
L 386.047926 -50.514733 
L 386.324571 -50.525841 
L 386.590646 -50.536948 
L 386.845758 -50.548055 
L 387.089618 -50.559163 
L 387.322044 -50.57027 
L 387.542964 -50.581377 
L 387.752412 -50.592485 
L 387.950531 -50.603592 
L 388.137566 -50.614699 
L 388.313866 -50.625807 
L 388.479876 -50.636914 
L 388.636134 -50.648021 
L 388.783264 -50.659129 
L 388.921973 -50.670236 
L 389.053039 -50.681343 
L 389.177302 -50.69245 
L 389.295663 -50.703558 
L 389.409066 -50.714665 
L 389.518492 -50.725772 
L 389.62495 -50.73688 
L 389.729465 -50.747987 
L 389.833069 -50.759094 
L 389.936789 -50.770202 
L 390.041637 -50.781309 
L 390.148601 -50.792416 
L 390.258636 -50.803524 
L 390.372651 -50.814631 
L 390.491506 -50.825738 
L 390.615999 -50.836846 
L 390.746862 -50.847953 
L 390.884751 -50.85906 
L 391.030245 -50.870168 
L 391.183838 -50.881275 
L 391.345935 -50.892382 
L 391.516853 -50.90349 
L 391.696815 -50.914597 
L 391.88595 -50.925704 
L 392.084297 -50.936812 
L 414.678335 -50.936812 
L 414.678335 -50.936812 
L 414.876682 -50.925704 
L 415.065817 -50.914597 
L 415.245779 -50.90349 
L 415.416697 -50.892382 
L 415.578794 -50.881275 
L 415.732387 -50.870168 
L 415.877881 -50.85906 
L 416.015771 -50.847953 
L 416.146633 -50.836846 
L 416.271126 -50.825738 
L 416.389981 -50.814631 
L 416.503996 -50.803524 
L 416.614031 -50.792416 
L 416.720995 -50.781309 
L 416.825843 -50.770202 
L 416.929563 -50.759094 
L 417.033167 -50.747987 
L 417.137682 -50.73688 
L 417.244141 -50.725772 
L 417.353567 -50.714665 
L 417.466969 -50.703558 
L 417.58533 -50.69245 
L 417.709594 -50.681343 
L 417.840659 -50.670236 
L 417.979368 -50.659129 
L 418.126499 -50.648021 
L 418.282756 -50.636914 
L 418.448766 -50.625807 
L 418.625066 -50.614699 
L 418.812101 -50.603592 
L 419.01022 -50.592485 
L 419.219668 -50.581377 
L 419.440588 -50.57027 
L 419.673015 -50.559163 
L 419.916874 -50.548055 
L 420.171986 -50.536948 
L 420.438062 -50.525841 
L 420.714707 -50.514733 
L 421.001424 -50.503626 
L 421.297615 -50.492519 
L 421.602588 -50.481411 
L 421.915558 -50.470304 
L 422.235654 -50.459197 
L 422.561928 -50.448089 
L 422.893355 -50.436982 
L 423.228846 -50.425875 
L 423.567253 -50.414767 
L 423.907374 -50.40366 
L 424.247965 -50.392553 
L 424.587743 -50.381446 
L 424.925399 -50.370338 
L 425.259602 -50.359231 
L 425.589007 -50.348124 
L 425.912265 -50.337016 
L 426.228028 -50.325909 
L 426.534957 -50.314802 
L 426.831729 -50.303694 
L 427.117045 -50.292587 
L 427.389633 -50.28148 
L 427.64826 -50.270372 
L 427.891731 -50.259265 
L 428.118898 -50.248158 
L 428.328667 -50.23705 
L 428.519997 -50.225943 
L 428.691912 -50.214836 
L 428.843496 -50.203728 
L 428.973906 -50.192621 
L 429.082369 -50.181514 
L 429.168186 -50.170406 
L 429.230736 -50.159299 
L 429.26948 -50.148192 
L 429.283957 -50.137084 
L 429.273793 -50.125977 
L 429.238696 -50.11487 
L 429.17846 -50.103763 
L 429.092968 -50.092655 
L 428.982186 -50.081548 
L 428.84617 -50.070441 
L 428.685059 -50.059333 
L 428.499079 -50.048226 
L 428.288542 -50.037119 
L 428.053841 -50.026011 
L 427.795451 -50.014904 
L 427.513926 -50.003797 
L 427.209899 -49.992689 
L 426.884074 -49.981582 
L 426.537228 -49.970475 
L 426.170207 -49.959367 
L 425.783918 -49.94826 
L 425.37933 -49.937153 
L 424.957467 -49.926045 
L 424.519402 -49.914938 
L 424.066259 -49.903831 
L 423.599197 -49.892723 
L 423.119415 -49.881616 
L 422.628141 -49.870509 
L 422.126625 -49.859401 
L 421.61614 -49.848294 
L 421.097968 -49.837187 
z
" style="stroke: #999999; stroke-width: 2"/>
    </defs>
    <g clip-path="url(#pcff554575b)">
     <use xlink:href="#mde1b0fb910" x="0" y="255.11811" style="fill: #ffffff; stroke: #999999; stroke-width: 2"/>
    </g>
   </g>
   <g id="PolyCollection_7">
    <defs>
     <path id="ma803c37ccb" d="M 468.20683 -90.324969 
L 468.069008 -90.324969 
L 468.067245 -91.656847 
L 468.065453 -92.988726 
L 468.063622 -94.320604 
L 468.061741 -95.652482 
L 468.0598 -96.984361 
L 468.057787 -98.316239 
L 468.05569 -99.648117 
L 468.053499 -100.979996 
L 468.051201 -102.311874 
L 468.048785 -103.643752 
L 468.04624 -104.975631 
L 468.043557 -106.307509 
L 468.040725 -107.639387 
L 468.037738 -108.971266 
L 468.034589 -110.303144 
L 468.031271 -111.635022 
L 468.027781 -112.966901 
L 468.024118 -114.298779 
L 468.02028 -115.630657 
L 468.01627 -116.962536 
L 468.012092 -118.294414 
L 468.007752 -119.626292 
L 468.003257 -120.958171 
L 467.998618 -122.290049 
L 467.993847 -123.621927 
L 467.988958 -124.953806 
L 467.983968 -126.285684 
L 467.978894 -127.617562 
L 467.973756 -128.949441 
L 467.968574 -130.281319 
L 467.96337 -131.613197 
L 467.958169 -132.945076 
L 467.952993 -134.276954 
L 467.947867 -135.608832 
L 467.942816 -136.940711 
L 467.937864 -138.272589 
L 467.933036 -139.604467 
L 467.928355 -140.936346 
L 467.923845 -142.268224 
L 467.919527 -143.600102 
L 467.915422 -144.931981 
L 467.91155 -146.263859 
L 467.907927 -147.595737 
L 467.90457 -148.927615 
L 467.901492 -150.259494 
L 467.898704 -151.591372 
L 467.896217 -152.92325 
L 467.894036 -154.255129 
L 467.892167 -155.587007 
L 467.890613 -156.918885 
L 467.889373 -158.250764 
L 467.888447 -159.582642 
L 467.887829 -160.91452 
L 467.887515 -162.246399 
L 467.887496 -163.578277 
L 467.887763 -164.910155 
L 467.888307 -166.242034 
L 467.889114 -167.573912 
L 467.890171 -168.90579 
L 467.891466 -170.237669 
L 467.892982 -171.569547 
L 467.894707 -172.901425 
L 467.896623 -174.233304 
L 467.898717 -175.565182 
L 467.900973 -176.89706 
L 467.903376 -178.228939 
L 467.905913 -179.560817 
L 467.90857 -180.892695 
L 467.911334 -182.224574 
L 467.914193 -183.556452 
L 467.917137 -184.88833 
L 467.920155 -186.220209 
L 467.923239 -187.552087 
L 467.92638 -188.883965 
L 467.929573 -190.215844 
L 467.932812 -191.547722 
L 467.936092 -192.8796 
L 467.939409 -194.211479 
L 467.942761 -195.543357 
L 467.946145 -196.875235 
L 467.949561 -198.207114 
L 467.953008 -199.538992 
L 467.956486 -200.87087 
L 467.959996 -202.202749 
L 467.963536 -203.534627 
L 467.96711 -204.866505 
L 467.970717 -206.198383 
L 467.974359 -207.530262 
L 467.978035 -208.86214 
L 467.981747 -210.194018 
L 467.985495 -211.525897 
L 467.989279 -212.857775 
L 467.993098 -214.189653 
L 467.99695 -215.521532 
L 468.000835 -216.85341 
L 468.00475 -218.185288 
L 468.008693 -219.517167 
L 468.012659 -220.849045 
L 468.016646 -222.180923 
L 468.259192 -222.180923 
L 468.259192 -222.180923 
L 468.263179 -220.849045 
L 468.267145 -219.517167 
L 468.271088 -218.185288 
L 468.275003 -216.85341 
L 468.278888 -215.521532 
L 468.28274 -214.189653 
L 468.286559 -212.857775 
L 468.290343 -211.525897 
L 468.294091 -210.194018 
L 468.297803 -208.86214 
L 468.301479 -207.530262 
L 468.305121 -206.198383 
L 468.308728 -204.866505 
L 468.312302 -203.534627 
L 468.315843 -202.202749 
L 468.319352 -200.87087 
L 468.32283 -199.538992 
L 468.326277 -198.207114 
L 468.329693 -196.875235 
L 468.333077 -195.543357 
L 468.336429 -194.211479 
L 468.339746 -192.8796 
L 468.343026 -191.547722 
L 468.346265 -190.215844 
L 468.349458 -188.883965 
L 468.3526 -187.552087 
L 468.355683 -186.220209 
L 468.358701 -184.88833 
L 468.361645 -183.556452 
L 468.364504 -182.224574 
L 468.367268 -180.892695 
L 468.369925 -179.560817 
L 468.372462 -178.228939 
L 468.374865 -176.89706 
L 468.377121 -175.565182 
L 468.379215 -174.233304 
L 468.381131 -172.901425 
L 468.382856 -171.569547 
L 468.384372 -170.237669 
L 468.385667 -168.90579 
L 468.386724 -167.573912 
L 468.387531 -166.242034 
L 468.388075 -164.910155 
L 468.388342 -163.578277 
L 468.388323 -162.246399 
L 468.388009 -160.91452 
L 468.387391 -159.582642 
L 468.386465 -158.250764 
L 468.385225 -156.918885 
L 468.383671 -155.587007 
L 468.381802 -154.255129 
L 468.379621 -152.92325 
L 468.377134 -151.591372 
L 468.374346 -150.259494 
L 468.371268 -148.927615 
L 468.367911 -147.595737 
L 468.364288 -146.263859 
L 468.360416 -144.931981 
L 468.356311 -143.600102 
L 468.351993 -142.268224 
L 468.347483 -140.936346 
L 468.342802 -139.604467 
L 468.337974 -138.272589 
L 468.333022 -136.940711 
L 468.327971 -135.608832 
L 468.322845 -134.276954 
L 468.317669 -132.945076 
L 468.312468 -131.613197 
L 468.307264 -130.281319 
L 468.302082 -128.949441 
L 468.296944 -127.617562 
L 468.29187 -126.285684 
L 468.28688 -124.953806 
L 468.281991 -123.621927 
L 468.27722 -122.290049 
L 468.272581 -120.958171 
L 468.268086 -119.626292 
L 468.263746 -118.294414 
L 468.259568 -116.962536 
L 468.255558 -115.630657 
L 468.25172 -114.298779 
L 468.248057 -112.966901 
L 468.244567 -111.635022 
L 468.241249 -110.303144 
L 468.2381 -108.971266 
L 468.235113 -107.639387 
L 468.232281 -106.307509 
L 468.229598 -104.975631 
L 468.227054 -103.643752 
L 468.224637 -102.311874 
L 468.222339 -100.979996 
L 468.220148 -99.648117 
L 468.218051 -98.316239 
L 468.216038 -96.984361 
L 468.214097 -95.652482 
L 468.212216 -94.320604 
L 468.210385 -92.988726 
L 468.208593 -91.656847 
L 468.20683 -90.324969 
z
" style="stroke: #999999; stroke-width: 2"/>
    </defs>
    <g clip-path="url(#pcff554575b)">
     <use xlink:href="#ma803c37ccb" x="0" y="255.11811" style="fill: #ffffff; stroke: #999999; stroke-width: 2"/>
    </g>
   </g>
   <g id="PathCollection_1"/>
   <g id="PathCollection_2"/>
   <g id="patch_3">
    <path d="M 47.22 213.89811 
L 47.22 24.32 
" style="fill: none; stroke: #262626; stroke-width: 1.25; stroke-linejoin: miter; stroke-linecap: square"/>
   </g>
   <g id="patch_4">
    <path d="M 47.22 213.89811 
L 500.51622 213.89811 
" style="fill: none; stroke: #262626; stroke-width: 1.25; stroke-linejoin: miter; stroke-linecap: square"/>
   </g>
   <g id="PathCollection_3">
    <defs>
     <path id="C0_0_002d55ed66" d="M 0 2.5 
C 0.663008 2.5 1.29895 2.236584 1.767767 1.767767 
C 2.236584 1.29895 2.5 0.663008 2.5 -0 
C 2.5 -0.663008 2.236584 -1.29895 1.767767 -1.767767 
C 1.29895 -2.236584 0.663008 -2.5 0 -2.5 
C -0.663008 -2.5 -1.29895 -2.236584 -1.767767 -1.767767 
C -2.236584 -1.29895 -2.5 -0.663008 -2.5 0 
C -2.5 0.663008 -2.236584 1.29895 -1.767767 1.767767 
C -1.29895 2.236584 -0.663008 2.5 0 2.5 
z
"/>
    </defs>
    <g clip-path="url(#pcff554575b)">
     <use xlink:href="#C0_0_002d55ed66" x="77.972013" y="143.113009" style="fill: #4c72b0; fill-opacity: 0.75"/>
    </g>
    <g clip-path="url(#pcff554575b)">
     <use xlink:href="#C0_0_002d55ed66" x="76.757774" y="142.564711" style="fill: #4c72b0; fill-opacity: 0.75"/>
    </g>
    <g clip-path="url(#pcff554575b)">
     <use xlink:href="#C0_0_002d55ed66" x="76.056517" y="170.761433" style="fill: #4c72b0; fill-opacity: 0.75"/>
    </g>
    <g clip-path="url(#pcff554575b)">
     <use xlink:href="#C0_0_002d55ed66" x="78.389398" y="164.870379" style="fill: #4c72b0; fill-opacity: 0.75"/>
    </g>
    <g clip-path="url(#pcff554575b)">
     <use xlink:href="#C0_0_002d55ed66" x="85.814938" y="176.531482" style="fill: #dd8452; fill-opacity: 0.75"/>
    </g>
    <g clip-path="url(#pcff554575b)">
     <use xlink:href="#C0_0_002d55ed66" x="85.058065" y="178.194601" style="fill: #dd8452; fill-opacity: 0.75"/>
    </g>
    <g clip-path="url(#pcff554575b)">
     <use xlink:href="#C0_0_002d55ed66" x="75.700447" y="180.259971" style="fill: #dd8452; fill-opacity: 0.75"/>
    </g>
    <g clip-path="url(#pcff554575b)">
     <use xlink:href="#C0_0_002d55ed66" x="74.495145" y="179.771531" style="fill: #dd8452; fill-opacity: 0.75"/>
    </g>
   </g>
   <g id="PathCollection_4">
    <defs>
     <path id="C1_0_9c9c14c00b" d="M 0 2.5 
C 0.663008 2.5 1.29895 2.236584 1.767767 1.767767 
C 2.236584 1.29895 2.5 0.663008 2.5 -0 
C 2.5 -0.663008 2.236584 -1.29895 1.767767 -1.767767 
C 1.29895 -2.236584 0.663008 -2.5 0 -2.5 
C -0.663008 -2.5 -1.29895 -2.236584 -1.767767 -1.767767 
C -2.236584 -1.29895 -2.5 -0.663008 -2.5 0 
C -2.5 0.663008 -2.236584 1.29895 -1.767767 1.767767 
C -1.29895 2.236584 -0.663008 2.5 0 2.5 
z
"/>
    </defs>
    <g clip-path="url(#pcff554575b)">
     <use xlink:href="#C1_0_9c9c14c00b" x="140.954485" y="192.166606" style="fill: #4c72b0; fill-opacity: 0.75"/>
    </g>
    <g clip-path="url(#pcff554575b)">
     <use xlink:href="#C1_0_9c9c14c00b" x="138.525327" y="190.059197" style="fill: #4c72b0; fill-opacity: 0.75"/>
    </g>
    <g clip-path="url(#pcff554575b)">
     <use xlink:href="#C1_0_9c9c14c00b" x="140.230689" y="195.096524" style="fill: #4c72b0; fill-opacity: 0.75"/>
    </g>
    <g clip-path="url(#pcff554575b)">
     <use xlink:href="#C1_0_9c9c14c00b" x="149.398858" y="192.938853" style="fill: #4c72b0; fill-opacity: 0.75"/>
    </g>
    <g clip-path="url(#pcff554575b)">
     <use xlink:href="#C1_0_9c9c14c00b" x="142.792332" y="186.157622" style="fill: #dd8452; fill-opacity: 0.75"/>
    </g>
    <g clip-path="url(#pcff554575b)">
     <use xlink:href="#C1_0_9c9c14c00b" x="147.99542" y="189.004436" style="fill: #dd8452; fill-opacity: 0.75"/>
    </g>
    <g clip-path="url(#pcff554575b)">
     <use xlink:href="#C1_0_9c9c14c00b" x="144.040266" y="190.892549" style="fill: #dd8452; fill-opacity: 0.75"/>
    </g>
    <g clip-path="url(#pcff554575b)">
     <use xlink:href="#C1_0_9c9c14c00b" x="146.953063" y="190.08854" style="fill: #dd8452; fill-opacity: 0.75"/>
    </g>
   </g>
   <g id="PathCollection_5">
    <defs>
     <path id="C2_0_0dd6e59818" d="M 0 2.5 
C 0.663008 2.5 1.29895 2.236584 1.767767 1.767767 
C 2.236584 1.29895 2.5 0.663008 2.5 -0 
C 2.5 -0.663008 2.236584 -1.29895 1.767767 -1.767767 
C 1.29895 -2.236584 0.663008 -2.5 0 -2.5 
C -0.663008 -2.5 -1.29895 -2.236584 -1.767767 -1.767767 
C -2.236584 -1.29895 -2.5 -0.663008 -2.5 0 
C -2.5 0.663008 -2.236584 1.29895 -1.767767 1.767767 
C -1.29895 2.236584 -0.663008 2.5 0 2.5 
z
"/>
    </defs>
    <g clip-path="url(#pcff554575b)">
     <use xlink:href="#C2_0_0dd6e59818" x="214.980357" y="164.229234" style="fill: #4c72b0; fill-opacity: 0.75"/>
    </g>
    <g clip-path="url(#pcff554575b)">
     <use xlink:href="#C2_0_0dd6e59818" x="214.694711" y="190.67486" style="fill: #4c72b0; fill-opacity: 0.75"/>
    </g>
    <g clip-path="url(#pcff554575b)">
     <use xlink:href="#C2_0_0dd6e59818" x="211.00661" y="185.095403" style="fill: #4c72b0; fill-opacity: 0.75"/>
    </g>
    <g clip-path="url(#pcff554575b)">
     <use xlink:href="#C2_0_0dd6e59818" x="204.716737" y="164.567073" style="fill: #4c72b0; fill-opacity: 0.75"/>
    </g>
    <g clip-path="url(#pcff554575b)">
     <use xlink:href="#C2_0_0dd6e59818" x="204.723258" y="173.501245" style="fill: #dd8452; fill-opacity: 0.75"/>
    </g>
    <g clip-path="url(#pcff554575b)">
     <use xlink:href="#C2_0_0dd6e59818" x="213.731483" y="173.642957" style="fill: #dd8452; fill-opacity: 0.75"/>
    </g>
    <g clip-path="url(#pcff554575b)">
     <use xlink:href="#C2_0_0dd6e59818" x="213.615745" y="184.831729" style="fill: #dd8452; fill-opacity: 0.75"/>
    </g>
    <g clip-path="url(#pcff554575b)">
     <use xlink:href="#C2_0_0dd6e59818" x="214.895086" y="175.768785" style="fill: #dd8452; fill-opacity: 0.75"/>
    </g>
   </g>
   <g id="PathCollection_6">
    <defs>
     <path id="C3_0_c6fb035ef7" d="M 0 2.5 
C 0.663008 2.5 1.29895 2.236584 1.767767 1.767767 
C 2.236584 1.29895 2.5 0.663008 2.5 -0 
C 2.5 -0.663008 2.236584 -1.29895 1.767767 -1.767767 
C 1.29895 -2.236584 0.663008 -2.5 0 -2.5 
C -0.663008 -2.5 -1.29895 -2.236584 -1.767767 -1.767767 
C -2.236584 -1.29895 -2.5 -0.663008 -2.5 0 
C -2.5 0.663008 -2.236584 1.29895 -1.767767 1.767767 
C -1.29895 2.236584 -0.663008 2.5 0 2.5 
z
"/>
    </defs>
    <g clip-path="url(#pcff554575b)">
     <use xlink:href="#C3_0_c6fb035ef7" x="273.644887" y="194.238772" style="fill: #4c72b0; fill-opacity: 0.75"/>
    </g>
    <g clip-path="url(#pcff554575b)">
     <use xlink:href="#C3_0_c6fb035ef7" x="277.042172" y="191.633157" style="fill: #4c72b0; fill-opacity: 0.75"/>
    </g>
    <g clip-path="url(#pcff554575b)">
     <use xlink:href="#C3_0_c6fb035ef7" x="273.385714" y="194.186921" style="fill: #4c72b0; fill-opacity: 0.75"/>
    </g>
    <g clip-path="url(#pcff554575b)">
     <use xlink:href="#C3_0_c6fb035ef7" x="273.99197" y="187.744983" style="fill: #4c72b0; fill-opacity: 0.75"/>
    </g>
    <g clip-path="url(#pcff554575b)">
     <use xlink:href="#C3_0_c6fb035ef7" x="267.71124" y="189.390037" style="fill: #4c72b0; fill-opacity: 0.75"/>
    </g>
    <g clip-path="url(#pcff554575b)">
     <use xlink:href="#C3_0_c6fb035ef7" x="280.046426" y="194.172797" style="fill: #dd8452; fill-opacity: 0.75"/>
    </g>
    <g clip-path="url(#pcff554575b)">
     <use xlink:href="#C3_0_c6fb035ef7" x="269.022279" y="192.001301" style="fill: #dd8452; fill-opacity: 0.75"/>
    </g>
    <g clip-path="url(#pcff554575b)">
     <use xlink:href="#C3_0_c6fb035ef7" x="267.393328" y="191.587727" style="fill: #dd8452; fill-opacity: 0.75"/>
    </g>
    <g clip-path="url(#pcff554575b)">
     <use xlink:href="#C3_0_c6fb035ef7" x="268.804855" y="194.028068" style="fill: #dd8452; fill-opacity: 0.75"/>
    </g>
    <g clip-path="url(#pcff554575b)">
     <use xlink:href="#C3_0_c6fb035ef7" x="268.269431" y="196.520923" style="fill: #dd8452; fill-opacity: 0.75"/>
    </g>
   </g>
   <g id="PathCollection_7">
    <defs>
     <path id="C4_0_9f83106d1b" d="M 0 2.5 
C 0.663008 2.5 1.29895 2.236584 1.767767 1.767767 
C 2.236584 1.29895 2.5 0.663008 2.5 -0 
C 2.5 -0.663008 2.236584 -1.29895 1.767767 -1.767767 
C 1.29895 -2.236584 0.663008 -2.5 0 -2.5 
C -0.663008 -2.5 -1.29895 -2.236584 -1.767767 -1.767767 
C -2.236584 -1.29895 -2.5 -0.663008 -2.5 0 
C -2.5 0.663008 -2.236584 1.29895 -1.767767 1.767767 
C -1.29895 2.236584 -0.663008 2.5 0 2.5 
z
"/>
    </defs>
    <g clip-path="url(#pcff554575b)">
     <use xlink:href="#C4_0_9f83106d1b" x="342.686598" y="189.099787" style="fill: #4c72b0; fill-opacity: 0.75"/>
    </g>
    <g clip-path="url(#pcff554575b)">
     <use xlink:href="#C4_0_9f83106d1b" x="339.349572" y="189.282483" style="fill: #4c72b0; fill-opacity: 0.75"/>
    </g>
    <g clip-path="url(#pcff554575b)">
     <use xlink:href="#C4_0_9f83106d1b" x="341.581382" y="193.394251" style="fill: #4c72b0; fill-opacity: 0.75"/>
    </g>
    <g clip-path="url(#pcff554575b)">
     <use xlink:href="#C4_0_9f83106d1b" x="333.498848" y="202.516724" style="fill: #dd8452; fill-opacity: 0.75"/>
    </g>
    <g clip-path="url(#pcff554575b)">
     <use xlink:href="#C4_0_9f83106d1b" x="343.959833" y="202.57768" style="fill: #dd8452; fill-opacity: 0.75"/>
    </g>
    <g clip-path="url(#pcff554575b)">
     <use xlink:href="#C4_0_9f83106d1b" x="332.434325" y="202.877802" style="fill: #dd8452; fill-opacity: 0.75"/>
    </g>
   </g>
   <g id="PathCollection_8">
    <defs>
     <path id="C5_0_d2832f70ab" d="M 0 2.5 
C 0.663008 2.5 1.29895 2.236584 1.767767 1.767767 
C 2.236584 1.29895 2.5 0.663008 2.5 -0 
C 2.5 -0.663008 2.236584 -1.29895 1.767767 -1.767767 
C 1.29895 -2.236584 0.663008 -2.5 0 -2.5 
C -0.663008 -2.5 -1.29895 -2.236584 -1.767767 -1.767767 
C -2.236584 -1.29895 -2.5 -0.663008 -2.5 0 
C -2.5 0.663008 -2.236584 1.29895 -1.767767 1.767767 
C -1.29895 2.236584 -0.663008 2.5 0 2.5 
z
"/>
    </defs>
    <g clip-path="url(#pcff554575b)">
     <use xlink:href="#C5_0_d2832f70ab" x="405.976565" y="205.046367" style="fill: #4c72b0; fill-opacity: 0.75"/>
    </g>
    <g clip-path="url(#pcff554575b)">
     <use xlink:href="#C5_0_d2832f70ab" x="402.928758" y="204.181299" style="fill: #4c72b0; fill-opacity: 0.75"/>
    </g>
    <g clip-path="url(#pcff554575b)">
     <use xlink:href="#C5_0_d2832f70ab" x="402.356471" y="205.280923" style="fill: #4c72b0; fill-opacity: 0.75"/>
    </g>
    <g clip-path="url(#pcff554575b)">
     <use xlink:href="#C5_0_d2832f70ab" x="409.554428" y="204.310815" style="fill: #4c72b0; fill-opacity: 0.75"/>
    </g>
    <g clip-path="url(#pcff554575b)">
     <use xlink:href="#C5_0_d2832f70ab" x="401.256591" y="205.133205" style="fill: #dd8452; fill-opacity: 0.75"/>
    </g>
    <g clip-path="url(#pcff554575b)">
     <use xlink:href="#C5_0_d2832f70ab" x="405.158538" y="204.706588" style="fill: #dd8452; fill-opacity: 0.75"/>
    </g>
    <g clip-path="url(#pcff554575b)">
     <use xlink:href="#C5_0_d2832f70ab" x="407.658663" y="204.8191" style="fill: #dd8452; fill-opacity: 0.75"/>
    </g>
    <g clip-path="url(#pcff554575b)">
     <use xlink:href="#C5_0_d2832f70ab" x="399.123288" y="204.95685" style="fill: #dd8452; fill-opacity: 0.75"/>
    </g>
   </g>
   <g id="PathCollection_9">
    <defs>
     <path id="C6_0_068dd27ec6" d="M 0 2.5 
C 0.663008 2.5 1.29895 2.236584 1.767767 1.767767 
C 2.236584 1.29895 2.5 0.663008 2.5 -0 
C 2.5 -0.663008 2.236584 -1.29895 1.767767 -1.767767 
C 1.29895 -2.236584 0.663008 -2.5 0 -2.5 
C -0.663008 -2.5 -1.29895 -2.236584 -1.767767 -1.767767 
C -2.236584 -1.29895 -2.5 -0.663008 -2.5 0 
C -2.5 0.663008 -2.236584 1.29895 -1.767767 1.767767 
C -1.29895 2.236584 -0.663008 2.5 0 2.5 
z
"/>
    </defs>
    <g clip-path="url(#pcff554575b)">
     <use xlink:href="#C6_0_068dd27ec6" x="469.233551" y="32.937187" style="fill: #4c72b0; fill-opacity: 0.75"/>
    </g>
    <g clip-path="url(#pcff554575b)">
     <use xlink:href="#C6_0_068dd27ec6" x="465.34993" y="53.370567" style="fill: #4c72b0; fill-opacity: 0.75"/>
    </g>
    <g clip-path="url(#pcff554575b)">
     <use xlink:href="#C6_0_068dd27ec6" x="468.31658" y="69.784527" style="fill: #4c72b0; fill-opacity: 0.75"/>
    </g>
    <g clip-path="url(#pcff554575b)">
     <use xlink:href="#C6_0_068dd27ec6" x="468.541635" y="95.341066" style="fill: #4c72b0; fill-opacity: 0.75"/>
    </g>
    <g clip-path="url(#pcff554575b)">
     <use xlink:href="#C6_0_068dd27ec6" x="469.795567" y="105.636896" style="fill: #dd8452; fill-opacity: 0.75"/>
    </g>
    <g clip-path="url(#pcff554575b)">
     <use xlink:href="#C6_0_068dd27ec6" x="467.400752" y="93.998253" style="fill: #dd8452; fill-opacity: 0.75"/>
    </g>
    <g clip-path="url(#pcff554575b)">
     <use xlink:href="#C6_0_068dd27ec6" x="472.446986" y="113.564318" style="fill: #dd8452; fill-opacity: 0.75"/>
    </g>
    <g clip-path="url(#pcff554575b)">
     <use xlink:href="#C6_0_068dd27ec6" x="470.803055" y="164.793141" style="fill: #dd8452; fill-opacity: 0.75"/>
    </g>
   </g>
   <g id="text_15">
    <!-- APOL1, $p_{adj}$ &lt; .001 *** -->
    <g style="fill: #262626" transform="translate(47.22 18.32)scale(0.09 -0.09)">
     <defs>
      <path id="ArialMT-41" d="M -9 0 
L 1750 4581 
L 2403 4581 
L 4278 0 
L 3588 0 
L 3053 1388 
L 1138 1388 
L 634 0 
L -9 0 
z
M 1313 1881 
L 2866 1881 
L 2388 3150 
Q 2169 3728 2063 4100 
Q 1975 3659 1816 3225 
L 1313 1881 
z
" transform="scale(0.015625)"/>
      <path id="ArialMT-4f" d="M 309 2231 
Q 309 3372 921 4017 
Q 1534 4663 2503 4663 
Q 3138 4663 3647 4359 
Q 4156 4056 4423 3514 
Q 4691 2972 4691 2284 
Q 4691 1588 4409 1038 
Q 4128 488 3612 205 
Q 3097 -78 2500 -78 
Q 1853 -78 1343 234 
Q 834 547 571 1087 
Q 309 1628 309 2231 
z
M 934 2222 
Q 934 1394 1379 917 
Q 1825 441 2497 441 
Q 3181 441 3623 922 
Q 4066 1403 4066 2288 
Q 4066 2847 3877 3264 
Q 3688 3681 3323 3911 
Q 2959 4141 2506 4141 
Q 1863 4141 1398 3698 
Q 934 3256 934 2222 
z
" transform="scale(0.015625)"/>
      <path id="ArialMT-4c" d="M 469 0 
L 469 4581 
L 1075 4581 
L 1075 541 
L 3331 541 
L 3331 0 
L 469 0 
z
" transform="scale(0.015625)"/>
      <path id="ArialMT-2c" d="M 569 0 
L 569 641 
L 1209 641 
L 1209 0 
Q 1209 -353 1084 -570 
Q 959 -788 688 -906 
L 531 -666 
Q 709 -588 793 -436 
Q 878 -284 888 0 
L 569 0 
z
" transform="scale(0.015625)"/>
      <path id="DejaVuSans-Oblique-70" d="M 3175 2156 
Q 3175 2616 2975 2859 
Q 2775 3103 2400 3103 
Q 2144 3103 1911 2972 
Q 1678 2841 1497 2591 
Q 1319 2344 1212 1994 
Q 1106 1644 1106 1300 
Q 1106 863 1306 627 
Q 1506 391 1875 391 
Q 2147 391 2380 519 
Q 2613 647 2778 891 
Q 2956 1147 3065 1494 
Q 3175 1841 3175 2156 
z
M 1394 2969 
Q 1625 3272 1939 3428 
Q 2253 3584 2638 3584 
Q 3175 3584 3472 3232 
Q 3769 2881 3769 2247 
Q 3769 1728 3584 1258 
Q 3400 788 3053 416 
Q 2822 169 2531 39 
Q 2241 -91 1919 -91 
Q 1547 -91 1294 64 
Q 1041 219 916 525 
L 556 -1331 
L -19 -1331 
L 922 3500 
L 1497 3500 
L 1394 2969 
z
" transform="scale(0.015625)"/>
      <path id="DejaVuSans-Oblique-61" d="M 3438 1997 
L 3047 0 
L 2472 0 
L 2578 531 
Q 2325 219 2001 64 
Q 1678 -91 1281 -91 
Q 834 -91 548 182 
Q 263 456 263 884 
Q 263 1497 752 1853 
Q 1241 2209 2100 2209 
L 2900 2209 
L 2931 2363 
Q 2938 2388 2941 2417 
Q 2944 2447 2944 2509 
Q 2944 2788 2717 2942 
Q 2491 3097 2081 3097 
Q 1800 3097 1504 3025 
Q 1209 2953 897 2809 
L 997 3341 
Q 1322 3463 1633 3523 
Q 1944 3584 2234 3584 
Q 2853 3584 3176 3315 
Q 3500 3047 3500 2534 
Q 3500 2431 3484 2292 
Q 3469 2153 3438 1997 
z
M 2816 1759 
L 2241 1759 
Q 1534 1759 1195 1570 
Q 856 1381 856 984 
Q 856 709 1029 553 
Q 1203 397 1509 397 
Q 1978 397 2328 733 
Q 2678 1069 2791 1631 
L 2816 1759 
z
" transform="scale(0.015625)"/>
      <path id="DejaVuSans-Oblique-64" d="M 2675 525 
Q 2444 222 2128 65 
Q 1813 -91 1428 -91 
Q 903 -91 598 267 
Q 294 625 294 1247 
Q 294 1766 478 2236 
Q 663 2706 1013 3078 
Q 1244 3325 1534 3454 
Q 1825 3584 2144 3584 
Q 2481 3584 2739 3421 
Q 2997 3259 3138 2956 
L 3513 4863 
L 4091 4863 
L 3144 0 
L 2566 0 
L 2675 525 
z
M 891 1350 
Q 891 897 1095 644 
Q 1300 391 1663 391 
Q 1931 391 2161 520 
Q 2391 650 2566 903 
Q 2750 1166 2856 1509 
Q 2963 1853 2963 2188 
Q 2963 2622 2758 2865 
Q 2553 3109 2194 3109 
Q 1922 3109 1687 2981 
Q 1453 2853 1288 2613 
Q 1106 2353 998 2009 
Q 891 1666 891 1350 
z
" transform="scale(0.015625)"/>
      <path id="DejaVuSans-Oblique-6a" d="M 928 3500 
L 1503 3500 
L 813 -63 
L 809 -78 
Q 694 -675 544 -897 
Q 403 -1106 132 -1218 
Q -138 -1331 -506 -1331 
L -722 -1331 
L -628 -844 
L -481 -844 
Q -144 -844 -1 -703 
Q 141 -563 238 -63 
L 928 3500 
z
M 1197 4863 
L 1772 4863 
L 1631 4134 
L 1056 4134 
L 1197 4863 
z
" transform="scale(0.015625)"/>
      <path id="ArialMT-3c" d="M 350 2003 
L 350 2528 
L 3384 3809 
L 3384 3250 
L 978 2263 
L 3384 1266 
L 3384 706 
L 350 2003 
z
" transform="scale(0.015625)"/>
      <path id="ArialMT-2e" d="M 581 0 
L 581 641 
L 1222 641 
L 1222 0 
L 581 0 
z
" transform="scale(0.015625)"/>
      <path id="ArialMT-2a" d="M 200 3741 
L 344 4184 
Q 841 4009 1066 3881 
Q 1006 4447 1003 4659 
L 1456 4659 
Q 1447 4350 1384 3884 
Q 1706 4047 2122 4184 
L 2266 3741 
Q 1869 3609 1488 3566 
Q 1678 3400 2025 2975 
L 1650 2709 
Q 1469 2956 1222 3381 
Q 991 2941 816 2709 
L 447 2975 
Q 809 3422 966 3566 
Q 563 3644 200 3741 
z
" transform="scale(0.015625)"/>
     </defs>
     <use xlink:href="#ArialMT-41" transform="translate(0 0.140625)"/>
     <use xlink:href="#ArialMT-50" transform="translate(66.699219 0.140625)"/>
     <use xlink:href="#ArialMT-4f" transform="translate(133.398438 0.140625)"/>
     <use xlink:href="#ArialMT-4c" transform="translate(211.181641 0.140625)"/>
     <use xlink:href="#ArialMT-31" transform="translate(266.796875 0.140625)"/>
     <use xlink:href="#ArialMT-2c" transform="translate(322.412109 0.140625)"/>
     <use xlink:href="#ArialMT-20" transform="translate(350.195312 0.140625)"/>
     <use xlink:href="#DejaVuSans-Oblique-70" transform="translate(377.978516 0.140625)"/>
     <use xlink:href="#DejaVuSans-Oblique-61" transform="translate(441.455078 -16.265625)scale(0.7)"/>
     <use xlink:href="#DejaVuSans-Oblique-64" transform="translate(484.350586 -16.265625)scale(0.7)"/>
     <use xlink:href="#DejaVuSans-Oblique-6a" transform="translate(528.78418 -16.265625)scale(0.7)"/>
     <use xlink:href="#ArialMT-20" transform="translate(550.966797 0.140625)"/>
     <use xlink:href="#ArialMT-3c" transform="translate(578.75 0.140625)"/>
     <use xlink:href="#ArialMT-20" transform="translate(637.148438 0.140625)"/>
     <use xlink:href="#ArialMT-2e" transform="translate(664.931641 0.140625)"/>
     <use xlink:href="#ArialMT-30" transform="translate(692.714844 0.140625)"/>
     <use xlink:href="#ArialMT-30" transform="translate(748.330078 0.140625)"/>
     <use xlink:href="#ArialMT-31" transform="translate(803.945312 0.140625)"/>
     <use xlink:href="#ArialMT-20" transform="translate(859.560547 0.140625)"/>
     <use xlink:href="#ArialMT-2a" transform="translate(887.34375 0.140625)"/>
     <use xlink:href="#ArialMT-2a" transform="translate(926.259766 0.140625)"/>
     <use xlink:href="#ArialMT-2a" transform="translate(965.175781 0.140625)"/>
    </g>
   </g>
   <g id="legend_1">
    <g id="patch_5">
     <path d="M 53.52 69.712344 
L 105.82125 69.712344 
Q 107.62125 69.712344 107.62125 67.912344 
L 107.62125 30.62 
Q 107.62125 28.82 105.82125 28.82 
L 53.52 28.82 
Q 51.72 28.82 51.72 30.62 
L 51.72 67.912344 
Q 51.72 69.712344 53.52 69.712344 
z
" style="fill: #ffffff; opacity: 0.8; stroke: #cccccc; stroke-linejoin: miter"/>
    </g>
    <g id="text_16">
     <!-- Treatment -->
     <g style="fill: #262626" transform="translate(59.334141 38.862031)scale(0.09 -0.09)">
      <use xlink:href="#ArialMT-54"/>
      <use xlink:href="#ArialMT-72" x="57.333984"/>
      <use xlink:href="#ArialMT-65" x="90.634766"/>
      <use xlink:href="#ArialMT-61" x="146.25"/>
      <use xlink:href="#ArialMT-74" x="201.865234"/>
      <use xlink:href="#ArialMT-6d" x="229.648438"/>
      <use xlink:href="#ArialMT-65" x="312.949219"/>
      <use xlink:href="#ArialMT-6e" x="368.564453"/>
      <use xlink:href="#ArialMT-74" x="424.179688"/>
     </g>
    </g>
    <g id="PathCollection_10">
     <defs>
      <path id="mcf9b78ea06" d="M 0 3.872983 
C 1.027127 3.872983 2.012324 3.464901 2.738613 2.738613 
C 3.464901 2.012324 3.872983 1.027127 3.872983 0 
C 3.872983 -1.027127 3.464901 -2.012324 2.738613 -2.738613 
C 2.012324 -3.464901 1.027127 -3.872983 0 -3.872983 
C -1.027127 -3.872983 -2.012324 -3.464901 -2.738613 -2.738613 
C -3.464901 -2.012324 -3.872983 -1.027127 -3.872983 0 
C -3.872983 1.027127 -3.464901 2.012324 -2.738613 2.738613 
C -2.012324 3.464901 -1.027127 3.872983 0 3.872983 
z
" style="stroke: #4c72b0"/>
     </defs>
     <g>
      <use xlink:href="#mcf9b78ea06" x="64.32" y="49.230313" style="fill: #4c72b0; stroke: #4c72b0"/>
     </g>
    </g>
    <g id="text_17">
     <!-- BEVA -->
     <g style="fill: #262626" transform="translate(80.52 51.592813)scale(0.09 -0.09)">
      <defs>
       <path id="ArialMT-42" d="M 469 0 
L 469 4581 
L 2188 4581 
Q 2713 4581 3030 4442 
Q 3347 4303 3526 4014 
Q 3706 3725 3706 3409 
Q 3706 3116 3547 2856 
Q 3388 2597 3066 2438 
Q 3481 2316 3704 2022 
Q 3928 1728 3928 1328 
Q 3928 1006 3792 729 
Q 3656 453 3456 303 
Q 3256 153 2954 76 
Q 2653 0 2216 0 
L 469 0 
z
M 1075 2656 
L 2066 2656 
Q 2469 2656 2644 2709 
Q 2875 2778 2992 2937 
Q 3109 3097 3109 3338 
Q 3109 3566 3000 3739 
Q 2891 3913 2687 3977 
Q 2484 4041 1991 4041 
L 1075 4041 
L 1075 2656 
z
M 1075 541 
L 2216 541 
Q 2509 541 2628 563 
Q 2838 600 2978 687 
Q 3119 775 3209 942 
Q 3300 1109 3300 1328 
Q 3300 1584 3169 1773 
Q 3038 1963 2805 2039 
Q 2572 2116 2134 2116 
L 1075 2116 
L 1075 541 
z
" transform="scale(0.015625)"/>
       <path id="ArialMT-45" d="M 506 0 
L 506 4581 
L 3819 4581 
L 3819 4041 
L 1113 4041 
L 1113 2638 
L 3647 2638 
L 3647 2100 
L 1113 2100 
L 1113 541 
L 3925 541 
L 3925 0 
L 506 0 
z
" transform="scale(0.015625)"/>
       <path id="ArialMT-56" d="M 1803 0 
L 28 4581 
L 684 4581 
L 1875 1253 
Q 2019 853 2116 503 
Q 2222 878 2363 1253 
L 3600 4581 
L 4219 4581 
L 2425 0 
L 1803 0 
z
" transform="scale(0.015625)"/>
      </defs>
      <use xlink:href="#ArialMT-42"/>
      <use xlink:href="#ArialMT-45" x="66.699219"/>
      <use xlink:href="#ArialMT-56" x="133.398438"/>
      <use xlink:href="#ArialMT-41" x="192.722656"/>
     </g>
    </g>
    <g id="PathCollection_11">
     <defs>
      <path id="m5646ed9e13" d="M 0 3.872983 
C 1.027127 3.872983 2.012324 3.464901 2.738613 2.738613 
C 3.464901 2.012324 3.872983 1.027127 3.872983 0 
C 3.872983 -1.027127 3.464901 -2.012324 2.738613 -2.738613 
C 2.012324 -3.464901 1.027127 -3.872983 0 -3.872983 
C -1.027127 -3.872983 -2.012324 -3.464901 -2.738613 -2.738613 
C -3.464901 -2.012324 -3.872983 -1.027127 -3.872983 0 
C -3.872983 1.027127 -3.464901 2.012324 -2.738613 2.738613 
C -2.012324 3.464901 -1.027127 3.872983 0 3.872983 
z
" style="stroke: #dd8452"/>
     </defs>
     <g>
      <use xlink:href="#m5646ed9e13" x="64.32" y="61.961094" style="fill: #dd8452; stroke: #dd8452"/>
     </g>
    </g>
    <g id="text_18">
     <!-- CTRL -->
     <g style="fill: #262626" transform="translate(80.52 64.323594)scale(0.09 -0.09)">
      <defs>
       <path id="ArialMT-43" d="M 3763 1606 
L 4369 1453 
Q 4178 706 3683 314 
Q 3188 -78 2472 -78 
Q 1731 -78 1267 223 
Q 803 525 561 1097 
Q 319 1669 319 2325 
Q 319 3041 592 3573 
Q 866 4106 1370 4382 
Q 1875 4659 2481 4659 
Q 3169 4659 3637 4309 
Q 4106 3959 4291 3325 
L 3694 3184 
Q 3534 3684 3231 3912 
Q 2928 4141 2469 4141 
Q 1941 4141 1586 3887 
Q 1231 3634 1087 3207 
Q 944 2781 944 2328 
Q 944 1744 1114 1308 
Q 1284 872 1643 656 
Q 2003 441 2422 441 
Q 2931 441 3284 734 
Q 3638 1028 3763 1606 
z
" transform="scale(0.015625)"/>
       <path id="ArialMT-52" d="M 503 0 
L 503 4581 
L 2534 4581 
Q 3147 4581 3465 4457 
Q 3784 4334 3975 4021 
Q 4166 3709 4166 3331 
Q 4166 2844 3850 2509 
Q 3534 2175 2875 2084 
Q 3116 1969 3241 1856 
Q 3506 1613 3744 1247 
L 4541 0 
L 3778 0 
L 3172 953 
Q 2906 1366 2734 1584 
Q 2563 1803 2427 1890 
Q 2291 1978 2150 2013 
Q 2047 2034 1813 2034 
L 1109 2034 
L 1109 0 
L 503 0 
z
M 1109 2559 
L 2413 2559 
Q 2828 2559 3062 2645 
Q 3297 2731 3419 2920 
Q 3541 3109 3541 3331 
Q 3541 3656 3305 3865 
Q 3069 4075 2559 4075 
L 1109 4075 
L 1109 2559 
z
" transform="scale(0.015625)"/>
      </defs>
      <use xlink:href="#ArialMT-43"/>
      <use xlink:href="#ArialMT-54" x="72.216797"/>
      <use xlink:href="#ArialMT-52" x="133.300781"/>
      <use xlink:href="#ArialMT-4c" x="205.517578"/>
     </g>
    </g>
   </g>
  </g>
 </g>
 <defs>
  <clipPath id="pcff554575b">
   <rect x="47.22" y="24.32" width="453.29622" height="189.57811"/>
  </clipPath>
 </defs>
</svg>
