<?xml version="1.0" encoding="utf-8" standalone="no"?>
<!DOCTYPE svg PUBLIC "-//W3C//DTD SVG 1.1//EN"
  "http://www.w3.org/Graphics/SVG/1.1/DTD/svg11.dtd">
<svg xmlns:xlink="http://www.w3.org/1999/xlink" width="510.23622pt" height="255.11811pt" viewBox="0 0 510.23622 255.11811" xmlns="http://www.w3.org/2000/svg" version="1.1">
 <metadata>
  <rdf:RDF xmlns:dc="http://purl.org/dc/elements/1.1/" xmlns:cc="http://creativecommons.org/ns#" xmlns:rdf="http://www.w3.org/1999/02/22-rdf-syntax-ns#">
   <cc:Work>
    <dc:type rdf:resource="http://purl.org/dc/dcmitype/StillImage"/>
    <dc:date>2022-04-27T00:14:53.679540</dc:date>
    <dc:format>image/svg+xml</dc:format>
    <dc:creator>
     <cc:Agent>
      <dc:title>Matplotlib v3.5.1, https://matplotlib.org/</dc:title>
     </cc:Agent>
    </dc:creator>
   </cc:Work>
  </rdf:RDF>
 </metadata>
 <defs>
  <style type="text/css">*{stroke-linejoin: round; stroke-linecap: butt}</style>
 </defs>
 <g id="figure_1">
  <g id="patch_1">
   <path d="M 0 255.11811 
L 510.23622 255.11811 
L 510.23622 0 
L 0 0 
z
" style="fill: #ffffff"/>
  </g>
  <g id="axes_1">
   <g id="patch_2">
    <path d="M 47.22 213.89811 
L 500.51622 213.89811 
L 500.51622 24.32 
L 47.22 24.32 
z
" style="fill: #ffffff"/>
   </g>
   <g id="matplotlib.axis_1">
    <g id="xtick_1">
     <g id="text_1">
      <!-- 49 -->
      <g style="fill: #444444" transform="translate(74.593458 229.840141)scale(0.09 -0.09)">
       <defs>
        <path id="ArialMT-34" d="M 2069 0 
L 2069 1097 
L 81 1097 
L 81 1613 
L 2172 4581 
L 2631 4581 
L 2631 1613 
L 3250 1613 
L 3250 1097 
L 2631 1097 
L 2631 0 
L 2069 0 
z
M 2069 1613 
L 2069 3678 
L 634 1613 
L 2069 1613 
z
" transform="scale(0.015625)"/>
        <path id="ArialMT-39" d="M 350 1059 
L 891 1109 
Q 959 728 1153 556 
Q 1347 384 1650 384 
Q 1909 384 2104 503 
Q 2300 622 2425 820 
Q 2550 1019 2634 1356 
Q 2719 1694 2719 2044 
Q 2719 2081 2716 2156 
Q 2547 1888 2255 1720 
Q 1963 1553 1622 1553 
Q 1053 1553 659 1965 
Q 266 2378 266 3053 
Q 266 3750 677 4175 
Q 1088 4600 1706 4600 
Q 2153 4600 2523 4359 
Q 2894 4119 3086 3673 
Q 3278 3228 3278 2384 
Q 3278 1506 3087 986 
Q 2897 466 2520 194 
Q 2144 -78 1638 -78 
Q 1100 -78 759 220 
Q 419 519 350 1059 
z
M 2653 3081 
Q 2653 3566 2395 3850 
Q 2138 4134 1775 4134 
Q 1400 4134 1122 3828 
Q 844 3522 844 3034 
Q 844 2597 1108 2323 
Q 1372 2050 1759 2050 
Q 2150 2050 2401 2323 
Q 2653 2597 2653 3081 
z
" transform="scale(0.015625)"/>
       </defs>
       <use xlink:href="#ArialMT-34"/>
       <use xlink:href="#ArialMT-39" x="55.615234"/>
      </g>
     </g>
    </g>
    <g id="xtick_2">
     <g id="text_2">
      <!-- 17 -->
      <g style="fill: #444444" transform="translate(139.350061 229.840141)scale(0.09 -0.09)">
       <defs>
        <path id="ArialMT-31" d="M 2384 0 
L 1822 0 
L 1822 3584 
Q 1619 3391 1289 3197 
Q 959 3003 697 2906 
L 697 3450 
Q 1169 3672 1522 3987 
Q 1875 4303 2022 4600 
L 2384 4600 
L 2384 0 
z
" transform="scale(0.015625)"/>
        <path id="ArialMT-37" d="M 303 3981 
L 303 4522 
L 3269 4522 
L 3269 4084 
Q 2831 3619 2401 2847 
Q 1972 2075 1738 1259 
Q 1569 684 1522 0 
L 944 0 
Q 953 541 1156 1306 
Q 1359 2072 1739 2783 
Q 2119 3494 2547 3981 
L 303 3981 
z
" transform="scale(0.015625)"/>
       </defs>
       <use xlink:href="#ArialMT-31"/>
       <use xlink:href="#ArialMT-37" x="55.615234"/>
      </g>
     </g>
    </g>
    <g id="xtick_3">
     <g id="text_3">
      <!-- 69 -->
      <g style="fill: #444444" transform="translate(204.106664 229.840141)scale(0.09 -0.09)">
       <defs>
        <path id="ArialMT-36" d="M 3184 3459 
L 2625 3416 
Q 2550 3747 2413 3897 
Q 2184 4138 1850 4138 
Q 1581 4138 1378 3988 
Q 1113 3794 959 3422 
Q 806 3050 800 2363 
Q 1003 2672 1297 2822 
Q 1591 2972 1913 2972 
Q 2475 2972 2870 2558 
Q 3266 2144 3266 1488 
Q 3266 1056 3080 686 
Q 2894 316 2569 119 
Q 2244 -78 1831 -78 
Q 1128 -78 684 439 
Q 241 956 241 2144 
Q 241 3472 731 4075 
Q 1159 4600 1884 4600 
Q 2425 4600 2770 4297 
Q 3116 3994 3184 3459 
z
M 888 1484 
Q 888 1194 1011 928 
Q 1134 663 1356 523 
Q 1578 384 1822 384 
Q 2178 384 2434 671 
Q 2691 959 2691 1453 
Q 2691 1928 2437 2201 
Q 2184 2475 1800 2475 
Q 1419 2475 1153 2201 
Q 888 1928 888 1484 
z
" transform="scale(0.015625)"/>
       </defs>
       <use xlink:href="#ArialMT-36"/>
       <use xlink:href="#ArialMT-39" x="55.615234"/>
      </g>
     </g>
    </g>
    <g id="xtick_4">
     <g id="text_4">
      <!-- 15 -->
      <g style="fill: #444444" transform="translate(268.863266 229.840141)scale(0.09 -0.09)">
       <defs>
        <path id="ArialMT-35" d="M 266 1200 
L 856 1250 
Q 922 819 1161 601 
Q 1400 384 1738 384 
Q 2144 384 2425 690 
Q 2706 997 2706 1503 
Q 2706 1984 2436 2262 
Q 2166 2541 1728 2541 
Q 1456 2541 1237 2417 
Q 1019 2294 894 2097 
L 366 2166 
L 809 4519 
L 3088 4519 
L 3088 3981 
L 1259 3981 
L 1013 2750 
Q 1425 3038 1878 3038 
Q 2478 3038 2890 2622 
Q 3303 2206 3303 1553 
Q 3303 931 2941 478 
Q 2500 -78 1738 -78 
Q 1113 -78 717 272 
Q 322 622 266 1200 
z
" transform="scale(0.015625)"/>
       </defs>
       <use xlink:href="#ArialMT-31"/>
       <use xlink:href="#ArialMT-35" x="55.615234"/>
      </g>
     </g>
    </g>
    <g id="xtick_5">
     <g id="text_5">
      <!-- 5 -->
      <g style="fill: #444444" transform="translate(336.122291 229.840141)scale(0.09 -0.09)">
       <use xlink:href="#ArialMT-35"/>
      </g>
     </g>
    </g>
    <g id="xtick_6">
     <g id="text_6">
      <!-- 126 -->
      <g style="fill: #444444" transform="translate(395.87405 229.840141)scale(0.09 -0.09)">
       <defs>
        <path id="ArialMT-32" d="M 3222 541 
L 3222 0 
L 194 0 
Q 188 203 259 391 
Q 375 700 629 1000 
Q 884 1300 1366 1694 
Q 2113 2306 2375 2664 
Q 2638 3022 2638 3341 
Q 2638 3675 2398 3904 
Q 2159 4134 1775 4134 
Q 1369 4134 1125 3890 
Q 881 3647 878 3216 
L 300 3275 
Q 359 3922 746 4261 
Q 1134 4600 1788 4600 
Q 2447 4600 2831 4234 
Q 3216 3869 3216 3328 
Q 3216 3053 3103 2787 
Q 2991 2522 2730 2228 
Q 2469 1934 1863 1422 
Q 1356 997 1212 845 
Q 1069 694 975 541 
L 3222 541 
z
" transform="scale(0.015625)"/>
       </defs>
       <use xlink:href="#ArialMT-31"/>
       <use xlink:href="#ArialMT-32" x="55.615234"/>
       <use xlink:href="#ArialMT-36" x="111.230469"/>
      </g>
     </g>
    </g>
    <g id="xtick_7">
     <g id="text_7">
      <!-- 62 -->
      <g style="fill: #444444" transform="translate(463.133075 229.840141)scale(0.09 -0.09)">
       <use xlink:href="#ArialMT-36"/>
       <use xlink:href="#ArialMT-32" x="55.615234"/>
      </g>
     </g>
    </g>
    <g id="text_8">
     <!-- Patient -->
     <g style="fill: #444444" transform="translate(259.859048 242.070923)scale(0.09 -0.09)">
      <defs>
       <path id="ArialMT-50" d="M 494 0 
L 494 4581 
L 2222 4581 
Q 2678 4581 2919 4538 
Q 3256 4481 3484 4323 
Q 3713 4166 3852 3881 
Q 3991 3597 3991 3256 
Q 3991 2672 3619 2267 
Q 3247 1863 2275 1863 
L 1100 1863 
L 1100 0 
L 494 0 
z
M 1100 2403 
L 2284 2403 
Q 2872 2403 3119 2622 
Q 3366 2841 3366 3238 
Q 3366 3525 3220 3729 
Q 3075 3934 2838 4000 
Q 2684 4041 2272 4041 
L 1100 4041 
L 1100 2403 
z
" transform="scale(0.015625)"/>
       <path id="ArialMT-61" d="M 2588 409 
Q 2275 144 1986 34 
Q 1697 -75 1366 -75 
Q 819 -75 525 192 
Q 231 459 231 875 
Q 231 1119 342 1320 
Q 453 1522 633 1644 
Q 813 1766 1038 1828 
Q 1203 1872 1538 1913 
Q 2219 1994 2541 2106 
Q 2544 2222 2544 2253 
Q 2544 2597 2384 2738 
Q 2169 2928 1744 2928 
Q 1347 2928 1158 2789 
Q 969 2650 878 2297 
L 328 2372 
Q 403 2725 575 2942 
Q 747 3159 1072 3276 
Q 1397 3394 1825 3394 
Q 2250 3394 2515 3294 
Q 2781 3194 2906 3042 
Q 3031 2891 3081 2659 
Q 3109 2516 3109 2141 
L 3109 1391 
Q 3109 606 3145 398 
Q 3181 191 3288 0 
L 2700 0 
Q 2613 175 2588 409 
z
M 2541 1666 
Q 2234 1541 1622 1453 
Q 1275 1403 1131 1340 
Q 988 1278 909 1158 
Q 831 1038 831 891 
Q 831 666 1001 516 
Q 1172 366 1500 366 
Q 1825 366 2078 508 
Q 2331 650 2450 897 
Q 2541 1088 2541 1459 
L 2541 1666 
z
" transform="scale(0.015625)"/>
       <path id="ArialMT-74" d="M 1650 503 
L 1731 6 
Q 1494 -44 1306 -44 
Q 1000 -44 831 53 
Q 663 150 594 308 
Q 525 466 525 972 
L 525 2881 
L 113 2881 
L 113 3319 
L 525 3319 
L 525 4141 
L 1084 4478 
L 1084 3319 
L 1650 3319 
L 1650 2881 
L 1084 2881 
L 1084 941 
Q 1084 700 1114 631 
Q 1144 563 1211 522 
Q 1278 481 1403 481 
Q 1497 481 1650 503 
z
" transform="scale(0.015625)"/>
       <path id="ArialMT-69" d="M 425 3934 
L 425 4581 
L 988 4581 
L 988 3934 
L 425 3934 
z
M 425 0 
L 425 3319 
L 988 3319 
L 988 0 
L 425 0 
z
" transform="scale(0.015625)"/>
       <path id="ArialMT-65" d="M 2694 1069 
L 3275 997 
Q 3138 488 2766 206 
Q 2394 -75 1816 -75 
Q 1088 -75 661 373 
Q 234 822 234 1631 
Q 234 2469 665 2931 
Q 1097 3394 1784 3394 
Q 2450 3394 2872 2941 
Q 3294 2488 3294 1666 
Q 3294 1616 3291 1516 
L 816 1516 
Q 847 969 1125 678 
Q 1403 388 1819 388 
Q 2128 388 2347 550 
Q 2566 713 2694 1069 
z
M 847 1978 
L 2700 1978 
Q 2663 2397 2488 2606 
Q 2219 2931 1791 2931 
Q 1403 2931 1139 2672 
Q 875 2413 847 1978 
z
" transform="scale(0.015625)"/>
       <path id="ArialMT-6e" d="M 422 0 
L 422 3319 
L 928 3319 
L 928 2847 
Q 1294 3394 1984 3394 
Q 2284 3394 2536 3286 
Q 2788 3178 2913 3003 
Q 3038 2828 3088 2588 
Q 3119 2431 3119 2041 
L 3119 0 
L 2556 0 
L 2556 2019 
Q 2556 2363 2490 2533 
Q 2425 2703 2258 2804 
Q 2091 2906 1866 2906 
Q 1506 2906 1245 2678 
Q 984 2450 984 1813 
L 984 0 
L 422 0 
z
" transform="scale(0.015625)"/>
      </defs>
      <use xlink:href="#ArialMT-50"/>
      <use xlink:href="#ArialMT-61" x="66.699219"/>
      <use xlink:href="#ArialMT-74" x="122.314453"/>
      <use xlink:href="#ArialMT-69" x="150.097656"/>
      <use xlink:href="#ArialMT-65" x="172.314453"/>
      <use xlink:href="#ArialMT-6e" x="227.929688"/>
      <use xlink:href="#ArialMT-74" x="283.544922"/>
     </g>
    </g>
   </g>
   <g id="matplotlib.axis_2">
    <g id="ytick_1">
     <g id="text_9">
      <!-- 150 -->
      <g style="fill: #444444" transform="translate(22.705469 203.960918)scale(0.09 -0.09)">
       <defs>
        <path id="ArialMT-30" d="M 266 2259 
Q 266 3072 433 3567 
Q 600 4063 929 4331 
Q 1259 4600 1759 4600 
Q 2128 4600 2406 4451 
Q 2684 4303 2865 4023 
Q 3047 3744 3150 3342 
Q 3253 2941 3253 2259 
Q 3253 1453 3087 958 
Q 2922 463 2592 192 
Q 2263 -78 1759 -78 
Q 1097 -78 719 397 
Q 266 969 266 2259 
z
M 844 2259 
Q 844 1131 1108 757 
Q 1372 384 1759 384 
Q 2147 384 2411 759 
Q 2675 1134 2675 2259 
Q 2675 3391 2411 3762 
Q 2147 4134 1753 4134 
Q 1366 4134 1134 3806 
Q 844 3388 844 2259 
z
" transform="scale(0.015625)"/>
       </defs>
       <use xlink:href="#ArialMT-31"/>
       <use xlink:href="#ArialMT-35" x="55.615234"/>
       <use xlink:href="#ArialMT-30" x="111.230469"/>
      </g>
     </g>
    </g>
    <g id="ytick_2">
     <g id="text_10">
      <!-- 200 -->
      <g style="fill: #444444" transform="translate(22.705469 178.938861)scale(0.09 -0.09)">
       <use xlink:href="#ArialMT-32"/>
       <use xlink:href="#ArialMT-30" x="55.615234"/>
       <use xlink:href="#ArialMT-30" x="111.230469"/>
      </g>
     </g>
    </g>
    <g id="ytick_3">
     <g id="text_11">
      <!-- 250 -->
      <g style="fill: #444444" transform="translate(22.705469 153.916804)scale(0.09 -0.09)">
       <use xlink:href="#ArialMT-32"/>
       <use xlink:href="#ArialMT-35" x="55.615234"/>
       <use xlink:href="#ArialMT-30" x="111.230469"/>
      </g>
     </g>
    </g>
    <g id="ytick_4">
     <g id="text_12">
      <!-- 300 -->
      <g style="fill: #444444" transform="translate(22.705469 128.894746)scale(0.09 -0.09)">
       <defs>
        <path id="ArialMT-33" d="M 269 1209 
L 831 1284 
Q 928 806 1161 595 
Q 1394 384 1728 384 
Q 2125 384 2398 659 
Q 2672 934 2672 1341 
Q 2672 1728 2419 1979 
Q 2166 2231 1775 2231 
Q 1616 2231 1378 2169 
L 1441 2663 
Q 1497 2656 1531 2656 
Q 1891 2656 2178 2843 
Q 2466 3031 2466 3422 
Q 2466 3731 2256 3934 
Q 2047 4138 1716 4138 
Q 1388 4138 1169 3931 
Q 950 3725 888 3313 
L 325 3413 
Q 428 3978 793 4289 
Q 1159 4600 1703 4600 
Q 2078 4600 2393 4439 
Q 2709 4278 2876 4000 
Q 3044 3722 3044 3409 
Q 3044 3113 2884 2869 
Q 2725 2625 2413 2481 
Q 2819 2388 3044 2092 
Q 3269 1797 3269 1353 
Q 3269 753 2831 336 
Q 2394 -81 1725 -81 
Q 1122 -81 723 278 
Q 325 638 269 1209 
z
" transform="scale(0.015625)"/>
       </defs>
       <use xlink:href="#ArialMT-33"/>
       <use xlink:href="#ArialMT-30" x="55.615234"/>
       <use xlink:href="#ArialMT-30" x="111.230469"/>
      </g>
     </g>
    </g>
    <g id="ytick_5">
     <g id="text_13">
      <!-- 350 -->
      <g style="fill: #444444" transform="translate(22.705469 103.872689)scale(0.09 -0.09)">
       <use xlink:href="#ArialMT-33"/>
       <use xlink:href="#ArialMT-35" x="55.615234"/>
       <use xlink:href="#ArialMT-30" x="111.230469"/>
      </g>
     </g>
    </g>
    <g id="ytick_6">
     <g id="text_14">
      <!-- 400 -->
      <g style="fill: #444444" transform="translate(22.705469 78.850632)scale(0.09 -0.09)">
       <use xlink:href="#ArialMT-34"/>
       <use xlink:href="#ArialMT-30" x="55.615234"/>
       <use xlink:href="#ArialMT-30" x="111.230469"/>
      </g>
     </g>
    </g>
    <g id="ytick_7">
     <g id="text_15">
      <!-- 450 -->
      <g style="fill: #444444" transform="translate(22.705469 53.828575)scale(0.09 -0.09)">
       <use xlink:href="#ArialMT-34"/>
       <use xlink:href="#ArialMT-35" x="55.615234"/>
       <use xlink:href="#ArialMT-30" x="111.230469"/>
      </g>
     </g>
    </g>
    <g id="ytick_8">
     <g id="text_16">
      <!-- 500 -->
      <g style="fill: #444444" transform="translate(22.705469 28.806517)scale(0.09 -0.09)">
       <use xlink:href="#ArialMT-35"/>
       <use xlink:href="#ArialMT-30" x="55.615234"/>
       <use xlink:href="#ArialMT-30" x="111.230469"/>
      </g>
     </g>
    </g>
    <g id="text_17">
     <!-- Trimmed Means of M values (TMM) -->
     <g style="fill: #444444" transform="translate(16.81125 190.194993)rotate(-90)scale(0.09 -0.09)">
      <defs>
       <path id="ArialMT-54" d="M 1659 0 
L 1659 4041 
L 150 4041 
L 150 4581 
L 3781 4581 
L 3781 4041 
L 2266 4041 
L 2266 0 
L 1659 0 
z
" transform="scale(0.015625)"/>
       <path id="ArialMT-72" d="M 416 0 
L 416 3319 
L 922 3319 
L 922 2816 
Q 1116 3169 1280 3281 
Q 1444 3394 1641 3394 
Q 1925 3394 2219 3213 
L 2025 2691 
Q 1819 2813 1613 2813 
Q 1428 2813 1281 2702 
Q 1134 2591 1072 2394 
Q 978 2094 978 1738 
L 978 0 
L 416 0 
z
" transform="scale(0.015625)"/>
       <path id="ArialMT-6d" d="M 422 0 
L 422 3319 
L 925 3319 
L 925 2853 
Q 1081 3097 1340 3245 
Q 1600 3394 1931 3394 
Q 2300 3394 2536 3241 
Q 2772 3088 2869 2813 
Q 3263 3394 3894 3394 
Q 4388 3394 4653 3120 
Q 4919 2847 4919 2278 
L 4919 0 
L 4359 0 
L 4359 2091 
Q 4359 2428 4304 2576 
Q 4250 2725 4106 2815 
Q 3963 2906 3769 2906 
Q 3419 2906 3187 2673 
Q 2956 2441 2956 1928 
L 2956 0 
L 2394 0 
L 2394 2156 
Q 2394 2531 2256 2718 
Q 2119 2906 1806 2906 
Q 1569 2906 1367 2781 
Q 1166 2656 1075 2415 
Q 984 2175 984 1722 
L 984 0 
L 422 0 
z
" transform="scale(0.015625)"/>
       <path id="ArialMT-64" d="M 2575 0 
L 2575 419 
Q 2259 -75 1647 -75 
Q 1250 -75 917 144 
Q 584 363 401 755 
Q 219 1147 219 1656 
Q 219 2153 384 2558 
Q 550 2963 881 3178 
Q 1213 3394 1622 3394 
Q 1922 3394 2156 3267 
Q 2391 3141 2538 2938 
L 2538 4581 
L 3097 4581 
L 3097 0 
L 2575 0 
z
M 797 1656 
Q 797 1019 1065 703 
Q 1334 388 1700 388 
Q 2069 388 2326 689 
Q 2584 991 2584 1609 
Q 2584 2291 2321 2609 
Q 2059 2928 1675 2928 
Q 1300 2928 1048 2622 
Q 797 2316 797 1656 
z
" transform="scale(0.015625)"/>
       <path id="ArialMT-20" transform="scale(0.015625)"/>
       <path id="ArialMT-4d" d="M 475 0 
L 475 4581 
L 1388 4581 
L 2472 1338 
Q 2622 884 2691 659 
Q 2769 909 2934 1394 
L 4031 4581 
L 4847 4581 
L 4847 0 
L 4263 0 
L 4263 3834 
L 2931 0 
L 2384 0 
L 1059 3900 
L 1059 0 
L 475 0 
z
" transform="scale(0.015625)"/>
       <path id="ArialMT-73" d="M 197 991 
L 753 1078 
Q 800 744 1014 566 
Q 1228 388 1613 388 
Q 2000 388 2187 545 
Q 2375 703 2375 916 
Q 2375 1106 2209 1216 
Q 2094 1291 1634 1406 
Q 1016 1563 777 1677 
Q 538 1791 414 1992 
Q 291 2194 291 2438 
Q 291 2659 392 2848 
Q 494 3038 669 3163 
Q 800 3259 1026 3326 
Q 1253 3394 1513 3394 
Q 1903 3394 2198 3281 
Q 2494 3169 2634 2976 
Q 2775 2784 2828 2463 
L 2278 2388 
Q 2241 2644 2061 2787 
Q 1881 2931 1553 2931 
Q 1166 2931 1000 2803 
Q 834 2675 834 2503 
Q 834 2394 903 2306 
Q 972 2216 1119 2156 
Q 1203 2125 1616 2013 
Q 2213 1853 2448 1751 
Q 2684 1650 2818 1456 
Q 2953 1263 2953 975 
Q 2953 694 2789 445 
Q 2625 197 2315 61 
Q 2006 -75 1616 -75 
Q 969 -75 630 194 
Q 291 463 197 991 
z
" transform="scale(0.015625)"/>
       <path id="ArialMT-6f" d="M 213 1659 
Q 213 2581 725 3025 
Q 1153 3394 1769 3394 
Q 2453 3394 2887 2945 
Q 3322 2497 3322 1706 
Q 3322 1066 3130 698 
Q 2938 331 2570 128 
Q 2203 -75 1769 -75 
Q 1072 -75 642 372 
Q 213 819 213 1659 
z
M 791 1659 
Q 791 1022 1069 705 
Q 1347 388 1769 388 
Q 2188 388 2466 706 
Q 2744 1025 2744 1678 
Q 2744 2294 2464 2611 
Q 2184 2928 1769 2928 
Q 1347 2928 1069 2612 
Q 791 2297 791 1659 
z
" transform="scale(0.015625)"/>
       <path id="ArialMT-66" d="M 556 0 
L 556 2881 
L 59 2881 
L 59 3319 
L 556 3319 
L 556 3672 
Q 556 4006 616 4169 
Q 697 4388 901 4523 
Q 1106 4659 1475 4659 
Q 1713 4659 2000 4603 
L 1916 4113 
Q 1741 4144 1584 4144 
Q 1328 4144 1222 4034 
Q 1116 3925 1116 3625 
L 1116 3319 
L 1763 3319 
L 1763 2881 
L 1116 2881 
L 1116 0 
L 556 0 
z
" transform="scale(0.015625)"/>
       <path id="ArialMT-76" d="M 1344 0 
L 81 3319 
L 675 3319 
L 1388 1331 
Q 1503 1009 1600 663 
Q 1675 925 1809 1294 
L 2547 3319 
L 3125 3319 
L 1869 0 
L 1344 0 
z
" transform="scale(0.015625)"/>
       <path id="ArialMT-6c" d="M 409 0 
L 409 4581 
L 972 4581 
L 972 0 
L 409 0 
z
" transform="scale(0.015625)"/>
       <path id="ArialMT-75" d="M 2597 0 
L 2597 488 
Q 2209 -75 1544 -75 
Q 1250 -75 995 37 
Q 741 150 617 320 
Q 494 491 444 738 
Q 409 903 409 1263 
L 409 3319 
L 972 3319 
L 972 1478 
Q 972 1038 1006 884 
Q 1059 663 1231 536 
Q 1403 409 1656 409 
Q 1909 409 2131 539 
Q 2353 669 2445 892 
Q 2538 1116 2538 1541 
L 2538 3319 
L 3100 3319 
L 3100 0 
L 2597 0 
z
" transform="scale(0.015625)"/>
       <path id="ArialMT-28" d="M 1497 -1347 
Q 1031 -759 709 28 
Q 388 816 388 1659 
Q 388 2403 628 3084 
Q 909 3875 1497 4659 
L 1900 4659 
Q 1522 4009 1400 3731 
Q 1209 3300 1100 2831 
Q 966 2247 966 1656 
Q 966 153 1900 -1347 
L 1497 -1347 
z
" transform="scale(0.015625)"/>
       <path id="ArialMT-29" d="M 791 -1347 
L 388 -1347 
Q 1322 153 1322 1656 
Q 1322 2244 1188 2822 
Q 1081 3291 891 3722 
Q 769 4003 388 4659 
L 791 4659 
Q 1378 3875 1659 3084 
Q 1900 2403 1900 1659 
Q 1900 816 1576 28 
Q 1253 -759 791 -1347 
z
" transform="scale(0.015625)"/>
      </defs>
      <use xlink:href="#ArialMT-54"/>
      <use xlink:href="#ArialMT-72" x="57.333984"/>
      <use xlink:href="#ArialMT-69" x="90.634766"/>
      <use xlink:href="#ArialMT-6d" x="112.851562"/>
      <use xlink:href="#ArialMT-6d" x="196.152344"/>
      <use xlink:href="#ArialMT-65" x="279.453125"/>
      <use xlink:href="#ArialMT-64" x="335.068359"/>
      <use xlink:href="#ArialMT-20" x="390.683594"/>
      <use xlink:href="#ArialMT-4d" x="418.466797"/>
      <use xlink:href="#ArialMT-65" x="501.767578"/>
      <use xlink:href="#ArialMT-61" x="557.382812"/>
      <use xlink:href="#ArialMT-6e" x="612.998047"/>
      <use xlink:href="#ArialMT-73" x="668.613281"/>
      <use xlink:href="#ArialMT-20" x="718.613281"/>
      <use xlink:href="#ArialMT-6f" x="746.396484"/>
      <use xlink:href="#ArialMT-66" x="802.011719"/>
      <use xlink:href="#ArialMT-20" x="829.794922"/>
      <use xlink:href="#ArialMT-4d" x="857.578125"/>
      <use xlink:href="#ArialMT-20" x="940.878906"/>
      <use xlink:href="#ArialMT-76" x="968.662109"/>
      <use xlink:href="#ArialMT-61" x="1018.662109"/>
      <use xlink:href="#ArialMT-6c" x="1074.277344"/>
      <use xlink:href="#ArialMT-75" x="1096.494141"/>
      <use xlink:href="#ArialMT-65" x="1152.109375"/>
      <use xlink:href="#ArialMT-73" x="1207.724609"/>
      <use xlink:href="#ArialMT-20" x="1257.724609"/>
      <use xlink:href="#ArialMT-28" x="1285.507812"/>
      <use xlink:href="#ArialMT-54" x="1318.808594"/>
      <use xlink:href="#ArialMT-4d" x="1379.892578"/>
      <use xlink:href="#ArialMT-4d" x="1463.193359"/>
      <use xlink:href="#ArialMT-29" x="1546.494141"/>
     </g>
    </g>
   </g>
   <g id="PolyCollection_1">
    <defs>
     <path id="mebb3046555" d="M 85.779406 -115.305267 
L 73.417197 -115.305267 
L 73.228983 -116.384819 
L 73.046467 -117.464371 
L 72.870407 -118.543923 
L 72.701535 -119.623475 
L 72.540559 -120.703027 
L 72.388155 -121.782579 
L 72.244958 -122.862131 
L 72.111563 -123.941683 
L 71.988514 -125.021236 
L 71.876303 -126.100788 
L 71.775365 -127.18034 
L 71.686074 -128.259892 
L 71.608742 -129.339444 
L 71.543614 -130.418996 
L 71.490866 -131.498548 
L 71.450609 -132.5781 
L 71.422881 -133.657652 
L 71.407655 -134.737204 
L 71.404834 -135.816756 
L 71.414257 -136.896308 
L 71.435697 -137.975861 
L 71.46887 -139.055413 
L 71.513432 -140.134965 
L 71.568985 -141.214517 
L 71.635086 -142.294069 
L 71.711243 -143.373621 
L 71.79693 -144.453173 
L 71.891583 -145.532725 
L 71.994612 -146.612277 
L 72.105403 -147.691829 
L 72.223327 -148.771381 
L 72.347741 -149.850934 
L 72.477997 -150.930486 
L 72.613444 -152.010038 
L 72.753437 -153.08959 
L 72.897337 -154.169142 
L 73.044519 -155.248694 
L 73.194374 -156.328246 
L 73.346311 -157.407798 
L 73.499763 -158.48735 
L 73.654187 -159.566902 
L 73.809069 -160.646454 
L 73.96392 -161.726007 
L 74.118283 -162.805559 
L 74.271731 -163.885111 
L 74.423866 -164.964663 
L 74.574321 -166.044215 
L 74.72276 -167.123767 
L 74.868873 -168.203319 
L 75.012382 -169.282871 
L 75.153032 -170.362423 
L 75.290598 -171.441975 
L 75.424874 -172.521527 
L 75.55568 -173.601079 
L 75.682858 -174.680632 
L 75.806266 -175.760184 
L 75.925783 -176.839736 
L 76.041306 -177.919288 
L 76.152745 -178.99884 
L 76.260027 -180.078392 
L 76.363092 -181.157944 
L 76.461894 -182.237496 
L 76.5564 -183.317048 
L 76.646591 -184.3966 
L 76.732457 -185.476152 
L 76.814004 -186.555705 
L 76.891248 -187.635257 
L 76.964221 -188.714809 
L 77.032966 -189.794361 
L 77.09754 -190.873913 
L 77.158014 -191.953465 
L 77.214474 -193.033017 
L 77.267021 -194.112569 
L 77.31577 -195.192121 
L 77.360852 -196.271673 
L 77.402414 -197.351225 
L 77.440615 -198.430777 
L 77.475632 -199.51033 
L 77.507656 -200.589882 
L 77.536889 -201.669434 
L 77.563549 -202.748986 
L 77.587862 -203.828538 
L 77.610067 -204.90809 
L 77.63041 -205.987642 
L 77.649144 -207.067194 
L 77.666528 -208.146746 
L 77.682821 -209.226298 
L 77.698286 -210.30585 
L 77.713183 -211.385403 
L 77.727768 -212.464955 
L 77.742291 -213.544507 
L 77.756993 -214.624059 
L 77.772106 -215.703611 
L 77.787847 -216.783163 
L 77.80442 -217.862715 
L 77.822012 -218.942267 
L 77.840791 -220.021819 
L 77.860905 -221.101371 
L 77.882482 -222.180923 
L 81.314121 -222.180923 
L 81.314121 -222.180923 
L 81.335698 -221.101371 
L 81.355812 -220.021819 
L 81.374591 -218.942267 
L 81.392182 -217.862715 
L 81.408756 -216.783163 
L 81.424497 -215.703611 
L 81.43961 -214.624059 
L 81.454312 -213.544507 
L 81.468835 -212.464955 
L 81.48342 -211.385403 
L 81.498317 -210.30585 
L 81.513782 -209.226298 
L 81.530075 -208.146746 
L 81.547459 -207.067194 
L 81.566193 -205.987642 
L 81.586536 -204.90809 
L 81.608741 -203.828538 
L 81.633054 -202.748986 
L 81.659713 -201.669434 
L 81.688947 -200.589882 
L 81.72097 -199.51033 
L 81.755988 -198.430777 
L 81.794189 -197.351225 
L 81.835751 -196.271673 
L 81.880833 -195.192121 
L 81.929582 -194.112569 
L 81.982129 -193.033017 
L 82.038589 -191.953465 
L 82.099063 -190.873913 
L 82.163637 -189.794361 
L 82.232382 -188.714809 
L 82.305355 -187.635257 
L 82.382599 -186.555705 
L 82.464146 -185.476152 
L 82.550012 -184.3966 
L 82.640203 -183.317048 
L 82.734709 -182.237496 
L 82.833511 -181.157944 
L 82.936576 -180.078392 
L 83.043858 -178.99884 
L 83.155297 -177.919288 
L 83.270819 -176.839736 
L 83.390337 -175.760184 
L 83.513745 -174.680632 
L 83.640923 -173.601079 
L 83.771729 -172.521527 
L 83.906005 -171.441975 
L 84.04357 -170.362423 
L 84.184221 -169.282871 
L 84.32773 -168.203319 
L 84.473843 -167.123767 
L 84.622282 -166.044215 
L 84.772737 -164.964663 
L 84.924872 -163.885111 
L 85.07832 -162.805559 
L 85.232683 -161.726007 
L 85.387534 -160.646454 
L 85.542416 -159.566902 
L 85.69684 -158.48735 
L 85.850292 -157.407798 
L 86.002229 -156.328246 
L 86.152084 -155.248694 
L 86.299266 -154.169142 
L 86.443166 -153.08959 
L 86.583159 -152.010038 
L 86.718606 -150.930486 
L 86.848862 -149.850934 
L 86.973276 -148.771381 
L 87.0912 -147.691829 
L 87.201991 -146.612277 
L 87.30502 -145.532725 
L 87.399673 -144.453173 
L 87.48536 -143.373621 
L 87.561517 -142.294069 
L 87.627618 -141.214517 
L 87.683171 -140.134965 
L 87.727733 -139.055413 
L 87.760906 -137.975861 
L 87.782346 -136.896308 
L 87.791769 -135.816756 
L 87.788948 -134.737204 
L 87.773722 -133.657652 
L 87.745994 -132.5781 
L 87.705737 -131.498548 
L 87.652989 -130.418996 
L 87.587861 -129.339444 
L 87.510529 -128.259892 
L 87.421238 -127.18034 
L 87.3203 -126.100788 
L 87.208089 -125.021236 
L 87.08504 -123.941683 
L 86.951645 -122.862131 
L 86.808448 -121.782579 
L 86.656044 -120.703027 
L 86.495068 -119.623475 
L 86.326196 -118.543923 
L 86.150135 -117.464371 
L 85.96762 -116.384819 
L 85.779406 -115.305267 
z
" style="stroke: #999999; stroke-width: 2"/>
    </defs>
    <g clip-path="url(#p0816d63511)">
     <use xlink:href="#mebb3046555" x="0" y="255.11811" style="fill: #ffffff; stroke: #999999; stroke-width: 2"/>
    </g>
   </g>
   <g id="PolyCollection_2">
    <defs>
     <path id="m30b580ccec" d="M 154.11332 -71.417878 
L 134.596489 -71.417878 
L 134.24442 -71.821943 
L 133.891675 -72.226008 
L 133.538858 -72.630073 
L 133.186579 -73.034138 
L 132.835458 -73.438203 
L 132.486117 -73.842269 
L 132.139186 -74.246334 
L 131.795296 -74.650399 
L 131.455079 -75.054464 
L 131.119169 -75.458529 
L 130.788198 -75.862594 
L 130.462794 -76.26666 
L 130.143582 -76.670725 
L 129.831182 -77.07479 
L 129.526207 -77.478855 
L 129.229259 -77.88292 
L 128.940932 -78.286985 
L 128.661809 -78.691051 
L 128.392458 -79.095116 
L 128.133433 -79.499181 
L 127.885273 -79.903246 
L 127.648498 -80.307311 
L 127.423607 -80.711377 
L 127.211081 -81.115442 
L 127.011375 -81.519507 
L 126.824921 -81.923572 
L 126.652125 -82.327637 
L 126.493364 -82.731702 
L 126.348986 -83.135768 
L 126.219309 -83.539833 
L 126.104614 -83.943898 
L 126.005151 -84.347963 
L 125.921131 -84.752028 
L 125.852727 -85.156093 
L 125.800073 -85.560159 
L 125.763261 -85.964224 
L 125.74234 -86.368289 
L 125.737313 -86.772354 
L 125.74814 -87.176419 
L 125.774733 -87.580484 
L 125.816956 -87.98455 
L 125.874625 -88.388615 
L 125.947508 -88.79268 
L 126.035321 -89.196745 
L 126.137736 -89.60081 
L 126.254373 -90.004875 
L 126.384806 -90.408941 
L 126.528563 -90.813006 
L 126.685127 -91.217071 
L 126.853937 -91.621136 
L 127.034395 -92.025201 
L 127.225862 -92.429266 
L 127.427667 -92.833332 
L 127.639107 -93.237397 
L 127.859454 -93.641462 
L 128.087956 -94.045527 
L 128.323843 -94.449592 
L 128.566332 -94.853657 
L 128.814632 -95.257723 
L 129.06795 -95.661788 
L 129.325493 -96.065853 
L 129.586478 -96.469918 
L 129.850134 -96.873983 
L 130.115709 -97.278048 
L 130.382473 -97.682114 
L 130.649726 -98.086179 
L 130.916802 -98.490244 
L 131.18307 -98.894309 
L 131.447942 -99.298374 
L 131.710879 -99.702439 
L 131.971385 -100.106505 
L 132.229019 -100.51057 
L 132.483393 -100.914635 
L 132.734175 -101.3187 
L 132.981089 -101.722765 
L 133.223915 -102.12683 
L 133.462491 -102.530896 
L 133.69671 -102.934961 
L 133.92652 -103.339026 
L 134.151922 -103.743091 
L 134.372967 -104.147156 
L 134.589751 -104.551221 
L 134.802416 -104.955287 
L 135.011143 -105.359352 
L 135.216145 -105.763417 
L 135.417668 -106.167482 
L 135.615981 -106.571547 
L 135.811373 -106.975612 
L 136.004148 -107.379678 
L 136.194618 -107.783743 
L 136.383096 -108.187808 
L 136.569894 -108.591873 
L 136.755316 -108.995938 
L 136.939652 -109.400003 
L 137.123176 -109.804069 
L 137.306138 -110.208134 
L 137.488761 -110.612199 
L 137.67124 -111.016264 
L 137.853734 -111.420329 
L 150.856074 -111.420329 
L 150.856074 -111.420329 
L 151.038569 -111.016264 
L 151.221048 -110.612199 
L 151.403671 -110.208134 
L 151.586632 -109.804069 
L 151.770156 -109.400003 
L 151.954493 -108.995938 
L 152.139915 -108.591873 
L 152.326713 -108.187808 
L 152.515191 -107.783743 
L 152.70566 -107.379678 
L 152.898436 -106.975612 
L 153.093828 -106.571547 
L 153.292141 -106.167482 
L 153.493664 -105.763417 
L 153.698666 -105.359352 
L 153.907392 -104.955287 
L 154.120058 -104.551221 
L 154.336842 -104.147156 
L 154.557887 -103.743091 
L 154.783289 -103.339026 
L 155.013099 -102.934961 
L 155.247318 -102.530896 
L 155.485894 -102.12683 
L 155.72872 -101.722765 
L 155.975633 -101.3187 
L 156.226416 -100.914635 
L 156.48079 -100.51057 
L 156.738424 -100.106505 
L 156.99893 -99.702439 
L 157.261866 -99.298374 
L 157.526739 -98.894309 
L 157.793007 -98.490244 
L 158.060082 -98.086179 
L 158.327336 -97.682114 
L 158.5941 -97.278048 
L 158.859674 -96.873983 
L 159.12333 -96.469918 
L 159.384316 -96.065853 
L 159.641859 -95.661788 
L 159.895177 -95.257723 
L 160.143477 -94.853657 
L 160.385966 -94.449592 
L 160.621853 -94.045527 
L 160.850355 -93.641462 
L 161.070702 -93.237397 
L 161.282142 -92.833332 
L 161.483947 -92.429266 
L 161.675414 -92.025201 
L 161.855872 -91.621136 
L 162.024682 -91.217071 
L 162.181246 -90.813006 
L 162.325002 -90.408941 
L 162.455436 -90.004875 
L 162.572073 -89.60081 
L 162.674487 -89.196745 
L 162.762301 -88.79268 
L 162.835183 -88.388615 
L 162.892852 -87.98455 
L 162.935075 -87.580484 
L 162.961668 -87.176419 
L 162.972496 -86.772354 
L 162.967469 -86.368289 
L 162.946548 -85.964224 
L 162.909736 -85.560159 
L 162.857082 -85.156093 
L 162.788678 -84.752028 
L 162.704658 -84.347963 
L 162.605195 -83.943898 
L 162.4905 -83.539833 
L 162.360822 -83.135768 
L 162.216445 -82.731702 
L 162.057684 -82.327637 
L 161.884888 -81.923572 
L 161.698434 -81.519507 
L 161.498728 -81.115442 
L 161.286201 -80.711377 
L 161.061311 -80.307311 
L 160.824535 -79.903246 
L 160.576375 -79.499181 
L 160.317351 -79.095116 
L 160.048 -78.691051 
L 159.768877 -78.286985 
L 159.48055 -77.88292 
L 159.183602 -77.478855 
L 158.878626 -77.07479 
L 158.566226 -76.670725 
L 158.247015 -76.26666 
L 157.921611 -75.862594 
L 157.590639 -75.458529 
L 157.25473 -75.054464 
L 156.914513 -74.650399 
L 156.570623 -74.246334 
L 156.223692 -73.842269 
L 155.874351 -73.438203 
L 155.52323 -73.034138 
L 155.170951 -72.630073 
L 154.818134 -72.226008 
L 154.465389 -71.821943 
L 154.11332 -71.417878 
z
" style="stroke: #999999; stroke-width: 2"/>
    </defs>
    <g clip-path="url(#p0816d63511)">
     <use xlink:href="#m30b580ccec" x="0" y="255.11811" style="fill: #ffffff; stroke: #999999; stroke-width: 2"/>
    </g>
   </g>
   <g id="PolyCollection_3">
    <defs>
     <path id="m7ed5991f37" d="M 217.019765 -49.837187 
L 201.20325 -49.837187 
L 201.058234 -50.139838 
L 200.919797 -50.44249 
L 200.788117 -50.745142 
L 200.663324 -51.047793 
L 200.545496 -51.350445 
L 200.43466 -51.653096 
L 200.330789 -51.955748 
L 200.233799 -52.2584 
L 200.143552 -52.561051 
L 200.059851 -52.863703 
L 199.98244 -53.166354 
L 199.911006 -53.469006 
L 199.84518 -53.771658 
L 199.784532 -54.074309 
L 199.728579 -54.376961 
L 199.676783 -54.679612 
L 199.628551 -54.982264 
L 199.583241 -55.284916 
L 199.540162 -55.587567 
L 199.498578 -55.890219 
L 199.457712 -56.19287 
L 199.416748 -56.495522 
L 199.374834 -56.798174 
L 199.331093 -57.100825 
L 199.284619 -57.403477 
L 199.234488 -57.706128 
L 199.179763 -58.00878 
L 199.119496 -58.311432 
L 199.052738 -58.614083 
L 198.978543 -58.916735 
L 198.895978 -59.219386 
L 198.804123 -59.522038 
L 198.702083 -59.82469 
L 198.588995 -60.127341 
L 198.464033 -60.429993 
L 198.326414 -60.732644 
L 198.175408 -61.035296 
L 198.010343 -61.337948 
L 197.830611 -61.640599 
L 197.635678 -61.943251 
L 197.425087 -62.245902 
L 197.198465 -62.548554 
L 196.95553 -62.851206 
L 196.696095 -63.153857 
L 196.420075 -63.456509 
L 196.127489 -63.75916 
L 195.818467 -64.061812 
L 195.493249 -64.364464 
L 195.152195 -64.667115 
L 194.795779 -64.969767 
L 194.424598 -65.272418 
L 194.039365 -65.57507 
L 193.640917 -65.877722 
L 193.230208 -66.180373 
L 192.808311 -66.483025 
L 192.376411 -66.785676 
L 191.935808 -67.088328 
L 191.487907 -67.39098 
L 191.034214 -67.693631 
L 190.57633 -67.996283 
L 190.115948 -68.298934 
L 189.654836 -68.601586 
L 189.194837 -68.904238 
L 188.737855 -69.206889 
L 188.285845 -69.509541 
L 187.840803 -69.812192 
L 187.404753 -70.114844 
L 186.979738 -70.417496 
L 186.567802 -70.720147 
L 186.170983 -71.022799 
L 185.791294 -71.32545 
L 185.430713 -71.628102 
L 185.091171 -71.930754 
L 184.774535 -72.233405 
L 184.482594 -72.536057 
L 184.217053 -72.838708 
L 183.979512 -73.14136 
L 183.77146 -73.444012 
L 183.594261 -73.746663 
L 183.449144 -74.049315 
L 183.337195 -74.351966 
L 183.259345 -74.654618 
L 183.216367 -74.95727 
L 183.208866 -75.259921 
L 183.237276 -75.562573 
L 183.301855 -75.865224 
L 183.402684 -76.167876 
L 183.539666 -76.470528 
L 183.712522 -76.773179 
L 183.920802 -77.075831 
L 184.163878 -77.378482 
L 184.440957 -77.681134 
L 184.751079 -77.983786 
L 185.093133 -78.286437 
L 185.465857 -78.589089 
L 185.867853 -78.89174 
L 186.297595 -79.194392 
L 186.753442 -79.497044 
L 187.233648 -79.799695 
L 230.989367 -79.799695 
L 230.989367 -79.799695 
L 231.469573 -79.497044 
L 231.925419 -79.194392 
L 232.355162 -78.89174 
L 232.757158 -78.589089 
L 233.129882 -78.286437 
L 233.471935 -77.983786 
L 233.782058 -77.681134 
L 234.059136 -77.378482 
L 234.302213 -77.075831 
L 234.510492 -76.773179 
L 234.683349 -76.470528 
L 234.82033 -76.167876 
L 234.921159 -75.865224 
L 234.985739 -75.562573 
L 235.014148 -75.259921 
L 235.006648 -74.95727 
L 234.963669 -74.654618 
L 234.88582 -74.351966 
L 234.77387 -74.049315 
L 234.628753 -73.746663 
L 234.451554 -73.444012 
L 234.243502 -73.14136 
L 234.005961 -72.838708 
L 233.74042 -72.536057 
L 233.44848 -72.233405 
L 233.131843 -71.930754 
L 232.792301 -71.628102 
L 232.431721 -71.32545 
L 232.052032 -71.022799 
L 231.655212 -70.720147 
L 231.243277 -70.417496 
L 230.818261 -70.114844 
L 230.382212 -69.812192 
L 229.93717 -69.509541 
L 229.48516 -69.206889 
L 229.028178 -68.904238 
L 228.568179 -68.601586 
L 228.107067 -68.298934 
L 227.646684 -67.996283 
L 227.188801 -67.693631 
L 226.735108 -67.39098 
L 226.287206 -67.088328 
L 225.846603 -66.785676 
L 225.414704 -66.483025 
L 224.992806 -66.180373 
L 224.582098 -65.877722 
L 224.18365 -65.57507 
L 223.798417 -65.272418 
L 223.427235 -64.969767 
L 223.07082 -64.667115 
L 222.729765 -64.364464 
L 222.404548 -64.061812 
L 222.095526 -63.75916 
L 221.80294 -63.456509 
L 221.52692 -63.153857 
L 221.267485 -62.851206 
L 221.02455 -62.548554 
L 220.797928 -62.245902 
L 220.587337 -61.943251 
L 220.392404 -61.640599 
L 220.212672 -61.337948 
L 220.047606 -61.035296 
L 219.8966 -60.732644 
L 219.758981 -60.429993 
L 219.634019 -60.127341 
L 219.520932 -59.82469 
L 219.418892 -59.522038 
L 219.327037 -59.219386 
L 219.244471 -58.916735 
L 219.170277 -58.614083 
L 219.103519 -58.311432 
L 219.043252 -58.00878 
L 218.988526 -57.706128 
L 218.938396 -57.403477 
L 218.891922 -57.100825 
L 218.84818 -56.798174 
L 218.806267 -56.495522 
L 218.765302 -56.19287 
L 218.724436 -55.890219 
L 218.682853 -55.587567 
L 218.639774 -55.284916 
L 218.594464 -54.982264 
L 218.546232 -54.679612 
L 218.494435 -54.376961 
L 218.438483 -54.074309 
L 218.377835 -53.771658 
L 218.312009 -53.469006 
L 218.240575 -53.166354 
L 218.163164 -52.863703 
L 218.079462 -52.561051 
L 217.989215 -52.2584 
L 217.892226 -51.955748 
L 217.788355 -51.653096 
L 217.677519 -51.350445 
L 217.559691 -51.047793 
L 217.434897 -50.745142 
L 217.303218 -50.44249 
L 217.164781 -50.139838 
L 217.019765 -49.837187 
z
" style="stroke: #999999; stroke-width: 2"/>
    </defs>
    <g clip-path="url(#p0816d63511)">
     <use xlink:href="#m7ed5991f37" x="0" y="255.11811" style="fill: #ffffff; stroke: #999999; stroke-width: 2"/>
    </g>
   </g>
   <g id="PolyCollection_4">
    <defs>
     <path id="m47ed9d02b2" d="M 278.574302 -74.39737 
L 269.161918 -74.39737 
L 269.005255 -75.352415 
L 268.850224 -76.30746 
L 268.697153 -77.262505 
L 268.546363 -78.217551 
L 268.398168 -79.172596 
L 268.252872 -80.127641 
L 268.110773 -81.082686 
L 267.972158 -82.037731 
L 267.837304 -82.992777 
L 267.70648 -83.947822 
L 267.579942 -84.902867 
L 267.457936 -85.857912 
L 267.340698 -86.812958 
L 267.228448 -87.768003 
L 267.121395 -88.723048 
L 267.019733 -89.678093 
L 266.92364 -90.633139 
L 266.833279 -91.588184 
L 266.748794 -92.543229 
L 266.670311 -93.498274 
L 266.597936 -94.45332 
L 266.531753 -95.408365 
L 266.471825 -96.36341 
L 266.418191 -97.318455 
L 266.370868 -98.2735 
L 266.329847 -99.228546 
L 266.295096 -100.183591 
L 266.266556 -101.138636 
L 266.244148 -102.093681 
L 266.227765 -103.048727 
L 266.217281 -104.003772 
L 266.212549 -104.958817 
L 266.213399 -105.913862 
L 266.219648 -106.868908 
L 266.231095 -107.823953 
L 266.247528 -108.778998 
L 266.268724 -109.734043 
L 266.294455 -110.689088 
L 266.324487 -111.644134 
L 266.358586 -112.599179 
L 266.39652 -113.554224 
L 266.438061 -114.509269 
L 266.48299 -115.464315 
L 266.531097 -116.41936 
L 266.582184 -117.374405 
L 266.636067 -118.32945 
L 266.692577 -119.284496 
L 266.751563 -120.239541 
L 266.812889 -121.194586 
L 266.876437 -122.149631 
L 266.942106 -123.104677 
L 267.00981 -124.059722 
L 267.07948 -125.014767 
L 267.151058 -125.969812 
L 267.224501 -126.924857 
L 267.299772 -127.879903 
L 267.376844 -128.834948 
L 267.455695 -129.789993 
L 267.536306 -130.745038 
L 267.618656 -131.700084 
L 267.702726 -132.655129 
L 267.788489 -133.610174 
L 267.875914 -134.565219 
L 267.964962 -135.520265 
L 268.055584 -136.47531 
L 268.147721 -137.430355 
L 268.241303 -138.3854 
L 268.336247 -139.340446 
L 268.432462 -140.295491 
L 268.529841 -141.250536 
L 268.628272 -142.205581 
L 268.727628 -143.160626 
L 268.82778 -144.115672 
L 268.928589 -145.070717 
L 269.029911 -146.025762 
L 269.131603 -146.980807 
L 269.233519 -147.935853 
L 269.335516 -148.890898 
L 269.437452 -149.845943 
L 269.539196 -150.800988 
L 269.640619 -151.756034 
L 269.741605 -152.711079 
L 269.842046 -153.666124 
L 269.941848 -154.621169 
L 270.040928 -155.576215 
L 270.139216 -156.53126 
L 270.236657 -157.486305 
L 270.333205 -158.44135 
L 270.428831 -159.396395 
L 270.523515 -160.351441 
L 270.617249 -161.306486 
L 270.710035 -162.261531 
L 270.801881 -163.216576 
L 270.892802 -164.171622 
L 270.982819 -165.126667 
L 271.071954 -166.081712 
L 271.160232 -167.036757 
L 271.247674 -167.991803 
L 271.334301 -168.946848 
L 276.40192 -168.946848 
L 276.40192 -168.946848 
L 276.488547 -167.991803 
L 276.575989 -167.036757 
L 276.664266 -166.081712 
L 276.753402 -165.126667 
L 276.843419 -164.171622 
L 276.93434 -163.216576 
L 277.026186 -162.261531 
L 277.118971 -161.306486 
L 277.212705 -160.351441 
L 277.30739 -159.396395 
L 277.403016 -158.44135 
L 277.499564 -157.486305 
L 277.597004 -156.53126 
L 277.695292 -155.576215 
L 277.794372 -154.621169 
L 277.894174 -153.666124 
L 277.994616 -152.711079 
L 278.095601 -151.756034 
L 278.197025 -150.800988 
L 278.298768 -149.845943 
L 278.400705 -148.890898 
L 278.502701 -147.935853 
L 278.604617 -146.980807 
L 278.706309 -146.025762 
L 278.807632 -145.070717 
L 278.90844 -144.115672 
L 279.008592 -143.160626 
L 279.107949 -142.205581 
L 279.206379 -141.250536 
L 279.303759 -140.295491 
L 279.399973 -139.340446 
L 279.494918 -138.3854 
L 279.588499 -137.430355 
L 279.680636 -136.47531 
L 279.771258 -135.520265 
L 279.860306 -134.565219 
L 279.947731 -133.610174 
L 280.033495 -132.655129 
L 280.117564 -131.700084 
L 280.199915 -130.745038 
L 280.280525 -129.789993 
L 280.359376 -128.834948 
L 280.436449 -127.879903 
L 280.51172 -126.924857 
L 280.585162 -125.969812 
L 280.65674 -125.014767 
L 280.72641 -124.059722 
L 280.794115 -123.104677 
L 280.859783 -122.149631 
L 280.923331 -121.194586 
L 280.984657 -120.239541 
L 281.043643 -119.284496 
L 281.100154 -118.32945 
L 281.154037 -117.374405 
L 281.205123 -116.41936 
L 281.25323 -115.464315 
L 281.298159 -114.509269 
L 281.339701 -113.554224 
L 281.377634 -112.599179 
L 281.411733 -111.644134 
L 281.441765 -110.689088 
L 281.467496 -109.734043 
L 281.488693 -108.778998 
L 281.505126 -107.823953 
L 281.516573 -106.868908 
L 281.522822 -105.913862 
L 281.523672 -104.958817 
L 281.518939 -104.003772 
L 281.508455 -103.048727 
L 281.492073 -102.093681 
L 281.469664 -101.138636 
L 281.441125 -100.183591 
L 281.406373 -99.228546 
L 281.365352 -98.2735 
L 281.318029 -97.318455 
L 281.264396 -96.36341 
L 281.204468 -95.408365 
L 281.138285 -94.45332 
L 281.065909 -93.498274 
L 280.987426 -92.543229 
L 280.902941 -91.588184 
L 280.81258 -90.633139 
L 280.716488 -89.678093 
L 280.614826 -88.723048 
L 280.507773 -87.768003 
L 280.395523 -86.812958 
L 280.278284 -85.857912 
L 280.156279 -84.902867 
L 280.029741 -83.947822 
L 279.898916 -82.992777 
L 279.764063 -82.037731 
L 279.625447 -81.082686 
L 279.483348 -80.127641 
L 279.338053 -79.172596 
L 279.189857 -78.217551 
L 279.039067 -77.262505 
L 278.885996 -76.30746 
L 278.730965 -75.352415 
L 278.574302 -74.39737 
z
" style="stroke: #999999; stroke-width: 2"/>
    </defs>
    <g clip-path="url(#p0816d63511)">
     <use xlink:href="#m47ed9d02b2" x="0" y="255.11811" style="fill: #ffffff; stroke: #999999; stroke-width: 2"/>
    </g>
   </g>
   <g id="PolyCollection_5">
    <defs>
     <path id="m5d740670b1" d="M 343.994652 -123.780673 
L 333.254775 -123.780673 
L 333.172876 -124.67887 
L 333.094592 -125.577067 
L 333.020085 -126.475264 
L 332.949511 -127.373461 
L 332.883013 -128.271658 
L 332.820723 -129.169855 
L 332.762761 -130.068052 
L 332.709235 -130.966249 
L 332.660239 -131.864446 
L 332.615856 -132.762643 
L 332.576152 -133.66084 
L 332.541179 -134.559037 
L 332.510975 -135.457234 
L 332.485564 -136.355431 
L 332.464952 -137.253628 
L 332.449134 -138.151825 
L 332.438084 -139.050022 
L 332.431766 -139.948219 
L 332.430126 -140.846416 
L 332.433095 -141.744613 
L 332.440589 -142.64281 
L 332.452511 -143.541007 
L 332.468747 -144.439204 
L 332.489172 -145.337401 
L 332.513647 -146.235598 
L 332.542018 -147.133795 
L 332.574122 -148.031992 
L 332.609783 -148.930189 
L 332.648814 -149.828386 
L 332.69102 -150.726583 
L 332.736194 -151.62478 
L 332.784124 -152.522977 
L 332.834588 -153.421174 
L 332.88736 -154.319372 
L 332.942209 -155.217569 
L 332.998898 -156.115766 
L 333.057188 -157.013963 
L 333.116838 -157.91216 
L 333.177606 -158.810357 
L 333.239252 -159.708554 
L 333.301535 -160.606751 
L 333.364218 -161.504948 
L 333.427068 -162.403145 
L 333.489855 -163.301342 
L 333.552358 -164.199539 
L 333.614359 -165.097736 
L 333.675651 -165.995933 
L 333.736035 -166.89413 
L 333.795322 -167.792327 
L 333.853334 -168.690524 
L 333.909905 -169.588721 
L 333.964879 -170.486918 
L 334.018117 -171.385115 
L 334.06949 -172.283312 
L 334.118886 -173.181509 
L 334.166206 -174.079706 
L 334.211368 -174.977903 
L 334.254305 -175.8761 
L 334.294965 -176.774297 
L 334.333312 -177.672494 
L 334.369326 -178.570691 
L 334.403005 -179.468888 
L 334.434359 -180.367085 
L 334.463418 -181.265282 
L 334.490223 -182.163479 
L 334.514832 -183.061676 
L 334.537319 -183.959873 
L 334.557769 -184.85807 
L 334.576282 -185.756267 
L 334.592969 -186.654464 
L 334.607953 -187.552661 
L 334.62137 -188.450858 
L 334.633364 -189.349055 
L 334.644087 -190.247252 
L 334.6537 -191.145449 
L 334.662372 -192.043646 
L 334.670276 -192.941843 
L 334.677589 -193.84004 
L 334.684495 -194.738237 
L 334.691175 -195.636434 
L 334.697815 -196.534631 
L 334.7046 -197.432828 
L 334.711713 -198.331025 
L 334.719335 -199.229222 
L 334.727645 -200.12742 
L 334.736814 -201.025617 
L 334.74701 -201.923814 
L 334.758395 -202.822011 
L 334.771121 -203.720208 
L 334.785333 -204.618405 
L 334.801167 -205.516602 
L 334.818749 -206.414799 
L 334.838193 -207.312996 
L 334.859603 -208.211193 
L 334.883071 -209.10939 
L 334.908677 -210.007587 
L 334.936489 -210.905784 
L 334.966561 -211.803981 
L 334.998934 -212.702178 
L 342.250493 -212.702178 
L 342.250493 -212.702178 
L 342.282866 -211.803981 
L 342.312937 -210.905784 
L 342.340749 -210.007587 
L 342.366355 -209.10939 
L 342.389824 -208.211193 
L 342.411234 -207.312996 
L 342.430678 -206.414799 
L 342.448259 -205.516602 
L 342.464093 -204.618405 
L 342.478305 -203.720208 
L 342.491031 -202.822011 
L 342.502416 -201.923814 
L 342.512613 -201.025617 
L 342.521782 -200.12742 
L 342.530091 -199.229222 
L 342.537713 -198.331025 
L 342.544827 -197.432828 
L 342.551611 -196.534631 
L 342.558252 -195.636434 
L 342.564932 -194.738237 
L 342.571837 -193.84004 
L 342.57915 -192.941843 
L 342.587054 -192.043646 
L 342.595726 -191.145449 
L 342.60534 -190.247252 
L 342.616063 -189.349055 
L 342.628056 -188.450858 
L 342.641473 -187.552661 
L 342.656458 -186.654464 
L 342.673145 -185.756267 
L 342.691657 -184.85807 
L 342.712107 -183.959873 
L 342.734594 -183.061676 
L 342.759204 -182.163479 
L 342.786009 -181.265282 
L 342.815067 -180.367085 
L 342.846421 -179.468888 
L 342.8801 -178.570691 
L 342.916114 -177.672494 
L 342.954461 -176.774297 
L 342.995121 -175.8761 
L 343.038058 -174.977903 
L 343.08322 -174.079706 
L 343.130541 -173.181509 
L 343.179937 -172.283312 
L 343.23131 -171.385115 
L 343.284547 -170.486918 
L 343.339522 -169.588721 
L 343.396092 -168.690524 
L 343.454104 -167.792327 
L 343.513391 -166.89413 
L 343.573775 -165.995933 
L 343.635068 -165.097736 
L 343.697069 -164.199539 
L 343.759571 -163.301342 
L 343.822358 -162.403145 
L 343.885208 -161.504948 
L 343.947891 -160.606751 
L 344.010174 -159.708554 
L 344.07182 -158.810357 
L 344.132589 -157.91216 
L 344.192239 -157.013963 
L 344.250529 -156.115766 
L 344.307217 -155.217569 
L 344.362066 -154.319372 
L 344.414838 -153.421174 
L 344.465303 -152.522977 
L 344.513232 -151.62478 
L 344.558406 -150.726583 
L 344.600612 -149.828386 
L 344.639643 -148.930189 
L 344.675304 -148.031992 
L 344.707408 -147.133795 
L 344.73578 -146.235598 
L 344.760254 -145.337401 
L 344.780679 -144.439204 
L 344.796916 -143.541007 
L 344.808837 -142.64281 
L 344.816331 -141.744613 
L 344.8193 -140.846416 
L 344.81766 -139.948219 
L 344.811342 -139.050022 
L 344.800293 -138.151825 
L 344.784474 -137.253628 
L 344.763863 -136.355431 
L 344.738451 -135.457234 
L 344.708248 -134.559037 
L 344.673275 -133.66084 
L 344.63357 -132.762643 
L 344.589187 -131.864446 
L 344.540192 -130.966249 
L 344.486666 -130.068052 
L 344.428704 -129.169855 
L 344.366413 -128.271658 
L 344.299915 -127.373461 
L 344.229341 -126.475264 
L 344.154835 -125.577067 
L 344.07655 -124.67887 
L 343.994652 -123.780673 
z
" style="stroke: #999999; stroke-width: 2"/>
    </defs>
    <g clip-path="url(#p0816d63511)">
     <use xlink:href="#m5d740670b1" x="0" y="255.11811" style="fill: #ffffff; stroke: #999999; stroke-width: 2"/>
    </g>
   </g>
   <g id="PolyCollection_6">
    <defs>
     <path id="mc12b62cb47" d="M 417.014275 -143.160634 
L 389.748357 -143.160634 
L 389.483978 -143.559447 
L 389.231444 -143.95826 
L 388.991227 -144.357073 
L 388.76374 -144.755886 
L 388.549332 -145.154699 
L 388.348288 -145.553512 
L 388.160832 -145.952325 
L 387.987124 -146.351138 
L 387.827263 -146.749951 
L 387.681288 -147.148764 
L 387.54918 -147.547577 
L 387.430866 -147.94639 
L 387.326221 -148.345203 
L 387.235071 -148.744016 
L 387.157197 -149.142829 
L 387.092339 -149.541642 
L 387.0402 -149.940455 
L 387.00045 -150.339268 
L 386.972731 -150.738081 
L 386.956658 -151.136894 
L 386.951827 -151.535707 
L 386.957818 -151.93452 
L 386.974198 -152.333333 
L 387.000524 -152.732146 
L 387.036349 -153.130959 
L 387.081222 -153.529772 
L 387.134694 -153.928585 
L 387.196318 -154.327398 
L 387.265654 -154.726211 
L 387.342268 -155.125024 
L 387.425738 -155.523837 
L 387.515649 -155.92265 
L 387.6116 -156.321463 
L 387.713205 -156.720276 
L 387.820088 -157.119089 
L 387.931887 -157.517902 
L 388.048258 -157.916715 
L 388.168866 -158.315528 
L 388.293393 -158.714341 
L 388.421534 -159.113154 
L 388.552997 -159.511967 
L 388.687505 -159.91078 
L 388.824788 -160.309593 
L 388.964594 -160.708406 
L 389.106678 -161.107219 
L 389.250808 -161.506032 
L 389.396761 -161.904845 
L 389.544323 -162.303658 
L 389.693292 -162.702471 
L 389.843472 -163.101284 
L 389.994677 -163.500097 
L 390.146731 -163.89891 
L 390.299464 -164.297723 
L 390.452715 -164.696536 
L 390.606331 -165.095349 
L 390.76017 -165.494162 
L 390.914096 -165.892975 
L 391.067982 -166.291788 
L 391.221711 -166.690601 
L 391.375176 -167.089414 
L 391.528277 -167.488227 
L 391.680928 -167.88704 
L 391.83305 -168.285853 
L 391.984576 -168.684666 
L 392.135451 -169.083479 
L 392.28563 -169.482292 
L 392.435078 -169.881105 
L 392.583776 -170.279918 
L 392.731712 -170.678731 
L 392.87889 -171.077544 
L 393.025322 -171.476357 
L 393.171033 -171.87517 
L 393.31606 -172.273983 
L 393.46045 -172.672796 
L 393.60426 -173.071609 
L 393.747557 -173.470422 
L 393.890418 -173.869235 
L 394.032927 -174.268048 
L 394.175176 -174.666861 
L 394.317263 -175.065674 
L 394.459291 -175.464487 
L 394.601366 -175.8633 
L 394.743599 -176.262113 
L 394.8861 -176.660926 
L 395.028979 -177.059739 
L 395.172347 -177.458552 
L 395.316307 -177.857365 
L 395.460961 -178.256178 
L 395.606404 -178.654991 
L 395.752723 -179.053804 
L 395.899995 -179.452617 
L 396.048287 -179.85143 
L 396.197656 -180.250243 
L 396.348142 -180.649056 
L 396.499774 -181.047869 
L 396.652565 -181.446682 
L 396.806512 -181.845495 
L 396.961596 -182.244308 
L 397.117779 -182.643121 
L 409.644854 -182.643121 
L 409.644854 -182.643121 
L 409.801036 -182.244308 
L 409.95612 -181.845495 
L 410.110067 -181.446682 
L 410.262858 -181.047869 
L 410.41449 -180.649056 
L 410.564977 -180.250243 
L 410.714345 -179.85143 
L 410.862637 -179.452617 
L 411.009909 -179.053804 
L 411.156228 -178.654991 
L 411.301671 -178.256178 
L 411.446325 -177.857365 
L 411.590286 -177.458552 
L 411.733653 -177.059739 
L 411.876532 -176.660926 
L 412.019033 -176.262113 
L 412.161266 -175.8633 
L 412.303342 -175.464487 
L 412.445369 -175.065674 
L 412.587456 -174.666861 
L 412.729705 -174.268048 
L 412.872214 -173.869235 
L 413.015075 -173.470422 
L 413.158372 -173.071609 
L 413.302182 -172.672796 
L 413.446572 -172.273983 
L 413.591599 -171.87517 
L 413.73731 -171.476357 
L 413.883742 -171.077544 
L 414.03092 -170.678731 
L 414.178856 -170.279918 
L 414.327554 -169.881105 
L 414.477003 -169.482292 
L 414.627181 -169.083479 
L 414.778056 -168.684666 
L 414.929582 -168.285853 
L 415.081704 -167.88704 
L 415.234355 -167.488227 
L 415.387456 -167.089414 
L 415.540921 -166.690601 
L 415.69465 -166.291788 
L 415.848536 -165.892975 
L 416.002462 -165.494162 
L 416.156301 -165.095349 
L 416.309918 -164.696536 
L 416.463169 -164.297723 
L 416.615901 -163.89891 
L 416.767955 -163.500097 
L 416.91916 -163.101284 
L 417.06934 -162.702471 
L 417.218309 -162.303658 
L 417.365871 -161.904845 
L 417.511824 -161.506032 
L 417.655954 -161.107219 
L 417.798038 -160.708406 
L 417.937844 -160.309593 
L 418.075128 -159.91078 
L 418.209635 -159.511967 
L 418.341098 -159.113154 
L 418.46924 -158.714341 
L 418.593767 -158.315528 
L 418.714375 -157.916715 
L 418.830745 -157.517902 
L 418.942545 -157.119089 
L 419.049427 -156.720276 
L 419.151032 -156.321463 
L 419.246984 -155.92265 
L 419.336895 -155.523837 
L 419.420364 -155.125024 
L 419.496978 -154.726211 
L 419.566314 -154.327398 
L 419.627938 -153.928585 
L 419.68141 -153.529772 
L 419.726283 -153.130959 
L 419.762108 -152.732146 
L 419.788434 -152.333333 
L 419.804814 -151.93452 
L 419.810805 -151.535707 
L 419.805974 -151.136894 
L 419.789901 -150.738081 
L 419.762182 -150.339268 
L 419.722432 -149.940455 
L 419.670293 -149.541642 
L 419.605435 -149.142829 
L 419.527562 -148.744016 
L 419.436411 -148.345203 
L 419.331766 -147.94639 
L 419.213452 -147.547577 
L 419.081344 -147.148764 
L 418.935369 -146.749951 
L 418.775508 -146.351138 
L 418.6018 -145.952325 
L 418.414344 -145.553512 
L 418.2133 -145.154699 
L 417.998892 -144.755886 
L 417.771405 -144.357073 
L 417.531188 -143.95826 
L 417.278654 -143.559447 
L 417.014275 -143.160634 
z
" style="stroke: #999999; stroke-width: 2"/>
    </defs>
    <g clip-path="url(#p0816d63511)">
     <use xlink:href="#mc12b62cb47" x="0" y="255.11811" style="fill: #ffffff; stroke: #999999; stroke-width: 2"/>
    </g>
   </g>
   <g id="PolyCollection_7">
    <defs>
     <path id="mfce8a81729" d="M 477.703253 -143.270199 
L 458.572585 -143.270199 
L 458.268228 -143.682408 
L 457.964915 -144.094618 
L 457.663091 -144.506827 
L 457.363194 -144.919036 
L 457.065662 -145.331246 
L 456.770926 -145.743455 
L 456.479417 -146.155664 
L 456.191562 -146.567874 
L 455.907788 -146.980083 
L 455.628519 -147.392292 
L 455.354179 -147.804502 
L 455.085194 -148.216711 
L 454.821989 -148.62892 
L 454.564989 -149.04113 
L 454.314623 -149.453339 
L 454.071317 -149.865548 
L 453.8355 -150.277758 
L 453.6076 -150.689967 
L 453.388041 -151.102176 
L 453.177248 -151.514386 
L 452.975638 -151.926595 
L 452.783623 -152.338804 
L 452.601606 -152.751014 
L 452.429975 -153.163223 
L 452.269109 -153.575432 
L 452.119364 -153.987642 
L 451.981078 -154.399851 
L 451.854563 -154.81206 
L 451.740103 -155.22427 
L 451.637953 -155.636479 
L 451.548331 -156.048688 
L 451.471418 -156.460898 
L 451.407353 -156.873107 
L 451.356233 -157.285316 
L 451.318107 -157.697526 
L 451.292978 -158.109735 
L 451.280798 -158.521944 
L 451.281469 -158.934154 
L 451.29484 -159.346363 
L 451.320711 -159.758572 
L 451.358829 -160.170782 
L 451.408892 -160.582991 
L 451.470551 -160.9952 
L 451.543409 -161.40741 
L 451.627028 -161.819619 
L 451.72093 -162.231828 
L 451.824599 -162.644038 
L 451.93749 -163.056247 
L 452.059029 -163.468456 
L 452.188621 -163.880666 
L 452.325653 -164.292875 
L 452.4695 -164.705085 
L 452.619533 -165.117294 
L 452.775119 -165.529503 
L 452.935632 -165.941713 
L 453.100454 -166.353922 
L 453.268985 -166.766131 
L 453.440643 -167.178341 
L 453.614872 -167.59055 
L 453.791142 -168.002759 
L 453.968961 -168.414969 
L 454.14787 -168.827178 
L 454.32745 -169.239387 
L 454.507325 -169.651597 
L 454.687161 -170.063806 
L 454.866671 -170.476015 
L 455.045613 -170.888225 
L 455.223793 -171.300434 
L 455.401061 -171.712643 
L 455.577315 -172.124853 
L 455.752494 -172.537062 
L 455.926582 -172.949271 
L 456.099603 -173.361481 
L 456.271618 -173.77369 
L 456.442723 -174.185899 
L 456.613047 -174.598109 
L 456.782744 -175.010318 
L 456.951995 -175.422527 
L 457.121 -175.834737 
L 457.289974 -176.246946 
L 457.459146 -176.659155 
L 457.628751 -177.071365 
L 457.799028 -177.483574 
L 457.970216 -177.895783 
L 458.142545 -178.307993 
L 458.316242 -178.720202 
L 458.491517 -179.132411 
L 458.668565 -179.544621 
L 458.84756 -179.95683 
L 459.028657 -180.369039 
L 459.211981 -180.781249 
L 459.397633 -181.193458 
L 459.585681 -181.605667 
L 459.776166 -182.017877 
L 459.969092 -182.430086 
L 460.164432 -182.842295 
L 460.362124 -183.254505 
L 460.562074 -183.666714 
L 460.764153 -184.078923 
L 475.511685 -184.078923 
L 475.511685 -184.078923 
L 475.713764 -183.666714 
L 475.913714 -183.254505 
L 476.111406 -182.842295 
L 476.306746 -182.430086 
L 476.499672 -182.017877 
L 476.690157 -181.605667 
L 476.878205 -181.193458 
L 477.063857 -180.781249 
L 477.247181 -180.369039 
L 477.428278 -179.95683 
L 477.607273 -179.544621 
L 477.784321 -179.132411 
L 477.959596 -178.720202 
L 478.133293 -178.307993 
L 478.305622 -177.895783 
L 478.47681 -177.483574 
L 478.647087 -177.071365 
L 478.816692 -176.659155 
L 478.985864 -176.246946 
L 479.154838 -175.834737 
L 479.323843 -175.422527 
L 479.493094 -175.010318 
L 479.662791 -174.598109 
L 479.833115 -174.185899 
L 480.00422 -173.77369 
L 480.176235 -173.361481 
L 480.349256 -172.949271 
L 480.523344 -172.537062 
L 480.698524 -172.124853 
L 480.874777 -171.712643 
L 481.052045 -171.300434 
L 481.230225 -170.888225 
L 481.409167 -170.476015 
L 481.588677 -170.063806 
L 481.768513 -169.651597 
L 481.948388 -169.239387 
L 482.127968 -168.827178 
L 482.306877 -168.414969 
L 482.484696 -168.002759 
L 482.660967 -167.59055 
L 482.835195 -167.178341 
L 483.006853 -166.766131 
L 483.175384 -166.353922 
L 483.340206 -165.941713 
L 483.500719 -165.529503 
L 483.656305 -165.117294 
L 483.806338 -164.705085 
L 483.950186 -164.292875 
L 484.087217 -163.880666 
L 484.216809 -163.468456 
L 484.338348 -163.056247 
L 484.451239 -162.644038 
L 484.554908 -162.231828 
L 484.64881 -161.819619 
L 484.732429 -161.40741 
L 484.805287 -160.9952 
L 484.866946 -160.582991 
L 484.917009 -160.170782 
L 484.955127 -159.758572 
L 484.980998 -159.346363 
L 484.994369 -158.934154 
L 484.99504 -158.521944 
L 484.98286 -158.109735 
L 484.957731 -157.697526 
L 484.919605 -157.285316 
L 484.868485 -156.873107 
L 484.80442 -156.460898 
L 484.727507 -156.048688 
L 484.637885 -155.636479 
L 484.535735 -155.22427 
L 484.421275 -154.81206 
L 484.29476 -154.399851 
L 484.156474 -153.987642 
L 484.006729 -153.575432 
L 483.845863 -153.163223 
L 483.674233 -152.751014 
L 483.492215 -152.338804 
L 483.3002 -151.926595 
L 483.09859 -151.514386 
L 482.887797 -151.102176 
L 482.668238 -150.689967 
L 482.440338 -150.277758 
L 482.204521 -149.865548 
L 481.961215 -149.453339 
L 481.710849 -149.04113 
L 481.453849 -148.62892 
L 481.190644 -148.216711 
L 480.921659 -147.804502 
L 480.647319 -147.392292 
L 480.36805 -146.980083 
L 480.084276 -146.567874 
L 479.796421 -146.155664 
L 479.504912 -145.743455 
L 479.210176 -145.331246 
L 478.912644 -144.919036 
L 478.612747 -144.506827 
L 478.310923 -144.094618 
L 478.00761 -143.682408 
L 477.703253 -143.270199 
z
" style="stroke: #999999; stroke-width: 2"/>
    </defs>
    <g clip-path="url(#p0816d63511)">
     <use xlink:href="#mfce8a81729" x="0" y="255.11811" style="fill: #ffffff; stroke: #999999; stroke-width: 2"/>
    </g>
   </g>
   <g id="PathCollection_1"/>
   <g id="PathCollection_2"/>
   <g id="patch_3">
    <path d="M 47.22 213.89811 
L 47.22 24.32 
" style="fill: none; stroke: #262626; stroke-width: 1.25; stroke-linejoin: miter; stroke-linecap: square"/>
   </g>
   <g id="patch_4">
    <path d="M 47.22 213.89811 
L 500.51622 213.89811 
" style="fill: none; stroke: #262626; stroke-width: 1.25; stroke-linejoin: miter; stroke-linecap: square"/>
   </g>
   <g id="PathCollection_3">
    <defs>
     <path id="C0_0_aadb4a6806" d="M 0 2.5 
C 0.663008 2.5 1.29895 2.236584 1.767767 1.767767 
C 2.236584 1.29895 2.5 0.663008 2.5 -0 
C 2.5 -0.663008 2.236584 -1.29895 1.767767 -1.767767 
C 1.29895 -2.236584 0.663008 -2.5 0 -2.5 
C -0.663008 -2.5 -1.29895 -2.236584 -1.767767 -1.767767 
C -2.236584 -1.29895 -2.5 -0.663008 -2.5 0 
C -2.5 0.663008 -2.236584 1.29895 -1.767767 1.767767 
C -1.29895 2.236584 -0.663008 2.5 0 2.5 
z
"/>
    </defs>
    <g clip-path="url(#p0816d63511)">
     <use xlink:href="#C0_0_aadb4a6806" x="84.659074" y="78.45971" style="fill: #4c72b0; fill-opacity: 0.75"/>
    </g>
    <g clip-path="url(#p0816d63511)">
     <use xlink:href="#C0_0_aadb4a6806" x="83.900693" y="115.531944" style="fill: #4c72b0; fill-opacity: 0.75"/>
    </g>
    <g clip-path="url(#p0816d63511)">
     <use xlink:href="#C0_0_aadb4a6806" x="77.891049" y="100.422511" style="fill: #4c72b0; fill-opacity: 0.75"/>
    </g>
    <g clip-path="url(#p0816d63511)">
     <use xlink:href="#C0_0_aadb4a6806" x="85.565176" y="32.937187" style="fill: #4c72b0; fill-opacity: 0.75"/>
    </g>
    <g clip-path="url(#p0816d63511)">
     <use xlink:href="#C0_0_aadb4a6806" x="79.480094" y="122.230475" style="fill: #dd8452; fill-opacity: 0.75"/>
    </g>
    <g clip-path="url(#p0816d63511)">
     <use xlink:href="#C0_0_aadb4a6806" x="77.438828" y="121.699412" style="fill: #dd8452; fill-opacity: 0.75"/>
    </g>
    <g clip-path="url(#p0816d63511)">
     <use xlink:href="#C0_0_aadb4a6806" x="83.427998" y="127.166505" style="fill: #dd8452; fill-opacity: 0.75"/>
    </g>
    <g clip-path="url(#p0816d63511)">
     <use xlink:href="#C0_0_aadb4a6806" x="84.194286" y="139.812843" style="fill: #dd8452; fill-opacity: 0.75"/>
    </g>
   </g>
   <g id="PathCollection_4">
    <defs>
     <path id="C1_0_5a4ad70170" d="M 0 2.5 
C 0.663008 2.5 1.29895 2.236584 1.767767 1.767767 
C 2.236584 1.29895 2.5 0.663008 2.5 -0 
C 2.5 -0.663008 2.236584 -1.29895 1.767767 -1.767767 
C 1.29895 -2.236584 0.663008 -2.5 0 -2.5 
C -0.663008 -2.5 -1.29895 -2.236584 -1.767767 -1.767767 
C -2.236584 -1.29895 -2.5 -0.663008 -2.5 0 
C -2.5 0.663008 -2.236584 1.29895 -1.767767 1.767767 
C -1.29895 2.236584 -0.663008 2.5 0 2.5 
z
"/>
    </defs>
    <g clip-path="url(#p0816d63511)">
     <use xlink:href="#C1_0_5a4ad70170" x="145.917246" y="174.793353" style="fill: #4c72b0; fill-opacity: 0.75"/>
    </g>
    <g clip-path="url(#p0816d63511)">
     <use xlink:href="#C1_0_5a4ad70170" x="144.109472" y="164.807518" style="fill: #4c72b0; fill-opacity: 0.75"/>
    </g>
    <g clip-path="url(#p0816d63511)">
     <use xlink:href="#C1_0_5a4ad70170" x="138.390042" y="183.700233" style="fill: #4c72b0; fill-opacity: 0.75"/>
    </g>
    <g clip-path="url(#p0816d63511)">
     <use xlink:href="#C1_0_5a4ad70170" x="145.116236" y="174.670669" style="fill: #4c72b0; fill-opacity: 0.75"/>
    </g>
    <g clip-path="url(#p0816d63511)">
     <use xlink:href="#C1_0_5a4ad70170" x="143.683594" y="167.881578" style="fill: #dd8452; fill-opacity: 0.75"/>
    </g>
    <g clip-path="url(#p0816d63511)">
     <use xlink:href="#C1_0_5a4ad70170" x="142.150639" y="161.805798" style="fill: #dd8452; fill-opacity: 0.75"/>
    </g>
    <g clip-path="url(#p0816d63511)">
     <use xlink:href="#C1_0_5a4ad70170" x="148.289866" y="154.30237" style="fill: #dd8452; fill-opacity: 0.75"/>
    </g>
    <g clip-path="url(#p0816d63511)">
     <use xlink:href="#C1_0_5a4ad70170" x="144.613761" y="143.697781" style="fill: #dd8452; fill-opacity: 0.75"/>
    </g>
   </g>
   <g id="PathCollection_5">
    <defs>
     <path id="C2_0_f2a87e492e" d="M 0 2.5 
C 0.663008 2.5 1.29895 2.236584 1.767767 1.767767 
C 2.236584 1.29895 2.5 0.663008 2.5 -0 
C 2.5 -0.663008 2.236584 -1.29895 1.767767 -1.767767 
C 1.29895 -2.236584 0.663008 -2.5 0 -2.5 
C -0.663008 -2.5 -1.29895 -2.236584 -1.767767 -1.767767 
C -2.236584 -1.29895 -2.5 -0.663008 -2.5 0 
C -2.5 0.663008 -2.236584 1.29895 -1.767767 1.767767 
C -1.29895 2.236584 -0.663008 2.5 0 2.5 
z
"/>
    </defs>
    <g clip-path="url(#p0816d63511)">
     <use xlink:href="#C2_0_f2a87e492e" x="212.464758" y="178.276706" style="fill: #4c72b0; fill-opacity: 0.75"/>
    </g>
    <g clip-path="url(#p0816d63511)">
     <use xlink:href="#C2_0_f2a87e492e" x="212.449301" y="205.280923" style="fill: #4c72b0; fill-opacity: 0.75"/>
    </g>
    <g clip-path="url(#p0816d63511)">
     <use xlink:href="#C2_0_f2a87e492e" x="213.634252" y="178.863306" style="fill: #4c72b0; fill-opacity: 0.75"/>
    </g>
    <g clip-path="url(#p0816d63511)">
     <use xlink:href="#C2_0_f2a87e492e" x="210.053801" y="181.523256" style="fill: #4c72b0; fill-opacity: 0.75"/>
    </g>
    <g clip-path="url(#p0816d63511)">
     <use xlink:href="#C2_0_f2a87e492e" x="208.431344" y="175.318415" style="fill: #dd8452; fill-opacity: 0.75"/>
    </g>
    <g clip-path="url(#p0816d63511)">
     <use xlink:href="#C2_0_f2a87e492e" x="209.361029" y="186.956202" style="fill: #dd8452; fill-opacity: 0.75"/>
    </g>
    <g clip-path="url(#p0816d63511)">
     <use xlink:href="#C2_0_f2a87e492e" x="203.253628" y="179.862855" style="fill: #dd8452; fill-opacity: 0.75"/>
    </g>
    <g clip-path="url(#p0816d63511)">
     <use xlink:href="#C2_0_f2a87e492e" x="203.347336" y="198.195721" style="fill: #dd8452; fill-opacity: 0.75"/>
    </g>
   </g>
   <g id="PathCollection_6">
    <defs>
     <path id="C3_0_8c707a9d60" d="M 0 2.5 
C 0.663008 2.5 1.29895 2.236584 1.767767 1.767767 
C 2.236584 1.29895 2.5 0.663008 2.5 -0 
C 2.5 -0.663008 2.236584 -1.29895 1.767767 -1.767767 
C 1.29895 -2.236584 0.663008 -2.5 0 -2.5 
C -0.663008 -2.5 -1.29895 -2.236584 -1.767767 -1.767767 
C -2.236584 -1.29895 -2.5 -0.663008 -2.5 0 
C -2.5 0.663008 -2.236584 1.29895 -1.767767 1.767767 
C -1.29895 2.236584 -0.663008 2.5 0 2.5 
z
"/>
    </defs>
    <g clip-path="url(#p0816d63511)">
     <use xlink:href="#C3_0_8c707a9d60" x="268.665783" y="124.205199" style="fill: #4c72b0; fill-opacity: 0.75"/>
    </g>
    <g clip-path="url(#p0816d63511)">
     <use xlink:href="#C3_0_8c707a9d60" x="271.066181" y="123.031695" style="fill: #4c72b0; fill-opacity: 0.75"/>
    </g>
    <g clip-path="url(#p0816d63511)">
     <use xlink:href="#C3_0_8c707a9d60" x="272.459825" y="86.171262" style="fill: #4c72b0; fill-opacity: 0.75"/>
    </g>
    <g clip-path="url(#p0816d63511)">
     <use xlink:href="#C3_0_8c707a9d60" x="278.601076" y="151.941295" style="fill: #4c72b0; fill-opacity: 0.75"/>
    </g>
    <g clip-path="url(#p0816d63511)">
     <use xlink:href="#C3_0_8c707a9d60" x="267.985829" y="109.503231" style="fill: #4c72b0; fill-opacity: 0.75"/>
    </g>
    <g clip-path="url(#p0816d63511)">
     <use xlink:href="#C3_0_8c707a9d60" x="269.539794" y="159.574774" style="fill: #dd8452; fill-opacity: 0.75"/>
    </g>
    <g clip-path="url(#p0816d63511)">
     <use xlink:href="#C3_0_8c707a9d60" x="277.853758" y="142.066955" style="fill: #dd8452; fill-opacity: 0.75"/>
    </g>
    <g clip-path="url(#p0816d63511)">
     <use xlink:href="#C3_0_8c707a9d60" x="269.836412" y="152.197482" style="fill: #dd8452; fill-opacity: 0.75"/>
    </g>
    <g clip-path="url(#p0816d63511)">
     <use xlink:href="#C3_0_8c707a9d60" x="279.557538" y="175.296378" style="fill: #dd8452; fill-opacity: 0.75"/>
    </g>
    <g clip-path="url(#p0816d63511)">
     <use xlink:href="#C3_0_8c707a9d60" x="276.561375" y="180.720741" style="fill: #dd8452; fill-opacity: 0.75"/>
    </g>
   </g>
   <g id="PathCollection_7">
    <defs>
     <path id="C4_0_ed8f18f398" d="M 0 2.5 
C 0.663008 2.5 1.29895 2.236584 1.767767 1.767767 
C 2.236584 1.29895 2.5 0.663008 2.5 -0 
C 2.5 -0.663008 2.236584 -1.29895 1.767767 -1.767767 
C 1.29895 -2.236584 0.663008 -2.5 0 -2.5 
C -0.663008 -2.5 -1.29895 -2.236584 -1.767767 -1.767767 
C -2.236584 -1.29895 -2.5 -0.663008 -2.5 0 
C -2.5 0.663008 -2.236584 1.29895 -1.767767 1.767767 
C -1.29895 2.236584 -0.663008 2.5 0 2.5 
z
"/>
    </defs>
    <g clip-path="url(#p0816d63511)">
     <use xlink:href="#C4_0_ed8f18f398" x="338.829743" y="48.246475" style="fill: #4c72b0; fill-opacity: 0.75"/>
    </g>
    <g clip-path="url(#p0816d63511)">
     <use xlink:href="#C4_0_ed8f18f398" x="344.359079" y="42.415932" style="fill: #4c72b0; fill-opacity: 0.75"/>
    </g>
    <g clip-path="url(#p0816d63511)">
     <use xlink:href="#C4_0_ed8f18f398" x="335.411865" y="109.668592" style="fill: #4c72b0; fill-opacity: 0.75"/>
    </g>
    <g clip-path="url(#p0816d63511)">
     <use xlink:href="#C4_0_ed8f18f398" x="344.829362" y="123.952663" style="fill: #dd8452; fill-opacity: 0.75"/>
    </g>
    <g clip-path="url(#p0816d63511)">
     <use xlink:href="#C4_0_ed8f18f398" x="336.698037" y="131.337437" style="fill: #dd8452; fill-opacity: 0.75"/>
    </g>
    <g clip-path="url(#p0816d63511)">
     <use xlink:href="#C4_0_ed8f18f398" x="338.032641" y="98.762973" style="fill: #dd8452; fill-opacity: 0.75"/>
    </g>
   </g>
   <g id="PathCollection_8">
    <defs>
     <path id="C5_0_8dd980a130" d="M 0 2.5 
C 0.663008 2.5 1.29895 2.236584 1.767767 1.767767 
C 2.236584 1.29895 2.5 0.663008 2.5 -0 
C 2.5 -0.663008 2.236584 -1.29895 1.767767 -1.767767 
C 1.29895 -2.236584 0.663008 -2.5 0 -2.5 
C -0.663008 -2.5 -1.29895 -2.236584 -1.767767 -1.767767 
C -2.236584 -1.29895 -2.5 -0.663008 -2.5 0 
C -2.5 0.663008 -2.236584 1.29895 -1.767767 1.767767 
C -1.29895 2.236584 -0.663008 2.5 0 2.5 
z
"/>
    </defs>
    <g clip-path="url(#p0816d63511)">
     <use xlink:href="#C5_0_8dd980a130" x="400.876148" y="83.005127" style="fill: #4c72b0; fill-opacity: 0.75"/>
    </g>
    <g clip-path="url(#p0816d63511)">
     <use xlink:href="#C5_0_8dd980a130" x="408.573684" y="72.474989" style="fill: #4c72b0; fill-opacity: 0.75"/>
    </g>
    <g clip-path="url(#p0816d63511)">
     <use xlink:href="#C5_0_8dd980a130" x="409.022305" y="90.648025" style="fill: #4c72b0; fill-opacity: 0.75"/>
    </g>
    <g clip-path="url(#p0816d63511)">
     <use xlink:href="#C5_0_8dd980a130" x="405.347154" y="97.319725" style="fill: #4c72b0; fill-opacity: 0.75"/>
    </g>
    <g clip-path="url(#p0816d63511)">
     <use xlink:href="#C5_0_8dd980a130" x="406.861372" y="110.5301" style="fill: #dd8452; fill-opacity: 0.75"/>
    </g>
    <g clip-path="url(#p0816d63511)">
     <use xlink:href="#C5_0_8dd980a130" x="400.228377" y="108.388099" style="fill: #dd8452; fill-opacity: 0.75"/>
    </g>
    <g clip-path="url(#p0816d63511)">
     <use xlink:href="#C5_0_8dd980a130" x="398.525554" y="111.957477" style="fill: #dd8452; fill-opacity: 0.75"/>
    </g>
    <g clip-path="url(#p0816d63511)">
     <use xlink:href="#C5_0_8dd980a130" x="399.503474" y="100.112219" style="fill: #dd8452; fill-opacity: 0.75"/>
    </g>
   </g>
   <g id="PathCollection_9">
    <defs>
     <path id="C6_0_62de479793" d="M 0 2.5 
C 0.663008 2.5 1.29895 2.236584 1.767767 1.767767 
C 2.236584 1.29895 2.5 0.663008 2.5 -0 
C 2.5 -0.663008 2.236584 -1.29895 1.767767 -1.767767 
C 1.29895 -2.236584 0.663008 -2.5 0 -2.5 
C -0.663008 -2.5 -1.29895 -2.236584 -1.767767 -1.767767 
C -2.236584 -1.29895 -2.5 -0.663008 -2.5 0 
C -2.5 0.663008 -2.236584 1.29895 -1.767767 1.767767 
C -1.29895 2.236584 -0.663008 2.5 0 2.5 
z
"/>
    </defs>
    <g clip-path="url(#p0816d63511)">
     <use xlink:href="#C6_0_62de479793" x="465.277776" y="93.557086" style="fill: #4c72b0; fill-opacity: 0.75"/>
    </g>
    <g clip-path="url(#p0816d63511)">
     <use xlink:href="#C6_0_62de479793" x="464.463999" y="96.389463" style="fill: #4c72b0; fill-opacity: 0.75"/>
    </g>
    <g clip-path="url(#p0816d63511)">
     <use xlink:href="#C6_0_62de479793" x="465.994087" y="105.909707" style="fill: #4c72b0; fill-opacity: 0.75"/>
    </g>
    <g clip-path="url(#p0816d63511)">
     <use xlink:href="#C6_0_62de479793" x="469.883463" y="98.884611" style="fill: #4c72b0; fill-opacity: 0.75"/>
    </g>
    <g clip-path="url(#p0816d63511)">
     <use xlink:href="#C6_0_62de479793" x="473.930315" y="86.752228" style="fill: #dd8452; fill-opacity: 0.75"/>
    </g>
    <g clip-path="url(#p0816d63511)">
     <use xlink:href="#C6_0_62de479793" x="461.758772" y="71.039187" style="fill: #dd8452; fill-opacity: 0.75"/>
    </g>
    <g clip-path="url(#p0816d63511)">
     <use xlink:href="#C6_0_62de479793" x="472.508805" y="79.180702" style="fill: #dd8452; fill-opacity: 0.75"/>
    </g>
    <g clip-path="url(#p0816d63511)">
     <use xlink:href="#C6_0_62de479793" x="471.327159" y="111.847911" style="fill: #dd8452; fill-opacity: 0.75"/>
    </g>
   </g>
   <g id="text_18">
    <!-- PPP1CB, $p_{adj}$ &lt; .001 *** -->
    <g style="fill: #262626" transform="translate(47.22 18.32)scale(0.09 -0.09)">
     <defs>
      <path id="ArialMT-43" d="M 3763 1606 
L 4369 1453 
Q 4178 706 3683 314 
Q 3188 -78 2472 -78 
Q 1731 -78 1267 223 
Q 803 525 561 1097 
Q 319 1669 319 2325 
Q 319 3041 592 3573 
Q 866 4106 1370 4382 
Q 1875 4659 2481 4659 
Q 3169 4659 3637 4309 
Q 4106 3959 4291 3325 
L 3694 3184 
Q 3534 3684 3231 3912 
Q 2928 4141 2469 4141 
Q 1941 4141 1586 3887 
Q 1231 3634 1087 3207 
Q 944 2781 944 2328 
Q 944 1744 1114 1308 
Q 1284 872 1643 656 
Q 2003 441 2422 441 
Q 2931 441 3284 734 
Q 3638 1028 3763 1606 
z
" transform="scale(0.015625)"/>
      <path id="ArialMT-42" d="M 469 0 
L 469 4581 
L 2188 4581 
Q 2713 4581 3030 4442 
Q 3347 4303 3526 4014 
Q 3706 3725 3706 3409 
Q 3706 3116 3547 2856 
Q 3388 2597 3066 2438 
Q 3481 2316 3704 2022 
Q 3928 1728 3928 1328 
Q 3928 1006 3792 729 
Q 3656 453 3456 303 
Q 3256 153 2954 76 
Q 2653 0 2216 0 
L 469 0 
z
M 1075 2656 
L 2066 2656 
Q 2469 2656 2644 2709 
Q 2875 2778 2992 2937 
Q 3109 3097 3109 3338 
Q 3109 3566 3000 3739 
Q 2891 3913 2687 3977 
Q 2484 4041 1991 4041 
L 1075 4041 
L 1075 2656 
z
M 1075 541 
L 2216 541 
Q 2509 541 2628 563 
Q 2838 600 2978 687 
Q 3119 775 3209 942 
Q 3300 1109 3300 1328 
Q 3300 1584 3169 1773 
Q 3038 1963 2805 2039 
Q 2572 2116 2134 2116 
L 1075 2116 
L 1075 541 
z
" transform="scale(0.015625)"/>
      <path id="ArialMT-2c" d="M 569 0 
L 569 641 
L 1209 641 
L 1209 0 
Q 1209 -353 1084 -570 
Q 959 -788 688 -906 
L 531 -666 
Q 709 -588 793 -436 
Q 878 -284 888 0 
L 569 0 
z
" transform="scale(0.015625)"/>
      <path id="DejaVuSans-Oblique-70" d="M 3175 2156 
Q 3175 2616 2975 2859 
Q 2775 3103 2400 3103 
Q 2144 3103 1911 2972 
Q 1678 2841 1497 2591 
Q 1319 2344 1212 1994 
Q 1106 1644 1106 1300 
Q 1106 863 1306 627 
Q 1506 391 1875 391 
Q 2147 391 2380 519 
Q 2613 647 2778 891 
Q 2956 1147 3065 1494 
Q 3175 1841 3175 2156 
z
M 1394 2969 
Q 1625 3272 1939 3428 
Q 2253 3584 2638 3584 
Q 3175 3584 3472 3232 
Q 3769 2881 3769 2247 
Q 3769 1728 3584 1258 
Q 3400 788 3053 416 
Q 2822 169 2531 39 
Q 2241 -91 1919 -91 
Q 1547 -91 1294 64 
Q 1041 219 916 525 
L 556 -1331 
L -19 -1331 
L 922 3500 
L 1497 3500 
L 1394 2969 
z
" transform="scale(0.015625)"/>
      <path id="DejaVuSans-Oblique-61" d="M 3438 1997 
L 3047 0 
L 2472 0 
L 2578 531 
Q 2325 219 2001 64 
Q 1678 -91 1281 -91 
Q 834 -91 548 182 
Q 263 456 263 884 
Q 263 1497 752 1853 
Q 1241 2209 2100 2209 
L 2900 2209 
L 2931 2363 
Q 2938 2388 2941 2417 
Q 2944 2447 2944 2509 
Q 2944 2788 2717 2942 
Q 2491 3097 2081 3097 
Q 1800 3097 1504 3025 
Q 1209 2953 897 2809 
L 997 3341 
Q 1322 3463 1633 3523 
Q 1944 3584 2234 3584 
Q 2853 3584 3176 3315 
Q 3500 3047 3500 2534 
Q 3500 2431 3484 2292 
Q 3469 2153 3438 1997 
z
M 2816 1759 
L 2241 1759 
Q 1534 1759 1195 1570 
Q 856 1381 856 984 
Q 856 709 1029 553 
Q 1203 397 1509 397 
Q 1978 397 2328 733 
Q 2678 1069 2791 1631 
L 2816 1759 
z
" transform="scale(0.015625)"/>
      <path id="DejaVuSans-Oblique-64" d="M 2675 525 
Q 2444 222 2128 65 
Q 1813 -91 1428 -91 
Q 903 -91 598 267 
Q 294 625 294 1247 
Q 294 1766 478 2236 
Q 663 2706 1013 3078 
Q 1244 3325 1534 3454 
Q 1825 3584 2144 3584 
Q 2481 3584 2739 3421 
Q 2997 3259 3138 2956 
L 3513 4863 
L 4091 4863 
L 3144 0 
L 2566 0 
L 2675 525 
z
M 891 1350 
Q 891 897 1095 644 
Q 1300 391 1663 391 
Q 1931 391 2161 520 
Q 2391 650 2566 903 
Q 2750 1166 2856 1509 
Q 2963 1853 2963 2188 
Q 2963 2622 2758 2865 
Q 2553 3109 2194 3109 
Q 1922 3109 1687 2981 
Q 1453 2853 1288 2613 
Q 1106 2353 998 2009 
Q 891 1666 891 1350 
z
" transform="scale(0.015625)"/>
      <path id="DejaVuSans-Oblique-6a" d="M 928 3500 
L 1503 3500 
L 813 -63 
L 809 -78 
Q 694 -675 544 -897 
Q 403 -1106 132 -1218 
Q -138 -1331 -506 -1331 
L -722 -1331 
L -628 -844 
L -481 -844 
Q -144 -844 -1 -703 
Q 141 -563 238 -63 
L 928 3500 
z
M 1197 4863 
L 1772 4863 
L 1631 4134 
L 1056 4134 
L 1197 4863 
z
" transform="scale(0.015625)"/>
      <path id="ArialMT-3c" d="M 350 2003 
L 350 2528 
L 3384 3809 
L 3384 3250 
L 978 2263 
L 3384 1266 
L 3384 706 
L 350 2003 
z
" transform="scale(0.015625)"/>
      <path id="ArialMT-2e" d="M 581 0 
L 581 641 
L 1222 641 
L 1222 0 
L 581 0 
z
" transform="scale(0.015625)"/>
      <path id="ArialMT-2a" d="M 200 3741 
L 344 4184 
Q 841 4009 1066 3881 
Q 1006 4447 1003 4659 
L 1456 4659 
Q 1447 4350 1384 3884 
Q 1706 4047 2122 4184 
L 2266 3741 
Q 1869 3609 1488 3566 
Q 1678 3400 2025 2975 
L 1650 2709 
Q 1469 2956 1222 3381 
Q 991 2941 816 2709 
L 447 2975 
Q 809 3422 966 3566 
Q 563 3644 200 3741 
z
" transform="scale(0.015625)"/>
     </defs>
     <use xlink:href="#ArialMT-50" transform="translate(0 0.203125)"/>
     <use xlink:href="#ArialMT-50" transform="translate(66.699219 0.203125)"/>
     <use xlink:href="#ArialMT-50" transform="translate(133.398438 0.203125)"/>
     <use xlink:href="#ArialMT-31" transform="translate(200.097656 0.203125)"/>
     <use xlink:href="#ArialMT-43" transform="translate(255.712891 0.203125)"/>
     <use xlink:href="#ArialMT-42" transform="translate(327.929688 0.203125)"/>
     <use xlink:href="#ArialMT-2c" transform="translate(394.628906 0.203125)"/>
     <use xlink:href="#ArialMT-20" transform="translate(422.412109 0.203125)"/>
     <use xlink:href="#DejaVuSans-Oblique-70" transform="translate(450.195312 0.203125)"/>
     <use xlink:href="#DejaVuSans-Oblique-61" transform="translate(513.671875 -16.203125)scale(0.7)"/>
     <use xlink:href="#DejaVuSans-Oblique-64" transform="translate(556.567383 -16.203125)scale(0.7)"/>
     <use xlink:href="#DejaVuSans-Oblique-6a" transform="translate(601.000977 -16.203125)scale(0.7)"/>
     <use xlink:href="#ArialMT-20" transform="translate(623.183594 0.203125)"/>
     <use xlink:href="#ArialMT-3c" transform="translate(650.966797 0.203125)"/>
     <use xlink:href="#ArialMT-20" transform="translate(709.365234 0.203125)"/>
     <use xlink:href="#ArialMT-2e" transform="translate(737.148438 0.203125)"/>
     <use xlink:href="#ArialMT-30" transform="translate(764.931641 0.203125)"/>
     <use xlink:href="#ArialMT-30" transform="translate(820.546875 0.203125)"/>
     <use xlink:href="#ArialMT-31" transform="translate(876.162109 0.203125)"/>
     <use xlink:href="#ArialMT-20" transform="translate(931.777344 0.203125)"/>
     <use xlink:href="#ArialMT-2a" transform="translate(959.560547 0.203125)"/>
     <use xlink:href="#ArialMT-2a" transform="translate(998.476562 0.203125)"/>
     <use xlink:href="#ArialMT-2a" transform="translate(1037.392578 0.203125)"/>
    </g>
   </g>
   <g id="legend_1">
    <g id="patch_5">
     <path d="M 441.91497 69.712344 
L 494.21622 69.712344 
Q 496.01622 69.712344 496.01622 67.912344 
L 496.01622 30.62 
Q 496.01622 28.82 494.21622 28.82 
L 441.91497 28.82 
Q 440.11497 28.82 440.11497 30.62 
L 440.11497 67.912344 
Q 440.11497 69.712344 441.91497 69.712344 
z
" style="fill: #ffffff; opacity: 0.8; stroke: #cccccc; stroke-linejoin: miter"/>
    </g>
    <g id="text_19">
     <!-- Treatment -->
     <g style="fill: #262626" transform="translate(447.729111 38.862031)scale(0.09 -0.09)">
      <use xlink:href="#ArialMT-54"/>
      <use xlink:href="#ArialMT-72" x="57.333984"/>
      <use xlink:href="#ArialMT-65" x="90.634766"/>
      <use xlink:href="#ArialMT-61" x="146.25"/>
      <use xlink:href="#ArialMT-74" x="201.865234"/>
      <use xlink:href="#ArialMT-6d" x="229.648438"/>
      <use xlink:href="#ArialMT-65" x="312.949219"/>
      <use xlink:href="#ArialMT-6e" x="368.564453"/>
      <use xlink:href="#ArialMT-74" x="424.179688"/>
     </g>
    </g>
    <g id="PathCollection_10">
     <defs>
      <path id="md5ab637246" d="M 0 3.872983 
C 1.027127 3.872983 2.012324 3.464901 2.738613 2.738613 
C 3.464901 2.012324 3.872983 1.027127 3.872983 0 
C 3.872983 -1.027127 3.464901 -2.012324 2.738613 -2.738613 
C 2.012324 -3.464901 1.027127 -3.872983 0 -3.872983 
C -1.027127 -3.872983 -2.012324 -3.464901 -2.738613 -2.738613 
C -3.464901 -2.012324 -3.872983 -1.027127 -3.872983 0 
C -3.872983 1.027127 -3.464901 2.012324 -2.738613 2.738613 
C -2.012324 3.464901 -1.027127 3.872983 0 3.872983 
z
" style="stroke: #4c72b0"/>
     </defs>
     <g>
      <use xlink:href="#md5ab637246" x="452.71497" y="49.230313" style="fill: #4c72b0; stroke: #4c72b0"/>
     </g>
    </g>
    <g id="text_20">
     <!-- BEVA -->
     <g style="fill: #262626" transform="translate(468.91497 51.592813)scale(0.09 -0.09)">
      <defs>
       <path id="ArialMT-45" d="M 506 0 
L 506 4581 
L 3819 4581 
L 3819 4041 
L 1113 4041 
L 1113 2638 
L 3647 2638 
L 3647 2100 
L 1113 2100 
L 1113 541 
L 3925 541 
L 3925 0 
L 506 0 
z
" transform="scale(0.015625)"/>
       <path id="ArialMT-56" d="M 1803 0 
L 28 4581 
L 684 4581 
L 1875 1253 
Q 2019 853 2116 503 
Q 2222 878 2363 1253 
L 3600 4581 
L 4219 4581 
L 2425 0 
L 1803 0 
z
" transform="scale(0.015625)"/>
       <path id="ArialMT-41" d="M -9 0 
L 1750 4581 
L 2403 4581 
L 4278 0 
L 3588 0 
L 3053 1388 
L 1138 1388 
L 634 0 
L -9 0 
z
M 1313 1881 
L 2866 1881 
L 2388 3150 
Q 2169 3728 2063 4100 
Q 1975 3659 1816 3225 
L 1313 1881 
z
" transform="scale(0.015625)"/>
      </defs>
      <use xlink:href="#ArialMT-42"/>
      <use xlink:href="#ArialMT-45" x="66.699219"/>
      <use xlink:href="#ArialMT-56" x="133.398438"/>
      <use xlink:href="#ArialMT-41" x="192.722656"/>
     </g>
    </g>
    <g id="PathCollection_11">
     <defs>
      <path id="md2572403b3" d="M 0 3.872983 
C 1.027127 3.872983 2.012324 3.464901 2.738613 2.738613 
C 3.464901 2.012324 3.872983 1.027127 3.872983 0 
C 3.872983 -1.027127 3.464901 -2.012324 2.738613 -2.738613 
C 2.012324 -3.464901 1.027127 -3.872983 0 -3.872983 
C -1.027127 -3.872983 -2.012324 -3.464901 -2.738613 -2.738613 
C -3.464901 -2.012324 -3.872983 -1.027127 -3.872983 0 
C -3.872983 1.027127 -3.464901 2.012324 -2.738613 2.738613 
C -2.012324 3.464901 -1.027127 3.872983 0 3.872983 
z
" style="stroke: #dd8452"/>
     </defs>
     <g>
      <use xlink:href="#md2572403b3" x="452.71497" y="61.961094" style="fill: #dd8452; stroke: #dd8452"/>
     </g>
    </g>
    <g id="text_21">
     <!-- CTRL -->
     <g style="fill: #262626" transform="translate(468.91497 64.323594)scale(0.09 -0.09)">
      <defs>
       <path id="ArialMT-52" d="M 503 0 
L 503 4581 
L 2534 4581 
Q 3147 4581 3465 4457 
Q 3784 4334 3975 4021 
Q 4166 3709 4166 3331 
Q 4166 2844 3850 2509 
Q 3534 2175 2875 2084 
Q 3116 1969 3241 1856 
Q 3506 1613 3744 1247 
L 4541 0 
L 3778 0 
L 3172 953 
Q 2906 1366 2734 1584 
Q 2563 1803 2427 1890 
Q 2291 1978 2150 2013 
Q 2047 2034 1813 2034 
L 1109 2034 
L 1109 0 
L 503 0 
z
M 1109 2559 
L 2413 2559 
Q 2828 2559 3062 2645 
Q 3297 2731 3419 2920 
Q 3541 3109 3541 3331 
Q 3541 3656 3305 3865 
Q 3069 4075 2559 4075 
L 1109 4075 
L 1109 2559 
z
" transform="scale(0.015625)"/>
       <path id="ArialMT-4c" d="M 469 0 
L 469 4581 
L 1075 4581 
L 1075 541 
L 3331 541 
L 3331 0 
L 469 0 
z
" transform="scale(0.015625)"/>
      </defs>
      <use xlink:href="#ArialMT-43"/>
      <use xlink:href="#ArialMT-54" x="72.216797"/>
      <use xlink:href="#ArialMT-52" x="133.300781"/>
      <use xlink:href="#ArialMT-4c" x="205.517578"/>
     </g>
    </g>
   </g>
  </g>
 </g>
 <defs>
  <clipPath id="p0816d63511">
   <rect x="47.22" y="24.32" width="453.29622" height="189.57811"/>
  </clipPath>
 </defs>
</svg>
