<?xml version="1.0" encoding="utf-8" standalone="no"?>
<!DOCTYPE svg PUBLIC "-//W3C//DTD SVG 1.1//EN"
  "http://www.w3.org/Graphics/SVG/1.1/DTD/svg11.dtd">
<svg xmlns:xlink="http://www.w3.org/1999/xlink" width="510.23622pt" height="255.11811pt" viewBox="0 0 510.23622 255.11811" xmlns="http://www.w3.org/2000/svg" version="1.1">
 <metadata>
  <rdf:RDF xmlns:dc="http://purl.org/dc/elements/1.1/" xmlns:cc="http://creativecommons.org/ns#" xmlns:rdf="http://www.w3.org/1999/02/22-rdf-syntax-ns#">
   <cc:Work>
    <dc:type rdf:resource="http://purl.org/dc/dcmitype/StillImage"/>
    <dc:date>2022-04-27T00:18:45.817225</dc:date>
    <dc:format>image/svg+xml</dc:format>
    <dc:creator>
     <cc:Agent>
      <dc:title>Matplotlib v3.5.1, https://matplotlib.org/</dc:title>
     </cc:Agent>
    </dc:creator>
   </cc:Work>
  </rdf:RDF>
 </metadata>
 <defs>
  <style type="text/css">*{stroke-linejoin: round; stroke-linecap: butt}</style>
 </defs>
 <g id="figure_1">
  <g id="patch_1">
   <path d="M 0 255.11811 
L 510.23622 255.11811 
L 510.23622 0 
L 0 0 
z
" style="fill: #ffffff"/>
  </g>
  <g id="axes_1">
   <g id="patch_2">
    <path d="M 47.22 213.89811 
L 500.51622 213.89811 
L 500.51622 24.32 
L 47.22 24.32 
z
" style="fill: #ffffff"/>
   </g>
   <g id="matplotlib.axis_1">
    <g id="xtick_1">
     <g id="text_1">
      <!-- 49 -->
      <g style="fill: #444444" transform="translate(74.593458 229.840141)scale(0.09 -0.09)">
       <defs>
        <path id="ArialMT-34" d="M 2069 0 
L 2069 1097 
L 81 1097 
L 81 1613 
L 2172 4581 
L 2631 4581 
L 2631 1613 
L 3250 1613 
L 3250 1097 
L 2631 1097 
L 2631 0 
L 2069 0 
z
M 2069 1613 
L 2069 3678 
L 634 1613 
L 2069 1613 
z
" transform="scale(0.015625)"/>
        <path id="ArialMT-39" d="M 350 1059 
L 891 1109 
Q 959 728 1153 556 
Q 1347 384 1650 384 
Q 1909 384 2104 503 
Q 2300 622 2425 820 
Q 2550 1019 2634 1356 
Q 2719 1694 2719 2044 
Q 2719 2081 2716 2156 
Q 2547 1888 2255 1720 
Q 1963 1553 1622 1553 
Q 1053 1553 659 1965 
Q 266 2378 266 3053 
Q 266 3750 677 4175 
Q 1088 4600 1706 4600 
Q 2153 4600 2523 4359 
Q 2894 4119 3086 3673 
Q 3278 3228 3278 2384 
Q 3278 1506 3087 986 
Q 2897 466 2520 194 
Q 2144 -78 1638 -78 
Q 1100 -78 759 220 
Q 419 519 350 1059 
z
M 2653 3081 
Q 2653 3566 2395 3850 
Q 2138 4134 1775 4134 
Q 1400 4134 1122 3828 
Q 844 3522 844 3034 
Q 844 2597 1108 2323 
Q 1372 2050 1759 2050 
Q 2150 2050 2401 2323 
Q 2653 2597 2653 3081 
z
" transform="scale(0.015625)"/>
       </defs>
       <use xlink:href="#ArialMT-34"/>
       <use xlink:href="#ArialMT-39" x="55.615234"/>
      </g>
     </g>
    </g>
    <g id="xtick_2">
     <g id="text_2">
      <!-- 17 -->
      <g style="fill: #444444" transform="translate(139.350061 229.840141)scale(0.09 -0.09)">
       <defs>
        <path id="ArialMT-31" d="M 2384 0 
L 1822 0 
L 1822 3584 
Q 1619 3391 1289 3197 
Q 959 3003 697 2906 
L 697 3450 
Q 1169 3672 1522 3987 
Q 1875 4303 2022 4600 
L 2384 4600 
L 2384 0 
z
" transform="scale(0.015625)"/>
        <path id="ArialMT-37" d="M 303 3981 
L 303 4522 
L 3269 4522 
L 3269 4084 
Q 2831 3619 2401 2847 
Q 1972 2075 1738 1259 
Q 1569 684 1522 0 
L 944 0 
Q 953 541 1156 1306 
Q 1359 2072 1739 2783 
Q 2119 3494 2547 3981 
L 303 3981 
z
" transform="scale(0.015625)"/>
       </defs>
       <use xlink:href="#ArialMT-31"/>
       <use xlink:href="#ArialMT-37" x="55.615234"/>
      </g>
     </g>
    </g>
    <g id="xtick_3">
     <g id="text_3">
      <!-- 69 -->
      <g style="fill: #444444" transform="translate(204.106664 229.840141)scale(0.09 -0.09)">
       <defs>
        <path id="ArialMT-36" d="M 3184 3459 
L 2625 3416 
Q 2550 3747 2413 3897 
Q 2184 4138 1850 4138 
Q 1581 4138 1378 3988 
Q 1113 3794 959 3422 
Q 806 3050 800 2363 
Q 1003 2672 1297 2822 
Q 1591 2972 1913 2972 
Q 2475 2972 2870 2558 
Q 3266 2144 3266 1488 
Q 3266 1056 3080 686 
Q 2894 316 2569 119 
Q 2244 -78 1831 -78 
Q 1128 -78 684 439 
Q 241 956 241 2144 
Q 241 3472 731 4075 
Q 1159 4600 1884 4600 
Q 2425 4600 2770 4297 
Q 3116 3994 3184 3459 
z
M 888 1484 
Q 888 1194 1011 928 
Q 1134 663 1356 523 
Q 1578 384 1822 384 
Q 2178 384 2434 671 
Q 2691 959 2691 1453 
Q 2691 1928 2437 2201 
Q 2184 2475 1800 2475 
Q 1419 2475 1153 2201 
Q 888 1928 888 1484 
z
" transform="scale(0.015625)"/>
       </defs>
       <use xlink:href="#ArialMT-36"/>
       <use xlink:href="#ArialMT-39" x="55.615234"/>
      </g>
     </g>
    </g>
    <g id="xtick_4">
     <g id="text_4">
      <!-- 15 -->
      <g style="fill: #444444" transform="translate(268.863266 229.840141)scale(0.09 -0.09)">
       <defs>
        <path id="ArialMT-35" d="M 266 1200 
L 856 1250 
Q 922 819 1161 601 
Q 1400 384 1738 384 
Q 2144 384 2425 690 
Q 2706 997 2706 1503 
Q 2706 1984 2436 2262 
Q 2166 2541 1728 2541 
Q 1456 2541 1237 2417 
Q 1019 2294 894 2097 
L 366 2166 
L 809 4519 
L 3088 4519 
L 3088 3981 
L 1259 3981 
L 1013 2750 
Q 1425 3038 1878 3038 
Q 2478 3038 2890 2622 
Q 3303 2206 3303 1553 
Q 3303 931 2941 478 
Q 2500 -78 1738 -78 
Q 1113 -78 717 272 
Q 322 622 266 1200 
z
" transform="scale(0.015625)"/>
       </defs>
       <use xlink:href="#ArialMT-31"/>
       <use xlink:href="#ArialMT-35" x="55.615234"/>
      </g>
     </g>
    </g>
    <g id="xtick_5">
     <g id="text_5">
      <!-- 5 -->
      <g style="fill: #444444" transform="translate(336.122291 229.840141)scale(0.09 -0.09)">
       <use xlink:href="#ArialMT-35"/>
      </g>
     </g>
    </g>
    <g id="xtick_6">
     <g id="text_6">
      <!-- 126 -->
      <g style="fill: #444444" transform="translate(395.87405 229.840141)scale(0.09 -0.09)">
       <defs>
        <path id="ArialMT-32" d="M 3222 541 
L 3222 0 
L 194 0 
Q 188 203 259 391 
Q 375 700 629 1000 
Q 884 1300 1366 1694 
Q 2113 2306 2375 2664 
Q 2638 3022 2638 3341 
Q 2638 3675 2398 3904 
Q 2159 4134 1775 4134 
Q 1369 4134 1125 3890 
Q 881 3647 878 3216 
L 300 3275 
Q 359 3922 746 4261 
Q 1134 4600 1788 4600 
Q 2447 4600 2831 4234 
Q 3216 3869 3216 3328 
Q 3216 3053 3103 2787 
Q 2991 2522 2730 2228 
Q 2469 1934 1863 1422 
Q 1356 997 1212 845 
Q 1069 694 975 541 
L 3222 541 
z
" transform="scale(0.015625)"/>
       </defs>
       <use xlink:href="#ArialMT-31"/>
       <use xlink:href="#ArialMT-32" x="55.615234"/>
       <use xlink:href="#ArialMT-36" x="111.230469"/>
      </g>
     </g>
    </g>
    <g id="xtick_7">
     <g id="text_7">
      <!-- 62 -->
      <g style="fill: #444444" transform="translate(463.133075 229.840141)scale(0.09 -0.09)">
       <use xlink:href="#ArialMT-36"/>
       <use xlink:href="#ArialMT-32" x="55.615234"/>
      </g>
     </g>
    </g>
    <g id="text_8">
     <!-- Patient -->
     <g style="fill: #444444" transform="translate(259.859048 242.070923)scale(0.09 -0.09)">
      <defs>
       <path id="ArialMT-50" d="M 494 0 
L 494 4581 
L 2222 4581 
Q 2678 4581 2919 4538 
Q 3256 4481 3484 4323 
Q 3713 4166 3852 3881 
Q 3991 3597 3991 3256 
Q 3991 2672 3619 2267 
Q 3247 1863 2275 1863 
L 1100 1863 
L 1100 0 
L 494 0 
z
M 1100 2403 
L 2284 2403 
Q 2872 2403 3119 2622 
Q 3366 2841 3366 3238 
Q 3366 3525 3220 3729 
Q 3075 3934 2838 4000 
Q 2684 4041 2272 4041 
L 1100 4041 
L 1100 2403 
z
" transform="scale(0.015625)"/>
       <path id="ArialMT-61" d="M 2588 409 
Q 2275 144 1986 34 
Q 1697 -75 1366 -75 
Q 819 -75 525 192 
Q 231 459 231 875 
Q 231 1119 342 1320 
Q 453 1522 633 1644 
Q 813 1766 1038 1828 
Q 1203 1872 1538 1913 
Q 2219 1994 2541 2106 
Q 2544 2222 2544 2253 
Q 2544 2597 2384 2738 
Q 2169 2928 1744 2928 
Q 1347 2928 1158 2789 
Q 969 2650 878 2297 
L 328 2372 
Q 403 2725 575 2942 
Q 747 3159 1072 3276 
Q 1397 3394 1825 3394 
Q 2250 3394 2515 3294 
Q 2781 3194 2906 3042 
Q 3031 2891 3081 2659 
Q 3109 2516 3109 2141 
L 3109 1391 
Q 3109 606 3145 398 
Q 3181 191 3288 0 
L 2700 0 
Q 2613 175 2588 409 
z
M 2541 1666 
Q 2234 1541 1622 1453 
Q 1275 1403 1131 1340 
Q 988 1278 909 1158 
Q 831 1038 831 891 
Q 831 666 1001 516 
Q 1172 366 1500 366 
Q 1825 366 2078 508 
Q 2331 650 2450 897 
Q 2541 1088 2541 1459 
L 2541 1666 
z
" transform="scale(0.015625)"/>
       <path id="ArialMT-74" d="M 1650 503 
L 1731 6 
Q 1494 -44 1306 -44 
Q 1000 -44 831 53 
Q 663 150 594 308 
Q 525 466 525 972 
L 525 2881 
L 113 2881 
L 113 3319 
L 525 3319 
L 525 4141 
L 1084 4478 
L 1084 3319 
L 1650 3319 
L 1650 2881 
L 1084 2881 
L 1084 941 
Q 1084 700 1114 631 
Q 1144 563 1211 522 
Q 1278 481 1403 481 
Q 1497 481 1650 503 
z
" transform="scale(0.015625)"/>
       <path id="ArialMT-69" d="M 425 3934 
L 425 4581 
L 988 4581 
L 988 3934 
L 425 3934 
z
M 425 0 
L 425 3319 
L 988 3319 
L 988 0 
L 425 0 
z
" transform="scale(0.015625)"/>
       <path id="ArialMT-65" d="M 2694 1069 
L 3275 997 
Q 3138 488 2766 206 
Q 2394 -75 1816 -75 
Q 1088 -75 661 373 
Q 234 822 234 1631 
Q 234 2469 665 2931 
Q 1097 3394 1784 3394 
Q 2450 3394 2872 2941 
Q 3294 2488 3294 1666 
Q 3294 1616 3291 1516 
L 816 1516 
Q 847 969 1125 678 
Q 1403 388 1819 388 
Q 2128 388 2347 550 
Q 2566 713 2694 1069 
z
M 847 1978 
L 2700 1978 
Q 2663 2397 2488 2606 
Q 2219 2931 1791 2931 
Q 1403 2931 1139 2672 
Q 875 2413 847 1978 
z
" transform="scale(0.015625)"/>
       <path id="ArialMT-6e" d="M 422 0 
L 422 3319 
L 928 3319 
L 928 2847 
Q 1294 3394 1984 3394 
Q 2284 3394 2536 3286 
Q 2788 3178 2913 3003 
Q 3038 2828 3088 2588 
Q 3119 2431 3119 2041 
L 3119 0 
L 2556 0 
L 2556 2019 
Q 2556 2363 2490 2533 
Q 2425 2703 2258 2804 
Q 2091 2906 1866 2906 
Q 1506 2906 1245 2678 
Q 984 2450 984 1813 
L 984 0 
L 422 0 
z
" transform="scale(0.015625)"/>
      </defs>
      <use xlink:href="#ArialMT-50"/>
      <use xlink:href="#ArialMT-61" x="66.699219"/>
      <use xlink:href="#ArialMT-74" x="122.314453"/>
      <use xlink:href="#ArialMT-69" x="150.097656"/>
      <use xlink:href="#ArialMT-65" x="172.314453"/>
      <use xlink:href="#ArialMT-6e" x="227.929688"/>
      <use xlink:href="#ArialMT-74" x="283.544922"/>
     </g>
    </g>
   </g>
   <g id="matplotlib.axis_2">
    <g id="ytick_1">
     <g id="text_9">
      <!-- 0 -->
      <g style="fill: #444444" transform="translate(32.715156 214.184422)scale(0.09 -0.09)">
       <defs>
        <path id="ArialMT-30" d="M 266 2259 
Q 266 3072 433 3567 
Q 600 4063 929 4331 
Q 1259 4600 1759 4600 
Q 2128 4600 2406 4451 
Q 2684 4303 2865 4023 
Q 3047 3744 3150 3342 
Q 3253 2941 3253 2259 
Q 3253 1453 3087 958 
Q 2922 463 2592 192 
Q 2263 -78 1759 -78 
Q 1097 -78 719 397 
Q 266 969 266 2259 
z
M 844 2259 
Q 844 1131 1108 757 
Q 1372 384 1759 384 
Q 2147 384 2411 759 
Q 2675 1134 2675 2259 
Q 2675 3391 2411 3762 
Q 2147 4134 1753 4134 
Q 1366 4134 1134 3806 
Q 844 3388 844 2259 
z
" transform="scale(0.015625)"/>
       </defs>
       <use xlink:href="#ArialMT-30"/>
      </g>
     </g>
    </g>
    <g id="ytick_2">
     <g id="text_10">
      <!-- 25 -->
      <g style="fill: #444444" transform="translate(27.710313 193.062611)scale(0.09 -0.09)">
       <use xlink:href="#ArialMT-32"/>
       <use xlink:href="#ArialMT-35" x="55.615234"/>
      </g>
     </g>
    </g>
    <g id="ytick_3">
     <g id="text_11">
      <!-- 50 -->
      <g style="fill: #444444" transform="translate(27.710313 171.940801)scale(0.09 -0.09)">
       <use xlink:href="#ArialMT-35"/>
       <use xlink:href="#ArialMT-30" x="55.615234"/>
      </g>
     </g>
    </g>
    <g id="ytick_4">
     <g id="text_12">
      <!-- 75 -->
      <g style="fill: #444444" transform="translate(27.710313 150.81899)scale(0.09 -0.09)">
       <use xlink:href="#ArialMT-37"/>
       <use xlink:href="#ArialMT-35" x="55.615234"/>
      </g>
     </g>
    </g>
    <g id="ytick_5">
     <g id="text_13">
      <!-- 100 -->
      <g style="fill: #444444" transform="translate(22.705469 129.697179)scale(0.09 -0.09)">
       <use xlink:href="#ArialMT-31"/>
       <use xlink:href="#ArialMT-30" x="55.615234"/>
       <use xlink:href="#ArialMT-30" x="111.230469"/>
      </g>
     </g>
    </g>
    <g id="ytick_6">
     <g id="text_14">
      <!-- 125 -->
      <g style="fill: #444444" transform="translate(22.705469 108.575368)scale(0.09 -0.09)">
       <use xlink:href="#ArialMT-31"/>
       <use xlink:href="#ArialMT-32" x="55.615234"/>
       <use xlink:href="#ArialMT-35" x="111.230469"/>
      </g>
     </g>
    </g>
    <g id="ytick_7">
     <g id="text_15">
      <!-- 150 -->
      <g style="fill: #444444" transform="translate(22.705469 87.453558)scale(0.09 -0.09)">
       <use xlink:href="#ArialMT-31"/>
       <use xlink:href="#ArialMT-35" x="55.615234"/>
       <use xlink:href="#ArialMT-30" x="111.230469"/>
      </g>
     </g>
    </g>
    <g id="ytick_8">
     <g id="text_16">
      <!-- 175 -->
      <g style="fill: #444444" transform="translate(22.705469 66.331747)scale(0.09 -0.09)">
       <use xlink:href="#ArialMT-31"/>
       <use xlink:href="#ArialMT-37" x="55.615234"/>
       <use xlink:href="#ArialMT-35" x="111.230469"/>
      </g>
     </g>
    </g>
    <g id="ytick_9">
     <g id="text_17">
      <!-- 200 -->
      <g style="fill: #444444" transform="translate(22.705469 45.209936)scale(0.09 -0.09)">
       <use xlink:href="#ArialMT-32"/>
       <use xlink:href="#ArialMT-30" x="55.615234"/>
       <use xlink:href="#ArialMT-30" x="111.230469"/>
      </g>
     </g>
    </g>
    <g id="text_18">
     <!-- Trimmed Means of M values (TMM) -->
     <g style="fill: #444444" transform="translate(16.81125 190.194993)rotate(-90)scale(0.09 -0.09)">
      <defs>
       <path id="ArialMT-54" d="M 1659 0 
L 1659 4041 
L 150 4041 
L 150 4581 
L 3781 4581 
L 3781 4041 
L 2266 4041 
L 2266 0 
L 1659 0 
z
" transform="scale(0.015625)"/>
       <path id="ArialMT-72" d="M 416 0 
L 416 3319 
L 922 3319 
L 922 2816 
Q 1116 3169 1280 3281 
Q 1444 3394 1641 3394 
Q 1925 3394 2219 3213 
L 2025 2691 
Q 1819 2813 1613 2813 
Q 1428 2813 1281 2702 
Q 1134 2591 1072 2394 
Q 978 2094 978 1738 
L 978 0 
L 416 0 
z
" transform="scale(0.015625)"/>
       <path id="ArialMT-6d" d="M 422 0 
L 422 3319 
L 925 3319 
L 925 2853 
Q 1081 3097 1340 3245 
Q 1600 3394 1931 3394 
Q 2300 3394 2536 3241 
Q 2772 3088 2869 2813 
Q 3263 3394 3894 3394 
Q 4388 3394 4653 3120 
Q 4919 2847 4919 2278 
L 4919 0 
L 4359 0 
L 4359 2091 
Q 4359 2428 4304 2576 
Q 4250 2725 4106 2815 
Q 3963 2906 3769 2906 
Q 3419 2906 3187 2673 
Q 2956 2441 2956 1928 
L 2956 0 
L 2394 0 
L 2394 2156 
Q 2394 2531 2256 2718 
Q 2119 2906 1806 2906 
Q 1569 2906 1367 2781 
Q 1166 2656 1075 2415 
Q 984 2175 984 1722 
L 984 0 
L 422 0 
z
" transform="scale(0.015625)"/>
       <path id="ArialMT-64" d="M 2575 0 
L 2575 419 
Q 2259 -75 1647 -75 
Q 1250 -75 917 144 
Q 584 363 401 755 
Q 219 1147 219 1656 
Q 219 2153 384 2558 
Q 550 2963 881 3178 
Q 1213 3394 1622 3394 
Q 1922 3394 2156 3267 
Q 2391 3141 2538 2938 
L 2538 4581 
L 3097 4581 
L 3097 0 
L 2575 0 
z
M 797 1656 
Q 797 1019 1065 703 
Q 1334 388 1700 388 
Q 2069 388 2326 689 
Q 2584 991 2584 1609 
Q 2584 2291 2321 2609 
Q 2059 2928 1675 2928 
Q 1300 2928 1048 2622 
Q 797 2316 797 1656 
z
" transform="scale(0.015625)"/>
       <path id="ArialMT-20" transform="scale(0.015625)"/>
       <path id="ArialMT-4d" d="M 475 0 
L 475 4581 
L 1388 4581 
L 2472 1338 
Q 2622 884 2691 659 
Q 2769 909 2934 1394 
L 4031 4581 
L 4847 4581 
L 4847 0 
L 4263 0 
L 4263 3834 
L 2931 0 
L 2384 0 
L 1059 3900 
L 1059 0 
L 475 0 
z
" transform="scale(0.015625)"/>
       <path id="ArialMT-73" d="M 197 991 
L 753 1078 
Q 800 744 1014 566 
Q 1228 388 1613 388 
Q 2000 388 2187 545 
Q 2375 703 2375 916 
Q 2375 1106 2209 1216 
Q 2094 1291 1634 1406 
Q 1016 1563 777 1677 
Q 538 1791 414 1992 
Q 291 2194 291 2438 
Q 291 2659 392 2848 
Q 494 3038 669 3163 
Q 800 3259 1026 3326 
Q 1253 3394 1513 3394 
Q 1903 3394 2198 3281 
Q 2494 3169 2634 2976 
Q 2775 2784 2828 2463 
L 2278 2388 
Q 2241 2644 2061 2787 
Q 1881 2931 1553 2931 
Q 1166 2931 1000 2803 
Q 834 2675 834 2503 
Q 834 2394 903 2306 
Q 972 2216 1119 2156 
Q 1203 2125 1616 2013 
Q 2213 1853 2448 1751 
Q 2684 1650 2818 1456 
Q 2953 1263 2953 975 
Q 2953 694 2789 445 
Q 2625 197 2315 61 
Q 2006 -75 1616 -75 
Q 969 -75 630 194 
Q 291 463 197 991 
z
" transform="scale(0.015625)"/>
       <path id="ArialMT-6f" d="M 213 1659 
Q 213 2581 725 3025 
Q 1153 3394 1769 3394 
Q 2453 3394 2887 2945 
Q 3322 2497 3322 1706 
Q 3322 1066 3130 698 
Q 2938 331 2570 128 
Q 2203 -75 1769 -75 
Q 1072 -75 642 372 
Q 213 819 213 1659 
z
M 791 1659 
Q 791 1022 1069 705 
Q 1347 388 1769 388 
Q 2188 388 2466 706 
Q 2744 1025 2744 1678 
Q 2744 2294 2464 2611 
Q 2184 2928 1769 2928 
Q 1347 2928 1069 2612 
Q 791 2297 791 1659 
z
" transform="scale(0.015625)"/>
       <path id="ArialMT-66" d="M 556 0 
L 556 2881 
L 59 2881 
L 59 3319 
L 556 3319 
L 556 3672 
Q 556 4006 616 4169 
Q 697 4388 901 4523 
Q 1106 4659 1475 4659 
Q 1713 4659 2000 4603 
L 1916 4113 
Q 1741 4144 1584 4144 
Q 1328 4144 1222 4034 
Q 1116 3925 1116 3625 
L 1116 3319 
L 1763 3319 
L 1763 2881 
L 1116 2881 
L 1116 0 
L 556 0 
z
" transform="scale(0.015625)"/>
       <path id="ArialMT-76" d="M 1344 0 
L 81 3319 
L 675 3319 
L 1388 1331 
Q 1503 1009 1600 663 
Q 1675 925 1809 1294 
L 2547 3319 
L 3125 3319 
L 1869 0 
L 1344 0 
z
" transform="scale(0.015625)"/>
       <path id="ArialMT-6c" d="M 409 0 
L 409 4581 
L 972 4581 
L 972 0 
L 409 0 
z
" transform="scale(0.015625)"/>
       <path id="ArialMT-75" d="M 2597 0 
L 2597 488 
Q 2209 -75 1544 -75 
Q 1250 -75 995 37 
Q 741 150 617 320 
Q 494 491 444 738 
Q 409 903 409 1263 
L 409 3319 
L 972 3319 
L 972 1478 
Q 972 1038 1006 884 
Q 1059 663 1231 536 
Q 1403 409 1656 409 
Q 1909 409 2131 539 
Q 2353 669 2445 892 
Q 2538 1116 2538 1541 
L 2538 3319 
L 3100 3319 
L 3100 0 
L 2597 0 
z
" transform="scale(0.015625)"/>
       <path id="ArialMT-28" d="M 1497 -1347 
Q 1031 -759 709 28 
Q 388 816 388 1659 
Q 388 2403 628 3084 
Q 909 3875 1497 4659 
L 1900 4659 
Q 1522 4009 1400 3731 
Q 1209 3300 1100 2831 
Q 966 2247 966 1656 
Q 966 153 1900 -1347 
L 1497 -1347 
z
" transform="scale(0.015625)"/>
       <path id="ArialMT-29" d="M 791 -1347 
L 388 -1347 
Q 1322 153 1322 1656 
Q 1322 2244 1188 2822 
Q 1081 3291 891 3722 
Q 769 4003 388 4659 
L 791 4659 
Q 1378 3875 1659 3084 
Q 1900 2403 1900 1659 
Q 1900 816 1576 28 
Q 1253 -759 791 -1347 
z
" transform="scale(0.015625)"/>
      </defs>
      <use xlink:href="#ArialMT-54"/>
      <use xlink:href="#ArialMT-72" x="57.333984"/>
      <use xlink:href="#ArialMT-69" x="90.634766"/>
      <use xlink:href="#ArialMT-6d" x="112.851562"/>
      <use xlink:href="#ArialMT-6d" x="196.152344"/>
      <use xlink:href="#ArialMT-65" x="279.453125"/>
      <use xlink:href="#ArialMT-64" x="335.068359"/>
      <use xlink:href="#ArialMT-20" x="390.683594"/>
      <use xlink:href="#ArialMT-4d" x="418.466797"/>
      <use xlink:href="#ArialMT-65" x="501.767578"/>
      <use xlink:href="#ArialMT-61" x="557.382812"/>
      <use xlink:href="#ArialMT-6e" x="612.998047"/>
      <use xlink:href="#ArialMT-73" x="668.613281"/>
      <use xlink:href="#ArialMT-20" x="718.613281"/>
      <use xlink:href="#ArialMT-6f" x="746.396484"/>
      <use xlink:href="#ArialMT-66" x="802.011719"/>
      <use xlink:href="#ArialMT-20" x="829.794922"/>
      <use xlink:href="#ArialMT-4d" x="857.578125"/>
      <use xlink:href="#ArialMT-20" x="940.878906"/>
      <use xlink:href="#ArialMT-76" x="968.662109"/>
      <use xlink:href="#ArialMT-61" x="1018.662109"/>
      <use xlink:href="#ArialMT-6c" x="1074.277344"/>
      <use xlink:href="#ArialMT-75" x="1096.494141"/>
      <use xlink:href="#ArialMT-65" x="1152.109375"/>
      <use xlink:href="#ArialMT-73" x="1207.724609"/>
      <use xlink:href="#ArialMT-20" x="1257.724609"/>
      <use xlink:href="#ArialMT-28" x="1285.507812"/>
      <use xlink:href="#ArialMT-54" x="1318.808594"/>
      <use xlink:href="#ArialMT-4d" x="1379.892578"/>
      <use xlink:href="#ArialMT-4d" x="1463.193359"/>
      <use xlink:href="#ArialMT-29" x="1546.494141"/>
     </g>
    </g>
   </g>
   <g id="PolyCollection_1">
    <defs>
     <path id="meb927505c3" d="M 82.561532 -91.180114 
L 76.635071 -91.180114 
L 76.580638 -91.895094 
L 76.529463 -92.610074 
L 76.481636 -93.325054 
L 76.437225 -94.040034 
L 76.396275 -94.755014 
L 76.358806 -95.469994 
L 76.324819 -96.184973 
L 76.29429 -96.899953 
L 76.267177 -97.614933 
L 76.243414 -98.329913 
L 76.22292 -99.044893 
L 76.205597 -99.759873 
L 76.191329 -100.474853 
L 76.17999 -101.189833 
L 76.171442 -101.904813 
L 76.165537 -102.619793 
L 76.162122 -103.334773 
L 76.161041 -104.049753 
L 76.162134 -104.764732 
L 76.165244 -105.479712 
L 76.170214 -106.194692 
L 76.176897 -106.909672 
L 76.185148 -107.624652 
L 76.194835 -108.339632 
L 76.205834 -109.054612 
L 76.218035 -109.769592 
L 76.23134 -110.484572 
L 76.245665 -111.199552 
L 76.260944 -111.914532 
L 76.277121 -112.629511 
L 76.29416 -113.344491 
L 76.312036 -114.059471 
L 76.330743 -114.774451 
L 76.350283 -115.489431 
L 76.370676 -116.204411 
L 76.391949 -116.919391 
L 76.414143 -117.634371 
L 76.437304 -118.349351 
L 76.461486 -119.064331 
L 76.486747 -119.779311 
L 76.513147 -120.494291 
L 76.540749 -121.20927 
L 76.569611 -121.92425 
L 76.59979 -122.63923 
L 76.631338 -123.35421 
L 76.664297 -124.06919 
L 76.698704 -124.78417 
L 76.734582 -125.49915 
L 76.771945 -126.21413 
L 76.810793 -126.92911 
L 76.851113 -127.64409 
L 76.892875 -128.35907 
L 76.93604 -129.07405 
L 76.980548 -129.789029 
L 77.026328 -130.504009 
L 77.073295 -131.218989 
L 77.121348 -131.933969 
L 77.170375 -132.648949 
L 77.220253 -133.363929 
L 77.270846 -134.078909 
L 77.322013 -134.793889 
L 77.373601 -135.508869 
L 77.425456 -136.223849 
L 77.477418 -136.938829 
L 77.529325 -137.653808 
L 77.581016 -138.368788 
L 77.632332 -139.083768 
L 77.683117 -139.798748 
L 77.733221 -140.513728 
L 77.782503 -141.228708 
L 77.830828 -141.943688 
L 77.878075 -142.658668 
L 77.924131 -143.373648 
L 77.968899 -144.088628 
L 78.012294 -144.803608 
L 78.054246 -145.518588 
L 78.094702 -146.233567 
L 78.133621 -146.948547 
L 78.17098 -147.663527 
L 78.20677 -148.378507 
L 78.240999 -149.093487 
L 78.273687 -149.808467 
L 78.304869 -150.523447 
L 78.334594 -151.238427 
L 78.362922 -151.953407 
L 78.389923 -152.668387 
L 78.415677 -153.383367 
L 78.440274 -154.098346 
L 78.463809 -154.813326 
L 78.486383 -155.528306 
L 78.508099 -156.243286 
L 78.529066 -156.958266 
L 78.54939 -157.673246 
L 78.569179 -158.388226 
L 78.588539 -159.103206 
L 78.60757 -159.818186 
L 78.626372 -160.533166 
L 78.645036 -161.248146 
L 78.663648 -161.963126 
L 80.532955 -161.963126 
L 80.532955 -161.963126 
L 80.551567 -161.248146 
L 80.570231 -160.533166 
L 80.589032 -159.818186 
L 80.608064 -159.103206 
L 80.627424 -158.388226 
L 80.647213 -157.673246 
L 80.667537 -156.958266 
L 80.688503 -156.243286 
L 80.71022 -155.528306 
L 80.732794 -154.813326 
L 80.756328 -154.098346 
L 80.780926 -153.383367 
L 80.80668 -152.668387 
L 80.833681 -151.953407 
L 80.862009 -151.238427 
L 80.891734 -150.523447 
L 80.922916 -149.808467 
L 80.955604 -149.093487 
L 80.989832 -148.378507 
L 81.025623 -147.663527 
L 81.062982 -146.948547 
L 81.101901 -146.233567 
L 81.142356 -145.518588 
L 81.184309 -144.803608 
L 81.227704 -144.088628 
L 81.272472 -143.373648 
L 81.318528 -142.658668 
L 81.365775 -141.943688 
L 81.4141 -141.228708 
L 81.463382 -140.513728 
L 81.513486 -139.798748 
L 81.564271 -139.083768 
L 81.615587 -138.368788 
L 81.667278 -137.653808 
L 81.719185 -136.938829 
L 81.771147 -136.223849 
L 81.823002 -135.508869 
L 81.87459 -134.793889 
L 81.925757 -134.078909 
L 81.97635 -133.363929 
L 82.026228 -132.648949 
L 82.075255 -131.933969 
L 82.123308 -131.218989 
L 82.170275 -130.504009 
L 82.216055 -129.789029 
L 82.260563 -129.07405 
L 82.303727 -128.35907 
L 82.34549 -127.64409 
L 82.38581 -126.92911 
L 82.424658 -126.21413 
L 82.462021 -125.49915 
L 82.497899 -124.78417 
L 82.532306 -124.06919 
L 82.565265 -123.35421 
L 82.596813 -122.63923 
L 82.626992 -121.92425 
L 82.655854 -121.20927 
L 82.683456 -120.494291 
L 82.709856 -119.779311 
L 82.735117 -119.064331 
L 82.759299 -118.349351 
L 82.78246 -117.634371 
L 82.804653 -116.919391 
L 82.825927 -116.204411 
L 82.84632 -115.489431 
L 82.86586 -114.774451 
L 82.884566 -114.059471 
L 82.902443 -113.344491 
L 82.919482 -112.629511 
L 82.935659 -111.914532 
L 82.950938 -111.199552 
L 82.965263 -110.484572 
L 82.978568 -109.769592 
L 82.990769 -109.054612 
L 83.001768 -108.339632 
L 83.011455 -107.624652 
L 83.019706 -106.909672 
L 83.026388 -106.194692 
L 83.031359 -105.479712 
L 83.034469 -104.764732 
L 83.035562 -104.049753 
L 83.034481 -103.334773 
L 83.031066 -102.619793 
L 83.025161 -101.904813 
L 83.016613 -101.189833 
L 83.005274 -100.474853 
L 82.991006 -99.759873 
L 82.973682 -99.044893 
L 82.953189 -98.329913 
L 82.929426 -97.614933 
L 82.902313 -96.899953 
L 82.871784 -96.184973 
L 82.837797 -95.469994 
L 82.800328 -94.755014 
L 82.759378 -94.040034 
L 82.714967 -93.325054 
L 82.66714 -92.610074 
L 82.615965 -91.895094 
L 82.561532 -91.180114 
z
" style="stroke: #999999; stroke-width: 2"/>
    </defs>
    <g clip-path="url(#p16e598ee14)">
     <use xlink:href="#meb927505c3" x="0" y="255.11811" style="fill: #ffffff; stroke: #999999; stroke-width: 2"/>
    </g>
   </g>
   <g id="PolyCollection_2">
    <defs>
     <path id="m3a36e5ba5f" d="M 153.606161 -57.295395 
L 135.103648 -57.295395 
L 134.885041 -57.462499 
L 134.672633 -57.629603 
L 134.466962 -57.796707 
L 134.268543 -57.963812 
L 134.077862 -58.130916 
L 133.895374 -58.29802 
L 133.7215 -58.465124 
L 133.556625 -58.632228 
L 133.401095 -58.799333 
L 133.255213 -58.966437 
L 133.119242 -59.133541 
L 132.993395 -59.300645 
L 132.877843 -59.467749 
L 132.772707 -59.634853 
L 132.67806 -59.801958 
L 132.593928 -59.969062 
L 132.520287 -60.136166 
L 132.457065 -60.30327 
L 132.404144 -60.470374 
L 132.361359 -60.637478 
L 132.328499 -60.804583 
L 132.305312 -60.971687 
L 132.291505 -61.138791 
L 132.286745 -61.305895 
L 132.290665 -61.472999 
L 132.302863 -61.640104 
L 132.322909 -61.807208 
L 132.350347 -61.974312 
L 132.384695 -62.141416 
L 132.425456 -62.30852 
L 132.472114 -62.475624 
L 132.524142 -62.642729 
L 132.581005 -62.809833 
L 132.642163 -62.976937 
L 132.707076 -63.144041 
L 132.775207 -63.311145 
L 132.846025 -63.47825 
L 132.919009 -63.645354 
L 132.993651 -63.812458 
L 133.06946 -63.979562 
L 133.145962 -64.146666 
L 133.222707 -64.31377 
L 133.299268 -64.480875 
L 133.375244 -64.647979 
L 133.450264 -64.815083 
L 133.523986 -64.982187 
L 133.596097 -65.149291 
L 133.66632 -65.316395 
L 133.73441 -65.4835 
L 133.800156 -65.650604 
L 133.863382 -65.817708 
L 133.923945 -65.984812 
L 133.981738 -66.151916 
L 134.036689 -66.319021 
L 134.088758 -66.486125 
L 134.13794 -66.653229 
L 134.184261 -66.820333 
L 134.227779 -66.987437 
L 134.268582 -67.154541 
L 134.306789 -67.321646 
L 134.342544 -67.48875 
L 134.376018 -67.655854 
L 134.407407 -67.822958 
L 134.43693 -67.990062 
L 134.464827 -68.157166 
L 134.491359 -68.324271 
L 134.516802 -68.491375 
L 134.541449 -68.658479 
L 134.565606 -68.825583 
L 134.589594 -68.992687 
L 134.613739 -69.159792 
L 134.638379 -69.326896 
L 134.663855 -69.494 
L 134.690511 -69.661104 
L 134.718696 -69.828208 
L 134.748755 -69.995312 
L 134.781032 -70.162417 
L 134.815866 -70.329521 
L 134.853588 -70.496625 
L 134.894521 -70.663729 
L 134.938976 -70.830833 
L 134.987252 -70.997937 
L 135.039633 -71.165042 
L 135.096385 -71.332146 
L 135.157754 -71.49925 
L 135.223969 -71.666354 
L 135.295233 -71.833458 
L 135.371728 -72.000563 
L 135.453608 -72.167667 
L 135.541003 -72.334771 
L 135.634013 -72.501875 
L 135.732712 -72.668979 
L 135.837142 -72.836083 
L 135.947315 -73.003188 
L 136.063215 -73.170292 
L 136.184792 -73.337396 
L 136.311968 -73.5045 
L 136.444632 -73.671604 
L 136.582646 -73.838708 
L 152.127163 -73.838708 
L 152.127163 -73.838708 
L 152.265177 -73.671604 
L 152.397841 -73.5045 
L 152.525017 -73.337396 
L 152.646594 -73.170292 
L 152.762494 -73.003188 
L 152.872667 -72.836083 
L 152.977097 -72.668979 
L 153.075795 -72.501875 
L 153.168806 -72.334771 
L 153.256201 -72.167667 
L 153.338081 -72.000563 
L 153.414576 -71.833458 
L 153.48584 -71.666354 
L 153.552055 -71.49925 
L 153.613424 -71.332146 
L 153.670176 -71.165042 
L 153.722556 -70.997937 
L 153.770833 -70.830833 
L 153.815288 -70.663729 
L 153.856221 -70.496625 
L 153.893943 -70.329521 
L 153.928776 -70.162417 
L 153.961054 -69.995312 
L 153.991113 -69.828208 
L 154.019298 -69.661104 
L 154.045954 -69.494 
L 154.07143 -69.326896 
L 154.096069 -69.159792 
L 154.120215 -68.992687 
L 154.144202 -68.825583 
L 154.16836 -68.658479 
L 154.193007 -68.491375 
L 154.21845 -68.324271 
L 154.244981 -68.157166 
L 154.272879 -67.990062 
L 154.302402 -67.822958 
L 154.333791 -67.655854 
L 154.367265 -67.48875 
L 154.40302 -67.321646 
L 154.441226 -67.154541 
L 154.48203 -66.987437 
L 154.525548 -66.820333 
L 154.571869 -66.653229 
L 154.621051 -66.486125 
L 154.67312 -66.319021 
L 154.728071 -66.151916 
L 154.785864 -65.984812 
L 154.846427 -65.817708 
L 154.909652 -65.650604 
L 154.975398 -65.4835 
L 155.043488 -65.316395 
L 155.113712 -65.149291 
L 155.185823 -64.982187 
L 155.259544 -64.815083 
L 155.334564 -64.647979 
L 155.410541 -64.480875 
L 155.487102 -64.31377 
L 155.563847 -64.146666 
L 155.640349 -63.979562 
L 155.716157 -63.812458 
L 155.790799 -63.645354 
L 155.863783 -63.47825 
L 155.934601 -63.311145 
L 156.002732 -63.144041 
L 156.067646 -62.976937 
L 156.128804 -62.809833 
L 156.185667 -62.642729 
L 156.237695 -62.475624 
L 156.284353 -62.30852 
L 156.325113 -62.141416 
L 156.359462 -61.974312 
L 156.3869 -61.807208 
L 156.406946 -61.640104 
L 156.419144 -61.472999 
L 156.423064 -61.305895 
L 156.418304 -61.138791 
L 156.404496 -60.971687 
L 156.38131 -60.804583 
L 156.34845 -60.637478 
L 156.305664 -60.470374 
L 156.252743 -60.30327 
L 156.189522 -60.136166 
L 156.115881 -59.969062 
L 156.031749 -59.801958 
L 155.937102 -59.634853 
L 155.831966 -59.467749 
L 155.716414 -59.300645 
L 155.590567 -59.133541 
L 155.454595 -58.966437 
L 155.308714 -58.799333 
L 155.153184 -58.632228 
L 154.988309 -58.465124 
L 154.814435 -58.29802 
L 154.631947 -58.130916 
L 154.441265 -57.963812 
L 154.242846 -57.796707 
L 154.037176 -57.629603 
L 153.824768 -57.462499 
L 153.606161 -57.295395 
z
" style="stroke: #999999; stroke-width: 2"/>
    </defs>
    <g clip-path="url(#p16e598ee14)">
     <use xlink:href="#m3a36e5ba5f" x="0" y="255.11811" style="fill: #ffffff; stroke: #999999; stroke-width: 2"/>
    </g>
   </g>
   <g id="PolyCollection_3">
    <defs>
     <path id="mf546c2f711" d="M 218.541726 -69.762883 
L 199.681289 -69.762883 
L 199.375353 -69.888245 
L 199.069059 -70.013606 
L 198.762876 -70.138968 
L 198.457287 -70.26433 
L 198.152786 -70.389691 
L 197.849878 -70.515053 
L 197.54908 -70.640414 
L 197.250915 -70.765776 
L 196.955916 -70.891138 
L 196.66462 -71.016499 
L 196.377572 -71.141861 
L 196.095316 -71.267223 
L 195.818399 -71.392584 
L 195.547365 -71.517946 
L 195.282753 -71.643307 
L 195.025097 -71.768669 
L 194.774919 -71.894031 
L 194.532728 -72.019392 
L 194.299018 -72.144754 
L 194.07426 -72.270115 
L 193.858904 -72.395477 
L 193.653372 -72.520839 
L 193.458058 -72.6462 
L 193.273318 -72.771562 
L 193.099474 -72.896924 
L 192.936807 -73.022285 
L 192.785554 -73.147647 
L 192.645906 -73.273008 
L 192.518004 -73.39837 
L 192.40194 -73.523732 
L 192.297751 -73.649093 
L 192.205422 -73.774455 
L 192.124881 -73.899816 
L 192.056001 -74.025178 
L 191.998599 -74.15054 
L 191.952438 -74.275901 
L 191.917224 -74.401263 
L 191.892615 -74.526624 
L 191.878215 -74.651986 
L 191.873584 -74.777348 
L 191.878236 -74.902709 
L 191.891647 -75.028071 
L 191.913255 -75.153433 
L 191.942469 -75.278794 
L 191.978674 -75.404156 
L 192.021233 -75.529517 
L 192.069496 -75.654879 
L 192.122809 -75.780241 
L 192.180512 -75.905602 
L 192.241956 -76.030964 
L 192.306503 -76.156325 
L 192.373532 -76.281687 
L 192.442453 -76.407049 
L 192.512704 -76.53241 
L 192.583764 -76.657772 
L 192.655157 -76.783134 
L 192.726454 -76.908495 
L 192.797284 -77.033857 
L 192.867334 -77.159218 
L 192.936352 -77.28458 
L 193.004155 -77.409942 
L 193.070627 -77.535303 
L 193.13572 -77.660665 
L 193.199459 -77.786026 
L 193.26194 -77.911388 
L 193.323324 -78.03675 
L 193.383846 -78.162111 
L 193.443801 -78.287473 
L 193.50355 -78.412835 
L 193.563508 -78.538196 
L 193.624145 -78.663558 
L 193.685979 -78.788919 
L 193.749568 -78.914281 
L 193.815505 -79.039643 
L 193.88441 -79.165004 
L 193.956923 -79.290366 
L 194.033698 -79.415727 
L 194.115392 -79.541089 
L 194.202657 -79.666451 
L 194.296134 -79.791812 
L 194.396447 -79.917174 
L 194.504189 -80.042536 
L 194.619918 -80.167897 
L 194.744155 -80.293259 
L 194.877366 -80.41862 
L 195.019967 -80.543982 
L 195.172314 -80.669344 
L 195.334697 -80.794705 
L 195.507338 -80.920067 
L 195.690389 -81.045428 
L 195.883925 -81.17079 
L 196.087947 -81.296152 
L 196.302382 -81.421513 
L 196.527078 -81.546875 
L 196.761807 -81.672237 
L 197.006271 -81.797598 
L 197.260099 -81.92296 
L 197.52285 -82.048321 
L 197.794023 -82.173683 
L 220.428992 -82.173683 
L 220.428992 -82.173683 
L 220.700164 -82.048321 
L 220.962916 -81.92296 
L 221.216743 -81.797598 
L 221.461207 -81.672237 
L 221.695937 -81.546875 
L 221.920632 -81.421513 
L 222.135067 -81.296152 
L 222.33909 -81.17079 
L 222.532626 -81.045428 
L 222.715676 -80.920067 
L 222.888317 -80.794705 
L 223.0507 -80.669344 
L 223.203047 -80.543982 
L 223.345649 -80.41862 
L 223.47886 -80.293259 
L 223.603096 -80.167897 
L 223.718826 -80.042536 
L 223.826568 -79.917174 
L 223.92688 -79.791812 
L 224.020358 -79.666451 
L 224.107623 -79.541089 
L 224.189316 -79.415727 
L 224.266091 -79.290366 
L 224.338605 -79.165004 
L 224.40751 -79.039643 
L 224.473447 -78.914281 
L 224.537035 -78.788919 
L 224.598869 -78.663558 
L 224.659507 -78.538196 
L 224.719465 -78.412835 
L 224.779213 -78.287473 
L 224.839169 -78.162111 
L 224.89969 -78.03675 
L 224.961075 -77.911388 
L 225.023555 -77.786026 
L 225.087295 -77.660665 
L 225.152388 -77.535303 
L 225.21886 -77.409942 
L 225.286663 -77.28458 
L 225.355681 -77.159218 
L 225.42573 -77.033857 
L 225.49656 -76.908495 
L 225.567858 -76.783134 
L 225.63925 -76.657772 
L 225.710311 -76.53241 
L 225.780562 -76.407049 
L 225.849482 -76.281687 
L 225.916512 -76.156325 
L 225.981058 -76.030964 
L 226.042502 -75.905602 
L 226.100206 -75.780241 
L 226.153518 -75.654879 
L 226.201782 -75.529517 
L 226.244341 -75.404156 
L 226.280545 -75.278794 
L 226.30976 -75.153433 
L 226.331368 -75.028071 
L 226.344778 -74.902709 
L 226.34943 -74.777348 
L 226.344799 -74.651986 
L 226.3304 -74.526624 
L 226.305791 -74.401263 
L 226.270577 -74.275901 
L 226.224415 -74.15054 
L 226.167013 -74.025178 
L 226.098133 -73.899816 
L 226.017592 -73.774455 
L 225.925263 -73.649093 
L 225.821075 -73.523732 
L 225.705011 -73.39837 
L 225.577109 -73.273008 
L 225.43746 -73.147647 
L 225.286207 -73.022285 
L 225.12354 -72.896924 
L 224.949697 -72.771562 
L 224.764957 -72.6462 
L 224.569642 -72.520839 
L 224.364111 -72.395477 
L 224.148755 -72.270115 
L 223.923997 -72.144754 
L 223.690286 -72.019392 
L 223.448095 -71.894031 
L 223.197918 -71.768669 
L 222.940262 -71.643307 
L 222.67565 -71.517946 
L 222.404616 -71.392584 
L 222.127699 -71.267223 
L 221.845443 -71.141861 
L 221.558394 -71.016499 
L 221.267099 -70.891138 
L 220.972099 -70.765776 
L 220.673934 -70.640414 
L 220.373136 -70.515053 
L 220.070229 -70.389691 
L 219.765728 -70.26433 
L 219.460139 -70.138968 
L 219.153956 -70.013606 
L 218.847662 -69.888245 
L 218.541726 -69.762883 
z
" style="stroke: #999999; stroke-width: 2"/>
    </defs>
    <g clip-path="url(#p16e598ee14)">
     <use xlink:href="#mf546c2f711" x="0" y="255.11811" style="fill: #ffffff; stroke: #999999; stroke-width: 2"/>
    </g>
   </g>
   <g id="PolyCollection_4">
    <defs>
     <path id="mcab8555d96" d="M 292.976774 -49.837187 
L 254.759447 -49.837187 
L 254.191817 -49.946307 
L 253.640532 -50.055428 
L 253.107364 -50.164548 
L 252.593996 -50.273669 
L 252.102018 -50.382789 
L 251.63291 -50.49191 
L 251.188042 -50.60103 
L 250.768663 -50.710151 
L 250.375896 -50.819271 
L 250.010738 -50.928392 
L 249.674052 -51.037512 
L 249.366568 -51.146633 
L 249.088883 -51.255753 
L 248.841463 -51.364873 
L 248.624639 -51.473994 
L 248.438617 -51.583114 
L 248.283475 -51.692235 
L 248.159169 -51.801355 
L 248.065541 -51.910476 
L 248.002318 -52.019596 
L 247.96912 -52.128717 
L 247.965469 -52.237837 
L 247.990788 -52.346958 
L 248.044411 -52.456078 
L 248.12559 -52.565199 
L 248.233499 -52.674319 
L 248.367237 -52.78344 
L 248.525842 -52.89256 
L 248.708289 -53.001681 
L 248.913498 -53.110801 
L 249.140342 -53.219922 
L 249.387649 -53.329042 
L 249.654209 -53.438162 
L 249.938781 -53.547283 
L 250.240095 -53.656403 
L 250.55686 -53.765524 
L 250.887766 -53.874644 
L 251.231495 -53.983765 
L 251.586719 -54.092885 
L 251.952112 -54.202006 
L 252.326351 -54.311126 
L 252.708121 -54.420247 
L 253.096125 -54.529367 
L 253.489085 -54.638488 
L 253.885747 -54.747608 
L 254.28489 -54.856729 
L 254.685327 -54.965849 
L 255.085911 -55.07497 
L 255.485541 -55.18409 
L 255.883166 -55.293211 
L 256.277788 -55.402331 
L 256.668466 -55.511452 
L 257.054321 -55.620572 
L 257.434536 -55.729692 
L 257.808362 -55.838813 
L 258.175118 -55.947933 
L 258.534194 -56.057054 
L 258.885049 -56.166174 
L 259.227218 -56.275295 
L 259.560304 -56.384415 
L 259.883984 -56.493536 
L 260.198007 -56.602656 
L 260.50219 -56.711777 
L 260.796421 -56.820897 
L 261.080652 -56.930018 
L 261.3549 -57.039138 
L 261.619245 -57.148259 
L 261.873824 -57.257379 
L 262.118831 -57.3665 
L 262.35451 -57.47562 
L 262.581157 -57.584741 
L 262.799111 -57.693861 
L 263.008754 -57.802981 
L 263.210504 -57.912102 
L 263.404814 -58.021222 
L 263.592167 -58.130343 
L 263.77307 -58.239463 
L 263.948056 -58.348584 
L 264.11767 -58.457704 
L 264.282476 -58.566825 
L 264.443043 -58.675945 
L 264.599948 -58.785066 
L 264.753767 -58.894186 
L 264.905075 -59.003307 
L 265.054437 -59.112427 
L 265.202408 -59.221548 
L 265.349525 -59.330668 
L 265.496306 -59.439789 
L 265.643245 -59.548909 
L 265.790806 -59.65803 
L 265.939423 -59.76715 
L 266.089491 -59.876271 
L 266.241368 -59.985391 
L 266.395369 -60.094511 
L 266.551762 -60.203632 
L 266.710768 -60.312752 
L 266.872561 -60.421873 
L 267.037259 -60.530993 
L 267.20493 -60.640114 
L 280.53129 -60.640114 
L 280.53129 -60.640114 
L 280.698962 -60.530993 
L 280.86366 -60.421873 
L 281.025452 -60.312752 
L 281.184459 -60.203632 
L 281.340852 -60.094511 
L 281.494852 -59.985391 
L 281.646729 -59.876271 
L 281.796798 -59.76715 
L 281.945414 -59.65803 
L 282.092976 -59.548909 
L 282.239915 -59.439789 
L 282.386696 -59.330668 
L 282.533813 -59.221548 
L 282.681783 -59.112427 
L 282.831145 -59.003307 
L 282.982453 -58.894186 
L 283.136273 -58.785066 
L 283.293177 -58.675945 
L 283.453745 -58.566825 
L 283.61855 -58.457704 
L 283.788165 -58.348584 
L 283.96315 -58.239463 
L 284.144054 -58.130343 
L 284.331407 -58.021222 
L 284.525717 -57.912102 
L 284.727467 -57.802981 
L 284.937109 -57.693861 
L 285.155063 -57.584741 
L 285.38171 -57.47562 
L 285.61739 -57.3665 
L 285.862396 -57.257379 
L 286.116975 -57.148259 
L 286.38132 -57.039138 
L 286.655569 -56.930018 
L 286.9398 -56.820897 
L 287.23403 -56.711777 
L 287.538214 -56.602656 
L 287.852236 -56.493536 
L 288.175917 -56.384415 
L 288.509003 -56.275295 
L 288.851171 -56.166174 
L 289.202027 -56.057054 
L 289.561102 -55.947933 
L 289.927859 -55.838813 
L 290.301685 -55.729692 
L 290.6819 -55.620572 
L 291.067754 -55.511452 
L 291.458432 -55.402331 
L 291.853054 -55.293211 
L 292.25068 -55.18409 
L 292.65031 -55.07497 
L 293.050894 -54.965849 
L 293.45133 -54.856729 
L 293.850473 -54.747608 
L 294.247135 -54.638488 
L 294.640095 -54.529367 
L 295.028099 -54.420247 
L 295.40987 -54.311126 
L 295.784108 -54.202006 
L 296.149501 -54.092885 
L 296.504725 -53.983765 
L 296.848454 -53.874644 
L 297.179361 -53.765524 
L 297.496125 -53.656403 
L 297.797439 -53.547283 
L 298.082011 -53.438162 
L 298.348572 -53.329042 
L 298.595879 -53.219922 
L 298.822722 -53.110801 
L 299.027932 -53.001681 
L 299.210378 -52.89256 
L 299.368983 -52.78344 
L 299.502722 -52.674319 
L 299.61063 -52.565199 
L 299.691809 -52.456078 
L 299.745433 -52.346958 
L 299.770751 -52.237837 
L 299.7671 -52.128717 
L 299.733903 -52.019596 
L 299.67068 -51.910476 
L 299.577051 -51.801355 
L 299.452746 -51.692235 
L 299.297603 -51.583114 
L 299.111581 -51.473994 
L 298.894757 -51.364873 
L 298.647337 -51.255753 
L 298.369653 -51.146633 
L 298.062169 -51.037512 
L 297.725482 -50.928392 
L 297.360324 -50.819271 
L 296.967558 -50.710151 
L 296.548179 -50.60103 
L 296.103311 -50.49191 
L 295.634203 -50.382789 
L 295.142224 -50.273669 
L 294.628857 -50.164548 
L 294.095688 -50.055428 
L 293.544403 -49.946307 
L 292.976774 -49.837187 
z
" style="stroke: #999999; stroke-width: 2"/>
    </defs>
    <g clip-path="url(#p16e598ee14)">
     <use xlink:href="#mcab8555d96" x="0" y="255.11811" style="fill: #ffffff; stroke: #999999; stroke-width: 2"/>
    </g>
   </g>
   <g id="PolyCollection_5">
    <defs>
     <path id="m145a460e9a" d="M 348.354767 -62.075948 
L 328.894659 -62.075948 
L 328.623864 -62.228756 
L 328.355229 -62.381564 
L 328.089216 -62.534372 
L 327.826289 -62.68718 
L 327.566907 -62.839988 
L 327.311525 -62.992796 
L 327.060591 -63.145604 
L 326.814548 -63.298412 
L 326.573829 -63.45122 
L 326.338859 -63.604028 
L 326.110048 -63.756836 
L 325.887797 -63.909644 
L 325.672491 -64.062452 
L 325.464502 -64.21526 
L 325.264185 -64.368068 
L 325.071876 -64.520876 
L 324.887896 -64.673684 
L 324.712544 -64.826492 
L 324.5461 -64.979301 
L 324.388825 -65.132109 
L 324.240956 -65.284917 
L 324.102708 -65.437725 
L 323.974275 -65.590533 
L 323.855828 -65.743341 
L 323.747512 -65.896149 
L 323.64945 -66.048957 
L 323.561744 -66.201765 
L 323.484467 -66.354573 
L 323.417672 -66.507381 
L 323.361387 -66.660189 
L 323.315617 -66.812997 
L 323.280343 -66.965805 
L 323.255523 -67.118613 
L 323.241093 -67.271421 
L 323.236966 -67.424229 
L 323.243036 -67.577037 
L 323.259172 -67.729845 
L 323.285224 -67.882653 
L 323.321023 -68.035461 
L 323.366378 -68.188269 
L 323.421082 -68.341077 
L 323.484908 -68.493885 
L 323.557612 -68.646693 
L 323.638933 -68.799501 
L 323.728594 -68.952309 
L 323.826304 -69.105117 
L 323.931754 -69.257925 
L 324.044626 -69.410733 
L 324.164586 -69.563541 
L 324.291289 -69.716349 
L 324.424381 -69.869157 
L 324.563496 -70.021965 
L 324.708259 -70.174773 
L 324.858291 -70.327581 
L 325.013205 -70.480389 
L 325.172607 -70.633197 
L 325.336105 -70.786005 
L 325.5033 -70.938813 
L 325.673796 -71.091621 
L 325.847198 -71.244429 
L 326.023114 -71.397238 
L 326.201157 -71.550046 
L 326.380947 -71.702854 
L 326.562113 -71.855662 
L 326.744294 -72.00847 
L 326.927142 -72.161278 
L 327.110323 -72.314086 
L 327.29352 -72.466894 
L 327.476432 -72.619702 
L 327.658779 -72.77251 
L 327.840301 -72.925318 
L 328.020761 -73.078126 
L 328.199944 -73.230934 
L 328.377661 -73.383742 
L 328.553748 -73.53655 
L 328.728067 -73.689358 
L 328.900505 -73.842166 
L 329.070977 -73.994974 
L 329.239423 -74.147782 
L 329.40581 -74.30059 
L 329.57013 -74.453398 
L 329.732397 -74.606206 
L 329.892651 -74.759014 
L 330.050954 -74.911822 
L 330.207384 -75.06463 
L 330.362042 -75.217438 
L 330.515042 -75.370246 
L 330.666512 -75.523054 
L 330.816593 -75.675862 
L 330.965435 -75.82867 
L 331.113192 -75.981478 
L 331.260024 -76.134286 
L 331.406093 -76.287094 
L 331.551556 -76.439902 
L 331.69657 -76.59271 
L 331.841282 -76.745518 
L 331.985833 -76.898326 
L 332.130352 -77.051134 
L 332.274954 -77.203942 
L 344.974473 -77.203942 
L 344.974473 -77.203942 
L 345.119074 -77.051134 
L 345.263593 -76.898326 
L 345.408144 -76.745518 
L 345.552857 -76.59271 
L 345.69787 -76.439902 
L 345.843334 -76.287094 
L 345.989402 -76.134286 
L 346.136234 -75.981478 
L 346.283992 -75.82867 
L 346.432833 -75.675862 
L 346.582914 -75.523054 
L 346.734385 -75.370246 
L 346.887384 -75.217438 
L 347.042042 -75.06463 
L 347.198473 -74.911822 
L 347.356775 -74.759014 
L 347.517029 -74.606206 
L 347.679297 -74.453398 
L 347.843616 -74.30059 
L 348.010003 -74.147782 
L 348.178449 -73.994974 
L 348.348921 -73.842166 
L 348.521359 -73.689358 
L 348.695678 -73.53655 
L 348.871765 -73.383742 
L 349.049482 -73.230934 
L 349.228666 -73.078126 
L 349.409125 -72.925318 
L 349.590647 -72.77251 
L 349.772994 -72.619702 
L 349.955906 -72.466894 
L 350.139103 -72.314086 
L 350.322284 -72.161278 
L 350.505133 -72.00847 
L 350.687314 -71.855662 
L 350.86848 -71.702854 
L 351.04827 -71.550046 
L 351.226312 -71.397238 
L 351.402228 -71.244429 
L 351.57563 -71.091621 
L 351.746127 -70.938813 
L 351.913322 -70.786005 
L 352.076819 -70.633197 
L 352.236222 -70.480389 
L 352.391135 -70.327581 
L 352.541167 -70.174773 
L 352.685931 -70.021965 
L 352.825045 -69.869157 
L 352.958137 -69.716349 
L 353.08484 -69.563541 
L 353.2048 -69.410733 
L 353.317672 -69.257925 
L 353.423123 -69.105117 
L 353.520832 -68.952309 
L 353.610493 -68.799501 
L 353.691814 -68.646693 
L 353.764518 -68.493885 
L 353.828344 -68.341077 
L 353.883048 -68.188269 
L 353.928404 -68.035461 
L 353.964202 -67.882653 
L 353.990255 -67.729845 
L 354.00639 -67.577037 
L 354.01246 -67.424229 
L 354.008334 -67.271421 
L 353.993904 -67.118613 
L 353.969084 -66.965805 
L 353.933809 -66.812997 
L 353.888039 -66.660189 
L 353.831754 -66.507381 
L 353.764959 -66.354573 
L 353.687683 -66.201765 
L 353.599976 -66.048957 
L 353.501915 -65.896149 
L 353.393599 -65.743341 
L 353.275151 -65.590533 
L 353.146718 -65.437725 
L 353.008471 -65.284917 
L 352.860601 -65.132109 
L 352.703326 -64.979301 
L 352.536883 -64.826492 
L 352.361531 -64.673684 
L 352.17755 -64.520876 
L 351.985242 -64.368068 
L 351.784924 -64.21526 
L 351.576935 -64.062452 
L 351.36163 -63.909644 
L 351.139378 -63.756836 
L 350.910568 -63.604028 
L 350.675597 -63.45122 
L 350.434878 -63.298412 
L 350.188835 -63.145604 
L 349.937902 -62.992796 
L 349.682519 -62.839988 
L 349.423137 -62.68718 
L 349.16021 -62.534372 
L 348.894198 -62.381564 
L 348.625562 -62.228756 
L 348.354767 -62.075948 
z
" style="stroke: #999999; stroke-width: 2"/>
    </defs>
    <g clip-path="url(#p16e598ee14)">
     <use xlink:href="#m145a460e9a" x="0" y="255.11811" style="fill: #ffffff; stroke: #999999; stroke-width: 2"/>
    </g>
   </g>
   <g id="PolyCollection_6">
    <defs>
     <path id="m8443a39d78" d="M 406.720844 -156.317913 
L 400.041788 -156.317913 
L 399.934728 -156.983196 
L 399.830187 -157.648479 
L 399.728578 -158.313762 
L 399.630312 -158.979045 
L 399.53579 -159.644328 
L 399.445405 -160.309611 
L 399.359534 -160.974894 
L 399.278536 -161.640177 
L 399.202753 -162.30546 
L 399.132502 -162.970743 
L 399.068077 -163.636026 
L 399.009744 -164.301308 
L 398.957736 -164.966591 
L 398.912258 -165.631874 
L 398.873479 -166.297157 
L 398.841534 -166.96244 
L 398.816521 -167.627723 
L 398.798502 -168.293006 
L 398.787499 -168.958289 
L 398.783497 -169.623572 
L 398.786446 -170.288855 
L 398.796255 -170.954138 
L 398.8128 -171.619421 
L 398.835919 -172.284704 
L 398.865418 -172.949987 
L 398.901072 -173.615269 
L 398.942625 -174.280552 
L 398.989795 -174.945835 
L 399.042274 -175.611118 
L 399.099733 -176.276401 
L 399.161825 -176.941684 
L 399.228185 -177.606967 
L 399.298437 -178.27225 
L 399.372194 -178.937533 
L 399.449066 -179.602816 
L 399.528655 -180.268099 
L 399.610566 -180.933382 
L 399.694408 -181.598665 
L 399.779793 -182.263948 
L 399.866343 -182.929231 
L 399.95369 -183.594513 
L 400.041482 -184.259796 
L 400.129378 -184.925079 
L 400.217057 -185.590362 
L 400.304217 -186.255645 
L 400.390574 -186.920928 
L 400.475865 -187.586211 
L 400.559849 -188.251494 
L 400.642308 -188.916777 
L 400.723043 -189.58206 
L 400.80188 -190.247343 
L 400.878666 -190.912626 
L 400.953267 -191.577909 
L 401.025573 -192.243192 
L 401.095491 -192.908474 
L 401.162948 -193.573757 
L 401.227889 -194.23904 
L 401.290274 -194.904323 
L 401.350081 -195.569606 
L 401.4073 -196.234889 
L 401.461935 -196.900172 
L 401.514002 -197.565455 
L 401.563529 -198.230738 
L 401.610552 -198.896021 
L 401.655116 -199.561304 
L 401.697276 -200.226587 
L 401.737091 -200.89187 
L 401.774629 -201.557153 
L 401.809963 -202.222435 
L 401.843171 -202.887718 
L 401.874335 -203.553001 
L 401.903543 -204.218284 
L 401.930886 -204.883567 
L 401.956459 -205.54885 
L 401.980361 -206.214133 
L 402.002694 -206.879416 
L 402.023561 -207.544699 
L 402.043073 -208.209982 
L 402.061338 -208.875265 
L 402.078469 -209.540548 
L 402.094582 -210.205831 
L 402.109794 -210.871114 
L 402.124221 -211.536397 
L 402.137984 -212.201679 
L 402.1512 -212.866962 
L 402.16399 -213.532245 
L 402.17647 -214.197528 
L 402.188758 -214.862811 
L 402.200967 -215.528094 
L 402.213208 -216.193377 
L 402.225587 -216.85866 
L 402.238208 -217.523943 
L 402.251165 -218.189226 
L 402.26455 -218.854509 
L 402.278445 -219.519792 
L 402.292925 -220.185075 
L 402.308057 -220.850358 
L 402.323897 -221.51564 
L 402.340494 -222.180923 
L 404.422138 -222.180923 
L 404.422138 -222.180923 
L 404.438735 -221.51564 
L 404.454576 -220.850358 
L 404.469707 -220.185075 
L 404.484187 -219.519792 
L 404.498082 -218.854509 
L 404.511467 -218.189226 
L 404.524425 -217.523943 
L 404.537045 -216.85866 
L 404.549424 -216.193377 
L 404.561665 -215.528094 
L 404.573874 -214.862811 
L 404.586162 -214.197528 
L 404.598642 -213.532245 
L 404.611432 -212.866962 
L 404.624649 -212.201679 
L 404.638411 -211.536397 
L 404.652839 -210.871114 
L 404.66805 -210.205831 
L 404.684163 -209.540548 
L 404.701295 -208.875265 
L 404.71956 -208.209982 
L 404.739071 -207.544699 
L 404.759939 -206.879416 
L 404.782271 -206.214133 
L 404.806173 -205.54885 
L 404.831746 -204.883567 
L 404.859089 -204.218284 
L 404.888297 -203.553001 
L 404.919461 -202.887718 
L 404.952669 -202.222435 
L 404.988003 -201.557153 
L 405.025541 -200.89187 
L 405.065356 -200.226587 
L 405.107516 -199.561304 
L 405.15208 -198.896021 
L 405.199103 -198.230738 
L 405.24863 -197.565455 
L 405.300697 -196.900172 
L 405.355333 -196.234889 
L 405.412551 -195.569606 
L 405.472358 -194.904323 
L 405.534743 -194.23904 
L 405.599684 -193.573757 
L 405.667141 -192.908474 
L 405.737059 -192.243192 
L 405.809365 -191.577909 
L 405.883966 -190.912626 
L 405.960752 -190.247343 
L 406.039589 -189.58206 
L 406.120324 -188.916777 
L 406.202783 -188.251494 
L 406.286767 -187.586211 
L 406.372058 -186.920928 
L 406.458415 -186.255645 
L 406.545575 -185.590362 
L 406.633254 -184.925079 
L 406.721151 -184.259796 
L 406.808942 -183.594513 
L 406.896289 -182.929231 
L 406.982839 -182.263948 
L 407.068224 -181.598665 
L 407.152066 -180.933382 
L 407.233977 -180.268099 
L 407.313567 -179.602816 
L 407.390438 -178.937533 
L 407.464196 -178.27225 
L 407.534447 -177.606967 
L 407.600807 -176.941684 
L 407.662899 -176.276401 
L 407.720358 -175.611118 
L 407.772837 -174.945835 
L 407.820007 -174.280552 
L 407.86156 -173.615269 
L 407.897214 -172.949987 
L 407.926713 -172.284704 
L 407.949832 -171.619421 
L 407.966377 -170.954138 
L 407.976186 -170.288855 
L 407.979135 -169.623572 
L 407.975134 -168.958289 
L 407.96413 -168.293006 
L 407.946111 -167.627723 
L 407.921098 -166.96244 
L 407.889153 -166.297157 
L 407.850374 -165.631874 
L 407.804896 -164.966591 
L 407.752889 -164.301308 
L 407.694555 -163.636026 
L 407.63013 -162.970743 
L 407.559879 -162.30546 
L 407.484096 -161.640177 
L 407.403099 -160.974894 
L 407.317227 -160.309611 
L 407.226842 -159.644328 
L 407.13232 -158.979045 
L 407.034054 -158.313762 
L 406.932445 -157.648479 
L 406.827904 -156.983196 
L 406.720844 -156.317913 
z
" style="stroke: #999999; stroke-width: 2"/>
    </defs>
    <g clip-path="url(#p16e598ee14)">
     <use xlink:href="#m8443a39d78" x="0" y="255.11811" style="fill: #ffffff; stroke: #999999; stroke-width: 2"/>
    </g>
   </g>
   <g id="PolyCollection_7">
    <defs>
     <path id="mafd4f916a9" d="M 471.927621 -78.155102 
L 464.348217 -78.155102 
L 464.231674 -78.455894 
L 464.11526 -78.756686 
L 463.999108 -79.057478 
L 463.883351 -79.35827 
L 463.768114 -79.659062 
L 463.653522 -79.959854 
L 463.539693 -80.260646 
L 463.426741 -80.561438 
L 463.314776 -80.86223 
L 463.203904 -81.163022 
L 463.094225 -81.463814 
L 462.985836 -81.764606 
L 462.878829 -82.065398 
L 462.773292 -82.366189 
L 462.66931 -82.666981 
L 462.566964 -82.967773 
L 462.466332 -83.268565 
L 462.367489 -83.569357 
L 462.27051 -83.870149 
L 462.175467 -84.170941 
L 462.082431 -84.471733 
L 461.991473 -84.772525 
L 461.902664 -85.073317 
L 461.816077 -85.374109 
L 461.731786 -85.674901 
L 461.649865 -85.975693 
L 461.570392 -86.276485 
L 461.493448 -86.577277 
L 461.419117 -86.878069 
L 461.347485 -87.178861 
L 461.278641 -87.479653 
L 461.212681 -87.780445 
L 461.149701 -88.081237 
L 461.089799 -88.382029 
L 461.03308 -88.682821 
L 460.979646 -88.983612 
L 460.929603 -89.284404 
L 460.883058 -89.585196 
L 460.840115 -89.885988 
L 460.800878 -90.18678 
L 460.765448 -90.487572 
L 460.733921 -90.788364 
L 460.706387 -91.089156 
L 460.682931 -91.389948 
L 460.663627 -91.69074 
L 460.64854 -91.991532 
L 460.637723 -92.292324 
L 460.631215 -92.593116 
L 460.629044 -92.893908 
L 460.631217 -93.1947 
L 460.637731 -93.495492 
L 460.648559 -93.796284 
L 460.663662 -94.097076 
L 460.682977 -94.397868 
L 460.706427 -94.69866 
L 460.733914 -94.999452 
L 460.765322 -95.300244 
L 460.800518 -95.601035 
L 460.839352 -95.901827 
L 460.881661 -96.202619 
L 460.927265 -96.503411 
L 460.975975 -96.804203 
L 461.02759 -97.104995 
L 461.081903 -97.405787 
L 461.138701 -97.706579 
L 461.197769 -98.007371 
L 461.258889 -98.308163 
L 461.32185 -98.608955 
L 461.386443 -98.909747 
L 461.452469 -99.210539 
L 461.519736 -99.511331 
L 461.588068 -99.812123 
L 461.657303 -100.112915 
L 461.727296 -100.413707 
L 461.79792 -100.714499 
L 461.869068 -101.015291 
L 461.940655 -101.316083 
L 462.012617 -101.616875 
L 462.084912 -101.917667 
L 462.157523 -102.218459 
L 462.23045 -102.51925 
L 462.303718 -102.820042 
L 462.377371 -103.120834 
L 462.45147 -103.421626 
L 462.526094 -103.722418 
L 462.601337 -104.02321 
L 462.677304 -104.324002 
L 462.754111 -104.624794 
L 462.831879 -104.925586 
L 462.910736 -105.226378 
L 462.990808 -105.52717 
L 463.072222 -105.827962 
L 463.155099 -106.128754 
L 463.239553 -106.429546 
L 463.325688 -106.730338 
L 463.413594 -107.03113 
L 463.503348 -107.331922 
L 463.595008 -107.632714 
L 463.688615 -107.933506 
L 472.587223 -107.933506 
L 472.587223 -107.933506 
L 472.68083 -107.632714 
L 472.77249 -107.331922 
L 472.862244 -107.03113 
L 472.95015 -106.730338 
L 473.036285 -106.429546 
L 473.120739 -106.128754 
L 473.203616 -105.827962 
L 473.28503 -105.52717 
L 473.365102 -105.226378 
L 473.443959 -104.925586 
L 473.521727 -104.624794 
L 473.598534 -104.324002 
L 473.674501 -104.02321 
L 473.749744 -103.722418 
L 473.824368 -103.421626 
L 473.898467 -103.120834 
L 473.97212 -102.820042 
L 474.045388 -102.51925 
L 474.118315 -102.218459 
L 474.190926 -101.917667 
L 474.263221 -101.616875 
L 474.335183 -101.316083 
L 474.40677 -101.015291 
L 474.477918 -100.714499 
L 474.548542 -100.413707 
L 474.618535 -100.112915 
L 474.68777 -99.812123 
L 474.756102 -99.511331 
L 474.823369 -99.210539 
L 474.889395 -98.909747 
L 474.953988 -98.608955 
L 475.016949 -98.308163 
L 475.078069 -98.007371 
L 475.137137 -97.706579 
L 475.193935 -97.405787 
L 475.248248 -97.104995 
L 475.299863 -96.804203 
L 475.348573 -96.503411 
L 475.394177 -96.202619 
L 475.436486 -95.901827 
L 475.47532 -95.601035 
L 475.510516 -95.300244 
L 475.541924 -94.999452 
L 475.569411 -94.69866 
L 475.592861 -94.397868 
L 475.612176 -94.097076 
L 475.627279 -93.796284 
L 475.638107 -93.495492 
L 475.644621 -93.1947 
L 475.646794 -92.893908 
L 475.644623 -92.593116 
L 475.638115 -92.292324 
L 475.627298 -91.991532 
L 475.612211 -91.69074 
L 475.592907 -91.389948 
L 475.569451 -91.089156 
L 475.541918 -90.788364 
L 475.51039 -90.487572 
L 475.47496 -90.18678 
L 475.435723 -89.885988 
L 475.392781 -89.585196 
L 475.346235 -89.284404 
L 475.296192 -88.983612 
L 475.242758 -88.682821 
L 475.186039 -88.382029 
L 475.126137 -88.081237 
L 475.063157 -87.780445 
L 474.997197 -87.479653 
L 474.928354 -87.178861 
L 474.856721 -86.878069 
L 474.78239 -86.577277 
L 474.705446 -86.276485 
L 474.625973 -85.975693 
L 474.544052 -85.674901 
L 474.459761 -85.374109 
L 474.373174 -85.073317 
L 474.284365 -84.772525 
L 474.193407 -84.471733 
L 474.100371 -84.170941 
L 474.005328 -83.870149 
L 473.908349 -83.569357 
L 473.809506 -83.268565 
L 473.708874 -82.967773 
L 473.606528 -82.666981 
L 473.502546 -82.366189 
L 473.397009 -82.065398 
L 473.290002 -81.764606 
L 473.181613 -81.463814 
L 473.071934 -81.163022 
L 472.961062 -80.86223 
L 472.849097 -80.561438 
L 472.736145 -80.260646 
L 472.622316 -79.959854 
L 472.507724 -79.659062 
L 472.392487 -79.35827 
L 472.27673 -79.057478 
L 472.160578 -78.756686 
L 472.044164 -78.455894 
L 471.927621 -78.155102 
z
" style="stroke: #999999; stroke-width: 2"/>
    </defs>
    <g clip-path="url(#p16e598ee14)">
     <use xlink:href="#mafd4f916a9" x="0" y="255.11811" style="fill: #ffffff; stroke: #999999; stroke-width: 2"/>
    </g>
   </g>
   <g id="PathCollection_1"/>
   <g id="PathCollection_2"/>
   <g id="patch_3">
    <path d="M 47.22 213.89811 
L 47.22 24.32 
" style="fill: none; stroke: #262626; stroke-width: 1.25; stroke-linejoin: miter; stroke-linecap: square"/>
   </g>
   <g id="patch_4">
    <path d="M 47.22 213.89811 
L 500.51622 213.89811 
" style="fill: none; stroke: #262626; stroke-width: 1.25; stroke-linejoin: miter; stroke-linecap: square"/>
   </g>
   <g id="PathCollection_3">
    <defs>
     <path id="C0_0_885f71c411" d="M 0 2.5 
C 0.663008 2.5 1.29895 2.236584 1.767767 1.767767 
C 2.236584 1.29895 2.5 0.663008 2.5 -0 
C 2.5 -0.663008 2.236584 -1.29895 1.767767 -1.767767 
C 1.29895 -2.236584 0.663008 -2.5 0 -2.5 
C -0.663008 -2.5 -1.29895 -2.236584 -1.767767 -1.767767 
C -2.236584 -1.29895 -2.5 -0.663008 -2.5 0 
C -2.5 0.663008 -2.236584 1.29895 -1.767767 1.767767 
C -1.29895 2.236584 -0.663008 2.5 0 2.5 
z
"/>
    </defs>
    <g clip-path="url(#p16e598ee14)">
     <use xlink:href="#C0_0_885f71c411" x="82.712094" y="127.458182" style="fill: #4c72b0; fill-opacity: 0.75"/>
    </g>
    <g clip-path="url(#p16e598ee14)">
     <use xlink:href="#C0_0_885f71c411" x="83.42566" y="132.940741" style="fill: #4c72b0; fill-opacity: 0.75"/>
    </g>
    <g clip-path="url(#p16e598ee14)">
     <use xlink:href="#C0_0_885f71c411" x="85.043345" y="126.777904" style="fill: #4c72b0; fill-opacity: 0.75"/>
    </g>
    <g clip-path="url(#p16e598ee14)">
     <use xlink:href="#C0_0_885f71c411" x="79.671109" y="93.154985" style="fill: #4c72b0; fill-opacity: 0.75"/>
    </g>
    <g clip-path="url(#p16e598ee14)">
     <use xlink:href="#C0_0_885f71c411" x="77.487851" y="151.70844" style="fill: #dd8452; fill-opacity: 0.75"/>
    </g>
    <g clip-path="url(#p16e598ee14)">
     <use xlink:href="#C0_0_885f71c411" x="76.719338" y="163.937996" style="fill: #dd8452; fill-opacity: 0.75"/>
    </g>
    <g clip-path="url(#p16e598ee14)">
     <use xlink:href="#C0_0_885f71c411" x="84.834675" y="159.089669" style="fill: #dd8452; fill-opacity: 0.75"/>
    </g>
    <g clip-path="url(#p16e598ee14)">
     <use xlink:href="#C0_0_885f71c411" x="84.123759" y="160.749521" style="fill: #dd8452; fill-opacity: 0.75"/>
    </g>
   </g>
   <g id="PathCollection_4">
    <defs>
     <path id="C1_0_39dd994775" d="M 0 2.5 
C 0.663008 2.5 1.29895 2.236584 1.767767 1.767767 
C 2.236584 1.29895 2.5 0.663008 2.5 -0 
C 2.5 -0.663008 2.236584 -1.29895 1.767767 -1.767767 
C 1.29895 -2.236584 0.663008 -2.5 0 -2.5 
C -0.663008 -2.5 -1.29895 -2.236584 -1.767767 -1.767767 
C -2.236584 -1.29895 -2.5 -0.663008 -2.5 0 
C -2.5 0.663008 -2.236584 1.29895 -1.767767 1.767767 
C -1.29895 2.236584 -0.663008 2.5 0 2.5 
z
"/>
    </defs>
    <g clip-path="url(#p16e598ee14)">
     <use xlink:href="#C1_0_39dd994775" x="140.267672" y="186.083539" style="fill: #4c72b0; fill-opacity: 0.75"/>
    </g>
    <g clip-path="url(#p16e598ee14)">
     <use xlink:href="#C1_0_39dd994775" x="145.87751" y="182.112899" style="fill: #4c72b0; fill-opacity: 0.75"/>
    </g>
    <g clip-path="url(#p16e598ee14)">
     <use xlink:href="#C1_0_39dd994775" x="150.067582" y="197.822715" style="fill: #4c72b0; fill-opacity: 0.75"/>
    </g>
    <g clip-path="url(#p16e598ee14)">
     <use xlink:href="#C1_0_39dd994775" x="142.180134" y="193.297548" style="fill: #4c72b0; fill-opacity: 0.75"/>
    </g>
    <g clip-path="url(#p16e598ee14)">
     <use xlink:href="#C1_0_39dd994775" x="139.428626" y="188.784805" style="fill: #dd8452; fill-opacity: 0.75"/>
    </g>
    <g clip-path="url(#p16e598ee14)">
     <use xlink:href="#C1_0_39dd994775" x="145.389187" y="194.308078" style="fill: #dd8452; fill-opacity: 0.75"/>
    </g>
    <g clip-path="url(#p16e598ee14)">
     <use xlink:href="#C1_0_39dd994775" x="140.905711" y="195.585339" style="fill: #dd8452; fill-opacity: 0.75"/>
    </g>
    <g clip-path="url(#p16e598ee14)">
     <use xlink:href="#C1_0_39dd994775" x="140.967797" y="181.279402" style="fill: #dd8452; fill-opacity: 0.75"/>
    </g>
   </g>
   <g id="PathCollection_5">
    <defs>
     <path id="C2_0_1f0931fe5f" d="M 0 2.5 
C 0.663008 2.5 1.29895 2.236584 1.767767 1.767767 
C 2.236584 1.29895 2.5 0.663008 2.5 -0 
C 2.5 -0.663008 2.236584 -1.29895 1.767767 -1.767767 
C 1.29895 -2.236584 0.663008 -2.5 0 -2.5 
C -0.663008 -2.5 -1.29895 -2.236584 -1.767767 -1.767767 
C -2.236584 -1.29895 -2.5 -0.663008 -2.5 0 
C -2.5 0.663008 -2.236584 1.29895 -1.767767 1.767767 
C -1.29895 2.236584 -0.663008 2.5 0 2.5 
z
"/>
    </defs>
    <g clip-path="url(#p16e598ee14)">
     <use xlink:href="#C2_0_1f0931fe5f" x="202.664605" y="172.944427" style="fill: #4c72b0; fill-opacity: 0.75"/>
    </g>
    <g clip-path="url(#p16e598ee14)">
     <use xlink:href="#C2_0_1f0931fe5f" x="206.673389" y="174.496754" style="fill: #4c72b0; fill-opacity: 0.75"/>
    </g>
    <g clip-path="url(#p16e598ee14)">
     <use xlink:href="#C2_0_1f0931fe5f" x="214.939446" y="178.804837" style="fill: #4c72b0; fill-opacity: 0.75"/>
    </g>
    <g clip-path="url(#p16e598ee14)">
     <use xlink:href="#C2_0_1f0931fe5f" x="203.530838" y="175.55584" style="fill: #4c72b0; fill-opacity: 0.75"/>
    </g>
    <g clip-path="url(#p16e598ee14)">
     <use xlink:href="#C2_0_1f0931fe5f" x="209.568295" y="185.355227" style="fill: #dd8452; fill-opacity: 0.75"/>
    </g>
    <g clip-path="url(#p16e598ee14)">
     <use xlink:href="#C2_0_1f0931fe5f" x="209.968255" y="182.271303" style="fill: #dd8452; fill-opacity: 0.75"/>
    </g>
    <g clip-path="url(#p16e598ee14)">
     <use xlink:href="#C2_0_1f0931fe5f" x="205.46783" y="181.876811" style="fill: #dd8452; fill-opacity: 0.75"/>
    </g>
    <g clip-path="url(#p16e598ee14)">
     <use xlink:href="#C2_0_1f0931fe5f" x="205.372024" y="179.84379" style="fill: #dd8452; fill-opacity: 0.75"/>
    </g>
   </g>
   <g id="PathCollection_6">
    <defs>
     <path id="C3_0_924f6ce10f" d="M 0 2.5 
C 0.663008 2.5 1.29895 2.236584 1.767767 1.767767 
C 2.236584 1.29895 2.5 0.663008 2.5 -0 
C 2.5 -0.663008 2.236584 -1.29895 1.767767 -1.767767 
C 1.29895 -2.236584 0.663008 -2.5 0 -2.5 
C -0.663008 -2.5 -1.29895 -2.236584 -1.767767 -1.767767 
C -2.236584 -1.29895 -2.5 -0.663008 -2.5 0 
C -2.5 0.663008 -2.236584 1.29895 -1.767767 1.767767 
C -1.29895 2.236584 -0.663008 2.5 0 2.5 
z
"/>
    </defs>
    <g clip-path="url(#p16e598ee14)">
     <use xlink:href="#C3_0_924f6ce10f" x="267.545134" y="204.707894" style="fill: #4c72b0; fill-opacity: 0.75"/>
    </g>
    <g clip-path="url(#p16e598ee14)">
     <use xlink:href="#C3_0_924f6ce10f" x="267.925466" y="202.983779" style="fill: #4c72b0; fill-opacity: 0.75"/>
    </g>
    <g clip-path="url(#p16e598ee14)">
     <use xlink:href="#C3_0_924f6ce10f" x="278.482203" y="201.095708" style="fill: #4c72b0; fill-opacity: 0.75"/>
    </g>
    <g clip-path="url(#p16e598ee14)">
     <use xlink:href="#C3_0_924f6ce10f" x="278.021544" y="205.280923" style="fill: #4c72b0; fill-opacity: 0.75"/>
    </g>
    <g clip-path="url(#p16e598ee14)">
     <use xlink:href="#C3_0_924f6ce10f" x="276.79776" y="199.542889" style="fill: #4c72b0; fill-opacity: 0.75"/>
    </g>
    <g clip-path="url(#p16e598ee14)">
     <use xlink:href="#C3_0_924f6ce10f" x="276.94438" y="201.5136" style="fill: #dd8452; fill-opacity: 0.75"/>
    </g>
    <g clip-path="url(#p16e598ee14)">
     <use xlink:href="#C3_0_924f6ce10f" x="269.122831" y="204.312681" style="fill: #dd8452; fill-opacity: 0.75"/>
    </g>
    <g clip-path="url(#p16e598ee14)">
     <use xlink:href="#C3_0_924f6ce10f" x="270.863436" y="202.77792" style="fill: #dd8452; fill-opacity: 0.75"/>
    </g>
    <g clip-path="url(#p16e598ee14)">
     <use xlink:href="#C3_0_924f6ce10f" x="273.28745" y="194.477996" style="fill: #dd8452; fill-opacity: 0.75"/>
    </g>
    <g clip-path="url(#p16e598ee14)">
     <use xlink:href="#C3_0_924f6ce10f" x="274.700729" y="197.260388" style="fill: #dd8452; fill-opacity: 0.75"/>
    </g>
   </g>
   <g id="PathCollection_7">
    <defs>
     <path id="C4_0_dedd354177" d="M 0 2.5 
C 0.663008 2.5 1.29895 2.236584 1.767767 1.767767 
C 2.236584 1.29895 2.5 0.663008 2.5 -0 
C 2.5 -0.663008 2.236584 -1.29895 1.767767 -1.767767 
C 1.29895 -2.236584 0.663008 -2.5 0 -2.5 
C -0.663008 -2.5 -1.29895 -2.236584 -1.767767 -1.767767 
C -2.236584 -1.29895 -2.5 -0.663008 -2.5 0 
C -2.5 0.663008 -2.236584 1.29895 -1.767767 1.767767 
C -1.29895 2.236584 -0.663008 2.5 0 2.5 
z
"/>
    </defs>
    <g clip-path="url(#p16e598ee14)">
     <use xlink:href="#C4_0_dedd354177" x="332.382395" y="177.914168" style="fill: #4c72b0; fill-opacity: 0.75"/>
    </g>
    <g clip-path="url(#p16e598ee14)">
     <use xlink:href="#C4_0_dedd354177" x="332.728554" y="183.392789" style="fill: #4c72b0; fill-opacity: 0.75"/>
    </g>
    <g clip-path="url(#p16e598ee14)">
     <use xlink:href="#C4_0_dedd354177" x="333.639944" y="193.042162" style="fill: #4c72b0; fill-opacity: 0.75"/>
    </g>
    <g clip-path="url(#p16e598ee14)">
     <use xlink:href="#C4_0_dedd354177" x="338.451913" y="188.69724" style="fill: #dd8452; fill-opacity: 0.75"/>
    </g>
    <g clip-path="url(#p16e598ee14)">
     <use xlink:href="#C4_0_dedd354177" x="344.314865" y="189.377039" style="fill: #dd8452; fill-opacity: 0.75"/>
    </g>
    <g clip-path="url(#p16e598ee14)">
     <use xlink:href="#C4_0_dedd354177" x="333.645776" y="185.463433" style="fill: #dd8452; fill-opacity: 0.75"/>
    </g>
   </g>
   <g id="PathCollection_8">
    <defs>
     <path id="C5_0_0e4096f213" d="M 0 2.5 
C 0.663008 2.5 1.29895 2.236584 1.767767 1.767767 
C 2.236584 1.29895 2.5 0.663008 2.5 -0 
C 2.5 -0.663008 2.236584 -1.29895 1.767767 -1.767767 
C 1.29895 -2.236584 0.663008 -2.5 0 -2.5 
C -0.663008 -2.5 -1.29895 -2.236584 -1.767767 -1.767767 
C -2.236584 -1.29895 -2.5 -0.663008 -2.5 0 
C -2.5 0.663008 -2.236584 1.29895 -1.767767 1.767767 
C -1.29895 2.236584 -0.663008 2.5 0 2.5 
z
"/>
    </defs>
    <g clip-path="url(#p16e598ee14)">
     <use xlink:href="#C5_0_0e4096f213" x="403.19684" y="98.800197" style="fill: #4c72b0; fill-opacity: 0.75"/>
    </g>
    <g clip-path="url(#p16e598ee14)">
     <use xlink:href="#C5_0_0e4096f213" x="399.137785" y="32.937187" style="fill: #4c72b0; fill-opacity: 0.75"/>
    </g>
    <g clip-path="url(#p16e598ee14)">
     <use xlink:href="#C5_0_0e4096f213" x="409.068327" y="57.510885" style="fill: #4c72b0; fill-opacity: 0.75"/>
    </g>
    <g clip-path="url(#p16e598ee14)">
     <use xlink:href="#C5_0_0e4096f213" x="409.705556" y="86.056782" style="fill: #4c72b0; fill-opacity: 0.75"/>
    </g>
    <g clip-path="url(#p16e598ee14)">
     <use xlink:href="#C5_0_0e4096f213" x="409.114205" y="76.202085" style="fill: #dd8452; fill-opacity: 0.75"/>
    </g>
    <g clip-path="url(#p16e598ee14)">
     <use xlink:href="#C5_0_0e4096f213" x="400.808989" y="90.371793" style="fill: #dd8452; fill-opacity: 0.75"/>
    </g>
    <g clip-path="url(#p16e598ee14)">
     <use xlink:href="#C5_0_0e4096f213" x="398.889904" y="80.230496" style="fill: #dd8452; fill-opacity: 0.75"/>
    </g>
    <g clip-path="url(#p16e598ee14)">
     <use xlink:href="#C5_0_0e4096f213" x="397.613753" y="87.992951" style="fill: #dd8452; fill-opacity: 0.75"/>
    </g>
   </g>
   <g id="PathCollection_9">
    <defs>
     <path id="C6_0_92ef014733" d="M 0 2.5 
C 0.663008 2.5 1.29895 2.236584 1.767767 1.767767 
C 2.236584 1.29895 2.5 0.663008 2.5 -0 
C 2.5 -0.663008 2.236584 -1.29895 1.767767 -1.767767 
C 1.29895 -2.236584 0.663008 -2.5 0 -2.5 
C -0.663008 -2.5 -1.29895 -2.236584 -1.767767 -1.767767 
C -2.236584 -1.29895 -2.5 -0.663008 -2.5 0 
C -2.5 0.663008 -2.236584 1.29895 -1.767767 1.767767 
C -1.29895 2.236584 -0.663008 2.5 0 2.5 
z
"/>
    </defs>
    <g clip-path="url(#p16e598ee14)">
     <use xlink:href="#C6_0_92ef014733" x="468.229083" y="148.49843" style="fill: #4c72b0; fill-opacity: 0.75"/>
    </g>
    <g clip-path="url(#p16e598ee14)">
     <use xlink:href="#C6_0_92ef014733" x="469.183576" y="159.468411" style="fill: #4c72b0; fill-opacity: 0.75"/>
    </g>
    <g clip-path="url(#p16e598ee14)">
     <use xlink:href="#C6_0_92ef014733" x="463.157116" y="158.601659" style="fill: #4c72b0; fill-opacity: 0.75"/>
    </g>
    <g clip-path="url(#p16e598ee14)">
     <use xlink:href="#C6_0_92ef014733" x="462.878362" y="147.184605" style="fill: #4c72b0; fill-opacity: 0.75"/>
    </g>
    <g clip-path="url(#p16e598ee14)">
     <use xlink:href="#C6_0_92ef014733" x="465.316471" y="168.282035" style="fill: #dd8452; fill-opacity: 0.75"/>
    </g>
    <g clip-path="url(#p16e598ee14)">
     <use xlink:href="#C6_0_92ef014733" x="474.357231" y="161.460976" style="fill: #dd8452; fill-opacity: 0.75"/>
    </g>
    <g clip-path="url(#p16e598ee14)">
     <use xlink:href="#C6_0_92ef014733" x="465.455599" y="169.943509" style="fill: #dd8452; fill-opacity: 0.75"/>
    </g>
    <g clip-path="url(#p16e598ee14)">
     <use xlink:href="#C6_0_92ef014733" x="467.173984" y="176.963008" style="fill: #dd8452; fill-opacity: 0.75"/>
    </g>
   </g>
   <g id="text_19">
    <!-- SAT1, $p_{adj}$ &lt; .001 *** -->
    <g style="fill: #262626" transform="translate(47.22 18.32)scale(0.09 -0.09)">
     <defs>
      <path id="ArialMT-53" d="M 288 1472 
L 859 1522 
Q 900 1178 1048 958 
Q 1197 738 1509 602 
Q 1822 466 2213 466 
Q 2559 466 2825 569 
Q 3091 672 3220 851 
Q 3350 1031 3350 1244 
Q 3350 1459 3225 1620 
Q 3100 1781 2813 1891 
Q 2628 1963 1997 2114 
Q 1366 2266 1113 2400 
Q 784 2572 623 2826 
Q 463 3081 463 3397 
Q 463 3744 659 4045 
Q 856 4347 1234 4503 
Q 1613 4659 2075 4659 
Q 2584 4659 2973 4495 
Q 3363 4331 3572 4012 
Q 3781 3694 3797 3291 
L 3216 3247 
Q 3169 3681 2898 3903 
Q 2628 4125 2100 4125 
Q 1550 4125 1298 3923 
Q 1047 3722 1047 3438 
Q 1047 3191 1225 3031 
Q 1400 2872 2139 2705 
Q 2878 2538 3153 2413 
Q 3553 2228 3743 1945 
Q 3934 1663 3934 1294 
Q 3934 928 3725 604 
Q 3516 281 3123 101 
Q 2731 -78 2241 -78 
Q 1619 -78 1198 103 
Q 778 284 539 648 
Q 300 1013 288 1472 
z
" transform="scale(0.015625)"/>
      <path id="ArialMT-41" d="M -9 0 
L 1750 4581 
L 2403 4581 
L 4278 0 
L 3588 0 
L 3053 1388 
L 1138 1388 
L 634 0 
L -9 0 
z
M 1313 1881 
L 2866 1881 
L 2388 3150 
Q 2169 3728 2063 4100 
Q 1975 3659 1816 3225 
L 1313 1881 
z
" transform="scale(0.015625)"/>
      <path id="ArialMT-2c" d="M 569 0 
L 569 641 
L 1209 641 
L 1209 0 
Q 1209 -353 1084 -570 
Q 959 -788 688 -906 
L 531 -666 
Q 709 -588 793 -436 
Q 878 -284 888 0 
L 569 0 
z
" transform="scale(0.015625)"/>
      <path id="DejaVuSans-Oblique-70" d="M 3175 2156 
Q 3175 2616 2975 2859 
Q 2775 3103 2400 3103 
Q 2144 3103 1911 2972 
Q 1678 2841 1497 2591 
Q 1319 2344 1212 1994 
Q 1106 1644 1106 1300 
Q 1106 863 1306 627 
Q 1506 391 1875 391 
Q 2147 391 2380 519 
Q 2613 647 2778 891 
Q 2956 1147 3065 1494 
Q 3175 1841 3175 2156 
z
M 1394 2969 
Q 1625 3272 1939 3428 
Q 2253 3584 2638 3584 
Q 3175 3584 3472 3232 
Q 3769 2881 3769 2247 
Q 3769 1728 3584 1258 
Q 3400 788 3053 416 
Q 2822 169 2531 39 
Q 2241 -91 1919 -91 
Q 1547 -91 1294 64 
Q 1041 219 916 525 
L 556 -1331 
L -19 -1331 
L 922 3500 
L 1497 3500 
L 1394 2969 
z
" transform="scale(0.015625)"/>
      <path id="DejaVuSans-Oblique-61" d="M 3438 1997 
L 3047 0 
L 2472 0 
L 2578 531 
Q 2325 219 2001 64 
Q 1678 -91 1281 -91 
Q 834 -91 548 182 
Q 263 456 263 884 
Q 263 1497 752 1853 
Q 1241 2209 2100 2209 
L 2900 2209 
L 2931 2363 
Q 2938 2388 2941 2417 
Q 2944 2447 2944 2509 
Q 2944 2788 2717 2942 
Q 2491 3097 2081 3097 
Q 1800 3097 1504 3025 
Q 1209 2953 897 2809 
L 997 3341 
Q 1322 3463 1633 3523 
Q 1944 3584 2234 3584 
Q 2853 3584 3176 3315 
Q 3500 3047 3500 2534 
Q 3500 2431 3484 2292 
Q 3469 2153 3438 1997 
z
M 2816 1759 
L 2241 1759 
Q 1534 1759 1195 1570 
Q 856 1381 856 984 
Q 856 709 1029 553 
Q 1203 397 1509 397 
Q 1978 397 2328 733 
Q 2678 1069 2791 1631 
L 2816 1759 
z
" transform="scale(0.015625)"/>
      <path id="DejaVuSans-Oblique-64" d="M 2675 525 
Q 2444 222 2128 65 
Q 1813 -91 1428 -91 
Q 903 -91 598 267 
Q 294 625 294 1247 
Q 294 1766 478 2236 
Q 663 2706 1013 3078 
Q 1244 3325 1534 3454 
Q 1825 3584 2144 3584 
Q 2481 3584 2739 3421 
Q 2997 3259 3138 2956 
L 3513 4863 
L 4091 4863 
L 3144 0 
L 2566 0 
L 2675 525 
z
M 891 1350 
Q 891 897 1095 644 
Q 1300 391 1663 391 
Q 1931 391 2161 520 
Q 2391 650 2566 903 
Q 2750 1166 2856 1509 
Q 2963 1853 2963 2188 
Q 2963 2622 2758 2865 
Q 2553 3109 2194 3109 
Q 1922 3109 1687 2981 
Q 1453 2853 1288 2613 
Q 1106 2353 998 2009 
Q 891 1666 891 1350 
z
" transform="scale(0.015625)"/>
      <path id="DejaVuSans-Oblique-6a" d="M 928 3500 
L 1503 3500 
L 813 -63 
L 809 -78 
Q 694 -675 544 -897 
Q 403 -1106 132 -1218 
Q -138 -1331 -506 -1331 
L -722 -1331 
L -628 -844 
L -481 -844 
Q -144 -844 -1 -703 
Q 141 -563 238 -63 
L 928 3500 
z
M 1197 4863 
L 1772 4863 
L 1631 4134 
L 1056 4134 
L 1197 4863 
z
" transform="scale(0.015625)"/>
      <path id="ArialMT-3c" d="M 350 2003 
L 350 2528 
L 3384 3809 
L 3384 3250 
L 978 2263 
L 3384 1266 
L 3384 706 
L 350 2003 
z
" transform="scale(0.015625)"/>
      <path id="ArialMT-2e" d="M 581 0 
L 581 641 
L 1222 641 
L 1222 0 
L 581 0 
z
" transform="scale(0.015625)"/>
      <path id="ArialMT-2a" d="M 200 3741 
L 344 4184 
Q 841 4009 1066 3881 
Q 1006 4447 1003 4659 
L 1456 4659 
Q 1447 4350 1384 3884 
Q 1706 4047 2122 4184 
L 2266 3741 
Q 1869 3609 1488 3566 
Q 1678 3400 2025 2975 
L 1650 2709 
Q 1469 2956 1222 3381 
Q 991 2941 816 2709 
L 447 2975 
Q 809 3422 966 3566 
Q 563 3644 200 3741 
z
" transform="scale(0.015625)"/>
     </defs>
     <use xlink:href="#ArialMT-53" transform="translate(0 0.203125)"/>
     <use xlink:href="#ArialMT-41" transform="translate(66.699219 0.203125)"/>
     <use xlink:href="#ArialMT-54" transform="translate(133.398438 0.203125)"/>
     <use xlink:href="#ArialMT-31" transform="translate(194.482422 0.203125)"/>
     <use xlink:href="#ArialMT-2c" transform="translate(250.097656 0.203125)"/>
     <use xlink:href="#ArialMT-20" transform="translate(277.880859 0.203125)"/>
     <use xlink:href="#DejaVuSans-Oblique-70" transform="translate(305.664062 0.203125)"/>
     <use xlink:href="#DejaVuSans-Oblique-61" transform="translate(369.140625 -16.203125)scale(0.7)"/>
     <use xlink:href="#DejaVuSans-Oblique-64" transform="translate(412.036133 -16.203125)scale(0.7)"/>
     <use xlink:href="#DejaVuSans-Oblique-6a" transform="translate(456.469727 -16.203125)scale(0.7)"/>
     <use xlink:href="#ArialMT-20" transform="translate(478.652344 0.203125)"/>
     <use xlink:href="#ArialMT-3c" transform="translate(506.435547 0.203125)"/>
     <use xlink:href="#ArialMT-20" transform="translate(564.833984 0.203125)"/>
     <use xlink:href="#ArialMT-2e" transform="translate(592.617188 0.203125)"/>
     <use xlink:href="#ArialMT-30" transform="translate(620.400391 0.203125)"/>
     <use xlink:href="#ArialMT-30" transform="translate(676.015625 0.203125)"/>
     <use xlink:href="#ArialMT-31" transform="translate(731.630859 0.203125)"/>
     <use xlink:href="#ArialMT-20" transform="translate(787.246094 0.203125)"/>
     <use xlink:href="#ArialMT-2a" transform="translate(815.029297 0.203125)"/>
     <use xlink:href="#ArialMT-2a" transform="translate(853.945312 0.203125)"/>
     <use xlink:href="#ArialMT-2a" transform="translate(892.861328 0.203125)"/>
    </g>
   </g>
   <g id="legend_1">
    <g id="patch_5">
     <path d="M 441.91497 69.712344 
L 494.21622 69.712344 
Q 496.01622 69.712344 496.01622 67.912344 
L 496.01622 30.62 
Q 496.01622 28.82 494.21622 28.82 
L 441.91497 28.82 
Q 440.11497 28.82 440.11497 30.62 
L 440.11497 67.912344 
Q 440.11497 69.712344 441.91497 69.712344 
z
" style="fill: #ffffff; opacity: 0.8; stroke: #cccccc; stroke-linejoin: miter"/>
    </g>
    <g id="text_20">
     <!-- Treatment -->
     <g style="fill: #262626" transform="translate(447.729111 38.862031)scale(0.09 -0.09)">
      <use xlink:href="#ArialMT-54"/>
      <use xlink:href="#ArialMT-72" x="57.333984"/>
      <use xlink:href="#ArialMT-65" x="90.634766"/>
      <use xlink:href="#ArialMT-61" x="146.25"/>
      <use xlink:href="#ArialMT-74" x="201.865234"/>
      <use xlink:href="#ArialMT-6d" x="229.648438"/>
      <use xlink:href="#ArialMT-65" x="312.949219"/>
      <use xlink:href="#ArialMT-6e" x="368.564453"/>
      <use xlink:href="#ArialMT-74" x="424.179688"/>
     </g>
    </g>
    <g id="PathCollection_10">
     <defs>
      <path id="m12b3cdfcc3" d="M 0 3.872983 
C 1.027127 3.872983 2.012324 3.464901 2.738613 2.738613 
C 3.464901 2.012324 3.872983 1.027127 3.872983 0 
C 3.872983 -1.027127 3.464901 -2.012324 2.738613 -2.738613 
C 2.012324 -3.464901 1.027127 -3.872983 0 -3.872983 
C -1.027127 -3.872983 -2.012324 -3.464901 -2.738613 -2.738613 
C -3.464901 -2.012324 -3.872983 -1.027127 -3.872983 0 
C -3.872983 1.027127 -3.464901 2.012324 -2.738613 2.738613 
C -2.012324 3.464901 -1.027127 3.872983 0 3.872983 
z
" style="stroke: #4c72b0"/>
     </defs>
     <g>
      <use xlink:href="#m12b3cdfcc3" x="452.71497" y="49.230313" style="fill: #4c72b0; stroke: #4c72b0"/>
     </g>
    </g>
    <g id="text_21">
     <!-- BEVA -->
     <g style="fill: #262626" transform="translate(468.91497 51.592813)scale(0.09 -0.09)">
      <defs>
       <path id="ArialMT-42" d="M 469 0 
L 469 4581 
L 2188 4581 
Q 2713 4581 3030 4442 
Q 3347 4303 3526 4014 
Q 3706 3725 3706 3409 
Q 3706 3116 3547 2856 
Q 3388 2597 3066 2438 
Q 3481 2316 3704 2022 
Q 3928 1728 3928 1328 
Q 3928 1006 3792 729 
Q 3656 453 3456 303 
Q 3256 153 2954 76 
Q 2653 0 2216 0 
L 469 0 
z
M 1075 2656 
L 2066 2656 
Q 2469 2656 2644 2709 
Q 2875 2778 2992 2937 
Q 3109 3097 3109 3338 
Q 3109 3566 3000 3739 
Q 2891 3913 2687 3977 
Q 2484 4041 1991 4041 
L 1075 4041 
L 1075 2656 
z
M 1075 541 
L 2216 541 
Q 2509 541 2628 563 
Q 2838 600 2978 687 
Q 3119 775 3209 942 
Q 3300 1109 3300 1328 
Q 3300 1584 3169 1773 
Q 3038 1963 2805 2039 
Q 2572 2116 2134 2116 
L 1075 2116 
L 1075 541 
z
" transform="scale(0.015625)"/>
       <path id="ArialMT-45" d="M 506 0 
L 506 4581 
L 3819 4581 
L 3819 4041 
L 1113 4041 
L 1113 2638 
L 3647 2638 
L 3647 2100 
L 1113 2100 
L 1113 541 
L 3925 541 
L 3925 0 
L 506 0 
z
" transform="scale(0.015625)"/>
       <path id="ArialMT-56" d="M 1803 0 
L 28 4581 
L 684 4581 
L 1875 1253 
Q 2019 853 2116 503 
Q 2222 878 2363 1253 
L 3600 4581 
L 4219 4581 
L 2425 0 
L 1803 0 
z
" transform="scale(0.015625)"/>
      </defs>
      <use xlink:href="#ArialMT-42"/>
      <use xlink:href="#ArialMT-45" x="66.699219"/>
      <use xlink:href="#ArialMT-56" x="133.398438"/>
      <use xlink:href="#ArialMT-41" x="192.722656"/>
     </g>
    </g>
    <g id="PathCollection_11">
     <defs>
      <path id="m3cf2aa5e0b" d="M 0 3.872983 
C 1.027127 3.872983 2.012324 3.464901 2.738613 2.738613 
C 3.464901 2.012324 3.872983 1.027127 3.872983 0 
C 3.872983 -1.027127 3.464901 -2.012324 2.738613 -2.738613 
C 2.012324 -3.464901 1.027127 -3.872983 0 -3.872983 
C -1.027127 -3.872983 -2.012324 -3.464901 -2.738613 -2.738613 
C -3.464901 -2.012324 -3.872983 -1.027127 -3.872983 0 
C -3.872983 1.027127 -3.464901 2.012324 -2.738613 2.738613 
C -2.012324 3.464901 -1.027127 3.872983 0 3.872983 
z
" style="stroke: #dd8452"/>
     </defs>
     <g>
      <use xlink:href="#m3cf2aa5e0b" x="452.71497" y="61.961094" style="fill: #dd8452; stroke: #dd8452"/>
     </g>
    </g>
    <g id="text_22">
     <!-- CTRL -->
     <g style="fill: #262626" transform="translate(468.91497 64.323594)scale(0.09 -0.09)">
      <defs>
       <path id="ArialMT-43" d="M 3763 1606 
L 4369 1453 
Q 4178 706 3683 314 
Q 3188 -78 2472 -78 
Q 1731 -78 1267 223 
Q 803 525 561 1097 
Q 319 1669 319 2325 
Q 319 3041 592 3573 
Q 866 4106 1370 4382 
Q 1875 4659 2481 4659 
Q 3169 4659 3637 4309 
Q 4106 3959 4291 3325 
L 3694 3184 
Q 3534 3684 3231 3912 
Q 2928 4141 2469 4141 
Q 1941 4141 1586 3887 
Q 1231 3634 1087 3207 
Q 944 2781 944 2328 
Q 944 1744 1114 1308 
Q 1284 872 1643 656 
Q 2003 441 2422 441 
Q 2931 441 3284 734 
Q 3638 1028 3763 1606 
z
" transform="scale(0.015625)"/>
       <path id="ArialMT-52" d="M 503 0 
L 503 4581 
L 2534 4581 
Q 3147 4581 3465 4457 
Q 3784 4334 3975 4021 
Q 4166 3709 4166 3331 
Q 4166 2844 3850 2509 
Q 3534 2175 2875 2084 
Q 3116 1969 3241 1856 
Q 3506 1613 3744 1247 
L 4541 0 
L 3778 0 
L 3172 953 
Q 2906 1366 2734 1584 
Q 2563 1803 2427 1890 
Q 2291 1978 2150 2013 
Q 2047 2034 1813 2034 
L 1109 2034 
L 1109 0 
L 503 0 
z
M 1109 2559 
L 2413 2559 
Q 2828 2559 3062 2645 
Q 3297 2731 3419 2920 
Q 3541 3109 3541 3331 
Q 3541 3656 3305 3865 
Q 3069 4075 2559 4075 
L 1109 4075 
L 1109 2559 
z
" transform="scale(0.015625)"/>
       <path id="ArialMT-4c" d="M 469 0 
L 469 4581 
L 1075 4581 
L 1075 541 
L 3331 541 
L 3331 0 
L 469 0 
z
" transform="scale(0.015625)"/>
      </defs>
      <use xlink:href="#ArialMT-43"/>
      <use xlink:href="#ArialMT-54" x="72.216797"/>
      <use xlink:href="#ArialMT-52" x="133.300781"/>
      <use xlink:href="#ArialMT-4c" x="205.517578"/>
     </g>
    </g>
   </g>
  </g>
 </g>
 <defs>
  <clipPath id="p16e598ee14">
   <rect x="47.22" y="24.32" width="453.29622" height="189.57811"/>
  </clipPath>
 </defs>
</svg>
