<?xml version="1.0" encoding="utf-8" standalone="no"?>
<!DOCTYPE svg PUBLIC "-//W3C//DTD SVG 1.1//EN"
  "http://www.w3.org/Graphics/SVG/1.1/DTD/svg11.dtd">
<svg xmlns:xlink="http://www.w3.org/1999/xlink" width="510.23622pt" height="255.11811pt" viewBox="0 0 510.23622 255.11811" xmlns="http://www.w3.org/2000/svg" version="1.1">
 <metadata>
  <rdf:RDF xmlns:dc="http://purl.org/dc/elements/1.1/" xmlns:cc="http://creativecommons.org/ns#" xmlns:rdf="http://www.w3.org/1999/02/22-rdf-syntax-ns#">
   <cc:Work>
    <dc:type rdf:resource="http://purl.org/dc/dcmitype/StillImage"/>
    <dc:date>2022-04-27T00:19:45.323501</dc:date>
    <dc:format>image/svg+xml</dc:format>
    <dc:creator>
     <cc:Agent>
      <dc:title>Matplotlib v3.5.1, https://matplotlib.org/</dc:title>
     </cc:Agent>
    </dc:creator>
   </cc:Work>
  </rdf:RDF>
 </metadata>
 <defs>
  <style type="text/css">*{stroke-linejoin: round; stroke-linecap: butt}</style>
 </defs>
 <g id="figure_1">
  <g id="patch_1">
   <path d="M 0 255.11811 
L 510.23622 255.11811 
L 510.23622 0 
L 0 0 
z
" style="fill: #ffffff"/>
  </g>
  <g id="axes_1">
   <g id="patch_2">
    <path d="M 52.22 213.89811 
L 500.51622 213.89811 
L 500.51622 24.32 
L 52.22 24.32 
z
" style="fill: #ffffff"/>
   </g>
   <g id="matplotlib.axis_1">
    <g id="xtick_1">
     <g id="text_1">
      <!-- 49 -->
      <g style="fill: #444444" transform="translate(79.236315 229.840141)scale(0.09 -0.09)">
       <defs>
        <path id="ArialMT-34" d="M 2069 0 
L 2069 1097 
L 81 1097 
L 81 1613 
L 2172 4581 
L 2631 4581 
L 2631 1613 
L 3250 1613 
L 3250 1097 
L 2631 1097 
L 2631 0 
L 2069 0 
z
M 2069 1613 
L 2069 3678 
L 634 1613 
L 2069 1613 
z
" transform="scale(0.015625)"/>
        <path id="ArialMT-39" d="M 350 1059 
L 891 1109 
Q 959 728 1153 556 
Q 1347 384 1650 384 
Q 1909 384 2104 503 
Q 2300 622 2425 820 
Q 2550 1019 2634 1356 
Q 2719 1694 2719 2044 
Q 2719 2081 2716 2156 
Q 2547 1888 2255 1720 
Q 1963 1553 1622 1553 
Q 1053 1553 659 1965 
Q 266 2378 266 3053 
Q 266 3750 677 4175 
Q 1088 4600 1706 4600 
Q 2153 4600 2523 4359 
Q 2894 4119 3086 3673 
Q 3278 3228 3278 2384 
Q 3278 1506 3087 986 
Q 2897 466 2520 194 
Q 2144 -78 1638 -78 
Q 1100 -78 759 220 
Q 419 519 350 1059 
z
M 2653 3081 
Q 2653 3566 2395 3850 
Q 2138 4134 1775 4134 
Q 1400 4134 1122 3828 
Q 844 3522 844 3034 
Q 844 2597 1108 2323 
Q 1372 2050 1759 2050 
Q 2150 2050 2401 2323 
Q 2653 2597 2653 3081 
z
" transform="scale(0.015625)"/>
       </defs>
       <use xlink:href="#ArialMT-34"/>
       <use xlink:href="#ArialMT-39" x="55.615234"/>
      </g>
     </g>
    </g>
    <g id="xtick_2">
     <g id="text_2">
      <!-- 17 -->
      <g style="fill: #444444" transform="translate(143.278632 229.840141)scale(0.09 -0.09)">
       <defs>
        <path id="ArialMT-31" d="M 2384 0 
L 1822 0 
L 1822 3584 
Q 1619 3391 1289 3197 
Q 959 3003 697 2906 
L 697 3450 
Q 1169 3672 1522 3987 
Q 1875 4303 2022 4600 
L 2384 4600 
L 2384 0 
z
" transform="scale(0.015625)"/>
        <path id="ArialMT-37" d="M 303 3981 
L 303 4522 
L 3269 4522 
L 3269 4084 
Q 2831 3619 2401 2847 
Q 1972 2075 1738 1259 
Q 1569 684 1522 0 
L 944 0 
Q 953 541 1156 1306 
Q 1359 2072 1739 2783 
Q 2119 3494 2547 3981 
L 303 3981 
z
" transform="scale(0.015625)"/>
       </defs>
       <use xlink:href="#ArialMT-31"/>
       <use xlink:href="#ArialMT-37" x="55.615234"/>
      </g>
     </g>
    </g>
    <g id="xtick_3">
     <g id="text_3">
      <!-- 69 -->
      <g style="fill: #444444" transform="translate(207.320949 229.840141)scale(0.09 -0.09)">
       <defs>
        <path id="ArialMT-36" d="M 3184 3459 
L 2625 3416 
Q 2550 3747 2413 3897 
Q 2184 4138 1850 4138 
Q 1581 4138 1378 3988 
Q 1113 3794 959 3422 
Q 806 3050 800 2363 
Q 1003 2672 1297 2822 
Q 1591 2972 1913 2972 
Q 2475 2972 2870 2558 
Q 3266 2144 3266 1488 
Q 3266 1056 3080 686 
Q 2894 316 2569 119 
Q 2244 -78 1831 -78 
Q 1128 -78 684 439 
Q 241 956 241 2144 
Q 241 3472 731 4075 
Q 1159 4600 1884 4600 
Q 2425 4600 2770 4297 
Q 3116 3994 3184 3459 
z
M 888 1484 
Q 888 1194 1011 928 
Q 1134 663 1356 523 
Q 1578 384 1822 384 
Q 2178 384 2434 671 
Q 2691 959 2691 1453 
Q 2691 1928 2437 2201 
Q 2184 2475 1800 2475 
Q 1419 2475 1153 2201 
Q 888 1928 888 1484 
z
" transform="scale(0.015625)"/>
       </defs>
       <use xlink:href="#ArialMT-36"/>
       <use xlink:href="#ArialMT-39" x="55.615234"/>
      </g>
     </g>
    </g>
    <g id="xtick_4">
     <g id="text_4">
      <!-- 15 -->
      <g style="fill: #444444" transform="translate(271.363266 229.840141)scale(0.09 -0.09)">
       <defs>
        <path id="ArialMT-35" d="M 266 1200 
L 856 1250 
Q 922 819 1161 601 
Q 1400 384 1738 384 
Q 2144 384 2425 690 
Q 2706 997 2706 1503 
Q 2706 1984 2436 2262 
Q 2166 2541 1728 2541 
Q 1456 2541 1237 2417 
Q 1019 2294 894 2097 
L 366 2166 
L 809 4519 
L 3088 4519 
L 3088 3981 
L 1259 3981 
L 1013 2750 
Q 1425 3038 1878 3038 
Q 2478 3038 2890 2622 
Q 3303 2206 3303 1553 
Q 3303 931 2941 478 
Q 2500 -78 1738 -78 
Q 1113 -78 717 272 
Q 322 622 266 1200 
z
" transform="scale(0.015625)"/>
       </defs>
       <use xlink:href="#ArialMT-31"/>
       <use xlink:href="#ArialMT-35" x="55.615234"/>
      </g>
     </g>
    </g>
    <g id="xtick_5">
     <g id="text_5">
      <!-- 5 -->
      <g style="fill: #444444" transform="translate(337.908006 229.840141)scale(0.09 -0.09)">
       <use xlink:href="#ArialMT-35"/>
      </g>
     </g>
    </g>
    <g id="xtick_6">
     <g id="text_6">
      <!-- 126 -->
      <g style="fill: #444444" transform="translate(396.945479 229.840141)scale(0.09 -0.09)">
       <defs>
        <path id="ArialMT-32" d="M 3222 541 
L 3222 0 
L 194 0 
Q 188 203 259 391 
Q 375 700 629 1000 
Q 884 1300 1366 1694 
Q 2113 2306 2375 2664 
Q 2638 3022 2638 3341 
Q 2638 3675 2398 3904 
Q 2159 4134 1775 4134 
Q 1369 4134 1125 3890 
Q 881 3647 878 3216 
L 300 3275 
Q 359 3922 746 4261 
Q 1134 4600 1788 4600 
Q 2447 4600 2831 4234 
Q 3216 3869 3216 3328 
Q 3216 3053 3103 2787 
Q 2991 2522 2730 2228 
Q 2469 1934 1863 1422 
Q 1356 997 1212 845 
Q 1069 694 975 541 
L 3222 541 
z
" transform="scale(0.015625)"/>
       </defs>
       <use xlink:href="#ArialMT-31"/>
       <use xlink:href="#ArialMT-32" x="55.615234"/>
       <use xlink:href="#ArialMT-36" x="111.230469"/>
      </g>
     </g>
    </g>
    <g id="xtick_7">
     <g id="text_7">
      <!-- 62 -->
      <g style="fill: #444444" transform="translate(463.490218 229.840141)scale(0.09 -0.09)">
       <use xlink:href="#ArialMT-36"/>
       <use xlink:href="#ArialMT-32" x="55.615234"/>
      </g>
     </g>
    </g>
    <g id="text_8">
     <!-- Patient -->
     <g style="fill: #444444" transform="translate(262.359048 242.070923)scale(0.09 -0.09)">
      <defs>
       <path id="ArialMT-50" d="M 494 0 
L 494 4581 
L 2222 4581 
Q 2678 4581 2919 4538 
Q 3256 4481 3484 4323 
Q 3713 4166 3852 3881 
Q 3991 3597 3991 3256 
Q 3991 2672 3619 2267 
Q 3247 1863 2275 1863 
L 1100 1863 
L 1100 0 
L 494 0 
z
M 1100 2403 
L 2284 2403 
Q 2872 2403 3119 2622 
Q 3366 2841 3366 3238 
Q 3366 3525 3220 3729 
Q 3075 3934 2838 4000 
Q 2684 4041 2272 4041 
L 1100 4041 
L 1100 2403 
z
" transform="scale(0.015625)"/>
       <path id="ArialMT-61" d="M 2588 409 
Q 2275 144 1986 34 
Q 1697 -75 1366 -75 
Q 819 -75 525 192 
Q 231 459 231 875 
Q 231 1119 342 1320 
Q 453 1522 633 1644 
Q 813 1766 1038 1828 
Q 1203 1872 1538 1913 
Q 2219 1994 2541 2106 
Q 2544 2222 2544 2253 
Q 2544 2597 2384 2738 
Q 2169 2928 1744 2928 
Q 1347 2928 1158 2789 
Q 969 2650 878 2297 
L 328 2372 
Q 403 2725 575 2942 
Q 747 3159 1072 3276 
Q 1397 3394 1825 3394 
Q 2250 3394 2515 3294 
Q 2781 3194 2906 3042 
Q 3031 2891 3081 2659 
Q 3109 2516 3109 2141 
L 3109 1391 
Q 3109 606 3145 398 
Q 3181 191 3288 0 
L 2700 0 
Q 2613 175 2588 409 
z
M 2541 1666 
Q 2234 1541 1622 1453 
Q 1275 1403 1131 1340 
Q 988 1278 909 1158 
Q 831 1038 831 891 
Q 831 666 1001 516 
Q 1172 366 1500 366 
Q 1825 366 2078 508 
Q 2331 650 2450 897 
Q 2541 1088 2541 1459 
L 2541 1666 
z
" transform="scale(0.015625)"/>
       <path id="ArialMT-74" d="M 1650 503 
L 1731 6 
Q 1494 -44 1306 -44 
Q 1000 -44 831 53 
Q 663 150 594 308 
Q 525 466 525 972 
L 525 2881 
L 113 2881 
L 113 3319 
L 525 3319 
L 525 4141 
L 1084 4478 
L 1084 3319 
L 1650 3319 
L 1650 2881 
L 1084 2881 
L 1084 941 
Q 1084 700 1114 631 
Q 1144 563 1211 522 
Q 1278 481 1403 481 
Q 1497 481 1650 503 
z
" transform="scale(0.015625)"/>
       <path id="ArialMT-69" d="M 425 3934 
L 425 4581 
L 988 4581 
L 988 3934 
L 425 3934 
z
M 425 0 
L 425 3319 
L 988 3319 
L 988 0 
L 425 0 
z
" transform="scale(0.015625)"/>
       <path id="ArialMT-65" d="M 2694 1069 
L 3275 997 
Q 3138 488 2766 206 
Q 2394 -75 1816 -75 
Q 1088 -75 661 373 
Q 234 822 234 1631 
Q 234 2469 665 2931 
Q 1097 3394 1784 3394 
Q 2450 3394 2872 2941 
Q 3294 2488 3294 1666 
Q 3294 1616 3291 1516 
L 816 1516 
Q 847 969 1125 678 
Q 1403 388 1819 388 
Q 2128 388 2347 550 
Q 2566 713 2694 1069 
z
M 847 1978 
L 2700 1978 
Q 2663 2397 2488 2606 
Q 2219 2931 1791 2931 
Q 1403 2931 1139 2672 
Q 875 2413 847 1978 
z
" transform="scale(0.015625)"/>
       <path id="ArialMT-6e" d="M 422 0 
L 422 3319 
L 928 3319 
L 928 2847 
Q 1294 3394 1984 3394 
Q 2284 3394 2536 3286 
Q 2788 3178 2913 3003 
Q 3038 2828 3088 2588 
Q 3119 2431 3119 2041 
L 3119 0 
L 2556 0 
L 2556 2019 
Q 2556 2363 2490 2533 
Q 2425 2703 2258 2804 
Q 2091 2906 1866 2906 
Q 1506 2906 1245 2678 
Q 984 2450 984 1813 
L 984 0 
L 422 0 
z
" transform="scale(0.015625)"/>
      </defs>
      <use xlink:href="#ArialMT-50"/>
      <use xlink:href="#ArialMT-61" x="66.699219"/>
      <use xlink:href="#ArialMT-74" x="122.314453"/>
      <use xlink:href="#ArialMT-69" x="150.097656"/>
      <use xlink:href="#ArialMT-65" x="172.314453"/>
      <use xlink:href="#ArialMT-6e" x="227.929688"/>
      <use xlink:href="#ArialMT-74" x="283.544922"/>
     </g>
    </g>
   </g>
   <g id="matplotlib.axis_2">
    <g id="ytick_1">
     <g id="text_9">
      <!-- 500 -->
      <g style="fill: #444444" transform="translate(27.705469 197.343452)scale(0.09 -0.09)">
       <defs>
        <path id="ArialMT-30" d="M 266 2259 
Q 266 3072 433 3567 
Q 600 4063 929 4331 
Q 1259 4600 1759 4600 
Q 2128 4600 2406 4451 
Q 2684 4303 2865 4023 
Q 3047 3744 3150 3342 
Q 3253 2941 3253 2259 
Q 3253 1453 3087 958 
Q 2922 463 2592 192 
Q 2263 -78 1759 -78 
Q 1097 -78 719 397 
Q 266 969 266 2259 
z
M 844 2259 
Q 844 1131 1108 757 
Q 1372 384 1759 384 
Q 2147 384 2411 759 
Q 2675 1134 2675 2259 
Q 2675 3391 2411 3762 
Q 2147 4134 1753 4134 
Q 1366 4134 1134 3806 
Q 844 3388 844 2259 
z
" transform="scale(0.015625)"/>
       </defs>
       <use xlink:href="#ArialMT-35"/>
       <use xlink:href="#ArialMT-30" x="55.615234"/>
       <use xlink:href="#ArialMT-30" x="111.230469"/>
      </g>
     </g>
    </g>
    <g id="ytick_2">
     <g id="text_10">
      <!-- 750 -->
      <g style="fill: #444444" transform="translate(27.705469 174.719797)scale(0.09 -0.09)">
       <use xlink:href="#ArialMT-37"/>
       <use xlink:href="#ArialMT-35" x="55.615234"/>
       <use xlink:href="#ArialMT-30" x="111.230469"/>
      </g>
     </g>
    </g>
    <g id="ytick_3">
     <g id="text_11">
      <!-- 1000 -->
      <g style="fill: #444444" transform="translate(22.700625 152.096141)scale(0.09 -0.09)">
       <use xlink:href="#ArialMT-31"/>
       <use xlink:href="#ArialMT-30" x="55.615234"/>
       <use xlink:href="#ArialMT-30" x="111.230469"/>
       <use xlink:href="#ArialMT-30" x="166.845703"/>
      </g>
     </g>
    </g>
    <g id="ytick_4">
     <g id="text_12">
      <!-- 1250 -->
      <g style="fill: #444444" transform="translate(22.700625 129.472486)scale(0.09 -0.09)">
       <use xlink:href="#ArialMT-31"/>
       <use xlink:href="#ArialMT-32" x="55.615234"/>
       <use xlink:href="#ArialMT-35" x="111.230469"/>
       <use xlink:href="#ArialMT-30" x="166.845703"/>
      </g>
     </g>
    </g>
    <g id="ytick_5">
     <g id="text_13">
      <!-- 1500 -->
      <g style="fill: #444444" transform="translate(22.700625 106.848831)scale(0.09 -0.09)">
       <use xlink:href="#ArialMT-31"/>
       <use xlink:href="#ArialMT-35" x="55.615234"/>
       <use xlink:href="#ArialMT-30" x="111.230469"/>
       <use xlink:href="#ArialMT-30" x="166.845703"/>
      </g>
     </g>
    </g>
    <g id="ytick_6">
     <g id="text_14">
      <!-- 1750 -->
      <g style="fill: #444444" transform="translate(22.700625 84.225176)scale(0.09 -0.09)">
       <use xlink:href="#ArialMT-31"/>
       <use xlink:href="#ArialMT-37" x="55.615234"/>
       <use xlink:href="#ArialMT-35" x="111.230469"/>
       <use xlink:href="#ArialMT-30" x="166.845703"/>
      </g>
     </g>
    </g>
    <g id="ytick_7">
     <g id="text_15">
      <!-- 2000 -->
      <g style="fill: #444444" transform="translate(22.700625 61.60152)scale(0.09 -0.09)">
       <use xlink:href="#ArialMT-32"/>
       <use xlink:href="#ArialMT-30" x="55.615234"/>
       <use xlink:href="#ArialMT-30" x="111.230469"/>
       <use xlink:href="#ArialMT-30" x="166.845703"/>
      </g>
     </g>
    </g>
    <g id="ytick_8">
     <g id="text_16">
      <!-- 2250 -->
      <g style="fill: #444444" transform="translate(22.700625 38.977865)scale(0.09 -0.09)">
       <use xlink:href="#ArialMT-32"/>
       <use xlink:href="#ArialMT-32" x="55.615234"/>
       <use xlink:href="#ArialMT-35" x="111.230469"/>
       <use xlink:href="#ArialMT-30" x="166.845703"/>
      </g>
     </g>
    </g>
    <g id="text_17">
     <!-- Trimmed Means of M values (TMM) -->
     <g style="fill: #444444" transform="translate(16.806406 190.194993)rotate(-90)scale(0.09 -0.09)">
      <defs>
       <path id="ArialMT-54" d="M 1659 0 
L 1659 4041 
L 150 4041 
L 150 4581 
L 3781 4581 
L 3781 4041 
L 2266 4041 
L 2266 0 
L 1659 0 
z
" transform="scale(0.015625)"/>
       <path id="ArialMT-72" d="M 416 0 
L 416 3319 
L 922 3319 
L 922 2816 
Q 1116 3169 1280 3281 
Q 1444 3394 1641 3394 
Q 1925 3394 2219 3213 
L 2025 2691 
Q 1819 2813 1613 2813 
Q 1428 2813 1281 2702 
Q 1134 2591 1072 2394 
Q 978 2094 978 1738 
L 978 0 
L 416 0 
z
" transform="scale(0.015625)"/>
       <path id="ArialMT-6d" d="M 422 0 
L 422 3319 
L 925 3319 
L 925 2853 
Q 1081 3097 1340 3245 
Q 1600 3394 1931 3394 
Q 2300 3394 2536 3241 
Q 2772 3088 2869 2813 
Q 3263 3394 3894 3394 
Q 4388 3394 4653 3120 
Q 4919 2847 4919 2278 
L 4919 0 
L 4359 0 
L 4359 2091 
Q 4359 2428 4304 2576 
Q 4250 2725 4106 2815 
Q 3963 2906 3769 2906 
Q 3419 2906 3187 2673 
Q 2956 2441 2956 1928 
L 2956 0 
L 2394 0 
L 2394 2156 
Q 2394 2531 2256 2718 
Q 2119 2906 1806 2906 
Q 1569 2906 1367 2781 
Q 1166 2656 1075 2415 
Q 984 2175 984 1722 
L 984 0 
L 422 0 
z
" transform="scale(0.015625)"/>
       <path id="ArialMT-64" d="M 2575 0 
L 2575 419 
Q 2259 -75 1647 -75 
Q 1250 -75 917 144 
Q 584 363 401 755 
Q 219 1147 219 1656 
Q 219 2153 384 2558 
Q 550 2963 881 3178 
Q 1213 3394 1622 3394 
Q 1922 3394 2156 3267 
Q 2391 3141 2538 2938 
L 2538 4581 
L 3097 4581 
L 3097 0 
L 2575 0 
z
M 797 1656 
Q 797 1019 1065 703 
Q 1334 388 1700 388 
Q 2069 388 2326 689 
Q 2584 991 2584 1609 
Q 2584 2291 2321 2609 
Q 2059 2928 1675 2928 
Q 1300 2928 1048 2622 
Q 797 2316 797 1656 
z
" transform="scale(0.015625)"/>
       <path id="ArialMT-20" transform="scale(0.015625)"/>
       <path id="ArialMT-4d" d="M 475 0 
L 475 4581 
L 1388 4581 
L 2472 1338 
Q 2622 884 2691 659 
Q 2769 909 2934 1394 
L 4031 4581 
L 4847 4581 
L 4847 0 
L 4263 0 
L 4263 3834 
L 2931 0 
L 2384 0 
L 1059 3900 
L 1059 0 
L 475 0 
z
" transform="scale(0.015625)"/>
       <path id="ArialMT-73" d="M 197 991 
L 753 1078 
Q 800 744 1014 566 
Q 1228 388 1613 388 
Q 2000 388 2187 545 
Q 2375 703 2375 916 
Q 2375 1106 2209 1216 
Q 2094 1291 1634 1406 
Q 1016 1563 777 1677 
Q 538 1791 414 1992 
Q 291 2194 291 2438 
Q 291 2659 392 2848 
Q 494 3038 669 3163 
Q 800 3259 1026 3326 
Q 1253 3394 1513 3394 
Q 1903 3394 2198 3281 
Q 2494 3169 2634 2976 
Q 2775 2784 2828 2463 
L 2278 2388 
Q 2241 2644 2061 2787 
Q 1881 2931 1553 2931 
Q 1166 2931 1000 2803 
Q 834 2675 834 2503 
Q 834 2394 903 2306 
Q 972 2216 1119 2156 
Q 1203 2125 1616 2013 
Q 2213 1853 2448 1751 
Q 2684 1650 2818 1456 
Q 2953 1263 2953 975 
Q 2953 694 2789 445 
Q 2625 197 2315 61 
Q 2006 -75 1616 -75 
Q 969 -75 630 194 
Q 291 463 197 991 
z
" transform="scale(0.015625)"/>
       <path id="ArialMT-6f" d="M 213 1659 
Q 213 2581 725 3025 
Q 1153 3394 1769 3394 
Q 2453 3394 2887 2945 
Q 3322 2497 3322 1706 
Q 3322 1066 3130 698 
Q 2938 331 2570 128 
Q 2203 -75 1769 -75 
Q 1072 -75 642 372 
Q 213 819 213 1659 
z
M 791 1659 
Q 791 1022 1069 705 
Q 1347 388 1769 388 
Q 2188 388 2466 706 
Q 2744 1025 2744 1678 
Q 2744 2294 2464 2611 
Q 2184 2928 1769 2928 
Q 1347 2928 1069 2612 
Q 791 2297 791 1659 
z
" transform="scale(0.015625)"/>
       <path id="ArialMT-66" d="M 556 0 
L 556 2881 
L 59 2881 
L 59 3319 
L 556 3319 
L 556 3672 
Q 556 4006 616 4169 
Q 697 4388 901 4523 
Q 1106 4659 1475 4659 
Q 1713 4659 2000 4603 
L 1916 4113 
Q 1741 4144 1584 4144 
Q 1328 4144 1222 4034 
Q 1116 3925 1116 3625 
L 1116 3319 
L 1763 3319 
L 1763 2881 
L 1116 2881 
L 1116 0 
L 556 0 
z
" transform="scale(0.015625)"/>
       <path id="ArialMT-76" d="M 1344 0 
L 81 3319 
L 675 3319 
L 1388 1331 
Q 1503 1009 1600 663 
Q 1675 925 1809 1294 
L 2547 3319 
L 3125 3319 
L 1869 0 
L 1344 0 
z
" transform="scale(0.015625)"/>
       <path id="ArialMT-6c" d="M 409 0 
L 409 4581 
L 972 4581 
L 972 0 
L 409 0 
z
" transform="scale(0.015625)"/>
       <path id="ArialMT-75" d="M 2597 0 
L 2597 488 
Q 2209 -75 1544 -75 
Q 1250 -75 995 37 
Q 741 150 617 320 
Q 494 491 444 738 
Q 409 903 409 1263 
L 409 3319 
L 972 3319 
L 972 1478 
Q 972 1038 1006 884 
Q 1059 663 1231 536 
Q 1403 409 1656 409 
Q 1909 409 2131 539 
Q 2353 669 2445 892 
Q 2538 1116 2538 1541 
L 2538 3319 
L 3100 3319 
L 3100 0 
L 2597 0 
z
" transform="scale(0.015625)"/>
       <path id="ArialMT-28" d="M 1497 -1347 
Q 1031 -759 709 28 
Q 388 816 388 1659 
Q 388 2403 628 3084 
Q 909 3875 1497 4659 
L 1900 4659 
Q 1522 4009 1400 3731 
Q 1209 3300 1100 2831 
Q 966 2247 966 1656 
Q 966 153 1900 -1347 
L 1497 -1347 
z
" transform="scale(0.015625)"/>
       <path id="ArialMT-29" d="M 791 -1347 
L 388 -1347 
Q 1322 153 1322 1656 
Q 1322 2244 1188 2822 
Q 1081 3291 891 3722 
Q 769 4003 388 4659 
L 791 4659 
Q 1378 3875 1659 3084 
Q 1900 2403 1900 1659 
Q 1900 816 1576 28 
Q 1253 -759 791 -1347 
z
" transform="scale(0.015625)"/>
      </defs>
      <use xlink:href="#ArialMT-54"/>
      <use xlink:href="#ArialMT-72" x="57.333984"/>
      <use xlink:href="#ArialMT-69" x="90.634766"/>
      <use xlink:href="#ArialMT-6d" x="112.851562"/>
      <use xlink:href="#ArialMT-6d" x="196.152344"/>
      <use xlink:href="#ArialMT-65" x="279.453125"/>
      <use xlink:href="#ArialMT-64" x="335.068359"/>
      <use xlink:href="#ArialMT-20" x="390.683594"/>
      <use xlink:href="#ArialMT-4d" x="418.466797"/>
      <use xlink:href="#ArialMT-65" x="501.767578"/>
      <use xlink:href="#ArialMT-61" x="557.382812"/>
      <use xlink:href="#ArialMT-6e" x="612.998047"/>
      <use xlink:href="#ArialMT-73" x="668.613281"/>
      <use xlink:href="#ArialMT-20" x="718.613281"/>
      <use xlink:href="#ArialMT-6f" x="746.396484"/>
      <use xlink:href="#ArialMT-66" x="802.011719"/>
      <use xlink:href="#ArialMT-20" x="829.794922"/>
      <use xlink:href="#ArialMT-4d" x="857.578125"/>
      <use xlink:href="#ArialMT-20" x="940.878906"/>
      <use xlink:href="#ArialMT-76" x="968.662109"/>
      <use xlink:href="#ArialMT-61" x="1018.662109"/>
      <use xlink:href="#ArialMT-6c" x="1074.277344"/>
      <use xlink:href="#ArialMT-75" x="1096.494141"/>
      <use xlink:href="#ArialMT-65" x="1152.109375"/>
      <use xlink:href="#ArialMT-73" x="1207.724609"/>
      <use xlink:href="#ArialMT-20" x="1257.724609"/>
      <use xlink:href="#ArialMT-28" x="1285.507812"/>
      <use xlink:href="#ArialMT-54" x="1318.808594"/>
      <use xlink:href="#ArialMT-4d" x="1379.892578"/>
      <use xlink:href="#ArialMT-4d" x="1463.193359"/>
      <use xlink:href="#ArialMT-29" x="1546.494141"/>
     </g>
    </g>
   </g>
   <g id="PolyCollection_1">
    <defs>
     <path id="m673b19c7f8" d="M 93.687576 -66.766494 
L 74.794741 -66.766494 
L 74.556868 -66.921485 
L 74.325175 -67.076477 
L 74.100347 -67.231468 
L 73.883052 -67.38646 
L 73.673944 -67.541451 
L 73.473655 -67.696443 
L 73.282794 -67.851434 
L 73.101941 -68.006426 
L 72.931646 -68.161417 
L 72.772425 -68.316409 
L 72.624756 -68.471401 
L 72.489079 -68.626392 
L 72.365789 -68.781384 
L 72.255239 -68.936375 
L 72.157734 -69.091367 
L 72.073529 -69.246358 
L 72.002832 -69.40135 
L 71.945795 -69.556341 
L 71.902522 -69.711333 
L 71.87306 -69.866324 
L 71.857405 -70.021316 
L 71.855499 -70.176307 
L 71.86723 -70.331299 
L 71.892434 -70.486291 
L 71.930894 -70.641282 
L 71.982344 -70.796274 
L 72.046466 -70.951265 
L 72.122896 -71.106257 
L 72.211225 -71.261248 
L 72.311 -71.41624 
L 72.421725 -71.571231 
L 72.542867 -71.726223 
L 72.673857 -71.881214 
L 72.814093 -72.036206 
L 72.962944 -72.191197 
L 73.119751 -72.346189 
L 73.283833 -72.50118 
L 73.454489 -72.656172 
L 73.631001 -72.811164 
L 73.812639 -72.966155 
L 73.998663 -73.121147 
L 74.18833 -73.276138 
L 74.380891 -73.43113 
L 74.575603 -73.586121 
L 74.771725 -73.741113 
L 74.968527 -73.896104 
L 75.165289 -74.051096 
L 75.361309 -74.206087 
L 75.555901 -74.361079 
L 75.748404 -74.51607 
L 75.93818 -74.671062 
L 76.124621 -74.826054 
L 76.307147 -74.981045 
L 76.485213 -75.136037 
L 76.658311 -75.291028 
L 76.825969 -75.44602 
L 76.987756 -75.601011 
L 77.143283 -75.756003 
L 77.292205 -75.910994 
L 77.434223 -76.065986 
L 77.569081 -76.220977 
L 77.696575 -76.375969 
L 77.816544 -76.53096 
L 77.92888 -76.685952 
L 78.033521 -76.840943 
L 78.130453 -76.995935 
L 78.219711 -77.150927 
L 78.301378 -77.305918 
L 78.375583 -77.46091 
L 78.442499 -77.615901 
L 78.502344 -77.770893 
L 78.555378 -77.925884 
L 78.601899 -78.080876 
L 78.642246 -78.235867 
L 78.67679 -78.390859 
L 78.705934 -78.54585 
L 78.730113 -78.700842 
L 78.749784 -78.855833 
L 78.765432 -79.010825 
L 78.777555 -79.165817 
L 78.78667 -79.320808 
L 78.793306 -79.4758 
L 78.797998 -79.630791 
L 78.801285 -79.785783 
L 78.803708 -79.940774 
L 78.805802 -80.095766 
L 78.808096 -80.250757 
L 78.811105 -80.405749 
L 78.815332 -80.56074 
L 78.82126 -80.715732 
L 78.82935 -80.870723 
L 78.840038 -81.025715 
L 78.853734 -81.180707 
L 78.870813 -81.335698 
L 78.891623 -81.49069 
L 78.916473 -81.645681 
L 78.945636 -81.800673 
L 78.979348 -81.955664 
L 79.017805 -82.110656 
L 89.464513 -82.110656 
L 89.464513 -82.110656 
L 89.50297 -81.955664 
L 89.536682 -81.800673 
L 89.565845 -81.645681 
L 89.590694 -81.49069 
L 89.611504 -81.335698 
L 89.628584 -81.180707 
L 89.642279 -81.025715 
L 89.652967 -80.870723 
L 89.661057 -80.715732 
L 89.666985 -80.56074 
L 89.671212 -80.405749 
L 89.674222 -80.250757 
L 89.676515 -80.095766 
L 89.678609 -79.940774 
L 89.681032 -79.785783 
L 89.68432 -79.630791 
L 89.689011 -79.4758 
L 89.695647 -79.320808 
L 89.704763 -79.165817 
L 89.716886 -79.010825 
L 89.732533 -78.855833 
L 89.752205 -78.700842 
L 89.776383 -78.54585 
L 89.805528 -78.390859 
L 89.840071 -78.235867 
L 89.880418 -78.080876 
L 89.92694 -77.925884 
L 89.979973 -77.770893 
L 90.039819 -77.615901 
L 90.106735 -77.46091 
L 90.180939 -77.305918 
L 90.262606 -77.150927 
L 90.351865 -76.995935 
L 90.448797 -76.840943 
L 90.553437 -76.685952 
L 90.665773 -76.53096 
L 90.785743 -76.375969 
L 90.913236 -76.220977 
L 91.048095 -76.065986 
L 91.190112 -75.910994 
L 91.339034 -75.756003 
L 91.494562 -75.601011 
L 91.656349 -75.44602 
L 91.824006 -75.291028 
L 91.997104 -75.136037 
L 92.175171 -74.981045 
L 92.357697 -74.826054 
L 92.544137 -74.671062 
L 92.733913 -74.51607 
L 92.926416 -74.361079 
L 93.121009 -74.206087 
L 93.317028 -74.051096 
L 93.51379 -73.896104 
L 93.710592 -73.741113 
L 93.906714 -73.586121 
L 94.101426 -73.43113 
L 94.293987 -73.276138 
L 94.483654 -73.121147 
L 94.669679 -72.966155 
L 94.851316 -72.811164 
L 95.027828 -72.656172 
L 95.198484 -72.50118 
L 95.362566 -72.346189 
L 95.519373 -72.191197 
L 95.668224 -72.036206 
L 95.80846 -71.881214 
L 95.939451 -71.726223 
L 96.060593 -71.571231 
L 96.171317 -71.41624 
L 96.271092 -71.261248 
L 96.359421 -71.106257 
L 96.435852 -70.951265 
L 96.499974 -70.796274 
L 96.551423 -70.641282 
L 96.589883 -70.486291 
L 96.615087 -70.331299 
L 96.626818 -70.176307 
L 96.624912 -70.021316 
L 96.609257 -69.866324 
L 96.579796 -69.711333 
L 96.536522 -69.556341 
L 96.479485 -69.40135 
L 96.408788 -69.246358 
L 96.324583 -69.091367 
L 96.227078 -68.936375 
L 96.116528 -68.781384 
L 95.993239 -68.626392 
L 95.857561 -68.471401 
L 95.709892 -68.316409 
L 95.550671 -68.161417 
L 95.380376 -68.006426 
L 95.199523 -67.851434 
L 95.008662 -67.696443 
L 94.808373 -67.541451 
L 94.599265 -67.38646 
L 94.381971 -67.231468 
L 94.157142 -67.076477 
L 93.925449 -66.921485 
L 93.687576 -66.766494 
z
" style="stroke: #999999; stroke-width: 2"/>
    </defs>
    <g clip-path="url(#pe9559ca83b)">
     <use xlink:href="#m673b19c7f8" x="0" y="255.11811" style="fill: #ffffff; stroke: #999999; stroke-width: 2"/>
    </g>
   </g>
   <g id="PolyCollection_2">
    <defs>
     <path id="m65357548b8" d="M 151.195163 -136.937245 
L 145.371788 -136.937245 
L 145.262829 -137.240086 
L 145.152169 -137.542926 
L 145.039823 -137.845767 
L 144.925812 -138.148608 
L 144.810168 -138.451448 
L 144.692935 -138.754289 
L 144.574168 -139.05713 
L 144.453942 -139.359971 
L 144.332344 -139.662811 
L 144.209486 -139.965652 
L 144.085495 -140.268493 
L 143.960524 -140.571333 
L 143.834746 -140.874174 
L 143.708357 -141.177015 
L 143.581575 -141.479856 
L 143.454642 -141.782696 
L 143.327819 -142.085537 
L 143.20139 -142.388378 
L 143.075656 -142.691219 
L 142.950935 -142.994059 
L 142.827559 -143.2969 
L 142.705873 -143.599741 
L 142.58623 -143.902581 
L 142.468992 -144.205422 
L 142.35452 -144.508263 
L 142.243179 -144.811104 
L 142.135328 -145.113944 
L 142.031321 -145.416785 
L 141.931502 -145.719626 
L 141.836204 -146.022466 
L 141.745743 -146.325307 
L 141.660419 -146.628148 
L 141.580512 -146.930989 
L 141.50628 -147.233829 
L 141.437957 -147.53667 
L 141.375756 -147.839511 
L 141.31986 -148.142352 
L 141.270429 -148.445192 
L 141.227596 -148.748033 
L 141.191468 -149.050874 
L 141.162124 -149.353714 
L 141.13962 -149.656555 
L 141.123986 -149.959396 
L 141.115227 -150.262237 
L 141.113326 -150.565077 
L 141.118244 -150.867918 
L 141.129921 -151.170759 
L 141.148276 -151.473599 
L 141.17321 -151.77644 
L 141.204605 -152.079281 
L 141.242328 -152.382122 
L 141.286228 -152.684962 
L 141.336139 -152.987803 
L 141.391882 -153.290644 
L 141.453261 -153.593484 
L 141.520069 -153.896325 
L 141.592085 -154.199166 
L 141.669075 -154.502007 
L 141.750792 -154.804847 
L 141.83698 -155.107688 
L 141.92737 -155.410529 
L 142.021682 -155.71337 
L 142.119627 -156.01621 
L 142.220906 -156.319051 
L 142.325213 -156.621892 
L 142.432237 -156.924732 
L 142.541657 -157.227573 
L 142.653153 -157.530414 
L 142.7664 -157.833255 
L 142.881075 -158.136095 
L 142.996855 -158.438936 
L 143.113423 -158.741777 
L 143.230467 -159.044617 
L 143.347687 -159.347458 
L 143.46479 -159.650299 
L 143.581501 -159.95314 
L 143.697558 -160.25598 
L 143.812717 -160.558821 
L 143.926757 -160.861662 
L 144.039476 -161.164503 
L 144.150697 -161.467343 
L 144.260265 -161.770184 
L 144.368052 -162.073025 
L 144.473956 -162.375865 
L 144.5779 -162.678706 
L 144.67983 -162.981547 
L 144.77972 -163.284388 
L 144.877567 -163.587228 
L 144.973386 -163.890069 
L 145.067217 -164.19291 
L 145.159116 -164.49575 
L 145.249153 -164.798591 
L 145.337414 -165.101432 
L 145.423993 -165.404273 
L 145.508992 -165.707113 
L 145.592519 -166.009954 
L 145.674682 -166.312795 
L 145.755589 -166.615636 
L 145.835343 -166.918476 
L 150.731608 -166.918476 
L 150.731608 -166.918476 
L 150.811363 -166.615636 
L 150.89227 -166.312795 
L 150.974433 -166.009954 
L 151.057959 -165.707113 
L 151.142959 -165.404273 
L 151.229538 -165.101432 
L 151.317798 -164.798591 
L 151.407836 -164.49575 
L 151.499734 -164.19291 
L 151.593565 -163.890069 
L 151.689385 -163.587228 
L 151.787231 -163.284388 
L 151.887122 -162.981547 
L 151.989052 -162.678706 
L 152.092995 -162.375865 
L 152.198899 -162.073025 
L 152.306687 -161.770184 
L 152.416255 -161.467343 
L 152.527475 -161.164503 
L 152.640194 -160.861662 
L 152.754234 -160.558821 
L 152.869394 -160.25598 
L 152.985451 -159.95314 
L 153.102161 -159.650299 
L 153.219265 -159.347458 
L 153.336484 -159.044617 
L 153.453529 -158.741777 
L 153.570097 -158.438936 
L 153.685877 -158.136095 
L 153.800552 -157.833255 
L 153.913799 -157.530414 
L 154.025295 -157.227573 
L 154.134715 -156.924732 
L 154.241738 -156.621892 
L 154.346046 -156.319051 
L 154.447325 -156.01621 
L 154.54527 -155.71337 
L 154.639581 -155.410529 
L 154.729971 -155.107688 
L 154.816159 -154.804847 
L 154.897877 -154.502007 
L 154.974867 -154.199166 
L 155.046883 -153.896325 
L 155.113691 -153.593484 
L 155.17507 -153.290644 
L 155.230813 -152.987803 
L 155.280724 -152.684962 
L 155.324624 -152.382122 
L 155.362347 -152.079281 
L 155.393742 -151.77644 
L 155.418676 -151.473599 
L 155.43703 -151.170759 
L 155.448707 -150.867918 
L 155.453625 -150.565077 
L 155.451725 -150.262237 
L 155.442966 -149.959396 
L 155.427332 -149.656555 
L 155.404828 -149.353714 
L 155.375484 -149.050874 
L 155.339355 -148.748033 
L 155.296522 -148.445192 
L 155.247092 -148.142352 
L 155.191196 -147.839511 
L 155.128994 -147.53667 
L 155.060672 -147.233829 
L 154.98644 -146.930989 
L 154.906533 -146.628148 
L 154.821209 -146.325307 
L 154.730748 -146.022466 
L 154.635449 -145.719626 
L 154.535631 -145.416785 
L 154.431624 -145.113944 
L 154.323773 -144.811104 
L 154.212431 -144.508263 
L 154.09796 -144.205422 
L 153.980721 -143.902581 
L 153.861079 -143.599741 
L 153.739393 -143.2969 
L 153.616017 -142.994059 
L 153.491295 -142.691219 
L 153.365561 -142.388378 
L 153.239132 -142.085537 
L 153.11231 -141.782696 
L 152.985376 -141.479856 
L 152.858595 -141.177015 
L 152.732205 -140.874174 
L 152.606427 -140.571333 
L 152.481456 -140.268493 
L 152.357466 -139.965652 
L 152.234607 -139.662811 
L 152.11301 -139.359971 
L 151.992783 -139.05713 
L 151.874017 -138.754289 
L 151.756783 -138.451448 
L 151.64114 -138.148608 
L 151.527129 -137.845767 
L 151.414783 -137.542926 
L 151.304122 -137.240086 
L 151.195163 -136.937245 
z
" style="stroke: #999999; stroke-width: 2"/>
    </defs>
    <g clip-path="url(#pe9559ca83b)">
     <use xlink:href="#m65357548b8" x="0" y="255.11811" style="fill: #ffffff; stroke: #999999; stroke-width: 2"/>
    </g>
   </g>
   <g id="PolyCollection_3">
    <defs>
     <path id="m498c32053d" d="M 213.859525 -49.837187 
L 210.792061 -49.837187 
L 210.773095 -50.174369 
L 210.75535 -50.511551 
L 210.738637 -50.848733 
L 210.722743 -51.185915 
L 210.707429 -51.523097 
L 210.692432 -51.860279 
L 210.677471 -52.197461 
L 210.662246 -52.534644 
L 210.646443 -52.871826 
L 210.629737 -53.209008 
L 210.611793 -53.54619 
L 210.592275 -53.883372 
L 210.570846 -54.220554 
L 210.547171 -54.557736 
L 210.520923 -54.894918 
L 210.491786 -55.2321 
L 210.45946 -55.569282 
L 210.423659 -55.906464 
L 210.384122 -56.243646 
L 210.34061 -56.580829 
L 210.292912 -56.918011 
L 210.240842 -57.255193 
L 210.184249 -57.592375 
L 210.12301 -57.929557 
L 210.057039 -58.266739 
L 209.986279 -58.603921 
L 209.91071 -58.941103 
L 209.830343 -59.278285 
L 209.745224 -59.615467 
L 209.655429 -59.952649 
L 209.561064 -60.289831 
L 209.462266 -60.627014 
L 209.359198 -60.964196 
L 209.252047 -61.301378 
L 209.141025 -61.63856 
L 209.026363 -61.975742 
L 208.908311 -62.312924 
L 208.787135 -62.650106 
L 208.663117 -62.987288 
L 208.536547 -63.32447 
L 208.40773 -63.661652 
L 208.276977 -63.998834 
L 208.144606 -64.336017 
L 208.010941 -64.673199 
L 207.876313 -65.010381 
L 207.741054 -65.347563 
L 207.605503 -65.684745 
L 207.47 -66.021927 
L 207.33489 -66.359109 
L 207.200521 -66.696291 
L 207.067245 -67.033473 
L 206.935418 -67.370655 
L 206.805401 -67.707837 
L 206.677558 -68.045019 
L 206.552262 -68.382202 
L 206.429886 -68.719384 
L 206.310813 -69.056566 
L 206.195428 -69.393748 
L 206.084123 -69.73093 
L 205.97729 -70.068112 
L 205.875329 -70.405294 
L 205.778637 -70.742476 
L 205.687611 -71.079658 
L 205.602649 -71.41684 
L 205.524139 -71.754022 
L 205.452467 -72.091204 
L 205.388004 -72.428387 
L 205.331109 -72.765569 
L 205.282126 -73.102751 
L 205.241375 -73.439933 
L 205.209156 -73.777115 
L 205.185738 -74.114297 
L 205.171362 -74.451479 
L 205.166234 -74.788661 
L 205.170523 -75.125843 
L 205.184358 -75.463025 
L 205.207825 -75.800207 
L 205.240968 -76.13739 
L 205.283782 -76.474572 
L 205.336216 -76.811754 
L 205.398171 -77.148936 
L 205.469501 -77.486118 
L 205.550011 -77.8233 
L 205.639458 -78.160482 
L 205.737556 -78.497664 
L 205.843973 -78.834846 
L 205.958337 -79.172028 
L 206.080238 -79.50921 
L 206.209228 -79.846392 
L 206.34483 -80.183575 
L 206.486537 -80.520757 
L 206.633819 -80.857939 
L 206.786124 -81.195121 
L 206.942886 -81.532303 
L 207.103529 -81.869485 
L 207.267466 -82.206667 
L 207.434111 -82.543849 
L 207.602879 -82.881031 
L 207.773187 -83.218213 
L 216.878399 -83.218213 
L 216.878399 -83.218213 
L 217.048707 -82.881031 
L 217.217475 -82.543849 
L 217.38412 -82.206667 
L 217.548057 -81.869485 
L 217.7087 -81.532303 
L 217.865462 -81.195121 
L 218.017767 -80.857939 
L 218.165049 -80.520757 
L 218.306756 -80.183575 
L 218.442358 -79.846392 
L 218.571348 -79.50921 
L 218.693249 -79.172028 
L 218.807613 -78.834846 
L 218.91403 -78.497664 
L 219.012128 -78.160482 
L 219.101575 -77.8233 
L 219.182085 -77.486118 
L 219.253415 -77.148936 
L 219.31537 -76.811754 
L 219.367804 -76.474572 
L 219.410618 -76.13739 
L 219.443761 -75.800207 
L 219.467228 -75.463025 
L 219.481063 -75.125843 
L 219.485352 -74.788661 
L 219.480224 -74.451479 
L 219.465848 -74.114297 
L 219.44243 -73.777115 
L 219.410211 -73.439933 
L 219.36946 -73.102751 
L 219.320477 -72.765569 
L 219.263582 -72.428387 
L 219.199119 -72.091204 
L 219.127447 -71.754022 
L 219.048937 -71.41684 
L 218.963975 -71.079658 
L 218.87295 -70.742476 
L 218.776257 -70.405294 
L 218.674296 -70.068112 
L 218.567463 -69.73093 
L 218.456158 -69.393748 
L 218.340773 -69.056566 
L 218.2217 -68.719384 
L 218.099325 -68.382202 
L 217.974028 -68.045019 
L 217.846185 -67.707837 
L 217.716168 -67.370655 
L 217.584341 -67.033473 
L 217.451065 -66.696291 
L 217.316696 -66.359109 
L 217.181586 -66.021927 
L 217.046083 -65.684745 
L 216.910532 -65.347563 
L 216.775273 -65.010381 
L 216.640645 -64.673199 
L 216.50698 -64.336017 
L 216.374609 -63.998834 
L 216.243856 -63.661652 
L 216.115039 -63.32447 
L 215.988469 -62.987288 
L 215.864451 -62.650106 
L 215.743275 -62.312924 
L 215.625223 -61.975742 
L 215.510561 -61.63856 
L 215.399539 -61.301378 
L 215.292388 -60.964196 
L 215.18932 -60.627014 
L 215.090522 -60.289831 
L 214.996157 -59.952649 
L 214.906362 -59.615467 
L 214.821243 -59.278285 
L 214.740876 -58.941103 
L 214.665307 -58.603921 
L 214.594547 -58.266739 
L 214.528576 -57.929557 
L 214.467337 -57.592375 
L 214.410744 -57.255193 
L 214.358674 -56.918011 
L 214.310976 -56.580829 
L 214.267464 -56.243646 
L 214.227927 -55.906464 
L 214.192126 -55.569282 
L 214.1598 -55.2321 
L 214.130663 -54.894918 
L 214.104415 -54.557736 
L 214.08074 -54.220554 
L 214.059311 -53.883372 
L 214.039793 -53.54619 
L 214.021849 -53.209008 
L 214.005143 -52.871826 
L 213.98934 -52.534644 
L 213.974115 -52.197461 
L 213.959154 -51.860279 
L 213.944157 -51.523097 
L 213.928843 -51.185915 
L 213.912949 -50.848733 
L 213.896236 -50.511551 
L 213.878491 -50.174369 
L 213.859525 -49.837187 
z
" style="stroke: #999999; stroke-width: 2"/>
    </defs>
    <g clip-path="url(#pe9559ca83b)">
     <use xlink:href="#m498c32053d" x="0" y="255.11811" style="fill: #ffffff; stroke: #999999; stroke-width: 2"/>
    </g>
   </g>
   <g id="PolyCollection_4">
    <defs>
     <path id="m59a22b4508" d="M 284.227433 -61.84328 
L 268.508788 -61.84328 
L 268.317336 -61.969336 
L 268.128832 -62.095393 
L 267.942971 -62.221449 
L 267.759379 -62.347505 
L 267.577626 -62.473561 
L 267.397228 -62.599617 
L 267.217659 -62.725674 
L 267.038361 -62.85173 
L 266.858755 -62.977786 
L 266.678255 -63.103842 
L 266.496277 -63.229898 
L 266.312253 -63.355955 
L 266.125646 -63.482011 
L 265.93596 -63.608067 
L 265.742754 -63.734123 
L 265.545653 -63.86018 
L 265.344361 -63.986236 
L 265.138668 -64.112292 
L 264.928462 -64.238348 
L 264.713735 -64.364404 
L 264.494589 -64.490461 
L 264.27124 -64.616517 
L 264.044025 -64.742573 
L 263.813394 -64.868629 
L 263.57992 -64.994685 
L 263.344288 -65.120742 
L 263.107293 -65.246798 
L 262.869835 -65.372854 
L 262.632909 -65.49891 
L 262.397596 -65.624966 
L 262.165052 -65.751023 
L 261.936495 -65.877079 
L 261.713192 -66.003135 
L 261.496444 -66.129191 
L 261.287569 -66.255248 
L 261.087891 -66.381304 
L 260.898718 -66.50736 
L 260.721331 -66.633416 
L 260.556963 -66.759472 
L 260.406789 -66.885529 
L 260.271907 -67.011585 
L 260.153327 -67.137641 
L 260.051958 -67.263697 
L 259.968592 -67.389753 
L 259.9039 -67.51581 
L 259.858423 -67.641866 
L 259.832561 -67.767922 
L 259.826571 -67.893978 
L 259.840565 -68.020034 
L 259.874508 -68.146091 
L 259.928218 -68.272147 
L 260.001372 -68.398203 
L 260.093504 -68.524259 
L 260.204021 -68.650316 
L 260.332202 -68.776372 
L 260.477216 -68.902428 
L 260.638124 -69.028484 
L 260.813901 -69.15454 
L 261.00344 -69.280597 
L 261.205573 -69.406653 
L 261.419084 -69.532709 
L 261.642719 -69.658765 
L 261.87521 -69.784821 
L 262.115283 -69.910878 
L 262.361673 -70.036934 
L 262.613144 -70.16299 
L 262.868494 -70.289046 
L 263.126576 -70.415102 
L 263.386303 -70.541159 
L 263.64666 -70.667215 
L 263.906715 -70.793271 
L 264.165622 -70.919327 
L 264.422632 -71.045384 
L 264.677092 -71.17144 
L 264.92845 -71.297496 
L 265.176257 -71.423552 
L 265.420165 -71.549608 
L 265.659925 -71.675665 
L 265.895382 -71.801721 
L 266.126473 -71.927777 
L 266.35322 -72.053833 
L 266.57572 -72.179889 
L 266.794143 -72.305946 
L 267.008717 -72.432002 
L 267.21972 -72.558058 
L 267.427476 -72.684114 
L 267.632336 -72.81017 
L 267.834676 -72.936227 
L 268.03488 -73.062283 
L 268.233339 -73.188339 
L 268.430432 -73.314395 
L 268.626527 -73.440452 
L 268.821965 -73.566508 
L 269.017059 -73.692564 
L 269.212084 -73.81862 
L 269.407275 -73.944676 
L 269.60282 -74.070733 
L 269.798857 -74.196789 
L 269.995474 -74.322845 
L 282.740747 -74.322845 
L 282.740747 -74.322845 
L 282.937364 -74.196789 
L 283.133401 -74.070733 
L 283.328945 -73.944676 
L 283.524136 -73.81862 
L 283.719162 -73.692564 
L 283.914256 -73.566508 
L 284.109694 -73.440452 
L 284.305788 -73.314395 
L 284.502882 -73.188339 
L 284.70134 -73.062283 
L 284.901545 -72.936227 
L 285.103884 -72.81017 
L 285.308744 -72.684114 
L 285.5165 -72.558058 
L 285.727504 -72.432002 
L 285.942077 -72.305946 
L 286.1605 -72.179889 
L 286.383001 -72.053833 
L 286.609748 -71.927777 
L 286.840839 -71.801721 
L 287.076296 -71.675665 
L 287.316055 -71.549608 
L 287.559963 -71.423552 
L 287.807771 -71.297496 
L 288.059129 -71.17144 
L 288.313588 -71.045384 
L 288.570598 -70.919327 
L 288.829506 -70.793271 
L 289.08956 -70.667215 
L 289.349918 -70.541159 
L 289.609644 -70.415102 
L 289.867726 -70.289046 
L 290.123077 -70.16299 
L 290.374547 -70.036934 
L 290.620938 -69.910878 
L 290.86101 -69.784821 
L 291.093501 -69.658765 
L 291.317137 -69.532709 
L 291.530647 -69.406653 
L 291.732781 -69.280597 
L 291.92232 -69.15454 
L 292.098096 -69.028484 
L 292.259005 -68.902428 
L 292.404018 -68.776372 
L 292.5322 -68.650316 
L 292.642716 -68.524259 
L 292.734849 -68.398203 
L 292.808002 -68.272147 
L 292.861712 -68.146091 
L 292.895656 -68.020034 
L 292.90965 -67.893978 
L 292.90366 -67.767922 
L 292.877797 -67.641866 
L 292.83232 -67.51581 
L 292.767629 -67.389753 
L 292.684263 -67.263697 
L 292.582893 -67.137641 
L 292.464314 -67.011585 
L 292.329432 -66.885529 
L 292.179258 -66.759472 
L 292.01489 -66.633416 
L 291.837502 -66.50736 
L 291.648329 -66.381304 
L 291.448651 -66.255248 
L 291.239777 -66.129191 
L 291.023028 -66.003135 
L 290.799725 -65.877079 
L 290.571169 -65.751023 
L 290.338625 -65.624966 
L 290.103312 -65.49891 
L 289.866386 -65.372854 
L 289.628928 -65.246798 
L 289.391933 -65.120742 
L 289.1563 -64.994685 
L 288.922826 -64.868629 
L 288.692196 -64.742573 
L 288.46498 -64.616517 
L 288.241632 -64.490461 
L 288.022485 -64.364404 
L 287.807758 -64.238348 
L 287.597552 -64.112292 
L 287.39186 -63.986236 
L 287.190567 -63.86018 
L 286.993467 -63.734123 
L 286.800261 -63.608067 
L 286.610574 -63.482011 
L 286.423967 -63.355955 
L 286.239943 -63.229898 
L 286.057965 -63.103842 
L 285.877465 -62.977786 
L 285.69786 -62.85173 
L 285.518562 -62.725674 
L 285.338992 -62.599617 
L 285.158594 -62.473561 
L 284.976841 -62.347505 
L 284.79325 -62.221449 
L 284.607388 -62.095393 
L 284.418885 -61.969336 
L 284.227433 -61.84328 
z
" style="stroke: #999999; stroke-width: 2"/>
    </defs>
    <g clip-path="url(#pe9559ca83b)">
     <use xlink:href="#m59a22b4508" x="0" y="255.11811" style="fill: #ffffff; stroke: #999999; stroke-width: 2"/>
    </g>
   </g>
   <g id="PolyCollection_5">
    <defs>
     <path id="m7f4fc4db82" d="M 345.967476 -96.36036 
L 334.853379 -96.36036 
L 334.803876 -96.624192 
L 334.75887 -96.888025 
L 334.718411 -97.151858 
L 334.682532 -97.41569 
L 334.651248 -97.679523 
L 334.62456 -97.943356 
L 334.602454 -98.207189 
L 334.584897 -98.471021 
L 334.571845 -98.734854 
L 334.563234 -98.998687 
L 334.558989 -99.26252 
L 334.559019 -99.526352 
L 334.563221 -99.790185 
L 334.571476 -100.054018 
L 334.583656 -100.31785 
L 334.59962 -100.581683 
L 334.619215 -100.845516 
L 334.642282 -101.109349 
L 334.668649 -101.373181 
L 334.698137 -101.637014 
L 334.730563 -101.900847 
L 334.765734 -102.164679 
L 334.803454 -102.428512 
L 334.843522 -102.692345 
L 334.885737 -102.956178 
L 334.929891 -103.22001 
L 334.97578 -103.483843 
L 335.023197 -103.747676 
L 335.071938 -104.011509 
L 335.121799 -104.275341 
L 335.17258 -104.539174 
L 335.224086 -104.803007 
L 335.276125 -105.066839 
L 335.32851 -105.330672 
L 335.381062 -105.594505 
L 335.433608 -105.858338 
L 335.485984 -106.12217 
L 335.538031 -106.386003 
L 335.589601 -106.649836 
L 335.640557 -106.913668 
L 335.690768 -107.177501 
L 335.740115 -107.441334 
L 335.78849 -107.705167 
L 335.835794 -107.968999 
L 335.88194 -108.232832 
L 335.926852 -108.496665 
L 335.970465 -108.760498 
L 336.012725 -109.02433 
L 336.053588 -109.288163 
L 336.093024 -109.551996 
L 336.13101 -109.815828 
L 336.167538 -110.079661 
L 336.202606 -110.343494 
L 336.236225 -110.607327 
L 336.268416 -110.871159 
L 336.299209 -111.134992 
L 336.328641 -111.398825 
L 336.356762 -111.662657 
L 336.383627 -111.92649 
L 336.409299 -112.190323 
L 336.43385 -112.454156 
L 336.457356 -112.717988 
L 336.479901 -112.981821 
L 336.501575 -113.245654 
L 336.522471 -113.509487 
L 336.542688 -113.773319 
L 336.562327 -114.037152 
L 336.581493 -114.300985 
L 336.600294 -114.564817 
L 336.618837 -114.82865 
L 336.637234 -115.092483 
L 336.655595 -115.356316 
L 336.67403 -115.620148 
L 336.692648 -115.883981 
L 336.711557 -116.147814 
L 336.730864 -116.411646 
L 336.750673 -116.675479 
L 336.771083 -116.939312 
L 336.792191 -117.203145 
L 336.814091 -117.466977 
L 336.836871 -117.73081 
L 336.860613 -117.994643 
L 336.885396 -118.258476 
L 336.911291 -118.522308 
L 336.938365 -118.786141 
L 336.966677 -119.049974 
L 336.996279 -119.313806 
L 337.027219 -119.577639 
L 337.059534 -119.841472 
L 337.093257 -120.105305 
L 337.128411 -120.369137 
L 337.165015 -120.63297 
L 337.203077 -120.896803 
L 337.242599 -121.160635 
L 337.283577 -121.424468 
L 337.325999 -121.688301 
L 337.369845 -121.952134 
L 337.415089 -122.215966 
L 337.461697 -122.479799 
L 343.359158 -122.479799 
L 343.359158 -122.479799 
L 343.405766 -122.215966 
L 343.45101 -121.952134 
L 343.494856 -121.688301 
L 343.537277 -121.424468 
L 343.578256 -121.160635 
L 343.617778 -120.896803 
L 343.65584 -120.63297 
L 343.692443 -120.369137 
L 343.727598 -120.105305 
L 343.761321 -119.841472 
L 343.793636 -119.577639 
L 343.824575 -119.313806 
L 343.854178 -119.049974 
L 343.88249 -118.786141 
L 343.909564 -118.522308 
L 343.935459 -118.258476 
L 343.960242 -117.994643 
L 343.983984 -117.73081 
L 344.006764 -117.466977 
L 344.028663 -117.203145 
L 344.049772 -116.939312 
L 344.070182 -116.675479 
L 344.089991 -116.411646 
L 344.109298 -116.147814 
L 344.128207 -115.883981 
L 344.146825 -115.620148 
L 344.16526 -115.356316 
L 344.183621 -115.092483 
L 344.202018 -114.82865 
L 344.220561 -114.564817 
L 344.239362 -114.300985 
L 344.258528 -114.037152 
L 344.278167 -113.773319 
L 344.298383 -113.509487 
L 344.31928 -113.245654 
L 344.340954 -112.981821 
L 344.363499 -112.717988 
L 344.387005 -112.454156 
L 344.411556 -112.190323 
L 344.437228 -111.92649 
L 344.464093 -111.662657 
L 344.492214 -111.398825 
L 344.521646 -111.134992 
L 344.552439 -110.871159 
L 344.58463 -110.607327 
L 344.618249 -110.343494 
L 344.653317 -110.079661 
L 344.689845 -109.815828 
L 344.727831 -109.551996 
L 344.767267 -109.288163 
L 344.80813 -109.02433 
L 344.85039 -108.760498 
L 344.894003 -108.496665 
L 344.938915 -108.232832 
L 344.985061 -107.968999 
L 345.032365 -107.705167 
L 345.08074 -107.441334 
L 345.130087 -107.177501 
L 345.180298 -106.913668 
L 345.231253 -106.649836 
L 345.282824 -106.386003 
L 345.334871 -106.12217 
L 345.387247 -105.858338 
L 345.439793 -105.594505 
L 345.492345 -105.330672 
L 345.54473 -105.066839 
L 345.596769 -104.803007 
L 345.648275 -104.539174 
L 345.699056 -104.275341 
L 345.748917 -104.011509 
L 345.797658 -103.747676 
L 345.845075 -103.483843 
L 345.890964 -103.22001 
L 345.935118 -102.956178 
L 345.977333 -102.692345 
L 346.017401 -102.428512 
L 346.055121 -102.164679 
L 346.090292 -101.900847 
L 346.122718 -101.637014 
L 346.152206 -101.373181 
L 346.178573 -101.109349 
L 346.201639 -100.845516 
L 346.221235 -100.581683 
L 346.237199 -100.31785 
L 346.249379 -100.054018 
L 346.257634 -99.790185 
L 346.261836 -99.526352 
L 346.261866 -99.26252 
L 346.257621 -98.998687 
L 346.24901 -98.734854 
L 346.235958 -98.471021 
L 346.218401 -98.207189 
L 346.196295 -97.943356 
L 346.169607 -97.679523 
L 346.138323 -97.41569 
L 346.102444 -97.151858 
L 346.061985 -96.888025 
L 346.016979 -96.624192 
L 345.967476 -96.36036 
z
" style="stroke: #999999; stroke-width: 2"/>
    </defs>
    <g clip-path="url(#pe9559ca83b)">
     <use xlink:href="#m7f4fc4db82" x="0" y="255.11811" style="fill: #ffffff; stroke: #999999; stroke-width: 2"/>
    </g>
   </g>
   <g id="PolyCollection_6">
    <defs>
     <path id="m4d115ce0a8" d="M 421.462248 -54.05881 
L 387.443242 -54.05881 
L 386.95189 -54.142552 
L 386.467784 -54.226293 
L 385.991819 -54.310035 
L 385.524867 -54.393777 
L 385.067769 -54.477518 
L 384.621342 -54.56126 
L 384.186375 -54.645002 
L 383.763632 -54.728743 
L 383.353853 -54.812485 
L 382.957754 -54.896227 
L 382.57603 -54.979968 
L 382.209356 -55.06371 
L 381.858386 -55.147452 
L 381.523758 -55.231193 
L 381.206091 -55.314935 
L 380.905985 -55.398677 
L 380.624026 -55.482418 
L 380.360778 -55.56616 
L 380.116791 -55.649902 
L 379.89259 -55.733643 
L 379.688683 -55.817385 
L 379.505549 -55.901126 
L 379.343644 -55.984868 
L 379.203392 -56.06861 
L 379.085187 -56.152351 
L 378.989384 -56.236093 
L 378.916299 -56.319835 
L 378.866202 -56.403576 
L 378.839318 -56.487318 
L 378.835818 -56.57106 
L 378.855817 -56.654801 
L 378.899371 -56.738543 
L 378.966474 -56.822285 
L 379.057052 -56.906026 
L 379.170963 -56.989768 
L 379.307992 -57.07351 
L 379.467851 -57.157251 
L 379.650178 -57.240993 
L 379.854533 -57.324735 
L 380.0804 -57.408476 
L 380.327184 -57.492218 
L 380.594218 -57.57596 
L 380.880756 -57.659701 
L 381.18598 -57.743443 
L 381.509 -57.827185 
L 381.848858 -57.910926 
L 382.204533 -57.994668 
L 382.574939 -58.07841 
L 382.958936 -58.162151 
L 383.355331 -58.245893 
L 383.762886 -58.329634 
L 384.180322 -58.413376 
L 384.606323 -58.497118 
L 385.039549 -58.580859 
L 385.478639 -58.664601 
L 385.922215 -58.748343 
L 386.368898 -58.832084 
L 386.817308 -58.915826 
L 387.266077 -58.999568 
L 387.713855 -59.083309 
L 388.15932 -59.167051 
L 388.601182 -59.250793 
L 389.038197 -59.334534 
L 389.469173 -59.418276 
L 389.892976 -59.502018 
L 390.30854 -59.585759 
L 390.714874 -59.669501 
L 391.111067 -59.753243 
L 391.496297 -59.836984 
L 391.869835 -59.920726 
L 392.231051 -60.004468 
L 392.579416 -60.088209 
L 392.914508 -60.171951 
L 393.236013 -60.255693 
L 393.543727 -60.339434 
L 393.837555 -60.423176 
L 394.117513 -60.506917 
L 394.383722 -60.590659 
L 394.63641 -60.674401 
L 394.875904 -60.758142 
L 395.102628 -60.841884 
L 395.317093 -60.925626 
L 395.519895 -61.009367 
L 395.711703 -61.093109 
L 395.893254 -61.176851 
L 396.06534 -61.260592 
L 396.228799 -61.344334 
L 396.384508 -61.428076 
L 396.533367 -61.511817 
L 396.676295 -61.595559 
L 396.81421 -61.679301 
L 396.948028 -61.763042 
L 397.078646 -61.846784 
L 397.206934 -61.930526 
L 397.333727 -62.014267 
L 397.459814 -62.098009 
L 397.58593 -62.181751 
L 397.712751 -62.265492 
L 397.840887 -62.349234 
L 411.064603 -62.349234 
L 411.064603 -62.349234 
L 411.192739 -62.265492 
L 411.31956 -62.181751 
L 411.445676 -62.098009 
L 411.571762 -62.014267 
L 411.698555 -61.930526 
L 411.826843 -61.846784 
L 411.957461 -61.763042 
L 412.091279 -61.679301 
L 412.229195 -61.595559 
L 412.372122 -61.511817 
L 412.520982 -61.428076 
L 412.67669 -61.344334 
L 412.84015 -61.260592 
L 413.012235 -61.176851 
L 413.193786 -61.093109 
L 413.385594 -61.009367 
L 413.588396 -60.925626 
L 413.802861 -60.841884 
L 414.029585 -60.758142 
L 414.269079 -60.674401 
L 414.521767 -60.590659 
L 414.787977 -60.506917 
L 415.067934 -60.423176 
L 415.361763 -60.339434 
L 415.669477 -60.255693 
L 415.990982 -60.171951 
L 416.326074 -60.088209 
L 416.674439 -60.004468 
L 417.035654 -59.920726 
L 417.409192 -59.836984 
L 417.794422 -59.753243 
L 418.190615 -59.669501 
L 418.596949 -59.585759 
L 419.012513 -59.502018 
L 419.436316 -59.418276 
L 419.867292 -59.334534 
L 420.304308 -59.250793 
L 420.74617 -59.167051 
L 421.191634 -59.083309 
L 421.639412 -58.999568 
L 422.088181 -58.915826 
L 422.536592 -58.832084 
L 422.983274 -58.748343 
L 423.426851 -58.664601 
L 423.86594 -58.580859 
L 424.299166 -58.497118 
L 424.725168 -58.413376 
L 425.142603 -58.329634 
L 425.550158 -58.245893 
L 425.946554 -58.162151 
L 426.330551 -58.07841 
L 426.700957 -57.994668 
L 427.056631 -57.910926 
L 427.39649 -57.827185 
L 427.71951 -57.743443 
L 428.024733 -57.659701 
L 428.311271 -57.57596 
L 428.578305 -57.492218 
L 428.82509 -57.408476 
L 429.050956 -57.324735 
L 429.255311 -57.240993 
L 429.437638 -57.157251 
L 429.597498 -57.07351 
L 429.734527 -56.989768 
L 429.848437 -56.906026 
L 429.939015 -56.822285 
L 430.006118 -56.738543 
L 430.049672 -56.654801 
L 430.069672 -56.57106 
L 430.066171 -56.487318 
L 430.039287 -56.403576 
L 429.989191 -56.319835 
L 429.916105 -56.236093 
L 429.820302 -56.152351 
L 429.702097 -56.06861 
L 429.561846 -55.984868 
L 429.399941 -55.901126 
L 429.216807 -55.817385 
L 429.012899 -55.733643 
L 428.788698 -55.649902 
L 428.544711 -55.56616 
L 428.281464 -55.482418 
L 427.999504 -55.398677 
L 427.699398 -55.314935 
L 427.381731 -55.231193 
L 427.047103 -55.147452 
L 426.696133 -55.06371 
L 426.329459 -54.979968 
L 425.947735 -54.896227 
L 425.551636 -54.812485 
L 425.141857 -54.728743 
L 424.719114 -54.645002 
L 424.284147 -54.56126 
L 423.83772 -54.477518 
L 423.380622 -54.393777 
L 422.91367 -54.310035 
L 422.437706 -54.226293 
L 421.953599 -54.142552 
L 421.462248 -54.05881 
z
" style="stroke: #999999; stroke-width: 2"/>
    </defs>
    <g clip-path="url(#pe9559ca83b)">
     <use xlink:href="#m4d115ce0a8" x="0" y="255.11811" style="fill: #ffffff; stroke: #999999; stroke-width: 2"/>
    </g>
   </g>
   <g id="PolyCollection_7">
    <defs>
     <path id="mc9c1d8b81e" d="M 472.037704 -180.752672 
L 464.95242 -180.752672 
L 464.865901 -181.171139 
L 464.782513 -181.589606 
L 464.702539 -182.008074 
L 464.626246 -182.426541 
L 464.553891 -182.845008 
L 464.48571 -183.263475 
L 464.421925 -183.681942 
L 464.362737 -184.10041 
L 464.308326 -184.518877 
L 464.258848 -184.937344 
L 464.214436 -185.355811 
L 464.175198 -185.774278 
L 464.141215 -186.192745 
L 464.112541 -186.611213 
L 464.089203 -187.02968 
L 464.071198 -187.448147 
L 464.058498 -187.866614 
L 464.051045 -188.285081 
L 464.048753 -188.703549 
L 464.051508 -189.122016 
L 464.059173 -189.540483 
L 464.071581 -189.95895 
L 464.088545 -190.377417 
L 464.109852 -190.795885 
L 464.13527 -191.214352 
L 464.164546 -191.632819 
L 464.19741 -192.051286 
L 464.233578 -192.469753 
L 464.272752 -192.88822 
L 464.314623 -193.306688 
L 464.358876 -193.725155 
L 464.405188 -194.143622 
L 464.453234 -194.562089 
L 464.50269 -194.980556 
L 464.553231 -195.399024 
L 464.60454 -195.817491 
L 464.656306 -196.235958 
L 464.708227 -196.654425 
L 464.760014 -197.072892 
L 464.811392 -197.491359 
L 464.862101 -197.909827 
L 464.911901 -198.328294 
L 464.96057 -198.746761 
L 465.007906 -199.165228 
L 465.053733 -199.583695 
L 465.097894 -200.002163 
L 465.140258 -200.42063 
L 465.180718 -200.839097 
L 465.219192 -201.257564 
L 465.255623 -201.676031 
L 465.289977 -202.094499 
L 465.322245 -202.512966 
L 465.352442 -202.931433 
L 465.380605 -203.3499 
L 465.40679 -203.768367 
L 465.431076 -204.186834 
L 465.45356 -204.605302 
L 465.474354 -205.023769 
L 465.493589 -205.442236 
L 465.511406 -205.860703 
L 465.527959 -206.27917 
L 465.543413 -206.697638 
L 465.557938 -207.116105 
L 465.571711 -207.534572 
L 465.584915 -207.953039 
L 465.597732 -208.371506 
L 465.610345 -208.789973 
L 465.622936 -209.208441 
L 465.635682 -209.626908 
L 465.648757 -210.045375 
L 465.662328 -210.463842 
L 465.676554 -210.882309 
L 465.691584 -211.300777 
L 465.707559 -211.719244 
L 465.724607 -212.137711 
L 465.742847 -212.556178 
L 465.762383 -212.974645 
L 465.783309 -213.393113 
L 465.805704 -213.81158 
L 465.829633 -214.230047 
L 465.855152 -214.648514 
L 465.8823 -215.066981 
L 465.911103 -215.485448 
L 465.941578 -215.903916 
L 465.973727 -216.322383 
L 466.00754 -216.74085 
L 466.042997 -217.159317 
L 466.080068 -217.577784 
L 466.118712 -217.996252 
L 466.158878 -218.414719 
L 466.20051 -218.833186 
L 466.243539 -219.251653 
L 466.287894 -219.67012 
L 466.333495 -220.088587 
L 466.380258 -220.507055 
L 466.428091 -220.925522 
L 466.476903 -221.343989 
L 466.526595 -221.762456 
L 466.577067 -222.180923 
L 470.413056 -222.180923 
L 470.413056 -222.180923 
L 470.463529 -221.762456 
L 470.513221 -221.343989 
L 470.562032 -220.925522 
L 470.609866 -220.507055 
L 470.656628 -220.088587 
L 470.702229 -219.67012 
L 470.746584 -219.251653 
L 470.789614 -218.833186 
L 470.831245 -218.414719 
L 470.871412 -217.996252 
L 470.910056 -217.577784 
L 470.947127 -217.159317 
L 470.982584 -216.74085 
L 471.016397 -216.322383 
L 471.048546 -215.903916 
L 471.07902 -215.485448 
L 471.107824 -215.066981 
L 471.134972 -214.648514 
L 471.16049 -214.230047 
L 471.18442 -213.81158 
L 471.206815 -213.393113 
L 471.22774 -212.974645 
L 471.247277 -212.556178 
L 471.265517 -212.137711 
L 471.282565 -211.719244 
L 471.29854 -211.300777 
L 471.31357 -210.882309 
L 471.327796 -210.463842 
L 471.341366 -210.045375 
L 471.354442 -209.626908 
L 471.367188 -209.208441 
L 471.379779 -208.789973 
L 471.392392 -208.371506 
L 471.405209 -207.953039 
L 471.418412 -207.534572 
L 471.432186 -207.116105 
L 471.446711 -206.697638 
L 471.462164 -206.27917 
L 471.478718 -205.860703 
L 471.496535 -205.442236 
L 471.515769 -205.023769 
L 471.536564 -204.605302 
L 471.559048 -204.186834 
L 471.583334 -203.768367 
L 471.609519 -203.3499 
L 471.637681 -202.931433 
L 471.667878 -202.512966 
L 471.700147 -202.094499 
L 471.734501 -201.676031 
L 471.770932 -201.257564 
L 471.809406 -200.839097 
L 471.849866 -200.42063 
L 471.89223 -200.002163 
L 471.936391 -199.583695 
L 471.982217 -199.165228 
L 472.029554 -198.746761 
L 472.078223 -198.328294 
L 472.128022 -197.909827 
L 472.178732 -197.491359 
L 472.23011 -197.072892 
L 472.281897 -196.654425 
L 472.333818 -196.235958 
L 472.385584 -195.817491 
L 472.436893 -195.399024 
L 472.487434 -194.980556 
L 472.536889 -194.562089 
L 472.584936 -194.143622 
L 472.631248 -193.725155 
L 472.6755 -193.306688 
L 472.717372 -192.88822 
L 472.756546 -192.469753 
L 472.792714 -192.051286 
L 472.825578 -191.632819 
L 472.854854 -191.214352 
L 472.880272 -190.795885 
L 472.901579 -190.377417 
L 472.918542 -189.95895 
L 472.930951 -189.540483 
L 472.938616 -189.122016 
L 472.941371 -188.703549 
L 472.939079 -188.285081 
L 472.931625 -187.866614 
L 472.918925 -187.448147 
L 472.900921 -187.02968 
L 472.877583 -186.611213 
L 472.848909 -186.192745 
L 472.814926 -185.774278 
L 472.775688 -185.355811 
L 472.731276 -184.937344 
L 472.681798 -184.518877 
L 472.627387 -184.10041 
L 472.568199 -183.681942 
L 472.504414 -183.263475 
L 472.436233 -182.845008 
L 472.363877 -182.426541 
L 472.287585 -182.008074 
L 472.207611 -181.589606 
L 472.124223 -181.171139 
L 472.037704 -180.752672 
z
" style="stroke: #999999; stroke-width: 2"/>
    </defs>
    <g clip-path="url(#pe9559ca83b)">
     <use xlink:href="#mc9c1d8b81e" x="0" y="255.11811" style="fill: #ffffff; stroke: #999999; stroke-width: 2"/>
    </g>
   </g>
   <g id="PathCollection_1"/>
   <g id="PathCollection_2"/>
   <g id="patch_3">
    <path d="M 52.22 213.89811 
L 52.22 24.32 
" style="fill: none; stroke: #262626; stroke-width: 1.25; stroke-linejoin: miter; stroke-linecap: square"/>
   </g>
   <g id="patch_4">
    <path d="M 52.22 213.89811 
L 500.51622 213.89811 
" style="fill: none; stroke: #262626; stroke-width: 1.25; stroke-linejoin: miter; stroke-linecap: square"/>
   </g>
   <g id="PathCollection_3">
    <defs>
     <path id="C0_0_a2c21fad33" d="M 0 2.5 
C 0.663008 2.5 1.29895 2.236584 1.767767 1.767767 
C 2.236584 1.29895 2.5 0.663008 2.5 -0 
C 2.5 -0.663008 2.236584 -1.29895 1.767767 -1.767767 
C 1.29895 -2.236584 0.663008 -2.5 0 -2.5 
C -0.663008 -2.5 -1.29895 -2.236584 -1.767767 -1.767767 
C -2.236584 -1.29895 -2.5 -0.663008 -2.5 0 
C -2.5 0.663008 -2.236584 1.29895 -1.767767 1.767767 
C -1.29895 2.236584 -0.663008 2.5 0 2.5 
z
"/>
    </defs>
    <g clip-path="url(#pe9559ca83b)">
     <use xlink:href="#C0_0_a2c21fad33" x="79.396441" y="173.007455" style="fill: #4c72b0; fill-opacity: 0.75"/>
    </g>
    <g clip-path="url(#pe9559ca83b)">
     <use xlink:href="#C0_0_a2c21fad33" x="85.756869" y="185.810736" style="fill: #4c72b0; fill-opacity: 0.75"/>
    </g>
    <g clip-path="url(#pe9559ca83b)">
     <use xlink:href="#C0_0_a2c21fad33" x="83.073757" y="180.909109" style="fill: #4c72b0; fill-opacity: 0.75"/>
    </g>
    <g clip-path="url(#pe9559ca83b)">
     <use xlink:href="#C0_0_a2c21fad33" x="80.439782" y="173.169127" style="fill: #4c72b0; fill-opacity: 0.75"/>
    </g>
    <g clip-path="url(#pe9559ca83b)">
     <use xlink:href="#C0_0_a2c21fad33" x="83.958654" y="183.454923" style="fill: #dd8452; fill-opacity: 0.75"/>
    </g>
    <g clip-path="url(#pe9559ca83b)">
     <use xlink:href="#C0_0_a2c21fad33" x="82.826905" y="186.078703" style="fill: #dd8452; fill-opacity: 0.75"/>
    </g>
    <g clip-path="url(#pe9559ca83b)">
     <use xlink:href="#C0_0_a2c21fad33" x="89.331492" y="184.83859" style="fill: #dd8452; fill-opacity: 0.75"/>
    </g>
    <g clip-path="url(#pe9559ca83b)">
     <use xlink:href="#C0_0_a2c21fad33" x="87.781417" y="188.351617" style="fill: #dd8452; fill-opacity: 0.75"/>
    </g>
   </g>
   <g id="PathCollection_4">
    <defs>
     <path id="C1_0_ad484b993e" d="M 0 2.5 
C 0.663008 2.5 1.29895 2.236584 1.767767 1.767767 
C 2.236584 1.29895 2.5 0.663008 2.5 -0 
C 2.5 -0.663008 2.236584 -1.29895 1.767767 -1.767767 
C 1.29895 -2.236584 0.663008 -2.5 0 -2.5 
C -0.663008 -2.5 -1.29895 -2.236584 -1.767767 -1.767767 
C -2.236584 -1.29895 -2.5 -0.663008 -2.5 0 
C -2.5 0.663008 -2.236584 1.29895 -1.767767 1.767767 
C -1.29895 2.236584 -0.663008 2.5 0 2.5 
z
"/>
    </defs>
    <g clip-path="url(#pe9559ca83b)">
     <use xlink:href="#C1_0_ad484b993e" x="144.164978" y="118.180865" style="fill: #4c72b0; fill-opacity: 0.75"/>
    </g>
    <g clip-path="url(#pe9559ca83b)">
     <use xlink:href="#C1_0_ad484b993e" x="150.301205" y="103.180688" style="fill: #4c72b0; fill-opacity: 0.75"/>
    </g>
    <g clip-path="url(#pe9559ca83b)">
     <use xlink:href="#C1_0_ad484b993e" x="141.979423" y="110.372924" style="fill: #4c72b0; fill-opacity: 0.75"/>
    </g>
    <g clip-path="url(#pe9559ca83b)">
     <use xlink:href="#C1_0_ad484b993e" x="152.655333" y="105.843554" style="fill: #4c72b0; fill-opacity: 0.75"/>
    </g>
    <g clip-path="url(#pe9559ca83b)">
     <use xlink:href="#C1_0_ad484b993e" x="152.390947" y="108.441223" style="fill: #dd8452; fill-opacity: 0.75"/>
    </g>
    <g clip-path="url(#pe9559ca83b)">
     <use xlink:href="#C1_0_ad484b993e" x="144.771443" y="97.80931" style="fill: #dd8452; fill-opacity: 0.75"/>
    </g>
    <g clip-path="url(#pe9559ca83b)">
     <use xlink:href="#C1_0_ad484b993e" x="152.143251" y="98.448416" style="fill: #dd8452; fill-opacity: 0.75"/>
    </g>
    <g clip-path="url(#pe9559ca83b)">
     <use xlink:href="#C1_0_ad484b993e" x="151.716511" y="88.199634" style="fill: #dd8452; fill-opacity: 0.75"/>
    </g>
   </g>
   <g id="PathCollection_5">
    <defs>
     <path id="C2_0_fbf919447a" d="M 0 2.5 
C 0.663008 2.5 1.29895 2.236584 1.767767 1.767767 
C 2.236584 1.29895 2.5 0.663008 2.5 -0 
C 2.5 -0.663008 2.236584 -1.29895 1.767767 -1.767767 
C 1.29895 -2.236584 0.663008 -2.5 0 -2.5 
C -0.663008 -2.5 -1.29895 -2.236584 -1.767767 -1.767767 
C -2.236584 -1.29895 -2.5 -0.663008 -2.5 0 
C -2.5 0.663008 -2.236584 1.29895 -1.767767 1.767767 
C -1.29895 2.236584 -0.663008 2.5 0 2.5 
z
"/>
    </defs>
    <g clip-path="url(#pe9559ca83b)">
     <use xlink:href="#C2_0_fbf919447a" x="216.591741" y="178.978182" style="fill: #4c72b0; fill-opacity: 0.75"/>
    </g>
    <g clip-path="url(#pe9559ca83b)">
     <use xlink:href="#C2_0_fbf919447a" x="209.95507" y="176.970721" style="fill: #4c72b0; fill-opacity: 0.75"/>
    </g>
    <g clip-path="url(#pe9559ca83b)">
     <use xlink:href="#C2_0_fbf919447a" x="210.469367" y="189.502534" style="fill: #4c72b0; fill-opacity: 0.75"/>
    </g>
    <g clip-path="url(#pe9559ca83b)">
     <use xlink:href="#C2_0_fbf919447a" x="213.206462" y="171.899897" style="fill: #4c72b0; fill-opacity: 0.75"/>
    </g>
    <g clip-path="url(#pe9559ca83b)">
     <use xlink:href="#C2_0_fbf919447a" x="210.467651" y="180.643153" style="fill: #dd8452; fill-opacity: 0.75"/>
    </g>
    <g clip-path="url(#pe9559ca83b)">
     <use xlink:href="#C2_0_fbf919447a" x="214.489689" y="180.460087" style="fill: #dd8452; fill-opacity: 0.75"/>
    </g>
    <g clip-path="url(#pe9559ca83b)">
     <use xlink:href="#C2_0_fbf919447a" x="212.742872" y="188.456603" style="fill: #dd8452; fill-opacity: 0.75"/>
    </g>
    <g clip-path="url(#pe9559ca83b)">
     <use xlink:href="#C2_0_fbf919447a" x="218.513489" y="205.280923" style="fill: #dd8452; fill-opacity: 0.75"/>
    </g>
   </g>
   <g id="PathCollection_6">
    <defs>
     <path id="C3_0_4e98cc4b68" d="M 0 2.5 
C 0.663008 2.5 1.29895 2.236584 1.767767 1.767767 
C 2.236584 1.29895 2.5 0.663008 2.5 -0 
C 2.5 -0.663008 2.236584 -1.29895 1.767767 -1.767767 
C 1.29895 -2.236584 0.663008 -2.5 0 -2.5 
C -0.663008 -2.5 -1.29895 -2.236584 -1.767767 -1.767767 
C -2.236584 -1.29895 -2.5 -0.663008 -2.5 0 
C -2.5 0.663008 -2.236584 1.29895 -1.767767 1.767767 
C -1.29895 2.236584 -0.663008 2.5 0 2.5 
z
"/>
    </defs>
    <g clip-path="url(#pe9559ca83b)">
     <use xlink:href="#C3_0_4e98cc4b68" x="281.599491" y="192.934878" style="fill: #4c72b0; fill-opacity: 0.75"/>
    </g>
    <g clip-path="url(#pe9559ca83b)">
     <use xlink:href="#C3_0_4e98cc4b68" x="275.033585" y="189.746537" style="fill: #4c72b0; fill-opacity: 0.75"/>
    </g>
    <g clip-path="url(#pe9559ca83b)">
     <use xlink:href="#C3_0_4e98cc4b68" x="282.172323" y="182.578081" style="fill: #4c72b0; fill-opacity: 0.75"/>
    </g>
    <g clip-path="url(#pe9559ca83b)">
     <use xlink:href="#C3_0_4e98cc4b68" x="277.023068" y="188.033518" style="fill: #4c72b0; fill-opacity: 0.75"/>
    </g>
    <g clip-path="url(#pe9559ca83b)">
     <use xlink:href="#C3_0_4e98cc4b68" x="276.52752" y="185.322366" style="fill: #4c72b0; fill-opacity: 0.75"/>
    </g>
    <g clip-path="url(#pe9559ca83b)">
     <use xlink:href="#C3_0_4e98cc4b68" x="270.602891" y="187.836742" style="fill: #dd8452; fill-opacity: 0.75"/>
    </g>
    <g clip-path="url(#pe9559ca83b)">
     <use xlink:href="#C3_0_4e98cc4b68" x="272.135331" y="186.482551" style="fill: #dd8452; fill-opacity: 0.75"/>
    </g>
    <g clip-path="url(#pe9559ca83b)">
     <use xlink:href="#C3_0_4e98cc4b68" x="273.031905" y="193.27483" style="fill: #dd8452; fill-opacity: 0.75"/>
    </g>
    <g clip-path="url(#pe9559ca83b)">
     <use xlink:href="#C3_0_4e98cc4b68" x="280.101454" y="180.795265" style="fill: #dd8452; fill-opacity: 0.75"/>
    </g>
    <g clip-path="url(#pe9559ca83b)">
     <use xlink:href="#C3_0_4e98cc4b68" x="271.471662" y="186.857425" style="fill: #dd8452; fill-opacity: 0.75"/>
    </g>
   </g>
   <g id="PathCollection_7">
    <defs>
     <path id="C4_0_5999f532ea" d="M 0 2.5 
C 0.663008 2.5 1.29895 2.236584 1.767767 1.767767 
C 2.236584 1.29895 2.5 0.663008 2.5 -0 
C 2.5 -0.663008 2.236584 -1.29895 1.767767 -1.767767 
C 1.29895 -2.236584 0.663008 -2.5 0 -2.5 
C -0.663008 -2.5 -1.29895 -2.236584 -1.767767 -1.767767 
C -2.236584 -1.29895 -2.5 -0.663008 -2.5 0 
C -2.5 0.663008 -2.236584 1.29895 -1.767767 1.767767 
C -1.29895 2.236584 -0.663008 2.5 0 2.5 
z
"/>
    </defs>
    <g clip-path="url(#pe9559ca83b)">
     <use xlink:href="#C4_0_5999f532ea" x="341.260837" y="132.638311" style="fill: #4c72b0; fill-opacity: 0.75"/>
    </g>
    <g clip-path="url(#pe9559ca83b)">
     <use xlink:href="#C4_0_5999f532ea" x="342.956377" y="139.030545" style="fill: #4c72b0; fill-opacity: 0.75"/>
    </g>
    <g clip-path="url(#pe9559ca83b)">
     <use xlink:href="#C4_0_5999f532ea" x="345.975323" y="148.957795" style="fill: #4c72b0; fill-opacity: 0.75"/>
    </g>
    <g clip-path="url(#pe9559ca83b)">
     <use xlink:href="#C4_0_5999f532ea" x="341.141468" y="158.757751" style="fill: #dd8452; fill-opacity: 0.75"/>
    </g>
    <g clip-path="url(#pe9559ca83b)">
     <use xlink:href="#C4_0_5999f532ea" x="338.642679" y="156.757264" style="fill: #dd8452; fill-opacity: 0.75"/>
    </g>
    <g clip-path="url(#pe9559ca83b)">
     <use xlink:href="#C4_0_5999f532ea" x="339.720353" y="158.628701" style="fill: #dd8452; fill-opacity: 0.75"/>
    </g>
   </g>
   <g id="PathCollection_8">
    <defs>
     <path id="C5_0_ed1fad6a41" d="M 0 2.5 
C 0.663008 2.5 1.29895 2.236584 1.767767 1.767767 
C 2.236584 1.29895 2.5 0.663008 2.5 -0 
C 2.5 -0.663008 2.236584 -1.29895 1.767767 -1.767767 
C 1.29895 -2.236584 0.663008 -2.5 0 -2.5 
C -0.663008 -2.5 -1.29895 -2.236584 -1.767767 -1.767767 
C -2.236584 -1.29895 -2.5 -0.663008 -2.5 0 
C -2.5 0.663008 -2.236584 1.29895 -1.767767 1.767767 
C -1.29895 2.236584 -0.663008 2.5 0 2.5 
z
"/>
    </defs>
    <g clip-path="url(#pe9559ca83b)">
     <use xlink:href="#C5_0_ed1fad6a41" x="406.062168" y="200.679058" style="fill: #4c72b0; fill-opacity: 0.75"/>
    </g>
    <g clip-path="url(#pe9559ca83b)">
     <use xlink:href="#C5_0_ed1fad6a41" x="409.855909" y="198.874144" style="fill: #4c72b0; fill-opacity: 0.75"/>
    </g>
    <g clip-path="url(#pe9559ca83b)">
     <use xlink:href="#C5_0_ed1fad6a41" x="401.526554" y="198.834274" style="fill: #4c72b0; fill-opacity: 0.75"/>
    </g>
    <g clip-path="url(#pe9559ca83b)">
     <use xlink:href="#C5_0_ed1fad6a41" x="405.280095" y="201.0593" style="fill: #4c72b0; fill-opacity: 0.75"/>
    </g>
    <g clip-path="url(#pe9559ca83b)">
     <use xlink:href="#C5_0_ed1fad6a41" x="407.59379" y="197.059782" style="fill: #dd8452; fill-opacity: 0.75"/>
    </g>
    <g clip-path="url(#pe9559ca83b)">
     <use xlink:href="#C5_0_ed1fad6a41" x="403.098654" y="198.019699" style="fill: #dd8452; fill-opacity: 0.75"/>
    </g>
    <g clip-path="url(#pe9559ca83b)">
     <use xlink:href="#C5_0_ed1fad6a41" x="400.340375" y="192.768876" style="fill: #dd8452; fill-opacity: 0.75"/>
    </g>
    <g clip-path="url(#pe9559ca83b)">
     <use xlink:href="#C5_0_ed1fad6a41" x="398.904484" y="196.036108" style="fill: #dd8452; fill-opacity: 0.75"/>
    </g>
   </g>
   <g id="PathCollection_9">
    <defs>
     <path id="C6_0_e0cd17bfff" d="M 0 2.5 
C 0.663008 2.5 1.29895 2.236584 1.767767 1.767767 
C 2.236584 1.29895 2.5 0.663008 2.5 -0 
C 2.5 -0.663008 2.236584 -1.29895 1.767767 -1.767767 
C 1.29895 -2.236584 0.663008 -2.5 0 -2.5 
C -0.663008 -2.5 -1.29895 -2.236584 -1.767767 -1.767767 
C -2.236584 -1.29895 -2.5 -0.663008 -2.5 0 
C -2.5 0.663008 -2.236584 1.29895 -1.767767 1.767767 
C -1.29895 2.236584 -0.663008 2.5 0 2.5 
z
"/>
    </defs>
    <g clip-path="url(#pe9559ca83b)">
     <use xlink:href="#C6_0_e0cd17bfff" x="463.182773" y="61.03452" style="fill: #4c72b0; fill-opacity: 0.75"/>
    </g>
    <g clip-path="url(#pe9559ca83b)">
     <use xlink:href="#C6_0_e0cd17bfff" x="468.192972" y="67.516592" style="fill: #4c72b0; fill-opacity: 0.75"/>
    </g>
    <g clip-path="url(#pe9559ca83b)">
     <use xlink:href="#C6_0_e0cd17bfff" x="468.165541" y="69.979345" style="fill: #4c72b0; fill-opacity: 0.75"/>
    </g>
    <g clip-path="url(#pe9559ca83b)">
     <use xlink:href="#C6_0_e0cd17bfff" x="465.021393" y="64.652213" style="fill: #4c72b0; fill-opacity: 0.75"/>
    </g>
    <g clip-path="url(#pe9559ca83b)">
     <use xlink:href="#C6_0_e0cd17bfff" x="472.19825" y="44.718691" style="fill: #dd8452; fill-opacity: 0.75"/>
    </g>
    <g clip-path="url(#pe9559ca83b)">
     <use xlink:href="#C6_0_e0cd17bfff" x="464.20297" y="32.937187" style="fill: #dd8452; fill-opacity: 0.75"/>
    </g>
    <g clip-path="url(#pe9559ca83b)">
     <use xlink:href="#C6_0_e0cd17bfff" x="466.835933" y="44.436467" style="fill: #dd8452; fill-opacity: 0.75"/>
    </g>
    <g clip-path="url(#pe9559ca83b)">
     <use xlink:href="#C6_0_e0cd17bfff" x="468.224163" y="74.365438" style="fill: #dd8452; fill-opacity: 0.75"/>
    </g>
   </g>
   <g id="text_18">
    <!-- YWHAZ, $p_{adj}$ &lt; .001 *** -->
    <g style="fill: #262626" transform="translate(52.22 18.32)scale(0.09 -0.09)">
     <defs>
      <path id="ArialMT-59" d="M 1784 0 
L 1784 1941 
L 19 4581 
L 756 4581 
L 1659 3200 
Q 1909 2813 2125 2425 
Q 2331 2784 2625 3234 
L 3513 4581 
L 4219 4581 
L 2391 1941 
L 2391 0 
L 1784 0 
z
" transform="scale(0.015625)"/>
      <path id="ArialMT-57" d="M 1294 0 
L 78 4581 
L 700 4581 
L 1397 1578 
Q 1509 1106 1591 641 
Q 1766 1375 1797 1488 
L 2669 4581 
L 3400 4581 
L 4056 2263 
Q 4303 1400 4413 641 
Q 4500 1075 4641 1638 
L 5359 4581 
L 5969 4581 
L 4713 0 
L 4128 0 
L 3163 3491 
Q 3041 3928 3019 4028 
Q 2947 3713 2884 3491 
L 1913 0 
L 1294 0 
z
" transform="scale(0.015625)"/>
      <path id="ArialMT-48" d="M 513 0 
L 513 4581 
L 1119 4581 
L 1119 2700 
L 3500 2700 
L 3500 4581 
L 4106 4581 
L 4106 0 
L 3500 0 
L 3500 2159 
L 1119 2159 
L 1119 0 
L 513 0 
z
" transform="scale(0.015625)"/>
      <path id="ArialMT-41" d="M -9 0 
L 1750 4581 
L 2403 4581 
L 4278 0 
L 3588 0 
L 3053 1388 
L 1138 1388 
L 634 0 
L -9 0 
z
M 1313 1881 
L 2866 1881 
L 2388 3150 
Q 2169 3728 2063 4100 
Q 1975 3659 1816 3225 
L 1313 1881 
z
" transform="scale(0.015625)"/>
      <path id="ArialMT-5a" d="M 128 0 
L 128 563 
L 2475 3497 
Q 2725 3809 2950 4041 
L 394 4041 
L 394 4581 
L 3675 4581 
L 3675 4041 
L 1103 863 
L 825 541 
L 3750 541 
L 3750 0 
L 128 0 
z
" transform="scale(0.015625)"/>
      <path id="ArialMT-2c" d="M 569 0 
L 569 641 
L 1209 641 
L 1209 0 
Q 1209 -353 1084 -570 
Q 959 -788 688 -906 
L 531 -666 
Q 709 -588 793 -436 
Q 878 -284 888 0 
L 569 0 
z
" transform="scale(0.015625)"/>
      <path id="DejaVuSans-Oblique-70" d="M 3175 2156 
Q 3175 2616 2975 2859 
Q 2775 3103 2400 3103 
Q 2144 3103 1911 2972 
Q 1678 2841 1497 2591 
Q 1319 2344 1212 1994 
Q 1106 1644 1106 1300 
Q 1106 863 1306 627 
Q 1506 391 1875 391 
Q 2147 391 2380 519 
Q 2613 647 2778 891 
Q 2956 1147 3065 1494 
Q 3175 1841 3175 2156 
z
M 1394 2969 
Q 1625 3272 1939 3428 
Q 2253 3584 2638 3584 
Q 3175 3584 3472 3232 
Q 3769 2881 3769 2247 
Q 3769 1728 3584 1258 
Q 3400 788 3053 416 
Q 2822 169 2531 39 
Q 2241 -91 1919 -91 
Q 1547 -91 1294 64 
Q 1041 219 916 525 
L 556 -1331 
L -19 -1331 
L 922 3500 
L 1497 3500 
L 1394 2969 
z
" transform="scale(0.015625)"/>
      <path id="DejaVuSans-Oblique-61" d="M 3438 1997 
L 3047 0 
L 2472 0 
L 2578 531 
Q 2325 219 2001 64 
Q 1678 -91 1281 -91 
Q 834 -91 548 182 
Q 263 456 263 884 
Q 263 1497 752 1853 
Q 1241 2209 2100 2209 
L 2900 2209 
L 2931 2363 
Q 2938 2388 2941 2417 
Q 2944 2447 2944 2509 
Q 2944 2788 2717 2942 
Q 2491 3097 2081 3097 
Q 1800 3097 1504 3025 
Q 1209 2953 897 2809 
L 997 3341 
Q 1322 3463 1633 3523 
Q 1944 3584 2234 3584 
Q 2853 3584 3176 3315 
Q 3500 3047 3500 2534 
Q 3500 2431 3484 2292 
Q 3469 2153 3438 1997 
z
M 2816 1759 
L 2241 1759 
Q 1534 1759 1195 1570 
Q 856 1381 856 984 
Q 856 709 1029 553 
Q 1203 397 1509 397 
Q 1978 397 2328 733 
Q 2678 1069 2791 1631 
L 2816 1759 
z
" transform="scale(0.015625)"/>
      <path id="DejaVuSans-Oblique-64" d="M 2675 525 
Q 2444 222 2128 65 
Q 1813 -91 1428 -91 
Q 903 -91 598 267 
Q 294 625 294 1247 
Q 294 1766 478 2236 
Q 663 2706 1013 3078 
Q 1244 3325 1534 3454 
Q 1825 3584 2144 3584 
Q 2481 3584 2739 3421 
Q 2997 3259 3138 2956 
L 3513 4863 
L 4091 4863 
L 3144 0 
L 2566 0 
L 2675 525 
z
M 891 1350 
Q 891 897 1095 644 
Q 1300 391 1663 391 
Q 1931 391 2161 520 
Q 2391 650 2566 903 
Q 2750 1166 2856 1509 
Q 2963 1853 2963 2188 
Q 2963 2622 2758 2865 
Q 2553 3109 2194 3109 
Q 1922 3109 1687 2981 
Q 1453 2853 1288 2613 
Q 1106 2353 998 2009 
Q 891 1666 891 1350 
z
" transform="scale(0.015625)"/>
      <path id="DejaVuSans-Oblique-6a" d="M 928 3500 
L 1503 3500 
L 813 -63 
L 809 -78 
Q 694 -675 544 -897 
Q 403 -1106 132 -1218 
Q -138 -1331 -506 -1331 
L -722 -1331 
L -628 -844 
L -481 -844 
Q -144 -844 -1 -703 
Q 141 -563 238 -63 
L 928 3500 
z
M 1197 4863 
L 1772 4863 
L 1631 4134 
L 1056 4134 
L 1197 4863 
z
" transform="scale(0.015625)"/>
      <path id="ArialMT-3c" d="M 350 2003 
L 350 2528 
L 3384 3809 
L 3384 3250 
L 978 2263 
L 3384 1266 
L 3384 706 
L 350 2003 
z
" transform="scale(0.015625)"/>
      <path id="ArialMT-2e" d="M 581 0 
L 581 641 
L 1222 641 
L 1222 0 
L 581 0 
z
" transform="scale(0.015625)"/>
      <path id="ArialMT-2a" d="M 200 3741 
L 344 4184 
Q 841 4009 1066 3881 
Q 1006 4447 1003 4659 
L 1456 4659 
Q 1447 4350 1384 3884 
Q 1706 4047 2122 4184 
L 2266 3741 
Q 1869 3609 1488 3566 
Q 1678 3400 2025 2975 
L 1650 2709 
Q 1469 2956 1222 3381 
Q 991 2941 816 2709 
L 447 2975 
Q 809 3422 966 3566 
Q 563 3644 200 3741 
z
" transform="scale(0.015625)"/>
     </defs>
     <use xlink:href="#ArialMT-59" transform="translate(0 0.203125)"/>
     <use xlink:href="#ArialMT-57" transform="translate(66.699219 0.203125)"/>
     <use xlink:href="#ArialMT-48" transform="translate(161.083984 0.203125)"/>
     <use xlink:href="#ArialMT-41" transform="translate(233.300781 0.203125)"/>
     <use xlink:href="#ArialMT-5a" transform="translate(300 0.203125)"/>
     <use xlink:href="#ArialMT-2c" transform="translate(361.083984 0.203125)"/>
     <use xlink:href="#ArialMT-20" transform="translate(388.867188 0.203125)"/>
     <use xlink:href="#DejaVuSans-Oblique-70" transform="translate(416.650391 0.203125)"/>
     <use xlink:href="#DejaVuSans-Oblique-61" transform="translate(480.126953 -16.203125)scale(0.7)"/>
     <use xlink:href="#DejaVuSans-Oblique-64" transform="translate(523.022461 -16.203125)scale(0.7)"/>
     <use xlink:href="#DejaVuSans-Oblique-6a" transform="translate(567.456055 -16.203125)scale(0.7)"/>
     <use xlink:href="#ArialMT-20" transform="translate(589.638672 0.203125)"/>
     <use xlink:href="#ArialMT-3c" transform="translate(617.421875 0.203125)"/>
     <use xlink:href="#ArialMT-20" transform="translate(675.820312 0.203125)"/>
     <use xlink:href="#ArialMT-2e" transform="translate(703.603516 0.203125)"/>
     <use xlink:href="#ArialMT-30" transform="translate(731.386719 0.203125)"/>
     <use xlink:href="#ArialMT-30" transform="translate(787.001953 0.203125)"/>
     <use xlink:href="#ArialMT-31" transform="translate(842.617188 0.203125)"/>
     <use xlink:href="#ArialMT-20" transform="translate(898.232422 0.203125)"/>
     <use xlink:href="#ArialMT-2a" transform="translate(926.015625 0.203125)"/>
     <use xlink:href="#ArialMT-2a" transform="translate(964.931641 0.203125)"/>
     <use xlink:href="#ArialMT-2a" transform="translate(1003.847656 0.203125)"/>
    </g>
   </g>
   <g id="legend_1">
    <g id="patch_5">
     <path d="M 58.52 69.712344 
L 110.82125 69.712344 
Q 112.62125 69.712344 112.62125 67.912344 
L 112.62125 30.62 
Q 112.62125 28.82 110.82125 28.82 
L 58.52 28.82 
Q 56.72 28.82 56.72 30.62 
L 56.72 67.912344 
Q 56.72 69.712344 58.52 69.712344 
z
" style="fill: #ffffff; opacity: 0.8; stroke: #cccccc; stroke-linejoin: miter"/>
    </g>
    <g id="text_19">
     <!-- Treatment -->
     <g style="fill: #262626" transform="translate(64.334141 38.862031)scale(0.09 -0.09)">
      <use xlink:href="#ArialMT-54"/>
      <use xlink:href="#ArialMT-72" x="57.333984"/>
      <use xlink:href="#ArialMT-65" x="90.634766"/>
      <use xlink:href="#ArialMT-61" x="146.25"/>
      <use xlink:href="#ArialMT-74" x="201.865234"/>
      <use xlink:href="#ArialMT-6d" x="229.648438"/>
      <use xlink:href="#ArialMT-65" x="312.949219"/>
      <use xlink:href="#ArialMT-6e" x="368.564453"/>
      <use xlink:href="#ArialMT-74" x="424.179688"/>
     </g>
    </g>
    <g id="PathCollection_10">
     <defs>
      <path id="me8c1d7640b" d="M 0 3.872983 
C 1.027127 3.872983 2.012324 3.464901 2.738613 2.738613 
C 3.464901 2.012324 3.872983 1.027127 3.872983 0 
C 3.872983 -1.027127 3.464901 -2.012324 2.738613 -2.738613 
C 2.012324 -3.464901 1.027127 -3.872983 0 -3.872983 
C -1.027127 -3.872983 -2.012324 -3.464901 -2.738613 -2.738613 
C -3.464901 -2.012324 -3.872983 -1.027127 -3.872983 0 
C -3.872983 1.027127 -3.464901 2.012324 -2.738613 2.738613 
C -2.012324 3.464901 -1.027127 3.872983 0 3.872983 
z
" style="stroke: #4c72b0"/>
     </defs>
     <g>
      <use xlink:href="#me8c1d7640b" x="69.32" y="49.230313" style="fill: #4c72b0; stroke: #4c72b0"/>
     </g>
    </g>
    <g id="text_20">
     <!-- BEVA -->
     <g style="fill: #262626" transform="translate(85.52 51.592813)scale(0.09 -0.09)">
      <defs>
       <path id="ArialMT-42" d="M 469 0 
L 469 4581 
L 2188 4581 
Q 2713 4581 3030 4442 
Q 3347 4303 3526 4014 
Q 3706 3725 3706 3409 
Q 3706 3116 3547 2856 
Q 3388 2597 3066 2438 
Q 3481 2316 3704 2022 
Q 3928 1728 3928 1328 
Q 3928 1006 3792 729 
Q 3656 453 3456 303 
Q 3256 153 2954 76 
Q 2653 0 2216 0 
L 469 0 
z
M 1075 2656 
L 2066 2656 
Q 2469 2656 2644 2709 
Q 2875 2778 2992 2937 
Q 3109 3097 3109 3338 
Q 3109 3566 3000 3739 
Q 2891 3913 2687 3977 
Q 2484 4041 1991 4041 
L 1075 4041 
L 1075 2656 
z
M 1075 541 
L 2216 541 
Q 2509 541 2628 563 
Q 2838 600 2978 687 
Q 3119 775 3209 942 
Q 3300 1109 3300 1328 
Q 3300 1584 3169 1773 
Q 3038 1963 2805 2039 
Q 2572 2116 2134 2116 
L 1075 2116 
L 1075 541 
z
" transform="scale(0.015625)"/>
       <path id="ArialMT-45" d="M 506 0 
L 506 4581 
L 3819 4581 
L 3819 4041 
L 1113 4041 
L 1113 2638 
L 3647 2638 
L 3647 2100 
L 1113 2100 
L 1113 541 
L 3925 541 
L 3925 0 
L 506 0 
z
" transform="scale(0.015625)"/>
       <path id="ArialMT-56" d="M 1803 0 
L 28 4581 
L 684 4581 
L 1875 1253 
Q 2019 853 2116 503 
Q 2222 878 2363 1253 
L 3600 4581 
L 4219 4581 
L 2425 0 
L 1803 0 
z
" transform="scale(0.015625)"/>
      </defs>
      <use xlink:href="#ArialMT-42"/>
      <use xlink:href="#ArialMT-45" x="66.699219"/>
      <use xlink:href="#ArialMT-56" x="133.398438"/>
      <use xlink:href="#ArialMT-41" x="192.722656"/>
     </g>
    </g>
    <g id="PathCollection_11">
     <defs>
      <path id="m90559f60b8" d="M 0 3.872983 
C 1.027127 3.872983 2.012324 3.464901 2.738613 2.738613 
C 3.464901 2.012324 3.872983 1.027127 3.872983 0 
C 3.872983 -1.027127 3.464901 -2.012324 2.738613 -2.738613 
C 2.012324 -3.464901 1.027127 -3.872983 0 -3.872983 
C -1.027127 -3.872983 -2.012324 -3.464901 -2.738613 -2.738613 
C -3.464901 -2.012324 -3.872983 -1.027127 -3.872983 0 
C -3.872983 1.027127 -3.464901 2.012324 -2.738613 2.738613 
C -2.012324 3.464901 -1.027127 3.872983 0 3.872983 
z
" style="stroke: #dd8452"/>
     </defs>
     <g>
      <use xlink:href="#m90559f60b8" x="69.32" y="61.961094" style="fill: #dd8452; stroke: #dd8452"/>
     </g>
    </g>
    <g id="text_21">
     <!-- CTRL -->
     <g style="fill: #262626" transform="translate(85.52 64.323594)scale(0.09 -0.09)">
      <defs>
       <path id="ArialMT-43" d="M 3763 1606 
L 4369 1453 
Q 4178 706 3683 314 
Q 3188 -78 2472 -78 
Q 1731 -78 1267 223 
Q 803 525 561 1097 
Q 319 1669 319 2325 
Q 319 3041 592 3573 
Q 866 4106 1370 4382 
Q 1875 4659 2481 4659 
Q 3169 4659 3637 4309 
Q 4106 3959 4291 3325 
L 3694 3184 
Q 3534 3684 3231 3912 
Q 2928 4141 2469 4141 
Q 1941 4141 1586 3887 
Q 1231 3634 1087 3207 
Q 944 2781 944 2328 
Q 944 1744 1114 1308 
Q 1284 872 1643 656 
Q 2003 441 2422 441 
Q 2931 441 3284 734 
Q 3638 1028 3763 1606 
z
" transform="scale(0.015625)"/>
       <path id="ArialMT-52" d="M 503 0 
L 503 4581 
L 2534 4581 
Q 3147 4581 3465 4457 
Q 3784 4334 3975 4021 
Q 4166 3709 4166 3331 
Q 4166 2844 3850 2509 
Q 3534 2175 2875 2084 
Q 3116 1969 3241 1856 
Q 3506 1613 3744 1247 
L 4541 0 
L 3778 0 
L 3172 953 
Q 2906 1366 2734 1584 
Q 2563 1803 2427 1890 
Q 2291 1978 2150 2013 
Q 2047 2034 1813 2034 
L 1109 2034 
L 1109 0 
L 503 0 
z
M 1109 2559 
L 2413 2559 
Q 2828 2559 3062 2645 
Q 3297 2731 3419 2920 
Q 3541 3109 3541 3331 
Q 3541 3656 3305 3865 
Q 3069 4075 2559 4075 
L 1109 4075 
L 1109 2559 
z
" transform="scale(0.015625)"/>
       <path id="ArialMT-4c" d="M 469 0 
L 469 4581 
L 1075 4581 
L 1075 541 
L 3331 541 
L 3331 0 
L 469 0 
z
" transform="scale(0.015625)"/>
      </defs>
      <use xlink:href="#ArialMT-43"/>
      <use xlink:href="#ArialMT-54" x="72.216797"/>
      <use xlink:href="#ArialMT-52" x="133.300781"/>
      <use xlink:href="#ArialMT-4c" x="205.517578"/>
     </g>
    </g>
   </g>
  </g>
 </g>
 <defs>
  <clipPath id="pe9559ca83b">
   <rect x="52.22" y="24.32" width="448.29622" height="189.57811"/>
  </clipPath>
 </defs>
</svg>
