<?xml version="1.0" encoding="utf-8" standalone="no"?>
<!DOCTYPE svg PUBLIC "-//W3C//DTD SVG 1.1//EN"
  "http://www.w3.org/Graphics/SVG/1.1/DTD/svg11.dtd">
<svg xmlns:xlink="http://www.w3.org/1999/xlink" width="510.23622pt" height="255.11811pt" viewBox="0 0 510.23622 255.11811" xmlns="http://www.w3.org/2000/svg" version="1.1">
 <metadata>
  <rdf:RDF xmlns:dc="http://purl.org/dc/elements/1.1/" xmlns:cc="http://creativecommons.org/ns#" xmlns:rdf="http://www.w3.org/1999/02/22-rdf-syntax-ns#">
   <cc:Work>
    <dc:type rdf:resource="http://purl.org/dc/dcmitype/StillImage"/>
    <dc:date>2022-04-27T00:13:06.004339</dc:date>
    <dc:format>image/svg+xml</dc:format>
    <dc:creator>
     <cc:Agent>
      <dc:title>Matplotlib v3.5.1, https://matplotlib.org/</dc:title>
     </cc:Agent>
    </dc:creator>
   </cc:Work>
  </rdf:RDF>
 </metadata>
 <defs>
  <style type="text/css">*{stroke-linejoin: round; stroke-linecap: butt}</style>
 </defs>
 <g id="figure_1">
  <g id="patch_1">
   <path d="M 0 255.11811 
L 510.23622 255.11811 
L 510.23622 0 
L 0 0 
z
" style="fill: #ffffff"/>
  </g>
  <g id="axes_1">
   <g id="patch_2">
    <path d="M 47.22 213.89811 
L 500.51622 213.89811 
L 500.51622 24.32 
L 47.22 24.32 
z
" style="fill: #ffffff"/>
   </g>
   <g id="matplotlib.axis_1">
    <g id="xtick_1">
     <g id="text_1">
      <!-- 49 -->
      <g style="fill: #444444" transform="translate(74.593458 229.840141)scale(0.09 -0.09)">
       <defs>
        <path id="ArialMT-34" d="M 2069 0 
L 2069 1097 
L 81 1097 
L 81 1613 
L 2172 4581 
L 2631 4581 
L 2631 1613 
L 3250 1613 
L 3250 1097 
L 2631 1097 
L 2631 0 
L 2069 0 
z
M 2069 1613 
L 2069 3678 
L 634 1613 
L 2069 1613 
z
" transform="scale(0.015625)"/>
        <path id="ArialMT-39" d="M 350 1059 
L 891 1109 
Q 959 728 1153 556 
Q 1347 384 1650 384 
Q 1909 384 2104 503 
Q 2300 622 2425 820 
Q 2550 1019 2634 1356 
Q 2719 1694 2719 2044 
Q 2719 2081 2716 2156 
Q 2547 1888 2255 1720 
Q 1963 1553 1622 1553 
Q 1053 1553 659 1965 
Q 266 2378 266 3053 
Q 266 3750 677 4175 
Q 1088 4600 1706 4600 
Q 2153 4600 2523 4359 
Q 2894 4119 3086 3673 
Q 3278 3228 3278 2384 
Q 3278 1506 3087 986 
Q 2897 466 2520 194 
Q 2144 -78 1638 -78 
Q 1100 -78 759 220 
Q 419 519 350 1059 
z
M 2653 3081 
Q 2653 3566 2395 3850 
Q 2138 4134 1775 4134 
Q 1400 4134 1122 3828 
Q 844 3522 844 3034 
Q 844 2597 1108 2323 
Q 1372 2050 1759 2050 
Q 2150 2050 2401 2323 
Q 2653 2597 2653 3081 
z
" transform="scale(0.015625)"/>
       </defs>
       <use xlink:href="#ArialMT-34"/>
       <use xlink:href="#ArialMT-39" x="55.615234"/>
      </g>
     </g>
    </g>
    <g id="xtick_2">
     <g id="text_2">
      <!-- 17 -->
      <g style="fill: #444444" transform="translate(139.350061 229.840141)scale(0.09 -0.09)">
       <defs>
        <path id="ArialMT-31" d="M 2384 0 
L 1822 0 
L 1822 3584 
Q 1619 3391 1289 3197 
Q 959 3003 697 2906 
L 697 3450 
Q 1169 3672 1522 3987 
Q 1875 4303 2022 4600 
L 2384 4600 
L 2384 0 
z
" transform="scale(0.015625)"/>
        <path id="ArialMT-37" d="M 303 3981 
L 303 4522 
L 3269 4522 
L 3269 4084 
Q 2831 3619 2401 2847 
Q 1972 2075 1738 1259 
Q 1569 684 1522 0 
L 944 0 
Q 953 541 1156 1306 
Q 1359 2072 1739 2783 
Q 2119 3494 2547 3981 
L 303 3981 
z
" transform="scale(0.015625)"/>
       </defs>
       <use xlink:href="#ArialMT-31"/>
       <use xlink:href="#ArialMT-37" x="55.615234"/>
      </g>
     </g>
    </g>
    <g id="xtick_3">
     <g id="text_3">
      <!-- 69 -->
      <g style="fill: #444444" transform="translate(204.106664 229.840141)scale(0.09 -0.09)">
       <defs>
        <path id="ArialMT-36" d="M 3184 3459 
L 2625 3416 
Q 2550 3747 2413 3897 
Q 2184 4138 1850 4138 
Q 1581 4138 1378 3988 
Q 1113 3794 959 3422 
Q 806 3050 800 2363 
Q 1003 2672 1297 2822 
Q 1591 2972 1913 2972 
Q 2475 2972 2870 2558 
Q 3266 2144 3266 1488 
Q 3266 1056 3080 686 
Q 2894 316 2569 119 
Q 2244 -78 1831 -78 
Q 1128 -78 684 439 
Q 241 956 241 2144 
Q 241 3472 731 4075 
Q 1159 4600 1884 4600 
Q 2425 4600 2770 4297 
Q 3116 3994 3184 3459 
z
M 888 1484 
Q 888 1194 1011 928 
Q 1134 663 1356 523 
Q 1578 384 1822 384 
Q 2178 384 2434 671 
Q 2691 959 2691 1453 
Q 2691 1928 2437 2201 
Q 2184 2475 1800 2475 
Q 1419 2475 1153 2201 
Q 888 1928 888 1484 
z
" transform="scale(0.015625)"/>
       </defs>
       <use xlink:href="#ArialMT-36"/>
       <use xlink:href="#ArialMT-39" x="55.615234"/>
      </g>
     </g>
    </g>
    <g id="xtick_4">
     <g id="text_4">
      <!-- 15 -->
      <g style="fill: #444444" transform="translate(268.863266 229.840141)scale(0.09 -0.09)">
       <defs>
        <path id="ArialMT-35" d="M 266 1200 
L 856 1250 
Q 922 819 1161 601 
Q 1400 384 1738 384 
Q 2144 384 2425 690 
Q 2706 997 2706 1503 
Q 2706 1984 2436 2262 
Q 2166 2541 1728 2541 
Q 1456 2541 1237 2417 
Q 1019 2294 894 2097 
L 366 2166 
L 809 4519 
L 3088 4519 
L 3088 3981 
L 1259 3981 
L 1013 2750 
Q 1425 3038 1878 3038 
Q 2478 3038 2890 2622 
Q 3303 2206 3303 1553 
Q 3303 931 2941 478 
Q 2500 -78 1738 -78 
Q 1113 -78 717 272 
Q 322 622 266 1200 
z
" transform="scale(0.015625)"/>
       </defs>
       <use xlink:href="#ArialMT-31"/>
       <use xlink:href="#ArialMT-35" x="55.615234"/>
      </g>
     </g>
    </g>
    <g id="xtick_5">
     <g id="text_5">
      <!-- 5 -->
      <g style="fill: #444444" transform="translate(336.122291 229.840141)scale(0.09 -0.09)">
       <use xlink:href="#ArialMT-35"/>
      </g>
     </g>
    </g>
    <g id="xtick_6">
     <g id="text_6">
      <!-- 126 -->
      <g style="fill: #444444" transform="translate(395.87405 229.840141)scale(0.09 -0.09)">
       <defs>
        <path id="ArialMT-32" d="M 3222 541 
L 3222 0 
L 194 0 
Q 188 203 259 391 
Q 375 700 629 1000 
Q 884 1300 1366 1694 
Q 2113 2306 2375 2664 
Q 2638 3022 2638 3341 
Q 2638 3675 2398 3904 
Q 2159 4134 1775 4134 
Q 1369 4134 1125 3890 
Q 881 3647 878 3216 
L 300 3275 
Q 359 3922 746 4261 
Q 1134 4600 1788 4600 
Q 2447 4600 2831 4234 
Q 3216 3869 3216 3328 
Q 3216 3053 3103 2787 
Q 2991 2522 2730 2228 
Q 2469 1934 1863 1422 
Q 1356 997 1212 845 
Q 1069 694 975 541 
L 3222 541 
z
" transform="scale(0.015625)"/>
       </defs>
       <use xlink:href="#ArialMT-31"/>
       <use xlink:href="#ArialMT-32" x="55.615234"/>
       <use xlink:href="#ArialMT-36" x="111.230469"/>
      </g>
     </g>
    </g>
    <g id="xtick_7">
     <g id="text_7">
      <!-- 62 -->
      <g style="fill: #444444" transform="translate(463.133075 229.840141)scale(0.09 -0.09)">
       <use xlink:href="#ArialMT-36"/>
       <use xlink:href="#ArialMT-32" x="55.615234"/>
      </g>
     </g>
    </g>
    <g id="text_8">
     <!-- Patient -->
     <g style="fill: #444444" transform="translate(259.859048 242.070923)scale(0.09 -0.09)">
      <defs>
       <path id="ArialMT-50" d="M 494 0 
L 494 4581 
L 2222 4581 
Q 2678 4581 2919 4538 
Q 3256 4481 3484 4323 
Q 3713 4166 3852 3881 
Q 3991 3597 3991 3256 
Q 3991 2672 3619 2267 
Q 3247 1863 2275 1863 
L 1100 1863 
L 1100 0 
L 494 0 
z
M 1100 2403 
L 2284 2403 
Q 2872 2403 3119 2622 
Q 3366 2841 3366 3238 
Q 3366 3525 3220 3729 
Q 3075 3934 2838 4000 
Q 2684 4041 2272 4041 
L 1100 4041 
L 1100 2403 
z
" transform="scale(0.015625)"/>
       <path id="ArialMT-61" d="M 2588 409 
Q 2275 144 1986 34 
Q 1697 -75 1366 -75 
Q 819 -75 525 192 
Q 231 459 231 875 
Q 231 1119 342 1320 
Q 453 1522 633 1644 
Q 813 1766 1038 1828 
Q 1203 1872 1538 1913 
Q 2219 1994 2541 2106 
Q 2544 2222 2544 2253 
Q 2544 2597 2384 2738 
Q 2169 2928 1744 2928 
Q 1347 2928 1158 2789 
Q 969 2650 878 2297 
L 328 2372 
Q 403 2725 575 2942 
Q 747 3159 1072 3276 
Q 1397 3394 1825 3394 
Q 2250 3394 2515 3294 
Q 2781 3194 2906 3042 
Q 3031 2891 3081 2659 
Q 3109 2516 3109 2141 
L 3109 1391 
Q 3109 606 3145 398 
Q 3181 191 3288 0 
L 2700 0 
Q 2613 175 2588 409 
z
M 2541 1666 
Q 2234 1541 1622 1453 
Q 1275 1403 1131 1340 
Q 988 1278 909 1158 
Q 831 1038 831 891 
Q 831 666 1001 516 
Q 1172 366 1500 366 
Q 1825 366 2078 508 
Q 2331 650 2450 897 
Q 2541 1088 2541 1459 
L 2541 1666 
z
" transform="scale(0.015625)"/>
       <path id="ArialMT-74" d="M 1650 503 
L 1731 6 
Q 1494 -44 1306 -44 
Q 1000 -44 831 53 
Q 663 150 594 308 
Q 525 466 525 972 
L 525 2881 
L 113 2881 
L 113 3319 
L 525 3319 
L 525 4141 
L 1084 4478 
L 1084 3319 
L 1650 3319 
L 1650 2881 
L 1084 2881 
L 1084 941 
Q 1084 700 1114 631 
Q 1144 563 1211 522 
Q 1278 481 1403 481 
Q 1497 481 1650 503 
z
" transform="scale(0.015625)"/>
       <path id="ArialMT-69" d="M 425 3934 
L 425 4581 
L 988 4581 
L 988 3934 
L 425 3934 
z
M 425 0 
L 425 3319 
L 988 3319 
L 988 0 
L 425 0 
z
" transform="scale(0.015625)"/>
       <path id="ArialMT-65" d="M 2694 1069 
L 3275 997 
Q 3138 488 2766 206 
Q 2394 -75 1816 -75 
Q 1088 -75 661 373 
Q 234 822 234 1631 
Q 234 2469 665 2931 
Q 1097 3394 1784 3394 
Q 2450 3394 2872 2941 
Q 3294 2488 3294 1666 
Q 3294 1616 3291 1516 
L 816 1516 
Q 847 969 1125 678 
Q 1403 388 1819 388 
Q 2128 388 2347 550 
Q 2566 713 2694 1069 
z
M 847 1978 
L 2700 1978 
Q 2663 2397 2488 2606 
Q 2219 2931 1791 2931 
Q 1403 2931 1139 2672 
Q 875 2413 847 1978 
z
" transform="scale(0.015625)"/>
       <path id="ArialMT-6e" d="M 422 0 
L 422 3319 
L 928 3319 
L 928 2847 
Q 1294 3394 1984 3394 
Q 2284 3394 2536 3286 
Q 2788 3178 2913 3003 
Q 3038 2828 3088 2588 
Q 3119 2431 3119 2041 
L 3119 0 
L 2556 0 
L 2556 2019 
Q 2556 2363 2490 2533 
Q 2425 2703 2258 2804 
Q 2091 2906 1866 2906 
Q 1506 2906 1245 2678 
Q 984 2450 984 1813 
L 984 0 
L 422 0 
z
" transform="scale(0.015625)"/>
      </defs>
      <use xlink:href="#ArialMT-50"/>
      <use xlink:href="#ArialMT-61" x="66.699219"/>
      <use xlink:href="#ArialMT-74" x="122.314453"/>
      <use xlink:href="#ArialMT-69" x="150.097656"/>
      <use xlink:href="#ArialMT-65" x="172.314453"/>
      <use xlink:href="#ArialMT-6e" x="227.929688"/>
      <use xlink:href="#ArialMT-74" x="283.544922"/>
     </g>
    </g>
   </g>
   <g id="matplotlib.axis_2">
    <g id="ytick_1">
     <g id="text_9">
      <!-- 300 -->
      <g style="fill: #444444" transform="translate(22.705469 195.026982)scale(0.09 -0.09)">
       <defs>
        <path id="ArialMT-33" d="M 269 1209 
L 831 1284 
Q 928 806 1161 595 
Q 1394 384 1728 384 
Q 2125 384 2398 659 
Q 2672 934 2672 1341 
Q 2672 1728 2419 1979 
Q 2166 2231 1775 2231 
Q 1616 2231 1378 2169 
L 1441 2663 
Q 1497 2656 1531 2656 
Q 1891 2656 2178 2843 
Q 2466 3031 2466 3422 
Q 2466 3731 2256 3934 
Q 2047 4138 1716 4138 
Q 1388 4138 1169 3931 
Q 950 3725 888 3313 
L 325 3413 
Q 428 3978 793 4289 
Q 1159 4600 1703 4600 
Q 2078 4600 2393 4439 
Q 2709 4278 2876 4000 
Q 3044 3722 3044 3409 
Q 3044 3113 2884 2869 
Q 2725 2625 2413 2481 
Q 2819 2388 3044 2092 
Q 3269 1797 3269 1353 
Q 3269 753 2831 336 
Q 2394 -81 1725 -81 
Q 1122 -81 723 278 
Q 325 638 269 1209 
z
" transform="scale(0.015625)"/>
        <path id="ArialMT-30" d="M 266 2259 
Q 266 3072 433 3567 
Q 600 4063 929 4331 
Q 1259 4600 1759 4600 
Q 2128 4600 2406 4451 
Q 2684 4303 2865 4023 
Q 3047 3744 3150 3342 
Q 3253 2941 3253 2259 
Q 3253 1453 3087 958 
Q 2922 463 2592 192 
Q 2263 -78 1759 -78 
Q 1097 -78 719 397 
Q 266 969 266 2259 
z
M 844 2259 
Q 844 1131 1108 757 
Q 1372 384 1759 384 
Q 2147 384 2411 759 
Q 2675 1134 2675 2259 
Q 2675 3391 2411 3762 
Q 2147 4134 1753 4134 
Q 1366 4134 1134 3806 
Q 844 3388 844 2259 
z
" transform="scale(0.015625)"/>
       </defs>
       <use xlink:href="#ArialMT-33"/>
       <use xlink:href="#ArialMT-30" x="55.615234"/>
       <use xlink:href="#ArialMT-30" x="111.230469"/>
      </g>
     </g>
    </g>
    <g id="ytick_2">
     <g id="text_10">
      <!-- 400 -->
      <g style="fill: #444444" transform="translate(22.705469 170.767668)scale(0.09 -0.09)">
       <use xlink:href="#ArialMT-34"/>
       <use xlink:href="#ArialMT-30" x="55.615234"/>
       <use xlink:href="#ArialMT-30" x="111.230469"/>
      </g>
     </g>
    </g>
    <g id="ytick_3">
     <g id="text_11">
      <!-- 500 -->
      <g style="fill: #444444" transform="translate(22.705469 146.508355)scale(0.09 -0.09)">
       <use xlink:href="#ArialMT-35"/>
       <use xlink:href="#ArialMT-30" x="55.615234"/>
       <use xlink:href="#ArialMT-30" x="111.230469"/>
      </g>
     </g>
    </g>
    <g id="ytick_4">
     <g id="text_12">
      <!-- 600 -->
      <g style="fill: #444444" transform="translate(22.705469 122.249042)scale(0.09 -0.09)">
       <use xlink:href="#ArialMT-36"/>
       <use xlink:href="#ArialMT-30" x="55.615234"/>
       <use xlink:href="#ArialMT-30" x="111.230469"/>
      </g>
     </g>
    </g>
    <g id="ytick_5">
     <g id="text_13">
      <!-- 700 -->
      <g style="fill: #444444" transform="translate(22.705469 97.989728)scale(0.09 -0.09)">
       <use xlink:href="#ArialMT-37"/>
       <use xlink:href="#ArialMT-30" x="55.615234"/>
       <use xlink:href="#ArialMT-30" x="111.230469"/>
      </g>
     </g>
    </g>
    <g id="ytick_6">
     <g id="text_14">
      <!-- 800 -->
      <g style="fill: #444444" transform="translate(22.705469 73.730415)scale(0.09 -0.09)">
       <defs>
        <path id="ArialMT-38" d="M 1131 2484 
Q 781 2613 612 2850 
Q 444 3088 444 3419 
Q 444 3919 803 4259 
Q 1163 4600 1759 4600 
Q 2359 4600 2725 4251 
Q 3091 3903 3091 3403 
Q 3091 3084 2923 2848 
Q 2756 2613 2416 2484 
Q 2838 2347 3058 2040 
Q 3278 1734 3278 1309 
Q 3278 722 2862 322 
Q 2447 -78 1769 -78 
Q 1091 -78 675 323 
Q 259 725 259 1325 
Q 259 1772 486 2073 
Q 713 2375 1131 2484 
z
M 1019 3438 
Q 1019 3113 1228 2906 
Q 1438 2700 1772 2700 
Q 2097 2700 2305 2904 
Q 2513 3109 2513 3406 
Q 2513 3716 2298 3927 
Q 2084 4138 1766 4138 
Q 1444 4138 1231 3931 
Q 1019 3725 1019 3438 
z
M 838 1322 
Q 838 1081 952 856 
Q 1066 631 1291 507 
Q 1516 384 1775 384 
Q 2178 384 2440 643 
Q 2703 903 2703 1303 
Q 2703 1709 2433 1975 
Q 2163 2241 1756 2241 
Q 1359 2241 1098 1978 
Q 838 1716 838 1322 
z
" transform="scale(0.015625)"/>
       </defs>
       <use xlink:href="#ArialMT-38"/>
       <use xlink:href="#ArialMT-30" x="55.615234"/>
       <use xlink:href="#ArialMT-30" x="111.230469"/>
      </g>
     </g>
    </g>
    <g id="ytick_7">
     <g id="text_15">
      <!-- 900 -->
      <g style="fill: #444444" transform="translate(22.705469 49.471102)scale(0.09 -0.09)">
       <use xlink:href="#ArialMT-39"/>
       <use xlink:href="#ArialMT-30" x="55.615234"/>
       <use xlink:href="#ArialMT-30" x="111.230469"/>
      </g>
     </g>
    </g>
    <g id="text_16">
     <!-- Trimmed Means of M values (TMM) -->
     <g style="fill: #444444" transform="translate(16.81125 190.194993)rotate(-90)scale(0.09 -0.09)">
      <defs>
       <path id="ArialMT-54" d="M 1659 0 
L 1659 4041 
L 150 4041 
L 150 4581 
L 3781 4581 
L 3781 4041 
L 2266 4041 
L 2266 0 
L 1659 0 
z
" transform="scale(0.015625)"/>
       <path id="ArialMT-72" d="M 416 0 
L 416 3319 
L 922 3319 
L 922 2816 
Q 1116 3169 1280 3281 
Q 1444 3394 1641 3394 
Q 1925 3394 2219 3213 
L 2025 2691 
Q 1819 2813 1613 2813 
Q 1428 2813 1281 2702 
Q 1134 2591 1072 2394 
Q 978 2094 978 1738 
L 978 0 
L 416 0 
z
" transform="scale(0.015625)"/>
       <path id="ArialMT-6d" d="M 422 0 
L 422 3319 
L 925 3319 
L 925 2853 
Q 1081 3097 1340 3245 
Q 1600 3394 1931 3394 
Q 2300 3394 2536 3241 
Q 2772 3088 2869 2813 
Q 3263 3394 3894 3394 
Q 4388 3394 4653 3120 
Q 4919 2847 4919 2278 
L 4919 0 
L 4359 0 
L 4359 2091 
Q 4359 2428 4304 2576 
Q 4250 2725 4106 2815 
Q 3963 2906 3769 2906 
Q 3419 2906 3187 2673 
Q 2956 2441 2956 1928 
L 2956 0 
L 2394 0 
L 2394 2156 
Q 2394 2531 2256 2718 
Q 2119 2906 1806 2906 
Q 1569 2906 1367 2781 
Q 1166 2656 1075 2415 
Q 984 2175 984 1722 
L 984 0 
L 422 0 
z
" transform="scale(0.015625)"/>
       <path id="ArialMT-64" d="M 2575 0 
L 2575 419 
Q 2259 -75 1647 -75 
Q 1250 -75 917 144 
Q 584 363 401 755 
Q 219 1147 219 1656 
Q 219 2153 384 2558 
Q 550 2963 881 3178 
Q 1213 3394 1622 3394 
Q 1922 3394 2156 3267 
Q 2391 3141 2538 2938 
L 2538 4581 
L 3097 4581 
L 3097 0 
L 2575 0 
z
M 797 1656 
Q 797 1019 1065 703 
Q 1334 388 1700 388 
Q 2069 388 2326 689 
Q 2584 991 2584 1609 
Q 2584 2291 2321 2609 
Q 2059 2928 1675 2928 
Q 1300 2928 1048 2622 
Q 797 2316 797 1656 
z
" transform="scale(0.015625)"/>
       <path id="ArialMT-20" transform="scale(0.015625)"/>
       <path id="ArialMT-4d" d="M 475 0 
L 475 4581 
L 1388 4581 
L 2472 1338 
Q 2622 884 2691 659 
Q 2769 909 2934 1394 
L 4031 4581 
L 4847 4581 
L 4847 0 
L 4263 0 
L 4263 3834 
L 2931 0 
L 2384 0 
L 1059 3900 
L 1059 0 
L 475 0 
z
" transform="scale(0.015625)"/>
       <path id="ArialMT-73" d="M 197 991 
L 753 1078 
Q 800 744 1014 566 
Q 1228 388 1613 388 
Q 2000 388 2187 545 
Q 2375 703 2375 916 
Q 2375 1106 2209 1216 
Q 2094 1291 1634 1406 
Q 1016 1563 777 1677 
Q 538 1791 414 1992 
Q 291 2194 291 2438 
Q 291 2659 392 2848 
Q 494 3038 669 3163 
Q 800 3259 1026 3326 
Q 1253 3394 1513 3394 
Q 1903 3394 2198 3281 
Q 2494 3169 2634 2976 
Q 2775 2784 2828 2463 
L 2278 2388 
Q 2241 2644 2061 2787 
Q 1881 2931 1553 2931 
Q 1166 2931 1000 2803 
Q 834 2675 834 2503 
Q 834 2394 903 2306 
Q 972 2216 1119 2156 
Q 1203 2125 1616 2013 
Q 2213 1853 2448 1751 
Q 2684 1650 2818 1456 
Q 2953 1263 2953 975 
Q 2953 694 2789 445 
Q 2625 197 2315 61 
Q 2006 -75 1616 -75 
Q 969 -75 630 194 
Q 291 463 197 991 
z
" transform="scale(0.015625)"/>
       <path id="ArialMT-6f" d="M 213 1659 
Q 213 2581 725 3025 
Q 1153 3394 1769 3394 
Q 2453 3394 2887 2945 
Q 3322 2497 3322 1706 
Q 3322 1066 3130 698 
Q 2938 331 2570 128 
Q 2203 -75 1769 -75 
Q 1072 -75 642 372 
Q 213 819 213 1659 
z
M 791 1659 
Q 791 1022 1069 705 
Q 1347 388 1769 388 
Q 2188 388 2466 706 
Q 2744 1025 2744 1678 
Q 2744 2294 2464 2611 
Q 2184 2928 1769 2928 
Q 1347 2928 1069 2612 
Q 791 2297 791 1659 
z
" transform="scale(0.015625)"/>
       <path id="ArialMT-66" d="M 556 0 
L 556 2881 
L 59 2881 
L 59 3319 
L 556 3319 
L 556 3672 
Q 556 4006 616 4169 
Q 697 4388 901 4523 
Q 1106 4659 1475 4659 
Q 1713 4659 2000 4603 
L 1916 4113 
Q 1741 4144 1584 4144 
Q 1328 4144 1222 4034 
Q 1116 3925 1116 3625 
L 1116 3319 
L 1763 3319 
L 1763 2881 
L 1116 2881 
L 1116 0 
L 556 0 
z
" transform="scale(0.015625)"/>
       <path id="ArialMT-76" d="M 1344 0 
L 81 3319 
L 675 3319 
L 1388 1331 
Q 1503 1009 1600 663 
Q 1675 925 1809 1294 
L 2547 3319 
L 3125 3319 
L 1869 0 
L 1344 0 
z
" transform="scale(0.015625)"/>
       <path id="ArialMT-6c" d="M 409 0 
L 409 4581 
L 972 4581 
L 972 0 
L 409 0 
z
" transform="scale(0.015625)"/>
       <path id="ArialMT-75" d="M 2597 0 
L 2597 488 
Q 2209 -75 1544 -75 
Q 1250 -75 995 37 
Q 741 150 617 320 
Q 494 491 444 738 
Q 409 903 409 1263 
L 409 3319 
L 972 3319 
L 972 1478 
Q 972 1038 1006 884 
Q 1059 663 1231 536 
Q 1403 409 1656 409 
Q 1909 409 2131 539 
Q 2353 669 2445 892 
Q 2538 1116 2538 1541 
L 2538 3319 
L 3100 3319 
L 3100 0 
L 2597 0 
z
" transform="scale(0.015625)"/>
       <path id="ArialMT-28" d="M 1497 -1347 
Q 1031 -759 709 28 
Q 388 816 388 1659 
Q 388 2403 628 3084 
Q 909 3875 1497 4659 
L 1900 4659 
Q 1522 4009 1400 3731 
Q 1209 3300 1100 2831 
Q 966 2247 966 1656 
Q 966 153 1900 -1347 
L 1497 -1347 
z
" transform="scale(0.015625)"/>
       <path id="ArialMT-29" d="M 791 -1347 
L 388 -1347 
Q 1322 153 1322 1656 
Q 1322 2244 1188 2822 
Q 1081 3291 891 3722 
Q 769 4003 388 4659 
L 791 4659 
Q 1378 3875 1659 3084 
Q 1900 2403 1900 1659 
Q 1900 816 1576 28 
Q 1253 -759 791 -1347 
z
" transform="scale(0.015625)"/>
      </defs>
      <use xlink:href="#ArialMT-54"/>
      <use xlink:href="#ArialMT-72" x="57.333984"/>
      <use xlink:href="#ArialMT-69" x="90.634766"/>
      <use xlink:href="#ArialMT-6d" x="112.851562"/>
      <use xlink:href="#ArialMT-6d" x="196.152344"/>
      <use xlink:href="#ArialMT-65" x="279.453125"/>
      <use xlink:href="#ArialMT-64" x="335.068359"/>
      <use xlink:href="#ArialMT-20" x="390.683594"/>
      <use xlink:href="#ArialMT-4d" x="418.466797"/>
      <use xlink:href="#ArialMT-65" x="501.767578"/>
      <use xlink:href="#ArialMT-61" x="557.382812"/>
      <use xlink:href="#ArialMT-6e" x="612.998047"/>
      <use xlink:href="#ArialMT-73" x="668.613281"/>
      <use xlink:href="#ArialMT-20" x="718.613281"/>
      <use xlink:href="#ArialMT-6f" x="746.396484"/>
      <use xlink:href="#ArialMT-66" x="802.011719"/>
      <use xlink:href="#ArialMT-20" x="829.794922"/>
      <use xlink:href="#ArialMT-4d" x="857.578125"/>
      <use xlink:href="#ArialMT-20" x="940.878906"/>
      <use xlink:href="#ArialMT-76" x="968.662109"/>
      <use xlink:href="#ArialMT-61" x="1018.662109"/>
      <use xlink:href="#ArialMT-6c" x="1074.277344"/>
      <use xlink:href="#ArialMT-75" x="1096.494141"/>
      <use xlink:href="#ArialMT-65" x="1152.109375"/>
      <use xlink:href="#ArialMT-73" x="1207.724609"/>
      <use xlink:href="#ArialMT-20" x="1257.724609"/>
      <use xlink:href="#ArialMT-28" x="1285.507812"/>
      <use xlink:href="#ArialMT-54" x="1318.808594"/>
      <use xlink:href="#ArialMT-4d" x="1379.892578"/>
      <use xlink:href="#ArialMT-4d" x="1463.193359"/>
      <use xlink:href="#ArialMT-29" x="1546.494141"/>
     </g>
    </g>
   </g>
   <g id="PolyCollection_1">
    <defs>
     <path id="m408a15433a" d="M 84.944052 -126.924804 
L 74.252551 -126.924804 
L 74.137223 -127.886987 
L 74.028895 -128.84917 
L 73.928037 -129.811353 
L 73.835084 -130.773536 
L 73.750442 -131.735719 
L 73.674478 -132.697902 
L 73.607523 -133.660085 
L 73.549865 -134.622268 
L 73.501752 -135.584451 
L 73.463386 -136.546634 
L 73.434924 -137.508817 
L 73.416477 -138.471 
L 73.408111 -139.433183 
L 73.409842 -140.395366 
L 73.421641 -141.357549 
L 73.443432 -142.319732 
L 73.475094 -143.281915 
L 73.516461 -144.244098 
L 73.567322 -145.206281 
L 73.627426 -146.168464 
L 73.696482 -147.130647 
L 73.774161 -148.09283 
L 73.860096 -149.055013 
L 73.953891 -150.017197 
L 74.055116 -150.97938 
L 74.163315 -151.941563 
L 74.278008 -152.903746 
L 74.398691 -153.865929 
L 74.524844 -154.828112 
L 74.655929 -155.790295 
L 74.791399 -156.752478 
L 74.930697 -157.714661 
L 75.073259 -158.676844 
L 75.218521 -159.639027 
L 75.365917 -160.60121 
L 75.514888 -161.563393 
L 75.664879 -162.525576 
L 75.815346 -163.487759 
L 75.965757 -164.449942 
L 76.115596 -165.412125 
L 76.264363 -166.374308 
L 76.411576 -167.336491 
L 76.556778 -168.298674 
L 76.699533 -169.260857 
L 76.839431 -170.22304 
L 76.976086 -171.185223 
L 77.109143 -172.147406 
L 77.238272 -173.109589 
L 77.363174 -174.071772 
L 77.48358 -175.033955 
L 77.59925 -175.996138 
L 77.709973 -176.958321 
L 77.815572 -177.920504 
L 77.915896 -178.882687 
L 78.010825 -179.84487 
L 78.100268 -180.807053 
L 78.184163 -181.769236 
L 78.262475 -182.731419 
L 78.335195 -183.693602 
L 78.402342 -184.655785 
L 78.463957 -185.617968 
L 78.520106 -186.580151 
L 78.570877 -187.542335 
L 78.616381 -188.504518 
L 78.656748 -189.466701 
L 78.692125 -190.428884 
L 78.722678 -191.391067 
L 78.748592 -192.35325 
L 78.770062 -193.315433 
L 78.7873 -194.277616 
L 78.800529 -195.239799 
L 78.809984 -196.201982 
L 78.815909 -197.164165 
L 78.818558 -198.126348 
L 78.81819 -199.088531 
L 78.815071 -200.050714 
L 78.809472 -201.012897 
L 78.801665 -201.97508 
L 78.791926 -202.937263 
L 78.780532 -203.899446 
L 78.767757 -204.861629 
L 78.753873 -205.823812 
L 78.739149 -206.785995 
L 78.72385 -207.748178 
L 78.708232 -208.710361 
L 78.692547 -209.672544 
L 78.677034 -210.634727 
L 78.661925 -211.59691 
L 78.647439 -212.559093 
L 78.633781 -213.521276 
L 78.621146 -214.483459 
L 78.609711 -215.445642 
L 78.599639 -216.407825 
L 78.591076 -217.370008 
L 78.584152 -218.332191 
L 78.578978 -219.294374 
L 78.575647 -220.256557 
L 78.574236 -221.21874 
L 78.5748 -222.180923 
L 80.621803 -222.180923 
L 80.621803 -222.180923 
L 80.622367 -221.21874 
L 80.620956 -220.256557 
L 80.617625 -219.294374 
L 80.612451 -218.332191 
L 80.605527 -217.370008 
L 80.596964 -216.407825 
L 80.586892 -215.445642 
L 80.575457 -214.483459 
L 80.562822 -213.521276 
L 80.549164 -212.559093 
L 80.534678 -211.59691 
L 80.519569 -210.634727 
L 80.504056 -209.672544 
L 80.48837 -208.710361 
L 80.472753 -207.748178 
L 80.457454 -206.785995 
L 80.44273 -205.823812 
L 80.428846 -204.861629 
L 80.416071 -203.899446 
L 80.404676 -202.937263 
L 80.394938 -201.97508 
L 80.387131 -201.012897 
L 80.381532 -200.050714 
L 80.378413 -199.088531 
L 80.378045 -198.126348 
L 80.380693 -197.164165 
L 80.386619 -196.201982 
L 80.396074 -195.239799 
L 80.409303 -194.277616 
L 80.426541 -193.315433 
L 80.448011 -192.35325 
L 80.473924 -191.391067 
L 80.504478 -190.428884 
L 80.539855 -189.466701 
L 80.580222 -188.504518 
L 80.625726 -187.542335 
L 80.676497 -186.580151 
L 80.732646 -185.617968 
L 80.794261 -184.655785 
L 80.861408 -183.693602 
L 80.934128 -182.731419 
L 81.01244 -181.769236 
L 81.096335 -180.807053 
L 81.185778 -179.84487 
L 81.280707 -178.882687 
L 81.381031 -177.920504 
L 81.48663 -176.958321 
L 81.597353 -175.996138 
L 81.713023 -175.033955 
L 81.833429 -174.071772 
L 81.958331 -173.109589 
L 82.08746 -172.147406 
L 82.220517 -171.185223 
L 82.357172 -170.22304 
L 82.49707 -169.260857 
L 82.639825 -168.298674 
L 82.785027 -167.336491 
L 82.93224 -166.374308 
L 83.081007 -165.412125 
L 83.230845 -164.449942 
L 83.381257 -163.487759 
L 83.531724 -162.525576 
L 83.681715 -161.563393 
L 83.830686 -160.60121 
L 83.978082 -159.639027 
L 84.123344 -158.676844 
L 84.265906 -157.714661 
L 84.405204 -156.752478 
L 84.540674 -155.790295 
L 84.671759 -154.828112 
L 84.797912 -153.865929 
L 84.918595 -152.903746 
L 85.033287 -151.941563 
L 85.141487 -150.97938 
L 85.242712 -150.017197 
L 85.336507 -149.055013 
L 85.422442 -148.09283 
L 85.500121 -147.130647 
L 85.569177 -146.168464 
L 85.629281 -145.206281 
L 85.680142 -144.244098 
L 85.721509 -143.281915 
L 85.753171 -142.319732 
L 85.774962 -141.357549 
L 85.786761 -140.395366 
L 85.788492 -139.433183 
L 85.780126 -138.471 
L 85.761679 -137.508817 
L 85.733217 -136.546634 
L 85.694851 -135.584451 
L 85.646738 -134.622268 
L 85.58908 -133.660085 
L 85.522125 -132.697902 
L 85.446161 -131.735719 
L 85.361519 -130.773536 
L 85.268566 -129.811353 
L 85.167708 -128.84917 
L 85.05938 -127.886987 
L 84.944052 -126.924804 
z
" style="stroke: #999999; stroke-width: 2"/>
    </defs>
    <g clip-path="url(#p2131d61b8d)">
     <use xlink:href="#m408a15433a" x="0" y="255.11811" style="fill: #ffffff; stroke: #999999; stroke-width: 2"/>
    </g>
   </g>
   <g id="PolyCollection_2">
    <defs>
     <path id="m786cd9c190" d="M 155.683143 -67.263203 
L 133.026665 -67.263203 
L 132.554759 -67.507098 
L 132.078782 -67.750993 
L 131.599692 -67.994888 
L 131.118507 -68.238782 
L 130.636302 -68.482677 
L 130.154206 -68.726572 
L 129.673402 -68.970467 
L 129.195125 -69.214362 
L 128.720656 -69.458257 
L 128.251319 -69.702152 
L 127.788477 -69.946047 
L 127.333525 -70.189942 
L 126.887884 -70.433837 
L 126.452992 -70.677731 
L 126.0303 -70.921626 
L 125.62126 -71.165521 
L 125.227319 -71.409416 
L 124.849908 -71.653311 
L 124.490431 -71.897206 
L 124.15026 -72.141101 
L 123.830721 -72.384996 
L 123.533087 -72.628891 
L 123.258566 -72.872786 
L 123.008297 -73.11668 
L 122.783334 -73.360575 
L 122.584647 -73.60447 
L 122.413104 -73.848365 
L 122.269476 -74.09226 
L 122.154422 -74.336155 
L 122.068487 -74.58005 
L 122.012098 -74.823945 
L 121.985563 -75.06784 
L 121.989062 -75.311735 
L 122.022651 -75.555629 
L 122.086261 -75.799524 
L 122.179692 -76.043419 
L 122.302622 -76.287314 
L 122.454602 -76.531209 
L 122.635061 -76.775104 
L 122.843306 -77.018999 
L 123.078528 -77.262894 
L 123.339806 -77.506789 
L 123.626108 -77.750684 
L 123.936298 -77.994578 
L 124.269141 -78.238473 
L 124.623309 -78.482368 
L 124.997383 -78.726263 
L 125.389866 -78.970158 
L 125.799186 -79.214053 
L 126.223703 -79.457948 
L 126.661719 -79.701843 
L 127.111483 -79.945738 
L 127.571203 -80.189633 
L 128.039056 -80.433527 
L 128.513192 -80.677422 
L 128.991751 -80.921317 
L 129.472869 -81.165212 
L 129.954692 -81.409107 
L 130.435384 -81.653002 
L 130.913143 -81.896897 
L 131.386208 -82.140792 
L 131.852876 -82.384687 
L 132.311508 -82.628582 
L 132.760546 -82.872476 
L 133.198521 -83.116371 
L 133.624066 -83.360266 
L 134.035926 -83.604161 
L 134.432965 -83.848056 
L 134.814179 -84.091951 
L 135.178699 -84.335846 
L 135.525804 -84.579741 
L 135.854918 -84.823636 
L 136.165621 -85.067531 
L 136.457646 -85.311425 
L 136.730885 -85.55532 
L 136.985382 -85.799215 
L 137.221336 -86.04311 
L 137.439092 -86.287005 
L 137.63914 -86.5309 
L 137.822103 -86.774795 
L 137.988731 -87.01869 
L 138.139889 -87.262585 
L 138.276545 -87.50648 
L 138.399761 -87.750374 
L 138.510673 -87.994269 
L 138.610483 -88.238164 
L 138.700439 -88.482059 
L 138.781823 -88.725954 
L 138.855931 -88.969849 
L 138.924063 -89.213744 
L 138.987506 -89.457639 
L 139.047517 -89.701534 
L 139.10531 -89.945429 
L 139.162045 -90.189323 
L 139.218816 -90.433218 
L 139.276635 -90.677113 
L 139.336432 -90.921008 
L 139.399036 -91.164903 
L 139.465178 -91.408798 
L 149.244631 -91.408798 
L 149.244631 -91.408798 
L 149.310773 -91.164903 
L 149.373377 -90.921008 
L 149.433173 -90.677113 
L 149.490993 -90.433218 
L 149.547764 -90.189323 
L 149.604499 -89.945429 
L 149.662292 -89.701534 
L 149.722303 -89.457639 
L 149.785745 -89.213744 
L 149.853878 -88.969849 
L 149.927986 -88.725954 
L 150.009369 -88.482059 
L 150.099326 -88.238164 
L 150.199136 -87.994269 
L 150.310048 -87.750374 
L 150.433264 -87.50648 
L 150.56992 -87.262585 
L 150.721078 -87.01869 
L 150.887706 -86.774795 
L 151.070669 -86.5309 
L 151.270717 -86.287005 
L 151.488473 -86.04311 
L 151.724427 -85.799215 
L 151.978924 -85.55532 
L 152.252163 -85.311425 
L 152.544188 -85.067531 
L 152.854891 -84.823636 
L 153.184005 -84.579741 
L 153.531109 -84.335846 
L 153.89563 -84.091951 
L 154.276844 -83.848056 
L 154.673883 -83.604161 
L 155.085742 -83.360266 
L 155.511288 -83.116371 
L 155.949263 -82.872476 
L 156.398301 -82.628582 
L 156.856933 -82.384687 
L 157.3236 -82.140792 
L 157.796666 -81.896897 
L 158.274425 -81.653002 
L 158.755117 -81.409107 
L 159.23694 -81.165212 
L 159.718058 -80.921317 
L 160.196617 -80.677422 
L 160.670753 -80.433527 
L 161.138606 -80.189633 
L 161.598326 -79.945738 
L 162.04809 -79.701843 
L 162.486106 -79.457948 
L 162.910623 -79.214053 
L 163.319943 -78.970158 
L 163.712426 -78.726263 
L 164.0865 -78.482368 
L 164.440667 -78.238473 
L 164.77351 -77.994578 
L 165.083701 -77.750684 
L 165.370003 -77.506789 
L 165.631281 -77.262894 
L 165.866503 -77.018999 
L 166.074748 -76.775104 
L 166.255206 -76.531209 
L 166.407186 -76.287314 
L 166.530116 -76.043419 
L 166.623548 -75.799524 
L 166.687157 -75.555629 
L 166.720747 -75.311735 
L 166.724246 -75.06784 
L 166.69771 -74.823945 
L 166.641322 -74.58005 
L 166.555387 -74.336155 
L 166.440332 -74.09226 
L 166.296704 -73.848365 
L 166.125162 -73.60447 
L 165.926474 -73.360575 
L 165.701512 -73.11668 
L 165.451242 -72.872786 
L 165.176722 -72.628891 
L 164.879088 -72.384996 
L 164.559549 -72.141101 
L 164.219378 -71.897206 
L 163.859901 -71.653311 
L 163.482489 -71.409416 
L 163.088549 -71.165521 
L 162.679509 -70.921626 
L 162.256817 -70.677731 
L 161.821925 -70.433837 
L 161.376284 -70.189942 
L 160.921331 -69.946047 
L 160.45849 -69.702152 
L 159.989153 -69.458257 
L 159.514684 -69.214362 
L 159.036406 -68.970467 
L 158.555603 -68.726572 
L 158.073507 -68.482677 
L 157.591301 -68.238782 
L 157.110117 -67.994888 
L 156.631027 -67.750993 
L 156.155049 -67.507098 
L 155.683143 -67.263203 
z
" style="stroke: #999999; stroke-width: 2"/>
    </defs>
    <g clip-path="url(#p2131d61b8d)">
     <use xlink:href="#m786cd9c190" x="0" y="255.11811" style="fill: #ffffff; stroke: #999999; stroke-width: 2"/>
    </g>
   </g>
   <g id="PolyCollection_3">
    <defs>
     <path id="m66107e061f" d="M 220.300029 -123.701559 
L 197.922986 -123.701559 
L 197.537217 -123.947526 
L 197.151932 -124.193493 
L 196.768035 -124.439459 
L 196.386461 -124.685426 
L 196.008174 -124.931393 
L 195.634164 -125.17736 
L 195.265441 -125.423327 
L 194.903037 -125.669293 
L 194.547996 -125.91526 
L 194.201372 -126.161227 
L 193.864226 -126.407194 
L 193.537618 -126.653161 
L 193.222603 -126.899127 
L 192.920227 -127.145094 
L 192.631518 -127.391061 
L 192.35748 -127.637028 
L 192.099089 -127.882995 
L 191.857286 -128.128961 
L 191.63297 -128.374928 
L 191.426989 -128.620895 
L 191.240136 -128.866862 
L 191.073145 -129.112829 
L 190.926677 -129.358795 
L 190.801322 -129.604762 
L 190.697589 -129.850729 
L 190.615898 -130.096696 
L 190.556583 -130.342663 
L 190.519877 -130.588629 
L 190.505918 -130.834596 
L 190.514738 -131.080563 
L 190.546264 -131.32653 
L 190.600315 -131.572496 
L 190.6766 -131.818463 
L 190.77472 -132.06443 
L 190.894165 -132.310397 
L 191.03432 -132.556364 
L 191.194461 -132.80233 
L 191.373764 -133.048297 
L 191.571305 -133.294264 
L 191.786067 -133.540231 
L 192.016944 -133.786198 
L 192.262752 -134.032164 
L 192.522229 -134.278131 
L 192.794049 -134.524098 
L 193.076829 -134.770065 
L 193.369139 -135.016032 
L 193.669509 -135.261998 
L 193.976444 -135.507965 
L 194.288431 -135.753932 
L 194.60395 -135.999899 
L 194.92149 -136.245866 
L 195.239553 -136.491832 
L 195.556669 -136.737799 
L 195.871408 -136.983766 
L 196.182388 -137.229733 
L 196.488286 -137.4757 
L 196.78785 -137.721666 
L 197.079904 -137.967633 
L 197.363361 -138.2136 
L 197.637226 -138.459567 
L 197.90061 -138.705534 
L 198.152727 -138.9515 
L 198.392906 -139.197467 
L 198.620593 -139.443434 
L 198.835352 -139.689401 
L 199.036872 -139.935367 
L 199.22496 -140.181334 
L 199.399548 -140.427301 
L 199.560687 -140.673268 
L 199.708548 -140.919235 
L 199.843413 -141.165201 
L 199.965677 -141.411168 
L 200.075836 -141.657135 
L 200.174485 -141.903102 
L 200.262309 -142.149069 
L 200.340075 -142.395035 
L 200.408622 -142.641002 
L 200.468853 -142.886969 
L 200.521725 -143.132936 
L 200.568238 -143.378903 
L 200.609424 -143.624869 
L 200.64634 -143.870836 
L 200.680052 -144.116803 
L 200.711628 -144.36277 
L 200.742126 -144.608737 
L 200.772587 -144.854703 
L 200.804019 -145.10067 
L 200.837395 -145.346637 
L 200.873639 -145.592604 
L 200.913621 -145.838571 
L 200.958149 -146.084537 
L 201.007963 -146.330504 
L 201.063728 -146.576471 
L 201.126032 -146.822438 
L 201.19538 -147.068405 
L 201.272192 -147.314371 
L 201.356801 -147.560338 
L 201.449453 -147.806305 
L 201.550307 -148.052272 
L 216.672707 -148.052272 
L 216.672707 -148.052272 
L 216.773562 -147.806305 
L 216.866214 -147.560338 
L 216.950823 -147.314371 
L 217.027635 -147.068405 
L 217.096982 -146.822438 
L 217.159286 -146.576471 
L 217.215051 -146.330504 
L 217.264865 -146.084537 
L 217.309394 -145.838571 
L 217.349376 -145.592604 
L 217.38562 -145.346637 
L 217.418996 -145.10067 
L 217.450428 -144.854703 
L 217.480888 -144.608737 
L 217.511387 -144.36277 
L 217.542963 -144.116803 
L 217.576675 -143.870836 
L 217.613591 -143.624869 
L 217.654777 -143.378903 
L 217.70129 -143.132936 
L 217.754161 -142.886969 
L 217.814392 -142.641002 
L 217.882939 -142.395035 
L 217.960705 -142.149069 
L 218.04853 -141.903102 
L 218.147179 -141.657135 
L 218.257338 -141.411168 
L 218.379602 -141.165201 
L 218.514467 -140.919235 
L 218.662327 -140.673268 
L 218.823467 -140.427301 
L 218.998055 -140.181334 
L 219.186143 -139.935367 
L 219.387662 -139.689401 
L 219.602422 -139.443434 
L 219.830109 -139.197467 
L 220.070288 -138.9515 
L 220.322405 -138.705534 
L 220.585788 -138.459567 
L 220.859654 -138.2136 
L 221.143111 -137.967633 
L 221.435165 -137.721666 
L 221.734729 -137.4757 
L 222.040627 -137.229733 
L 222.351607 -136.983766 
L 222.666346 -136.737799 
L 222.983462 -136.491832 
L 223.301525 -136.245866 
L 223.619064 -135.999899 
L 223.934584 -135.753932 
L 224.246571 -135.507965 
L 224.553505 -135.261998 
L 224.853876 -135.016032 
L 225.146185 -134.770065 
L 225.428966 -134.524098 
L 225.700786 -134.278131 
L 225.960263 -134.032164 
L 226.20607 -133.786198 
L 226.436948 -133.540231 
L 226.65171 -133.294264 
L 226.849251 -133.048297 
L 227.028553 -132.80233 
L 227.188695 -132.556364 
L 227.328849 -132.310397 
L 227.448295 -132.06443 
L 227.546415 -131.818463 
L 227.6227 -131.572496 
L 227.67675 -131.32653 
L 227.708276 -131.080563 
L 227.717096 -130.834596 
L 227.703137 -130.588629 
L 227.666432 -130.342663 
L 227.607116 -130.096696 
L 227.525426 -129.850729 
L 227.421692 -129.604762 
L 227.296337 -129.358795 
L 227.14987 -129.112829 
L 226.982878 -128.866862 
L 226.796026 -128.620895 
L 226.590045 -128.374928 
L 226.365728 -128.128961 
L 226.123926 -127.882995 
L 225.865535 -127.637028 
L 225.591497 -127.391061 
L 225.302787 -127.145094 
L 225.000411 -126.899127 
L 224.685397 -126.653161 
L 224.358789 -126.407194 
L 224.021643 -126.161227 
L 223.675019 -125.91526 
L 223.319978 -125.669293 
L 222.957573 -125.423327 
L 222.588851 -125.17736 
L 222.21484 -124.931393 
L 221.836554 -124.685426 
L 221.45498 -124.439459 
L 221.071082 -124.193493 
L 220.685797 -123.947526 
L 220.300029 -123.701559 
z
" style="stroke: #999999; stroke-width: 2"/>
    </defs>
    <g clip-path="url(#p2131d61b8d)">
     <use xlink:href="#m66107e061f" x="0" y="255.11811" style="fill: #ffffff; stroke: #999999; stroke-width: 2"/>
    </g>
   </g>
   <g id="PolyCollection_4">
    <defs>
     <path id="mb78493e7dd" d="M 276.747089 -87.749392 
L 270.989131 -87.749392 
L 270.932162 -88.882217 
L 270.877502 -90.015042 
L 270.825284 -91.147867 
L 270.775632 -92.280692 
L 270.728662 -93.413517 
L 270.684484 -94.546341 
L 270.643195 -95.679166 
L 270.604885 -96.811991 
L 270.569634 -97.944816 
L 270.537514 -99.077641 
L 270.508584 -100.210466 
L 270.482895 -101.343291 
L 270.460487 -102.476116 
L 270.441392 -103.608941 
L 270.425628 -104.741765 
L 270.413205 -105.87459 
L 270.404123 -107.007415 
L 270.39837 -108.14024 
L 270.395926 -109.273065 
L 270.396759 -110.40589 
L 270.400828 -111.538715 
L 270.40808 -112.67154 
L 270.418455 -113.804365 
L 270.431881 -114.937189 
L 270.448278 -116.070014 
L 270.467554 -117.202839 
L 270.489611 -118.335664 
L 270.51434 -119.468489 
L 270.541623 -120.601314 
L 270.571334 -121.734139 
L 270.60334 -122.866964 
L 270.637498 -123.999789 
L 270.67366 -125.132613 
L 270.711669 -126.265438 
L 270.751362 -127.398263 
L 270.792571 -128.531088 
L 270.835122 -129.663913 
L 270.878837 -130.796738 
L 270.923534 -131.929563 
L 270.969028 -133.062388 
L 271.015132 -134.195213 
L 271.061656 -135.328037 
L 271.108411 -136.460862 
L 271.155209 -137.593687 
L 271.201863 -138.726512 
L 271.248189 -139.859337 
L 271.294005 -140.992162 
L 271.339136 -142.124987 
L 271.383411 -143.257812 
L 271.426667 -144.390637 
L 271.46875 -145.523461 
L 271.509511 -146.656286 
L 271.548816 -147.789111 
L 271.586539 -148.921936 
L 271.622566 -150.054761 
L 271.656797 -151.187586 
L 271.689144 -152.320411 
L 271.719536 -153.453236 
L 271.747912 -154.586061 
L 271.774232 -155.718885 
L 271.798466 -156.85171 
L 271.820604 -157.984535 
L 271.84065 -159.11736 
L 271.858625 -160.250185 
L 271.874565 -161.38301 
L 271.888522 -162.515835 
L 271.900564 -163.64866 
L 271.910771 -164.781485 
L 271.919241 -165.914309 
L 271.926083 -167.047134 
L 271.931417 -168.179959 
L 271.935378 -169.312784 
L 271.938108 -170.445609 
L 271.939761 -171.578434 
L 271.940497 -172.711259 
L 271.940482 -173.844084 
L 271.93989 -174.976909 
L 271.938896 -176.109733 
L 271.937679 -177.242558 
L 271.936418 -178.375383 
L 271.935291 -179.508208 
L 271.934474 -180.641033 
L 271.934142 -181.773858 
L 271.934461 -182.906683 
L 271.935594 -184.039508 
L 271.937695 -185.172333 
L 271.940909 -186.305157 
L 271.945372 -187.437982 
L 271.95121 -188.570807 
L 271.958534 -189.703632 
L 271.967447 -190.836457 
L 271.978036 -191.969282 
L 271.990375 -193.102107 
L 272.004524 -194.234932 
L 272.020528 -195.367757 
L 272.038419 -196.500581 
L 272.058213 -197.633406 
L 272.079913 -198.766231 
L 272.103506 -199.899056 
L 275.632714 -199.899056 
L 275.632714 -199.899056 
L 275.656308 -198.766231 
L 275.678007 -197.633406 
L 275.697802 -196.500581 
L 275.715692 -195.367757 
L 275.731697 -194.234932 
L 275.745845 -193.102107 
L 275.758184 -191.969282 
L 275.768773 -190.836457 
L 275.777686 -189.703632 
L 275.785011 -188.570807 
L 275.790848 -187.437982 
L 275.795312 -186.305157 
L 275.798526 -185.172333 
L 275.800626 -184.039508 
L 275.801759 -182.906683 
L 275.802079 -181.773858 
L 275.801746 -180.641033 
L 275.80093 -179.508208 
L 275.799803 -178.375383 
L 275.798541 -177.242558 
L 275.797324 -176.109733 
L 275.79633 -174.976909 
L 275.795738 -173.844084 
L 275.795724 -172.711259 
L 275.79646 -171.578434 
L 275.798112 -170.445609 
L 275.800843 -169.312784 
L 275.804804 -168.179959 
L 275.810138 -167.047134 
L 275.816979 -165.914309 
L 275.825449 -164.781485 
L 275.835657 -163.64866 
L 275.847698 -162.515835 
L 275.861655 -161.38301 
L 275.877595 -160.250185 
L 275.89557 -159.11736 
L 275.915616 -157.984535 
L 275.937754 -156.85171 
L 275.961989 -155.718885 
L 275.988308 -154.586061 
L 276.016685 -153.453236 
L 276.047076 -152.320411 
L 276.079424 -151.187586 
L 276.113655 -150.054761 
L 276.149682 -148.921936 
L 276.187405 -147.789111 
L 276.226709 -146.656286 
L 276.267471 -145.523461 
L 276.309553 -144.390637 
L 276.352809 -143.257812 
L 276.397084 -142.124987 
L 276.442215 -140.992162 
L 276.488031 -139.859337 
L 276.534357 -138.726512 
L 276.581011 -137.593687 
L 276.627809 -136.460862 
L 276.674565 -135.328037 
L 276.721089 -134.195213 
L 276.767192 -133.062388 
L 276.812686 -131.929563 
L 276.857383 -130.796738 
L 276.901099 -129.663913 
L 276.94365 -128.531088 
L 276.984859 -127.398263 
L 277.024552 -126.265438 
L 277.062561 -125.132613 
L 277.098722 -123.999789 
L 277.13288 -122.866964 
L 277.164886 -121.734139 
L 277.194598 -120.601314 
L 277.221881 -119.468489 
L 277.24661 -118.335664 
L 277.268666 -117.202839 
L 277.287943 -116.070014 
L 277.304339 -114.937189 
L 277.317765 -113.804365 
L 277.32814 -112.67154 
L 277.335393 -111.538715 
L 277.339461 -110.40589 
L 277.340294 -109.273065 
L 277.33785 -108.14024 
L 277.332098 -107.007415 
L 277.323015 -105.87459 
L 277.310593 -104.741765 
L 277.294829 -103.608941 
L 277.275733 -102.476116 
L 277.253326 -101.343291 
L 277.227637 -100.210466 
L 277.198707 -99.077641 
L 277.166586 -97.944816 
L 277.131336 -96.811991 
L 277.093026 -95.679166 
L 277.051737 -94.546341 
L 277.007558 -93.413517 
L 276.960589 -92.280692 
L 276.910937 -91.147867 
L 276.858719 -90.015042 
L 276.804059 -88.882217 
L 276.747089 -87.749392 
z
" style="stroke: #999999; stroke-width: 2"/>
    </defs>
    <g clip-path="url(#p2131d61b8d)">
     <use xlink:href="#mb78493e7dd" x="0" y="255.11811" style="fill: #ffffff; stroke: #999999; stroke-width: 2"/>
    </g>
   </g>
   <g id="PolyCollection_5">
    <defs>
     <path id="m7ca15f3ebd" d="M 344.664321 -154.733576 
L 332.585106 -154.733576 
L 332.512972 -155.055815 
L 332.445403 -155.378054 
L 332.3824 -155.700294 
L 332.32393 -156.022533 
L 332.269935 -156.344773 
L 332.220325 -156.667012 
L 332.174979 -156.989251 
L 332.133748 -157.311491 
L 332.096453 -157.63373 
L 332.062887 -157.95597 
L 332.032812 -158.278209 
L 332.005967 -158.600449 
L 331.982063 -158.922688 
L 331.960788 -159.244927 
L 331.941806 -159.567167 
L 331.924762 -159.889406 
L 331.909283 -160.211646 
L 331.894978 -160.533885 
L 331.881443 -160.856124 
L 331.868264 -161.178364 
L 331.855018 -161.500603 
L 331.841276 -161.822843 
L 331.826607 -162.145082 
L 331.81058 -162.467322 
L 331.792767 -162.789561 
L 331.772749 -163.1118 
L 331.750114 -163.43404 
L 331.724465 -163.756279 
L 331.695419 -164.078519 
L 331.662614 -164.400758 
L 331.625709 -164.722997 
L 331.584388 -165.045237 
L 331.538361 -165.367476 
L 331.487372 -165.689716 
L 331.431194 -166.011955 
L 331.369635 -166.334195 
L 331.302541 -166.656434 
L 331.229796 -166.978673 
L 331.151325 -167.300913 
L 331.067093 -167.623152 
L 330.977107 -167.945392 
L 330.881419 -168.267631 
L 330.780123 -168.58987 
L 330.673358 -168.91211 
L 330.561304 -169.234349 
L 330.444187 -169.556589 
L 330.322275 -169.878828 
L 330.195876 -170.201067 
L 330.065338 -170.523307 
L 329.93105 -170.845546 
L 329.793435 -171.167786 
L 329.652952 -171.490025 
L 329.510091 -171.812265 
L 329.365372 -172.134504 
L 329.219342 -172.456743 
L 329.072571 -172.778983 
L 328.92565 -173.101222 
L 328.779187 -173.423462 
L 328.633804 -173.745701 
L 328.490134 -174.06794 
L 328.348813 -174.39018 
L 328.210484 -174.712419 
L 328.075787 -175.034659 
L 327.945358 -175.356898 
L 327.819825 -175.679138 
L 327.699803 -176.001377 
L 327.585892 -176.323616 
L 327.478675 -176.645856 
L 327.37871 -176.968095 
L 327.286533 -177.290335 
L 327.202649 -177.612574 
L 327.127532 -177.934813 
L 327.061626 -178.257053 
L 327.005334 -178.579292 
L 326.959026 -178.901532 
L 326.923027 -179.223771 
L 326.897626 -179.546011 
L 326.883064 -179.86825 
L 326.879542 -180.190489 
L 326.887216 -180.512729 
L 326.906194 -180.834968 
L 326.936543 -181.157208 
L 326.978281 -181.479447 
L 327.031384 -181.801686 
L 327.095782 -182.123926 
L 327.171363 -182.446165 
L 327.257971 -182.768405 
L 327.355411 -183.090644 
L 327.463447 -183.412883 
L 327.581807 -183.735123 
L 327.710181 -184.057362 
L 327.848229 -184.379602 
L 327.995575 -184.701841 
L 328.151818 -185.024081 
L 328.316528 -185.34632 
L 328.489253 -185.668559 
L 328.669518 -185.990799 
L 328.856831 -186.313038 
L 329.050683 -186.635278 
L 348.198743 -186.635278 
L 348.198743 -186.635278 
L 348.392595 -186.313038 
L 348.579908 -185.990799 
L 348.760173 -185.668559 
L 348.932898 -185.34632 
L 349.097609 -185.024081 
L 349.253852 -184.701841 
L 349.401198 -184.379602 
L 349.539245 -184.057362 
L 349.66762 -183.735123 
L 349.785979 -183.412883 
L 349.894015 -183.090644 
L 349.991455 -182.768405 
L 350.078063 -182.446165 
L 350.153644 -182.123926 
L 350.218042 -181.801686 
L 350.271145 -181.479447 
L 350.312883 -181.157208 
L 350.343232 -180.834968 
L 350.36221 -180.512729 
L 350.369884 -180.190489 
L 350.366362 -179.86825 
L 350.351801 -179.546011 
L 350.326399 -179.223771 
L 350.290401 -178.901532 
L 350.244092 -178.579292 
L 350.187801 -178.257053 
L 350.121894 -177.934813 
L 350.046778 -177.612574 
L 349.962893 -177.290335 
L 349.870716 -176.968095 
L 349.770752 -176.645856 
L 349.663534 -176.323616 
L 349.549624 -176.001377 
L 349.429602 -175.679138 
L 349.304068 -175.356898 
L 349.173639 -175.034659 
L 349.038942 -174.712419 
L 348.900613 -174.39018 
L 348.759293 -174.06794 
L 348.615622 -173.745701 
L 348.470239 -173.423462 
L 348.323777 -173.101222 
L 348.176856 -172.778983 
L 348.030085 -172.456743 
L 347.884055 -172.134504 
L 347.739335 -171.812265 
L 347.596474 -171.490025 
L 347.455991 -171.167786 
L 347.318376 -170.845546 
L 347.184088 -170.523307 
L 347.053551 -170.201067 
L 346.927151 -169.878828 
L 346.805239 -169.556589 
L 346.688122 -169.234349 
L 346.576069 -168.91211 
L 346.469303 -168.58987 
L 346.368007 -168.267631 
L 346.272319 -167.945392 
L 346.182333 -167.623152 
L 346.098101 -167.300913 
L 346.01963 -166.978673 
L 345.946885 -166.656434 
L 345.879792 -166.334195 
L 345.818233 -166.011955 
L 345.762054 -165.689716 
L 345.711065 -165.367476 
L 345.665039 -165.045237 
L 345.623717 -164.722997 
L 345.586812 -164.400758 
L 345.554007 -164.078519 
L 345.524961 -163.756279 
L 345.499312 -163.43404 
L 345.476677 -163.1118 
L 345.456659 -162.789561 
L 345.438846 -162.467322 
L 345.422819 -162.145082 
L 345.40815 -161.822843 
L 345.394408 -161.500603 
L 345.381162 -161.178364 
L 345.367983 -160.856124 
L 345.354449 -160.533885 
L 345.340143 -160.211646 
L 345.324664 -159.889406 
L 345.30762 -159.567167 
L 345.288638 -159.244927 
L 345.267363 -158.922688 
L 345.243459 -158.600449 
L 345.216614 -158.278209 
L 345.18654 -157.95597 
L 345.152973 -157.63373 
L 345.115678 -157.311491 
L 345.074447 -156.989251 
L 345.029102 -156.667012 
L 344.979491 -156.344773 
L 344.925496 -156.022533 
L 344.867027 -155.700294 
L 344.804023 -155.378054 
L 344.736455 -155.055815 
L 344.664321 -154.733576 
z
" style="stroke: #999999; stroke-width: 2"/>
    </defs>
    <g clip-path="url(#p2131d61b8d)">
     <use xlink:href="#m7ca15f3ebd" x="0" y="255.11811" style="fill: #ffffff; stroke: #999999; stroke-width: 2"/>
    </g>
   </g>
   <g id="PolyCollection_6">
    <defs>
     <path id="ma908ebb22e" d="M 409.732067 -74.632878 
L 397.030565 -74.632878 
L 396.788932 -75.02617 
L 396.546193 -75.419461 
L 396.302854 -75.812753 
L 396.059448 -76.206044 
L 395.816531 -76.599336 
L 395.57468 -76.992627 
L 395.334493 -77.385919 
L 395.096585 -77.77921 
L 394.861586 -78.172502 
L 394.630138 -78.565793 
L 394.402891 -78.959085 
L 394.180502 -79.352376 
L 393.963625 -79.745668 
L 393.752912 -80.138959 
L 393.549007 -80.532251 
L 393.35254 -80.925542 
L 393.16412 -81.318834 
L 392.984338 -81.712125 
L 392.81375 -82.105417 
L 392.652883 -82.498708 
L 392.502224 -82.892 
L 392.362216 -83.285291 
L 392.233258 -83.678583 
L 392.115693 -84.071874 
L 392.009816 -84.465166 
L 391.915858 -84.858457 
L 391.833997 -85.251749 
L 391.764347 -85.64504 
L 391.706959 -86.038332 
L 391.661826 -86.431623 
L 391.628877 -86.824915 
L 391.607982 -87.218206 
L 391.598953 -87.611498 
L 391.601547 -88.004789 
L 391.615468 -88.398081 
L 391.640374 -88.791372 
L 391.675876 -89.184664 
L 391.72155 -89.577955 
L 391.776934 -89.971247 
L 391.841541 -90.364538 
L 391.914859 -90.75783 
L 391.996359 -91.151121 
L 392.085501 -91.544413 
L 392.181737 -91.937704 
L 392.284519 -92.330996 
L 392.393303 -92.724287 
L 392.507552 -93.117579 
L 392.626745 -93.51087 
L 392.750373 -93.904162 
L 392.877949 -94.297453 
L 393.009007 -94.690745 
L 393.143106 -95.084036 
L 393.279832 -95.477328 
L 393.418794 -95.870619 
L 393.559632 -96.263911 
L 393.702012 -96.657202 
L 393.845627 -97.050494 
L 393.990196 -97.443785 
L 394.135462 -97.837077 
L 394.281194 -98.230368 
L 394.42718 -98.62366 
L 394.573232 -99.016951 
L 394.719177 -99.410243 
L 394.864862 -99.803534 
L 395.010146 -100.196826 
L 395.154904 -100.590117 
L 395.299022 -100.983409 
L 395.442396 -101.3767 
L 395.584932 -101.769992 
L 395.726546 -102.163283 
L 395.867161 -102.556575 
L 396.006708 -102.949866 
L 396.145125 -103.343158 
L 396.282358 -103.736449 
L 396.418362 -104.129741 
L 396.553099 -104.523032 
L 396.686538 -104.916324 
L 396.818658 -105.309615 
L 396.94945 -105.702907 
L 397.078911 -106.096198 
L 397.20705 -106.48949 
L 397.333886 -106.882781 
L 397.459449 -107.276073 
L 397.58378 -107.669364 
L 397.706928 -108.062656 
L 397.828954 -108.455947 
L 397.949927 -108.849239 
L 398.069923 -109.24253 
L 398.189026 -109.635822 
L 398.307325 -110.029113 
L 398.424912 -110.422405 
L 398.541881 -110.815696 
L 398.658327 -111.208988 
L 398.774342 -111.602279 
L 398.890013 -111.995571 
L 399.005422 -112.388862 
L 399.120644 -112.782154 
L 399.23574 -113.175445 
L 399.350763 -113.568737 
L 407.411869 -113.568737 
L 407.411869 -113.568737 
L 407.526892 -113.175445 
L 407.641988 -112.782154 
L 407.75721 -112.388862 
L 407.872619 -111.995571 
L 407.98829 -111.602279 
L 408.104305 -111.208988 
L 408.220751 -110.815696 
L 408.33772 -110.422405 
L 408.455307 -110.029113 
L 408.573606 -109.635822 
L 408.692709 -109.24253 
L 408.812705 -108.849239 
L 408.933678 -108.455947 
L 409.055704 -108.062656 
L 409.178852 -107.669364 
L 409.303183 -107.276073 
L 409.428746 -106.882781 
L 409.555582 -106.48949 
L 409.683721 -106.096198 
L 409.813182 -105.702907 
L 409.943974 -105.309615 
L 410.076095 -104.916324 
L 410.209533 -104.523032 
L 410.34427 -104.129741 
L 410.480274 -103.736449 
L 410.617507 -103.343158 
L 410.755924 -102.949866 
L 410.895471 -102.556575 
L 411.036086 -102.163283 
L 411.1777 -101.769992 
L 411.320237 -101.3767 
L 411.46361 -100.983409 
L 411.607728 -100.590117 
L 411.752486 -100.196826 
L 411.89777 -99.803534 
L 412.043455 -99.410243 
L 412.1894 -99.016951 
L 412.335452 -98.62366 
L 412.481439 -98.230368 
L 412.62717 -97.837077 
L 412.772436 -97.443785 
L 412.917005 -97.050494 
L 413.06062 -96.657202 
L 413.203 -96.263911 
L 413.343838 -95.870619 
L 413.482801 -95.477328 
L 413.619526 -95.084036 
L 413.753625 -94.690745 
L 413.884684 -94.297453 
L 414.012259 -93.904162 
L 414.135887 -93.51087 
L 414.25508 -93.117579 
L 414.36933 -92.724287 
L 414.478113 -92.330996 
L 414.580895 -91.937704 
L 414.677131 -91.544413 
L 414.766273 -91.151121 
L 414.847773 -90.75783 
L 414.921091 -90.364538 
L 414.985698 -89.971247 
L 415.041082 -89.577955 
L 415.086756 -89.184664 
L 415.122259 -88.791372 
L 415.147164 -88.398081 
L 415.161085 -88.004789 
L 415.163679 -87.611498 
L 415.15465 -87.218206 
L 415.133755 -86.824915 
L 415.100806 -86.431623 
L 415.055673 -86.038332 
L 414.998286 -85.64504 
L 414.928635 -85.251749 
L 414.846774 -84.858457 
L 414.752817 -84.465166 
L 414.646939 -84.071874 
L 414.529375 -83.678583 
L 414.400416 -83.285291 
L 414.260408 -82.892 
L 414.109749 -82.498708 
L 413.948882 -82.105417 
L 413.778295 -81.712125 
L 413.598512 -81.318834 
L 413.410093 -80.925542 
L 413.213625 -80.532251 
L 413.00972 -80.138959 
L 412.799007 -79.745668 
L 412.58213 -79.352376 
L 412.359741 -78.959085 
L 412.132494 -78.565793 
L 411.901046 -78.172502 
L 411.666047 -77.77921 
L 411.428139 -77.385919 
L 411.187952 -76.992627 
L 410.946101 -76.599336 
L 410.703184 -76.206044 
L 410.459778 -75.812753 
L 410.21644 -75.419461 
L 409.9737 -75.02617 
L 409.732067 -74.632878 
z
" style="stroke: #999999; stroke-width: 2"/>
    </defs>
    <g clip-path="url(#p2131d61b8d)">
     <use xlink:href="#ma908ebb22e" x="0" y="255.11811" style="fill: #ffffff; stroke: #999999; stroke-width: 2"/>
    </g>
   </g>
   <g id="PolyCollection_7">
    <defs>
     <path id="m1b2eb2dcbd" d="M 480.381562 -49.837187 
L 455.894276 -49.837187 
L 455.354637 -50.057335 
L 454.807306 -50.277482 
L 454.253249 -50.49763 
L 453.693524 -50.717778 
L 453.129282 -50.937926 
L 452.561768 -51.158074 
L 451.992322 -51.378221 
L 451.422375 -51.598369 
L 450.853452 -51.818517 
L 450.287161 -52.038665 
L 449.725194 -52.258813 
L 449.169318 -52.47896 
L 448.621368 -52.699108 
L 448.083237 -52.919256 
L 447.556864 -53.139404 
L 447.044228 -53.359552 
L 446.547327 -53.579699 
L 446.068173 -53.799847 
L 445.608771 -54.019995 
L 445.171107 -54.240143 
L 444.757135 -54.460291 
L 444.368756 -54.680438 
L 444.007806 -54.900586 
L 443.676041 -55.120734 
L 443.37512 -55.340882 
L 443.106596 -55.561029 
L 442.871892 -55.781177 
L 442.672301 -56.001325 
L 442.508964 -56.221473 
L 442.382865 -56.441621 
L 442.294821 -56.661768 
L 442.245473 -56.881916 
L 442.235278 -57.102064 
L 442.264507 -57.322212 
L 442.333238 -57.54236 
L 442.441358 -57.762507 
L 442.588554 -57.982655 
L 442.774323 -58.202803 
L 442.997966 -58.422951 
L 443.258594 -58.643099 
L 443.555133 -58.863246 
L 443.886326 -59.083394 
L 444.250746 -59.303542 
L 444.646796 -59.52369 
L 445.072723 -59.743838 
L 445.526628 -59.963985 
L 446.006473 -60.184133 
L 446.510098 -60.404281 
L 447.03523 -60.624429 
L 447.579498 -60.844577 
L 448.140448 -61.064724 
L 448.715559 -61.284872 
L 449.302257 -61.50502 
L 449.897931 -61.725168 
L 450.499954 -61.945316 
L 451.105698 -62.165463 
L 451.712549 -62.385611 
L 452.317932 -62.605759 
L 452.919321 -62.825907 
L 453.514262 -63.046054 
L 454.100388 -63.266202 
L 454.675438 -63.48635 
L 455.237271 -63.706498 
L 455.783883 -63.926646 
L 456.313422 -64.146793 
L 456.824197 -64.366941 
L 457.314698 -64.587089 
L 457.783598 -64.807237 
L 458.229768 -65.027385 
L 458.652279 -65.247532 
L 459.050411 -65.46768 
L 459.423656 -65.687828 
L 459.771715 -65.907976 
L 460.094501 -66.128124 
L 460.392135 -66.348271 
L 460.66494 -66.568419 
L 460.913434 -66.788567 
L 461.138321 -67.008715 
L 461.34048 -67.228863 
L 461.520952 -67.44901 
L 461.680924 -67.669158 
L 461.821717 -67.889306 
L 461.944764 -68.109454 
L 462.051596 -68.329602 
L 462.14382 -68.549749 
L 462.223104 -68.769897 
L 462.291149 -68.990045 
L 462.34968 -69.210193 
L 462.400418 -69.430341 
L 462.445062 -69.650488 
L 462.485278 -69.870636 
L 462.522669 -70.090784 
L 462.558772 -70.310932 
L 462.595033 -70.531079 
L 462.632797 -70.751227 
L 462.6733 -70.971375 
L 462.717652 -71.191523 
L 462.766835 -71.411671 
L 462.821693 -71.631818 
L 473.454145 -71.631818 
L 473.454145 -71.631818 
L 473.509003 -71.411671 
L 473.558186 -71.191523 
L 473.602538 -70.971375 
L 473.643041 -70.751227 
L 473.680806 -70.531079 
L 473.717066 -70.310932 
L 473.753169 -70.090784 
L 473.79056 -69.870636 
L 473.830776 -69.650488 
L 473.87542 -69.430341 
L 473.926158 -69.210193 
L 473.984689 -68.990045 
L 474.052734 -68.769897 
L 474.132018 -68.549749 
L 474.224242 -68.329602 
L 474.331074 -68.109454 
L 474.454121 -67.889306 
L 474.594914 -67.669158 
L 474.754886 -67.44901 
L 474.935358 -67.228863 
L 475.137517 -67.008715 
L 475.362404 -66.788567 
L 475.610898 -66.568419 
L 475.883703 -66.348271 
L 476.181337 -66.128124 
L 476.504123 -65.907976 
L 476.852182 -65.687828 
L 477.225427 -65.46768 
L 477.623559 -65.247532 
L 478.04607 -65.027385 
L 478.49224 -64.807237 
L 478.96114 -64.587089 
L 479.451641 -64.366941 
L 479.962416 -64.146793 
L 480.491955 -63.926646 
L 481.038567 -63.706498 
L 481.6004 -63.48635 
L 482.17545 -63.266202 
L 482.761576 -63.046054 
L 483.356517 -62.825907 
L 483.957906 -62.605759 
L 484.563289 -62.385611 
L 485.17014 -62.165463 
L 485.775884 -61.945316 
L 486.377907 -61.725168 
L 486.973581 -61.50502 
L 487.560279 -61.284872 
L 488.13539 -61.064724 
L 488.69634 -60.844577 
L 489.240608 -60.624429 
L 489.76574 -60.404281 
L 490.269365 -60.184133 
L 490.74921 -59.963985 
L 491.203115 -59.743838 
L 491.629042 -59.52369 
L 492.025092 -59.303542 
L 492.389512 -59.083394 
L 492.720705 -58.863246 
L 493.017244 -58.643099 
L 493.277872 -58.422951 
L 493.501515 -58.202803 
L 493.687284 -57.982655 
L 493.83448 -57.762507 
L 493.9426 -57.54236 
L 494.011331 -57.322212 
L 494.04056 -57.102064 
L 494.030365 -56.881916 
L 493.981017 -56.661768 
L 493.892973 -56.441621 
L 493.766874 -56.221473 
L 493.603537 -56.001325 
L 493.403946 -55.781177 
L 493.169242 -55.561029 
L 492.900718 -55.340882 
L 492.599798 -55.120734 
L 492.268032 -54.900586 
L 491.907082 -54.680438 
L 491.518703 -54.460291 
L 491.104731 -54.240143 
L 490.667067 -54.019995 
L 490.207665 -53.799847 
L 489.728511 -53.579699 
L 489.23161 -53.359552 
L 488.718974 -53.139404 
L 488.192601 -52.919256 
L 487.65447 -52.699108 
L 487.10652 -52.47896 
L 486.550644 -52.258813 
L 485.988677 -52.038665 
L 485.422386 -51.818517 
L 484.853463 -51.598369 
L 484.283516 -51.378221 
L 483.71407 -51.158074 
L 483.146556 -50.937926 
L 482.582314 -50.717778 
L 482.022589 -50.49763 
L 481.468532 -50.277482 
L 480.921201 -50.057335 
L 480.381562 -49.837187 
z
" style="stroke: #999999; stroke-width: 2"/>
    </defs>
    <g clip-path="url(#p2131d61b8d)">
     <use xlink:href="#m1b2eb2dcbd" x="0" y="255.11811" style="fill: #ffffff; stroke: #999999; stroke-width: 2"/>
    </g>
   </g>
   <g id="PathCollection_1"/>
   <g id="PathCollection_2"/>
   <g id="patch_3">
    <path d="M 47.22 213.89811 
L 47.22 24.32 
" style="fill: none; stroke: #262626; stroke-width: 1.25; stroke-linejoin: miter; stroke-linecap: square"/>
   </g>
   <g id="patch_4">
    <path d="M 47.22 213.89811 
L 500.51622 213.89811 
" style="fill: none; stroke: #262626; stroke-width: 1.25; stroke-linejoin: miter; stroke-linecap: square"/>
   </g>
   <g id="PathCollection_3">
    <defs>
     <path id="C0_0_906fa457a4" d="M 0 2.5 
C 0.663008 2.5 1.29895 2.236584 1.767767 1.767767 
C 2.236584 1.29895 2.5 0.663008 2.5 -0 
C 2.5 -0.663008 2.236584 -1.29895 1.767767 -1.767767 
C 1.29895 -2.236584 0.663008 -2.5 0 -2.5 
C -0.663008 -2.5 -1.29895 -2.236584 -1.767767 -1.767767 
C -2.236584 -1.29895 -2.5 -0.663008 -2.5 0 
C -2.5 0.663008 -2.236584 1.29895 -1.767767 1.767767 
C -1.29895 2.236584 -0.663008 2.5 0 2.5 
z
"/>
    </defs>
    <g clip-path="url(#p2131d61b8d)">
     <use xlink:href="#C0_0_906fa457a4" x="76.825353" y="115.79425" style="fill: #4c72b0; fill-opacity: 0.75"/>
    </g>
    <g clip-path="url(#p2131d61b8d)">
     <use xlink:href="#C0_0_906fa457a4" x="74.726193" y="128.193306" style="fill: #4c72b0; fill-opacity: 0.75"/>
    </g>
    <g clip-path="url(#p2131d61b8d)">
     <use xlink:href="#C0_0_906fa457a4" x="74.436005" y="99.043542" style="fill: #4c72b0; fill-opacity: 0.75"/>
    </g>
    <g clip-path="url(#p2131d61b8d)">
     <use xlink:href="#C0_0_906fa457a4" x="82.687656" y="32.937187" style="fill: #4c72b0; fill-opacity: 0.75"/>
    </g>
    <g clip-path="url(#p2131d61b8d)">
     <use xlink:href="#C0_0_906fa457a4" x="81.913012" y="102.449141" style="fill: #dd8452; fill-opacity: 0.75"/>
    </g>
    <g clip-path="url(#p2131d61b8d)">
     <use xlink:href="#C0_0_906fa457a4" x="73.849508" y="127.251196" style="fill: #dd8452; fill-opacity: 0.75"/>
    </g>
    <g clip-path="url(#p2131d61b8d)">
     <use xlink:href="#C0_0_906fa457a4" x="77.512827" y="122.905784" style="fill: #dd8452; fill-opacity: 0.75"/>
    </g>
    <g clip-path="url(#p2131d61b8d)">
     <use xlink:href="#C0_0_906fa457a4" x="75.217941" y="109.580268" style="fill: #dd8452; fill-opacity: 0.75"/>
    </g>
   </g>
   <g id="PathCollection_4">
    <defs>
     <path id="C1_0_70b36b26fa" d="M 0 2.5 
C 0.663008 2.5 1.29895 2.236584 1.767767 1.767767 
C 2.236584 1.29895 2.5 0.663008 2.5 -0 
C 2.5 -0.663008 2.236584 -1.29895 1.767767 -1.767767 
C 1.29895 -2.236584 0.663008 -2.5 0 -2.5 
C -0.663008 -2.5 -1.29895 -2.236584 -1.767767 -1.767767 
C -2.236584 -1.29895 -2.5 -0.663008 -2.5 0 
C -2.5 0.663008 -2.236584 1.29895 -1.767767 1.767767 
C -1.29895 2.236584 -0.663008 2.5 0 2.5 
z
"/>
    </defs>
    <g clip-path="url(#p2131d61b8d)">
     <use xlink:href="#C1_0_70b36b26fa" x="150.216488" y="175.688929" style="fill: #4c72b0; fill-opacity: 0.75"/>
    </g>
    <g clip-path="url(#p2131d61b8d)">
     <use xlink:href="#C1_0_70b36b26fa" x="137.957125" y="163.709312" style="fill: #4c72b0; fill-opacity: 0.75"/>
    </g>
    <g clip-path="url(#p2131d61b8d)">
     <use xlink:href="#C1_0_70b36b26fa" x="148.516946" y="180.172484" style="fill: #4c72b0; fill-opacity: 0.75"/>
    </g>
    <g clip-path="url(#p2131d61b8d)">
     <use xlink:href="#C1_0_70b36b26fa" x="140.633799" y="187.854907" style="fill: #4c72b0; fill-opacity: 0.75"/>
    </g>
    <g clip-path="url(#p2131d61b8d)">
     <use xlink:href="#C1_0_70b36b26fa" x="147.416945" y="183.319897" style="fill: #dd8452; fill-opacity: 0.75"/>
    </g>
    <g clip-path="url(#p2131d61b8d)">
     <use xlink:href="#C1_0_70b36b26fa" x="142.040856" y="179.136456" style="fill: #dd8452; fill-opacity: 0.75"/>
    </g>
    <g clip-path="url(#p2131d61b8d)">
     <use xlink:href="#C1_0_70b36b26fa" x="139.311957" y="181.816898" style="fill: #dd8452; fill-opacity: 0.75"/>
    </g>
    <g clip-path="url(#p2131d61b8d)">
     <use xlink:href="#C1_0_70b36b26fa" x="143.21728" y="174.597652" style="fill: #dd8452; fill-opacity: 0.75"/>
    </g>
   </g>
   <g id="PathCollection_5">
    <defs>
     <path id="C2_0_9b8f0cd0e0" d="M 0 2.5 
C 0.663008 2.5 1.29895 2.236584 1.767767 1.767767 
C 2.236584 1.29895 2.5 0.663008 2.5 -0 
C 2.5 -0.663008 2.236584 -1.29895 1.767767 -1.767767 
C 1.29895 -2.236584 0.663008 -2.5 0 -2.5 
C -0.663008 -2.5 -1.29895 -2.236584 -1.767767 -1.767767 
C -2.236584 -1.29895 -2.5 -0.663008 -2.5 0 
C -2.5 0.663008 -2.236584 1.29895 -1.767767 1.767767 
C -1.29895 2.236584 -0.663008 2.5 0 2.5 
z
"/>
    </defs>
    <g clip-path="url(#p2131d61b8d)">
     <use xlink:href="#C2_0_9b8f0cd0e0" x="206.292209" y="107.065839" style="fill: #4c72b0; fill-opacity: 0.75"/>
    </g>
    <g clip-path="url(#p2131d61b8d)">
     <use xlink:href="#C2_0_9b8f0cd0e0" x="203.726939" y="124.99366" style="fill: #4c72b0; fill-opacity: 0.75"/>
    </g>
    <g clip-path="url(#p2131d61b8d)">
     <use xlink:href="#C2_0_9b8f0cd0e0" x="205.293145" y="124.037105" style="fill: #4c72b0; fill-opacity: 0.75"/>
    </g>
    <g clip-path="url(#p2131d61b8d)">
     <use xlink:href="#C2_0_9b8f0cd0e0" x="215.097118" y="121.027122" style="fill: #4c72b0; fill-opacity: 0.75"/>
    </g>
    <g clip-path="url(#p2131d61b8d)">
     <use xlink:href="#C2_0_9b8f0cd0e0" x="205.671272" y="131.416551" style="fill: #dd8452; fill-opacity: 0.75"/>
    </g>
    <g clip-path="url(#p2131d61b8d)">
     <use xlink:href="#C2_0_9b8f0cd0e0" x="207.770347" y="109.216239" style="fill: #dd8452; fill-opacity: 0.75"/>
    </g>
    <g clip-path="url(#p2131d61b8d)">
     <use xlink:href="#C2_0_9b8f0cd0e0" x="212.652773" y="127.074107" style="fill: #dd8452; fill-opacity: 0.75"/>
    </g>
    <g clip-path="url(#p2131d61b8d)">
     <use xlink:href="#C2_0_9b8f0cd0e0" x="209.85464" y="120.791157" style="fill: #dd8452; fill-opacity: 0.75"/>
    </g>
   </g>
   <g id="PathCollection_6">
    <defs>
     <path id="C3_0_8dc2a1851a" d="M 0 2.5 
C 0.663008 2.5 1.29895 2.236584 1.767767 1.767767 
C 2.236584 1.29895 2.5 0.663008 2.5 -0 
C 2.5 -0.663008 2.236584 -1.29895 1.767767 -1.767767 
C 1.29895 -2.236584 0.663008 -2.5 0 -2.5 
C -0.663008 -2.5 -1.29895 -2.236584 -1.767767 -1.767767 
C -2.236584 -1.29895 -2.5 -0.663008 -2.5 0 
C -2.5 0.663008 -2.236584 1.29895 -1.767767 1.767767 
C -1.29895 2.236584 -0.663008 2.5 0 2.5 
z
"/>
    </defs>
    <g clip-path="url(#p2131d61b8d)">
     <use xlink:href="#C3_0_8dc2a1851a" x="270.315654" y="60.232802" style="fill: #4c72b0; fill-opacity: 0.75"/>
    </g>
    <g clip-path="url(#p2131d61b8d)">
     <use xlink:href="#C3_0_8dc2a1851a" x="269.14777" y="55.219054" style="fill: #4c72b0; fill-opacity: 0.75"/>
    </g>
    <g clip-path="url(#p2131d61b8d)">
     <use xlink:href="#C3_0_8dc2a1851a" x="280.237192" y="122.169193" style="fill: #4c72b0; fill-opacity: 0.75"/>
    </g>
    <g clip-path="url(#p2131d61b8d)">
     <use xlink:href="#C3_0_8dc2a1851a" x="271.915883" y="124.406075" style="fill: #4c72b0; fill-opacity: 0.75"/>
    </g>
    <g clip-path="url(#p2131d61b8d)">
     <use xlink:href="#C3_0_8dc2a1851a" x="271.667753" y="72.33535" style="fill: #4c72b0; fill-opacity: 0.75"/>
    </g>
    <g clip-path="url(#p2131d61b8d)">
     <use xlink:href="#C3_0_8dc2a1851a" x="277.048441" y="163.773618" style="fill: #dd8452; fill-opacity: 0.75"/>
    </g>
    <g clip-path="url(#p2131d61b8d)">
     <use xlink:href="#C3_0_8dc2a1851a" x="268.33086" y="163.907037" style="fill: #dd8452; fill-opacity: 0.75"/>
    </g>
    <g clip-path="url(#p2131d61b8d)">
     <use xlink:href="#C3_0_8dc2a1851a" x="272.592988" y="167.368718" style="fill: #dd8452; fill-opacity: 0.75"/>
    </g>
    <g clip-path="url(#p2131d61b8d)">
     <use xlink:href="#C3_0_8dc2a1851a" x="278.841691" y="135.417796" style="fill: #dd8452; fill-opacity: 0.75"/>
    </g>
    <g clip-path="url(#p2131d61b8d)">
     <use xlink:href="#C3_0_8dc2a1851a" x="279.031058" y="145.000381" style="fill: #dd8452; fill-opacity: 0.75"/>
    </g>
   </g>
   <g id="PathCollection_7">
    <defs>
     <path id="C4_0_d447c87136" d="M 0 2.5 
C 0.663008 2.5 1.29895 2.236584 1.767767 1.767767 
C 2.236584 1.29895 2.5 0.663008 2.5 -0 
C 2.5 -0.663008 2.236584 -1.29895 1.767767 -1.767767 
C 1.29895 -2.236584 0.663008 -2.5 0 -2.5 
C -0.663008 -2.5 -1.29895 -2.236584 -1.767767 -1.767767 
C -2.236584 -1.29895 -2.5 -0.663008 -2.5 0 
C -2.5 0.663008 -2.236584 1.29895 -1.767767 1.767767 
C -1.29895 2.236584 -0.663008 2.5 0 2.5 
z
"/>
    </defs>
    <g clip-path="url(#p2131d61b8d)">
     <use xlink:href="#C4_0_d447c87136" x="335.828932" y="74.319171" style="fill: #4c72b0; fill-opacity: 0.75"/>
    </g>
    <g clip-path="url(#p2131d61b8d)">
     <use xlink:href="#C4_0_d447c87136" x="337.428032" y="100.384535" style="fill: #4c72b0; fill-opacity: 0.75"/>
    </g>
    <g clip-path="url(#p2131d61b8d)">
     <use xlink:href="#C4_0_d447c87136" x="332.870794" y="95.763275" style="fill: #4c72b0; fill-opacity: 0.75"/>
    </g>
    <g clip-path="url(#p2131d61b8d)">
     <use xlink:href="#C4_0_d447c87136" x="335.696065" y="76.902016" style="fill: #dd8452; fill-opacity: 0.75"/>
    </g>
    <g clip-path="url(#p2131d61b8d)">
     <use xlink:href="#C4_0_d447c87136" x="336.839029" y="76.964557" style="fill: #dd8452; fill-opacity: 0.75"/>
    </g>
    <g clip-path="url(#p2131d61b8d)">
     <use xlink:href="#C4_0_d447c87136" x="339.013228" y="68.482833" style="fill: #dd8452; fill-opacity: 0.75"/>
    </g>
   </g>
   <g id="PathCollection_8">
    <defs>
     <path id="C5_0_f4bcef8841" d="M 0 2.5 
C 0.663008 2.5 1.29895 2.236584 1.767767 1.767767 
C 2.236584 1.29895 2.5 0.663008 2.5 -0 
C 2.5 -0.663008 2.236584 -1.29895 1.767767 -1.767767 
C 1.29895 -2.236584 0.663008 -2.5 0 -2.5 
C -0.663008 -2.5 -1.29895 -2.236584 -1.767767 -1.767767 
C -2.236584 -1.29895 -2.5 -0.663008 -2.5 0 
C -2.5 0.663008 -2.236584 1.29895 -1.767767 1.767767 
C -1.29895 2.236584 -0.663008 2.5 0 2.5 
z
"/>
    </defs>
    <g clip-path="url(#p2131d61b8d)">
     <use xlink:href="#C5_0_f4bcef8841" x="403.139463" y="156.97704" style="fill: #4c72b0; fill-opacity: 0.75"/>
    </g>
    <g clip-path="url(#p2131d61b8d)">
     <use xlink:href="#C5_0_f4bcef8841" x="408.718118" y="164.104897" style="fill: #4c72b0; fill-opacity: 0.75"/>
    </g>
    <g clip-path="url(#p2131d61b8d)">
     <use xlink:href="#C5_0_f4bcef8841" x="402.427424" y="141.549374" style="fill: #4c72b0; fill-opacity: 0.75"/>
    </g>
    <g clip-path="url(#p2131d61b8d)">
     <use xlink:href="#C5_0_f4bcef8841" x="398.547299" y="168.394456" style="fill: #4c72b0; fill-opacity: 0.75"/>
    </g>
    <g clip-path="url(#p2131d61b8d)">
     <use xlink:href="#C5_0_f4bcef8841" x="407.908384" y="180.485232" style="fill: #dd8452; fill-opacity: 0.75"/>
    </g>
    <g clip-path="url(#p2131d61b8d)">
     <use xlink:href="#C5_0_f4bcef8841" x="400.370967" y="172.45482" style="fill: #dd8452; fill-opacity: 0.75"/>
    </g>
    <g clip-path="url(#p2131d61b8d)">
     <use xlink:href="#C5_0_f4bcef8841" x="403.551356" y="152.760661" style="fill: #dd8452; fill-opacity: 0.75"/>
    </g>
    <g clip-path="url(#p2131d61b8d)">
     <use xlink:href="#C5_0_f4bcef8841" x="408.006446" y="169.414738" style="fill: #dd8452; fill-opacity: 0.75"/>
    </g>
   </g>
   <g id="PathCollection_9">
    <defs>
     <path id="C6_0_1153726905" d="M 0 2.5 
C 0.663008 2.5 1.29895 2.236584 1.767767 1.767767 
C 2.236584 1.29895 2.5 0.663008 2.5 -0 
C 2.5 -0.663008 2.236584 -1.29895 1.767767 -1.767767 
C 1.29895 -2.236584 0.663008 -2.5 0 -2.5 
C -0.663008 -2.5 -1.29895 -2.236584 -1.767767 -1.767767 
C -2.236584 -1.29895 -2.5 -0.663008 -2.5 0 
C -2.5 0.663008 -2.236584 1.29895 -1.767767 1.767767 
C -1.29895 2.236584 -0.663008 2.5 0 2.5 
z
"/>
    </defs>
    <g clip-path="url(#p2131d61b8d)">
     <use xlink:href="#C6_0_1153726905" x="471.137217" y="194.613066" style="fill: #4c72b0; fill-opacity: 0.75"/>
    </g>
    <g clip-path="url(#p2131d61b8d)">
     <use xlink:href="#C6_0_1153726905" x="472.855079" y="193.971873" style="fill: #4c72b0; fill-opacity: 0.75"/>
    </g>
    <g clip-path="url(#p2131d61b8d)">
     <use xlink:href="#C6_0_1153726905" x="472.304705" y="197.071396" style="fill: #4c72b0; fill-opacity: 0.75"/>
    </g>
    <g clip-path="url(#p2131d61b8d)">
     <use xlink:href="#C6_0_1153726905" x="462.388467" y="183.486292" style="fill: #4c72b0; fill-opacity: 0.75"/>
    </g>
    <g clip-path="url(#p2131d61b8d)">
     <use xlink:href="#C6_0_1153726905" x="466.892631" y="198.61144" style="fill: #dd8452; fill-opacity: 0.75"/>
    </g>
    <g clip-path="url(#p2131d61b8d)">
     <use xlink:href="#C6_0_1153726905" x="465.710153" y="205.280923" style="fill: #dd8452; fill-opacity: 0.75"/>
    </g>
    <g clip-path="url(#p2131d61b8d)">
     <use xlink:href="#C6_0_1153726905" x="474.561609" y="200.163549" style="fill: #dd8452; fill-opacity: 0.75"/>
    </g>
    <g clip-path="url(#p2131d61b8d)">
     <use xlink:href="#C6_0_1153726905" x="469.823419" y="200.341301" style="fill: #dd8452; fill-opacity: 0.75"/>
    </g>
   </g>
   <g id="text_17">
    <!-- CD47, $p_{adj}$ &lt; .001 *** -->
    <g style="fill: #262626" transform="translate(47.22 18.32)scale(0.09 -0.09)">
     <defs>
      <path id="ArialMT-43" d="M 3763 1606 
L 4369 1453 
Q 4178 706 3683 314 
Q 3188 -78 2472 -78 
Q 1731 -78 1267 223 
Q 803 525 561 1097 
Q 319 1669 319 2325 
Q 319 3041 592 3573 
Q 866 4106 1370 4382 
Q 1875 4659 2481 4659 
Q 3169 4659 3637 4309 
Q 4106 3959 4291 3325 
L 3694 3184 
Q 3534 3684 3231 3912 
Q 2928 4141 2469 4141 
Q 1941 4141 1586 3887 
Q 1231 3634 1087 3207 
Q 944 2781 944 2328 
Q 944 1744 1114 1308 
Q 1284 872 1643 656 
Q 2003 441 2422 441 
Q 2931 441 3284 734 
Q 3638 1028 3763 1606 
z
" transform="scale(0.015625)"/>
      <path id="ArialMT-44" d="M 494 0 
L 494 4581 
L 2072 4581 
Q 2606 4581 2888 4516 
Q 3281 4425 3559 4188 
Q 3922 3881 4101 3404 
Q 4281 2928 4281 2316 
Q 4281 1794 4159 1391 
Q 4038 988 3847 723 
Q 3656 459 3429 307 
Q 3203 156 2883 78 
Q 2563 0 2147 0 
L 494 0 
z
M 1100 541 
L 2078 541 
Q 2531 541 2789 625 
Q 3047 709 3200 863 
Q 3416 1078 3536 1442 
Q 3656 1806 3656 2325 
Q 3656 3044 3420 3430 
Q 3184 3816 2847 3947 
Q 2603 4041 2063 4041 
L 1100 4041 
L 1100 541 
z
" transform="scale(0.015625)"/>
      <path id="ArialMT-2c" d="M 569 0 
L 569 641 
L 1209 641 
L 1209 0 
Q 1209 -353 1084 -570 
Q 959 -788 688 -906 
L 531 -666 
Q 709 -588 793 -436 
Q 878 -284 888 0 
L 569 0 
z
" transform="scale(0.015625)"/>
      <path id="DejaVuSans-Oblique-70" d="M 3175 2156 
Q 3175 2616 2975 2859 
Q 2775 3103 2400 3103 
Q 2144 3103 1911 2972 
Q 1678 2841 1497 2591 
Q 1319 2344 1212 1994 
Q 1106 1644 1106 1300 
Q 1106 863 1306 627 
Q 1506 391 1875 391 
Q 2147 391 2380 519 
Q 2613 647 2778 891 
Q 2956 1147 3065 1494 
Q 3175 1841 3175 2156 
z
M 1394 2969 
Q 1625 3272 1939 3428 
Q 2253 3584 2638 3584 
Q 3175 3584 3472 3232 
Q 3769 2881 3769 2247 
Q 3769 1728 3584 1258 
Q 3400 788 3053 416 
Q 2822 169 2531 39 
Q 2241 -91 1919 -91 
Q 1547 -91 1294 64 
Q 1041 219 916 525 
L 556 -1331 
L -19 -1331 
L 922 3500 
L 1497 3500 
L 1394 2969 
z
" transform="scale(0.015625)"/>
      <path id="DejaVuSans-Oblique-61" d="M 3438 1997 
L 3047 0 
L 2472 0 
L 2578 531 
Q 2325 219 2001 64 
Q 1678 -91 1281 -91 
Q 834 -91 548 182 
Q 263 456 263 884 
Q 263 1497 752 1853 
Q 1241 2209 2100 2209 
L 2900 2209 
L 2931 2363 
Q 2938 2388 2941 2417 
Q 2944 2447 2944 2509 
Q 2944 2788 2717 2942 
Q 2491 3097 2081 3097 
Q 1800 3097 1504 3025 
Q 1209 2953 897 2809 
L 997 3341 
Q 1322 3463 1633 3523 
Q 1944 3584 2234 3584 
Q 2853 3584 3176 3315 
Q 3500 3047 3500 2534 
Q 3500 2431 3484 2292 
Q 3469 2153 3438 1997 
z
M 2816 1759 
L 2241 1759 
Q 1534 1759 1195 1570 
Q 856 1381 856 984 
Q 856 709 1029 553 
Q 1203 397 1509 397 
Q 1978 397 2328 733 
Q 2678 1069 2791 1631 
L 2816 1759 
z
" transform="scale(0.015625)"/>
      <path id="DejaVuSans-Oblique-64" d="M 2675 525 
Q 2444 222 2128 65 
Q 1813 -91 1428 -91 
Q 903 -91 598 267 
Q 294 625 294 1247 
Q 294 1766 478 2236 
Q 663 2706 1013 3078 
Q 1244 3325 1534 3454 
Q 1825 3584 2144 3584 
Q 2481 3584 2739 3421 
Q 2997 3259 3138 2956 
L 3513 4863 
L 4091 4863 
L 3144 0 
L 2566 0 
L 2675 525 
z
M 891 1350 
Q 891 897 1095 644 
Q 1300 391 1663 391 
Q 1931 391 2161 520 
Q 2391 650 2566 903 
Q 2750 1166 2856 1509 
Q 2963 1853 2963 2188 
Q 2963 2622 2758 2865 
Q 2553 3109 2194 3109 
Q 1922 3109 1687 2981 
Q 1453 2853 1288 2613 
Q 1106 2353 998 2009 
Q 891 1666 891 1350 
z
" transform="scale(0.015625)"/>
      <path id="DejaVuSans-Oblique-6a" d="M 928 3500 
L 1503 3500 
L 813 -63 
L 809 -78 
Q 694 -675 544 -897 
Q 403 -1106 132 -1218 
Q -138 -1331 -506 -1331 
L -722 -1331 
L -628 -844 
L -481 -844 
Q -144 -844 -1 -703 
Q 141 -563 238 -63 
L 928 3500 
z
M 1197 4863 
L 1772 4863 
L 1631 4134 
L 1056 4134 
L 1197 4863 
z
" transform="scale(0.015625)"/>
      <path id="ArialMT-3c" d="M 350 2003 
L 350 2528 
L 3384 3809 
L 3384 3250 
L 978 2263 
L 3384 1266 
L 3384 706 
L 350 2003 
z
" transform="scale(0.015625)"/>
      <path id="ArialMT-2e" d="M 581 0 
L 581 641 
L 1222 641 
L 1222 0 
L 581 0 
z
" transform="scale(0.015625)"/>
      <path id="ArialMT-2a" d="M 200 3741 
L 344 4184 
Q 841 4009 1066 3881 
Q 1006 4447 1003 4659 
L 1456 4659 
Q 1447 4350 1384 3884 
Q 1706 4047 2122 4184 
L 2266 3741 
Q 1869 3609 1488 3566 
Q 1678 3400 2025 2975 
L 1650 2709 
Q 1469 2956 1222 3381 
Q 991 2941 816 2709 
L 447 2975 
Q 809 3422 966 3566 
Q 563 3644 200 3741 
z
" transform="scale(0.015625)"/>
     </defs>
     <use xlink:href="#ArialMT-43" transform="translate(0 0.203125)"/>
     <use xlink:href="#ArialMT-44" transform="translate(72.216797 0.203125)"/>
     <use xlink:href="#ArialMT-34" transform="translate(144.433594 0.203125)"/>
     <use xlink:href="#ArialMT-37" transform="translate(200.048828 0.203125)"/>
     <use xlink:href="#ArialMT-2c" transform="translate(255.664062 0.203125)"/>
     <use xlink:href="#ArialMT-20" transform="translate(283.447266 0.203125)"/>
     <use xlink:href="#DejaVuSans-Oblique-70" transform="translate(311.230469 0.203125)"/>
     <use xlink:href="#DejaVuSans-Oblique-61" transform="translate(374.707031 -16.203125)scale(0.7)"/>
     <use xlink:href="#DejaVuSans-Oblique-64" transform="translate(417.602539 -16.203125)scale(0.7)"/>
     <use xlink:href="#DejaVuSans-Oblique-6a" transform="translate(462.036133 -16.203125)scale(0.7)"/>
     <use xlink:href="#ArialMT-20" transform="translate(484.21875 0.203125)"/>
     <use xlink:href="#ArialMT-3c" transform="translate(512.001953 0.203125)"/>
     <use xlink:href="#ArialMT-20" transform="translate(570.400391 0.203125)"/>
     <use xlink:href="#ArialMT-2e" transform="translate(598.183594 0.203125)"/>
     <use xlink:href="#ArialMT-30" transform="translate(625.966797 0.203125)"/>
     <use xlink:href="#ArialMT-30" transform="translate(681.582031 0.203125)"/>
     <use xlink:href="#ArialMT-31" transform="translate(737.197266 0.203125)"/>
     <use xlink:href="#ArialMT-20" transform="translate(792.8125 0.203125)"/>
     <use xlink:href="#ArialMT-2a" transform="translate(820.595703 0.203125)"/>
     <use xlink:href="#ArialMT-2a" transform="translate(859.511719 0.203125)"/>
     <use xlink:href="#ArialMT-2a" transform="translate(898.427734 0.203125)"/>
    </g>
   </g>
   <g id="legend_1">
    <g id="patch_5">
     <path d="M 441.91497 69.712344 
L 494.21622 69.712344 
Q 496.01622 69.712344 496.01622 67.912344 
L 496.01622 30.62 
Q 496.01622 28.82 494.21622 28.82 
L 441.91497 28.82 
Q 440.11497 28.82 440.11497 30.62 
L 440.11497 67.912344 
Q 440.11497 69.712344 441.91497 69.712344 
z
" style="fill: #ffffff; opacity: 0.8; stroke: #cccccc; stroke-linejoin: miter"/>
    </g>
    <g id="text_18">
     <!-- Treatment -->
     <g style="fill: #262626" transform="translate(447.729111 38.862031)scale(0.09 -0.09)">
      <use xlink:href="#ArialMT-54"/>
      <use xlink:href="#ArialMT-72" x="57.333984"/>
      <use xlink:href="#ArialMT-65" x="90.634766"/>
      <use xlink:href="#ArialMT-61" x="146.25"/>
      <use xlink:href="#ArialMT-74" x="201.865234"/>
      <use xlink:href="#ArialMT-6d" x="229.648438"/>
      <use xlink:href="#ArialMT-65" x="312.949219"/>
      <use xlink:href="#ArialMT-6e" x="368.564453"/>
      <use xlink:href="#ArialMT-74" x="424.179688"/>
     </g>
    </g>
    <g id="PathCollection_10">
     <defs>
      <path id="m9a15c347d3" d="M 0 3.872983 
C 1.027127 3.872983 2.012324 3.464901 2.738613 2.738613 
C 3.464901 2.012324 3.872983 1.027127 3.872983 0 
C 3.872983 -1.027127 3.464901 -2.012324 2.738613 -2.738613 
C 2.012324 -3.464901 1.027127 -3.872983 0 -3.872983 
C -1.027127 -3.872983 -2.012324 -3.464901 -2.738613 -2.738613 
C -3.464901 -2.012324 -3.872983 -1.027127 -3.872983 0 
C -3.872983 1.027127 -3.464901 2.012324 -2.738613 2.738613 
C -2.012324 3.464901 -1.027127 3.872983 0 3.872983 
z
" style="stroke: #4c72b0"/>
     </defs>
     <g>
      <use xlink:href="#m9a15c347d3" x="452.71497" y="49.230313" style="fill: #4c72b0; stroke: #4c72b0"/>
     </g>
    </g>
    <g id="text_19">
     <!-- BEVA -->
     <g style="fill: #262626" transform="translate(468.91497 51.592813)scale(0.09 -0.09)">
      <defs>
       <path id="ArialMT-42" d="M 469 0 
L 469 4581 
L 2188 4581 
Q 2713 4581 3030 4442 
Q 3347 4303 3526 4014 
Q 3706 3725 3706 3409 
Q 3706 3116 3547 2856 
Q 3388 2597 3066 2438 
Q 3481 2316 3704 2022 
Q 3928 1728 3928 1328 
Q 3928 1006 3792 729 
Q 3656 453 3456 303 
Q 3256 153 2954 76 
Q 2653 0 2216 0 
L 469 0 
z
M 1075 2656 
L 2066 2656 
Q 2469 2656 2644 2709 
Q 2875 2778 2992 2937 
Q 3109 3097 3109 3338 
Q 3109 3566 3000 3739 
Q 2891 3913 2687 3977 
Q 2484 4041 1991 4041 
L 1075 4041 
L 1075 2656 
z
M 1075 541 
L 2216 541 
Q 2509 541 2628 563 
Q 2838 600 2978 687 
Q 3119 775 3209 942 
Q 3300 1109 3300 1328 
Q 3300 1584 3169 1773 
Q 3038 1963 2805 2039 
Q 2572 2116 2134 2116 
L 1075 2116 
L 1075 541 
z
" transform="scale(0.015625)"/>
       <path id="ArialMT-45" d="M 506 0 
L 506 4581 
L 3819 4581 
L 3819 4041 
L 1113 4041 
L 1113 2638 
L 3647 2638 
L 3647 2100 
L 1113 2100 
L 1113 541 
L 3925 541 
L 3925 0 
L 506 0 
z
" transform="scale(0.015625)"/>
       <path id="ArialMT-56" d="M 1803 0 
L 28 4581 
L 684 4581 
L 1875 1253 
Q 2019 853 2116 503 
Q 2222 878 2363 1253 
L 3600 4581 
L 4219 4581 
L 2425 0 
L 1803 0 
z
" transform="scale(0.015625)"/>
       <path id="ArialMT-41" d="M -9 0 
L 1750 4581 
L 2403 4581 
L 4278 0 
L 3588 0 
L 3053 1388 
L 1138 1388 
L 634 0 
L -9 0 
z
M 1313 1881 
L 2866 1881 
L 2388 3150 
Q 2169 3728 2063 4100 
Q 1975 3659 1816 3225 
L 1313 1881 
z
" transform="scale(0.015625)"/>
      </defs>
      <use xlink:href="#ArialMT-42"/>
      <use xlink:href="#ArialMT-45" x="66.699219"/>
      <use xlink:href="#ArialMT-56" x="133.398438"/>
      <use xlink:href="#ArialMT-41" x="192.722656"/>
     </g>
    </g>
    <g id="PathCollection_11">
     <defs>
      <path id="m7d778e28bd" d="M 0 3.872983 
C 1.027127 3.872983 2.012324 3.464901 2.738613 2.738613 
C 3.464901 2.012324 3.872983 1.027127 3.872983 0 
C 3.872983 -1.027127 3.464901 -2.012324 2.738613 -2.738613 
C 2.012324 -3.464901 1.027127 -3.872983 0 -3.872983 
C -1.027127 -3.872983 -2.012324 -3.464901 -2.738613 -2.738613 
C -3.464901 -2.012324 -3.872983 -1.027127 -3.872983 0 
C -3.872983 1.027127 -3.464901 2.012324 -2.738613 2.738613 
C -2.012324 3.464901 -1.027127 3.872983 0 3.872983 
z
" style="stroke: #dd8452"/>
     </defs>
     <g>
      <use xlink:href="#m7d778e28bd" x="452.71497" y="61.961094" style="fill: #dd8452; stroke: #dd8452"/>
     </g>
    </g>
    <g id="text_20">
     <!-- CTRL -->
     <g style="fill: #262626" transform="translate(468.91497 64.323594)scale(0.09 -0.09)">
      <defs>
       <path id="ArialMT-52" d="M 503 0 
L 503 4581 
L 2534 4581 
Q 3147 4581 3465 4457 
Q 3784 4334 3975 4021 
Q 4166 3709 4166 3331 
Q 4166 2844 3850 2509 
Q 3534 2175 2875 2084 
Q 3116 1969 3241 1856 
Q 3506 1613 3744 1247 
L 4541 0 
L 3778 0 
L 3172 953 
Q 2906 1366 2734 1584 
Q 2563 1803 2427 1890 
Q 2291 1978 2150 2013 
Q 2047 2034 1813 2034 
L 1109 2034 
L 1109 0 
L 503 0 
z
M 1109 2559 
L 2413 2559 
Q 2828 2559 3062 2645 
Q 3297 2731 3419 2920 
Q 3541 3109 3541 3331 
Q 3541 3656 3305 3865 
Q 3069 4075 2559 4075 
L 1109 4075 
L 1109 2559 
z
" transform="scale(0.015625)"/>
       <path id="ArialMT-4c" d="M 469 0 
L 469 4581 
L 1075 4581 
L 1075 541 
L 3331 541 
L 3331 0 
L 469 0 
z
" transform="scale(0.015625)"/>
      </defs>
      <use xlink:href="#ArialMT-43"/>
      <use xlink:href="#ArialMT-54" x="72.216797"/>
      <use xlink:href="#ArialMT-52" x="133.300781"/>
      <use xlink:href="#ArialMT-4c" x="205.517578"/>
     </g>
    </g>
   </g>
  </g>
 </g>
 <defs>
  <clipPath id="p2131d61b8d">
   <rect x="47.22" y="24.32" width="453.29622" height="189.57811"/>
  </clipPath>
 </defs>
</svg>
