<?xml version="1.0" encoding="utf-8" standalone="no"?>
<!DOCTYPE svg PUBLIC "-//W3C//DTD SVG 1.1//EN"
  "http://www.w3.org/Graphics/SVG/1.1/DTD/svg11.dtd">
<svg xmlns:xlink="http://www.w3.org/1999/xlink" width="510.23622pt" height="255.11811pt" viewBox="0 0 510.23622 255.11811" xmlns="http://www.w3.org/2000/svg" version="1.1">
 <metadata>
  <rdf:RDF xmlns:dc="http://purl.org/dc/elements/1.1/" xmlns:cc="http://creativecommons.org/ns#" xmlns:rdf="http://www.w3.org/1999/02/22-rdf-syntax-ns#">
   <cc:Work>
    <dc:type rdf:resource="http://purl.org/dc/dcmitype/StillImage"/>
    <dc:date>2022-04-27T00:13:24.972432</dc:date>
    <dc:format>image/svg+xml</dc:format>
    <dc:creator>
     <cc:Agent>
      <dc:title>Matplotlib v3.5.1, https://matplotlib.org/</dc:title>
     </cc:Agent>
    </dc:creator>
   </cc:Work>
  </rdf:RDF>
 </metadata>
 <defs>
  <style type="text/css">*{stroke-linejoin: round; stroke-linecap: butt}</style>
 </defs>
 <g id="figure_1">
  <g id="patch_1">
   <path d="M 0 255.11811 
L 510.23622 255.11811 
L 510.23622 0 
L 0 0 
z
" style="fill: #ffffff"/>
  </g>
  <g id="axes_1">
   <g id="patch_2">
    <path d="M 47.22 213.89811 
L 500.51622 213.89811 
L 500.51622 24.32 
L 47.22 24.32 
z
" style="fill: #ffffff"/>
   </g>
   <g id="matplotlib.axis_1">
    <g id="xtick_1">
     <g id="text_1">
      <!-- 49 -->
      <g style="fill: #444444" transform="translate(74.593458 229.840141)scale(0.09 -0.09)">
       <defs>
        <path id="ArialMT-34" d="M 2069 0 
L 2069 1097 
L 81 1097 
L 81 1613 
L 2172 4581 
L 2631 4581 
L 2631 1613 
L 3250 1613 
L 3250 1097 
L 2631 1097 
L 2631 0 
L 2069 0 
z
M 2069 1613 
L 2069 3678 
L 634 1613 
L 2069 1613 
z
" transform="scale(0.015625)"/>
        <path id="ArialMT-39" d="M 350 1059 
L 891 1109 
Q 959 728 1153 556 
Q 1347 384 1650 384 
Q 1909 384 2104 503 
Q 2300 622 2425 820 
Q 2550 1019 2634 1356 
Q 2719 1694 2719 2044 
Q 2719 2081 2716 2156 
Q 2547 1888 2255 1720 
Q 1963 1553 1622 1553 
Q 1053 1553 659 1965 
Q 266 2378 266 3053 
Q 266 3750 677 4175 
Q 1088 4600 1706 4600 
Q 2153 4600 2523 4359 
Q 2894 4119 3086 3673 
Q 3278 3228 3278 2384 
Q 3278 1506 3087 986 
Q 2897 466 2520 194 
Q 2144 -78 1638 -78 
Q 1100 -78 759 220 
Q 419 519 350 1059 
z
M 2653 3081 
Q 2653 3566 2395 3850 
Q 2138 4134 1775 4134 
Q 1400 4134 1122 3828 
Q 844 3522 844 3034 
Q 844 2597 1108 2323 
Q 1372 2050 1759 2050 
Q 2150 2050 2401 2323 
Q 2653 2597 2653 3081 
z
" transform="scale(0.015625)"/>
       </defs>
       <use xlink:href="#ArialMT-34"/>
       <use xlink:href="#ArialMT-39" x="55.615234"/>
      </g>
     </g>
    </g>
    <g id="xtick_2">
     <g id="text_2">
      <!-- 17 -->
      <g style="fill: #444444" transform="translate(139.350061 229.840141)scale(0.09 -0.09)">
       <defs>
        <path id="ArialMT-31" d="M 2384 0 
L 1822 0 
L 1822 3584 
Q 1619 3391 1289 3197 
Q 959 3003 697 2906 
L 697 3450 
Q 1169 3672 1522 3987 
Q 1875 4303 2022 4600 
L 2384 4600 
L 2384 0 
z
" transform="scale(0.015625)"/>
        <path id="ArialMT-37" d="M 303 3981 
L 303 4522 
L 3269 4522 
L 3269 4084 
Q 2831 3619 2401 2847 
Q 1972 2075 1738 1259 
Q 1569 684 1522 0 
L 944 0 
Q 953 541 1156 1306 
Q 1359 2072 1739 2783 
Q 2119 3494 2547 3981 
L 303 3981 
z
" transform="scale(0.015625)"/>
       </defs>
       <use xlink:href="#ArialMT-31"/>
       <use xlink:href="#ArialMT-37" x="55.615234"/>
      </g>
     </g>
    </g>
    <g id="xtick_3">
     <g id="text_3">
      <!-- 69 -->
      <g style="fill: #444444" transform="translate(204.106664 229.840141)scale(0.09 -0.09)">
       <defs>
        <path id="ArialMT-36" d="M 3184 3459 
L 2625 3416 
Q 2550 3747 2413 3897 
Q 2184 4138 1850 4138 
Q 1581 4138 1378 3988 
Q 1113 3794 959 3422 
Q 806 3050 800 2363 
Q 1003 2672 1297 2822 
Q 1591 2972 1913 2972 
Q 2475 2972 2870 2558 
Q 3266 2144 3266 1488 
Q 3266 1056 3080 686 
Q 2894 316 2569 119 
Q 2244 -78 1831 -78 
Q 1128 -78 684 439 
Q 241 956 241 2144 
Q 241 3472 731 4075 
Q 1159 4600 1884 4600 
Q 2425 4600 2770 4297 
Q 3116 3994 3184 3459 
z
M 888 1484 
Q 888 1194 1011 928 
Q 1134 663 1356 523 
Q 1578 384 1822 384 
Q 2178 384 2434 671 
Q 2691 959 2691 1453 
Q 2691 1928 2437 2201 
Q 2184 2475 1800 2475 
Q 1419 2475 1153 2201 
Q 888 1928 888 1484 
z
" transform="scale(0.015625)"/>
       </defs>
       <use xlink:href="#ArialMT-36"/>
       <use xlink:href="#ArialMT-39" x="55.615234"/>
      </g>
     </g>
    </g>
    <g id="xtick_4">
     <g id="text_4">
      <!-- 15 -->
      <g style="fill: #444444" transform="translate(268.863266 229.840141)scale(0.09 -0.09)">
       <defs>
        <path id="ArialMT-35" d="M 266 1200 
L 856 1250 
Q 922 819 1161 601 
Q 1400 384 1738 384 
Q 2144 384 2425 690 
Q 2706 997 2706 1503 
Q 2706 1984 2436 2262 
Q 2166 2541 1728 2541 
Q 1456 2541 1237 2417 
Q 1019 2294 894 2097 
L 366 2166 
L 809 4519 
L 3088 4519 
L 3088 3981 
L 1259 3981 
L 1013 2750 
Q 1425 3038 1878 3038 
Q 2478 3038 2890 2622 
Q 3303 2206 3303 1553 
Q 3303 931 2941 478 
Q 2500 -78 1738 -78 
Q 1113 -78 717 272 
Q 322 622 266 1200 
z
" transform="scale(0.015625)"/>
       </defs>
       <use xlink:href="#ArialMT-31"/>
       <use xlink:href="#ArialMT-35" x="55.615234"/>
      </g>
     </g>
    </g>
    <g id="xtick_5">
     <g id="text_5">
      <!-- 5 -->
      <g style="fill: #444444" transform="translate(336.122291 229.840141)scale(0.09 -0.09)">
       <use xlink:href="#ArialMT-35"/>
      </g>
     </g>
    </g>
    <g id="xtick_6">
     <g id="text_6">
      <!-- 126 -->
      <g style="fill: #444444" transform="translate(395.87405 229.840141)scale(0.09 -0.09)">
       <defs>
        <path id="ArialMT-32" d="M 3222 541 
L 3222 0 
L 194 0 
Q 188 203 259 391 
Q 375 700 629 1000 
Q 884 1300 1366 1694 
Q 2113 2306 2375 2664 
Q 2638 3022 2638 3341 
Q 2638 3675 2398 3904 
Q 2159 4134 1775 4134 
Q 1369 4134 1125 3890 
Q 881 3647 878 3216 
L 300 3275 
Q 359 3922 746 4261 
Q 1134 4600 1788 4600 
Q 2447 4600 2831 4234 
Q 3216 3869 3216 3328 
Q 3216 3053 3103 2787 
Q 2991 2522 2730 2228 
Q 2469 1934 1863 1422 
Q 1356 997 1212 845 
Q 1069 694 975 541 
L 3222 541 
z
" transform="scale(0.015625)"/>
       </defs>
       <use xlink:href="#ArialMT-31"/>
       <use xlink:href="#ArialMT-32" x="55.615234"/>
       <use xlink:href="#ArialMT-36" x="111.230469"/>
      </g>
     </g>
    </g>
    <g id="xtick_7">
     <g id="text_7">
      <!-- 62 -->
      <g style="fill: #444444" transform="translate(463.133075 229.840141)scale(0.09 -0.09)">
       <use xlink:href="#ArialMT-36"/>
       <use xlink:href="#ArialMT-32" x="55.615234"/>
      </g>
     </g>
    </g>
    <g id="text_8">
     <!-- Patient -->
     <g style="fill: #444444" transform="translate(259.859048 242.070923)scale(0.09 -0.09)">
      <defs>
       <path id="ArialMT-50" d="M 494 0 
L 494 4581 
L 2222 4581 
Q 2678 4581 2919 4538 
Q 3256 4481 3484 4323 
Q 3713 4166 3852 3881 
Q 3991 3597 3991 3256 
Q 3991 2672 3619 2267 
Q 3247 1863 2275 1863 
L 1100 1863 
L 1100 0 
L 494 0 
z
M 1100 2403 
L 2284 2403 
Q 2872 2403 3119 2622 
Q 3366 2841 3366 3238 
Q 3366 3525 3220 3729 
Q 3075 3934 2838 4000 
Q 2684 4041 2272 4041 
L 1100 4041 
L 1100 2403 
z
" transform="scale(0.015625)"/>
       <path id="ArialMT-61" d="M 2588 409 
Q 2275 144 1986 34 
Q 1697 -75 1366 -75 
Q 819 -75 525 192 
Q 231 459 231 875 
Q 231 1119 342 1320 
Q 453 1522 633 1644 
Q 813 1766 1038 1828 
Q 1203 1872 1538 1913 
Q 2219 1994 2541 2106 
Q 2544 2222 2544 2253 
Q 2544 2597 2384 2738 
Q 2169 2928 1744 2928 
Q 1347 2928 1158 2789 
Q 969 2650 878 2297 
L 328 2372 
Q 403 2725 575 2942 
Q 747 3159 1072 3276 
Q 1397 3394 1825 3394 
Q 2250 3394 2515 3294 
Q 2781 3194 2906 3042 
Q 3031 2891 3081 2659 
Q 3109 2516 3109 2141 
L 3109 1391 
Q 3109 606 3145 398 
Q 3181 191 3288 0 
L 2700 0 
Q 2613 175 2588 409 
z
M 2541 1666 
Q 2234 1541 1622 1453 
Q 1275 1403 1131 1340 
Q 988 1278 909 1158 
Q 831 1038 831 891 
Q 831 666 1001 516 
Q 1172 366 1500 366 
Q 1825 366 2078 508 
Q 2331 650 2450 897 
Q 2541 1088 2541 1459 
L 2541 1666 
z
" transform="scale(0.015625)"/>
       <path id="ArialMT-74" d="M 1650 503 
L 1731 6 
Q 1494 -44 1306 -44 
Q 1000 -44 831 53 
Q 663 150 594 308 
Q 525 466 525 972 
L 525 2881 
L 113 2881 
L 113 3319 
L 525 3319 
L 525 4141 
L 1084 4478 
L 1084 3319 
L 1650 3319 
L 1650 2881 
L 1084 2881 
L 1084 941 
Q 1084 700 1114 631 
Q 1144 563 1211 522 
Q 1278 481 1403 481 
Q 1497 481 1650 503 
z
" transform="scale(0.015625)"/>
       <path id="ArialMT-69" d="M 425 3934 
L 425 4581 
L 988 4581 
L 988 3934 
L 425 3934 
z
M 425 0 
L 425 3319 
L 988 3319 
L 988 0 
L 425 0 
z
" transform="scale(0.015625)"/>
       <path id="ArialMT-65" d="M 2694 1069 
L 3275 997 
Q 3138 488 2766 206 
Q 2394 -75 1816 -75 
Q 1088 -75 661 373 
Q 234 822 234 1631 
Q 234 2469 665 2931 
Q 1097 3394 1784 3394 
Q 2450 3394 2872 2941 
Q 3294 2488 3294 1666 
Q 3294 1616 3291 1516 
L 816 1516 
Q 847 969 1125 678 
Q 1403 388 1819 388 
Q 2128 388 2347 550 
Q 2566 713 2694 1069 
z
M 847 1978 
L 2700 1978 
Q 2663 2397 2488 2606 
Q 2219 2931 1791 2931 
Q 1403 2931 1139 2672 
Q 875 2413 847 1978 
z
" transform="scale(0.015625)"/>
       <path id="ArialMT-6e" d="M 422 0 
L 422 3319 
L 928 3319 
L 928 2847 
Q 1294 3394 1984 3394 
Q 2284 3394 2536 3286 
Q 2788 3178 2913 3003 
Q 3038 2828 3088 2588 
Q 3119 2431 3119 2041 
L 3119 0 
L 2556 0 
L 2556 2019 
Q 2556 2363 2490 2533 
Q 2425 2703 2258 2804 
Q 2091 2906 1866 2906 
Q 1506 2906 1245 2678 
Q 984 2450 984 1813 
L 984 0 
L 422 0 
z
" transform="scale(0.015625)"/>
      </defs>
      <use xlink:href="#ArialMT-50"/>
      <use xlink:href="#ArialMT-61" x="66.699219"/>
      <use xlink:href="#ArialMT-74" x="122.314453"/>
      <use xlink:href="#ArialMT-69" x="150.097656"/>
      <use xlink:href="#ArialMT-65" x="172.314453"/>
      <use xlink:href="#ArialMT-6e" x="227.929688"/>
      <use xlink:href="#ArialMT-74" x="283.544922"/>
     </g>
    </g>
   </g>
   <g id="matplotlib.axis_2">
    <g id="ytick_1">
     <g id="text_9">
      <!-- 100 -->
      <g style="fill: #444444" transform="translate(22.705469 203.360892)scale(0.09 -0.09)">
       <defs>
        <path id="ArialMT-30" d="M 266 2259 
Q 266 3072 433 3567 
Q 600 4063 929 4331 
Q 1259 4600 1759 4600 
Q 2128 4600 2406 4451 
Q 2684 4303 2865 4023 
Q 3047 3744 3150 3342 
Q 3253 2941 3253 2259 
Q 3253 1453 3087 958 
Q 2922 463 2592 192 
Q 2263 -78 1759 -78 
Q 1097 -78 719 397 
Q 266 969 266 2259 
z
M 844 2259 
Q 844 1131 1108 757 
Q 1372 384 1759 384 
Q 2147 384 2411 759 
Q 2675 1134 2675 2259 
Q 2675 3391 2411 3762 
Q 2147 4134 1753 4134 
Q 1366 4134 1134 3806 
Q 844 3388 844 2259 
z
" transform="scale(0.015625)"/>
       </defs>
       <use xlink:href="#ArialMT-31"/>
       <use xlink:href="#ArialMT-30" x="55.615234"/>
       <use xlink:href="#ArialMT-30" x="111.230469"/>
      </g>
     </g>
    </g>
    <g id="ytick_2">
     <g id="text_10">
      <!-- 150 -->
      <g style="fill: #444444" transform="translate(22.705469 176.446684)scale(0.09 -0.09)">
       <use xlink:href="#ArialMT-31"/>
       <use xlink:href="#ArialMT-35" x="55.615234"/>
       <use xlink:href="#ArialMT-30" x="111.230469"/>
      </g>
     </g>
    </g>
    <g id="ytick_3">
     <g id="text_11">
      <!-- 200 -->
      <g style="fill: #444444" transform="translate(22.705469 149.532477)scale(0.09 -0.09)">
       <use xlink:href="#ArialMT-32"/>
       <use xlink:href="#ArialMT-30" x="55.615234"/>
       <use xlink:href="#ArialMT-30" x="111.230469"/>
      </g>
     </g>
    </g>
    <g id="ytick_4">
     <g id="text_12">
      <!-- 250 -->
      <g style="fill: #444444" transform="translate(22.705469 122.618269)scale(0.09 -0.09)">
       <use xlink:href="#ArialMT-32"/>
       <use xlink:href="#ArialMT-35" x="55.615234"/>
       <use xlink:href="#ArialMT-30" x="111.230469"/>
      </g>
     </g>
    </g>
    <g id="ytick_5">
     <g id="text_13">
      <!-- 300 -->
      <g style="fill: #444444" transform="translate(22.705469 95.704062)scale(0.09 -0.09)">
       <defs>
        <path id="ArialMT-33" d="M 269 1209 
L 831 1284 
Q 928 806 1161 595 
Q 1394 384 1728 384 
Q 2125 384 2398 659 
Q 2672 934 2672 1341 
Q 2672 1728 2419 1979 
Q 2166 2231 1775 2231 
Q 1616 2231 1378 2169 
L 1441 2663 
Q 1497 2656 1531 2656 
Q 1891 2656 2178 2843 
Q 2466 3031 2466 3422 
Q 2466 3731 2256 3934 
Q 2047 4138 1716 4138 
Q 1388 4138 1169 3931 
Q 950 3725 888 3313 
L 325 3413 
Q 428 3978 793 4289 
Q 1159 4600 1703 4600 
Q 2078 4600 2393 4439 
Q 2709 4278 2876 4000 
Q 3044 3722 3044 3409 
Q 3044 3113 2884 2869 
Q 2725 2625 2413 2481 
Q 2819 2388 3044 2092 
Q 3269 1797 3269 1353 
Q 3269 753 2831 336 
Q 2394 -81 1725 -81 
Q 1122 -81 723 278 
Q 325 638 269 1209 
z
" transform="scale(0.015625)"/>
       </defs>
       <use xlink:href="#ArialMT-33"/>
       <use xlink:href="#ArialMT-30" x="55.615234"/>
       <use xlink:href="#ArialMT-30" x="111.230469"/>
      </g>
     </g>
    </g>
    <g id="ytick_6">
     <g id="text_14">
      <!-- 350 -->
      <g style="fill: #444444" transform="translate(22.705469 68.789854)scale(0.09 -0.09)">
       <use xlink:href="#ArialMT-33"/>
       <use xlink:href="#ArialMT-35" x="55.615234"/>
       <use xlink:href="#ArialMT-30" x="111.230469"/>
      </g>
     </g>
    </g>
    <g id="ytick_7">
     <g id="text_15">
      <!-- 400 -->
      <g style="fill: #444444" transform="translate(22.705469 41.875647)scale(0.09 -0.09)">
       <use xlink:href="#ArialMT-34"/>
       <use xlink:href="#ArialMT-30" x="55.615234"/>
       <use xlink:href="#ArialMT-30" x="111.230469"/>
      </g>
     </g>
    </g>
    <g id="text_16">
     <!-- Trimmed Means of M values (TMM) -->
     <g style="fill: #444444" transform="translate(16.81125 190.194993)rotate(-90)scale(0.09 -0.09)">
      <defs>
       <path id="ArialMT-54" d="M 1659 0 
L 1659 4041 
L 150 4041 
L 150 4581 
L 3781 4581 
L 3781 4041 
L 2266 4041 
L 2266 0 
L 1659 0 
z
" transform="scale(0.015625)"/>
       <path id="ArialMT-72" d="M 416 0 
L 416 3319 
L 922 3319 
L 922 2816 
Q 1116 3169 1280 3281 
Q 1444 3394 1641 3394 
Q 1925 3394 2219 3213 
L 2025 2691 
Q 1819 2813 1613 2813 
Q 1428 2813 1281 2702 
Q 1134 2591 1072 2394 
Q 978 2094 978 1738 
L 978 0 
L 416 0 
z
" transform="scale(0.015625)"/>
       <path id="ArialMT-6d" d="M 422 0 
L 422 3319 
L 925 3319 
L 925 2853 
Q 1081 3097 1340 3245 
Q 1600 3394 1931 3394 
Q 2300 3394 2536 3241 
Q 2772 3088 2869 2813 
Q 3263 3394 3894 3394 
Q 4388 3394 4653 3120 
Q 4919 2847 4919 2278 
L 4919 0 
L 4359 0 
L 4359 2091 
Q 4359 2428 4304 2576 
Q 4250 2725 4106 2815 
Q 3963 2906 3769 2906 
Q 3419 2906 3187 2673 
Q 2956 2441 2956 1928 
L 2956 0 
L 2394 0 
L 2394 2156 
Q 2394 2531 2256 2718 
Q 2119 2906 1806 2906 
Q 1569 2906 1367 2781 
Q 1166 2656 1075 2415 
Q 984 2175 984 1722 
L 984 0 
L 422 0 
z
" transform="scale(0.015625)"/>
       <path id="ArialMT-64" d="M 2575 0 
L 2575 419 
Q 2259 -75 1647 -75 
Q 1250 -75 917 144 
Q 584 363 401 755 
Q 219 1147 219 1656 
Q 219 2153 384 2558 
Q 550 2963 881 3178 
Q 1213 3394 1622 3394 
Q 1922 3394 2156 3267 
Q 2391 3141 2538 2938 
L 2538 4581 
L 3097 4581 
L 3097 0 
L 2575 0 
z
M 797 1656 
Q 797 1019 1065 703 
Q 1334 388 1700 388 
Q 2069 388 2326 689 
Q 2584 991 2584 1609 
Q 2584 2291 2321 2609 
Q 2059 2928 1675 2928 
Q 1300 2928 1048 2622 
Q 797 2316 797 1656 
z
" transform="scale(0.015625)"/>
       <path id="ArialMT-20" transform="scale(0.015625)"/>
       <path id="ArialMT-4d" d="M 475 0 
L 475 4581 
L 1388 4581 
L 2472 1338 
Q 2622 884 2691 659 
Q 2769 909 2934 1394 
L 4031 4581 
L 4847 4581 
L 4847 0 
L 4263 0 
L 4263 3834 
L 2931 0 
L 2384 0 
L 1059 3900 
L 1059 0 
L 475 0 
z
" transform="scale(0.015625)"/>
       <path id="ArialMT-73" d="M 197 991 
L 753 1078 
Q 800 744 1014 566 
Q 1228 388 1613 388 
Q 2000 388 2187 545 
Q 2375 703 2375 916 
Q 2375 1106 2209 1216 
Q 2094 1291 1634 1406 
Q 1016 1563 777 1677 
Q 538 1791 414 1992 
Q 291 2194 291 2438 
Q 291 2659 392 2848 
Q 494 3038 669 3163 
Q 800 3259 1026 3326 
Q 1253 3394 1513 3394 
Q 1903 3394 2198 3281 
Q 2494 3169 2634 2976 
Q 2775 2784 2828 2463 
L 2278 2388 
Q 2241 2644 2061 2787 
Q 1881 2931 1553 2931 
Q 1166 2931 1000 2803 
Q 834 2675 834 2503 
Q 834 2394 903 2306 
Q 972 2216 1119 2156 
Q 1203 2125 1616 2013 
Q 2213 1853 2448 1751 
Q 2684 1650 2818 1456 
Q 2953 1263 2953 975 
Q 2953 694 2789 445 
Q 2625 197 2315 61 
Q 2006 -75 1616 -75 
Q 969 -75 630 194 
Q 291 463 197 991 
z
" transform="scale(0.015625)"/>
       <path id="ArialMT-6f" d="M 213 1659 
Q 213 2581 725 3025 
Q 1153 3394 1769 3394 
Q 2453 3394 2887 2945 
Q 3322 2497 3322 1706 
Q 3322 1066 3130 698 
Q 2938 331 2570 128 
Q 2203 -75 1769 -75 
Q 1072 -75 642 372 
Q 213 819 213 1659 
z
M 791 1659 
Q 791 1022 1069 705 
Q 1347 388 1769 388 
Q 2188 388 2466 706 
Q 2744 1025 2744 1678 
Q 2744 2294 2464 2611 
Q 2184 2928 1769 2928 
Q 1347 2928 1069 2612 
Q 791 2297 791 1659 
z
" transform="scale(0.015625)"/>
       <path id="ArialMT-66" d="M 556 0 
L 556 2881 
L 59 2881 
L 59 3319 
L 556 3319 
L 556 3672 
Q 556 4006 616 4169 
Q 697 4388 901 4523 
Q 1106 4659 1475 4659 
Q 1713 4659 2000 4603 
L 1916 4113 
Q 1741 4144 1584 4144 
Q 1328 4144 1222 4034 
Q 1116 3925 1116 3625 
L 1116 3319 
L 1763 3319 
L 1763 2881 
L 1116 2881 
L 1116 0 
L 556 0 
z
" transform="scale(0.015625)"/>
       <path id="ArialMT-76" d="M 1344 0 
L 81 3319 
L 675 3319 
L 1388 1331 
Q 1503 1009 1600 663 
Q 1675 925 1809 1294 
L 2547 3319 
L 3125 3319 
L 1869 0 
L 1344 0 
z
" transform="scale(0.015625)"/>
       <path id="ArialMT-6c" d="M 409 0 
L 409 4581 
L 972 4581 
L 972 0 
L 409 0 
z
" transform="scale(0.015625)"/>
       <path id="ArialMT-75" d="M 2597 0 
L 2597 488 
Q 2209 -75 1544 -75 
Q 1250 -75 995 37 
Q 741 150 617 320 
Q 494 491 444 738 
Q 409 903 409 1263 
L 409 3319 
L 972 3319 
L 972 1478 
Q 972 1038 1006 884 
Q 1059 663 1231 536 
Q 1403 409 1656 409 
Q 1909 409 2131 539 
Q 2353 669 2445 892 
Q 2538 1116 2538 1541 
L 2538 3319 
L 3100 3319 
L 3100 0 
L 2597 0 
z
" transform="scale(0.015625)"/>
       <path id="ArialMT-28" d="M 1497 -1347 
Q 1031 -759 709 28 
Q 388 816 388 1659 
Q 388 2403 628 3084 
Q 909 3875 1497 4659 
L 1900 4659 
Q 1522 4009 1400 3731 
Q 1209 3300 1100 2831 
Q 966 2247 966 1656 
Q 966 153 1900 -1347 
L 1497 -1347 
z
" transform="scale(0.015625)"/>
       <path id="ArialMT-29" d="M 791 -1347 
L 388 -1347 
Q 1322 153 1322 1656 
Q 1322 2244 1188 2822 
Q 1081 3291 891 3722 
Q 769 4003 388 4659 
L 791 4659 
Q 1378 3875 1659 3084 
Q 1900 2403 1900 1659 
Q 1900 816 1576 28 
Q 1253 -759 791 -1347 
z
" transform="scale(0.015625)"/>
      </defs>
      <use xlink:href="#ArialMT-54"/>
      <use xlink:href="#ArialMT-72" x="57.333984"/>
      <use xlink:href="#ArialMT-69" x="90.634766"/>
      <use xlink:href="#ArialMT-6d" x="112.851562"/>
      <use xlink:href="#ArialMT-6d" x="196.152344"/>
      <use xlink:href="#ArialMT-65" x="279.453125"/>
      <use xlink:href="#ArialMT-64" x="335.068359"/>
      <use xlink:href="#ArialMT-20" x="390.683594"/>
      <use xlink:href="#ArialMT-4d" x="418.466797"/>
      <use xlink:href="#ArialMT-65" x="501.767578"/>
      <use xlink:href="#ArialMT-61" x="557.382812"/>
      <use xlink:href="#ArialMT-6e" x="612.998047"/>
      <use xlink:href="#ArialMT-73" x="668.613281"/>
      <use xlink:href="#ArialMT-20" x="718.613281"/>
      <use xlink:href="#ArialMT-6f" x="746.396484"/>
      <use xlink:href="#ArialMT-66" x="802.011719"/>
      <use xlink:href="#ArialMT-20" x="829.794922"/>
      <use xlink:href="#ArialMT-4d" x="857.578125"/>
      <use xlink:href="#ArialMT-20" x="940.878906"/>
      <use xlink:href="#ArialMT-76" x="968.662109"/>
      <use xlink:href="#ArialMT-61" x="1018.662109"/>
      <use xlink:href="#ArialMT-6c" x="1074.277344"/>
      <use xlink:href="#ArialMT-75" x="1096.494141"/>
      <use xlink:href="#ArialMT-65" x="1152.109375"/>
      <use xlink:href="#ArialMT-73" x="1207.724609"/>
      <use xlink:href="#ArialMT-20" x="1257.724609"/>
      <use xlink:href="#ArialMT-28" x="1285.507812"/>
      <use xlink:href="#ArialMT-54" x="1318.808594"/>
      <use xlink:href="#ArialMT-4d" x="1379.892578"/>
      <use xlink:href="#ArialMT-4d" x="1463.193359"/>
      <use xlink:href="#ArialMT-29" x="1546.494141"/>
     </g>
    </g>
   </g>
   <g id="PolyCollection_1">
    <defs>
     <path id="m330a4568c5" d="M 82.807364 -135.714935 
L 76.389239 -135.714935 
L 76.388916 -136.303341 
L 76.39549 -136.891748 
L 76.40877 -137.480154 
L 76.428497 -138.068561 
L 76.454347 -138.656967 
L 76.485928 -139.245374 
L 76.522783 -139.83378 
L 76.564394 -140.422187 
L 76.61018 -141.010593 
L 76.659503 -141.599 
L 76.711669 -142.187407 
L 76.765935 -142.775813 
L 76.821507 -143.36422 
L 76.877551 -143.952626 
L 76.93319 -144.541033 
L 76.987512 -145.129439 
L 77.039577 -145.717846 
L 77.088416 -146.306252 
L 77.133039 -146.894659 
L 77.172439 -147.483065 
L 77.205596 -148.071472 
L 77.231482 -148.659878 
L 77.249069 -149.248285 
L 77.257328 -149.836691 
L 77.255238 -150.425098 
L 77.241792 -151.013505 
L 77.215999 -151.601911 
L 77.176891 -152.190318 
L 77.123529 -152.778724 
L 77.055008 -153.367131 
L 76.970466 -153.955537 
L 76.869084 -154.543944 
L 76.750098 -155.13235 
L 76.612806 -155.720757 
L 76.45657 -156.309163 
L 76.280827 -156.89757 
L 76.085096 -157.485976 
L 75.868984 -158.074383 
L 75.632192 -158.662789 
L 75.374526 -159.251196 
L 75.095901 -159.839603 
L 74.796347 -160.428009 
L 74.476019 -161.016416 
L 74.135197 -161.604822 
L 73.774298 -162.193229 
L 73.393872 -162.781635 
L 72.994614 -163.370042 
L 72.577358 -163.958448 
L 72.143086 -164.546855 
L 71.692921 -165.135261 
L 71.228129 -165.723668 
L 70.750117 -166.312074 
L 70.260426 -166.900481 
L 69.760726 -167.488887 
L 69.252811 -168.077294 
L 68.738587 -168.665701 
L 68.220061 -169.254107 
L 67.699333 -169.842514 
L 67.17858 -170.43092 
L 66.660044 -171.019327 
L 66.146013 -171.607733 
L 65.638808 -172.19614 
L 65.140767 -172.784546 
L 64.654221 -173.372953 
L 64.181484 -173.961359 
L 63.724831 -174.549766 
L 63.286481 -175.138172 
L 62.868577 -175.726579 
L 62.473174 -176.314985 
L 62.102219 -176.903392 
L 61.757534 -177.491799 
L 61.440809 -178.080205 
L 61.153582 -178.668612 
L 60.897228 -179.257018 
L 60.672956 -179.845425 
L 60.481792 -180.433831 
L 60.324579 -181.022238 
L 60.201968 -181.610644 
L 60.114419 -182.199051 
L 60.062198 -182.787457 
L 60.045375 -183.375864 
L 60.063834 -183.96427 
L 60.117268 -184.552677 
L 60.205192 -185.141083 
L 60.326946 -185.72949 
L 60.481704 -186.317897 
L 60.668485 -186.906303 
L 60.886161 -187.49471 
L 61.133471 -188.083116 
L 61.409032 -188.671523 
L 61.711352 -189.259929 
L 62.03884 -189.848336 
L 62.389826 -190.436742 
L 62.762565 -191.025149 
L 63.155261 -191.613555 
L 63.56607 -192.201962 
L 63.99312 -192.790368 
L 64.43452 -193.378775 
L 64.888376 -193.967181 
L 94.308227 -193.967181 
L 94.308227 -193.967181 
L 94.762083 -193.378775 
L 95.203483 -192.790368 
L 95.630533 -192.201962 
L 96.041342 -191.613555 
L 96.434038 -191.025149 
L 96.806777 -190.436742 
L 97.157763 -189.848336 
L 97.485251 -189.259929 
L 97.787571 -188.671523 
L 98.063132 -188.083116 
L 98.310442 -187.49471 
L 98.528118 -186.906303 
L 98.714899 -186.317897 
L 98.869657 -185.72949 
L 98.99141 -185.141083 
L 99.079335 -184.552677 
L 99.132769 -183.96427 
L 99.151228 -183.375864 
L 99.134405 -182.787457 
L 99.082184 -182.199051 
L 98.994635 -181.610644 
L 98.872024 -181.022238 
L 98.714811 -180.433831 
L 98.523647 -179.845425 
L 98.299375 -179.257018 
L 98.043021 -178.668612 
L 97.755794 -178.080205 
L 97.439068 -177.491799 
L 97.094384 -176.903392 
L 96.723429 -176.314985 
L 96.328026 -175.726579 
L 95.910122 -175.138172 
L 95.471771 -174.549766 
L 95.015119 -173.961359 
L 94.542382 -173.372953 
L 94.055836 -172.784546 
L 93.557795 -172.19614 
L 93.05059 -171.607733 
L 92.536559 -171.019327 
L 92.018023 -170.43092 
L 91.49727 -169.842514 
L 90.976542 -169.254107 
L 90.458016 -168.665701 
L 89.943791 -168.077294 
L 89.435876 -167.488887 
L 88.936177 -166.900481 
L 88.446486 -166.312074 
L 87.968474 -165.723668 
L 87.503682 -165.135261 
L 87.053517 -164.546855 
L 86.619244 -163.958448 
L 86.201989 -163.370042 
L 85.802731 -162.781635 
L 85.422305 -162.193229 
L 85.061405 -161.604822 
L 84.720584 -161.016416 
L 84.400256 -160.428009 
L 84.100702 -159.839603 
L 83.822077 -159.251196 
L 83.564411 -158.662789 
L 83.327619 -158.074383 
L 83.111507 -157.485976 
L 82.915776 -156.89757 
L 82.740033 -156.309163 
L 82.583797 -155.720757 
L 82.446505 -155.13235 
L 82.327519 -154.543944 
L 82.226137 -153.955537 
L 82.141595 -153.367131 
L 82.073074 -152.778724 
L 82.019712 -152.190318 
L 81.980604 -151.601911 
L 81.95481 -151.013505 
L 81.941364 -150.425098 
L 81.939275 -149.836691 
L 81.947534 -149.248285 
L 81.965121 -148.659878 
L 81.991007 -148.071472 
L 82.024164 -147.483065 
L 82.063564 -146.894659 
L 82.108186 -146.306252 
L 82.157026 -145.717846 
L 82.209091 -145.129439 
L 82.263413 -144.541033 
L 82.319052 -143.952626 
L 82.375096 -143.36422 
L 82.430668 -142.775813 
L 82.484934 -142.187407 
L 82.5371 -141.599 
L 82.586423 -141.010593 
L 82.632209 -140.422187 
L 82.67382 -139.83378 
L 82.710675 -139.245374 
L 82.742256 -138.656967 
L 82.768106 -138.068561 
L 82.787833 -137.480154 
L 82.801113 -136.891748 
L 82.807687 -136.303341 
L 82.807364 -135.714935 
z
" style="stroke: #999999; stroke-width: 2"/>
    </defs>
    <g clip-path="url(#p86af448897)">
     <use xlink:href="#m330a4568c5" x="0" y="255.11811" style="fill: #ffffff; stroke: #999999; stroke-width: 2"/>
    </g>
   </g>
   <g id="PolyCollection_2">
    <defs>
     <path id="m4829d0ac9c" d="M 149.830895 -146.068856 
L 138.878913 -146.068856 
L 138.776749 -146.837665 
L 138.677072 -147.606474 
L 138.579751 -148.375283 
L 138.48463 -149.144091 
L 138.391529 -149.9129 
L 138.300249 -150.681709 
L 138.210574 -151.450518 
L 138.122275 -152.219326 
L 138.035115 -152.988135 
L 137.948852 -153.756944 
L 137.863245 -154.525753 
L 137.778056 -155.294561 
L 137.693056 -156.06337 
L 137.608028 -156.832179 
L 137.522771 -157.600988 
L 137.437106 -158.369796 
L 137.350877 -159.138605 
L 137.263954 -159.907414 
L 137.176237 -160.676223 
L 137.087659 -161.445031 
L 136.998185 -162.21384 
L 136.907815 -162.982649 
L 136.816586 -163.751458 
L 136.724569 -164.520266 
L 136.631873 -165.289075 
L 136.53864 -166.057884 
L 136.445045 -166.826693 
L 136.351296 -167.595502 
L 136.257631 -168.36431 
L 136.164311 -169.133119 
L 136.071625 -169.901928 
L 135.979881 -170.670737 
L 135.889401 -171.439545 
L 135.800525 -172.208354 
L 135.713599 -172.977163 
L 135.628974 -173.745972 
L 135.547005 -174.51478 
L 135.468042 -175.283589 
L 135.39243 -176.052398 
L 135.320504 -176.821207 
L 135.252588 -177.590015 
L 135.188986 -178.358824 
L 135.129988 -179.127633 
L 135.075859 -179.896442 
L 135.026843 -180.66525 
L 134.98316 -181.434059 
L 134.945002 -182.202868 
L 134.912536 -182.971677 
L 134.8859 -183.740485 
L 134.865208 -184.509294 
L 134.850542 -185.278103 
L 134.841963 -186.046912 
L 134.839503 -186.81572 
L 134.84317 -187.584529 
L 134.852949 -188.353338 
L 134.868805 -189.122147 
L 134.890683 -189.890956 
L 134.918507 -190.659764 
L 134.952189 -191.428573 
L 134.991624 -192.197382 
L 135.036697 -192.966191 
L 135.087282 -193.734999 
L 135.143243 -194.503808 
L 135.204439 -195.272617 
L 135.270723 -196.041426 
L 135.341946 -196.810234 
L 135.417953 -197.579043 
L 135.498592 -198.347852 
L 135.583707 -199.116661 
L 135.673146 -199.885469 
L 135.766756 -200.654278 
L 135.864385 -201.423087 
L 135.965886 -202.191896 
L 136.071111 -202.960704 
L 136.179917 -203.729513 
L 136.29216 -204.498322 
L 136.407701 -205.267131 
L 136.526401 -206.035939 
L 136.648122 -206.804748 
L 136.772728 -207.573557 
L 136.900083 -208.342366 
L 137.030052 -209.111175 
L 137.162497 -209.879983 
L 137.297281 -210.648792 
L 137.434265 -211.417601 
L 137.573309 -212.18641 
L 137.714269 -212.955218 
L 137.857 -213.724027 
L 138.001354 -214.492836 
L 138.147178 -215.261645 
L 138.294319 -216.030453 
L 138.442618 -216.799262 
L 138.591913 -217.568071 
L 138.742039 -218.33688 
L 138.892828 -219.105688 
L 139.044108 -219.874497 
L 139.195705 -220.643306 
L 139.347443 -221.412115 
L 139.499141 -222.180923 
L 149.210668 -222.180923 
L 149.210668 -222.180923 
L 149.362366 -221.412115 
L 149.514103 -220.643306 
L 149.665701 -219.874497 
L 149.816981 -219.105688 
L 149.96777 -218.33688 
L 150.117896 -217.568071 
L 150.267191 -216.799262 
L 150.41549 -216.030453 
L 150.562631 -215.261645 
L 150.708455 -214.492836 
L 150.852809 -213.724027 
L 150.99554 -212.955218 
L 151.1365 -212.18641 
L 151.275544 -211.417601 
L 151.412528 -210.648792 
L 151.547312 -209.879983 
L 151.679757 -209.111175 
L 151.809725 -208.342366 
L 151.937081 -207.573557 
L 152.061687 -206.804748 
L 152.183408 -206.035939 
L 152.302108 -205.267131 
L 152.417649 -204.498322 
L 152.529892 -203.729513 
L 152.638698 -202.960704 
L 152.743923 -202.191896 
L 152.845424 -201.423087 
L 152.943053 -200.654278 
L 153.036663 -199.885469 
L 153.126102 -199.116661 
L 153.211217 -198.347852 
L 153.291856 -197.579043 
L 153.367863 -196.810234 
L 153.439085 -196.041426 
L 153.50537 -195.272617 
L 153.566566 -194.503808 
L 153.622527 -193.734999 
L 153.673111 -192.966191 
L 153.718185 -192.197382 
L 153.75762 -191.428573 
L 153.791302 -190.659764 
L 153.819126 -189.890956 
L 153.841003 -189.122147 
L 153.85686 -188.353338 
L 153.866639 -187.584529 
L 153.870306 -186.81572 
L 153.867846 -186.046912 
L 153.859266 -185.278103 
L 153.844601 -184.509294 
L 153.823908 -183.740485 
L 153.797273 -182.971677 
L 153.764807 -182.202868 
L 153.726649 -181.434059 
L 153.682965 -180.66525 
L 153.63395 -179.896442 
L 153.579821 -179.127633 
L 153.520823 -178.358824 
L 153.457221 -177.590015 
L 153.389305 -176.821207 
L 153.317379 -176.052398 
L 153.241767 -175.283589 
L 153.162804 -174.51478 
L 153.080835 -173.745972 
L 152.99621 -172.977163 
L 152.909284 -172.208354 
L 152.820407 -171.439545 
L 152.729928 -170.670737 
L 152.638184 -169.901928 
L 152.545498 -169.133119 
L 152.452178 -168.36431 
L 152.358512 -167.595502 
L 152.264764 -166.826693 
L 152.171169 -166.057884 
L 152.077936 -165.289075 
L 151.98524 -164.520266 
L 151.893223 -163.751458 
L 151.801994 -162.982649 
L 151.711624 -162.21384 
L 151.62215 -161.445031 
L 151.533571 -160.676223 
L 151.445855 -159.907414 
L 151.358932 -159.138605 
L 151.272702 -158.369796 
L 151.187038 -157.600988 
L 151.101781 -156.832179 
L 151.016753 -156.06337 
L 150.931752 -155.294561 
L 150.846564 -154.525753 
L 150.760957 -153.756944 
L 150.674694 -152.988135 
L 150.587534 -152.219326 
L 150.499235 -151.450518 
L 150.40956 -150.681709 
L 150.31828 -149.9129 
L 150.225179 -149.144091 
L 150.130058 -148.375283 
L 150.032737 -147.606474 
L 149.93306 -146.837665 
L 149.830895 -146.068856 
z
" style="stroke: #999999; stroke-width: 2"/>
    </defs>
    <g clip-path="url(#p86af448897)">
     <use xlink:href="#m4829d0ac9c" x="0" y="255.11811" style="fill: #ffffff; stroke: #999999; stroke-width: 2"/>
    </g>
   </g>
   <g id="PolyCollection_3">
    <defs>
     <path id="m421ecc1ed8" d="M 227.479922 -58.491935 
L 190.743093 -58.491935 
L 190.339024 -58.800254 
L 189.945577 -59.108572 
L 189.563645 -59.41689 
L 189.194099 -59.725208 
L 188.837787 -60.033526 
L 188.495528 -60.341844 
L 188.168112 -60.650163 
L 187.856294 -60.958481 
L 187.560791 -61.266799 
L 187.282283 -61.575117 
L 187.021404 -61.883435 
L 186.778745 -62.191754 
L 186.554845 -62.500072 
L 186.350196 -62.80839 
L 186.165233 -63.116708 
L 186.000337 -63.425026 
L 185.855828 -63.733344 
L 185.731968 -64.041663 
L 185.628956 -64.349981 
L 185.546925 -64.658299 
L 185.485945 -64.966617 
L 185.446017 -65.274935 
L 185.427075 -65.583254 
L 185.428985 -65.891572 
L 185.451543 -66.19989 
L 185.494477 -66.508208 
L 185.557444 -66.816526 
L 185.640034 -67.124844 
L 185.741771 -67.433163 
L 185.862111 -67.741481 
L 186.000445 -68.049799 
L 186.156103 -68.358117 
L 186.328354 -68.666435 
L 186.516411 -68.974753 
L 186.719431 -69.283072 
L 186.936522 -69.59139 
L 187.166744 -69.899708 
L 187.409114 -70.208026 
L 187.662612 -70.516344 
L 187.926185 -70.824663 
L 188.198751 -71.132981 
L 188.479204 -71.441299 
L 188.766423 -71.749617 
L 189.059274 -72.057935 
L 189.356617 -72.366253 
L 189.657313 -72.674572 
L 189.96023 -72.98289 
L 190.264247 -73.291208 
L 190.568262 -73.599526 
L 190.871199 -73.907844 
L 191.172011 -74.216163 
L 191.469689 -74.524481 
L 191.763265 -74.832799 
L 192.051821 -75.141117 
L 192.33449 -75.449435 
L 192.610463 -75.757753 
L 192.878995 -76.066072 
L 193.139407 -76.37439 
L 193.391089 -76.682708 
L 193.633509 -76.991026 
L 193.866209 -77.299344 
L 194.088809 -77.607663 
L 194.301015 -77.915981 
L 194.502611 -78.224299 
L 194.693466 -78.532617 
L 194.873532 -78.840935 
L 195.042847 -79.149253 
L 195.201526 -79.457572 
L 195.349769 -79.76589 
L 195.487853 -80.074208 
L 195.61613 -80.382526 
L 195.735025 -80.690844 
L 195.845031 -80.999162 
L 195.946707 -81.307481 
L 196.04067 -81.615799 
L 196.12759 -81.924117 
L 196.208189 -82.232435 
L 196.283227 -82.540753 
L 196.353504 -82.849072 
L 196.419848 -83.15739 
L 196.483108 -83.465708 
L 196.54415 -83.774026 
L 196.603849 -84.082344 
L 196.663081 -84.390662 
L 196.722716 -84.698981 
L 196.783611 -85.007299 
L 196.846603 -85.315617 
L 196.912504 -85.623935 
L 196.982093 -85.932253 
L 197.056109 -86.240572 
L 197.135249 -86.54889 
L 197.220159 -86.857208 
L 197.311431 -87.165526 
L 197.409597 -87.473844 
L 197.51513 -87.782162 
L 197.628436 -88.090481 
L 197.749852 -88.398799 
L 197.879647 -88.707117 
L 198.018019 -89.015435 
L 220.204995 -89.015435 
L 220.204995 -89.015435 
L 220.343368 -88.707117 
L 220.473163 -88.398799 
L 220.594579 -88.090481 
L 220.707884 -87.782162 
L 220.813417 -87.473844 
L 220.911584 -87.165526 
L 221.002856 -86.857208 
L 221.087765 -86.54889 
L 221.166905 -86.240572 
L 221.240922 -85.932253 
L 221.310511 -85.623935 
L 221.376412 -85.315617 
L 221.439404 -85.007299 
L 221.500299 -84.698981 
L 221.559933 -84.390662 
L 221.619165 -84.082344 
L 221.678865 -83.774026 
L 221.739907 -83.465708 
L 221.803167 -83.15739 
L 221.86951 -82.849072 
L 221.939787 -82.540753 
L 222.014826 -82.232435 
L 222.095424 -81.924117 
L 222.182345 -81.615799 
L 222.276307 -81.307481 
L 222.377983 -80.999162 
L 222.48799 -80.690844 
L 222.606885 -80.382526 
L 222.735162 -80.074208 
L 222.873245 -79.76589 
L 223.021489 -79.457572 
L 223.180168 -79.149253 
L 223.349482 -78.840935 
L 223.529549 -78.532617 
L 223.720404 -78.224299 
L 223.922 -77.915981 
L 224.134205 -77.607663 
L 224.356806 -77.299344 
L 224.589505 -76.991026 
L 224.831925 -76.682708 
L 225.083608 -76.37439 
L 225.34402 -76.066072 
L 225.612552 -75.757753 
L 225.888525 -75.449435 
L 226.171193 -75.141117 
L 226.459749 -74.832799 
L 226.753326 -74.524481 
L 227.051004 -74.216163 
L 227.351816 -73.907844 
L 227.654753 -73.599526 
L 227.958768 -73.291208 
L 228.262785 -72.98289 
L 228.565701 -72.674572 
L 228.866397 -72.366253 
L 229.163741 -72.057935 
L 229.456591 -71.749617 
L 229.74381 -71.441299 
L 230.024264 -71.132981 
L 230.296829 -70.824663 
L 230.560402 -70.516344 
L 230.813901 -70.208026 
L 231.056271 -69.899708 
L 231.286493 -69.59139 
L 231.503583 -69.283072 
L 231.706603 -68.974753 
L 231.89466 -68.666435 
L 232.066912 -68.358117 
L 232.22257 -68.049799 
L 232.360904 -67.741481 
L 232.481243 -67.433163 
L 232.58298 -67.124844 
L 232.665571 -66.816526 
L 232.728538 -66.508208 
L 232.771471 -66.19989 
L 232.794029 -65.891572 
L 232.79594 -65.583254 
L 232.776998 -65.274935 
L 232.73707 -64.966617 
L 232.67609 -64.658299 
L 232.594059 -64.349981 
L 232.491046 -64.041663 
L 232.367186 -63.733344 
L 232.222678 -63.425026 
L 232.057781 -63.116708 
L 231.872818 -62.80839 
L 231.668169 -62.500072 
L 231.44427 -62.191754 
L 231.20161 -61.883435 
L 230.940732 -61.575117 
L 230.662223 -61.266799 
L 230.366721 -60.958481 
L 230.054902 -60.650163 
L 229.727486 -60.341844 
L 229.385228 -60.033526 
L 229.028916 -59.725208 
L 228.65937 -59.41689 
L 228.277438 -59.108572 
L 227.883991 -58.800254 
L 227.479922 -58.491935 
z
" style="stroke: #999999; stroke-width: 2"/>
    </defs>
    <g clip-path="url(#p86af448897)">
     <use xlink:href="#m421ecc1ed8" x="0" y="255.11811" style="fill: #ffffff; stroke: #999999; stroke-width: 2"/>
    </g>
   </g>
   <g id="PolyCollection_4">
    <defs>
     <path id="m983540f1b8" d="M 284.555768 -49.837187 
L 263.180452 -49.837187 
L 262.720937 -50.153865 
L 262.252711 -50.470543 
L 261.776158 -50.787221 
L 261.291737 -51.103899 
L 260.799988 -51.420577 
L 260.301542 -51.737255 
L 259.797121 -52.053933 
L 259.287553 -52.370612 
L 258.773762 -52.68729 
L 258.256782 -53.003968 
L 257.737746 -53.320646 
L 257.217889 -53.637324 
L 256.698542 -53.954002 
L 256.181122 -54.27068 
L 255.667126 -54.587358 
L 255.158118 -54.904036 
L 254.655713 -55.220714 
L 254.161564 -55.537392 
L 253.677347 -55.854071 
L 253.204735 -56.170749 
L 252.745385 -56.487427 
L 252.300917 -56.804105 
L 251.872891 -57.120783 
L 251.462786 -57.437461 
L 251.071984 -57.754139 
L 250.70175 -58.070817 
L 250.35321 -58.387495 
L 250.027342 -58.704173 
L 249.724956 -59.020851 
L 249.446688 -59.33753 
L 249.192988 -59.654208 
L 248.964116 -59.970886 
L 248.760136 -60.287564 
L 248.580923 -60.604242 
L 248.426158 -60.92092 
L 248.295344 -61.237598 
L 248.187807 -61.554276 
L 248.102716 -61.870954 
L 248.039093 -62.187632 
L 247.995833 -62.504311 
L 247.971724 -62.820989 
L 247.965469 -63.137667 
L 247.975705 -63.454345 
L 248.001033 -63.771023 
L 248.040034 -64.087701 
L 248.091301 -64.404379 
L 248.153459 -64.721057 
L 248.225184 -65.037735 
L 248.305232 -65.354413 
L 248.392451 -65.671091 
L 248.485806 -65.98777 
L 248.584387 -66.304448 
L 248.687424 -66.621126 
L 248.7943 -66.937804 
L 248.904552 -67.254482 
L 249.017879 -67.57116 
L 249.134139 -67.887838 
L 249.253348 -68.204516 
L 249.375674 -68.521194 
L 249.501429 -68.837872 
L 249.631056 -69.15455 
L 249.765116 -69.471229 
L 249.904275 -69.787907 
L 250.049282 -70.104585 
L 250.200954 -70.421263 
L 250.360157 -70.737941 
L 250.527781 -71.054619 
L 250.704725 -71.371297 
L 250.891877 -71.687975 
L 251.09009 -72.004653 
L 251.300169 -72.321331 
L 251.522853 -72.638009 
L 251.758798 -72.954688 
L 252.008566 -73.271366 
L 252.272613 -73.588044 
L 252.55128 -73.904722 
L 252.844789 -74.2214 
L 253.153235 -74.538078 
L 253.476587 -74.854756 
L 253.814687 -75.171434 
L 254.167253 -75.488112 
L 254.533886 -75.80479 
L 254.914069 -76.121468 
L 255.307185 -76.438147 
L 255.712517 -76.754825 
L 256.129262 -77.071503 
L 256.556542 -77.388181 
L 256.993414 -77.704859 
L 257.438883 -78.021537 
L 257.891909 -78.338215 
L 258.351424 -78.654893 
L 258.816339 -78.971571 
L 259.285553 -79.288249 
L 259.757967 -79.604927 
L 260.232486 -79.921606 
L 260.708031 -80.238284 
L 261.183547 -80.554962 
L 261.658001 -80.87164 
L 262.130398 -81.188318 
L 285.605823 -81.188318 
L 285.605823 -81.188318 
L 286.078219 -80.87164 
L 286.552674 -80.554962 
L 287.028189 -80.238284 
L 287.503735 -79.921606 
L 287.978254 -79.604927 
L 288.450667 -79.288249 
L 288.919882 -78.971571 
L 289.384796 -78.654893 
L 289.844311 -78.338215 
L 290.297338 -78.021537 
L 290.742806 -77.704859 
L 291.179679 -77.388181 
L 291.606959 -77.071503 
L 292.023704 -76.754825 
L 292.429035 -76.438147 
L 292.822151 -76.121468 
L 293.202335 -75.80479 
L 293.568967 -75.488112 
L 293.921534 -75.171434 
L 294.259634 -74.854756 
L 294.582985 -74.538078 
L 294.891431 -74.2214 
L 295.18494 -73.904722 
L 295.463608 -73.588044 
L 295.727655 -73.271366 
L 295.977422 -72.954688 
L 296.213367 -72.638009 
L 296.436051 -72.321331 
L 296.646131 -72.004653 
L 296.844344 -71.687975 
L 297.031495 -71.371297 
L 297.20844 -71.054619 
L 297.376064 -70.737941 
L 297.535266 -70.421263 
L 297.686939 -70.104585 
L 297.831946 -69.787907 
L 297.971104 -69.471229 
L 298.105165 -69.15455 
L 298.234791 -68.837872 
L 298.360546 -68.521194 
L 298.482873 -68.204516 
L 298.602082 -67.887838 
L 298.718342 -67.57116 
L 298.831668 -67.254482 
L 298.941921 -66.937804 
L 299.048796 -66.621126 
L 299.151834 -66.304448 
L 299.250414 -65.98777 
L 299.343769 -65.671091 
L 299.430989 -65.354413 
L 299.511037 -65.037735 
L 299.582762 -64.721057 
L 299.644919 -64.404379 
L 299.696186 -64.087701 
L 299.735188 -63.771023 
L 299.760515 -63.454345 
L 299.770751 -63.137667 
L 299.764496 -62.820989 
L 299.740387 -62.504311 
L 299.697128 -62.187632 
L 299.633504 -61.870954 
L 299.548413 -61.554276 
L 299.440877 -61.237598 
L 299.310062 -60.92092 
L 299.155298 -60.604242 
L 298.976084 -60.287564 
L 298.772105 -59.970886 
L 298.543232 -59.654208 
L 298.289532 -59.33753 
L 298.011264 -59.020851 
L 297.708879 -58.704173 
L 297.38301 -58.387495 
L 297.034471 -58.070817 
L 296.664236 -57.754139 
L 296.273435 -57.437461 
L 295.86333 -57.120783 
L 295.435303 -56.804105 
L 294.990835 -56.487427 
L 294.531486 -56.170749 
L 294.058874 -55.854071 
L 293.574656 -55.537392 
L 293.080508 -55.220714 
L 292.578103 -54.904036 
L 292.069094 -54.587358 
L 291.555098 -54.27068 
L 291.037679 -53.954002 
L 290.518331 -53.637324 
L 289.998475 -53.320646 
L 289.479439 -53.003968 
L 288.962458 -52.68729 
L 288.448668 -52.370612 
L 287.939099 -52.053933 
L 287.434679 -51.737255 
L 286.936232 -51.420577 
L 286.444483 -51.103899 
L 285.960062 -50.787221 
L 285.48351 -50.470543 
L 285.015284 -50.153865 
L 284.555768 -49.837187 
z
" style="stroke: #999999; stroke-width: 2"/>
    </defs>
    <g clip-path="url(#p86af448897)">
     <use xlink:href="#m983540f1b8" x="0" y="255.11811" style="fill: #ffffff; stroke: #999999; stroke-width: 2"/>
    </g>
   </g>
   <g id="PolyCollection_5">
    <defs>
     <path id="mb81728ac18" d="M 347.297471 -57.454604 
L 329.951955 -57.454604 
L 329.831193 -58.010114 
L 329.716627 -58.565624 
L 329.60845 -59.121134 
L 329.506829 -59.676645 
L 329.41191 -60.232155 
L 329.323809 -60.787665 
L 329.242619 -61.343175 
L 329.168404 -61.898685 
L 329.101201 -62.454195 
L 329.041018 -63.009705 
L 328.987837 -63.565216 
L 328.941611 -64.120726 
L 328.902263 -64.676236 
L 328.869692 -65.231746 
L 328.843767 -65.787256 
L 328.824333 -66.342766 
L 328.811207 -66.898276 
L 328.804182 -67.453787 
L 328.803029 -68.009297 
L 328.807497 -68.564807 
L 328.817311 -69.120317 
L 328.83218 -69.675827 
L 328.851794 -70.231337 
L 328.875828 -70.786848 
L 328.903943 -71.342358 
L 328.935788 -71.897868 
L 328.971001 -72.453378 
L 329.009214 -73.008888 
L 329.050052 -73.564398 
L 329.093138 -74.119908 
L 329.138091 -74.675419 
L 329.184533 -75.230929 
L 329.232089 -75.786439 
L 329.280388 -76.341949 
L 329.329067 -76.897459 
L 329.377772 -77.452969 
L 329.42616 -78.008479 
L 329.473902 -78.56399 
L 329.520682 -79.1195 
L 329.566204 -79.67501 
L 329.610187 -80.23052 
L 329.652372 -80.78603 
L 329.692519 -81.34154 
L 329.730413 -81.89705 
L 329.76586 -82.452561 
L 329.79869 -83.008071 
L 329.828762 -83.563581 
L 329.855955 -84.119091 
L 329.88018 -84.674601 
L 329.90137 -85.230111 
L 329.919486 -85.785622 
L 329.934517 -86.341132 
L 329.946476 -86.896642 
L 329.955405 -87.452152 
L 329.961369 -88.007662 
L 329.96446 -88.563172 
L 329.964792 -89.118682 
L 329.962507 -89.674193 
L 329.957764 -90.229703 
L 329.950746 -90.785213 
L 329.941657 -91.340723 
L 329.930718 -91.896233 
L 329.918167 -92.451743 
L 329.904261 -93.007253 
L 329.889268 -93.562764 
L 329.873469 -94.118274 
L 329.857156 -94.673784 
L 329.840633 -95.229294 
L 329.824207 -95.784804 
L 329.808194 -96.340314 
L 329.792911 -96.895824 
L 329.778679 -97.451335 
L 329.765819 -98.006845 
L 329.754648 -98.562355 
L 329.745482 -99.117865 
L 329.738631 -99.673375 
L 329.734398 -100.228885 
L 329.733078 -100.784396 
L 329.734955 -101.339906 
L 329.740302 -101.895416 
L 329.749379 -102.450926 
L 329.762432 -103.006436 
L 329.779689 -103.561946 
L 329.801364 -104.117456 
L 329.827653 -104.672967 
L 329.858731 -105.228477 
L 329.894756 -105.783987 
L 329.935863 -106.339497 
L 329.982168 -106.895007 
L 330.033765 -107.450517 
L 330.090726 -108.006027 
L 330.1531 -108.561538 
L 330.220916 -109.117048 
L 330.294179 -109.672558 
L 330.372872 -110.228068 
L 330.456956 -110.783578 
L 330.546372 -111.339088 
L 330.641037 -111.894598 
L 330.740851 -112.450109 
L 346.508576 -112.450109 
L 346.508576 -112.450109 
L 346.608389 -111.894598 
L 346.703055 -111.339088 
L 346.79247 -110.783578 
L 346.876554 -110.228068 
L 346.955247 -109.672558 
L 347.02851 -109.117048 
L 347.096326 -108.561538 
L 347.158701 -108.006027 
L 347.215661 -107.450517 
L 347.267258 -106.895007 
L 347.313564 -106.339497 
L 347.354671 -105.783987 
L 347.390695 -105.228477 
L 347.421773 -104.672967 
L 347.448062 -104.117456 
L 347.469738 -103.561946 
L 347.486995 -103.006436 
L 347.500047 -102.450926 
L 347.509124 -101.895416 
L 347.514471 -101.339906 
L 347.516348 -100.784396 
L 347.515028 -100.228885 
L 347.510795 -99.673375 
L 347.503944 -99.117865 
L 347.494779 -98.562355 
L 347.483608 -98.006845 
L 347.470747 -97.451335 
L 347.456515 -96.895824 
L 347.441232 -96.340314 
L 347.425219 -95.784804 
L 347.408793 -95.229294 
L 347.39227 -94.673784 
L 347.375958 -94.118274 
L 347.360159 -93.562764 
L 347.345165 -93.007253 
L 347.331259 -92.451743 
L 347.318709 -91.896233 
L 347.30777 -91.340723 
L 347.29868 -90.785213 
L 347.291663 -90.229703 
L 347.28692 -89.674193 
L 347.284634 -89.118682 
L 347.284967 -88.563172 
L 347.288058 -88.007662 
L 347.294022 -87.452152 
L 347.30295 -86.896642 
L 347.31491 -86.341132 
L 347.32994 -85.785622 
L 347.348057 -85.230111 
L 347.369246 -84.674601 
L 347.393471 -84.119091 
L 347.420665 -83.563581 
L 347.450736 -83.008071 
L 347.483567 -82.452561 
L 347.519013 -81.89705 
L 347.556907 -81.34154 
L 347.597054 -80.78603 
L 347.639239 -80.23052 
L 347.683222 -79.67501 
L 347.728744 -79.1195 
L 347.775525 -78.56399 
L 347.823266 -78.008479 
L 347.871654 -77.452969 
L 347.920359 -76.897459 
L 347.969038 -76.341949 
L 348.017337 -75.786439 
L 348.064893 -75.230929 
L 348.111335 -74.675419 
L 348.156289 -74.119908 
L 348.199374 -73.564398 
L 348.240212 -73.008888 
L 348.278425 -72.453378 
L 348.313639 -71.897868 
L 348.345483 -71.342358 
L 348.373598 -70.786848 
L 348.397633 -70.231337 
L 348.417247 -69.675827 
L 348.432116 -69.120317 
L 348.44193 -68.564807 
L 348.446397 -68.009297 
L 348.445244 -67.453787 
L 348.43822 -66.898276 
L 348.425093 -66.342766 
L 348.405659 -65.787256 
L 348.379734 -65.231746 
L 348.347163 -64.676236 
L 348.307815 -64.120726 
L 348.261589 -63.565216 
L 348.208408 -63.009705 
L 348.148226 -62.454195 
L 348.081022 -61.898685 
L 348.006807 -61.343175 
L 347.925617 -60.787665 
L 347.837517 -60.232155 
L 347.742597 -59.676645 
L 347.640977 -59.121134 
L 347.532799 -58.565624 
L 347.418233 -58.010114 
L 347.297471 -57.454604 
z
" style="stroke: #999999; stroke-width: 2"/>
    </defs>
    <g clip-path="url(#p86af448897)">
     <use xlink:href="#mb81728ac18" x="0" y="255.11811" style="fill: #ffffff; stroke: #999999; stroke-width: 2"/>
    </g>
   </g>
   <g id="PolyCollection_6">
    <defs>
     <path id="m14b153bdc5" d="M 410.946386 -51.417671 
L 395.816247 -51.417671 
L 395.758946 -52.169153 
L 395.708437 -52.920634 
L 395.664757 -53.672116 
L 395.627912 -54.423597 
L 395.597885 -55.175079 
L 395.574631 -55.92656 
L 395.558079 -56.678042 
L 395.548131 -57.429523 
L 395.544667 -58.181005 
L 395.547538 -58.932486 
L 395.556575 -59.683968 
L 395.571584 -60.435449 
L 395.592352 -61.186931 
L 395.618644 -61.938412 
L 395.650206 -62.689894 
L 395.686768 -63.441375 
L 395.728043 -64.192857 
L 395.773731 -64.944338 
L 395.82352 -65.69582 
L 395.877084 -66.447301 
L 395.934092 -67.198783 
L 395.994204 -67.950264 
L 396.057075 -68.701746 
L 396.122355 -69.453227 
L 396.189695 -70.204709 
L 396.258744 -70.95619 
L 396.329154 -71.707672 
L 396.400579 -72.459153 
L 396.472679 -73.210635 
L 396.545122 -73.962116 
L 396.617581 -74.713598 
L 396.689742 -75.465079 
L 396.7613 -76.216561 
L 396.831962 -76.968042 
L 396.901451 -77.719524 
L 396.969501 -78.471005 
L 397.035864 -79.222487 
L 397.100307 -79.973968 
L 397.162615 -80.72545 
L 397.222591 -81.476931 
L 397.280055 -82.228413 
L 397.334847 -82.979894 
L 397.386827 -83.731376 
L 397.435872 -84.482857 
L 397.481881 -85.234339 
L 397.524771 -85.98582 
L 397.564481 -86.737302 
L 397.600968 -87.488783 
L 397.634209 -88.240264 
L 397.6642 -88.991746 
L 397.690955 -89.743227 
L 397.714509 -90.494709 
L 397.734913 -91.24619 
L 397.752236 -91.997672 
L 397.766565 -92.749153 
L 397.778 -93.500635 
L 397.786661 -94.252116 
L 397.792679 -95.003598 
L 397.796201 -95.755079 
L 397.797387 -96.506561 
L 397.796409 -97.258042 
L 397.79345 -98.009524 
L 397.788704 -98.761005 
L 397.782373 -99.512487 
L 397.774669 -100.263968 
L 397.76581 -101.01545 
L 397.756022 -101.766931 
L 397.745534 -102.518413 
L 397.73458 -103.269894 
L 397.723398 -104.021376 
L 397.712226 -104.772857 
L 397.701305 -105.524339 
L 397.690874 -106.27582 
L 397.68117 -107.027302 
L 397.67243 -107.778783 
L 397.664885 -108.530265 
L 397.658762 -109.281746 
L 397.654283 -110.033228 
L 397.651662 -110.784709 
L 397.651106 -111.536191 
L 397.652814 -112.287672 
L 397.656974 -113.039154 
L 397.663765 -113.790635 
L 397.673353 -114.542117 
L 397.685894 -115.293598 
L 397.70153 -116.04508 
L 397.720389 -116.796561 
L 397.742587 -117.548043 
L 397.768225 -118.299524 
L 397.797388 -119.051006 
L 397.830146 -119.802487 
L 397.866555 -120.553969 
L 397.906653 -121.30545 
L 397.950466 -122.056932 
L 397.997999 -122.808413 
L 398.049246 -123.559895 
L 398.104182 -124.311376 
L 398.162769 -125.062858 
L 398.224951 -125.814339 
L 408.537681 -125.814339 
L 408.537681 -125.814339 
L 408.599863 -125.062858 
L 408.65845 -124.311376 
L 408.713386 -123.559895 
L 408.764633 -122.808413 
L 408.812166 -122.056932 
L 408.855979 -121.30545 
L 408.896078 -120.553969 
L 408.932486 -119.802487 
L 408.965245 -119.051006 
L 408.994407 -118.299524 
L 409.020045 -117.548043 
L 409.042243 -116.796561 
L 409.061102 -116.04508 
L 409.076738 -115.293598 
L 409.089279 -114.542117 
L 409.098867 -113.790635 
L 409.105658 -113.039154 
L 409.109818 -112.287672 
L 409.111526 -111.536191 
L 409.11097 -110.784709 
L 409.108349 -110.033228 
L 409.10387 -109.281746 
L 409.097747 -108.530265 
L 409.090202 -107.778783 
L 409.081462 -107.027302 
L 409.071758 -106.27582 
L 409.061327 -105.524339 
L 409.050406 -104.772857 
L 409.039234 -104.021376 
L 409.028052 -103.269894 
L 409.017099 -102.518413 
L 409.006611 -101.766931 
L 408.996822 -101.01545 
L 408.987963 -100.263968 
L 408.980259 -99.512487 
L 408.973928 -98.761005 
L 408.969182 -98.009524 
L 408.966223 -97.258042 
L 408.965245 -96.506561 
L 408.966431 -95.755079 
L 408.969953 -95.003598 
L 408.975972 -94.252116 
L 408.984632 -93.500635 
L 408.996068 -92.749153 
L 409.010396 -91.997672 
L 409.027719 -91.24619 
L 409.048123 -90.494709 
L 409.071677 -89.743227 
L 409.098432 -88.991746 
L 409.128423 -88.240264 
L 409.161664 -87.488783 
L 409.198151 -86.737302 
L 409.237861 -85.98582 
L 409.280752 -85.234339 
L 409.326761 -84.482857 
L 409.375806 -83.731376 
L 409.427785 -82.979894 
L 409.482577 -82.228413 
L 409.540041 -81.476931 
L 409.600017 -80.72545 
L 409.662325 -79.973968 
L 409.726768 -79.222487 
L 409.793131 -78.471005 
L 409.861181 -77.719524 
L 409.93067 -76.968042 
L 410.001332 -76.216561 
L 410.07289 -75.465079 
L 410.145051 -74.713598 
L 410.21751 -73.962116 
L 410.289953 -73.210635 
L 410.362053 -72.459153 
L 410.433478 -71.707672 
L 410.503888 -70.95619 
L 410.572937 -70.204709 
L 410.640277 -69.453227 
L 410.705558 -68.701746 
L 410.768428 -67.950264 
L 410.82854 -67.198783 
L 410.885548 -66.447301 
L 410.939113 -65.69582 
L 410.988901 -64.944338 
L 411.034589 -64.192857 
L 411.075865 -63.441375 
L 411.112426 -62.689894 
L 411.143989 -61.938412 
L 411.17028 -61.186931 
L 411.191048 -60.435449 
L 411.206057 -59.683968 
L 411.215094 -58.932486 
L 411.217965 -58.181005 
L 411.214501 -57.429523 
L 411.204553 -56.678042 
L 411.188001 -55.92656 
L 411.164747 -55.175079 
L 411.13472 -54.423597 
L 411.097876 -53.672116 
L 411.054195 -52.920634 
L 411.003686 -52.169153 
L 410.946386 -51.417671 
z
" style="stroke: #999999; stroke-width: 2"/>
    </defs>
    <g clip-path="url(#p86af448897)">
     <use xlink:href="#m14b153bdc5" x="0" y="255.11811" style="fill: #ffffff; stroke: #999999; stroke-width: 2"/>
    </g>
   </g>
   <g id="PolyCollection_7">
    <defs>
     <path id="m7ab196abc5" d="M 489.667054 -61.989893 
L 446.608784 -61.989893 
L 446.403373 -62.295638 
L 446.221274 -62.601383 
L 446.062861 -62.907127 
L 445.928408 -63.212872 
L 445.818084 -63.518617 
L 445.731959 -63.824362 
L 445.669993 -64.130107 
L 445.632045 -64.435851 
L 445.617871 -64.741596 
L 445.627122 -65.047341 
L 445.659353 -65.353086 
L 445.714017 -65.65883 
L 445.790476 -65.964575 
L 445.888003 -66.27032 
L 446.005783 -66.576065 
L 446.142922 -66.88181 
L 446.298452 -67.187554 
L 446.471335 -67.493299 
L 446.660472 -67.799044 
L 446.864707 -68.104789 
L 447.082838 -68.410534 
L 447.31362 -68.716278 
L 447.555776 -69.022023 
L 447.808001 -69.327768 
L 448.068973 -69.633513 
L 448.337361 -69.939257 
L 448.61183 -70.245002 
L 448.891048 -70.550747 
L 449.173698 -70.856492 
L 449.458482 -71.162237 
L 449.744126 -71.467981 
L 450.029394 -71.773726 
L 450.313084 -72.079471 
L 450.594045 -72.385216 
L 450.871173 -72.690961 
L 451.143424 -72.996705 
L 451.409812 -73.30245 
L 451.669419 -73.608195 
L 451.921395 -73.91394 
L 452.164965 -74.219684 
L 452.399425 -74.525429 
L 452.624154 -74.831174 
L 452.838606 -75.136919 
L 453.042317 -75.442664 
L 453.234907 -75.748408 
L 453.416074 -76.054153 
L 453.585599 -76.359898 
L 453.743343 -76.665643 
L 453.889247 -76.971388 
L 454.023329 -77.277132 
L 454.145684 -77.582877 
L 454.256478 -77.888622 
L 454.35595 -78.194367 
L 454.444405 -78.500111 
L 454.522211 -78.805856 
L 454.589797 -79.111601 
L 454.647648 -79.417346 
L 454.696302 -79.723091 
L 454.736344 -80.028835 
L 454.7684 -80.33458 
L 454.793136 -80.640325 
L 454.811254 -80.94607 
L 454.82348 -81.251815 
L 454.830568 -81.557559 
L 454.833289 -81.863304 
L 454.832429 -82.169049 
L 454.828782 -82.474794 
L 454.823149 -82.780538 
L 454.81633 -83.086283 
L 454.809119 -83.392028 
L 454.802303 -83.697773 
L 454.796656 -84.003518 
L 454.792932 -84.309262 
L 454.791867 -84.615007 
L 454.794171 -84.920752 
L 454.800525 -85.226497 
L 454.811579 -85.532242 
L 454.827948 -85.837986 
L 454.850211 -86.143731 
L 454.878907 -86.449476 
L 454.914531 -86.755221 
L 454.957537 -87.060965 
L 455.008331 -87.36671 
L 455.067273 -87.672455 
L 455.134677 -87.9782 
L 455.210805 -88.283945 
L 455.295871 -88.589689 
L 455.390041 -88.895434 
L 455.493429 -89.201179 
L 455.6061 -89.506924 
L 455.728073 -89.812669 
L 455.859316 -90.118413 
L 455.999753 -90.424158 
L 456.14926 -90.729903 
L 456.307669 -91.035648 
L 456.474773 -91.341392 
L 456.650322 -91.647137 
L 456.834028 -91.952882 
L 457.025567 -92.258627 
L 479.250271 -92.258627 
L 479.250271 -92.258627 
L 479.44181 -91.952882 
L 479.625516 -91.647137 
L 479.801065 -91.341392 
L 479.968169 -91.035648 
L 480.126578 -90.729903 
L 480.276085 -90.424158 
L 480.416522 -90.118413 
L 480.547765 -89.812669 
L 480.669738 -89.506924 
L 480.782409 -89.201179 
L 480.885797 -88.895434 
L 480.979967 -88.589689 
L 481.065033 -88.283945 
L 481.141161 -87.9782 
L 481.208565 -87.672455 
L 481.267507 -87.36671 
L 481.318301 -87.060965 
L 481.361307 -86.755221 
L 481.396931 -86.449476 
L 481.425627 -86.143731 
L 481.44789 -85.837986 
L 481.464259 -85.532242 
L 481.475313 -85.226497 
L 481.481667 -84.920752 
L 481.483971 -84.615007 
L 481.482906 -84.309262 
L 481.479182 -84.003518 
L 481.473535 -83.697773 
L 481.466719 -83.392028 
L 481.459508 -83.086283 
L 481.452689 -82.780538 
L 481.447056 -82.474794 
L 481.443409 -82.169049 
L 481.442549 -81.863304 
L 481.44527 -81.557559 
L 481.452358 -81.251815 
L 481.464584 -80.94607 
L 481.482702 -80.640325 
L 481.507438 -80.33458 
L 481.539494 -80.028835 
L 481.579536 -79.723091 
L 481.62819 -79.417346 
L 481.686041 -79.111601 
L 481.753627 -78.805856 
L 481.831433 -78.500111 
L 481.919888 -78.194367 
L 482.01936 -77.888622 
L 482.130154 -77.582877 
L 482.252509 -77.277132 
L 482.386591 -76.971388 
L 482.532495 -76.665643 
L 482.690239 -76.359898 
L 482.859764 -76.054153 
L 483.040931 -75.748408 
L 483.233521 -75.442664 
L 483.437232 -75.136919 
L 483.651684 -74.831174 
L 483.876413 -74.525429 
L 484.110873 -74.219684 
L 484.354443 -73.91394 
L 484.606419 -73.608195 
L 484.866026 -73.30245 
L 485.132414 -72.996705 
L 485.404665 -72.690961 
L 485.681793 -72.385216 
L 485.962754 -72.079471 
L 486.246444 -71.773726 
L 486.531712 -71.467981 
L 486.817356 -71.162237 
L 487.10214 -70.856492 
L 487.38479 -70.550747 
L 487.664008 -70.245002 
L 487.938477 -69.939257 
L 488.206865 -69.633513 
L 488.467837 -69.327768 
L 488.720062 -69.022023 
L 488.962218 -68.716278 
L 489.193 -68.410534 
L 489.411131 -68.104789 
L 489.615366 -67.799044 
L 489.804503 -67.493299 
L 489.977386 -67.187554 
L 490.132916 -66.88181 
L 490.270055 -66.576065 
L 490.387835 -66.27032 
L 490.485362 -65.964575 
L 490.561821 -65.65883 
L 490.616485 -65.353086 
L 490.648716 -65.047341 
L 490.657967 -64.741596 
L 490.643793 -64.435851 
L 490.605845 -64.130107 
L 490.543879 -63.824362 
L 490.457754 -63.518617 
L 490.34743 -63.212872 
L 490.212977 -62.907127 
L 490.054564 -62.601383 
L 489.872465 -62.295638 
L 489.667054 -61.989893 
z
" style="stroke: #999999; stroke-width: 2"/>
    </defs>
    <g clip-path="url(#p86af448897)">
     <use xlink:href="#m7ab196abc5" x="0" y="255.11811" style="fill: #ffffff; stroke: #999999; stroke-width: 2"/>
    </g>
   </g>
   <g id="PathCollection_1"/>
   <g id="PathCollection_2"/>
   <g id="patch_3">
    <path d="M 47.22 213.89811 
L 47.22 24.32 
" style="fill: none; stroke: #262626; stroke-width: 1.25; stroke-linejoin: miter; stroke-linecap: square"/>
   </g>
   <g id="patch_4">
    <path d="M 47.22 213.89811 
L 500.51622 213.89811 
" style="fill: none; stroke: #262626; stroke-width: 1.25; stroke-linejoin: miter; stroke-linecap: square"/>
   </g>
   <g id="PathCollection_3">
    <defs>
     <path id="C0_0_9bda376820" d="M 0 2.5 
C 0.663008 2.5 1.29895 2.236584 1.767767 1.767767 
C 2.236584 1.29895 2.5 0.663008 2.5 -0 
C 2.5 -0.663008 2.236584 -1.29895 1.767767 -1.767767 
C 1.29895 -2.236584 0.663008 -2.5 0 -2.5 
C -0.663008 -2.5 -1.29895 -2.236584 -1.767767 -1.767767 
C -2.236584 -1.29895 -2.5 -0.663008 -2.5 0 
C -2.5 0.663008 -2.236584 1.29895 -1.767767 1.767767 
C -1.29895 2.236584 -0.663008 2.5 0 2.5 
z
"/>
    </defs>
    <g clip-path="url(#p86af448897)">
     <use xlink:href="#C0_0_9bda376820" x="74.583035" y="61.150929" style="fill: #4c72b0; fill-opacity: 0.75"/>
    </g>
    <g clip-path="url(#p86af448897)">
     <use xlink:href="#C0_0_9bda376820" x="75.49944" y="75.979312" style="fill: #4c72b0; fill-opacity: 0.75"/>
    </g>
    <g clip-path="url(#p86af448897)">
     <use xlink:href="#C0_0_9bda376820" x="84.536109" y="72.273523" style="fill: #4c72b0; fill-opacity: 0.75"/>
    </g>
    <g clip-path="url(#p86af448897)">
     <use xlink:href="#C0_0_9bda376820" x="77.02769" y="119.403176" style="fill: #4c72b0; fill-opacity: 0.75"/>
    </g>
    <g clip-path="url(#p86af448897)">
     <use xlink:href="#C0_0_9bda376820" x="79.777622" y="77.313637" style="fill: #dd8452; fill-opacity: 0.75"/>
    </g>
    <g clip-path="url(#p86af448897)">
     <use xlink:href="#C0_0_9bda376820" x="78.591572" y="77.711371" style="fill: #dd8452; fill-opacity: 0.75"/>
    </g>
    <g clip-path="url(#p86af448897)">
     <use xlink:href="#C0_0_9bda376820" x="81.280255" y="62.351411" style="fill: #dd8452; fill-opacity: 0.75"/>
    </g>
    <g clip-path="url(#p86af448897)">
     <use xlink:href="#C0_0_9bda376820" x="84.908743" y="71.098641" style="fill: #dd8452; fill-opacity: 0.75"/>
    </g>
   </g>
   <g id="PathCollection_4">
    <defs>
     <path id="C1_0_7b3c889aee" d="M 0 2.5 
C 0.663008 2.5 1.29895 2.236584 1.767767 1.767767 
C 2.236584 1.29895 2.5 0.663008 2.5 -0 
C 2.5 -0.663008 2.236584 -1.29895 1.767767 -1.767767 
C 1.29895 -2.236584 0.663008 -2.5 0 -2.5 
C -0.663008 -2.5 -1.29895 -2.236584 -1.767767 -1.767767 
C -2.236584 -1.29895 -2.5 -0.663008 -2.5 0 
C -2.5 0.663008 -2.236584 1.29895 -1.767767 1.767767 
C -1.29895 2.236584 -0.663008 2.5 0 2.5 
z
"/>
    </defs>
    <g clip-path="url(#p86af448897)">
     <use xlink:href="#C1_0_7b3c889aee" x="148.225025" y="52.620639" style="fill: #4c72b0; fill-opacity: 0.75"/>
    </g>
    <g clip-path="url(#p86af448897)">
     <use xlink:href="#C1_0_7b3c889aee" x="149.242126" y="32.937187" style="fill: #4c72b0; fill-opacity: 0.75"/>
    </g>
    <g clip-path="url(#p86af448897)">
     <use xlink:href="#C1_0_7b3c889aee" x="145.938889" y="72.309384" style="fill: #4c72b0; fill-opacity: 0.75"/>
    </g>
    <g clip-path="url(#p86af448897)">
     <use xlink:href="#C1_0_7b3c889aee" x="138.892257" y="77.864459" style="fill: #4c72b0; fill-opacity: 0.75"/>
    </g>
    <g clip-path="url(#p86af448897)">
     <use xlink:href="#C1_0_7b3c889aee" x="140.544609" y="76.763549" style="fill: #dd8452; fill-opacity: 0.75"/>
    </g>
    <g clip-path="url(#p86af448897)">
     <use xlink:href="#C1_0_7b3c889aee" x="148.976595" y="52.744257" style="fill: #dd8452; fill-opacity: 0.75"/>
    </g>
    <g clip-path="url(#p86af448897)">
     <use xlink:href="#C1_0_7b3c889aee" x="140.328305" y="107.172369" style="fill: #dd8452; fill-opacity: 0.75"/>
    </g>
    <g clip-path="url(#p86af448897)">
     <use xlink:href="#C1_0_7b3c889aee" x="139.381034" y="109.049254" style="fill: #dd8452; fill-opacity: 0.75"/>
    </g>
   </g>
   <g id="PathCollection_5">
    <defs>
     <path id="C2_0_dbe7567612" d="M 0 2.5 
C 0.663008 2.5 1.29895 2.236584 1.767767 1.767767 
C 2.236584 1.29895 2.5 0.663008 2.5 -0 
C 2.5 -0.663008 2.236584 -1.29895 1.767767 -1.767767 
C 1.29895 -2.236584 0.663008 -2.5 0 -2.5 
C -0.663008 -2.5 -1.29895 -2.236584 -1.767767 -1.767767 
C -2.236584 -1.29895 -2.5 -0.663008 -2.5 0 
C -2.5 0.663008 -2.236584 1.29895 -1.767767 1.767767 
C -1.29895 2.236584 -0.663008 2.5 0 2.5 
z
"/>
    </defs>
    <g clip-path="url(#p86af448897)">
     <use xlink:href="#C2_0_dbe7567612" x="202.743102" y="166.102675" style="fill: #4c72b0; fill-opacity: 0.75"/>
    </g>
    <g clip-path="url(#p86af448897)">
     <use xlink:href="#C2_0_dbe7567612" x="212.435009" y="188.420208" style="fill: #4c72b0; fill-opacity: 0.75"/>
    </g>
    <g clip-path="url(#p86af448897)">
     <use xlink:href="#C2_0_dbe7567612" x="205.98451" y="196.626175" style="fill: #4c72b0; fill-opacity: 0.75"/>
    </g>
    <g clip-path="url(#p86af448897)">
     <use xlink:href="#C2_0_dbe7567612" x="209.757192" y="167.697399" style="fill: #4c72b0; fill-opacity: 0.75"/>
    </g>
    <g clip-path="url(#p86af448897)">
     <use xlink:href="#C2_0_dbe7567612" x="211.396411" y="187.613314" style="fill: #dd8452; fill-opacity: 0.75"/>
    </g>
    <g clip-path="url(#p86af448897)">
     <use xlink:href="#C2_0_dbe7567612" x="206.868718" y="187.959256" style="fill: #dd8452; fill-opacity: 0.75"/>
    </g>
    <g clip-path="url(#p86af448897)">
     <use xlink:href="#C2_0_dbe7567612" x="210.234139" y="196.168933" style="fill: #dd8452; fill-opacity: 0.75"/>
    </g>
    <g clip-path="url(#p86af448897)">
     <use xlink:href="#C2_0_dbe7567612" x="202.974576" y="179.910388" style="fill: #dd8452; fill-opacity: 0.75"/>
    </g>
   </g>
   <g id="PathCollection_6">
    <defs>
     <path id="C3_0_2d29fe2bce" d="M 0 2.5 
C 0.663008 2.5 1.29895 2.236584 1.767767 1.767767 
C 2.236584 1.29895 2.5 0.663008 2.5 -0 
C 2.5 -0.663008 2.236584 -1.29895 1.767767 -1.767767 
C 1.29895 -2.236584 0.663008 -2.5 0 -2.5 
C -0.663008 -2.5 -1.29895 -2.236584 -1.767767 -1.767767 
C -2.236584 -1.29895 -2.5 -0.663008 -2.5 0 
C -2.5 0.663008 -2.236584 1.29895 -1.767767 1.767767 
C -1.29895 2.236584 -0.663008 2.5 0 2.5 
z
"/>
    </defs>
    <g clip-path="url(#p86af448897)">
     <use xlink:href="#C3_0_2d29fe2bce" x="276.931746" y="189.046518" style="fill: #4c72b0; fill-opacity: 0.75"/>
    </g>
    <g clip-path="url(#p86af448897)">
     <use xlink:href="#C3_0_2d29fe2bce" x="272.845405" y="183.968021" style="fill: #4c72b0; fill-opacity: 0.75"/>
    </g>
    <g clip-path="url(#p86af448897)">
     <use xlink:href="#C3_0_2d29fe2bce" x="278.003407" y="181.164478" style="fill: #4c72b0; fill-opacity: 0.75"/>
    </g>
    <g clip-path="url(#p86af448897)">
     <use xlink:href="#C3_0_2d29fe2bce" x="273.472691" y="205.280923" style="fill: #4c72b0; fill-opacity: 0.75"/>
    </g>
    <g clip-path="url(#p86af448897)">
     <use xlink:href="#C3_0_2d29fe2bce" x="279.971583" y="173.929792" style="fill: #4c72b0; fill-opacity: 0.75"/>
    </g>
    <g clip-path="url(#p86af448897)">
     <use xlink:href="#C3_0_2d29fe2bce" x="268.169762" y="194.86763" style="fill: #dd8452; fill-opacity: 0.75"/>
    </g>
    <g clip-path="url(#p86af448897)">
     <use xlink:href="#C3_0_2d29fe2bce" x="268.928398" y="191.515308" style="fill: #dd8452; fill-opacity: 0.75"/>
    </g>
    <g clip-path="url(#p86af448897)">
     <use xlink:href="#C3_0_2d29fe2bce" x="278.769633" y="180.896558" style="fill: #dd8452; fill-opacity: 0.75"/>
    </g>
    <g clip-path="url(#p86af448897)">
     <use xlink:href="#C3_0_2d29fe2bce" x="280.342344" y="197.498686" style="fill: #dd8452; fill-opacity: 0.75"/>
    </g>
    <g clip-path="url(#p86af448897)">
     <use xlink:href="#C3_0_2d29fe2bce" x="272.356335" y="196.476653" style="fill: #dd8452; fill-opacity: 0.75"/>
    </g>
   </g>
   <g id="PathCollection_7">
    <defs>
     <path id="C4_0_a1b85817f2" d="M 0 2.5 
C 0.663008 2.5 1.29895 2.236584 1.767767 1.767767 
C 2.236584 1.29895 2.5 0.663008 2.5 -0 
C 2.5 -0.663008 2.236584 -1.29895 1.767767 -1.767767 
C 1.29895 -2.236584 0.663008 -2.5 0 -2.5 
C -0.663008 -2.5 -1.29895 -2.236584 -1.767767 -1.767767 
C -2.236584 -1.29895 -2.5 -0.663008 -2.5 0 
C -2.5 0.663008 -2.236584 1.29895 -1.767767 1.767767 
C -1.29895 2.236584 -0.663008 2.5 0 2.5 
z
"/>
    </defs>
    <g clip-path="url(#p86af448897)">
     <use xlink:href="#C4_0_a1b85817f2" x="333.520786" y="161.1364" style="fill: #4c72b0; fill-opacity: 0.75"/>
    </g>
    <g clip-path="url(#p86af448897)">
     <use xlink:href="#C4_0_a1b85817f2" x="333.188314" y="142.668002" style="fill: #4c72b0; fill-opacity: 0.75"/>
    </g>
    <g clip-path="url(#p86af448897)">
     <use xlink:href="#C4_0_a1b85817f2" x="335.908482" y="146.96476" style="fill: #4c72b0; fill-opacity: 0.75"/>
    </g>
    <g clip-path="url(#p86af448897)">
     <use xlink:href="#C4_0_a1b85817f2" x="334.565278" y="189.186839" style="fill: #dd8452; fill-opacity: 0.75"/>
    </g>
    <g clip-path="url(#p86af448897)">
     <use xlink:href="#C4_0_a1b85817f2" x="341.350244" y="197.663506" style="fill: #dd8452; fill-opacity: 0.75"/>
    </g>
    <g clip-path="url(#p86af448897)">
     <use xlink:href="#C4_0_a1b85817f2" x="343.564338" y="187.537388" style="fill: #dd8452; fill-opacity: 0.75"/>
    </g>
   </g>
   <g id="PathCollection_8">
    <defs>
     <path id="C5_0_3adcab2223" d="M 0 2.5 
C 0.663008 2.5 1.29895 2.236584 1.767767 1.767767 
C 2.236584 1.29895 2.5 0.663008 2.5 -0 
C 2.5 -0.663008 2.236584 -1.29895 1.767767 -1.767767 
C 1.29895 -2.236584 0.663008 -2.5 0 -2.5 
C -0.663008 -2.5 -1.29895 -2.236584 -1.767767 -1.767767 
C -2.236584 -1.29895 -2.5 -0.663008 -2.5 0 
C -2.5 0.663008 -2.236584 1.29895 -1.767767 1.767767 
C -1.29895 2.236584 -0.663008 2.5 0 2.5 
z
"/>
    </defs>
    <g clip-path="url(#p86af448897)">
     <use xlink:href="#C5_0_3adcab2223" x="402.548819" y="146.192727" style="fill: #4c72b0; fill-opacity: 0.75"/>
    </g>
    <g clip-path="url(#p86af448897)">
     <use xlink:href="#C5_0_3adcab2223" x="408.681353" y="131.335418" style="fill: #4c72b0; fill-opacity: 0.75"/>
    </g>
    <g clip-path="url(#p86af448897)">
     <use xlink:href="#C5_0_3adcab2223" x="399.23889" y="169.96138" style="fill: #4c72b0; fill-opacity: 0.75"/>
    </g>
    <g clip-path="url(#p86af448897)">
     <use xlink:href="#C5_0_3adcab2223" x="404.61859" y="129.303771" style="fill: #4c72b0; fill-opacity: 0.75"/>
    </g>
    <g clip-path="url(#p86af448897)">
     <use xlink:href="#C5_0_3adcab2223" x="400.991913" y="197.822844" style="fill: #dd8452; fill-opacity: 0.75"/>
    </g>
    <g clip-path="url(#p86af448897)">
     <use xlink:href="#C5_0_3adcab2223" x="399.892605" y="201.450769" style="fill: #dd8452; fill-opacity: 0.75"/>
    </g>
    <g clip-path="url(#p86af448897)">
     <use xlink:href="#C5_0_3adcab2223" x="407.497269" y="202.297931" style="fill: #dd8452; fill-opacity: 0.75"/>
    </g>
    <g clip-path="url(#p86af448897)">
     <use xlink:href="#C5_0_3adcab2223" x="404.283266" y="203.700439" style="fill: #dd8452; fill-opacity: 0.75"/>
    </g>
   </g>
   <g id="PathCollection_9">
    <defs>
     <path id="C6_0_625378213a" d="M 0 2.5 
C 0.663008 2.5 1.29895 2.236584 1.767767 1.767767 
C 2.236584 1.29895 2.5 0.663008 2.5 -0 
C 2.5 -0.663008 2.236584 -1.29895 1.767767 -1.767767 
C 1.29895 -2.236584 0.663008 -2.5 0 -2.5 
C -0.663008 -2.5 -1.29895 -2.236584 -1.767767 -1.767767 
C -2.236584 -1.29895 -2.5 -0.663008 -2.5 0 
C -2.5 0.663008 -2.236584 1.29895 -1.767767 1.767767 
C -1.29895 2.236584 -0.663008 2.5 0 2.5 
z
"/>
    </defs>
    <g clip-path="url(#p86af448897)">
     <use xlink:href="#C6_0_625378213a" x="462.279255" y="167.108419" style="fill: #4c72b0; fill-opacity: 0.75"/>
    </g>
    <g clip-path="url(#p86af448897)">
     <use xlink:href="#C6_0_625378213a" x="474.527681" y="162.859483" style="fill: #4c72b0; fill-opacity: 0.75"/>
    </g>
    <g clip-path="url(#p86af448897)">
     <use xlink:href="#C6_0_625378213a" x="472.473065" y="172.841876" style="fill: #4c72b0; fill-opacity: 0.75"/>
    </g>
    <g clip-path="url(#p86af448897)">
     <use xlink:href="#C6_0_625378213a" x="473.832382" y="193.128217" style="fill: #4c72b0; fill-opacity: 0.75"/>
    </g>
    <g clip-path="url(#p86af448897)">
     <use xlink:href="#C6_0_625378213a" x="473.416639" y="192.505269" style="fill: #dd8452; fill-opacity: 0.75"/>
    </g>
    <g clip-path="url(#p86af448897)">
     <use xlink:href="#C6_0_625378213a" x="473.401525" y="191.672386" style="fill: #dd8452; fill-opacity: 0.75"/>
    </g>
    <g clip-path="url(#p86af448897)">
     <use xlink:href="#C6_0_625378213a" x="466.973781" y="190.94966" style="fill: #dd8452; fill-opacity: 0.75"/>
    </g>
    <g clip-path="url(#p86af448897)">
     <use xlink:href="#C6_0_625378213a" x="470.402422" y="185.130333" style="fill: #dd8452; fill-opacity: 0.75"/>
    </g>
   </g>
   <g id="text_17">
    <!-- EPB41L1, $p_{adj}$ &lt; .001 *** -->
    <g style="fill: #262626" transform="translate(47.22 18.32)scale(0.09 -0.09)">
     <defs>
      <path id="ArialMT-45" d="M 506 0 
L 506 4581 
L 3819 4581 
L 3819 4041 
L 1113 4041 
L 1113 2638 
L 3647 2638 
L 3647 2100 
L 1113 2100 
L 1113 541 
L 3925 541 
L 3925 0 
L 506 0 
z
" transform="scale(0.015625)"/>
      <path id="ArialMT-42" d="M 469 0 
L 469 4581 
L 2188 4581 
Q 2713 4581 3030 4442 
Q 3347 4303 3526 4014 
Q 3706 3725 3706 3409 
Q 3706 3116 3547 2856 
Q 3388 2597 3066 2438 
Q 3481 2316 3704 2022 
Q 3928 1728 3928 1328 
Q 3928 1006 3792 729 
Q 3656 453 3456 303 
Q 3256 153 2954 76 
Q 2653 0 2216 0 
L 469 0 
z
M 1075 2656 
L 2066 2656 
Q 2469 2656 2644 2709 
Q 2875 2778 2992 2937 
Q 3109 3097 3109 3338 
Q 3109 3566 3000 3739 
Q 2891 3913 2687 3977 
Q 2484 4041 1991 4041 
L 1075 4041 
L 1075 2656 
z
M 1075 541 
L 2216 541 
Q 2509 541 2628 563 
Q 2838 600 2978 687 
Q 3119 775 3209 942 
Q 3300 1109 3300 1328 
Q 3300 1584 3169 1773 
Q 3038 1963 2805 2039 
Q 2572 2116 2134 2116 
L 1075 2116 
L 1075 541 
z
" transform="scale(0.015625)"/>
      <path id="ArialMT-4c" d="M 469 0 
L 469 4581 
L 1075 4581 
L 1075 541 
L 3331 541 
L 3331 0 
L 469 0 
z
" transform="scale(0.015625)"/>
      <path id="ArialMT-2c" d="M 569 0 
L 569 641 
L 1209 641 
L 1209 0 
Q 1209 -353 1084 -570 
Q 959 -788 688 -906 
L 531 -666 
Q 709 -588 793 -436 
Q 878 -284 888 0 
L 569 0 
z
" transform="scale(0.015625)"/>
      <path id="DejaVuSans-Oblique-70" d="M 3175 2156 
Q 3175 2616 2975 2859 
Q 2775 3103 2400 3103 
Q 2144 3103 1911 2972 
Q 1678 2841 1497 2591 
Q 1319 2344 1212 1994 
Q 1106 1644 1106 1300 
Q 1106 863 1306 627 
Q 1506 391 1875 391 
Q 2147 391 2380 519 
Q 2613 647 2778 891 
Q 2956 1147 3065 1494 
Q 3175 1841 3175 2156 
z
M 1394 2969 
Q 1625 3272 1939 3428 
Q 2253 3584 2638 3584 
Q 3175 3584 3472 3232 
Q 3769 2881 3769 2247 
Q 3769 1728 3584 1258 
Q 3400 788 3053 416 
Q 2822 169 2531 39 
Q 2241 -91 1919 -91 
Q 1547 -91 1294 64 
Q 1041 219 916 525 
L 556 -1331 
L -19 -1331 
L 922 3500 
L 1497 3500 
L 1394 2969 
z
" transform="scale(0.015625)"/>
      <path id="DejaVuSans-Oblique-61" d="M 3438 1997 
L 3047 0 
L 2472 0 
L 2578 531 
Q 2325 219 2001 64 
Q 1678 -91 1281 -91 
Q 834 -91 548 182 
Q 263 456 263 884 
Q 263 1497 752 1853 
Q 1241 2209 2100 2209 
L 2900 2209 
L 2931 2363 
Q 2938 2388 2941 2417 
Q 2944 2447 2944 2509 
Q 2944 2788 2717 2942 
Q 2491 3097 2081 3097 
Q 1800 3097 1504 3025 
Q 1209 2953 897 2809 
L 997 3341 
Q 1322 3463 1633 3523 
Q 1944 3584 2234 3584 
Q 2853 3584 3176 3315 
Q 3500 3047 3500 2534 
Q 3500 2431 3484 2292 
Q 3469 2153 3438 1997 
z
M 2816 1759 
L 2241 1759 
Q 1534 1759 1195 1570 
Q 856 1381 856 984 
Q 856 709 1029 553 
Q 1203 397 1509 397 
Q 1978 397 2328 733 
Q 2678 1069 2791 1631 
L 2816 1759 
z
" transform="scale(0.015625)"/>
      <path id="DejaVuSans-Oblique-64" d="M 2675 525 
Q 2444 222 2128 65 
Q 1813 -91 1428 -91 
Q 903 -91 598 267 
Q 294 625 294 1247 
Q 294 1766 478 2236 
Q 663 2706 1013 3078 
Q 1244 3325 1534 3454 
Q 1825 3584 2144 3584 
Q 2481 3584 2739 3421 
Q 2997 3259 3138 2956 
L 3513 4863 
L 4091 4863 
L 3144 0 
L 2566 0 
L 2675 525 
z
M 891 1350 
Q 891 897 1095 644 
Q 1300 391 1663 391 
Q 1931 391 2161 520 
Q 2391 650 2566 903 
Q 2750 1166 2856 1509 
Q 2963 1853 2963 2188 
Q 2963 2622 2758 2865 
Q 2553 3109 2194 3109 
Q 1922 3109 1687 2981 
Q 1453 2853 1288 2613 
Q 1106 2353 998 2009 
Q 891 1666 891 1350 
z
" transform="scale(0.015625)"/>
      <path id="DejaVuSans-Oblique-6a" d="M 928 3500 
L 1503 3500 
L 813 -63 
L 809 -78 
Q 694 -675 544 -897 
Q 403 -1106 132 -1218 
Q -138 -1331 -506 -1331 
L -722 -1331 
L -628 -844 
L -481 -844 
Q -144 -844 -1 -703 
Q 141 -563 238 -63 
L 928 3500 
z
M 1197 4863 
L 1772 4863 
L 1631 4134 
L 1056 4134 
L 1197 4863 
z
" transform="scale(0.015625)"/>
      <path id="ArialMT-3c" d="M 350 2003 
L 350 2528 
L 3384 3809 
L 3384 3250 
L 978 2263 
L 3384 1266 
L 3384 706 
L 350 2003 
z
" transform="scale(0.015625)"/>
      <path id="ArialMT-2e" d="M 581 0 
L 581 641 
L 1222 641 
L 1222 0 
L 581 0 
z
" transform="scale(0.015625)"/>
      <path id="ArialMT-2a" d="M 200 3741 
L 344 4184 
Q 841 4009 1066 3881 
Q 1006 4447 1003 4659 
L 1456 4659 
Q 1447 4350 1384 3884 
Q 1706 4047 2122 4184 
L 2266 3741 
Q 1869 3609 1488 3566 
Q 1678 3400 2025 2975 
L 1650 2709 
Q 1469 2956 1222 3381 
Q 991 2941 816 2709 
L 447 2975 
Q 809 3422 966 3566 
Q 563 3644 200 3741 
z
" transform="scale(0.015625)"/>
     </defs>
     <use xlink:href="#ArialMT-45" transform="translate(0 0.203125)"/>
     <use xlink:href="#ArialMT-50" transform="translate(66.699219 0.203125)"/>
     <use xlink:href="#ArialMT-42" transform="translate(133.398438 0.203125)"/>
     <use xlink:href="#ArialMT-34" transform="translate(200.097656 0.203125)"/>
     <use xlink:href="#ArialMT-31" transform="translate(255.712891 0.203125)"/>
     <use xlink:href="#ArialMT-4c" transform="translate(311.328125 0.203125)"/>
     <use xlink:href="#ArialMT-31" transform="translate(366.943359 0.203125)"/>
     <use xlink:href="#ArialMT-2c" transform="translate(422.558594 0.203125)"/>
     <use xlink:href="#ArialMT-20" transform="translate(450.341797 0.203125)"/>
     <use xlink:href="#DejaVuSans-Oblique-70" transform="translate(478.125 0.203125)"/>
     <use xlink:href="#DejaVuSans-Oblique-61" transform="translate(541.601562 -16.203125)scale(0.7)"/>
     <use xlink:href="#DejaVuSans-Oblique-64" transform="translate(584.49707 -16.203125)scale(0.7)"/>
     <use xlink:href="#DejaVuSans-Oblique-6a" transform="translate(628.930664 -16.203125)scale(0.7)"/>
     <use xlink:href="#ArialMT-20" transform="translate(651.113281 0.203125)"/>
     <use xlink:href="#ArialMT-3c" transform="translate(678.896484 0.203125)"/>
     <use xlink:href="#ArialMT-20" transform="translate(737.294922 0.203125)"/>
     <use xlink:href="#ArialMT-2e" transform="translate(765.078125 0.203125)"/>
     <use xlink:href="#ArialMT-30" transform="translate(792.861328 0.203125)"/>
     <use xlink:href="#ArialMT-30" transform="translate(848.476562 0.203125)"/>
     <use xlink:href="#ArialMT-31" transform="translate(904.091797 0.203125)"/>
     <use xlink:href="#ArialMT-20" transform="translate(959.707031 0.203125)"/>
     <use xlink:href="#ArialMT-2a" transform="translate(987.490234 0.203125)"/>
     <use xlink:href="#ArialMT-2a" transform="translate(1026.40625 0.203125)"/>
     <use xlink:href="#ArialMT-2a" transform="translate(1065.322266 0.203125)"/>
    </g>
   </g>
   <g id="legend_1">
    <g id="patch_5">
     <path d="M 441.91497 69.712344 
L 494.21622 69.712344 
Q 496.01622 69.712344 496.01622 67.912344 
L 496.01622 30.62 
Q 496.01622 28.82 494.21622 28.82 
L 441.91497 28.82 
Q 440.11497 28.82 440.11497 30.62 
L 440.11497 67.912344 
Q 440.11497 69.712344 441.91497 69.712344 
z
" style="fill: #ffffff; opacity: 0.8; stroke: #cccccc; stroke-linejoin: miter"/>
    </g>
    <g id="text_18">
     <!-- Treatment -->
     <g style="fill: #262626" transform="translate(447.729111 38.862031)scale(0.09 -0.09)">
      <use xlink:href="#ArialMT-54"/>
      <use xlink:href="#ArialMT-72" x="57.333984"/>
      <use xlink:href="#ArialMT-65" x="90.634766"/>
      <use xlink:href="#ArialMT-61" x="146.25"/>
      <use xlink:href="#ArialMT-74" x="201.865234"/>
      <use xlink:href="#ArialMT-6d" x="229.648438"/>
      <use xlink:href="#ArialMT-65" x="312.949219"/>
      <use xlink:href="#ArialMT-6e" x="368.564453"/>
      <use xlink:href="#ArialMT-74" x="424.179688"/>
     </g>
    </g>
    <g id="PathCollection_10">
     <defs>
      <path id="m24449f900d" d="M 0 3.872983 
C 1.027127 3.872983 2.012324 3.464901 2.738613 2.738613 
C 3.464901 2.012324 3.872983 1.027127 3.872983 0 
C 3.872983 -1.027127 3.464901 -2.012324 2.738613 -2.738613 
C 2.012324 -3.464901 1.027127 -3.872983 0 -3.872983 
C -1.027127 -3.872983 -2.012324 -3.464901 -2.738613 -2.738613 
C -3.464901 -2.012324 -3.872983 -1.027127 -3.872983 0 
C -3.872983 1.027127 -3.464901 2.012324 -2.738613 2.738613 
C -2.012324 3.464901 -1.027127 3.872983 0 3.872983 
z
" style="stroke: #4c72b0"/>
     </defs>
     <g>
      <use xlink:href="#m24449f900d" x="452.71497" y="49.230313" style="fill: #4c72b0; stroke: #4c72b0"/>
     </g>
    </g>
    <g id="text_19">
     <!-- BEVA -->
     <g style="fill: #262626" transform="translate(468.91497 51.592813)scale(0.09 -0.09)">
      <defs>
       <path id="ArialMT-56" d="M 1803 0 
L 28 4581 
L 684 4581 
L 1875 1253 
Q 2019 853 2116 503 
Q 2222 878 2363 1253 
L 3600 4581 
L 4219 4581 
L 2425 0 
L 1803 0 
z
" transform="scale(0.015625)"/>
       <path id="ArialMT-41" d="M -9 0 
L 1750 4581 
L 2403 4581 
L 4278 0 
L 3588 0 
L 3053 1388 
L 1138 1388 
L 634 0 
L -9 0 
z
M 1313 1881 
L 2866 1881 
L 2388 3150 
Q 2169 3728 2063 4100 
Q 1975 3659 1816 3225 
L 1313 1881 
z
" transform="scale(0.015625)"/>
      </defs>
      <use xlink:href="#ArialMT-42"/>
      <use xlink:href="#ArialMT-45" x="66.699219"/>
      <use xlink:href="#ArialMT-56" x="133.398438"/>
      <use xlink:href="#ArialMT-41" x="192.722656"/>
     </g>
    </g>
    <g id="PathCollection_11">
     <defs>
      <path id="ma5b336728c" d="M 0 3.872983 
C 1.027127 3.872983 2.012324 3.464901 2.738613 2.738613 
C 3.464901 2.012324 3.872983 1.027127 3.872983 0 
C 3.872983 -1.027127 3.464901 -2.012324 2.738613 -2.738613 
C 2.012324 -3.464901 1.027127 -3.872983 0 -3.872983 
C -1.027127 -3.872983 -2.012324 -3.464901 -2.738613 -2.738613 
C -3.464901 -2.012324 -3.872983 -1.027127 -3.872983 0 
C -3.872983 1.027127 -3.464901 2.012324 -2.738613 2.738613 
C -2.012324 3.464901 -1.027127 3.872983 0 3.872983 
z
" style="stroke: #dd8452"/>
     </defs>
     <g>
      <use xlink:href="#ma5b336728c" x="452.71497" y="61.961094" style="fill: #dd8452; stroke: #dd8452"/>
     </g>
    </g>
    <g id="text_20">
     <!-- CTRL -->
     <g style="fill: #262626" transform="translate(468.91497 64.323594)scale(0.09 -0.09)">
      <defs>
       <path id="ArialMT-43" d="M 3763 1606 
L 4369 1453 
Q 4178 706 3683 314 
Q 3188 -78 2472 -78 
Q 1731 -78 1267 223 
Q 803 525 561 1097 
Q 319 1669 319 2325 
Q 319 3041 592 3573 
Q 866 4106 1370 4382 
Q 1875 4659 2481 4659 
Q 3169 4659 3637 4309 
Q 4106 3959 4291 3325 
L 3694 3184 
Q 3534 3684 3231 3912 
Q 2928 4141 2469 4141 
Q 1941 4141 1586 3887 
Q 1231 3634 1087 3207 
Q 944 2781 944 2328 
Q 944 1744 1114 1308 
Q 1284 872 1643 656 
Q 2003 441 2422 441 
Q 2931 441 3284 734 
Q 3638 1028 3763 1606 
z
" transform="scale(0.015625)"/>
       <path id="ArialMT-52" d="M 503 0 
L 503 4581 
L 2534 4581 
Q 3147 4581 3465 4457 
Q 3784 4334 3975 4021 
Q 4166 3709 4166 3331 
Q 4166 2844 3850 2509 
Q 3534 2175 2875 2084 
Q 3116 1969 3241 1856 
Q 3506 1613 3744 1247 
L 4541 0 
L 3778 0 
L 3172 953 
Q 2906 1366 2734 1584 
Q 2563 1803 2427 1890 
Q 2291 1978 2150 2013 
Q 2047 2034 1813 2034 
L 1109 2034 
L 1109 0 
L 503 0 
z
M 1109 2559 
L 2413 2559 
Q 2828 2559 3062 2645 
Q 3297 2731 3419 2920 
Q 3541 3109 3541 3331 
Q 3541 3656 3305 3865 
Q 3069 4075 2559 4075 
L 1109 4075 
L 1109 2559 
z
" transform="scale(0.015625)"/>
      </defs>
      <use xlink:href="#ArialMT-43"/>
      <use xlink:href="#ArialMT-54" x="72.216797"/>
      <use xlink:href="#ArialMT-52" x="133.300781"/>
      <use xlink:href="#ArialMT-4c" x="205.517578"/>
     </g>
    </g>
   </g>
  </g>
 </g>
 <defs>
  <clipPath id="p86af448897">
   <rect x="47.22" y="24.32" width="453.29622" height="189.57811"/>
  </clipPath>
 </defs>
</svg>
