<?xml version="1.0" encoding="utf-8" standalone="no"?>
<!DOCTYPE svg PUBLIC "-//W3C//DTD SVG 1.1//EN"
  "http://www.w3.org/Graphics/SVG/1.1/DTD/svg11.dtd">
<svg xmlns:xlink="http://www.w3.org/1999/xlink" width="510.23622pt" height="255.11811pt" viewBox="0 0 510.23622 255.11811" xmlns="http://www.w3.org/2000/svg" version="1.1">
 <metadata>
  <rdf:RDF xmlns:dc="http://purl.org/dc/elements/1.1/" xmlns:cc="http://creativecommons.org/ns#" xmlns:rdf="http://www.w3.org/1999/02/22-rdf-syntax-ns#">
   <cc:Work>
    <dc:type rdf:resource="http://purl.org/dc/dcmitype/StillImage"/>
    <dc:date>2022-04-27T00:16:53.171498</dc:date>
    <dc:format>image/svg+xml</dc:format>
    <dc:creator>
     <cc:Agent>
      <dc:title>Matplotlib v3.5.1, https://matplotlib.org/</dc:title>
     </cc:Agent>
    </dc:creator>
   </cc:Work>
  </rdf:RDF>
 </metadata>
 <defs>
  <style type="text/css">*{stroke-linejoin: round; stroke-linecap: butt}</style>
 </defs>
 <g id="figure_1">
  <g id="patch_1">
   <path d="M 0 255.11811 
L 510.23622 255.11811 
L 510.23622 0 
L 0 0 
z
" style="fill: #ffffff"/>
  </g>
  <g id="axes_1">
   <g id="patch_2">
    <path d="M 47.22 213.89811 
L 500.51622 213.89811 
L 500.51622 24.32 
L 47.22 24.32 
z
" style="fill: #ffffff"/>
   </g>
   <g id="matplotlib.axis_1">
    <g id="xtick_1">
     <g id="text_1">
      <!-- 49 -->
      <g style="fill: #444444" transform="translate(74.593458 229.840141)scale(0.09 -0.09)">
       <defs>
        <path id="ArialMT-34" d="M 2069 0 
L 2069 1097 
L 81 1097 
L 81 1613 
L 2172 4581 
L 2631 4581 
L 2631 1613 
L 3250 1613 
L 3250 1097 
L 2631 1097 
L 2631 0 
L 2069 0 
z
M 2069 1613 
L 2069 3678 
L 634 1613 
L 2069 1613 
z
" transform="scale(0.015625)"/>
        <path id="ArialMT-39" d="M 350 1059 
L 891 1109 
Q 959 728 1153 556 
Q 1347 384 1650 384 
Q 1909 384 2104 503 
Q 2300 622 2425 820 
Q 2550 1019 2634 1356 
Q 2719 1694 2719 2044 
Q 2719 2081 2716 2156 
Q 2547 1888 2255 1720 
Q 1963 1553 1622 1553 
Q 1053 1553 659 1965 
Q 266 2378 266 3053 
Q 266 3750 677 4175 
Q 1088 4600 1706 4600 
Q 2153 4600 2523 4359 
Q 2894 4119 3086 3673 
Q 3278 3228 3278 2384 
Q 3278 1506 3087 986 
Q 2897 466 2520 194 
Q 2144 -78 1638 -78 
Q 1100 -78 759 220 
Q 419 519 350 1059 
z
M 2653 3081 
Q 2653 3566 2395 3850 
Q 2138 4134 1775 4134 
Q 1400 4134 1122 3828 
Q 844 3522 844 3034 
Q 844 2597 1108 2323 
Q 1372 2050 1759 2050 
Q 2150 2050 2401 2323 
Q 2653 2597 2653 3081 
z
" transform="scale(0.015625)"/>
       </defs>
       <use xlink:href="#ArialMT-34"/>
       <use xlink:href="#ArialMT-39" x="55.615234"/>
      </g>
     </g>
    </g>
    <g id="xtick_2">
     <g id="text_2">
      <!-- 17 -->
      <g style="fill: #444444" transform="translate(139.350061 229.840141)scale(0.09 -0.09)">
       <defs>
        <path id="ArialMT-31" d="M 2384 0 
L 1822 0 
L 1822 3584 
Q 1619 3391 1289 3197 
Q 959 3003 697 2906 
L 697 3450 
Q 1169 3672 1522 3987 
Q 1875 4303 2022 4600 
L 2384 4600 
L 2384 0 
z
" transform="scale(0.015625)"/>
        <path id="ArialMT-37" d="M 303 3981 
L 303 4522 
L 3269 4522 
L 3269 4084 
Q 2831 3619 2401 2847 
Q 1972 2075 1738 1259 
Q 1569 684 1522 0 
L 944 0 
Q 953 541 1156 1306 
Q 1359 2072 1739 2783 
Q 2119 3494 2547 3981 
L 303 3981 
z
" transform="scale(0.015625)"/>
       </defs>
       <use xlink:href="#ArialMT-31"/>
       <use xlink:href="#ArialMT-37" x="55.615234"/>
      </g>
     </g>
    </g>
    <g id="xtick_3">
     <g id="text_3">
      <!-- 69 -->
      <g style="fill: #444444" transform="translate(204.106664 229.840141)scale(0.09 -0.09)">
       <defs>
        <path id="ArialMT-36" d="M 3184 3459 
L 2625 3416 
Q 2550 3747 2413 3897 
Q 2184 4138 1850 4138 
Q 1581 4138 1378 3988 
Q 1113 3794 959 3422 
Q 806 3050 800 2363 
Q 1003 2672 1297 2822 
Q 1591 2972 1913 2972 
Q 2475 2972 2870 2558 
Q 3266 2144 3266 1488 
Q 3266 1056 3080 686 
Q 2894 316 2569 119 
Q 2244 -78 1831 -78 
Q 1128 -78 684 439 
Q 241 956 241 2144 
Q 241 3472 731 4075 
Q 1159 4600 1884 4600 
Q 2425 4600 2770 4297 
Q 3116 3994 3184 3459 
z
M 888 1484 
Q 888 1194 1011 928 
Q 1134 663 1356 523 
Q 1578 384 1822 384 
Q 2178 384 2434 671 
Q 2691 959 2691 1453 
Q 2691 1928 2437 2201 
Q 2184 2475 1800 2475 
Q 1419 2475 1153 2201 
Q 888 1928 888 1484 
z
" transform="scale(0.015625)"/>
       </defs>
       <use xlink:href="#ArialMT-36"/>
       <use xlink:href="#ArialMT-39" x="55.615234"/>
      </g>
     </g>
    </g>
    <g id="xtick_4">
     <g id="text_4">
      <!-- 15 -->
      <g style="fill: #444444" transform="translate(268.863266 229.840141)scale(0.09 -0.09)">
       <defs>
        <path id="ArialMT-35" d="M 266 1200 
L 856 1250 
Q 922 819 1161 601 
Q 1400 384 1738 384 
Q 2144 384 2425 690 
Q 2706 997 2706 1503 
Q 2706 1984 2436 2262 
Q 2166 2541 1728 2541 
Q 1456 2541 1237 2417 
Q 1019 2294 894 2097 
L 366 2166 
L 809 4519 
L 3088 4519 
L 3088 3981 
L 1259 3981 
L 1013 2750 
Q 1425 3038 1878 3038 
Q 2478 3038 2890 2622 
Q 3303 2206 3303 1553 
Q 3303 931 2941 478 
Q 2500 -78 1738 -78 
Q 1113 -78 717 272 
Q 322 622 266 1200 
z
" transform="scale(0.015625)"/>
       </defs>
       <use xlink:href="#ArialMT-31"/>
       <use xlink:href="#ArialMT-35" x="55.615234"/>
      </g>
     </g>
    </g>
    <g id="xtick_5">
     <g id="text_5">
      <!-- 5 -->
      <g style="fill: #444444" transform="translate(336.122291 229.840141)scale(0.09 -0.09)">
       <use xlink:href="#ArialMT-35"/>
      </g>
     </g>
    </g>
    <g id="xtick_6">
     <g id="text_6">
      <!-- 126 -->
      <g style="fill: #444444" transform="translate(395.87405 229.840141)scale(0.09 -0.09)">
       <defs>
        <path id="ArialMT-32" d="M 3222 541 
L 3222 0 
L 194 0 
Q 188 203 259 391 
Q 375 700 629 1000 
Q 884 1300 1366 1694 
Q 2113 2306 2375 2664 
Q 2638 3022 2638 3341 
Q 2638 3675 2398 3904 
Q 2159 4134 1775 4134 
Q 1369 4134 1125 3890 
Q 881 3647 878 3216 
L 300 3275 
Q 359 3922 746 4261 
Q 1134 4600 1788 4600 
Q 2447 4600 2831 4234 
Q 3216 3869 3216 3328 
Q 3216 3053 3103 2787 
Q 2991 2522 2730 2228 
Q 2469 1934 1863 1422 
Q 1356 997 1212 845 
Q 1069 694 975 541 
L 3222 541 
z
" transform="scale(0.015625)"/>
       </defs>
       <use xlink:href="#ArialMT-31"/>
       <use xlink:href="#ArialMT-32" x="55.615234"/>
       <use xlink:href="#ArialMT-36" x="111.230469"/>
      </g>
     </g>
    </g>
    <g id="xtick_7">
     <g id="text_7">
      <!-- 62 -->
      <g style="fill: #444444" transform="translate(463.133075 229.840141)scale(0.09 -0.09)">
       <use xlink:href="#ArialMT-36"/>
       <use xlink:href="#ArialMT-32" x="55.615234"/>
      </g>
     </g>
    </g>
    <g id="text_8">
     <!-- Patient -->
     <g style="fill: #444444" transform="translate(259.859048 242.070923)scale(0.09 -0.09)">
      <defs>
       <path id="ArialMT-50" d="M 494 0 
L 494 4581 
L 2222 4581 
Q 2678 4581 2919 4538 
Q 3256 4481 3484 4323 
Q 3713 4166 3852 3881 
Q 3991 3597 3991 3256 
Q 3991 2672 3619 2267 
Q 3247 1863 2275 1863 
L 1100 1863 
L 1100 0 
L 494 0 
z
M 1100 2403 
L 2284 2403 
Q 2872 2403 3119 2622 
Q 3366 2841 3366 3238 
Q 3366 3525 3220 3729 
Q 3075 3934 2838 4000 
Q 2684 4041 2272 4041 
L 1100 4041 
L 1100 2403 
z
" transform="scale(0.015625)"/>
       <path id="ArialMT-61" d="M 2588 409 
Q 2275 144 1986 34 
Q 1697 -75 1366 -75 
Q 819 -75 525 192 
Q 231 459 231 875 
Q 231 1119 342 1320 
Q 453 1522 633 1644 
Q 813 1766 1038 1828 
Q 1203 1872 1538 1913 
Q 2219 1994 2541 2106 
Q 2544 2222 2544 2253 
Q 2544 2597 2384 2738 
Q 2169 2928 1744 2928 
Q 1347 2928 1158 2789 
Q 969 2650 878 2297 
L 328 2372 
Q 403 2725 575 2942 
Q 747 3159 1072 3276 
Q 1397 3394 1825 3394 
Q 2250 3394 2515 3294 
Q 2781 3194 2906 3042 
Q 3031 2891 3081 2659 
Q 3109 2516 3109 2141 
L 3109 1391 
Q 3109 606 3145 398 
Q 3181 191 3288 0 
L 2700 0 
Q 2613 175 2588 409 
z
M 2541 1666 
Q 2234 1541 1622 1453 
Q 1275 1403 1131 1340 
Q 988 1278 909 1158 
Q 831 1038 831 891 
Q 831 666 1001 516 
Q 1172 366 1500 366 
Q 1825 366 2078 508 
Q 2331 650 2450 897 
Q 2541 1088 2541 1459 
L 2541 1666 
z
" transform="scale(0.015625)"/>
       <path id="ArialMT-74" d="M 1650 503 
L 1731 6 
Q 1494 -44 1306 -44 
Q 1000 -44 831 53 
Q 663 150 594 308 
Q 525 466 525 972 
L 525 2881 
L 113 2881 
L 113 3319 
L 525 3319 
L 525 4141 
L 1084 4478 
L 1084 3319 
L 1650 3319 
L 1650 2881 
L 1084 2881 
L 1084 941 
Q 1084 700 1114 631 
Q 1144 563 1211 522 
Q 1278 481 1403 481 
Q 1497 481 1650 503 
z
" transform="scale(0.015625)"/>
       <path id="ArialMT-69" d="M 425 3934 
L 425 4581 
L 988 4581 
L 988 3934 
L 425 3934 
z
M 425 0 
L 425 3319 
L 988 3319 
L 988 0 
L 425 0 
z
" transform="scale(0.015625)"/>
       <path id="ArialMT-65" d="M 2694 1069 
L 3275 997 
Q 3138 488 2766 206 
Q 2394 -75 1816 -75 
Q 1088 -75 661 373 
Q 234 822 234 1631 
Q 234 2469 665 2931 
Q 1097 3394 1784 3394 
Q 2450 3394 2872 2941 
Q 3294 2488 3294 1666 
Q 3294 1616 3291 1516 
L 816 1516 
Q 847 969 1125 678 
Q 1403 388 1819 388 
Q 2128 388 2347 550 
Q 2566 713 2694 1069 
z
M 847 1978 
L 2700 1978 
Q 2663 2397 2488 2606 
Q 2219 2931 1791 2931 
Q 1403 2931 1139 2672 
Q 875 2413 847 1978 
z
" transform="scale(0.015625)"/>
       <path id="ArialMT-6e" d="M 422 0 
L 422 3319 
L 928 3319 
L 928 2847 
Q 1294 3394 1984 3394 
Q 2284 3394 2536 3286 
Q 2788 3178 2913 3003 
Q 3038 2828 3088 2588 
Q 3119 2431 3119 2041 
L 3119 0 
L 2556 0 
L 2556 2019 
Q 2556 2363 2490 2533 
Q 2425 2703 2258 2804 
Q 2091 2906 1866 2906 
Q 1506 2906 1245 2678 
Q 984 2450 984 1813 
L 984 0 
L 422 0 
z
" transform="scale(0.015625)"/>
      </defs>
      <use xlink:href="#ArialMT-50"/>
      <use xlink:href="#ArialMT-61" x="66.699219"/>
      <use xlink:href="#ArialMT-74" x="122.314453"/>
      <use xlink:href="#ArialMT-69" x="150.097656"/>
      <use xlink:href="#ArialMT-65" x="172.314453"/>
      <use xlink:href="#ArialMT-6e" x="227.929688"/>
      <use xlink:href="#ArialMT-74" x="283.544922"/>
     </g>
    </g>
   </g>
   <g id="matplotlib.axis_2">
    <g id="ytick_1">
     <g id="text_9">
      <!-- 20 -->
      <g style="fill: #444444" transform="translate(27.710313 208.255591)scale(0.09 -0.09)">
       <defs>
        <path id="ArialMT-30" d="M 266 2259 
Q 266 3072 433 3567 
Q 600 4063 929 4331 
Q 1259 4600 1759 4600 
Q 2128 4600 2406 4451 
Q 2684 4303 2865 4023 
Q 3047 3744 3150 3342 
Q 3253 2941 3253 2259 
Q 3253 1453 3087 958 
Q 2922 463 2592 192 
Q 2263 -78 1759 -78 
Q 1097 -78 719 397 
Q 266 969 266 2259 
z
M 844 2259 
Q 844 1131 1108 757 
Q 1372 384 1759 384 
Q 2147 384 2411 759 
Q 2675 1134 2675 2259 
Q 2675 3391 2411 3762 
Q 2147 4134 1753 4134 
Q 1366 4134 1134 3806 
Q 844 3388 844 2259 
z
" transform="scale(0.015625)"/>
       </defs>
       <use xlink:href="#ArialMT-32"/>
       <use xlink:href="#ArialMT-30" x="55.615234"/>
      </g>
     </g>
    </g>
    <g id="ytick_2">
     <g id="text_10">
      <!-- 40 -->
      <g style="fill: #444444" transform="translate(27.710313 180.032624)scale(0.09 -0.09)">
       <use xlink:href="#ArialMT-34"/>
       <use xlink:href="#ArialMT-30" x="55.615234"/>
      </g>
     </g>
    </g>
    <g id="ytick_3">
     <g id="text_11">
      <!-- 60 -->
      <g style="fill: #444444" transform="translate(27.710313 151.809658)scale(0.09 -0.09)">
       <use xlink:href="#ArialMT-36"/>
       <use xlink:href="#ArialMT-30" x="55.615234"/>
      </g>
     </g>
    </g>
    <g id="ytick_4">
     <g id="text_12">
      <!-- 80 -->
      <g style="fill: #444444" transform="translate(27.710313 123.586691)scale(0.09 -0.09)">
       <defs>
        <path id="ArialMT-38" d="M 1131 2484 
Q 781 2613 612 2850 
Q 444 3088 444 3419 
Q 444 3919 803 4259 
Q 1163 4600 1759 4600 
Q 2359 4600 2725 4251 
Q 3091 3903 3091 3403 
Q 3091 3084 2923 2848 
Q 2756 2613 2416 2484 
Q 2838 2347 3058 2040 
Q 3278 1734 3278 1309 
Q 3278 722 2862 322 
Q 2447 -78 1769 -78 
Q 1091 -78 675 323 
Q 259 725 259 1325 
Q 259 1772 486 2073 
Q 713 2375 1131 2484 
z
M 1019 3438 
Q 1019 3113 1228 2906 
Q 1438 2700 1772 2700 
Q 2097 2700 2305 2904 
Q 2513 3109 2513 3406 
Q 2513 3716 2298 3927 
Q 2084 4138 1766 4138 
Q 1444 4138 1231 3931 
Q 1019 3725 1019 3438 
z
M 838 1322 
Q 838 1081 952 856 
Q 1066 631 1291 507 
Q 1516 384 1775 384 
Q 2178 384 2440 643 
Q 2703 903 2703 1303 
Q 2703 1709 2433 1975 
Q 2163 2241 1756 2241 
Q 1359 2241 1098 1978 
Q 838 1716 838 1322 
z
" transform="scale(0.015625)"/>
       </defs>
       <use xlink:href="#ArialMT-38"/>
       <use xlink:href="#ArialMT-30" x="55.615234"/>
      </g>
     </g>
    </g>
    <g id="ytick_5">
     <g id="text_13">
      <!-- 100 -->
      <g style="fill: #444444" transform="translate(22.705469 95.363724)scale(0.09 -0.09)">
       <use xlink:href="#ArialMT-31"/>
       <use xlink:href="#ArialMT-30" x="55.615234"/>
       <use xlink:href="#ArialMT-30" x="111.230469"/>
      </g>
     </g>
    </g>
    <g id="ytick_6">
     <g id="text_14">
      <!-- 120 -->
      <g style="fill: #444444" transform="translate(22.705469 67.140758)scale(0.09 -0.09)">
       <use xlink:href="#ArialMT-31"/>
       <use xlink:href="#ArialMT-32" x="55.615234"/>
       <use xlink:href="#ArialMT-30" x="111.230469"/>
      </g>
     </g>
    </g>
    <g id="ytick_7">
     <g id="text_15">
      <!-- 140 -->
      <g style="fill: #444444" transform="translate(22.705469 38.917791)scale(0.09 -0.09)">
       <use xlink:href="#ArialMT-31"/>
       <use xlink:href="#ArialMT-34" x="55.615234"/>
       <use xlink:href="#ArialMT-30" x="111.230469"/>
      </g>
     </g>
    </g>
    <g id="text_16">
     <!-- Trimmed Means of M values (TMM) -->
     <g style="fill: #444444" transform="translate(16.81125 190.194993)rotate(-90)scale(0.09 -0.09)">
      <defs>
       <path id="ArialMT-54" d="M 1659 0 
L 1659 4041 
L 150 4041 
L 150 4581 
L 3781 4581 
L 3781 4041 
L 2266 4041 
L 2266 0 
L 1659 0 
z
" transform="scale(0.015625)"/>
       <path id="ArialMT-72" d="M 416 0 
L 416 3319 
L 922 3319 
L 922 2816 
Q 1116 3169 1280 3281 
Q 1444 3394 1641 3394 
Q 1925 3394 2219 3213 
L 2025 2691 
Q 1819 2813 1613 2813 
Q 1428 2813 1281 2702 
Q 1134 2591 1072 2394 
Q 978 2094 978 1738 
L 978 0 
L 416 0 
z
" transform="scale(0.015625)"/>
       <path id="ArialMT-6d" d="M 422 0 
L 422 3319 
L 925 3319 
L 925 2853 
Q 1081 3097 1340 3245 
Q 1600 3394 1931 3394 
Q 2300 3394 2536 3241 
Q 2772 3088 2869 2813 
Q 3263 3394 3894 3394 
Q 4388 3394 4653 3120 
Q 4919 2847 4919 2278 
L 4919 0 
L 4359 0 
L 4359 2091 
Q 4359 2428 4304 2576 
Q 4250 2725 4106 2815 
Q 3963 2906 3769 2906 
Q 3419 2906 3187 2673 
Q 2956 2441 2956 1928 
L 2956 0 
L 2394 0 
L 2394 2156 
Q 2394 2531 2256 2718 
Q 2119 2906 1806 2906 
Q 1569 2906 1367 2781 
Q 1166 2656 1075 2415 
Q 984 2175 984 1722 
L 984 0 
L 422 0 
z
" transform="scale(0.015625)"/>
       <path id="ArialMT-64" d="M 2575 0 
L 2575 419 
Q 2259 -75 1647 -75 
Q 1250 -75 917 144 
Q 584 363 401 755 
Q 219 1147 219 1656 
Q 219 2153 384 2558 
Q 550 2963 881 3178 
Q 1213 3394 1622 3394 
Q 1922 3394 2156 3267 
Q 2391 3141 2538 2938 
L 2538 4581 
L 3097 4581 
L 3097 0 
L 2575 0 
z
M 797 1656 
Q 797 1019 1065 703 
Q 1334 388 1700 388 
Q 2069 388 2326 689 
Q 2584 991 2584 1609 
Q 2584 2291 2321 2609 
Q 2059 2928 1675 2928 
Q 1300 2928 1048 2622 
Q 797 2316 797 1656 
z
" transform="scale(0.015625)"/>
       <path id="ArialMT-20" transform="scale(0.015625)"/>
       <path id="ArialMT-4d" d="M 475 0 
L 475 4581 
L 1388 4581 
L 2472 1338 
Q 2622 884 2691 659 
Q 2769 909 2934 1394 
L 4031 4581 
L 4847 4581 
L 4847 0 
L 4263 0 
L 4263 3834 
L 2931 0 
L 2384 0 
L 1059 3900 
L 1059 0 
L 475 0 
z
" transform="scale(0.015625)"/>
       <path id="ArialMT-73" d="M 197 991 
L 753 1078 
Q 800 744 1014 566 
Q 1228 388 1613 388 
Q 2000 388 2187 545 
Q 2375 703 2375 916 
Q 2375 1106 2209 1216 
Q 2094 1291 1634 1406 
Q 1016 1563 777 1677 
Q 538 1791 414 1992 
Q 291 2194 291 2438 
Q 291 2659 392 2848 
Q 494 3038 669 3163 
Q 800 3259 1026 3326 
Q 1253 3394 1513 3394 
Q 1903 3394 2198 3281 
Q 2494 3169 2634 2976 
Q 2775 2784 2828 2463 
L 2278 2388 
Q 2241 2644 2061 2787 
Q 1881 2931 1553 2931 
Q 1166 2931 1000 2803 
Q 834 2675 834 2503 
Q 834 2394 903 2306 
Q 972 2216 1119 2156 
Q 1203 2125 1616 2013 
Q 2213 1853 2448 1751 
Q 2684 1650 2818 1456 
Q 2953 1263 2953 975 
Q 2953 694 2789 445 
Q 2625 197 2315 61 
Q 2006 -75 1616 -75 
Q 969 -75 630 194 
Q 291 463 197 991 
z
" transform="scale(0.015625)"/>
       <path id="ArialMT-6f" d="M 213 1659 
Q 213 2581 725 3025 
Q 1153 3394 1769 3394 
Q 2453 3394 2887 2945 
Q 3322 2497 3322 1706 
Q 3322 1066 3130 698 
Q 2938 331 2570 128 
Q 2203 -75 1769 -75 
Q 1072 -75 642 372 
Q 213 819 213 1659 
z
M 791 1659 
Q 791 1022 1069 705 
Q 1347 388 1769 388 
Q 2188 388 2466 706 
Q 2744 1025 2744 1678 
Q 2744 2294 2464 2611 
Q 2184 2928 1769 2928 
Q 1347 2928 1069 2612 
Q 791 2297 791 1659 
z
" transform="scale(0.015625)"/>
       <path id="ArialMT-66" d="M 556 0 
L 556 2881 
L 59 2881 
L 59 3319 
L 556 3319 
L 556 3672 
Q 556 4006 616 4169 
Q 697 4388 901 4523 
Q 1106 4659 1475 4659 
Q 1713 4659 2000 4603 
L 1916 4113 
Q 1741 4144 1584 4144 
Q 1328 4144 1222 4034 
Q 1116 3925 1116 3625 
L 1116 3319 
L 1763 3319 
L 1763 2881 
L 1116 2881 
L 1116 0 
L 556 0 
z
" transform="scale(0.015625)"/>
       <path id="ArialMT-76" d="M 1344 0 
L 81 3319 
L 675 3319 
L 1388 1331 
Q 1503 1009 1600 663 
Q 1675 925 1809 1294 
L 2547 3319 
L 3125 3319 
L 1869 0 
L 1344 0 
z
" transform="scale(0.015625)"/>
       <path id="ArialMT-6c" d="M 409 0 
L 409 4581 
L 972 4581 
L 972 0 
L 409 0 
z
" transform="scale(0.015625)"/>
       <path id="ArialMT-75" d="M 2597 0 
L 2597 488 
Q 2209 -75 1544 -75 
Q 1250 -75 995 37 
Q 741 150 617 320 
Q 494 491 444 738 
Q 409 903 409 1263 
L 409 3319 
L 972 3319 
L 972 1478 
Q 972 1038 1006 884 
Q 1059 663 1231 536 
Q 1403 409 1656 409 
Q 1909 409 2131 539 
Q 2353 669 2445 892 
Q 2538 1116 2538 1541 
L 2538 3319 
L 3100 3319 
L 3100 0 
L 2597 0 
z
" transform="scale(0.015625)"/>
       <path id="ArialMT-28" d="M 1497 -1347 
Q 1031 -759 709 28 
Q 388 816 388 1659 
Q 388 2403 628 3084 
Q 909 3875 1497 4659 
L 1900 4659 
Q 1522 4009 1400 3731 
Q 1209 3300 1100 2831 
Q 966 2247 966 1656 
Q 966 153 1900 -1347 
L 1497 -1347 
z
" transform="scale(0.015625)"/>
       <path id="ArialMT-29" d="M 791 -1347 
L 388 -1347 
Q 1322 153 1322 1656 
Q 1322 2244 1188 2822 
Q 1081 3291 891 3722 
Q 769 4003 388 4659 
L 791 4659 
Q 1378 3875 1659 3084 
Q 1900 2403 1900 1659 
Q 1900 816 1576 28 
Q 1253 -759 791 -1347 
z
" transform="scale(0.015625)"/>
      </defs>
      <use xlink:href="#ArialMT-54"/>
      <use xlink:href="#ArialMT-72" x="57.333984"/>
      <use xlink:href="#ArialMT-69" x="90.634766"/>
      <use xlink:href="#ArialMT-6d" x="112.851562"/>
      <use xlink:href="#ArialMT-6d" x="196.152344"/>
      <use xlink:href="#ArialMT-65" x="279.453125"/>
      <use xlink:href="#ArialMT-64" x="335.068359"/>
      <use xlink:href="#ArialMT-20" x="390.683594"/>
      <use xlink:href="#ArialMT-4d" x="418.466797"/>
      <use xlink:href="#ArialMT-65" x="501.767578"/>
      <use xlink:href="#ArialMT-61" x="557.382812"/>
      <use xlink:href="#ArialMT-6e" x="612.998047"/>
      <use xlink:href="#ArialMT-73" x="668.613281"/>
      <use xlink:href="#ArialMT-20" x="718.613281"/>
      <use xlink:href="#ArialMT-6f" x="746.396484"/>
      <use xlink:href="#ArialMT-66" x="802.011719"/>
      <use xlink:href="#ArialMT-20" x="829.794922"/>
      <use xlink:href="#ArialMT-4d" x="857.578125"/>
      <use xlink:href="#ArialMT-20" x="940.878906"/>
      <use xlink:href="#ArialMT-76" x="968.662109"/>
      <use xlink:href="#ArialMT-61" x="1018.662109"/>
      <use xlink:href="#ArialMT-6c" x="1074.277344"/>
      <use xlink:href="#ArialMT-75" x="1096.494141"/>
      <use xlink:href="#ArialMT-65" x="1152.109375"/>
      <use xlink:href="#ArialMT-73" x="1207.724609"/>
      <use xlink:href="#ArialMT-20" x="1257.724609"/>
      <use xlink:href="#ArialMT-28" x="1285.507812"/>
      <use xlink:href="#ArialMT-54" x="1318.808594"/>
      <use xlink:href="#ArialMT-4d" x="1379.892578"/>
      <use xlink:href="#ArialMT-4d" x="1463.193359"/>
      <use xlink:href="#ArialMT-29" x="1546.494141"/>
     </g>
    </g>
   </g>
   <g id="PolyCollection_1">
    <defs>
     <path id="me71960d242" d="M 82.785582 -64.385811 
L 76.411021 -64.385811 
L 76.388725 -65.040864 
L 76.369525 -65.695918 
L 76.35343 -66.350971 
L 76.340432 -67.006024 
L 76.330513 -67.661077 
L 76.32364 -68.31613 
L 76.319763 -68.971183 
L 76.318823 -69.626236 
L 76.320745 -70.281289 
L 76.325442 -70.936342 
L 76.332815 -71.591395 
L 76.34275 -72.246448 
L 76.355127 -72.901501 
L 76.36981 -73.556554 
L 76.386657 -74.211607 
L 76.405514 -74.86666 
L 76.426221 -75.521713 
L 76.44861 -76.176767 
L 76.472506 -76.83182 
L 76.497729 -77.486873 
L 76.524094 -78.141926 
L 76.551416 -78.796979 
L 76.579504 -79.452032 
L 76.608167 -80.107085 
L 76.637216 -80.762138 
L 76.66646 -81.417191 
L 76.695713 -82.072244 
L 76.724791 -82.727297 
L 76.753514 -83.38235 
L 76.781709 -84.037403 
L 76.809206 -84.692456 
L 76.835845 -85.347509 
L 76.861474 -86.002563 
L 76.885948 -86.657616 
L 76.909134 -87.312669 
L 76.930906 -87.967722 
L 76.951152 -88.622775 
L 76.96977 -89.277828 
L 76.98667 -89.932881 
L 77.001775 -90.587934 
L 77.01502 -91.242987 
L 77.026352 -91.89804 
L 77.035733 -92.553093 
L 77.043137 -93.208146 
L 77.04855 -93.863199 
L 77.051975 -94.518252 
L 77.053423 -95.173305 
L 77.052921 -95.828359 
L 77.050508 -96.483412 
L 77.046235 -97.138465 
L 77.040163 -97.793518 
L 77.032367 -98.448571 
L 77.022931 -99.103624 
L 77.011951 -99.758677 
L 76.999529 -100.41373 
L 76.98578 -101.068783 
L 76.970826 -101.723836 
L 76.954794 -102.378889 
L 76.93782 -103.033942 
L 76.920047 -103.688995 
L 76.90162 -104.344048 
L 76.882691 -104.999101 
L 76.863414 -105.654155 
L 76.843945 -106.309208 
L 76.824443 -106.964261 
L 76.805068 -107.619314 
L 76.785979 -108.274367 
L 76.767335 -108.92942 
L 76.749291 -109.584473 
L 76.732004 -110.239526 
L 76.715624 -110.894579 
L 76.700298 -111.549632 
L 76.68617 -112.204685 
L 76.673375 -112.859738 
L 76.662046 -113.514791 
L 76.652306 -114.169844 
L 76.644273 -114.824897 
L 76.638057 -115.479951 
L 76.633759 -116.135004 
L 76.631471 -116.790057 
L 76.631277 -117.44511 
L 76.633252 -118.100163 
L 76.63746 -118.755216 
L 76.643955 -119.410269 
L 76.652783 -120.065322 
L 76.663978 -120.720375 
L 76.677565 -121.375428 
L 76.693558 -122.030481 
L 76.711962 -122.685534 
L 76.732769 -123.340587 
L 76.755966 -123.99564 
L 76.781526 -124.650693 
L 76.809415 -125.305746 
L 76.839588 -125.9608 
L 76.871994 -126.615853 
L 76.906572 -127.270906 
L 76.943251 -127.925959 
L 76.981957 -128.581012 
L 77.022605 -129.236065 
L 82.173998 -129.236065 
L 82.173998 -129.236065 
L 82.214646 -128.581012 
L 82.253352 -127.925959 
L 82.290031 -127.270906 
L 82.324609 -126.615853 
L 82.357015 -125.9608 
L 82.387188 -125.305746 
L 82.415077 -124.650693 
L 82.440637 -123.99564 
L 82.463834 -123.340587 
L 82.484641 -122.685534 
L 82.503045 -122.030481 
L 82.519038 -121.375428 
L 82.532625 -120.720375 
L 82.54382 -120.065322 
L 82.552648 -119.410269 
L 82.559143 -118.755216 
L 82.563351 -118.100163 
L 82.565326 -117.44511 
L 82.565132 -116.790057 
L 82.562844 -116.135004 
L 82.558546 -115.479951 
L 82.55233 -114.824897 
L 82.544297 -114.169844 
L 82.534557 -113.514791 
L 82.523228 -112.859738 
L 82.510433 -112.204685 
L 82.496305 -111.549632 
L 82.480979 -110.894579 
L 82.464599 -110.239526 
L 82.447311 -109.584473 
L 82.429268 -108.92942 
L 82.410624 -108.274367 
L 82.391535 -107.619314 
L 82.37216 -106.964261 
L 82.352658 -106.309208 
L 82.333189 -105.654155 
L 82.313912 -104.999101 
L 82.294983 -104.344048 
L 82.276556 -103.688995 
L 82.258783 -103.033942 
L 82.241809 -102.378889 
L 82.225777 -101.723836 
L 82.210823 -101.068783 
L 82.197074 -100.41373 
L 82.184652 -99.758677 
L 82.173672 -99.103624 
L 82.164236 -98.448571 
L 82.15644 -97.793518 
L 82.150368 -97.138465 
L 82.146094 -96.483412 
L 82.143681 -95.828359 
L 82.14318 -95.173305 
L 82.144628 -94.518252 
L 82.148052 -93.863199 
L 82.153466 -93.208146 
L 82.16087 -92.553093 
L 82.170251 -91.89804 
L 82.181583 -91.242987 
L 82.194828 -90.587934 
L 82.209933 -89.932881 
L 82.226833 -89.277828 
L 82.245451 -88.622775 
L 82.265697 -87.967722 
L 82.287469 -87.312669 
L 82.310655 -86.657616 
L 82.335129 -86.002563 
L 82.360758 -85.347509 
L 82.387397 -84.692456 
L 82.414894 -84.037403 
L 82.443089 -83.38235 
L 82.471812 -82.727297 
L 82.50089 -82.072244 
L 82.530143 -81.417191 
L 82.559387 -80.762138 
L 82.588436 -80.107085 
L 82.617099 -79.452032 
L 82.645187 -78.796979 
L 82.672508 -78.141926 
L 82.698874 -77.486873 
L 82.724097 -76.83182 
L 82.747993 -76.176767 
L 82.770382 -75.521713 
L 82.791089 -74.86666 
L 82.809946 -74.211607 
L 82.826793 -73.556554 
L 82.841476 -72.901501 
L 82.853853 -72.246448 
L 82.863788 -71.591395 
L 82.871161 -70.936342 
L 82.875858 -70.281289 
L 82.87778 -69.626236 
L 82.87684 -68.971183 
L 82.872963 -68.31613 
L 82.866089 -67.661077 
L 82.856171 -67.006024 
L 82.843173 -66.350971 
L 82.827078 -65.695918 
L 82.807878 -65.040864 
L 82.785582 -64.385811 
z
" style="stroke: #999999; stroke-width: 2"/>
    </defs>
    <g clip-path="url(#p41d2882933)">
     <use xlink:href="#me71960d242" x="0" y="255.11811" style="fill: #ffffff; stroke: #999999; stroke-width: 2"/>
    </g>
   </g>
   <g id="PolyCollection_2">
    <defs>
     <path id="m7ac3189006" d="M 167.65944 -72.615877 
L 121.050369 -72.615877 
L 120.759489 -72.703349 
L 120.487484 -72.79082 
L 120.234881 -72.878291 
L 120.002139 -72.965762 
L 119.789649 -73.053234 
L 119.597731 -73.140705 
L 119.426631 -73.228176 
L 119.276522 -73.315647 
L 119.147503 -73.403118 
L 119.039596 -73.49059 
L 118.952746 -73.578061 
L 118.886824 -73.665532 
L 118.841626 -73.753003 
L 118.816873 -73.840475 
L 118.812214 -73.927946 
L 118.827226 -74.015417 
L 118.861418 -74.102888 
L 118.914233 -74.19036 
L 118.985048 -74.277831 
L 119.073181 -74.365302 
L 119.177892 -74.452773 
L 119.298388 -74.540244 
L 119.433824 -74.627716 
L 119.583311 -74.715187 
L 119.745917 -74.802658 
L 119.920673 -74.890129 
L 120.106577 -74.977601 
L 120.302598 -75.065072 
L 120.507684 -75.152543 
L 120.720761 -75.240014 
L 120.940742 -75.327486 
L 121.166534 -75.414957 
L 121.397036 -75.502428 
L 121.631149 -75.589899 
L 121.86778 -75.67737 
L 122.105846 -75.764842 
L 122.34428 -75.852313 
L 122.582032 -75.939784 
L 122.818078 -76.027255 
L 123.051421 -76.114727 
L 123.281097 -76.202198 
L 123.506178 -76.289669 
L 123.725777 -76.37714 
L 123.93905 -76.464611 
L 124.145201 -76.552083 
L 124.343483 -76.639554 
L 124.533204 -76.727025 
L 124.713729 -76.814496 
L 124.884479 -76.901968 
L 125.044938 -76.989439 
L 125.194655 -77.07691 
L 125.333239 -77.164381 
L 125.460371 -77.251853 
L 125.575797 -77.339324 
L 125.67933 -77.426795 
L 125.770856 -77.514266 
L 125.850328 -77.601737 
L 125.917771 -77.689209 
L 125.973276 -77.77668 
L 126.017007 -77.864151 
L 126.049194 -77.951622 
L 126.070134 -78.039094 
L 126.080191 -78.126565 
L 126.079789 -78.214036 
L 126.069419 -78.301507 
L 126.049627 -78.388979 
L 126.021017 -78.47645 
L 125.984247 -78.563921 
L 125.940025 -78.651392 
L 125.889105 -78.738863 
L 125.832286 -78.826335 
L 125.770404 -78.913806 
L 125.70433 -79.001277 
L 125.634967 -79.088748 
L 125.563241 -79.17622 
L 125.490101 -79.263691 
L 125.41651 -79.351162 
L 125.343444 -79.438633 
L 125.271883 -79.526104 
L 125.202807 -79.613576 
L 125.137193 -79.701047 
L 125.076007 -79.788518 
L 125.020198 -79.875989 
L 124.970698 -79.963461 
L 124.92841 -80.050932 
L 124.89421 -80.138403 
L 124.868937 -80.225874 
L 124.85339 -80.313346 
L 124.848326 -80.400817 
L 124.854451 -80.488288 
L 124.872423 -80.575759 
L 124.902841 -80.66323 
L 124.946249 -80.750702 
L 125.003126 -80.838173 
L 125.073892 -80.925644 
L 125.158898 -81.013115 
L 125.258428 -81.100587 
L 125.372701 -81.188058 
L 125.501862 -81.275529 
L 163.207947 -81.275529 
L 163.207947 -81.275529 
L 163.337108 -81.188058 
L 163.45138 -81.100587 
L 163.550911 -81.013115 
L 163.635917 -80.925644 
L 163.706683 -80.838173 
L 163.76356 -80.750702 
L 163.806968 -80.66323 
L 163.837386 -80.575759 
L 163.855357 -80.488288 
L 163.861483 -80.400817 
L 163.856418 -80.313346 
L 163.840872 -80.225874 
L 163.815598 -80.138403 
L 163.781398 -80.050932 
L 163.739111 -79.963461 
L 163.689611 -79.875989 
L 163.633802 -79.788518 
L 163.572615 -79.701047 
L 163.507001 -79.613576 
L 163.437926 -79.526104 
L 163.366365 -79.438633 
L 163.293299 -79.351162 
L 163.219708 -79.263691 
L 163.146568 -79.17622 
L 163.074842 -79.088748 
L 163.005479 -79.001277 
L 162.939405 -78.913806 
L 162.877523 -78.826335 
L 162.820704 -78.738863 
L 162.769784 -78.651392 
L 162.725562 -78.563921 
L 162.688792 -78.47645 
L 162.660182 -78.388979 
L 162.64039 -78.301507 
L 162.630019 -78.214036 
L 162.629618 -78.126565 
L 162.639674 -78.039094 
L 162.660614 -77.951622 
L 162.692801 -77.864151 
L 162.736533 -77.77668 
L 162.792038 -77.689209 
L 162.85948 -77.601737 
L 162.938953 -77.514266 
L 163.030479 -77.426795 
L 163.134012 -77.339324 
L 163.249437 -77.251853 
L 163.376569 -77.164381 
L 163.515154 -77.07691 
L 163.66487 -76.989439 
L 163.82533 -76.901968 
L 163.99608 -76.814496 
L 164.176604 -76.727025 
L 164.366326 -76.639554 
L 164.564608 -76.552083 
L 164.770759 -76.464611 
L 164.984032 -76.37714 
L 165.203631 -76.289669 
L 165.428712 -76.202198 
L 165.658388 -76.114727 
L 165.891731 -76.027255 
L 166.127777 -75.939784 
L 166.365529 -75.852313 
L 166.603962 -75.764842 
L 166.842029 -75.67737 
L 167.07866 -75.589899 
L 167.312773 -75.502428 
L 167.543275 -75.414957 
L 167.769066 -75.327486 
L 167.989048 -75.240014 
L 168.202125 -75.152543 
L 168.40721 -75.065072 
L 168.603232 -74.977601 
L 168.789136 -74.890129 
L 168.963892 -74.802658 
L 169.126498 -74.715187 
L 169.275985 -74.627716 
L 169.411421 -74.540244 
L 169.531917 -74.452773 
L 169.636628 -74.365302 
L 169.724761 -74.277831 
L 169.795576 -74.19036 
L 169.848391 -74.102888 
L 169.882583 -74.015417 
L 169.897595 -73.927946 
L 169.892936 -73.840475 
L 169.868183 -73.753003 
L 169.822985 -73.665532 
L 169.757063 -73.578061 
L 169.670213 -73.49059 
L 169.562306 -73.403118 
L 169.433286 -73.315647 
L 169.283178 -73.228176 
L 169.112078 -73.140705 
L 168.92016 -73.053234 
L 168.70767 -72.965762 
L 168.474928 -72.878291 
L 168.222324 -72.79082 
L 167.95032 -72.703349 
L 167.65944 -72.615877 
z
" style="stroke: #999999; stroke-width: 2"/>
    </defs>
    <g clip-path="url(#p41d2882933)">
     <use xlink:href="#m7ac3189006" x="0" y="255.11811" style="fill: #ffffff; stroke: #999999; stroke-width: 2"/>
    </g>
   </g>
   <g id="PolyCollection_3">
    <defs>
     <path id="mbc07038fb7" d="M 212.109202 -58.478319 
L 206.113813 -58.478319 
L 206.011463 -58.86458 
L 205.906313 -59.250841 
L 205.798031 -59.637103 
L 205.686279 -60.023364 
L 205.57071 -60.409625 
L 205.450981 -60.795886 
L 205.326758 -61.182147 
L 205.197721 -61.568408 
L 205.063576 -61.95467 
L 204.924061 -62.340931 
L 204.778953 -62.727192 
L 204.628075 -63.113453 
L 204.471308 -63.499714 
L 204.308593 -63.885976 
L 204.139939 -64.272237 
L 203.965432 -64.658498 
L 203.785233 -65.044759 
L 203.599589 -65.43102 
L 203.408833 -65.817281 
L 203.213386 -66.203543 
L 203.013757 -66.589804 
L 202.810542 -66.976065 
L 202.604424 -67.362326 
L 202.396167 -67.748587 
L 202.186613 -68.134849 
L 201.976674 -68.52111 
L 201.767329 -68.907371 
L 201.559607 -69.293632 
L 201.354585 -69.679893 
L 201.153375 -70.066154 
L 200.957111 -70.452416 
L 200.766937 -70.838677 
L 200.583995 -71.224938 
L 200.409412 -71.611199 
L 200.244286 -71.99746 
L 200.089673 -72.383722 
L 199.946573 -72.769983 
L 199.81592 -73.156244 
L 199.69857 -73.542505 
L 199.595285 -73.928766 
L 199.506731 -74.315027 
L 199.433465 -74.701289 
L 199.375926 -75.08755 
L 199.334434 -75.473811 
L 199.309182 -75.860072 
L 199.300238 -76.246333 
L 199.307538 -76.632595 
L 199.330892 -77.018856 
L 199.369985 -77.405117 
L 199.424381 -77.791378 
L 199.493531 -78.177639 
L 199.576777 -78.5639 
L 199.673365 -78.950162 
L 199.78245 -79.336423 
L 199.903114 -79.722684 
L 200.03437 -80.108945 
L 200.175181 -80.495206 
L 200.32447 -80.881468 
L 200.481134 -81.267729 
L 200.644058 -81.65399 
L 200.812126 -82.040251 
L 200.984237 -82.426512 
L 201.159316 -82.812773 
L 201.336322 -83.199035 
L 201.514265 -83.585296 
L 201.692209 -83.971557 
L 201.869288 -84.357818 
L 202.044704 -84.744079 
L 202.217741 -85.130341 
L 202.387764 -85.516602 
L 202.554225 -85.902863 
L 202.716665 -86.289124 
L 202.874712 -86.675385 
L 203.028084 -87.061646 
L 203.176581 -87.447908 
L 203.320091 -87.834169 
L 203.458575 -88.22043 
L 203.592073 -88.606691 
L 203.720688 -88.992952 
L 203.844587 -89.379214 
L 203.963993 -89.765475 
L 204.079172 -90.151736 
L 204.190433 -90.537997 
L 204.298116 -90.924258 
L 204.402584 -91.310519 
L 204.504217 -91.696781 
L 204.603407 -92.083042 
L 204.700543 -92.469303 
L 204.796014 -92.855564 
L 204.890195 -93.241825 
L 204.983447 -93.628087 
L 205.076108 -94.014348 
L 205.16849 -94.400609 
L 205.260876 -94.78687 
L 205.353515 -95.173131 
L 205.44662 -95.559392 
L 205.540369 -95.945654 
L 205.634899 -96.331915 
L 205.73031 -96.718176 
L 212.492705 -96.718176 
L 212.492705 -96.718176 
L 212.588116 -96.331915 
L 212.682646 -95.945654 
L 212.776395 -95.559392 
L 212.8695 -95.173131 
L 212.962139 -94.78687 
L 213.054524 -94.400609 
L 213.146906 -94.014348 
L 213.239567 -93.628087 
L 213.332819 -93.241825 
L 213.427001 -92.855564 
L 213.522472 -92.469303 
L 213.619608 -92.083042 
L 213.718797 -91.696781 
L 213.820431 -91.310519 
L 213.924899 -90.924258 
L 214.032581 -90.537997 
L 214.143843 -90.151736 
L 214.259022 -89.765475 
L 214.378427 -89.379214 
L 214.502327 -88.992952 
L 214.630942 -88.606691 
L 214.764439 -88.22043 
L 214.902924 -87.834169 
L 215.046433 -87.447908 
L 215.194931 -87.061646 
L 215.348302 -86.675385 
L 215.50635 -86.289124 
L 215.66879 -85.902863 
L 215.835251 -85.516602 
L 216.005274 -85.130341 
L 216.178311 -84.744079 
L 216.353727 -84.357818 
L 216.530805 -83.971557 
L 216.70875 -83.585296 
L 216.886693 -83.199035 
L 217.063699 -82.812773 
L 217.238777 -82.426512 
L 217.410889 -82.040251 
L 217.578957 -81.65399 
L 217.741881 -81.267729 
L 217.898545 -80.881468 
L 218.047834 -80.495206 
L 218.188645 -80.108945 
L 218.319901 -79.722684 
L 218.440564 -79.336423 
L 218.54965 -78.950162 
L 218.646238 -78.5639 
L 218.729484 -78.177639 
L 218.798634 -77.791378 
L 218.85303 -77.405117 
L 218.892123 -77.018856 
L 218.915477 -76.632595 
L 218.922777 -76.246333 
L 218.913832 -75.860072 
L 218.888581 -75.473811 
L 218.847089 -75.08755 
L 218.78955 -74.701289 
L 218.716283 -74.315027 
L 218.62773 -73.928766 
L 218.524445 -73.542505 
L 218.407094 -73.156244 
L 218.276442 -72.769983 
L 218.133342 -72.383722 
L 217.978728 -71.99746 
L 217.813602 -71.611199 
L 217.639019 -71.224938 
L 217.456077 -70.838677 
L 217.265903 -70.452416 
L 217.069639 -70.066154 
L 216.86843 -69.679893 
L 216.663408 -69.293632 
L 216.455686 -68.907371 
L 216.24634 -68.52111 
L 216.036402 -68.134849 
L 215.826848 -67.748587 
L 215.618591 -67.362326 
L 215.412473 -66.976065 
L 215.209258 -66.589804 
L 215.009628 -66.203543 
L 214.814181 -65.817281 
L 214.623426 -65.43102 
L 214.437782 -65.044759 
L 214.257583 -64.658498 
L 214.083075 -64.272237 
L 213.914422 -63.885976 
L 213.751706 -63.499714 
L 213.594939 -63.113453 
L 213.444062 -62.727192 
L 213.298953 -62.340931 
L 213.159438 -61.95467 
L 213.025294 -61.568408 
L 212.896257 -61.182147 
L 212.772033 -60.795886 
L 212.652304 -60.409625 
L 212.536736 -60.023364 
L 212.424983 -59.637103 
L 212.316702 -59.250841 
L 212.211551 -58.86458 
L 212.109202 -58.478319 
z
" style="stroke: #999999; stroke-width: 2"/>
    </defs>
    <g clip-path="url(#p41d2882933)">
     <use xlink:href="#mbc07038fb7" x="0" y="255.11811" style="fill: #ffffff; stroke: #999999; stroke-width: 2"/>
    </g>
   </g>
   <g id="PolyCollection_4">
    <defs>
     <path id="mf0f192f814" d="M 295.433523 -49.837187 
L 252.302698 -49.837187 
L 251.782838 -50.00302 
L 251.290677 -50.168853 
L 250.827878 -50.334686 
L 250.395961 -50.500519 
L 249.996288 -50.666352 
L 249.630072 -50.832186 
L 249.298369 -50.998019 
L 249.002084 -51.163852 
L 248.741973 -51.329685 
L 248.518646 -51.495518 
L 248.33257 -51.661351 
L 248.184078 -51.827184 
L 248.073368 -51.993017 
L 248.000515 -52.15885 
L 247.965469 -52.324684 
L 247.968065 -52.490517 
L 248.008024 -52.65635 
L 248.084958 -52.822183 
L 248.198374 -52.988016 
L 248.347676 -53.153849 
L 248.532165 -53.319682 
L 248.751045 -53.485515 
L 249.003424 -53.651349 
L 249.28831 -53.817182 
L 249.60462 -53.983015 
L 249.951176 -54.148848 
L 250.326711 -54.314681 
L 250.729865 -54.480514 
L 251.159195 -54.646347 
L 251.613172 -54.81218 
L 252.09019 -54.978014 
L 252.588564 -55.143847 
L 253.106546 -55.30968 
L 253.642319 -55.475513 
L 254.194015 -55.641346 
L 254.759716 -55.807179 
L 255.337467 -55.973012 
L 255.925283 -56.138845 
L 256.521158 -56.304678 
L 257.12308 -56.470512 
L 257.729037 -56.636345 
L 258.337028 -56.802178 
L 258.945076 -56.968011 
L 259.551238 -57.133844 
L 260.153612 -57.299677 
L 260.750351 -57.46551 
L 261.339671 -57.631343 
L 261.919856 -57.797177 
L 262.489271 -57.96301 
L 263.046367 -58.128843 
L 263.589685 -58.294676 
L 264.117864 -58.460509 
L 264.629647 -58.626342 
L 265.12388 -58.792175 
L 265.599521 -58.958008 
L 266.055636 -59.123841 
L 266.491406 -59.289675 
L 266.906124 -59.455508 
L 267.2992 -59.621341 
L 267.670156 -59.787174 
L 268.018626 -59.953007 
L 268.344359 -60.11884 
L 268.647215 -60.284673 
L 268.927161 -60.450506 
L 269.184275 -60.61634 
L 269.418737 -60.782173 
L 269.630833 -60.948006 
L 269.820948 -61.113839 
L 269.989563 -61.279672 
L 270.137256 -61.445505 
L 270.264691 -61.611338 
L 270.372625 -61.777171 
L 270.461892 -61.943005 
L 270.533406 -62.108838 
L 270.588155 -62.274671 
L 270.627192 -62.440504 
L 270.651633 -62.606337 
L 270.662649 -62.77217 
L 270.661459 -62.938003 
L 270.64932 -63.103836 
L 270.627524 -63.269669 
L 270.597387 -63.435503 
L 270.560237 -63.601336 
L 270.517411 -63.767169 
L 270.470239 -63.933002 
L 270.420041 -64.098835 
L 270.368109 -64.264668 
L 270.315705 -64.430501 
L 270.264046 -64.596334 
L 270.214296 -64.762168 
L 270.167557 -64.928001 
L 270.12486 -65.093834 
L 270.087158 -65.259667 
L 270.055317 -65.4255 
L 270.030111 -65.591333 
L 270.012213 -65.757166 
L 270.002199 -65.922999 
L 270.000535 -66.088832 
L 270.007581 -66.254666 
L 277.728639 -66.254666 
L 277.728639 -66.254666 
L 277.735685 -66.088832 
L 277.734021 -65.922999 
L 277.724007 -65.757166 
L 277.70611 -65.591333 
L 277.680903 -65.4255 
L 277.649062 -65.259667 
L 277.61136 -65.093834 
L 277.568663 -64.928001 
L 277.521924 -64.762168 
L 277.472174 -64.596334 
L 277.420515 -64.430501 
L 277.368111 -64.264668 
L 277.31618 -64.098835 
L 277.265981 -63.933002 
L 277.21881 -63.767169 
L 277.175984 -63.601336 
L 277.138834 -63.435503 
L 277.108696 -63.269669 
L 277.0869 -63.103836 
L 277.074762 -62.938003 
L 277.073571 -62.77217 
L 277.084587 -62.606337 
L 277.109029 -62.440504 
L 277.148066 -62.274671 
L 277.202815 -62.108838 
L 277.274329 -61.943005 
L 277.363596 -61.777171 
L 277.471529 -61.611338 
L 277.598965 -61.445505 
L 277.746657 -61.279672 
L 277.915272 -61.113839 
L 278.105387 -60.948006 
L 278.317483 -60.782173 
L 278.551946 -60.61634 
L 278.80906 -60.450506 
L 279.089006 -60.284673 
L 279.391861 -60.11884 
L 279.717595 -59.953007 
L 280.066065 -59.787174 
L 280.43702 -59.621341 
L 280.830096 -59.455508 
L 281.244815 -59.289675 
L 281.680585 -59.123841 
L 282.1367 -58.958008 
L 282.61234 -58.792175 
L 283.106574 -58.626342 
L 283.618357 -58.460509 
L 284.146536 -58.294676 
L 284.689854 -58.128843 
L 285.246949 -57.96301 
L 285.816364 -57.797177 
L 286.39655 -57.631343 
L 286.985869 -57.46551 
L 287.582609 -57.299677 
L 288.184983 -57.133844 
L 288.791144 -56.968011 
L 289.399193 -56.802178 
L 290.007184 -56.636345 
L 290.61314 -56.470512 
L 291.215062 -56.304678 
L 291.810938 -56.138845 
L 292.398753 -55.973012 
L 292.976504 -55.807179 
L 293.542206 -55.641346 
L 294.093901 -55.475513 
L 294.629675 -55.30968 
L 295.147656 -55.143847 
L 295.646031 -54.978014 
L 296.123048 -54.81218 
L 296.577025 -54.646347 
L 297.006355 -54.480514 
L 297.40951 -54.314681 
L 297.785044 -54.148848 
L 298.131601 -53.983015 
L 298.447911 -53.817182 
L 298.732797 -53.651349 
L 298.985175 -53.485515 
L 299.204056 -53.319682 
L 299.388545 -53.153849 
L 299.537846 -52.988016 
L 299.651262 -52.822183 
L 299.728197 -52.65635 
L 299.768156 -52.490517 
L 299.770751 -52.324684 
L 299.735705 -52.15885 
L 299.662852 -51.993017 
L 299.552143 -51.827184 
L 299.40365 -51.661351 
L 299.217575 -51.495518 
L 298.994247 -51.329685 
L 298.734136 -51.163852 
L 298.437852 -50.998019 
L 298.106149 -50.832186 
L 297.739932 -50.666352 
L 297.34026 -50.500519 
L 296.908342 -50.334686 
L 296.445544 -50.168853 
L 295.953382 -50.00302 
L 295.433523 -49.837187 
z
" style="stroke: #999999; stroke-width: 2"/>
    </defs>
    <g clip-path="url(#p41d2882933)">
     <use xlink:href="#mf0f192f814" x="0" y="255.11811" style="fill: #ffffff; stroke: #999999; stroke-width: 2"/>
    </g>
   </g>
   <g id="PolyCollection_5">
    <defs>
     <path id="mf91ce611c4" d="M 340.181006 -146.107442 
L 337.068421 -146.107442 
L 337.04583 -146.875861 
L 337.024029 -147.64428 
L 337.003033 -148.412699 
L 336.982853 -149.181118 
L 336.963496 -149.949537 
L 336.944965 -150.717956 
L 336.92726 -151.486375 
L 336.910374 -152.254794 
L 336.894298 -153.023213 
L 336.879019 -153.791632 
L 336.864518 -154.560051 
L 336.850773 -155.32847 
L 336.837756 -156.096889 
L 336.825438 -156.865308 
L 336.813783 -157.633727 
L 336.802752 -158.402146 
L 336.792303 -159.170565 
L 336.78239 -159.938984 
L 336.772963 -160.707403 
L 336.763968 -161.475822 
L 336.755352 -162.244241 
L 336.747053 -163.01266 
L 336.739013 -163.781079 
L 336.731167 -164.549498 
L 336.723451 -165.317917 
L 336.715797 -166.086336 
L 336.708139 -166.854755 
L 336.700408 -167.623174 
L 336.692535 -168.391593 
L 336.68445 -169.160012 
L 336.676086 -169.928431 
L 336.667373 -170.69685 
L 336.658245 -171.465269 
L 336.648637 -172.233688 
L 336.638484 -173.002107 
L 336.627726 -173.770526 
L 336.616303 -174.538945 
L 336.60416 -175.307364 
L 336.591244 -176.075783 
L 336.577508 -176.844202 
L 336.562906 -177.612621 
L 336.547399 -178.38104 
L 336.530951 -179.149459 
L 336.513534 -179.917878 
L 336.495121 -180.686297 
L 336.475694 -181.454716 
L 336.45524 -182.223135 
L 336.433752 -182.991554 
L 336.41123 -183.759973 
L 336.387679 -184.528392 
L 336.363112 -185.296811 
L 336.337547 -186.06523 
L 336.311011 -186.833649 
L 336.283537 -187.602068 
L 336.255163 -188.370487 
L 336.225937 -189.138906 
L 336.195911 -189.907325 
L 336.165144 -190.675744 
L 336.133703 -191.444163 
L 336.10166 -192.212582 
L 336.069093 -192.981001 
L 336.036086 -193.74942 
L 336.00273 -194.517839 
L 335.969119 -195.286258 
L 335.935353 -196.054677 
L 335.901536 -196.823096 
L 335.867777 -197.591515 
L 335.834188 -198.359934 
L 335.800885 -199.128353 
L 335.767985 -199.896772 
L 335.735609 -200.665191 
L 335.703879 -201.43361 
L 335.672918 -202.202029 
L 335.64285 -202.970448 
L 335.613799 -203.738867 
L 335.585887 -204.507286 
L 335.559238 -205.275705 
L 335.533971 -206.044124 
L 335.510204 -206.812543 
L 335.488053 -207.580962 
L 335.46763 -208.349381 
L 335.449041 -209.1178 
L 335.432391 -209.886219 
L 335.417777 -210.654638 
L 335.405292 -211.423057 
L 335.395022 -212.191476 
L 335.387047 -212.959895 
L 335.38144 -213.728314 
L 335.378266 -214.496733 
L 335.377583 -215.265152 
L 335.37944 -216.033571 
L 335.383881 -216.80199 
L 335.390936 -217.570409 
L 335.400631 -218.338828 
L 335.41298 -219.107247 
L 335.427991 -219.875666 
L 335.44566 -220.644085 
L 335.465976 -221.412504 
L 335.488918 -222.180923 
L 341.760508 -222.180923 
L 341.760508 -222.180923 
L 341.78345 -221.412504 
L 341.803766 -220.644085 
L 341.821435 -219.875666 
L 341.836446 -219.107247 
L 341.848796 -218.338828 
L 341.85849 -217.570409 
L 341.865546 -216.80199 
L 341.869986 -216.033571 
L 341.871844 -215.265152 
L 341.871161 -214.496733 
L 341.867987 -213.728314 
L 341.862379 -212.959895 
L 341.854404 -212.191476 
L 341.844134 -211.423057 
L 341.831649 -210.654638 
L 341.817035 -209.886219 
L 341.800385 -209.1178 
L 341.781797 -208.349381 
L 341.761373 -207.580962 
L 341.739222 -206.812543 
L 341.715456 -206.044124 
L 341.690189 -205.275705 
L 341.663539 -204.507286 
L 341.635628 -203.738867 
L 341.606576 -202.970448 
L 341.576508 -202.202029 
L 341.545547 -201.43361 
L 341.513817 -200.665191 
L 341.481441 -199.896772 
L 341.448541 -199.128353 
L 341.415238 -198.359934 
L 341.381649 -197.591515 
L 341.34789 -196.823096 
L 341.314074 -196.054677 
L 341.280308 -195.286258 
L 341.246696 -194.517839 
L 341.21334 -193.74942 
L 341.180334 -192.981001 
L 341.147767 -192.212582 
L 341.115723 -191.444163 
L 341.084282 -190.675744 
L 341.053516 -189.907325 
L 341.023489 -189.138906 
L 340.994263 -188.370487 
L 340.965889 -187.602068 
L 340.938415 -186.833649 
L 340.911879 -186.06523 
L 340.886315 -185.296811 
L 340.861747 -184.528392 
L 340.838196 -183.759973 
L 340.815674 -182.991554 
L 340.794186 -182.223135 
L 340.773733 -181.454716 
L 340.754306 -180.686297 
L 340.735893 -179.917878 
L 340.718475 -179.149459 
L 340.702027 -178.38104 
L 340.68652 -177.612621 
L 340.671918 -176.844202 
L 340.658182 -176.075783 
L 340.645266 -175.307364 
L 340.633123 -174.538945 
L 340.6217 -173.770526 
L 340.610942 -173.002107 
L 340.600789 -172.233688 
L 340.591181 -171.465269 
L 340.582053 -170.69685 
L 340.57334 -169.928431 
L 340.564976 -169.160012 
L 340.556891 -168.391593 
L 340.549018 -167.623174 
L 340.541287 -166.854755 
L 340.533629 -166.086336 
L 340.525976 -165.317917 
L 340.518259 -164.549498 
L 340.510413 -163.781079 
L 340.502373 -163.01266 
L 340.494075 -162.244241 
L 340.485458 -161.475822 
L 340.476464 -160.707403 
L 340.467036 -159.938984 
L 340.457123 -159.170565 
L 340.446674 -158.402146 
L 340.435644 -157.633727 
L 340.423988 -156.865308 
L 340.41167 -156.096889 
L 340.398654 -155.32847 
L 340.384908 -154.560051 
L 340.370407 -153.791632 
L 340.355128 -153.023213 
L 340.339053 -152.254794 
L 340.322167 -151.486375 
L 340.304461 -150.717956 
L 340.28593 -149.949537 
L 340.266573 -149.181118 
L 340.246393 -148.412699 
L 340.225397 -147.64428 
L 340.203596 -146.875861 
L 340.181006 -146.107442 
z
" style="stroke: #999999; stroke-width: 2"/>
    </defs>
    <g clip-path="url(#p41d2882933)">
     <use xlink:href="#mf91ce611c4" x="0" y="255.11811" style="fill: #ffffff; stroke: #999999; stroke-width: 2"/>
    </g>
   </g>
   <g id="PolyCollection_6">
    <defs>
     <path id="m8cf9d610b8" d="M 409.461904 -188.735806 
L 397.300728 -188.735806 
L 397.215239 -189.031409 
L 397.134998 -189.327012 
L 397.060079 -189.622615 
L 396.990522 -189.918218 
L 396.926341 -190.213821 
L 396.867515 -190.509424 
L 396.813997 -190.805027 
L 396.765708 -191.10063 
L 396.722539 -191.396233 
L 396.684357 -191.691836 
L 396.650997 -191.987439 
L 396.622273 -192.283042 
L 396.597973 -192.578645 
L 396.577862 -192.874248 
L 396.561688 -193.169852 
L 396.549179 -193.465455 
L 396.540047 -193.761058 
L 396.533992 -194.056661 
L 396.530702 -194.352264 
L 396.529859 -194.647867 
L 396.531136 -194.94347 
L 396.534204 -195.239073 
L 396.538735 -195.534676 
L 396.5444 -195.830279 
L 396.550877 -196.125882 
L 396.557848 -196.421485 
L 396.565006 -196.717088 
L 396.572053 -197.012691 
L 396.578705 -197.308294 
L 396.584693 -197.603897 
L 396.589765 -197.8995 
L 396.593686 -198.195103 
L 396.596239 -198.490706 
L 396.597231 -198.786309 
L 396.596487 -199.081912 
L 396.593856 -199.377515 
L 396.589209 -199.673118 
L 396.582441 -199.968721 
L 396.573469 -200.264324 
L 396.562235 -200.559927 
L 396.548703 -200.85553 
L 396.53286 -201.151133 
L 396.514718 -201.446736 
L 396.494308 -201.742339 
L 396.471684 -202.037942 
L 396.44692 -202.333545 
L 396.420112 -202.629148 
L 396.391372 -202.924751 
L 396.360832 -203.220354 
L 396.32864 -203.515957 
L 396.29496 -203.81156 
L 396.259972 -204.107163 
L 396.223867 -204.402766 
L 396.186852 -204.698369 
L 396.149143 -204.993972 
L 396.110966 -205.289575 
L 396.072557 -205.585178 
L 396.03416 -205.880781 
L 395.996024 -206.176384 
L 395.958406 -206.471987 
L 395.921567 -206.76759 
L 395.885769 -207.063193 
L 395.851279 -207.358796 
L 395.818364 -207.654399 
L 395.78729 -207.950003 
L 395.758325 -208.245606 
L 395.731732 -208.541209 
L 395.707771 -208.836812 
L 395.6867 -209.132415 
L 395.66877 -209.428018 
L 395.654224 -209.723621 
L 395.643302 -210.019224 
L 395.63623 -210.314827 
L 395.633228 -210.61043 
L 395.634506 -210.906033 
L 395.640258 -211.201636 
L 395.650669 -211.497239 
L 395.665909 -211.792842 
L 395.686134 -212.088445 
L 395.711483 -212.384048 
L 395.742078 -212.679651 
L 395.778026 -212.975254 
L 395.819414 -213.270857 
L 395.86631 -213.56646 
L 395.918764 -213.862063 
L 395.976803 -214.157666 
L 396.040436 -214.453269 
L 396.10965 -214.748872 
L 396.184411 -215.044475 
L 396.264664 -215.340078 
L 396.350332 -215.635681 
L 396.441318 -215.931284 
L 396.537502 -216.226887 
L 396.638746 -216.52249 
L 396.74489 -216.818093 
L 396.855756 -217.113696 
L 396.971145 -217.409299 
L 397.090843 -217.704902 
L 397.214618 -218.000505 
L 409.548014 -218.000505 
L 409.548014 -218.000505 
L 409.671789 -217.704902 
L 409.791487 -217.409299 
L 409.906876 -217.113696 
L 410.017742 -216.818093 
L 410.123886 -216.52249 
L 410.22513 -216.226887 
L 410.321314 -215.931284 
L 410.4123 -215.635681 
L 410.497968 -215.340078 
L 410.578221 -215.044475 
L 410.652983 -214.748872 
L 410.722197 -214.453269 
L 410.78583 -214.157666 
L 410.843869 -213.862063 
L 410.896322 -213.56646 
L 410.943218 -213.270857 
L 410.984606 -212.975254 
L 411.020554 -212.679651 
L 411.051149 -212.384048 
L 411.076498 -212.088445 
L 411.096723 -211.792842 
L 411.111963 -211.497239 
L 411.122374 -211.201636 
L 411.128127 -210.906033 
L 411.129404 -210.61043 
L 411.126402 -210.314827 
L 411.119331 -210.019224 
L 411.108408 -209.723621 
L 411.093862 -209.428018 
L 411.075932 -209.132415 
L 411.054861 -208.836812 
L 411.0309 -208.541209 
L 411.004307 -208.245606 
L 410.975342 -207.950003 
L 410.944268 -207.654399 
L 410.911353 -207.358796 
L 410.876863 -207.063193 
L 410.841065 -206.76759 
L 410.804226 -206.471987 
L 410.766608 -206.176384 
L 410.728473 -205.880781 
L 410.690075 -205.585178 
L 410.651666 -205.289575 
L 410.613489 -204.993972 
L 410.57578 -204.698369 
L 410.538765 -204.402766 
L 410.502661 -204.107163 
L 410.467672 -203.81156 
L 410.433993 -203.515957 
L 410.4018 -203.220354 
L 410.37126 -202.924751 
L 410.34252 -202.629148 
L 410.315712 -202.333545 
L 410.290948 -202.037942 
L 410.268324 -201.742339 
L 410.247914 -201.446736 
L 410.229772 -201.151133 
L 410.21393 -200.85553 
L 410.200398 -200.559927 
L 410.189163 -200.264324 
L 410.180192 -199.968721 
L 410.173423 -199.673118 
L 410.168776 -199.377515 
L 410.166145 -199.081912 
L 410.165401 -198.786309 
L 410.166393 -198.490706 
L 410.168946 -198.195103 
L 410.172867 -197.8995 
L 410.177939 -197.603897 
L 410.183927 -197.308294 
L 410.19058 -197.012691 
L 410.197627 -196.717088 
L 410.204784 -196.421485 
L 410.211755 -196.125882 
L 410.218232 -195.830279 
L 410.223897 -195.534676 
L 410.228428 -195.239073 
L 410.231496 -194.94347 
L 410.232773 -194.647867 
L 410.23193 -194.352264 
L 410.22864 -194.056661 
L 410.222585 -193.761058 
L 410.213453 -193.465455 
L 410.200944 -193.169852 
L 410.18477 -192.874248 
L 410.16466 -192.578645 
L 410.140359 -192.283042 
L 410.111635 -191.987439 
L 410.078276 -191.691836 
L 410.040093 -191.396233 
L 409.996925 -191.10063 
L 409.948635 -190.805027 
L 409.895117 -190.509424 
L 409.836291 -190.213821 
L 409.77211 -189.918218 
L 409.702553 -189.622615 
L 409.627634 -189.327012 
L 409.547393 -189.031409 
L 409.461904 -188.735806 
z
" style="stroke: #999999; stroke-width: 2"/>
    </defs>
    <g clip-path="url(#p41d2882933)">
     <use xlink:href="#m8cf9d610b8" x="0" y="255.11811" style="fill: #ffffff; stroke: #999999; stroke-width: 2"/>
    </g>
   </g>
   <g id="PolyCollection_7">
    <defs>
     <path id="m78f01355e3" d="M 472.156043 -61.39922 
L 464.119795 -61.39922 
L 464.016562 -61.992111 
L 463.91666 -62.585001 
L 463.820421 -63.177892 
L 463.728166 -63.770782 
L 463.6402 -64.363673 
L 463.556813 -64.956563 
L 463.478274 -65.549453 
L 463.404834 -66.142344 
L 463.336717 -66.735234 
L 463.274126 -67.328125 
L 463.217238 -67.921015 
L 463.166199 -68.513906 
L 463.12113 -69.106796 
L 463.08212 -69.699687 
L 463.049229 -70.292577 
L 463.022486 -70.885467 
L 463.001888 -71.478358 
L 462.987401 -72.071248 
L 462.978961 -72.664139 
L 462.976473 -73.257029 
L 462.979813 -73.84992 
L 462.988828 -74.44281 
L 463.003337 -75.035701 
L 463.023134 -75.628591 
L 463.04799 -76.221481 
L 463.077652 -76.814372 
L 463.111847 -77.407262 
L 463.150284 -78.000153 
L 463.192659 -78.593043 
L 463.238651 -79.185934 
L 463.287931 -79.778824 
L 463.34016 -80.371715 
L 463.394997 -80.964605 
L 463.452095 -81.557495 
L 463.511109 -82.150386 
L 463.571695 -82.743276 
L 463.633516 -83.336167 
L 463.696241 -83.929057 
L 463.759548 -84.521948 
L 463.823131 -85.114838 
L 463.886693 -85.707729 
L 463.949955 -86.300619 
L 464.012656 -86.893509 
L 464.074554 -87.4864 
L 464.135426 -88.07929 
L 464.19507 -88.672181 
L 464.253306 -89.265071 
L 464.309979 -89.857962 
L 464.364953 -90.450852 
L 464.418118 -91.043743 
L 464.469384 -91.636633 
L 464.518688 -92.229523 
L 464.565984 -92.822414 
L 464.61125 -93.415304 
L 464.654487 -94.008195 
L 464.695711 -94.601085 
L 464.73496 -95.193976 
L 464.772289 -95.786866 
L 464.807767 -96.379757 
L 464.841481 -96.972647 
L 464.87353 -97.565537 
L 464.904023 -98.158428 
L 464.933082 -98.751318 
L 464.960837 -99.344209 
L 464.987423 -99.937099 
L 465.012985 -100.52999 
L 465.037669 -101.12288 
L 465.061625 -101.715771 
L 465.085005 -102.308661 
L 465.10796 -102.901551 
L 465.130642 -103.494442 
L 465.153198 -104.087332 
L 465.175774 -104.680223 
L 465.198512 -105.273113 
L 465.221547 -105.866004 
L 465.245009 -106.458894 
L 465.269022 -107.051785 
L 465.293701 -107.644675 
L 465.319155 -108.237565 
L 465.345484 -108.830456 
L 465.372779 -109.423346 
L 465.40112 -110.016237 
L 465.430582 -110.609127 
L 465.461227 -111.202018 
L 465.493108 -111.794908 
L 465.526269 -112.387799 
L 465.560743 -112.980689 
L 465.596555 -113.573579 
L 465.633718 -114.16647 
L 465.672237 -114.75936 
L 465.712108 -115.352251 
L 465.753317 -115.945141 
L 465.795841 -116.538032 
L 465.839649 -117.130922 
L 465.8847 -117.723813 
L 465.930948 -118.316703 
L 465.978337 -118.909593 
L 466.026805 -119.502484 
L 466.076283 -120.095374 
L 470.199555 -120.095374 
L 470.199555 -120.095374 
L 470.249033 -119.502484 
L 470.297501 -118.909593 
L 470.34489 -118.316703 
L 470.391138 -117.723813 
L 470.436189 -117.130922 
L 470.479997 -116.538032 
L 470.522521 -115.945141 
L 470.56373 -115.352251 
L 470.603601 -114.75936 
L 470.64212 -114.16647 
L 470.679283 -113.573579 
L 470.715095 -112.980689 
L 470.749569 -112.387799 
L 470.78273 -111.794908 
L 470.814611 -111.202018 
L 470.845256 -110.609127 
L 470.874718 -110.016237 
L 470.903059 -109.423346 
L 470.930354 -108.830456 
L 470.956683 -108.237565 
L 470.982137 -107.644675 
L 471.006816 -107.051785 
L 471.030829 -106.458894 
L 471.054291 -105.866004 
L 471.077326 -105.273113 
L 471.100064 -104.680223 
L 471.12264 -104.087332 
L 471.145196 -103.494442 
L 471.167878 -102.901551 
L 471.190833 -102.308661 
L 471.214213 -101.715771 
L 471.238169 -101.12288 
L 471.262853 -100.52999 
L 471.288415 -99.937099 
L 471.315001 -99.344209 
L 471.342756 -98.751318 
L 471.371815 -98.158428 
L 471.402308 -97.565537 
L 471.434357 -96.972647 
L 471.468071 -96.379757 
L 471.50355 -95.786866 
L 471.540878 -95.193976 
L 471.580127 -94.601085 
L 471.621351 -94.008195 
L 471.664588 -93.415304 
L 471.709854 -92.822414 
L 471.75715 -92.229523 
L 471.806454 -91.636633 
L 471.85772 -91.043743 
L 471.910885 -90.450852 
L 471.965859 -89.857962 
L 472.022532 -89.265071 
L 472.080768 -88.672181 
L 472.140412 -88.07929 
L 472.201284 -87.4864 
L 472.263182 -86.893509 
L 472.325883 -86.300619 
L 472.389145 -85.707729 
L 472.452707 -85.114838 
L 472.51629 -84.521948 
L 472.579597 -83.929057 
L 472.642322 -83.336167 
L 472.704143 -82.743276 
L 472.764729 -82.150386 
L 472.823743 -81.557495 
L 472.880841 -80.964605 
L 472.935678 -80.371715 
L 472.987907 -79.778824 
L 473.037187 -79.185934 
L 473.083179 -78.593043 
L 473.125554 -78.000153 
L 473.163991 -77.407262 
L 473.198186 -76.814372 
L 473.227848 -76.221481 
L 473.252704 -75.628591 
L 473.272501 -75.035701 
L 473.28701 -74.44281 
L 473.296025 -73.84992 
L 473.299365 -73.257029 
L 473.296877 -72.664139 
L 473.288437 -72.071248 
L 473.27395 -71.478358 
L 473.253352 -70.885467 
L 473.226609 -70.292577 
L 473.193718 -69.699687 
L 473.154708 -69.106796 
L 473.109639 -68.513906 
L 473.0586 -67.921015 
L 473.001712 -67.328125 
L 472.939121 -66.735234 
L 472.871004 -66.142344 
L 472.797564 -65.549453 
L 472.719025 -64.956563 
L 472.635638 -64.363673 
L 472.547672 -63.770782 
L 472.455417 -63.177892 
L 472.359178 -62.585001 
L 472.259276 -61.992111 
L 472.156043 -61.39922 
z
" style="stroke: #999999; stroke-width: 2"/>
    </defs>
    <g clip-path="url(#p41d2882933)">
     <use xlink:href="#m78f01355e3" x="0" y="255.11811" style="fill: #ffffff; stroke: #999999; stroke-width: 2"/>
    </g>
   </g>
   <g id="PathCollection_1"/>
   <g id="PathCollection_2"/>
   <g id="patch_3">
    <path d="M 47.22 213.89811 
L 47.22 24.32 
" style="fill: none; stroke: #262626; stroke-width: 1.25; stroke-linejoin: miter; stroke-linecap: square"/>
   </g>
   <g id="patch_4">
    <path d="M 47.22 213.89811 
L 500.51622 213.89811 
" style="fill: none; stroke: #262626; stroke-width: 1.25; stroke-linejoin: miter; stroke-linecap: square"/>
   </g>
   <g id="PathCollection_3">
    <defs>
     <path id="C0_0_1df421ab95" d="M 0 2.5 
C 0.663008 2.5 1.29895 2.236584 1.767767 1.767767 
C 2.236584 1.29895 2.5 0.663008 2.5 -0 
C 2.5 -0.663008 2.236584 -1.29895 1.767767 -1.767767 
C 1.29895 -2.236584 0.663008 -2.5 0 -2.5 
C -0.663008 -2.5 -1.29895 -2.236584 -1.767767 -1.767767 
C -2.236584 -1.29895 -2.5 -0.663008 -2.5 0 
C -2.5 0.663008 -2.236584 1.29895 -1.767767 1.767767 
C -1.29895 2.236584 -0.663008 2.5 0 2.5 
z
"/>
    </defs>
    <g clip-path="url(#p41d2882933)">
     <use xlink:href="#C0_0_1df421ab95" x="80.49201" y="135.998575" style="fill: #4c72b0; fill-opacity: 0.75"/>
    </g>
    <g clip-path="url(#p41d2882933)">
     <use xlink:href="#C0_0_1df421ab95" x="78.358586" y="125.882045" style="fill: #4c72b0; fill-opacity: 0.75"/>
    </g>
    <g clip-path="url(#p41d2882933)">
     <use xlink:href="#C0_0_1df421ab95" x="82.688162" y="149.431843" style="fill: #4c72b0; fill-opacity: 0.75"/>
    </g>
    <g clip-path="url(#p41d2882933)">
     <use xlink:href="#C0_0_1df421ab95" x="78.628295" y="134.052374" style="fill: #4c72b0; fill-opacity: 0.75"/>
    </g>
    <g clip-path="url(#p41d2882933)">
     <use xlink:href="#C0_0_1df421ab95" x="76.843096" y="190.732299" style="fill: #dd8452; fill-opacity: 0.75"/>
    </g>
    <g clip-path="url(#p41d2882933)">
     <use xlink:href="#C0_0_1df421ab95" x="77.548751" y="187.417045" style="fill: #dd8452; fill-opacity: 0.75"/>
    </g>
    <g clip-path="url(#p41d2882933)">
     <use xlink:href="#C0_0_1df421ab95" x="77.397433" y="182.961322" style="fill: #dd8452; fill-opacity: 0.75"/>
    </g>
    <g clip-path="url(#p41d2882933)">
     <use xlink:href="#C0_0_1df421ab95" x="81.263921" y="190.184302" style="fill: #dd8452; fill-opacity: 0.75"/>
    </g>
   </g>
   <g id="PathCollection_4">
    <defs>
     <path id="C1_0_0016248f23" d="M 0 2.5 
C 0.663008 2.5 1.29895 2.236584 1.767767 1.767767 
C 2.236584 1.29895 2.5 0.663008 2.5 -0 
C 2.5 -0.663008 2.236584 -1.29895 1.767767 -1.767767 
C 1.29895 -2.236584 0.663008 -2.5 0 -2.5 
C -0.663008 -2.5 -1.29895 -2.236584 -1.767767 -1.767767 
C -2.236584 -1.29895 -2.5 -0.663008 -2.5 0 
C -2.5 0.663008 -2.236584 1.29895 -1.767767 1.767767 
C -1.29895 2.236584 -0.663008 2.5 0 2.5 
z
"/>
    </defs>
    <g clip-path="url(#p41d2882933)">
     <use xlink:href="#C1_0_0016248f23" x="141.840889" y="178.331875" style="fill: #4c72b0; fill-opacity: 0.75"/>
    </g>
    <g clip-path="url(#p41d2882933)">
     <use xlink:href="#C1_0_0016248f23" x="147.070729" y="182.076959" style="fill: #4c72b0; fill-opacity: 0.75"/>
    </g>
    <g clip-path="url(#p41d2882933)">
     <use xlink:href="#C1_0_0016248f23" x="148.664097" y="182.502233" style="fill: #4c72b0; fill-opacity: 0.75"/>
    </g>
    <g clip-path="url(#p41d2882933)">
     <use xlink:href="#C1_0_0016248f23" x="147.786481" y="180.80939" style="fill: #4c72b0; fill-opacity: 0.75"/>
    </g>
    <g clip-path="url(#p41d2882933)">
     <use xlink:href="#C1_0_0016248f23" x="141.554478" y="174.324203" style="fill: #dd8452; fill-opacity: 0.75"/>
    </g>
    <g clip-path="url(#p41d2882933)">
     <use xlink:href="#C1_0_0016248f23" x="142.228345" y="173.842581" style="fill: #dd8452; fill-opacity: 0.75"/>
    </g>
    <g clip-path="url(#p41d2882933)">
     <use xlink:href="#C1_0_0016248f23" x="145.648209" y="181.59187" style="fill: #dd8452; fill-opacity: 0.75"/>
    </g>
    <g clip-path="url(#p41d2882933)">
     <use xlink:href="#C1_0_0016248f23" x="142.943297" y="173.845918" style="fill: #dd8452; fill-opacity: 0.75"/>
    </g>
   </g>
   <g id="PathCollection_5">
    <defs>
     <path id="C2_0_d7d3b97f38" d="M 0 2.5 
C 0.663008 2.5 1.29895 2.236584 1.767767 1.767767 
C 2.236584 1.29895 2.5 0.663008 2.5 -0 
C 2.5 -0.663008 2.236584 -1.29895 1.767767 -1.767767 
C 1.29895 -2.236584 0.663008 -2.5 0 -2.5 
C -0.663008 -2.5 -1.29895 -2.236584 -1.767767 -1.767767 
C -2.236584 -1.29895 -2.5 -0.663008 -2.5 0 
C -2.5 0.663008 -2.236584 1.29895 -1.767767 1.767767 
C -1.29895 2.236584 -0.663008 2.5 0 2.5 
z
"/>
    </defs>
    <g clip-path="url(#p41d2882933)">
     <use xlink:href="#C2_0_d7d3b97f38" x="213.443829" y="158.399934" style="fill: #4c72b0; fill-opacity: 0.75"/>
    </g>
    <g clip-path="url(#p41d2882933)">
     <use xlink:href="#C2_0_d7d3b97f38" x="206.894709" y="176.760044" style="fill: #4c72b0; fill-opacity: 0.75"/>
    </g>
    <g clip-path="url(#p41d2882933)">
     <use xlink:href="#C2_0_d7d3b97f38" x="215.472092" y="184.776458" style="fill: #4c72b0; fill-opacity: 0.75"/>
    </g>
    <g clip-path="url(#p41d2882933)">
     <use xlink:href="#C2_0_d7d3b97f38" x="207.391973" y="166.205961" style="fill: #4c72b0; fill-opacity: 0.75"/>
    </g>
    <g clip-path="url(#p41d2882933)">
     <use xlink:href="#C2_0_d7d3b97f38" x="210.315027" y="178.80734" style="fill: #dd8452; fill-opacity: 0.75"/>
    </g>
    <g clip-path="url(#p41d2882933)">
     <use xlink:href="#C2_0_d7d3b97f38" x="215.120728" y="177.614434" style="fill: #dd8452; fill-opacity: 0.75"/>
    </g>
    <g clip-path="url(#p41d2882933)">
     <use xlink:href="#C2_0_d7d3b97f38" x="212.710979" y="180.341208" style="fill: #dd8452; fill-opacity: 0.75"/>
    </g>
    <g clip-path="url(#p41d2882933)">
     <use xlink:href="#C2_0_d7d3b97f38" x="207.335915" y="196.639791" style="fill: #dd8452; fill-opacity: 0.75"/>
    </g>
   </g>
   <g id="PathCollection_6">
    <defs>
     <path id="C3_0_00d4be5d46" d="M 0 2.5 
C 0.663008 2.5 1.29895 2.236584 1.767767 1.767767 
C 2.236584 1.29895 2.5 0.663008 2.5 -0 
C 2.5 -0.663008 2.236584 -1.29895 1.767767 -1.767767 
C 1.29895 -2.236584 0.663008 -2.5 0 -2.5 
C -0.663008 -2.5 -1.29895 -2.236584 -1.767767 -1.767767 
C -2.236584 -1.29895 -2.5 -0.663008 -2.5 0 
C -2.5 0.663008 -2.236584 1.29895 -1.767767 1.767767 
C -1.29895 2.236584 -0.663008 2.5 0 2.5 
z
"/>
    </defs>
    <g clip-path="url(#p41d2882933)">
     <use xlink:href="#C3_0_00d4be5d46" x="277.502937" y="205.280923" style="fill: #4c72b0; fill-opacity: 0.75"/>
    </g>
    <g clip-path="url(#p41d2882933)">
     <use xlink:href="#C3_0_00d4be5d46" x="267.631382" y="201.155753" style="fill: #4c72b0; fill-opacity: 0.75"/>
    </g>
    <g clip-path="url(#p41d2882933)">
     <use xlink:href="#C3_0_00d4be5d46" x="268.227087" y="204.770956" style="fill: #4c72b0; fill-opacity: 0.75"/>
    </g>
    <g clip-path="url(#p41d2882933)">
     <use xlink:href="#C3_0_00d4be5d46" x="267.685961" y="204.935896" style="fill: #4c72b0; fill-opacity: 0.75"/>
    </g>
    <g clip-path="url(#p41d2882933)">
     <use xlink:href="#C3_0_00d4be5d46" x="273.635422" y="201.295792" style="fill: #4c72b0; fill-opacity: 0.75"/>
    </g>
    <g clip-path="url(#p41d2882933)">
     <use xlink:href="#C3_0_00d4be5d46" x="274.286847" y="201.529405" style="fill: #dd8452; fill-opacity: 0.75"/>
    </g>
    <g clip-path="url(#p41d2882933)">
     <use xlink:href="#C3_0_00d4be5d46" x="275.846956" y="200.427693" style="fill: #dd8452; fill-opacity: 0.75"/>
    </g>
    <g clip-path="url(#p41d2882933)">
     <use xlink:href="#C3_0_00d4be5d46" x="269.85295" y="188.863445" style="fill: #dd8452; fill-opacity: 0.75"/>
    </g>
    <g clip-path="url(#p41d2882933)">
     <use xlink:href="#C3_0_00d4be5d46" x="268.011777" y="197.810496" style="fill: #dd8452; fill-opacity: 0.75"/>
    </g>
    <g clip-path="url(#p41d2882933)">
     <use xlink:href="#C3_0_00d4be5d46" x="268.551909" y="205.029664" style="fill: #dd8452; fill-opacity: 0.75"/>
    </g>
   </g>
   <g id="PathCollection_7">
    <defs>
     <path id="C4_0_39bba8efb1" d="M 0 2.5 
C 0.663008 2.5 1.29895 2.236584 1.767767 1.767767 
C 2.236584 1.29895 2.5 0.663008 2.5 -0 
C 2.5 -0.663008 2.236584 -1.29895 1.767767 -1.767767 
C 1.29895 -2.236584 0.663008 -2.5 0 -2.5 
C -0.663008 -2.5 -1.29895 -2.236584 -1.767767 -1.767767 
C -2.236584 -1.29895 -2.5 -0.663008 -2.5 0 
C -2.5 0.663008 -2.236584 1.29895 -1.767767 1.767767 
C -1.29895 2.236584 -0.663008 2.5 0 2.5 
z
"/>
    </defs>
    <g clip-path="url(#p41d2882933)">
     <use xlink:href="#C4_0_39bba8efb1" x="338.494345" y="32.937187" style="fill: #4c72b0; fill-opacity: 0.75"/>
    </g>
    <g clip-path="url(#p41d2882933)">
     <use xlink:href="#C4_0_39bba8efb1" x="338.63665" y="34.846297" style="fill: #4c72b0; fill-opacity: 0.75"/>
    </g>
    <g clip-path="url(#p41d2882933)">
     <use xlink:href="#C4_0_39bba8efb1" x="335.138939" y="109.010668" style="fill: #4c72b0; fill-opacity: 0.75"/>
    </g>
    <g clip-path="url(#p41d2882933)">
     <use xlink:href="#C4_0_39bba8efb1" x="335.946426" y="33.574168" style="fill: #dd8452; fill-opacity: 0.75"/>
    </g>
    <g clip-path="url(#p41d2882933)">
     <use xlink:href="#C4_0_39bba8efb1" x="341.999752" y="90.342184" style="fill: #dd8452; fill-opacity: 0.75"/>
    </g>
    <g clip-path="url(#p41d2882933)">
     <use xlink:href="#C4_0_39bba8efb1" x="341.489854" y="56.41091" style="fill: #dd8452; fill-opacity: 0.75"/>
    </g>
   </g>
   <g id="PathCollection_8">
    <defs>
     <path id="C5_0_955f3521fe" d="M 0 2.5 
C 0.663008 2.5 1.29895 2.236584 1.767767 1.767767 
C 2.236584 1.29895 2.5 0.663008 2.5 -0 
C 2.5 -0.663008 2.236584 -1.29895 1.767767 -1.767767 
C 1.29895 -2.236584 0.663008 -2.5 0 -2.5 
C -0.663008 -2.5 -1.29895 -2.236584 -1.767767 -1.767767 
C -2.236584 -1.29895 -2.5 -0.663008 -2.5 0 
C -2.5 0.663008 -2.236584 1.29895 -1.767767 1.767767 
C -1.29895 2.236584 -0.663008 2.5 0 2.5 
z
"/>
    </defs>
    <g clip-path="url(#p41d2882933)">
     <use xlink:href="#C5_0_955f3521fe" x="406.724216" y="64.191981" style="fill: #4c72b0; fill-opacity: 0.75"/>
    </g>
    <g clip-path="url(#p41d2882933)">
     <use xlink:href="#C5_0_955f3521fe" x="409.050763" y="63.279343" style="fill: #4c72b0; fill-opacity: 0.75"/>
    </g>
    <g clip-path="url(#p41d2882933)">
     <use xlink:href="#C5_0_955f3521fe" x="406.967254" y="49.186124" style="fill: #4c72b0; fill-opacity: 0.75"/>
    </g>
    <g clip-path="url(#p41d2882933)">
     <use xlink:href="#C5_0_955f3521fe" x="397.513247" y="51.941551" style="fill: #4c72b0; fill-opacity: 0.75"/>
    </g>
    <g clip-path="url(#p41d2882933)">
     <use xlink:href="#C5_0_955f3521fe" x="407.006502" y="41.724025" style="fill: #dd8452; fill-opacity: 0.75"/>
    </g>
    <g clip-path="url(#p41d2882933)">
     <use xlink:href="#C5_0_955f3521fe" x="405.488101" y="66.382304" style="fill: #dd8452; fill-opacity: 0.75"/>
    </g>
    <g clip-path="url(#p41d2882933)">
     <use xlink:href="#C5_0_955f3521fe" x="406.857173" y="37.117605" style="fill: #dd8452; fill-opacity: 0.75"/>
    </g>
    <g clip-path="url(#p41d2882933)">
     <use xlink:href="#C5_0_955f3521fe" x="397.82584" y="40.611168" style="fill: #dd8452; fill-opacity: 0.75"/>
    </g>
   </g>
   <g id="PathCollection_9">
    <defs>
     <path id="C6_0_dbc80286a3" d="M 0 2.5 
C 0.663008 2.5 1.29895 2.236584 1.767767 1.767767 
C 2.236584 1.29895 2.5 0.663008 2.5 -0 
C 2.5 -0.663008 2.236584 -1.29895 1.767767 -1.767767 
C 1.29895 -2.236584 0.663008 -2.5 0 -2.5 
C -0.663008 -2.5 -1.29895 -2.236584 -1.767767 -1.767767 
C -2.236584 -1.29895 -2.5 -0.663008 -2.5 0 
C -2.5 0.663008 -2.236584 1.29895 -1.767767 1.767767 
C -1.29895 2.236584 -0.663008 2.5 0 2.5 
z
"/>
    </defs>
    <g clip-path="url(#p41d2882933)">
     <use xlink:href="#C6_0_dbc80286a3" x="466.676936" y="135.022736" style="fill: #4c72b0; fill-opacity: 0.75"/>
    </g>
    <g clip-path="url(#p41d2882933)">
     <use xlink:href="#C6_0_dbc80286a3" x="465.252997" y="147.794301" style="fill: #4c72b0; fill-opacity: 0.75"/>
    </g>
    <g clip-path="url(#p41d2882933)">
     <use xlink:href="#C6_0_dbc80286a3" x="462.289311" y="158.315123" style="fill: #4c72b0; fill-opacity: 0.75"/>
    </g>
    <g clip-path="url(#p41d2882933)">
     <use xlink:href="#C6_0_dbc80286a3" x="470.145802" y="175.739071" style="fill: #4c72b0; fill-opacity: 0.75"/>
    </g>
    <g clip-path="url(#p41d2882933)">
     <use xlink:href="#C6_0_dbc80286a3" x="464.39851" y="193.71889" style="fill: #dd8452; fill-opacity: 0.75"/>
    </g>
    <g clip-path="url(#p41d2882933)">
     <use xlink:href="#C6_0_dbc80286a3" x="467.792254" y="179.332386" style="fill: #dd8452; fill-opacity: 0.75"/>
    </g>
    <g clip-path="url(#p41d2882933)">
     <use xlink:href="#C6_0_dbc80286a3" x="464.00658" y="184.072398" style="fill: #dd8452; fill-opacity: 0.75"/>
    </g>
    <g clip-path="url(#p41d2882933)">
     <use xlink:href="#C6_0_dbc80286a3" x="464.843206" y="187.158097" style="fill: #dd8452; fill-opacity: 0.75"/>
    </g>
   </g>
   <g id="text_17">
    <!-- YPEL2, $p_{adj}$ &lt; .001 *** -->
    <g style="fill: #262626" transform="translate(47.22 18.32)scale(0.09 -0.09)">
     <defs>
      <path id="ArialMT-59" d="M 1784 0 
L 1784 1941 
L 19 4581 
L 756 4581 
L 1659 3200 
Q 1909 2813 2125 2425 
Q 2331 2784 2625 3234 
L 3513 4581 
L 4219 4581 
L 2391 1941 
L 2391 0 
L 1784 0 
z
" transform="scale(0.015625)"/>
      <path id="ArialMT-45" d="M 506 0 
L 506 4581 
L 3819 4581 
L 3819 4041 
L 1113 4041 
L 1113 2638 
L 3647 2638 
L 3647 2100 
L 1113 2100 
L 1113 541 
L 3925 541 
L 3925 0 
L 506 0 
z
" transform="scale(0.015625)"/>
      <path id="ArialMT-4c" d="M 469 0 
L 469 4581 
L 1075 4581 
L 1075 541 
L 3331 541 
L 3331 0 
L 469 0 
z
" transform="scale(0.015625)"/>
      <path id="ArialMT-2c" d="M 569 0 
L 569 641 
L 1209 641 
L 1209 0 
Q 1209 -353 1084 -570 
Q 959 -788 688 -906 
L 531 -666 
Q 709 -588 793 -436 
Q 878 -284 888 0 
L 569 0 
z
" transform="scale(0.015625)"/>
      <path id="DejaVuSans-Oblique-70" d="M 3175 2156 
Q 3175 2616 2975 2859 
Q 2775 3103 2400 3103 
Q 2144 3103 1911 2972 
Q 1678 2841 1497 2591 
Q 1319 2344 1212 1994 
Q 1106 1644 1106 1300 
Q 1106 863 1306 627 
Q 1506 391 1875 391 
Q 2147 391 2380 519 
Q 2613 647 2778 891 
Q 2956 1147 3065 1494 
Q 3175 1841 3175 2156 
z
M 1394 2969 
Q 1625 3272 1939 3428 
Q 2253 3584 2638 3584 
Q 3175 3584 3472 3232 
Q 3769 2881 3769 2247 
Q 3769 1728 3584 1258 
Q 3400 788 3053 416 
Q 2822 169 2531 39 
Q 2241 -91 1919 -91 
Q 1547 -91 1294 64 
Q 1041 219 916 525 
L 556 -1331 
L -19 -1331 
L 922 3500 
L 1497 3500 
L 1394 2969 
z
" transform="scale(0.015625)"/>
      <path id="DejaVuSans-Oblique-61" d="M 3438 1997 
L 3047 0 
L 2472 0 
L 2578 531 
Q 2325 219 2001 64 
Q 1678 -91 1281 -91 
Q 834 -91 548 182 
Q 263 456 263 884 
Q 263 1497 752 1853 
Q 1241 2209 2100 2209 
L 2900 2209 
L 2931 2363 
Q 2938 2388 2941 2417 
Q 2944 2447 2944 2509 
Q 2944 2788 2717 2942 
Q 2491 3097 2081 3097 
Q 1800 3097 1504 3025 
Q 1209 2953 897 2809 
L 997 3341 
Q 1322 3463 1633 3523 
Q 1944 3584 2234 3584 
Q 2853 3584 3176 3315 
Q 3500 3047 3500 2534 
Q 3500 2431 3484 2292 
Q 3469 2153 3438 1997 
z
M 2816 1759 
L 2241 1759 
Q 1534 1759 1195 1570 
Q 856 1381 856 984 
Q 856 709 1029 553 
Q 1203 397 1509 397 
Q 1978 397 2328 733 
Q 2678 1069 2791 1631 
L 2816 1759 
z
" transform="scale(0.015625)"/>
      <path id="DejaVuSans-Oblique-64" d="M 2675 525 
Q 2444 222 2128 65 
Q 1813 -91 1428 -91 
Q 903 -91 598 267 
Q 294 625 294 1247 
Q 294 1766 478 2236 
Q 663 2706 1013 3078 
Q 1244 3325 1534 3454 
Q 1825 3584 2144 3584 
Q 2481 3584 2739 3421 
Q 2997 3259 3138 2956 
L 3513 4863 
L 4091 4863 
L 3144 0 
L 2566 0 
L 2675 525 
z
M 891 1350 
Q 891 897 1095 644 
Q 1300 391 1663 391 
Q 1931 391 2161 520 
Q 2391 650 2566 903 
Q 2750 1166 2856 1509 
Q 2963 1853 2963 2188 
Q 2963 2622 2758 2865 
Q 2553 3109 2194 3109 
Q 1922 3109 1687 2981 
Q 1453 2853 1288 2613 
Q 1106 2353 998 2009 
Q 891 1666 891 1350 
z
" transform="scale(0.015625)"/>
      <path id="DejaVuSans-Oblique-6a" d="M 928 3500 
L 1503 3500 
L 813 -63 
L 809 -78 
Q 694 -675 544 -897 
Q 403 -1106 132 -1218 
Q -138 -1331 -506 -1331 
L -722 -1331 
L -628 -844 
L -481 -844 
Q -144 -844 -1 -703 
Q 141 -563 238 -63 
L 928 3500 
z
M 1197 4863 
L 1772 4863 
L 1631 4134 
L 1056 4134 
L 1197 4863 
z
" transform="scale(0.015625)"/>
      <path id="ArialMT-3c" d="M 350 2003 
L 350 2528 
L 3384 3809 
L 3384 3250 
L 978 2263 
L 3384 1266 
L 3384 706 
L 350 2003 
z
" transform="scale(0.015625)"/>
      <path id="ArialMT-2e" d="M 581 0 
L 581 641 
L 1222 641 
L 1222 0 
L 581 0 
z
" transform="scale(0.015625)"/>
      <path id="ArialMT-2a" d="M 200 3741 
L 344 4184 
Q 841 4009 1066 3881 
Q 1006 4447 1003 4659 
L 1456 4659 
Q 1447 4350 1384 3884 
Q 1706 4047 2122 4184 
L 2266 3741 
Q 1869 3609 1488 3566 
Q 1678 3400 2025 2975 
L 1650 2709 
Q 1469 2956 1222 3381 
Q 991 2941 816 2709 
L 447 2975 
Q 809 3422 966 3566 
Q 563 3644 200 3741 
z
" transform="scale(0.015625)"/>
     </defs>
     <use xlink:href="#ArialMT-59" transform="translate(0 0.203125)"/>
     <use xlink:href="#ArialMT-50" transform="translate(66.699219 0.203125)"/>
     <use xlink:href="#ArialMT-45" transform="translate(133.398438 0.203125)"/>
     <use xlink:href="#ArialMT-4c" transform="translate(200.097656 0.203125)"/>
     <use xlink:href="#ArialMT-32" transform="translate(255.712891 0.203125)"/>
     <use xlink:href="#ArialMT-2c" transform="translate(311.328125 0.203125)"/>
     <use xlink:href="#ArialMT-20" transform="translate(339.111328 0.203125)"/>
     <use xlink:href="#DejaVuSans-Oblique-70" transform="translate(366.894531 0.203125)"/>
     <use xlink:href="#DejaVuSans-Oblique-61" transform="translate(430.371094 -16.203125)scale(0.7)"/>
     <use xlink:href="#DejaVuSans-Oblique-64" transform="translate(473.266602 -16.203125)scale(0.7)"/>
     <use xlink:href="#DejaVuSans-Oblique-6a" transform="translate(517.700195 -16.203125)scale(0.7)"/>
     <use xlink:href="#ArialMT-20" transform="translate(539.882812 0.203125)"/>
     <use xlink:href="#ArialMT-3c" transform="translate(567.666016 0.203125)"/>
     <use xlink:href="#ArialMT-20" transform="translate(626.064453 0.203125)"/>
     <use xlink:href="#ArialMT-2e" transform="translate(653.847656 0.203125)"/>
     <use xlink:href="#ArialMT-30" transform="translate(681.630859 0.203125)"/>
     <use xlink:href="#ArialMT-30" transform="translate(737.246094 0.203125)"/>
     <use xlink:href="#ArialMT-31" transform="translate(792.861328 0.203125)"/>
     <use xlink:href="#ArialMT-20" transform="translate(848.476562 0.203125)"/>
     <use xlink:href="#ArialMT-2a" transform="translate(876.259766 0.203125)"/>
     <use xlink:href="#ArialMT-2a" transform="translate(915.175781 0.203125)"/>
     <use xlink:href="#ArialMT-2a" transform="translate(954.091797 0.203125)"/>
    </g>
   </g>
   <g id="legend_1">
    <g id="patch_5">
     <path d="M 441.91497 69.712344 
L 494.21622 69.712344 
Q 496.01622 69.712344 496.01622 67.912344 
L 496.01622 30.62 
Q 496.01622 28.82 494.21622 28.82 
L 441.91497 28.82 
Q 440.11497 28.82 440.11497 30.62 
L 440.11497 67.912344 
Q 440.11497 69.712344 441.91497 69.712344 
z
" style="fill: #ffffff; opacity: 0.8; stroke: #cccccc; stroke-linejoin: miter"/>
    </g>
    <g id="text_18">
     <!-- Treatment -->
     <g style="fill: #262626" transform="translate(447.729111 38.862031)scale(0.09 -0.09)">
      <use xlink:href="#ArialMT-54"/>
      <use xlink:href="#ArialMT-72" x="57.333984"/>
      <use xlink:href="#ArialMT-65" x="90.634766"/>
      <use xlink:href="#ArialMT-61" x="146.25"/>
      <use xlink:href="#ArialMT-74" x="201.865234"/>
      <use xlink:href="#ArialMT-6d" x="229.648438"/>
      <use xlink:href="#ArialMT-65" x="312.949219"/>
      <use xlink:href="#ArialMT-6e" x="368.564453"/>
      <use xlink:href="#ArialMT-74" x="424.179688"/>
     </g>
    </g>
    <g id="PathCollection_10">
     <defs>
      <path id="m745b395683" d="M 0 3.872983 
C 1.027127 3.872983 2.012324 3.464901 2.738613 2.738613 
C 3.464901 2.012324 3.872983 1.027127 3.872983 0 
C 3.872983 -1.027127 3.464901 -2.012324 2.738613 -2.738613 
C 2.012324 -3.464901 1.027127 -3.872983 0 -3.872983 
C -1.027127 -3.872983 -2.012324 -3.464901 -2.738613 -2.738613 
C -3.464901 -2.012324 -3.872983 -1.027127 -3.872983 0 
C -3.872983 1.027127 -3.464901 2.012324 -2.738613 2.738613 
C -2.012324 3.464901 -1.027127 3.872983 0 3.872983 
z
" style="stroke: #4c72b0"/>
     </defs>
     <g>
      <use xlink:href="#m745b395683" x="452.71497" y="49.230313" style="fill: #4c72b0; stroke: #4c72b0"/>
     </g>
    </g>
    <g id="text_19">
     <!-- BEVA -->
     <g style="fill: #262626" transform="translate(468.91497 51.592813)scale(0.09 -0.09)">
      <defs>
       <path id="ArialMT-42" d="M 469 0 
L 469 4581 
L 2188 4581 
Q 2713 4581 3030 4442 
Q 3347 4303 3526 4014 
Q 3706 3725 3706 3409 
Q 3706 3116 3547 2856 
Q 3388 2597 3066 2438 
Q 3481 2316 3704 2022 
Q 3928 1728 3928 1328 
Q 3928 1006 3792 729 
Q 3656 453 3456 303 
Q 3256 153 2954 76 
Q 2653 0 2216 0 
L 469 0 
z
M 1075 2656 
L 2066 2656 
Q 2469 2656 2644 2709 
Q 2875 2778 2992 2937 
Q 3109 3097 3109 3338 
Q 3109 3566 3000 3739 
Q 2891 3913 2687 3977 
Q 2484 4041 1991 4041 
L 1075 4041 
L 1075 2656 
z
M 1075 541 
L 2216 541 
Q 2509 541 2628 563 
Q 2838 600 2978 687 
Q 3119 775 3209 942 
Q 3300 1109 3300 1328 
Q 3300 1584 3169 1773 
Q 3038 1963 2805 2039 
Q 2572 2116 2134 2116 
L 1075 2116 
L 1075 541 
z
" transform="scale(0.015625)"/>
       <path id="ArialMT-56" d="M 1803 0 
L 28 4581 
L 684 4581 
L 1875 1253 
Q 2019 853 2116 503 
Q 2222 878 2363 1253 
L 3600 4581 
L 4219 4581 
L 2425 0 
L 1803 0 
z
" transform="scale(0.015625)"/>
       <path id="ArialMT-41" d="M -9 0 
L 1750 4581 
L 2403 4581 
L 4278 0 
L 3588 0 
L 3053 1388 
L 1138 1388 
L 634 0 
L -9 0 
z
M 1313 1881 
L 2866 1881 
L 2388 3150 
Q 2169 3728 2063 4100 
Q 1975 3659 1816 3225 
L 1313 1881 
z
" transform="scale(0.015625)"/>
      </defs>
      <use xlink:href="#ArialMT-42"/>
      <use xlink:href="#ArialMT-45" x="66.699219"/>
      <use xlink:href="#ArialMT-56" x="133.398438"/>
      <use xlink:href="#ArialMT-41" x="192.722656"/>
     </g>
    </g>
    <g id="PathCollection_11">
     <defs>
      <path id="m2a1c341434" d="M 0 3.872983 
C 1.027127 3.872983 2.012324 3.464901 2.738613 2.738613 
C 3.464901 2.012324 3.872983 1.027127 3.872983 0 
C 3.872983 -1.027127 3.464901 -2.012324 2.738613 -2.738613 
C 2.012324 -3.464901 1.027127 -3.872983 0 -3.872983 
C -1.027127 -3.872983 -2.012324 -3.464901 -2.738613 -2.738613 
C -3.464901 -2.012324 -3.872983 -1.027127 -3.872983 0 
C -3.872983 1.027127 -3.464901 2.012324 -2.738613 2.738613 
C -2.012324 3.464901 -1.027127 3.872983 0 3.872983 
z
" style="stroke: #dd8452"/>
     </defs>
     <g>
      <use xlink:href="#m2a1c341434" x="452.71497" y="61.961094" style="fill: #dd8452; stroke: #dd8452"/>
     </g>
    </g>
    <g id="text_20">
     <!-- CTRL -->
     <g style="fill: #262626" transform="translate(468.91497 64.323594)scale(0.09 -0.09)">
      <defs>
       <path id="ArialMT-43" d="M 3763 1606 
L 4369 1453 
Q 4178 706 3683 314 
Q 3188 -78 2472 -78 
Q 1731 -78 1267 223 
Q 803 525 561 1097 
Q 319 1669 319 2325 
Q 319 3041 592 3573 
Q 866 4106 1370 4382 
Q 1875 4659 2481 4659 
Q 3169 4659 3637 4309 
Q 4106 3959 4291 3325 
L 3694 3184 
Q 3534 3684 3231 3912 
Q 2928 4141 2469 4141 
Q 1941 4141 1586 3887 
Q 1231 3634 1087 3207 
Q 944 2781 944 2328 
Q 944 1744 1114 1308 
Q 1284 872 1643 656 
Q 2003 441 2422 441 
Q 2931 441 3284 734 
Q 3638 1028 3763 1606 
z
" transform="scale(0.015625)"/>
       <path id="ArialMT-52" d="M 503 0 
L 503 4581 
L 2534 4581 
Q 3147 4581 3465 4457 
Q 3784 4334 3975 4021 
Q 4166 3709 4166 3331 
Q 4166 2844 3850 2509 
Q 3534 2175 2875 2084 
Q 3116 1969 3241 1856 
Q 3506 1613 3744 1247 
L 4541 0 
L 3778 0 
L 3172 953 
Q 2906 1366 2734 1584 
Q 2563 1803 2427 1890 
Q 2291 1978 2150 2013 
Q 2047 2034 1813 2034 
L 1109 2034 
L 1109 0 
L 503 0 
z
M 1109 2559 
L 2413 2559 
Q 2828 2559 3062 2645 
Q 3297 2731 3419 2920 
Q 3541 3109 3541 3331 
Q 3541 3656 3305 3865 
Q 3069 4075 2559 4075 
L 1109 4075 
L 1109 2559 
z
" transform="scale(0.015625)"/>
      </defs>
      <use xlink:href="#ArialMT-43"/>
      <use xlink:href="#ArialMT-54" x="72.216797"/>
      <use xlink:href="#ArialMT-52" x="133.300781"/>
      <use xlink:href="#ArialMT-4c" x="205.517578"/>
     </g>
    </g>
   </g>
  </g>
 </g>
 <defs>
  <clipPath id="p41d2882933">
   <rect x="47.22" y="24.32" width="453.29622" height="189.57811"/>
  </clipPath>
 </defs>
</svg>
