<?xml version="1.0" encoding="utf-8" standalone="no"?>
<!DOCTYPE svg PUBLIC "-//W3C//DTD SVG 1.1//EN"
  "http://www.w3.org/Graphics/SVG/1.1/DTD/svg11.dtd">
<svg xmlns:xlink="http://www.w3.org/1999/xlink" width="510.23622pt" height="255.11811pt" viewBox="0 0 510.23622 255.11811" xmlns="http://www.w3.org/2000/svg" version="1.1">
 <metadata>
  <rdf:RDF xmlns:dc="http://purl.org/dc/elements/1.1/" xmlns:cc="http://creativecommons.org/ns#" xmlns:rdf="http://www.w3.org/1999/02/22-rdf-syntax-ns#">
   <cc:Work>
    <dc:type rdf:resource="http://purl.org/dc/dcmitype/StillImage"/>
    <dc:date>2022-04-27T00:17:40.259989</dc:date>
    <dc:format>image/svg+xml</dc:format>
    <dc:creator>
     <cc:Agent>
      <dc:title>Matplotlib v3.5.1, https://matplotlib.org/</dc:title>
     </cc:Agent>
    </dc:creator>
   </cc:Work>
  </rdf:RDF>
 </metadata>
 <defs>
  <style type="text/css">*{stroke-linejoin: round; stroke-linecap: butt}</style>
 </defs>
 <g id="figure_1">
  <g id="patch_1">
   <path d="M 0 255.11811 
L 510.23622 255.11811 
L 510.23622 0 
L 0 0 
z
" style="fill: #ffffff"/>
  </g>
  <g id="axes_1">
   <g id="patch_2">
    <path d="M 47.22 213.89811 
L 500.51622 213.89811 
L 500.51622 24.32 
L 47.22 24.32 
z
" style="fill: #ffffff"/>
   </g>
   <g id="matplotlib.axis_1">
    <g id="xtick_1">
     <g id="text_1">
      <!-- 49 -->
      <g style="fill: #444444" transform="translate(74.593458 229.840141)scale(0.09 -0.09)">
       <defs>
        <path id="ArialMT-34" d="M 2069 0 
L 2069 1097 
L 81 1097 
L 81 1613 
L 2172 4581 
L 2631 4581 
L 2631 1613 
L 3250 1613 
L 3250 1097 
L 2631 1097 
L 2631 0 
L 2069 0 
z
M 2069 1613 
L 2069 3678 
L 634 1613 
L 2069 1613 
z
" transform="scale(0.015625)"/>
        <path id="ArialMT-39" d="M 350 1059 
L 891 1109 
Q 959 728 1153 556 
Q 1347 384 1650 384 
Q 1909 384 2104 503 
Q 2300 622 2425 820 
Q 2550 1019 2634 1356 
Q 2719 1694 2719 2044 
Q 2719 2081 2716 2156 
Q 2547 1888 2255 1720 
Q 1963 1553 1622 1553 
Q 1053 1553 659 1965 
Q 266 2378 266 3053 
Q 266 3750 677 4175 
Q 1088 4600 1706 4600 
Q 2153 4600 2523 4359 
Q 2894 4119 3086 3673 
Q 3278 3228 3278 2384 
Q 3278 1506 3087 986 
Q 2897 466 2520 194 
Q 2144 -78 1638 -78 
Q 1100 -78 759 220 
Q 419 519 350 1059 
z
M 2653 3081 
Q 2653 3566 2395 3850 
Q 2138 4134 1775 4134 
Q 1400 4134 1122 3828 
Q 844 3522 844 3034 
Q 844 2597 1108 2323 
Q 1372 2050 1759 2050 
Q 2150 2050 2401 2323 
Q 2653 2597 2653 3081 
z
" transform="scale(0.015625)"/>
       </defs>
       <use xlink:href="#ArialMT-34"/>
       <use xlink:href="#ArialMT-39" x="55.615234"/>
      </g>
     </g>
    </g>
    <g id="xtick_2">
     <g id="text_2">
      <!-- 17 -->
      <g style="fill: #444444" transform="translate(139.350061 229.840141)scale(0.09 -0.09)">
       <defs>
        <path id="ArialMT-31" d="M 2384 0 
L 1822 0 
L 1822 3584 
Q 1619 3391 1289 3197 
Q 959 3003 697 2906 
L 697 3450 
Q 1169 3672 1522 3987 
Q 1875 4303 2022 4600 
L 2384 4600 
L 2384 0 
z
" transform="scale(0.015625)"/>
        <path id="ArialMT-37" d="M 303 3981 
L 303 4522 
L 3269 4522 
L 3269 4084 
Q 2831 3619 2401 2847 
Q 1972 2075 1738 1259 
Q 1569 684 1522 0 
L 944 0 
Q 953 541 1156 1306 
Q 1359 2072 1739 2783 
Q 2119 3494 2547 3981 
L 303 3981 
z
" transform="scale(0.015625)"/>
       </defs>
       <use xlink:href="#ArialMT-31"/>
       <use xlink:href="#ArialMT-37" x="55.615234"/>
      </g>
     </g>
    </g>
    <g id="xtick_3">
     <g id="text_3">
      <!-- 69 -->
      <g style="fill: #444444" transform="translate(204.106664 229.840141)scale(0.09 -0.09)">
       <defs>
        <path id="ArialMT-36" d="M 3184 3459 
L 2625 3416 
Q 2550 3747 2413 3897 
Q 2184 4138 1850 4138 
Q 1581 4138 1378 3988 
Q 1113 3794 959 3422 
Q 806 3050 800 2363 
Q 1003 2672 1297 2822 
Q 1591 2972 1913 2972 
Q 2475 2972 2870 2558 
Q 3266 2144 3266 1488 
Q 3266 1056 3080 686 
Q 2894 316 2569 119 
Q 2244 -78 1831 -78 
Q 1128 -78 684 439 
Q 241 956 241 2144 
Q 241 3472 731 4075 
Q 1159 4600 1884 4600 
Q 2425 4600 2770 4297 
Q 3116 3994 3184 3459 
z
M 888 1484 
Q 888 1194 1011 928 
Q 1134 663 1356 523 
Q 1578 384 1822 384 
Q 2178 384 2434 671 
Q 2691 959 2691 1453 
Q 2691 1928 2437 2201 
Q 2184 2475 1800 2475 
Q 1419 2475 1153 2201 
Q 888 1928 888 1484 
z
" transform="scale(0.015625)"/>
       </defs>
       <use xlink:href="#ArialMT-36"/>
       <use xlink:href="#ArialMT-39" x="55.615234"/>
      </g>
     </g>
    </g>
    <g id="xtick_4">
     <g id="text_4">
      <!-- 15 -->
      <g style="fill: #444444" transform="translate(268.863266 229.840141)scale(0.09 -0.09)">
       <defs>
        <path id="ArialMT-35" d="M 266 1200 
L 856 1250 
Q 922 819 1161 601 
Q 1400 384 1738 384 
Q 2144 384 2425 690 
Q 2706 997 2706 1503 
Q 2706 1984 2436 2262 
Q 2166 2541 1728 2541 
Q 1456 2541 1237 2417 
Q 1019 2294 894 2097 
L 366 2166 
L 809 4519 
L 3088 4519 
L 3088 3981 
L 1259 3981 
L 1013 2750 
Q 1425 3038 1878 3038 
Q 2478 3038 2890 2622 
Q 3303 2206 3303 1553 
Q 3303 931 2941 478 
Q 2500 -78 1738 -78 
Q 1113 -78 717 272 
Q 322 622 266 1200 
z
" transform="scale(0.015625)"/>
       </defs>
       <use xlink:href="#ArialMT-31"/>
       <use xlink:href="#ArialMT-35" x="55.615234"/>
      </g>
     </g>
    </g>
    <g id="xtick_5">
     <g id="text_5">
      <!-- 5 -->
      <g style="fill: #444444" transform="translate(336.122291 229.840141)scale(0.09 -0.09)">
       <use xlink:href="#ArialMT-35"/>
      </g>
     </g>
    </g>
    <g id="xtick_6">
     <g id="text_6">
      <!-- 126 -->
      <g style="fill: #444444" transform="translate(395.87405 229.840141)scale(0.09 -0.09)">
       <defs>
        <path id="ArialMT-32" d="M 3222 541 
L 3222 0 
L 194 0 
Q 188 203 259 391 
Q 375 700 629 1000 
Q 884 1300 1366 1694 
Q 2113 2306 2375 2664 
Q 2638 3022 2638 3341 
Q 2638 3675 2398 3904 
Q 2159 4134 1775 4134 
Q 1369 4134 1125 3890 
Q 881 3647 878 3216 
L 300 3275 
Q 359 3922 746 4261 
Q 1134 4600 1788 4600 
Q 2447 4600 2831 4234 
Q 3216 3869 3216 3328 
Q 3216 3053 3103 2787 
Q 2991 2522 2730 2228 
Q 2469 1934 1863 1422 
Q 1356 997 1212 845 
Q 1069 694 975 541 
L 3222 541 
z
" transform="scale(0.015625)"/>
       </defs>
       <use xlink:href="#ArialMT-31"/>
       <use xlink:href="#ArialMT-32" x="55.615234"/>
       <use xlink:href="#ArialMT-36" x="111.230469"/>
      </g>
     </g>
    </g>
    <g id="xtick_7">
     <g id="text_7">
      <!-- 62 -->
      <g style="fill: #444444" transform="translate(463.133075 229.840141)scale(0.09 -0.09)">
       <use xlink:href="#ArialMT-36"/>
       <use xlink:href="#ArialMT-32" x="55.615234"/>
      </g>
     </g>
    </g>
    <g id="text_8">
     <!-- Patient -->
     <g style="fill: #444444" transform="translate(259.859048 242.070923)scale(0.09 -0.09)">
      <defs>
       <path id="ArialMT-50" d="M 494 0 
L 494 4581 
L 2222 4581 
Q 2678 4581 2919 4538 
Q 3256 4481 3484 4323 
Q 3713 4166 3852 3881 
Q 3991 3597 3991 3256 
Q 3991 2672 3619 2267 
Q 3247 1863 2275 1863 
L 1100 1863 
L 1100 0 
L 494 0 
z
M 1100 2403 
L 2284 2403 
Q 2872 2403 3119 2622 
Q 3366 2841 3366 3238 
Q 3366 3525 3220 3729 
Q 3075 3934 2838 4000 
Q 2684 4041 2272 4041 
L 1100 4041 
L 1100 2403 
z
" transform="scale(0.015625)"/>
       <path id="ArialMT-61" d="M 2588 409 
Q 2275 144 1986 34 
Q 1697 -75 1366 -75 
Q 819 -75 525 192 
Q 231 459 231 875 
Q 231 1119 342 1320 
Q 453 1522 633 1644 
Q 813 1766 1038 1828 
Q 1203 1872 1538 1913 
Q 2219 1994 2541 2106 
Q 2544 2222 2544 2253 
Q 2544 2597 2384 2738 
Q 2169 2928 1744 2928 
Q 1347 2928 1158 2789 
Q 969 2650 878 2297 
L 328 2372 
Q 403 2725 575 2942 
Q 747 3159 1072 3276 
Q 1397 3394 1825 3394 
Q 2250 3394 2515 3294 
Q 2781 3194 2906 3042 
Q 3031 2891 3081 2659 
Q 3109 2516 3109 2141 
L 3109 1391 
Q 3109 606 3145 398 
Q 3181 191 3288 0 
L 2700 0 
Q 2613 175 2588 409 
z
M 2541 1666 
Q 2234 1541 1622 1453 
Q 1275 1403 1131 1340 
Q 988 1278 909 1158 
Q 831 1038 831 891 
Q 831 666 1001 516 
Q 1172 366 1500 366 
Q 1825 366 2078 508 
Q 2331 650 2450 897 
Q 2541 1088 2541 1459 
L 2541 1666 
z
" transform="scale(0.015625)"/>
       <path id="ArialMT-74" d="M 1650 503 
L 1731 6 
Q 1494 -44 1306 -44 
Q 1000 -44 831 53 
Q 663 150 594 308 
Q 525 466 525 972 
L 525 2881 
L 113 2881 
L 113 3319 
L 525 3319 
L 525 4141 
L 1084 4478 
L 1084 3319 
L 1650 3319 
L 1650 2881 
L 1084 2881 
L 1084 941 
Q 1084 700 1114 631 
Q 1144 563 1211 522 
Q 1278 481 1403 481 
Q 1497 481 1650 503 
z
" transform="scale(0.015625)"/>
       <path id="ArialMT-69" d="M 425 3934 
L 425 4581 
L 988 4581 
L 988 3934 
L 425 3934 
z
M 425 0 
L 425 3319 
L 988 3319 
L 988 0 
L 425 0 
z
" transform="scale(0.015625)"/>
       <path id="ArialMT-65" d="M 2694 1069 
L 3275 997 
Q 3138 488 2766 206 
Q 2394 -75 1816 -75 
Q 1088 -75 661 373 
Q 234 822 234 1631 
Q 234 2469 665 2931 
Q 1097 3394 1784 3394 
Q 2450 3394 2872 2941 
Q 3294 2488 3294 1666 
Q 3294 1616 3291 1516 
L 816 1516 
Q 847 969 1125 678 
Q 1403 388 1819 388 
Q 2128 388 2347 550 
Q 2566 713 2694 1069 
z
M 847 1978 
L 2700 1978 
Q 2663 2397 2488 2606 
Q 2219 2931 1791 2931 
Q 1403 2931 1139 2672 
Q 875 2413 847 1978 
z
" transform="scale(0.015625)"/>
       <path id="ArialMT-6e" d="M 422 0 
L 422 3319 
L 928 3319 
L 928 2847 
Q 1294 3394 1984 3394 
Q 2284 3394 2536 3286 
Q 2788 3178 2913 3003 
Q 3038 2828 3088 2588 
Q 3119 2431 3119 2041 
L 3119 0 
L 2556 0 
L 2556 2019 
Q 2556 2363 2490 2533 
Q 2425 2703 2258 2804 
Q 2091 2906 1866 2906 
Q 1506 2906 1245 2678 
Q 984 2450 984 1813 
L 984 0 
L 422 0 
z
" transform="scale(0.015625)"/>
      </defs>
      <use xlink:href="#ArialMT-50"/>
      <use xlink:href="#ArialMT-61" x="66.699219"/>
      <use xlink:href="#ArialMT-74" x="122.314453"/>
      <use xlink:href="#ArialMT-69" x="150.097656"/>
      <use xlink:href="#ArialMT-65" x="172.314453"/>
      <use xlink:href="#ArialMT-6e" x="227.929688"/>
      <use xlink:href="#ArialMT-74" x="283.544922"/>
     </g>
    </g>
   </g>
   <g id="matplotlib.axis_2">
    <g id="ytick_1">
     <g id="text_9">
      <!-- 200 -->
      <g style="fill: #444444" transform="translate(22.705469 207.509457)scale(0.09 -0.09)">
       <defs>
        <path id="ArialMT-30" d="M 266 2259 
Q 266 3072 433 3567 
Q 600 4063 929 4331 
Q 1259 4600 1759 4600 
Q 2128 4600 2406 4451 
Q 2684 4303 2865 4023 
Q 3047 3744 3150 3342 
Q 3253 2941 3253 2259 
Q 3253 1453 3087 958 
Q 2922 463 2592 192 
Q 2263 -78 1759 -78 
Q 1097 -78 719 397 
Q 266 969 266 2259 
z
M 844 2259 
Q 844 1131 1108 757 
Q 1372 384 1759 384 
Q 2147 384 2411 759 
Q 2675 1134 2675 2259 
Q 2675 3391 2411 3762 
Q 2147 4134 1753 4134 
Q 1366 4134 1134 3806 
Q 844 3388 844 2259 
z
" transform="scale(0.015625)"/>
       </defs>
       <use xlink:href="#ArialMT-32"/>
       <use xlink:href="#ArialMT-30" x="55.615234"/>
       <use xlink:href="#ArialMT-30" x="111.230469"/>
      </g>
     </g>
    </g>
    <g id="ytick_2">
     <g id="text_10">
      <!-- 250 -->
      <g style="fill: #444444" transform="translate(22.705469 175.610454)scale(0.09 -0.09)">
       <use xlink:href="#ArialMT-32"/>
       <use xlink:href="#ArialMT-35" x="55.615234"/>
       <use xlink:href="#ArialMT-30" x="111.230469"/>
      </g>
     </g>
    </g>
    <g id="ytick_3">
     <g id="text_11">
      <!-- 300 -->
      <g style="fill: #444444" transform="translate(22.705469 143.711451)scale(0.09 -0.09)">
       <defs>
        <path id="ArialMT-33" d="M 269 1209 
L 831 1284 
Q 928 806 1161 595 
Q 1394 384 1728 384 
Q 2125 384 2398 659 
Q 2672 934 2672 1341 
Q 2672 1728 2419 1979 
Q 2166 2231 1775 2231 
Q 1616 2231 1378 2169 
L 1441 2663 
Q 1497 2656 1531 2656 
Q 1891 2656 2178 2843 
Q 2466 3031 2466 3422 
Q 2466 3731 2256 3934 
Q 2047 4138 1716 4138 
Q 1388 4138 1169 3931 
Q 950 3725 888 3313 
L 325 3413 
Q 428 3978 793 4289 
Q 1159 4600 1703 4600 
Q 2078 4600 2393 4439 
Q 2709 4278 2876 4000 
Q 3044 3722 3044 3409 
Q 3044 3113 2884 2869 
Q 2725 2625 2413 2481 
Q 2819 2388 3044 2092 
Q 3269 1797 3269 1353 
Q 3269 753 2831 336 
Q 2394 -81 1725 -81 
Q 1122 -81 723 278 
Q 325 638 269 1209 
z
" transform="scale(0.015625)"/>
       </defs>
       <use xlink:href="#ArialMT-33"/>
       <use xlink:href="#ArialMT-30" x="55.615234"/>
       <use xlink:href="#ArialMT-30" x="111.230469"/>
      </g>
     </g>
    </g>
    <g id="ytick_4">
     <g id="text_12">
      <!-- 350 -->
      <g style="fill: #444444" transform="translate(22.705469 111.812449)scale(0.09 -0.09)">
       <use xlink:href="#ArialMT-33"/>
       <use xlink:href="#ArialMT-35" x="55.615234"/>
       <use xlink:href="#ArialMT-30" x="111.230469"/>
      </g>
     </g>
    </g>
    <g id="ytick_5">
     <g id="text_13">
      <!-- 400 -->
      <g style="fill: #444444" transform="translate(22.705469 79.913446)scale(0.09 -0.09)">
       <use xlink:href="#ArialMT-34"/>
       <use xlink:href="#ArialMT-30" x="55.615234"/>
       <use xlink:href="#ArialMT-30" x="111.230469"/>
      </g>
     </g>
    </g>
    <g id="ytick_6">
     <g id="text_14">
      <!-- 450 -->
      <g style="fill: #444444" transform="translate(22.705469 48.014443)scale(0.09 -0.09)">
       <use xlink:href="#ArialMT-34"/>
       <use xlink:href="#ArialMT-35" x="55.615234"/>
       <use xlink:href="#ArialMT-30" x="111.230469"/>
      </g>
     </g>
    </g>
    <g id="text_15">
     <!-- Trimmed Means of M values (TMM) -->
     <g style="fill: #444444" transform="translate(16.81125 190.194993)rotate(-90)scale(0.09 -0.09)">
      <defs>
       <path id="ArialMT-54" d="M 1659 0 
L 1659 4041 
L 150 4041 
L 150 4581 
L 3781 4581 
L 3781 4041 
L 2266 4041 
L 2266 0 
L 1659 0 
z
" transform="scale(0.015625)"/>
       <path id="ArialMT-72" d="M 416 0 
L 416 3319 
L 922 3319 
L 922 2816 
Q 1116 3169 1280 3281 
Q 1444 3394 1641 3394 
Q 1925 3394 2219 3213 
L 2025 2691 
Q 1819 2813 1613 2813 
Q 1428 2813 1281 2702 
Q 1134 2591 1072 2394 
Q 978 2094 978 1738 
L 978 0 
L 416 0 
z
" transform="scale(0.015625)"/>
       <path id="ArialMT-6d" d="M 422 0 
L 422 3319 
L 925 3319 
L 925 2853 
Q 1081 3097 1340 3245 
Q 1600 3394 1931 3394 
Q 2300 3394 2536 3241 
Q 2772 3088 2869 2813 
Q 3263 3394 3894 3394 
Q 4388 3394 4653 3120 
Q 4919 2847 4919 2278 
L 4919 0 
L 4359 0 
L 4359 2091 
Q 4359 2428 4304 2576 
Q 4250 2725 4106 2815 
Q 3963 2906 3769 2906 
Q 3419 2906 3187 2673 
Q 2956 2441 2956 1928 
L 2956 0 
L 2394 0 
L 2394 2156 
Q 2394 2531 2256 2718 
Q 2119 2906 1806 2906 
Q 1569 2906 1367 2781 
Q 1166 2656 1075 2415 
Q 984 2175 984 1722 
L 984 0 
L 422 0 
z
" transform="scale(0.015625)"/>
       <path id="ArialMT-64" d="M 2575 0 
L 2575 419 
Q 2259 -75 1647 -75 
Q 1250 -75 917 144 
Q 584 363 401 755 
Q 219 1147 219 1656 
Q 219 2153 384 2558 
Q 550 2963 881 3178 
Q 1213 3394 1622 3394 
Q 1922 3394 2156 3267 
Q 2391 3141 2538 2938 
L 2538 4581 
L 3097 4581 
L 3097 0 
L 2575 0 
z
M 797 1656 
Q 797 1019 1065 703 
Q 1334 388 1700 388 
Q 2069 388 2326 689 
Q 2584 991 2584 1609 
Q 2584 2291 2321 2609 
Q 2059 2928 1675 2928 
Q 1300 2928 1048 2622 
Q 797 2316 797 1656 
z
" transform="scale(0.015625)"/>
       <path id="ArialMT-20" transform="scale(0.015625)"/>
       <path id="ArialMT-4d" d="M 475 0 
L 475 4581 
L 1388 4581 
L 2472 1338 
Q 2622 884 2691 659 
Q 2769 909 2934 1394 
L 4031 4581 
L 4847 4581 
L 4847 0 
L 4263 0 
L 4263 3834 
L 2931 0 
L 2384 0 
L 1059 3900 
L 1059 0 
L 475 0 
z
" transform="scale(0.015625)"/>
       <path id="ArialMT-73" d="M 197 991 
L 753 1078 
Q 800 744 1014 566 
Q 1228 388 1613 388 
Q 2000 388 2187 545 
Q 2375 703 2375 916 
Q 2375 1106 2209 1216 
Q 2094 1291 1634 1406 
Q 1016 1563 777 1677 
Q 538 1791 414 1992 
Q 291 2194 291 2438 
Q 291 2659 392 2848 
Q 494 3038 669 3163 
Q 800 3259 1026 3326 
Q 1253 3394 1513 3394 
Q 1903 3394 2198 3281 
Q 2494 3169 2634 2976 
Q 2775 2784 2828 2463 
L 2278 2388 
Q 2241 2644 2061 2787 
Q 1881 2931 1553 2931 
Q 1166 2931 1000 2803 
Q 834 2675 834 2503 
Q 834 2394 903 2306 
Q 972 2216 1119 2156 
Q 1203 2125 1616 2013 
Q 2213 1853 2448 1751 
Q 2684 1650 2818 1456 
Q 2953 1263 2953 975 
Q 2953 694 2789 445 
Q 2625 197 2315 61 
Q 2006 -75 1616 -75 
Q 969 -75 630 194 
Q 291 463 197 991 
z
" transform="scale(0.015625)"/>
       <path id="ArialMT-6f" d="M 213 1659 
Q 213 2581 725 3025 
Q 1153 3394 1769 3394 
Q 2453 3394 2887 2945 
Q 3322 2497 3322 1706 
Q 3322 1066 3130 698 
Q 2938 331 2570 128 
Q 2203 -75 1769 -75 
Q 1072 -75 642 372 
Q 213 819 213 1659 
z
M 791 1659 
Q 791 1022 1069 705 
Q 1347 388 1769 388 
Q 2188 388 2466 706 
Q 2744 1025 2744 1678 
Q 2744 2294 2464 2611 
Q 2184 2928 1769 2928 
Q 1347 2928 1069 2612 
Q 791 2297 791 1659 
z
" transform="scale(0.015625)"/>
       <path id="ArialMT-66" d="M 556 0 
L 556 2881 
L 59 2881 
L 59 3319 
L 556 3319 
L 556 3672 
Q 556 4006 616 4169 
Q 697 4388 901 4523 
Q 1106 4659 1475 4659 
Q 1713 4659 2000 4603 
L 1916 4113 
Q 1741 4144 1584 4144 
Q 1328 4144 1222 4034 
Q 1116 3925 1116 3625 
L 1116 3319 
L 1763 3319 
L 1763 2881 
L 1116 2881 
L 1116 0 
L 556 0 
z
" transform="scale(0.015625)"/>
       <path id="ArialMT-76" d="M 1344 0 
L 81 3319 
L 675 3319 
L 1388 1331 
Q 1503 1009 1600 663 
Q 1675 925 1809 1294 
L 2547 3319 
L 3125 3319 
L 1869 0 
L 1344 0 
z
" transform="scale(0.015625)"/>
       <path id="ArialMT-6c" d="M 409 0 
L 409 4581 
L 972 4581 
L 972 0 
L 409 0 
z
" transform="scale(0.015625)"/>
       <path id="ArialMT-75" d="M 2597 0 
L 2597 488 
Q 2209 -75 1544 -75 
Q 1250 -75 995 37 
Q 741 150 617 320 
Q 494 491 444 738 
Q 409 903 409 1263 
L 409 3319 
L 972 3319 
L 972 1478 
Q 972 1038 1006 884 
Q 1059 663 1231 536 
Q 1403 409 1656 409 
Q 1909 409 2131 539 
Q 2353 669 2445 892 
Q 2538 1116 2538 1541 
L 2538 3319 
L 3100 3319 
L 3100 0 
L 2597 0 
z
" transform="scale(0.015625)"/>
       <path id="ArialMT-28" d="M 1497 -1347 
Q 1031 -759 709 28 
Q 388 816 388 1659 
Q 388 2403 628 3084 
Q 909 3875 1497 4659 
L 1900 4659 
Q 1522 4009 1400 3731 
Q 1209 3300 1100 2831 
Q 966 2247 966 1656 
Q 966 153 1900 -1347 
L 1497 -1347 
z
" transform="scale(0.015625)"/>
       <path id="ArialMT-29" d="M 791 -1347 
L 388 -1347 
Q 1322 153 1322 1656 
Q 1322 2244 1188 2822 
Q 1081 3291 891 3722 
Q 769 4003 388 4659 
L 791 4659 
Q 1378 3875 1659 3084 
Q 1900 2403 1900 1659 
Q 1900 816 1576 28 
Q 1253 -759 791 -1347 
z
" transform="scale(0.015625)"/>
      </defs>
      <use xlink:href="#ArialMT-54"/>
      <use xlink:href="#ArialMT-72" x="57.333984"/>
      <use xlink:href="#ArialMT-69" x="90.634766"/>
      <use xlink:href="#ArialMT-6d" x="112.851562"/>
      <use xlink:href="#ArialMT-6d" x="196.152344"/>
      <use xlink:href="#ArialMT-65" x="279.453125"/>
      <use xlink:href="#ArialMT-64" x="335.068359"/>
      <use xlink:href="#ArialMT-20" x="390.683594"/>
      <use xlink:href="#ArialMT-4d" x="418.466797"/>
      <use xlink:href="#ArialMT-65" x="501.767578"/>
      <use xlink:href="#ArialMT-61" x="557.382812"/>
      <use xlink:href="#ArialMT-6e" x="612.998047"/>
      <use xlink:href="#ArialMT-73" x="668.613281"/>
      <use xlink:href="#ArialMT-20" x="718.613281"/>
      <use xlink:href="#ArialMT-6f" x="746.396484"/>
      <use xlink:href="#ArialMT-66" x="802.011719"/>
      <use xlink:href="#ArialMT-20" x="829.794922"/>
      <use xlink:href="#ArialMT-4d" x="857.578125"/>
      <use xlink:href="#ArialMT-20" x="940.878906"/>
      <use xlink:href="#ArialMT-76" x="968.662109"/>
      <use xlink:href="#ArialMT-61" x="1018.662109"/>
      <use xlink:href="#ArialMT-6c" x="1074.277344"/>
      <use xlink:href="#ArialMT-75" x="1096.494141"/>
      <use xlink:href="#ArialMT-65" x="1152.109375"/>
      <use xlink:href="#ArialMT-73" x="1207.724609"/>
      <use xlink:href="#ArialMT-20" x="1257.724609"/>
      <use xlink:href="#ArialMT-28" x="1285.507812"/>
      <use xlink:href="#ArialMT-54" x="1318.808594"/>
      <use xlink:href="#ArialMT-4d" x="1379.892578"/>
      <use xlink:href="#ArialMT-4d" x="1463.193359"/>
      <use xlink:href="#ArialMT-29" x="1546.494141"/>
     </g>
    </g>
   </g>
   <g id="PolyCollection_1">
    <defs>
     <path id="mb28ebe193b" d="M 86.682542 -150.820804 
L 72.514061 -150.820804 
L 72.337984 -151.541614 
L 72.166258 -152.262423 
L 71.99929 -152.983232 
L 71.837468 -153.704042 
L 71.681162 -154.424851 
L 71.530717 -155.14566 
L 71.386455 -155.866469 
L 71.248669 -156.587279 
L 71.117628 -157.308088 
L 70.993568 -158.028897 
L 70.876696 -158.749707 
L 70.767185 -159.470516 
L 70.665176 -160.191325 
L 70.570778 -160.912134 
L 70.484064 -161.632944 
L 70.405073 -162.353753 
L 70.333811 -163.074562 
L 70.27025 -163.795372 
L 70.214329 -164.516181 
L 70.165954 -165.23699 
L 70.125 -165.957799 
L 70.091312 -166.678609 
L 70.064708 -167.399418 
L 70.044976 -168.120227 
L 70.031882 -168.841037 
L 70.025166 -169.561846 
L 70.02455 -170.282655 
L 70.029734 -171.003464 
L 70.040403 -171.724274 
L 70.056229 -172.445083 
L 70.07687 -173.165892 
L 70.101977 -173.886701 
L 70.131192 -174.607511 
L 70.164155 -175.32832 
L 70.200504 -176.049129 
L 70.239876 -176.769939 
L 70.281913 -177.490748 
L 70.326262 -178.211557 
L 70.372578 -178.932366 
L 70.420523 -179.653176 
L 70.469776 -180.373985 
L 70.520024 -181.094794 
L 70.570973 -181.815604 
L 70.622343 -182.536413 
L 70.673876 -183.257222 
L 70.725329 -183.978031 
L 70.776482 -184.698841 
L 70.827137 -185.41965 
L 70.877116 -186.140459 
L 70.926265 -186.861269 
L 70.974455 -187.582078 
L 71.021576 -188.302887 
L 71.067546 -189.023696 
L 71.112304 -189.744506 
L 71.155813 -190.465315 
L 71.19806 -191.186124 
L 71.239055 -191.906934 
L 71.278827 -192.627743 
L 71.317431 -193.348552 
L 71.35494 -194.069361 
L 71.391447 -194.790171 
L 71.427065 -195.51098 
L 71.461924 -196.231789 
L 71.496172 -196.952599 
L 71.529972 -197.673408 
L 71.5635 -198.394217 
L 71.596948 -199.115026 
L 71.630515 -199.835836 
L 71.664415 -200.556645 
L 71.698868 -201.277454 
L 71.734099 -201.998263 
L 71.770342 -202.719073 
L 71.807833 -203.439882 
L 71.846809 -204.160691 
L 71.887508 -204.881501 
L 71.930166 -205.60231 
L 71.975016 -206.323119 
L 72.022286 -207.043928 
L 72.072197 -207.764738 
L 72.124961 -208.485547 
L 72.18078 -209.206356 
L 72.239842 -209.927166 
L 72.302326 -210.647975 
L 72.36839 -211.368784 
L 72.43818 -212.089593 
L 72.511822 -212.810403 
L 72.589423 -213.531212 
L 72.671069 -214.252021 
L 72.756827 -214.972831 
L 72.846738 -215.69364 
L 72.940823 -216.414449 
L 73.039079 -217.135258 
L 73.141478 -217.856068 
L 73.247969 -218.576877 
L 73.358478 -219.297686 
L 73.472904 -220.018496 
L 73.591126 -220.739305 
L 73.712998 -221.460114 
L 73.838354 -222.180923 
L 85.358249 -222.180923 
L 85.358249 -222.180923 
L 85.483604 -221.460114 
L 85.605477 -220.739305 
L 85.723699 -220.018496 
L 85.838125 -219.297686 
L 85.948633 -218.576877 
L 86.055125 -217.856068 
L 86.157524 -217.135258 
L 86.25578 -216.414449 
L 86.349865 -215.69364 
L 86.439776 -214.972831 
L 86.525533 -214.252021 
L 86.60718 -213.531212 
L 86.684781 -212.810403 
L 86.758423 -212.089593 
L 86.828213 -211.368784 
L 86.894277 -210.647975 
L 86.956761 -209.927166 
L 87.015823 -209.206356 
L 87.071642 -208.485547 
L 87.124405 -207.764738 
L 87.174316 -207.043928 
L 87.221587 -206.323119 
L 87.266437 -205.60231 
L 87.309095 -204.881501 
L 87.349794 -204.160691 
L 87.38877 -203.439882 
L 87.426261 -202.719073 
L 87.462504 -201.998263 
L 87.497735 -201.277454 
L 87.532188 -200.556645 
L 87.566087 -199.835836 
L 87.599655 -199.115026 
L 87.633103 -198.394217 
L 87.666631 -197.673408 
L 87.700431 -196.952599 
L 87.734679 -196.231789 
L 87.769538 -195.51098 
L 87.805156 -194.790171 
L 87.841663 -194.069361 
L 87.879172 -193.348552 
L 87.917776 -192.627743 
L 87.957548 -191.906934 
L 87.998542 -191.186124 
L 88.04079 -190.465315 
L 88.084299 -189.744506 
L 88.129057 -189.023696 
L 88.175027 -188.302887 
L 88.222148 -187.582078 
L 88.270338 -186.861269 
L 88.319487 -186.140459 
L 88.369466 -185.41965 
L 88.420121 -184.698841 
L 88.471274 -183.978031 
L 88.522727 -183.257222 
L 88.57426 -182.536413 
L 88.62563 -181.815604 
L 88.676579 -181.094794 
L 88.726827 -180.373985 
L 88.776079 -179.653176 
L 88.824025 -178.932366 
L 88.870341 -178.211557 
L 88.91469 -177.490748 
L 88.956727 -176.769939 
L 88.996099 -176.049129 
L 89.032448 -175.32832 
L 89.065411 -174.607511 
L 89.094626 -173.886701 
L 89.119733 -173.165892 
L 89.140374 -172.445083 
L 89.1562 -171.724274 
L 89.166869 -171.003464 
L 89.172053 -170.282655 
L 89.171437 -169.561846 
L 89.164721 -168.841037 
L 89.151627 -168.120227 
L 89.131895 -167.399418 
L 89.105291 -166.678609 
L 89.071603 -165.957799 
L 89.030649 -165.23699 
L 88.982274 -164.516181 
L 88.926353 -163.795372 
L 88.862792 -163.074562 
L 88.79153 -162.353753 
L 88.712539 -161.632944 
L 88.625825 -160.912134 
L 88.531426 -160.191325 
L 88.429418 -159.470516 
L 88.319907 -158.749707 
L 88.203035 -158.028897 
L 88.078975 -157.308088 
L 87.947934 -156.587279 
L 87.810148 -155.866469 
L 87.665886 -155.14566 
L 87.515441 -154.424851 
L 87.359134 -153.704042 
L 87.197313 -152.983232 
L 87.030345 -152.262423 
L 86.858619 -151.541614 
L 86.682542 -150.820804 
z
" style="stroke: #999999; stroke-width: 2"/>
    </defs>
    <g clip-path="url(#p53745038fa)">
     <use xlink:href="#mb28ebe193b" x="0" y="255.11811" style="fill: #ffffff; stroke: #999999; stroke-width: 2"/>
    </g>
   </g>
   <g id="PolyCollection_2">
    <defs>
     <path id="m40eda438cc" d="M 147.907631 -59.664256 
L 140.802178 -59.664256 
L 140.770671 -60.217595 
L 140.742444 -60.770935 
L 140.717182 -61.324274 
L 140.694521 -61.877614 
L 140.674047 -62.430954 
L 140.655303 -62.984293 
L 140.637789 -63.537633 
L 140.620964 -64.090973 
L 140.604256 -64.644312 
L 140.587059 -65.197652 
L 140.568742 -65.750991 
L 140.548654 -66.304331 
L 140.526128 -66.857671 
L 140.500487 -67.41101 
L 140.471049 -67.96435 
L 140.437135 -68.51769 
L 140.398072 -69.071029 
L 140.353204 -69.624369 
L 140.301888 -70.177708 
L 140.243512 -70.731048 
L 140.177491 -71.284388 
L 140.103275 -71.837727 
L 140.020355 -72.391067 
L 139.928269 -72.944407 
L 139.826599 -73.497746 
L 139.714983 -74.051086 
L 139.593115 -74.604425 
L 139.460743 -75.157765 
L 139.31768 -75.711105 
L 139.163798 -76.264444 
L 138.999033 -76.817784 
L 138.823383 -77.371124 
L 138.636911 -77.924463 
L 138.439741 -78.477803 
L 138.232059 -79.031142 
L 138.014111 -79.584482 
L 137.786201 -80.137822 
L 137.548685 -80.691161 
L 137.301976 -81.244501 
L 137.046533 -81.797841 
L 136.78286 -82.35118 
L 136.511505 -82.90452 
L 136.23305 -83.457859 
L 135.948114 -84.011199 
L 135.657343 -84.564539 
L 135.361409 -85.117878 
L 135.061004 -85.671218 
L 134.756838 -86.224558 
L 134.449634 -86.777897 
L 134.140121 -87.331237 
L 133.829038 -87.884576 
L 133.517123 -88.437916 
L 133.205114 -88.991256 
L 132.893747 -89.544595 
L 132.583751 -90.097935 
L 132.275848 -90.651275 
L 131.970752 -91.204614 
L 131.669166 -91.757954 
L 131.371781 -92.311293 
L 131.079278 -92.864633 
L 130.792328 -93.417973 
L 130.511586 -93.971312 
L 130.237701 -94.524652 
L 129.971307 -95.077992 
L 129.713032 -95.631331 
L 129.463493 -96.184671 
L 129.223298 -96.73801 
L 128.99305 -97.29135 
L 128.773342 -97.84469 
L 128.564762 -98.398029 
L 128.367894 -98.951369 
L 128.183312 -99.504709 
L 128.011586 -100.058048 
L 127.853279 -100.611388 
L 127.708944 -101.164727 
L 127.579127 -101.718067 
L 127.46436 -102.271407 
L 127.365162 -102.824746 
L 127.282035 -103.378086 
L 127.21546 -103.931426 
L 127.165895 -104.484765 
L 127.133771 -105.038105 
L 127.119486 -105.591444 
L 127.1234 -106.144784 
L 127.145834 -106.698124 
L 127.187059 -107.251463 
L 127.247299 -107.804803 
L 127.326718 -108.358143 
L 127.425421 -108.911482 
L 127.543449 -109.464822 
L 127.68077 -110.018161 
L 127.837282 -110.571501 
L 128.012807 -111.124841 
L 128.207085 -111.67818 
L 128.419779 -112.23152 
L 128.650468 -112.78486 
L 128.898651 -113.338199 
L 129.163742 -113.891539 
L 129.445079 -114.444878 
L 159.26473 -114.444878 
L 159.26473 -114.444878 
L 159.546066 -113.891539 
L 159.811158 -113.338199 
L 160.05934 -112.78486 
L 160.29003 -112.23152 
L 160.502724 -111.67818 
L 160.697002 -111.124841 
L 160.872526 -110.571501 
L 161.029039 -110.018161 
L 161.16636 -109.464822 
L 161.284388 -108.911482 
L 161.383091 -108.358143 
L 161.46251 -107.804803 
L 161.52275 -107.251463 
L 161.563975 -106.698124 
L 161.586409 -106.144784 
L 161.590323 -105.591444 
L 161.576037 -105.038105 
L 161.543913 -104.484765 
L 161.494349 -103.931426 
L 161.427774 -103.378086 
L 161.344647 -102.824746 
L 161.245449 -102.271407 
L 161.130681 -101.718067 
L 161.000864 -101.164727 
L 160.85653 -100.611388 
L 160.698223 -100.058048 
L 160.526497 -99.504709 
L 160.341915 -98.951369 
L 160.145046 -98.398029 
L 159.936467 -97.84469 
L 159.716759 -97.29135 
L 159.48651 -96.73801 
L 159.246316 -96.184671 
L 158.996776 -95.631331 
L 158.738501 -95.077992 
L 158.472108 -94.524652 
L 158.198223 -93.971312 
L 157.917481 -93.417973 
L 157.63053 -92.864633 
L 157.338028 -92.311293 
L 157.040643 -91.757954 
L 156.739057 -91.204614 
L 156.433961 -90.651275 
L 156.126058 -90.097935 
L 155.816062 -89.544595 
L 155.504695 -88.991256 
L 155.192686 -88.437916 
L 154.880771 -87.884576 
L 154.569688 -87.331237 
L 154.260175 -86.777897 
L 153.95297 -86.224558 
L 153.648805 -85.671218 
L 153.3484 -85.117878 
L 153.052466 -84.564539 
L 152.761695 -84.011199 
L 152.476759 -83.457859 
L 152.198304 -82.90452 
L 151.926948 -82.35118 
L 151.663276 -81.797841 
L 151.407832 -81.244501 
L 151.161123 -80.691161 
L 150.923608 -80.137822 
L 150.695697 -79.584482 
L 150.477749 -79.031142 
L 150.270068 -78.477803 
L 150.072898 -77.924463 
L 149.886426 -77.371124 
L 149.710776 -76.817784 
L 149.546011 -76.264444 
L 149.392129 -75.711105 
L 149.249066 -75.157765 
L 149.116694 -74.604425 
L 148.994825 -74.051086 
L 148.88321 -73.497746 
L 148.78154 -72.944407 
L 148.689453 -72.391067 
L 148.606534 -71.837727 
L 148.532318 -71.284388 
L 148.466297 -70.731048 
L 148.40792 -70.177708 
L 148.356605 -69.624369 
L 148.311736 -69.071029 
L 148.272674 -68.51769 
L 148.23876 -67.96435 
L 148.209322 -67.41101 
L 148.183681 -66.857671 
L 148.161154 -66.304331 
L 148.141067 -65.750991 
L 148.12275 -65.197652 
L 148.105553 -64.644312 
L 148.088844 -64.090973 
L 148.07202 -63.537633 
L 148.054505 -62.984293 
L 148.035761 -62.430954 
L 148.015288 -61.877614 
L 147.992626 -61.324274 
L 147.967365 -60.770935 
L 147.939138 -60.217595 
L 147.907631 -59.664256 
z
" style="stroke: #999999; stroke-width: 2"/>
    </defs>
    <g clip-path="url(#p53745038fa)">
     <use xlink:href="#m40eda438cc" x="0" y="255.11811" style="fill: #ffffff; stroke: #999999; stroke-width: 2"/>
    </g>
   </g>
   <g id="PolyCollection_3">
    <defs>
     <path id="mdb93b54a8d" d="M 213.845674 -83.393811 
L 204.377341 -83.393811 
L 204.363219 -83.803361 
L 204.356867 -84.21291 
L 204.357873 -84.622459 
L 204.365729 -85.032008 
L 204.37983 -85.441557 
L 204.399483 -85.851107 
L 204.423901 -86.260656 
L 204.452213 -86.670205 
L 204.483467 -87.079754 
L 204.516634 -87.489303 
L 204.550616 -87.898853 
L 204.584254 -88.308402 
L 204.61633 -88.717951 
L 204.645583 -89.1275 
L 204.670712 -89.53705 
L 204.690386 -89.946599 
L 204.703258 -90.356148 
L 204.707967 -90.765697 
L 204.703156 -91.175246 
L 204.687477 -91.584796 
L 204.659603 -91.994345 
L 204.61824 -92.403894 
L 204.562135 -92.813443 
L 204.490086 -93.222992 
L 204.400955 -93.632542 
L 204.293673 -94.042091 
L 204.167254 -94.45164 
L 204.0208 -94.861189 
L 203.853513 -95.270738 
L 203.664699 -95.680288 
L 203.453779 -96.089837 
L 203.22029 -96.499386 
L 202.963898 -96.908935 
L 202.684395 -97.318484 
L 202.38171 -97.728034 
L 202.055907 -98.137583 
L 201.707189 -98.547132 
L 201.335898 -98.956681 
L 200.942518 -99.366231 
L 200.527669 -99.77578 
L 200.092108 -100.185329 
L 199.636725 -100.594878 
L 199.162541 -101.004427 
L 198.670697 -101.413977 
L 198.162455 -101.823526 
L 197.639185 -102.233075 
L 197.102359 -102.642624 
L 196.553545 -103.052173 
L 195.994392 -103.461723 
L 195.426625 -103.871272 
L 194.852033 -104.280821 
L 194.272457 -104.69037 
L 193.689781 -105.099919 
L 193.10592 -105.509469 
L 192.522809 -105.919018 
L 191.942392 -106.328567 
L 191.366612 -106.738116 
L 190.797401 -107.147665 
L 190.236671 -107.557215 
L 189.686303 -107.966764 
L 189.148138 -108.376313 
L 188.623973 -108.785862 
L 188.115551 -109.195412 
L 187.624556 -109.604961 
L 187.152606 -110.01451 
L 186.70125 -110.424059 
L 186.271963 -110.833608 
L 185.866142 -111.243158 
L 185.485104 -111.652707 
L 185.130086 -112.062256 
L 184.802237 -112.471805 
L 184.502625 -112.881354 
L 184.232226 -113.290904 
L 183.991933 -113.700453 
L 183.782549 -114.110002 
L 183.604785 -114.519551 
L 183.459266 -114.9291 
L 183.346522 -115.33865 
L 183.266993 -115.748199 
L 183.221024 -116.157748 
L 183.208866 -116.567297 
L 183.230672 -116.976846 
L 183.286495 -117.386396 
L 183.376291 -117.795945 
L 183.49991 -118.205494 
L 183.657099 -118.615043 
L 183.847496 -119.024592 
L 184.070633 -119.434142 
L 184.325931 -119.843691 
L 184.612701 -120.25324 
L 184.93014 -120.662789 
L 185.277336 -121.072339 
L 185.653266 -121.481888 
L 186.056796 -121.891437 
L 186.486687 -122.300986 
L 186.941596 -122.710535 
L 187.420081 -123.120085 
L 187.920605 -123.529634 
L 188.441546 -123.939183 
L 229.781468 -123.939183 
L 229.781468 -123.939183 
L 230.30241 -123.529634 
L 230.802934 -123.120085 
L 231.281419 -122.710535 
L 231.736327 -122.300986 
L 232.166218 -121.891437 
L 232.569749 -121.481888 
L 232.945678 -121.072339 
L 233.292875 -120.662789 
L 233.610314 -120.25324 
L 233.897084 -119.843691 
L 234.152382 -119.434142 
L 234.375519 -119.024592 
L 234.565916 -118.615043 
L 234.723104 -118.205494 
L 234.846723 -117.795945 
L 234.936519 -117.386396 
L 234.992343 -116.976846 
L 235.014148 -116.567297 
L 235.00199 -116.157748 
L 234.956022 -115.748199 
L 234.876493 -115.33865 
L 234.763749 -114.9291 
L 234.618229 -114.519551 
L 234.440466 -114.110002 
L 234.231081 -113.700453 
L 233.990788 -113.290904 
L 233.72039 -112.881354 
L 233.420777 -112.471805 
L 233.092929 -112.062256 
L 232.73791 -111.652707 
L 232.356873 -111.243158 
L 231.951052 -110.833608 
L 231.521764 -110.424059 
L 231.070408 -110.01451 
L 230.598458 -109.604961 
L 230.107463 -109.195412 
L 229.599042 -108.785862 
L 229.074877 -108.376313 
L 228.536712 -107.966764 
L 227.986343 -107.557215 
L 227.425613 -107.147665 
L 226.856403 -106.738116 
L 226.280623 -106.328567 
L 225.700206 -105.919018 
L 225.117095 -105.509469 
L 224.533233 -105.099919 
L 223.950557 -104.69037 
L 223.370982 -104.280821 
L 222.796389 -103.871272 
L 222.228623 -103.461723 
L 221.66947 -103.052173 
L 221.120655 -102.642624 
L 220.58383 -102.233075 
L 220.060559 -101.823526 
L 219.552317 -101.413977 
L 219.060474 -101.004427 
L 218.58629 -100.594878 
L 218.130907 -100.185329 
L 217.695346 -99.77578 
L 217.280497 -99.366231 
L 216.887116 -98.956681 
L 216.515826 -98.547132 
L 216.167108 -98.137583 
L 215.841305 -97.728034 
L 215.53862 -97.318484 
L 215.259117 -96.908935 
L 215.002725 -96.499386 
L 214.769236 -96.089837 
L 214.558315 -95.680288 
L 214.369501 -95.270738 
L 214.202214 -94.861189 
L 214.055761 -94.45164 
L 213.929342 -94.042091 
L 213.82206 -93.632542 
L 213.732928 -93.222992 
L 213.66088 -92.813443 
L 213.604774 -92.403894 
L 213.563412 -91.994345 
L 213.535538 -91.584796 
L 213.519859 -91.175246 
L 213.515048 -90.765697 
L 213.519757 -90.356148 
L 213.532628 -89.946599 
L 213.552303 -89.53705 
L 213.577432 -89.1275 
L 213.606685 -88.717951 
L 213.638761 -88.308402 
L 213.672398 -87.898853 
L 213.706381 -87.489303 
L 213.739548 -87.079754 
L 213.770802 -86.670205 
L 213.799114 -86.260656 
L 213.823532 -85.851107 
L 213.843184 -85.441557 
L 213.857286 -85.032008 
L 213.865141 -84.622459 
L 213.866148 -84.21291 
L 213.859796 -83.803361 
L 213.845674 -83.393811 
z
" style="stroke: #999999; stroke-width: 2"/>
    </defs>
    <g clip-path="url(#p53745038fa)">
     <use xlink:href="#mdb93b54a8d" x="0" y="255.11811" style="fill: #ffffff; stroke: #999999; stroke-width: 2"/>
    </g>
   </g>
   <g id="PolyCollection_4">
    <defs>
     <path id="m9e01da965e" d="M 279.229626 -90.923484 
L 268.506594 -90.923484 
L 268.445803 -92.021147 
L 268.390564 -93.118811 
L 268.340994 -94.216475 
L 268.297187 -95.314139 
L 268.259211 -96.411803 
L 268.22711 -97.509467 
L 268.200901 -98.60713 
L 268.180575 -99.704794 
L 268.166099 -100.802458 
L 268.157413 -101.900122 
L 268.154432 -102.997786 
L 268.157046 -104.09545 
L 268.165121 -105.193113 
L 268.1785 -106.290777 
L 268.197004 -107.388441 
L 268.220431 -108.486105 
L 268.24856 -109.583769 
L 268.281152 -110.681433 
L 268.317949 -111.779096 
L 268.358679 -112.87676 
L 268.403055 -113.974424 
L 268.450777 -115.072088 
L 268.501534 -116.169752 
L 268.555007 -117.267416 
L 268.610869 -118.36508 
L 268.668788 -119.462743 
L 268.728427 -120.560407 
L 268.789449 -121.658071 
L 268.851516 -122.755735 
L 268.914292 -123.853399 
L 268.977444 -124.951063 
L 269.040644 -126.048726 
L 269.10357 -127.14639 
L 269.16591 -128.244054 
L 269.227361 -129.341718 
L 269.28763 -130.439382 
L 269.346438 -131.537046 
L 269.403518 -132.634709 
L 269.458619 -133.732373 
L 269.511505 -134.830037 
L 269.561957 -135.927701 
L 269.609774 -137.025365 
L 269.654773 -138.123029 
L 269.69679 -139.220692 
L 269.735681 -140.318356 
L 269.771321 -141.41602 
L 269.803607 -142.513684 
L 269.832456 -143.611348 
L 269.857804 -144.709012 
L 269.879612 -145.806675 
L 269.897858 -146.904339 
L 269.912544 -148.002003 
L 269.92369 -149.099667 
L 269.931339 -150.197331 
L 269.935553 -151.294995 
L 269.936412 -152.392659 
L 269.934019 -153.490322 
L 269.928491 -154.587986 
L 269.919967 -155.68565 
L 269.908601 -156.783314 
L 269.894564 -157.880978 
L 269.878041 -158.978642 
L 269.859234 -160.076305 
L 269.838356 -161.173969 
L 269.815634 -162.271633 
L 269.791306 -163.369297 
L 269.765619 -164.466961 
L 269.73883 -165.564625 
L 269.711203 -166.662288 
L 269.683007 -167.759952 
L 269.654516 -168.857616 
L 269.626009 -169.95528 
L 269.597766 -171.052944 
L 269.570065 -172.150608 
L 269.543185 -173.248271 
L 269.517403 -174.345935 
L 269.49299 -175.443599 
L 269.470212 -176.541263 
L 269.44933 -177.638927 
L 269.430592 -178.736591 
L 269.414241 -179.834254 
L 269.400507 -180.931918 
L 269.389606 -182.029582 
L 269.381742 -183.127246 
L 269.377106 -184.22491 
L 269.375869 -185.322574 
L 269.37819 -186.420238 
L 269.384207 -187.517901 
L 269.394041 -188.615565 
L 269.407795 -189.713229 
L 269.425553 -190.810893 
L 269.447376 -191.908557 
L 269.473308 -193.006221 
L 269.503373 -194.103884 
L 269.537574 -195.201548 
L 269.575894 -196.299212 
L 269.618296 -197.396876 
L 269.664725 -198.49454 
L 269.715106 -199.592204 
L 278.021114 -199.592204 
L 278.021114 -199.592204 
L 278.071495 -198.49454 
L 278.117924 -197.396876 
L 278.160326 -196.299212 
L 278.198646 -195.201548 
L 278.232847 -194.103884 
L 278.262912 -193.006221 
L 278.288845 -191.908557 
L 278.310668 -190.810893 
L 278.328425 -189.713229 
L 278.342179 -188.615565 
L 278.352014 -187.517901 
L 278.358031 -186.420238 
L 278.360351 -185.322574 
L 278.359115 -184.22491 
L 278.354478 -183.127246 
L 278.346615 -182.029582 
L 278.335714 -180.931918 
L 278.321979 -179.834254 
L 278.305628 -178.736591 
L 278.286891 -177.638927 
L 278.266008 -176.541263 
L 278.243231 -175.443599 
L 278.218818 -174.345935 
L 278.193036 -173.248271 
L 278.166156 -172.150608 
L 278.138455 -171.052944 
L 278.110211 -169.95528 
L 278.081704 -168.857616 
L 278.053214 -167.759952 
L 278.025018 -166.662288 
L 277.99739 -165.564625 
L 277.970601 -164.466961 
L 277.944914 -163.369297 
L 277.920586 -162.271633 
L 277.897865 -161.173969 
L 277.876987 -160.076305 
L 277.85818 -158.978642 
L 277.841657 -157.880978 
L 277.827619 -156.783314 
L 277.816253 -155.68565 
L 277.807729 -154.587986 
L 277.802202 -153.490322 
L 277.799808 -152.392659 
L 277.800668 -151.294995 
L 277.804881 -150.197331 
L 277.81253 -149.099667 
L 277.823676 -148.002003 
L 277.838362 -146.904339 
L 277.856609 -145.806675 
L 277.878416 -144.709012 
L 277.903765 -143.611348 
L 277.932613 -142.513684 
L 277.964899 -141.41602 
L 278.00054 -140.318356 
L 278.03943 -139.220692 
L 278.081448 -138.123029 
L 278.126447 -137.025365 
L 278.174264 -135.927701 
L 278.224716 -134.830037 
L 278.277602 -133.732373 
L 278.332703 -132.634709 
L 278.389783 -131.537046 
L 278.44859 -130.439382 
L 278.508859 -129.341718 
L 278.57031 -128.244054 
L 278.63265 -127.14639 
L 278.695577 -126.048726 
L 278.758777 -124.951063 
L 278.821928 -123.853399 
L 278.884704 -122.755735 
L 278.946771 -121.658071 
L 279.007793 -120.560407 
L 279.067433 -119.462743 
L 279.125352 -118.36508 
L 279.181213 -117.267416 
L 279.234686 -116.169752 
L 279.285444 -115.072088 
L 279.333165 -113.974424 
L 279.377541 -112.87676 
L 279.418271 -111.779096 
L 279.455069 -110.681433 
L 279.487661 -109.583769 
L 279.51579 -108.486105 
L 279.539217 -107.388441 
L 279.55772 -106.290777 
L 279.571099 -105.193113 
L 279.579175 -104.09545 
L 279.581789 -102.997786 
L 279.578807 -101.900122 
L 279.570121 -100.802458 
L 279.555645 -99.704794 
L 279.53532 -98.60713 
L 279.509111 -97.509467 
L 279.477009 -96.411803 
L 279.439033 -95.314139 
L 279.395226 -94.216475 
L 279.345657 -93.118811 
L 279.290417 -92.021147 
L 279.229626 -90.923484 
z
" style="stroke: #999999; stroke-width: 2"/>
    </defs>
    <g clip-path="url(#p53745038fa)">
     <use xlink:href="#m9e01da965e" x="0" y="255.11811" style="fill: #ffffff; stroke: #999999; stroke-width: 2"/>
    </g>
   </g>
   <g id="PolyCollection_5">
    <defs>
     <path id="m781b67e5e2" d="M 356.147225 -49.837187 
L 321.102202 -49.837187 
L 320.848497 -50.348039 
L 320.615428 -50.858892 
L 320.403888 -51.369744 
L 320.214691 -51.880597 
L 320.048572 -52.391449 
L 319.906175 -52.902302 
L 319.788054 -53.413154 
L 319.694667 -53.924007 
L 319.626373 -54.434859 
L 319.583429 -54.945712 
L 319.565988 -55.456564 
L 319.574099 -55.967417 
L 319.607705 -56.478269 
L 319.666643 -56.989122 
L 319.750647 -57.499974 
L 319.859347 -58.010827 
L 319.992271 -58.521679 
L 320.14885 -59.032532 
L 320.328419 -59.543384 
L 320.530223 -60.054237 
L 320.753421 -60.565089 
L 320.997089 -61.075942 
L 321.260229 -61.586794 
L 321.541771 -62.097647 
L 321.840583 -62.608499 
L 322.155477 -63.119352 
L 322.485214 -63.630204 
L 322.828512 -64.141057 
L 323.184053 -64.651909 
L 323.550493 -65.162762 
L 323.926465 -65.673614 
L 324.310591 -66.184467 
L 324.701485 -66.695319 
L 325.097763 -67.206171 
L 325.498051 -67.717024 
L 325.900988 -68.227876 
L 326.305235 -68.738729 
L 326.709482 -69.249581 
L 327.112452 -69.760434 
L 327.51291 -70.271286 
L 327.909662 -70.782139 
L 328.301566 -71.292991 
L 328.687534 -71.803844 
L 329.066533 -72.314696 
L 329.437595 -72.825549 
L 329.799814 -73.336401 
L 330.152351 -73.847254 
L 330.494436 -74.358106 
L 330.825368 -74.868959 
L 331.144521 -75.379811 
L 331.451337 -75.890664 
L 331.745334 -76.401516 
L 332.026102 -76.912369 
L 332.293302 -77.423221 
L 332.546667 -77.934074 
L 332.786001 -78.444926 
L 333.011177 -78.955779 
L 333.222134 -79.466631 
L 333.418878 -79.977484 
L 333.601475 -80.488336 
L 333.770056 -80.999189 
L 333.924806 -81.510041 
L 334.065968 -82.020894 
L 334.193835 -82.531746 
L 334.30875 -83.042599 
L 334.411103 -83.553451 
L 334.501326 -84.064304 
L 334.579889 -84.575156 
L 334.6473 -85.086009 
L 334.704098 -85.596861 
L 334.75085 -86.107714 
L 334.78815 -86.618566 
L 334.816614 -87.129419 
L 334.836875 -87.640271 
L 334.849581 -88.151124 
L 334.855391 -88.661976 
L 334.854972 -89.172829 
L 334.848997 -89.683681 
L 334.838137 -90.194534 
L 334.823063 -90.705386 
L 334.804441 -91.216239 
L 334.782925 -91.727091 
L 334.759162 -92.237943 
L 334.733782 -92.748796 
L 334.707399 -93.259648 
L 334.680606 -93.770501 
L 334.653975 -94.281353 
L 334.628053 -94.792206 
L 334.603361 -95.303058 
L 334.58039 -95.813911 
L 334.559601 -96.324763 
L 334.541425 -96.835616 
L 334.526257 -97.346468 
L 334.514459 -97.857321 
L 334.506355 -98.368173 
L 334.502236 -98.879026 
L 334.502355 -99.389878 
L 334.506926 -99.900731 
L 334.516127 -100.411583 
L 342.733299 -100.411583 
L 342.733299 -100.411583 
L 342.742501 -99.900731 
L 342.747072 -99.389878 
L 342.74719 -98.879026 
L 342.743071 -98.368173 
L 342.734968 -97.857321 
L 342.723169 -97.346468 
L 342.708001 -96.835616 
L 342.689825 -96.324763 
L 342.669037 -95.813911 
L 342.646066 -95.303058 
L 342.621373 -94.792206 
L 342.595451 -94.281353 
L 342.56882 -93.770501 
L 342.542027 -93.259648 
L 342.515644 -92.748796 
L 342.490264 -92.237943 
L 342.466501 -91.727091 
L 342.444986 -91.216239 
L 342.426363 -90.705386 
L 342.411289 -90.194534 
L 342.400429 -89.683681 
L 342.394454 -89.172829 
L 342.394036 -88.661976 
L 342.399846 -88.151124 
L 342.412551 -87.640271 
L 342.432812 -87.129419 
L 342.461276 -86.618566 
L 342.498576 -86.107714 
L 342.545329 -85.596861 
L 342.602126 -85.086009 
L 342.669537 -84.575156 
L 342.7481 -84.064304 
L 342.838323 -83.553451 
L 342.940676 -83.042599 
L 343.055592 -82.531746 
L 343.183459 -82.020894 
L 343.32462 -81.510041 
L 343.47937 -80.999189 
L 343.647951 -80.488336 
L 343.830549 -79.977484 
L 344.027292 -79.466631 
L 344.238249 -78.955779 
L 344.463425 -78.444926 
L 344.702759 -77.934074 
L 344.956125 -77.423221 
L 345.223325 -76.912369 
L 345.504092 -76.401516 
L 345.798089 -75.890664 
L 346.104906 -75.379811 
L 346.424058 -74.868959 
L 346.75499 -74.358106 
L 347.097075 -73.847254 
L 347.449612 -73.336401 
L 347.811831 -72.825549 
L 348.182893 -72.314696 
L 348.561893 -71.803844 
L 348.94786 -71.292991 
L 349.339764 -70.782139 
L 349.736517 -70.271286 
L 350.136974 -69.760434 
L 350.539945 -69.249581 
L 350.944192 -68.738729 
L 351.348439 -68.227876 
L 351.751375 -67.717024 
L 352.151663 -67.206171 
L 352.547941 -66.695319 
L 352.938835 -66.184467 
L 353.322961 -65.673614 
L 353.698933 -65.162762 
L 354.065373 -64.651909 
L 354.420915 -64.141057 
L 354.764212 -63.630204 
L 355.093949 -63.119352 
L 355.408843 -62.608499 
L 355.707656 -62.097647 
L 355.989198 -61.586794 
L 356.252337 -61.075942 
L 356.496005 -60.565089 
L 356.719203 -60.054237 
L 356.921007 -59.543384 
L 357.100577 -59.032532 
L 357.257155 -58.521679 
L 357.39008 -58.010827 
L 357.498779 -57.499974 
L 357.582783 -56.989122 
L 357.641722 -56.478269 
L 357.675327 -55.967417 
L 357.683438 -55.456564 
L 357.665997 -54.945712 
L 357.623053 -54.434859 
L 357.554759 -53.924007 
L 357.461372 -53.413154 
L 357.343251 -52.902302 
L 357.200855 -52.391449 
L 357.034735 -51.880597 
L 356.845538 -51.369744 
L 356.633998 -50.858892 
L 356.400929 -50.348039 
L 356.147225 -49.837187 
z
" style="stroke: #999999; stroke-width: 2"/>
    </defs>
    <g clip-path="url(#p53745038fa)">
     <use xlink:href="#m781b67e5e2" x="0" y="255.11811" style="fill: #ffffff; stroke: #999999; stroke-width: 2"/>
    </g>
   </g>
   <g id="PolyCollection_6">
    <defs>
     <path id="m5458b26602" d="M 420.418601 -56.738238 
L 386.344031 -56.738238 
L 385.92789 -57.094437 
L 385.522248 -57.450636 
L 385.127722 -57.806835 
L 384.744865 -58.163034 
L 384.374169 -58.519233 
L 384.016066 -58.875431 
L 383.67093 -59.23163 
L 383.339077 -59.587829 
L 383.020773 -59.944028 
L 382.716234 -60.300227 
L 382.425633 -60.656426 
L 382.149105 -61.012624 
L 381.88675 -61.368823 
L 381.638641 -61.725022 
L 381.404828 -62.081221 
L 381.185344 -62.43742 
L 380.980213 -62.793619 
L 380.789448 -63.149817 
L 380.613065 -63.506016 
L 380.451082 -63.862215 
L 380.30352 -64.218414 
L 380.170417 -64.574613 
L 380.051817 -64.930811 
L 379.947784 -65.28701 
L 379.858394 -65.643209 
L 379.783743 -65.999408 
L 379.723941 -66.355607 
L 379.679113 -66.711806 
L 379.649398 -67.068004 
L 379.634945 -67.424203 
L 379.63591 -67.780402 
L 379.652454 -68.136601 
L 379.684735 -68.4928 
L 379.732907 -68.848999 
L 379.79711 -69.205197 
L 379.877472 -69.561396 
L 379.974092 -69.917595 
L 380.087047 -70.273794 
L 380.216374 -70.629993 
L 380.362074 -70.986192 
L 380.5241 -71.34239 
L 380.702355 -71.698589 
L 380.896685 -72.054788 
L 381.106876 -72.410987 
L 381.332652 -72.767186 
L 381.573668 -73.123385 
L 381.829511 -73.479583 
L 382.099697 -73.835782 
L 382.38367 -74.191981 
L 382.680802 -74.54818 
L 382.990399 -74.904379 
L 383.311695 -75.260577 
L 383.643861 -75.616776 
L 383.986007 -75.972975 
L 384.337186 -76.329174 
L 384.696401 -76.685373 
L 385.06261 -77.041572 
L 385.434736 -77.39777 
L 385.811669 -77.753969 
L 386.192282 -78.110168 
L 386.575432 -78.466367 
L 386.959973 -78.822566 
L 387.344767 -79.178765 
L 387.728689 -79.534963 
L 388.11064 -79.891162 
L 388.489552 -80.247361 
L 388.864404 -80.60356 
L 389.234222 -80.959759 
L 389.598095 -81.315958 
L 389.955177 -81.672156 
L 390.304697 -82.028355 
L 390.645963 -82.384554 
L 390.978369 -82.740753 
L 391.301399 -83.096952 
L 391.614628 -83.45315 
L 391.917729 -83.809349 
L 392.210469 -84.165548 
L 392.492711 -84.521747 
L 392.764414 -84.877946 
L 393.025631 -85.234145 
L 393.276504 -85.590343 
L 393.51726 -85.946542 
L 393.748209 -86.302741 
L 393.969733 -86.65894 
L 394.182283 -87.015139 
L 394.386372 -87.371338 
L 394.582563 -87.727536 
L 394.771464 -88.083735 
L 394.953718 -88.439934 
L 395.129993 -88.796133 
L 395.300974 -89.152332 
L 395.467355 -89.508531 
L 395.629825 -89.864729 
L 395.789066 -90.220928 
L 395.94574 -90.577127 
L 396.100481 -90.933326 
L 396.253892 -91.289525 
L 396.406533 -91.645723 
L 396.558919 -92.001922 
L 410.203714 -92.001922 
L 410.203714 -92.001922 
L 410.356099 -91.645723 
L 410.50874 -91.289525 
L 410.662151 -90.933326 
L 410.816892 -90.577127 
L 410.973566 -90.220928 
L 411.132807 -89.864729 
L 411.295278 -89.508531 
L 411.461658 -89.152332 
L 411.632639 -88.796133 
L 411.808914 -88.439934 
L 411.991168 -88.083735 
L 412.180069 -87.727536 
L 412.37626 -87.371338 
L 412.580349 -87.015139 
L 412.792899 -86.65894 
L 413.014424 -86.302741 
L 413.245372 -85.946542 
L 413.486129 -85.590343 
L 413.737001 -85.234145 
L 413.998218 -84.877946 
L 414.269922 -84.521747 
L 414.552164 -84.165548 
L 414.844903 -83.809349 
L 415.148004 -83.45315 
L 415.461233 -83.096952 
L 415.784263 -82.740753 
L 416.116669 -82.384554 
L 416.457935 -82.028355 
L 416.807455 -81.672156 
L 417.164537 -81.315958 
L 417.52841 -80.959759 
L 417.898228 -80.60356 
L 418.27308 -80.247361 
L 418.651993 -79.891162 
L 419.033943 -79.534963 
L 419.417865 -79.178765 
L 419.802659 -78.822566 
L 420.187201 -78.466367 
L 420.57035 -78.110168 
L 420.950963 -77.753969 
L 421.327896 -77.39777 
L 421.700022 -77.041572 
L 422.066232 -76.685373 
L 422.425446 -76.329174 
L 422.776625 -75.972975 
L 423.118771 -75.616776 
L 423.450937 -75.260577 
L 423.772233 -74.904379 
L 424.08183 -74.54818 
L 424.378963 -74.191981 
L 424.662935 -73.835782 
L 424.933121 -73.479583 
L 425.188964 -73.123385 
L 425.42998 -72.767186 
L 425.655756 -72.410987 
L 425.865948 -72.054788 
L 426.060277 -71.698589 
L 426.238532 -71.34239 
L 426.400558 -70.986192 
L 426.546258 -70.629993 
L 426.675585 -70.273794 
L 426.78854 -69.917595 
L 426.885161 -69.561396 
L 426.965522 -69.205197 
L 427.029726 -68.848999 
L 427.077897 -68.4928 
L 427.110178 -68.136601 
L 427.126722 -67.780402 
L 427.127687 -67.424203 
L 427.113234 -67.068004 
L 427.083519 -66.711806 
L 427.038691 -66.355607 
L 426.978889 -65.999408 
L 426.904238 -65.643209 
L 426.814849 -65.28701 
L 426.710815 -64.930811 
L 426.592216 -64.574613 
L 426.459112 -64.218414 
L 426.311551 -63.862215 
L 426.149567 -63.506016 
L 425.973184 -63.149817 
L 425.78242 -62.793619 
L 425.577288 -62.43742 
L 425.357805 -62.081221 
L 425.123992 -61.725022 
L 424.875882 -61.368823 
L 424.613527 -61.012624 
L 424.336999 -60.656426 
L 424.046398 -60.300227 
L 423.741859 -59.944028 
L 423.423555 -59.587829 
L 423.091702 -59.23163 
L 422.746566 -58.875431 
L 422.388463 -58.519233 
L 422.017768 -58.163034 
L 421.63491 -57.806835 
L 421.240384 -57.450636 
L 420.834742 -57.094437 
L 420.418601 -56.738238 
z
" style="stroke: #999999; stroke-width: 2"/>
    </defs>
    <g clip-path="url(#p53745038fa)">
     <use xlink:href="#m5458b26602" x="0" y="255.11811" style="fill: #ffffff; stroke: #999999; stroke-width: 2"/>
    </g>
   </g>
   <g id="PolyCollection_7">
    <defs>
     <path id="m0a7c8a149b" d="M 483.723782 -77.263143 
L 452.552056 -77.263143 
L 452.43343 -77.619483 
L 452.328517 -77.975823 
L 452.237357 -78.332162 
L 452.159938 -78.688502 
L 452.096185 -79.044842 
L 452.045972 -79.401181 
L 452.009113 -79.757521 
L 451.985368 -80.113861 
L 451.974444 -80.4702 
L 451.975996 -80.82654 
L 451.989626 -81.18288 
L 452.014893 -81.539219 
L 452.051307 -81.895559 
L 452.098337 -82.251899 
L 452.155414 -82.608238 
L 452.221932 -82.964578 
L 452.297252 -83.320918 
L 452.380708 -83.677258 
L 452.47161 -84.033597 
L 452.569245 -84.389937 
L 452.672886 -84.746277 
L 452.781793 -85.102616 
L 452.895217 -85.458956 
L 453.012406 -85.815296 
L 453.132609 -86.171635 
L 453.255078 -86.527975 
L 453.379074 -86.884315 
L 453.503871 -87.240654 
L 453.628759 -87.596994 
L 453.753048 -87.953334 
L 453.876071 -88.309673 
L 453.997188 -88.666013 
L 454.115789 -89.022353 
L 454.231296 -89.378692 
L 454.343168 -89.735032 
L 454.450898 -90.091372 
L 454.554022 -90.447711 
L 454.652115 -90.804051 
L 454.744798 -91.160391 
L 454.831734 -91.51673 
L 454.912631 -91.87307 
L 454.987244 -92.22941 
L 455.055374 -92.585749 
L 455.116868 -92.942089 
L 455.171621 -93.298429 
L 455.219573 -93.654768 
L 455.260708 -94.011108 
L 455.295059 -94.367448 
L 455.322698 -94.723787 
L 455.343743 -95.080127 
L 455.358352 -95.436467 
L 455.366721 -95.792806 
L 455.369085 -96.149146 
L 455.365715 -96.505486 
L 455.356917 -96.861825 
L 455.343026 -97.218165 
L 455.324407 -97.574505 
L 455.301454 -97.930844 
L 455.274585 -98.287184 
L 455.244239 -98.643524 
L 455.210875 -98.999863 
L 455.174971 -99.356203 
L 455.137017 -99.712543 
L 455.097518 -100.068882 
L 455.056986 -100.425222 
L 455.015942 -100.781562 
L 454.974909 -101.137901 
L 454.934415 -101.494241 
L 454.894985 -101.850581 
L 454.857144 -102.20692 
L 454.821408 -102.56326 
L 454.788289 -102.9196 
L 454.758287 -103.275939 
L 454.731892 -103.632279 
L 454.70958 -103.988619 
L 454.691809 -104.344958 
L 454.679021 -104.701298 
L 454.671639 -105.057638 
L 454.670064 -105.413977 
L 454.674675 -105.770317 
L 454.685826 -106.126657 
L 454.703846 -106.482996 
L 454.729037 -106.839336 
L 454.761673 -107.195676 
L 454.801999 -107.552015 
L 454.850232 -107.908355 
L 454.906556 -108.264695 
L 454.971126 -108.621034 
L 455.044064 -108.977374 
L 455.12546 -109.333714 
L 455.215374 -109.690053 
L 455.313832 -110.046393 
L 455.420828 -110.402733 
L 455.536325 -110.759072 
L 455.660254 -111.115412 
L 455.792515 -111.471752 
L 455.932977 -111.828092 
L 456.081481 -112.184431 
L 456.237838 -112.540771 
L 480.038 -112.540771 
L 480.038 -112.540771 
L 480.194357 -112.184431 
L 480.342861 -111.828092 
L 480.483323 -111.471752 
L 480.615584 -111.115412 
L 480.739513 -110.759072 
L 480.85501 -110.402733 
L 480.962006 -110.046393 
L 481.060464 -109.690053 
L 481.150378 -109.333714 
L 481.231774 -108.977374 
L 481.304712 -108.621034 
L 481.369282 -108.264695 
L 481.425606 -107.908355 
L 481.473839 -107.552015 
L 481.514165 -107.195676 
L 481.546801 -106.839336 
L 481.571992 -106.482996 
L 481.590012 -106.126657 
L 481.601163 -105.770317 
L 481.605774 -105.413977 
L 481.604199 -105.057638 
L 481.596817 -104.701298 
L 481.584029 -104.344958 
L 481.566258 -103.988619 
L 481.543946 -103.632279 
L 481.517551 -103.275939 
L 481.487549 -102.9196 
L 481.45443 -102.56326 
L 481.418694 -102.20692 
L 481.380853 -101.850581 
L 481.341423 -101.494241 
L 481.300929 -101.137901 
L 481.259896 -100.781562 
L 481.218852 -100.425222 
L 481.17832 -100.068882 
L 481.138821 -99.712543 
L 481.100867 -99.356203 
L 481.064963 -98.999863 
L 481.031599 -98.643524 
L 481.001253 -98.287184 
L 480.974384 -97.930844 
L 480.951431 -97.574505 
L 480.932813 -97.218165 
L 480.918921 -96.861825 
L 480.910123 -96.505486 
L 480.906753 -96.149146 
L 480.909118 -95.792806 
L 480.917486 -95.436467 
L 480.932095 -95.080127 
L 480.95314 -94.723787 
L 480.980779 -94.367448 
L 481.01513 -94.011108 
L 481.056265 -93.654768 
L 481.104217 -93.298429 
L 481.15897 -92.942089 
L 481.220464 -92.585749 
L 481.288594 -92.22941 
L 481.363207 -91.87307 
L 481.444104 -91.51673 
L 481.53104 -91.160391 
L 481.623723 -90.804051 
L 481.721816 -90.447711 
L 481.82494 -90.091372 
L 481.93267 -89.735032 
L 482.044542 -89.378692 
L 482.160049 -89.022353 
L 482.27865 -88.666013 
L 482.399767 -88.309673 
L 482.52279 -87.953334 
L 482.647079 -87.596994 
L 482.771967 -87.240654 
L 482.896764 -86.884315 
L 483.02076 -86.527975 
L 483.143229 -86.171635 
L 483.263432 -85.815296 
L 483.380621 -85.458956 
L 483.494045 -85.102616 
L 483.602952 -84.746277 
L 483.706593 -84.389937 
L 483.804228 -84.033597 
L 483.89513 -83.677258 
L 483.978586 -83.320918 
L 484.053906 -82.964578 
L 484.120424 -82.608238 
L 484.177501 -82.251899 
L 484.224531 -81.895559 
L 484.260945 -81.539219 
L 484.286212 -81.18288 
L 484.299842 -80.82654 
L 484.301394 -80.4702 
L 484.29047 -80.113861 
L 484.266725 -79.757521 
L 484.229866 -79.401181 
L 484.179653 -79.044842 
L 484.1159 -78.688502 
L 484.038481 -78.332162 
L 483.947321 -77.975823 
L 483.842408 -77.619483 
L 483.723782 -77.263143 
z
" style="stroke: #999999; stroke-width: 2"/>
    </defs>
    <g clip-path="url(#p53745038fa)">
     <use xlink:href="#m0a7c8a149b" x="0" y="255.11811" style="fill: #ffffff; stroke: #999999; stroke-width: 2"/>
    </g>
   </g>
   <g id="PathCollection_1"/>
   <g id="PathCollection_2"/>
   <g id="patch_3">
    <path d="M 47.22 213.89811 
L 47.22 24.32 
" style="fill: none; stroke: #262626; stroke-width: 1.25; stroke-linejoin: miter; stroke-linecap: square"/>
   </g>
   <g id="patch_4">
    <path d="M 47.22 213.89811 
L 500.51622 213.89811 
" style="fill: none; stroke: #262626; stroke-width: 1.25; stroke-linejoin: miter; stroke-linecap: square"/>
   </g>
   <g id="PathCollection_3">
    <defs>
     <path id="C0_0_af36252dee" d="M 0 2.5 
C 0.663008 2.5 1.29895 2.236584 1.767767 1.767767 
C 2.236584 1.29895 2.5 0.663008 2.5 -0 
C 2.5 -0.663008 2.236584 -1.29895 1.767767 -1.767767 
C 1.29895 -2.236584 0.663008 -2.5 0 -2.5 
C -0.663008 -2.5 -1.29895 -2.236584 -1.767767 -1.767767 
C -2.236584 -1.29895 -2.5 -0.663008 -2.5 0 
C -2.5 0.663008 -2.236584 1.29895 -1.767767 1.767767 
C -1.29895 2.236584 -0.663008 2.5 0 2.5 
z
"/>
    </defs>
    <g clip-path="url(#p53745038fa)">
     <use xlink:href="#C0_0_af36252dee" x="80.533236" y="40.655336" style="fill: #4c72b0; fill-opacity: 0.75"/>
    </g>
    <g clip-path="url(#p53745038fa)">
     <use xlink:href="#C0_0_af36252dee" x="77.786694" y="66.831167" style="fill: #4c72b0; fill-opacity: 0.75"/>
    </g>
    <g clip-path="url(#p53745038fa)">
     <use xlink:href="#C0_0_af36252dee" x="78.061861" y="55.226713" style="fill: #4c72b0; fill-opacity: 0.75"/>
    </g>
    <g clip-path="url(#p53745038fa)">
     <use xlink:href="#C0_0_af36252dee" x="85.793009" y="32.937187" style="fill: #4c72b0; fill-opacity: 0.75"/>
    </g>
    <g clip-path="url(#p53745038fa)">
     <use xlink:href="#C0_0_af36252dee" x="80.738816" y="82.227511" style="fill: #dd8452; fill-opacity: 0.75"/>
    </g>
    <g clip-path="url(#p53745038fa)">
     <use xlink:href="#C0_0_af36252dee" x="82.379066" y="96.037934" style="fill: #dd8452; fill-opacity: 0.75"/>
    </g>
    <g clip-path="url(#p53745038fa)">
     <use xlink:href="#C0_0_af36252dee" x="75.763924" y="104.297306" style="fill: #dd8452; fill-opacity: 0.75"/>
    </g>
    <g clip-path="url(#p53745038fa)">
     <use xlink:href="#C0_0_af36252dee" x="84.225839" y="87.966098" style="fill: #dd8452; fill-opacity: 0.75"/>
    </g>
   </g>
   <g id="PathCollection_4">
    <defs>
     <path id="C1_0_fc8a1cfcce" d="M 0 2.5 
C 0.663008 2.5 1.29895 2.236584 1.767767 1.767767 
C 2.236584 1.29895 2.5 0.663008 2.5 -0 
C 2.5 -0.663008 2.236584 -1.29895 1.767767 -1.767767 
C 1.29895 -2.236584 0.663008 -2.5 0 -2.5 
C -0.663008 -2.5 -1.29895 -2.236584 -1.767767 -1.767767 
C -2.236584 -1.29895 -2.5 -0.663008 -2.5 0 
C -2.5 0.663008 -2.236584 1.29895 -1.767767 1.767767 
C -1.29895 2.236584 -0.663008 2.5 0 2.5 
z
"/>
    </defs>
    <g clip-path="url(#p53745038fa)">
     <use xlink:href="#C1_0_fc8a1cfcce" x="142.552771" y="157.938698" style="fill: #4c72b0; fill-opacity: 0.75"/>
    </g>
    <g clip-path="url(#p53745038fa)">
     <use xlink:href="#C1_0_fc8a1cfcce" x="149.722117" y="195.453855" style="fill: #4c72b0; fill-opacity: 0.75"/>
    </g>
    <g clip-path="url(#p53745038fa)">
     <use xlink:href="#C1_0_fc8a1cfcce" x="141.604013" y="148.691677" style="fill: #4c72b0; fill-opacity: 0.75"/>
    </g>
    <g clip-path="url(#p53745038fa)">
     <use xlink:href="#C1_0_fc8a1cfcce" x="138.030331" y="142.752345" style="fill: #4c72b0; fill-opacity: 0.75"/>
    </g>
    <g clip-path="url(#p53745038fa)">
     <use xlink:href="#C1_0_fc8a1cfcce" x="147.731168" y="167.494469" style="fill: #dd8452; fill-opacity: 0.75"/>
    </g>
    <g clip-path="url(#p53745038fa)">
     <use xlink:href="#C1_0_fc8a1cfcce" x="141.039372" y="158.643309" style="fill: #dd8452; fill-opacity: 0.75"/>
    </g>
    <g clip-path="url(#p53745038fa)">
     <use xlink:href="#C1_0_fc8a1cfcce" x="143.161665" y="141.216057" style="fill: #dd8452; fill-opacity: 0.75"/>
    </g>
    <g clip-path="url(#p53745038fa)">
     <use xlink:href="#C1_0_fc8a1cfcce" x="139.241532" y="140.673232" style="fill: #dd8452; fill-opacity: 0.75"/>
    </g>
   </g>
   <g id="PathCollection_5">
    <defs>
     <path id="C2_0_dd9531da85" d="M 0 2.5 
C 0.663008 2.5 1.29895 2.236584 1.767767 1.767767 
C 2.236584 1.29895 2.5 0.663008 2.5 -0 
C 2.5 -0.663008 2.236584 -1.29895 1.767767 -1.767767 
C 1.29895 -2.236584 0.663008 -2.5 0 -2.5 
C -0.663008 -2.5 -1.29895 -2.236584 -1.767767 -1.767767 
C -2.236584 -1.29895 -2.5 -0.663008 -2.5 0 
C -2.5 0.663008 -2.236584 1.29895 -1.767767 1.767767 
C -1.29895 2.236584 -0.663008 2.5 0 2.5 
z
"/>
    </defs>
    <g clip-path="url(#p53745038fa)">
     <use xlink:href="#C2_0_dd9531da85" x="205.122011" y="131.178927" style="fill: #4c72b0; fill-opacity: 0.75"/>
    </g>
    <g clip-path="url(#p53745038fa)">
     <use xlink:href="#C2_0_dd9531da85" x="205.855228" y="144.006953" style="fill: #4c72b0; fill-opacity: 0.75"/>
    </g>
    <g clip-path="url(#p53745038fa)">
     <use xlink:href="#C2_0_dd9531da85" x="209.583136" y="137.536985" style="fill: #4c72b0; fill-opacity: 0.75"/>
    </g>
    <g clip-path="url(#p53745038fa)">
     <use xlink:href="#C2_0_dd9531da85" x="203.67592" y="144.695411" style="fill: #4c72b0; fill-opacity: 0.75"/>
    </g>
    <g clip-path="url(#p53745038fa)">
     <use xlink:href="#C2_0_dd9531da85" x="206.312832" y="132.616865" style="fill: #dd8452; fill-opacity: 0.75"/>
    </g>
    <g clip-path="url(#p53745038fa)">
     <use xlink:href="#C2_0_dd9531da85" x="210.663605" y="146.571171" style="fill: #dd8452; fill-opacity: 0.75"/>
    </g>
    <g clip-path="url(#p53745038fa)">
     <use xlink:href="#C2_0_dd9531da85" x="204.094153" y="134.740356" style="fill: #dd8452; fill-opacity: 0.75"/>
    </g>
    <g clip-path="url(#p53745038fa)">
     <use xlink:href="#C2_0_dd9531da85" x="209.69709" y="171.724299" style="fill: #dd8452; fill-opacity: 0.75"/>
    </g>
   </g>
   <g id="PathCollection_6">
    <defs>
     <path id="C3_0_03e5a869dc" d="M 0 2.5 
C 0.663008 2.5 1.29895 2.236584 1.767767 1.767767 
C 2.236584 1.29895 2.5 0.663008 2.5 -0 
C 2.5 -0.663008 2.236584 -1.29895 1.767767 -1.767767 
C 1.29895 -2.236584 0.663008 -2.5 0 -2.5 
C -0.663008 -2.5 -1.29895 -2.236584 -1.767767 -1.767767 
C -2.236584 -1.29895 -2.5 -0.663008 -2.5 0 
C -2.5 0.663008 -2.236584 1.29895 -1.767767 1.767767 
C -1.29895 2.236584 -0.663008 2.5 0 2.5 
z
"/>
    </defs>
    <g clip-path="url(#p53745038fa)">
     <use xlink:href="#C3_0_03e5a869dc" x="267.684955" y="64.220619" style="fill: #4c72b0; fill-opacity: 0.75"/>
    </g>
    <g clip-path="url(#p53745038fa)">
     <use xlink:href="#C3_0_03e5a869dc" x="272.215962" y="78.129938" style="fill: #4c72b0; fill-opacity: 0.75"/>
    </g>
    <g clip-path="url(#p53745038fa)">
     <use xlink:href="#C3_0_03e5a869dc" x="271.801426" y="58.731593" style="fill: #4c72b0; fill-opacity: 0.75"/>
    </g>
    <g clip-path="url(#p53745038fa)">
     <use xlink:href="#C3_0_03e5a869dc" x="279.440691" y="151.012057" style="fill: #4c72b0; fill-opacity: 0.75"/>
    </g>
    <g clip-path="url(#p53745038fa)">
     <use xlink:href="#C3_0_03e5a869dc" x="267.983396" y="55.525907" style="fill: #4c72b0; fill-opacity: 0.75"/>
    </g>
    <g clip-path="url(#p53745038fa)">
     <use xlink:href="#C3_0_03e5a869dc" x="269.335602" y="164.194627" style="fill: #dd8452; fill-opacity: 0.75"/>
    </g>
    <g clip-path="url(#p53745038fa)">
     <use xlink:href="#C3_0_03e5a869dc" x="269.34993" y="160.845304" style="fill: #dd8452; fill-opacity: 0.75"/>
    </g>
    <g clip-path="url(#p53745038fa)">
     <use xlink:href="#C3_0_03e5a869dc" x="278.177419" y="160.876108" style="fill: #dd8452; fill-opacity: 0.75"/>
    </g>
    <g clip-path="url(#p53745038fa)">
     <use xlink:href="#C3_0_03e5a869dc" x="279.081512" y="113.607101" style="fill: #dd8452; fill-opacity: 0.75"/>
    </g>
    <g clip-path="url(#p53745038fa)">
     <use xlink:href="#C3_0_03e5a869dc" x="274.942783" y="146.74223" style="fill: #dd8452; fill-opacity: 0.75"/>
    </g>
   </g>
   <g id="PathCollection_7">
    <defs>
     <path id="C4_0_64e5b4c8f7" d="M 0 2.5 
C 0.663008 2.5 1.29895 2.236584 1.767767 1.767767 
C 2.236584 1.29895 2.5 0.663008 2.5 -0 
C 2.5 -0.663008 2.236584 -1.29895 1.767767 -1.767767 
C 1.29895 -2.236584 0.663008 -2.5 0 -2.5 
C -0.663008 -2.5 -1.29895 -2.236584 -1.767767 -1.767767 
C -2.236584 -1.29895 -2.5 -0.663008 -2.5 0 
C -2.5 0.663008 -2.236584 1.29895 -1.767767 1.767767 
C -1.29895 2.236584 -0.663008 2.5 0 2.5 
z
"/>
    </defs>
    <g clip-path="url(#p53745038fa)">
     <use xlink:href="#C4_0_64e5b4c8f7" x="336.049634" y="193.703469" style="fill: #4c72b0; fill-opacity: 0.75"/>
    </g>
    <g clip-path="url(#p53745038fa)">
     <use xlink:href="#C4_0_64e5b4c8f7" x="334.517515" y="154.706527" style="fill: #4c72b0; fill-opacity: 0.75"/>
    </g>
    <g clip-path="url(#p53745038fa)">
     <use xlink:href="#C4_0_64e5b4c8f7" x="342.236713" y="197.578178" style="fill: #4c72b0; fill-opacity: 0.75"/>
    </g>
    <g clip-path="url(#p53745038fa)">
     <use xlink:href="#C4_0_64e5b4c8f7" x="336.401711" y="205.280923" style="fill: #dd8452; fill-opacity: 0.75"/>
    </g>
    <g clip-path="url(#p53745038fa)">
     <use xlink:href="#C4_0_64e5b4c8f7" x="336.348596" y="203.760186" style="fill: #dd8452; fill-opacity: 0.75"/>
    </g>
    <g clip-path="url(#p53745038fa)">
     <use xlink:href="#C4_0_64e5b4c8f7" x="340.363508" y="197.780655" style="fill: #dd8452; fill-opacity: 0.75"/>
    </g>
   </g>
   <g id="PathCollection_8">
    <defs>
     <path id="C5_0_00363716ec" d="M 0 2.5 
C 0.663008 2.5 1.29895 2.236584 1.767767 1.767767 
C 2.236584 1.29895 2.5 0.663008 2.5 -0 
C 2.5 -0.663008 2.236584 -1.29895 1.767767 -1.767767 
C 1.29895 -2.236584 0.663008 -2.5 0 -2.5 
C -0.663008 -2.5 -1.29895 -2.236584 -1.767767 -1.767767 
C -2.236584 -1.29895 -2.5 -0.663008 -2.5 0 
C -2.5 0.663008 -2.236584 1.29895 -1.767767 1.767767 
C -1.29895 2.236584 -0.663008 2.5 0 2.5 
z
"/>
    </defs>
    <g clip-path="url(#p53745038fa)">
     <use xlink:href="#C5_0_00363716ec" x="399.319751" y="191.350985" style="fill: #4c72b0; fill-opacity: 0.75"/>
    </g>
    <g clip-path="url(#p53745038fa)">
     <use xlink:href="#C5_0_00363716ec" x="398.339864" y="197.624372" style="fill: #4c72b0; fill-opacity: 0.75"/>
    </g>
    <g clip-path="url(#p53745038fa)">
     <use xlink:href="#C5_0_00363716ec" x="403.354141" y="188.143106" style="fill: #4c72b0; fill-opacity: 0.75"/>
    </g>
    <g clip-path="url(#p53745038fa)">
     <use xlink:href="#C5_0_00363716ec" x="405.749548" y="198.379872" style="fill: #4c72b0; fill-opacity: 0.75"/>
    </g>
    <g clip-path="url(#p53745038fa)">
     <use xlink:href="#C5_0_00363716ec" x="405.063195" y="181.894869" style="fill: #dd8452; fill-opacity: 0.75"/>
    </g>
    <g clip-path="url(#p53745038fa)">
     <use xlink:href="#C5_0_00363716ec" x="409.610307" y="182.780671" style="fill: #dd8452; fill-opacity: 0.75"/>
    </g>
    <g clip-path="url(#p53745038fa)">
     <use xlink:href="#C5_0_00363716ec" x="404.177439" y="163.116188" style="fill: #dd8452; fill-opacity: 0.75"/>
    </g>
    <g clip-path="url(#p53745038fa)">
     <use xlink:href="#C5_0_00363716ec" x="407.762546" y="176.309443" style="fill: #dd8452; fill-opacity: 0.75"/>
    </g>
   </g>
   <g id="PathCollection_9">
    <defs>
     <path id="C6_0_595db1ad61" d="M 0 2.5 
C 0.663008 2.5 1.29895 2.236584 1.767767 1.767767 
C 2.236584 1.29895 2.5 0.663008 2.5 -0 
C 2.5 -0.663008 2.236584 -1.29895 1.767767 -1.767767 
C 1.29895 -2.236584 0.663008 -2.5 0 -2.5 
C -0.663008 -2.5 -1.29895 -2.236584 -1.767767 -1.767767 
C -2.236584 -1.29895 -2.5 -0.663008 -2.5 0 
C -2.5 0.663008 -2.236584 1.29895 -1.767767 1.767767 
C -1.29895 2.236584 -0.663008 2.5 0 2.5 
z
"/>
    </defs>
    <g clip-path="url(#p53745038fa)">
     <use xlink:href="#C6_0_595db1ad61" x="471.241512" y="177.854967" style="fill: #4c72b0; fill-opacity: 0.75"/>
    </g>
    <g clip-path="url(#p53745038fa)">
     <use xlink:href="#C6_0_595db1ad61" x="470.655197" y="177.854146" style="fill: #4c72b0; fill-opacity: 0.75"/>
    </g>
    <g clip-path="url(#p53745038fa)">
     <use xlink:href="#C6_0_595db1ad61" x="467.665673" y="172.701138" style="fill: #4c72b0; fill-opacity: 0.75"/>
    </g>
    <g clip-path="url(#p53745038fa)">
     <use xlink:href="#C6_0_595db1ad61" x="468.258228" y="157.584036" style="fill: #4c72b0; fill-opacity: 0.75"/>
    </g>
    <g clip-path="url(#p53745038fa)">
     <use xlink:href="#C6_0_595db1ad61" x="469.470019" y="143.079897" style="fill: #dd8452; fill-opacity: 0.75"/>
    </g>
    <g clip-path="url(#p53745038fa)">
     <use xlink:href="#C6_0_595db1ad61" x="471.269059" y="150.775479" style="fill: #dd8452; fill-opacity: 0.75"/>
    </g>
    <g clip-path="url(#p53745038fa)">
     <use xlink:href="#C6_0_595db1ad61" x="470.314504" y="142.577339" style="fill: #dd8452; fill-opacity: 0.75"/>
    </g>
    <g clip-path="url(#p53745038fa)">
     <use xlink:href="#C6_0_595db1ad61" x="463.181787" y="176.663526" style="fill: #dd8452; fill-opacity: 0.75"/>
    </g>
   </g>
   <g id="text_16">
    <!-- CDV3, $p_{adj}$ &lt; .001 *** -->
    <g style="fill: #262626" transform="translate(47.22 18.32)scale(0.09 -0.09)">
     <defs>
      <path id="ArialMT-43" d="M 3763 1606 
L 4369 1453 
Q 4178 706 3683 314 
Q 3188 -78 2472 -78 
Q 1731 -78 1267 223 
Q 803 525 561 1097 
Q 319 1669 319 2325 
Q 319 3041 592 3573 
Q 866 4106 1370 4382 
Q 1875 4659 2481 4659 
Q 3169 4659 3637 4309 
Q 4106 3959 4291 3325 
L 3694 3184 
Q 3534 3684 3231 3912 
Q 2928 4141 2469 4141 
Q 1941 4141 1586 3887 
Q 1231 3634 1087 3207 
Q 944 2781 944 2328 
Q 944 1744 1114 1308 
Q 1284 872 1643 656 
Q 2003 441 2422 441 
Q 2931 441 3284 734 
Q 3638 1028 3763 1606 
z
" transform="scale(0.015625)"/>
      <path id="ArialMT-44" d="M 494 0 
L 494 4581 
L 2072 4581 
Q 2606 4581 2888 4516 
Q 3281 4425 3559 4188 
Q 3922 3881 4101 3404 
Q 4281 2928 4281 2316 
Q 4281 1794 4159 1391 
Q 4038 988 3847 723 
Q 3656 459 3429 307 
Q 3203 156 2883 78 
Q 2563 0 2147 0 
L 494 0 
z
M 1100 541 
L 2078 541 
Q 2531 541 2789 625 
Q 3047 709 3200 863 
Q 3416 1078 3536 1442 
Q 3656 1806 3656 2325 
Q 3656 3044 3420 3430 
Q 3184 3816 2847 3947 
Q 2603 4041 2063 4041 
L 1100 4041 
L 1100 541 
z
" transform="scale(0.015625)"/>
      <path id="ArialMT-56" d="M 1803 0 
L 28 4581 
L 684 4581 
L 1875 1253 
Q 2019 853 2116 503 
Q 2222 878 2363 1253 
L 3600 4581 
L 4219 4581 
L 2425 0 
L 1803 0 
z
" transform="scale(0.015625)"/>
      <path id="ArialMT-2c" d="M 569 0 
L 569 641 
L 1209 641 
L 1209 0 
Q 1209 -353 1084 -570 
Q 959 -788 688 -906 
L 531 -666 
Q 709 -588 793 -436 
Q 878 -284 888 0 
L 569 0 
z
" transform="scale(0.015625)"/>
      <path id="DejaVuSans-Oblique-70" d="M 3175 2156 
Q 3175 2616 2975 2859 
Q 2775 3103 2400 3103 
Q 2144 3103 1911 2972 
Q 1678 2841 1497 2591 
Q 1319 2344 1212 1994 
Q 1106 1644 1106 1300 
Q 1106 863 1306 627 
Q 1506 391 1875 391 
Q 2147 391 2380 519 
Q 2613 647 2778 891 
Q 2956 1147 3065 1494 
Q 3175 1841 3175 2156 
z
M 1394 2969 
Q 1625 3272 1939 3428 
Q 2253 3584 2638 3584 
Q 3175 3584 3472 3232 
Q 3769 2881 3769 2247 
Q 3769 1728 3584 1258 
Q 3400 788 3053 416 
Q 2822 169 2531 39 
Q 2241 -91 1919 -91 
Q 1547 -91 1294 64 
Q 1041 219 916 525 
L 556 -1331 
L -19 -1331 
L 922 3500 
L 1497 3500 
L 1394 2969 
z
" transform="scale(0.015625)"/>
      <path id="DejaVuSans-Oblique-61" d="M 3438 1997 
L 3047 0 
L 2472 0 
L 2578 531 
Q 2325 219 2001 64 
Q 1678 -91 1281 -91 
Q 834 -91 548 182 
Q 263 456 263 884 
Q 263 1497 752 1853 
Q 1241 2209 2100 2209 
L 2900 2209 
L 2931 2363 
Q 2938 2388 2941 2417 
Q 2944 2447 2944 2509 
Q 2944 2788 2717 2942 
Q 2491 3097 2081 3097 
Q 1800 3097 1504 3025 
Q 1209 2953 897 2809 
L 997 3341 
Q 1322 3463 1633 3523 
Q 1944 3584 2234 3584 
Q 2853 3584 3176 3315 
Q 3500 3047 3500 2534 
Q 3500 2431 3484 2292 
Q 3469 2153 3438 1997 
z
M 2816 1759 
L 2241 1759 
Q 1534 1759 1195 1570 
Q 856 1381 856 984 
Q 856 709 1029 553 
Q 1203 397 1509 397 
Q 1978 397 2328 733 
Q 2678 1069 2791 1631 
L 2816 1759 
z
" transform="scale(0.015625)"/>
      <path id="DejaVuSans-Oblique-64" d="M 2675 525 
Q 2444 222 2128 65 
Q 1813 -91 1428 -91 
Q 903 -91 598 267 
Q 294 625 294 1247 
Q 294 1766 478 2236 
Q 663 2706 1013 3078 
Q 1244 3325 1534 3454 
Q 1825 3584 2144 3584 
Q 2481 3584 2739 3421 
Q 2997 3259 3138 2956 
L 3513 4863 
L 4091 4863 
L 3144 0 
L 2566 0 
L 2675 525 
z
M 891 1350 
Q 891 897 1095 644 
Q 1300 391 1663 391 
Q 1931 391 2161 520 
Q 2391 650 2566 903 
Q 2750 1166 2856 1509 
Q 2963 1853 2963 2188 
Q 2963 2622 2758 2865 
Q 2553 3109 2194 3109 
Q 1922 3109 1687 2981 
Q 1453 2853 1288 2613 
Q 1106 2353 998 2009 
Q 891 1666 891 1350 
z
" transform="scale(0.015625)"/>
      <path id="DejaVuSans-Oblique-6a" d="M 928 3500 
L 1503 3500 
L 813 -63 
L 809 -78 
Q 694 -675 544 -897 
Q 403 -1106 132 -1218 
Q -138 -1331 -506 -1331 
L -722 -1331 
L -628 -844 
L -481 -844 
Q -144 -844 -1 -703 
Q 141 -563 238 -63 
L 928 3500 
z
M 1197 4863 
L 1772 4863 
L 1631 4134 
L 1056 4134 
L 1197 4863 
z
" transform="scale(0.015625)"/>
      <path id="ArialMT-3c" d="M 350 2003 
L 350 2528 
L 3384 3809 
L 3384 3250 
L 978 2263 
L 3384 1266 
L 3384 706 
L 350 2003 
z
" transform="scale(0.015625)"/>
      <path id="ArialMT-2e" d="M 581 0 
L 581 641 
L 1222 641 
L 1222 0 
L 581 0 
z
" transform="scale(0.015625)"/>
      <path id="ArialMT-2a" d="M 200 3741 
L 344 4184 
Q 841 4009 1066 3881 
Q 1006 4447 1003 4659 
L 1456 4659 
Q 1447 4350 1384 3884 
Q 1706 4047 2122 4184 
L 2266 3741 
Q 1869 3609 1488 3566 
Q 1678 3400 2025 2975 
L 1650 2709 
Q 1469 2956 1222 3381 
Q 991 2941 816 2709 
L 447 2975 
Q 809 3422 966 3566 
Q 563 3644 200 3741 
z
" transform="scale(0.015625)"/>
     </defs>
     <use xlink:href="#ArialMT-43" transform="translate(0 0.203125)"/>
     <use xlink:href="#ArialMT-44" transform="translate(72.216797 0.203125)"/>
     <use xlink:href="#ArialMT-56" transform="translate(144.433594 0.203125)"/>
     <use xlink:href="#ArialMT-33" transform="translate(211.132812 0.203125)"/>
     <use xlink:href="#ArialMT-2c" transform="translate(266.748047 0.203125)"/>
     <use xlink:href="#ArialMT-20" transform="translate(294.53125 0.203125)"/>
     <use xlink:href="#DejaVuSans-Oblique-70" transform="translate(322.314453 0.203125)"/>
     <use xlink:href="#DejaVuSans-Oblique-61" transform="translate(385.791016 -16.203125)scale(0.7)"/>
     <use xlink:href="#DejaVuSans-Oblique-64" transform="translate(428.686523 -16.203125)scale(0.7)"/>
     <use xlink:href="#DejaVuSans-Oblique-6a" transform="translate(473.120117 -16.203125)scale(0.7)"/>
     <use xlink:href="#ArialMT-20" transform="translate(495.302734 0.203125)"/>
     <use xlink:href="#ArialMT-3c" transform="translate(523.085938 0.203125)"/>
     <use xlink:href="#ArialMT-20" transform="translate(581.484375 0.203125)"/>
     <use xlink:href="#ArialMT-2e" transform="translate(609.267578 0.203125)"/>
     <use xlink:href="#ArialMT-30" transform="translate(637.050781 0.203125)"/>
     <use xlink:href="#ArialMT-30" transform="translate(692.666016 0.203125)"/>
     <use xlink:href="#ArialMT-31" transform="translate(748.28125 0.203125)"/>
     <use xlink:href="#ArialMT-20" transform="translate(803.896484 0.203125)"/>
     <use xlink:href="#ArialMT-2a" transform="translate(831.679688 0.203125)"/>
     <use xlink:href="#ArialMT-2a" transform="translate(870.595703 0.203125)"/>
     <use xlink:href="#ArialMT-2a" transform="translate(909.511719 0.203125)"/>
    </g>
   </g>
   <g id="legend_1">
    <g id="patch_5">
     <path d="M 441.91497 69.712344 
L 494.21622 69.712344 
Q 496.01622 69.712344 496.01622 67.912344 
L 496.01622 30.62 
Q 496.01622 28.82 494.21622 28.82 
L 441.91497 28.82 
Q 440.11497 28.82 440.11497 30.62 
L 440.11497 67.912344 
Q 440.11497 69.712344 441.91497 69.712344 
z
" style="fill: #ffffff; opacity: 0.8; stroke: #cccccc; stroke-linejoin: miter"/>
    </g>
    <g id="text_17">
     <!-- Treatment -->
     <g style="fill: #262626" transform="translate(447.729111 38.862031)scale(0.09 -0.09)">
      <use xlink:href="#ArialMT-54"/>
      <use xlink:href="#ArialMT-72" x="57.333984"/>
      <use xlink:href="#ArialMT-65" x="90.634766"/>
      <use xlink:href="#ArialMT-61" x="146.25"/>
      <use xlink:href="#ArialMT-74" x="201.865234"/>
      <use xlink:href="#ArialMT-6d" x="229.648438"/>
      <use xlink:href="#ArialMT-65" x="312.949219"/>
      <use xlink:href="#ArialMT-6e" x="368.564453"/>
      <use xlink:href="#ArialMT-74" x="424.179688"/>
     </g>
    </g>
    <g id="PathCollection_10">
     <defs>
      <path id="m9a00458b43" d="M 0 3.872983 
C 1.027127 3.872983 2.012324 3.464901 2.738613 2.738613 
C 3.464901 2.012324 3.872983 1.027127 3.872983 0 
C 3.872983 -1.027127 3.464901 -2.012324 2.738613 -2.738613 
C 2.012324 -3.464901 1.027127 -3.872983 0 -3.872983 
C -1.027127 -3.872983 -2.012324 -3.464901 -2.738613 -2.738613 
C -3.464901 -2.012324 -3.872983 -1.027127 -3.872983 0 
C -3.872983 1.027127 -3.464901 2.012324 -2.738613 2.738613 
C -2.012324 3.464901 -1.027127 3.872983 0 3.872983 
z
" style="stroke: #4c72b0"/>
     </defs>
     <g>
      <use xlink:href="#m9a00458b43" x="452.71497" y="49.230313" style="fill: #4c72b0; stroke: #4c72b0"/>
     </g>
    </g>
    <g id="text_18">
     <!-- BEVA -->
     <g style="fill: #262626" transform="translate(468.91497 51.592813)scale(0.09 -0.09)">
      <defs>
       <path id="ArialMT-42" d="M 469 0 
L 469 4581 
L 2188 4581 
Q 2713 4581 3030 4442 
Q 3347 4303 3526 4014 
Q 3706 3725 3706 3409 
Q 3706 3116 3547 2856 
Q 3388 2597 3066 2438 
Q 3481 2316 3704 2022 
Q 3928 1728 3928 1328 
Q 3928 1006 3792 729 
Q 3656 453 3456 303 
Q 3256 153 2954 76 
Q 2653 0 2216 0 
L 469 0 
z
M 1075 2656 
L 2066 2656 
Q 2469 2656 2644 2709 
Q 2875 2778 2992 2937 
Q 3109 3097 3109 3338 
Q 3109 3566 3000 3739 
Q 2891 3913 2687 3977 
Q 2484 4041 1991 4041 
L 1075 4041 
L 1075 2656 
z
M 1075 541 
L 2216 541 
Q 2509 541 2628 563 
Q 2838 600 2978 687 
Q 3119 775 3209 942 
Q 3300 1109 3300 1328 
Q 3300 1584 3169 1773 
Q 3038 1963 2805 2039 
Q 2572 2116 2134 2116 
L 1075 2116 
L 1075 541 
z
" transform="scale(0.015625)"/>
       <path id="ArialMT-45" d="M 506 0 
L 506 4581 
L 3819 4581 
L 3819 4041 
L 1113 4041 
L 1113 2638 
L 3647 2638 
L 3647 2100 
L 1113 2100 
L 1113 541 
L 3925 541 
L 3925 0 
L 506 0 
z
" transform="scale(0.015625)"/>
       <path id="ArialMT-41" d="M -9 0 
L 1750 4581 
L 2403 4581 
L 4278 0 
L 3588 0 
L 3053 1388 
L 1138 1388 
L 634 0 
L -9 0 
z
M 1313 1881 
L 2866 1881 
L 2388 3150 
Q 2169 3728 2063 4100 
Q 1975 3659 1816 3225 
L 1313 1881 
z
" transform="scale(0.015625)"/>
      </defs>
      <use xlink:href="#ArialMT-42"/>
      <use xlink:href="#ArialMT-45" x="66.699219"/>
      <use xlink:href="#ArialMT-56" x="133.398438"/>
      <use xlink:href="#ArialMT-41" x="192.722656"/>
     </g>
    </g>
    <g id="PathCollection_11">
     <defs>
      <path id="m41a38bd06d" d="M 0 3.872983 
C 1.027127 3.872983 2.012324 3.464901 2.738613 2.738613 
C 3.464901 2.012324 3.872983 1.027127 3.872983 0 
C 3.872983 -1.027127 3.464901 -2.012324 2.738613 -2.738613 
C 2.012324 -3.464901 1.027127 -3.872983 0 -3.872983 
C -1.027127 -3.872983 -2.012324 -3.464901 -2.738613 -2.738613 
C -3.464901 -2.012324 -3.872983 -1.027127 -3.872983 0 
C -3.872983 1.027127 -3.464901 2.012324 -2.738613 2.738613 
C -2.012324 3.464901 -1.027127 3.872983 0 3.872983 
z
" style="stroke: #dd8452"/>
     </defs>
     <g>
      <use xlink:href="#m41a38bd06d" x="452.71497" y="61.961094" style="fill: #dd8452; stroke: #dd8452"/>
     </g>
    </g>
    <g id="text_19">
     <!-- CTRL -->
     <g style="fill: #262626" transform="translate(468.91497 64.323594)scale(0.09 -0.09)">
      <defs>
       <path id="ArialMT-52" d="M 503 0 
L 503 4581 
L 2534 4581 
Q 3147 4581 3465 4457 
Q 3784 4334 3975 4021 
Q 4166 3709 4166 3331 
Q 4166 2844 3850 2509 
Q 3534 2175 2875 2084 
Q 3116 1969 3241 1856 
Q 3506 1613 3744 1247 
L 4541 0 
L 3778 0 
L 3172 953 
Q 2906 1366 2734 1584 
Q 2563 1803 2427 1890 
Q 2291 1978 2150 2013 
Q 2047 2034 1813 2034 
L 1109 2034 
L 1109 0 
L 503 0 
z
M 1109 2559 
L 2413 2559 
Q 2828 2559 3062 2645 
Q 3297 2731 3419 2920 
Q 3541 3109 3541 3331 
Q 3541 3656 3305 3865 
Q 3069 4075 2559 4075 
L 1109 4075 
L 1109 2559 
z
" transform="scale(0.015625)"/>
       <path id="ArialMT-4c" d="M 469 0 
L 469 4581 
L 1075 4581 
L 1075 541 
L 3331 541 
L 3331 0 
L 469 0 
z
" transform="scale(0.015625)"/>
      </defs>
      <use xlink:href="#ArialMT-43"/>
      <use xlink:href="#ArialMT-54" x="72.216797"/>
      <use xlink:href="#ArialMT-52" x="133.300781"/>
      <use xlink:href="#ArialMT-4c" x="205.517578"/>
     </g>
    </g>
   </g>
  </g>
 </g>
 <defs>
  <clipPath id="p53745038fa">
   <rect x="47.22" y="24.32" width="453.29622" height="189.57811"/>
  </clipPath>
 </defs>
</svg>
