<?xml version="1.0" encoding="utf-8" standalone="no"?>
<!DOCTYPE svg PUBLIC "-//W3C//DTD SVG 1.1//EN"
  "http://www.w3.org/Graphics/SVG/1.1/DTD/svg11.dtd">
<svg xmlns:xlink="http://www.w3.org/1999/xlink" width="510.23622pt" height="255.11811pt" viewBox="0 0 510.23622 255.11811" xmlns="http://www.w3.org/2000/svg" version="1.1">
 <metadata>
  <rdf:RDF xmlns:dc="http://purl.org/dc/elements/1.1/" xmlns:cc="http://creativecommons.org/ns#" xmlns:rdf="http://www.w3.org/1999/02/22-rdf-syntax-ns#">
   <cc:Work>
    <dc:type rdf:resource="http://purl.org/dc/dcmitype/StillImage"/>
    <dc:date>2022-04-27T00:12:02.197497</dc:date>
    <dc:format>image/svg+xml</dc:format>
    <dc:creator>
     <cc:Agent>
      <dc:title>Matplotlib v3.5.1, https://matplotlib.org/</dc:title>
     </cc:Agent>
    </dc:creator>
   </cc:Work>
  </rdf:RDF>
 </metadata>
 <defs>
  <style type="text/css">*{stroke-linejoin: round; stroke-linecap: butt}</style>
 </defs>
 <g id="figure_1">
  <g id="patch_1">
   <path d="M 0 255.11811 
L 510.23622 255.11811 
L 510.23622 0 
L 0 0 
z
" style="fill: #ffffff"/>
  </g>
  <g id="axes_1">
   <g id="patch_2">
    <path d="M 42.22 213.89811 
L 500.51622 213.89811 
L 500.51622 24.32 
L 42.22 24.32 
z
" style="fill: #ffffff"/>
   </g>
   <g id="matplotlib.axis_1">
    <g id="xtick_1">
     <g id="text_1">
      <!-- 49 -->
      <g style="fill: #444444" transform="translate(69.950601 229.840141)scale(0.09 -0.09)">
       <defs>
        <path id="ArialMT-34" d="M 2069 0 
L 2069 1097 
L 81 1097 
L 81 1613 
L 2172 4581 
L 2631 4581 
L 2631 1613 
L 3250 1613 
L 3250 1097 
L 2631 1097 
L 2631 0 
L 2069 0 
z
M 2069 1613 
L 2069 3678 
L 634 1613 
L 2069 1613 
z
" transform="scale(0.015625)"/>
        <path id="ArialMT-39" d="M 350 1059 
L 891 1109 
Q 959 728 1153 556 
Q 1347 384 1650 384 
Q 1909 384 2104 503 
Q 2300 622 2425 820 
Q 2550 1019 2634 1356 
Q 2719 1694 2719 2044 
Q 2719 2081 2716 2156 
Q 2547 1888 2255 1720 
Q 1963 1553 1622 1553 
Q 1053 1553 659 1965 
Q 266 2378 266 3053 
Q 266 3750 677 4175 
Q 1088 4600 1706 4600 
Q 2153 4600 2523 4359 
Q 2894 4119 3086 3673 
Q 3278 3228 3278 2384 
Q 3278 1506 3087 986 
Q 2897 466 2520 194 
Q 2144 -78 1638 -78 
Q 1100 -78 759 220 
Q 419 519 350 1059 
z
M 2653 3081 
Q 2653 3566 2395 3850 
Q 2138 4134 1775 4134 
Q 1400 4134 1122 3828 
Q 844 3522 844 3034 
Q 844 2597 1108 2323 
Q 1372 2050 1759 2050 
Q 2150 2050 2401 2323 
Q 2653 2597 2653 3081 
z
" transform="scale(0.015625)"/>
       </defs>
       <use xlink:href="#ArialMT-34"/>
       <use xlink:href="#ArialMT-39" x="55.615234"/>
      </g>
     </g>
    </g>
    <g id="xtick_2">
     <g id="text_2">
      <!-- 17 -->
      <g style="fill: #444444" transform="translate(135.421489 229.840141)scale(0.09 -0.09)">
       <defs>
        <path id="ArialMT-31" d="M 2384 0 
L 1822 0 
L 1822 3584 
Q 1619 3391 1289 3197 
Q 959 3003 697 2906 
L 697 3450 
Q 1169 3672 1522 3987 
Q 1875 4303 2022 4600 
L 2384 4600 
L 2384 0 
z
" transform="scale(0.015625)"/>
        <path id="ArialMT-37" d="M 303 3981 
L 303 4522 
L 3269 4522 
L 3269 4084 
Q 2831 3619 2401 2847 
Q 1972 2075 1738 1259 
Q 1569 684 1522 0 
L 944 0 
Q 953 541 1156 1306 
Q 1359 2072 1739 2783 
Q 2119 3494 2547 3981 
L 303 3981 
z
" transform="scale(0.015625)"/>
       </defs>
       <use xlink:href="#ArialMT-31"/>
       <use xlink:href="#ArialMT-37" x="55.615234"/>
      </g>
     </g>
    </g>
    <g id="xtick_3">
     <g id="text_3">
      <!-- 69 -->
      <g style="fill: #444444" transform="translate(200.892378 229.840141)scale(0.09 -0.09)">
       <defs>
        <path id="ArialMT-36" d="M 3184 3459 
L 2625 3416 
Q 2550 3747 2413 3897 
Q 2184 4138 1850 4138 
Q 1581 4138 1378 3988 
Q 1113 3794 959 3422 
Q 806 3050 800 2363 
Q 1003 2672 1297 2822 
Q 1591 2972 1913 2972 
Q 2475 2972 2870 2558 
Q 3266 2144 3266 1488 
Q 3266 1056 3080 686 
Q 2894 316 2569 119 
Q 2244 -78 1831 -78 
Q 1128 -78 684 439 
Q 241 956 241 2144 
Q 241 3472 731 4075 
Q 1159 4600 1884 4600 
Q 2425 4600 2770 4297 
Q 3116 3994 3184 3459 
z
M 888 1484 
Q 888 1194 1011 928 
Q 1134 663 1356 523 
Q 1578 384 1822 384 
Q 2178 384 2434 671 
Q 2691 959 2691 1453 
Q 2691 1928 2437 2201 
Q 2184 2475 1800 2475 
Q 1419 2475 1153 2201 
Q 888 1928 888 1484 
z
" transform="scale(0.015625)"/>
       </defs>
       <use xlink:href="#ArialMT-36"/>
       <use xlink:href="#ArialMT-39" x="55.615234"/>
      </g>
     </g>
    </g>
    <g id="xtick_4">
     <g id="text_4">
      <!-- 15 -->
      <g style="fill: #444444" transform="translate(266.363266 229.840141)scale(0.09 -0.09)">
       <defs>
        <path id="ArialMT-35" d="M 266 1200 
L 856 1250 
Q 922 819 1161 601 
Q 1400 384 1738 384 
Q 2144 384 2425 690 
Q 2706 997 2706 1503 
Q 2706 1984 2436 2262 
Q 2166 2541 1728 2541 
Q 1456 2541 1237 2417 
Q 1019 2294 894 2097 
L 366 2166 
L 809 4519 
L 3088 4519 
L 3088 3981 
L 1259 3981 
L 1013 2750 
Q 1425 3038 1878 3038 
Q 2478 3038 2890 2622 
Q 3303 2206 3303 1553 
Q 3303 931 2941 478 
Q 2500 -78 1738 -78 
Q 1113 -78 717 272 
Q 322 622 266 1200 
z
" transform="scale(0.015625)"/>
       </defs>
       <use xlink:href="#ArialMT-31"/>
       <use xlink:href="#ArialMT-35" x="55.615234"/>
      </g>
     </g>
    </g>
    <g id="xtick_5">
     <g id="text_5">
      <!-- 5 -->
      <g style="fill: #444444" transform="translate(334.336577 229.840141)scale(0.09 -0.09)">
       <use xlink:href="#ArialMT-35"/>
      </g>
     </g>
    </g>
    <g id="xtick_6">
     <g id="text_6">
      <!-- 126 -->
      <g style="fill: #444444" transform="translate(394.802622 229.840141)scale(0.09 -0.09)">
       <defs>
        <path id="ArialMT-32" d="M 3222 541 
L 3222 0 
L 194 0 
Q 188 203 259 391 
Q 375 700 629 1000 
Q 884 1300 1366 1694 
Q 2113 2306 2375 2664 
Q 2638 3022 2638 3341 
Q 2638 3675 2398 3904 
Q 2159 4134 1775 4134 
Q 1369 4134 1125 3890 
Q 881 3647 878 3216 
L 300 3275 
Q 359 3922 746 4261 
Q 1134 4600 1788 4600 
Q 2447 4600 2831 4234 
Q 3216 3869 3216 3328 
Q 3216 3053 3103 2787 
Q 2991 2522 2730 2228 
Q 2469 1934 1863 1422 
Q 1356 997 1212 845 
Q 1069 694 975 541 
L 3222 541 
z
" transform="scale(0.015625)"/>
       </defs>
       <use xlink:href="#ArialMT-31"/>
       <use xlink:href="#ArialMT-32" x="55.615234"/>
       <use xlink:href="#ArialMT-36" x="111.230469"/>
      </g>
     </g>
    </g>
    <g id="xtick_7">
     <g id="text_7">
      <!-- 62 -->
      <g style="fill: #444444" transform="translate(462.775932 229.840141)scale(0.09 -0.09)">
       <use xlink:href="#ArialMT-36"/>
       <use xlink:href="#ArialMT-32" x="55.615234"/>
      </g>
     </g>
    </g>
    <g id="text_8">
     <!-- Patient -->
     <g style="fill: #444444" transform="translate(257.359048 242.070923)scale(0.09 -0.09)">
      <defs>
       <path id="ArialMT-50" d="M 494 0 
L 494 4581 
L 2222 4581 
Q 2678 4581 2919 4538 
Q 3256 4481 3484 4323 
Q 3713 4166 3852 3881 
Q 3991 3597 3991 3256 
Q 3991 2672 3619 2267 
Q 3247 1863 2275 1863 
L 1100 1863 
L 1100 0 
L 494 0 
z
M 1100 2403 
L 2284 2403 
Q 2872 2403 3119 2622 
Q 3366 2841 3366 3238 
Q 3366 3525 3220 3729 
Q 3075 3934 2838 4000 
Q 2684 4041 2272 4041 
L 1100 4041 
L 1100 2403 
z
" transform="scale(0.015625)"/>
       <path id="ArialMT-61" d="M 2588 409 
Q 2275 144 1986 34 
Q 1697 -75 1366 -75 
Q 819 -75 525 192 
Q 231 459 231 875 
Q 231 1119 342 1320 
Q 453 1522 633 1644 
Q 813 1766 1038 1828 
Q 1203 1872 1538 1913 
Q 2219 1994 2541 2106 
Q 2544 2222 2544 2253 
Q 2544 2597 2384 2738 
Q 2169 2928 1744 2928 
Q 1347 2928 1158 2789 
Q 969 2650 878 2297 
L 328 2372 
Q 403 2725 575 2942 
Q 747 3159 1072 3276 
Q 1397 3394 1825 3394 
Q 2250 3394 2515 3294 
Q 2781 3194 2906 3042 
Q 3031 2891 3081 2659 
Q 3109 2516 3109 2141 
L 3109 1391 
Q 3109 606 3145 398 
Q 3181 191 3288 0 
L 2700 0 
Q 2613 175 2588 409 
z
M 2541 1666 
Q 2234 1541 1622 1453 
Q 1275 1403 1131 1340 
Q 988 1278 909 1158 
Q 831 1038 831 891 
Q 831 666 1001 516 
Q 1172 366 1500 366 
Q 1825 366 2078 508 
Q 2331 650 2450 897 
Q 2541 1088 2541 1459 
L 2541 1666 
z
" transform="scale(0.015625)"/>
       <path id="ArialMT-74" d="M 1650 503 
L 1731 6 
Q 1494 -44 1306 -44 
Q 1000 -44 831 53 
Q 663 150 594 308 
Q 525 466 525 972 
L 525 2881 
L 113 2881 
L 113 3319 
L 525 3319 
L 525 4141 
L 1084 4478 
L 1084 3319 
L 1650 3319 
L 1650 2881 
L 1084 2881 
L 1084 941 
Q 1084 700 1114 631 
Q 1144 563 1211 522 
Q 1278 481 1403 481 
Q 1497 481 1650 503 
z
" transform="scale(0.015625)"/>
       <path id="ArialMT-69" d="M 425 3934 
L 425 4581 
L 988 4581 
L 988 3934 
L 425 3934 
z
M 425 0 
L 425 3319 
L 988 3319 
L 988 0 
L 425 0 
z
" transform="scale(0.015625)"/>
       <path id="ArialMT-65" d="M 2694 1069 
L 3275 997 
Q 3138 488 2766 206 
Q 2394 -75 1816 -75 
Q 1088 -75 661 373 
Q 234 822 234 1631 
Q 234 2469 665 2931 
Q 1097 3394 1784 3394 
Q 2450 3394 2872 2941 
Q 3294 2488 3294 1666 
Q 3294 1616 3291 1516 
L 816 1516 
Q 847 969 1125 678 
Q 1403 388 1819 388 
Q 2128 388 2347 550 
Q 2566 713 2694 1069 
z
M 847 1978 
L 2700 1978 
Q 2663 2397 2488 2606 
Q 2219 2931 1791 2931 
Q 1403 2931 1139 2672 
Q 875 2413 847 1978 
z
" transform="scale(0.015625)"/>
       <path id="ArialMT-6e" d="M 422 0 
L 422 3319 
L 928 3319 
L 928 2847 
Q 1294 3394 1984 3394 
Q 2284 3394 2536 3286 
Q 2788 3178 2913 3003 
Q 3038 2828 3088 2588 
Q 3119 2431 3119 2041 
L 3119 0 
L 2556 0 
L 2556 2019 
Q 2556 2363 2490 2533 
Q 2425 2703 2258 2804 
Q 2091 2906 1866 2906 
Q 1506 2906 1245 2678 
Q 984 2450 984 1813 
L 984 0 
L 422 0 
z
" transform="scale(0.015625)"/>
      </defs>
      <use xlink:href="#ArialMT-50"/>
      <use xlink:href="#ArialMT-61" x="66.699219"/>
      <use xlink:href="#ArialMT-74" x="122.314453"/>
      <use xlink:href="#ArialMT-69" x="150.097656"/>
      <use xlink:href="#ArialMT-65" x="172.314453"/>
      <use xlink:href="#ArialMT-6e" x="227.929688"/>
      <use xlink:href="#ArialMT-74" x="283.544922"/>
     </g>
    </g>
   </g>
   <g id="matplotlib.axis_2">
    <g id="ytick_1">
     <g id="text_9">
      <!-- 20 -->
      <g style="fill: #444444" transform="translate(22.710313 192.069638)scale(0.09 -0.09)">
       <defs>
        <path id="ArialMT-30" d="M 266 2259 
Q 266 3072 433 3567 
Q 600 4063 929 4331 
Q 1259 4600 1759 4600 
Q 2128 4600 2406 4451 
Q 2684 4303 2865 4023 
Q 3047 3744 3150 3342 
Q 3253 2941 3253 2259 
Q 3253 1453 3087 958 
Q 2922 463 2592 192 
Q 2263 -78 1759 -78 
Q 1097 -78 719 397 
Q 266 969 266 2259 
z
M 844 2259 
Q 844 1131 1108 757 
Q 1372 384 1759 384 
Q 2147 384 2411 759 
Q 2675 1134 2675 2259 
Q 2675 3391 2411 3762 
Q 2147 4134 1753 4134 
Q 1366 4134 1134 3806 
Q 844 3388 844 2259 
z
" transform="scale(0.015625)"/>
       </defs>
       <use xlink:href="#ArialMT-32"/>
       <use xlink:href="#ArialMT-30" x="55.615234"/>
      </g>
     </g>
    </g>
    <g id="ytick_2">
     <g id="text_10">
      <!-- 30 -->
      <g style="fill: #444444" transform="translate(22.710313 164.044204)scale(0.09 -0.09)">
       <defs>
        <path id="ArialMT-33" d="M 269 1209 
L 831 1284 
Q 928 806 1161 595 
Q 1394 384 1728 384 
Q 2125 384 2398 659 
Q 2672 934 2672 1341 
Q 2672 1728 2419 1979 
Q 2166 2231 1775 2231 
Q 1616 2231 1378 2169 
L 1441 2663 
Q 1497 2656 1531 2656 
Q 1891 2656 2178 2843 
Q 2466 3031 2466 3422 
Q 2466 3731 2256 3934 
Q 2047 4138 1716 4138 
Q 1388 4138 1169 3931 
Q 950 3725 888 3313 
L 325 3413 
Q 428 3978 793 4289 
Q 1159 4600 1703 4600 
Q 2078 4600 2393 4439 
Q 2709 4278 2876 4000 
Q 3044 3722 3044 3409 
Q 3044 3113 2884 2869 
Q 2725 2625 2413 2481 
Q 2819 2388 3044 2092 
Q 3269 1797 3269 1353 
Q 3269 753 2831 336 
Q 2394 -81 1725 -81 
Q 1122 -81 723 278 
Q 325 638 269 1209 
z
" transform="scale(0.015625)"/>
       </defs>
       <use xlink:href="#ArialMT-33"/>
       <use xlink:href="#ArialMT-30" x="55.615234"/>
      </g>
     </g>
    </g>
    <g id="ytick_3">
     <g id="text_11">
      <!-- 40 -->
      <g style="fill: #444444" transform="translate(22.710313 136.01877)scale(0.09 -0.09)">
       <use xlink:href="#ArialMT-34"/>
       <use xlink:href="#ArialMT-30" x="55.615234"/>
      </g>
     </g>
    </g>
    <g id="ytick_4">
     <g id="text_12">
      <!-- 50 -->
      <g style="fill: #444444" transform="translate(22.710313 107.993336)scale(0.09 -0.09)">
       <use xlink:href="#ArialMT-35"/>
       <use xlink:href="#ArialMT-30" x="55.615234"/>
      </g>
     </g>
    </g>
    <g id="ytick_5">
     <g id="text_13">
      <!-- 60 -->
      <g style="fill: #444444" transform="translate(22.710313 79.967901)scale(0.09 -0.09)">
       <use xlink:href="#ArialMT-36"/>
       <use xlink:href="#ArialMT-30" x="55.615234"/>
      </g>
     </g>
    </g>
    <g id="ytick_6">
     <g id="text_14">
      <!-- 70 -->
      <g style="fill: #444444" transform="translate(22.710313 51.942467)scale(0.09 -0.09)">
       <use xlink:href="#ArialMT-37"/>
       <use xlink:href="#ArialMT-30" x="55.615234"/>
      </g>
     </g>
    </g>
    <g id="text_15">
     <!-- Trimmed Means of M values (TMM) -->
     <g style="fill: #444444" transform="translate(16.816094 190.194993)rotate(-90)scale(0.09 -0.09)">
      <defs>
       <path id="ArialMT-54" d="M 1659 0 
L 1659 4041 
L 150 4041 
L 150 4581 
L 3781 4581 
L 3781 4041 
L 2266 4041 
L 2266 0 
L 1659 0 
z
" transform="scale(0.015625)"/>
       <path id="ArialMT-72" d="M 416 0 
L 416 3319 
L 922 3319 
L 922 2816 
Q 1116 3169 1280 3281 
Q 1444 3394 1641 3394 
Q 1925 3394 2219 3213 
L 2025 2691 
Q 1819 2813 1613 2813 
Q 1428 2813 1281 2702 
Q 1134 2591 1072 2394 
Q 978 2094 978 1738 
L 978 0 
L 416 0 
z
" transform="scale(0.015625)"/>
       <path id="ArialMT-6d" d="M 422 0 
L 422 3319 
L 925 3319 
L 925 2853 
Q 1081 3097 1340 3245 
Q 1600 3394 1931 3394 
Q 2300 3394 2536 3241 
Q 2772 3088 2869 2813 
Q 3263 3394 3894 3394 
Q 4388 3394 4653 3120 
Q 4919 2847 4919 2278 
L 4919 0 
L 4359 0 
L 4359 2091 
Q 4359 2428 4304 2576 
Q 4250 2725 4106 2815 
Q 3963 2906 3769 2906 
Q 3419 2906 3187 2673 
Q 2956 2441 2956 1928 
L 2956 0 
L 2394 0 
L 2394 2156 
Q 2394 2531 2256 2718 
Q 2119 2906 1806 2906 
Q 1569 2906 1367 2781 
Q 1166 2656 1075 2415 
Q 984 2175 984 1722 
L 984 0 
L 422 0 
z
" transform="scale(0.015625)"/>
       <path id="ArialMT-64" d="M 2575 0 
L 2575 419 
Q 2259 -75 1647 -75 
Q 1250 -75 917 144 
Q 584 363 401 755 
Q 219 1147 219 1656 
Q 219 2153 384 2558 
Q 550 2963 881 3178 
Q 1213 3394 1622 3394 
Q 1922 3394 2156 3267 
Q 2391 3141 2538 2938 
L 2538 4581 
L 3097 4581 
L 3097 0 
L 2575 0 
z
M 797 1656 
Q 797 1019 1065 703 
Q 1334 388 1700 388 
Q 2069 388 2326 689 
Q 2584 991 2584 1609 
Q 2584 2291 2321 2609 
Q 2059 2928 1675 2928 
Q 1300 2928 1048 2622 
Q 797 2316 797 1656 
z
" transform="scale(0.015625)"/>
       <path id="ArialMT-20" transform="scale(0.015625)"/>
       <path id="ArialMT-4d" d="M 475 0 
L 475 4581 
L 1388 4581 
L 2472 1338 
Q 2622 884 2691 659 
Q 2769 909 2934 1394 
L 4031 4581 
L 4847 4581 
L 4847 0 
L 4263 0 
L 4263 3834 
L 2931 0 
L 2384 0 
L 1059 3900 
L 1059 0 
L 475 0 
z
" transform="scale(0.015625)"/>
       <path id="ArialMT-73" d="M 197 991 
L 753 1078 
Q 800 744 1014 566 
Q 1228 388 1613 388 
Q 2000 388 2187 545 
Q 2375 703 2375 916 
Q 2375 1106 2209 1216 
Q 2094 1291 1634 1406 
Q 1016 1563 777 1677 
Q 538 1791 414 1992 
Q 291 2194 291 2438 
Q 291 2659 392 2848 
Q 494 3038 669 3163 
Q 800 3259 1026 3326 
Q 1253 3394 1513 3394 
Q 1903 3394 2198 3281 
Q 2494 3169 2634 2976 
Q 2775 2784 2828 2463 
L 2278 2388 
Q 2241 2644 2061 2787 
Q 1881 2931 1553 2931 
Q 1166 2931 1000 2803 
Q 834 2675 834 2503 
Q 834 2394 903 2306 
Q 972 2216 1119 2156 
Q 1203 2125 1616 2013 
Q 2213 1853 2448 1751 
Q 2684 1650 2818 1456 
Q 2953 1263 2953 975 
Q 2953 694 2789 445 
Q 2625 197 2315 61 
Q 2006 -75 1616 -75 
Q 969 -75 630 194 
Q 291 463 197 991 
z
" transform="scale(0.015625)"/>
       <path id="ArialMT-6f" d="M 213 1659 
Q 213 2581 725 3025 
Q 1153 3394 1769 3394 
Q 2453 3394 2887 2945 
Q 3322 2497 3322 1706 
Q 3322 1066 3130 698 
Q 2938 331 2570 128 
Q 2203 -75 1769 -75 
Q 1072 -75 642 372 
Q 213 819 213 1659 
z
M 791 1659 
Q 791 1022 1069 705 
Q 1347 388 1769 388 
Q 2188 388 2466 706 
Q 2744 1025 2744 1678 
Q 2744 2294 2464 2611 
Q 2184 2928 1769 2928 
Q 1347 2928 1069 2612 
Q 791 2297 791 1659 
z
" transform="scale(0.015625)"/>
       <path id="ArialMT-66" d="M 556 0 
L 556 2881 
L 59 2881 
L 59 3319 
L 556 3319 
L 556 3672 
Q 556 4006 616 4169 
Q 697 4388 901 4523 
Q 1106 4659 1475 4659 
Q 1713 4659 2000 4603 
L 1916 4113 
Q 1741 4144 1584 4144 
Q 1328 4144 1222 4034 
Q 1116 3925 1116 3625 
L 1116 3319 
L 1763 3319 
L 1763 2881 
L 1116 2881 
L 1116 0 
L 556 0 
z
" transform="scale(0.015625)"/>
       <path id="ArialMT-76" d="M 1344 0 
L 81 3319 
L 675 3319 
L 1388 1331 
Q 1503 1009 1600 663 
Q 1675 925 1809 1294 
L 2547 3319 
L 3125 3319 
L 1869 0 
L 1344 0 
z
" transform="scale(0.015625)"/>
       <path id="ArialMT-6c" d="M 409 0 
L 409 4581 
L 972 4581 
L 972 0 
L 409 0 
z
" transform="scale(0.015625)"/>
       <path id="ArialMT-75" d="M 2597 0 
L 2597 488 
Q 2209 -75 1544 -75 
Q 1250 -75 995 37 
Q 741 150 617 320 
Q 494 491 444 738 
Q 409 903 409 1263 
L 409 3319 
L 972 3319 
L 972 1478 
Q 972 1038 1006 884 
Q 1059 663 1231 536 
Q 1403 409 1656 409 
Q 1909 409 2131 539 
Q 2353 669 2445 892 
Q 2538 1116 2538 1541 
L 2538 3319 
L 3100 3319 
L 3100 0 
L 2597 0 
z
" transform="scale(0.015625)"/>
       <path id="ArialMT-28" d="M 1497 -1347 
Q 1031 -759 709 28 
Q 388 816 388 1659 
Q 388 2403 628 3084 
Q 909 3875 1497 4659 
L 1900 4659 
Q 1522 4009 1400 3731 
Q 1209 3300 1100 2831 
Q 966 2247 966 1656 
Q 966 153 1900 -1347 
L 1497 -1347 
z
" transform="scale(0.015625)"/>
       <path id="ArialMT-29" d="M 791 -1347 
L 388 -1347 
Q 1322 153 1322 1656 
Q 1322 2244 1188 2822 
Q 1081 3291 891 3722 
Q 769 4003 388 4659 
L 791 4659 
Q 1378 3875 1659 3084 
Q 1900 2403 1900 1659 
Q 1900 816 1576 28 
Q 1253 -759 791 -1347 
z
" transform="scale(0.015625)"/>
      </defs>
      <use xlink:href="#ArialMT-54"/>
      <use xlink:href="#ArialMT-72" x="57.333984"/>
      <use xlink:href="#ArialMT-69" x="90.634766"/>
      <use xlink:href="#ArialMT-6d" x="112.851562"/>
      <use xlink:href="#ArialMT-6d" x="196.152344"/>
      <use xlink:href="#ArialMT-65" x="279.453125"/>
      <use xlink:href="#ArialMT-64" x="335.068359"/>
      <use xlink:href="#ArialMT-20" x="390.683594"/>
      <use xlink:href="#ArialMT-4d" x="418.466797"/>
      <use xlink:href="#ArialMT-65" x="501.767578"/>
      <use xlink:href="#ArialMT-61" x="557.382812"/>
      <use xlink:href="#ArialMT-6e" x="612.998047"/>
      <use xlink:href="#ArialMT-73" x="668.613281"/>
      <use xlink:href="#ArialMT-20" x="718.613281"/>
      <use xlink:href="#ArialMT-6f" x="746.396484"/>
      <use xlink:href="#ArialMT-66" x="802.011719"/>
      <use xlink:href="#ArialMT-20" x="829.794922"/>
      <use xlink:href="#ArialMT-4d" x="857.578125"/>
      <use xlink:href="#ArialMT-20" x="940.878906"/>
      <use xlink:href="#ArialMT-76" x="968.662109"/>
      <use xlink:href="#ArialMT-61" x="1018.662109"/>
      <use xlink:href="#ArialMT-6c" x="1074.277344"/>
      <use xlink:href="#ArialMT-75" x="1096.494141"/>
      <use xlink:href="#ArialMT-65" x="1152.109375"/>
      <use xlink:href="#ArialMT-73" x="1207.724609"/>
      <use xlink:href="#ArialMT-20" x="1257.724609"/>
      <use xlink:href="#ArialMT-28" x="1285.507812"/>
      <use xlink:href="#ArialMT-54" x="1318.808594"/>
      <use xlink:href="#ArialMT-4d" x="1379.892578"/>
      <use xlink:href="#ArialMT-4d" x="1463.193359"/>
      <use xlink:href="#ArialMT-29" x="1546.494141"/>
     </g>
    </g>
   </g>
   <g id="PolyCollection_1">
    <defs>
     <path id="m0d49a22adf" d="M 83.445296 -56.154693 
L 66.465593 -56.154693 
L 66.292469 -56.292655 
L 66.124931 -56.430618 
L 65.963063 -56.56858 
L 65.806893 -56.706543 
L 65.656392 -56.844506 
L 65.511474 -56.982468 
L 65.371992 -57.120431 
L 65.237736 -57.258393 
L 65.108441 -57.396356 
L 64.983778 -57.534318 
L 64.863361 -57.672281 
L 64.746747 -57.810243 
L 64.633435 -57.948206 
L 64.522874 -58.086168 
L 64.414461 -58.224131 
L 64.307548 -58.362094 
L 64.201443 -58.500056 
L 64.095415 -58.638019 
L 63.988703 -58.775981 
L 63.880514 -58.913944 
L 63.770035 -59.051906 
L 63.656438 -59.189869 
L 63.538884 -59.327831 
L 63.41653 -59.465794 
L 63.288539 -59.603757 
L 63.154087 -59.741719 
L 63.012366 -59.879682 
L 62.862595 -60.017644 
L 62.70403 -60.155607 
L 62.535965 -60.293569 
L 62.357744 -60.431532 
L 62.168768 -60.569494 
L 61.9685 -60.707457 
L 61.756474 -60.845419 
L 61.532298 -60.983382 
L 61.295663 -61.121345 
L 61.046346 -61.259307 
L 60.784218 -61.39727 
L 60.509242 -61.535232 
L 60.221482 -61.673195 
L 59.921103 -61.811157 
L 59.608372 -61.94912 
L 59.283663 -62.087082 
L 58.947451 -62.225045 
L 58.600316 -62.363007 
L 58.24294 -62.50097 
L 57.876105 -62.638933 
L 57.500689 -62.776895 
L 57.117663 -62.914858 
L 56.728084 -63.05282 
L 56.333094 -63.190783 
L 55.93391 -63.328745 
L 55.531819 -63.466708 
L 55.12817 -63.60467 
L 54.724368 -63.742633 
L 54.321865 -63.880596 
L 53.922149 -64.018558 
L 53.526741 -64.156521 
L 53.137182 -64.294483 
L 52.755026 -64.432446 
L 52.38183 -64.570408 
L 52.019144 -64.708371 
L 51.668508 -64.846333 
L 51.331437 -64.984296 
L 51.009414 -65.122258 
L 50.703887 -65.260221 
L 50.416254 -65.398184 
L 50.14786 -65.536146 
L 49.899991 -65.674109 
L 49.673864 -65.812071 
L 49.470624 -65.950034 
L 49.291335 -66.087996 
L 49.136978 -66.225959 
L 49.008446 -66.363921 
L 48.906539 -66.501884 
L 48.831959 -66.639846 
L 48.785309 -66.777809 
L 48.767089 -66.915772 
L 48.777695 -67.053734 
L 48.817416 -67.191697 
L 48.886433 -67.329659 
L 48.984818 -67.467622 
L 49.112534 -67.605584 
L 49.269436 -67.743547 
L 49.45527 -67.881509 
L 49.669676 -68.019472 
L 49.912185 -68.157434 
L 50.182229 -68.295397 
L 50.479136 -68.43336 
L 50.802138 -68.571322 
L 51.150369 -68.709285 
L 51.522877 -68.847247 
L 51.91862 -68.98521 
L 52.336478 -69.123172 
L 52.775253 -69.261135 
L 53.233678 -69.399097 
L 53.71042 -69.53706 
L 54.204091 -69.675023 
L 54.713253 -69.812985 
L 95.197636 -69.812985 
L 95.197636 -69.812985 
L 95.706797 -69.675023 
L 96.200469 -69.53706 
L 96.677211 -69.399097 
L 97.135635 -69.261135 
L 97.57441 -69.123172 
L 97.992268 -68.98521 
L 98.388012 -68.847247 
L 98.76052 -68.709285 
L 99.108751 -68.571322 
L 99.431752 -68.43336 
L 99.728659 -68.295397 
L 99.998703 -68.157434 
L 100.241213 -68.019472 
L 100.455618 -67.881509 
L 100.641452 -67.743547 
L 100.798355 -67.605584 
L 100.926071 -67.467622 
L 101.024456 -67.329659 
L 101.093473 -67.191697 
L 101.133194 -67.053734 
L 101.1438 -66.915772 
L 101.12558 -66.777809 
L 101.07893 -66.639846 
L 101.00435 -66.501884 
L 100.902442 -66.363921 
L 100.773911 -66.225959 
L 100.619554 -66.087996 
L 100.440265 -65.950034 
L 100.237024 -65.812071 
L 100.010897 -65.674109 
L 99.763028 -65.536146 
L 99.494635 -65.398184 
L 99.207002 -65.260221 
L 98.901474 -65.122258 
L 98.579452 -64.984296 
L 98.24238 -64.846333 
L 97.891744 -64.708371 
L 97.529059 -64.570408 
L 97.155862 -64.432446 
L 96.773706 -64.294483 
L 96.384147 -64.156521 
L 95.98874 -64.018558 
L 95.589024 -63.880596 
L 95.18652 -63.742633 
L 94.782718 -63.60467 
L 94.37907 -63.466708 
L 93.976979 -63.328745 
L 93.577794 -63.190783 
L 93.182804 -63.05282 
L 92.793226 -62.914858 
L 92.410199 -62.776895 
L 92.034783 -62.638933 
L 91.667948 -62.50097 
L 91.310573 -62.363007 
L 90.963438 -62.225045 
L 90.627226 -62.087082 
L 90.302516 -61.94912 
L 89.989786 -61.811157 
L 89.689407 -61.673195 
L 89.401647 -61.535232 
L 89.126671 -61.39727 
L 88.864542 -61.259307 
L 88.615226 -61.121345 
L 88.378591 -60.983382 
L 88.154415 -60.845419 
L 87.942389 -60.707457 
L 87.742121 -60.569494 
L 87.553145 -60.431532 
L 87.374924 -60.293569 
L 87.206859 -60.155607 
L 87.048293 -60.017644 
L 86.898523 -59.879682 
L 86.756802 -59.741719 
L 86.622349 -59.603757 
L 86.494359 -59.465794 
L 86.372005 -59.327831 
L 86.25445 -59.189869 
L 86.140853 -59.051906 
L 86.030375 -58.913944 
L 85.922186 -58.775981 
L 85.815473 -58.638019 
L 85.709446 -58.500056 
L 85.60334 -58.362094 
L 85.496427 -58.224131 
L 85.388015 -58.086168 
L 85.277454 -57.948206 
L 85.164142 -57.810243 
L 85.047528 -57.672281 
L 84.927111 -57.534318 
L 84.802448 -57.396356 
L 84.673152 -57.258393 
L 84.538897 -57.120431 
L 84.399414 -56.982468 
L 84.254496 -56.844506 
L 84.103996 -56.706543 
L 83.947826 -56.56858 
L 83.785958 -56.430618 
L 83.618419 -56.292655 
L 83.445296 -56.154693 
z
" style="stroke: #999999; stroke-width: 2"/>
    </defs>
    <g clip-path="url(#p2691f66001)">
     <use xlink:href="#m0d49a22adf" x="0" y="255.11811" style="fill: #ffffff; stroke: #999999; stroke-width: 2"/>
    </g>
   </g>
   <g id="PolyCollection_2">
    <defs>
     <path id="me7ac5f4d6c" d="M 145.923803 -94.283833 
L 134.928863 -94.283833 
L 134.787473 -94.556831 
L 134.649109 -94.82983 
L 134.514092 -95.102828 
L 134.38273 -95.375827 
L 134.255312 -95.648825 
L 134.132111 -95.921823 
L 134.013377 -96.194822 
L 133.899336 -96.46782 
L 133.790189 -96.740818 
L 133.686104 -97.013817 
L 133.587223 -97.286815 
L 133.493649 -97.559813 
L 133.405454 -97.832812 
L 133.322669 -98.10581 
L 133.245289 -98.378809 
L 133.173264 -98.651807 
L 133.106507 -98.924805 
L 133.044887 -99.197804 
L 132.98823 -99.470802 
L 132.936319 -99.7438 
L 132.888896 -100.016799 
L 132.84566 -100.289797 
L 132.806272 -100.562796 
L 132.770352 -100.835794 
L 132.737485 -101.108792 
L 132.707223 -101.381791 
L 132.679087 -101.654789 
L 132.652571 -101.927787 
L 132.627145 -102.200786 
L 132.602261 -102.473784 
L 132.577359 -102.746782 
L 132.551868 -103.019781 
L 132.525213 -103.292779 
L 132.496823 -103.565778 
L 132.466135 -103.838776 
L 132.432597 -104.111774 
L 132.39568 -104.384773 
L 132.354879 -104.657771 
L 132.309721 -104.930769 
L 132.259772 -105.203768 
L 132.204639 -105.476766 
L 132.143979 -105.749765 
L 132.077501 -106.022763 
L 132.004972 -106.295761 
L 131.926223 -106.56876 
L 131.841148 -106.841758 
L 131.749712 -107.114756 
L 131.651949 -107.387755 
L 131.547967 -107.660753 
L 131.437947 -107.933751 
L 131.322143 -108.20675 
L 131.200885 -108.479748 
L 131.074573 -108.752747 
L 130.943679 -109.025745 
L 130.808742 -109.298743 
L 130.670366 -109.571742 
L 130.529214 -109.84474 
L 130.386007 -110.117738 
L 130.241514 -110.390737 
L 130.09655 -110.663735 
L 129.951969 -110.936734 
L 129.808655 -111.209732 
L 129.667517 -111.48273 
L 129.529482 -111.755729 
L 129.395486 -112.028727 
L 129.266468 -112.301725 
L 129.143359 -112.574724 
L 129.027078 -112.847722 
L 128.918524 -113.12072 
L 128.818566 -113.393719 
L 128.728039 -113.666717 
L 128.647733 -113.939716 
L 128.578393 -114.212714 
L 128.520707 -114.485712 
L 128.475305 -114.758711 
L 128.442751 -115.031709 
L 128.42354 -115.304707 
L 128.418096 -115.577706 
L 128.426765 -115.850704 
L 128.449819 -116.123703 
L 128.487449 -116.396701 
L 128.539765 -116.669699 
L 128.606799 -116.942698 
L 128.688502 -117.215696 
L 128.784747 -117.488694 
L 128.89533 -117.761693 
L 129.019975 -118.034691 
L 129.158331 -118.307689 
L 129.309983 -118.580688 
L 129.474449 -118.853686 
L 129.65119 -119.126685 
L 129.839611 -119.399683 
L 130.039066 -119.672681 
L 130.248868 -119.94568 
L 130.468288 -120.218678 
L 130.696564 -120.491676 
L 130.932909 -120.764675 
L 131.17651 -121.037673 
L 131.426541 -121.310672 
L 149.426125 -121.310672 
L 149.426125 -121.310672 
L 149.676156 -121.037673 
L 149.919757 -120.764675 
L 150.156101 -120.491676 
L 150.384378 -120.218678 
L 150.603798 -119.94568 
L 150.8136 -119.672681 
L 151.013055 -119.399683 
L 151.201476 -119.126685 
L 151.378217 -118.853686 
L 151.542683 -118.580688 
L 151.694335 -118.307689 
L 151.832691 -118.034691 
L 151.957335 -117.761693 
L 152.067919 -117.488694 
L 152.164164 -117.215696 
L 152.245867 -116.942698 
L 152.312901 -116.669699 
L 152.365217 -116.396701 
L 152.402846 -116.123703 
L 152.425901 -115.850704 
L 152.43457 -115.577706 
L 152.429126 -115.304707 
L 152.409915 -115.031709 
L 152.377361 -114.758711 
L 152.331959 -114.485712 
L 152.274273 -114.212714 
L 152.204933 -113.939716 
L 152.124627 -113.666717 
L 152.0341 -113.393719 
L 151.934142 -113.12072 
L 151.825588 -112.847722 
L 151.709307 -112.574724 
L 151.586198 -112.301725 
L 151.45718 -112.028727 
L 151.323184 -111.755729 
L 151.185149 -111.48273 
L 151.044011 -111.209732 
L 150.900697 -110.936734 
L 150.756116 -110.663735 
L 150.611152 -110.390737 
L 150.466659 -110.117738 
L 150.323452 -109.84474 
L 150.1823 -109.571742 
L 150.043924 -109.298743 
L 149.908987 -109.025745 
L 149.778093 -108.752747 
L 149.651781 -108.479748 
L 149.530523 -108.20675 
L 149.414719 -107.933751 
L 149.304699 -107.660753 
L 149.200716 -107.387755 
L 149.102954 -107.114756 
L 149.011517 -106.841758 
L 148.926443 -106.56876 
L 148.847694 -106.295761 
L 148.775165 -106.022763 
L 148.708687 -105.749765 
L 148.648027 -105.476766 
L 148.592894 -105.203768 
L 148.542945 -104.930769 
L 148.497787 -104.657771 
L 148.456986 -104.384773 
L 148.420069 -104.111774 
L 148.386531 -103.838776 
L 148.355842 -103.565778 
L 148.327453 -103.292779 
L 148.300798 -103.019781 
L 148.275307 -102.746782 
L 148.250405 -102.473784 
L 148.225521 -102.200786 
L 148.200095 -101.927787 
L 148.173579 -101.654789 
L 148.145443 -101.381791 
L 148.115181 -101.108792 
L 148.082314 -100.835794 
L 148.046394 -100.562796 
L 148.007006 -100.289797 
L 147.96377 -100.016799 
L 147.916347 -99.7438 
L 147.864436 -99.470802 
L 147.807779 -99.197804 
L 147.746159 -98.924805 
L 147.679402 -98.651807 
L 147.607377 -98.378809 
L 147.529996 -98.10581 
L 147.447212 -97.832812 
L 147.359017 -97.559813 
L 147.265443 -97.286815 
L 147.166562 -97.013817 
L 147.062477 -96.740818 
L 146.95333 -96.46782 
L 146.839289 -96.194822 
L 146.720555 -95.921823 
L 146.597354 -95.648825 
L 146.469936 -95.375827 
L 146.338574 -95.102828 
L 146.203557 -94.82983 
L 146.065193 -94.556831 
L 145.923803 -94.283833 
z
" style="stroke: #999999; stroke-width: 2"/>
    </defs>
    <g clip-path="url(#p2691f66001)">
     <use xlink:href="#me7ac5f4d6c" x="0" y="255.11811" style="fill: #ffffff; stroke: #999999; stroke-width: 2"/>
    </g>
   </g>
   <g id="PolyCollection_3">
    <defs>
     <path id="m95ff9ced9c" d="M 208.080521 -162.425728 
L 203.713923 -162.425728 
L 203.648391 -163.029316 
L 203.582267 -163.632904 
L 203.515561 -164.236492 
L 203.448282 -164.840079 
L 203.380441 -165.443667 
L 203.312053 -166.047255 
L 203.243135 -166.650843 
L 203.173709 -167.254431 
L 203.103803 -167.858019 
L 203.033448 -168.461606 
L 202.962685 -169.065194 
L 202.89156 -169.668782 
L 202.820129 -170.27237 
L 202.748454 -170.875958 
L 202.676609 -171.479546 
L 202.604675 -172.083133 
L 202.532746 -172.686721 
L 202.460922 -173.290309 
L 202.389317 -173.893897 
L 202.318051 -174.497485 
L 202.247256 -175.101073 
L 202.177073 -175.70466 
L 202.10765 -176.308248 
L 202.039143 -176.911836 
L 201.971716 -177.515424 
L 201.905536 -178.119012 
L 201.840777 -178.7226 
L 201.777615 -179.326187 
L 201.716225 -179.929775 
L 201.656786 -180.533363 
L 201.599471 -181.136951 
L 201.544452 -181.740539 
L 201.491895 -182.344126 
L 201.441956 -182.947714 
L 201.394786 -183.551302 
L 201.350522 -184.15489 
L 201.309289 -184.758478 
L 201.271197 -185.362066 
L 201.236342 -185.965653 
L 201.204801 -186.569241 
L 201.176631 -187.172829 
L 201.151874 -187.776417 
L 201.130546 -188.380005 
L 201.112645 -188.983593 
L 201.098147 -189.58718 
L 201.087007 -190.190768 
L 201.079157 -190.794356 
L 201.074507 -191.397944 
L 201.072951 -192.001532 
L 201.074358 -192.60512 
L 201.078583 -193.208707 
L 201.085461 -193.812295 
L 201.094815 -194.415883 
L 201.106451 -195.019471 
L 201.120168 -195.623059 
L 201.135753 -196.226647 
L 201.152989 -196.830234 
L 201.171653 -197.433822 
L 201.191522 -198.03741 
L 201.212375 -198.640998 
L 201.233995 -199.244586 
L 201.256172 -199.848174 
L 201.278703 -200.451761 
L 201.301402 -201.055349 
L 201.324094 -201.658937 
L 201.346622 -202.262525 
L 201.368846 -202.866113 
L 201.390648 -203.469701 
L 201.411933 -204.073288 
L 201.432627 -204.676876 
L 201.452681 -205.280464 
L 201.472073 -205.884052 
L 201.490803 -206.48764 
L 201.508899 -207.091228 
L 201.526411 -207.694815 
L 201.543415 -208.298403 
L 201.560011 -208.901991 
L 201.57632 -209.505579 
L 201.592482 -210.109167 
L 201.608657 -210.712755 
L 201.625022 -211.316342 
L 201.641767 -211.91993 
L 201.659093 -212.523518 
L 201.677212 -213.127106 
L 201.696339 -213.730694 
L 201.716696 -214.334282 
L 201.738503 -214.937869 
L 201.761978 -215.541457 
L 201.787335 -216.145045 
L 201.814778 -216.748633 
L 201.844503 -217.352221 
L 201.876689 -217.955809 
L 201.911502 -218.559396 
L 201.949092 -219.162984 
L 201.989585 -219.766572 
L 202.03309 -220.37016 
L 202.079691 -220.973748 
L 202.129449 -221.577336 
L 202.1824 -222.180923 
L 209.612043 -222.180923 
L 209.612043 -222.180923 
L 209.664994 -221.577336 
L 209.714752 -220.973748 
L 209.761353 -220.37016 
L 209.804858 -219.766572 
L 209.845351 -219.162984 
L 209.882941 -218.559396 
L 209.917755 -217.955809 
L 209.949941 -217.352221 
L 209.979665 -216.748633 
L 210.007108 -216.145045 
L 210.032465 -215.541457 
L 210.05594 -214.937869 
L 210.077747 -214.334282 
L 210.098104 -213.730694 
L 210.117232 -213.127106 
L 210.13535 -212.523518 
L 210.152676 -211.91993 
L 210.169421 -211.316342 
L 210.185786 -210.712755 
L 210.201961 -210.109167 
L 210.218124 -209.505579 
L 210.234432 -208.901991 
L 210.251028 -208.298403 
L 210.268033 -207.694815 
L 210.285545 -207.091228 
L 210.30364 -206.48764 
L 210.32237 -205.884052 
L 210.341762 -205.280464 
L 210.361816 -204.676876 
L 210.38251 -204.073288 
L 210.403795 -203.469701 
L 210.425598 -202.866113 
L 210.447822 -202.262525 
L 210.470349 -201.658937 
L 210.493041 -201.055349 
L 210.51574 -200.451761 
L 210.538272 -199.848174 
L 210.560448 -199.244586 
L 210.582068 -198.640998 
L 210.602921 -198.03741 
L 210.62279 -197.433822 
L 210.641454 -196.830234 
L 210.65869 -196.226647 
L 210.674275 -195.623059 
L 210.687992 -195.019471 
L 210.699629 -194.415883 
L 210.708982 -193.812295 
L 210.715861 -193.208707 
L 210.720085 -192.60512 
L 210.721493 -192.001532 
L 210.719936 -191.397944 
L 210.715287 -190.794356 
L 210.707436 -190.190768 
L 210.696296 -189.58718 
L 210.681798 -188.983593 
L 210.663897 -188.380005 
L 210.642569 -187.776417 
L 210.617812 -187.172829 
L 210.589643 -186.569241 
L 210.558101 -185.965653 
L 210.523246 -185.362066 
L 210.485154 -184.758478 
L 210.443921 -184.15489 
L 210.399657 -183.551302 
L 210.352487 -182.947714 
L 210.302548 -182.344126 
L 210.249991 -181.740539 
L 210.194972 -181.136951 
L 210.137657 -180.533363 
L 210.078218 -179.929775 
L 210.016829 -179.326187 
L 209.953666 -178.7226 
L 209.888907 -178.119012 
L 209.822728 -177.515424 
L 209.7553 -176.911836 
L 209.686793 -176.308248 
L 209.61737 -175.70466 
L 209.547187 -175.101073 
L 209.476392 -174.497485 
L 209.405126 -173.893897 
L 209.333521 -173.290309 
L 209.261697 -172.686721 
L 209.189768 -172.083133 
L 209.117834 -171.479546 
L 209.045989 -170.875958 
L 208.974315 -170.27237 
L 208.902883 -169.668782 
L 208.831758 -169.065194 
L 208.760995 -168.461606 
L 208.690641 -167.858019 
L 208.620734 -167.254431 
L 208.551308 -166.650843 
L 208.482391 -166.047255 
L 208.414002 -165.443667 
L 208.346161 -164.840079 
L 208.278882 -164.236492 
L 208.212176 -163.632904 
L 208.146052 -163.029316 
L 208.080521 -162.425728 
z
" style="stroke: #999999; stroke-width: 2"/>
    </defs>
    <g clip-path="url(#p2691f66001)">
     <use xlink:href="#m95ff9ced9c" x="0" y="255.11811" style="fill: #ffffff; stroke: #999999; stroke-width: 2"/>
    </g>
   </g>
   <g id="PolyCollection_4">
    <defs>
     <path id="mf740aaa7ca" d="M 274.460087 -142.03684 
L 268.276133 -142.03684 
L 268.145378 -142.547071 
L 268.013195 -143.057303 
L 267.879794 -143.567534 
L 267.745398 -144.077765 
L 267.610245 -144.587997 
L 267.474588 -145.098228 
L 267.338688 -145.608459 
L 267.202823 -146.118691 
L 267.067279 -146.628922 
L 266.932353 -147.139153 
L 266.79835 -147.649384 
L 266.66558 -148.159616 
L 266.534357 -148.669847 
L 266.404995 -149.180078 
L 266.277808 -149.69031 
L 266.153104 -150.200541 
L 266.031181 -150.710772 
L 265.912329 -151.221004 
L 265.796822 -151.731235 
L 265.684916 -152.241466 
L 265.576849 -152.751698 
L 265.472833 -153.261929 
L 265.373058 -153.77216 
L 265.277685 -154.282392 
L 265.186848 -154.792623 
L 265.100649 -155.302854 
L 265.019164 -155.813086 
L 264.942436 -156.323317 
L 264.87048 -156.833548 
L 264.803285 -157.34378 
L 264.74081 -157.854011 
L 264.682994 -158.364242 
L 264.629753 -158.874474 
L 264.580985 -159.384705 
L 264.536576 -159.894936 
L 264.496397 -160.405167 
L 264.460316 -160.915399 
L 264.428197 -161.42563 
L 264.399904 -161.935861 
L 264.375307 -162.446093 
L 264.354285 -162.956324 
L 264.336727 -163.466555 
L 264.322539 -163.976787 
L 264.311645 -164.487018 
L 264.303985 -164.997249 
L 264.299525 -165.507481 
L 264.298249 -166.017712 
L 264.300166 -166.527943 
L 264.305305 -167.038175 
L 264.31372 -167.548406 
L 264.32548 -168.058637 
L 264.340676 -168.568869 
L 264.35941 -169.0791 
L 264.381801 -169.589331 
L 264.407973 -170.099563 
L 264.438058 -170.609794 
L 264.472186 -171.120025 
L 264.510488 -171.630257 
L 264.553086 -172.140488 
L 264.600092 -172.650719 
L 264.651603 -173.16095 
L 264.707697 -173.671182 
L 264.768433 -174.181413 
L 264.833844 -174.691644 
L 264.903934 -175.201876 
L 264.978683 -175.712107 
L 265.058035 -176.222338 
L 265.141909 -176.73257 
L 265.230188 -177.242801 
L 265.322728 -177.753032 
L 265.419351 -178.263264 
L 265.519856 -178.773495 
L 265.624011 -179.283726 
L 265.731566 -179.793958 
L 265.842245 -180.304189 
L 265.95576 -180.81442 
L 266.071806 -181.324652 
L 266.19007 -181.834883 
L 266.310234 -182.345114 
L 266.431977 -182.855346 
L 266.55498 -183.365577 
L 266.678931 -183.875808 
L 266.803527 -184.38604 
L 266.928476 -184.896271 
L 267.053501 -185.406502 
L 267.178345 -185.916733 
L 267.302766 -186.426965 
L 267.426545 -186.937196 
L 267.549484 -187.447427 
L 267.671406 -187.957659 
L 267.792156 -188.46789 
L 267.9116 -188.978121 
L 268.029624 -189.488353 
L 268.146131 -189.998584 
L 268.261044 -190.508815 
L 268.374299 -191.019047 
L 268.485845 -191.529278 
L 268.595641 -192.039509 
L 268.703657 -192.549741 
L 274.032564 -192.549741 
L 274.032564 -192.549741 
L 274.140579 -192.039509 
L 274.250376 -191.529278 
L 274.361921 -191.019047 
L 274.475176 -190.508815 
L 274.590089 -189.998584 
L 274.706597 -189.488353 
L 274.824621 -188.978121 
L 274.944065 -188.46789 
L 275.064815 -187.957659 
L 275.186737 -187.447427 
L 275.309676 -186.937196 
L 275.433455 -186.426965 
L 275.557876 -185.916733 
L 275.682719 -185.406502 
L 275.807745 -184.896271 
L 275.932693 -184.38604 
L 276.057289 -183.875808 
L 276.181241 -183.365577 
L 276.304244 -182.855346 
L 276.425987 -182.345114 
L 276.546151 -181.834883 
L 276.664415 -181.324652 
L 276.780461 -180.81442 
L 276.893975 -180.304189 
L 277.004655 -179.793958 
L 277.112209 -179.283726 
L 277.216365 -178.773495 
L 277.316869 -178.263264 
L 277.413493 -177.753032 
L 277.506032 -177.242801 
L 277.594311 -176.73257 
L 277.678185 -176.222338 
L 277.757538 -175.712107 
L 277.832286 -175.201876 
L 277.902377 -174.691644 
L 277.967787 -174.181413 
L 278.028523 -173.671182 
L 278.084618 -173.16095 
L 278.136129 -172.650719 
L 278.183134 -172.140488 
L 278.225732 -171.630257 
L 278.264034 -171.120025 
L 278.298163 -170.609794 
L 278.328247 -170.099563 
L 278.354419 -169.589331 
L 278.37681 -169.0791 
L 278.395545 -168.568869 
L 278.41074 -168.058637 
L 278.422501 -167.548406 
L 278.430915 -167.038175 
L 278.436055 -166.527943 
L 278.437972 -166.017712 
L 278.436696 -165.507481 
L 278.432235 -164.997249 
L 278.424576 -164.487018 
L 278.413681 -163.976787 
L 278.399493 -163.466555 
L 278.381936 -162.956324 
L 278.360913 -162.446093 
L 278.336316 -161.935861 
L 278.308023 -161.42563 
L 278.275904 -160.915399 
L 278.239823 -160.405167 
L 278.199645 -159.894936 
L 278.155235 -159.384705 
L 278.106468 -158.874474 
L 278.053227 -158.364242 
L 277.995411 -157.854011 
L 277.932936 -157.34378 
L 277.86574 -156.833548 
L 277.793785 -156.323317 
L 277.717057 -155.813086 
L 277.635571 -155.302854 
L 277.549373 -154.792623 
L 277.458535 -154.282392 
L 277.363163 -153.77216 
L 277.263387 -153.261929 
L 277.159372 -152.751698 
L 277.051304 -152.241466 
L 276.939399 -151.731235 
L 276.823891 -151.221004 
L 276.705039 -150.710772 
L 276.583117 -150.200541 
L 276.458412 -149.69031 
L 276.331225 -149.180078 
L 276.201864 -148.669847 
L 276.07064 -148.159616 
L 275.93787 -147.649384 
L 275.803867 -147.139153 
L 275.668942 -146.628922 
L 275.533398 -146.118691 
L 275.397533 -145.608459 
L 275.261633 -145.098228 
L 275.125975 -144.587997 
L 274.990823 -144.077765 
L 274.856427 -143.567534 
L 274.723025 -143.057303 
L 274.590842 -142.547071 
L 274.460087 -142.03684 
z
" style="stroke: #999999; stroke-width: 2"/>
    </defs>
    <g clip-path="url(#p2691f66001)">
     <use xlink:href="#mf740aaa7ca" x="0" y="255.11811" style="fill: #ffffff; stroke: #999999; stroke-width: 2"/>
    </g>
   </g>
   <g id="PolyCollection_5">
    <defs>
     <path id="m72f95e5351" d="M 353.627731 -49.837187 
L 320.050267 -49.837187 
L 319.823435 -50.04525 
L 319.615066 -50.253314 
L 319.425816 -50.461378 
L 319.256275 -50.669441 
L 319.106961 -50.877505 
L 318.978313 -51.085568 
L 318.870695 -51.293632 
L 318.784392 -51.501695 
L 318.719607 -51.709759 
L 318.676461 -51.917822 
L 318.654992 -52.125886 
L 318.65516 -52.33395 
L 318.67684 -52.542013 
L 318.719829 -52.750077 
L 318.783845 -52.95814 
L 318.868531 -53.166204 
L 318.973454 -53.374267 
L 319.098112 -53.582331 
L 319.241935 -53.790395 
L 319.404289 -53.998458 
L 319.58448 -54.206522 
L 319.781758 -54.414585 
L 319.995321 -54.622649 
L 320.224321 -54.830712 
L 320.467867 -55.038776 
L 320.725031 -55.24684 
L 320.994852 -55.454903 
L 321.276342 -55.662967 
L 321.568491 -55.87103 
L 321.870269 -56.079094 
L 322.180636 -56.287157 
L 322.498542 -56.495221 
L 322.822936 -56.703284 
L 323.152767 -56.911348 
L 323.48699 -57.119412 
L 323.82457 -57.327475 
L 324.164487 -57.535539 
L 324.505738 -57.743602 
L 324.847342 -57.951666 
L 325.188344 -58.159729 
L 325.527817 -58.367793 
L 325.864866 -58.575857 
L 326.198628 -58.78392 
L 326.52828 -58.991984 
L 326.853037 -59.200047 
L 327.172153 -59.408111 
L 327.484929 -59.616174 
L 327.790707 -59.824238 
L 328.088878 -60.032302 
L 328.378879 -60.240365 
L 328.660194 -60.448429 
L 328.93236 -60.656492 
L 329.194959 -60.864556 
L 329.447626 -61.072619 
L 329.690046 -61.280683 
L 329.921953 -61.488746 
L 330.143133 -61.69681 
L 330.353422 -61.904874 
L 330.552702 -62.112937 
L 330.740908 -62.321001 
L 330.91802 -62.529064 
L 331.084067 -62.737128 
L 331.239121 -62.945191 
L 331.383301 -63.153255 
L 331.516768 -63.361319 
L 331.639725 -63.569382 
L 331.752414 -63.777446 
L 331.855114 -63.985509 
L 331.948143 -64.193573 
L 332.031849 -64.401636 
L 332.106613 -64.6097 
L 332.172847 -64.817764 
L 332.230986 -65.025827 
L 332.281491 -65.233891 
L 332.324845 -65.441954 
L 332.361549 -65.650018 
L 332.392118 -65.858081 
L 332.417083 -66.066145 
L 332.436984 -66.274208 
L 332.452366 -66.482272 
L 332.46378 -66.690336 
L 332.471779 -66.898399 
L 332.476912 -67.106463 
L 332.479726 -67.314526 
L 332.480757 -67.52259 
L 332.480534 -67.730653 
L 332.479572 -67.938717 
L 332.478368 -68.146781 
L 332.477405 -68.354844 
L 332.477143 -68.562908 
L 332.47802 -68.770971 
L 332.480449 -68.979035 
L 332.484818 -69.187098 
L 332.491486 -69.395162 
L 332.500781 -69.603226 
L 332.513004 -69.811289 
L 332.52842 -70.019353 
L 332.547266 -70.227416 
L 332.569741 -70.43548 
L 341.108256 -70.43548 
L 341.108256 -70.43548 
L 341.130732 -70.227416 
L 341.149577 -70.019353 
L 341.164994 -69.811289 
L 341.177217 -69.603226 
L 341.186512 -69.395162 
L 341.19318 -69.187098 
L 341.197549 -68.979035 
L 341.199978 -68.770971 
L 341.200855 -68.562908 
L 341.200593 -68.354844 
L 341.19963 -68.146781 
L 341.198426 -67.938717 
L 341.197463 -67.730653 
L 341.19724 -67.52259 
L 341.198272 -67.314526 
L 341.201085 -67.106463 
L 341.206219 -66.898399 
L 341.214218 -66.690336 
L 341.225632 -66.482272 
L 341.241014 -66.274208 
L 341.260914 -66.066145 
L 341.285879 -65.858081 
L 341.316449 -65.650018 
L 341.353153 -65.441954 
L 341.396507 -65.233891 
L 341.447012 -65.025827 
L 341.505151 -64.817764 
L 341.571384 -64.6097 
L 341.646149 -64.401636 
L 341.729855 -64.193573 
L 341.822883 -63.985509 
L 341.925584 -63.777446 
L 342.038273 -63.569382 
L 342.161229 -63.361319 
L 342.294697 -63.153255 
L 342.438877 -62.945191 
L 342.593931 -62.737128 
L 342.759977 -62.529064 
L 342.93709 -62.321001 
L 343.125295 -62.112937 
L 343.324576 -61.904874 
L 343.534864 -61.69681 
L 343.756045 -61.488746 
L 343.987952 -61.280683 
L 344.230372 -61.072619 
L 344.483039 -60.864556 
L 344.745638 -60.656492 
L 345.017803 -60.448429 
L 345.299119 -60.240365 
L 345.58912 -60.032302 
L 345.887291 -59.824238 
L 346.193069 -59.616174 
L 346.505845 -59.408111 
L 346.824961 -59.200047 
L 347.149718 -58.991984 
L 347.47937 -58.78392 
L 347.813132 -58.575857 
L 348.150181 -58.367793 
L 348.489654 -58.159729 
L 348.830656 -57.951666 
L 349.17226 -57.743602 
L 349.513511 -57.535539 
L 349.853427 -57.327475 
L 350.191007 -57.119412 
L 350.52523 -56.911348 
L 350.855061 -56.703284 
L 351.179456 -56.495221 
L 351.497362 -56.287157 
L 351.807729 -56.079094 
L 352.109507 -55.87103 
L 352.401655 -55.662967 
L 352.683146 -55.454903 
L 352.952967 -55.24684 
L 353.210131 -55.038776 
L 353.453677 -54.830712 
L 353.682677 -54.622649 
L 353.89624 -54.414585 
L 354.093518 -54.206522 
L 354.273709 -53.998458 
L 354.436063 -53.790395 
L 354.579886 -53.582331 
L 354.704544 -53.374267 
L 354.809467 -53.166204 
L 354.894153 -52.95814 
L 354.958169 -52.750077 
L 355.001158 -52.542013 
L 355.022838 -52.33395 
L 355.023005 -52.125886 
L 355.001537 -51.917822 
L 354.958391 -51.709759 
L 354.893605 -51.501695 
L 354.807302 -51.293632 
L 354.699685 -51.085568 
L 354.571037 -50.877505 
L 354.421722 -50.669441 
L 354.252182 -50.461378 
L 354.062932 -50.253314 
L 353.854562 -50.04525 
L 353.627731 -49.837187 
z
" style="stroke: #999999; stroke-width: 2"/>
    </defs>
    <g clip-path="url(#p2691f66001)">
     <use xlink:href="#m72f95e5351" x="0" y="255.11811" style="fill: #ffffff; stroke: #999999; stroke-width: 2"/>
    </g>
   </g>
   <g id="PolyCollection_6">
    <defs>
     <path id="m7dfc8d1c61" d="M 406.982368 -107.488434 
L 397.637407 -107.488434 
L 397.502116 -107.978535 
L 397.369328 -108.468635 
L 397.239207 -108.958736 
L 397.111885 -109.448837 
L 396.987464 -109.938938 
L 396.86601 -110.429038 
L 396.747563 -110.919139 
L 396.63213 -111.40924 
L 396.519694 -111.89934 
L 396.410211 -112.389441 
L 396.303621 -112.879542 
L 396.199844 -113.369642 
L 396.098789 -113.859743 
L 396.000359 -114.349844 
L 395.904454 -114.839944 
L 395.810977 -115.330045 
L 395.71984 -115.820146 
L 395.630968 -116.310247 
L 395.544306 -116.800347 
L 395.459822 -117.290448 
L 395.377512 -117.780549 
L 395.297403 -118.270649 
L 395.219561 -118.76075 
L 395.144087 -119.250851 
L 395.071124 -119.740951 
L 395.000855 -120.231052 
L 394.933506 -120.721153 
L 394.869345 -121.211253 
L 394.808678 -121.701354 
L 394.751847 -122.191455 
L 394.69923 -122.681556 
L 394.651234 -123.171656 
L 394.608288 -123.661757 
L 394.570843 -124.151858 
L 394.539358 -124.641958 
L 394.514299 -125.132059 
L 394.49613 -125.62216 
L 394.485302 -126.11226 
L 394.482251 -126.602361 
L 394.487382 -127.092462 
L 394.501071 -127.582562 
L 394.523648 -128.072663 
L 394.555396 -128.562764 
L 394.596543 -129.052864 
L 394.647254 -129.542965 
L 394.707628 -130.033066 
L 394.777695 -130.523167 
L 394.857408 -131.013267 
L 394.946646 -131.503368 
L 395.045212 -131.993469 
L 395.152829 -132.483569 
L 395.269145 -132.97367 
L 395.393736 -133.463771 
L 395.526107 -133.953871 
L 395.665696 -134.443972 
L 395.811884 -134.934073 
L 395.963994 -135.424173 
L 396.121306 -135.914274 
L 396.283059 -136.404375 
L 396.44846 -136.894476 
L 396.616696 -137.384576 
L 396.786942 -137.874677 
L 396.958364 -138.364778 
L 397.130139 -138.854878 
L 397.301454 -139.344979 
L 397.471519 -139.83508 
L 397.639578 -140.32518 
L 397.804909 -140.815281 
L 397.966838 -141.305382 
L 398.124745 -141.795482 
L 398.278063 -142.285583 
L 398.426292 -142.775684 
L 398.568994 -143.265785 
L 398.705804 -143.755885 
L 398.836425 -144.245986 
L 398.960632 -144.736087 
L 399.078273 -145.226187 
L 399.189266 -145.716288 
L 399.293599 -146.206389 
L 399.391326 -146.696489 
L 399.482562 -147.18659 
L 399.567485 -147.676691 
L 399.646324 -148.166791 
L 399.719357 -148.656892 
L 399.786908 -149.146993 
L 399.849334 -149.637093 
L 399.907028 -150.127194 
L 399.960404 -150.617295 
L 400.009895 -151.107396 
L 400.055947 -151.597496 
L 400.099011 -152.087597 
L 400.139537 -152.577698 
L 400.17797 -153.067798 
L 400.214742 -153.557899 
L 400.250269 -154.048 
L 400.284947 -154.5381 
L 400.319144 -155.028201 
L 400.353203 -155.518302 
L 400.387433 -156.008402 
L 404.232342 -156.008402 
L 404.232342 -156.008402 
L 404.266572 -155.518302 
L 404.300631 -155.028201 
L 404.334829 -154.5381 
L 404.369506 -154.048 
L 404.405033 -153.557899 
L 404.441805 -153.067798 
L 404.480238 -152.577698 
L 404.520764 -152.087597 
L 404.563828 -151.597496 
L 404.60988 -151.107396 
L 404.659371 -150.617295 
L 404.712747 -150.127194 
L 404.770441 -149.637093 
L 404.832867 -149.146993 
L 404.900418 -148.656892 
L 404.973451 -148.166791 
L 405.05229 -147.676691 
L 405.137213 -147.18659 
L 405.228449 -146.696489 
L 405.326176 -146.206389 
L 405.430509 -145.716288 
L 405.541502 -145.226187 
L 405.659143 -144.736087 
L 405.783351 -144.245986 
L 405.913971 -143.755885 
L 406.050781 -143.265785 
L 406.193483 -142.775684 
L 406.341712 -142.285583 
L 406.49503 -141.795482 
L 406.652937 -141.305382 
L 406.814866 -140.815281 
L 406.980197 -140.32518 
L 407.148256 -139.83508 
L 407.318321 -139.344979 
L 407.489636 -138.854878 
L 407.661411 -138.364778 
L 407.832834 -137.874677 
L 408.003079 -137.384576 
L 408.171315 -136.894476 
L 408.336716 -136.404375 
L 408.498469 -135.914274 
L 408.655781 -135.424173 
L 408.807891 -134.934073 
L 408.954079 -134.443972 
L 409.093668 -133.953871 
L 409.226039 -133.463771 
L 409.35063 -132.97367 
L 409.466947 -132.483569 
L 409.574563 -131.993469 
L 409.673129 -131.503368 
L 409.762367 -131.013267 
L 409.842081 -130.523167 
L 409.912147 -130.033066 
L 409.972521 -129.542965 
L 410.023232 -129.052864 
L 410.064379 -128.562764 
L 410.096127 -128.072663 
L 410.118704 -127.582562 
L 410.132393 -127.092462 
L 410.137524 -126.602361 
L 410.134473 -126.11226 
L 410.123645 -125.62216 
L 410.105476 -125.132059 
L 410.080417 -124.641958 
L 410.048932 -124.151858 
L 410.011487 -123.661757 
L 409.968541 -123.171656 
L 409.920545 -122.681556 
L 409.867928 -122.191455 
L 409.811097 -121.701354 
L 409.75043 -121.211253 
L 409.686269 -120.721153 
L 409.61892 -120.231052 
L 409.548651 -119.740951 
L 409.475688 -119.250851 
L 409.400214 -118.76075 
L 409.322372 -118.270649 
L 409.242263 -117.780549 
L 409.159953 -117.290448 
L 409.075469 -116.800347 
L 408.988807 -116.310247 
L 408.899935 -115.820146 
L 408.808798 -115.330045 
L 408.715321 -114.839944 
L 408.619416 -114.349844 
L 408.520986 -113.859743 
L 408.419931 -113.369642 
L 408.316154 -112.879542 
L 408.209564 -112.389441 
L 408.100082 -111.89934 
L 407.987645 -111.40924 
L 407.872212 -110.919139 
L 407.753765 -110.429038 
L 407.632311 -109.938938 
L 407.50789 -109.448837 
L 407.380568 -108.958736 
L 407.250447 -108.468635 
L 407.117659 -107.978535 
L 406.982368 -107.488434 
z
" style="stroke: #999999; stroke-width: 2"/>
    </defs>
    <g clip-path="url(#p2691f66001)">
     <use xlink:href="#m7dfc8d1c61" x="0" y="255.11811" style="fill: #ffffff; stroke: #999999; stroke-width: 2"/>
    </g>
   </g>
   <g id="PolyCollection_7">
    <defs>
     <path id="mf7b26bc688" d="M 478.898203 -74.952355 
L 456.663349 -74.952355 
L 456.521218 -75.248579 
L 456.391523 -75.544802 
L 456.274299 -75.841026 
L 456.169514 -76.13725 
L 456.077066 -76.433474 
L 455.99679 -76.729698 
L 455.928461 -77.025921 
L 455.8718 -77.322145 
L 455.826483 -77.618369 
L 455.792142 -77.914593 
L 455.768375 -78.210816 
L 455.754756 -78.50704 
L 455.750834 -78.803264 
L 455.756151 -79.099488 
L 455.770241 -79.395711 
L 455.792639 -79.691935 
L 455.822889 -79.988159 
L 455.860551 -80.284383 
L 455.905204 -80.580606 
L 455.956452 -80.87683 
L 456.013927 -81.173054 
L 456.077298 -81.469278 
L 456.146265 -81.765502 
L 456.220569 -82.061725 
L 456.299985 -82.357949 
L 456.384332 -82.654173 
L 456.473461 -82.950397 
L 456.567261 -83.24662 
L 456.665656 -83.542844 
L 456.768597 -83.839068 
L 456.876064 -84.135292 
L 456.988058 -84.431515 
L 457.104596 -84.727739 
L 457.22571 -85.023963 
L 457.351436 -85.320187 
L 457.481811 -85.61641 
L 457.61687 -85.912634 
L 457.756634 -86.208858 
L 457.901113 -86.505082 
L 458.050293 -86.801306 
L 458.204135 -87.097529 
L 458.362573 -87.393753 
L 458.525506 -87.689977 
L 458.692798 -87.986201 
L 458.864273 -88.282424 
L 459.039718 -88.578648 
L 459.218876 -88.874872 
L 459.401451 -89.171096 
L 459.587106 -89.467319 
L 459.775465 -89.763543 
L 459.966114 -90.059767 
L 460.158607 -90.355991 
L 460.352467 -90.652214 
L 460.547187 -90.948438 
L 460.742242 -91.244662 
L 460.937087 -91.540886 
L 461.131164 -91.83711 
L 461.323912 -92.133333 
L 461.514764 -92.429557 
L 461.703163 -92.725781 
L 461.888558 -93.022005 
L 462.070417 -93.318228 
L 462.248228 -93.614452 
L 462.421508 -93.910676 
L 462.589804 -94.2069 
L 462.752701 -94.503123 
L 462.909824 -94.799347 
L 463.060843 -95.095571 
L 463.205474 -95.391795 
L 463.343484 -95.688018 
L 463.474692 -95.984242 
L 463.59897 -96.280466 
L 463.716242 -96.57669 
L 463.82649 -96.872914 
L 463.929744 -97.169137 
L 464.026092 -97.465361 
L 464.115667 -97.761585 
L 464.198654 -98.057809 
L 464.275282 -98.354032 
L 464.345822 -98.650256 
L 464.410585 -98.94648 
L 464.469916 -99.242704 
L 464.52419 -99.538927 
L 464.573809 -99.835151 
L 464.619196 -100.131375 
L 464.660791 -100.427599 
L 464.699045 -100.723822 
L 464.734418 -101.020046 
L 464.76737 -101.31627 
L 464.798361 -101.612494 
L 464.827841 -101.908718 
L 464.856253 -102.204941 
L 464.884021 -102.501165 
L 464.911553 -102.797389 
L 464.939234 -103.093613 
L 464.967423 -103.389836 
L 464.996452 -103.68606 
L 465.026622 -103.982284 
L 465.058203 -104.278508 
L 470.50335 -104.278508 
L 470.50335 -104.278508 
L 470.534931 -103.982284 
L 470.565101 -103.68606 
L 470.594129 -103.389836 
L 470.622318 -103.093613 
L 470.649999 -102.797389 
L 470.677531 -102.501165 
L 470.7053 -102.204941 
L 470.733711 -101.908718 
L 470.763191 -101.612494 
L 470.794182 -101.31627 
L 470.827134 -101.020046 
L 470.862507 -100.723822 
L 470.900761 -100.427599 
L 470.942356 -100.131375 
L 470.987743 -99.835151 
L 471.037362 -99.538927 
L 471.091636 -99.242704 
L 471.150967 -98.94648 
L 471.21573 -98.650256 
L 471.28627 -98.354032 
L 471.362898 -98.057809 
L 471.445885 -97.761585 
L 471.53546 -97.465361 
L 471.631808 -97.169137 
L 471.735063 -96.872914 
L 471.84531 -96.57669 
L 471.962583 -96.280466 
L 472.08686 -95.984242 
L 472.218068 -95.688018 
L 472.356078 -95.391795 
L 472.500709 -95.095571 
L 472.651728 -94.799347 
L 472.808851 -94.503123 
L 472.971748 -94.2069 
L 473.140045 -93.910676 
L 473.313324 -93.614452 
L 473.491136 -93.318228 
L 473.672994 -93.022005 
L 473.858389 -92.725781 
L 474.046788 -92.429557 
L 474.237641 -92.133333 
L 474.430388 -91.83711 
L 474.624466 -91.540886 
L 474.81931 -91.244662 
L 475.014365 -90.948438 
L 475.209086 -90.652214 
L 475.402945 -90.355991 
L 475.595438 -90.059767 
L 475.786088 -89.763543 
L 475.974446 -89.467319 
L 476.160101 -89.171096 
L 476.342676 -88.874872 
L 476.521834 -88.578648 
L 476.697279 -88.282424 
L 476.868754 -87.986201 
L 477.036046 -87.689977 
L 477.198979 -87.393753 
L 477.357417 -87.097529 
L 477.51126 -86.801306 
L 477.660439 -86.505082 
L 477.804918 -86.208858 
L 477.944683 -85.912634 
L 478.079741 -85.61641 
L 478.210117 -85.320187 
L 478.335842 -85.023963 
L 478.456956 -84.727739 
L 478.573494 -84.431515 
L 478.685488 -84.135292 
L 478.792955 -83.839068 
L 478.895896 -83.542844 
L 478.994291 -83.24662 
L 479.088092 -82.950397 
L 479.177221 -82.654173 
L 479.261567 -82.357949 
L 479.340984 -82.061725 
L 479.415287 -81.765502 
L 479.484254 -81.469278 
L 479.547625 -81.173054 
L 479.605101 -80.87683 
L 479.656348 -80.580606 
L 479.701001 -80.284383 
L 479.738663 -79.988159 
L 479.768914 -79.691935 
L 479.791311 -79.395711 
L 479.805401 -79.099488 
L 479.810718 -78.803264 
L 479.806797 -78.50704 
L 479.793177 -78.210816 
L 479.769411 -77.914593 
L 479.735069 -77.618369 
L 479.689752 -77.322145 
L 479.633092 -77.025921 
L 479.564762 -76.729698 
L 479.484486 -76.433474 
L 479.392038 -76.13725 
L 479.287253 -75.841026 
L 479.17003 -75.544802 
L 479.040334 -75.248579 
L 478.898203 -74.952355 
z
" style="stroke: #999999; stroke-width: 2"/>
    </defs>
    <g clip-path="url(#p2691f66001)">
     <use xlink:href="#mf7b26bc688" x="0" y="255.11811" style="fill: #ffffff; stroke: #999999; stroke-width: 2"/>
    </g>
   </g>
   <g id="PathCollection_1"/>
   <g id="PathCollection_2"/>
   <g id="patch_3">
    <path d="M 42.22 213.89811 
L 42.22 24.32 
" style="fill: none; stroke: #262626; stroke-width: 1.25; stroke-linejoin: miter; stroke-linecap: square"/>
   </g>
   <g id="patch_4">
    <path d="M 42.22 213.89811 
L 500.51622 213.89811 
" style="fill: none; stroke: #262626; stroke-width: 1.25; stroke-linejoin: miter; stroke-linecap: square"/>
   </g>
   <g id="PathCollection_3">
    <defs>
     <path id="C0_0_cd8cd5549c" d="M 0 2.5 
C 0.663008 2.5 1.29895 2.236584 1.767767 1.767767 
C 2.236584 1.29895 2.5 0.663008 2.5 -0 
C 2.5 -0.663008 2.236584 -1.29895 1.767767 -1.767767 
C 1.29895 -2.236584 0.663008 -2.5 0 -2.5 
C -0.663008 -2.5 -1.29895 -2.236584 -1.767767 -1.767767 
C -2.236584 -1.29895 -2.5 -0.663008 -2.5 0 
C -2.5 0.663008 -2.236584 1.29895 -1.767767 1.767767 
C -1.29895 2.236584 -0.663008 2.5 0 2.5 
z
"/>
    </defs>
    <g clip-path="url(#p2691f66001)">
     <use xlink:href="#C0_0_cd8cd5549c" x="77.880676" y="195.61848" style="fill: #4c72b0; fill-opacity: 0.75"/>
    </g>
    <g clip-path="url(#p2691f66001)">
     <use xlink:href="#C0_0_cd8cd5549c" x="75.664658" y="198.963417" style="fill: #4c72b0; fill-opacity: 0.75"/>
    </g>
    <g clip-path="url(#p2691f66001)">
     <use xlink:href="#C0_0_cd8cd5549c" x="71.45647" y="190.963419" style="fill: #4c72b0; fill-opacity: 0.75"/>
    </g>
    <g clip-path="url(#p2691f66001)">
     <use xlink:href="#C0_0_cd8cd5549c" x="79.340158" y="187.246842" style="fill: #4c72b0; fill-opacity: 0.75"/>
    </g>
    <g clip-path="url(#p2691f66001)">
     <use xlink:href="#C0_0_cd8cd5549c" x="80.073174" y="186.115014" style="fill: #dd8452; fill-opacity: 0.75"/>
    </g>
    <g clip-path="url(#p2691f66001)">
     <use xlink:href="#C0_0_cd8cd5549c" x="74.86418" y="185.305125" style="fill: #dd8452; fill-opacity: 0.75"/>
    </g>
    <g clip-path="url(#p2691f66001)">
     <use xlink:href="#C0_0_cd8cd5549c" x="75.808049" y="189.737244" style="fill: #dd8452; fill-opacity: 0.75"/>
    </g>
    <g clip-path="url(#p2691f66001)">
     <use xlink:href="#C0_0_cd8cd5549c" x="74.823155" y="188.929574" style="fill: #dd8452; fill-opacity: 0.75"/>
    </g>
   </g>
   <g id="PathCollection_4">
    <defs>
     <path id="C1_0_f7bbd28f79" d="M 0 2.5 
C 0.663008 2.5 1.29895 2.236584 1.767767 1.767767 
C 2.236584 1.29895 2.5 0.663008 2.5 -0 
C 2.5 -0.663008 2.236584 -1.29895 1.767767 -1.767767 
C 1.29895 -2.236584 0.663008 -2.5 0 -2.5 
C -0.663008 -2.5 -1.29895 -2.236584 -1.767767 -1.767767 
C -2.236584 -1.29895 -2.5 -0.663008 -2.5 0 
C -2.5 0.663008 -2.236584 1.29895 -1.767767 1.767767 
C -1.29895 2.236584 -0.663008 2.5 0 2.5 
z
"/>
    </defs>
    <g clip-path="url(#p2691f66001)">
     <use xlink:href="#C1_0_f7bbd28f79" x="145.079914" y="138.86701" style="fill: #4c72b0; fill-opacity: 0.75"/>
    </g>
    <g clip-path="url(#p2691f66001)">
     <use xlink:href="#C1_0_f7bbd28f79" x="137.819518" y="154.251404" style="fill: #4c72b0; fill-opacity: 0.75"/>
    </g>
    <g clip-path="url(#p2691f66001)">
     <use xlink:href="#C1_0_f7bbd28f79" x="137.503666" y="133.807439" style="fill: #4c72b0; fill-opacity: 0.75"/>
    </g>
    <g clip-path="url(#p2691f66001)">
     <use xlink:href="#C1_0_f7bbd28f79" x="138.875154" y="137.992637" style="fill: #4c72b0; fill-opacity: 0.75"/>
    </g>
    <g clip-path="url(#p2691f66001)">
     <use xlink:href="#C1_0_f7bbd28f79" x="135.931577" y="153.554142" style="fill: #dd8452; fill-opacity: 0.75"/>
    </g>
    <g clip-path="url(#p2691f66001)">
     <use xlink:href="#C1_0_f7bbd28f79" x="139.963303" y="160.834277" style="fill: #dd8452; fill-opacity: 0.75"/>
    </g>
    <g clip-path="url(#p2691f66001)">
     <use xlink:href="#C1_0_f7bbd28f79" x="136.642206" y="142.877695" style="fill: #dd8452; fill-opacity: 0.75"/>
    </g>
    <g clip-path="url(#p2691f66001)">
     <use xlink:href="#C1_0_f7bbd28f79" x="134.43431" y="140.42602" style="fill: #dd8452; fill-opacity: 0.75"/>
    </g>
   </g>
   <g id="PathCollection_5">
    <defs>
     <path id="C2_0_1e3c1e5f30" d="M 0 2.5 
C 0.663008 2.5 1.29895 2.236584 1.767767 1.767767 
C 2.236584 1.29895 2.5 0.663008 2.5 -0 
C 2.5 -0.663008 2.236584 -1.29895 1.767767 -1.767767 
C 1.29895 -2.236584 0.663008 -2.5 0 -2.5 
C -0.663008 -2.5 -1.29895 -2.236584 -1.767767 -1.767767 
C -2.236584 -1.29895 -2.5 -0.663008 -2.5 0 
C -2.5 0.663008 -2.236584 1.29895 -1.767767 1.767767 
C -1.29895 2.236584 -0.663008 2.5 0 2.5 
z
"/>
    </defs>
    <g clip-path="url(#p2691f66001)">
     <use xlink:href="#C2_0_1e3c1e5f30" x="208.127865" y="76.873424" style="fill: #4c72b0; fill-opacity: 0.75"/>
    </g>
    <g clip-path="url(#p2691f66001)">
     <use xlink:href="#C2_0_1e3c1e5f30" x="202.68106" y="32.979039" style="fill: #4c72b0; fill-opacity: 0.75"/>
    </g>
    <g clip-path="url(#p2691f66001)">
     <use xlink:href="#C2_0_1e3c1e5f30" x="200.334449" y="32.937187" style="fill: #4c72b0; fill-opacity: 0.75"/>
    </g>
    <g clip-path="url(#p2691f66001)">
     <use xlink:href="#C2_0_1e3c1e5f30" x="206.363646" y="92.692382" style="fill: #4c72b0; fill-opacity: 0.75"/>
    </g>
    <g clip-path="url(#p2691f66001)">
     <use xlink:href="#C2_0_1e3c1e5f30" x="203.641087" y="61.206822" style="fill: #dd8452; fill-opacity: 0.75"/>
    </g>
    <g clip-path="url(#p2691f66001)">
     <use xlink:href="#C2_0_1e3c1e5f30" x="211.536742" y="63.372407" style="fill: #dd8452; fill-opacity: 0.75"/>
    </g>
    <g clip-path="url(#p2691f66001)">
     <use xlink:href="#C2_0_1e3c1e5f30" x="206.70926" y="39.557719" style="fill: #dd8452; fill-opacity: 0.75"/>
    </g>
    <g clip-path="url(#p2691f66001)">
     <use xlink:href="#C2_0_1e3c1e5f30" x="209.18092" y="65.044469" style="fill: #dd8452; fill-opacity: 0.75"/>
    </g>
   </g>
   <g id="PathCollection_6">
    <defs>
     <path id="C3_0_7ebcfa49a6" d="M 0 2.5 
C 0.663008 2.5 1.29895 2.236584 1.767767 1.767767 
C 2.236584 1.29895 2.5 0.663008 2.5 -0 
C 2.5 -0.663008 2.236584 -1.29895 1.767767 -1.767767 
C 1.29895 -2.236584 0.663008 -2.5 0 -2.5 
C -0.663008 -2.5 -1.29895 -2.236584 -1.767767 -1.767767 
C -2.236584 -1.29895 -2.5 -0.663008 -2.5 0 
C -2.5 0.663008 -2.236584 1.29895 -1.767767 1.767767 
C -1.29895 2.236584 -0.663008 2.5 0 2.5 
z
"/>
    </defs>
    <g clip-path="url(#p2691f66001)">
     <use xlink:href="#C3_0_7ebcfa49a6" x="277.857738" y="77.66857" style="fill: #4c72b0; fill-opacity: 0.75"/>
    </g>
    <g clip-path="url(#p2691f66001)">
     <use xlink:href="#C3_0_7ebcfa49a6" x="272.529947" y="81.529312" style="fill: #4c72b0; fill-opacity: 0.75"/>
    </g>
    <g clip-path="url(#p2691f66001)">
     <use xlink:href="#C3_0_7ebcfa49a6" x="273.236897" y="90.666857" style="fill: #4c72b0; fill-opacity: 0.75"/>
    </g>
    <g clip-path="url(#p2691f66001)">
     <use xlink:href="#C3_0_7ebcfa49a6" x="272.501302" y="74.5002" style="fill: #4c72b0; fill-opacity: 0.75"/>
    </g>
    <g clip-path="url(#p2691f66001)">
     <use xlink:href="#C3_0_7ebcfa49a6" x="272.824436" y="62.56837" style="fill: #4c72b0; fill-opacity: 0.75"/>
    </g>
    <g clip-path="url(#p2691f66001)">
     <use xlink:href="#C3_0_7ebcfa49a6" x="267.045349" y="96.804962" style="fill: #dd8452; fill-opacity: 0.75"/>
    </g>
    <g clip-path="url(#p2691f66001)">
     <use xlink:href="#C3_0_7ebcfa49a6" x="272.093024" y="101.993136" style="fill: #dd8452; fill-opacity: 0.75"/>
    </g>
    <g clip-path="url(#p2691f66001)">
     <use xlink:href="#C3_0_7ebcfa49a6" x="272.083694" y="100.55567" style="fill: #dd8452; fill-opacity: 0.75"/>
    </g>
    <g clip-path="url(#p2691f66001)">
     <use xlink:href="#C3_0_7ebcfa49a6" x="271.831125" y="86.347067" style="fill: #dd8452; fill-opacity: 0.75"/>
    </g>
    <g clip-path="url(#p2691f66001)">
     <use xlink:href="#C3_0_7ebcfa49a6" x="266.157597" y="113.08127" style="fill: #dd8452; fill-opacity: 0.75"/>
    </g>
   </g>
   <g id="PathCollection_7">
    <defs>
     <path id="C4_0_5e40d51f49" d="M 0 2.5 
C 0.663008 2.5 1.29895 2.236584 1.767767 1.767767 
C 2.236584 1.29895 2.5 0.663008 2.5 -0 
C 2.5 -0.663008 2.236584 -1.29895 1.767767 -1.767767 
C 1.29895 -2.236584 0.663008 -2.5 0 -2.5 
C -0.663008 -2.5 -1.29895 -2.236584 -1.767767 -1.767767 
C -2.236584 -1.29895 -2.5 -0.663008 -2.5 0 
C -2.5 0.663008 -2.236584 1.29895 -1.767767 1.767767 
C -1.29895 2.236584 -0.663008 2.5 0 2.5 
z
"/>
    </defs>
    <g clip-path="url(#p2691f66001)">
     <use xlink:href="#C4_0_5e40d51f49" x="340.142449" y="204.057576" style="fill: #4c72b0; fill-opacity: 0.75"/>
    </g>
    <g clip-path="url(#p2691f66001)">
     <use xlink:href="#C4_0_5e40d51f49" x="340.093211" y="203.902399" style="fill: #4c72b0; fill-opacity: 0.75"/>
    </g>
    <g clip-path="url(#p2691f66001)">
     <use xlink:href="#C4_0_5e40d51f49" x="331.478741" y="201.891802" style="fill: #4c72b0; fill-opacity: 0.75"/>
    </g>
    <g clip-path="url(#p2691f66001)">
     <use xlink:href="#C4_0_5e40d51f49" x="330.738509" y="197.97496" style="fill: #dd8452; fill-opacity: 0.75"/>
    </g>
    <g clip-path="url(#p2691f66001)">
     <use xlink:href="#C4_0_5e40d51f49" x="337.454798" y="184.68263" style="fill: #dd8452; fill-opacity: 0.75"/>
    </g>
    <g clip-path="url(#p2691f66001)">
     <use xlink:href="#C4_0_5e40d51f49" x="334.069979" y="205.280923" style="fill: #dd8452; fill-opacity: 0.75"/>
    </g>
   </g>
   <g id="PathCollection_8">
    <defs>
     <path id="C5_0_eadfd24c4a" d="M 0 2.5 
C 0.663008 2.5 1.29895 2.236584 1.767767 1.767767 
C 2.236584 1.29895 2.5 0.663008 2.5 -0 
C 2.5 -0.663008 2.236584 -1.29895 1.767767 -1.767767 
C 1.29895 -2.236584 0.663008 -2.5 0 -2.5 
C -0.663008 -2.5 -1.29895 -2.236584 -1.767767 -1.767767 
C -2.236584 -1.29895 -2.5 -0.663008 -2.5 0 
C -2.5 0.663008 -2.236584 1.29895 -1.767767 1.767767 
C -1.29895 2.236584 -0.663008 2.5 0 2.5 
z
"/>
    </defs>
    <g clip-path="url(#p2691f66001)">
     <use xlink:href="#C5_0_eadfd24c4a" x="403.009437" y="126.73198" style="fill: #4c72b0; fill-opacity: 0.75"/>
    </g>
    <g clip-path="url(#p2691f66001)">
     <use xlink:href="#C5_0_eadfd24c4a" x="401.411344" y="142.844811" style="fill: #4c72b0; fill-opacity: 0.75"/>
    </g>
    <g clip-path="url(#p2691f66001)">
     <use xlink:href="#C5_0_eadfd24c4a" x="405.549639" y="138.519558" style="fill: #4c72b0; fill-opacity: 0.75"/>
    </g>
    <g clip-path="url(#p2691f66001)">
     <use xlink:href="#C5_0_eadfd24c4a" x="399.600849" y="147.629676" style="fill: #4c72b0; fill-opacity: 0.75"/>
    </g>
    <g clip-path="url(#p2691f66001)">
     <use xlink:href="#C5_0_eadfd24c4a" x="397.229272" y="125.766774" style="fill: #dd8452; fill-opacity: 0.75"/>
    </g>
    <g clip-path="url(#p2691f66001)">
     <use xlink:href="#C5_0_eadfd24c4a" x="397.770389" y="124.19207" style="fill: #dd8452; fill-opacity: 0.75"/>
    </g>
    <g clip-path="url(#p2691f66001)">
     <use xlink:href="#C5_0_eadfd24c4a" x="404.610318" y="99.109708" style="fill: #dd8452; fill-opacity: 0.75"/>
    </g>
    <g clip-path="url(#p2691f66001)">
     <use xlink:href="#C5_0_eadfd24c4a" x="397.351281" y="121.586079" style="fill: #dd8452; fill-opacity: 0.75"/>
    </g>
   </g>
   <g id="PathCollection_9">
    <defs>
     <path id="C6_0_5bf1ca4fde" d="M 0 2.5 
C 0.663008 2.5 1.29895 2.236584 1.767767 1.767767 
C 2.236584 1.29895 2.5 0.663008 2.5 -0 
C 2.5 -0.663008 2.236584 -1.29895 1.767767 -1.767767 
C 1.29895 -2.236584 0.663008 -2.5 0 -2.5 
C -0.663008 -2.5 -1.29895 -2.236584 -1.767767 -1.767767 
C -2.236584 -1.29895 -2.5 -0.663008 -2.5 0 
C -2.5 0.663008 -2.236584 1.29895 -1.767767 1.767767 
C -1.29895 2.236584 -0.663008 2.5 0 2.5 
z
"/>
    </defs>
    <g clip-path="url(#p2691f66001)">
     <use xlink:href="#C6_0_5bf1ca4fde" x="466.323848" y="167.758669" style="fill: #4c72b0; fill-opacity: 0.75"/>
    </g>
    <g clip-path="url(#p2691f66001)">
     <use xlink:href="#C6_0_5bf1ca4fde" x="465.800157" y="180.165755" style="fill: #4c72b0; fill-opacity: 0.75"/>
    </g>
    <g clip-path="url(#p2691f66001)">
     <use xlink:href="#C6_0_5bf1ca4fde" x="468.590992" y="168.882772" style="fill: #4c72b0; fill-opacity: 0.75"/>
    </g>
    <g clip-path="url(#p2691f66001)">
     <use xlink:href="#C6_0_5bf1ca4fde" x="472.54041" y="167.385056" style="fill: #4c72b0; fill-opacity: 0.75"/>
    </g>
    <g clip-path="url(#p2691f66001)">
     <use xlink:href="#C6_0_5bf1ca4fde" x="473.346858" y="179.05118" style="fill: #dd8452; fill-opacity: 0.75"/>
    </g>
    <g clip-path="url(#p2691f66001)">
     <use xlink:href="#C6_0_5bf1ca4fde" x="467.656412" y="179.986293" style="fill: #dd8452; fill-opacity: 0.75"/>
    </g>
    <g clip-path="url(#p2691f66001)">
     <use xlink:href="#C6_0_5bf1ca4fde" x="471.29701" y="179.258158" style="fill: #dd8452; fill-opacity: 0.75"/>
    </g>
    <g clip-path="url(#p2691f66001)">
     <use xlink:href="#C6_0_5bf1ca4fde" x="467.395619" y="150.839603" style="fill: #dd8452; fill-opacity: 0.75"/>
    </g>
   </g>
   <g id="text_16">
    <!-- CMSS1, $p_{adj}$ &lt; .001 *** -->
    <g style="fill: #262626" transform="translate(42.22 18.32)scale(0.09 -0.09)">
     <defs>
      <path id="ArialMT-43" d="M 3763 1606 
L 4369 1453 
Q 4178 706 3683 314 
Q 3188 -78 2472 -78 
Q 1731 -78 1267 223 
Q 803 525 561 1097 
Q 319 1669 319 2325 
Q 319 3041 592 3573 
Q 866 4106 1370 4382 
Q 1875 4659 2481 4659 
Q 3169 4659 3637 4309 
Q 4106 3959 4291 3325 
L 3694 3184 
Q 3534 3684 3231 3912 
Q 2928 4141 2469 4141 
Q 1941 4141 1586 3887 
Q 1231 3634 1087 3207 
Q 944 2781 944 2328 
Q 944 1744 1114 1308 
Q 1284 872 1643 656 
Q 2003 441 2422 441 
Q 2931 441 3284 734 
Q 3638 1028 3763 1606 
z
" transform="scale(0.015625)"/>
      <path id="ArialMT-53" d="M 288 1472 
L 859 1522 
Q 900 1178 1048 958 
Q 1197 738 1509 602 
Q 1822 466 2213 466 
Q 2559 466 2825 569 
Q 3091 672 3220 851 
Q 3350 1031 3350 1244 
Q 3350 1459 3225 1620 
Q 3100 1781 2813 1891 
Q 2628 1963 1997 2114 
Q 1366 2266 1113 2400 
Q 784 2572 623 2826 
Q 463 3081 463 3397 
Q 463 3744 659 4045 
Q 856 4347 1234 4503 
Q 1613 4659 2075 4659 
Q 2584 4659 2973 4495 
Q 3363 4331 3572 4012 
Q 3781 3694 3797 3291 
L 3216 3247 
Q 3169 3681 2898 3903 
Q 2628 4125 2100 4125 
Q 1550 4125 1298 3923 
Q 1047 3722 1047 3438 
Q 1047 3191 1225 3031 
Q 1400 2872 2139 2705 
Q 2878 2538 3153 2413 
Q 3553 2228 3743 1945 
Q 3934 1663 3934 1294 
Q 3934 928 3725 604 
Q 3516 281 3123 101 
Q 2731 -78 2241 -78 
Q 1619 -78 1198 103 
Q 778 284 539 648 
Q 300 1013 288 1472 
z
" transform="scale(0.015625)"/>
      <path id="ArialMT-2c" d="M 569 0 
L 569 641 
L 1209 641 
L 1209 0 
Q 1209 -353 1084 -570 
Q 959 -788 688 -906 
L 531 -666 
Q 709 -588 793 -436 
Q 878 -284 888 0 
L 569 0 
z
" transform="scale(0.015625)"/>
      <path id="DejaVuSans-Oblique-70" d="M 3175 2156 
Q 3175 2616 2975 2859 
Q 2775 3103 2400 3103 
Q 2144 3103 1911 2972 
Q 1678 2841 1497 2591 
Q 1319 2344 1212 1994 
Q 1106 1644 1106 1300 
Q 1106 863 1306 627 
Q 1506 391 1875 391 
Q 2147 391 2380 519 
Q 2613 647 2778 891 
Q 2956 1147 3065 1494 
Q 3175 1841 3175 2156 
z
M 1394 2969 
Q 1625 3272 1939 3428 
Q 2253 3584 2638 3584 
Q 3175 3584 3472 3232 
Q 3769 2881 3769 2247 
Q 3769 1728 3584 1258 
Q 3400 788 3053 416 
Q 2822 169 2531 39 
Q 2241 -91 1919 -91 
Q 1547 -91 1294 64 
Q 1041 219 916 525 
L 556 -1331 
L -19 -1331 
L 922 3500 
L 1497 3500 
L 1394 2969 
z
" transform="scale(0.015625)"/>
      <path id="DejaVuSans-Oblique-61" d="M 3438 1997 
L 3047 0 
L 2472 0 
L 2578 531 
Q 2325 219 2001 64 
Q 1678 -91 1281 -91 
Q 834 -91 548 182 
Q 263 456 263 884 
Q 263 1497 752 1853 
Q 1241 2209 2100 2209 
L 2900 2209 
L 2931 2363 
Q 2938 2388 2941 2417 
Q 2944 2447 2944 2509 
Q 2944 2788 2717 2942 
Q 2491 3097 2081 3097 
Q 1800 3097 1504 3025 
Q 1209 2953 897 2809 
L 997 3341 
Q 1322 3463 1633 3523 
Q 1944 3584 2234 3584 
Q 2853 3584 3176 3315 
Q 3500 3047 3500 2534 
Q 3500 2431 3484 2292 
Q 3469 2153 3438 1997 
z
M 2816 1759 
L 2241 1759 
Q 1534 1759 1195 1570 
Q 856 1381 856 984 
Q 856 709 1029 553 
Q 1203 397 1509 397 
Q 1978 397 2328 733 
Q 2678 1069 2791 1631 
L 2816 1759 
z
" transform="scale(0.015625)"/>
      <path id="DejaVuSans-Oblique-64" d="M 2675 525 
Q 2444 222 2128 65 
Q 1813 -91 1428 -91 
Q 903 -91 598 267 
Q 294 625 294 1247 
Q 294 1766 478 2236 
Q 663 2706 1013 3078 
Q 1244 3325 1534 3454 
Q 1825 3584 2144 3584 
Q 2481 3584 2739 3421 
Q 2997 3259 3138 2956 
L 3513 4863 
L 4091 4863 
L 3144 0 
L 2566 0 
L 2675 525 
z
M 891 1350 
Q 891 897 1095 644 
Q 1300 391 1663 391 
Q 1931 391 2161 520 
Q 2391 650 2566 903 
Q 2750 1166 2856 1509 
Q 2963 1853 2963 2188 
Q 2963 2622 2758 2865 
Q 2553 3109 2194 3109 
Q 1922 3109 1687 2981 
Q 1453 2853 1288 2613 
Q 1106 2353 998 2009 
Q 891 1666 891 1350 
z
" transform="scale(0.015625)"/>
      <path id="DejaVuSans-Oblique-6a" d="M 928 3500 
L 1503 3500 
L 813 -63 
L 809 -78 
Q 694 -675 544 -897 
Q 403 -1106 132 -1218 
Q -138 -1331 -506 -1331 
L -722 -1331 
L -628 -844 
L -481 -844 
Q -144 -844 -1 -703 
Q 141 -563 238 -63 
L 928 3500 
z
M 1197 4863 
L 1772 4863 
L 1631 4134 
L 1056 4134 
L 1197 4863 
z
" transform="scale(0.015625)"/>
      <path id="ArialMT-3c" d="M 350 2003 
L 350 2528 
L 3384 3809 
L 3384 3250 
L 978 2263 
L 3384 1266 
L 3384 706 
L 350 2003 
z
" transform="scale(0.015625)"/>
      <path id="ArialMT-2e" d="M 581 0 
L 581 641 
L 1222 641 
L 1222 0 
L 581 0 
z
" transform="scale(0.015625)"/>
      <path id="ArialMT-2a" d="M 200 3741 
L 344 4184 
Q 841 4009 1066 3881 
Q 1006 4447 1003 4659 
L 1456 4659 
Q 1447 4350 1384 3884 
Q 1706 4047 2122 4184 
L 2266 3741 
Q 1869 3609 1488 3566 
Q 1678 3400 2025 2975 
L 1650 2709 
Q 1469 2956 1222 3381 
Q 991 2941 816 2709 
L 447 2975 
Q 809 3422 966 3566 
Q 563 3644 200 3741 
z
" transform="scale(0.015625)"/>
     </defs>
     <use xlink:href="#ArialMT-43" transform="translate(0 0.203125)"/>
     <use xlink:href="#ArialMT-4d" transform="translate(72.216797 0.203125)"/>
     <use xlink:href="#ArialMT-53" transform="translate(155.517578 0.203125)"/>
     <use xlink:href="#ArialMT-53" transform="translate(222.216797 0.203125)"/>
     <use xlink:href="#ArialMT-31" transform="translate(288.916016 0.203125)"/>
     <use xlink:href="#ArialMT-2c" transform="translate(344.53125 0.203125)"/>
     <use xlink:href="#ArialMT-20" transform="translate(372.314453 0.203125)"/>
     <use xlink:href="#DejaVuSans-Oblique-70" transform="translate(400.097656 0.203125)"/>
     <use xlink:href="#DejaVuSans-Oblique-61" transform="translate(463.574219 -16.203125)scale(0.7)"/>
     <use xlink:href="#DejaVuSans-Oblique-64" transform="translate(506.469727 -16.203125)scale(0.7)"/>
     <use xlink:href="#DejaVuSans-Oblique-6a" transform="translate(550.90332 -16.203125)scale(0.7)"/>
     <use xlink:href="#ArialMT-20" transform="translate(573.085938 0.203125)"/>
     <use xlink:href="#ArialMT-3c" transform="translate(600.869141 0.203125)"/>
     <use xlink:href="#ArialMT-20" transform="translate(659.267578 0.203125)"/>
     <use xlink:href="#ArialMT-2e" transform="translate(687.050781 0.203125)"/>
     <use xlink:href="#ArialMT-30" transform="translate(714.833984 0.203125)"/>
     <use xlink:href="#ArialMT-30" transform="translate(770.449219 0.203125)"/>
     <use xlink:href="#ArialMT-31" transform="translate(826.064453 0.203125)"/>
     <use xlink:href="#ArialMT-20" transform="translate(881.679688 0.203125)"/>
     <use xlink:href="#ArialMT-2a" transform="translate(909.462891 0.203125)"/>
     <use xlink:href="#ArialMT-2a" transform="translate(948.378906 0.203125)"/>
     <use xlink:href="#ArialMT-2a" transform="translate(987.294922 0.203125)"/>
    </g>
   </g>
   <g id="legend_1">
    <g id="patch_5">
     <path d="M 441.91497 69.712344 
L 494.21622 69.712344 
Q 496.01622 69.712344 496.01622 67.912344 
L 496.01622 30.62 
Q 496.01622 28.82 494.21622 28.82 
L 441.91497 28.82 
Q 440.11497 28.82 440.11497 30.62 
L 440.11497 67.912344 
Q 440.11497 69.712344 441.91497 69.712344 
z
" style="fill: #ffffff; opacity: 0.8; stroke: #cccccc; stroke-linejoin: miter"/>
    </g>
    <g id="text_17">
     <!-- Treatment -->
     <g style="fill: #262626" transform="translate(447.729111 38.862031)scale(0.09 -0.09)">
      <use xlink:href="#ArialMT-54"/>
      <use xlink:href="#ArialMT-72" x="57.333984"/>
      <use xlink:href="#ArialMT-65" x="90.634766"/>
      <use xlink:href="#ArialMT-61" x="146.25"/>
      <use xlink:href="#ArialMT-74" x="201.865234"/>
      <use xlink:href="#ArialMT-6d" x="229.648438"/>
      <use xlink:href="#ArialMT-65" x="312.949219"/>
      <use xlink:href="#ArialMT-6e" x="368.564453"/>
      <use xlink:href="#ArialMT-74" x="424.179688"/>
     </g>
    </g>
    <g id="PathCollection_10">
     <defs>
      <path id="mc4854fbbe6" d="M 0 3.872983 
C 1.027127 3.872983 2.012324 3.464901 2.738613 2.738613 
C 3.464901 2.012324 3.872983 1.027127 3.872983 0 
C 3.872983 -1.027127 3.464901 -2.012324 2.738613 -2.738613 
C 2.012324 -3.464901 1.027127 -3.872983 0 -3.872983 
C -1.027127 -3.872983 -2.012324 -3.464901 -2.738613 -2.738613 
C -3.464901 -2.012324 -3.872983 -1.027127 -3.872983 0 
C -3.872983 1.027127 -3.464901 2.012324 -2.738613 2.738613 
C -2.012324 3.464901 -1.027127 3.872983 0 3.872983 
z
" style="stroke: #4c72b0"/>
     </defs>
     <g>
      <use xlink:href="#mc4854fbbe6" x="452.71497" y="49.230313" style="fill: #4c72b0; stroke: #4c72b0"/>
     </g>
    </g>
    <g id="text_18">
     <!-- BEVA -->
     <g style="fill: #262626" transform="translate(468.91497 51.592813)scale(0.09 -0.09)">
      <defs>
       <path id="ArialMT-42" d="M 469 0 
L 469 4581 
L 2188 4581 
Q 2713 4581 3030 4442 
Q 3347 4303 3526 4014 
Q 3706 3725 3706 3409 
Q 3706 3116 3547 2856 
Q 3388 2597 3066 2438 
Q 3481 2316 3704 2022 
Q 3928 1728 3928 1328 
Q 3928 1006 3792 729 
Q 3656 453 3456 303 
Q 3256 153 2954 76 
Q 2653 0 2216 0 
L 469 0 
z
M 1075 2656 
L 2066 2656 
Q 2469 2656 2644 2709 
Q 2875 2778 2992 2937 
Q 3109 3097 3109 3338 
Q 3109 3566 3000 3739 
Q 2891 3913 2687 3977 
Q 2484 4041 1991 4041 
L 1075 4041 
L 1075 2656 
z
M 1075 541 
L 2216 541 
Q 2509 541 2628 563 
Q 2838 600 2978 687 
Q 3119 775 3209 942 
Q 3300 1109 3300 1328 
Q 3300 1584 3169 1773 
Q 3038 1963 2805 2039 
Q 2572 2116 2134 2116 
L 1075 2116 
L 1075 541 
z
" transform="scale(0.015625)"/>
       <path id="ArialMT-45" d="M 506 0 
L 506 4581 
L 3819 4581 
L 3819 4041 
L 1113 4041 
L 1113 2638 
L 3647 2638 
L 3647 2100 
L 1113 2100 
L 1113 541 
L 3925 541 
L 3925 0 
L 506 0 
z
" transform="scale(0.015625)"/>
       <path id="ArialMT-56" d="M 1803 0 
L 28 4581 
L 684 4581 
L 1875 1253 
Q 2019 853 2116 503 
Q 2222 878 2363 1253 
L 3600 4581 
L 4219 4581 
L 2425 0 
L 1803 0 
z
" transform="scale(0.015625)"/>
       <path id="ArialMT-41" d="M -9 0 
L 1750 4581 
L 2403 4581 
L 4278 0 
L 3588 0 
L 3053 1388 
L 1138 1388 
L 634 0 
L -9 0 
z
M 1313 1881 
L 2866 1881 
L 2388 3150 
Q 2169 3728 2063 4100 
Q 1975 3659 1816 3225 
L 1313 1881 
z
" transform="scale(0.015625)"/>
      </defs>
      <use xlink:href="#ArialMT-42"/>
      <use xlink:href="#ArialMT-45" x="66.699219"/>
      <use xlink:href="#ArialMT-56" x="133.398438"/>
      <use xlink:href="#ArialMT-41" x="192.722656"/>
     </g>
    </g>
    <g id="PathCollection_11">
     <defs>
      <path id="m079ab36392" d="M 0 3.872983 
C 1.027127 3.872983 2.012324 3.464901 2.738613 2.738613 
C 3.464901 2.012324 3.872983 1.027127 3.872983 0 
C 3.872983 -1.027127 3.464901 -2.012324 2.738613 -2.738613 
C 2.012324 -3.464901 1.027127 -3.872983 0 -3.872983 
C -1.027127 -3.872983 -2.012324 -3.464901 -2.738613 -2.738613 
C -3.464901 -2.012324 -3.872983 -1.027127 -3.872983 0 
C -3.872983 1.027127 -3.464901 2.012324 -2.738613 2.738613 
C -2.012324 3.464901 -1.027127 3.872983 0 3.872983 
z
" style="stroke: #dd8452"/>
     </defs>
     <g>
      <use xlink:href="#m079ab36392" x="452.71497" y="61.961094" style="fill: #dd8452; stroke: #dd8452"/>
     </g>
    </g>
    <g id="text_19">
     <!-- CTRL -->
     <g style="fill: #262626" transform="translate(468.91497 64.323594)scale(0.09 -0.09)">
      <defs>
       <path id="ArialMT-52" d="M 503 0 
L 503 4581 
L 2534 4581 
Q 3147 4581 3465 4457 
Q 3784 4334 3975 4021 
Q 4166 3709 4166 3331 
Q 4166 2844 3850 2509 
Q 3534 2175 2875 2084 
Q 3116 1969 3241 1856 
Q 3506 1613 3744 1247 
L 4541 0 
L 3778 0 
L 3172 953 
Q 2906 1366 2734 1584 
Q 2563 1803 2427 1890 
Q 2291 1978 2150 2013 
Q 2047 2034 1813 2034 
L 1109 2034 
L 1109 0 
L 503 0 
z
M 1109 2559 
L 2413 2559 
Q 2828 2559 3062 2645 
Q 3297 2731 3419 2920 
Q 3541 3109 3541 3331 
Q 3541 3656 3305 3865 
Q 3069 4075 2559 4075 
L 1109 4075 
L 1109 2559 
z
" transform="scale(0.015625)"/>
       <path id="ArialMT-4c" d="M 469 0 
L 469 4581 
L 1075 4581 
L 1075 541 
L 3331 541 
L 3331 0 
L 469 0 
z
" transform="scale(0.015625)"/>
      </defs>
      <use xlink:href="#ArialMT-43"/>
      <use xlink:href="#ArialMT-54" x="72.216797"/>
      <use xlink:href="#ArialMT-52" x="133.300781"/>
      <use xlink:href="#ArialMT-4c" x="205.517578"/>
     </g>
    </g>
   </g>
  </g>
 </g>
 <defs>
  <clipPath id="p2691f66001">
   <rect x="42.22" y="24.32" width="458.29622" height="189.57811"/>
  </clipPath>
 </defs>
</svg>
