<?xml version="1.0" encoding="utf-8" standalone="no"?>
<!DOCTYPE svg PUBLIC "-//W3C//DTD SVG 1.1//EN"
  "http://www.w3.org/Graphics/SVG/1.1/DTD/svg11.dtd">
<svg xmlns:xlink="http://www.w3.org/1999/xlink" width="510.23622pt" height="255.11811pt" viewBox="0 0 510.23622 255.11811" xmlns="http://www.w3.org/2000/svg" version="1.1">
 <metadata>
  <rdf:RDF xmlns:dc="http://purl.org/dc/elements/1.1/" xmlns:cc="http://creativecommons.org/ns#" xmlns:rdf="http://www.w3.org/1999/02/22-rdf-syntax-ns#">
   <cc:Work>
    <dc:type rdf:resource="http://purl.org/dc/dcmitype/StillImage"/>
    <dc:date>2022-04-27T00:12:30.865044</dc:date>
    <dc:format>image/svg+xml</dc:format>
    <dc:creator>
     <cc:Agent>
      <dc:title>Matplotlib v3.5.1, https://matplotlib.org/</dc:title>
     </cc:Agent>
    </dc:creator>
   </cc:Work>
  </rdf:RDF>
 </metadata>
 <defs>
  <style type="text/css">*{stroke-linejoin: round; stroke-linecap: butt}</style>
 </defs>
 <g id="figure_1">
  <g id="patch_1">
   <path d="M 0 255.11811 
L 510.23622 255.11811 
L 510.23622 0 
L 0 0 
z
" style="fill: #ffffff"/>
  </g>
  <g id="axes_1">
   <g id="patch_2">
    <path d="M 47.22 213.89811 
L 500.51622 213.89811 
L 500.51622 24.32 
L 47.22 24.32 
z
" style="fill: #ffffff"/>
   </g>
   <g id="matplotlib.axis_1">
    <g id="xtick_1">
     <g id="text_1">
      <!-- 49 -->
      <g style="fill: #444444" transform="translate(74.593458 229.840141)scale(0.09 -0.09)">
       <defs>
        <path id="ArialMT-34" d="M 2069 0 
L 2069 1097 
L 81 1097 
L 81 1613 
L 2172 4581 
L 2631 4581 
L 2631 1613 
L 3250 1613 
L 3250 1097 
L 2631 1097 
L 2631 0 
L 2069 0 
z
M 2069 1613 
L 2069 3678 
L 634 1613 
L 2069 1613 
z
" transform="scale(0.015625)"/>
        <path id="ArialMT-39" d="M 350 1059 
L 891 1109 
Q 959 728 1153 556 
Q 1347 384 1650 384 
Q 1909 384 2104 503 
Q 2300 622 2425 820 
Q 2550 1019 2634 1356 
Q 2719 1694 2719 2044 
Q 2719 2081 2716 2156 
Q 2547 1888 2255 1720 
Q 1963 1553 1622 1553 
Q 1053 1553 659 1965 
Q 266 2378 266 3053 
Q 266 3750 677 4175 
Q 1088 4600 1706 4600 
Q 2153 4600 2523 4359 
Q 2894 4119 3086 3673 
Q 3278 3228 3278 2384 
Q 3278 1506 3087 986 
Q 2897 466 2520 194 
Q 2144 -78 1638 -78 
Q 1100 -78 759 220 
Q 419 519 350 1059 
z
M 2653 3081 
Q 2653 3566 2395 3850 
Q 2138 4134 1775 4134 
Q 1400 4134 1122 3828 
Q 844 3522 844 3034 
Q 844 2597 1108 2323 
Q 1372 2050 1759 2050 
Q 2150 2050 2401 2323 
Q 2653 2597 2653 3081 
z
" transform="scale(0.015625)"/>
       </defs>
       <use xlink:href="#ArialMT-34"/>
       <use xlink:href="#ArialMT-39" x="55.615234"/>
      </g>
     </g>
    </g>
    <g id="xtick_2">
     <g id="text_2">
      <!-- 17 -->
      <g style="fill: #444444" transform="translate(139.350061 229.840141)scale(0.09 -0.09)">
       <defs>
        <path id="ArialMT-31" d="M 2384 0 
L 1822 0 
L 1822 3584 
Q 1619 3391 1289 3197 
Q 959 3003 697 2906 
L 697 3450 
Q 1169 3672 1522 3987 
Q 1875 4303 2022 4600 
L 2384 4600 
L 2384 0 
z
" transform="scale(0.015625)"/>
        <path id="ArialMT-37" d="M 303 3981 
L 303 4522 
L 3269 4522 
L 3269 4084 
Q 2831 3619 2401 2847 
Q 1972 2075 1738 1259 
Q 1569 684 1522 0 
L 944 0 
Q 953 541 1156 1306 
Q 1359 2072 1739 2783 
Q 2119 3494 2547 3981 
L 303 3981 
z
" transform="scale(0.015625)"/>
       </defs>
       <use xlink:href="#ArialMT-31"/>
       <use xlink:href="#ArialMT-37" x="55.615234"/>
      </g>
     </g>
    </g>
    <g id="xtick_3">
     <g id="text_3">
      <!-- 69 -->
      <g style="fill: #444444" transform="translate(204.106664 229.840141)scale(0.09 -0.09)">
       <defs>
        <path id="ArialMT-36" d="M 3184 3459 
L 2625 3416 
Q 2550 3747 2413 3897 
Q 2184 4138 1850 4138 
Q 1581 4138 1378 3988 
Q 1113 3794 959 3422 
Q 806 3050 800 2363 
Q 1003 2672 1297 2822 
Q 1591 2972 1913 2972 
Q 2475 2972 2870 2558 
Q 3266 2144 3266 1488 
Q 3266 1056 3080 686 
Q 2894 316 2569 119 
Q 2244 -78 1831 -78 
Q 1128 -78 684 439 
Q 241 956 241 2144 
Q 241 3472 731 4075 
Q 1159 4600 1884 4600 
Q 2425 4600 2770 4297 
Q 3116 3994 3184 3459 
z
M 888 1484 
Q 888 1194 1011 928 
Q 1134 663 1356 523 
Q 1578 384 1822 384 
Q 2178 384 2434 671 
Q 2691 959 2691 1453 
Q 2691 1928 2437 2201 
Q 2184 2475 1800 2475 
Q 1419 2475 1153 2201 
Q 888 1928 888 1484 
z
" transform="scale(0.015625)"/>
       </defs>
       <use xlink:href="#ArialMT-36"/>
       <use xlink:href="#ArialMT-39" x="55.615234"/>
      </g>
     </g>
    </g>
    <g id="xtick_4">
     <g id="text_4">
      <!-- 15 -->
      <g style="fill: #444444" transform="translate(268.863266 229.840141)scale(0.09 -0.09)">
       <defs>
        <path id="ArialMT-35" d="M 266 1200 
L 856 1250 
Q 922 819 1161 601 
Q 1400 384 1738 384 
Q 2144 384 2425 690 
Q 2706 997 2706 1503 
Q 2706 1984 2436 2262 
Q 2166 2541 1728 2541 
Q 1456 2541 1237 2417 
Q 1019 2294 894 2097 
L 366 2166 
L 809 4519 
L 3088 4519 
L 3088 3981 
L 1259 3981 
L 1013 2750 
Q 1425 3038 1878 3038 
Q 2478 3038 2890 2622 
Q 3303 2206 3303 1553 
Q 3303 931 2941 478 
Q 2500 -78 1738 -78 
Q 1113 -78 717 272 
Q 322 622 266 1200 
z
" transform="scale(0.015625)"/>
       </defs>
       <use xlink:href="#ArialMT-31"/>
       <use xlink:href="#ArialMT-35" x="55.615234"/>
      </g>
     </g>
    </g>
    <g id="xtick_5">
     <g id="text_5">
      <!-- 5 -->
      <g style="fill: #444444" transform="translate(336.122291 229.840141)scale(0.09 -0.09)">
       <use xlink:href="#ArialMT-35"/>
      </g>
     </g>
    </g>
    <g id="xtick_6">
     <g id="text_6">
      <!-- 126 -->
      <g style="fill: #444444" transform="translate(395.87405 229.840141)scale(0.09 -0.09)">
       <defs>
        <path id="ArialMT-32" d="M 3222 541 
L 3222 0 
L 194 0 
Q 188 203 259 391 
Q 375 700 629 1000 
Q 884 1300 1366 1694 
Q 2113 2306 2375 2664 
Q 2638 3022 2638 3341 
Q 2638 3675 2398 3904 
Q 2159 4134 1775 4134 
Q 1369 4134 1125 3890 
Q 881 3647 878 3216 
L 300 3275 
Q 359 3922 746 4261 
Q 1134 4600 1788 4600 
Q 2447 4600 2831 4234 
Q 3216 3869 3216 3328 
Q 3216 3053 3103 2787 
Q 2991 2522 2730 2228 
Q 2469 1934 1863 1422 
Q 1356 997 1212 845 
Q 1069 694 975 541 
L 3222 541 
z
" transform="scale(0.015625)"/>
       </defs>
       <use xlink:href="#ArialMT-31"/>
       <use xlink:href="#ArialMT-32" x="55.615234"/>
       <use xlink:href="#ArialMT-36" x="111.230469"/>
      </g>
     </g>
    </g>
    <g id="xtick_7">
     <g id="text_7">
      <!-- 62 -->
      <g style="fill: #444444" transform="translate(463.133075 229.840141)scale(0.09 -0.09)">
       <use xlink:href="#ArialMT-36"/>
       <use xlink:href="#ArialMT-32" x="55.615234"/>
      </g>
     </g>
    </g>
    <g id="text_8">
     <!-- Patient -->
     <g style="fill: #444444" transform="translate(259.859048 242.070923)scale(0.09 -0.09)">
      <defs>
       <path id="ArialMT-50" d="M 494 0 
L 494 4581 
L 2222 4581 
Q 2678 4581 2919 4538 
Q 3256 4481 3484 4323 
Q 3713 4166 3852 3881 
Q 3991 3597 3991 3256 
Q 3991 2672 3619 2267 
Q 3247 1863 2275 1863 
L 1100 1863 
L 1100 0 
L 494 0 
z
M 1100 2403 
L 2284 2403 
Q 2872 2403 3119 2622 
Q 3366 2841 3366 3238 
Q 3366 3525 3220 3729 
Q 3075 3934 2838 4000 
Q 2684 4041 2272 4041 
L 1100 4041 
L 1100 2403 
z
" transform="scale(0.015625)"/>
       <path id="ArialMT-61" d="M 2588 409 
Q 2275 144 1986 34 
Q 1697 -75 1366 -75 
Q 819 -75 525 192 
Q 231 459 231 875 
Q 231 1119 342 1320 
Q 453 1522 633 1644 
Q 813 1766 1038 1828 
Q 1203 1872 1538 1913 
Q 2219 1994 2541 2106 
Q 2544 2222 2544 2253 
Q 2544 2597 2384 2738 
Q 2169 2928 1744 2928 
Q 1347 2928 1158 2789 
Q 969 2650 878 2297 
L 328 2372 
Q 403 2725 575 2942 
Q 747 3159 1072 3276 
Q 1397 3394 1825 3394 
Q 2250 3394 2515 3294 
Q 2781 3194 2906 3042 
Q 3031 2891 3081 2659 
Q 3109 2516 3109 2141 
L 3109 1391 
Q 3109 606 3145 398 
Q 3181 191 3288 0 
L 2700 0 
Q 2613 175 2588 409 
z
M 2541 1666 
Q 2234 1541 1622 1453 
Q 1275 1403 1131 1340 
Q 988 1278 909 1158 
Q 831 1038 831 891 
Q 831 666 1001 516 
Q 1172 366 1500 366 
Q 1825 366 2078 508 
Q 2331 650 2450 897 
Q 2541 1088 2541 1459 
L 2541 1666 
z
" transform="scale(0.015625)"/>
       <path id="ArialMT-74" d="M 1650 503 
L 1731 6 
Q 1494 -44 1306 -44 
Q 1000 -44 831 53 
Q 663 150 594 308 
Q 525 466 525 972 
L 525 2881 
L 113 2881 
L 113 3319 
L 525 3319 
L 525 4141 
L 1084 4478 
L 1084 3319 
L 1650 3319 
L 1650 2881 
L 1084 2881 
L 1084 941 
Q 1084 700 1114 631 
Q 1144 563 1211 522 
Q 1278 481 1403 481 
Q 1497 481 1650 503 
z
" transform="scale(0.015625)"/>
       <path id="ArialMT-69" d="M 425 3934 
L 425 4581 
L 988 4581 
L 988 3934 
L 425 3934 
z
M 425 0 
L 425 3319 
L 988 3319 
L 988 0 
L 425 0 
z
" transform="scale(0.015625)"/>
       <path id="ArialMT-65" d="M 2694 1069 
L 3275 997 
Q 3138 488 2766 206 
Q 2394 -75 1816 -75 
Q 1088 -75 661 373 
Q 234 822 234 1631 
Q 234 2469 665 2931 
Q 1097 3394 1784 3394 
Q 2450 3394 2872 2941 
Q 3294 2488 3294 1666 
Q 3294 1616 3291 1516 
L 816 1516 
Q 847 969 1125 678 
Q 1403 388 1819 388 
Q 2128 388 2347 550 
Q 2566 713 2694 1069 
z
M 847 1978 
L 2700 1978 
Q 2663 2397 2488 2606 
Q 2219 2931 1791 2931 
Q 1403 2931 1139 2672 
Q 875 2413 847 1978 
z
" transform="scale(0.015625)"/>
       <path id="ArialMT-6e" d="M 422 0 
L 422 3319 
L 928 3319 
L 928 2847 
Q 1294 3394 1984 3394 
Q 2284 3394 2536 3286 
Q 2788 3178 2913 3003 
Q 3038 2828 3088 2588 
Q 3119 2431 3119 2041 
L 3119 0 
L 2556 0 
L 2556 2019 
Q 2556 2363 2490 2533 
Q 2425 2703 2258 2804 
Q 2091 2906 1866 2906 
Q 1506 2906 1245 2678 
Q 984 2450 984 1813 
L 984 0 
L 422 0 
z
" transform="scale(0.015625)"/>
      </defs>
      <use xlink:href="#ArialMT-50"/>
      <use xlink:href="#ArialMT-61" x="66.699219"/>
      <use xlink:href="#ArialMT-74" x="122.314453"/>
      <use xlink:href="#ArialMT-69" x="150.097656"/>
      <use xlink:href="#ArialMT-65" x="172.314453"/>
      <use xlink:href="#ArialMT-6e" x="227.929688"/>
      <use xlink:href="#ArialMT-74" x="283.544922"/>
     </g>
    </g>
   </g>
   <g id="matplotlib.axis_2">
    <g id="ytick_1">
     <g id="text_9">
      <!-- 0 -->
      <g style="fill: #444444" transform="translate(32.715156 212.52925)scale(0.09 -0.09)">
       <defs>
        <path id="ArialMT-30" d="M 266 2259 
Q 266 3072 433 3567 
Q 600 4063 929 4331 
Q 1259 4600 1759 4600 
Q 2128 4600 2406 4451 
Q 2684 4303 2865 4023 
Q 3047 3744 3150 3342 
Q 3253 2941 3253 2259 
Q 3253 1453 3087 958 
Q 2922 463 2592 192 
Q 2263 -78 1759 -78 
Q 1097 -78 719 397 
Q 266 969 266 2259 
z
M 844 2259 
Q 844 1131 1108 757 
Q 1372 384 1759 384 
Q 2147 384 2411 759 
Q 2675 1134 2675 2259 
Q 2675 3391 2411 3762 
Q 2147 4134 1753 4134 
Q 1366 4134 1134 3806 
Q 844 3388 844 2259 
z
" transform="scale(0.015625)"/>
       </defs>
       <use xlink:href="#ArialMT-30"/>
      </g>
     </g>
    </g>
    <g id="ytick_2">
     <g id="text_10">
      <!-- 20 -->
      <g style="fill: #444444" transform="translate(27.710313 186.936664)scale(0.09 -0.09)">
       <use xlink:href="#ArialMT-32"/>
       <use xlink:href="#ArialMT-30" x="55.615234"/>
      </g>
     </g>
    </g>
    <g id="ytick_3">
     <g id="text_11">
      <!-- 40 -->
      <g style="fill: #444444" transform="translate(27.710313 161.344078)scale(0.09 -0.09)">
       <use xlink:href="#ArialMT-34"/>
       <use xlink:href="#ArialMT-30" x="55.615234"/>
      </g>
     </g>
    </g>
    <g id="ytick_4">
     <g id="text_12">
      <!-- 60 -->
      <g style="fill: #444444" transform="translate(27.710313 135.751492)scale(0.09 -0.09)">
       <use xlink:href="#ArialMT-36"/>
       <use xlink:href="#ArialMT-30" x="55.615234"/>
      </g>
     </g>
    </g>
    <g id="ytick_5">
     <g id="text_13">
      <!-- 80 -->
      <g style="fill: #444444" transform="translate(27.710313 110.158906)scale(0.09 -0.09)">
       <defs>
        <path id="ArialMT-38" d="M 1131 2484 
Q 781 2613 612 2850 
Q 444 3088 444 3419 
Q 444 3919 803 4259 
Q 1163 4600 1759 4600 
Q 2359 4600 2725 4251 
Q 3091 3903 3091 3403 
Q 3091 3084 2923 2848 
Q 2756 2613 2416 2484 
Q 2838 2347 3058 2040 
Q 3278 1734 3278 1309 
Q 3278 722 2862 322 
Q 2447 -78 1769 -78 
Q 1091 -78 675 323 
Q 259 725 259 1325 
Q 259 1772 486 2073 
Q 713 2375 1131 2484 
z
M 1019 3438 
Q 1019 3113 1228 2906 
Q 1438 2700 1772 2700 
Q 2097 2700 2305 2904 
Q 2513 3109 2513 3406 
Q 2513 3716 2298 3927 
Q 2084 4138 1766 4138 
Q 1444 4138 1231 3931 
Q 1019 3725 1019 3438 
z
M 838 1322 
Q 838 1081 952 856 
Q 1066 631 1291 507 
Q 1516 384 1775 384 
Q 2178 384 2440 643 
Q 2703 903 2703 1303 
Q 2703 1709 2433 1975 
Q 2163 2241 1756 2241 
Q 1359 2241 1098 1978 
Q 838 1716 838 1322 
z
" transform="scale(0.015625)"/>
       </defs>
       <use xlink:href="#ArialMT-38"/>
       <use xlink:href="#ArialMT-30" x="55.615234"/>
      </g>
     </g>
    </g>
    <g id="ytick_6">
     <g id="text_14">
      <!-- 100 -->
      <g style="fill: #444444" transform="translate(22.705469 84.566321)scale(0.09 -0.09)">
       <use xlink:href="#ArialMT-31"/>
       <use xlink:href="#ArialMT-30" x="55.615234"/>
       <use xlink:href="#ArialMT-30" x="111.230469"/>
      </g>
     </g>
    </g>
    <g id="ytick_7">
     <g id="text_15">
      <!-- 120 -->
      <g style="fill: #444444" transform="translate(22.705469 58.973735)scale(0.09 -0.09)">
       <use xlink:href="#ArialMT-31"/>
       <use xlink:href="#ArialMT-32" x="55.615234"/>
       <use xlink:href="#ArialMT-30" x="111.230469"/>
      </g>
     </g>
    </g>
    <g id="ytick_8">
     <g id="text_16">
      <!-- 140 -->
      <g style="fill: #444444" transform="translate(22.705469 33.381149)scale(0.09 -0.09)">
       <use xlink:href="#ArialMT-31"/>
       <use xlink:href="#ArialMT-34" x="55.615234"/>
       <use xlink:href="#ArialMT-30" x="111.230469"/>
      </g>
     </g>
    </g>
    <g id="text_17">
     <!-- Trimmed Means of M values (TMM) -->
     <g style="fill: #444444" transform="translate(16.81125 190.194993)rotate(-90)scale(0.09 -0.09)">
      <defs>
       <path id="ArialMT-54" d="M 1659 0 
L 1659 4041 
L 150 4041 
L 150 4581 
L 3781 4581 
L 3781 4041 
L 2266 4041 
L 2266 0 
L 1659 0 
z
" transform="scale(0.015625)"/>
       <path id="ArialMT-72" d="M 416 0 
L 416 3319 
L 922 3319 
L 922 2816 
Q 1116 3169 1280 3281 
Q 1444 3394 1641 3394 
Q 1925 3394 2219 3213 
L 2025 2691 
Q 1819 2813 1613 2813 
Q 1428 2813 1281 2702 
Q 1134 2591 1072 2394 
Q 978 2094 978 1738 
L 978 0 
L 416 0 
z
" transform="scale(0.015625)"/>
       <path id="ArialMT-6d" d="M 422 0 
L 422 3319 
L 925 3319 
L 925 2853 
Q 1081 3097 1340 3245 
Q 1600 3394 1931 3394 
Q 2300 3394 2536 3241 
Q 2772 3088 2869 2813 
Q 3263 3394 3894 3394 
Q 4388 3394 4653 3120 
Q 4919 2847 4919 2278 
L 4919 0 
L 4359 0 
L 4359 2091 
Q 4359 2428 4304 2576 
Q 4250 2725 4106 2815 
Q 3963 2906 3769 2906 
Q 3419 2906 3187 2673 
Q 2956 2441 2956 1928 
L 2956 0 
L 2394 0 
L 2394 2156 
Q 2394 2531 2256 2718 
Q 2119 2906 1806 2906 
Q 1569 2906 1367 2781 
Q 1166 2656 1075 2415 
Q 984 2175 984 1722 
L 984 0 
L 422 0 
z
" transform="scale(0.015625)"/>
       <path id="ArialMT-64" d="M 2575 0 
L 2575 419 
Q 2259 -75 1647 -75 
Q 1250 -75 917 144 
Q 584 363 401 755 
Q 219 1147 219 1656 
Q 219 2153 384 2558 
Q 550 2963 881 3178 
Q 1213 3394 1622 3394 
Q 1922 3394 2156 3267 
Q 2391 3141 2538 2938 
L 2538 4581 
L 3097 4581 
L 3097 0 
L 2575 0 
z
M 797 1656 
Q 797 1019 1065 703 
Q 1334 388 1700 388 
Q 2069 388 2326 689 
Q 2584 991 2584 1609 
Q 2584 2291 2321 2609 
Q 2059 2928 1675 2928 
Q 1300 2928 1048 2622 
Q 797 2316 797 1656 
z
" transform="scale(0.015625)"/>
       <path id="ArialMT-20" transform="scale(0.015625)"/>
       <path id="ArialMT-4d" d="M 475 0 
L 475 4581 
L 1388 4581 
L 2472 1338 
Q 2622 884 2691 659 
Q 2769 909 2934 1394 
L 4031 4581 
L 4847 4581 
L 4847 0 
L 4263 0 
L 4263 3834 
L 2931 0 
L 2384 0 
L 1059 3900 
L 1059 0 
L 475 0 
z
" transform="scale(0.015625)"/>
       <path id="ArialMT-73" d="M 197 991 
L 753 1078 
Q 800 744 1014 566 
Q 1228 388 1613 388 
Q 2000 388 2187 545 
Q 2375 703 2375 916 
Q 2375 1106 2209 1216 
Q 2094 1291 1634 1406 
Q 1016 1563 777 1677 
Q 538 1791 414 1992 
Q 291 2194 291 2438 
Q 291 2659 392 2848 
Q 494 3038 669 3163 
Q 800 3259 1026 3326 
Q 1253 3394 1513 3394 
Q 1903 3394 2198 3281 
Q 2494 3169 2634 2976 
Q 2775 2784 2828 2463 
L 2278 2388 
Q 2241 2644 2061 2787 
Q 1881 2931 1553 2931 
Q 1166 2931 1000 2803 
Q 834 2675 834 2503 
Q 834 2394 903 2306 
Q 972 2216 1119 2156 
Q 1203 2125 1616 2013 
Q 2213 1853 2448 1751 
Q 2684 1650 2818 1456 
Q 2953 1263 2953 975 
Q 2953 694 2789 445 
Q 2625 197 2315 61 
Q 2006 -75 1616 -75 
Q 969 -75 630 194 
Q 291 463 197 991 
z
" transform="scale(0.015625)"/>
       <path id="ArialMT-6f" d="M 213 1659 
Q 213 2581 725 3025 
Q 1153 3394 1769 3394 
Q 2453 3394 2887 2945 
Q 3322 2497 3322 1706 
Q 3322 1066 3130 698 
Q 2938 331 2570 128 
Q 2203 -75 1769 -75 
Q 1072 -75 642 372 
Q 213 819 213 1659 
z
M 791 1659 
Q 791 1022 1069 705 
Q 1347 388 1769 388 
Q 2188 388 2466 706 
Q 2744 1025 2744 1678 
Q 2744 2294 2464 2611 
Q 2184 2928 1769 2928 
Q 1347 2928 1069 2612 
Q 791 2297 791 1659 
z
" transform="scale(0.015625)"/>
       <path id="ArialMT-66" d="M 556 0 
L 556 2881 
L 59 2881 
L 59 3319 
L 556 3319 
L 556 3672 
Q 556 4006 616 4169 
Q 697 4388 901 4523 
Q 1106 4659 1475 4659 
Q 1713 4659 2000 4603 
L 1916 4113 
Q 1741 4144 1584 4144 
Q 1328 4144 1222 4034 
Q 1116 3925 1116 3625 
L 1116 3319 
L 1763 3319 
L 1763 2881 
L 1116 2881 
L 1116 0 
L 556 0 
z
" transform="scale(0.015625)"/>
       <path id="ArialMT-76" d="M 1344 0 
L 81 3319 
L 675 3319 
L 1388 1331 
Q 1503 1009 1600 663 
Q 1675 925 1809 1294 
L 2547 3319 
L 3125 3319 
L 1869 0 
L 1344 0 
z
" transform="scale(0.015625)"/>
       <path id="ArialMT-6c" d="M 409 0 
L 409 4581 
L 972 4581 
L 972 0 
L 409 0 
z
" transform="scale(0.015625)"/>
       <path id="ArialMT-75" d="M 2597 0 
L 2597 488 
Q 2209 -75 1544 -75 
Q 1250 -75 995 37 
Q 741 150 617 320 
Q 494 491 444 738 
Q 409 903 409 1263 
L 409 3319 
L 972 3319 
L 972 1478 
Q 972 1038 1006 884 
Q 1059 663 1231 536 
Q 1403 409 1656 409 
Q 1909 409 2131 539 
Q 2353 669 2445 892 
Q 2538 1116 2538 1541 
L 2538 3319 
L 3100 3319 
L 3100 0 
L 2597 0 
z
" transform="scale(0.015625)"/>
       <path id="ArialMT-28" d="M 1497 -1347 
Q 1031 -759 709 28 
Q 388 816 388 1659 
Q 388 2403 628 3084 
Q 909 3875 1497 4659 
L 1900 4659 
Q 1522 4009 1400 3731 
Q 1209 3300 1100 2831 
Q 966 2247 966 1656 
Q 966 153 1900 -1347 
L 1497 -1347 
z
" transform="scale(0.015625)"/>
       <path id="ArialMT-29" d="M 791 -1347 
L 388 -1347 
Q 1322 153 1322 1656 
Q 1322 2244 1188 2822 
Q 1081 3291 891 3722 
Q 769 4003 388 4659 
L 791 4659 
Q 1378 3875 1659 3084 
Q 1900 2403 1900 1659 
Q 1900 816 1576 28 
Q 1253 -759 791 -1347 
z
" transform="scale(0.015625)"/>
      </defs>
      <use xlink:href="#ArialMT-54"/>
      <use xlink:href="#ArialMT-72" x="57.333984"/>
      <use xlink:href="#ArialMT-69" x="90.634766"/>
      <use xlink:href="#ArialMT-6d" x="112.851562"/>
      <use xlink:href="#ArialMT-6d" x="196.152344"/>
      <use xlink:href="#ArialMT-65" x="279.453125"/>
      <use xlink:href="#ArialMT-64" x="335.068359"/>
      <use xlink:href="#ArialMT-20" x="390.683594"/>
      <use xlink:href="#ArialMT-4d" x="418.466797"/>
      <use xlink:href="#ArialMT-65" x="501.767578"/>
      <use xlink:href="#ArialMT-61" x="557.382812"/>
      <use xlink:href="#ArialMT-6e" x="612.998047"/>
      <use xlink:href="#ArialMT-73" x="668.613281"/>
      <use xlink:href="#ArialMT-20" x="718.613281"/>
      <use xlink:href="#ArialMT-6f" x="746.396484"/>
      <use xlink:href="#ArialMT-66" x="802.011719"/>
      <use xlink:href="#ArialMT-20" x="829.794922"/>
      <use xlink:href="#ArialMT-4d" x="857.578125"/>
      <use xlink:href="#ArialMT-20" x="940.878906"/>
      <use xlink:href="#ArialMT-76" x="968.662109"/>
      <use xlink:href="#ArialMT-61" x="1018.662109"/>
      <use xlink:href="#ArialMT-6c" x="1074.277344"/>
      <use xlink:href="#ArialMT-75" x="1096.494141"/>
      <use xlink:href="#ArialMT-65" x="1152.109375"/>
      <use xlink:href="#ArialMT-73" x="1207.724609"/>
      <use xlink:href="#ArialMT-20" x="1257.724609"/>
      <use xlink:href="#ArialMT-28" x="1285.507812"/>
      <use xlink:href="#ArialMT-54" x="1318.808594"/>
      <use xlink:href="#ArialMT-4d" x="1379.892578"/>
      <use xlink:href="#ArialMT-4d" x="1463.193359"/>
      <use xlink:href="#ArialMT-29" x="1546.494141"/>
     </g>
    </g>
   </g>
   <g id="PolyCollection_1">
    <defs>
     <path id="mbd040ac923" d="M 81.467254 -63.386343 
L 77.729349 -63.386343 
L 77.695543 -63.805343 
L 77.663807 -64.224343 
L 77.634212 -64.643343 
L 77.606818 -65.062343 
L 77.581671 -65.481343 
L 77.558803 -65.900343 
L 77.538234 -66.319343 
L 77.519968 -66.738343 
L 77.504 -67.157343 
L 77.490309 -67.576343 
L 77.478862 -67.995344 
L 77.469616 -68.414344 
L 77.462516 -68.833344 
L 77.457496 -69.252344 
L 77.454481 -69.671344 
L 77.45339 -70.090344 
L 77.454132 -70.509344 
L 77.456612 -70.928344 
L 77.460729 -71.347344 
L 77.466379 -71.766344 
L 77.473454 -72.185344 
L 77.481848 -72.604344 
L 77.491451 -73.023345 
L 77.502158 -73.442345 
L 77.513863 -73.861345 
L 77.526464 -74.280345 
L 77.539863 -74.699345 
L 77.553969 -75.118345 
L 77.568693 -75.537345 
L 77.583954 -75.956345 
L 77.599677 -76.375345 
L 77.615796 -76.794345 
L 77.632249 -77.213345 
L 77.648985 -77.632346 
L 77.665958 -78.051346 
L 77.68313 -78.470346 
L 77.700471 -78.889346 
L 77.717956 -79.308346 
L 77.735568 -79.727346 
L 77.753296 -80.146346 
L 77.771134 -80.565346 
L 77.789082 -80.984346 
L 77.807143 -81.403346 
L 77.825323 -81.822346 
L 77.843632 -82.241347 
L 77.862083 -82.660347 
L 77.880689 -83.079347 
L 77.899464 -83.498347 
L 77.918421 -83.917347 
L 77.937576 -84.336347 
L 77.956939 -84.755347 
L 77.976523 -85.174347 
L 77.996336 -85.593347 
L 78.016383 -86.012347 
L 78.036668 -86.431347 
L 78.057192 -86.850348 
L 78.077951 -87.269348 
L 78.098938 -87.688348 
L 78.120144 -88.107348 
L 78.141555 -88.526348 
L 78.163154 -88.945348 
L 78.184921 -89.364348 
L 78.206835 -89.783348 
L 78.22887 -90.202348 
L 78.250998 -90.621348 
L 78.273191 -91.040348 
L 78.295419 -91.459348 
L 78.31765 -91.878349 
L 78.339853 -92.297349 
L 78.361996 -92.716349 
L 78.384048 -93.135349 
L 78.40598 -93.554349 
L 78.427762 -93.973349 
L 78.449367 -94.392349 
L 78.470772 -94.811349 
L 78.491954 -95.230349 
L 78.512893 -95.649349 
L 78.533574 -96.068349 
L 78.553984 -96.48735 
L 78.574112 -96.90635 
L 78.593953 -97.32535 
L 78.613503 -97.74435 
L 78.632765 -98.16335 
L 78.65174 -98.58235 
L 78.670438 -99.00135 
L 78.688867 -99.42035 
L 78.70704 -99.83935 
L 78.724973 -100.25835 
L 78.742684 -100.67735 
L 78.76019 -101.096351 
L 78.777513 -101.515351 
L 78.794673 -101.934351 
L 78.811694 -102.353351 
L 78.828596 -102.772351 
L 78.845403 -103.191351 
L 78.862135 -103.610351 
L 78.878812 -104.029351 
L 78.895453 -104.448351 
L 78.912077 -104.867351 
L 80.284526 -104.867351 
L 80.284526 -104.867351 
L 80.301149 -104.448351 
L 80.317791 -104.029351 
L 80.334468 -103.610351 
L 80.3512 -103.191351 
L 80.368006 -102.772351 
L 80.384909 -102.353351 
L 80.40193 -101.934351 
L 80.41909 -101.515351 
L 80.436413 -101.096351 
L 80.453919 -100.67735 
L 80.47163 -100.25835 
L 80.489563 -99.83935 
L 80.507736 -99.42035 
L 80.526165 -99.00135 
L 80.544863 -98.58235 
L 80.563838 -98.16335 
L 80.5831 -97.74435 
L 80.60265 -97.32535 
L 80.622491 -96.90635 
L 80.642619 -96.48735 
L 80.663029 -96.068349 
L 80.68371 -95.649349 
L 80.704649 -95.230349 
L 80.725831 -94.811349 
L 80.747235 -94.392349 
L 80.768841 -93.973349 
L 80.790623 -93.554349 
L 80.812554 -93.135349 
L 80.834607 -92.716349 
L 80.85675 -92.297349 
L 80.878953 -91.878349 
L 80.901184 -91.459348 
L 80.923411 -91.040348 
L 80.945605 -90.621348 
L 80.967733 -90.202348 
L 80.989768 -89.783348 
L 81.011682 -89.364348 
L 81.033449 -88.945348 
L 81.055048 -88.526348 
L 81.076459 -88.107348 
L 81.097665 -87.688348 
L 81.118652 -87.269348 
L 81.139411 -86.850348 
L 81.159935 -86.431347 
L 81.18022 -86.012347 
L 81.200267 -85.593347 
L 81.22008 -85.174347 
L 81.239664 -84.755347 
L 81.259027 -84.336347 
L 81.278182 -83.917347 
L 81.297139 -83.498347 
L 81.315914 -83.079347 
L 81.33452 -82.660347 
L 81.352971 -82.241347 
L 81.37128 -81.822346 
L 81.38946 -81.403346 
L 81.407521 -80.984346 
L 81.425469 -80.565346 
L 81.443307 -80.146346 
L 81.461035 -79.727346 
L 81.478647 -79.308346 
L 81.496132 -78.889346 
L 81.513473 -78.470346 
L 81.530645 -78.051346 
L 81.547618 -77.632346 
L 81.564353 -77.213345 
L 81.580807 -76.794345 
L 81.596926 -76.375345 
L 81.612649 -75.956345 
L 81.62791 -75.537345 
L 81.642634 -75.118345 
L 81.65674 -74.699345 
L 81.670139 -74.280345 
L 81.68274 -73.861345 
L 81.694445 -73.442345 
L 81.705152 -73.023345 
L 81.714755 -72.604344 
L 81.723149 -72.185344 
L 81.730224 -71.766344 
L 81.735874 -71.347344 
L 81.739991 -70.928344 
L 81.742471 -70.509344 
L 81.743213 -70.090344 
L 81.742122 -69.671344 
L 81.739107 -69.252344 
L 81.734087 -68.833344 
L 81.726987 -68.414344 
L 81.717741 -67.995344 
L 81.706294 -67.576343 
L 81.692603 -67.157343 
L 81.676635 -66.738343 
L 81.658369 -66.319343 
L 81.6378 -65.900343 
L 81.614932 -65.481343 
L 81.589785 -65.062343 
L 81.562391 -64.643343 
L 81.532796 -64.224343 
L 81.50106 -63.805343 
L 81.467254 -63.386343 
z
" style="stroke: #999999; stroke-width: 2"/>
    </defs>
    <g clip-path="url(#p93417225ea)">
     <use xlink:href="#mbd040ac923" x="0" y="255.11811" style="fill: #ffffff; stroke: #999999; stroke-width: 2"/>
    </g>
   </g>
   <g id="PolyCollection_2">
    <defs>
     <path id="m56da7c1aa9" d="M 145.154588 -120.940864 
L 143.555221 -120.940864 
L 143.539782 -121.963491 
L 143.525096 -122.986118 
L 143.511206 -124.008745 
L 143.498153 -125.031371 
L 143.485976 -126.053998 
L 143.474708 -127.076625 
L 143.464382 -128.099252 
L 143.455026 -129.121879 
L 143.446665 -130.144506 
L 143.43932 -131.167133 
L 143.433009 -132.189759 
L 143.427746 -133.212386 
L 143.42354 -134.235013 
L 143.420398 -135.25764 
L 143.418321 -136.280267 
L 143.417307 -137.302894 
L 143.417351 -138.325521 
L 143.418443 -139.348147 
L 143.420569 -140.370774 
L 143.423711 -141.393401 
L 143.427848 -142.416028 
L 143.432956 -143.438655 
L 143.439006 -144.461282 
L 143.445965 -145.483909 
L 143.4538 -146.506536 
L 143.462473 -147.529162 
L 143.471941 -148.551789 
L 143.482161 -149.574416 
L 143.493088 -150.597043 
L 143.504672 -151.61967 
L 143.516863 -152.642297 
L 143.529609 -153.664924 
L 143.542855 -154.68755 
L 143.556548 -155.710177 
L 143.57063 -156.732804 
L 143.585044 -157.755431 
L 143.599733 -158.778058 
L 143.61464 -159.800685 
L 143.629707 -160.823312 
L 143.644878 -161.845938 
L 143.660096 -162.868565 
L 143.675305 -163.891192 
L 143.690453 -164.913819 
L 143.705486 -165.936446 
L 143.720355 -166.959073 
L 143.735012 -167.9817 
L 143.749409 -169.004327 
L 143.763505 -170.026953 
L 143.77726 -171.04958 
L 143.790635 -172.072207 
L 143.803596 -173.094834 
L 143.816114 -174.117461 
L 143.828161 -175.140088 
L 143.839714 -176.162715 
L 143.850752 -177.185341 
L 143.861261 -178.207968 
L 143.871228 -179.230595 
L 143.880646 -180.253222 
L 143.889509 -181.275849 
L 143.897817 -182.298476 
L 143.905575 -183.321103 
L 143.912787 -184.343729 
L 143.919466 -185.366356 
L 143.925624 -186.388983 
L 143.931279 -187.41161 
L 143.93645 -188.434237 
L 143.941161 -189.456864 
L 143.945436 -190.479491 
L 143.949303 -191.502118 
L 143.952792 -192.524744 
L 143.955934 -193.547371 
L 143.958762 -194.569998 
L 143.961311 -195.592625 
L 143.963615 -196.615252 
L 143.965711 -197.637879 
L 143.967635 -198.660506 
L 143.969423 -199.683132 
L 143.971111 -200.705759 
L 143.972735 -201.728386 
L 143.97433 -202.751013 
L 143.97593 -203.77364 
L 143.977568 -204.796267 
L 143.979276 -205.818894 
L 143.981083 -206.84152 
L 143.983017 -207.864147 
L 143.985106 -208.886774 
L 143.987372 -209.909401 
L 143.989837 -210.932028 
L 143.992522 -211.954655 
L 143.995444 -212.977282 
L 143.998616 -213.999909 
L 144.002051 -215.022535 
L 144.00576 -216.045162 
L 144.009748 -217.067789 
L 144.014022 -218.090416 
L 144.018582 -219.113043 
L 144.023429 -220.13567 
L 144.028559 -221.158297 
L 144.03397 -222.180923 
L 144.675839 -222.180923 
L 144.675839 -222.180923 
L 144.681249 -221.158297 
L 144.68638 -220.13567 
L 144.691227 -219.113043 
L 144.695787 -218.090416 
L 144.70006 -217.067789 
L 144.704049 -216.045162 
L 144.707757 -215.022535 
L 144.711193 -213.999909 
L 144.714365 -212.977282 
L 144.717286 -211.954655 
L 144.719971 -210.932028 
L 144.722437 -209.909401 
L 144.724703 -208.886774 
L 144.726791 -207.864147 
L 144.728726 -206.84152 
L 144.730533 -205.818894 
L 144.73224 -204.796267 
L 144.733879 -203.77364 
L 144.735479 -202.751013 
L 144.737074 -201.728386 
L 144.738698 -200.705759 
L 144.740386 -199.683132 
L 144.742174 -198.660506 
L 144.744097 -197.637879 
L 144.746193 -196.615252 
L 144.748498 -195.592625 
L 144.751047 -194.569998 
L 144.753875 -193.547371 
L 144.757017 -192.524744 
L 144.760506 -191.502118 
L 144.764373 -190.479491 
L 144.768648 -189.456864 
L 144.773359 -188.434237 
L 144.77853 -187.41161 
L 144.784185 -186.388983 
L 144.790343 -185.366356 
L 144.797021 -184.343729 
L 144.804234 -183.321103 
L 144.811991 -182.298476 
L 144.8203 -181.275849 
L 144.829163 -180.253222 
L 144.83858 -179.230595 
L 144.848548 -178.207968 
L 144.859057 -177.185341 
L 144.870095 -176.162715 
L 144.881648 -175.140088 
L 144.893695 -174.117461 
L 144.906213 -173.094834 
L 144.919174 -172.072207 
L 144.932549 -171.04958 
L 144.946303 -170.026953 
L 144.960399 -169.004327 
L 144.974797 -167.9817 
L 144.989454 -166.959073 
L 145.004323 -165.936446 
L 145.019356 -164.913819 
L 145.034504 -163.891192 
L 145.049713 -162.868565 
L 145.064931 -161.845938 
L 145.080101 -160.823312 
L 145.095169 -159.800685 
L 145.110076 -158.778058 
L 145.124765 -157.755431 
L 145.139179 -156.732804 
L 145.153261 -155.710177 
L 145.166953 -154.68755 
L 145.1802 -153.664924 
L 145.192946 -152.642297 
L 145.205137 -151.61967 
L 145.216721 -150.597043 
L 145.227648 -149.574416 
L 145.237868 -148.551789 
L 145.247336 -147.529162 
L 145.256008 -146.506536 
L 145.263843 -145.483909 
L 145.270803 -144.461282 
L 145.276853 -143.438655 
L 145.281961 -142.416028 
L 145.286098 -141.393401 
L 145.28924 -140.370774 
L 145.291366 -139.348147 
L 145.292458 -138.325521 
L 145.292502 -137.302894 
L 145.291488 -136.280267 
L 145.289411 -135.25764 
L 145.286269 -134.235013 
L 145.282063 -133.212386 
L 145.2768 -132.189759 
L 145.270489 -131.167133 
L 145.263144 -130.144506 
L 145.254783 -129.121879 
L 145.245427 -128.099252 
L 145.235101 -127.076625 
L 145.223833 -126.053998 
L 145.211655 -125.031371 
L 145.198603 -124.008745 
L 145.184713 -122.986118 
L 145.170027 -121.963491 
L 145.154588 -120.940864 
z
" style="stroke: #999999; stroke-width: 2"/>
    </defs>
    <g clip-path="url(#p93417225ea)">
     <use xlink:href="#m56da7c1aa9" x="0" y="255.11811" style="fill: #ffffff; stroke: #999999; stroke-width: 2"/>
    </g>
   </g>
   <g id="PolyCollection_3">
    <defs>
     <path id="m897936c1f4" d="M 210.185281 -85.467816 
L 208.037734 -85.467816 
L 208.007606 -86.095952 
L 207.978168 -86.724089 
L 207.949509 -87.352225 
L 207.921716 -87.980362 
L 207.894872 -88.608498 
L 207.86906 -89.236635 
L 207.844356 -89.864771 
L 207.820833 -90.492908 
L 207.798561 -91.121044 
L 207.777602 -91.749181 
L 207.758015 -92.377317 
L 207.739852 -93.005453 
L 207.72316 -93.63359 
L 207.707978 -94.261726 
L 207.694339 -94.889863 
L 207.68227 -95.517999 
L 207.67179 -96.146136 
L 207.662911 -96.774272 
L 207.655639 -97.402409 
L 207.649971 -98.030545 
L 207.645899 -98.658682 
L 207.643406 -99.286818 
L 207.642472 -99.914955 
L 207.643065 -100.543091 
L 207.645151 -101.171227 
L 207.648689 -101.799364 
L 207.653631 -102.4275 
L 207.659926 -103.055637 
L 207.667516 -103.683773 
L 207.676339 -104.31191 
L 207.68633 -104.940046 
L 207.69742 -105.568183 
L 207.709536 -106.196319 
L 207.722604 -106.824456 
L 207.736546 -107.452592 
L 207.751283 -108.080729 
L 207.766736 -108.708865 
L 207.782825 -109.337001 
L 207.799468 -109.965138 
L 207.816585 -110.593274 
L 207.834097 -111.221411 
L 207.851925 -111.849547 
L 207.869992 -112.477684 
L 207.888223 -113.10582 
L 207.906546 -113.733957 
L 207.924891 -114.362093 
L 207.943192 -114.99023 
L 207.961384 -115.618366 
L 207.979407 -116.246503 
L 207.997207 -116.874639 
L 208.01473 -117.502775 
L 208.031929 -118.130912 
L 208.048761 -118.759048 
L 208.065187 -119.387185 
L 208.081173 -120.015321 
L 208.09669 -120.643458 
L 208.111713 -121.271594 
L 208.126222 -121.899731 
L 208.140204 -122.527867 
L 208.153647 -123.156004 
L 208.166546 -123.78414 
L 208.178902 -124.412277 
L 208.190717 -125.040413 
L 208.202001 -125.668549 
L 208.212766 -126.296686 
L 208.223029 -126.924822 
L 208.23281 -127.552959 
L 208.242135 -128.181095 
L 208.25103 -128.809232 
L 208.259528 -129.437368 
L 208.267661 -130.065505 
L 208.275467 -130.693641 
L 208.282984 -131.321778 
L 208.290252 -131.949914 
L 208.297315 -132.578051 
L 208.304215 -133.206187 
L 208.310996 -133.834323 
L 208.317704 -134.46246 
L 208.324382 -135.090596 
L 208.331076 -135.718733 
L 208.33783 -136.346869 
L 208.344685 -136.975006 
L 208.351684 -137.603142 
L 208.358866 -138.231279 
L 208.366269 -138.859415 
L 208.373929 -139.487552 
L 208.381877 -140.115688 
L 208.390143 -140.743825 
L 208.398755 -141.371961 
L 208.407735 -142.000097 
L 208.417103 -142.628234 
L 208.426876 -143.25637 
L 208.437065 -143.884507 
L 208.447679 -144.512643 
L 208.458723 -145.14078 
L 208.470197 -145.768916 
L 208.482098 -146.397053 
L 208.49442 -147.025189 
L 208.507151 -147.653326 
L 209.715863 -147.653326 
L 209.715863 -147.653326 
L 209.728595 -147.025189 
L 209.740916 -146.397053 
L 209.752818 -145.768916 
L 209.764292 -145.14078 
L 209.775336 -144.512643 
L 209.78595 -143.884507 
L 209.796139 -143.25637 
L 209.805911 -142.628234 
L 209.81528 -142.000097 
L 209.82426 -141.371961 
L 209.832871 -140.743825 
L 209.841138 -140.115688 
L 209.849086 -139.487552 
L 209.856745 -138.859415 
L 209.864148 -138.231279 
L 209.87133 -137.603142 
L 209.878329 -136.975006 
L 209.885185 -136.346869 
L 209.891938 -135.718733 
L 209.898632 -135.090596 
L 209.905311 -134.46246 
L 209.912019 -133.834323 
L 209.9188 -133.206187 
L 209.9257 -132.578051 
L 209.932762 -131.949914 
L 209.940031 -131.321778 
L 209.947548 -130.693641 
L 209.955354 -130.065505 
L 209.963487 -129.437368 
L 209.971984 -128.809232 
L 209.98088 -128.181095 
L 209.990205 -127.552959 
L 209.999986 -126.924822 
L 210.010249 -126.296686 
L 210.021014 -125.668549 
L 210.032297 -125.040413 
L 210.044113 -124.412277 
L 210.056468 -123.78414 
L 210.069368 -123.156004 
L 210.082811 -122.527867 
L 210.096792 -121.899731 
L 210.111302 -121.271594 
L 210.126325 -120.643458 
L 210.141842 -120.015321 
L 210.157828 -119.387185 
L 210.174254 -118.759048 
L 210.191086 -118.130912 
L 210.208285 -117.502775 
L 210.225808 -116.874639 
L 210.243607 -116.246503 
L 210.261631 -115.618366 
L 210.279823 -114.99023 
L 210.298123 -114.362093 
L 210.316468 -113.733957 
L 210.334791 -113.10582 
L 210.353023 -112.477684 
L 210.37109 -111.849547 
L 210.388918 -111.221411 
L 210.40643 -110.593274 
L 210.423547 -109.965138 
L 210.44019 -109.337001 
L 210.456278 -108.708865 
L 210.471732 -108.080729 
L 210.486469 -107.452592 
L 210.500411 -106.824456 
L 210.513478 -106.196319 
L 210.525594 -105.568183 
L 210.536684 -104.940046 
L 210.546675 -104.31191 
L 210.555499 -103.683773 
L 210.563089 -103.055637 
L 210.569383 -102.4275 
L 210.574326 -101.799364 
L 210.577864 -101.171227 
L 210.57995 -100.543091 
L 210.580543 -99.914955 
L 210.579608 -99.286818 
L 210.577116 -98.658682 
L 210.573044 -98.030545 
L 210.567376 -97.402409 
L 210.560104 -96.774272 
L 210.551225 -96.146136 
L 210.540745 -95.517999 
L 210.528676 -94.889863 
L 210.515037 -94.261726 
L 210.499855 -93.63359 
L 210.483162 -93.005453 
L 210.464999 -92.377317 
L 210.445412 -91.749181 
L 210.424454 -91.121044 
L 210.402181 -90.492908 
L 210.378659 -89.864771 
L 210.353955 -89.236635 
L 210.328142 -88.608498 
L 210.301299 -87.980362 
L 210.273506 -87.352225 
L 210.244847 -86.724089 
L 210.215409 -86.095952 
L 210.185281 -85.467816 
z
" style="stroke: #999999; stroke-width: 2"/>
    </defs>
    <g clip-path="url(#p93417225ea)">
     <use xlink:href="#m897936c1f4" x="0" y="255.11811" style="fill: #ffffff; stroke: #999999; stroke-width: 2"/>
    </g>
   </g>
   <g id="PolyCollection_4">
    <defs>
     <path id="m36d15f3a42" d="M 274.57816 -66.254831 
L 273.15806 -66.254831 
L 273.14241 -67.389236 
L 273.12759 -68.523641 
L 273.113631 -69.658045 
L 273.100563 -70.79245 
L 273.088407 -71.926854 
L 273.077177 -73.061259 
L 273.066884 -74.195664 
L 273.057529 -75.330068 
L 273.049111 -76.464473 
L 273.04162 -77.598878 
L 273.035043 -78.733282 
L 273.029362 -79.867687 
L 273.024555 -81.002091 
L 273.020595 -82.136496 
L 273.017454 -83.270901 
L 273.015099 -84.405305 
L 273.013498 -85.53971 
L 273.012614 -86.674115 
L 273.012413 -87.808519 
L 273.012857 -88.942924 
L 273.013911 -90.077328 
L 273.01554 -91.211733 
L 273.017708 -92.346138 
L 273.020385 -93.480542 
L 273.023538 -94.614947 
L 273.027139 -95.749352 
L 273.031162 -96.883756 
L 273.035581 -98.018161 
L 273.040376 -99.152565 
L 273.045526 -100.28697 
L 273.051016 -101.421375 
L 273.05683 -102.555779 
L 273.062956 -103.690184 
L 273.069384 -104.824589 
L 273.076104 -105.958993 
L 273.083111 -107.093398 
L 273.090397 -108.227802 
L 273.097957 -109.362207 
L 273.105788 -110.496612 
L 273.113886 -111.631016 
L 273.122245 -112.765421 
L 273.130864 -113.899826 
L 273.139736 -115.03423 
L 273.148856 -116.168635 
L 273.158219 -117.303039 
L 273.167817 -118.437444 
L 273.177642 -119.571849 
L 273.187684 -120.706253 
L 273.197932 -121.840658 
L 273.208372 -122.975063 
L 273.218992 -124.109467 
L 273.229775 -125.243872 
L 273.240705 -126.378276 
L 273.251764 -127.512681 
L 273.262931 -128.647086 
L 273.274187 -129.78149 
L 273.285509 -130.915895 
L 273.296878 -132.0503 
L 273.308268 -133.184704 
L 273.319659 -134.319109 
L 273.331026 -135.453513 
L 273.342348 -136.587918 
L 273.353601 -137.722323 
L 273.364764 -138.856727 
L 273.375816 -139.991132 
L 273.386736 -141.125537 
L 273.397505 -142.259941 
L 273.408107 -143.394346 
L 273.418524 -144.52875 
L 273.428743 -145.663155 
L 273.43875 -146.79756 
L 273.448536 -147.931964 
L 273.458091 -149.066369 
L 273.467408 -150.200774 
L 273.476483 -151.335178 
L 273.485314 -152.469583 
L 273.493899 -153.603987 
L 273.502242 -154.738392 
L 273.510345 -155.872797 
L 273.518214 -157.007201 
L 273.525857 -158.141606 
L 273.533283 -159.276011 
L 273.540503 -160.410415 
L 273.547529 -161.54482 
L 273.554375 -162.679224 
L 273.561055 -163.813629 
L 273.567584 -164.948034 
L 273.573979 -166.082438 
L 273.580255 -167.216843 
L 273.586431 -168.351247 
L 273.592522 -169.485652 
L 273.598544 -170.620057 
L 273.604514 -171.754461 
L 273.610446 -172.888866 
L 273.616355 -174.023271 
L 273.622254 -175.157675 
L 273.628155 -176.29208 
L 273.634069 -177.426484 
L 273.640004 -178.560889 
L 274.096216 -178.560889 
L 274.096216 -178.560889 
L 274.102151 -177.426484 
L 274.108065 -176.29208 
L 274.113966 -175.157675 
L 274.119865 -174.023271 
L 274.125775 -172.888866 
L 274.131707 -171.754461 
L 274.137677 -170.620057 
L 274.143699 -169.485652 
L 274.14979 -168.351247 
L 274.155965 -167.216843 
L 274.162242 -166.082438 
L 274.168637 -164.948034 
L 274.175166 -163.813629 
L 274.181846 -162.679224 
L 274.188691 -161.54482 
L 274.195717 -160.410415 
L 274.202937 -159.276011 
L 274.210363 -158.141606 
L 274.218006 -157.007201 
L 274.225875 -155.872797 
L 274.233978 -154.738392 
L 274.242321 -153.603987 
L 274.250907 -152.469583 
L 274.259737 -151.335178 
L 274.268813 -150.200774 
L 274.27813 -149.066369 
L 274.287685 -147.931964 
L 274.29747 -146.79756 
L 274.307477 -145.663155 
L 274.317696 -144.52875 
L 274.328114 -143.394346 
L 274.338715 -142.259941 
L 274.349485 -141.125537 
L 274.360405 -139.991132 
L 274.371456 -138.856727 
L 274.382619 -137.722323 
L 274.393873 -136.587918 
L 274.405194 -135.453513 
L 274.416562 -134.319109 
L 274.427952 -133.184704 
L 274.439343 -132.0503 
L 274.450711 -130.915895 
L 274.462034 -129.78149 
L 274.47329 -128.647086 
L 274.484457 -127.512681 
L 274.495515 -126.378276 
L 274.506445 -125.243872 
L 274.517228 -124.109467 
L 274.527848 -122.975063 
L 274.538289 -121.840658 
L 274.548537 -120.706253 
L 274.558578 -119.571849 
L 274.568403 -118.437444 
L 274.578001 -117.303039 
L 274.587364 -116.168635 
L 274.596485 -115.03423 
L 274.605357 -113.899826 
L 274.613975 -112.765421 
L 274.622335 -111.631016 
L 274.630432 -110.496612 
L 274.638263 -109.362207 
L 274.645824 -108.227802 
L 274.65311 -107.093398 
L 274.660116 -105.958993 
L 274.666837 -104.824589 
L 274.673264 -103.690184 
L 274.67939 -102.555779 
L 274.685204 -101.421375 
L 274.690694 -100.28697 
L 274.695845 -99.152565 
L 274.700639 -98.018161 
L 274.705059 -96.883756 
L 274.709081 -95.749352 
L 274.712682 -94.614947 
L 274.715836 -93.480542 
L 274.718512 -92.346138 
L 274.720681 -91.211733 
L 274.72231 -90.077328 
L 274.723364 -88.942924 
L 274.723808 -87.808519 
L 274.723606 -86.674115 
L 274.722723 -85.53971 
L 274.721121 -84.405305 
L 274.718767 -83.270901 
L 274.715625 -82.136496 
L 274.711666 -81.002091 
L 274.706858 -79.867687 
L 274.701178 -78.733282 
L 274.694601 -77.598878 
L 274.68711 -76.464473 
L 274.678691 -75.330068 
L 274.669337 -74.195664 
L 274.659043 -73.061259 
L 274.647814 -71.926854 
L 274.635657 -70.79245 
L 274.622589 -69.658045 
L 274.608631 -68.523641 
L 274.59381 -67.389236 
L 274.57816 -66.254831 
z
" style="stroke: #999999; stroke-width: 2"/>
    </defs>
    <g clip-path="url(#p93417225ea)">
     <use xlink:href="#m36d15f3a42" x="0" y="255.11811" style="fill: #ffffff; stroke: #999999; stroke-width: 2"/>
    </g>
   </g>
   <g id="PolyCollection_5">
    <defs>
     <path id="mba178ec370" d="M 339.970297 -83.824041 
L 337.27913 -83.824041 
L 337.256967 -84.054941 
L 337.235271 -84.285842 
L 337.214032 -84.516742 
L 337.193241 -84.747642 
L 337.172885 -84.978542 
L 337.152945 -85.209442 
L 337.133402 -85.440343 
L 337.11423 -85.671243 
L 337.095404 -85.902143 
L 337.076893 -86.133043 
L 337.058664 -86.363943 
L 337.040682 -86.594843 
L 337.022909 -86.825744 
L 337.005305 -87.056644 
L 336.987827 -87.287544 
L 336.97043 -87.518444 
L 336.95307 -87.749344 
L 336.935696 -87.980245 
L 336.918262 -88.211145 
L 336.900716 -88.442045 
L 336.883006 -88.672945 
L 336.865083 -88.903845 
L 336.846892 -89.134746 
L 336.828381 -89.365646 
L 336.809498 -89.596546 
L 336.79019 -89.827446 
L 336.770404 -90.058346 
L 336.750091 -90.289247 
L 336.729198 -90.520147 
L 336.707677 -90.751047 
L 336.68548 -90.981947 
L 336.662561 -91.212847 
L 336.638876 -91.443748 
L 336.614382 -91.674648 
L 336.589042 -91.905548 
L 336.562817 -92.136448 
L 336.535675 -92.367348 
L 336.507587 -92.598248 
L 336.478526 -92.829149 
L 336.448471 -93.060049 
L 336.417404 -93.290949 
L 336.385313 -93.521849 
L 336.352191 -93.752749 
L 336.318034 -93.98365 
L 336.282848 -94.21455 
L 336.246642 -94.44545 
L 336.209432 -94.67635 
L 336.17124 -94.90725 
L 336.132097 -95.138151 
L 336.092039 -95.369051 
L 336.051109 -95.599951 
L 336.009359 -95.830851 
L 335.966848 -96.061751 
L 335.923642 -96.292652 
L 335.879816 -96.523552 
L 335.835451 -96.754452 
L 335.790637 -96.985352 
L 335.745471 -97.216252 
L 335.700058 -97.447153 
L 335.65451 -97.678053 
L 335.608944 -97.908953 
L 335.563488 -98.139853 
L 335.518271 -98.370753 
L 335.473432 -98.601653 
L 335.429112 -98.832554 
L 335.38546 -99.063454 
L 335.342627 -99.294354 
L 335.300767 -99.525254 
L 335.260039 -99.756154 
L 335.220602 -99.987055 
L 335.182617 -100.217955 
L 335.146244 -100.448855 
L 335.111646 -100.679755 
L 335.078979 -100.910655 
L 335.048403 -101.141556 
L 335.020069 -101.372456 
L 334.994128 -101.603356 
L 334.970723 -101.834256 
L 334.949994 -102.065156 
L 334.932071 -102.296057 
L 334.917077 -102.526957 
L 334.905129 -102.757857 
L 334.896331 -102.988757 
L 334.890779 -103.219657 
L 334.888558 -103.450558 
L 334.88974 -103.681458 
L 334.894386 -103.912358 
L 334.902546 -104.143258 
L 334.914255 -104.374158 
L 334.929534 -104.605058 
L 334.948394 -104.835959 
L 334.970828 -105.066859 
L 334.996819 -105.297759 
L 335.026334 -105.528659 
L 335.059326 -105.759559 
L 335.095737 -105.99046 
L 335.135494 -106.22136 
L 335.178511 -106.45226 
L 335.22469 -106.68316 
L 342.024736 -106.68316 
L 342.024736 -106.68316 
L 342.070915 -106.45226 
L 342.113933 -106.22136 
L 342.153689 -105.99046 
L 342.1901 -105.759559 
L 342.223093 -105.528659 
L 342.252607 -105.297759 
L 342.278598 -105.066859 
L 342.301033 -104.835959 
L 342.319892 -104.605058 
L 342.335172 -104.374158 
L 342.34688 -104.143258 
L 342.35504 -103.912358 
L 342.359687 -103.681458 
L 342.360869 -103.450558 
L 342.358647 -103.219657 
L 342.353095 -102.988757 
L 342.344297 -102.757857 
L 342.332349 -102.526957 
L 342.317356 -102.296057 
L 342.299433 -102.065156 
L 342.278703 -101.834256 
L 342.255299 -101.603356 
L 342.229357 -101.372456 
L 342.201024 -101.141556 
L 342.170447 -100.910655 
L 342.137781 -100.679755 
L 342.103182 -100.448855 
L 342.066809 -100.217955 
L 342.028824 -99.987055 
L 341.989387 -99.756154 
L 341.948659 -99.525254 
L 341.906799 -99.294354 
L 341.863966 -99.063454 
L 341.820314 -98.832554 
L 341.775995 -98.601653 
L 341.731155 -98.370753 
L 341.685939 -98.139853 
L 341.640482 -97.908953 
L 341.594917 -97.678053 
L 341.549368 -97.447153 
L 341.503955 -97.216252 
L 341.458789 -96.985352 
L 341.413976 -96.754452 
L 341.369611 -96.523552 
L 341.325784 -96.292652 
L 341.282579 -96.061751 
L 341.240067 -95.830851 
L 341.198318 -95.599951 
L 341.157388 -95.369051 
L 341.117329 -95.138151 
L 341.078186 -94.90725 
L 341.039994 -94.67635 
L 341.002784 -94.44545 
L 340.966578 -94.21455 
L 340.931392 -93.98365 
L 340.897236 -93.752749 
L 340.864113 -93.521849 
L 340.832022 -93.290949 
L 340.800955 -93.060049 
L 340.7709 -92.829149 
L 340.741839 -92.598248 
L 340.713751 -92.367348 
L 340.686609 -92.136448 
L 340.660385 -91.905548 
L 340.635044 -91.674648 
L 340.61055 -91.443748 
L 340.586865 -91.212847 
L 340.563946 -90.981947 
L 340.541749 -90.751047 
L 340.520228 -90.520147 
L 340.499336 -90.289247 
L 340.479022 -90.058346 
L 340.459237 -89.827446 
L 340.439928 -89.596546 
L 340.421045 -89.365646 
L 340.402535 -89.134746 
L 340.384344 -88.903845 
L 340.36642 -88.672945 
L 340.348711 -88.442045 
L 340.331165 -88.211145 
L 340.31373 -87.980245 
L 340.296357 -87.749344 
L 340.278996 -87.518444 
L 340.261599 -87.287544 
L 340.244121 -87.056644 
L 340.226517 -86.825744 
L 340.208744 -86.594843 
L 340.190762 -86.363943 
L 340.172534 -86.133043 
L 340.154023 -85.902143 
L 340.135196 -85.671243 
L 340.116025 -85.440343 
L 340.096481 -85.209442 
L 340.076541 -84.978542 
L 340.056185 -84.747642 
L 340.035394 -84.516742 
L 340.014156 -84.285842 
L 339.992459 -84.054941 
L 339.970297 -83.824041 
z
" style="stroke: #999999; stroke-width: 2"/>
    </defs>
    <g clip-path="url(#p93417225ea)">
     <use xlink:href="#mba178ec370" x="0" y="255.11811" style="fill: #ffffff; stroke: #999999; stroke-width: 2"/>
    </g>
   </g>
   <g id="PolyCollection_6">
    <defs>
     <path id="m38f264cd38" d="M 422.779874 -49.837187 
L 383.982759 -49.837187 
L 383.551122 -49.863022 
L 383.131642 -49.888857 
L 382.725396 -49.914692 
L 382.333427 -49.940527 
L 381.956737 -49.966362 
L 381.59628 -49.992197 
L 381.252957 -50.018032 
L 380.927606 -50.043867 
L 380.621003 -50.069702 
L 380.333848 -50.095537 
L 380.066766 -50.121372 
L 379.820298 -50.147208 
L 379.594896 -50.173043 
L 379.390924 -50.198878 
L 379.208645 -50.224713 
L 379.048225 -50.250548 
L 378.909727 -50.276383 
L 378.793111 -50.302218 
L 378.698228 -50.328053 
L 378.624823 -50.353888 
L 378.572534 -50.379723 
L 378.540891 -50.405558 
L 378.529317 -50.431393 
L 378.537134 -50.457228 
L 378.56356 -50.483063 
L 378.607714 -50.508898 
L 378.668624 -50.534733 
L 378.745227 -50.560568 
L 378.836375 -50.586404 
L 378.940846 -50.612239 
L 379.057345 -50.638074 
L 379.184514 -50.663909 
L 379.320941 -50.689744 
L 379.465167 -50.715579 
L 379.615695 -50.741414 
L 379.771 -50.767249 
L 379.929541 -50.793084 
L 380.089765 -50.818919 
L 380.250124 -50.844754 
L 380.409082 -50.870589 
L 380.565125 -50.896424 
L 380.716772 -50.922259 
L 380.862588 -50.948094 
L 381.001189 -50.973929 
L 381.131255 -50.999764 
L 381.251542 -51.0256 
L 381.360884 -51.051435 
L 381.458209 -51.07727 
L 381.542544 -51.103105 
L 381.61302 -51.12894 
L 381.668884 -51.154775 
L 381.7095 -51.18061 
L 381.734358 -51.206445 
L 381.743077 -51.23228 
L 381.735407 -51.258115 
L 381.711235 -51.28395 
L 381.670582 -51.309785 
L 381.613608 -51.33562 
L 381.540611 -51.361455 
L 381.452022 -51.38729 
L 381.348408 -51.413125 
L 381.230464 -51.43896 
L 381.099014 -51.464795 
L 380.955001 -51.490631 
L 380.799484 -51.516466 
L 380.633629 -51.542301 
L 380.458705 -51.568136 
L 380.27607 -51.593971 
L 380.08717 -51.619806 
L 379.89352 -51.645641 
L 379.696702 -51.671476 
L 379.498349 -51.697311 
L 379.300138 -51.723146 
L 379.103774 -51.748981 
L 378.910983 -51.774816 
L 378.723498 -51.800651 
L 378.543048 -51.826486 
L 378.371344 -51.852321 
L 378.210072 -51.878156 
L 378.060879 -51.903991 
L 377.925361 -51.929827 
L 377.805055 -51.955662 
L 377.701426 -51.981497 
L 377.615861 -52.007332 
L 377.549657 -52.033167 
L 377.504013 -52.059002 
L 377.480024 -52.084837 
L 377.478675 -52.110672 
L 377.500831 -52.136507 
L 377.547237 -52.162342 
L 377.618509 -52.188177 
L 377.715136 -52.214012 
L 377.837474 -52.239847 
L 377.985746 -52.265682 
L 378.160041 -52.291517 
L 378.360316 -52.317352 
L 378.586397 -52.343187 
L 378.837981 -52.369023 
L 379.114639 -52.394858 
L 427.647993 -52.394858 
L 427.647993 -52.394858 
L 427.924651 -52.369023 
L 428.176235 -52.343187 
L 428.402316 -52.317352 
L 428.602591 -52.291517 
L 428.776886 -52.265682 
L 428.925158 -52.239847 
L 429.047496 -52.214012 
L 429.144123 -52.188177 
L 429.215395 -52.162342 
L 429.261801 -52.136507 
L 429.283957 -52.110672 
L 429.282608 -52.084837 
L 429.25862 -52.059002 
L 429.212976 -52.033167 
L 429.146771 -52.007332 
L 429.061206 -51.981497 
L 428.957578 -51.955662 
L 428.837271 -51.929827 
L 428.701753 -51.903991 
L 428.55256 -51.878156 
L 428.391288 -51.852321 
L 428.219585 -51.826486 
L 428.039134 -51.800651 
L 427.851649 -51.774816 
L 427.658858 -51.748981 
L 427.462494 -51.723146 
L 427.264283 -51.697311 
L 427.06593 -51.671476 
L 426.869112 -51.645641 
L 426.675463 -51.619806 
L 426.486562 -51.593971 
L 426.303928 -51.568136 
L 426.129003 -51.542301 
L 425.963148 -51.516466 
L 425.807631 -51.490631 
L 425.663618 -51.464795 
L 425.532168 -51.43896 
L 425.414225 -51.413125 
L 425.31061 -51.38729 
L 425.222022 -51.361455 
L 425.149024 -51.33562 
L 425.09205 -51.309785 
L 425.051397 -51.28395 
L 425.027225 -51.258115 
L 425.019555 -51.23228 
L 425.028274 -51.206445 
L 425.053132 -51.18061 
L 425.093748 -51.154775 
L 425.149612 -51.12894 
L 425.220088 -51.103105 
L 425.304423 -51.07727 
L 425.401748 -51.051435 
L 425.511091 -51.0256 
L 425.631377 -50.999764 
L 425.761444 -50.973929 
L 425.900044 -50.948094 
L 426.04586 -50.922259 
L 426.197508 -50.896424 
L 426.35355 -50.870589 
L 426.512508 -50.844754 
L 426.672867 -50.818919 
L 426.833092 -50.793084 
L 426.991632 -50.767249 
L 427.146937 -50.741414 
L 427.297465 -50.715579 
L 427.441691 -50.689744 
L 427.578118 -50.663909 
L 427.705287 -50.638074 
L 427.821786 -50.612239 
L 427.926257 -50.586404 
L 428.017406 -50.560568 
L 428.094008 -50.534733 
L 428.154918 -50.508898 
L 428.199072 -50.483063 
L 428.225498 -50.457228 
L 428.233315 -50.431393 
L 428.221741 -50.405558 
L 428.190098 -50.379723 
L 428.137809 -50.353888 
L 428.064404 -50.328053 
L 427.969521 -50.302218 
L 427.852905 -50.276383 
L 427.714407 -50.250548 
L 427.553988 -50.224713 
L 427.371708 -50.198878 
L 427.167736 -50.173043 
L 426.942335 -50.147208 
L 426.695866 -50.121372 
L 426.428784 -50.095537 
L 426.141629 -50.069702 
L 425.835026 -50.043867 
L 425.509676 -50.018032 
L 425.166352 -49.992197 
L 424.805895 -49.966362 
L 424.429205 -49.940527 
L 424.037236 -49.914692 
L 423.63099 -49.888857 
L 423.21151 -49.863022 
L 422.779874 -49.837187 
z
" style="stroke: #999999; stroke-width: 2"/>
    </defs>
    <g clip-path="url(#p93417225ea)">
     <use xlink:href="#m38f264cd38" x="0" y="255.11811" style="fill: #ffffff; stroke: #999999; stroke-width: 2"/>
    </g>
   </g>
   <g id="PolyCollection_7">
    <defs>
     <path id="m385310f16b" d="M 468.877014 -109.914827 
L 467.398824 -109.914827 
L 467.373492 -110.430706 
L 467.34782 -110.946585 
L 467.321817 -111.462464 
L 467.295493 -111.978343 
L 467.268862 -112.494222 
L 467.241943 -113.010101 
L 467.214753 -113.52598 
L 467.187319 -114.041858 
L 467.159666 -114.557737 
L 467.131828 -115.073616 
L 467.103839 -115.589495 
L 467.07574 -116.105374 
L 467.047576 -116.621253 
L 467.019397 -117.137132 
L 466.991255 -117.653011 
L 466.963207 -118.16889 
L 466.935316 -118.684768 
L 466.907645 -119.200647 
L 466.880263 -119.716526 
L 466.85324 -120.232405 
L 466.826646 -120.748284 
L 466.800557 -121.264163 
L 466.775044 -121.780042 
L 466.750183 -122.295921 
L 466.726045 -122.811799 
L 466.702702 -123.327678 
L 466.680222 -123.843557 
L 466.658669 -124.359436 
L 466.638105 -124.875315 
L 466.618586 -125.391194 
L 466.600161 -125.907073 
L 466.582877 -126.422952 
L 466.566769 -126.93883 
L 466.551869 -127.454709 
L 466.538199 -127.970588 
L 466.525774 -128.486467 
L 466.514601 -129.002346 
L 466.504679 -129.518225 
L 466.495997 -130.034104 
L 466.488538 -130.549983 
L 466.482277 -131.065862 
L 466.477181 -131.58174 
L 466.47321 -132.097619 
L 466.470319 -132.613498 
L 466.468455 -133.129377 
L 466.467563 -133.645256 
L 466.46758 -134.161135 
L 466.468443 -134.677014 
L 466.470086 -135.192893 
L 466.472441 -135.708771 
L 466.475439 -136.22465 
L 466.479012 -136.740529 
L 466.483094 -137.256408 
L 466.487622 -137.772287 
L 466.492533 -138.288166 
L 466.497771 -138.804045 
L 466.503285 -139.319924 
L 466.509027 -139.835802 
L 466.514958 -140.351681 
L 466.521044 -140.86756 
L 466.527258 -141.383439 
L 466.53358 -141.899318 
L 466.54 -142.415197 
L 466.546512 -142.931076 
L 466.553121 -143.446955 
L 466.559836 -143.962834 
L 466.566675 -144.478712 
L 466.573664 -144.994591 
L 466.580832 -145.51047 
L 466.588218 -146.026349 
L 466.595862 -146.542228 
L 466.603811 -147.058107 
L 466.612116 -147.573986 
L 466.620829 -148.089865 
L 466.630006 -148.605743 
L 466.639702 -149.121622 
L 466.649975 -149.637501 
L 466.660881 -150.15338 
L 466.672474 -150.669259 
L 466.684807 -151.185138 
L 466.697931 -151.701017 
L 466.711889 -152.216896 
L 466.726725 -152.732775 
L 466.742474 -153.248653 
L 466.759166 -153.764532 
L 466.776826 -154.280411 
L 466.795472 -154.79629 
L 466.815113 -155.312169 
L 466.835755 -155.828048 
L 466.857392 -156.343927 
L 466.880014 -156.859806 
L 466.903602 -157.375684 
L 466.92813 -157.891563 
L 466.953566 -158.407442 
L 466.979868 -158.923321 
L 467.006992 -159.4392 
L 467.034884 -159.955079 
L 467.063487 -160.470958 
L 467.092738 -160.986837 
L 469.1831 -160.986837 
L 469.1831 -160.986837 
L 469.212351 -160.470958 
L 469.240954 -159.955079 
L 469.268846 -159.4392 
L 469.29597 -158.923321 
L 469.322272 -158.407442 
L 469.347708 -157.891563 
L 469.372236 -157.375684 
L 469.395824 -156.859806 
L 469.418446 -156.343927 
L 469.440083 -155.828048 
L 469.460725 -155.312169 
L 469.480366 -154.79629 
L 469.499012 -154.280411 
L 469.516672 -153.764532 
L 469.533364 -153.248653 
L 469.549113 -152.732775 
L 469.563949 -152.216896 
L 469.577907 -151.701017 
L 469.591031 -151.185138 
L 469.603364 -150.669259 
L 469.614957 -150.15338 
L 469.625863 -149.637501 
L 469.636136 -149.121622 
L 469.645832 -148.605743 
L 469.655009 -148.089865 
L 469.663722 -147.573986 
L 469.672027 -147.058107 
L 469.679976 -146.542228 
L 469.68762 -146.026349 
L 469.695006 -145.51047 
L 469.702174 -144.994591 
L 469.709163 -144.478712 
L 469.716002 -143.962834 
L 469.722717 -143.446955 
L 469.729326 -142.931076 
L 469.735838 -142.415197 
L 469.742258 -141.899318 
L 469.74858 -141.383439 
L 469.754794 -140.86756 
L 469.76088 -140.351681 
L 469.766811 -139.835802 
L 469.772553 -139.319924 
L 469.778067 -138.804045 
L 469.783305 -138.288166 
L 469.788216 -137.772287 
L 469.792744 -137.256408 
L 469.796826 -136.740529 
L 469.800399 -136.22465 
L 469.803397 -135.708771 
L 469.805752 -135.192893 
L 469.807395 -134.677014 
L 469.808258 -134.161135 
L 469.808275 -133.645256 
L 469.807383 -133.129377 
L 469.805519 -132.613498 
L 469.802628 -132.097619 
L 469.798657 -131.58174 
L 469.793561 -131.065862 
L 469.7873 -130.549983 
L 469.779841 -130.034104 
L 469.77116 -129.518225 
L 469.761237 -129.002346 
L 469.750064 -128.486467 
L 469.737639 -127.970588 
L 469.723969 -127.454709 
L 469.709069 -126.93883 
L 469.692961 -126.422952 
L 469.675677 -125.907073 
L 469.657252 -125.391194 
L 469.637733 -124.875315 
L 469.617169 -124.359436 
L 469.595616 -123.843557 
L 469.573136 -123.327678 
L 469.549793 -122.811799 
L 469.525655 -122.295921 
L 469.500794 -121.780042 
L 469.475281 -121.264163 
L 469.449192 -120.748284 
L 469.422598 -120.232405 
L 469.395575 -119.716526 
L 469.368193 -119.200647 
L 469.340522 -118.684768 
L 469.312631 -118.16889 
L 469.284583 -117.653011 
L 469.256441 -117.137132 
L 469.228262 -116.621253 
L 469.200098 -116.105374 
L 469.171999 -115.589495 
L 469.14401 -115.073616 
L 469.116172 -114.557737 
L 469.088519 -114.041858 
L 469.061085 -113.52598 
L 469.033895 -113.010101 
L 469.006976 -112.494222 
L 468.980345 -111.978343 
L 468.954021 -111.462464 
L 468.928018 -110.946585 
L 468.902346 -110.430706 
L 468.877014 -109.914827 
z
" style="stroke: #999999; stroke-width: 2"/>
    </defs>
    <g clip-path="url(#p93417225ea)">
     <use xlink:href="#m385310f16b" x="0" y="255.11811" style="fill: #ffffff; stroke: #999999; stroke-width: 2"/>
    </g>
   </g>
   <g id="PathCollection_1"/>
   <g id="PathCollection_2"/>
   <g id="patch_3">
    <path d="M 47.22 213.89811 
L 47.22 24.32 
" style="fill: none; stroke: #262626; stroke-width: 1.25; stroke-linejoin: miter; stroke-linecap: square"/>
   </g>
   <g id="patch_4">
    <path d="M 47.22 213.89811 
L 500.51622 213.89811 
" style="fill: none; stroke: #262626; stroke-width: 1.25; stroke-linejoin: miter; stroke-linecap: square"/>
   </g>
   <g id="PathCollection_3">
    <defs>
     <path id="C0_0_8c0fc5bef8" d="M 0 2.5 
C 0.663008 2.5 1.29895 2.236584 1.767767 1.767767 
C 2.236584 1.29895 2.5 0.663008 2.5 -0 
C 2.5 -0.663008 2.236584 -1.29895 1.767767 -1.767767 
C 1.29895 -2.236584 0.663008 -2.5 0 -2.5 
C -0.663008 -2.5 -1.29895 -2.236584 -1.767767 -1.767767 
C -2.236584 -1.29895 -2.5 -0.663008 -2.5 0 
C -2.5 0.663008 -2.236584 1.29895 -1.767767 1.767767 
C -1.29895 2.236584 -0.663008 2.5 0 2.5 
z
"/>
    </defs>
    <g clip-path="url(#p93417225ea)">
     <use xlink:href="#C0_0_8c0fc5bef8" x="78.177066" y="174.650207" style="fill: #4c72b0; fill-opacity: 0.75"/>
    </g>
    <g clip-path="url(#p93417225ea)">
     <use xlink:href="#C0_0_8c0fc5bef8" x="76.564014" y="150.250759" style="fill: #4c72b0; fill-opacity: 0.75"/>
    </g>
    <g clip-path="url(#p93417225ea)">
     <use xlink:href="#C0_0_8c0fc5bef8" x="73.262159" y="170.821916" style="fill: #4c72b0; fill-opacity: 0.75"/>
    </g>
    <g clip-path="url(#p93417225ea)">
     <use xlink:href="#C0_0_8c0fc5bef8" x="79.464301" y="164.443063" style="fill: #4c72b0; fill-opacity: 0.75"/>
    </g>
    <g clip-path="url(#p93417225ea)">
     <use xlink:href="#C0_0_8c0fc5bef8" x="76.998783" y="185.657866" style="fill: #dd8452; fill-opacity: 0.75"/>
    </g>
    <g clip-path="url(#p93417225ea)">
     <use xlink:href="#C0_0_8c0fc5bef8" x="85.056417" y="189.87214" style="fill: #dd8452; fill-opacity: 0.75"/>
    </g>
    <g clip-path="url(#p93417225ea)">
     <use xlink:href="#C0_0_8c0fc5bef8" x="84.66758" y="187.581744" style="fill: #dd8452; fill-opacity: 0.75"/>
    </g>
    <g clip-path="url(#p93417225ea)">
     <use xlink:href="#C0_0_8c0fc5bef8" x="78.166088" y="191.731768" style="fill: #dd8452; fill-opacity: 0.75"/>
    </g>
   </g>
   <g id="PathCollection_4">
    <defs>
     <path id="C1_0_940abd6d0c" d="M 0 2.5 
C 0.663008 2.5 1.29895 2.236584 1.767767 1.767767 
C 2.236584 1.29895 2.5 0.663008 2.5 -0 
C 2.5 -0.663008 2.236584 -1.29895 1.767767 -1.767767 
C 1.29895 -2.236584 0.663008 -2.5 0 -2.5 
C -0.663008 -2.5 -1.29895 -2.236584 -1.767767 -1.767767 
C -2.236584 -1.29895 -2.5 -0.663008 -2.5 0 
C -2.5 0.663008 -2.236584 1.29895 -1.767767 1.767767 
C -1.29895 2.236584 -0.663008 2.5 0 2.5 
z
"/>
    </defs>
    <g clip-path="url(#p93417225ea)">
     <use xlink:href="#C1_0_940abd6d0c" x="145.038243" y="32.937187" style="fill: #4c72b0; fill-opacity: 0.75"/>
    </g>
    <g clip-path="url(#p93417225ea)">
     <use xlink:href="#C1_0_940abd6d0c" x="141.954478" y="53.045806" style="fill: #4c72b0; fill-opacity: 0.75"/>
    </g>
    <g clip-path="url(#p93417225ea)">
     <use xlink:href="#C1_0_940abd6d0c" x="141.805731" y="109.864014" style="fill: #4c72b0; fill-opacity: 0.75"/>
    </g>
    <g clip-path="url(#p93417225ea)">
     <use xlink:href="#C1_0_940abd6d0c" x="145.527899" y="134.177246" style="fill: #4c72b0; fill-opacity: 0.75"/>
    </g>
    <g clip-path="url(#p93417225ea)">
     <use xlink:href="#C1_0_940abd6d0c" x="138.416288" y="97.444287" style="fill: #dd8452; fill-opacity: 0.75"/>
    </g>
    <g clip-path="url(#p93417225ea)">
     <use xlink:href="#C1_0_940abd6d0c" x="140.748636" y="105.524002" style="fill: #dd8452; fill-opacity: 0.75"/>
    </g>
    <g clip-path="url(#p93417225ea)">
     <use xlink:href="#C1_0_940abd6d0c" x="146.688745" y="127.587697" style="fill: #dd8452; fill-opacity: 0.75"/>
    </g>
    <g clip-path="url(#p93417225ea)">
     <use xlink:href="#C1_0_940abd6d0c" x="147.040185" y="130.896892" style="fill: #dd8452; fill-opacity: 0.75"/>
    </g>
   </g>
   <g id="PathCollection_5">
    <defs>
     <path id="C2_0_ab1f554a5a" d="M 0 2.5 
C 0.663008 2.5 1.29895 2.236584 1.767767 1.767767 
C 2.236584 1.29895 2.5 0.663008 2.5 -0 
C 2.5 -0.663008 2.236584 -1.29895 1.767767 -1.767767 
C 1.29895 -2.236584 0.663008 -2.5 0 -2.5 
C -0.663008 -2.5 -1.29895 -2.236584 -1.767767 -1.767767 
C -2.236584 -1.29895 -2.5 -0.663008 -2.5 0 
C -2.5 0.663008 -2.236584 1.29895 -1.767767 1.767767 
C -1.29895 2.236584 -0.663008 2.5 0 2.5 
z
"/>
    </defs>
    <g clip-path="url(#p93417225ea)">
     <use xlink:href="#C2_0_ab1f554a5a" x="215.004055" y="160.478627" style="fill: #4c72b0; fill-opacity: 0.75"/>
    </g>
    <g clip-path="url(#p93417225ea)">
     <use xlink:href="#C2_0_ab1f554a5a" x="214.313344" y="169.650294" style="fill: #4c72b0; fill-opacity: 0.75"/>
    </g>
    <g clip-path="url(#p93417225ea)">
     <use xlink:href="#C2_0_ab1f554a5a" x="213.520393" y="135.220105" style="fill: #4c72b0; fill-opacity: 0.75"/>
    </g>
    <g clip-path="url(#p93417225ea)">
     <use xlink:href="#C2_0_ab1f554a5a" x="214.101867" y="118.043872" style="fill: #4c72b0; fill-opacity: 0.75"/>
    </g>
    <g clip-path="url(#p93417225ea)">
     <use xlink:href="#C2_0_ab1f554a5a" x="204.841159" y="154.020732" style="fill: #dd8452; fill-opacity: 0.75"/>
    </g>
    <g clip-path="url(#p93417225ea)">
     <use xlink:href="#C2_0_ab1f554a5a" x="212.652033" y="159.181281" style="fill: #dd8452; fill-opacity: 0.75"/>
    </g>
    <g clip-path="url(#p93417225ea)">
     <use xlink:href="#C2_0_ab1f554a5a" x="205.029431" y="146.420657" style="fill: #dd8452; fill-opacity: 0.75"/>
    </g>
    <g clip-path="url(#p93417225ea)">
     <use xlink:href="#C2_0_ab1f554a5a" x="204.652692" y="107.464785" style="fill: #dd8452; fill-opacity: 0.75"/>
    </g>
   </g>
   <g id="PathCollection_6">
    <defs>
     <path id="C3_0_01f1c666f3" d="M 0 2.5 
C 0.663008 2.5 1.29895 2.236584 1.767767 1.767767 
C 2.236584 1.29895 2.5 0.663008 2.5 -0 
C 2.5 -0.663008 2.236584 -1.29895 1.767767 -1.767767 
C 1.29895 -2.236584 0.663008 -2.5 0 -2.5 
C -0.663008 -2.5 -1.29895 -2.236584 -1.767767 -1.767767 
C -2.236584 -1.29895 -2.5 -0.663008 -2.5 0 
C -2.5 0.663008 -2.236584 1.29895 -1.767767 1.767767 
C -1.29895 2.236584 -0.663008 2.5 0 2.5 
z
"/>
    </defs>
    <g clip-path="url(#p93417225ea)">
     <use xlink:href="#C3_0_01f1c666f3" x="278.796634" y="188.863279" style="fill: #4c72b0; fill-opacity: 0.75"/>
    </g>
    <g clip-path="url(#p93417225ea)">
     <use xlink:href="#C3_0_01f1c666f3" x="267.810503" y="183.057341" style="fill: #4c72b0; fill-opacity: 0.75"/>
    </g>
    <g clip-path="url(#p93417225ea)">
     <use xlink:href="#C3_0_01f1c666f3" x="277.593499" y="178.310271" style="fill: #4c72b0; fill-opacity: 0.75"/>
    </g>
    <g clip-path="url(#p93417225ea)">
     <use xlink:href="#C3_0_01f1c666f3" x="275.737149" y="155.878516" style="fill: #4c72b0; fill-opacity: 0.75"/>
    </g>
    <g clip-path="url(#p93417225ea)">
     <use xlink:href="#C3_0_01f1c666f3" x="267.928498" y="183.758375" style="fill: #4c72b0; fill-opacity: 0.75"/>
    </g>
    <g clip-path="url(#p93417225ea)">
     <use xlink:href="#C3_0_01f1c666f3" x="279.085523" y="108.901568" style="fill: #dd8452; fill-opacity: 0.75"/>
    </g>
    <g clip-path="url(#p93417225ea)">
     <use xlink:href="#C3_0_01f1c666f3" x="273.079717" y="151.692812" style="fill: #dd8452; fill-opacity: 0.75"/>
    </g>
    <g clip-path="url(#p93417225ea)">
     <use xlink:href="#C3_0_01f1c666f3" x="271.963805" y="137.416418" style="fill: #dd8452; fill-opacity: 0.75"/>
    </g>
    <g clip-path="url(#p93417225ea)">
     <use xlink:href="#C3_0_01f1c666f3" x="273.272238" y="130.815245" style="fill: #dd8452; fill-opacity: 0.75"/>
    </g>
    <g clip-path="url(#p93417225ea)">
     <use xlink:href="#C3_0_01f1c666f3" x="272.360231" y="76.557221" style="fill: #dd8452; fill-opacity: 0.75"/>
    </g>
   </g>
   <g id="PathCollection_7">
    <defs>
     <path id="C4_0_5fdac9d02d" d="M 0 2.5 
C 0.663008 2.5 1.29895 2.236584 1.767767 1.767767 
C 2.236584 1.29895 2.5 0.663008 2.5 -0 
C 2.5 -0.663008 2.236584 -1.29895 1.767767 -1.767767 
C 1.29895 -2.236584 0.663008 -2.5 0 -2.5 
C -0.663008 -2.5 -1.29895 -2.236584 -1.767767 -1.767767 
C -2.236584 -1.29895 -2.5 -0.663008 -2.5 0 
C -2.5 0.663008 -2.236584 1.29895 -1.767767 1.767767 
C -1.29895 2.236584 -0.663008 2.5 0 2.5 
z
"/>
    </defs>
    <g clip-path="url(#p93417225ea)">
     <use xlink:href="#C4_0_5fdac9d02d" x="340.067671" y="150.796541" style="fill: #4c72b0; fill-opacity: 0.75"/>
    </g>
    <g clip-path="url(#p93417225ea)">
     <use xlink:href="#C4_0_5fdac9d02d" x="332.887623" y="171.294069" style="fill: #4c72b0; fill-opacity: 0.75"/>
    </g>
    <g clip-path="url(#p93417225ea)">
     <use xlink:href="#C4_0_5fdac9d02d" x="335.814498" y="162.527899" style="fill: #4c72b0; fill-opacity: 0.75"/>
    </g>
    <g clip-path="url(#p93417225ea)">
     <use xlink:href="#C4_0_5fdac9d02d" x="342.904073" y="148.43495" style="fill: #dd8452; fill-opacity: 0.75"/>
    </g>
    <g clip-path="url(#p93417225ea)">
     <use xlink:href="#C4_0_5fdac9d02d" x="337.945646" y="149.828166" style="fill: #dd8452; fill-opacity: 0.75"/>
    </g>
    <g clip-path="url(#p93417225ea)">
     <use xlink:href="#C4_0_5fdac9d02d" x="332.812623" y="154.886575" style="fill: #dd8452; fill-opacity: 0.75"/>
    </g>
   </g>
   <g id="PathCollection_8">
    <defs>
     <path id="C5_0_d0caa6b91c" d="M 0 2.5 
C 0.663008 2.5 1.29895 2.236584 1.767767 1.767767 
C 2.236584 1.29895 2.5 0.663008 2.5 -0 
C 2.5 -0.663008 2.236584 -1.29895 1.767767 -1.767767 
C 1.29895 -2.236584 0.663008 -2.5 0 -2.5 
C -0.663008 -2.5 -1.29895 -2.236584 -1.767767 -1.767767 
C -2.236584 -1.29895 -2.5 -0.663008 -2.5 0 
C -2.5 0.663008 -2.236584 1.29895 -1.767767 1.767767 
C -1.29895 2.236584 -0.663008 2.5 0 2.5 
z
"/>
    </defs>
    <g clip-path="url(#p93417225ea)">
     <use xlink:href="#C5_0_d0caa6b91c" x="403.170418" y="204.837695" style="fill: #4c72b0; fill-opacity: 0.75"/>
    </g>
    <g clip-path="url(#p93417225ea)">
     <use xlink:href="#C5_0_d0caa6b91c" x="405.836022" y="202.925923" style="fill: #4c72b0; fill-opacity: 0.75"/>
    </g>
    <g clip-path="url(#p93417225ea)">
     <use xlink:href="#C5_0_d0caa6b91c" x="404.356991" y="203.284314" style="fill: #4c72b0; fill-opacity: 0.75"/>
    </g>
    <g clip-path="url(#p93417225ea)">
     <use xlink:href="#C5_0_d0caa6b91c" x="400.174093" y="202.812734" style="fill: #4c72b0; fill-opacity: 0.75"/>
    </g>
    <g clip-path="url(#p93417225ea)">
     <use xlink:href="#C5_0_d0caa6b91c" x="396.947284" y="204.627527" style="fill: #dd8452; fill-opacity: 0.75"/>
    </g>
    <g clip-path="url(#p93417225ea)">
     <use xlink:href="#C5_0_d0caa6b91c" x="398.82603" y="205.280923" style="fill: #dd8452; fill-opacity: 0.75"/>
    </g>
    <g clip-path="url(#p93417225ea)">
     <use xlink:href="#C5_0_d0caa6b91c" x="401.285489" y="202.723253" style="fill: #dd8452; fill-opacity: 0.75"/>
    </g>
    <g clip-path="url(#p93417225ea)">
     <use xlink:href="#C5_0_d0caa6b91c" x="398.11576" y="204.492728" style="fill: #dd8452; fill-opacity: 0.75"/>
    </g>
   </g>
   <g id="PathCollection_9">
    <defs>
     <path id="C6_0_8139a7ff4f" d="M 0 2.5 
C 0.663008 2.5 1.29895 2.236584 1.767767 1.767767 
C 2.236584 1.29895 2.5 0.663008 2.5 -0 
C 2.5 -0.663008 2.236584 -1.29895 1.767767 -1.767767 
C 1.29895 -2.236584 0.663008 -2.5 0 -2.5 
C -0.663008 -2.5 -1.29895 -2.236584 -1.767767 -1.767767 
C -2.236584 -1.29895 -2.5 -0.663008 -2.5 0 
C -2.5 0.663008 -2.236584 1.29895 -1.767767 1.767767 
C -1.29895 2.236584 -0.663008 2.5 0 2.5 
z
"/>
    </defs>
    <g clip-path="url(#p93417225ea)">
     <use xlink:href="#C6_0_8139a7ff4f" x="466.888908" y="104.665629" style="fill: #4c72b0; fill-opacity: 0.75"/>
    </g>
    <g clip-path="url(#p93417225ea)">
     <use xlink:href="#C6_0_8139a7ff4f" x="461.78069" y="115.683085" style="fill: #4c72b0; fill-opacity: 0.75"/>
    </g>
    <g clip-path="url(#p93417225ea)">
     <use xlink:href="#C6_0_8139a7ff4f" x="471.579409" y="123.232798" style="fill: #4c72b0; fill-opacity: 0.75"/>
    </g>
    <g clip-path="url(#p93417225ea)">
     <use xlink:href="#C6_0_8139a7ff4f" x="470.627874" y="102.198572" style="fill: #4c72b0; fill-opacity: 0.75"/>
    </g>
    <g clip-path="url(#p93417225ea)">
     <use xlink:href="#C6_0_8139a7ff4f" x="465.718171" y="145.203283" style="fill: #dd8452; fill-opacity: 0.75"/>
    </g>
    <g clip-path="url(#p93417225ea)">
     <use xlink:href="#C6_0_8139a7ff4f" x="469.560082" y="128.033105" style="fill: #dd8452; fill-opacity: 0.75"/>
    </g>
    <g clip-path="url(#p93417225ea)">
     <use xlink:href="#C6_0_8139a7ff4f" x="472.6551" y="129.415764" style="fill: #dd8452; fill-opacity: 0.75"/>
    </g>
    <g clip-path="url(#p93417225ea)">
     <use xlink:href="#C6_0_8139a7ff4f" x="469.580537" y="94.131274" style="fill: #dd8452; fill-opacity: 0.75"/>
    </g>
   </g>
   <g id="text_18">
    <!-- MEGF6, $p_{adj}$ &lt; .001 *** -->
    <g style="fill: #262626" transform="translate(47.22 18.32)scale(0.09 -0.09)">
     <defs>
      <path id="ArialMT-45" d="M 506 0 
L 506 4581 
L 3819 4581 
L 3819 4041 
L 1113 4041 
L 1113 2638 
L 3647 2638 
L 3647 2100 
L 1113 2100 
L 1113 541 
L 3925 541 
L 3925 0 
L 506 0 
z
" transform="scale(0.015625)"/>
      <path id="ArialMT-47" d="M 2638 1797 
L 2638 2334 
L 4578 2338 
L 4578 638 
Q 4131 281 3656 101 
Q 3181 -78 2681 -78 
Q 2006 -78 1454 211 
Q 903 500 622 1047 
Q 341 1594 341 2269 
Q 341 2938 620 3517 
Q 900 4097 1425 4378 
Q 1950 4659 2634 4659 
Q 3131 4659 3532 4498 
Q 3934 4338 4162 4050 
Q 4391 3763 4509 3300 
L 3963 3150 
Q 3859 3500 3706 3700 
Q 3553 3900 3268 4020 
Q 2984 4141 2638 4141 
Q 2222 4141 1919 4014 
Q 1616 3888 1430 3681 
Q 1244 3475 1141 3228 
Q 966 2803 966 2306 
Q 966 1694 1177 1281 
Q 1388 869 1791 669 
Q 2194 469 2647 469 
Q 3041 469 3416 620 
Q 3791 772 3984 944 
L 3984 1797 
L 2638 1797 
z
" transform="scale(0.015625)"/>
      <path id="ArialMT-46" d="M 525 0 
L 525 4581 
L 3616 4581 
L 3616 4041 
L 1131 4041 
L 1131 2622 
L 3281 2622 
L 3281 2081 
L 1131 2081 
L 1131 0 
L 525 0 
z
" transform="scale(0.015625)"/>
      <path id="ArialMT-2c" d="M 569 0 
L 569 641 
L 1209 641 
L 1209 0 
Q 1209 -353 1084 -570 
Q 959 -788 688 -906 
L 531 -666 
Q 709 -588 793 -436 
Q 878 -284 888 0 
L 569 0 
z
" transform="scale(0.015625)"/>
      <path id="DejaVuSans-Oblique-70" d="M 3175 2156 
Q 3175 2616 2975 2859 
Q 2775 3103 2400 3103 
Q 2144 3103 1911 2972 
Q 1678 2841 1497 2591 
Q 1319 2344 1212 1994 
Q 1106 1644 1106 1300 
Q 1106 863 1306 627 
Q 1506 391 1875 391 
Q 2147 391 2380 519 
Q 2613 647 2778 891 
Q 2956 1147 3065 1494 
Q 3175 1841 3175 2156 
z
M 1394 2969 
Q 1625 3272 1939 3428 
Q 2253 3584 2638 3584 
Q 3175 3584 3472 3232 
Q 3769 2881 3769 2247 
Q 3769 1728 3584 1258 
Q 3400 788 3053 416 
Q 2822 169 2531 39 
Q 2241 -91 1919 -91 
Q 1547 -91 1294 64 
Q 1041 219 916 525 
L 556 -1331 
L -19 -1331 
L 922 3500 
L 1497 3500 
L 1394 2969 
z
" transform="scale(0.015625)"/>
      <path id="DejaVuSans-Oblique-61" d="M 3438 1997 
L 3047 0 
L 2472 0 
L 2578 531 
Q 2325 219 2001 64 
Q 1678 -91 1281 -91 
Q 834 -91 548 182 
Q 263 456 263 884 
Q 263 1497 752 1853 
Q 1241 2209 2100 2209 
L 2900 2209 
L 2931 2363 
Q 2938 2388 2941 2417 
Q 2944 2447 2944 2509 
Q 2944 2788 2717 2942 
Q 2491 3097 2081 3097 
Q 1800 3097 1504 3025 
Q 1209 2953 897 2809 
L 997 3341 
Q 1322 3463 1633 3523 
Q 1944 3584 2234 3584 
Q 2853 3584 3176 3315 
Q 3500 3047 3500 2534 
Q 3500 2431 3484 2292 
Q 3469 2153 3438 1997 
z
M 2816 1759 
L 2241 1759 
Q 1534 1759 1195 1570 
Q 856 1381 856 984 
Q 856 709 1029 553 
Q 1203 397 1509 397 
Q 1978 397 2328 733 
Q 2678 1069 2791 1631 
L 2816 1759 
z
" transform="scale(0.015625)"/>
      <path id="DejaVuSans-Oblique-64" d="M 2675 525 
Q 2444 222 2128 65 
Q 1813 -91 1428 -91 
Q 903 -91 598 267 
Q 294 625 294 1247 
Q 294 1766 478 2236 
Q 663 2706 1013 3078 
Q 1244 3325 1534 3454 
Q 1825 3584 2144 3584 
Q 2481 3584 2739 3421 
Q 2997 3259 3138 2956 
L 3513 4863 
L 4091 4863 
L 3144 0 
L 2566 0 
L 2675 525 
z
M 891 1350 
Q 891 897 1095 644 
Q 1300 391 1663 391 
Q 1931 391 2161 520 
Q 2391 650 2566 903 
Q 2750 1166 2856 1509 
Q 2963 1853 2963 2188 
Q 2963 2622 2758 2865 
Q 2553 3109 2194 3109 
Q 1922 3109 1687 2981 
Q 1453 2853 1288 2613 
Q 1106 2353 998 2009 
Q 891 1666 891 1350 
z
" transform="scale(0.015625)"/>
      <path id="DejaVuSans-Oblique-6a" d="M 928 3500 
L 1503 3500 
L 813 -63 
L 809 -78 
Q 694 -675 544 -897 
Q 403 -1106 132 -1218 
Q -138 -1331 -506 -1331 
L -722 -1331 
L -628 -844 
L -481 -844 
Q -144 -844 -1 -703 
Q 141 -563 238 -63 
L 928 3500 
z
M 1197 4863 
L 1772 4863 
L 1631 4134 
L 1056 4134 
L 1197 4863 
z
" transform="scale(0.015625)"/>
      <path id="ArialMT-3c" d="M 350 2003 
L 350 2528 
L 3384 3809 
L 3384 3250 
L 978 2263 
L 3384 1266 
L 3384 706 
L 350 2003 
z
" transform="scale(0.015625)"/>
      <path id="ArialMT-2e" d="M 581 0 
L 581 641 
L 1222 641 
L 1222 0 
L 581 0 
z
" transform="scale(0.015625)"/>
      <path id="ArialMT-2a" d="M 200 3741 
L 344 4184 
Q 841 4009 1066 3881 
Q 1006 4447 1003 4659 
L 1456 4659 
Q 1447 4350 1384 3884 
Q 1706 4047 2122 4184 
L 2266 3741 
Q 1869 3609 1488 3566 
Q 1678 3400 2025 2975 
L 1650 2709 
Q 1469 2956 1222 3381 
Q 991 2941 816 2709 
L 447 2975 
Q 809 3422 966 3566 
Q 563 3644 200 3741 
z
" transform="scale(0.015625)"/>
     </defs>
     <use xlink:href="#ArialMT-4d" transform="translate(0 0.203125)"/>
     <use xlink:href="#ArialMT-45" transform="translate(83.300781 0.203125)"/>
     <use xlink:href="#ArialMT-47" transform="translate(150 0.203125)"/>
     <use xlink:href="#ArialMT-46" transform="translate(227.783203 0.203125)"/>
     <use xlink:href="#ArialMT-36" transform="translate(288.867188 0.203125)"/>
     <use xlink:href="#ArialMT-2c" transform="translate(344.482422 0.203125)"/>
     <use xlink:href="#ArialMT-20" transform="translate(372.265625 0.203125)"/>
     <use xlink:href="#DejaVuSans-Oblique-70" transform="translate(400.048828 0.203125)"/>
     <use xlink:href="#DejaVuSans-Oblique-61" transform="translate(463.525391 -16.203125)scale(0.7)"/>
     <use xlink:href="#DejaVuSans-Oblique-64" transform="translate(506.420898 -16.203125)scale(0.7)"/>
     <use xlink:href="#DejaVuSans-Oblique-6a" transform="translate(550.854492 -16.203125)scale(0.7)"/>
     <use xlink:href="#ArialMT-20" transform="translate(573.037109 0.203125)"/>
     <use xlink:href="#ArialMT-3c" transform="translate(600.820312 0.203125)"/>
     <use xlink:href="#ArialMT-20" transform="translate(659.21875 0.203125)"/>
     <use xlink:href="#ArialMT-2e" transform="translate(687.001953 0.203125)"/>
     <use xlink:href="#ArialMT-30" transform="translate(714.785156 0.203125)"/>
     <use xlink:href="#ArialMT-30" transform="translate(770.400391 0.203125)"/>
     <use xlink:href="#ArialMT-31" transform="translate(826.015625 0.203125)"/>
     <use xlink:href="#ArialMT-20" transform="translate(881.630859 0.203125)"/>
     <use xlink:href="#ArialMT-2a" transform="translate(909.414062 0.203125)"/>
     <use xlink:href="#ArialMT-2a" transform="translate(948.330078 0.203125)"/>
     <use xlink:href="#ArialMT-2a" transform="translate(987.246094 0.203125)"/>
    </g>
   </g>
   <g id="legend_1">
    <g id="patch_5">
     <path d="M 441.91497 69.712344 
L 494.21622 69.712344 
Q 496.01622 69.712344 496.01622 67.912344 
L 496.01622 30.62 
Q 496.01622 28.82 494.21622 28.82 
L 441.91497 28.82 
Q 440.11497 28.82 440.11497 30.62 
L 440.11497 67.912344 
Q 440.11497 69.712344 441.91497 69.712344 
z
" style="fill: #ffffff; opacity: 0.8; stroke: #cccccc; stroke-linejoin: miter"/>
    </g>
    <g id="text_19">
     <!-- Treatment -->
     <g style="fill: #262626" transform="translate(447.729111 38.862031)scale(0.09 -0.09)">
      <use xlink:href="#ArialMT-54"/>
      <use xlink:href="#ArialMT-72" x="57.333984"/>
      <use xlink:href="#ArialMT-65" x="90.634766"/>
      <use xlink:href="#ArialMT-61" x="146.25"/>
      <use xlink:href="#ArialMT-74" x="201.865234"/>
      <use xlink:href="#ArialMT-6d" x="229.648438"/>
      <use xlink:href="#ArialMT-65" x="312.949219"/>
      <use xlink:href="#ArialMT-6e" x="368.564453"/>
      <use xlink:href="#ArialMT-74" x="424.179688"/>
     </g>
    </g>
    <g id="PathCollection_10">
     <defs>
      <path id="m6ad402a642" d="M 0 3.872983 
C 1.027127 3.872983 2.012324 3.464901 2.738613 2.738613 
C 3.464901 2.012324 3.872983 1.027127 3.872983 0 
C 3.872983 -1.027127 3.464901 -2.012324 2.738613 -2.738613 
C 2.012324 -3.464901 1.027127 -3.872983 0 -3.872983 
C -1.027127 -3.872983 -2.012324 -3.464901 -2.738613 -2.738613 
C -3.464901 -2.012324 -3.872983 -1.027127 -3.872983 0 
C -3.872983 1.027127 -3.464901 2.012324 -2.738613 2.738613 
C -2.012324 3.464901 -1.027127 3.872983 0 3.872983 
z
" style="stroke: #4c72b0"/>
     </defs>
     <g>
      <use xlink:href="#m6ad402a642" x="452.71497" y="49.230313" style="fill: #4c72b0; stroke: #4c72b0"/>
     </g>
    </g>
    <g id="text_20">
     <!-- BEVA -->
     <g style="fill: #262626" transform="translate(468.91497 51.592813)scale(0.09 -0.09)">
      <defs>
       <path id="ArialMT-42" d="M 469 0 
L 469 4581 
L 2188 4581 
Q 2713 4581 3030 4442 
Q 3347 4303 3526 4014 
Q 3706 3725 3706 3409 
Q 3706 3116 3547 2856 
Q 3388 2597 3066 2438 
Q 3481 2316 3704 2022 
Q 3928 1728 3928 1328 
Q 3928 1006 3792 729 
Q 3656 453 3456 303 
Q 3256 153 2954 76 
Q 2653 0 2216 0 
L 469 0 
z
M 1075 2656 
L 2066 2656 
Q 2469 2656 2644 2709 
Q 2875 2778 2992 2937 
Q 3109 3097 3109 3338 
Q 3109 3566 3000 3739 
Q 2891 3913 2687 3977 
Q 2484 4041 1991 4041 
L 1075 4041 
L 1075 2656 
z
M 1075 541 
L 2216 541 
Q 2509 541 2628 563 
Q 2838 600 2978 687 
Q 3119 775 3209 942 
Q 3300 1109 3300 1328 
Q 3300 1584 3169 1773 
Q 3038 1963 2805 2039 
Q 2572 2116 2134 2116 
L 1075 2116 
L 1075 541 
z
" transform="scale(0.015625)"/>
       <path id="ArialMT-56" d="M 1803 0 
L 28 4581 
L 684 4581 
L 1875 1253 
Q 2019 853 2116 503 
Q 2222 878 2363 1253 
L 3600 4581 
L 4219 4581 
L 2425 0 
L 1803 0 
z
" transform="scale(0.015625)"/>
       <path id="ArialMT-41" d="M -9 0 
L 1750 4581 
L 2403 4581 
L 4278 0 
L 3588 0 
L 3053 1388 
L 1138 1388 
L 634 0 
L -9 0 
z
M 1313 1881 
L 2866 1881 
L 2388 3150 
Q 2169 3728 2063 4100 
Q 1975 3659 1816 3225 
L 1313 1881 
z
" transform="scale(0.015625)"/>
      </defs>
      <use xlink:href="#ArialMT-42"/>
      <use xlink:href="#ArialMT-45" x="66.699219"/>
      <use xlink:href="#ArialMT-56" x="133.398438"/>
      <use xlink:href="#ArialMT-41" x="192.722656"/>
     </g>
    </g>
    <g id="PathCollection_11">
     <defs>
      <path id="m9506023b93" d="M 0 3.872983 
C 1.027127 3.872983 2.012324 3.464901 2.738613 2.738613 
C 3.464901 2.012324 3.872983 1.027127 3.872983 0 
C 3.872983 -1.027127 3.464901 -2.012324 2.738613 -2.738613 
C 2.012324 -3.464901 1.027127 -3.872983 0 -3.872983 
C -1.027127 -3.872983 -2.012324 -3.464901 -2.738613 -2.738613 
C -3.464901 -2.012324 -3.872983 -1.027127 -3.872983 0 
C -3.872983 1.027127 -3.464901 2.012324 -2.738613 2.738613 
C -2.012324 3.464901 -1.027127 3.872983 0 3.872983 
z
" style="stroke: #dd8452"/>
     </defs>
     <g>
      <use xlink:href="#m9506023b93" x="452.71497" y="61.961094" style="fill: #dd8452; stroke: #dd8452"/>
     </g>
    </g>
    <g id="text_21">
     <!-- CTRL -->
     <g style="fill: #262626" transform="translate(468.91497 64.323594)scale(0.09 -0.09)">
      <defs>
       <path id="ArialMT-43" d="M 3763 1606 
L 4369 1453 
Q 4178 706 3683 314 
Q 3188 -78 2472 -78 
Q 1731 -78 1267 223 
Q 803 525 561 1097 
Q 319 1669 319 2325 
Q 319 3041 592 3573 
Q 866 4106 1370 4382 
Q 1875 4659 2481 4659 
Q 3169 4659 3637 4309 
Q 4106 3959 4291 3325 
L 3694 3184 
Q 3534 3684 3231 3912 
Q 2928 4141 2469 4141 
Q 1941 4141 1586 3887 
Q 1231 3634 1087 3207 
Q 944 2781 944 2328 
Q 944 1744 1114 1308 
Q 1284 872 1643 656 
Q 2003 441 2422 441 
Q 2931 441 3284 734 
Q 3638 1028 3763 1606 
z
" transform="scale(0.015625)"/>
       <path id="ArialMT-52" d="M 503 0 
L 503 4581 
L 2534 4581 
Q 3147 4581 3465 4457 
Q 3784 4334 3975 4021 
Q 4166 3709 4166 3331 
Q 4166 2844 3850 2509 
Q 3534 2175 2875 2084 
Q 3116 1969 3241 1856 
Q 3506 1613 3744 1247 
L 4541 0 
L 3778 0 
L 3172 953 
Q 2906 1366 2734 1584 
Q 2563 1803 2427 1890 
Q 2291 1978 2150 2013 
Q 2047 2034 1813 2034 
L 1109 2034 
L 1109 0 
L 503 0 
z
M 1109 2559 
L 2413 2559 
Q 2828 2559 3062 2645 
Q 3297 2731 3419 2920 
Q 3541 3109 3541 3331 
Q 3541 3656 3305 3865 
Q 3069 4075 2559 4075 
L 1109 4075 
L 1109 2559 
z
" transform="scale(0.015625)"/>
       <path id="ArialMT-4c" d="M 469 0 
L 469 4581 
L 1075 4581 
L 1075 541 
L 3331 541 
L 3331 0 
L 469 0 
z
" transform="scale(0.015625)"/>
      </defs>
      <use xlink:href="#ArialMT-43"/>
      <use xlink:href="#ArialMT-54" x="72.216797"/>
      <use xlink:href="#ArialMT-52" x="133.300781"/>
      <use xlink:href="#ArialMT-4c" x="205.517578"/>
     </g>
    </g>
   </g>
  </g>
 </g>
 <defs>
  <clipPath id="p93417225ea">
   <rect x="47.22" y="24.32" width="453.29622" height="189.57811"/>
  </clipPath>
 </defs>
</svg>
