<?xml version="1.0" encoding="utf-8" standalone="no"?>
<!DOCTYPE svg PUBLIC "-//W3C//DTD SVG 1.1//EN"
  "http://www.w3.org/Graphics/SVG/1.1/DTD/svg11.dtd">
<svg xmlns:xlink="http://www.w3.org/1999/xlink" width="510.23622pt" height="255.11811pt" viewBox="0 0 510.23622 255.11811" xmlns="http://www.w3.org/2000/svg" version="1.1">
 <metadata>
  <rdf:RDF xmlns:dc="http://purl.org/dc/elements/1.1/" xmlns:cc="http://creativecommons.org/ns#" xmlns:rdf="http://www.w3.org/1999/02/22-rdf-syntax-ns#">
   <cc:Work>
    <dc:type rdf:resource="http://purl.org/dc/dcmitype/StillImage"/>
    <dc:date>2022-04-27T00:12:59.704093</dc:date>
    <dc:format>image/svg+xml</dc:format>
    <dc:creator>
     <cc:Agent>
      <dc:title>Matplotlib v3.5.1, https://matplotlib.org/</dc:title>
     </cc:Agent>
    </dc:creator>
   </cc:Work>
  </rdf:RDF>
 </metadata>
 <defs>
  <style type="text/css">*{stroke-linejoin: round; stroke-linecap: butt}</style>
 </defs>
 <g id="figure_1">
  <g id="patch_1">
   <path d="M 0 255.11811 
L 510.23622 255.11811 
L 510.23622 0 
L 0 0 
z
" style="fill: #ffffff"/>
  </g>
  <g id="axes_1">
   <g id="patch_2">
    <path d="M 47.22 213.89811 
L 500.51622 213.89811 
L 500.51622 24.32 
L 47.22 24.32 
z
" style="fill: #ffffff"/>
   </g>
   <g id="matplotlib.axis_1">
    <g id="xtick_1">
     <g id="text_1">
      <!-- 49 -->
      <g style="fill: #444444" transform="translate(74.593458 229.840141)scale(0.09 -0.09)">
       <defs>
        <path id="ArialMT-34" d="M 2069 0 
L 2069 1097 
L 81 1097 
L 81 1613 
L 2172 4581 
L 2631 4581 
L 2631 1613 
L 3250 1613 
L 3250 1097 
L 2631 1097 
L 2631 0 
L 2069 0 
z
M 2069 1613 
L 2069 3678 
L 634 1613 
L 2069 1613 
z
" transform="scale(0.015625)"/>
        <path id="ArialMT-39" d="M 350 1059 
L 891 1109 
Q 959 728 1153 556 
Q 1347 384 1650 384 
Q 1909 384 2104 503 
Q 2300 622 2425 820 
Q 2550 1019 2634 1356 
Q 2719 1694 2719 2044 
Q 2719 2081 2716 2156 
Q 2547 1888 2255 1720 
Q 1963 1553 1622 1553 
Q 1053 1553 659 1965 
Q 266 2378 266 3053 
Q 266 3750 677 4175 
Q 1088 4600 1706 4600 
Q 2153 4600 2523 4359 
Q 2894 4119 3086 3673 
Q 3278 3228 3278 2384 
Q 3278 1506 3087 986 
Q 2897 466 2520 194 
Q 2144 -78 1638 -78 
Q 1100 -78 759 220 
Q 419 519 350 1059 
z
M 2653 3081 
Q 2653 3566 2395 3850 
Q 2138 4134 1775 4134 
Q 1400 4134 1122 3828 
Q 844 3522 844 3034 
Q 844 2597 1108 2323 
Q 1372 2050 1759 2050 
Q 2150 2050 2401 2323 
Q 2653 2597 2653 3081 
z
" transform="scale(0.015625)"/>
       </defs>
       <use xlink:href="#ArialMT-34"/>
       <use xlink:href="#ArialMT-39" x="55.615234"/>
      </g>
     </g>
    </g>
    <g id="xtick_2">
     <g id="text_2">
      <!-- 17 -->
      <g style="fill: #444444" transform="translate(139.350061 229.840141)scale(0.09 -0.09)">
       <defs>
        <path id="ArialMT-31" d="M 2384 0 
L 1822 0 
L 1822 3584 
Q 1619 3391 1289 3197 
Q 959 3003 697 2906 
L 697 3450 
Q 1169 3672 1522 3987 
Q 1875 4303 2022 4600 
L 2384 4600 
L 2384 0 
z
" transform="scale(0.015625)"/>
        <path id="ArialMT-37" d="M 303 3981 
L 303 4522 
L 3269 4522 
L 3269 4084 
Q 2831 3619 2401 2847 
Q 1972 2075 1738 1259 
Q 1569 684 1522 0 
L 944 0 
Q 953 541 1156 1306 
Q 1359 2072 1739 2783 
Q 2119 3494 2547 3981 
L 303 3981 
z
" transform="scale(0.015625)"/>
       </defs>
       <use xlink:href="#ArialMT-31"/>
       <use xlink:href="#ArialMT-37" x="55.615234"/>
      </g>
     </g>
    </g>
    <g id="xtick_3">
     <g id="text_3">
      <!-- 69 -->
      <g style="fill: #444444" transform="translate(204.106664 229.840141)scale(0.09 -0.09)">
       <defs>
        <path id="ArialMT-36" d="M 3184 3459 
L 2625 3416 
Q 2550 3747 2413 3897 
Q 2184 4138 1850 4138 
Q 1581 4138 1378 3988 
Q 1113 3794 959 3422 
Q 806 3050 800 2363 
Q 1003 2672 1297 2822 
Q 1591 2972 1913 2972 
Q 2475 2972 2870 2558 
Q 3266 2144 3266 1488 
Q 3266 1056 3080 686 
Q 2894 316 2569 119 
Q 2244 -78 1831 -78 
Q 1128 -78 684 439 
Q 241 956 241 2144 
Q 241 3472 731 4075 
Q 1159 4600 1884 4600 
Q 2425 4600 2770 4297 
Q 3116 3994 3184 3459 
z
M 888 1484 
Q 888 1194 1011 928 
Q 1134 663 1356 523 
Q 1578 384 1822 384 
Q 2178 384 2434 671 
Q 2691 959 2691 1453 
Q 2691 1928 2437 2201 
Q 2184 2475 1800 2475 
Q 1419 2475 1153 2201 
Q 888 1928 888 1484 
z
" transform="scale(0.015625)"/>
       </defs>
       <use xlink:href="#ArialMT-36"/>
       <use xlink:href="#ArialMT-39" x="55.615234"/>
      </g>
     </g>
    </g>
    <g id="xtick_4">
     <g id="text_4">
      <!-- 15 -->
      <g style="fill: #444444" transform="translate(268.863266 229.840141)scale(0.09 -0.09)">
       <defs>
        <path id="ArialMT-35" d="M 266 1200 
L 856 1250 
Q 922 819 1161 601 
Q 1400 384 1738 384 
Q 2144 384 2425 690 
Q 2706 997 2706 1503 
Q 2706 1984 2436 2262 
Q 2166 2541 1728 2541 
Q 1456 2541 1237 2417 
Q 1019 2294 894 2097 
L 366 2166 
L 809 4519 
L 3088 4519 
L 3088 3981 
L 1259 3981 
L 1013 2750 
Q 1425 3038 1878 3038 
Q 2478 3038 2890 2622 
Q 3303 2206 3303 1553 
Q 3303 931 2941 478 
Q 2500 -78 1738 -78 
Q 1113 -78 717 272 
Q 322 622 266 1200 
z
" transform="scale(0.015625)"/>
       </defs>
       <use xlink:href="#ArialMT-31"/>
       <use xlink:href="#ArialMT-35" x="55.615234"/>
      </g>
     </g>
    </g>
    <g id="xtick_5">
     <g id="text_5">
      <!-- 5 -->
      <g style="fill: #444444" transform="translate(336.122291 229.840141)scale(0.09 -0.09)">
       <use xlink:href="#ArialMT-35"/>
      </g>
     </g>
    </g>
    <g id="xtick_6">
     <g id="text_6">
      <!-- 126 -->
      <g style="fill: #444444" transform="translate(395.87405 229.840141)scale(0.09 -0.09)">
       <defs>
        <path id="ArialMT-32" d="M 3222 541 
L 3222 0 
L 194 0 
Q 188 203 259 391 
Q 375 700 629 1000 
Q 884 1300 1366 1694 
Q 2113 2306 2375 2664 
Q 2638 3022 2638 3341 
Q 2638 3675 2398 3904 
Q 2159 4134 1775 4134 
Q 1369 4134 1125 3890 
Q 881 3647 878 3216 
L 300 3275 
Q 359 3922 746 4261 
Q 1134 4600 1788 4600 
Q 2447 4600 2831 4234 
Q 3216 3869 3216 3328 
Q 3216 3053 3103 2787 
Q 2991 2522 2730 2228 
Q 2469 1934 1863 1422 
Q 1356 997 1212 845 
Q 1069 694 975 541 
L 3222 541 
z
" transform="scale(0.015625)"/>
       </defs>
       <use xlink:href="#ArialMT-31"/>
       <use xlink:href="#ArialMT-32" x="55.615234"/>
       <use xlink:href="#ArialMT-36" x="111.230469"/>
      </g>
     </g>
    </g>
    <g id="xtick_7">
     <g id="text_7">
      <!-- 62 -->
      <g style="fill: #444444" transform="translate(463.133075 229.840141)scale(0.09 -0.09)">
       <use xlink:href="#ArialMT-36"/>
       <use xlink:href="#ArialMT-32" x="55.615234"/>
      </g>
     </g>
    </g>
    <g id="text_8">
     <!-- Patient -->
     <g style="fill: #444444" transform="translate(259.859048 242.070923)scale(0.09 -0.09)">
      <defs>
       <path id="ArialMT-50" d="M 494 0 
L 494 4581 
L 2222 4581 
Q 2678 4581 2919 4538 
Q 3256 4481 3484 4323 
Q 3713 4166 3852 3881 
Q 3991 3597 3991 3256 
Q 3991 2672 3619 2267 
Q 3247 1863 2275 1863 
L 1100 1863 
L 1100 0 
L 494 0 
z
M 1100 2403 
L 2284 2403 
Q 2872 2403 3119 2622 
Q 3366 2841 3366 3238 
Q 3366 3525 3220 3729 
Q 3075 3934 2838 4000 
Q 2684 4041 2272 4041 
L 1100 4041 
L 1100 2403 
z
" transform="scale(0.015625)"/>
       <path id="ArialMT-61" d="M 2588 409 
Q 2275 144 1986 34 
Q 1697 -75 1366 -75 
Q 819 -75 525 192 
Q 231 459 231 875 
Q 231 1119 342 1320 
Q 453 1522 633 1644 
Q 813 1766 1038 1828 
Q 1203 1872 1538 1913 
Q 2219 1994 2541 2106 
Q 2544 2222 2544 2253 
Q 2544 2597 2384 2738 
Q 2169 2928 1744 2928 
Q 1347 2928 1158 2789 
Q 969 2650 878 2297 
L 328 2372 
Q 403 2725 575 2942 
Q 747 3159 1072 3276 
Q 1397 3394 1825 3394 
Q 2250 3394 2515 3294 
Q 2781 3194 2906 3042 
Q 3031 2891 3081 2659 
Q 3109 2516 3109 2141 
L 3109 1391 
Q 3109 606 3145 398 
Q 3181 191 3288 0 
L 2700 0 
Q 2613 175 2588 409 
z
M 2541 1666 
Q 2234 1541 1622 1453 
Q 1275 1403 1131 1340 
Q 988 1278 909 1158 
Q 831 1038 831 891 
Q 831 666 1001 516 
Q 1172 366 1500 366 
Q 1825 366 2078 508 
Q 2331 650 2450 897 
Q 2541 1088 2541 1459 
L 2541 1666 
z
" transform="scale(0.015625)"/>
       <path id="ArialMT-74" d="M 1650 503 
L 1731 6 
Q 1494 -44 1306 -44 
Q 1000 -44 831 53 
Q 663 150 594 308 
Q 525 466 525 972 
L 525 2881 
L 113 2881 
L 113 3319 
L 525 3319 
L 525 4141 
L 1084 4478 
L 1084 3319 
L 1650 3319 
L 1650 2881 
L 1084 2881 
L 1084 941 
Q 1084 700 1114 631 
Q 1144 563 1211 522 
Q 1278 481 1403 481 
Q 1497 481 1650 503 
z
" transform="scale(0.015625)"/>
       <path id="ArialMT-69" d="M 425 3934 
L 425 4581 
L 988 4581 
L 988 3934 
L 425 3934 
z
M 425 0 
L 425 3319 
L 988 3319 
L 988 0 
L 425 0 
z
" transform="scale(0.015625)"/>
       <path id="ArialMT-65" d="M 2694 1069 
L 3275 997 
Q 3138 488 2766 206 
Q 2394 -75 1816 -75 
Q 1088 -75 661 373 
Q 234 822 234 1631 
Q 234 2469 665 2931 
Q 1097 3394 1784 3394 
Q 2450 3394 2872 2941 
Q 3294 2488 3294 1666 
Q 3294 1616 3291 1516 
L 816 1516 
Q 847 969 1125 678 
Q 1403 388 1819 388 
Q 2128 388 2347 550 
Q 2566 713 2694 1069 
z
M 847 1978 
L 2700 1978 
Q 2663 2397 2488 2606 
Q 2219 2931 1791 2931 
Q 1403 2931 1139 2672 
Q 875 2413 847 1978 
z
" transform="scale(0.015625)"/>
       <path id="ArialMT-6e" d="M 422 0 
L 422 3319 
L 928 3319 
L 928 2847 
Q 1294 3394 1984 3394 
Q 2284 3394 2536 3286 
Q 2788 3178 2913 3003 
Q 3038 2828 3088 2588 
Q 3119 2431 3119 2041 
L 3119 0 
L 2556 0 
L 2556 2019 
Q 2556 2363 2490 2533 
Q 2425 2703 2258 2804 
Q 2091 2906 1866 2906 
Q 1506 2906 1245 2678 
Q 984 2450 984 1813 
L 984 0 
L 422 0 
z
" transform="scale(0.015625)"/>
      </defs>
      <use xlink:href="#ArialMT-50"/>
      <use xlink:href="#ArialMT-61" x="66.699219"/>
      <use xlink:href="#ArialMT-74" x="122.314453"/>
      <use xlink:href="#ArialMT-69" x="150.097656"/>
      <use xlink:href="#ArialMT-65" x="172.314453"/>
      <use xlink:href="#ArialMT-6e" x="227.929688"/>
      <use xlink:href="#ArialMT-74" x="283.544922"/>
     </g>
    </g>
   </g>
   <g id="matplotlib.axis_2">
    <g id="ytick_1">
     <g id="text_9">
      <!-- 160 -->
      <g style="fill: #444444" transform="translate(22.705469 211.1048)scale(0.09 -0.09)">
       <defs>
        <path id="ArialMT-30" d="M 266 2259 
Q 266 3072 433 3567 
Q 600 4063 929 4331 
Q 1259 4600 1759 4600 
Q 2128 4600 2406 4451 
Q 2684 4303 2865 4023 
Q 3047 3744 3150 3342 
Q 3253 2941 3253 2259 
Q 3253 1453 3087 958 
Q 2922 463 2592 192 
Q 2263 -78 1759 -78 
Q 1097 -78 719 397 
Q 266 969 266 2259 
z
M 844 2259 
Q 844 1131 1108 757 
Q 1372 384 1759 384 
Q 2147 384 2411 759 
Q 2675 1134 2675 2259 
Q 2675 3391 2411 3762 
Q 2147 4134 1753 4134 
Q 1366 4134 1134 3806 
Q 844 3388 844 2259 
z
" transform="scale(0.015625)"/>
       </defs>
       <use xlink:href="#ArialMT-31"/>
       <use xlink:href="#ArialMT-36" x="55.615234"/>
       <use xlink:href="#ArialMT-30" x="111.230469"/>
      </g>
     </g>
    </g>
    <g id="ytick_2">
     <g id="text_10">
      <!-- 180 -->
      <g style="fill: #444444" transform="translate(22.705469 185.713607)scale(0.09 -0.09)">
       <defs>
        <path id="ArialMT-38" d="M 1131 2484 
Q 781 2613 612 2850 
Q 444 3088 444 3419 
Q 444 3919 803 4259 
Q 1163 4600 1759 4600 
Q 2359 4600 2725 4251 
Q 3091 3903 3091 3403 
Q 3091 3084 2923 2848 
Q 2756 2613 2416 2484 
Q 2838 2347 3058 2040 
Q 3278 1734 3278 1309 
Q 3278 722 2862 322 
Q 2447 -78 1769 -78 
Q 1091 -78 675 323 
Q 259 725 259 1325 
Q 259 1772 486 2073 
Q 713 2375 1131 2484 
z
M 1019 3438 
Q 1019 3113 1228 2906 
Q 1438 2700 1772 2700 
Q 2097 2700 2305 2904 
Q 2513 3109 2513 3406 
Q 2513 3716 2298 3927 
Q 2084 4138 1766 4138 
Q 1444 4138 1231 3931 
Q 1019 3725 1019 3438 
z
M 838 1322 
Q 838 1081 952 856 
Q 1066 631 1291 507 
Q 1516 384 1775 384 
Q 2178 384 2440 643 
Q 2703 903 2703 1303 
Q 2703 1709 2433 1975 
Q 2163 2241 1756 2241 
Q 1359 2241 1098 1978 
Q 838 1716 838 1322 
z
" transform="scale(0.015625)"/>
       </defs>
       <use xlink:href="#ArialMT-31"/>
       <use xlink:href="#ArialMT-38" x="55.615234"/>
       <use xlink:href="#ArialMT-30" x="111.230469"/>
      </g>
     </g>
    </g>
    <g id="ytick_3">
     <g id="text_11">
      <!-- 200 -->
      <g style="fill: #444444" transform="translate(22.705469 160.322414)scale(0.09 -0.09)">
       <use xlink:href="#ArialMT-32"/>
       <use xlink:href="#ArialMT-30" x="55.615234"/>
       <use xlink:href="#ArialMT-30" x="111.230469"/>
      </g>
     </g>
    </g>
    <g id="ytick_4">
     <g id="text_12">
      <!-- 220 -->
      <g style="fill: #444444" transform="translate(22.705469 134.931221)scale(0.09 -0.09)">
       <use xlink:href="#ArialMT-32"/>
       <use xlink:href="#ArialMT-32" x="55.615234"/>
       <use xlink:href="#ArialMT-30" x="111.230469"/>
      </g>
     </g>
    </g>
    <g id="ytick_5">
     <g id="text_13">
      <!-- 240 -->
      <g style="fill: #444444" transform="translate(22.705469 109.540028)scale(0.09 -0.09)">
       <use xlink:href="#ArialMT-32"/>
       <use xlink:href="#ArialMT-34" x="55.615234"/>
       <use xlink:href="#ArialMT-30" x="111.230469"/>
      </g>
     </g>
    </g>
    <g id="ytick_6">
     <g id="text_14">
      <!-- 260 -->
      <g style="fill: #444444" transform="translate(22.705469 84.148836)scale(0.09 -0.09)">
       <use xlink:href="#ArialMT-32"/>
       <use xlink:href="#ArialMT-36" x="55.615234"/>
       <use xlink:href="#ArialMT-30" x="111.230469"/>
      </g>
     </g>
    </g>
    <g id="ytick_7">
     <g id="text_15">
      <!-- 280 -->
      <g style="fill: #444444" transform="translate(22.705469 58.757643)scale(0.09 -0.09)">
       <use xlink:href="#ArialMT-32"/>
       <use xlink:href="#ArialMT-38" x="55.615234"/>
       <use xlink:href="#ArialMT-30" x="111.230469"/>
      </g>
     </g>
    </g>
    <g id="ytick_8">
     <g id="text_16">
      <!-- 300 -->
      <g style="fill: #444444" transform="translate(22.705469 33.36645)scale(0.09 -0.09)">
       <defs>
        <path id="ArialMT-33" d="M 269 1209 
L 831 1284 
Q 928 806 1161 595 
Q 1394 384 1728 384 
Q 2125 384 2398 659 
Q 2672 934 2672 1341 
Q 2672 1728 2419 1979 
Q 2166 2231 1775 2231 
Q 1616 2231 1378 2169 
L 1441 2663 
Q 1497 2656 1531 2656 
Q 1891 2656 2178 2843 
Q 2466 3031 2466 3422 
Q 2466 3731 2256 3934 
Q 2047 4138 1716 4138 
Q 1388 4138 1169 3931 
Q 950 3725 888 3313 
L 325 3413 
Q 428 3978 793 4289 
Q 1159 4600 1703 4600 
Q 2078 4600 2393 4439 
Q 2709 4278 2876 4000 
Q 3044 3722 3044 3409 
Q 3044 3113 2884 2869 
Q 2725 2625 2413 2481 
Q 2819 2388 3044 2092 
Q 3269 1797 3269 1353 
Q 3269 753 2831 336 
Q 2394 -81 1725 -81 
Q 1122 -81 723 278 
Q 325 638 269 1209 
z
" transform="scale(0.015625)"/>
       </defs>
       <use xlink:href="#ArialMT-33"/>
       <use xlink:href="#ArialMT-30" x="55.615234"/>
       <use xlink:href="#ArialMT-30" x="111.230469"/>
      </g>
     </g>
    </g>
    <g id="text_17">
     <!-- Trimmed Means of M values (TMM) -->
     <g style="fill: #444444" transform="translate(16.81125 190.194993)rotate(-90)scale(0.09 -0.09)">
      <defs>
       <path id="ArialMT-54" d="M 1659 0 
L 1659 4041 
L 150 4041 
L 150 4581 
L 3781 4581 
L 3781 4041 
L 2266 4041 
L 2266 0 
L 1659 0 
z
" transform="scale(0.015625)"/>
       <path id="ArialMT-72" d="M 416 0 
L 416 3319 
L 922 3319 
L 922 2816 
Q 1116 3169 1280 3281 
Q 1444 3394 1641 3394 
Q 1925 3394 2219 3213 
L 2025 2691 
Q 1819 2813 1613 2813 
Q 1428 2813 1281 2702 
Q 1134 2591 1072 2394 
Q 978 2094 978 1738 
L 978 0 
L 416 0 
z
" transform="scale(0.015625)"/>
       <path id="ArialMT-6d" d="M 422 0 
L 422 3319 
L 925 3319 
L 925 2853 
Q 1081 3097 1340 3245 
Q 1600 3394 1931 3394 
Q 2300 3394 2536 3241 
Q 2772 3088 2869 2813 
Q 3263 3394 3894 3394 
Q 4388 3394 4653 3120 
Q 4919 2847 4919 2278 
L 4919 0 
L 4359 0 
L 4359 2091 
Q 4359 2428 4304 2576 
Q 4250 2725 4106 2815 
Q 3963 2906 3769 2906 
Q 3419 2906 3187 2673 
Q 2956 2441 2956 1928 
L 2956 0 
L 2394 0 
L 2394 2156 
Q 2394 2531 2256 2718 
Q 2119 2906 1806 2906 
Q 1569 2906 1367 2781 
Q 1166 2656 1075 2415 
Q 984 2175 984 1722 
L 984 0 
L 422 0 
z
" transform="scale(0.015625)"/>
       <path id="ArialMT-64" d="M 2575 0 
L 2575 419 
Q 2259 -75 1647 -75 
Q 1250 -75 917 144 
Q 584 363 401 755 
Q 219 1147 219 1656 
Q 219 2153 384 2558 
Q 550 2963 881 3178 
Q 1213 3394 1622 3394 
Q 1922 3394 2156 3267 
Q 2391 3141 2538 2938 
L 2538 4581 
L 3097 4581 
L 3097 0 
L 2575 0 
z
M 797 1656 
Q 797 1019 1065 703 
Q 1334 388 1700 388 
Q 2069 388 2326 689 
Q 2584 991 2584 1609 
Q 2584 2291 2321 2609 
Q 2059 2928 1675 2928 
Q 1300 2928 1048 2622 
Q 797 2316 797 1656 
z
" transform="scale(0.015625)"/>
       <path id="ArialMT-20" transform="scale(0.015625)"/>
       <path id="ArialMT-4d" d="M 475 0 
L 475 4581 
L 1388 4581 
L 2472 1338 
Q 2622 884 2691 659 
Q 2769 909 2934 1394 
L 4031 4581 
L 4847 4581 
L 4847 0 
L 4263 0 
L 4263 3834 
L 2931 0 
L 2384 0 
L 1059 3900 
L 1059 0 
L 475 0 
z
" transform="scale(0.015625)"/>
       <path id="ArialMT-73" d="M 197 991 
L 753 1078 
Q 800 744 1014 566 
Q 1228 388 1613 388 
Q 2000 388 2187 545 
Q 2375 703 2375 916 
Q 2375 1106 2209 1216 
Q 2094 1291 1634 1406 
Q 1016 1563 777 1677 
Q 538 1791 414 1992 
Q 291 2194 291 2438 
Q 291 2659 392 2848 
Q 494 3038 669 3163 
Q 800 3259 1026 3326 
Q 1253 3394 1513 3394 
Q 1903 3394 2198 3281 
Q 2494 3169 2634 2976 
Q 2775 2784 2828 2463 
L 2278 2388 
Q 2241 2644 2061 2787 
Q 1881 2931 1553 2931 
Q 1166 2931 1000 2803 
Q 834 2675 834 2503 
Q 834 2394 903 2306 
Q 972 2216 1119 2156 
Q 1203 2125 1616 2013 
Q 2213 1853 2448 1751 
Q 2684 1650 2818 1456 
Q 2953 1263 2953 975 
Q 2953 694 2789 445 
Q 2625 197 2315 61 
Q 2006 -75 1616 -75 
Q 969 -75 630 194 
Q 291 463 197 991 
z
" transform="scale(0.015625)"/>
       <path id="ArialMT-6f" d="M 213 1659 
Q 213 2581 725 3025 
Q 1153 3394 1769 3394 
Q 2453 3394 2887 2945 
Q 3322 2497 3322 1706 
Q 3322 1066 3130 698 
Q 2938 331 2570 128 
Q 2203 -75 1769 -75 
Q 1072 -75 642 372 
Q 213 819 213 1659 
z
M 791 1659 
Q 791 1022 1069 705 
Q 1347 388 1769 388 
Q 2188 388 2466 706 
Q 2744 1025 2744 1678 
Q 2744 2294 2464 2611 
Q 2184 2928 1769 2928 
Q 1347 2928 1069 2612 
Q 791 2297 791 1659 
z
" transform="scale(0.015625)"/>
       <path id="ArialMT-66" d="M 556 0 
L 556 2881 
L 59 2881 
L 59 3319 
L 556 3319 
L 556 3672 
Q 556 4006 616 4169 
Q 697 4388 901 4523 
Q 1106 4659 1475 4659 
Q 1713 4659 2000 4603 
L 1916 4113 
Q 1741 4144 1584 4144 
Q 1328 4144 1222 4034 
Q 1116 3925 1116 3625 
L 1116 3319 
L 1763 3319 
L 1763 2881 
L 1116 2881 
L 1116 0 
L 556 0 
z
" transform="scale(0.015625)"/>
       <path id="ArialMT-76" d="M 1344 0 
L 81 3319 
L 675 3319 
L 1388 1331 
Q 1503 1009 1600 663 
Q 1675 925 1809 1294 
L 2547 3319 
L 3125 3319 
L 1869 0 
L 1344 0 
z
" transform="scale(0.015625)"/>
       <path id="ArialMT-6c" d="M 409 0 
L 409 4581 
L 972 4581 
L 972 0 
L 409 0 
z
" transform="scale(0.015625)"/>
       <path id="ArialMT-75" d="M 2597 0 
L 2597 488 
Q 2209 -75 1544 -75 
Q 1250 -75 995 37 
Q 741 150 617 320 
Q 494 491 444 738 
Q 409 903 409 1263 
L 409 3319 
L 972 3319 
L 972 1478 
Q 972 1038 1006 884 
Q 1059 663 1231 536 
Q 1403 409 1656 409 
Q 1909 409 2131 539 
Q 2353 669 2445 892 
Q 2538 1116 2538 1541 
L 2538 3319 
L 3100 3319 
L 3100 0 
L 2597 0 
z
" transform="scale(0.015625)"/>
       <path id="ArialMT-28" d="M 1497 -1347 
Q 1031 -759 709 28 
Q 388 816 388 1659 
Q 388 2403 628 3084 
Q 909 3875 1497 4659 
L 1900 4659 
Q 1522 4009 1400 3731 
Q 1209 3300 1100 2831 
Q 966 2247 966 1656 
Q 966 153 1900 -1347 
L 1497 -1347 
z
" transform="scale(0.015625)"/>
       <path id="ArialMT-29" d="M 791 -1347 
L 388 -1347 
Q 1322 153 1322 1656 
Q 1322 2244 1188 2822 
Q 1081 3291 891 3722 
Q 769 4003 388 4659 
L 791 4659 
Q 1378 3875 1659 3084 
Q 1900 2403 1900 1659 
Q 1900 816 1576 28 
Q 1253 -759 791 -1347 
z
" transform="scale(0.015625)"/>
      </defs>
      <use xlink:href="#ArialMT-54"/>
      <use xlink:href="#ArialMT-72" x="57.333984"/>
      <use xlink:href="#ArialMT-69" x="90.634766"/>
      <use xlink:href="#ArialMT-6d" x="112.851562"/>
      <use xlink:href="#ArialMT-6d" x="196.152344"/>
      <use xlink:href="#ArialMT-65" x="279.453125"/>
      <use xlink:href="#ArialMT-64" x="335.068359"/>
      <use xlink:href="#ArialMT-20" x="390.683594"/>
      <use xlink:href="#ArialMT-4d" x="418.466797"/>
      <use xlink:href="#ArialMT-65" x="501.767578"/>
      <use xlink:href="#ArialMT-61" x="557.382812"/>
      <use xlink:href="#ArialMT-6e" x="612.998047"/>
      <use xlink:href="#ArialMT-73" x="668.613281"/>
      <use xlink:href="#ArialMT-20" x="718.613281"/>
      <use xlink:href="#ArialMT-6f" x="746.396484"/>
      <use xlink:href="#ArialMT-66" x="802.011719"/>
      <use xlink:href="#ArialMT-20" x="829.794922"/>
      <use xlink:href="#ArialMT-4d" x="857.578125"/>
      <use xlink:href="#ArialMT-20" x="940.878906"/>
      <use xlink:href="#ArialMT-76" x="968.662109"/>
      <use xlink:href="#ArialMT-61" x="1018.662109"/>
      <use xlink:href="#ArialMT-6c" x="1074.277344"/>
      <use xlink:href="#ArialMT-75" x="1096.494141"/>
      <use xlink:href="#ArialMT-65" x="1152.109375"/>
      <use xlink:href="#ArialMT-73" x="1207.724609"/>
      <use xlink:href="#ArialMT-20" x="1257.724609"/>
      <use xlink:href="#ArialMT-28" x="1285.507812"/>
      <use xlink:href="#ArialMT-54" x="1318.808594"/>
      <use xlink:href="#ArialMT-4d" x="1379.892578"/>
      <use xlink:href="#ArialMT-4d" x="1463.193359"/>
      <use xlink:href="#ArialMT-29" x="1546.494141"/>
     </g>
    </g>
   </g>
   <g id="PolyCollection_1">
    <defs>
     <path id="m7001879b8d" d="M 99.701861 -83.090527 
L 59.494742 -83.090527 
L 59.0295 -83.59216 
L 58.585988 -84.093794 
L 58.165813 -84.595427 
L 57.770479 -85.097061 
L 57.401374 -85.598694 
L 57.059759 -86.100328 
L 56.746758 -86.601961 
L 56.463353 -87.103595 
L 56.210373 -87.605228 
L 55.988487 -88.106862 
L 55.798206 -88.608495 
L 55.639873 -89.110129 
L 55.513663 -89.611762 
L 55.419587 -90.113396 
L 55.357489 -90.615029 
L 55.327049 -91.116663 
L 55.32779 -91.618296 
L 55.35908 -92.11993 
L 55.420142 -92.621563 
L 55.510062 -93.123197 
L 55.627793 -93.62483 
L 55.772173 -94.126463 
L 55.94193 -94.628097 
L 56.135696 -95.12973 
L 56.352019 -95.631364 
L 56.589376 -96.132997 
L 56.846183 -96.634631 
L 57.120815 -97.136264 
L 57.411611 -97.637898 
L 57.716891 -98.139531 
L 58.034971 -98.641165 
L 58.364169 -99.142798 
L 58.702822 -99.644432 
L 59.049297 -100.146065 
L 59.401996 -100.647699 
L 59.759374 -101.149332 
L 60.119938 -101.650966 
L 60.482264 -102.152599 
L 60.844998 -102.654233 
L 61.206865 -103.155866 
L 61.566671 -103.6575 
L 61.923308 -104.159133 
L 62.27576 -104.660767 
L 62.623101 -105.1624 
L 62.964496 -105.664034 
L 63.299204 -106.165667 
L 63.626575 -106.667301 
L 63.946051 -107.168934 
L 64.25716 -107.670568 
L 64.559518 -108.172201 
L 64.852821 -108.673835 
L 65.136845 -109.175468 
L 65.41144 -109.677102 
L 65.676528 -110.178735 
L 65.932093 -110.680369 
L 66.178182 -111.182002 
L 66.414899 -111.683636 
L 66.642396 -112.185269 
L 66.860873 -112.686903 
L 67.07057 -113.188536 
L 67.271765 -113.69017 
L 67.464767 -114.191803 
L 67.649914 -114.693437 
L 67.827566 -115.19507 
L 67.998106 -115.696704 
L 68.161931 -116.198337 
L 68.319452 -116.699971 
L 68.471092 -117.201604 
L 68.617278 -117.703238 
L 68.758447 -118.204871 
L 68.895036 -118.706505 
L 69.027483 -119.208138 
L 69.156228 -119.709772 
L 69.281704 -120.211405 
L 69.404345 -120.713039 
L 69.524578 -121.214672 
L 69.642822 -121.716306 
L 69.759491 -122.217939 
L 69.874989 -122.719573 
L 69.98971 -123.221206 
L 70.104037 -123.72284 
L 70.218342 -124.224473 
L 70.332984 -124.726107 
L 70.448304 -125.22774 
L 70.564632 -125.729374 
L 70.682279 -126.231007 
L 70.801537 -126.732641 
L 70.922679 -127.234274 
L 71.045959 -127.735908 
L 71.171605 -128.237541 
L 71.299825 -128.739175 
L 71.430799 -129.240808 
L 71.564685 -129.742442 
L 71.701609 -130.244075 
L 71.841672 -130.745709 
L 71.984944 -131.247342 
L 72.131467 -131.748976 
L 72.28125 -132.250609 
L 72.434274 -132.752243 
L 86.762329 -132.752243 
L 86.762329 -132.752243 
L 86.915353 -132.250609 
L 87.065136 -131.748976 
L 87.211659 -131.247342 
L 87.354931 -130.745709 
L 87.494994 -130.244075 
L 87.631918 -129.742442 
L 87.765804 -129.240808 
L 87.896778 -128.739175 
L 88.024998 -128.237541 
L 88.150644 -127.735908 
L 88.273924 -127.234274 
L 88.395066 -126.732641 
L 88.514324 -126.231007 
L 88.631971 -125.729374 
L 88.748299 -125.22774 
L 88.863619 -124.726107 
L 88.97826 -124.224473 
L 89.092566 -123.72284 
L 89.206893 -123.221206 
L 89.321614 -122.719573 
L 89.437112 -122.217939 
L 89.553781 -121.716306 
L 89.672025 -121.214672 
L 89.792257 -120.713039 
L 89.914899 -120.211405 
L 90.040375 -119.709772 
L 90.169119 -119.208138 
L 90.301567 -118.706505 
L 90.438156 -118.204871 
L 90.579325 -117.703238 
L 90.725511 -117.201604 
L 90.877151 -116.699971 
L 91.034672 -116.198337 
L 91.198497 -115.696704 
L 91.369036 -115.19507 
L 91.546689 -114.693437 
L 91.731836 -114.191803 
L 91.924838 -113.69017 
L 92.126033 -113.188536 
L 92.33573 -112.686903 
L 92.554207 -112.185269 
L 92.781704 -111.683636 
L 93.01842 -111.182002 
L 93.26451 -110.680369 
L 93.520075 -110.178735 
L 93.785163 -109.677102 
L 94.059758 -109.175468 
L 94.343782 -108.673835 
L 94.637085 -108.172201 
L 94.939442 -107.670568 
L 95.250552 -107.168934 
L 95.570027 -106.667301 
L 95.897399 -106.165667 
L 96.232107 -105.664034 
L 96.573502 -105.1624 
L 96.920842 -104.660767 
L 97.273295 -104.159133 
L 97.629932 -103.6575 
L 97.989738 -103.155866 
L 98.351605 -102.654233 
L 98.714339 -102.152599 
L 99.076665 -101.650966 
L 99.437229 -101.149332 
L 99.794606 -100.647699 
L 100.147306 -100.146065 
L 100.493781 -99.644432 
L 100.832434 -99.142798 
L 101.161632 -98.641165 
L 101.479712 -98.139531 
L 101.784992 -97.637898 
L 102.075788 -97.136264 
L 102.35042 -96.634631 
L 102.607227 -96.132997 
L 102.844584 -95.631364 
L 103.060907 -95.12973 
L 103.254673 -94.628097 
L 103.42443 -94.126463 
L 103.56881 -93.62483 
L 103.686541 -93.123197 
L 103.77646 -92.621563 
L 103.837523 -92.11993 
L 103.868813 -91.618296 
L 103.869554 -91.116663 
L 103.839114 -90.615029 
L 103.777015 -90.113396 
L 103.68294 -89.611762 
L 103.55673 -89.110129 
L 103.398397 -88.608495 
L 103.208115 -88.106862 
L 102.98623 -87.605228 
L 102.733249 -87.103595 
L 102.449845 -86.601961 
L 102.136844 -86.100328 
L 101.795229 -85.598694 
L 101.426124 -85.097061 
L 101.03079 -84.595427 
L 100.610615 -84.093794 
L 100.167103 -83.59216 
L 99.701861 -83.090527 
z
" style="stroke: #999999; stroke-width: 2"/>
    </defs>
    <g clip-path="url(#p5bd70517f7)">
     <use xlink:href="#m7001879b8d" x="0" y="255.11811" style="fill: #ffffff; stroke: #999999; stroke-width: 2"/>
    </g>
   </g>
   <g id="PolyCollection_2">
    <defs>
     <path id="m1aae3dec90" d="M 151.674005 -142.807711 
L 137.035804 -142.807711 
L 136.815159 -143.602183 
L 136.596172 -144.396655 
L 136.379217 -145.191127 
L 136.164661 -145.9856 
L 135.952861 -146.780072 
L 135.744165 -147.574544 
L 135.538912 -148.369016 
L 135.337427 -149.163488 
L 135.140022 -149.95796 
L 134.946997 -150.752433 
L 134.758634 -151.546905 
L 134.575203 -152.341377 
L 134.396954 -153.135849 
L 134.224121 -153.930321 
L 134.056921 -154.724793 
L 133.895551 -155.519266 
L 133.740189 -156.313738 
L 133.590994 -157.10821 
L 133.448103 -157.902682 
L 133.311634 -158.697154 
L 133.181685 -159.491627 
L 133.058329 -160.286099 
L 132.941622 -161.080571 
L 132.831597 -161.875043 
L 132.728265 -162.669515 
L 132.631618 -163.463987 
L 132.541625 -164.25846 
L 132.458237 -165.052932 
L 132.381384 -165.847404 
L 132.310976 -166.641876 
L 132.246908 -167.436348 
L 132.189056 -168.23082 
L 132.137278 -169.025293 
L 132.091421 -169.819765 
L 132.051317 -170.614237 
L 132.016785 -171.408709 
L 131.987635 -172.203181 
L 131.963669 -172.997654 
L 131.94468 -173.792126 
L 131.930459 -174.586598 
L 131.920792 -175.38107 
L 131.915465 -176.175542 
L 131.914265 -176.970014 
L 131.916982 -177.764487 
L 131.92341 -178.558959 
L 131.933351 -179.353431 
L 131.946616 -180.147903 
L 131.963027 -180.942375 
L 131.982416 -181.736847 
L 132.00463 -182.53132 
L 132.029532 -183.325792 
L 132.057001 -184.120264 
L 132.086933 -184.914736 
L 132.119243 -185.709208 
L 132.153863 -186.503681 
L 132.190747 -187.298153 
L 132.229868 -188.092625 
L 132.271218 -188.887097 
L 132.31481 -189.681569 
L 132.360677 -190.476041 
L 132.408867 -191.270514 
L 132.45945 -192.064986 
L 132.512512 -192.859458 
L 132.568155 -193.65393 
L 132.626494 -194.448402 
L 132.687659 -195.242874 
L 132.751792 -196.037347 
L 132.819043 -196.831819 
L 132.889571 -197.626291 
L 132.963541 -198.420763 
L 133.041124 -199.215235 
L 133.122488 -200.009708 
L 133.207806 -200.80418 
L 133.297247 -201.598652 
L 133.390973 -202.393124 
L 133.489144 -203.187596 
L 133.591907 -203.982068 
L 133.6994 -204.776541 
L 133.81175 -205.571013 
L 133.929065 -206.365485 
L 134.051441 -207.159957 
L 134.178953 -207.954429 
L 134.311657 -208.748901 
L 134.449587 -209.543374 
L 134.592755 -210.337846 
L 134.74115 -211.132318 
L 134.894735 -211.92679 
L 135.053447 -212.721262 
L 135.217201 -213.515735 
L 135.385881 -214.310207 
L 135.559346 -215.104679 
L 135.737431 -215.899151 
L 135.919943 -216.693623 
L 136.106663 -217.488095 
L 136.297349 -218.282568 
L 136.491733 -219.07704 
L 136.689527 -219.871512 
L 136.890419 -220.665984 
L 137.094081 -221.460456 
L 151.615728 -221.460456 
L 151.615728 -221.460456 
L 151.819389 -220.665984 
L 152.020282 -219.871512 
L 152.218076 -219.07704 
L 152.41246 -218.282568 
L 152.603146 -217.488095 
L 152.789866 -216.693623 
L 152.972377 -215.899151 
L 153.150462 -215.104679 
L 153.323928 -214.310207 
L 153.492608 -213.515735 
L 153.656361 -212.721262 
L 153.815074 -211.92679 
L 153.968659 -211.132318 
L 154.117053 -210.337846 
L 154.260222 -209.543374 
L 154.398152 -208.748901 
L 154.530855 -207.954429 
L 154.658367 -207.159957 
L 154.780743 -206.365485 
L 154.898059 -205.571013 
L 155.010409 -204.776541 
L 155.117902 -203.982068 
L 155.220665 -203.187596 
L 155.318836 -202.393124 
L 155.412562 -201.598652 
L 155.502002 -200.80418 
L 155.587321 -200.009708 
L 155.668685 -199.215235 
L 155.746267 -198.420763 
L 155.820238 -197.626291 
L 155.890766 -196.831819 
L 155.958017 -196.037347 
L 156.02215 -195.242874 
L 156.083315 -194.448402 
L 156.141654 -193.65393 
L 156.197296 -192.859458 
L 156.250358 -192.064986 
L 156.300942 -191.270514 
L 156.349132 -190.476041 
L 156.394998 -189.681569 
L 156.438591 -188.887097 
L 156.479941 -188.092625 
L 156.519062 -187.298153 
L 156.555946 -186.503681 
L 156.590566 -185.709208 
L 156.622875 -184.914736 
L 156.652807 -184.120264 
L 156.680276 -183.325792 
L 156.705179 -182.53132 
L 156.727393 -181.736847 
L 156.746782 -180.942375 
L 156.763192 -180.147903 
L 156.776458 -179.353431 
L 156.786399 -178.558959 
L 156.792827 -177.764487 
L 156.795543 -176.970014 
L 156.794343 -176.175542 
L 156.789016 -175.38107 
L 156.77935 -174.586598 
L 156.765128 -173.792126 
L 156.74614 -172.997654 
L 156.722174 -172.203181 
L 156.693024 -171.408709 
L 156.658492 -170.614237 
L 156.618387 -169.819765 
L 156.572531 -169.025293 
L 156.520753 -168.23082 
L 156.4629 -167.436348 
L 156.398832 -166.641876 
L 156.328425 -165.847404 
L 156.251572 -165.052932 
L 156.168183 -164.25846 
L 156.078191 -163.463987 
L 155.981544 -162.669515 
L 155.878212 -161.875043 
L 155.768187 -161.080571 
L 155.65148 -160.286099 
L 155.528124 -159.491627 
L 155.398174 -158.697154 
L 155.261706 -157.902682 
L 155.118815 -157.10821 
L 154.969619 -156.313738 
L 154.814257 -155.519266 
L 154.652887 -154.724793 
L 154.485687 -153.930321 
L 154.312855 -153.135849 
L 154.134606 -152.341377 
L 153.951174 -151.546905 
L 153.762812 -150.752433 
L 153.569787 -149.95796 
L 153.372382 -149.163488 
L 153.170897 -148.369016 
L 152.965644 -147.574544 
L 152.756948 -146.780072 
L 152.545148 -145.9856 
L 152.330591 -145.191127 
L 152.113637 -144.396655 
L 151.89465 -143.602183 
L 151.674005 -142.807711 
z
" style="stroke: #999999; stroke-width: 2"/>
    </defs>
    <g clip-path="url(#p5bd70517f7)">
     <use xlink:href="#m1aae3dec90" x="0" y="255.11811" style="fill: #ffffff; stroke: #999999; stroke-width: 2"/>
    </g>
   </g>
   <g id="PolyCollection_3">
    <defs>
     <path id="mfb72ec3d21" d="M 217.151094 -53.127122 
L 201.071921 -53.127122 
L 200.815564 -53.901233 
L 200.559966 -54.675343 
L 200.305594 -55.449454 
L 200.052915 -56.223564 
L 199.802406 -56.997675 
L 199.554543 -57.771786 
L 199.309806 -58.545896 
L 199.068675 -59.320007 
L 198.831631 -60.094117 
L 198.59915 -60.868228 
L 198.371707 -61.642339 
L 198.149772 -62.416449 
L 197.933809 -63.19056 
L 197.724274 -63.96467 
L 197.521614 -64.738781 
L 197.326264 -65.512892 
L 197.138647 -66.287002 
L 196.959173 -67.061113 
L 196.788233 -67.835223 
L 196.626202 -68.609334 
L 196.473434 -69.383445 
L 196.33026 -70.157555 
L 196.19699 -70.931666 
L 196.073905 -71.705776 
L 195.96126 -72.479887 
L 195.85928 -73.253998 
L 195.768158 -74.028108 
L 195.688056 -74.802219 
L 195.619098 -75.576329 
L 195.561373 -76.35044 
L 195.514934 -77.124551 
L 195.479793 -77.898661 
L 195.455923 -78.672772 
L 195.443256 -79.446882 
L 195.441682 -80.220993 
L 195.45105 -80.995104 
L 195.471169 -81.769214 
L 195.501803 -82.543325 
L 195.542679 -83.317435 
L 195.593479 -84.091546 
L 195.653851 -84.865657 
L 195.723403 -85.639767 
L 195.801706 -86.413878 
L 195.888299 -87.187988 
L 195.98269 -87.962099 
L 196.084358 -88.73621 
L 196.192755 -89.51032 
L 196.307314 -90.284431 
L 196.427445 -91.058541 
L 196.552548 -91.832652 
L 196.682009 -92.606763 
L 196.815208 -93.380873 
L 196.951524 -94.154984 
L 197.090337 -94.929094 
L 197.231034 -95.703205 
L 197.373016 -96.477316 
L 197.515696 -97.251426 
L 197.65851 -98.025537 
L 197.80092 -98.799647 
L 197.942415 -99.573758 
L 198.082518 -100.347869 
L 198.220791 -101.121979 
L 198.356834 -101.89609 
L 198.490293 -102.6702 
L 198.620861 -103.444311 
L 198.748278 -104.218422 
L 198.872337 -104.992532 
L 198.992883 -105.766643 
L 199.109815 -106.540753 
L 199.223086 -107.314864 
L 199.332702 -108.088975 
L 199.438724 -108.863085 
L 199.541263 -109.637196 
L 199.640481 -110.411306 
L 199.73659 -111.185417 
L 199.829844 -111.959527 
L 199.920541 -112.733638 
L 200.009016 -113.507749 
L 200.095639 -114.281859 
L 200.180808 -115.05597 
L 200.264948 -115.83008 
L 200.348501 -116.604191 
L 200.431922 -117.378302 
L 200.515678 -118.152412 
L 200.600237 -118.926523 
L 200.686063 -119.700633 
L 200.773614 -120.474744 
L 200.863333 -121.248855 
L 200.955644 -122.022965 
L 201.050948 -122.797076 
L 201.149615 -123.571186 
L 201.251985 -124.345297 
L 201.358358 -125.119408 
L 201.468997 -125.893518 
L 201.584119 -126.667629 
L 201.703896 -127.441739 
L 201.828452 -128.21585 
L 201.957863 -128.989961 
L 202.092155 -129.764071 
L 216.130859 -129.764071 
L 216.130859 -129.764071 
L 216.265151 -128.989961 
L 216.394562 -128.21585 
L 216.519119 -127.441739 
L 216.638896 -126.667629 
L 216.754017 -125.893518 
L 216.864656 -125.119408 
L 216.97103 -124.345297 
L 217.0734 -123.571186 
L 217.172067 -122.797076 
L 217.26737 -122.022965 
L 217.359681 -121.248855 
L 217.4494 -120.474744 
L 217.536951 -119.700633 
L 217.622778 -118.926523 
L 217.707336 -118.152412 
L 217.791092 -117.378302 
L 217.874514 -116.604191 
L 217.958066 -115.83008 
L 218.042206 -115.05597 
L 218.127376 -114.281859 
L 218.213999 -113.507749 
L 218.302474 -112.733638 
L 218.393171 -111.959527 
L 218.486425 -111.185417 
L 218.582533 -110.411306 
L 218.681752 -109.637196 
L 218.784291 -108.863085 
L 218.890312 -108.088975 
L 218.999929 -107.314864 
L 219.113199 -106.540753 
L 219.230132 -105.766643 
L 219.350678 -104.992532 
L 219.474737 -104.218422 
L 219.602154 -103.444311 
L 219.732721 -102.6702 
L 219.866181 -101.89609 
L 220.002224 -101.121979 
L 220.140497 -100.347869 
L 220.2806 -99.573758 
L 220.422095 -98.799647 
L 220.564504 -98.025537 
L 220.707319 -97.251426 
L 220.849999 -96.477316 
L 220.99198 -95.703205 
L 221.132678 -94.929094 
L 221.271491 -94.154984 
L 221.407807 -93.380873 
L 221.541006 -92.606763 
L 221.670467 -91.832652 
L 221.795569 -91.058541 
L 221.915701 -90.284431 
L 222.030259 -89.51032 
L 222.138657 -88.73621 
L 222.240324 -87.962099 
L 222.334715 -87.187988 
L 222.421309 -86.413878 
L 222.499612 -85.639767 
L 222.569163 -84.865657 
L 222.629535 -84.091546 
L 222.680336 -83.317435 
L 222.721211 -82.543325 
L 222.751846 -81.769214 
L 222.771964 -80.995104 
L 222.781333 -80.220993 
L 222.779759 -79.446882 
L 222.767091 -78.672772 
L 222.743221 -77.898661 
L 222.70808 -77.124551 
L 222.661641 -76.35044 
L 222.603917 -75.576329 
L 222.534959 -74.802219 
L 222.454856 -74.028108 
L 222.363735 -73.253998 
L 222.261755 -72.479887 
L 222.14911 -71.705776 
L 222.026025 -70.931666 
L 221.892755 -70.157555 
L 221.749581 -69.383445 
L 221.596812 -68.609334 
L 221.434781 -67.835223 
L 221.263841 -67.061113 
L 221.084367 -66.287002 
L 220.896751 -65.512892 
L 220.701401 -64.738781 
L 220.49874 -63.96467 
L 220.289205 -63.19056 
L 220.073243 -62.416449 
L 219.851308 -61.642339 
L 219.623865 -60.868228 
L 219.391384 -60.094117 
L 219.154339 -59.320007 
L 218.913208 -58.545896 
L 218.668472 -57.771786 
L 218.420609 -56.997675 
L 218.170099 -56.223564 
L 217.917421 -55.449454 
L 217.663048 -54.675343 
L 217.407451 -53.901233 
L 217.151094 -53.127122 
z
" style="stroke: #999999; stroke-width: 2"/>
    </defs>
    <g clip-path="url(#p5bd70517f7)">
     <use xlink:href="#mfb72ec3d21" x="0" y="255.11811" style="fill: #ffffff; stroke: #999999; stroke-width: 2"/>
    </g>
   </g>
   <g id="PolyCollection_4">
    <defs>
     <path id="mf1a2a1fcd5" d="M 277.167249 -49.837187 
L 270.568971 -49.837187 
L 270.504653 -50.733641 
L 270.441879 -51.630094 
L 270.37985 -52.526548 
L 270.317653 -53.423002 
L 270.254273 -54.319455 
L 270.188599 -55.215909 
L 270.119441 -56.112363 
L 270.045541 -57.008816 
L 269.965592 -57.90527 
L 269.878252 -58.801724 
L 269.782166 -59.698178 
L 269.675982 -60.594631 
L 269.558372 -61.491085 
L 269.428053 -62.387539 
L 269.283808 -63.283992 
L 269.124503 -64.180446 
L 268.949105 -65.0769 
L 268.756705 -65.973353 
L 268.546533 -66.869807 
L 268.31797 -67.766261 
L 268.07057 -68.662715 
L 267.804062 -69.559168 
L 267.51837 -70.455622 
L 267.213614 -71.352076 
L 266.890122 -72.248529 
L 266.548428 -73.144983 
L 266.189279 -74.041437 
L 265.81363 -74.937891 
L 265.422641 -75.834344 
L 265.017674 -76.730798 
L 264.600282 -77.627252 
L 264.172201 -78.523705 
L 263.735333 -79.420159 
L 263.291736 -80.316613 
L 262.843605 -81.213066 
L 262.39325 -82.10952 
L 261.943082 -83.005974 
L 261.495583 -83.902428 
L 261.053289 -84.798881 
L 260.61876 -85.695335 
L 260.194558 -86.591789 
L 259.783219 -87.488242 
L 259.387229 -88.384696 
L 259.008995 -89.28115 
L 258.650818 -90.177603 
L 258.314876 -91.074057 
L 258.003191 -91.970511 
L 257.717611 -92.866965 
L 257.459792 -93.763418 
L 257.231177 -94.659872 
L 257.032981 -95.556326 
L 256.866181 -96.452779 
L 256.731502 -97.349233 
L 256.629417 -98.245687 
L 256.560139 -99.142141 
L 256.523623 -100.038594 
L 256.519573 -100.935048 
L 256.547443 -101.831502 
L 256.606456 -102.727955 
L 256.695612 -103.624409 
L 256.813704 -104.520863 
L 256.959343 -105.417316 
L 257.130973 -106.31377 
L 257.326898 -107.210224 
L 257.545307 -108.106678 
L 257.784297 -109.003131 
L 258.041901 -109.899585 
L 258.316112 -110.796039 
L 258.604914 -111.692492 
L 258.906302 -112.588946 
L 259.218308 -113.4854 
L 259.539022 -114.381854 
L 259.866615 -115.278307 
L 260.199355 -116.174761 
L 260.535622 -117.071215 
L 260.873923 -117.967668 
L 261.212902 -118.864122 
L 261.551345 -119.760576 
L 261.888186 -120.657029 
L 262.222512 -121.553483 
L 262.553556 -122.449937 
L 262.880696 -123.346391 
L 263.203451 -124.242844 
L 263.52147 -125.139298 
L 263.834523 -126.035752 
L 264.142489 -126.932205 
L 264.445344 -127.828659 
L 264.743147 -128.725113 
L 265.036025 -129.621566 
L 265.324158 -130.51802 
L 265.607765 -131.414474 
L 265.88709 -132.310928 
L 266.162387 -133.207381 
L 266.433908 -134.103835 
L 266.701891 -135.000289 
L 266.966552 -135.896742 
L 267.228071 -136.793196 
L 267.486589 -137.68965 
L 267.742201 -138.586104 
L 279.99402 -138.586104 
L 279.99402 -138.586104 
L 280.249632 -137.68965 
L 280.50815 -136.793196 
L 280.769669 -135.896742 
L 281.034329 -135.000289 
L 281.302313 -134.103835 
L 281.573834 -133.207381 
L 281.84913 -132.310928 
L 282.128455 -131.414474 
L 282.412062 -130.51802 
L 282.700195 -129.621566 
L 282.993073 -128.725113 
L 283.290877 -127.828659 
L 283.593732 -126.932205 
L 283.901698 -126.035752 
L 284.214751 -125.139298 
L 284.532769 -124.242844 
L 284.855524 -123.346391 
L 285.182665 -122.449937 
L 285.513708 -121.553483 
L 285.848034 -120.657029 
L 286.184876 -119.760576 
L 286.523319 -118.864122 
L 286.862297 -117.967668 
L 287.200598 -117.071215 
L 287.536865 -116.174761 
L 287.869605 -115.278307 
L 288.197198 -114.381854 
L 288.517913 -113.4854 
L 288.829918 -112.588946 
L 289.131306 -111.692492 
L 289.420108 -110.796039 
L 289.69432 -109.899585 
L 289.951923 -109.003131 
L 290.190913 -108.106678 
L 290.409322 -107.210224 
L 290.605248 -106.31377 
L 290.776878 -105.417316 
L 290.922516 -104.520863 
L 291.040609 -103.624409 
L 291.129764 -102.727955 
L 291.188777 -101.831502 
L 291.216648 -100.935048 
L 291.212597 -100.038594 
L 291.176081 -99.142141 
L 291.106803 -98.245687 
L 291.004718 -97.349233 
L 290.87004 -96.452779 
L 290.703239 -95.556326 
L 290.505044 -94.659872 
L 290.276428 -93.763418 
L 290.01861 -92.866965 
L 289.73303 -91.970511 
L 289.421344 -91.074057 
L 289.085402 -90.177603 
L 288.727226 -89.28115 
L 288.348991 -88.384696 
L 287.953001 -87.488242 
L 287.541663 -86.591789 
L 287.117461 -85.695335 
L 286.682932 -84.798881 
L 286.240637 -83.902428 
L 285.793138 -83.005974 
L 285.34297 -82.10952 
L 284.892616 -81.213066 
L 284.444484 -80.316613 
L 284.000888 -79.420159 
L 283.56402 -78.523705 
L 283.135938 -77.627252 
L 282.718547 -76.730798 
L 282.31358 -75.834344 
L 281.922591 -74.937891 
L 281.546941 -74.041437 
L 281.187792 -73.144983 
L 280.846099 -72.248529 
L 280.522607 -71.352076 
L 280.217851 -70.455622 
L 279.932159 -69.559168 
L 279.665651 -68.662715 
L 279.41825 -67.766261 
L 279.189688 -66.869807 
L 278.979516 -65.973353 
L 278.787116 -65.0769 
L 278.611718 -64.180446 
L 278.452412 -63.283992 
L 278.308167 -62.387539 
L 278.177849 -61.491085 
L 278.060239 -60.594631 
L 277.954054 -59.698178 
L 277.857968 -58.801724 
L 277.770628 -57.90527 
L 277.690679 -57.008816 
L 277.616779 -56.112363 
L 277.547621 -55.215909 
L 277.481947 -54.319455 
L 277.418567 -53.423002 
L 277.356371 -52.526548 
L 277.294342 -51.630094 
L 277.231568 -50.733641 
L 277.167249 -49.837187 
z
" style="stroke: #999999; stroke-width: 2"/>
    </defs>
    <g clip-path="url(#p5bd70517f7)">
     <use xlink:href="#mf1a2a1fcd5" x="0" y="255.11811" style="fill: #ffffff; stroke: #999999; stroke-width: 2"/>
    </g>
   </g>
   <g id="PolyCollection_5">
    <defs>
     <path id="m0e70d88b91" d="M 347.211878 -143.113765 
L 330.037548 -143.113765 
L 329.827426 -143.837756 
L 329.619632 -144.561746 
L 329.41442 -145.285737 
L 329.212036 -146.009727 
L 329.012718 -146.733717 
L 328.816693 -147.457708 
L 328.62418 -148.181698 
L 328.435389 -148.905689 
L 328.250521 -149.629679 
L 328.069767 -150.353669 
L 327.893312 -151.07766 
L 327.721331 -151.80165 
L 327.553991 -152.525641 
L 327.391452 -153.249631 
L 327.233867 -153.973622 
L 327.081381 -154.697612 
L 326.934132 -155.421602 
L 326.792253 -156.145593 
L 326.65587 -156.869583 
L 326.525102 -157.593574 
L 326.400064 -158.317564 
L 326.280863 -159.041554 
L 326.167601 -159.765545 
L 326.060373 -160.489535 
L 325.959268 -161.213526 
L 325.864369 -161.937516 
L 325.775751 -162.661506 
L 325.693482 -163.385497 
L 325.617622 -164.109487 
L 325.548223 -164.833478 
L 325.485328 -165.557468 
L 325.42897 -166.281458 
L 325.379173 -167.005449 
L 325.33595 -167.729439 
L 325.299302 -168.45343 
L 325.26922 -169.17742 
L 325.24568 -169.90141 
L 325.22865 -170.625401 
L 325.21808 -171.349391 
L 325.213911 -172.073382 
L 325.216068 -172.797372 
L 325.224464 -173.521363 
L 325.238998 -174.245353 
L 325.259556 -174.969343 
L 325.286012 -175.693334 
L 325.318226 -176.417324 
L 325.356048 -177.141315 
L 325.399317 -177.865305 
L 325.447859 -178.589295 
L 325.501495 -179.313286 
L 325.560035 -180.037276 
L 325.623284 -180.761267 
L 325.691039 -181.485257 
L 325.763096 -182.209247 
L 325.839246 -182.933238 
L 325.91928 -183.657228 
L 326.002987 -184.381219 
L 326.090162 -185.105209 
L 326.1806 -185.829199 
L 326.274101 -186.55319 
L 326.370474 -187.27718 
L 326.469533 -188.001171 
L 326.571102 -188.725161 
L 326.675015 -189.449152 
L 326.781119 -190.173142 
L 326.88927 -190.897132 
L 326.999341 -191.621123 
L 327.111216 -192.345113 
L 327.224794 -193.069104 
L 327.339988 -193.793094 
L 327.456727 -194.517084 
L 327.574954 -195.241075 
L 327.694626 -195.965065 
L 327.815714 -196.689056 
L 327.938204 -197.413046 
L 328.062093 -198.137036 
L 328.18739 -198.861027 
L 328.314115 -199.585017 
L 328.442297 -200.309008 
L 328.571975 -201.032998 
L 328.703192 -201.756988 
L 328.835999 -202.480979 
L 328.97045 -203.204969 
L 329.106599 -203.92896 
L 329.244503 -204.65295 
L 329.384218 -205.37694 
L 329.525794 -206.100931 
L 329.669281 -206.824921 
L 329.814719 -207.548912 
L 329.962144 -208.272902 
L 330.11158 -208.996893 
L 330.263042 -209.720883 
L 330.416534 -210.444873 
L 330.572047 -211.168864 
L 330.72956 -211.892854 
L 330.889035 -212.616845 
L 331.050422 -213.340835 
L 331.213653 -214.064825 
L 331.378648 -214.788816 
L 345.870778 -214.788816 
L 345.870778 -214.788816 
L 346.035773 -214.064825 
L 346.199005 -213.340835 
L 346.360391 -212.616845 
L 346.519866 -211.892854 
L 346.677379 -211.168864 
L 346.832892 -210.444873 
L 346.986385 -209.720883 
L 347.137847 -208.996893 
L 347.287283 -208.272902 
L 347.434707 -207.548912 
L 347.580145 -206.824921 
L 347.723632 -206.100931 
L 347.865209 -205.37694 
L 348.004923 -204.65295 
L 348.142828 -203.92896 
L 348.278977 -203.204969 
L 348.413427 -202.480979 
L 348.546234 -201.756988 
L 348.677452 -201.032998 
L 348.807129 -200.309008 
L 348.935312 -199.585017 
L 349.062037 -198.861027 
L 349.187333 -198.137036 
L 349.311222 -197.413046 
L 349.433712 -196.689056 
L 349.554801 -195.965065 
L 349.674473 -195.241075 
L 349.792699 -194.517084 
L 349.909439 -193.793094 
L 350.024633 -193.069104 
L 350.13821 -192.345113 
L 350.250085 -191.621123 
L 350.360156 -190.897132 
L 350.468308 -190.173142 
L 350.574411 -189.449152 
L 350.678325 -188.725161 
L 350.779894 -188.001171 
L 350.878952 -187.27718 
L 350.975325 -186.55319 
L 351.068827 -185.829199 
L 351.159264 -185.105209 
L 351.246439 -184.381219 
L 351.330147 -183.657228 
L 351.41018 -182.933238 
L 351.48633 -182.209247 
L 351.558387 -181.485257 
L 351.626142 -180.761267 
L 351.689391 -180.037276 
L 351.747931 -179.313286 
L 351.801567 -178.589295 
L 351.85011 -177.865305 
L 351.893378 -177.141315 
L 351.9312 -176.417324 
L 351.963414 -175.693334 
L 351.98987 -174.969343 
L 352.010428 -174.245353 
L 352.024962 -173.521363 
L 352.033358 -172.797372 
L 352.035515 -172.073382 
L 352.031346 -171.349391 
L 352.020777 -170.625401 
L 352.003746 -169.90141 
L 351.980207 -169.17742 
L 351.950124 -168.45343 
L 351.913476 -167.729439 
L 351.870253 -167.005449 
L 351.820456 -166.281458 
L 351.764098 -165.557468 
L 351.701203 -164.833478 
L 351.631804 -164.109487 
L 351.555944 -163.385497 
L 351.473675 -162.661506 
L 351.385057 -161.937516 
L 351.290158 -161.213526 
L 351.189053 -160.489535 
L 351.081825 -159.765545 
L 350.968563 -159.041554 
L 350.849362 -158.317564 
L 350.724324 -157.593574 
L 350.593557 -156.869583 
L 350.457173 -156.145593 
L 350.315295 -155.421602 
L 350.168046 -154.697612 
L 350.015559 -153.973622 
L 349.857974 -153.249631 
L 349.695435 -152.525641 
L 349.528095 -151.80165 
L 349.356114 -151.07766 
L 349.179659 -150.353669 
L 348.998906 -149.629679 
L 348.814037 -148.905689 
L 348.625246 -148.181698 
L 348.432733 -147.457708 
L 348.236708 -146.733717 
L 348.03739 -146.009727 
L 347.835006 -145.285737 
L 347.629794 -144.561746 
L 347.422 -143.837756 
L 347.211878 -143.113765 
z
" style="stroke: #999999; stroke-width: 2"/>
    </defs>
    <g clip-path="url(#p5bd70517f7)">
     <use xlink:href="#m0e70d88b91" x="0" y="255.11811" style="fill: #ffffff; stroke: #999999; stroke-width: 2"/>
    </g>
   </g>
   <g id="PolyCollection_6">
    <defs>
     <path id="m8920f39f00" d="M 410.251678 -174.335281 
L 396.510955 -174.335281 
L 396.363813 -174.81857 
L 396.216567 -175.30186 
L 396.068394 -175.785149 
L 395.918397 -176.268438 
L 395.765611 -176.751728 
L 395.609017 -177.235017 
L 395.447548 -177.718306 
L 395.280108 -178.201595 
L 395.105585 -178.684885 
L 394.922863 -179.168174 
L 394.73084 -179.651463 
L 394.528444 -180.134753 
L 394.314647 -180.618042 
L 394.088482 -181.101331 
L 393.84906 -181.584621 
L 393.595579 -182.06791 
L 393.327347 -182.551199 
L 393.043785 -183.034489 
L 392.744446 -183.517778 
L 392.429021 -184.001067 
L 392.09735 -184.484357 
L 391.749426 -184.967646 
L 391.385403 -185.450935 
L 391.005596 -185.934225 
L 390.610484 -186.417514 
L 390.200705 -186.900803 
L 389.77706 -187.384093 
L 389.340499 -187.867382 
L 388.892121 -188.350671 
L 388.43316 -188.83396 
L 387.964979 -189.31725 
L 387.489052 -189.800539 
L 387.006956 -190.283828 
L 386.520354 -190.767118 
L 386.030979 -191.250407 
L 385.540619 -191.733696 
L 385.051097 -192.216986 
L 384.56426 -192.700275 
L 384.081957 -193.183564 
L 383.606024 -193.666854 
L 383.138268 -194.150143 
L 382.680453 -194.633432 
L 382.23428 -195.116722 
L 381.801381 -195.600011 
L 381.383302 -196.0833 
L 380.981493 -196.56659 
L 380.5973 -197.049879 
L 380.231955 -197.533168 
L 379.886571 -198.016458 
L 379.562139 -198.499747 
L 379.259524 -198.983036 
L 378.979461 -199.466325 
L 378.722561 -199.949615 
L 378.489309 -200.432904 
L 378.280067 -200.916193 
L 378.095084 -201.399483 
L 377.934493 -201.882772 
L 377.798327 -202.366061 
L 377.686519 -202.849351 
L 377.598917 -203.33264 
L 377.535288 -203.815929 
L 377.495328 -204.299219 
L 377.478675 -204.782508 
L 377.484914 -205.265797 
L 377.51359 -205.749087 
L 377.564212 -206.232376 
L 377.636268 -206.715665 
L 377.729227 -207.198955 
L 377.842551 -207.682244 
L 377.975698 -208.165533 
L 378.128128 -208.648823 
L 378.299311 -209.132112 
L 378.488725 -209.615401 
L 378.695865 -210.09869 
L 378.920241 -210.58198 
L 379.161379 -211.065269 
L 379.418821 -211.548558 
L 379.692127 -212.031848 
L 379.980867 -212.515137 
L 380.284626 -212.998426 
L 380.602995 -213.481716 
L 380.93557 -213.965005 
L 381.281947 -214.448294 
L 381.641717 -214.931584 
L 382.014465 -215.414873 
L 382.399759 -215.898162 
L 382.797152 -216.381452 
L 383.206171 -216.864741 
L 383.626319 -217.34803 
L 384.057067 -217.83132 
L 384.497851 -218.314609 
L 384.948072 -218.797898 
L 385.407089 -219.281188 
L 385.874222 -219.764477 
L 386.348748 -220.247766 
L 386.829905 -220.731055 
L 387.316886 -221.214345 
L 387.808849 -221.697634 
L 388.304912 -222.180923 
L 418.45772 -222.180923 
L 418.45772 -222.180923 
L 418.953783 -221.697634 
L 419.445746 -221.214345 
L 419.932728 -220.731055 
L 420.413884 -220.247766 
L 420.888411 -219.764477 
L 421.355543 -219.281188 
L 421.81456 -218.797898 
L 422.264781 -218.314609 
L 422.705565 -217.83132 
L 423.136313 -217.34803 
L 423.556461 -216.864741 
L 423.96548 -216.381452 
L 424.362873 -215.898162 
L 424.748167 -215.414873 
L 425.120915 -214.931584 
L 425.480685 -214.448294 
L 425.827062 -213.965005 
L 426.159637 -213.481716 
L 426.478006 -212.998426 
L 426.781765 -212.515137 
L 427.070505 -212.031848 
L 427.343811 -211.548558 
L 427.601253 -211.065269 
L 427.842391 -210.58198 
L 428.066767 -210.09869 
L 428.273907 -209.615401 
L 428.463322 -209.132112 
L 428.634504 -208.648823 
L 428.786934 -208.165533 
L 428.920081 -207.682244 
L 429.033405 -207.198955 
L 429.126364 -206.715665 
L 429.19842 -206.232376 
L 429.249043 -205.749087 
L 429.277718 -205.265797 
L 429.283957 -204.782508 
L 429.267304 -204.299219 
L 429.227345 -203.815929 
L 429.163715 -203.33264 
L 429.076113 -202.849351 
L 428.964305 -202.366061 
L 428.828139 -201.882772 
L 428.667548 -201.399483 
L 428.482565 -200.916193 
L 428.273324 -200.432904 
L 428.040071 -199.949615 
L 427.783171 -199.466325 
L 427.503108 -198.983036 
L 427.200493 -198.499747 
L 426.876061 -198.016458 
L 426.530677 -197.533168 
L 426.165332 -197.049879 
L 425.781139 -196.56659 
L 425.37933 -196.0833 
L 424.961251 -195.600011 
L 424.528352 -195.116722 
L 424.08218 -194.633432 
L 423.624364 -194.150143 
L 423.156608 -193.666854 
L 422.680675 -193.183564 
L 422.198372 -192.700275 
L 421.711535 -192.216986 
L 421.222013 -191.733696 
L 420.731653 -191.250407 
L 420.242278 -190.767118 
L 419.755676 -190.283828 
L 419.27358 -189.800539 
L 418.797653 -189.31725 
L 418.329472 -188.83396 
L 417.870511 -188.350671 
L 417.422133 -187.867382 
L 416.985572 -187.384093 
L 416.561927 -186.900803 
L 416.152149 -186.417514 
L 415.757036 -185.934225 
L 415.377229 -185.450935 
L 415.013206 -184.967646 
L 414.665282 -184.484357 
L 414.333611 -184.001067 
L 414.018186 -183.517778 
L 413.718847 -183.034489 
L 413.435285 -182.551199 
L 413.167053 -182.06791 
L 412.913573 -181.584621 
L 412.67415 -181.101331 
L 412.447986 -180.618042 
L 412.234189 -180.134753 
L 412.031792 -179.651463 
L 411.83977 -179.168174 
L 411.657047 -178.684885 
L 411.482524 -178.201595 
L 411.315085 -177.718306 
L 411.153616 -177.235017 
L 410.997021 -176.751728 
L 410.844236 -176.268438 
L 410.694239 -175.785149 
L 410.546065 -175.30186 
L 410.398819 -174.81857 
L 410.251678 -174.335281 
z
" style="stroke: #999999; stroke-width: 2"/>
    </defs>
    <g clip-path="url(#p5bd70517f7)">
     <use xlink:href="#m8920f39f00" x="0" y="255.11811" style="fill: #ffffff; stroke: #999999; stroke-width: 2"/>
    </g>
   </g>
   <g id="PolyCollection_7">
    <defs>
     <path id="m4272028598" d="M 474.439966 -105.2226 
L 461.835872 -105.2226 
L 461.639846 -106.146311 
L 461.445133 -107.070023 
L 461.252144 -107.993734 
L 461.061294 -108.917445 
L 460.872999 -109.841157 
L 460.687671 -110.764868 
L 460.505719 -111.688579 
L 460.327545 -112.61229 
L 460.153544 -113.536002 
L 459.984098 -114.459713 
L 459.819576 -115.383424 
L 459.660332 -116.307136 
L 459.5067 -117.230847 
L 459.358995 -118.154558 
L 459.217507 -119.078269 
L 459.082501 -120.001981 
L 458.954214 -120.925692 
L 458.832853 -121.849403 
L 458.718593 -122.773115 
L 458.611575 -123.696826 
L 458.511905 -124.620537 
L 458.419651 -125.544248 
L 458.334846 -126.46796 
L 458.257481 -127.391671 
L 458.187513 -128.315382 
L 458.124855 -129.239094 
L 458.069387 -130.162805 
L 458.020946 -131.086516 
L 457.979338 -132.010228 
L 457.944331 -132.933939 
L 457.915659 -133.85765 
L 457.89303 -134.781361 
L 457.876118 -135.705073 
L 457.864577 -136.628784 
L 457.858038 -137.552495 
L 457.856111 -138.476207 
L 457.858396 -139.399918 
L 457.864481 -140.323629 
L 457.873947 -141.24734 
L 457.886373 -142.171052 
L 457.901344 -143.094763 
L 457.918447 -144.018474 
L 457.937285 -144.942186 
L 457.957471 -145.865897 
L 457.978642 -146.789608 
L 458.000455 -147.713319 
L 458.022596 -148.637031 
L 458.04478 -149.560742 
L 458.066754 -150.484453 
L 458.088302 -151.408165 
L 458.109245 -152.331876 
L 458.129442 -153.255587 
L 458.148794 -154.179298 
L 458.167244 -155.10301 
L 458.184776 -156.026721 
L 458.201415 -156.950432 
L 458.217228 -157.874144 
L 458.232322 -158.797855 
L 458.246843 -159.721566 
L 458.260972 -160.645277 
L 458.274926 -161.568989 
L 458.288954 -162.4927 
L 458.303333 -163.416411 
L 458.318368 -164.340123 
L 458.334384 -165.263834 
L 458.351725 -166.187545 
L 458.370751 -167.111256 
L 458.391832 -168.034968 
L 458.415347 -168.958679 
L 458.441675 -169.88239 
L 458.471197 -170.806102 
L 458.504287 -171.729813 
L 458.541311 -172.653524 
L 458.582624 -173.577235 
L 458.628564 -174.500947 
L 458.67945 -175.424658 
L 458.735577 -176.348369 
L 458.797218 -177.272081 
L 458.864617 -178.195792 
L 458.937986 -179.119503 
L 459.017509 -180.043214 
L 459.103333 -180.966926 
L 459.19557 -181.890637 
L 459.294299 -182.814348 
L 459.399558 -183.73806 
L 459.511352 -184.661771 
L 459.629644 -185.585482 
L 459.754364 -186.509194 
L 459.885403 -187.432905 
L 460.022617 -188.356616 
L 460.165826 -189.280327 
L 460.314819 -190.204039 
L 460.469351 -191.12775 
L 460.629147 -192.051461 
L 460.793904 -192.975173 
L 460.963295 -193.898884 
L 461.136965 -194.822595 
L 461.314541 -195.746306 
L 461.495631 -196.670018 
L 474.780207 -196.670018 
L 474.780207 -196.670018 
L 474.961297 -195.746306 
L 475.138873 -194.822595 
L 475.312543 -193.898884 
L 475.481934 -192.975173 
L 475.646691 -192.051461 
L 475.806487 -191.12775 
L 475.961019 -190.204039 
L 476.110012 -189.280327 
L 476.253221 -188.356616 
L 476.390435 -187.432905 
L 476.521474 -186.509194 
L 476.646194 -185.585482 
L 476.764486 -184.661771 
L 476.87628 -183.73806 
L 476.981539 -182.814348 
L 477.080268 -181.890637 
L 477.172505 -180.966926 
L 477.258329 -180.043214 
L 477.337852 -179.119503 
L 477.411221 -178.195792 
L 477.47862 -177.272081 
L 477.540261 -176.348369 
L 477.596388 -175.424658 
L 477.647274 -174.500947 
L 477.693214 -173.577235 
L 477.734527 -172.653524 
L 477.771551 -171.729813 
L 477.804641 -170.806102 
L 477.834163 -169.88239 
L 477.860491 -168.958679 
L 477.884006 -168.034968 
L 477.905087 -167.111256 
L 477.924113 -166.187545 
L 477.941454 -165.263834 
L 477.95747 -164.340123 
L 477.972505 -163.416411 
L 477.986884 -162.4927 
L 478.000912 -161.568989 
L 478.014866 -160.645277 
L 478.028995 -159.721566 
L 478.043516 -158.797855 
L 478.05861 -157.874144 
L 478.074423 -156.950432 
L 478.091062 -156.026721 
L 478.108594 -155.10301 
L 478.127044 -154.179298 
L 478.146396 -153.255587 
L 478.166593 -152.331876 
L 478.187536 -151.408165 
L 478.209084 -150.484453 
L 478.231058 -149.560742 
L 478.253242 -148.637031 
L 478.275383 -147.713319 
L 478.297196 -146.789608 
L 478.318367 -145.865897 
L 478.338553 -144.942186 
L 478.357391 -144.018474 
L 478.374494 -143.094763 
L 478.389465 -142.171052 
L 478.401891 -141.24734 
L 478.411357 -140.323629 
L 478.417442 -139.399918 
L 478.419727 -138.476207 
L 478.4178 -137.552495 
L 478.411261 -136.628784 
L 478.39972 -135.705073 
L 478.382808 -134.781361 
L 478.360179 -133.85765 
L 478.331507 -132.933939 
L 478.2965 -132.010228 
L 478.254892 -131.086516 
L 478.206451 -130.162805 
L 478.150983 -129.239094 
L 478.088325 -128.315382 
L 478.018357 -127.391671 
L 477.940992 -126.46796 
L 477.856187 -125.544248 
L 477.763933 -124.620537 
L 477.664263 -123.696826 
L 477.557245 -122.773115 
L 477.442985 -121.849403 
L 477.321624 -120.925692 
L 477.193337 -120.001981 
L 477.058331 -119.078269 
L 476.916843 -118.154558 
L 476.769138 -117.230847 
L 476.615506 -116.307136 
L 476.456262 -115.383424 
L 476.29174 -114.459713 
L 476.122294 -113.536002 
L 475.948293 -112.61229 
L 475.770119 -111.688579 
L 475.588167 -110.764868 
L 475.402839 -109.841157 
L 475.214544 -108.917445 
L 475.023694 -107.993734 
L 474.830705 -107.070023 
L 474.635992 -106.146311 
L 474.439966 -105.2226 
z
" style="stroke: #999999; stroke-width: 2"/>
    </defs>
    <g clip-path="url(#p5bd70517f7)">
     <use xlink:href="#m4272028598" x="0" y="255.11811" style="fill: #ffffff; stroke: #999999; stroke-width: 2"/>
    </g>
   </g>
   <g id="PathCollection_1"/>
   <g id="PathCollection_2"/>
   <g id="patch_3">
    <path d="M 47.22 213.89811 
L 47.22 24.32 
" style="fill: none; stroke: #262626; stroke-width: 1.25; stroke-linejoin: miter; stroke-linecap: square"/>
   </g>
   <g id="patch_4">
    <path d="M 47.22 213.89811 
L 500.51622 213.89811 
" style="fill: none; stroke: #262626; stroke-width: 1.25; stroke-linejoin: miter; stroke-linecap: square"/>
   </g>
   <g id="PathCollection_3">
    <defs>
     <path id="C0_0_60b947b62d" d="M 0 2.5 
C 0.663008 2.5 1.29895 2.236584 1.767767 1.767767 
C 2.236584 1.29895 2.5 0.663008 2.5 -0 
C 2.5 -0.663008 2.236584 -1.29895 1.767767 -1.767767 
C 1.29895 -2.236584 0.663008 -2.5 0 -2.5 
C -0.663008 -2.5 -1.29895 -2.236584 -1.767767 -1.767767 
C -2.236584 -1.29895 -2.5 -0.663008 -2.5 0 
C -2.5 0.663008 -2.236584 1.29895 -1.767767 1.767767 
C -1.29895 2.236584 -0.663008 2.5 0 2.5 
z
"/>
    </defs>
    <g clip-path="url(#p5bd70517f7)">
     <use xlink:href="#C0_0_60b947b62d" x="77.468388" y="167.194614" style="fill: #4c72b0; fill-opacity: 0.75"/>
    </g>
    <g clip-path="url(#p5bd70517f7)">
     <use xlink:href="#C0_0_60b947b62d" x="74.480808" y="159.216805" style="fill: #4c72b0; fill-opacity: 0.75"/>
    </g>
    <g clip-path="url(#p5bd70517f7)">
     <use xlink:href="#C0_0_60b947b62d" x="84.619743" y="149.017664" style="fill: #4c72b0; fill-opacity: 0.75"/>
    </g>
    <g clip-path="url(#p5bd70517f7)">
     <use xlink:href="#C0_0_60b947b62d" x="79.109716" y="122.365868" style="fill: #4c72b0; fill-opacity: 0.75"/>
    </g>
    <g clip-path="url(#p5bd70517f7)">
     <use xlink:href="#C0_0_60b947b62d" x="78.109306" y="136.942532" style="fill: #dd8452; fill-opacity: 0.75"/>
    </g>
    <g clip-path="url(#p5bd70517f7)">
     <use xlink:href="#C0_0_60b947b62d" x="78.274075" y="165.619723" style="fill: #dd8452; fill-opacity: 0.75"/>
    </g>
    <g clip-path="url(#p5bd70517f7)">
     <use xlink:href="#C0_0_60b947b62d" x="77.699911" y="164.616283" style="fill: #dd8452; fill-opacity: 0.75"/>
    </g>
    <g clip-path="url(#p5bd70517f7)">
     <use xlink:href="#C0_0_60b947b62d" x="74.398995" y="172.027584" style="fill: #dd8452; fill-opacity: 0.75"/>
    </g>
   </g>
   <g id="PathCollection_4">
    <defs>
     <path id="C1_0_a3f01a42cd" d="M 0 2.5 
C 0.663008 2.5 1.29895 2.236584 1.767767 1.767767 
C 2.236584 1.29895 2.5 0.663008 2.5 -0 
C 2.5 -0.663008 2.236584 -1.29895 1.767767 -1.767767 
C 1.29895 -2.236584 0.663008 -2.5 0 -2.5 
C -0.663008 -2.5 -1.29895 -2.236584 -1.767767 -1.767767 
C -2.236584 -1.29895 -2.5 -0.663008 -2.5 0 
C -2.5 0.663008 -2.236584 1.29895 -1.767767 1.767767 
C -1.29895 2.236584 -0.663008 2.5 0 2.5 
z
"/>
    </defs>
    <g clip-path="url(#p5bd70517f7)">
     <use xlink:href="#C1_0_a3f01a42cd" x="138.6539" y="33.657654" style="fill: #4c72b0; fill-opacity: 0.75"/>
    </g>
    <g clip-path="url(#p5bd70517f7)">
     <use xlink:href="#C1_0_a3f01a42cd" x="145.000234" y="57.191254" style="fill: #4c72b0; fill-opacity: 0.75"/>
    </g>
    <g clip-path="url(#p5bd70517f7)">
     <use xlink:href="#C1_0_a3f01a42cd" x="145.308988" y="46.122825" style="fill: #4c72b0; fill-opacity: 0.75"/>
    </g>
    <g clip-path="url(#p5bd70517f7)">
     <use xlink:href="#C1_0_a3f01a42cd" x="146.046587" y="67.968759" style="fill: #4c72b0; fill-opacity: 0.75"/>
    </g>
    <g clip-path="url(#p5bd70517f7)">
     <use xlink:href="#C1_0_a3f01a42cd" x="150.225296" y="88.108258" style="fill: #dd8452; fill-opacity: 0.75"/>
    </g>
    <g clip-path="url(#p5bd70517f7)">
     <use xlink:href="#C1_0_a3f01a42cd" x="142.36013" y="81.177341" style="fill: #dd8452; fill-opacity: 0.75"/>
    </g>
    <g clip-path="url(#p5bd70517f7)">
     <use xlink:href="#C1_0_a3f01a42cd" x="147.723942" y="98.722332" style="fill: #dd8452; fill-opacity: 0.75"/>
    </g>
    <g clip-path="url(#p5bd70517f7)">
     <use xlink:href="#C1_0_a3f01a42cd" x="144.954506" y="112.310399" style="fill: #dd8452; fill-opacity: 0.75"/>
    </g>
   </g>
   <g id="PathCollection_5">
    <defs>
     <path id="C2_0_09bfe259cf" d="M 0 2.5 
C 0.663008 2.5 1.29895 2.236584 1.767767 1.767767 
C 2.236584 1.29895 2.5 0.663008 2.5 -0 
C 2.5 -0.663008 2.236584 -1.29895 1.767767 -1.767767 
C 1.29895 -2.236584 0.663008 -2.5 0 -2.5 
C -0.663008 -2.5 -1.29895 -2.236584 -1.767767 -1.767767 
C -2.236584 -1.29895 -2.5 -0.663008 -2.5 0 
C -2.5 0.663008 -2.236584 1.29895 -1.767767 1.767767 
C -1.29895 2.236584 -0.663008 2.5 0 2.5 
z
"/>
    </defs>
    <g clip-path="url(#p5bd70517f7)">
     <use xlink:href="#C2_0_09bfe259cf" x="212.383604" y="131.750105" style="fill: #4c72b0; fill-opacity: 0.75"/>
    </g>
    <g clip-path="url(#p5bd70517f7)">
     <use xlink:href="#C2_0_09bfe259cf" x="213.218465" y="171.982984" style="fill: #4c72b0; fill-opacity: 0.75"/>
    </g>
    <g clip-path="url(#p5bd70517f7)">
     <use xlink:href="#C2_0_09bfe259cf" x="209.090965" y="154.333778" style="fill: #4c72b0; fill-opacity: 0.75"/>
    </g>
    <g clip-path="url(#p5bd70517f7)">
     <use xlink:href="#C2_0_09bfe259cf" x="204.010189" y="201.990988" style="fill: #4c72b0; fill-opacity: 0.75"/>
    </g>
    <g clip-path="url(#p5bd70517f7)">
     <use xlink:href="#C2_0_09bfe259cf" x="203.507631" y="188.187401" style="fill: #dd8452; fill-opacity: 0.75"/>
    </g>
    <g clip-path="url(#p5bd70517f7)">
     <use xlink:href="#C2_0_09bfe259cf" x="205.834629" y="180.95959" style="fill: #dd8452; fill-opacity: 0.75"/>
    </g>
    <g clip-path="url(#p5bd70517f7)">
     <use xlink:href="#C2_0_09bfe259cf" x="211.132998" y="167.048112" style="fill: #dd8452; fill-opacity: 0.75"/>
    </g>
    <g clip-path="url(#p5bd70517f7)">
     <use xlink:href="#C2_0_09bfe259cf" x="211.763078" y="125.354039" style="fill: #dd8452; fill-opacity: 0.75"/>
    </g>
   </g>
   <g id="PathCollection_6">
    <defs>
     <path id="C3_0_5094d7a787" d="M 0 2.5 
C 0.663008 2.5 1.29895 2.236584 1.767767 1.767767 
C 2.236584 1.29895 2.5 0.663008 2.5 -0 
C 2.5 -0.663008 2.236584 -1.29895 1.767767 -1.767767 
C 1.29895 -2.236584 0.663008 -2.5 0 -2.5 
C -0.663008 -2.5 -1.29895 -2.236584 -1.767767 -1.767767 
C -2.236584 -1.29895 -2.5 -0.663008 -2.5 0 
C -2.5 0.663008 -2.236584 1.29895 -1.767767 1.767767 
C -1.29895 2.236584 -0.663008 2.5 0 2.5 
z
"/>
    </defs>
    <g clip-path="url(#p5bd70517f7)">
     <use xlink:href="#C3_0_5094d7a787" x="274.794408" y="160.121647" style="fill: #4c72b0; fill-opacity: 0.75"/>
    </g>
    <g clip-path="url(#p5bd70517f7)">
     <use xlink:href="#C3_0_5094d7a787" x="267.904447" y="116.532007" style="fill: #4c72b0; fill-opacity: 0.75"/>
    </g>
    <g clip-path="url(#p5bd70517f7)">
     <use xlink:href="#C3_0_5094d7a787" x="270.495887" y="154.851753" style="fill: #4c72b0; fill-opacity: 0.75"/>
    </g>
    <g clip-path="url(#p5bd70517f7)">
     <use xlink:href="#C3_0_5094d7a787" x="268.157139" y="173.974454" style="fill: #4c72b0; fill-opacity: 0.75"/>
    </g>
    <g clip-path="url(#p5bd70517f7)">
     <use xlink:href="#C3_0_5094d7a787" x="280.312693" y="142.198124" style="fill: #4c72b0; fill-opacity: 0.75"/>
    </g>
    <g clip-path="url(#p5bd70517f7)">
     <use xlink:href="#C3_0_5094d7a787" x="269.877267" y="155.922518" style="fill: #dd8452; fill-opacity: 0.75"/>
    </g>
    <g clip-path="url(#p5bd70517f7)">
     <use xlink:href="#C3_0_5094d7a787" x="273.89252" y="205.280923" style="fill: #dd8452; fill-opacity: 0.75"/>
    </g>
    <g clip-path="url(#p5bd70517f7)">
     <use xlink:href="#C3_0_5094d7a787" x="272.418645" y="163.45738" style="fill: #dd8452; fill-opacity: 0.75"/>
    </g>
    <g clip-path="url(#p5bd70517f7)">
     <use xlink:href="#C3_0_5094d7a787" x="269.587776" y="129.551733" style="fill: #dd8452; fill-opacity: 0.75"/>
    </g>
    <g clip-path="url(#p5bd70517f7)">
     <use xlink:href="#C3_0_5094d7a787" x="278.588621" y="147.829377" style="fill: #dd8452; fill-opacity: 0.75"/>
    </g>
   </g>
   <g id="PathCollection_7">
    <defs>
     <path id="C4_0_2500ef78e6" d="M 0 2.5 
C 0.663008 2.5 1.29895 2.236584 1.767767 1.767767 
C 2.236584 1.29895 2.5 0.663008 2.5 -0 
C 2.5 -0.663008 2.236584 -1.29895 1.767767 -1.767767 
C 1.29895 -2.236584 0.663008 -2.5 0 -2.5 
C -0.663008 -2.5 -1.29895 -2.236584 -1.767767 -1.767767 
C -2.236584 -1.29895 -2.5 -0.663008 -2.5 0 
C -2.5 0.663008 -2.236584 1.29895 -1.767767 1.767767 
C -1.29895 2.236584 -0.663008 2.5 0 2.5 
z
"/>
    </defs>
    <g clip-path="url(#p5bd70517f7)">
     <use xlink:href="#C4_0_2500ef78e6" x="340.040222" y="97.911082" style="fill: #4c72b0; fill-opacity: 0.75"/>
    </g>
    <g clip-path="url(#p5bd70517f7)">
     <use xlink:href="#C4_0_2500ef78e6" x="334.842062" y="82.221175" style="fill: #4c72b0; fill-opacity: 0.75"/>
    </g>
    <g clip-path="url(#p5bd70517f7)">
     <use xlink:href="#C4_0_2500ef78e6" x="344.025556" y="112.004345" style="fill: #4c72b0; fill-opacity: 0.75"/>
    </g>
    <g clip-path="url(#p5bd70517f7)">
     <use xlink:href="#C4_0_2500ef78e6" x="332.507712" y="77.041508" style="fill: #dd8452; fill-opacity: 0.75"/>
    </g>
    <g clip-path="url(#p5bd70517f7)">
     <use xlink:href="#C4_0_2500ef78e6" x="335.526305" y="57.957379" style="fill: #dd8452; fill-opacity: 0.75"/>
    </g>
    <g clip-path="url(#p5bd70517f7)">
     <use xlink:href="#C4_0_2500ef78e6" x="345.089437" y="40.329294" style="fill: #dd8452; fill-opacity: 0.75"/>
    </g>
   </g>
   <g id="PathCollection_8">
    <defs>
     <path id="C5_0_1134370862" d="M 0 2.5 
C 0.663008 2.5 1.29895 2.236584 1.767767 1.767767 
C 2.236584 1.29895 2.5 0.663008 2.5 -0 
C 2.5 -0.663008 2.236584 -1.29895 1.767767 -1.767767 
C 1.29895 -2.236584 0.663008 -2.5 0 -2.5 
C -0.663008 -2.5 -1.29895 -2.236584 -1.767767 -1.767767 
C -2.236584 -1.29895 -2.5 -0.663008 -2.5 0 
C -2.5 0.663008 -2.236584 1.29895 -1.767767 1.767767 
C -1.29895 2.236584 -0.663008 2.5 0 2.5 
z
"/>
    </defs>
    <g clip-path="url(#p5bd70517f7)">
     <use xlink:href="#C5_0_1134370862" x="409.469682" y="32.937187" style="fill: #4c72b0; fill-opacity: 0.75"/>
    </g>
    <g clip-path="url(#p5bd70517f7)">
     <use xlink:href="#C5_0_1134370862" x="399.781646" y="61.999596" style="fill: #4c72b0; fill-opacity: 0.75"/>
    </g>
    <g clip-path="url(#p5bd70517f7)">
     <use xlink:href="#C5_0_1134370862" x="405.189634" y="55.145808" style="fill: #4c72b0; fill-opacity: 0.75"/>
    </g>
    <g clip-path="url(#p5bd70517f7)">
     <use xlink:href="#C5_0_1134370862" x="409.489132" y="38.608402" style="fill: #4c72b0; fill-opacity: 0.75"/>
    </g>
    <g clip-path="url(#p5bd70517f7)">
     <use xlink:href="#C5_0_1134370862" x="406.256645" y="44.710218" style="fill: #dd8452; fill-opacity: 0.75"/>
    </g>
    <g clip-path="url(#p5bd70517f7)">
     <use xlink:href="#C5_0_1134370862" x="399.544623" y="80.782829" style="fill: #dd8452; fill-opacity: 0.75"/>
    </g>
    <g clip-path="url(#p5bd70517f7)">
     <use xlink:href="#C5_0_1134370862" x="407.203153" y="56.864155" style="fill: #dd8452; fill-opacity: 0.75"/>
    </g>
    <g clip-path="url(#p5bd70517f7)">
     <use xlink:href="#C5_0_1134370862" x="400.641954" y="48.796869" style="fill: #dd8452; fill-opacity: 0.75"/>
    </g>
   </g>
   <g id="PathCollection_9">
    <defs>
     <path id="C6_0_d801996ebb" d="M 0 2.5 
C 0.663008 2.5 1.29895 2.236584 1.767767 1.767767 
C 2.236584 1.29895 2.5 0.663008 2.5 -0 
C 2.5 -0.663008 2.236584 -1.29895 1.767767 -1.767767 
C 1.29895 -2.236584 0.663008 -2.5 0 -2.5 
C -0.663008 -2.5 -1.29895 -2.236584 -1.767767 -1.767767 
C -2.236584 -1.29895 -2.5 -0.663008 -2.5 0 
C -2.5 0.663008 -2.236584 1.29895 -1.767767 1.767767 
C -1.29895 2.236584 -0.663008 2.5 0 2.5 
z
"/>
    </defs>
    <g clip-path="url(#p5bd70517f7)">
     <use xlink:href="#C6_0_d801996ebb" x="466.835733" y="58.448093" style="fill: #4c72b0; fill-opacity: 0.75"/>
    </g>
    <g clip-path="url(#p5bd70517f7)">
     <use xlink:href="#C6_0_d801996ebb" x="464.433554" y="72.552263" style="fill: #4c72b0; fill-opacity: 0.75"/>
    </g>
    <g clip-path="url(#p5bd70517f7)">
     <use xlink:href="#C6_0_d801996ebb" x="470.436329" y="81.931088" style="fill: #4c72b0; fill-opacity: 0.75"/>
    </g>
    <g clip-path="url(#p5bd70517f7)">
     <use xlink:href="#C6_0_d801996ebb" x="473.37044" y="95.051121" style="fill: #4c72b0; fill-opacity: 0.75"/>
    </g>
    <g clip-path="url(#p5bd70517f7)">
     <use xlink:href="#C6_0_d801996ebb" x="464.806312" y="131.502038" style="fill: #dd8452; fill-opacity: 0.75"/>
    </g>
    <g clip-path="url(#p5bd70517f7)">
     <use xlink:href="#C6_0_d801996ebb" x="462.565623" y="149.89551" style="fill: #dd8452; fill-opacity: 0.75"/>
    </g>
    <g clip-path="url(#p5bd70517f7)">
     <use xlink:href="#C6_0_d801996ebb" x="467.801086" y="122.657158" style="fill: #dd8452; fill-opacity: 0.75"/>
    </g>
    <g clip-path="url(#p5bd70517f7)">
     <use xlink:href="#C6_0_d801996ebb" x="472.918794" y="117.35589" style="fill: #dd8452; fill-opacity: 0.75"/>
    </g>
   </g>
   <g id="text_18">
    <!-- LARP4B, $p_{adj}$ &lt; .001 *** -->
    <g style="fill: #262626" transform="translate(47.22 18.32)scale(0.09 -0.09)">
     <defs>
      <path id="ArialMT-4c" d="M 469 0 
L 469 4581 
L 1075 4581 
L 1075 541 
L 3331 541 
L 3331 0 
L 469 0 
z
" transform="scale(0.015625)"/>
      <path id="ArialMT-41" d="M -9 0 
L 1750 4581 
L 2403 4581 
L 4278 0 
L 3588 0 
L 3053 1388 
L 1138 1388 
L 634 0 
L -9 0 
z
M 1313 1881 
L 2866 1881 
L 2388 3150 
Q 2169 3728 2063 4100 
Q 1975 3659 1816 3225 
L 1313 1881 
z
" transform="scale(0.015625)"/>
      <path id="ArialMT-52" d="M 503 0 
L 503 4581 
L 2534 4581 
Q 3147 4581 3465 4457 
Q 3784 4334 3975 4021 
Q 4166 3709 4166 3331 
Q 4166 2844 3850 2509 
Q 3534 2175 2875 2084 
Q 3116 1969 3241 1856 
Q 3506 1613 3744 1247 
L 4541 0 
L 3778 0 
L 3172 953 
Q 2906 1366 2734 1584 
Q 2563 1803 2427 1890 
Q 2291 1978 2150 2013 
Q 2047 2034 1813 2034 
L 1109 2034 
L 1109 0 
L 503 0 
z
M 1109 2559 
L 2413 2559 
Q 2828 2559 3062 2645 
Q 3297 2731 3419 2920 
Q 3541 3109 3541 3331 
Q 3541 3656 3305 3865 
Q 3069 4075 2559 4075 
L 1109 4075 
L 1109 2559 
z
" transform="scale(0.015625)"/>
      <path id="ArialMT-42" d="M 469 0 
L 469 4581 
L 2188 4581 
Q 2713 4581 3030 4442 
Q 3347 4303 3526 4014 
Q 3706 3725 3706 3409 
Q 3706 3116 3547 2856 
Q 3388 2597 3066 2438 
Q 3481 2316 3704 2022 
Q 3928 1728 3928 1328 
Q 3928 1006 3792 729 
Q 3656 453 3456 303 
Q 3256 153 2954 76 
Q 2653 0 2216 0 
L 469 0 
z
M 1075 2656 
L 2066 2656 
Q 2469 2656 2644 2709 
Q 2875 2778 2992 2937 
Q 3109 3097 3109 3338 
Q 3109 3566 3000 3739 
Q 2891 3913 2687 3977 
Q 2484 4041 1991 4041 
L 1075 4041 
L 1075 2656 
z
M 1075 541 
L 2216 541 
Q 2509 541 2628 563 
Q 2838 600 2978 687 
Q 3119 775 3209 942 
Q 3300 1109 3300 1328 
Q 3300 1584 3169 1773 
Q 3038 1963 2805 2039 
Q 2572 2116 2134 2116 
L 1075 2116 
L 1075 541 
z
" transform="scale(0.015625)"/>
      <path id="ArialMT-2c" d="M 569 0 
L 569 641 
L 1209 641 
L 1209 0 
Q 1209 -353 1084 -570 
Q 959 -788 688 -906 
L 531 -666 
Q 709 -588 793 -436 
Q 878 -284 888 0 
L 569 0 
z
" transform="scale(0.015625)"/>
      <path id="DejaVuSans-Oblique-70" d="M 3175 2156 
Q 3175 2616 2975 2859 
Q 2775 3103 2400 3103 
Q 2144 3103 1911 2972 
Q 1678 2841 1497 2591 
Q 1319 2344 1212 1994 
Q 1106 1644 1106 1300 
Q 1106 863 1306 627 
Q 1506 391 1875 391 
Q 2147 391 2380 519 
Q 2613 647 2778 891 
Q 2956 1147 3065 1494 
Q 3175 1841 3175 2156 
z
M 1394 2969 
Q 1625 3272 1939 3428 
Q 2253 3584 2638 3584 
Q 3175 3584 3472 3232 
Q 3769 2881 3769 2247 
Q 3769 1728 3584 1258 
Q 3400 788 3053 416 
Q 2822 169 2531 39 
Q 2241 -91 1919 -91 
Q 1547 -91 1294 64 
Q 1041 219 916 525 
L 556 -1331 
L -19 -1331 
L 922 3500 
L 1497 3500 
L 1394 2969 
z
" transform="scale(0.015625)"/>
      <path id="DejaVuSans-Oblique-61" d="M 3438 1997 
L 3047 0 
L 2472 0 
L 2578 531 
Q 2325 219 2001 64 
Q 1678 -91 1281 -91 
Q 834 -91 548 182 
Q 263 456 263 884 
Q 263 1497 752 1853 
Q 1241 2209 2100 2209 
L 2900 2209 
L 2931 2363 
Q 2938 2388 2941 2417 
Q 2944 2447 2944 2509 
Q 2944 2788 2717 2942 
Q 2491 3097 2081 3097 
Q 1800 3097 1504 3025 
Q 1209 2953 897 2809 
L 997 3341 
Q 1322 3463 1633 3523 
Q 1944 3584 2234 3584 
Q 2853 3584 3176 3315 
Q 3500 3047 3500 2534 
Q 3500 2431 3484 2292 
Q 3469 2153 3438 1997 
z
M 2816 1759 
L 2241 1759 
Q 1534 1759 1195 1570 
Q 856 1381 856 984 
Q 856 709 1029 553 
Q 1203 397 1509 397 
Q 1978 397 2328 733 
Q 2678 1069 2791 1631 
L 2816 1759 
z
" transform="scale(0.015625)"/>
      <path id="DejaVuSans-Oblique-64" d="M 2675 525 
Q 2444 222 2128 65 
Q 1813 -91 1428 -91 
Q 903 -91 598 267 
Q 294 625 294 1247 
Q 294 1766 478 2236 
Q 663 2706 1013 3078 
Q 1244 3325 1534 3454 
Q 1825 3584 2144 3584 
Q 2481 3584 2739 3421 
Q 2997 3259 3138 2956 
L 3513 4863 
L 4091 4863 
L 3144 0 
L 2566 0 
L 2675 525 
z
M 891 1350 
Q 891 897 1095 644 
Q 1300 391 1663 391 
Q 1931 391 2161 520 
Q 2391 650 2566 903 
Q 2750 1166 2856 1509 
Q 2963 1853 2963 2188 
Q 2963 2622 2758 2865 
Q 2553 3109 2194 3109 
Q 1922 3109 1687 2981 
Q 1453 2853 1288 2613 
Q 1106 2353 998 2009 
Q 891 1666 891 1350 
z
" transform="scale(0.015625)"/>
      <path id="DejaVuSans-Oblique-6a" d="M 928 3500 
L 1503 3500 
L 813 -63 
L 809 -78 
Q 694 -675 544 -897 
Q 403 -1106 132 -1218 
Q -138 -1331 -506 -1331 
L -722 -1331 
L -628 -844 
L -481 -844 
Q -144 -844 -1 -703 
Q 141 -563 238 -63 
L 928 3500 
z
M 1197 4863 
L 1772 4863 
L 1631 4134 
L 1056 4134 
L 1197 4863 
z
" transform="scale(0.015625)"/>
      <path id="ArialMT-3c" d="M 350 2003 
L 350 2528 
L 3384 3809 
L 3384 3250 
L 978 2263 
L 3384 1266 
L 3384 706 
L 350 2003 
z
" transform="scale(0.015625)"/>
      <path id="ArialMT-2e" d="M 581 0 
L 581 641 
L 1222 641 
L 1222 0 
L 581 0 
z
" transform="scale(0.015625)"/>
      <path id="ArialMT-2a" d="M 200 3741 
L 344 4184 
Q 841 4009 1066 3881 
Q 1006 4447 1003 4659 
L 1456 4659 
Q 1447 4350 1384 3884 
Q 1706 4047 2122 4184 
L 2266 3741 
Q 1869 3609 1488 3566 
Q 1678 3400 2025 2975 
L 1650 2709 
Q 1469 2956 1222 3381 
Q 991 2941 816 2709 
L 447 2975 
Q 809 3422 966 3566 
Q 563 3644 200 3741 
z
" transform="scale(0.015625)"/>
     </defs>
     <use xlink:href="#ArialMT-4c" transform="translate(0 0.203125)"/>
     <use xlink:href="#ArialMT-41" transform="translate(55.615234 0.203125)"/>
     <use xlink:href="#ArialMT-52" transform="translate(122.314453 0.203125)"/>
     <use xlink:href="#ArialMT-50" transform="translate(194.53125 0.203125)"/>
     <use xlink:href="#ArialMT-34" transform="translate(261.230469 0.203125)"/>
     <use xlink:href="#ArialMT-42" transform="translate(316.845703 0.203125)"/>
     <use xlink:href="#ArialMT-2c" transform="translate(383.544922 0.203125)"/>
     <use xlink:href="#ArialMT-20" transform="translate(411.328125 0.203125)"/>
     <use xlink:href="#DejaVuSans-Oblique-70" transform="translate(439.111328 0.203125)"/>
     <use xlink:href="#DejaVuSans-Oblique-61" transform="translate(502.587891 -16.203125)scale(0.7)"/>
     <use xlink:href="#DejaVuSans-Oblique-64" transform="translate(545.483398 -16.203125)scale(0.7)"/>
     <use xlink:href="#DejaVuSans-Oblique-6a" transform="translate(589.916992 -16.203125)scale(0.7)"/>
     <use xlink:href="#ArialMT-20" transform="translate(612.099609 0.203125)"/>
     <use xlink:href="#ArialMT-3c" transform="translate(639.882812 0.203125)"/>
     <use xlink:href="#ArialMT-20" transform="translate(698.28125 0.203125)"/>
     <use xlink:href="#ArialMT-2e" transform="translate(726.064453 0.203125)"/>
     <use xlink:href="#ArialMT-30" transform="translate(753.847656 0.203125)"/>
     <use xlink:href="#ArialMT-30" transform="translate(809.462891 0.203125)"/>
     <use xlink:href="#ArialMT-31" transform="translate(865.078125 0.203125)"/>
     <use xlink:href="#ArialMT-20" transform="translate(920.693359 0.203125)"/>
     <use xlink:href="#ArialMT-2a" transform="translate(948.476562 0.203125)"/>
     <use xlink:href="#ArialMT-2a" transform="translate(987.392578 0.203125)"/>
     <use xlink:href="#ArialMT-2a" transform="translate(1026.308594 0.203125)"/>
    </g>
   </g>
   <g id="legend_1">
    <g id="patch_5">
     <path d="M 53.52 69.712344 
L 105.82125 69.712344 
Q 107.62125 69.712344 107.62125 67.912344 
L 107.62125 30.62 
Q 107.62125 28.82 105.82125 28.82 
L 53.52 28.82 
Q 51.72 28.82 51.72 30.62 
L 51.72 67.912344 
Q 51.72 69.712344 53.52 69.712344 
z
" style="fill: #ffffff; opacity: 0.8; stroke: #cccccc; stroke-linejoin: miter"/>
    </g>
    <g id="text_19">
     <!-- Treatment -->
     <g style="fill: #262626" transform="translate(59.334141 38.862031)scale(0.09 -0.09)">
      <use xlink:href="#ArialMT-54"/>
      <use xlink:href="#ArialMT-72" x="57.333984"/>
      <use xlink:href="#ArialMT-65" x="90.634766"/>
      <use xlink:href="#ArialMT-61" x="146.25"/>
      <use xlink:href="#ArialMT-74" x="201.865234"/>
      <use xlink:href="#ArialMT-6d" x="229.648438"/>
      <use xlink:href="#ArialMT-65" x="312.949219"/>
      <use xlink:href="#ArialMT-6e" x="368.564453"/>
      <use xlink:href="#ArialMT-74" x="424.179688"/>
     </g>
    </g>
    <g id="PathCollection_10">
     <defs>
      <path id="mfa5a03ecb3" d="M 0 3.872983 
C 1.027127 3.872983 2.012324 3.464901 2.738613 2.738613 
C 3.464901 2.012324 3.872983 1.027127 3.872983 0 
C 3.872983 -1.027127 3.464901 -2.012324 2.738613 -2.738613 
C 2.012324 -3.464901 1.027127 -3.872983 0 -3.872983 
C -1.027127 -3.872983 -2.012324 -3.464901 -2.738613 -2.738613 
C -3.464901 -2.012324 -3.872983 -1.027127 -3.872983 0 
C -3.872983 1.027127 -3.464901 2.012324 -2.738613 2.738613 
C -2.012324 3.464901 -1.027127 3.872983 0 3.872983 
z
" style="stroke: #4c72b0"/>
     </defs>
     <g>
      <use xlink:href="#mfa5a03ecb3" x="64.32" y="49.230313" style="fill: #4c72b0; stroke: #4c72b0"/>
     </g>
    </g>
    <g id="text_20">
     <!-- BEVA -->
     <g style="fill: #262626" transform="translate(80.52 51.592813)scale(0.09 -0.09)">
      <defs>
       <path id="ArialMT-45" d="M 506 0 
L 506 4581 
L 3819 4581 
L 3819 4041 
L 1113 4041 
L 1113 2638 
L 3647 2638 
L 3647 2100 
L 1113 2100 
L 1113 541 
L 3925 541 
L 3925 0 
L 506 0 
z
" transform="scale(0.015625)"/>
       <path id="ArialMT-56" d="M 1803 0 
L 28 4581 
L 684 4581 
L 1875 1253 
Q 2019 853 2116 503 
Q 2222 878 2363 1253 
L 3600 4581 
L 4219 4581 
L 2425 0 
L 1803 0 
z
" transform="scale(0.015625)"/>
      </defs>
      <use xlink:href="#ArialMT-42"/>
      <use xlink:href="#ArialMT-45" x="66.699219"/>
      <use xlink:href="#ArialMT-56" x="133.398438"/>
      <use xlink:href="#ArialMT-41" x="192.722656"/>
     </g>
    </g>
    <g id="PathCollection_11">
     <defs>
      <path id="m819085b7e2" d="M 0 3.872983 
C 1.027127 3.872983 2.012324 3.464901 2.738613 2.738613 
C 3.464901 2.012324 3.872983 1.027127 3.872983 0 
C 3.872983 -1.027127 3.464901 -2.012324 2.738613 -2.738613 
C 2.012324 -3.464901 1.027127 -3.872983 0 -3.872983 
C -1.027127 -3.872983 -2.012324 -3.464901 -2.738613 -2.738613 
C -3.464901 -2.012324 -3.872983 -1.027127 -3.872983 0 
C -3.872983 1.027127 -3.464901 2.012324 -2.738613 2.738613 
C -2.012324 3.464901 -1.027127 3.872983 0 3.872983 
z
" style="stroke: #dd8452"/>
     </defs>
     <g>
      <use xlink:href="#m819085b7e2" x="64.32" y="61.961094" style="fill: #dd8452; stroke: #dd8452"/>
     </g>
    </g>
    <g id="text_21">
     <!-- CTRL -->
     <g style="fill: #262626" transform="translate(80.52 64.323594)scale(0.09 -0.09)">
      <defs>
       <path id="ArialMT-43" d="M 3763 1606 
L 4369 1453 
Q 4178 706 3683 314 
Q 3188 -78 2472 -78 
Q 1731 -78 1267 223 
Q 803 525 561 1097 
Q 319 1669 319 2325 
Q 319 3041 592 3573 
Q 866 4106 1370 4382 
Q 1875 4659 2481 4659 
Q 3169 4659 3637 4309 
Q 4106 3959 4291 3325 
L 3694 3184 
Q 3534 3684 3231 3912 
Q 2928 4141 2469 4141 
Q 1941 4141 1586 3887 
Q 1231 3634 1087 3207 
Q 944 2781 944 2328 
Q 944 1744 1114 1308 
Q 1284 872 1643 656 
Q 2003 441 2422 441 
Q 2931 441 3284 734 
Q 3638 1028 3763 1606 
z
" transform="scale(0.015625)"/>
      </defs>
      <use xlink:href="#ArialMT-43"/>
      <use xlink:href="#ArialMT-54" x="72.216797"/>
      <use xlink:href="#ArialMT-52" x="133.300781"/>
      <use xlink:href="#ArialMT-4c" x="205.517578"/>
     </g>
    </g>
   </g>
  </g>
 </g>
 <defs>
  <clipPath id="p5bd70517f7">
   <rect x="47.22" y="24.32" width="453.29622" height="189.57811"/>
  </clipPath>
 </defs>
</svg>
