<?xml version="1.0" encoding="utf-8" standalone="no"?>
<!DOCTYPE svg PUBLIC "-//W3C//DTD SVG 1.1//EN"
  "http://www.w3.org/Graphics/SVG/1.1/DTD/svg11.dtd">
<svg xmlns:xlink="http://www.w3.org/1999/xlink" width="510.23622pt" height="255.11811pt" viewBox="0 0 510.23622 255.11811" xmlns="http://www.w3.org/2000/svg" version="1.1">
 <metadata>
  <rdf:RDF xmlns:dc="http://purl.org/dc/elements/1.1/" xmlns:cc="http://creativecommons.org/ns#" xmlns:rdf="http://www.w3.org/1999/02/22-rdf-syntax-ns#">
   <cc:Work>
    <dc:type rdf:resource="http://purl.org/dc/dcmitype/StillImage"/>
    <dc:date>2022-04-27T00:20:20.570428</dc:date>
    <dc:format>image/svg+xml</dc:format>
    <dc:creator>
     <cc:Agent>
      <dc:title>Matplotlib v3.5.1, https://matplotlib.org/</dc:title>
     </cc:Agent>
    </dc:creator>
   </cc:Work>
  </rdf:RDF>
 </metadata>
 <defs>
  <style type="text/css">*{stroke-linejoin: round; stroke-linecap: butt}</style>
 </defs>
 <g id="figure_1">
  <g id="patch_1">
   <path d="M 0 255.11811 
L 510.23622 255.11811 
L 510.23622 0 
L 0 0 
z
" style="fill: #ffffff"/>
  </g>
  <g id="axes_1">
   <g id="patch_2">
    <path d="M 52.22 213.89811 
L 500.51622 213.89811 
L 500.51622 24.32 
L 52.22 24.32 
z
" style="fill: #ffffff"/>
   </g>
   <g id="matplotlib.axis_1">
    <g id="xtick_1">
     <g id="text_1">
      <!-- 49 -->
      <g style="fill: #444444" transform="translate(79.236315 229.840141)scale(0.09 -0.09)">
       <defs>
        <path id="ArialMT-34" d="M 2069 0 
L 2069 1097 
L 81 1097 
L 81 1613 
L 2172 4581 
L 2631 4581 
L 2631 1613 
L 3250 1613 
L 3250 1097 
L 2631 1097 
L 2631 0 
L 2069 0 
z
M 2069 1613 
L 2069 3678 
L 634 1613 
L 2069 1613 
z
" transform="scale(0.015625)"/>
        <path id="ArialMT-39" d="M 350 1059 
L 891 1109 
Q 959 728 1153 556 
Q 1347 384 1650 384 
Q 1909 384 2104 503 
Q 2300 622 2425 820 
Q 2550 1019 2634 1356 
Q 2719 1694 2719 2044 
Q 2719 2081 2716 2156 
Q 2547 1888 2255 1720 
Q 1963 1553 1622 1553 
Q 1053 1553 659 1965 
Q 266 2378 266 3053 
Q 266 3750 677 4175 
Q 1088 4600 1706 4600 
Q 2153 4600 2523 4359 
Q 2894 4119 3086 3673 
Q 3278 3228 3278 2384 
Q 3278 1506 3087 986 
Q 2897 466 2520 194 
Q 2144 -78 1638 -78 
Q 1100 -78 759 220 
Q 419 519 350 1059 
z
M 2653 3081 
Q 2653 3566 2395 3850 
Q 2138 4134 1775 4134 
Q 1400 4134 1122 3828 
Q 844 3522 844 3034 
Q 844 2597 1108 2323 
Q 1372 2050 1759 2050 
Q 2150 2050 2401 2323 
Q 2653 2597 2653 3081 
z
" transform="scale(0.015625)"/>
       </defs>
       <use xlink:href="#ArialMT-34"/>
       <use xlink:href="#ArialMT-39" x="55.615234"/>
      </g>
     </g>
    </g>
    <g id="xtick_2">
     <g id="text_2">
      <!-- 17 -->
      <g style="fill: #444444" transform="translate(143.278632 229.840141)scale(0.09 -0.09)">
       <defs>
        <path id="ArialMT-31" d="M 2384 0 
L 1822 0 
L 1822 3584 
Q 1619 3391 1289 3197 
Q 959 3003 697 2906 
L 697 3450 
Q 1169 3672 1522 3987 
Q 1875 4303 2022 4600 
L 2384 4600 
L 2384 0 
z
" transform="scale(0.015625)"/>
        <path id="ArialMT-37" d="M 303 3981 
L 303 4522 
L 3269 4522 
L 3269 4084 
Q 2831 3619 2401 2847 
Q 1972 2075 1738 1259 
Q 1569 684 1522 0 
L 944 0 
Q 953 541 1156 1306 
Q 1359 2072 1739 2783 
Q 2119 3494 2547 3981 
L 303 3981 
z
" transform="scale(0.015625)"/>
       </defs>
       <use xlink:href="#ArialMT-31"/>
       <use xlink:href="#ArialMT-37" x="55.615234"/>
      </g>
     </g>
    </g>
    <g id="xtick_3">
     <g id="text_3">
      <!-- 69 -->
      <g style="fill: #444444" transform="translate(207.320949 229.840141)scale(0.09 -0.09)">
       <defs>
        <path id="ArialMT-36" d="M 3184 3459 
L 2625 3416 
Q 2550 3747 2413 3897 
Q 2184 4138 1850 4138 
Q 1581 4138 1378 3988 
Q 1113 3794 959 3422 
Q 806 3050 800 2363 
Q 1003 2672 1297 2822 
Q 1591 2972 1913 2972 
Q 2475 2972 2870 2558 
Q 3266 2144 3266 1488 
Q 3266 1056 3080 686 
Q 2894 316 2569 119 
Q 2244 -78 1831 -78 
Q 1128 -78 684 439 
Q 241 956 241 2144 
Q 241 3472 731 4075 
Q 1159 4600 1884 4600 
Q 2425 4600 2770 4297 
Q 3116 3994 3184 3459 
z
M 888 1484 
Q 888 1194 1011 928 
Q 1134 663 1356 523 
Q 1578 384 1822 384 
Q 2178 384 2434 671 
Q 2691 959 2691 1453 
Q 2691 1928 2437 2201 
Q 2184 2475 1800 2475 
Q 1419 2475 1153 2201 
Q 888 1928 888 1484 
z
" transform="scale(0.015625)"/>
       </defs>
       <use xlink:href="#ArialMT-36"/>
       <use xlink:href="#ArialMT-39" x="55.615234"/>
      </g>
     </g>
    </g>
    <g id="xtick_4">
     <g id="text_4">
      <!-- 15 -->
      <g style="fill: #444444" transform="translate(271.363266 229.840141)scale(0.09 -0.09)">
       <defs>
        <path id="ArialMT-35" d="M 266 1200 
L 856 1250 
Q 922 819 1161 601 
Q 1400 384 1738 384 
Q 2144 384 2425 690 
Q 2706 997 2706 1503 
Q 2706 1984 2436 2262 
Q 2166 2541 1728 2541 
Q 1456 2541 1237 2417 
Q 1019 2294 894 2097 
L 366 2166 
L 809 4519 
L 3088 4519 
L 3088 3981 
L 1259 3981 
L 1013 2750 
Q 1425 3038 1878 3038 
Q 2478 3038 2890 2622 
Q 3303 2206 3303 1553 
Q 3303 931 2941 478 
Q 2500 -78 1738 -78 
Q 1113 -78 717 272 
Q 322 622 266 1200 
z
" transform="scale(0.015625)"/>
       </defs>
       <use xlink:href="#ArialMT-31"/>
       <use xlink:href="#ArialMT-35" x="55.615234"/>
      </g>
     </g>
    </g>
    <g id="xtick_5">
     <g id="text_5">
      <!-- 5 -->
      <g style="fill: #444444" transform="translate(337.908006 229.840141)scale(0.09 -0.09)">
       <use xlink:href="#ArialMT-35"/>
      </g>
     </g>
    </g>
    <g id="xtick_6">
     <g id="text_6">
      <!-- 126 -->
      <g style="fill: #444444" transform="translate(396.945479 229.840141)scale(0.09 -0.09)">
       <defs>
        <path id="ArialMT-32" d="M 3222 541 
L 3222 0 
L 194 0 
Q 188 203 259 391 
Q 375 700 629 1000 
Q 884 1300 1366 1694 
Q 2113 2306 2375 2664 
Q 2638 3022 2638 3341 
Q 2638 3675 2398 3904 
Q 2159 4134 1775 4134 
Q 1369 4134 1125 3890 
Q 881 3647 878 3216 
L 300 3275 
Q 359 3922 746 4261 
Q 1134 4600 1788 4600 
Q 2447 4600 2831 4234 
Q 3216 3869 3216 3328 
Q 3216 3053 3103 2787 
Q 2991 2522 2730 2228 
Q 2469 1934 1863 1422 
Q 1356 997 1212 845 
Q 1069 694 975 541 
L 3222 541 
z
" transform="scale(0.015625)"/>
       </defs>
       <use xlink:href="#ArialMT-31"/>
       <use xlink:href="#ArialMT-32" x="55.615234"/>
       <use xlink:href="#ArialMT-36" x="111.230469"/>
      </g>
     </g>
    </g>
    <g id="xtick_7">
     <g id="text_7">
      <!-- 62 -->
      <g style="fill: #444444" transform="translate(463.490218 229.840141)scale(0.09 -0.09)">
       <use xlink:href="#ArialMT-36"/>
       <use xlink:href="#ArialMT-32" x="55.615234"/>
      </g>
     </g>
    </g>
    <g id="text_8">
     <!-- Patient -->
     <g style="fill: #444444" transform="translate(262.359048 242.070923)scale(0.09 -0.09)">
      <defs>
       <path id="ArialMT-50" d="M 494 0 
L 494 4581 
L 2222 4581 
Q 2678 4581 2919 4538 
Q 3256 4481 3484 4323 
Q 3713 4166 3852 3881 
Q 3991 3597 3991 3256 
Q 3991 2672 3619 2267 
Q 3247 1863 2275 1863 
L 1100 1863 
L 1100 0 
L 494 0 
z
M 1100 2403 
L 2284 2403 
Q 2872 2403 3119 2622 
Q 3366 2841 3366 3238 
Q 3366 3525 3220 3729 
Q 3075 3934 2838 4000 
Q 2684 4041 2272 4041 
L 1100 4041 
L 1100 2403 
z
" transform="scale(0.015625)"/>
       <path id="ArialMT-61" d="M 2588 409 
Q 2275 144 1986 34 
Q 1697 -75 1366 -75 
Q 819 -75 525 192 
Q 231 459 231 875 
Q 231 1119 342 1320 
Q 453 1522 633 1644 
Q 813 1766 1038 1828 
Q 1203 1872 1538 1913 
Q 2219 1994 2541 2106 
Q 2544 2222 2544 2253 
Q 2544 2597 2384 2738 
Q 2169 2928 1744 2928 
Q 1347 2928 1158 2789 
Q 969 2650 878 2297 
L 328 2372 
Q 403 2725 575 2942 
Q 747 3159 1072 3276 
Q 1397 3394 1825 3394 
Q 2250 3394 2515 3294 
Q 2781 3194 2906 3042 
Q 3031 2891 3081 2659 
Q 3109 2516 3109 2141 
L 3109 1391 
Q 3109 606 3145 398 
Q 3181 191 3288 0 
L 2700 0 
Q 2613 175 2588 409 
z
M 2541 1666 
Q 2234 1541 1622 1453 
Q 1275 1403 1131 1340 
Q 988 1278 909 1158 
Q 831 1038 831 891 
Q 831 666 1001 516 
Q 1172 366 1500 366 
Q 1825 366 2078 508 
Q 2331 650 2450 897 
Q 2541 1088 2541 1459 
L 2541 1666 
z
" transform="scale(0.015625)"/>
       <path id="ArialMT-74" d="M 1650 503 
L 1731 6 
Q 1494 -44 1306 -44 
Q 1000 -44 831 53 
Q 663 150 594 308 
Q 525 466 525 972 
L 525 2881 
L 113 2881 
L 113 3319 
L 525 3319 
L 525 4141 
L 1084 4478 
L 1084 3319 
L 1650 3319 
L 1650 2881 
L 1084 2881 
L 1084 941 
Q 1084 700 1114 631 
Q 1144 563 1211 522 
Q 1278 481 1403 481 
Q 1497 481 1650 503 
z
" transform="scale(0.015625)"/>
       <path id="ArialMT-69" d="M 425 3934 
L 425 4581 
L 988 4581 
L 988 3934 
L 425 3934 
z
M 425 0 
L 425 3319 
L 988 3319 
L 988 0 
L 425 0 
z
" transform="scale(0.015625)"/>
       <path id="ArialMT-65" d="M 2694 1069 
L 3275 997 
Q 3138 488 2766 206 
Q 2394 -75 1816 -75 
Q 1088 -75 661 373 
Q 234 822 234 1631 
Q 234 2469 665 2931 
Q 1097 3394 1784 3394 
Q 2450 3394 2872 2941 
Q 3294 2488 3294 1666 
Q 3294 1616 3291 1516 
L 816 1516 
Q 847 969 1125 678 
Q 1403 388 1819 388 
Q 2128 388 2347 550 
Q 2566 713 2694 1069 
z
M 847 1978 
L 2700 1978 
Q 2663 2397 2488 2606 
Q 2219 2931 1791 2931 
Q 1403 2931 1139 2672 
Q 875 2413 847 1978 
z
" transform="scale(0.015625)"/>
       <path id="ArialMT-6e" d="M 422 0 
L 422 3319 
L 928 3319 
L 928 2847 
Q 1294 3394 1984 3394 
Q 2284 3394 2536 3286 
Q 2788 3178 2913 3003 
Q 3038 2828 3088 2588 
Q 3119 2431 3119 2041 
L 3119 0 
L 2556 0 
L 2556 2019 
Q 2556 2363 2490 2533 
Q 2425 2703 2258 2804 
Q 2091 2906 1866 2906 
Q 1506 2906 1245 2678 
Q 984 2450 984 1813 
L 984 0 
L 422 0 
z
" transform="scale(0.015625)"/>
      </defs>
      <use xlink:href="#ArialMT-50"/>
      <use xlink:href="#ArialMT-61" x="66.699219"/>
      <use xlink:href="#ArialMT-74" x="122.314453"/>
      <use xlink:href="#ArialMT-69" x="150.097656"/>
      <use xlink:href="#ArialMT-65" x="172.314453"/>
      <use xlink:href="#ArialMT-6e" x="227.929688"/>
      <use xlink:href="#ArialMT-74" x="283.544922"/>
     </g>
    </g>
   </g>
   <g id="matplotlib.axis_2">
    <g id="ytick_1">
     <g id="text_9">
      <!-- 200 -->
      <g style="fill: #444444" transform="translate(27.705469 188.772334)scale(0.09 -0.09)">
       <defs>
        <path id="ArialMT-30" d="M 266 2259 
Q 266 3072 433 3567 
Q 600 4063 929 4331 
Q 1259 4600 1759 4600 
Q 2128 4600 2406 4451 
Q 2684 4303 2865 4023 
Q 3047 3744 3150 3342 
Q 3253 2941 3253 2259 
Q 3253 1453 3087 958 
Q 2922 463 2592 192 
Q 2263 -78 1759 -78 
Q 1097 -78 719 397 
Q 266 969 266 2259 
z
M 844 2259 
Q 844 1131 1108 757 
Q 1372 384 1759 384 
Q 2147 384 2411 759 
Q 2675 1134 2675 2259 
Q 2675 3391 2411 3762 
Q 2147 4134 1753 4134 
Q 1366 4134 1134 3806 
Q 844 3388 844 2259 
z
" transform="scale(0.015625)"/>
       </defs>
       <use xlink:href="#ArialMT-32"/>
       <use xlink:href="#ArialMT-30" x="55.615234"/>
       <use xlink:href="#ArialMT-30" x="111.230469"/>
      </g>
     </g>
    </g>
    <g id="ytick_2">
     <g id="text_10">
      <!-- 400 -->
      <g style="fill: #444444" transform="translate(27.705469 151.285621)scale(0.09 -0.09)">
       <use xlink:href="#ArialMT-34"/>
       <use xlink:href="#ArialMT-30" x="55.615234"/>
       <use xlink:href="#ArialMT-30" x="111.230469"/>
      </g>
     </g>
    </g>
    <g id="ytick_3">
     <g id="text_11">
      <!-- 600 -->
      <g style="fill: #444444" transform="translate(27.705469 113.798907)scale(0.09 -0.09)">
       <use xlink:href="#ArialMT-36"/>
       <use xlink:href="#ArialMT-30" x="55.615234"/>
       <use xlink:href="#ArialMT-30" x="111.230469"/>
      </g>
     </g>
    </g>
    <g id="ytick_4">
     <g id="text_12">
      <!-- 800 -->
      <g style="fill: #444444" transform="translate(27.705469 76.312194)scale(0.09 -0.09)">
       <defs>
        <path id="ArialMT-38" d="M 1131 2484 
Q 781 2613 612 2850 
Q 444 3088 444 3419 
Q 444 3919 803 4259 
Q 1163 4600 1759 4600 
Q 2359 4600 2725 4251 
Q 3091 3903 3091 3403 
Q 3091 3084 2923 2848 
Q 2756 2613 2416 2484 
Q 2838 2347 3058 2040 
Q 3278 1734 3278 1309 
Q 3278 722 2862 322 
Q 2447 -78 1769 -78 
Q 1091 -78 675 323 
Q 259 725 259 1325 
Q 259 1772 486 2073 
Q 713 2375 1131 2484 
z
M 1019 3438 
Q 1019 3113 1228 2906 
Q 1438 2700 1772 2700 
Q 2097 2700 2305 2904 
Q 2513 3109 2513 3406 
Q 2513 3716 2298 3927 
Q 2084 4138 1766 4138 
Q 1444 4138 1231 3931 
Q 1019 3725 1019 3438 
z
M 838 1322 
Q 838 1081 952 856 
Q 1066 631 1291 507 
Q 1516 384 1775 384 
Q 2178 384 2440 643 
Q 2703 903 2703 1303 
Q 2703 1709 2433 1975 
Q 2163 2241 1756 2241 
Q 1359 2241 1098 1978 
Q 838 1716 838 1322 
z
" transform="scale(0.015625)"/>
       </defs>
       <use xlink:href="#ArialMT-38"/>
       <use xlink:href="#ArialMT-30" x="55.615234"/>
       <use xlink:href="#ArialMT-30" x="111.230469"/>
      </g>
     </g>
    </g>
    <g id="ytick_5">
     <g id="text_13">
      <!-- 1000 -->
      <g style="fill: #444444" transform="translate(22.700625 38.82548)scale(0.09 -0.09)">
       <use xlink:href="#ArialMT-31"/>
       <use xlink:href="#ArialMT-30" x="55.615234"/>
       <use xlink:href="#ArialMT-30" x="111.230469"/>
       <use xlink:href="#ArialMT-30" x="166.845703"/>
      </g>
     </g>
    </g>
    <g id="text_14">
     <!-- Trimmed Means of M values (TMM) -->
     <g style="fill: #444444" transform="translate(16.806406 190.194993)rotate(-90)scale(0.09 -0.09)">
      <defs>
       <path id="ArialMT-54" d="M 1659 0 
L 1659 4041 
L 150 4041 
L 150 4581 
L 3781 4581 
L 3781 4041 
L 2266 4041 
L 2266 0 
L 1659 0 
z
" transform="scale(0.015625)"/>
       <path id="ArialMT-72" d="M 416 0 
L 416 3319 
L 922 3319 
L 922 2816 
Q 1116 3169 1280 3281 
Q 1444 3394 1641 3394 
Q 1925 3394 2219 3213 
L 2025 2691 
Q 1819 2813 1613 2813 
Q 1428 2813 1281 2702 
Q 1134 2591 1072 2394 
Q 978 2094 978 1738 
L 978 0 
L 416 0 
z
" transform="scale(0.015625)"/>
       <path id="ArialMT-6d" d="M 422 0 
L 422 3319 
L 925 3319 
L 925 2853 
Q 1081 3097 1340 3245 
Q 1600 3394 1931 3394 
Q 2300 3394 2536 3241 
Q 2772 3088 2869 2813 
Q 3263 3394 3894 3394 
Q 4388 3394 4653 3120 
Q 4919 2847 4919 2278 
L 4919 0 
L 4359 0 
L 4359 2091 
Q 4359 2428 4304 2576 
Q 4250 2725 4106 2815 
Q 3963 2906 3769 2906 
Q 3419 2906 3187 2673 
Q 2956 2441 2956 1928 
L 2956 0 
L 2394 0 
L 2394 2156 
Q 2394 2531 2256 2718 
Q 2119 2906 1806 2906 
Q 1569 2906 1367 2781 
Q 1166 2656 1075 2415 
Q 984 2175 984 1722 
L 984 0 
L 422 0 
z
" transform="scale(0.015625)"/>
       <path id="ArialMT-64" d="M 2575 0 
L 2575 419 
Q 2259 -75 1647 -75 
Q 1250 -75 917 144 
Q 584 363 401 755 
Q 219 1147 219 1656 
Q 219 2153 384 2558 
Q 550 2963 881 3178 
Q 1213 3394 1622 3394 
Q 1922 3394 2156 3267 
Q 2391 3141 2538 2938 
L 2538 4581 
L 3097 4581 
L 3097 0 
L 2575 0 
z
M 797 1656 
Q 797 1019 1065 703 
Q 1334 388 1700 388 
Q 2069 388 2326 689 
Q 2584 991 2584 1609 
Q 2584 2291 2321 2609 
Q 2059 2928 1675 2928 
Q 1300 2928 1048 2622 
Q 797 2316 797 1656 
z
" transform="scale(0.015625)"/>
       <path id="ArialMT-20" transform="scale(0.015625)"/>
       <path id="ArialMT-4d" d="M 475 0 
L 475 4581 
L 1388 4581 
L 2472 1338 
Q 2622 884 2691 659 
Q 2769 909 2934 1394 
L 4031 4581 
L 4847 4581 
L 4847 0 
L 4263 0 
L 4263 3834 
L 2931 0 
L 2384 0 
L 1059 3900 
L 1059 0 
L 475 0 
z
" transform="scale(0.015625)"/>
       <path id="ArialMT-73" d="M 197 991 
L 753 1078 
Q 800 744 1014 566 
Q 1228 388 1613 388 
Q 2000 388 2187 545 
Q 2375 703 2375 916 
Q 2375 1106 2209 1216 
Q 2094 1291 1634 1406 
Q 1016 1563 777 1677 
Q 538 1791 414 1992 
Q 291 2194 291 2438 
Q 291 2659 392 2848 
Q 494 3038 669 3163 
Q 800 3259 1026 3326 
Q 1253 3394 1513 3394 
Q 1903 3394 2198 3281 
Q 2494 3169 2634 2976 
Q 2775 2784 2828 2463 
L 2278 2388 
Q 2241 2644 2061 2787 
Q 1881 2931 1553 2931 
Q 1166 2931 1000 2803 
Q 834 2675 834 2503 
Q 834 2394 903 2306 
Q 972 2216 1119 2156 
Q 1203 2125 1616 2013 
Q 2213 1853 2448 1751 
Q 2684 1650 2818 1456 
Q 2953 1263 2953 975 
Q 2953 694 2789 445 
Q 2625 197 2315 61 
Q 2006 -75 1616 -75 
Q 969 -75 630 194 
Q 291 463 197 991 
z
" transform="scale(0.015625)"/>
       <path id="ArialMT-6f" d="M 213 1659 
Q 213 2581 725 3025 
Q 1153 3394 1769 3394 
Q 2453 3394 2887 2945 
Q 3322 2497 3322 1706 
Q 3322 1066 3130 698 
Q 2938 331 2570 128 
Q 2203 -75 1769 -75 
Q 1072 -75 642 372 
Q 213 819 213 1659 
z
M 791 1659 
Q 791 1022 1069 705 
Q 1347 388 1769 388 
Q 2188 388 2466 706 
Q 2744 1025 2744 1678 
Q 2744 2294 2464 2611 
Q 2184 2928 1769 2928 
Q 1347 2928 1069 2612 
Q 791 2297 791 1659 
z
" transform="scale(0.015625)"/>
       <path id="ArialMT-66" d="M 556 0 
L 556 2881 
L 59 2881 
L 59 3319 
L 556 3319 
L 556 3672 
Q 556 4006 616 4169 
Q 697 4388 901 4523 
Q 1106 4659 1475 4659 
Q 1713 4659 2000 4603 
L 1916 4113 
Q 1741 4144 1584 4144 
Q 1328 4144 1222 4034 
Q 1116 3925 1116 3625 
L 1116 3319 
L 1763 3319 
L 1763 2881 
L 1116 2881 
L 1116 0 
L 556 0 
z
" transform="scale(0.015625)"/>
       <path id="ArialMT-76" d="M 1344 0 
L 81 3319 
L 675 3319 
L 1388 1331 
Q 1503 1009 1600 663 
Q 1675 925 1809 1294 
L 2547 3319 
L 3125 3319 
L 1869 0 
L 1344 0 
z
" transform="scale(0.015625)"/>
       <path id="ArialMT-6c" d="M 409 0 
L 409 4581 
L 972 4581 
L 972 0 
L 409 0 
z
" transform="scale(0.015625)"/>
       <path id="ArialMT-75" d="M 2597 0 
L 2597 488 
Q 2209 -75 1544 -75 
Q 1250 -75 995 37 
Q 741 150 617 320 
Q 494 491 444 738 
Q 409 903 409 1263 
L 409 3319 
L 972 3319 
L 972 1478 
Q 972 1038 1006 884 
Q 1059 663 1231 536 
Q 1403 409 1656 409 
Q 1909 409 2131 539 
Q 2353 669 2445 892 
Q 2538 1116 2538 1541 
L 2538 3319 
L 3100 3319 
L 3100 0 
L 2597 0 
z
" transform="scale(0.015625)"/>
       <path id="ArialMT-28" d="M 1497 -1347 
Q 1031 -759 709 28 
Q 388 816 388 1659 
Q 388 2403 628 3084 
Q 909 3875 1497 4659 
L 1900 4659 
Q 1522 4009 1400 3731 
Q 1209 3300 1100 2831 
Q 966 2247 966 1656 
Q 966 153 1900 -1347 
L 1497 -1347 
z
" transform="scale(0.015625)"/>
       <path id="ArialMT-29" d="M 791 -1347 
L 388 -1347 
Q 1322 153 1322 1656 
Q 1322 2244 1188 2822 
Q 1081 3291 891 3722 
Q 769 4003 388 4659 
L 791 4659 
Q 1378 3875 1659 3084 
Q 1900 2403 1900 1659 
Q 1900 816 1576 28 
Q 1253 -759 791 -1347 
z
" transform="scale(0.015625)"/>
      </defs>
      <use xlink:href="#ArialMT-54"/>
      <use xlink:href="#ArialMT-72" x="57.333984"/>
      <use xlink:href="#ArialMT-69" x="90.634766"/>
      <use xlink:href="#ArialMT-6d" x="112.851562"/>
      <use xlink:href="#ArialMT-6d" x="196.152344"/>
      <use xlink:href="#ArialMT-65" x="279.453125"/>
      <use xlink:href="#ArialMT-64" x="335.068359"/>
      <use xlink:href="#ArialMT-20" x="390.683594"/>
      <use xlink:href="#ArialMT-4d" x="418.466797"/>
      <use xlink:href="#ArialMT-65" x="501.767578"/>
      <use xlink:href="#ArialMT-61" x="557.382812"/>
      <use xlink:href="#ArialMT-6e" x="612.998047"/>
      <use xlink:href="#ArialMT-73" x="668.613281"/>
      <use xlink:href="#ArialMT-20" x="718.613281"/>
      <use xlink:href="#ArialMT-6f" x="746.396484"/>
      <use xlink:href="#ArialMT-66" x="802.011719"/>
      <use xlink:href="#ArialMT-20" x="829.794922"/>
      <use xlink:href="#ArialMT-4d" x="857.578125"/>
      <use xlink:href="#ArialMT-20" x="940.878906"/>
      <use xlink:href="#ArialMT-76" x="968.662109"/>
      <use xlink:href="#ArialMT-61" x="1018.662109"/>
      <use xlink:href="#ArialMT-6c" x="1074.277344"/>
      <use xlink:href="#ArialMT-75" x="1096.494141"/>
      <use xlink:href="#ArialMT-65" x="1152.109375"/>
      <use xlink:href="#ArialMT-73" x="1207.724609"/>
      <use xlink:href="#ArialMT-20" x="1257.724609"/>
      <use xlink:href="#ArialMT-28" x="1285.507812"/>
      <use xlink:href="#ArialMT-54" x="1318.808594"/>
      <use xlink:href="#ArialMT-4d" x="1379.892578"/>
      <use xlink:href="#ArialMT-4d" x="1463.193359"/>
      <use xlink:href="#ArialMT-29" x="1546.494141"/>
     </g>
    </g>
   </g>
   <g id="PolyCollection_1">
    <defs>
     <path id="mc1fd6c6706" d="M 97.899398 -66.147389 
L 70.582919 -66.147389 
L 70.434393 -66.642134 
L 70.301857 -67.136879 
L 70.185693 -67.631623 
L 70.086209 -68.126368 
L 70.003641 -68.621112 
L 69.938146 -69.115857 
L 69.889808 -69.610601 
L 69.858627 -70.105346 
L 69.844526 -70.60009 
L 69.847348 -71.094835 
L 69.866858 -71.589579 
L 69.902741 -72.084324 
L 69.954609 -72.579068 
L 70.021997 -73.073813 
L 70.104369 -73.568557 
L 70.201122 -74.063302 
L 70.311589 -74.558046 
L 70.43504 -75.052791 
L 70.570692 -75.547535 
L 70.717709 -76.04228 
L 70.87521 -76.537024 
L 71.042274 -77.031769 
L 71.217945 -77.526514 
L 71.40124 -78.021258 
L 71.591153 -78.516003 
L 71.786662 -79.010747 
L 71.986735 -79.505492 
L 72.190337 -80.000236 
L 72.396438 -80.494981 
L 72.604015 -80.989725 
L 72.812062 -81.48447 
L 73.019595 -81.979214 
L 73.225655 -82.473959 
L 73.429319 -82.968703 
L 73.6297 -83.463448 
L 73.825954 -83.958192 
L 74.017286 -84.452937 
L 74.202951 -84.947681 
L 74.38226 -85.442426 
L 74.554583 -85.93717 
L 74.71935 -86.431915 
L 74.876058 -86.926659 
L 75.024267 -87.421404 
L 75.163605 -87.916149 
L 75.29377 -88.410893 
L 75.414528 -88.905638 
L 75.525711 -89.400382 
L 75.627224 -89.895127 
L 75.719037 -90.389871 
L 75.801186 -90.884616 
L 75.873774 -91.37936 
L 75.936964 -91.874105 
L 75.990979 -92.368849 
L 76.036101 -92.863594 
L 76.072666 -93.358338 
L 76.101058 -93.853083 
L 76.12171 -94.347827 
L 76.135099 -94.842572 
L 76.14174 -95.337316 
L 76.142181 -95.832061 
L 76.137003 -96.326805 
L 76.126811 -96.82155 
L 76.112235 -97.316294 
L 76.093916 -97.811039 
L 76.072513 -98.305783 
L 76.04869 -98.800528 
L 76.023114 -99.295273 
L 75.996453 -99.790017 
L 75.969368 -100.284762 
L 75.942512 -100.779506 
L 75.916525 -101.274251 
L 75.89203 -101.768995 
L 75.869628 -102.26374 
L 75.849899 -102.758484 
L 75.833394 -103.253229 
L 75.820638 -103.747973 
L 75.812119 -104.242718 
L 75.808296 -104.737462 
L 75.809589 -105.232207 
L 75.816381 -105.726951 
L 75.829016 -106.221696 
L 75.847797 -106.71644 
L 75.872988 -107.211185 
L 75.904809 -107.705929 
L 75.94344 -108.200674 
L 75.989019 -108.695418 
L 76.041642 -109.190163 
L 76.101365 -109.684908 
L 76.168203 -110.179652 
L 76.242132 -110.674397 
L 76.323092 -111.169141 
L 76.410984 -111.663886 
L 76.505676 -112.15863 
L 76.607 -112.653375 
L 76.714761 -113.148119 
L 76.828732 -113.642864 
L 76.94866 -114.137608 
L 77.074265 -114.632353 
L 77.205247 -115.127097 
L 91.27707 -115.127097 
L 91.27707 -115.127097 
L 91.408052 -114.632353 
L 91.533658 -114.137608 
L 91.653585 -113.642864 
L 91.767556 -113.148119 
L 91.875317 -112.653375 
L 91.976642 -112.15863 
L 92.071333 -111.663886 
L 92.159225 -111.169141 
L 92.240185 -110.674397 
L 92.314114 -110.179652 
L 92.380953 -109.684908 
L 92.440675 -109.190163 
L 92.493298 -108.695418 
L 92.538877 -108.200674 
L 92.577508 -107.705929 
L 92.609329 -107.211185 
L 92.63452 -106.71644 
L 92.653301 -106.221696 
L 92.665936 -105.726951 
L 92.672728 -105.232207 
L 92.674021 -104.737462 
L 92.670198 -104.242718 
L 92.66168 -103.747973 
L 92.648923 -103.253229 
L 92.632418 -102.758484 
L 92.612689 -102.26374 
L 92.590288 -101.768995 
L 92.565792 -101.274251 
L 92.539805 -100.779506 
L 92.512949 -100.284762 
L 92.485865 -99.790017 
L 92.459203 -99.295273 
L 92.433628 -98.800528 
L 92.409804 -98.305783 
L 92.388401 -97.811039 
L 92.370083 -97.316294 
L 92.355506 -96.82155 
L 92.345315 -96.326805 
L 92.340137 -95.832061 
L 92.340578 -95.337316 
L 92.347218 -94.842572 
L 92.360607 -94.347827 
L 92.381259 -93.853083 
L 92.409652 -93.358338 
L 92.446216 -92.863594 
L 92.491338 -92.368849 
L 92.545354 -91.874105 
L 92.608543 -91.37936 
L 92.681131 -90.884616 
L 92.76328 -90.389871 
L 92.855093 -89.895127 
L 92.956606 -89.400382 
L 93.06779 -88.905638 
L 93.188547 -88.410893 
L 93.318712 -87.916149 
L 93.45805 -87.421404 
L 93.606259 -86.926659 
L 93.762967 -86.431915 
L 93.927735 -85.93717 
L 94.100057 -85.442426 
L 94.279366 -84.947681 
L 94.465031 -84.452937 
L 94.656363 -83.958192 
L 94.852617 -83.463448 
L 95.052998 -82.968703 
L 95.256662 -82.473959 
L 95.462723 -81.979214 
L 95.670255 -81.48447 
L 95.878302 -80.989725 
L 96.085879 -80.494981 
L 96.29198 -80.000236 
L 96.495583 -79.505492 
L 96.695655 -79.010747 
L 96.891164 -78.516003 
L 97.081077 -78.021258 
L 97.264372 -77.526514 
L 97.440044 -77.031769 
L 97.607108 -76.537024 
L 97.764609 -76.04228 
L 97.911625 -75.547535 
L 98.047277 -75.052791 
L 98.170728 -74.558046 
L 98.281195 -74.063302 
L 98.377948 -73.568557 
L 98.460321 -73.073813 
L 98.527708 -72.579068 
L 98.579576 -72.084324 
L 98.615459 -71.589579 
L 98.634969 -71.094835 
L 98.637792 -70.60009 
L 98.623691 -70.105346 
L 98.592509 -69.610601 
L 98.544171 -69.115857 
L 98.478677 -68.621112 
L 98.396108 -68.126368 
L 98.296624 -67.631623 
L 98.18046 -67.136879 
L 98.047924 -66.642134 
L 97.899398 -66.147389 
z
" style="stroke: #999999; stroke-width: 2"/>
    </defs>
    <g clip-path="url(#p803aed3bd4)">
     <use xlink:href="#mc1fd6c6706" x="0" y="255.11811" style="fill: #ffffff; stroke: #999999; stroke-width: 2"/>
    </g>
   </g>
   <g id="PolyCollection_2">
    <defs>
     <path id="mfca00c5028" d="M 158.188176 -65.372534 
L 138.378775 -65.372534 
L 138.186611 -66.252974 
L 138.006743 -67.133415 
L 137.839803 -68.013855 
L 137.686361 -68.894296 
L 137.546923 -69.774736 
L 137.421932 -70.655176 
L 137.311764 -71.535617 
L 137.216724 -72.416057 
L 137.137049 -73.296498 
L 137.072904 -74.176938 
L 137.024385 -75.057379 
L 136.99152 -75.937819 
L 136.974266 -76.818259 
L 136.972516 -77.6987 
L 136.986098 -78.57914 
L 137.014781 -79.459581 
L 137.058273 -80.340021 
L 137.116228 -81.220462 
L 137.188248 -82.100902 
L 137.273889 -82.981342 
L 137.372663 -83.861783 
L 137.484041 -84.742223 
L 137.607461 -85.622664 
L 137.742328 -86.503104 
L 137.888022 -87.383545 
L 138.043899 -88.263985 
L 138.209296 -89.144426 
L 138.383538 -90.024866 
L 138.565934 -90.905306 
L 138.75579 -91.785747 
L 138.952406 -92.666187 
L 139.15508 -93.546628 
L 139.363113 -94.427068 
L 139.57581 -95.307509 
L 139.792485 -96.187949 
L 140.012457 -97.068389 
L 140.23506 -97.94883 
L 140.459638 -98.82927 
L 140.685552 -99.709711 
L 140.912177 -100.590151 
L 141.138906 -101.470592 
L 141.365149 -102.351032 
L 141.590336 -103.231473 
L 141.813917 -104.111913 
L 142.035361 -104.992353 
L 142.254161 -105.872794 
L 142.469828 -106.753234 
L 142.681899 -107.633675 
L 142.889931 -108.514115 
L 143.093506 -109.394556 
L 143.292231 -110.274996 
L 143.485734 -111.155436 
L 143.673672 -112.035877 
L 143.855724 -112.916317 
L 144.031597 -113.796758 
L 144.201026 -114.677198 
L 144.363771 -115.557639 
L 144.51962 -116.438079 
L 144.668393 -117.31852 
L 144.809935 -118.19896 
L 144.944123 -119.0794 
L 145.070866 -119.959841 
L 145.190101 -120.840281 
L 145.301797 -121.720722 
L 145.405956 -122.601162 
L 145.50261 -123.481603 
L 145.591825 -124.362043 
L 145.673698 -125.242483 
L 145.748355 -126.122924 
L 145.815958 -127.003364 
L 145.876695 -127.883805 
L 145.930787 -128.764245 
L 145.978482 -129.644686 
L 146.020055 -130.525126 
L 146.055808 -131.405567 
L 146.086067 -132.286007 
L 146.111181 -133.166447 
L 146.131517 -134.046888 
L 146.147462 -134.927328 
L 146.159417 -135.807769 
L 146.167798 -136.688209 
L 146.173027 -137.56865 
L 146.175538 -138.44909 
L 146.175764 -139.32953 
L 146.174142 -140.209971 
L 146.171105 -141.090411 
L 146.167082 -141.970852 
L 146.162492 -142.851292 
L 146.157744 -143.731733 
L 146.153231 -144.612173 
L 146.149329 -145.492614 
L 146.146394 -146.373054 
L 146.144761 -147.253494 
L 146.144737 -148.133935 
L 146.146604 -149.014375 
L 146.150618 -149.894816 
L 146.157001 -150.775256 
L 146.165945 -151.655697 
L 146.177613 -152.536137 
L 150.389339 -152.536137 
L 150.389339 -152.536137 
L 150.401006 -151.655697 
L 150.409951 -150.775256 
L 150.416334 -149.894816 
L 150.420347 -149.014375 
L 150.422215 -148.133935 
L 150.422191 -147.253494 
L 150.420557 -146.373054 
L 150.417623 -145.492614 
L 150.413721 -144.612173 
L 150.409207 -143.731733 
L 150.404459 -142.851292 
L 150.399869 -141.970852 
L 150.395846 -141.090411 
L 150.39281 -140.209971 
L 150.391188 -139.32953 
L 150.391414 -138.44909 
L 150.393924 -137.56865 
L 150.399154 -136.688209 
L 150.407535 -135.807769 
L 150.41949 -134.927328 
L 150.435435 -134.046888 
L 150.455771 -133.166447 
L 150.480884 -132.286007 
L 150.511143 -131.405567 
L 150.546897 -130.525126 
L 150.58847 -129.644686 
L 150.636164 -128.764245 
L 150.690256 -127.883805 
L 150.750994 -127.003364 
L 150.818596 -126.122924 
L 150.893254 -125.242483 
L 150.975126 -124.362043 
L 151.064341 -123.481603 
L 151.160996 -122.601162 
L 151.265155 -121.720722 
L 151.376851 -120.840281 
L 151.496086 -119.959841 
L 151.622828 -119.0794 
L 151.757017 -118.19896 
L 151.898559 -117.31852 
L 152.047331 -116.438079 
L 152.203181 -115.557639 
L 152.365926 -114.677198 
L 152.535354 -113.796758 
L 152.711228 -112.916317 
L 152.89328 -112.035877 
L 153.081217 -111.155436 
L 153.274721 -110.274996 
L 153.473445 -109.394556 
L 153.677021 -108.514115 
L 153.885053 -107.633675 
L 154.097124 -106.753234 
L 154.312791 -105.872794 
L 154.53159 -104.992353 
L 154.753035 -104.111913 
L 154.976615 -103.231473 
L 155.201802 -102.351032 
L 155.428046 -101.470592 
L 155.654774 -100.590151 
L 155.881399 -99.709711 
L 156.107313 -98.82927 
L 156.331892 -97.94883 
L 156.554495 -97.068389 
L 156.774467 -96.187949 
L 156.991141 -95.307509 
L 157.203839 -94.427068 
L 157.411872 -93.546628 
L 157.614546 -92.666187 
L 157.811162 -91.785747 
L 158.001018 -90.905306 
L 158.183414 -90.024866 
L 158.357655 -89.144426 
L 158.523053 -88.263985 
L 158.67893 -87.383545 
L 158.824624 -86.503104 
L 158.959491 -85.622664 
L 159.082911 -84.742223 
L 159.194289 -83.861783 
L 159.293062 -82.981342 
L 159.378704 -82.100902 
L 159.450724 -81.220462 
L 159.508679 -80.340021 
L 159.55217 -79.459581 
L 159.580853 -78.57914 
L 159.594436 -77.6987 
L 159.592686 -76.818259 
L 159.575432 -75.937819 
L 159.542566 -75.057379 
L 159.494048 -74.176938 
L 159.429903 -73.296498 
L 159.350227 -72.416057 
L 159.255187 -71.535617 
L 159.145019 -70.655176 
L 159.020029 -69.774736 
L 158.880591 -68.894296 
L 158.727148 -68.013855 
L 158.560208 -67.133415 
L 158.380341 -66.252974 
L 158.188176 -65.372534 
z
" style="stroke: #999999; stroke-width: 2"/>
    </defs>
    <g clip-path="url(#p803aed3bd4)">
     <use xlink:href="#mfca00c5028" x="0" y="255.11811" style="fill: #ffffff; stroke: #999999; stroke-width: 2"/>
    </g>
   </g>
   <g id="PolyCollection_3">
    <defs>
     <path id="mec72697633" d="M 220.71094 -49.837187 
L 203.940646 -49.837187 
L 203.714623 -50.694594 
L 203.496051 -51.552001 
L 203.285593 -52.409407 
L 203.08387 -53.266814 
L 202.891459 -54.124221 
L 202.70889 -54.981628 
L 202.536646 -55.839035 
L 202.375154 -56.696442 
L 202.224792 -57.553849 
L 202.085882 -58.411256 
L 201.958693 -59.268662 
L 201.843441 -60.126069 
L 201.740289 -60.983476 
L 201.649349 -61.840883 
L 201.570686 -62.69829 
L 201.504316 -63.555697 
L 201.450213 -64.413104 
L 201.40831 -65.270511 
L 201.378502 -66.127918 
L 201.360651 -66.985324 
L 201.354587 -67.842731 
L 201.360116 -68.700138 
L 201.377019 -69.557545 
L 201.405055 -70.414952 
L 201.443969 -71.272359 
L 201.493492 -72.129766 
L 201.55334 -72.987173 
L 201.623224 -73.844579 
L 201.702845 -74.701986 
L 201.791899 -75.559393 
L 201.890077 -76.4168 
L 201.997066 -77.274207 
L 202.11255 -78.131614 
L 202.236207 -78.989021 
L 202.367712 -79.846428 
L 202.506736 -80.703834 
L 202.652943 -81.561241 
L 202.805988 -82.418648 
L 202.96552 -83.276055 
L 203.131178 -84.133462 
L 203.302586 -84.990869 
L 203.47936 -85.848276 
L 203.661099 -86.705683 
L 203.847387 -87.56309 
L 204.037791 -88.420496 
L 204.231862 -89.277903 
L 204.429134 -90.13531 
L 204.629124 -90.992717 
L 204.831331 -91.850124 
L 205.035239 -92.707531 
L 205.240317 -93.564938 
L 205.446021 -94.422345 
L 205.651798 -95.279751 
L 205.857085 -96.137158 
L 206.061314 -96.994565 
L 206.263917 -97.851972 
L 206.464328 -98.709379 
L 206.661984 -99.566786 
L 206.856334 -100.424193 
L 207.046843 -101.2816 
L 207.232992 -102.139006 
L 207.414288 -102.996413 
L 207.590262 -103.85382 
L 207.76048 -104.711227 
L 207.924543 -105.568634 
L 208.082091 -106.426041 
L 208.232807 -107.283448 
L 208.376422 -108.140855 
L 208.512714 -108.998261 
L 208.641514 -109.855668 
L 208.762703 -110.713075 
L 208.876219 -111.570482 
L 208.982052 -112.427889 
L 209.080248 -113.285296 
L 209.170907 -114.142703 
L 209.254181 -115.00011 
L 209.330273 -115.857517 
L 209.399433 -116.714923 
L 209.46196 -117.57233 
L 209.518193 -118.429737 
L 209.568509 -119.287144 
L 209.613322 -120.144551 
L 209.653073 -121.001958 
L 209.688229 -121.859365 
L 209.719277 -122.716772 
L 209.74672 -123.574178 
L 209.771068 -124.431585 
L 209.792836 -125.288992 
L 209.812539 -126.146399 
L 209.830684 -127.003806 
L 209.847768 -127.861213 
L 209.864272 -128.71862 
L 209.880654 -129.576027 
L 209.89735 -130.433433 
L 209.914768 -131.29084 
L 209.933282 -132.148247 
L 209.953232 -133.005654 
L 209.974922 -133.863061 
L 209.998618 -134.720468 
L 214.652968 -134.720468 
L 214.652968 -134.720468 
L 214.676664 -133.863061 
L 214.698354 -133.005654 
L 214.718304 -132.148247 
L 214.736818 -131.29084 
L 214.754236 -130.433433 
L 214.770932 -129.576027 
L 214.787315 -128.71862 
L 214.803818 -127.861213 
L 214.820902 -127.003806 
L 214.839047 -126.146399 
L 214.85875 -125.288992 
L 214.880518 -124.431585 
L 214.904866 -123.574178 
L 214.932309 -122.716772 
L 214.963357 -121.859365 
L 214.998514 -121.001958 
L 215.038264 -120.144551 
L 215.083077 -119.287144 
L 215.133393 -118.429737 
L 215.189626 -117.57233 
L 215.252153 -116.714923 
L 215.321314 -115.857517 
L 215.397405 -115.00011 
L 215.480679 -114.142703 
L 215.571338 -113.285296 
L 215.669534 -112.427889 
L 215.775368 -111.570482 
L 215.888883 -110.713075 
L 216.010072 -109.855668 
L 216.138872 -108.998261 
L 216.275164 -108.140855 
L 216.418779 -107.283448 
L 216.569495 -106.426041 
L 216.727043 -105.568634 
L 216.891106 -104.711227 
L 217.061324 -103.85382 
L 217.237298 -102.996413 
L 217.418594 -102.139006 
L 217.604743 -101.2816 
L 217.795252 -100.424193 
L 217.989603 -99.566786 
L 218.187258 -98.709379 
L 218.387669 -97.851972 
L 218.590272 -96.994565 
L 218.794501 -96.137158 
L 218.999788 -95.279751 
L 219.205565 -94.422345 
L 219.411269 -93.564938 
L 219.616347 -92.707531 
L 219.820255 -91.850124 
L 220.022462 -90.992717 
L 220.222452 -90.13531 
L 220.419724 -89.277903 
L 220.613795 -88.420496 
L 220.804199 -87.56309 
L 220.990487 -86.705683 
L 221.172226 -85.848276 
L 221.349 -84.990869 
L 221.520409 -84.133462 
L 221.686066 -83.276055 
L 221.845598 -82.418648 
L 221.998643 -81.561241 
L 222.14485 -80.703834 
L 222.283874 -79.846428 
L 222.415379 -78.989021 
L 222.539036 -78.131614 
L 222.65452 -77.274207 
L 222.761509 -76.4168 
L 222.859687 -75.559393 
L 222.948741 -74.701986 
L 223.028362 -73.844579 
L 223.098246 -72.987173 
L 223.158094 -72.129766 
L 223.207617 -71.272359 
L 223.246531 -70.414952 
L 223.274567 -69.557545 
L 223.29147 -68.700138 
L 223.296999 -67.842731 
L 223.290935 -66.985324 
L 223.273084 -66.127918 
L 223.243276 -65.270511 
L 223.201373 -64.413104 
L 223.14727 -63.555697 
L 223.0809 -62.69829 
L 223.002237 -61.840883 
L 222.911297 -60.983476 
L 222.808145 -60.126069 
L 222.692893 -59.268662 
L 222.565704 -58.411256 
L 222.426794 -57.553849 
L 222.276432 -56.696442 
L 222.11494 -55.839035 
L 221.942696 -54.981628 
L 221.760127 -54.124221 
L 221.567716 -53.266814 
L 221.365993 -52.409407 
L 221.155535 -51.552001 
L 220.936963 -50.694594 
L 220.71094 -49.837187 
z
" style="stroke: #999999; stroke-width: 2"/>
    </defs>
    <g clip-path="url(#p803aed3bd4)">
     <use xlink:href="#mec72697633" x="0" y="255.11811" style="fill: #ffffff; stroke: #999999; stroke-width: 2"/>
    </g>
   </g>
   <g id="PolyCollection_4">
    <defs>
     <path id="mca0d356c17" d="M 281.095979 -67.826904 
L 271.640242 -67.826904 
L 271.550094 -69.386035 
L 271.464858 -70.945167 
L 271.384748 -72.504298 
L 271.309957 -74.06343 
L 271.240656 -75.622561 
L 271.176991 -77.181693 
L 271.119089 -78.740824 
L 271.06705 -80.299956 
L 271.020954 -81.859087 
L 270.98086 -83.418219 
L 270.946804 -84.97735 
L 270.918804 -86.536482 
L 270.896855 -88.095613 
L 270.880937 -89.654745 
L 270.871011 -91.213876 
L 270.867019 -92.773008 
L 270.868891 -94.332139 
L 270.87654 -95.891271 
L 270.889865 -97.450402 
L 270.908753 -99.009534 
L 270.933079 -100.568665 
L 270.962705 -102.127797 
L 270.997483 -103.686928 
L 271.037255 -105.24606 
L 271.081854 -106.805191 
L 271.131101 -108.364323 
L 271.184811 -109.923454 
L 271.242788 -111.482586 
L 271.304829 -113.041717 
L 271.370723 -114.600849 
L 271.440251 -116.15998 
L 271.513183 -117.719112 
L 271.589286 -119.278244 
L 271.668316 -120.837375 
L 271.750023 -122.396507 
L 271.834151 -123.955638 
L 271.920435 -125.51477 
L 272.008607 -127.073901 
L 272.098391 -128.633033 
L 272.189508 -130.192164 
L 272.281671 -131.751296 
L 272.374596 -133.310427 
L 272.467991 -134.869559 
L 272.561566 -136.42869 
L 272.65503 -137.987822 
L 272.748095 -139.546953 
L 272.840473 -141.106085 
L 272.931883 -142.665216 
L 273.022048 -144.224348 
L 273.110702 -145.783479 
L 273.197583 -147.342611 
L 273.282445 -148.901742 
L 273.365051 -150.460874 
L 273.445181 -152.020005 
L 273.522629 -153.579137 
L 273.597207 -155.138268 
L 273.668745 -156.6974 
L 273.737096 -158.256531 
L 273.802131 -159.815663 
L 273.863745 -161.374794 
L 273.921855 -162.933926 
L 273.976405 -164.493057 
L 274.027359 -166.052189 
L 274.07471 -167.61132 
L 274.118472 -169.170452 
L 274.158687 -170.729583 
L 274.195419 -172.288715 
L 274.228755 -173.847846 
L 274.258809 -175.406978 
L 274.285712 -176.96611 
L 274.309618 -178.525241 
L 274.3307 -180.084373 
L 274.349148 -181.643504 
L 274.365169 -183.202636 
L 274.378984 -184.761767 
L 274.390824 -186.320899 
L 274.400931 -187.88003 
L 274.409556 -189.439162 
L 274.416953 -190.998293 
L 274.423382 -192.557425 
L 274.4291 -194.116556 
L 274.434366 -195.675688 
L 274.439433 -197.234819 
L 274.444549 -198.793951 
L 274.449955 -200.353082 
L 274.45588 -201.912214 
L 274.462543 -203.471345 
L 274.470149 -205.030477 
L 274.478885 -206.589608 
L 274.488927 -208.14874 
L 274.50043 -209.707871 
L 274.513529 -211.267003 
L 274.528343 -212.826134 
L 274.544969 -214.385266 
L 274.563484 -215.944397 
L 274.583944 -217.503529 
L 274.606386 -219.06266 
L 274.630826 -220.621792 
L 274.65726 -222.180923 
L 278.078961 -222.180923 
L 278.078961 -222.180923 
L 278.105394 -220.621792 
L 278.129834 -219.06266 
L 278.152276 -217.503529 
L 278.172737 -215.944397 
L 278.191252 -214.385266 
L 278.207878 -212.826134 
L 278.222692 -211.267003 
L 278.235791 -209.707871 
L 278.247293 -208.14874 
L 278.257335 -206.589608 
L 278.266072 -205.030477 
L 278.273677 -203.471345 
L 278.28034 -201.912214 
L 278.286265 -200.353082 
L 278.291671 -198.793951 
L 278.296788 -197.234819 
L 278.301855 -195.675688 
L 278.307121 -194.116556 
L 278.312839 -192.557425 
L 278.319267 -190.998293 
L 278.326665 -189.439162 
L 278.335289 -187.88003 
L 278.345397 -186.320899 
L 278.357237 -184.761767 
L 278.371051 -183.202636 
L 278.387072 -181.643504 
L 278.405521 -180.084373 
L 278.426603 -178.525241 
L 278.450509 -176.96611 
L 278.477412 -175.406978 
L 278.507465 -173.847846 
L 278.540802 -172.288715 
L 278.577534 -170.729583 
L 278.617748 -169.170452 
L 278.661511 -167.61132 
L 278.708861 -166.052189 
L 278.759816 -164.493057 
L 278.814365 -162.933926 
L 278.872476 -161.374794 
L 278.93409 -159.815663 
L 278.999124 -158.256531 
L 279.067475 -156.6974 
L 279.139014 -155.138268 
L 279.213592 -153.579137 
L 279.291039 -152.020005 
L 279.371169 -150.460874 
L 279.453776 -148.901742 
L 279.538637 -147.342611 
L 279.625519 -145.783479 
L 279.714172 -144.224348 
L 279.804338 -142.665216 
L 279.895748 -141.106085 
L 279.988126 -139.546953 
L 280.08119 -137.987822 
L 280.174655 -136.42869 
L 280.26823 -134.869559 
L 280.361625 -133.310427 
L 280.454549 -131.751296 
L 280.546713 -130.192164 
L 280.637829 -128.633033 
L 280.727613 -127.073901 
L 280.815785 -125.51477 
L 280.90207 -123.955638 
L 280.986198 -122.396507 
L 281.067905 -120.837375 
L 281.146935 -119.278244 
L 281.223037 -117.719112 
L 281.29597 -116.15998 
L 281.365497 -114.600849 
L 281.431391 -113.041717 
L 281.493433 -111.482586 
L 281.55141 -109.923454 
L 281.60512 -108.364323 
L 281.654367 -106.805191 
L 281.698965 -105.24606 
L 281.738737 -103.686928 
L 281.773515 -102.127797 
L 281.803141 -100.568665 
L 281.827467 -99.009534 
L 281.846355 -97.450402 
L 281.859681 -95.891271 
L 281.86733 -94.332139 
L 281.869201 -92.773008 
L 281.86521 -91.213876 
L 281.855283 -89.654745 
L 281.839365 -88.095613 
L 281.817417 -86.536482 
L 281.789416 -84.97735 
L 281.755361 -83.418219 
L 281.715267 -81.859087 
L 281.669171 -80.299956 
L 281.617132 -78.740824 
L 281.559229 -77.181693 
L 281.495565 -75.622561 
L 281.426264 -74.06343 
L 281.351473 -72.504298 
L 281.271363 -70.945167 
L 281.186126 -69.386035 
L 281.095979 -67.826904 
z
" style="stroke: #999999; stroke-width: 2"/>
    </defs>
    <g clip-path="url(#p803aed3bd4)">
     <use xlink:href="#mca0d356c17" x="0" y="255.11811" style="fill: #ffffff; stroke: #999999; stroke-width: 2"/>
    </g>
   </g>
   <g id="PolyCollection_5">
    <defs>
     <path id="m08a13c940f" d="M 344.683284 -96.514671 
L 336.137571 -96.514671 
L 336.093792 -97.422701 
L 336.052944 -98.330731 
L 336.014971 -99.23876 
L 335.979796 -100.14679 
L 335.947322 -101.054819 
L 335.917436 -101.962849 
L 335.890005 -102.870879 
L 335.864879 -103.778908 
L 335.841892 -104.686938 
L 335.820862 -105.594968 
L 335.801595 -106.502997 
L 335.783881 -107.411027 
L 335.767501 -108.319056 
L 335.752225 -109.227086 
L 335.737813 -110.135116 
L 335.72402 -111.043145 
L 335.710598 -111.951175 
L 335.697292 -112.859205 
L 335.683849 -113.767234 
L 335.670014 -114.675264 
L 335.655537 -115.583294 
L 335.640172 -116.491323 
L 335.623679 -117.399353 
L 335.605827 -118.307382 
L 335.586396 -119.215412 
L 335.565175 -120.123442 
L 335.541971 -121.031471 
L 335.516603 -121.939501 
L 335.488911 -122.847531 
L 335.458748 -123.75556 
L 335.425992 -124.66359 
L 335.390538 -125.571619 
L 335.352306 -126.479649 
L 335.311235 -127.387679 
L 335.267291 -128.295708 
L 335.220463 -129.203738 
L 335.170763 -130.111768 
L 335.118228 -131.019797 
L 335.06292 -131.927827 
L 335.004926 -132.835856 
L 334.944355 -133.743886 
L 334.881341 -134.651916 
L 334.816041 -135.559945 
L 334.748632 -136.467975 
L 334.679315 -137.376005 
L 334.608308 -138.284034 
L 334.53585 -139.192064 
L 334.462195 -140.100093 
L 334.387613 -141.008123 
L 334.312391 -141.916153 
L 334.236824 -142.824182 
L 334.161221 -143.732212 
L 334.085899 -144.640242 
L 334.01118 -145.548271 
L 333.937393 -146.456301 
L 333.86487 -147.36433 
L 333.793943 -148.27236 
L 333.724944 -149.18039 
L 333.658203 -150.088419 
L 333.594044 -150.996449 
L 333.532786 -151.904479 
L 333.474737 -152.812508 
L 333.4202 -153.720538 
L 333.369461 -154.628568 
L 333.322798 -155.536597 
L 333.280472 -156.444627 
L 333.242728 -157.352656 
L 333.209796 -158.260686 
L 333.181886 -159.168716 
L 333.159191 -160.076745 
L 333.141883 -160.984775 
L 333.130114 -161.892805 
L 333.124015 -162.800834 
L 333.123696 -163.708864 
L 333.129245 -164.616893 
L 333.140727 -165.524923 
L 333.158188 -166.432953 
L 333.181649 -167.340982 
L 333.211112 -168.249012 
L 333.246555 -169.157042 
L 333.287938 -170.065071 
L 333.335198 -170.973101 
L 333.388254 -171.88113 
L 333.447006 -172.78916 
L 333.511334 -173.69719 
L 333.581102 -174.605219 
L 333.656157 -175.513249 
L 333.736332 -176.421279 
L 333.821444 -177.329308 
L 333.911295 -178.237338 
L 334.005678 -179.145367 
L 334.104374 -180.053397 
L 334.207152 -180.961427 
L 334.313774 -181.869456 
L 334.423994 -182.777486 
L 334.53756 -183.685516 
L 334.654213 -184.593545 
L 334.773692 -185.501575 
L 334.89573 -186.409604 
L 345.925125 -186.409604 
L 345.925125 -186.409604 
L 346.047163 -185.501575 
L 346.166642 -184.593545 
L 346.283295 -183.685516 
L 346.39686 -182.777486 
L 346.507081 -181.869456 
L 346.613703 -180.961427 
L 346.716481 -180.053397 
L 346.815177 -179.145367 
L 346.90956 -178.237338 
L 346.999411 -177.329308 
L 347.084523 -176.421279 
L 347.164697 -175.513249 
L 347.239753 -174.605219 
L 347.309521 -173.69719 
L 347.373849 -172.78916 
L 347.432601 -171.88113 
L 347.485657 -170.973101 
L 347.532917 -170.065071 
L 347.5743 -169.157042 
L 347.609743 -168.249012 
L 347.639206 -167.340982 
L 347.662667 -166.432953 
L 347.680128 -165.524923 
L 347.69161 -164.616893 
L 347.697159 -163.708864 
L 347.69684 -162.800834 
L 347.690741 -161.892805 
L 347.678972 -160.984775 
L 347.661664 -160.076745 
L 347.638969 -159.168716 
L 347.611059 -158.260686 
L 347.578127 -157.352656 
L 347.540383 -156.444627 
L 347.498057 -155.536597 
L 347.451394 -154.628568 
L 347.400655 -153.720538 
L 347.346118 -152.812508 
L 347.288069 -151.904479 
L 347.226811 -150.996449 
L 347.162652 -150.088419 
L 347.09591 -149.18039 
L 347.026912 -148.27236 
L 346.955985 -147.36433 
L 346.883462 -146.456301 
L 346.809675 -145.548271 
L 346.734956 -144.640242 
L 346.659634 -143.732212 
L 346.584031 -142.824182 
L 346.508464 -141.916153 
L 346.433242 -141.008123 
L 346.35866 -140.100093 
L 346.285005 -139.192064 
L 346.212547 -138.284034 
L 346.14154 -137.376005 
L 346.072223 -136.467975 
L 346.004814 -135.559945 
L 345.939514 -134.651916 
L 345.8765 -133.743886 
L 345.815929 -132.835856 
L 345.757935 -131.927827 
L 345.702627 -131.019797 
L 345.650092 -130.111768 
L 345.600392 -129.203738 
L 345.553563 -128.295708 
L 345.50962 -127.387679 
L 345.468549 -126.479649 
L 345.430317 -125.571619 
L 345.394863 -124.66359 
L 345.362107 -123.75556 
L 345.331944 -122.847531 
L 345.304251 -121.939501 
L 345.278884 -121.031471 
L 345.25568 -120.123442 
L 345.234459 -119.215412 
L 345.215027 -118.307382 
L 345.197175 -117.399353 
L 345.180683 -116.491323 
L 345.165318 -115.583294 
L 345.150841 -114.675264 
L 345.137006 -113.767234 
L 345.123563 -112.859205 
L 345.110257 -111.951175 
L 345.096834 -111.043145 
L 345.083042 -110.135116 
L 345.06863 -109.227086 
L 345.053354 -108.319056 
L 345.036973 -107.411027 
L 345.01926 -106.502997 
L 344.999993 -105.594968 
L 344.978963 -104.686938 
L 344.955976 -103.778908 
L 344.93085 -102.870879 
L 344.903419 -101.962849 
L 344.873533 -101.054819 
L 344.841059 -100.14679 
L 344.805883 -99.23876 
L 344.76791 -98.330731 
L 344.727063 -97.422701 
L 344.683284 -96.514671 
z
" style="stroke: #999999; stroke-width: 2"/>
    </defs>
    <g clip-path="url(#p803aed3bd4)">
     <use xlink:href="#m08a13c940f" x="0" y="255.11811" style="fill: #ffffff; stroke: #999999; stroke-width: 2"/>
    </g>
   </g>
   <g id="PolyCollection_6">
    <defs>
     <path id="mdd180ca581" d="M 424.356158 -71.877432 
L 384.549331 -71.877432 
L 384.006099 -72.235745 
L 383.480494 -72.594058 
L 382.97452 -72.952372 
L 382.490126 -73.310685 
L 382.029198 -73.668998 
L 381.593542 -74.027311 
L 381.184875 -74.385625 
L 380.804808 -74.743938 
L 380.454837 -75.102251 
L 380.13633 -75.460564 
L 379.850519 -75.818877 
L 379.598486 -76.177191 
L 379.38116 -76.535504 
L 379.199304 -76.893817 
L 379.053513 -77.25213 
L 378.944204 -77.610444 
L 378.87162 -77.968757 
L 378.835818 -78.32707 
L 378.836675 -78.685383 
L 378.873884 -79.043696 
L 378.94696 -79.40201 
L 379.055238 -79.760323 
L 379.197881 -80.118636 
L 379.373884 -80.476949 
L 379.582083 -80.835263 
L 379.82116 -81.193576 
L 380.089655 -81.551889 
L 380.385978 -81.910202 
L 380.708415 -82.268515 
L 381.055146 -82.626829 
L 381.424256 -82.985142 
L 381.813746 -83.343455 
L 382.221555 -83.701768 
L 382.645564 -84.060082 
L 383.08362 -84.418395 
L 383.533547 -84.776708 
L 383.993162 -85.135021 
L 384.46029 -85.493335 
L 384.932776 -85.851648 
L 385.408504 -86.209961 
L 385.885408 -86.568274 
L 386.361483 -86.926587 
L 386.834802 -87.284901 
L 387.303523 -87.643214 
L 387.765902 -88.001527 
L 388.220303 -88.35984 
L 388.665202 -88.718154 
L 389.099201 -89.076467 
L 389.521028 -89.43478 
L 389.929544 -89.793093 
L 390.323748 -90.151406 
L 390.702777 -90.50972 
L 391.06591 -90.868033 
L 391.412564 -91.226346 
L 391.742297 -91.584659 
L 392.054802 -91.942973 
L 392.349908 -92.301286 
L 392.627571 -92.659599 
L 392.887873 -93.017912 
L 393.131013 -93.376225 
L 393.357303 -93.734539 
L 393.567158 -94.092852 
L 393.761091 -94.451165 
L 393.939701 -94.809478 
L 394.103668 -95.167792 
L 394.253745 -95.526105 
L 394.390744 -95.884418 
L 394.515532 -96.242731 
L 394.629019 -96.601045 
L 394.73215 -96.959358 
L 394.825898 -97.317671 
L 394.911253 -97.675984 
L 394.989216 -98.034297 
L 395.060787 -98.392611 
L 395.126966 -98.750924 
L 395.188738 -99.109237 
L 395.247068 -99.46755 
L 395.3029 -99.825864 
L 395.357146 -100.184177 
L 395.410684 -100.54249 
L 395.46435 -100.900803 
L 395.518939 -101.259116 
L 395.575199 -101.61743 
L 395.633827 -101.975743 
L 395.695467 -102.334056 
L 395.760711 -102.692369 
L 395.830091 -103.050683 
L 395.904085 -103.408996 
L 395.983111 -103.767309 
L 396.067527 -104.125622 
L 396.157634 -104.483936 
L 396.253674 -104.842249 
L 396.35583 -105.200562 
L 396.464229 -105.558875 
L 396.57894 -105.917188 
L 396.699979 -106.275502 
L 396.827308 -106.633815 
L 396.960839 -106.992128 
L 397.100434 -107.350441 
L 411.805055 -107.350441 
L 411.805055 -107.350441 
L 411.944651 -106.992128 
L 412.078182 -106.633815 
L 412.205511 -106.275502 
L 412.32655 -105.917188 
L 412.44126 -105.558875 
L 412.549659 -105.200562 
L 412.651815 -104.842249 
L 412.747855 -104.483936 
L 412.837962 -104.125622 
L 412.922378 -103.767309 
L 413.001404 -103.408996 
L 413.075398 -103.050683 
L 413.144778 -102.692369 
L 413.210022 -102.334056 
L 413.271663 -101.975743 
L 413.330291 -101.61743 
L 413.38655 -101.259116 
L 413.44114 -100.900803 
L 413.494806 -100.54249 
L 413.548343 -100.184177 
L 413.602589 -99.825864 
L 413.658421 -99.46755 
L 413.716752 -99.109237 
L 413.778523 -98.750924 
L 413.844702 -98.392611 
L 413.916274 -98.034297 
L 413.994236 -97.675984 
L 414.079591 -97.317671 
L 414.173339 -96.959358 
L 414.27647 -96.601045 
L 414.389957 -96.242731 
L 414.514745 -95.884418 
L 414.651744 -95.526105 
L 414.801821 -95.167792 
L 414.965789 -94.809478 
L 415.144399 -94.451165 
L 415.338331 -94.092852 
L 415.548186 -93.734539 
L 415.774476 -93.376225 
L 416.017616 -93.017912 
L 416.277918 -92.659599 
L 416.555582 -92.301286 
L 416.850687 -91.942973 
L 417.163193 -91.584659 
L 417.492925 -91.226346 
L 417.839579 -90.868033 
L 418.202712 -90.50972 
L 418.581741 -90.151406 
L 418.975945 -89.793093 
L 419.384462 -89.43478 
L 419.806288 -89.076467 
L 420.240287 -88.718154 
L 420.685187 -88.35984 
L 421.139587 -88.001527 
L 421.601966 -87.643214 
L 422.070688 -87.284901 
L 422.544006 -86.926587 
L 423.020081 -86.568274 
L 423.496985 -86.209961 
L 423.972713 -85.851648 
L 424.445199 -85.493335 
L 424.912327 -85.135021 
L 425.371942 -84.776708 
L 425.821869 -84.418395 
L 426.259926 -84.060082 
L 426.683935 -83.701768 
L 427.091743 -83.343455 
L 427.481234 -82.985142 
L 427.850343 -82.626829 
L 428.197074 -82.268515 
L 428.519512 -81.910202 
L 428.815834 -81.551889 
L 429.08433 -81.193576 
L 429.323407 -80.835263 
L 429.531605 -80.476949 
L 429.707608 -80.118636 
L 429.850251 -79.760323 
L 429.958529 -79.40201 
L 430.031605 -79.043696 
L 430.068815 -78.685383 
L 430.069672 -78.32707 
L 430.033869 -77.968757 
L 429.961285 -77.610444 
L 429.851977 -77.25213 
L 429.706185 -76.893817 
L 429.524329 -76.535504 
L 429.307003 -76.177191 
L 429.05497 -75.818877 
L 428.769159 -75.460564 
L 428.450652 -75.102251 
L 428.100681 -74.743938 
L 427.720614 -74.385625 
L 427.311947 -74.027311 
L 426.876292 -73.668998 
L 426.415364 -73.310685 
L 425.930969 -72.952372 
L 425.424995 -72.594058 
L 424.89939 -72.235745 
L 424.356158 -71.877432 
z
" style="stroke: #999999; stroke-width: 2"/>
    </defs>
    <g clip-path="url(#p803aed3bd4)">
     <use xlink:href="#mdd180ca581" x="0" y="255.11811" style="fill: #ffffff; stroke: #999999; stroke-width: 2"/>
    </g>
   </g>
   <g id="PolyCollection_7">
    <defs>
     <path id="m0915d13c54" d="M 474.663738 -73.003136 
L 462.326385 -73.003136 
L 462.206914 -73.769093 
L 462.09323 -74.53505 
L 461.98556 -75.301006 
L 461.884086 -76.066963 
L 461.788952 -76.83292 
L 461.700262 -77.598876 
L 461.618073 -78.364833 
L 461.5424 -79.13079 
L 461.473212 -79.896746 
L 461.410437 -80.662703 
L 461.353955 -81.42866 
L 461.303607 -82.194616 
L 461.259191 -82.960573 
L 461.220464 -83.72653 
L 461.187148 -84.492486 
L 461.158928 -85.258443 
L 461.135458 -86.0244 
L 461.116361 -86.790356 
L 461.101236 -87.556313 
L 461.08966 -88.32227 
L 461.081193 -89.088226 
L 461.075378 -89.854183 
L 461.071751 -90.620139 
L 461.069843 -91.386096 
L 461.069181 -92.152053 
L 461.069299 -92.918009 
L 461.069737 -93.683966 
L 461.070048 -94.449923 
L 461.0698 -95.215879 
L 461.068582 -95.981836 
L 461.066008 -96.747793 
L 461.061718 -97.513749 
L 461.055384 -98.279706 
L 461.046713 -99.045663 
L 461.035445 -99.811619 
L 461.021363 -100.577576 
L 461.004288 -101.343533 
L 460.984087 -102.109489 
L 460.960666 -102.875446 
L 460.93398 -103.641403 
L 460.904026 -104.407359 
L 460.870847 -105.173316 
L 460.83453 -105.939273 
L 460.795207 -106.705229 
L 460.75305 -107.471186 
L 460.708274 -108.237143 
L 460.661131 -109.003099 
L 460.611912 -109.769056 
L 460.56094 -110.535013 
L 460.508571 -111.300969 
L 460.455188 -112.066926 
L 460.4012 -112.832883 
L 460.347035 -113.598839 
L 460.293142 -114.364796 
L 460.239981 -115.130753 
L 460.188025 -115.896709 
L 460.137752 -116.662666 
L 460.089642 -117.428623 
L 460.044173 -118.194579 
L 460.001819 -118.960536 
L 459.963044 -119.726493 
L 459.9283 -120.492449 
L 459.898024 -121.258406 
L 459.87263 -122.024363 
L 459.852513 -122.790319 
L 459.838041 -123.556276 
L 459.829556 -124.322232 
L 459.827367 -125.088189 
L 459.831754 -125.854146 
L 459.842961 -126.620102 
L 459.861198 -127.386059 
L 459.886638 -128.152016 
L 459.919417 -128.917972 
L 459.959634 -129.683929 
L 460.00735 -130.449886 
L 460.062588 -131.215842 
L 460.125335 -131.981799 
L 460.195541 -132.747756 
L 460.27312 -133.513712 
L 460.357953 -134.279669 
L 460.449888 -135.045626 
L 460.548741 -135.811582 
L 460.6543 -136.577539 
L 460.766324 -137.343496 
L 460.884548 -138.109452 
L 461.008685 -138.875409 
L 461.138425 -139.641366 
L 461.27344 -140.407322 
L 461.413389 -141.173279 
L 461.557912 -141.939236 
L 461.706643 -142.705192 
L 461.859204 -143.471149 
L 462.015211 -144.237106 
L 462.174275 -145.003062 
L 462.336007 -145.769019 
L 462.500014 -146.534976 
L 462.665908 -147.300932 
L 462.833303 -148.066889 
L 463.001819 -148.832846 
L 473.988304 -148.832846 
L 473.988304 -148.832846 
L 474.15682 -148.066889 
L 474.324216 -147.300932 
L 474.49011 -146.534976 
L 474.654117 -145.769019 
L 474.815849 -145.003062 
L 474.974913 -144.237106 
L 475.13092 -143.471149 
L 475.28348 -142.705192 
L 475.432211 -141.939236 
L 475.576735 -141.173279 
L 475.716683 -140.407322 
L 475.851699 -139.641366 
L 475.981439 -138.875409 
L 476.105576 -138.109452 
L 476.2238 -137.343496 
L 476.335824 -136.577539 
L 476.441383 -135.811582 
L 476.540236 -135.045626 
L 476.63217 -134.279669 
L 476.717003 -133.513712 
L 476.794583 -132.747756 
L 476.864789 -131.981799 
L 476.927536 -131.215842 
L 476.982774 -130.449886 
L 477.03049 -129.683929 
L 477.070707 -128.917972 
L 477.103486 -128.152016 
L 477.128926 -127.386059 
L 477.147163 -126.620102 
L 477.15837 -125.854146 
L 477.162757 -125.088189 
L 477.160568 -124.322232 
L 477.152083 -123.556276 
L 477.137611 -122.790319 
L 477.117494 -122.024363 
L 477.0921 -121.258406 
L 477.061823 -120.492449 
L 477.02708 -119.726493 
L 476.988305 -118.960536 
L 476.945951 -118.194579 
L 476.900482 -117.428623 
L 476.852372 -116.662666 
L 476.802098 -115.896709 
L 476.750142 -115.130753 
L 476.696982 -114.364796 
L 476.643089 -113.598839 
L 476.588924 -112.832883 
L 476.534935 -112.066926 
L 476.481552 -111.300969 
L 476.429183 -110.535013 
L 476.378212 -109.769056 
L 476.328993 -109.003099 
L 476.28185 -108.237143 
L 476.237074 -107.471186 
L 476.194917 -106.705229 
L 476.155594 -105.939273 
L 476.119277 -105.173316 
L 476.086098 -104.407359 
L 476.056144 -103.641403 
L 476.029458 -102.875446 
L 476.006037 -102.109489 
L 475.985835 -101.343533 
L 475.968761 -100.577576 
L 475.954679 -99.811619 
L 475.943411 -99.045663 
L 475.934739 -98.279706 
L 475.928406 -97.513749 
L 475.924116 -96.747793 
L 475.921542 -95.981836 
L 475.920324 -95.215879 
L 475.920076 -94.449923 
L 475.920387 -93.683966 
L 475.920825 -92.918009 
L 475.920943 -92.152053 
L 475.920281 -91.386096 
L 475.918373 -90.620139 
L 475.914746 -89.854183 
L 475.908931 -89.088226 
L 475.900463 -88.32227 
L 475.888888 -87.556313 
L 475.873763 -86.790356 
L 475.854666 -86.0244 
L 475.831195 -85.258443 
L 475.802975 -84.492486 
L 475.769659 -83.72653 
L 475.730933 -82.960573 
L 475.686516 -82.194616 
L 475.636169 -81.42866 
L 475.579687 -80.662703 
L 475.516912 -79.896746 
L 475.447724 -79.13079 
L 475.372051 -78.364833 
L 475.289862 -77.598876 
L 475.201171 -76.83292 
L 475.106038 -76.066963 
L 475.004564 -75.301006 
L 474.896893 -74.53505 
L 474.78321 -73.769093 
L 474.663738 -73.003136 
z
" style="stroke: #999999; stroke-width: 2"/>
    </defs>
    <g clip-path="url(#p803aed3bd4)">
     <use xlink:href="#m0915d13c54" x="0" y="255.11811" style="fill: #ffffff; stroke: #999999; stroke-width: 2"/>
    </g>
   </g>
   <g id="PathCollection_1"/>
   <g id="PathCollection_2"/>
   <g id="patch_3">
    <path d="M 52.22 213.89811 
L 52.22 24.32 
" style="fill: none; stroke: #262626; stroke-width: 1.25; stroke-linejoin: miter; stroke-linecap: square"/>
   </g>
   <g id="patch_4">
    <path d="M 52.22 213.89811 
L 500.51622 213.89811 
" style="fill: none; stroke: #262626; stroke-width: 1.25; stroke-linejoin: miter; stroke-linecap: square"/>
   </g>
   <g id="PathCollection_3">
    <defs>
     <path id="C0_0_3eb29e65f4" d="M 0 2.5 
C 0.663008 2.5 1.29895 2.236584 1.767767 1.767767 
C 2.236584 1.29895 2.5 0.663008 2.5 -0 
C 2.5 -0.663008 2.236584 -1.29895 1.767767 -1.767767 
C 1.29895 -2.236584 0.663008 -2.5 0 -2.5 
C -0.663008 -2.5 -1.29895 -2.236584 -1.767767 -1.767767 
C -2.236584 -1.29895 -2.5 -0.663008 -2.5 0 
C -2.5 0.663008 -2.236584 1.29895 -1.767767 1.767767 
C -1.29895 2.236584 -0.663008 2.5 0 2.5 
z
"/>
    </defs>
    <g clip-path="url(#p803aed3bd4)">
     <use xlink:href="#C0_0_3eb29e65f4" x="84.375248" y="139.991013" style="fill: #4c72b0; fill-opacity: 0.75"/>
    </g>
    <g clip-path="url(#p803aed3bd4)">
     <use xlink:href="#C0_0_3eb29e65f4" x="78.233629" y="152.852095" style="fill: #4c72b0; fill-opacity: 0.75"/>
    </g>
    <g clip-path="url(#p803aed3bd4)">
     <use xlink:href="#C0_0_3eb29e65f4" x="89.410192" y="149.323967" style="fill: #4c72b0; fill-opacity: 0.75"/>
    </g>
    <g clip-path="url(#p803aed3bd4)">
     <use xlink:href="#C0_0_3eb29e65f4" x="84.700417" y="179.987207" style="fill: #4c72b0; fill-opacity: 0.75"/>
    </g>
    <g clip-path="url(#p803aed3bd4)">
     <use xlink:href="#C0_0_3eb29e65f4" x="88.952595" y="187.370131" style="fill: #dd8452; fill-opacity: 0.75"/>
    </g>
    <g clip-path="url(#p803aed3bd4)">
     <use xlink:href="#C0_0_3eb29e65f4" x="89.450047" y="183.502858" style="fill: #dd8452; fill-opacity: 0.75"/>
    </g>
    <g clip-path="url(#p803aed3bd4)">
     <use xlink:href="#C0_0_3eb29e65f4" x="78.948034" y="188.970721" style="fill: #dd8452; fill-opacity: 0.75"/>
    </g>
    <g clip-path="url(#p803aed3bd4)">
     <use xlink:href="#C0_0_3eb29e65f4" x="89.611458" y="185.016999" style="fill: #dd8452; fill-opacity: 0.75"/>
    </g>
   </g>
   <g id="PathCollection_4">
    <defs>
     <path id="C1_0_8eccb6c58b" d="M 0 2.5 
C 0.663008 2.5 1.29895 2.236584 1.767767 1.767767 
C 2.236584 1.29895 2.5 0.663008 2.5 -0 
C 2.5 -0.663008 2.236584 -1.29895 1.767767 -1.767767 
C 1.29895 -2.236584 0.663008 -2.5 0 -2.5 
C -0.663008 -2.5 -1.29895 -2.236584 -1.767767 -1.767767 
C -2.236584 -1.29895 -2.5 -0.663008 -2.5 0 
C -2.5 0.663008 -2.236584 1.29895 -1.767767 1.767767 
C -1.29895 2.236584 -0.663008 2.5 0 2.5 
z
"/>
    </defs>
    <g clip-path="url(#p803aed3bd4)">
     <use xlink:href="#C1_0_8eccb6c58b" x="152.811238" y="149.867892" style="fill: #4c72b0; fill-opacity: 0.75"/>
    </g>
    <g clip-path="url(#p803aed3bd4)">
     <use xlink:href="#C1_0_8eccb6c58b" x="149.251241" y="168.594554" style="fill: #4c72b0; fill-opacity: 0.75"/>
    </g>
    <g clip-path="url(#p803aed3bd4)">
     <use xlink:href="#C1_0_8eccb6c58b" x="148.998901" y="189.745576" style="fill: #4c72b0; fill-opacity: 0.75"/>
    </g>
    <g clip-path="url(#p803aed3bd4)">
     <use xlink:href="#C1_0_8eccb6c58b" x="151.887015" y="166.582196" style="fill: #4c72b0; fill-opacity: 0.75"/>
    </g>
    <g clip-path="url(#p803aed3bd4)">
     <use xlink:href="#C1_0_8eccb6c58b" x="147.679392" y="178.437636" style="fill: #dd8452; fill-opacity: 0.75"/>
    </g>
    <g clip-path="url(#p803aed3bd4)">
     <use xlink:href="#C1_0_8eccb6c58b" x="142.323627" y="188.779847" style="fill: #dd8452; fill-opacity: 0.75"/>
    </g>
    <g clip-path="url(#p803aed3bd4)">
     <use xlink:href="#C1_0_8eccb6c58b" x="143.455286" y="185.93199" style="fill: #dd8452; fill-opacity: 0.75"/>
    </g>
    <g clip-path="url(#p803aed3bd4)">
     <use xlink:href="#C1_0_8eccb6c58b" x="144.303077" y="102.581973" style="fill: #dd8452; fill-opacity: 0.75"/>
    </g>
   </g>
   <g id="PathCollection_5">
    <defs>
     <path id="C2_0_f5c0b4a7ac" d="M 0 2.5 
C 0.663008 2.5 1.29895 2.236584 1.767767 1.767767 
C 2.236584 1.29895 2.5 0.663008 2.5 -0 
C 2.5 -0.663008 2.236584 -1.29895 1.767767 -1.767767 
C 1.29895 -2.236584 0.663008 -2.5 0 -2.5 
C -0.663008 -2.5 -1.29895 -2.236584 -1.767767 -1.767767 
C -2.236584 -1.29895 -2.5 -0.663008 -2.5 0 
C -2.5 0.663008 -2.236584 1.29895 -1.767767 1.767767 
C -1.29895 2.236584 -0.663008 2.5 0 2.5 
z
"/>
    </defs>
    <g clip-path="url(#p803aed3bd4)">
     <use xlink:href="#C2_0_f5c0b4a7ac" x="217.547778" y="179.030575" style="fill: #4c72b0; fill-opacity: 0.75"/>
    </g>
    <g clip-path="url(#p803aed3bd4)">
     <use xlink:href="#C2_0_f5c0b4a7ac" x="216.958542" y="120.397642" style="fill: #4c72b0; fill-opacity: 0.75"/>
    </g>
    <g clip-path="url(#p803aed3bd4)">
     <use xlink:href="#C2_0_f5c0b4a7ac" x="217.628828" y="165.280104" style="fill: #4c72b0; fill-opacity: 0.75"/>
    </g>
    <g clip-path="url(#p803aed3bd4)">
     <use xlink:href="#C2_0_f5c0b4a7ac" x="208.443027" y="188.491575" style="fill: #4c72b0; fill-opacity: 0.75"/>
    </g>
    <g clip-path="url(#p803aed3bd4)">
     <use xlink:href="#C2_0_f5c0b4a7ac" x="212.564103" y="205.280923" style="fill: #dd8452; fill-opacity: 0.75"/>
    </g>
    <g clip-path="url(#p803aed3bd4)">
     <use xlink:href="#C2_0_f5c0b4a7ac" x="206.599586" y="200.188746" style="fill: #dd8452; fill-opacity: 0.75"/>
    </g>
    <g clip-path="url(#p803aed3bd4)">
     <use xlink:href="#C2_0_f5c0b4a7ac" x="211.076659" y="165.358515" style="fill: #dd8452; fill-opacity: 0.75"/>
    </g>
    <g clip-path="url(#p803aed3bd4)">
     <use xlink:href="#C2_0_f5c0b4a7ac" x="208.167742" y="193.970107" style="fill: #dd8452; fill-opacity: 0.75"/>
    </g>
   </g>
   <g id="PathCollection_6">
    <defs>
     <path id="C3_0_424a92c61a" d="M 0 2.5 
C 0.663008 2.5 1.29895 2.236584 1.767767 1.767767 
C 2.236584 1.29895 2.5 0.663008 2.5 -0 
C 2.5 -0.663008 2.236584 -1.29895 1.767767 -1.767767 
C 1.29895 -2.236584 0.663008 -2.5 0 -2.5 
C -0.663008 -2.5 -1.29895 -2.236584 -1.767767 -1.767767 
C -2.236584 -1.29895 -2.5 -0.663008 -2.5 0 
C -2.5 0.663008 -2.236584 1.29895 -1.767767 1.767767 
C -1.29895 2.236584 -0.663008 2.5 0 2.5 
z
"/>
    </defs>
    <g clip-path="url(#p803aed3bd4)">
     <use xlink:href="#C3_0_424a92c61a" x="274.463383" y="178.108812" style="fill: #4c72b0; fill-opacity: 0.75"/>
    </g>
    <g clip-path="url(#p803aed3bd4)">
     <use xlink:href="#C3_0_424a92c61a" x="277.246428" y="182.731138" style="fill: #4c72b0; fill-opacity: 0.75"/>
    </g>
    <g clip-path="url(#p803aed3bd4)">
     <use xlink:href="#C3_0_424a92c61a" x="274.852843" y="187.291207" style="fill: #4c72b0; fill-opacity: 0.75"/>
    </g>
    <g clip-path="url(#p803aed3bd4)">
     <use xlink:href="#C3_0_424a92c61a" x="278.358417" y="185.087438" style="fill: #4c72b0; fill-opacity: 0.75"/>
    </g>
    <g clip-path="url(#p803aed3bd4)">
     <use xlink:href="#C3_0_424a92c61a" x="277.665031" y="139.476817" style="fill: #4c72b0; fill-opacity: 0.75"/>
    </g>
    <g clip-path="url(#p803aed3bd4)">
     <use xlink:href="#C3_0_424a92c61a" x="282.683282" y="116.024144" style="fill: #dd8452; fill-opacity: 0.75"/>
    </g>
    <g clip-path="url(#p803aed3bd4)">
     <use xlink:href="#C3_0_424a92c61a" x="281.044178" y="135.995726" style="fill: #dd8452; fill-opacity: 0.75"/>
    </g>
    <g clip-path="url(#p803aed3bd4)">
     <use xlink:href="#C3_0_424a92c61a" x="277.087955" y="149.617828" style="fill: #dd8452; fill-opacity: 0.75"/>
    </g>
    <g clip-path="url(#p803aed3bd4)">
     <use xlink:href="#C3_0_424a92c61a" x="282.51116" y="52.323803" style="fill: #dd8452; fill-opacity: 0.75"/>
    </g>
    <g clip-path="url(#p803aed3bd4)">
     <use xlink:href="#C3_0_424a92c61a" x="279.869536" y="32.937187" style="fill: #dd8452; fill-opacity: 0.75"/>
    </g>
   </g>
   <g id="PathCollection_7">
    <defs>
     <path id="C4_0_e6ce98c83d" d="M 0 2.5 
C 0.663008 2.5 1.29895 2.236584 1.767767 1.767767 
C 2.236584 1.29895 2.5 0.663008 2.5 -0 
C 2.5 -0.663008 2.236584 -1.29895 1.767767 -1.767767 
C 1.29895 -2.236584 0.663008 -2.5 0 -2.5 
C -0.663008 -2.5 -1.29895 -2.236584 -1.767767 -1.767767 
C -2.236584 -1.29895 -2.5 -0.663008 -2.5 0 
C -2.5 0.663008 -2.236584 1.29895 -1.767767 1.767767 
C -1.29895 2.236584 -0.663008 2.5 0 2.5 
z
"/>
    </defs>
    <g clip-path="url(#p803aed3bd4)">
     <use xlink:href="#C4_0_e6ce98c83d" x="341.747635" y="102.343356" style="fill: #4c72b0; fill-opacity: 0.75"/>
    </g>
    <g clip-path="url(#p803aed3bd4)">
     <use xlink:href="#C4_0_e6ce98c83d" x="340.876962" y="151.960125" style="fill: #4c72b0; fill-opacity: 0.75"/>
    </g>
    <g clip-path="url(#p803aed3bd4)">
     <use xlink:href="#C4_0_e6ce98c83d" x="336.117042" y="158.603439" style="fill: #4c72b0; fill-opacity: 0.75"/>
    </g>
    <g clip-path="url(#p803aed3bd4)">
     <use xlink:href="#C4_0_e6ce98c83d" x="344.194024" y="86.266905" style="fill: #dd8452; fill-opacity: 0.75"/>
    </g>
    <g clip-path="url(#p803aed3bd4)">
     <use xlink:href="#C4_0_e6ce98c83d" x="336.576953" y="68.708506" style="fill: #dd8452; fill-opacity: 0.75"/>
    </g>
    <g clip-path="url(#p803aed3bd4)">
     <use xlink:href="#C4_0_e6ce98c83d" x="345.701932" y="97.206077" style="fill: #dd8452; fill-opacity: 0.75"/>
    </g>
   </g>
   <g id="PathCollection_8">
    <defs>
     <path id="C5_0_e763e6ba51" d="M 0 2.5 
C 0.663008 2.5 1.29895 2.236584 1.767767 1.767767 
C 2.236584 1.29895 2.5 0.663008 2.5 -0 
C 2.5 -0.663008 2.236584 -1.29895 1.767767 -1.767767 
C 1.29895 -2.236584 0.663008 -2.5 0 -2.5 
C -0.663008 -2.5 -1.29895 -2.236584 -1.767767 -1.767767 
C -2.236584 -1.29895 -2.5 -0.663008 -2.5 0 
C -2.5 0.663008 -2.236584 1.29895 -1.767767 1.767767 
C -1.29895 2.236584 -0.663008 2.5 0 2.5 
z
"/>
    </defs>
    <g clip-path="url(#p803aed3bd4)">
     <use xlink:href="#C5_0_e763e6ba51" x="406.184519" y="183.240678" style="fill: #4c72b0; fill-opacity: 0.75"/>
    </g>
    <g clip-path="url(#p803aed3bd4)">
     <use xlink:href="#C5_0_e763e6ba51" x="400.427614" y="147.767669" style="fill: #4c72b0; fill-opacity: 0.75"/>
    </g>
    <g clip-path="url(#p803aed3bd4)">
     <use xlink:href="#C5_0_e763e6ba51" x="403.891289" y="156.984412" style="fill: #4c72b0; fill-opacity: 0.75"/>
    </g>
    <g clip-path="url(#p803aed3bd4)">
     <use xlink:href="#C5_0_e763e6ba51" x="405.342936" y="172.981044" style="fill: #4c72b0; fill-opacity: 0.75"/>
    </g>
    <g clip-path="url(#p803aed3bd4)">
     <use xlink:href="#C5_0_e763e6ba51" x="405.063774" y="176.603804" style="fill: #dd8452; fill-opacity: 0.75"/>
    </g>
    <g clip-path="url(#p803aed3bd4)">
     <use xlink:href="#C5_0_e763e6ba51" x="409.874397" y="178.041779" style="fill: #dd8452; fill-opacity: 0.75"/>
    </g>
    <g clip-path="url(#p803aed3bd4)">
     <use xlink:href="#C5_0_e763e6ba51" x="404.364042" y="171.04867" style="fill: #dd8452; fill-opacity: 0.75"/>
    </g>
    <g clip-path="url(#p803aed3bd4)">
     <use xlink:href="#C5_0_e763e6ba51" x="403.384086" y="179.393101" style="fill: #dd8452; fill-opacity: 0.75"/>
    </g>
   </g>
   <g id="PathCollection_9">
    <defs>
     <path id="C6_0_7a6660b1f0" d="M 0 2.5 
C 0.663008 2.5 1.29895 2.236584 1.767767 1.767767 
C 2.236584 1.29895 2.5 0.663008 2.5 -0 
C 2.5 -0.663008 2.236584 -1.29895 1.767767 -1.767767 
C 1.29895 -2.236584 0.663008 -2.5 0 -2.5 
C -0.663008 -2.5 -1.29895 -2.236584 -1.767767 -1.767767 
C -2.236584 -1.29895 -2.5 -0.663008 -2.5 0 
C -2.5 0.663008 -2.236584 1.29895 -1.767767 1.767767 
C -1.29895 2.236584 -0.663008 2.5 0 2.5 
z
"/>
    </defs>
    <g clip-path="url(#p803aed3bd4)">
     <use xlink:href="#C6_0_7a6660b1f0" x="466.774825" y="148.050191" style="fill: #4c72b0; fill-opacity: 0.75"/>
    </g>
    <g clip-path="url(#p803aed3bd4)">
     <use xlink:href="#C6_0_7a6660b1f0" x="468.526588" y="132.137179" style="fill: #4c72b0; fill-opacity: 0.75"/>
    </g>
    <g clip-path="url(#p803aed3bd4)">
     <use xlink:href="#C6_0_7a6660b1f0" x="468.018476" y="124.439856" style="fill: #4c72b0; fill-opacity: 0.75"/>
    </g>
    <g clip-path="url(#p803aed3bd4)">
     <use xlink:href="#C6_0_7a6660b1f0" x="466.537101" y="125.81572" style="fill: #4c72b0; fill-opacity: 0.75"/>
    </g>
    <g clip-path="url(#p803aed3bd4)">
     <use xlink:href="#C6_0_7a6660b1f0" x="464.45922" y="171.153647" style="fill: #dd8452; fill-opacity: 0.75"/>
    </g>
    <g clip-path="url(#p803aed3bd4)">
     <use xlink:href="#C6_0_7a6660b1f0" x="468.243138" y="173.044065" style="fill: #dd8452; fill-opacity: 0.75"/>
    </g>
    <g clip-path="url(#p803aed3bd4)">
     <use xlink:href="#C6_0_7a6660b1f0" x="466.326323" y="182.114974" style="fill: #dd8452; fill-opacity: 0.75"/>
    </g>
    <g clip-path="url(#p803aed3bd4)">
     <use xlink:href="#C6_0_7a6660b1f0" x="464.070058" y="106.285265" style="fill: #dd8452; fill-opacity: 0.75"/>
    </g>
   </g>
   <g id="text_15">
    <!-- FOS, $p_{adj}$ &lt; .001 *** -->
    <g style="fill: #262626" transform="translate(52.22 18.32)scale(0.09 -0.09)">
     <defs>
      <path id="ArialMT-46" d="M 525 0 
L 525 4581 
L 3616 4581 
L 3616 4041 
L 1131 4041 
L 1131 2622 
L 3281 2622 
L 3281 2081 
L 1131 2081 
L 1131 0 
L 525 0 
z
" transform="scale(0.015625)"/>
      <path id="ArialMT-4f" d="M 309 2231 
Q 309 3372 921 4017 
Q 1534 4663 2503 4663 
Q 3138 4663 3647 4359 
Q 4156 4056 4423 3514 
Q 4691 2972 4691 2284 
Q 4691 1588 4409 1038 
Q 4128 488 3612 205 
Q 3097 -78 2500 -78 
Q 1853 -78 1343 234 
Q 834 547 571 1087 
Q 309 1628 309 2231 
z
M 934 2222 
Q 934 1394 1379 917 
Q 1825 441 2497 441 
Q 3181 441 3623 922 
Q 4066 1403 4066 2288 
Q 4066 2847 3877 3264 
Q 3688 3681 3323 3911 
Q 2959 4141 2506 4141 
Q 1863 4141 1398 3698 
Q 934 3256 934 2222 
z
" transform="scale(0.015625)"/>
      <path id="ArialMT-53" d="M 288 1472 
L 859 1522 
Q 900 1178 1048 958 
Q 1197 738 1509 602 
Q 1822 466 2213 466 
Q 2559 466 2825 569 
Q 3091 672 3220 851 
Q 3350 1031 3350 1244 
Q 3350 1459 3225 1620 
Q 3100 1781 2813 1891 
Q 2628 1963 1997 2114 
Q 1366 2266 1113 2400 
Q 784 2572 623 2826 
Q 463 3081 463 3397 
Q 463 3744 659 4045 
Q 856 4347 1234 4503 
Q 1613 4659 2075 4659 
Q 2584 4659 2973 4495 
Q 3363 4331 3572 4012 
Q 3781 3694 3797 3291 
L 3216 3247 
Q 3169 3681 2898 3903 
Q 2628 4125 2100 4125 
Q 1550 4125 1298 3923 
Q 1047 3722 1047 3438 
Q 1047 3191 1225 3031 
Q 1400 2872 2139 2705 
Q 2878 2538 3153 2413 
Q 3553 2228 3743 1945 
Q 3934 1663 3934 1294 
Q 3934 928 3725 604 
Q 3516 281 3123 101 
Q 2731 -78 2241 -78 
Q 1619 -78 1198 103 
Q 778 284 539 648 
Q 300 1013 288 1472 
z
" transform="scale(0.015625)"/>
      <path id="ArialMT-2c" d="M 569 0 
L 569 641 
L 1209 641 
L 1209 0 
Q 1209 -353 1084 -570 
Q 959 -788 688 -906 
L 531 -666 
Q 709 -588 793 -436 
Q 878 -284 888 0 
L 569 0 
z
" transform="scale(0.015625)"/>
      <path id="DejaVuSans-Oblique-70" d="M 3175 2156 
Q 3175 2616 2975 2859 
Q 2775 3103 2400 3103 
Q 2144 3103 1911 2972 
Q 1678 2841 1497 2591 
Q 1319 2344 1212 1994 
Q 1106 1644 1106 1300 
Q 1106 863 1306 627 
Q 1506 391 1875 391 
Q 2147 391 2380 519 
Q 2613 647 2778 891 
Q 2956 1147 3065 1494 
Q 3175 1841 3175 2156 
z
M 1394 2969 
Q 1625 3272 1939 3428 
Q 2253 3584 2638 3584 
Q 3175 3584 3472 3232 
Q 3769 2881 3769 2247 
Q 3769 1728 3584 1258 
Q 3400 788 3053 416 
Q 2822 169 2531 39 
Q 2241 -91 1919 -91 
Q 1547 -91 1294 64 
Q 1041 219 916 525 
L 556 -1331 
L -19 -1331 
L 922 3500 
L 1497 3500 
L 1394 2969 
z
" transform="scale(0.015625)"/>
      <path id="DejaVuSans-Oblique-61" d="M 3438 1997 
L 3047 0 
L 2472 0 
L 2578 531 
Q 2325 219 2001 64 
Q 1678 -91 1281 -91 
Q 834 -91 548 182 
Q 263 456 263 884 
Q 263 1497 752 1853 
Q 1241 2209 2100 2209 
L 2900 2209 
L 2931 2363 
Q 2938 2388 2941 2417 
Q 2944 2447 2944 2509 
Q 2944 2788 2717 2942 
Q 2491 3097 2081 3097 
Q 1800 3097 1504 3025 
Q 1209 2953 897 2809 
L 997 3341 
Q 1322 3463 1633 3523 
Q 1944 3584 2234 3584 
Q 2853 3584 3176 3315 
Q 3500 3047 3500 2534 
Q 3500 2431 3484 2292 
Q 3469 2153 3438 1997 
z
M 2816 1759 
L 2241 1759 
Q 1534 1759 1195 1570 
Q 856 1381 856 984 
Q 856 709 1029 553 
Q 1203 397 1509 397 
Q 1978 397 2328 733 
Q 2678 1069 2791 1631 
L 2816 1759 
z
" transform="scale(0.015625)"/>
      <path id="DejaVuSans-Oblique-64" d="M 2675 525 
Q 2444 222 2128 65 
Q 1813 -91 1428 -91 
Q 903 -91 598 267 
Q 294 625 294 1247 
Q 294 1766 478 2236 
Q 663 2706 1013 3078 
Q 1244 3325 1534 3454 
Q 1825 3584 2144 3584 
Q 2481 3584 2739 3421 
Q 2997 3259 3138 2956 
L 3513 4863 
L 4091 4863 
L 3144 0 
L 2566 0 
L 2675 525 
z
M 891 1350 
Q 891 897 1095 644 
Q 1300 391 1663 391 
Q 1931 391 2161 520 
Q 2391 650 2566 903 
Q 2750 1166 2856 1509 
Q 2963 1853 2963 2188 
Q 2963 2622 2758 2865 
Q 2553 3109 2194 3109 
Q 1922 3109 1687 2981 
Q 1453 2853 1288 2613 
Q 1106 2353 998 2009 
Q 891 1666 891 1350 
z
" transform="scale(0.015625)"/>
      <path id="DejaVuSans-Oblique-6a" d="M 928 3500 
L 1503 3500 
L 813 -63 
L 809 -78 
Q 694 -675 544 -897 
Q 403 -1106 132 -1218 
Q -138 -1331 -506 -1331 
L -722 -1331 
L -628 -844 
L -481 -844 
Q -144 -844 -1 -703 
Q 141 -563 238 -63 
L 928 3500 
z
M 1197 4863 
L 1772 4863 
L 1631 4134 
L 1056 4134 
L 1197 4863 
z
" transform="scale(0.015625)"/>
      <path id="ArialMT-3c" d="M 350 2003 
L 350 2528 
L 3384 3809 
L 3384 3250 
L 978 2263 
L 3384 1266 
L 3384 706 
L 350 2003 
z
" transform="scale(0.015625)"/>
      <path id="ArialMT-2e" d="M 581 0 
L 581 641 
L 1222 641 
L 1222 0 
L 581 0 
z
" transform="scale(0.015625)"/>
      <path id="ArialMT-2a" d="M 200 3741 
L 344 4184 
Q 841 4009 1066 3881 
Q 1006 4447 1003 4659 
L 1456 4659 
Q 1447 4350 1384 3884 
Q 1706 4047 2122 4184 
L 2266 3741 
Q 1869 3609 1488 3566 
Q 1678 3400 2025 2975 
L 1650 2709 
Q 1469 2956 1222 3381 
Q 991 2941 816 2709 
L 447 2975 
Q 809 3422 966 3566 
Q 563 3644 200 3741 
z
" transform="scale(0.015625)"/>
     </defs>
     <use xlink:href="#ArialMT-46" transform="translate(0 0.140625)"/>
     <use xlink:href="#ArialMT-4f" transform="translate(61.083984 0.140625)"/>
     <use xlink:href="#ArialMT-53" transform="translate(138.867188 0.140625)"/>
     <use xlink:href="#ArialMT-2c" transform="translate(205.566406 0.140625)"/>
     <use xlink:href="#ArialMT-20" transform="translate(233.349609 0.140625)"/>
     <use xlink:href="#DejaVuSans-Oblique-70" transform="translate(261.132812 0.140625)"/>
     <use xlink:href="#DejaVuSans-Oblique-61" transform="translate(324.609375 -16.265625)scale(0.7)"/>
     <use xlink:href="#DejaVuSans-Oblique-64" transform="translate(367.504883 -16.265625)scale(0.7)"/>
     <use xlink:href="#DejaVuSans-Oblique-6a" transform="translate(411.938477 -16.265625)scale(0.7)"/>
     <use xlink:href="#ArialMT-20" transform="translate(434.121094 0.140625)"/>
     <use xlink:href="#ArialMT-3c" transform="translate(461.904297 0.140625)"/>
     <use xlink:href="#ArialMT-20" transform="translate(520.302734 0.140625)"/>
     <use xlink:href="#ArialMT-2e" transform="translate(548.085938 0.140625)"/>
     <use xlink:href="#ArialMT-30" transform="translate(575.869141 0.140625)"/>
     <use xlink:href="#ArialMT-30" transform="translate(631.484375 0.140625)"/>
     <use xlink:href="#ArialMT-31" transform="translate(687.099609 0.140625)"/>
     <use xlink:href="#ArialMT-20" transform="translate(742.714844 0.140625)"/>
     <use xlink:href="#ArialMT-2a" transform="translate(770.498047 0.140625)"/>
     <use xlink:href="#ArialMT-2a" transform="translate(809.414062 0.140625)"/>
     <use xlink:href="#ArialMT-2a" transform="translate(848.330078 0.140625)"/>
    </g>
   </g>
   <g id="legend_1">
    <g id="patch_5">
     <path d="M 441.91497 69.712344 
L 494.21622 69.712344 
Q 496.01622 69.712344 496.01622 67.912344 
L 496.01622 30.62 
Q 496.01622 28.82 494.21622 28.82 
L 441.91497 28.82 
Q 440.11497 28.82 440.11497 30.62 
L 440.11497 67.912344 
Q 440.11497 69.712344 441.91497 69.712344 
z
" style="fill: #ffffff; opacity: 0.8; stroke: #cccccc; stroke-linejoin: miter"/>
    </g>
    <g id="text_16">
     <!-- Treatment -->
     <g style="fill: #262626" transform="translate(447.729111 38.862031)scale(0.09 -0.09)">
      <use xlink:href="#ArialMT-54"/>
      <use xlink:href="#ArialMT-72" x="57.333984"/>
      <use xlink:href="#ArialMT-65" x="90.634766"/>
      <use xlink:href="#ArialMT-61" x="146.25"/>
      <use xlink:href="#ArialMT-74" x="201.865234"/>
      <use xlink:href="#ArialMT-6d" x="229.648438"/>
      <use xlink:href="#ArialMT-65" x="312.949219"/>
      <use xlink:href="#ArialMT-6e" x="368.564453"/>
      <use xlink:href="#ArialMT-74" x="424.179688"/>
     </g>
    </g>
    <g id="PathCollection_10">
     <defs>
      <path id="m056f5b5460" d="M 0 3.872983 
C 1.027127 3.872983 2.012324 3.464901 2.738613 2.738613 
C 3.464901 2.012324 3.872983 1.027127 3.872983 0 
C 3.872983 -1.027127 3.464901 -2.012324 2.738613 -2.738613 
C 2.012324 -3.464901 1.027127 -3.872983 0 -3.872983 
C -1.027127 -3.872983 -2.012324 -3.464901 -2.738613 -2.738613 
C -3.464901 -2.012324 -3.872983 -1.027127 -3.872983 0 
C -3.872983 1.027127 -3.464901 2.012324 -2.738613 2.738613 
C -2.012324 3.464901 -1.027127 3.872983 0 3.872983 
z
" style="stroke: #4c72b0"/>
     </defs>
     <g>
      <use xlink:href="#m056f5b5460" x="452.71497" y="49.230313" style="fill: #4c72b0; stroke: #4c72b0"/>
     </g>
    </g>
    <g id="text_17">
     <!-- BEVA -->
     <g style="fill: #262626" transform="translate(468.91497 51.592813)scale(0.09 -0.09)">
      <defs>
       <path id="ArialMT-42" d="M 469 0 
L 469 4581 
L 2188 4581 
Q 2713 4581 3030 4442 
Q 3347 4303 3526 4014 
Q 3706 3725 3706 3409 
Q 3706 3116 3547 2856 
Q 3388 2597 3066 2438 
Q 3481 2316 3704 2022 
Q 3928 1728 3928 1328 
Q 3928 1006 3792 729 
Q 3656 453 3456 303 
Q 3256 153 2954 76 
Q 2653 0 2216 0 
L 469 0 
z
M 1075 2656 
L 2066 2656 
Q 2469 2656 2644 2709 
Q 2875 2778 2992 2937 
Q 3109 3097 3109 3338 
Q 3109 3566 3000 3739 
Q 2891 3913 2687 3977 
Q 2484 4041 1991 4041 
L 1075 4041 
L 1075 2656 
z
M 1075 541 
L 2216 541 
Q 2509 541 2628 563 
Q 2838 600 2978 687 
Q 3119 775 3209 942 
Q 3300 1109 3300 1328 
Q 3300 1584 3169 1773 
Q 3038 1963 2805 2039 
Q 2572 2116 2134 2116 
L 1075 2116 
L 1075 541 
z
" transform="scale(0.015625)"/>
       <path id="ArialMT-45" d="M 506 0 
L 506 4581 
L 3819 4581 
L 3819 4041 
L 1113 4041 
L 1113 2638 
L 3647 2638 
L 3647 2100 
L 1113 2100 
L 1113 541 
L 3925 541 
L 3925 0 
L 506 0 
z
" transform="scale(0.015625)"/>
       <path id="ArialMT-56" d="M 1803 0 
L 28 4581 
L 684 4581 
L 1875 1253 
Q 2019 853 2116 503 
Q 2222 878 2363 1253 
L 3600 4581 
L 4219 4581 
L 2425 0 
L 1803 0 
z
" transform="scale(0.015625)"/>
       <path id="ArialMT-41" d="M -9 0 
L 1750 4581 
L 2403 4581 
L 4278 0 
L 3588 0 
L 3053 1388 
L 1138 1388 
L 634 0 
L -9 0 
z
M 1313 1881 
L 2866 1881 
L 2388 3150 
Q 2169 3728 2063 4100 
Q 1975 3659 1816 3225 
L 1313 1881 
z
" transform="scale(0.015625)"/>
      </defs>
      <use xlink:href="#ArialMT-42"/>
      <use xlink:href="#ArialMT-45" x="66.699219"/>
      <use xlink:href="#ArialMT-56" x="133.398438"/>
      <use xlink:href="#ArialMT-41" x="192.722656"/>
     </g>
    </g>
    <g id="PathCollection_11">
     <defs>
      <path id="m8a76fe056a" d="M 0 3.872983 
C 1.027127 3.872983 2.012324 3.464901 2.738613 2.738613 
C 3.464901 2.012324 3.872983 1.027127 3.872983 0 
C 3.872983 -1.027127 3.464901 -2.012324 2.738613 -2.738613 
C 2.012324 -3.464901 1.027127 -3.872983 0 -3.872983 
C -1.027127 -3.872983 -2.012324 -3.464901 -2.738613 -2.738613 
C -3.464901 -2.012324 -3.872983 -1.027127 -3.872983 0 
C -3.872983 1.027127 -3.464901 2.012324 -2.738613 2.738613 
C -2.012324 3.464901 -1.027127 3.872983 0 3.872983 
z
" style="stroke: #dd8452"/>
     </defs>
     <g>
      <use xlink:href="#m8a76fe056a" x="452.71497" y="61.961094" style="fill: #dd8452; stroke: #dd8452"/>
     </g>
    </g>
    <g id="text_18">
     <!-- CTRL -->
     <g style="fill: #262626" transform="translate(468.91497 64.323594)scale(0.09 -0.09)">
      <defs>
       <path id="ArialMT-43" d="M 3763 1606 
L 4369 1453 
Q 4178 706 3683 314 
Q 3188 -78 2472 -78 
Q 1731 -78 1267 223 
Q 803 525 561 1097 
Q 319 1669 319 2325 
Q 319 3041 592 3573 
Q 866 4106 1370 4382 
Q 1875 4659 2481 4659 
Q 3169 4659 3637 4309 
Q 4106 3959 4291 3325 
L 3694 3184 
Q 3534 3684 3231 3912 
Q 2928 4141 2469 4141 
Q 1941 4141 1586 3887 
Q 1231 3634 1087 3207 
Q 944 2781 944 2328 
Q 944 1744 1114 1308 
Q 1284 872 1643 656 
Q 2003 441 2422 441 
Q 2931 441 3284 734 
Q 3638 1028 3763 1606 
z
" transform="scale(0.015625)"/>
       <path id="ArialMT-52" d="M 503 0 
L 503 4581 
L 2534 4581 
Q 3147 4581 3465 4457 
Q 3784 4334 3975 4021 
Q 4166 3709 4166 3331 
Q 4166 2844 3850 2509 
Q 3534 2175 2875 2084 
Q 3116 1969 3241 1856 
Q 3506 1613 3744 1247 
L 4541 0 
L 3778 0 
L 3172 953 
Q 2906 1366 2734 1584 
Q 2563 1803 2427 1890 
Q 2291 1978 2150 2013 
Q 2047 2034 1813 2034 
L 1109 2034 
L 1109 0 
L 503 0 
z
M 1109 2559 
L 2413 2559 
Q 2828 2559 3062 2645 
Q 3297 2731 3419 2920 
Q 3541 3109 3541 3331 
Q 3541 3656 3305 3865 
Q 3069 4075 2559 4075 
L 1109 4075 
L 1109 2559 
z
" transform="scale(0.015625)"/>
       <path id="ArialMT-4c" d="M 469 0 
L 469 4581 
L 1075 4581 
L 1075 541 
L 3331 541 
L 3331 0 
L 469 0 
z
" transform="scale(0.015625)"/>
      </defs>
      <use xlink:href="#ArialMT-43"/>
      <use xlink:href="#ArialMT-54" x="72.216797"/>
      <use xlink:href="#ArialMT-52" x="133.300781"/>
      <use xlink:href="#ArialMT-4c" x="205.517578"/>
     </g>
    </g>
   </g>
  </g>
 </g>
 <defs>
  <clipPath id="p803aed3bd4">
   <rect x="52.22" y="24.32" width="448.29622" height="189.57811"/>
  </clipPath>
 </defs>
</svg>
