<?xml version="1.0" encoding="utf-8" standalone="no"?>
<!DOCTYPE svg PUBLIC "-//W3C//DTD SVG 1.1//EN"
  "http://www.w3.org/Graphics/SVG/1.1/DTD/svg11.dtd">
<svg xmlns:xlink="http://www.w3.org/1999/xlink" width="510.23622pt" height="255.11811pt" viewBox="0 0 510.23622 255.11811" xmlns="http://www.w3.org/2000/svg" version="1.1">
 <metadata>
  <rdf:RDF xmlns:dc="http://purl.org/dc/elements/1.1/" xmlns:cc="http://creativecommons.org/ns#" xmlns:rdf="http://www.w3.org/1999/02/22-rdf-syntax-ns#">
   <cc:Work>
    <dc:type rdf:resource="http://purl.org/dc/dcmitype/StillImage"/>
    <dc:date>2022-04-27T00:14:02.064150</dc:date>
    <dc:format>image/svg+xml</dc:format>
    <dc:creator>
     <cc:Agent>
      <dc:title>Matplotlib v3.5.1, https://matplotlib.org/</dc:title>
     </cc:Agent>
    </dc:creator>
   </cc:Work>
  </rdf:RDF>
 </metadata>
 <defs>
  <style type="text/css">*{stroke-linejoin: round; stroke-linecap: butt}</style>
 </defs>
 <g id="figure_1">
  <g id="patch_1">
   <path d="M 0 255.11811 
L 510.23622 255.11811 
L 510.23622 0 
L 0 0 
z
" style="fill: #ffffff"/>
  </g>
  <g id="axes_1">
   <g id="patch_2">
    <path d="M 47.22 213.89811 
L 500.51622 213.89811 
L 500.51622 24.32 
L 47.22 24.32 
z
" style="fill: #ffffff"/>
   </g>
   <g id="matplotlib.axis_1">
    <g id="xtick_1">
     <g id="text_1">
      <!-- 49 -->
      <g style="fill: #444444" transform="translate(74.593458 229.840141)scale(0.09 -0.09)">
       <defs>
        <path id="ArialMT-34" d="M 2069 0 
L 2069 1097 
L 81 1097 
L 81 1613 
L 2172 4581 
L 2631 4581 
L 2631 1613 
L 3250 1613 
L 3250 1097 
L 2631 1097 
L 2631 0 
L 2069 0 
z
M 2069 1613 
L 2069 3678 
L 634 1613 
L 2069 1613 
z
" transform="scale(0.015625)"/>
        <path id="ArialMT-39" d="M 350 1059 
L 891 1109 
Q 959 728 1153 556 
Q 1347 384 1650 384 
Q 1909 384 2104 503 
Q 2300 622 2425 820 
Q 2550 1019 2634 1356 
Q 2719 1694 2719 2044 
Q 2719 2081 2716 2156 
Q 2547 1888 2255 1720 
Q 1963 1553 1622 1553 
Q 1053 1553 659 1965 
Q 266 2378 266 3053 
Q 266 3750 677 4175 
Q 1088 4600 1706 4600 
Q 2153 4600 2523 4359 
Q 2894 4119 3086 3673 
Q 3278 3228 3278 2384 
Q 3278 1506 3087 986 
Q 2897 466 2520 194 
Q 2144 -78 1638 -78 
Q 1100 -78 759 220 
Q 419 519 350 1059 
z
M 2653 3081 
Q 2653 3566 2395 3850 
Q 2138 4134 1775 4134 
Q 1400 4134 1122 3828 
Q 844 3522 844 3034 
Q 844 2597 1108 2323 
Q 1372 2050 1759 2050 
Q 2150 2050 2401 2323 
Q 2653 2597 2653 3081 
z
" transform="scale(0.015625)"/>
       </defs>
       <use xlink:href="#ArialMT-34"/>
       <use xlink:href="#ArialMT-39" x="55.615234"/>
      </g>
     </g>
    </g>
    <g id="xtick_2">
     <g id="text_2">
      <!-- 17 -->
      <g style="fill: #444444" transform="translate(139.350061 229.840141)scale(0.09 -0.09)">
       <defs>
        <path id="ArialMT-31" d="M 2384 0 
L 1822 0 
L 1822 3584 
Q 1619 3391 1289 3197 
Q 959 3003 697 2906 
L 697 3450 
Q 1169 3672 1522 3987 
Q 1875 4303 2022 4600 
L 2384 4600 
L 2384 0 
z
" transform="scale(0.015625)"/>
        <path id="ArialMT-37" d="M 303 3981 
L 303 4522 
L 3269 4522 
L 3269 4084 
Q 2831 3619 2401 2847 
Q 1972 2075 1738 1259 
Q 1569 684 1522 0 
L 944 0 
Q 953 541 1156 1306 
Q 1359 2072 1739 2783 
Q 2119 3494 2547 3981 
L 303 3981 
z
" transform="scale(0.015625)"/>
       </defs>
       <use xlink:href="#ArialMT-31"/>
       <use xlink:href="#ArialMT-37" x="55.615234"/>
      </g>
     </g>
    </g>
    <g id="xtick_3">
     <g id="text_3">
      <!-- 69 -->
      <g style="fill: #444444" transform="translate(204.106664 229.840141)scale(0.09 -0.09)">
       <defs>
        <path id="ArialMT-36" d="M 3184 3459 
L 2625 3416 
Q 2550 3747 2413 3897 
Q 2184 4138 1850 4138 
Q 1581 4138 1378 3988 
Q 1113 3794 959 3422 
Q 806 3050 800 2363 
Q 1003 2672 1297 2822 
Q 1591 2972 1913 2972 
Q 2475 2972 2870 2558 
Q 3266 2144 3266 1488 
Q 3266 1056 3080 686 
Q 2894 316 2569 119 
Q 2244 -78 1831 -78 
Q 1128 -78 684 439 
Q 241 956 241 2144 
Q 241 3472 731 4075 
Q 1159 4600 1884 4600 
Q 2425 4600 2770 4297 
Q 3116 3994 3184 3459 
z
M 888 1484 
Q 888 1194 1011 928 
Q 1134 663 1356 523 
Q 1578 384 1822 384 
Q 2178 384 2434 671 
Q 2691 959 2691 1453 
Q 2691 1928 2437 2201 
Q 2184 2475 1800 2475 
Q 1419 2475 1153 2201 
Q 888 1928 888 1484 
z
" transform="scale(0.015625)"/>
       </defs>
       <use xlink:href="#ArialMT-36"/>
       <use xlink:href="#ArialMT-39" x="55.615234"/>
      </g>
     </g>
    </g>
    <g id="xtick_4">
     <g id="text_4">
      <!-- 15 -->
      <g style="fill: #444444" transform="translate(268.863266 229.840141)scale(0.09 -0.09)">
       <defs>
        <path id="ArialMT-35" d="M 266 1200 
L 856 1250 
Q 922 819 1161 601 
Q 1400 384 1738 384 
Q 2144 384 2425 690 
Q 2706 997 2706 1503 
Q 2706 1984 2436 2262 
Q 2166 2541 1728 2541 
Q 1456 2541 1237 2417 
Q 1019 2294 894 2097 
L 366 2166 
L 809 4519 
L 3088 4519 
L 3088 3981 
L 1259 3981 
L 1013 2750 
Q 1425 3038 1878 3038 
Q 2478 3038 2890 2622 
Q 3303 2206 3303 1553 
Q 3303 931 2941 478 
Q 2500 -78 1738 -78 
Q 1113 -78 717 272 
Q 322 622 266 1200 
z
" transform="scale(0.015625)"/>
       </defs>
       <use xlink:href="#ArialMT-31"/>
       <use xlink:href="#ArialMT-35" x="55.615234"/>
      </g>
     </g>
    </g>
    <g id="xtick_5">
     <g id="text_5">
      <!-- 5 -->
      <g style="fill: #444444" transform="translate(336.122291 229.840141)scale(0.09 -0.09)">
       <use xlink:href="#ArialMT-35"/>
      </g>
     </g>
    </g>
    <g id="xtick_6">
     <g id="text_6">
      <!-- 126 -->
      <g style="fill: #444444" transform="translate(395.87405 229.840141)scale(0.09 -0.09)">
       <defs>
        <path id="ArialMT-32" d="M 3222 541 
L 3222 0 
L 194 0 
Q 188 203 259 391 
Q 375 700 629 1000 
Q 884 1300 1366 1694 
Q 2113 2306 2375 2664 
Q 2638 3022 2638 3341 
Q 2638 3675 2398 3904 
Q 2159 4134 1775 4134 
Q 1369 4134 1125 3890 
Q 881 3647 878 3216 
L 300 3275 
Q 359 3922 746 4261 
Q 1134 4600 1788 4600 
Q 2447 4600 2831 4234 
Q 3216 3869 3216 3328 
Q 3216 3053 3103 2787 
Q 2991 2522 2730 2228 
Q 2469 1934 1863 1422 
Q 1356 997 1212 845 
Q 1069 694 975 541 
L 3222 541 
z
" transform="scale(0.015625)"/>
       </defs>
       <use xlink:href="#ArialMT-31"/>
       <use xlink:href="#ArialMT-32" x="55.615234"/>
       <use xlink:href="#ArialMT-36" x="111.230469"/>
      </g>
     </g>
    </g>
    <g id="xtick_7">
     <g id="text_7">
      <!-- 62 -->
      <g style="fill: #444444" transform="translate(463.133075 229.840141)scale(0.09 -0.09)">
       <use xlink:href="#ArialMT-36"/>
       <use xlink:href="#ArialMT-32" x="55.615234"/>
      </g>
     </g>
    </g>
    <g id="text_8">
     <!-- Patient -->
     <g style="fill: #444444" transform="translate(259.859048 242.070923)scale(0.09 -0.09)">
      <defs>
       <path id="ArialMT-50" d="M 494 0 
L 494 4581 
L 2222 4581 
Q 2678 4581 2919 4538 
Q 3256 4481 3484 4323 
Q 3713 4166 3852 3881 
Q 3991 3597 3991 3256 
Q 3991 2672 3619 2267 
Q 3247 1863 2275 1863 
L 1100 1863 
L 1100 0 
L 494 0 
z
M 1100 2403 
L 2284 2403 
Q 2872 2403 3119 2622 
Q 3366 2841 3366 3238 
Q 3366 3525 3220 3729 
Q 3075 3934 2838 4000 
Q 2684 4041 2272 4041 
L 1100 4041 
L 1100 2403 
z
" transform="scale(0.015625)"/>
       <path id="ArialMT-61" d="M 2588 409 
Q 2275 144 1986 34 
Q 1697 -75 1366 -75 
Q 819 -75 525 192 
Q 231 459 231 875 
Q 231 1119 342 1320 
Q 453 1522 633 1644 
Q 813 1766 1038 1828 
Q 1203 1872 1538 1913 
Q 2219 1994 2541 2106 
Q 2544 2222 2544 2253 
Q 2544 2597 2384 2738 
Q 2169 2928 1744 2928 
Q 1347 2928 1158 2789 
Q 969 2650 878 2297 
L 328 2372 
Q 403 2725 575 2942 
Q 747 3159 1072 3276 
Q 1397 3394 1825 3394 
Q 2250 3394 2515 3294 
Q 2781 3194 2906 3042 
Q 3031 2891 3081 2659 
Q 3109 2516 3109 2141 
L 3109 1391 
Q 3109 606 3145 398 
Q 3181 191 3288 0 
L 2700 0 
Q 2613 175 2588 409 
z
M 2541 1666 
Q 2234 1541 1622 1453 
Q 1275 1403 1131 1340 
Q 988 1278 909 1158 
Q 831 1038 831 891 
Q 831 666 1001 516 
Q 1172 366 1500 366 
Q 1825 366 2078 508 
Q 2331 650 2450 897 
Q 2541 1088 2541 1459 
L 2541 1666 
z
" transform="scale(0.015625)"/>
       <path id="ArialMT-74" d="M 1650 503 
L 1731 6 
Q 1494 -44 1306 -44 
Q 1000 -44 831 53 
Q 663 150 594 308 
Q 525 466 525 972 
L 525 2881 
L 113 2881 
L 113 3319 
L 525 3319 
L 525 4141 
L 1084 4478 
L 1084 3319 
L 1650 3319 
L 1650 2881 
L 1084 2881 
L 1084 941 
Q 1084 700 1114 631 
Q 1144 563 1211 522 
Q 1278 481 1403 481 
Q 1497 481 1650 503 
z
" transform="scale(0.015625)"/>
       <path id="ArialMT-69" d="M 425 3934 
L 425 4581 
L 988 4581 
L 988 3934 
L 425 3934 
z
M 425 0 
L 425 3319 
L 988 3319 
L 988 0 
L 425 0 
z
" transform="scale(0.015625)"/>
       <path id="ArialMT-65" d="M 2694 1069 
L 3275 997 
Q 3138 488 2766 206 
Q 2394 -75 1816 -75 
Q 1088 -75 661 373 
Q 234 822 234 1631 
Q 234 2469 665 2931 
Q 1097 3394 1784 3394 
Q 2450 3394 2872 2941 
Q 3294 2488 3294 1666 
Q 3294 1616 3291 1516 
L 816 1516 
Q 847 969 1125 678 
Q 1403 388 1819 388 
Q 2128 388 2347 550 
Q 2566 713 2694 1069 
z
M 847 1978 
L 2700 1978 
Q 2663 2397 2488 2606 
Q 2219 2931 1791 2931 
Q 1403 2931 1139 2672 
Q 875 2413 847 1978 
z
" transform="scale(0.015625)"/>
       <path id="ArialMT-6e" d="M 422 0 
L 422 3319 
L 928 3319 
L 928 2847 
Q 1294 3394 1984 3394 
Q 2284 3394 2536 3286 
Q 2788 3178 2913 3003 
Q 3038 2828 3088 2588 
Q 3119 2431 3119 2041 
L 3119 0 
L 2556 0 
L 2556 2019 
Q 2556 2363 2490 2533 
Q 2425 2703 2258 2804 
Q 2091 2906 1866 2906 
Q 1506 2906 1245 2678 
Q 984 2450 984 1813 
L 984 0 
L 422 0 
z
" transform="scale(0.015625)"/>
      </defs>
      <use xlink:href="#ArialMT-50"/>
      <use xlink:href="#ArialMT-61" x="66.699219"/>
      <use xlink:href="#ArialMT-74" x="122.314453"/>
      <use xlink:href="#ArialMT-69" x="150.097656"/>
      <use xlink:href="#ArialMT-65" x="172.314453"/>
      <use xlink:href="#ArialMT-6e" x="227.929688"/>
      <use xlink:href="#ArialMT-74" x="283.544922"/>
     </g>
    </g>
   </g>
   <g id="matplotlib.axis_2">
    <g id="ytick_1">
     <g id="text_9">
      <!-- 0 -->
      <g style="fill: #444444" transform="translate(32.715156 213.621966)scale(0.09 -0.09)">
       <defs>
        <path id="ArialMT-30" d="M 266 2259 
Q 266 3072 433 3567 
Q 600 4063 929 4331 
Q 1259 4600 1759 4600 
Q 2128 4600 2406 4451 
Q 2684 4303 2865 4023 
Q 3047 3744 3150 3342 
Q 3253 2941 3253 2259 
Q 3253 1453 3087 958 
Q 2922 463 2592 192 
Q 2263 -78 1759 -78 
Q 1097 -78 719 397 
Q 266 969 266 2259 
z
M 844 2259 
Q 844 1131 1108 757 
Q 1372 384 1759 384 
Q 2147 384 2411 759 
Q 2675 1134 2675 2259 
Q 2675 3391 2411 3762 
Q 2147 4134 1753 4134 
Q 1366 4134 1134 3806 
Q 844 3388 844 2259 
z
" transform="scale(0.015625)"/>
       </defs>
       <use xlink:href="#ArialMT-30"/>
      </g>
     </g>
    </g>
    <g id="ytick_2">
     <g id="text_10">
      <!-- 20 -->
      <g style="fill: #444444" transform="translate(27.710313 180.542563)scale(0.09 -0.09)">
       <use xlink:href="#ArialMT-32"/>
       <use xlink:href="#ArialMT-30" x="55.615234"/>
      </g>
     </g>
    </g>
    <g id="ytick_3">
     <g id="text_11">
      <!-- 40 -->
      <g style="fill: #444444" transform="translate(27.710313 147.46316)scale(0.09 -0.09)">
       <use xlink:href="#ArialMT-34"/>
       <use xlink:href="#ArialMT-30" x="55.615234"/>
      </g>
     </g>
    </g>
    <g id="ytick_4">
     <g id="text_12">
      <!-- 60 -->
      <g style="fill: #444444" transform="translate(27.710313 114.383757)scale(0.09 -0.09)">
       <use xlink:href="#ArialMT-36"/>
       <use xlink:href="#ArialMT-30" x="55.615234"/>
      </g>
     </g>
    </g>
    <g id="ytick_5">
     <g id="text_13">
      <!-- 80 -->
      <g style="fill: #444444" transform="translate(27.710313 81.304354)scale(0.09 -0.09)">
       <defs>
        <path id="ArialMT-38" d="M 1131 2484 
Q 781 2613 612 2850 
Q 444 3088 444 3419 
Q 444 3919 803 4259 
Q 1163 4600 1759 4600 
Q 2359 4600 2725 4251 
Q 3091 3903 3091 3403 
Q 3091 3084 2923 2848 
Q 2756 2613 2416 2484 
Q 2838 2347 3058 2040 
Q 3278 1734 3278 1309 
Q 3278 722 2862 322 
Q 2447 -78 1769 -78 
Q 1091 -78 675 323 
Q 259 725 259 1325 
Q 259 1772 486 2073 
Q 713 2375 1131 2484 
z
M 1019 3438 
Q 1019 3113 1228 2906 
Q 1438 2700 1772 2700 
Q 2097 2700 2305 2904 
Q 2513 3109 2513 3406 
Q 2513 3716 2298 3927 
Q 2084 4138 1766 4138 
Q 1444 4138 1231 3931 
Q 1019 3725 1019 3438 
z
M 838 1322 
Q 838 1081 952 856 
Q 1066 631 1291 507 
Q 1516 384 1775 384 
Q 2178 384 2440 643 
Q 2703 903 2703 1303 
Q 2703 1709 2433 1975 
Q 2163 2241 1756 2241 
Q 1359 2241 1098 1978 
Q 838 1716 838 1322 
z
" transform="scale(0.015625)"/>
       </defs>
       <use xlink:href="#ArialMT-38"/>
       <use xlink:href="#ArialMT-30" x="55.615234"/>
      </g>
     </g>
    </g>
    <g id="ytick_6">
     <g id="text_14">
      <!-- 100 -->
      <g style="fill: #444444" transform="translate(22.705469 48.224951)scale(0.09 -0.09)">
       <use xlink:href="#ArialMT-31"/>
       <use xlink:href="#ArialMT-30" x="55.615234"/>
       <use xlink:href="#ArialMT-30" x="111.230469"/>
      </g>
     </g>
    </g>
    <g id="text_15">
     <!-- Trimmed Means of M values (TMM) -->
     <g style="fill: #444444" transform="translate(16.81125 190.194993)rotate(-90)scale(0.09 -0.09)">
      <defs>
       <path id="ArialMT-54" d="M 1659 0 
L 1659 4041 
L 150 4041 
L 150 4581 
L 3781 4581 
L 3781 4041 
L 2266 4041 
L 2266 0 
L 1659 0 
z
" transform="scale(0.015625)"/>
       <path id="ArialMT-72" d="M 416 0 
L 416 3319 
L 922 3319 
L 922 2816 
Q 1116 3169 1280 3281 
Q 1444 3394 1641 3394 
Q 1925 3394 2219 3213 
L 2025 2691 
Q 1819 2813 1613 2813 
Q 1428 2813 1281 2702 
Q 1134 2591 1072 2394 
Q 978 2094 978 1738 
L 978 0 
L 416 0 
z
" transform="scale(0.015625)"/>
       <path id="ArialMT-6d" d="M 422 0 
L 422 3319 
L 925 3319 
L 925 2853 
Q 1081 3097 1340 3245 
Q 1600 3394 1931 3394 
Q 2300 3394 2536 3241 
Q 2772 3088 2869 2813 
Q 3263 3394 3894 3394 
Q 4388 3394 4653 3120 
Q 4919 2847 4919 2278 
L 4919 0 
L 4359 0 
L 4359 2091 
Q 4359 2428 4304 2576 
Q 4250 2725 4106 2815 
Q 3963 2906 3769 2906 
Q 3419 2906 3187 2673 
Q 2956 2441 2956 1928 
L 2956 0 
L 2394 0 
L 2394 2156 
Q 2394 2531 2256 2718 
Q 2119 2906 1806 2906 
Q 1569 2906 1367 2781 
Q 1166 2656 1075 2415 
Q 984 2175 984 1722 
L 984 0 
L 422 0 
z
" transform="scale(0.015625)"/>
       <path id="ArialMT-64" d="M 2575 0 
L 2575 419 
Q 2259 -75 1647 -75 
Q 1250 -75 917 144 
Q 584 363 401 755 
Q 219 1147 219 1656 
Q 219 2153 384 2558 
Q 550 2963 881 3178 
Q 1213 3394 1622 3394 
Q 1922 3394 2156 3267 
Q 2391 3141 2538 2938 
L 2538 4581 
L 3097 4581 
L 3097 0 
L 2575 0 
z
M 797 1656 
Q 797 1019 1065 703 
Q 1334 388 1700 388 
Q 2069 388 2326 689 
Q 2584 991 2584 1609 
Q 2584 2291 2321 2609 
Q 2059 2928 1675 2928 
Q 1300 2928 1048 2622 
Q 797 2316 797 1656 
z
" transform="scale(0.015625)"/>
       <path id="ArialMT-20" transform="scale(0.015625)"/>
       <path id="ArialMT-4d" d="M 475 0 
L 475 4581 
L 1388 4581 
L 2472 1338 
Q 2622 884 2691 659 
Q 2769 909 2934 1394 
L 4031 4581 
L 4847 4581 
L 4847 0 
L 4263 0 
L 4263 3834 
L 2931 0 
L 2384 0 
L 1059 3900 
L 1059 0 
L 475 0 
z
" transform="scale(0.015625)"/>
       <path id="ArialMT-73" d="M 197 991 
L 753 1078 
Q 800 744 1014 566 
Q 1228 388 1613 388 
Q 2000 388 2187 545 
Q 2375 703 2375 916 
Q 2375 1106 2209 1216 
Q 2094 1291 1634 1406 
Q 1016 1563 777 1677 
Q 538 1791 414 1992 
Q 291 2194 291 2438 
Q 291 2659 392 2848 
Q 494 3038 669 3163 
Q 800 3259 1026 3326 
Q 1253 3394 1513 3394 
Q 1903 3394 2198 3281 
Q 2494 3169 2634 2976 
Q 2775 2784 2828 2463 
L 2278 2388 
Q 2241 2644 2061 2787 
Q 1881 2931 1553 2931 
Q 1166 2931 1000 2803 
Q 834 2675 834 2503 
Q 834 2394 903 2306 
Q 972 2216 1119 2156 
Q 1203 2125 1616 2013 
Q 2213 1853 2448 1751 
Q 2684 1650 2818 1456 
Q 2953 1263 2953 975 
Q 2953 694 2789 445 
Q 2625 197 2315 61 
Q 2006 -75 1616 -75 
Q 969 -75 630 194 
Q 291 463 197 991 
z
" transform="scale(0.015625)"/>
       <path id="ArialMT-6f" d="M 213 1659 
Q 213 2581 725 3025 
Q 1153 3394 1769 3394 
Q 2453 3394 2887 2945 
Q 3322 2497 3322 1706 
Q 3322 1066 3130 698 
Q 2938 331 2570 128 
Q 2203 -75 1769 -75 
Q 1072 -75 642 372 
Q 213 819 213 1659 
z
M 791 1659 
Q 791 1022 1069 705 
Q 1347 388 1769 388 
Q 2188 388 2466 706 
Q 2744 1025 2744 1678 
Q 2744 2294 2464 2611 
Q 2184 2928 1769 2928 
Q 1347 2928 1069 2612 
Q 791 2297 791 1659 
z
" transform="scale(0.015625)"/>
       <path id="ArialMT-66" d="M 556 0 
L 556 2881 
L 59 2881 
L 59 3319 
L 556 3319 
L 556 3672 
Q 556 4006 616 4169 
Q 697 4388 901 4523 
Q 1106 4659 1475 4659 
Q 1713 4659 2000 4603 
L 1916 4113 
Q 1741 4144 1584 4144 
Q 1328 4144 1222 4034 
Q 1116 3925 1116 3625 
L 1116 3319 
L 1763 3319 
L 1763 2881 
L 1116 2881 
L 1116 0 
L 556 0 
z
" transform="scale(0.015625)"/>
       <path id="ArialMT-76" d="M 1344 0 
L 81 3319 
L 675 3319 
L 1388 1331 
Q 1503 1009 1600 663 
Q 1675 925 1809 1294 
L 2547 3319 
L 3125 3319 
L 1869 0 
L 1344 0 
z
" transform="scale(0.015625)"/>
       <path id="ArialMT-6c" d="M 409 0 
L 409 4581 
L 972 4581 
L 972 0 
L 409 0 
z
" transform="scale(0.015625)"/>
       <path id="ArialMT-75" d="M 2597 0 
L 2597 488 
Q 2209 -75 1544 -75 
Q 1250 -75 995 37 
Q 741 150 617 320 
Q 494 491 444 738 
Q 409 903 409 1263 
L 409 3319 
L 972 3319 
L 972 1478 
Q 972 1038 1006 884 
Q 1059 663 1231 536 
Q 1403 409 1656 409 
Q 1909 409 2131 539 
Q 2353 669 2445 892 
Q 2538 1116 2538 1541 
L 2538 3319 
L 3100 3319 
L 3100 0 
L 2597 0 
z
" transform="scale(0.015625)"/>
       <path id="ArialMT-28" d="M 1497 -1347 
Q 1031 -759 709 28 
Q 388 816 388 1659 
Q 388 2403 628 3084 
Q 909 3875 1497 4659 
L 1900 4659 
Q 1522 4009 1400 3731 
Q 1209 3300 1100 2831 
Q 966 2247 966 1656 
Q 966 153 1900 -1347 
L 1497 -1347 
z
" transform="scale(0.015625)"/>
       <path id="ArialMT-29" d="M 791 -1347 
L 388 -1347 
Q 1322 153 1322 1656 
Q 1322 2244 1188 2822 
Q 1081 3291 891 3722 
Q 769 4003 388 4659 
L 791 4659 
Q 1378 3875 1659 3084 
Q 1900 2403 1900 1659 
Q 1900 816 1576 28 
Q 1253 -759 791 -1347 
z
" transform="scale(0.015625)"/>
      </defs>
      <use xlink:href="#ArialMT-54"/>
      <use xlink:href="#ArialMT-72" x="57.333984"/>
      <use xlink:href="#ArialMT-69" x="90.634766"/>
      <use xlink:href="#ArialMT-6d" x="112.851562"/>
      <use xlink:href="#ArialMT-6d" x="196.152344"/>
      <use xlink:href="#ArialMT-65" x="279.453125"/>
      <use xlink:href="#ArialMT-64" x="335.068359"/>
      <use xlink:href="#ArialMT-20" x="390.683594"/>
      <use xlink:href="#ArialMT-4d" x="418.466797"/>
      <use xlink:href="#ArialMT-65" x="501.767578"/>
      <use xlink:href="#ArialMT-61" x="557.382812"/>
      <use xlink:href="#ArialMT-6e" x="612.998047"/>
      <use xlink:href="#ArialMT-73" x="668.613281"/>
      <use xlink:href="#ArialMT-20" x="718.613281"/>
      <use xlink:href="#ArialMT-6f" x="746.396484"/>
      <use xlink:href="#ArialMT-66" x="802.011719"/>
      <use xlink:href="#ArialMT-20" x="829.794922"/>
      <use xlink:href="#ArialMT-4d" x="857.578125"/>
      <use xlink:href="#ArialMT-20" x="940.878906"/>
      <use xlink:href="#ArialMT-76" x="968.662109"/>
      <use xlink:href="#ArialMT-61" x="1018.662109"/>
      <use xlink:href="#ArialMT-6c" x="1074.277344"/>
      <use xlink:href="#ArialMT-75" x="1096.494141"/>
      <use xlink:href="#ArialMT-65" x="1152.109375"/>
      <use xlink:href="#ArialMT-73" x="1207.724609"/>
      <use xlink:href="#ArialMT-20" x="1257.724609"/>
      <use xlink:href="#ArialMT-28" x="1285.507812"/>
      <use xlink:href="#ArialMT-54" x="1318.808594"/>
      <use xlink:href="#ArialMT-4d" x="1379.892578"/>
      <use xlink:href="#ArialMT-4d" x="1463.193359"/>
      <use xlink:href="#ArialMT-29" x="1546.494141"/>
     </g>
    </g>
   </g>
   <g id="PolyCollection_1">
    <defs>
     <path id="m4c579165f3" d="M 81.671364 -150.193798 
L 77.525239 -150.193798 
L 77.498574 -150.876024 
L 77.474051 -151.558249 
L 77.451736 -152.240475 
L 77.431689 -152.9227 
L 77.41396 -153.604926 
L 77.39859 -154.287151 
L 77.385611 -154.969376 
L 77.375043 -155.651602 
L 77.366898 -156.333827 
L 77.361175 -157.016053 
L 77.357867 -157.698278 
L 77.356952 -158.380504 
L 77.358401 -159.062729 
L 77.362173 -159.744955 
L 77.368219 -160.42718 
L 77.376476 -161.109405 
L 77.386877 -161.791631 
L 77.399343 -162.473856 
L 77.413786 -163.156082 
L 77.430111 -163.838307 
L 77.448216 -164.520533 
L 77.467989 -165.202758 
L 77.489315 -165.884983 
L 77.512072 -166.567209 
L 77.536132 -167.249434 
L 77.561364 -167.93166 
L 77.587633 -168.613885 
L 77.6148 -169.296111 
L 77.642725 -169.978336 
L 77.671268 -170.660562 
L 77.700286 -171.342787 
L 77.729638 -172.025012 
L 77.759183 -172.707238 
L 77.788784 -173.389463 
L 77.818304 -174.071689 
L 77.84761 -174.753914 
L 77.876575 -175.43614 
L 77.905074 -176.118365 
L 77.93299 -176.800591 
L 77.960211 -177.482816 
L 77.98663 -178.165041 
L 78.01215 -178.847267 
L 78.036678 -179.529492 
L 78.060134 -180.211718 
L 78.082442 -180.893943 
L 78.103535 -181.576169 
L 78.123359 -182.258394 
L 78.141864 -182.940619 
L 78.159013 -183.622845 
L 78.174777 -184.30507 
L 78.189136 -184.987296 
L 78.202081 -185.669521 
L 78.213611 -186.351747 
L 78.223735 -187.033972 
L 78.23247 -187.716198 
L 78.239843 -188.398423 
L 78.24589 -189.080648 
L 78.250653 -189.762874 
L 78.254183 -190.445099 
L 78.25654 -191.127325 
L 78.257788 -191.80955 
L 78.258 -192.491776 
L 78.257253 -193.174001 
L 78.255631 -193.856227 
L 78.25322 -194.538452 
L 78.250114 -195.220677 
L 78.246408 -195.902903 
L 78.242201 -196.585128 
L 78.237592 -197.267354 
L 78.232684 -197.949579 
L 78.227581 -198.631805 
L 78.222386 -199.31403 
L 78.217202 -199.996255 
L 78.212131 -200.678481 
L 78.207274 -201.360706 
L 78.202729 -202.042932 
L 78.198592 -202.725157 
L 78.194955 -203.407383 
L 78.191907 -204.089608 
L 78.189531 -204.771834 
L 78.187908 -205.454059 
L 78.187111 -206.136284 
L 78.18721 -206.81851 
L 78.188267 -207.500735 
L 78.190339 -208.182961 
L 78.193476 -208.865186 
L 78.197723 -209.547412 
L 78.203116 -210.229637 
L 78.209686 -210.911862 
L 78.217456 -211.594088 
L 78.226442 -212.276313 
L 78.236654 -212.958539 
L 78.248095 -213.640764 
L 78.260761 -214.32299 
L 78.274642 -215.005215 
L 78.28972 -215.687441 
L 78.305974 -216.369666 
L 78.323374 -217.051891 
L 78.341886 -217.734117 
L 80.854717 -217.734117 
L 80.854717 -217.734117 
L 80.873229 -217.051891 
L 80.890629 -216.369666 
L 80.906883 -215.687441 
L 80.921961 -215.005215 
L 80.935842 -214.32299 
L 80.948508 -213.640764 
L 80.959949 -212.958539 
L 80.970161 -212.276313 
L 80.979147 -211.594088 
L 80.986917 -210.911862 
L 80.993487 -210.229637 
L 80.99888 -209.547412 
L 81.003127 -208.865186 
L 81.006264 -208.182961 
L 81.008336 -207.500735 
L 81.009393 -206.81851 
L 81.009492 -206.136284 
L 81.008695 -205.454059 
L 81.007072 -204.771834 
L 81.004696 -204.089608 
L 81.001648 -203.407383 
L 80.998011 -202.725157 
L 80.993874 -202.042932 
L 80.989329 -201.360706 
L 80.984472 -200.678481 
L 80.979401 -199.996255 
L 80.974217 -199.31403 
L 80.969022 -198.631805 
L 80.963919 -197.949579 
L 80.959011 -197.267354 
L 80.954402 -196.585128 
L 80.950195 -195.902903 
L 80.946489 -195.220677 
L 80.943383 -194.538452 
L 80.940972 -193.856227 
L 80.93935 -193.174001 
L 80.938603 -192.491776 
L 80.938815 -191.80955 
L 80.940063 -191.127325 
L 80.94242 -190.445099 
L 80.94595 -189.762874 
L 80.950713 -189.080648 
L 80.95676 -188.398423 
L 80.964133 -187.716198 
L 80.972868 -187.033972 
L 80.982992 -186.351747 
L 80.994522 -185.669521 
L 81.007466 -184.987296 
L 81.021826 -184.30507 
L 81.03759 -183.622845 
L 81.054739 -182.940619 
L 81.073244 -182.258394 
L 81.093067 -181.576169 
L 81.114161 -180.893943 
L 81.136469 -180.211718 
L 81.159924 -179.529492 
L 81.184453 -178.847267 
L 81.209973 -178.165041 
L 81.236392 -177.482816 
L 81.263613 -176.800591 
L 81.291529 -176.118365 
L 81.320028 -175.43614 
L 81.348993 -174.753914 
L 81.378299 -174.071689 
L 81.407819 -173.389463 
L 81.43742 -172.707238 
L 81.466965 -172.025012 
L 81.496317 -171.342787 
L 81.525335 -170.660562 
L 81.553878 -169.978336 
L 81.581803 -169.296111 
L 81.60897 -168.613885 
L 81.635239 -167.93166 
L 81.660471 -167.249434 
L 81.684531 -166.567209 
L 81.707288 -165.884983 
L 81.728614 -165.202758 
L 81.748387 -164.520533 
L 81.766492 -163.838307 
L 81.782817 -163.156082 
L 81.79726 -162.473856 
L 81.809726 -161.791631 
L 81.820127 -161.109405 
L 81.828384 -160.42718 
L 81.834429 -159.744955 
L 81.838202 -159.062729 
L 81.839651 -158.380504 
L 81.838736 -157.698278 
L 81.835428 -157.016053 
L 81.829705 -156.333827 
L 81.82156 -155.651602 
L 81.810992 -154.969376 
L 81.798013 -154.287151 
L 81.782643 -153.604926 
L 81.764914 -152.9227 
L 81.744867 -152.240475 
L 81.722552 -151.558249 
L 81.698029 -150.876024 
L 81.671364 -150.193798 
z
" style="stroke: #999999; stroke-width: 2"/>
    </defs>
    <g clip-path="url(#p1d61ba1111)">
     <use xlink:href="#m4c579165f3" x="0" y="255.11811" style="fill: #ffffff; stroke: #999999; stroke-width: 2"/>
    </g>
   </g>
   <g id="PolyCollection_2">
    <defs>
     <path id="mce9b3da0d1" d="M 150.482156 -52.897376 
L 138.227653 -52.897376 
L 138.002167 -53.014719 
L 137.770329 -53.132062 
L 137.531535 -53.249405 
L 137.285173 -53.366747 
L 137.030637 -53.48409 
L 136.767341 -53.601433 
L 136.494731 -53.718776 
L 136.212304 -53.836119 
L 135.919622 -53.953462 
L 135.616327 -54.070805 
L 135.302156 -54.188148 
L 134.976955 -54.305491 
L 134.640692 -54.422834 
L 134.293468 -54.540177 
L 133.935529 -54.65752 
L 133.567271 -54.774863 
L 133.18925 -54.892206 
L 132.802181 -55.009549 
L 132.406944 -55.126892 
L 132.004582 -55.244235 
L 131.596295 -55.361578 
L 131.183438 -55.47892 
L 130.76751 -55.596263 
L 130.350143 -55.713606 
L 129.933092 -55.830949 
L 129.518219 -55.948292 
L 129.107473 -56.065635 
L 128.702877 -56.182978 
L 128.306506 -56.300321 
L 127.920465 -56.417664 
L 127.546869 -56.535007 
L 127.187822 -56.65235 
L 126.845396 -56.769693 
L 126.521605 -56.887036 
L 126.218388 -57.004379 
L 125.93759 -57.121722 
L 125.680937 -57.239065 
L 125.450023 -57.356408 
L 125.246292 -57.473751 
L 125.071024 -57.591094 
L 124.92532 -57.708436 
L 124.810096 -57.825779 
L 124.726069 -57.943122 
L 124.673753 -58.060465 
L 124.653457 -58.177808 
L 124.665277 -58.295151 
L 124.709104 -58.412494 
L 124.784619 -58.529837 
L 124.891301 -58.64718 
L 125.028434 -58.764523 
L 125.195111 -58.881866 
L 125.39025 -58.999209 
L 125.612599 -59.116552 
L 125.860753 -59.233895 
L 126.133165 -59.351238 
L 126.428164 -59.468581 
L 126.74397 -59.585924 
L 127.078709 -59.703267 
L 127.430431 -59.820609 
L 127.79713 -59.937952 
L 128.176758 -60.055295 
L 128.567245 -60.172638 
L 128.966518 -60.289981 
L 129.372515 -60.407324 
L 129.783206 -60.524667 
L 130.196607 -60.64201 
L 130.610796 -60.759353 
L 131.023928 -60.876696 
L 131.43425 -60.994039 
L 131.840115 -61.111382 
L 132.239988 -61.228725 
L 132.632464 -61.346068 
L 133.016272 -61.463411 
L 133.390281 -61.580754 
L 133.753511 -61.698097 
L 134.105134 -61.81544 
L 134.444477 -61.932783 
L 134.771021 -62.050125 
L 135.084404 -62.167468 
L 135.384413 -62.284811 
L 135.670984 -62.402154 
L 135.944197 -62.519497 
L 136.20426 -62.63684 
L 136.451513 -62.754183 
L 136.686405 -62.871526 
L 136.909493 -62.988869 
L 137.12142 -63.106212 
L 137.322911 -63.223555 
L 137.514753 -63.340898 
L 137.697783 -63.458241 
L 137.872872 -63.575584 
L 138.040912 -63.692927 
L 138.202801 -63.81027 
L 138.359431 -63.927613 
L 138.511671 -64.044956 
L 138.660358 -64.162298 
L 138.806285 -64.279641 
L 138.950189 -64.396984 
L 139.092746 -64.514327 
L 149.617063 -64.514327 
L 149.617063 -64.514327 
L 149.759619 -64.396984 
L 149.903524 -64.279641 
L 150.049451 -64.162298 
L 150.198138 -64.044956 
L 150.350378 -63.927613 
L 150.507008 -63.81027 
L 150.668897 -63.692927 
L 150.836937 -63.575584 
L 151.012026 -63.458241 
L 151.195055 -63.340898 
L 151.386897 -63.223555 
L 151.588389 -63.106212 
L 151.800316 -62.988869 
L 152.023403 -62.871526 
L 152.258296 -62.754183 
L 152.505548 -62.63684 
L 152.765612 -62.519497 
L 153.038824 -62.402154 
L 153.325396 -62.284811 
L 153.625405 -62.167468 
L 153.938787 -62.050125 
L 154.265332 -61.932783 
L 154.604674 -61.81544 
L 154.956298 -61.698097 
L 155.319528 -61.580754 
L 155.693537 -61.463411 
L 156.077344 -61.346068 
L 156.46982 -61.228725 
L 156.869694 -61.111382 
L 157.275559 -60.994039 
L 157.685881 -60.876696 
L 158.099013 -60.759353 
L 158.513202 -60.64201 
L 158.926602 -60.524667 
L 159.337293 -60.407324 
L 159.743291 -60.289981 
L 160.142564 -60.172638 
L 160.533051 -60.055295 
L 160.912679 -59.937952 
L 161.279377 -59.820609 
L 161.6311 -59.703267 
L 161.965838 -59.585924 
L 162.281644 -59.468581 
L 162.576644 -59.351238 
L 162.849056 -59.233895 
L 163.09721 -59.116552 
L 163.319559 -58.999209 
L 163.514697 -58.881866 
L 163.681375 -58.764523 
L 163.818508 -58.64718 
L 163.92519 -58.529837 
L 164.000705 -58.412494 
L 164.044532 -58.295151 
L 164.056352 -58.177808 
L 164.036056 -58.060465 
L 163.98374 -57.943122 
L 163.899713 -57.825779 
L 163.784488 -57.708436 
L 163.638785 -57.591094 
L 163.463516 -57.473751 
L 163.259786 -57.356408 
L 163.028872 -57.239065 
L 162.772219 -57.121722 
L 162.49142 -57.004379 
L 162.188204 -56.887036 
L 161.864413 -56.769693 
L 161.521987 -56.65235 
L 161.16294 -56.535007 
L 160.789344 -56.417664 
L 160.403303 -56.300321 
L 160.006931 -56.182978 
L 159.602336 -56.065635 
L 159.19159 -55.948292 
L 158.776717 -55.830949 
L 158.359666 -55.713606 
L 157.942299 -55.596263 
L 157.526371 -55.47892 
L 157.113514 -55.361578 
L 156.705227 -55.244235 
L 156.302865 -55.126892 
L 155.907628 -55.009549 
L 155.520559 -54.892206 
L 155.142537 -54.774863 
L 154.77428 -54.65752 
L 154.41634 -54.540177 
L 154.069117 -54.422834 
L 153.732854 -54.305491 
L 153.407653 -54.188148 
L 153.093482 -54.070805 
L 152.790187 -53.953462 
L 152.497505 -53.836119 
L 152.215078 -53.718776 
L 151.942468 -53.601433 
L 151.679172 -53.48409 
L 151.424636 -53.366747 
L 151.178274 -53.249405 
L 150.93948 -53.132062 
L 150.707642 -53.014719 
L 150.482156 -52.897376 
z
" style="stroke: #999999; stroke-width: 2"/>
    </defs>
    <g clip-path="url(#p1d61ba1111)">
     <use xlink:href="#mce9b3da0d1" x="0" y="255.11811" style="fill: #ffffff; stroke: #999999; stroke-width: 2"/>
    </g>
   </g>
   <g id="PolyCollection_3">
    <defs>
     <path id="mba3dd3750c" d="M 210.793411 -61.378114 
L 207.429603 -61.378114 
L 207.395636 -61.675942 
L 207.361325 -61.973771 
L 207.326399 -62.271599 
L 207.290566 -62.569427 
L 207.253511 -62.867256 
L 207.214902 -63.165084 
L 207.174392 -63.462912 
L 207.131625 -63.76074 
L 207.086236 -64.058569 
L 207.037861 -64.356397 
L 206.986136 -64.654225 
L 206.930706 -64.952053 
L 206.87123 -65.249882 
L 206.807384 -65.54771 
L 206.738866 -65.845538 
L 206.665407 -66.143367 
L 206.586767 -66.441195 
L 206.502747 -66.739023 
L 206.413192 -67.036851 
L 206.317993 -67.33468 
L 206.217092 -67.632508 
L 206.110489 -67.930336 
L 205.998239 -68.228164 
L 205.880457 -68.525993 
L 205.757319 -68.823821 
L 205.629064 -69.121649 
L 205.495994 -69.419478 
L 205.358471 -69.717306 
L 205.216917 -70.015134 
L 205.071814 -70.312962 
L 204.923695 -70.610791 
L 204.773147 -70.908619 
L 204.620803 -71.206447 
L 204.467334 -71.504275 
L 204.313451 -71.802104 
L 204.15989 -72.099932 
L 204.007411 -72.39776 
L 203.856786 -72.695589 
L 203.708797 -72.993417 
L 203.564223 -73.291245 
L 203.423835 -73.589073 
L 203.288385 -73.886902 
L 203.158603 -74.18473 
L 203.035183 -74.482558 
L 202.918782 -74.780386 
L 202.810008 -75.078215 
L 202.709418 -75.376043 
L 202.617506 -75.673871 
L 202.534704 -75.9717 
L 202.461376 -76.269528 
L 202.397812 -76.567356 
L 202.344228 -76.865184 
L 202.300764 -77.163013 
L 202.26748 -77.460841 
L 202.244363 -77.758669 
L 202.231321 -78.056497 
L 202.228188 -78.354326 
L 202.23473 -78.652154 
L 202.250643 -78.949982 
L 202.275563 -79.247811 
L 202.309067 -79.545639 
L 202.350684 -79.843467 
L 202.399896 -80.141295 
L 202.456149 -80.439124 
L 202.51886 -80.736952 
L 202.587423 -81.03478 
L 202.661219 -81.332608 
L 202.73962 -81.630437 
L 202.822002 -81.928265 
L 202.907747 -82.226093 
L 202.996256 -82.523921 
L 203.086949 -82.82175 
L 203.179278 -83.119578 
L 203.272728 -83.417406 
L 203.366822 -83.715235 
L 203.461128 -84.013063 
L 203.555262 -84.310891 
L 203.648888 -84.608719 
L 203.741721 -84.906548 
L 203.833531 -85.204376 
L 203.924138 -85.502204 
L 204.013415 -85.800032 
L 204.101286 -86.097861 
L 204.187723 -86.395689 
L 204.272744 -86.693517 
L 204.356406 -86.991346 
L 204.438808 -87.289174 
L 204.520081 -87.587002 
L 204.600384 -87.88483 
L 204.6799 -88.182659 
L 204.758831 -88.480487 
L 204.83739 -88.778315 
L 204.915798 -89.076143 
L 204.99428 -89.373972 
L 205.073057 -89.6718 
L 205.152339 -89.969628 
L 205.232329 -90.267457 
L 205.313208 -90.565285 
L 205.395141 -90.863113 
L 212.827874 -90.863113 
L 212.827874 -90.863113 
L 212.909806 -90.565285 
L 212.990686 -90.267457 
L 213.070675 -89.969628 
L 213.149958 -89.6718 
L 213.228734 -89.373972 
L 213.307216 -89.076143 
L 213.385625 -88.778315 
L 213.464184 -88.480487 
L 213.543114 -88.182659 
L 213.62263 -87.88483 
L 213.702933 -87.587002 
L 213.784206 -87.289174 
L 213.866608 -86.991346 
L 213.950271 -86.693517 
L 214.035291 -86.395689 
L 214.121728 -86.097861 
L 214.2096 -85.800032 
L 214.298877 -85.502204 
L 214.389484 -85.204376 
L 214.481294 -84.906548 
L 214.574127 -84.608719 
L 214.667753 -84.310891 
L 214.761886 -84.013063 
L 214.856193 -83.715235 
L 214.950287 -83.417406 
L 215.043736 -83.119578 
L 215.136065 -82.82175 
L 215.226759 -82.523921 
L 215.315268 -82.226093 
L 215.401013 -81.928265 
L 215.483395 -81.630437 
L 215.561796 -81.332608 
L 215.635591 -81.03478 
L 215.704154 -80.736952 
L 215.766866 -80.439124 
L 215.823119 -80.141295 
L 215.872331 -79.843467 
L 215.913947 -79.545639 
L 215.947452 -79.247811 
L 215.972372 -78.949982 
L 215.988285 -78.652154 
L 215.994827 -78.354326 
L 215.991694 -78.056497 
L 215.978652 -77.758669 
L 215.955534 -77.460841 
L 215.922251 -77.163013 
L 215.878786 -76.865184 
L 215.825202 -76.567356 
L 215.761638 -76.269528 
L 215.68831 -75.9717 
L 215.605509 -75.673871 
L 215.513597 -75.376043 
L 215.413006 -75.078215 
L 215.304233 -74.780386 
L 215.187832 -74.482558 
L 215.064412 -74.18473 
L 214.93463 -73.886902 
L 214.79918 -73.589073 
L 214.658791 -73.291245 
L 214.514217 -72.993417 
L 214.366228 -72.695589 
L 214.215604 -72.39776 
L 214.063124 -72.099932 
L 213.909563 -71.802104 
L 213.75568 -71.504275 
L 213.602212 -71.206447 
L 213.449867 -70.908619 
L 213.299319 -70.610791 
L 213.151201 -70.312962 
L 213.006097 -70.015134 
L 212.864544 -69.717306 
L 212.727021 -69.419478 
L 212.59395 -69.121649 
L 212.465696 -68.823821 
L 212.342558 -68.525993 
L 212.224776 -68.228164 
L 212.112525 -67.930336 
L 212.005922 -67.632508 
L 211.905022 -67.33468 
L 211.809823 -67.036851 
L 211.720268 -66.739023 
L 211.636248 -66.441195 
L 211.557608 -66.143367 
L 211.484148 -65.845538 
L 211.415631 -65.54771 
L 211.351785 -65.249882 
L 211.292309 -64.952053 
L 211.236879 -64.654225 
L 211.185154 -64.356397 
L 211.136779 -64.058569 
L 211.09139 -63.76074 
L 211.048623 -63.462912 
L 211.008113 -63.165084 
L 210.969504 -62.867256 
L 210.932448 -62.569427 
L 210.896615 -62.271599 
L 210.86169 -61.973771 
L 210.827378 -61.675942 
L 210.793411 -61.378114 
z
" style="stroke: #999999; stroke-width: 2"/>
    </defs>
    <g clip-path="url(#p1d61ba1111)">
     <use xlink:href="#mba3dd3750c" x="0" y="255.11811" style="fill: #ffffff; stroke: #999999; stroke-width: 2"/>
    </g>
   </g>
   <g id="PolyCollection_4">
    <defs>
     <path id="m76aaa5b11e" d="M 294.648573 -49.837187 
L 253.087647 -49.837187 
L 252.571525 -49.927797 
L 252.079158 -50.018406 
L 251.611726 -50.109016 
L 251.170248 -50.199626 
L 250.755588 -50.290236 
L 250.368459 -50.380846 
L 250.009435 -50.471455 
L 249.678958 -50.562065 
L 249.377355 -50.652675 
L 249.104848 -50.743285 
L 248.861572 -50.833895 
L 248.647584 -50.924504 
L 248.462885 -51.015114 
L 248.307429 -51.105724 
L 248.181137 -51.196334 
L 248.083909 -51.286943 
L 248.015632 -51.377553 
L 247.976191 -51.468163 
L 247.965469 -51.558773 
L 247.983356 -51.649383 
L 248.029746 -51.739992 
L 248.104536 -51.830602 
L 248.207622 -51.921212 
L 248.338892 -52.011822 
L 248.498222 -52.102432 
L 248.68546 -52.193041 
L 248.900423 -52.283651 
L 249.142879 -52.374261 
L 249.412538 -52.464871 
L 249.709041 -52.55548 
L 250.031946 -52.64609 
L 250.380719 -52.7367 
L 250.754722 -52.82731 
L 251.153206 -52.91792 
L 251.575307 -53.008529 
L 252.020035 -53.099139 
L 252.486275 -53.189749 
L 252.972786 -53.280359 
L 253.478203 -53.370969 
L 254.001038 -53.461578 
L 254.539689 -53.552188 
L 255.092445 -53.642798 
L 255.657499 -53.733408 
L 256.232957 -53.824018 
L 256.816852 -53.914627 
L 257.407157 -54.005237 
L 258.001802 -54.095847 
L 258.598687 -54.186457 
L 259.195701 -54.277066 
L 259.790739 -54.367676 
L 260.381714 -54.458286 
L 260.966576 -54.548896 
L 261.54333 -54.639506 
L 262.110044 -54.730115 
L 262.664869 -54.820725 
L 263.20605 -54.911335 
L 263.731936 -55.001945 
L 264.240993 -55.092555 
L 264.731813 -55.183164 
L 265.203119 -55.273774 
L 265.653777 -55.364384 
L 266.082797 -55.454994 
L 266.48934 -55.545603 
L 266.872718 -55.636213 
L 267.2324 -55.726823 
L 267.568011 -55.817433 
L 267.879328 -55.908043 
L 268.166284 -55.998652 
L 268.428965 -56.089262 
L 268.667601 -56.179872 
L 268.882569 -56.270482 
L 269.074384 -56.361092 
L 269.243692 -56.451701 
L 269.391267 -56.542311 
L 269.518002 -56.632921 
L 269.624897 -56.723531 
L 269.713055 -56.814141 
L 269.783672 -56.90475 
L 269.838022 -56.99536 
L 269.877452 -57.08597 
L 269.903366 -57.17658 
L 269.917217 -57.267189 
L 269.920491 -57.357799 
L 269.914697 -57.448409 
L 269.901354 -57.539019 
L 269.881975 -57.629629 
L 269.858061 -57.720238 
L 269.83108 -57.810848 
L 269.802461 -57.901458 
L 269.77358 -57.992068 
L 269.745746 -58.082678 
L 269.720196 -58.173287 
L 269.698078 -58.263897 
L 269.680449 -58.354507 
L 269.668262 -58.445117 
L 269.662363 -58.535727 
L 269.663483 -58.626336 
L 269.672236 -58.716946 
L 269.689116 -58.807556 
L 278.047104 -58.807556 
L 278.047104 -58.807556 
L 278.063984 -58.716946 
L 278.072737 -58.626336 
L 278.073858 -58.535727 
L 278.067959 -58.445117 
L 278.055772 -58.354507 
L 278.038143 -58.263897 
L 278.016025 -58.173287 
L 277.990474 -58.082678 
L 277.962641 -57.992068 
L 277.933759 -57.901458 
L 277.905141 -57.810848 
L 277.87816 -57.720238 
L 277.854245 -57.629629 
L 277.834867 -57.539019 
L 277.821523 -57.448409 
L 277.815729 -57.357799 
L 277.819003 -57.267189 
L 277.832854 -57.17658 
L 277.858768 -57.08597 
L 277.898198 -56.99536 
L 277.952549 -56.90475 
L 278.023165 -56.814141 
L 278.111324 -56.723531 
L 278.218219 -56.632921 
L 278.344953 -56.542311 
L 278.492529 -56.451701 
L 278.661837 -56.361092 
L 278.853652 -56.270482 
L 279.06862 -56.179872 
L 279.307256 -56.089262 
L 279.569936 -55.998652 
L 279.856893 -55.908043 
L 280.16821 -55.817433 
L 280.50382 -55.726823 
L 280.863502 -55.636213 
L 281.246881 -55.545603 
L 281.653423 -55.454994 
L 282.082443 -55.364384 
L 282.533101 -55.273774 
L 283.004408 -55.183164 
L 283.495227 -55.092555 
L 284.004284 -55.001945 
L 284.530171 -54.911335 
L 285.071352 -54.820725 
L 285.626177 -54.730115 
L 286.192891 -54.639506 
L 286.769644 -54.548896 
L 287.354507 -54.458286 
L 287.945482 -54.367676 
L 288.540519 -54.277066 
L 289.137534 -54.186457 
L 289.734419 -54.095847 
L 290.329063 -54.005237 
L 290.919368 -53.914627 
L 291.503263 -53.824018 
L 292.078721 -53.733408 
L 292.643776 -53.642798 
L 293.196532 -53.552188 
L 293.735183 -53.461578 
L 294.258017 -53.370969 
L 294.763434 -53.280359 
L 295.249945 -53.189749 
L 295.716186 -53.099139 
L 296.160913 -53.008529 
L 296.583014 -52.91792 
L 296.981499 -52.82731 
L 297.355502 -52.7367 
L 297.704274 -52.64609 
L 298.027179 -52.55548 
L 298.323682 -52.464871 
L 298.593342 -52.374261 
L 298.835797 -52.283651 
L 299.05076 -52.193041 
L 299.237999 -52.102432 
L 299.397328 -52.011822 
L 299.528599 -51.921212 
L 299.631684 -51.830602 
L 299.706474 -51.739992 
L 299.752864 -51.649383 
L 299.770751 -51.558773 
L 299.76003 -51.468163 
L 299.720588 -51.377553 
L 299.652311 -51.286943 
L 299.555083 -51.196334 
L 299.428791 -51.105724 
L 299.273335 -51.015114 
L 299.088637 -50.924504 
L 298.874649 -50.833895 
L 298.631372 -50.743285 
L 298.358865 -50.652675 
L 298.057263 -50.562065 
L 297.726786 -50.471455 
L 297.367762 -50.380846 
L 296.980633 -50.290236 
L 296.565973 -50.199626 
L 296.124495 -50.109016 
L 295.657062 -50.018406 
L 295.164695 -49.927797 
L 294.648573 -49.837187 
z
" style="stroke: #999999; stroke-width: 2"/>
    </defs>
    <g clip-path="url(#p1d61ba1111)">
     <use xlink:href="#m76aaa5b11e" x="0" y="255.11811" style="fill: #ffffff; stroke: #999999; stroke-width: 2"/>
    </g>
   </g>
   <g id="PolyCollection_5">
    <defs>
     <path id="md10acaa9d3" d="M 340.434806 -67.144205 
L 336.814621 -67.144205 
L 336.776333 -67.499348 
L 336.737961 -67.85449 
L 336.699458 -68.209632 
L 336.660776 -68.564775 
L 336.621862 -68.919917 
L 336.582662 -69.275059 
L 336.543121 -69.630202 
L 336.503183 -69.985344 
L 336.462792 -70.340487 
L 336.421896 -70.695629 
L 336.38044 -71.050771 
L 336.338376 -71.405914 
L 336.295658 -71.761056 
L 336.252244 -72.116198 
L 336.208097 -72.471341 
L 336.163186 -72.826483 
L 336.117488 -73.181626 
L 336.070983 -73.536768 
L 336.023664 -73.89191 
L 335.975526 -74.247053 
L 335.926578 -74.602195 
L 335.876834 -74.957338 
L 335.826318 -75.31248 
L 335.775063 -75.667622 
L 335.723111 -76.022765 
L 335.670513 -76.377907 
L 335.617329 -76.733049 
L 335.563627 -77.088192 
L 335.509482 -77.443334 
L 335.45498 -77.798477 
L 335.400211 -78.153619 
L 335.345272 -78.508761 
L 335.290268 -78.863904 
L 335.235307 -79.219046 
L 335.180501 -79.574188 
L 335.125968 -79.929331 
L 335.071826 -80.284473 
L 335.018198 -80.639616 
L 334.965203 -80.994758 
L 334.912965 -81.3499 
L 334.861605 -81.705043 
L 334.811241 -82.060185 
L 334.761992 -82.415327 
L 334.713969 -82.77047 
L 334.667284 -83.125612 
L 334.62204 -83.480755 
L 334.578337 -83.835897 
L 334.536269 -84.191039 
L 334.495924 -84.546182 
L 334.457381 -84.901324 
L 334.420716 -85.256466 
L 334.385994 -85.611609 
L 334.353276 -85.966751 
L 334.322613 -86.321894 
L 334.294052 -86.677036 
L 334.26763 -87.032178 
L 334.243379 -87.387321 
L 334.221325 -87.742463 
L 334.201486 -88.097605 
L 334.183877 -88.452748 
L 334.168505 -88.80789 
L 334.155375 -89.163033 
L 334.144486 -89.518175 
L 334.135836 -89.873317 
L 334.129417 -90.22846 
L 334.125222 -90.583602 
L 334.123239 -90.938745 
L 334.123458 -91.293887 
L 334.125867 -91.649029 
L 334.130453 -92.004172 
L 334.137205 -92.359314 
L 334.146112 -92.714456 
L 334.157165 -93.069599 
L 334.170354 -93.424741 
L 334.185673 -93.779884 
L 334.203117 -94.135026 
L 334.222681 -94.490168 
L 334.244365 -94.845311 
L 334.268167 -95.200453 
L 334.294089 -95.555595 
L 334.322133 -95.910738 
L 334.352301 -96.26588 
L 334.384597 -96.621023 
L 334.419023 -96.976165 
L 334.455583 -97.331307 
L 334.494277 -97.68645 
L 334.535105 -98.041592 
L 334.578065 -98.396734 
L 334.623151 -98.751877 
L 334.670354 -99.107019 
L 334.719662 -99.462162 
L 334.771056 -99.817304 
L 334.824514 -100.172446 
L 334.880007 -100.527589 
L 334.937501 -100.882731 
L 334.996953 -101.237873 
L 335.058317 -101.593016 
L 335.121536 -101.948158 
L 335.186548 -102.303301 
L 342.062878 -102.303301 
L 342.062878 -102.303301 
L 342.12789 -101.948158 
L 342.191109 -101.593016 
L 342.252473 -101.237873 
L 342.311926 -100.882731 
L 342.369419 -100.527589 
L 342.424912 -100.172446 
L 342.47837 -99.817304 
L 342.529764 -99.462162 
L 342.579072 -99.107019 
L 342.626275 -98.751877 
L 342.671361 -98.396734 
L 342.714321 -98.041592 
L 342.75515 -97.68645 
L 342.793844 -97.331307 
L 342.830403 -96.976165 
L 342.86483 -96.621023 
L 342.897125 -96.26588 
L 342.927293 -95.910738 
L 342.955337 -95.555595 
L 342.981259 -95.200453 
L 343.005061 -94.845311 
L 343.026745 -94.490168 
L 343.04631 -94.135026 
L 343.063753 -93.779884 
L 343.079072 -93.424741 
L 343.092261 -93.069599 
L 343.103314 -92.714456 
L 343.112221 -92.359314 
L 343.118973 -92.004172 
L 343.12356 -91.649029 
L 343.125968 -91.293887 
L 343.126187 -90.938745 
L 343.124205 -90.583602 
L 343.120009 -90.22846 
L 343.11359 -89.873317 
L 343.10494 -89.518175 
L 343.094052 -89.163033 
L 343.080921 -88.80789 
L 343.06555 -88.452748 
L 343.04794 -88.097605 
L 343.028101 -87.742463 
L 343.006047 -87.387321 
L 342.981796 -87.032178 
L 342.955374 -86.677036 
L 342.926813 -86.321894 
L 342.896151 -85.966751 
L 342.863432 -85.611609 
L 342.828711 -85.256466 
L 342.792045 -84.901324 
L 342.753503 -84.546182 
L 342.713157 -84.191039 
L 342.671089 -83.835897 
L 342.627386 -83.480755 
L 342.582143 -83.125612 
L 342.535457 -82.77047 
L 342.487435 -82.415327 
L 342.438185 -82.060185 
L 342.387822 -81.705043 
L 342.336461 -81.3499 
L 342.284223 -80.994758 
L 342.231229 -80.639616 
L 342.1776 -80.284473 
L 342.123458 -79.929331 
L 342.068925 -79.574188 
L 342.01412 -79.219046 
L 341.959158 -78.863904 
L 341.904154 -78.508761 
L 341.849216 -78.153619 
L 341.794446 -77.798477 
L 341.739944 -77.443334 
L 341.6858 -77.088192 
L 341.632097 -76.733049 
L 341.578913 -76.377907 
L 341.526315 -76.022765 
L 341.474363 -75.667622 
L 341.423108 -75.31248 
L 341.372592 -74.957338 
L 341.322848 -74.602195 
L 341.2739 -74.247053 
L 341.225763 -73.89191 
L 341.178443 -73.536768 
L 341.131939 -73.181626 
L 341.08624 -72.826483 
L 341.041329 -72.471341 
L 340.997182 -72.116198 
L 340.953768 -71.761056 
L 340.91105 -71.405914 
L 340.868986 -71.050771 
L 340.827531 -70.695629 
L 340.786634 -70.340487 
L 340.746244 -69.985344 
L 340.706306 -69.630202 
L 340.666765 -69.275059 
L 340.627565 -68.919917 
L 340.58865 -68.564775 
L 340.549968 -68.209632 
L 340.511466 -67.85449 
L 340.473094 -67.499348 
L 340.434806 -67.144205 
z
" style="stroke: #999999; stroke-width: 2"/>
    </defs>
    <g clip-path="url(#p1d61ba1111)">
     <use xlink:href="#md10acaa9d3" x="0" y="255.11811" style="fill: #ffffff; stroke: #999999; stroke-width: 2"/>
    </g>
   </g>
   <g id="PolyCollection_6">
    <defs>
     <path id="m586694ecf1" d="M 404.194776 -88.622201 
L 402.567856 -88.622201 
L 402.553958 -89.971279 
L 402.540759 -91.320357 
L 402.528294 -92.669435 
L 402.516594 -94.018513 
L 402.505688 -95.367591 
L 402.495599 -96.716669 
L 402.48635 -98.065747 
L 402.477958 -99.414825 
L 402.470437 -100.763903 
L 402.463798 -102.112981 
L 402.458045 -103.462059 
L 402.453182 -104.811137 
L 402.449205 -106.160215 
L 402.446108 -107.509293 
L 402.443882 -108.858371 
L 402.442509 -110.207449 
L 402.441972 -111.556527 
L 402.442248 -112.905605 
L 402.443309 -114.254683 
L 402.445124 -115.603761 
L 402.447659 -116.952839 
L 402.450876 -118.301917 
L 402.454733 -119.650995 
L 402.459186 -121.000073 
L 402.464189 -122.349151 
L 402.46969 -123.698229 
L 402.475639 -125.047307 
L 402.481982 -126.396385 
L 402.488664 -127.745463 
L 402.495627 -129.094541 
L 402.502814 -130.443619 
L 402.510167 -131.792697 
L 402.517629 -133.141775 
L 402.525141 -134.490853 
L 402.532645 -135.839931 
L 402.540084 -137.189009 
L 402.547404 -138.538087 
L 402.554551 -139.887165 
L 402.561472 -141.236243 
L 402.568117 -142.585321 
L 402.574441 -143.934399 
L 402.580397 -145.283477 
L 402.585945 -146.632555 
L 402.591047 -147.981633 
L 402.595669 -149.330711 
L 402.599779 -150.679789 
L 402.603352 -152.028867 
L 402.606364 -153.377945 
L 402.608798 -154.727023 
L 402.61064 -156.076101 
L 402.61188 -157.425179 
L 402.612513 -158.774257 
L 402.612538 -160.123335 
L 402.61196 -161.472413 
L 402.610787 -162.821491 
L 402.609033 -164.170569 
L 402.606713 -165.519647 
L 402.603849 -166.868725 
L 402.600468 -168.217803 
L 402.596597 -169.566881 
L 402.592271 -170.915959 
L 402.587524 -172.265037 
L 402.582398 -173.614115 
L 402.576934 -174.963193 
L 402.571179 -176.312271 
L 402.565179 -177.661349 
L 402.558984 -179.010427 
L 402.552648 -180.359505 
L 402.546221 -181.708583 
L 402.53976 -183.057661 
L 402.53332 -184.406739 
L 402.526956 -185.755817 
L 402.520724 -187.104895 
L 402.51468 -188.453973 
L 402.508879 -189.803051 
L 402.503377 -191.152129 
L 402.498226 -192.501207 
L 402.493477 -193.850285 
L 402.489183 -195.199363 
L 402.485389 -196.548441 
L 402.482143 -197.897519 
L 402.479487 -199.246597 
L 402.477462 -200.595675 
L 402.476105 -201.944753 
L 402.475449 -203.293831 
L 402.475527 -204.642909 
L 402.476364 -205.991987 
L 402.477984 -207.341065 
L 402.480407 -208.690143 
L 402.483648 -210.039221 
L 402.487719 -211.388299 
L 402.492627 -212.737377 
L 402.498376 -214.086455 
L 402.504965 -215.435533 
L 402.512391 -216.784611 
L 402.520645 -218.133689 
L 402.529716 -219.482767 
L 402.539586 -220.831845 
L 402.550238 -222.180923 
L 404.212394 -222.180923 
L 404.212394 -222.180923 
L 404.223046 -220.831845 
L 404.232917 -219.482767 
L 404.241987 -218.133689 
L 404.250241 -216.784611 
L 404.257667 -215.435533 
L 404.264256 -214.086455 
L 404.270005 -212.737377 
L 404.274913 -211.388299 
L 404.278984 -210.039221 
L 404.282225 -208.690143 
L 404.284648 -207.341065 
L 404.286268 -205.991987 
L 404.287105 -204.642909 
L 404.287183 -203.293831 
L 404.286528 -201.944753 
L 404.28517 -200.595675 
L 404.283145 -199.246597 
L 404.280489 -197.897519 
L 404.277243 -196.548441 
L 404.27345 -195.199363 
L 404.269155 -193.850285 
L 404.264407 -192.501207 
L 404.259255 -191.152129 
L 404.253753 -189.803051 
L 404.247952 -188.453973 
L 404.241908 -187.104895 
L 404.235676 -185.755817 
L 404.229312 -184.406739 
L 404.222872 -183.057661 
L 404.216411 -181.708583 
L 404.209985 -180.359505 
L 404.203648 -179.010427 
L 404.197454 -177.661349 
L 404.191454 -176.312271 
L 404.185698 -174.963193 
L 404.180234 -173.614115 
L 404.175108 -172.265037 
L 404.170362 -170.915959 
L 404.166035 -169.566881 
L 404.162164 -168.217803 
L 404.158783 -166.868725 
L 404.155919 -165.519647 
L 404.1536 -164.170569 
L 404.151845 -162.821491 
L 404.150672 -161.472413 
L 404.150094 -160.123335 
L 404.15012 -158.774257 
L 404.150752 -157.425179 
L 404.151992 -156.076101 
L 404.153834 -154.727023 
L 404.156268 -153.377945 
L 404.15928 -152.028867 
L 404.162853 -150.679789 
L 404.166964 -149.330711 
L 404.171585 -147.981633 
L 404.176687 -146.632555 
L 404.182235 -145.283477 
L 404.188192 -143.934399 
L 404.194515 -142.585321 
L 404.20116 -141.236243 
L 404.208081 -139.887165 
L 404.215228 -138.538087 
L 404.222548 -137.189009 
L 404.229988 -135.839931 
L 404.237492 -134.490853 
L 404.245003 -133.141775 
L 404.252465 -131.792697 
L 404.259818 -130.443619 
L 404.267006 -129.094541 
L 404.273969 -127.745463 
L 404.28065 -126.396385 
L 404.286993 -125.047307 
L 404.292942 -123.698229 
L 404.298444 -122.349151 
L 404.303446 -121.000073 
L 404.307899 -119.650995 
L 404.311757 -118.301917 
L 404.314973 -116.952839 
L 404.317508 -115.603761 
L 404.319324 -114.254683 
L 404.320384 -112.905605 
L 404.32066 -111.556527 
L 404.320123 -110.207449 
L 404.318751 -108.858371 
L 404.316524 -107.509293 
L 404.313427 -106.160215 
L 404.309451 -104.811137 
L 404.304587 -103.462059 
L 404.298835 -102.112981 
L 404.292195 -100.763903 
L 404.284674 -99.414825 
L 404.276282 -98.065747 
L 404.267033 -96.716669 
L 404.256944 -95.367591 
L 404.246038 -94.018513 
L 404.234338 -92.669435 
L 404.221873 -91.320357 
L 404.208674 -89.971279 
L 404.194776 -88.622201 
z
" style="stroke: #999999; stroke-width: 2"/>
    </defs>
    <g clip-path="url(#p1d61ba1111)">
     <use xlink:href="#m586694ecf1" x="0" y="255.11811" style="fill: #ffffff; stroke: #999999; stroke-width: 2"/>
    </g>
   </g>
   <g id="PolyCollection_7">
    <defs>
     <path id="md1c400b1ea" d="M 470.188506 -76.910113 
L 466.087332 -76.910113 
L 466.026796 -77.357812 
L 465.966663 -77.805511 
L 465.907033 -78.253211 
L 465.848006 -78.70091 
L 465.789678 -79.148609 
L 465.732146 -79.596309 
L 465.675504 -80.044008 
L 465.619841 -80.491707 
L 465.565246 -80.939406 
L 465.511805 -81.387106 
L 465.459598 -81.834805 
L 465.408704 -82.282504 
L 465.359197 -82.730203 
L 465.311148 -83.177903 
L 465.264624 -83.625602 
L 465.219686 -84.073301 
L 465.176394 -84.521 
L 465.1348 -84.9687 
L 465.094954 -85.416399 
L 465.0569 -85.864098 
L 465.020679 -86.311797 
L 464.986324 -86.759497 
L 464.953868 -87.207196 
L 464.923335 -87.654895 
L 464.894745 -88.102594 
L 464.868116 -88.550294 
L 464.843457 -88.997993 
L 464.820774 -89.445692 
L 464.800068 -89.893392 
L 464.781336 -90.341091 
L 464.764567 -90.78879 
L 464.749749 -91.236489 
L 464.736862 -91.684189 
L 464.725882 -92.131888 
L 464.716781 -92.579587 
L 464.709525 -93.027286 
L 464.704075 -93.474986 
L 464.70039 -93.922685 
L 464.698421 -94.370384 
L 464.698118 -94.818083 
L 464.699423 -95.265783 
L 464.702278 -95.713482 
L 464.706619 -96.161181 
L 464.712378 -96.60888 
L 464.719487 -97.05658 
L 464.727871 -97.504279 
L 464.737456 -97.951978 
L 464.748164 -98.399677 
L 464.759916 -98.847377 
L 464.772632 -99.295076 
L 464.786233 -99.742775 
L 464.800636 -100.190474 
L 464.815763 -100.638174 
L 464.831535 -101.085873 
L 464.847875 -101.533572 
L 464.864707 -101.981272 
L 464.881962 -102.428971 
L 464.899571 -102.87667 
L 464.91747 -103.324369 
L 464.935602 -103.772069 
L 464.953912 -104.219768 
L 464.972355 -104.667467 
L 464.99089 -105.115166 
L 465.009482 -105.562866 
L 465.028108 -106.010565 
L 465.046748 -106.458264 
L 465.065392 -106.905963 
L 465.084038 -107.353663 
L 465.102692 -107.801362 
L 465.121371 -108.249061 
L 465.140095 -108.69676 
L 465.158897 -109.14446 
L 465.177816 -109.592159 
L 465.196898 -110.039858 
L 465.216196 -110.487557 
L 465.235771 -110.935257 
L 465.255687 -111.382956 
L 465.276017 -111.830655 
L 465.296835 -112.278355 
L 465.318219 -112.726054 
L 465.340252 -113.173753 
L 465.363015 -113.621452 
L 465.386593 -114.069152 
L 465.411067 -114.516851 
L 465.436519 -114.96455 
L 465.463029 -115.412249 
L 465.490669 -115.859949 
L 465.519512 -116.307648 
L 465.549622 -116.755347 
L 465.581057 -117.203046 
L 465.613868 -117.650746 
L 465.648097 -118.098445 
L 465.683778 -118.546144 
L 465.720935 -118.993843 
L 465.759582 -119.441543 
L 465.799722 -119.889242 
L 465.841349 -120.336941 
L 465.884443 -120.78464 
L 465.928977 -121.23234 
L 470.346861 -121.23234 
L 470.346861 -121.23234 
L 470.391395 -120.78464 
L 470.434489 -120.336941 
L 470.476116 -119.889242 
L 470.516256 -119.441543 
L 470.554903 -118.993843 
L 470.59206 -118.546144 
L 470.627741 -118.098445 
L 470.66197 -117.650746 
L 470.694781 -117.203046 
L 470.726216 -116.755347 
L 470.756326 -116.307648 
L 470.785169 -115.859949 
L 470.812809 -115.412249 
L 470.839319 -114.96455 
L 470.864771 -114.516851 
L 470.889245 -114.069152 
L 470.912823 -113.621452 
L 470.935586 -113.173753 
L 470.957619 -112.726054 
L 470.979003 -112.278355 
L 470.999821 -111.830655 
L 471.020151 -111.382956 
L 471.040067 -110.935257 
L 471.059642 -110.487557 
L 471.07894 -110.039858 
L 471.098022 -109.592159 
L 471.116941 -109.14446 
L 471.135743 -108.69676 
L 471.154467 -108.249061 
L 471.173146 -107.801362 
L 471.1918 -107.353663 
L 471.210447 -106.905963 
L 471.22909 -106.458264 
L 471.24773 -106.010565 
L 471.266356 -105.562866 
L 471.284948 -105.115166 
L 471.303483 -104.667467 
L 471.321926 -104.219768 
L 471.340236 -103.772069 
L 471.358368 -103.324369 
L 471.376267 -102.87667 
L 471.393876 -102.428971 
L 471.411131 -101.981272 
L 471.427963 -101.533572 
L 471.444303 -101.085873 
L 471.460075 -100.638174 
L 471.475202 -100.190474 
L 471.489605 -99.742775 
L 471.503206 -99.295076 
L 471.515922 -98.847377 
L 471.527674 -98.399677 
L 471.538382 -97.951978 
L 471.547967 -97.504279 
L 471.556351 -97.05658 
L 471.56346 -96.60888 
L 471.569219 -96.161181 
L 471.57356 -95.713482 
L 471.576415 -95.265783 
L 471.57772 -94.818083 
L 471.577417 -94.370384 
L 471.575448 -93.922685 
L 471.571763 -93.474986 
L 471.566314 -93.027286 
L 471.559057 -92.579587 
L 471.549956 -92.131888 
L 471.538976 -91.684189 
L 471.526089 -91.236489 
L 471.511271 -90.78879 
L 471.494502 -90.341091 
L 471.47577 -89.893392 
L 471.455064 -89.445692 
L 471.432382 -88.997993 
L 471.407722 -88.550294 
L 471.381093 -88.102594 
L 471.352503 -87.654895 
L 471.32197 -87.207196 
L 471.289514 -86.759497 
L 471.255159 -86.311797 
L 471.218938 -85.864098 
L 471.180884 -85.416399 
L 471.141038 -84.9687 
L 471.099444 -84.521 
L 471.056152 -84.073301 
L 471.011214 -83.625602 
L 470.96469 -83.177903 
L 470.916641 -82.730203 
L 470.867134 -82.282504 
L 470.81624 -81.834805 
L 470.764033 -81.387106 
L 470.710592 -80.939406 
L 470.655997 -80.491707 
L 470.600334 -80.044008 
L 470.543692 -79.596309 
L 470.48616 -79.148609 
L 470.427832 -78.70091 
L 470.368805 -78.253211 
L 470.309175 -77.805511 
L 470.249042 -77.357812 
L 470.188506 -76.910113 
z
" style="stroke: #999999; stroke-width: 2"/>
    </defs>
    <g clip-path="url(#p1d61ba1111)">
     <use xlink:href="#md1c400b1ea" x="0" y="255.11811" style="fill: #ffffff; stroke: #999999; stroke-width: 2"/>
    </g>
   </g>
   <g id="PathCollection_1"/>
   <g id="PathCollection_2"/>
   <g id="patch_3">
    <path d="M 47.22 213.89811 
L 47.22 24.32 
" style="fill: none; stroke: #262626; stroke-width: 1.25; stroke-linejoin: miter; stroke-linecap: square"/>
   </g>
   <g id="patch_4">
    <path d="M 47.22 213.89811 
L 500.51622 213.89811 
" style="fill: none; stroke: #262626; stroke-width: 1.25; stroke-linejoin: miter; stroke-linecap: square"/>
   </g>
   <g id="PathCollection_3">
    <defs>
     <path id="C0_0_9ea9d49ef8" d="M 0 2.5 
C 0.663008 2.5 1.29895 2.236584 1.767767 1.767767 
C 2.236584 1.29895 2.5 0.663008 2.5 -0 
C 2.5 -0.663008 2.236584 -1.29895 1.767767 -1.767767 
C 1.29895 -2.236584 0.663008 -2.5 0 -2.5 
C -0.663008 -2.5 -1.29895 -2.236584 -1.767767 -1.767767 
C -2.236584 -1.29895 -2.5 -0.663008 -2.5 0 
C -2.5 0.663008 -2.236584 1.29895 -1.767767 1.767767 
C -1.29895 2.236584 -0.663008 2.5 0 2.5 
z
"/>
    </defs>
    <g clip-path="url(#p1d61ba1111)">
     <use xlink:href="#C0_0_9ea9d49ef8" x="84.311546" y="96.03654" style="fill: #4c72b0; fill-opacity: 0.75"/>
    </g>
    <g clip-path="url(#p1d61ba1111)">
     <use xlink:href="#C0_0_9ea9d49ef8" x="79.448823" y="102.475314" style="fill: #4c72b0; fill-opacity: 0.75"/>
    </g>
    <g clip-path="url(#p1d61ba1111)">
     <use xlink:href="#C0_0_9ea9d49ef8" x="76.498748" y="97.613355" style="fill: #4c72b0; fill-opacity: 0.75"/>
    </g>
    <g clip-path="url(#p1d61ba1111)">
     <use xlink:href="#C0_0_9ea9d49ef8" x="75.89133" y="104.924312" style="fill: #4c72b0; fill-opacity: 0.75"/>
    </g>
    <g clip-path="url(#p1d61ba1111)">
     <use xlink:href="#C0_0_9ea9d49ef8" x="81.35136" y="45.364148" style="fill: #dd8452; fill-opacity: 0.75"/>
    </g>
    <g clip-path="url(#p1d61ba1111)">
     <use xlink:href="#C0_0_9ea9d49ef8" x="81.167246" y="37.383993" style="fill: #dd8452; fill-opacity: 0.75"/>
    </g>
    <g clip-path="url(#p1d61ba1111)">
     <use xlink:href="#C0_0_9ea9d49ef8" x="82.773891" y="52.098756" style="fill: #dd8452; fill-opacity: 0.75"/>
    </g>
    <g clip-path="url(#p1d61ba1111)">
     <use xlink:href="#C0_0_9ea9d49ef8" x="85.320114" y="86.207798" style="fill: #dd8452; fill-opacity: 0.75"/>
    </g>
   </g>
   <g id="PathCollection_4">
    <defs>
     <path id="C1_0_c101264d21" d="M 0 2.5 
C 0.663008 2.5 1.29895 2.236584 1.767767 1.767767 
C 2.236584 1.29895 2.5 0.663008 2.5 -0 
C 2.5 -0.663008 2.236584 -1.29895 1.767767 -1.767767 
C 1.29895 -2.236584 0.663008 -2.5 0 -2.5 
C -0.663008 -2.5 -1.29895 -2.236584 -1.767767 -1.767767 
C -2.236584 -1.29895 -2.5 -0.663008 -2.5 0 
C -2.5 0.663008 -2.236584 1.29895 -1.767767 1.767767 
C -1.29895 2.236584 -0.663008 2.5 0 2.5 
z
"/>
    </defs>
    <g clip-path="url(#p1d61ba1111)">
     <use xlink:href="#C1_0_c101264d21" x="141.556432" y="198.542041" style="fill: #4c72b0; fill-opacity: 0.75"/>
    </g>
    <g clip-path="url(#p1d61ba1111)">
     <use xlink:href="#C1_0_c101264d21" x="140.018902" y="194.351683" style="fill: #4c72b0; fill-opacity: 0.75"/>
    </g>
    <g clip-path="url(#p1d61ba1111)">
     <use xlink:href="#C1_0_c101264d21" x="146.223741" y="196.734565" style="fill: #4c72b0; fill-opacity: 0.75"/>
    </g>
    <g clip-path="url(#p1d61ba1111)">
     <use xlink:href="#C1_0_c101264d21" x="150.36072" y="202.220735" style="fill: #4c72b0; fill-opacity: 0.75"/>
    </g>
    <g clip-path="url(#p1d61ba1111)">
     <use xlink:href="#C1_0_c101264d21" x="148.828172" y="196.897718" style="fill: #dd8452; fill-opacity: 0.75"/>
    </g>
    <g clip-path="url(#p1d61ba1111)">
     <use xlink:href="#C1_0_c101264d21" x="143.223191" y="198.224237" style="fill: #dd8452; fill-opacity: 0.75"/>
    </g>
    <g clip-path="url(#p1d61ba1111)">
     <use xlink:href="#C1_0_c101264d21" x="150.24577" y="195.781006" style="fill: #dd8452; fill-opacity: 0.75"/>
    </g>
    <g clip-path="url(#p1d61ba1111)">
     <use xlink:href="#C1_0_c101264d21" x="138.409179" y="190.603783" style="fill: #dd8452; fill-opacity: 0.75"/>
    </g>
   </g>
   <g id="PathCollection_5">
    <defs>
     <path id="C2_0_ff31d1367f" d="M 0 2.5 
C 0.663008 2.5 1.29895 2.236584 1.767767 1.767767 
C 2.236584 1.29895 2.5 0.663008 2.5 -0 
C 2.5 -0.663008 2.236584 -1.29895 1.767767 -1.767767 
C 1.29895 -2.236584 0.663008 -2.5 0 -2.5 
C -0.663008 -2.5 -1.29895 -2.236584 -1.767767 -1.767767 
C -2.236584 -1.29895 -2.5 -0.663008 -2.5 0 
C -2.5 0.663008 -2.236584 1.29895 -1.767767 1.767767 
C -1.29895 2.236584 -0.663008 2.5 0 2.5 
z
"/>
    </defs>
    <g clip-path="url(#p1d61ba1111)">
     <use xlink:href="#C2_0_ff31d1367f" x="203.810025" y="178.788416" style="fill: #4c72b0; fill-opacity: 0.75"/>
    </g>
    <g clip-path="url(#p1d61ba1111)">
     <use xlink:href="#C2_0_ff31d1367f" x="210.196487" y="173.221375" style="fill: #4c72b0; fill-opacity: 0.75"/>
    </g>
    <g clip-path="url(#p1d61ba1111)">
     <use xlink:href="#C2_0_ff31d1367f" x="207.818616" y="164.410778" style="fill: #4c72b0; fill-opacity: 0.75"/>
    </g>
    <g clip-path="url(#p1d61ba1111)">
     <use xlink:href="#C2_0_ff31d1367f" x="214.935091" y="193.739996" style="fill: #4c72b0; fill-opacity: 0.75"/>
    </g>
    <g clip-path="url(#p1d61ba1111)">
     <use xlink:href="#C2_0_ff31d1367f" x="205.425673" y="178.827013" style="fill: #dd8452; fill-opacity: 0.75"/>
    </g>
    <g clip-path="url(#p1d61ba1111)">
     <use xlink:href="#C2_0_ff31d1367f" x="203.773817" y="176.596942" style="fill: #dd8452; fill-opacity: 0.75"/>
    </g>
    <g clip-path="url(#p1d61ba1111)">
     <use xlink:href="#C2_0_ff31d1367f" x="213.90224" y="164.254997" style="fill: #dd8452; fill-opacity: 0.75"/>
    </g>
    <g clip-path="url(#p1d61ba1111)">
     <use xlink:href="#C2_0_ff31d1367f" x="207.875306" y="179.436109" style="fill: #dd8452; fill-opacity: 0.75"/>
    </g>
   </g>
   <g id="PathCollection_6">
    <defs>
     <path id="C3_0_c2d1d2af4f" d="M 0 2.5 
C 0.663008 2.5 1.29895 2.236584 1.767767 1.767767 
C 2.236584 1.29895 2.5 0.663008 2.5 -0 
C 2.5 -0.663008 2.236584 -1.29895 1.767767 -1.767767 
C 1.29895 -2.236584 0.663008 -2.5 0 -2.5 
C -0.663008 -2.5 -1.29895 -2.236584 -1.767767 -1.767767 
C -2.236584 -1.29895 -2.5 -0.663008 -2.5 0 
C -2.5 0.663008 -2.236584 1.29895 -1.767767 1.767767 
C -1.29895 2.236584 -0.663008 2.5 0 2.5 
z
"/>
    </defs>
    <g clip-path="url(#p1d61ba1111)">
     <use xlink:href="#C3_0_c2d1d2af4f" x="269.654752" y="204.761279" style="fill: #4c72b0; fill-opacity: 0.75"/>
    </g>
    <g clip-path="url(#p1d61ba1111)">
     <use xlink:href="#C3_0_c2d1d2af4f" x="279.598107" y="204.941869" style="fill: #4c72b0; fill-opacity: 0.75"/>
    </g>
    <g clip-path="url(#p1d61ba1111)">
     <use xlink:href="#C3_0_c2d1d2af4f" x="272.983671" y="200.861413" style="fill: #4c72b0; fill-opacity: 0.75"/>
    </g>
    <g clip-path="url(#p1d61ba1111)">
     <use xlink:href="#C3_0_c2d1d2af4f" x="269.166954" y="203.103377" style="fill: #4c72b0; fill-opacity: 0.75"/>
    </g>
    <g clip-path="url(#p1d61ba1111)">
     <use xlink:href="#C3_0_c2d1d2af4f" x="276.580111" y="205.280923" style="fill: #4c72b0; fill-opacity: 0.75"/>
    </g>
    <g clip-path="url(#p1d61ba1111)">
     <use xlink:href="#C3_0_c2d1d2af4f" x="278.62505" y="205.115386" style="fill: #dd8452; fill-opacity: 0.75"/>
    </g>
    <g clip-path="url(#p1d61ba1111)">
     <use xlink:href="#C3_0_c2d1d2af4f" x="278.434833" y="202.439776" style="fill: #dd8452; fill-opacity: 0.75"/>
    </g>
    <g clip-path="url(#p1d61ba1111)">
     <use xlink:href="#C3_0_c2d1d2af4f" x="277.518474" y="196.310554" style="fill: #dd8452; fill-opacity: 0.75"/>
    </g>
    <g clip-path="url(#p1d61ba1111)">
     <use xlink:href="#C3_0_c2d1d2af4f" x="276.788059" y="202.425495" style="fill: #dd8452; fill-opacity: 0.75"/>
    </g>
    <g clip-path="url(#p1d61ba1111)">
     <use xlink:href="#C3_0_c2d1d2af4f" x="276.387671" y="202.353209" style="fill: #dd8452; fill-opacity: 0.75"/>
    </g>
   </g>
   <g id="PathCollection_7">
    <defs>
     <path id="C4_0_55e2963c56" d="M 0 2.5 
C 0.663008 2.5 1.29895 2.236584 1.767767 1.767767 
C 2.236584 1.29895 2.5 0.663008 2.5 -0 
C 2.5 -0.663008 2.236584 -1.29895 1.767767 -1.767767 
C 1.29895 -2.236584 0.663008 -2.5 0 -2.5 
C -0.663008 -2.5 -1.29895 -2.236584 -1.767767 -1.767767 
C -2.236584 -1.29895 -2.5 -0.663008 -2.5 0 
C -2.5 0.663008 -2.236584 1.29895 -1.767767 1.767767 
C -1.29895 2.236584 -0.663008 2.5 0 2.5 
z
"/>
    </defs>
    <g clip-path="url(#p1d61ba1111)">
     <use xlink:href="#C4_0_55e2963c56" x="341.019963" y="168.732022" style="fill: #4c72b0; fill-opacity: 0.75"/>
    </g>
    <g clip-path="url(#p1d61ba1111)">
     <use xlink:href="#C4_0_55e2963c56" x="334.59128" y="187.973905" style="fill: #4c72b0; fill-opacity: 0.75"/>
    </g>
    <g clip-path="url(#p1d61ba1111)">
     <use xlink:href="#C4_0_55e2963c56" x="340.891155" y="173.553325" style="fill: #4c72b0; fill-opacity: 0.75"/>
    </g>
    <g clip-path="url(#p1d61ba1111)">
     <use xlink:href="#C4_0_55e2963c56" x="338.340868" y="152.81481" style="fill: #dd8452; fill-opacity: 0.75"/>
    </g>
    <g clip-path="url(#p1d61ba1111)">
     <use xlink:href="#C4_0_55e2963c56" x="339.363791" y="154.802762" style="fill: #dd8452; fill-opacity: 0.75"/>
    </g>
    <g clip-path="url(#p1d61ba1111)">
     <use xlink:href="#C4_0_55e2963c56" x="334.485561" y="164.427018" style="fill: #dd8452; fill-opacity: 0.75"/>
    </g>
   </g>
   <g id="PathCollection_8">
    <defs>
     <path id="C5_0_9a1edc225e" d="M 0 2.5 
C 0.663008 2.5 1.29895 2.236584 1.767767 1.767767 
C 2.236584 1.29895 2.5 0.663008 2.5 -0 
C 2.5 -0.663008 2.236584 -1.29895 1.767767 -1.767767 
C 1.29895 -2.236584 0.663008 -2.5 0 -2.5 
C -0.663008 -2.5 -1.29895 -2.236584 -1.767767 -1.767767 
C -2.236584 -1.29895 -2.5 -0.663008 -2.5 0 
C -2.5 0.663008 -2.236584 1.29895 -1.767767 1.767767 
C -1.29895 2.236584 -0.663008 2.5 0 2.5 
z
"/>
    </defs>
    <g clip-path="url(#p1d61ba1111)">
     <use xlink:href="#C5_0_9a1edc225e" x="400.742092" y="43.426747" style="fill: #4c72b0; fill-opacity: 0.75"/>
    </g>
    <g clip-path="url(#p1d61ba1111)">
     <use xlink:href="#C5_0_9a1edc225e" x="398.997371" y="43.550545" style="fill: #4c72b0; fill-opacity: 0.75"/>
    </g>
    <g clip-path="url(#p1d61ba1111)">
     <use xlink:href="#C5_0_9a1edc225e" x="399.515777" y="72.024335" style="fill: #4c72b0; fill-opacity: 0.75"/>
    </g>
    <g clip-path="url(#p1d61ba1111)">
     <use xlink:href="#C5_0_9a1edc225e" x="402.053958" y="32.937187" style="fill: #4c72b0; fill-opacity: 0.75"/>
    </g>
    <g clip-path="url(#p1d61ba1111)">
     <use xlink:href="#C5_0_9a1edc225e" x="400.161148" y="142.751019" style="fill: #dd8452; fill-opacity: 0.75"/>
    </g>
    <g clip-path="url(#p1d61ba1111)">
     <use xlink:href="#C5_0_9a1edc225e" x="407.492191" y="134.729073" style="fill: #dd8452; fill-opacity: 0.75"/>
    </g>
    <g clip-path="url(#p1d61ba1111)">
     <use xlink:href="#C5_0_9a1edc225e" x="404.614549" y="166.49591" style="fill: #dd8452; fill-opacity: 0.75"/>
    </g>
    <g clip-path="url(#p1d61ba1111)">
     <use xlink:href="#C5_0_9a1edc225e" x="397.141172" y="150.361103" style="fill: #dd8452; fill-opacity: 0.75"/>
    </g>
   </g>
   <g id="PathCollection_9">
    <defs>
     <path id="C6_0_3a50671f4a" d="M 0 2.5 
C 0.663008 2.5 1.29895 2.236584 1.767767 1.767767 
C 2.236584 1.29895 2.5 0.663008 2.5 -0 
C 2.5 -0.663008 2.236584 -1.29895 1.767767 -1.767767 
C 1.29895 -2.236584 0.663008 -2.5 0 -2.5 
C -0.663008 -2.5 -1.29895 -2.236584 -1.767767 -1.767767 
C -2.236584 -1.29895 -2.5 -0.663008 -2.5 0 
C -2.5 0.663008 -2.236584 1.29895 -1.767767 1.767767 
C -1.29895 2.236584 -0.663008 2.5 0 2.5 
z
"/>
    </defs>
    <g clip-path="url(#p1d61ba1111)">
     <use xlink:href="#C6_0_3a50671f4a" x="470.986799" y="146.258686" style="fill: #4c72b0; fill-opacity: 0.75"/>
    </g>
    <g clip-path="url(#p1d61ba1111)">
     <use xlink:href="#C6_0_3a50671f4a" x="468.823442" y="136.483454" style="fill: #4c72b0; fill-opacity: 0.75"/>
    </g>
    <g clip-path="url(#p1d61ba1111)">
     <use xlink:href="#C6_0_3a50671f4a" x="474.437035" y="133.88577" style="fill: #4c72b0; fill-opacity: 0.75"/>
    </g>
    <g clip-path="url(#p1d61ba1111)">
     <use xlink:href="#C6_0_3a50671f4a" x="467.219873" y="169.555859" style="fill: #4c72b0; fill-opacity: 0.75"/>
    </g>
    <g clip-path="url(#p1d61ba1111)">
     <use xlink:href="#C6_0_3a50671f4a" x="472.278919" y="155.500315" style="fill: #dd8452; fill-opacity: 0.75"/>
    </g>
    <g clip-path="url(#p1d61ba1111)">
     <use xlink:href="#C6_0_3a50671f4a" x="470.229171" y="166.151289" style="fill: #dd8452; fill-opacity: 0.75"/>
    </g>
    <g clip-path="url(#p1d61ba1111)">
     <use xlink:href="#C6_0_3a50671f4a" x="470.470078" y="157.847999" style="fill: #dd8452; fill-opacity: 0.75"/>
    </g>
    <g clip-path="url(#p1d61ba1111)">
     <use xlink:href="#C6_0_3a50671f4a" x="473.609326" y="178.207997" style="fill: #dd8452; fill-opacity: 0.75"/>
    </g>
   </g>
   <g id="text_16">
    <!-- LMCD1, $p_{adj}$ &lt; .001 *** -->
    <g style="fill: #262626" transform="translate(47.22 18.32)scale(0.09 -0.09)">
     <defs>
      <path id="ArialMT-4c" d="M 469 0 
L 469 4581 
L 1075 4581 
L 1075 541 
L 3331 541 
L 3331 0 
L 469 0 
z
" transform="scale(0.015625)"/>
      <path id="ArialMT-43" d="M 3763 1606 
L 4369 1453 
Q 4178 706 3683 314 
Q 3188 -78 2472 -78 
Q 1731 -78 1267 223 
Q 803 525 561 1097 
Q 319 1669 319 2325 
Q 319 3041 592 3573 
Q 866 4106 1370 4382 
Q 1875 4659 2481 4659 
Q 3169 4659 3637 4309 
Q 4106 3959 4291 3325 
L 3694 3184 
Q 3534 3684 3231 3912 
Q 2928 4141 2469 4141 
Q 1941 4141 1586 3887 
Q 1231 3634 1087 3207 
Q 944 2781 944 2328 
Q 944 1744 1114 1308 
Q 1284 872 1643 656 
Q 2003 441 2422 441 
Q 2931 441 3284 734 
Q 3638 1028 3763 1606 
z
" transform="scale(0.015625)"/>
      <path id="ArialMT-44" d="M 494 0 
L 494 4581 
L 2072 4581 
Q 2606 4581 2888 4516 
Q 3281 4425 3559 4188 
Q 3922 3881 4101 3404 
Q 4281 2928 4281 2316 
Q 4281 1794 4159 1391 
Q 4038 988 3847 723 
Q 3656 459 3429 307 
Q 3203 156 2883 78 
Q 2563 0 2147 0 
L 494 0 
z
M 1100 541 
L 2078 541 
Q 2531 541 2789 625 
Q 3047 709 3200 863 
Q 3416 1078 3536 1442 
Q 3656 1806 3656 2325 
Q 3656 3044 3420 3430 
Q 3184 3816 2847 3947 
Q 2603 4041 2063 4041 
L 1100 4041 
L 1100 541 
z
" transform="scale(0.015625)"/>
      <path id="ArialMT-2c" d="M 569 0 
L 569 641 
L 1209 641 
L 1209 0 
Q 1209 -353 1084 -570 
Q 959 -788 688 -906 
L 531 -666 
Q 709 -588 793 -436 
Q 878 -284 888 0 
L 569 0 
z
" transform="scale(0.015625)"/>
      <path id="DejaVuSans-Oblique-70" d="M 3175 2156 
Q 3175 2616 2975 2859 
Q 2775 3103 2400 3103 
Q 2144 3103 1911 2972 
Q 1678 2841 1497 2591 
Q 1319 2344 1212 1994 
Q 1106 1644 1106 1300 
Q 1106 863 1306 627 
Q 1506 391 1875 391 
Q 2147 391 2380 519 
Q 2613 647 2778 891 
Q 2956 1147 3065 1494 
Q 3175 1841 3175 2156 
z
M 1394 2969 
Q 1625 3272 1939 3428 
Q 2253 3584 2638 3584 
Q 3175 3584 3472 3232 
Q 3769 2881 3769 2247 
Q 3769 1728 3584 1258 
Q 3400 788 3053 416 
Q 2822 169 2531 39 
Q 2241 -91 1919 -91 
Q 1547 -91 1294 64 
Q 1041 219 916 525 
L 556 -1331 
L -19 -1331 
L 922 3500 
L 1497 3500 
L 1394 2969 
z
" transform="scale(0.015625)"/>
      <path id="DejaVuSans-Oblique-61" d="M 3438 1997 
L 3047 0 
L 2472 0 
L 2578 531 
Q 2325 219 2001 64 
Q 1678 -91 1281 -91 
Q 834 -91 548 182 
Q 263 456 263 884 
Q 263 1497 752 1853 
Q 1241 2209 2100 2209 
L 2900 2209 
L 2931 2363 
Q 2938 2388 2941 2417 
Q 2944 2447 2944 2509 
Q 2944 2788 2717 2942 
Q 2491 3097 2081 3097 
Q 1800 3097 1504 3025 
Q 1209 2953 897 2809 
L 997 3341 
Q 1322 3463 1633 3523 
Q 1944 3584 2234 3584 
Q 2853 3584 3176 3315 
Q 3500 3047 3500 2534 
Q 3500 2431 3484 2292 
Q 3469 2153 3438 1997 
z
M 2816 1759 
L 2241 1759 
Q 1534 1759 1195 1570 
Q 856 1381 856 984 
Q 856 709 1029 553 
Q 1203 397 1509 397 
Q 1978 397 2328 733 
Q 2678 1069 2791 1631 
L 2816 1759 
z
" transform="scale(0.015625)"/>
      <path id="DejaVuSans-Oblique-64" d="M 2675 525 
Q 2444 222 2128 65 
Q 1813 -91 1428 -91 
Q 903 -91 598 267 
Q 294 625 294 1247 
Q 294 1766 478 2236 
Q 663 2706 1013 3078 
Q 1244 3325 1534 3454 
Q 1825 3584 2144 3584 
Q 2481 3584 2739 3421 
Q 2997 3259 3138 2956 
L 3513 4863 
L 4091 4863 
L 3144 0 
L 2566 0 
L 2675 525 
z
M 891 1350 
Q 891 897 1095 644 
Q 1300 391 1663 391 
Q 1931 391 2161 520 
Q 2391 650 2566 903 
Q 2750 1166 2856 1509 
Q 2963 1853 2963 2188 
Q 2963 2622 2758 2865 
Q 2553 3109 2194 3109 
Q 1922 3109 1687 2981 
Q 1453 2853 1288 2613 
Q 1106 2353 998 2009 
Q 891 1666 891 1350 
z
" transform="scale(0.015625)"/>
      <path id="DejaVuSans-Oblique-6a" d="M 928 3500 
L 1503 3500 
L 813 -63 
L 809 -78 
Q 694 -675 544 -897 
Q 403 -1106 132 -1218 
Q -138 -1331 -506 -1331 
L -722 -1331 
L -628 -844 
L -481 -844 
Q -144 -844 -1 -703 
Q 141 -563 238 -63 
L 928 3500 
z
M 1197 4863 
L 1772 4863 
L 1631 4134 
L 1056 4134 
L 1197 4863 
z
" transform="scale(0.015625)"/>
      <path id="ArialMT-3c" d="M 350 2003 
L 350 2528 
L 3384 3809 
L 3384 3250 
L 978 2263 
L 3384 1266 
L 3384 706 
L 350 2003 
z
" transform="scale(0.015625)"/>
      <path id="ArialMT-2e" d="M 581 0 
L 581 641 
L 1222 641 
L 1222 0 
L 581 0 
z
" transform="scale(0.015625)"/>
      <path id="ArialMT-2a" d="M 200 3741 
L 344 4184 
Q 841 4009 1066 3881 
Q 1006 4447 1003 4659 
L 1456 4659 
Q 1447 4350 1384 3884 
Q 1706 4047 2122 4184 
L 2266 3741 
Q 1869 3609 1488 3566 
Q 1678 3400 2025 2975 
L 1650 2709 
Q 1469 2956 1222 3381 
Q 991 2941 816 2709 
L 447 2975 
Q 809 3422 966 3566 
Q 563 3644 200 3741 
z
" transform="scale(0.015625)"/>
     </defs>
     <use xlink:href="#ArialMT-4c" transform="translate(0 0.203125)"/>
     <use xlink:href="#ArialMT-4d" transform="translate(55.615234 0.203125)"/>
     <use xlink:href="#ArialMT-43" transform="translate(138.916016 0.203125)"/>
     <use xlink:href="#ArialMT-44" transform="translate(211.132812 0.203125)"/>
     <use xlink:href="#ArialMT-31" transform="translate(283.349609 0.203125)"/>
     <use xlink:href="#ArialMT-2c" transform="translate(338.964844 0.203125)"/>
     <use xlink:href="#ArialMT-20" transform="translate(366.748047 0.203125)"/>
     <use xlink:href="#DejaVuSans-Oblique-70" transform="translate(394.53125 0.203125)"/>
     <use xlink:href="#DejaVuSans-Oblique-61" transform="translate(458.007812 -16.203125)scale(0.7)"/>
     <use xlink:href="#DejaVuSans-Oblique-64" transform="translate(500.90332 -16.203125)scale(0.7)"/>
     <use xlink:href="#DejaVuSans-Oblique-6a" transform="translate(545.336914 -16.203125)scale(0.7)"/>
     <use xlink:href="#ArialMT-20" transform="translate(567.519531 0.203125)"/>
     <use xlink:href="#ArialMT-3c" transform="translate(595.302734 0.203125)"/>
     <use xlink:href="#ArialMT-20" transform="translate(653.701172 0.203125)"/>
     <use xlink:href="#ArialMT-2e" transform="translate(681.484375 0.203125)"/>
     <use xlink:href="#ArialMT-30" transform="translate(709.267578 0.203125)"/>
     <use xlink:href="#ArialMT-30" transform="translate(764.882812 0.203125)"/>
     <use xlink:href="#ArialMT-31" transform="translate(820.498047 0.203125)"/>
     <use xlink:href="#ArialMT-20" transform="translate(876.113281 0.203125)"/>
     <use xlink:href="#ArialMT-2a" transform="translate(903.896484 0.203125)"/>
     <use xlink:href="#ArialMT-2a" transform="translate(942.8125 0.203125)"/>
     <use xlink:href="#ArialMT-2a" transform="translate(981.728516 0.203125)"/>
    </g>
   </g>
   <g id="legend_1">
    <g id="patch_5">
     <path d="M 441.91497 69.712344 
L 494.21622 69.712344 
Q 496.01622 69.712344 496.01622 67.912344 
L 496.01622 30.62 
Q 496.01622 28.82 494.21622 28.82 
L 441.91497 28.82 
Q 440.11497 28.82 440.11497 30.62 
L 440.11497 67.912344 
Q 440.11497 69.712344 441.91497 69.712344 
z
" style="fill: #ffffff; opacity: 0.8; stroke: #cccccc; stroke-linejoin: miter"/>
    </g>
    <g id="text_17">
     <!-- Treatment -->
     <g style="fill: #262626" transform="translate(447.729111 38.862031)scale(0.09 -0.09)">
      <use xlink:href="#ArialMT-54"/>
      <use xlink:href="#ArialMT-72" x="57.333984"/>
      <use xlink:href="#ArialMT-65" x="90.634766"/>
      <use xlink:href="#ArialMT-61" x="146.25"/>
      <use xlink:href="#ArialMT-74" x="201.865234"/>
      <use xlink:href="#ArialMT-6d" x="229.648438"/>
      <use xlink:href="#ArialMT-65" x="312.949219"/>
      <use xlink:href="#ArialMT-6e" x="368.564453"/>
      <use xlink:href="#ArialMT-74" x="424.179688"/>
     </g>
    </g>
    <g id="PathCollection_10">
     <defs>
      <path id="meb1def7a19" d="M 0 3.872983 
C 1.027127 3.872983 2.012324 3.464901 2.738613 2.738613 
C 3.464901 2.012324 3.872983 1.027127 3.872983 0 
C 3.872983 -1.027127 3.464901 -2.012324 2.738613 -2.738613 
C 2.012324 -3.464901 1.027127 -3.872983 0 -3.872983 
C -1.027127 -3.872983 -2.012324 -3.464901 -2.738613 -2.738613 
C -3.464901 -2.012324 -3.872983 -1.027127 -3.872983 0 
C -3.872983 1.027127 -3.464901 2.012324 -2.738613 2.738613 
C -2.012324 3.464901 -1.027127 3.872983 0 3.872983 
z
" style="stroke: #4c72b0"/>
     </defs>
     <g>
      <use xlink:href="#meb1def7a19" x="452.71497" y="49.230313" style="fill: #4c72b0; stroke: #4c72b0"/>
     </g>
    </g>
    <g id="text_18">
     <!-- BEVA -->
     <g style="fill: #262626" transform="translate(468.91497 51.592813)scale(0.09 -0.09)">
      <defs>
       <path id="ArialMT-42" d="M 469 0 
L 469 4581 
L 2188 4581 
Q 2713 4581 3030 4442 
Q 3347 4303 3526 4014 
Q 3706 3725 3706 3409 
Q 3706 3116 3547 2856 
Q 3388 2597 3066 2438 
Q 3481 2316 3704 2022 
Q 3928 1728 3928 1328 
Q 3928 1006 3792 729 
Q 3656 453 3456 303 
Q 3256 153 2954 76 
Q 2653 0 2216 0 
L 469 0 
z
M 1075 2656 
L 2066 2656 
Q 2469 2656 2644 2709 
Q 2875 2778 2992 2937 
Q 3109 3097 3109 3338 
Q 3109 3566 3000 3739 
Q 2891 3913 2687 3977 
Q 2484 4041 1991 4041 
L 1075 4041 
L 1075 2656 
z
M 1075 541 
L 2216 541 
Q 2509 541 2628 563 
Q 2838 600 2978 687 
Q 3119 775 3209 942 
Q 3300 1109 3300 1328 
Q 3300 1584 3169 1773 
Q 3038 1963 2805 2039 
Q 2572 2116 2134 2116 
L 1075 2116 
L 1075 541 
z
" transform="scale(0.015625)"/>
       <path id="ArialMT-45" d="M 506 0 
L 506 4581 
L 3819 4581 
L 3819 4041 
L 1113 4041 
L 1113 2638 
L 3647 2638 
L 3647 2100 
L 1113 2100 
L 1113 541 
L 3925 541 
L 3925 0 
L 506 0 
z
" transform="scale(0.015625)"/>
       <path id="ArialMT-56" d="M 1803 0 
L 28 4581 
L 684 4581 
L 1875 1253 
Q 2019 853 2116 503 
Q 2222 878 2363 1253 
L 3600 4581 
L 4219 4581 
L 2425 0 
L 1803 0 
z
" transform="scale(0.015625)"/>
       <path id="ArialMT-41" d="M -9 0 
L 1750 4581 
L 2403 4581 
L 4278 0 
L 3588 0 
L 3053 1388 
L 1138 1388 
L 634 0 
L -9 0 
z
M 1313 1881 
L 2866 1881 
L 2388 3150 
Q 2169 3728 2063 4100 
Q 1975 3659 1816 3225 
L 1313 1881 
z
" transform="scale(0.015625)"/>
      </defs>
      <use xlink:href="#ArialMT-42"/>
      <use xlink:href="#ArialMT-45" x="66.699219"/>
      <use xlink:href="#ArialMT-56" x="133.398438"/>
      <use xlink:href="#ArialMT-41" x="192.722656"/>
     </g>
    </g>
    <g id="PathCollection_11">
     <defs>
      <path id="m1cf490fac3" d="M 0 3.872983 
C 1.027127 3.872983 2.012324 3.464901 2.738613 2.738613 
C 3.464901 2.012324 3.872983 1.027127 3.872983 0 
C 3.872983 -1.027127 3.464901 -2.012324 2.738613 -2.738613 
C 2.012324 -3.464901 1.027127 -3.872983 0 -3.872983 
C -1.027127 -3.872983 -2.012324 -3.464901 -2.738613 -2.738613 
C -3.464901 -2.012324 -3.872983 -1.027127 -3.872983 0 
C -3.872983 1.027127 -3.464901 2.012324 -2.738613 2.738613 
C -2.012324 3.464901 -1.027127 3.872983 0 3.872983 
z
" style="stroke: #dd8452"/>
     </defs>
     <g>
      <use xlink:href="#m1cf490fac3" x="452.71497" y="61.961094" style="fill: #dd8452; stroke: #dd8452"/>
     </g>
    </g>
    <g id="text_19">
     <!-- CTRL -->
     <g style="fill: #262626" transform="translate(468.91497 64.323594)scale(0.09 -0.09)">
      <defs>
       <path id="ArialMT-52" d="M 503 0 
L 503 4581 
L 2534 4581 
Q 3147 4581 3465 4457 
Q 3784 4334 3975 4021 
Q 4166 3709 4166 3331 
Q 4166 2844 3850 2509 
Q 3534 2175 2875 2084 
Q 3116 1969 3241 1856 
Q 3506 1613 3744 1247 
L 4541 0 
L 3778 0 
L 3172 953 
Q 2906 1366 2734 1584 
Q 2563 1803 2427 1890 
Q 2291 1978 2150 2013 
Q 2047 2034 1813 2034 
L 1109 2034 
L 1109 0 
L 503 0 
z
M 1109 2559 
L 2413 2559 
Q 2828 2559 3062 2645 
Q 3297 2731 3419 2920 
Q 3541 3109 3541 3331 
Q 3541 3656 3305 3865 
Q 3069 4075 2559 4075 
L 1109 4075 
L 1109 2559 
z
" transform="scale(0.015625)"/>
      </defs>
      <use xlink:href="#ArialMT-43"/>
      <use xlink:href="#ArialMT-54" x="72.216797"/>
      <use xlink:href="#ArialMT-52" x="133.300781"/>
      <use xlink:href="#ArialMT-4c" x="205.517578"/>
     </g>
    </g>
   </g>
  </g>
 </g>
 <defs>
  <clipPath id="p1d61ba1111">
   <rect x="47.22" y="24.32" width="453.29622" height="189.57811"/>
  </clipPath>
 </defs>
</svg>
