<?xml version="1.0" encoding="utf-8" standalone="no"?>
<!DOCTYPE svg PUBLIC "-//W3C//DTD SVG 1.1//EN"
  "http://www.w3.org/Graphics/SVG/1.1/DTD/svg11.dtd">
<svg xmlns:xlink="http://www.w3.org/1999/xlink" width="510.23622pt" height="255.11811pt" viewBox="0 0 510.23622 255.11811" xmlns="http://www.w3.org/2000/svg" version="1.1">
 <metadata>
  <rdf:RDF xmlns:dc="http://purl.org/dc/elements/1.1/" xmlns:cc="http://creativecommons.org/ns#" xmlns:rdf="http://www.w3.org/1999/02/22-rdf-syntax-ns#">
   <cc:Work>
    <dc:type rdf:resource="http://purl.org/dc/dcmitype/StillImage"/>
    <dc:date>2022-04-27T00:19:36.012501</dc:date>
    <dc:format>image/svg+xml</dc:format>
    <dc:creator>
     <cc:Agent>
      <dc:title>Matplotlib v3.5.1, https://matplotlib.org/</dc:title>
     </cc:Agent>
    </dc:creator>
   </cc:Work>
  </rdf:RDF>
 </metadata>
 <defs>
  <style type="text/css">*{stroke-linejoin: round; stroke-linecap: butt}</style>
 </defs>
 <g id="figure_1">
  <g id="patch_1">
   <path d="M 0 255.11811 
L 510.23622 255.11811 
L 510.23622 0 
L 0 0 
z
" style="fill: #ffffff"/>
  </g>
  <g id="axes_1">
   <g id="patch_2">
    <path d="M 42.22 213.89811 
L 500.51622 213.89811 
L 500.51622 24.32 
L 42.22 24.32 
z
" style="fill: #ffffff"/>
   </g>
   <g id="matplotlib.axis_1">
    <g id="xtick_1">
     <g id="text_1">
      <!-- 49 -->
      <g style="fill: #444444" transform="translate(69.950601 229.840141)scale(0.09 -0.09)">
       <defs>
        <path id="ArialMT-34" d="M 2069 0 
L 2069 1097 
L 81 1097 
L 81 1613 
L 2172 4581 
L 2631 4581 
L 2631 1613 
L 3250 1613 
L 3250 1097 
L 2631 1097 
L 2631 0 
L 2069 0 
z
M 2069 1613 
L 2069 3678 
L 634 1613 
L 2069 1613 
z
" transform="scale(0.015625)"/>
        <path id="ArialMT-39" d="M 350 1059 
L 891 1109 
Q 959 728 1153 556 
Q 1347 384 1650 384 
Q 1909 384 2104 503 
Q 2300 622 2425 820 
Q 2550 1019 2634 1356 
Q 2719 1694 2719 2044 
Q 2719 2081 2716 2156 
Q 2547 1888 2255 1720 
Q 1963 1553 1622 1553 
Q 1053 1553 659 1965 
Q 266 2378 266 3053 
Q 266 3750 677 4175 
Q 1088 4600 1706 4600 
Q 2153 4600 2523 4359 
Q 2894 4119 3086 3673 
Q 3278 3228 3278 2384 
Q 3278 1506 3087 986 
Q 2897 466 2520 194 
Q 2144 -78 1638 -78 
Q 1100 -78 759 220 
Q 419 519 350 1059 
z
M 2653 3081 
Q 2653 3566 2395 3850 
Q 2138 4134 1775 4134 
Q 1400 4134 1122 3828 
Q 844 3522 844 3034 
Q 844 2597 1108 2323 
Q 1372 2050 1759 2050 
Q 2150 2050 2401 2323 
Q 2653 2597 2653 3081 
z
" transform="scale(0.015625)"/>
       </defs>
       <use xlink:href="#ArialMT-34"/>
       <use xlink:href="#ArialMT-39" x="55.615234"/>
      </g>
     </g>
    </g>
    <g id="xtick_2">
     <g id="text_2">
      <!-- 17 -->
      <g style="fill: #444444" transform="translate(135.421489 229.840141)scale(0.09 -0.09)">
       <defs>
        <path id="ArialMT-31" d="M 2384 0 
L 1822 0 
L 1822 3584 
Q 1619 3391 1289 3197 
Q 959 3003 697 2906 
L 697 3450 
Q 1169 3672 1522 3987 
Q 1875 4303 2022 4600 
L 2384 4600 
L 2384 0 
z
" transform="scale(0.015625)"/>
        <path id="ArialMT-37" d="M 303 3981 
L 303 4522 
L 3269 4522 
L 3269 4084 
Q 2831 3619 2401 2847 
Q 1972 2075 1738 1259 
Q 1569 684 1522 0 
L 944 0 
Q 953 541 1156 1306 
Q 1359 2072 1739 2783 
Q 2119 3494 2547 3981 
L 303 3981 
z
" transform="scale(0.015625)"/>
       </defs>
       <use xlink:href="#ArialMT-31"/>
       <use xlink:href="#ArialMT-37" x="55.615234"/>
      </g>
     </g>
    </g>
    <g id="xtick_3">
     <g id="text_3">
      <!-- 69 -->
      <g style="fill: #444444" transform="translate(200.892378 229.840141)scale(0.09 -0.09)">
       <defs>
        <path id="ArialMT-36" d="M 3184 3459 
L 2625 3416 
Q 2550 3747 2413 3897 
Q 2184 4138 1850 4138 
Q 1581 4138 1378 3988 
Q 1113 3794 959 3422 
Q 806 3050 800 2363 
Q 1003 2672 1297 2822 
Q 1591 2972 1913 2972 
Q 2475 2972 2870 2558 
Q 3266 2144 3266 1488 
Q 3266 1056 3080 686 
Q 2894 316 2569 119 
Q 2244 -78 1831 -78 
Q 1128 -78 684 439 
Q 241 956 241 2144 
Q 241 3472 731 4075 
Q 1159 4600 1884 4600 
Q 2425 4600 2770 4297 
Q 3116 3994 3184 3459 
z
M 888 1484 
Q 888 1194 1011 928 
Q 1134 663 1356 523 
Q 1578 384 1822 384 
Q 2178 384 2434 671 
Q 2691 959 2691 1453 
Q 2691 1928 2437 2201 
Q 2184 2475 1800 2475 
Q 1419 2475 1153 2201 
Q 888 1928 888 1484 
z
" transform="scale(0.015625)"/>
       </defs>
       <use xlink:href="#ArialMT-36"/>
       <use xlink:href="#ArialMT-39" x="55.615234"/>
      </g>
     </g>
    </g>
    <g id="xtick_4">
     <g id="text_4">
      <!-- 15 -->
      <g style="fill: #444444" transform="translate(266.363266 229.840141)scale(0.09 -0.09)">
       <defs>
        <path id="ArialMT-35" d="M 266 1200 
L 856 1250 
Q 922 819 1161 601 
Q 1400 384 1738 384 
Q 2144 384 2425 690 
Q 2706 997 2706 1503 
Q 2706 1984 2436 2262 
Q 2166 2541 1728 2541 
Q 1456 2541 1237 2417 
Q 1019 2294 894 2097 
L 366 2166 
L 809 4519 
L 3088 4519 
L 3088 3981 
L 1259 3981 
L 1013 2750 
Q 1425 3038 1878 3038 
Q 2478 3038 2890 2622 
Q 3303 2206 3303 1553 
Q 3303 931 2941 478 
Q 2500 -78 1738 -78 
Q 1113 -78 717 272 
Q 322 622 266 1200 
z
" transform="scale(0.015625)"/>
       </defs>
       <use xlink:href="#ArialMT-31"/>
       <use xlink:href="#ArialMT-35" x="55.615234"/>
      </g>
     </g>
    </g>
    <g id="xtick_5">
     <g id="text_5">
      <!-- 5 -->
      <g style="fill: #444444" transform="translate(334.336577 229.840141)scale(0.09 -0.09)">
       <use xlink:href="#ArialMT-35"/>
      </g>
     </g>
    </g>
    <g id="xtick_6">
     <g id="text_6">
      <!-- 126 -->
      <g style="fill: #444444" transform="translate(394.802622 229.840141)scale(0.09 -0.09)">
       <defs>
        <path id="ArialMT-32" d="M 3222 541 
L 3222 0 
L 194 0 
Q 188 203 259 391 
Q 375 700 629 1000 
Q 884 1300 1366 1694 
Q 2113 2306 2375 2664 
Q 2638 3022 2638 3341 
Q 2638 3675 2398 3904 
Q 2159 4134 1775 4134 
Q 1369 4134 1125 3890 
Q 881 3647 878 3216 
L 300 3275 
Q 359 3922 746 4261 
Q 1134 4600 1788 4600 
Q 2447 4600 2831 4234 
Q 3216 3869 3216 3328 
Q 3216 3053 3103 2787 
Q 2991 2522 2730 2228 
Q 2469 1934 1863 1422 
Q 1356 997 1212 845 
Q 1069 694 975 541 
L 3222 541 
z
" transform="scale(0.015625)"/>
       </defs>
       <use xlink:href="#ArialMT-31"/>
       <use xlink:href="#ArialMT-32" x="55.615234"/>
       <use xlink:href="#ArialMT-36" x="111.230469"/>
      </g>
     </g>
    </g>
    <g id="xtick_7">
     <g id="text_7">
      <!-- 62 -->
      <g style="fill: #444444" transform="translate(462.775932 229.840141)scale(0.09 -0.09)">
       <use xlink:href="#ArialMT-36"/>
       <use xlink:href="#ArialMT-32" x="55.615234"/>
      </g>
     </g>
    </g>
    <g id="text_8">
     <!-- Patient -->
     <g style="fill: #444444" transform="translate(257.359048 242.070923)scale(0.09 -0.09)">
      <defs>
       <path id="ArialMT-50" d="M 494 0 
L 494 4581 
L 2222 4581 
Q 2678 4581 2919 4538 
Q 3256 4481 3484 4323 
Q 3713 4166 3852 3881 
Q 3991 3597 3991 3256 
Q 3991 2672 3619 2267 
Q 3247 1863 2275 1863 
L 1100 1863 
L 1100 0 
L 494 0 
z
M 1100 2403 
L 2284 2403 
Q 2872 2403 3119 2622 
Q 3366 2841 3366 3238 
Q 3366 3525 3220 3729 
Q 3075 3934 2838 4000 
Q 2684 4041 2272 4041 
L 1100 4041 
L 1100 2403 
z
" transform="scale(0.015625)"/>
       <path id="ArialMT-61" d="M 2588 409 
Q 2275 144 1986 34 
Q 1697 -75 1366 -75 
Q 819 -75 525 192 
Q 231 459 231 875 
Q 231 1119 342 1320 
Q 453 1522 633 1644 
Q 813 1766 1038 1828 
Q 1203 1872 1538 1913 
Q 2219 1994 2541 2106 
Q 2544 2222 2544 2253 
Q 2544 2597 2384 2738 
Q 2169 2928 1744 2928 
Q 1347 2928 1158 2789 
Q 969 2650 878 2297 
L 328 2372 
Q 403 2725 575 2942 
Q 747 3159 1072 3276 
Q 1397 3394 1825 3394 
Q 2250 3394 2515 3294 
Q 2781 3194 2906 3042 
Q 3031 2891 3081 2659 
Q 3109 2516 3109 2141 
L 3109 1391 
Q 3109 606 3145 398 
Q 3181 191 3288 0 
L 2700 0 
Q 2613 175 2588 409 
z
M 2541 1666 
Q 2234 1541 1622 1453 
Q 1275 1403 1131 1340 
Q 988 1278 909 1158 
Q 831 1038 831 891 
Q 831 666 1001 516 
Q 1172 366 1500 366 
Q 1825 366 2078 508 
Q 2331 650 2450 897 
Q 2541 1088 2541 1459 
L 2541 1666 
z
" transform="scale(0.015625)"/>
       <path id="ArialMT-74" d="M 1650 503 
L 1731 6 
Q 1494 -44 1306 -44 
Q 1000 -44 831 53 
Q 663 150 594 308 
Q 525 466 525 972 
L 525 2881 
L 113 2881 
L 113 3319 
L 525 3319 
L 525 4141 
L 1084 4478 
L 1084 3319 
L 1650 3319 
L 1650 2881 
L 1084 2881 
L 1084 941 
Q 1084 700 1114 631 
Q 1144 563 1211 522 
Q 1278 481 1403 481 
Q 1497 481 1650 503 
z
" transform="scale(0.015625)"/>
       <path id="ArialMT-69" d="M 425 3934 
L 425 4581 
L 988 4581 
L 988 3934 
L 425 3934 
z
M 425 0 
L 425 3319 
L 988 3319 
L 988 0 
L 425 0 
z
" transform="scale(0.015625)"/>
       <path id="ArialMT-65" d="M 2694 1069 
L 3275 997 
Q 3138 488 2766 206 
Q 2394 -75 1816 -75 
Q 1088 -75 661 373 
Q 234 822 234 1631 
Q 234 2469 665 2931 
Q 1097 3394 1784 3394 
Q 2450 3394 2872 2941 
Q 3294 2488 3294 1666 
Q 3294 1616 3291 1516 
L 816 1516 
Q 847 969 1125 678 
Q 1403 388 1819 388 
Q 2128 388 2347 550 
Q 2566 713 2694 1069 
z
M 847 1978 
L 2700 1978 
Q 2663 2397 2488 2606 
Q 2219 2931 1791 2931 
Q 1403 2931 1139 2672 
Q 875 2413 847 1978 
z
" transform="scale(0.015625)"/>
       <path id="ArialMT-6e" d="M 422 0 
L 422 3319 
L 928 3319 
L 928 2847 
Q 1294 3394 1984 3394 
Q 2284 3394 2536 3286 
Q 2788 3178 2913 3003 
Q 3038 2828 3088 2588 
Q 3119 2431 3119 2041 
L 3119 0 
L 2556 0 
L 2556 2019 
Q 2556 2363 2490 2533 
Q 2425 2703 2258 2804 
Q 2091 2906 1866 2906 
Q 1506 2906 1245 2678 
Q 984 2450 984 1813 
L 984 0 
L 422 0 
z
" transform="scale(0.015625)"/>
      </defs>
      <use xlink:href="#ArialMT-50"/>
      <use xlink:href="#ArialMT-61" x="66.699219"/>
      <use xlink:href="#ArialMT-74" x="122.314453"/>
      <use xlink:href="#ArialMT-69" x="150.097656"/>
      <use xlink:href="#ArialMT-65" x="172.314453"/>
      <use xlink:href="#ArialMT-6e" x="227.929688"/>
      <use xlink:href="#ArialMT-74" x="283.544922"/>
     </g>
    </g>
   </g>
   <g id="matplotlib.axis_2">
    <g id="ytick_1">
     <g id="text_9">
      <!-- 10 -->
      <g style="fill: #444444" transform="translate(22.710313 195.584374)scale(0.09 -0.09)">
       <defs>
        <path id="ArialMT-30" d="M 266 2259 
Q 266 3072 433 3567 
Q 600 4063 929 4331 
Q 1259 4600 1759 4600 
Q 2128 4600 2406 4451 
Q 2684 4303 2865 4023 
Q 3047 3744 3150 3342 
Q 3253 2941 3253 2259 
Q 3253 1453 3087 958 
Q 2922 463 2592 192 
Q 2263 -78 1759 -78 
Q 1097 -78 719 397 
Q 266 969 266 2259 
z
M 844 2259 
Q 844 1131 1108 757 
Q 1372 384 1759 384 
Q 2147 384 2411 759 
Q 2675 1134 2675 2259 
Q 2675 3391 2411 3762 
Q 2147 4134 1753 4134 
Q 1366 4134 1134 3806 
Q 844 3388 844 2259 
z
" transform="scale(0.015625)"/>
       </defs>
       <use xlink:href="#ArialMT-31"/>
       <use xlink:href="#ArialMT-30" x="55.615234"/>
      </g>
     </g>
    </g>
    <g id="ytick_2">
     <g id="text_10">
      <!-- 20 -->
      <g style="fill: #444444" transform="translate(22.710313 169.248567)scale(0.09 -0.09)">
       <use xlink:href="#ArialMT-32"/>
       <use xlink:href="#ArialMT-30" x="55.615234"/>
      </g>
     </g>
    </g>
    <g id="ytick_3">
     <g id="text_11">
      <!-- 30 -->
      <g style="fill: #444444" transform="translate(22.710313 142.912759)scale(0.09 -0.09)">
       <defs>
        <path id="ArialMT-33" d="M 269 1209 
L 831 1284 
Q 928 806 1161 595 
Q 1394 384 1728 384 
Q 2125 384 2398 659 
Q 2672 934 2672 1341 
Q 2672 1728 2419 1979 
Q 2166 2231 1775 2231 
Q 1616 2231 1378 2169 
L 1441 2663 
Q 1497 2656 1531 2656 
Q 1891 2656 2178 2843 
Q 2466 3031 2466 3422 
Q 2466 3731 2256 3934 
Q 2047 4138 1716 4138 
Q 1388 4138 1169 3931 
Q 950 3725 888 3313 
L 325 3413 
Q 428 3978 793 4289 
Q 1159 4600 1703 4600 
Q 2078 4600 2393 4439 
Q 2709 4278 2876 4000 
Q 3044 3722 3044 3409 
Q 3044 3113 2884 2869 
Q 2725 2625 2413 2481 
Q 2819 2388 3044 2092 
Q 3269 1797 3269 1353 
Q 3269 753 2831 336 
Q 2394 -81 1725 -81 
Q 1122 -81 723 278 
Q 325 638 269 1209 
z
" transform="scale(0.015625)"/>
       </defs>
       <use xlink:href="#ArialMT-33"/>
       <use xlink:href="#ArialMT-30" x="55.615234"/>
      </g>
     </g>
    </g>
    <g id="ytick_4">
     <g id="text_12">
      <!-- 40 -->
      <g style="fill: #444444" transform="translate(22.710313 116.576952)scale(0.09 -0.09)">
       <use xlink:href="#ArialMT-34"/>
       <use xlink:href="#ArialMT-30" x="55.615234"/>
      </g>
     </g>
    </g>
    <g id="ytick_5">
     <g id="text_13">
      <!-- 50 -->
      <g style="fill: #444444" transform="translate(22.710313 90.241145)scale(0.09 -0.09)">
       <use xlink:href="#ArialMT-35"/>
       <use xlink:href="#ArialMT-30" x="55.615234"/>
      </g>
     </g>
    </g>
    <g id="ytick_6">
     <g id="text_14">
      <!-- 60 -->
      <g style="fill: #444444" transform="translate(22.710313 63.905337)scale(0.09 -0.09)">
       <use xlink:href="#ArialMT-36"/>
       <use xlink:href="#ArialMT-30" x="55.615234"/>
      </g>
     </g>
    </g>
    <g id="ytick_7">
     <g id="text_15">
      <!-- 70 -->
      <g style="fill: #444444" transform="translate(22.710313 37.56953)scale(0.09 -0.09)">
       <use xlink:href="#ArialMT-37"/>
       <use xlink:href="#ArialMT-30" x="55.615234"/>
      </g>
     </g>
    </g>
    <g id="text_16">
     <!-- Trimmed Means of M values (TMM) -->
     <g style="fill: #444444" transform="translate(16.816094 190.194993)rotate(-90)scale(0.09 -0.09)">
      <defs>
       <path id="ArialMT-54" d="M 1659 0 
L 1659 4041 
L 150 4041 
L 150 4581 
L 3781 4581 
L 3781 4041 
L 2266 4041 
L 2266 0 
L 1659 0 
z
" transform="scale(0.015625)"/>
       <path id="ArialMT-72" d="M 416 0 
L 416 3319 
L 922 3319 
L 922 2816 
Q 1116 3169 1280 3281 
Q 1444 3394 1641 3394 
Q 1925 3394 2219 3213 
L 2025 2691 
Q 1819 2813 1613 2813 
Q 1428 2813 1281 2702 
Q 1134 2591 1072 2394 
Q 978 2094 978 1738 
L 978 0 
L 416 0 
z
" transform="scale(0.015625)"/>
       <path id="ArialMT-6d" d="M 422 0 
L 422 3319 
L 925 3319 
L 925 2853 
Q 1081 3097 1340 3245 
Q 1600 3394 1931 3394 
Q 2300 3394 2536 3241 
Q 2772 3088 2869 2813 
Q 3263 3394 3894 3394 
Q 4388 3394 4653 3120 
Q 4919 2847 4919 2278 
L 4919 0 
L 4359 0 
L 4359 2091 
Q 4359 2428 4304 2576 
Q 4250 2725 4106 2815 
Q 3963 2906 3769 2906 
Q 3419 2906 3187 2673 
Q 2956 2441 2956 1928 
L 2956 0 
L 2394 0 
L 2394 2156 
Q 2394 2531 2256 2718 
Q 2119 2906 1806 2906 
Q 1569 2906 1367 2781 
Q 1166 2656 1075 2415 
Q 984 2175 984 1722 
L 984 0 
L 422 0 
z
" transform="scale(0.015625)"/>
       <path id="ArialMT-64" d="M 2575 0 
L 2575 419 
Q 2259 -75 1647 -75 
Q 1250 -75 917 144 
Q 584 363 401 755 
Q 219 1147 219 1656 
Q 219 2153 384 2558 
Q 550 2963 881 3178 
Q 1213 3394 1622 3394 
Q 1922 3394 2156 3267 
Q 2391 3141 2538 2938 
L 2538 4581 
L 3097 4581 
L 3097 0 
L 2575 0 
z
M 797 1656 
Q 797 1019 1065 703 
Q 1334 388 1700 388 
Q 2069 388 2326 689 
Q 2584 991 2584 1609 
Q 2584 2291 2321 2609 
Q 2059 2928 1675 2928 
Q 1300 2928 1048 2622 
Q 797 2316 797 1656 
z
" transform="scale(0.015625)"/>
       <path id="ArialMT-20" transform="scale(0.015625)"/>
       <path id="ArialMT-4d" d="M 475 0 
L 475 4581 
L 1388 4581 
L 2472 1338 
Q 2622 884 2691 659 
Q 2769 909 2934 1394 
L 4031 4581 
L 4847 4581 
L 4847 0 
L 4263 0 
L 4263 3834 
L 2931 0 
L 2384 0 
L 1059 3900 
L 1059 0 
L 475 0 
z
" transform="scale(0.015625)"/>
       <path id="ArialMT-73" d="M 197 991 
L 753 1078 
Q 800 744 1014 566 
Q 1228 388 1613 388 
Q 2000 388 2187 545 
Q 2375 703 2375 916 
Q 2375 1106 2209 1216 
Q 2094 1291 1634 1406 
Q 1016 1563 777 1677 
Q 538 1791 414 1992 
Q 291 2194 291 2438 
Q 291 2659 392 2848 
Q 494 3038 669 3163 
Q 800 3259 1026 3326 
Q 1253 3394 1513 3394 
Q 1903 3394 2198 3281 
Q 2494 3169 2634 2976 
Q 2775 2784 2828 2463 
L 2278 2388 
Q 2241 2644 2061 2787 
Q 1881 2931 1553 2931 
Q 1166 2931 1000 2803 
Q 834 2675 834 2503 
Q 834 2394 903 2306 
Q 972 2216 1119 2156 
Q 1203 2125 1616 2013 
Q 2213 1853 2448 1751 
Q 2684 1650 2818 1456 
Q 2953 1263 2953 975 
Q 2953 694 2789 445 
Q 2625 197 2315 61 
Q 2006 -75 1616 -75 
Q 969 -75 630 194 
Q 291 463 197 991 
z
" transform="scale(0.015625)"/>
       <path id="ArialMT-6f" d="M 213 1659 
Q 213 2581 725 3025 
Q 1153 3394 1769 3394 
Q 2453 3394 2887 2945 
Q 3322 2497 3322 1706 
Q 3322 1066 3130 698 
Q 2938 331 2570 128 
Q 2203 -75 1769 -75 
Q 1072 -75 642 372 
Q 213 819 213 1659 
z
M 791 1659 
Q 791 1022 1069 705 
Q 1347 388 1769 388 
Q 2188 388 2466 706 
Q 2744 1025 2744 1678 
Q 2744 2294 2464 2611 
Q 2184 2928 1769 2928 
Q 1347 2928 1069 2612 
Q 791 2297 791 1659 
z
" transform="scale(0.015625)"/>
       <path id="ArialMT-66" d="M 556 0 
L 556 2881 
L 59 2881 
L 59 3319 
L 556 3319 
L 556 3672 
Q 556 4006 616 4169 
Q 697 4388 901 4523 
Q 1106 4659 1475 4659 
Q 1713 4659 2000 4603 
L 1916 4113 
Q 1741 4144 1584 4144 
Q 1328 4144 1222 4034 
Q 1116 3925 1116 3625 
L 1116 3319 
L 1763 3319 
L 1763 2881 
L 1116 2881 
L 1116 0 
L 556 0 
z
" transform="scale(0.015625)"/>
       <path id="ArialMT-76" d="M 1344 0 
L 81 3319 
L 675 3319 
L 1388 1331 
Q 1503 1009 1600 663 
Q 1675 925 1809 1294 
L 2547 3319 
L 3125 3319 
L 1869 0 
L 1344 0 
z
" transform="scale(0.015625)"/>
       <path id="ArialMT-6c" d="M 409 0 
L 409 4581 
L 972 4581 
L 972 0 
L 409 0 
z
" transform="scale(0.015625)"/>
       <path id="ArialMT-75" d="M 2597 0 
L 2597 488 
Q 2209 -75 1544 -75 
Q 1250 -75 995 37 
Q 741 150 617 320 
Q 494 491 444 738 
Q 409 903 409 1263 
L 409 3319 
L 972 3319 
L 972 1478 
Q 972 1038 1006 884 
Q 1059 663 1231 536 
Q 1403 409 1656 409 
Q 1909 409 2131 539 
Q 2353 669 2445 892 
Q 2538 1116 2538 1541 
L 2538 3319 
L 3100 3319 
L 3100 0 
L 2597 0 
z
" transform="scale(0.015625)"/>
       <path id="ArialMT-28" d="M 1497 -1347 
Q 1031 -759 709 28 
Q 388 816 388 1659 
Q 388 2403 628 3084 
Q 909 3875 1497 4659 
L 1900 4659 
Q 1522 4009 1400 3731 
Q 1209 3300 1100 2831 
Q 966 2247 966 1656 
Q 966 153 1900 -1347 
L 1497 -1347 
z
" transform="scale(0.015625)"/>
       <path id="ArialMT-29" d="M 791 -1347 
L 388 -1347 
Q 1322 153 1322 1656 
Q 1322 2244 1188 2822 
Q 1081 3291 891 3722 
Q 769 4003 388 4659 
L 791 4659 
Q 1378 3875 1659 3084 
Q 1900 2403 1900 1659 
Q 1900 816 1576 28 
Q 1253 -759 791 -1347 
z
" transform="scale(0.015625)"/>
      </defs>
      <use xlink:href="#ArialMT-54"/>
      <use xlink:href="#ArialMT-72" x="57.333984"/>
      <use xlink:href="#ArialMT-69" x="90.634766"/>
      <use xlink:href="#ArialMT-6d" x="112.851562"/>
      <use xlink:href="#ArialMT-6d" x="196.152344"/>
      <use xlink:href="#ArialMT-65" x="279.453125"/>
      <use xlink:href="#ArialMT-64" x="335.068359"/>
      <use xlink:href="#ArialMT-20" x="390.683594"/>
      <use xlink:href="#ArialMT-4d" x="418.466797"/>
      <use xlink:href="#ArialMT-65" x="501.767578"/>
      <use xlink:href="#ArialMT-61" x="557.382812"/>
      <use xlink:href="#ArialMT-6e" x="612.998047"/>
      <use xlink:href="#ArialMT-73" x="668.613281"/>
      <use xlink:href="#ArialMT-20" x="718.613281"/>
      <use xlink:href="#ArialMT-6f" x="746.396484"/>
      <use xlink:href="#ArialMT-66" x="802.011719"/>
      <use xlink:href="#ArialMT-20" x="829.794922"/>
      <use xlink:href="#ArialMT-4d" x="857.578125"/>
      <use xlink:href="#ArialMT-20" x="940.878906"/>
      <use xlink:href="#ArialMT-76" x="968.662109"/>
      <use xlink:href="#ArialMT-61" x="1018.662109"/>
      <use xlink:href="#ArialMT-6c" x="1074.277344"/>
      <use xlink:href="#ArialMT-75" x="1096.494141"/>
      <use xlink:href="#ArialMT-65" x="1152.109375"/>
      <use xlink:href="#ArialMT-73" x="1207.724609"/>
      <use xlink:href="#ArialMT-20" x="1257.724609"/>
      <use xlink:href="#ArialMT-28" x="1285.507812"/>
      <use xlink:href="#ArialMT-54" x="1318.808594"/>
      <use xlink:href="#ArialMT-4d" x="1379.892578"/>
      <use xlink:href="#ArialMT-4d" x="1463.193359"/>
      <use xlink:href="#ArialMT-29" x="1546.494141"/>
     </g>
    </g>
   </g>
   <g id="PolyCollection_1">
    <defs>
     <path id="m42f6c2e098" d="M 93.775274 -64.668953 
L 56.135615 -64.668953 
L 55.751988 -64.918943 
L 55.383749 -65.168934 
L 55.03165 -65.418924 
L 54.696361 -65.668915 
L 54.378464 -65.918905 
L 54.078451 -66.168896 
L 53.796717 -66.418886 
L 53.533562 -66.668877 
L 53.289188 -66.918867 
L 53.063696 -67.168858 
L 52.85709 -67.418848 
L 52.669273 -67.668839 
L 52.500052 -67.918829 
L 52.349142 -68.16882 
L 52.216162 -68.41881 
L 52.100648 -68.668801 
L 52.002048 -68.918791 
L 51.919738 -69.168782 
L 51.853017 -69.418772 
L 51.801122 -69.668763 
L 51.763231 -69.918753 
L 51.738472 -70.168744 
L 51.725929 -70.418734 
L 51.724653 -70.668725 
L 51.73367 -70.918715 
L 51.751989 -71.168706 
L 51.77861 -71.418697 
L 51.812536 -71.668687 
L 51.852779 -71.918678 
L 51.898372 -72.168668 
L 51.948374 -72.418659 
L 52.001882 -72.668649 
L 52.058034 -72.91864 
L 52.116023 -73.16863 
L 52.175098 -73.418621 
L 52.234574 -73.668611 
L 52.293835 -73.918602 
L 52.352342 -74.168592 
L 52.409634 -74.418583 
L 52.465332 -74.668573 
L 52.519144 -74.918564 
L 52.570863 -75.168554 
L 52.620368 -75.418545 
L 52.667625 -75.668535 
L 52.712688 -75.918526 
L 52.75569 -76.168516 
L 52.796846 -76.418507 
L 52.836449 -76.668497 
L 52.87486 -76.918488 
L 52.91251 -77.168478 
L 52.949887 -77.418469 
L 52.987535 -77.668459 
L 53.026044 -77.91845 
L 53.066045 -78.16844 
L 53.108197 -78.418431 
L 53.153185 -78.668421 
L 53.201712 -78.918412 
L 53.254483 -79.168402 
L 53.312207 -79.418393 
L 53.375584 -79.668383 
L 53.445296 -79.918374 
L 53.522006 -80.168364 
L 53.606342 -80.418355 
L 53.698902 -80.668345 
L 53.800237 -80.918336 
L 53.910855 -81.168326 
L 54.031211 -81.418317 
L 54.161705 -81.668307 
L 54.302681 -81.918298 
L 54.45442 -82.168288 
L 54.617143 -82.418279 
L 54.791009 -82.668269 
L 54.976113 -82.91826 
L 55.172486 -83.16825 
L 55.380102 -83.418241 
L 55.598871 -83.668231 
L 55.828649 -83.918222 
L 56.069235 -84.168213 
L 56.320377 -84.418203 
L 56.581776 -84.668194 
L 56.853086 -84.918184 
L 57.133923 -85.168175 
L 57.423864 -85.418165 
L 57.722455 -85.668156 
L 58.029212 -85.918146 
L 58.343629 -86.168137 
L 58.665177 -86.418127 
L 58.993313 -86.668118 
L 59.327479 -86.918108 
L 59.667108 -87.168099 
L 60.011629 -87.418089 
L 60.360465 -87.66808 
L 60.713041 -87.91807 
L 61.068782 -88.168061 
L 61.42712 -88.418051 
L 61.78749 -88.668042 
L 62.149337 -88.918032 
L 62.512116 -89.168023 
L 62.87529 -89.418013 
L 87.035599 -89.418013 
L 87.035599 -89.418013 
L 87.398773 -89.168023 
L 87.761551 -88.918032 
L 88.123399 -88.668042 
L 88.483769 -88.418051 
L 88.842107 -88.168061 
L 89.197848 -87.91807 
L 89.550424 -87.66808 
L 89.89926 -87.418089 
L 90.243781 -87.168099 
L 90.58341 -86.918108 
L 90.917576 -86.668118 
L 91.245711 -86.418127 
L 91.567259 -86.168137 
L 91.881676 -85.918146 
L 92.188434 -85.668156 
L 92.487025 -85.418165 
L 92.776966 -85.168175 
L 93.057802 -84.918184 
L 93.329113 -84.668194 
L 93.590512 -84.418203 
L 93.841654 -84.168213 
L 94.08224 -83.918222 
L 94.312017 -83.668231 
L 94.530787 -83.418241 
L 94.738402 -83.16825 
L 94.934776 -82.91826 
L 95.119879 -82.668269 
L 95.293745 -82.418279 
L 95.456469 -82.168288 
L 95.608208 -81.918298 
L 95.749184 -81.668307 
L 95.879678 -81.418317 
L 96.000034 -81.168326 
L 96.110652 -80.918336 
L 96.211987 -80.668345 
L 96.304546 -80.418355 
L 96.388883 -80.168364 
L 96.465592 -79.918374 
L 96.535305 -79.668383 
L 96.598681 -79.418393 
L 96.656406 -79.168402 
L 96.709177 -78.918412 
L 96.757703 -78.668421 
L 96.802692 -78.418431 
L 96.844844 -78.16844 
L 96.884844 -77.91845 
L 96.923354 -77.668459 
L 96.961002 -77.418469 
L 96.998379 -77.168478 
L 97.036028 -76.918488 
L 97.07444 -76.668497 
L 97.114042 -76.418507 
L 97.155199 -76.168516 
L 97.198201 -75.918526 
L 97.243263 -75.668535 
L 97.290521 -75.418545 
L 97.340026 -75.168554 
L 97.391744 -74.918564 
L 97.445556 -74.668573 
L 97.501255 -74.418583 
L 97.558546 -74.168592 
L 97.617053 -73.918602 
L 97.676315 -73.668611 
L 97.73579 -73.418621 
L 97.794866 -73.16863 
L 97.852854 -72.91864 
L 97.909007 -72.668649 
L 97.962514 -72.418659 
L 98.012517 -72.168668 
L 98.05811 -71.918678 
L 98.098353 -71.668687 
L 98.132279 -71.418697 
L 98.1589 -71.168706 
L 98.177218 -70.918715 
L 98.186235 -70.668725 
L 98.18496 -70.418734 
L 98.172417 -70.168744 
L 98.147658 -69.918753 
L 98.109767 -69.668763 
L 98.057872 -69.418772 
L 97.991151 -69.168782 
L 97.90884 -68.918791 
L 97.810241 -68.668801 
L 97.694726 -68.41881 
L 97.561747 -68.16882 
L 97.410836 -67.918829 
L 97.241616 -67.668839 
L 97.053799 -67.418848 
L 96.847192 -67.168858 
L 96.621701 -66.918867 
L 96.377326 -66.668877 
L 96.114172 -66.418886 
L 95.832438 -66.168896 
L 95.532425 -65.918905 
L 95.214528 -65.668915 
L 94.879239 -65.418924 
L 94.52714 -65.168934 
L 94.158901 -64.918943 
L 93.775274 -64.668953 
z
" style="stroke: #999999; stroke-width: 2"/>
    </defs>
    <g clip-path="url(#pc0816219a0)">
     <use xlink:href="#m42f6c2e098" x="0" y="255.11811" style="fill: #ffffff; stroke: #999999; stroke-width: 2"/>
    </g>
   </g>
   <g id="PolyCollection_2">
    <defs>
     <path id="ma52f425a31" d="M 143.343177 -101.353526 
L 137.509489 -101.353526 
L 137.453696 -102.014599 
L 137.397812 -102.675671 
L 137.341449 -103.336744 
L 137.284187 -103.997816 
L 137.225574 -104.658889 
L 137.165131 -105.319962 
L 137.102357 -105.981034 
L 137.036736 -106.642107 
L 136.967739 -107.303179 
L 136.894837 -107.964252 
L 136.817499 -108.625324 
L 136.735209 -109.286397 
L 136.647463 -109.94747 
L 136.553786 -110.608542 
L 136.45373 -111.269615 
L 136.34689 -111.930687 
L 136.232904 -112.59176 
L 136.111463 -113.252833 
L 135.982316 -113.913905 
L 135.845279 -114.574978 
L 135.700234 -115.23605 
L 135.547138 -115.897123 
L 135.386025 -116.558196 
L 135.217009 -117.219268 
L 135.040286 -117.880341 
L 134.856135 -118.541413 
L 134.664916 -119.202486 
L 134.467069 -119.863558 
L 134.263116 -120.524631 
L 134.053653 -121.185704 
L 133.839344 -121.846776 
L 133.620923 -122.507849 
L 133.399181 -123.168921 
L 133.174962 -123.829994 
L 132.949154 -124.491067 
L 132.72268 -125.152139 
L 132.496491 -125.813212 
L 132.271555 -126.474284 
L 132.048847 -127.135357 
L 131.829337 -127.79643 
L 131.613986 -128.457502 
L 131.403729 -129.118575 
L 131.19947 -129.779647 
L 131.00207 -130.44072 
L 130.81234 -131.101792 
L 130.631032 -131.762865 
L 130.458831 -132.423938 
L 130.296351 -133.08501 
L 130.144126 -133.746083 
L 130.002611 -134.407155 
L 129.872172 -135.068228 
L 129.753089 -135.729301 
L 129.645556 -136.390373 
L 129.549676 -137.051446 
L 129.465468 -137.712518 
L 129.392868 -138.373591 
L 129.331733 -139.034664 
L 129.281846 -139.695736 
L 129.242923 -140.356809 
L 129.214618 -141.017881 
L 129.196533 -141.678954 
L 129.188225 -142.340027 
L 129.189216 -143.001099 
L 129.198998 -143.662172 
L 129.217047 -144.323244 
L 129.242833 -144.984317 
L 129.275822 -145.645389 
L 129.315491 -146.306462 
L 129.361336 -146.967535 
L 129.412876 -147.628607 
L 129.469662 -148.28968 
L 129.531285 -148.950752 
L 129.597377 -149.611825 
L 129.667619 -150.272898 
L 129.741743 -150.93397 
L 129.819531 -151.595043 
L 129.900822 -152.256115 
L 129.985506 -152.917188 
L 130.073525 -153.578261 
L 130.164873 -154.239333 
L 130.259588 -154.900406 
L 130.357753 -155.561478 
L 130.459485 -156.222551 
L 130.564937 -156.883623 
L 130.674284 -157.544696 
L 130.787723 -158.205769 
L 130.905459 -158.866841 
L 131.027708 -159.527914 
L 131.154677 -160.188986 
L 131.286569 -160.850059 
L 131.423569 -161.511132 
L 131.565838 -162.172204 
L 131.713511 -162.833277 
L 131.866688 -163.494349 
L 132.025428 -164.155422 
L 132.18975 -164.816495 
L 132.359626 -165.477567 
L 132.534978 -166.13864 
L 132.715679 -166.799712 
L 148.136987 -166.799712 
L 148.136987 -166.799712 
L 148.317688 -166.13864 
L 148.49304 -165.477567 
L 148.662916 -164.816495 
L 148.827238 -164.155422 
L 148.985978 -163.494349 
L 149.139155 -162.833277 
L 149.286828 -162.172204 
L 149.429097 -161.511132 
L 149.566097 -160.850059 
L 149.697989 -160.188986 
L 149.824958 -159.527914 
L 149.947206 -158.866841 
L 150.064943 -158.205769 
L 150.178382 -157.544696 
L 150.287729 -156.883623 
L 150.393181 -156.222551 
L 150.494913 -155.561478 
L 150.593078 -154.900406 
L 150.687793 -154.239333 
L 150.779141 -153.578261 
L 150.86716 -152.917188 
L 150.951844 -152.256115 
L 151.033135 -151.595043 
L 151.110923 -150.93397 
L 151.185047 -150.272898 
L 151.255289 -149.611825 
L 151.321381 -148.950752 
L 151.383004 -148.28968 
L 151.43979 -147.628607 
L 151.49133 -146.967535 
L 151.537175 -146.306462 
L 151.576844 -145.645389 
L 151.609833 -144.984317 
L 151.635618 -144.323244 
L 151.653668 -143.662172 
L 151.66345 -143.001099 
L 151.66444 -142.340027 
L 151.656133 -141.678954 
L 151.638048 -141.017881 
L 151.609743 -140.356809 
L 151.57082 -139.695736 
L 151.520933 -139.034664 
L 151.459798 -138.373591 
L 151.387198 -137.712518 
L 151.30299 -137.051446 
L 151.20711 -136.390373 
L 151.099577 -135.729301 
L 150.980494 -135.068228 
L 150.850055 -134.407155 
L 150.70854 -133.746083 
L 150.556315 -133.08501 
L 150.393835 -132.423938 
L 150.221634 -131.762865 
L 150.040326 -131.101792 
L 149.850596 -130.44072 
L 149.653196 -129.779647 
L 149.448937 -129.118575 
L 149.23868 -128.457502 
L 149.023329 -127.79643 
L 148.803819 -127.135357 
L 148.581111 -126.474284 
L 148.356175 -125.813212 
L 148.129986 -125.152139 
L 147.903512 -124.491067 
L 147.677704 -123.829994 
L 147.453485 -123.168921 
L 147.231743 -122.507849 
L 147.013322 -121.846776 
L 146.799013 -121.185704 
L 146.589549 -120.524631 
L 146.385597 -119.863558 
L 146.18775 -119.202486 
L 145.996531 -118.541413 
L 145.812379 -117.880341 
L 145.635657 -117.219268 
L 145.466641 -116.558196 
L 145.305528 -115.897123 
L 145.152432 -115.23605 
L 145.007387 -114.574978 
L 144.87035 -113.913905 
L 144.741203 -113.252833 
L 144.619762 -112.59176 
L 144.505776 -111.930687 
L 144.398936 -111.269615 
L 144.29888 -110.608542 
L 144.205203 -109.94747 
L 144.117457 -109.286397 
L 144.035166 -108.625324 
L 143.957829 -107.964252 
L 143.884926 -107.303179 
L 143.81593 -106.642107 
L 143.750309 -105.981034 
L 143.687535 -105.319962 
L 143.627092 -104.658889 
L 143.568479 -103.997816 
L 143.511217 -103.336744 
L 143.454854 -102.675671 
L 143.39897 -102.014599 
L 143.343177 -101.353526 
z
" style="stroke: #999999; stroke-width: 2"/>
    </defs>
    <g clip-path="url(#pc0816219a0)">
     <use xlink:href="#ma52f425a31" x="0" y="255.11811" style="fill: #ffffff; stroke: #999999; stroke-width: 2"/>
    </g>
   </g>
   <g id="PolyCollection_3">
    <defs>
     <path id="m9ee18836c9" d="M 214.115654 -64.167139 
L 197.67879 -64.167139 
L 197.336347 -64.555604 
L 196.984215 -64.944068 
L 196.622267 -65.332533 
L 196.250441 -65.720997 
L 195.868752 -66.109462 
L 195.477302 -66.497926 
L 195.076295 -66.88639 
L 194.666045 -67.274855 
L 194.246987 -67.663319 
L 193.819688 -68.051784 
L 193.384849 -68.440248 
L 192.943315 -68.828713 
L 192.496076 -69.217177 
L 192.044267 -69.605642 
L 191.589171 -69.994106 
L 191.132212 -70.38257 
L 190.674948 -70.771035 
L 190.219065 -71.159499 
L 189.766364 -71.547964 
L 189.318748 -71.936428 
L 188.878204 -72.324893 
L 188.446789 -72.713357 
L 188.026607 -73.101822 
L 187.619787 -73.490286 
L 187.228463 -73.87875 
L 186.854745 -74.267215 
L 186.500703 -74.655679 
L 186.168334 -75.044144 
L 185.859544 -75.432608 
L 185.57612 -75.821073 
L 185.319711 -76.209537 
L 185.091805 -76.598001 
L 184.893709 -76.986466 
L 184.726536 -77.37493 
L 184.591185 -77.763395 
L 184.488332 -78.151859 
L 184.418421 -78.540324 
L 184.381658 -78.928788 
L 184.378006 -79.317253 
L 184.407186 -79.705717 
L 184.468683 -80.094181 
L 184.56175 -80.482646 
L 184.685416 -80.87111 
L 184.838504 -81.259575 
L 185.019639 -81.648039 
L 185.227268 -82.036504 
L 185.459681 -82.424968 
L 185.715028 -82.813432 
L 185.991344 -83.201897 
L 186.286571 -83.590361 
L 186.598582 -83.978826 
L 186.925203 -84.36729 
L 187.264241 -84.755755 
L 187.613503 -85.144219 
L 187.970821 -85.532684 
L 188.334074 -85.921148 
L 188.701207 -86.309612 
L 189.070248 -86.698077 
L 189.439328 -87.086541 
L 189.806697 -87.475006 
L 190.17073 -87.86347 
L 190.529946 -88.251935 
L 190.883012 -88.640399 
L 191.22875 -89.028863 
L 191.56614 -89.417328 
L 191.894327 -89.805792 
L 192.212614 -90.194257 
L 192.520467 -90.582721 
L 192.817506 -90.971186 
L 193.103502 -91.35965 
L 193.378373 -91.748115 
L 193.642168 -92.136579 
L 193.895069 -92.525043 
L 194.13737 -92.913508 
L 194.369474 -93.301972 
L 194.591877 -93.690437 
L 194.805159 -94.078901 
L 195.00997 -94.467366 
L 195.207019 -94.85583 
L 195.397059 -95.244294 
L 195.580881 -95.632759 
L 195.759297 -96.021223 
L 195.933129 -96.409688 
L 196.103202 -96.798152 
L 196.270329 -97.186617 
L 196.435307 -97.575081 
L 196.5989 -97.963546 
L 196.761841 -98.35201 
L 196.924816 -98.740474 
L 197.088463 -99.128939 
L 197.253363 -99.517403 
L 197.420037 -99.905868 
L 197.588941 -100.294332 
L 197.760465 -100.682797 
L 197.934926 -101.071261 
L 198.112573 -101.459725 
L 198.293582 -101.84819 
L 198.478056 -102.236654 
L 198.666031 -102.625119 
L 213.128412 -102.625119 
L 213.128412 -102.625119 
L 213.316387 -102.236654 
L 213.500862 -101.84819 
L 213.68187 -101.459725 
L 213.859517 -101.071261 
L 214.033979 -100.682797 
L 214.205502 -100.294332 
L 214.374406 -99.905868 
L 214.54108 -99.517403 
L 214.70598 -99.128939 
L 214.869627 -98.740474 
L 215.032602 -98.35201 
L 215.195543 -97.963546 
L 215.359137 -97.575081 
L 215.524114 -97.186617 
L 215.691241 -96.798152 
L 215.861314 -96.409688 
L 216.035146 -96.021223 
L 216.213562 -95.632759 
L 216.397384 -95.244294 
L 216.587425 -94.85583 
L 216.784473 -94.467366 
L 216.989284 -94.078901 
L 217.202566 -93.690437 
L 217.424969 -93.301972 
L 217.657073 -92.913508 
L 217.899374 -92.525043 
L 218.152275 -92.136579 
L 218.416071 -91.748115 
L 218.690941 -91.35965 
L 218.976937 -90.971186 
L 219.273976 -90.582721 
L 219.581829 -90.194257 
L 219.900116 -89.805792 
L 220.228303 -89.417328 
L 220.565693 -89.028863 
L 220.911431 -88.640399 
L 221.264497 -88.251935 
L 221.623713 -87.86347 
L 221.987747 -87.475006 
L 222.355115 -87.086541 
L 222.724196 -86.698077 
L 223.093237 -86.309612 
L 223.460369 -85.921148 
L 223.823622 -85.532684 
L 224.180941 -85.144219 
L 224.530203 -84.755755 
L 224.86924 -84.36729 
L 225.195862 -83.978826 
L 225.507872 -83.590361 
L 225.803099 -83.201897 
L 226.079415 -82.813432 
L 226.334762 -82.424968 
L 226.567175 -82.036504 
L 226.774804 -81.648039 
L 226.955939 -81.259575 
L 227.109027 -80.87111 
L 227.232694 -80.482646 
L 227.32576 -80.094181 
L 227.387257 -79.705717 
L 227.416438 -79.317253 
L 227.412785 -78.928788 
L 227.376022 -78.540324 
L 227.306111 -78.151859 
L 227.203259 -77.763395 
L 227.067907 -77.37493 
L 226.900734 -76.986466 
L 226.702639 -76.598001 
L 226.474732 -76.209537 
L 226.218323 -75.821073 
L 225.934899 -75.432608 
L 225.626109 -75.044144 
L 225.29374 -74.655679 
L 224.939698 -74.267215 
L 224.565981 -73.87875 
L 224.174656 -73.490286 
L 223.767836 -73.101822 
L 223.347654 -72.713357 
L 222.916239 -72.324893 
L 222.475696 -71.936428 
L 222.028079 -71.547964 
L 221.575378 -71.159499 
L 221.119495 -70.771035 
L 220.662231 -70.38257 
L 220.205272 -69.994106 
L 219.750176 -69.605642 
L 219.298368 -69.217177 
L 218.851128 -68.828713 
L 218.409594 -68.440248 
L 217.974755 -68.051784 
L 217.547456 -67.663319 
L 217.128399 -67.274855 
L 216.718149 -66.88639 
L 216.317141 -66.497926 
L 215.925691 -66.109462 
L 215.544002 -65.720997 
L 215.172176 -65.332533 
L 214.810229 -64.944068 
L 214.458096 -64.555604 
L 214.115654 -64.167139 
z
" style="stroke: #999999; stroke-width: 2"/>
    </defs>
    <g clip-path="url(#pc0816219a0)">
     <use xlink:href="#m9ee18836c9" x="0" y="255.11811" style="fill: #ffffff; stroke: #999999; stroke-width: 2"/>
    </g>
   </g>
   <g id="PolyCollection_4">
    <defs>
     <path id="m6a4536be92" d="M 275.52245 -76.158229 
L 267.213771 -76.158229 
L 267.15002 -77.560255 
L 267.091364 -78.962282 
L 267.037913 -80.364309 
L 266.989747 -81.766336 
L 266.946912 -83.168362 
L 266.909424 -84.570389 
L 266.877266 -85.972416 
L 266.850391 -87.374443 
L 266.828723 -88.77647 
L 266.812154 -90.178496 
L 266.800552 -91.580523 
L 266.793758 -92.98255 
L 266.791588 -94.384577 
L 266.793838 -95.786603 
L 266.800283 -97.18863 
L 266.810681 -98.590657 
L 266.824776 -99.992684 
L 266.8423 -101.39471 
L 266.862973 -102.796737 
L 266.88651 -104.198764 
L 266.91262 -105.600791 
L 266.941012 -107.002817 
L 266.971394 -108.404844 
L 267.003476 -109.806871 
L 267.036974 -111.208898 
L 267.071612 -112.610924 
L 267.107122 -114.012951 
L 267.143246 -115.414978 
L 267.179742 -116.817005 
L 267.216379 -118.219031 
L 267.252942 -119.621058 
L 267.289235 -121.023085 
L 267.325076 -122.425112 
L 267.360305 -123.827138 
L 267.394778 -125.229165 
L 267.428371 -126.631192 
L 267.460981 -128.033219 
L 267.492524 -129.435245 
L 267.522933 -130.837272 
L 267.552164 -132.239299 
L 267.58019 -133.641326 
L 267.607 -135.043353 
L 267.632606 -136.445379 
L 267.657031 -137.847406 
L 267.680316 -139.249433 
L 267.702519 -140.65146 
L 267.723708 -142.053486 
L 267.743966 -143.455513 
L 267.763385 -144.85754 
L 267.782071 -146.259567 
L 267.800133 -147.661593 
L 267.817692 -149.06362 
L 267.834872 -150.465647 
L 267.851803 -151.867674 
L 267.868618 -153.2697 
L 267.88545 -154.671727 
L 267.902435 -156.073754 
L 267.919704 -157.475781 
L 267.937391 -158.877807 
L 267.955623 -160.279834 
L 267.974523 -161.681861 
L 267.994208 -163.083888 
L 268.014791 -164.485914 
L 268.036376 -165.887941 
L 268.059057 -167.289968 
L 268.082921 -168.691995 
L 268.108048 -170.094021 
L 268.134504 -171.496048 
L 268.162347 -172.898075 
L 268.191625 -174.300102 
L 268.222375 -175.702128 
L 268.254624 -177.104155 
L 268.288389 -178.506182 
L 268.323677 -179.908209 
L 268.360484 -181.310236 
L 268.398799 -182.712262 
L 268.438601 -184.114289 
L 268.47986 -185.516316 
L 268.522539 -186.918343 
L 268.566593 -188.320369 
L 268.611973 -189.722396 
L 268.658621 -191.124423 
L 268.706475 -192.52645 
L 268.75547 -193.928476 
L 268.805534 -195.330503 
L 268.856595 -196.73253 
L 268.908575 -198.134557 
L 268.961398 -199.536583 
L 269.014981 -200.93861 
L 269.069246 -202.340637 
L 269.12411 -203.742664 
L 269.179491 -205.14469 
L 269.235307 -206.546717 
L 269.291477 -207.948744 
L 269.34792 -209.350771 
L 269.404556 -210.752797 
L 269.461306 -212.154824 
L 269.518093 -213.556851 
L 269.57484 -214.958878 
L 273.161381 -214.958878 
L 273.161381 -214.958878 
L 273.218128 -213.556851 
L 273.274914 -212.154824 
L 273.331665 -210.752797 
L 273.388301 -209.350771 
L 273.444744 -207.948744 
L 273.500914 -206.546717 
L 273.55673 -205.14469 
L 273.612111 -203.742664 
L 273.666974 -202.340637 
L 273.721239 -200.93861 
L 273.774823 -199.536583 
L 273.827645 -198.134557 
L 273.879626 -196.73253 
L 273.930686 -195.330503 
L 273.980751 -193.928476 
L 274.029745 -192.52645 
L 274.0776 -191.124423 
L 274.124248 -189.722396 
L 274.169627 -188.320369 
L 274.213682 -186.918343 
L 274.256361 -185.516316 
L 274.297619 -184.114289 
L 274.337421 -182.712262 
L 274.375736 -181.310236 
L 274.412544 -179.908209 
L 274.447831 -178.506182 
L 274.481596 -177.104155 
L 274.513846 -175.702128 
L 274.544596 -174.300102 
L 274.573874 -172.898075 
L 274.601717 -171.496048 
L 274.628173 -170.094021 
L 274.653299 -168.691995 
L 274.677164 -167.289968 
L 274.699845 -165.887941 
L 274.721429 -164.485914 
L 274.742012 -163.083888 
L 274.761698 -161.681861 
L 274.780598 -160.279834 
L 274.798829 -158.877807 
L 274.816516 -157.475781 
L 274.833786 -156.073754 
L 274.85077 -154.671727 
L 274.867602 -153.2697 
L 274.884417 -151.867674 
L 274.901348 -150.465647 
L 274.918529 -149.06362 
L 274.936087 -147.661593 
L 274.95415 -146.259567 
L 274.972835 -144.85754 
L 274.992255 -143.455513 
L 275.012513 -142.053486 
L 275.033702 -140.65146 
L 275.055904 -139.249433 
L 275.07919 -137.847406 
L 275.103615 -136.445379 
L 275.12922 -135.043353 
L 275.156031 -133.641326 
L 275.184056 -132.239299 
L 275.213287 -130.837272 
L 275.243697 -129.435245 
L 275.275239 -128.033219 
L 275.307849 -126.631192 
L 275.341443 -125.229165 
L 275.375916 -123.827138 
L 275.411144 -122.425112 
L 275.446986 -121.023085 
L 275.483278 -119.621058 
L 275.519842 -118.219031 
L 275.556479 -116.817005 
L 275.592974 -115.414978 
L 275.629099 -114.012951 
L 275.664608 -112.610924 
L 275.699246 -111.208898 
L 275.732744 -109.806871 
L 275.764826 -108.404844 
L 275.795208 -107.002817 
L 275.8236 -105.600791 
L 275.849711 -104.198764 
L 275.873248 -102.796737 
L 275.893921 -101.39471 
L 275.911444 -99.992684 
L 275.925539 -98.590657 
L 275.935938 -97.18863 
L 275.942383 -95.786603 
L 275.944633 -94.384577 
L 275.942463 -92.98255 
L 275.935668 -91.580523 
L 275.924066 -90.178496 
L 275.907498 -88.77647 
L 275.885829 -87.374443 
L 275.858954 -85.972416 
L 275.826797 -84.570389 
L 275.789308 -83.168362 
L 275.746473 -81.766336 
L 275.698307 -80.364309 
L 275.644857 -78.962282 
L 275.586201 -77.560255 
L 275.52245 -76.158229 
z
" style="stroke: #999999; stroke-width: 2"/>
    </defs>
    <g clip-path="url(#pc0816219a0)">
     <use xlink:href="#m6a4536be92" x="0" y="255.11811" style="fill: #ffffff; stroke: #999999; stroke-width: 2"/>
    </g>
   </g>
   <g id="PolyCollection_5">
    <defs>
     <path id="me188c42f44" d="M 340.713638 -74.035147 
L 332.96436 -74.035147 
L 332.921672 -75.288101 
L 332.882066 -76.541054 
L 332.845569 -77.794007 
L 332.81219 -79.04696 
L 332.781925 -80.299914 
L 332.754757 -81.552867 
L 332.730653 -82.80582 
L 332.709568 -84.058773 
L 332.691443 -85.311727 
L 332.676207 -86.56468 
L 332.663776 -87.817633 
L 332.654056 -89.070586 
L 332.646941 -90.32354 
L 332.642316 -91.576493 
L 332.640056 -92.829446 
L 332.640029 -94.082399 
L 332.642097 -95.335353 
L 332.646116 -96.588306 
L 332.651936 -97.841259 
L 332.659404 -99.094212 
L 332.668366 -100.347166 
L 332.678666 -101.600119 
L 332.690148 -102.853072 
L 332.702658 -104.106025 
L 332.716044 -105.358979 
L 332.730156 -106.611932 
L 332.744852 -107.864885 
L 332.759993 -109.117838 
L 332.775446 -110.370792 
L 332.791087 -111.623745 
L 332.8068 -112.876698 
L 332.822477 -114.129651 
L 332.83802 -115.382605 
L 332.853342 -116.635558 
L 332.868365 -117.888511 
L 332.883023 -119.141464 
L 332.897259 -120.394418 
L 332.91103 -121.647371 
L 332.924302 -122.900324 
L 332.937054 -124.153277 
L 332.949275 -125.406231 
L 332.960964 -126.659184 
L 332.972133 -127.912137 
L 332.982801 -129.16509 
L 332.992999 -130.418044 
L 333.002765 -131.670997 
L 333.012147 -132.92395 
L 333.0212 -134.176903 
L 333.029985 -135.429857 
L 333.038571 -136.68281 
L 333.047032 -137.935763 
L 333.055445 -139.188716 
L 333.063891 -140.44167 
L 333.072457 -141.694623 
L 333.081229 -142.947576 
L 333.090294 -144.200529 
L 333.099741 -145.453483 
L 333.109658 -146.706436 
L 333.120133 -147.959389 
L 333.13125 -149.212342 
L 333.143092 -150.465296 
L 333.15574 -151.718249 
L 333.169269 -152.971202 
L 333.183752 -154.224155 
L 333.199255 -155.477109 
L 333.215842 -156.730062 
L 333.233569 -157.983015 
L 333.252488 -159.235968 
L 333.272644 -160.488922 
L 333.294079 -161.741875 
L 333.316824 -162.994828 
L 333.340908 -164.247781 
L 333.366353 -165.500735 
L 333.393174 -166.753688 
L 333.42138 -168.006641 
L 333.450975 -169.259594 
L 333.481957 -170.512548 
L 333.514319 -171.765501 
L 333.548048 -173.018454 
L 333.583127 -174.271408 
L 333.619532 -175.524361 
L 333.657239 -176.777314 
L 333.696215 -178.030267 
L 333.736425 -179.283221 
L 333.777833 -180.536174 
L 333.820396 -181.789127 
L 333.86407 -183.04208 
L 333.908809 -184.295034 
L 333.954562 -185.547987 
L 334.001279 -186.80094 
L 334.048906 -188.053893 
L 334.097389 -189.306847 
L 334.146671 -190.5598 
L 334.196696 -191.812753 
L 334.247404 -193.065706 
L 334.298738 -194.31866 
L 334.350638 -195.571613 
L 334.403043 -196.824566 
L 334.455894 -198.077519 
L 339.222103 -198.077519 
L 339.222103 -198.077519 
L 339.274954 -196.824566 
L 339.32736 -195.571613 
L 339.379259 -194.31866 
L 339.430593 -193.065706 
L 339.481302 -191.812753 
L 339.531327 -190.5598 
L 339.580609 -189.306847 
L 339.629092 -188.053893 
L 339.676719 -186.80094 
L 339.723436 -185.547987 
L 339.769189 -184.295034 
L 339.813927 -183.04208 
L 339.857602 -181.789127 
L 339.900165 -180.536174 
L 339.941572 -179.283221 
L 339.981783 -178.030267 
L 340.020759 -176.777314 
L 340.058465 -175.524361 
L 340.094871 -174.271408 
L 340.12995 -173.018454 
L 340.163679 -171.765501 
L 340.196041 -170.512548 
L 340.227023 -169.259594 
L 340.256618 -168.006641 
L 340.284824 -166.753688 
L 340.311645 -165.500735 
L 340.337089 -164.247781 
L 340.361174 -162.994828 
L 340.383919 -161.741875 
L 340.405353 -160.488922 
L 340.42551 -159.235968 
L 340.444429 -157.983015 
L 340.462156 -156.730062 
L 340.478743 -155.477109 
L 340.494246 -154.224155 
L 340.508728 -152.971202 
L 340.522258 -151.718249 
L 340.534905 -150.465296 
L 340.546748 -149.212342 
L 340.557865 -147.959389 
L 340.56834 -146.706436 
L 340.578257 -145.453483 
L 340.587704 -144.200529 
L 340.596769 -142.947576 
L 340.605541 -141.694623 
L 340.614106 -140.44167 
L 340.622553 -139.188716 
L 340.630966 -137.935763 
L 340.639426 -136.68281 
L 340.648013 -135.429857 
L 340.656798 -134.176903 
L 340.665851 -132.92395 
L 340.675233 -131.670997 
L 340.684999 -130.418044 
L 340.695196 -129.16509 
L 340.705865 -127.912137 
L 340.717033 -126.659184 
L 340.728723 -125.406231 
L 340.740944 -124.153277 
L 340.753696 -122.900324 
L 340.766968 -121.647371 
L 340.780739 -120.394418 
L 340.794975 -119.141464 
L 340.809632 -117.888511 
L 340.824655 -116.635558 
L 340.839977 -115.382605 
L 340.855521 -114.129651 
L 340.871198 -112.876698 
L 340.886911 -111.623745 
L 340.902552 -110.370792 
L 340.918005 -109.117838 
L 340.933146 -107.864885 
L 340.947841 -106.611932 
L 340.961954 -105.358979 
L 340.97534 -104.106025 
L 340.98785 -102.853072 
L 340.999332 -101.600119 
L 341.009632 -100.347166 
L 341.018594 -99.094212 
L 341.026062 -97.841259 
L 341.031882 -96.588306 
L 341.0359 -95.335353 
L 341.037969 -94.082399 
L 341.037942 -92.829446 
L 341.035682 -91.576493 
L 341.031057 -90.32354 
L 341.023941 -89.070586 
L 341.014221 -87.817633 
L 341.001791 -86.56468 
L 340.986555 -85.311727 
L 340.96843 -84.058773 
L 340.947345 -82.80582 
L 340.923241 -81.552867 
L 340.896072 -80.299914 
L 340.865808 -79.04696 
L 340.832429 -77.794007 
L 340.795931 -76.541054 
L 340.756326 -75.288101 
L 340.713638 -74.035147 
z
" style="stroke: #999999; stroke-width: 2"/>
    </defs>
    <g clip-path="url(#pc0816219a0)">
     <use xlink:href="#me188c42f44" x="0" y="255.11811" style="fill: #ffffff; stroke: #999999; stroke-width: 2"/>
    </g>
   </g>
   <g id="PolyCollection_6">
    <defs>
     <path id="m974cb4c3e7" d="M 416.498001 -49.837187 
L 388.121774 -49.837187 
L 387.665326 -50.068302 
L 387.206881 -50.299417 
L 386.747066 -50.530533 
L 386.286536 -50.761648 
L 385.825979 -50.992763 
L 385.366117 -51.223879 
L 384.907702 -51.454994 
L 384.451517 -51.686109 
L 383.998378 -51.917225 
L 383.549129 -52.14834 
L 383.104643 -52.379455 
L 382.665818 -52.61057 
L 382.233574 -52.841686 
L 381.808853 -53.072801 
L 381.392612 -53.303916 
L 380.985819 -53.535032 
L 380.589448 -53.766147 
L 380.204475 -53.997262 
L 379.831873 -54.228378 
L 379.472601 -54.459493 
L 379.127601 -54.690608 
L 378.79779 -54.921724 
L 378.484054 -55.152839 
L 378.187235 -55.383954 
L 377.908131 -55.615069 
L 377.647482 -55.846185 
L 377.405966 -56.0773 
L 377.184189 -56.308415 
L 376.982677 -56.539531 
L 376.801875 -56.770646 
L 376.642134 -57.001761 
L 376.503706 -57.232877 
L 376.386743 -57.463992 
L 376.291289 -57.695107 
L 376.217278 -57.926222 
L 376.16453 -58.157338 
L 376.132751 -58.388453 
L 376.121532 -58.619568 
L 376.130351 -58.850684 
L 376.158572 -59.081799 
L 376.20545 -59.312914 
L 376.270136 -59.54403 
L 376.351681 -59.775145 
L 376.449042 -60.00626 
L 376.561091 -60.237375 
L 376.686626 -60.468491 
L 376.824375 -60.699606 
L 376.973012 -60.930721 
L 377.131165 -61.161837 
L 377.297431 -61.392952 
L 377.470386 -61.624067 
L 377.648599 -61.855183 
L 377.830648 -62.086298 
L 378.01513 -62.317413 
L 378.200674 -62.548529 
L 378.385959 -62.779644 
L 378.569724 -63.010759 
L 378.750777 -63.241874 
L 378.928016 -63.47299 
L 379.10043 -63.704105 
L 379.267116 -63.93522 
L 379.427287 -64.166336 
L 379.580276 -64.397451 
L 379.725548 -64.628566 
L 379.862701 -64.859682 
L 379.991475 -65.090797 
L 380.111749 -65.321912 
L 380.223543 -65.553027 
L 380.327022 -65.784143 
L 380.422489 -66.015258 
L 380.510382 -66.246373 
L 380.59127 -66.477489 
L 380.665847 -66.708604 
L 380.734924 -66.939719 
L 380.799418 -67.170835 
L 380.860341 -67.40195 
L 380.918794 -67.633065 
L 380.975949 -67.86418 
L 381.033039 -68.095296 
L 381.091343 -68.326411 
L 381.152173 -68.557526 
L 381.216859 -68.788642 
L 381.286735 -69.019757 
L 381.363122 -69.250872 
L 381.44732 -69.481988 
L 381.540586 -69.713103 
L 381.644126 -69.944218 
L 381.759083 -70.175334 
L 381.886521 -70.406449 
L 382.027416 -70.637564 
L 382.182646 -70.868679 
L 382.352985 -71.099795 
L 382.539088 -71.33091 
L 382.741495 -71.562025 
L 382.960615 -71.793141 
L 383.196732 -72.024256 
L 383.449996 -72.255371 
L 383.720426 -72.486487 
L 384.00791 -72.717602 
L 420.611865 -72.717602 
L 420.611865 -72.717602 
L 420.899349 -72.486487 
L 421.169779 -72.255371 
L 421.423043 -72.024256 
L 421.65916 -71.793141 
L 421.87828 -71.562025 
L 422.080687 -71.33091 
L 422.26679 -71.099795 
L 422.437129 -70.868679 
L 422.592359 -70.637564 
L 422.733254 -70.406449 
L 422.860692 -70.175334 
L 422.975649 -69.944218 
L 423.079189 -69.713103 
L 423.172455 -69.481988 
L 423.256653 -69.250872 
L 423.33304 -69.019757 
L 423.402916 -68.788642 
L 423.467602 -68.557526 
L 423.528432 -68.326411 
L 423.586736 -68.095296 
L 423.643826 -67.86418 
L 423.700981 -67.633065 
L 423.759434 -67.40195 
L 423.820357 -67.170835 
L 423.884851 -66.939719 
L 423.953928 -66.708604 
L 424.028505 -66.477489 
L 424.109393 -66.246373 
L 424.197286 -66.015258 
L 424.292753 -65.784143 
L 424.396232 -65.553027 
L 424.508026 -65.321912 
L 424.6283 -65.090797 
L 424.757074 -64.859682 
L 424.894227 -64.628566 
L 425.039499 -64.397451 
L 425.192488 -64.166336 
L 425.352659 -63.93522 
L 425.519345 -63.704105 
L 425.691759 -63.47299 
L 425.868998 -63.241874 
L 426.050052 -63.010759 
L 426.233816 -62.779644 
L 426.419101 -62.548529 
L 426.604645 -62.317413 
L 426.789127 -62.086298 
L 426.971176 -61.855183 
L 427.149389 -61.624067 
L 427.322344 -61.392952 
L 427.48861 -61.161837 
L 427.646763 -60.930721 
L 427.7954 -60.699606 
L 427.933149 -60.468491 
L 428.058684 -60.237375 
L 428.170733 -60.00626 
L 428.268094 -59.775145 
L 428.349639 -59.54403 
L 428.414325 -59.312914 
L 428.461203 -59.081799 
L 428.489424 -58.850684 
L 428.498243 -58.619568 
L 428.487024 -58.388453 
L 428.455245 -58.157338 
L 428.402497 -57.926222 
L 428.328486 -57.695107 
L 428.233032 -57.463992 
L 428.116069 -57.232877 
L 427.977641 -57.001761 
L 427.8179 -56.770646 
L 427.637098 -56.539531 
L 427.435587 -56.308415 
L 427.213809 -56.0773 
L 426.972293 -55.846185 
L 426.711644 -55.615069 
L 426.43254 -55.383954 
L 426.135721 -55.152839 
L 425.821985 -54.921724 
L 425.492174 -54.690608 
L 425.147174 -54.459493 
L 424.787902 -54.228378 
L 424.4153 -53.997262 
L 424.030327 -53.766147 
L 423.633956 -53.535032 
L 423.227163 -53.303916 
L 422.810922 -53.072801 
L 422.386201 -52.841686 
L 421.953957 -52.61057 
L 421.515132 -52.379455 
L 421.070646 -52.14834 
L 420.621397 -51.917225 
L 420.168258 -51.686109 
L 419.712073 -51.454994 
L 419.253658 -51.223879 
L 418.793796 -50.992763 
L 418.333239 -50.761648 
L 417.872709 -50.530533 
L 417.412894 -50.299417 
L 416.954449 -50.068302 
L 416.498001 -49.837187 
z
" style="stroke: #999999; stroke-width: 2"/>
    </defs>
    <g clip-path="url(#pc0816219a0)">
     <use xlink:href="#m974cb4c3e7" x="0" y="255.11811" style="fill: #ffffff; stroke: #999999; stroke-width: 2"/>
    </g>
   </g>
   <g id="PolyCollection_7">
    <defs>
     <path id="m61c08cc5cc" d="M 473.676933 -139.842973 
L 461.884619 -139.842973 
L 461.80247 -140.674669 
L 461.726048 -141.506366 
L 461.655449 -142.338062 
L 461.590735 -143.169759 
L 461.531936 -144.001455 
L 461.479051 -144.833151 
L 461.432043 -145.664848 
L 461.390847 -146.496544 
L 461.355363 -147.328241 
L 461.325462 -148.159937 
L 461.300986 -148.991634 
L 461.281749 -149.82333 
L 461.267536 -150.655027 
L 461.258111 -151.486723 
L 461.253214 -152.31842 
L 461.252565 -153.150116 
L 461.255867 -153.981813 
L 461.262807 -154.813509 
L 461.273059 -155.645206 
L 461.286288 -156.476902 
L 461.302152 -157.308599 
L 461.320304 -158.140295 
L 461.340398 -158.971992 
L 461.362086 -159.803688 
L 461.385027 -160.635384 
L 461.408886 -161.467081 
L 461.433338 -162.298777 
L 461.458069 -163.130474 
L 461.482782 -163.96217 
L 461.507195 -164.793867 
L 461.531044 -165.625563 
L 461.554088 -166.45726 
L 461.576107 -167.288956 
L 461.596904 -168.120653 
L 461.61631 -168.952349 
L 461.63418 -169.784046 
L 461.650395 -170.615742 
L 461.664866 -171.447439 
L 461.677529 -172.279135 
L 461.688349 -173.110832 
L 461.697319 -173.942528 
L 461.704458 -174.774224 
L 461.709812 -175.605921 
L 461.713452 -176.437617 
L 461.715474 -177.269314 
L 461.715998 -178.10101 
L 461.715163 -178.932707 
L 461.71313 -179.764403 
L 461.71008 -180.5961 
L 461.706207 -181.427796 
L 461.701722 -182.259493 
L 461.696848 -183.091189 
L 461.691818 -183.922886 
L 461.686873 -184.754582 
L 461.682262 -185.586279 
L 461.678235 -186.417975 
L 461.675045 -187.249672 
L 461.672945 -188.081368 
L 461.672185 -188.913065 
L 461.67301 -189.744761 
L 461.675659 -190.576457 
L 461.680363 -191.408154 
L 461.687343 -192.23985 
L 461.696807 -193.071547 
L 461.708951 -193.903243 
L 461.723958 -194.73494 
L 461.741993 -195.566636 
L 461.763208 -196.398333 
L 461.787733 -197.230029 
L 461.815686 -198.061726 
L 461.847162 -198.893422 
L 461.882241 -199.725119 
L 461.92098 -200.556815 
L 461.963422 -201.388512 
L 462.009588 -202.220208 
L 462.059483 -203.051905 
L 462.113091 -203.883601 
L 462.170383 -204.715297 
L 462.23131 -205.546994 
L 462.295809 -206.37869 
L 462.363799 -207.210387 
L 462.435187 -208.042083 
L 462.509867 -208.87378 
L 462.587719 -209.705476 
L 462.668614 -210.537173 
L 462.75241 -211.368869 
L 462.838957 -212.200566 
L 462.928098 -213.032262 
L 463.019667 -213.863959 
L 463.113493 -214.695655 
L 463.2094 -215.527352 
L 463.307207 -216.359048 
L 463.406732 -217.190745 
L 463.507788 -218.022441 
L 463.610189 -218.854138 
L 463.713748 -219.685834 
L 463.818277 -220.51753 
L 463.92359 -221.349227 
L 464.029504 -222.180923 
L 471.532049 -222.180923 
L 471.532049 -222.180923 
L 471.637962 -221.349227 
L 471.743275 -220.51753 
L 471.847804 -219.685834 
L 471.951363 -218.854138 
L 472.053764 -218.022441 
L 472.15482 -217.190745 
L 472.254345 -216.359048 
L 472.352152 -215.527352 
L 472.448059 -214.695655 
L 472.541885 -213.863959 
L 472.633454 -213.032262 
L 472.722595 -212.200566 
L 472.809142 -211.368869 
L 472.892938 -210.537173 
L 472.973833 -209.705476 
L 473.051685 -208.87378 
L 473.126365 -208.042083 
L 473.197754 -207.210387 
L 473.265744 -206.37869 
L 473.330242 -205.546994 
L 473.391169 -204.715297 
L 473.448461 -203.883601 
L 473.50207 -203.051905 
L 473.551964 -202.220208 
L 473.59813 -201.388512 
L 473.640572 -200.556815 
L 473.679312 -199.725119 
L 473.71439 -198.893422 
L 473.745866 -198.061726 
L 473.773819 -197.230029 
L 473.798345 -196.398333 
L 473.819559 -195.566636 
L 473.837594 -194.73494 
L 473.852601 -193.903243 
L 473.864746 -193.071547 
L 473.874209 -192.23985 
L 473.881189 -191.408154 
L 473.885893 -190.576457 
L 473.888542 -189.744761 
L 473.889367 -188.913065 
L 473.888607 -188.081368 
L 473.886507 -187.249672 
L 473.883317 -186.417975 
L 473.87929 -185.586279 
L 473.874679 -184.754582 
L 473.869735 -183.922886 
L 473.864705 -183.091189 
L 473.859831 -182.259493 
L 473.855346 -181.427796 
L 473.851473 -180.5961 
L 473.848422 -179.764403 
L 473.84639 -178.932707 
L 473.845555 -178.10101 
L 473.846078 -177.269314 
L 473.8481 -176.437617 
L 473.85174 -175.605921 
L 473.857094 -174.774224 
L 473.864233 -173.942528 
L 473.873203 -173.110832 
L 473.884024 -172.279135 
L 473.896687 -171.447439 
L 473.911157 -170.615742 
L 473.927372 -169.784046 
L 473.945242 -168.952349 
L 473.964648 -168.120653 
L 473.985446 -167.288956 
L 474.007465 -166.45726 
L 474.030508 -165.625563 
L 474.054358 -164.793867 
L 474.07877 -163.96217 
L 474.103483 -163.130474 
L 474.128215 -162.298777 
L 474.152666 -161.467081 
L 474.176526 -160.635384 
L 474.199467 -159.803688 
L 474.221155 -158.971992 
L 474.241248 -158.140295 
L 474.259401 -157.308599 
L 474.275265 -156.476902 
L 474.288494 -155.645206 
L 474.298746 -154.813509 
L 474.305685 -153.981813 
L 474.308987 -153.150116 
L 474.308338 -152.31842 
L 474.303441 -151.486723 
L 474.294016 -150.655027 
L 474.279804 -149.82333 
L 474.260566 -148.991634 
L 474.23609 -148.159937 
L 474.206189 -147.328241 
L 474.170705 -146.496544 
L 474.129509 -145.664848 
L 474.082502 -144.833151 
L 474.029616 -144.001455 
L 473.970817 -143.169759 
L 473.906103 -142.338062 
L 473.835504 -141.506366 
L 473.759082 -140.674669 
L 473.676933 -139.842973 
z
" style="stroke: #999999; stroke-width: 2"/>
    </defs>
    <g clip-path="url(#pc0816219a0)">
     <use xlink:href="#m61c08cc5cc" x="0" y="255.11811" style="fill: #ffffff; stroke: #999999; stroke-width: 2"/>
    </g>
   </g>
   <g id="PathCollection_1"/>
   <g id="PathCollection_2"/>
   <g id="patch_3">
    <path d="M 42.22 213.89811 
L 42.22 24.32 
" style="fill: none; stroke: #262626; stroke-width: 1.25; stroke-linejoin: miter; stroke-linecap: square"/>
   </g>
   <g id="patch_4">
    <path d="M 42.22 213.89811 
L 500.51622 213.89811 
" style="fill: none; stroke: #262626; stroke-width: 1.25; stroke-linejoin: miter; stroke-linecap: square"/>
   </g>
   <g id="PathCollection_3">
    <defs>
     <path id="C0_0_0546148b4b" d="M 0 2.5 
C 0.663008 2.5 1.29895 2.236584 1.767767 1.767767 
C 2.236584 1.29895 2.5 0.663008 2.5 -0 
C 2.5 -0.663008 2.236584 -1.29895 1.767767 -1.767767 
C 1.29895 -2.236584 0.663008 -2.5 0 -2.5 
C -0.663008 -2.5 -1.29895 -2.236584 -1.767767 -1.767767 
C -2.236584 -1.29895 -2.5 -0.663008 -2.5 0 
C -2.5 0.663008 -2.236584 1.29895 -1.767767 1.767767 
C -1.29895 2.236584 -0.663008 2.5 0 2.5 
z
"/>
    </defs>
    <g clip-path="url(#pc0816219a0)">
     <use xlink:href="#C0_0_0546148b4b" x="78.080835" y="177.294971" style="fill: #4c72b0; fill-opacity: 0.75"/>
    </g>
    <g clip-path="url(#pc0816219a0)">
     <use xlink:href="#C0_0_0546148b4b" x="77.342874" y="172.958914" style="fill: #4c72b0; fill-opacity: 0.75"/>
    </g>
    <g clip-path="url(#pc0816219a0)">
     <use xlink:href="#C0_0_0546148b4b" x="69.889678" y="172.841926" style="fill: #4c72b0; fill-opacity: 0.75"/>
    </g>
    <g clip-path="url(#pc0816219a0)">
     <use xlink:href="#C0_0_0546148b4b" x="68.890074" y="165.700097" style="fill: #4c72b0; fill-opacity: 0.75"/>
    </g>
    <g clip-path="url(#pc0816219a0)">
     <use xlink:href="#C0_0_0546148b4b" x="73.062507" y="183.870583" style="fill: #dd8452; fill-opacity: 0.75"/>
    </g>
    <g clip-path="url(#pc0816219a0)">
     <use xlink:href="#C0_0_0546148b4b" x="71.131055" y="184.891822" style="fill: #dd8452; fill-opacity: 0.75"/>
    </g>
    <g clip-path="url(#pc0816219a0)">
     <use xlink:href="#C0_0_0546148b4b" x="80.920734" y="189.628659" style="fill: #dd8452; fill-opacity: 0.75"/>
    </g>
    <g clip-path="url(#pc0816219a0)">
     <use xlink:href="#C0_0_0546148b4b" x="75.262564" y="190.449157" style="fill: #dd8452; fill-opacity: 0.75"/>
    </g>
   </g>
   <g id="PathCollection_4">
    <defs>
     <path id="C1_0_3f3d434a5b" d="M 0 2.5 
C 0.663008 2.5 1.29895 2.236584 1.767767 1.767767 
C 2.236584 1.29895 2.5 0.663008 2.5 -0 
C 2.5 -0.663008 2.236584 -1.29895 1.767767 -1.767767 
C 1.29895 -2.236584 0.663008 -2.5 0 -2.5 
C -0.663008 -2.5 -1.29895 -2.236584 -1.767767 -1.767767 
C -2.236584 -1.29895 -2.5 -0.663008 -2.5 0 
C -2.5 0.663008 -2.236584 1.29895 -1.767767 1.767767 
C -1.29895 2.236584 -0.663008 2.5 0 2.5 
z
"/>
    </defs>
    <g clip-path="url(#pc0816219a0)">
     <use xlink:href="#C1_0_3f3d434a5b" x="143.829285" y="124.117145" style="fill: #4c72b0; fill-opacity: 0.75"/>
    </g>
    <g clip-path="url(#pc0816219a0)">
     <use xlink:href="#C1_0_3f3d434a5b" x="139.11054" y="153.764584" style="fill: #4c72b0; fill-opacity: 0.75"/>
    </g>
    <g clip-path="url(#pc0816219a0)">
     <use xlink:href="#C1_0_3f3d434a5b" x="136.896894" y="90.837338" style="fill: #4c72b0; fill-opacity: 0.75"/>
    </g>
    <g clip-path="url(#pc0816219a0)">
     <use xlink:href="#C1_0_3f3d434a5b" x="145.697474" y="88.318398" style="fill: #4c72b0; fill-opacity: 0.75"/>
    </g>
    <g clip-path="url(#pc0816219a0)">
     <use xlink:href="#C1_0_3f3d434a5b" x="142.888019" y="117.9757" style="fill: #dd8452; fill-opacity: 0.75"/>
    </g>
    <g clip-path="url(#pc0816219a0)">
     <use xlink:href="#C1_0_3f3d434a5b" x="139.173609" y="119.352024" style="fill: #dd8452; fill-opacity: 0.75"/>
    </g>
    <g clip-path="url(#pc0816219a0)">
     <use xlink:href="#C1_0_3f3d434a5b" x="133.954281" y="98.309435" style="fill: #dd8452; fill-opacity: 0.75"/>
    </g>
    <g clip-path="url(#pc0816219a0)">
     <use xlink:href="#C1_0_3f3d434a5b" x="145.074589" y="113.153345" style="fill: #dd8452; fill-opacity: 0.75"/>
    </g>
   </g>
   <g id="PathCollection_5">
    <defs>
     <path id="C2_0_0a35d309ed" d="M 0 2.5 
C 0.663008 2.5 1.29895 2.236584 1.767767 1.767767 
C 2.236584 1.29895 2.5 0.663008 2.5 -0 
C 2.5 -0.663008 2.236584 -1.29895 1.767767 -1.767767 
C 1.29895 -2.236584 0.663008 -2.5 0 -2.5 
C -0.663008 -2.5 -1.29895 -2.236584 -1.767767 -1.767767 
C -2.236584 -1.29895 -2.5 -0.663008 -2.5 0 
C -2.5 0.663008 -2.236584 1.29895 -1.767767 1.767767 
C -1.29895 2.236584 -0.663008 2.5 0 2.5 
z
"/>
    </defs>
    <g clip-path="url(#pc0816219a0)">
     <use xlink:href="#C2_0_0a35d309ed" x="208.213906" y="160.945284" style="fill: #4c72b0; fill-opacity: 0.75"/>
    </g>
    <g clip-path="url(#pc0816219a0)">
     <use xlink:href="#C2_0_0a35d309ed" x="209.294986" y="152.492991" style="fill: #4c72b0; fill-opacity: 0.75"/>
    </g>
    <g clip-path="url(#pc0816219a0)">
     <use xlink:href="#C2_0_0a35d309ed" x="199.512446" y="179.155423" style="fill: #4c72b0; fill-opacity: 0.75"/>
    </g>
    <g clip-path="url(#pc0816219a0)">
     <use xlink:href="#C2_0_0a35d309ed" x="203.71164" y="175.777446" style="fill: #4c72b0; fill-opacity: 0.75"/>
    </g>
    <g clip-path="url(#pc0816219a0)">
     <use xlink:href="#C2_0_0a35d309ed" x="210.08601" y="176.313488" style="fill: #dd8452; fill-opacity: 0.75"/>
    </g>
    <g clip-path="url(#pc0816219a0)">
     <use xlink:href="#C2_0_0a35d309ed" x="200.613487" y="169.902917" style="fill: #dd8452; fill-opacity: 0.75"/>
    </g>
    <g clip-path="url(#pc0816219a0)">
     <use xlink:href="#C2_0_0a35d309ed" x="209.235631" y="177.578898" style="fill: #dd8452; fill-opacity: 0.75"/>
    </g>
    <g clip-path="url(#pc0816219a0)">
     <use xlink:href="#C2_0_0a35d309ed" x="207.452053" y="190.950971" style="fill: #dd8452; fill-opacity: 0.75"/>
    </g>
   </g>
   <g id="PathCollection_6">
    <defs>
     <path id="C3_0_3e02f49739" d="M 0 2.5 
C 0.663008 2.5 1.29895 2.236584 1.767767 1.767767 
C 2.236584 1.29895 2.5 0.663008 2.5 -0 
C 2.5 -0.663008 2.236584 -1.29895 1.767767 -1.767767 
C 1.29895 -2.236584 0.663008 -2.5 0 -2.5 
C -0.663008 -2.5 -1.29895 -2.236584 -1.767767 -1.767767 
C -2.236584 -1.29895 -2.5 -0.663008 -2.5 0 
C -2.5 0.663008 -2.236584 1.29895 -1.767767 1.767767 
C -1.29895 2.236584 -0.663008 2.5 0 2.5 
z
"/>
    </defs>
    <g clip-path="url(#pc0816219a0)">
     <use xlink:href="#C3_0_3e02f49739" x="267.989095" y="75.276899" style="fill: #4c72b0; fill-opacity: 0.75"/>
    </g>
    <g clip-path="url(#pc0816219a0)">
     <use xlink:href="#C3_0_3e02f49739" x="270.5686" y="83.365546" style="fill: #4c72b0; fill-opacity: 0.75"/>
    </g>
    <g clip-path="url(#pc0816219a0)">
     <use xlink:href="#C3_0_3e02f49739" x="270.74707" y="102.75189" style="fill: #4c72b0; fill-opacity: 0.75"/>
    </g>
    <g clip-path="url(#pc0816219a0)">
     <use xlink:href="#C3_0_3e02f49739" x="273.295764" y="142.462148" style="fill: #4c72b0; fill-opacity: 0.75"/>
    </g>
    <g clip-path="url(#pc0816219a0)">
     <use xlink:href="#C3_0_3e02f49739" x="265.586859" y="40.159233" style="fill: #4c72b0; fill-opacity: 0.75"/>
    </g>
    <g clip-path="url(#pc0816219a0)">
     <use xlink:href="#C3_0_3e02f49739" x="270.940871" y="176.468431" style="fill: #dd8452; fill-opacity: 0.75"/>
    </g>
    <g clip-path="url(#pc0816219a0)">
     <use xlink:href="#C3_0_3e02f49739" x="266.628324" y="171.954922" style="fill: #dd8452; fill-opacity: 0.75"/>
    </g>
    <g clip-path="url(#pc0816219a0)">
     <use xlink:href="#C3_0_3e02f49739" x="275.041483" y="178.959882" style="fill: #dd8452; fill-opacity: 0.75"/>
    </g>
    <g clip-path="url(#pc0816219a0)">
     <use xlink:href="#C3_0_3e02f49739" x="268.028977" y="129.657491" style="fill: #dd8452; fill-opacity: 0.75"/>
    </g>
    <g clip-path="url(#pc0816219a0)">
     <use xlink:href="#C3_0_3e02f49739" x="269.491567" y="172.504607" style="fill: #dd8452; fill-opacity: 0.75"/>
    </g>
   </g>
   <g id="PathCollection_7">
    <defs>
     <path id="C4_0_bfac69fbc9" d="M 0 2.5 
C 0.663008 2.5 1.29895 2.236584 1.767767 1.767767 
C 2.236584 1.29895 2.5 0.663008 2.5 -0 
C 2.5 -0.663008 2.236584 -1.29895 1.767767 -1.767767 
C 1.29895 -2.236584 0.663008 -2.5 0 -2.5 
C -0.663008 -2.5 -1.29895 -2.236584 -1.767767 -1.767767 
C -2.236584 -1.29895 -2.5 -0.663008 -2.5 0 
C -2.5 0.663008 -2.236584 1.29895 -1.767767 1.767767 
C -1.29895 2.236584 -0.663008 2.5 0 2.5 
z
"/>
    </defs>
    <g clip-path="url(#pc0816219a0)">
     <use xlink:href="#C4_0_bfac69fbc9" x="339.602686" y="101.85117" style="fill: #4c72b0; fill-opacity: 0.75"/>
    </g>
    <g clip-path="url(#pc0816219a0)">
     <use xlink:href="#C4_0_bfac69fbc9" x="340.12156" y="57.040591" style="fill: #4c72b0; fill-opacity: 0.75"/>
    </g>
    <g clip-path="url(#pc0816219a0)">
     <use xlink:href="#C4_0_bfac69fbc9" x="340.043901" y="104.788736" style="fill: #4c72b0; fill-opacity: 0.75"/>
    </g>
    <g clip-path="url(#pc0816219a0)">
     <use xlink:href="#C4_0_bfac69fbc9" x="342.665704" y="177.94665" style="fill: #dd8452; fill-opacity: 0.75"/>
    </g>
    <g clip-path="url(#pc0816219a0)">
     <use xlink:href="#C4_0_bfac69fbc9" x="337.528213" y="181.082963" style="fill: #dd8452; fill-opacity: 0.75"/>
    </g>
    <g clip-path="url(#pc0816219a0)">
     <use xlink:href="#C4_0_bfac69fbc9" x="341.660253" y="160.890556" style="fill: #dd8452; fill-opacity: 0.75"/>
    </g>
   </g>
   <g id="PathCollection_8">
    <defs>
     <path id="C5_0_47a906c19b" d="M 0 2.5 
C 0.663008 2.5 1.29895 2.236584 1.767767 1.767767 
C 2.236584 1.29895 2.5 0.663008 2.5 -0 
C 2.5 -0.663008 2.236584 -1.29895 1.767767 -1.767767 
C 1.29895 -2.236584 0.663008 -2.5 0 -2.5 
C -0.663008 -2.5 -1.29895 -2.236584 -1.767767 -1.767767 
C -2.236584 -1.29895 -2.5 -0.663008 -2.5 0 
C -2.5 0.663008 -2.236584 1.29895 -1.767767 1.767767 
C -1.29895 2.236584 -0.663008 2.5 0 2.5 
z
"/>
    </defs>
    <g clip-path="url(#pc0816219a0)">
     <use xlink:href="#C5_0_47a906c19b" x="404.588195" y="183.165309" style="fill: #4c72b0; fill-opacity: 0.75"/>
    </g>
    <g clip-path="url(#pc0816219a0)">
     <use xlink:href="#C5_0_47a906c19b" x="399.976582" y="182.400508" style="fill: #4c72b0; fill-opacity: 0.75"/>
    </g>
    <g clip-path="url(#pc0816219a0)">
     <use xlink:href="#C5_0_47a906c19b" x="397.836855" y="195.473066" style="fill: #4c72b0; fill-opacity: 0.75"/>
    </g>
    <g clip-path="url(#pc0816219a0)">
     <use xlink:href="#C5_0_47a906c19b" x="397.717586" y="186.281124" style="fill: #4c72b0; fill-opacity: 0.75"/>
    </g>
    <g clip-path="url(#pc0816219a0)">
     <use xlink:href="#C5_0_47a906c19b" x="400.973526" y="197.535155" style="fill: #dd8452; fill-opacity: 0.75"/>
    </g>
    <g clip-path="url(#pc0816219a0)">
     <use xlink:href="#C5_0_47a906c19b" x="404.580049" y="199.819734" style="fill: #dd8452; fill-opacity: 0.75"/>
    </g>
    <g clip-path="url(#pc0816219a0)">
     <use xlink:href="#C5_0_47a906c19b" x="400.432704" y="205.280923" style="fill: #dd8452; fill-opacity: 0.75"/>
    </g>
    <g clip-path="url(#pc0816219a0)">
     <use xlink:href="#C5_0_47a906c19b" x="404.792274" y="193.99865" style="fill: #dd8452; fill-opacity: 0.75"/>
    </g>
   </g>
   <g id="PathCollection_9">
    <defs>
     <path id="C6_0_a05b77ba01" d="M 0 2.5 
C 0.663008 2.5 1.29895 2.236584 1.767767 1.767767 
C 2.236584 1.29895 2.5 0.663008 2.5 -0 
C 2.5 -0.663008 2.236584 -1.29895 1.767767 -1.767767 
C 1.29895 -2.236584 0.663008 -2.5 0 -2.5 
C -0.663008 -2.5 -1.29895 -2.236584 -1.767767 -1.767767 
C -2.236584 -1.29895 -2.5 -0.663008 -2.5 0 
C -2.5 0.663008 -2.236584 1.29895 -1.767767 1.767767 
C -1.29895 2.236584 -0.663008 2.5 0 2.5 
z
"/>
    </defs>
    <g clip-path="url(#pc0816219a0)">
     <use xlink:href="#C6_0_a05b77ba01" x="466.578375" y="107.856783" style="fill: #4c72b0; fill-opacity: 0.75"/>
    </g>
    <g clip-path="url(#pc0816219a0)">
     <use xlink:href="#C6_0_a05b77ba01" x="466.837948" y="115.275138" style="fill: #4c72b0; fill-opacity: 0.75"/>
    </g>
    <g clip-path="url(#pc0816219a0)">
     <use xlink:href="#C6_0_a05b77ba01" x="470.217506" y="114.21195" style="fill: #4c72b0; fill-opacity: 0.75"/>
    </g>
    <g clip-path="url(#pc0816219a0)">
     <use xlink:href="#C6_0_a05b77ba01" x="465.780164" y="70.41537" style="fill: #4c72b0; fill-opacity: 0.75"/>
    </g>
    <g clip-path="url(#pc0816219a0)">
     <use xlink:href="#C6_0_a05b77ba01" x="469.480834" y="55.97821" style="fill: #dd8452; fill-opacity: 0.75"/>
    </g>
    <g clip-path="url(#pc0816219a0)">
     <use xlink:href="#C6_0_a05b77ba01" x="473.347671" y="32.937187" style="fill: #dd8452; fill-opacity: 0.75"/>
    </g>
    <g clip-path="url(#pc0816219a0)">
     <use xlink:href="#C6_0_a05b77ba01" x="461.743927" y="55.740327" style="fill: #dd8452; fill-opacity: 0.75"/>
    </g>
    <g clip-path="url(#pc0816219a0)">
     <use xlink:href="#C6_0_a05b77ba01" x="469.690329" y="92.072765" style="fill: #dd8452; fill-opacity: 0.75"/>
    </g>
   </g>
   <g id="text_17">
    <!-- CAV2, $p_{adj}$ &lt; .001 *** -->
    <g style="fill: #262626" transform="translate(42.22 18.32)scale(0.09 -0.09)">
     <defs>
      <path id="ArialMT-43" d="M 3763 1606 
L 4369 1453 
Q 4178 706 3683 314 
Q 3188 -78 2472 -78 
Q 1731 -78 1267 223 
Q 803 525 561 1097 
Q 319 1669 319 2325 
Q 319 3041 592 3573 
Q 866 4106 1370 4382 
Q 1875 4659 2481 4659 
Q 3169 4659 3637 4309 
Q 4106 3959 4291 3325 
L 3694 3184 
Q 3534 3684 3231 3912 
Q 2928 4141 2469 4141 
Q 1941 4141 1586 3887 
Q 1231 3634 1087 3207 
Q 944 2781 944 2328 
Q 944 1744 1114 1308 
Q 1284 872 1643 656 
Q 2003 441 2422 441 
Q 2931 441 3284 734 
Q 3638 1028 3763 1606 
z
" transform="scale(0.015625)"/>
      <path id="ArialMT-41" d="M -9 0 
L 1750 4581 
L 2403 4581 
L 4278 0 
L 3588 0 
L 3053 1388 
L 1138 1388 
L 634 0 
L -9 0 
z
M 1313 1881 
L 2866 1881 
L 2388 3150 
Q 2169 3728 2063 4100 
Q 1975 3659 1816 3225 
L 1313 1881 
z
" transform="scale(0.015625)"/>
      <path id="ArialMT-56" d="M 1803 0 
L 28 4581 
L 684 4581 
L 1875 1253 
Q 2019 853 2116 503 
Q 2222 878 2363 1253 
L 3600 4581 
L 4219 4581 
L 2425 0 
L 1803 0 
z
" transform="scale(0.015625)"/>
      <path id="ArialMT-2c" d="M 569 0 
L 569 641 
L 1209 641 
L 1209 0 
Q 1209 -353 1084 -570 
Q 959 -788 688 -906 
L 531 -666 
Q 709 -588 793 -436 
Q 878 -284 888 0 
L 569 0 
z
" transform="scale(0.015625)"/>
      <path id="DejaVuSans-Oblique-70" d="M 3175 2156 
Q 3175 2616 2975 2859 
Q 2775 3103 2400 3103 
Q 2144 3103 1911 2972 
Q 1678 2841 1497 2591 
Q 1319 2344 1212 1994 
Q 1106 1644 1106 1300 
Q 1106 863 1306 627 
Q 1506 391 1875 391 
Q 2147 391 2380 519 
Q 2613 647 2778 891 
Q 2956 1147 3065 1494 
Q 3175 1841 3175 2156 
z
M 1394 2969 
Q 1625 3272 1939 3428 
Q 2253 3584 2638 3584 
Q 3175 3584 3472 3232 
Q 3769 2881 3769 2247 
Q 3769 1728 3584 1258 
Q 3400 788 3053 416 
Q 2822 169 2531 39 
Q 2241 -91 1919 -91 
Q 1547 -91 1294 64 
Q 1041 219 916 525 
L 556 -1331 
L -19 -1331 
L 922 3500 
L 1497 3500 
L 1394 2969 
z
" transform="scale(0.015625)"/>
      <path id="DejaVuSans-Oblique-61" d="M 3438 1997 
L 3047 0 
L 2472 0 
L 2578 531 
Q 2325 219 2001 64 
Q 1678 -91 1281 -91 
Q 834 -91 548 182 
Q 263 456 263 884 
Q 263 1497 752 1853 
Q 1241 2209 2100 2209 
L 2900 2209 
L 2931 2363 
Q 2938 2388 2941 2417 
Q 2944 2447 2944 2509 
Q 2944 2788 2717 2942 
Q 2491 3097 2081 3097 
Q 1800 3097 1504 3025 
Q 1209 2953 897 2809 
L 997 3341 
Q 1322 3463 1633 3523 
Q 1944 3584 2234 3584 
Q 2853 3584 3176 3315 
Q 3500 3047 3500 2534 
Q 3500 2431 3484 2292 
Q 3469 2153 3438 1997 
z
M 2816 1759 
L 2241 1759 
Q 1534 1759 1195 1570 
Q 856 1381 856 984 
Q 856 709 1029 553 
Q 1203 397 1509 397 
Q 1978 397 2328 733 
Q 2678 1069 2791 1631 
L 2816 1759 
z
" transform="scale(0.015625)"/>
      <path id="DejaVuSans-Oblique-64" d="M 2675 525 
Q 2444 222 2128 65 
Q 1813 -91 1428 -91 
Q 903 -91 598 267 
Q 294 625 294 1247 
Q 294 1766 478 2236 
Q 663 2706 1013 3078 
Q 1244 3325 1534 3454 
Q 1825 3584 2144 3584 
Q 2481 3584 2739 3421 
Q 2997 3259 3138 2956 
L 3513 4863 
L 4091 4863 
L 3144 0 
L 2566 0 
L 2675 525 
z
M 891 1350 
Q 891 897 1095 644 
Q 1300 391 1663 391 
Q 1931 391 2161 520 
Q 2391 650 2566 903 
Q 2750 1166 2856 1509 
Q 2963 1853 2963 2188 
Q 2963 2622 2758 2865 
Q 2553 3109 2194 3109 
Q 1922 3109 1687 2981 
Q 1453 2853 1288 2613 
Q 1106 2353 998 2009 
Q 891 1666 891 1350 
z
" transform="scale(0.015625)"/>
      <path id="DejaVuSans-Oblique-6a" d="M 928 3500 
L 1503 3500 
L 813 -63 
L 809 -78 
Q 694 -675 544 -897 
Q 403 -1106 132 -1218 
Q -138 -1331 -506 -1331 
L -722 -1331 
L -628 -844 
L -481 -844 
Q -144 -844 -1 -703 
Q 141 -563 238 -63 
L 928 3500 
z
M 1197 4863 
L 1772 4863 
L 1631 4134 
L 1056 4134 
L 1197 4863 
z
" transform="scale(0.015625)"/>
      <path id="ArialMT-3c" d="M 350 2003 
L 350 2528 
L 3384 3809 
L 3384 3250 
L 978 2263 
L 3384 1266 
L 3384 706 
L 350 2003 
z
" transform="scale(0.015625)"/>
      <path id="ArialMT-2e" d="M 581 0 
L 581 641 
L 1222 641 
L 1222 0 
L 581 0 
z
" transform="scale(0.015625)"/>
      <path id="ArialMT-2a" d="M 200 3741 
L 344 4184 
Q 841 4009 1066 3881 
Q 1006 4447 1003 4659 
L 1456 4659 
Q 1447 4350 1384 3884 
Q 1706 4047 2122 4184 
L 2266 3741 
Q 1869 3609 1488 3566 
Q 1678 3400 2025 2975 
L 1650 2709 
Q 1469 2956 1222 3381 
Q 991 2941 816 2709 
L 447 2975 
Q 809 3422 966 3566 
Q 563 3644 200 3741 
z
" transform="scale(0.015625)"/>
     </defs>
     <use xlink:href="#ArialMT-43" transform="translate(0 0.203125)"/>
     <use xlink:href="#ArialMT-41" transform="translate(72.216797 0.203125)"/>
     <use xlink:href="#ArialMT-56" transform="translate(138.916016 0.203125)"/>
     <use xlink:href="#ArialMT-32" transform="translate(205.615234 0.203125)"/>
     <use xlink:href="#ArialMT-2c" transform="translate(261.230469 0.203125)"/>
     <use xlink:href="#ArialMT-20" transform="translate(289.013672 0.203125)"/>
     <use xlink:href="#DejaVuSans-Oblique-70" transform="translate(316.796875 0.203125)"/>
     <use xlink:href="#DejaVuSans-Oblique-61" transform="translate(380.273438 -16.203125)scale(0.7)"/>
     <use xlink:href="#DejaVuSans-Oblique-64" transform="translate(423.168945 -16.203125)scale(0.7)"/>
     <use xlink:href="#DejaVuSans-Oblique-6a" transform="translate(467.602539 -16.203125)scale(0.7)"/>
     <use xlink:href="#ArialMT-20" transform="translate(489.785156 0.203125)"/>
     <use xlink:href="#ArialMT-3c" transform="translate(517.568359 0.203125)"/>
     <use xlink:href="#ArialMT-20" transform="translate(575.966797 0.203125)"/>
     <use xlink:href="#ArialMT-2e" transform="translate(603.75 0.203125)"/>
     <use xlink:href="#ArialMT-30" transform="translate(631.533203 0.203125)"/>
     <use xlink:href="#ArialMT-30" transform="translate(687.148438 0.203125)"/>
     <use xlink:href="#ArialMT-31" transform="translate(742.763672 0.203125)"/>
     <use xlink:href="#ArialMT-20" transform="translate(798.378906 0.203125)"/>
     <use xlink:href="#ArialMT-2a" transform="translate(826.162109 0.203125)"/>
     <use xlink:href="#ArialMT-2a" transform="translate(865.078125 0.203125)"/>
     <use xlink:href="#ArialMT-2a" transform="translate(903.994141 0.203125)"/>
    </g>
   </g>
   <g id="legend_1">
    <g id="patch_5">
     <path d="M 48.52 69.712344 
L 100.82125 69.712344 
Q 102.62125 69.712344 102.62125 67.912344 
L 102.62125 30.62 
Q 102.62125 28.82 100.82125 28.82 
L 48.52 28.82 
Q 46.72 28.82 46.72 30.62 
L 46.72 67.912344 
Q 46.72 69.712344 48.52 69.712344 
z
" style="fill: #ffffff; opacity: 0.8; stroke: #cccccc; stroke-linejoin: miter"/>
    </g>
    <g id="text_18">
     <!-- Treatment -->
     <g style="fill: #262626" transform="translate(54.334141 38.862031)scale(0.09 -0.09)">
      <use xlink:href="#ArialMT-54"/>
      <use xlink:href="#ArialMT-72" x="57.333984"/>
      <use xlink:href="#ArialMT-65" x="90.634766"/>
      <use xlink:href="#ArialMT-61" x="146.25"/>
      <use xlink:href="#ArialMT-74" x="201.865234"/>
      <use xlink:href="#ArialMT-6d" x="229.648438"/>
      <use xlink:href="#ArialMT-65" x="312.949219"/>
      <use xlink:href="#ArialMT-6e" x="368.564453"/>
      <use xlink:href="#ArialMT-74" x="424.179688"/>
     </g>
    </g>
    <g id="PathCollection_10">
     <defs>
      <path id="m1fcf82ab89" d="M 0 3.872983 
C 1.027127 3.872983 2.012324 3.464901 2.738613 2.738613 
C 3.464901 2.012324 3.872983 1.027127 3.872983 0 
C 3.872983 -1.027127 3.464901 -2.012324 2.738613 -2.738613 
C 2.012324 -3.464901 1.027127 -3.872983 0 -3.872983 
C -1.027127 -3.872983 -2.012324 -3.464901 -2.738613 -2.738613 
C -3.464901 -2.012324 -3.872983 -1.027127 -3.872983 0 
C -3.872983 1.027127 -3.464901 2.012324 -2.738613 2.738613 
C -2.012324 3.464901 -1.027127 3.872983 0 3.872983 
z
" style="stroke: #4c72b0"/>
     </defs>
     <g>
      <use xlink:href="#m1fcf82ab89" x="59.32" y="49.230313" style="fill: #4c72b0; stroke: #4c72b0"/>
     </g>
    </g>
    <g id="text_19">
     <!-- BEVA -->
     <g style="fill: #262626" transform="translate(75.52 51.592813)scale(0.09 -0.09)">
      <defs>
       <path id="ArialMT-42" d="M 469 0 
L 469 4581 
L 2188 4581 
Q 2713 4581 3030 4442 
Q 3347 4303 3526 4014 
Q 3706 3725 3706 3409 
Q 3706 3116 3547 2856 
Q 3388 2597 3066 2438 
Q 3481 2316 3704 2022 
Q 3928 1728 3928 1328 
Q 3928 1006 3792 729 
Q 3656 453 3456 303 
Q 3256 153 2954 76 
Q 2653 0 2216 0 
L 469 0 
z
M 1075 2656 
L 2066 2656 
Q 2469 2656 2644 2709 
Q 2875 2778 2992 2937 
Q 3109 3097 3109 3338 
Q 3109 3566 3000 3739 
Q 2891 3913 2687 3977 
Q 2484 4041 1991 4041 
L 1075 4041 
L 1075 2656 
z
M 1075 541 
L 2216 541 
Q 2509 541 2628 563 
Q 2838 600 2978 687 
Q 3119 775 3209 942 
Q 3300 1109 3300 1328 
Q 3300 1584 3169 1773 
Q 3038 1963 2805 2039 
Q 2572 2116 2134 2116 
L 1075 2116 
L 1075 541 
z
" transform="scale(0.015625)"/>
       <path id="ArialMT-45" d="M 506 0 
L 506 4581 
L 3819 4581 
L 3819 4041 
L 1113 4041 
L 1113 2638 
L 3647 2638 
L 3647 2100 
L 1113 2100 
L 1113 541 
L 3925 541 
L 3925 0 
L 506 0 
z
" transform="scale(0.015625)"/>
      </defs>
      <use xlink:href="#ArialMT-42"/>
      <use xlink:href="#ArialMT-45" x="66.699219"/>
      <use xlink:href="#ArialMT-56" x="133.398438"/>
      <use xlink:href="#ArialMT-41" x="192.722656"/>
     </g>
    </g>
    <g id="PathCollection_11">
     <defs>
      <path id="ma97eaeaec3" d="M 0 3.872983 
C 1.027127 3.872983 2.012324 3.464901 2.738613 2.738613 
C 3.464901 2.012324 3.872983 1.027127 3.872983 0 
C 3.872983 -1.027127 3.464901 -2.012324 2.738613 -2.738613 
C 2.012324 -3.464901 1.027127 -3.872983 0 -3.872983 
C -1.027127 -3.872983 -2.012324 -3.464901 -2.738613 -2.738613 
C -3.464901 -2.012324 -3.872983 -1.027127 -3.872983 0 
C -3.872983 1.027127 -3.464901 2.012324 -2.738613 2.738613 
C -2.012324 3.464901 -1.027127 3.872983 0 3.872983 
z
" style="stroke: #dd8452"/>
     </defs>
     <g>
      <use xlink:href="#ma97eaeaec3" x="59.32" y="61.961094" style="fill: #dd8452; stroke: #dd8452"/>
     </g>
    </g>
    <g id="text_20">
     <!-- CTRL -->
     <g style="fill: #262626" transform="translate(75.52 64.323594)scale(0.09 -0.09)">
      <defs>
       <path id="ArialMT-52" d="M 503 0 
L 503 4581 
L 2534 4581 
Q 3147 4581 3465 4457 
Q 3784 4334 3975 4021 
Q 4166 3709 4166 3331 
Q 4166 2844 3850 2509 
Q 3534 2175 2875 2084 
Q 3116 1969 3241 1856 
Q 3506 1613 3744 1247 
L 4541 0 
L 3778 0 
L 3172 953 
Q 2906 1366 2734 1584 
Q 2563 1803 2427 1890 
Q 2291 1978 2150 2013 
Q 2047 2034 1813 2034 
L 1109 2034 
L 1109 0 
L 503 0 
z
M 1109 2559 
L 2413 2559 
Q 2828 2559 3062 2645 
Q 3297 2731 3419 2920 
Q 3541 3109 3541 3331 
Q 3541 3656 3305 3865 
Q 3069 4075 2559 4075 
L 1109 4075 
L 1109 2559 
z
" transform="scale(0.015625)"/>
       <path id="ArialMT-4c" d="M 469 0 
L 469 4581 
L 1075 4581 
L 1075 541 
L 3331 541 
L 3331 0 
L 469 0 
z
" transform="scale(0.015625)"/>
      </defs>
      <use xlink:href="#ArialMT-43"/>
      <use xlink:href="#ArialMT-54" x="72.216797"/>
      <use xlink:href="#ArialMT-52" x="133.300781"/>
      <use xlink:href="#ArialMT-4c" x="205.517578"/>
     </g>
    </g>
   </g>
  </g>
 </g>
 <defs>
  <clipPath id="pc0816219a0">
   <rect x="42.22" y="24.32" width="458.29622" height="189.57811"/>
  </clipPath>
 </defs>
</svg>
