<?xml version="1.0" encoding="utf-8" standalone="no"?>
<!DOCTYPE svg PUBLIC "-//W3C//DTD SVG 1.1//EN"
  "http://www.w3.org/Graphics/SVG/1.1/DTD/svg11.dtd">
<svg xmlns:xlink="http://www.w3.org/1999/xlink" width="510.23622pt" height="255.11811pt" viewBox="0 0 510.23622 255.11811" xmlns="http://www.w3.org/2000/svg" version="1.1">
 <metadata>
  <rdf:RDF xmlns:dc="http://purl.org/dc/elements/1.1/" xmlns:cc="http://creativecommons.org/ns#" xmlns:rdf="http://www.w3.org/1999/02/22-rdf-syntax-ns#">
   <cc:Work>
    <dc:type rdf:resource="http://purl.org/dc/dcmitype/StillImage"/>
    <dc:date>2022-04-27T00:13:19.834703</dc:date>
    <dc:format>image/svg+xml</dc:format>
    <dc:creator>
     <cc:Agent>
      <dc:title>Matplotlib v3.5.1, https://matplotlib.org/</dc:title>
     </cc:Agent>
    </dc:creator>
   </cc:Work>
  </rdf:RDF>
 </metadata>
 <defs>
  <style type="text/css">*{stroke-linejoin: round; stroke-linecap: butt}</style>
 </defs>
 <g id="figure_1">
  <g id="patch_1">
   <path d="M 0 255.11811 
L 510.23622 255.11811 
L 510.23622 0 
L 0 0 
z
" style="fill: #ffffff"/>
  </g>
  <g id="axes_1">
   <g id="patch_2">
    <path d="M 47.22 213.89811 
L 500.51622 213.89811 
L 500.51622 24.32 
L 47.22 24.32 
z
" style="fill: #ffffff"/>
   </g>
   <g id="matplotlib.axis_1">
    <g id="xtick_1">
     <g id="text_1">
      <!-- 49 -->
      <g style="fill: #444444" transform="translate(74.593458 229.840141)scale(0.09 -0.09)">
       <defs>
        <path id="ArialMT-34" d="M 2069 0 
L 2069 1097 
L 81 1097 
L 81 1613 
L 2172 4581 
L 2631 4581 
L 2631 1613 
L 3250 1613 
L 3250 1097 
L 2631 1097 
L 2631 0 
L 2069 0 
z
M 2069 1613 
L 2069 3678 
L 634 1613 
L 2069 1613 
z
" transform="scale(0.015625)"/>
        <path id="ArialMT-39" d="M 350 1059 
L 891 1109 
Q 959 728 1153 556 
Q 1347 384 1650 384 
Q 1909 384 2104 503 
Q 2300 622 2425 820 
Q 2550 1019 2634 1356 
Q 2719 1694 2719 2044 
Q 2719 2081 2716 2156 
Q 2547 1888 2255 1720 
Q 1963 1553 1622 1553 
Q 1053 1553 659 1965 
Q 266 2378 266 3053 
Q 266 3750 677 4175 
Q 1088 4600 1706 4600 
Q 2153 4600 2523 4359 
Q 2894 4119 3086 3673 
Q 3278 3228 3278 2384 
Q 3278 1506 3087 986 
Q 2897 466 2520 194 
Q 2144 -78 1638 -78 
Q 1100 -78 759 220 
Q 419 519 350 1059 
z
M 2653 3081 
Q 2653 3566 2395 3850 
Q 2138 4134 1775 4134 
Q 1400 4134 1122 3828 
Q 844 3522 844 3034 
Q 844 2597 1108 2323 
Q 1372 2050 1759 2050 
Q 2150 2050 2401 2323 
Q 2653 2597 2653 3081 
z
" transform="scale(0.015625)"/>
       </defs>
       <use xlink:href="#ArialMT-34"/>
       <use xlink:href="#ArialMT-39" x="55.615234"/>
      </g>
     </g>
    </g>
    <g id="xtick_2">
     <g id="text_2">
      <!-- 17 -->
      <g style="fill: #444444" transform="translate(139.350061 229.840141)scale(0.09 -0.09)">
       <defs>
        <path id="ArialMT-31" d="M 2384 0 
L 1822 0 
L 1822 3584 
Q 1619 3391 1289 3197 
Q 959 3003 697 2906 
L 697 3450 
Q 1169 3672 1522 3987 
Q 1875 4303 2022 4600 
L 2384 4600 
L 2384 0 
z
" transform="scale(0.015625)"/>
        <path id="ArialMT-37" d="M 303 3981 
L 303 4522 
L 3269 4522 
L 3269 4084 
Q 2831 3619 2401 2847 
Q 1972 2075 1738 1259 
Q 1569 684 1522 0 
L 944 0 
Q 953 541 1156 1306 
Q 1359 2072 1739 2783 
Q 2119 3494 2547 3981 
L 303 3981 
z
" transform="scale(0.015625)"/>
       </defs>
       <use xlink:href="#ArialMT-31"/>
       <use xlink:href="#ArialMT-37" x="55.615234"/>
      </g>
     </g>
    </g>
    <g id="xtick_3">
     <g id="text_3">
      <!-- 69 -->
      <g style="fill: #444444" transform="translate(204.106664 229.840141)scale(0.09 -0.09)">
       <defs>
        <path id="ArialMT-36" d="M 3184 3459 
L 2625 3416 
Q 2550 3747 2413 3897 
Q 2184 4138 1850 4138 
Q 1581 4138 1378 3988 
Q 1113 3794 959 3422 
Q 806 3050 800 2363 
Q 1003 2672 1297 2822 
Q 1591 2972 1913 2972 
Q 2475 2972 2870 2558 
Q 3266 2144 3266 1488 
Q 3266 1056 3080 686 
Q 2894 316 2569 119 
Q 2244 -78 1831 -78 
Q 1128 -78 684 439 
Q 241 956 241 2144 
Q 241 3472 731 4075 
Q 1159 4600 1884 4600 
Q 2425 4600 2770 4297 
Q 3116 3994 3184 3459 
z
M 888 1484 
Q 888 1194 1011 928 
Q 1134 663 1356 523 
Q 1578 384 1822 384 
Q 2178 384 2434 671 
Q 2691 959 2691 1453 
Q 2691 1928 2437 2201 
Q 2184 2475 1800 2475 
Q 1419 2475 1153 2201 
Q 888 1928 888 1484 
z
" transform="scale(0.015625)"/>
       </defs>
       <use xlink:href="#ArialMT-36"/>
       <use xlink:href="#ArialMT-39" x="55.615234"/>
      </g>
     </g>
    </g>
    <g id="xtick_4">
     <g id="text_4">
      <!-- 15 -->
      <g style="fill: #444444" transform="translate(268.863266 229.840141)scale(0.09 -0.09)">
       <defs>
        <path id="ArialMT-35" d="M 266 1200 
L 856 1250 
Q 922 819 1161 601 
Q 1400 384 1738 384 
Q 2144 384 2425 690 
Q 2706 997 2706 1503 
Q 2706 1984 2436 2262 
Q 2166 2541 1728 2541 
Q 1456 2541 1237 2417 
Q 1019 2294 894 2097 
L 366 2166 
L 809 4519 
L 3088 4519 
L 3088 3981 
L 1259 3981 
L 1013 2750 
Q 1425 3038 1878 3038 
Q 2478 3038 2890 2622 
Q 3303 2206 3303 1553 
Q 3303 931 2941 478 
Q 2500 -78 1738 -78 
Q 1113 -78 717 272 
Q 322 622 266 1200 
z
" transform="scale(0.015625)"/>
       </defs>
       <use xlink:href="#ArialMT-31"/>
       <use xlink:href="#ArialMT-35" x="55.615234"/>
      </g>
     </g>
    </g>
    <g id="xtick_5">
     <g id="text_5">
      <!-- 5 -->
      <g style="fill: #444444" transform="translate(336.122291 229.840141)scale(0.09 -0.09)">
       <use xlink:href="#ArialMT-35"/>
      </g>
     </g>
    </g>
    <g id="xtick_6">
     <g id="text_6">
      <!-- 126 -->
      <g style="fill: #444444" transform="translate(395.87405 229.840141)scale(0.09 -0.09)">
       <defs>
        <path id="ArialMT-32" d="M 3222 541 
L 3222 0 
L 194 0 
Q 188 203 259 391 
Q 375 700 629 1000 
Q 884 1300 1366 1694 
Q 2113 2306 2375 2664 
Q 2638 3022 2638 3341 
Q 2638 3675 2398 3904 
Q 2159 4134 1775 4134 
Q 1369 4134 1125 3890 
Q 881 3647 878 3216 
L 300 3275 
Q 359 3922 746 4261 
Q 1134 4600 1788 4600 
Q 2447 4600 2831 4234 
Q 3216 3869 3216 3328 
Q 3216 3053 3103 2787 
Q 2991 2522 2730 2228 
Q 2469 1934 1863 1422 
Q 1356 997 1212 845 
Q 1069 694 975 541 
L 3222 541 
z
" transform="scale(0.015625)"/>
       </defs>
       <use xlink:href="#ArialMT-31"/>
       <use xlink:href="#ArialMT-32" x="55.615234"/>
       <use xlink:href="#ArialMT-36" x="111.230469"/>
      </g>
     </g>
    </g>
    <g id="xtick_7">
     <g id="text_7">
      <!-- 62 -->
      <g style="fill: #444444" transform="translate(463.133075 229.840141)scale(0.09 -0.09)">
       <use xlink:href="#ArialMT-36"/>
       <use xlink:href="#ArialMT-32" x="55.615234"/>
      </g>
     </g>
    </g>
    <g id="text_8">
     <!-- Patient -->
     <g style="fill: #444444" transform="translate(259.859048 242.070923)scale(0.09 -0.09)">
      <defs>
       <path id="ArialMT-50" d="M 494 0 
L 494 4581 
L 2222 4581 
Q 2678 4581 2919 4538 
Q 3256 4481 3484 4323 
Q 3713 4166 3852 3881 
Q 3991 3597 3991 3256 
Q 3991 2672 3619 2267 
Q 3247 1863 2275 1863 
L 1100 1863 
L 1100 0 
L 494 0 
z
M 1100 2403 
L 2284 2403 
Q 2872 2403 3119 2622 
Q 3366 2841 3366 3238 
Q 3366 3525 3220 3729 
Q 3075 3934 2838 4000 
Q 2684 4041 2272 4041 
L 1100 4041 
L 1100 2403 
z
" transform="scale(0.015625)"/>
       <path id="ArialMT-61" d="M 2588 409 
Q 2275 144 1986 34 
Q 1697 -75 1366 -75 
Q 819 -75 525 192 
Q 231 459 231 875 
Q 231 1119 342 1320 
Q 453 1522 633 1644 
Q 813 1766 1038 1828 
Q 1203 1872 1538 1913 
Q 2219 1994 2541 2106 
Q 2544 2222 2544 2253 
Q 2544 2597 2384 2738 
Q 2169 2928 1744 2928 
Q 1347 2928 1158 2789 
Q 969 2650 878 2297 
L 328 2372 
Q 403 2725 575 2942 
Q 747 3159 1072 3276 
Q 1397 3394 1825 3394 
Q 2250 3394 2515 3294 
Q 2781 3194 2906 3042 
Q 3031 2891 3081 2659 
Q 3109 2516 3109 2141 
L 3109 1391 
Q 3109 606 3145 398 
Q 3181 191 3288 0 
L 2700 0 
Q 2613 175 2588 409 
z
M 2541 1666 
Q 2234 1541 1622 1453 
Q 1275 1403 1131 1340 
Q 988 1278 909 1158 
Q 831 1038 831 891 
Q 831 666 1001 516 
Q 1172 366 1500 366 
Q 1825 366 2078 508 
Q 2331 650 2450 897 
Q 2541 1088 2541 1459 
L 2541 1666 
z
" transform="scale(0.015625)"/>
       <path id="ArialMT-74" d="M 1650 503 
L 1731 6 
Q 1494 -44 1306 -44 
Q 1000 -44 831 53 
Q 663 150 594 308 
Q 525 466 525 972 
L 525 2881 
L 113 2881 
L 113 3319 
L 525 3319 
L 525 4141 
L 1084 4478 
L 1084 3319 
L 1650 3319 
L 1650 2881 
L 1084 2881 
L 1084 941 
Q 1084 700 1114 631 
Q 1144 563 1211 522 
Q 1278 481 1403 481 
Q 1497 481 1650 503 
z
" transform="scale(0.015625)"/>
       <path id="ArialMT-69" d="M 425 3934 
L 425 4581 
L 988 4581 
L 988 3934 
L 425 3934 
z
M 425 0 
L 425 3319 
L 988 3319 
L 988 0 
L 425 0 
z
" transform="scale(0.015625)"/>
       <path id="ArialMT-65" d="M 2694 1069 
L 3275 997 
Q 3138 488 2766 206 
Q 2394 -75 1816 -75 
Q 1088 -75 661 373 
Q 234 822 234 1631 
Q 234 2469 665 2931 
Q 1097 3394 1784 3394 
Q 2450 3394 2872 2941 
Q 3294 2488 3294 1666 
Q 3294 1616 3291 1516 
L 816 1516 
Q 847 969 1125 678 
Q 1403 388 1819 388 
Q 2128 388 2347 550 
Q 2566 713 2694 1069 
z
M 847 1978 
L 2700 1978 
Q 2663 2397 2488 2606 
Q 2219 2931 1791 2931 
Q 1403 2931 1139 2672 
Q 875 2413 847 1978 
z
" transform="scale(0.015625)"/>
       <path id="ArialMT-6e" d="M 422 0 
L 422 3319 
L 928 3319 
L 928 2847 
Q 1294 3394 1984 3394 
Q 2284 3394 2536 3286 
Q 2788 3178 2913 3003 
Q 3038 2828 3088 2588 
Q 3119 2431 3119 2041 
L 3119 0 
L 2556 0 
L 2556 2019 
Q 2556 2363 2490 2533 
Q 2425 2703 2258 2804 
Q 2091 2906 1866 2906 
Q 1506 2906 1245 2678 
Q 984 2450 984 1813 
L 984 0 
L 422 0 
z
" transform="scale(0.015625)"/>
      </defs>
      <use xlink:href="#ArialMT-50"/>
      <use xlink:href="#ArialMT-61" x="66.699219"/>
      <use xlink:href="#ArialMT-74" x="122.314453"/>
      <use xlink:href="#ArialMT-69" x="150.097656"/>
      <use xlink:href="#ArialMT-65" x="172.314453"/>
      <use xlink:href="#ArialMT-6e" x="227.929688"/>
      <use xlink:href="#ArialMT-74" x="283.544922"/>
     </g>
    </g>
   </g>
   <g id="matplotlib.axis_2">
    <g id="ytick_1">
     <g id="text_9">
      <!-- 200 -->
      <g style="fill: #444444" transform="translate(22.705469 188.373429)scale(0.09 -0.09)">
       <defs>
        <path id="ArialMT-30" d="M 266 2259 
Q 266 3072 433 3567 
Q 600 4063 929 4331 
Q 1259 4600 1759 4600 
Q 2128 4600 2406 4451 
Q 2684 4303 2865 4023 
Q 3047 3744 3150 3342 
Q 3253 2941 3253 2259 
Q 3253 1453 3087 958 
Q 2922 463 2592 192 
Q 2263 -78 1759 -78 
Q 1097 -78 719 397 
Q 266 969 266 2259 
z
M 844 2259 
Q 844 1131 1108 757 
Q 1372 384 1759 384 
Q 2147 384 2411 759 
Q 2675 1134 2675 2259 
Q 2675 3391 2411 3762 
Q 2147 4134 1753 4134 
Q 1366 4134 1134 3806 
Q 844 3388 844 2259 
z
" transform="scale(0.015625)"/>
       </defs>
       <use xlink:href="#ArialMT-32"/>
       <use xlink:href="#ArialMT-30" x="55.615234"/>
       <use xlink:href="#ArialMT-30" x="111.230469"/>
      </g>
     </g>
    </g>
    <g id="ytick_2">
     <g id="text_10">
      <!-- 300 -->
      <g style="fill: #444444" transform="translate(22.705469 147.614705)scale(0.09 -0.09)">
       <defs>
        <path id="ArialMT-33" d="M 269 1209 
L 831 1284 
Q 928 806 1161 595 
Q 1394 384 1728 384 
Q 2125 384 2398 659 
Q 2672 934 2672 1341 
Q 2672 1728 2419 1979 
Q 2166 2231 1775 2231 
Q 1616 2231 1378 2169 
L 1441 2663 
Q 1497 2656 1531 2656 
Q 1891 2656 2178 2843 
Q 2466 3031 2466 3422 
Q 2466 3731 2256 3934 
Q 2047 4138 1716 4138 
Q 1388 4138 1169 3931 
Q 950 3725 888 3313 
L 325 3413 
Q 428 3978 793 4289 
Q 1159 4600 1703 4600 
Q 2078 4600 2393 4439 
Q 2709 4278 2876 4000 
Q 3044 3722 3044 3409 
Q 3044 3113 2884 2869 
Q 2725 2625 2413 2481 
Q 2819 2388 3044 2092 
Q 3269 1797 3269 1353 
Q 3269 753 2831 336 
Q 2394 -81 1725 -81 
Q 1122 -81 723 278 
Q 325 638 269 1209 
z
" transform="scale(0.015625)"/>
       </defs>
       <use xlink:href="#ArialMT-33"/>
       <use xlink:href="#ArialMT-30" x="55.615234"/>
       <use xlink:href="#ArialMT-30" x="111.230469"/>
      </g>
     </g>
    </g>
    <g id="ytick_3">
     <g id="text_11">
      <!-- 400 -->
      <g style="fill: #444444" transform="translate(22.705469 106.855982)scale(0.09 -0.09)">
       <use xlink:href="#ArialMT-34"/>
       <use xlink:href="#ArialMT-30" x="55.615234"/>
       <use xlink:href="#ArialMT-30" x="111.230469"/>
      </g>
     </g>
    </g>
    <g id="ytick_4">
     <g id="text_12">
      <!-- 500 -->
      <g style="fill: #444444" transform="translate(22.705469 66.097258)scale(0.09 -0.09)">
       <use xlink:href="#ArialMT-35"/>
       <use xlink:href="#ArialMT-30" x="55.615234"/>
       <use xlink:href="#ArialMT-30" x="111.230469"/>
      </g>
     </g>
    </g>
    <g id="text_13">
     <!-- Trimmed Means of M values (TMM) -->
     <g style="fill: #444444" transform="translate(16.81125 190.194993)rotate(-90)scale(0.09 -0.09)">
      <defs>
       <path id="ArialMT-54" d="M 1659 0 
L 1659 4041 
L 150 4041 
L 150 4581 
L 3781 4581 
L 3781 4041 
L 2266 4041 
L 2266 0 
L 1659 0 
z
" transform="scale(0.015625)"/>
       <path id="ArialMT-72" d="M 416 0 
L 416 3319 
L 922 3319 
L 922 2816 
Q 1116 3169 1280 3281 
Q 1444 3394 1641 3394 
Q 1925 3394 2219 3213 
L 2025 2691 
Q 1819 2813 1613 2813 
Q 1428 2813 1281 2702 
Q 1134 2591 1072 2394 
Q 978 2094 978 1738 
L 978 0 
L 416 0 
z
" transform="scale(0.015625)"/>
       <path id="ArialMT-6d" d="M 422 0 
L 422 3319 
L 925 3319 
L 925 2853 
Q 1081 3097 1340 3245 
Q 1600 3394 1931 3394 
Q 2300 3394 2536 3241 
Q 2772 3088 2869 2813 
Q 3263 3394 3894 3394 
Q 4388 3394 4653 3120 
Q 4919 2847 4919 2278 
L 4919 0 
L 4359 0 
L 4359 2091 
Q 4359 2428 4304 2576 
Q 4250 2725 4106 2815 
Q 3963 2906 3769 2906 
Q 3419 2906 3187 2673 
Q 2956 2441 2956 1928 
L 2956 0 
L 2394 0 
L 2394 2156 
Q 2394 2531 2256 2718 
Q 2119 2906 1806 2906 
Q 1569 2906 1367 2781 
Q 1166 2656 1075 2415 
Q 984 2175 984 1722 
L 984 0 
L 422 0 
z
" transform="scale(0.015625)"/>
       <path id="ArialMT-64" d="M 2575 0 
L 2575 419 
Q 2259 -75 1647 -75 
Q 1250 -75 917 144 
Q 584 363 401 755 
Q 219 1147 219 1656 
Q 219 2153 384 2558 
Q 550 2963 881 3178 
Q 1213 3394 1622 3394 
Q 1922 3394 2156 3267 
Q 2391 3141 2538 2938 
L 2538 4581 
L 3097 4581 
L 3097 0 
L 2575 0 
z
M 797 1656 
Q 797 1019 1065 703 
Q 1334 388 1700 388 
Q 2069 388 2326 689 
Q 2584 991 2584 1609 
Q 2584 2291 2321 2609 
Q 2059 2928 1675 2928 
Q 1300 2928 1048 2622 
Q 797 2316 797 1656 
z
" transform="scale(0.015625)"/>
       <path id="ArialMT-20" transform="scale(0.015625)"/>
       <path id="ArialMT-4d" d="M 475 0 
L 475 4581 
L 1388 4581 
L 2472 1338 
Q 2622 884 2691 659 
Q 2769 909 2934 1394 
L 4031 4581 
L 4847 4581 
L 4847 0 
L 4263 0 
L 4263 3834 
L 2931 0 
L 2384 0 
L 1059 3900 
L 1059 0 
L 475 0 
z
" transform="scale(0.015625)"/>
       <path id="ArialMT-73" d="M 197 991 
L 753 1078 
Q 800 744 1014 566 
Q 1228 388 1613 388 
Q 2000 388 2187 545 
Q 2375 703 2375 916 
Q 2375 1106 2209 1216 
Q 2094 1291 1634 1406 
Q 1016 1563 777 1677 
Q 538 1791 414 1992 
Q 291 2194 291 2438 
Q 291 2659 392 2848 
Q 494 3038 669 3163 
Q 800 3259 1026 3326 
Q 1253 3394 1513 3394 
Q 1903 3394 2198 3281 
Q 2494 3169 2634 2976 
Q 2775 2784 2828 2463 
L 2278 2388 
Q 2241 2644 2061 2787 
Q 1881 2931 1553 2931 
Q 1166 2931 1000 2803 
Q 834 2675 834 2503 
Q 834 2394 903 2306 
Q 972 2216 1119 2156 
Q 1203 2125 1616 2013 
Q 2213 1853 2448 1751 
Q 2684 1650 2818 1456 
Q 2953 1263 2953 975 
Q 2953 694 2789 445 
Q 2625 197 2315 61 
Q 2006 -75 1616 -75 
Q 969 -75 630 194 
Q 291 463 197 991 
z
" transform="scale(0.015625)"/>
       <path id="ArialMT-6f" d="M 213 1659 
Q 213 2581 725 3025 
Q 1153 3394 1769 3394 
Q 2453 3394 2887 2945 
Q 3322 2497 3322 1706 
Q 3322 1066 3130 698 
Q 2938 331 2570 128 
Q 2203 -75 1769 -75 
Q 1072 -75 642 372 
Q 213 819 213 1659 
z
M 791 1659 
Q 791 1022 1069 705 
Q 1347 388 1769 388 
Q 2188 388 2466 706 
Q 2744 1025 2744 1678 
Q 2744 2294 2464 2611 
Q 2184 2928 1769 2928 
Q 1347 2928 1069 2612 
Q 791 2297 791 1659 
z
" transform="scale(0.015625)"/>
       <path id="ArialMT-66" d="M 556 0 
L 556 2881 
L 59 2881 
L 59 3319 
L 556 3319 
L 556 3672 
Q 556 4006 616 4169 
Q 697 4388 901 4523 
Q 1106 4659 1475 4659 
Q 1713 4659 2000 4603 
L 1916 4113 
Q 1741 4144 1584 4144 
Q 1328 4144 1222 4034 
Q 1116 3925 1116 3625 
L 1116 3319 
L 1763 3319 
L 1763 2881 
L 1116 2881 
L 1116 0 
L 556 0 
z
" transform="scale(0.015625)"/>
       <path id="ArialMT-76" d="M 1344 0 
L 81 3319 
L 675 3319 
L 1388 1331 
Q 1503 1009 1600 663 
Q 1675 925 1809 1294 
L 2547 3319 
L 3125 3319 
L 1869 0 
L 1344 0 
z
" transform="scale(0.015625)"/>
       <path id="ArialMT-6c" d="M 409 0 
L 409 4581 
L 972 4581 
L 972 0 
L 409 0 
z
" transform="scale(0.015625)"/>
       <path id="ArialMT-75" d="M 2597 0 
L 2597 488 
Q 2209 -75 1544 -75 
Q 1250 -75 995 37 
Q 741 150 617 320 
Q 494 491 444 738 
Q 409 903 409 1263 
L 409 3319 
L 972 3319 
L 972 1478 
Q 972 1038 1006 884 
Q 1059 663 1231 536 
Q 1403 409 1656 409 
Q 1909 409 2131 539 
Q 2353 669 2445 892 
Q 2538 1116 2538 1541 
L 2538 3319 
L 3100 3319 
L 3100 0 
L 2597 0 
z
" transform="scale(0.015625)"/>
       <path id="ArialMT-28" d="M 1497 -1347 
Q 1031 -759 709 28 
Q 388 816 388 1659 
Q 388 2403 628 3084 
Q 909 3875 1497 4659 
L 1900 4659 
Q 1522 4009 1400 3731 
Q 1209 3300 1100 2831 
Q 966 2247 966 1656 
Q 966 153 1900 -1347 
L 1497 -1347 
z
" transform="scale(0.015625)"/>
       <path id="ArialMT-29" d="M 791 -1347 
L 388 -1347 
Q 1322 153 1322 1656 
Q 1322 2244 1188 2822 
Q 1081 3291 891 3722 
Q 769 4003 388 4659 
L 791 4659 
Q 1378 3875 1659 3084 
Q 1900 2403 1900 1659 
Q 1900 816 1576 28 
Q 1253 -759 791 -1347 
z
" transform="scale(0.015625)"/>
      </defs>
      <use xlink:href="#ArialMT-54"/>
      <use xlink:href="#ArialMT-72" x="57.333984"/>
      <use xlink:href="#ArialMT-69" x="90.634766"/>
      <use xlink:href="#ArialMT-6d" x="112.851562"/>
      <use xlink:href="#ArialMT-6d" x="196.152344"/>
      <use xlink:href="#ArialMT-65" x="279.453125"/>
      <use xlink:href="#ArialMT-64" x="335.068359"/>
      <use xlink:href="#ArialMT-20" x="390.683594"/>
      <use xlink:href="#ArialMT-4d" x="418.466797"/>
      <use xlink:href="#ArialMT-65" x="501.767578"/>
      <use xlink:href="#ArialMT-61" x="557.382812"/>
      <use xlink:href="#ArialMT-6e" x="612.998047"/>
      <use xlink:href="#ArialMT-73" x="668.613281"/>
      <use xlink:href="#ArialMT-20" x="718.613281"/>
      <use xlink:href="#ArialMT-6f" x="746.396484"/>
      <use xlink:href="#ArialMT-66" x="802.011719"/>
      <use xlink:href="#ArialMT-20" x="829.794922"/>
      <use xlink:href="#ArialMT-4d" x="857.578125"/>
      <use xlink:href="#ArialMT-20" x="940.878906"/>
      <use xlink:href="#ArialMT-76" x="968.662109"/>
      <use xlink:href="#ArialMT-61" x="1018.662109"/>
      <use xlink:href="#ArialMT-6c" x="1074.277344"/>
      <use xlink:href="#ArialMT-75" x="1096.494141"/>
      <use xlink:href="#ArialMT-65" x="1152.109375"/>
      <use xlink:href="#ArialMT-73" x="1207.724609"/>
      <use xlink:href="#ArialMT-20" x="1257.724609"/>
      <use xlink:href="#ArialMT-28" x="1285.507812"/>
      <use xlink:href="#ArialMT-54" x="1318.808594"/>
      <use xlink:href="#ArialMT-4d" x="1379.892578"/>
      <use xlink:href="#ArialMT-4d" x="1463.193359"/>
      <use xlink:href="#ArialMT-29" x="1546.494141"/>
     </g>
    </g>
   </g>
   <g id="PolyCollection_1">
    <defs>
     <path id="m455b55d80e" d="M 85.156715 -99.050982 
L 74.039887 -99.050982 
L 73.823447 -99.721561 
L 73.604445 -100.39214 
L 73.382947 -101.062719 
L 73.159026 -101.733299 
L 72.932765 -102.403878 
L 72.70426 -103.074457 
L 72.473634 -103.745036 
L 72.241038 -104.415615 
L 72.006662 -105.086194 
L 71.770739 -105.756773 
L 71.533556 -106.427353 
L 71.295459 -107.097932 
L 71.056857 -107.768511 
L 70.818233 -108.43909 
L 70.580142 -109.109669 
L 70.343218 -109.780248 
L 70.108177 -110.450827 
L 69.875813 -111.121407 
L 69.647002 -111.791986 
L 69.422695 -112.462565 
L 69.203917 -113.133144 
L 68.991757 -113.803723 
L 68.787363 -114.474302 
L 68.59193 -115.144881 
L 68.40669 -115.815461 
L 68.232898 -116.48604 
L 68.071821 -117.156619 
L 67.924716 -117.827198 
L 67.792823 -118.497777 
L 67.67734 -119.168356 
L 67.57941 -119.838935 
L 67.500106 -120.509515 
L 67.44041 -121.180094 
L 67.4012 -121.850673 
L 67.383235 -122.521252 
L 67.387137 -123.191831 
L 67.413387 -123.86241 
L 67.462306 -124.532989 
L 67.53405 -125.203569 
L 67.628606 -125.874148 
L 67.745784 -126.544727 
L 67.885216 -127.215306 
L 68.046357 -127.885885 
L 68.228491 -128.556464 
L 68.43073 -129.227043 
L 68.652029 -129.897623 
L 68.89119 -130.568202 
L 69.146878 -131.238781 
L 69.417631 -131.90936 
L 69.701881 -132.579939 
L 69.997965 -133.250518 
L 70.304144 -133.921097 
L 70.618625 -134.591677 
L 70.939575 -135.262256 
L 71.265145 -135.932835 
L 71.593483 -136.603414 
L 71.922759 -137.273993 
L 72.251181 -137.944572 
L 72.577008 -138.615151 
L 72.898573 -139.285731 
L 73.214292 -139.95631 
L 73.522682 -140.626889 
L 73.822369 -141.297468 
L 74.1121 -141.968047 
L 74.390751 -142.638626 
L 74.657336 -143.309205 
L 74.911008 -143.979785 
L 75.151065 -144.650364 
L 75.37695 -145.320943 
L 75.588253 -145.991522 
L 75.784707 -146.662101 
L 75.966185 -147.33268 
L 76.132696 -148.003259 
L 76.28438 -148.673839 
L 76.421501 -149.344418 
L 76.544436 -150.014997 
L 76.65367 -150.685576 
L 76.749786 -151.356155 
L 76.833451 -152.026734 
L 76.905412 -152.697313 
L 76.96648 -153.367893 
L 77.017518 -154.038472 
L 77.059436 -154.709051 
L 77.093174 -155.37963 
L 77.119693 -156.050209 
L 77.139967 -156.720788 
L 77.154966 -157.391367 
L 77.165653 -158.061947 
L 77.17297 -158.732526 
L 77.17783 -159.403105 
L 77.181112 -160.073684 
L 77.183649 -160.744263 
L 77.186223 -161.414842 
L 77.189559 -162.085421 
L 77.194322 -162.756001 
L 77.20111 -163.42658 
L 77.21045 -164.097159 
L 77.222801 -164.767738 
L 77.238547 -165.438317 
L 81.958056 -165.438317 
L 81.958056 -165.438317 
L 81.973802 -164.767738 
L 81.986153 -164.097159 
L 81.995493 -163.42658 
L 82.002281 -162.756001 
L 82.007044 -162.085421 
L 82.01038 -161.414842 
L 82.012954 -160.744263 
L 82.01549 -160.073684 
L 82.018773 -159.403105 
L 82.023633 -158.732526 
L 82.03095 -158.061947 
L 82.041637 -157.391367 
L 82.056636 -156.720788 
L 82.076909 -156.050209 
L 82.103429 -155.37963 
L 82.137167 -154.709051 
L 82.179085 -154.038472 
L 82.230123 -153.367893 
L 82.291191 -152.697313 
L 82.363152 -152.026734 
L 82.446817 -151.356155 
L 82.542933 -150.685576 
L 82.652167 -150.014997 
L 82.775102 -149.344418 
L 82.912223 -148.673839 
L 83.063907 -148.003259 
L 83.230418 -147.33268 
L 83.411896 -146.662101 
L 83.60835 -145.991522 
L 83.819653 -145.320943 
L 84.045538 -144.650364 
L 84.285595 -143.979785 
L 84.539267 -143.309205 
L 84.805852 -142.638626 
L 85.084503 -141.968047 
L 85.374234 -141.297468 
L 85.673921 -140.626889 
L 85.98231 -139.95631 
L 86.29803 -139.285731 
L 86.619595 -138.615151 
L 86.945422 -137.944572 
L 87.273844 -137.273993 
L 87.60312 -136.603414 
L 87.931458 -135.932835 
L 88.257028 -135.262256 
L 88.577978 -134.591677 
L 88.892459 -133.921097 
L 89.198638 -133.250518 
L 89.494722 -132.579939 
L 89.778972 -131.90936 
L 90.049725 -131.238781 
L 90.305413 -130.568202 
L 90.544574 -129.897623 
L 90.765873 -129.227043 
L 90.968112 -128.556464 
L 91.150246 -127.885885 
L 91.311387 -127.215306 
L 91.450819 -126.544727 
L 91.567997 -125.874148 
L 91.662553 -125.203569 
L 91.734297 -124.532989 
L 91.783216 -123.86241 
L 91.809466 -123.191831 
L 91.813368 -122.521252 
L 91.795402 -121.850673 
L 91.756193 -121.180094 
L 91.696497 -120.509515 
L 91.617193 -119.838935 
L 91.519263 -119.168356 
L 91.40378 -118.497777 
L 91.271887 -117.827198 
L 91.124782 -117.156619 
L 90.963705 -116.48604 
L 90.789913 -115.815461 
L 90.604673 -115.144881 
L 90.40924 -114.474302 
L 90.204846 -113.803723 
L 89.992686 -113.133144 
L 89.773907 -112.462565 
L 89.549601 -111.791986 
L 89.32079 -111.121407 
L 89.088426 -110.450827 
L 88.853385 -109.780248 
L 88.616461 -109.109669 
L 88.37837 -108.43909 
L 88.139746 -107.768511 
L 87.901144 -107.097932 
L 87.663047 -106.427353 
L 87.425864 -105.756773 
L 87.189941 -105.086194 
L 86.955565 -104.415615 
L 86.722969 -103.745036 
L 86.492343 -103.074457 
L 86.263838 -102.403878 
L 86.037577 -101.733299 
L 85.813656 -101.062719 
L 85.592158 -100.39214 
L 85.373156 -99.721561 
L 85.156715 -99.050982 
z
" style="stroke: #999999; stroke-width: 2"/>
    </defs>
    <g clip-path="url(#p276c863c0d)">
     <use xlink:href="#m455b55d80e" x="0" y="255.11811" style="fill: #ffffff; stroke: #999999; stroke-width: 2"/>
    </g>
   </g>
   <g id="PolyCollection_2">
    <defs>
     <path id="m61bf79f1fc" d="M 155.162248 -111.945182 
L 133.54756 -111.945182 
L 133.263794 -112.160732 
L 132.982603 -112.376281 
L 132.704304 -112.591831 
L 132.429195 -112.80738 
L 132.157557 -113.022929 
L 131.889652 -113.238479 
L 131.625724 -113.454028 
L 131.365996 -113.669578 
L 131.11067 -113.885127 
L 130.859928 -114.100676 
L 130.613928 -114.316226 
L 130.372805 -114.531775 
L 130.136672 -114.747325 
L 129.905616 -114.962874 
L 129.6797 -115.178423 
L 129.458959 -115.393973 
L 129.243403 -115.609522 
L 129.033014 -115.825072 
L 128.827747 -116.040621 
L 128.627527 -116.25617 
L 128.432249 -116.47172 
L 128.241782 -116.687269 
L 128.055961 -116.902819 
L 127.874595 -117.118368 
L 127.697461 -117.333917 
L 127.524308 -117.549467 
L 127.354855 -117.765016 
L 127.188795 -117.980566 
L 127.025794 -118.196115 
L 126.865491 -118.411664 
L 126.707505 -118.627214 
L 126.551432 -118.842763 
L 126.39685 -119.058313 
L 126.243323 -119.273862 
L 126.090401 -119.489412 
L 125.937627 -119.704961 
L 125.784539 -119.92051 
L 125.630675 -120.13606 
L 125.475578 -120.351609 
L 125.318801 -120.567159 
L 125.15991 -120.782708 
L 124.998494 -120.998257 
L 124.834163 -121.213807 
L 124.666563 -121.429356 
L 124.495373 -121.644906 
L 124.320316 -121.860455 
L 124.141162 -122.076004 
L 123.957733 -122.291554 
L 123.769912 -122.507103 
L 123.577641 -122.722653 
L 123.380932 -122.938202 
L 123.179867 -123.153751 
L 122.974602 -123.369301 
L 122.765372 -123.58485 
L 122.552491 -123.8004 
L 122.336356 -124.015949 
L 122.117447 -124.231498 
L 121.896325 -124.447048 
L 121.673635 -124.662597 
L 121.450104 -124.878147 
L 121.226538 -125.093696 
L 121.00382 -125.309245 
L 120.782904 -125.524795 
L 120.564814 -125.740344 
L 120.350638 -125.955894 
L 120.141519 -126.171443 
L 119.938651 -126.386992 
L 119.743271 -126.602542 
L 119.55665 -126.818091 
L 119.380087 -127.033641 
L 119.214895 -127.24919 
L 119.062396 -127.464739 
L 118.923909 -127.680289 
L 118.80074 -127.895838 
L 118.694171 -128.111388 
L 118.605451 -128.326937 
L 118.535784 -128.542486 
L 118.486319 -128.758036 
L 118.458142 -128.973585 
L 118.452263 -129.189135 
L 118.469609 -129.404684 
L 118.511014 -129.620233 
L 118.577212 -129.835783 
L 118.668829 -130.051332 
L 118.786374 -130.266882 
L 118.93024 -130.482431 
L 119.10069 -130.69798 
L 119.297861 -130.91353 
L 119.521758 -131.129079 
L 119.772251 -131.344629 
L 120.049079 -131.560178 
L 120.351843 -131.775727 
L 120.680016 -131.991277 
L 121.032941 -132.206826 
L 121.409835 -132.422376 
L 121.809797 -132.637925 
L 122.231808 -132.853474 
L 122.674744 -133.069024 
L 123.137382 -133.284573 
L 165.572426 -133.284573 
L 165.572426 -133.284573 
L 166.035064 -133.069024 
L 166.478001 -132.853474 
L 166.900012 -132.637925 
L 167.299973 -132.422376 
L 167.676868 -132.206826 
L 168.029793 -131.991277 
L 168.357966 -131.775727 
L 168.66073 -131.560178 
L 168.937557 -131.344629 
L 169.188051 -131.129079 
L 169.411948 -130.91353 
L 169.609119 -130.69798 
L 169.779569 -130.482431 
L 169.923434 -130.266882 
L 170.04098 -130.051332 
L 170.132596 -129.835783 
L 170.198794 -129.620233 
L 170.2402 -129.404684 
L 170.257546 -129.189135 
L 170.251667 -128.973585 
L 170.22349 -128.758036 
L 170.174025 -128.542486 
L 170.104358 -128.326937 
L 170.015638 -128.111388 
L 169.909069 -127.895838 
L 169.7859 -127.680289 
L 169.647413 -127.464739 
L 169.494914 -127.24919 
L 169.329722 -127.033641 
L 169.153159 -126.818091 
L 168.966538 -126.602542 
L 168.771158 -126.386992 
L 168.56829 -126.171443 
L 168.359171 -125.955894 
L 168.144995 -125.740344 
L 167.926905 -125.524795 
L 167.705989 -125.309245 
L 167.483271 -125.093696 
L 167.259705 -124.878147 
L 167.036174 -124.662597 
L 166.813484 -124.447048 
L 166.592362 -124.231498 
L 166.373452 -124.015949 
L 166.157318 -123.8004 
L 165.944437 -123.58485 
L 165.735207 -123.369301 
L 165.529942 -123.153751 
L 165.328876 -122.938202 
L 165.132167 -122.722653 
L 164.939897 -122.507103 
L 164.752075 -122.291554 
L 164.568647 -122.076004 
L 164.389493 -121.860455 
L 164.214436 -121.644906 
L 164.043246 -121.429356 
L 163.875646 -121.213807 
L 163.711315 -120.998257 
L 163.549898 -120.782708 
L 163.391008 -120.567159 
L 163.23423 -120.351609 
L 163.079134 -120.13606 
L 162.92527 -119.92051 
L 162.772182 -119.704961 
L 162.619408 -119.489412 
L 162.466486 -119.273862 
L 162.312958 -119.058313 
L 162.158377 -118.842763 
L 162.002304 -118.627214 
L 161.844318 -118.411664 
L 161.684015 -118.196115 
L 161.521014 -117.980566 
L 161.354954 -117.765016 
L 161.185501 -117.549467 
L 161.012348 -117.333917 
L 160.835214 -117.118368 
L 160.653848 -116.902819 
L 160.468027 -116.687269 
L 160.27756 -116.47172 
L 160.082282 -116.25617 
L 159.882062 -116.040621 
L 159.676794 -115.825072 
L 159.466406 -115.609522 
L 159.25085 -115.393973 
L 159.030109 -115.178423 
L 158.804193 -114.962874 
L 158.573137 -114.747325 
L 158.337004 -114.531775 
L 158.095881 -114.316226 
L 157.849881 -114.100676 
L 157.599138 -113.885127 
L 157.343813 -113.669578 
L 157.084084 -113.454028 
L 156.820156 -113.238479 
L 156.552252 -113.022929 
L 156.280614 -112.80738 
L 156.005505 -112.591831 
L 155.727206 -112.376281 
L 155.446015 -112.160732 
L 155.162248 -111.945182 
z
" style="stroke: #999999; stroke-width: 2"/>
    </defs>
    <g clip-path="url(#p276c863c0d)">
     <use xlink:href="#m61bf79f1fc" x="0" y="255.11811" style="fill: #ffffff; stroke: #999999; stroke-width: 2"/>
    </g>
   </g>
   <g id="PolyCollection_3">
    <defs>
     <path id="m7da38a9a70" d="M 214.40437 -131.433779 
L 203.818644 -131.433779 
L 203.70912 -132.049335 
L 203.603853 -132.664891 
L 203.503052 -133.280447 
L 203.406897 -133.896004 
L 203.315544 -134.51156 
L 203.229115 -135.127116 
L 203.147703 -135.742672 
L 203.071368 -136.358228 
L 203.000138 -136.973784 
L 202.934008 -137.58934 
L 202.872939 -138.204896 
L 202.816862 -138.820452 
L 202.765671 -139.436008 
L 202.719234 -140.051564 
L 202.677385 -140.66712 
L 202.63993 -141.282676 
L 202.606648 -141.898232 
L 202.577294 -142.513788 
L 202.551598 -143.129344 
L 202.529271 -143.7449 
L 202.510006 -144.360456 
L 202.493479 -144.976012 
L 202.479356 -145.591568 
L 202.467291 -146.207124 
L 202.456936 -146.82268 
L 202.447935 -147.438236 
L 202.439936 -148.053792 
L 202.432588 -148.669348 
L 202.425548 -149.284904 
L 202.418481 -149.90046 
L 202.411066 -150.516016 
L 202.402995 -151.131572 
L 202.393979 -151.747128 
L 202.38375 -152.362684 
L 202.372061 -152.97824 
L 202.35869 -153.593796 
L 202.34344 -154.209352 
L 202.326145 -154.824908 
L 202.306664 -155.440464 
L 202.284889 -156.05602 
L 202.260741 -156.671576 
L 202.234173 -157.287132 
L 202.205169 -157.902688 
L 202.173745 -158.518244 
L 202.139947 -159.1338 
L 202.103852 -159.749356 
L 202.065566 -160.364912 
L 202.025225 -160.980468 
L 201.98299 -161.596024 
L 201.939051 -162.21158 
L 201.893618 -162.827136 
L 201.846929 -163.442692 
L 201.799238 -164.058248 
L 201.750821 -164.673804 
L 201.70197 -165.28936 
L 201.652991 -165.904916 
L 201.604202 -166.520472 
L 201.555933 -167.136028 
L 201.508521 -167.751584 
L 201.46231 -168.36714 
L 201.417645 -168.982696 
L 201.374876 -169.598252 
L 201.334349 -170.213808 
L 201.29641 -170.829364 
L 201.261399 -171.44492 
L 201.229649 -172.060476 
L 201.201484 -172.676032 
L 201.177219 -173.291588 
L 201.157156 -173.907144 
L 201.141583 -174.5227 
L 201.130772 -175.138256 
L 201.12498 -175.753812 
L 201.124445 -176.369368 
L 201.129386 -176.984924 
L 201.140001 -177.60048 
L 201.156466 -178.216036 
L 201.178937 -178.831592 
L 201.207544 -179.447148 
L 201.242396 -180.062704 
L 201.283575 -180.67826 
L 201.331141 -181.293816 
L 201.385127 -181.909372 
L 201.445541 -182.524928 
L 201.512366 -183.140484 
L 201.58556 -183.75604 
L 201.665055 -184.371597 
L 201.75076 -184.987153 
L 201.842557 -185.602709 
L 201.940307 -186.218265 
L 202.043845 -186.833821 
L 202.152985 -187.449377 
L 202.267521 -188.064933 
L 202.387223 -188.680489 
L 202.511845 -189.296045 
L 202.641122 -189.911601 
L 202.774771 -190.527157 
L 202.912494 -191.142713 
L 203.053981 -191.758269 
L 203.198907 -192.373825 
L 215.024108 -192.373825 
L 215.024108 -192.373825 
L 215.169034 -191.758269 
L 215.31052 -191.142713 
L 215.448244 -190.527157 
L 215.581893 -189.911601 
L 215.711169 -189.296045 
L 215.835791 -188.680489 
L 215.955494 -188.064933 
L 216.07003 -187.449377 
L 216.17917 -186.833821 
L 216.282708 -186.218265 
L 216.380457 -185.602709 
L 216.472255 -184.987153 
L 216.557959 -184.371597 
L 216.637455 -183.75604 
L 216.710649 -183.140484 
L 216.777474 -182.524928 
L 216.837888 -181.909372 
L 216.891874 -181.293816 
L 216.939439 -180.67826 
L 216.980619 -180.062704 
L 217.015471 -179.447148 
L 217.044078 -178.831592 
L 217.066549 -178.216036 
L 217.083014 -177.60048 
L 217.093629 -176.984924 
L 217.098569 -176.369368 
L 217.098034 -175.753812 
L 217.092243 -175.138256 
L 217.081432 -174.5227 
L 217.065859 -173.907144 
L 217.045795 -173.291588 
L 217.02153 -172.676032 
L 216.993366 -172.060476 
L 216.961615 -171.44492 
L 216.926604 -170.829364 
L 216.888665 -170.213808 
L 216.848139 -169.598252 
L 216.80537 -168.982696 
L 216.760705 -168.36714 
L 216.714493 -167.751584 
L 216.667082 -167.136028 
L 216.618813 -166.520472 
L 216.570024 -165.904916 
L 216.521044 -165.28936 
L 216.472193 -164.673804 
L 216.423776 -164.058248 
L 216.376086 -163.442692 
L 216.329396 -162.827136 
L 216.283964 -162.21158 
L 216.240024 -161.596024 
L 216.19779 -160.980468 
L 216.157448 -160.364912 
L 216.119162 -159.749356 
L 216.083067 -159.1338 
L 216.049269 -158.518244 
L 216.017845 -157.902688 
L 215.988842 -157.287132 
L 215.962274 -156.671576 
L 215.938126 -156.05602 
L 215.91635 -155.440464 
L 215.89687 -154.824908 
L 215.879574 -154.209352 
L 215.864325 -153.593796 
L 215.850953 -152.97824 
L 215.839264 -152.362684 
L 215.829035 -151.747128 
L 215.82002 -151.131572 
L 215.811949 -150.516016 
L 215.804534 -149.90046 
L 215.797467 -149.284904 
L 215.790427 -148.669348 
L 215.783079 -148.053792 
L 215.77508 -147.438236 
L 215.766079 -146.82268 
L 215.755723 -146.207124 
L 215.743659 -145.591568 
L 215.729536 -144.976012 
L 215.713009 -144.360456 
L 215.693743 -143.7449 
L 215.671416 -143.129344 
L 215.645721 -142.513788 
L 215.616367 -141.898232 
L 215.583085 -141.282676 
L 215.54563 -140.66712 
L 215.503781 -140.051564 
L 215.457343 -139.436008 
L 215.406153 -138.820452 
L 215.350075 -138.204896 
L 215.289007 -137.58934 
L 215.222877 -136.973784 
L 215.151647 -136.358228 
L 215.075312 -135.742672 
L 214.9939 -135.127116 
L 214.907471 -134.51156 
L 214.816117 -133.896004 
L 214.719963 -133.280447 
L 214.619161 -132.664891 
L 214.513894 -132.049335 
L 214.40437 -131.433779 
z
" style="stroke: #999999; stroke-width: 2"/>
    </defs>
    <g clip-path="url(#p276c863c0d)">
     <use xlink:href="#m7da38a9a70" x="0" y="255.11811" style="fill: #ffffff; stroke: #999999; stroke-width: 2"/>
    </g>
   </g>
   <g id="PolyCollection_4">
    <defs>
     <path id="m7da2d9dbbc" d="M 278.476997 -123.459096 
L 269.259223 -123.459096 
L 269.103713 -123.840499 
L 268.943546 -124.221903 
L 268.77807 -124.603306 
L 268.606613 -124.984709 
L 268.428489 -125.366113 
L 268.24301 -125.747516 
L 268.049507 -126.12892 
L 267.847333 -126.510323 
L 267.635886 -126.891727 
L 267.414617 -127.27313 
L 267.183047 -127.654534 
L 266.940777 -128.035937 
L 266.687505 -128.41734 
L 266.423035 -128.798744 
L 266.147284 -129.180147 
L 265.860298 -129.561551 
L 265.56225 -129.942954 
L 265.253452 -130.324358 
L 264.934355 -130.705761 
L 264.605551 -131.087165 
L 264.267768 -131.468568 
L 263.921873 -131.849972 
L 263.568861 -132.231375 
L 263.209848 -132.612778 
L 262.846065 -132.994182 
L 262.478842 -133.375585 
L 262.109599 -133.756989 
L 261.739828 -134.138392 
L 261.371079 -134.519796 
L 261.004946 -134.901199 
L 260.643046 -135.282603 
L 260.287004 -135.664006 
L 259.938436 -136.045409 
L 259.59893 -136.426813 
L 259.270031 -136.808216 
L 258.953226 -137.18962 
L 258.649926 -137.571023 
L 258.361453 -137.952427 
L 258.089032 -138.33383 
L 257.833773 -138.715234 
L 257.596667 -139.096637 
L 257.378575 -139.47804 
L 257.180224 -139.859444 
L 257.002201 -140.240847 
L 256.844951 -140.622251 
L 256.708776 -141.003654 
L 256.593834 -141.385058 
L 256.500145 -141.766461 
L 256.427589 -142.147865 
L 256.375915 -142.529268 
L 256.344746 -142.910671 
L 256.333586 -143.292075 
L 256.341826 -143.673478 
L 256.368758 -144.054882 
L 256.413579 -144.436285 
L 256.475409 -144.817689 
L 256.553292 -145.199092 
L 256.646216 -145.580496 
L 256.753122 -145.961899 
L 256.872916 -146.343302 
L 257.004477 -146.724706 
L 257.146678 -147.106109 
L 257.298391 -147.487513 
L 257.458498 -147.868916 
L 257.625909 -148.25032 
L 257.799568 -148.631723 
L 257.978463 -149.013127 
L 258.161641 -149.39453 
L 258.34821 -149.775933 
L 258.537355 -150.157337 
L 258.728339 -150.53874 
L 258.920512 -150.920144 
L 259.113315 -151.301547 
L 259.306288 -151.682951 
L 259.499066 -152.064354 
L 259.691383 -152.445758 
L 259.883076 -152.827161 
L 260.074076 -153.208565 
L 260.264409 -153.589968 
L 260.454192 -153.971371 
L 260.643623 -154.352775 
L 260.83298 -154.734178 
L 261.022608 -155.115582 
L 261.212908 -155.496985 
L 261.404331 -155.878389 
L 261.597367 -156.259792 
L 261.792526 -156.641196 
L 261.990334 -157.022599 
L 262.191316 -157.404002 
L 262.395985 -157.785406 
L 262.604828 -158.166809 
L 262.818299 -158.548213 
L 263.036802 -158.929616 
L 263.260684 -159.31102 
L 263.490227 -159.692423 
L 263.725635 -160.073827 
L 263.967036 -160.45523 
L 264.214469 -160.836633 
L 264.467884 -161.218037 
L 283.268336 -161.218037 
L 283.268336 -161.218037 
L 283.521751 -160.836633 
L 283.769184 -160.45523 
L 284.010585 -160.073827 
L 284.245994 -159.692423 
L 284.475536 -159.31102 
L 284.699418 -158.929616 
L 284.917921 -158.548213 
L 285.131392 -158.166809 
L 285.340236 -157.785406 
L 285.544905 -157.404002 
L 285.745887 -157.022599 
L 285.943695 -156.641196 
L 286.138854 -156.259792 
L 286.331889 -155.878389 
L 286.523313 -155.496985 
L 286.713613 -155.115582 
L 286.90324 -154.734178 
L 287.092597 -154.352775 
L 287.282029 -153.971371 
L 287.471811 -153.589968 
L 287.662144 -153.208565 
L 287.853144 -152.827161 
L 288.044837 -152.445758 
L 288.237155 -152.064354 
L 288.429932 -151.682951 
L 288.622905 -151.301547 
L 288.815709 -150.920144 
L 289.007881 -150.53874 
L 289.198865 -150.157337 
L 289.38801 -149.775933 
L 289.57458 -149.39453 
L 289.757757 -149.013127 
L 289.936653 -148.631723 
L 290.110311 -148.25032 
L 290.277723 -147.868916 
L 290.43783 -147.487513 
L 290.589542 -147.106109 
L 290.731743 -146.724706 
L 290.863305 -146.343302 
L 290.983098 -145.961899 
L 291.090004 -145.580496 
L 291.182929 -145.199092 
L 291.260812 -144.817689 
L 291.322641 -144.436285 
L 291.367463 -144.054882 
L 291.394395 -143.673478 
L 291.402635 -143.292075 
L 291.391474 -142.910671 
L 291.360305 -142.529268 
L 291.308632 -142.147865 
L 291.236076 -141.766461 
L 291.142386 -141.385058 
L 291.027445 -141.003654 
L 290.891269 -140.622251 
L 290.734019 -140.240847 
L 290.555996 -139.859444 
L 290.357645 -139.47804 
L 290.139553 -139.096637 
L 289.902447 -138.715234 
L 289.647188 -138.33383 
L 289.374767 -137.952427 
L 289.086295 -137.571023 
L 288.782994 -137.18962 
L 288.466189 -136.808216 
L 288.137291 -136.426813 
L 287.797785 -136.045409 
L 287.449217 -135.664006 
L 287.093175 -135.282603 
L 286.731275 -134.901199 
L 286.365142 -134.519796 
L 285.996393 -134.138392 
L 285.626622 -133.756989 
L 285.257378 -133.375585 
L 284.890156 -132.994182 
L 284.526372 -132.612778 
L 284.16736 -132.231375 
L 283.814347 -131.849972 
L 283.468452 -131.468568 
L 283.13067 -131.087165 
L 282.801865 -130.705761 
L 282.482769 -130.324358 
L 282.173971 -129.942954 
L 281.875923 -129.561551 
L 281.588936 -129.180147 
L 281.313186 -128.798744 
L 281.048715 -128.41734 
L 280.795444 -128.035937 
L 280.553174 -127.654534 
L 280.321603 -127.27313 
L 280.100334 -126.891727 
L 279.888887 -126.510323 
L 279.686714 -126.12892 
L 279.49321 -125.747516 
L 279.307732 -125.366113 
L 279.129607 -124.984709 
L 278.95815 -124.603306 
L 278.792675 -124.221903 
L 278.632508 -123.840499 
L 278.476997 -123.459096 
z
" style="stroke: #999999; stroke-width: 2"/>
    </defs>
    <g clip-path="url(#p276c863c0d)">
     <use xlink:href="#m7da2d9dbbc" x="0" y="255.11811" style="fill: #ffffff; stroke: #999999; stroke-width: 2"/>
    </g>
   </g>
   <g id="PolyCollection_5">
    <defs>
     <path id="ma89d2134e6" d="M 350.331846 -49.837187 
L 326.91758 -49.837187 
L 326.716456 -50.165072 
L 326.522764 -50.492958 
L 326.336786 -50.820844 
L 326.158771 -51.14873 
L 325.988938 -51.476615 
L 325.827471 -51.804501 
L 325.674522 -52.132387 
L 325.530211 -52.460272 
L 325.394622 -52.788158 
L 325.267807 -53.116044 
L 325.149785 -53.443929 
L 325.040542 -53.771815 
L 324.940033 -54.099701 
L 324.848182 -54.427586 
L 324.764883 -54.755472 
L 324.690003 -55.083358 
L 324.62338 -55.411243 
L 324.564831 -55.739129 
L 324.514145 -56.067015 
L 324.471093 -56.3949 
L 324.435426 -56.722786 
L 324.406876 -57.050672 
L 324.385163 -57.378557 
L 324.369991 -57.706443 
L 324.361054 -58.034329 
L 324.35804 -58.362214 
L 324.360626 -58.6901 
L 324.36849 -59.017986 
L 324.381303 -59.345871 
L 324.398741 -59.673757 
L 324.420478 -60.001643 
L 324.446194 -60.329528 
L 324.475575 -60.657414 
L 324.508315 -60.9853 
L 324.544116 -61.313185 
L 324.582692 -61.641071 
L 324.623767 -61.968957 
L 324.667083 -62.296842 
L 324.712391 -62.624728 
L 324.759462 -62.952614 
L 324.808081 -63.280499 
L 324.858052 -63.608385 
L 324.909195 -63.936271 
L 324.961349 -64.264156 
L 325.014371 -64.592042 
L 325.068137 -64.919928 
L 325.122543 -65.247813 
L 325.177502 -65.575699 
L 325.232946 -65.903585 
L 325.288824 -66.23147 
L 325.345107 -66.559356 
L 325.401778 -66.887242 
L 325.458841 -67.215127 
L 325.516314 -67.543013 
L 325.574232 -67.870899 
L 325.632643 -68.198784 
L 325.691611 -68.52667 
L 325.751211 -68.854556 
L 325.811531 -69.182441 
L 325.872672 -69.510327 
L 325.934742 -69.838213 
L 325.99786 -70.166098 
L 326.062152 -70.493984 
L 326.127752 -70.82187 
L 326.1948 -71.149755 
L 326.263439 -71.477641 
L 326.333819 -71.805527 
L 326.406089 -72.133412 
L 326.480401 -72.461298 
L 326.556908 -72.789184 
L 326.635762 -73.117069 
L 326.717113 -73.444955 
L 326.801108 -73.772841 
L 326.887889 -74.100726 
L 326.977596 -74.428612 
L 327.070361 -74.756498 
L 327.166309 -75.084383 
L 327.265558 -75.412269 
L 327.368217 -75.740155 
L 327.474385 -76.06804 
L 327.584151 -76.395926 
L 327.697593 -76.723812 
L 327.814778 -77.051697 
L 327.935757 -77.379583 
L 328.060572 -77.707469 
L 328.189249 -78.035354 
L 328.321801 -78.36324 
L 328.458224 -78.691126 
L 328.598502 -79.019011 
L 328.742603 -79.346897 
L 328.890477 -79.674783 
L 329.042063 -80.002668 
L 329.197282 -80.330554 
L 329.356038 -80.65844 
L 329.518223 -80.986325 
L 329.683712 -81.314211 
L 329.852366 -81.642097 
L 330.024031 -81.969982 
L 330.198541 -82.297868 
L 347.050886 -82.297868 
L 347.050886 -82.297868 
L 347.225395 -81.969982 
L 347.39706 -81.642097 
L 347.565714 -81.314211 
L 347.731203 -80.986325 
L 347.893388 -80.65844 
L 348.052145 -80.330554 
L 348.207363 -80.002668 
L 348.358949 -79.674783 
L 348.506824 -79.346897 
L 348.650924 -79.019011 
L 348.791202 -78.691126 
L 348.927626 -78.36324 
L 349.060177 -78.035354 
L 349.188854 -77.707469 
L 349.313669 -77.379583 
L 349.434649 -77.051697 
L 349.551833 -76.723812 
L 349.665275 -76.395926 
L 349.775042 -76.06804 
L 349.88121 -75.740155 
L 349.983868 -75.412269 
L 350.083117 -75.084383 
L 350.179065 -74.756498 
L 350.27183 -74.428612 
L 350.361537 -74.100726 
L 350.448319 -73.772841 
L 350.532313 -73.444955 
L 350.613664 -73.117069 
L 350.692518 -72.789184 
L 350.769025 -72.461298 
L 350.843338 -72.133412 
L 350.915608 -71.805527 
L 350.985987 -71.477641 
L 351.054627 -71.149755 
L 351.121674 -70.82187 
L 351.187275 -70.493984 
L 351.251567 -70.166098 
L 351.314684 -69.838213 
L 351.376754 -69.510327 
L 351.437895 -69.182441 
L 351.498216 -68.854556 
L 351.557816 -68.52667 
L 351.616783 -68.198784 
L 351.675195 -67.870899 
L 351.733112 -67.543013 
L 351.790585 -67.215127 
L 351.847648 -66.887242 
L 351.90432 -66.559356 
L 351.960602 -66.23147 
L 352.016481 -65.903585 
L 352.071924 -65.575699 
L 352.126883 -65.247813 
L 352.181289 -64.919928 
L 352.235055 -64.592042 
L 352.288078 -64.264156 
L 352.340231 -63.936271 
L 352.391374 -63.608385 
L 352.441345 -63.280499 
L 352.489964 -62.952614 
L 352.537035 -62.624728 
L 352.582344 -62.296842 
L 352.625659 -61.968957 
L 352.666735 -61.641071 
L 352.70531 -61.313185 
L 352.741111 -60.9853 
L 352.773851 -60.657414 
L 352.803232 -60.329528 
L 352.828949 -60.001643 
L 352.850686 -59.673757 
L 352.868123 -59.345871 
L 352.880937 -59.017986 
L 352.8888 -58.6901 
L 352.891387 -58.362214 
L 352.888372 -58.034329 
L 352.879435 -57.706443 
L 352.864263 -57.378557 
L 352.84255 -57.050672 
L 352.814 -56.722786 
L 352.778333 -56.3949 
L 352.735281 -56.067015 
L 352.684596 -55.739129 
L 352.626046 -55.411243 
L 352.559424 -55.083358 
L 352.484543 -54.755472 
L 352.401244 -54.427586 
L 352.309393 -54.099701 
L 352.208884 -53.771815 
L 352.099641 -53.443929 
L 351.981619 -53.116044 
L 351.854804 -52.788158 
L 351.719215 -52.460272 
L 351.574904 -52.132387 
L 351.421956 -51.804501 
L 351.260489 -51.476615 
L 351.090655 -51.14873 
L 350.91264 -50.820844 
L 350.726662 -50.492958 
L 350.532971 -50.165072 
L 350.331846 -49.837187 
z
" style="stroke: #999999; stroke-width: 2"/>
    </defs>
    <g clip-path="url(#p276c863c0d)">
     <use xlink:href="#ma89d2134e6" x="0" y="255.11811" style="fill: #ffffff; stroke: #999999; stroke-width: 2"/>
    </g>
   </g>
   <g id="PolyCollection_6">
    <defs>
     <path id="m9b3e65d19c" d="M 408.035054 -136.610584 
L 398.727579 -136.610584 
L 398.651572 -137.474931 
L 398.580015 -138.339278 
L 398.513075 -139.203624 
L 398.450894 -140.067971 
L 398.393593 -140.932318 
L 398.341268 -141.796665 
L 398.29399 -142.661012 
L 398.251804 -143.525359 
L 398.21473 -144.389706 
L 398.18276 -145.254052 
L 398.155862 -146.118399 
L 398.133974 -146.982746 
L 398.117012 -147.847093 
L 398.104865 -148.71144 
L 398.097397 -149.575787 
L 398.094448 -150.440134 
L 398.095838 -151.304481 
L 398.101363 -152.168827 
L 398.110801 -153.033174 
L 398.123911 -153.897521 
L 398.140436 -154.761868 
L 398.160106 -155.626215 
L 398.182637 -156.490562 
L 398.207735 -157.354909 
L 398.235099 -158.219255 
L 398.264421 -159.083602 
L 398.295389 -159.947949 
L 398.327691 -160.812296 
L 398.361016 -161.676643 
L 398.395055 -162.54099 
L 398.429505 -163.405337 
L 398.464071 -164.269684 
L 398.498467 -165.13403 
L 398.532418 -165.998377 
L 398.565663 -166.862724 
L 398.597956 -167.727071 
L 398.629069 -168.591418 
L 398.658789 -169.455765 
L 398.686925 -170.320112 
L 398.713305 -171.184458 
L 398.737779 -172.048805 
L 398.76022 -172.913152 
L 398.78052 -173.777499 
L 398.798599 -174.641846 
L 398.814396 -175.506193 
L 398.827877 -176.37054 
L 398.839026 -177.234886 
L 398.847856 -178.099233 
L 398.854396 -178.96358 
L 398.858701 -179.827927 
L 398.860845 -180.692274 
L 398.860923 -181.556621 
L 398.859046 -182.420968 
L 398.855346 -183.285315 
L 398.84997 -184.149661 
L 398.843079 -185.014008 
L 398.834849 -185.878355 
L 398.825468 -186.742702 
L 398.815134 -187.607049 
L 398.804054 -188.471396 
L 398.792443 -189.335743 
L 398.780523 -190.200089 
L 398.768517 -191.064436 
L 398.756654 -191.928783 
L 398.745163 -192.79313 
L 398.734271 -193.657477 
L 398.724207 -194.521824 
L 398.715194 -195.386171 
L 398.707451 -196.250517 
L 398.701192 -197.114864 
L 398.696622 -197.979211 
L 398.693939 -198.843558 
L 398.693334 -199.707905 
L 398.694984 -200.572252 
L 398.699056 -201.436599 
L 398.705707 -202.300946 
L 398.71508 -203.165292 
L 398.727303 -204.029639 
L 398.742494 -204.893986 
L 398.760754 -205.758333 
L 398.782169 -206.62268 
L 398.806812 -207.487027 
L 398.834741 -208.351374 
L 398.865996 -209.21572 
L 398.900605 -210.080067 
L 398.938578 -210.944414 
L 398.979913 -211.808761 
L 399.02459 -212.673108 
L 399.072578 -213.537455 
L 399.123827 -214.401802 
L 399.178278 -215.266148 
L 399.235856 -216.130495 
L 399.296473 -216.994842 
L 399.36003 -217.859189 
L 399.426415 -218.723536 
L 399.495506 -219.587883 
L 399.567171 -220.45223 
L 399.641267 -221.316577 
L 399.717645 -222.180923 
L 407.044988 -222.180923 
L 407.044988 -222.180923 
L 407.121365 -221.316577 
L 407.195462 -220.45223 
L 407.267126 -219.587883 
L 407.336218 -218.723536 
L 407.402603 -217.859189 
L 407.466159 -216.994842 
L 407.526776 -216.130495 
L 407.584354 -215.266148 
L 407.638805 -214.401802 
L 407.690055 -213.537455 
L 407.738042 -212.673108 
L 407.782719 -211.808761 
L 407.824054 -210.944414 
L 407.862028 -210.080067 
L 407.896636 -209.21572 
L 407.927891 -208.351374 
L 407.95582 -207.487027 
L 407.980463 -206.62268 
L 408.001878 -205.758333 
L 408.020138 -204.893986 
L 408.035329 -204.029639 
L 408.047552 -203.165292 
L 408.056925 -202.300946 
L 408.063576 -201.436599 
L 408.067649 -200.572252 
L 408.069298 -199.707905 
L 408.068693 -198.843558 
L 408.066011 -197.979211 
L 408.06144 -197.114864 
L 408.055181 -196.250517 
L 408.047438 -195.386171 
L 408.038425 -194.521824 
L 408.028361 -193.657477 
L 408.01747 -192.79313 
L 408.005978 -191.928783 
L 407.994115 -191.064436 
L 407.982109 -190.200089 
L 407.970189 -189.335743 
L 407.958578 -188.471396 
L 407.947498 -187.607049 
L 407.937164 -186.742702 
L 407.927783 -185.878355 
L 407.919553 -185.014008 
L 407.912662 -184.149661 
L 407.907286 -183.285315 
L 407.903586 -182.420968 
L 407.901709 -181.556621 
L 407.901787 -180.692274 
L 407.903931 -179.827927 
L 407.908236 -178.96358 
L 407.914777 -178.099233 
L 407.923606 -177.234886 
L 407.934756 -176.37054 
L 407.948236 -175.506193 
L 407.964033 -174.641846 
L 407.982112 -173.777499 
L 408.002413 -172.913152 
L 408.024853 -172.048805 
L 408.049327 -171.184458 
L 408.075707 -170.320112 
L 408.103843 -169.455765 
L 408.133563 -168.591418 
L 408.164676 -167.727071 
L 408.196969 -166.862724 
L 408.230215 -165.998377 
L 408.264166 -165.13403 
L 408.298561 -164.269684 
L 408.333127 -163.405337 
L 408.367577 -162.54099 
L 408.401616 -161.676643 
L 408.434941 -160.812296 
L 408.467243 -159.947949 
L 408.498212 -159.083602 
L 408.527533 -158.219255 
L 408.554897 -157.354909 
L 408.579995 -156.490562 
L 408.602526 -155.626215 
L 408.622196 -154.761868 
L 408.638722 -153.897521 
L 408.651832 -153.033174 
L 408.661269 -152.168827 
L 408.666794 -151.304481 
L 408.668184 -150.440134 
L 408.665235 -149.575787 
L 408.657767 -148.71144 
L 408.64562 -147.847093 
L 408.628658 -146.982746 
L 408.606771 -146.118399 
L 408.579872 -145.254052 
L 408.547902 -144.389706 
L 408.510828 -143.525359 
L 408.468643 -142.661012 
L 408.421364 -141.796665 
L 408.369039 -140.932318 
L 408.311738 -140.067971 
L 408.249557 -139.203624 
L 408.182617 -138.339278 
L 408.11106 -137.474931 
L 408.035054 -136.610584 
z
" style="stroke: #999999; stroke-width: 2"/>
    </defs>
    <g clip-path="url(#p276c863c0d)">
     <use xlink:href="#m9b3e65d19c" x="0" y="255.11811" style="fill: #ffffff; stroke: #999999; stroke-width: 2"/>
    </g>
   </g>
   <g id="PolyCollection_7">
    <defs>
     <path id="m71c98e2c67" d="M 474.73053 -108.160611 
L 461.545308 -108.160611 
L 461.430184 -108.832385 
L 461.320952 -109.50416 
L 461.217644 -110.175935 
L 461.120245 -110.84771 
L 461.028697 -111.519485 
L 460.942898 -112.19126 
L 460.862707 -112.863035 
L 460.787946 -113.53481 
L 460.718404 -114.206584 
L 460.65384 -114.878359 
L 460.593987 -115.550134 
L 460.538559 -116.221909 
L 460.487252 -116.893684 
L 460.439755 -117.565459 
L 460.395748 -118.237234 
L 460.354915 -118.909009 
L 460.316941 -119.580783 
L 460.281524 -120.252558 
L 460.248379 -120.924333 
L 460.217237 -121.596108 
L 460.187857 -122.267883 
L 460.160025 -122.939658 
L 460.133559 -123.611433 
L 460.108313 -124.283208 
L 460.084177 -124.954982 
L 460.061081 -125.626757 
L 460.038994 -126.298532 
L 460.017927 -126.970307 
L 459.997932 -127.642082 
L 459.9791 -128.313857 
L 459.961561 -128.985632 
L 459.94548 -129.657407 
L 459.931059 -130.329181 
L 459.918528 -131.000956 
L 459.908144 -131.672731 
L 459.900189 -132.344506 
L 459.89496 -133.016281 
L 459.892773 -133.688056 
L 459.893947 -134.359831 
L 459.898809 -135.031606 
L 459.907681 -135.70338 
L 459.92088 -136.375155 
L 459.938711 -137.04693 
L 459.961461 -137.718705 
L 459.989396 -138.39048 
L 460.022755 -139.062255 
L 460.061747 -139.73403 
L 460.106545 -140.405805 
L 460.157289 -141.077579 
L 460.214073 -141.749354 
L 460.276953 -142.421129 
L 460.34594 -143.092904 
L 460.420999 -143.764679 
L 460.502051 -144.436454 
L 460.588972 -145.108229 
L 460.681591 -145.780004 
L 460.779699 -146.451778 
L 460.883041 -147.123553 
L 460.991328 -147.795328 
L 461.104232 -148.467103 
L 461.221396 -149.138878 
L 461.342433 -149.810653 
L 461.466933 -150.482428 
L 461.594465 -151.154203 
L 461.724584 -151.825977 
L 461.856836 -152.497752 
L 461.990759 -153.169527 
L 462.125893 -153.841302 
L 462.26178 -154.513077 
L 462.397972 -155.184852 
L 462.534033 -155.856627 
L 462.669547 -156.528402 
L 462.804117 -157.200176 
L 462.93737 -157.871951 
L 463.068963 -158.543726 
L 463.198583 -159.215501 
L 463.32595 -159.887276 
L 463.450816 -160.559051 
L 463.572972 -161.230826 
L 463.692245 -161.902601 
L 463.808498 -162.574375 
L 463.92163 -163.24615 
L 464.031578 -163.917925 
L 464.138312 -164.5897 
L 464.241836 -165.261475 
L 464.342185 -165.93325 
L 464.439425 -166.605025 
L 464.533647 -167.2768 
L 464.624964 -167.948574 
L 464.713513 -168.620349 
L 464.799448 -169.292124 
L 464.882935 -169.963899 
L 464.964154 -170.635674 
L 465.043291 -171.307449 
L 465.120537 -171.979224 
L 465.196083 -172.650999 
L 465.270121 -173.322773 
L 465.342837 -173.994548 
L 465.414408 -174.666323 
L 470.86143 -174.666323 
L 470.86143 -174.666323 
L 470.933001 -173.994548 
L 471.005717 -173.322773 
L 471.079755 -172.650999 
L 471.155301 -171.979224 
L 471.232547 -171.307449 
L 471.311684 -170.635674 
L 471.392903 -169.963899 
L 471.47639 -169.292124 
L 471.562325 -168.620349 
L 471.650874 -167.948574 
L 471.742191 -167.2768 
L 471.836413 -166.605025 
L 471.933653 -165.93325 
L 472.034002 -165.261475 
L 472.137526 -164.5897 
L 472.24426 -163.917925 
L 472.354208 -163.24615 
L 472.46734 -162.574375 
L 472.583593 -161.902601 
L 472.702866 -161.230826 
L 472.825022 -160.559051 
L 472.949888 -159.887276 
L 473.077255 -159.215501 
L 473.206875 -158.543726 
L 473.338468 -157.871951 
L 473.471721 -157.200176 
L 473.606291 -156.528402 
L 473.741805 -155.856627 
L 473.877866 -155.184852 
L 474.014058 -154.513077 
L 474.149945 -153.841302 
L 474.285079 -153.169527 
L 474.419002 -152.497752 
L 474.551254 -151.825977 
L 474.681373 -151.154203 
L 474.808905 -150.482428 
L 474.933405 -149.810653 
L 475.054442 -149.138878 
L 475.171606 -148.467103 
L 475.28451 -147.795328 
L 475.392797 -147.123553 
L 475.496139 -146.451778 
L 475.594247 -145.780004 
L 475.686866 -145.108229 
L 475.773787 -144.436454 
L 475.854839 -143.764679 
L 475.929898 -143.092904 
L 475.998885 -142.421129 
L 476.061765 -141.749354 
L 476.118549 -141.077579 
L 476.169293 -140.405805 
L 476.214091 -139.73403 
L 476.253083 -139.062255 
L 476.286442 -138.39048 
L 476.314377 -137.718705 
L 476.337127 -137.04693 
L 476.354958 -136.375155 
L 476.368157 -135.70338 
L 476.377029 -135.031606 
L 476.381891 -134.359831 
L 476.383065 -133.688056 
L 476.380878 -133.016281 
L 476.375649 -132.344506 
L 476.367694 -131.672731 
L 476.35731 -131.000956 
L 476.344779 -130.329181 
L 476.330358 -129.657407 
L 476.314277 -128.985632 
L 476.296738 -128.313857 
L 476.277906 -127.642082 
L 476.257911 -126.970307 
L 476.236844 -126.298532 
L 476.214757 -125.626757 
L 476.191661 -124.954982 
L 476.167525 -124.283208 
L 476.142279 -123.611433 
L 476.115813 -122.939658 
L 476.087981 -122.267883 
L 476.058601 -121.596108 
L 476.027459 -120.924333 
L 475.994314 -120.252558 
L 475.958897 -119.580783 
L 475.920923 -118.909009 
L 475.88009 -118.237234 
L 475.836083 -117.565459 
L 475.788586 -116.893684 
L 475.73728 -116.221909 
L 475.681851 -115.550134 
L 475.621998 -114.878359 
L 475.557434 -114.206584 
L 475.487892 -113.53481 
L 475.413131 -112.863035 
L 475.33294 -112.19126 
L 475.247141 -111.519485 
L 475.155593 -110.84771 
L 475.058194 -110.175935 
L 474.954886 -109.50416 
L 474.845654 -108.832385 
L 474.73053 -108.160611 
z
" style="stroke: #999999; stroke-width: 2"/>
    </defs>
    <g clip-path="url(#p276c863c0d)">
     <use xlink:href="#m71c98e2c67" x="0" y="255.11811" style="fill: #ffffff; stroke: #999999; stroke-width: 2"/>
    </g>
   </g>
   <g id="PathCollection_1"/>
   <g id="PathCollection_2"/>
   <g id="patch_3">
    <path d="M 47.22 213.89811 
L 47.22 24.32 
" style="fill: none; stroke: #262626; stroke-width: 1.25; stroke-linejoin: miter; stroke-linecap: square"/>
   </g>
   <g id="patch_4">
    <path d="M 47.22 213.89811 
L 500.51622 213.89811 
" style="fill: none; stroke: #262626; stroke-width: 1.25; stroke-linejoin: miter; stroke-linecap: square"/>
   </g>
   <g id="PathCollection_3">
    <defs>
     <path id="C0_0_85aea6ed38" d="M 0 2.5 
C 0.663008 2.5 1.29895 2.236584 1.767767 1.767767 
C 2.236584 1.29895 2.5 0.663008 2.5 -0 
C 2.5 -0.663008 2.236584 -1.29895 1.767767 -1.767767 
C 1.29895 -2.236584 0.663008 -2.5 0 -2.5 
C -0.663008 -2.5 -1.29895 -2.236584 -1.767767 -1.767767 
C -2.236584 -1.29895 -2.5 -0.663008 -2.5 0 
C -2.5 0.663008 -2.236584 1.29895 -1.767767 1.767767 
C -1.29895 2.236584 -0.663008 2.5 0 2.5 
z
"/>
    </defs>
    <g clip-path="url(#p276c863c0d)">
     <use xlink:href="#C0_0_85aea6ed38" x="83.080377" y="124.647487" style="fill: #4c72b0; fill-opacity: 0.75"/>
    </g>
    <g clip-path="url(#p276c863c0d)">
     <use xlink:href="#C0_0_85aea6ed38" x="80.321801" y="156.067128" style="fill: #4c72b0; fill-opacity: 0.75"/>
    </g>
    <g clip-path="url(#p276c863c0d)">
     <use xlink:href="#C0_0_85aea6ed38" x="75.153867" y="147.462097" style="fill: #4c72b0; fill-opacity: 0.75"/>
    </g>
    <g clip-path="url(#p276c863c0d)">
     <use xlink:href="#C0_0_85aea6ed38" x="79.553405" y="89.679793" style="fill: #4c72b0; fill-opacity: 0.75"/>
    </g>
    <g clip-path="url(#p276c863c0d)">
     <use xlink:href="#C0_0_85aea6ed38" x="85.048077" y="131.449434" style="fill: #dd8452; fill-opacity: 0.75"/>
    </g>
    <g clip-path="url(#p276c863c0d)">
     <use xlink:href="#C0_0_85aea6ed38" x="73.427604" y="128.455697" style="fill: #dd8452; fill-opacity: 0.75"/>
    </g>
    <g clip-path="url(#p276c863c0d)">
     <use xlink:href="#C0_0_85aea6ed38" x="77.82449" y="134.461093" style="fill: #dd8452; fill-opacity: 0.75"/>
    </g>
    <g clip-path="url(#p276c863c0d)">
     <use xlink:href="#C0_0_85aea6ed38" x="75.696612" y="129.623308" style="fill: #dd8452; fill-opacity: 0.75"/>
    </g>
   </g>
   <g id="PathCollection_4">
    <defs>
     <path id="C1_0_a161a15ed5" d="M 0 2.5 
C 0.663008 2.5 1.29895 2.236584 1.767767 1.767767 
C 2.236584 1.29895 2.5 0.663008 2.5 -0 
C 2.5 -0.663008 2.236584 -1.29895 1.767767 -1.767767 
C 1.29895 -2.236584 0.663008 -2.5 0 -2.5 
C -0.663008 -2.5 -1.29895 -2.236584 -1.767767 -1.767767 
C -2.236584 -1.29895 -2.5 -0.663008 -2.5 0 
C -2.5 0.663008 -2.236584 1.29895 -1.767767 1.767767 
C -1.29895 2.236584 -0.663008 2.5 0 2.5 
z
"/>
    </defs>
    <g clip-path="url(#p276c863c0d)">
     <use xlink:href="#C1_0_a161a15ed5" x="145.544788" y="143.172928" style="fill: #4c72b0; fill-opacity: 0.75"/>
    </g>
    <g clip-path="url(#p276c863c0d)">
     <use xlink:href="#C1_0_a161a15ed5" x="145.218963" y="127.034062" style="fill: #4c72b0; fill-opacity: 0.75"/>
    </g>
    <g clip-path="url(#p276c863c0d)">
     <use xlink:href="#C1_0_a161a15ed5" x="140.982148" y="124.253646" style="fill: #4c72b0; fill-opacity: 0.75"/>
    </g>
    <g clip-path="url(#p276c863c0d)">
     <use xlink:href="#C1_0_a161a15ed5" x="141.953332" y="130.21095" style="fill: #4c72b0; fill-opacity: 0.75"/>
    </g>
    <g clip-path="url(#p276c863c0d)">
     <use xlink:href="#C1_0_a161a15ed5" x="148.663313" y="137.840682" style="fill: #dd8452; fill-opacity: 0.75"/>
    </g>
    <g clip-path="url(#p276c863c0d)">
     <use xlink:href="#C1_0_a161a15ed5" x="149.272091" y="135.010921" style="fill: #dd8452; fill-opacity: 0.75"/>
    </g>
    <g clip-path="url(#p276c863c0d)">
     <use xlink:href="#C1_0_a161a15ed5" x="141.84623" y="121.833537" style="fill: #dd8452; fill-opacity: 0.75"/>
    </g>
    <g clip-path="url(#p276c863c0d)">
     <use xlink:href="#C1_0_a161a15ed5" x="145.392313" y="123.782454" style="fill: #dd8452; fill-opacity: 0.75"/>
    </g>
   </g>
   <g id="PathCollection_5">
    <defs>
     <path id="C2_0_740c43a93d" d="M 0 2.5 
C 0.663008 2.5 1.29895 2.236584 1.767767 1.767767 
C 2.236584 1.29895 2.5 0.663008 2.5 -0 
C 2.5 -0.663008 2.236584 -1.29895 1.767767 -1.767767 
C 1.29895 -2.236584 0.663008 -2.5 0 -2.5 
C -0.663008 -2.5 -1.29895 -2.236584 -1.767767 -1.767767 
C -2.236584 -1.29895 -2.5 -0.663008 -2.5 0 
C -2.5 0.663008 -2.236584 1.29895 -1.767767 1.767767 
C -1.29895 2.236584 -0.663008 2.5 0 2.5 
z
"/>
    </defs>
    <g clip-path="url(#p276c863c0d)">
     <use xlink:href="#C2_0_740c43a93d" x="213.00817" y="123.684331" style="fill: #4c72b0; fill-opacity: 0.75"/>
    </g>
    <g clip-path="url(#p276c863c0d)">
     <use xlink:href="#C2_0_740c43a93d" x="206.844873" y="62.744286" style="fill: #4c72b0; fill-opacity: 0.75"/>
    </g>
    <g clip-path="url(#p276c863c0d)">
     <use xlink:href="#C2_0_740c43a93d" x="208.167594" y="70.048988" style="fill: #4c72b0; fill-opacity: 0.75"/>
    </g>
    <g clip-path="url(#p276c863c0d)">
     <use xlink:href="#C2_0_740c43a93d" x="208.612194" y="114.853842" style="fill: #4c72b0; fill-opacity: 0.75"/>
    </g>
    <g clip-path="url(#p276c863c0d)">
     <use xlink:href="#C2_0_740c43a93d" x="211.549938" y="84.711975" style="fill: #dd8452; fill-opacity: 0.75"/>
    </g>
    <g clip-path="url(#p276c863c0d)">
     <use xlink:href="#C2_0_740c43a93d" x="205.890241" y="92.006839" style="fill: #dd8452; fill-opacity: 0.75"/>
    </g>
    <g clip-path="url(#p276c863c0d)">
     <use xlink:href="#C2_0_740c43a93d" x="209.337575" y="75.906484" style="fill: #dd8452; fill-opacity: 0.75"/>
    </g>
    <g clip-path="url(#p276c863c0d)">
     <use xlink:href="#C2_0_740c43a93d" x="207.061544" y="112.388682" style="fill: #dd8452; fill-opacity: 0.75"/>
    </g>
   </g>
   <g id="PathCollection_6">
    <defs>
     <path id="C3_0_3db782d343" d="M 0 2.5 
C 0.663008 2.5 1.29895 2.236584 1.767767 1.767767 
C 2.236584 1.29895 2.5 0.663008 2.5 -0 
C 2.5 -0.663008 2.236584 -1.29895 1.767767 -1.767767 
C 1.29895 -2.236584 0.663008 -2.5 0 -2.5 
C -0.663008 -2.5 -1.29895 -2.236584 -1.767767 -1.767767 
C -2.236584 -1.29895 -2.5 -0.663008 -2.5 0 
C -2.5 0.663008 -2.236584 1.29895 -1.767767 1.767767 
C -1.29895 2.236584 -0.663008 2.5 0 2.5 
z
"/>
    </defs>
    <g clip-path="url(#p276c863c0d)">
     <use xlink:href="#C3_0_3db782d343" x="280.011157" y="93.900073" style="fill: #4c72b0; fill-opacity: 0.75"/>
    </g>
    <g clip-path="url(#p276c863c0d)">
     <use xlink:href="#C3_0_3db782d343" x="276.501903" y="109.830983" style="fill: #4c72b0; fill-opacity: 0.75"/>
    </g>
    <g clip-path="url(#p276c863c0d)">
     <use xlink:href="#C3_0_3db782d343" x="273.276748" y="95.00088" style="fill: #4c72b0; fill-opacity: 0.75"/>
    </g>
    <g clip-path="url(#p276c863c0d)">
     <use xlink:href="#C3_0_3db782d343" x="276.511029" y="101.420106" style="fill: #4c72b0; fill-opacity: 0.75"/>
    </g>
    <g clip-path="url(#p276c863c0d)">
     <use xlink:href="#C3_0_3db782d343" x="277.346855" y="106.872211" style="fill: #4c72b0; fill-opacity: 0.75"/>
    </g>
    <g clip-path="url(#p276c863c0d)">
     <use xlink:href="#C3_0_3db782d343" x="279.008971" y="117.345288" style="fill: #dd8452; fill-opacity: 0.75"/>
    </g>
    <g clip-path="url(#p276c863c0d)">
     <use xlink:href="#C3_0_3db782d343" x="271.866457" y="110.619515" style="fill: #dd8452; fill-opacity: 0.75"/>
    </g>
    <g clip-path="url(#p276c863c0d)">
     <use xlink:href="#C3_0_3db782d343" x="269.045697" y="131.659015" style="fill: #dd8452; fill-opacity: 0.75"/>
    </g>
    <g clip-path="url(#p276c863c0d)">
     <use xlink:href="#C3_0_3db782d343" x="270.720638" y="116.660445" style="fill: #dd8452; fill-opacity: 0.75"/>
    </g>
    <g clip-path="url(#p276c863c0d)">
     <use xlink:href="#C3_0_3db782d343" x="274.625599" y="117.684879" style="fill: #dd8452; fill-opacity: 0.75"/>
    </g>
   </g>
   <g id="PathCollection_7">
    <defs>
     <path id="C4_0_25c77a4ef4" d="M 0 2.5 
C 0.663008 2.5 1.29895 2.236584 1.767767 1.767767 
C 2.236584 1.29895 2.5 0.663008 2.5 -0 
C 2.5 -0.663008 2.236584 -1.29895 1.767767 -1.767767 
C 1.29895 -2.236584 0.663008 -2.5 0 -2.5 
C -0.663008 -2.5 -1.29895 -2.236584 -1.767767 -1.767767 
C -2.236584 -1.29895 -2.5 -0.663008 -2.5 0 
C -2.5 0.663008 -2.236584 1.29895 -1.767767 1.767767 
C -1.29895 2.236584 -0.663008 2.5 0 2.5 
z
"/>
    </defs>
    <g clip-path="url(#p276c863c0d)">
     <use xlink:href="#C4_0_25c77a4ef4" x="335.426362" y="188.129381" style="fill: #4c72b0; fill-opacity: 0.75"/>
    </g>
    <g clip-path="url(#p276c863c0d)">
     <use xlink:href="#C4_0_25c77a4ef4" x="342.23228" y="202.413509" style="fill: #4c72b0; fill-opacity: 0.75"/>
    </g>
    <g clip-path="url(#p276c863c0d)">
     <use xlink:href="#C4_0_25c77a4ef4" x="344.550696" y="205.280923" style="fill: #4c72b0; fill-opacity: 0.75"/>
    </g>
    <g clip-path="url(#p276c863c0d)">
     <use xlink:href="#C4_0_25c77a4ef4" x="338.016039" y="180.686616" style="fill: #dd8452; fill-opacity: 0.75"/>
    </g>
    <g clip-path="url(#p276c863c0d)">
     <use xlink:href="#C4_0_25c77a4ef4" x="344.730382" y="172.820242" style="fill: #dd8452; fill-opacity: 0.75"/>
    </g>
    <g clip-path="url(#p276c863c0d)">
     <use xlink:href="#C4_0_25c77a4ef4" x="341.271065" y="195.849337" style="fill: #dd8452; fill-opacity: 0.75"/>
    </g>
   </g>
   <g id="PathCollection_8">
    <defs>
     <path id="C5_0_e1a2583ecf" d="M 0 2.5 
C 0.663008 2.5 1.29895 2.236584 1.767767 1.767767 
C 2.236584 1.29895 2.5 0.663008 2.5 -0 
C 2.5 -0.663008 2.236584 -1.29895 1.767767 -1.767767 
C 1.29895 -2.236584 0.663008 -2.5 0 -2.5 
C -0.663008 -2.5 -1.29895 -2.236584 -1.767767 -1.767767 
C -2.236584 -1.29895 -2.5 -0.663008 -2.5 0 
C -2.5 0.663008 -2.236584 1.29895 -1.767767 1.767767 
C -1.29895 2.236584 -0.663008 2.5 0 2.5 
z
"/>
    </defs>
    <g clip-path="url(#p276c863c0d)">
     <use xlink:href="#C5_0_e1a2583ecf" x="399.877272" y="97.980293" style="fill: #4c72b0; fill-opacity: 0.75"/>
    </g>
    <g clip-path="url(#p276c863c0d)">
     <use xlink:href="#C5_0_e1a2583ecf" x="400.5382" y="111.798457" style="fill: #4c72b0; fill-opacity: 0.75"/>
    </g>
    <g clip-path="url(#p276c863c0d)">
     <use xlink:href="#C5_0_e1a2583ecf" x="402.913725" y="107.536075" style="fill: #4c72b0; fill-opacity: 0.75"/>
    </g>
    <g clip-path="url(#p276c863c0d)">
     <use xlink:href="#C5_0_e1a2583ecf" x="397.402607" y="118.507526" style="fill: #4c72b0; fill-opacity: 0.75"/>
    </g>
    <g clip-path="url(#p276c863c0d)">
     <use xlink:href="#C5_0_e1a2583ecf" x="398.165131" y="65.80528" style="fill: #dd8452; fill-opacity: 0.75"/>
    </g>
    <g clip-path="url(#p276c863c0d)">
     <use xlink:href="#C5_0_e1a2583ecf" x="405.873344" y="41.993661" style="fill: #dd8452; fill-opacity: 0.75"/>
    </g>
    <g clip-path="url(#p276c863c0d)">
     <use xlink:href="#C5_0_e1a2583ecf" x="402.728413" y="57.485887" style="fill: #dd8452; fill-opacity: 0.75"/>
    </g>
    <g clip-path="url(#p276c863c0d)">
     <use xlink:href="#C5_0_e1a2583ecf" x="408.673413" y="32.937187" style="fill: #dd8452; fill-opacity: 0.75"/>
    </g>
   </g>
   <g id="PathCollection_9">
    <defs>
     <path id="C6_0_d05a0f2c41" d="M 0 2.5 
C 0.663008 2.5 1.29895 2.236584 1.767767 1.767767 
C 2.236584 1.29895 2.5 0.663008 2.5 -0 
C 2.5 -0.663008 2.236584 -1.29895 1.767767 -1.767767 
C 1.29895 -2.236584 0.663008 -2.5 0 -2.5 
C -0.663008 -2.5 -1.29895 -2.236584 -1.767767 -1.767767 
C -2.236584 -1.29895 -2.5 -0.663008 -2.5 0 
C -2.5 0.663008 -2.236584 1.29895 -1.767767 1.767767 
C -1.29895 2.236584 -0.663008 2.5 0 2.5 
z
"/>
    </defs>
    <g clip-path="url(#p276c863c0d)">
     <use xlink:href="#C6_0_d05a0f2c41" x="464.127672" y="146.9575" style="fill: #4c72b0; fill-opacity: 0.75"/>
    </g>
    <g clip-path="url(#p276c863c0d)">
     <use xlink:href="#C6_0_d05a0f2c41" x="462.35556" y="145.350334" style="fill: #4c72b0; fill-opacity: 0.75"/>
    </g>
    <g clip-path="url(#p276c863c0d)">
     <use xlink:href="#C6_0_d05a0f2c41" x="473.331524" y="141.423817" style="fill: #4c72b0; fill-opacity: 0.75"/>
    </g>
    <g clip-path="url(#p276c863c0d)">
     <use xlink:href="#C6_0_d05a0f2c41" x="464.466498" y="123.698224" style="fill: #4c72b0; fill-opacity: 0.75"/>
    </g>
    <g clip-path="url(#p276c863c0d)">
     <use xlink:href="#C6_0_d05a0f2c41" x="469.191891" y="107.007228" style="fill: #dd8452; fill-opacity: 0.75"/>
    </g>
    <g clip-path="url(#p276c863c0d)">
     <use xlink:href="#C6_0_d05a0f2c41" x="464.833351" y="115.948634" style="fill: #dd8452; fill-opacity: 0.75"/>
    </g>
    <g clip-path="url(#p276c863c0d)">
     <use xlink:href="#C6_0_d05a0f2c41" x="472.618365" y="110.89951" style="fill: #dd8452; fill-opacity: 0.75"/>
    </g>
    <g clip-path="url(#p276c863c0d)">
     <use xlink:href="#C6_0_d05a0f2c41" x="467.227802" y="80.451787" style="fill: #dd8452; fill-opacity: 0.75"/>
    </g>
   </g>
   <g id="text_14">
    <!-- RAN, $p_{adj}$ &lt; .001 *** -->
    <g style="fill: #262626" transform="translate(47.22 18.32)scale(0.09 -0.09)">
     <defs>
      <path id="ArialMT-52" d="M 503 0 
L 503 4581 
L 2534 4581 
Q 3147 4581 3465 4457 
Q 3784 4334 3975 4021 
Q 4166 3709 4166 3331 
Q 4166 2844 3850 2509 
Q 3534 2175 2875 2084 
Q 3116 1969 3241 1856 
Q 3506 1613 3744 1247 
L 4541 0 
L 3778 0 
L 3172 953 
Q 2906 1366 2734 1584 
Q 2563 1803 2427 1890 
Q 2291 1978 2150 2013 
Q 2047 2034 1813 2034 
L 1109 2034 
L 1109 0 
L 503 0 
z
M 1109 2559 
L 2413 2559 
Q 2828 2559 3062 2645 
Q 3297 2731 3419 2920 
Q 3541 3109 3541 3331 
Q 3541 3656 3305 3865 
Q 3069 4075 2559 4075 
L 1109 4075 
L 1109 2559 
z
" transform="scale(0.015625)"/>
      <path id="ArialMT-41" d="M -9 0 
L 1750 4581 
L 2403 4581 
L 4278 0 
L 3588 0 
L 3053 1388 
L 1138 1388 
L 634 0 
L -9 0 
z
M 1313 1881 
L 2866 1881 
L 2388 3150 
Q 2169 3728 2063 4100 
Q 1975 3659 1816 3225 
L 1313 1881 
z
" transform="scale(0.015625)"/>
      <path id="ArialMT-4e" d="M 488 0 
L 488 4581 
L 1109 4581 
L 3516 984 
L 3516 4581 
L 4097 4581 
L 4097 0 
L 3475 0 
L 1069 3600 
L 1069 0 
L 488 0 
z
" transform="scale(0.015625)"/>
      <path id="ArialMT-2c" d="M 569 0 
L 569 641 
L 1209 641 
L 1209 0 
Q 1209 -353 1084 -570 
Q 959 -788 688 -906 
L 531 -666 
Q 709 -588 793 -436 
Q 878 -284 888 0 
L 569 0 
z
" transform="scale(0.015625)"/>
      <path id="DejaVuSans-Oblique-70" d="M 3175 2156 
Q 3175 2616 2975 2859 
Q 2775 3103 2400 3103 
Q 2144 3103 1911 2972 
Q 1678 2841 1497 2591 
Q 1319 2344 1212 1994 
Q 1106 1644 1106 1300 
Q 1106 863 1306 627 
Q 1506 391 1875 391 
Q 2147 391 2380 519 
Q 2613 647 2778 891 
Q 2956 1147 3065 1494 
Q 3175 1841 3175 2156 
z
M 1394 2969 
Q 1625 3272 1939 3428 
Q 2253 3584 2638 3584 
Q 3175 3584 3472 3232 
Q 3769 2881 3769 2247 
Q 3769 1728 3584 1258 
Q 3400 788 3053 416 
Q 2822 169 2531 39 
Q 2241 -91 1919 -91 
Q 1547 -91 1294 64 
Q 1041 219 916 525 
L 556 -1331 
L -19 -1331 
L 922 3500 
L 1497 3500 
L 1394 2969 
z
" transform="scale(0.015625)"/>
      <path id="DejaVuSans-Oblique-61" d="M 3438 1997 
L 3047 0 
L 2472 0 
L 2578 531 
Q 2325 219 2001 64 
Q 1678 -91 1281 -91 
Q 834 -91 548 182 
Q 263 456 263 884 
Q 263 1497 752 1853 
Q 1241 2209 2100 2209 
L 2900 2209 
L 2931 2363 
Q 2938 2388 2941 2417 
Q 2944 2447 2944 2509 
Q 2944 2788 2717 2942 
Q 2491 3097 2081 3097 
Q 1800 3097 1504 3025 
Q 1209 2953 897 2809 
L 997 3341 
Q 1322 3463 1633 3523 
Q 1944 3584 2234 3584 
Q 2853 3584 3176 3315 
Q 3500 3047 3500 2534 
Q 3500 2431 3484 2292 
Q 3469 2153 3438 1997 
z
M 2816 1759 
L 2241 1759 
Q 1534 1759 1195 1570 
Q 856 1381 856 984 
Q 856 709 1029 553 
Q 1203 397 1509 397 
Q 1978 397 2328 733 
Q 2678 1069 2791 1631 
L 2816 1759 
z
" transform="scale(0.015625)"/>
      <path id="DejaVuSans-Oblique-64" d="M 2675 525 
Q 2444 222 2128 65 
Q 1813 -91 1428 -91 
Q 903 -91 598 267 
Q 294 625 294 1247 
Q 294 1766 478 2236 
Q 663 2706 1013 3078 
Q 1244 3325 1534 3454 
Q 1825 3584 2144 3584 
Q 2481 3584 2739 3421 
Q 2997 3259 3138 2956 
L 3513 4863 
L 4091 4863 
L 3144 0 
L 2566 0 
L 2675 525 
z
M 891 1350 
Q 891 897 1095 644 
Q 1300 391 1663 391 
Q 1931 391 2161 520 
Q 2391 650 2566 903 
Q 2750 1166 2856 1509 
Q 2963 1853 2963 2188 
Q 2963 2622 2758 2865 
Q 2553 3109 2194 3109 
Q 1922 3109 1687 2981 
Q 1453 2853 1288 2613 
Q 1106 2353 998 2009 
Q 891 1666 891 1350 
z
" transform="scale(0.015625)"/>
      <path id="DejaVuSans-Oblique-6a" d="M 928 3500 
L 1503 3500 
L 813 -63 
L 809 -78 
Q 694 -675 544 -897 
Q 403 -1106 132 -1218 
Q -138 -1331 -506 -1331 
L -722 -1331 
L -628 -844 
L -481 -844 
Q -144 -844 -1 -703 
Q 141 -563 238 -63 
L 928 3500 
z
M 1197 4863 
L 1772 4863 
L 1631 4134 
L 1056 4134 
L 1197 4863 
z
" transform="scale(0.015625)"/>
      <path id="ArialMT-3c" d="M 350 2003 
L 350 2528 
L 3384 3809 
L 3384 3250 
L 978 2263 
L 3384 1266 
L 3384 706 
L 350 2003 
z
" transform="scale(0.015625)"/>
      <path id="ArialMT-2e" d="M 581 0 
L 581 641 
L 1222 641 
L 1222 0 
L 581 0 
z
" transform="scale(0.015625)"/>
      <path id="ArialMT-2a" d="M 200 3741 
L 344 4184 
Q 841 4009 1066 3881 
Q 1006 4447 1003 4659 
L 1456 4659 
Q 1447 4350 1384 3884 
Q 1706 4047 2122 4184 
L 2266 3741 
Q 1869 3609 1488 3566 
Q 1678 3400 2025 2975 
L 1650 2709 
Q 1469 2956 1222 3381 
Q 991 2941 816 2709 
L 447 2975 
Q 809 3422 966 3566 
Q 563 3644 200 3741 
z
" transform="scale(0.015625)"/>
     </defs>
     <use xlink:href="#ArialMT-52" transform="translate(0 0.203125)"/>
     <use xlink:href="#ArialMT-41" transform="translate(72.216797 0.203125)"/>
     <use xlink:href="#ArialMT-4e" transform="translate(138.916016 0.203125)"/>
     <use xlink:href="#ArialMT-2c" transform="translate(211.132812 0.203125)"/>
     <use xlink:href="#ArialMT-20" transform="translate(238.916016 0.203125)"/>
     <use xlink:href="#DejaVuSans-Oblique-70" transform="translate(266.699219 0.203125)"/>
     <use xlink:href="#DejaVuSans-Oblique-61" transform="translate(330.175781 -16.203125)scale(0.7)"/>
     <use xlink:href="#DejaVuSans-Oblique-64" transform="translate(373.071289 -16.203125)scale(0.7)"/>
     <use xlink:href="#DejaVuSans-Oblique-6a" transform="translate(417.504883 -16.203125)scale(0.7)"/>
     <use xlink:href="#ArialMT-20" transform="translate(439.6875 0.203125)"/>
     <use xlink:href="#ArialMT-3c" transform="translate(467.470703 0.203125)"/>
     <use xlink:href="#ArialMT-20" transform="translate(525.869141 0.203125)"/>
     <use xlink:href="#ArialMT-2e" transform="translate(553.652344 0.203125)"/>
     <use xlink:href="#ArialMT-30" transform="translate(581.435547 0.203125)"/>
     <use xlink:href="#ArialMT-30" transform="translate(637.050781 0.203125)"/>
     <use xlink:href="#ArialMT-31" transform="translate(692.666016 0.203125)"/>
     <use xlink:href="#ArialMT-20" transform="translate(748.28125 0.203125)"/>
     <use xlink:href="#ArialMT-2a" transform="translate(776.064453 0.203125)"/>
     <use xlink:href="#ArialMT-2a" transform="translate(814.980469 0.203125)"/>
     <use xlink:href="#ArialMT-2a" transform="translate(853.896484 0.203125)"/>
    </g>
   </g>
   <g id="legend_1">
    <g id="patch_5">
     <path d="M 441.91497 69.712344 
L 494.21622 69.712344 
Q 496.01622 69.712344 496.01622 67.912344 
L 496.01622 30.62 
Q 496.01622 28.82 494.21622 28.82 
L 441.91497 28.82 
Q 440.11497 28.82 440.11497 30.62 
L 440.11497 67.912344 
Q 440.11497 69.712344 441.91497 69.712344 
z
" style="fill: #ffffff; opacity: 0.8; stroke: #cccccc; stroke-linejoin: miter"/>
    </g>
    <g id="text_15">
     <!-- Treatment -->
     <g style="fill: #262626" transform="translate(447.729111 38.862031)scale(0.09 -0.09)">
      <use xlink:href="#ArialMT-54"/>
      <use xlink:href="#ArialMT-72" x="57.333984"/>
      <use xlink:href="#ArialMT-65" x="90.634766"/>
      <use xlink:href="#ArialMT-61" x="146.25"/>
      <use xlink:href="#ArialMT-74" x="201.865234"/>
      <use xlink:href="#ArialMT-6d" x="229.648438"/>
      <use xlink:href="#ArialMT-65" x="312.949219"/>
      <use xlink:href="#ArialMT-6e" x="368.564453"/>
      <use xlink:href="#ArialMT-74" x="424.179688"/>
     </g>
    </g>
    <g id="PathCollection_10">
     <defs>
      <path id="m0b927f6669" d="M 0 3.872983 
C 1.027127 3.872983 2.012324 3.464901 2.738613 2.738613 
C 3.464901 2.012324 3.872983 1.027127 3.872983 0 
C 3.872983 -1.027127 3.464901 -2.012324 2.738613 -2.738613 
C 2.012324 -3.464901 1.027127 -3.872983 0 -3.872983 
C -1.027127 -3.872983 -2.012324 -3.464901 -2.738613 -2.738613 
C -3.464901 -2.012324 -3.872983 -1.027127 -3.872983 0 
C -3.872983 1.027127 -3.464901 2.012324 -2.738613 2.738613 
C -2.012324 3.464901 -1.027127 3.872983 0 3.872983 
z
" style="stroke: #4c72b0"/>
     </defs>
     <g>
      <use xlink:href="#m0b927f6669" x="452.71497" y="49.230313" style="fill: #4c72b0; stroke: #4c72b0"/>
     </g>
    </g>
    <g id="text_16">
     <!-- BEVA -->
     <g style="fill: #262626" transform="translate(468.91497 51.592813)scale(0.09 -0.09)">
      <defs>
       <path id="ArialMT-42" d="M 469 0 
L 469 4581 
L 2188 4581 
Q 2713 4581 3030 4442 
Q 3347 4303 3526 4014 
Q 3706 3725 3706 3409 
Q 3706 3116 3547 2856 
Q 3388 2597 3066 2438 
Q 3481 2316 3704 2022 
Q 3928 1728 3928 1328 
Q 3928 1006 3792 729 
Q 3656 453 3456 303 
Q 3256 153 2954 76 
Q 2653 0 2216 0 
L 469 0 
z
M 1075 2656 
L 2066 2656 
Q 2469 2656 2644 2709 
Q 2875 2778 2992 2937 
Q 3109 3097 3109 3338 
Q 3109 3566 3000 3739 
Q 2891 3913 2687 3977 
Q 2484 4041 1991 4041 
L 1075 4041 
L 1075 2656 
z
M 1075 541 
L 2216 541 
Q 2509 541 2628 563 
Q 2838 600 2978 687 
Q 3119 775 3209 942 
Q 3300 1109 3300 1328 
Q 3300 1584 3169 1773 
Q 3038 1963 2805 2039 
Q 2572 2116 2134 2116 
L 1075 2116 
L 1075 541 
z
" transform="scale(0.015625)"/>
       <path id="ArialMT-45" d="M 506 0 
L 506 4581 
L 3819 4581 
L 3819 4041 
L 1113 4041 
L 1113 2638 
L 3647 2638 
L 3647 2100 
L 1113 2100 
L 1113 541 
L 3925 541 
L 3925 0 
L 506 0 
z
" transform="scale(0.015625)"/>
       <path id="ArialMT-56" d="M 1803 0 
L 28 4581 
L 684 4581 
L 1875 1253 
Q 2019 853 2116 503 
Q 2222 878 2363 1253 
L 3600 4581 
L 4219 4581 
L 2425 0 
L 1803 0 
z
" transform="scale(0.015625)"/>
      </defs>
      <use xlink:href="#ArialMT-42"/>
      <use xlink:href="#ArialMT-45" x="66.699219"/>
      <use xlink:href="#ArialMT-56" x="133.398438"/>
      <use xlink:href="#ArialMT-41" x="192.722656"/>
     </g>
    </g>
    <g id="PathCollection_11">
     <defs>
      <path id="mbeb491f500" d="M 0 3.872983 
C 1.027127 3.872983 2.012324 3.464901 2.738613 2.738613 
C 3.464901 2.012324 3.872983 1.027127 3.872983 0 
C 3.872983 -1.027127 3.464901 -2.012324 2.738613 -2.738613 
C 2.012324 -3.464901 1.027127 -3.872983 0 -3.872983 
C -1.027127 -3.872983 -2.012324 -3.464901 -2.738613 -2.738613 
C -3.464901 -2.012324 -3.872983 -1.027127 -3.872983 0 
C -3.872983 1.027127 -3.464901 2.012324 -2.738613 2.738613 
C -2.012324 3.464901 -1.027127 3.872983 0 3.872983 
z
" style="stroke: #dd8452"/>
     </defs>
     <g>
      <use xlink:href="#mbeb491f500" x="452.71497" y="61.961094" style="fill: #dd8452; stroke: #dd8452"/>
     </g>
    </g>
    <g id="text_17">
     <!-- CTRL -->
     <g style="fill: #262626" transform="translate(468.91497 64.323594)scale(0.09 -0.09)">
      <defs>
       <path id="ArialMT-43" d="M 3763 1606 
L 4369 1453 
Q 4178 706 3683 314 
Q 3188 -78 2472 -78 
Q 1731 -78 1267 223 
Q 803 525 561 1097 
Q 319 1669 319 2325 
Q 319 3041 592 3573 
Q 866 4106 1370 4382 
Q 1875 4659 2481 4659 
Q 3169 4659 3637 4309 
Q 4106 3959 4291 3325 
L 3694 3184 
Q 3534 3684 3231 3912 
Q 2928 4141 2469 4141 
Q 1941 4141 1586 3887 
Q 1231 3634 1087 3207 
Q 944 2781 944 2328 
Q 944 1744 1114 1308 
Q 1284 872 1643 656 
Q 2003 441 2422 441 
Q 2931 441 3284 734 
Q 3638 1028 3763 1606 
z
" transform="scale(0.015625)"/>
       <path id="ArialMT-4c" d="M 469 0 
L 469 4581 
L 1075 4581 
L 1075 541 
L 3331 541 
L 3331 0 
L 469 0 
z
" transform="scale(0.015625)"/>
      </defs>
      <use xlink:href="#ArialMT-43"/>
      <use xlink:href="#ArialMT-54" x="72.216797"/>
      <use xlink:href="#ArialMT-52" x="133.300781"/>
      <use xlink:href="#ArialMT-4c" x="205.517578"/>
     </g>
    </g>
   </g>
  </g>
 </g>
 <defs>
  <clipPath id="p276c863c0d">
   <rect x="47.22" y="24.32" width="453.29622" height="189.57811"/>
  </clipPath>
 </defs>
</svg>
