<?xml version="1.0" encoding="utf-8" standalone="no"?>
<!DOCTYPE svg PUBLIC "-//W3C//DTD SVG 1.1//EN"
  "http://www.w3.org/Graphics/SVG/1.1/DTD/svg11.dtd">
<svg xmlns:xlink="http://www.w3.org/1999/xlink" width="510.23622pt" height="255.11811pt" viewBox="0 0 510.23622 255.11811" xmlns="http://www.w3.org/2000/svg" version="1.1">
 <metadata>
  <rdf:RDF xmlns:dc="http://purl.org/dc/elements/1.1/" xmlns:cc="http://creativecommons.org/ns#" xmlns:rdf="http://www.w3.org/1999/02/22-rdf-syntax-ns#">
   <cc:Work>
    <dc:type rdf:resource="http://purl.org/dc/dcmitype/StillImage"/>
    <dc:date>2022-04-27T00:14:11.926356</dc:date>
    <dc:format>image/svg+xml</dc:format>
    <dc:creator>
     <cc:Agent>
      <dc:title>Matplotlib v3.5.1, https://matplotlib.org/</dc:title>
     </cc:Agent>
    </dc:creator>
   </cc:Work>
  </rdf:RDF>
 </metadata>
 <defs>
  <style type="text/css">*{stroke-linejoin: round; stroke-linecap: butt}</style>
 </defs>
 <g id="figure_1">
  <g id="patch_1">
   <path d="M 0 255.11811 
L 510.23622 255.11811 
L 510.23622 0 
L 0 0 
z
" style="fill: #ffffff"/>
  </g>
  <g id="axes_1">
   <g id="patch_2">
    <path d="M 42.22 213.89811 
L 500.51622 213.89811 
L 500.51622 24.32 
L 42.22 24.32 
z
" style="fill: #ffffff"/>
   </g>
   <g id="matplotlib.axis_1">
    <g id="xtick_1">
     <g id="text_1">
      <!-- 49 -->
      <g style="fill: #444444" transform="translate(69.950601 229.840141)scale(0.09 -0.09)">
       <defs>
        <path id="ArialMT-34" d="M 2069 0 
L 2069 1097 
L 81 1097 
L 81 1613 
L 2172 4581 
L 2631 4581 
L 2631 1613 
L 3250 1613 
L 3250 1097 
L 2631 1097 
L 2631 0 
L 2069 0 
z
M 2069 1613 
L 2069 3678 
L 634 1613 
L 2069 1613 
z
" transform="scale(0.015625)"/>
        <path id="ArialMT-39" d="M 350 1059 
L 891 1109 
Q 959 728 1153 556 
Q 1347 384 1650 384 
Q 1909 384 2104 503 
Q 2300 622 2425 820 
Q 2550 1019 2634 1356 
Q 2719 1694 2719 2044 
Q 2719 2081 2716 2156 
Q 2547 1888 2255 1720 
Q 1963 1553 1622 1553 
Q 1053 1553 659 1965 
Q 266 2378 266 3053 
Q 266 3750 677 4175 
Q 1088 4600 1706 4600 
Q 2153 4600 2523 4359 
Q 2894 4119 3086 3673 
Q 3278 3228 3278 2384 
Q 3278 1506 3087 986 
Q 2897 466 2520 194 
Q 2144 -78 1638 -78 
Q 1100 -78 759 220 
Q 419 519 350 1059 
z
M 2653 3081 
Q 2653 3566 2395 3850 
Q 2138 4134 1775 4134 
Q 1400 4134 1122 3828 
Q 844 3522 844 3034 
Q 844 2597 1108 2323 
Q 1372 2050 1759 2050 
Q 2150 2050 2401 2323 
Q 2653 2597 2653 3081 
z
" transform="scale(0.015625)"/>
       </defs>
       <use xlink:href="#ArialMT-34"/>
       <use xlink:href="#ArialMT-39" x="55.615234"/>
      </g>
     </g>
    </g>
    <g id="xtick_2">
     <g id="text_2">
      <!-- 17 -->
      <g style="fill: #444444" transform="translate(135.421489 229.840141)scale(0.09 -0.09)">
       <defs>
        <path id="ArialMT-31" d="M 2384 0 
L 1822 0 
L 1822 3584 
Q 1619 3391 1289 3197 
Q 959 3003 697 2906 
L 697 3450 
Q 1169 3672 1522 3987 
Q 1875 4303 2022 4600 
L 2384 4600 
L 2384 0 
z
" transform="scale(0.015625)"/>
        <path id="ArialMT-37" d="M 303 3981 
L 303 4522 
L 3269 4522 
L 3269 4084 
Q 2831 3619 2401 2847 
Q 1972 2075 1738 1259 
Q 1569 684 1522 0 
L 944 0 
Q 953 541 1156 1306 
Q 1359 2072 1739 2783 
Q 2119 3494 2547 3981 
L 303 3981 
z
" transform="scale(0.015625)"/>
       </defs>
       <use xlink:href="#ArialMT-31"/>
       <use xlink:href="#ArialMT-37" x="55.615234"/>
      </g>
     </g>
    </g>
    <g id="xtick_3">
     <g id="text_3">
      <!-- 69 -->
      <g style="fill: #444444" transform="translate(200.892378 229.840141)scale(0.09 -0.09)">
       <defs>
        <path id="ArialMT-36" d="M 3184 3459 
L 2625 3416 
Q 2550 3747 2413 3897 
Q 2184 4138 1850 4138 
Q 1581 4138 1378 3988 
Q 1113 3794 959 3422 
Q 806 3050 800 2363 
Q 1003 2672 1297 2822 
Q 1591 2972 1913 2972 
Q 2475 2972 2870 2558 
Q 3266 2144 3266 1488 
Q 3266 1056 3080 686 
Q 2894 316 2569 119 
Q 2244 -78 1831 -78 
Q 1128 -78 684 439 
Q 241 956 241 2144 
Q 241 3472 731 4075 
Q 1159 4600 1884 4600 
Q 2425 4600 2770 4297 
Q 3116 3994 3184 3459 
z
M 888 1484 
Q 888 1194 1011 928 
Q 1134 663 1356 523 
Q 1578 384 1822 384 
Q 2178 384 2434 671 
Q 2691 959 2691 1453 
Q 2691 1928 2437 2201 
Q 2184 2475 1800 2475 
Q 1419 2475 1153 2201 
Q 888 1928 888 1484 
z
" transform="scale(0.015625)"/>
       </defs>
       <use xlink:href="#ArialMT-36"/>
       <use xlink:href="#ArialMT-39" x="55.615234"/>
      </g>
     </g>
    </g>
    <g id="xtick_4">
     <g id="text_4">
      <!-- 15 -->
      <g style="fill: #444444" transform="translate(266.363266 229.840141)scale(0.09 -0.09)">
       <defs>
        <path id="ArialMT-35" d="M 266 1200 
L 856 1250 
Q 922 819 1161 601 
Q 1400 384 1738 384 
Q 2144 384 2425 690 
Q 2706 997 2706 1503 
Q 2706 1984 2436 2262 
Q 2166 2541 1728 2541 
Q 1456 2541 1237 2417 
Q 1019 2294 894 2097 
L 366 2166 
L 809 4519 
L 3088 4519 
L 3088 3981 
L 1259 3981 
L 1013 2750 
Q 1425 3038 1878 3038 
Q 2478 3038 2890 2622 
Q 3303 2206 3303 1553 
Q 3303 931 2941 478 
Q 2500 -78 1738 -78 
Q 1113 -78 717 272 
Q 322 622 266 1200 
z
" transform="scale(0.015625)"/>
       </defs>
       <use xlink:href="#ArialMT-31"/>
       <use xlink:href="#ArialMT-35" x="55.615234"/>
      </g>
     </g>
    </g>
    <g id="xtick_5">
     <g id="text_5">
      <!-- 5 -->
      <g style="fill: #444444" transform="translate(334.336577 229.840141)scale(0.09 -0.09)">
       <use xlink:href="#ArialMT-35"/>
      </g>
     </g>
    </g>
    <g id="xtick_6">
     <g id="text_6">
      <!-- 126 -->
      <g style="fill: #444444" transform="translate(394.802622 229.840141)scale(0.09 -0.09)">
       <defs>
        <path id="ArialMT-32" d="M 3222 541 
L 3222 0 
L 194 0 
Q 188 203 259 391 
Q 375 700 629 1000 
Q 884 1300 1366 1694 
Q 2113 2306 2375 2664 
Q 2638 3022 2638 3341 
Q 2638 3675 2398 3904 
Q 2159 4134 1775 4134 
Q 1369 4134 1125 3890 
Q 881 3647 878 3216 
L 300 3275 
Q 359 3922 746 4261 
Q 1134 4600 1788 4600 
Q 2447 4600 2831 4234 
Q 3216 3869 3216 3328 
Q 3216 3053 3103 2787 
Q 2991 2522 2730 2228 
Q 2469 1934 1863 1422 
Q 1356 997 1212 845 
Q 1069 694 975 541 
L 3222 541 
z
" transform="scale(0.015625)"/>
       </defs>
       <use xlink:href="#ArialMT-31"/>
       <use xlink:href="#ArialMT-32" x="55.615234"/>
       <use xlink:href="#ArialMT-36" x="111.230469"/>
      </g>
     </g>
    </g>
    <g id="xtick_7">
     <g id="text_7">
      <!-- 62 -->
      <g style="fill: #444444" transform="translate(462.775932 229.840141)scale(0.09 -0.09)">
       <use xlink:href="#ArialMT-36"/>
       <use xlink:href="#ArialMT-32" x="55.615234"/>
      </g>
     </g>
    </g>
    <g id="text_8">
     <!-- Patient -->
     <g style="fill: #444444" transform="translate(257.359048 242.070923)scale(0.09 -0.09)">
      <defs>
       <path id="ArialMT-50" d="M 494 0 
L 494 4581 
L 2222 4581 
Q 2678 4581 2919 4538 
Q 3256 4481 3484 4323 
Q 3713 4166 3852 3881 
Q 3991 3597 3991 3256 
Q 3991 2672 3619 2267 
Q 3247 1863 2275 1863 
L 1100 1863 
L 1100 0 
L 494 0 
z
M 1100 2403 
L 2284 2403 
Q 2872 2403 3119 2622 
Q 3366 2841 3366 3238 
Q 3366 3525 3220 3729 
Q 3075 3934 2838 4000 
Q 2684 4041 2272 4041 
L 1100 4041 
L 1100 2403 
z
" transform="scale(0.015625)"/>
       <path id="ArialMT-61" d="M 2588 409 
Q 2275 144 1986 34 
Q 1697 -75 1366 -75 
Q 819 -75 525 192 
Q 231 459 231 875 
Q 231 1119 342 1320 
Q 453 1522 633 1644 
Q 813 1766 1038 1828 
Q 1203 1872 1538 1913 
Q 2219 1994 2541 2106 
Q 2544 2222 2544 2253 
Q 2544 2597 2384 2738 
Q 2169 2928 1744 2928 
Q 1347 2928 1158 2789 
Q 969 2650 878 2297 
L 328 2372 
Q 403 2725 575 2942 
Q 747 3159 1072 3276 
Q 1397 3394 1825 3394 
Q 2250 3394 2515 3294 
Q 2781 3194 2906 3042 
Q 3031 2891 3081 2659 
Q 3109 2516 3109 2141 
L 3109 1391 
Q 3109 606 3145 398 
Q 3181 191 3288 0 
L 2700 0 
Q 2613 175 2588 409 
z
M 2541 1666 
Q 2234 1541 1622 1453 
Q 1275 1403 1131 1340 
Q 988 1278 909 1158 
Q 831 1038 831 891 
Q 831 666 1001 516 
Q 1172 366 1500 366 
Q 1825 366 2078 508 
Q 2331 650 2450 897 
Q 2541 1088 2541 1459 
L 2541 1666 
z
" transform="scale(0.015625)"/>
       <path id="ArialMT-74" d="M 1650 503 
L 1731 6 
Q 1494 -44 1306 -44 
Q 1000 -44 831 53 
Q 663 150 594 308 
Q 525 466 525 972 
L 525 2881 
L 113 2881 
L 113 3319 
L 525 3319 
L 525 4141 
L 1084 4478 
L 1084 3319 
L 1650 3319 
L 1650 2881 
L 1084 2881 
L 1084 941 
Q 1084 700 1114 631 
Q 1144 563 1211 522 
Q 1278 481 1403 481 
Q 1497 481 1650 503 
z
" transform="scale(0.015625)"/>
       <path id="ArialMT-69" d="M 425 3934 
L 425 4581 
L 988 4581 
L 988 3934 
L 425 3934 
z
M 425 0 
L 425 3319 
L 988 3319 
L 988 0 
L 425 0 
z
" transform="scale(0.015625)"/>
       <path id="ArialMT-65" d="M 2694 1069 
L 3275 997 
Q 3138 488 2766 206 
Q 2394 -75 1816 -75 
Q 1088 -75 661 373 
Q 234 822 234 1631 
Q 234 2469 665 2931 
Q 1097 3394 1784 3394 
Q 2450 3394 2872 2941 
Q 3294 2488 3294 1666 
Q 3294 1616 3291 1516 
L 816 1516 
Q 847 969 1125 678 
Q 1403 388 1819 388 
Q 2128 388 2347 550 
Q 2566 713 2694 1069 
z
M 847 1978 
L 2700 1978 
Q 2663 2397 2488 2606 
Q 2219 2931 1791 2931 
Q 1403 2931 1139 2672 
Q 875 2413 847 1978 
z
" transform="scale(0.015625)"/>
       <path id="ArialMT-6e" d="M 422 0 
L 422 3319 
L 928 3319 
L 928 2847 
Q 1294 3394 1984 3394 
Q 2284 3394 2536 3286 
Q 2788 3178 2913 3003 
Q 3038 2828 3088 2588 
Q 3119 2431 3119 2041 
L 3119 0 
L 2556 0 
L 2556 2019 
Q 2556 2363 2490 2533 
Q 2425 2703 2258 2804 
Q 2091 2906 1866 2906 
Q 1506 2906 1245 2678 
Q 984 2450 984 1813 
L 984 0 
L 422 0 
z
" transform="scale(0.015625)"/>
      </defs>
      <use xlink:href="#ArialMT-50"/>
      <use xlink:href="#ArialMT-61" x="66.699219"/>
      <use xlink:href="#ArialMT-74" x="122.314453"/>
      <use xlink:href="#ArialMT-69" x="150.097656"/>
      <use xlink:href="#ArialMT-65" x="172.314453"/>
      <use xlink:href="#ArialMT-6e" x="227.929688"/>
      <use xlink:href="#ArialMT-74" x="283.544922"/>
     </g>
    </g>
   </g>
   <g id="matplotlib.axis_2">
    <g id="ytick_1">
     <g id="text_9">
      <!-- 0 -->
      <g style="fill: #444444" transform="translate(27.715156 212.880774)scale(0.09 -0.09)">
       <defs>
        <path id="ArialMT-30" d="M 266 2259 
Q 266 3072 433 3567 
Q 600 4063 929 4331 
Q 1259 4600 1759 4600 
Q 2128 4600 2406 4451 
Q 2684 4303 2865 4023 
Q 3047 3744 3150 3342 
Q 3253 2941 3253 2259 
Q 3253 1453 3087 958 
Q 2922 463 2592 192 
Q 2263 -78 1759 -78 
Q 1097 -78 719 397 
Q 266 969 266 2259 
z
M 844 2259 
Q 844 1131 1108 757 
Q 1372 384 1759 384 
Q 2147 384 2411 759 
Q 2675 1134 2675 2259 
Q 2675 3391 2411 3762 
Q 2147 4134 1753 4134 
Q 1366 4134 1134 3806 
Q 844 3388 844 2259 
z
" transform="scale(0.015625)"/>
       </defs>
       <use xlink:href="#ArialMT-30"/>
      </g>
     </g>
    </g>
    <g id="ytick_2">
     <g id="text_10">
      <!-- 10 -->
      <g style="fill: #444444" transform="translate(22.710313 189.007768)scale(0.09 -0.09)">
       <use xlink:href="#ArialMT-31"/>
       <use xlink:href="#ArialMT-30" x="55.615234"/>
      </g>
     </g>
    </g>
    <g id="ytick_3">
     <g id="text_11">
      <!-- 20 -->
      <g style="fill: #444444" transform="translate(22.710313 165.134761)scale(0.09 -0.09)">
       <use xlink:href="#ArialMT-32"/>
       <use xlink:href="#ArialMT-30" x="55.615234"/>
      </g>
     </g>
    </g>
    <g id="ytick_4">
     <g id="text_12">
      <!-- 30 -->
      <g style="fill: #444444" transform="translate(22.710313 141.261755)scale(0.09 -0.09)">
       <defs>
        <path id="ArialMT-33" d="M 269 1209 
L 831 1284 
Q 928 806 1161 595 
Q 1394 384 1728 384 
Q 2125 384 2398 659 
Q 2672 934 2672 1341 
Q 2672 1728 2419 1979 
Q 2166 2231 1775 2231 
Q 1616 2231 1378 2169 
L 1441 2663 
Q 1497 2656 1531 2656 
Q 1891 2656 2178 2843 
Q 2466 3031 2466 3422 
Q 2466 3731 2256 3934 
Q 2047 4138 1716 4138 
Q 1388 4138 1169 3931 
Q 950 3725 888 3313 
L 325 3413 
Q 428 3978 793 4289 
Q 1159 4600 1703 4600 
Q 2078 4600 2393 4439 
Q 2709 4278 2876 4000 
Q 3044 3722 3044 3409 
Q 3044 3113 2884 2869 
Q 2725 2625 2413 2481 
Q 2819 2388 3044 2092 
Q 3269 1797 3269 1353 
Q 3269 753 2831 336 
Q 2394 -81 1725 -81 
Q 1122 -81 723 278 
Q 325 638 269 1209 
z
" transform="scale(0.015625)"/>
       </defs>
       <use xlink:href="#ArialMT-33"/>
       <use xlink:href="#ArialMT-30" x="55.615234"/>
      </g>
     </g>
    </g>
    <g id="ytick_5">
     <g id="text_13">
      <!-- 40 -->
      <g style="fill: #444444" transform="translate(22.710313 117.388748)scale(0.09 -0.09)">
       <use xlink:href="#ArialMT-34"/>
       <use xlink:href="#ArialMT-30" x="55.615234"/>
      </g>
     </g>
    </g>
    <g id="ytick_6">
     <g id="text_14">
      <!-- 50 -->
      <g style="fill: #444444" transform="translate(22.710313 93.515741)scale(0.09 -0.09)">
       <use xlink:href="#ArialMT-35"/>
       <use xlink:href="#ArialMT-30" x="55.615234"/>
      </g>
     </g>
    </g>
    <g id="ytick_7">
     <g id="text_15">
      <!-- 60 -->
      <g style="fill: #444444" transform="translate(22.710313 69.642735)scale(0.09 -0.09)">
       <use xlink:href="#ArialMT-36"/>
       <use xlink:href="#ArialMT-30" x="55.615234"/>
      </g>
     </g>
    </g>
    <g id="ytick_8">
     <g id="text_16">
      <!-- 70 -->
      <g style="fill: #444444" transform="translate(22.710313 45.769728)scale(0.09 -0.09)">
       <use xlink:href="#ArialMT-37"/>
       <use xlink:href="#ArialMT-30" x="55.615234"/>
      </g>
     </g>
    </g>
    <g id="text_17">
     <!-- Trimmed Means of M values (TMM) -->
     <g style="fill: #444444" transform="translate(16.816094 190.194993)rotate(-90)scale(0.09 -0.09)">
      <defs>
       <path id="ArialMT-54" d="M 1659 0 
L 1659 4041 
L 150 4041 
L 150 4581 
L 3781 4581 
L 3781 4041 
L 2266 4041 
L 2266 0 
L 1659 0 
z
" transform="scale(0.015625)"/>
       <path id="ArialMT-72" d="M 416 0 
L 416 3319 
L 922 3319 
L 922 2816 
Q 1116 3169 1280 3281 
Q 1444 3394 1641 3394 
Q 1925 3394 2219 3213 
L 2025 2691 
Q 1819 2813 1613 2813 
Q 1428 2813 1281 2702 
Q 1134 2591 1072 2394 
Q 978 2094 978 1738 
L 978 0 
L 416 0 
z
" transform="scale(0.015625)"/>
       <path id="ArialMT-6d" d="M 422 0 
L 422 3319 
L 925 3319 
L 925 2853 
Q 1081 3097 1340 3245 
Q 1600 3394 1931 3394 
Q 2300 3394 2536 3241 
Q 2772 3088 2869 2813 
Q 3263 3394 3894 3394 
Q 4388 3394 4653 3120 
Q 4919 2847 4919 2278 
L 4919 0 
L 4359 0 
L 4359 2091 
Q 4359 2428 4304 2576 
Q 4250 2725 4106 2815 
Q 3963 2906 3769 2906 
Q 3419 2906 3187 2673 
Q 2956 2441 2956 1928 
L 2956 0 
L 2394 0 
L 2394 2156 
Q 2394 2531 2256 2718 
Q 2119 2906 1806 2906 
Q 1569 2906 1367 2781 
Q 1166 2656 1075 2415 
Q 984 2175 984 1722 
L 984 0 
L 422 0 
z
" transform="scale(0.015625)"/>
       <path id="ArialMT-64" d="M 2575 0 
L 2575 419 
Q 2259 -75 1647 -75 
Q 1250 -75 917 144 
Q 584 363 401 755 
Q 219 1147 219 1656 
Q 219 2153 384 2558 
Q 550 2963 881 3178 
Q 1213 3394 1622 3394 
Q 1922 3394 2156 3267 
Q 2391 3141 2538 2938 
L 2538 4581 
L 3097 4581 
L 3097 0 
L 2575 0 
z
M 797 1656 
Q 797 1019 1065 703 
Q 1334 388 1700 388 
Q 2069 388 2326 689 
Q 2584 991 2584 1609 
Q 2584 2291 2321 2609 
Q 2059 2928 1675 2928 
Q 1300 2928 1048 2622 
Q 797 2316 797 1656 
z
" transform="scale(0.015625)"/>
       <path id="ArialMT-20" transform="scale(0.015625)"/>
       <path id="ArialMT-4d" d="M 475 0 
L 475 4581 
L 1388 4581 
L 2472 1338 
Q 2622 884 2691 659 
Q 2769 909 2934 1394 
L 4031 4581 
L 4847 4581 
L 4847 0 
L 4263 0 
L 4263 3834 
L 2931 0 
L 2384 0 
L 1059 3900 
L 1059 0 
L 475 0 
z
" transform="scale(0.015625)"/>
       <path id="ArialMT-73" d="M 197 991 
L 753 1078 
Q 800 744 1014 566 
Q 1228 388 1613 388 
Q 2000 388 2187 545 
Q 2375 703 2375 916 
Q 2375 1106 2209 1216 
Q 2094 1291 1634 1406 
Q 1016 1563 777 1677 
Q 538 1791 414 1992 
Q 291 2194 291 2438 
Q 291 2659 392 2848 
Q 494 3038 669 3163 
Q 800 3259 1026 3326 
Q 1253 3394 1513 3394 
Q 1903 3394 2198 3281 
Q 2494 3169 2634 2976 
Q 2775 2784 2828 2463 
L 2278 2388 
Q 2241 2644 2061 2787 
Q 1881 2931 1553 2931 
Q 1166 2931 1000 2803 
Q 834 2675 834 2503 
Q 834 2394 903 2306 
Q 972 2216 1119 2156 
Q 1203 2125 1616 2013 
Q 2213 1853 2448 1751 
Q 2684 1650 2818 1456 
Q 2953 1263 2953 975 
Q 2953 694 2789 445 
Q 2625 197 2315 61 
Q 2006 -75 1616 -75 
Q 969 -75 630 194 
Q 291 463 197 991 
z
" transform="scale(0.015625)"/>
       <path id="ArialMT-6f" d="M 213 1659 
Q 213 2581 725 3025 
Q 1153 3394 1769 3394 
Q 2453 3394 2887 2945 
Q 3322 2497 3322 1706 
Q 3322 1066 3130 698 
Q 2938 331 2570 128 
Q 2203 -75 1769 -75 
Q 1072 -75 642 372 
Q 213 819 213 1659 
z
M 791 1659 
Q 791 1022 1069 705 
Q 1347 388 1769 388 
Q 2188 388 2466 706 
Q 2744 1025 2744 1678 
Q 2744 2294 2464 2611 
Q 2184 2928 1769 2928 
Q 1347 2928 1069 2612 
Q 791 2297 791 1659 
z
" transform="scale(0.015625)"/>
       <path id="ArialMT-66" d="M 556 0 
L 556 2881 
L 59 2881 
L 59 3319 
L 556 3319 
L 556 3672 
Q 556 4006 616 4169 
Q 697 4388 901 4523 
Q 1106 4659 1475 4659 
Q 1713 4659 2000 4603 
L 1916 4113 
Q 1741 4144 1584 4144 
Q 1328 4144 1222 4034 
Q 1116 3925 1116 3625 
L 1116 3319 
L 1763 3319 
L 1763 2881 
L 1116 2881 
L 1116 0 
L 556 0 
z
" transform="scale(0.015625)"/>
       <path id="ArialMT-76" d="M 1344 0 
L 81 3319 
L 675 3319 
L 1388 1331 
Q 1503 1009 1600 663 
Q 1675 925 1809 1294 
L 2547 3319 
L 3125 3319 
L 1869 0 
L 1344 0 
z
" transform="scale(0.015625)"/>
       <path id="ArialMT-6c" d="M 409 0 
L 409 4581 
L 972 4581 
L 972 0 
L 409 0 
z
" transform="scale(0.015625)"/>
       <path id="ArialMT-75" d="M 2597 0 
L 2597 488 
Q 2209 -75 1544 -75 
Q 1250 -75 995 37 
Q 741 150 617 320 
Q 494 491 444 738 
Q 409 903 409 1263 
L 409 3319 
L 972 3319 
L 972 1478 
Q 972 1038 1006 884 
Q 1059 663 1231 536 
Q 1403 409 1656 409 
Q 1909 409 2131 539 
Q 2353 669 2445 892 
Q 2538 1116 2538 1541 
L 2538 3319 
L 3100 3319 
L 3100 0 
L 2597 0 
z
" transform="scale(0.015625)"/>
       <path id="ArialMT-28" d="M 1497 -1347 
Q 1031 -759 709 28 
Q 388 816 388 1659 
Q 388 2403 628 3084 
Q 909 3875 1497 4659 
L 1900 4659 
Q 1522 4009 1400 3731 
Q 1209 3300 1100 2831 
Q 966 2247 966 1656 
Q 966 153 1900 -1347 
L 1497 -1347 
z
" transform="scale(0.015625)"/>
       <path id="ArialMT-29" d="M 791 -1347 
L 388 -1347 
Q 1322 153 1322 1656 
Q 1322 2244 1188 2822 
Q 1081 3291 891 3722 
Q 769 4003 388 4659 
L 791 4659 
Q 1378 3875 1659 3084 
Q 1900 2403 1900 1659 
Q 1900 816 1576 28 
Q 1253 -759 791 -1347 
z
" transform="scale(0.015625)"/>
      </defs>
      <use xlink:href="#ArialMT-54"/>
      <use xlink:href="#ArialMT-72" x="57.333984"/>
      <use xlink:href="#ArialMT-69" x="90.634766"/>
      <use xlink:href="#ArialMT-6d" x="112.851562"/>
      <use xlink:href="#ArialMT-6d" x="196.152344"/>
      <use xlink:href="#ArialMT-65" x="279.453125"/>
      <use xlink:href="#ArialMT-64" x="335.068359"/>
      <use xlink:href="#ArialMT-20" x="390.683594"/>
      <use xlink:href="#ArialMT-4d" x="418.466797"/>
      <use xlink:href="#ArialMT-65" x="501.767578"/>
      <use xlink:href="#ArialMT-61" x="557.382812"/>
      <use xlink:href="#ArialMT-6e" x="612.998047"/>
      <use xlink:href="#ArialMT-73" x="668.613281"/>
      <use xlink:href="#ArialMT-20" x="718.613281"/>
      <use xlink:href="#ArialMT-6f" x="746.396484"/>
      <use xlink:href="#ArialMT-66" x="802.011719"/>
      <use xlink:href="#ArialMT-20" x="829.794922"/>
      <use xlink:href="#ArialMT-4d" x="857.578125"/>
      <use xlink:href="#ArialMT-20" x="940.878906"/>
      <use xlink:href="#ArialMT-76" x="968.662109"/>
      <use xlink:href="#ArialMT-61" x="1018.662109"/>
      <use xlink:href="#ArialMT-6c" x="1074.277344"/>
      <use xlink:href="#ArialMT-75" x="1096.494141"/>
      <use xlink:href="#ArialMT-65" x="1152.109375"/>
      <use xlink:href="#ArialMT-73" x="1207.724609"/>
      <use xlink:href="#ArialMT-20" x="1257.724609"/>
      <use xlink:href="#ArialMT-28" x="1285.507812"/>
      <use xlink:href="#ArialMT-54" x="1318.808594"/>
      <use xlink:href="#ArialMT-4d" x="1379.892578"/>
      <use xlink:href="#ArialMT-4d" x="1463.193359"/>
      <use xlink:href="#ArialMT-29" x="1546.494141"/>
     </g>
    </g>
   </g>
   <g id="PolyCollection_1">
    <defs>
     <path id="m0deb7ff4bb" d="M 85.492354 -105.782139 
L 64.418534 -105.782139 
L 64.280865 -106.306076 
L 64.155127 -106.830013 
L 64.041494 -107.35395 
L 63.940073 -107.877887 
L 63.850904 -108.401825 
L 63.77396 -108.925762 
L 63.709146 -109.449699 
L 63.656307 -109.973636 
L 63.615222 -110.497573 
L 63.585616 -111.02151 
L 63.567155 -111.545447 
L 63.559457 -112.069384 
L 63.562091 -112.593322 
L 63.574587 -113.117259 
L 63.596436 -113.641196 
L 63.627099 -114.165133 
L 63.666012 -114.68907 
L 63.712591 -115.213007 
L 63.766238 -115.736944 
L 63.826349 -116.260881 
L 63.892316 -116.784819 
L 63.963534 -117.308756 
L 64.03941 -117.832693 
L 64.119363 -118.35663 
L 64.202832 -118.880567 
L 64.28928 -119.404504 
L 64.378198 -119.928441 
L 64.469106 -120.452378 
L 64.561562 -120.976316 
L 64.655158 -121.500253 
L 64.749529 -122.02419 
L 64.844348 -122.548127 
L 64.939329 -123.072064 
L 65.034232 -123.596001 
L 65.128855 -124.119938 
L 65.223041 -124.643876 
L 65.31667 -125.167813 
L 65.409663 -125.69175 
L 65.501978 -126.215687 
L 65.593606 -126.739624 
L 65.68457 -127.263561 
L 65.774921 -127.787498 
L 65.864737 -128.311435 
L 65.954115 -128.835373 
L 66.043171 -129.35931 
L 66.132036 -129.883247 
L 66.22085 -130.407184 
L 66.309761 -130.931121 
L 66.398919 -131.455058 
L 66.488474 -131.978995 
L 66.578573 -132.502932 
L 66.669353 -133.02687 
L 66.760944 -133.550807 
L 66.853463 -134.074744 
L 66.947012 -134.598681 
L 67.041675 -135.122618 
L 67.13752 -135.646555 
L 67.234596 -136.170492 
L 67.332929 -136.694429 
L 67.432527 -137.218367 
L 67.533378 -137.742304 
L 67.635449 -138.266241 
L 67.738687 -138.790178 
L 67.843021 -139.314115 
L 67.948365 -139.838052 
L 68.054615 -140.361989 
L 68.161656 -140.885926 
L 68.26936 -141.409864 
L 68.377589 -141.933801 
L 68.486201 -142.457738 
L 68.595046 -142.981675 
L 68.703975 -143.505612 
L 68.812837 -144.029549 
L 68.921483 -144.553486 
L 69.029771 -145.077424 
L 69.137565 -145.601361 
L 69.244737 -146.125298 
L 69.351169 -146.649235 
L 69.456756 -147.173172 
L 69.561406 -147.697109 
L 69.665042 -148.221046 
L 69.7676 -148.744983 
L 69.869032 -149.268921 
L 69.969307 -149.792858 
L 70.068407 -150.316795 
L 70.16633 -150.840732 
L 70.263091 -151.364669 
L 70.358714 -151.888606 
L 70.453238 -152.412543 
L 70.546713 -152.93648 
L 70.639199 -153.460418 
L 70.730764 -153.984355 
L 70.821483 -154.508292 
L 70.911433 -155.032229 
L 71.000698 -155.556166 
L 71.08936 -156.080103 
L 71.177502 -156.60404 
L 71.265205 -157.127977 
L 71.352544 -157.651915 
L 78.558345 -157.651915 
L 78.558345 -157.651915 
L 78.645684 -157.127977 
L 78.733386 -156.60404 
L 78.821529 -156.080103 
L 78.910191 -155.556166 
L 78.999456 -155.032229 
L 79.089406 -154.508292 
L 79.180124 -153.984355 
L 79.271689 -153.460418 
L 79.364176 -152.93648 
L 79.457651 -152.412543 
L 79.552175 -151.888606 
L 79.647798 -151.364669 
L 79.744558 -150.840732 
L 79.842482 -150.316795 
L 79.941582 -149.792858 
L 80.041856 -149.268921 
L 80.143289 -148.744983 
L 80.245847 -148.221046 
L 80.349482 -147.697109 
L 80.454133 -147.173172 
L 80.55972 -146.649235 
L 80.666152 -146.125298 
L 80.773323 -145.601361 
L 80.881117 -145.077424 
L 80.989405 -144.553486 
L 81.098052 -144.029549 
L 81.206914 -143.505612 
L 81.315842 -142.981675 
L 81.424688 -142.457738 
L 81.533299 -141.933801 
L 81.641529 -141.409864 
L 81.749233 -140.885926 
L 81.856273 -140.361989 
L 81.962524 -139.838052 
L 82.067868 -139.314115 
L 82.172202 -138.790178 
L 82.27544 -138.266241 
L 82.37751 -137.742304 
L 82.478361 -137.218367 
L 82.57796 -136.694429 
L 82.676293 -136.170492 
L 82.773368 -135.646555 
L 82.869214 -135.122618 
L 82.963877 -134.598681 
L 83.057425 -134.074744 
L 83.149944 -133.550807 
L 83.241536 -133.02687 
L 83.332316 -132.502932 
L 83.422414 -131.978995 
L 83.511969 -131.455058 
L 83.601128 -130.931121 
L 83.690039 -130.407184 
L 83.778853 -129.883247 
L 83.867718 -129.35931 
L 83.956774 -128.835373 
L 84.046152 -128.311435 
L 84.135967 -127.787498 
L 84.226319 -127.263561 
L 84.317283 -126.739624 
L 84.40891 -126.215687 
L 84.501225 -125.69175 
L 84.594219 -125.167813 
L 84.687848 -124.643876 
L 84.782033 -124.119938 
L 84.876657 -123.596001 
L 84.971559 -123.072064 
L 85.066541 -122.548127 
L 85.161359 -122.02419 
L 85.25573 -121.500253 
L 85.349327 -120.976316 
L 85.441783 -120.452378 
L 85.532691 -119.928441 
L 85.621608 -119.404504 
L 85.708056 -118.880567 
L 85.791526 -118.35663 
L 85.871479 -117.832693 
L 85.947355 -117.308756 
L 86.018573 -116.784819 
L 86.08454 -116.260881 
L 86.14465 -115.736944 
L 86.198298 -115.213007 
L 86.244877 -114.68907 
L 86.28379 -114.165133 
L 86.314453 -113.641196 
L 86.336302 -113.117259 
L 86.348798 -112.593322 
L 86.351432 -112.069384 
L 86.343734 -111.545447 
L 86.325273 -111.02151 
L 86.295666 -110.497573 
L 86.254582 -109.973636 
L 86.201742 -109.449699 
L 86.136929 -108.925762 
L 86.059984 -108.401825 
L 85.970815 -107.877887 
L 85.869395 -107.35395 
L 85.755762 -106.830013 
L 85.630024 -106.306076 
L 85.492354 -105.782139 
z
" style="stroke: #999999; stroke-width: 2"/>
    </defs>
    <g clip-path="url(#p41b11c7b3d)">
     <use xlink:href="#m0deb7ff4bb" x="0" y="255.11811" style="fill: #ffffff; stroke: #999999; stroke-width: 2"/>
    </g>
   </g>
   <g id="PolyCollection_2">
    <defs>
     <path id="m748d192740" d="M 150.31443 -92.087803 
L 130.538236 -92.087803 
L 130.162375 -92.59861 
L 129.789437 -93.109416 
L 129.420676 -93.620223 
L 129.057359 -94.13103 
L 128.700761 -94.641837 
L 128.352154 -95.152644 
L 128.012799 -95.663451 
L 127.683941 -96.174258 
L 127.366793 -96.685065 
L 127.062536 -97.195872 
L 126.772304 -97.706679 
L 126.497178 -98.217486 
L 126.238181 -98.728293 
L 125.996268 -99.2391 
L 125.77232 -99.749907 
L 125.567139 -100.260714 
L 125.381442 -100.771521 
L 125.215857 -101.282328 
L 125.07092 -101.793135 
L 124.947073 -102.303942 
L 124.844659 -102.814749 
L 124.763925 -103.325556 
L 124.705021 -103.836363 
L 124.667999 -104.34717 
L 124.652817 -104.857977 
L 124.659338 -105.368784 
L 124.687338 -105.879591 
L 124.736505 -106.390398 
L 124.806446 -106.901205 
L 124.896692 -107.412012 
L 125.006697 -107.922819 
L 125.135853 -108.433626 
L 125.283487 -108.944433 
L 125.44887 -109.45524 
L 125.631222 -109.966047 
L 125.829716 -110.476854 
L 126.043487 -110.987661 
L 126.271632 -111.498468 
L 126.513218 -112.009275 
L 126.767285 -112.520082 
L 127.032853 -113.030889 
L 127.308921 -113.541696 
L 127.594476 -114.052503 
L 127.888493 -114.56331 
L 128.189939 -115.074117 
L 128.497778 -115.584924 
L 128.810969 -116.095731 
L 129.128475 -116.606538 
L 129.44926 -117.117344 
L 129.772298 -117.628151 
L 130.096568 -118.138958 
L 130.421064 -118.649765 
L 130.744791 -119.160572 
L 131.066774 -119.671379 
L 131.38606 -120.182186 
L 131.701717 -120.692993 
L 132.012843 -121.2038 
L 132.318567 -121.714607 
L 132.618054 -122.225414 
L 132.910506 -122.736221 
L 133.19517 -123.247028 
L 133.471343 -123.757835 
L 133.73837 -124.268642 
L 133.995655 -124.779449 
L 134.24266 -125.290256 
L 134.478913 -125.801063 
L 134.704008 -126.31187 
L 134.91761 -126.822677 
L 135.119458 -127.333484 
L 135.309367 -127.844291 
L 135.487228 -128.355098 
L 135.653014 -128.865905 
L 135.806774 -129.376712 
L 135.948638 -129.887519 
L 136.078813 -130.398326 
L 136.197583 -130.909133 
L 136.305306 -131.41994 
L 136.402409 -131.930747 
L 136.489387 -132.441554 
L 136.566797 -132.952361 
L 136.635251 -133.463168 
L 136.695412 -133.973975 
L 136.747985 -134.484782 
L 136.793712 -134.995589 
L 136.833366 -135.506396 
L 136.867737 -136.017203 
L 136.897631 -136.52801 
L 136.923856 -137.038817 
L 136.947217 -137.549624 
L 136.968509 -138.060431 
L 136.988505 -138.571238 
L 137.007953 -139.082045 
L 137.027563 -139.592852 
L 137.048009 -140.103659 
L 137.069913 -140.614466 
L 137.09385 -141.125272 
L 137.120332 -141.636079 
L 137.149816 -142.146886 
L 137.182691 -142.657693 
L 143.669975 -142.657693 
L 143.669975 -142.657693 
L 143.70285 -142.146886 
L 143.732334 -141.636079 
L 143.758816 -141.125272 
L 143.782752 -140.614466 
L 143.804657 -140.103659 
L 143.825103 -139.592852 
L 143.844713 -139.082045 
L 143.86416 -138.571238 
L 143.884157 -138.060431 
L 143.905449 -137.549624 
L 143.92881 -137.038817 
L 143.955035 -136.52801 
L 143.984929 -136.017203 
L 144.0193 -135.506396 
L 144.058954 -134.995589 
L 144.104681 -134.484782 
L 144.157254 -133.973975 
L 144.217415 -133.463168 
L 144.285869 -132.952361 
L 144.363278 -132.441554 
L 144.450257 -131.930747 
L 144.54736 -131.41994 
L 144.655083 -130.909133 
L 144.773853 -130.398326 
L 144.904028 -129.887519 
L 145.045892 -129.376712 
L 145.199652 -128.865905 
L 145.365437 -128.355098 
L 145.543299 -127.844291 
L 145.733208 -127.333484 
L 145.935056 -126.822677 
L 146.148658 -126.31187 
L 146.373753 -125.801063 
L 146.610006 -125.290256 
L 146.857011 -124.779449 
L 147.114296 -124.268642 
L 147.381323 -123.757835 
L 147.657495 -123.247028 
L 147.94216 -122.736221 
L 148.234612 -122.225414 
L 148.534099 -121.714607 
L 148.839823 -121.2038 
L 149.150949 -120.692993 
L 149.466606 -120.182186 
L 149.785892 -119.671379 
L 150.107875 -119.160572 
L 150.431602 -118.649765 
L 150.756097 -118.138958 
L 151.080368 -117.628151 
L 151.403405 -117.117344 
L 151.724191 -116.606538 
L 152.041697 -116.095731 
L 152.354888 -115.584924 
L 152.662726 -115.074117 
L 152.964173 -114.56331 
L 153.25819 -114.052503 
L 153.543745 -113.541696 
L 153.819813 -113.030889 
L 154.085381 -112.520082 
L 154.339448 -112.009275 
L 154.581034 -111.498468 
L 154.809179 -110.987661 
L 155.02295 -110.476854 
L 155.221444 -109.966047 
L 155.403796 -109.45524 
L 155.569179 -108.944433 
L 155.716812 -108.433626 
L 155.845969 -107.922819 
L 155.955974 -107.412012 
L 156.04622 -106.901205 
L 156.116161 -106.390398 
L 156.165328 -105.879591 
L 156.193328 -105.368784 
L 156.199849 -104.857977 
L 156.184667 -104.34717 
L 156.147645 -103.836363 
L 156.088741 -103.325556 
L 156.008007 -102.814749 
L 155.905593 -102.303942 
L 155.781746 -101.793135 
L 155.636809 -101.282328 
L 155.471224 -100.771521 
L 155.285527 -100.260714 
L 155.080346 -99.749907 
L 154.856398 -99.2391 
L 154.614485 -98.728293 
L 154.355488 -98.217486 
L 154.080362 -97.706679 
L 153.79013 -97.195872 
L 153.485873 -96.685065 
L 153.168725 -96.174258 
L 152.839867 -95.663451 
L 152.500512 -95.152644 
L 152.151905 -94.641837 
L 151.795307 -94.13103 
L 151.43199 -93.620223 
L 151.063229 -93.109416 
L 150.690291 -92.59861 
L 150.31443 -92.087803 
z
" style="stroke: #999999; stroke-width: 2"/>
    </defs>
    <g clip-path="url(#p41b11c7b3d)">
     <use xlink:href="#m748d192740" x="0" y="255.11811" style="fill: #ffffff; stroke: #999999; stroke-width: 2"/>
    </g>
   </g>
   <g id="PolyCollection_3">
    <defs>
     <path id="mdccbc364dc" d="M 210.80091 -61.335305 
L 200.993533 -61.335305 
L 200.873907 -62.615384 
L 200.759882 -63.895462 
L 200.651962 -65.175541 
L 200.550627 -66.45562 
L 200.456334 -67.735698 
L 200.369511 -69.015777 
L 200.290551 -70.295856 
L 200.219815 -71.575934 
L 200.157623 -72.856013 
L 200.104252 -74.136092 
L 200.059937 -75.41617 
L 200.024864 -76.696249 
L 199.999172 -77.976328 
L 199.982949 -79.256406 
L 199.976233 -80.536485 
L 199.979009 -81.816564 
L 199.991211 -83.096642 
L 200.012722 -84.376721 
L 200.043371 -85.6568 
L 200.082942 -86.936878 
L 200.131166 -88.216957 
L 200.187733 -89.497036 
L 200.252285 -90.777114 
L 200.324424 -92.057193 
L 200.403717 -93.337272 
L 200.489693 -94.61735 
L 200.581854 -95.897429 
L 200.679671 -97.177508 
L 200.782596 -98.457586 
L 200.890061 -99.737665 
L 201.001486 -101.017744 
L 201.116281 -102.297822 
L 201.233849 -103.577901 
L 201.353596 -104.85798 
L 201.474929 -106.138058 
L 201.597266 -107.418137 
L 201.720035 -108.698216 
L 201.842681 -109.978294 
L 201.964669 -111.258373 
L 202.085487 -112.538452 
L 202.20465 -113.81853 
L 202.321701 -115.098609 
L 202.436215 -116.378688 
L 202.547801 -117.658766 
L 202.656103 -118.938845 
L 202.760802 -120.218924 
L 202.861617 -121.499002 
L 202.958303 -122.779081 
L 203.050657 -124.05916 
L 203.138513 -125.339238 
L 203.221742 -126.619317 
L 203.300255 -127.899396 
L 203.373996 -129.179474 
L 203.442948 -130.459553 
L 203.507124 -131.739632 
L 203.566572 -133.01971 
L 203.621367 -134.299789 
L 203.671614 -135.579868 
L 203.717444 -136.859946 
L 203.759009 -138.140025 
L 203.796483 -139.420104 
L 203.83006 -140.700182 
L 203.859948 -141.980261 
L 203.88637 -143.26034 
L 203.90956 -144.540418 
L 203.92976 -145.820497 
L 203.947221 -147.100576 
L 203.962196 -148.380654 
L 203.974941 -149.660733 
L 203.985713 -150.940812 
L 203.994769 -152.22089 
L 204.002359 -153.500969 
L 204.008734 -154.781048 
L 204.014133 -156.061126 
L 204.018792 -157.341205 
L 204.022937 -158.621284 
L 204.026784 -159.901362 
L 204.030541 -161.181441 
L 204.034403 -162.46152 
L 204.038554 -163.741598 
L 204.043166 -165.021677 
L 204.048398 -166.301756 
L 204.054397 -167.581834 
L 204.061297 -168.861913 
L 204.069219 -170.141992 
L 204.078271 -171.42207 
L 204.088547 -172.702149 
L 204.100129 -173.982228 
L 204.113087 -175.262306 
L 204.127477 -176.542385 
L 204.143343 -177.822464 
L 204.160717 -179.102542 
L 204.17962 -180.382621 
L 204.200062 -181.6627 
L 204.222039 -182.942778 
L 204.245541 -184.222857 
L 204.270544 -185.502936 
L 204.297016 -186.783014 
L 204.324916 -188.063093 
L 207.469528 -188.063093 
L 207.469528 -188.063093 
L 207.497427 -186.783014 
L 207.523899 -185.502936 
L 207.548902 -184.222857 
L 207.572404 -182.942778 
L 207.594381 -181.6627 
L 207.614823 -180.382621 
L 207.633726 -179.102542 
L 207.6511 -177.822464 
L 207.666966 -176.542385 
L 207.681356 -175.262306 
L 207.694314 -173.982228 
L 207.705896 -172.702149 
L 207.716172 -171.42207 
L 207.725224 -170.141992 
L 207.733146 -168.861913 
L 207.740046 -167.581834 
L 207.746045 -166.301756 
L 207.751277 -165.021677 
L 207.755889 -163.741598 
L 207.76004 -162.46152 
L 207.763902 -161.181441 
L 207.767659 -159.901362 
L 207.771506 -158.621284 
L 207.775651 -157.341205 
L 207.78031 -156.061126 
L 207.78571 -154.781048 
L 207.792084 -153.500969 
L 207.799675 -152.22089 
L 207.80873 -150.940812 
L 207.819503 -149.660733 
L 207.832248 -148.380654 
L 207.847222 -147.100576 
L 207.864683 -145.820497 
L 207.884883 -144.540418 
L 207.908073 -143.26034 
L 207.934495 -141.980261 
L 207.964384 -140.700182 
L 207.99796 -139.420104 
L 208.035435 -138.140025 
L 208.076999 -136.859946 
L 208.122829 -135.579868 
L 208.173076 -134.299789 
L 208.227872 -133.01971 
L 208.287319 -131.739632 
L 208.351495 -130.459553 
L 208.420447 -129.179474 
L 208.494188 -127.899396 
L 208.572701 -126.619317 
L 208.65593 -125.339238 
L 208.743786 -124.05916 
L 208.83614 -122.779081 
L 208.932826 -121.499002 
L 209.033641 -120.218924 
L 209.13834 -118.938845 
L 209.246642 -117.658766 
L 209.358228 -116.378688 
L 209.472743 -115.098609 
L 209.589794 -113.81853 
L 209.708956 -112.538452 
L 209.829775 -111.258373 
L 209.951763 -109.978294 
L 210.074408 -108.698216 
L 210.197177 -107.418137 
L 210.319514 -106.138058 
L 210.440847 -104.85798 
L 210.560594 -103.577901 
L 210.678162 -102.297822 
L 210.792957 -101.017744 
L 210.904382 -99.737665 
L 211.011848 -98.457586 
L 211.114773 -97.177508 
L 211.21259 -95.897429 
L 211.30475 -94.61735 
L 211.390726 -93.337272 
L 211.470019 -92.057193 
L 211.542159 -90.777114 
L 211.60671 -89.497036 
L 211.663277 -88.216957 
L 211.711502 -86.936878 
L 211.751072 -85.6568 
L 211.781722 -84.376721 
L 211.803232 -83.096642 
L 211.815434 -81.816564 
L 211.81821 -80.536485 
L 211.811494 -79.256406 
L 211.795271 -77.976328 
L 211.769579 -76.696249 
L 211.734506 -75.41617 
L 211.690191 -74.136092 
L 211.63682 -72.856013 
L 211.574628 -71.575934 
L 211.503892 -70.295856 
L 211.424933 -69.015777 
L 211.338109 -67.735698 
L 211.243816 -66.45562 
L 211.142481 -65.175541 
L 211.034561 -63.895462 
L 210.920537 -62.615384 
L 210.80091 -61.335305 
z
" style="stroke: #999999; stroke-width: 2"/>
    </defs>
    <g clip-path="url(#p41b11c7b3d)">
     <use xlink:href="#mdccbc364dc" x="0" y="255.11811" style="fill: #ffffff; stroke: #999999; stroke-width: 2"/>
    </g>
   </g>
   <g id="PolyCollection_4">
    <defs>
     <path id="mc6b85edf55" d="M 277.937043 -75.717096 
L 264.799177 -75.717096 
L 264.701743 -76.23855 
L 264.608927 -76.760004 
L 264.520704 -77.281457 
L 264.437018 -77.802911 
L 264.357784 -78.324365 
L 264.282894 -78.845818 
L 264.21221 -79.367272 
L 264.145577 -79.888726 
L 264.082816 -80.410179 
L 264.023732 -80.931633 
L 263.968113 -81.453087 
L 263.915738 -81.97454 
L 263.866374 -82.495994 
L 263.819782 -83.017448 
L 263.775719 -83.538902 
L 263.733944 -84.060355 
L 263.694216 -84.581809 
L 263.656299 -85.103263 
L 263.619965 -85.624716 
L 263.584996 -86.14617 
L 263.551187 -86.667624 
L 263.518347 -87.189077 
L 263.486298 -87.710531 
L 263.454884 -88.231985 
L 263.423962 -88.753438 
L 263.393413 -89.274892 
L 263.363133 -89.796346 
L 263.333041 -90.3178 
L 263.303073 -90.839253 
L 263.273186 -91.360707 
L 263.243355 -91.882161 
L 263.213569 -92.403614 
L 263.183838 -92.925068 
L 263.154184 -93.446522 
L 263.124641 -93.967975 
L 263.095255 -94.489429 
L 263.066083 -95.010883 
L 263.037187 -95.532336 
L 263.008636 -96.05379 
L 262.980502 -96.575244 
L 262.95286 -97.096698 
L 262.925781 -97.618151 
L 262.89934 -98.139605 
L 262.873604 -98.661059 
L 262.848638 -99.182512 
L 262.824499 -99.703966 
L 262.80124 -100.22542 
L 262.778905 -100.746873 
L 262.75753 -101.268327 
L 262.737145 -101.789781 
L 262.717771 -102.311234 
L 262.69942 -102.832688 
L 262.6821 -103.354142 
L 262.665812 -103.875596 
L 262.650552 -104.397049 
L 262.636311 -104.918503 
L 262.62308 -105.439957 
L 262.610848 -105.96141 
L 262.599604 -106.482864 
L 262.589343 -107.004318 
L 262.58006 -107.525771 
L 262.571759 -108.047225 
L 262.564451 -108.568679 
L 262.558156 -109.090132 
L 262.552907 -109.611586 
L 262.548746 -110.13304 
L 262.545733 -110.654494 
L 262.543938 -111.175947 
L 262.54345 -111.697401 
L 262.544373 -112.218855 
L 262.546825 -112.740308 
L 262.550945 -113.261762 
L 262.556883 -113.783216 
L 262.564807 -114.304669 
L 262.5749 -114.826123 
L 262.587357 -115.347577 
L 262.602387 -115.869031 
L 262.620207 -116.390484 
L 262.641043 -116.911938 
L 262.66513 -117.433392 
L 262.692703 -117.954845 
L 262.724002 -118.476299 
L 262.759265 -118.997753 
L 262.798725 -119.519206 
L 262.84261 -120.04066 
L 262.89114 -120.562114 
L 262.944521 -121.083567 
L 263.002946 -121.605021 
L 263.066589 -122.126475 
L 263.135606 -122.647929 
L 263.210132 -123.169382 
L 263.290277 -123.690836 
L 263.376123 -124.21229 
L 263.467729 -124.733743 
L 263.56512 -125.255197 
L 263.668294 -125.776651 
L 263.777219 -126.298104 
L 263.891827 -126.819558 
L 264.012024 -127.341012 
L 278.724196 -127.341012 
L 278.724196 -127.341012 
L 278.844393 -126.819558 
L 278.959002 -126.298104 
L 279.067926 -125.776651 
L 279.171101 -125.255197 
L 279.268492 -124.733743 
L 279.360097 -124.21229 
L 279.445944 -123.690836 
L 279.526088 -123.169382 
L 279.600614 -122.647929 
L 279.669632 -122.126475 
L 279.733275 -121.605021 
L 279.791699 -121.083567 
L 279.84508 -120.562114 
L 279.89361 -120.04066 
L 279.937496 -119.519206 
L 279.976956 -118.997753 
L 280.012218 -118.476299 
L 280.043517 -117.954845 
L 280.071091 -117.433392 
L 280.095177 -116.911938 
L 280.116014 -116.390484 
L 280.133834 -115.869031 
L 280.148863 -115.347577 
L 280.16132 -114.826123 
L 280.171414 -114.304669 
L 280.179338 -113.783216 
L 280.185276 -113.261762 
L 280.189395 -112.740308 
L 280.191848 -112.218855 
L 280.19277 -111.697401 
L 280.192282 -111.175947 
L 280.190488 -110.654494 
L 280.187474 -110.13304 
L 280.183314 -109.611586 
L 280.178064 -109.090132 
L 280.17177 -108.568679 
L 280.164462 -108.047225 
L 280.156161 -107.525771 
L 280.146878 -107.004318 
L 280.136616 -106.482864 
L 280.125373 -105.96141 
L 280.11314 -105.439957 
L 280.099909 -104.918503 
L 280.085669 -104.397049 
L 280.070408 -103.875596 
L 280.05412 -103.354142 
L 280.0368 -102.832688 
L 280.01845 -102.311234 
L 279.999075 -101.789781 
L 279.97869 -101.268327 
L 279.957316 -100.746873 
L 279.934981 -100.22542 
L 279.911722 -99.703966 
L 279.887583 -99.182512 
L 279.862616 -98.661059 
L 279.83688 -98.139605 
L 279.810439 -97.618151 
L 279.783361 -97.096698 
L 279.755718 -96.575244 
L 279.727584 -96.05379 
L 279.699033 -95.532336 
L 279.670138 -95.010883 
L 279.640965 -94.489429 
L 279.61158 -93.967975 
L 279.582037 -93.446522 
L 279.552382 -92.925068 
L 279.522651 -92.403614 
L 279.492866 -91.882161 
L 279.463034 -91.360707 
L 279.433147 -90.839253 
L 279.40318 -90.3178 
L 279.373088 -89.796346 
L 279.342808 -89.274892 
L 279.312258 -88.753438 
L 279.281337 -88.231985 
L 279.249922 -87.710531 
L 279.217874 -87.189077 
L 279.185033 -86.667624 
L 279.151224 -86.14617 
L 279.116256 -85.624716 
L 279.079922 -85.103263 
L 279.042005 -84.581809 
L 279.002276 -84.060355 
L 278.960501 -83.538902 
L 278.916439 -83.017448 
L 278.869847 -82.495994 
L 278.820482 -81.97454 
L 278.768107 -81.453087 
L 278.712489 -80.931633 
L 278.653405 -80.410179 
L 278.590644 -79.888726 
L 278.52401 -79.367272 
L 278.453327 -78.845818 
L 278.378436 -78.324365 
L 278.299203 -77.802911 
L 278.215516 -77.281457 
L 278.127293 -76.760004 
L 278.034478 -76.23855 
L 277.937043 -75.717096 
z
" style="stroke: #999999; stroke-width: 2"/>
    </defs>
    <g clip-path="url(#p41b11c7b3d)">
     <use xlink:href="#mc6b85edf55" x="0" y="255.11811" style="fill: #ffffff; stroke: #999999; stroke-width: 2"/>
    </g>
   </g>
   <g id="PolyCollection_5">
    <defs>
     <path id="m5ac57a793a" d="M 340.980617 -55.703855 
L 332.69738 -55.703855 
L 332.638639 -56.991032 
L 332.583435 -58.278209 
L 332.531881 -59.565386 
L 332.484076 -60.852563 
L 332.440106 -62.13974 
L 332.400043 -63.426917 
L 332.363945 -64.714094 
L 332.331857 -66.001271 
L 332.30381 -67.288448 
L 332.279819 -68.575625 
L 332.25989 -69.862802 
L 332.24401 -71.149979 
L 332.232156 -72.437156 
L 332.224292 -73.724334 
L 332.220369 -75.011511 
L 332.220326 -76.298688 
L 332.22409 -77.585865 
L 332.231581 -78.873042 
L 332.242703 -80.160219 
L 332.257356 -81.447396 
L 332.275429 -82.734573 
L 332.296803 -84.02175 
L 332.321352 -85.308927 
L 332.348945 -86.596104 
L 332.379444 -87.883281 
L 332.412707 -89.170458 
L 332.448587 -90.457635 
L 332.486937 -91.744812 
L 332.527602 -93.03199 
L 332.570432 -94.319167 
L 332.615269 -95.606344 
L 332.66196 -96.893521 
L 332.71035 -98.180698 
L 332.760285 -99.467875 
L 332.811612 -100.755052 
L 332.864181 -102.042229 
L 332.917843 -103.329406 
L 332.972452 -104.616583 
L 333.027866 -105.90376 
L 333.083946 -107.190937 
L 333.140556 -108.478114 
L 333.197565 -109.765291 
L 333.254846 -111.052468 
L 333.312277 -112.339645 
L 333.36974 -113.626823 
L 333.427122 -114.914 
L 333.484315 -116.201177 
L 333.541216 -117.488354 
L 333.597727 -118.775531 
L 333.653756 -120.062708 
L 333.709215 -121.349885 
L 333.764022 -122.637062 
L 333.818101 -123.924239 
L 333.87138 -125.211416 
L 333.923795 -126.498593 
L 333.975284 -127.78577 
L 334.025793 -129.072947 
L 334.075274 -130.360124 
L 334.123681 -131.647301 
L 334.170978 -132.934479 
L 334.217132 -134.221656 
L 334.262117 -135.508833 
L 334.30591 -136.79601 
L 334.348498 -138.083187 
L 334.389869 -139.370364 
L 334.430019 -140.657541 
L 334.46895 -141.944718 
L 334.506668 -143.231895 
L 334.543186 -144.519072 
L 334.578521 -145.806249 
L 334.612695 -147.093426 
L 334.645737 -148.380603 
L 334.67768 -149.66778 
L 334.708561 -150.954957 
L 334.738422 -152.242134 
L 334.767309 -153.529312 
L 334.795274 -154.816489 
L 334.82237 -156.103666 
L 334.848655 -157.390843 
L 334.87419 -158.67802 
L 334.899038 -159.965197 
L 334.923266 -161.252374 
L 334.94694 -162.539551 
L 334.970131 -163.826728 
L 334.992908 -165.113905 
L 335.015343 -166.401082 
L 335.037505 -167.688259 
L 335.059465 -168.975436 
L 335.081294 -170.262613 
L 335.103057 -171.54979 
L 335.124823 -172.836968 
L 335.146655 -174.124145 
L 335.168613 -175.411322 
L 335.190756 -176.698499 
L 335.213139 -177.985676 
L 335.23581 -179.272853 
L 335.258817 -180.56003 
L 335.2822 -181.847207 
L 335.305996 -183.134384 
L 338.372001 -183.134384 
L 338.372001 -183.134384 
L 338.395798 -181.847207 
L 338.419181 -180.56003 
L 338.442188 -179.272853 
L 338.464859 -177.985676 
L 338.487241 -176.698499 
L 338.509384 -175.411322 
L 338.531343 -174.124145 
L 338.553174 -172.836968 
L 338.57494 -171.54979 
L 338.596704 -170.262613 
L 338.618532 -168.975436 
L 338.640493 -167.688259 
L 338.662655 -166.401082 
L 338.685089 -165.113905 
L 338.707867 -163.826728 
L 338.731058 -162.539551 
L 338.754732 -161.252374 
L 338.77896 -159.965197 
L 338.803808 -158.67802 
L 338.829343 -157.390843 
L 338.855628 -156.103666 
L 338.882724 -154.816489 
L 338.910689 -153.529312 
L 338.939576 -152.242134 
L 338.969437 -150.954957 
L 339.000318 -149.66778 
L 339.03226 -148.380603 
L 339.065302 -147.093426 
L 339.099477 -145.806249 
L 339.134812 -144.519072 
L 339.17133 -143.231895 
L 339.209048 -141.944718 
L 339.247979 -140.657541 
L 339.288129 -139.370364 
L 339.3295 -138.083187 
L 339.372087 -136.79601 
L 339.415881 -135.508833 
L 339.460865 -134.221656 
L 339.507019 -132.934479 
L 339.554317 -131.647301 
L 339.602724 -130.360124 
L 339.652204 -129.072947 
L 339.702714 -127.78577 
L 339.754203 -126.498593 
L 339.806617 -125.211416 
L 339.859897 -123.924239 
L 339.913976 -122.637062 
L 339.968783 -121.349885 
L 340.024242 -120.062708 
L 340.080271 -118.775531 
L 340.136782 -117.488354 
L 340.193682 -116.201177 
L 340.250875 -114.914 
L 340.308257 -113.626823 
L 340.36572 -112.339645 
L 340.423152 -111.052468 
L 340.480433 -109.765291 
L 340.537442 -108.478114 
L 340.594052 -107.190937 
L 340.650132 -105.90376 
L 340.705546 -104.616583 
L 340.760155 -103.329406 
L 340.813817 -102.042229 
L 340.866385 -100.755052 
L 340.917712 -99.467875 
L 340.967647 -98.180698 
L 341.016037 -96.893521 
L 341.062729 -95.606344 
L 341.107566 -94.319167 
L 341.150395 -93.03199 
L 341.191061 -91.744812 
L 341.22941 -90.457635 
L 341.265291 -89.170458 
L 341.298554 -87.883281 
L 341.329053 -86.596104 
L 341.356646 -85.308927 
L 341.381195 -84.02175 
L 341.402569 -82.734573 
L 341.420642 -81.447396 
L 341.435295 -80.160219 
L 341.446417 -78.873042 
L 341.453907 -77.585865 
L 341.457672 -76.298688 
L 341.457629 -75.011511 
L 341.453706 -73.724334 
L 341.445842 -72.437156 
L 341.433988 -71.149979 
L 341.418108 -69.862802 
L 341.398178 -68.575625 
L 341.374188 -67.288448 
L 341.346141 -66.001271 
L 341.314053 -64.714094 
L 341.277955 -63.426917 
L 341.237892 -62.13974 
L 341.193921 -60.852563 
L 341.146117 -59.565386 
L 341.094563 -58.278209 
L 341.039359 -56.991032 
L 340.980617 -55.703855 
z
" style="stroke: #999999; stroke-width: 2"/>
    </defs>
    <g clip-path="url(#p41b11c7b3d)">
     <use xlink:href="#m5ac57a793a" x="0" y="255.11811" style="fill: #ffffff; stroke: #999999; stroke-width: 2"/>
    </g>
   </g>
   <g id="PolyCollection_6">
    <defs>
     <path id="mb523ec54bb" d="M 423.821833 -49.837187 
L 380.797942 -49.837187 
L 380.3104 -50.068368 
L 379.8432 -50.299549 
L 379.397957 -50.530731 
L 378.976205 -50.761912 
L 378.579387 -50.993093 
L 378.208845 -51.224275 
L 377.865809 -51.455456 
L 377.551386 -51.686637 
L 377.266553 -51.917819 
L 377.012148 -52.149 
L 376.78886 -52.380181 
L 376.597229 -52.611363 
L 376.437635 -52.842544 
L 376.310296 -53.073725 
L 376.215268 -53.304907 
L 376.152439 -53.536088 
L 376.121532 -53.767269 
L 376.122106 -53.998451 
L 376.153558 -54.229632 
L 376.215125 -54.460813 
L 376.305893 -54.691995 
L 376.424802 -54.923176 
L 376.570651 -55.154357 
L 376.74211 -55.385539 
L 376.937728 -55.61672 
L 377.155947 -55.847901 
L 377.395108 -56.079083 
L 377.653469 -56.310264 
L 377.929214 -56.541445 
L 378.220472 -56.772627 
L 378.525323 -57.003808 
L 378.841822 -57.234989 
L 379.168004 -57.466171 
L 379.501906 -57.697352 
L 379.841577 -57.928533 
L 380.185095 -58.159715 
L 380.530578 -58.390896 
L 380.876197 -58.622077 
L 381.220194 -58.853259 
L 381.560886 -59.08444 
L 381.89668 -59.315621 
L 382.226085 -59.546803 
L 382.547717 -59.777984 
L 382.860309 -60.009165 
L 383.162716 -60.240347 
L 383.453923 -60.471528 
L 383.733049 -60.702709 
L 383.999349 -60.933891 
L 384.252214 -61.165072 
L 384.491178 -61.396253 
L 384.71591 -61.627435 
L 384.926217 -61.858616 
L 385.122043 -62.089797 
L 385.303457 -62.320979 
L 385.470659 -62.55216 
L 385.623964 -62.783341 
L 385.763805 -63.014523 
L 385.890717 -63.245704 
L 386.005336 -63.476885 
L 386.108388 -63.708067 
L 386.200677 -63.939248 
L 386.283082 -64.170429 
L 386.356541 -64.401611 
L 386.422047 -64.632792 
L 386.480634 -64.863973 
L 386.533369 -65.095155 
L 386.581342 -65.326336 
L 386.625657 -65.557517 
L 386.667422 -65.788699 
L 386.707742 -66.01988 
L 386.747707 -66.251061 
L 386.788387 -66.482242 
L 386.830823 -66.713424 
L 386.876022 -66.944605 
L 386.924945 -67.175786 
L 386.97851 -67.406968 
L 387.037578 -67.638149 
L 387.102952 -67.86933 
L 387.175376 -68.100512 
L 387.255524 -68.331693 
L 387.344007 -68.562874 
L 387.44136 -68.794056 
L 387.54805 -69.025237 
L 387.664469 -69.256418 
L 387.790936 -69.4876 
L 387.927695 -69.718781 
L 388.074919 -69.949962 
L 388.232707 -70.181144 
L 388.401088 -70.412325 
L 388.580023 -70.643506 
L 388.769406 -70.874688 
L 388.969066 -71.105869 
L 389.178773 -71.33705 
L 389.398235 -71.568232 
L 389.627111 -71.799413 
L 389.865004 -72.030594 
L 390.111473 -72.261776 
L 390.366032 -72.492957 
L 390.628156 -72.724138 
L 413.991619 -72.724138 
L 413.991619 -72.724138 
L 414.253743 -72.492957 
L 414.508302 -72.261776 
L 414.754771 -72.030594 
L 414.992664 -71.799413 
L 415.22154 -71.568232 
L 415.441002 -71.33705 
L 415.650709 -71.105869 
L 415.850369 -70.874688 
L 416.039752 -70.643506 
L 416.218687 -70.412325 
L 416.387068 -70.181144 
L 416.544856 -69.949962 
L 416.69208 -69.718781 
L 416.828839 -69.4876 
L 416.955306 -69.256418 
L 417.071725 -69.025237 
L 417.178415 -68.794056 
L 417.275768 -68.562874 
L 417.364251 -68.331693 
L 417.444399 -68.100512 
L 417.516823 -67.86933 
L 417.582197 -67.638149 
L 417.641265 -67.406968 
L 417.69483 -67.175786 
L 417.743753 -66.944605 
L 417.788952 -66.713424 
L 417.831388 -66.482242 
L 417.872068 -66.251061 
L 417.912033 -66.01988 
L 417.952353 -65.788699 
L 417.994118 -65.557517 
L 418.038433 -65.326336 
L 418.086406 -65.095155 
L 418.139141 -64.863973 
L 418.197728 -64.632792 
L 418.263234 -64.401611 
L 418.336693 -64.170429 
L 418.419098 -63.939248 
L 418.511387 -63.708067 
L 418.614439 -63.476885 
L 418.729058 -63.245704 
L 418.85597 -63.014523 
L 418.995811 -62.783341 
L 419.149116 -62.55216 
L 419.316318 -62.320979 
L 419.497732 -62.089797 
L 419.693558 -61.858616 
L 419.903865 -61.627435 
L 420.128597 -61.396253 
L 420.367561 -61.165072 
L 420.620426 -60.933891 
L 420.886726 -60.702709 
L 421.165852 -60.471528 
L 421.457059 -60.240347 
L 421.759466 -60.009165 
L 422.072058 -59.777984 
L 422.39369 -59.546803 
L 422.723095 -59.315621 
L 423.058889 -59.08444 
L 423.399581 -58.853259 
L 423.743578 -58.622077 
L 424.089197 -58.390896 
L 424.43468 -58.159715 
L 424.778198 -57.928533 
L 425.117869 -57.697352 
L 425.451771 -57.466171 
L 425.777953 -57.234989 
L 426.094452 -57.003808 
L 426.399303 -56.772627 
L 426.690561 -56.541445 
L 426.966306 -56.310264 
L 427.224667 -56.079083 
L 427.463828 -55.847901 
L 427.682047 -55.61672 
L 427.877665 -55.385539 
L 428.049124 -55.154357 
L 428.194973 -54.923176 
L 428.313882 -54.691995 
L 428.40465 -54.460813 
L 428.466217 -54.229632 
L 428.497669 -53.998451 
L 428.498243 -53.767269 
L 428.467336 -53.536088 
L 428.404507 -53.304907 
L 428.309479 -53.073725 
L 428.18214 -52.842544 
L 428.022546 -52.611363 
L 427.830915 -52.380181 
L 427.607627 -52.149 
L 427.353222 -51.917819 
L 427.068389 -51.686637 
L 426.753966 -51.455456 
L 426.41093 -51.224275 
L 426.040388 -50.993093 
L 425.64357 -50.761912 
L 425.221818 -50.530731 
L 424.776575 -50.299549 
L 424.309375 -50.068368 
L 423.821833 -49.837187 
z
" style="stroke: #999999; stroke-width: 2"/>
    </defs>
    <g clip-path="url(#p41b11c7b3d)">
     <use xlink:href="#mb523ec54bb" x="0" y="255.11811" style="fill: #ffffff; stroke: #999999; stroke-width: 2"/>
    </g>
   </g>
   <g id="PolyCollection_7">
    <defs>
     <path id="m1d97fb3c02" d="M 471.825269 -137.512322 
L 463.736283 -137.512322 
L 463.621414 -138.36756 
L 463.507557 -139.222798 
L 463.394961 -140.078037 
L 463.283877 -140.933275 
L 463.174558 -141.788514 
L 463.06726 -142.643752 
L 462.962236 -143.49899 
L 462.859742 -144.354229 
L 462.760028 -145.209467 
L 462.663343 -146.064706 
L 462.569932 -146.919944 
L 462.480033 -147.775182 
L 462.393877 -148.630421 
L 462.311688 -149.485659 
L 462.233679 -150.340898 
L 462.160052 -151.196136 
L 462.090999 -152.051374 
L 462.026695 -152.906613 
L 461.967302 -153.761851 
L 461.912965 -154.61709 
L 461.863813 -155.472328 
L 461.819953 -156.327566 
L 461.781475 -157.182805 
L 461.748448 -158.038043 
L 461.720917 -158.893282 
L 461.698907 -159.74852 
L 461.682417 -160.603758 
L 461.671424 -161.458997 
L 461.66588 -162.314235 
L 461.665711 -163.169474 
L 461.670818 -164.024712 
L 461.68108 -164.87995 
L 461.696348 -165.735189 
L 461.71645 -166.590427 
L 461.741191 -167.445666 
L 461.77035 -168.300904 
L 461.803688 -169.156142 
L 461.840942 -170.011381 
L 461.881831 -170.866619 
L 461.926055 -171.721858 
L 461.973299 -172.577096 
L 462.023233 -173.432334 
L 462.075513 -174.287573 
L 462.129789 -175.142811 
L 462.185698 -175.99805 
L 462.242874 -176.853288 
L 462.30095 -177.708526 
L 462.359555 -178.563765 
L 462.418322 -179.419003 
L 462.476891 -180.274242 
L 462.534907 -181.12948 
L 462.592025 -181.984718 
L 462.647917 -182.839957 
L 462.702266 -183.695195 
L 462.754777 -184.550434 
L 462.805173 -185.405672 
L 462.853202 -186.26091 
L 462.898635 -187.116149 
L 462.94127 -187.971387 
L 462.980936 -188.826626 
L 463.017489 -189.681864 
L 463.050817 -190.537103 
L 463.080841 -191.392341 
L 463.107516 -192.247579 
L 463.130827 -193.102818 
L 463.150797 -193.958056 
L 463.167477 -194.813295 
L 463.180956 -195.668533 
L 463.191353 -196.523771 
L 463.198818 -197.37901 
L 463.203532 -198.234248 
L 463.205703 -199.089487 
L 463.205568 -199.944725 
L 463.203385 -200.799963 
L 463.199438 -201.655202 
L 463.194029 -202.51044 
L 463.187477 -203.365679 
L 463.180116 -204.220917 
L 463.172291 -205.076155 
L 463.164356 -205.931394 
L 463.156671 -206.786632 
L 463.149597 -207.641871 
L 463.143494 -208.497109 
L 463.138719 -209.352347 
L 463.135622 -210.207586 
L 463.134542 -211.062824 
L 463.135807 -211.918063 
L 463.139727 -212.773301 
L 463.146596 -213.628539 
L 463.156686 -214.483778 
L 463.170248 -215.339016 
L 463.187507 -216.194255 
L 463.208662 -217.049493 
L 463.233884 -217.904731 
L 463.263316 -218.75997 
L 463.29707 -219.615208 
L 463.33523 -220.470447 
L 463.377846 -221.325685 
L 463.424939 -222.180923 
L 472.136613 -222.180923 
L 472.136613 -222.180923 
L 472.183706 -221.325685 
L 472.226322 -220.470447 
L 472.264482 -219.615208 
L 472.298236 -218.75997 
L 472.327669 -217.904731 
L 472.352891 -217.049493 
L 472.374045 -216.194255 
L 472.391304 -215.339016 
L 472.404866 -214.483778 
L 472.414956 -213.628539 
L 472.421825 -212.773301 
L 472.425745 -211.918063 
L 472.42701 -211.062824 
L 472.42593 -210.207586 
L 472.422833 -209.352347 
L 472.418059 -208.497109 
L 472.411956 -207.641871 
L 472.404881 -206.786632 
L 472.397196 -205.931394 
L 472.389261 -205.076155 
L 472.381437 -204.220917 
L 472.374075 -203.365679 
L 472.367523 -202.51044 
L 472.362114 -201.655202 
L 472.358167 -200.799963 
L 472.355985 -199.944725 
L 472.355849 -199.089487 
L 472.35802 -198.234248 
L 472.362734 -197.37901 
L 472.370199 -196.523771 
L 472.380596 -195.668533 
L 472.394075 -194.813295 
L 472.410756 -193.958056 
L 472.430725 -193.102818 
L 472.454036 -192.247579 
L 472.480711 -191.392341 
L 472.510736 -190.537103 
L 472.544064 -189.681864 
L 472.580616 -188.826626 
L 472.620282 -187.971387 
L 472.662918 -187.116149 
L 472.70835 -186.26091 
L 472.756379 -185.405672 
L 472.806775 -184.550434 
L 472.859286 -183.695195 
L 472.913636 -182.839957 
L 472.969527 -181.984718 
L 473.026646 -181.12948 
L 473.084661 -180.274242 
L 473.14323 -179.419003 
L 473.201998 -178.563765 
L 473.260603 -177.708526 
L 473.318678 -176.853288 
L 473.375855 -175.99805 
L 473.431764 -175.142811 
L 473.486039 -174.287573 
L 473.53832 -173.432334 
L 473.588253 -172.577096 
L 473.635497 -171.721858 
L 473.679722 -170.866619 
L 473.720611 -170.011381 
L 473.757865 -169.156142 
L 473.791202 -168.300904 
L 473.820362 -167.445666 
L 473.845102 -166.590427 
L 473.865204 -165.735189 
L 473.880472 -164.87995 
L 473.890734 -164.024712 
L 473.895842 -163.169474 
L 473.895672 -162.314235 
L 473.890128 -161.458997 
L 473.879135 -160.603758 
L 473.862645 -159.74852 
L 473.840635 -158.893282 
L 473.813104 -158.038043 
L 473.780077 -157.182805 
L 473.7416 -156.327566 
L 473.69774 -155.472328 
L 473.648587 -154.61709 
L 473.59425 -153.761851 
L 473.534857 -152.906613 
L 473.470553 -152.051374 
L 473.4015 -151.196136 
L 473.327874 -150.340898 
L 473.249865 -149.485659 
L 473.167675 -148.630421 
L 473.08152 -147.775182 
L 472.99162 -146.919944 
L 472.898209 -146.064706 
L 472.801525 -145.209467 
L 472.701811 -144.354229 
L 472.599316 -143.49899 
L 472.494293 -142.643752 
L 472.386994 -141.788514 
L 472.277676 -140.933275 
L 472.166592 -140.078037 
L 472.053996 -139.222798 
L 471.940139 -138.36756 
L 471.825269 -137.512322 
z
" style="stroke: #999999; stroke-width: 2"/>
    </defs>
    <g clip-path="url(#p41b11c7b3d)">
     <use xlink:href="#m1d97fb3c02" x="0" y="255.11811" style="fill: #ffffff; stroke: #999999; stroke-width: 2"/>
    </g>
   </g>
   <g id="PathCollection_1"/>
   <g id="PathCollection_2"/>
   <g id="patch_3">
    <path d="M 42.22 213.89811 
L 42.22 24.32 
" style="fill: none; stroke: #262626; stroke-width: 1.25; stroke-linejoin: miter; stroke-linecap: square"/>
   </g>
   <g id="patch_4">
    <path d="M 42.22 213.89811 
L 500.51622 213.89811 
" style="fill: none; stroke: #262626; stroke-width: 1.25; stroke-linejoin: miter; stroke-linecap: square"/>
   </g>
   <g id="PathCollection_3">
    <defs>
     <path id="C0_0_f0da3253d9" d="M 0 2.5 
C 0.663008 2.5 1.29895 2.236584 1.767767 1.767767 
C 2.236584 1.29895 2.5 0.663008 2.5 -0 
C 2.5 -0.663008 2.236584 -1.29895 1.767767 -1.767767 
C 1.29895 -2.236584 0.663008 -2.5 0 -2.5 
C -0.663008 -2.5 -1.29895 -2.236584 -1.767767 -1.767767 
C -2.236584 -1.29895 -2.5 -0.663008 -2.5 0 
C -2.5 0.663008 -2.236584 1.29895 -1.767767 1.767767 
C -1.29895 2.236584 -0.663008 2.5 0 2.5 
z
"/>
    </defs>
    <g clip-path="url(#p41b11c7b3d)">
     <use xlink:href="#C0_0_f0da3253d9" x="79.565706" y="131.571293" style="fill: #4c72b0; fill-opacity: 0.75"/>
    </g>
    <g clip-path="url(#p41b11c7b3d)">
     <use xlink:href="#C0_0_f0da3253d9" x="78.291753" y="97.466196" style="fill: #4c72b0; fill-opacity: 0.75"/>
    </g>
    <g clip-path="url(#p41b11c7b3d)">
     <use xlink:href="#C0_0_f0da3253d9" x="69.112058" y="118.367324" style="fill: #4c72b0; fill-opacity: 0.75"/>
    </g>
    <g clip-path="url(#p41b11c7b3d)">
     <use xlink:href="#C0_0_f0da3253d9" x="73.524462" y="119.552733" style="fill: #4c72b0; fill-opacity: 0.75"/>
    </g>
    <g clip-path="url(#p41b11c7b3d)">
     <use xlink:href="#C0_0_f0da3253d9" x="75.395478" y="147.81052" style="fill: #dd8452; fill-opacity: 0.75"/>
    </g>
    <g clip-path="url(#p41b11c7b3d)">
     <use xlink:href="#C0_0_f0da3253d9" x="69.281319" y="148.952923" style="fill: #dd8452; fill-opacity: 0.75"/>
    </g>
    <g clip-path="url(#p41b11c7b3d)">
     <use xlink:href="#C0_0_f0da3253d9" x="68.567554" y="149.335971" style="fill: #dd8452; fill-opacity: 0.75"/>
    </g>
    <g clip-path="url(#p41b11c7b3d)">
     <use xlink:href="#C0_0_f0da3253d9" x="76.738978" y="142.412208" style="fill: #dd8452; fill-opacity: 0.75"/>
    </g>
   </g>
   <g id="PathCollection_4">
    <defs>
     <path id="C1_0_858dd118d0" d="M 0 2.5 
C 0.663008 2.5 1.29895 2.236584 1.767767 1.767767 
C 2.236584 1.29895 2.5 0.663008 2.5 -0 
C 2.5 -0.663008 2.236584 -1.29895 1.767767 -1.767767 
C 1.29895 -2.236584 0.663008 -2.5 0 -2.5 
C -0.663008 -2.5 -1.29895 -2.236584 -1.767767 -1.767767 
C -2.236584 -1.29895 -2.5 -0.663008 -2.5 0 
C -2.5 0.663008 -2.236584 1.29895 -1.767767 1.767767 
C -1.29895 2.236584 -0.663008 2.5 0 2.5 
z
"/>
    </defs>
    <g clip-path="url(#p41b11c7b3d)">
     <use xlink:href="#C1_0_858dd118d0" x="135.376357" y="112.460417" style="fill: #4c72b0; fill-opacity: 0.75"/>
    </g>
    <g clip-path="url(#p41b11c7b3d)">
     <use xlink:href="#C1_0_858dd118d0" x="135.895494" y="146.746821" style="fill: #4c72b0; fill-opacity: 0.75"/>
    </g>
    <g clip-path="url(#p41b11c7b3d)">
     <use xlink:href="#C1_0_858dd118d0" x="140.481643" y="141.328792" style="fill: #4c72b0; fill-opacity: 0.75"/>
    </g>
    <g clip-path="url(#p41b11c7b3d)">
     <use xlink:href="#C1_0_858dd118d0" x="135.710386" y="136.011343" style="fill: #4c72b0; fill-opacity: 0.75"/>
    </g>
    <g clip-path="url(#p41b11c7b3d)">
     <use xlink:href="#C1_0_858dd118d0" x="135.639403" y="152.088586" style="fill: #dd8452; fill-opacity: 0.75"/>
    </g>
    <g clip-path="url(#p41b11c7b3d)">
     <use xlink:href="#C1_0_858dd118d0" x="145.041383" y="154.318486" style="fill: #dd8452; fill-opacity: 0.75"/>
    </g>
    <g clip-path="url(#p41b11c7b3d)">
     <use xlink:href="#C1_0_858dd118d0" x="145.438008" y="153.595662" style="fill: #dd8452; fill-opacity: 0.75"/>
    </g>
    <g clip-path="url(#p41b11c7b3d)">
     <use xlink:href="#C1_0_858dd118d0" x="136.702488" y="163.030308" style="fill: #dd8452; fill-opacity: 0.75"/>
    </g>
   </g>
   <g id="PathCollection_5">
    <defs>
     <path id="C2_0_e0d37839c6" d="M 0 2.5 
C 0.663008 2.5 1.29895 2.236584 1.767767 1.767767 
C 2.236584 1.29895 2.5 0.663008 2.5 -0 
C 2.5 -0.663008 2.236584 -1.29895 1.767767 -1.767767 
C 1.29895 -2.236584 0.663008 -2.5 0 -2.5 
C -0.663008 -2.5 -1.29895 -2.236584 -1.767767 -1.767767 
C -2.236584 -1.29895 -2.5 -0.663008 -2.5 0 
C -2.5 0.663008 -2.236584 1.29895 -1.767767 1.767767 
C -1.29895 2.236584 -0.663008 2.5 0 2.5 
z
"/>
    </defs>
    <g clip-path="url(#p41b11c7b3d)">
     <use xlink:href="#C2_0_e0d37839c6" x="211.520672" y="101.431516" style="fill: #4c72b0; fill-opacity: 0.75"/>
    </g>
    <g clip-path="url(#p41b11c7b3d)">
     <use xlink:href="#C2_0_e0d37839c6" x="209.731882" y="193.782805" style="fill: #4c72b0; fill-opacity: 0.75"/>
    </g>
    <g clip-path="url(#p41b11c7b3d)">
     <use xlink:href="#C2_0_e0d37839c6" x="211.19447" y="179.862017" style="fill: #4c72b0; fill-opacity: 0.75"/>
    </g>
    <g clip-path="url(#p41b11c7b3d)">
     <use xlink:href="#C2_0_e0d37839c6" x="207.942336" y="163.605531" style="fill: #4c72b0; fill-opacity: 0.75"/>
    </g>
    <g clip-path="url(#p41b11c7b3d)">
     <use xlink:href="#C2_0_e0d37839c6" x="211.814258" y="164.450313" style="fill: #dd8452; fill-opacity: 0.75"/>
    </g>
    <g clip-path="url(#p41b11c7b3d)">
     <use xlink:href="#C2_0_e0d37839c6" x="202.210707" y="171.217662" style="fill: #dd8452; fill-opacity: 0.75"/>
    </g>
    <g clip-path="url(#p41b11c7b3d)">
     <use xlink:href="#C2_0_e0d37839c6" x="204.533484" y="179.106567" style="fill: #dd8452; fill-opacity: 0.75"/>
    </g>
    <g clip-path="url(#p41b11c7b3d)">
     <use xlink:href="#C2_0_e0d37839c6" x="201.109879" y="67.055017" style="fill: #dd8452; fill-opacity: 0.75"/>
    </g>
   </g>
   <g id="PathCollection_6">
    <defs>
     <path id="C3_0_7414092636" d="M 0 2.5 
C 0.663008 2.5 1.29895 2.236584 1.767767 1.767767 
C 2.236584 1.29895 2.5 0.663008 2.5 -0 
C 2.5 -0.663008 2.236584 -1.29895 1.767767 -1.767767 
C 1.29895 -2.236584 0.663008 -2.5 0 -2.5 
C -0.663008 -2.5 -1.29895 -2.236584 -1.767767 -1.767767 
C -2.236584 -1.29895 -2.5 -0.663008 -2.5 0 
C -2.5 0.663008 -2.236584 1.29895 -1.767767 1.767767 
C -1.29895 2.236584 -0.663008 2.5 0 2.5 
z
"/>
    </defs>
    <g clip-path="url(#p41b11c7b3d)">
     <use xlink:href="#C3_0_7414092636" x="269.921449" y="155.120642" style="fill: #4c72b0; fill-opacity: 0.75"/>
    </g>
    <g clip-path="url(#p41b11c7b3d)">
     <use xlink:href="#C3_0_7414092636" x="276.590547" y="127.955337" style="fill: #4c72b0; fill-opacity: 0.75"/>
    </g>
    <g clip-path="url(#p41b11c7b3d)">
     <use xlink:href="#C3_0_7414092636" x="269.61102" y="132.093605" style="fill: #4c72b0; fill-opacity: 0.75"/>
    </g>
    <g clip-path="url(#p41b11c7b3d)">
     <use xlink:href="#C3_0_7414092636" x="276.38026" y="178.44569" style="fill: #4c72b0; fill-opacity: 0.75"/>
    </g>
    <g clip-path="url(#p41b11c7b3d)">
     <use xlink:href="#C3_0_7414092636" x="271.665545" y="139.946254" style="fill: #4c72b0; fill-opacity: 0.75"/>
    </g>
    <g clip-path="url(#p41b11c7b3d)">
     <use xlink:href="#C3_0_7414092636" x="270.888209" y="155.847665" style="fill: #dd8452; fill-opacity: 0.75"/>
    </g>
    <g clip-path="url(#p41b11c7b3d)">
     <use xlink:href="#C3_0_7414092636" x="265.432566" y="154.359478" style="fill: #dd8452; fill-opacity: 0.75"/>
    </g>
    <g clip-path="url(#p41b11c7b3d)">
     <use xlink:href="#C3_0_7414092636" x="268.59337" y="127.777098" style="fill: #dd8452; fill-opacity: 0.75"/>
    </g>
    <g clip-path="url(#p41b11c7b3d)">
     <use xlink:href="#C3_0_7414092636" x="268.11896" y="176.195863" style="fill: #dd8452; fill-opacity: 0.75"/>
    </g>
    <g clip-path="url(#p41b11c7b3d)">
     <use xlink:href="#C3_0_7414092636" x="270.764047" y="179.401014" style="fill: #dd8452; fill-opacity: 0.75"/>
    </g>
   </g>
   <g id="PathCollection_7">
    <defs>
     <path id="C4_0_095e6bf794" d="M 0 2.5 
C 0.663008 2.5 1.29895 2.236584 1.767767 1.767767 
C 2.236584 1.29895 2.5 0.663008 2.5 -0 
C 2.5 -0.663008 2.236584 -1.29895 1.767767 -1.767767 
C 1.29895 -2.236584 0.663008 -2.5 0 -2.5 
C -0.663008 -2.5 -1.29895 -2.236584 -1.767767 -1.767767 
C -2.236584 -1.29895 -2.5 -0.663008 -2.5 0 
C -2.5 0.663008 -2.236584 1.29895 -1.767767 1.767767 
C -1.29895 2.236584 -0.663008 2.5 0 2.5 
z
"/>
    </defs>
    <g clip-path="url(#p41b11c7b3d)">
     <use xlink:href="#C4_0_095e6bf794" x="331.75904" y="160.50231" style="fill: #4c72b0; fill-opacity: 0.75"/>
    </g>
    <g clip-path="url(#p41b11c7b3d)">
     <use xlink:href="#C4_0_095e6bf794" x="341.861477" y="71.983726" style="fill: #4c72b0; fill-opacity: 0.75"/>
    </g>
    <g clip-path="url(#p41b11c7b3d)">
     <use xlink:href="#C4_0_095e6bf794" x="333.491658" y="128.750702" style="fill: #4c72b0; fill-opacity: 0.75"/>
    </g>
    <g clip-path="url(#p41b11c7b3d)">
     <use xlink:href="#C4_0_095e6bf794" x="340.712473" y="199.414256" style="fill: #dd8452; fill-opacity: 0.75"/>
    </g>
    <g clip-path="url(#p41b11c7b3d)">
     <use xlink:href="#C4_0_095e6bf794" x="333.227577" y="197.607698" style="fill: #dd8452; fill-opacity: 0.75"/>
    </g>
    <g clip-path="url(#p41b11c7b3d)">
     <use xlink:href="#C4_0_095e6bf794" x="334.367219" y="180.895277" style="fill: #dd8452; fill-opacity: 0.75"/>
    </g>
   </g>
   <g id="PathCollection_8">
    <defs>
     <path id="C5_0_b847035aa6" d="M 0 2.5 
C 0.663008 2.5 1.29895 2.236584 1.767767 1.767767 
C 2.236584 1.29895 2.5 0.663008 2.5 -0 
C 2.5 -0.663008 2.236584 -1.29895 1.767767 -1.767767 
C 1.29895 -2.236584 0.663008 -2.5 0 -2.5 
C -0.663008 -2.5 -1.29895 -2.236584 -1.767767 -1.767767 
C -2.236584 -1.29895 -2.5 -0.663008 -2.5 0 
C -2.5 0.663008 -2.236584 1.29895 -1.767767 1.767767 
C -1.29895 2.236584 -0.663008 2.5 0 2.5 
z
"/>
    </defs>
    <g clip-path="url(#p41b11c7b3d)">
     <use xlink:href="#C5_0_b847035aa6" x="396.645853" y="190.103142" style="fill: #4c72b0; fill-opacity: 0.75"/>
    </g>
    <g clip-path="url(#p41b11c7b3d)">
     <use xlink:href="#C5_0_b847035aa6" x="401.985666" y="186.742063" style="fill: #4c72b0; fill-opacity: 0.75"/>
    </g>
    <g clip-path="url(#p41b11c7b3d)">
     <use xlink:href="#C5_0_b847035aa6" x="407.24792" y="199.132707" style="fill: #4c72b0; fill-opacity: 0.75"/>
    </g>
    <g clip-path="url(#p41b11c7b3d)">
     <use xlink:href="#C5_0_b847035aa6" x="402.985347" y="182.393972" style="fill: #4c72b0; fill-opacity: 0.75"/>
    </g>
    <g clip-path="url(#p41b11c7b3d)">
     <use xlink:href="#C5_0_b847035aa6" x="396.2644" y="201.58889" style="fill: #dd8452; fill-opacity: 0.75"/>
    </g>
    <g clip-path="url(#p41b11c7b3d)">
     <use xlink:href="#C5_0_b847035aa6" x="401.668945" y="202.981157" style="fill: #dd8452; fill-opacity: 0.75"/>
    </g>
    <g clip-path="url(#p41b11c7b3d)">
     <use xlink:href="#C5_0_b847035aa6" x="403.713434" y="205.280923" style="fill: #dd8452; fill-opacity: 0.75"/>
    </g>
    <g clip-path="url(#p41b11c7b3d)">
     <use xlink:href="#C5_0_b847035aa6" x="408.737904" y="200.123005" style="fill: #dd8452; fill-opacity: 0.75"/>
    </g>
   </g>
   <g id="PathCollection_9">
    <defs>
     <path id="C6_0_9c459a17d2" d="M 0 2.5 
C 0.663008 2.5 1.29895 2.236584 1.767767 1.767767 
C 2.236584 1.29895 2.5 0.663008 2.5 -0 
C 2.5 -0.663008 2.236584 -1.29895 1.767767 -1.767767 
C 1.29895 -2.236584 0.663008 -2.5 0 -2.5 
C -0.663008 -2.5 -1.29895 -2.236584 -1.767767 -1.767767 
C -2.236584 -1.29895 -2.5 -0.663008 -2.5 0 
C -2.5 0.663008 -2.236584 1.29895 -1.767767 1.767767 
C -1.29895 2.236584 -0.663008 2.5 0 2.5 
z
"/>
    </defs>
    <g clip-path="url(#p41b11c7b3d)">
     <use xlink:href="#C6_0_9c459a17d2" x="468.86022" y="36.594942" style="fill: #4c72b0; fill-opacity: 0.75"/>
    </g>
    <g clip-path="url(#p41b11c7b3d)">
     <use xlink:href="#C6_0_9c459a17d2" x="469.868492" y="32.937187" style="fill: #4c72b0; fill-opacity: 0.75"/>
    </g>
    <g clip-path="url(#p41b11c7b3d)">
     <use xlink:href="#C6_0_9c459a17d2" x="463.975912" y="40.408964" style="fill: #4c72b0; fill-opacity: 0.75"/>
    </g>
    <g clip-path="url(#p41b11c7b3d)">
     <use xlink:href="#C6_0_9c459a17d2" x="465.870739" y="94.480655" style="fill: #4c72b0; fill-opacity: 0.75"/>
    </g>
    <g clip-path="url(#p41b11c7b3d)">
     <use xlink:href="#C6_0_9c459a17d2" x="467.100413" y="101.502317" style="fill: #dd8452; fill-opacity: 0.75"/>
    </g>
    <g clip-path="url(#p41b11c7b3d)">
     <use xlink:href="#C6_0_9c459a17d2" x="461.357884" y="84.330296" style="fill: #dd8452; fill-opacity: 0.75"/>
    </g>
    <g clip-path="url(#p41b11c7b3d)">
     <use xlink:href="#C6_0_9c459a17d2" x="464.738417" y="81.435164" style="fill: #dd8452; fill-opacity: 0.75"/>
    </g>
    <g clip-path="url(#p41b11c7b3d)">
     <use xlink:href="#C6_0_9c459a17d2" x="465.052669" y="117.605789" style="fill: #dd8452; fill-opacity: 0.75"/>
    </g>
   </g>
   <g id="text_18">
    <!-- TNFRSF14, $p_{adj}$ &lt; .001 *** -->
    <g style="fill: #262626" transform="translate(42.22 18.32)scale(0.09 -0.09)">
     <defs>
      <path id="ArialMT-4e" d="M 488 0 
L 488 4581 
L 1109 4581 
L 3516 984 
L 3516 4581 
L 4097 4581 
L 4097 0 
L 3475 0 
L 1069 3600 
L 1069 0 
L 488 0 
z
" transform="scale(0.015625)"/>
      <path id="ArialMT-46" d="M 525 0 
L 525 4581 
L 3616 4581 
L 3616 4041 
L 1131 4041 
L 1131 2622 
L 3281 2622 
L 3281 2081 
L 1131 2081 
L 1131 0 
L 525 0 
z
" transform="scale(0.015625)"/>
      <path id="ArialMT-52" d="M 503 0 
L 503 4581 
L 2534 4581 
Q 3147 4581 3465 4457 
Q 3784 4334 3975 4021 
Q 4166 3709 4166 3331 
Q 4166 2844 3850 2509 
Q 3534 2175 2875 2084 
Q 3116 1969 3241 1856 
Q 3506 1613 3744 1247 
L 4541 0 
L 3778 0 
L 3172 953 
Q 2906 1366 2734 1584 
Q 2563 1803 2427 1890 
Q 2291 1978 2150 2013 
Q 2047 2034 1813 2034 
L 1109 2034 
L 1109 0 
L 503 0 
z
M 1109 2559 
L 2413 2559 
Q 2828 2559 3062 2645 
Q 3297 2731 3419 2920 
Q 3541 3109 3541 3331 
Q 3541 3656 3305 3865 
Q 3069 4075 2559 4075 
L 1109 4075 
L 1109 2559 
z
" transform="scale(0.015625)"/>
      <path id="ArialMT-53" d="M 288 1472 
L 859 1522 
Q 900 1178 1048 958 
Q 1197 738 1509 602 
Q 1822 466 2213 466 
Q 2559 466 2825 569 
Q 3091 672 3220 851 
Q 3350 1031 3350 1244 
Q 3350 1459 3225 1620 
Q 3100 1781 2813 1891 
Q 2628 1963 1997 2114 
Q 1366 2266 1113 2400 
Q 784 2572 623 2826 
Q 463 3081 463 3397 
Q 463 3744 659 4045 
Q 856 4347 1234 4503 
Q 1613 4659 2075 4659 
Q 2584 4659 2973 4495 
Q 3363 4331 3572 4012 
Q 3781 3694 3797 3291 
L 3216 3247 
Q 3169 3681 2898 3903 
Q 2628 4125 2100 4125 
Q 1550 4125 1298 3923 
Q 1047 3722 1047 3438 
Q 1047 3191 1225 3031 
Q 1400 2872 2139 2705 
Q 2878 2538 3153 2413 
Q 3553 2228 3743 1945 
Q 3934 1663 3934 1294 
Q 3934 928 3725 604 
Q 3516 281 3123 101 
Q 2731 -78 2241 -78 
Q 1619 -78 1198 103 
Q 778 284 539 648 
Q 300 1013 288 1472 
z
" transform="scale(0.015625)"/>
      <path id="ArialMT-2c" d="M 569 0 
L 569 641 
L 1209 641 
L 1209 0 
Q 1209 -353 1084 -570 
Q 959 -788 688 -906 
L 531 -666 
Q 709 -588 793 -436 
Q 878 -284 888 0 
L 569 0 
z
" transform="scale(0.015625)"/>
      <path id="DejaVuSans-Oblique-70" d="M 3175 2156 
Q 3175 2616 2975 2859 
Q 2775 3103 2400 3103 
Q 2144 3103 1911 2972 
Q 1678 2841 1497 2591 
Q 1319 2344 1212 1994 
Q 1106 1644 1106 1300 
Q 1106 863 1306 627 
Q 1506 391 1875 391 
Q 2147 391 2380 519 
Q 2613 647 2778 891 
Q 2956 1147 3065 1494 
Q 3175 1841 3175 2156 
z
M 1394 2969 
Q 1625 3272 1939 3428 
Q 2253 3584 2638 3584 
Q 3175 3584 3472 3232 
Q 3769 2881 3769 2247 
Q 3769 1728 3584 1258 
Q 3400 788 3053 416 
Q 2822 169 2531 39 
Q 2241 -91 1919 -91 
Q 1547 -91 1294 64 
Q 1041 219 916 525 
L 556 -1331 
L -19 -1331 
L 922 3500 
L 1497 3500 
L 1394 2969 
z
" transform="scale(0.015625)"/>
      <path id="DejaVuSans-Oblique-61" d="M 3438 1997 
L 3047 0 
L 2472 0 
L 2578 531 
Q 2325 219 2001 64 
Q 1678 -91 1281 -91 
Q 834 -91 548 182 
Q 263 456 263 884 
Q 263 1497 752 1853 
Q 1241 2209 2100 2209 
L 2900 2209 
L 2931 2363 
Q 2938 2388 2941 2417 
Q 2944 2447 2944 2509 
Q 2944 2788 2717 2942 
Q 2491 3097 2081 3097 
Q 1800 3097 1504 3025 
Q 1209 2953 897 2809 
L 997 3341 
Q 1322 3463 1633 3523 
Q 1944 3584 2234 3584 
Q 2853 3584 3176 3315 
Q 3500 3047 3500 2534 
Q 3500 2431 3484 2292 
Q 3469 2153 3438 1997 
z
M 2816 1759 
L 2241 1759 
Q 1534 1759 1195 1570 
Q 856 1381 856 984 
Q 856 709 1029 553 
Q 1203 397 1509 397 
Q 1978 397 2328 733 
Q 2678 1069 2791 1631 
L 2816 1759 
z
" transform="scale(0.015625)"/>
      <path id="DejaVuSans-Oblique-64" d="M 2675 525 
Q 2444 222 2128 65 
Q 1813 -91 1428 -91 
Q 903 -91 598 267 
Q 294 625 294 1247 
Q 294 1766 478 2236 
Q 663 2706 1013 3078 
Q 1244 3325 1534 3454 
Q 1825 3584 2144 3584 
Q 2481 3584 2739 3421 
Q 2997 3259 3138 2956 
L 3513 4863 
L 4091 4863 
L 3144 0 
L 2566 0 
L 2675 525 
z
M 891 1350 
Q 891 897 1095 644 
Q 1300 391 1663 391 
Q 1931 391 2161 520 
Q 2391 650 2566 903 
Q 2750 1166 2856 1509 
Q 2963 1853 2963 2188 
Q 2963 2622 2758 2865 
Q 2553 3109 2194 3109 
Q 1922 3109 1687 2981 
Q 1453 2853 1288 2613 
Q 1106 2353 998 2009 
Q 891 1666 891 1350 
z
" transform="scale(0.015625)"/>
      <path id="DejaVuSans-Oblique-6a" d="M 928 3500 
L 1503 3500 
L 813 -63 
L 809 -78 
Q 694 -675 544 -897 
Q 403 -1106 132 -1218 
Q -138 -1331 -506 -1331 
L -722 -1331 
L -628 -844 
L -481 -844 
Q -144 -844 -1 -703 
Q 141 -563 238 -63 
L 928 3500 
z
M 1197 4863 
L 1772 4863 
L 1631 4134 
L 1056 4134 
L 1197 4863 
z
" transform="scale(0.015625)"/>
      <path id="ArialMT-3c" d="M 350 2003 
L 350 2528 
L 3384 3809 
L 3384 3250 
L 978 2263 
L 3384 1266 
L 3384 706 
L 350 2003 
z
" transform="scale(0.015625)"/>
      <path id="ArialMT-2e" d="M 581 0 
L 581 641 
L 1222 641 
L 1222 0 
L 581 0 
z
" transform="scale(0.015625)"/>
      <path id="ArialMT-2a" d="M 200 3741 
L 344 4184 
Q 841 4009 1066 3881 
Q 1006 4447 1003 4659 
L 1456 4659 
Q 1447 4350 1384 3884 
Q 1706 4047 2122 4184 
L 2266 3741 
Q 1869 3609 1488 3566 
Q 1678 3400 2025 2975 
L 1650 2709 
Q 1469 2956 1222 3381 
Q 991 2941 816 2709 
L 447 2975 
Q 809 3422 966 3566 
Q 563 3644 200 3741 
z
" transform="scale(0.015625)"/>
     </defs>
     <use xlink:href="#ArialMT-54" transform="translate(0 0.203125)"/>
     <use xlink:href="#ArialMT-4e" transform="translate(61.083984 0.203125)"/>
     <use xlink:href="#ArialMT-46" transform="translate(133.300781 0.203125)"/>
     <use xlink:href="#ArialMT-52" transform="translate(194.384766 0.203125)"/>
     <use xlink:href="#ArialMT-53" transform="translate(266.601562 0.203125)"/>
     <use xlink:href="#ArialMT-46" transform="translate(333.300781 0.203125)"/>
     <use xlink:href="#ArialMT-31" transform="translate(394.384766 0.203125)"/>
     <use xlink:href="#ArialMT-34" transform="translate(450 0.203125)"/>
     <use xlink:href="#ArialMT-2c" transform="translate(505.615234 0.203125)"/>
     <use xlink:href="#ArialMT-20" transform="translate(533.398438 0.203125)"/>
     <use xlink:href="#DejaVuSans-Oblique-70" transform="translate(561.181641 0.203125)"/>
     <use xlink:href="#DejaVuSans-Oblique-61" transform="translate(624.658203 -16.203125)scale(0.7)"/>
     <use xlink:href="#DejaVuSans-Oblique-64" transform="translate(667.553711 -16.203125)scale(0.7)"/>
     <use xlink:href="#DejaVuSans-Oblique-6a" transform="translate(711.987305 -16.203125)scale(0.7)"/>
     <use xlink:href="#ArialMT-20" transform="translate(734.169922 0.203125)"/>
     <use xlink:href="#ArialMT-3c" transform="translate(761.953125 0.203125)"/>
     <use xlink:href="#ArialMT-20" transform="translate(820.351562 0.203125)"/>
     <use xlink:href="#ArialMT-2e" transform="translate(848.134766 0.203125)"/>
     <use xlink:href="#ArialMT-30" transform="translate(875.917969 0.203125)"/>
     <use xlink:href="#ArialMT-30" transform="translate(931.533203 0.203125)"/>
     <use xlink:href="#ArialMT-31" transform="translate(987.148438 0.203125)"/>
     <use xlink:href="#ArialMT-20" transform="translate(1042.763672 0.203125)"/>
     <use xlink:href="#ArialMT-2a" transform="translate(1070.546875 0.203125)"/>
     <use xlink:href="#ArialMT-2a" transform="translate(1109.462891 0.203125)"/>
     <use xlink:href="#ArialMT-2a" transform="translate(1148.378906 0.203125)"/>
    </g>
   </g>
   <g id="legend_1">
    <g id="patch_5">
     <path d="M 48.52 69.712344 
L 100.82125 69.712344 
Q 102.62125 69.712344 102.62125 67.912344 
L 102.62125 30.62 
Q 102.62125 28.82 100.82125 28.82 
L 48.52 28.82 
Q 46.72 28.82 46.72 30.62 
L 46.72 67.912344 
Q 46.72 69.712344 48.52 69.712344 
z
" style="fill: #ffffff; opacity: 0.8; stroke: #cccccc; stroke-linejoin: miter"/>
    </g>
    <g id="text_19">
     <!-- Treatment -->
     <g style="fill: #262626" transform="translate(54.334141 38.862031)scale(0.09 -0.09)">
      <use xlink:href="#ArialMT-54"/>
      <use xlink:href="#ArialMT-72" x="57.333984"/>
      <use xlink:href="#ArialMT-65" x="90.634766"/>
      <use xlink:href="#ArialMT-61" x="146.25"/>
      <use xlink:href="#ArialMT-74" x="201.865234"/>
      <use xlink:href="#ArialMT-6d" x="229.648438"/>
      <use xlink:href="#ArialMT-65" x="312.949219"/>
      <use xlink:href="#ArialMT-6e" x="368.564453"/>
      <use xlink:href="#ArialMT-74" x="424.179688"/>
     </g>
    </g>
    <g id="PathCollection_10">
     <defs>
      <path id="m13bddc022b" d="M 0 3.872983 
C 1.027127 3.872983 2.012324 3.464901 2.738613 2.738613 
C 3.464901 2.012324 3.872983 1.027127 3.872983 0 
C 3.872983 -1.027127 3.464901 -2.012324 2.738613 -2.738613 
C 2.012324 -3.464901 1.027127 -3.872983 0 -3.872983 
C -1.027127 -3.872983 -2.012324 -3.464901 -2.738613 -2.738613 
C -3.464901 -2.012324 -3.872983 -1.027127 -3.872983 0 
C -3.872983 1.027127 -3.464901 2.012324 -2.738613 2.738613 
C -2.012324 3.464901 -1.027127 3.872983 0 3.872983 
z
" style="stroke: #4c72b0"/>
     </defs>
     <g>
      <use xlink:href="#m13bddc022b" x="59.32" y="49.230313" style="fill: #4c72b0; stroke: #4c72b0"/>
     </g>
    </g>
    <g id="text_20">
     <!-- BEVA -->
     <g style="fill: #262626" transform="translate(75.52 51.592813)scale(0.09 -0.09)">
      <defs>
       <path id="ArialMT-42" d="M 469 0 
L 469 4581 
L 2188 4581 
Q 2713 4581 3030 4442 
Q 3347 4303 3526 4014 
Q 3706 3725 3706 3409 
Q 3706 3116 3547 2856 
Q 3388 2597 3066 2438 
Q 3481 2316 3704 2022 
Q 3928 1728 3928 1328 
Q 3928 1006 3792 729 
Q 3656 453 3456 303 
Q 3256 153 2954 76 
Q 2653 0 2216 0 
L 469 0 
z
M 1075 2656 
L 2066 2656 
Q 2469 2656 2644 2709 
Q 2875 2778 2992 2937 
Q 3109 3097 3109 3338 
Q 3109 3566 3000 3739 
Q 2891 3913 2687 3977 
Q 2484 4041 1991 4041 
L 1075 4041 
L 1075 2656 
z
M 1075 541 
L 2216 541 
Q 2509 541 2628 563 
Q 2838 600 2978 687 
Q 3119 775 3209 942 
Q 3300 1109 3300 1328 
Q 3300 1584 3169 1773 
Q 3038 1963 2805 2039 
Q 2572 2116 2134 2116 
L 1075 2116 
L 1075 541 
z
" transform="scale(0.015625)"/>
       <path id="ArialMT-45" d="M 506 0 
L 506 4581 
L 3819 4581 
L 3819 4041 
L 1113 4041 
L 1113 2638 
L 3647 2638 
L 3647 2100 
L 1113 2100 
L 1113 541 
L 3925 541 
L 3925 0 
L 506 0 
z
" transform="scale(0.015625)"/>
       <path id="ArialMT-56" d="M 1803 0 
L 28 4581 
L 684 4581 
L 1875 1253 
Q 2019 853 2116 503 
Q 2222 878 2363 1253 
L 3600 4581 
L 4219 4581 
L 2425 0 
L 1803 0 
z
" transform="scale(0.015625)"/>
       <path id="ArialMT-41" d="M -9 0 
L 1750 4581 
L 2403 4581 
L 4278 0 
L 3588 0 
L 3053 1388 
L 1138 1388 
L 634 0 
L -9 0 
z
M 1313 1881 
L 2866 1881 
L 2388 3150 
Q 2169 3728 2063 4100 
Q 1975 3659 1816 3225 
L 1313 1881 
z
" transform="scale(0.015625)"/>
      </defs>
      <use xlink:href="#ArialMT-42"/>
      <use xlink:href="#ArialMT-45" x="66.699219"/>
      <use xlink:href="#ArialMT-56" x="133.398438"/>
      <use xlink:href="#ArialMT-41" x="192.722656"/>
     </g>
    </g>
    <g id="PathCollection_11">
     <defs>
      <path id="m8673d286f3" d="M 0 3.872983 
C 1.027127 3.872983 2.012324 3.464901 2.738613 2.738613 
C 3.464901 2.012324 3.872983 1.027127 3.872983 0 
C 3.872983 -1.027127 3.464901 -2.012324 2.738613 -2.738613 
C 2.012324 -3.464901 1.027127 -3.872983 0 -3.872983 
C -1.027127 -3.872983 -2.012324 -3.464901 -2.738613 -2.738613 
C -3.464901 -2.012324 -3.872983 -1.027127 -3.872983 0 
C -3.872983 1.027127 -3.464901 2.012324 -2.738613 2.738613 
C -2.012324 3.464901 -1.027127 3.872983 0 3.872983 
z
" style="stroke: #dd8452"/>
     </defs>
     <g>
      <use xlink:href="#m8673d286f3" x="59.32" y="61.961094" style="fill: #dd8452; stroke: #dd8452"/>
     </g>
    </g>
    <g id="text_21">
     <!-- CTRL -->
     <g style="fill: #262626" transform="translate(75.52 64.323594)scale(0.09 -0.09)">
      <defs>
       <path id="ArialMT-43" d="M 3763 1606 
L 4369 1453 
Q 4178 706 3683 314 
Q 3188 -78 2472 -78 
Q 1731 -78 1267 223 
Q 803 525 561 1097 
Q 319 1669 319 2325 
Q 319 3041 592 3573 
Q 866 4106 1370 4382 
Q 1875 4659 2481 4659 
Q 3169 4659 3637 4309 
Q 4106 3959 4291 3325 
L 3694 3184 
Q 3534 3684 3231 3912 
Q 2928 4141 2469 4141 
Q 1941 4141 1586 3887 
Q 1231 3634 1087 3207 
Q 944 2781 944 2328 
Q 944 1744 1114 1308 
Q 1284 872 1643 656 
Q 2003 441 2422 441 
Q 2931 441 3284 734 
Q 3638 1028 3763 1606 
z
" transform="scale(0.015625)"/>
       <path id="ArialMT-4c" d="M 469 0 
L 469 4581 
L 1075 4581 
L 1075 541 
L 3331 541 
L 3331 0 
L 469 0 
z
" transform="scale(0.015625)"/>
      </defs>
      <use xlink:href="#ArialMT-43"/>
      <use xlink:href="#ArialMT-54" x="72.216797"/>
      <use xlink:href="#ArialMT-52" x="133.300781"/>
      <use xlink:href="#ArialMT-4c" x="205.517578"/>
     </g>
    </g>
   </g>
  </g>
 </g>
 <defs>
  <clipPath id="p41b11c7b3d">
   <rect x="42.22" y="24.32" width="458.29622" height="189.57811"/>
  </clipPath>
 </defs>
</svg>
