<?xml version="1.0" encoding="utf-8" standalone="no"?>
<!DOCTYPE svg PUBLIC "-//W3C//DTD SVG 1.1//EN"
  "http://www.w3.org/Graphics/SVG/1.1/DTD/svg11.dtd">
<svg xmlns:xlink="http://www.w3.org/1999/xlink" width="510.23622pt" height="255.11811pt" viewBox="0 0 510.23622 255.11811" xmlns="http://www.w3.org/2000/svg" version="1.1">
 <metadata>
  <rdf:RDF xmlns:dc="http://purl.org/dc/elements/1.1/" xmlns:cc="http://creativecommons.org/ns#" xmlns:rdf="http://www.w3.org/1999/02/22-rdf-syntax-ns#">
   <cc:Work>
    <dc:type rdf:resource="http://purl.org/dc/dcmitype/StillImage"/>
    <dc:date>2022-04-27T00:16:59.774777</dc:date>
    <dc:format>image/svg+xml</dc:format>
    <dc:creator>
     <cc:Agent>
      <dc:title>Matplotlib v3.5.1, https://matplotlib.org/</dc:title>
     </cc:Agent>
    </dc:creator>
   </cc:Work>
  </rdf:RDF>
 </metadata>
 <defs>
  <style type="text/css">*{stroke-linejoin: round; stroke-linecap: butt}</style>
 </defs>
 <g id="figure_1">
  <g id="patch_1">
   <path d="M 0 255.11811 
L 510.23622 255.11811 
L 510.23622 0 
L 0 0 
z
" style="fill: #ffffff"/>
  </g>
  <g id="axes_1">
   <g id="patch_2">
    <path d="M 47.22 213.89811 
L 500.51622 213.89811 
L 500.51622 24.32 
L 47.22 24.32 
z
" style="fill: #ffffff"/>
   </g>
   <g id="matplotlib.axis_1">
    <g id="xtick_1">
     <g id="text_1">
      <!-- 49 -->
      <g style="fill: #444444" transform="translate(74.593458 229.840141)scale(0.09 -0.09)">
       <defs>
        <path id="ArialMT-34" d="M 2069 0 
L 2069 1097 
L 81 1097 
L 81 1613 
L 2172 4581 
L 2631 4581 
L 2631 1613 
L 3250 1613 
L 3250 1097 
L 2631 1097 
L 2631 0 
L 2069 0 
z
M 2069 1613 
L 2069 3678 
L 634 1613 
L 2069 1613 
z
" transform="scale(0.015625)"/>
        <path id="ArialMT-39" d="M 350 1059 
L 891 1109 
Q 959 728 1153 556 
Q 1347 384 1650 384 
Q 1909 384 2104 503 
Q 2300 622 2425 820 
Q 2550 1019 2634 1356 
Q 2719 1694 2719 2044 
Q 2719 2081 2716 2156 
Q 2547 1888 2255 1720 
Q 1963 1553 1622 1553 
Q 1053 1553 659 1965 
Q 266 2378 266 3053 
Q 266 3750 677 4175 
Q 1088 4600 1706 4600 
Q 2153 4600 2523 4359 
Q 2894 4119 3086 3673 
Q 3278 3228 3278 2384 
Q 3278 1506 3087 986 
Q 2897 466 2520 194 
Q 2144 -78 1638 -78 
Q 1100 -78 759 220 
Q 419 519 350 1059 
z
M 2653 3081 
Q 2653 3566 2395 3850 
Q 2138 4134 1775 4134 
Q 1400 4134 1122 3828 
Q 844 3522 844 3034 
Q 844 2597 1108 2323 
Q 1372 2050 1759 2050 
Q 2150 2050 2401 2323 
Q 2653 2597 2653 3081 
z
" transform="scale(0.015625)"/>
       </defs>
       <use xlink:href="#ArialMT-34"/>
       <use xlink:href="#ArialMT-39" x="55.615234"/>
      </g>
     </g>
    </g>
    <g id="xtick_2">
     <g id="text_2">
      <!-- 17 -->
      <g style="fill: #444444" transform="translate(139.350061 229.840141)scale(0.09 -0.09)">
       <defs>
        <path id="ArialMT-31" d="M 2384 0 
L 1822 0 
L 1822 3584 
Q 1619 3391 1289 3197 
Q 959 3003 697 2906 
L 697 3450 
Q 1169 3672 1522 3987 
Q 1875 4303 2022 4600 
L 2384 4600 
L 2384 0 
z
" transform="scale(0.015625)"/>
        <path id="ArialMT-37" d="M 303 3981 
L 303 4522 
L 3269 4522 
L 3269 4084 
Q 2831 3619 2401 2847 
Q 1972 2075 1738 1259 
Q 1569 684 1522 0 
L 944 0 
Q 953 541 1156 1306 
Q 1359 2072 1739 2783 
Q 2119 3494 2547 3981 
L 303 3981 
z
" transform="scale(0.015625)"/>
       </defs>
       <use xlink:href="#ArialMT-31"/>
       <use xlink:href="#ArialMT-37" x="55.615234"/>
      </g>
     </g>
    </g>
    <g id="xtick_3">
     <g id="text_3">
      <!-- 69 -->
      <g style="fill: #444444" transform="translate(204.106664 229.840141)scale(0.09 -0.09)">
       <defs>
        <path id="ArialMT-36" d="M 3184 3459 
L 2625 3416 
Q 2550 3747 2413 3897 
Q 2184 4138 1850 4138 
Q 1581 4138 1378 3988 
Q 1113 3794 959 3422 
Q 806 3050 800 2363 
Q 1003 2672 1297 2822 
Q 1591 2972 1913 2972 
Q 2475 2972 2870 2558 
Q 3266 2144 3266 1488 
Q 3266 1056 3080 686 
Q 2894 316 2569 119 
Q 2244 -78 1831 -78 
Q 1128 -78 684 439 
Q 241 956 241 2144 
Q 241 3472 731 4075 
Q 1159 4600 1884 4600 
Q 2425 4600 2770 4297 
Q 3116 3994 3184 3459 
z
M 888 1484 
Q 888 1194 1011 928 
Q 1134 663 1356 523 
Q 1578 384 1822 384 
Q 2178 384 2434 671 
Q 2691 959 2691 1453 
Q 2691 1928 2437 2201 
Q 2184 2475 1800 2475 
Q 1419 2475 1153 2201 
Q 888 1928 888 1484 
z
" transform="scale(0.015625)"/>
       </defs>
       <use xlink:href="#ArialMT-36"/>
       <use xlink:href="#ArialMT-39" x="55.615234"/>
      </g>
     </g>
    </g>
    <g id="xtick_4">
     <g id="text_4">
      <!-- 15 -->
      <g style="fill: #444444" transform="translate(268.863266 229.840141)scale(0.09 -0.09)">
       <defs>
        <path id="ArialMT-35" d="M 266 1200 
L 856 1250 
Q 922 819 1161 601 
Q 1400 384 1738 384 
Q 2144 384 2425 690 
Q 2706 997 2706 1503 
Q 2706 1984 2436 2262 
Q 2166 2541 1728 2541 
Q 1456 2541 1237 2417 
Q 1019 2294 894 2097 
L 366 2166 
L 809 4519 
L 3088 4519 
L 3088 3981 
L 1259 3981 
L 1013 2750 
Q 1425 3038 1878 3038 
Q 2478 3038 2890 2622 
Q 3303 2206 3303 1553 
Q 3303 931 2941 478 
Q 2500 -78 1738 -78 
Q 1113 -78 717 272 
Q 322 622 266 1200 
z
" transform="scale(0.015625)"/>
       </defs>
       <use xlink:href="#ArialMT-31"/>
       <use xlink:href="#ArialMT-35" x="55.615234"/>
      </g>
     </g>
    </g>
    <g id="xtick_5">
     <g id="text_5">
      <!-- 5 -->
      <g style="fill: #444444" transform="translate(336.122291 229.840141)scale(0.09 -0.09)">
       <use xlink:href="#ArialMT-35"/>
      </g>
     </g>
    </g>
    <g id="xtick_6">
     <g id="text_6">
      <!-- 126 -->
      <g style="fill: #444444" transform="translate(395.87405 229.840141)scale(0.09 -0.09)">
       <defs>
        <path id="ArialMT-32" d="M 3222 541 
L 3222 0 
L 194 0 
Q 188 203 259 391 
Q 375 700 629 1000 
Q 884 1300 1366 1694 
Q 2113 2306 2375 2664 
Q 2638 3022 2638 3341 
Q 2638 3675 2398 3904 
Q 2159 4134 1775 4134 
Q 1369 4134 1125 3890 
Q 881 3647 878 3216 
L 300 3275 
Q 359 3922 746 4261 
Q 1134 4600 1788 4600 
Q 2447 4600 2831 4234 
Q 3216 3869 3216 3328 
Q 3216 3053 3103 2787 
Q 2991 2522 2730 2228 
Q 2469 1934 1863 1422 
Q 1356 997 1212 845 
Q 1069 694 975 541 
L 3222 541 
z
" transform="scale(0.015625)"/>
       </defs>
       <use xlink:href="#ArialMT-31"/>
       <use xlink:href="#ArialMT-32" x="55.615234"/>
       <use xlink:href="#ArialMT-36" x="111.230469"/>
      </g>
     </g>
    </g>
    <g id="xtick_7">
     <g id="text_7">
      <!-- 62 -->
      <g style="fill: #444444" transform="translate(463.133075 229.840141)scale(0.09 -0.09)">
       <use xlink:href="#ArialMT-36"/>
       <use xlink:href="#ArialMT-32" x="55.615234"/>
      </g>
     </g>
    </g>
    <g id="text_8">
     <!-- Patient -->
     <g style="fill: #444444" transform="translate(259.859048 242.070923)scale(0.09 -0.09)">
      <defs>
       <path id="ArialMT-50" d="M 494 0 
L 494 4581 
L 2222 4581 
Q 2678 4581 2919 4538 
Q 3256 4481 3484 4323 
Q 3713 4166 3852 3881 
Q 3991 3597 3991 3256 
Q 3991 2672 3619 2267 
Q 3247 1863 2275 1863 
L 1100 1863 
L 1100 0 
L 494 0 
z
M 1100 2403 
L 2284 2403 
Q 2872 2403 3119 2622 
Q 3366 2841 3366 3238 
Q 3366 3525 3220 3729 
Q 3075 3934 2838 4000 
Q 2684 4041 2272 4041 
L 1100 4041 
L 1100 2403 
z
" transform="scale(0.015625)"/>
       <path id="ArialMT-61" d="M 2588 409 
Q 2275 144 1986 34 
Q 1697 -75 1366 -75 
Q 819 -75 525 192 
Q 231 459 231 875 
Q 231 1119 342 1320 
Q 453 1522 633 1644 
Q 813 1766 1038 1828 
Q 1203 1872 1538 1913 
Q 2219 1994 2541 2106 
Q 2544 2222 2544 2253 
Q 2544 2597 2384 2738 
Q 2169 2928 1744 2928 
Q 1347 2928 1158 2789 
Q 969 2650 878 2297 
L 328 2372 
Q 403 2725 575 2942 
Q 747 3159 1072 3276 
Q 1397 3394 1825 3394 
Q 2250 3394 2515 3294 
Q 2781 3194 2906 3042 
Q 3031 2891 3081 2659 
Q 3109 2516 3109 2141 
L 3109 1391 
Q 3109 606 3145 398 
Q 3181 191 3288 0 
L 2700 0 
Q 2613 175 2588 409 
z
M 2541 1666 
Q 2234 1541 1622 1453 
Q 1275 1403 1131 1340 
Q 988 1278 909 1158 
Q 831 1038 831 891 
Q 831 666 1001 516 
Q 1172 366 1500 366 
Q 1825 366 2078 508 
Q 2331 650 2450 897 
Q 2541 1088 2541 1459 
L 2541 1666 
z
" transform="scale(0.015625)"/>
       <path id="ArialMT-74" d="M 1650 503 
L 1731 6 
Q 1494 -44 1306 -44 
Q 1000 -44 831 53 
Q 663 150 594 308 
Q 525 466 525 972 
L 525 2881 
L 113 2881 
L 113 3319 
L 525 3319 
L 525 4141 
L 1084 4478 
L 1084 3319 
L 1650 3319 
L 1650 2881 
L 1084 2881 
L 1084 941 
Q 1084 700 1114 631 
Q 1144 563 1211 522 
Q 1278 481 1403 481 
Q 1497 481 1650 503 
z
" transform="scale(0.015625)"/>
       <path id="ArialMT-69" d="M 425 3934 
L 425 4581 
L 988 4581 
L 988 3934 
L 425 3934 
z
M 425 0 
L 425 3319 
L 988 3319 
L 988 0 
L 425 0 
z
" transform="scale(0.015625)"/>
       <path id="ArialMT-65" d="M 2694 1069 
L 3275 997 
Q 3138 488 2766 206 
Q 2394 -75 1816 -75 
Q 1088 -75 661 373 
Q 234 822 234 1631 
Q 234 2469 665 2931 
Q 1097 3394 1784 3394 
Q 2450 3394 2872 2941 
Q 3294 2488 3294 1666 
Q 3294 1616 3291 1516 
L 816 1516 
Q 847 969 1125 678 
Q 1403 388 1819 388 
Q 2128 388 2347 550 
Q 2566 713 2694 1069 
z
M 847 1978 
L 2700 1978 
Q 2663 2397 2488 2606 
Q 2219 2931 1791 2931 
Q 1403 2931 1139 2672 
Q 875 2413 847 1978 
z
" transform="scale(0.015625)"/>
       <path id="ArialMT-6e" d="M 422 0 
L 422 3319 
L 928 3319 
L 928 2847 
Q 1294 3394 1984 3394 
Q 2284 3394 2536 3286 
Q 2788 3178 2913 3003 
Q 3038 2828 3088 2588 
Q 3119 2431 3119 2041 
L 3119 0 
L 2556 0 
L 2556 2019 
Q 2556 2363 2490 2533 
Q 2425 2703 2258 2804 
Q 2091 2906 1866 2906 
Q 1506 2906 1245 2678 
Q 984 2450 984 1813 
L 984 0 
L 422 0 
z
" transform="scale(0.015625)"/>
      </defs>
      <use xlink:href="#ArialMT-50"/>
      <use xlink:href="#ArialMT-61" x="66.699219"/>
      <use xlink:href="#ArialMT-74" x="122.314453"/>
      <use xlink:href="#ArialMT-69" x="150.097656"/>
      <use xlink:href="#ArialMT-65" x="172.314453"/>
      <use xlink:href="#ArialMT-6e" x="227.929688"/>
      <use xlink:href="#ArialMT-74" x="283.544922"/>
     </g>
    </g>
   </g>
   <g id="matplotlib.axis_2">
    <g id="ytick_1">
     <g id="text_9">
      <!-- 200 -->
      <g style="fill: #444444" transform="translate(22.705469 180.689112)scale(0.09 -0.09)">
       <defs>
        <path id="ArialMT-30" d="M 266 2259 
Q 266 3072 433 3567 
Q 600 4063 929 4331 
Q 1259 4600 1759 4600 
Q 2128 4600 2406 4451 
Q 2684 4303 2865 4023 
Q 3047 3744 3150 3342 
Q 3253 2941 3253 2259 
Q 3253 1453 3087 958 
Q 2922 463 2592 192 
Q 2263 -78 1759 -78 
Q 1097 -78 719 397 
Q 266 969 266 2259 
z
M 844 2259 
Q 844 1131 1108 757 
Q 1372 384 1759 384 
Q 2147 384 2411 759 
Q 2675 1134 2675 2259 
Q 2675 3391 2411 3762 
Q 2147 4134 1753 4134 
Q 1366 4134 1134 3806 
Q 844 3388 844 2259 
z
" transform="scale(0.015625)"/>
       </defs>
       <use xlink:href="#ArialMT-32"/>
       <use xlink:href="#ArialMT-30" x="55.615234"/>
       <use xlink:href="#ArialMT-30" x="111.230469"/>
      </g>
     </g>
    </g>
    <g id="ytick_2">
     <g id="text_10">
      <!-- 400 -->
      <g style="fill: #444444" transform="translate(22.705469 141.841273)scale(0.09 -0.09)">
       <use xlink:href="#ArialMT-34"/>
       <use xlink:href="#ArialMT-30" x="55.615234"/>
       <use xlink:href="#ArialMT-30" x="111.230469"/>
      </g>
     </g>
    </g>
    <g id="ytick_3">
     <g id="text_11">
      <!-- 600 -->
      <g style="fill: #444444" transform="translate(22.705469 102.993434)scale(0.09 -0.09)">
       <use xlink:href="#ArialMT-36"/>
       <use xlink:href="#ArialMT-30" x="55.615234"/>
       <use xlink:href="#ArialMT-30" x="111.230469"/>
      </g>
     </g>
    </g>
    <g id="ytick_4">
     <g id="text_12">
      <!-- 800 -->
      <g style="fill: #444444" transform="translate(22.705469 64.145595)scale(0.09 -0.09)">
       <defs>
        <path id="ArialMT-38" d="M 1131 2484 
Q 781 2613 612 2850 
Q 444 3088 444 3419 
Q 444 3919 803 4259 
Q 1163 4600 1759 4600 
Q 2359 4600 2725 4251 
Q 3091 3903 3091 3403 
Q 3091 3084 2923 2848 
Q 2756 2613 2416 2484 
Q 2838 2347 3058 2040 
Q 3278 1734 3278 1309 
Q 3278 722 2862 322 
Q 2447 -78 1769 -78 
Q 1091 -78 675 323 
Q 259 725 259 1325 
Q 259 1772 486 2073 
Q 713 2375 1131 2484 
z
M 1019 3438 
Q 1019 3113 1228 2906 
Q 1438 2700 1772 2700 
Q 2097 2700 2305 2904 
Q 2513 3109 2513 3406 
Q 2513 3716 2298 3927 
Q 2084 4138 1766 4138 
Q 1444 4138 1231 3931 
Q 1019 3725 1019 3438 
z
M 838 1322 
Q 838 1081 952 856 
Q 1066 631 1291 507 
Q 1516 384 1775 384 
Q 2178 384 2440 643 
Q 2703 903 2703 1303 
Q 2703 1709 2433 1975 
Q 2163 2241 1756 2241 
Q 1359 2241 1098 1978 
Q 838 1716 838 1322 
z
" transform="scale(0.015625)"/>
       </defs>
       <use xlink:href="#ArialMT-38"/>
       <use xlink:href="#ArialMT-30" x="55.615234"/>
       <use xlink:href="#ArialMT-30" x="111.230469"/>
      </g>
     </g>
    </g>
    <g id="text_13">
     <!-- Trimmed Means of M values (TMM) -->
     <g style="fill: #444444" transform="translate(16.81125 190.194993)rotate(-90)scale(0.09 -0.09)">
      <defs>
       <path id="ArialMT-54" d="M 1659 0 
L 1659 4041 
L 150 4041 
L 150 4581 
L 3781 4581 
L 3781 4041 
L 2266 4041 
L 2266 0 
L 1659 0 
z
" transform="scale(0.015625)"/>
       <path id="ArialMT-72" d="M 416 0 
L 416 3319 
L 922 3319 
L 922 2816 
Q 1116 3169 1280 3281 
Q 1444 3394 1641 3394 
Q 1925 3394 2219 3213 
L 2025 2691 
Q 1819 2813 1613 2813 
Q 1428 2813 1281 2702 
Q 1134 2591 1072 2394 
Q 978 2094 978 1738 
L 978 0 
L 416 0 
z
" transform="scale(0.015625)"/>
       <path id="ArialMT-6d" d="M 422 0 
L 422 3319 
L 925 3319 
L 925 2853 
Q 1081 3097 1340 3245 
Q 1600 3394 1931 3394 
Q 2300 3394 2536 3241 
Q 2772 3088 2869 2813 
Q 3263 3394 3894 3394 
Q 4388 3394 4653 3120 
Q 4919 2847 4919 2278 
L 4919 0 
L 4359 0 
L 4359 2091 
Q 4359 2428 4304 2576 
Q 4250 2725 4106 2815 
Q 3963 2906 3769 2906 
Q 3419 2906 3187 2673 
Q 2956 2441 2956 1928 
L 2956 0 
L 2394 0 
L 2394 2156 
Q 2394 2531 2256 2718 
Q 2119 2906 1806 2906 
Q 1569 2906 1367 2781 
Q 1166 2656 1075 2415 
Q 984 2175 984 1722 
L 984 0 
L 422 0 
z
" transform="scale(0.015625)"/>
       <path id="ArialMT-64" d="M 2575 0 
L 2575 419 
Q 2259 -75 1647 -75 
Q 1250 -75 917 144 
Q 584 363 401 755 
Q 219 1147 219 1656 
Q 219 2153 384 2558 
Q 550 2963 881 3178 
Q 1213 3394 1622 3394 
Q 1922 3394 2156 3267 
Q 2391 3141 2538 2938 
L 2538 4581 
L 3097 4581 
L 3097 0 
L 2575 0 
z
M 797 1656 
Q 797 1019 1065 703 
Q 1334 388 1700 388 
Q 2069 388 2326 689 
Q 2584 991 2584 1609 
Q 2584 2291 2321 2609 
Q 2059 2928 1675 2928 
Q 1300 2928 1048 2622 
Q 797 2316 797 1656 
z
" transform="scale(0.015625)"/>
       <path id="ArialMT-20" transform="scale(0.015625)"/>
       <path id="ArialMT-4d" d="M 475 0 
L 475 4581 
L 1388 4581 
L 2472 1338 
Q 2622 884 2691 659 
Q 2769 909 2934 1394 
L 4031 4581 
L 4847 4581 
L 4847 0 
L 4263 0 
L 4263 3834 
L 2931 0 
L 2384 0 
L 1059 3900 
L 1059 0 
L 475 0 
z
" transform="scale(0.015625)"/>
       <path id="ArialMT-73" d="M 197 991 
L 753 1078 
Q 800 744 1014 566 
Q 1228 388 1613 388 
Q 2000 388 2187 545 
Q 2375 703 2375 916 
Q 2375 1106 2209 1216 
Q 2094 1291 1634 1406 
Q 1016 1563 777 1677 
Q 538 1791 414 1992 
Q 291 2194 291 2438 
Q 291 2659 392 2848 
Q 494 3038 669 3163 
Q 800 3259 1026 3326 
Q 1253 3394 1513 3394 
Q 1903 3394 2198 3281 
Q 2494 3169 2634 2976 
Q 2775 2784 2828 2463 
L 2278 2388 
Q 2241 2644 2061 2787 
Q 1881 2931 1553 2931 
Q 1166 2931 1000 2803 
Q 834 2675 834 2503 
Q 834 2394 903 2306 
Q 972 2216 1119 2156 
Q 1203 2125 1616 2013 
Q 2213 1853 2448 1751 
Q 2684 1650 2818 1456 
Q 2953 1263 2953 975 
Q 2953 694 2789 445 
Q 2625 197 2315 61 
Q 2006 -75 1616 -75 
Q 969 -75 630 194 
Q 291 463 197 991 
z
" transform="scale(0.015625)"/>
       <path id="ArialMT-6f" d="M 213 1659 
Q 213 2581 725 3025 
Q 1153 3394 1769 3394 
Q 2453 3394 2887 2945 
Q 3322 2497 3322 1706 
Q 3322 1066 3130 698 
Q 2938 331 2570 128 
Q 2203 -75 1769 -75 
Q 1072 -75 642 372 
Q 213 819 213 1659 
z
M 791 1659 
Q 791 1022 1069 705 
Q 1347 388 1769 388 
Q 2188 388 2466 706 
Q 2744 1025 2744 1678 
Q 2744 2294 2464 2611 
Q 2184 2928 1769 2928 
Q 1347 2928 1069 2612 
Q 791 2297 791 1659 
z
" transform="scale(0.015625)"/>
       <path id="ArialMT-66" d="M 556 0 
L 556 2881 
L 59 2881 
L 59 3319 
L 556 3319 
L 556 3672 
Q 556 4006 616 4169 
Q 697 4388 901 4523 
Q 1106 4659 1475 4659 
Q 1713 4659 2000 4603 
L 1916 4113 
Q 1741 4144 1584 4144 
Q 1328 4144 1222 4034 
Q 1116 3925 1116 3625 
L 1116 3319 
L 1763 3319 
L 1763 2881 
L 1116 2881 
L 1116 0 
L 556 0 
z
" transform="scale(0.015625)"/>
       <path id="ArialMT-76" d="M 1344 0 
L 81 3319 
L 675 3319 
L 1388 1331 
Q 1503 1009 1600 663 
Q 1675 925 1809 1294 
L 2547 3319 
L 3125 3319 
L 1869 0 
L 1344 0 
z
" transform="scale(0.015625)"/>
       <path id="ArialMT-6c" d="M 409 0 
L 409 4581 
L 972 4581 
L 972 0 
L 409 0 
z
" transform="scale(0.015625)"/>
       <path id="ArialMT-75" d="M 2597 0 
L 2597 488 
Q 2209 -75 1544 -75 
Q 1250 -75 995 37 
Q 741 150 617 320 
Q 494 491 444 738 
Q 409 903 409 1263 
L 409 3319 
L 972 3319 
L 972 1478 
Q 972 1038 1006 884 
Q 1059 663 1231 536 
Q 1403 409 1656 409 
Q 1909 409 2131 539 
Q 2353 669 2445 892 
Q 2538 1116 2538 1541 
L 2538 3319 
L 3100 3319 
L 3100 0 
L 2597 0 
z
" transform="scale(0.015625)"/>
       <path id="ArialMT-28" d="M 1497 -1347 
Q 1031 -759 709 28 
Q 388 816 388 1659 
Q 388 2403 628 3084 
Q 909 3875 1497 4659 
L 1900 4659 
Q 1522 4009 1400 3731 
Q 1209 3300 1100 2831 
Q 966 2247 966 1656 
Q 966 153 1900 -1347 
L 1497 -1347 
z
" transform="scale(0.015625)"/>
       <path id="ArialMT-29" d="M 791 -1347 
L 388 -1347 
Q 1322 153 1322 1656 
Q 1322 2244 1188 2822 
Q 1081 3291 891 3722 
Q 769 4003 388 4659 
L 791 4659 
Q 1378 3875 1659 3084 
Q 1900 2403 1900 1659 
Q 1900 816 1576 28 
Q 1253 -759 791 -1347 
z
" transform="scale(0.015625)"/>
      </defs>
      <use xlink:href="#ArialMT-54"/>
      <use xlink:href="#ArialMT-72" x="57.333984"/>
      <use xlink:href="#ArialMT-69" x="90.634766"/>
      <use xlink:href="#ArialMT-6d" x="112.851562"/>
      <use xlink:href="#ArialMT-6d" x="196.152344"/>
      <use xlink:href="#ArialMT-65" x="279.453125"/>
      <use xlink:href="#ArialMT-64" x="335.068359"/>
      <use xlink:href="#ArialMT-20" x="390.683594"/>
      <use xlink:href="#ArialMT-4d" x="418.466797"/>
      <use xlink:href="#ArialMT-65" x="501.767578"/>
      <use xlink:href="#ArialMT-61" x="557.382812"/>
      <use xlink:href="#ArialMT-6e" x="612.998047"/>
      <use xlink:href="#ArialMT-73" x="668.613281"/>
      <use xlink:href="#ArialMT-20" x="718.613281"/>
      <use xlink:href="#ArialMT-6f" x="746.396484"/>
      <use xlink:href="#ArialMT-66" x="802.011719"/>
      <use xlink:href="#ArialMT-20" x="829.794922"/>
      <use xlink:href="#ArialMT-4d" x="857.578125"/>
      <use xlink:href="#ArialMT-20" x="940.878906"/>
      <use xlink:href="#ArialMT-76" x="968.662109"/>
      <use xlink:href="#ArialMT-61" x="1018.662109"/>
      <use xlink:href="#ArialMT-6c" x="1074.277344"/>
      <use xlink:href="#ArialMT-75" x="1096.494141"/>
      <use xlink:href="#ArialMT-65" x="1152.109375"/>
      <use xlink:href="#ArialMT-73" x="1207.724609"/>
      <use xlink:href="#ArialMT-20" x="1257.724609"/>
      <use xlink:href="#ArialMT-28" x="1285.507812"/>
      <use xlink:href="#ArialMT-54" x="1318.808594"/>
      <use xlink:href="#ArialMT-4d" x="1379.892578"/>
      <use xlink:href="#ArialMT-4d" x="1463.193359"/>
      <use xlink:href="#ArialMT-29" x="1546.494141"/>
     </g>
    </g>
   </g>
   <g id="PolyCollection_1">
    <defs>
     <path id="mf46f4eac30" d="M 81.064874 -65.149881 
L 78.131729 -65.149881 
L 78.116855 -65.639402 
L 78.103754 -66.128924 
L 78.092114 -66.618445 
L 78.081567 -67.107966 
L 78.071692 -67.597487 
L 78.062019 -68.087008 
L 78.052032 -68.57653 
L 78.041172 -69.066051 
L 78.028842 -69.555572 
L 78.014415 -70.045093 
L 77.997235 -70.534614 
L 77.976632 -71.024135 
L 77.951922 -71.513657 
L 77.922417 -72.003178 
L 77.887437 -72.492699 
L 77.846313 -72.98222 
L 77.798402 -73.471741 
L 77.743088 -73.961263 
L 77.6798 -74.450784 
L 77.608015 -74.940305 
L 77.527266 -75.429826 
L 77.437156 -75.919347 
L 77.337362 -76.408869 
L 77.227641 -76.89839 
L 77.107843 -77.387911 
L 76.977909 -77.877432 
L 76.837885 -78.366953 
L 76.687919 -78.856475 
L 76.52827 -79.345996 
L 76.359306 -79.835517 
L 76.18151 -80.325038 
L 75.995473 -80.814559 
L 75.801899 -81.30408 
L 75.601599 -81.793602 
L 75.395489 -82.283123 
L 75.18458 -82.772644 
L 74.969976 -83.262165 
L 74.752861 -83.751686 
L 74.534494 -84.241208 
L 74.316193 -84.730729 
L 74.099328 -85.22025 
L 73.885302 -85.709771 
L 73.675543 -86.199292 
L 73.471484 -86.688814 
L 73.274552 -87.178335 
L 73.086147 -87.667856 
L 72.907632 -88.157377 
L 72.740314 -88.646898 
L 72.585428 -89.13642 
L 72.444125 -89.625941 
L 72.317457 -90.115462 
L 72.206361 -90.604983 
L 72.111652 -91.094504 
L 72.034011 -91.584025 
L 71.973974 -92.073547 
L 71.931931 -92.563068 
L 71.908114 -93.052589 
L 71.902602 -93.54211 
L 71.915313 -94.031631 
L 71.946011 -94.521153 
L 71.994308 -95.010674 
L 72.059669 -95.500195 
L 72.14142 -95.989716 
L 72.238758 -96.479237 
L 72.350763 -96.968759 
L 72.47641 -97.45828 
L 72.614582 -97.947801 
L 72.764086 -98.437322 
L 72.923673 -98.926843 
L 73.092047 -99.416364 
L 73.267888 -99.905886 
L 73.449866 -100.395407 
L 73.636658 -100.884928 
L 73.826964 -101.374449 
L 74.019521 -101.86397 
L 74.21312 -102.353492 
L 74.406614 -102.843013 
L 74.598934 -103.332534 
L 74.789096 -103.822055 
L 74.976208 -104.311576 
L 75.15948 -104.801098 
L 75.338224 -105.290619 
L 75.51186 -105.78014 
L 75.679912 -106.269661 
L 75.842013 -106.759182 
L 75.997897 -107.248704 
L 76.147398 -107.738225 
L 76.290444 -108.227746 
L 76.427046 -108.717267 
L 76.557297 -109.206788 
L 76.681357 -109.696309 
L 76.799449 -110.185831 
L 76.911844 -110.675352 
L 77.018856 -111.164873 
L 77.12083 -111.654394 
L 77.218131 -112.143915 
L 77.311138 -112.633437 
L 77.400231 -113.122958 
L 77.485789 -113.612479 
L 81.710814 -113.612479 
L 81.710814 -113.612479 
L 81.796372 -113.122958 
L 81.885465 -112.633437 
L 81.978472 -112.143915 
L 82.075773 -111.654394 
L 82.177747 -111.164873 
L 82.284759 -110.675352 
L 82.397154 -110.185831 
L 82.515246 -109.696309 
L 82.639306 -109.206788 
L 82.769557 -108.717267 
L 82.906159 -108.227746 
L 83.049204 -107.738225 
L 83.198706 -107.248704 
L 83.35459 -106.759182 
L 83.516691 -106.269661 
L 83.684743 -105.78014 
L 83.858379 -105.290619 
L 84.037123 -104.801098 
L 84.220395 -104.311576 
L 84.407507 -103.822055 
L 84.597669 -103.332534 
L 84.789989 -102.843013 
L 84.983483 -102.353492 
L 85.177082 -101.86397 
L 85.369639 -101.374449 
L 85.559945 -100.884928 
L 85.746737 -100.395407 
L 85.928715 -99.905886 
L 86.104556 -99.416364 
L 86.27293 -98.926843 
L 86.432517 -98.437322 
L 86.582021 -97.947801 
L 86.720193 -97.45828 
L 86.845839 -96.968759 
L 86.957845 -96.479237 
L 87.055183 -95.989716 
L 87.136934 -95.500195 
L 87.202295 -95.010674 
L 87.250592 -94.521153 
L 87.28129 -94.031631 
L 87.294001 -93.54211 
L 87.288489 -93.052589 
L 87.264672 -92.563068 
L 87.222629 -92.073547 
L 87.162592 -91.584025 
L 87.084951 -91.094504 
L 86.990242 -90.604983 
L 86.879146 -90.115462 
L 86.752478 -89.625941 
L 86.611175 -89.13642 
L 86.456289 -88.646898 
L 86.288971 -88.157377 
L 86.110456 -87.667856 
L 85.922051 -87.178335 
L 85.725119 -86.688814 
L 85.52106 -86.199292 
L 85.311301 -85.709771 
L 85.097275 -85.22025 
L 84.88041 -84.730729 
L 84.662109 -84.241208 
L 84.443742 -83.751686 
L 84.226627 -83.262165 
L 84.012023 -82.772644 
L 83.801114 -82.283123 
L 83.595004 -81.793602 
L 83.394704 -81.30408 
L 83.20113 -80.814559 
L 83.015093 -80.325038 
L 82.837296 -79.835517 
L 82.668333 -79.345996 
L 82.508684 -78.856475 
L 82.358718 -78.366953 
L 82.218694 -77.877432 
L 82.08876 -77.387911 
L 81.968962 -76.89839 
L 81.859241 -76.408869 
L 81.759447 -75.919347 
L 81.669337 -75.429826 
L 81.588588 -74.940305 
L 81.516803 -74.450784 
L 81.453515 -73.961263 
L 81.398201 -73.471741 
L 81.35029 -72.98222 
L 81.309166 -72.492699 
L 81.274186 -72.003178 
L 81.244681 -71.513657 
L 81.219971 -71.024135 
L 81.199367 -70.534614 
L 81.182188 -70.045093 
L 81.167761 -69.555572 
L 81.155431 -69.066051 
L 81.144571 -68.57653 
L 81.134584 -68.087008 
L 81.124911 -67.597487 
L 81.115036 -67.107966 
L 81.104489 -66.618445 
L 81.092849 -66.128924 
L 81.079748 -65.639402 
L 81.064874 -65.149881 
z
" style="stroke: #999999; stroke-width: 2"/>
    </defs>
    <g clip-path="url(#pca22a5c1f6)">
     <use xlink:href="#mf46f4eac30" x="0" y="255.11811" style="fill: #ffffff; stroke: #999999; stroke-width: 2"/>
    </g>
   </g>
   <g id="PolyCollection_2">
    <defs>
     <path id="ma00491cea6" d="M 150.061704 -63.913871 
L 138.648105 -63.913871 
L 138.526052 -64.338851 
L 138.410498 -64.763832 
L 138.301879 -65.188813 
L 138.2006 -65.613794 
L 138.107033 -66.038774 
L 138.021518 -66.463755 
L 137.944356 -66.888736 
L 137.875808 -67.313716 
L 137.816095 -67.738697 
L 137.765393 -68.163678 
L 137.723835 -68.588658 
L 137.691509 -69.013639 
L 137.668456 -69.43862 
L 137.654671 -69.863601 
L 137.650104 -70.288581 
L 137.65466 -70.713562 
L 137.668198 -71.138543 
L 137.690535 -71.563523 
L 137.721449 -71.988504 
L 137.760674 -72.413485 
L 137.80791 -72.838465 
L 137.862821 -73.263446 
L 137.925039 -73.688427 
L 137.994169 -74.113407 
L 138.069787 -74.538388 
L 138.15145 -74.963369 
L 138.238692 -75.38835 
L 138.331035 -75.81333 
L 138.427987 -76.238311 
L 138.529048 -76.663292 
L 138.633713 -77.088272 
L 138.741476 -77.513253 
L 138.851833 -77.938234 
L 138.964285 -78.363214 
L 139.078341 -78.788195 
L 139.193523 -79.213176 
L 139.309366 -79.638157 
L 139.425421 -80.063137 
L 139.54126 -80.488118 
L 139.656476 -80.913099 
L 139.770683 -81.338079 
L 139.883522 -81.76306 
L 139.994659 -82.188041 
L 140.103788 -82.613021 
L 140.21063 -83.038002 
L 140.314933 -83.462983 
L 140.416477 -83.887964 
L 140.515068 -84.312944 
L 140.610541 -84.737925 
L 140.702759 -85.162906 
L 140.791613 -85.587886 
L 140.87702 -86.012867 
L 140.958923 -86.437848 
L 141.037289 -86.862828 
L 141.112108 -87.287809 
L 141.183392 -87.71279 
L 141.251174 -88.13777 
L 141.315505 -88.562751 
L 141.376455 -88.987732 
L 141.434107 -89.412713 
L 141.488561 -89.837693 
L 141.539927 -90.262674 
L 141.588329 -90.687655 
L 141.633899 -91.112635 
L 141.676776 -91.537616 
L 141.717109 -91.962597 
L 141.755049 -92.387577 
L 141.790754 -92.812558 
L 141.824384 -93.237539 
L 141.856101 -93.66252 
L 141.886069 -94.0875 
L 141.914451 -94.512481 
L 141.941409 -94.937462 
L 141.967106 -95.362442 
L 141.991701 -95.787423 
L 142.015351 -96.212404 
L 142.03821 -96.637384 
L 142.060428 -97.062365 
L 142.08215 -97.487346 
L 142.103519 -97.912327 
L 142.124672 -98.337307 
L 142.145739 -98.762288 
L 142.166846 -99.187269 
L 142.188115 -99.612249 
L 142.209658 -100.03723 
L 142.231583 -100.462211 
L 142.25399 -100.887191 
L 142.276974 -101.312172 
L 142.30062 -101.737153 
L 142.325007 -102.162133 
L 142.350206 -102.587114 
L 142.37628 -103.012095 
L 142.403282 -103.437076 
L 142.431258 -103.862056 
L 142.460246 -104.287037 
L 142.490273 -104.712018 
L 142.521358 -105.136998 
L 142.553512 -105.561979 
L 142.586734 -105.98696 
L 146.123075 -105.98696 
L 146.123075 -105.98696 
L 146.156297 -105.561979 
L 146.18845 -105.136998 
L 146.219536 -104.712018 
L 146.249563 -104.287037 
L 146.27855 -103.862056 
L 146.306527 -103.437076 
L 146.333529 -103.012095 
L 146.359603 -102.587114 
L 146.384802 -102.162133 
L 146.409189 -101.737153 
L 146.432835 -101.312172 
L 146.455819 -100.887191 
L 146.478226 -100.462211 
L 146.500151 -100.03723 
L 146.521694 -99.612249 
L 146.542962 -99.187269 
L 146.56407 -98.762288 
L 146.585137 -98.337307 
L 146.60629 -97.912327 
L 146.627659 -97.487346 
L 146.649381 -97.062365 
L 146.671599 -96.637384 
L 146.694458 -96.212404 
L 146.718108 -95.787423 
L 146.742703 -95.362442 
L 146.7684 -94.937462 
L 146.795358 -94.512481 
L 146.82374 -94.0875 
L 146.853707 -93.66252 
L 146.885425 -93.237539 
L 146.919055 -92.812558 
L 146.95476 -92.387577 
L 146.9927 -91.962597 
L 147.033033 -91.537616 
L 147.07591 -91.112635 
L 147.12148 -90.687655 
L 147.169882 -90.262674 
L 147.221248 -89.837693 
L 147.275702 -89.412713 
L 147.333354 -88.987732 
L 147.394303 -88.562751 
L 147.458635 -88.13777 
L 147.526417 -87.71279 
L 147.597701 -87.287809 
L 147.67252 -86.862828 
L 147.750886 -86.437848 
L 147.832789 -86.012867 
L 147.918196 -85.587886 
L 148.00705 -85.162906 
L 148.099268 -84.737925 
L 148.194741 -84.312944 
L 148.293332 -83.887964 
L 148.394876 -83.462983 
L 148.499179 -83.038002 
L 148.606021 -82.613021 
L 148.71515 -82.188041 
L 148.826287 -81.76306 
L 148.939126 -81.338079 
L 149.053333 -80.913099 
L 149.168549 -80.488118 
L 149.284388 -80.063137 
L 149.400443 -79.638157 
L 149.516285 -79.213176 
L 149.631467 -78.788195 
L 149.745524 -78.363214 
L 149.857976 -77.938234 
L 149.968333 -77.513253 
L 150.076096 -77.088272 
L 150.180761 -76.663292 
L 150.281822 -76.238311 
L 150.378774 -75.81333 
L 150.471117 -75.38835 
L 150.558359 -74.963369 
L 150.640022 -74.538388 
L 150.71564 -74.113407 
L 150.78477 -73.688427 
L 150.846988 -73.263446 
L 150.901899 -72.838465 
L 150.949135 -72.413485 
L 150.98836 -71.988504 
L 151.019273 -71.563523 
L 151.041611 -71.138543 
L 151.055149 -70.713562 
L 151.059705 -70.288581 
L 151.055138 -69.863601 
L 151.041353 -69.43862 
L 151.0183 -69.013639 
L 150.985973 -68.588658 
L 150.944416 -68.163678 
L 150.893714 -67.738697 
L 150.834001 -67.313716 
L 150.765453 -66.888736 
L 150.688291 -66.463755 
L 150.602776 -66.038774 
L 150.509209 -65.613794 
L 150.40793 -65.188813 
L 150.29931 -64.763832 
L 150.183757 -64.338851 
L 150.061704 -63.913871 
z
" style="stroke: #999999; stroke-width: 2"/>
    </defs>
    <g clip-path="url(#pca22a5c1f6)">
     <use xlink:href="#ma00491cea6" x="0" y="255.11811" style="fill: #ffffff; stroke: #999999; stroke-width: 2"/>
    </g>
   </g>
   <g id="PolyCollection_3">
    <defs>
     <path id="m7bcb1e1987" d="M 210.962298 -91.363579 
L 207.260716 -91.363579 
L 207.209687 -92.684966 
L 207.160545 -94.006354 
L 207.113477 -95.327741 
L 207.068662 -96.649128 
L 207.026267 -97.970516 
L 206.98645 -99.291903 
L 206.949353 -100.61329 
L 206.915105 -101.934677 
L 206.883822 -103.256065 
L 206.855603 -104.577452 
L 206.83053 -105.898839 
L 206.80867 -107.220227 
L 206.790075 -108.541614 
L 206.774776 -109.863001 
L 206.76279 -111.184389 
L 206.754119 -112.505776 
L 206.748746 -113.827163 
L 206.74664 -115.148551 
L 206.747755 -116.469938 
L 206.752033 -117.791325 
L 206.759399 -119.112713 
L 206.76977 -120.4341 
L 206.783051 -121.755487 
L 206.799135 -123.076875 
L 206.817909 -124.398262 
L 206.839253 -125.719649 
L 206.863037 -127.041037 
L 206.88913 -128.362424 
L 206.917395 -129.683811 
L 206.947693 -131.005198 
L 206.979882 -132.326586 
L 207.013821 -133.647973 
L 207.049366 -134.96936 
L 207.086377 -136.290748 
L 207.124714 -137.612135 
L 207.164239 -138.933522 
L 207.204815 -140.25491 
L 207.246311 -141.576297 
L 207.288596 -142.897684 
L 207.331545 -144.219072 
L 207.375035 -145.540459 
L 207.418948 -146.861846 
L 207.463168 -148.183234 
L 207.507582 -149.504621 
L 207.552084 -150.826008 
L 207.596567 -152.147396 
L 207.640931 -153.468783 
L 207.685076 -154.79017 
L 207.728907 -156.111558 
L 207.772332 -157.432945 
L 207.81526 -158.754332 
L 207.857605 -160.075719 
L 207.899281 -161.397107 
L 207.940209 -162.718494 
L 207.980307 -164.039881 
L 208.019502 -165.361269 
L 208.05772 -166.682656 
L 208.094893 -168.004043 
L 208.130954 -169.325431 
L 208.165843 -170.646818 
L 208.199503 -171.968205 
L 208.231881 -173.289593 
L 208.26293 -174.61098 
L 208.292609 -175.932367 
L 208.320881 -177.253755 
L 208.347718 -178.575142 
L 208.373097 -179.896529 
L 208.397001 -181.217917 
L 208.419424 -182.539304 
L 208.440364 -183.860691 
L 208.459829 -185.182079 
L 208.477834 -186.503466 
L 208.494401 -187.824853 
L 208.509561 -189.14624 
L 208.523355 -190.467628 
L 208.535828 -191.789015 
L 208.547034 -193.110402 
L 208.557035 -194.43179 
L 208.565898 -195.753177 
L 208.573697 -197.074564 
L 208.580512 -198.395952 
L 208.586426 -199.717339 
L 208.591529 -201.038726 
L 208.595911 -202.360114 
L 208.599668 -203.681501 
L 208.602894 -205.002888 
L 208.605688 -206.324276 
L 208.608146 -207.645663 
L 208.610363 -208.96705 
L 208.612434 -210.288438 
L 208.61445 -211.609825 
L 208.616498 -212.931212 
L 208.618663 -214.252599 
L 208.621022 -215.573987 
L 208.623649 -216.895374 
L 208.62661 -218.216761 
L 208.629965 -219.538149 
L 208.633766 -220.859536 
L 208.63806 -222.180923 
L 209.584954 -222.180923 
L 209.584954 -222.180923 
L 209.589248 -220.859536 
L 209.59305 -219.538149 
L 209.596405 -218.216761 
L 209.599366 -216.895374 
L 209.601993 -215.573987 
L 209.604352 -214.252599 
L 209.606516 -212.931212 
L 209.608565 -211.609825 
L 209.61058 -210.288438 
L 209.612651 -208.96705 
L 209.614869 -207.645663 
L 209.617326 -206.324276 
L 209.62012 -205.002888 
L 209.623347 -203.681501 
L 209.627104 -202.360114 
L 209.631486 -201.038726 
L 209.636589 -199.717339 
L 209.642503 -198.395952 
L 209.649318 -197.074564 
L 209.657117 -195.753177 
L 209.66598 -194.43179 
L 209.67598 -193.110402 
L 209.687187 -191.789015 
L 209.69966 -190.467628 
L 209.713453 -189.14624 
L 209.728614 -187.824853 
L 209.745181 -186.503466 
L 209.763185 -185.182079 
L 209.78265 -183.860691 
L 209.80359 -182.539304 
L 209.826013 -181.217917 
L 209.849918 -179.896529 
L 209.875297 -178.575142 
L 209.902134 -177.253755 
L 209.930406 -175.932367 
L 209.960084 -174.61098 
L 209.991133 -173.289593 
L 210.023511 -171.968205 
L 210.057171 -170.646818 
L 210.09206 -169.325431 
L 210.128122 -168.004043 
L 210.165294 -166.682656 
L 210.203513 -165.361269 
L 210.242707 -164.039881 
L 210.282806 -162.718494 
L 210.323733 -161.397107 
L 210.36541 -160.075719 
L 210.407754 -158.754332 
L 210.450683 -157.432945 
L 210.494107 -156.111558 
L 210.537939 -154.79017 
L 210.582084 -153.468783 
L 210.626448 -152.147396 
L 210.670931 -150.826008 
L 210.715432 -149.504621 
L 210.759847 -148.183234 
L 210.804067 -146.861846 
L 210.847979 -145.540459 
L 210.89147 -144.219072 
L 210.934419 -142.897684 
L 210.976704 -141.576297 
L 211.0182 -140.25491 
L 211.058776 -138.933522 
L 211.0983 -137.612135 
L 211.136637 -136.290748 
L 211.173648 -134.96936 
L 211.209194 -133.647973 
L 211.243133 -132.326586 
L 211.275322 -131.005198 
L 211.30562 -129.683811 
L 211.333885 -128.362424 
L 211.359978 -127.041037 
L 211.383762 -125.719649 
L 211.405105 -124.398262 
L 211.42388 -123.076875 
L 211.439964 -121.755487 
L 211.453244 -120.4341 
L 211.463615 -119.112713 
L 211.470982 -117.791325 
L 211.475259 -116.469938 
L 211.476375 -115.148551 
L 211.474269 -113.827163 
L 211.468896 -112.505776 
L 211.460224 -111.184389 
L 211.448239 -109.863001 
L 211.43294 -108.541614 
L 211.414344 -107.220227 
L 211.392485 -105.898839 
L 211.367412 -104.577452 
L 211.339192 -103.256065 
L 211.307909 -101.934677 
L 211.273662 -100.61329 
L 211.236565 -99.291903 
L 211.196747 -97.970516 
L 211.154353 -96.649128 
L 211.109538 -95.327741 
L 211.06247 -94.006354 
L 211.013328 -92.684966 
L 210.962298 -91.363579 
z
" style="stroke: #999999; stroke-width: 2"/>
    </defs>
    <g clip-path="url(#pca22a5c1f6)">
     <use xlink:href="#m7bcb1e1987" x="0" y="255.11811" style="fill: #ffffff; stroke: #999999; stroke-width: 2"/>
    </g>
   </g>
   <g id="PolyCollection_4">
    <defs>
     <path id="m244d692400" d="M 299.165618 -49.837187 
L 248.570602 -49.837187 
L 248.36059 -49.956254 
L 248.195223 -50.075322 
L 248.074506 -50.19439 
L 247.998127 -50.313457 
L 247.965469 -50.432525 
L 247.975617 -50.551592 
L 248.027373 -50.67066 
L 248.119274 -50.789727 
L 248.24961 -50.908795 
L 248.416448 -51.027863 
L 248.617659 -51.14693 
L 248.850945 -51.265998 
L 249.113865 -51.385065 
L 249.403868 -51.504133 
L 249.718325 -51.623201 
L 250.054555 -51.742268 
L 250.40986 -51.861336 
L 250.781557 -51.980403 
L 251.166999 -52.099471 
L 251.56361 -52.218538 
L 251.968907 -52.337606 
L 252.380523 -52.456674 
L 252.79623 -52.575741 
L 253.213954 -52.694809 
L 253.631793 -52.813876 
L 254.048025 -52.932944 
L 254.46112 -53.052011 
L 254.869747 -53.171079 
L 255.272771 -53.290147 
L 255.669258 -53.409214 
L 256.058469 -53.528282 
L 256.439852 -53.647349 
L 256.813039 -53.766417 
L 257.177829 -53.885484 
L 257.534176 -54.004552 
L 257.882178 -54.12362 
L 258.222057 -54.242687 
L 258.554142 -54.361755 
L 258.878853 -54.480822 
L 259.196682 -54.59989 
L 259.508171 -54.718958 
L 259.813898 -54.838025 
L 260.114457 -54.957093 
L 260.410442 -55.07616 
L 260.702429 -55.195228 
L 260.990962 -55.314295 
L 261.276543 -55.433363 
L 261.559613 -55.552431 
L 261.84055 -55.671498 
L 262.119656 -55.790566 
L 262.397151 -55.909633 
L 262.673172 -56.028701 
L 262.947768 -56.147768 
L 263.2209 -56.266836 
L 263.492443 -56.385904 
L 263.762189 -56.504971 
L 264.029854 -56.624039 
L 264.295079 -56.743106 
L 264.557444 -56.862174 
L 264.816474 -56.981242 
L 265.071646 -57.100309 
L 265.322405 -57.219377 
L 265.568172 -57.338444 
L 265.808355 -57.457512 
L 266.042362 -57.576579 
L 266.269611 -57.695647 
L 266.489543 -57.814715 
L 266.701631 -57.933782 
L 266.905389 -58.05285 
L 267.100387 -58.171917 
L 267.286252 -58.290985 
L 267.462679 -58.410052 
L 267.629437 -58.52912 
L 267.786373 -58.648188 
L 267.933417 -58.767255 
L 268.070582 -58.886323 
L 268.197967 -59.00539 
L 268.315755 -59.124458 
L 268.424213 -59.243525 
L 268.523687 -59.362593 
L 268.6146 -59.481661 
L 268.697445 -59.600728 
L 268.772779 -59.719796 
L 268.841217 -59.838863 
L 268.903424 -59.957931 
L 268.960107 -60.076999 
L 269.012002 -60.196066 
L 269.05987 -60.315134 
L 269.104488 -60.434201 
L 269.146633 -60.553269 
L 269.187079 -60.672336 
L 269.226586 -60.791404 
L 269.265891 -60.910472 
L 269.305699 -61.029539 
L 269.346676 -61.148607 
L 269.389444 -61.267674 
L 269.434572 -61.386742 
L 269.482572 -61.505809 
L 269.533894 -61.624877 
L 278.202326 -61.624877 
L 278.202326 -61.624877 
L 278.253649 -61.505809 
L 278.301648 -61.386742 
L 278.346776 -61.267674 
L 278.389544 -61.148607 
L 278.430522 -61.029539 
L 278.470329 -60.910472 
L 278.509634 -60.791404 
L 278.549141 -60.672336 
L 278.589588 -60.553269 
L 278.631733 -60.434201 
L 278.67635 -60.315134 
L 278.724219 -60.196066 
L 278.776114 -60.076999 
L 278.832796 -59.957931 
L 278.895003 -59.838863 
L 278.963442 -59.719796 
L 279.038776 -59.600728 
L 279.12162 -59.481661 
L 279.212533 -59.362593 
L 279.312007 -59.243525 
L 279.420465 -59.124458 
L 279.538253 -59.00539 
L 279.665638 -58.886323 
L 279.802803 -58.767255 
L 279.949847 -58.648188 
L 280.106783 -58.52912 
L 280.273541 -58.410052 
L 280.449968 -58.290985 
L 280.635833 -58.171917 
L 280.830831 -58.05285 
L 281.03459 -57.933782 
L 281.246677 -57.814715 
L 281.466609 -57.695647 
L 281.693858 -57.576579 
L 281.927865 -57.457512 
L 282.168048 -57.338444 
L 282.413815 -57.219377 
L 282.664575 -57.100309 
L 282.919747 -56.981242 
L 283.178776 -56.862174 
L 283.441142 -56.743106 
L 283.706367 -56.624039 
L 283.974031 -56.504971 
L 284.243778 -56.385904 
L 284.515321 -56.266836 
L 284.788453 -56.147768 
L 285.063048 -56.028701 
L 285.33907 -55.909633 
L 285.616565 -55.790566 
L 285.89567 -55.671498 
L 286.176607 -55.552431 
L 286.459678 -55.433363 
L 286.745258 -55.314295 
L 287.033792 -55.195228 
L 287.325779 -55.07616 
L 287.621763 -54.957093 
L 287.922323 -54.838025 
L 288.22805 -54.718958 
L 288.539539 -54.59989 
L 288.857367 -54.480822 
L 289.182078 -54.361755 
L 289.514164 -54.242687 
L 289.854042 -54.12362 
L 290.202044 -54.004552 
L 290.558392 -53.885484 
L 290.923181 -53.766417 
L 291.296368 -53.647349 
L 291.677752 -53.528282 
L 292.066962 -53.409214 
L 292.463449 -53.290147 
L 292.866474 -53.171079 
L 293.2751 -53.052011 
L 293.688196 -52.932944 
L 294.104428 -52.813876 
L 294.522266 -52.694809 
L 294.93999 -52.575741 
L 295.355697 -52.456674 
L 295.767314 -52.337606 
L 296.172611 -52.218538 
L 296.569222 -52.099471 
L 296.954664 -51.980403 
L 297.32636 -51.861336 
L 297.681666 -51.742268 
L 298.017896 -51.623201 
L 298.332352 -51.504133 
L 298.622355 -51.385065 
L 298.885275 -51.265998 
L 299.118561 -51.14693 
L 299.319773 -51.027863 
L 299.486611 -50.908795 
L 299.616947 -50.789727 
L 299.708847 -50.67066 
L 299.760603 -50.551592 
L 299.770751 -50.432525 
L 299.738093 -50.313457 
L 299.661715 -50.19439 
L 299.540997 -50.075322 
L 299.375631 -49.956254 
L 299.165618 -49.837187 
z
" style="stroke: #999999; stroke-width: 2"/>
    </defs>
    <g clip-path="url(#pca22a5c1f6)">
     <use xlink:href="#m244d692400" x="0" y="255.11811" style="fill: #ffffff; stroke: #999999; stroke-width: 2"/>
    </g>
   </g>
   <g id="PolyCollection_5">
    <defs>
     <path id="mf677b922dc" d="M 340.356176 -102.712584 
L 336.893251 -102.712584 
L 336.876996 -103.413625 
L 336.861658 -104.114667 
L 336.847238 -104.815708 
L 336.833735 -105.516749 
L 336.821145 -106.217791 
L 336.809458 -106.918832 
L 336.798663 -107.619874 
L 336.788748 -108.320915 
L 336.779692 -109.021956 
L 336.771476 -109.722998 
L 336.764077 -110.424039 
L 336.757467 -111.125081 
L 336.751617 -111.826122 
L 336.746495 -112.527164 
L 336.742066 -113.228205 
L 336.738293 -113.929246 
L 336.735137 -114.630288 
L 336.732557 -115.331329 
L 336.730508 -116.032371 
L 336.728947 -116.733412 
L 336.727825 -117.434454 
L 336.727097 -118.135495 
L 336.726711 -118.836536 
L 336.726619 -119.537578 
L 336.726769 -120.238619 
L 336.727111 -120.939661 
L 336.727592 -121.640702 
L 336.728162 -122.341744 
L 336.728768 -123.042785 
L 336.72936 -123.743826 
L 336.729886 -124.444868 
L 336.730299 -125.145909 
L 336.730549 -125.846951 
L 336.730589 -126.547992 
L 336.730373 -127.249034 
L 336.729857 -127.950075 
L 336.729 -128.651116 
L 336.727761 -129.352158 
L 336.726103 -130.053199 
L 336.723991 -130.754241 
L 336.721392 -131.455282 
L 336.718278 -132.156324 
L 336.714622 -132.857365 
L 336.7104 -133.558406 
L 336.705593 -134.259448 
L 336.700185 -134.960489 
L 336.694163 -135.661531 
L 336.687517 -136.362572 
L 336.680244 -137.063614 
L 336.672341 -137.764655 
L 336.663811 -138.465696 
L 336.654661 -139.166738 
L 336.644902 -139.867779 
L 336.634548 -140.568821 
L 336.623618 -141.269862 
L 336.612135 -141.970904 
L 336.600126 -142.671945 
L 336.587621 -143.372986 
L 336.574655 -144.074028 
L 336.561267 -144.775069 
L 336.547498 -145.476111 
L 336.533394 -146.177152 
L 336.519004 -146.878194 
L 336.50438 -147.579235 
L 336.489577 -148.280276 
L 336.474653 -148.981318 
L 336.459668 -149.682359 
L 336.444687 -150.383401 
L 336.429773 -151.084442 
L 336.414993 -151.785484 
L 336.400417 -152.486525 
L 336.386114 -153.187566 
L 336.372154 -153.888608 
L 336.35861 -154.589649 
L 336.345553 -155.290691 
L 336.333056 -155.991732 
L 336.321189 -156.692774 
L 336.310025 -157.393815 
L 336.299634 -158.094856 
L 336.290084 -158.795898 
L 336.281443 -159.496939 
L 336.273776 -160.197981 
L 336.267148 -160.899022 
L 336.261619 -161.600064 
L 336.257247 -162.301105 
L 336.254086 -163.002146 
L 336.25219 -163.703188 
L 336.251606 -164.404229 
L 336.252377 -165.105271 
L 336.254545 -165.806312 
L 336.258145 -166.507354 
L 336.263209 -167.208395 
L 336.269763 -167.909436 
L 336.277829 -168.610478 
L 336.287425 -169.311519 
L 336.298564 -170.012561 
L 336.311251 -170.713602 
L 336.32549 -171.414644 
L 336.341277 -172.115685 
L 340.908149 -172.115685 
L 340.908149 -172.115685 
L 340.923937 -171.414644 
L 340.938175 -170.713602 
L 340.950863 -170.012561 
L 340.962001 -169.311519 
L 340.971597 -168.610478 
L 340.979664 -167.909436 
L 340.986218 -167.208395 
L 340.991281 -166.507354 
L 340.994881 -165.806312 
L 340.997049 -165.105271 
L 340.997821 -164.404229 
L 340.997236 -163.703188 
L 340.99534 -163.002146 
L 340.99218 -162.301105 
L 340.987807 -161.600064 
L 340.982278 -160.899022 
L 340.97565 -160.197981 
L 340.967984 -159.496939 
L 340.959343 -158.795898 
L 340.949793 -158.094856 
L 340.939401 -157.393815 
L 340.928237 -156.692774 
L 340.916371 -155.991732 
L 340.903873 -155.290691 
L 340.890816 -154.589649 
L 340.877272 -153.888608 
L 340.863313 -153.187566 
L 340.849009 -152.486525 
L 340.834433 -151.785484 
L 340.819654 -151.084442 
L 340.80474 -150.383401 
L 340.789758 -149.682359 
L 340.774774 -148.981318 
L 340.75985 -148.280276 
L 340.745047 -147.579235 
L 340.730423 -146.878194 
L 340.716033 -146.177152 
L 340.701929 -145.476111 
L 340.68816 -144.775069 
L 340.674771 -144.074028 
L 340.661806 -143.372986 
L 340.649301 -142.671945 
L 340.637292 -141.970904 
L 340.625809 -141.269862 
L 340.614879 -140.568821 
L 340.604525 -139.867779 
L 340.594765 -139.166738 
L 340.585615 -138.465696 
L 340.577086 -137.764655 
L 340.569183 -137.063614 
L 340.561909 -136.362572 
L 340.555264 -135.661531 
L 340.549241 -134.960489 
L 340.543833 -134.259448 
L 340.539026 -133.558406 
L 340.534805 -132.857365 
L 340.531148 -132.156324 
L 340.528034 -131.455282 
L 340.525435 -130.754241 
L 340.523323 -130.053199 
L 340.521665 -129.352158 
L 340.520427 -128.651116 
L 340.519569 -127.950075 
L 340.519054 -127.249034 
L 340.518838 -126.547992 
L 340.518877 -125.846951 
L 340.519127 -125.145909 
L 340.51954 -124.444868 
L 340.520067 -123.743826 
L 340.520659 -123.042785 
L 340.521265 -122.341744 
L 340.521834 -121.640702 
L 340.522315 -120.939661 
L 340.522657 -120.238619 
L 340.522807 -119.537578 
L 340.522715 -118.836536 
L 340.52233 -118.135495 
L 340.521601 -117.434454 
L 340.52048 -116.733412 
L 340.518918 -116.032371 
L 340.51687 -115.331329 
L 340.514289 -114.630288 
L 340.511133 -113.929246 
L 340.50736 -113.228205 
L 340.502932 -112.527164 
L 340.497809 -111.826122 
L 340.491959 -111.125081 
L 340.485349 -110.424039 
L 340.47795 -109.722998 
L 340.469734 -109.021956 
L 340.460679 -108.320915 
L 340.450763 -107.619874 
L 340.439969 -106.918832 
L 340.428282 -106.217791 
L 340.415691 -105.516749 
L 340.402188 -104.815708 
L 340.387768 -104.114667 
L 340.37243 -103.413625 
L 340.356176 -102.712584 
z
" style="stroke: #999999; stroke-width: 2"/>
    </defs>
    <g clip-path="url(#pca22a5c1f6)">
     <use xlink:href="#mf677b922dc" x="0" y="255.11811" style="fill: #ffffff; stroke: #999999; stroke-width: 2"/>
    </g>
   </g>
   <g id="PolyCollection_6">
    <defs>
     <path id="mc4f0d33296" d="M 417.066009 -54.458731 
L 389.696623 -54.458731 
L 389.39116 -54.560398 
L 389.090379 -54.662065 
L 388.794156 -54.763732 
L 388.502314 -54.865399 
L 388.214631 -54.967066 
L 387.930847 -55.068733 
L 387.650667 -55.1704 
L 387.373778 -55.272067 
L 387.099849 -55.373734 
L 386.828548 -55.475401 
L 386.559548 -55.577068 
L 386.292537 -55.678735 
L 386.02723 -55.780402 
L 385.763377 -55.882069 
L 385.500774 -55.983736 
L 385.239268 -56.085403 
L 384.97877 -56.18707 
L 384.719261 -56.288737 
L 384.460795 -56.390404 
L 384.203508 -56.492071 
L 383.947618 -56.593738 
L 383.693433 -56.695405 
L 383.441347 -56.797071 
L 383.191839 -56.898738 
L 382.945476 -57.000405 
L 382.702907 -57.102072 
L 382.464856 -57.203739 
L 382.232119 -57.305406 
L 382.005554 -57.407073 
L 381.786073 -57.50874 
L 381.574632 -57.610407 
L 381.372221 -57.712074 
L 381.17985 -57.813741 
L 380.998537 -57.915408 
L 380.829297 -58.017075 
L 380.673127 -58.118742 
L 380.530992 -58.220409 
L 380.403816 -58.322076 
L 380.292464 -58.423743 
L 380.197734 -58.52541 
L 380.120344 -58.627077 
L 380.06092 -58.728744 
L 380.019992 -58.830411 
L 379.997978 -58.932078 
L 379.995186 -59.033745 
L 380.011802 -59.135412 
L 380.047891 -59.237079 
L 380.103393 -59.338746 
L 380.178121 -59.440413 
L 380.271768 -59.542079 
L 380.383904 -59.643746 
L 380.513985 -59.745413 
L 380.661358 -59.84708 
L 380.825266 -59.948747 
L 381.004863 -60.050414 
L 381.199218 -60.152081 
L 381.407329 -60.253748 
L 381.628134 -60.355415 
L 381.860528 -60.457082 
L 382.103367 -60.558749 
L 382.35549 -60.660416 
L 382.615729 -60.762083 
L 382.882921 -60.86375 
L 383.155923 -60.965417 
L 383.433624 -61.067084 
L 383.714954 -61.168751 
L 383.998899 -61.270418 
L 384.284508 -61.372085 
L 384.570904 -61.473752 
L 384.857286 -61.575419 
L 385.142942 -61.677086 
L 385.42725 -61.778753 
L 385.709681 -61.88042 
L 385.989804 -61.982087 
L 386.267281 -62.083754 
L 386.541873 -62.185421 
L 386.81343 -62.287087 
L 387.081895 -62.388754 
L 387.347294 -62.490421 
L 387.609732 -62.592088 
L 387.869386 -62.693755 
L 388.126499 -62.795422 
L 388.38137 -62.897089 
L 388.634343 -62.998756 
L 388.885804 -63.100423 
L 389.136165 -63.20209 
L 389.385858 -63.303757 
L 389.635326 -63.405424 
L 389.885011 -63.507091 
L 390.135347 -63.608758 
L 390.386752 -63.710425 
L 390.639617 -63.812092 
L 390.894302 -63.913759 
L 391.151129 -64.015426 
L 391.410373 -64.117093 
L 391.672261 -64.21876 
L 391.936967 -64.320427 
L 392.204607 -64.422094 
L 392.47524 -64.523761 
L 414.287392 -64.523761 
L 414.287392 -64.523761 
L 414.558025 -64.422094 
L 414.825665 -64.320427 
L 415.090371 -64.21876 
L 415.35226 -64.117093 
L 415.611504 -64.015426 
L 415.86833 -63.913759 
L 416.123015 -63.812092 
L 416.37588 -63.710425 
L 416.627285 -63.608758 
L 416.877621 -63.507091 
L 417.127306 -63.405424 
L 417.376774 -63.303757 
L 417.626467 -63.20209 
L 417.876828 -63.100423 
L 418.128289 -62.998756 
L 418.381262 -62.897089 
L 418.636133 -62.795422 
L 418.893246 -62.693755 
L 419.152901 -62.592088 
L 419.415339 -62.490421 
L 419.680737 -62.388754 
L 419.949202 -62.287087 
L 420.22076 -62.185421 
L 420.495351 -62.083754 
L 420.772828 -61.982087 
L 421.052951 -61.88042 
L 421.335382 -61.778753 
L 421.61969 -61.677086 
L 421.905347 -61.575419 
L 422.191729 -61.473752 
L 422.478124 -61.372085 
L 422.763733 -61.270418 
L 423.047678 -61.168751 
L 423.329009 -61.067084 
L 423.606709 -60.965417 
L 423.879711 -60.86375 
L 424.146903 -60.762083 
L 424.407142 -60.660416 
L 424.659266 -60.558749 
L 424.902105 -60.457082 
L 425.134498 -60.355415 
L 425.355304 -60.253748 
L 425.563414 -60.152081 
L 425.757769 -60.050414 
L 425.937366 -59.948747 
L 426.101274 -59.84708 
L 426.248647 -59.745413 
L 426.378728 -59.643746 
L 426.490864 -59.542079 
L 426.584511 -59.440413 
L 426.659239 -59.338746 
L 426.714741 -59.237079 
L 426.75083 -59.135412 
L 426.767446 -59.033745 
L 426.764654 -58.932078 
L 426.742641 -58.830411 
L 426.701712 -58.728744 
L 426.642288 -58.627077 
L 426.564898 -58.52541 
L 426.470168 -58.423743 
L 426.358816 -58.322076 
L 426.23164 -58.220409 
L 426.089506 -58.118742 
L 425.933335 -58.017075 
L 425.764095 -57.915408 
L 425.582782 -57.813741 
L 425.390411 -57.712074 
L 425.188 -57.610407 
L 424.97656 -57.50874 
L 424.757079 -57.407073 
L 424.530513 -57.305406 
L 424.297776 -57.203739 
L 424.059725 -57.102072 
L 423.817156 -57.000405 
L 423.570793 -56.898738 
L 423.321286 -56.797071 
L 423.069199 -56.695405 
L 422.815014 -56.593738 
L 422.559124 -56.492071 
L 422.301837 -56.390404 
L 422.043371 -56.288737 
L 421.783862 -56.18707 
L 421.523364 -56.085403 
L 421.261859 -55.983736 
L 420.999255 -55.882069 
L 420.735402 -55.780402 
L 420.470095 -55.678735 
L 420.203085 -55.577068 
L 419.934084 -55.475401 
L 419.662783 -55.373734 
L 419.388855 -55.272067 
L 419.111965 -55.1704 
L 418.831786 -55.068733 
L 418.548001 -54.967066 
L 418.260318 -54.865399 
L 417.968477 -54.763732 
L 417.672253 -54.662065 
L 417.371472 -54.560398 
L 417.066009 -54.458731 
z
" style="stroke: #999999; stroke-width: 2"/>
    </defs>
    <g clip-path="url(#pca22a5c1f6)">
     <use xlink:href="#mc4f0d33296" x="0" y="255.11811" style="fill: #ffffff; stroke: #999999; stroke-width: 2"/>
    </g>
   </g>
   <g id="PolyCollection_7">
    <defs>
     <path id="m74b42be2b7" d="M 471.074187 -62.715934 
L 465.201651 -62.715934 
L 465.115194 -63.057236 
L 465.028913 -63.398538 
L 464.942911 -63.73984 
L 464.857291 -64.081141 
L 464.772155 -64.422443 
L 464.687608 -64.763745 
L 464.603753 -65.105047 
L 464.520694 -65.446349 
L 464.438537 -65.787651 
L 464.357383 -66.128953 
L 464.277334 -66.470255 
L 464.198493 -66.811556 
L 464.120956 -67.152858 
L 464.044819 -67.49416 
L 463.970172 -67.835462 
L 463.897102 -68.176764 
L 463.825689 -68.518066 
L 463.756005 -68.859368 
L 463.688116 -69.200669 
L 463.622078 -69.541971 
L 463.557935 -69.883273 
L 463.495721 -70.224575 
L 463.435459 -70.565877 
L 463.377155 -70.907179 
L 463.320803 -71.248481 
L 463.266383 -71.589782 
L 463.213857 -71.931084 
L 463.163173 -72.272386 
L 463.114262 -72.613688 
L 463.067039 -72.95499 
L 463.021403 -73.296292 
L 462.977239 -73.637594 
L 462.934415 -73.978896 
L 462.892789 -74.320197 
L 462.852204 -74.661499 
L 462.812493 -75.002801 
L 462.773481 -75.344103 
L 462.734985 -75.685405 
L 462.696818 -76.026707 
L 462.658792 -76.368009 
L 462.620717 -76.70931 
L 462.582408 -77.050612 
L 462.543686 -77.391914 
L 462.50438 -77.733216 
L 462.464332 -78.074518 
L 462.423397 -78.41582 
L 462.381449 -78.757122 
L 462.338382 -79.098423 
L 462.294112 -79.439725 
L 462.248582 -79.781027 
L 462.201762 -80.122329 
L 462.15365 -80.463631 
L 462.104276 -80.804933 
L 462.053703 -81.146235 
L 462.002025 -81.487537 
L 461.949373 -81.828838 
L 461.895908 -82.17014 
L 461.841828 -82.511442 
L 461.787362 -82.852744 
L 461.732771 -83.194046 
L 461.678347 -83.535348 
L 461.624409 -83.87665 
L 461.571302 -84.217951 
L 461.519396 -84.559253 
L 461.469079 -84.900555 
L 461.420757 -85.241857 
L 461.374849 -85.583159 
L 461.331784 -85.924461 
L 461.291995 -86.265763 
L 461.255918 -86.607064 
L 461.223984 -86.948366 
L 461.196618 -87.289668 
L 461.174233 -87.63097 
L 461.157226 -87.972272 
L 461.145976 -88.313574 
L 461.140835 -88.654876 
L 461.142132 -88.996178 
L 461.15016 -89.337479 
L 461.165184 -89.678781 
L 461.187426 -90.020083 
L 461.217074 -90.361385 
L 461.254273 -90.702687 
L 461.299125 -91.043989 
L 461.351688 -91.385291 
L 461.411977 -91.726592 
L 461.47996 -92.067894 
L 461.555561 -92.409196 
L 461.638661 -92.750498 
L 461.729096 -93.0918 
L 461.826661 -93.433102 
L 461.931112 -93.774404 
L 462.042166 -94.115705 
L 462.159504 -94.457007 
L 462.282776 -94.798309 
L 462.411602 -95.139611 
L 462.545574 -95.480913 
L 462.684263 -95.822215 
L 462.827218 -96.163517 
L 462.973976 -96.504819 
L 473.301862 -96.504819 
L 473.301862 -96.504819 
L 473.44862 -96.163517 
L 473.591575 -95.822215 
L 473.730264 -95.480913 
L 473.864236 -95.139611 
L 473.993062 -94.798309 
L 474.116334 -94.457007 
L 474.233672 -94.115705 
L 474.344726 -93.774404 
L 474.449177 -93.433102 
L 474.546742 -93.0918 
L 474.637177 -92.750498 
L 474.720277 -92.409196 
L 474.795878 -92.067894 
L 474.863861 -91.726592 
L 474.92415 -91.385291 
L 474.976713 -91.043989 
L 475.021565 -90.702687 
L 475.058764 -90.361385 
L 475.088412 -90.020083 
L 475.110654 -89.678781 
L 475.125678 -89.337479 
L 475.133706 -88.996178 
L 475.135003 -88.654876 
L 475.129862 -88.313574 
L 475.118612 -87.972272 
L 475.101605 -87.63097 
L 475.07922 -87.289668 
L 475.051854 -86.948366 
L 475.01992 -86.607064 
L 474.983843 -86.265763 
L 474.944054 -85.924461 
L 474.900989 -85.583159 
L 474.855081 -85.241857 
L 474.806759 -84.900555 
L 474.756442 -84.559253 
L 474.704536 -84.217951 
L 474.651429 -83.87665 
L 474.597491 -83.535348 
L 474.543067 -83.194046 
L 474.488476 -82.852744 
L 474.43401 -82.511442 
L 474.37993 -82.17014 
L 474.326465 -81.828838 
L 474.273813 -81.487537 
L 474.222136 -81.146235 
L 474.171562 -80.804933 
L 474.122188 -80.463631 
L 474.074076 -80.122329 
L 474.027256 -79.781027 
L 473.981726 -79.439725 
L 473.937457 -79.098423 
L 473.894389 -78.757122 
L 473.852441 -78.41582 
L 473.811506 -78.074518 
L 473.771458 -77.733216 
L 473.732152 -77.391914 
L 473.69343 -77.050612 
L 473.655121 -76.70931 
L 473.617046 -76.368009 
L 473.57902 -76.026707 
L 473.540853 -75.685405 
L 473.502357 -75.344103 
L 473.463345 -75.002801 
L 473.423634 -74.661499 
L 473.383049 -74.320197 
L 473.341423 -73.978896 
L 473.298599 -73.637594 
L 473.254435 -73.296292 
L 473.208799 -72.95499 
L 473.161576 -72.613688 
L 473.112665 -72.272386 
L 473.061981 -71.931084 
L 473.009455 -71.589782 
L 472.955035 -71.248481 
L 472.898683 -70.907179 
L 472.840379 -70.565877 
L 472.780117 -70.224575 
L 472.717903 -69.883273 
L 472.65376 -69.541971 
L 472.587722 -69.200669 
L 472.519833 -68.859368 
L 472.450149 -68.518066 
L 472.378736 -68.176764 
L 472.305666 -67.835462 
L 472.231019 -67.49416 
L 472.154882 -67.152858 
L 472.077345 -66.811556 
L 471.998504 -66.470255 
L 471.918455 -66.128953 
L 471.837301 -65.787651 
L 471.755144 -65.446349 
L 471.672085 -65.105047 
L 471.58823 -64.763745 
L 471.503683 -64.422443 
L 471.418548 -64.081141 
L 471.332927 -63.73984 
L 471.246925 -63.398538 
L 471.160644 -63.057236 
L 471.074187 -62.715934 
z
" style="stroke: #999999; stroke-width: 2"/>
    </defs>
    <g clip-path="url(#pca22a5c1f6)">
     <use xlink:href="#m74b42be2b7" x="0" y="255.11811" style="fill: #ffffff; stroke: #999999; stroke-width: 2"/>
    </g>
   </g>
   <g id="PathCollection_1"/>
   <g id="PathCollection_2"/>
   <g id="patch_3">
    <path d="M 47.22 213.89811 
L 47.22 24.32 
" style="fill: none; stroke: #262626; stroke-width: 1.25; stroke-linejoin: miter; stroke-linecap: square"/>
   </g>
   <g id="patch_4">
    <path d="M 47.22 213.89811 
L 500.51622 213.89811 
" style="fill: none; stroke: #262626; stroke-width: 1.25; stroke-linejoin: miter; stroke-linecap: square"/>
   </g>
   <g id="PathCollection_3">
    <defs>
     <path id="C0_0_267c5b0a72" d="M 0 2.5 
C 0.663008 2.5 1.29895 2.236584 1.767767 1.767767 
C 2.236584 1.29895 2.5 0.663008 2.5 -0 
C 2.5 -0.663008 2.236584 -1.29895 1.767767 -1.767767 
C 1.29895 -2.236584 0.663008 -2.5 0 -2.5 
C -0.663008 -2.5 -1.29895 -2.236584 -1.767767 -1.767767 
C -2.236584 -1.29895 -2.5 -0.663008 -2.5 0 
C -2.5 0.663008 -2.236584 1.29895 -1.767767 1.767767 
C -1.29895 2.236584 -0.663008 2.5 0 2.5 
z
"/>
    </defs>
    <g clip-path="url(#pca22a5c1f6)">
     <use xlink:href="#C0_0_267c5b0a72" x="73.526861" y="189.968229" style="fill: #4c72b0; fill-opacity: 0.75"/>
    </g>
    <g clip-path="url(#pca22a5c1f6)">
     <use xlink:href="#C0_0_267c5b0a72" x="75.373225" y="167.955785" style="fill: #4c72b0; fill-opacity: 0.75"/>
    </g>
    <g clip-path="url(#pca22a5c1f6)">
     <use xlink:href="#C0_0_267c5b0a72" x="82.723544" y="163.333668" style="fill: #4c72b0; fill-opacity: 0.75"/>
    </g>
    <g clip-path="url(#pca22a5c1f6)">
     <use xlink:href="#C0_0_267c5b0a72" x="76.222338" y="162.911193" style="fill: #4c72b0; fill-opacity: 0.75"/>
    </g>
    <g clip-path="url(#pca22a5c1f6)">
     <use xlink:href="#C0_0_267c5b0a72" x="74.232635" y="141.505631" style="fill: #dd8452; fill-opacity: 0.75"/>
    </g>
    <g clip-path="url(#pca22a5c1f6)">
     <use xlink:href="#C0_0_267c5b0a72" x="74.275827" y="162.021459" style="fill: #dd8452; fill-opacity: 0.75"/>
    </g>
    <g clip-path="url(#pca22a5c1f6)">
     <use xlink:href="#C0_0_267c5b0a72" x="83.442218" y="158.89051" style="fill: #dd8452; fill-opacity: 0.75"/>
    </g>
    <g clip-path="url(#pca22a5c1f6)">
     <use xlink:href="#C0_0_267c5b0a72" x="85.340899" y="156.959501" style="fill: #dd8452; fill-opacity: 0.75"/>
    </g>
   </g>
   <g id="PathCollection_4">
    <defs>
     <path id="C1_0_2c143507c2" d="M 0 2.5 
C 0.663008 2.5 1.29895 2.236584 1.767767 1.767767 
C 2.236584 1.29895 2.5 0.663008 2.5 -0 
C 2.5 -0.663008 2.236584 -1.29895 1.767767 -1.767767 
C 1.29895 -2.236584 0.663008 -2.5 0 -2.5 
C -0.663008 -2.5 -1.29895 -2.236584 -1.767767 -1.767767 
C -2.236584 -1.29895 -2.5 -0.663008 -2.5 0 
C -2.5 0.663008 -2.236584 1.29895 -1.767767 1.767767 
C -1.29895 2.236584 -0.663008 2.5 0 2.5 
z
"/>
    </defs>
    <g clip-path="url(#pca22a5c1f6)">
     <use xlink:href="#C1_0_2c143507c2" x="142.250528" y="149.13115" style="fill: #4c72b0; fill-opacity: 0.75"/>
    </g>
    <g clip-path="url(#pca22a5c1f6)">
     <use xlink:href="#C1_0_2c143507c2" x="145.147844" y="162.460199" style="fill: #4c72b0; fill-opacity: 0.75"/>
    </g>
    <g clip-path="url(#pca22a5c1f6)">
     <use xlink:href="#C1_0_2c143507c2" x="140.992798" y="175.604623" style="fill: #4c72b0; fill-opacity: 0.75"/>
    </g>
    <g clip-path="url(#pca22a5c1f6)">
     <use xlink:href="#C1_0_2c143507c2" x="148.875416" y="185.241607" style="fill: #4c72b0; fill-opacity: 0.75"/>
    </g>
    <g clip-path="url(#pca22a5c1f6)">
     <use xlink:href="#C1_0_2c143507c2" x="147.964653" y="183.392398" style="fill: #dd8452; fill-opacity: 0.75"/>
    </g>
    <g clip-path="url(#pca22a5c1f6)">
     <use xlink:href="#C1_0_2c143507c2" x="143.593894" y="183.803873" style="fill: #dd8452; fill-opacity: 0.75"/>
    </g>
    <g clip-path="url(#pca22a5c1f6)">
     <use xlink:href="#C1_0_2c143507c2" x="147.409984" y="189.78973" style="fill: #dd8452; fill-opacity: 0.75"/>
    </g>
    <g clip-path="url(#pca22a5c1f6)">
     <use xlink:href="#C1_0_2c143507c2" x="144.519494" y="191.204239" style="fill: #dd8452; fill-opacity: 0.75"/>
    </g>
   </g>
   <g id="PathCollection_5">
    <defs>
     <path id="C2_0_c2f88ba159" d="M 0 2.5 
C 0.663008 2.5 1.29895 2.236584 1.767767 1.767767 
C 2.236584 1.29895 2.5 0.663008 2.5 -0 
C 2.5 -0.663008 2.236584 -1.29895 1.767767 -1.767767 
C 1.29895 -2.236584 0.663008 -2.5 0 -2.5 
C -0.663008 -2.5 -1.29895 -2.236584 -1.767767 -1.767767 
C -2.236584 -1.29895 -2.5 -0.663008 -2.5 0 
C -2.5 0.663008 -2.236584 1.29895 -1.767767 1.767767 
C -1.29895 2.236584 -0.663008 2.5 0 2.5 
z
"/>
    </defs>
    <g clip-path="url(#pca22a5c1f6)">
     <use xlink:href="#C2_0_c2f88ba159" x="204.661445" y="134.366994" style="fill: #4c72b0; fill-opacity: 0.75"/>
    </g>
    <g clip-path="url(#pca22a5c1f6)">
     <use xlink:href="#C2_0_c2f88ba159" x="205.428285" y="139.828167" style="fill: #4c72b0; fill-opacity: 0.75"/>
    </g>
    <g clip-path="url(#pca22a5c1f6)">
     <use xlink:href="#C2_0_c2f88ba159" x="211.043038" y="97.001825" style="fill: #4c72b0; fill-opacity: 0.75"/>
    </g>
    <g clip-path="url(#pca22a5c1f6)">
     <use xlink:href="#C2_0_c2f88ba159" x="203.952462" y="163.754531" style="fill: #4c72b0; fill-opacity: 0.75"/>
    </g>
    <g clip-path="url(#pca22a5c1f6)">
     <use xlink:href="#C2_0_c2f88ba159" x="206.320317" y="146.475646" style="fill: #dd8452; fill-opacity: 0.75"/>
    </g>
    <g clip-path="url(#pca22a5c1f6)">
     <use xlink:href="#C2_0_c2f88ba159" x="209.60839" y="153.680046" style="fill: #dd8452; fill-opacity: 0.75"/>
    </g>
    <g clip-path="url(#pca22a5c1f6)">
     <use xlink:href="#C2_0_c2f88ba159" x="206.882622" y="112.243089" style="fill: #dd8452; fill-opacity: 0.75"/>
    </g>
    <g clip-path="url(#pca22a5c1f6)">
     <use xlink:href="#C2_0_c2f88ba159" x="215.341672" y="32.937187" style="fill: #dd8452; fill-opacity: 0.75"/>
    </g>
   </g>
   <g id="PathCollection_6">
    <defs>
     <path id="C3_0_c677df5a67" d="M 0 2.5 
C 0.663008 2.5 1.29895 2.236584 1.767767 1.767767 
C 2.236584 1.29895 2.5 0.663008 2.5 -0 
C 2.5 -0.663008 2.236584 -1.29895 1.767767 -1.767767 
C 1.29895 -2.236584 0.663008 -2.5 0 -2.5 
C -0.663008 -2.5 -1.29895 -2.236584 -1.767767 -1.767767 
C -2.236584 -1.29895 -2.5 -0.663008 -2.5 0 
C -2.5 0.663008 -2.236584 1.29895 -1.767767 1.767767 
C -1.29895 2.236584 -0.663008 2.5 0 2.5 
z
"/>
    </defs>
    <g clip-path="url(#pca22a5c1f6)">
     <use xlink:href="#C3_0_c677df5a67" x="269.542422" y="205.151236" style="fill: #4c72b0; fill-opacity: 0.75"/>
    </g>
    <g clip-path="url(#pca22a5c1f6)">
     <use xlink:href="#C3_0_c677df5a67" x="273.602927" y="202.004511" style="fill: #4c72b0; fill-opacity: 0.75"/>
    </g>
    <g clip-path="url(#pca22a5c1f6)">
     <use xlink:href="#C3_0_c677df5a67" x="267.493161" y="205.280923" style="fill: #4c72b0; fill-opacity: 0.75"/>
    </g>
    <g clip-path="url(#pca22a5c1f6)">
     <use xlink:href="#C3_0_c677df5a67" x="276.244532" y="204.861216" style="fill: #4c72b0; fill-opacity: 0.75"/>
    </g>
    <g clip-path="url(#pca22a5c1f6)">
     <use xlink:href="#C3_0_c677df5a67" x="278.738394" y="205.232219" style="fill: #4c72b0; fill-opacity: 0.75"/>
    </g>
    <g clip-path="url(#pca22a5c1f6)">
     <use xlink:href="#C3_0_c677df5a67" x="269.400737" y="199.312451" style="fill: #dd8452; fill-opacity: 0.75"/>
    </g>
    <g clip-path="url(#pca22a5c1f6)">
     <use xlink:href="#C3_0_c677df5a67" x="275.660145" y="205.135544" style="fill: #dd8452; fill-opacity: 0.75"/>
    </g>
    <g clip-path="url(#pca22a5c1f6)">
     <use xlink:href="#C3_0_c677df5a67" x="276.153915" y="199.606203" style="fill: #dd8452; fill-opacity: 0.75"/>
    </g>
    <g clip-path="url(#pca22a5c1f6)">
     <use xlink:href="#C3_0_c677df5a67" x="279.710006" y="205.032898" style="fill: #dd8452; fill-opacity: 0.75"/>
    </g>
    <g clip-path="url(#pca22a5c1f6)">
     <use xlink:href="#C3_0_c677df5a67" x="269.114871" y="193.493233" style="fill: #dd8452; fill-opacity: 0.75"/>
    </g>
   </g>
   <g id="PathCollection_7">
    <defs>
     <path id="C4_0_81b1ec5860" d="M 0 2.5 
C 0.663008 2.5 1.29895 2.236584 1.767767 1.767767 
C 2.236584 1.29895 2.5 0.663008 2.5 -0 
C 2.5 -0.663008 2.236584 -1.29895 1.767767 -1.767767 
C 1.29895 -2.236584 0.663008 -2.5 0 -2.5 
C -0.663008 -2.5 -1.29895 -2.236584 -1.767767 -1.767767 
C -2.236584 -1.29895 -2.5 -0.663008 -2.5 0 
C -2.5 0.663008 -2.236584 1.29895 -1.767767 1.767767 
C -1.29895 2.236584 -0.663008 2.5 0 2.5 
z
"/>
    </defs>
    <g clip-path="url(#pca22a5c1f6)">
     <use xlink:href="#C4_0_81b1ec5860" x="334.10545" y="150.087216" style="fill: #4c72b0; fill-opacity: 0.75"/>
    </g>
    <g clip-path="url(#pca22a5c1f6)">
     <use xlink:href="#C4_0_81b1ec5860" x="340.711998" y="152.405527" style="fill: #4c72b0; fill-opacity: 0.75"/>
    </g>
    <g clip-path="url(#pca22a5c1f6)">
     <use xlink:href="#C4_0_81b1ec5860" x="340.19661" y="122.116229" style="fill: #4c72b0; fill-opacity: 0.75"/>
    </g>
    <g clip-path="url(#pca22a5c1f6)">
     <use xlink:href="#C4_0_81b1ec5860" x="341.617884" y="86.824563" style="fill: #dd8452; fill-opacity: 0.75"/>
    </g>
    <g clip-path="url(#pca22a5c1f6)">
     <use xlink:href="#C4_0_81b1ec5860" x="336.465409" y="83.002425" style="fill: #dd8452; fill-opacity: 0.75"/>
    </g>
    <g clip-path="url(#pca22a5c1f6)">
     <use xlink:href="#C4_0_81b1ec5860" x="342.219954" y="86.088869" style="fill: #dd8452; fill-opacity: 0.75"/>
    </g>
   </g>
   <g id="PathCollection_8">
    <defs>
     <path id="C5_0_1f0dd32a00" d="M 0 2.5 
C 0.663008 2.5 1.29895 2.236584 1.767767 1.767767 
C 2.236584 1.29895 2.5 0.663008 2.5 -0 
C 2.5 -0.663008 2.236584 -1.29895 1.767767 -1.767767 
C 1.29895 -2.236584 0.663008 -2.5 0 -2.5 
C -0.663008 -2.5 -1.29895 -2.236584 -1.767767 -1.767767 
C -2.236584 -1.29895 -2.5 -0.663008 -2.5 0 
C -2.5 0.663008 -2.236584 1.29895 -1.767767 1.767767 
C -1.29895 2.236584 -0.663008 2.5 0 2.5 
z
"/>
    </defs>
    <g clip-path="url(#pca22a5c1f6)">
     <use xlink:href="#C5_0_1f0dd32a00" x="408.170619" y="192.167207" style="fill: #4c72b0; fill-opacity: 0.75"/>
    </g>
    <g clip-path="url(#pca22a5c1f6)">
     <use xlink:href="#C5_0_1f0dd32a00" x="406.81676" y="195.440026" style="fill: #4c72b0; fill-opacity: 0.75"/>
    </g>
    <g clip-path="url(#pca22a5c1f6)">
     <use xlink:href="#C5_0_1f0dd32a00" x="399.07059" y="195.516436" style="fill: #4c72b0; fill-opacity: 0.75"/>
    </g>
    <g clip-path="url(#pca22a5c1f6)">
     <use xlink:href="#C5_0_1f0dd32a00" x="403.595321" y="190.59435" style="fill: #4c72b0; fill-opacity: 0.75"/>
    </g>
    <g clip-path="url(#pca22a5c1f6)">
     <use xlink:href="#C5_0_1f0dd32a00" x="398.537953" y="197.218554" style="fill: #dd8452; fill-opacity: 0.75"/>
    </g>
    <g clip-path="url(#pca22a5c1f6)">
     <use xlink:href="#C5_0_1f0dd32a00" x="399.981354" y="200.659379" style="fill: #dd8452; fill-opacity: 0.75"/>
    </g>
    <g clip-path="url(#pca22a5c1f6)">
     <use xlink:href="#C5_0_1f0dd32a00" x="402.201524" y="196.087291" style="fill: #dd8452; fill-opacity: 0.75"/>
    </g>
    <g clip-path="url(#pca22a5c1f6)">
     <use xlink:href="#C5_0_1f0dd32a00" x="405.074967" y="200.189796" style="fill: #dd8452; fill-opacity: 0.75"/>
    </g>
   </g>
   <g id="PathCollection_9">
    <defs>
     <path id="C6_0_a3d521e12a" d="M 0 2.5 
C 0.663008 2.5 1.29895 2.236584 1.767767 1.767767 
C 2.236584 1.29895 2.5 0.663008 2.5 -0 
C 2.5 -0.663008 2.236584 -1.29895 1.767767 -1.767767 
C 1.29895 -2.236584 0.663008 -2.5 0 -2.5 
C -0.663008 -2.5 -1.29895 -2.236584 -1.767767 -1.767767 
C -2.236584 -1.29895 -2.5 -0.663008 -2.5 0 
C -2.5 0.663008 -2.236584 1.29895 -1.767767 1.767767 
C -1.29895 2.236584 -0.663008 2.5 0 2.5 
z
"/>
    </defs>
    <g clip-path="url(#pca22a5c1f6)">
     <use xlink:href="#C6_0_a3d521e12a" x="468.761833" y="165.410301" style="fill: #4c72b0; fill-opacity: 0.75"/>
    </g>
    <g clip-path="url(#pca22a5c1f6)">
     <use xlink:href="#C6_0_a3d521e12a" x="474.223315" y="165.192343" style="fill: #4c72b0; fill-opacity: 0.75"/>
    </g>
    <g clip-path="url(#pca22a5c1f6)">
     <use xlink:href="#C6_0_a3d521e12a" x="471.781755" y="173.754264" style="fill: #4c72b0; fill-opacity: 0.75"/>
    </g>
    <g clip-path="url(#pca22a5c1f6)">
     <use xlink:href="#C6_0_a3d521e12a" x="467.987242" y="158.613292" style="fill: #4c72b0; fill-opacity: 0.75"/>
    </g>
    <g clip-path="url(#pca22a5c1f6)">
     <use xlink:href="#C6_0_a3d521e12a" x="472.380856" y="182.344088" style="fill: #dd8452; fill-opacity: 0.75"/>
    </g>
    <g clip-path="url(#pca22a5c1f6)">
     <use xlink:href="#C6_0_a3d521e12a" x="461.920418" y="192.402176" style="fill: #dd8452; fill-opacity: 0.75"/>
    </g>
    <g clip-path="url(#pca22a5c1f6)">
     <use xlink:href="#C6_0_a3d521e12a" x="461.980729" y="181.76583" style="fill: #dd8452; fill-opacity: 0.75"/>
    </g>
    <g clip-path="url(#pca22a5c1f6)">
     <use xlink:href="#C6_0_a3d521e12a" x="472.794801" y="164.520606" style="fill: #dd8452; fill-opacity: 0.75"/>
    </g>
   </g>
   <g id="text_14">
    <!-- OBSCN, $p_{adj}$ &lt; .001 *** -->
    <g style="fill: #262626" transform="translate(47.22 18.32)scale(0.09 -0.09)">
     <defs>
      <path id="ArialMT-4f" d="M 309 2231 
Q 309 3372 921 4017 
Q 1534 4663 2503 4663 
Q 3138 4663 3647 4359 
Q 4156 4056 4423 3514 
Q 4691 2972 4691 2284 
Q 4691 1588 4409 1038 
Q 4128 488 3612 205 
Q 3097 -78 2500 -78 
Q 1853 -78 1343 234 
Q 834 547 571 1087 
Q 309 1628 309 2231 
z
M 934 2222 
Q 934 1394 1379 917 
Q 1825 441 2497 441 
Q 3181 441 3623 922 
Q 4066 1403 4066 2288 
Q 4066 2847 3877 3264 
Q 3688 3681 3323 3911 
Q 2959 4141 2506 4141 
Q 1863 4141 1398 3698 
Q 934 3256 934 2222 
z
" transform="scale(0.015625)"/>
      <path id="ArialMT-42" d="M 469 0 
L 469 4581 
L 2188 4581 
Q 2713 4581 3030 4442 
Q 3347 4303 3526 4014 
Q 3706 3725 3706 3409 
Q 3706 3116 3547 2856 
Q 3388 2597 3066 2438 
Q 3481 2316 3704 2022 
Q 3928 1728 3928 1328 
Q 3928 1006 3792 729 
Q 3656 453 3456 303 
Q 3256 153 2954 76 
Q 2653 0 2216 0 
L 469 0 
z
M 1075 2656 
L 2066 2656 
Q 2469 2656 2644 2709 
Q 2875 2778 2992 2937 
Q 3109 3097 3109 3338 
Q 3109 3566 3000 3739 
Q 2891 3913 2687 3977 
Q 2484 4041 1991 4041 
L 1075 4041 
L 1075 2656 
z
M 1075 541 
L 2216 541 
Q 2509 541 2628 563 
Q 2838 600 2978 687 
Q 3119 775 3209 942 
Q 3300 1109 3300 1328 
Q 3300 1584 3169 1773 
Q 3038 1963 2805 2039 
Q 2572 2116 2134 2116 
L 1075 2116 
L 1075 541 
z
" transform="scale(0.015625)"/>
      <path id="ArialMT-53" d="M 288 1472 
L 859 1522 
Q 900 1178 1048 958 
Q 1197 738 1509 602 
Q 1822 466 2213 466 
Q 2559 466 2825 569 
Q 3091 672 3220 851 
Q 3350 1031 3350 1244 
Q 3350 1459 3225 1620 
Q 3100 1781 2813 1891 
Q 2628 1963 1997 2114 
Q 1366 2266 1113 2400 
Q 784 2572 623 2826 
Q 463 3081 463 3397 
Q 463 3744 659 4045 
Q 856 4347 1234 4503 
Q 1613 4659 2075 4659 
Q 2584 4659 2973 4495 
Q 3363 4331 3572 4012 
Q 3781 3694 3797 3291 
L 3216 3247 
Q 3169 3681 2898 3903 
Q 2628 4125 2100 4125 
Q 1550 4125 1298 3923 
Q 1047 3722 1047 3438 
Q 1047 3191 1225 3031 
Q 1400 2872 2139 2705 
Q 2878 2538 3153 2413 
Q 3553 2228 3743 1945 
Q 3934 1663 3934 1294 
Q 3934 928 3725 604 
Q 3516 281 3123 101 
Q 2731 -78 2241 -78 
Q 1619 -78 1198 103 
Q 778 284 539 648 
Q 300 1013 288 1472 
z
" transform="scale(0.015625)"/>
      <path id="ArialMT-43" d="M 3763 1606 
L 4369 1453 
Q 4178 706 3683 314 
Q 3188 -78 2472 -78 
Q 1731 -78 1267 223 
Q 803 525 561 1097 
Q 319 1669 319 2325 
Q 319 3041 592 3573 
Q 866 4106 1370 4382 
Q 1875 4659 2481 4659 
Q 3169 4659 3637 4309 
Q 4106 3959 4291 3325 
L 3694 3184 
Q 3534 3684 3231 3912 
Q 2928 4141 2469 4141 
Q 1941 4141 1586 3887 
Q 1231 3634 1087 3207 
Q 944 2781 944 2328 
Q 944 1744 1114 1308 
Q 1284 872 1643 656 
Q 2003 441 2422 441 
Q 2931 441 3284 734 
Q 3638 1028 3763 1606 
z
" transform="scale(0.015625)"/>
      <path id="ArialMT-4e" d="M 488 0 
L 488 4581 
L 1109 4581 
L 3516 984 
L 3516 4581 
L 4097 4581 
L 4097 0 
L 3475 0 
L 1069 3600 
L 1069 0 
L 488 0 
z
" transform="scale(0.015625)"/>
      <path id="ArialMT-2c" d="M 569 0 
L 569 641 
L 1209 641 
L 1209 0 
Q 1209 -353 1084 -570 
Q 959 -788 688 -906 
L 531 -666 
Q 709 -588 793 -436 
Q 878 -284 888 0 
L 569 0 
z
" transform="scale(0.015625)"/>
      <path id="DejaVuSans-Oblique-70" d="M 3175 2156 
Q 3175 2616 2975 2859 
Q 2775 3103 2400 3103 
Q 2144 3103 1911 2972 
Q 1678 2841 1497 2591 
Q 1319 2344 1212 1994 
Q 1106 1644 1106 1300 
Q 1106 863 1306 627 
Q 1506 391 1875 391 
Q 2147 391 2380 519 
Q 2613 647 2778 891 
Q 2956 1147 3065 1494 
Q 3175 1841 3175 2156 
z
M 1394 2969 
Q 1625 3272 1939 3428 
Q 2253 3584 2638 3584 
Q 3175 3584 3472 3232 
Q 3769 2881 3769 2247 
Q 3769 1728 3584 1258 
Q 3400 788 3053 416 
Q 2822 169 2531 39 
Q 2241 -91 1919 -91 
Q 1547 -91 1294 64 
Q 1041 219 916 525 
L 556 -1331 
L -19 -1331 
L 922 3500 
L 1497 3500 
L 1394 2969 
z
" transform="scale(0.015625)"/>
      <path id="DejaVuSans-Oblique-61" d="M 3438 1997 
L 3047 0 
L 2472 0 
L 2578 531 
Q 2325 219 2001 64 
Q 1678 -91 1281 -91 
Q 834 -91 548 182 
Q 263 456 263 884 
Q 263 1497 752 1853 
Q 1241 2209 2100 2209 
L 2900 2209 
L 2931 2363 
Q 2938 2388 2941 2417 
Q 2944 2447 2944 2509 
Q 2944 2788 2717 2942 
Q 2491 3097 2081 3097 
Q 1800 3097 1504 3025 
Q 1209 2953 897 2809 
L 997 3341 
Q 1322 3463 1633 3523 
Q 1944 3584 2234 3584 
Q 2853 3584 3176 3315 
Q 3500 3047 3500 2534 
Q 3500 2431 3484 2292 
Q 3469 2153 3438 1997 
z
M 2816 1759 
L 2241 1759 
Q 1534 1759 1195 1570 
Q 856 1381 856 984 
Q 856 709 1029 553 
Q 1203 397 1509 397 
Q 1978 397 2328 733 
Q 2678 1069 2791 1631 
L 2816 1759 
z
" transform="scale(0.015625)"/>
      <path id="DejaVuSans-Oblique-64" d="M 2675 525 
Q 2444 222 2128 65 
Q 1813 -91 1428 -91 
Q 903 -91 598 267 
Q 294 625 294 1247 
Q 294 1766 478 2236 
Q 663 2706 1013 3078 
Q 1244 3325 1534 3454 
Q 1825 3584 2144 3584 
Q 2481 3584 2739 3421 
Q 2997 3259 3138 2956 
L 3513 4863 
L 4091 4863 
L 3144 0 
L 2566 0 
L 2675 525 
z
M 891 1350 
Q 891 897 1095 644 
Q 1300 391 1663 391 
Q 1931 391 2161 520 
Q 2391 650 2566 903 
Q 2750 1166 2856 1509 
Q 2963 1853 2963 2188 
Q 2963 2622 2758 2865 
Q 2553 3109 2194 3109 
Q 1922 3109 1687 2981 
Q 1453 2853 1288 2613 
Q 1106 2353 998 2009 
Q 891 1666 891 1350 
z
" transform="scale(0.015625)"/>
      <path id="DejaVuSans-Oblique-6a" d="M 928 3500 
L 1503 3500 
L 813 -63 
L 809 -78 
Q 694 -675 544 -897 
Q 403 -1106 132 -1218 
Q -138 -1331 -506 -1331 
L -722 -1331 
L -628 -844 
L -481 -844 
Q -144 -844 -1 -703 
Q 141 -563 238 -63 
L 928 3500 
z
M 1197 4863 
L 1772 4863 
L 1631 4134 
L 1056 4134 
L 1197 4863 
z
" transform="scale(0.015625)"/>
      <path id="ArialMT-3c" d="M 350 2003 
L 350 2528 
L 3384 3809 
L 3384 3250 
L 978 2263 
L 3384 1266 
L 3384 706 
L 350 2003 
z
" transform="scale(0.015625)"/>
      <path id="ArialMT-2e" d="M 581 0 
L 581 641 
L 1222 641 
L 1222 0 
L 581 0 
z
" transform="scale(0.015625)"/>
      <path id="ArialMT-2a" d="M 200 3741 
L 344 4184 
Q 841 4009 1066 3881 
Q 1006 4447 1003 4659 
L 1456 4659 
Q 1447 4350 1384 3884 
Q 1706 4047 2122 4184 
L 2266 3741 
Q 1869 3609 1488 3566 
Q 1678 3400 2025 2975 
L 1650 2709 
Q 1469 2956 1222 3381 
Q 991 2941 816 2709 
L 447 2975 
Q 809 3422 966 3566 
Q 563 3644 200 3741 
z
" transform="scale(0.015625)"/>
     </defs>
     <use xlink:href="#ArialMT-4f" transform="translate(0 0.140625)"/>
     <use xlink:href="#ArialMT-42" transform="translate(77.783203 0.140625)"/>
     <use xlink:href="#ArialMT-53" transform="translate(144.482422 0.140625)"/>
     <use xlink:href="#ArialMT-43" transform="translate(211.181641 0.140625)"/>
     <use xlink:href="#ArialMT-4e" transform="translate(283.398438 0.140625)"/>
     <use xlink:href="#ArialMT-2c" transform="translate(355.615234 0.140625)"/>
     <use xlink:href="#ArialMT-20" transform="translate(383.398438 0.140625)"/>
     <use xlink:href="#DejaVuSans-Oblique-70" transform="translate(411.181641 0.140625)"/>
     <use xlink:href="#DejaVuSans-Oblique-61" transform="translate(474.658203 -16.265625)scale(0.7)"/>
     <use xlink:href="#DejaVuSans-Oblique-64" transform="translate(517.553711 -16.265625)scale(0.7)"/>
     <use xlink:href="#DejaVuSans-Oblique-6a" transform="translate(561.987305 -16.265625)scale(0.7)"/>
     <use xlink:href="#ArialMT-20" transform="translate(584.169922 0.140625)"/>
     <use xlink:href="#ArialMT-3c" transform="translate(611.953125 0.140625)"/>
     <use xlink:href="#ArialMT-20" transform="translate(670.351562 0.140625)"/>
     <use xlink:href="#ArialMT-2e" transform="translate(698.134766 0.140625)"/>
     <use xlink:href="#ArialMT-30" transform="translate(725.917969 0.140625)"/>
     <use xlink:href="#ArialMT-30" transform="translate(781.533203 0.140625)"/>
     <use xlink:href="#ArialMT-31" transform="translate(837.148438 0.140625)"/>
     <use xlink:href="#ArialMT-20" transform="translate(892.763672 0.140625)"/>
     <use xlink:href="#ArialMT-2a" transform="translate(920.546875 0.140625)"/>
     <use xlink:href="#ArialMT-2a" transform="translate(959.462891 0.140625)"/>
     <use xlink:href="#ArialMT-2a" transform="translate(998.378906 0.140625)"/>
    </g>
   </g>
   <g id="legend_1">
    <g id="patch_5">
     <path d="M 441.91497 69.712344 
L 494.21622 69.712344 
Q 496.01622 69.712344 496.01622 67.912344 
L 496.01622 30.62 
Q 496.01622 28.82 494.21622 28.82 
L 441.91497 28.82 
Q 440.11497 28.82 440.11497 30.62 
L 440.11497 67.912344 
Q 440.11497 69.712344 441.91497 69.712344 
z
" style="fill: #ffffff; opacity: 0.8; stroke: #cccccc; stroke-linejoin: miter"/>
    </g>
    <g id="text_15">
     <!-- Treatment -->
     <g style="fill: #262626" transform="translate(447.729111 38.862031)scale(0.09 -0.09)">
      <use xlink:href="#ArialMT-54"/>
      <use xlink:href="#ArialMT-72" x="57.333984"/>
      <use xlink:href="#ArialMT-65" x="90.634766"/>
      <use xlink:href="#ArialMT-61" x="146.25"/>
      <use xlink:href="#ArialMT-74" x="201.865234"/>
      <use xlink:href="#ArialMT-6d" x="229.648438"/>
      <use xlink:href="#ArialMT-65" x="312.949219"/>
      <use xlink:href="#ArialMT-6e" x="368.564453"/>
      <use xlink:href="#ArialMT-74" x="424.179688"/>
     </g>
    </g>
    <g id="PathCollection_10">
     <defs>
      <path id="mb520aed31b" d="M 0 3.872983 
C 1.027127 3.872983 2.012324 3.464901 2.738613 2.738613 
C 3.464901 2.012324 3.872983 1.027127 3.872983 0 
C 3.872983 -1.027127 3.464901 -2.012324 2.738613 -2.738613 
C 2.012324 -3.464901 1.027127 -3.872983 0 -3.872983 
C -1.027127 -3.872983 -2.012324 -3.464901 -2.738613 -2.738613 
C -3.464901 -2.012324 -3.872983 -1.027127 -3.872983 0 
C -3.872983 1.027127 -3.464901 2.012324 -2.738613 2.738613 
C -2.012324 3.464901 -1.027127 3.872983 0 3.872983 
z
" style="stroke: #4c72b0"/>
     </defs>
     <g>
      <use xlink:href="#mb520aed31b" x="452.71497" y="49.230313" style="fill: #4c72b0; stroke: #4c72b0"/>
     </g>
    </g>
    <g id="text_16">
     <!-- BEVA -->
     <g style="fill: #262626" transform="translate(468.91497 51.592813)scale(0.09 -0.09)">
      <defs>
       <path id="ArialMT-45" d="M 506 0 
L 506 4581 
L 3819 4581 
L 3819 4041 
L 1113 4041 
L 1113 2638 
L 3647 2638 
L 3647 2100 
L 1113 2100 
L 1113 541 
L 3925 541 
L 3925 0 
L 506 0 
z
" transform="scale(0.015625)"/>
       <path id="ArialMT-56" d="M 1803 0 
L 28 4581 
L 684 4581 
L 1875 1253 
Q 2019 853 2116 503 
Q 2222 878 2363 1253 
L 3600 4581 
L 4219 4581 
L 2425 0 
L 1803 0 
z
" transform="scale(0.015625)"/>
       <path id="ArialMT-41" d="M -9 0 
L 1750 4581 
L 2403 4581 
L 4278 0 
L 3588 0 
L 3053 1388 
L 1138 1388 
L 634 0 
L -9 0 
z
M 1313 1881 
L 2866 1881 
L 2388 3150 
Q 2169 3728 2063 4100 
Q 1975 3659 1816 3225 
L 1313 1881 
z
" transform="scale(0.015625)"/>
      </defs>
      <use xlink:href="#ArialMT-42"/>
      <use xlink:href="#ArialMT-45" x="66.699219"/>
      <use xlink:href="#ArialMT-56" x="133.398438"/>
      <use xlink:href="#ArialMT-41" x="192.722656"/>
     </g>
    </g>
    <g id="PathCollection_11">
     <defs>
      <path id="m7639066025" d="M 0 3.872983 
C 1.027127 3.872983 2.012324 3.464901 2.738613 2.738613 
C 3.464901 2.012324 3.872983 1.027127 3.872983 0 
C 3.872983 -1.027127 3.464901 -2.012324 2.738613 -2.738613 
C 2.012324 -3.464901 1.027127 -3.872983 0 -3.872983 
C -1.027127 -3.872983 -2.012324 -3.464901 -2.738613 -2.738613 
C -3.464901 -2.012324 -3.872983 -1.027127 -3.872983 0 
C -3.872983 1.027127 -3.464901 2.012324 -2.738613 2.738613 
C -2.012324 3.464901 -1.027127 3.872983 0 3.872983 
z
" style="stroke: #dd8452"/>
     </defs>
     <g>
      <use xlink:href="#m7639066025" x="452.71497" y="61.961094" style="fill: #dd8452; stroke: #dd8452"/>
     </g>
    </g>
    <g id="text_17">
     <!-- CTRL -->
     <g style="fill: #262626" transform="translate(468.91497 64.323594)scale(0.09 -0.09)">
      <defs>
       <path id="ArialMT-52" d="M 503 0 
L 503 4581 
L 2534 4581 
Q 3147 4581 3465 4457 
Q 3784 4334 3975 4021 
Q 4166 3709 4166 3331 
Q 4166 2844 3850 2509 
Q 3534 2175 2875 2084 
Q 3116 1969 3241 1856 
Q 3506 1613 3744 1247 
L 4541 0 
L 3778 0 
L 3172 953 
Q 2906 1366 2734 1584 
Q 2563 1803 2427 1890 
Q 2291 1978 2150 2013 
Q 2047 2034 1813 2034 
L 1109 2034 
L 1109 0 
L 503 0 
z
M 1109 2559 
L 2413 2559 
Q 2828 2559 3062 2645 
Q 3297 2731 3419 2920 
Q 3541 3109 3541 3331 
Q 3541 3656 3305 3865 
Q 3069 4075 2559 4075 
L 1109 4075 
L 1109 2559 
z
" transform="scale(0.015625)"/>
       <path id="ArialMT-4c" d="M 469 0 
L 469 4581 
L 1075 4581 
L 1075 541 
L 3331 541 
L 3331 0 
L 469 0 
z
" transform="scale(0.015625)"/>
      </defs>
      <use xlink:href="#ArialMT-43"/>
      <use xlink:href="#ArialMT-54" x="72.216797"/>
      <use xlink:href="#ArialMT-52" x="133.300781"/>
      <use xlink:href="#ArialMT-4c" x="205.517578"/>
     </g>
    </g>
   </g>
  </g>
 </g>
 <defs>
  <clipPath id="pca22a5c1f6">
   <rect x="47.22" y="24.32" width="453.29622" height="189.57811"/>
  </clipPath>
 </defs>
</svg>
