<?xml version="1.0" encoding="utf-8" standalone="no"?>
<!DOCTYPE svg PUBLIC "-//W3C//DTD SVG 1.1//EN"
  "http://www.w3.org/Graphics/SVG/1.1/DTD/svg11.dtd">
<svg xmlns:xlink="http://www.w3.org/1999/xlink" width="510.23622pt" height="255.11811pt" viewBox="0 0 510.23622 255.11811" xmlns="http://www.w3.org/2000/svg" version="1.1">
 <metadata>
  <rdf:RDF xmlns:dc="http://purl.org/dc/elements/1.1/" xmlns:cc="http://creativecommons.org/ns#" xmlns:rdf="http://www.w3.org/1999/02/22-rdf-syntax-ns#">
   <cc:Work>
    <dc:type rdf:resource="http://purl.org/dc/dcmitype/StillImage"/>
    <dc:date>2022-04-27T00:19:16.649754</dc:date>
    <dc:format>image/svg+xml</dc:format>
    <dc:creator>
     <cc:Agent>
      <dc:title>Matplotlib v3.5.1, https://matplotlib.org/</dc:title>
     </cc:Agent>
    </dc:creator>
   </cc:Work>
  </rdf:RDF>
 </metadata>
 <defs>
  <style type="text/css">*{stroke-linejoin: round; stroke-linecap: butt}</style>
 </defs>
 <g id="figure_1">
  <g id="patch_1">
   <path d="M 0 255.11811 
L 510.23622 255.11811 
L 510.23622 0 
L 0 0 
z
" style="fill: #ffffff"/>
  </g>
  <g id="axes_1">
   <g id="patch_2">
    <path d="M 47.22 213.89811 
L 500.51622 213.89811 
L 500.51622 24.32 
L 47.22 24.32 
z
" style="fill: #ffffff"/>
   </g>
   <g id="matplotlib.axis_1">
    <g id="xtick_1">
     <g id="text_1">
      <!-- 49 -->
      <g style="fill: #444444" transform="translate(74.593458 229.840141)scale(0.09 -0.09)">
       <defs>
        <path id="ArialMT-34" d="M 2069 0 
L 2069 1097 
L 81 1097 
L 81 1613 
L 2172 4581 
L 2631 4581 
L 2631 1613 
L 3250 1613 
L 3250 1097 
L 2631 1097 
L 2631 0 
L 2069 0 
z
M 2069 1613 
L 2069 3678 
L 634 1613 
L 2069 1613 
z
" transform="scale(0.015625)"/>
        <path id="ArialMT-39" d="M 350 1059 
L 891 1109 
Q 959 728 1153 556 
Q 1347 384 1650 384 
Q 1909 384 2104 503 
Q 2300 622 2425 820 
Q 2550 1019 2634 1356 
Q 2719 1694 2719 2044 
Q 2719 2081 2716 2156 
Q 2547 1888 2255 1720 
Q 1963 1553 1622 1553 
Q 1053 1553 659 1965 
Q 266 2378 266 3053 
Q 266 3750 677 4175 
Q 1088 4600 1706 4600 
Q 2153 4600 2523 4359 
Q 2894 4119 3086 3673 
Q 3278 3228 3278 2384 
Q 3278 1506 3087 986 
Q 2897 466 2520 194 
Q 2144 -78 1638 -78 
Q 1100 -78 759 220 
Q 419 519 350 1059 
z
M 2653 3081 
Q 2653 3566 2395 3850 
Q 2138 4134 1775 4134 
Q 1400 4134 1122 3828 
Q 844 3522 844 3034 
Q 844 2597 1108 2323 
Q 1372 2050 1759 2050 
Q 2150 2050 2401 2323 
Q 2653 2597 2653 3081 
z
" transform="scale(0.015625)"/>
       </defs>
       <use xlink:href="#ArialMT-34"/>
       <use xlink:href="#ArialMT-39" x="55.615234"/>
      </g>
     </g>
    </g>
    <g id="xtick_2">
     <g id="text_2">
      <!-- 17 -->
      <g style="fill: #444444" transform="translate(139.350061 229.840141)scale(0.09 -0.09)">
       <defs>
        <path id="ArialMT-31" d="M 2384 0 
L 1822 0 
L 1822 3584 
Q 1619 3391 1289 3197 
Q 959 3003 697 2906 
L 697 3450 
Q 1169 3672 1522 3987 
Q 1875 4303 2022 4600 
L 2384 4600 
L 2384 0 
z
" transform="scale(0.015625)"/>
        <path id="ArialMT-37" d="M 303 3981 
L 303 4522 
L 3269 4522 
L 3269 4084 
Q 2831 3619 2401 2847 
Q 1972 2075 1738 1259 
Q 1569 684 1522 0 
L 944 0 
Q 953 541 1156 1306 
Q 1359 2072 1739 2783 
Q 2119 3494 2547 3981 
L 303 3981 
z
" transform="scale(0.015625)"/>
       </defs>
       <use xlink:href="#ArialMT-31"/>
       <use xlink:href="#ArialMT-37" x="55.615234"/>
      </g>
     </g>
    </g>
    <g id="xtick_3">
     <g id="text_3">
      <!-- 69 -->
      <g style="fill: #444444" transform="translate(204.106664 229.840141)scale(0.09 -0.09)">
       <defs>
        <path id="ArialMT-36" d="M 3184 3459 
L 2625 3416 
Q 2550 3747 2413 3897 
Q 2184 4138 1850 4138 
Q 1581 4138 1378 3988 
Q 1113 3794 959 3422 
Q 806 3050 800 2363 
Q 1003 2672 1297 2822 
Q 1591 2972 1913 2972 
Q 2475 2972 2870 2558 
Q 3266 2144 3266 1488 
Q 3266 1056 3080 686 
Q 2894 316 2569 119 
Q 2244 -78 1831 -78 
Q 1128 -78 684 439 
Q 241 956 241 2144 
Q 241 3472 731 4075 
Q 1159 4600 1884 4600 
Q 2425 4600 2770 4297 
Q 3116 3994 3184 3459 
z
M 888 1484 
Q 888 1194 1011 928 
Q 1134 663 1356 523 
Q 1578 384 1822 384 
Q 2178 384 2434 671 
Q 2691 959 2691 1453 
Q 2691 1928 2437 2201 
Q 2184 2475 1800 2475 
Q 1419 2475 1153 2201 
Q 888 1928 888 1484 
z
" transform="scale(0.015625)"/>
       </defs>
       <use xlink:href="#ArialMT-36"/>
       <use xlink:href="#ArialMT-39" x="55.615234"/>
      </g>
     </g>
    </g>
    <g id="xtick_4">
     <g id="text_4">
      <!-- 15 -->
      <g style="fill: #444444" transform="translate(268.863266 229.840141)scale(0.09 -0.09)">
       <defs>
        <path id="ArialMT-35" d="M 266 1200 
L 856 1250 
Q 922 819 1161 601 
Q 1400 384 1738 384 
Q 2144 384 2425 690 
Q 2706 997 2706 1503 
Q 2706 1984 2436 2262 
Q 2166 2541 1728 2541 
Q 1456 2541 1237 2417 
Q 1019 2294 894 2097 
L 366 2166 
L 809 4519 
L 3088 4519 
L 3088 3981 
L 1259 3981 
L 1013 2750 
Q 1425 3038 1878 3038 
Q 2478 3038 2890 2622 
Q 3303 2206 3303 1553 
Q 3303 931 2941 478 
Q 2500 -78 1738 -78 
Q 1113 -78 717 272 
Q 322 622 266 1200 
z
" transform="scale(0.015625)"/>
       </defs>
       <use xlink:href="#ArialMT-31"/>
       <use xlink:href="#ArialMT-35" x="55.615234"/>
      </g>
     </g>
    </g>
    <g id="xtick_5">
     <g id="text_5">
      <!-- 5 -->
      <g style="fill: #444444" transform="translate(336.122291 229.840141)scale(0.09 -0.09)">
       <use xlink:href="#ArialMT-35"/>
      </g>
     </g>
    </g>
    <g id="xtick_6">
     <g id="text_6">
      <!-- 126 -->
      <g style="fill: #444444" transform="translate(395.87405 229.840141)scale(0.09 -0.09)">
       <defs>
        <path id="ArialMT-32" d="M 3222 541 
L 3222 0 
L 194 0 
Q 188 203 259 391 
Q 375 700 629 1000 
Q 884 1300 1366 1694 
Q 2113 2306 2375 2664 
Q 2638 3022 2638 3341 
Q 2638 3675 2398 3904 
Q 2159 4134 1775 4134 
Q 1369 4134 1125 3890 
Q 881 3647 878 3216 
L 300 3275 
Q 359 3922 746 4261 
Q 1134 4600 1788 4600 
Q 2447 4600 2831 4234 
Q 3216 3869 3216 3328 
Q 3216 3053 3103 2787 
Q 2991 2522 2730 2228 
Q 2469 1934 1863 1422 
Q 1356 997 1212 845 
Q 1069 694 975 541 
L 3222 541 
z
" transform="scale(0.015625)"/>
       </defs>
       <use xlink:href="#ArialMT-31"/>
       <use xlink:href="#ArialMT-32" x="55.615234"/>
       <use xlink:href="#ArialMT-36" x="111.230469"/>
      </g>
     </g>
    </g>
    <g id="xtick_7">
     <g id="text_7">
      <!-- 62 -->
      <g style="fill: #444444" transform="translate(463.133075 229.840141)scale(0.09 -0.09)">
       <use xlink:href="#ArialMT-36"/>
       <use xlink:href="#ArialMT-32" x="55.615234"/>
      </g>
     </g>
    </g>
    <g id="text_8">
     <!-- Patient -->
     <g style="fill: #444444" transform="translate(259.859048 242.070923)scale(0.09 -0.09)">
      <defs>
       <path id="ArialMT-50" d="M 494 0 
L 494 4581 
L 2222 4581 
Q 2678 4581 2919 4538 
Q 3256 4481 3484 4323 
Q 3713 4166 3852 3881 
Q 3991 3597 3991 3256 
Q 3991 2672 3619 2267 
Q 3247 1863 2275 1863 
L 1100 1863 
L 1100 0 
L 494 0 
z
M 1100 2403 
L 2284 2403 
Q 2872 2403 3119 2622 
Q 3366 2841 3366 3238 
Q 3366 3525 3220 3729 
Q 3075 3934 2838 4000 
Q 2684 4041 2272 4041 
L 1100 4041 
L 1100 2403 
z
" transform="scale(0.015625)"/>
       <path id="ArialMT-61" d="M 2588 409 
Q 2275 144 1986 34 
Q 1697 -75 1366 -75 
Q 819 -75 525 192 
Q 231 459 231 875 
Q 231 1119 342 1320 
Q 453 1522 633 1644 
Q 813 1766 1038 1828 
Q 1203 1872 1538 1913 
Q 2219 1994 2541 2106 
Q 2544 2222 2544 2253 
Q 2544 2597 2384 2738 
Q 2169 2928 1744 2928 
Q 1347 2928 1158 2789 
Q 969 2650 878 2297 
L 328 2372 
Q 403 2725 575 2942 
Q 747 3159 1072 3276 
Q 1397 3394 1825 3394 
Q 2250 3394 2515 3294 
Q 2781 3194 2906 3042 
Q 3031 2891 3081 2659 
Q 3109 2516 3109 2141 
L 3109 1391 
Q 3109 606 3145 398 
Q 3181 191 3288 0 
L 2700 0 
Q 2613 175 2588 409 
z
M 2541 1666 
Q 2234 1541 1622 1453 
Q 1275 1403 1131 1340 
Q 988 1278 909 1158 
Q 831 1038 831 891 
Q 831 666 1001 516 
Q 1172 366 1500 366 
Q 1825 366 2078 508 
Q 2331 650 2450 897 
Q 2541 1088 2541 1459 
L 2541 1666 
z
" transform="scale(0.015625)"/>
       <path id="ArialMT-74" d="M 1650 503 
L 1731 6 
Q 1494 -44 1306 -44 
Q 1000 -44 831 53 
Q 663 150 594 308 
Q 525 466 525 972 
L 525 2881 
L 113 2881 
L 113 3319 
L 525 3319 
L 525 4141 
L 1084 4478 
L 1084 3319 
L 1650 3319 
L 1650 2881 
L 1084 2881 
L 1084 941 
Q 1084 700 1114 631 
Q 1144 563 1211 522 
Q 1278 481 1403 481 
Q 1497 481 1650 503 
z
" transform="scale(0.015625)"/>
       <path id="ArialMT-69" d="M 425 3934 
L 425 4581 
L 988 4581 
L 988 3934 
L 425 3934 
z
M 425 0 
L 425 3319 
L 988 3319 
L 988 0 
L 425 0 
z
" transform="scale(0.015625)"/>
       <path id="ArialMT-65" d="M 2694 1069 
L 3275 997 
Q 3138 488 2766 206 
Q 2394 -75 1816 -75 
Q 1088 -75 661 373 
Q 234 822 234 1631 
Q 234 2469 665 2931 
Q 1097 3394 1784 3394 
Q 2450 3394 2872 2941 
Q 3294 2488 3294 1666 
Q 3294 1616 3291 1516 
L 816 1516 
Q 847 969 1125 678 
Q 1403 388 1819 388 
Q 2128 388 2347 550 
Q 2566 713 2694 1069 
z
M 847 1978 
L 2700 1978 
Q 2663 2397 2488 2606 
Q 2219 2931 1791 2931 
Q 1403 2931 1139 2672 
Q 875 2413 847 1978 
z
" transform="scale(0.015625)"/>
       <path id="ArialMT-6e" d="M 422 0 
L 422 3319 
L 928 3319 
L 928 2847 
Q 1294 3394 1984 3394 
Q 2284 3394 2536 3286 
Q 2788 3178 2913 3003 
Q 3038 2828 3088 2588 
Q 3119 2431 3119 2041 
L 3119 0 
L 2556 0 
L 2556 2019 
Q 2556 2363 2490 2533 
Q 2425 2703 2258 2804 
Q 2091 2906 1866 2906 
Q 1506 2906 1245 2678 
Q 984 2450 984 1813 
L 984 0 
L 422 0 
z
" transform="scale(0.015625)"/>
      </defs>
      <use xlink:href="#ArialMT-50"/>
      <use xlink:href="#ArialMT-61" x="66.699219"/>
      <use xlink:href="#ArialMT-74" x="122.314453"/>
      <use xlink:href="#ArialMT-69" x="150.097656"/>
      <use xlink:href="#ArialMT-65" x="172.314453"/>
      <use xlink:href="#ArialMT-6e" x="227.929688"/>
      <use xlink:href="#ArialMT-74" x="283.544922"/>
     </g>
    </g>
   </g>
   <g id="matplotlib.axis_2">
    <g id="ytick_1">
     <g id="text_9">
      <!-- 100 -->
      <g style="fill: #444444" transform="translate(22.705469 207.064329)scale(0.09 -0.09)">
       <defs>
        <path id="ArialMT-30" d="M 266 2259 
Q 266 3072 433 3567 
Q 600 4063 929 4331 
Q 1259 4600 1759 4600 
Q 2128 4600 2406 4451 
Q 2684 4303 2865 4023 
Q 3047 3744 3150 3342 
Q 3253 2941 3253 2259 
Q 3253 1453 3087 958 
Q 2922 463 2592 192 
Q 2263 -78 1759 -78 
Q 1097 -78 719 397 
Q 266 969 266 2259 
z
M 844 2259 
Q 844 1131 1108 757 
Q 1372 384 1759 384 
Q 2147 384 2411 759 
Q 2675 1134 2675 2259 
Q 2675 3391 2411 3762 
Q 2147 4134 1753 4134 
Q 1366 4134 1134 3806 
Q 844 3388 844 2259 
z
" transform="scale(0.015625)"/>
       </defs>
       <use xlink:href="#ArialMT-31"/>
       <use xlink:href="#ArialMT-30" x="55.615234"/>
       <use xlink:href="#ArialMT-30" x="111.230469"/>
      </g>
     </g>
    </g>
    <g id="ytick_2">
     <g id="text_10">
      <!-- 150 -->
      <g style="fill: #444444" transform="translate(22.705469 170.922481)scale(0.09 -0.09)">
       <use xlink:href="#ArialMT-31"/>
       <use xlink:href="#ArialMT-35" x="55.615234"/>
       <use xlink:href="#ArialMT-30" x="111.230469"/>
      </g>
     </g>
    </g>
    <g id="ytick_3">
     <g id="text_11">
      <!-- 200 -->
      <g style="fill: #444444" transform="translate(22.705469 134.780633)scale(0.09 -0.09)">
       <use xlink:href="#ArialMT-32"/>
       <use xlink:href="#ArialMT-30" x="55.615234"/>
       <use xlink:href="#ArialMT-30" x="111.230469"/>
      </g>
     </g>
    </g>
    <g id="ytick_4">
     <g id="text_12">
      <!-- 250 -->
      <g style="fill: #444444" transform="translate(22.705469 98.638785)scale(0.09 -0.09)">
       <use xlink:href="#ArialMT-32"/>
       <use xlink:href="#ArialMT-35" x="55.615234"/>
       <use xlink:href="#ArialMT-30" x="111.230469"/>
      </g>
     </g>
    </g>
    <g id="ytick_5">
     <g id="text_13">
      <!-- 300 -->
      <g style="fill: #444444" transform="translate(22.705469 62.496937)scale(0.09 -0.09)">
       <defs>
        <path id="ArialMT-33" d="M 269 1209 
L 831 1284 
Q 928 806 1161 595 
Q 1394 384 1728 384 
Q 2125 384 2398 659 
Q 2672 934 2672 1341 
Q 2672 1728 2419 1979 
Q 2166 2231 1775 2231 
Q 1616 2231 1378 2169 
L 1441 2663 
Q 1497 2656 1531 2656 
Q 1891 2656 2178 2843 
Q 2466 3031 2466 3422 
Q 2466 3731 2256 3934 
Q 2047 4138 1716 4138 
Q 1388 4138 1169 3931 
Q 950 3725 888 3313 
L 325 3413 
Q 428 3978 793 4289 
Q 1159 4600 1703 4600 
Q 2078 4600 2393 4439 
Q 2709 4278 2876 4000 
Q 3044 3722 3044 3409 
Q 3044 3113 2884 2869 
Q 2725 2625 2413 2481 
Q 2819 2388 3044 2092 
Q 3269 1797 3269 1353 
Q 3269 753 2831 336 
Q 2394 -81 1725 -81 
Q 1122 -81 723 278 
Q 325 638 269 1209 
z
" transform="scale(0.015625)"/>
       </defs>
       <use xlink:href="#ArialMT-33"/>
       <use xlink:href="#ArialMT-30" x="55.615234"/>
       <use xlink:href="#ArialMT-30" x="111.230469"/>
      </g>
     </g>
    </g>
    <g id="text_14">
     <!-- Trimmed Means of M values (TMM) -->
     <g style="fill: #444444" transform="translate(16.81125 190.194993)rotate(-90)scale(0.09 -0.09)">
      <defs>
       <path id="ArialMT-54" d="M 1659 0 
L 1659 4041 
L 150 4041 
L 150 4581 
L 3781 4581 
L 3781 4041 
L 2266 4041 
L 2266 0 
L 1659 0 
z
" transform="scale(0.015625)"/>
       <path id="ArialMT-72" d="M 416 0 
L 416 3319 
L 922 3319 
L 922 2816 
Q 1116 3169 1280 3281 
Q 1444 3394 1641 3394 
Q 1925 3394 2219 3213 
L 2025 2691 
Q 1819 2813 1613 2813 
Q 1428 2813 1281 2702 
Q 1134 2591 1072 2394 
Q 978 2094 978 1738 
L 978 0 
L 416 0 
z
" transform="scale(0.015625)"/>
       <path id="ArialMT-6d" d="M 422 0 
L 422 3319 
L 925 3319 
L 925 2853 
Q 1081 3097 1340 3245 
Q 1600 3394 1931 3394 
Q 2300 3394 2536 3241 
Q 2772 3088 2869 2813 
Q 3263 3394 3894 3394 
Q 4388 3394 4653 3120 
Q 4919 2847 4919 2278 
L 4919 0 
L 4359 0 
L 4359 2091 
Q 4359 2428 4304 2576 
Q 4250 2725 4106 2815 
Q 3963 2906 3769 2906 
Q 3419 2906 3187 2673 
Q 2956 2441 2956 1928 
L 2956 0 
L 2394 0 
L 2394 2156 
Q 2394 2531 2256 2718 
Q 2119 2906 1806 2906 
Q 1569 2906 1367 2781 
Q 1166 2656 1075 2415 
Q 984 2175 984 1722 
L 984 0 
L 422 0 
z
" transform="scale(0.015625)"/>
       <path id="ArialMT-64" d="M 2575 0 
L 2575 419 
Q 2259 -75 1647 -75 
Q 1250 -75 917 144 
Q 584 363 401 755 
Q 219 1147 219 1656 
Q 219 2153 384 2558 
Q 550 2963 881 3178 
Q 1213 3394 1622 3394 
Q 1922 3394 2156 3267 
Q 2391 3141 2538 2938 
L 2538 4581 
L 3097 4581 
L 3097 0 
L 2575 0 
z
M 797 1656 
Q 797 1019 1065 703 
Q 1334 388 1700 388 
Q 2069 388 2326 689 
Q 2584 991 2584 1609 
Q 2584 2291 2321 2609 
Q 2059 2928 1675 2928 
Q 1300 2928 1048 2622 
Q 797 2316 797 1656 
z
" transform="scale(0.015625)"/>
       <path id="ArialMT-20" transform="scale(0.015625)"/>
       <path id="ArialMT-4d" d="M 475 0 
L 475 4581 
L 1388 4581 
L 2472 1338 
Q 2622 884 2691 659 
Q 2769 909 2934 1394 
L 4031 4581 
L 4847 4581 
L 4847 0 
L 4263 0 
L 4263 3834 
L 2931 0 
L 2384 0 
L 1059 3900 
L 1059 0 
L 475 0 
z
" transform="scale(0.015625)"/>
       <path id="ArialMT-73" d="M 197 991 
L 753 1078 
Q 800 744 1014 566 
Q 1228 388 1613 388 
Q 2000 388 2187 545 
Q 2375 703 2375 916 
Q 2375 1106 2209 1216 
Q 2094 1291 1634 1406 
Q 1016 1563 777 1677 
Q 538 1791 414 1992 
Q 291 2194 291 2438 
Q 291 2659 392 2848 
Q 494 3038 669 3163 
Q 800 3259 1026 3326 
Q 1253 3394 1513 3394 
Q 1903 3394 2198 3281 
Q 2494 3169 2634 2976 
Q 2775 2784 2828 2463 
L 2278 2388 
Q 2241 2644 2061 2787 
Q 1881 2931 1553 2931 
Q 1166 2931 1000 2803 
Q 834 2675 834 2503 
Q 834 2394 903 2306 
Q 972 2216 1119 2156 
Q 1203 2125 1616 2013 
Q 2213 1853 2448 1751 
Q 2684 1650 2818 1456 
Q 2953 1263 2953 975 
Q 2953 694 2789 445 
Q 2625 197 2315 61 
Q 2006 -75 1616 -75 
Q 969 -75 630 194 
Q 291 463 197 991 
z
" transform="scale(0.015625)"/>
       <path id="ArialMT-6f" d="M 213 1659 
Q 213 2581 725 3025 
Q 1153 3394 1769 3394 
Q 2453 3394 2887 2945 
Q 3322 2497 3322 1706 
Q 3322 1066 3130 698 
Q 2938 331 2570 128 
Q 2203 -75 1769 -75 
Q 1072 -75 642 372 
Q 213 819 213 1659 
z
M 791 1659 
Q 791 1022 1069 705 
Q 1347 388 1769 388 
Q 2188 388 2466 706 
Q 2744 1025 2744 1678 
Q 2744 2294 2464 2611 
Q 2184 2928 1769 2928 
Q 1347 2928 1069 2612 
Q 791 2297 791 1659 
z
" transform="scale(0.015625)"/>
       <path id="ArialMT-66" d="M 556 0 
L 556 2881 
L 59 2881 
L 59 3319 
L 556 3319 
L 556 3672 
Q 556 4006 616 4169 
Q 697 4388 901 4523 
Q 1106 4659 1475 4659 
Q 1713 4659 2000 4603 
L 1916 4113 
Q 1741 4144 1584 4144 
Q 1328 4144 1222 4034 
Q 1116 3925 1116 3625 
L 1116 3319 
L 1763 3319 
L 1763 2881 
L 1116 2881 
L 1116 0 
L 556 0 
z
" transform="scale(0.015625)"/>
       <path id="ArialMT-76" d="M 1344 0 
L 81 3319 
L 675 3319 
L 1388 1331 
Q 1503 1009 1600 663 
Q 1675 925 1809 1294 
L 2547 3319 
L 3125 3319 
L 1869 0 
L 1344 0 
z
" transform="scale(0.015625)"/>
       <path id="ArialMT-6c" d="M 409 0 
L 409 4581 
L 972 4581 
L 972 0 
L 409 0 
z
" transform="scale(0.015625)"/>
       <path id="ArialMT-75" d="M 2597 0 
L 2597 488 
Q 2209 -75 1544 -75 
Q 1250 -75 995 37 
Q 741 150 617 320 
Q 494 491 444 738 
Q 409 903 409 1263 
L 409 3319 
L 972 3319 
L 972 1478 
Q 972 1038 1006 884 
Q 1059 663 1231 536 
Q 1403 409 1656 409 
Q 1909 409 2131 539 
Q 2353 669 2445 892 
Q 2538 1116 2538 1541 
L 2538 3319 
L 3100 3319 
L 3100 0 
L 2597 0 
z
" transform="scale(0.015625)"/>
       <path id="ArialMT-28" d="M 1497 -1347 
Q 1031 -759 709 28 
Q 388 816 388 1659 
Q 388 2403 628 3084 
Q 909 3875 1497 4659 
L 1900 4659 
Q 1522 4009 1400 3731 
Q 1209 3300 1100 2831 
Q 966 2247 966 1656 
Q 966 153 1900 -1347 
L 1497 -1347 
z
" transform="scale(0.015625)"/>
       <path id="ArialMT-29" d="M 791 -1347 
L 388 -1347 
Q 1322 153 1322 1656 
Q 1322 2244 1188 2822 
Q 1081 3291 891 3722 
Q 769 4003 388 4659 
L 791 4659 
Q 1378 3875 1659 3084 
Q 1900 2403 1900 1659 
Q 1900 816 1576 28 
Q 1253 -759 791 -1347 
z
" transform="scale(0.015625)"/>
      </defs>
      <use xlink:href="#ArialMT-54"/>
      <use xlink:href="#ArialMT-72" x="57.333984"/>
      <use xlink:href="#ArialMT-69" x="90.634766"/>
      <use xlink:href="#ArialMT-6d" x="112.851562"/>
      <use xlink:href="#ArialMT-6d" x="196.152344"/>
      <use xlink:href="#ArialMT-65" x="279.453125"/>
      <use xlink:href="#ArialMT-64" x="335.068359"/>
      <use xlink:href="#ArialMT-20" x="390.683594"/>
      <use xlink:href="#ArialMT-4d" x="418.466797"/>
      <use xlink:href="#ArialMT-65" x="501.767578"/>
      <use xlink:href="#ArialMT-61" x="557.382812"/>
      <use xlink:href="#ArialMT-6e" x="612.998047"/>
      <use xlink:href="#ArialMT-73" x="668.613281"/>
      <use xlink:href="#ArialMT-20" x="718.613281"/>
      <use xlink:href="#ArialMT-6f" x="746.396484"/>
      <use xlink:href="#ArialMT-66" x="802.011719"/>
      <use xlink:href="#ArialMT-20" x="829.794922"/>
      <use xlink:href="#ArialMT-4d" x="857.578125"/>
      <use xlink:href="#ArialMT-20" x="940.878906"/>
      <use xlink:href="#ArialMT-76" x="968.662109"/>
      <use xlink:href="#ArialMT-61" x="1018.662109"/>
      <use xlink:href="#ArialMT-6c" x="1074.277344"/>
      <use xlink:href="#ArialMT-75" x="1096.494141"/>
      <use xlink:href="#ArialMT-65" x="1152.109375"/>
      <use xlink:href="#ArialMT-73" x="1207.724609"/>
      <use xlink:href="#ArialMT-20" x="1257.724609"/>
      <use xlink:href="#ArialMT-28" x="1285.507812"/>
      <use xlink:href="#ArialMT-54" x="1318.808594"/>
      <use xlink:href="#ArialMT-4d" x="1379.892578"/>
      <use xlink:href="#ArialMT-4d" x="1463.193359"/>
      <use xlink:href="#ArialMT-29" x="1546.494141"/>
     </g>
    </g>
   </g>
   <g id="PolyCollection_1">
    <defs>
     <path id="m2f8970a21e" d="M 82.567953 -85.66628 
L 76.62865 -85.66628 
L 76.565696 -86.168944 
L 76.504273 -86.671608 
L 76.44441 -87.174272 
L 76.386123 -87.676935 
L 76.329413 -88.179599 
L 76.274266 -88.682263 
L 76.220656 -89.184927 
L 76.168543 -89.687591 
L 76.117874 -90.190255 
L 76.068584 -90.692919 
L 76.020598 -91.195582 
L 75.973828 -91.698246 
L 75.928178 -92.20091 
L 75.883546 -92.703574 
L 75.839819 -93.206238 
L 75.796883 -93.708902 
L 75.754615 -94.211565 
L 75.712893 -94.714229 
L 75.671591 -95.216893 
L 75.630584 -95.719557 
L 75.589749 -96.222221 
L 75.548963 -96.724885 
L 75.508109 -97.227549 
L 75.467076 -97.730212 
L 75.425756 -98.232876 
L 75.384051 -98.73554 
L 75.341872 -99.238204 
L 75.299135 -99.740868 
L 75.255772 -100.243532 
L 75.211719 -100.746195 
L 75.166929 -101.248859 
L 75.121362 -101.751523 
L 75.074993 -102.254187 
L 75.027807 -102.756851 
L 74.979801 -103.259515 
L 74.930985 -103.762179 
L 74.881379 -104.264842 
L 74.831016 -104.767506 
L 74.77994 -105.27017 
L 74.728203 -105.772834 
L 74.67587 -106.275498 
L 74.623015 -106.778162 
L 74.56972 -107.280826 
L 74.516076 -107.783489 
L 74.462182 -108.286153 
L 74.408143 -108.788817 
L 74.354072 -109.291481 
L 74.300085 -109.794145 
L 74.246307 -110.296809 
L 74.192865 -110.799472 
L 74.139891 -111.302136 
L 74.08752 -111.8048 
L 74.03589 -112.307464 
L 73.985142 -112.810128 
L 73.93542 -113.312792 
L 73.886869 -113.815456 
L 73.839634 -114.318119 
L 73.793864 -114.820783 
L 73.749708 -115.323447 
L 73.707315 -115.826111 
L 73.666835 -116.328775 
L 73.628417 -116.831439 
L 73.592213 -117.334103 
L 73.558371 -117.836766 
L 73.527041 -118.33943 
L 73.498371 -118.842094 
L 73.472509 -119.344758 
L 73.4496 -119.847422 
L 73.429788 -120.350086 
L 73.413214 -120.852749 
L 73.400018 -121.355413 
L 73.390334 -121.858077 
L 73.384294 -122.360741 
L 73.382024 -122.863405 
L 73.383646 -123.366069 
L 73.389276 -123.868733 
L 73.399023 -124.371396 
L 73.412987 -124.87406 
L 73.431261 -125.376724 
L 73.45393 -125.879388 
L 73.481065 -126.382052 
L 73.512731 -126.884716 
L 73.548978 -127.38738 
L 73.589844 -127.890043 
L 73.635355 -128.392707 
L 73.68552 -128.895371 
L 73.740337 -129.398035 
L 73.799786 -129.900699 
L 73.863832 -130.403363 
L 73.932423 -130.906026 
L 74.005493 -131.40869 
L 74.082956 -131.911354 
L 74.164711 -132.414018 
L 74.25064 -132.916682 
L 74.340607 -133.419346 
L 74.434462 -133.92201 
L 74.532036 -134.424673 
L 74.633148 -134.927337 
L 74.737599 -135.430001 
L 84.459004 -135.430001 
L 84.459004 -135.430001 
L 84.563455 -134.927337 
L 84.664567 -134.424673 
L 84.762141 -133.92201 
L 84.855996 -133.419346 
L 84.945963 -132.916682 
L 85.031892 -132.414018 
L 85.113647 -131.911354 
L 85.19111 -131.40869 
L 85.26418 -130.906026 
L 85.332771 -130.403363 
L 85.396817 -129.900699 
L 85.456266 -129.398035 
L 85.511083 -128.895371 
L 85.561248 -128.392707 
L 85.606759 -127.890043 
L 85.647625 -127.38738 
L 85.683872 -126.884716 
L 85.715538 -126.382052 
L 85.742673 -125.879388 
L 85.765342 -125.376724 
L 85.783616 -124.87406 
L 85.79758 -124.371396 
L 85.807326 -123.868733 
L 85.812956 -123.366069 
L 85.814579 -122.863405 
L 85.812309 -122.360741 
L 85.806269 -121.858077 
L 85.796585 -121.355413 
L 85.783389 -120.852749 
L 85.766815 -120.350086 
L 85.747003 -119.847422 
L 85.724094 -119.344758 
L 85.698232 -118.842094 
L 85.669562 -118.33943 
L 85.638232 -117.836766 
L 85.60439 -117.334103 
L 85.568186 -116.831439 
L 85.529768 -116.328775 
L 85.489288 -115.826111 
L 85.446895 -115.323447 
L 85.402739 -114.820783 
L 85.356969 -114.318119 
L 85.309734 -113.815456 
L 85.261183 -113.312792 
L 85.211461 -112.810128 
L 85.160713 -112.307464 
L 85.109083 -111.8048 
L 85.056712 -111.302136 
L 85.003738 -110.799472 
L 84.950295 -110.296809 
L 84.896517 -109.794145 
L 84.842531 -109.291481 
L 84.78846 -108.788817 
L 84.734421 -108.286153 
L 84.680526 -107.783489 
L 84.626883 -107.280826 
L 84.573588 -106.778162 
L 84.520733 -106.275498 
L 84.4684 -105.772834 
L 84.416663 -105.27017 
L 84.365587 -104.767506 
L 84.315224 -104.264842 
L 84.265618 -103.762179 
L 84.216802 -103.259515 
L 84.168796 -102.756851 
L 84.12161 -102.254187 
L 84.075241 -101.751523 
L 84.029674 -101.248859 
L 83.984884 -100.746195 
L 83.940831 -100.243532 
L 83.897467 -99.740868 
L 83.854731 -99.238204 
L 83.812551 -98.73554 
L 83.770847 -98.232876 
L 83.729527 -97.730212 
L 83.688494 -97.227549 
L 83.64764 -96.724885 
L 83.606854 -96.222221 
L 83.566019 -95.719557 
L 83.525012 -95.216893 
L 83.48371 -94.714229 
L 83.441988 -94.211565 
L 83.39972 -93.708902 
L 83.356784 -93.206238 
L 83.313057 -92.703574 
L 83.268425 -92.20091 
L 83.222775 -91.698246 
L 83.176005 -91.195582 
L 83.128018 -90.692919 
L 83.078729 -90.190255 
L 83.02806 -89.687591 
L 82.975947 -89.184927 
L 82.922337 -88.682263 
L 82.86719 -88.179599 
L 82.81048 -87.676935 
L 82.752193 -87.174272 
L 82.69233 -86.671608 
L 82.630907 -86.168944 
L 82.567953 -85.66628 
z
" style="stroke: #999999; stroke-width: 2"/>
    </defs>
    <g clip-path="url(#p62183e1fe1)">
     <use xlink:href="#m2f8970a21e" x="0" y="255.11811" style="fill: #ffffff; stroke: #999999; stroke-width: 2"/>
    </g>
   </g>
   <g id="PolyCollection_2">
    <defs>
     <path id="m34e8dd7832" d="M 158.718604 -104.862493 
L 129.991205 -104.862493 
L 129.562529 -104.99718 
L 129.137184 -105.131868 
L 128.715632 -105.266555 
L 128.298293 -105.401243 
L 127.885552 -105.53593 
L 127.477759 -105.670618 
L 127.075231 -105.805306 
L 126.678255 -105.939993 
L 126.287092 -106.074681 
L 125.901983 -106.209368 
L 125.52315 -106.344056 
L 125.150806 -106.478743 
L 124.785152 -106.613431 
L 124.426391 -106.748118 
L 124.074726 -106.882806 
L 123.730367 -107.017494 
L 123.393537 -107.152181 
L 123.064473 -107.286869 
L 122.74343 -107.421556 
L 122.430686 -107.556244 
L 122.126541 -107.690931 
L 121.831322 -107.825619 
L 121.54538 -107.960307 
L 121.269093 -108.094994 
L 121.002861 -108.229682 
L 120.747111 -108.364369 
L 120.502288 -108.499057 
L 120.268856 -108.633744 
L 120.047295 -108.768432 
L 119.838093 -108.903119 
L 119.641743 -109.037807 
L 119.45874 -109.172495 
L 119.289575 -109.307182 
L 119.134726 -109.44187 
L 118.994657 -109.576557 
L 118.869811 -109.711245 
L 118.760601 -109.845932 
L 118.66741 -109.98062 
L 118.590583 -110.115307 
L 118.530424 -110.249995 
L 118.487188 -110.384683 
L 118.461083 -110.51937 
L 118.452263 -110.654058 
L 118.460825 -110.788745 
L 118.48681 -110.923433 
L 118.530199 -111.05812 
L 118.590913 -111.192808 
L 118.668815 -111.327496 
L 118.763706 -111.462183 
L 118.875332 -111.596871 
L 119.00338 -111.731558 
L 119.147485 -111.866246 
L 119.307228 -112.000933 
L 119.482145 -112.135621 
L 119.671723 -112.270308 
L 119.875412 -112.404996 
L 120.092622 -112.539684 
L 120.322733 -112.674371 
L 120.565096 -112.809059 
L 120.819038 -112.943746 
L 121.083868 -113.078434 
L 121.358883 -113.213121 
L 121.643369 -113.347809 
L 121.936608 -113.482497 
L 122.237884 -113.617184 
L 122.546485 -113.751872 
L 122.861709 -113.886559 
L 123.182868 -114.021247 
L 123.509291 -114.155934 
L 123.84033 -114.290622 
L 124.175361 -114.425309 
L 124.513787 -114.559997 
L 124.855045 -114.694685 
L 125.198604 -114.829372 
L 125.543967 -114.96406 
L 125.890678 -115.098747 
L 126.238316 -115.233435 
L 126.586501 -115.368122 
L 126.934894 -115.50281 
L 127.283193 -115.637498 
L 127.631138 -115.772185 
L 127.978504 -115.906873 
L 128.325105 -116.04156 
L 128.67079 -116.176248 
L 129.015439 -116.310935 
L 129.358962 -116.445623 
L 129.701295 -116.58031 
L 130.0424 -116.714998 
L 130.382255 -116.849686 
L 130.720856 -116.984373 
L 131.058209 -117.119061 
L 131.39433 -117.253748 
L 131.729235 -117.388436 
L 132.062942 -117.523123 
L 132.395463 -117.657811 
L 132.7268 -117.792499 
L 133.056946 -117.927186 
L 133.385875 -118.061874 
L 133.713545 -118.196561 
L 154.996264 -118.196561 
L 154.996264 -118.196561 
L 155.323934 -118.061874 
L 155.652863 -117.927186 
L 155.983008 -117.792499 
L 156.314346 -117.657811 
L 156.646867 -117.523123 
L 156.980574 -117.388436 
L 157.315479 -117.253748 
L 157.651599 -117.119061 
L 157.988953 -116.984373 
L 158.327554 -116.849686 
L 158.667409 -116.714998 
L 159.008514 -116.58031 
L 159.350847 -116.445623 
L 159.69437 -116.310935 
L 160.039019 -116.176248 
L 160.384703 -116.04156 
L 160.731305 -115.906873 
L 161.078671 -115.772185 
L 161.426616 -115.637498 
L 161.774915 -115.50281 
L 162.123307 -115.368122 
L 162.471493 -115.233435 
L 162.819131 -115.098747 
L 163.165841 -114.96406 
L 163.511205 -114.829372 
L 163.854763 -114.694685 
L 164.196021 -114.559997 
L 164.534448 -114.425309 
L 164.869479 -114.290622 
L 165.200517 -114.155934 
L 165.526941 -114.021247 
L 165.8481 -113.886559 
L 166.163324 -113.751872 
L 166.471925 -113.617184 
L 166.773201 -113.482497 
L 167.06644 -113.347809 
L 167.350926 -113.213121 
L 167.62594 -113.078434 
L 167.890771 -112.943746 
L 168.144713 -112.809059 
L 168.387076 -112.674371 
L 168.617187 -112.539684 
L 168.834397 -112.404996 
L 169.038086 -112.270308 
L 169.227664 -112.135621 
L 169.40258 -112.000933 
L 169.562324 -111.866246 
L 169.706429 -111.731558 
L 169.834477 -111.596871 
L 169.946103 -111.462183 
L 170.040994 -111.327496 
L 170.118896 -111.192808 
L 170.17961 -111.05812 
L 170.222999 -110.923433 
L 170.248983 -110.788745 
L 170.257546 -110.654058 
L 170.248725 -110.51937 
L 170.222621 -110.384683 
L 170.179385 -110.249995 
L 170.119226 -110.115307 
L 170.042399 -109.98062 
L 169.949208 -109.845932 
L 169.839998 -109.711245 
L 169.715151 -109.576557 
L 169.575083 -109.44187 
L 169.420234 -109.307182 
L 169.251068 -109.172495 
L 169.068066 -109.037807 
L 168.871716 -108.903119 
L 168.662514 -108.768432 
L 168.440952 -108.633744 
L 168.207521 -108.499057 
L 167.962698 -108.364369 
L 167.706948 -108.229682 
L 167.440716 -108.094994 
L 167.164428 -107.960307 
L 166.878486 -107.825619 
L 166.583267 -107.690931 
L 166.279123 -107.556244 
L 165.966379 -107.421556 
L 165.645336 -107.286869 
L 165.316272 -107.152181 
L 164.979442 -107.017494 
L 164.635083 -106.882806 
L 164.283418 -106.748118 
L 163.924657 -106.613431 
L 163.559003 -106.478743 
L 163.186658 -106.344056 
L 162.807826 -106.209368 
L 162.422717 -106.074681 
L 162.031554 -105.939993 
L 161.634578 -105.805306 
L 161.23205 -105.670618 
L 160.824257 -105.53593 
L 160.411516 -105.401243 
L 159.994177 -105.266555 
L 159.572625 -105.131868 
L 159.14728 -104.99718 
L 158.718604 -104.862493 
z
" style="stroke: #999999; stroke-width: 2"/>
    </defs>
    <g clip-path="url(#p62183e1fe1)">
     <use xlink:href="#m34e8dd7832" x="0" y="255.11811" style="fill: #ffffff; stroke: #999999; stroke-width: 2"/>
    </g>
   </g>
   <g id="PolyCollection_3">
    <defs>
     <path id="mee1990fa6d" d="M 211.561914 -97.622333 
L 206.661101 -97.622333 
L 206.603668 -98.07614 
L 206.546526 -98.529948 
L 206.489599 -98.983755 
L 206.432797 -99.437563 
L 206.376019 -99.89137 
L 206.319155 -100.345177 
L 206.262087 -100.798985 
L 206.204689 -101.252792 
L 206.146832 -101.706599 
L 206.08838 -102.160407 
L 206.029197 -102.614214 
L 205.969145 -103.068022 
L 205.908089 -103.521829 
L 205.845896 -103.975636 
L 205.782436 -104.429444 
L 205.717588 -104.883251 
L 205.651235 -105.337058 
L 205.583273 -105.790866 
L 205.513604 -106.244673 
L 205.442145 -106.698481 
L 205.368824 -107.152288 
L 205.293582 -107.606095 
L 205.216376 -108.059903 
L 205.137175 -108.51371 
L 205.055967 -108.967518 
L 204.972753 -109.421325 
L 204.88755 -109.875132 
L 204.800393 -110.32894 
L 204.71133 -110.782747 
L 204.620428 -111.236554 
L 204.527765 -111.690362 
L 204.433436 -112.144169 
L 204.337551 -112.597977 
L 204.240231 -113.051784 
L 204.141611 -113.505591 
L 204.041837 -113.959399 
L 203.941066 -114.413206 
L 203.839463 -114.867013 
L 203.737205 -115.320821 
L 203.634473 -115.774628 
L 203.531455 -116.228436 
L 203.428348 -116.682243 
L 203.325347 -117.13605 
L 203.222656 -117.589858 
L 203.120478 -118.043665 
L 203.019018 -118.497472 
L 202.918481 -118.95128 
L 202.819072 -119.405087 
L 202.720995 -119.858895 
L 202.62445 -120.312702 
L 202.529638 -120.766509 
L 202.436755 -121.220317 
L 202.345992 -121.674124 
L 202.25754 -122.127931 
L 202.171582 -122.581739 
L 202.088302 -123.035546 
L 202.007876 -123.489354 
L 201.930478 -123.943161 
L 201.856278 -124.396968 
L 201.785444 -124.850776 
L 201.718138 -125.304583 
L 201.654524 -125.75839 
L 201.594758 -126.212198 
L 201.539 -126.666005 
L 201.487403 -127.119813 
L 201.440124 -127.57362 
L 201.397315 -128.027427 
L 201.359129 -128.481235 
L 201.325719 -128.935042 
L 201.297237 -129.38885 
L 201.273834 -129.842657 
L 201.25566 -130.296464 
L 201.242863 -130.750272 
L 201.235592 -131.204079 
L 201.233991 -131.657886 
L 201.238201 -132.111694 
L 201.248357 -132.565501 
L 201.264591 -133.019309 
L 201.287027 -133.473116 
L 201.315778 -133.926923 
L 201.350949 -134.380731 
L 201.392634 -134.834538 
L 201.440909 -135.288345 
L 201.495839 -135.742153 
L 201.557468 -136.19596 
L 201.625823 -136.649768 
L 201.70091 -137.103575 
L 201.782709 -137.557382 
L 201.87118 -138.01119 
L 201.966255 -138.464997 
L 202.06784 -138.918804 
L 202.175813 -139.372612 
L 202.290023 -139.826419 
L 202.410292 -140.280227 
L 202.536409 -140.734034 
L 202.66814 -141.187841 
L 202.805217 -141.641649 
L 202.947347 -142.095456 
L 203.094212 -142.549263 
L 215.128803 -142.549263 
L 215.128803 -142.549263 
L 215.275668 -142.095456 
L 215.417798 -141.641649 
L 215.554875 -141.187841 
L 215.686605 -140.734034 
L 215.812723 -140.280227 
L 215.932991 -139.826419 
L 216.047201 -139.372612 
L 216.155174 -138.918804 
L 216.256759 -138.464997 
L 216.351834 -138.01119 
L 216.440305 -137.557382 
L 216.522105 -137.103575 
L 216.597191 -136.649768 
L 216.665546 -136.19596 
L 216.727176 -135.742153 
L 216.782106 -135.288345 
L 216.830381 -134.834538 
L 216.872065 -134.380731 
L 216.907237 -133.926923 
L 216.935988 -133.473116 
L 216.958423 -133.019309 
L 216.974658 -132.565501 
L 216.984814 -132.111694 
L 216.989023 -131.657886 
L 216.987422 -131.204079 
L 216.980151 -130.750272 
L 216.967355 -130.296464 
L 216.949181 -129.842657 
L 216.925777 -129.38885 
L 216.897295 -128.935042 
L 216.863885 -128.481235 
L 216.8257 -128.027427 
L 216.782891 -127.57362 
L 216.735611 -127.119813 
L 216.684015 -126.666005 
L 216.628256 -126.212198 
L 216.568491 -125.75839 
L 216.504876 -125.304583 
L 216.437571 -124.850776 
L 216.366737 -124.396968 
L 216.292537 -123.943161 
L 216.215139 -123.489354 
L 216.134713 -123.035546 
L 216.051432 -122.581739 
L 215.965475 -122.127931 
L 215.877023 -121.674124 
L 215.78626 -121.220317 
L 215.693376 -120.766509 
L 215.598564 -120.312702 
L 215.50202 -119.858895 
L 215.403943 -119.405087 
L 215.304534 -118.95128 
L 215.203997 -118.497472 
L 215.102537 -118.043665 
L 215.000358 -117.589858 
L 214.897667 -117.13605 
L 214.794667 -116.682243 
L 214.691559 -116.228436 
L 214.588542 -115.774628 
L 214.48581 -115.320821 
L 214.383551 -114.867013 
L 214.281949 -114.413206 
L 214.181177 -113.959399 
L 214.081403 -113.505591 
L 213.982783 -113.051784 
L 213.885463 -112.597977 
L 213.789578 -112.144169 
L 213.69525 -111.690362 
L 213.602587 -111.236554 
L 213.511684 -110.782747 
L 213.422622 -110.32894 
L 213.335464 -109.875132 
L 213.250262 -109.421325 
L 213.167048 -108.967518 
L 213.085839 -108.51371 
L 213.006639 -108.059903 
L 212.929432 -107.606095 
L 212.854191 -107.152288 
L 212.780869 -106.698481 
L 212.70941 -106.244673 
L 212.639742 -105.790866 
L 212.571779 -105.337058 
L 212.505427 -104.883251 
L 212.440579 -104.429444 
L 212.377119 -103.975636 
L 212.314926 -103.521829 
L 212.25387 -103.068022 
L 212.193818 -102.614214 
L 212.134635 -102.160407 
L 212.076183 -101.706599 
L 212.018325 -101.252792 
L 211.960928 -100.798985 
L 211.90386 -100.345177 
L 211.846996 -99.89137 
L 211.790218 -99.437563 
L 211.733415 -98.983755 
L 211.676488 -98.529948 
L 211.619347 -98.07614 
L 211.561914 -97.622333 
z
" style="stroke: #999999; stroke-width: 2"/>
    </defs>
    <g clip-path="url(#p62183e1fe1)">
     <use xlink:href="#mee1990fa6d" x="0" y="255.11811" style="fill: #ffffff; stroke: #999999; stroke-width: 2"/>
    </g>
   </g>
   <g id="PolyCollection_4">
    <defs>
     <path id="ma2bb469c30" d="M 276.862705 -106.773347 
L 270.873516 -106.773347 
L 270.764433 -107.476044 
L 270.656463 -108.178742 
L 270.549858 -108.881439 
L 270.444859 -109.584136 
L 270.341692 -110.286834 
L 270.240562 -110.989531 
L 270.14166 -111.692229 
L 270.045154 -112.394926 
L 269.951192 -113.097624 
L 269.859901 -113.800321 
L 269.771385 -114.503019 
L 269.685727 -115.205716 
L 269.602989 -115.908413 
L 269.523211 -116.611111 
L 269.446414 -117.313808 
L 269.372598 -118.016506 
L 269.301749 -118.719203 
L 269.233836 -119.421901 
L 269.168812 -120.124598 
L 269.106623 -120.827295 
L 269.047204 -121.529993 
L 268.990484 -122.23269 
L 268.936388 -122.935388 
L 268.884842 -123.638085 
L 268.835772 -124.340783 
L 268.789111 -125.04348 
L 268.744798 -125.746178 
L 268.702782 -126.448875 
L 268.663028 -127.151572 
L 268.625511 -127.85427 
L 268.590225 -128.556967 
L 268.557184 -129.259665 
L 268.526419 -129.962362 
L 268.497982 -130.66506 
L 268.471947 -131.367757 
L 268.448406 -132.070454 
L 268.427473 -132.773152 
L 268.409282 -133.475849 
L 268.393984 -134.178547 
L 268.381744 -134.881244 
L 268.372743 -135.583942 
L 268.367172 -136.286639 
L 268.365229 -136.989336 
L 268.367116 -137.692034 
L 268.373036 -138.394731 
L 268.383189 -139.097429 
L 268.397766 -139.800126 
L 268.416949 -140.502824 
L 268.440901 -141.205521 
L 268.469769 -141.908219 
L 268.503673 -142.610916 
L 268.542709 -143.313613 
L 268.586942 -144.016311 
L 268.636402 -144.719008 
L 268.691086 -145.421706 
L 268.750952 -146.124403 
L 268.81592 -146.827101 
L 268.88587 -147.529798 
L 268.960642 -148.232495 
L 269.040038 -148.935193 
L 269.12382 -149.63789 
L 269.211716 -150.340588 
L 269.303418 -151.043285 
L 269.398587 -151.745983 
L 269.496857 -152.44868 
L 269.597838 -153.151377 
L 269.70112 -153.854075 
L 269.806278 -154.556772 
L 269.912879 -155.25947 
L 270.020483 -155.962167 
L 270.128652 -156.664865 
L 270.236953 -157.367562 
L 270.344964 -158.07026 
L 270.452279 -158.772957 
L 270.558511 -159.475654 
L 270.663299 -160.178352 
L 270.766312 -160.881049 
L 270.867249 -161.583747 
L 270.965844 -162.286444 
L 271.06187 -162.989142 
L 271.155136 -163.691839 
L 271.245494 -164.394536 
L 271.332835 -165.097234 
L 271.417088 -165.799931 
L 271.498223 -166.502629 
L 271.576247 -167.205326 
L 271.651202 -167.908024 
L 271.723162 -168.610721 
L 271.792231 -169.313418 
L 271.858539 -170.016116 
L 271.922237 -170.718813 
L 271.983496 -171.421511 
L 272.042498 -172.124208 
L 272.099438 -172.826906 
L 272.154514 -173.529603 
L 272.207926 -174.232301 
L 272.259872 -174.934998 
L 272.310544 -175.637695 
L 272.360123 -176.340393 
L 275.376098 -176.340393 
L 275.376098 -176.340393 
L 275.425677 -175.637695 
L 275.476348 -174.934998 
L 275.528295 -174.232301 
L 275.581707 -173.529603 
L 275.636782 -172.826906 
L 275.693722 -172.124208 
L 275.752725 -171.421511 
L 275.813983 -170.718813 
L 275.877681 -170.016116 
L 275.943989 -169.313418 
L 276.013058 -168.610721 
L 276.085018 -167.908024 
L 276.159973 -167.205326 
L 276.237998 -166.502629 
L 276.319133 -165.799931 
L 276.403386 -165.097234 
L 276.490726 -164.394536 
L 276.581084 -163.691839 
L 276.674351 -162.989142 
L 276.770376 -162.286444 
L 276.868971 -161.583747 
L 276.969908 -160.881049 
L 277.072921 -160.178352 
L 277.17771 -159.475654 
L 277.283942 -158.772957 
L 277.391256 -158.07026 
L 277.499267 -157.367562 
L 277.607568 -156.664865 
L 277.715737 -155.962167 
L 277.823341 -155.25947 
L 277.929942 -154.556772 
L 278.035101 -153.854075 
L 278.138383 -153.151377 
L 278.239363 -152.44868 
L 278.337633 -151.745983 
L 278.432802 -151.043285 
L 278.524504 -150.340588 
L 278.6124 -149.63789 
L 278.696183 -148.935193 
L 278.775579 -148.232495 
L 278.850351 -147.529798 
L 278.920301 -146.827101 
L 278.985269 -146.124403 
L 279.045135 -145.421706 
L 279.099818 -144.719008 
L 279.149279 -144.016311 
L 279.193511 -143.313613 
L 279.232547 -142.610916 
L 279.266452 -141.908219 
L 279.295319 -141.205521 
L 279.319272 -140.502824 
L 279.338454 -139.800126 
L 279.353032 -139.097429 
L 279.363185 -138.394731 
L 279.369105 -137.692034 
L 279.370992 -136.989336 
L 279.369048 -136.286639 
L 279.363477 -135.583942 
L 279.354476 -134.881244 
L 279.342237 -134.178547 
L 279.326938 -133.475849 
L 279.308747 -132.773152 
L 279.287815 -132.070454 
L 279.264274 -131.367757 
L 279.238238 -130.66506 
L 279.209801 -129.962362 
L 279.179036 -129.259665 
L 279.145995 -128.556967 
L 279.11071 -127.85427 
L 279.073193 -127.151572 
L 279.033438 -126.448875 
L 278.991423 -125.746178 
L 278.94711 -125.04348 
L 278.900448 -124.340783 
L 278.851378 -123.638085 
L 278.799832 -122.935388 
L 278.745736 -122.23269 
L 278.689016 -121.529993 
L 278.629597 -120.827295 
L 278.567408 -120.124598 
L 278.502385 -119.421901 
L 278.434471 -118.719203 
L 278.363622 -118.016506 
L 278.289807 -117.313808 
L 278.213009 -116.611111 
L 278.133231 -115.908413 
L 278.050493 -115.205716 
L 277.964836 -114.503019 
L 277.87632 -113.800321 
L 277.785028 -113.097624 
L 277.691066 -112.394926 
L 277.59456 -111.692229 
L 277.495658 -110.989531 
L 277.394529 -110.286834 
L 277.291361 -109.584136 
L 277.186363 -108.881439 
L 277.079758 -108.178742 
L 276.971787 -107.476044 
L 276.862705 -106.773347 
z
" style="stroke: #999999; stroke-width: 2"/>
    </defs>
    <g clip-path="url(#p62183e1fe1)">
     <use xlink:href="#ma2bb469c30" x="0" y="255.11811" style="fill: #ffffff; stroke: #999999; stroke-width: 2"/>
    </g>
   </g>
   <g id="PolyCollection_5">
    <defs>
     <path id="m33f8ec644a" d="M 343.808284 -49.837187 
L 333.441143 -49.837187 
L 333.345718 -50.065595 
L 333.250304 -50.294004 
L 333.154557 -50.522413 
L 333.058106 -50.750821 
L 332.960557 -50.97923 
L 332.861499 -51.207638 
L 332.760501 -51.436047 
L 332.657127 -51.664455 
L 332.550929 -51.892864 
L 332.441461 -52.121272 
L 332.32828 -52.349681 
L 332.210953 -52.57809 
L 332.089059 -52.806498 
L 331.962201 -53.034907 
L 331.830003 -53.263315 
L 331.692122 -53.491724 
L 331.548249 -53.720132 
L 331.398116 -53.948541 
L 331.241499 -54.17695 
L 331.078224 -54.405358 
L 330.908169 -54.633767 
L 330.731267 -54.862175 
L 330.547512 -55.090584 
L 330.356955 -55.318992 
L 330.159712 -55.547401 
L 329.955962 -55.775809 
L 329.745947 -56.004218 
L 329.529973 -56.232627 
L 329.308408 -56.461035 
L 329.081681 -56.689444 
L 328.850278 -56.917852 
L 328.614742 -57.146261 
L 328.375669 -57.374669 
L 328.133702 -57.603078 
L 327.889526 -57.831487 
L 327.643867 -58.059895 
L 327.397483 -58.288304 
L 327.151161 -58.516712 
L 326.905706 -58.745121 
L 326.661942 -58.973529 
L 326.4207 -59.201938 
L 326.182813 -59.430346 
L 325.949112 -59.658755 
L 325.720415 -59.887164 
L 325.497526 -60.115572 
L 325.281226 -60.343981 
L 325.072267 -60.572389 
L 324.871369 -60.800798 
L 324.679215 -61.029206 
L 324.496444 -61.257615 
L 324.323648 -61.486024 
L 324.161373 -61.714432 
L 324.01011 -61.942841 
L 323.870295 -62.171249 
L 323.742312 -62.399658 
L 323.626485 -62.628066 
L 323.523082 -62.856475 
L 323.432314 -63.084883 
L 323.354336 -63.313292 
L 323.289249 -63.541701 
L 323.237103 -63.770109 
L 323.197893 -63.998518 
L 323.171572 -64.226926 
L 323.158045 -64.455335 
L 323.157176 -64.683743 
L 323.168794 -64.912152 
L 323.192692 -65.140561 
L 323.228633 -65.368969 
L 323.276357 -65.597378 
L 323.33558 -65.825786 
L 323.405999 -66.054195 
L 323.487298 -66.282603 
L 323.579151 -66.511012 
L 323.681222 -66.73942 
L 323.793173 -66.967829 
L 323.914662 -67.196238 
L 324.04535 -67.424646 
L 324.184899 -67.653055 
L 324.332976 -67.881463 
L 324.489254 -68.109872 
L 324.653413 -68.33828 
L 324.825139 -68.566689 
L 325.004127 -68.795098 
L 325.190079 -69.023506 
L 325.382704 -69.251915 
L 325.581718 -69.480323 
L 325.786842 -69.708732 
L 325.997803 -69.93714 
L 326.214329 -70.165549 
L 326.436152 -70.393957 
L 326.663002 -70.622366 
L 326.894611 -70.850775 
L 327.130707 -71.079183 
L 327.371014 -71.307592 
L 327.61525 -71.536 
L 327.863127 -71.764409 
L 328.114351 -71.992817 
L 328.368616 -72.221226 
L 328.625611 -72.449635 
L 348.623815 -72.449635 
L 348.623815 -72.449635 
L 348.88081 -72.221226 
L 349.135076 -71.992817 
L 349.386299 -71.764409 
L 349.634177 -71.536 
L 349.878413 -71.307592 
L 350.118719 -71.079183 
L 350.354815 -70.850775 
L 350.586424 -70.622366 
L 350.813275 -70.393957 
L 351.035097 -70.165549 
L 351.251623 -69.93714 
L 351.462584 -69.708732 
L 351.667708 -69.480323 
L 351.866723 -69.251915 
L 352.059348 -69.023506 
L 352.2453 -68.795098 
L 352.424288 -68.566689 
L 352.596014 -68.33828 
L 352.760172 -68.109872 
L 352.91645 -67.881463 
L 353.064528 -67.653055 
L 353.204077 -67.424646 
L 353.334764 -67.196238 
L 353.456254 -66.967829 
L 353.568204 -66.73942 
L 353.670276 -66.511012 
L 353.762128 -66.282603 
L 353.843427 -66.054195 
L 353.913846 -65.825786 
L 353.973069 -65.597378 
L 354.020793 -65.368969 
L 354.056735 -65.140561 
L 354.080633 -64.912152 
L 354.09225 -64.683743 
L 354.091382 -64.455335 
L 354.077854 -64.226926 
L 354.051533 -63.998518 
L 354.012324 -63.770109 
L 353.960177 -63.541701 
L 353.89509 -63.313292 
L 353.817113 -63.084883 
L 353.726345 -62.856475 
L 353.622941 -62.628066 
L 353.507114 -62.399658 
L 353.379131 -62.171249 
L 353.239317 -61.942841 
L 353.088053 -61.714432 
L 352.925778 -61.486024 
L 352.752983 -61.257615 
L 352.570211 -61.029206 
L 352.378057 -60.800798 
L 352.177159 -60.572389 
L 351.968201 -60.343981 
L 351.7519 -60.115572 
L 351.529011 -59.887164 
L 351.300314 -59.658755 
L 351.066613 -59.430346 
L 350.828726 -59.201938 
L 350.587484 -58.973529 
L 350.34372 -58.745121 
L 350.098266 -58.516712 
L 349.851943 -58.288304 
L 349.60556 -58.059895 
L 349.359901 -57.831487 
L 349.115725 -57.603078 
L 348.873757 -57.374669 
L 348.634684 -57.146261 
L 348.399149 -56.917852 
L 348.167746 -56.689444 
L 347.941018 -56.461035 
L 347.719453 -56.232627 
L 347.503479 -56.004218 
L 347.293464 -55.775809 
L 347.089714 -55.547401 
L 346.892472 -55.318992 
L 346.701915 -55.090584 
L 346.518159 -54.862175 
L 346.341257 -54.633767 
L 346.171202 -54.405358 
L 346.007927 -54.17695 
L 345.851311 -53.948541 
L 345.701178 -53.720132 
L 345.557305 -53.491724 
L 345.419423 -53.263315 
L 345.287225 -53.034907 
L 345.160367 -52.806498 
L 345.038474 -52.57809 
L 344.921146 -52.349681 
L 344.807966 -52.121272 
L 344.698498 -51.892864 
L 344.5923 -51.664455 
L 344.488925 -51.436047 
L 344.387928 -51.207638 
L 344.288869 -50.97923 
L 344.191321 -50.750821 
L 344.09487 -50.522413 
L 343.999122 -50.294004 
L 343.903708 -50.065595 
L 343.808284 -49.837187 
z
" style="stroke: #999999; stroke-width: 2"/>
    </defs>
    <g clip-path="url(#p62183e1fe1)">
     <use xlink:href="#m33f8ec644a" x="0" y="255.11811" style="fill: #ffffff; stroke: #999999; stroke-width: 2"/>
    </g>
   </g>
   <g id="PolyCollection_6">
    <defs>
     <path id="mc8000dbd69" d="M 407.20983 -159.006819 
L 399.552802 -159.006819 
L 399.522314 -159.352923 
L 399.495717 -159.699027 
L 399.472951 -160.04513 
L 399.453931 -160.391234 
L 399.438542 -160.737338 
L 399.426641 -161.083441 
L 399.41806 -161.429545 
L 399.412603 -161.775649 
L 399.410048 -162.121752 
L 399.410149 -162.467856 
L 399.412635 -162.81396 
L 399.417213 -163.160063 
L 399.42357 -163.506167 
L 399.431373 -163.852271 
L 399.44027 -164.198374 
L 399.449897 -164.544478 
L 399.459873 -164.890582 
L 399.469809 -165.236685 
L 399.479304 -165.582789 
L 399.487954 -165.928893 
L 399.495347 -166.274996 
L 399.501074 -166.6211 
L 399.504724 -166.967204 
L 399.505891 -167.313307 
L 399.504174 -167.659411 
L 399.499183 -168.005515 
L 399.490537 -168.351618 
L 399.477869 -168.697722 
L 399.460831 -169.043826 
L 399.43909 -169.389929 
L 399.412334 -169.736033 
L 399.380276 -170.082137 
L 399.342651 -170.42824 
L 399.299222 -170.774344 
L 399.249781 -171.120448 
L 399.194148 -171.466551 
L 399.132174 -171.812655 
L 399.063743 -172.158759 
L 398.988773 -172.504862 
L 398.907216 -172.850966 
L 398.819057 -173.19707 
L 398.724319 -173.543173 
L 398.623058 -173.889277 
L 398.515368 -174.235381 
L 398.401379 -174.581484 
L 398.281254 -174.927588 
L 398.155194 -175.273691 
L 398.023433 -175.619795 
L 397.886238 -175.965899 
L 397.743911 -176.312002 
L 397.596786 -176.658106 
L 397.445225 -177.00421 
L 397.289621 -177.350313 
L 397.130396 -177.696417 
L 396.967995 -178.042521 
L 396.802891 -178.388624 
L 396.635576 -178.734728 
L 396.466564 -179.080832 
L 396.296388 -179.426935 
L 396.125597 -179.773039 
L 395.954752 -180.119143 
L 395.784427 -180.465246 
L 395.615206 -180.81135 
L 395.447677 -181.157454 
L 395.282433 -181.503557 
L 395.120069 -181.849661 
L 394.961179 -182.195765 
L 394.806351 -182.541868 
L 394.656169 -182.887972 
L 394.511206 -183.234076 
L 394.372024 -183.580179 
L 394.239171 -183.926283 
L 394.113176 -184.272387 
L 393.994552 -184.61849 
L 393.883787 -184.964594 
L 393.781347 -185.310698 
L 393.687669 -185.656801 
L 393.603163 -186.002905 
L 393.528209 -186.349009 
L 393.463154 -186.695112 
L 393.408309 -187.041216 
L 393.363951 -187.38732 
L 393.330319 -187.733423 
L 393.307613 -188.079527 
L 393.295995 -188.425631 
L 393.295585 -188.771734 
L 393.306463 -189.117838 
L 393.328665 -189.463942 
L 393.362189 -189.810045 
L 393.406987 -190.156149 
L 393.462974 -190.502253 
L 393.53002 -190.848356 
L 393.607956 -191.19446 
L 393.696575 -191.540564 
L 393.795629 -191.886667 
L 393.904835 -192.232771 
L 394.023874 -192.578875 
L 394.152391 -192.924978 
L 394.290003 -193.271082 
L 412.472629 -193.271082 
L 412.472629 -193.271082 
L 412.610241 -192.924978 
L 412.738759 -192.578875 
L 412.857797 -192.232771 
L 412.967003 -191.886667 
L 413.066057 -191.540564 
L 413.154676 -191.19446 
L 413.232612 -190.848356 
L 413.299658 -190.502253 
L 413.355645 -190.156149 
L 413.400443 -189.810045 
L 413.433967 -189.463942 
L 413.456169 -189.117838 
L 413.467047 -188.771734 
L 413.466637 -188.425631 
L 413.455019 -188.079527 
L 413.432314 -187.733423 
L 413.398682 -187.38732 
L 413.354324 -187.041216 
L 413.299479 -186.695112 
L 413.234423 -186.349009 
L 413.159469 -186.002905 
L 413.074963 -185.656801 
L 412.981285 -185.310698 
L 412.878845 -184.964594 
L 412.76808 -184.61849 
L 412.649456 -184.272387 
L 412.523462 -183.926283 
L 412.390608 -183.580179 
L 412.251426 -183.234076 
L 412.106463 -182.887972 
L 411.956281 -182.541868 
L 411.801454 -182.195765 
L 411.642563 -181.849661 
L 411.480199 -181.503557 
L 411.314956 -181.157454 
L 411.147426 -180.81135 
L 410.978205 -180.465246 
L 410.80788 -180.119143 
L 410.637035 -179.773039 
L 410.466244 -179.426935 
L 410.296068 -179.080832 
L 410.127057 -178.734728 
L 409.959741 -178.388624 
L 409.794637 -178.042521 
L 409.632236 -177.696417 
L 409.473011 -177.350313 
L 409.317407 -177.00421 
L 409.165846 -176.658106 
L 409.018721 -176.312002 
L 408.876394 -175.965899 
L 408.7392 -175.619795 
L 408.607438 -175.273691 
L 408.481378 -174.927588 
L 408.361253 -174.581484 
L 408.247264 -174.235381 
L 408.139574 -173.889277 
L 408.038314 -173.543173 
L 407.943575 -173.19707 
L 407.855416 -172.850966 
L 407.773859 -172.504862 
L 407.698889 -172.158759 
L 407.630459 -171.812655 
L 407.568485 -171.466551 
L 407.512851 -171.120448 
L 407.46341 -170.774344 
L 407.419981 -170.42824 
L 407.382357 -170.082137 
L 407.350298 -169.736033 
L 407.323543 -169.389929 
L 407.301801 -169.043826 
L 407.284763 -168.697722 
L 407.272095 -168.351618 
L 407.263449 -168.005515 
L 407.258458 -167.659411 
L 407.256741 -167.313307 
L 407.257908 -166.967204 
L 407.261558 -166.6211 
L 407.267285 -166.274996 
L 407.274679 -165.928893 
L 407.283328 -165.582789 
L 407.292823 -165.236685 
L 407.302759 -164.890582 
L 407.312735 -164.544478 
L 407.322362 -164.198374 
L 407.33126 -163.852271 
L 407.339062 -163.506167 
L 407.345419 -163.160063 
L 407.349997 -162.81396 
L 407.352483 -162.467856 
L 407.352584 -162.121752 
L 407.350029 -161.775649 
L 407.344572 -161.429545 
L 407.335991 -161.083441 
L 407.32409 -160.737338 
L 407.308701 -160.391234 
L 407.289681 -160.04513 
L 407.266916 -159.699027 
L 407.240318 -159.352923 
L 407.20983 -159.006819 
z
" style="stroke: #999999; stroke-width: 2"/>
    </defs>
    <g clip-path="url(#p62183e1fe1)">
     <use xlink:href="#mc8000dbd69" x="0" y="255.11811" style="fill: #ffffff; stroke: #999999; stroke-width: 2"/>
    </g>
   </g>
   <g id="PolyCollection_7">
    <defs>
     <path id="m90bf66d6d4" d="M 469.845042 -132.824006 
L 466.430796 -132.824006 
L 466.382018 -133.726601 
L 466.333584 -134.629196 
L 466.285565 -135.531791 
L 466.238029 -136.434387 
L 466.191039 -137.336982 
L 466.144658 -138.239577 
L 466.098942 -139.142172 
L 466.053946 -140.044767 
L 466.009719 -140.947362 
L 465.966305 -141.849957 
L 465.923744 -142.752552 
L 465.882072 -143.655148 
L 465.841316 -144.557743 
L 465.801502 -145.460338 
L 465.762647 -146.362933 
L 465.724763 -147.265528 
L 465.687859 -148.168123 
L 465.651934 -149.070718 
L 465.616985 -149.973313 
L 465.583002 -150.875909 
L 465.54997 -151.778504 
L 465.517871 -152.681099 
L 465.486678 -153.583694 
L 465.456366 -154.486289 
L 465.426903 -155.388884 
L 465.398253 -156.291479 
L 465.370381 -157.194074 
L 465.343247 -158.09667 
L 465.316812 -158.999265 
L 465.291035 -159.90186 
L 465.265878 -160.804455 
L 465.2413 -161.70705 
L 465.217265 -162.609645 
L 465.193738 -163.51224 
L 465.170687 -164.414835 
L 465.148083 -165.317431 
L 465.125904 -166.220026 
L 465.104128 -167.122621 
L 465.082743 -168.025216 
L 465.06174 -168.927811 
L 465.041117 -169.830406 
L 465.020876 -170.733001 
L 465.001028 -171.635596 
L 464.981588 -172.538192 
L 464.962578 -173.440787 
L 464.944027 -174.343382 
L 464.925969 -175.245977 
L 464.908442 -176.148572 
L 464.891491 -177.051167 
L 464.875165 -177.953762 
L 464.859517 -178.856357 
L 464.844604 -179.758953 
L 464.830483 -180.661548 
L 464.817217 -181.564143 
L 464.804869 -182.466738 
L 464.793501 -183.369333 
L 464.783177 -184.271928 
L 464.773961 -185.174523 
L 464.765913 -186.077118 
L 464.759095 -186.979714 
L 464.753563 -187.882309 
L 464.749372 -188.784904 
L 464.746575 -189.687499 
L 464.745219 -190.590094 
L 464.74535 -191.492689 
L 464.747006 -192.395284 
L 464.750225 -193.297879 
L 464.755038 -194.200475 
L 464.761475 -195.10307 
L 464.769557 -196.005665 
L 464.779307 -196.90826 
L 464.790739 -197.810855 
L 464.803866 -198.71345 
L 464.818699 -199.616045 
L 464.835243 -200.51864 
L 464.853502 -201.421236 
L 464.873476 -202.323831 
L 464.895166 -203.226426 
L 464.918568 -204.129021 
L 464.943676 -205.031616 
L 464.970485 -205.934211 
L 464.998985 -206.836806 
L 465.029168 -207.739401 
L 465.061022 -208.641997 
L 465.094535 -209.544592 
L 465.129691 -210.447187 
L 465.166475 -211.349782 
L 465.204869 -212.252377 
L 465.244852 -213.154972 
L 465.286401 -214.057567 
L 465.329491 -214.960162 
L 465.374092 -215.862758 
L 465.420173 -216.765353 
L 465.467697 -217.667948 
L 465.516623 -218.570543 
L 465.566907 -219.473138 
L 465.618499 -220.375733 
L 465.671343 -221.278328 
L 465.725381 -222.180923 
L 470.550457 -222.180923 
L 470.550457 -222.180923 
L 470.604495 -221.278328 
L 470.657339 -220.375733 
L 470.708931 -219.473138 
L 470.759215 -218.570543 
L 470.808141 -217.667948 
L 470.855665 -216.765353 
L 470.901746 -215.862758 
L 470.946347 -214.960162 
L 470.989437 -214.057567 
L 471.030986 -213.154972 
L 471.070969 -212.252377 
L 471.109363 -211.349782 
L 471.146147 -210.447187 
L 471.181303 -209.544592 
L 471.214816 -208.641997 
L 471.24667 -207.739401 
L 471.276853 -206.836806 
L 471.305353 -205.934211 
L 471.332162 -205.031616 
L 471.35727 -204.129021 
L 471.380672 -203.226426 
L 471.402362 -202.323831 
L 471.422337 -201.421236 
L 471.440595 -200.51864 
L 471.457139 -199.616045 
L 471.471972 -198.71345 
L 471.485099 -197.810855 
L 471.496531 -196.90826 
L 471.506281 -196.005665 
L 471.514363 -195.10307 
L 471.5208 -194.200475 
L 471.525613 -193.297879 
L 471.528832 -192.395284 
L 471.530488 -191.492689 
L 471.530619 -190.590094 
L 471.529263 -189.687499 
L 471.526466 -188.784904 
L 471.522275 -187.882309 
L 471.516743 -186.979714 
L 471.509925 -186.077118 
L 471.501877 -185.174523 
L 471.492661 -184.271928 
L 471.482337 -183.369333 
L 471.470969 -182.466738 
L 471.458621 -181.564143 
L 471.445355 -180.661548 
L 471.431234 -179.758953 
L 471.416321 -178.856357 
L 471.400673 -177.953762 
L 471.384347 -177.051167 
L 471.367396 -176.148572 
L 471.349869 -175.245977 
L 471.331811 -174.343382 
L 471.31326 -173.440787 
L 471.29425 -172.538192 
L 471.27481 -171.635596 
L 471.254962 -170.733001 
L 471.234721 -169.830406 
L 471.214098 -168.927811 
L 471.193095 -168.025216 
L 471.17171 -167.122621 
L 471.149934 -166.220026 
L 471.127755 -165.317431 
L 471.105151 -164.414835 
L 471.0821 -163.51224 
L 471.058573 -162.609645 
L 471.034538 -161.70705 
L 471.00996 -160.804455 
L 470.984803 -159.90186 
L 470.959026 -158.999265 
L 470.932591 -158.09667 
L 470.905457 -157.194074 
L 470.877585 -156.291479 
L 470.848935 -155.388884 
L 470.819472 -154.486289 
L 470.78916 -153.583694 
L 470.757968 -152.681099 
L 470.725868 -151.778504 
L 470.692836 -150.875909 
L 470.658853 -149.973313 
L 470.623904 -149.070718 
L 470.587979 -148.168123 
L 470.551075 -147.265528 
L 470.513191 -146.362933 
L 470.474336 -145.460338 
L 470.434522 -144.557743 
L 470.393766 -143.655148 
L 470.352094 -142.752552 
L 470.309533 -141.849957 
L 470.266119 -140.947362 
L 470.221892 -140.044767 
L 470.176896 -139.142172 
L 470.13118 -138.239577 
L 470.084799 -137.336982 
L 470.037809 -136.434387 
L 469.990273 -135.531791 
L 469.942254 -134.629196 
L 469.89382 -133.726601 
L 469.845042 -132.824006 
z
" style="stroke: #999999; stroke-width: 2"/>
    </defs>
    <g clip-path="url(#p62183e1fe1)">
     <use xlink:href="#m90bf66d6d4" x="0" y="255.11811" style="fill: #ffffff; stroke: #999999; stroke-width: 2"/>
    </g>
   </g>
   <g id="PathCollection_1"/>
   <g id="PathCollection_2"/>
   <g id="patch_3">
    <path d="M 47.22 213.89811 
L 47.22 24.32 
" style="fill: none; stroke: #262626; stroke-width: 1.25; stroke-linejoin: miter; stroke-linecap: square"/>
   </g>
   <g id="patch_4">
    <path d="M 47.22 213.89811 
L 500.51622 213.89811 
" style="fill: none; stroke: #262626; stroke-width: 1.25; stroke-linejoin: miter; stroke-linecap: square"/>
   </g>
   <g id="PathCollection_3">
    <defs>
     <path id="C0_0_cffd50e17d" d="M 0 2.5 
C 0.663008 2.5 1.29895 2.236584 1.767767 1.767767 
C 2.236584 1.29895 2.5 0.663008 2.5 -0 
C 2.5 -0.663008 2.236584 -1.29895 1.767767 -1.767767 
C 1.29895 -2.236584 0.663008 -2.5 0 -2.5 
C -0.663008 -2.5 -1.29895 -2.236584 -1.767767 -1.767767 
C -2.236584 -1.29895 -2.5 -0.663008 -2.5 0 
C -2.5 0.663008 -2.236584 1.29895 -1.767767 1.767767 
C -1.29895 2.236584 -0.663008 2.5 0 2.5 
z
"/>
    </defs>
    <g clip-path="url(#p62183e1fe1)">
     <use xlink:href="#C0_0_cffd50e17d" x="76.959872" y="162.054351" style="fill: #4c72b0; fill-opacity: 0.75"/>
    </g>
    <g clip-path="url(#p62183e1fe1)">
     <use xlink:href="#C0_0_cffd50e17d" x="74.958615" y="147.116396" style="fill: #4c72b0; fill-opacity: 0.75"/>
    </g>
    <g clip-path="url(#p62183e1fe1)">
     <use xlink:href="#C0_0_cffd50e17d" x="82.739649" y="142.885784" style="fill: #4c72b0; fill-opacity: 0.75"/>
    </g>
    <g clip-path="url(#p62183e1fe1)">
     <use xlink:href="#C0_0_cffd50e17d" x="80.243381" y="169.45183" style="fill: #4c72b0; fill-opacity: 0.75"/>
    </g>
    <g clip-path="url(#p62183e1fe1)">
     <use xlink:href="#C0_0_cffd50e17d" x="78.621653" y="121.335645" style="fill: #dd8452; fill-opacity: 0.75"/>
    </g>
    <g clip-path="url(#p62183e1fe1)">
     <use xlink:href="#C0_0_cffd50e17d" x="84.96815" y="133.328393" style="fill: #dd8452; fill-opacity: 0.75"/>
    </g>
    <g clip-path="url(#p62183e1fe1)">
     <use xlink:href="#C0_0_cffd50e17d" x="80.168722" y="119.688109" style="fill: #dd8452; fill-opacity: 0.75"/>
    </g>
    <g clip-path="url(#p62183e1fe1)">
     <use xlink:href="#C0_0_cffd50e17d" x="80.440896" y="129.782689" style="fill: #dd8452; fill-opacity: 0.75"/>
    </g>
   </g>
   <g id="PathCollection_4">
    <defs>
     <path id="C1_0_d59db8c680" d="M 0 2.5 
C 0.663008 2.5 1.29895 2.236584 1.767767 1.767767 
C 2.236584 1.29895 2.5 0.663008 2.5 -0 
C 2.5 -0.663008 2.236584 -1.29895 1.767767 -1.767767 
C 1.29895 -2.236584 0.663008 -2.5 0 -2.5 
C -0.663008 -2.5 -1.29895 -2.236584 -1.767767 -1.767767 
C -2.236584 -1.29895 -2.5 -0.663008 -2.5 0 
C -2.5 0.663008 -2.236584 1.29895 -1.767767 1.767767 
C -1.29895 2.236584 -0.663008 2.5 0 2.5 
z
"/>
    </defs>
    <g clip-path="url(#p62183e1fe1)">
     <use xlink:href="#C1_0_d59db8c680" x="142.10314" y="140.265794" style="fill: #4c72b0; fill-opacity: 0.75"/>
    </g>
    <g clip-path="url(#p62183e1fe1)">
     <use xlink:href="#C1_0_d59db8c680" x="146.688564" y="143.703571" style="fill: #4c72b0; fill-opacity: 0.75"/>
    </g>
    <g clip-path="url(#p62183e1fe1)">
     <use xlink:href="#C1_0_d59db8c680" x="142.295971" y="136.921549" style="fill: #4c72b0; fill-opacity: 0.75"/>
    </g>
    <g clip-path="url(#p62183e1fe1)">
     <use xlink:href="#C1_0_d59db8c680" x="148.513744" y="145.798365" style="fill: #4c72b0; fill-opacity: 0.75"/>
    </g>
    <g clip-path="url(#p62183e1fe1)">
     <use xlink:href="#C1_0_d59db8c680" x="143.489215" y="141.985074" style="fill: #dd8452; fill-opacity: 0.75"/>
    </g>
    <g clip-path="url(#p62183e1fe1)">
     <use xlink:href="#C1_0_d59db8c680" x="141.612991" y="150.255618" style="fill: #dd8452; fill-opacity: 0.75"/>
    </g>
    <g clip-path="url(#p62183e1fe1)">
     <use xlink:href="#C1_0_d59db8c680" x="150.603666" y="145.16371" style="fill: #dd8452; fill-opacity: 0.75"/>
    </g>
    <g clip-path="url(#p62183e1fe1)">
     <use xlink:href="#C1_0_d59db8c680" x="138.672597" y="148.542516" style="fill: #dd8452; fill-opacity: 0.75"/>
    </g>
   </g>
   <g id="PathCollection_5">
    <defs>
     <path id="C2_0_8dd8ec5cba" d="M 0 2.5 
C 0.663008 2.5 1.29895 2.236584 1.767767 1.767767 
C 2.236584 1.29895 2.5 0.663008 2.5 -0 
C 2.5 -0.663008 2.236584 -1.29895 1.767767 -1.767767 
C 1.29895 -2.236584 0.663008 -2.5 0 -2.5 
C -0.663008 -2.5 -1.29895 -2.236584 -1.767767 -1.767767 
C -2.236584 -1.29895 -2.5 -0.663008 -2.5 0 
C -2.5 0.663008 -2.236584 1.29895 -1.767767 1.767767 
C -1.29895 2.236584 -0.663008 2.5 0 2.5 
z
"/>
    </defs>
    <g clip-path="url(#p62183e1fe1)">
     <use xlink:href="#C2_0_8dd8ec5cba" x="206.338614" y="112.568847" style="fill: #4c72b0; fill-opacity: 0.75"/>
    </g>
    <g clip-path="url(#p62183e1fe1)">
     <use xlink:href="#C2_0_8dd8ec5cba" x="204.236223" y="127.918229" style="fill: #4c72b0; fill-opacity: 0.75"/>
    </g>
    <g clip-path="url(#p62183e1fe1)">
     <use xlink:href="#C2_0_8dd8ec5cba" x="206.024493" y="116.271756" style="fill: #4c72b0; fill-opacity: 0.75"/>
    </g>
    <g clip-path="url(#p62183e1fe1)">
     <use xlink:href="#C2_0_8dd8ec5cba" x="208.20588" y="157.495777" style="fill: #4c72b0; fill-opacity: 0.75"/>
    </g>
    <g clip-path="url(#p62183e1fe1)">
     <use xlink:href="#C2_0_8dd8ec5cba" x="212.806199" y="134.689274" style="fill: #dd8452; fill-opacity: 0.75"/>
    </g>
    <g clip-path="url(#p62183e1fe1)">
     <use xlink:href="#C2_0_8dd8ec5cba" x="211.232077" y="142.979743" style="fill: #dd8452; fill-opacity: 0.75"/>
    </g>
    <g clip-path="url(#p62183e1fe1)">
     <use xlink:href="#C2_0_8dd8ec5cba" x="208.453005" y="117.240669" style="fill: #dd8452; fill-opacity: 0.75"/>
    </g>
    <g clip-path="url(#p62183e1fe1)">
     <use xlink:href="#C2_0_8dd8ec5cba" x="210.162767" y="127.645961" style="fill: #dd8452; fill-opacity: 0.75"/>
    </g>
   </g>
   <g id="PathCollection_6">
    <defs>
     <path id="C3_0_b3e36c7a29" d="M 0 2.5 
C 0.663008 2.5 1.29895 2.236584 1.767767 1.767767 
C 2.236584 1.29895 2.5 0.663008 2.5 -0 
C 2.5 -0.663008 2.236584 -1.29895 1.767767 -1.767767 
C 1.29895 -2.236584 0.663008 -2.5 0 -2.5 
C -0.663008 -2.5 -1.29895 -2.236584 -1.767767 -1.767767 
C -2.236584 -1.29895 -2.5 -0.663008 -2.5 0 
C -2.5 0.663008 -2.236584 1.29895 -1.767767 1.767767 
C -1.29895 2.236584 -0.663008 2.5 0 2.5 
z
"/>
    </defs>
    <g clip-path="url(#p62183e1fe1)">
     <use xlink:href="#C3_0_b3e36c7a29" x="272.271247" y="141.025471" style="fill: #4c72b0; fill-opacity: 0.75"/>
    </g>
    <g clip-path="url(#p62183e1fe1)">
     <use xlink:href="#C3_0_b3e36c7a29" x="279.243286" y="120.389964" style="fill: #4c72b0; fill-opacity: 0.75"/>
    </g>
    <g clip-path="url(#p62183e1fe1)">
     <use xlink:href="#C3_0_b3e36c7a29" x="274.898728" y="148.344763" style="fill: #4c72b0; fill-opacity: 0.75"/>
    </g>
    <g clip-path="url(#p62183e1fe1)">
     <use xlink:href="#C3_0_b3e36c7a29" x="274.113834" y="114.446612" style="fill: #4c72b0; fill-opacity: 0.75"/>
    </g>
    <g clip-path="url(#p62183e1fe1)">
     <use xlink:href="#C3_0_b3e36c7a29" x="279.738765" y="132.807899" style="fill: #4c72b0; fill-opacity: 0.75"/>
    </g>
    <g clip-path="url(#p62183e1fe1)">
     <use xlink:href="#C3_0_b3e36c7a29" x="276.195665" y="105.272627" style="fill: #dd8452; fill-opacity: 0.75"/>
    </g>
    <g clip-path="url(#p62183e1fe1)">
     <use xlink:href="#C3_0_b3e36c7a29" x="278.161896" y="130.250798" style="fill: #dd8452; fill-opacity: 0.75"/>
    </g>
    <g clip-path="url(#p62183e1fe1)">
     <use xlink:href="#C3_0_b3e36c7a29" x="277.118931" y="100.565168" style="fill: #dd8452; fill-opacity: 0.75"/>
    </g>
    <g clip-path="url(#p62183e1fe1)">
     <use xlink:href="#C3_0_b3e36c7a29" x="275.319862" y="111.213053" style="fill: #dd8452; fill-opacity: 0.75"/>
    </g>
    <g clip-path="url(#p62183e1fe1)">
     <use xlink:href="#C3_0_b3e36c7a29" x="270.717867" y="78.777717" style="fill: #dd8452; fill-opacity: 0.75"/>
    </g>
   </g>
   <g id="PathCollection_7">
    <defs>
     <path id="C4_0_b775ea3518" d="M 0 2.5 
C 0.663008 2.5 1.29895 2.236584 1.767767 1.767767 
C 2.236584 1.29895 2.5 0.663008 2.5 -0 
C 2.5 -0.663008 2.236584 -1.29895 1.767767 -1.767767 
C 1.29895 -2.236584 0.663008 -2.5 0 -2.5 
C -0.663008 -2.5 -1.29895 -2.236584 -1.767767 -1.767767 
C -2.236584 -1.29895 -2.5 -0.663008 -2.5 0 
C -2.5 0.663008 -2.236584 1.29895 -1.767767 1.767767 
C -1.29895 2.236584 -0.663008 2.5 0 2.5 
z
"/>
    </defs>
    <g clip-path="url(#p62183e1fe1)">
     <use xlink:href="#C4_0_b775ea3518" x="335.095913" y="194.712263" style="fill: #4c72b0; fill-opacity: 0.75"/>
    </g>
    <g clip-path="url(#p62183e1fe1)">
     <use xlink:href="#C4_0_b775ea3518" x="334.896356" y="205.280923" style="fill: #4c72b0; fill-opacity: 0.75"/>
    </g>
    <g clip-path="url(#p62183e1fe1)">
     <use xlink:href="#C4_0_b775ea3518" x="332.314169" y="192.26852" style="fill: #4c72b0; fill-opacity: 0.75"/>
    </g>
    <g clip-path="url(#p62183e1fe1)">
     <use xlink:href="#C4_0_b775ea3518" x="341.279775" y="182.668476" style="fill: #dd8452; fill-opacity: 0.75"/>
    </g>
    <g clip-path="url(#p62183e1fe1)">
     <use xlink:href="#C4_0_b775ea3518" x="339.461895" y="185.832211" style="fill: #dd8452; fill-opacity: 0.75"/>
    </g>
    <g clip-path="url(#p62183e1fe1)">
     <use xlink:href="#C4_0_b775ea3518" x="341.992817" y="191.447193" style="fill: #dd8452; fill-opacity: 0.75"/>
    </g>
   </g>
   <g id="PathCollection_8">
    <defs>
     <path id="C5_0_4ff8654116" d="M 0 2.5 
C 0.663008 2.5 1.29895 2.236584 1.767767 1.767767 
C 2.236584 1.29895 2.5 0.663008 2.5 -0 
C 2.5 -0.663008 2.236584 -1.29895 1.767767 -1.767767 
C 1.29895 -2.236584 0.663008 -2.5 0 -2.5 
C -0.663008 -2.5 -1.29895 -2.236584 -1.767767 -1.767767 
C -2.236584 -1.29895 -2.5 -0.663008 -2.5 0 
C -2.5 0.663008 -2.236584 1.29895 -1.767767 1.767767 
C -1.29895 2.236584 -0.663008 2.5 0 2.5 
z
"/>
    </defs>
    <g clip-path="url(#p62183e1fe1)">
     <use xlink:href="#C5_0_4ff8654116" x="403.365989" y="66.612709" style="fill: #4c72b0; fill-opacity: 0.75"/>
    </g>
    <g clip-path="url(#p62183e1fe1)">
     <use xlink:href="#C5_0_4ff8654116" x="397.732667" y="73.652115" style="fill: #4c72b0; fill-opacity: 0.75"/>
    </g>
    <g clip-path="url(#p62183e1fe1)">
     <use xlink:href="#C5_0_4ff8654116" x="402.666403" y="63.129475" style="fill: #4c72b0; fill-opacity: 0.75"/>
    </g>
    <g clip-path="url(#p62183e1fe1)">
     <use xlink:href="#C5_0_4ff8654116" x="406.932228" y="61.847028" style="fill: #4c72b0; fill-opacity: 0.75"/>
    </g>
    <g clip-path="url(#p62183e1fe1)">
     <use xlink:href="#C5_0_4ff8654116" x="406.794863" y="71.174038" style="fill: #dd8452; fill-opacity: 0.75"/>
    </g>
    <g clip-path="url(#p62183e1fe1)">
     <use xlink:href="#C5_0_4ff8654116" x="408.186293" y="96.111291" style="fill: #dd8452; fill-opacity: 0.75"/>
    </g>
    <g clip-path="url(#p62183e1fe1)">
     <use xlink:href="#C5_0_4ff8654116" x="397.932349" y="63.771277" style="fill: #dd8452; fill-opacity: 0.75"/>
    </g>
    <g clip-path="url(#p62183e1fe1)">
     <use xlink:href="#C5_0_4ff8654116" x="400.221597" y="93.791068" style="fill: #dd8452; fill-opacity: 0.75"/>
    </g>
   </g>
   <g id="PathCollection_9">
    <defs>
     <path id="C6_0_2149ab3e50" d="M 0 2.5 
C 0.663008 2.5 1.29895 2.236584 1.767767 1.767767 
C 2.236584 1.29895 2.5 0.663008 2.5 -0 
C 2.5 -0.663008 2.236584 -1.29895 1.767767 -1.767767 
C 1.29895 -2.236584 0.663008 -2.5 0 -2.5 
C -0.663008 -2.5 -1.29895 -2.236584 -1.767767 -1.767767 
C -2.236584 -1.29895 -2.5 -0.663008 -2.5 0 
C -2.5 0.663008 -2.236584 1.29895 -1.767767 1.767767 
C -1.29895 2.236584 -0.663008 2.5 0 2.5 
z
"/>
    </defs>
    <g clip-path="url(#p62183e1fe1)">
     <use xlink:href="#C6_0_2149ab3e50" x="472.417832" y="32.937187" style="fill: #4c72b0; fill-opacity: 0.75"/>
    </g>
    <g clip-path="url(#p62183e1fe1)">
     <use xlink:href="#C6_0_2149ab3e50" x="471.040244" y="35.35293" style="fill: #4c72b0; fill-opacity: 0.75"/>
    </g>
    <g clip-path="url(#p62183e1fe1)">
     <use xlink:href="#C6_0_2149ab3e50" x="465.900428" y="57.982748" style="fill: #4c72b0; fill-opacity: 0.75"/>
    </g>
    <g clip-path="url(#p62183e1fe1)">
     <use xlink:href="#C6_0_2149ab3e50" x="462.220569" y="67.820025" style="fill: #4c72b0; fill-opacity: 0.75"/>
    </g>
    <g clip-path="url(#p62183e1fe1)">
     <use xlink:href="#C6_0_2149ab3e50" x="461.974805" y="98.698465" style="fill: #dd8452; fill-opacity: 0.75"/>
    </g>
    <g clip-path="url(#p62183e1fe1)">
     <use xlink:href="#C6_0_2149ab3e50" x="469.539386" y="122.294104" style="fill: #dd8452; fill-opacity: 0.75"/>
    </g>
    <g clip-path="url(#p62183e1fe1)">
     <use xlink:href="#C6_0_2149ab3e50" x="472.225316" y="97.647535" style="fill: #dd8452; fill-opacity: 0.75"/>
    </g>
    <g clip-path="url(#p62183e1fe1)">
     <use xlink:href="#C6_0_2149ab3e50" x="463.175896" y="68.661387" style="fill: #dd8452; fill-opacity: 0.75"/>
    </g>
   </g>
   <g id="text_15">
    <!-- ARID1B, $p_{adj}$ &lt; .001 *** -->
    <g style="fill: #262626" transform="translate(47.22 18.32)scale(0.09 -0.09)">
     <defs>
      <path id="ArialMT-41" d="M -9 0 
L 1750 4581 
L 2403 4581 
L 4278 0 
L 3588 0 
L 3053 1388 
L 1138 1388 
L 634 0 
L -9 0 
z
M 1313 1881 
L 2866 1881 
L 2388 3150 
Q 2169 3728 2063 4100 
Q 1975 3659 1816 3225 
L 1313 1881 
z
" transform="scale(0.015625)"/>
      <path id="ArialMT-52" d="M 503 0 
L 503 4581 
L 2534 4581 
Q 3147 4581 3465 4457 
Q 3784 4334 3975 4021 
Q 4166 3709 4166 3331 
Q 4166 2844 3850 2509 
Q 3534 2175 2875 2084 
Q 3116 1969 3241 1856 
Q 3506 1613 3744 1247 
L 4541 0 
L 3778 0 
L 3172 953 
Q 2906 1366 2734 1584 
Q 2563 1803 2427 1890 
Q 2291 1978 2150 2013 
Q 2047 2034 1813 2034 
L 1109 2034 
L 1109 0 
L 503 0 
z
M 1109 2559 
L 2413 2559 
Q 2828 2559 3062 2645 
Q 3297 2731 3419 2920 
Q 3541 3109 3541 3331 
Q 3541 3656 3305 3865 
Q 3069 4075 2559 4075 
L 1109 4075 
L 1109 2559 
z
" transform="scale(0.015625)"/>
      <path id="ArialMT-49" d="M 597 0 
L 597 4581 
L 1203 4581 
L 1203 0 
L 597 0 
z
" transform="scale(0.015625)"/>
      <path id="ArialMT-44" d="M 494 0 
L 494 4581 
L 2072 4581 
Q 2606 4581 2888 4516 
Q 3281 4425 3559 4188 
Q 3922 3881 4101 3404 
Q 4281 2928 4281 2316 
Q 4281 1794 4159 1391 
Q 4038 988 3847 723 
Q 3656 459 3429 307 
Q 3203 156 2883 78 
Q 2563 0 2147 0 
L 494 0 
z
M 1100 541 
L 2078 541 
Q 2531 541 2789 625 
Q 3047 709 3200 863 
Q 3416 1078 3536 1442 
Q 3656 1806 3656 2325 
Q 3656 3044 3420 3430 
Q 3184 3816 2847 3947 
Q 2603 4041 2063 4041 
L 1100 4041 
L 1100 541 
z
" transform="scale(0.015625)"/>
      <path id="ArialMT-42" d="M 469 0 
L 469 4581 
L 2188 4581 
Q 2713 4581 3030 4442 
Q 3347 4303 3526 4014 
Q 3706 3725 3706 3409 
Q 3706 3116 3547 2856 
Q 3388 2597 3066 2438 
Q 3481 2316 3704 2022 
Q 3928 1728 3928 1328 
Q 3928 1006 3792 729 
Q 3656 453 3456 303 
Q 3256 153 2954 76 
Q 2653 0 2216 0 
L 469 0 
z
M 1075 2656 
L 2066 2656 
Q 2469 2656 2644 2709 
Q 2875 2778 2992 2937 
Q 3109 3097 3109 3338 
Q 3109 3566 3000 3739 
Q 2891 3913 2687 3977 
Q 2484 4041 1991 4041 
L 1075 4041 
L 1075 2656 
z
M 1075 541 
L 2216 541 
Q 2509 541 2628 563 
Q 2838 600 2978 687 
Q 3119 775 3209 942 
Q 3300 1109 3300 1328 
Q 3300 1584 3169 1773 
Q 3038 1963 2805 2039 
Q 2572 2116 2134 2116 
L 1075 2116 
L 1075 541 
z
" transform="scale(0.015625)"/>
      <path id="ArialMT-2c" d="M 569 0 
L 569 641 
L 1209 641 
L 1209 0 
Q 1209 -353 1084 -570 
Q 959 -788 688 -906 
L 531 -666 
Q 709 -588 793 -436 
Q 878 -284 888 0 
L 569 0 
z
" transform="scale(0.015625)"/>
      <path id="DejaVuSans-Oblique-70" d="M 3175 2156 
Q 3175 2616 2975 2859 
Q 2775 3103 2400 3103 
Q 2144 3103 1911 2972 
Q 1678 2841 1497 2591 
Q 1319 2344 1212 1994 
Q 1106 1644 1106 1300 
Q 1106 863 1306 627 
Q 1506 391 1875 391 
Q 2147 391 2380 519 
Q 2613 647 2778 891 
Q 2956 1147 3065 1494 
Q 3175 1841 3175 2156 
z
M 1394 2969 
Q 1625 3272 1939 3428 
Q 2253 3584 2638 3584 
Q 3175 3584 3472 3232 
Q 3769 2881 3769 2247 
Q 3769 1728 3584 1258 
Q 3400 788 3053 416 
Q 2822 169 2531 39 
Q 2241 -91 1919 -91 
Q 1547 -91 1294 64 
Q 1041 219 916 525 
L 556 -1331 
L -19 -1331 
L 922 3500 
L 1497 3500 
L 1394 2969 
z
" transform="scale(0.015625)"/>
      <path id="DejaVuSans-Oblique-61" d="M 3438 1997 
L 3047 0 
L 2472 0 
L 2578 531 
Q 2325 219 2001 64 
Q 1678 -91 1281 -91 
Q 834 -91 548 182 
Q 263 456 263 884 
Q 263 1497 752 1853 
Q 1241 2209 2100 2209 
L 2900 2209 
L 2931 2363 
Q 2938 2388 2941 2417 
Q 2944 2447 2944 2509 
Q 2944 2788 2717 2942 
Q 2491 3097 2081 3097 
Q 1800 3097 1504 3025 
Q 1209 2953 897 2809 
L 997 3341 
Q 1322 3463 1633 3523 
Q 1944 3584 2234 3584 
Q 2853 3584 3176 3315 
Q 3500 3047 3500 2534 
Q 3500 2431 3484 2292 
Q 3469 2153 3438 1997 
z
M 2816 1759 
L 2241 1759 
Q 1534 1759 1195 1570 
Q 856 1381 856 984 
Q 856 709 1029 553 
Q 1203 397 1509 397 
Q 1978 397 2328 733 
Q 2678 1069 2791 1631 
L 2816 1759 
z
" transform="scale(0.015625)"/>
      <path id="DejaVuSans-Oblique-64" d="M 2675 525 
Q 2444 222 2128 65 
Q 1813 -91 1428 -91 
Q 903 -91 598 267 
Q 294 625 294 1247 
Q 294 1766 478 2236 
Q 663 2706 1013 3078 
Q 1244 3325 1534 3454 
Q 1825 3584 2144 3584 
Q 2481 3584 2739 3421 
Q 2997 3259 3138 2956 
L 3513 4863 
L 4091 4863 
L 3144 0 
L 2566 0 
L 2675 525 
z
M 891 1350 
Q 891 897 1095 644 
Q 1300 391 1663 391 
Q 1931 391 2161 520 
Q 2391 650 2566 903 
Q 2750 1166 2856 1509 
Q 2963 1853 2963 2188 
Q 2963 2622 2758 2865 
Q 2553 3109 2194 3109 
Q 1922 3109 1687 2981 
Q 1453 2853 1288 2613 
Q 1106 2353 998 2009 
Q 891 1666 891 1350 
z
" transform="scale(0.015625)"/>
      <path id="DejaVuSans-Oblique-6a" d="M 928 3500 
L 1503 3500 
L 813 -63 
L 809 -78 
Q 694 -675 544 -897 
Q 403 -1106 132 -1218 
Q -138 -1331 -506 -1331 
L -722 -1331 
L -628 -844 
L -481 -844 
Q -144 -844 -1 -703 
Q 141 -563 238 -63 
L 928 3500 
z
M 1197 4863 
L 1772 4863 
L 1631 4134 
L 1056 4134 
L 1197 4863 
z
" transform="scale(0.015625)"/>
      <path id="ArialMT-3c" d="M 350 2003 
L 350 2528 
L 3384 3809 
L 3384 3250 
L 978 2263 
L 3384 1266 
L 3384 706 
L 350 2003 
z
" transform="scale(0.015625)"/>
      <path id="ArialMT-2e" d="M 581 0 
L 581 641 
L 1222 641 
L 1222 0 
L 581 0 
z
" transform="scale(0.015625)"/>
      <path id="ArialMT-2a" d="M 200 3741 
L 344 4184 
Q 841 4009 1066 3881 
Q 1006 4447 1003 4659 
L 1456 4659 
Q 1447 4350 1384 3884 
Q 1706 4047 2122 4184 
L 2266 3741 
Q 1869 3609 1488 3566 
Q 1678 3400 2025 2975 
L 1650 2709 
Q 1469 2956 1222 3381 
Q 991 2941 816 2709 
L 447 2975 
Q 809 3422 966 3566 
Q 563 3644 200 3741 
z
" transform="scale(0.015625)"/>
     </defs>
     <use xlink:href="#ArialMT-41" transform="translate(0 0.203125)"/>
     <use xlink:href="#ArialMT-52" transform="translate(66.699219 0.203125)"/>
     <use xlink:href="#ArialMT-49" transform="translate(138.916016 0.203125)"/>
     <use xlink:href="#ArialMT-44" transform="translate(166.699219 0.203125)"/>
     <use xlink:href="#ArialMT-31" transform="translate(238.916016 0.203125)"/>
     <use xlink:href="#ArialMT-42" transform="translate(294.53125 0.203125)"/>
     <use xlink:href="#ArialMT-2c" transform="translate(361.230469 0.203125)"/>
     <use xlink:href="#ArialMT-20" transform="translate(389.013672 0.203125)"/>
     <use xlink:href="#DejaVuSans-Oblique-70" transform="translate(416.796875 0.203125)"/>
     <use xlink:href="#DejaVuSans-Oblique-61" transform="translate(480.273438 -16.203125)scale(0.7)"/>
     <use xlink:href="#DejaVuSans-Oblique-64" transform="translate(523.168945 -16.203125)scale(0.7)"/>
     <use xlink:href="#DejaVuSans-Oblique-6a" transform="translate(567.602539 -16.203125)scale(0.7)"/>
     <use xlink:href="#ArialMT-20" transform="translate(589.785156 0.203125)"/>
     <use xlink:href="#ArialMT-3c" transform="translate(617.568359 0.203125)"/>
     <use xlink:href="#ArialMT-20" transform="translate(675.966797 0.203125)"/>
     <use xlink:href="#ArialMT-2e" transform="translate(703.75 0.203125)"/>
     <use xlink:href="#ArialMT-30" transform="translate(731.533203 0.203125)"/>
     <use xlink:href="#ArialMT-30" transform="translate(787.148438 0.203125)"/>
     <use xlink:href="#ArialMT-31" transform="translate(842.763672 0.203125)"/>
     <use xlink:href="#ArialMT-20" transform="translate(898.378906 0.203125)"/>
     <use xlink:href="#ArialMT-2a" transform="translate(926.162109 0.203125)"/>
     <use xlink:href="#ArialMT-2a" transform="translate(965.078125 0.203125)"/>
     <use xlink:href="#ArialMT-2a" transform="translate(1003.994141 0.203125)"/>
    </g>
   </g>
   <g id="legend_1">
    <g id="patch_5">
     <path d="M 53.52 69.712344 
L 105.82125 69.712344 
Q 107.62125 69.712344 107.62125 67.912344 
L 107.62125 30.62 
Q 107.62125 28.82 105.82125 28.82 
L 53.52 28.82 
Q 51.72 28.82 51.72 30.62 
L 51.72 67.912344 
Q 51.72 69.712344 53.52 69.712344 
z
" style="fill: #ffffff; opacity: 0.8; stroke: #cccccc; stroke-linejoin: miter"/>
    </g>
    <g id="text_16">
     <!-- Treatment -->
     <g style="fill: #262626" transform="translate(59.334141 38.862031)scale(0.09 -0.09)">
      <use xlink:href="#ArialMT-54"/>
      <use xlink:href="#ArialMT-72" x="57.333984"/>
      <use xlink:href="#ArialMT-65" x="90.634766"/>
      <use xlink:href="#ArialMT-61" x="146.25"/>
      <use xlink:href="#ArialMT-74" x="201.865234"/>
      <use xlink:href="#ArialMT-6d" x="229.648438"/>
      <use xlink:href="#ArialMT-65" x="312.949219"/>
      <use xlink:href="#ArialMT-6e" x="368.564453"/>
      <use xlink:href="#ArialMT-74" x="424.179688"/>
     </g>
    </g>
    <g id="PathCollection_10">
     <defs>
      <path id="ma7ab31f6f4" d="M 0 3.872983 
C 1.027127 3.872983 2.012324 3.464901 2.738613 2.738613 
C 3.464901 2.012324 3.872983 1.027127 3.872983 0 
C 3.872983 -1.027127 3.464901 -2.012324 2.738613 -2.738613 
C 2.012324 -3.464901 1.027127 -3.872983 0 -3.872983 
C -1.027127 -3.872983 -2.012324 -3.464901 -2.738613 -2.738613 
C -3.464901 -2.012324 -3.872983 -1.027127 -3.872983 0 
C -3.872983 1.027127 -3.464901 2.012324 -2.738613 2.738613 
C -2.012324 3.464901 -1.027127 3.872983 0 3.872983 
z
" style="stroke: #4c72b0"/>
     </defs>
     <g>
      <use xlink:href="#ma7ab31f6f4" x="64.32" y="49.230313" style="fill: #4c72b0; stroke: #4c72b0"/>
     </g>
    </g>
    <g id="text_17">
     <!-- BEVA -->
     <g style="fill: #262626" transform="translate(80.52 51.592813)scale(0.09 -0.09)">
      <defs>
       <path id="ArialMT-45" d="M 506 0 
L 506 4581 
L 3819 4581 
L 3819 4041 
L 1113 4041 
L 1113 2638 
L 3647 2638 
L 3647 2100 
L 1113 2100 
L 1113 541 
L 3925 541 
L 3925 0 
L 506 0 
z
" transform="scale(0.015625)"/>
       <path id="ArialMT-56" d="M 1803 0 
L 28 4581 
L 684 4581 
L 1875 1253 
Q 2019 853 2116 503 
Q 2222 878 2363 1253 
L 3600 4581 
L 4219 4581 
L 2425 0 
L 1803 0 
z
" transform="scale(0.015625)"/>
      </defs>
      <use xlink:href="#ArialMT-42"/>
      <use xlink:href="#ArialMT-45" x="66.699219"/>
      <use xlink:href="#ArialMT-56" x="133.398438"/>
      <use xlink:href="#ArialMT-41" x="192.722656"/>
     </g>
    </g>
    <g id="PathCollection_11">
     <defs>
      <path id="m84870235d6" d="M 0 3.872983 
C 1.027127 3.872983 2.012324 3.464901 2.738613 2.738613 
C 3.464901 2.012324 3.872983 1.027127 3.872983 0 
C 3.872983 -1.027127 3.464901 -2.012324 2.738613 -2.738613 
C 2.012324 -3.464901 1.027127 -3.872983 0 -3.872983 
C -1.027127 -3.872983 -2.012324 -3.464901 -2.738613 -2.738613 
C -3.464901 -2.012324 -3.872983 -1.027127 -3.872983 0 
C -3.872983 1.027127 -3.464901 2.012324 -2.738613 2.738613 
C -2.012324 3.464901 -1.027127 3.872983 0 3.872983 
z
" style="stroke: #dd8452"/>
     </defs>
     <g>
      <use xlink:href="#m84870235d6" x="64.32" y="61.961094" style="fill: #dd8452; stroke: #dd8452"/>
     </g>
    </g>
    <g id="text_18">
     <!-- CTRL -->
     <g style="fill: #262626" transform="translate(80.52 64.323594)scale(0.09 -0.09)">
      <defs>
       <path id="ArialMT-43" d="M 3763 1606 
L 4369 1453 
Q 4178 706 3683 314 
Q 3188 -78 2472 -78 
Q 1731 -78 1267 223 
Q 803 525 561 1097 
Q 319 1669 319 2325 
Q 319 3041 592 3573 
Q 866 4106 1370 4382 
Q 1875 4659 2481 4659 
Q 3169 4659 3637 4309 
Q 4106 3959 4291 3325 
L 3694 3184 
Q 3534 3684 3231 3912 
Q 2928 4141 2469 4141 
Q 1941 4141 1586 3887 
Q 1231 3634 1087 3207 
Q 944 2781 944 2328 
Q 944 1744 1114 1308 
Q 1284 872 1643 656 
Q 2003 441 2422 441 
Q 2931 441 3284 734 
Q 3638 1028 3763 1606 
z
" transform="scale(0.015625)"/>
       <path id="ArialMT-4c" d="M 469 0 
L 469 4581 
L 1075 4581 
L 1075 541 
L 3331 541 
L 3331 0 
L 469 0 
z
" transform="scale(0.015625)"/>
      </defs>
      <use xlink:href="#ArialMT-43"/>
      <use xlink:href="#ArialMT-54" x="72.216797"/>
      <use xlink:href="#ArialMT-52" x="133.300781"/>
      <use xlink:href="#ArialMT-4c" x="205.517578"/>
     </g>
    </g>
   </g>
  </g>
 </g>
 <defs>
  <clipPath id="p62183e1fe1">
   <rect x="47.22" y="24.32" width="453.29622" height="189.57811"/>
  </clipPath>
 </defs>
</svg>
