<?xml version="1.0" encoding="utf-8" standalone="no"?>
<!DOCTYPE svg PUBLIC "-//W3C//DTD SVG 1.1//EN"
  "http://www.w3.org/Graphics/SVG/1.1/DTD/svg11.dtd">
<svg xmlns:xlink="http://www.w3.org/1999/xlink" width="510.23622pt" height="255.11811pt" viewBox="0 0 510.23622 255.11811" xmlns="http://www.w3.org/2000/svg" version="1.1">
 <metadata>
  <rdf:RDF xmlns:dc="http://purl.org/dc/elements/1.1/" xmlns:cc="http://creativecommons.org/ns#" xmlns:rdf="http://www.w3.org/1999/02/22-rdf-syntax-ns#">
   <cc:Work>
    <dc:type rdf:resource="http://purl.org/dc/dcmitype/StillImage"/>
    <dc:date>2022-04-27T00:16:08.188712</dc:date>
    <dc:format>image/svg+xml</dc:format>
    <dc:creator>
     <cc:Agent>
      <dc:title>Matplotlib v3.5.1, https://matplotlib.org/</dc:title>
     </cc:Agent>
    </dc:creator>
   </cc:Work>
  </rdf:RDF>
 </metadata>
 <defs>
  <style type="text/css">*{stroke-linejoin: round; stroke-linecap: butt}</style>
 </defs>
 <g id="figure_1">
  <g id="patch_1">
   <path d="M 0 255.11811 
L 510.23622 255.11811 
L 510.23622 0 
L 0 0 
z
" style="fill: #ffffff"/>
  </g>
  <g id="axes_1">
   <g id="patch_2">
    <path d="M 52.22 213.89811 
L 500.51622 213.89811 
L 500.51622 24.32 
L 52.22 24.32 
z
" style="fill: #ffffff"/>
   </g>
   <g id="matplotlib.axis_1">
    <g id="xtick_1">
     <g id="text_1">
      <!-- 49 -->
      <g style="fill: #444444" transform="translate(79.236315 229.840141)scale(0.09 -0.09)">
       <defs>
        <path id="ArialMT-34" d="M 2069 0 
L 2069 1097 
L 81 1097 
L 81 1613 
L 2172 4581 
L 2631 4581 
L 2631 1613 
L 3250 1613 
L 3250 1097 
L 2631 1097 
L 2631 0 
L 2069 0 
z
M 2069 1613 
L 2069 3678 
L 634 1613 
L 2069 1613 
z
" transform="scale(0.015625)"/>
        <path id="ArialMT-39" d="M 350 1059 
L 891 1109 
Q 959 728 1153 556 
Q 1347 384 1650 384 
Q 1909 384 2104 503 
Q 2300 622 2425 820 
Q 2550 1019 2634 1356 
Q 2719 1694 2719 2044 
Q 2719 2081 2716 2156 
Q 2547 1888 2255 1720 
Q 1963 1553 1622 1553 
Q 1053 1553 659 1965 
Q 266 2378 266 3053 
Q 266 3750 677 4175 
Q 1088 4600 1706 4600 
Q 2153 4600 2523 4359 
Q 2894 4119 3086 3673 
Q 3278 3228 3278 2384 
Q 3278 1506 3087 986 
Q 2897 466 2520 194 
Q 2144 -78 1638 -78 
Q 1100 -78 759 220 
Q 419 519 350 1059 
z
M 2653 3081 
Q 2653 3566 2395 3850 
Q 2138 4134 1775 4134 
Q 1400 4134 1122 3828 
Q 844 3522 844 3034 
Q 844 2597 1108 2323 
Q 1372 2050 1759 2050 
Q 2150 2050 2401 2323 
Q 2653 2597 2653 3081 
z
" transform="scale(0.015625)"/>
       </defs>
       <use xlink:href="#ArialMT-34"/>
       <use xlink:href="#ArialMT-39" x="55.615234"/>
      </g>
     </g>
    </g>
    <g id="xtick_2">
     <g id="text_2">
      <!-- 17 -->
      <g style="fill: #444444" transform="translate(143.278632 229.840141)scale(0.09 -0.09)">
       <defs>
        <path id="ArialMT-31" d="M 2384 0 
L 1822 0 
L 1822 3584 
Q 1619 3391 1289 3197 
Q 959 3003 697 2906 
L 697 3450 
Q 1169 3672 1522 3987 
Q 1875 4303 2022 4600 
L 2384 4600 
L 2384 0 
z
" transform="scale(0.015625)"/>
        <path id="ArialMT-37" d="M 303 3981 
L 303 4522 
L 3269 4522 
L 3269 4084 
Q 2831 3619 2401 2847 
Q 1972 2075 1738 1259 
Q 1569 684 1522 0 
L 944 0 
Q 953 541 1156 1306 
Q 1359 2072 1739 2783 
Q 2119 3494 2547 3981 
L 303 3981 
z
" transform="scale(0.015625)"/>
       </defs>
       <use xlink:href="#ArialMT-31"/>
       <use xlink:href="#ArialMT-37" x="55.615234"/>
      </g>
     </g>
    </g>
    <g id="xtick_3">
     <g id="text_3">
      <!-- 69 -->
      <g style="fill: #444444" transform="translate(207.320949 229.840141)scale(0.09 -0.09)">
       <defs>
        <path id="ArialMT-36" d="M 3184 3459 
L 2625 3416 
Q 2550 3747 2413 3897 
Q 2184 4138 1850 4138 
Q 1581 4138 1378 3988 
Q 1113 3794 959 3422 
Q 806 3050 800 2363 
Q 1003 2672 1297 2822 
Q 1591 2972 1913 2972 
Q 2475 2972 2870 2558 
Q 3266 2144 3266 1488 
Q 3266 1056 3080 686 
Q 2894 316 2569 119 
Q 2244 -78 1831 -78 
Q 1128 -78 684 439 
Q 241 956 241 2144 
Q 241 3472 731 4075 
Q 1159 4600 1884 4600 
Q 2425 4600 2770 4297 
Q 3116 3994 3184 3459 
z
M 888 1484 
Q 888 1194 1011 928 
Q 1134 663 1356 523 
Q 1578 384 1822 384 
Q 2178 384 2434 671 
Q 2691 959 2691 1453 
Q 2691 1928 2437 2201 
Q 2184 2475 1800 2475 
Q 1419 2475 1153 2201 
Q 888 1928 888 1484 
z
" transform="scale(0.015625)"/>
       </defs>
       <use xlink:href="#ArialMT-36"/>
       <use xlink:href="#ArialMT-39" x="55.615234"/>
      </g>
     </g>
    </g>
    <g id="xtick_4">
     <g id="text_4">
      <!-- 15 -->
      <g style="fill: #444444" transform="translate(271.363266 229.840141)scale(0.09 -0.09)">
       <defs>
        <path id="ArialMT-35" d="M 266 1200 
L 856 1250 
Q 922 819 1161 601 
Q 1400 384 1738 384 
Q 2144 384 2425 690 
Q 2706 997 2706 1503 
Q 2706 1984 2436 2262 
Q 2166 2541 1728 2541 
Q 1456 2541 1237 2417 
Q 1019 2294 894 2097 
L 366 2166 
L 809 4519 
L 3088 4519 
L 3088 3981 
L 1259 3981 
L 1013 2750 
Q 1425 3038 1878 3038 
Q 2478 3038 2890 2622 
Q 3303 2206 3303 1553 
Q 3303 931 2941 478 
Q 2500 -78 1738 -78 
Q 1113 -78 717 272 
Q 322 622 266 1200 
z
" transform="scale(0.015625)"/>
       </defs>
       <use xlink:href="#ArialMT-31"/>
       <use xlink:href="#ArialMT-35" x="55.615234"/>
      </g>
     </g>
    </g>
    <g id="xtick_5">
     <g id="text_5">
      <!-- 5 -->
      <g style="fill: #444444" transform="translate(337.908006 229.840141)scale(0.09 -0.09)">
       <use xlink:href="#ArialMT-35"/>
      </g>
     </g>
    </g>
    <g id="xtick_6">
     <g id="text_6">
      <!-- 126 -->
      <g style="fill: #444444" transform="translate(396.945479 229.840141)scale(0.09 -0.09)">
       <defs>
        <path id="ArialMT-32" d="M 3222 541 
L 3222 0 
L 194 0 
Q 188 203 259 391 
Q 375 700 629 1000 
Q 884 1300 1366 1694 
Q 2113 2306 2375 2664 
Q 2638 3022 2638 3341 
Q 2638 3675 2398 3904 
Q 2159 4134 1775 4134 
Q 1369 4134 1125 3890 
Q 881 3647 878 3216 
L 300 3275 
Q 359 3922 746 4261 
Q 1134 4600 1788 4600 
Q 2447 4600 2831 4234 
Q 3216 3869 3216 3328 
Q 3216 3053 3103 2787 
Q 2991 2522 2730 2228 
Q 2469 1934 1863 1422 
Q 1356 997 1212 845 
Q 1069 694 975 541 
L 3222 541 
z
" transform="scale(0.015625)"/>
       </defs>
       <use xlink:href="#ArialMT-31"/>
       <use xlink:href="#ArialMT-32" x="55.615234"/>
       <use xlink:href="#ArialMT-36" x="111.230469"/>
      </g>
     </g>
    </g>
    <g id="xtick_7">
     <g id="text_7">
      <!-- 62 -->
      <g style="fill: #444444" transform="translate(463.490218 229.840141)scale(0.09 -0.09)">
       <use xlink:href="#ArialMT-36"/>
       <use xlink:href="#ArialMT-32" x="55.615234"/>
      </g>
     </g>
    </g>
    <g id="text_8">
     <!-- Patient -->
     <g style="fill: #444444" transform="translate(262.359048 242.070923)scale(0.09 -0.09)">
      <defs>
       <path id="ArialMT-50" d="M 494 0 
L 494 4581 
L 2222 4581 
Q 2678 4581 2919 4538 
Q 3256 4481 3484 4323 
Q 3713 4166 3852 3881 
Q 3991 3597 3991 3256 
Q 3991 2672 3619 2267 
Q 3247 1863 2275 1863 
L 1100 1863 
L 1100 0 
L 494 0 
z
M 1100 2403 
L 2284 2403 
Q 2872 2403 3119 2622 
Q 3366 2841 3366 3238 
Q 3366 3525 3220 3729 
Q 3075 3934 2838 4000 
Q 2684 4041 2272 4041 
L 1100 4041 
L 1100 2403 
z
" transform="scale(0.015625)"/>
       <path id="ArialMT-61" d="M 2588 409 
Q 2275 144 1986 34 
Q 1697 -75 1366 -75 
Q 819 -75 525 192 
Q 231 459 231 875 
Q 231 1119 342 1320 
Q 453 1522 633 1644 
Q 813 1766 1038 1828 
Q 1203 1872 1538 1913 
Q 2219 1994 2541 2106 
Q 2544 2222 2544 2253 
Q 2544 2597 2384 2738 
Q 2169 2928 1744 2928 
Q 1347 2928 1158 2789 
Q 969 2650 878 2297 
L 328 2372 
Q 403 2725 575 2942 
Q 747 3159 1072 3276 
Q 1397 3394 1825 3394 
Q 2250 3394 2515 3294 
Q 2781 3194 2906 3042 
Q 3031 2891 3081 2659 
Q 3109 2516 3109 2141 
L 3109 1391 
Q 3109 606 3145 398 
Q 3181 191 3288 0 
L 2700 0 
Q 2613 175 2588 409 
z
M 2541 1666 
Q 2234 1541 1622 1453 
Q 1275 1403 1131 1340 
Q 988 1278 909 1158 
Q 831 1038 831 891 
Q 831 666 1001 516 
Q 1172 366 1500 366 
Q 1825 366 2078 508 
Q 2331 650 2450 897 
Q 2541 1088 2541 1459 
L 2541 1666 
z
" transform="scale(0.015625)"/>
       <path id="ArialMT-74" d="M 1650 503 
L 1731 6 
Q 1494 -44 1306 -44 
Q 1000 -44 831 53 
Q 663 150 594 308 
Q 525 466 525 972 
L 525 2881 
L 113 2881 
L 113 3319 
L 525 3319 
L 525 4141 
L 1084 4478 
L 1084 3319 
L 1650 3319 
L 1650 2881 
L 1084 2881 
L 1084 941 
Q 1084 700 1114 631 
Q 1144 563 1211 522 
Q 1278 481 1403 481 
Q 1497 481 1650 503 
z
" transform="scale(0.015625)"/>
       <path id="ArialMT-69" d="M 425 3934 
L 425 4581 
L 988 4581 
L 988 3934 
L 425 3934 
z
M 425 0 
L 425 3319 
L 988 3319 
L 988 0 
L 425 0 
z
" transform="scale(0.015625)"/>
       <path id="ArialMT-65" d="M 2694 1069 
L 3275 997 
Q 3138 488 2766 206 
Q 2394 -75 1816 -75 
Q 1088 -75 661 373 
Q 234 822 234 1631 
Q 234 2469 665 2931 
Q 1097 3394 1784 3394 
Q 2450 3394 2872 2941 
Q 3294 2488 3294 1666 
Q 3294 1616 3291 1516 
L 816 1516 
Q 847 969 1125 678 
Q 1403 388 1819 388 
Q 2128 388 2347 550 
Q 2566 713 2694 1069 
z
M 847 1978 
L 2700 1978 
Q 2663 2397 2488 2606 
Q 2219 2931 1791 2931 
Q 1403 2931 1139 2672 
Q 875 2413 847 1978 
z
" transform="scale(0.015625)"/>
       <path id="ArialMT-6e" d="M 422 0 
L 422 3319 
L 928 3319 
L 928 2847 
Q 1294 3394 1984 3394 
Q 2284 3394 2536 3286 
Q 2788 3178 2913 3003 
Q 3038 2828 3088 2588 
Q 3119 2431 3119 2041 
L 3119 0 
L 2556 0 
L 2556 2019 
Q 2556 2363 2490 2533 
Q 2425 2703 2258 2804 
Q 2091 2906 1866 2906 
Q 1506 2906 1245 2678 
Q 984 2450 984 1813 
L 984 0 
L 422 0 
z
" transform="scale(0.015625)"/>
      </defs>
      <use xlink:href="#ArialMT-50"/>
      <use xlink:href="#ArialMT-61" x="66.699219"/>
      <use xlink:href="#ArialMT-74" x="122.314453"/>
      <use xlink:href="#ArialMT-69" x="150.097656"/>
      <use xlink:href="#ArialMT-65" x="172.314453"/>
      <use xlink:href="#ArialMT-6e" x="227.929688"/>
      <use xlink:href="#ArialMT-74" x="283.544922"/>
     </g>
    </g>
   </g>
   <g id="matplotlib.axis_2">
    <g id="ytick_1">
     <g id="text_9">
      <!-- 400 -->
      <g style="fill: #444444" transform="translate(27.705469 200.414391)scale(0.09 -0.09)">
       <defs>
        <path id="ArialMT-30" d="M 266 2259 
Q 266 3072 433 3567 
Q 600 4063 929 4331 
Q 1259 4600 1759 4600 
Q 2128 4600 2406 4451 
Q 2684 4303 2865 4023 
Q 3047 3744 3150 3342 
Q 3253 2941 3253 2259 
Q 3253 1453 3087 958 
Q 2922 463 2592 192 
Q 2263 -78 1759 -78 
Q 1097 -78 719 397 
Q 266 969 266 2259 
z
M 844 2259 
Q 844 1131 1108 757 
Q 1372 384 1759 384 
Q 2147 384 2411 759 
Q 2675 1134 2675 2259 
Q 2675 3391 2411 3762 
Q 2147 4134 1753 4134 
Q 1366 4134 1134 3806 
Q 844 3388 844 2259 
z
" transform="scale(0.015625)"/>
       </defs>
       <use xlink:href="#ArialMT-34"/>
       <use xlink:href="#ArialMT-30" x="55.615234"/>
       <use xlink:href="#ArialMT-30" x="111.230469"/>
      </g>
     </g>
    </g>
    <g id="ytick_2">
     <g id="text_10">
      <!-- 600 -->
      <g style="fill: #444444" transform="translate(27.705469 178.688364)scale(0.09 -0.09)">
       <use xlink:href="#ArialMT-36"/>
       <use xlink:href="#ArialMT-30" x="55.615234"/>
       <use xlink:href="#ArialMT-30" x="111.230469"/>
      </g>
     </g>
    </g>
    <g id="ytick_3">
     <g id="text_11">
      <!-- 800 -->
      <g style="fill: #444444" transform="translate(27.705469 156.962337)scale(0.09 -0.09)">
       <defs>
        <path id="ArialMT-38" d="M 1131 2484 
Q 781 2613 612 2850 
Q 444 3088 444 3419 
Q 444 3919 803 4259 
Q 1163 4600 1759 4600 
Q 2359 4600 2725 4251 
Q 3091 3903 3091 3403 
Q 3091 3084 2923 2848 
Q 2756 2613 2416 2484 
Q 2838 2347 3058 2040 
Q 3278 1734 3278 1309 
Q 3278 722 2862 322 
Q 2447 -78 1769 -78 
Q 1091 -78 675 323 
Q 259 725 259 1325 
Q 259 1772 486 2073 
Q 713 2375 1131 2484 
z
M 1019 3438 
Q 1019 3113 1228 2906 
Q 1438 2700 1772 2700 
Q 2097 2700 2305 2904 
Q 2513 3109 2513 3406 
Q 2513 3716 2298 3927 
Q 2084 4138 1766 4138 
Q 1444 4138 1231 3931 
Q 1019 3725 1019 3438 
z
M 838 1322 
Q 838 1081 952 856 
Q 1066 631 1291 507 
Q 1516 384 1775 384 
Q 2178 384 2440 643 
Q 2703 903 2703 1303 
Q 2703 1709 2433 1975 
Q 2163 2241 1756 2241 
Q 1359 2241 1098 1978 
Q 838 1716 838 1322 
z
" transform="scale(0.015625)"/>
       </defs>
       <use xlink:href="#ArialMT-38"/>
       <use xlink:href="#ArialMT-30" x="55.615234"/>
       <use xlink:href="#ArialMT-30" x="111.230469"/>
      </g>
     </g>
    </g>
    <g id="ytick_4">
     <g id="text_12">
      <!-- 1000 -->
      <g style="fill: #444444" transform="translate(22.700625 135.236311)scale(0.09 -0.09)">
       <use xlink:href="#ArialMT-31"/>
       <use xlink:href="#ArialMT-30" x="55.615234"/>
       <use xlink:href="#ArialMT-30" x="111.230469"/>
       <use xlink:href="#ArialMT-30" x="166.845703"/>
      </g>
     </g>
    </g>
    <g id="ytick_5">
     <g id="text_13">
      <!-- 1200 -->
      <g style="fill: #444444" transform="translate(22.700625 113.510284)scale(0.09 -0.09)">
       <use xlink:href="#ArialMT-31"/>
       <use xlink:href="#ArialMT-32" x="55.615234"/>
       <use xlink:href="#ArialMT-30" x="111.230469"/>
       <use xlink:href="#ArialMT-30" x="166.845703"/>
      </g>
     </g>
    </g>
    <g id="ytick_6">
     <g id="text_14">
      <!-- 1400 -->
      <g style="fill: #444444" transform="translate(22.700625 91.784257)scale(0.09 -0.09)">
       <use xlink:href="#ArialMT-31"/>
       <use xlink:href="#ArialMT-34" x="55.615234"/>
       <use xlink:href="#ArialMT-30" x="111.230469"/>
       <use xlink:href="#ArialMT-30" x="166.845703"/>
      </g>
     </g>
    </g>
    <g id="ytick_7">
     <g id="text_15">
      <!-- 1600 -->
      <g style="fill: #444444" transform="translate(22.700625 70.05823)scale(0.09 -0.09)">
       <use xlink:href="#ArialMT-31"/>
       <use xlink:href="#ArialMT-36" x="55.615234"/>
       <use xlink:href="#ArialMT-30" x="111.230469"/>
       <use xlink:href="#ArialMT-30" x="166.845703"/>
      </g>
     </g>
    </g>
    <g id="ytick_8">
     <g id="text_16">
      <!-- 1800 -->
      <g style="fill: #444444" transform="translate(22.700625 48.332203)scale(0.09 -0.09)">
       <use xlink:href="#ArialMT-31"/>
       <use xlink:href="#ArialMT-38" x="55.615234"/>
       <use xlink:href="#ArialMT-30" x="111.230469"/>
       <use xlink:href="#ArialMT-30" x="166.845703"/>
      </g>
     </g>
    </g>
    <g id="text_17">
     <!-- Trimmed Means of M values (TMM) -->
     <g style="fill: #444444" transform="translate(16.806406 190.194993)rotate(-90)scale(0.09 -0.09)">
      <defs>
       <path id="ArialMT-54" d="M 1659 0 
L 1659 4041 
L 150 4041 
L 150 4581 
L 3781 4581 
L 3781 4041 
L 2266 4041 
L 2266 0 
L 1659 0 
z
" transform="scale(0.015625)"/>
       <path id="ArialMT-72" d="M 416 0 
L 416 3319 
L 922 3319 
L 922 2816 
Q 1116 3169 1280 3281 
Q 1444 3394 1641 3394 
Q 1925 3394 2219 3213 
L 2025 2691 
Q 1819 2813 1613 2813 
Q 1428 2813 1281 2702 
Q 1134 2591 1072 2394 
Q 978 2094 978 1738 
L 978 0 
L 416 0 
z
" transform="scale(0.015625)"/>
       <path id="ArialMT-6d" d="M 422 0 
L 422 3319 
L 925 3319 
L 925 2853 
Q 1081 3097 1340 3245 
Q 1600 3394 1931 3394 
Q 2300 3394 2536 3241 
Q 2772 3088 2869 2813 
Q 3263 3394 3894 3394 
Q 4388 3394 4653 3120 
Q 4919 2847 4919 2278 
L 4919 0 
L 4359 0 
L 4359 2091 
Q 4359 2428 4304 2576 
Q 4250 2725 4106 2815 
Q 3963 2906 3769 2906 
Q 3419 2906 3187 2673 
Q 2956 2441 2956 1928 
L 2956 0 
L 2394 0 
L 2394 2156 
Q 2394 2531 2256 2718 
Q 2119 2906 1806 2906 
Q 1569 2906 1367 2781 
Q 1166 2656 1075 2415 
Q 984 2175 984 1722 
L 984 0 
L 422 0 
z
" transform="scale(0.015625)"/>
       <path id="ArialMT-64" d="M 2575 0 
L 2575 419 
Q 2259 -75 1647 -75 
Q 1250 -75 917 144 
Q 584 363 401 755 
Q 219 1147 219 1656 
Q 219 2153 384 2558 
Q 550 2963 881 3178 
Q 1213 3394 1622 3394 
Q 1922 3394 2156 3267 
Q 2391 3141 2538 2938 
L 2538 4581 
L 3097 4581 
L 3097 0 
L 2575 0 
z
M 797 1656 
Q 797 1019 1065 703 
Q 1334 388 1700 388 
Q 2069 388 2326 689 
Q 2584 991 2584 1609 
Q 2584 2291 2321 2609 
Q 2059 2928 1675 2928 
Q 1300 2928 1048 2622 
Q 797 2316 797 1656 
z
" transform="scale(0.015625)"/>
       <path id="ArialMT-20" transform="scale(0.015625)"/>
       <path id="ArialMT-4d" d="M 475 0 
L 475 4581 
L 1388 4581 
L 2472 1338 
Q 2622 884 2691 659 
Q 2769 909 2934 1394 
L 4031 4581 
L 4847 4581 
L 4847 0 
L 4263 0 
L 4263 3834 
L 2931 0 
L 2384 0 
L 1059 3900 
L 1059 0 
L 475 0 
z
" transform="scale(0.015625)"/>
       <path id="ArialMT-73" d="M 197 991 
L 753 1078 
Q 800 744 1014 566 
Q 1228 388 1613 388 
Q 2000 388 2187 545 
Q 2375 703 2375 916 
Q 2375 1106 2209 1216 
Q 2094 1291 1634 1406 
Q 1016 1563 777 1677 
Q 538 1791 414 1992 
Q 291 2194 291 2438 
Q 291 2659 392 2848 
Q 494 3038 669 3163 
Q 800 3259 1026 3326 
Q 1253 3394 1513 3394 
Q 1903 3394 2198 3281 
Q 2494 3169 2634 2976 
Q 2775 2784 2828 2463 
L 2278 2388 
Q 2241 2644 2061 2787 
Q 1881 2931 1553 2931 
Q 1166 2931 1000 2803 
Q 834 2675 834 2503 
Q 834 2394 903 2306 
Q 972 2216 1119 2156 
Q 1203 2125 1616 2013 
Q 2213 1853 2448 1751 
Q 2684 1650 2818 1456 
Q 2953 1263 2953 975 
Q 2953 694 2789 445 
Q 2625 197 2315 61 
Q 2006 -75 1616 -75 
Q 969 -75 630 194 
Q 291 463 197 991 
z
" transform="scale(0.015625)"/>
       <path id="ArialMT-6f" d="M 213 1659 
Q 213 2581 725 3025 
Q 1153 3394 1769 3394 
Q 2453 3394 2887 2945 
Q 3322 2497 3322 1706 
Q 3322 1066 3130 698 
Q 2938 331 2570 128 
Q 2203 -75 1769 -75 
Q 1072 -75 642 372 
Q 213 819 213 1659 
z
M 791 1659 
Q 791 1022 1069 705 
Q 1347 388 1769 388 
Q 2188 388 2466 706 
Q 2744 1025 2744 1678 
Q 2744 2294 2464 2611 
Q 2184 2928 1769 2928 
Q 1347 2928 1069 2612 
Q 791 2297 791 1659 
z
" transform="scale(0.015625)"/>
       <path id="ArialMT-66" d="M 556 0 
L 556 2881 
L 59 2881 
L 59 3319 
L 556 3319 
L 556 3672 
Q 556 4006 616 4169 
Q 697 4388 901 4523 
Q 1106 4659 1475 4659 
Q 1713 4659 2000 4603 
L 1916 4113 
Q 1741 4144 1584 4144 
Q 1328 4144 1222 4034 
Q 1116 3925 1116 3625 
L 1116 3319 
L 1763 3319 
L 1763 2881 
L 1116 2881 
L 1116 0 
L 556 0 
z
" transform="scale(0.015625)"/>
       <path id="ArialMT-76" d="M 1344 0 
L 81 3319 
L 675 3319 
L 1388 1331 
Q 1503 1009 1600 663 
Q 1675 925 1809 1294 
L 2547 3319 
L 3125 3319 
L 1869 0 
L 1344 0 
z
" transform="scale(0.015625)"/>
       <path id="ArialMT-6c" d="M 409 0 
L 409 4581 
L 972 4581 
L 972 0 
L 409 0 
z
" transform="scale(0.015625)"/>
       <path id="ArialMT-75" d="M 2597 0 
L 2597 488 
Q 2209 -75 1544 -75 
Q 1250 -75 995 37 
Q 741 150 617 320 
Q 494 491 444 738 
Q 409 903 409 1263 
L 409 3319 
L 972 3319 
L 972 1478 
Q 972 1038 1006 884 
Q 1059 663 1231 536 
Q 1403 409 1656 409 
Q 1909 409 2131 539 
Q 2353 669 2445 892 
Q 2538 1116 2538 1541 
L 2538 3319 
L 3100 3319 
L 3100 0 
L 2597 0 
z
" transform="scale(0.015625)"/>
       <path id="ArialMT-28" d="M 1497 -1347 
Q 1031 -759 709 28 
Q 388 816 388 1659 
Q 388 2403 628 3084 
Q 909 3875 1497 4659 
L 1900 4659 
Q 1522 4009 1400 3731 
Q 1209 3300 1100 2831 
Q 966 2247 966 1656 
Q 966 153 1900 -1347 
L 1497 -1347 
z
" transform="scale(0.015625)"/>
       <path id="ArialMT-29" d="M 791 -1347 
L 388 -1347 
Q 1322 153 1322 1656 
Q 1322 2244 1188 2822 
Q 1081 3291 891 3722 
Q 769 4003 388 4659 
L 791 4659 
Q 1378 3875 1659 3084 
Q 1900 2403 1900 1659 
Q 1900 816 1576 28 
Q 1253 -759 791 -1347 
z
" transform="scale(0.015625)"/>
      </defs>
      <use xlink:href="#ArialMT-54"/>
      <use xlink:href="#ArialMT-72" x="57.333984"/>
      <use xlink:href="#ArialMT-69" x="90.634766"/>
      <use xlink:href="#ArialMT-6d" x="112.851562"/>
      <use xlink:href="#ArialMT-6d" x="196.152344"/>
      <use xlink:href="#ArialMT-65" x="279.453125"/>
      <use xlink:href="#ArialMT-64" x="335.068359"/>
      <use xlink:href="#ArialMT-20" x="390.683594"/>
      <use xlink:href="#ArialMT-4d" x="418.466797"/>
      <use xlink:href="#ArialMT-65" x="501.767578"/>
      <use xlink:href="#ArialMT-61" x="557.382812"/>
      <use xlink:href="#ArialMT-6e" x="612.998047"/>
      <use xlink:href="#ArialMT-73" x="668.613281"/>
      <use xlink:href="#ArialMT-20" x="718.613281"/>
      <use xlink:href="#ArialMT-6f" x="746.396484"/>
      <use xlink:href="#ArialMT-66" x="802.011719"/>
      <use xlink:href="#ArialMT-20" x="829.794922"/>
      <use xlink:href="#ArialMT-4d" x="857.578125"/>
      <use xlink:href="#ArialMT-20" x="940.878906"/>
      <use xlink:href="#ArialMT-76" x="968.662109"/>
      <use xlink:href="#ArialMT-61" x="1018.662109"/>
      <use xlink:href="#ArialMT-6c" x="1074.277344"/>
      <use xlink:href="#ArialMT-75" x="1096.494141"/>
      <use xlink:href="#ArialMT-65" x="1152.109375"/>
      <use xlink:href="#ArialMT-73" x="1207.724609"/>
      <use xlink:href="#ArialMT-20" x="1257.724609"/>
      <use xlink:href="#ArialMT-28" x="1285.507812"/>
      <use xlink:href="#ArialMT-54" x="1318.808594"/>
      <use xlink:href="#ArialMT-4d" x="1379.892578"/>
      <use xlink:href="#ArialMT-4d" x="1463.193359"/>
      <use xlink:href="#ArialMT-29" x="1546.494141"/>
     </g>
    </g>
   </g>
   <g id="PolyCollection_1">
    <defs>
     <path id="me8af4178cd" d="M 93.684892 -65.548948 
L 74.797425 -65.548948 
L 74.515144 -65.833765 
L 74.239629 -66.118583 
L 73.971769 -66.4034 
L 73.712424 -66.688217 
L 73.46242 -66.973035 
L 73.222546 -67.257852 
L 72.993545 -67.54267 
L 72.776111 -67.827487 
L 72.570884 -68.112304 
L 72.378447 -68.397122 
L 72.199318 -68.681939 
L 72.033951 -68.966757 
L 71.882734 -69.251574 
L 71.745983 -69.536392 
L 71.623944 -69.821209 
L 71.516793 -70.106026 
L 71.424632 -70.390844 
L 71.347496 -70.675661 
L 71.28535 -70.960479 
L 71.238091 -71.245296 
L 71.205555 -71.530113 
L 71.187515 -71.814931 
L 71.18369 -72.099748 
L 71.193746 -72.384566 
L 71.217302 -72.669383 
L 71.253934 -72.9542 
L 71.303184 -73.239018 
L 71.36456 -73.523835 
L 71.437545 -73.808653 
L 71.521603 -74.09347 
L 71.616184 -74.378287 
L 71.720726 -74.663105 
L 71.834666 -74.947922 
L 71.957438 -75.23274 
L 72.088484 -75.517557 
L 72.227252 -75.802374 
L 72.373202 -76.087192 
L 72.525811 -76.372009 
L 72.684567 -76.656827 
L 72.848982 -76.941644 
L 73.018582 -77.226461 
L 73.192916 -77.511279 
L 73.37155 -77.796096 
L 73.554069 -78.080914 
L 73.740074 -78.365731 
L 73.929184 -78.650549 
L 74.121031 -78.935366 
L 74.315257 -79.220183 
L 74.511516 -79.505001 
L 74.709469 -79.789818 
L 74.908779 -80.074636 
L 75.109115 -80.359453 
L 75.310144 -80.64427 
L 75.511533 -80.929088 
L 75.712946 -81.213905 
L 75.914042 -81.498723 
L 76.114475 -81.78354 
L 76.313897 -82.068357 
L 76.511951 -82.353175 
L 76.708279 -82.637992 
L 76.90252 -82.92281 
L 77.09431 -83.207627 
L 77.283287 -83.492444 
L 77.469094 -83.777262 
L 77.65138 -84.062079 
L 77.829804 -84.346897 
L 78.004037 -84.631714 
L 78.173769 -84.916531 
L 78.338711 -85.201349 
L 78.498598 -85.486166 
L 78.653193 -85.770984 
L 78.802292 -86.055801 
L 78.945726 -86.340618 
L 79.083361 -86.625436 
L 79.215108 -86.910253 
L 79.340916 -87.195071 
L 79.46078 -87.479888 
L 79.574739 -87.764705 
L 79.682878 -88.049523 
L 79.785324 -88.33434 
L 79.882248 -88.619158 
L 79.973865 -88.903975 
L 80.060426 -89.188793 
L 80.142221 -89.47361 
L 80.219572 -89.758427 
L 80.292831 -90.043245 
L 80.362375 -90.328062 
L 80.4286 -90.61288 
L 80.49192 -90.897697 
L 80.552757 -91.182514 
L 80.611539 -91.467332 
L 80.668693 -91.752149 
L 80.724643 -92.036967 
L 80.779799 -92.321784 
L 80.834558 -92.606601 
L 80.889296 -92.891419 
L 80.944367 -93.176236 
L 81.000093 -93.461054 
L 81.056769 -93.745871 
L 87.425549 -93.745871 
L 87.425549 -93.745871 
L 87.482224 -93.461054 
L 87.537951 -93.176236 
L 87.593021 -92.891419 
L 87.647759 -92.606601 
L 87.702518 -92.321784 
L 87.757674 -92.036967 
L 87.813624 -91.752149 
L 87.870778 -91.467332 
L 87.92956 -91.182514 
L 87.990397 -90.897697 
L 88.053717 -90.61288 
L 88.119943 -90.328062 
L 88.189486 -90.043245 
L 88.262746 -89.758427 
L 88.340097 -89.47361 
L 88.421892 -89.188793 
L 88.508453 -88.903975 
L 88.600069 -88.619158 
L 88.696994 -88.33434 
L 88.799439 -88.049523 
L 88.907578 -87.764705 
L 89.021537 -87.479888 
L 89.141402 -87.195071 
L 89.26721 -86.910253 
L 89.398956 -86.625436 
L 89.536592 -86.340618 
L 89.680025 -86.055801 
L 89.829124 -85.770984 
L 89.983719 -85.486166 
L 90.143606 -85.201349 
L 90.308548 -84.916531 
L 90.478281 -84.631714 
L 90.652514 -84.346897 
L 90.830937 -84.062079 
L 91.013223 -83.777262 
L 91.19903 -83.492444 
L 91.388008 -83.207627 
L 91.579798 -82.92281 
L 91.774038 -82.637992 
L 91.970366 -82.353175 
L 92.16842 -82.068357 
L 92.367842 -81.78354 
L 92.568276 -81.498723 
L 92.769371 -81.213905 
L 92.970784 -80.929088 
L 93.172173 -80.64427 
L 93.373202 -80.359453 
L 93.573538 -80.074636 
L 93.772848 -79.789818 
L 93.970801 -79.505001 
L 94.16706 -79.220183 
L 94.361287 -78.935366 
L 94.553133 -78.650549 
L 94.742243 -78.365731 
L 94.928249 -78.080914 
L 95.110767 -77.796096 
L 95.289401 -77.511279 
L 95.463735 -77.226461 
L 95.633335 -76.941644 
L 95.79775 -76.656827 
L 95.956507 -76.372009 
L 96.109115 -76.087192 
L 96.255065 -75.802374 
L 96.393833 -75.517557 
L 96.524879 -75.23274 
L 96.647652 -74.947922 
L 96.761591 -74.663105 
L 96.866133 -74.378287 
L 96.960714 -74.09347 
L 97.044772 -73.808653 
L 97.117757 -73.523835 
L 97.179133 -73.239018 
L 97.228383 -72.9542 
L 97.265015 -72.669383 
L 97.288571 -72.384566 
L 97.298627 -72.099748 
L 97.294802 -71.814931 
L 97.276762 -71.530113 
L 97.244226 -71.245296 
L 97.196967 -70.960479 
L 97.134821 -70.675661 
L 97.057685 -70.390844 
L 96.965524 -70.106026 
L 96.858373 -69.821209 
L 96.736334 -69.536392 
L 96.599583 -69.251574 
L 96.448366 -68.966757 
L 96.283 -68.681939 
L 96.10387 -68.397122 
L 95.911433 -68.112304 
L 95.706206 -67.827487 
L 95.488773 -67.54267 
L 95.259772 -67.257852 
L 95.019897 -66.973035 
L 94.769893 -66.688217 
L 94.510548 -66.4034 
L 94.242688 -66.118583 
L 93.967174 -65.833765 
L 93.684892 -65.548948 
z
" style="stroke: #999999; stroke-width: 2"/>
    </defs>
    <g clip-path="url(#pbe70e3ed50)">
     <use xlink:href="#me8af4178cd" x="0" y="255.11811" style="fill: #ffffff; stroke: #999999; stroke-width: 2"/>
    </g>
   </g>
   <g id="PolyCollection_2">
    <defs>
     <path id="md7f9164ee9" d="M 153.246744 -172.924942 
L 143.320208 -172.924942 
L 143.193736 -173.422477 
L 143.070086 -173.920012 
L 142.949516 -174.417547 
L 142.832276 -174.915082 
L 142.718608 -175.412618 
L 142.608743 -175.910153 
L 142.502901 -176.407688 
L 142.401295 -176.905223 
L 142.304124 -177.402758 
L 142.211576 -177.900293 
L 142.12383 -178.397829 
L 142.041051 -178.895364 
L 141.963392 -179.392899 
L 141.890995 -179.890434 
L 141.823989 -180.387969 
L 141.762489 -180.885504 
L 141.706598 -181.38304 
L 141.656404 -181.880575 
L 141.61198 -182.37811 
L 141.573389 -182.875645 
L 141.540673 -183.37318 
L 141.513864 -183.870715 
L 141.492976 -184.368251 
L 141.478007 -184.865786 
L 141.468941 -185.363321 
L 141.465744 -185.860856 
L 141.468365 -186.358391 
L 141.47674 -186.855927 
L 141.490785 -187.353462 
L 141.510403 -187.850997 
L 141.535478 -188.348532 
L 141.56588 -188.846067 
L 141.601465 -189.343602 
L 141.642073 -189.841138 
L 141.68753 -190.338673 
L 141.73765 -190.836208 
L 141.792234 -191.333743 
L 141.851072 -191.831278 
L 141.913943 -192.328813 
L 141.98062 -192.826349 
L 142.050863 -193.323884 
L 142.124431 -193.821419 
L 142.201075 -194.318954 
L 142.28054 -194.816489 
L 142.362572 -195.314024 
L 142.446913 -195.81156 
L 142.533307 -196.309095 
L 142.621497 -196.80663 
L 142.71123 -197.304165 
L 142.802254 -197.8017 
L 142.894324 -198.299235 
L 142.9872 -198.796771 
L 143.080649 -199.294306 
L 143.174442 -199.791841 
L 143.268363 -200.289376 
L 143.362202 -200.786911 
L 143.45576 -201.284446 
L 143.548846 -201.781982 
L 143.641283 -202.279517 
L 143.732901 -202.777052 
L 143.823545 -203.274587 
L 143.913071 -203.772122 
L 144.001346 -204.269657 
L 144.088251 -204.767193 
L 144.173677 -205.264728 
L 144.25753 -205.762263 
L 144.339729 -206.259798 
L 144.420203 -206.757333 
L 144.498898 -207.254868 
L 144.575768 -207.752404 
L 144.650785 -208.249939 
L 144.723929 -208.747474 
L 144.795196 -209.245009 
L 144.864593 -209.742544 
L 144.932137 -210.240079 
L 144.997861 -210.737615 
L 145.061806 -211.23515 
L 145.124025 -211.732685 
L 145.18458 -212.23022 
L 145.243546 -212.727755 
L 145.301003 -213.22529 
L 145.357041 -213.722826 
L 145.411758 -214.220361 
L 145.465257 -214.717896 
L 145.517647 -215.215431 
L 145.569041 -215.712966 
L 145.619556 -216.210501 
L 145.669308 -216.708037 
L 145.718418 -217.205572 
L 145.767003 -217.703107 
L 145.815181 -218.200642 
L 145.863063 -218.698177 
L 145.91076 -219.195712 
L 145.958376 -219.693248 
L 146.006007 -220.190783 
L 146.053742 -220.688318 
L 146.101663 -221.185853 
L 146.149841 -221.683388 
L 146.198337 -222.180923 
L 150.368614 -222.180923 
L 150.368614 -222.180923 
L 150.41711 -221.683388 
L 150.465288 -221.185853 
L 150.513209 -220.688318 
L 150.560945 -220.190783 
L 150.608576 -219.693248 
L 150.656191 -219.195712 
L 150.703888 -218.698177 
L 150.751771 -218.200642 
L 150.799948 -217.703107 
L 150.848534 -217.205572 
L 150.897643 -216.708037 
L 150.947396 -216.210501 
L 150.99791 -215.712966 
L 151.049304 -215.215431 
L 151.101694 -214.717896 
L 151.155193 -214.220361 
L 151.20991 -213.722826 
L 151.265949 -213.22529 
L 151.323406 -212.727755 
L 151.382371 -212.23022 
L 151.442927 -211.732685 
L 151.505146 -211.23515 
L 151.569091 -210.737615 
L 151.634814 -210.240079 
L 151.702359 -209.742544 
L 151.771755 -209.245009 
L 151.843022 -208.747474 
L 151.916167 -208.249939 
L 151.991183 -207.752404 
L 152.068054 -207.254868 
L 152.146748 -206.757333 
L 152.227223 -206.259798 
L 152.309421 -205.762263 
L 152.393275 -205.264728 
L 152.478701 -204.767193 
L 152.565605 -204.269657 
L 152.65388 -203.772122 
L 152.743406 -203.274587 
L 152.834051 -202.777052 
L 152.925669 -202.279517 
L 153.018105 -201.781982 
L 153.111192 -201.284446 
L 153.204749 -200.786911 
L 153.298588 -200.289376 
L 153.392509 -199.791841 
L 153.486303 -199.294306 
L 153.579751 -198.796771 
L 153.672627 -198.299235 
L 153.764698 -197.8017 
L 153.855722 -197.304165 
L 153.945454 -196.80663 
L 154.033644 -196.309095 
L 154.120038 -195.81156 
L 154.20438 -195.314024 
L 154.286412 -194.816489 
L 154.365877 -194.318954 
L 154.44252 -193.821419 
L 154.516088 -193.323884 
L 154.586332 -192.826349 
L 154.653008 -192.328813 
L 154.71588 -191.831278 
L 154.774718 -191.333743 
L 154.829301 -190.836208 
L 154.879421 -190.338673 
L 154.924878 -189.841138 
L 154.965486 -189.343602 
L 155.001071 -188.846067 
L 155.031474 -188.348532 
L 155.056549 -187.850997 
L 155.076166 -187.353462 
L 155.090212 -186.855927 
L 155.098586 -186.358391 
L 155.101208 -185.860856 
L 155.098011 -185.363321 
L 155.088944 -184.865786 
L 155.073976 -184.368251 
L 155.053088 -183.870715 
L 155.026279 -183.37318 
L 154.993563 -182.875645 
L 154.954971 -182.37811 
L 154.910548 -181.880575 
L 154.860354 -181.38304 
L 154.804462 -180.885504 
L 154.742962 -180.387969 
L 154.675956 -179.890434 
L 154.60356 -179.392899 
L 154.525901 -178.895364 
L 154.443122 -178.397829 
L 154.355376 -177.900293 
L 154.262828 -177.402758 
L 154.165656 -176.905223 
L 154.06405 -176.407688 
L 153.958209 -175.910153 
L 153.848344 -175.412618 
L 153.734676 -174.915082 
L 153.617436 -174.417547 
L 153.496866 -173.920012 
L 153.373216 -173.422477 
L 153.246744 -172.924942 
z
" style="stroke: #999999; stroke-width: 2"/>
    </defs>
    <g clip-path="url(#pbe70e3ed50)">
     <use xlink:href="#md7f9164ee9" x="0" y="255.11811" style="fill: #ffffff; stroke: #999999; stroke-width: 2"/>
    </g>
   </g>
   <g id="PolyCollection_3">
    <defs>
     <path id="mf5cecba24b" d="M 229.6608 -57.104885 
L 194.990787 -57.104885 
L 194.470001 -57.239595 
L 193.954908 -57.374306 
L 193.446845 -57.509016 
L 192.94717 -57.643726 
L 192.457257 -57.778437 
L 191.978494 -57.913147 
L 191.51227 -58.047858 
L 191.05998 -58.182568 
L 190.623008 -58.317278 
L 190.202728 -58.451989 
L 189.800496 -58.586699 
L 189.417641 -58.72141 
L 189.055456 -58.85612 
L 188.715198 -58.99083 
L 188.398071 -59.125541 
L 188.105226 -59.260251 
L 187.837745 -59.394962 
L 187.596643 -59.529672 
L 187.38285 -59.664382 
L 187.19721 -59.799093 
L 187.040471 -59.933803 
L 186.913278 -60.068514 
L 186.816164 -60.203224 
L 186.749549 -60.337934 
L 186.713727 -60.472645 
L 186.708866 -60.607355 
L 186.735001 -60.742066 
L 186.792032 -60.876776 
L 186.879718 -61.011487 
L 186.997677 -61.146197 
L 187.145387 -61.280907 
L 187.322181 -61.415618 
L 187.527253 -61.550328 
L 187.759659 -61.685039 
L 188.018318 -61.819749 
L 188.302018 -61.954459 
L 188.609425 -62.08917 
L 188.939083 -62.22388 
L 189.28943 -62.358591 
L 189.658798 -62.493301 
L 190.045432 -62.628011 
L 190.447493 -62.762722 
L 190.863077 -62.897432 
L 191.290219 -63.032143 
L 191.726914 -63.166853 
L 192.171125 -63.301563 
L 192.620801 -63.436274 
L 193.073887 -63.570984 
L 193.52834 -63.705695 
L 193.982147 -63.840405 
L 194.433332 -63.975115 
L 194.879976 -64.109826 
L 195.320226 -64.244536 
L 195.752313 -64.379247 
L 196.174559 -64.513957 
L 196.585392 -64.648668 
L 196.983354 -64.783378 
L 197.367113 -64.918088 
L 197.735473 -65.052799 
L 198.087374 -65.187509 
L 198.421909 -65.32222 
L 198.73832 -65.45693 
L 199.036005 -65.59164 
L 199.314522 -65.726351 
L 199.573586 -65.861061 
L 199.813073 -65.995772 
L 200.033015 -66.130482 
L 200.233598 -66.265192 
L 200.415157 -66.399903 
L 200.578173 -66.534613 
L 200.723263 -66.669324 
L 200.851174 -66.804034 
L 200.962774 -66.938744 
L 201.05904 -67.073455 
L 201.141054 -67.208165 
L 201.209981 -67.342876 
L 201.26707 -67.477586 
L 201.313629 -67.612296 
L 201.351023 -67.747007 
L 201.380654 -67.881717 
L 201.403951 -68.016428 
L 201.422355 -68.151138 
L 201.437311 -68.285849 
L 201.450249 -68.420559 
L 201.462576 -68.555269 
L 201.475662 -68.68998 
L 201.490831 -68.82469 
L 201.509349 -68.959401 
L 201.532415 -69.094111 
L 201.561151 -69.228821 
L 201.596596 -69.363532 
L 201.639696 -69.498242 
L 201.691304 -69.632953 
L 201.752167 -69.767663 
L 201.822929 -69.902373 
L 201.904123 -70.037084 
L 201.996176 -70.171794 
L 202.099402 -70.306505 
L 202.214005 -70.441215 
L 222.437581 -70.441215 
L 222.437581 -70.441215 
L 222.552184 -70.306505 
L 222.65541 -70.171794 
L 222.747463 -70.037084 
L 222.828658 -69.902373 
L 222.899419 -69.767663 
L 222.960282 -69.632953 
L 223.01189 -69.498242 
L 223.05499 -69.363532 
L 223.090435 -69.228821 
L 223.119171 -69.094111 
L 223.142237 -68.959401 
L 223.160755 -68.82469 
L 223.175924 -68.68998 
L 223.18901 -68.555269 
L 223.201337 -68.420559 
L 223.214275 -68.285849 
L 223.229231 -68.151138 
L 223.247635 -68.016428 
L 223.270932 -67.881717 
L 223.300563 -67.747007 
L 223.337957 -67.612296 
L 223.384516 -67.477586 
L 223.441605 -67.342876 
L 223.510533 -67.208165 
L 223.592546 -67.073455 
L 223.688812 -66.938744 
L 223.800412 -66.804034 
L 223.928323 -66.669324 
L 224.073413 -66.534613 
L 224.236429 -66.399903 
L 224.417988 -66.265192 
L 224.618571 -66.130482 
L 224.838513 -65.995772 
L 225.078 -65.861061 
L 225.337064 -65.726351 
L 225.615581 -65.59164 
L 225.913266 -65.45693 
L 226.229677 -65.32222 
L 226.564212 -65.187509 
L 226.916113 -65.052799 
L 227.284473 -64.918088 
L 227.668232 -64.783378 
L 228.066194 -64.648668 
L 228.477027 -64.513957 
L 228.899273 -64.379247 
L 229.33136 -64.244536 
L 229.77161 -64.109826 
L 230.218254 -63.975115 
L 230.669439 -63.840405 
L 231.123246 -63.705695 
L 231.5777 -63.570984 
L 232.030785 -63.436274 
L 232.480461 -63.301563 
L 232.924672 -63.166853 
L 233.361367 -63.032143 
L 233.788509 -62.897432 
L 234.204093 -62.762722 
L 234.606154 -62.628011 
L 234.992788 -62.493301 
L 235.362156 -62.358591 
L 235.712503 -62.22388 
L 236.042161 -62.08917 
L 236.349568 -61.954459 
L 236.633268 -61.819749 
L 236.891927 -61.685039 
L 237.124333 -61.550328 
L 237.329405 -61.415618 
L 237.5062 -61.280907 
L 237.653909 -61.146197 
L 237.771868 -61.011487 
L 237.859554 -60.876776 
L 237.916585 -60.742066 
L 237.94272 -60.607355 
L 237.937859 -60.472645 
L 237.902037 -60.337934 
L 237.835422 -60.203224 
L 237.738308 -60.068514 
L 237.611115 -59.933803 
L 237.454376 -59.799093 
L 237.268736 -59.664382 
L 237.054943 -59.529672 
L 236.813841 -59.394962 
L 236.54636 -59.260251 
L 236.253515 -59.125541 
L 235.936388 -58.99083 
L 235.59613 -58.85612 
L 235.233945 -58.72141 
L 234.85109 -58.586699 
L 234.448858 -58.451989 
L 234.028578 -58.317278 
L 233.591606 -58.182568 
L 233.139316 -58.047858 
L 232.673092 -57.913147 
L 232.194329 -57.778437 
L 231.704416 -57.643726 
L 231.204741 -57.509016 
L 230.696678 -57.374306 
L 230.181585 -57.239595 
L 229.6608 -57.104885 
z
" style="stroke: #999999; stroke-width: 2"/>
    </defs>
    <g clip-path="url(#pbe70e3ed50)">
     <use xlink:href="#mf5cecba24b" x="0" y="255.11811" style="fill: #ffffff; stroke: #999999; stroke-width: 2"/>
    </g>
   </g>
   <g id="PolyCollection_4">
    <defs>
     <path id="mf454abab9c" d="M 281.43873 -70.32796 
L 271.29749 -70.32796 
L 271.230092 -70.658078 
L 271.167931 -70.988196 
L 271.111181 -71.318314 
L 271.059991 -71.648432 
L 271.014485 -71.97855 
L 270.974764 -72.308668 
L 270.9409 -72.638786 
L 270.912939 -72.968904 
L 270.890898 -73.299022 
L 270.874765 -73.62914 
L 270.864498 -73.959258 
L 270.860026 -74.289375 
L 270.861248 -74.619493 
L 270.868031 -74.949611 
L 270.880215 -75.279729 
L 270.897608 -75.609847 
L 270.919992 -75.939965 
L 270.947118 -76.270083 
L 270.978711 -76.600201 
L 271.01447 -76.930319 
L 271.054068 -77.260437 
L 271.097157 -77.590555 
L 271.143365 -77.920673 
L 271.192299 -78.250791 
L 271.24355 -78.580909 
L 271.296691 -78.911027 
L 271.351282 -79.241145 
L 271.406869 -79.571263 
L 271.462991 -79.901381 
L 271.519176 -80.231499 
L 271.574951 -80.561617 
L 271.629836 -80.891735 
L 271.683356 -81.221853 
L 271.735036 -81.551971 
L 271.784406 -81.882089 
L 271.831004 -82.212207 
L 271.874379 -82.542325 
L 271.914095 -82.872443 
L 271.949727 -83.202561 
L 271.980871 -83.532679 
L 272.007144 -83.862797 
L 272.028184 -84.192915 
L 272.043655 -84.523033 
L 272.053247 -84.853151 
L 272.056681 -85.183269 
L 272.053708 -85.513387 
L 272.044111 -85.843505 
L 272.02771 -86.173623 
L 272.004357 -86.503741 
L 271.973945 -86.833859 
L 271.936402 -87.163977 
L 271.891698 -87.494095 
L 271.839842 -87.824213 
L 271.780881 -88.154331 
L 271.714905 -88.484449 
L 271.642046 -88.814567 
L 271.562473 -89.144685 
L 271.476397 -89.474803 
L 271.38407 -89.804921 
L 271.285781 -90.135039 
L 271.181858 -90.465157 
L 271.072663 -90.795275 
L 270.958597 -91.125393 
L 270.840091 -91.455511 
L 270.717609 -91.785629 
L 270.591644 -92.115747 
L 270.462716 -92.445865 
L 270.331369 -92.775983 
L 270.19817 -93.106101 
L 270.063702 -93.436219 
L 269.928568 -93.766336 
L 269.793381 -94.096454 
L 269.658765 -94.426572 
L 269.525349 -94.75669 
L 269.393767 -95.086808 
L 269.26465 -95.416926 
L 269.138626 -95.747044 
L 269.016317 -96.077162 
L 268.898333 -96.40728 
L 268.785269 -96.737398 
L 268.677703 -97.067516 
L 268.576193 -97.397634 
L 268.481271 -97.727752 
L 268.393444 -98.05787 
L 268.313189 -98.387988 
L 268.240949 -98.718106 
L 268.177134 -99.048224 
L 268.122114 -99.378342 
L 268.076223 -99.70846 
L 268.039752 -100.038578 
L 268.01295 -100.368696 
L 267.996022 -100.698814 
L 267.98913 -101.028932 
L 267.992389 -101.35905 
L 268.005868 -101.689168 
L 268.029591 -102.019286 
L 268.063537 -102.349404 
L 268.10764 -102.679522 
L 268.16179 -103.00964 
L 284.574431 -103.00964 
L 284.574431 -103.00964 
L 284.62858 -102.679522 
L 284.672683 -102.349404 
L 284.70663 -102.019286 
L 284.730353 -101.689168 
L 284.743832 -101.35905 
L 284.74709 -101.028932 
L 284.740198 -100.698814 
L 284.723271 -100.368696 
L 284.696469 -100.038578 
L 284.659998 -99.70846 
L 284.614106 -99.378342 
L 284.559087 -99.048224 
L 284.495271 -98.718106 
L 284.423031 -98.387988 
L 284.342776 -98.05787 
L 284.254949 -97.727752 
L 284.160028 -97.397634 
L 284.058517 -97.067516 
L 283.950952 -96.737398 
L 283.837887 -96.40728 
L 283.719903 -96.077162 
L 283.597594 -95.747044 
L 283.471571 -95.416926 
L 283.342454 -95.086808 
L 283.210871 -94.75669 
L 283.077455 -94.426572 
L 282.942839 -94.096454 
L 282.807652 -93.766336 
L 282.672518 -93.436219 
L 282.538051 -93.106101 
L 282.404851 -92.775983 
L 282.273504 -92.445865 
L 282.144576 -92.115747 
L 282.018611 -91.785629 
L 281.896129 -91.455511 
L 281.777623 -91.125393 
L 281.663557 -90.795275 
L 281.554363 -90.465157 
L 281.450439 -90.135039 
L 281.35215 -89.804921 
L 281.259823 -89.474803 
L 281.173748 -89.144685 
L 281.094175 -88.814567 
L 281.021315 -88.484449 
L 280.95534 -88.154331 
L 280.896379 -87.824213 
L 280.844522 -87.494095 
L 280.799818 -87.163977 
L 280.762276 -86.833859 
L 280.731864 -86.503741 
L 280.708511 -86.173623 
L 280.692109 -85.843505 
L 280.682513 -85.513387 
L 280.679539 -85.183269 
L 280.682973 -84.853151 
L 280.692566 -84.523033 
L 280.708037 -84.192915 
L 280.729077 -83.862797 
L 280.755349 -83.532679 
L 280.786494 -83.202561 
L 280.822126 -82.872443 
L 280.861841 -82.542325 
L 280.905217 -82.212207 
L 280.951815 -81.882089 
L 281.001184 -81.551971 
L 281.052864 -81.221853 
L 281.106384 -80.891735 
L 281.16127 -80.561617 
L 281.217044 -80.231499 
L 281.27323 -79.901381 
L 281.329351 -79.571263 
L 281.384938 -79.241145 
L 281.439529 -78.911027 
L 281.492671 -78.580909 
L 281.543922 -78.250791 
L 281.592856 -77.920673 
L 281.639063 -77.590555 
L 281.682152 -77.260437 
L 281.721751 -76.930319 
L 281.75751 -76.600201 
L 281.789103 -76.270083 
L 281.816228 -75.939965 
L 281.838612 -75.609847 
L 281.856006 -75.279729 
L 281.868189 -74.949611 
L 281.874973 -74.619493 
L 281.876194 -74.289375 
L 281.871722 -73.959258 
L 281.861455 -73.62914 
L 281.845322 -73.299022 
L 281.823281 -72.968904 
L 281.79532 -72.638786 
L 281.761456 -72.308668 
L 281.721735 -71.97855 
L 281.67623 -71.648432 
L 281.625039 -71.318314 
L 281.568289 -70.988196 
L 281.506129 -70.658078 
L 281.43873 -70.32796 
z
" style="stroke: #999999; stroke-width: 2"/>
    </defs>
    <g clip-path="url(#pbe70e3ed50)">
     <use xlink:href="#mf454abab9c" x="0" y="255.11811" style="fill: #ffffff; stroke: #999999; stroke-width: 2"/>
    </g>
   </g>
   <g id="PolyCollection_5">
    <defs>
     <path id="mf3551c77ec" d="M 355.01014 -73.871078 
L 325.810715 -73.871078 
L 325.589607 -74.011069 
L 325.375859 -74.15106 
L 325.169416 -74.29105 
L 324.970184 -74.431041 
L 324.778028 -74.571032 
L 324.592785 -74.711023 
L 324.414258 -74.851013 
L 324.242225 -74.991004 
L 324.076441 -75.130995 
L 323.916643 -75.270985 
L 323.762556 -75.410976 
L 323.613894 -75.550967 
L 323.470367 -75.690957 
L 323.331687 -75.830948 
L 323.197571 -75.970939 
L 323.067744 -76.110929 
L 322.941949 -76.25092 
L 322.819943 -76.390911 
L 322.70151 -76.530902 
L 322.586458 -76.670892 
L 322.474625 -76.810883 
L 322.365884 -76.950874 
L 322.260139 -77.090864 
L 322.157335 -77.230855 
L 322.057453 -77.370846 
L 321.960516 -77.510836 
L 321.866585 -77.650827 
L 321.775763 -77.790818 
L 321.688191 -77.930808 
L 321.604049 -78.070799 
L 321.523553 -78.21079 
L 321.446955 -78.35078 
L 321.374537 -78.490771 
L 321.306611 -78.630762 
L 321.243513 -78.770753 
L 321.185601 -78.910743 
L 321.133251 -79.050734 
L 321.08685 -79.190725 
L 321.046795 -79.330715 
L 321.013486 -79.470706 
L 320.98732 -79.610697 
L 320.96869 -79.750687 
L 320.957978 -79.890678 
L 320.955547 -80.030669 
L 320.961745 -80.170659 
L 320.976892 -80.31065 
L 321.001279 -80.450641 
L 321.035167 -80.590632 
L 321.07878 -80.730622 
L 321.132303 -80.870613 
L 321.195881 -81.010604 
L 321.269614 -81.150594 
L 321.353559 -81.290585 
L 321.447726 -81.430576 
L 321.552079 -81.570566 
L 321.666535 -81.710557 
L 321.790965 -81.850548 
L 321.925194 -81.990538 
L 322.069006 -82.130529 
L 322.22214 -82.27052 
L 322.384298 -82.41051 
L 322.555142 -82.550501 
L 322.734303 -82.690492 
L 322.921382 -82.830483 
L 323.115949 -82.970473 
L 323.317557 -83.110464 
L 323.525735 -83.250455 
L 323.74 -83.390445 
L 323.959857 -83.530436 
L 324.184805 -83.670427 
L 324.414342 -83.810417 
L 324.647966 -83.950408 
L 324.885181 -84.090399 
L 325.125501 -84.230389 
L 325.368454 -84.37038 
L 325.613582 -84.510371 
L 325.860448 -84.650362 
L 326.108634 -84.790352 
L 326.35775 -84.930343 
L 326.60743 -85.070334 
L 326.857333 -85.210324 
L 327.107152 -85.350315 
L 327.356604 -85.490306 
L 327.605439 -85.630296 
L 327.853436 -85.770287 
L 328.100401 -85.910278 
L 328.346172 -86.050268 
L 328.590612 -86.190259 
L 328.833612 -86.33025 
L 329.075085 -86.47024 
L 329.314969 -86.610231 
L 329.55322 -86.750222 
L 329.789816 -86.890213 
L 330.024748 -87.030203 
L 330.258021 -87.170194 
L 330.489652 -87.310185 
L 330.719665 -87.450175 
L 330.948091 -87.590166 
L 331.174965 -87.730157 
L 349.645889 -87.730157 
L 349.645889 -87.730157 
L 349.872764 -87.590166 
L 350.10119 -87.450175 
L 350.331203 -87.310185 
L 350.562834 -87.170194 
L 350.796107 -87.030203 
L 351.031039 -86.890213 
L 351.267635 -86.750222 
L 351.505886 -86.610231 
L 351.74577 -86.47024 
L 351.987243 -86.33025 
L 352.230243 -86.190259 
L 352.474683 -86.050268 
L 352.720454 -85.910278 
L 352.967419 -85.770287 
L 353.215416 -85.630296 
L 353.464251 -85.490306 
L 353.713703 -85.350315 
L 353.963521 -85.210324 
L 354.213425 -85.070334 
L 354.463105 -84.930343 
L 354.712221 -84.790352 
L 354.960407 -84.650362 
L 355.207273 -84.510371 
L 355.452401 -84.37038 
L 355.695353 -84.230389 
L 355.935674 -84.090399 
L 356.172889 -83.950408 
L 356.406513 -83.810417 
L 356.63605 -83.670427 
L 356.860998 -83.530436 
L 357.080855 -83.390445 
L 357.29512 -83.250455 
L 357.503298 -83.110464 
L 357.704905 -82.970473 
L 357.899473 -82.830483 
L 358.086552 -82.690492 
L 358.265713 -82.550501 
L 358.436557 -82.41051 
L 358.598715 -82.27052 
L 358.751849 -82.130529 
L 358.895661 -81.990538 
L 359.02989 -81.850548 
L 359.15432 -81.710557 
L 359.268776 -81.570566 
L 359.373129 -81.430576 
L 359.467296 -81.290585 
L 359.551241 -81.150594 
L 359.624974 -81.010604 
L 359.688552 -80.870613 
L 359.742075 -80.730622 
L 359.785688 -80.590632 
L 359.819576 -80.450641 
L 359.843963 -80.31065 
L 359.85911 -80.170659 
L 359.865307 -80.030669 
L 359.862877 -79.890678 
L 359.852165 -79.750687 
L 359.833535 -79.610697 
L 359.807369 -79.470706 
L 359.774059 -79.330715 
L 359.734004 -79.190725 
L 359.687604 -79.050734 
L 359.635253 -78.910743 
L 359.577342 -78.770753 
L 359.514244 -78.630762 
L 359.446318 -78.490771 
L 359.3739 -78.35078 
L 359.297302 -78.21079 
L 359.216806 -78.070799 
L 359.132664 -77.930808 
L 359.045092 -77.790818 
L 358.95427 -77.650827 
L 358.860339 -77.510836 
L 358.763402 -77.370846 
L 358.66352 -77.230855 
L 358.560716 -77.090864 
L 358.454971 -76.950874 
L 358.346229 -76.810883 
L 358.234397 -76.670892 
L 358.119345 -76.530902 
L 358.000912 -76.390911 
L 357.878906 -76.25092 
L 357.75311 -76.110929 
L 357.623284 -75.970939 
L 357.489167 -75.830948 
L 357.350488 -75.690957 
L 357.206961 -75.550967 
L 357.058299 -75.410976 
L 356.904212 -75.270985 
L 356.744414 -75.130995 
L 356.57863 -74.991004 
L 356.406597 -74.851013 
L 356.22807 -74.711023 
L 356.042827 -74.571032 
L 355.850671 -74.431041 
L 355.651438 -74.29105 
L 355.444996 -74.15106 
L 355.231248 -74.011069 
L 355.01014 -73.871078 
z
" style="stroke: #999999; stroke-width: 2"/>
    </defs>
    <g clip-path="url(#pbe70e3ed50)">
     <use xlink:href="#mf3551c77ec" x="0" y="255.11811" style="fill: #ffffff; stroke: #999999; stroke-width: 2"/>
    </g>
   </g>
   <g id="PolyCollection_6">
    <defs>
     <path id="ma8377d4c42" d="M 408.147975 -49.837187 
L 400.757514 -49.837187 
L 400.712406 -50.481608 
L 400.670917 -51.126029 
L 400.633101 -51.770451 
L 400.598994 -52.414872 
L 400.568615 -53.059293 
L 400.54196 -53.703714 
L 400.519012 -54.348136 
L 400.499733 -54.992557 
L 400.484067 -55.636978 
L 400.471941 -56.281399 
L 400.463267 -56.92582 
L 400.457938 -57.570242 
L 400.455835 -58.214663 
L 400.456823 -58.859084 
L 400.460755 -59.503505 
L 400.467471 -60.147927 
L 400.476802 -60.792348 
L 400.48857 -61.436769 
L 400.502587 -62.08119 
L 400.51866 -62.725612 
L 400.536593 -63.370033 
L 400.556184 -64.014454 
L 400.577229 -64.658875 
L 400.599525 -65.303297 
L 400.62287 -65.947718 
L 400.647064 -66.592139 
L 400.671909 -67.23656 
L 400.697215 -67.880982 
L 400.722797 -68.525403 
L 400.748478 -69.169824 
L 400.774088 -69.814245 
L 400.799468 -70.458667 
L 400.824469 -71.103088 
L 400.848954 -71.747509 
L 400.872796 -72.39193 
L 400.895882 -73.036352 
L 400.918112 -73.680773 
L 400.939398 -74.325194 
L 400.959666 -74.969615 
L 400.978855 -75.614036 
L 400.99692 -76.258458 
L 401.013826 -76.902879 
L 401.029554 -77.5473 
L 401.044097 -78.191721 
L 401.057459 -78.836143 
L 401.06966 -79.480564 
L 401.080727 -80.124985 
L 401.090702 -80.769406 
L 401.099636 -81.413828 
L 401.107589 -82.058249 
L 401.11463 -82.70267 
L 401.120839 -83.347091 
L 401.1263 -83.991513 
L 401.131104 -84.635934 
L 401.135351 -85.280355 
L 401.139142 -85.924776 
L 401.142585 -86.569198 
L 401.145789 -87.213619 
L 401.148868 -87.85804 
L 401.151936 -88.502461 
L 401.155108 -89.146883 
L 401.1585 -89.791304 
L 401.162227 -90.435725 
L 401.166402 -91.080146 
L 401.171138 -91.724567 
L 401.176545 -92.368989 
L 401.182728 -93.01341 
L 401.18979 -93.657831 
L 401.197832 -94.302252 
L 401.206945 -94.946674 
L 401.217221 -95.591095 
L 401.228743 -96.235516 
L 401.241589 -96.879937 
L 401.255832 -97.524359 
L 401.271537 -98.16878 
L 401.288764 -98.813201 
L 401.307566 -99.457622 
L 401.327988 -100.102044 
L 401.35007 -100.746465 
L 401.373842 -101.390886 
L 401.399331 -102.035307 
L 401.426553 -102.679729 
L 401.455518 -103.32415 
L 401.48623 -103.968571 
L 401.518683 -104.612992 
L 401.552868 -105.257414 
L 401.588764 -105.901835 
L 401.626348 -106.546256 
L 401.665588 -107.190677 
L 401.706444 -107.835099 
L 401.748873 -108.47952 
L 401.792824 -109.123941 
L 401.838239 -109.768362 
L 401.885056 -110.412783 
L 401.933208 -111.057205 
L 401.982623 -111.701626 
L 402.033223 -112.346047 
L 402.084926 -112.990468 
L 402.137648 -113.63489 
L 406.767841 -113.63489 
L 406.767841 -113.63489 
L 406.820563 -112.990468 
L 406.872266 -112.346047 
L 406.922866 -111.701626 
L 406.972281 -111.057205 
L 407.020433 -110.412783 
L 407.067251 -109.768362 
L 407.112666 -109.123941 
L 407.156616 -108.47952 
L 407.199045 -107.835099 
L 407.239901 -107.190677 
L 407.279141 -106.546256 
L 407.316725 -105.901835 
L 407.352622 -105.257414 
L 407.386806 -104.612992 
L 407.41926 -103.968571 
L 407.449971 -103.32415 
L 407.478936 -102.679729 
L 407.506158 -102.035307 
L 407.531647 -101.390886 
L 407.55542 -100.746465 
L 407.577501 -100.102044 
L 407.597924 -99.457622 
L 407.616725 -98.813201 
L 407.633952 -98.16878 
L 407.649657 -97.524359 
L 407.6639 -96.879937 
L 407.676746 -96.235516 
L 407.688268 -95.591095 
L 407.698544 -94.946674 
L 407.707658 -94.302252 
L 407.715699 -93.657831 
L 407.722762 -93.01341 
L 407.728945 -92.368989 
L 407.734351 -91.724567 
L 407.739087 -91.080146 
L 407.743263 -90.435725 
L 407.746989 -89.791304 
L 407.750381 -89.146883 
L 407.753553 -88.502461 
L 407.756621 -87.85804 
L 407.7597 -87.213619 
L 407.762904 -86.569198 
L 407.766347 -85.924776 
L 407.770138 -85.280355 
L 407.774385 -84.635934 
L 407.77919 -83.991513 
L 407.78465 -83.347091 
L 407.790859 -82.70267 
L 407.797901 -82.058249 
L 407.805854 -81.413828 
L 407.814787 -80.769406 
L 407.824762 -80.124985 
L 407.83583 -79.480564 
L 407.84803 -78.836143 
L 407.861393 -78.191721 
L 407.875935 -77.5473 
L 407.891663 -76.902879 
L 407.908569 -76.258458 
L 407.926634 -75.614036 
L 407.945824 -74.969615 
L 407.966092 -74.325194 
L 407.987378 -73.680773 
L 408.009607 -73.036352 
L 408.032693 -72.39193 
L 408.056536 -71.747509 
L 408.08102 -71.103088 
L 408.106021 -70.458667 
L 408.131401 -69.814245 
L 408.157011 -69.169824 
L 408.182692 -68.525403 
L 408.208274 -67.880982 
L 408.23358 -67.23656 
L 408.258426 -66.592139 
L 408.282619 -65.947718 
L 408.305964 -65.303297 
L 408.32826 -64.658875 
L 408.349305 -64.014454 
L 408.368896 -63.370033 
L 408.386829 -62.725612 
L 408.402903 -62.08119 
L 408.41692 -61.436769 
L 408.428687 -60.792348 
L 408.438018 -60.147927 
L 408.444735 -59.503505 
L 408.448666 -58.859084 
L 408.449654 -58.214663 
L 408.447551 -57.570242 
L 408.442223 -56.92582 
L 408.433548 -56.281399 
L 408.421422 -55.636978 
L 408.405756 -54.992557 
L 408.386477 -54.348136 
L 408.363529 -53.703714 
L 408.336875 -53.059293 
L 408.306495 -52.414872 
L 408.272388 -51.770451 
L 408.234573 -51.126029 
L 408.193084 -50.481608 
L 408.147975 -49.837187 
z
" style="stroke: #999999; stroke-width: 2"/>
    </defs>
    <g clip-path="url(#pbe70e3ed50)">
     <use xlink:href="#ma8377d4c42" x="0" y="255.11811" style="fill: #ffffff; stroke: #999999; stroke-width: 2"/>
    </g>
   </g>
   <g id="PolyCollection_7">
    <defs>
     <path id="ma6011b5e42" d="M 476.778851 -85.446424 
L 460.211273 -85.446424 
L 460.085462 -85.775048 
L 459.967776 -86.103673 
L 459.858485 -86.432297 
L 459.757825 -86.760922 
L 459.665997 -87.089547 
L 459.583163 -87.418171 
L 459.50945 -87.746796 
L 459.444943 -88.07542 
L 459.389695 -88.404045 
L 459.343717 -88.732669 
L 459.306985 -89.061294 
L 459.279439 -89.389919 
L 459.260981 -89.718543 
L 459.251482 -90.047168 
L 459.250778 -90.375792 
L 459.258676 -90.704417 
L 459.27495 -91.033041 
L 459.299351 -91.361666 
L 459.3316 -91.690291 
L 459.371396 -92.018915 
L 459.418419 -92.34754 
L 459.472326 -92.676164 
L 459.53276 -93.004789 
L 459.599349 -93.333413 
L 459.671707 -93.662038 
L 459.74944 -93.990663 
L 459.832146 -94.319287 
L 459.919416 -94.647912 
L 460.010838 -94.976536 
L 460.106 -95.305161 
L 460.204489 -95.633785 
L 460.305894 -95.96241 
L 460.409809 -96.291035 
L 460.515833 -96.619659 
L 460.623572 -96.948284 
L 460.732642 -97.276908 
L 460.842667 -97.605533 
L 460.953282 -97.934157 
L 461.064137 -98.262782 
L 461.174891 -98.591407 
L 461.285221 -98.920031 
L 461.394816 -99.248656 
L 461.503381 -99.57728 
L 461.61064 -99.905905 
L 461.71633 -100.234529 
L 461.820207 -100.563154 
L 461.922047 -100.891779 
L 462.02164 -101.220403 
L 462.118799 -101.549028 
L 462.213353 -101.877652 
L 462.305151 -102.206277 
L 462.394061 -102.534901 
L 462.479973 -102.863526 
L 462.562794 -103.19215 
L 462.642451 -103.520775 
L 462.718893 -103.8494 
L 462.792088 -104.178024 
L 462.862022 -104.506649 
L 462.928703 -104.835273 
L 462.992157 -105.163898 
L 463.05243 -105.492522 
L 463.109586 -105.821147 
L 463.163708 -106.149772 
L 463.214897 -106.478396 
L 463.26327 -106.807021 
L 463.308963 -107.135645 
L 463.352125 -107.46427 
L 463.39292 -107.792894 
L 463.431529 -108.121519 
L 463.468141 -108.450144 
L 463.502961 -108.778768 
L 463.536202 -109.107393 
L 463.568085 -109.436017 
L 463.59884 -109.764642 
L 463.628704 -110.093266 
L 463.657916 -110.421891 
L 463.686719 -110.750516 
L 463.715358 -111.07914 
L 463.744075 -111.407765 
L 463.773112 -111.736389 
L 463.802707 -112.065014 
L 463.833091 -112.393638 
L 463.86449 -112.722263 
L 463.897118 -113.050888 
L 463.931183 -113.379512 
L 463.966877 -113.708137 
L 464.004381 -114.036761 
L 464.043862 -114.365386 
L 464.085469 -114.69401 
L 464.129338 -115.022635 
L 464.175583 -115.35126 
L 464.224304 -115.679884 
L 464.275579 -116.008509 
L 464.329468 -116.337133 
L 464.386011 -116.665758 
L 464.445229 -116.994382 
L 464.507122 -117.323007 
L 464.57167 -117.651632 
L 464.638836 -117.980256 
L 472.351288 -117.980256 
L 472.351288 -117.980256 
L 472.418453 -117.651632 
L 472.483002 -117.323007 
L 472.544894 -116.994382 
L 472.604112 -116.665758 
L 472.660656 -116.337133 
L 472.714545 -116.008509 
L 472.76582 -115.679884 
L 472.814541 -115.35126 
L 472.860786 -115.022635 
L 472.904654 -114.69401 
L 472.946262 -114.365386 
L 472.985742 -114.036761 
L 473.023247 -113.708137 
L 473.058941 -113.379512 
L 473.093005 -113.050888 
L 473.125634 -112.722263 
L 473.157033 -112.393638 
L 473.187417 -112.065014 
L 473.217012 -111.736389 
L 473.246049 -111.407765 
L 473.274766 -111.07914 
L 473.303404 -110.750516 
L 473.332208 -110.421891 
L 473.36142 -110.093266 
L 473.391283 -109.764642 
L 473.422039 -109.436017 
L 473.453922 -109.107393 
L 473.487162 -108.778768 
L 473.521982 -108.450144 
L 473.558595 -108.121519 
L 473.597203 -107.792894 
L 473.637999 -107.46427 
L 473.681161 -107.135645 
L 473.726853 -106.807021 
L 473.775227 -106.478396 
L 473.826416 -106.149772 
L 473.880538 -105.821147 
L 473.937694 -105.492522 
L 473.997967 -105.163898 
L 474.061421 -104.835273 
L 474.128102 -104.506649 
L 474.198036 -104.178024 
L 474.27123 -103.8494 
L 474.347672 -103.520775 
L 474.42733 -103.19215 
L 474.510151 -102.863526 
L 474.596062 -102.534901 
L 474.684973 -102.206277 
L 474.776771 -101.877652 
L 474.871325 -101.549028 
L 474.968483 -101.220403 
L 475.068077 -100.891779 
L 475.169916 -100.563154 
L 475.273794 -100.234529 
L 475.379484 -99.905905 
L 475.486742 -99.57728 
L 475.595308 -99.248656 
L 475.704903 -98.920031 
L 475.815232 -98.591407 
L 475.925987 -98.262782 
L 476.036841 -97.934157 
L 476.147457 -97.605533 
L 476.257482 -97.276908 
L 476.366551 -96.948284 
L 476.474291 -96.619659 
L 476.580315 -96.291035 
L 476.68423 -95.96241 
L 476.785635 -95.633785 
L 476.884123 -95.305161 
L 476.979285 -94.976536 
L 477.070708 -94.647912 
L 477.157978 -94.319287 
L 477.240683 -93.990663 
L 477.318416 -93.662038 
L 477.390775 -93.333413 
L 477.457363 -93.004789 
L 477.517798 -92.676164 
L 477.571705 -92.34754 
L 477.618728 -92.018915 
L 477.658524 -91.690291 
L 477.690773 -91.361666 
L 477.715173 -91.033041 
L 477.731448 -90.704417 
L 477.739345 -90.375792 
L 477.738642 -90.047168 
L 477.729143 -89.718543 
L 477.710685 -89.389919 
L 477.683138 -89.061294 
L 477.646406 -88.732669 
L 477.600429 -88.404045 
L 477.54518 -88.07542 
L 477.480674 -87.746796 
L 477.40696 -87.418171 
L 477.324126 -87.089547 
L 477.232298 -86.760922 
L 477.131639 -86.432297 
L 477.022348 -86.103673 
L 476.904662 -85.775048 
L 476.778851 -85.446424 
z
" style="stroke: #999999; stroke-width: 2"/>
    </defs>
    <g clip-path="url(#pbe70e3ed50)">
     <use xlink:href="#ma6011b5e42" x="0" y="255.11811" style="fill: #ffffff; stroke: #999999; stroke-width: 2"/>
    </g>
   </g>
   <g id="PathCollection_1"/>
   <g id="PathCollection_2"/>
   <g id="patch_3">
    <path d="M 52.22 213.89811 
L 52.22 24.32 
" style="fill: none; stroke: #262626; stroke-width: 1.25; stroke-linejoin: miter; stroke-linecap: square"/>
   </g>
   <g id="patch_4">
    <path d="M 52.22 213.89811 
L 500.51622 213.89811 
" style="fill: none; stroke: #262626; stroke-width: 1.25; stroke-linejoin: miter; stroke-linecap: square"/>
   </g>
   <g id="PathCollection_3">
    <defs>
     <path id="C0_0_daed530ee8" d="M 0 2.5 
C 0.663008 2.5 1.29895 2.236584 1.767767 1.767767 
C 2.236584 1.29895 2.5 0.663008 2.5 -0 
C 2.5 -0.663008 2.236584 -1.29895 1.767767 -1.767767 
C 1.29895 -2.236584 0.663008 -2.5 0 -2.5 
C -0.663008 -2.5 -1.29895 -2.236584 -1.767767 -1.767767 
C -2.236584 -1.29895 -2.5 -0.663008 -2.5 0 
C -2.5 0.663008 -2.236584 1.29895 -1.767767 1.767767 
C -1.29895 2.236584 -0.663008 2.5 0 2.5 
z
"/>
    </defs>
    <g clip-path="url(#pbe70e3ed50)">
     <use xlink:href="#C0_0_daed530ee8" x="80.65249" y="181.368697" style="fill: #4c72b0; fill-opacity: 0.75"/>
    </g>
    <g clip-path="url(#pbe70e3ed50)">
     <use xlink:href="#C0_0_daed530ee8" x="87.536755" y="173.592882" style="fill: #4c72b0; fill-opacity: 0.75"/>
    </g>
    <g clip-path="url(#pbe70e3ed50)">
     <use xlink:href="#C0_0_daed530ee8" x="89.634564" y="174.890122" style="fill: #4c72b0; fill-opacity: 0.75"/>
    </g>
    <g clip-path="url(#pbe70e3ed50)">
     <use xlink:href="#C0_0_daed530ee8" x="83.751722" y="161.372239" style="fill: #4c72b0; fill-opacity: 0.75"/>
    </g>
    <g clip-path="url(#pbe70e3ed50)">
     <use xlink:href="#C0_0_daed530ee8" x="83.862508" y="189.569162" style="fill: #dd8452; fill-opacity: 0.75"/>
    </g>
    <g clip-path="url(#pbe70e3ed50)">
     <use xlink:href="#C0_0_daed530ee8" x="85.499742" y="183.918515" style="fill: #dd8452; fill-opacity: 0.75"/>
    </g>
    <g clip-path="url(#pbe70e3ed50)">
     <use xlink:href="#C0_0_daed530ee8" x="81.045495" y="187.302225" style="fill: #dd8452; fill-opacity: 0.75"/>
    </g>
    <g clip-path="url(#pbe70e3ed50)">
     <use xlink:href="#C0_0_daed530ee8" x="86.555281" y="182.984083" style="fill: #dd8452; fill-opacity: 0.75"/>
    </g>
   </g>
   <g id="PathCollection_4">
    <defs>
     <path id="C1_0_7a45f7ac25" d="M 0 2.5 
C 0.663008 2.5 1.29895 2.236584 1.767767 1.767767 
C 2.236584 1.29895 2.5 0.663008 2.5 -0 
C 2.5 -0.663008 2.236584 -1.29895 1.767767 -1.767767 
C 1.29895 -2.236584 0.663008 -2.5 0 -2.5 
C -0.663008 -2.5 -1.29895 -2.236584 -1.767767 -1.767767 
C -2.236584 -1.29895 -2.5 -0.663008 -2.5 0 
C -2.5 0.663008 -2.236584 1.29895 -1.767767 1.767767 
C -1.29895 2.236584 -0.663008 2.5 0 2.5 
z
"/>
    </defs>
    <g clip-path="url(#pbe70e3ed50)">
     <use xlink:href="#C1_0_7a45f7ac25" x="144.38818" y="82.193168" style="fill: #4c72b0; fill-opacity: 0.75"/>
    </g>
    <g clip-path="url(#pbe70e3ed50)">
     <use xlink:href="#C1_0_7a45f7ac25" x="145.492421" y="67.65364" style="fill: #4c72b0; fill-opacity: 0.75"/>
    </g>
    <g clip-path="url(#pbe70e3ed50)">
     <use xlink:href="#C1_0_7a45f7ac25" x="151.886812" y="48.814175" style="fill: #4c72b0; fill-opacity: 0.75"/>
    </g>
    <g clip-path="url(#pbe70e3ed50)">
     <use xlink:href="#C1_0_7a45f7ac25" x="143.72722" y="32.937187" style="fill: #4c72b0; fill-opacity: 0.75"/>
    </g>
    <g clip-path="url(#pbe70e3ed50)">
     <use xlink:href="#C1_0_7a45f7ac25" x="149.267369" y="71.082537" style="fill: #dd8452; fill-opacity: 0.75"/>
    </g>
    <g clip-path="url(#pbe70e3ed50)">
     <use xlink:href="#C1_0_7a45f7ac25" x="154.682295" y="66.214612" style="fill: #dd8452; fill-opacity: 0.75"/>
    </g>
    <g clip-path="url(#pbe70e3ed50)">
     <use xlink:href="#C1_0_7a45f7ac25" x="144.022703" y="81.289545" style="fill: #dd8452; fill-opacity: 0.75"/>
    </g>
    <g clip-path="url(#pbe70e3ed50)">
     <use xlink:href="#C1_0_7a45f7ac25" x="143.71782" y="57.653515" style="fill: #dd8452; fill-opacity: 0.75"/>
    </g>
   </g>
   <g id="PathCollection_5">
    <defs>
     <path id="C2_0_5954b6096d" d="M 0 2.5 
C 0.663008 2.5 1.29895 2.236584 1.767767 1.767767 
C 2.236584 1.29895 2.5 0.663008 2.5 -0 
C 2.5 -0.663008 2.236584 -1.29895 1.767767 -1.767767 
C 1.29895 -2.236584 0.663008 -2.5 0 -2.5 
C -0.663008 -2.5 -1.29895 -2.236584 -1.767767 -1.767767 
C -2.236584 -1.29895 -2.5 -0.663008 -2.5 0 
C -2.5 0.663008 -2.236584 1.29895 -1.767767 1.767767 
C -1.29895 2.236584 -0.663008 2.5 0 2.5 
z
"/>
    </defs>
    <g clip-path="url(#pbe70e3ed50)">
     <use xlink:href="#C2_0_5954b6096d" x="213.95863" y="194.363019" style="fill: #4c72b0; fill-opacity: 0.75"/>
    </g>
    <g clip-path="url(#pbe70e3ed50)">
     <use xlink:href="#C2_0_5954b6096d" x="215.735241" y="184.676895" style="fill: #4c72b0; fill-opacity: 0.75"/>
    </g>
    <g clip-path="url(#pbe70e3ed50)">
     <use xlink:href="#C2_0_5954b6096d" x="206.850869" y="193.920698" style="fill: #4c72b0; fill-opacity: 0.75"/>
    </g>
    <g clip-path="url(#pbe70e3ed50)">
     <use xlink:href="#C2_0_5954b6096d" x="213.056402" y="185.792812" style="fill: #4c72b0; fill-opacity: 0.75"/>
    </g>
    <g clip-path="url(#pbe70e3ed50)">
     <use xlink:href="#C2_0_5954b6096d" x="208.961747" y="196.689054" style="fill: #dd8452; fill-opacity: 0.75"/>
    </g>
    <g clip-path="url(#pbe70e3ed50)">
     <use xlink:href="#C2_0_5954b6096d" x="208.659214" y="198.013226" style="fill: #dd8452; fill-opacity: 0.75"/>
    </g>
    <g clip-path="url(#pbe70e3ed50)">
     <use xlink:href="#C2_0_5954b6096d" x="213.629583" y="193.626429" style="fill: #dd8452; fill-opacity: 0.75"/>
    </g>
    <g clip-path="url(#pbe70e3ed50)">
     <use xlink:href="#C2_0_5954b6096d" x="216.851162" y="192.573925" style="fill: #dd8452; fill-opacity: 0.75"/>
    </g>
   </g>
   <g id="PathCollection_6">
    <defs>
     <path id="C3_0_20b1eb3111" d="M 0 2.5 
C 0.663008 2.5 1.29895 2.236584 1.767767 1.767767 
C 2.236584 1.29895 2.5 0.663008 2.5 -0 
C 2.5 -0.663008 2.236584 -1.29895 1.767767 -1.767767 
C 1.29895 -2.236584 0.663008 -2.5 0 -2.5 
C -0.663008 -2.5 -1.29895 -2.236584 -1.767767 -1.767767 
C -2.236584 -1.29895 -2.5 -0.663008 -2.5 0 
C -2.5 0.663008 -2.236584 1.29895 -1.767767 1.767767 
C -1.29895 2.236584 -0.663008 2.5 0 2.5 
z
"/>
    </defs>
    <g clip-path="url(#pbe70e3ed50)">
     <use xlink:href="#C3_0_20b1eb3111" x="273.284843" y="154.812075" style="fill: #4c72b0; fill-opacity: 0.75"/>
    </g>
    <g clip-path="url(#pbe70e3ed50)">
     <use xlink:href="#C3_0_20b1eb3111" x="280.247207" y="154.263953" style="fill: #4c72b0; fill-opacity: 0.75"/>
    </g>
    <g clip-path="url(#pbe70e3ed50)">
     <use xlink:href="#C3_0_20b1eb3111" x="277.541474" y="155.284339" style="fill: #4c72b0; fill-opacity: 0.75"/>
    </g>
    <g clip-path="url(#pbe70e3ed50)">
     <use xlink:href="#C3_0_20b1eb3111" x="274.994845" y="179.576477" style="fill: #4c72b0; fill-opacity: 0.75"/>
    </g>
    <g clip-path="url(#pbe70e3ed50)">
     <use xlink:href="#C3_0_20b1eb3111" x="270.428916" y="152.395588" style="fill: #4c72b0; fill-opacity: 0.75"/>
    </g>
    <g clip-path="url(#pbe70e3ed50)">
     <use xlink:href="#C3_0_20b1eb3111" x="277.240923" y="178.989556" style="fill: #dd8452; fill-opacity: 0.75"/>
    </g>
    <g clip-path="url(#pbe70e3ed50)">
     <use xlink:href="#C3_0_20b1eb3111" x="272.283968" y="184.790151" style="fill: #dd8452; fill-opacity: 0.75"/>
    </g>
    <g clip-path="url(#pbe70e3ed50)">
     <use xlink:href="#C3_0_20b1eb3111" x="282.320491" y="181.943825" style="fill: #dd8452; fill-opacity: 0.75"/>
    </g>
    <g clip-path="url(#pbe70e3ed50)">
     <use xlink:href="#C3_0_20b1eb3111" x="270.055426" y="152.10847" style="fill: #dd8452; fill-opacity: 0.75"/>
    </g>
    <g clip-path="url(#pbe70e3ed50)">
     <use xlink:href="#C3_0_20b1eb3111" x="281.480723" y="153.902386" style="fill: #dd8452; fill-opacity: 0.75"/>
    </g>
   </g>
   <g id="PathCollection_7">
    <defs>
     <path id="C4_0_27cfaf4ca5" d="M 0 2.5 
C 0.663008 2.5 1.29895 2.236584 1.767767 1.767767 
C 2.236584 1.29895 2.5 0.663008 2.5 -0 
C 2.5 -0.663008 2.236584 -1.29895 1.767767 -1.767767 
C 1.29895 -2.236584 0.663008 -2.5 0 -2.5 
C -0.663008 -2.5 -1.29895 -2.236584 -1.767767 -1.767767 
C -2.236584 -1.29895 -2.5 -0.663008 -2.5 0 
C -2.5 0.663008 -2.236584 1.29895 -1.767767 1.767767 
C -1.29895 2.236584 -0.663008 2.5 0 2.5 
z
"/>
    </defs>
    <g clip-path="url(#pbe70e3ed50)">
     <use xlink:href="#C4_0_27cfaf4ca5" x="343.225088" y="173.027858" style="fill: #4c72b0; fill-opacity: 0.75"/>
    </g>
    <g clip-path="url(#pbe70e3ed50)">
     <use xlink:href="#C4_0_27cfaf4ca5" x="335.585551" y="167.387954" style="fill: #4c72b0; fill-opacity: 0.75"/>
    </g>
    <g clip-path="url(#pbe70e3ed50)">
     <use xlink:href="#C4_0_27cfaf4ca5" x="345.164455" y="173.629434" style="fill: #4c72b0; fill-opacity: 0.75"/>
    </g>
    <g clip-path="url(#pbe70e3ed50)">
     <use xlink:href="#C4_0_27cfaf4ca5" x="343.306551" y="181.247032" style="fill: #dd8452; fill-opacity: 0.75"/>
    </g>
    <g clip-path="url(#pbe70e3ed50)">
     <use xlink:href="#C4_0_27cfaf4ca5" x="344.692019" y="175.939866" style="fill: #dd8452; fill-opacity: 0.75"/>
    </g>
    <g clip-path="url(#pbe70e3ed50)">
     <use xlink:href="#C4_0_27cfaf4ca5" x="340.855713" y="180.90349" style="fill: #dd8452; fill-opacity: 0.75"/>
    </g>
   </g>
   <g id="PathCollection_8">
    <defs>
     <path id="C5_0_4b1901c223" d="M 0 2.5 
C 0.663008 2.5 1.29895 2.236584 1.767767 1.767767 
C 2.236584 1.29895 2.5 0.663008 2.5 -0 
C 2.5 -0.663008 2.236584 -1.29895 1.767767 -1.767767 
C 1.29895 -2.236584 0.663008 -2.5 0 -2.5 
C -0.663008 -2.5 -1.29895 -2.236584 -1.767767 -1.767767 
C -2.236584 -1.29895 -2.5 -0.663008 -2.5 0 
C -2.5 0.663008 -2.236584 1.29895 -1.767767 1.767767 
C -1.29895 2.236584 -0.663008 2.5 0 2.5 
z
"/>
    </defs>
    <g clip-path="url(#pbe70e3ed50)">
     <use xlink:href="#C5_0_4b1901c223" x="406.770171" y="162.779947" style="fill: #4c72b0; fill-opacity: 0.75"/>
    </g>
    <g clip-path="url(#pbe70e3ed50)">
     <use xlink:href="#C5_0_4b1901c223" x="399.006437" y="141.483221" style="fill: #4c72b0; fill-opacity: 0.75"/>
    </g>
    <g clip-path="url(#pbe70e3ed50)">
     <use xlink:href="#C5_0_4b1901c223" x="398.290414" y="172.851727" style="fill: #4c72b0; fill-opacity: 0.75"/>
    </g>
    <g clip-path="url(#pbe70e3ed50)">
     <use xlink:href="#C5_0_4b1901c223" x="406.836066" y="152.088151" style="fill: #4c72b0; fill-opacity: 0.75"/>
    </g>
    <g clip-path="url(#pbe70e3ed50)">
     <use xlink:href="#C5_0_4b1901c223" x="409.860543" y="205.280923" style="fill: #dd8452; fill-opacity: 0.75"/>
    </g>
    <g clip-path="url(#pbe70e3ed50)">
     <use xlink:href="#C5_0_4b1901c223" x="410.695484" y="201.531143" style="fill: #dd8452; fill-opacity: 0.75"/>
    </g>
    <g clip-path="url(#pbe70e3ed50)">
     <use xlink:href="#C5_0_4b1901c223" x="404.417698" y="191.8786" style="fill: #dd8452; fill-opacity: 0.75"/>
    </g>
    <g clip-path="url(#pbe70e3ed50)">
     <use xlink:href="#C5_0_4b1901c223" x="398.287048" y="204.275046" style="fill: #dd8452; fill-opacity: 0.75"/>
    </g>
   </g>
   <g id="PathCollection_9">
    <defs>
     <path id="C6_0_f10ac38853" d="M 0 2.5 
C 0.663008 2.5 1.29895 2.236584 1.767767 1.767767 
C 2.236584 1.29895 2.5 0.663008 2.5 -0 
C 2.5 -0.663008 2.236584 -1.29895 1.767767 -1.767767 
C 1.29895 -2.236584 0.663008 -2.5 0 -2.5 
C -0.663008 -2.5 -1.29895 -2.236584 -1.767767 -1.767767 
C -2.236584 -1.29895 -2.5 -0.663008 -2.5 0 
C -2.5 0.663008 -2.236584 1.29895 -1.767767 1.767767 
C -1.29895 2.236584 -0.663008 2.5 0 2.5 
z
"/>
    </defs>
    <g clip-path="url(#pbe70e3ed50)">
     <use xlink:href="#C6_0_f10ac38853" x="469.683872" y="169.671686" style="fill: #4c72b0; fill-opacity: 0.75"/>
    </g>
    <g clip-path="url(#pbe70e3ed50)">
     <use xlink:href="#C6_0_f10ac38853" x="466.620128" y="153.334081" style="fill: #4c72b0; fill-opacity: 0.75"/>
    </g>
    <g clip-path="url(#pbe70e3ed50)">
     <use xlink:href="#C6_0_f10ac38853" x="467.619764" y="142.148802" style="fill: #4c72b0; fill-opacity: 0.75"/>
    </g>
    <g clip-path="url(#pbe70e3ed50)">
     <use xlink:href="#C6_0_f10ac38853" x="472.089449" y="158.686516" style="fill: #4c72b0; fill-opacity: 0.75"/>
    </g>
    <g clip-path="url(#pbe70e3ed50)">
     <use xlink:href="#C6_0_f10ac38853" x="466.712924" y="166.810078" style="fill: #dd8452; fill-opacity: 0.75"/>
    </g>
    <g clip-path="url(#pbe70e3ed50)">
     <use xlink:href="#C6_0_f10ac38853" x="473.005906" y="164.701629" style="fill: #dd8452; fill-opacity: 0.75"/>
    </g>
    <g clip-path="url(#pbe70e3ed50)">
     <use xlink:href="#C6_0_f10ac38853" x="470.831531" y="169.387745" style="fill: #dd8452; fill-opacity: 0.75"/>
    </g>
    <g clip-path="url(#pbe70e3ed50)">
     <use xlink:href="#C6_0_f10ac38853" x="474.749046" y="137.137854" style="fill: #dd8452; fill-opacity: 0.75"/>
    </g>
   </g>
   <g id="text_18">
    <!-- LMNA, $p_{adj}$ &lt; .001 *** -->
    <g style="fill: #262626" transform="translate(52.22 18.32)scale(0.09 -0.09)">
     <defs>
      <path id="ArialMT-4c" d="M 469 0 
L 469 4581 
L 1075 4581 
L 1075 541 
L 3331 541 
L 3331 0 
L 469 0 
z
" transform="scale(0.015625)"/>
      <path id="ArialMT-4e" d="M 488 0 
L 488 4581 
L 1109 4581 
L 3516 984 
L 3516 4581 
L 4097 4581 
L 4097 0 
L 3475 0 
L 1069 3600 
L 1069 0 
L 488 0 
z
" transform="scale(0.015625)"/>
      <path id="ArialMT-41" d="M -9 0 
L 1750 4581 
L 2403 4581 
L 4278 0 
L 3588 0 
L 3053 1388 
L 1138 1388 
L 634 0 
L -9 0 
z
M 1313 1881 
L 2866 1881 
L 2388 3150 
Q 2169 3728 2063 4100 
Q 1975 3659 1816 3225 
L 1313 1881 
z
" transform="scale(0.015625)"/>
      <path id="ArialMT-2c" d="M 569 0 
L 569 641 
L 1209 641 
L 1209 0 
Q 1209 -353 1084 -570 
Q 959 -788 688 -906 
L 531 -666 
Q 709 -588 793 -436 
Q 878 -284 888 0 
L 569 0 
z
" transform="scale(0.015625)"/>
      <path id="DejaVuSans-Oblique-70" d="M 3175 2156 
Q 3175 2616 2975 2859 
Q 2775 3103 2400 3103 
Q 2144 3103 1911 2972 
Q 1678 2841 1497 2591 
Q 1319 2344 1212 1994 
Q 1106 1644 1106 1300 
Q 1106 863 1306 627 
Q 1506 391 1875 391 
Q 2147 391 2380 519 
Q 2613 647 2778 891 
Q 2956 1147 3065 1494 
Q 3175 1841 3175 2156 
z
M 1394 2969 
Q 1625 3272 1939 3428 
Q 2253 3584 2638 3584 
Q 3175 3584 3472 3232 
Q 3769 2881 3769 2247 
Q 3769 1728 3584 1258 
Q 3400 788 3053 416 
Q 2822 169 2531 39 
Q 2241 -91 1919 -91 
Q 1547 -91 1294 64 
Q 1041 219 916 525 
L 556 -1331 
L -19 -1331 
L 922 3500 
L 1497 3500 
L 1394 2969 
z
" transform="scale(0.015625)"/>
      <path id="DejaVuSans-Oblique-61" d="M 3438 1997 
L 3047 0 
L 2472 0 
L 2578 531 
Q 2325 219 2001 64 
Q 1678 -91 1281 -91 
Q 834 -91 548 182 
Q 263 456 263 884 
Q 263 1497 752 1853 
Q 1241 2209 2100 2209 
L 2900 2209 
L 2931 2363 
Q 2938 2388 2941 2417 
Q 2944 2447 2944 2509 
Q 2944 2788 2717 2942 
Q 2491 3097 2081 3097 
Q 1800 3097 1504 3025 
Q 1209 2953 897 2809 
L 997 3341 
Q 1322 3463 1633 3523 
Q 1944 3584 2234 3584 
Q 2853 3584 3176 3315 
Q 3500 3047 3500 2534 
Q 3500 2431 3484 2292 
Q 3469 2153 3438 1997 
z
M 2816 1759 
L 2241 1759 
Q 1534 1759 1195 1570 
Q 856 1381 856 984 
Q 856 709 1029 553 
Q 1203 397 1509 397 
Q 1978 397 2328 733 
Q 2678 1069 2791 1631 
L 2816 1759 
z
" transform="scale(0.015625)"/>
      <path id="DejaVuSans-Oblique-64" d="M 2675 525 
Q 2444 222 2128 65 
Q 1813 -91 1428 -91 
Q 903 -91 598 267 
Q 294 625 294 1247 
Q 294 1766 478 2236 
Q 663 2706 1013 3078 
Q 1244 3325 1534 3454 
Q 1825 3584 2144 3584 
Q 2481 3584 2739 3421 
Q 2997 3259 3138 2956 
L 3513 4863 
L 4091 4863 
L 3144 0 
L 2566 0 
L 2675 525 
z
M 891 1350 
Q 891 897 1095 644 
Q 1300 391 1663 391 
Q 1931 391 2161 520 
Q 2391 650 2566 903 
Q 2750 1166 2856 1509 
Q 2963 1853 2963 2188 
Q 2963 2622 2758 2865 
Q 2553 3109 2194 3109 
Q 1922 3109 1687 2981 
Q 1453 2853 1288 2613 
Q 1106 2353 998 2009 
Q 891 1666 891 1350 
z
" transform="scale(0.015625)"/>
      <path id="DejaVuSans-Oblique-6a" d="M 928 3500 
L 1503 3500 
L 813 -63 
L 809 -78 
Q 694 -675 544 -897 
Q 403 -1106 132 -1218 
Q -138 -1331 -506 -1331 
L -722 -1331 
L -628 -844 
L -481 -844 
Q -144 -844 -1 -703 
Q 141 -563 238 -63 
L 928 3500 
z
M 1197 4863 
L 1772 4863 
L 1631 4134 
L 1056 4134 
L 1197 4863 
z
" transform="scale(0.015625)"/>
      <path id="ArialMT-3c" d="M 350 2003 
L 350 2528 
L 3384 3809 
L 3384 3250 
L 978 2263 
L 3384 1266 
L 3384 706 
L 350 2003 
z
" transform="scale(0.015625)"/>
      <path id="ArialMT-2e" d="M 581 0 
L 581 641 
L 1222 641 
L 1222 0 
L 581 0 
z
" transform="scale(0.015625)"/>
      <path id="ArialMT-2a" d="M 200 3741 
L 344 4184 
Q 841 4009 1066 3881 
Q 1006 4447 1003 4659 
L 1456 4659 
Q 1447 4350 1384 3884 
Q 1706 4047 2122 4184 
L 2266 3741 
Q 1869 3609 1488 3566 
Q 1678 3400 2025 2975 
L 1650 2709 
Q 1469 2956 1222 3381 
Q 991 2941 816 2709 
L 447 2975 
Q 809 3422 966 3566 
Q 563 3644 200 3741 
z
" transform="scale(0.015625)"/>
     </defs>
     <use xlink:href="#ArialMT-4c" transform="translate(0 0.203125)"/>
     <use xlink:href="#ArialMT-4d" transform="translate(55.615234 0.203125)"/>
     <use xlink:href="#ArialMT-4e" transform="translate(138.916016 0.203125)"/>
     <use xlink:href="#ArialMT-41" transform="translate(211.132812 0.203125)"/>
     <use xlink:href="#ArialMT-2c" transform="translate(277.832031 0.203125)"/>
     <use xlink:href="#ArialMT-20" transform="translate(305.615234 0.203125)"/>
     <use xlink:href="#DejaVuSans-Oblique-70" transform="translate(333.398438 0.203125)"/>
     <use xlink:href="#DejaVuSans-Oblique-61" transform="translate(396.875 -16.203125)scale(0.7)"/>
     <use xlink:href="#DejaVuSans-Oblique-64" transform="translate(439.770508 -16.203125)scale(0.7)"/>
     <use xlink:href="#DejaVuSans-Oblique-6a" transform="translate(484.204102 -16.203125)scale(0.7)"/>
     <use xlink:href="#ArialMT-20" transform="translate(506.386719 0.203125)"/>
     <use xlink:href="#ArialMT-3c" transform="translate(534.169922 0.203125)"/>
     <use xlink:href="#ArialMT-20" transform="translate(592.568359 0.203125)"/>
     <use xlink:href="#ArialMT-2e" transform="translate(620.351562 0.203125)"/>
     <use xlink:href="#ArialMT-30" transform="translate(648.134766 0.203125)"/>
     <use xlink:href="#ArialMT-30" transform="translate(703.75 0.203125)"/>
     <use xlink:href="#ArialMT-31" transform="translate(759.365234 0.203125)"/>
     <use xlink:href="#ArialMT-20" transform="translate(814.980469 0.203125)"/>
     <use xlink:href="#ArialMT-2a" transform="translate(842.763672 0.203125)"/>
     <use xlink:href="#ArialMT-2a" transform="translate(881.679688 0.203125)"/>
     <use xlink:href="#ArialMT-2a" transform="translate(920.595703 0.203125)"/>
    </g>
   </g>
   <g id="legend_1">
    <g id="patch_5">
     <path d="M 441.91497 69.712344 
L 494.21622 69.712344 
Q 496.01622 69.712344 496.01622 67.912344 
L 496.01622 30.62 
Q 496.01622 28.82 494.21622 28.82 
L 441.91497 28.82 
Q 440.11497 28.82 440.11497 30.62 
L 440.11497 67.912344 
Q 440.11497 69.712344 441.91497 69.712344 
z
" style="fill: #ffffff; opacity: 0.8; stroke: #cccccc; stroke-linejoin: miter"/>
    </g>
    <g id="text_19">
     <!-- Treatment -->
     <g style="fill: #262626" transform="translate(447.729111 38.862031)scale(0.09 -0.09)">
      <use xlink:href="#ArialMT-54"/>
      <use xlink:href="#ArialMT-72" x="57.333984"/>
      <use xlink:href="#ArialMT-65" x="90.634766"/>
      <use xlink:href="#ArialMT-61" x="146.25"/>
      <use xlink:href="#ArialMT-74" x="201.865234"/>
      <use xlink:href="#ArialMT-6d" x="229.648438"/>
      <use xlink:href="#ArialMT-65" x="312.949219"/>
      <use xlink:href="#ArialMT-6e" x="368.564453"/>
      <use xlink:href="#ArialMT-74" x="424.179688"/>
     </g>
    </g>
    <g id="PathCollection_10">
     <defs>
      <path id="m666cf96c0b" d="M 0 3.872983 
C 1.027127 3.872983 2.012324 3.464901 2.738613 2.738613 
C 3.464901 2.012324 3.872983 1.027127 3.872983 0 
C 3.872983 -1.027127 3.464901 -2.012324 2.738613 -2.738613 
C 2.012324 -3.464901 1.027127 -3.872983 0 -3.872983 
C -1.027127 -3.872983 -2.012324 -3.464901 -2.738613 -2.738613 
C -3.464901 -2.012324 -3.872983 -1.027127 -3.872983 0 
C -3.872983 1.027127 -3.464901 2.012324 -2.738613 2.738613 
C -2.012324 3.464901 -1.027127 3.872983 0 3.872983 
z
" style="stroke: #4c72b0"/>
     </defs>
     <g>
      <use xlink:href="#m666cf96c0b" x="452.71497" y="49.230313" style="fill: #4c72b0; stroke: #4c72b0"/>
     </g>
    </g>
    <g id="text_20">
     <!-- BEVA -->
     <g style="fill: #262626" transform="translate(468.91497 51.592813)scale(0.09 -0.09)">
      <defs>
       <path id="ArialMT-42" d="M 469 0 
L 469 4581 
L 2188 4581 
Q 2713 4581 3030 4442 
Q 3347 4303 3526 4014 
Q 3706 3725 3706 3409 
Q 3706 3116 3547 2856 
Q 3388 2597 3066 2438 
Q 3481 2316 3704 2022 
Q 3928 1728 3928 1328 
Q 3928 1006 3792 729 
Q 3656 453 3456 303 
Q 3256 153 2954 76 
Q 2653 0 2216 0 
L 469 0 
z
M 1075 2656 
L 2066 2656 
Q 2469 2656 2644 2709 
Q 2875 2778 2992 2937 
Q 3109 3097 3109 3338 
Q 3109 3566 3000 3739 
Q 2891 3913 2687 3977 
Q 2484 4041 1991 4041 
L 1075 4041 
L 1075 2656 
z
M 1075 541 
L 2216 541 
Q 2509 541 2628 563 
Q 2838 600 2978 687 
Q 3119 775 3209 942 
Q 3300 1109 3300 1328 
Q 3300 1584 3169 1773 
Q 3038 1963 2805 2039 
Q 2572 2116 2134 2116 
L 1075 2116 
L 1075 541 
z
" transform="scale(0.015625)"/>
       <path id="ArialMT-45" d="M 506 0 
L 506 4581 
L 3819 4581 
L 3819 4041 
L 1113 4041 
L 1113 2638 
L 3647 2638 
L 3647 2100 
L 1113 2100 
L 1113 541 
L 3925 541 
L 3925 0 
L 506 0 
z
" transform="scale(0.015625)"/>
       <path id="ArialMT-56" d="M 1803 0 
L 28 4581 
L 684 4581 
L 1875 1253 
Q 2019 853 2116 503 
Q 2222 878 2363 1253 
L 3600 4581 
L 4219 4581 
L 2425 0 
L 1803 0 
z
" transform="scale(0.015625)"/>
      </defs>
      <use xlink:href="#ArialMT-42"/>
      <use xlink:href="#ArialMT-45" x="66.699219"/>
      <use xlink:href="#ArialMT-56" x="133.398438"/>
      <use xlink:href="#ArialMT-41" x="192.722656"/>
     </g>
    </g>
    <g id="PathCollection_11">
     <defs>
      <path id="m31bdb6f229" d="M 0 3.872983 
C 1.027127 3.872983 2.012324 3.464901 2.738613 2.738613 
C 3.464901 2.012324 3.872983 1.027127 3.872983 0 
C 3.872983 -1.027127 3.464901 -2.012324 2.738613 -2.738613 
C 2.012324 -3.464901 1.027127 -3.872983 0 -3.872983 
C -1.027127 -3.872983 -2.012324 -3.464901 -2.738613 -2.738613 
C -3.464901 -2.012324 -3.872983 -1.027127 -3.872983 0 
C -3.872983 1.027127 -3.464901 2.012324 -2.738613 2.738613 
C -2.012324 3.464901 -1.027127 3.872983 0 3.872983 
z
" style="stroke: #dd8452"/>
     </defs>
     <g>
      <use xlink:href="#m31bdb6f229" x="452.71497" y="61.961094" style="fill: #dd8452; stroke: #dd8452"/>
     </g>
    </g>
    <g id="text_21">
     <!-- CTRL -->
     <g style="fill: #262626" transform="translate(468.91497 64.323594)scale(0.09 -0.09)">
      <defs>
       <path id="ArialMT-43" d="M 3763 1606 
L 4369 1453 
Q 4178 706 3683 314 
Q 3188 -78 2472 -78 
Q 1731 -78 1267 223 
Q 803 525 561 1097 
Q 319 1669 319 2325 
Q 319 3041 592 3573 
Q 866 4106 1370 4382 
Q 1875 4659 2481 4659 
Q 3169 4659 3637 4309 
Q 4106 3959 4291 3325 
L 3694 3184 
Q 3534 3684 3231 3912 
Q 2928 4141 2469 4141 
Q 1941 4141 1586 3887 
Q 1231 3634 1087 3207 
Q 944 2781 944 2328 
Q 944 1744 1114 1308 
Q 1284 872 1643 656 
Q 2003 441 2422 441 
Q 2931 441 3284 734 
Q 3638 1028 3763 1606 
z
" transform="scale(0.015625)"/>
       <path id="ArialMT-52" d="M 503 0 
L 503 4581 
L 2534 4581 
Q 3147 4581 3465 4457 
Q 3784 4334 3975 4021 
Q 4166 3709 4166 3331 
Q 4166 2844 3850 2509 
Q 3534 2175 2875 2084 
Q 3116 1969 3241 1856 
Q 3506 1613 3744 1247 
L 4541 0 
L 3778 0 
L 3172 953 
Q 2906 1366 2734 1584 
Q 2563 1803 2427 1890 
Q 2291 1978 2150 2013 
Q 2047 2034 1813 2034 
L 1109 2034 
L 1109 0 
L 503 0 
z
M 1109 2559 
L 2413 2559 
Q 2828 2559 3062 2645 
Q 3297 2731 3419 2920 
Q 3541 3109 3541 3331 
Q 3541 3656 3305 3865 
Q 3069 4075 2559 4075 
L 1109 4075 
L 1109 2559 
z
" transform="scale(0.015625)"/>
      </defs>
      <use xlink:href="#ArialMT-43"/>
      <use xlink:href="#ArialMT-54" x="72.216797"/>
      <use xlink:href="#ArialMT-52" x="133.300781"/>
      <use xlink:href="#ArialMT-4c" x="205.517578"/>
     </g>
    </g>
   </g>
  </g>
 </g>
 <defs>
  <clipPath id="pbe70e3ed50">
   <rect x="52.22" y="24.32" width="448.29622" height="189.57811"/>
  </clipPath>
 </defs>
</svg>
